<svg xmlns="http://www.w3.org/2000/svg" viewBox="0 0 16 16"><path d="M 7.5 1 C 3.9160714 1 1 3.9160714 1 7.5 C 1 11.083929 3.9160714 14 7.5 14 C 11.083929 14 14 11.083929 14 7.5 C 14 3.9160714 11.083929 1 7.5 1 z M 7.5 2 C 10.543488 2 13 4.4565116 13 7.5 C 13 10.543488 10.543488 13 7.5 13 C 4.4565116 13 2 10.543488 2 7.5 C 2 4.4565116 4.4565116 2 7.5 2 z M 6.5 5 C 5.6774686 5 5 5.6774686 5 6.5 L 5 7.5 L 5 10 L 6 10 L 6 7.5 L 6 6.5 C 6 6.2185314 6.2185314 6 6.5 6 C 6.7814686 6 7 6.2185314 7 6.5 L 7 10 L 8 10 L 8 6.5 C 8 6.2185314 8.2185314 6 8.5 6 C 8.7814686 6 9 6.2185314 9 6.5 L 9 7.5 L 9 10 L 10 10 L 10 7.5 L 10 6.5 C 10 5.6774686 9.3225314 5 8.5 5 C 8.1159078 5 7.7666173 5.1513388 7.5 5.3925781 C 7.2333827 5.1513388 6.8840922 5 6.5 5 z"/></svg>