<svg xmlns="http://www.w3.org/2000/svg" viewBox="0 0 128 128"><path fill="#fff" d="M98.8 60.9L98.8 111 29.2 111 29.2 60.9 64 24.8z"/><path fill="#444b54" d="M98.8,114H29.2c-1.7,0-3-1.3-3-3V73.9c0-1.7,1.3-3,3-3s3,1.3,3,3V108h63.5V73.9c0-1.7,1.3-3,3-3s3,1.3,3,3V111C101.8,112.7,100.4,114,98.8,114z"/><path fill="#c7d6e2" d="M64,17L17.6,64l0,0c3.2,3.2,8.5,3.2,11.6-0.1L64,27.8l34.7,36.1c3.2,3.3,8.4,3.3,11.6,0.1l0,0L98.8,52.3V24.8H87.2v15.7L64,17z"/><path fill="#c7d6e2" d="M48.5,58.2L48.5,58.2c3.1-17.4,27.8-17.4,30.9,0l0,0H48.5z"/><path fill="#444b54" d="M110.4,67c-0.8,0-1.5-0.3-2.1-0.9L96.6,54.4c-0.6-0.6-0.9-1.3-0.9-2.1V27.8h-5.6v12.7c0,1.2-0.7,2.3-1.9,2.8c-1.1,0.5-2.4,0.2-3.3-0.7L64,21.3L19.8,66.1c-1.2,1.2-3.1,1.2-4.2,0c-1.2-1.2-1.2-3.1,0-4.2l46.4-47c1.1-1.1,3.1-1.1,4.3,0l18,18.3v-8.4c0-1.7,1.3-3,3-3h11.6c1.7,0,3,1.3,3,3V51l10.7,10.9c1.2,1.2,1.2,3.1,0,4.2C111.9,66.7,111.1,67,110.4,67z"/><g><path fill="#ff697d" d="M74.3,86c-1.2,0-2.3-0.7-2.8-1.9c-0.6-1.5,0.2-3.3,1.7-3.9l28.1-11c1.5-0.6,3.3,0.2,3.9,1.7c0.6,1.5-0.2,3.3-1.7,3.9l-28.1,11C75,85.9,74.7,86,74.3,86z"/></g><g><path fill="#ff697d" d="M103.4,99.2l-76.7-30c-1.5-0.6-3.3,0.2-3.9,1.7c-0.6,1.5,0.2,3.3,1.7,3.9L55.7,87L24.6,99.2c-1.5,0.6-2.3,2.3-1.7,3.9c0.5,1.2,1.6,1.9,2.8,1.9c0.4,0,0.7-0.1,1.1-0.2L64,90.2c0,0,0,0,0,0l37.3,14.6c0.4,0.1,0.7,0.2,1.1,0.2c1.2,0,2.3-0.7,2.8-1.9C105.7,101.6,105,99.8,103.4,99.2z"/></g></svg>