<?xml version="1.0"?><svg xmlns="http://www.w3.org/2000/svg" viewBox="0 0 128 128">    <path d="M 24 1 C 22.3 1 21 2.3 21 4 C 21 17.2 13.9 29.4 2.5 36 C 1.1 36.8 0.60039062 38.699609 1.4003906 40.099609 C 2.2003906 41.499609 4.1 41.999219 5.5 41.199219 C 12 37.499219 17.3 32.100391 21 25.900391 L 21 81 L 4 81 C 2.3 81 1 82.3 1 84 C 1 85.7 2.3 87 4 87 L 21 87 L 21 108 C 21 109.7 22.3 111 24 111 C 25.7 111 27 109.7 27 108 L 27 87 L 101 87 L 101 111 C 101 112.7 102.3 114 104 114 C 105.7 114 107 112.7 107 111 L 107 87 L 124 87 C 125.7 87 127 85.7 127 84 C 127 82.3 125.7 81 124 81 L 107 81 L 107 25.900391 C 110.7 32.200391 116 37.500781 122.5 41.300781 C 123.9 42.100781 125.79961 41.599219 126.59961 40.199219 C 127.39961 38.799219 126.9 36.899609 125.5 36.099609 C 114.1 29.399609 107 17.2 107 4 C 107 2.3 105.7 1 104 1 C 102.3 1 101 2.3 101 4 C 101 24.4 84.4 41 64 41 C 43.6 41 27 24.4 27 4 C 27 2.3 25.7 1 24 1 z M 27 25.900391 C 30.5 31.800391 35.299609 36.700391 41.099609 40.400391 C 40.999609 40.600391 41 40.8 41 41 L 41 81 L 27 81 L 27 25.900391 z M 101 25.900391 L 101 81 L 87 81 L 87 41 C 87 40.8 87.000391 40.600391 86.900391 40.400391 C 92.700391 36.800391 97.5 31.800391 101 25.900391 z M 47 43.5 C 51.3 45.4 56.1 46.600391 61 46.900391 L 61 81 L 47 81 L 47 43.5 z M 81 43.5 L 81 81 L 67 81 L 67 46.900391 C 71.9 46.600391 76.7 45.4 81 43.5 z M 110.5625 115.97656 C 109.60059 115.90527 108.625 116.28711 108 117.09961 C 106.1 119.49961 103.19961 120.90039 100.09961 120.90039 L 99.900391 120.90039 C 96.800391 120.90039 93.800391 119.49961 91.900391 117.09961 C 91.300391 116.39961 90.499609 116 89.599609 116 C 88.699609 116 87.900781 116.39961 87.300781 117.09961 L 87.099609 117.30078 C 85.099609 119.70078 82.100391 121.09961 78.900391 121.09961 C 75.700391 121.09961 72.800781 119.59922 70.800781 117.19922 C 70.200781 116.49922 69.4 116.09961 68.5 116.09961 C 67.6 116.09961 66.699219 116.49922 66.199219 117.19922 C 64.199219 119.59922 61.299219 121 58.199219 121 C 55.099219 121 52.099219 119.59922 50.199219 117.19922 C 49.599219 116.49922 48.800391 116.09961 47.900391 116.09961 C 47.000391 116.09961 46.099609 116.49922 45.599609 117.19922 C 43.599609 119.59922 40.699609 121 37.599609 121 C 34.499609 121 31.499609 119.59922 29.599609 117.19922 C 28.999609 116.49922 28.200781 116.09961 27.300781 116.09961 C 26.400781 116.09961 25.5 116.49922 25 117.19922 C 23 119.59922 20.1 121 17 121 C 13.9 121 10.9 119.59922 9 117.19922 C 8 115.89922 6.1007813 115.69922 4.8007812 116.69922 C 3.5007813 117.69922 3.3007813 119.60039 4.3007812 120.90039 C 6.8007812 124.70039 11.400391 126.90039 16.400391 126.90039 C 20.200391 126.90039 23.900781 125.59922 26.800781 123.19922 C 29.700781 125.59922 33.299219 126.90039 37.199219 126.90039 C 41.099219 126.90039 44.699609 125.59922 47.599609 123.19922 C 50.499609 125.59922 54.1 126.90039 58 126.90039 C 61.8 126.90039 65.500391 125.59922 68.400391 123.19922 C 71.300391 125.59922 75.000781 127 78.800781 127 L 79 127 C 82.9 127 86.599609 125.59922 89.599609 123.19922 C 92.399609 125.49922 96.000781 126.90039 99.800781 126.90039 L 100 126.90039 C 105 126.90039 109.59922 124.70078 112.69922 120.80078 C 113.69922 119.50078 113.49922 117.59961 112.19922 116.59961 C 111.71172 116.22461 111.13965 116.01934 110.5625 115.97656 z M 124 121 A 3 3 0 0 0 121 124 A 3 3 0 0 0 124 127 A 3 3 0 0 0 127 124 A 3 3 0 0 0 124 121 z"/></svg>