<?xml version="1.0"?><svg xmlns="http://www.w3.org/2000/svg" viewBox="0 0 128 128">    <path d="M 63.900391 13.699219 C 59.200391 13.699219 54.999609 16.099219 52.599609 20.199219 L 41.099609 40.199219 C 40.299609 41.599219 40.799219 43.500781 42.199219 44.300781 C 42.699219 44.600781 43.199219 44.699219 43.699219 44.699219 C 44.699219 44.699219 45.700781 44.199219 46.300781 43.199219 L 57.800781 23.199219 C 59.100781 20.999219 61.300391 19.699219 63.900391 19.699219 C 66.400391 19.699219 68.7 20.999219 70 23.199219 L 87 52.699219 L 79.599609 51.099609 C 77.999609 50.799609 76.4 51.800391 76 53.400391 C 75.7 55.000391 76.700781 56.6 78.300781 57 L 92.099609 59.900391 C 92.299609 59.900391 92.499219 60 92.699219 60 C 93.299219 60 93.800781 59.799609 94.300781 59.599609 C 94.400781 59.599609 94.5 59.500391 94.5 59.400391 C 95.3 58.800391 95.699219 57.900391 95.699219 56.900391 L 98.5 43.800781 C 99.1 42.100781 98.000391 40.499219 96.400391 40.199219 C 94.800391 39.899219 93.200781 40.9 92.800781 42.5 L 91.5 48.5 L 75.199219 20.199219 C 72.799219 16.099219 68.600391 13.699219 63.900391 13.699219 z M 70.042969 37.992188 C 69.716602 37.975195 69.386719 38.125 69.199219 38.5 L 51.099609 68.400391 C 50.699609 69.100391 51.2 69.900391 52 69.900391 L 61.300781 69.900391 L 56.699219 88.699219 C 56.399219 89.799219 57.8 90.4 58.5 89.5 L 76.800781 64.300781 C 77.300781 63.600781 76.8 62.699219 76 62.699219 L 66.300781 62.699219 L 71 39.199219 C 71.125 38.511719 70.586914 38.020508 70.042969 37.992188 z M 37.962891 48.875 C 37.450391 48.9 36.95 49.050781 36.5 49.300781 L 23.800781 53.5 C 22.200781 54 21.400391 55.700781 21.900391 57.300781 C 22.400391 58.900781 24.099219 59.699219 25.699219 59.199219 L 31.5 57.300781 L 15.199219 85.5 C 12.899219 89.6 12.899219 94.4 15.199219 98.5 C 17.599219 102.6 21.800391 105 26.400391 105 L 49.199219 104.90039 C 50.899219 104.90039 52.199219 103.50039 52.199219 101.90039 C 52.299219 100.30039 50.900781 98.900391 49.300781 98.900391 L 26.400391 99 C 23.900391 99 21.600781 97.7 20.300781 95.5 C 19.000781 93.3 19.000781 90.7 20.300781 88.5 L 37.300781 59 L 39.699219 66.199219 C 40.099219 67.499219 41.299609 68.300781 42.599609 68.300781 C 42.899609 68.300781 43.2 68.299219 43.5 68.199219 C 45.1 67.699219 45.900391 66.000391 45.400391 64.400391 L 41 50.900391 C 40.7 50.100391 40.199609 49.499219 39.599609 49.199219 L 39.5 49.199219 C 39 48.949219 38.475391 48.85 37.962891 48.875 z M 99.001953 64.027344 C 98.420703 63.982813 97.825781 64.100391 97.300781 64.400391 C 95.900781 65.200391 95.399219 67.1 96.199219 68.5 L 107.40039 87.900391 C 107.50039 88.100391 107.59922 88.299609 107.69922 88.599609 C 108.99922 90.799609 108.99922 93.399609 107.69922 95.599609 C 106.39922 97.799609 104.19961 99.099609 101.59961 99.099609 L 67.599609 99.099609 L 72.699219 93.5 C 73.799219 92.3 73.7 90.400781 72.5 89.300781 C 71.3 88.200781 69.400781 88.3 68.300781 89.5 L 58.800781 100 C 58.300781 100.6 58 101.29961 58 102.09961 L 58 102.19922 C 58 103.29922 58.6 104.30078 59.5 104.80078 L 69.400391 113.80078 C 70.000391 114.30078 70.700391 114.59961 71.400391 114.59961 C 72.200391 114.59961 72.999609 114.29961 73.599609 113.59961 C 74.699609 112.39961 74.600391 110.50039 73.400391 109.40039 L 68.800781 105.30078 L 101.5 105.30078 C 106.2 105.30078 110.39922 102.90078 112.69922 98.800781 C 114.89922 95.000781 114.99961 90.499609 113.09961 86.599609 C 113.19961 85.999609 113.10039 85.7 112.90039 85.5 L 101.40039 65.5 C 100.90039 64.625 99.970703 64.101562 99.001953 64.027344 z"/></svg>