<?xml version="1.0"?><svg xmlns="http://www.w3.org/2000/svg" viewBox="0 0 80 80">    <path d="M 39.955078 8.75 C 30.238078 8.75 22.441 12.09025 18 18.15625 C 13.564125 24.215366 12.81568 32.586006 15.810547 42.382812 C 15.076758 43.233146 14.589844 44.350911 14.589844 45.816406 C 14.589844 48.474406 16.473766 50.818516 19.009766 51.478516 C 20.136766 61.284516 29.915078 73.25 39.955078 73.25 C 50.085078 73.25 59.775297 61.222469 60.779297 51.355469 C 63.378297 50.719469 65.189453 48.454844 65.189453 45.714844 C 65.225964 44.399577 64.86522 43.273683 64.121094 42.357422 C 64.889838 39.956266 68.242878 28.34151 63.636719 20.988281 C 61.653719 17.821281 58.4755 15.915313 54.1875 15.320312 C 52.1075 12.719312 47.668078 8.75 39.955078 8.75 z M 39.955078 10.748047 C 46.167411 10.748047 49.976001 13.608069 52.015625 15.859375 C 52.012985 15.877435 52.001671 15.891772 52 15.910156 C 51.95 16.460156 52.359156 16.94 52.910156 17 L 53 17 C 53.003417 17 53.006355 16.998082 53.009766 16.998047 C 53.160358 17.128626 53.335509 17.230101 53.537109 17.253906 C 57.403109 17.706906 60.230406 19.317875 61.941406 22.046875 C 65.687149 28.022384 63.375252 37.71087 62.425781 41.007812 C 61.259929 40.386759 60.013623 40.145459 59.214844 40.058594 C 58.291624 30.819236 53.72161 28.684408 49.962891 26.953125 C 47.835891 25.973125 45.999797 25.127719 45.091797 23.136719 C 44.966797 22.864719 44.728453 22.662938 44.439453 22.585938 C 44.150453 22.510937 43.840656 22.565234 43.597656 22.740234 C 42.974656 23.188234 42.703016 23.874562 42.416016 24.601562 C 41.781016 26.206562 40.823937 28.632766 34.835938 30.134766 C 26.755089 32.18632 22.231841 34.06449 20.925781 40.046875 C 19.895821 40.139936 18.640458 40.42822 17.501953 41.046875 C 14.959264 32.205168 15.677573 24.716906 19.615234 19.337891 C 23.669234 13.799891 30.892078 10.748047 39.955078 10.748047 z M 49.123047 16.351562 C 48.994297 16.371875 48.8675 16.417734 48.75 16.490234 C 48.281 16.780234 48.139688 17.399141 48.429688 17.869141 C 48.619687 18.169141 48.938297 18.339844 49.279297 18.339844 C 49.459297 18.339844 49.640781 18.289453 49.800781 18.189453 L 49.810547 18.189453 C 50.270547 17.899453 50.420859 17.280547 50.130859 16.810547 C 49.913359 16.458047 49.509297 16.290625 49.123047 16.351562 z M 46.175781 18.837891 C 45.920656 18.835391 45.665703 18.929141 45.470703 19.119141 L 45.460938 19.119141 C 45.069938 19.509141 45.058219 20.139063 45.449219 20.539062 C 45.648219 20.739062 45.909922 20.839844 46.169922 20.839844 C 46.419922 20.839844 46.669141 20.740781 46.869141 20.550781 C 47.259141 20.160781 47.260859 19.530625 46.880859 19.140625 C 46.686359 18.940625 46.430906 18.840391 46.175781 18.837891 z M 44.212891 25.496094 C 45.508891 27.103094 47.341953 27.947531 49.126953 28.769531 C 53.191953 30.641531 57.394531 32.577516 57.394531 43.603516 C 57.394531 44.156516 57.841531 44.603516 58.394531 44.603516 C 58.947531 44.603516 59.394531 44.156516 59.394531 43.603516 C 59.394531 43.078213 59.372089 42.595437 59.353516 42.105469 C 60.249301 42.234871 61.55112 42.546896 62.402344 43.425781 C 62.958344 43.999781 63.215453 44.7315 63.189453 45.6875 C 63.189453 47.7275 61.771234 49.299766 59.740234 49.509766 L 58.890625 49.597656 L 58.84375 50.451172 C 58.35275 59.532172 49.105078 71.25 39.955078 71.25 C 30.886078 71.25 21.551594 59.597406 20.933594 50.566406 L 20.876953 49.732422 L 20.044922 49.640625 C 18.138922 49.431625 16.589844 47.715406 16.589844 45.816406 C 16.589844 43.119223 19.185086 42.331556 20.619141 42.099609 C 20.557802 42.778126 20.515625 43.484899 20.515625 44.255859 C 20.515625 44.808859 20.963625 45.255859 21.515625 45.255859 C 22.067625 45.255859 22.515625 44.807906 22.515625 44.253906 C 22.515625 36.496906 25.401219 34.591266 35.324219 32.072266 C 42.109219 30.370266 43.465891 27.375094 44.212891 25.496094 z M 39.910156 35.730469 C 39.350156 35.740469 38.910156 36.190234 38.910156 36.740234 C 38.920156 37.290234 39.360156 37.730469 39.910156 37.730469 L 39.919922 37.730469 C 40.469922 37.730469 40.920156 37.280469 40.910156 36.730469 C 40.910156 36.170469 40.460156 35.730469 39.910156 35.730469 z M 43.970703 35.830078 C 43.420703 35.800078 42.939156 36.219297 42.910156 36.779297 C 42.879156 37.329297 43.299609 37.800078 43.849609 37.830078 L 43.910156 37.830078 C 44.439156 37.830078 44.880156 37.420625 44.910156 36.890625 C 44.940156 36.340625 44.520703 35.870078 43.970703 35.830078 z M 35.839844 35.900391 C 35.289844 35.940391 34.879922 36.420703 34.919922 36.970703 C 34.959922 37.490703 35.399922 37.900391 35.919922 37.900391 C 35.939922 37.900391 35.970234 37.900625 35.990234 37.890625 C 36.540234 37.850625 36.949922 37.370312 36.919922 36.820312 C 36.869922 36.270312 36.389844 35.860391 35.839844 35.900391 z M 48.009766 36.189453 C 47.460766 36.129453 46.968438 36.520547 46.898438 37.060547 C 46.839438 37.610547 47.228297 38.109687 47.779297 38.179688 L 47.888672 38.179688 C 48.388672 38.179687 48.828672 37.810781 48.888672 37.300781 C 48.948672 36.750781 48.559766 36.259453 48.009766 36.189453 z M 31.800781 36.330078 C 31.250781 36.400078 30.869219 36.910938 30.949219 37.460938 C 31.019219 37.960938 31.449453 38.320312 31.939453 38.320312 C 31.989453 38.320312 32.030078 38.320547 32.080078 38.310547 C 32.630078 38.230547 33.009687 37.729687 32.929688 37.179688 C 32.849688 36.629687 32.350781 36.250078 31.800781 36.330078 z M 52.029297 36.800781 C 51.478297 36.700781 50.959141 37.059609 50.869141 37.599609 C 50.769141 38.149609 51.129922 38.669766 51.669922 38.759766 C 51.728922 38.779766 51.789609 38.779297 51.849609 38.779297 C 52.318609 38.779297 52.740078 38.440937 52.830078 37.960938 C 52.929078 37.420938 52.568297 36.900781 52.029297 36.800781 z M 27.800781 37.019531 C 27.260781 37.129531 26.909531 37.659219 27.019531 38.199219 C 27.119531 38.669219 27.54 39 28 39 C 28.07 39 28.139219 38.990469 28.199219 38.980469 C 28.739219 38.870469 29.090469 38.340781 28.980469 37.800781 C 28.870469 37.260781 28.340781 36.909531 27.800781 37.019531 z M 39.955078 41.041016 C 37.381638 41.041016 34.806305 42.603187 34.595703 42.732422 C 33.690406 42.477206 32.626692 42.34375 31.394531 42.34375 C 25.367531 42.34375 24.466797 45.661625 24.466797 47.640625 C 24.466797 51.566625 27.575531 54.761719 31.394531 54.761719 C 35.213531 54.761719 38.320312 51.565625 38.320312 47.640625 C 38.320312 45.996892 37.80376 44.738194 36.791016 43.857422 C 37.688161 43.455381 38.862314 43.041016 39.953125 43.041016 C 41.095003 43.041016 42.267703 43.466654 43.121094 43.853516 C 42.106101 44.73442 41.589844 45.994955 41.589844 47.640625 C 41.589844 51.566625 44.696625 54.761719 48.515625 54.761719 C 52.334625 54.761719 55.442359 51.565625 55.443359 47.640625 C 55.443359 45.661625 54.542625 42.34375 48.515625 42.34375 C 47.283197 42.34375 46.219789 42.477206 45.314453 42.732422 C 45.103852 42.603187 42.527539 41.041016 39.955078 41.041016 z M 31.394531 44.34375 C 35.735531 44.34375 36.320312 46.010625 36.320312 47.640625 C 36.320312 50.463625 34.111531 52.761719 31.394531 52.761719 C 28.677531 52.761719 26.466797 50.463625 26.466797 47.640625 C 26.466797 46.739625 26.467531 44.34375 31.394531 44.34375 z M 48.515625 44.34375 C 53.441625 44.34375 53.442359 46.738625 53.443359 47.640625 C 53.443359 50.463625 51.232625 52.761719 48.515625 52.761719 C 45.798625 52.761719 43.589844 50.463625 43.589844 47.640625 C 43.589844 46.010625 44.173625 44.34375 48.515625 44.34375 z"/></svg>