<svg xmlns="http://www.w3.org/2000/svg" viewBox="0 0 26 26"><path d="M 2 3 C 0.898438 3 0 3.898438 0 5 L 0 11 C 0 12.101563 0.898438 13 2 13 L 24 13 C 25.101563 13 26 12.101563 26 11 L 26 5 C 26 3.898438 25.101563 3 24 3 Z M 4 6 C 5.101563 6 6 6.898438 6 8 C 6 9.101563 5.101563 10 4 10 C 2.898438 10 2 9.101563 2 8 C 2 6.898438 2.898438 6 4 6 Z M 10 6 C 11.101563 6 12 6.898438 12 8 C 12 9.101563 11.101563 10 10 10 C 8.898438 10 8 9.101563 8 8 C 8 6.898438 8.898438 6 10 6 Z M 16 6 C 17.101563 6 18 6.898438 18 8 C 18 9.101563 17.101563 10 16 10 C 14.898438 10 14 9.101563 14 8 C 14 6.898438 14.898438 6 16 6 Z M 22 6 C 23.101563 6 24 6.898438 24 8 C 24 9.101563 23.101563 10 22 10 C 20.898438 10 20 9.101563 20 8 C 20 6.898438 20.898438 6 22 6 Z M 16.875 15 C 16.6875 15.039063 16.507813 15.164063 16.40625 15.3125 L 11.6875 22.09375 L 9.6875 20 C 9.386719 19.699219 8.988281 19.699219 8.6875 20 L 7.6875 21 C 7.386719 21.300781 7.386719 21.699219 7.6875 22 L 11.1875 25.59375 C 11.386719 25.792969 11.792969 26 12.09375 26 C 12.394531 26 12.707031 25.800781 12.90625 25.5 L 18.6875 17 C 18.988281 16.601563 18.992188 16.105469 18.59375 15.90625 L 17.40625 15.09375 C 17.257813 14.992188 17.0625 14.960938 16.875 15 Z"/></svg>