<svg xmlns="http://www.w3.org/2000/svg" viewBox="0 0 100 100"><path fill="#fff" d="M19.8 55A.9.9 0 1 0 19.8 56.8.9.9 0 1 0 19.8 55zM78.9 30.3A.7.7 0 1 0 78.9 31.7.7.7 0 1 0 78.9 30.3z"/><path fill="#f1bc19" d="M76.2 11A.9.9 0 1 0 76.2 12.8.9.9 0 1 0 76.2 11zM20.3 62.6A.9.9 0 1 0 20.3 64.4.9.9 0 1 0 20.3 62.6z"/><path fill="#e6edb7" d="M49.1 11.700000000000003A37.5 37.5 0 1 0 49.1 86.7A37.5 37.5 0 1 0 49.1 11.700000000000003Z"/><path fill="#f1bc19" d="M81.7 10.1A4 4 0 1 0 81.7 18.1A4 4 0 1 0 81.7 10.1Z"/><path fill="#6f913d" d="M85.7 21.3A1.9 1.9 0 1 0 85.7 25.099999999999998A1.9 1.9 0 1 0 85.7 21.3Z"/><path fill="#fbcd59" d="M76.7 73.69999999999999A1.9 1.9 0 1 0 76.7 77.5 1.9 1.9 0 1 0 76.7 73.69999999999999zM13.5 58.7A4 4 0 1 0 13.5 66.7 4 4 0 1 0 13.5 58.7z"/><path fill="#6f913d" d="M23.8 84.89999999999999A1.9 1.9 0 1 0 23.8 88.7A1.9 1.9 0 1 0 23.8 84.89999999999999Z"/><path fill="#fff" d="M75.3 27.7A1.8 1.8 0 1 0 75.3 31.3 1.8 1.8 0 1 0 75.3 27.7zM17.3 48A2.5 2.5 0 1 0 17.3 53 2.5 2.5 0 1 0 17.3 48z"/><path fill="#e5ac80" d="M67.6,70.4c-0.4-2.2-1.3-3.4-3.3-4l-0.3-0.1L63.3,66c-1.3-0.5-8.7-3.3-8.7-3.3 c-0.6-0.1-1-0.5-1.2-1.1c-0.2-0.9-0.3-1.9-0.2-2.9c-1.6,0.6-3.3,1-5,1.4c-1.9,0.2-6-2.3-6-2.3s-0.1,3-0.2,3.7 c-0.2,0.6-0.7,1-1.3,1.1l-7.1,2.6c-0.8,0.2-1.5,0.5-2.2,0.9c-1.5,1-2.6,2.4-3.2,4.2c0,0-0.5,3.3-0.5,3.4c0,0.5-0.1,1-0.1,1.5 c7.8,5.3,14,6.7,24.7,6.3c4.9-0.2,12.1-2.6,15.9-4.5C68,72.9,67.6,70.4,67.6,70.4z"/><path fill="#88ae45" d="M64.1,66.2c-0.1,0-0.2-0.1-0.3-0.1l-0.6-0.2c-0.8-0.3-3.9-1.5-6.2-2.3h-0.1 c-2.5,1.3-6.1,3.2-9.4,3.2s-6.6-1.8-9.4-3.3l-0.3,0.1l-4.4,1.6c-0.8,0.2-1.5,0.5-2.2,0.9c-1.5,1-2.6,2.5-3.1,4.2 c0,0-0.5,3.3-0.5,3.4c0,0.5-0.1,5.4-0.1,6c7.8,5.3,14,6.7,24.7,6.3c4.9-0.2,12.1-2.6,15.9-4.5c-0.2-4.2-0.6-11.2-0.6-11.2 C67,68.1,66.1,66.9,64.1,66.2z"/><path fill="#f1bc19" fill-rule="evenodd" d="M55.6,63.2c-0.1,0-0.1,0-0.2-0.1c-4.3,4.5-11.5,4.7-16,0.4 c-0.1-0.1-0.1-0.1-0.2-0.2c-0.5,0.3-1,0.5-1.5,0.6c4.1,4.4,12.7,7.6,19-0.4C56.3,63.3,56,63.2,55.6,63.2z" clip-rule="evenodd"/><path fill="#6f913d" d="M34.4 84.1c-.2 0-.3-.1-.3-.3v-4c0-.2.1-.3.3-.3s.3.1.3.3v4C34.7 84 34.6 84.1 34.4 84.1zM60.7 84.8c-.2 0-.3-.1-.3-.3v-4.6c0-.2.1-.3.3-.3s.3.1.3.3v4.6C61 84.6 60.9 84.8 60.7 84.8z"/><path fill="#edbc94" d="M59.9,44h-0.4c-1,0-1.2,0.3-1.2-0.3c0.1-1-0.1-5.3-0.1-5.5c0-4.4-4.7-8-10.5-8.2l0,0h-0.2l0,0 c-5.8,0.2-10.5,3.8-10.5,8.2c0,0.2-0.2,4.5-0.1,5.5c0,0.6-0.2,0.2-1.2,0.3h-0.4c-1,0-1.8,0.6-2.1,1.6c0.1,0.1,0.6,3.7,1.4,5.1 c0.4,0.8,1.1,0.9,1.8,1.4c0.3,0.2,0.5,0.6,0.6,1c0.5,1.6,1.4,2.9,2.7,4c0.6,0.6,4.5,4.7,7.8,4.5s7.3-3.9,7.9-4.5 c1.2-1.1,2.2-2.4,2.7-4c0.1-0.4,0.3-0.8,0.6-1c0.7-0.5,1.4-0.6,1.8-1.4c0.8-1.4,1.3-5,1.4-5.1C61.7,44.6,60.9,44,59.9,44z"/><path fill="#512c2b" d="M47.8 51.9c.7 0 1.3-.3 1.8-.8 0 0 0-.1 0-.2 0 0 0 0 0 0l0 0c0 0-.1 0-.2 0 0 0 0 0 0 0-.9.8-2.3.8-3.2 0 0 0-.1 0-.1 0 0 0-.1 0-.1 0 0 0 0 .1 0 .2 0 0 0 0 0 0C46.5 51.7 47.1 51.9 47.8 51.9zM45.6 41.7l.4-.8c-1.9-.4-3.8-.4-5.7.2l.5.8C42.4 41.4 44 41.3 45.6 41.7zM54.8 41.7l.4-.8c-1.9-.4-3.8-.4-5.7.2l.5.8C51.6 41.4 53.2 41.3 54.8 41.7zM42.9 42.9c-.4 0-.8.3-1 .7h.2c.4 0 .7.4.6.8 0 .3-.3.6-.6.6-.1 0-.2 0-.3-.1.1.6.6 1.1 1.2 1.1.9-.2 1.4-1.1 1.2-2C44 43.5 43.6 43 42.9 42.9L42.9 42.9zM52.5 42.9c-.4 0-.7.2-.9.5.1 0 .2 0 .2 0 .4 0 .7.3.7.7 0 .4-.3.7-.7.7-.2 0-.4-.1-.5-.3.2.7.9 1.1 1.6.9.7-.2 1.1-.9.9-1.6C53.6 43.3 53.1 42.9 52.5 42.9z"/><path fill="#472b29" d="M48.9,86.7c-8.9,0-14.7-1.8-21.5-6.4c-0.1-0.1-0.2-0.2-0.2-0.4c0-0.1,0-0.4,0-0.9 c0-2,0.1-6.8,0.6-8.6c0.4-1.9,1.6-3.5,3.4-4.4c0.7-0.4,1.5-0.7,2.3-0.9l7.1-2.6c0.5-0.1,0.9-0.4,1-0.9c0-0.3,0.1-1.2,0.1-2.1 c-0.7-0.5-1.4-1.1-2.1-1.6c-1.3-1.2-2.3-2.7-2.8-4.3c0-0.4-0.2-0.7-0.4-0.9c-0.2-0.2-0.4-0.3-0.6-0.4c-0.5-0.3-0.9-0.5-1.3-1.2 c-0.8-1.7-1.3-3.5-1.4-5.4c0-0.1,0-0.1,0-0.2c0.3-1.1,1.3-1.9,2.5-1.9h0.4c0.3,0,0.6,0,0.8,0.1c-0.1-1,0-3.8,0.1-5 c0-0.3,0-0.5,0-0.5c0-4.7,4.8-8.6,10.9-8.8h0.2c6.1,0.2,10.9,4.1,10.9,8.8c0,0,0,0.2,0,0.5c0,1.2,0.1,4.1,0.1,5 c0.2,0,0.5-0.1,0.8-0.1h0.4c1.2,0,2.1,0.8,2.5,1.9c0,0,0,0.1,0,0.1c-0.2,1.9-0.6,3.7-1.4,5.4c-0.4,0.7-0.8,0.9-1.3,1.2 c-0.2,0.1-0.4,0.2-0.6,0.4c-0.2,0.2-0.4,0.5-0.4,0.8c-0.5,1.8-1.5,3.3-2.8,4.4c-0.7,0.6-1.5,1.2-2.3,1.8c0,0.7,0.1,1.3,0.3,2 c0.2,0.4,0.5,0.7,1,0.8c0.3,0.1,7.5,2.8,8.7,3.3l0.9,0.4c2.1,0.6,3.2,1.9,3.6,4.3c0,0,0,0,0,0.1c0,0.1,0.4,7,0.6,11.2 c0,0.2-0.1,0.3-0.2,0.4c-4,2-11.3,4.4-16.1,4.6C51.1,86.7,49.9,86.7,48.9,86.7z M28,79.8c7.4,5,13.6,6.5,24.3,6.1 c4.5-0.2,11.5-2.4,15.5-4.4c-0.2-4.1-0.5-10.4-0.5-10.9c-0.4-2.1-1.3-3.1-3.1-3.7l-1-0.4c-1.2-0.5-8.6-3.2-8.7-3.3 c-0.6-0.2-1.2-0.7-1.5-1.3c-0.3-0.8-0.3-1.7-0.3-2.5c0-0.1,0.1-0.2,0.2-0.3c0.8-0.6,1.6-1.2,2.4-1.8c1.2-1.1,2.1-2.4,2.6-4 c0-0.4,0.3-0.9,0.7-1.2c0.3-0.2,0.5-0.3,0.7-0.5c0.4-0.2,0.7-0.4,1-0.9c0.7-1.6,1.2-3.3,1.3-5c-0.2-0.7-0.9-1.2-1.7-1.2h-0.4 c-0.3,0-0.5,0-0.7,0.1c-0.3,0-0.5,0.1-0.7-0.1c-0.2-0.2-0.2-0.5-0.2-0.6c0.1-0.8,0-3.9-0.1-5.1c0-0.3,0-0.5,0-0.5 c0-4.3-4.4-7.8-10.1-8h-0.2c-5.6,0.2-10.1,3.7-10.1,8c0,0,0,0.2,0,0.5c0,1.2-0.1,4.2-0.1,5.1c0,0.3,0,0.5-0.2,0.6 c-0.2,0.2-0.4,0.1-0.7,0.1c-0.2,0-0.4-0.1-0.7-0.1l-0.4,0c-0.8,0-1.4,0.5-1.7,1.2c0.2,1.7,0.6,3.4,1.3,5c0.2,0.4,0.6,0.6,1,0.8 c0.2,0.1,0.5,0.3,0.7,0.5c0.4,0.3,0.7,0.8,0.7,1.3c0.5,1.5,1.3,2.8,2.5,3.9c0.7,0.6,1.5,1.2,2.2,1.7c0.1,0.1,0.2,0.2,0.2,0.3 c0,1-0.1,2.1-0.2,2.5c-0.3,0.8-0.9,1.3-1.6,1.5l-7.1,2.6c-0.8,0.2-1.5,0.5-2.1,0.9c-1.6,0.8-2.6,2.2-3,3.9 c-0.5,1.7-0.5,6.4-0.6,8.4C28,79.4,28,79.6,28,79.8z"/><path fill="#d3a47d" d="M60 48.8l-.6-.1.2-1.8-1 .4-.2-.6 1.5-.6c.1 0 .2 0 .3 0 .1.1.1.2.1.3L60 48.8zM35.8 48.4l-.3-2.3c0-.1 0-.2.1-.3.1-.1.2-.1.3 0l1.5.6L37.2 47l-1-.4.2 1.8L35.8 48.4z"/><path fill="#472b29" d="M37.1 52.9C37.1 52.9 37.1 52.9 37.1 52.9c-.1 0-.2-.1-.2-.2L37 44c0-.1.1-.2.2-.2 0 0 0 0 0 0 .1 0 .2.1.2.2l-.2 8.7C37.3 52.8 37.2 52.9 37.1 52.9zM58.5 52.9c-.1 0-.2-.1-.2-.2L58.1 44c0-.1.1-.2.2-.2.1 0 .2.1.2.2l.2 8.7C58.7 52.8 58.6 52.8 58.5 52.9 58.5 52.9 58.5 52.9 58.5 52.9zM54.2 58.3c-1.8 1.2-5.2 1.9-5.8.8-.5-.8-1.2-.8-1.7 0-.7 1.2-4.3 0-6.2-1.4-.5 0 0 .2-.4.5 2.4 2.1 4.7 4.8 7.5 4.8s4.3-2.4 6.9-4.4C54.1 58.3 54.8 58.3 54.2 58.3z"/><path fill="#6d1b18" d="M44.3,54.3c0,0.2-0.1,0.3-0.1,0.5c0,1.4,1.5,2.5,3.4,2.5s3.4-1.1,3.4-2.5c0-0.2,0-0.3-0.1-0.5 H44.3z"/><path fill="#ee3e54" d="M49.5,56.9c-1.1-0.8-2.6-0.8-3.6,0C47,57.4,48.3,57.4,49.5,56.9z"/><path fill="#fdfcef" d="M45.3,54.3L45.3,54.3v0.4c0,0.4,0.5,0.7,1.1,0.7H49c0.6,0,1.1-0.3,1.1-0.7v-0.4l0,0L45.3,54.3z"/><path fill="#472b29" d="M47.6,57.5c-2,0-3.6-1.2-3.6-2.7c0-0.2,0-0.4,0.1-0.5c0-0.1,0.1-0.1,0.2-0.1H51 c0.1,0,0.2,0.1,0.2,0.1c0,0.2,0.1,0.3,0.1,0.5C51.3,56.2,49.7,57.5,47.6,57.5z M44.4,54.5c0,0.1,0,0.2,0,0.3 c0,1.3,1.4,2.3,3.2,2.3c1.8,0,3.2-1,3.2-2.3c0-0.1,0-0.2,0-0.3H44.4z"/><path fill="#512c2b" d="M62.8,35.7c-2.3,0.2-3.7-2.4-5.2-4.2c-3.7-4.5-10-5.9-15.2-3.3c-1.1,0.4-2.1,1.2-2.8,2.1 c-2.7,1-4.2,4.2-4.7,7.3c-0.7,3.6,2.6,9.1,2.8,6c0.3-2.5,0.9-5,2-7.3c0.4-0.9,0.8-1.8,1-2.8c0.3,2.3,3.6,4.5,5.6,4.5 c0.2,0,0.3-0.8,0.3-1.9c0.5,0.9,1.3,1.6,2.2,2.2c1.3,0.8,2.8,1.4,4.4,1.6c-0.6-0.3-0.9-0.8-1-1.4c0-0.3,0-0.6,0-1 c1.3,0.9,2.8,1.4,4.3,1.5c0.2,0,0.4,0,0.5,0c0.7,1.5,1.1,3.1,1.2,4.7c0.2,3.1,2.7-2.1,2-5.6v-0.1C61.1,37.5,62,36.7,62.8,35.7z M40.9,32c0,0,0-0.1,0-0.1l0,0V32z"/><g><path fill="#fdfcee" d="M69.6 57.699999999999996A14.4 14.4 0 1 0 69.6 86.5A14.4 14.4 0 1 0 69.6 57.699999999999996Z"/><path fill="#472b29" d="M69.6,86.9c-8.2,0-14.8-6.6-14.8-14.8c0-8.2,6.6-14.8,14.8-14.8c8.2,0,14.8,6.6,14.8,14.8 C84.4,80.2,77.8,86.9,69.6,86.9z M69.6,58c-7.8,0-14.1,6.3-14.1,14.1s6.3,14.1,14.1,14.1s14.1-6.3,14.1-14.1S77.4,58,69.6,58z"/></g><g><path fill="#88ae45" d="M69.6 60.199999999999996A11.9 11.9 0 1 0 69.6 84A11.9 11.9 0 1 0 69.6 60.199999999999996Z"/><path fill="#472b29" d="M69.6,84.2c-6.7,0-12.2-5.5-12.2-12.2c0-6.7,5.5-12.2,12.2-12.2c6.7,0,12.2,5.5,12.2,12.2 C81.8,78.8,76.4,84.2,69.6,84.2z M69.6,60.4c-6.4,0-11.7,5.2-11.7,11.7s5.2,11.7,11.7,11.7s11.7-5.2,11.7-11.7 S76.1,60.4,69.6,60.4z"/></g><path fill="#c0d078" d="M69.7,62c5.1,0,9.7,3.1,11.4,7.9 c-1.2-6.3-7.2-10.5-13.6-9.3c-4.7,0.9-8.4,4.6-9.3,9.3C60,65.1,64.6,62,69.7,62z" opacity=".44"/><g><path fill="#fdfcee" d="M63.2,70.4V77c0,0.6,0.5,1,1.1,1h10.9c0.5,0,1-0.5,1-1v-6.6H63.2z"/><path fill="#472b29" d="M64.2,78.3c-0.7,0-1.3-0.5-1.3-1.2l0-6.6c0-0.1,0.1-0.3,0.3-0.3h12.9c0.1,0,0.3,0.1,0.3,0.3V77 c0,0.7-0.6,1.2-1.2,1.3H64.2z M63.4,70.7V77c0,0.4,0.4,0.7,0.8,0.8h10.9c0.4,0,0.7-0.4,0.8-0.8v-6.3H63.4z"/></g><g><path fill="#836f61" d="M76.2,70.3l0.2-1.3c0.1-0.6-0.3-1.1-0.9-1.2L64.8,66c-0.5-0.1-1.1,0.2-1.2,0.8c0,0,0,0.1,0,0.1 l-0.2,1.3L76.2,70.3z"/><path fill="#472b29" d="M76.2,70.5C76.1,70.5,76.1,70.5,76.2,70.5l-12.8-2.1c-0.1,0-0.1,0-0.2-0.1c0-0.1-0.1-0.1,0-0.2 l0.2-1.3c0,0,0-0.1,0-0.1c0.1-0.3,0.3-0.6,0.5-0.8c0.3-0.2,0.6-0.2,0.9-0.2l10.6,1.8c0.3,0.1,0.6,0.2,0.8,0.5s0.3,0.6,0.2,1 l-0.2,1.2C76.4,70.4,76.3,70.5,76.2,70.5z M63.7,67.9L76,70l0.2-1c0-0.2,0-0.4-0.1-0.6c-0.1-0.2-0.3-0.3-0.5-0.3l-10.7-1.8 c-0.2,0-0.4,0-0.6,0.1c-0.2,0.1-0.3,0.3-0.3,0.5c0,0,0,0.1,0,0.1L63.7,67.9z"/></g><path fill="#472b29" d="M63.4 68.2c0 0-.1 0-.1-.1 0-.1 0-.1 0-.2l2.7-1.9c.1 0 .1 0 .2 0 0 .1 0 .1 0 .2L63.4 68.2C63.5 68.2 63.4 68.2 63.4 68.2zM65.5 68.6c0 0-.1 0-.1-.1 0-.1 0-.1 0-.2l2.7-1.9c.1 0 .1 0 .2 0 0 .1 0 .1 0 .2L65.5 68.6C65.5 68.6 65.5 68.6 65.5 68.6zM67.5 68.9c0 0-.1 0-.1-.1 0-.1 0-.1 0-.2l2.7-1.9c.1 0 .1 0 .2 0 0 .1 0 .1 0 .2L67.5 68.9C67.6 68.9 67.6 68.9 67.5 68.9zM69.6 69.3c0 0-.1 0-.1-.1 0-.1 0-.1 0-.2l2.7-1.9c.1 0 .1 0 .2 0 0 .1 0 .1 0 .2L69.6 69.3C69.6 69.3 69.6 69.3 69.6 69.3zM71.6 69.6c0 0-.1 0-.1-.1 0-.1 0-.1 0-.2l2.7-1.9c.1 0 .1 0 .2 0 0 .1 0 .1 0 .2L71.6 69.6C71.7 69.6 71.7 69.6 71.6 69.6zM73.7 70c0 0-.1 0-.1-.1 0-.1 0-.1 0-.2L76 68c.1 0 .1 0 .2 0 0 .1 0 .1 0 .2L73.7 70C73.7 69.9 73.7 70 73.7 70z"/><path fill="#836f61" d="M63.3 70.5H75.89999999999999V72.7H63.3z"/><path fill="#472b29" d="M63.4 72.9C63.4 72.9 63.4 72.9 63.4 72.9c-.1-.1-.1-.2-.1-.2l2.3-2.3c0 0 .1 0 .2 0 0 0 0 .1 0 .2L63.4 72.9C63.5 72.9 63.5 72.9 63.4 72.9zM65.5 72.9C65.5 72.9 65.4 72.9 65.5 72.9c-.1-.1-.1-.2-.1-.2l2.3-2.3c0 0 .1 0 .2 0 0 0 0 .1 0 .2L65.5 72.9C65.6 72.9 65.5 72.9 65.5 72.9zM67.6 72.9C67.5 72.9 67.5 72.9 67.6 72.9c-.1-.1-.1-.2-.1-.2l2.3-2.3c0 0 .1 0 .2 0s0 .1 0 .2L67.6 72.9C67.6 72.9 67.6 72.9 67.6 72.9zM69.6 72.9C69.6 72.9 69.6 72.9 69.6 72.9c-.1-.1-.1-.2-.1-.2l2.3-2.3c0 0 .1 0 .2 0 0 0 0 .1 0 .2L69.6 72.9C69.7 72.9 69.7 72.9 69.6 72.9zM71.7 72.9C71.7 72.9 71.6 72.9 71.7 72.9c-.1-.1-.1-.2-.1-.2l2.3-2.3c0 0 .1 0 .2 0s0 .1 0 .2L71.7 72.9C71.8 72.9 71.7 72.9 71.7 72.9zM73.8 72.9C73.7 72.9 73.7 72.9 73.8 72.9c-.1-.1-.1-.2-.1-.2l2.1-2.1c0 0 .1 0 .2 0s0 .1 0 .2L73.8 72.9C73.8 72.9 73.8 72.9 73.8 72.9z"/><path fill="#472b29" d="M76,73H63.2c-0.1,0-0.3-0.1-0.3-0.3v-2.4c0-0.1,0.1-0.3,0.3-0.3h13c0.1,0,0.3,0.1,0.3,0.3 s-0.1,0.3-0.3,0.3H63.4v1.9H76c0.1,0,0.3,0.1,0.3,0.3S76.2,73,76,73z"/><g><path fill="#cdcbbd" d="M74.8 74.4L74.8 76.5 72.3 76.5 72.3 74 74.6 74"/><path fill="#472b29" d="M74.8,76.6h-2.5c-0.1,0-0.1-0.1-0.1-0.1V74c0-0.1,0.1-0.1,0.1-0.1h2.3c0.1,0,0.1,0.1,0.1,0.1 s-0.1,0.1-0.1,0.1h-2.1v2.2h2.2v-1.9c0-0.1,0.1-0.1,0.1-0.1s0.1,0.1,0.1,0.1v2.1C74.9,76.6,74.9,76.6,74.8,76.6z"/></g><g><path fill="#cdcbbd" d="M69 75.7L69 74 71.5 74 71.5 76.5 69.4 76.5"/><path fill="#472b29" d="M71.5,76.6h-2c-0.1,0-0.1-0.1-0.1-0.1s0.1-0.1,0.1-0.1h1.9v-2.2h-2.2v1.5c0,0.1-0.1,0.1-0.1,0.1 s-0.1-0.1-0.1-0.1V74c0-0.1,0.1-0.1,0.1-0.1h2.5c0.1,0,0.1,0.1,0.1,0.1v2.5C71.6,76.6,71.6,76.6,71.5,76.6z"/></g><path fill="#472b29" d="M69 76.4C69 76.4 69 76.4 69 76.4c-.1-.1-.1-.1-.1-.1s0-.1 0-.1c.1 0 .1 0 .2 0 0 0 0 0 0 .1S69.1 76.4 69 76.4C69.1 76.4 69.1 76.4 69 76.4zM64.3 74.2h-.2C64 74.2 64 74.1 64 74s.1-.1.1-.1h.2c.1 0 .1.1.1.1S64.4 74.2 64.3 74.2zM64.7 74.2C64.7 74.2 64.6 74.1 64.7 74.2c-.1-.1-.1-.1-.1-.1 0 0 0-.1 0-.1 0 0 .1 0 .2 0 0 0 0 .1 0 .1C64.8 74.1 64.8 74.1 64.7 74.2 64.8 74.1 64.7 74.2 64.7 74.2zM68 74.2h-2.9c-.1 0-.1-.1-.1-.1s.1-.1.1-.1H68c.1 0 .1.1.1.1S68.1 74.2 68 74.2zM68 75h-3.9C64 75 64 74.9 64 74.9s.1-.1.1-.1H68c.1 0 .1.1.1.1S68.1 75 68 75zM68 75.8h-3.9c-.1 0-.1-.1-.1-.1s.1-.1.1-.1H68c.1 0 .1.1.1.1S68.1 75.8 68 75.8zM68 76.6h-3.9c-.1 0-.1-.1-.1-.1s.1-.1.1-.1H68c.1 0 .1.1.1.1S68.1 76.6 68 76.6z"/></svg>