<svg xmlns="http://www.w3.org/2000/svg" viewBox="0 0 100 100"><path fill="#fff" d="M19.8 54.6A.9.9 0 1 0 19.8 56.4.9.9 0 1 0 19.8 54.6zM78.9 29.900000000000002A.7.7 0 1 0 78.9 31.3.7.7 0 1 0 78.9 29.900000000000002z"/><path fill="#f1bc19" d="M76.3 10.7A.9.9 0 1 0 76.3 12.5.9.9 0 1 0 76.3 10.7zM20.3 62.300000000000004A.9.9 0 1 0 20.3 64.10000000000001.9.9 0 1 0 20.3 62.300000000000004z"/><path fill="#e6edb7" d="M49.2 11.299999999999997A37.5 37.5 0 1 0 49.2 86.3A37.5 37.5 0 1 0 49.2 11.299999999999997Z"/><path fill="#f1bc19" d="M81.7 9.8A4 4 0 1 0 81.7 17.8A4 4 0 1 0 81.7 9.8Z"/><path fill="#6f913d" d="M85.7 20.900000000000002A1.9 1.9 0 1 0 85.7 24.7A1.9 1.9 0 1 0 85.7 20.900000000000002Z"/><path fill="#fbcd59" d="M76.7 73.39999999999999A1.9 1.9 0 1 0 76.7 77.2 1.9 1.9 0 1 0 76.7 73.39999999999999zM13.6 58.3A4 4 0 1 0 13.6 66.3 4 4 0 1 0 13.6 58.3z"/><path fill="#6f913d" d="M23.8 84.5A1.9 1.9 0 1 0 23.8 88.30000000000001A1.9 1.9 0 1 0 23.8 84.5Z"/><path fill="#fff" d="M75.4 27.3A1.8 1.8 0 1 0 75.4 30.900000000000002 1.8 1.8 0 1 0 75.4 27.3zM17.3 47.7A2.5 2.5 0 1 0 17.3 52.7 2.5 2.5 0 1 0 17.3 47.7z"/><path fill="#3a1e0b" d="M63,36.1c0.9,2.8-0.3,6.1,1.5,8.6c0.9,1,1.9,2,2.9,2.8c1,0.9,1.9,2.1,1.7,3.3 c-0.2,1.6-2,2.7-2.3,4.3c-0.4,2.5,2.8,4.1,4,6.4c1.6,3-1.1,6.8-4.8,7.7c-3.8,0.7-7.6-0.4-10.4-3.1c-2.4-2.5-4-5.6-4.8-8.9 c-2-6.8-2.9-15.1-0.8-22C51.8,29,61.2,30.6,63,36.1z"/><path fill="#3a1e0b" d="M33.3,66.6C32,66.1,31,65.2,30.6,64c-0.5-1.7,0.9-3.4,2.1-4.6c1.3-1.2,2.8-2.7,2.7-4.4 c0-2.4-2.9-4.2-2.3-6.5c0.5-1.8,2.7-2.6,3.8-4.2c1.5-2.2,0.3-5.1,0.3-7.7c0.2-3.4,2.1-6.4,5.1-8c2.9-1.5,6.3-1.7,9.4-0.8 c2.8,0.8,5.5,3,5.3,6c-0.3,2.8-2.9,4.6-5.1,6.2s-4.7,4-4.1,6.7c0.4,1.9,2.2,3.2,2.6,5c0.5,2.4-2,5-4.4,4.5c2.2,1.1,3.3,3.7,2.5,6.1 c-0.7,2.2-2.7,3.6-4.6,4.9l-3.7,2.5c-1.1,0.8-2.4,1.8-3.7,1.9C36.4,68.7,36,67.8,33.3,66.6z"/><path fill="#eabfa2" d="M61,42.3c0.1-1.5,0.5-3.2,0.7-3.9l-1.1-3.2c-1.3-1.6-2.1-3-3.9-4.2c-2-1.3-4.5-0.5-6.7-1.1 c-5.5-1.4-10.5,4.2-12.3,9.4c0,0,0,0.1,0,0.1c0.2,0.9,0.3,1.9,0.3,2.9c-1.5,0-2.3,0.8-1.7,2.3c0,0,0.6,2.5,1,3.8 c0.1,0.7,0.7,1.2,1.4,1.2c0,0.8,0,1.6,0,2.4c0,1,0.3,1.9,0.8,2.7c1.5,2.1,8.9,7,10.7,6.8c2.9,0,8.7-5,10.2-7.5 c0.3-0.5,0.4-1.1,0.5-1.6c0-1,0-1.9,0-2.9c0.6-0.1,1.1-0.5,1.2-1.2c0.4-1.2,1-3.7,1-3.8C63.6,43.1,62.5,42.3,61,42.3z"/><path fill="#d19e82" d="M65.4,67.1L65.1,67l-0.6-0.2c-1.2-0.5-9-3.2-9-3.2c-0.5-0.1-1-0.5-1.2-1c-0.2-0.9-0.3-1.9-0.2-2.8 c-1.3,0.6-2.7,1.1-4.1,1.4c-1.8,0.2-5-2.2-5-2.2s-0.1,2.9-0.2,3.6c-0.2,0.6-0.6,1-1.2,1.1l-7.5,2.5c-2.7,0.6-4.7,2.7-5.3,5.4h0 c0,0.1,0,0.3-0.1,0.6c-0.1,0.4-0.1,0.9-0.1,1.3c0,0.4-0.1,6.8-0.1,7.3c2.6,3.3,12,5.8,22.2,5.8c4.5,0,13.2-4.1,16.5-6 C68.7,71.4,69.6,68.4,65.4,67.1z"/><path fill="#472b29" d="M38.9 50.3c-.1 0-.2-.1-.2-.2l-.8-7.8c0-.1.1-.2.2-.2.1 0 .2.1.2.2l.8 7.8C39.1 50.2 39 50.3 38.9 50.3 38.9 50.3 38.9 50.3 38.9 50.3zM60.7 49.9C60.7 49.9 60.7 49.9 60.7 49.9c-.1 0-.2-.1-.2-.2l.5-7.8c0-.1.1-.2.2-.2 0 0 0 0 0 0 .1 0 .2.1.2.2l-.5 7.8C60.9 49.8 60.8 49.9 60.7 49.9z"/><path fill="#6f913d" d="M41.2,64.4c5.4,2.4,10.9,2.4,15.7-0.6l4.7,1.6l1.2,18.4c-2.8,0.6-17.9,5.1-27.3,0.2l0.7-17.9 L41.2,64.4z"/><path fill="#472b29" d="M50.3,61.3c-1.9,0-4.9-1.6-5-1.7c-0.1-0.1-0.2-0.2-0.1-0.3c0.1-0.1,0.2-0.2,0.3-0.1 c0,0,3.3,1.8,4.9,1.6c1.5-0.3,2.9-0.8,4.2-1.6c0.1-0.1,0.3,0,0.3,0.1c0.1,0.1,0,0.3-0.1,0.3c-1.4,0.8-2.8,1.3-4.4,1.6 C50.4,61.3,50.3,61.3,50.3,61.3z"/><path fill="#fbcd59" d="M45.2 31.4A1.4 1.4 0 1 0 45.2 34.199999999999996A1.4 1.4 0 1 0 45.2 31.4Z"/><path fill="#472b29" d="M50,50.9c0.8,0,1.5-0.3,2.1-0.9c0.1-0.1,0.1-0.1,0-0.2 c0,0,0,0,0,0l0,0c-0.1-0.1-0.1-0.1-0.2,0c-0.5,0.5-1.2,0.8-1.9,0.7c-0.7,0-1.4-0.2-1.9-0.7c0,0-0.1-0.1-0.1,0c0,0-0.1,0-0.1,0 c-0.1,0.1-0.1,0.1,0,0.2c0,0,0,0,0,0C48.4,50.6,49.2,50.9,50,50.9z" opacity=".41"/><path fill="#472b29" d="M47.4 41l.5-1c-2.2-.5-4.6-.4-6.8.2l.7 1C43.6 40.6 45.5 40.6 47.4 41zM58.3 41l.5-1c-2.2-.5-4.6-.4-6.8.2l.7 1C54.5 40.6 56.4 40.6 58.3 41zM44.2 42.2c-.5 0-1 .4-1.2.8.1 0 .1 0 .2 0 .5 0 .8.4.8.9 0 .5-.3.8-.8.9 0 0 0 0 0 0-.1 0-.3 0-.4-.1.1.7.7 1.3 1.4 1.4 1.1-.3 1.6-1.4 1.3-2.5C45.3 42.9 44.8 42.4 44.2 42.2L44.2 42.2zM55.6 42.2c-.5 0-.9.3-1.1.7.1 0 .2-.1.3-.1.5 0 .8.4.8.9 0 .5-.3.8-.8.9 0 0 0 0 0 0-.3 0-.5-.1-.6-.4.3.8 1.1 1.3 1.9 1 .8-.3 1.3-1.1 1-1.9C56.9 42.6 56.3 42.1 55.6 42.2L55.6 42.2z"/><path fill="#cd9480" d="M42.7 47.199999999999996A2.2 2.2 0 1 0 42.7 51.6 2.2 2.2 0 1 0 42.7 47.199999999999996zM57.2 47.199999999999996A2.2 2.2 0 1 0 57.2 51.6 2.2 2.2 0 1 0 57.2 47.199999999999996z"/><path fill="#6d1b18" d="M46.7,54.4c0,0.1-0.1,0.3-0.1,0.5c0,1.3,1.5,2.4,3.3,2.4s3.3-1.1,3.3-2.4c0-0.2,0-0.3-0.1-0.5H46.7z"/><path fill="#ee3e54" d="M51.7,56.9c-0.5-0.4-1.1-0.6-1.7-0.6c-0.6,0-1.3,0.2-1.8,0.6c0.6,0.2,1.2,0.4,1.8,0.4 C50.6,57.3,51.2,57.2,51.7,56.9z"/><path fill="#fdfcef" d="M47.6,54.4v0.5c0,0.4,0.5,0.7,1,0.7h2.5c0.6,0,1.1-0.3,1.1-0.7v-0.5H47.6z"/><path fill="#472b29" d="M50,57.5c-2,0-3.5-1.2-3.5-2.6c0-0.2,0-0.3,0.1-0.5c0-0.1,0.1-0.1,0.2-0.1h6.6 c0.1,0,0.2,0.1,0.2,0.1c0,0.2,0.1,0.3,0.1,0.5C53.5,56.3,51.9,57.5,50,57.5z M46.8,54.6c0,0.1,0,0.2,0,0.3c0,1.2,1.4,2.2,3.1,2.2 s3.1-1,3.1-2.2c0-0.1,0-0.2,0-0.3H46.8z"/><path fill="#472b29" d="M49.2,87C49.2,87,49.2,87,49.2,87c-6.8,0-13.3-2-18.9-5.7c-0.1-0.1-0.2-0.2-0.2-0.4 c0-0.1-0.9-11.7,3.8-14.2c0.7-0.4,1.4-0.7,2.2-0.9l7.5-2.5c0.5-0.1,0.8-0.4,0.9-0.8c0.1-0.4,0.2-1.9,0.2-2.7 c-2.5-1.5-4.9-3.5-5.6-4.6c-0.6-0.8-1-1.9-0.9-3l0-2c-0.7-0.2-1.3-0.8-1.4-1.5c-0.4-1.2-1-3.6-1-3.7c-0.4-1.1-0.1-1.8,0.2-2.1 c0.2-0.3,0.7-0.7,1.5-0.8c0-0.1,0-0.3,0-0.4c-0.2-0.5-0.4-1.1-0.5-1.7c0-6.4,5.6-11.5,12.5-11.5c6.9,0,12.5,5.1,12.5,11.4 c0,0.7-0.2,1.3-0.5,1.9c0,0.1,0,0.2,0,0.3c0.8,0.1,1.5,0.4,1.8,0.9c0.3,0.4,0.6,1,0.2,2.1l0,0c-0.1,0.7-0.8,3-1,3.8 c-0.1,0.6-0.6,1.2-1.2,1.4v2.5c0,0.7-0.2,1.3-0.5,1.9c-1.7,2.4-3.8,4.3-6.2,5.9c0,0.7,0,1.5,0.2,2.2c0.1,0.3,0.4,0.5,0.8,0.6 c0.3,0.1,7.9,2.7,9.1,3.2l0.9,0.3c3.7,1.1,3.8,5.9,3.9,12.6l0,1.1c0,0.2-0.1,0.3-0.2,0.4C63.4,84.8,56.4,87,49.2,87z M49.1,86 C49.2,86,49.2,86,49.1,86c7,0,13.7-2,19.5-5.8l0-0.8c-0.2-6.4-0.3-10.7-3.3-11.6l-0.9-0.4c-1.2-0.5-8.9-3.1-9-3.1 c-0.6-0.2-1.2-0.6-1.5-1.3c-0.3-1-0.3-1.9-0.3-2.9c0-0.2,0.1-0.3,0.2-0.4c2.4-1.5,4.4-3.4,6.1-5.7c0.2-0.4,0.3-0.9,0.4-1.4l0-2.8 c0-0.3,0.2-0.5,0.4-0.5c0.4-0.1,0.7-0.4,0.8-0.8c0.4-1.2,1-3.6,1-3.8c0.2-0.5,0.1-0.9-0.1-1.2C62.3,43.2,61.7,43,61,43 c-0.1,0-0.3,0-0.4-0.1c-0.1-0.1-0.2-0.2-0.2-0.4c0-0.7,0-1.1,0.2-1.3c0.2-0.4,0.3-0.9,0.3-1.4c0-5.7-5.2-10.4-11.5-10.4 S38,34.1,38,39.9c0,0.4,0.2,0.9,0.4,1.4c0,0,0,0.1,0,0.1c0,0.3,0.1,0.7,0.1,1.1c0,0.1,0,0.3-0.1,0.4C38.3,42.9,38.1,43,38,43 c-0.4,0-1,0.1-1.2,0.4c-0.2,0.3-0.1,0.9,0,1.3c0,0.1,0.6,2.6,1,3.8c0.1,0.5,0.5,0.8,1,0.8c0.3,0,0.5,0.2,0.5,0.5v2.4 c0,0.9,0.2,1.7,0.7,2.4c0.7,1,3.1,3,5.5,4.4c0.2,0.1,0.2,0.3,0.2,0.4c0,0.8-0.2,2.7-0.3,3.3c-0.2,0.8-0.9,1.3-1.6,1.5l-7.4,2.5 c-0.7,0.2-1.4,0.5-2,0.8c-3.8,1.9-3.4,11.3-3.3,13C36.4,84.1,42.7,86,49.1,86C49.1,86,49.1,86,49.1,86z"/><path fill="#fbcd59" d="M38.9 49.4c0 .4-.4.8-.8.8-.4 0-.8-.4-.8-.8 0 0 0 0 0 0 0-.4.4-.8.8-.8C38.5 48.6 38.9 49 38.9 49.4zM61.6 48.900000000000006A.8.8 0 1 0 61.6 50.5.8.8 0 1 0 61.6 48.900000000000006z"/><path fill="#512c2b" d="M45.6 65.1c-.4-1.4-1-3-2.4-3.5-2.3-.9-2.7-3.1-2.9-5.1 0 0-1-.9-1.1-1-.5 1-1.2 2-1.8 3-.8 1.1-1 2.6-.8 3.9.5 1.8 2.5 2.7 3.2 4.4.4 1.4.3 2.8-.3 4.1-.6 1.3-.9 2.6-1 4 0 1.4 1 2.9 2.2 2.9-.5-1.5-.3-3.3.7-4.6.9-1.3 2-2.3 3-3.6C45.5 68.4 45.9 66.7 45.6 65.1zM53.2 33.9c-.3-1.5-2.3-1.6-3.3-.7s-1.5 2.4-2.1 3.8c-1.1 2.4-2.9 4.3-5.2 5.5-1.6.8-3.4 1.1-5 1.9-1.7.8-3 2.4-3.2 4.3-.2 2 1.7 4 3.3 3.2-2.9 1.1-6.3-.3-7.5-3.2-1.2-3-.9-7 1.7-8.6 1.2-.7 2.3-1 3.3-2.1 1.2-1.3 1.3-3.3 1.8-5.1 1.4-5.1 7.5-8.7 12.2-8.1 2.2.2 4.1 1.4 5.2 3.3C55.5 30.1 55 32.5 53.2 33.9z"/><path fill="#512c2b" d="M66.7,40.3c0.4-0.4,0,3.2-1.1,4c-1.1,0.9-2.6,1-3.8,0.3c-1.5-1-2.2-3.2-2.4-5 c-0.2-1.6-0.9-3.2-2.1-4.3c-1.1-1.1-2.6-2-4-1.4c-0.5-2,1.4-4.1,3.5-4.6c1.9-0.3,3.8,0.6,4.8,2.2c1,1.6,1.6,3.4,1.7,5.3 c0,0.8,0.1,1.5,0.3,2.3c0.3,0.7,0.4,2.1,1,2.5C65.9,42.4,66.3,40.7,66.7,40.3z"/><g><path fill="#fdfcee" d="M69.7 57.300000000000004A14.4 14.4 0 1 0 69.7 86.10000000000001A14.4 14.4 0 1 0 69.7 57.300000000000004Z"/><path fill="#472b29" d="M69.7,86.5c-8.2,0-14.8-6.6-14.8-14.8c0-8.2,6.6-14.8,14.8-14.8c8.2,0,14.8,6.6,14.8,14.8 C84.5,79.9,77.8,86.5,69.7,86.5z M69.7,57.7c-7.8,0-14.1,6.3-14.1,14.1s6.3,14.1,14.1,14.1s14.1-6.3,14.1-14.1S77.4,57.7,69.7,57.7 z"/></g><g><path fill="#88ae45" d="M69.7 59.800000000000004A11.9 11.9 0 1 0 69.7 83.60000000000001A11.9 11.9 0 1 0 69.7 59.800000000000004Z"/><path fill="#472b29" d="M69.7,83.9c-6.7,0-12.2-5.5-12.2-12.2c0-6.7,5.5-12.2,12.2-12.2c6.7,0,12.2,5.5,12.2,12.2 C81.9,78.4,76.4,83.9,69.7,83.9z M69.7,60C63.2,60,58,65.3,58,71.7s5.2,11.7,11.7,11.7s11.7-5.2,11.7-11.7S76.1,60,69.7,60z"/></g><path fill="#c0d078" d="M69.7,61.6c5.1,0,9.7,3.2,11.4,7.9 c-1.2-6.3-7.2-10.5-13.6-9.3c-4.7,0.9-8.4,4.6-9.3,9.3C60,64.8,64.6,61.6,69.7,61.6z" opacity=".44"/><g><path fill="#fdfcee" d="M63.2,70.1v6.6c0,0.5,0.5,1,1,1h10.9c0.6,0,1-0.4,1.1-1v-6.6H63.2z"/><path fill="#472b29" d="M75.1,77.9C75.1,77.9,75.1,77.9,75.1,77.9H64.2c-0.7,0-1.2-0.6-1.3-1.2v-6.6c0-0.1,0.1-0.3,0.3-0.3 h13c0.1,0,0.3,0.1,0.3,0.3v6.6C76.4,77.3,75.8,77.9,75.1,77.9z M63.5,70.3v6.3c0,0.4,0.4,0.7,0.8,0.8h10.9h0c0.4,0,0.8-0.3,0.8-0.8 v-6.3H63.5z"/></g><g><path fill="#836f61" d="M76.2,69.9l0.2-1.3c0.1-0.6-0.3-1.1-0.9-1.2l-10.7-1.8c-0.6-0.1-1.1,0.3-1.2,0.9l-0.2,1.3L76.2,69.9 z"/><path fill="#472b29" d="M76.2,70.2C76.2,70.2,76.2,70.2,76.2,70.2L63.4,68c-0.1,0-0.2-0.2-0.2-0.3l0.2-1.3 c0.1-0.7,0.8-1.2,1.5-1.1l10.7,1.8c0.7,0.1,1.2,0.8,1.1,1.5L76.4,70C76.4,70.1,76.3,70.2,76.2,70.2z M63.7,67.6L76,69.6l0.2-1 c0.1-0.4-0.2-0.8-0.7-0.9l-10.6-1.8c-0.4-0.1-0.9,0.2-0.9,0.7L63.7,67.6z"/></g><path fill="#472b29" d="M63.5 67.9c0 0-.1 0-.1-.1 0-.1 0-.1 0-.2l2.7-1.9c.1 0 .1 0 .2 0 0 .1 0 .1 0 .2L63.5 67.9C63.5 67.9 63.5 67.9 63.5 67.9zM65.5 68.2c0 0-.1 0-.1-.1 0-.1 0-.1 0-.2l2.7-1.9c.1 0 .1 0 .2 0 0 .1 0 .1 0 .2L65.5 68.2C65.6 68.2 65.5 68.2 65.5 68.2zM67.6 68.6c0 0-.1 0-.1-.1 0-.1 0-.1 0-.2l2.7-1.9c.1 0 .1 0 .2 0s0 .1 0 .2L67.6 68.6C67.6 68.6 67.6 68.6 67.6 68.6zM69.6 68.9c0 0-.1 0-.1-.1 0-.1 0-.1 0-.2l2.7-1.9c.1 0 .1 0 .2 0 0 .1 0 .1 0 .2L69.6 68.9C69.7 68.9 69.6 68.9 69.6 68.9zM71.7 69.3c0 0-.1 0-.1-.1 0-.1 0-.1 0-.2l2.7-1.9c.1 0 .1 0 .2 0 0 .1 0 .1 0 .2L71.7 69.3C71.7 69.3 71.7 69.3 71.7 69.3zM73.7 69.6c0 0-.1 0-.1-.1 0-.1 0-.1 0-.2l2.4-1.7c.1 0 .1 0 .2 0 0 .1 0 .1 0 .2L73.7 69.6C73.8 69.6 73.7 69.6 73.7 69.6z"/><path fill="#836f61" d="M63.4 70.2H76V72.4H63.4z"/><path fill="#472b29" d="M63.5 72.5C63.4 72.5 63.4 72.5 63.5 72.5c-.1-.1-.1-.2-.1-.2l2.3-2.3c0 0 .1 0 .2 0 0 0 0 .1 0 .2L63.5 72.5C63.5 72.5 63.5 72.5 63.5 72.5zM65.5 72.5C65.5 72.5 65.5 72.5 65.5 72.5c-.1-.1-.1-.2-.1-.2l2.3-2.3c0 0 .1 0 .2 0 0 0 0 .1 0 .2L65.5 72.5C65.6 72.5 65.6 72.5 65.5 72.5zM67.6 72.5C67.6 72.5 67.5 72.5 67.6 72.5c-.1-.1-.1-.2-.1-.2l2.3-2.3c0 0 .1 0 .2 0s0 .1 0 .2L67.6 72.5C67.7 72.5 67.6 72.5 67.6 72.5zM69.7 72.5C69.6 72.5 69.6 72.5 69.7 72.5c-.1-.1-.1-.2-.1-.2l2.3-2.3c0 0 .1 0 .2 0 0 0 0 .1 0 .2L69.7 72.5C69.7 72.5 69.7 72.5 69.7 72.5zM71.7 72.5C71.7 72.5 71.7 72.5 71.7 72.5c-.1-.1-.1-.2-.1-.2L74 70c0 0 .1 0 .2 0 0 0 0 .1 0 .2L71.7 72.5C71.8 72.5 71.8 72.5 71.7 72.5zM73.8 72.5C73.8 72.5 73.7 72.5 73.8 72.5c-.1-.1-.1-.2-.1-.2l2.1-2.1c0 0 .1 0 .2 0s0 .1 0 .2L73.8 72.5C73.9 72.5 73.8 72.5 73.8 72.5z"/><path fill="#472b29" d="M76.1,72.7H63.2c-0.1,0-0.3-0.1-0.3-0.3v-2.4c0-0.1,0.1-0.3,0.3-0.3h13c0.1,0,0.3,0.1,0.3,0.3 s-0.1,0.3-0.3,0.3H63.5v1.9h12.6c0.1,0,0.3,0.1,0.3,0.3S76.2,72.7,76.1,72.7z"/><g><path fill="#cdcbbd" d="M74.8 74.1L74.8 76.2 72.4 76.2 72.4 73.7 74.6 73.7"/><path fill="#472b29" d="M74.8,76.3h-2.5c-0.1,0-0.1-0.1-0.1-0.1v-2.5c0-0.1,0.1-0.1,0.1-0.1h2.3c0.1,0,0.1,0.1,0.1,0.1 s-0.1,0.1-0.1,0.1h-2.1V76h2.2v-1.9c0-0.1,0.1-0.1,0.1-0.1S75,74,75,74.1v2.1C75,76.2,74.9,76.3,74.8,76.3z"/></g><g><path fill="#cdcbbd" d="M69.1 75.3L69.1 73.7 71.5 73.7 71.5 76.2 69.5 76.2"/><path fill="#472b29" d="M71.5,76.3h-2.1c-0.1,0-0.1-0.1-0.1-0.1s0.1-0.1,0.1-0.1h1.9v-2.2h-2.2v1.5c0,0.1-0.1,0.1-0.1,0.1 s-0.1-0.1-0.1-0.1v-1.6c0-0.1,0.1-0.1,0.1-0.1h2.5c0.1,0,0.1,0.1,0.1,0.1v2.5C71.7,76.2,71.6,76.3,71.5,76.3z"/></g><path fill="#472b29" d="M69.1 76.1C69 76.1 69 76.1 69.1 76.1 69 76 68.9 76 68.9 76s0-.1 0-.1c0 0 .1 0 .2 0 0 0 0 .1 0 .1S69.2 76 69.1 76.1C69.1 76.1 69.1 76.1 69.1 76.1zM64.3 73.8h-.2c-.1 0-.1-.1-.1-.1s.1-.1.1-.1h.2c.1 0 .1.1.1.1S64.4 73.8 64.3 73.8zM64.8 73.8C64.7 73.8 64.7 73.8 64.8 73.8c-.1-.1-.1-.1-.1-.1 0 0 0-.1 0-.1 0 0 .1 0 .2 0 0 0 0 .1 0 .1C64.9 73.7 64.9 73.8 64.8 73.8 64.8 73.8 64.8 73.8 64.8 73.8zM68 73.8h-2.9c-.1 0-.1-.1-.1-.1s.1-.1.1-.1H68c.1 0 .1.1.1.1S68.1 73.8 68 73.8zM68 74.6h-3.9c-.1 0-.1-.1-.1-.1s.1-.1.1-.1H68c.1 0 .1.1.1.1S68.1 74.6 68 74.6zM68 75.5h-3.9c-.1 0-.1-.1-.1-.1s.1-.1.1-.1H68c.1 0 .1.1.1.1S68.1 75.5 68 75.5zM68 76.3h-3.9c-.1 0-.1-.1-.1-.1s.1-.1.1-.1H68c.1 0 .1.1.1.1S68.1 76.3 68 76.3z"/></svg>