<svg xmlns="http://www.w3.org/2000/svg" viewBox="0 0 64 64"><linearGradient id="lON1JCb~_UJXN8WAeXb3La" x1="32" x2="32" y1="5.167" y2="59.687" gradientUnits="userSpaceOnUse" spreadMethod="reflect"><stop offset="0" stop-color="#1a6dff"/><stop offset="1" stop-color="#c822ff"/></linearGradient><path fill="url(#lON1JCb~_UJXN8WAeXb3La)" d="M32,58C17.663,58,6,46.337,6,32S17.663,6,32,6s26,11.663,26,26S46.337,58,32,58z M32,8 C18.767,8,8,18.767,8,32s10.767,24,24,24s24-10.767,24-24S45.233,8,32,8z"/><linearGradient id="lON1JCb~_UJXN8WAeXb3Lb" x1="32" x2="32" y1="5.167" y2="59.687" gradientUnits="userSpaceOnUse" spreadMethod="reflect"><stop offset="0" stop-color="#1a6dff"/><stop offset="1" stop-color="#c822ff"/></linearGradient><path fill="url(#lON1JCb~_UJXN8WAeXb3Lb)" d="M32,54c-12.131,0-22-9.869-22-22s9.869-22,22-22s22,9.869,22,22S44.131,54,32,54z M32,12 c-11.028,0-20,8.972-20,20s8.972,20,20,20s20-8.972,20-20S43.028,12,32,12z"/><linearGradient id="lON1JCb~_UJXN8WAeXb3Lc" x1="32" x2="32" y1="20.667" y2="43.672" gradientUnits="userSpaceOnUse" spreadMethod="reflect"><stop offset="0" stop-color="#6dc7ff"/><stop offset="1" stop-color="#e6abff"/></linearGradient><path fill="url(#lON1JCb~_UJXN8WAeXb3Lc)" d="M37.005,43.095l1.99-0.189L38,32.456V32h-0.043l-0.789-8.281 C37.021,22.169,35.736,21,34.179,21h-4.357c-1.558,0-2.843,1.169-2.989,2.719L26.043,32H26v0.456l-0.995,10.449l1.99,0.189 L27.861,34h8.277L37.005,43.095z M28.052,32l0.771-8.092C28.872,23.391,29.301,23,29.821,23h4.357c0.521,0,0.949,0.391,0.999,0.908 L35.948,32H28.052z"/></svg>