<svg xmlns="http://www.w3.org/2000/svg" viewBox="0 0 26 26"><path d="M 2 7 C 0.894531 7 0 7.894531 0 9 L 0 17 C 0 18.105469 0.894531 19 2 19 L 24 19 C 25.105469 19 26 18.105469 26 17 L 26 9 C 26 7.894531 25.105469 7 24 7 Z M 7.875 10.5 L 9.1875 10.5 L 10.90625 15.40625 L 9.71875 15.40625 L 9.375 14.3125 L 7.625 14.3125 L 7.28125 15.40625 L 6.09375 15.40625 Z M 11.875 10.5 L 13.625 10.5 C 15.367188 10.5 16.21875 11.3125 16.21875 12.90625 C 16.21875 13.667969 15.839844 15.40625 13.625 15.40625 L 11.875 15.40625 Z M 18.34375 10.5 L 19.4375 10.5 L 19.4375 13.46875 C 19.4375 14.125 19.273438 15.5 17.65625 15.5 C 17.398438 15.5 17.15625 15.433594 16.9375 15.34375 L 16.9375 14.3125 C 17.125 14.457031 17.359375 14.53125 17.59375 14.53125 C 18.097656 14.53125 18.34375 14.152344 18.34375 13.40625 Z M 8.46875 11.375 L 7.875 13.46875 L 9.125 13.46875 L 8.5 11.375 Z M 13 11.40625 L 13 14.5 L 13.53125 14.5 C 14.835938 14.5 15.0625 13.402344 15.0625 12.90625 C 15.0625 12.4375 14.914063 11.40625 13.53125 11.40625 Z"/></svg>