<svg xmlns="http://www.w3.org/2000/svg" viewBox="0 0 100 100"><path d="M 50 14 C 30.129562 14 14 30.129562 14 50 C 14 52.107576 14.191084 54.16667 14.537109 56.169922 A 1.0001 1.0001 0 0 0 16.464844 56.333984 L 18.943359 49.333984 A 1.0007355 1.0007355 0 1 0 17.056641 48.666016 L 16.115234 51.326172 C 16.09695 50.878701 16 50.451845 16 50 C 16 31.210438 31.210438 16 50 16 C 63.183536 16 74.591633 23.499852 80.236328 34.457031 A 1.0001759 1.0001759 0 1 0 82.015625 33.542969 C 76.038321 21.940148 63.942464 14 50 14 z M 50 19 C 34.793856 19 22.145328 29.958339 19.511719 44.410156 A 0.50032038 0.50032038 0 1 0 20.496094 44.589844 C 23.044484 30.605661 35.274144 20 50 20 C 57.270445 20 63.93112 22.584064 69.123047 26.884766 A 0.50005 0.50005 0 1 0 69.761719 26.115234 C 64.397646 21.671936 57.507555 19 50 19 z M 46.25 26 C 43.150125 26 40.611582 28.281324 40.125 31.248047 C 38.92443 31.639742 38 32.672942 38 34 C 38 34.399844 38.103445 34.834205 38.328125 35.261719 C 37.396408 35.89396 36.88104 37.012077 37.035156 38.189453 L 37.941406 43.779297 C 37.775406 43.954297 37.601547 44.157844 37.560547 44.214844 C 37.214547 44.668844 37.026953 45.201609 37.001953 45.849609 C 37.006953 46.351609 37.693906 49.834156 37.878906 50.410156 C 38.094906 51.105156 38.492953 51.701844 39.001953 52.089844 L 39.001953 53.498047 C 39.001953 55.110047 39.814969 56.545703 40.167969 57.095703 C 41.553969 59.211703 43.539891 60.593859 44.962891 61.380859 C 44.774891 62.279859 43.94625 62.699391 43.78125 62.775391 L 37.998047 64.679688 C 36.045047 65.443687 34.485891 66.923672 33.587891 68.888672 L 33.083984 70.136719 C 32.916984 70.551719 33.043484 71.026781 33.396484 71.300781 C 38.186484 75.028781 43.9065 77 49.9375 77 C 56.0275 77 61.792375 74.993219 66.609375 71.199219 C 66.967375 70.917219 67.088297 70.428719 66.904297 70.011719 L 66.394531 68.851562 C 65.510531 66.922562 63.913656 65.426094 61.847656 64.621094 L 56.472656 62.861328 C 56.431656 62.841328 56.390703 62.824547 56.345703 62.810547 C 55.996703 62.699547 55.219016 62.204859 55.041016 61.380859 C 56.462016 60.595859 58.449703 59.213031 59.845703 57.082031 C 60.192703 56.541031 61 55.11 61 53.5 L 61 52.089844 C 61.508 51.703844 61.905188 51.111687 62.117188 50.429688 C 62.289187 49.894688 62.979047 46.474484 62.998047 45.771484 C 62.975047 45.225484 62.799594 44.705219 62.433594 44.199219 C 62.405594 44.167219 62.372844 44.125078 62.339844 44.080078 L 62.470703 43.949219 C 62.798804 43.978441 63.137333 44 63.5 44 C 63.5 44 64.603399 44.0069 65.722656 43.447266 C 66.841913 42.887637 68 41.666667 68 39.5 A 0.50005 0.50005 0 0 0 67.146484 39.146484 C 67.146484 39.146484 66.967715 39.332549 66.527344 39.552734 C 66.257055 39.687879 65.730255 39.741901 65.283203 39.828125 C 65.701035 39.22416 66 38.538244 66 37.75 C 66 35.942117 64.684509 34.496944 62.978516 34.148438 C 62.920996 31.856694 61.055198 30 58.75 30 C 58.73895 30 58.737223 30.001753 58.726562 30.001953 C 58.064912 27.706239 56.003374 26 53.5 26 C 52.157856 26 50.965297 26.535889 50.011719 27.335938 C 48.960143 26.529215 47.677398 26 46.25 26 z M 46.25 27 C 47.571125 27 48.769713 27.490161 49.693359 28.294922 A 0.50005 0.50005 0 0 0 50.371094 28.275391 C 51.182806 27.487126 52.279678 27 53.5 27 C 55.692964 27 57.507232 28.562388 57.912109 30.630859 A 0.50005 0.50005 0 0 0 58.451172 31.033203 C 58.605105 31.018606 58.698227 31 58.75 31 C 60.55076 31 62 32.44924 62 34.25 C 62 34.27132 61.985269 34.34431 61.974609 34.484375 A 0.50005 0.50005 0 0 0 62.4375 35.021484 C 63.871908 35.120848 65 36.290453 65 37.75 C 65 38.717778 64.502673 39.55917 63.75 40.050781 A 0.50005 0.50005 0 0 0 63.972656 40.966797 C 64.119009 40.98153 64.289534 41 64.5 41 C 65.481431 41 66.187204 40.750194 66.740234 40.5 C 66.465467 41.529075 65.943124 42.219844 65.277344 42.552734 C 64.396601 42.993106 63.5 43 63.5 43 C 61.42746 43 60.026474 42.468977 59.087891 41.880859 A 0.50005 0.50005 0 0 0 58.65625 41.832031 C 58.359936 41.936664 58.060099 42 57.75 42 C 56.54937 42 55.545939 41.230507 55.167969 40.160156 A 0.50005 0.50005 0 0 0 54.423828 39.908203 C 53.365049 40.596969 52.107709 41 50.75 41 C 48.091915 41 45.805593 39.46352 44.703125 37.234375 A 0.50005 0.50005 0 0 0 44.289062 36.957031 C 42.116763 36.81247 40.774361 36.281949 40 35.693359 C 39.225639 35.10477 39 34.466783 39 34 C 39 33.014076 39.705331 32.207544 40.636719 32.037109 A 0.50005 0.50005 0 0 0 41.042969 31.607422 C 41.360817 29.010751 43.563028 27 46.25 27 z M 72.466797 28.921875 A 0.50005 0.50005 0 0 0 72.130859 29.763672 C 73.266859 31.005803 74.291254 32.348608 75.208984 33.771484 A 0.50085837 0.50085837 0 1 0 76.050781 33.228516 C 75.104512 31.761392 74.045141 30.373759 72.869141 29.087891 A 0.50005 0.50005 0 0 0 72.466797 28.921875 z M 76.804688 34.994141 A 0.50005 0.50005 0 0 0 76.373047 35.738281 C 76.557925 36.080306 76.744266 36.400783 76.902344 36.720703 A 0.50005 0.50005 0 1 0 77.798828 36.279297 C 77.620906 35.919217 77.427075 35.585694 77.251953 35.261719 A 0.50005 0.50005 0 0 0 76.804688 34.994141 z M 39.830078 36.755859 C 40.773273 37.328534 42.111757 37.753393 43.964844 37.910156 C 45.275111 40.33217 47.806993 42 50.75 42 C 52.144494 42 53.426676 41.582853 54.556641 40.9375 C 55.186481 42.117582 56.321503 43 57.75 43 C 58.113641 43 58.440731 42.91111 58.759766 42.816406 C 59.165671 43.055476 59.654864 43.270067 60.191406 43.458984 C 59.984553 43.796173 59.980592 44.22757 60.220703 44.560547 L 60.71875 45.251953 C 60.78775 45.347953 60.856328 45.433594 60.861328 45.433594 C 60.946328 45.553594 60.994953 45.696344 61.001953 45.777344 C 60.977953 46.208344 60.365937 49.344125 60.210938 49.828125 C 60.119937 50.120125 59.965063 50.364047 59.789062 50.498047 L 59.394531 50.798828 C 59.145531 50.987828 59 51.28075 59 51.59375 L 59 53.5 C 59 54.611 58.358969 55.695141 58.167969 55.994141 C 58.029102 56.206071 57.880848 56.408494 57.728516 56.603516 C 57.646001 56.708679 57.557554 56.808454 57.470703 56.910156 C 57.399705 56.993576 57.330645 57.080054 57.257812 57.160156 C 56.94504 57.503189 56.608517 57.825093 56.257812 58.125 C 56.240438 58.139804 56.222466 58.155278 56.205078 58.169922 C 55.974559 58.36478 55.730894 58.535167 55.490234 58.710938 C 55.124031 58.975981 54.776092 59.207765 54.443359 59.404297 C 54.30515 59.486805 54.167523 59.576116 54.029297 59.652344 L 53.791016 59.785156 C 52.239228 60.600618 50.714097 61.009766 49.970703 61.009766 C 49.269738 61.009766 47.784292 60.607735 46.259766 59.8125 L 45.927734 59.628906 C 45.452069 59.366416 44.8997 59.003131 44.339844 58.583984 C 44.161024 58.448704 43.977627 58.323729 43.804688 58.177734 C 43.780644 58.157545 43.756434 58.135726 43.732422 58.115234 C 43.386453 57.818481 43.053272 57.500961 42.744141 57.162109 C 42.674 57.084998 42.607443 57.002027 42.539062 56.921875 C 42.449332 56.817138 42.35857 56.713889 42.273438 56.605469 C 42.123641 56.413472 41.97811 56.215994 41.841797 56.007812 C 41.644797 55.701813 41 54.612 41 53.5 L 41 51.59375 C 41 51.28075 40.853516 50.985875 40.603516 50.796875 L 40.210938 50.498047 C 40.033938 50.363047 39.878203 50.114594 39.783203 49.808594 C 39.640203 49.362594 39.031047 46.255813 38.998047 45.882812 C 39.006047 45.697812 39.054297 45.552875 39.154297 45.421875 C 39.197297 45.366875 39.298531 45.254344 39.394531 45.152344 L 39.734375 44.792969 C 39.947375 44.566969 40.044141 44.254266 39.994141 43.947266 L 39.013672 37.900391 C 38.956672 37.462391 39.1755 37.039703 39.5625 36.845703 L 39.830078 36.755859 z M 84.476562 43 A 1.0001 1.0001 0 0 0 83.535156 43.666016 L 81.056641 50.666016 A 1.0007355 1.0007355 0 1 0 82.943359 51.333984 L 83.884766 48.673828 C 83.90305 49.121299 84 49.548155 84 50 C 84 68.789562 68.789562 84 50 84 C 36.816464 84 25.408367 76.500148 19.763672 65.542969 A 1.0001759 1.0001759 0 1 0 17.984375 66.457031 C 23.961679 78.059852 36.057536 86 50 86 C 69.870438 86 86 69.870438 86 50 C 86 47.892424 85.808916 45.83333 85.462891 43.830078 A 1.0001 1.0001 0 0 0 84.476562 43 z M 79.980469 54.994141 A 0.50005 0.50005 0 0 0 79.503906 55.410156 C 76.955516 69.394339 64.725856 80 50 80 C 42.729555 80 36.06888 77.415936 30.876953 73.115234 A 0.50005 0.50005 0 1 0 30.238281 73.884766 C 35.602354 78.328064 42.492445 81 50 81 C 65.206144 81 77.854672 70.041661 80.488281 55.589844 A 0.50005 0.50005 0 0 0 79.980469 54.994141 z M 52.972656 61.271484 L 53.085938 61.800781 C 53.398938 63.256781 54.574797 64.283062 55.591797 64.664062 C 55.634797 64.686063 55.680516 64.704703 55.728516 64.720703 L 61.173828 66.503906 C 62.701828 67.099906 63.910312 68.230875 64.570312 69.671875 L 64.757812 70.097656 C 60.424812 73.307656 55.3175 75 49.9375 75 C 44.6055 75 39.535609 73.333781 35.224609 70.175781 L 35.423828 69.681641 C 35.503285 69.507867 35.589949 69.339546 35.683594 69.175781 C 36.666979 69.70762 39.496065 71 44 71 C 51.074095 71 54.703125 69.400391 54.703125 69.400391 A 0.50013754 0.50013754 0 1 0 54.296875 68.486328 C 54.296875 68.486328 50.925905 70 44 70 C 39.832453 70 37.234156 68.871561 36.253906 68.353516 C 36.902442 67.553512 37.733405 66.930838 38.675781 66.560547 L 44.490234 64.642578 C 44.963234 64.438578 46.534922 63.630156 46.919922 61.785156 L 47.023438 61.277344 C 48.170906 61.753966 49.208862 62.009766 49.970703 62.009766 C 50.752347 62.009766 51.809856 61.751456 52.972656 61.271484 z M 22.660156 62.992188 A 0.50005 0.50005 0 0 0 22.609375 62.994141 A 0.50005 0.50005 0 0 0 22.201172 63.720703 C 22.379094 64.080783 22.572925 64.414306 22.748047 64.738281 A 0.50005 0.50005 0 1 0 23.626953 64.261719 C 23.442075 63.919694 23.255734 63.599217 23.097656 63.279297 A 0.50005 0.50005 0 0 0 22.660156 62.992188 z M 24.373047 65.994141 A 0.50005 0.50005 0 0 0 23.949219 66.771484 C 24.895488 68.238608 25.954859 69.626241 27.130859 70.912109 A 0.50043488 0.50043488 0 1 0 27.869141 70.236328 C 26.733141 68.994197 25.708746 67.651392 24.791016 66.228516 A 0.50005 0.50005 0 0 0 24.373047 65.994141 z M 58.505859 66.419922 A 0.50005 0.50005 0 0 0 58.236328 66.498047 C 57.629131 66.875946 56.987828 67.245342 56.277344 67.597656 A 0.50049679 0.50049679 0 1 0 56.722656 68.494141 C 57.468172 68.124455 58.136869 67.737757 58.763672 67.347656 A 0.50005 0.50005 0 0 0 58.505859 66.419922 z"/></svg>