<svg xmlns="http://www.w3.org/2000/svg" viewBox="0 0 16 16"><path fill="#dcd5f2" d="M13.714,9.861l0.085-0.307c0.137-0.525,0.495-0.977,0.475-1.484 c-0.046-1.175-0.294-1.861-0.294-1.861l1.169-1.357L14.217,3.63l-1.741,0.35L12.25,3.754c-0.738-0.743-1.673-1.276-2.697-1.553 L9.246,2.119l-0.58-1.313H7.334l-0.58,1.313L6.442,2.201C5.422,2.474,4.488,3.011,3.75,3.754L3.523,3.98L1.758,3.681L1.092,4.833 l1.194,1.306L2.201,6.447C2.064,6.971,1.991,7.492,1.991,8c0,0.508,0.073,1.028,0.209,1.553l0.085,0.307l-1.305,1.341l0.666,1.152 l1.877-0.334l0.226,0.226c0.743,0.742,1.683,1.27,2.707,1.543l0.307,0.081l0.35,1.608h1.331l0.801-1.598l0.312-0.081 c1.02-0.273,1.955-0.811,2.693-1.553l0.226-0.226l2.287,0.653l0.666-1.152L13.714,9.861z M8,11c-1.657,0-3-1.343-3-3s1.343-3,3-3 s3,1.343,3,3S9.657,11,8,11z"/><path fill="#788b9c" d="M10.995,10.895l-3.73,3.556c-0.354,0.354-0.354,0.929,0,1.284l0,0c0.354,0.354,0.929,0.354,1.284,0 l3.593-3.766L10.995,10.895z"/><path fill="#d1edff" d="M12.5 7.5A3 3 0 1 0 12.5 13.5A3 3 0 1 0 12.5 7.5Z"/><path fill="#788b9c" d="M12.5,8c1.379,0,2.5,1.122,2.5,2.5S13.879,13,12.5,13S10,11.878,10,10.5S11.121,8,12.5,8 M12.5,7 C10.567,7,9,8.567,9,10.5s1.567,3.5,3.5,3.5s3.5-1.567,3.5-3.5S14.433,7,12.5,7L12.5,7z"/><path fill="#8b75a1" d="M8,5C6.348,5,5,6.348,5,8s1.348,3,3,3c0.016,0,0.031-0.004,0.046-0.005C8.027,10.83,8,10.666,8,10.5 c0-0.173,0.032-0.337,0.051-0.505C8.034,9.995,8.018,10,8,10c-1.105,0-2-0.895-2-2s0.895-2,2-2c0.735,0,1.37,0.4,1.718,0.991 c0.26-0.207,0.539-0.387,0.841-0.533C10.033,5.589,9.087,5,8,5z"/><path fill="#8b75a1" d="M7.273,12.977l-0.566-0.152c-0.852-0.227-1.629-0.676-2.242-1.289l-0.418-0.418L3.48,11.281 l-1.434,0.41l-0.219-0.383l1.078-1.039l0.422-0.41L3.176,9.293C3.059,8.855,3,8.422,3,8s0.059-0.855,0.176-1.293l0.152-0.566 L2.906,5.73L1.828,4.691l0.219-0.383l1.434,0.41l0.566,0.164l0.418-0.418c0.613-0.613,1.391-1.063,2.242-1.289l0.566-0.152 l0.145-0.57L7.781,1h0.438l0.363,1.453l0.145,0.57l0.566,0.152c0.852,0.227,1.629,0.676,2.242,1.289l0.418,0.418l0.566-0.164 l1.434-0.41l0.219,0.383L13.094,5.73l-0.307,0.299c0.415,0.027,0.812,0.108,1.189,0.24l1.454-1.402l-1-1.734l-2.188,0.625 c-0.73-0.734-1.656-1.27-2.688-1.547L9,0H7L6.445,2.211C5.414,2.488,4.488,3.023,3.758,3.758L1.57,3.133l-1,1.734l1.641,1.582 C2.078,6.945,2,7.465,2,8s0.078,1.055,0.211,1.551L0.57,11.133l1,1.734l2.188-0.625c0.73,0.734,1.656,1.27,2.688,1.547 L7.273,12.977z"/></svg>