<svg xmlns="http://www.w3.org/2000/svg" viewBox="0 0 100 100"><path fill="#fff" d="M80.8 31.8A0.7 0.7 0 1 0 80.8 33.2A0.7 0.7 0 1 0 80.8 31.8Z"/><path fill="#f1bc19" d="M78.1 12.5A0.9 0.9 0 1 0 78.1 14.3A0.9 0.9 0 1 0 78.1 12.5Z"/><path fill="#fce0a2" d="M50.9 13.200000000000003A37.5 37.5 0 1 0 50.9 88.2A37.5 37.5 0 1 0 50.9 13.200000000000003Z"/><path fill="#f1bc19" d="M83.6 11.6A4 4 0 1 0 83.6 19.6A4 4 0 1 0 83.6 11.6Z"/><path fill="#ee3e54" d="M13.4 27.3A1.9 1.9 0 1 0 13.4 31.099999999999998A1.9 1.9 0 1 0 13.4 27.3Z"/><path fill="#fbcd59" d="M78.6 75.3A1.9 1.9 0 1 0 78.6 79.10000000000001 1.9 1.9 0 1 0 78.6 75.3zM26.1 72.1A4 4 0 1 0 26.1 80.1 4 4 0 1 0 26.1 72.1z"/><path fill="#ee3e54" d="M27.2 84.69999999999999A1.9 1.9 0 1 0 27.2 88.5A1.9 1.9 0 1 0 27.2 84.69999999999999Z"/><path fill="#cbc9bc" d="M76.4,26.4V31c0,0.4-0.3,0.8-0.8,0.8h-1.1c-0.4,0-0.8-0.3-0.8-0.8v-4.6c0-0.4,0.3-0.8,0.8-0.8h1.1 C76.1,25.7,76.4,26,76.4,26.4z"/><path fill="#472b29" d="M75.6,32.2h-1.1c-0.6,0-1.1-0.5-1.1-1.1v-4.6c0-0.6,0.5-1.1,1.1-1.1h1.1c0.6,0,1.1,0.5,1.1,1.1V31 C76.8,31.7,76.3,32.2,75.6,32.2z M74.5,26.1c-0.2,0-0.4,0.2-0.4,0.4V31c0,0.2,0.2,0.4,0.4,0.4h1.1c0.2,0,0.4-0.2,0.4-0.4v-4.6 c0-0.2-0.2-0.4-0.4-0.4H74.5z"/><path fill="#e1e0d8" d="M33.1,19.1h36.1c2.8,0,5,2.2,5,5v52.1c0,2.8-2.2,5-5,5H33.1c-2.8,0-5-2.2-5-5V24.1 C28.1,21.4,30.3,19.1,33.1,19.1z"/><path fill="#472b29" d="M69.2,81.7H33.1c-3,0-5.5-2.5-5.5-5.5V24.1c0-3,2.5-5.5,5.5-5.5h36.1c3,0,5.5,2.5,5.5,5.5v52.1 C74.7,79.2,72.2,81.7,69.2,81.7z M33.1,19.6c-2.5,0-4.5,2-4.5,4.5v52.1c0,2.5,2,4.5,4.5,4.5h36.1c2.5,0,4.5-2,4.5-4.5V24.1 c0-2.5-2-4.5-4.5-4.5H33.1z"/><path fill="#c5def0" d="M70.7 34.8L70.7 70.7 32.5 70.7 32.5 62.8 32.5 54.1 32.5 27 67.2 27 70.7 27z"/><path fill="#472b29" d="M32 54c-.2 0-.4-.2-.4-.4V26.5c0-.2.2-.4.4-.4h34.7c.2 0 .4.2.4.4s-.2.4-.4.4H32.4v26.7C32.4 53.9 32.2 54 32 54zM70.3 70.6H32c-.2 0-.4-.2-.4-.4v-7.9c0-.2.2-.4.4-.4s.4.2.4.4v7.5h37.5V34.4c0-.2.2-.4.4-.4s.4.2.4.4v35.8C70.6 70.5 70.5 70.6 70.3 70.6z"/><path fill="#cbc9bc" d="M51.2 72.89999999999999A2.2 2.2 0 1 0 51.2 77.3A2.2 2.2 0 1 0 51.2 72.89999999999999Z"/><path fill="#472b29" d="M51.2 77.6c-1.4 0-2.6-1.2-2.6-2.6 0-1.4 1.2-2.6 2.6-2.6 1.4 0 2.6 1.2 2.6 2.6C53.7 76.5 52.6 77.6 51.2 77.6zM51.2 73.3c-1 0-1.8.8-1.8 1.8s.8 1.8 1.8 1.8 1.8-.8 1.8-1.8S52.2 73.3 51.2 73.3zM47.6 22.6h7.1c.2 0 .4.2.4.4v.1c0 .2-.2.4-.4.4h-7.1c-.2 0-.4-.2-.4-.4V23C47.2 22.8 47.4 22.6 47.6 22.6zM70.3 29.5c-.2 0-.4-.2-.4-.4v-2.6c0-.2.2-.4.4-.4s.4.2.4.4v2.6C70.6 29.4 70.5 29.5 70.3 29.5zM70.3 31.3c-.1 0-.2 0-.3-.1-.1-.1-.1-.2-.1-.3 0-.1 0-.1 0-.1 0 0 0-.1.1-.1.1-.1.4-.1.5 0 0 0 .1.1.1.1 0 0 0 .1 0 .1 0 .1 0 .2-.1.3C70.5 31.3 70.4 31.3 70.3 31.3zM32 61c-.2 0-.4-.2-.4-.4v-1.8c0-.2.2-.4.4-.4s.4.2.4.4v1.8C32.4 60.9 32.2 61 32 61z"/><path fill="#fdfcef" d="M43.6,45c0-5-5.4-9-12-9s-12.1,4-12.1,9s5.4,9,12.1,9H33c1.7,1.6,3.9,2.7,6.2,3 c0.4,0,0.7-0.2,0.7-0.6c0-0.1,0-0.2,0-0.4c-0.6-1.3-0.9-2.6-0.9-4l0,0C41.9,50.3,43.6,47.8,43.6,45"/><path fill="#472b29" d="M39.3,57.5c-0.1,0-0.1,0-0.2,0c-2.4-0.3-4.6-1.4-6.4-3h-1.3C24.6,54.5,19,50.2,19,45 s5.6-9.5,12.6-9.5c6.9,0,12.5,4.3,12.5,9.5l0,0c0,2.9-1.6,5.5-4.5,7.3c0,1.2,0.3,2.4,0.8,3.5c0.1,0.2,0.1,0.4,0.1,0.6 c0,0.3-0.2,0.6-0.4,0.8C39.8,57.4,39.6,57.5,39.3,57.5z M31.5,36.5C25.2,36.5,20,40.3,20,45s5.2,8.5,11.6,8.5H33 c0.1,0,0.2,0,0.3,0.1c1.7,1.6,3.7,2.5,6,2.9c0.1,0,0.2-0.1,0.2-0.1c-0.6-1.4-0.9-2.8-0.9-4.3c0-0.2,0.1-0.3,0.2-0.4 c2.7-1.6,4.3-4.1,4.3-6.6c0,0,0,0,0,0C43.1,40.3,37.9,36.5,31.5,36.5z M44.1,45L44.1,45L44.1,45z"/><path fill="#ee3e54" d="M25.5,44.7c0.8,0,1.7,0,2.5-0.1c0.6,0,1.3-0.1,1.9-0.2c0.5-0.1,1-0.2,1.5-0.3h0.3 c0.5,0,1,0.1,1.5,0.3c0.6,0.1,1.3,0.2,1.9,0.2c0.8,0,1.7,0,2.5,0.1h0.2c-0.3-0.3-0.6-0.7-0.9-1c-0.6-0.7-1.4-1.2-2.2-1.7 c-0.8-0.6-1.9-0.6-2.8,0l-0.3,0.3l-0.3-0.3c-0.8-0.6-1.9-0.6-2.8,0c-0.8,0.5-1.5,1.1-2.2,1.7l-0.9,1H25.5z"/><path fill="#472b29" d="M37.7,45l-0.9,0c-0.6,0-1.2,0-1.8-0.1c-0.6,0-1.3-0.1-1.9-0.2c-0.5-0.1-1-0.2-1.4-0.2h-0.3 c-0.5,0-0.9,0.1-1.4,0.2c-0.7,0.1-1.3,0.2-1.9,0.3C27.2,45,26.4,45,25.5,45h-0.2c-0.1,0-0.2-0.1-0.2-0.2c0-0.1,0-0.2,0.1-0.3 l0.9-1c0.7-0.7,1.4-1.3,2.2-1.8c0.9-0.6,2.1-0.6,3.1,0l0.2,0.1l0.2-0.1c0.9-0.6,2.2-0.6,3.1,0c0.8,0.5,1.5,1.1,2.2,1.7 c0.2,0.2,0.4,0.4,0.7,0.7l0.3,0.3c0.1,0.1,0.1,0.2,0.1,0.3C37.9,44.9,37.8,45,37.7,45z M29.8,41.9c-0.4,0-0.9,0.1-1.3,0.4 c-0.8,0.5-1.5,1.1-2.1,1.7l-0.5,0.5c0.7,0,1.4,0,2.1-0.1c0.6,0,1.3-0.1,1.9-0.2c0.5-0.1,1-0.2,1.5-0.3h0.3c0.5,0,1,0.1,1.5,0.3 c0.6,0.1,1.2,0.2,1.8,0.2c0.6,0,1.2,0,1.8,0.1l0.3,0c-0.2-0.2-0.3-0.3-0.5-0.5c-0.6-0.6-1.3-1.2-2.1-1.7c-0.8-0.5-1.8-0.5-2.5,0 l-0.3,0.2c-0.1,0.1-0.2,0.1-0.3,0l-0.3-0.3C30.7,42,30.3,41.9,29.8,41.9z"/><path fill="#ee3e54" d="M37.2,44.7c-1,0-2,0.1-2.9,0.4c-0.5,0.2-0.9,0.4-1.3,0.6c-0.9,0.4-1.9,0.4-2.8,0 c-0.5-0.2-0.9-0.4-1.4-0.6c-1-0.3-1.9-0.4-2.9-0.4h-0.5l0.4,0.7c0.6,1.1,1.4,2.1,2.5,2.7c1,0.5,2.1,0.8,3.3,0.8l0,0 c1.1,0,2.3-0.3,3.3-0.8c1.1-0.6,2-1.6,2.5-2.7c0.1-0.2,0.3-0.5,0.4-0.7H37.2z"/><path fill="#472b29" d="M31.4,49.2c-1.1,0-2.3-0.3-3.3-0.8c-1.2-0.7-2.1-1.6-2.6-2.8l-0.4-0.7c0-0.1,0-0.2,0-0.2 c0-0.1,0.1-0.1,0.2-0.1h0.5c1,0,2,0.1,3,0.4c0.3,0.1,0.5,0.2,0.8,0.3c0.2,0.1,0.4,0.2,0.6,0.3c0.8,0.4,1.8,0.4,2.6,0 c0.2-0.1,0.4-0.2,0.5-0.3c0.3-0.1,0.5-0.3,0.8-0.4c1-0.3,2-0.5,3-0.4h0.5c0.1,0,0.2,0,0.2,0.1c0,0.1,0,0.2,0,0.2L37.9,45 c-0.1,0.2-0.2,0.4-0.3,0.6c-0.6,1.2-1.5,2.2-2.6,2.8c-1,0.6-2.2,0.8-3.4,0.8C31.5,49.2,31.4,49.2,31.4,49.2z M25.7,45l0.2,0.4 c0.5,1.1,1.4,2,2.4,2.6c1,0.5,2,0.8,3.1,0.8c1.1,0,2.2-0.2,3.2-0.8c1.1-0.6,1.9-1.5,2.4-2.6c0.1-0.1,0.1-0.3,0.2-0.4h-0.1 c0,0-0.1,0-0.2,0c-0.9,0-1.8,0.1-2.7,0.4c-0.3,0.1-0.5,0.2-0.8,0.3c-0.2,0.1-0.4,0.2-0.6,0.3c-0.9,0.4-2,0.4-3,0 c-0.2-0.1-0.4-0.2-0.6-0.3c-0.2-0.1-0.5-0.2-0.7-0.3c-0.9-0.3-1.9-0.4-2.8-0.4H25.7z"/><path fill="#fff" d="M23.5 68.5A0.9 0.9 0 1 0 23.5 70.30000000000001A0.9 0.9 0 1 0 23.5 68.5Z"/><path fill="#f1bc19" d="M85.3 30.200000000000003A0.9 0.9 0 1 0 85.3 32A0.9 0.9 0 1 0 85.3 30.200000000000003Z"/><path fill="#fff" d="M78.1 66.5A1.8 1.8 0 1 0 78.1 70.1A1.8 1.8 0 1 0 78.1 66.5Z"/><path fill="#895f3f" d="M61.9,57.7c-0.1-1.2-0.9-2.1-2-2.4l-0.2-0.1L59.3,55c-0.8-0.3-5.2-2-5.2-2 c-0.3-0.1-0.6-0.3-0.7-0.7c-0.1-0.6-0.2-1.2-0.1-1.8c-1,0.3-2,0.6-3,0.9c-1.1,0.1-3.6-1.4-3.6-1.4s-0.1,1.8-0.1,2.2 c-0.1,0.4-0.4,0.6-0.8,0.7l-4.3,1.5c-0.5,0.1-0.9,0.3-1.3,0.5c-0.9,0.6-1.6,1.5-1.9,2.5c0,0-0.3,2-0.3,2.1c0,0.3,0,0.6-0.1,0.9 c4.7,3.2,8.4,4,14.8,3.8c3.3-0.3,6.5-1.3,9.5-2.7C62.1,59.1,61.9,57.7,61.9,57.7z"/><path fill="#ee3e54" d="M61.8,57.7c-0.1-1.2-0.9-2.1-2-2.4l-0.2-0.1l-0.3-0.1c-0.4-0.2-4.4-1.6-5.7-2 c-1.8,1.2-2.5,1.7-3.7,1.7s-2-0.8-3.7-1.8l-2,0.7l0,0l-0.2,0l-2.7,1c-0.5,0.1-0.9,0.3-1.3,0.5c-0.9,0.6-1.6,1.5-1.9,2.5 c0,0-0.3,2-0.3,2.1c0,0.3,0,3.3-0.1,3.6c4.7,3.2,8.4,4,14.8,3.8c3.3-0.3,6.5-1.3,9.5-2.7C62,61.9,61.8,57.7,61.8,57.7z"/><path fill="#fdfcef" d="M54,59.3c-0.4-0.5-0.8-1.2-1.2-1.7c-0.1-0.1-0.1-0.3,0-0.4c0.3-0.3,0.6-0.5,1-0.6 c0.4-0.2,0.7-0.3,1.1-0.5c-0.3-1-0.7-1.9-1.3-2.7c-0.1-0.1-0.1-0.2,0-0.3c-1.8,1.2-2.5,1.7-3.7,1.7S48,54,46.4,53.1 c-0.2,0.9-1,2.1-0.4,3c0.2,0.3,0.7,0.5,0.9,0.9c0.2,0.6-0.1,1.5-0.1,2.1c0,1.2,0.3,2.3,0.8,3.4c0,0,0,0.1,0,0.1 c0.4,0.8,0.7,1.5,1.1,2.3c0.3,0.7,0.4,1.4,0.6,2.1h0.9c0.4-1.4,1-2.7,1.6-4C52.3,61.7,53.1,60.4,54,59.3z"/><path fill="#cc1f3c" d="M41.9 66.1c-.2 0-.4-.2-.4-.4v-2.4c0-.2.2-.4.4-.4s.4.2.4.4v2.4C42.2 65.9 42.1 66.1 41.9 66.1zM57.7 66.5c-.2 0-.4-.2-.4-.4v-2.8c0-.2.2-.4.4-.4s.4.2.4.4v2.8C58 66.4 57.9 66.5 57.7 66.5zM53.2 52.5c0 0 1.4.6 2.5 3.9l-2.5.9 1.6 1.8-4.7 8.1C51.4 62.4 52.4 57.5 53.2 52.5zM46.4 52.5c0 0-1.4.6-2.5 3.9l2.5.9-1.6 1.8 4.6 8.1C48.1 62.4 47.1 57.5 46.4 52.5z"/><path fill="#a3754f" d="M57.3,41.7h-0.2c-0.6,0-0.8,0.2-0.7-0.2c0-0.6,0-3.2,0-3.3c0-2.7-2.8-4.9-6.3-5h-0.1 c-3.5,0.1-6.3,2.3-6.3,5c0,0.1-0.1,2.7,0,3.3c0,0.4-0.1,0.1-0.7,0.2h-0.2c-0.6,0-1.1,0.4-1.3,1c0.2,1.1,0.5,2.1,0.8,3.1 c0.3,0.5,0.7,0.5,1.1,0.9c0.2,0.2,0.3,0.4,0.3,0.6c0.3,1,0.9,1.8,1.6,2.5c0.3,0.3,2.7,2.8,4.7,2.7s4.4-2.4,4.7-2.7 c0.8-0.7,1.3-1.5,1.6-2.5c0-0.2,0.2-0.5,0.3-0.6c0.4-0.3,0.8-0.4,1.1-0.9c0.4-1,0.6-2.1,0.8-3.1C58.5,42.1,57.9,41.7,57.3,41.7z"/><path fill="#472b29" d="M49.9,52.8c-1.3,0-3-1-4.8-2.8L45.1,50c-0.8-0.7-1.4-1.6-1.7-2.6c0-0.2-0.1-0.4-0.2-0.5 c-0.1-0.1-0.2-0.1-0.4-0.2c-0.3-0.2-0.6-0.3-0.8-0.8c-0.4-1.1-0.7-2.1-0.9-3.2l0-0.1l0-0.1c0.2-0.7,0.8-1.2,1.6-1.3h0.2 c0.1,0,0.3,0,0.3,0c0-0.6,0-2,0-3l0-0.2c0-2.9,2.9-5.2,6.6-5.3l0.2,0c3.7,0.1,6.6,2.5,6.6,5.4v3.2c0.1,0,0.2,0,0.4,0h0.2 c0.8,0,1.5,0.5,1.7,1.3l0,0.1l0,0.1c-0.2,1.1-0.5,2.1-0.8,3.2c-0.3,0.5-0.6,0.6-0.9,0.8c-0.1,0.1-0.2,0.1-0.4,0.2 c-0.1,0.1-0.2,0.2-0.2,0.4c-0.3,1.1-0.9,2-1.7,2.7c-0.6,0.6-2.9,2.7-4.9,2.8C50,52.8,49.9,52.8,49.9,52.8z M41.8,42.7 c0.2,1,0.5,2,0.8,3c0.1,0.2,0.3,0.3,0.5,0.4c0.1,0.1,0.3,0.2,0.4,0.3c0.3,0.2,0.4,0.5,0.5,0.9c0.3,0.8,0.8,1.6,1.5,2.2l0.1,0.1 c1.7,1.7,3.2,2.6,4.4,2.6c1.4-0.1,3.3-1.4,4.5-2.6c0.7-0.6,1.2-1.4,1.5-2.3c0-0.3,0.2-0.6,0.5-0.8c0.2-0.1,0.3-0.2,0.4-0.3 c0.2-0.1,0.4-0.2,0.6-0.5c0.3-0.9,0.6-1.9,0.8-2.9c-0.1-0.4-0.5-0.7-1-0.7h-0.2c-0.2,0-0.3,0-0.4,0c-0.2,0-0.4,0.1-0.5-0.1 C56,41.9,56,41.6,56,41.5l0-3.3c0-2.5-2.6-4.5-6-4.7l-0.1,0c-3.3,0.1-5.9,2.2-5.9,4.6l0,0.2c0,1.7,0,2.7,0,3.1 c0,0.1,0,0.4-0.2,0.5c-0.2,0.1-0.3,0.1-0.5,0.1c-0.1,0-0.2,0-0.4,0l-0.2,0C42.3,42.1,41.9,42.4,41.8,42.7z"/><path fill="#512c2b" d="M50 46c.4 0 .8-.2 1.1-.5 0 0 0-.1 0-.1l0 0c0 0-.1 0-.1 0-.5.5-1.4.5-1.9 0h0l0 0c0 0 0 .1 0 .1C49.3 45.8 49.6 46 50 46zM48.7 40.4l.3-.5c-1.1-.2-2.3-.2-3.4.1l.3.5C46.8 40.2 47.7 40.2 48.7 40.4zM54.2 40.4l.3-.5c-1.1-.3-2.3-.2-3.4.1l.3.5C52.3 40.2 53.2 40.2 54.2 40.4zM47.1 41.1c-.3 0-.5.2-.6.4h.1c.2 0 .4.2.4.4 0 .2-.2.4-.4.4-.1 0-.1 0-.2-.1.1.4.4.6.7.7.5-.2.8-.7.7-1.2C47.7 41.5 47.4 41.2 47.1 41.1L47.1 41.1zM52.8 41.1c-.2 0-.4.1-.6.3 0 0 .1 0 .1 0 .2 0 .4.3.4.5 0 .2-.2.3-.4.4-.1 0-.3-.1-.3-.2.1.4.6.6 1 .5.4-.1.6-.6.5-1C53.5 41.4 53.2 41.1 52.8 41.1L52.8 41.1zM53.2 47.1C53.2 47.1 53.2 47 53.2 47.1 53.2 47 53.2 47 53.2 47.1L53.2 47.1c0-.1-.1-.1-.1-.1C53.1 47 53.1 47 53.2 47.1c-1 .5-2.1.8-3.2.8-1.1.1-2.2-.2-3.1-.8l0 0c0 0 0 0 0 0 0 0 0 .1 0 .1 0 0 0 0 0 0C48.8 48.4 51.3 48.4 53.2 47.1L53.2 47.1zM44 39.6c.3-1.3.7-2.6 1.4-3.7-.2-.3-.6-.4-.9-.3-.9 1.6-1.3 3.3-1.3 5.1.1.8.2 1.6.5 2.4C43.9 41.9 43.8 40.7 44 39.6zM55.9 39.6c-.3-1.3-.7-2.6-1.4-3.7.2-.3.6-.4.9-.3.9 1.6 1.3 3.3 1.3 5.1 0 .8-.2 1.6-.4 2.4C56.1 41.9 56.2 40.7 55.9 39.6zM50.8 50.3C50.8 50.3 50.9 50.3 50.8 50.3c.1-.1 0-.2 0-.2 0 0 0 0 0 0h-1.5c0 0-.1 0-.1.1 0 0 0 0 0 0 0 0 0 .1.1.1H50.8z"/><path fill="#472b29" d="M50.8,67.7c-5.6,0-9.1-1.1-13.2-3.9c-0.1-0.1-0.2-0.2-0.2-0.4c0-1.9,0.1-3.8,0.4-5.7 c0.3-1.3,1-2.3,2.2-2.9c0.4-0.3,0.9-0.5,1.4-0.6l4.2-1.5c0.3-0.1,0.4-0.2,0.5-0.4c0-0.1,0.1-0.6,0.1-1c-0.4-0.3-0.8-0.6-1.2-0.9 c-0.8-0.7-1.5-1.7-1.8-2.7c0-0.2-0.1-0.3-0.2-0.4c-0.1-0.1-0.2-0.2-0.3-0.2c-0.3-0.2-0.6-0.4-0.9-0.8c-0.5-1.1-0.7-2.2-0.8-3.3 c0-0.1,0-0.1,0-0.2c0.2-0.8,0.9-1.4,1.7-1.4h0.2c0.1,0,0.1,0,0.2,0c0-0.7,0-1.9,0-2.8l0-0.2c0-3,3-5.4,6.8-5.5l0.2,0 c3.8,0.1,6.8,2.5,6.8,5.5v3c0.1,0,0.1,0,0.2,0h0.2c0.8,0,1.5,0.6,1.7,1.4c0,0.1,0,0.1,0,0.2c-0.1,1.1-0.4,2.3-0.9,3.3 c-0.3,0.5-0.6,0.7-0.9,0.8c-0.1,0.1-0.2,0.1-0.4,0.2c-0.1,0.1-0.1,0.2-0.2,0.3c-0.3,1.1-0.9,2.1-1.8,2.8c-0.4,0.4-0.8,0.7-1.3,1 c0,0.3,0,0.7,0.1,1c0.1,0.1,0.2,0.3,0.4,0.3c0.2,0.1,4.5,1.7,5.3,2l0.5,0.2c1.3,0.3,2.2,1.5,2.3,2.9c0,0,0,0,0,0 c0,0,0.2,4.2,0.3,6.6c0,0.2-0.1,0.4-0.3,0.5c-3.1,1.5-6.3,2.4-9.7,2.8C52.1,67.6,51.4,67.7,50.8,67.7z M38.4,63.1 c4.4,2.9,7.9,3.8,14.3,3.5c3.1-0.3,6.2-1.2,9-2.5c-0.1-2.4-0.3-6.2-0.3-6.3c-0.1-0.9-0.7-1.7-1.6-2l-0.6-0.2c-0.7-0.3-5.2-2-5.2-2 c-0.4-0.1-0.8-0.5-1-0.9c-0.2-0.6-0.2-1.1-0.2-1.6c0-0.2,0.1-0.3,0.2-0.4c0.5-0.3,0.9-0.7,1.4-1.1c0.7-0.6,1.2-1.4,1.4-2.3 c0-0.3,0.2-0.6,0.5-0.9c0.2-0.1,0.3-0.2,0.5-0.3c0.3-0.1,0.4-0.2,0.5-0.4c0.4-0.9,0.7-1.8,0.8-2.8c-0.1-0.3-0.4-0.5-0.8-0.6h-0.2 c-0.2,0-0.3,0-0.4,0c-0.2,0-0.4,0.1-0.7-0.1c-0.2-0.2-0.2-0.5-0.2-0.6l0-3.3c0-2.4-2.6-4.4-5.8-4.5h-0.1c-3.2,0.1-5.8,2.1-5.8,4.5 l0,0.2c0,1.7,0,2.7,0,3.1c0,0.2,0,0.5-0.2,0.6c-0.2,0.2-0.5,0.1-0.6,0.1c-0.1,0-0.2,0-0.4,0l-0.2,0c-0.3,0-0.6,0.2-0.7,0.6 c0.1,1,0.3,2,0.7,2.9c0.1,0.1,0.2,0.2,0.5,0.4c0.1,0.1,0.3,0.2,0.5,0.3c0.3,0.2,0.5,0.6,0.5,1c0.2,0.8,0.8,1.6,1.4,2.2 c0.4,0.3,0.9,0.7,1.3,1c0.1,0.1,0.2,0.2,0.2,0.4c0,0.6-0.1,1.3-0.1,1.5c-0.2,0.6-0.6,1-1.2,1.1l-4.2,1.5c-0.5,0.1-0.9,0.3-1.2,0.5 c-0.9,0.5-1.5,1.2-1.7,2.2C38.5,59.5,38.4,61.3,38.4,63.1z"/><path fill="#895d3d" d="M57.4 44.7l-.6-.1.1-.9-.4.2-.2-.6.9-.4c.1 0 .2 0 .3 0 .1.1.1.2.1.3L57.4 44.7zM42.7 44.5l-.2-1.4c0-.1 0-.2.1-.3.1-.1.2-.1.3 0l.9.4-.2.5-.4-.2.1.9L42.7 44.5z"/><path fill="#472b29" d="M43.6 47.2C43.6 47.2 43.6 47.2 43.6 47.2c-.1 0-.2-.1-.2-.2l.1-5.2c0-.1.1-.2.2-.2.1 0 .2.1.2.2L43.8 47C43.8 47.1 43.7 47.2 43.6 47.2zM56.4 47.2c-.1 0-.2-.1-.2-.2l-.1-5.2c0-.1.1-.2.2-.2.1 0 .2.1.2.2l.1 5.2C56.6 47.1 56.5 47.2 56.4 47.2 56.4 47.2 56.4 47.2 56.4 47.2z"/><path fill="#512c2b" d="M56.8,40.3c0.3-1.9-0.1-3.9-1.2-5.5c-1.6-1.3-3.6-2-5.7-2c-1.7,0-3.4,0.5-4.9,1.4 c-1.6,1.6-2.3,3.9-1.8,6.1c0.1,1.3,0.3,2.6,0.6,3.9c0.1-1.2,0.1-3.8,0.4-5c0.2-0.8,0.4-1.7,0.8-2.5c1.6-1.8,8.5-1.8,10.2,0 c0.3,0.8,0.6,1.6,0.8,2.5c0.3,1.2,0.3,3.8,0.5,4.9C56.6,42.8,56.7,41.6,56.8,40.3z"/><path fill="#f1bc19" d="M49.2 41.5c-1.2-1.4-5.6-.4-5.6-.4.1.3.2.6.2 1 .3 0 .3.8.4 1 .2 1.3 1 2.3 2.9 2.2 1.3 0 2.3-1 2.4-2.3 0 0 0-.1 0-.1C49.5 42.5 49.4 42 49.2 41.5zM49 43.1c0 1.1-.9 1.9-2 1.9 0 0 0 0 0 0h-.3c-1.8 0-2.2-1.6-2.2-2.6 0-.6.4-1.1 1-1.1.3 0 .7 0 1.2 0 1.4 0 2 .3 2.1.6C49 42.2 49 42.7 49 43.1zM50.5 43c0 1.3 1.1 2.3 2.4 2.3 0 0 0 0 0 0 1.8 0 2.7-.9 2.9-2.2 0-.3 0-1 .4-1 .1-.3.1-.6.2-1 0 0-4.5-1-5.6.4C50.5 41.9 50.5 42.5 50.5 43zM51.2 41.8c.2-.3.8-.6 2.1-.6.4 0 .8 0 1.2 0 .6 0 1 .6 1 1.1 0 1-.3 2.6-2.2 2.6H53c-1.1 0-2-.8-2-1.9 0 0 0 0 0-.1C50.9 42.6 51 42.2 51.2 41.8L51.2 41.8z"/><path fill="#f1bc19" d="M50.8,42.6c-0.2-0.2-0.5-0.2-0.8-0.2c-0.3,0-0.5,0.1-0.8,0.2L49,42h2L50.8,42.6z"/></svg>