<?xml version="1.0"?><svg xmlns="http://www.w3.org/2000/svg" viewBox="0 0 30 30">    <path d="M 7 2 A 3 3 0 0 0 4 5 A 3 3 0 0 0 7 8 A 3 3 0 0 0 10 5 A 3 3 0 0 0 7 2 z M 24.5 3 A 2.5 2.5 0 0 0 22 5.5 A 2.5 2.5 0 0 0 24.5 8 A 2.5 2.5 0 0 0 27 5.5 A 2.5 2.5 0 0 0 24.5 3 z M 13 4 A 1 1 0 0 0 12 5 A 1 1 0 0 0 13 6 A 1 1 0 0 0 14 5 A 1 1 0 0 0 13 4 z M 17 4 A 1 1 0 0 0 16 5 A 1 1 0 0 0 17 6 A 1 1 0 0 0 18 5 A 1 1 0 0 0 17 4 z M 21.5 9 C 20.119 9 19 10.119 19 11.5 L 19 15.5 C 19 16.093 19.215547 16.631547 19.560547 17.060547 C 19.559547 17.061547 22.568359 20.646484 22.568359 20.646484 L 23 26.087891 L 23.003906 26.087891 A 1.0001 1.0001 0 0 0 25 26 L 25 20 A 1.0001 1.0001 0 0 0 24.921875 19.609375 L 24.921875 19.601562 L 23.697266 16.669922 L 23.779297 15.728516 L 26.380859 17.785156 A 1.0001 1.0001 0 1 0 27.619141 16.214844 L 24.865234 14.039062 L 23.953125 11.03125 C 23.733406 9.8748992 22.720431 9 21.5 9 z M 6 10 C 4.3550302 10 3 11.35503 3 13 L 3 19 A 1.0001 1.0001 0 0 0 3.9472656 20.011719 L 3.9472656 26.101562 C 3.9472656 26.537562 4.4104688 27 4.9804688 27 C 5.5244688 27 5.9757187 26.578156 6.0117188 26.035156 L 6.4492188 19.464844 C 6.4672187 19.203844 6.6842656 19 6.9472656 19 C 7.2102656 19 7.4273125 19.204797 7.4453125 19.466797 L 7.8828125 26.035156 C 7.9188125 26.577156 8.3700625 27 8.9140625 27 C 9.4840625 27 9.9472656 26.536797 9.9472656 25.966797 L 9.9472656 12 L 15 12 A 1.0001 1.0001 0 1 0 15 10 L 6 10 z M 19 19 L 19 26 C 19 26.552 19.448 27 20 27 C 20.552 27 21 26.552 21 26 L 21.279297 21.267578 L 19 19 z"/></svg>