<?xml version="1.0"?><svg xmlns="http://www.w3.org/2000/svg" viewBox="0 0 128 128">    <path d="M 55.099609 13.5 C 53.399609 13.5 52.099609 14.8 52.099609 16.5 L 52.099609 26.099609 C 52.099609 27.499609 53.1 28.7 54.5 29 L 54.5 34.300781 C 54.5 37.100781 53.100391 39.599609 50.900391 41.099609 L 43 46.300781 C 38.7 49.100781 36.699219 53.8 36.699219 61.5 L 36.699219 107.5 C 36.699219 112.4 40.699609 116.40039 45.599609 116.40039 L 82.300781 116.40039 C 87.300781 116.40039 91.199219 112.40078 91.199219 107.30078 L 91.199219 61.300781 C 91.199219 53.700781 89.3 48.999609 85 46.099609 L 77.099609 40.800781 C 74.899609 39.400781 73.599609 36.899609 73.599609 34.099609 L 73.599609 28.800781 C 74.899609 28.500781 76 27.300391 76 25.900391 L 76 16.5 C 76 14.8 74.7 13.5 73 13.5 L 55.099609 13.5 z M 60.5 29.099609 L 67.599609 29.099609 L 67.599609 34.300781 C 67.599609 39.100781 69.900781 43.4 73.800781 46 L 81.699219 51.300781 C 83.499219 52.500781 85.300781 54.7 85.300781 61.5 L 85.300781 107.5 C 85.300781 109.3 84.100391 110.59961 82.400391 110.59961 L 45.699219 110.59961 C 44.099219 110.59961 42.800781 109.29922 42.800781 107.69922 L 42.800781 61.699219 C 42.800781 54.699219 44.600391 52.6 46.400391 51.5 L 54.300781 46.199219 C 58.100781 43.399219 60.5 39.100391 60.5 34.400391 L 60.5 29.099609 z M 55.400391 59.5 C 51.100391 59.5 47.400391 63.099609 47.400391 67.599609 L 47.400391 102.19922 C 47.400391 103.89922 48.700391 105.19922 50.400391 105.19922 L 77.5 105.19922 C 79.2 105.19922 80.5 103.89922 80.5 102.19922 L 80.5 67.599609 C 80.5 63.099609 76.900391 59.5 72.400391 59.5 L 55.400391 59.5 z M 64 65.699219 C 68.6 65.699219 72.300781 69.4 72.300781 74 C 72.300781 78.6 68.6 82.300781 64 82.300781 C 59.4 82.300781 55.699219 78.6 55.699219 74 C 55.699219 69.4 59.4 65.699219 64 65.699219 z M 55.599609 88.199219 L 72.300781 88.199219 L 72.300781 98.099609 L 55.599609 98.099609 L 55.599609 88.199219 z"/></svg>