<svg xmlns="http://www.w3.org/2000/svg" viewBox="0 0 40 40"><path fill="#dff0fe" d="M6.57,32.723C3.297,29.273,1.5,24.774,1.5,20s1.797-9.273,5.07-12.723l5.054,5.054 C9.697,14.43,8.643,17.134,8.643,20s1.055,5.571,2.981,7.669L6.57,32.723z"/><path fill="#4788c7" d="M6.584,7.998l4.354,4.354C9.129,14.488,8.143,17.169,8.143,20c0,2.831,0.986,5.512,2.795,7.648 l-4.354,4.354C3.621,28.697,2,24.473,2,20C2,15.527,3.621,11.303,6.584,7.998 M6.565,6.565C3.127,10.003,1,14.753,1,20 c0,5.247,2.127,9.997,5.565,13.435l5.758-5.758c-1.965-1.965-3.18-4.679-3.18-7.677c0-2.998,1.215-5.712,3.18-7.677L6.565,6.565 L6.565,6.565z"/><path fill="#dff0fe" d="M28.376,27.669c1.927-2.098,2.981-4.803,2.981-7.669s-1.055-5.57-2.981-7.669l5.054-5.054 C36.703,10.727,38.5,15.226,38.5,20s-1.797,9.273-5.07,12.723L28.376,27.669z"/><path fill="#4788c7" d="M33.416,7.998C36.379,11.303,38,15.527,38,20c0,4.473-1.621,8.697-4.584,12.002l-4.354-4.354 c1.809-2.136,2.795-4.817,2.795-7.648c0-2.832-0.986-5.511-2.795-7.648L33.416,7.998 M33.435,6.565l-5.758,5.758 c1.965,1.965,3.18,4.679,3.18,7.677c0,2.998-1.215,5.712-3.18,7.677l5.758,5.758C36.873,29.997,39,25.247,39,20 C39,14.753,36.873,10.003,33.435,6.565L33.435,6.565z"/><g><path fill="#dff0fe" d="M20 15.5A4.5 4.5 0 1 0 20 24.5A4.5 4.5 0 1 0 20 15.5Z"/><path fill="#4788c7" d="M20,16c2.206,0,4,1.794,4,4s-1.794,4-4,4s-4-1.794-4-4S17.794,16,20,16 M20,15c-2.761,0-5,2.239-5,5 s2.239,5,5,5s5-2.239,5-5S22.761,15,20,15L20,15z"/></g><g><path fill="#dff0fe" d="M6.57,32.723C3.297,29.273,1.5,24.774,1.5,20s1.797-9.273,5.07-12.723l4.952,4.952 C9.569,14.356,8.5,17.097,8.5,20c0,2.904,1.069,5.645,3.022,7.771L6.57,32.723z"/><path fill="#4788c7" d="M6.584,7.998l4.252,4.252C9.001,14.414,8,17.13,8,20s1.001,5.586,2.836,7.749l-4.252,4.252 C3.621,28.697,2,24.473,2,20C2,15.527,3.621,11.303,6.584,7.998 M6.565,6.565C3.127,10.003,1,14.753,1,20 s2.127,9.997,5.565,13.435l5.657-5.657C10.231,25.788,9,23.038,9,20c0-3.038,1.231-5.788,3.222-7.778L6.565,6.565L6.565,6.565z"/><g><path fill="#dff0fe" d="M28.478,27.771C30.431,25.645,31.5,22.904,31.5,20c0-2.903-1.069-5.644-3.022-7.771l4.953-4.952 C36.704,10.728,38.5,15.226,38.5,20s-1.797,9.273-5.07,12.723L28.478,27.771z"/><path fill="#4788c7" d="M33.416,7.998C36.379,11.303,38,15.527,38,20s-1.621,8.697-4.584,12.002l-4.252-4.252 C30.999,25.586,32,22.87,32,20s-1.001-5.586-2.836-7.749L33.416,7.998 M33.435,6.565l-5.657,5.657C29.769,14.212,31,16.962,31,20 c0,3.038-1.231,5.788-3.222,7.778l5.657,5.657C36.873,29.997,39,25.247,39,20S36.873,10.003,33.435,6.565L33.435,6.565z"/></g></g></svg>