<svg xmlns="http://www.w3.org/2000/svg" viewBox="0 0 48 48"><polygon fill="#5e35b1" points="29,40 26,33 26,48"/><path fill="#9575cd" d="M9,31c5.2-2,7.067-12,14-12v10c-2.6-8-8.8,5-14,5V31z"/><path fill="#9575cd" d="M39,31c-5.2-2-7.067-12-14-12v10c2.6-8,8.8,5,14,5V31z"/><polygon fill="#5e35b1" points="19,40 22,33 22,48"/><polygon fill="#7e57c2" points="20,34 23,32 23,45"/><polygon fill="#7e57c2" points="28,34 25,32 25,45"/><rect width="4" height="28" x="22" y="13" fill="#7e57c2"/><path fill="#7e57c2" d="M8.037,26.045C10.458,34.536,16.009,38,22,38V25c-2.338,8-8.014,8-11.91,0H8.614	C8.193,25,7.892,25.538,8.037,26.045z"/><path fill="#7e57c2" d="M26,17h-4l-1.336-4.007c-0.43-1.291-0.411-2.689,0.054-3.968L24,0l3.282,9.026	c0.465,1.279,0.484,2.677,0.054,3.968L26,17z"/><path fill="#7e57c2" d="M39.963,26.045C37.542,34.536,31.991,38,26,38V25c2.338,8,8.014,8,11.91,0h1.476	C39.807,25,40.108,25.538,39.963,26.045z"/><polygon fill="#9575cd" points="21,31.5 21,33.5 24,32 24,30"/><polygon fill="#9575cd" points="27,31.5 24,30 24,32 27,33.5"/><polygon fill="#9575cd" points="21,35.5 21,37.5 24,36 24,34"/><polygon fill="#9575cd" points="27,35.5 24,34 24,36 27,37.5"/><path fill="#9575cd" d="M20.594,12.703L24,11l3.406,1.703c0.173-0.619,0.249-1.254,0.22-1.89L24,9l-3.626,1.813 C20.345,11.449,20.421,12.084,20.594,12.703z"/><polygon fill="#9575cd" points="21.143,14.429 21.714,16.143 24,15 26.286,16.143 26.857,14.429 24,13"/><path fill="#b39ddb" d="M8,42L6.255,25.421C6.119,24.127,7.133,23,8.435,23h0c1.347,0,2.375,1.203,2.165,2.534L8,42z"/><path fill="#b39ddb" d="M39,42l-1.745-16.579C37.119,24.127,38.133,23,39.435,23h0c1.347,0,2.375,1.203,2.165,2.534L39,42z"/></svg>