<?xml version="1.0"?><svg xmlns="http://www.w3.org/2000/svg" width="128" height="128" viewBox="0 0 128 128">    <path d="M 75 1.6992188 A 7 7 0 0 0 68 8.6992188 A 7 7 0 0 0 75 15.699219 A 7 7 0 0 0 82 8.6992188 A 7 7 0 0 0 75 1.6992188 z M 112.58203 32.042969 C 112.22363 32.043359 111.8625 32.062109 111.5 32.099609 C 108.6 32.399609 105.99961 33.700391 104.09961 35.900391 L 80.199219 64.400391 C 74.299219 64.000391 68.7 63.800781 64 63.800781 C 43.9 63.800781 6 67.2 6 80 C 6 105.9 32 127 64 127 C 96 127 122 105.9 122 80 C 122 74.5 115.00039 70.699219 105.40039 68.199219 L 120.80078 49.900391 C 122.60078 47.700391 123.49922 44.9 123.19922 42 C 122.89922 39.1 121.60039 36.499609 119.40039 34.599609 C 117.47539 32.937109 115.09082 32.040234 112.58203 32.042969 z M 28.900391 33.699219 A 7 7 0 0 0 21.900391 40.699219 A 7 7 0 0 0 28.900391 47.699219 A 7 7 0 0 0 35.900391 40.699219 A 7 7 0 0 0 28.900391 33.699219 z M 112 38.199219 C 113.3 38.099219 114.6 38.500781 115.5 39.300781 C 116.4 40.100781 117.09922 41.299609 117.19922 42.599609 C 117.39922 43.799609 116.99961 45.099609 116.09961 46.099609 L 85 83.199219 C 83.7 84.699219 80.100781 85.4 77.800781 85.5 C 76.800781 85.6 75.2 85.699219 74 85.199219 C 72.8 84.699219 72.399219 83.199219 73.199219 82.199219 C 73.299219 82.099219 73.4 81.900781 73.5 81.800781 L 108.69922 39.900391 C 109.49922 38.900391 110.7 38.299219 112 38.199219 z M 53.900391 73.699219 C 56.700391 73.699219 58.900391 75.899219 58.900391 78.699219 C 58.900391 81.499219 56.700391 83.699219 53.900391 83.699219 C 51.100391 83.699219 48.900391 81.499219 48.900391 78.699219 C 48.900391 75.899219 51.100391 73.699219 53.900391 73.699219 z M 13.099609 88.400391 C 24.999609 94.400391 49.3 96.199219 64 96.199219 C 78.7 96.199219 103.00039 94.400391 114.90039 88.400391 C 110.00039 107.00039 89 121 64 121 C 39 121 17.999609 107.00039 13.099609 88.400391 z"/></svg>