<svg xmlns="http://www.w3.org/2000/svg" width="512" height="512" viewBox="0 0 512 512"><path fill="#EDC92F" d="M256,7.9C119,7.9,7.9,119,7.9,256C7.9,393,119,504.1,256,504.1c137,0,248.1-111.1,248.1-248.1C504.1,119,393,7.9,256,7.9z"/><path fill="#839193" d="M210.6 104.6H300.4V129.6H210.6z"/><path fill="#BBC3C4" d="M210.6 104.6H300.4V114.19999999999999H210.6z"/><path fill="#A0B2B5" d="M210.6 114.2H300.4V124.4H210.6z"/><path fill="#839193" d="M210.6 162H300.4V187H210.6z"/><path fill="#BBC3C4" d="M210.6 162H300.4V171.6H210.6z"/><path fill="#A0B2B5" d="M210.6 171.6H300.4V181.79999999999998H210.6z"/><path fill="#839193" d="M210.6 219.5H300.4V244.5H210.6z"/><path fill="#BBC3C4" d="M210.6 219.5H300.4V229.1H210.6z"/><path fill="#A0B2B5" d="M210.6 229H300.4V239.2H210.6z"/><path fill="#839193" d="M210.6 276.9H300.4V301.9H210.6z"/><path fill="#BBC3C4" d="M210.6 276.9H300.4V286.5H210.6z"/><path fill="#A0B2B5" d="M210.6 286.4H300.4V296.59999999999997H210.6z"/><g><path fill="#839193" d="M210.6 334.3H300.4V359.3H210.6z"/><path fill="#BBC3C4" d="M210.6 334.3H300.4V343.90000000000003H210.6z"/><path fill="#A0B2B5" d="M210.6 343.9H300.4V354.09999999999997H210.6z"/></g><g><path fill="#839193" d="M210.6 391.7H300.4V416.7H210.6z"/><path fill="#BBC3C4" d="M210.6 391.7H300.4V401.3H210.6z"/><path fill="#A0B2B5" d="M210.6 401.3H300.4V411.5H210.6z"/></g><g><path fill="#8B9C9E" d="M196.7 67.6H212.7V451H196.7zM299.3 67.6H315.3V451H299.3z"/></g><g><path fill="#C83D54" d="M211.3,432.2h-12.8c-2.2,0-4,1.8-4,4v12.8c0,2.2,1.8,4,4,4h12.8c2.2,0,4-1.8,4-4v-12.8C215.3,434,213.5,432.2,211.3,432.2z"/></g><g><path fill="#C83D54" d="M313.4,432.2h-12.8c-2.2,0-4,1.8-4,4v12.8c0,2.2,1.8,4,4,4h12.8c2.2,0,4-1.8,4-4v-12.8C317.4,434,315.6,432.2,313.4,432.2z"/></g><g><path fill="#DD5271" d="M304.9,58.9h-97.8c-9.6,0-17.4,6.2-17.4,13.7c0,7.6,7.8,13.7,17.4,13.7h97.8c9.6,0,17.4-6.2,17.4-13.7C322.4,65.1,314.6,58.9,304.9,58.9z"/></g><g><path fill="#C83D54" d="M189.6,72.7c0,7.6,7.8,13.7,17.4,13.7h97.8c9.6,0,17.4-6.2,17.4-13.7H189.6z"/></g></svg>