<?xml version="1.0"?><svg xmlns="http://www.w3.org/2000/svg" viewBox="0 0 128 128">    <path d="M99,63.5h4c5,0,9-4,9-9s-4-9-9-9H82.9c1.3-2,2.1-4.4,2.1-7c0-7.2-5.8-13-13-13c-4.3,0-8.2,2.1-10.5,5.4 c-1.7-1.5-4-2.4-6.5-2.4c-5.5,0-10,4.5-10,10c0,2.5,0.9,4.8,2.4,6.5c0.2,0.2,0.3,0.3,0.5,0.5H25c-5,0-9,4-9,9s4,9,9,9h24.4H59 c1.1,0,2,0.9,2,2v6H25c-3.3,0-6,2.7-6,6s2.7,6,6,6h36v5c0,0.7,0.1,1.4,0.3,2H25c-3.3,0-6,2.7-6,6s2.7,6,6,6h78c3.3,0,6-2.7,6-6 s-2.7-6-6-6H76.7c0.2-0.6,0.3-1.3,0.3-2v-23c0-1.1,0.9-2,2-2s2,0.9,2,2v10c0,4.4,3.6,8,8,8h14c3.3,0,6-2.7,6-6s-2.7-6-6-6h-6v-6 C97,64.4,97.9,63.5,99,63.5z M66.8,34c1.1-1.1,3.1-1.1,4.2,0c0.6,0.6,0.9,1.3,0.9,2.1s-0.3,1.6-0.9,2.1c-0.1,0.1-0.3,0.3-0.5,0.4 c-0.2,0.1-0.3,0.2-0.5,0.3c-0.2,0.1-0.4,0.1-0.6,0.2c-0.2,0-0.4,0.1-0.6,0.1c-0.2,0-0.4,0-0.6-0.1c-0.2,0-0.4-0.1-0.6-0.2 c-0.2-0.1-0.4-0.2-0.5-0.3c-0.2-0.1-0.3-0.2-0.5-0.4c-0.6-0.6-0.9-1.3-0.9-2.1S66.2,34.6,66.8,34z M49,35.6c0-0.2,0.1-0.4,0.2-0.6 c0.1-0.2,0.2-0.3,0.3-0.5c0.1-0.2,0.2-0.3,0.4-0.5c0.1-0.1,0.3-0.3,0.5-0.4s0.3-0.2,0.5-0.3c0.2-0.1,0.4-0.1,0.6-0.2 c1-0.2,2,0.1,2.7,0.8c0.6,0.6,0.9,1.3,0.9,2.1c0,0.2,0,0.4-0.1,0.6c0,0.2-0.1,0.4-0.2,0.6c-0.1,0.2-0.2,0.4-0.3,0.5 c-0.1,0.2-0.2,0.3-0.4,0.5c-0.1,0.1-0.3,0.3-0.5,0.4c-0.2,0.1-0.3,0.2-0.5,0.3c-0.2,0.1-0.4,0.1-0.6,0.2c-0.2,0-0.4,0.1-0.6,0.1 c-0.8,0-1.6-0.3-2.1-0.9c-0.5-0.6-0.9-1.3-0.9-2.1C48.9,36,48.9,35.8,49,35.6z M87,75.5v-10c0-4.4-3.6-8-8-8s-8,3.6-8,8v23 c0,1.1-0.9,2-2,2s-2-0.9-2-2v-23c0-4.4-3.6-8-8-8h-9.6H25c-1.7,0-3-1.3-3-3s1.3-3,3-3h78c1.7,0,3,1.3,3,3s-1.3,3-3,3h-4 c-4.4,0-8,3.6-8,8v10c0,1.1-0.9,2-2,2S87,76.6,87,75.5z"/></svg>