<svg xmlns="http://www.w3.org/2000/svg" viewBox="0 0 100 100"><path fill="#f1bc19" d="M77 12A1 1 0 1 0 77 14A1 1 0 1 0 77 12Z"/><path fill="#e4e4f9" d="M50 13A37 37 0 1 0 50 87A37 37 0 1 0 50 13Z"/><path fill="#f1bc19" d="M83 11A4 4 0 1 0 83 19A4 4 0 1 0 83 11Z"/><path fill="#8889b9" d="M87 22A2 2 0 1 0 87 26A2 2 0 1 0 87 22Z"/><path fill="#fbcd59" d="M81 74A2 2 0 1 0 81 78 2 2 0 1 0 81 74zM15 59A4 4 0 1 0 15 67 4 4 0 1 0 15 59z"/><path fill="#8889b9" d="M25 85A2 2 0 1 0 25 89A2 2 0 1 0 25 85Z"/><path fill="#fff" d="M18.5 49A2.5 2.5 0 1 0 18.5 54 2.5 2.5 0 1 0 18.5 49zM79.5 32A1.5 1.5 0 1 0 79.5 35 1.5 1.5 0 1 0 79.5 32z"/><path fill="#88cdd7" d="M36.979,73.3c-1.067,0-1.965-0.898-2.044-2.046l-2.335-35.342c-0.024-0.368-0.329-0.654-0.698-0.654 h-3.132L28.705,26.7h42.601l0.065,8.558H68.25c-0.367,0-0.673,0.284-0.698,0.651l-2.487,35.344 c-0.079,1.148-0.977,2.047-2.044,2.047H36.979z"/><path fill="#f15b6c" d="M29 27H71V35H29z"/><path fill="#fabf82" d="M65 73L35 73 34 58 66 58z"/><g><path fill="#472b29" d="M70.611,27.4l0.055,7.158H68.25c-0.735,0-1.345,0.568-1.397,1.302l-2.487,35.346 c-0.054,0.782-0.645,1.394-1.346,1.394H36.98c-0.701,0-1.292-0.612-1.346-1.391l-2.335-35.343c-0.049-0.736-0.66-1.308-1.397-1.308 h-2.437L29.411,27.4H70.611 M72,26H28l0.076,9.958h3.826l2.335,35.343C34.342,72.823,35.538,74,36.98,74h26.04 c1.441,0,2.638-1.177,2.743-2.698l2.487-35.343h3.826L72,26L72,26z"/></g><g><path fill="#d6d3c5" d="M62.188 65.5L58.188 65.5"/><path fill="#472b29" d="M62.187,66h-4c-0.276,0-0.5-0.224-0.5-0.5s0.224-0.5,0.5-0.5h4c0.276,0,0.5,0.224,0.5,0.5 S62.464,66,62.187,66z"/></g><g><path fill="#d6d3c5" d="M62.625 58.5L58.625 58.5"/><path fill="#472b29" d="M62.625,59h-4c-0.276,0-0.5-0.224-0.5-0.5s0.224-0.5,0.5-0.5h4c0.276,0,0.5,0.224,0.5,0.5 S62.901,59,62.625,59z"/></g><g><path fill="#d6d3c5" d="M54.5 58.5L51.5 58.5"/><path fill="#472b29" d="M54.5,59h-3c-0.276,0-0.5-0.224-0.5-0.5s0.224-0.5,0.5-0.5h3c0.276,0,0.5,0.224,0.5,0.5 S54.776,59,54.5,59z"/></g><g><path fill="#d6d3c5" d="M46.5 58.5L34.5 58.5"/><path fill="#472b29" d="M46.5,59h-12c-0.276,0-0.5-0.224-0.5-0.5s0.224-0.5,0.5-0.5h12c0.276,0,0.5,0.224,0.5,0.5 S46.776,59,46.5,59z"/></g><g><path fill="#d6d3c5" d="M63.062 51.5L59.063 51.5"/><path fill="#472b29" d="M63.062,52h-4c-0.276,0-0.5-0.224-0.5-0.5s0.224-0.5,0.5-0.5h4c0.276,0,0.5,0.224,0.5,0.5 S63.339,52,63.062,52z"/></g><g><path fill="#d6d3c5" d="M63.5 44.5L59.5 44.5"/><path fill="#472b29" d="M63.5,45h-4c-0.276,0-0.5-0.224-0.5-0.5s0.224-0.5,0.5-0.5h4c0.276,0,0.5,0.224,0.5,0.5 S63.776,45,63.5,45z"/></g><g><path fill="#472b29" d="M68.697,35.936H31.729c-0.387,0-0.7-0.313-0.7-0.7s0.313-0.7,0.7-0.7h36.969 c0.387,0,0.7,0.313,0.7,0.7S69.084,35.936,68.697,35.936z"/></g></svg>