<svg xmlns="http://www.w3.org/2000/svg" viewBox="0 0 24 24"><path d="M 12 0 C 10.226563 0 8.546875 0.402344 7.03125 1.09375 C 7.023438 1.097656 7.007813 1.089844 7 1.09375 C 6.925781 1.085938 6.855469 1.085938 6.78125 1.09375 C 5 1.296875 3.492188 1.5625 2.34375 1.90625 C 1.769531 2.078125 1.296875 2.277344 0.875 2.5625 C 0.453125 2.847656 0 3.332031 0 4 C 0 4.476563 0.234375 4.878906 0.5 5.15625 C 0.765625 5.433594 1.0625 5.640625 1.40625 5.8125 C 1.484375 5.851563 1.574219 5.902344 1.65625 5.9375 C 0.613281 7.71875 0 9.78125 0 12 C 0 18.636719 5.363281 24 12 24 C 18.636719 24 24 18.636719 24 12 C 24 9.78125 23.386719 7.71875 22.34375 5.9375 C 22.425781 5.902344 22.515625 5.851563 22.59375 5.8125 C 22.9375 5.640625 23.234375 5.433594 23.5 5.15625 C 23.765625 4.878906 24 4.476563 24 4 C 24 3.332031 23.546875 2.847656 23.125 2.5625 C 22.703125 2.277344 22.230469 2.078125 21.65625 1.90625 C 20.507813 1.5625 19 1.296875 17.21875 1.09375 C 17.15625 1.089844 17.09375 1.089844 17.03125 1.09375 C 17.023438 1.089844 17.007813 1.097656 17 1.09375 C 15.476563 0.398438 13.785156 0 12 0 Z M 12 2 C 14.710938 2 17.144531 3.058594 18.9375 4.78125 C 17.097656 5.105469 14.679688 5.3125 12 5.3125 C 9.320313 5.3125 6.902344 5.105469 5.0625 4.78125 C 6.855469 3.058594 9.289063 2 12 2 Z M 3.3125 3.71875 C 3.164063 3.875 3.046875 4.054688 2.90625 4.21875 C 2.742188 4.15625 2.5625 4.089844 2.4375 4.03125 C 2.601563 3.960938 2.691406 3.886719 2.9375 3.8125 C 3.050781 3.777344 3.1875 3.75 3.3125 3.71875 Z M 20.6875 3.71875 C 20.8125 3.75 20.949219 3.777344 21.0625 3.8125 C 21.308594 3.886719 21.398438 3.960938 21.5625 4.03125 C 21.4375 4.089844 21.257813 4.15625 21.09375 4.21875 C 20.953125 4.054688 20.835938 3.875 20.6875 3.71875 Z M 3.59375 6.53125 C 3.734375 6.5625 3.851563 6.59375 4 6.625 C 6.089844 7.058594 8.894531 7.3125 12 7.3125 C 15.105469 7.3125 17.910156 7.058594 20 6.625 C 20.148438 6.59375 20.265625 6.5625 20.40625 6.53125 C 21.417969 8.097656 22 9.976563 22 12 C 22 17.566406 17.566406 22 12 22 C 6.433594 22 2 17.566406 2 12 C 2 9.976563 2.582031 8.097656 3.59375 6.53125 Z M 8 8 C 6.894531 8 6 8.894531 6 10 C 6 11.105469 6.894531 12 8 12 C 9.105469 12 10 11.105469 10 10 C 10 8.894531 9.105469 8 8 8 Z M 16 8 C 14.894531 8 14 8.894531 14 10 C 14 11.105469 14.894531 12 16 12 C 17.105469 12 18 11.105469 18 10 C 18 8.894531 17.105469 8 16 8 Z M 7.8125 14.84375 L 6.1875 15.96875 C 7.464844 17.828125 9.582031 19 12 19 C 14.417969 19 16.535156 17.828125 17.8125 15.96875 L 16.1875 14.84375 C 15.265625 16.183594 13.78125 17 12 17 C 10.21875 17 8.734375 16.183594 7.8125 14.84375 Z"/></svg>