<?xml version="1.0"?><svg xmlns="http://www.w3.org/2000/svg" width="30" height="30" viewBox="0 0 30 30">    <path d="M 9 3 A 1 1 0 0 0 8 4 A 1 1 0 0 0 9 5 A 1 1 0 0 0 10 4 A 1 1 0 0 0 9 3 z M 14 3 C 14 5.083 17 15.681641 17 17.181641 C 17 20.634641 12.921734 21.149734 11.552734 21.677734 C 9.9317344 22.303734 8.9273281 23.511719 7.3613281 23.761719 C 5.7443281 24.061719 5 24.108234 5 25.115234 C 5 26.335234 6.1402813 27 7.2382812 27 C 8.0812812 27 9 26.478516 9 26.478516 C 9 26.478516 9.773 27 11 27 C 14.526 27 15.552281 26.792625 16.488281 26.640625 C 17.047281 26.549625 17.489953 26.478516 18.251953 26.478516 C 18.552953 26.478516 19.029031 26.557391 19.582031 26.650391 C 20.504031 26.806391 21.731 27 23 27 C 24.985 27 26 25.906844 26 24.089844 C 26 21.268844 24 19.800031 24 11.332031 L 24 3 L 14 3 z M 10.298828 6.9960938 A 1.0001 1.0001 0 0 0 9.9394531 7.0800781 C 5.6496006 8.9120355 3.1408216 14.45913 5.4140625 19.728516 A 1.0004434 1.0004434 0 0 0 7.2519531 18.9375 C 5.393194 14.628886 7.5324155 10.283965 10.726562 8.9199219 A 1.0001 1.0001 0 0 0 10.298828 6.9960938 z M 11.667969 11 A 1 1 0 0 0 10.667969 12 A 1 1 0 0 0 11.667969 13 A 1 1 0 0 0 12.667969 12 A 1 1 0 0 0 11.667969 11 z M 13 15 A 1 1 0 0 0 12 16 A 1 1 0 0 0 13 17 A 1 1 0 0 0 14 16 A 1 1 0 0 0 13 15 z M 9.6679688 16.667969 A 1 1 0 0 0 8.6679688 17.667969 A 1 1 0 0 0 9.6679688 18.667969 A 1 1 0 0 0 10.667969 17.667969 A 1 1 0 0 0 9.6679688 16.667969 z M 3 20 A 1 1 0 0 0 2 21 A 1 1 0 0 0 3 22 A 1 1 0 0 0 4 21 A 1 1 0 0 0 3 20 z"/></svg>