<svg xmlns="http://www.w3.org/2000/svg" width="512" height="512" viewBox="0 0 512 512"><path fill="#E84849" d="M504.1,256c0,137-111.1,248.1-248.1,248.1C119,504.1,7.9,393,7.9,256C7.9,119,119,7.9,256,7.9C393,7.9,504.1,119,504.1,256"/><path fill="#4A1C12" d="M225.9 219.6c.2-.1.4-.2.6-.2C226.2 219.4 226.1 219.5 225.9 219.6M285.6 219.3c.2.1.4.1.6.2C286 219.5 285.8 219.4 285.6 219.3"/><path fill="#C6C1B4" d="M290.4 392.5v-13.9c13.8-8.9 21.1-22.4 21.9-37.7.9-1.3 1.8-2.6 2.6-3.9 14.9-9.1 15.2-52.2 15.2-52.2-5.2-35.4-143-35.4-148.2 0 0 0-.2 43 14.5 51.8 1 1.7 2.2 3.4 3.4 5.1 1 15 8 28.2 21.8 36.9v13.9c-6.9 3.7-7.6 5.7-7.6 12.6h40c0-6.9-4.9-8.9-4.9-12.6v-3.7c0 .5 3.7.7 6.9.7 3.2 0 6.9-.3 6.9-.7v3.7c0 3.7-4.6 5.7-4.6 12.6h40C298.2 398.2 297.3 396.2 290.4 392.5M230.2 171.8c0 20.6-16.7 37.2-37.2 37.2-20.6 0-37.2-16.7-37.2-37.2 0-20.6 16.7-37.2 37.2-37.2C213.6 134.6 230.2 151.3 230.2 171.8"/><path fill="#F3BC97" d="M214.5,171.8c0,11.9-9.6,21.5-21.5,21.5c-11.8,0-21.4-9.6-21.4-21.5c0-11.8,9.6-21.5,21.4-21.5C204.9,150.4,214.5,160,214.5,171.8"/><path fill="#C6C1B4" d="M356.3,171.8c0,20.6-16.7,37.2-37.2,37.2c-20.5,0-37.2-16.7-37.2-37.2c0-20.6,16.7-37.2,37.2-37.2C339.6,134.6,356.3,151.3,356.3,171.8"/><path fill="#F3BC97" d="M340.5,171.8c0,11.9-9.6,21.5-21.5,21.5c-11.8,0-21.5-9.6-21.5-21.5c0-11.8,9.6-21.5,21.5-21.5C330.9,150.4,340.5,160,340.5,171.8"/><path fill="#C6C1B4" d="M256,160.2c0,0-80.5,6-81.6,90.7c0,0,5.5,83.4,81.6,96c76.1-12.6,81.6-96,81.6-96C336.5,166.3,256,160.2,256,160.2"/><path fill="#404041" d="M256 346.9c13.6-2.2 24.9-6.8 34.3-12.6-6-10.4-19.1-17.6-34.3-17.6-15.2 0-28.3 7.2-34.3 17.6C231.2 340.1 242.5 344.6 256 346.9M236.4 253.9c0 5.9-4.7 10.6-10.6 10.6-5.8 0-10.6-4.7-10.6-10.6 0-5.8 4.7-10.6 10.6-10.6C231.6 243.4 236.4 248.1 236.4 253.9M296.9 253.9c0 5.9-4.7 10.6-10.6 10.6-5.8 0-10.6-4.7-10.6-10.6 0-5.8 4.7-10.6 10.6-10.6C292.1 243.4 296.9 248.1 296.9 253.9"/><path fill="#404041" d="M196.7,332.3c-0.2,0-0.4-0.1-0.6-0.2c-0.3-0.3-0.4-0.8,0-1.2c16.3-17.8,41.6-7.8,41.8-7.7c0.4,0.2,0.6,0.6,0.5,1.1c-0.2,0.4-0.7,0.6-1.1,0.5c-0.2-0.1-24.5-9.6-40,7.3C197.1,332.2,196.9,332.3,196.7,332.3"/><path fill="#404041" d="M202,337.5c-0.2,0-0.4-0.1-0.6-0.2c-0.3-0.3-0.3-0.8,0-1.2c15.3-15.7,35.2-10.4,35.4-10.4c0.4,0.1,0.7,0.6,0.6,1c-0.1,0.4-0.6,0.7-1,0.6c-0.2-0.1-19.2-5.1-33.8,9.9C202.5,337.4,202.3,337.5,202,337.5"/><path fill="#404041" d="M208.9 343.2c-.2 0-.3 0-.5-.2-.4-.3-.5-.8-.2-1.1 10.6-15 28.3-13.6 28.5-13.6.5 0 .8.4.7.9 0 .5-.4.8-.9.7-.2 0-16.9-1.4-27 12.8C209.4 343.1 209.2 343.2 208.9 343.2M315.4 332.3c-.2 0-.4-.1-.6-.3-15.5-16.9-39.8-7.4-40-7.3-.4.2-.9 0-1.1-.5-.2-.4 0-.9.5-1.1.3-.1 25.6-10.1 41.9 7.7.3.3.3.9-.1 1.2C315.8 332.2 315.6 332.3 315.4 332.3"/><path fill="#404041" d="M310,337.5c-0.2,0-0.4-0.1-0.6-0.2c-14.6-15-33.6-10-33.7-9.9c-0.4,0.1-0.9-0.1-1-0.6c-0.1-0.4,0.1-0.9,0.6-1c0.2-0.1,20.1-5.4,35.4,10.4c0.3,0.3,0.3,0.9,0,1.2C310.4,337.4,310.2,337.5,310,337.5"/><path fill="#404041" d="M303.2,343.2c-0.3,0-0.5-0.1-0.7-0.4c-10-14.2-26.8-12.9-27-12.8c-0.5,0-0.9-0.3-0.9-0.7c0-0.5,0.3-0.9,0.7-0.9c0.2,0,17.9-1.5,28.5,13.6c0.3,0.4,0.2,0.9-0.2,1.1C303.5,343.2,303.3,343.2,303.2,343.2"/></svg>