<svg xmlns="http://www.w3.org/2000/svg" viewBox="0 0 48 48"><path fill="#ed488b" d="M17.716,12.189c-0.379-0.173-0.815-0.196-1.188-0.383c-0.713-0.357-1.021-1.347-0.635-2.046 c0.385-0.698,1.387-0.966,2.069-0.553c-0.864-0.612-1.062-1.979-0.407-2.811s2.029-0.962,2.828-0.268 c-0.523-1.293,0.337-3.233,1.696-3.551s2.867,1.067,2.972,2.458c-0.036-0.824,0.407-1.944,1.136-2.33 c0.729-0.386,1.711-0.26,2.28,0.336s0.635,1.905,0.104,2.536c0.699-0.779,2.17-0.336,2.532,0.646s-0.222,2.13-1.119,2.668 c0.775-0.662,2.302,0.438,2.422,1.45s-0.988,2.239-1.938,2.609"/><path fill="#16b7b8" d="M20.837,12.401c-4.871-0.21-8.838-0.152-13.701,0.2c-0.575,0.042-1.18,0.097-1.654,0.426 c-0.843,0.584-0.954,1.788-0.803,2.803c0.151,1.014,0.481,2.051,0.218,3.042c-0.064,0.241-0.163,0.492-0.095,0.732 c0.092,0.325,0.448,0.491,0.77,0.591c1.511,0.469,3.128,0.399,4.709,0.36c8.868-0.216,18.737,0.696,27.602,0.409 c1.342-0.044,3.154-0.115,4.47-0.385c0.31-0.063,0.635-0.147,0.859-0.371c0.325-0.326,0.339-0.84,0.332-1.3 c-0.027-1.855-0.113-3.337-0.14-5.192c-0.004-0.303-0.015-0.626-0.184-0.877c-0.308-0.456-0.963-0.464-1.511-0.424 c-1.888,0.139-5.185-0.094-7.05,0.228c-0.903,0.156-1.802,0.355-2.717,0.41c-1.113,0.067-2.227-0.079-3.336-0.2 C25.723,12.536,23.737,12.377,20.837,12.401z"/><rect width="4.874" height="8.455" x="21.629" y="12.399" fill="#c0e6ed"/><path fill="#16b7b8" d="M6.76,20.59c-0.028,6.446,0.039,14.892,0.203,21.336c0.011,0.423,0.024,0.856,0.181,1.249 c0.434,1.084,1.86,1.091,3.023,1.2c3.751,0.351,7.373-0.358,11.126-0.675c5.346-0.451,10.701,0.67,16.065,0.654 c0.941-0.003,1.966-0.073,2.669-0.698c0.884-0.786,0.926-2.128,0.903-3.311c-0.114-5.809-0.227-13.617-0.341-19.426"/><polygon fill="#c0e6ed" points="26.096,43.645 22.004,43.495 22.508,21 26.096,21"/><path fill="#d6e5e5" d="M23.456,24.005c-1.392,0.058-2.912,0.314-4.189,0.884c-0.785,0.351-1.558,0.747-2.233,1.285 c-2.237,1.782-3.095,5.039-2.368,7.839c0.727,2.799,2.867,5.094,5.432,6.333c0.592,0.286,1.211,0.523,1.854,0.649 c0.733,0.144,1.485,0.143,2.232,0.141c0.951-0.002,1.912-0.005,2.838-0.228c2.212-0.534,4.01-2.317,4.955-4.427 s1.115-4.51,0.883-6.817c-0.143-1.415-0.5-2.934-1.588-3.823c-0.796-0.65-1.847-0.849-2.851-1.026 C26.815,24.529,25.094,23.937,23.456,24.005z"/><path fill="#ed488b" d="M24.124,30.737c-0.297-0.734-1.095-2.088-1.78-2.487c-1.071-0.623-2.465-0.491-3.527,0.147 c-1.057,0.635-1.142,2.21-0.581,3.308c0.561,1.099,1.573,1.881,2.426,2.772c0.642,0.67,1.202,1.414,1.831,2.097 c0.261,0.284,0.546,0.565,0.906,0.703c0.805,0.309,1.684-0.18,2.368-0.704c1.919-1.47,3.54-3.487,3.992-5.862 c0.155-0.813,0.117-1.776-0.52-2.305c-0.832-0.691-2.415-0.57-3.314,0.03C25.109,28.981,24.531,29.846,24.124,30.737z"/><path d="M23.931,37.877c-0.247,0-0.483-0.044-0.712-0.132c-0.469-0.181-0.811-0.523-1.094-0.831 c-0.291-0.316-0.567-0.645-0.843-0.973c-0.319-0.38-0.639-0.76-0.981-1.118c-0.216-0.226-0.442-0.443-0.668-0.662 c-0.682-0.658-1.388-1.339-1.841-2.228c-0.658-1.289-0.552-3.172,0.769-3.965c1.283-0.771,2.867-0.829,4.036-0.151 c0.581,0.339,1.148,1.134,1.543,1.827c0.431-0.697,0.936-1.241,1.507-1.623c1.048-0.698,2.869-0.863,3.912,0.002 c0.68,0.564,0.925,1.553,0.691,2.783c-0.426,2.236-1.91,4.425-4.179,6.164C25.28,37.577,24.573,37.877,23.931,37.877z M20.772,28.344c-0.57,0-1.165,0.162-1.698,0.482c-0.8,0.48-0.85,1.76-0.394,2.652c0.378,0.74,0.994,1.335,1.645,1.963 c0.236,0.228,0.472,0.455,0.697,0.69c0.357,0.374,0.691,0.77,1.024,1.166c0.267,0.316,0.533,0.634,0.813,0.938 c0.216,0.234,0.45,0.473,0.717,0.575c0.465,0.18,1.101-0.033,1.884-0.634c2.074-1.59,3.425-3.563,3.805-5.559 c0.076-0.399,0.194-1.376-0.348-1.826c-0.659-0.549-2-0.418-2.717,0.061c-0.637,0.426-1.183,1.129-1.623,2.091 c-0.083,0.181-0.272,0.267-0.465,0.292c-0.2-0.005-0.378-0.127-0.453-0.313c-0.287-0.709-1.041-1.935-1.568-2.241 C21.703,28.456,21.246,28.344,20.772,28.344z"/><path d="M43.975,16.284c-0.028-0.828-0.056-1.656-0.07-2.576c-0.005-0.324-0.011-0.769-0.27-1.15 c-0.506-0.749-1.525-0.674-1.962-0.643c-0.735,0.055-1.7,0.05-2.72,0.046c-1.579-0.003-3.215-0.014-4.379,0.188l-0.624,0.113 c-0.701,0.129-1.363,0.251-2.039,0.291c-0.001,0-0.003,0-0.004,0c0.619-0.62,1.092-1.454,0.995-2.269 c-0.093-0.777-0.798-1.613-1.643-1.948c0.447-0.697,0.585-1.542,0.312-2.283c-0.245-0.664-0.891-1.188-1.646-1.332 c-0.172-0.033-0.337-0.044-0.501-0.038c0.07-0.722-0.133-1.501-0.595-1.984c-0.719-0.751-1.928-0.935-2.876-0.433 c-0.441,0.234-0.789,0.652-1.027,1.132c-0.214-0.292-0.477-0.558-0.775-0.776c-0.692-0.509-1.469-0.692-2.185-0.529 c-0.74,0.174-1.405,0.737-1.824,1.545c-0.27,0.521-0.41,1.082-0.415,1.616c-0.274-0.065-0.565-0.087-0.859-0.06 c-0.688,0.065-1.309,0.392-1.705,0.896c-0.396,0.504-0.566,1.186-0.467,1.87c0.03,0.205,0.083,0.403,0.156,0.59 c-0.055,0.01-0.109,0.022-0.164,0.037c-0.534,0.143-0.983,0.483-1.232,0.934c-0.25,0.451-0.298,1.013-0.134,1.541 c0.084,0.269,0.219,0.513,0.391,0.719c-2.812-0.005-5.534,0.1-8.613,0.322c-0.547,0.04-1.297,0.095-1.902,0.514 c-0.866,0.601-1.235,1.799-1.013,3.287c0.036,0.24,0.081,0.481,0.126,0.723c0.142,0.753,0.276,1.465,0.103,2.118l-0.03,0.109 c-0.07,0.244-0.158,0.549-0.062,0.888c0.183,0.645,0.875,0.86,1.104,0.932C5.7,20.757,5.98,20.81,6.259,20.864 c-0.027,6.851,0.052,15.087,0.203,21.074c0.011,0.44,0.024,0.94,0.217,1.422c0.507,1.268,1.948,1.388,3.106,1.483l0.335,0.029 c0.724,0.067,1.445,0.096,2.164,0.096c2.031,0,4.037-0.229,5.993-0.452c1.013-0.115,2.031-0.231,3.058-0.318 c3.059-0.256,6.193,0.012,9.224,0.272c2.224,0.192,4.538,0.386,6.801,0.383c1.081-0.003,2.192-0.105,3-0.825 c1.036-0.922,1.096-2.39,1.071-3.693c-0.058-2.926-0.115-6.359-0.172-9.789c-0.054-3.244-0.108-6.475-0.162-9.28 c0.478-0.052,0.941-0.113,1.357-0.198c0.369-0.076,0.79-0.184,1.114-0.509c0.495-0.497,0.484-1.225,0.478-1.659 C44.032,17.966,44.003,17.125,43.975,16.284z M17.924,11.734c-0.209-0.095-0.432-0.153-0.656-0.21 c-0.19-0.047-0.371-0.092-0.516-0.165c-0.219-0.109-0.392-0.326-0.476-0.596s-0.064-0.546,0.055-0.761 c0.118-0.214,0.342-0.379,0.614-0.451c0.271-0.074,0.548-0.042,0.758,0.085c0.23,0.14,0.529,0.071,0.677-0.153 c0.148-0.226,0.091-0.526-0.129-0.683c-0.3-0.213-0.507-0.572-0.567-0.986s0.036-0.818,0.264-1.108 c0.228-0.289,0.597-0.478,1.013-0.517c0.418-0.043,0.815,0.076,1.093,0.317c0.175,0.153,0.431,0.163,0.619,0.03 c0.188-0.135,0.26-0.381,0.173-0.595c-0.209-0.517-0.139-1.224,0.183-1.846c0.284-0.548,0.708-0.924,1.164-1.03 c0.428-0.103,0.912,0.027,1.366,0.36c0.559,0.41,0.949,1.058,0.994,1.648c0.021,0.272,0.265,0.482,0.528,0.461 c0.272-0.017,0.482-0.248,0.47-0.521c-0.028-0.648,0.338-1.584,0.871-1.866c0.543-0.287,1.283-0.182,1.685,0.24 c0.395,0.413,0.44,1.442,0.083,1.867c-0.176,0.209-0.151,0.521,0.055,0.699c0.206,0.18,0.517,0.161,0.7-0.043 c0.25-0.279,0.638-0.239,0.793-0.21c0.412,0.079,0.772,0.358,0.896,0.695c0.261,0.707-0.167,1.524-0.747,1.959 C29.806,8.4,29.73,8.453,29.659,8.514c-0.198,0.169-0.233,0.461-0.081,0.672s0.439,0.27,0.663,0.137 c0.055-0.033,0.109-0.067,0.162-0.104c0.161-0.061,0.362-0.002,0.482,0.044c0.505,0.198,0.975,0.72,1.025,1.141 c0.087,0.733-0.835,1.776-1.623,2.084c-0.017,0.007-0.028,0.02-0.043,0.028c-0.414-0.033-0.828-0.076-1.235-0.122l-0.348-0.039 c-2.916-0.318-4.93-0.483-7.815-0.454c-0.972-0.042-1.902-0.07-2.817-0.09C17.996,11.783,17.965,11.753,17.924,11.734z M25.574,22.824c-0.009,0.324-0.015,0.614-0.016,0.872c-0.707-0.129-1.418-0.218-2.122-0.19c-0.129,0.005-0.285,0.021-0.426,0.031 c-0.027-0.702-0.031-1.562-0.008-2.289c0.206,0.007,0.416,0.014,0.622,0.021c0.651,0.023,1.312,0.041,1.967,0.064 C25.604,21.761,25.589,22.316,25.574,22.824z M24.184,40.637c-0.741-0.001-1.449,0.001-2.135-0.132 c-0.026-0.005-0.054-0.017-0.081-0.022c-0.062-0.033-0.129-0.052-0.202-0.056c-0.454-0.114-0.927-0.278-1.451-0.531 c-2.581-1.246-4.512-3.492-5.165-6.009c-0.706-2.718,0.197-5.729,2.195-7.321c0.685-0.545,1.496-0.938,2.126-1.22 c1.376-0.614,2.938-0.796,4.005-0.84h0c0.08-0.004,0.161-0.006,0.242-0.006c1.001,0,2.063,0.245,3.094,0.482 c0.514,0.118,1.022,0.235,1.521,0.323c0.894,0.158,1.907,0.338,2.622,0.921c0.785,0.642,1.232,1.75,1.407,3.487 c0.256,2.538-0.027,4.746-0.842,6.563c-0.953,2.129-2.679,3.678-4.615,4.145C26.028,40.633,25.09,40.635,24.184,40.637z M23.659,20.271c-0.489-0.017-0.987-0.031-1.479-0.048c-0.069-2.424-0.062-4.883,0.016-7.317c1.297,0.018,2.462,0.079,3.695,0.182 l0.108,7.263C25.217,20.324,24.434,20.298,23.659,20.271z M5.283,19.468c-0.018-0.064,0.024-0.211,0.061-0.34l0.036-0.129 c0.231-0.872,0.07-1.729-0.086-2.559c-0.043-0.229-0.086-0.457-0.12-0.686c-0.078-0.52-0.175-1.785,0.593-2.317 c0.352-0.243,0.845-0.297,1.406-0.338c4.846-0.35,8.8-0.41,13.643-0.199c0.009,0,0.021,0.002,0.025,0c0.123-0.001,0.236,0,0.355,0 c-0.078,2.425-0.085,4.875-0.018,7.29c-2.68-0.09-5.377-0.169-8.009-0.169c-0.978,0-1.946,0.01-2.899,0.033l-0.263,0.007 c-1.442,0.035-2.937,0.075-4.286-0.345C5.338,19.598,5.289,19.487,5.283,19.468z M18.164,43.523 c-2.716,0.312-5.283,0.603-7.951,0.354l-0.345-0.029c-1.161-0.097-2.003-0.215-2.26-0.858c-0.126-0.315-0.136-0.702-0.146-1.076 c-0.15-5.939-0.229-14.091-0.204-20.906c0.926,0.085,1.858,0.076,2.774,0.054l0.262-0.006c3.762-0.094,7.77,0.024,11.708,0.16 c-0.024,0.772-0.019,1.692,0.011,2.428c-0.933,0.127-1.972,0.354-2.95,0.79c-0.684,0.306-1.568,0.735-2.341,1.352 c-2.298,1.831-3.342,5.267-2.54,8.354c0.726,2.797,2.856,5.285,5.698,6.657c0.487,0.235,0.938,0.397,1.378,0.526 c0.012,0.263,0.024,0.586,0.036,0.915c0.013,0.348,0.025,0.689,0.038,0.962c-0.027,0.002-0.054,0.001-0.081,0.004 C20.214,43.289,19.187,43.406,18.164,43.523z M22.359,43.152c-0.011-0.011-0.018-0.026-0.03-0.036 c-0.012-0.262-0.023-0.588-0.035-0.915c-0.008-0.23-0.017-0.457-0.025-0.666c0.581,0.077,1.163,0.102,1.731,0.102 c0.062,0,0.124,0,0.185,0c0.385-0.001,0.777-0.006,1.171-0.021c0.009,0.225,0.016,0.467,0.024,0.719 c0.008,0.28,0.017,0.547,0.027,0.794C24.392,43.095,23.375,43.104,22.359,43.152z M40.259,30.563 c0.057,3.431,0.115,6.865,0.172,9.792c0.021,1.081-0.017,2.287-0.736,2.928c-0.587,0.522-1.515,0.568-2.338,0.571 c-2.255,0.002-4.509-0.189-6.712-0.379c-1.394-0.12-2.811-0.236-4.236-0.309c-0.011-0.261-0.021-0.553-0.03-0.862 c-0.008-0.27-0.017-0.527-0.026-0.767c0.262-0.034,0.524-0.079,0.786-0.142c2.236-0.539,4.215-2.299,5.294-4.709 c0.886-1.979,1.197-4.358,0.924-7.071c-0.128-1.271-0.451-3.084-1.769-4.162c-0.917-0.748-2.117-0.961-3.081-1.131 c-0.481-0.085-0.973-0.199-1.47-0.313c-0.159-0.037-0.32-0.072-0.48-0.108c-0.005-0.277,0.004-0.643,0.016-1.046 c0.015-0.519,0.029-1.043,0.017-1.488c2.533,0.083,5.077,0.154,7.571,0.154c1.264,0,2.514-0.017,3.74-0.057 c0.708-0.023,1.461-0.054,2.198-0.106C40.152,24.145,40.206,27.346,40.259,30.563z M42.859,19.854 c-0.127,0.128-0.379,0.188-0.605,0.233c-1.344,0.275-3.323,0.341-4.386,0.375c-3.493,0.116-7.193,0.039-10.869-0.078l-0.107-7.207 c0.528,0.051,1.072,0.107,1.66,0.171l0.346,0.038c1,0.112,2.036,0.228,3.074,0.164c0.736-0.044,1.46-0.177,2.159-0.306l0.614-0.11 c1.076-0.187,2.667-0.18,4.204-0.174c1.042,0.004,2.023,0.009,2.798-0.048c0.375-0.028,0.897-0.036,1.061,0.205 c0.091,0.135,0.095,0.395,0.098,0.604c0.014,0.927,0.042,1.762,0.07,2.596s0.057,1.668,0.07,2.597 C43.051,19.29,43.041,19.671,42.859,19.854z"/></svg>