<svg xmlns="http://www.w3.org/2000/svg" width="512" height="512" viewBox="0 0 512 512"><path fill="#D4D2B1" d="M504.1,256c0,137-111.1,248.1-248.1,248.1S7.9,393,7.9,256S119,7.9,256,7.9S504.1,119,504.1,256"/><path fill="#231F20" d="M318,302c0.9,2.3,1.2,2.8,2.4,3.4c0.4,0.2,0.6,0.2,0.8,0.3c0.3,0.1,0.5,0.1,1.1,1.3c1,2.1,1.1,2.3,2.5,3c0.2,0.1,0.4,0.2,0.6,0.3c0.8,0.4,1,0.5,1.1,1.1c0.1,2,1.9,4.3,3,4.3c0.3,0,0.7-0.2,0.8-0.7c0.3,0.2,0.6,0.4,1,0.5c1.1,0.5,2.2,1.1,2.7,3c0.1,0.2,0.3,0.9,0.8,0.9c0.2,0,0.4-0.1,0.6-0.4c0.4-0.6,0.6-2.1,0.2-2.9c-1.4-3.4-3.7-5.9-5-6.2c-1.1-0.3-1.7-0.5-1.9-1.3c-0.3-1.2-0.9-2.7-2-3.2c-1.3-0.5-2-1.3-2.2-2.4c-0.1-0.9-1.3-2.1-2.5-3.5c-1.1-1.3-2.4-2.7-2.9-3.7c-2.3-6.6-4.4-14.3-6.4-21.8c-3-11.2-5.8-21.8-9.3-27.5c-0.1-0.2-0.2-0.5-0.3-0.8c-0.1-0.3-0.2-0.6-0.3-0.8c-0.2-0.3-0.4-0.6-0.8-0.8c-0.4-0.3-1.2-0.4-2.2-0.4c-5.2,0-18.9,3.6-25.5,9.4c-0.3,0.3-0.6,0.5-0.7,0.6c-0.1,0-0.2-0.1-0.5-0.2c-0.2-0.1-0.4-0.4-0.4-0.8c0-2.2-0.3-3.4-0.8-4.5c0,0,0,0,0-0.1c0.1,0,0.1,0,0.1,0c2.3,0.2,3.6-0.6,4.3-1.2c0.5-0.5,1-0.8,1.3-1c9.1-4.7,25.4-31.7,27.3-38.7c0.1-0.3,0.4-0.7,0.7-0.8c1.6-0.5,4.1-1.7,6.8-4.2c0.1-0.1,0.2-0.3,0.2-0.5c0-0.1-0.1-0.2-0.2-0.3c0.5-0.4,1.2-0.9,2-1.4c1.2-0.8,2.2-1.6,2.7-2c0.1-0.1,0.2-0.4,0.1-0.5c-0.1-0.3-0.3-0.4-0.6-0.5c1-1,2.1-1.9,2.9-2.6c1.7-1.5,1.9-1.7,1.9-2.1c0,0,0,0,0-0.1c0.5-0.4,0.6-0.5,0.6-0.8c0-0.2,0.5-0.9,1.5-2.1c0.4-0.4,0.7-0.8,1-1.1c0.4-0.4,0.7-0.6,0.5-1c0-0.1-0.1-0.1-0.1-0.2c0-0.1,0-0.2,0.1-0.3c0.9-1.2,3-1.5,4.5-1.7c1.2-0.2,2-0.3,2.1-0.8c0.1-0.5-0.4-0.9-0.9-1.3c-1.1-0.7-2.4-1.1-3.7-1.1c-2.2,0-4,1.1-4.9,3.1c-0.1-0.1-0.3-0.2-0.4-0.2c-0.4,0-0.8,0.4-1.3,1.3c-0.2,0.3-1,2.2-1.4,3.8c-0.1,0.2-0.1,0.2-0.2,0.3c-0.1,0.1-0.2,0.2-0.3,0.4c-0.1,0.1-0.2,0.3-0.3,0.5c-0.4,0.8-1,1.9-1.7,2.7c-0.1-0.4-0.3-0.7-0.7-0.7c-0.1,0-0.3,0.1-0.4,0.2c-0.6,0.6-1.2,1.5-1.9,2.5c-0.5,0.7-0.9,1.4-1.4,2c0-0.1-0.1-0.1-0.1-0.2c-0.2-0.2-0.5-0.2-0.7,0c-0.7,0.6-1.4,1.2-2.2,1.9c-1.1,1-2.3,2.1-3.3,2.8c-0.4,0.3-1.1,0.6-1.5,0.8c-3.3,1.7-4.5,3.9-8.5,11.3c-1.1,2-2.4,4.4-4,7.3c-9.6,17.1-14.3,19.7-16.2,19.7c-0.2,0-0.4,0-0.6-0.1c-0.5-0.2-0.9-0.2-1.4-0.2c-1.6,0-2.6,1-3.4,1.8l-0.3,0.3c0,0-0.1,0-0.1-0.2c-1.9-5.9-7.2-11.2-10.4-13.8c6.3-0.8,9.1-3.6,12.5-7.7c5.7-6.8,0.5-20.9-2.1-26.6l-0.1-0.2c0,0,0-0.2,0.3-0.8c0.2-0.5,0.4-0.9,0.4-1.4v-1c0-0.4,0.2-1.1,0.3-1.5c0.8-1.7,1.5-3.4,2.2-5.1c3-6.9,5.8-13.5,9.9-17.9c0.2-0.2,0.4-0.6,0.7-1.2c0.2-0.5,0.5-1.3,0.6-1.8c1.2-4.9,4.6-21.6,0.6-30.2c-1-2.2-2.4-2.6-3.1-2.6c-0.8,0-1.6,0.4-2.2,1.2c-0.8,1-1.1,2.3-0.9,3.6c2.7,13.2,3.7,22.3,2.8,26.8c-0.1,0.4-0.4,1.1-0.6,1.5c-0.5,0.8-1.2,1.9-1.7,2.7c-3.9,5.1-6.6,12.2-10.1,21.2c-0.1,0.3-0.5,0.5-0.8,0.5c-0.3,0-0.6,0.1-0.8,0.1c-0.3,0.1-0.6,0-0.8-0.2c-1-1.5-1.9-2.6-3-3.6c-0.3-0.2-0.5-0.7-0.5-1.1c0.1-1,0-1.8-0.1-2.3c-0.1-0.2-0.3-0.9-2.5-2.4c-0.4-0.3-0.8-0.3-1,0c-0.1,0.2-0.2,0.5-0.1,0.8c0.1,0.5,0.1,1.2-0.2,2.1c-0.1,0.2-0.5,0.4-0.8,0.3c-0.7-0.1-1.4-0.2-2-0.1c-0.2,0-0.5,0-0.6,0c-0.7-0.1-1.4,0-2.1,0.1c-0.3,0-0.7-0.1-0.8-0.3c-0.3-0.8-0.3-1.6-0.2-2.1c0.1-0.4,0-0.6-0.1-0.8c-0.2-0.3-0.6-0.3-1,0c-2.2,1.5-2.4,2.2-2.5,2.4c-0.1,0.5-0.2,1.3-0.1,2.3c0,0.4-0.2,0.9-0.5,1.1c-1.1,0.9-2.1,2.1-3,3.6c-0.1,0.2-0.4,0.3-0.8,0.2c-0.2-0.1-0.5-0.1-0.8-0.1c-0.3,0-0.7-0.3-0.8-0.5c-3.5-9-6.3-16.1-10.1-21.2c-0.6-0.8-1.3-1.9-1.7-2.7c-0.2-0.4-0.5-1-0.6-1.5c-0.9-4.6,0.1-13.6,2.8-26.8c0.3-1.2-0.1-2.6-0.9-3.6c-0.6-0.7-1.4-1.2-2.2-1.2c-0.7,0-2,0.3-3,2.6c-4,8.6-0.6,25.3,0.6,30.2c0.1,0.5,0.4,1.3,0.6,1.8c0.3,0.6,0.5,0.9,0.7,1.2c4.2,4.5,7,11,9.9,17.9c0.7,1.7,1.5,3.4,2.2,5.1c0.2,0.4,0.3,1.1,0.3,1.5v1c0,0.5,0.1,0.9,0.4,1.4c0.3,0.5,0.3,0.7,0.3,0.7l-0.2,0.4c-2.5,5.7-7.7,19.7-2,26.6c3.5,4.2,6.2,7,12.5,7.7c-3.1,2.6-8.5,7.8-10.4,13.8c0,0.1-0.1,0.1-0.2,0.1l-0.3-0.2c-0.8-0.8-1.8-1.8-3.4-1.8c-0.4,0-0.9,0.1-1.4,0.2c-0.2,0.1-0.4,0.1-0.6,0.1c-1.9,0-6.6-2.6-16.2-19.7c-1.6-2.9-2.9-5.3-4-7.3c-4-7.4-5.2-9.6-8.5-11.3c-0.4-0.2-1.1-0.6-1.5-0.8c-1-0.7-2.2-1.8-3.3-2.8c-0.8-0.7-1.5-1.4-2.2-1.9c-0.2-0.2-0.6-0.1-0.7,0c-0.1,0.1-0.1,0.1-0.1,0.2c-0.5-0.6-0.9-1.3-1.4-2c-0.6-1-1.3-1.9-1.9-2.5c-0.1-0.1-0.3-0.1-0.4-0.1c-0.4,0-0.6,0.4-0.7,0.7c-0.7-0.9-1.3-2-1.7-2.7c-0.1-0.2-0.2-0.4-0.3-0.5c-0.1-0.2-0.2-0.3-0.3-0.4c-0.1-0.1-0.1-0.2-0.2-0.3c-0.4-1.6-1.2-3.5-1.4-3.8c-0.4-0.9-0.8-1.3-1.3-1.3c-0.2,0-0.3,0.1-0.4,0.2c-0.9-2-2.7-3.1-4.9-3.1c-1.3,0-2.6,0.4-3.7,1.2c-0.6,0.4-1,0.8-0.9,1.3c0.1,0.6,0.9,0.7,2.1,0.9c1.5,0.2,3.6,0.5,4.5,1.7c0.1,0.1,0.1,0.2,0.1,0.3c-0.1,0.1-0.1,0.1-0.1,0.2c-0.1,0.3,0.1,0.6,0.6,1c0.3,0.3,0.6,0.7,1,1.1c0.9,1.1,1.4,1.8,1.5,2.1c0,0.3,0.1,0.4,0.6,0.8c0,0,0,0,0,0.1c-0.1,0.4,0.2,0.6,1.9,2.1c0.9,0.8,2,1.7,2.9,2.6c-0.3,0.1-0.5,0.2-0.6,0.5c0,0.2,0,0.4,0.1,0.5c0.5,0.5,1.6,1.2,2.7,2c0.7,0.5,1.5,1,2,1.4c-0.1,0.1-0.1,0.2-0.1,0.3c0,0.1,0.1,0.4,0.2,0.5c2.8,2.6,5.2,3.7,6.8,4.3c0.3,0.1,0.6,0.5,0.7,0.8c1.9,7,18.2,34,27.3,38.7c0.3,0.1,0.8,0.5,1.3,1c0.7,0.6,2,1.4,4.3,1.2l0.1-0.4l0,0.4c0,0,0,0,0,0.1c-0.5,1.1-0.8,2.2-0.8,4.5c0,0.3-0.2,0.7-0.4,0.8c-0.3,0.2-0.5,0.2-0.6,0.2c-0.1-0.1-0.4-0.3-0.7-0.6c-6.6-5.8-20.2-9.4-25.5-9.4c-1.1,0-1.8,0.1-2.2,0.4c-0.4,0.2-0.6,0.5-0.8,0.8c-0.1,0.2-0.2,0.5-0.3,0.8c-0.1,0.3-0.2,0.6-0.3,0.8c-3.5,5.7-6.3,16.3-9.3,27.5c-2,7.5-4,15.2-6.4,21.8c-0.5,1.1-1.8,2.5-2.9,3.8c-1.3,1.4-2.4,2.6-2.5,3.5c-0.2,1.1-0.9,1.9-2.2,2.4c-1.2,0.5-1.7,2-2,3.2c-0.2,0.7-0.8,1-1.9,1.3c-1.3,0.4-3.5,2.9-5,6.2c-0.4,0.9-0.2,2.3,0.2,2.9c0.2,0.3,0.4,0.4,0.6,0.4c0.5,0,0.8-0.7,0.8-0.9c0.6-1.9,1.7-2.4,2.7-3c0.3-0.2,0.7-0.3,1-0.6c0.1,0.5,0.5,0.7,0.8,0.7c1.2,0,3-2.3,3-4.3c0-0.6,0.2-0.7,1.1-1.1c0.2-0.1,0.4-0.2,0.6-0.3c1.4-0.7,1.5-0.9,2.5-3c0.6-1.2,0.8-1.3,1.1-1.3c0.2,0,0.5-0.1,0.8-0.3c1.2-0.6,1.4-1.2,2.4-3.4c0.5-1.3,0.3-2,0.2-2.4c-0.1-0.4-0.1-0.4,0.3-0.7c0.3-0.2,0.5-0.2,0.7-0.2c1.2-0.1,1.6-0.5,2.6-5.5c1.1-5.4,4-13.2,6.9-20.7c3.3-8.7,6.7-17.8,7.3-23.3c0-0.2,0.1-0.2,0.1-0.2c0,0,0.1,0,0.1,0c0.1,0,0.3,0.1,0.4,0.1c0.6,0.2,1.4,0.3,1.8,0.4c3.8,0.4,5,1.3,6.7,2.5c1.9,1.3,4.2,3,10.8,4.8c1.7,0.3,3.1,1.1,4.3,1.9c0.3,0.2,0.7,0.7,1,1l0.1,0.2c0.4,0.5,1.2,1.1,2.6,1.2c0.3,0,0.6,0.3,0.7,0.5c0.2,0.9,0.4,1.7,0.6,2.3c0.1,0.3-0.1,0.7-0.3,0.9c-0.9,0.7-1.7,1.4-2.2,2.1c-0.1,0.2-0.2,0.4-0.3,0.5c0,0.1-0.1,0.1-0.1,0.2c0,0-0.1,0-0.1,0c-12.4,4.8-23.5,15.7-23.6,20.9c0,0.4,0,0.8,0,1c0,0.2,0.1,0.4,0.1,0.7c0.1,0.3,0.2,0.7,0.2,0.9c-0.1,4,0.3,8.9,0.8,14.5c0.8,9.3,1.9,21,1,34.7c0,0.4-0.3,0.9-0.6,1.2c-1.9,1.8-3.5,4.6-3.5,6.2c0,1.2-0.7,2.2-2,3c-1.2,0.7-1.5,2.4-1.7,3.8c-0.1,0.9-0.8,1.2-1.9,1.7c-1.3,0.6-3.4,3.7-4.4,7.5c-0.3,0.9,0.1,2.4,0.6,3c0.2,0.2,0.4,0.4,0.6,0.4c0.4,0,0.7-0.4,0.8-1c0.3-2.2,1.5-3,2.5-3.7c0.4-0.3,0.7-0.5,1-0.8c0.2,0.6,0.7,0.7,0.9,0.7c0.4,0,0.8-0.2,1.2-0.7c0.9-1,1.7-2.8,1.5-4.4c-0.1-0.7,0.1-0.8,1-1.4c0.2-0.1,0.4-0.2,0.6-0.4c1.4-0.9,1.5-1.3,2.2-3.6c0.5-1.5,0.7-1.5,1-1.7c0.2-0.1,0.5-0.2,0.9-0.4c1.2-0.9,1.4-1.5,2-4.1c0.2-1,0.3-1.6,0.3-2.1c0-0.9,0-1.1,1.1-1.7c0.4-0.2,0.7-0.3,0.9-0.3c0.1,0,0.4-0.1,0.5-0.3c0.1-0.2,0.1-0.4,0-0.8c-0.2-0.5-0.6-1.7-1-4.5c-0.8-5.1-0.6-12.4-0.4-20.2c0.3-10.3,0.6-21.1-1.7-26.4c-0.1-0.3-0.1-0.8,0.1-1c2.6-3.2,5.9-4.8,9.4-6.5c3.8-1.9,8.1-4,12.2-8.4c0.2-0.3,0.4-0.5,0.6-0.7c0.2-0.3,0.7-0.6,1-0.7c0.2,0,0.4-0.1,0.7-0.1c0.1,0,0.1,0,0.2,0c0.1,0,0.3,0,0.4,0.2c1.2,3.5,2.2,5.9,3,7c0.2,0.3,0.4,0.7,0.2,1c-0.3,0.8-0.8,2.2-1.3,4.2c-0.4,1.5-0.3,2.9,0.3,4.4c0.1,0.2,0,0.5-0.2,0.6c-11.3,5.6-17.4,14.8-18.4,27.5c-1,12.6,3.6,25,6.4,31.3c0.5,1,0.9,2.1,1.3,3.1c1.3,3.1,2.6,6.4,4.5,8.3c0.2,0.2,0.6,0.8,1,1.4c0.2,0.3,0.4,0.7,0.6,1.2c0.4,1,1,2.3,2.2,4.1c0.2,0.3,0.7,0.9,1.2,1.5c0.4,0.5,0.9,1,1,1.3c0.5,0.8,0.7,1.3,0.9,1.9c0.2,0.5,0.4,1,0.8,1.6c0.3,0.4,0.8,0.9,1.3,1.3c0.3,0.3,0.7,0.6,0.8,0.8c1.6,2.1,2.4,3.1,3.3,4.3c0.3,0.3,0.6,0.7,0.9,1.1c0.3,0.4,0.8,0.6,1.4,0.8c0.3,0,0.6,0.1,1,0.1c0.4,0,0.7,0,1-0.1c0.6-0.1,1.1-0.4,1.4-0.8c0.3-0.4,0.6-0.8,0.9-1.1c0.9-1.1,1.8-2.1,3.3-4.3c0.1-0.2,0.5-0.5,0.8-0.8c0.5-0.4,1-0.9,1.3-1.3c0.4-0.6,0.6-1.1,0.8-1.6c0.2-0.5,0.5-1.1,0.9-1.9c0.1-0.2,0.6-0.7,1-1.3c0.5-0.6,1-1.2,1.2-1.5c1.1-1.8,1.7-3.2,2.2-4.1c0.2-0.5,0.4-0.8,0.6-1.1c0.4-0.7,0.8-1.2,1-1.4c1.9-1.9,3.2-5.2,4.5-8.3c0.4-1.1,0.8-2.1,1.3-3.2c2.8-6.3,7.3-18.7,6.4-31.3c-1-12.7-7.2-21.9-18.4-27.5c-0.2-0.1-0.3-0.4-0.2-0.6c0.6-1.5,0.7-2.9,0.3-4.4c-0.5-2-1-3.4-1.3-4.2c-0.1-0.3,0-0.7,0.2-1c0.8-1.1,1.8-3.5,3-7c0.1-0.2,0.3-0.2,0.4-0.2c0,0,0.1,0,0.2,0c0.2,0.1,0.4,0.1,0.7,0.2c0.3,0.1,0.8,0.4,1,0.7c0.2,0.2,0.3,0.5,0.6,0.7c4.1,4.4,8.4,6.5,12.2,8.4c3.5,1.7,6.8,3.3,9.4,6.5c0.2,0.2,0.2,0.7,0.1,1c-2.3,5.3-2,16-1.7,26.4c0.2,7.8,0.4,15.1-0.4,20.2c-0.4,2.8-0.9,4-1,4.5c-0.1,0.3-0.2,0.5,0,0.8c0.1,0.2,0.3,0.2,0.5,0.3c0.2,0,0.4,0.1,0.9,0.3c1.1,0.6,1.1,0.8,1.1,1.7c0,0.5,0,1.2,0.3,2.2c0.7,2.6,0.9,3.2,2,4.1c0.4,0.3,0.6,0.4,0.8,0.4c0.4,0.1,0.5,0.2,1,1.7c0.8,2.4,0.9,2.7,2.2,3.6c0.2,0.2,0.4,0.3,0.6,0.4c0.9,0.6,1.1,0.7,1,1.4c-0.2,1.6,0.6,3.4,1.5,4.4c0.4,0.5,0.8,0.7,1.2,0.7c0.2,0,0.6-0.1,0.8-0.7c0.3,0.3,0.7,0.5,1,0.8c1,0.7,2.2,1.5,2.5,3.7c0.1,0.7,0.4,1,0.8,1c0.2,0,0.5-0.1,0.6-0.4c0.5-0.6,0.8-2.1,0.6-3c-1.1-3.9-3.1-6.9-4.4-7.5c-1.1-0.5-1.8-0.9-1.9-1.7c-0.2-1.4-0.5-3-1.7-3.8c-1.3-0.8-2-1.8-2-3c0-1.6-1.6-4.4-3.5-6.2c-0.3-0.3-0.6-0.8-0.6-1.2c-0.8-13.7,0.2-25.3,1-34.7c0.5-5.6,0.9-10.5,0.8-14.5c0-0.2,0.1-0.6,0.2-0.9c0.1-0.2,0.1-0.5,0.1-0.7c0-0.3,0.1-0.6,0.1-1c0-5.2-11.2-16-23.6-20.9c0,0,0,0-0.1,0c0,0-0.1-0.1-0.1-0.2c-0.1-0.1-0.2-0.3-0.4-0.5c-0.5-0.7-1.3-1.4-2.2-2.1c-0.3-0.2-0.4-0.6-0.3-0.9c0.2-0.6,0.4-1.4,0.6-2.3c0.1-0.3,0.4-0.5,0.7-0.5c1.4-0.1,2.2-0.7,2.6-1.2l0.1-0.2c0.3-0.3,0.7-0.8,1-1c1.2-0.8,2.6-1.6,4.3-1.9c6.6-1.8,8.9-3.5,10.8-4.8c1.7-1.2,2.9-2,6.7-2.5c0.4,0,1.3-0.2,1.8-0.4c0.1,0,0.3-0.1,0.4-0.1c0.1,0,0.1,0,0.1,0s0.1,0,0.1,0.2c0.6,5.6,4,14.6,7.3,23.3c2.9,7.5,5.8,15.3,6.9,20.7c1,4.9,1.5,5.4,2.6,5.5c0.2,0,0.4,0,0.7,0.2c0.4,0.3,0.4,0.3,0.3,0.7C317.6,300,317.5,300.7,318,302"/></svg>