<svg xmlns="http://www.w3.org/2000/svg" viewBox="0 0 24 24"><path d="M 11 2.0195312 L 11 4 C 11 4.27 10.999766 4.5405469 11.009766 4.8105469 C 11.969766 5.3705469 12.770781 6.1894531 13.300781 7.1894531 C 14.900781 7.6194531 16.169219 8.7492969 16.699219 10.279297 C 17.259219 11.869297 17.030078 13.540859 16.080078 14.880859 C 15.340078 15.930859 14.23 16.640625 13 16.890625 L 13 22 L 20 22 L 20 16 L 23 15 L 19.710938 10.240234 C 19.010938 5.8802344 15.529063 2.3095313 11.039062 2.0195312 L 11 2.0195312 z M 8 6 C 6.49 6 5.1292187 6.8501562 4.4492188 8.1601562 C 3.0192187 8.6101562 2 9.96 2 11.5 C 2 13.26 3.31 14.720937 5 14.960938 L 5 14 L 7 14 L 7 11 L 8.5703125 11 L 10.970703 15 L 12 15 C 13.65 15 15 13.65 15 12 C 15 10.35 13.65 9 12 9 L 11.869141 9 C 11.429141 7.28 9.86 6 8 6 z M 8 12 L 8 15 L 6 15 L 9 20 L 9 17 L 11 17 L 8 12 z"/></svg>