<svg xmlns="http://www.w3.org/2000/svg" width="512" height="512" viewBox="0 0 512 512"><path fill="#EF4754" d="M223.2,458.5c-0.4-0.8-1-1.4-1.7-1.9c-0.1,0.1-0.2,0.2-0.4,0.4c-2.3,2.2-9.3,6.2-9.7,9.5c-0.1,1-0.8,1.1,1.2,0.9c2.2-0.2,4.6-1,6.5-2.2C221.5,463.8,224.6,461.5,223.2,458.5z"/><path fill="#EF4754" d="M432.4 253.8c-1-27.3-3.8-56.2-14.6-81.6-10-23.7-29.7-42.2-56.6-43-27.6-.8-52.2 12.7-78.8 18-20.4 4.1-46.5 3.7-58.9-16.2-10.6-17.1-7.5-36.2-.3-53.8-.4 0-.7.1-1.1.1-9.2.9-21.8.8-30-4.7-2.5 31.7-10.5 76.6 26.3 90.8 10 3.9 20.8 5 30.9 8.7 10.1 3.7 18.5 10.1 24.4 19.2 12.2 18.9 14.1 42.2 12.9 64.1-.7 13.7-2.8 27.2-4.7 40.7-1.5 10.5-3.6 21.6-9.9 30.3-7.6 10.5-20 13.9-32.5 12.6-13.1-1.4-26.7-8-39.8-3.7-11.9 3.9-22.7 12.4-29 23.3-6.7 11.3-12.1 25.2-11.7 38.6.4 14.7 8.1 26.1 17.3 37.1 8 9.5 16.9 18.2 25.9 26.7 1.7-3.2 4.6-5.9 7.7-8.6-.7-1-1.1-2.1-1.2-3.3-5.6-6.8-10.1-14.5-12.2-23.2-3.7-15.9-4.2-37.3 7.6-50.2 13.1-14.2 32.5-9.7 44.5 3.3 6.7 7.3 12.1 15.5 17.1 24 4.4 7.4 8.4 15.2 13.8 21.9 15.6 19.2 44 25.1 67.6 24.1 22.6-1 44.7-10.2 59-28.3 16.7-21.1 20-49.7 22.3-75.7C431 314.7 433.5 284.3 432.4 253.8zM415.8 243.8c2.7-.9 6.2.5 7 3.4 1.4 5.1 1.6 10.2 1.6 15.4 0 3-1.9 5.7-5.1 5.9-2.8.2-5.9-2.1-5.9-5.1 0-4.2 0-8.5-1-12.6C411.7 247.9 412.8 244.8 415.8 243.8zM411.5 288.7v-5.3c0-3 1.9-5.7 5.1-5.9 2.8-.2 5.9 2.1 5.9 5.1v5.3c0 3-1.9 5.7-5.1 5.9C414.6 294 411.5 291.7 411.5 288.7zM412.4 301.3c-.6 3.9-1.2 7.9-1.2 11.9 0 3-1.9 5.7-5.1 5.9-2.8.2-5.9-2.1-5.9-5.1 0-5 .6-9.9 1.4-14.8C402.7 292.2 413.5 294.4 412.4 301.3zM403.8 170.4c2.9-1 5.9.6 7 3.4 1.3 3.4 2.2 7 2.3 10.7 0 3-1.9 5.7-5.1 5.9-2.8.2-5.9-2.1-5.9-5.1 0-3.1-.5-4.9-1.7-7.9C399.4 174.6 401.1 171.4 403.8 170.4zM401.8 201.9c.6 2.9 1.3 5.7 1.3 8.7 0 3-1.9 5.7-5.1 5.9-2.8.2-5.9-2.1-5.9-5.1 0-2.9-.8-5.8-1.3-8.7-.6-2.9 2.3-5.7 5.1-5.9C399.1 196.6 401.2 198.9 401.8 201.9zM370 136.2c8.7 1.7 14.3 7.8 21.2 12.6 2.5 1.7 2.3 5.7.5 7.8-2.2 2.4-5.3 2.2-7.8.5-5.2-3.6-9.6-8.8-16.1-10.1C361 145.6 363.1 134.9 370 136.2zM319.5 309.4c-.1.2-.2.4-.2.6 0 0 0-.1 0-.1-.3 1-.7 1.8-1.5 2.7-2 2.2-5.5 2.5-7.8.5-2.1-1.8-2.4-5-.9-7.2.1-.2.2-.4.2-.6 0 0 0 .1 0 .1.3-1 .7-1.8 1.5-2.7 2-2.2 5.5-2.5 7.8-.5C320.7 304 321 307.2 319.5 309.4zM311.2 257.5c2.8-.2 5.9 2.1 5.9 5.1 0 3.3.6 6.7.7 10 0 3-1.9 5.7-5.1 5.9-2.8.2-5.9-2.1-5.9-5.1 0-3.3-.6-6.7-.7-10C306.1 260.4 308.1 257.7 311.2 257.5zM302.5 221.2c.1 4.5 1.9 8.8 2 13.3.2 7.1-10.8 7.9-11 .8-.1-4.5-1.9-8.8-2-13.3C291.3 215 302.3 214.1 302.5 221.2zM304.5 267.9v8c0 3-1.9 5.7-5.1 5.9-2.8.2-5.9-2.1-5.9-5.1v-8c0-3 1.9-5.7 5.1-5.9C301.4 262.6 304.5 264.9 304.5 267.9zM301.2 314.7c-.4 1.2-.5 3.1-.8 4.6-.4 1.9-1 3.7-1.9 5.4-1.4 2.6-4.6 3.9-7.4 2.5-2.6-1.3-3.9-4.7-2.5-7.4.8-1.5 1-2.8 1.3-4.6.3-1.9.8-3.6 1.4-5.4 1-2.8 4.9-3.7 7.4-2.5C301.7 308.8 302.2 311.9 301.2 314.7zM317.2 437.9c-5.2-2.5-10.2-4-14.1-8.5-2-2.3-.8-6.1 1.5-7.6 2.7-1.8 5.7-.8 7.6 1.5.7.8 2.7 1.7 4 2.3 1.9.8 3.9 1.6 5.8 2.5C328.5 431.1 323.6 441 317.2 437.9zM340.8 422.1c-6.8 2-10.4-8.4-3.6-10.4 4.4-1.3 8.5-3.3 12.7-5.3 2.7-1.3 6.1.8 7 3.4 1.1 3.1-.7 5.7-3.4 7C349.3 418.9 345.2 420.8 340.8 422.1zM371.4 435.5c-4.6 3.7-10.2 5.8-15.9 7.3-2.9.7-6-.4-7-3.4-.9-2.6.5-6.3 3.4-7 4.9-1.3 9.5-2.9 13.4-6 2.3-1.9 6.1-.9 7.6 1.5C374.6 430.5 373.7 433.6 371.4 435.5zM376 388.4c-2.3-2.1-2.4-5.4-.5-7.8 2.3-2.9 4-6 5.2-9.5 1-2.8 4.9-3.7 7.4-2.5 2.9 1.5 3.5 4.5 2.5 7.4-1.5 4.4-3.9 8.2-6.8 11.9C381.9 390.3 378.2 390.3 376 388.4zM401.2 401.4c-1.7 3.9-4.9 6.6-7.5 9.9-1.8 2.4-5.6 2.4-7.8.5-2.4-2.1-2.3-5.4-.5-7.8 1.1-1.4 2.3-2.6 3.4-3.9.5-.6 1-1.2 1.5-1.8.1-.1.5-.8.5-.8.2-.3.3-.6.4-.9 1.2-2.8 4.8-3.8 7.4-2.5C401.5 395.4 402.4 398.7 401.2 401.4zM411.9 376.1c-3.1 6.4-13 1.5-9.9-4.9 2.3-4.7 4.6-9.8 4.8-15.1.1-3 1.8-5.7 5.1-5.9 2.7-.2 6 2.1 5.9 5.1C417.6 362.6 415.2 369.5 411.9 376.1zM426.5 319.2c0 3-1.9 5.7-5.1 5.9-2.8.2-5.9-2.1-5.9-5.1v-12c0-3 1.9-5.7 5.1-5.9 2.8-.2 5.9 2.1 5.9 5.1V319.2zM228.4 64.4c-4.2-5.2-12.6-7-19.4-7.7-3.7-.4-8-.6-11.6.9-2.2 1-2.5 2.1-2.1 4.3.8.2 1.6.6 2.3 1.2.2.2 1.8 1.2 2.8 1.5 1.8.5 3.6 1 5.4 1.3 3.9.6 7.9.9 11.9.7 3.6-.2 7.5-.4 10.8-2 0 0 0 0 0 0C228.5 64.6 228.5 64.5 228.4 64.4z"/><path d="M437.5,200.9c-4.6-22.7-12-45.2-28.5-62.1c-20.5-21-50.5-23.5-77.7-17.2c-23.7,5.5-45.8,17.1-70.6,16.9c-10.5-0.1-20.6-3.9-27.1-12.3c-8.3-10.6-6.7-25-3.1-37c2.6-8.9,7.1-17.3,11.5-25.4c2.5-4.6-2.2-8.4-6.2-7.7c-12.9-12.9-54.1-17.5-51.4,6.2c-1.5,0.6-2.6,1.8-2.7,4c-1.4,21.4-5.4,43.2-1.4,64.5c4.5,23.5,20.4,39.5,43.3,45.9c12.3,3.4,25.6,4.7,35.3,13.9c9.1,8.6,13.3,21.5,15.5,33.4c2.8,15.2,1.9,31.3,0.1,46.6c-1.4,11.6-2.7,23.6-5.2,35c-1.9,8.4-5.7,17.5-14.1,21.1c-11.4,4.8-24.9-0.6-36.3-2.7c-22.6-4.2-44,8.7-56.3,27.3c-12.2,18.5-19.1,44.1-10.8,65.5c4.4,11.2,13.1,21.1,20.9,30.1c8.3,9.5,17.6,18.1,26.8,26.7c1.2,1.2,2.6,1.6,3.9,1.5c1.9,1.8,4.5,2.9,6.9,3.3c4.5,0.8,8.9-0.8,12.9-2.7c7.3-3.4,13.4-10.8,11-19.3c-2-7.1-8.3-10.6-15-11.8c-6-6.7-10.3-14.1-12.4-23.1c-1.9-8.2-1.9-17.1-0.2-25.3c1.4-6.9,4.9-14.2,11.7-17.1c7.5-3.2,14.5,0.4,20.1,5.4c13.8,12.4,20.3,30.9,31.1,45.5c14.4,19.6,40.2,28.3,63.6,30c23.4,1.7,47-3.1,66.2-17.2c20.1-14.7,30.1-36.8,35.2-60.5c3.1-14.4,4.4-29.1,5.5-43.7c1.1-14.6,2.5-29.2,3.1-43.8C444.4,263.3,443.7,231.7,437.5,200.9z M211.4,466.5c0.3-3.4,7.4-7.4,9.7-9.5c0.1-0.1,0.2-0.2,0.4-0.4c0.7,0.5,1.4,1.1,1.7,1.9c1.4,3-1.7,5.3-4,6.8c-1.9,1.2-4.3,2-6.5,2.2C210.6,467.6,211.4,467.4,211.4,466.5z M197.4,57.7c3.5-1.5,7.8-1.3,11.6-0.9c6.9,0.7,15.2,2.5,19.4,7.7c0.1,0.1,0.1,0.2,0.2,0.2c0,0,0,0,0,0c-3.3,1.6-7.2,1.8-10.8,2c-4,0.2-8-0.1-11.9-0.7c-1.8-0.3-3.6-0.7-5.4-1.3c-1-0.3-2.6-1.3-2.8-1.5c-0.7-0.6-1.5-1-2.3-1.2C195,59.7,195.2,58.6,197.4,57.7z M428.4,345.1c-2.3,26-5.5,54.6-22.3,75.7c-14.3,18.1-36.4,27.2-59,28.3c-23.5,1.1-51.9-4.8-67.6-24.1c-5.4-6.7-9.4-14.6-13.8-21.9c-5.1-8.5-10.4-16.7-17.1-24c-12-13-31.4-17.6-44.5-3.3c-11.8,12.9-11.4,34.3-7.6,50.2c2.1,8.7,6.6,16.4,12.2,23.2c0.1,1.1,0.5,2.3,1.2,3.3c-3,2.7-5.9,5.4-7.7,8.6c-9-8.5-17.9-17.2-25.9-26.7c-9.2-11-16.9-22.4-17.3-37.1c-0.3-13.3,5.1-27.2,11.7-38.6c6.4-10.8,17.1-19.4,29-23.3c13.1-4.2,26.7,2.3,39.8,3.7c12.5,1.4,24.9-2.1,32.5-12.6c6.3-8.8,8.5-19.8,9.9-30.3c1.9-13.5,3.9-27.1,4.7-40.7c1.2-21.9-0.8-45.2-12.9-64.1c-5.9-9.1-14.3-15.5-24.4-19.2c-10.1-3.7-20.9-4.8-30.9-8.7c-36.8-14.2-28.8-59.1-26.3-90.8c8.2,5.5,20.8,5.6,30,4.7c0.4,0,0.7-0.1,1.1-0.1c-7.1,17.6-10.3,36.7,0.3,53.8c12.4,19.9,38.5,20.3,58.9,16.2c26.5-5.3,51.2-18.9,78.8-18c26.9,0.8,46.6,19.4,56.6,43c10.7,25.4,13.6,54.3,14.6,81.6C433.5,284.3,431,314.7,428.4,345.1z"/><path d="M422.8 247.1c-.8-2.9-4.3-4.3-7-3.4-3 1.1-4.1 4.1-3.4 7 1.1 4.1 1 8.4 1 12.6 0 3 3.1 5.3 5.9 5.1 3.2-.2 5.1-2.9 5.1-5.9C424.5 257.3 424.2 252.2 422.8 247.1zM420.5 302.1c-3.2.2-5.1 2.9-5.1 5.9v12c0 3 3.1 5.3 5.9 5.1 3.2-.2 5.1-2.9 5.1-5.9v-12C426.5 304.2 423.4 301.9 420.5 302.1zM401.6 299.2c-.8 4.9-1.4 9.8-1.4 14.8 0 3 3.1 5.3 5.9 5.1 3.2-.2 5-2.9 5.1-5.9 0-4 .6-7.9 1.2-11.9C413.5 294.4 402.7 292.2 401.6 299.2zM416.5 277.5c-3.2.2-5.1 2.9-5.1 5.9v5.3c0 3 3.1 5.3 5.9 5.1 3.2-.2 5.1-2.9 5.1-5.9v-5.3C422.5 279.5 419.4 277.3 416.5 277.5zM411.9 350.1c-3.2.2-5 2.9-5.1 5.9-.2 5.3-2.5 10.4-4.8 15.1-3.1 6.4 6.7 11.3 9.9 4.9 3.3-6.6 5.7-13.4 5.9-20.9C417.9 352.2 414.6 349.9 411.9 350.1zM322.1 428c-1.9-.9-3.9-1.7-5.8-2.5-1.4-.6-3.4-1.5-4-2.3-2-2.3-4.9-3.3-7.6-1.5-2.3 1.5-3.4 5.4-1.5 7.6 3.9 4.5 9 6 14.1 8.5C323.6 441 328.5 431.1 322.1 428zM372.9 427.9c-1.6-2.3-5.3-3.4-7.6-1.5-4 3.2-8.5 4.8-13.4 6-2.9.7-4.3 4.4-3.4 7 1.1 3 4.1 4.1 7 3.4 5.7-1.5 11.3-3.6 15.9-7.3C373.7 433.6 374.6 430.5 372.9 427.9zM398.8 394c-2.6-1.3-6.2-.3-7.4 2.5-.1.3-.3.6-.4.9 0 .1-.5.7-.5.8-.5.6-1 1.2-1.5 1.8-1.1 1.3-2.3 2.5-3.4 3.9-1.8 2.4-1.9 5.7.5 7.8 2.1 1.9 5.9 1.9 7.8-.5 2.5-3.3 5.8-6 7.5-9.9C402.4 398.7 401.5 395.4 398.8 394zM356.8 409.8c-.9-2.6-4.3-4.7-7-3.4-4.1 2.1-8.2 4-12.7 5.3-6.8 2-3.2 12.4 3.6 10.4 4.4-1.3 8.6-3.3 12.7-5.3C356.1 415.5 357.9 412.9 356.8 409.8zM388.1 368.7c-2.4-1.2-6.4-.4-7.4 2.5-1.2 3.5-2.9 6.6-5.2 9.5-1.9 2.4-1.8 5.7.5 7.8 2.2 1.9 5.9 1.9 7.8-.5 2.8-3.6 5.3-7.5 6.8-11.9C391.5 373.2 391 370.2 388.1 368.7zM391.3 148.8c-7-4.8-12.6-10.9-21.2-12.6-7-1.4-9.1 9.4-2.1 10.8 6.5 1.3 10.8 6.5 16.1 10.1 2.5 1.7 5.6 1.9 7.8-.5C393.6 154.5 393.7 150.5 391.3 148.8zM410.8 173.8c-1.1-2.8-4.1-4.4-7-3.4-2.7 1-4.5 4.2-3.4 7 1.2 3 1.7 4.8 1.7 7.9 0 3 3.1 5.3 5.9 5.1 3.1-.2 5.1-2.9 5.1-5.9C413.1 180.8 412.2 177.2 410.8 173.8zM401.8 201.9c-.6-2.9-2.6-5.3-5.9-5.1-2.7.2-5.7 3-5.1 5.9.6 2.9 1.3 5.7 1.3 8.7 0 3 3.1 5.3 5.9 5.1 3.1-.2 5.1-2.9 5.1-5.9C403.1 207.6 402.4 204.7 401.8 201.9zM302.5 221.2c-.2-7.1-11.2-6.2-11 .8.1 4.5 1.9 8.8 2 13.3.2 7.1 11.2 6.2 11-.8C304.3 230 302.6 225.7 302.5 221.2zM298.5 262.8c-3.2.2-5.1 2.9-5.1 5.9v8c0 3 3.1 5.3 5.9 5.1 3.2-.2 5.1-2.9 5.1-5.9v-8C304.5 264.9 301.4 262.6 298.5 262.8zM298.8 307.4c-2.5-1.2-6.4-.3-7.4 2.5-.6 1.8-1.1 3.5-1.4 5.4-.3 1.8-.4 3.1-1.3 4.6-1.4 2.6-.1 6.1 2.5 7.4 2.8 1.4 5.9.1 7.4-2.5.9-1.7 1.5-3.5 1.9-5.4.3-1.5.3-3.4.8-4.6C302.2 311.9 301.7 308.8 298.8 307.4zM317.1 262.5c0-3-3.1-5.3-5.9-5.1-3.1.2-5.1 2.9-5.1 5.9 0 3.3.6 6.7.7 10 0 3 3.1 5.3 5.9 5.1 3.1-.2 5.1-2.9 5.1-5.9C317.7 269.2 317.2 265.9 317.1 262.5zM318.6 302.2c-2.3-2-5.7-1.7-7.8.5-.8.9-1.2 1.7-1.5 2.7 0 0 0-.1 0-.1-.1.2-.1.4-.2.6-1.5 2.2-1.2 5.4.9 7.2 2.3 2 5.7 1.7 7.8-.5.8-.9 1.2-1.7 1.5-2.7 0 0 0 .1 0 .1.1-.2.1-.4.2-.6C321 307.2 320.7 304 318.6 302.2z"/></svg>