<svg xmlns="http://www.w3.org/2000/svg" viewBox="0 0 64 64"><radialGradient id="krYSmhVDWilQR1qUwHpSqa" cx="44.833" cy="35.917" r="26" gradientUnits="userSpaceOnUse" spreadMethod="reflect"><stop offset="0" stop-color="#f4e9c3"/><stop offset=".219" stop-color="#f8eecd"/><stop offset=".644" stop-color="#fdf4dc"/><stop offset="1" stop-color="#fff6e1"/></radialGradient><path fill="url(#krYSmhVDWilQR1qUwHpSqa)" d="M18,8L18,8c2.209,0,4-1.791,4-4v0c0-2.209-1.791-4-4-4h0c-2.209,0-4,1.791-4,4v0 C14,6.209,15.791,8,18,8z"/><radialGradient id="krYSmhVDWilQR1qUwHpSqb" cx="31.417" cy="29.917" r="28.77" gradientUnits="userSpaceOnUse" spreadMethod="reflect"><stop offset="0" stop-color="#f4e9c3"/><stop offset=".219" stop-color="#f8eecd"/><stop offset=".644" stop-color="#fdf4dc"/><stop offset="1" stop-color="#fff6e1"/></radialGradient><path fill="url(#krYSmhVDWilQR1qUwHpSqb)" d="M7.5,64L7.5,64c1.933,0,3.5-1.567,3.5-3.5v0c0-1.933-1.567-3.5-3.5-3.5h0 C5.567,57,4,58.567,4,60.5v0C4,62.433,5.567,64,7.5,64z"/><radialGradient id="krYSmhVDWilQR1qUwHpSqc" cx="32" cy="32" r="32" gradientUnits="userSpaceOnUse" spreadMethod="reflect"><stop offset="0" stop-color="#f4e9c3"/><stop offset=".219" stop-color="#f8eecd"/><stop offset=".644" stop-color="#fdf4dc"/><stop offset="1" stop-color="#fff6e1"/></radialGradient><path fill="url(#krYSmhVDWilQR1qUwHpSqc)" d="M62,20.5L62,20.5c0-2.485-2.015-4.5-4.5-4.5H49c-2.209,0-4-1.791-4-4v0c0-2.209,1.791-4,4-4 h2c2.209,0,4-1.791,4-4v0c0-2.209-1.791-4-4-4L28,0c-2.209,0-4,1.791-4,4v0c0,2.209,1.791,4,4,4h2c1.657,0,3,1.343,3,3v0 c0,1.657-1.343,3-3,3H7.5C5.567,14,4,15.567,4,17.5v0C4,19.433,5.567,21,7.5,21H9c1.657,0,3,1.343,3,3v0c0,1.657-1.343,3-3,3H5 c-2.761,0-5,2.239-5,5v0c0,2.761,2.239,5,5,5h2.5c1.933,0,3.5,1.567,3.5,3.5v0c0,1.933-1.567,3.5-3.5,3.5H6c-2.209,0-4,1.791-4,4v0 c0,2.209,1.791,4,4,4h11.5c1.381,0,2.5,1.119,2.5,2.5v0c0,1.381-1.119,2.5-2.5,2.5h0c-1.933,0-3.5,1.567-3.5,3.5v0 c0,1.933,1.567,3.5,3.5,3.5h30c1.933,0,3.5-1.567,3.5-3.5v0c0-1.933-1.567-3.5-3.5-3.5H47c-1.105,0-2-0.895-2-2v0 c0-1.105,0.895-2,2-2h13c2.209,0,4-1.791,4-4v0c0-2.209-1.791-4-4-4h-3.5c-1.381,0-2.5-1.119-2.5-2.5v0c0-1.381,1.119-2.5,2.5-2.5 H57c2.209,0,4-1.791,4-4v0c0-2.209-1.791-4-4-4h-4.5c-1.933,0-3.5-1.567-3.5-3.5v0c0-1.933,1.567-3.5,3.5-3.5h5 C59.985,25,62,22.985,62,20.5z"/><linearGradient id="krYSmhVDWilQR1qUwHpSqd" x1="32.5" x2="32.5" y1="16" y2="49" gradientUnits="userSpaceOnUse" spreadMethod="reflect"><stop offset="0" stop-color="#42d778"/><stop offset=".428" stop-color="#3dca76"/><stop offset="1" stop-color="#34b171"/></linearGradient><path fill="url(#krYSmhVDWilQR1qUwHpSqd)" d="M42.973,30c-5.284,0-9.121-2.061-12.507-3.879c-3.105-1.668-5.788-3.109-9.478-3.121 c-0.019,0-0.037,0-0.057,0c-4.439,0-7.401,1.677-8.473,2.4c-1.601,1.081-3.776,0.662-4.859-0.94 c-1.082-1.602-0.661-3.777,0.941-4.859c3.389-2.29,7.902-3.6,12.396-3.6c0.025,0,0.05,0,0.075,0 c5.438,0.018,9.331,2.109,12.767,3.954C36.821,21.588,39.45,23,42.973,23c0.007,0,0.015,0,0.021,0 c2.493-0.004,5.478-0.26,9.363-3.268c1.53-1.185,3.728-0.902,4.91,0.625c1.184,1.528,0.903,3.727-0.625,4.91 c-5.374,4.159-9.909,4.726-13.637,4.732C42.995,30,42.983,30,42.973,30z M43.006,49c3.728-0.006,8.263-0.573,13.637-4.732 c1.528-1.183,1.809-3.381,0.625-4.91c-1.183-1.528-3.38-1.81-4.91-0.625c-3.886,3.007-6.87,3.264-9.363,3.268 c-0.007,0-0.015,0-0.021,0c-3.522,0-6.151-1.412-9.194-3.046c-3.436-1.845-7.329-3.936-12.767-3.954 c-4.482-0.039-9.063,1.297-12.471,3.6c-1.603,1.082-2.023,3.258-0.941,4.859c1.083,1.603,3.259,2.021,4.859,0.94 c1.071-0.723,4.033-2.4,8.473-2.4c0.02,0,0.038,0,0.057,0c3.689,0.012,6.372,1.453,9.478,3.121C33.852,46.939,37.688,49,42.973,49 C42.983,49,42.995,49,43.006,49z"/></svg>