<svg xmlns="http://www.w3.org/2000/svg" viewBox="0 0 48 48"><path fill="#00897b" d="M29,33L29,33l-5,1l-5-1c0,0-11,1.986-11,13h32C40,35.025,29,33,29,33"/><path fill="#ff9800" d="M24,39l-5-6v-6h10v6L24,39z"/><path fill="#ffa726" d="M35,21c0,1.106-0.896,2-2,2c-1.106,0-2-0.894-2-2c0-1.105,0.894-2,2-2C34.104,19,35,19.895,35,21 M17,21c0-1.105-0.896-2-2-2c-1.106,0-2,0.895-2,2c0,1.106,0.894,2,2,2C16.104,23,17,22.106,17,21"/><path fill="#ffb74d" d="M33,15c0-7.635-18-4.971-18,0v7c0,4.971,4.028,9,9,9c4.971,0,9-4.029,9-9V15z"/><path fill="#424242" d="M24,6c-6.075,0-10,4.926-10,11v2.286L16,21v-5l12-4l4,4v5l2-1.742V17c0-4.025-1.038-8.016-6-9l-1-2	H24z"/><path fill="#784719" d="M27,21c0-0.551,0.448-1,1-1s1,0.449,1,1s-0.448,1-1,1S27,21.551,27,21 M19,21c0,0.551,0.448,1,1,1	s1-0.449,1-1s-0.448-1-1-1S19,20.449,19,21"/><path fill="#ff5722" d="M34,15v-1c0-4.971-4.029-9-9-9h-2c-4.971,0-9,4.029-9,9v1h-2v3h24v-3H34z"/><path fill="#d84315" d="M21,4h6v11h-6V4z"/><path fill="#2196f3" d="M47,29H29c-0.6,0-1,0.4-1,1v18h17c1.7,0,3-1.3,3-3V30C48,29.4,47.6,29,47,29z"/><path fill="#fff" d="M38,34.3l5,2.9V43H33v-5.8L38,34.3 M38,32l-7,4v9h14v-9L38,32L38,32z"/><path fill="#b3e5fc" d="M42,45v-2H25v2c0,1.7,1.3,3,3,3h17C43.3,48,42,46.7,42,45z"/><rect width="3" height="2" x="41" y="39" fill="#fff"/><rect width="2" height="2" x="37" y="39" fill="#fff"/><rect width="3" height="2" x="32" y="39" fill="#fff"/></svg>