<?xml version="1.0"?><svg xmlns="http://www.w3.org/2000/svg" viewBox="0 0 50 50">    <path d="M 22.414062 1 C 21.246062 1.001 20.457781 2.0180781 20.175781 2.4550781 C 19.848781 2.9580781 19.834219 3.4572656 19.824219 3.8222656 C 19.820219 3.9562656 19.816922 4.1229219 19.794922 4.1699219 C 19.743922 4.2489219 19.485031 4.4079531 19.332031 4.5019531 C 18.996031 4.7079531 18.579016 4.9638594 18.291016 5.3808594 C 17.669016 6.2848594 17.775375 7.3040469 17.859375 8.1230469 C 17.886375 8.3810469 17.915156 8.6350469 17.910156 8.8730469 C 17.909156 8.9540469 17.849078 9.0542969 17.705078 9.2792969 C 17.623078 9.4072969 17.539938 9.5395469 17.460938 9.6855469 L 17.40625 9.7871094 C 17.06925 10.406109 16.688234 11.109813 16.490234 11.882812 C 16.352234 12.422812 16.421516 12.9155 16.478516 13.3125 C 16.517516 13.5845 16.551813 13.820656 16.507812 13.972656 C 16.467813 14.108656 16.406656 14.240047 16.347656 14.373047 C 16.203656 14.699047 16.024906 15.105078 16.003906 15.580078 C 15.989906 15.875078 16.084344 16.115109 16.402344 16.912109 C 16.602344 17.416109 16.906609 18.177859 16.974609 18.505859 C 17.006609 18.660859 17.015859 18.791344 17.005859 18.902344 C 16.984859 19.118344 16.898297 19.372656 16.779297 19.722656 C 16.667297 20.048656 16.526969 20.452172 16.542969 20.951172 L 16.546875 21.082031 C 16.553875 21.261031 16.56425 21.596656 16.53125 21.722656 C 16.51825 21.763656 16.430094 21.880984 16.371094 21.958984 C 16.176094 22.216984 15.909078 22.570609 15.830078 23.099609 C 15.755078 23.599609 15.777828 24.029203 15.798828 24.408203 C 15.810828 24.636203 15.824547 24.870953 15.810547 25.126953 C 15.797547 25.355953 15.701844 25.617828 15.589844 25.923828 C 15.484844 26.210828 15.364828 26.535531 15.298828 26.894531 C 15.139828 27.744531 15.120047 28.592813 15.123047 29.382812 C 15.124047 29.618813 15.095359 29.828063 15.068359 30.039062 C 15.032359 30.324062 14.991047 30.647531 14.998047 31.019531 C 15.003047 31.227531 15.048937 31.591781 15.085938 31.800781 C 15.156937 32.192781 15.290203 32.535891 15.408203 32.837891 C 15.533203 33.154891 15.638719 33.427109 15.636719 33.662109 C 15.634719 33.913109 15.693687 34.329563 15.804688 35.101562 C 15.883688 35.654562 16.002047 36.490422 15.998047 36.732422 C 15.987047 37.468422 15.744156 38.236266 15.535156 38.822266 C 15.487156 38.958266 15.437672 39.085938 15.388672 39.210938 C 15.209672 39.665937 15.024953 40.135031 15.001953 40.707031 C 14.986953 41.066031 15.038156 41.421109 15.160156 41.787109 C 15.474156 42.742109 15.926656 43.184953 16.347656 43.376953 C 16.732656 44.354953 17.677656 44.994 18.847656 45 L 18.853516 45 C 19.608516 45 21.557969 44.164969 22.042969 43.417969 C 22.263969 43.077969 22.299625 42.681078 22.140625 42.330078 L 22.066406 42.171875 C 22.096406 42.136875 22.12825 42.101312 22.15625 42.070312 C 22.27825 41.935312 22.412922 41.786328 22.544922 41.611328 C 22.775922 41.302328 22.927547 40.999422 23.060547 40.732422 C 23.198547 40.457422 23.305656 40.240453 23.472656 40.064453 C 23.562656 39.970453 23.69275 39.893687 23.84375 39.804688 C 24.24775 39.565687 24.978516 39.12 24.978516 38 C 24.978516 36.576 23.937734 36.188953 23.427734 36.001953 C 23.344734 35.970953 23.259781 35.938344 23.175781 35.902344 C 23.094781 35.868344 23 35.708375 23 35.359375 C 23.072 35.205375 23.683 35.004 24 35 C 24.277 35 25.118609 34.999844 25.849609 32.089844 C 25.971609 31.605844 25.957734 30.98175 25.802734 30.21875 C 26.376734 30.24775 27.013906 30.127109 27.628906 29.662109 C 28.447906 29.044109 28.549187 28.248703 28.617188 27.720703 C 28.637188 27.561703 28.654875 27.395813 28.671875 27.257812 C 28.756875 27.205813 29.068391 27.170437 29.275391 27.148438 L 29.869141 27.085938 C 30.644141 27.009938 31.523844 26.921656 32.339844 26.472656 C 33.351844 25.914656 35.213687 24.119141 34.929688 22.494141 C 34.853687 22.061141 34.652125 21.786375 34.453125 21.609375 C 34.462125 21.563375 34.470609 21.513891 34.474609 21.462891 C 34.563609 20.419891 33.9605 19.855469 33.5625 19.480469 C 33.4715 19.394469 33.376063 19.306078 33.289062 19.205078 C 33.139063 19.031078 33.103453 18.991875 33.314453 18.421875 C 33.506453 17.904875 33.567859 17.127688 33.630859 16.304688 C 33.664859 15.869688 33.700953 15.37625 33.751953 15.15625 C 33.900953 14.50325 34.138531 14.353031 34.769531 13.957031 C 35.089531 13.757031 35.486203 13.509391 35.908203 13.150391 C 36.472203 12.671391 37.067781 12.273703 37.675781 11.970703 C 37.928781 11.845703 39.212797 11.16625 39.716797 10.15625 C 40.144797 9.30125 40.243969 7.8597344 39.667969 6.9277344 C 39.297969 6.3297344 38.705 6 38 6 C 36.526 6 35.08725 7.7041563 34.78125 8.1601562 C 34.69025 8.2971563 34.600953 8.4052812 34.501953 8.4882812 C 34.799953 7.6422813 34.852063 6.5827969 33.664062 5.7167969 C 32.967062 5.2077969 32.212422 4.89575 31.482422 4.59375 C 30.932422 4.36675 30.413937 4.1511406 29.960938 3.8691406 C 29.622938 3.6581406 29.32 3.3123125 29 2.9453125 C 28.544 2.4203125 28.027766 1.8260312 27.259766 1.4570312 C 26.525766 1.1040312 25.916937 0.98798438 24.585938 1.3339844 C 24.349937 1.3949844 24.127203 1.4547188 23.908203 1.3867188 C 23.813203 1.3587188 23.715187 1.31925 23.617188 1.28125 C 23.289187 1.15525 22.882969 1 22.417969 1 L 22.414062 1 z M 21.830078 46 C 21.688828 45.995 21.546469 46.025797 21.417969 46.091797 C 21.159969 46.222797 21 46.476 21 46.75 L 21 48.25 C 21 48.664 21.358781 49 21.800781 49 L 24.199219 49 C 24.502219 49 24.780016 48.840937 24.916016 48.585938 C 25.051016 48.331938 25.021844 48.027781 24.839844 47.800781 L 24.539062 47.425781 C 24.429063 47.287781 24.27175 47.188484 24.09375 47.146484 L 23.822266 47.083984 L 22.234375 46.121094 C 22.110875 46.046094 21.971328 46.005 21.830078 46 z"/></svg>