<?xml version="1.0"?><svg xmlns="http://www.w3.org/2000/svg" viewBox="0 0 30 30">    <path d="M 23 3 C 22.737625 3 22.50266 3.105996 22.324219 3.2714844 C 22.318344 3.2763208 22.303921 3.278087 22.298828 3.2832031 C 21.194828 4.3862031 20 5.863 20 10 C 18 12 18 15 18 17 C 13.461 17.302 12.609469 20.373922 9.7304688 21.419922 C 8.9584687 20.615922 7.8767969 20.681641 7.3417969 20.681641 L 5.3066406 20.048828 A 1 1 0 0 0 5 20 A 1 1 0 0 0 4 21 A 1 1 0 0 0 4.5507812 21.892578 L 6.2070312 22.775391 L 5.28125 23.486328 L 3.3203125 23.052734 A 1 1 0 0 0 3 23 A 1 1 0 0 0 2 24 A 1 1 0 0 0 2.3164062 24.728516 L 4.1992188 26.626953 L 4.2382812 26.644531 A 1 1 0 0 0 5 27 L 8 27 A 1 1 0 0 0 8.765625 26.644531 C 8.8321621 26.576744 9.9729817 25.416982 10.599609 25.039062 C 12.314609 24.007062 13.292766 23.875578 16.009766 23.267578 C 18.680539 22.669421 20.481668 21.285117 22.154297 20.988281 A 1 1 0 0 0 22.986328 20.15625 C 22.98738 20.153213 22.991225 20.149501 22.992188 20.146484 C 23.697147 16.724803 27.922314 12.982893 27.994141 9.0996094 A 1 1 0 0 0 28 9 A 1 1 0 0 0 27.810547 8.4179688 C 27.810547 8.4179688 27.783603 8.3794812 27.783203 8.3789062 A 1 1 0 0 0 27.777344 8.3710938 C 27.71508 8.2815868 24.368602 3.4730467 23.453125 3.1054688 C 23.453125 3.1054688 23.430713 3.1055073 23.429688 3.1054688 C 23.298248 3.0418931 23.155712 3 23 3 z"/></svg>