<svg xmlns="http://www.w3.org/2000/svg" viewBox="0 0 24 24"><path d="M 20.1875 0 L 7.6875 12.5 L 11.5 16.3125 L 12.5 15.3125 C 12.867188 15.730469 13.398438 16 14 16 C 14.171875 16 14.339844 15.980469 14.5 15.9375 L 20.59375 22 L 19 22 L 19 24 L 24 24 L 24 22 L 23.40625 22 L 15.9375 14.5 C 15.980469 14.339844 16 14.171875 16 14 C 16 13.398438 15.730469 12.867188 15.3125 12.5 L 24 3.8125 Z M 6.3125 13.90625 L 1 19.1875 L 2.8125 21 L 0 21 L 0 24 L 10 24 L 10 21 L 6.8125 21 L 10.09375 17.6875 Z"/></svg>