<svg xmlns="http://www.w3.org/2000/svg" viewBox="0 0 100 100"><circle cx="77" cy="13" r="1" fill="#f1bc19"/><circle cx="50" cy="50" r="37" fill="#e4e4f9"/><circle cx="83" cy="15" r="4" fill="#f1bc19"/><circle cx="87" cy="24" r="2" fill="#8889b9"/><circle cx="81" cy="76" r="2" fill="#fbcd59"/><circle cx="15" cy="63" r="4" fill="#fbcd59"/><circle cx="25" cy="87" r="2" fill="#8889b9"/><circle cx="79.5" cy="33.5" r="1.5" fill="#fff"/><path fill="#77cbd2" d="M50.406,65.3c-2.044,0-3.706-1.662-3.706-3.706V49.406c0-2.044,1.662-3.706,3.706-3.706h3.969 c1.282,0,2.325-1.043,2.325-2.325V38.7h10.6v4.675c0,1.282,1.043,2.325,2.325,2.325h3.969c2.044,0,3.706,1.662,3.706,3.706v12.188 c0,2.044-1.662,3.706-3.706,3.706H50.406z"/><path fill="#472b29" d="M66.6,39.4v3.975c0,1.668,1.357,3.025,3.025,3.025h3.969c1.658,0,3.006,1.349,3.006,3.006v12.188 c0,1.658-1.349,3.006-3.006,3.006H50.406c-1.658,0-3.006-1.349-3.006-3.006V49.406c0-1.658,1.349-3.006,3.006-3.006h3.969 c1.668,0,3.025-1.357,3.025-3.025V39.4H66.6 M68,38H56v5.375C56,44.272,55.272,45,54.375,45h-3.969C47.973,45,46,46.973,46,49.406 v12.188C46,64.027,47.973,66,50.406,66h23.188C76.027,66,78,64.027,78,61.594V49.406C78,46.973,76.027,45,73.594,45h-3.969 C68.728,45,68,44.272,68,43.375V38L68,38z"/><path fill="#00a5a5" d="M50,54v6.615C50,61.932,51.068,63,52.385,63h20.23C73.932,63,75,61.932,75,60.615V54H50z"/><polygon fill="#f6cca4" points="64.64,36.5 68.073,22.409 65.158,21.699 63.5,28.506 63.5,21.5 60.5,21.5 60.5,28.506 58.842,21.699 55.927,22.409 59.36,36.5"/><path fill="#472b29" d="M64.641,36.75h-5.281c-0.115,0-0.216-0.079-0.243-0.19l-3.433-14.091 c-0.016-0.064-0.005-0.133,0.029-0.189c0.035-0.057,0.09-0.098,0.154-0.113l2.915-0.71c0.139-0.034,0.27,0.05,0.303,0.184 l1.165,4.784V21.5c0-0.138,0.112-0.25,0.25-0.25h3c0.138,0,0.25,0.112,0.25,0.25v4.924l1.165-4.784 c0.033-0.133,0.166-0.216,0.303-0.184l2.915,0.71c0.064,0.016,0.119,0.057,0.154,0.113c0.034,0.057,0.045,0.125,0.029,0.189 L64.884,36.56C64.856,36.671,64.756,36.75,64.641,36.75z M59.556,36.25h4.889l3.327-13.657l-2.43-0.592l-1.599,6.564 c-0.03,0.122-0.143,0.193-0.273,0.188c-0.125-0.015-0.22-0.121-0.22-0.248V21.75h-2.5v6.756c0,0.127-0.095,0.233-0.22,0.248 c-0.137,0.017-0.243-0.065-0.273-0.188l-1.599-6.564l-2.43,0.592L59.556,36.25z"/><polygon fill="#78a0cf" points="57.167,54 55.927,59.515 58.842,60.284 60.255,54"/><path fill="#472b29" d="M58.842,60.534c-0.021,0-0.043-0.003-0.063-0.008l-2.915-0.77c-0.13-0.035-0.21-0.166-0.181-0.297 l1.24-5.515c0.026-0.114,0.127-0.195,0.244-0.195h3.088c0.076,0,0.147,0.034,0.195,0.094c0.047,0.06,0.065,0.137,0.049,0.211 l-1.413,6.284c-0.015,0.066-0.057,0.124-0.114,0.159C58.932,60.521,58.887,60.534,58.842,60.534z M56.224,59.334l2.432,0.643 l1.287-5.727h-2.575L56.224,59.334z"/><polygon fill="#78a0cf" points="63.745,54 65.158,60.284 68.073,59.515 66.833,54"/><path fill="#472b29" d="M65.158,60.534c-0.045,0-0.09-0.013-0.13-0.036c-0.058-0.035-0.1-0.093-0.114-0.159l-1.413-6.284 c-0.017-0.074,0.002-0.151,0.049-0.211c0.048-0.06,0.119-0.094,0.195-0.094h3.088c0.117,0,0.218,0.081,0.244,0.195l1.24,5.515 c0.029,0.131-0.051,0.262-0.181,0.297l-2.915,0.77C65.201,60.531,65.18,60.534,65.158,60.534z M64.058,54.25l1.287,5.727 l2.432-0.643l-1.144-5.084H64.058z"/><g><rect width="3" height="6.5" x="60.5" y="54" fill="#78a0cf"/><path fill="#472b29" d="M63.5,60.75h-3c-0.138,0-0.25-0.112-0.25-0.25V54c0-0.138,0.112-0.25,0.25-0.25h3 c0.138,0,0.25,0.112,0.25,0.25v6.5C63.75,60.638,63.638,60.75,63.5,60.75z M60.75,60.25h2.5v-6h-2.5V60.25z"/></g><g><polygon fill="#c29b67" points="57.289,54 60.377,54 60.5,53.494 60.5,54 63.5,54 63.5,53.494 63.623,54 66.711,54 63.544,41 64.64,36.5 59.36,36.5 60.456,41"/><path fill="#472b29" d="M66.711,54.25h-3.088c-0.021,0-0.042-0.003-0.062-0.008c-0.02,0.005-0.04,0.008-0.062,0.008h-3 c-0.021,0-0.042-0.003-0.062-0.008c-0.02,0.005-0.04,0.008-0.062,0.008h-3.088c-0.077,0-0.149-0.035-0.196-0.096 c-0.048-0.061-0.064-0.139-0.047-0.214L60.199,41l-1.083-4.44c-0.018-0.075-0.001-0.153,0.047-0.214 c0.047-0.061,0.119-0.096,0.196-0.096h5.281c0.077,0,0.149,0.035,0.196,0.096c0.048,0.061,0.064,0.139,0.047,0.214L63.801,41 l3.153,12.94c0.018,0.075,0.001,0.153-0.047,0.214C66.86,54.215,66.788,54.25,66.711,54.25z M63.819,53.75h2.573l-3.092-12.69 c-0.009-0.039-0.009-0.08,0-0.119l1.021-4.19h-4.645l1.021,4.19c0.009,0.039,0.009,0.08,0,0.119l-3.092,12.69h2.573l0.076-0.315 c0.029-0.123,0.144-0.206,0.272-0.188c0.126,0.015,0.221,0.121,0.221,0.248v0.256h2.5v-0.256c0-0.127,0.095-0.233,0.221-0.248 c0.129-0.006,0.243,0.066,0.272,0.188L63.819,53.75z"/></g><g><path fill="#472b29" d="M63.5,54.75c-0.138,0-0.25-0.112-0.25-0.25v-4c0-0.138,0.112-0.25,0.25-0.25s0.25,0.112,0.25,0.25v4 C63.75,54.638,63.638,54.75,63.5,54.75z"/></g><g><path fill="#472b29" d="M60.5,30.75c-0.138,0-0.25-0.112-0.25-0.25v-4c0-0.138,0.112-0.25,0.25-0.25s0.25,0.112,0.25,0.25v4 C60.75,30.638,60.638,30.75,60.5,30.75z"/></g><g><path fill="#472b29" d="M60.5,33.75c-0.138,0-0.25-0.112-0.25-0.25v-2c0-0.138,0.112-0.25,0.25-0.25s0.25,0.112,0.25,0.25v2 C60.75,33.638,60.638,33.75,60.5,33.75z"/></g><g><path fill="#472b29" d="M63.5,49.75c-0.138,0-0.25-0.112-0.25-0.25v-2c0-0.138,0.112-0.25,0.25-0.25s0.25,0.112,0.25,0.25v2 C63.75,49.638,63.638,49.75,63.5,49.75z"/></g><g><path fill="#472b29" d="M70.875,63.25h-6.333c-0.138,0-0.25-0.112-0.25-0.25s0.112-0.25,0.25-0.25h6.333 c0.138,0,0.25,0.112,0.25,0.25S71.013,63.25,70.875,63.25z"/></g><g><path fill="#472b29" d="M62.542,63.25H52.385c-1.453,0-2.635-1.182-2.635-2.635V54c0-0.138,0.112-0.25,0.25-0.25h20.208 c0.138,0,0.25,0.112,0.25,0.25s-0.112,0.25-0.25,0.25H50.25v6.365c0,1.177,0.958,2.135,2.135,2.135h10.157 c0.138,0,0.25,0.112,0.25,0.25S62.68,63.25,62.542,63.25z"/></g><g><path fill="#472b29" d="M72.615,63.25c-0.138,0-0.25-0.112-0.25-0.25s0.112-0.25,0.25-0.25c1.177,0,2.135-0.958,2.135-2.135 V54.25h-3.375c-0.138,0-0.25-0.112-0.25-0.25s0.112-0.25,0.25-0.25H75c0.138,0,0.25,0.112,0.25,0.25v6.615 C75.25,62.068,74.068,63.25,72.615,63.25z"/></g><g><path fill="#fbcd59" d="M44.827,73.026c-1.82,0-3.499-0.827-4.605-2.269c-0.411-0.535-0.851-1.306-1.272-2.227 l-0.637-1.392l-0.637,1.392c-0.422,0.921-0.861,1.691-1.272,2.226c-1.106,1.442-2.785,2.27-4.605,2.27 c-1.284,0-2.504-0.414-3.526-1.199c-1.229-0.942-2.018-2.309-2.219-3.845c-0.202-1.536,0.206-3.059,1.149-4.288 c0.334-0.436,0.832-0.947,1.438-1.479l1.18-1.033l-1.557-0.188c-0.798-0.096-1.497-0.237-2.022-0.409 c-3.038-0.997-4.7-4.28-3.704-7.319c0.783-2.389,2.998-3.994,5.51-3.994c0.612,0,1.221,0.098,1.809,0.29 c0.595,0.195,1.32,0.538,2.098,0.993l1.372,0.802l-0.334-1.554c-0.19-0.882-0.29-1.678-0.29-2.303c0-3.198,2.602-5.8,5.8-5.8 s5.8,2.602,5.8,5.8c0,0.559-0.085,1.278-0.246,2.079l-0.295,1.471l1.316-0.719c0.654-0.356,1.225-0.615,1.695-0.77 c0.588-0.192,1.196-0.29,1.809-0.29c2.512,0,4.727,1.605,5.51,3.994c0.996,3.039-0.666,6.322-3.704,7.319 c-0.524,0.171-1.225,0.313-2.022,0.409l-1.557,0.188l1.18,1.033c0.605,0.531,1.104,1.043,1.438,1.479 c1.947,2.537,1.468,6.186-1.069,8.133C47.331,72.612,46.111,73.026,44.827,73.026L44.827,73.026z"/><path fill="#472b29" d="M38.5,42.4c2.812,0,5.1,2.288,5.1,5.1c0,0.514-0.08,1.185-0.232,1.942l-0.591,2.943l2.635-1.439 c0.605-0.331,1.151-0.579,1.577-0.719c0.517-0.17,1.052-0.256,1.59-0.256c2.209,0,4.156,1.412,4.845,3.513 c0.876,2.672-0.585,5.559-3.257,6.435c-0.479,0.157-1.132,0.289-1.889,0.381l-3.109,0.378l2.354,2.064 c0.573,0.502,1.038,0.979,1.345,1.379c1.712,2.23,1.29,5.438-0.941,7.151c-0.899,0.69-1.971,1.055-3.1,1.055 c-1.601,0-3.078-0.728-4.051-1.996c-0.378-0.493-0.79-1.216-1.191-2.092l-1.273-2.782l-1.273,2.782 c-0.401,0.875-0.813,1.599-1.191,2.092c-0.973,1.268-2.45,1.996-4.051,1.996c-1.129,0-2.201-0.365-3.1-1.054 c-2.231-1.713-2.653-4.921-0.941-7.151c0.307-0.4,0.772-0.877,1.345-1.379l2.354-2.064L28.347,60.3 c-0.757-0.092-1.41-0.224-1.889-0.38c-2.672-0.876-4.133-3.763-3.257-6.436c0.689-2.101,2.636-3.513,4.845-3.513 c0.538,0,1.073,0.086,1.59,0.256c0.548,0.18,1.227,0.502,1.962,0.932l2.744,1.604l-0.668-3.107 c-0.179-0.834-0.274-1.58-0.274-2.156C33.4,44.688,35.688,42.4,38.5,42.4 M38.5,41c-3.59,0-6.5,2.91-6.5,6.5 c0,0.687,0.108,1.533,0.306,2.45c-0.81-0.474-1.58-0.84-2.233-1.054c-0.672-0.22-1.355-0.325-2.026-0.325 c-2.734,0-5.277,1.738-6.175,4.477c-1.118,3.411,0.74,7.083,4.151,8.202c0.588,0.193,1.333,0.34,2.156,0.44 c-0.624,0.547-1.155,1.088-1.532,1.579c-2.186,2.848-1.649,6.928,1.199,9.114c1.18,0.905,2.572,1.344,3.952,1.344 c1.952,0,3.881-0.875,5.161-2.543c0.455-0.593,0.922-1.418,1.353-2.362c0.432,0.943,0.898,1.769,1.353,2.362 c1.28,1.667,3.21,2.543,5.161,2.543c1.381,0,2.772-0.438,3.952-1.344c2.848-2.186,3.385-6.267,1.199-9.114 c-0.377-0.491-0.908-1.032-1.532-1.579c0.823-0.1,1.568-0.247,2.156-0.44c3.411-1.119,5.27-4.791,4.151-8.202 c-0.898-2.739-3.442-4.477-6.175-4.477c-0.671,0-1.354,0.105-2.026,0.325c-0.537,0.176-1.159,0.464-1.812,0.821 C44.906,48.891,45,48.127,45,47.5C45,43.91,42.09,41,38.5,41L38.5,41z"/><path fill="#ee3e54" d="M47.235,55.782c-0.339-1.339-1.698-2.149-3.037-1.811c-0.329,0.083-0.626,0.23-0.883,0.421 l-0.001-0.004l-4.79,3.587l-0.008-0.005l0.002,0.009l-0.007,0.005l-0.004-0.003l2.303-5.523h-0.004 C40.931,52.164,41,51.84,41,51.5c0-1.381-1.119-2.5-2.5-2.5S36,50.119,36,51.5c0,0.34,0.069,0.664,0.192,0.959H36.19l2.296,5.507 l-4.777-3.578l-0.001,0.004c-0.256-0.191-0.553-0.338-0.883-0.421c-1.339-0.338-2.698,0.472-3.037,1.811 c-0.339,1.338,0.472,2.698,1.811,3.037c0.329,0.083,0.66,0.096,0.977,0.049l0,0.001l5.895-0.875l-5.036,3.19l0.003,0.002 c-0.27,0.171-0.512,0.397-0.707,0.675c-0.792,1.131-0.518,2.689,0.613,3.482c1.131,0.792,2.69,0.518,3.482-0.614 c0.195-0.278,0.324-0.583,0.393-0.896l0.001,0.001l1.28-5.837l0.004-0.009l0.007-0.001l0.008,0.001l1.282,5.846l0.001-0.001 c0.069,0.313,0.198,0.617,0.393,0.896c0.792,1.131,2.351,1.406,3.482,0.614c1.131-0.792,1.406-2.351,0.613-3.482 c-0.195-0.278-0.437-0.504-0.707-0.675l0.003-0.002l-5.036-3.19l5.895,0.875l0-0.001c0.317,0.047,0.647,0.034,0.977-0.049 C46.763,58.479,47.574,57.12,47.235,55.782z"/><path fill="#472b29" d="M34.775,66.045c-0.544,0-1.094-0.161-1.573-0.496c-1.241-0.871-1.544-2.589-0.675-3.831 c0.199-0.284,0.448-0.526,0.742-0.72c0.01-0.01,0.021-0.018,0.033-0.025l4.038-2.558l-4.727,0.701 c-0.012,0.002-0.022,0.003-0.033,0.003c-0.352,0.046-0.699,0.027-1.042-0.059c-1.47-0.372-2.363-1.871-1.991-3.341 c0.034-0.133,0.173-0.217,0.304-0.181c0.134,0.034,0.215,0.17,0.181,0.304c-0.147,0.583-0.059,1.188,0.249,1.704 c0.308,0.516,0.798,0.882,1.381,1.029c0.289,0.073,0.587,0.088,0.878,0.044c0.011-0.002,0.021-0.003,0.031-0.003l5.864-0.87 c0.128-0.011,0.23,0.05,0.271,0.16s-0.001,0.235-0.101,0.298l-5.002,3.168c-0.01,0.009-0.02,0.017-0.03,0.023 c-0.254,0.161-0.468,0.366-0.637,0.608c-0.712,1.016-0.464,2.422,0.552,3.134c1.016,0.713,2.423,0.464,3.133-0.553 c0.079-0.114,0.234-0.14,0.349-0.062c0.113,0.079,0.141,0.235,0.062,0.349C36.498,65.636,35.644,66.045,34.775,66.045z"/><path fill="#472b29" d="M30.803,54.58c-0.08,0-0.158-0.038-0.206-0.109c-0.078-0.114-0.049-0.27,0.065-0.347 c0.652-0.445,1.463-0.589,2.226-0.396c0.134,0.033,0.215,0.17,0.181,0.304c-0.033,0.135-0.17,0.219-0.304,0.181 c-0.623-0.157-1.287-0.039-1.821,0.323C30.9,54.566,30.852,54.58,30.803,54.58z"/><path fill="#472b29" d="M38.486,58.216c-0.053,0-0.105-0.017-0.149-0.05l-4.07-3.049c-0.111-0.083-0.134-0.239-0.051-0.35 c0.083-0.111,0.24-0.132,0.35-0.051l3.338,2.5l-1.943-4.661c-0.004-0.01-0.008-0.021-0.011-0.03 c-0.132-0.328-0.199-0.673-0.199-1.025c0-1.517,1.233-2.75,2.75-2.75s2.75,1.233,2.75,2.75c0,0.138-0.112,0.25-0.25,0.25 s-0.25-0.112-0.25-0.25c0-1.24-1.01-2.25-2.25-2.25s-2.25,1.01-2.25,2.25c0,0.297,0.059,0.588,0.173,0.862 c0.004,0.01,0.008,0.02,0.01,0.029l2.284,5.478c0.044,0.104,0.012,0.225-0.077,0.294C38.595,58.198,38.541,58.216,38.486,58.216z"/><path fill="#472b29" d="M38.51,58.232c-0.038,0-0.075-0.008-0.108-0.024c-0.118-0.059-0.174-0.2-0.123-0.322l2.303-5.523 c0.053-0.128,0.196-0.191,0.327-0.134c0.127,0.053,0.188,0.199,0.134,0.327l-1.953,4.686l3.201-2.397 c0.11-0.08,0.268-0.062,0.35,0.051c0.083,0.11,0.061,0.267-0.051,0.35l-3.914,2.932c0,0,0,0-0.001,0.001 c-0.009,0.008-0.02,0.015-0.03,0.021C38.604,58.221,38.557,58.232,38.51,58.232z"/><path fill="#472b29" d="M41.946,60.394c-0.046,0-0.092-0.013-0.134-0.039l-3.394-2.149c-0.1-0.063-0.142-0.188-0.101-0.298 c0.042-0.11,0.148-0.173,0.271-0.16l5.864,0.87c0.011,0,0.021,0.001,0.031,0.003c0.292,0.044,0.59,0.029,0.878-0.044 c0.583-0.147,1.073-0.514,1.381-1.029c0.308-0.517,0.396-1.121,0.249-1.704c-0.304-1.202-1.529-1.929-2.732-1.63 c-0.136,0.038-0.271-0.047-0.304-0.181c-0.034-0.134,0.047-0.271,0.181-0.304c1.475-0.37,2.968,0.522,3.34,1.991 c0.372,1.47-0.521,2.969-1.991,3.341c-0.342,0.086-0.694,0.105-1.043,0.059c-0.011,0-0.021-0.001-0.032-0.003l-4.727-0.701 l2.396,1.518c0.116,0.073,0.151,0.229,0.077,0.345C42.11,60.353,42.029,60.394,41.946,60.394z"/><g><path fill="#472b29" d="M42.25,66.044c-0.868,0-1.723-0.408-2.258-1.171c-0.202-0.29-0.346-0.613-0.426-0.96 c-0.003-0.008-0.005-0.016-0.007-0.024l-1.048-4.776l-0.763,3.484c-0.029,0.134-0.155,0.225-0.298,0.19 c-0.135-0.029-0.22-0.163-0.19-0.298l0.997-4.545c0.033-0.083,0.124-0.19,0.213-0.203c0.021-0.003,0.05-0.005,0.069-0.002 c0.106,0.012,0.203,0.091,0.226,0.195l1.277,5.822c0.002,0.008,0.004,0.016,0.006,0.023c0.064,0.292,0.184,0.563,0.354,0.806 c0.712,1.015,2.117,1.265,3.134,0.553c1.016-0.712,1.264-2.118,0.552-3.134c-0.17-0.243-0.385-0.448-0.637-0.608 c-0.071-0.046-0.114-0.124-0.115-0.208c-0.001-0.085,0.041-0.164,0.111-0.211c0.094-0.062,0.215-0.055,0.298,0.014 c0.297,0.193,0.55,0.438,0.753,0.727c0.869,1.242,0.566,2.96-0.675,3.831C43.344,65.884,42.794,66.044,42.25,66.044z"/></g></g><g><path fill="#8889b9" d="M54.25,39.3c-0.304,0-0.55-0.246-0.55-0.55v-4.5c0-0.304,0.246-0.55,0.55-0.55h15.5 c0.304,0,0.55,0.246,0.55,0.55v4.5c0,0.304-0.246,0.55-0.55,0.55H54.25z"/><path fill="#472b29" d="M69.6,34.4v4.2H54.4v-4.2H69.6 M69.75,33h-15.5C53.56,33,53,33.56,53,34.25v4.5 c0,0.69,0.56,1.25,1.25,1.25h15.5c0.69,0,1.25-0.56,1.25-1.25v-4.5C71,33.56,70.44,33,69.75,33L69.75,33z"/></g></svg>