<svg xmlns="http://www.w3.org/2000/svg" viewBox="0 0 30 30"><path d="M 13.001953 1.0019531 C 13.001953 1.0019531 12.001953 4.0019531 12.001953 8.0019531 L 12.001953 10.001953 C 12.001953 6.0019531 11.001953 3.0019531 11.001953 3.0019531 C 11.001953 3.0019531 10.001953 6.0019531 10.001953 10.001953 L 10.001953 12.001953 C 10.001953 8.0019531 9.0019531 5.0019531 9.0019531 5.0019531 C 9.0019531 5.0019531 8.0019531 8.0019531 8.0019531 12.001953 L 8.0019531 19 C 6.3859531 18.413 4 18 4 18 C 4 18 4.7395625 21.836 5.7265625 23 L 5 23 C 3.933 23 3 25 3 25 C 3 25 3.933 27 5 27 L 25 27 C 26.067 27 27 25 27 25 C 27 25 26.507969 23.95986 25.833984 23.380859 C 26.203638 22.838863 26.369835 22.156586 26.171875 21.460938 C 26.160915 21.421778 26.147959 21.379358 26.136719 21.339844 C 26.356512 21.222368 26.591393 21.103039 26.794922 20.990234 A 1.0001 1.0001 0 0 0 26.796875 20.990234 C 28.323445 20.143651 28.373919 17.859727 26.886719 16.945312 C 26.66666 16.810053 26.412953 16.666506 26.173828 16.525391 C 26.64565 14.841927 25.055278 13.199931 23.357422 13.611328 C 23.298642 13.625528 23.233677 13.643483 23.173828 13.658203 C 23.070926 13.466649 22.96649 13.260958 22.867188 13.082031 C 22.567386 12.540942 22.08434 12.195038 21.548828 12.027344 C 21.702939 11.678433 21.783353 11.327119 21.824219 10.996094 C 22.230056 10.504071 22.976332 10.215903 23.605469 10.3125 L 23.607422 10.3125 C 23.675852 10.32287 23.91508 10.400661 24.294922 10.306641 L 24.294922 10.304688 C 24.767044 10.187632 24.987555 9.9105509 25.101562 9.78125 C 25.638502 9.1747082 25.922989 8.790395 26.072266 8.7402344 A 1.0001 1.0001 0 0 0 25.798828 6.7890625 A 1.0001 1.0001 0 0 0 25.435547 6.8457031 C 24.411106 7.1899413 23.99733 7.9607577 23.677734 8.3613281 C 23.141732 8.3125253 22.609089 8.3737035 22.107422 8.5253906 C 22.33803 7.9287351 22.754611 7.3560637 23.279297 6.8789062 C 23.494332 6.6837336 23.823421 6.4373705 24.128906 6.0234375 C 24.453327 5.5838477 24.718726 4.9644854 24.537109 4.2402344 C 24.328415 3.4079754 23.570211 2.758587 22.587891 2.9921875 A 1.0001 1.0001 0 0 0 22.451172 4.9023438 C 22.344878 5.025965 22.185253 5.171797 21.935547 5.3984375 L 21.933594 5.3984375 C 20.967044 6.2774336 20.153712 7.4636626 19.953125 8.890625 C 19.863745 9.5268844 19.893231 10.091357 19.863281 10.527344 C 19.833291 10.963849 19.759124 11.220286 19.625 11.392578 L 19.625 11.394531 C 19.53937 11.505184 19.257333 11.698443 18.904297 12.097656 L 18.904297 12.099609 C 18.528422 12.525807 18.295716 13.044849 18.201172 13.59375 C 18.134204 13.583449 18.068208 13.578401 18.001953 13.574219 L 18.001953 12.001953 C 18.001953 8.0019531 17.001953 5.0019531 17.001953 5.0019531 C 17.001953 5.0019531 16.001953 8.0019531 16.001953 12.001953 L 16.001953 9.0019531 C 16.001953 5.0019531 15.001953 2.0019531 15.001953 2.0019531 C 15.001953 2.0019531 14.001953 5.0019531 14.001953 9.0019531 L 14.001953 8.0019531 C 14.001953 4.0019531 13.001953 1.0019531 13.001953 1.0019531 z M 14 11 C 14 11 15 12.433 15 13 C 15 13.567 14.567 14 14 14 C 13.433 14 13 13.567 13 13 C 13 12.433 14 11 14 11 z M 11.5 12.5 C 11.5 12.5 13 14.675 13 15.5 C 13 16.325 12.325 17 11.5 17 C 10.675 17 10 16.325 10 15.5 C 10 14.675 11.5 12.5 11.5 12.5 z M 20.828125 13.847656 C 20.937675 13.84977 21.045358 13.917616 21.119141 14.050781 A 1.0001 1.0001 0 0 0 21.119141 14.052734 C 21.331795 14.435905 21.554474 14.851072 21.769531 15.273438 A 1.0001 1.0001 0 0 0 22.916016 15.785156 C 23.229733 15.702086 23.537061 15.625011 23.828125 15.554688 C 24.140883 15.478908 24.338926 15.681311 24.251953 15.986328 C 24.185063 16.218446 24.112941 16.459136 24.039062 16.703125 A 1.0001 1.0001 0 0 0 24.507812 17.865234 C 24.970755 18.125335 25.426034 18.396039 25.839844 18.650391 C 26.102648 18.811978 26.0956 19.092771 25.826172 19.242188 C 25.410298 19.472683 24.956072 19.716809 24.496094 19.949219 A 1.0001 1.0001 0 0 0 23.990234 21.132812 C 24.082574 21.43439 24.169054 21.728491 24.246094 22.003906 A 1.0001 1.0001 0 0 0 24.248047 22.007812 C 24.336127 22.317324 24.140536 22.519293 23.828125 22.443359 C 23.536557 22.372679 23.227229 22.295557 22.916016 22.212891 A 1.0001 1.0001 0 0 0 21.769531 22.726562 C 21.554474 23.148929 21.329841 23.564095 21.117188 23.947266 C 20.968545 24.215002 20.685309 24.221216 20.525391 23.960938 C 20.289398 23.577082 20.040064 23.157719 19.798828 22.730469 A 1.0001 1.0001 0 0 0 18.675781 22.253906 C 18.416933 22.321306 18.162746 22.384612 17.919922 22.443359 C 17.615449 22.517199 17.418299 22.316024 17.501953 22.017578 L 17.501953 22.015625 C 17.592093 21.700178 17.689947 21.366579 17.794922 21.029297 A 1.0001 1.0001 0 0 0 17.298828 19.841797 C 16.914632 19.644381 16.538299 19.443477 16.189453 19.25 C 15.911573 19.095964 15.898846 18.81212 16.162109 18.650391 C 16.516578 18.433403 16.898321 18.205426 17.289062 17.982422 A 1.0001 1.0001 0 0 0 17.748047 16.818359 C 17.660607 16.535638 17.578854 16.256939 17.503906 15.992188 A 1.0001 1.0001 0 0 0 17.503906 15.990234 C 17.416156 15.682495 17.611027 15.479766 17.919922 15.554688 C 18.163142 15.613297 18.418886 15.676742 18.677734 15.744141 A 1.0001 1.0001 0 0 0 19.798828 15.269531 C 20.040673 14.842175 20.291749 14.422271 20.527344 14.039062 C 20.607158 13.90916 20.718575 13.845542 20.828125 13.847656 z M 20.021484 16.552734 C 20.021484 16.552734 20.198906 17.598109 20.378906 18.412109 C 19.643906 18.269109 18.552734 18.021484 18.552734 18.021484 C 18.552734 18.021484 19.404375 18.602203 20.109375 19.033203 C 19.480375 19.431203 18.552734 19.978516 18.552734 19.978516 C 18.552734 19.978516 19.598109 19.801094 20.412109 19.621094 C 20.269109 20.356094 20.021484 21.447266 20.021484 21.447266 C 20.021484 21.447266 20.602203 20.596625 21.033203 19.890625 C 21.431203 20.519625 21.978516 21.447266 21.978516 21.447266 C 21.978516 21.447266 21.801094 20.401891 21.621094 19.587891 C 22.356094 19.730891 23.447266 19.978516 23.447266 19.978516 C 23.447266 19.978516 22.596625 19.397797 21.890625 18.966797 C 22.519625 18.568797 23.447266 18.021484 23.447266 18.021484 C 23.447266 18.021484 22.401891 18.198906 21.587891 18.378906 C 21.730891 17.643906 21.978516 16.552734 21.978516 16.552734 C 21.978516 16.552734 21.397797 17.404375 20.966797 18.109375 C 20.568797 17.480375 20.021484 16.552734 20.021484 16.552734 z M 10.494141 20.291016 C 11.568457 20.238818 13 20.732422 13 20.732422 C 13 20.732422 13.731178 20.50165 14.537109 20.384766 C 14.719484 20.623253 14.935431 20.840996 15.21875 20.998047 C 15.353902 21.073007 15.508211 21.151647 15.650391 21.228516 C 15.627591 21.306956 15.599935 21.39243 15.578125 21.46875 C 15.403913 22.08158 15.509542 22.687704 15.789062 23.193359 C 15.117247 23.885079 14.119443 24.332031 13 24.332031 C 11 24.332031 9.3320313 22.932219 9.3320312 21.199219 C 9.3320312 20.549344 9.8495508 20.322334 10.494141 20.291016 z"/></svg>