<svg xmlns="http://www.w3.org/2000/svg" viewBox="0 0 48 48"><circle cx="36.334" cy="30.8" r=".968" fill="#535352"/><rect width="2.5" height="1.667" x="35.417" y="28.208" fill="#898989" transform="rotate(10.486 36.662 29.044)"/><linearGradient id="YyNfmnVc90IMWzz5iwU_fa" x1="5.352" x2="6.254" y1="31.108" y2="40.021" gradientTransform="rotate(9.794 122.896 44.01)" gradientUnits="userSpaceOnUse"><stop offset="0" stop-color="#0b71d9"/><stop offset="1" stop-color="#264774"/></linearGradient><polygon fill="url(#YyNfmnVc90IMWzz5iwU_fa)" points="14.781,17.434 10.159,15.219 6.371,8.891 3.509,8.397 3.77,18.265 10.965,17.013"/><linearGradient id="YyNfmnVc90IMWzz5iwU_fb" x1="23.167" x2="23.167" y1="35.153" y2="42.897" gradientTransform="rotate(9.794 122.896 44.01)" gradientUnits="userSpaceOnUse"><stop offset="0" stop-color="#999"/><stop offset=".084" stop-color="#b6b6b6"/><stop offset=".179" stop-color="#cecece"/><stop offset=".278" stop-color="#e0e0e0"/><stop offset=".384" stop-color="#ebebeb"/><stop offset=".508" stop-color="#eee"/><stop offset="1" stop-color="#9b9b9b"/></linearGradient><path fill="url(#YyNfmnVc90IMWzz5iwU_fb)" d="M39.463,29.34L20.82,26.121c-2.208-0.381-6.81-2.445-8.142-3.257L3.77,18.265l-0.051-2.373	c3.276,0.228,7.819,0.767,10.353,1.204l14.488,2.502l4.472,0.772l6.042,1.043c1.345,0.232,2.878,0.579,3.51,1.302l1.315,1.481	c2.2,1.04,3.588,2.6,3.393,3.731l0,0C47.12,28.919,45.74,30.424,39.463,29.34z"/><linearGradient id="YyNfmnVc90IMWzz5iwU_fc" x1="22.91" x2="22.91" y1="40.344" y2="47.204" gradientTransform="rotate(9.794 122.896 44.01)" gradientUnits="userSpaceOnUse"><stop offset="0" stop-color="#0b71d9"/><stop offset="1" stop-color="#264774"/></linearGradient><path fill="url(#YyNfmnVc90IMWzz5iwU_fc)" d="M28.75,30.456l-2.693-0.465c-1.077-0.186-2.136-0.469-3.163-0.844l-3.137-1.148	c-0.527-0.193-0.84-0.735-0.745-1.288v0c0.109-0.632,0.71-1.056,1.341-0.946l8.94,1.544c0.226,0.039,0.378,0.254,0.339,0.481	l-0.402,2.328C29.191,30.343,28.976,30.495,28.75,30.456z"/><path fill="#1156a8" d="M10.937,20.104L2.47,18.14c-0.386-0.09-0.594-0.455-0.546-0.661c0,0,0.102-0.439,1.001-0.389	c3.322,0.265,5.775,0.505,8.041,1.031c0.605,0.14,1.592,0.64,1.395,1.49C12.281,19.953,11.672,20.334,10.937,20.104z"/><linearGradient id="YyNfmnVc90IMWzz5iwU_fd" x1="24" x2="24" y1="45.517" y2="38.4" gradientUnits="userSpaceOnUse"><stop offset="0" stop-color="#333"/><stop offset="1" stop-color="gray"/></linearGradient><rect width="46" height="7" x="1" y="37" fill="url(#YyNfmnVc90IMWzz5iwU_fd)"/><rect width="3" height="1" x="1" y="40" fill="#d8d8d8"/><rect width="3" height="1" x="8" y="40" fill="#d8d8d8"/><rect width="3" height="1" x="15" y="40" fill="#d8d8d8"/><rect width="3" height="1" x="22" y="40" fill="#d8d8d8"/><rect width="3" height="1" x="29" y="40" fill="#d8d8d8"/><rect width="3" height="1" x="36" y="40" fill="#d8d8d8"/><rect width="3" height="1" x="43" y="40" fill="#d8d8d8"/><path fill="#2c8ddd" d="M43.898,24.196l-1.014-1.142l-2.535-0.438l0.215,0.515c0.168,0.368,1.606,0.782,3.378,1.088	C43.927,24.212,43.914,24.204,43.898,24.196z"/><linearGradient id="YyNfmnVc90IMWzz5iwU_fe" x1="27.468" x2="27.707" y1="41.25" y2="45.222" gradientTransform="rotate(9.794 122.896 44.01)" gradientUnits="userSpaceOnUse"><stop offset="0" stop-color="#999"/><stop offset=".084" stop-color="#b6b6b6"/><stop offset=".179" stop-color="#cecece"/><stop offset=".278" stop-color="#e0e0e0"/><stop offset=".384" stop-color="#ebebeb"/><stop offset=".508" stop-color="#eee"/><stop offset="1" stop-color="#9b9b9b"/></linearGradient><path fill="url(#YyNfmnVc90IMWzz5iwU_fe)" d="M29.293,27.308L28.67,27.2l-0.544,3.148l0.624,0.108c0.226,0.039,0.442-0.113,0.481-0.339	l0.402-2.328C29.671,27.562,29.519,27.347,29.293,27.308z"/><path fill="#2c8ddd" d="M35.518,23.747l0.417,0.072c0.148,0.026,0.289-0.074,0.315-0.222l0.072-0.417	c0.026-0.148-0.074-0.289-0.222-0.315l-0.417-0.072c-0.148-0.026-0.289,0.074-0.315,0.222l-0.072,0.417	C35.271,23.581,35.37,23.722,35.518,23.747z"/><path fill="#2c8ddd" d="M33.61,23.418l0.417,0.072c0.148,0.026,0.289-0.074,0.315-0.222l0.072-0.417	c0.026-0.148-0.074-0.289-0.222-0.315l-0.417-0.072c-0.148-0.026-0.289,0.074-0.315,0.222l-0.072,0.417	C33.363,23.251,33.462,23.392,33.61,23.418z"/><path fill="#2c8ddd" d="M31.702,23.088l0.417,0.072c0.148,0.026,0.289-0.074,0.315-0.222l0.072-0.417	c0.026-0.148-0.074-0.289-0.222-0.315l-0.417-0.072c-0.148-0.026-0.289,0.074-0.315,0.222l-0.072,0.417	C31.455,22.922,31.554,23.063,31.702,23.088z"/><path fill="#2c8ddd" d="M29.795,22.759l0.417,0.072c0.148,0.026,0.289-0.074,0.315-0.222l0.072-0.417	c0.026-0.148-0.074-0.289-0.222-0.315l-0.417-0.072c-0.148-0.026-0.289,0.074-0.315,0.222l-0.072,0.417	C29.547,22.592,29.646,22.733,29.795,22.759z"/><path fill="#2c8ddd" d="M27.887,22.43l0.417,0.072c0.148,0.026,0.289-0.074,0.315-0.222l0.072-0.417	c0.026-0.148-0.074-0.289-0.222-0.315l-0.417-0.072c-0.148-0.026-0.289,0.074-0.315,0.222l-0.072,0.417	C27.639,22.263,27.738,22.404,27.887,22.43z"/><path fill="#2c8ddd" d="M25.979,22.1l0.417,0.072c0.148,0.026,0.289-0.074,0.315-0.222l0.072-0.417	c0.026-0.148-0.074-0.289-0.222-0.315l-0.417-0.072c-0.148-0.026-0.289,0.074-0.315,0.222l-0.072,0.417	C25.731,21.934,25.831,22.075,25.979,22.1z"/><path fill="#2c8ddd" d="M24.071,21.771l0.417,0.072c0.148,0.026,0.289-0.074,0.315-0.222l0.072-0.417	c0.026-0.148-0.074-0.289-0.222-0.315l-0.417-0.072c-0.148-0.026-0.289,0.074-0.315,0.222l-0.072,0.417	C23.823,21.604,23.923,21.745,24.071,21.771z"/><path fill="#2c8ddd" d="M22.163,21.441l0.417,0.072c0.148,0.026,0.289-0.074,0.315-0.222l0.072-0.417	c0.026-0.148-0.074-0.289-0.222-0.315l-0.417-0.072c-0.148-0.026-0.289,0.074-0.315,0.222l-0.072,0.417	C21.915,21.275,22.015,21.416,22.163,21.441z"/><path fill="#2c8ddd" d="M20.255,21.112l0.417,0.072c0.148,0.026,0.289-0.074,0.315-0.222l0.072-0.417	c0.026-0.148-0.074-0.289-0.222-0.315l-0.417-0.072c-0.148-0.026-0.289,0.074-0.315,0.222l-0.072,0.417	C20.008,20.945,20.107,21.086,20.255,21.112z"/><path fill="#2c8ddd" d="M18.347,20.782l0.417,0.072c0.148,0.026,0.289-0.074,0.315-0.222l0.072-0.417	c0.026-0.148-0.074-0.289-0.222-0.315l-0.417-0.072c-0.148-0.026-0.289,0.074-0.315,0.222l-0.072,0.417	C18.1,20.616,18.199,20.757,18.347,20.782z"/><path fill="#2c8ddd" d="M16.439,20.453l0.417,0.072c0.148,0.026,0.289-0.074,0.315-0.222l0.072-0.417	c0.026-0.148-0.074-0.289-0.222-0.315l-0.417-0.072c-0.148-0.026-0.289,0.074-0.315,0.222l-0.072,0.417	C16.192,20.287,16.291,20.427,16.439,20.453z"/><path fill="#2c8ddd" d="M14.531,20.124l0.417,0.072c0.148,0.026,0.289-0.074,0.315-0.222l0.072-0.417	c0.026-0.148-0.074-0.289-0.222-0.315l-0.417-0.072c-0.148-0.026-0.289,0.074-0.315,0.222l-0.072,0.417	C14.284,19.957,14.383,20.098,14.531,20.124z"/><path fill="#c3c3c3" d="M37.768,25.118l-0.595-0.103c-0.099-0.017-0.166-0.111-0.149-0.211l0.267-1.549	c0.017-0.099,0.111-0.166,0.211-0.149l0.595,0.103c0.099,0.017,0.166,0.111,0.149,0.211l-0.267,1.549	C37.961,25.069,37.867,25.135,37.768,25.118z"/><linearGradient id="YyNfmnVc90IMWzz5iwU_ff" x1="44.616" x2="44.616" y1="40.067" y2="42.469" gradientTransform="rotate(9.794 122.896 44.01)" gradientUnits="userSpaceOnUse"><stop offset="0" stop-color="#0b71d9"/><stop offset="1" stop-color="#264774"/></linearGradient><path fill="url(#YyNfmnVc90IMWzz5iwU_ff)" d="M45.168,29.538c1.537-0.328,2.026-1.049,2.123-1.61c0.099-0.574-0.215-1.256-0.832-1.925	c-0.097-0.105-0.776,0.357-1.183,1.614C44.929,28.689,45.064,29.56,45.168,29.538z"/><linearGradient id="YyNfmnVc90IMWzz5iwU_fg" x1="23.728" x2="2.546" y1="43.729" y2="43.729" gradientTransform="rotate(9.794 122.896 44.01)" gradientUnits="userSpaceOnUse"><stop offset="0" stop-color="#0b71d9"/><stop offset="1" stop-color="#264774"/></linearGradient><path fill="url(#YyNfmnVc90IMWzz5iwU_fg)" d="M15.455,28.111l-6.115-1.209c2.268-0.867,3.726-1.547,5.275-2.221	c0,0,1.276-0.516,3.007-0.586c4.841-0.065,7.962-0.099,11.297,0.477c2.11,0.571,2.904,2.384,0.681,2.696	C27.768,27.444,17.02,28.054,15.455,28.111z"/><path fill="#177fdd" d="M14.989,28.279l-5.361-0.926c-0.243-0.042-0.334-0.215-0.316-0.319c0,0-0.13-0.25,0.427-0.232	c2.063,0.106,3.731,0.23,5.158,0.476c0.381,0.066,1.017,0.31,0.943,0.74C15.809,28.192,15.455,28.389,14.989,28.279z"/></svg>