<?xml version="1.0"?><svg xmlns="http://www.w3.org/2000/svg" viewBox="0 0 128 128">    <path d="M 35.898438 21.947266 C 35.700781 21.945508 35.500781 21.9625 35.300781 22 C 33.700781 22.4 32.7 23.999609 33 25.599609 L 34.199219 31.099609 C 34.399219 32.599609 35.699609 33.5 37.099609 33.5 C 37.299609 33.5 37.500781 33.500391 37.800781 33.400391 C 39.400781 33.000391 40.399609 31.400781 40.099609 29.800781 L 38.900391 24.300781 C 38.550391 22.900781 37.282031 21.95957 35.898438 21.947266 z M 20.761719 30.599609 C 19.999219 30.599609 19.249219 30.9 18.699219 31.5 C 17.499219 32.7 17.499219 34.599219 18.699219 35.699219 L 24.900391 42 C 25.500391 42.6 26.3 42.900391 27 42.900391 C 27.8 42.900391 28.499609 42.6 29.099609 42 C 30.299609 40.8 30.299609 38.900781 29.099609 37.800781 L 22.900391 31.5 C 22.300391 30.9 21.524219 30.599609 20.761719 30.599609 z M 42.199219 33.800781 C 42.099219 33.800781 42.000781 33.900391 41.800781 33.900391 L 41.599609 33.900391 L 41 34.199219 C 41 34.199219 40.900391 34.200781 40.900391 34.300781 C 40.800391 34.400781 40.6 34.499609 40.5 34.599609 L 40.400391 34.599609 L 21.800781 53.400391 C 21.700781 53.600391 21.500391 53.700391 21.400391 53.900391 L 21.099609 54.5 L 21.099609 54.699219 C 21.099609 54.799219 21 54.899609 21 55.099609 L 21 55.199219 L 21 55.400391 L 21 55.800781 L 21 55.900391 L 24 77.900391 L 24 78 C 24 78.1 23.999609 78.200781 24.099609 78.300781 C 24.099609 78.400781 24.199219 78.499609 24.199219 78.599609 C 24.199219 78.699609 24.300781 78.800781 24.300781 78.800781 C 24.300781 78.900781 24.4 78.999609 24.5 79.099609 C 24.5 79.199609 24.599609 79.200781 24.599609 79.300781 C 24.699609 79.400781 24.700781 79.499609 24.800781 79.599609 L 24.900391 79.699219 L 25 79.800781 C 25.1 79.900781 25.200781 80 25.300781 80 C 25.400781 80 25.4 80.099609 25.5 80.099609 C 25.6 80.199609 25.700781 80.200781 25.800781 80.300781 C 25.900781 80.300781 25.9 80.400391 26 80.400391 C 26.1 80.400391 26.300391 80.5 26.400391 80.5 L 26.5 80.5 C 26.7 80.5 26.899609 80.599609 27.099609 80.599609 L 48.400391 80.599609 C 49.100391 83.099609 50.299219 85.400781 52.199219 87.300781 C 54.999219 90.200781 58.900391 91.699609 62.900391 91.599609 C 66.000391 91.599609 68.900391 90.600391 71.400391 88.900391 L 71.599609 89.099609 L 79.400391 97 C 77.700391 100.4 78.299609 104.7 81.099609 107.5 C 82.799609 109.2 85.099609 110.19922 87.599609 110.19922 C 89.999609 110.19922 92.399609 109.2 94.099609 107.5 C 96.799609 104.8 97.5 100.70039 96 97.400391 L 109.69922 83 C 110.89922 83.6 112.29961 83.900391 113.59961 83.900391 C 115.99961 83.900391 118.39961 82.899219 120.09961 81.199219 C 123.69961 77.599219 123.69961 71.799219 120.09961 68.199219 C 118.39961 66.499219 116.09961 65.5 113.59961 65.5 C 111.19961 65.5 108.79961 66.499219 107.09961 68.199219 C 104.29961 70.899219 103.80039 75.199609 105.40039 78.599609 L 91.900391 92.699219 C 90.600391 91.999219 89.1 91.599609 87.5 91.599609 C 86.1 91.599609 84.7 91.9 83.5 92.5 L 75.699219 84.699219 C 75.599219 84.599219 75.5 84.6 75.5 84.5 C 77.2 82.1 78.099219 79.1 78.199219 76 C 78.299219 71.9 76.700391 68.099219 73.900391 65.199219 C 72.000391 63.299219 69.800781 62.000391 67.300781 61.400391 L 67.300781 39.900391 L 67.300781 39.800781 L 67.300781 39.400391 L 67.300781 39.199219 C 67.300781 39.099219 67.199219 38.900781 67.199219 38.800781 C 67.199219 38.700781 67.099609 38.699609 67.099609 38.599609 C 66.999609 38.499609 67.000391 38.400781 66.900391 38.300781 C 66.900391 38.200781 66.800781 38.199609 66.800781 38.099609 C 66.700781 37.999609 66.699609 37.900781 66.599609 37.800781 C 66.599609 37.800781 66.6 37.699219 66.5 37.699219 L 66.400391 37.599609 C 66.300391 37.499609 66.199609 37.400391 66.099609 37.400391 C 65.999609 37.400391 66.000391 37.300781 65.900391 37.300781 C 65.800391 37.200781 65.699609 37.199609 65.599609 37.099609 C 65.499609 37.099609 65.500391 37 65.400391 37 C 65.300391 37 65.199609 36.900391 65.099609 36.900391 C 64.999609 36.900391 64.900391 36.900781 64.900391 36.800781 L 64.800781 36.800781 L 43 33.800781 L 42.900391 33.800781 L 42.5 33.800781 L 42.300781 33.800781 L 42.199219 33.800781 z M 46.099609 40.300781 L 58 42 L 47.800781 52.300781 L 46.099609 40.300781 z M 40.400391 43.199219 L 42.099609 55.199219 L 30.199219 53.5 L 40.400391 43.199219 z M 12.203125 45.814453 C 10.819531 45.761133 9.5492187 46.711719 9.1992188 48.199219 C 8.8992188 49.699219 9.9 51.299219 11.5 51.699219 L 17 53 C 17.2 53.1 17.499219 53.099609 17.699219 53.099609 C 19.099219 53.099609 20.299609 52.200781 20.599609 50.800781 C 20.999609 49.200781 20.000781 47.599219 18.300781 47.199219 L 12.800781 45.900391 C 12.600781 45.850391 12.400781 45.82207 12.203125 45.814453 z M 61.300781 47.099609 L 61.300781 74.400391 L 34.199219 74.400391 L 47.800781 60.699219 L 61.300781 47.099609 z M 27.400391 59.099609 L 39.300781 60.800781 L 29.099609 71.099609 L 27.400391 59.099609 z M 67.300781 67 C 68.400781 67.5 69.299219 68.1 70.199219 69 C 71.999219 70.8 73 73.3 73 76 C 72.9 81.5 68.300781 85.999609 62.800781 86.099609 C 60.200781 86.099609 57.700391 85.200781 55.900391 83.300781 C 55.100391 82.500781 54.400391 81.500391 53.900391 80.400391 L 64.300781 80.400391 C 66.000781 80.400391 67.300781 79.100391 67.300781 77.400391 L 67.300781 67 z M 113.59961 71.400391 C 114.39961 71.400391 115.20078 71.700781 115.80078 72.300781 C 117.00078 73.500781 117.00078 75.600781 115.80078 76.800781 C 114.60078 78.000781 112.50078 78.000781 111.30078 76.800781 C 110.20078 75.500781 110.20039 73.500781 111.40039 72.300781 C 112.00039 71.700781 112.79961 71.400391 113.59961 71.400391 z M 87.5 97.699219 C 88.3 97.699219 89.099219 97.999609 89.699219 98.599609 C 90.999219 99.799609 91.000781 101.79961 89.800781 103.09961 C 88.600781 104.29961 86.500781 104.29961 85.300781 103.09961 C 84.100781 101.89961 84.100781 99.799609 85.300781 98.599609 C 85.900781 97.999609 86.7 97.699219 87.5 97.699219 z"/></svg>