<svg xmlns="http://www.w3.org/2000/svg" viewBox="0 0 24 24"><path d="M 12.8125 0 C 12.511719 0.300781 9.90625 5.605469 16.40625 6.40625 C 19.40625 6.804688 20.601563 7.105469 21 8.90625 C 21.199219 6.304688 18.789063 5.800781 16.6875 5.5 C 11.1875 4.898438 12.710938 0.300781 12.8125 0 Z M 16.875 0 C 16.449219 0.0390625 16.125 0.164063 16 0.3125 C 17 0.113281 20.105469 1.1875 19.90625 3.1875 C 24.207031 4.085938 23.59375 9 23.59375 9 C 25.292969 4.199219 21.488281 2.5 20.6875 2.5 C 20.3125 0.398438 18.148438 -0.121094 16.875 0 Z M 0 10 L 0 14 L 18 14 L 18 10 Z M 19 10 L 19 14 L 21 14 L 21 10 Z M 22 10 L 22 14 L 24 14 L 24 10 Z"/></svg>