<svg xmlns="http://www.w3.org/2000/svg" viewBox="0 0 40 40"><rect width="14" height="4" x="12.5" y="24.5" fill="#dcd5f2"/><path fill="#8b75a1" d="M26,25v3H13v-3H26 M27,24H12v5h15V24L27,24z"/><rect width="8" height="6" x="15.5" y="1.5" fill="#ffeea3"/><rect width="8" height="1" x="15.5" y="3" fill="#f5ce85"/><rect width="8" height="1" x="15.5" y="5" fill="#f5ce85"/><path fill="#ba9b48" d="M23,2v5h-7V2H23 M24,1h-9v7h9V1L24,1z"/><polygon fill="#b0c1d4" points="25.5,20.5 25.5,14.75 21.167,11.5 17.833,11.5 13.5,14.75 13.5,20.5 11.391,20.5 9.554,13.153 15.207,7.5 23.793,7.5 29.446,13.153 27.609,20.5"/><path fill="#66798f" d="M23.586,8l5.307,5.307L27.219,20H26v-5v-0.5l-0.4-0.3l-4-3L21.333,11H21h-3h-0.333L17.4,11.2l-4,3	L13,14.5V15v5h-1.219l-1.673-6.693L15.414,8H23.586 M24,7h-9l-6,6l2,8h3v-6l4-3h3l4,3v6h3l2-8L24,7L24,7z"/><rect width="37" height="10" x="1" y="28.5" fill="#e1f5ff"/><rect width="37" height="1" x="1" y="38" fill="#7496c4"/><rect width="37" height="1" x="1" y="28" fill="#7496c4"/><circle cx="33.5" cy="33.5" r="2.5" fill="#b5ddf5"/><circle cx="26.5" cy="33.5" r="2.5" fill="#b5ddf5"/><circle cx="19.5" cy="33.5" r="2.5" fill="#b5ddf5"/><circle cx="12.5" cy="33.5" r="2.5" fill="#b5ddf5"/><circle cx="5.5" cy="33.5" r="2.5" fill="#b5ddf5"/></svg>