<svg xmlns="http://www.w3.org/2000/svg" width="512" height="512" viewBox="0 0 512 512"><path fill="#1E4384" d="M179.2,352.5c-8.4-12.5-14.9-25.6-19.3-40.1c-8.7-28.5-9.9-58.4-5.1-87.8c1.2-7.2,2.5-14.3,3.9-21.5c-0.8-0.6-1.5-1.4-1.9-2.3c0,0-0.1,0-0.1,0c-1-0.5-2-0.9-3-1.2c-2.4-0.9-4.9-1.5-7.3-2.2c-0.1,0-0.2-0.1-0.3-0.1c-11.7,45.1-16.9,95.1,11,134.3c6.7,9.4,15.1,17.6,24.7,24.4C180.8,354.8,180,353.7,179.2,352.5z"/><path fill="#C56528" d="M414,167.5c-0.8-1-1.2-2-1.2-2.9c-1.8-0.4-3.4-0.7-4.6-1.1c-5.3-1.7-8.2-5.3-11.7-9.2c4.4,9.4,8.7,18.9,12.7,28.5c7.9,2.9,14.8,7.8,22.1,12.2C426.6,185.2,420.9,176,414,167.5z"/><path fill="#EF4823" d="M403.8,123.6v-1.4c-0.5-0.1-1.1-0.2-1.6-0.3c-5.9-0.5-5.6-7.8-1.4-10.3c-0.5-0.9-1-1.9-1.6-3.2c-2.9-5.7-5.7-11.3-8.6-16.9c-4.3-8.3-8.3-17.4-13.5-25.2c-1.5-0.1-2.7-0.6-3.6-1.4c-0.4,0-0.7-0.1-1.1-0.1c-3.6-0.4-7.2-0.6-10.8-0.7c-10.2-0.3-20.4-0.2-30.6,0.3c-9.7,0.5-19.5,1.1-29.1,2.8c-3.2,0.6-6.5,1.2-9.6,2.5c-1,0.4-1.1,0.4-1.3,0.5c-0.1,0.9-0.5,1.7-1,2.3c14,24.8,25,51.1,33.6,78.2c4.1,12.8,8,25.8,11.6,38.9c1.1-0.8,2.4-1.3,4-1.2c10.7,0.7,21.4-1.8,31.8-4.1c7.7-1.6,16.5-4,24.7-4c-5.6-13.1-11.7-26-18-38.8c-0.4-0.7-0.5-1.4-0.6-2c-3-1.6-4.6-5.4-1.4-8.2C383.6,124.1,393.9,124.4,403.8,123.6z"/><path fill="#1E4384" d="M157.3,194.6c-1.8,2.5-1.5,4.2-0.9,5.3C155.8,198.3,156,196.4,157.3,194.6z"/><path fill="#C56528" d="M418.5 97.8c-4.2-7.5-10.7-13.7-16.9-19.5-2.8-2.6-5.7-5.4-8.9-7.8 2.9 5.5 5.5 11.1 8.2 16.4 4.2 8.1 8.3 16.2 12.4 24.3.5 1.1.7 2 .6 2.9.8.9 1.3 2 1.3 3.2v10.8c0 1.6-.5 3-1.3 4 4 5.4 11.7 9.4 18.8 11.3C428.6 128.1 426.2 111.7 418.5 97.8zM402.2 135.1c-2 .1-4.1.2-6.1.4-.7.1-1.4.1-2.1.2 5.4 4.3 10.6 10.7 12.7 12.9 1.7 1.9 2.7 3.3 4.3 3.9 2.7 1 5.8 1.3 8.7 1.6 2.9.2 5.8.2 8.7-.1C417.6 150.9 406.8 144.4 402.2 135.1zM198 80.3c-.2-.5-.5-1-.8-1.5-11.3 8.4-17.4 23.4-22.9 36-7.7 17.7-14.4 35.9-20.2 54.3-1.7 5.5-3.5 11.2-5.1 17 4.2 1 8.8 2.4 12.4 4.3 3-13.3 6.6-26.4 11-39.2 7.1-20.9 16.9-41.4 33.3-56.4C203.1 90 200.4 85.2 198 80.3z"/><path fill="#1E4384" d="M454.2,312.3c-1.6-33.2-4.6-69.2-16.2-101.3c-5.8-2.6-11.2-5.9-16.7-9.3c-1.9-1.2-3.9-2.4-6-3.7c12.6,32.8,22.1,66.8,26,101.8c2.6,22.7,3,45.9-4.1,67.9c-6.1,18.7-16.1,35.9-29.9,50c-9.5,9.8-20.4,18.2-32.1,25.3c9.4-3.8,18.5-8.3,27.2-14c18.2-11.9,34-27.8,43.1-47.7C455.7,359,455.3,336.1,454.2,312.3z"/><path fill="#EF4823" d="M95.7,71c-8.5,12-7.2,29.3-14.3,42c4.9,0.6,9.7,1.4,14.6,2.4c5,1,5.5,6.7,2.9,9.6c-0.1,0.5-0.2,1.1-0.4,1.6c-7.9,20.1-15.3,40.6-21.4,61.5c11.4-0.2,22.8-0.8,34.2-1.9c8.7-0.9,17.8-3.3,26.5-2.2c4-14.4,8.8-28.6,13.9-42.6c5.3-14.7,11.1-29.3,18.1-43.3c4.6-9.3,9.7-18.6,17.4-25.6C156.6,72.6,126.1,73.4,95.7,71z"/><path fill="#1E4384" d="M431.7,321.2c-2.3-44.7-14.3-88-31-129.3c-1.1-0.2-2.3-0.2-3.4-0.2c-20.1,0.8-39.1,8.7-59.4,7.7c2.9,11.3,5.4,22.6,7.5,33.9c4.5,24.1,5.9,49.7-0.2,73.6c-6.1,24.3-19.4,45.3-39.4,60.5c-24.8,18.7-56.3,23.6-85.7,17.4c-2.3,0.8-5.2,0.3-7-1.7c-12.8-3.5-25.1-9.1-36.1-16.5c-20.5-13.9-36.3-34.2-44.1-57.8c-8.6-26-8.8-53.9-4.7-80.7c1.7-11.1,4-22.1,6.7-33c-0.8,0-1.9,0-0.7-0.2c-20,2.8-40.1,4.4-60.2,4.6c-5.8,21.4-10.1,43.2-12.2,65.4c-3.5,36.9-0.3,75,18.9,107.5c27,45.5,77,70.9,127.2,82.3c10.4,2.4,21,4.1,31.7,5.2c0.1-0.5,0.2-1,0.5-1.5c0.1,0,0.2,0.1,0.3,0.1c9.1,3.9,18.9,5.9,28.2,2.5c35.9-0.7,71.7-9.5,102.4-28.7c18.4-11.5,35-26.6,45.7-45.7C427.7,366.7,432.9,344,431.7,321.2z"/><path fill="#010101" d="M465.6,314.3c-0.8-17.8-2.2-35.6-4.7-53.2c-2.4-16.7-5.8-33.8-11.2-50.1c1.4-2.8,0.6-7.2-3.1-8.7c-5-13-11.3-25.3-19.6-36.5c8.6-0.2,16.6-2.5,17.4-9.7c0.1-0.6,0-1.1,0-1.6c1.4-1.6,2-4,1.4-6c-6.6-20.1-8.5-42.4-20-60.6c-5-7.9-13-14.9-20-21.1c-4.6-4.1-14.3-13.5-21.2-11.2c-0.2-0.1-0.3-0.2-0.5-0.2c-7.1-2.5-15.1-2.5-22.5-2.8c-11.6-0.5-23.2-0.2-34.8,0.4c-10.5,0.6-21,1.5-31.3,3.7c-5.3,1.2-15.2,3.5-15.6,10.4c0,0.7,0,1.3,0.2,1.9c-1.6,1.7-2.4,4.4-0.9,7c15.8,27.4,27.3,56.9,36.5,87c4.6,14.9,8.5,30,12.3,45.1c3.3,13.5,6.6,27,8.3,40.8c3,24.1,1.9,49.3-7.8,71.8c-9.5,22.3-28.2,40.3-50.8,49.1c-18.5,7.2-38.7,7.8-57.8,3.2c-4.5-5.1-12.5-8.6-17.6-11.3c-5.4-2.9-9.3-9.5-12.7-14.4c-4.4-6.2-8.8-12.8-11.9-19.8c-12.4-27.8-16.5-58-13.5-88.2c2.5-25.5,8.8-51.6,16.1-76.1c6.6-22.3,16.3-46.3,34.5-61.8l1-0.8c2.6-2.2,3-4.9,1.5-7.9c-2.4-4.7-4.9-9.2-7.4-13.9c-1.3-2.5-2.6-5.1-3.8-7.6c-0.5-1-0.9-2.1-1.4-3.2c-0.1-0.3-0.2-0.6-0.3-0.8c0.7-3.6-2.8-6.3-6.2-6.2c-0.5-0.1-1-0.2-1.6-0.2c-34.1,0-68.3,1.5-102.3-1.5c-1.9-0.2-3.4,0.5-4.6,1.5c-0.8,0.3-1.6,0.9-2.3,1.9c-5.8,7.8-8.4,17.1-10.7,26.5c-1.9,7.8-3.2,17.4-9.4,23.1c0,0-0.1,0.1-0.1,0.1c-4.6,2.1-3.1,10.8,3.3,10.9c5.5,0.1,10.9,0.8,16.3,1.7c-21.6,55.6-40.1,115.2-37.7,175.5c1.8,46.8,22.1,90.2,58.4,119.9c21,17.2,46,29,71.6,37.6c24.9,8.4,50.7,13.2,76.9,14.1c16.3,5.3,35.6,2.5,51.8-0.5c22.1-4.1,44.5-8,65.6-15.9c42-15.7,78.8-46.5,89.7-91.4C467.2,348,466.4,331.1,465.6,314.3z M431.2,194.9c-7.2-4.4-14.2-9.2-22.1-12.2c-4-9.6-8.2-19.1-12.7-28.5c3.5,3.9,6.4,7.5,11.7,9.2c1.2,0.4,2.8,0.8,4.6,1.1c0.1,0.9,0.4,1.9,1.2,2.9C420.9,176,426.6,185.2,431.2,194.9z M419.7,154.1c-2.9-0.2-6-0.6-8.7-1.6c-1.7-0.6-2.6-2-4.3-3.9c-2.1-2.3-7.2-8.6-12.7-12.9c0.7-0.1,1.4-0.1,2.1-0.2c2-0.2,4.1-0.3,6.1-0.4c4.6,9.3,15.4,15.8,26.2,18.9C425.5,154.3,422.6,154.3,419.7,154.1z M401.5,78.3c6.2,5.8,12.7,12,16.9,19.5c7.8,13.8,10.1,30.3,14.1,45.7c-7.1-1.9-14.8-5.9-18.8-11.3c0.9-1,1.3-2.4,1.3-4v-10.8c0-1.1-0.5-2.3-1.3-3.2c0.1-0.9,0-1.9-0.6-2.9c-4.1-8.1-8.2-16.2-12.4-24.3c-2.7-5.3-5.4-11-8.2-16.4C395.9,73,398.8,75.8,401.5,78.3z M335.2,189.4c-3.5-13.1-7.5-26.1-11.6-38.9c-8.7-27.1-19.6-53.5-33.6-78.2c0.5-0.6,0.8-1.4,1-2.3c0.2-0.1,0.2,0,1.3-0.5c3.1-1.2,6.3-1.9,9.6-2.5c9.6-1.7,19.4-2.4,29.1-2.8c10.2-0.5,20.4-0.6,30.6-0.3c3.6,0.1,7.2,0.3,10.8,0.7c0.4,0,0.7,0.1,1.1,0.1c0.9,0.8,2.1,1.3,3.6,1.4c5.2,7.9,9.2,16.9,13.5,25.2c2.9,5.6,5.8,11.3,8.6,16.9c0.7,1.3,1.2,2.3,1.6,3.2c-4.1,2.5-4.5,9.9,1.4,10.3c0.6,0,1.1,0.1,1.6,0.3v1.4c-9.9,0.8-20.2,0.5-28,7.5c-3.2,2.9-1.6,6.6,1.4,8.2c0.1,0.6,0.2,1.3,0.6,2c6.3,12.7,12.4,25.6,18,38.8c-8.2-0.1-17,2.3-24.7,4c-10.4,2.2-21.1,4.7-31.8,4.1C337.7,188.1,336.3,188.6,335.2,189.4z M179.2,352.5c0.8,1.2,1.6,2.3,2.4,3.4c-9.5-6.7-18-14.9-24.7-24.4c-27.8-39.2-22.6-89.3-11-134.3c0.1,0,0.2,0.1,0.3,0.1c2.5,0.6,4.9,1.3,7.3,2.2c1,0.4,2,0.8,3,1.2c0,0,0.1,0,0.1,0c0.5,0.9,1.1,1.7,1.9,2.3c-1.4,7.2-2.8,14.4-3.9,21.5c-4.8,29.4-3.6,59.3,5.1,87.8C164.3,326.9,170.7,340,179.2,352.5z M156.4,200c-0.6-1.1-0.9-2.9,0.9-5.3C156,196.4,155.8,198.3,156.4,200z M197.2,78.8c0.3,0.5,0.6,1,0.8,1.5c2.5,4.9,5.1,9.7,7.7,14.5c-16.3,15.1-26.2,35.6-33.3,56.4c-4.3,12.8-7.9,25.9-11,39.2c-3.6-1.9-8.2-3.3-12.4-4.3c1.6-5.8,3.4-11.5,5.1-17c5.8-18.4,12.5-36.6,20.2-54.3C179.7,102.2,185.8,87.2,197.2,78.8z M98.5,126.6c0.2-0.5,0.3-1.1,0.4-1.6c2.6-2.9,2.2-8.6-2.9-9.6c-4.8-1-9.7-1.8-14.6-2.4c7.1-12.6,5.8-30,14.3-42c30.4,2.4,60.9,1.6,91.3,1.4c-7.7,7-12.8,16.3-17.4,25.6c-6.9,14.1-12.7,28.6-18.1,43.3c-5.1,14-9.8,28.2-13.9,42.6c-8.7-1.1-17.8,1.3-26.5,2.2c-11.4,1.1-22.8,1.7-34.2,1.9C83.2,167.2,90.5,146.7,98.5,126.6z M370.8,432.3c-30.7,19.1-66.4,28-102.4,28.7c-9.2,3.4-19.1,1.4-28.2-2.5c-0.1,0-0.2-0.1-0.3-0.1c-0.2,0.5-0.4,1-0.5,1.5c-10.7-1.1-21.3-2.8-31.7-5.2c-50.2-11.5-100.3-36.8-127.2-82.3c-19.2-32.5-22.4-70.6-18.9-107.5c2.1-22.2,6.4-44,12.2-65.4c20.2-0.2,40.3-1.8,60.2-4.6c-1.2,0.2-0.1,0.1,0.7,0.2c-2.8,10.9-5.1,21.9-6.7,33c-4.1,26.9-3.9,54.7,4.7,80.7c7.8,23.6,23.6,44,44.1,57.8c11,7.4,23.3,13,36.1,16.5c1.7,2,4.7,2.5,7,1.7c29.5,6.2,61,1.3,85.7-17.4c20.1-15.1,33.3-36.2,39.4-60.5c6.1-23.9,4.6-49.5,0.2-73.6c-2.1-11.3-4.6-22.6-7.5-33.9c20.3,1,39.2-6.9,59.4-7.7c1.1,0,2.3,0,3.4,0.2c16.7,41.4,28.7,84.6,31,129.3c1.2,22.8-3.9,45.5-15.1,65.4C405.8,405.7,389.2,420.8,370.8,432.3z M445.5,381.2c-9.1,19.9-25,35.8-43.1,47.7c-8.7,5.7-17.8,10.3-27.2,14c11.7-7.1,22.5-15.5,32.1-25.3c13.8-14.1,23.8-31.3,29.9-50c7.2-22,6.7-45.2,4.1-67.9c-3.9-34.9-13.4-68.9-26-101.8c2.1,1.2,4.1,2.5,6,3.7c5.5,3.4,10.9,6.8,16.7,9.3c11.6,32.2,14.6,68.2,16.2,101.3C455.3,336.1,455.7,359,445.5,381.2z"/></svg>