<svg xmlns="http://www.w3.org/2000/svg" viewBox="0 0 26 26"><path d="M 13 0.101563 C 8.101563 0.101563 4.101563 3.101563 4.101563 10.199219 C 4.101563 17.300781 8.101563 25.800781 13 25.800781 C 17.898438 25.800781 21.898438 17.300781 21.898438 10.199219 C 21.898438 3.101563 17.898438 0.101563 13 0.101563 Z M 7.898438 17.5 C 4.601563 13.699219 4.898438 9.898438 5.5 7.898438 C 5.898438 11.101563 11.199219 14.5 11.199219 14.5 C 11.199219 14.5 10.800781 15.601563 7.898438 17.5 Z M 14.699219 14.398438 C 14.699219 14.398438 20 11 20.398438 7.800781 C 21 9.800781 21.398438 13.699219 18 17.398438 C 15.199219 15.601563 14.699219 14.398438 14.699219 14.398438 Z"/></svg>