<svg xmlns="http://www.w3.org/2000/svg" viewBox="0 0 26 26"><path d="M 14.59375 0 C 14.195313 0 13.894531 0.414063 14.09375 0.8125 L 16 3 L 24 3 L 24 1.5 C 24 1.199219 23.792969 1 23.59375 1 Z M 6.34375 3 C 6.320313 3.007813 6.300781 3.019531 6.28125 3.03125 L 0.78125 5.53125 L 0.78125 5.5625 C 0.628906 5.609375 0.410156 5.65625 0.21875 5.90625 C 0.0585938 6.113281 0.0195313 6.398438 0.0625 6.6875 C 0.0703125 6.730469 0.0820313 6.765625 0.09375 6.8125 C 0.105469 6.867188 0.109375 6.917969 0.125 6.96875 C 0.128906 7.023438 0.136719 7.074219 0.15625 7.125 L 1.59375 14.59375 C 1.695313 14.894531 1.886719 15 2.1875 15 L 7.40625 15 C 7.707031 14.898438 7.914063 14.707031 7.8125 14.40625 L 6.1875 6.40625 C 6.085938 6.105469 5.894531 6 5.59375 6 L 2.25 6 L 6.625 4 L 6.625 4.0625 L 8.21875 12 C 8.222656 12.199219 8.347656 12.375 8.53125 12.449219 C 8.714844 12.523438 8.925781 12.484375 9.066406 12.34375 C 9.207031 12.207031 9.257813 12 9.1875 11.8125 L 7.59375 3.8125 C 7.585938 3.789063 7.574219 3.769531 7.5625 3.75 C 7.484375 3.519531 7.332031 3.285156 7.125 3.15625 C 6.917969 3.027344 6.707031 3 6.5 3 C 6.46875 2.996094 6.4375 2.996094 6.40625 3 C 6.386719 3 6.363281 3 6.34375 3 Z M 15.59375 4 L 14.09375 5.5 C 13.894531 5.699219 14.011719 6 14.3125 6 L 16 6 C 16 8.199219 17.800781 10 20 10 C 22.199219 10 24 8.199219 24 6 L 24 4 Z M 16.40625 12 C 15.507813 12 14.605469 12.300781 13.90625 13 L 9.09375 17.3125 L 7.8125 16 L 2.1875 16 L 7.59375 21.40625 C 7.992188 21.804688 8.5 22 9 22 C 9.5 22 9.914063 21.800781 10.3125 21.5 L 13 19.1875 L 13 24.3125 L 22.1875 12 Z M 24.8125 12.59375 L 14.8125 26 L 26 26 L 26 15 C 26 14 25.511719 13.195313 24.8125 12.59375 Z"/></svg>