<svg xmlns="http://www.w3.org/2000/svg" viewBox="0 0 26 26"><path d="M 9.5 0 C 7.601563 0 6 1.601563 6 3.5 C 6 5.398438 7.601563 7 9.5 7 C 10.859375 7 12.050781 6.164063 12.625 5 L 19 5 L 20 4 L 20 3 L 19 2 L 18 2 L 17.1875 2.8125 L 16.5 2 L 15.6875 2 L 15.09375 2.59375 L 14.40625 2 L 12.625 2 C 12.050781 0.835938 10.859375 0 9.5 0 Z M 8.5 2.5 C 9.101563 2.5 9.5 2.898438 9.5 3.5 C 9.5 4.101563 9.101563 4.5 8.5 4.5 C 7.898438 4.5 7.5 4.101563 7.5 3.5 C 7.5 2.898438 7.898438 2.5 8.5 2.5 Z M 9.09375 9 C 7.292969 9 5.6875 10.199219 5.1875 12 L 4.46875 15 L 4 15 C 3.398438 15 3 15.398438 3 16 L 3 17 C 3 17.601563 3.398438 18 4 18 L 4 25 C 4 25.601563 4.398438 26 5 26 L 7 26 C 7.601563 26 8 25.601563 8 25 L 8 24 L 18 24 L 18 25 C 18 25.601563 18.398438 26 19 26 L 21 26 C 21.601563 26 22 25.601563 22 25 L 22 18 C 22.601563 18 23 17.601563 23 17 L 23 16 C 23 15.398438 22.601563 15 22 15 L 21.53125 15 L 20.8125 12 C 20.3125 10.199219 18.707031 9 16.90625 9 Z M 9.09375 11 L 16.90625 11 C 17.804688 11 18.613281 11.601563 18.8125 12.5 L 19.65625 16 L 6.34375 16 L 7.1875 12.5 C 7.386719 11.601563 8.195313 11 9.09375 11 Z M 7.5 19 C 8.300781 19 9 19.699219 9 20.5 C 9 21.300781 8.300781 22 7.5 22 C 6.699219 22 6 21.300781 6 20.5 C 6 19.699219 6.699219 19 7.5 19 Z M 18.5 19 C 19.300781 19 20 19.699219 20 20.5 C 20 21.300781 19.300781 22 18.5 22 C 17.699219 22 17 21.300781 17 20.5 C 17 19.699219 17.699219 19 18.5 19 Z"/></svg>