<svg xmlns="http://www.w3.org/2000/svg" viewBox="0 0 80 80"><path d="M 35.964844 5 C 29.954856 5.00728 23.936105 7.0856519 19.328125 11.257812 A 1.0011289 1.0011289 0 1 0 20.671875 12.742188 C 24.881895 8.9303481 30.418738 7.0067215 35.96875 7 C 41.540255 6.99328 47.100859 8.9150172 51.328125 12.742188 A 1.0011289 1.0011289 0 1 0 52.671875 11.257812 C 48.045141 7.0689828 41.997339 4.9927219 35.964844 5 z M 35.789062 11 C 31.516842 11.0074 27.235509 12.409387 23.941406 15.242188 A 1.0001 1.0001 0 1 0 25.244141 16.757812 C 28.134038 14.272614 31.957189 13.006623 35.792969 13 C 39.6498 12.9934 43.495447 14.258443 46.402344 16.757812 A 1.0001 1.0001 0 1 0 47.707031 15.242188 C 44.393928 12.393558 40.084232 10.992624 35.789062 11 z M 35.824219 16 C 33.111609 16 30.398763 17.122629 28.353516 19.318359 A 1.0001 1.0001 0 1 0 29.816406 20.681641 C 31.495156 18.879371 33.658828 18 35.824219 18 C 37.989609 18 40.1545 18.879714 41.832031 20.681641 A 1.0001 1.0001 0 1 0 43.294922 19.318359 C 41.250453 17.122286 38.536828 16 35.824219 16 z M 36 21 C 34.343 21 33 22.343 33 24 C 33 25.304625 33.837162 26.403316 35 26.816406 L 35 30 L 37 30 L 37 26.816406 C 38.162838 26.403316 39 25.304625 39 24 C 39 22.343 37.657 21 36 21 z M 26.779297 32 C 24.829434 32 23.052148 33.13516 22.234375 34.904297 L 17.527344 45.087891 L 8.3144531 46.416016 L 8.296875 46.419922 C 5.9348141 46.848943 4.0019531 48.864108 4.0019531 51.337891 L 4.0019531 62.417969 C 3.43949 62.774315 3 63.293682 3 64 L 3 67 C 3 67.657039 3.3605847 68.168258 3.7617188 68.488281 C 4.1628526 68.808304 4.6370516 69 5.1835938 69 L 12.267578 69 C 12.763864 72.937107 16.136493 76 20.208984 76 C 24.281476 76 27.654105 72.937107 28.150391 69 L 39.080078 69 L 42.078125 69 L 53.291016 69 C 53.785559 72.936003 57.148891 76 61.210938 76 C 65.272983 76 68.634619 72.936003 69.128906 69 L 76.001953 69 C 77.094998 69 78 68.091855 78 67 L 78 64 C 78 63.295698 77.562633 62.774953 77.001953 62.417969 L 77.001953 53.787109 C 77.001953 51.607381 75.692726 49.563742 73.509766 48.964844 L 59.074219 45.003906 L 59.074219 45 L 59.058594 45 L 58.78125 44.923828 L 50.820312 34.697266 C 49.49661 32.996861 47.462647 32 45.308594 32 L 42.080078 32 L 39.080078 32 L 26.779297 32 z M 26.779297 34 L 35.080078 34 L 35.080078 45 L 19.771484 45 L 24.048828 35.744141 C 24.541055 34.679277 25.60316 34 26.779297 34 z M 37.080078 34 L 39.080078 34 L 42.080078 34 L 45.308594 34 C 46.84654 34 48.295889 34.710185 49.242188 35.925781 L 56.304688 45 L 42.078125 45 L 39.080078 45 L 37.080078 45 L 37.080078 34 z M 18.277344 47 L 39.080078 47 L 42.078125 47 L 58.785156 47 L 72.980469 50.894531 C 74.01772 51.179103 74.687876 51.962588 74.912109 53 L 73.306641 53 C 71.662692 53 70.310547 54.356237 70.310547 56 C 70.310547 57.643763 71.662692 59 73.306641 59 L 75.001953 59 L 75.001953 62.080078 A 0.999 0.999 0 0 0 75 62.080078 A 0.999 0.999 0 0 0 75.001953 63.919922 L 75.001953 64 L 76 64 L 76 67 L 69.128906 67 C 68.977133 65.791433 68.554321 64.667984 67.923828 63.6875 A 0.999 0.999 0 0 0 67.199219 62.001953 A 0.999 0.999 0 0 0 66.652344 62.164062 C 65.224037 60.826413 63.313674 60 61.210938 60 C 59.035812 60 57.061951 60.880632 55.619141 62.300781 L 55.396484 62.0625 L 55.050781 62 L 54.248047 62.402344 L 54.091797 63.283203 L 54.486328 63.705078 C 53.861574 64.681596 53.441996 65.79837 53.291016 67 L 42.078125 67 L 39.080078 67 L 28.150391 67 C 28.012327 65.904725 27.652494 64.879404 27.115234 63.966797 L 27.851562 63.597656 L 28.009766 62.716797 L 27.396484 62.0625 L 27.050781 62 L 26.248047 62.402344 L 26.195312 62.705078 C 24.725644 61.050781 22.588634 60 20.208984 60 C 18.100145 60 16.183269 60.827868 14.75 62.166016 A 1.001 1.001 0 0 0 14.199219 61.998047 A 1.001 1.001 0 0 0 13.472656 63.6875 C 12.840688 64.667415 12.419852 65.791991 12.267578 67 L 5.1835938 67 C 5.1771358 67 5.0604285 66.967758 5.0078125 66.925781 C 4.9990432 66.918785 5.0040156 66.923778 5 66.919922 L 5 64 L 5.0019531 64 L 6.0019531 64 L 6.0019531 57 L 9.1914062 57 C 10.284491 57 11.193359 56.094271 11.193359 55 L 11.193359 53 C 11.193359 51.905729 10.284491 51 9.1914062 51 L 6.0371094 51 C 6.2121396 49.742486 7.3236896 48.628823 8.6523438 48.386719 L 8.6542969 48.386719 L 18.277344 47 z M 42.078125 49 L 42.078125 51 L 42.078125 49 z M 25.945312 50 A 1.0001 1.0001 0 1 0 25.945312 52 L 29.9375 52 A 1.0001 1.0001 0 1 0 29.9375 50 L 25.945312 50 z M 48.066406 50 A 1.0001 1.0001 0 1 0 48.066406 52 L 52.056641 52 A 1.0001 1.0001 0 1 0 52.056641 50 L 48.066406 50 z M 6.0019531 53 L 9.1914062 53 L 9.1933594 53 L 9.1933594 55 L 9.1914062 55 L 6.0019531 55 L 6.0019531 53 z M 73.306641 55 L 75.001953 55 L 75.001953 57 L 73.306641 57 C 72.74459 57 72.310547 56.566237 72.310547 56 C 72.310547 55.433763 72.74459 55 73.306641 55 z M 10.191406 61.998047 A 1.001 1.001 0 0 0 10.191406 64.001953 A 1.001 1.001 0 1 0 10.191406 61.998047 z M 20.208984 62 C 23.542093 62 26.220703 64.675372 26.220703 68 C 26.220703 71.324628 23.542093 74 20.208984 74 C 16.875876 74 14.197266 71.324628 14.197266 68 C 14.197266 64.675372 16.875876 62 20.208984 62 z M 31.050781 62 L 30.248047 62.402344 L 30.091797 63.283203 L 30.703125 63.9375 L 31.050781 64 L 31.851562 63.597656 L 32.009766 62.716797 L 31.396484 62.0625 L 31.050781 62 z M 35.050781 62 L 34.248047 62.402344 L 34.091797 63.283203 L 34.703125 63.9375 L 35.050781 64 L 35.851562 63.597656 L 36.009766 62.716797 L 35.396484 62.0625 L 35.050781 62 z M 39.050781 62 L 38.248047 62.402344 L 38.091797 63.283203 L 38.703125 63.9375 L 39.050781 64 L 39.851562 63.597656 L 40.009766 62.716797 L 39.396484 62.0625 L 39.050781 62 z M 43.050781 62 L 42.248047 62.402344 L 42.091797 63.283203 L 42.703125 63.9375 L 43.050781 64 L 43.851562 63.597656 L 44.009766 62.716797 L 43.396484 62.0625 L 43.050781 62 z M 47.050781 62 L 46.248047 62.402344 L 46.091797 63.283203 L 46.703125 63.9375 L 47.050781 64 L 47.851562 63.597656 L 48.009766 62.716797 L 47.396484 62.0625 L 47.050781 62 z M 51.050781 62 L 50.248047 62.402344 L 50.091797 63.283203 L 50.703125 63.9375 L 51.050781 64 L 51.851562 63.597656 L 52.009766 62.716797 L 51.396484 62.0625 L 51.050781 62 z M 61.210938 62 C 64.528937 62 67.197266 64.67352 67.197266 68 C 67.197266 71.32648 64.528937 74 61.210938 74 C 57.892936 74 55.222656 71.32648 55.222656 68 C 55.222656 64.67352 57.892937 62 61.210938 62 z M 71.191406 62.001953 A 0.999 0.999 0 1 0 71.191406 63.998047 A 0.999 0.999 0 1 0 71.191406 62.001953 z M 20.208984 65 C 19.291692 65 18.476276 65.379856 17.958984 65.960938 C 17.441693 66.542018 17.205078 67.277445 17.205078 68 C 17.205078 68.722555 17.441693 69.457982 17.958984 70.039062 C 18.476276 70.620144 19.291692 71 20.208984 71 C 21.126276 71 21.941693 70.620144 22.458984 70.039062 C 22.976276 69.457982 23.212891 68.722555 23.212891 68 C 23.212891 67.277445 22.976276 66.542018 22.458984 65.960938 C 21.941693 65.379856 21.126276 65 20.208984 65 z M 61.210938 65 C 60.295102 65 59.480535 65.379621 58.964844 65.960938 C 58.449153 66.542253 58.214844 67.278222 58.214844 68 C 58.214844 68.721778 58.449153 69.457747 58.964844 70.039062 C 59.480535 70.620379 60.295102 71 61.210938 71 C 62.126771 71 62.939387 70.620379 63.455078 70.039062 C 63.970769 69.457747 64.205078 68.721778 64.205078 68 C 64.205078 67.278222 63.970769 66.542253 63.455078 65.960938 C 62.939387 65.379621 62.126772 65 61.210938 65 z M 20.208984 67 C 20.627025 67 20.814469 67.120144 20.964844 67.289062 C 21.115219 67.457982 21.212891 67.722555 21.212891 68 C 21.212891 68.277445 21.115221 68.542018 20.964844 68.710938 C 20.814469 68.879856 20.627025 69 20.208984 69 C 19.790944 69 19.6035 68.879856 19.453125 68.710938 C 19.30275 68.542018 19.205078 68.277445 19.205078 68 C 19.205078 67.722555 19.302748 67.457982 19.453125 67.289062 C 19.6035 67.120144 19.790944 67 20.208984 67 z M 61.210938 67 C 61.625768 67 61.809342 67.120379 61.958984 67.289062 C 62.108627 67.457747 62.205078 67.721778 62.205078 68 C 62.205078 68.278222 62.108628 68.542253 61.958984 68.710938 C 61.809342 68.879621 61.625769 69 61.210938 69 C 60.796106 69 60.61058 68.879621 60.460938 68.710938 C 60.311295 68.542253 60.214844 68.278222 60.214844 68 C 60.214844 67.721778 60.311293 67.457747 60.460938 67.289062 C 60.61058 67.120379 60.796106 67 61.210938 67 z"/></svg>