<?xml version="1.0"?><svg xmlns="http://www.w3.org/2000/svg" viewBox="0 0 24 24">    <path d="M 12 2 C 6.486 2 2 6.486 2 12 C 2 17.514 6.486 22 12 22 C 12.225 22 12.445016 21.981797 12.666016 21.966797 C 12.378016 21.352797 12.177125 20.691094 12.078125 19.996094 C 12.051125 19.996094 12.027 20 12 20 L 12 4 C 16.411 4 20 7.589 20 12 C 20 12.027 19.996094 12.051125 19.996094 12.078125 C 20.691094 12.177125 21.352797 12.378969 21.966797 12.667969 C 21.981797 12.445969 22 12.225 22 12 C 22 6.486 17.514 2 12 2 z M 18.232422 14 C 18.103422 14 17.995469 14.096609 17.980469 14.224609 L 17.863281 15.236328 C 17.379281 15.404328 16.9425 15.659281 16.5625 15.988281 L 15.626953 15.582031 C 15.508953 15.531031 15.370641 15.577453 15.306641 15.689453 L 14.369141 17.310547 C 14.305141 17.422547 14.3345 17.564625 14.4375 17.640625 L 15.244141 18.238281 C 15.197141 18.486281 15.167969 18.74 15.167969 19 C 15.167969 19.26 15.196141 19.512766 15.244141 19.759766 L 14.439453 20.359375 C 14.336453 20.436375 14.306094 20.578453 14.371094 20.689453 L 15.306641 22.310547 C 15.370641 22.422547 15.508953 22.467016 15.626953 22.416016 L 16.5625 22.011719 C 16.9415 22.339719 17.379281 22.595672 17.863281 22.763672 L 17.980469 23.775391 C 17.994469 23.904391 18.103422 24 18.232422 24 L 20.103516 24 C 20.232516 24 20.340469 23.903391 20.355469 23.775391 L 20.472656 22.763672 C 20.956656 22.595672 21.393438 22.340719 21.773438 22.011719 L 22.710938 22.417969 C 22.828937 22.468969 22.965297 22.421547 23.029297 22.310547 L 23.966797 20.689453 C 24.030797 20.577453 24.001438 20.435375 23.898438 20.359375 L 23.091797 19.759766 C 23.139797 19.512766 23.167969 19.26 23.167969 19 C 23.167969 18.74 23.139797 18.487234 23.091797 18.240234 L 23.896484 17.640625 C 23.999484 17.563625 24.029844 17.421547 23.964844 17.310547 L 23.029297 15.689453 C 22.965297 15.577453 22.826984 15.532984 22.708984 15.583984 L 21.773438 15.988281 C 21.394437 15.660281 20.956656 15.404328 20.472656 15.236328 L 20.355469 14.224609 C 20.341469 14.095609 20.232516 14 20.103516 14 L 18.232422 14 z M 19.167969 17.25 C 20.133969 17.25 20.917969 18.033 20.917969 19 C 20.917969 19.966 20.133969 20.75 19.167969 20.75 C 18.201969 20.75 17.417969 19.966 17.417969 19 C 17.417969 18.033 18.201969 17.25 19.167969 17.25 z"/></svg>