<svg xmlns="http://www.w3.org/2000/svg" width="512" height="512" viewBox="0 0 512 512"><path fill="#344E5D" d="M7.9,263.9C7.9,126.9,119,15.8,256,15.8c137,0,248.1,111.1,248.1,248.1C504.1,400.9,393,512,256,512C119,512,7.9,400.9,7.9,263.9z"/><path fill="#FFF" d="M436.2 188c-10.3 0-20.7.1-31 .1-23.3-52.2-69-89.9-126.7-98.9-64.3-10.1-125.8 19.8-162.5 72.3-16.3 23.3 22 45.2 38.2 22 50.3-72 157.8-65.5 201.9 4.7-9.6 0-19.1 0-28.7.1-2.7 0-4.6 1.2-5.8 2.9-1.9 2.1-2.7 5.1-.6 8.2 18.2 28.2 36.4 56.5 54.6 84.7 3.1 4.8 9.7 4.7 12.7 0 18.1-28.3 36.1-56.7 54.2-85C445.5 194.3 441.5 188 436.2 188zM358.7 332.5c-49.9 71.5-156.1 65.6-200.9-3 9.2 0 18.3 0 27.5-.1 2.7 0 4.6-1.2 5.7-2.9 1.9-2.1 2.7-5.1.6-8.2-18.2-28.2-36.4-56.5-54.6-84.7-3.1-4.7-9.7-4.7-12.7 0-18.1 28.3-36.1 56.7-54.2 85-3 4.7.9 11 6.3 11 10.7 0 21.3-.1 32-.1 23.5 51.3 68.8 88.3 125.9 97.3 64.3 10.1 125.8-19.8 162.5-72.3C413.2 331.2 374.9 309.4 358.7 332.5z"/></svg>