<svg xmlns="http://www.w3.org/2000/svg" viewBox="0 0 26 26"><path d="M 4.5 5 C 3.121094 5 2 6.121094 2 7.5 C 2 8.878906 3.121094 10 4.5 10 C 5.878906 10 7 8.878906 7 7.5 C 7 6.121094 5.878906 5 4.5 5 Z M 0 10 L 0 26 L 2 26 L 2 24 C 2 23.398438 2.398438 23 3 23 L 23 23 C 23.601563 23 24 23.398438 24 24 L 24 26 L 26 26 L 26 19 L 2 19 L 2 10 Z M 4.40625 10.90625 C 3.707031 10.90625 3.207031 11.585938 3.40625 12.1875 L 4.59375 16.5 C 4.792969 17.398438 5.601563 18 6.5 18 L 9 18 L 7.3125 11.59375 C 7.113281 11.195313 6.710938 10.90625 6.3125 10.90625 Z M 9 13 L 10.40625 18 L 24 18 L 24 15 C 24 13.898438 23.101563 13 22 13 Z"/></svg>