<svg xmlns="http://www.w3.org/2000/svg" width="512" height="512" viewBox="0 0 512 512"><path fill="#EF4754" d="M286.7 405c-9.3-13.3-20.8-24.9-30-38.3 1.2 9.8 5.2 19.3 7.2 28.8 1.3 6 2.5 12.5 1.6 18.5C272.7 411.4 280.6 409.4 286.7 405zM189.3 251c-7.5-14.8-11.7-30.8-16.5-46.6-4.2-13.7-8.8-27.3-8.9-41.7-4.8 5.4-9.6 10.9-14.3 16.4-3.8 9-1.6 21.1.2 29.8 2.8 13.4 7.5 26.5 13.2 38.9 12.9 28.1 36.4 47.8 55.3 71.5 3.7-3.6 8.8-5.3 14.1-5.3C226.8 288.8 200.6 273.5 189.3 251zM335.6 296.5c-2.6 8.9-7.3 16.9-14.9 22.3-9.2 6.5-21.1 6.3-31.9 6.8-8.8.4-22 .3-27.8 8.3 0 .6 0 1.1 0 1.7-.3 5.3-2 10.6-3.7 15.6-.4 1.2-.8 2.4-1.2 3.6 14.8-4.6 29.4-9.4 44.6-12.8 10-2.3 26.9-1.7 32.4-12.1C338.4 319.8 337.3 307.4 335.6 296.5z"/><path fill="#EF4754" d="M174.4 285c-9.5-11.6-17-24.1-22.8-37.8-5.8-13.5-10.6-27.8-12.8-42.3-.6-3.8-1-7.8-1.1-11.7-1.3 1.6-2.7 3.2-4 4.8-5.5 6.8-10.9 13.8-16 20.9.4.6.6 1.4.7 2.2 1.7 21.7 17 40.2 32.7 54.1 11 9.7 23.2 17.1 35.8 24C182.6 294.5 178.4 289.8 174.4 285zM288.6 438.2c-5-5-10-10-15-15-.4-.4-.7-.8-1-1.3-3.1 1.1-6.1 2.3-9.1 3.8-1.6.8-3 .6-4-.1-.9.5-1.9.5-2.8.3 3.7 5.7 8 10.9 13 15.3 2.3 2 2 4.8.6 6.6 1 1.1 1.8 2.3 2.2 3.7 6.2-3.7 12.1-7.8 17.8-12.2C289.7 439.1 289.1 438.8 288.6 438.2zM252.6 391.2c-2.1-7.5-4.8-15.3-5.8-23.1-2.6 1.1-5.7 1.7-8.4 2.1-.4.1-.8.1-1.1.2 3 16 7.4 33.7 15.5 48.9.2-.5.5-1.1.9-1.6C259.1 411 254.6 398.4 252.6 391.2z"/><path fill="#D6E5E5" d="M262.9,454.6c-0.1-0.2-0.3-0.4-0.4-0.6c-0.6-0.8-1-1.6-1.1-2.7c-0.1-1.2,0.3-2.3,0.9-3.3c-21.2-18.9-30-49.8-35-76.9c-1.4-0.1-2.8-0.2-4.1-0.5c-0.8,15.9-5,31.5-11.1,46.2c-4.1,9.9-6.3,21.2-11.9,30.3c-2.6,4.3-5.9,8.3-10.9,9.8c-4,1.2-8.3-0.7-12-2.1c-8.6-3.1-17.9-6.5-25.7-11.5c-3.2-2.1-4.1-8,0.6-9.2c21.2-5.3,23.8-28.9,30.7-46.4c2.1-5.5,4.9-11.5,8.3-16.9c-7.1,0.6-14.2,0.6-21.3,0.3c-12.9-0.6-28.2-0.5-39.8-7c-8.8-4.9-11.4-13.6-13.7-22.8c-3-12-4.9-24.6,0.7-35.9c-0.4-6.2,5-9.9,11.1-10.8c9.8-1.3,19.6,0.9,28.7,4.7c16,6.6,32,19.3,49.6,21.6c-0.1-0.1-0.3-0.3-0.4-0.4c-0.2-0.1-0.4-0.2-0.6-0.3c-22.2-11.9-44.9-22.4-63.5-39.8c-14.5-13.6-28-30.4-32.4-50.1c-6.6,10.2-12.5,20.8-17.3,32c-9.2,21.6-13.9,44.6-13.2,68.1c1.2,37.5,11.3,77.5,32.7,108.7c10.2,14.8,23.4,28,40.3,34.8c22.2,8.9,49,5.2,71.4-1.2c13.7-3.9,27.2-9.4,40-16.3C263.3,456,263,455.3,262.9,454.6z"/><path fill="#EF4754" d="M205.6 368.8c-2.5 2.3-4.6 5.2-6.2 7.9-4.3 7.2-7.5 15.1-10.2 23.1-5.2 15.3-10.1 31.5-23.6 39.7 4.4 2 8.9 3.7 13.3 5.4 1.9.7 3.8 1.5 5.7 2 .6.2 1.2.4 1.9.5.1 0 .1 0 .2 0 0 0 .1-.1.2-.1 3.2-1.4 5.1-5.5 6.5-8.5 4.1-9 6.9-18.8 10.5-28 5.4-13.8 9.5-28.5 9.6-43.5 0-.2 0-.3 0-.5C210.9 367.6 208.3 368.3 205.6 368.8zM216.6 332.6c-.7-.2-1.3-.6-1.8-1.2-.2 0-.3.1-.5.1-18.3.7-34-9.3-49.7-17.3-7.7-3.9-15.7-7.9-24.3-9.2-3.5-.5-7.7-1-11.2-.1-.1.4-.3.9-.7 1.4-.2.3-.3.5-.5.8 2.5 4.7 7.1 8.8 11 12.2 5.6 5 10.8 11.3 17.9 14 9.2 3.5 20.4 4 30 3.1 10.1-.9 20.1-2.6 30.2-2.8C216.9 333.2 216.8 332.9 216.6 332.6z"/><path fill="#D6E5E5" d="M446.3,125.4c-5.9-20.5-17.9-38.4-34.9-51.3C376.6,47.8,327.6,42,285.9,51.9c-24.8,5.9-48.5,17.5-64.3,38.2c-9.6,12.6-20.3,24.6-30,37.1c-4,5.2-8,10.5-11.9,15.8c-2.7,3.7-6,8.1-7,12.8c0.8,1,1.2,2.2,1.1,3.7c-1.2,16.4,5.7,33,10.3,48.4c4.6,15.5,8.9,32.4,18.2,45.9c13.4,19.6,34.2,34.4,39.6,58.2c2.7-6.1,8-11.3,12.9-15.5c7.1-6.2,14.6-11.8,21.5-18.2c15.3-14.3,32-24.3,52.7-28.6c2.1-0.4,4.5,1.4,5.1,3.3c0.1,0.5,0.3,0.9,0.4,1.4c1.2,0.4,2.2,1.4,2.6,3.1c3,12.9,6.7,25.6,8.5,38.7c1.7,12.4,3,28-4.1,39.1c-2,3.1-4.4,5.5-7.1,7.4c5.5,1.3,11.2,1.4,17.1,1.4c1.4,0,3,0.4,4,1.5c0.2,0,0.3,0,0.5,0c1-0.1,1.9,0.1,2.7,0.5c9.9-18.2,19.6-36.5,29.5-54.7c7.7-14.3,15.5-28.5,23.4-42.7c7.5-13.3,15.4-26.4,21.8-40.3C445.1,182.8,454.2,153.3,446.3,125.4z M397.9,177.6c-7.8,21.8-22.7,42.8-43.5,53.9c-38.1,20.4-84.3,4.1-108.9-29.5c-23.7-32.4-26.1-76.6,1.1-107.6c0.7-0.9,1.6-1.3,2.5-1.6c2.7-3.2,7.3-4.9,11.2-6.2c8.7-2.8,17.8-4.5,26.8-6.4c9.9-2,19.5-5.4,29.7-5.6c14.1-0.3,27.9,3,40.5,9.3c10.9,5.5,20.3,14.6,27.6,24.3C400,128.5,406.5,153.3,397.9,177.6z"/><path fill="#EF4754" d="M349.4,353.9c-9.3-0.1-18.1-0.9-26.7-5c-0.5-0.3-1-0.6-1.4-0.9c-4.9,1.2-10.1,1.9-15.2,2.9c-5.5,1.1-10.8,2.4-16.1,3.8c18.4,5.4,36,15.2,55.5,13.2c0.4,0,0.8,0,1.1,0c2.3-4.1,4.6-8.3,6.8-12.4C351.9,355.4,350.6,355,349.4,353.9z"/><path fill="#FCBF95" d="M390.5,142.1c-3.2-12.2-9.3-23.7-17.9-33.1c-9.2-10.1-19.9-17.7-33.2-21.5c-13.6-3.8-26.9-3.7-40.5,0.1c-7.8,2.2-16,3.4-23.9,5.2c-4.5,1-9,2.1-13.2,3.7c-1.4,0.5-2.8,1-4,1.8c-1,0.6-1.4,1.4-1,0.2c-0.6,2.1-2.1,3.2-3.7,3.6c-21.5,25.8-20.8,61.8-2.6,89.4c18.4,27.8,54.6,47.5,88.1,35.9c22.6-7.8,39.5-27.2,48.3-49C391.6,166.8,393.7,154.6,390.5,142.1z M270.9,120.7c0.5-6.4,10.3-4.4,9.8,1.9c-0.6,8.7,11,8.7,16.3,5.4c5.5-3.4,11.1,4.9,5.6,8.3C289.2,144.7,269.6,138.4,270.9,120.7z M325.7,182.6c-3,12-15.5,22.9-28.3,17.8c-9.2-3.7-11.5-13-16.8-20.4c-3.7-5.3,4.6-10.8,8.3-5.6c3.4,4.7,5,11.3,9.5,15.1c7,5.8,15.6-1.4,17.4-8.7C317.5,174.5,327.3,176.3,325.7,182.6z M363.2,153.6c-5.8,0-12.2,0.6-17.6-1.8c-6-2.7-8.6-8.4-8.8-14.8c-0.2-6.4,9.8-7.2,10-0.8c0.1,3.8,1,6.3,5,7c3.5,0.6,7,0.4,10.6,0.4C368.8,143.6,369.6,153.6,363.2,153.6z"/><path fill="#D6E5E5" d="M271.4,361.4c-0.7,0-1.3-0.2-1.8-0.5c-1.3,0.4-2.6,0.8-3.9,1.2c9.9,14.2,22.4,26.4,31.8,41c1.1,1.8,1.2,4.6-0.4,6.1c-4.3,4-9.3,6.7-14.5,8.9c4.2,4.2,8.4,8.4,12.6,12.6c1,1,1.5,2.3,1.5,3.4c0.1-0.1,0.2-0.2,0.3-0.3c18.1-15.5,31.9-35.1,43.8-55.6C316.7,378.3,295.5,363.1,271.4,361.4z"/><path fill="#EF4754" d="M251 334.2c-.3-.3-1.1-1.9-1.6-2.4-2.7-2.7-5.8-4.8-9.3-6.1-5.3-2.1-11.4-2.6-15 1.3 2.2 4.3 3.2 9.6 3.7 13.9.8 6.7 1 13.6.1 20.4 2.2 0 4.3-.3 6.4-.5 2.3-.3 4.7-.6 6.9-1.4.5-.2 1.6-1 1.5-.7 3.4-6.3 5.7-13.8 7-20.8.2-1 .5-2.2.5-3.3C251 334.3 251 334.2 251 334.2zM325.9 260.4c-17.2 4.5-31.7 14.1-44.4 26.6-5.6 5.5-12 9.9-18 15-4.9 4.2-12 9.8-13.2 16.5-.1.4-.2.7-.3 1 2.3 1.4 4.5 3 6.3 4.9 13.7-12.3 36-5.6 52.8-10.9C329.3 307 330.3 278.5 325.9 260.4zM219 344.1c0-.2 0-.4-.1-.6 0 0-.1 0-.1 0-12.7.1-25.2 3.2-37.9 3.2-6.5 0-12.7-.9-19-1.9-4.4-.7-9-1.9-12.8-4.1-7.4-4.4-14-10.8-20-16.9-1.6-1.7-3.4-3.4-5.1-5.3-1 7.7.9 15.7 3.1 23.6 1.9 7 3.8 12.2 11 14.9 11.3 4.1 24.5 4.5 36.4 4.6 9.1.1 18.2-.3 27.1-2 4.9-3.7 10.8-5.8 17.9-4.9C219.5 351 219.4 347.5 219 344.1z"/><path fill="#010101" d="M384.9,108.3c-7.3-9.7-16.7-18.8-27.6-24.3c-12.6-6.4-26.4-9.6-40.5-9.3c-10.2,0.2-19.8,3.5-29.7,5.6c-9,1.9-18.1,3.5-26.8,6.4c-4,1.3-8.5,3-11.2,6.2c-0.9,0.2-1.7,0.7-2.5,1.6c-27.2,31.1-24.8,75.3-1.1,107.6c24.6,33.6,70.8,49.9,108.9,29.5c20.8-11.1,35.7-32.1,43.5-53.9C406.5,153.3,400,128.5,384.9,108.3z M386.9,178.6c-8.8,21.8-25.7,41.2-48.3,49c-33.5,11.6-69.7-8.1-88.1-35.9c-18.3-27.6-18.9-63.7,2.6-89.4c1.6-0.4,3.1-1.6,3.7-3.6c-0.4,1.2,0,0.4,1-0.2c1.2-0.8,2.7-1.3,4-1.8c4.3-1.6,8.8-2.7,13.2-3.7c7.9-1.9,16-3,23.9-5.2c13.6-3.8,26.9-4,40.5-0.1c13.3,3.8,24,11.4,33.2,21.5c8.5,9.3,14.7,20.9,17.9,33.1C393.7,154.6,391.6,166.8,386.9,178.6z"/><path fill="#010101" d="M297 128c-5.2 3.3-16.9 3.3-16.3-5.4.5-6.3-9.3-8.3-9.8-1.9-1.3 17.7 18.3 24 31.7 15.6C308.1 132.9 302.5 124.6 297 128zM362.4 143.7c-3.5 0-7.1.2-10.6-.4-4-.7-4.9-3.2-5-7-.2-6.4-10.1-5.7-10 .8.2 6.4 2.8 12 8.8 14.8 5.4 2.5 11.8 1.9 17.6 1.8C369.6 153.6 368.8 143.6 362.4 143.7zM315.9 180.7c-1.8 7.4-10.4 14.5-17.4 8.7-4.5-3.8-6.2-10.3-9.5-15.1-3.7-5.3-12 .3-8.3 5.6 5.3 7.4 7.6 16.7 16.8 20.4 12.8 5.2 25.3-5.8 28.3-17.8C327.3 176.3 317.5 174.5 315.9 180.7z"/><path fill="#010101" d="M391.2,50.9c-41-18.1-91.9-18-133.1-0.5c-10.6,4.5-20.5,10.4-29.2,17.8c-9.7,8.1-17.4,18.3-25.4,28c-8.9,10.8-17.3,21.9-25.8,33c-3.9,5.1-8.1,10.2-11.1,15.9c-0.5,0.3-0.9,0.6-1.4,1.1c-6,6.9-12.1,13.7-18.2,20.7c-1,0.2-2,0.7-2.8,1.8c-1.1,1.4-1.9,2.9-2.7,4.5c-25.6,29.6-49.9,60.6-63,97.8c-13.8,39.5-10.7,82.1,1.1,121.7c10.5,35.3,30.6,73,65.4,89.2c21.1,9.9,45.5,8.3,67.8,3.9c27.7-5.4,52.4-17.8,75.9-33.1c22-14.3,39-34.8,53.1-56.6c15.4-23.8,27.9-49.6,41.4-74.4c15.5-28.6,30.8-57.3,46.9-85.5c14.4-25.3,26.9-52.8,29-82.2C462.3,108.2,431.7,68.8,391.2,50.9z M149.5,179.1c4.8-5.5,9.5-10.9,14.3-16.4c0.1,14.3,4.8,28,8.9,41.7c4.8,15.8,9.1,31.8,16.5,46.6c11.3,22.5,37.5,37.8,43,63.1c-5.3,0-10.4,1.7-14.1,5.3c-18.9-23.7-42.4-43.4-55.3-71.5c-5.7-12.4-10.4-25.6-13.2-38.9C147.9,200.2,145.7,188.1,149.5,179.1z M264,395.5c-2.1-9.6-6.1-19-7.2-28.8c9.2,13.4,20.7,25,30,38.3c-6.2,4.3-14,6.3-21.2,9C266.4,408,265.3,401.5,264,395.5z M256.1,354.7c0.4-1.2,0.8-2.4,1.2-3.6c1.7-5,3.4-10.3,3.7-15.6c0-0.6,0-1.1,0-1.7c5.9-8,19-7.8,27.8-8.3c10.8-0.5,22.7-0.3,31.9-6.8c7.6-5.4,12.4-13.3,14.9-22.3c1.7,10.9,2.8,23.4-2.5,33.3c-5.5,10.4-22.4,9.8-32.4,12.1C285.5,345.3,270.9,350.2,256.1,354.7z M253.6,417.7c-0.4,0.5-0.7,1-0.9,1.6c-8-15.1-12.5-32.8-15.5-48.9c0.4-0.1,0.8-0.1,1.1-0.2c2.7-0.4,5.7-0.9,8.4-2.1c1,7.8,3.7,15.6,5.8,23.1C254.6,398.4,259.1,411,253.6,417.7z M309.1,313.4c-16.8,5.3-39.1-1.4-52.8,10.9c-1.8-1.9-4-3.5-6.3-4.9c0.1-0.3,0.2-0.6,0.3-1c1.3-6.7,8.4-12.3,13.2-16.5c5.9-5.1,12.4-9.5,18-15c12.7-12.4,27.2-22.1,44.4-26.6C330.3,278.5,329.3,307,309.1,313.4z M251,334.2c0,0.1,0.1,0.2,0.1,0.3c0,1.1-0.3,2.2-0.5,3.3c-1.3,7.1-3.6,14.5-7,20.8c0-0.3-1.1,0.5-1.5,0.7c-2.2,0.8-4.6,1.1-6.9,1.4c-2,0.3-4.2,0.5-6.4,0.5c0.9-6.7,0.7-13.7-0.1-20.4c-0.5-4.3-1.5-9.6-3.7-13.9c3.7-3.9,9.7-3.3,15-1.3c3.5,1.4,6.6,3.5,9.3,6.1C249.9,332.3,250.7,333.9,251,334.2z M201.4,359.5c-8.9,1.7-18,2.1-27.1,2c-11.9-0.2-25.1-0.5-36.4-4.6c-7.2-2.6-9.1-7.8-11-14.9c-2.2-7.8-4.1-15.9-3.1-23.6c1.7,1.9,3.5,3.7,5.1,5.3c6,6.1,12.6,12.6,20,16.9c3.9,2.3,8.4,3.5,12.8,4.1c6.4,1,12.5,1.9,19,1.9c12.7,0,25.2-3,37.9-3.2c0,0,0.1,0,0.1,0c0,0.2,0,0.4,0.1,0.6c0.4,3.5,0.5,7,0.3,10.5C212.3,353.7,206.4,355.7,201.4,359.5z M213.4,366.8c0,0.2,0,0.3,0,0.5c-0.2,14.9-4.2,29.6-9.6,43.5c-3.6,9.2-6.4,19-10.5,28c-1.3,3-3.2,7.1-6.5,8.5c-0.1,0-0.1,0.1-0.2,0.1c0,0-0.1,0-0.2,0c-0.6-0.1-1.3-0.3-1.9-0.5c-2-0.5-3.8-1.3-5.7-2c-4.4-1.7-8.9-3.4-13.3-5.4c13.5-8.3,18.4-24.4,23.6-39.7c2.7-8,5.9-15.8,10.2-23.1c1.6-2.7,3.7-5.6,6.2-7.9C208.3,368.3,210.9,367.6,213.4,366.8z M127.9,306.9c0.2-0.3,0.3-0.5,0.5-0.8c0.3-0.5,0.5-0.9,0.7-1.4c3.5-0.9,7.8-0.4,11.2,0.1c8.6,1.3,16.6,5.3,24.3,9.2c15.7,8,31.4,18,49.7,17.3c0.2,0,0.4,0,0.5-0.1c0.6,0.6,1.2,0.9,1.8,1.2c0.1,0.3,0.3,0.6,0.4,0.9c-10.1,0.2-20.1,1.9-30.2,2.8c-9.7,0.8-20.9,0.3-30-3.1c-7.1-2.7-12.4-9-17.9-14C135,315.8,130.4,311.6,127.9,306.9z M133.7,197.9c1.3-1.6,2.7-3.2,4-4.8c0.1,4,0.5,7.9,1.1,11.7c2.2,14.6,7,28.8,12.8,42.3c5.8,13.7,13.4,26.2,22.8,37.8c4,4.9,8.2,9.6,12.4,14.2c-12.6-6.8-24.8-14.2-35.8-24c-15.6-13.9-31-32.5-32.7-54.1c-0.1-0.9-0.3-1.6-0.7-2.2C122.8,211.7,128.2,204.7,133.7,197.9z M223.7,472.9c-22.3,6.4-49.2,10.1-71.4,1.2c-16.9-6.8-30.1-20-40.3-34.8c-21.4-31.2-31.5-71.2-32.7-108.7c-0.8-23.5,3.9-46.5,13.2-68.1c4.8-11.2,10.7-21.8,17.3-32c4.4,19.7,18,36.5,32.4,50.1c18.6,17.5,41.3,27.9,63.5,39.8c0.2,0.1,0.4,0.2,0.6,0.3c0.1,0.1,0.3,0.3,0.4,0.4c-17.7-2.3-33.6-15-49.6-21.6c-9.1-3.7-18.9-6-28.7-4.7c-6.1,0.8-11.5,4.6-11.1,10.8c-5.5,11.3-3.7,23.8-0.7,35.9c2.3,9.2,4.9,17.9,13.7,22.8c11.6,6.5,26.9,6.4,39.8,7c7.1,0.3,14.2,0.3,21.3-0.3c-3.5,5.4-6.2,11.5-8.3,16.9c-6.9,17.5-9.5,41.1-30.7,46.4c-4.7,1.2-3.8,7.1-0.6,9.2c7.8,5,17.1,8.4,25.7,11.5c3.7,1.3,8.1,3.3,12,2.1c5-1.5,8.2-5.5,10.9-9.8c5.6-9.1,7.8-20.5,11.9-30.3c6.1-14.7,10.4-30.3,11.1-46.2c1.3,0.3,2.7,0.4,4.1,0.5c5,27.1,13.9,58,35,76.9c-0.7,1-1,2.1-0.9,3.3c0.1,1,0.5,1.9,1.1,2.7c0.2,0.2,0.3,0.4,0.4,0.6c0.1,0.7,0.3,1.4,0.7,2C250.9,463.5,237.3,469,223.7,472.9z M272.5,451.5c-0.5-1.4-1.3-2.6-2.2-3.7c1.4-1.9,1.7-4.6-0.6-6.6c-5.1-4.4-9.4-9.6-13-15.3c0.9,0.2,1.9,0.2,2.8-0.3c1.1,0.7,2.5,0.8,4,0.1c2.9-1.4,6-2.6,9.1-3.8c0.2,0.4,0.6,0.9,1,1.3c5,5,10,10,15,15c0.5,0.5,1.1,0.9,1.7,1.1C284.6,443.7,278.7,447.8,272.5,451.5z M297.1,433.9c-0.1,0.1-0.2,0.2-0.3,0.3c0-1.2-0.5-2.4-1.5-3.4c-4.2-4.2-8.4-8.4-12.6-12.6c5.3-2.2,10.3-4.8,14.5-8.9c1.6-1.5,1.5-4.3,0.4-6.1c-9.4-14.6-21.8-26.8-31.8-41c1.3-0.4,2.6-0.8,3.9-1.2c0.5,0.2,1.1,0.4,1.8,0.5c24.1,1.7,45.2,16.9,69.4,16.8C329,398.7,315.1,418.3,297.1,433.9z M346.6,368c-0.4,0-0.7,0-1.1,0c-19.5,2-37.1-7.8-55.5-13.2c5.3-1.5,10.7-2.8,16.1-3.8c5.1-1,10.3-1.7,15.2-2.9c0.4,0.4,0.8,0.7,1.4,0.9c8.6,4.1,17.4,4.9,26.7,5c1.2,1.1,2.5,1.5,4.1,1.6C351.2,359.7,348.9,363.8,346.6,368z M433.4,208.3c-6.4,13.9-14.4,27-21.8,40.3c-7.9,14.2-15.7,28.4-23.4,42.7c-9.9,18.2-19.6,36.5-29.5,54.7c-0.7-0.4-1.6-0.6-2.7-0.5c-0.2,0-0.3,0-0.5,0c-1-1.1-2.6-1.5-4-1.5c-5.9,0-11.6-0.1-17.1-1.4c2.7-1.9,5.1-4.3,7.1-7.4c7.1-11.1,5.8-26.7,4.1-39.1c-1.8-13.1-5.5-25.9-8.5-38.7c-0.4-1.7-1.4-2.7-2.6-3.1c-0.1-0.5-0.3-0.9-0.4-1.4c-0.6-1.9-3-3.8-5.1-3.3c-20.6,4.3-37.4,14.3-52.7,28.6c-6.9,6.4-14.4,12-21.5,18.2c-4.9,4.3-10.2,9.4-12.9,15.5c-5.5-23.8-26.2-38.6-39.6-58.2c-9.2-13.5-13.6-30.4-18.2-45.9c-4.6-15.4-11.5-32-10.3-48.4c0.1-1.5-0.3-2.7-1.1-3.7c1-4.7,4.3-9.1,7-12.8c3.9-5.3,7.9-10.6,11.9-15.8c9.8-12.6,20.4-24.5,30-37.1c15.7-20.6,39.5-32.3,64.3-38.2c41.7-9.9,90.7-4.1,125.4,22.2c17.1,12.9,29,30.8,34.9,51.3C454.2,153.3,445.1,182.8,433.4,208.3z"/></svg>