<svg xmlns="http://www.w3.org/2000/svg" viewBox="0 0 48 48"><path fill="#a37b57" d="M13.484,41.777c-0.029-1.221-0.415-18.03-0.228-19.237c0.142-0.915,0.131-2.845,0.121-3.771 C13.329,14.596,13.549,8.673,13.5,4.5c5.315-0.383,10.535-0.645,15.846-0.21c2.263,0.185,4.835,0.734,7.05,0.231 c-0.065,6.358-0.885,30.537-0.453,36.881L13.484,41.777z"/><path fill="#73a1b2" d="M15.525,6.672c0.44,2.39,0.382,33.796,0.09,36.208c2.175-0.001,15.35-0.103,17.515-0.305 c0.104-0.01,0.213-0.022,0.297-0.082c0.148-0.106,0.817-0.368,0.822-0.549c0.05-1.76-0.603-32.468-0.658-34.228 c-0.011-0.353-0.039-0.741-0.287-0.991c-0.255-0.257-0.655-0.282-1.017-0.286C30.408,6.414,17.393,6.459,15.525,6.672z"/><path fill="#f3ad20" d="M11.952,28.28c0,0-3.91,5.231-1.264,13.476c-1.021,0.078-2.031-0.152-2.031-0.152 s-2.768-9.08,1.366-13.435C11.096,28.249,11.952,28.28,11.952,28.28z"/><path fill="#f3ad20" d="M15.969,28.477c0,0-0.573,7.044-0.122,13.433c-0.75,0.005-2.054-0.109-2.054-0.109 s-1.459-9.864,0.166-13.614C15.085,28.368,15.969,28.477,15.969,28.477z"/><path fill="#f3ad20" d="M20.75,28.477c0,0-1.78,6.053,0.391,13.382c-1.079,0.177-1.575-0.103-1.575-0.103 S17.354,31.227,19.25,28.29C20.208,28.354,20.75,28.477,20.75,28.477z"/><path fill="#f3ad20" d="M39.733,27.628c0,0,2.06,2.411,2.028,7.87s-1.247,6.605-1.247,6.605s0.287-0.727-1.268-0.571 c0.442-1.388,1.017-5.185,0.629-7.596s-1.061-5.25-1.687-6.125C39.333,27.667,39.733,27.628,39.733,27.628z"/><path fill="#f3ad20" d="M33.423,28.071c0,0,2.485,6.03,0.135,13.75c1.273-0.033,2.208-0.215,2.208-0.215 s2.13-7.556-0.536-13.316C34.364,28.188,33.423,28.071,33.423,28.071z"/><rect width="2.469" height="13.4" x="23.438" y="28.543" fill="#f3ad20"/><path fill="#f3ad20" d="M28.683,28.29c0,0,1.821,10.763-0.296,13.653c1.09-0.023,2.219-0.031,2.219-0.031 s1.607-8.894,0-13.622C29.25,28.313,28.683,28.29,28.683,28.29z"/><path fill="#c56528" d="M8.091,41.677c-0.507,1.043,0.529,2.504,1.688,2.528c9.764,0.2,19.534,0.111,29.293-0.269 c0.24-0.009,0.49-0.022,0.701-0.138c0.346-0.191,0.49-0.605,0.607-0.983c0.088-0.286,0.177-0.588,0.113-0.88 c-0.064-0.292-0.341-0.561-0.634-0.504c-1.368,0.264-2.769,0.3-4.162,0.335C26.44,42.002,17.331,42.271,8.091,41.677z"/><path fill="#f3ad20" d="M41.971,23.723c-0.089-0.937-1.177-1.624-2.082-1.362c-0.904,0.262-2.215,1.166-0.985,3.5 L9.903,26.118C10.344,25,10.5,24.487,10.25,23.781c-0.206-0.582-0.792-0.844-1.281-0.938c-0.69-0.133-2.188,0.047-2.46,1.643 c-0.186,1.094,0.391,2.157,1.256,2.853c0.98,0.788,2.333,0.875,3.59,0.92c8.708,0.309,17.431,0.236,26.133-0.218 c0.711-0.037,1.45-0.051,2.098-0.348C41.588,26.776,42.153,25.635,41.971,23.723z"/><path fill="#010101" d="M42.469,23.676c-0.055-0.577-0.388-1.114-0.915-1.473c-0.544-0.369-1.219-0.489-1.803-0.322 c-0.462,0.134-1.293,0.49-1.668,1.373c-0.256,0.603-0.238,1.312,0.055,2.114L36.4,25.384c-0.226-3.921-0.004-8.639,0.216-13.214 c0.132-2.738,0.256-5.324,0.28-7.645c0.003-0.264-0.2-0.484-0.464-0.504c-1.208-0.088-2.403-0.101-3.558-0.112 c-1.211-0.014-2.354-0.025-3.487-0.118c-5.062-0.413-10.026-0.215-15.923,0.21C13.2,4.021,12.997,4.241,13,4.506 c0.024,2.079-0.019,4.642-0.061,7.12c-0.042,2.485-0.086,5.055-0.062,7.148c0.026,2.266-0.048,3.256-0.115,3.688 c-0.154,0.995-0.12,1.906-0.083,2.871c0.003,0.085,0.005,0.173,0.009,0.259l-2.06,0.018c0.255-0.737,0.34-1.299,0.093-1.997 c-0.228-0.644-0.832-1.104-1.657-1.262c-0.525-0.102-1.378-0.051-2.058,0.419c-0.528,0.366-0.87,0.93-0.99,1.631 c-0.203,1.196,0.333,2.44,1.436,3.327c0.521,0.419,1.115,0.659,1.751,0.804c-1.127,1.661-1.793,3.73-1.921,6.029 c-0.109,1.962,0.167,4.128,0.839,6.615c-0.198-0.024-0.392,0.098-0.481,0.28c-0.294,0.605-0.227,1.364,0.182,2.031 c0.449,0.734,1.195,1.199,1.946,1.215c3.356,0.069,6.728,0.104,10.105,0.104c6.412,0,12.844-0.124,19.218-0.372 c0.27-0.012,0.605-0.025,0.922-0.2c0.542-0.301,0.73-0.909,0.842-1.272c0.061-0.196,0.13-0.441,0.148-0.707 c0.071-0.056,0.141-0.123,0.205-0.218c1.071-1.601,1.066-3.622,1.062-5.246c-0.008-2.811-0.036-6.272-1.681-9.069 C42.094,26.802,42.65,25.579,42.469,23.676z M13.679,25.296c-0.035-0.915-0.068-1.779,0.072-2.681 c0.105-0.683,0.148-1.979,0.126-3.853c-0.024-2.079,0.019-4.642,0.061-7.12c0.039-2.302,0.079-4.676,0.066-6.678 c5.646-0.397,10.437-0.574,15.301-0.178c1.168,0.096,2.33,0.108,3.559,0.121c0.988,0.011,2.005,0.021,3.026,0.08 c-0.034,2.18-0.15,4.591-0.272,7.133c-0.22,4.583-0.442,9.306-0.218,13.271l-0.928,0.008C34.303,17.141,34.119,8.692,34.09,7.7 c-0.01-0.34-0.03-0.92-0.43-1.33c-0.42-0.42-1.04-0.43-1.37-0.43c-1.93-0.03-14.93,0.02-16.82,0.24c-0.14,0.01-0.26,0.08-0.35,0.2 c-0.08,0.11-0.11,0.25-0.09,0.38c0.236,1.266,0.326,10.161,0.32,18.81l-1.661,0.015C13.685,25.489,13.683,25.391,13.679,25.296z M16.08,7.13c2.98-0.17,14.45-0.21,16.2-0.19c0.28,0,0.55,0.02,0.67,0.14c0.12,0.11,0.13,0.4,0.14,0.65 c0.029,0.992,0.213,9.43,0.381,17.679L16.34,25.561C16.347,17.643,16.276,9.521,16.08,7.13z M7.002,24.57 c0.075-0.436,0.268-0.765,0.573-0.977c0.32-0.222,0.702-0.285,0.993-0.285c0.122,0,0.228,0.011,0.307,0.026 c0.275,0.053,0.758,0.202,0.904,0.613c0.183,0.518,0.092,0.888-0.341,1.986c-0.061,0.155-0.041,0.33,0.053,0.467 c0.094,0.137,0.235,0.19,0.417,0.217l3.308-0.029c0.001,0,0.001,0,0.002,0c0,0,0,0,0,0l25.691-0.228 c0.174-0.002,0.335-0.094,0.425-0.243c0.089-0.15,0.094-0.336,0.013-0.49c-0.43-0.815-0.549-1.502-0.345-1.982 c0.214-0.503,0.735-0.72,1.026-0.804c0.3-0.086,0.661-0.017,0.962,0.188c0.28,0.19,0.456,0.46,0.482,0.739 c0.17,1.798-0.358,2.674-2.096,3.469c-0.51,0.233-1.112,0.264-1.75,0.295l-0.166,0.009c-8.659,0.451-17.438,0.525-26.089,0.217 c-1.26-0.044-2.461-0.139-3.294-0.809C7.275,26.304,6.863,25.392,7.002,24.57z M38.043,28.549c0.1,0.03,0.309,0.325,0.441,0.861 c0.443,1.796,0.925,3.884,1.04,5.942c0.122,2.191-0.185,4.125-0.908,5.754c-0.711,0.078-1.43,0.114-2.143,0.137 c0.77-4.403,0.729-8.968-0.105-12.658c0.381-0.018,0.765-0.025,1.146-0.045l0.164-0.008c0.1-0.005,0.201-0.012,0.302-0.018 C38.002,28.525,38.019,28.542,38.043,28.549z M11.17,41.342l-0.448-2.952c-0.15-0.993-0.306-2.021-0.318-3.023 c-0.027-2.103,0.557-4.318,1.727-6.586c0.268,0.009,0.537,0.013,0.806,0.021c-1.022,4.338-0.318,9.141,0.409,12.62 C12.621,41.398,11.897,41.374,11.17,41.342z M14.374,41.457c-0.734-3.452-1.496-8.336-0.422-12.629c0.5,0.013,0.999,0.029,1.5,0.04 c-0.029,0.679-0.063,1.392-0.101,2.144c-0.169,3.344-0.345,7.103-0.034,10.467C15.002,41.472,14.688,41.465,14.374,41.457z M16.319,41.497c-0.318-3.32-0.139-7.088,0.03-10.434c0.038-0.761,0.073-1.481,0.102-2.168c0.643,0.012,1.287,0.012,1.93,0.02 c-0.62,4.18-0.407,8.515,0.621,12.615C18.108,41.524,17.213,41.512,16.319,41.497z M20.031,41.532 c-1.062-4.09-1.281-8.432-0.642-12.609c0.221,0.002,0.443,0.004,0.664,0.006c-0.608,4.165-0.427,8.505,0.524,12.605 C20.395,41.534,20.213,41.533,20.031,41.532z M21.6,41.534c-0.98-4.09-1.165-8.436-0.54-12.596c0.285,0.001,0.57,0.008,0.855,0.008 c0.406,0,0.812-0.014,1.218-0.016c-0.004,0.029-0.016,0.055-0.015,0.085c0.112,4.149,0.174,8.35,0.184,12.486 c0,0.007,0.004,0.012,0.004,0.019C22.737,41.525,22.168,41.531,21.6,41.534z M24.119,28.987c-0.001-0.025-0.012-0.046-0.016-0.07 c0.41-0.003,0.819-0.011,1.229-0.016c-0.006,0.03-0.018,0.058-0.018,0.09l0.001,11.887c-0.001,0.179-0.001,0.404,0.03,0.618 c-0.348,0.005-0.697,0.011-1.044,0.015c0-0.004,0.003-0.008,0.003-0.013C24.292,37.354,24.23,33.145,24.119,28.987z M26.4,41.479 c-0.021-0.03-0.034-0.065-0.061-0.09c-0.013-0.08-0.026-0.236-0.025-0.545l-0.001-11.855c0-0.035-0.013-0.066-0.02-0.1 c0.655-0.01,1.309-0.012,1.963-0.026c0.902,4.06,0.914,8.335,0.022,12.397c-0.036,0.056-0.057,0.121-0.072,0.187 C27.603,41.459,27.002,41.468,26.4,41.479z M29.273,28.85c0.291-0.007,0.581-0.014,0.872-0.022 c0.931,4.114,0.935,8.454,0.022,12.575c-0.303,0.007-0.606,0.014-0.908,0.02C30.157,37.3,30.159,32.973,29.273,28.85z M31.157,28.788c0.672-0.021,1.342-0.053,2.014-0.079c0.309,1.361,0.569,8.701,0.262,12.613c-0.748,0.019-1.498,0.039-2.24,0.057 C32.071,37.248,32.062,32.913,31.157,28.788z M34.168,28.671c0.396-0.016,0.792-0.029,1.187-0.046 c0.846,3.602,0.888,8.302,0.103,12.647l-0.882,0.022c-0.046,0.001-0.092,0.002-0.138,0.003 C34.672,38.098,34.583,30.952,34.168,28.671z M8.28,34.617c0.127-2.283,0.817-4.315,1.995-5.878 c0.009-0.012,0.011-0.027,0.019-0.04c0.243,0.022,0.49,0.035,0.739,0.046c-1.105,2.269-1.657,4.498-1.63,6.633 c0.014,1.072,0.174,2.134,0.332,3.172l0.415,2.736c-0.353-0.018-0.705-0.036-1.058-0.057c0.023-0.083,0.032-0.17,0.008-0.259 C8.445,38.564,8.177,36.486,8.28,34.617z M39.901,42.668c-0.091,0.297-0.195,0.596-0.37,0.692c-0.11,0.061-0.298,0.068-0.479,0.075 c-9.711,0.378-19.557,0.469-29.263,0.269c-0.408-0.008-0.845-0.297-1.114-0.736c-0.157-0.258-0.23-0.527-0.214-0.767 c8.75,0.539,17.201,0.322,26.139,0.093l1.108-0.028c1.392-0.035,2.83-0.071,4.21-0.345c0.022,0.009,0.072,0.062,0.085,0.122 C40.042,42.214,39.967,42.455,39.901,42.668z M40.565,41.158c-0.216-0.178-0.495-0.277-0.802-0.219 c-0.008,0.001-0.016,0.002-0.024,0.004c0.624-1.651,0.901-3.537,0.784-5.645c-0.119-2.146-0.613-4.288-1.067-6.128 c-0.056-0.226-0.153-0.528-0.303-0.81c0.186-0.044,0.369-0.103,0.551-0.179c1.537,2.573,1.561,5.91,1.568,8.613 C41.275,38.166,41.275,39.844,40.565,41.158z"/></svg>