<?xml version="1.0"?><svg xmlns="http://www.w3.org/2000/svg" viewBox="0 0 128 128">    <path d="M 64 16 C 51.2 16 39.099609 20.999609 30.099609 30.099609 C 20.999609 39.099609 16 51.2 16 64 C 16 76.8 20.999609 88.900391 30.099609 97.900391 C 39.099609 107.00039 51.2 112 64 112 C 76.8 112 88.900391 107.00039 97.900391 97.900391 C 107.00039 88.900391 112 76.8 112 64 C 112 51.2 107.00039 39.099609 97.900391 30.099609 C 88.900391 20.999609 76.8 16 64 16 z M 64 22 C 75.2 22 85.799219 26.400781 93.699219 34.300781 C 101.59922 42.200781 106 52.8 106 64 C 106 75.2 101.59922 85.799219 93.699219 93.699219 C 85.799219 101.59922 75.2 106 64 106 C 52.8 106 42.200781 101.59922 34.300781 93.699219 C 26.400781 85.799219 22 75.2 22 64 C 22 52.8 26.400781 42.200781 34.300781 34.300781 C 42.200781 26.400781 52.8 22 64 22 z M 57.398438 28.619141 C 57.200977 28.624219 57.000781 28.649219 56.800781 28.699219 C 47.600781 30.599219 39.599219 36.000781 34.199219 43.800781 C 33.299219 45.100781 33.6 47.000391 35 47.900391 C 35.5 48.300391 36.099219 48.400391 36.699219 48.400391 C 37.699219 48.400391 38.599219 47.899609 39.199219 47.099609 C 43.599219 40.599609 50.3 36.1 58 34.5 C 59.6 34.2 60.700781 32.6 60.300781 31 C 60.038281 29.6 58.780664 28.583594 57.398438 28.619141 z M 74.050781 43.949219 C 68.925781 43.949219 63.800391 45.900781 59.900391 49.800781 C 52.100391 57.600781 52.000391 70.299609 59.900391 78.099609 C 67.700391 85.899609 80.399219 85.899609 88.199219 78.099609 C 95.999219 70.299609 95.999219 57.600781 88.199219 49.800781 C 84.299219 45.900781 79.175781 43.949219 74.050781 43.949219 z M 70 54 L 82 54 C 83.1 54 84.099609 54.6 84.599609 55.5 C 85.099609 56.4 85.1 57.6 84.5 58.5 L 74.5 75.5 C 74 76.5 73 77 72 77 C 71.5 77 70.900391 76.899609 70.400391 76.599609 C 69.000391 75.699609 68.500391 73.9 69.400391 72.5 L 76.599609 60 L 70 60 C 68.3 60 67 58.7 67 57 C 67 55.3 68.3 54 70 54 z M 31.5 55.199219 A 3 3 0 0 0 28.5 58.199219 A 3 3 0 0 0 31.5 61.199219 A 3 3 0 0 0 34.5 58.199219 A 3 3 0 0 0 31.5 55.199219 z"/></svg>