<svg xmlns="http://www.w3.org/2000/svg" viewBox="0 0 16 16"><path d="M 3 2 L 3 4.7285156 L 10.267578 11.025391 L 9.1464844 12.146484 A 0.50005 0.50005 0 1 0 9.8535156 12.853516 L 11.5 11.207031 L 13.035156 12.742188 A 1 1 0 0 0 13 13 A 1 1 0 0 0 14 14 A 1 1 0 0 0 15 13 A 1 1 0 0 0 14 12 A 1 1 0 0 0 13.742188 12.035156 L 12.207031 10.5 L 13.853516 8.8535156 A 0.50005 0.50005 0 0 0 13.490234 7.9960938 A 0.50005 0.50005 0 0 0 13.146484 8.1464844 L 12.025391 9.2675781 L 5.7285156 2 L 3 2 z M 10.271484 2 L 8.6621094 3.8574219 L 9.3222656 4.6210938 L 10.728516 3 L 12 3 L 12 4.2714844 L 10.298828 5.7460938 L 10.953125 6.5019531 L 13 4.7285156 L 13 2 L 10.271484 2 z M 4 3 L 5.2714844 3 L 11.318359 9.9746094 L 10.974609 10.318359 L 4 4.2714844 L 4 3 z M 5.1464844 7.9121094 L 3.9726562 9.265625 L 2.8535156 8.1464844 A 0.50005 0.50005 0 0 0 2.4941406 7.9941406 A 0.50005 0.50005 0 0 0 2.1464844 8.8535156 L 3.7929688 10.5 L 2.2578125 12.035156 A 1 1 0 0 0 2 12 A 1 1 0 0 0 1 13 A 1 1 0 0 0 2 14 A 1 1 0 0 0 3 13 A 1 1 0 0 0 2.9648438 12.742188 L 4.5 11.207031 L 6.1464844 12.853516 A 0.50005 0.50005 0 1 0 6.8535156 12.146484 L 5.734375 11.027344 L 7.2363281 9.7246094 L 6.4726562 9.0625 L 5.0234375 10.316406 L 4.6816406 9.9746094 L 5.9023438 8.5664062 L 5.1464844 7.9121094 z"/></svg>