<svg xmlns="http://www.w3.org/2000/svg" viewBox="0 0 24 24"><path d="M 2 0 L 2 1.5625 C 1.609375 1.671875 1.234375 1.816406 0.90625 2.125 C 0.296875 2.691406 0 3.566406 0 4.59375 C 0 5.621094 0.351563 6.542969 0.875 7.21875 C 1.1875 7.621094 1.585938 7.921875 2.03125 8.125 C 2.476563 12.128906 3.933594 16.253906 5.6875 18.59375 C 5.988281 18.992188 6.195313 18.289063 6.59375 17.6875 C 6.394531 18.585938 6.613281 19.800781 6.8125 20 C 8.914063 22.601563 11.09375 24 12.09375 24 C 12.492188 24 13.292969 23.699219 14.09375 23 C 14.292969 22.800781 14.386719 21.894531 14.1875 18.59375 C 14.789063 21.894531 15.210938 22.199219 15.3125 22 C 17.882813 19.527344 21.3125 13.929688 21.96875 8 C 22.457031 7.800781 22.910156 7.519531 23.21875 7.09375 C 23.726563 6.394531 24 5.488281 24 4.5 C 24 3.550781 23.699219 2.699219 23.125 2.125 C 22.820313 1.820313 22.386719 1.824219 22 1.6875 L 22 0 L 20 0 L 20 3.3125 L 21 3.3125 C 21.335938 3.3125 21.566406 3.378906 21.71875 3.53125 C 21.871094 3.683594 22 3.949219 22 4.5 C 22 5.113281 21.8125 5.605469 21.59375 5.90625 C 21.375 6.207031 21.1875 6.3125 21 6.3125 L 20.09375 6.3125 L 20 7.1875 C 19.945313 7.675781 19.863281 8.160156 19.75 8.625 C 17.882813 10.269531 15.988281 13.59375 15 13.59375 C 13.699219 13.59375 12.898438 12.09375 12 12.09375 C 11.101563 12.09375 10.300781 13.59375 9 13.59375 C 8.078125 13.59375 6.179688 10.234375 4.28125 8.59375 C 4.171875 8.160156 4.058594 7.730469 4 7.28125 L 3.875 6.40625 L 3 6.40625 C 2.996094 6.40625 2.6875 6.324219 2.4375 6 C 2.1875 5.675781 2 5.164063 2 4.59375 C 2 3.921875 2.164063 3.703125 2.28125 3.59375 C 2.398438 3.484375 2.601563 3.40625 3 3.40625 L 4 3.40625 L 4 0 Z M 8 0 C 6.894531 0 6 0.894531 6 2 C 6 3.105469 6.894531 4 8 4 C 9.105469 4 10 3.105469 10 2 C 10 0.894531 9.105469 0 8 0 Z M 16 0 C 14.894531 0 14 0.894531 14 2 C 14 3.105469 14.894531 4 16 4 C 17.105469 4 18 3.105469 18 2 C 18 0.894531 17.105469 0 16 0 Z M 12 9.1875 C 10.90625 9.1875 10.078125 9.390625 9.5 9.59375 C 8.921875 9.796875 8.53125 10.03125 8.53125 10.03125 L 9.46875 11.34375 C 9.46875 11.34375 9.578125 11.242188 10 11.09375 C 10.421875 10.945313 11.09375 10.8125 12 10.8125 C 12.90625 10.8125 13.578125 10.945313 14 11.09375 C 14.421875 11.242188 14.53125 11.34375 14.53125 11.34375 L 15.46875 10.03125 C 15.46875 10.03125 15.078125 9.796875 14.5 9.59375 C 13.921875 9.390625 13.09375 9.1875 12 9.1875 Z"/></svg>