<svg xmlns="http://www.w3.org/2000/svg" width="512" height="512" viewBox="0 0 512 512"><path fill="#3CB881" d="M504.1,256c0,137-111.1,248.1-248.1,248.1S7.9,393,7.9,256S119,7.9,256,7.9S504.1,119,504.1,256"/><path fill="#C5CBD4" d="M281.4 343.2c2.3-.1 4.5-.3 6.6-.5h0C285.8 342.9 283.7 343.1 281.4 343.2M280.9 343.2c-1 0-2.1.1-3.1.1C278.9 343.3 279.9 343.3 280.9 343.2M297.2 318.8c-.4 0-.7 0-1.1 0C296.5 318.9 296.8 318.8 297.2 318.8M299.9 318.6c-.3 0-.6.1-1 .1C299.2 318.7 299.5 318.7 299.9 318.6M277 305.9c1.5-.2 3-.5 4.5-.8C280 305.4 278.6 305.6 277 305.9M294.1 318.8c-.3 0-.7 0-1 0C293.5 318.8 293.8 318.8 294.1 318.8M282.4 304.9c11.2-2.3 21.3-6 29.7-10.8v0C303.7 298.9 293.6 302.6 282.4 304.9"/><path fill="#908BC0" d="M218.2 302.2c-.1 0-.3-.1-.5-.1C217.9 302.1 218.1 302.1 218.2 302.2M227 304.5c-.3-.1-.6-.1-.9-.2C226.4 304.3 226.7 304.4 227 304.5M199.3 294.1c5.5 3.1 11.7 5.8 18.5 7.9C211 299.9 204.7 297.2 199.3 294.1L199.3 294.1zM226.1 304.3c-2.7-.6-5.3-1.3-7.9-2.1C220.8 303 223.4 303.7 226.1 304.3M231 305.3c-1.4-.3-2.7-.5-4-.8C228.3 304.8 229.7 305.1 231 305.3"/><path fill="#6A5C43" d="M223 336.6H250.4V366.3H223zM263.4 336.6H290.79999999999995V366.3H263.4z"/><path fill="#6A5C43" d="M236.7 356c-10.7 0-19.3 8.7-19.3 19.3H256C256 364.6 247.4 356 236.7 356M277.1 356c-10.7 0-19.3 8.7-19.3 19.3h38.7C296.5 364.6 287.8 356 277.1 356"/><path fill="#6A5C43" d="M200.3 290.7c-1.9 5.3-2.9 10.9-2.9 16.7 0 29.8 26.3 53.9 58.6 53.9v-45.1C232.5 316.2 211.9 306 200.3 290.7M256 316.2v45.1c32.4 0 58.6-24.1 58.6-53.9 0-5.8-1-11.4-2.9-16.7C300.1 306 279.5 316.2 256 316.2"/><path fill="#6A5C43" d="M256,253.4c-26,0-48.1,15.6-55.7,37.2c11.6,15.3,32.2,25.5,55.7,25.5s44.1-10.2,55.7-25.5C304.1,269.1,282,253.4,256,253.4"/><path fill="#F7F3CE" d="M232.3 323.4c0 0 .2.1.6.2.4.1.9.3 1.6.4 1.4.3 3.2.7 5.1 1 .5.1.9.1 1.4.1.5 0 .9.1 1.4.1.9 0 1.7 0 2.5 0 1.4-.2 2.4-.3 2.4-.3s-.8.5-2.2 1.1c-.7.2-1.5.5-2.5.8-.5.1-.9.2-1.4.3-.5.1-1 .3-1.5.3-2 .4-4 .6-5.5.8-.8.1-1.4.1-1.9.1-.4 0-.7 0-.7 0-1.4.1-2.6-1-2.7-2.4-.1-1.4 1-2.6 2.5-2.7C231.7 323.3 232 323.4 232.3 323.4L232.3 323.4zM232.3 329.3c0 0 .2.1.6.2.4.1.9.3 1.6.4 1.4.4 3.2.7 5.1 1 .5.1.9.1 1.4.1.5 0 .9.1 1.4.1.9 0 1.7 0 2.5 0 1.4-.2 2.4-.4 2.4-.4s-.8.5-2.2 1.1c-.7.2-1.5.5-2.5.8-.5.1-.9.2-1.4.3-.5.1-1 .3-1.5.3-2 .4-4 .6-5.5.8-.8.1-1.4.1-1.9.1-.4 0-.7 0-.7 0-1.4.1-2.6-1-2.7-2.4s1-2.6 2.5-2.7C231.7 329.2 232 329.2 232.3 329.3L232.3 329.3z"/><path fill="#F7F3CE" d="M232.8,333.9c0,0,0.2,0.1,0.6,0.3c0.4,0.2,0.9,0.4,1.5,0.7c1.3,0.6,3.1,1.3,4.9,1.9c0.5,0.2,0.9,0.3,1.4,0.4c0.5,0.1,0.9,0.3,1.3,0.4c0.9,0.2,1.7,0.3,2.4,0.4c1.4,0.1,2.4,0.1,2.4,0.1s-0.9,0.3-2.4,0.7c-0.8,0.1-1.6,0.2-2.6,0.4c-0.5,0-1,0-1.5,0.1c-0.5,0-1,0.1-1.5,0.1c-2,0-4.1-0.1-5.6-0.3c-0.8-0.1-1.4-0.1-1.9-0.2c-0.4-0.1-0.7-0.1-0.7-0.1c-1.4-0.2-2.4-1.5-2.2-2.9c0.2-1.4,1.5-2.4,2.9-2.2C232.3,333.7,232.5,333.8,232.8,333.9L232.8,333.9z"/><path fill="#F7F3CE" d="M230.4,338.3c0,0,0.2,0.1,0.5,0.4c0.3,0.2,0.8,0.6,1.3,1c1.1,0.9,2.7,1.9,4.3,2.9c0.4,0.3,0.8,0.5,1.2,0.7c0.4,0.2,0.8,0.5,1.2,0.7c0.8,0.4,1.6,0.7,2.3,1c1.4,0.4,2.3,0.6,2.3,0.6s-1,0.1-2.5,0.1c-0.8-0.1-1.6-0.1-2.6-0.2c-0.5-0.1-0.9-0.2-1.4-0.2c-0.5-0.1-1-0.2-1.5-0.3c-2-0.4-3.9-1-5.4-1.5c-0.7-0.2-1.3-0.5-1.8-0.6c-0.4-0.2-0.7-0.2-0.7-0.2c-1.3-0.5-2-2-1.5-3.3c0.5-1.3,2-2,3.3-1.5C229.9,338,230.1,338.1,230.4,338.3L230.4,338.3z"/><path fill="#6A5C43" d="M221.6,344.4c-1.2,0-2.4-0.2-3.6-0.5c-15.7-4.3-22.7-13.4-26.9-19.6c-11-16.3-5.3-40.4-4.9-42l27.7,11.1c-2.1,7.9,1.6,21.7,11.2,24.3c7.2,2,11.5,9.4,9.5,16.7C233,340.4,227.5,344.4,221.6,344.4"/><path fill="#F7F3CE" d="M279.7 323.4c0 0-.2.1-.6.2-.4.1-.9.3-1.6.4-1.4.3-3.3.7-5.1 1-.5.1-.9.1-1.4.1-.5 0-.9.1-1.4.1-.9 0-1.7 0-2.5 0-1.4-.2-2.4-.3-2.4-.3s.8.5 2.2 1.1c.7.2 1.6.5 2.5.8.5.1.9.2 1.4.3.5.1 1 .3 1.5.3 2 .4 4 .6 5.5.8.8.1 1.4.1 1.9.1.4 0 .7 0 .7 0 1.4.1 2.6-1 2.7-2.4.1-1.4-1-2.6-2.4-2.7C280.3 323.3 280 323.4 279.7 323.4L279.7 323.4zM279.7 329.3c0 0-.2.1-.6.2-.4.1-.9.3-1.6.4-1.4.4-3.3.7-5.1 1-.5.1-.9.1-1.4.1-.5 0-.9.1-1.4.1-.9 0-1.7 0-2.5 0-1.4-.2-2.4-.4-2.4-.4s.8.5 2.2 1.1c.7.2 1.6.5 2.5.8.5.1.9.2 1.4.3s1 .3 1.5.3c2 .4 4 .6 5.5.8.8.1 1.4.1 1.9.1.4 0 .7 0 .7 0 1.4.1 2.6-1 2.7-2.4.1-1.4-1-2.6-2.4-2.7C280.3 329.2 280 329.2 279.7 329.3L279.7 329.3z"/><path fill="#F7F3CE" d="M279.2,333.9c0,0-0.2,0.1-0.6,0.3c-0.4,0.2-0.9,0.4-1.5,0.7c-1.3,0.6-3.1,1.3-4.9,1.9c-0.5,0.2-0.9,0.3-1.4,0.4c-0.5,0.1-0.9,0.3-1.3,0.4c-0.9,0.2-1.7,0.3-2.4,0.4c-1.4,0.1-2.4,0.1-2.4,0.1s0.9,0.3,2.4,0.7c0.8,0.1,1.6,0.2,2.6,0.4c0.5,0,1,0,1.4,0.1c0.5,0,1,0.1,1.5,0.1c2,0,4.1-0.1,5.6-0.3c0.8-0.1,1.4-0.1,1.9-0.2c0.5-0.1,0.7-0.1,0.7-0.1c1.4-0.2,2.4-1.5,2.2-2.9c-0.2-1.4-1.5-2.4-2.9-2.2C279.7,333.7,279.5,333.8,279.2,333.9L279.2,333.9z"/><path fill="#F7F3CE" d="M281.6,338.3c0,0-0.2,0.1-0.5,0.4c-0.3,0.2-0.8,0.6-1.3,1c-1.1,0.9-2.7,1.9-4.3,2.9c-0.4,0.3-0.8,0.5-1.2,0.7c-0.4,0.2-0.8,0.5-1.2,0.7c-0.8,0.4-1.6,0.7-2.3,1c-1.4,0.4-2.3,0.6-2.3,0.6s1,0.1,2.5,0.1c0.8-0.1,1.6-0.1,2.6-0.2c0.5-0.1,0.9-0.2,1.4-0.2c0.5-0.1,1-0.2,1.5-0.3c2-0.4,4-1,5.4-1.5c0.7-0.2,1.3-0.5,1.8-0.6c0.4-0.2,0.7-0.2,0.7-0.2c1.3-0.5,2-2,1.5-3.3c-0.5-1.3-2-2-3.3-1.5C282.1,338,281.9,338.1,281.6,338.3L281.6,338.3z"/><path fill="#6A5C43" d="M290.4 344.4c1.2 0 2.4-.2 3.6-.5 15.7-4.3 22.7-13.4 26.9-19.6 11-16.3 5.3-40.4 4.9-42l-27.7 11.1c2.1 7.9-1.6 21.7-11.2 24.3-7.2 2-11.5 9.4-9.5 16.7C279 340.4 284.5 344.4 290.4 344.4M299.5 136.7c-12.8 0-23.1 12.5-23.1 25.3 0 12.8 10.3 23.1 23.1 23.1 12.8 0 23.1-10.3 23.1-23.1C322.6 149.2 312.3 136.7 299.5 136.7M212.5 136.7c-12.8 0-23.1 12.5-23.1 25.3 0 12.8 10.3 23.1 23.1 23.1 12.8 0 23.1-10.3 23.1-23.1C235.6 149.2 225.3 136.7 212.5 136.7"/><path fill="#6A5C43" d="M256.3 153.6c-.1 0-.2 0-.3 0v105.9c20.3 0 37.4 16.5 43 39.1 4.8-1.8 9.3-3.9 13.4-6.2v0c15.1-8.6 24.6-20.7 24.6-34.1C336.9 251.7 341.5 153.6 256.3 153.6M256 259.5V153.6c-83 0-81 98.1-81 104.7 0 13.4 9.4 25.5 24.6 34.1v0c4.1 2.3 8.6 4.4 13.4 6.2C218.6 276 235.7 259.5 256 259.5"/><path fill="#F7F3CE" d="M256 259.5v46.9c.3 0 .5 0 .8 0 10.7 0 25.1-3 25.1-3 .3-.1.6-.1.9-.2 5.7-1.2 11.2-2.8 16.3-4.6C293.4 276 276.3 259.5 256 259.5M218.5 300.5c2.5.8 5.2 1.5 7.9 2.1.3.1.6.1.9.2 1.3.3 4 .8 4 .8s16.2 2.6 24.6 2.7v-46.9c-20.3 0-37.4 16.5-43 39.1 1.7.6 3.4 1.2 5.1 1.7C218.2 300.4 218.4 300.4 218.5 300.5"/><path fill="#3C3D3C" d="M297.5 237.2c0 4.9-4 9-8.9 9-4.9 0-8.9-4-8.9-9 0-4.9 4-8.9 8.9-8.9C293.5 228.3 297.5 232.3 297.5 237.2M232.4 237.2c0 4.9-4 9-9 9-4.9 0-8.9-4-8.9-9 0-4.9 4-8.9 8.9-8.9C228.4 228.3 232.4 232.3 232.4 237.2"/><path fill="#FFF" d="M230 234.5c0 1.8-1.5 3.3-3.3 3.3-1.8 0-3.3-1.5-3.3-3.3 0-1.8 1.5-3.3 3.3-3.3C228.6 231.2 230 232.7 230 234.5M294.6 234.5c0 1.8-1.5 3.3-3.3 3.3-1.8 0-3.3-1.5-3.3-3.3 0-1.8 1.5-3.3 3.3-3.3C293.1 231.2 294.6 232.7 294.6 234.5"/><path fill="#3C3D3C" d="M271.2,275c0,0,0-0.1,0-0.1v0h0c-0.2-3.8-6.9-6.9-15.2-6.9s-15,3.1-15.2,6.9h0c0,0,0,0,0,0c0,0,0,0.1,0,0.1c0,3.5,5.6,8.2,12.8,9.1v10.5c-0.7,0.9-2.4,2.5-4.1,1.6c-1.1-0.6-2.4-0.2-3,0.9c-0.6,1.1-0.2,2.4,0.9,3c1.1,0.6,2.1,0.8,3.1,0.8c2.1,0,4-1.1,5.4-2.4c1.3,1.3,3.2,2.4,5.4,2.4c1,0,2.1-0.2,3.2-0.8c1.1-0.6,1.5-1.9,0.9-3c-0.6-1.1-1.9-1.5-3-0.9c-1.8,0.9-3.4-0.7-4.1-1.5v-10.5C265.6,283.2,271.2,278.5,271.2,275"/></svg>