<svg xmlns="http://www.w3.org/2000/svg" viewBox="0 0 128 128"><path fill="#ff5576" d="M115,60.8c0-9-12-18.8-30.5-25.7c-6.4-2.4-15.4,7.2-22.5,7.2c-6.8,0-15.4-9.7-21.4-7.5 c-18.7,6.7-30.6,17-30.6,26c0,16.1,24.4,37.5,52,37.5C89.6,98.3,115,76.9,115,60.8"/><path fill="#ff6684" d="M42.5,34.5c-0.7,0-1.3,0.1-1.9,0.3l0,0c-18.7,6.7-30.6,17-30.6,26c0,0,0,0,0,0c0,0,0,0,0,0 c0,0,0,0,0,0c0,0,0,0,0,0c0,5.9,3.3,12.6,8.9,18.5c0.5,0,1.1,0,1.6,0c9,0,17.2-2.6,23.7-6.8c2.3-1.5,2.2-4.3,2-7.1c0,0,0,0,0-0.1 c0,0,0.1-0.1,0.2-0.1c6.1-2.1,10.9-7,11.8-13.4c0.2-1.2,0.3-2.5,0.3-3.8c0-2.4-0.3-4.7-1-6.9c-2.3-1-4.7-2.5-7.1-3.8 C47.7,35.9,44.9,34.5,42.5,34.5"/><path fill="#db3e64" d="M106.7,47.2c-2.5-0.6-5.4-0.7-6.9-0.4c-3.5,0.6-5.9,3.3-6.5,6.5C92.6,57,89.6,59.9,86,61 c-8,2.4-19.5,5.8-22.7,5.8c-6.9,0-24.5-5.9-24.5-3.4c0,2.5,11,9.6,24.5,9.6c3,0,10.7,0.2,18.4-0.8c4.6-0.6,7.4,5,4.1,8.3 c-3.6,3.6-8,6.9-12.9,9.7c-3.2,1.8-2,6.5,1.2,6.8C96.6,92,115,74.5,115,60.8C115,56.3,112,51.7,106.7,47.2z"/><path fill="#fff" d="M62.3 59A17.6 4 0 1 0 62.3 67A17.6 4 0 1 0 62.3 59Z"/><path fill="none" stroke="#444b54" stroke-linecap="round" stroke-linejoin="round" stroke-miterlimit="10" stroke-width="6" d="M115,60.8c0,16.1-25.4,37.5-53,37.5c-22.7,0-43.1-14.4-49.8-28.5"/><path fill="none" stroke="#444b54" stroke-linecap="round" stroke-linejoin="round" stroke-miterlimit="10" stroke-width="6" d="M110.8,51.2c-5-5.9-14.3-11.6-26.3-16.1c-6.4-2.4-15.4,7.2-22.5,7.2c-6.8,0-15.4-9.7-21.4-7.5c-12.6,4.5-22.1,10.7-27,17 c-0.8,1.1-1.5,2.1-2,3.2c0,0,0,0,0,0.1c-1.2,2.5,0.8,5.3,3.6,5l99.9,0.8"/><path fill="#ff5576" d="M93.6 68A3 3 0 1 0 93.6 74A3 3 0 1 0 93.6 68Z"/><path fill="none" stroke="#fff" stroke-linecap="round" stroke-linejoin="round" stroke-miterlimit="10" stroke-width="6" d="M30.5,71.3c0,0,5.8,2,11.6,2.7"/><path fill="#fff" d="M21.7 64.7A3 3 0 1 0 21.7 70.7A3 3 0 1 0 21.7 64.7Z"/></svg>