<svg xmlns="http://www.w3.org/2000/svg" viewBox="0 0 128 128"><path d="M124.4 19.1l-7.1 0 9.6-13.2c.7-.9.8-2.1.2-3.1-.5-1-1.5-1.6-2.7-1.6l-13 0c-1.7 0-3 1.3-3 3s1.3 3 3 3l7.1 0L109 20.4c-.7.9-.8 2.1-.2 3.1.5 1 1.5 1.6 2.7 1.6l13 0c.1 0 .2 0 .3 0 1.5-.1 2.7-1.4 2.7-3C127.4 20.4 126.1 19.1 124.4 19.1zM88.1 28.4c.8.8 1.9 1.1 3 .9l7.7-2.1c.3-.1.5-.2.7-.3 1.1-.7 1.8-2 1.4-3.4-.4-1.6-2.1-2.6-3.7-2.1L94.9 22l2.8-8.3c.4-1 .1-2.2-.6-3-.8-.8-1.9-1.1-3-.9l-7.7 2.1c-1.6.4-2.6 2.1-2.1 3.7.4 1.6 2.1 2.6 3.7 2.1l2.3-.6-2.8 8.3C87.1 26.4 87.3 27.6 88.1 28.4zM77.4 30.700000000000003A3 3 0 1 0 77.4 36.7 3 3 0 1 0 77.4 30.700000000000003zM4 112h2v12c0 1.7 1.3 3 3 3s3-1.3 3-3v-12h69v12c0 1.7 1.3 3 3 3s3-1.3 3-3v-12h2c1.7 0 3-1.3 3-3V84c0-1.7-1.3-3-3-3h-2V60c0-7.2-5.8-13-13-13H19c-7.2 0-13 5.8-13 13v12c0 1.7 1.3 3 3 3s3-1.3 3-3V60c0-3.9 3.1-7 7-7h55c3.9 0 7 3.1 7 7v21h-7c0-7.2-5.8-13-13-13H32c-7.2 0-13 5.8-13 13H4c-1.7 0-3 1.3-3 3v25C1 110.7 2.3 112 4 112zM7 87h79v19H7V87z"/></svg>