<svg xmlns="http://www.w3.org/2000/svg" viewBox="0 0 100 100"><path d="M 50 14 C 30.129581 14 14 30.129595 14 50 C 14 69.870405 30.129581 86 50 86 C 69.870419 86 86 69.870405 86 50 C 86 30.129595 69.870419 14 50 14 z M 50 16 C 68.78954 16 84 31.210473 84 50 C 84 68.789527 68.78954 84 50 84 C 31.21046 84 16 68.789527 16 50 C 16 31.210473 31.21046 16 50 16 z M 50 19 C 32.884791 19 19 32.884791 19 50 C 19 67.115209 32.884791 81 50 81 C 67.115209 81 81 67.115209 81 50 C 81 40.904382 77.079076 32.716819 70.835938 27.046875 A 0.50005 0.50005 0 1 0 70.164062 27.787109 C 76.206924 33.275165 80 41.191618 80 50 C 80 66.574791 66.574791 80 50 80 C 33.425209 80 20 66.574791 20 50 C 20 33.425209 33.425209 20 50 20 C 53.630741 20 57.108062 20.645941 60.328125 21.826172 A 0.50018397 0.50018397 0 1 0 60.671875 20.886719 C 57.343938 19.66695 53.749259 19 50 19 z M 63.480469 22.140625 A 0.50005 0.50005 0 0 0 63.277344 23.091797 C 63.947092 23.423229 64.604492 23.779343 65.246094 24.158203 A 0.50005 0.50005 0 1 0 65.753906 23.296875 C 65.091508 22.905735 64.414908 22.53788 63.722656 22.195312 A 0.50005 0.50005 0 0 0 63.480469 22.140625 z M 67.507812 24.511719 A 0.50005 0.50005 0 0 0 67.457031 24.513672 A 0.50005 0.50005 0 0 0 67.212891 25.425781 C 67.545583 25.65906 67.873213 25.899999 68.195312 26.146484 A 0.50080937 0.50080937 0 1 0 68.804688 25.351562 C 68.470787 25.096048 68.130417 24.848143 67.787109 24.607422 A 0.50005 0.50005 0 0 0 67.507812 24.511719 z M 46.5 27 A 0.50005 0.50005 0 0 0 46 27.5 L 46 35.5 A 0.50005 0.50005 0 0 0 46.5 36 L 53.5 36 A 0.50005 0.50005 0 0 0 54 35.5 L 54 27.5 A 0.50005 0.50005 0 0 0 53.5 27 L 46.5 27 z M 47 28 L 53 28 L 53 35 L 47 35 L 47 28 z M 63.841797 34 A 0.50005 0.50005 0 0 0 63.419922 34.210938 L 50.064453 53.003906 C 50.042737 53.003707 50.021762 53 50 53 C 46.139927 53 43 56.13993 43 60 C 43 62.372943 44.188953 64.469829 46 65.736328 L 46 72.5 A 0.50005 0.50005 0 0 0 46.5 73 L 53.5 73 A 0.50005 0.50005 0 0 0 54 72.5 L 54 65.736328 C 55.811047 64.469829 57 62.372943 57 60 C 57 59.172162 56.848951 58.380303 56.583984 57.642578 L 69.908203 38.892578 A 0.50005 0.50005 0 0 0 69.792969 38.197266 L 64.121094 34.095703 A 0.50005 0.50005 0 0 0 63.841797 34 z M 63.943359 35.199219 L 68.804688 38.716797 L 56.105469 56.587891 C 55.09573 54.788309 53.314901 53.48284 51.212891 53.113281 L 63.943359 35.199219 z M 38.990234 37.990234 A 1.0001 1.0001 0 0 0 38.292969 39.707031 L 41.585938 43 L 28 43 A 1.0001 1.0001 0 1 0 28 45 L 41.585938 45 L 38.292969 48.292969 A 1.0001 1.0001 0 1 0 39.707031 49.707031 L 44.707031 44.707031 A 1.0001 1.0001 0 0 0 44.707031 43.292969 L 39.707031 38.292969 A 1.0001 1.0001 0 0 0 38.990234 37.990234 z M 50 54 C 53.319633 54 56 56.680369 56 60 C 56 63.319631 53.319633 66 50 66 C 46.680367 66 44 63.319631 44 60 C 44 56.680369 46.680367 54 50 54 z M 50 57 C 49.041667 57 48.260256 57.377378 47.751953 57.949219 C 47.24365 58.52106 47 59.263889 47 60 C 47 60.736111 47.24365 61.47894 47.751953 62.050781 C 48.260256 62.622622 49.041667 63 50 63 C 50.958333 63 51.739744 62.622622 52.248047 62.050781 C 52.75635 61.47894 53 60.736111 53 60 C 53 59.263889 52.75635 58.52106 52.248047 57.949219 C 51.739744 57.377378 50.958333 57 50 57 z M 50 58 C 50.708333 58 51.176923 58.247622 51.501953 58.613281 C 51.826983 58.97894 52 59.486111 52 60 C 52 60.513889 51.826983 61.02106 51.501953 61.386719 C 51.176923 61.752378 50.708333 62 50 62 C 49.291667 62 48.823077 61.752378 48.498047 61.386719 C 48.173017 61.02106 48 60.513889 48 60 C 48 59.486111 48.173017 58.97894 48.498047 58.613281 C 48.823077 58.247622 49.291667 58 50 58 z M 47 66.314453 C 47.910782 66.74895 48.925381 67 50 67 C 51.074619 67 52.089218 66.74895 53 66.314453 L 53 72 L 47 72 L 47 66.314453 z"/></svg>