<svg xmlns="http://www.w3.org/2000/svg" viewBox="0 0 48 48"><path fill="#4caf50" d="M42.447,19.388C37.506,17.637,37,22.5,37,22.5S41.902,24.445,42.447,19.388z"/><path fill="#795548" d="M38,23.375h-2c0-2.396-1.165-3.667-1.177-3.68l1.438-1.391C36.331,18.378,38,20.14,38,23.375z"/><path fill="#e53935" d="M37,32.109c-2.179,2.645-6.186-1.05-6.886-4.98C29.375,23.2,32.293,19.31,37,22.5	c4.707-3.19,7.625,0.739,6.886,4.63C43.186,31.059,39.179,34.755,37,32.109z"/><path fill="#b0bec5" d="M34,37V11c0-1.1-0.9-2-2-2H6c-1.1,0-2,0.9-2,2v26c0,1.105,0.895,2,2,2h26C33.105,39,34,38.105,34,37z"/><path fill="#78909c" d="M22.5,15h-7c-0.8,0-1.5-0.7-1.5-1.5l0,0c0-0.8,0.7-1.5,1.5-1.5h7c0.8,0,1.5,0.7,1.5,1.5l0,0	C24,14.3,23.3,15,22.5,15z"/></svg>