<svg xmlns="http://www.w3.org/2000/svg" viewBox="0 0 16 16"><path d="M 7.5 1 C 3.917969 1 1 3.917969 1 7.5 C 1 11.082031 3.917969 14 7.5 14 C 11.082031 14 14 11.082031 14 7.5 C 14 3.917969 11.082031 1 7.5 1 Z M 7.5 2 C 10.542969 2 13 4.457031 13 7.5 C 13 10.542969 10.542969 13 7.5 13 C 4.457031 13 2 10.542969 2 7.5 C 2 4.457031 4.457031 2 7.5 2 Z M 8.5 4 C 8.109375 4 7.761719 4.175781 7.539063 4.414063 C 7.320313 4.648438 7.203125 4.917969 7.132813 5.171875 C 6.984375 5.671875 7 6.136719 7 6.136719 L 7 8.96875 C 6.015625 8.859375 5.574219 8.414063 5.3125 7.96875 C 5.007813 7.453125 5 6.945313 5 6.941406 L 5 6.9375 C 5 6.136719 5.417969 5.46875 5.898438 5.179688 C 6.09375 5.066406 6.1875 4.835938 6.132813 4.621094 C 6.074219 4.402344 5.878906 4.25 5.65625 4.246094 C 5.558594 4.246094 5.464844 4.269531 5.382813 4.320313 C 4.558594 4.820313 4 5.804688 4 6.941406 C 4 6.941406 4 6.945313 4 6.945313 C 4 6.945313 4.003906 7.710938 4.453125 8.476563 C 4.855469 9.15625 5.667969 9.832031 7 9.96875 L 7 12 L 8 12 L 8 9.878906 C 9.277344 9.71875 10.152344 9.140625 10.546875 8.476563 C 10.996094 7.710938 11 6.945313 11 6.945313 C 11 6.945313 11 6.941406 11 6.941406 C 11 5.34375 9.886719 4 8.5 4 Z M 8.5 5 C 9.191406 5 10 5.816406 10 6.9375 L 10 6.941406 C 10 6.945313 9.992188 7.453125 9.6875 7.96875 C 9.433594 8.394531 8.90625 8.757813 8 8.890625 L 8 6.125 C 8 6.121094 8 6.117188 8 6.113281 C 8 6.113281 7.996094 5.765625 8.089844 5.453125 C 8.136719 5.300781 8.207031 5.164063 8.273438 5.09375 C 8.335938 5.027344 8.371094 5 8.5 5 Z"/></svg>