<svg xmlns="http://www.w3.org/2000/svg" width="512" height="512" viewBox="0 0 512 512"><path fill="#344E5D" d="M33.5,256c0-122.9,99.6-222.5,222.5-222.5c122.9,0,222.5,99.6,222.5,222.5c0,122.9-99.6,222.5-222.5,222.5C133.1,478.5,33.5,378.9,33.5,256z"/><path fill="#EAE744" d="M261.4,96.1c-15.5,0-28,12.6-28,28c0,15.5,12.6,28,28,28c15.5,0,28-12.5,28-28C289.5,108.6,276.9,96.1,261.4,96.1z M261.8,144c-9.4,0-17.1-7.6-17.1-17.1s7.6-17.1,17.1-17.1s17.1,7.6,17.1,17.1S271.3,144,261.8,144z"/><path fill="#E3A93F" d="M144.8,346c0,0,47.4,31.5,116.7,31.5c69.3,0,118.9-31.5,118.9-31.5s-63.4-22.2-118.9-22.2C205.9,323.8,144.8,346,144.8,346z"/><path fill="#ECB050" d="M144.8,346c0,0,47.4,31.5,116.7,31.5v-53.8C205.9,323.8,144.8,346,144.8,346z"/><path fill="#DDD555" d="M286.3,342.1c0,14.3-11.6,25.9-25.9,25.9s-25.9-11.6-25.9-25.9s11.6-25.9,25.9-25.9S286.3,327.8,286.3,342.1z"/><path fill="#EAE744" d="M261.7,134.5c-85.9,0-75.6,78.3-90.3,136.2c-0.6,2.3-14.3,10.6-21.3,25.8c-7.1,15.2-5.8,49.5-5.3,49.5c2.2,0,73.3-16.9,116.7-16.9s118.9,18,118.9,18s0.1-38.6-6.9-51c-7-12.4-20.1-21.7-20.8-24.2C337.8,213.6,347.5,134.5,261.7,134.5z"/><path fill="#F1E85F" d="M261.7,134.5c-85.9,0-75.6,78.3-90.3,136.2c-0.6,2.3-14.3,10.6-21.3,25.8c-7.1,15.2-5.8,49.5-5.3,49.5c2.2,0,73.3-16.9,116.7-16.9L261.7,134.5z"/></svg>