<?xml version="1.0"?><svg xmlns="http://www.w3.org/2000/svg" viewBox="0 0 30 30">    <path d="M 21 2 L 18 5 L 25 12 L 28 9 L 21 2 z M 16 7 L 14.025391 8.9746094 L 13.939453 8.8886719 C 12.769453 7.7186719 10.867266 7.7186719 9.6972656 8.8886719 L 4.8808594 13.705078 C 3.7108594 14.875078 3.7108594 16.779219 4.8808594 17.949219 L 4.9648438 18.033203 L 2 21 L 9 28 L 11.964844 25.035156 L 12.050781 25.119141 C 12.635781 25.704141 13.404875 25.998047 14.171875 25.998047 C 14.940875 25.998047 15.707969 25.704141 16.292969 25.119141 L 21.109375 20.302734 C 22.280375 19.132734 22.281328 17.230547 21.111328 16.060547 L 21.025391 15.974609 L 23 14 L 16 7 z M 11.818359 10.011719 C 12.074359 10.011719 12.330391 10.109687 12.525391 10.304688 L 12.609375 10.390625 L 7.7070312 15.292969 L 10.5 18.085938 L 13.292969 15.292969 C 13.683969 14.901969 14.316031 14.901969 14.707031 15.292969 C 15.098031 15.683969 15.098031 16.316031 14.707031 16.707031 L 11.914062 19.5 L 14.707031 22.292969 L 19.609375 17.390625 L 19.697266 17.476562 C 20.086266 17.865562 20.086266 18.498672 19.697266 18.888672 L 14.880859 23.705078 C 14.490859 24.095078 13.856844 24.097078 13.464844 23.705078 L 10.587891 20.828125 L 9.7070312 21.707031 C 9.5110313 21.902031 9.256 22 9 22 C 8.744 22 8.4879688 21.902031 8.2929688 21.707031 C 7.9019687 21.316031 7.9019688 20.683969 8.2929688 20.292969 L 9.171875 19.414062 L 6.2949219 16.535156 C 5.9049219 16.144156 5.9049219 15.512094 6.2949219 15.121094 L 11.111328 10.304688 C 11.306328 10.109687 11.562359 10.011719 11.818359 10.011719 z"/></svg>