<svg xmlns="http://www.w3.org/2000/svg" viewBox="0 0 100 100"><path d="M 50 15.033203 C 48.582898 15.033232 47.16668 15.72259 46.375 17.101562 L 11.564453 77.705078 C 9.9806522 80.462831 12.019116 84 15.197266 84 L 84.802734 84 C 87.98159 84 90.021301 80.462831 88.4375 77.705078 L 53.626953 17.101562 C 52.834735 15.72278 51.417102 15.033174 50 15.033203 z M 50 16.966797 C 50.729648 16.966826 51.459796 17.344439 51.892578 18.097656 L 86.703125 78.701172 C 87.569324 80.209419 86.535879 82 84.802734 82 L 15.197266 82 C 13.465416 82 12.432629 80.209419 13.298828 78.701172 L 48.109375 18.097656 C 48.541695 17.344629 49.270352 16.966768 50 16.966797 z M 50.003906 21.332031 A 0.50005 0.50005 0 0 0 49.566406 21.582031 L 17.017578 78.25 A 0.50005 0.50005 0 0 0 17.451172 79 L 82.550781 79 A 0.50005 0.50005 0 0 0 82.984375 78.25 L 65.177734 47.25 A 0.50050307 0.50050307 0 1 0 64.310547 47.75 L 81.685547 78 L 18.316406 78 L 50.388672 22.158203 A 0.50005 0.50005 0 0 0 50.447266 21.609375 L 50.447266 21.607422 A 0.50005 0.50005 0 0 0 50.003906 21.332031 z M 57.542969 34.494141 A 0.50005 0.50005 0 0 0 57.130859 35.25 L 57.705078 36.25 A 0.5005035 0.5005035 0 1 0 58.572266 35.75 L 57.998047 34.75 A 0.50005 0.50005 0 0 0 57.542969 34.494141 z M 59.552734 37.994141 A 0.50005 0.50005 0 0 0 59.140625 38.75 L 62.013672 43.75 A 0.50050307 0.50050307 0 1 0 62.880859 43.25 L 60.007812 38.25 A 0.50005 0.50005 0 0 0 59.552734 37.994141 z M 53.507812 40.994141 A 0.50005 0.50005 0 0 0 53.244141 41.929688 C 55.294535 43.151001 57 45.766042 57 48.5 C 57 49.819342 56.682885 51.053742 56.128906 52.126953 C 54.43507 50.804315 52.311539 50 50 50 C 47.688461 50 45.56493 50.804315 43.871094 52.126953 C 43.317115 51.053742 43 49.819342 43 48.5 C 43 45.766042 44.705508 43.150996 46.755859 41.929688 A 0.50005 0.50005 0 0 0 46.5 41 A 0.50005 0.50005 0 0 0 46.298828 41.041016 C 46.279948 41.049316 46.264924 41.065839 46.246094 41.074219 L 46.244141 41.070312 C 46.233221 41.076813 46.223791 41.08718 46.212891 41.09375 C 42.713398 42.668443 40 46.415009 40 50.5 C 40 52.071855 40.42664 53.525514 41.074219 54.847656 C 39.605812 54.94769 38.134315 55.30392 36.773438 56.089844 C 33.239956 58.129478 31.356794 62.345435 31.736328 66.158203 C 31.735955 66.176193 31.728716 66.194921 31.728516 66.212891 L 31.734375 66.212891 C 31.736575 66.233451 31.730122 66.254861 31.732422 66.275391 A 0.50005 0.50005 0 0 0 32.728516 66.226562 C 32.760976 63.839545 34.173872 61.053983 36.541016 59.6875 C 37.68046 59.029624 38.904313 58.687108 40.107422 58.628906 C 40.044748 59.078015 40 59.533221 40 60 C 40 64.180186 42.586818 67.764495 46.242188 69.253906 C 45.59028 70.26666 44.680261 71.154739 43.541016 71.8125 C 41.173879 73.178979 38.055416 73.008463 35.972656 71.84375 A 0.50005 0.50005 0 0 0 35.431641 72.683594 C 35.448151 72.695754 35.469728 72.700831 35.486328 72.712891 L 35.484375 72.716797 C 35.496325 72.723497 35.511437 72.725792 35.523438 72.732422 C 38.636514 74.974092 43.236948 75.452132 46.773438 73.410156 C 48.13424 72.624276 49.179093 71.528243 50 70.306641 C 50.820868 71.528394 51.86548 72.625021 53.226562 73.410156 C 56.763942 75.452041 61.363543 74.97406 64.476562 72.732422 C 64.488552 72.725822 64.503685 72.723527 64.515625 72.716797 L 64.513672 72.712891 C 64.530272 72.700831 64.551849 72.695764 64.568359 72.683594 A 0.50005 0.50005 0 0 0 64.027344 71.84375 C 61.943428 73.008591 58.82617 73.179008 56.458984 71.8125 C 55.319739 71.154739 54.40972 70.26666 53.757812 69.253906 C 57.413182 67.764495 60 64.180186 60 60 C 60 59.533221 59.955252 59.078015 59.892578 58.628906 C 61.095687 58.687108 62.31954 59.029624 63.458984 59.6875 C 65.826128 61.053983 67.239027 63.839544 67.271484 66.226562 A 0.50005 0.50005 0 0 0 68.267578 66.275391 C 68.269878 66.254851 68.263525 66.233451 68.265625 66.212891 L 68.271484 66.212891 C 68.27124 66.194921 68.264072 66.176203 68.263672 66.158203 C 68.643184 62.344557 66.75998 58.129441 63.226562 56.089844 C 61.865685 55.30392 60.394188 54.94769 58.925781 54.847656 C 59.57344 53.525828 60 52.071855 60 50.5 C 60 46.415009 57.286645 42.668453 53.787109 41.09375 C 53.776209 41.08715 53.766779 41.076822 53.755859 41.070312 L 53.753906 41.074219 C 53.735076 41.065819 53.720042 41.049266 53.701172 41.041016 A 0.50005 0.50005 0 0 0 53.507812 40.994141 z M 42.724609 45.306641 C 42.305164 46.310859 42 47.372241 42 48.5 C 42 53.171357 45.569733 57 50 57 C 54.430267 57 58 53.171357 58 48.5 C 58 47.372241 57.694836 46.310859 57.275391 45.306641 C 58.335319 46.825942 59 48.635808 59 50.5 C 59 52.145178 58.552322 53.680014 57.78125 55.007812 A 0.50005 0.50005 0 0 0 58.214844 55.757812 C 59.750449 55.754013 61.302297 56.132548 62.726562 56.955078 C 64.340891 57.886919 65.577555 59.367972 66.363281 61.044922 C 65.703302 60.179547 64.935567 59.386019 63.958984 58.822266 C 59.913575 56.486586 54.812792 57.663356 52.597656 61.5 C 50.382523 65.336641 51.913573 70.342054 55.958984 72.677734 C 56.936037 73.241759 58.007977 73.507792 59.087891 73.646484 C 57.242206 73.80478 55.341443 73.477081 53.726562 72.544922 A 0.50005 0.50005 0 0 0 53.726562 72.542969 C 52.302445 71.721471 51.198071 70.567998 50.433594 69.236328 A 0.50005 0.50005 0 0 0 49.566406 69.236328 C 48.80198 70.567909 47.697879 71.72229 46.273438 72.544922 C 44.659115 73.477035 42.75793 73.804781 40.912109 73.646484 C 41.992136 73.507785 43.063945 73.241769 44.041016 72.677734 C 48.086427 70.342054 49.617477 65.336641 47.402344 61.5 C 45.187208 57.663356 40.086425 56.486586 36.041016 58.822266 C 35.064433 59.386019 34.296698 60.179547 33.636719 61.044922 C 34.422452 59.367839 35.65914 57.8869 37.273438 56.955078 C 38.697702 56.132548 40.249551 55.754019 41.785156 55.757812 A 0.50005 0.50005 0 0 0 42.21875 55.007812 C 41.447529 53.678854 41 52.145178 41 50.5 C 41 48.635808 41.664681 46.825942 42.724609 45.306641 z M 50 51 C 52.12364 51 54.06274 51.750929 55.603516 52.986328 C 55.217607 53.538666 54.762578 54.030129 54.251953 54.449219 C 53.071942 53.544098 51.597272 53 50 53 C 48.402728 53 46.928058 53.544098 45.748047 54.449219 C 45.237422 54.030129 44.782393 53.538666 44.396484 52.986328 C 45.93726 51.750929 47.87636 51 50 51 z M 50 54 C 51.25977 54 52.4134 54.405679 53.378906 55.070312 C 52.375982 55.662639 51.223655 56 50 56 C 48.776345 56 47.624018 55.662639 46.621094 55.070312 C 47.5866 54.405679 48.74023 54 50 54 z M 41.113281 58.654297 C 41.788954 58.71181 42.446328 58.857393 43.068359 59.091797 C 43.029005 59.390105 43 59.691189 43 60 C 43 62.904703 44.791529 65.388449 47.322266 66.445312 C 47.214777 67.10436 47.013764 67.750382 46.724609 68.367188 C 43.381729 67.053807 41 63.807491 41 60 C 41 59.541581 41.046173 59.094962 41.113281 58.654297 z M 58.886719 58.654297 C 58.953826 59.094962 59 59.541581 59 60 C 59 63.807491 56.618271 67.053807 53.275391 68.367188 C 52.986236 67.750382 52.785223 67.10436 52.677734 66.445312 C 55.208471 65.388449 57 62.904703 57 60 C 57 59.691189 56.970995 59.390105 56.931641 59.091797 C 57.553672 58.857393 58.211046 58.71181 58.886719 58.654297 z M 50 59 A 1 1 0 0 0 50 61 A 1 1 0 0 0 50 59 z M 44.021484 59.529297 C 45.043845 60.10207 45.919562 60.933782 46.535156 62 C 47.148629 63.062542 47.43097 64.232503 47.417969 65.400391 C 45.402759 64.433043 44 62.385431 44 60 C 44 59.840983 44.00945 59.684684 44.021484 59.529297 z M 55.978516 59.529297 C 55.99055 59.684684 56 59.840983 56 60 C 56 62.385431 54.597241 64.433043 52.582031 65.400391 C 52.56903 64.232503 52.851371 63.062542 53.464844 62 C 54.080438 60.933782 54.956155 60.10207 55.978516 59.529297 z"/></svg>