<?xml version="1.0"?><svg xmlns="http://www.w3.org/2000/svg" viewBox="0 0 128 128">    <path d="M 99 8.0742188 C 98.225 8.0742188 97.450391 8.3503906 96.900391 8.9003906 C 96.700391 9.1003906 96.6 9.2003906 96.5 9.4003906 C 96.4 9.5003906 96.299219 9.7003906 96.199219 9.9003906 C 96.099219 10.100391 96 10.3 96 10.5 C 95.9 10.7 95.900391 10.899609 95.900391 11.099609 C 95.900391 11.299609 96 11.499219 96 11.699219 C 96.1 11.899219 96.099219 12.100781 96.199219 12.300781 C 96.299219 12.500781 96.4 12.600781 96.5 12.800781 L 96.900391 13.199219 C 97.400391 13.799219 98.2 14.099609 99 14.099609 C 99.8 14.099609 100.59961 13.799219 101.09961 13.199219 C 101.29961 13.099219 101.4 13.000781 101.5 12.800781 C 101.6 12.600781 101.70078 12.500781 101.80078 12.300781 C 101.90078 12.100781 102 11.899219 102 11.699219 C 102.1 11.499219 102.09961 11.299609 102.09961 11.099609 C 102.09961 10.899609 102 10.7 102 10.5 C 101.9 10.3 101.90078 10.100391 101.80078 9.9003906 C 101.70078 9.7003906 101.6 9.6003906 101.5 9.4003906 C 101.4 9.2003906 101.19961 9.0003906 101.09961 8.9003906 C 100.54961 8.3503906 99.775 8.0742188 99 8.0742188 z M 51 8.0878906 C 50.225 8.0753906 49.450391 8.3503906 48.900391 8.9003906 C 48.700391 9.1003906 48.6 9.2003906 48.5 9.4003906 C 48.4 9.5003906 48.299219 9.7003906 48.199219 9.9003906 C 48.099219 10.100391 48 10.3 48 10.5 C 47.9 10.7 47.900391 10.899609 47.900391 11.099609 C 47.900391 11.299609 48 11.499219 48 11.699219 C 48.1 11.899219 48.099219 12.100781 48.199219 12.300781 C 48.299219 12.500781 48.4 12.600781 48.5 12.800781 L 48.900391 13.199219 C 49.400391 13.799219 50.2 14.099609 51 14.099609 C 51.8 14.099609 52.599609 13.800781 53.099609 13.300781 C 53.299609 13.200781 53.4 13.100391 53.5 12.900391 C 53.6 12.700391 53.700781 12.600391 53.800781 12.400391 C 53.900781 12.200391 54 12.000781 54 11.800781 C 54.1 11.600781 54.099609 11.399219 54.099609 11.199219 C 54.099609 10.999219 54 10.799609 54 10.599609 C 53.9 10.399609 53.900781 10.2 53.800781 10 C 53.700781 9.8 53.6 9.7 53.5 9.5 C 53.4 9.3 53.199609 9.1 53.099609 9 C 52.549609 8.4 51.775 8.1003906 51 8.0878906 z M 76.246094 14.941406 C 76.000781 14.930469 75.75 14.95 75.5 15 C 75.3 15.1 75.100391 15.099219 74.900391 15.199219 C 74.700391 15.299219 74.600391 15.4 74.400391 15.5 L 74 15.900391 C 73.8 16.100391 73.699609 16.200391 73.599609 16.400391 C 73.499609 16.500391 73.400781 16.700391 73.300781 16.900391 C 73.200781 17.100391 73.099609 17.3 73.099609 17.5 C 72.999609 17.7 73 17.899609 73 18.099609 C 73 18.899609 73.300391 19.599219 73.900391 20.199219 C 74.400391 20.799219 75.2 21.099609 76 21.099609 C 76.2 21.099609 76.399609 21 76.599609 21 C 76.799609 21 77.000391 20.900781 77.400391 20.800781 C 77.600391 20.700781 77.700391 20.6 77.900391 20.5 L 78.300781 20.099609 C 78.900781 19.599609 79.199219 18.8 79.199219 18 C 79.199219 17.8 79.099609 17.600391 79.099609 17.400391 C 78.999609 17.200391 79.000391 17.000781 78.900391 16.800781 C 78.800391 16.600781 78.699609 16.500781 78.599609 16.300781 C 78.499609 16.100781 78.299219 15.900781 78.199219 15.800781 C 77.674219 15.275781 76.982031 14.974219 76.246094 14.941406 z M 51 18.099609 C 49.3 18.099609 48 19.399609 48 21.099609 L 48 41.099609 C 48 42.799609 49.3 44.099609 51 44.099609 C 52.7 44.099609 54 42.699609 54 41.099609 L 54 21.099609 C 54 19.399609 52.7 18.099609 51 18.099609 z M 99 18.099609 C 97.3 18.099609 96 19.399609 96 21.099609 L 96 41.099609 C 96 42.799609 97.3 44.099609 99 44.099609 C 100.7 44.099609 102 42.699609 102 41.099609 L 102 21.099609 C 102 19.399609 100.7 18.099609 99 18.099609 z M 76 25.099609 C 74.3 25.099609 73 26.399609 73 28.099609 L 73 48.099609 C 73 49.799609 74.3 51.099609 76 51.099609 C 77.7 51.099609 79 49.699609 79 48.099609 L 79 28.099609 C 79 26.399609 77.7 25.099609 76 25.099609 z M 37.796875 33.21875 C 37.599219 33.223828 37.399219 33.250781 37.199219 33.300781 C 20.999219 37.000781 12.199219 41.6 8.6992188 48.5 C 8.6498064 48.586472 8.6228326 48.678384 8.5839844 48.767578 C 8.1801789 49.547089 7.9430913 50.381276 7.875 51.230469 C 7.8287861 51.445452 7.8007812 51.668189 7.8007812 51.900391 L 7.8007812 65.900391 L 7.8007812 93.400391 C 7.8007813 93.639227 7.8320364 93.867341 7.8808594 94.087891 C 8.4243357 98.182564 11.968593 101.40039 16.199219 101.40039 L 51.041016 101.40039 L 51 114.5 C 51 119 54.5 122.70039 59 122.90039 C 61 123.00039 62.900391 123 64.900391 123 C 97.400391 123 122 112.40039 122 98.400391 C 122 96.700391 120.7 95.400391 119 95.400391 C 117.3 95.400391 116 96.700391 116 98.400391 C 116 107.20039 95.000391 117 64.900391 117 C 63.100391 117 61.200781 117.00039 59.300781 116.90039 C 58.000781 116.90039 57 115.8 57 114.5 L 57 87.300781 L 57 82.599609 C 57 80.95101 57.15186 79.315643 57.416016 77.701172 C 58.833886 78.857323 60.598909 79.534054 62.5 79.599609 L 67.199219 79.599609 C 67.799219 79.599609 68.400781 79.900781 68.800781 80.300781 C 69.300781 80.800781 69.5 81.4 69.5 82 L 69.5 101.09961 C 69.5 103.29961 70.300391 105.4 71.900391 107 C 73.500391 108.6 75.600781 109.5 77.800781 109.5 C 82.400781 109.5 86.099609 105.79922 86.099609 101.19922 L 86.199219 80 C 86.199219 78.8 87.099219 77.799609 88.199219 77.599609 L 88.400391 77.599609 C 89.400391 77.399609 90.100391 77.799609 90.400391 78.099609 C 90.800391 78.399609 91.300781 79 91.300781 80 L 91.300781 90.400391 C 91.200781 95.000391 94.999609 98.800781 99.599609 98.800781 C 104.09961 98.800781 107.90039 95.1 107.90039 90.5 L 108 73.099609 C 108 72.199609 108.49922 71.4 109.19922 71 C 111.88871 69.611877 114.13847 68.103814 116 66.498047 L 116 83.400391 C 116 85.100391 117.3 86.400391 119 86.400391 C 120.7 86.400391 122 85.000391 122 83.400391 L 122 56.517578 C 122.05916 56.043479 122.09961 55.570613 122.09961 55.099609 C 122.09961 54.771779 122.03945 54.465454 121.94922 54.173828 C 121.70125 51.106117 120.13674 46.867981 114.69922 42.699219 C 113.39922 41.699219 111.5 42.000781 110.5 43.300781 C 109.5 44.600781 109.79961 46.5 111.09961 47.5 C 113.29961 49.2 116 51.899609 116 55.099609 C 116 55.306048 116.01991 55.506189 116.05664 55.699219 C 116.05052 55.731288 116.05202 55.766352 116.04688 55.798828 C 115.97029 56.36567 115.81217 56.933158 115.59961 57.5 C 114.39961 60.4 111.30039 63.199219 106.40039 65.699219 C 103.60039 67.099219 101.90039 69.999609 101.90039 73.099609 L 101.80078 90.5 C 101.80078 91.8 100.8 92.800781 99.5 92.800781 C 98.2 92.800781 97.199219 91.8 97.199219 90.5 L 97.199219 80.099609 C 97.199219 77.599609 96.099219 75.199609 94.199219 73.599609 C 92.299219 71.999609 89.800781 71.300781 87.300781 71.800781 L 87.099609 71.800781 C 83.099609 72.500781 80.199219 76 80.199219 80 L 80.199219 101.19922 C 80.199219 102.49922 79.200391 103.5 77.900391 103.5 C 77.200391 103.5 76.599219 103.20078 76.199219 102.80078 C 75.699219 102.30078 75.5 101.69961 75.5 101.09961 L 75.5 82 C 75.5 81.966361 75.491245 81.935663 75.490234 81.902344 C 75.491199 81.867364 75.5 81.836182 75.5 81.800781 C 75.5 79.500781 74.6 77.400781 73 75.800781 C 71.4 74.200781 69.399219 73.400391 67.199219 73.400391 L 67.099609 73.400391 L 62.599609 73.400391 C 61.399609 73.400391 60.799609 72.600781 60.599609 72.300781 C 60.399609 72.000781 60 71.099609 60.5 70.099609 L 66.664062 58.03125 L 67.255859 57.042969 C 67.712747 56.524358 68 55.855509 68 55.099609 C 68 54.811924 67.950955 54.541663 67.880859 54.28125 C 67.702361 53.436233 67.154459 52.654513 66.300781 52.199219 C 65.516215 51.750895 64.609726 51.756582 63.820312 52.099609 L 52.599609 52.099609 C 52.399609 51.999609 52.2 51.900391 52 51.900391 C 51.6 51.800391 51.200781 51.800391 50.800781 51.900391 C 50.600781 52.000391 50.399219 51.999609 50.199219 52.099609 L 14.300781 52.099609 C 14.300781 52.099609 14.1 52.100391 14 51.900391 C 13.9 51.700391 14 51.6 14 51.5 C 14.136142 51.288224 14.23286 51.063451 14.310547 50.833984 C 17.01413 46.010398 24.943515 42.222608 38.5 39.199219 C 40.1 38.799219 41.200781 37.199609 40.800781 35.599609 C 40.450781 34.199609 39.180469 33.183203 37.796875 33.21875 z"/></svg>