<svg xmlns="http://www.w3.org/2000/svg" viewBox="0 0 48 48"><radialGradient id="Fvyc~_ED0Js9jQer7mAAHa" cx="16.806" cy="16.701" r="23.479" gradientUnits="userSpaceOnUse"><stop offset="0" stop-color="#737373"/><stop offset=".252" stop-color="#555758"/><stop offset=".755" stop-color="#1f2526"/><stop offset="1" stop-color="#0a1112"/></radialGradient><path fill="url(#Fvyc~_ED0Js9jQer7mAAHa)" d="M32.589,8.533c-5.113,0-8.589,3.436-8.589,3.436s-3.457-3.436-8.589-3.436	c-5.692,0-10.307,4.615-10.307,10.307C5.104,29.147,24,39.454,24,39.454S42.896,29.147,42.896,18.84	C42.896,13.147,38.282,8.533,32.589,8.533z"/><linearGradient id="Fvyc~_ED0Js9jQer7mAAHb" x1="24.224" x2="23.474" y1="10.495" y2="38.413" gradientUnits="userSpaceOnUse"><stop offset=".147" stop-color="#2f3334" stop-opacity="0"/><stop offset=".845" stop-color="#0a1112"/></linearGradient><path fill="url(#Fvyc~_ED0Js9jQer7mAAHb)" d="M32.589,8.533c-5.113,0-8.589,3.436-8.589,3.436s-3.457-3.436-8.589-3.436	c-5.692,0-10.307,4.615-10.307,10.307C5.104,29.147,24,39.454,24,39.454S42.896,29.147,42.896,18.84	C42.896,13.147,38.282,8.533,32.589,8.533z"/><radialGradient id="Fvyc~_ED0Js9jQer7mAAHc" cx="8.005" cy="-90.92" r="7.589" gradientTransform="matrix(.8237 -.567 .3817 .5545 43.262 70.369)" gradientUnits="userSpaceOnUse"><stop offset=".133" stop-color="#9b9b9b"/><stop offset=".834" stop-color="#737373" stop-opacity="0"/></radialGradient><path fill="url(#Fvyc~_ED0Js9jQer7mAAHc)" d="M21.164,11.949c1.267,2.195-0.395,5.528-3.714,7.444s-7.036,1.69-8.303-0.506	s0.395-5.528,3.714-7.444S19.897,9.753,21.164,11.949z" opacity=".69"/></svg>