<svg xmlns="http://www.w3.org/2000/svg" viewBox="0 0 24 24"><path d="M 10.03125 1.9375 L 9.71875 2.03125 L 0.71875 4.625 L 0 4.84375 L 0 6.375 L 0.625 6.625 L 9.03125 9.9375 L 9.21875 10 L 14.78125 10 L 14.9375 9.9375 L 20.25 7.9375 L 20.28125 7.9375 C 21.164063 7.585938 22 8.160156 22 9.09375 L 22 9.1875 C 22 9.765625 21.710938 10.203125 21.15625 10.46875 C 21.132813 10.480469 21.117188 10.488281 21.09375 10.5 L 12 13.9375 L 4.46875 11.0625 C 2.351563 10.214844 0 11.828125 0 14.09375 L 0 14.1875 C 0 15.585938 0.890625 16.777344 2.09375 17.3125 L 2.125 17.3125 L 2.15625 17.34375 L 11.65625 20.9375 L 12 21.0625 L 12.34375 20.9375 L 18.65625 18.53125 L 18.625 18.46875 L 24 16.5 L 24 14.3125 L 17.9375 16.65625 L 17.9375 16.6875 L 17.90625 16.6875 L 12 18.9375 L 2.90625 15.5 L 2.84375 15.46875 C 2.289063 15.203125 2 14.765625 2 14.1875 L 2 14.09375 C 2 13.160156 2.835938 12.585938 3.71875 12.9375 L 3.75 12.9375 L 11.65625 15.9375 L 12 16.0625 L 12.34375 15.9375 L 21.84375 12.34375 L 21.875 12.3125 L 21.90625 12.3125 C 23.109375 11.777344 24 10.585938 24 9.1875 L 24 9.09375 C 24 7.519531 22.84375 6.335938 21.4375 6 L 21.4375 5.96875 L 21.125 5.875 L 10.34375 2.0625 Z M 10 4.0625 L 17.6875 6.75 L 14.40625 8 L 14.375 8 L 12 6.40625 L 9.625 8 L 3.96875 5.78125 Z"/></svg>