<svg xmlns="http://www.w3.org/2000/svg" viewBox="0 0 26 26"><path d="M 3.90625 1.96875 C 3.863281 1.976563 3.820313 1.988281 3.78125 2 C 3.40625 2.066406 3.105469 2.339844 3 2.703125 C 2.894531 3.070313 3.003906 3.460938 3.28125 3.71875 L 17.9375 18.375 C 17.925781 18.382813 17.917969 18.398438 17.90625 18.40625 L 18.8125 19.3125 C 18.824219 19.304688 18.832031 19.289063 18.84375 19.28125 L 23.28125 23.71875 C 23.679688 24.117188 24.320313 24.117188 24.71875 23.71875 C 25.117188 23.320313 25.117188 22.679688 24.71875 22.28125 L 20.34375 17.90625 C 21.238281 16.914063 21.945313 15.75 22.40625 14.5 C 22.507813 14.699219 22.585938 14.804688 22.6875 14.90625 C 23.1875 15.707031 24.292969 15.90625 25.09375 15.40625 C 25.792969 14.605469 26 13.613281 25.5 12.8125 C 22.699219 8.613281 18 6.1875 13 6.1875 C 11.664063 6.1875 10.386719 6.394531 9.15625 6.71875 L 4.71875 2.28125 C 4.511719 2.058594 4.210938 1.945313 3.90625 1.96875 Z M 5.1875 8.3125 C 3.289063 9.414063 1.699219 11.011719 0.5 12.8125 C 0 13.613281 0.199219 14.585938 1 15.1875 C 1.300781 15.386719 1.601563 15.5 2 15.5 C 2.5 15.5 3.105469 15.210938 3.40625 14.8125 C 3.507813 14.613281 3.585938 14.511719 3.6875 14.3125 C 4.988281 18.210938 8.699219 21 13 21 C 14.398438 21 15.800781 20.6875 17 20.1875 L 16 19.09375 C 15.101563 19.394531 14.101563 19.59375 13 19.59375 C 9 19.59375 5.59375 16.800781 4.59375 13 C 5.492188 12.101563 6.488281 11.289063 7.6875 10.6875 Z M 17 10.40625 C 18.699219 11.007813 20.207031 12.011719 21.40625 13.3125 C 21.074219 14.710938 20.363281 15.957031 19.4375 17 L 17.46875 15.03125 C 17.742188 14.445313 17.90625 13.792969 17.90625 13.09375 C 17.90625 12.09375 17.601563 11.105469 17 10.40625 Z M 8.40625 11.59375 C 8.304688 11.992188 8.1875 12.5 8.1875 13 C 8.1875 15.699219 10.300781 17.8125 13 17.8125 C 13.5 17.8125 14.007813 17.695313 14.40625 17.59375 Z"/></svg>