<svg xmlns="http://www.w3.org/2000/svg" viewBox="0 0 100 100"><path fill="#c7ede6" d="M88.704,55.674c0.3-0.616,0.566-1.264,0.796-1.943c2.633-7.77-1.349-17.078-9.733-19.325C78.86,23.023,70.86,15.214,61.826,13.881c-10.341-1.525-19.814,5.044-22.966,15.485c-3.799-1.346-7.501-1.182-10.99,0.857c-1.583,0.732-3.031,1.812-4.33,3.233c-1.907,2.086-3.147,4.719-3.652,7.495c-0.748,0.118-1.483,0.236-2.176,0.484c-4.04,1.449-6.589,4.431-7.288,8.923c-0.435,2.797,0.443,5.587,0.933,6.714c1.935,4.455,6.422,6.98,10.981,6.312c0.227-0.033,0.557,0.069,0.752,0.233c0.241,7.12,3.698,13.417,8.884,17.014c8.321,5.772,19.027,3.994,25.781-3.921c2.894,2.96,6.338,4.398,10.384,3.876c4.023-0.519,7.147-2.739,9.426-6.349c1.053,0.283,2.051,0.691,3.083,0.804c4.042,0.442,7.324-1.165,9.732-4.8c0.922-1.391,1.793-3.194,1.793-6.354C92.174,60.631,90.881,57.664,88.704,55.674z"/><path fill="#fff" d="M18.369 47.711H8.338c-.276 0-.5-.224-.5-.5s.224-.5.5-.5h10.03c.276 0 .5.224.5.5S18.645 47.711 18.369 47.711zM21.249 47.711h-1.445c-.276 0-.5-.224-.5-.5s.224-.5.5-.5h1.445c.276 0 .5.224.5.5S21.526 47.711 21.249 47.711zM25.304 47.711h-2.546c-.276 0-.5-.224-.5-.5s.224-.5.5-.5h2.546c.276 0 .5.224.5.5S25.581 47.711 25.304 47.711zM25.304 49.575h-9.616c-.276 0-.5-.224-.5-.5s.224-.5.5-.5h9.616c.276 0 .5.224.5.5S25.581 49.575 25.304 49.575zM13.956 49.575h-.58c-.276 0-.5-.224-.5-.5s.224-.5.5-.5h.58c.276 0 .5.224.5.5S14.233 49.575 13.956 49.575zM11.58 49.575h-1.456c-.276 0-.5-.224-.5-.5s.224-.5.5-.5h1.456c.276 0 .5.224.5.5S11.856 49.575 11.58 49.575zM20.715 45.845h-5.027c-.276 0-.5-.224-.5-.5s.224-.5.5-.5h5.027c.276 0 .5.224.5.5S20.992 45.845 20.715 45.845zM20.715 43.98h-1.257c-.276 0-.5-.224-.5-.5s.224-.5.5-.5h1.257c.276 0 .5.224.5.5S20.992 43.98 20.715 43.98zM17.447 51.44h-1.759c-.276 0-.5-.224-.5-.5s.224-.5.5-.5h1.759c.276 0 .5.224.5.5S17.723 51.44 17.447 51.44zM74.395 25.389H64.364c-.276 0-.5-.224-.5-.5s.224-.5.5-.5h10.031c.276 0 .5.224.5.5S74.671 25.389 74.395 25.389zM77.276 25.389H75.83c-.276 0-.5-.224-.5-.5s.224-.5.5-.5h1.446c.276 0 .5.224.5.5S77.552 25.389 77.276 25.389zM81.331 25.389h-2.546c-.276 0-.5-.224-.5-.5s.224-.5.5-.5h2.546c.276 0 .5.224.5.5S81.607 25.389 81.331 25.389zM81.331 27.254h-9.616c-.276 0-.5-.224-.5-.5s.224-.5.5-.5h9.616c.276 0 .5.224.5.5S81.607 27.254 81.331 27.254zM69.982 27.254h-.58c-.276 0-.5-.224-.5-.5s.224-.5.5-.5h.58c.276 0 .5.224.5.5S70.258 27.254 69.982 27.254zM67.606 27.254h-1.457c-.276 0-.5-.224-.5-.5s.224-.5.5-.5h1.457c.276 0 .5.224.5.5S67.882 27.254 67.606 27.254zM76.742 23.525h-5.027c-.276 0-.5-.224-.5-.5s.224-.5.5-.5h5.027c.276 0 .5.224.5.5S77.018 23.525 76.742 23.525zM76.742 21.66h-1.258c-.276 0-.5-.224-.5-.5s.224-.5.5-.5h1.258c.276 0 .5.224.5.5S77.018 21.66 76.742 21.66zM73.472 29.119h-1.758c-.276 0-.5-.224-.5-.5s.224-.5.5-.5h1.758c.276 0 .5.224.5.5S73.748 29.119 73.472 29.119z"/><path fill="#fdfcef" d="M43.972,65.988c1.71,0,3.194,0,3.215,0c1.916,0,3.469-1.52,3.469-3.396c0-1.636-1.182-3.001-2.756-3.323c0.018-0.143,0.031-0.288,0.031-0.436c0-1.942-1.609-3.517-3.593-3.517c-1.172,0-2.209,0.551-2.865,1.401c-0.168-2.162-2.141-3.83-4.45-3.554c-1.688,0.202-3.084,1.479-3.395,3.116c-0.1,0.525-0.089,1.034,0.01,1.512c-0.453-0.477-1.097-0.777-1.814-0.777c-1.313,0-2.385,1.001-2.47,2.265c-0.596-0.129-1.245-0.121-1.928,0.13c-1.306,0.48-2.236,1.683-2.29,3.047c-0.077,1.937,1.504,3.532,3.467,3.532c0.149,0,0.673,0,0.794,0h7.204 M38.09,65.988h0.327"/><path fill="#472b29" d="M47.187,66.488h-3.215c-0.276,0-0.5-0.224-0.5-0.5s0.224-0.5,0.5-0.5h3.215c1.638,0,2.97-1.299,2.97-2.896c0-1.363-0.991-2.555-2.356-2.833c-0.257-0.053-0.43-0.295-0.396-0.555c0.016-0.122,0.026-0.245,0.026-0.372c0-1.663-1.388-3.017-3.093-3.017c-0.978,0-1.878,0.439-2.47,1.206c-0.126,0.164-0.342,0.23-0.538,0.174c-0.198-0.06-0.34-0.234-0.355-0.44c-0.071-0.913-0.507-1.742-1.228-2.333c-0.742-0.609-1.686-0.879-2.664-0.764c-1.476,0.177-2.694,1.293-2.964,2.713c-0.084,0.442-0.081,0.886,0.008,1.317c0.046,0.219-0.06,0.441-0.258,0.545c-0.197,0.103-0.439,0.063-0.594-0.1c-0.381-0.4-0.896-0.621-1.452-0.621c-1.037,0-1.903,0.79-1.971,1.799c-0.01,0.146-0.082,0.279-0.198,0.366s-0.263,0.12-0.406,0.089c-0.571-0.121-1.111-0.088-1.649,0.111c-1.129,0.414-1.918,1.458-1.963,2.598c-0.031,0.782,0.253,1.526,0.8,2.096c0.567,0.591,1.337,0.916,2.167,0.916h7.997c0.276,0,0.5,0.224,0.5,0.5s-0.224,0.5-0.5,0.5h-7.997c-1.089,0-2.142-0.445-2.888-1.223c-0.738-0.768-1.121-1.772-1.079-2.829c0.062-1.539,1.114-2.944,2.617-3.497c0.55-0.201,1.117-0.277,1.688-0.228c0.332-1.268,1.507-2.198,2.882-2.198c0.431,0,0.854,0.094,1.241,0.269c0.011-0.198,0.034-0.397,0.072-0.597c0.35-1.844,1.924-3.291,3.827-3.519c1.253-0.155,2.462,0.2,3.417,0.983c0.669,0.548,1.147,1.255,1.399,2.048c0.718-0.568,1.61-0.882,2.558-0.882c2.257,0,4.093,1.802,4.093,4.017c0,0.02,0,0.04-0.001,0.06c1.604,0.519,2.728,2.011,2.728,3.7C51.157,64.741,49.375,66.488,47.187,66.488z M38.416,66.488H38.09c-0.276,0-0.5-0.224-0.5-0.5s0.224-0.5,0.5-0.5h0.326c0.276,0,0.5,0.224,0.5,0.5S38.693,66.488,38.416,66.488z"/><path fill="#472b29" d="M45.636 61.195c-.018 0-.036-.002-.055-.006-.135-.03-.22-.164-.189-.299.034-.152.087-.301.156-.44.555-1.121 2.084-1.538 3.409-.924.126.058.181.206.122.331-.058.126-.209.181-.331.122-1.08-.499-2.316-.188-2.752.692-.052.104-.091.215-.116.328C45.854 61.116 45.75 61.195 45.636 61.195zM40.952 66.488h-1.005c-.276 0-.5-.224-.5-.5s.224-.5.5-.5h1.005c.276 0 .5.224.5.5S41.228 66.488 40.952 66.488z"/><path fill="#cbc9bc" d="M69.743,42.546c0,2.344,0.031,4.688-0.007,7.031c-0.075,4.679-1.677,8.803-4.595,12.441c-1.514,1.888-3.438,3.306-5.344,4.749c-2.372,1.797-4.735,3.604-7.102,5.407c-0.539,0.41-0.835,0.414-1.359,0.013c-3.119-2.382-6.265-4.731-9.351-7.156c-3.882-3.05-6.288-7.037-7.327-11.863c-0.403-1.874-0.392-3.768-0.39-5.666c0.005-4.244,0.005-8.488,0.007-12.731c0-0.841,0.154-0.988,0.99-1.008c4.98-0.12,9.63-1.338,13.758-4.219c0.84-0.586,1.596-1.294,2.373-1.966c0.431-0.372,0.813-0.401,1.205-0.018c2.67,2.604,5.876,4.253,9.436,5.252c1.83,0.514,3.697,0.83,5.604,0.873c0.426,0.01,0.851,0.055,1.278,0.074c0.608,0.028,0.829,0.252,0.83,0.9c0.004,2.629,0.002,5.257,0.002,7.886C69.748,42.546,69.746,42.546,69.743,42.546z"/><path fill="#472b29" d="M52.002,73.185c-0.354,0-0.705-0.147-1.091-0.441c-0.95-0.726-1.902-1.448-2.855-2.171c-2.14-1.623-4.353-3.301-6.503-4.99c-3.944-3.1-6.494-7.227-7.579-12.267c-0.411-1.912-0.408-3.842-0.405-5.709l0.006-12.836c0.002-1.216,0.455-1.679,1.673-1.709c5.233-0.125,9.608-1.463,13.375-4.092c0.627-0.438,1.203-0.944,1.812-1.481l0.503-0.439c0.721-0.624,1.507-0.62,2.151,0.01c2.438,2.376,5.426,4.038,9.138,5.079c1.884,0.53,3.66,0.808,5.431,0.848c0.258,0.006,0.517,0.024,0.774,0.043c0.173,0.012,0.346,0.024,0.52,0.032c0.992,0.046,1.496,0.584,1.498,1.598c0.003,1.841,0.002,3.682,0.001,5.521v2.366c0,0.032-0.002,0.064-0.007,0.097l0.006,2.079c0.006,1.622,0.013,3.244-0.013,4.865c-0.076,4.706-1.674,9.035-4.749,12.868c-1.492,1.86-3.367,3.28-5.181,4.653l-0.286,0.216c-1.672,1.267-3.34,2.538-5.008,3.811L53.12,72.73C52.721,73.034,52.361,73.185,52.002,73.185z M52.013,71.785h0.01H52.013z M34.987,34.48c-0.007,0.06-0.012,0.151-0.012,0.292l-0.006,12.837c-0.003,1.876-0.006,3.647,0.374,5.412c1.015,4.712,3.395,8.568,7.075,11.46c2.141,1.683,4.349,3.357,6.484,4.977c0.953,0.724,1.907,1.446,2.858,2.173c0.177,0.136,0.245,0.153,0.251,0.154c-0.007-0.002,0.065-0.021,0.26-0.168l2.093-1.595c1.669-1.272,3.338-2.545,5.011-3.812l0.286-0.217c1.826-1.383,3.551-2.688,4.935-4.413c2.876-3.585,4.37-7.627,4.44-12.015c0.025-1.611,0.02-3.225,0.013-4.837l-0.006-2.182c0-0.033,0.003-0.066,0.007-0.099l0.001-2.268c0-1.84,0.001-3.68-0.002-5.52c0-0.095-0.007-0.155-0.013-0.192c-0.028,0.004-0.076-0.005-0.149-0.009c-0.185-0.009-0.369-0.021-0.554-0.034c-0.236-0.017-0.472-0.034-0.708-0.039c-1.863-0.043-3.807-0.346-5.777-0.9c-3.942-1.106-7.127-2.881-9.735-5.425c-0.05-0.048-0.081-0.067-0.095-0.074c-0.005,0.008-0.063,0.034-0.164,0.121l-0.494,0.433c-0.611,0.538-1.244,1.096-1.937,1.578c-3.999,2.791-8.625,4.211-14.142,4.344C35.139,34.465,35.046,34.473,34.987,34.48z"/><path fill="#ee3e54" d="M66.12,44.046c0,1.865,0.025,3.73-0.005,5.594c-0.06,3.723-1.335,7.004-3.656,9.898c-1.204,1.502-2.736,2.63-4.252,3.779c-1.887,1.43-3.767,2.868-5.651,4.302c-0.428,0.326-0.664,0.329-1.081,0.011c-2.482-1.895-4.985-3.764-7.44-5.693c-3.088-2.427-5.003-5.599-5.83-9.438c-0.321-1.491-0.312-2.998-0.31-4.508c0.004-3.377,0.004-6.753,0.005-10.13c0-0.669,0.123-0.786,0.788-0.802c3.962-0.095,7.662-1.065,10.946-3.356c0.668-0.466,1.27-1.029,1.888-1.564c0.343-0.296,0.647-0.319,0.959-0.015c2.125,2.072,4.675,3.384,7.508,4.179c1.456,0.409,2.941,0.66,4.459,0.695c0.339,0.008,0.677,0.044,1.017,0.059c0.484,0.022,0.66,0.2,0.66,0.716c0.003,2.091,0.001,4.183,0.001,6.274C66.124,44.046,66.122,44.046,66.12,44.046z"/><path fill="#472b29" d="M52.005,68.242c-0.242,0-0.483-0.104-0.759-0.314c-0.766-0.584-1.532-1.166-2.3-1.748c-1.723-1.307-3.444-2.612-5.144-3.948c-3.104-2.438-5.11-5.687-5.965-9.654c-0.322-1.495-0.32-3.014-0.318-4.483l0.005-10.233c0-0.87,0.28-1.156,1.153-1.178c4.201-0.101,7.714-1.176,10.741-3.289c0.504-0.352,0.984-0.774,1.449-1.183l0.408-0.357c0.674-0.585,1.207-0.251,1.466,0.001c1.961,1.913,4.364,3.249,7.348,4.086c1.515,0.426,2.942,0.648,4.366,0.682c0.203,0.005,0.406,0.019,0.609,0.033c0.139,0.01,0.276,0.02,0.415,0.025c0.693,0.032,1.018,0.379,1.019,1.091l0.001,6.274c0,0.022-0.002,0.044-0.006,0.065l0.005,1.682c0.005,1.285,0.011,2.569-0.01,3.854c-0.06,3.701-1.317,7.107-3.738,10.126c-1.177,1.468-2.665,2.594-4.104,3.682l-0.214,0.162c-1.388,1.051-2.771,2.106-4.155,3.162l-1.494,1.139C52.498,68.134,52.251,68.242,52.005,68.242z M52.029,32.28c-0.065,0-0.145,0.039-0.262,0.141l-0.403,0.354c-0.479,0.422-0.977,0.858-1.515,1.234c-3.152,2.2-6.8,3.319-11.152,3.424c-0.297,0.007-0.371,0.037-0.39,0.049c-0.002,0.007-0.032,0.078-0.032,0.379L38.27,48.095c-0.002,1.429-0.004,2.907,0.301,4.323c0.817,3.793,2.733,6.896,5.695,9.223c1.696,1.333,3.415,2.637,5.134,3.94c0.769,0.582,1.536,1.165,2.302,1.75c0.285,0.217,0.332,0.215,0.627-0.012l1.494-1.139c1.385-1.056,2.77-2.111,4.157-3.163l0.214-0.162c1.403-1.061,2.854-2.158,3.972-3.553c2.315-2.886,3.518-6.139,3.574-9.669c0.021-1.279,0.015-2.559,0.01-3.839l-0.005-1.75c0-0.022,0.002-0.045,0.006-0.066l-0.001-6.206c-0.001-0.329-0.029-0.33-0.304-0.343c-0.144-0.007-0.288-0.018-0.433-0.027c-0.191-0.014-0.383-0.027-0.574-0.031c-1.487-0.034-2.977-0.267-4.552-0.709c-3.106-0.872-5.614-2.27-7.668-4.271C52.152,32.326,52.098,32.28,52.029,32.28z"/><path fill="#fdfcef" d="M52.012,37.937c-5.632,0-10.214,4.582-10.214,10.214c0,2.785,1.123,5.31,2.936,7.154c0.019,0.023,0.035,0.047,0.056,0.069c0.021,0.021,0.046,0.037,0.069,0.056c1.844,1.813,4.369,2.936,7.154,2.936c5.632,0,10.215-4.582,10.215-10.215C62.226,42.52,57.644,37.937,52.012,37.937z M52.012,39.929c1.909,0,3.664,0.66,5.061,1.755L45.543,53.212c-1.095-1.397-1.755-3.152-1.755-5.061C43.788,43.618,47.477,39.929,52.012,39.929z M52.012,56.375c-1.909,0-3.663-0.66-5.06-1.755L58.48,43.091c1.095,1.397,1.755,3.152,1.755,5.06C60.235,52.686,56.546,56.375,52.012,56.375z"/><path fill="#472b29" d="M52.011,58.617c-2.752,0-5.354-1.068-7.328-3.007c-0.028-0.021-0.053-0.04-0.074-0.062c-0.006-0.007-0.046-0.054-0.052-0.061c-1.941-1.979-3.01-4.582-3.01-7.335c0-5.771,4.694-10.465,10.464-10.465c5.771,0,10.465,4.694,10.465,10.465S57.782,58.617,52.011,58.617z M52.011,38.187c-5.494,0-9.964,4.47-9.964,9.965c0,2.621,1.017,5.1,2.864,6.979c0.007,0.007,0.035,0.042,0.041,0.05c0.004,0.003,0.077,0.068,0.08,0.071c1.88,1.848,4.358,2.864,6.979,2.864c5.495,0,9.965-4.47,9.965-9.965S57.506,38.187,52.011,38.187z M52.011,56.626c-1.902,0-3.705-0.625-5.214-1.809c-0.057-0.044-0.091-0.109-0.096-0.182c-0.004-0.071,0.022-0.141,0.073-0.191l11.528-11.529c0.051-0.05,0.12-0.073,0.191-0.073c0.072,0.005,0.138,0.039,0.182,0.096c1.184,1.509,1.809,3.312,1.809,5.215C60.485,52.825,56.684,56.626,52.011,56.626z M47.331,54.594c1.372,1.003,2.984,1.531,4.68,1.531c4.396,0,7.974-3.577,7.974-7.974c0-1.696-0.528-3.309-1.531-4.681L47.331,54.594z M45.543,53.462c-0.005,0-0.01,0-0.015,0c-0.072-0.005-0.138-0.039-0.182-0.096c-1.184-1.509-1.809-3.312-1.809-5.215c0-4.673,3.801-8.474,8.473-8.474c1.902,0,3.706,0.625,5.216,1.808c0.057,0.045,0.091,0.11,0.096,0.183c0.004,0.071-0.022,0.141-0.073,0.191L45.72,53.389C45.673,53.436,45.61,53.462,45.543,53.462z M52.011,40.178c-4.396,0-7.973,3.577-7.973,7.974c0,1.696,0.528,3.309,1.531,4.681L56.693,41.71C55.32,40.707,53.706,40.178,52.011,40.178z"/><path fill="#fdfcef" d="M70.127,69.122c0,0,10.571,0,10.635,0c2.441,0,4.42-1.979,4.42-4.42c0-2.13-1.506-3.907-3.512-4.326c0.023-0.186,0.039-0.375,0.039-0.568c0-2.528-2.05-4.578-4.578-4.578c-1.493,0-2.814,0.718-3.65,1.823c-0.214-2.814-2.728-4.986-5.669-4.626c-2.151,0.263-3.93,1.926-4.325,4.056c-0.127,0.683-0.114,1.347,0.013,1.969c-0.577-0.621-1.397-1.012-2.312-1.012c-1.673,0-3.039,1.303-3.147,2.949c-0.76-0.168-1.586-0.157-2.456,0.17c-1.664,0.624-2.848,2.191-2.918,3.966c-0.098,2.522,1.917,4.597,4.416,4.597c0.19,0,0.857,0,1.011,0h9.178"/><path fill="#472b29" d="M80.762,69.622H70.126c-0.276,0-0.5-0.224-0.5-0.5s0.224-0.5,0.5-0.5h10.636c2.161,0,3.92-1.759,3.92-3.92c0-1.846-1.31-3.46-3.114-3.837c-0.254-0.053-0.425-0.291-0.394-0.549c0.02-0.167,0.034-0.336,0.034-0.508c0-2.249-1.829-4.078-4.077-4.078c-1.285,0-2.471,0.592-3.252,1.625c-0.125,0.166-0.341,0.236-0.539,0.178c-0.2-0.059-0.342-0.234-0.358-0.441c-0.093-1.232-0.696-2.39-1.655-3.176c-0.968-0.794-2.196-1.144-3.454-0.992c-1.938,0.237-3.539,1.738-3.895,3.65c-0.11,0.597-0.106,1.195,0.012,1.778c0.044,0.22-0.062,0.442-0.262,0.545c-0.199,0.104-0.442,0.059-0.595-0.105c-0.51-0.549-1.2-0.852-1.945-0.852c-1.394,0-2.557,1.09-2.647,2.48c-0.01,0.146-0.082,0.28-0.199,0.367c-0.117,0.089-0.265,0.12-0.408,0.089c-0.75-0.168-1.462-0.118-2.172,0.149c-1.491,0.56-2.534,1.973-2.594,3.518c-0.043,1.079,0.345,2.1,1.091,2.875c0.746,0.776,1.749,1.203,2.825,1.203h10.189c0.276,0,0.5,0.224,0.5,0.5s-0.224,0.5-0.5,0.5H57.083c-1.351,0-2.61-0.536-3.546-1.51c-0.937-0.974-1.423-2.255-1.37-3.607c0.076-1.941,1.379-3.716,3.242-4.414c0.717-0.271,1.46-0.363,2.21-0.278c0.361-1.648,1.835-2.872,3.568-2.872c0.6,0,1.188,0.15,1.71,0.428c0.005-0.324,0.037-0.65,0.098-0.976c0.434-2.338,2.39-4.172,4.756-4.461c1.535-0.189,3.028,0.243,4.21,1.211c0.895,0.734,1.535,1.733,1.838,2.837c0.916-0.803,2.086-1.249,3.332-1.249c2.8,0,5.077,2.278,5.077,5.078c0,0.063-0.002,0.126-0.004,0.188c2.039,0.626,3.478,2.538,3.478,4.705C85.682,67.415,83.475,69.622,80.762,69.622z"/><path fill="#fdfcef" d="M67.565,59.385c-1.635-0.107-3.042,1.022-3.143,2.522c-0.013,0.186-0.004,0.37,0.023,0.548c-0.315-0.356-0.782-0.598-1.318-0.633c-0.981-0.064-1.828,0.584-1.951,1.464c-0.178-0.049-0.364-0.082-0.557-0.094c-1.431-0.094-2.662,0.894-2.75,2.207"/><path fill="#472b29" d="M57.869,65.649c-0.006,0-0.011,0-0.017-0.001c-0.138-0.009-0.242-0.128-0.232-0.266c0.096-1.448,1.441-2.558,3.016-2.439c0.115,0.007,0.232,0.021,0.351,0.044c0.259-0.875,1.171-1.497,2.157-1.414c0.375,0.024,0.727,0.138,1.029,0.327c0-0.004,0-0.007,0.001-0.01c0.109-1.636,1.639-2.893,3.408-2.755c0.138,0.009,0.242,0.128,0.232,0.266c-0.008,0.132-0.118,0.233-0.249,0.233c-0.005,0-0.011,0-0.017-0.001c-1.502-0.088-2.785,0.929-2.877,2.29c-0.011,0.162-0.004,0.328,0.021,0.495c0.017,0.109-0.041,0.216-0.142,0.263c-0.102,0.045-0.22,0.022-0.293-0.061c-0.287-0.324-0.694-0.52-1.147-0.55c-0.825-0.039-1.58,0.494-1.686,1.249c-0.011,0.071-0.05,0.135-0.11,0.174c-0.059,0.04-0.131,0.053-0.202,0.033c-0.175-0.046-0.341-0.074-0.51-0.086c-1.295-0.064-2.406,0.802-2.484,1.975C58.109,65.547,57.999,65.649,57.869,65.649z"/><path fill="#fdfcef" d="M82.551,60.894c-1.536-0.724-3.313-0.212-3.968,1.145c-0.081,0.169-0.142,0.342-0.182,0.519"/><path fill="#472b29" d="M78.402,62.807c-0.019,0-0.037-0.002-0.056-0.006c-0.135-0.031-0.219-0.165-0.188-0.3c0.046-0.199,0.113-0.392,0.201-0.572c0.712-1.477,2.643-2.042,4.299-1.263c0.125,0.06,0.179,0.208,0.12,0.333c-0.059,0.126-0.21,0.176-0.333,0.12c-1.411-0.666-3.042-0.203-3.636,1.027c-0.072,0.147-0.127,0.304-0.163,0.466C78.62,62.729,78.516,62.807,78.402,62.807z"/><path fill="#fdfcef" d="M60.102,30.948c-0.003,3.157,1.946,6.144,5.297,8.117l0,0c0,1.705-0.497,3.593-1.118,4.795c-0.22,0.426,0.125,0.923,0.602,0.871c3.092-0.34,6.022-1.867,7.579-3.393h1.766c7.802,0,14.126-4.652,14.126-10.39s-6.324-10.39-14.126-10.39S60.102,25.21,60.102,30.948"/><path fill="#472b29" d="M64.815,45.235c-0.361,0-0.701-0.177-0.909-0.479c-0.229-0.335-0.256-0.766-0.069-1.126c0.501-0.968,1.005-2.64,1.058-4.285c-3.37-2.075-5.295-5.122-5.292-8.397c0-6.004,6.562-10.889,14.626-10.889s14.626,4.885,14.626,10.889c0,6.005-6.562,10.89-14.626,10.89h-1.565c-1.568,1.458-4.509,3.038-7.726,3.391C64.896,45.233,64.855,45.235,64.815,45.235z M74.228,21.059c-7.514,0-13.626,4.437-13.626,9.889l0,0c-0.003,2.993,1.838,5.795,5.051,7.687c0.152,0.09,0.246,0.254,0.246,0.431c0,1.673-0.461,3.646-1.174,5.025c0.021,0.124,0.043,0.154,0.103,0.144c3.085-0.338,5.882-1.878,7.285-3.254c0.093-0.091,0.219-0.143,0.35-0.143h1.766c7.514,0,13.626-4.437,13.626-9.89C87.854,25.496,81.742,21.059,74.228,21.059z M60.102,30.948h0.01H60.102z"/><path fill="#472b29" d="M80.774 27.11h-3.89c-.138 0-.25-.112-.25-.25s.112-.25.25-.25h3.89c.138 0 .25.112.25.25S80.912 27.11 80.774 27.11zM75.156 27.11h-8.211c-.138 0-.25-.112-.25-.25s.112-.25.25-.25h8.211c.138 0 .25.112.25.25S75.293 27.11 75.156 27.11zM82.502 29.703H71.699c-.138 0-.25-.112-.25-.25s.112-.25.25-.25h10.804c.138 0 .25.112.25.25S82.64 29.703 82.502 29.703zM69.97 29.703h-5.187c-.138 0-.25-.112-.25-.25s.112-.25.25-.25h5.187c.138 0 .25.112.25.25S70.108 29.703 69.97 29.703zM78.181 32.296H64.784c-.138 0-.25-.112-.25-.25s.112-.25.25-.25h13.397c.138 0 .25.112.25.25S78.319 32.296 78.181 32.296zM74.66 35.321h-7.715c-.138 0-.25-.112-.25-.25s.112-.25.25-.25h7.715c.138 0 .25.112.25.25S74.797 35.321 74.66 35.321z"/><path fill="#ee3e54" d="M82.03 32.851A5.388 5.388 0 1 0 82.03 43.626999999999995A5.388 5.388 0 1 0 82.03 32.851Z"/><path fill="#472b29" d="M82.03,44.128c-3.246,0-5.888-2.642-5.888-5.889c0-3.246,2.642-5.888,5.888-5.888c3.247,0,5.889,2.642,5.889,5.888C87.918,41.486,85.277,44.128,82.03,44.128z M82.03,33.351c-2.695,0-4.888,2.192-4.888,4.888s2.192,4.889,4.888,4.889s4.889-2.193,4.889-4.889S84.725,33.351,82.03,33.351z"/><path fill="#fdfcef" d="M82.041,39.732c0.651,0,0.928,0.277,0.928,0.864c0,0.513-0.277,0.822-0.928,0.822c-0.673,0-0.95-0.309-0.95-0.843C81.091,40.009,81.368,39.732,82.041,39.732z M81.112,35.06h1.815l-0.15,4.055H81.23L81.112,35.06z"/></svg>