<svg xmlns="http://www.w3.org/2000/svg" viewBox="0 0 40 40"><path fill="#b6dcfe" d="M1.5,26.5v-3.398l2.451-5.795c0.365-1.088,1.345-1.799,2.453-1.806l0.589,0.003 c0.456,0,0.841,0.158,1.128,0.446l3.101,3.081l3.035-1.36c0.234-0.116,0.464-0.171,0.703-0.171c0.587,0,1.115,0.325,1.377,0.85 c0.378,0.757,0.069,1.682-0.688,2.061l-3.959,1.926C11.474,22.444,11.236,22.5,11,22.5c-0.411,0-0.796-0.16-1.086-0.45 l-1.787-1.771L5.66,26.5H1.5z"/><path fill="#4788c7" d="M6.698,16l0.166,0l0.013,0.003h0.159c0.278,0,0.538,0.106,0.734,0.302l2.856,2.838l0.487,0.484 l0.627-0.281l2.76-1.237c0.145-0.073,0.301-0.11,0.461-0.11c0.396,0,0.752,0.22,0.929,0.572c0.255,0.511,0.047,1.135-0.453,1.385 l-3.974,1.933C11.318,21.963,11.162,22,11,22c-0.277,0-0.537-0.108-0.736-0.307l-1.248-1.237l-1.076-1.066l-0.558,1.408L5.321,26H2 v-2.797l2.412-5.701l0.015-0.036l0.012-0.037c0.284-0.849,1.075-1.423,1.968-1.429L6.698,16 M6.698,15 c-0.086,0-0.187,0-0.296,0.001c-1.286,0.008-2.48,0.824-2.911,2.112L1,23v4h5l2.312-5.833l1.248,1.237 C9.951,22.795,10.472,23,11,23c0.309,0,0.62-0.07,0.91-0.215l3.965-1.928c1.005-0.504,1.413-1.726,0.91-2.732 C16.428,17.412,15.708,17,14.962,17c-0.306,0-0.616,0.069-0.908,0.215l-2.722,1.219l-2.856-2.838 c-0.397-0.397-0.918-0.593-1.438-0.593c-0.015,0-0.03,0-0.045,0c-0.002-0.001-0.01-0.003-0.01-0.003S6.87,15,6.698,15L6.698,15z"/><path fill="#98ccfd" d="M1.5,33.5v-10h36.02c-7.803,5.68-23.358,9.781-26.537,10H1.5z"/><path fill="#4788c7" d="M35.902,24c-8.017,5.143-21.927,8.784-24.937,9H2v-9H35.902 M38.975,23H1v11h10 C14.621,33.763,31.612,29.175,38.975,23L38.975,23z"/><path fill="#dff0fe" d="M8 8.5A2.5 2.5 0 1 0 8 13.5A2.5 2.5 0 1 0 8 8.5Z"/><path fill="#4788c7" d="M8,9c1.103,0,2,0.897,2,2s-0.897,2-2,2s-2-0.897-2-2S6.897,9,8,9 M8,8c-1.657,0-3,1.343-3,3 s1.343,3,3,3s3-1.343,3-3S9.657,8,8,8L8,8z"/><path fill="#98ccfd" d="M4.025 34L1 34 1.025 24 4.025 24z"/><path fill="none" stroke="#4788c7" stroke-linecap="round" stroke-miterlimit="10" d="M18.219 19.188L24 23"/><g><path fill="#b6dcfe" d="M18.934 23.5L22.179 18.633 32.724 23.5z"/><path fill="#4788c7" d="M22.358,19.266L30.447,23H19.869L22.358,19.266 M22,18l-4,6h17L22,18L22,18z"/></g><path fill="none" stroke="#4788c7" stroke-linecap="round" stroke-miterlimit="10" d="M19.531 16.531L16.5 21.531"/><g><path fill="#b6dcfe" d="M1,38h38v-7.123C37.692,30.614,36.148,30,35,30c-1.458,0-3.563,1-5,1c-1.438,0-3.542-1-5-1 s-3.563,1-5,1c-1.438,0-3.542-1-5-1s-3.563,1-5,1c-1.438,0-3.542-1-5-1c-1.148,0-2.692,0.614-4,0.877V38z"/><path fill="none" stroke="#4788c7" stroke-linecap="round" stroke-miterlimit="10" d="M1.5,31.278 c0.363-0.087,0.738-0.191,1.113-0.297C3.459,30.745,4.335,30.5,5,30.5c0.663,0,1.537,0.246,2.382,0.484 C8.283,31.237,9.215,31.5,10,31.5s1.717-0.263,2.618-0.516C13.463,30.746,14.337,30.5,15,30.5s1.537,0.246,2.382,0.484 C18.283,31.237,19.215,31.5,20,31.5s1.717-0.263,2.618-0.516C23.463,30.746,24.337,30.5,25,30.5s1.537,0.246,2.382,0.484 C28.283,31.237,29.215,31.5,30,31.5s1.717-0.263,2.618-0.516C33.463,30.746,34.337,30.5,35,30.5c0.665,0,1.541,0.245,2.387,0.481 c0.375,0.105,0.75,0.21,1.113,0.297"/></g></svg>