<svg xmlns="http://www.w3.org/2000/svg" viewBox="0 0 24 24"><path d="M 11.517578 2 C 10.765078 2 9.2940192 1.9783426 7.8886719 2.4296875 C 7.1859982 2.65536 6.4773781 3.0089293 5.9179688 3.6113281 C 5.3585594 4.2137269 5 5.0767953 5 6.0605469 C 5 9.4127771 5.1062011 15.486059 5.5097656 18.632812 C 5.6079596 19.389249 5.9553328 20.253866 6.7070312 20.919922 C 7.4587299 21.585977 8.5765245 22 10.013672 22 L 12.019531 22 L 14.025391 22 C 15.462965 22 16.580244 21.586381 17.332031 20.919922 C 18.083247 20.25397 18.430124 19.390064 18.527344 18.632812 L 18.527344 18.630859 C 18.933004 15.484623 19.039062 9.4122245 19.039062 6.0625 C 19.03875 5.1059484 18.737808 4.2632403 18.224609 3.6503906 C 17.711411 3.0375409 17.035182 2.6667202 16.353516 2.4355469 C 14.990182 1.9732003 13.523531 2 12.519531 2 L 11.517578 2 z M 11.517578 4 L 12.519531 4 C 13.523531 4 14.81702 4.026925 15.710938 4.3300781 C 16.157896 4.4816548 16.483449 4.685256 16.691406 4.9335938 C 16.899101 5.1816177 17.038524 5.4875012 17.039062 6.0605469 L 17.037109 6.0605469 C 17.037109 7.9290043 16.729813 8.9085068 16.345703 9.3496094 C 15.961594 9.7907119 15.332847 10 14.025391 10 L 10.013672 10 C 8.7062156 10 8.0755158 9.7907119 7.6914062 9.3496094 C 7.3072968 8.9085068 7 7.9290043 7 6.0605469 C 7 5.5137985 7.1427531 5.2311638 7.3828125 4.9726562 C 7.6228719 4.7141488 8.0112987 4.4909369 8.5 4.3339844 C 9.4774026 4.0200793 10.765078 4 11.517578 4 z M 12 5 A 2 2 0 0 0 10 7 A 2 2 0 0 0 12 9 A 2 2 0 0 0 14 7 A 2 2 0 0 0 12 5 z M 16.955078 11.382812 C 16.887025 13.828069 16.769705 16.246646 16.585938 17.90625 C 16.535931 17.735385 16.503077 17.572801 16.439453 17.398438 C 16.152658 16.612475 15.71223 15.780297 14.986328 15.117188 C 14.260427 14.454077 13.228375 14 12 14 C 10.771625 14 9.7395733 14.454076 9.0136719 15.117188 C 8.2877705 15.780297 7.8473418 16.612476 7.5605469 17.398438 C 7.5091954 17.539166 7.4857374 17.669895 7.4433594 17.808594 C 7.2659348 16.148565 7.1506562 13.786496 7.0839844 11.384766 C 7.9054968 11.846781 8.9160742 12 10.013672 12 L 14.025391 12 C 15.124011 12 16.133729 11.845844 16.955078 11.382812 z M 12 16 C 12.771625 16 13.239573 16.229173 13.638672 16.59375 C 14.03777 16.958327 14.347342 17.499696 14.560547 18.083984 C 14.824706 18.807912 14.91107 19.438913 14.953125 19.902344 C 14.691024 19.958238 14.397784 20 14.025391 20 L 12.019531 20 L 10.013672 20 C 9.6225374 20 9.3173772 19.955659 9.046875 19.894531 C 9.089628 19.430309 9.1774725 18.801942 9.4394531 18.083984 C 9.6526582 17.499696 9.9622296 16.958327 10.361328 16.59375 C 10.760427 16.229173 11.228375 16 12 16 z"/></svg>