<?xml version="1.0"?><svg xmlns="http://www.w3.org/2000/svg" viewBox="0 0 128 128">    <path d="M 73.572266 10.986328 C 71.369141 11.056641 69.250781 11.675781 67.300781 12.800781 C 65.300781 14.000781 62.600391 13.999219 60.400391 12.699219 C 58.400391 11.599219 56.2 11 54 11 C 50.4 11 47 12.499609 44.5 15.099609 C 42 17.699609 40.8 21.200781 41 24.800781 C 41.3 30.300781 45.2 34.9 50.5 36.5 C 52.4 37.1 54.300781 35.599219 54.300781 33.699219 C 54.300781 32.399219 53.499219 31.100781 52.199219 30.800781 C 49.299219 30.000781 47.2 27.5 47 24.5 C 46.9 22.5 47.600391 20.700781 48.900391 19.300781 C 50.200391 17.900781 52 17.099609 54 17.099609 C 55.2 17.099609 56.4 17.4 57.5 18 C 61.6 20.4 66.600391 20.399609 70.400391 18.099609 C 71.800391 17.299609 73.4 16.999219 75 17.199219 C 78.1 17.599219 80.600391 20.200781 80.900391 23.300781 C 81.200391 26.200781 79.899219 28.900391 77.199219 30.400391 C 76.199219 31.000391 75.000391 31.099219 73.900391 31.199219 C 70.600391 31.299219 68 33.799609 68 37.099609 L 68 91.300781 C 68 94.600781 70.600391 97.199219 73.900391 97.199219 C 75.100391 97.199219 76.199219 97.4 77.199219 98 C 79.899219 99.5 81.200391 102.19961 80.900391 105.09961 C 80.500391 108.29961 77.900781 110.89922 74.800781 111.19922 C 73.200781 111.39922 71.700391 111.00078 70.400391 110.30078 C 66.500391 108.00078 61.499609 108.00078 57.599609 110.30078 C 56.299609 111.10078 54.799219 111.39922 53.199219 111.19922 C 49.999219 110.89922 47.399609 108.19961 47.099609 105.09961 C 46.799609 102.19961 48.100781 99.6 50.800781 98 C 51.800781 97.4 52.999609 97.299219 54.099609 97.199219 C 57.399609 97.099219 60 94.600781 60 91.300781 L 60 46.800781 C 60 45.300781 58.999609 43.999219 57.599609 43.699219 C 55.699609 43.299219 54 44.799609 54 46.599609 L 54 91 C 50.3 91 46.700781 92.600391 44.300781 95.400391 C 40.800781 99.300391 39.900391 105.09961 42.400391 110.09961 C 44.200391 113.69961 47.699219 116.20039 51.699219 116.90039 C 54.899219 117.40039 57.999219 116.79922 60.699219 115.19922 C 62.699219 113.99922 65.300781 113.99922 67.300781 115.19922 C 69.700781 116.69922 72.600391 117.3 75.400391 117 C 81.400391 116.3 86.200781 111.49961 86.800781 105.59961 C 87.200781 101.89961 85.999609 98.2 83.599609 95.5 C 81.099609 92.7 77.600391 91.199219 73.900391 91.199219 L 73.900391 37 C 77.800391 37 81.299219 35.399609 83.699219 32.599609 C 85.799219 30.199609 87 27.100391 87 23.900391 C 87 22.400391 86.699219 20.9 86.199219 19.5 C 84.599219 15 80.500781 11.699609 75.800781 11.099609 C 75.050781 10.999609 74.306641 10.962891 73.572266 10.986328 z M 23.097656 37.527344 C 22.128906 37.601562 21.199219 38.125 20.699219 39 C 19.899219 40.4 20.400781 42.299609 21.800781 43.099609 L 30.5 48.099609 C 31 48.399609 31.5 48.5 32 48.5 C 33 48.5 33.999609 48 34.599609 47 C 35.399609 45.6 34.9 43.700391 33.5 42.900391 L 24.800781 37.900391 C 24.275781 37.600391 23.678906 37.482813 23.097656 37.527344 z M 104.90234 37.527344 C 104.32109 37.482813 103.72422 37.600391 103.19922 37.900391 L 94.5 42.900391 C 93.1 43.700391 92.600391 45.6 93.400391 47 C 94.000391 48 95 48.5 96 48.5 C 96.5 48.5 97 48.399609 97.5 48.099609 L 106.19922 43.099609 C 107.59922 42.299609 108.10078 40.4 107.30078 39 C 106.80078 38.125 105.87109 37.601562 104.90234 37.527344 z M 4 61 A 3 3 0 0 0 1 64 A 3 3 0 0 0 4 67 A 3 3 0 0 0 7 64 A 3 3 0 0 0 4 61 z M 16 61 C 14.3 61 13 62.3 13 64 C 13 65.7 14.3 67 16 67 L 27 67 C 28.7 67 30 65.7 30 64 C 30 62.3 28.7 61 27 61 L 16 61 z M 101 61 C 99.3 61 98 62.3 98 64 C 98 65.7 99.3 67 101 67 L 112 67 C 113.7 67 115 65.7 115 64 C 115 62.3 113.7 61 112 61 L 101 61 z M 124 61 A 3 3 0 0 0 121 64 A 3 3 0 0 0 124 67 A 3 3 0 0 0 127 64 A 3 3 0 0 0 124 61 z M 32.201172 79.527344 C 31.619922 79.482812 31.025 79.600391 30.5 79.900391 L 21.800781 84.900391 C 20.400781 85.700391 19.899219 87.6 20.699219 89 C 21.299219 90 22.300781 90.5 23.300781 90.5 C 23.800781 90.5 24.300781 90.399609 24.800781 90.099609 L 33.5 85.099609 C 34.9 84.299609 35.399609 82.4 34.599609 81 C 34.099609 80.125 33.169922 79.601562 32.201172 79.527344 z M 95.798828 79.527344 C 94.830078 79.601562 93.900391 80.125 93.400391 81 C 92.600391 82.4 93.1 84.299609 94.5 85.099609 L 103.19922 90.099609 C 103.69922 90.399609 104.19922 90.5 104.69922 90.5 C 105.69922 90.5 106.70078 90 107.30078 89 C 108.10078 87.6 107.59922 85.700391 106.19922 84.900391 L 97.5 79.900391 C 96.975 79.600391 96.380078 79.482812 95.798828 79.527344 z"/></svg>