<svg xmlns="http://www.w3.org/2000/svg" viewBox="0 0 16 16"><path d="M 4.875 2 C 3.066406 2 1.195313 3.0625 1.195313 3.0625 C 1.054688 3.140625 0.957031 3.285156 0.9375 3.445313 L 0.00390625 12.449219 C -0.015625 12.625 0.0625 12.800781 0.207031 12.90625 C 0.355469 13.011719 0.546875 13.03125 0.710938 12.953125 C 0.710938 12.953125 2.769531 12 4.875 12 C 6.113281 12 7.742188 12.925781 7.742188 12.925781 C 7.898438 13.023438 8.097656 13.023438 8.257813 12.925781 C 8.257813 12.925781 9.882813 12 11.125 12 C 13.226563 12 15.285156 12.953125 15.285156 12.953125 C 15.449219 13.03125 15.640625 13.011719 15.789063 12.910156 C 15.9375 12.804688 16.015625 12.628906 15.996094 12.449219 L 15.058594 3.445313 L 14.5625 4 C 14.5625 4 14.808594 3.066406 14.804688 3.0625 C 14.800781 3.058594 14.796875 3.058594 14.796875 3.058594 C 14.789063 3.054688 14.785156 3.050781 14.777344 3.046875 C 14.757813 3.039063 14.738281 3.027344 14.707031 3.011719 C 14.652344 2.980469 14.566406 2.941406 14.464844 2.890625 C 14.257813 2.792969 13.964844 2.664063 13.621094 2.53125 C 12.984375 2.292969 12.148438 2.078125 11.3125 2.039063 C 11.253906 2.015625 11.191406 2 11.125 2 C 9.558594 2 8.347656 2.71875 8 2.9375 C 7.652344 2.71875 6.441406 2 4.875 2 Z M 4.875 3 C 6.269531 3 7.726563 3.917969 7.726563 3.917969 C 7.890625 4.027344 8.109375 4.027344 8.273438 3.917969 C 8.273438 3.917969 9.730469 3 11.125 3 C 11.820313 3 12.640625 3.230469 13.265625 3.46875 C 13.582031 3.585938 13.847656 3.707031 14.035156 3.796875 C 14.058594 3.808594 14.070313 3.8125 14.09375 3.824219 L 14.917969 11.75 C 14.140625 11.445313 12.839844 11 11.125 11 C 9.636719 11 8.339844 11.738281 8 11.941406 C 7.660156 11.738281 6.359375 11 4.875 11 C 3.15625 11 1.855469 11.441406 1.078125 11.75 L 1.90625 3.839844 C 2.222656 3.679688 3.628906 3 4.875 3 Z M 4.875 4 C 4.222656 4 3.425781 4.257813 2.84375 4.5 L 2.234375 10.339844 C 3.019531 10.148438 3.933594 10 4.875 10 C 6.054688 10 7.246094 10.453125 8 10.808594 C 8.753906 10.453125 9.945313 10 11.125 10 L 11.625 10 L 11 4 L 10.832031 4.019531 C 9.984375 4.113281 9.113281 4.570313 8.820313 4.757813 L 8 5.285156 L 7.179688 4.753906 C 6.855469 4.546875 5.804688 4 4.875 4 Z"/></svg>