<?xml version="1.0"?><svg xmlns="http://www.w3.org/2000/svg" viewBox="0 0 128 128">    <path d="M 64 0 C 55.2 0 48 7.2 48 16 C 48 17.890806 48.318789 19.661991 48.904297 21.314453 C 30.75978 24.854861 20.144567 35.462179 19.099609 51.699219 C 15.999609 54.099219 14 57.8 14 62 C 14 69.2 19.8 75 27 75 L 96 75 L 102 75 L 107 75 C 112.5 75 117 79.5 117 85 C 117 90.5 112.5 95 107 95 L 103.5 95 C 102.3 95 101.19922 95.700781 100.69922 96.800781 C 94.399219 111.50078 80 121 64 121 C 47.9 121 33.499219 111.49922 27.199219 96.699219 C 27.199219 96.599219 27.1 96.500391 27 96.400391 C 26.5 95.600391 25.5 95 24.5 95 L 21 95 C 15.5 95 11 90.5 11 85 C 11 82.7 11.699219 80.600781 13.199219 78.800781 C 14.199219 77.500781 13.999219 75.599609 12.699219 74.599609 C 11.399219 73.599609 9.5 73.799609 8.5 75.099609 C 6.2 77.899609 5 81.4 5 85 C 5 93.8 12.2 101 21 101 L 22.599609 101 C 30.299609 116.9 46.3 127 64 127 C 81.7 127 97.800391 116.9 105.40039 101 L 107 101 C 115.8 101 123 93.8 123 85 C 123 78 118.50078 72.100391 112.30078 69.900391 C 114.00078 67.700391 115 65 115 62 C 115 56.9 112.10078 52.500391 107.80078 50.400391 C 106.30715 35.149652 96.157185 25.093754 79.011719 21.488281 C 79.634697 19.766857 80 17.904321 80 16 C 80 7.2 72.8 0 64 0 z M 64 6 C 69.5 6 74 10.5 74 16 C 74 17.628904 73.610136 19.156812 72.923828 20.507812 C 69.952084 20.169872 66.808892 20 63.5 20 C 60.551516 20 57.742027 20.14538 55.058594 20.416016 C 54.390029 19.075824 54 17.572707 54 16 C 54 10.5 58.5 6 64 6 z M 63.5 26 C 76.7 26 98.2 29.2 101.5 49 L 27 49 C 26.5 49 26.000391 48.999609 25.400391 49.099609 C 28.700391 29.199609 50.2 26 63.5 26 z M 27 55 L 102 55 C 105.9 55 109 58.1 109 62 C 109 65.9 105.9 69 102 69 L 96 69 L 27 69 C 23.1 69 20 65.9 20 62 C 20 58.1 23.1 55 27 55 z M 44 81 A 4 4 0 0 0 40 85 A 4 4 0 0 0 44 89 A 4 4 0 0 0 48 85 A 4 4 0 0 0 44 81 z M 84 81 A 4 4 0 0 0 80 85 A 4 4 0 0 0 84 89 A 4 4 0 0 0 88 85 A 4 4 0 0 0 84 81 z M 71.136719 101.98828 C 70.374219 102.00078 69.6 102.30039 69 102.90039 C 67.7 104.30039 65.900391 105 63.900391 105 C 62.000391 105 60.200391 104.30039 58.900391 102.90039 C 57.800391 101.80039 55.899219 101.70039 54.699219 102.90039 C 53.599219 104.00039 53.499219 105.89961 54.699219 107.09961 C 57.199219 109.59961 60.5 111 64 111 C 67.6 111 70.900781 109.6 73.300781 107 C 74.400781 105.9 74.399219 104.00078 73.199219 102.80078 C 72.649219 102.25078 71.899219 101.97578 71.136719 101.98828 z"/></svg>