<?xml version="1.0"?><svg xmlns="http://www.w3.org/2000/svg" viewBox="0 0 128 128">    <path d="M 49 14.199219 C 43.9 14.199219 39.600781 17.300781 37.800781 21.800781 C 36.600781 21.400781 35.3 21.199219 34 21.199219 C 26.8 21.199219 21 26.999219 21 34.199219 L 21 34.300781 C 14.7 35.700781 9.9003906 41.3 9.9003906 48 C 9.9003906 50 10.299609 51.899219 11.099609 53.699219 C 7.2996094 57.099219 5 61.999219 5 67.199219 C 5 67.799219 4.9996094 68.300781 5.0996094 68.800781 L 5.0996094 69.099609 C 5.1996094 69.599609 5.2007812 70.199219 5.3007812 70.699219 L 5.3007812 70.900391 C 5.4007812 71.400391 5.4992187 71.900391 5.6992188 72.400391 L 5.6992188 72.5 C 5.8992188 73 6.1007813 73.499609 6.3007812 74.099609 C 6.3007812 74.099609 6.3003906 74.199219 6.4003906 74.199219 C 6.8003906 75.199219 7.4 76.199609 8 77.099609 C 8 77.099609 7.9996094 77.199219 8.0996094 77.199219 C 8.6996094 78.099219 9.3992187 78.899219 10.199219 79.699219 L 10.400391 79.900391 C 10.800391 80.200391 11.1 80.600391 11.5 80.900391 C 11.6 81.000391 11.700781 81.099609 11.800781 81.099609 L 12.699219 81.699219 C 12.899219 81.799219 12.999219 81.899609 13.199219 82.099609 L 13.300781 82.199219 C 13.400781 82.199219 13.4 82.300781 13.5 82.300781 C 16.3 84.000781 19.5 85 23 85 C 32.9 85 41 76.9 41 67 L 41 62 C 41 60.3 39.7 59 38 59 C 36.3 59 35 60.3 35 62 L 35 67 C 35 73.6 29.6 79 23 79 C 20.6 79 18.4 78.299609 16.5 77.099609 C 15.7 76.599609 14.900781 76.000781 14.300781 75.300781 C 14.200781 75.200781 14.099609 75.1 14.099609 75 C 13.899609 74.8 13.7 74.499219 13.5 74.199219 C 13.4 74.099219 13.299219 74.000781 13.199219 73.800781 L 12.599609 72.900391 C 12.599609 72.800391 12.5 72.799219 12.5 72.699219 L 11.900391 71.5 C 11.800391 71.4 11.799219 71.199609 11.699219 71.099609 L 11.400391 70.199219 C 11.400391 69.999219 11.300781 69.899219 11.300781 69.699219 C 11.200781 69.399219 11.199609 69.100781 11.099609 68.800781 C 11.099609 68.700781 11.1 68.500391 11 68.400391 L 11 67.199219 C 11 63.299219 12.9 59.8 16 57.5 L 20 57.5 C 21.7 57.5 23 56.2 23 54.5 C 23 52.8 21.7 51.5 20 51.5 L 16.800781 51.5 C 16.200781 50.4 15.900391 49.200391 15.900391 47.900391 C 15.900391 44.000391 18.700391 40.8 22.400391 40 C 24.600391 44.2 28.9 47.099609 34 47.099609 C 35.7 47.099609 37 45.799609 37 44.099609 C 37 42.399609 35.7 41.099609 34 41.099609 C 30.9 41.099609 28.200781 38.999219 27.300781 36.199219 C 27.200781 35.899219 27.099609 35.600781 27.099609 35.300781 L 27.099609 35.099609 C 27.099609 34.799609 27 34.499609 27 34.099609 C 27 30.199609 30.1 27.099609 34 27.099609 C 35.5 27.099609 36.999219 27.6 38.199219 28.5 C 39.099219 29.2 40.300781 29.300781 41.300781 28.800781 C 42.300781 28.300781 43 27.299609 43 26.099609 L 43 26 C 43 22.7 45.7 20.099609 49 20.099609 C 52.3 20.099609 55 22.799609 55 26.099609 L 55 97.099609 C 55 103.89961 49.6 109.19922 43 109.19922 C 37.9 109.19922 33.399219 105.99922 31.699219 101.19922 C 31.299219 99.899219 29.999219 99.099219 28.699219 99.199219 L 28.400391 99.199219 L 28 99.199219 C 21.4 99.199219 16 93.799219 16 87.199219 C 16 85.499219 14.7 84.199219 13 84.199219 C 11.3 84.199219 10 85.499219 10 87.199219 C 10 96.699219 17.500391 104.59922 26.900391 105.19922 C 29.900391 111.29922 36.1 115.19922 43 115.19922 C 52.9 115.19922 61 107.09922 61 97.199219 L 61 26.199219 C 61 19.599219 55.6 14.199219 49 14.199219 z M 79 14.199219 C 72.4 14.199219 67 19.599219 67 26.199219 L 67 97.199219 C 67 107.09922 75.1 115.19922 85 115.19922 C 91.9 115.19922 98.099609 111.19922 101.09961 105.19922 C 110.49961 104.59922 118 96.799219 118 87.199219 C 118 84.999219 117.60078 82.800781 116.80078 80.800781 C 120.70078 77.400781 123 72.499219 123 67.199219 C 123 61.999219 120.80039 57.099219 116.90039 53.699219 C 117.60039 51.999219 118 50.099219 118 48.199219 C 118 41.499219 113.3 35.9 107 34.5 L 107 34.199219 C 107 27.299219 101.60078 21.699219 94.800781 21.199219 L 94.400391 21.199219 L 94.199219 21.199219 L 94 21.199219 C 92.7 21.199219 91.399219 21.400781 90.199219 21.800781 C 88.399219 17.400781 84.1 14.199219 79 14.199219 z M 79 20.199219 C 82 20.199219 84.500391 22.400781 84.900391 25.300781 C 82.700391 27.600781 81.400391 30.699219 81.400391 34.199219 C 81.400391 35.899219 82.700391 37.199219 84.400391 37.199219 C 86.100391 37.199219 87.400391 35.899219 87.400391 34.199219 C 87.400391 30.399219 90.399219 27.299219 94.199219 27.199219 C 97.999219 27.299219 101 30.399219 101 34.199219 C 101 34.899219 100.89922 35.600781 100.69922 36.300781 C 100.39922 37.200781 100.59922 38.3 101.19922 39 C 101.79922 39.8 102.69922 40.199219 103.69922 40.199219 L 104 40.199219 C 108.4 40.199219 112 43.799219 112 48.199219 C 112 49.399219 111.70078 50.5 111.30078 51.5 L 108 51.5 C 106.3 51.5 105 52.8 105 54.5 C 105 56.2 106.3 57.5 108 57.5 L 112 57.5 C 115.1 59.8 117 63.299219 117 67.199219 C 117 71.299219 114.90039 75.100781 111.40039 77.300781 C 110.10039 78.200781 109.60039 79.900781 110.40039 81.300781 C 111.40039 83.100781 112 85.099219 112 87.199219 C 112 93.799219 106.6 99.199219 100 99.199219 L 99.599609 99.199219 L 99.300781 99.199219 C 98.000781 99.099219 96.700781 99.899219 96.300781 101.19922 C 94.600781 105.99922 90.1 109.19922 85 109.19922 C 78.4 109.19922 73 103.79922 73 97.199219 L 73 26.199219 C 73 22.899219 75.7 20.199219 79 20.199219 z M 84 45 A 3 3 0 0 0 81 48 A 3 3 0 0 0 84 51 A 3 3 0 0 0 87 48 A 3 3 0 0 0 84 45 z M 88.400391 64.199219 C 86.700391 64.199219 85.400391 65.499219 85.400391 67.199219 C 85.400391 77.099219 93.500391 85.199219 103.40039 85.199219 C 105.10039 85.199219 106.40039 83.899219 106.40039 82.199219 C 106.40039 80.499219 105.10039 79.199219 103.40039 79.199219 C 96.800391 79.199219 91.400391 73.799219 91.400391 67.199219 C 91.400391 65.499219 90.100391 64.199219 88.400391 64.199219 z"/></svg>