<?xml version="1.0"?><svg xmlns="http://www.w3.org/2000/svg" viewBox="0 0 50 50">    <path d="M 0 7 L 0 43 L 50 43 L 50 7 L 0 7 z M 25 9 L 48 25 L 25 41 L 2 25 L 25 9 z M 24.984375 11.986328 A 1.0001 1.0001 0 0 0 24 13 A 1.0001 1.0001 0 1 0 24 15 L 24 16.146484 C 23.45523 16.295312 22.973713 16.546153 22.601562 16.876953 C 22.014743 17.398571 21.665432 18.045826 21.439453 18.648438 C 21.254846 19.140723 21.159785 19.60147 21.097656 20 L 19 20 C 18.597 20 18.234125 20.243234 18.078125 20.615234 C 17.923125 20.987234 18.007062 21.416125 18.289062 21.703125 C 18.575063 21.994125 19 22.608 19 23 L 19 30 C 19 32.206 20.794 34 23 34 L 24 34.027344 C 24.016 34.566344 24.457 35 25 35 C 25.553 35 26 34.552 26 34 L 27 34 C 29.206 34 31 32.206 31 30 L 31 23 C 31 22.608 31.424031 21.995031 31.707031 21.707031 C 31.993031 21.421031 32.078828 20.991187 31.923828 20.617188 C 31.769828 20.244187 31.404 20 31 20 L 28.902344 20 C 28.840215 19.60147 28.745156 19.140723 28.560547 18.648438 C 28.334568 18.045826 27.985258 17.398571 27.398438 16.876953 C 27.026287 16.546153 26.54477 16.295312 26 16.146484 L 26 15 A 1.0001 1.0001 0 1 0 26 13 A 1.0001 1.0001 0 0 0 24.984375 11.986328 z M 24.896484 18.007812 A 1.0001 1.0001 0 0 0 25.111328 18.007812 C 25.563652 18.028448 25.833609 18.162643 26.070312 18.373047 C 26.327243 18.601429 26.540432 18.954174 26.689453 19.351562 C 26.806721 19.664279 26.766863 19.724556 26.8125 20 L 23.1875 20 C 23.23314 19.724556 23.1933 19.664278 23.310547 19.351562 C 23.459568 18.954175 23.672757 18.601429 23.929688 18.373047 C 24.167803 18.161388 24.43916 18.027144 24.896484 18.007812 z M 14 21 L 14 22 C 14 23.105 14.895 25 16 25 L 16 24 C 16 22.895 15.105 21 14 21 z M 35.978516 21 C 34.873516 21 33.978516 22.895 33.978516 24 L 33.978516 25 C 35.082516 25 35.978516 23.105 35.978516 22 L 35.978516 21 z M 18 23 C 16.895 23 16 24.895 16 26 L 16 27 C 17.105 27 18 25.105 18 24 L 18 23 z M 31.978516 23 L 31.978516 24 C 31.978516 25.105 32.873516 27 33.978516 27 L 33.978516 26 C 33.978516 24.895 33.082516 23 31.978516 23 z M 25 24 C 25.552 24 26 24.448 26 25 L 26 26 L 27 26 C 27.552 26 28 26.448 28 27 C 28 27.552 27.552 28 27 28 L 26 28 L 26 29 C 26 29.552 25.552 30 25 30 C 24.448 30 24 29.552 24 29 L 24 28 L 23 28 C 22.448 28 22 27.552 22 27 C 22 26.448 22.448 26 23 26 L 24 26 L 24 25 C 24 24.448 24.448 24 25 24 z M 14 25 L 14 26 C 14 27.105 14.895 29 16 29 L 16 28 C 16 26.895 15.105 25 14 25 z M 35.978516 25 C 34.873516 25 33.978516 26.895 33.978516 28 L 33.978516 29 C 35.082516 29 35.978516 27.105 35.978516 26 L 35.978516 25 z M 18 27 C 16.895 27 16 28.895 16 30 L 16 31 C 17.105 31 18 29.105 18 28 L 18 27 z M 31.978516 27 L 31.978516 28 C 31.978516 29.105 32.873516 31 33.978516 31 L 33.978516 30 C 33.978516 28.895 33.082516 27 31.978516 27 z M 14 29 C 13.812 30 14.895 32 16 32 C 16 30.895 15 29 14 29 z M 35.978516 29 C 34.978516 29 33.978516 30.895 33.978516 32 C 35.083516 32 36.166516 30 35.978516 29 z"/></svg>