<svg xmlns="http://www.w3.org/2000/svg" viewBox="0 0 64 64"><radialGradient id="ETVt1AosJv4Cw3UQTHacua" cx="32" cy="32.5" r="30.751" gradientUnits="userSpaceOnUse" spreadMethod="reflect"><stop offset="0" stop-color="#b8efff"/><stop offset=".642" stop-color="#d4f6ff"/><stop offset="1" stop-color="#e5faff"/></radialGradient><path fill="url(#ETVt1AosJv4Cw3UQTHacua)" d="M60.357,47H57c-1.105,0-2-0.895-2-2c0-1.105,0.895-2,2-2h0.412 c1.139,0,2.202-0.721,2.497-1.821C60.355,39.516,59.096,38,57.5,38H42V27h17c2.335,0,4.22-2.028,3.979-4.41 C62.77,20.514,60.897,19,58.811,19H46c-1.105,0-2-0.895-2-2c0-1.105,0.895-2,2-2h6.357c1.308,0,2.499-0.941,2.63-2.242 C55.137,11.261,53.966,10,52.5,10h-8C43.672,10,43,9.328,43,8.5S43.672,7,44.5,7h3.857c1.308,0,2.499-0.941,2.63-2.242 C51.137,3.261,49.966,2,48.5,2L15.643,2c-1.308,0-2.499,0.941-2.63,2.242C12.863,5.739,14.034,7,15.5,7H19c1.105,0,2,0.895,2,2 c0,1.105-0.895,2-2,2H6.189c-2.086,0-3.958,1.514-4.168,3.59C1.78,16.972,3.665,19,6,19h2.5c1.933,0,3.5,1.567,3.5,3.5 c0,1.933-1.567,3.5-3.5,3.5H5.189c-2.086,0-3.958,1.514-4.168,3.59C0.78,31.972,2.665,34,5,34h17v12H7.588 c-1.139,0-2.202,0.721-2.497,1.821C4.645,49.484,5.904,51,7.5,51H9c1.105,0,2,0.895,2,2c0,1.105-0.895,2-2,2H6.189 c-2.086,0-3.958,1.514-4.168,3.59C1.78,60.972,3.665,63,6,63h48.811c2.086,0,3.958-1.514,4.168-3.59C59.22,57.028,57.335,55,55,55 h-0.5c-0.828,0-1.5-0.672-1.5-1.5s0.672-1.5,1.5-1.5h6c1.466,0,2.637-1.261,2.487-2.758C62.857,47.941,61.665,47,60.357,47z"/><linearGradient id="ETVt1AosJv4Cw3UQTHacub" x1="25" x2="25" y1="65.172" y2="20.172" gradientUnits="userSpaceOnUse" spreadMethod="reflect"><stop offset="0" stop-color="#ff9757"/><stop offset="1" stop-color="#ffb65b"/></linearGradient><path fill="url(#ETVt1AosJv4Cw3UQTHacub)" d="M41,11c0,0-4.507,0-15,0S7,15.029,7,20c0,1.439,0.732,2.795,2,4.002V52c0,2.209,1.791,4,4,4 h26c2.209,0,4-1.791,4-4V24.002C43,18,41,11,41,11z"/><linearGradient id="ETVt1AosJv4Cw3UQTHacuc" x1="-372" x2="-372" y1="60.701" y2="29.565" gradientTransform="matrix(-1 0 0 1 -351 0)" gradientUnits="userSpaceOnUse" spreadMethod="reflect"><stop offset="0" stop-color="#ff8b67"/><stop offset=".847" stop-color="#ffa76a"/><stop offset="1" stop-color="#ffad6b"/><stop offset="1" stop-color="#ffad6b"/></linearGradient><path fill="url(#ETVt1AosJv4Cw3UQTHacuc)" d="M9,52V39c3.083,0,6.118,0,7.872,0c1.451,0,2.786,0.972,3.068,2.395 C20.319,43.307,18.848,45,17,45h-0.5c-1.381,0-2.5,1.119-2.5,2.5c0,1.381,1.119,2.5,2.5,2.5h13.369 c1.451,0,2.789,0.972,3.071,2.395C33.319,54.307,31.848,56,30,56H13C10.791,56,9,54.209,9,52z"/><linearGradient id="ETVt1AosJv4Cw3UQTHacud" x1="25" x2="25" y1="24.041" y2=".231" gradientUnits="userSpaceOnUse" spreadMethod="reflect"><stop offset="0" stop-color="#f29265"/><stop offset=".64" stop-color="#fbb687"/><stop offset="1" stop-color="#ffc595"/></linearGradient><path fill="url(#ETVt1AosJv4Cw3UQTHacud)" d="M41,11c0,0-4.507,0-15,0S7,15.029,7,20c0,1.439,0.731,2.794,1.998,4H43 C43,17.999,41,11,41,11z"/><linearGradient id="ETVt1AosJv4Cw3UQTHacue" x1="40" x2="40" y1="65.172" y2="20.172" gradientUnits="userSpaceOnUse" spreadMethod="reflect"><stop offset="0" stop-color="#f1bb5d"/><stop offset=".633" stop-color="#fbc080"/><stop offset="1" stop-color="#ffc28f"/></linearGradient><path fill="url(#ETVt1AosJv4Cw3UQTHacue)" d="M59,20c0-4.971-8.507-9-19-9s-19,4.029-19,9c0,1.439,0.732,2.795,2,4.002V52 c0,2.209,1.791,4,4,4h26c2.209,0,4-1.791,4-4V24.002C58.268,22.795,59,21.439,59,20z"/><linearGradient id="ETVt1AosJv4Cw3UQTHacuf" x1="41.5" x2="41.5" y1="49" y2="-.123" gradientUnits="userSpaceOnUse" spreadMethod="reflect"><stop offset="0" stop-color="#eb935c"/><stop offset=".989" stop-color="#f5a45c"/></linearGradient><path fill="url(#ETVt1AosJv4Cw3UQTHacuf)" d="M49.5,21h-3c-0.825,0-1.5-0.675-1.5-1.5v0c0-0.825,0.675-1.5,1.5-1.5h3 c0.825,0,1.5,0.675,1.5,1.5v0C51,20.325,50.325,21,49.5,21z M41,31.5L41,31.5c0-0.825-0.675-1.5-1.5-1.5h-3 c-0.825,0-1.5,0.675-1.5,1.5v0c0,0.825,0.675,1.5,1.5,1.5h3C40.325,33,41,32.325,41,31.5z M38,47.5L38,47.5 c0-0.825-0.675-1.5-1.5-1.5h-3c-0.825,0-1.5,0.675-1.5,1.5l0,0c0,0.825,0.675,1.5,1.5,1.5h3C37.325,49,38,48.325,38,47.5z M51,41.5 L51,41.5c0-0.825-0.675-1.5-1.5-1.5h-3c-0.825,0-1.5,0.675-1.5,1.5l0,0c0,0.825,0.675,1.5,1.5,1.5h3C50.325,43,51,42.325,51,41.5z"/></svg>