<svg xmlns="http://www.w3.org/2000/svg" width="64" height="64" viewBox="0 0 64 64"><radialGradient id="ORlirAm_Mjwh80fWjhTF8a" cx="33.303" cy="34.5" r="30.105" gradientTransform="matrix(1 0 0 -1 0 66)" gradientUnits="userSpaceOnUse"><stop offset="0" stop-color="#afeeff"/><stop offset=".193" stop-color="#bbf1ff"/><stop offset=".703" stop-color="#d7f8ff"/><stop offset="1" stop-color="#e1faff"/></radialGradient><path fill="url(#ORlirAm_Mjwh80fWjhTF8a)" d="M58.5,20h2c2.168,0,3.892-1.998,3.422-4.243C63.58,14.122,62.056,13,60.385,13H52.5	c-1.105,0-2-0.895-2-2s0.895-2,2-2h3.885c1.67,0,3.195-1.122,3.537-2.757C60.392,3.998,58.668,2,56.5,2H33.506H32h-9.5	C20.575,2,19,3.575,19,5.5S20.575,9,22.5,9h2c1.105,0,2,0.895,2,2s-0.895,2-2,2L7.25,13.125L5.167,32H4.115C2.444,32,1.832,39,4,39	h0.5c1.105,0,2.167,2.395,2.167,3.5s1.894,7.409,1.894,7.409L24.5,50c1.105,0,2,0.895,2,2s-0.895,2-2,2h-2.886	c-1.67,0-3.195,1.122-3.537,2.757C17.608,59.002,19.332,61,21.5,61h8.994H32h10.5c1.925,0,3.5-1.575,3.5-3.5S44.425,54,42.5,54H42	c-1.105,0-2-0.895-2-2s0.895-2,2-2l5.833-7V31h11.052c1.67,0,3.195-1.122,3.537-2.757C62.892,25.998,61.168,24,59,24h-0.5	c-1.105,0-2-0.895-2-2S57.395,20,58.5,20z"/><linearGradient id="ORlirAm_Mjwh80fWjhTF8b" x1="32" x2="32" y1="41.471" y2="-.529" gradientTransform="matrix(1 0 0 -1 0 66)" gradientUnits="userSpaceOnUse"><stop offset="0" stop-color="#79e2a0"/><stop offset=".582" stop-color="#74d59d"/><stop offset="1" stop-color="#70c99b"/></linearGradient><path fill="url(#ORlirAm_Mjwh80fWjhTF8b)" d="M53,32c0,11.596-9.404,21-21,21s-21-9.404-21-21s9.404-21,21-21S53,20.404,53,32z"/><linearGradient id="ORlirAm_Mjwh80fWjhTF8c" x1="-501.749" x2="-511.53" y1="721.451" y2="744.985" gradientTransform="scale(-1 1) rotate(-22.57 -2024.25 -810.102)" gradientUnits="userSpaceOnUse"><stop offset="0" stop-color="#a4a4a4"/><stop offset=".63" stop-color="#7f7f7f"/><stop offset="1" stop-color="#6f6f6f"/><stop offset="1" stop-color="#6f6f6f"/></linearGradient><path fill="url(#ORlirAm_Mjwh80fWjhTF8c)" d="M18.226,30.188l9.301,3.866l6.297,1.253l10.464,4.349c0.643,0.267,0.947,1.003,0.679,1.646	l-1.022,2.373c-0.267,0.643-1.811,0.514-2.297,0.297l-8.595-3.532c-0.531-0.221-0.825-0.764-0.762-1.307l-3.308-0.384l-12.208-5.074	c-0.643-0.267-0.947-1.003-0.679-1.646l0.483-1.163C16.847,30.225,17.583,29.921,18.226,30.188z"/><linearGradient id="ORlirAm_Mjwh80fWjhTF8d" x1="33.114" x2="33.114" y1="24.262" y2="38.243" gradientTransform="matrix(1 0 0 -1 0 66)" gradientUnits="userSpaceOnUse"><stop offset="0" stop-color="#e3714d"/><stop offset="1" stop-color="#e77b50"/></linearGradient><path fill="url(#ORlirAm_Mjwh80fWjhTF8d)" d="M30.065,26.928c1.452,0.603,3.072-0.115,3.631-1.584c0.005-0.013,0.01-0.025,0.015-0.038	c0.549-1.424,2.695-1.414,3.397-1.143l9.862,3.78c0.938,0.685,1.283,1.923,0.837,2.998l-3.518,8.717l-5.241-2.178	c-2.059-0.856-4.213-1.443-6.395-1.903c-1.972-0.415-3.901-1.013-5.763-1.787l-8.663-3.601l1.208-2.907	c0.934-2.247,5.133-2.552,6.323-2.065L30.065,26.928z"/><linearGradient id="ORlirAm_Mjwh80fWjhTF8e" x1="-266.28" x2="-298.73" y1="-113.653" y2="-146.103" gradientTransform="scale(1 -1) rotate(45 -255.835 268.497)" gradientUnits="userSpaceOnUse"><stop offset="0" stop-color="#62de8f"/><stop offset=".478" stop-color="#5dd18d"/><stop offset="1" stop-color="#56be89"/></linearGradient><path fill="url(#ORlirAm_Mjwh80fWjhTF8e)" d="M11.312,55c-0.768,0-1.502-0.141-2.087-0.727C3.276,48.325,0,40.415,0,32 S3.234,15.925,9.183,9.976c1.171-1.171,2.679-1.147,3.85,0.024s1.139,2.881-0.033,4.053C8.186,18.868,5.9,25.188,5.9,32 c0,6.813,2.406,13.185,7.221,18c1.172,1.171,1.172,3.07,0,4.242C12.536,54.828,12.08,55,11.312,55z"/><g><linearGradient id="ORlirAm_Mjwh80fWjhTF8f" x1="-230.898" x2="-263.374" y1="-148.982" y2="-181.459" gradientTransform="scale(1 -1) rotate(45 -255.835 268.497)" gradientUnits="userSpaceOnUse"><stop offset="0" stop-color="#62de8f"/><stop offset=".478" stop-color="#5dd18d"/><stop offset="1" stop-color="#56be89"/></linearGradient><path fill="url(#ORlirAm_Mjwh80fWjhTF8f)" d="M52.562,55c-0.768,0-1.098-0.414-1.684-1c-1.171-1.172-1.171-3.071,0-4.242 C55.694,44.943,58.1,38.813,58.1,32c0-6.812-2.285-13.185-7.1-18c-1.172-1.172-1.172-2.863,0-4.034 c1.172-1.172,2.604-1.202,3.775-0.031C60.724,15.883,64,23.585,64,32s-3.276,16.325-9.225,22.273C54.189,54.859,53.33,55,52.562,55 z"/></g></svg>