<svg xmlns="http://www.w3.org/2000/svg" width="512" height="512" viewBox="0 0 512 512"><path fill="#29C183" d="M256,7.9C119,7.9,7.9,119,7.9,256C7.9,393,119,504.1,256,504.1c137,0,248.1-111.1,248.1-248.1C504.1,119,393,7.9,256,7.9z"/><path fill="#EFE1A8" d="M417.5,150.8H92.8c-5.9,0-10.6,4.8-10.6,10.6v189.2c0,5.9,4.8,10.6,10.6,10.6h324.7c5.9,0,10.6-4.8,10.6-10.6V161.4C428.1,155.6,423.4,150.8,417.5,150.8z"/><path fill="#E5C438" d="M241.4 294.8H92.8c-5.9 0-10.6 4.8-10.6 10.6v45.1c0 5.9 4.8 10.6 10.6 10.6h148.6c5.9 0 10.6-4.8 10.6-10.6v-45.1C252 299.6 247.3 294.8 241.4 294.8zM417.5 294.8H268.9c-5.9 0-10.6 4.8-10.6 10.6v45.1c0 5.9 4.8 10.6 10.6 10.6h148.6c5.9 0 10.6-4.8 10.6-10.6v-45.1C428.1 299.6 423.4 294.8 417.5 294.8zM241.4 150.8H92.8c-5.9 0-10.6 4.8-10.6 10.6v45.1c0 5.9 4.8 10.6 10.6 10.6h148.6c5.9 0 10.6-4.8 10.6-10.6v-45.1C252 155.6 247.3 150.8 241.4 150.8zM417.5 150.8H268.9c-5.9 0-10.6 4.8-10.6 10.6v45.1c0 5.9 4.8 10.6 10.6 10.6h148.6c5.9 0 10.6-4.8 10.6-10.6v-45.1C428.1 155.6 423.4 150.8 417.5 150.8zM329.9 222.6H181.3c-5.9 0-10.6 4.8-10.6 10.6v45.1c0 5.9 4.8 10.6 10.6 10.6h148.6c5.9 0 10.6-4.8 10.6-10.6v-45.1C340.5 227.3 335.8 222.6 329.9 222.6z"/><g><path fill="#E5C438" d="M357.3 222.6c-5.9 0-10.6 4.8-10.6 10.6v45.1c0 5.9 4.8 10.6 10.6 10.6h70.8v-66.4H357.3zM154.1 222.6H82.2v66.4h71.9c5.9 0 10.6-4.8 10.6-10.6v-45.1C164.7 227.3 159.9 222.6 154.1 222.6z"/></g></svg>