<?xml version="1.0"?><svg xmlns="http://www.w3.org/2000/svg" viewBox="0 0 128 128">    <path d="M 24 1 C 22.3 1 21 2.3 21 4 L 21 18 L 18 18 C 16.3 18 15 19.3 15 21 L 15 41.099609 C 11.9 45.999609 7.6 50.1 2.5 53 C 1.1 53.8 0.60039062 55.699609 1.4003906 57.099609 C 2.2003906 58.499609 4.1 58.999219 5.5 58.199219 C 9 56.099219 12.2 53.599219 15 50.699219 L 15 98 L 4 98 C 2.3 98 1 99.3 1 101 C 1 102.7 2.3 104 4 104 L 9 104 L 9 110 C 9 111.7 10.3 113 12 113 C 13.7 113 15 111.7 15 110 L 15 104 L 33 104 L 33 110 C 33 111.7 34.3 113 36 113 C 37.7 113 39 111.7 39 110 L 39 104 L 89 104 L 89 110 C 89 111.7 90.3 113 92 113 C 93.7 113 95 111.7 95 110 L 95 104 L 113 104 L 113 111 C 113 112.7 114.3 114 116 114 C 117.7 114 119 112.7 119 111 L 119 104 L 124 104 C 125.7 104 127 102.7 127 101 C 127 99.3 125.7 98 124 98 L 113 98 L 113 50.800781 C 115.8 53.700781 118.9 56.200781 122.5 58.300781 C 123.9 59.100781 125.79961 58.599219 126.59961 57.199219 C 127.39961 55.799219 126.9 53.899609 125.5 53.099609 C 120.4 50.099609 116.1 45.999219 113 41.199219 L 113 21 C 113 19.3 111.7 18 110 18 L 107 18 L 107 4 C 107 2.3 105.7 1 104 1 C 102.3 1 101 2.3 101 4 L 101 18 L 98 18 C 96.3 18 95 19.3 95 21 L 95 41.099609 C 88.4 51.299609 77 58 64 58 C 51 58 39.6 51.299609 33 41.099609 L 33 21 C 33 19.3 31.7 18 30 18 L 27 18 L 27 4 C 27 2.3 25.7 1 24 1 z M 21 24 L 27 24 L 27 98 L 21 98 L 21 24 z M 101 24 L 107 24 L 107 98 L 101 98 L 101 24 z M 33 50.699219 C 35.4 53.199219 38.099609 55.400781 41.099609 57.300781 C 41.099609 57.500781 41 57.700391 41 57.900391 L 41 88.900391 C 41 90.600391 42.3 91.900391 44 91.900391 C 45.7 91.900391 47 90.600391 47 88.900391 L 47 60.5 C 51.3 62.4 56.1 63.600391 61 63.900391 L 61 89 C 61 90.7 62.3 92 64 92 C 65.7 92 67 90.7 67 89 L 67 63.900391 C 71.9 63.600391 76.7 62.4 81 60.5 L 81 89 C 81 90.7 82.3 92 84 92 C 85.7 92 87 90.7 87 89 L 87 58 C 87 57.8 87.000391 57.600391 86.900391 57.400391 C 89.900391 55.500391 92.6 53.300781 95 50.800781 L 95 98 L 33 98 L 33 50.699219 z M 110.5625 115.97656 C 109.60059 115.90527 108.625 116.28711 108 117.09961 C 106.1 119.49961 103.19961 120.90039 100.09961 120.90039 L 99.900391 120.90039 C 96.800391 120.90039 93.800391 119.49961 91.900391 117.09961 C 91.300391 116.39961 90.499609 116 89.599609 116 C 88.699609 116 87.800781 116.39961 87.300781 117.09961 L 87.099609 117.30078 C 85.099609 119.70078 82.1 121.09961 79 121.09961 L 78.900391 121.09961 C 75.700391 121.09961 72.800781 119.59922 70.800781 117.19922 C 70.200781 116.49922 69.4 116.09961 68.5 116.09961 C 67.6 116.09961 66.699219 116.49922 66.199219 117.19922 C 64.199219 119.59922 61.299219 121 58.199219 121 C 55.099219 121 52.099219 119.59922 50.199219 117.19922 C 49.599219 116.49922 48.800391 116.09961 47.900391 116.09961 C 47.000391 116.09961 46.099609 116.49922 45.599609 117.19922 C 43.599609 119.59922 40.699609 121 37.599609 121 C 34.499609 121 31.499609 119.59922 29.599609 117.19922 C 28.999609 116.49922 28.200781 116.09961 27.300781 116.09961 C 26.400781 116.09961 25.5 116.49922 25 117.19922 C 23 119.59922 20.1 121 17 121 C 13.9 121 10.9 119.59922 9 117.19922 C 8 115.89922 6.1007813 115.69922 4.8007812 116.69922 C 3.5007813 117.69922 3.3007813 119.60039 4.3007812 120.90039 C 6.8007812 124.70039 11.400391 126.90039 16.400391 126.90039 C 20.200391 126.90039 23.900781 125.59922 26.800781 123.19922 C 29.700781 125.59922 33.299219 126.90039 37.199219 126.90039 C 41.099219 126.90039 44.699609 125.59922 47.599609 123.19922 C 50.499609 125.59922 54.1 126.90039 58 126.90039 C 61.8 126.90039 65.500391 125.59922 68.400391 123.19922 C 71.300391 125.59922 75.000781 127 78.800781 127 L 79 127 C 82.9 127 86.599609 125.59922 89.599609 123.19922 C 92.399609 125.49922 96.000781 126.90039 99.800781 126.90039 L 100 126.90039 C 105 126.90039 109.59922 124.70078 112.69922 120.80078 C 113.69922 119.50078 113.49922 117.59961 112.19922 116.59961 C 111.71172 116.22461 111.13965 116.01934 110.5625 115.97656 z M 122 121 A 3 3 0 0 0 119 124 A 3 3 0 0 0 122 127 A 3 3 0 0 0 125 124 A 3 3 0 0 0 122 121 z"/></svg>