<svg xmlns="http://www.w3.org/2000/svg" viewBox="0 0 40 40"><path fill="#98ccfd" d="M1.5 9.5H37.5V30.5H1.5z"/><path fill="#4788c7" d="M37,10v20H2V10H37 M38,9H1v22h37V9L38,9z"/><path fill="#4788c7" d="M37,6v3H2V6H37 M38,5H1v5h37V5L38,5z"/><path fill="#4788c7" d="M5 5H6V10H5zM9 5H10V10H9zM13 5H14V10H13zM17 5H18V10H17zM21 5H22V10H21zM25 5H26V10H25zM29 5H30V10H29zM33 5H34V10H33zM37 31v3H2v-3H37M38 30H1v5h37V30L38 30z"/><path fill="#4788c7" d="M5 30H6V35H5zM9 30H10V35H9zM13 30H14V35H13zM17 30H18V35H17zM21 30H22V35H21zM25 30H26V35H25zM29 30H30V35H29zM33 30H34V35H33zM10 13H29V26H10z"/><path fill="#fff" d="M10.981 16.482L19.038 21.056 20.25 18.326 12.764 14 10.981 14z"/><path fill="#fff" d="M27.981 14L26.583 14 19.136 18.326 20.347 20.837 27.981 16.482z"/><path fill="#fff" d="M20.347 18.152L18.309 20.383 26.261 24.995 27.981 25 28.017 22.507z"/><path fill="#fff" d="M10.981 22.507L10.981 25 12.619 25 20.606 20.387 19.038 17.932z"/><path fill="#fff" d="M10.981 18.026H28.017000000000003V20.957H10.981z"/><path fill="#fff" d="M17.981 14H20.981V25H17.981z"/><path fill="#98ccfd" d="M10.981 19H27.981V20H10.981z"/><path fill="#98ccfd" d="M18.981 14H19.981V25H18.981zM17.981 18L10.981 14 10.981 15.431 15.543 18zM20.981 18L23.422 18 28.017 15.444 28.017 14.015zM15.509 21L10.981 23.579 10.981 25 17.981 21zM27.981 23.604L23.453 21 20.981 21 27.981 25z"/></svg>