<svg xmlns="http://www.w3.org/2000/svg" viewBox="0 0 100 100"><path d="M 50.5 15 C 41.903 15 37.987047 19.333188 37.123047 21.117188 C 32.854047 23.023187 30 27.569047 30 32.498047 C 30 35.733837 30.63642 38.166026 31.412109 39.943359 C 30.493425 40.502527 30 41.187319 30 42 C 30 43.297 30.561016 45.657203 31.041016 47.283203 L 31.179688 47.761719 C 31.670687 49.463719 32.219 51.361141 34 51.869141 L 34 55 C 34 57.464 37.758 62.161219 42 65.074219 L 42 67.580078 C 42 67.643078 41.991656 67.710781 41.972656 67.800781 C 41.902656 68.129781 41.659172 68.403531 41.326172 68.519531 L 40.576172 68.787109 C 38.990172 69.348109 36.152438 70.3735 31.648438 72.0625 C 23.098437 75.2695 23 83.913 23 84 C 23 84.553 23.448 85 24 85 L 60.291016 85 L 67.429688 92.140625 C 67.983688 92.695625 68.721859 93 69.505859 93 C 70.289859 93 71.025125 92.694625 71.578125 92.140625 L 72.933594 90.785156 L 73.128906 90.980469 C 74.484997 92.33656 76.699632 92.336314 78.056641 90.980469 L 82.980469 86.056641 C 84.336314 84.699632 84.33656 82.48695 82.980469 81.130859 L 82.785156 80.935547 L 94.140625 69.580078 C 95.283625 68.436078 95.283625 66.575641 94.140625 65.431641 L 84.570312 55.859375 C 83.463313 54.751375 81.528875 54.751375 80.421875 55.859375 L 65.335938 70.945312 C 62.753869 69.990477 60.565451 69.192411 59.427734 68.789062 L 58.658203 68.515625 C 58.339203 68.404625 58.101344 68.136594 58.027344 67.808594 C 58.010344 67.726594 58 67.647078 58 67.580078 L 58 65.074219 C 62.242 62.161219 66 58.465 66 56 L 66 51.869141 C 67.781 51.362141 68.329313 49.464719 68.820312 47.761719 L 68.958984 47.283203 C 69.438984 45.658203 70 43.299 70 42 C 70 41.07065 69.366184 40.306049 68.166016 39.708984 C 68.636893 38.318601 69 36.600521 69 34.498047 C 69 30.703047 68.106562 29.433172 66.976562 27.826172 C 66.712563 27.452172 66.441062 27.068953 66.164062 26.626953 C 67.509062 25.509953 68 23.799047 68 22.498047 C 68 22.365047 67.947516 22.237531 67.853516 22.144531 C 67.759516 22.051531 67.633 21.998047 67.5 21.998047 L 67.498047 21.998047 C 65.860047 21.998047 64.481375 20.951047 62.734375 19.623047 C 60.025375 17.563047 56.653 15 50.5 15 z M 50.5 16 C 56.316 16 59.539906 18.450922 62.128906 20.419922 C 63.787906 21.679922 65.238609 22.782703 66.974609 22.970703 C 66.863609 24.051703 66.362656 25.322031 65.222656 26.082031 C 65.002656 26.229031 64.933359 26.524906 65.068359 26.753906 C 65.449359 27.398906 65.82525 27.931344 66.15625 28.402344 C 67.22725 29.922344 68 31.019047 68 34.498047 C 68 38.367047 66.696562 40.956516 65.851562 42.228516 C 65.478562 39.403516 64.347391 32.462219 61.900391 29.199219 C 61.747391 28.995219 61.467047 28.940406 61.248047 29.066406 C 59.134047 30.291406 56.862 30.998047 51.5 30.998047 C 46.536 30.998047 41.667828 28.994422 39.923828 26.232422 C 39.805828 26.044422 39.578328 25.959531 39.361328 26.019531 C 39.147328 26.081531 39 26.275047 39 26.498047 C 39 27.480047 38.35225 28.801609 37.53125 30.474609 C 36.14425 33.303609 34.278344 37.106453 34.027344 42.314453 C 32.916344 40.997453 31 37.936047 31 32.498047 C 31 27.895047 33.691313 23.660984 37.695312 21.958984 C 37.818312 21.907984 37.914844 21.809547 37.964844 21.685547 C 37.987844 21.628547 40.679 16 50.5 16 z M 39.808594 27.722656 C 42.120594 30.283656 46.707953 31.998047 51.501953 31.998047 C 56.184953 31.998047 58.838563 31.510297 61.351562 30.154297 C 64.040562 34.212297 64.993906 43.452828 65.003906 43.548828 C 65.021906 43.740828 65.150031 43.905703 65.332031 43.970703 C 65.511031 44.037703 65.715516 43.990516 65.853516 43.853516 C 65.915571 43.790975 66.658876 43.018453 67.40625 41.554688 C 67.891612 41.81609 67.997492 42 68 42 C 68 42.853 67.597016 44.835797 67.041016 46.716797 L 66.898438 47.207031 C 66.274438 49.370031 65.949 50 65 50 C 64.447 50 64 50.447 64 51 L 64 56 C 64 57.491 60.759125 60.899172 56.453125 63.701172 C 56.448016 63.704512 56.444489 63.709466 56.439453 63.712891 C 54.135061 65.208256 51.907648 66 50 66 C 48.090293 66 45.860773 65.207487 43.552734 63.708984 C 43.549645 63.706923 43.548039 63.703202 43.544922 63.701172 C 39.239922 60.898172 36 56.491 36 55 L 36 51 C 36 50.447 35.552 50 35 50 C 34.051 50 33.725562 49.370031 33.101562 47.207031 L 32.958984 46.716797 C 32.402984 44.834797 32.000047 42.851672 31.998047 42.013672 C 31.998769 42.012228 32.05489 41.8858 32.347656 41.693359 C 33.265023 43.138578 34.122061 43.841018 34.199219 43.898438 C 34.287219 43.964438 34.394 43.998047 34.5 43.998047 C 34.576 43.998047 34.653609 43.980312 34.724609 43.945312 C 34.893609 43.860312 35 43.687047 35 43.498047 C 35 37.908047 36.982641 33.867016 38.431641 30.916016 C 39.030641 29.695016 39.543594 28.649656 39.808594 27.722656 z M 43 36 C 41.64 35.997 40.277 36.143406 39 36.441406 L 39.685547 37.751953 C 40.740547 37.491953 41.872 37.372 43 37.375 C 44.435 37.378 45.866766 37.583 47.134766 38 L 48 36.722656 C 46.456 36.246656 44.73 36.004 43 36 z M 57 36 C 55.27 36.003 53.544 36.246656 52 36.722656 L 52.865234 38 C 54.133234 37.583 55.565 37.378 57 37.375 C 58.128 37.372 59.259453 37.491953 60.314453 37.751953 L 61 36.441406 C 59.723 36.143406 58.36 35.998 57 36 z M 43 40 C 42.201 40 41.518266 40.589547 41.197266 41.435547 C 41.378266 41.178547 41.662 41 42 41 C 42.552 41 43 41.448 43 42 C 43 42.552 42.552 43 42 43 C 41.498 43 41.101297 42.623578 41.029297 42.142578 C 41.015297 42.259578 41 42.377 41 42.5 C 41 43.881 41.895 45 43 45 C 44.105 45 45 43.881 45 42.5 C 45 41.119 44.105 40 43 40 z M 57 40 C 56.201 40 55.518266 40.589547 55.197266 41.435547 C 55.378266 41.178547 55.662 41 56 41 C 56.552 41 57 41.448 57 42 C 57 42.552 56.552 43 56 43 C 55.498 43 55.101297 42.623578 55.029297 42.142578 C 55.015297 42.259578 55 42.377 55 42.5 C 55 43.881 55.895 45 57 45 C 58.105 45 59 43.881 59 42.5 C 59 41.119 58.105 40 57 40 z M 47.568359 51.003906 C 47.442359 50.986281 47.309219 51.017109 47.199219 51.099609 C 46.978219 51.265609 46.933609 51.579781 47.099609 51.800781 C 47.136609 51.849781 48.023 53 50 53 C 51.978 53 52.862391 51.848828 52.900391 51.798828 C 53.064391 51.580828 53.019734 51.272469 52.802734 51.105469 C 52.586734 50.938469 52.272516 50.980312 52.103516 51.195312 C 52.076516 51.229312 51.454 52 50 52 C 48.555 52 47.929484 51.237266 47.896484 51.197266 C 47.813484 51.088266 47.694359 51.021531 47.568359 51.003906 z M 42.5 56 C 42.327 56 42.165219 56.091281 42.074219 56.238281 C 41.983219 56.385281 41.974734 56.569609 42.052734 56.724609 C 42.139734 56.898609 44.257 61 50 61 C 55.743 61 57.860266 56.897656 57.947266 56.722656 C 58.025266 56.567656 58.016781 56.383328 57.925781 56.236328 C 57.834781 56.089328 57.673 56 57.5 56 L 42.5 56 z M 43.423828 57 L 56.576172 57 C 55.740172 58.086 53.737 60 50 60 C 46.263 60 44.259828 58.086 43.423828 57 z M 82.494141 57 C 82.743141 57 82.977297 57.097438 83.154297 57.273438 L 92.726562 66.84375 C 93.089562 67.20775 93.089562 67.800063 92.726562 68.164062 L 81.371094 79.521484 L 80.869141 79.019531 C 80.54594 78.696331 80.172767 78.455907 79.775391 78.287109 L 88.375 69.689453 C 88.563 69.501453 88.570578 69.197 88.392578 69 C 88.139578 68.721 88 68.366 88 68 C 88 67.446 88.3125 66.939734 88.8125 66.677734 C 88.9545 66.603734 89.049219 66.467547 89.074219 66.310547 C 89.099219 66.153547 89.045594 65.993859 88.933594 65.880859 L 84.119141 61.066406 C 84.006141 60.953406 83.846453 60.902781 83.689453 60.925781 C 83.532453 60.949781 83.395266 61.0465 83.322266 61.1875 C 82.889266 62.0175 81.704953 62.244422 81.001953 61.607422 C 80.806953 61.430422 80.5025 61.436 80.3125 61.625 L 78.292969 63.646484 C 78.097969 63.841484 78.097969 64.158516 78.292969 64.353516 C 78.487969 64.548516 78.803047 64.548516 78.998047 64.353516 L 80.716797 62.636719 C 81.705797 63.239719 83.066031 63.028406 83.832031 62.191406 L 87.810547 66.169922 C 87.298547 66.635922 87 67.294 87 68 C 87 68.455 87.127281 68.899109 87.363281 69.287109 L 78.625 78.023438 C 78.551861 78.018887 78.479512 78.003907 78.40625 78.003906 C 77.513649 78.003899 76.621864 78.341609 75.943359 79.019531 L 71.019531 83.943359 C 70.6948 84.268091 70.452395 84.643341 70.283203 85.042969 C 69.506315 84.961497 68.697976 85.231418 68.169922 85.808594 L 64.191406 81.830078 C 64.700406 81.364078 65 80.706 65 80 C 65 79.545 64.873672 79.102844 64.638672 78.714844 L 73.853516 69.498047 C 74.048516 69.303047 74.048516 68.986016 73.853516 68.791016 C 73.658516 68.596016 73.341484 68.596016 73.146484 68.791016 L 63.626953 78.3125 C 63.438953 78.5005 63.429422 78.802 63.607422 79 C 63.860422 79.279 64 79.634 64 80 C 64 80.555 63.6885 81.061266 63.1875 81.322266 C 63.0465 81.396266 62.950781 81.533406 62.925781 81.691406 C 62.900781 81.849406 62.953406 82.007141 63.066406 82.119141 L 67.880859 86.933594 C 67.975859 87.028594 68.102375 87.080078 68.234375 87.080078 C 68.259375 87.080078 68.285547 87.078219 68.310547 87.074219 C 68.467547 87.050219 68.604734 86.951547 68.677734 86.810547 C 68.942545 86.30165 69.489699 86.030792 70.037109 86.039062 C 69.930828 87.050229 70.24818 88.09908 71.019531 88.871094 L 71.519531 89.371094 L 70.164062 90.726562 C 69.810063 91.079562 69.198703 91.079562 68.845703 90.726562 L 59.273438 81.15625 C 58.910438 80.79225 58.910438 80.199938 59.273438 79.835938 L 81.835938 57.273438 C 82.011937 57.096437 82.245141 57 82.494141 57 z M 44 65.150391 C 46.122326 66.361809 48.179096 67 50 67 C 51.820904 67 53.877674 66.361809 56 65.150391 L 56 67.580078 C 56 67.790078 56.024219 68.009187 56.074219 68.242188 C 56.304219 69.257187 57.025328 70.066391 57.986328 70.400391 L 58.755859 70.673828 C 59.763633 71.031853 61.646988 71.717779 63.777344 72.501953 L 57.859375 78.419922 C 56.715375 79.563922 56.715375 81.424359 57.859375 82.568359 L 58.292969 83.001953 L 25.091797 83.001953 C 25.397797 80.901953 26.712563 76.0515 32.351562 73.9375 C 36.841563 72.2525 39.665047 71.234828 41.248047 70.673828 L 41.539062 70.568359 C 43.021881 71.180609 45.78188 72 50 72 C 50.534 72 51.037391 71.982031 51.525391 71.957031 C 51.801391 71.944031 52.012047 71.709594 51.998047 71.433594 C 51.984047 71.157594 51.786609 70.927937 51.474609 70.960938 C 51.001609 70.983938 50.517 71 50 71 C 46.678275 71 44.314901 70.464803 42.800781 69.958984 C 43.363791 69.53288 43.77841 68.922807 43.927734 68.21875 C 43.976734 67.98775 44 67.786078 44 67.580078 L 44 65.150391 z M 76.634766 65.496094 A 0.50005 0.50005 0 0 0 76.291016 65.646484 L 75.291016 66.646484 A 0.50005 0.50005 0 1 0 75.998047 67.353516 L 76.998047 66.353516 A 0.50005 0.50005 0 0 0 76.634766 65.496094 z M 82.25 66 C 81.708333 66 81.239423 66.221128 80.939453 66.558594 C 80.639484 66.89606 80.5 67.326389 80.5 67.75 C 80.5 68.173611 80.639484 68.60394 80.939453 68.941406 C 81.239423 69.278872 81.708333 69.5 82.25 69.5 C 82.791667 69.5 83.260577 69.278872 83.560547 68.941406 C 83.860516 68.60394 84 68.173611 84 67.75 C 84 67.326389 83.860516 66.89606 83.560547 66.558594 C 83.260577 66.221128 82.791667 66 82.25 66 z M 82.25 67 C 82.541666 67 82.697756 67.09137 82.814453 67.222656 C 82.93115 67.35394 83 67.548611 83 67.75 C 83 67.951389 82.93115 68.14606 82.814453 68.277344 C 82.697756 68.408628 82.541666 68.5 82.25 68.5 C 81.958334 68.5 81.802244 68.408628 81.685547 68.277344 C 81.56885 68.14606 81.5 67.951389 81.5 67.75 C 81.5 67.548611 81.56885 67.35394 81.685547 67.222656 C 81.802244 67.091372 81.958334 67 82.25 67 z M 55.59375 70.453125 C 55.529922 70.441094 55.462531 70.439828 55.394531 70.455078 C 54.738531 70.597078 54.0985 70.706063 53.4375 70.789062 C 53.1635 70.824063 52.969906 71.075609 53.003906 71.349609 C 53.034906 71.602609 53.250047 71.787109 53.498047 71.787109 C 53.520047 71.787109 53.5405 71.786203 53.5625 71.783203 C 54.2515 71.696203 54.920469 71.581594 55.605469 71.433594 C 55.876469 71.375594 56.047281 71.109844 55.988281 70.839844 C 55.944031 70.638094 55.785234 70.489219 55.59375 70.453125 z M 76.25 70.5 C 75.208334 70.5 74.364423 70.908628 73.814453 71.527344 C 73.264484 72.14606 73 72.951389 73 73.75 C 73 74.548611 73.264484 75.35394 73.814453 75.972656 C 74.364423 76.591372 75.208334 77 76.25 77 C 77.291666 77 78.135577 76.591372 78.685547 75.972656 C 79.235516 75.35394 79.5 74.548611 79.5 73.75 C 79.5 72.951389 79.235516 72.14606 78.685547 71.527344 C 78.135577 70.908628 77.291666 70.5 76.25 70.5 z M 76.25 71.5 C 77.041666 71.5 77.572756 71.778872 77.939453 72.191406 C 78.30615 72.60394 78.5 73.173611 78.5 73.75 C 78.5 74.326389 78.30615 74.89606 77.939453 75.308594 C 77.572756 75.721128 77.041666 76 76.25 76 C 75.458334 76 74.927244 75.721128 74.560547 75.308594 C 74.19385 74.89606 74 74.326389 74 73.75 C 74 73.173611 74.19385 72.60394 74.560547 72.191406 C 74.927244 71.778872 75.458334 71.5 76.25 71.5 z M 69.75 78.5 C 69.208333 78.5 68.739423 78.721128 68.439453 79.058594 C 68.139484 79.39606 68 79.826389 68 80.25 C 68 80.673611 68.139484 81.10394 68.439453 81.441406 C 68.739423 81.778872 69.208333 82 69.75 82 C 70.291667 82 70.760577 81.778872 71.060547 81.441406 C 71.360516 81.10394 71.5 80.673611 71.5 80.25 C 71.5 79.826389 71.360516 79.39606 71.060547 79.058594 C 70.760577 78.721128 70.291667 78.5 69.75 78.5 z M 78.40625 78.998047 C 79.040899 78.99804 79.675155 79.241561 80.162109 79.728516 L 82.271484 81.837891 C 83.245394 82.8118 83.245639 84.376571 82.271484 85.351562 L 77.349609 90.273438 C 76.374618 91.247592 74.809847 91.247347 73.835938 90.273438 L 71.726562 88.164062 C 70.752408 87.189071 70.752653 85.6243 71.726562 84.650391 L 76.648438 79.728516 C 77.135932 79.241438 77.771601 78.998054 78.40625 78.998047 z M 69.75 79.5 C 70.041666 79.5 70.197756 79.59137 70.314453 79.722656 C 70.43115 79.85394 70.5 80.048611 70.5 80.25 C 70.5 80.451389 70.43115 80.64606 70.314453 80.777344 C 70.197756 80.908628 70.041666 81 69.75 81 C 69.458334 81 69.302244 80.908628 69.185547 80.777344 C 69.06885 80.64606 69 80.451389 69 80.25 C 69 80.048611 69.06885 79.85394 69.185547 79.722656 C 69.302244 79.591372 69.458334 79.5 69.75 79.5 z"/></svg>