<svg xmlns="http://www.w3.org/2000/svg" xmlns:xlink="http://www.w3.org/1999/xlink" width="512" height="512" viewBox="0 0 512 512"><path fill="#3CB881" d="M504.1,256c0,137-111.1,248.1-248.1,248.1S7.9,393,7.9,256C7.9,119,119,7.9,256,7.9S504.1,119,504.1,256"/><defs><path id="1LSxAQf59QhV~RrwxeJAoa" d="M196.5 258.3H315.8V332.8H196.5z"/></defs><clipPath id="1LSxAQf59QhV~RrwxeJAob"><use overflow="visible" xlink:href="#1LSxAQf59QhV~RrwxeJAoa"/></clipPath><path fill="#3B2517" d="M256.1,332.8c28.2,0,52.1-14.3,59.7-33.9c-7.6-26.2-31.4-40.6-59.7-40.6c-28.2,0-52.1,14.3-59.7,40.6C204.1,318.4,227.9,332.8,256.1,332.8" clip-path="url(#1LSxAQf59QhV~RrwxeJAob)"/><path fill="#3B2517" d="M256.1,332.8c28.2,0,52.1-14.3,59.7-33.9c-7.6-26.2-31.4-40.6-59.7-40.6c-28.2,0-52.1,14.3-59.7,40.6C204.1,318.4,227.9,332.8,256.1,332.8"/><path fill="#3B2517" d="M196.5 298.8c-1.7 5.7-2.6 11.9-2.6 18.7 0 26.2 16.2 47.3 62.2 47.3v-32.1C227.9 332.8 204.1 318.4 196.5 298.8M315.7 298.8c1.7 5.7 2.6 11.9 2.6 18.7 0 26.2-15.8 48.7-62.2 47.3v-32.1C284.2 332.8 308.1 318.4 315.7 298.8"/><path fill="#3B2517" d="M218.4 336H244.3V371.7H218.4zM268 336H293.9V371.7H268z"/><path fill="#3C3D3C" d="M231.1 376.4c1.1 0 2 .9 2 2v5h20.9c0-12.5-10.1-22.6-22.6-22.6-12.5 0-22.6 10.1-22.6 22.6h20.3v-5C229.1 377.3 230 376.4 231.1 376.4M280.7 376.4c1.1 0 2 .9 2 2v5h20.9c0-12.5-10.1-22.6-22.6-22.6-12.5 0-22.6 10.1-22.6 22.6h20.3v-5C278.7 377.3 279.6 376.4 280.7 376.4M136 342.1c3.7-1.7 14.6-6.5 27.8.2 5.8 2.9 9.1 5.5 11.6 7.4 2.4 2 7 6.8 8.8 10.5-3.7 1.7-4.4 2.4-9.1 3.9-3 .9-7.4 1.4-10.2.4-2.8-1-5.8-2.1-9.4-5.3C152.9 357.2 143.5 343.9 136 342.1"/><path fill="#3B2517" d="M181.5,362.9c-1.7,0-3.5-0.1-5.3-0.4c-3.6-0.6-6.1-4-5.5-7.6c0.6-3.6,4-6.1,7.6-5.5c21.4,3.4,29.7-32.9,29.8-33.3c0.8-3.6,4.3-5.8,7.9-5c3.6,0.8,5.8,4.3,5,7.9C220.6,320.8,210.9,362.9,181.5,362.9"/><path fill="#C1B49A" d="M168 170.4c-17.1 0-25.3-29.9-2.5-41.8-56.2 0-56.8 76-7.5 76h57v-34.2H168zM344 170.4c17.1 0 25.3-29.9 2.5-41.8 56.2 0 56.8 76 7.5 76h-57v-34.2H344z"/><path fill="#3B2517" d="M339.3,217.5c0,46-37.3,83.3-83.4,83.3s-83.3-37.3-83.3-83.3c0-46,37.3-83.3,83.3-83.3S339.3,171.5,339.3,217.5"/><path fill="#623A1A" d="M279.2,263.8c0,6.5-10.4,11.8-23.2,11.8c-12.8,0-23.2-5.3-23.2-11.8c0-6.5,10.4-11.8,23.2-11.8C268.8,252,279.2,257.3,279.2,263.8"/><path fill="#231F20" d="M232.5,236.7c0,3.1-2.5,5.6-5.6,5.6c-3.1,0-5.6-2.5-5.6-5.6c0-3.1,2.5-5.6,5.6-5.6C230,231.1,232.5,233.6,232.5,236.7"/><path fill="#EFDBC2" d="M231.2,235c0,0.9-0.7,1.6-1.6,1.6c-0.9,0-1.7-0.7-1.7-1.6c0-0.9,0.7-1.6,1.7-1.6C230.5,233.4,231.2,234.1,231.2,235"/><path fill="#231F20" d="M290.7,236.7c0,3.1-2.5,5.6-5.6,5.6s-5.6-2.5-5.6-5.6c0-3.1,2.5-5.6,5.6-5.6S290.7,233.6,290.7,236.7"/><path fill="#EFDBC2" d="M289.4,235c0,0.9-0.7,1.6-1.7,1.6c-0.9,0-1.6-0.7-1.6-1.6c0-0.9,0.7-1.6,1.6-1.6C288.7,233.4,289.4,234.1,289.4,235"/><path fill="#3B2517" d="M174.4 236c-12.8 12.7-28.7 17.5-35.7 10.5-6.9-6.9-2.2-22.9 10.5-35.7 12.8-12.8 28.7-17.5 35.7-10.5C191.9 207.3 187.2 223.3 174.4 236M337.6 236c12.7 12.7 28.7 17.5 35.7 10.5 6.9-6.9 2.2-22.9-10.5-35.7-12.8-12.8-28.7-17.5-35.7-10.5C320.1 207.3 324.8 223.3 337.6 236"/></svg>