<?xml version="1.0"?><svg xmlns="http://www.w3.org/2000/svg" viewBox="0 0 128 128">    <path d="M 88.988281 16 C 88.525781 16 88.049609 16.100781 87.599609 16.300781 L 68.300781 26 L 19 26 C 17.3 26 16 27.3 16 29 L 16 109 C 16 110.7 17.3 112 19 112 L 69 112 C 69.5 112 69.900781 111.89922 70.300781 111.69922 L 89 102.40039 L 107.69922 111.69922 C 108.09922 111.89922 108.6 112 109 112 C 109.5 112 110.09961 111.79961 110.59961 111.59961 C 111.49961 111.09961 112 110.1 112 109 L 112 29 C 112 27.9 111.40078 26.800781 110.30078 26.300781 L 90.300781 16.300781 C 89.900781 16.100781 89.450781 16 88.988281 16 z M 89 22.400391 L 106 30.900391 L 106 104.09961 L 90.300781 96.300781 C 89.900781 96.100781 89.5 96 89 96 L 89 22.400391 z M 22 32 L 69 32 L 69 105.59961 L 68.300781 106 L 22 106 L 22 32 z M 40.863281 45 C 40.100781 45 39.350781 45.300391 38.800781 45.900391 C 37.600781 47.100391 37.600781 48.999609 38.800781 50.099609 L 41.599609 52.900391 L 38.800781 55.699219 C 37.500781 56.999219 37.499219 58.899609 38.699219 60.099609 C 39.299219 60.699609 40.100781 61 40.800781 61 C 41.500781 61 42.300391 60.699609 42.900391 60.099609 L 45.699219 57.300781 L 48.5 60.099609 C 49.1 60.699609 49.899609 61 50.599609 61 C 51.299609 61 52.099219 60.699609 52.699219 60.099609 C 53.899219 58.899609 53.899219 57.000391 52.699219 55.900391 L 50 53 L 52.800781 50.199219 C 54.000781 48.999219 54.000781 47.1 52.800781 46 C 51.600781 44.8 49.699609 44.8 48.599609 46 L 45.800781 48.800781 L 43 45.900391 C 42.4 45.300391 41.625781 45 40.863281 45 z M 45.597656 65.527344 C 44.628906 65.601562 43.699219 66.125 43.199219 67 L 42.699219 67.900391 C 41.899219 69.300391 42.400781 71.2 43.800781 72 C 44.300781 72.3 44.800781 72.400391 45.300781 72.400391 C 46.300781 72.400391 47.300391 71.800391 47.900391 70.900391 L 48.400391 70 C 49.200391 68.6 48.700781 66.700391 47.300781 65.900391 C 46.775781 65.600391 46.178906 65.482812 45.597656 65.527344 z M 41.792969 77.488281 C 41.598438 77.471484 41.399219 77.475 41.199219 77.5 C 39.599219 77.7 38.399609 79.200781 38.599609 80.800781 C 38.699609 81.200781 38.700781 81.6 38.800781 82 C 39.100781 83.4 40.299219 84.400391 41.699219 84.400391 C 41.899219 84.400391 42.100781 84.400781 42.300781 84.300781 C 43.900781 84.000781 44.999609 82.399219 44.599609 80.699219 C 44.599609 80.599219 44.5 80.399609 44.5 80.099609 C 44.325 78.699609 43.154688 77.605859 41.792969 77.488281 z M 84.337891 77.636719 C 85.100391 77.674219 85.850391 77.999609 86.400391 78.599609 C 87.500391 79.799609 87.399219 81.700781 86.199219 82.800781 L 85.5 83.5 C 84.9 84 84.2 84.300781 83.5 84.300781 C 82.7 84.300781 81.900781 84.000781 81.300781 83.300781 C 80.200781 82.100781 80.3 80.199609 81.5 79.099609 L 82.199219 78.400391 C 82.799219 77.850391 83.575391 77.599219 84.337891 77.636719 z M 92.236328 78.076172 C 91.65918 78.118945 91.087109 78.324219 90.599609 78.699219 C 89.299609 79.699219 89.099609 81.600391 90.099609 82.900391 L 90.599609 83.699219 C 91.199609 84.399219 92.1 84.800781 93 84.800781 C 93.7 84.800781 94.300391 84.599219 94.900391 84.199219 C 96.200391 83.199219 96.400391 81.3 95.400391 80 L 94.800781 79.199219 C 94.175781 78.386719 93.198242 78.004883 92.236328 78.076172 z M 74.738281 86.4375 C 75.500781 86.475 76.250781 86.800391 76.800781 87.400391 C 77.900781 88.600391 77.799609 90.499609 76.599609 91.599609 L 75.900391 92.300781 C 75.300391 92.800781 74.600391 93.099609 73.900391 93.099609 C 73.100391 93.099609 72.299219 92.799609 71.699219 92.099609 C 70.599219 90.899609 70.700391 89.000391 71.900391 87.900391 L 72.599609 87.199219 C 73.199609 86.649219 73.975781 86.4 74.738281 86.4375 z M 49.001953 87.117188 C 47.825391 87.1875 46.775391 87.974609 46.400391 89.099609 C 45.900391 90.699609 46.699219 92.400391 48.199219 92.900391 C 48.599219 93.000391 49.000391 93.200781 49.400391 93.300781 C 49.700391 93.400781 49.899219 93.400391 50.199219 93.400391 C 51.499219 93.400391 52.799609 92.499219 53.099609 91.199219 C 53.499609 89.599219 52.500391 87.9 50.900391 87.5 C 50.700391 87.4 50.399219 87.400781 50.199219 87.300781 C 49.799219 87.150781 49.394141 87.09375 49.001953 87.117188 z M 61.90625 88.988281 C 60.543164 89.105859 59.362109 90.199609 59.099609 91.599609 C 58.899609 93.299609 59.999219 94.8 61.699219 95 L 62.699219 95.099609 L 63.099609 95.099609 C 64.599609 95.099609 65.899609 94 66.099609 92.5 C 66.299609 90.9 65.1 89.399609 63.5 89.099609 L 62.5 89 C 62.3 88.975 62.100977 88.971484 61.90625 88.988281 z"/></svg>