<?xml version="1.0"?><svg xmlns="http://www.w3.org/2000/svg" viewBox="0 0 128 128">    <path d="M 54 21 C 33 21 16 38 16 59 L 16 105.90039 C 16 107.40039 17.000391 108.7 18.400391 109 C 20.300391 109.4 22 107.89961 22 106.09961 L 22 59 C 22 41.3 36.3 27 54 27 L 56.5 27 C 73.6 27 88.2 40.3 89 57.5 L 89 59 L 89 121 L 61.599609 121 C 60.299609 121 59.100391 120.69961 57.900391 120.09961 L 55.599609 119 C 51.499609 117 46.699609 116.70078 42.599609 118.80078 C 40.099609 120.10078 37.099219 120 34.699219 118.5 C 25.899219 113.2 14.9 113.09961 6.5 119.09961 C 4.8 120.29961 3.6992188 121.09961 3.6992188 121.09961 C 1.8992187 122.39961 1.3992188 124.10039 2.1992188 125.40039 C 2.7992188 126.40039 3.8007812 126.90039 4.8007812 126.90039 C 5.4007812 126.90039 6 126.70078 6.5 126.30078 L 6.9003906 126 C 14.400391 120.6 24.2 119.9 32.5 124 C 36.4 126 41.199609 126 45.099609 124 C 47.399609 122.9 50.100391 122.80039 52.400391 123.90039 L 55.199219 125.30078 C 57.199219 126.30078 59.3 126.80078 61.5 126.80078 L 97 126.80078 L 109 126.80078 L 111.90039 126.80078 C 113.40039 126.80078 114.7 125.80039 115 124.40039 C 115.3 122.70039 113.9 121 112 121 L 112 59 C 112 38 95 21 74 21 L 54 21 z M 42 44 A 3 3 0 0 0 39 47 A 3 3 0 0 0 42 50 A 3 3 0 0 0 45 47 A 3 3 0 0 0 42 44 z M 54 54 C 52.3 54 51 55.3 51 57 L 51 64 L 44 64 C 42.3 64 41 65.3 41 67 C 41 68.7 42.3 70 44 70 L 51 70 L 51 87 C 51 88.7 52.3 90 54 90 C 55.7 90 57 88.7 57 87 L 57 70 L 64 70 C 65.7 70 67 68.7 67 67 C 67 65.3 65.7 64 64 64 L 57 64 L 57 57 C 57 55.3 55.7 54 54 54 z M 72 89 A 3 3 0 0 0 69 92 A 3 3 0 0 0 72 95 A 3 3 0 0 0 75 92 A 3 3 0 0 0 72 89 z M 99 106 C 100.7 106 102 107.3 102 109 C 102 110.7 100.7 112 99 112 C 97.3 112 96 110.7 96 109 C 96 107.3 97.3 106 99 106 z M 42 109 A 3 3 0 0 0 39 112 A 3 3 0 0 0 42 115 A 3 3 0 0 0 45 112 A 3 3 0 0 0 42 109 z M 124 121 A 3 3 0 0 0 121 124 A 3 3 0 0 0 124 127 A 3 3 0 0 0 127 124 A 3 3 0 0 0 124 121 z"/></svg>