<svg xmlns="http://www.w3.org/2000/svg" width="512" height="512" viewBox="0 0 512 512"><path fill="#FABC3D" d="M256,504.1C119,504.1,7.9,393,7.9,256C7.9,119,119,7.9,256,7.9C393,7.9,504.1,119,504.1,256C504.1,393,393,504.1,256,504.1z"/><path fill="#FFF" d="M244.9 370.2L153 261.4c-2.5-4.1-2.6-9.5-.3-13.6 2.4-4.3 6.9-6.9 11.8-6.9h182.9c4.9 0 9.4 2.6 11.8 6.9 1.1 2 1.7 4.3 1.7 6.6 0 2.5-.7 4.9-2 7l-91.1 108.9c-2.4 4-6.8 6.5-11.5 6.5S247.3 374.2 244.9 370.2zM147 207.4v-51.5c0-4.7 3.8-8.6 8.6-8.6h200.9c4.7 0 8.6 3.8 8.6 8.6v51.5c0 4.7-3.8 8.6-8.6 8.6H155.6C150.8 216 147 212.2 147 207.4z"/></svg>