<svg xmlns="http://www.w3.org/2000/svg" viewBox="0 0 100 100"><path fill="#fff" d="M71.546 21.433h-10.03c-.276 0-.5-.224-.5-.5s.224-.5.5-.5h10.03c.276 0 .5.224.5.5S71.823 21.433 71.546 21.433zM74.428 21.433h-1.446c-.276 0-.5-.224-.5-.5s.224-.5.5-.5h1.446c.276 0 .5.224.5.5S74.704 21.433 74.428 21.433zM78.482 21.433h-2.546c-.276 0-.5-.224-.5-.5s.224-.5.5-.5h2.546c.276 0 .5.224.5.5S78.759 21.433 78.482 21.433zM76.456 17.704H66.84c-.276 0-.5-.224-.5-.5s.224-.5.5-.5h9.617c.276 0 .5.224.5.5S76.733 17.704 76.456 17.704zM65.108 17.704h-.58c-.276 0-.5-.224-.5-.5s.224-.5.5-.5h.58c.276 0 .5.224.5.5S65.385 17.704 65.108 17.704zM62.731 17.704h-1.456c-.276 0-.5-.224-.5-.5s.224-.5.5-.5h1.456c.276 0 .5.224.5.5S63.008 17.704 62.731 17.704zM73.893 19.568h-5.028c-.276 0-.5-.224-.5-.5s.224-.5.5-.5h5.028c.276 0 .5.224.5.5S74.17 19.568 73.893 19.568z"/><path fill="#fff" d="M73.893 17.704h-1.257c-.276 0-.5-.224-.5-.5s.224-.5.5-.5h1.257c.276 0 .5.224.5.5S74.17 17.704 73.893 17.704zM67.411 19.568h-1.759c-.276 0-.5-.224-.5-.5s.224-.5.5-.5h1.759c.276 0 .5.224.5.5S67.687 19.568 67.411 19.568z"/><path fill="#c7ede6" d="M88.704,55.674c0.3-0.616,0.566-1.264,0.796-1.943c2.633-7.77-1.349-17.078-9.733-19.325C78.86,23.023,70.86,15.214,61.826,13.881c-10.341-1.525-19.814,5.044-22.966,15.485c-3.799-1.346-7.501-1.182-10.99,0.857c-1.583,0.732-3.031,1.812-4.33,3.233c-1.907,2.086-3.147,4.719-3.652,7.495c-0.748,0.118-1.483,0.236-2.176,0.484c-4.04,1.449-6.589,4.431-7.288,8.923c-0.435,2.797,0.443,5.587,0.933,6.714c1.935,4.455,6.422,6.98,10.981,6.312c0.227-0.033,0.557,0.069,0.752,0.233c0.241,7.12,3.698,13.417,8.884,17.014c8.321,5.772,19.027,3.994,25.781-3.921c2.894,2.96,6.338,4.398,10.384,3.876c4.023-0.519,7.147-2.739,9.426-6.349c1.053,0.283,2.051,0.691,3.083,0.804c4.042,0.442,7.324-1.165,9.732-4.8c0.922-1.391,1.793-3.194,1.793-6.354C92.174,60.631,90.881,57.664,88.704,55.674z"/><path fill="#fdfcef" d="M71.968,56.843c0,0,11.691,0,11.762,0c2.7,0,4.888-2.189,4.888-4.889c0-2.355-1.666-4.321-3.884-4.784c0.026-0.206,0.043-0.415,0.043-0.628c0-2.796-2.267-5.063-5.063-5.063c-1.651,0-3.113,0.794-4.037,2.017c-0.236-3.113-3.017-5.514-6.27-5.116c-2.379,0.291-4.346,2.13-4.784,4.486c-0.14,0.756-0.126,1.489,0.014,2.177c-0.638-0.687-1.546-1.119-2.557-1.119c-1.85,0-3.361,1.441-3.48,3.261c-0.84-0.186-1.754-0.174-2.717,0.188c-1.84,0.691-3.15,2.423-3.227,4.387c-0.109,2.789,2.12,5.085,4.885,5.085c0.21,0,0.948,0,1.118,0h10.151"/><path fill="#472b29" d="M83.73,57.343H71.968c-0.276,0-0.5-0.224-0.5-0.5s0.224-0.5,0.5-0.5H83.73c2.419,0,4.388-1.969,4.388-4.389c0-2.066-1.466-3.872-3.486-4.295c-0.254-0.053-0.425-0.292-0.394-0.551c0.023-0.186,0.039-0.374,0.039-0.566c0-2.517-2.047-4.563-4.563-4.563c-1.438,0-2.765,0.663-3.638,1.818c-0.125,0.166-0.338,0.237-0.54,0.178c-0.199-0.059-0.342-0.234-0.357-0.441c-0.104-1.377-0.779-2.671-1.85-3.549c-1.082-0.888-2.458-1.282-3.86-1.109c-2.166,0.266-3.956,1.943-4.353,4.081c-0.125,0.668-0.12,1.336,0.012,1.986c0.045,0.22-0.062,0.441-0.261,0.544c-0.199,0.105-0.443,0.06-0.595-0.104c-0.575-0.618-1.353-0.959-2.19-0.959c-1.569,0-2.878,1.227-2.981,2.793c-0.01,0.146-0.082,0.28-0.199,0.367c-0.117,0.088-0.268,0.119-0.408,0.089c-0.84-0.185-1.637-0.131-2.433,0.167c-1.669,0.628-2.836,2.211-2.903,3.939c-0.047,1.207,0.387,2.35,1.222,3.218s1.958,1.347,3.164,1.347h11.269c0.276,0,0.5,0.224,0.5,0.5s-0.224,0.5-0.5,0.5H57.542c-1.479,0-2.859-0.587-3.885-1.653c-1.025-1.066-1.558-2.469-1.5-3.95c0.083-2.126,1.51-4.069,3.551-4.836c0.8-0.3,1.628-0.398,2.468-0.299c0.376-1.822,1.997-3.182,3.905-3.182c0.684,0,1.354,0.18,1.944,0.51c0-0.386,0.035-0.772,0.107-1.159c0.476-2.562,2.62-4.573,5.215-4.891c1.679-0.206,3.32,0.266,4.616,1.328c1.003,0.823,1.716,1.951,2.038,3.193c1.012-0.916,2.319-1.426,3.714-1.426c3.067,0,5.563,2.496,5.563,5.563c0,0.083-0.002,0.166-0.007,0.248c2.254,0.674,3.848,2.777,3.848,5.164C89.118,54.926,86.701,57.343,83.73,57.343z"/><path fill="#fdfcef" d="M69.135,46.075c-1.808-0.119-3.365,1.13-3.476,2.789c-0.014,0.206-0.005,0.409,0.025,0.606c-0.349-0.394-0.865-0.661-1.458-0.7c-1.085-0.071-2.022,0.645-2.158,1.62c-0.197-0.054-0.403-0.09-0.616-0.104c-1.582-0.104-2.944,0.989-3.042,2.441"/><path fill="#472b29" d="M58.411,52.976c-0.006,0-0.012,0-0.017-0.001c-0.138-0.009-0.242-0.128-0.233-0.266c0.107-1.587,1.589-2.786,3.307-2.674c0.137,0.009,0.273,0.026,0.409,0.053c0.273-0.968,1.261-1.646,2.366-1.567c0.425,0.027,0.823,0.16,1.163,0.382c0-0.019,0.002-0.037,0.003-0.056c0.121-1.795,1.792-3.162,3.743-3.021c0.138,0.009,0.242,0.128,0.233,0.266c-0.009,0.137-0.117,0.254-0.266,0.232c-1.658-0.116-3.109,1.036-3.21,2.557c-0.012,0.185-0.004,0.37,0.023,0.552c0.017,0.109-0.041,0.218-0.141,0.265c-0.098,0.046-0.22,0.023-0.293-0.061c-0.322-0.364-0.779-0.583-1.288-0.617c-0.937-0.041-1.775,0.555-1.894,1.404c-0.01,0.071-0.05,0.135-0.11,0.175c-0.061,0.04-0.133,0.052-0.204,0.032c-0.187-0.051-0.377-0.083-0.568-0.097c-1.436-0.095-2.687,0.896-2.775,2.209C58.651,52.875,58.541,52.976,58.411,52.976z"/><path fill="#fdfcef" d="M85.709,47.743c-1.699-0.801-3.664-0.234-4.389,1.267c-0.09,0.186-0.157,0.379-0.201,0.574"/><path fill="#472b29" d="M81.12,49.834c-0.018,0-0.037-0.002-0.056-0.006c-0.134-0.031-0.219-0.165-0.188-0.3c0.049-0.215,0.123-0.426,0.219-0.626c0.783-1.621,2.899-2.242,4.721-1.385c0.125,0.06,0.178,0.208,0.119,0.333c-0.059,0.126-0.209,0.176-0.333,0.12c-1.572-0.743-3.393-0.228-4.057,1.148c-0.08,0.167-0.142,0.342-0.182,0.521C81.337,49.755,81.234,49.834,81.12,49.834z"/><path fill="#fff" d="M18.369 47.711H8.338c-.276 0-.5-.224-.5-.5s.224-.5.5-.5h10.03c.276 0 .5.224.5.5S18.645 47.711 18.369 47.711zM21.249 47.711h-1.446c-.276 0-.5-.224-.5-.5s.224-.5.5-.5h1.446c.276 0 .5.224.5.5S21.526 47.711 21.249 47.711zM25.304 47.711h-2.546c-.276 0-.5-.224-.5-.5s.224-.5.5-.5h2.546c.276 0 .5.224.5.5S25.58 47.711 25.304 47.711zM25.304 49.575h-9.616c-.276 0-.5-.224-.5-.5s.224-.5.5-.5h9.616c.276 0 .5.224.5.5S25.58 49.575 25.304 49.575zM13.956 49.575h-.58c-.276 0-.5-.224-.5-.5s.224-.5.5-.5h.58c.276 0 .5.224.5.5S14.233 49.575 13.956 49.575zM11.58 49.575h-1.456c-.276 0-.5-.224-.5-.5s.224-.5.5-.5h1.456c.276 0 .5.224.5.5S11.856 49.575 11.58 49.575zM20.715 45.845h-5.027c-.276 0-.5-.224-.5-.5s.224-.5.5-.5h5.027c.276 0 .5.224.5.5S20.992 45.845 20.715 45.845zM20.715 43.98h-1.257c-.276 0-.5-.224-.5-.5s.224-.5.5-.5h1.257c.276 0 .5.224.5.5S20.992 43.98 20.715 43.98zM17.447 51.44h-1.759c-.276 0-.5-.224-.5-.5s.224-.5.5-.5h1.759c.276 0 .5.224.5.5S17.723 51.44 17.447 51.44z"/><path fill="#edf7f5" d="M69.147,31.342l2.491-0.038c0.142-5.083-5.983-4.773-5.983-4.773l-30.167-0.004c-2.314,0-4.227,2.526-4.227,4.593v26.08l-5.998-0.017c-0.005,0.217,0.003,12.478,0.022,12.673c0.392,4.033,5.651,3.582,5.651,3.582l35.105,0.025c1.892,0.176,3.107-2.082,3.107-3.336S69.147,31.342,69.147,31.342"/><path fill="#472b29" d="M30.753,71.752c-0.387,0-0.7-0.313-0.7-0.7s0.313-0.7,0.7-0.7c0.127,0,0.162-0.036,0.182-0.058c0.126-0.136,0.26-0.523,0.18-1.599l0.047-37.575c0-2.396,2.198-5.292,4.927-5.292l30.167,0.003c0.102-0.007,3.354-0.147,5.294,1.75c0.964,0.943,1.432,2.202,1.388,3.743c-0.011,0.379-0.32,0.68-0.699,0.681l-22.938,0.038h-0.001c-0.386,0-0.699-0.312-0.7-0.699c0-0.387,0.312-0.7,0.699-0.701l22.214-0.037c-0.089-0.825-0.399-1.49-0.938-2.02c-1.498-1.47-4.256-1.354-4.285-1.355l-30.202-0.002c-1.866,0-3.527,2.177-3.527,3.893l-0.049,37.523c0.068,0.892,0.057,1.945-0.553,2.602C31.654,71.577,31.236,71.752,30.753,71.752z"/><path fill="#472b29" d="M66.855 74.148c-.091 0-.182-.005-.274-.013l-34.987-.022c-1.999.167-5.975-.479-6.338-4.205-.027-.272-.027-12.621-.025-12.723.008-.381.319-.685.7-.685 0 0 .001 0 .001 0l5.331.017c.387.001.699.315.698.702-.001.386-.314.698-.7.698 0 0-.001 0-.001 0l-4.629-.015c0 2.569.005 11.489.021 11.898.318 3.252 4.698 2.93 4.884 2.914l35.111.022c.524.047.963-.119 1.368-.488.647-.59 1.034-1.551 1.034-2.139V31.342c0-.387.313-.7.7-.7s.7.313.7.7v38.769c0 1.068-.613 2.374-1.491 3.174C68.334 73.852 67.612 74.148 66.855 74.148zM46.295 32.043h-3.007c-.387 0-.7-.313-.7-.7s.313-.7.7-.7h3.007c.387 0 .7.313.7.7S46.682 32.043 46.295 32.043zM45.994 40.437H35.17c-.207 0-.375-.168-.375-.375s.168-.375.375-.375h10.824c.207 0 .375.168.375.375S46.201 40.437 45.994 40.437z"/><path fill="#472b29" d="M67.643 40.437H47.798c-.207 0-.375-.168-.375-.375s.168-.375.375-.375h19.845c.207 0 .375.168.375.375S67.851 40.437 67.643 40.437zM67.643 46.451H49.001c-.207 0-.375-.168-.375-.375s.168-.375.375-.375h18.643c.207 0 .375.168.375.375S67.851 46.451 67.643 46.451zM67.643 50.66H49.001c-.207 0-.375-.168-.375-.375s.168-.375.375-.375h18.643c.207 0 .375.168.375.375S67.851 50.66 67.643 50.66z"/><path fill="#a8dbdb" d="M45.393 46.677L45.393 54.495 35.17 54.495 35.17 44.873 43.589 44.873"/><path fill="#472b29" d="M45.393 54.87H35.17c-.207 0-.375-.168-.375-.375v-9.622c0-.207.168-.375.375-.375h8.419c.207 0 .375.168.375.375s-.168.375-.375.375h-8.044v8.872h9.473v-7.442c0-.207.168-.375.375-.375s.375.168.375.375v7.817C45.768 54.702 45.6 54.87 45.393 54.87zM67.643 54.87H49.001c-.207 0-.375-.168-.375-.375s.168-.375.375-.375h18.643c.207 0 .375.168.375.375S67.851 54.87 67.643 54.87zM59.225 36.829h-8.419c-.207 0-.375-.168-.375-.375s.168-.375.375-.375h8.419c.207 0 .375.168.375.375S59.432 36.829 59.225 36.829zM67.643 36.829h-6.615c-.207 0-.375-.168-.375-.375s.168-.375.375-.375h6.615c.207 0 .375.168.375.375S67.851 36.829 67.643 36.829zM49.001 36.829H35.17c-.207 0-.375-.168-.375-.375s.168-.375.375-.375h13.831c.207 0 .375.168.375.375S49.208 36.829 49.001 36.829zM53.812 68.1H35.17c-.207 0-.375-.168-.375-.375s.168-.375.375-.375h18.642c.207 0 .375.168.375.375S54.019 68.1 53.812 68.1zM53.812 63.89H35.17c-.207 0-.375-.168-.375-.375s.168-.375.375-.375h18.642c.207 0 .375.168.375.375S54.019 63.89 53.812 63.89z"/><path fill="#a8dbdb" d="M56.819 67.725L56.819 59.306 67.042 59.306 67.042 68.928 59.224 68.928"/><path fill="#472b29" d="M67.042 69.302h-7.817c-.207 0-.375-.168-.375-.375s.168-.375.375-.375h7.442V59.68h-9.473v8.045c0 .207-.168.375-.375.375s-.375-.168-.375-.375v-8.42c0-.207.168-.375.375-.375h10.223c.207 0 .375.168.375.375v9.622C67.417 69.134 67.249 69.302 67.042 69.302zM53.812 59.68H35.17c-.207 0-.375-.168-.375-.375s.168-.375.375-.375h18.642c.207 0 .375.168.375.375S54.019 59.68 53.812 59.68zM38.796 47.927c-.038 0-.075-.017-.1-.049-.042-.056-.031-.134.024-.176l3.851-2.93c.055-.04.133-.031.175.023.042.056.031.134-.024.176l-3.851 2.93C38.85 47.919 38.823 47.927 38.796 47.927z"/><path fill="#472b29" d="M38.796 47.927c-.038 0-.075-.017-.1-.049-.042-.056-.031-.134.024-.176l3.851-2.93c.055-.04.133-.031.175.023.042.056.031.134-.024.176l-3.851 2.93C38.85 47.919 38.823 47.927 38.796 47.927zM41.187 49.487c-.038 0-.075-.017-.1-.05-.042-.055-.031-.133.024-.175l3.851-2.929c.055-.041.133-.032.175.024.042.055.031.133-.024.175l-3.851 2.929C41.24 49.478 41.213 49.487 41.187 49.487zM40.281 48.544c-.038 0-.075-.017-.1-.05-.042-.055-.031-.133.024-.175l3.851-2.929c.054-.04.132-.032.175.024.042.055.031.133-.024.175l-3.851 2.929C40.334 48.535 40.308 48.544 40.281 48.544zM41.542 50.797c-.038 0-.075-.017-.1-.05-.042-.055-.031-.133.024-.175l3.851-2.929c.055-.04.133-.032.175.024.042.055.031.133-.024.175l-3.851 2.929C41.595 50.789 41.568 50.797 41.542 50.797zM41.39 52.646c-.038 0-.075-.017-.1-.049-.042-.056-.031-.134.024-.176l3.851-2.93c.054-.041.133-.032.175.023.042.056.031.134-.024.176l-3.851 2.93C41.443 52.637 41.416 52.646 41.39 52.646zM36.556 47.927c-.038 0-.075-.017-.1-.049-.042-.056-.031-.134.024-.176l3.851-2.93c.054-.04.133-.031.175.023.042.056.031.134-.024.176l-3.851 2.93C36.609 47.919 36.582 47.927 36.556 47.927zM41.443 54.353c-.038 0-.075-.017-.1-.05-.042-.055-.031-.133.024-.175l3.851-2.929c.055-.041.133-.032.175.024.042.055.031.133-.024.175l-3.851 2.929C41.496 54.344 41.469 54.353 41.443 54.353zM58.37 63.9c-.038 0-.075-.017-.1-.05-.042-.055-.031-.133.024-.175l5.7-4.336c.055-.04.133-.032.175.024.042.055.031.133-.024.175l-5.7 4.336C58.423 63.891 58.396 63.9 58.37 63.9zM62.609 64.053c-.037 0-.073-.016-.098-.047-.043-.054-.034-.133.02-.176l4.282-3.415c.055-.043.133-.035.176.02.043.054.034.133-.02.176l-4.282 3.415C62.664 64.045 62.637 64.053 62.609 64.053zM60.216 64.242c-.038 0-.075-.017-.1-.05-.042-.055-.031-.133.024-.175l6.024-4.582c.054-.04.133-.031.175.024.042.055.031.133-.024.175l-6.024 4.582C60.269 64.233 60.242 64.242 60.216 64.242zM62.964 65.364c-.037 0-.073-.017-.098-.048-.042-.054-.034-.132.021-.175l4.078-3.229c.054-.043.133-.034.176.021.042.054.034.132-.021.175l-4.078 3.229C63.019 65.355 62.992 65.364 62.964 65.364zM62.812 67.212c-.038 0-.075-.017-.1-.05-.042-.055-.031-.133.024-.175l4.229-3.217c.055-.041.133-.032.175.024.042.055.031.133-.024.175l-4.229 3.217C62.866 67.203 62.839 67.212 62.812 67.212zM57.036 63.21c-.038 0-.075-.017-.1-.05-.042-.055-.031-.133.024-.175l4.793-3.646c.054-.04.133-.032.175.024.042.055.031.133-.024.175l-4.793 3.646C57.089 63.201 57.062 63.21 57.036 63.21zM62.866 68.92c-.038 0-.075-.017-.1-.049-.042-.056-.031-.134.024-.176l3.851-2.93c.054-.04.133-.032.175.023.042.056.031.134-.024.176l-3.851 2.93C62.919 68.911 62.892 68.92 62.866 68.92zM56.681 61.732c-.038 0-.075-.017-.1-.05-.042-.055-.031-.133.024-.175l3.123-2.375c.054-.041.133-.032.175.024.042.055.031.133-.024.175l-3.123 2.375C56.734 61.723 56.707 61.732 56.681 61.732z"/><g><path fill="#fdfcef" d="M38.997,74.99c1.883,0,3.517,0,3.54,0c2.11,0,3.821-1.674,3.821-3.739c0-1.802-1.302-3.305-3.035-3.66c0.02-0.158,0.034-0.317,0.034-0.48c0-2.139-1.772-3.873-3.957-3.873c-1.29,0-2.433,0.607-3.155,1.543c-0.185-2.381-2.358-4.218-4.9-3.913c-1.859,0.223-3.397,1.629-3.739,3.431c-0.11,0.578-0.098,1.139,0.011,1.665c-0.498-0.525-1.208-0.856-1.998-0.856c-1.446,0-2.627,1.102-2.72,2.494c-0.657-0.142-1.371-0.133-2.123,0.143c-1.438,0.528-2.462,1.853-2.522,3.356c-0.085,2.133,1.657,3.889,3.818,3.889c0.164,0,0.741,0,0.874,0h7.934 M32.52,74.99h0.36"/><path fill="#472b29" d="M42.538,75.49h-3.541c-0.276,0-0.5-0.224-0.5-0.5s0.224-0.5,0.5-0.5h3.541c1.831,0,3.32-1.453,3.32-3.239c0-1.524-1.108-2.857-2.635-3.169c-0.256-0.053-0.429-0.294-0.396-0.553c0.018-0.138,0.029-0.276,0.029-0.418c0-1.86-1.551-3.373-3.457-3.373c-1.092,0-2.098,0.491-2.759,1.349c-0.127,0.164-0.341,0.231-0.539,0.174c-0.198-0.06-0.339-0.234-0.355-0.44c-0.079-1.02-0.565-1.944-1.37-2.604c-0.829-0.68-1.881-0.98-2.973-0.854c-1.646,0.197-3.005,1.442-3.307,3.029c-0.094,0.494-0.09,0.988,0.01,1.47c0.045,0.219-0.06,0.441-0.258,0.545c-0.198,0.102-0.44,0.063-0.595-0.1c-0.428-0.451-1.009-0.699-1.635-0.699c-1.169,0-2.145,0.891-2.221,2.027c-0.01,0.146-0.082,0.279-0.198,0.366s-0.264,0.12-0.407,0.089c-0.639-0.138-1.241-0.098-1.845,0.125c-1.262,0.463-2.144,1.631-2.195,2.905c-0.035,0.875,0.283,1.708,0.895,2.345c0.635,0.66,1.496,1.024,2.423,1.024h8.808c0.276,0,0.5,0.224,0.5,0.5s-0.224,0.5-0.5,0.5H22.07c-1.185,0-2.331-0.485-3.145-1.332c-0.802-0.835-1.218-1.928-1.172-3.076c0.066-1.675,1.211-3.203,2.849-3.806c0.611-0.224,1.241-0.31,1.88-0.244c0.344-1.396,1.629-2.424,3.136-2.424c0.493,0,0.977,0.113,1.414,0.322c0.009-0.241,0.036-0.483,0.082-0.725c0.381-2.01,2.097-3.587,4.17-3.835c1.361-0.167,2.685,0.218,3.726,1.072c0.748,0.613,1.278,1.409,1.546,2.302c0.791-0.648,1.786-1.007,2.843-1.007c2.458,0,4.457,1.962,4.457,4.373c0,0.034,0,0.068-0.001,0.103c1.764,0.555,3.003,2.188,3.003,4.037C46.858,73.588,44.92,75.49,42.538,75.49z M32.879,75.49H32.52c-0.276,0-0.5-0.224-0.5-0.5s0.224-0.5,0.5-0.5h0.359c0.276,0,0.5,0.224,0.5,0.5S33.156,75.49,32.879,75.49z"/><path fill="#472b29" d="M40.83,69.687c-0.018,0-0.037-0.002-0.055-0.006c-0.135-0.031-0.219-0.165-0.188-0.3c0.038-0.166,0.095-0.327,0.169-0.479c0.605-1.224,2.275-1.674,3.722-1.006c0.125,0.058,0.18,0.206,0.122,0.331c-0.058,0.126-0.206,0.179-0.332,0.122c-1.201-0.555-2.578-0.208-3.063,0.774c-0.058,0.116-0.101,0.239-0.13,0.368C41.047,69.608,40.944,69.687,40.83,69.687z"/><g><path fill="#472b29" d="M35.671,75.49h-1.107c-0.276,0-0.5-0.224-0.5-0.5s0.224-0.5,0.5-0.5h1.107c0.276,0,0.5,0.224,0.5,0.5S35.947,75.49,35.671,75.49z"/></g></g><g><path fill="#fdfcef" d="M80.609,77.972H56.663V56.298c0-1.435,1.174-2.609,2.609-2.609H78c1.435,0,2.609,1.174,2.609,2.609V77.972z"/><path fill="#472b29" d="M80.609,78.572H56.663c-0.332,0-0.6-0.269-0.6-0.6V56.297c0-1.77,1.439-3.208,3.209-3.208H78c1.77,0,3.209,1.438,3.209,3.208v21.675C81.209,78.303,80.941,78.572,80.609,78.572z M57.263,77.373h22.746V56.297c0-1.107-0.901-2.009-2.009-2.009H59.272c-1.108,0-2.009,0.901-2.009,2.009V77.373z"/><path fill="#ee3e54" d="M77.959,54.026l-18.573-0.011c-1.4,0-2.386,1.143-2.386,2.541v2.53h19.666h3.605v-2.53C80.272,55.158,79.36,54.026,77.959,54.026z"/><path fill="#472b29" d="M78.011 59.242h-.674c-.18 0-.325-.146-.325-.325s.146-.325.325-.325h.674c.18 0 .325.146.325.325S78.19 59.242 78.011 59.242zM76.056 59.242H56.831c-.18 0-.325-.146-.325-.325s.146-.325.325-.325h19.225c.18 0 .325.146.325.325S76.236 59.242 76.056 59.242z"/><path fill="#fdfcef" d="M59.867 56.048A0.675 0.675 0 1 0 59.867 57.397999999999996A0.675 0.675 0 1 0 59.867 56.048Z"/><path fill="#472b29" d="M59.867,57.722c-0.551,0-1-0.448-1-1c0-0.551,0.449-0.999,1-0.999c0.551,0,1,0.448,1,0.999C60.867,57.274,60.418,57.722,59.867,57.722z M59.867,56.374c-0.193,0-0.35,0.156-0.35,0.349c0,0.193,0.157,0.35,0.35,0.35c0.192,0,0.349-0.156,0.349-0.35C60.216,56.53,60.06,56.374,59.867,56.374z"/><path fill="#fdfcef" d="M77.405 56.048A0.675 0.675 0 1 0 77.405 57.397999999999996A0.675 0.675 0 1 0 77.405 56.048Z"/><path fill="#472b29" d="M77.405,57.722c-0.551,0-1-0.448-1-1c0-0.551,0.449-0.999,1-0.999c0.551,0,1,0.448,1,0.999C78.405,57.274,77.956,57.722,77.405,57.722z M77.405,56.374c-0.193,0-0.35,0.156-0.35,0.349c0,0.193,0.157,0.35,0.35,0.35c0.192,0,0.349-0.156,0.349-0.35C77.754,56.53,77.598,56.374,77.405,56.374z"/><g><path fill="#472b29" d="M76.899 55.026c-.18 0-.325-.146-.325-.325v-2.023c0-.18.146-.325.325-.325s.325.146.325.325v2.023C77.225 54.88 77.079 55.026 76.899 55.026zM74.539 55.026c-.18 0-.325-.146-.325-.325v-2.023c0-.18.146-.325.325-.325s.325.146.325.325v2.023C74.864 54.88 74.718 55.026 74.539 55.026zM72.177 55.026c-.18 0-.325-.146-.325-.325v-2.023c0-.18.146-.325.325-.325s.325.146.325.325v2.023C72.502 54.88 72.357 55.026 72.177 55.026zM69.816 55.026c-.18 0-.325-.146-.325-.325v-2.023c0-.18.146-.325.325-.325s.325.146.325.325v2.023C70.142 54.88 69.996 55.026 69.816 55.026zM67.455 55.026c-.18 0-.325-.146-.325-.325v-2.023c0-.18.146-.325.325-.325s.325.146.325.325v2.023C67.781 54.88 67.635 55.026 67.455 55.026zM65.095 55.026c-.18 0-.325-.146-.325-.325v-2.023c0-.18.146-.325.325-.325s.325.146.325.325v2.023C65.42 54.88 65.274 55.026 65.095 55.026zM62.734 55.026c-.18 0-.325-.146-.325-.325v-2.023c0-.18.146-.325.325-.325s.325.146.325.325v2.023C63.059 54.88 62.914 55.026 62.734 55.026zM60.373 55.026c-.18 0-.325-.146-.325-.325v-2.023c0-.18.146-.325.325-.325s.325.146.325.325v2.023C60.698 54.88 60.553 55.026 60.373 55.026z"/></g><g><path fill="#472b29" d="M80.44,59.242h-1.349c-0.18,0-0.325-0.146-0.325-0.325s0.146-0.325,0.325-0.325h1.349c0.18,0,0.325,0.146,0.325,0.325S80.62,59.242,80.44,59.242z"/></g><g><path fill="#f6cca4" d="M63.914 62.289L64.589 62.289 64.589 64.313 62.565 64.313 62.565 63.301"/><path fill="#472b29" d="M64.589,64.563h-2.023c-0.138,0-0.25-0.112-0.25-0.25v-1.012c0-0.138,0.112-0.25,0.25-0.25s0.25,0.112,0.25,0.25v0.762h1.523V62.54h-0.425c-0.138,0-0.25-0.112-0.25-0.25s0.112-0.25,0.25-0.25h0.675c0.138,0,0.25,0.112,0.25,0.25v2.023C64.839,64.451,64.727,64.563,64.589,64.563z"/><path fill="#f6cca4" d="M65.938 62.289H67.962V64.313H65.938z"/><path fill="#472b29" d="M67.961,64.563h-2.023c-0.138,0-0.25-0.112-0.25-0.25V62.29c0-0.138,0.112-0.25,0.25-0.25h2.023c0.138,0,0.25,0.112,0.25,0.25v2.023C68.211,64.451,68.1,64.563,67.961,64.563z M66.188,64.063h1.523V62.54h-1.523V64.063z"/><path fill="#f6cca4" d="M69.311 62.289H71.33500000000001V64.313H69.311z"/><path fill="#472b29" d="M71.334,64.563H69.31c-0.138,0-0.25-0.112-0.25-0.25V62.29c0-0.138,0.112-0.25,0.25-0.25h2.024c0.138,0,0.25,0.112,0.25,0.25v2.023C71.584,64.451,71.473,64.563,71.334,64.563z M69.56,64.063h1.524V62.54H69.56V64.063z"/><path fill="#f6cca4" d="M72.683 62.289H74.70700000000001V64.313H72.683z"/><path fill="#472b29" d="M74.707,64.563h-2.024c-0.138,0-0.25-0.112-0.25-0.25V62.29c0-0.138,0.112-0.25,0.25-0.25h2.024c0.138,0,0.25,0.112,0.25,0.25v2.023C74.957,64.451,74.845,64.563,74.707,64.563z M72.933,64.063h1.524V62.54h-1.524V64.063z"/><g><path fill="#f6cca4" d="M76.056 62.289H78.08V64.313H76.056z"/><path fill="#472b29" d="M78.08,64.563h-2.023c-0.138,0-0.25-0.112-0.25-0.25V62.29c0-0.138,0.112-0.25,0.25-0.25h2.023c0.138,0,0.25,0.112,0.25,0.25v2.023C78.33,64.451,78.218,64.563,78.08,64.563z M76.306,64.063h1.523V62.54h-1.523V64.063z"/></g><g><path fill="#f6cca4" d="M62.565 65.662H64.589V67.686H62.565z"/><path fill="#472b29" d="M64.589,67.935h-2.023c-0.138,0-0.25-0.112-0.25-0.25v-2.023c0-0.138,0.112-0.25,0.25-0.25h2.023c0.138,0,0.25,0.112,0.25,0.25v2.023C64.839,67.823,64.727,67.935,64.589,67.935z M62.815,67.435h1.523v-1.523h-1.523V67.435z"/><path fill="#f6cca4" d="M65.938 65.662H67.962V67.686H65.938z"/><path fill="#472b29" d="M67.961,67.935h-2.023c-0.138,0-0.25-0.112-0.25-0.25v-2.023c0-0.138,0.112-0.25,0.25-0.25h2.023c0.138,0,0.25,0.112,0.25,0.25v2.023C68.211,67.823,68.1,67.935,67.961,67.935z M66.188,67.435h1.523v-1.523h-1.523V67.435z"/><path fill="#f6cca4" d="M69.311 65.662H71.33500000000001V67.686H69.311z"/><path fill="#472b29" d="M71.334,67.935H69.31c-0.138,0-0.25-0.112-0.25-0.25v-2.023c0-0.138,0.112-0.25,0.25-0.25h2.024c0.138,0,0.25,0.112,0.25,0.25v2.023C71.584,67.823,71.473,67.935,71.334,67.935z M69.56,67.435h1.524v-1.523H69.56V67.435z"/><g><path fill="#f6cca4" d="M72.683 65.662H74.70700000000001V67.686H72.683z"/><path fill="#472b29" d="M74.707,67.935h-2.024c-0.138,0-0.25-0.112-0.25-0.25v-2.023c0-0.138,0.112-0.25,0.25-0.25h2.024c0.138,0,0.25,0.112,0.25,0.25v2.023C74.957,67.823,74.845,67.935,74.707,67.935z M72.933,67.435h1.524v-1.523h-1.524V67.435z"/></g><g><path fill="#f6cca4" d="M76.056 65.662H78.08V67.686H76.056z"/><path fill="#472b29" d="M78.08,67.935h-2.023c-0.138,0-0.25-0.112-0.25-0.25v-2.023c0-0.138,0.112-0.25,0.25-0.25h2.023c0.138,0,0.25,0.112,0.25,0.25v2.023C78.33,67.823,78.218,67.935,78.08,67.935z M76.306,67.435h1.523v-1.523h-1.523V67.435z"/></g><g><path fill="#f6cca4" d="M59.192 65.662H61.216V67.686H59.192z"/><path fill="#472b29" d="M61.216,67.935h-2.024c-0.138,0-0.25-0.112-0.25-0.25v-2.023c0-0.138,0.112-0.25,0.25-0.25h2.024c0.138,0,0.25,0.112,0.25,0.25v2.023C61.466,67.823,61.354,67.935,61.216,67.935z M59.442,67.435h1.524v-1.523h-1.524V67.435z"/></g></g><g><path fill="#f6cca4" d="M62.565 69.035H64.589V71.059H62.565z"/><path fill="#472b29" d="M64.589,71.308h-2.023c-0.138,0-0.25-0.112-0.25-0.25v-2.023c0-0.138,0.112-0.25,0.25-0.25h2.023c0.138,0,0.25,0.112,0.25,0.25v2.023C64.839,71.196,64.727,71.308,64.589,71.308z M62.815,70.808h1.523v-1.523h-1.523V70.808z"/><path fill="#f6cca4" d="M65.938 69.035H67.962V71.059H65.938z"/><path fill="#472b29" d="M67.961,71.308h-2.023c-0.138,0-0.25-0.112-0.25-0.25v-2.023c0-0.138,0.112-0.25,0.25-0.25h2.023c0.138,0,0.25,0.112,0.25,0.25v2.023C68.211,71.196,68.1,71.308,67.961,71.308z M66.188,70.808h1.523v-1.523h-1.523V70.808z"/><path fill="#f6cca4" d="M69.311 69.035H71.33500000000001V71.059H69.311z"/><path fill="#472b29" d="M71.334,71.308H69.31c-0.138,0-0.25-0.112-0.25-0.25v-2.023c0-0.138,0.112-0.25,0.25-0.25h2.024c0.138,0,0.25,0.112,0.25,0.25v2.023C71.584,71.196,71.473,71.308,71.334,71.308z M69.56,70.808h1.524v-1.523H69.56V70.808z"/><g><path fill="#f6cca4" d="M72.683 69.035H74.70700000000001V71.059H72.683z"/><path fill="#472b29" d="M74.707,71.308h-2.024c-0.138,0-0.25-0.112-0.25-0.25v-2.023c0-0.138,0.112-0.25,0.25-0.25h2.024c0.138,0,0.25,0.112,0.25,0.25v2.023C74.957,71.196,74.845,71.308,74.707,71.308z M72.933,70.808h1.524v-1.523h-1.524V70.808z"/></g><g><path fill="#f6cca4" d="M76.056 69.035H78.08V71.059H76.056z"/><path fill="#472b29" d="M78.08,71.308h-2.023c-0.138,0-0.25-0.112-0.25-0.25v-2.023c0-0.138,0.112-0.25,0.25-0.25h2.023c0.138,0,0.25,0.112,0.25,0.25v2.023C78.33,71.196,78.218,71.308,78.08,71.308z M76.306,70.808h1.523v-1.523h-1.523V70.808z"/></g><g><path fill="#f6cca4" d="M59.192 69.035H61.216V71.059H59.192z"/><path fill="#472b29" d="M61.216,71.308h-2.024c-0.138,0-0.25-0.112-0.25-0.25v-2.023c0-0.138,0.112-0.25,0.25-0.25h2.024c0.138,0,0.25,0.112,0.25,0.25v2.023C61.466,71.196,61.354,71.308,61.216,71.308z M59.442,70.808h1.524v-1.523h-1.524V70.808z"/></g></g><g><path fill="#f6cca4" d="M62.565 72.407H64.589V74.431H62.565z"/><path fill="#472b29" d="M64.589,74.681h-2.023c-0.138,0-0.25-0.112-0.25-0.25v-2.023c0-0.138,0.112-0.25,0.25-0.25h2.023c0.138,0,0.25,0.112,0.25,0.25v2.023C64.839,74.569,64.727,74.681,64.589,74.681z M62.815,74.181h1.523v-1.523h-1.523V74.181z"/><path fill="#f6cca4" d="M65.938 72.407H67.962V74.431H65.938z"/><path fill="#472b29" d="M67.961,74.681h-2.023c-0.138,0-0.25-0.112-0.25-0.25v-2.023c0-0.138,0.112-0.25,0.25-0.25h2.023c0.138,0,0.25,0.112,0.25,0.25v2.023C68.211,74.569,68.1,74.681,67.961,74.681z M66.188,74.181h1.523v-1.523h-1.523V74.181z"/><g><path fill="#f6cca4" d="M70.997 74.431L69.311 74.431 69.311 72.407 71.334 72.407 71.334 73.756"/><path fill="#472b29" d="M70.997,74.681H69.31c-0.138,0-0.25-0.112-0.25-0.25v-2.023c0-0.138,0.112-0.25,0.25-0.25h2.024c0.138,0,0.25,0.112,0.25,0.25v1.349c0,0.138-0.112,0.25-0.25,0.25s-0.25-0.112-0.25-0.25v-1.099H69.56v1.523h1.437c0.138,0,0.25,0.112,0.25,0.25S71.135,74.681,70.997,74.681z"/></g><g><path fill="#f6cca4" d="M59.192 72.407H61.216V74.431H59.192z"/><path fill="#472b29" d="M61.216,74.681h-2.024c-0.138,0-0.25-0.112-0.25-0.25v-2.023c0-0.138,0.112-0.25,0.25-0.25h2.024c0.138,0,0.25,0.112,0.25,0.25v2.023C61.466,74.569,61.354,74.681,61.216,74.681z M59.442,74.181h1.524v-1.523h-1.524V74.181z"/></g></g></g></g></svg>