<svg xmlns="http://www.w3.org/2000/svg" viewBox="0 0 26 26"><path d="M 5 0 C 2.199219 0 0 2.199219 0 5 L 0 18 C 0 20.800781 2.199219 23 5 23 L 10.90625 23 C 10.304688 21.800781 10 20.398438 10 19 L 5 19 C 4.398438 19 4 18.601563 4 18 L 4 17 C 4 16.398438 4.398438 16 5 16 L 10.5 16 C 10.898438 14.898438 11.511719 13.898438 12.3125 13 L 5 13 C 4.398438 13 4 12.601563 4 12 L 4 11 C 4 10.398438 4.398438 10 5 10 L 19 10 C 20.398438 10 21.800781 10.304688 23 10.90625 L 23 5 C 23 2.199219 20.800781 0 18 0 Z M 5 4 L 18 4 C 18.601563 4 19 4.398438 19 5 L 19 6 C 19 6.601563 18.601563 7 18 7 L 5 7 C 4.398438 7 4 6.601563 4 6 L 4 5 C 4 4.398438 4.398438 4 5 4 Z M 19 12 C 15.101563 12 12 15.101563 12 19 C 12 22.898438 15.101563 26 19 26 C 22.898438 26 26 22.898438 26 19 C 26 15.101563 22.898438 12 19 12 Z M 16 15 L 18 15 L 18 16 L 20 16 L 20 15 L 22 15 L 22 16 L 23 16 L 23 18 L 22 18 L 22 20 L 23 20 L 23 22 L 22 22 L 22 23 L 20 23 L 20 22 L 18 22 L 18 23 L 16 23 L 16 22 L 15 22 L 15 20 L 16 20 L 16 18 L 15 18 L 15 16 L 16 16 Z M 18 18 L 18 20 L 20 20 L 20 18 Z"/></svg>