<svg xmlns="http://www.w3.org/2000/svg" viewBox="0 0 24 24"><path d="M 12 0 C 11.199219 0 9.988281 0.0117188 9.1875 0.3125 C 8.988281 1.011719 8.914063 2.8125 9.8125 4.8125 C 10.511719 4.8125 11.398438 4.6875 12 4.6875 C 13 4.6875 15.011719 4.707031 15.8125 4.90625 C 15.613281 5.40625 15.300781 6 15 6.5 C 14.800781 6.800781 13.800781 8.085938 13 9.1875 L 16.09375 13 C 16.894531 12 17.800781 11.011719 18 10.8125 C 18.699219 9.511719 19.3125 7.898438 18.8125 6.5 C 18.3125 5.199219 16.3125 1.1875 16.3125 1.1875 C 15.710938 0.0859375 13.199219 0 12 0 Z M 7.6875 1.1875 C 7.6875 1.1875 5.585938 5.101563 5.1875 6.5 C 4.789063 7.898438 5.386719 9.585938 6.1875 10.6875 C 6.382813 10.957031 7.960938 12.886719 8.96875 14.15625 C 6.53125 17.160156 3.5 20.90625 3.5 20.90625 L 7.1875 24 C 7.1875 24 9.917969 20.640625 12.03125 18.03125 C 14.453125 21.058594 16.8125 24 16.8125 24 L 20.5 20.90625 C 20.5 20.90625 10 8 9 6.5 C 8 5 7.59375 3.394531 7.59375 2.59375 C 7.59375 1.792969 7.6875 1.1875 7.6875 1.1875 Z"/></svg>