<svg xmlns="http://www.w3.org/2000/svg" viewBox="0 0 64 64"><radialGradient id="fDrkchTK07nCwbJs4Cf9ca" cx="32.375" cy="35.569" r="49.78" gradientUnits="userSpaceOnUse" spreadMethod="reflect"><stop offset="0" stop-color="#afeeff"/><stop offset=".193" stop-color="#bbf1ff"/><stop offset=".703" stop-color="#d7f8ff"/><stop offset="1" stop-color="#e1faff"/></radialGradient><path fill="url(#fDrkchTK07nCwbJs4Cf9ca)" d="M60,44H45l-2.6-1h6.012c1.138,0,2.202-0.721,2.497-1.821C51.355,39.516,50.096,38,48.5,38 c-0.828,0-1.5-0.672-1.5-1.5s0.672-1.5,1.5-1.5h2.912c1.139,0,2.202-0.721,2.497-1.821C54.355,31.516,53.096,29,51.5,29H51 c-1.105,0-2-0.895-2-2c0-1.105,0.895-2,2-2h8.412c1.139,0,2.202-0.721,2.497-1.821C62.355,21.516,61.096,20,59.5,20H59 c-1.105,0-2-0.895-2-2c0-1.105,0.895-2,2-2h2c1.848,0,3.319-1.693,2.94-3.605C63.657,10.972,62.32,10,60.869,10H50.5 C49.672,10,49,9.328,49,8.5S49.672,7,50.5,7h5.912c1.139,0,2.202-0.721,2.497-1.821C59.355,3.516,58.096,2,56.5,2H10.588 C9.449,2,8.386,2.721,8.091,3.821C7.645,5.484,8.904,7,10.5,7l0,0C11.881,7,13,8.119,13,9.5c0,1.381-1.119,2.5-2.5,2.5H9.588H7 c-1.65,0-3,1.35-3,3c0,1.65,1.35,3,3,3h19c0.352,0,0.685-0.073,1-0.185V29h-7.412c-1.139,0-2.202,1.721-2.497,2.821 c-0.219,0.817-0.024,1.595,0.418,2.179H3.5C2.119,34,1,35.119,1,36.5C1,37.881,2.119,39,3.5,39h1C5.881,39,7,40.119,7,41.5 C7,42.881,5.881,44,4.5,44H4c-1.657,0-3,1.343-3,3s1.343,3,3,3h5.5c1.381,0,2.5,1.119,2.5,2.5c0,1.381-1.119,2.5-2.5,2.5H8 c-1.657,0-3,1.343-3,3s1.343,3,3,3h48c1.657,0,3-1.343,3-3s-1.343-3-3-3h-0.5c-1.381,0-2.5-1.119-2.5-2.5c0-1.381,1.119-2.5,2.5-2.5 H60c1.657,0,3-1.343,3-3S61.657,44,60,44z"/><linearGradient id="fDrkchTK07nCwbJs4Cf9cb" x1="32" x2="32" y1="56" y2="6" gradientUnits="userSpaceOnUse" spreadMethod="reflect"><stop offset="0" stop-color="#ffce76"/><stop offset=".004" stop-color="#ffce76"/><stop offset=".605" stop-color="#ffcd92"/><stop offset="1" stop-color="#ffcca0"/><stop offset="1" stop-color="#ffcca0"/></linearGradient><path fill="url(#fDrkchTK07nCwbJs4Cf9cb)" d="M57,31c0,13.805-11.195,25-25,25S7,44.805,7,31S18.195,6,32,6S57,17.195,57,31z"/><linearGradient id="fDrkchTK07nCwbJs4Cf9cc" x1="32" x2="32" y1="56" y2="6" gradientUnits="userSpaceOnUse" spreadMethod="reflect"><stop offset="0" stop-color="#ffce76"/><stop offset=".004" stop-color="#ffce76"/><stop offset=".605" stop-color="#ffcd92"/><stop offset="1" stop-color="#ffcca0"/><stop offset="1" stop-color="#ffcca0"/></linearGradient><path fill="url(#fDrkchTK07nCwbJs4Cf9cc)" d="M57,31c0,13.805-11.195,25-25,25S7,44.805,7,31S18.195,6,32,6S57,17.195,57,31z"/><linearGradient id="fDrkchTK07nCwbJs4Cf9cd" x1="32" x2="32" y1="56" y2="6" gradientUnits="userSpaceOnUse" spreadMethod="reflect"><stop offset="0" stop-color="#ff9757"/><stop offset="1" stop-color="#ffb65b"/><stop offset="1" stop-color="#ffb65b"/></linearGradient><path fill="url(#fDrkchTK07nCwbJs4Cf9cd)" d="M32,6C18.215,6,7,17.215,7,31s11.215,25,25,25s25-11.215,25-25S45.785,6,32,6z M48.169,44.383 C47.839,44.145,47.438,44,47,44c-1.105,0-2,0.895-2,2c0,0.438,0.145,0.839,0.383,1.169c-1.068,0.885-2.225,1.666-3.455,2.328 C41.704,48.638,40.93,48,40,48c-1.105,0-2,0.895-2,2c0,0.38,0.112,0.731,0.295,1.033c-1.379,0.434-2.821,0.726-4.306,0.866 C33.936,50.842,33.07,50,32,50s-1.936,0.842-1.99,1.899c-1.485-0.14-2.926-0.432-4.306-0.866C25.888,50.731,26,50.38,26,50 c0-1.105-0.895-2-2-2c-0.93,0-1.704,0.638-1.928,1.497c-1.23-0.663-2.387-1.443-3.455-2.328C18.855,46.839,19,46.438,19,46 c0-1.105-0.895-2-2-2c-0.438,0-0.839,0.145-1.169,0.383c-0.885-1.068-1.666-2.225-2.328-3.455C14.362,40.704,15,39.93,15,39 c0-1.105-0.895-2-2-2c-0.38,0-0.731,0.112-1.033,0.295c-0.434-1.379-0.726-2.821-0.866-4.306C12.157,32.936,13,32.07,13,31 c0-1.07-0.843-1.936-1.899-1.99c0.14-1.485,0.432-2.926,0.866-4.306C12.269,24.888,12.62,25,13,25c1.105,0,2-0.895,2-2 c0-0.93-0.638-1.704-1.497-1.928c0.663-1.23,1.443-2.387,2.328-3.455C16.161,17.855,16.562,18,17,18c1.105,0,2-0.895,2-2 c0-0.438-0.145-0.839-0.383-1.169c1.068-0.885,2.225-1.666,3.455-2.328C22.296,13.362,23.07,14,24,14c1.105,0,2-0.895,2-2 c0-0.38-0.112-0.731-0.295-1.033c1.379-0.434,2.821-0.726,4.306-0.866C30.064,11.157,30.93,12,32,12s1.936-0.843,1.99-1.899 c1.485,0.14,2.926,0.432,4.306,0.866C38.112,11.269,38,11.62,38,12c0,1.105,0.895,2,2,2c0.93,0,1.704-0.638,1.928-1.497 c1.23,0.663,2.387,1.443,3.455,2.328C45.145,15.161,45,15.562,45,16c0,1.105,0.895,2,2,2c0.438,0,0.839-0.145,1.169-0.383 c0.885,1.068,1.666,2.225,2.328,3.455C49.638,21.296,49,22.07,49,23c0,1.105,0.895,2,2,2c0.38,0,0.731-0.112,1.033-0.295 c0.434,1.379,0.726,2.821,0.866,4.306C51.843,29.064,51,29.93,51,31c0,1.07,0.843,1.936,1.899,1.99 c-0.14,1.485-0.432,2.926-0.866,4.306C51.731,37.112,51.38,37,51,37c-1.105,0-2,0.895-2,2c0,0.93,0.638,1.704,1.497,1.928 C49.834,42.158,49.054,43.315,48.169,44.383z"/><linearGradient id="fDrkchTK07nCwbJs4Cf9ce" x1="32" x2="32" y1="44" y2="5.159" gradientUnits="userSpaceOnUse" spreadMethod="reflect"><stop offset="0" stop-color="#ff5840"/><stop offset=".989" stop-color="#fa528c"/></linearGradient><path fill="url(#fDrkchTK07nCwbJs4Cf9ce)" d="M41.525,27.13l-8.242-8.588c-0.693-0.723-1.871-0.723-2.565,0l-8.242,8.588 c-1.047,1.09-0.251,2.87,1.282,2.87H29v11c0,1.65,1.35,3,3,3c1.65,0,3-1.35,3-3V30h5.242C41.776,30,42.571,28.221,41.525,27.13z"/></svg>