<?xml version="1.0"?><svg xmlns="http://www.w3.org/2000/svg" viewBox="0 0 128 128">    <path d="M36,104c0,4.4,3.6,8,8,8h40c4.4,0,8-3.6,8-8V36c0-4.4-3.6-8-8-8h-7v-9c0-1.7-1.3-3-3-3H54c-1.7,0-3,1.3-3,3v4 c0,1.7,1.3,3,3,3s3-1.3,3-3v-1h14v6H44c-4.4,0-8,3.6-8,8V104z M49,91c1.7,0,3,1.3,3,3v5c0,1.7-1.3,3-3,3s-3-1.3-3-3v-5 C46,92.3,47.3,91,49,91z M46,79c0-0.2,0-0.4,0.1-0.6c0-0.2,0.1-0.4,0.2-0.6c0.1-0.2,0.2-0.3,0.3-0.5c0.1-0.2,0.2-0.3,0.4-0.4 s0.3-0.3,0.4-0.4c0.2-0.1,0.3-0.2,0.5-0.3c0.2-0.1,0.4-0.1,0.6-0.2c0.4-0.1,0.8-0.1,1.2,0c0.2,0,0.4,0.1,0.6,0.2 c0.2,0.1,0.4,0.2,0.5,0.3c0.2,0.1,0.3,0.2,0.4,0.4c0.6,0.6,0.9,1.3,0.9,2.1c0,0.2,0,0.4-0.1,0.6c0,0.2-0.1,0.4-0.2,0.6 c-0.1,0.2-0.2,0.4-0.3,0.5c-0.1,0.2-0.2,0.3-0.4,0.4c-0.1,0.1-0.3,0.3-0.4,0.4c-0.2,0.1-0.3,0.2-0.5,0.3c-0.2,0.1-0.4,0.1-0.6,0.2 C49.4,82,49.2,82,49,82c-0.2,0-0.4,0-0.6-0.1c-0.2,0-0.4-0.1-0.6-0.2c-0.2-0.1-0.3-0.2-0.5-0.3c-0.2-0.1-0.3-0.2-0.4-0.4 c-0.1-0.1-0.3-0.3-0.4-0.4c-0.1-0.2-0.2-0.3-0.3-0.5c-0.1-0.2-0.1-0.4-0.2-0.6C46,79.4,46,79.2,46,79z M44,34h40c1.1,0,2,0.9,2,2 v33H42V36C42,34.9,42.9,34,44,34z"/></svg>