<?xml version="1.0"?><svg xmlns="http://www.w3.org/2000/svg" viewBox="0 0 24 24">    <path d="M 2 1 C 1.4777778 1 0.94538988 1.1913289 0.56835938 1.5683594 C 0.19132887 1.9453899 0 2.4777778 0 3 L 0 12 C 0 12.522222 0.19132887 13.05461 0.56835938 13.431641 C 0.94538988 13.808671 1.4777778 14 2 14 L 8 14 L 8 21 C 8 21.522222 8.1913289 22.05461 8.5683594 22.431641 C 8.9453899 22.808671 9.4777778 23 10 23 L 22 23 C 22.522222 23 23.05461 22.808671 23.431641 22.431641 C 23.808671 22.05461 24 21.522222 24 21 L 24 12 C 24 11.477778 23.808671 10.94539 23.431641 10.568359 C 23.05461 10.191329 22.522222 10 22 10 L 16 10 L 16 3 C 16 2.4777778 15.808671 1.9453899 15.431641 1.5683594 C 15.05461 1.1913289 14.522222 1 14 1 L 2 1 z M 18 1 L 18 3 L 19 3 C 19.554545 3 20 3.4454545 20 4 L 20 5 L 18 5 L 21 9 L 24 5 L 22 5 L 22 4 C 22 2.3545455 20.645455 1 19 1 L 18 1 z M 2 3 L 14 3 L 14 5 L 2 5 L 2 3 z M 2 8 L 14 8 L 14 10 L 10 10 C 9.4777778 10 8.9453899 10.191329 8.5683594 10.568359 C 8.2855865 10.851133 8.1066408 11.221655 8.0351562 11.609375 C 8.0113281 11.738615 8 11.869445 8 12 L 2 12 L 2 8 z M 10 12 L 22 12 L 22 14 L 10 14 L 10 12 z M 3 15 L 0 19 L 2 19 L 2 20 C 2 21.645455 3.3545455 23 5 23 L 6 23 L 6 21 L 5 21 C 4.4454545 21 4 20.554545 4 20 L 4 19 L 6 19 L 3 15 z M 10 17 L 22 17 L 22 21 L 10 21 L 10 17 z"/></svg>