<svg xmlns="http://www.w3.org/2000/svg" viewBox="0 0 80 80"><path d="M 11 10 L 11 14 L 6 14 L 6 62 L 7 62 C 24.716301 62 34.689589 64.673792 35.388672 64.865234 C 35.94212 66.231747 37.073345 67.299289 38.484375 67.753906 C 38.567321 67.781605 38.655292 67.797104 38.740234 67.820312 C 38.896503 67.861578 39.051027 67.907627 39.212891 67.933594 C 39.468773 67.975915 39.730868 68 40 68 C 40.269132 68 40.531227 67.975915 40.787109 67.933594 C 40.948973 67.907627 41.103497 67.861578 41.259766 67.820312 C 41.344708 67.797104 41.432679 67.781605 41.515625 67.753906 C 42.926655 67.299289 44.05788 66.231747 44.611328 64.865234 C 45.310411 64.673792 55.283699 62 73 62 L 74 62 L 74 14 L 69 14 L 69 10 L 68 10 C 51.875 10 42.683594 13.050781 42.683594 13.050781 L 42.660156 13.058594 L 42.636719 13.068359 C 41.612979 13.466574 40.768538 13.81372 40.083984 14.423828 C 40.052781 14.451639 40.030008 14.488434 40 14.517578 C 39.969992 14.488434 39.947219 14.451639 39.916016 14.423828 C 39.231462 13.81372 38.387026 13.466596 37.363281 13.068359 L 37.339844 13.058594 L 37.316406 13.050781 C 37.316411 13.050803 28.125 10 12 10 L 11 10 z M 13 12.042969 C 28.144866 12.175881 36.632978 14.933623 36.662109 14.943359 C 37.617746 15.316851 38.272578 15.638475 38.583984 15.916016 C 38.899431 16.197157 39 16.372667 39 17 A 1.0001 1.0001 0 1 0 41 17 C 41 16.372667 41.100569 16.197157 41.416016 15.916016 C 41.727422 15.638475 42.382254 15.316851 43.337891 14.943359 C 43.367021 14.933659 51.855134 12.175881 67 12.042969 L 67 14.832031 A 1.0001 1.0001 0 0 0 67.289062 15.716797 A 1.0001 1.0001 0 0 0 67.294922 15.722656 A 1.0001 1.0001 0 0 0 67.308594 15.736328 A 1.0001 1.0001 0 0 0 68.158203 16 L 72 16 L 72 60.039062 C 54.106297 60.156363 43.587891 63.037109 43.587891 63.037109 L 43.035156 63.193359 L 42.890625 63.748047 C 42.848481 63.910402 42.795178 64.068215 42.728516 64.21875 C 42.595888 64.518243 42.415815 64.791094 42.199219 65.029297 C 42.090731 65.148608 41.97198 65.259075 41.845703 65.359375 C 41.466874 65.660275 41.013219 65.87089 40.513672 65.957031 C 40.347132 65.985712 40.175553 66 40 66 C 39.297787 66 38.659402 65.760575 38.154297 65.359375 C 38.02802 65.259075 37.909269 65.148608 37.800781 65.029297 C 37.584185 64.791094 37.404112 64.518243 37.271484 64.21875 C 37.271238 64.218192 37.271731 64.217355 37.271484 64.216797 C 37.205383 64.067301 37.15131 63.911147 37.109375 63.75 L 37.109375 63.748047 L 36.964844 63.193359 L 36.412109 63.037109 C 36.412109 63.037109 25.893703 60.156363 8 60.039062 L 8 16 L 11.832031 16 A 1.0001 1.0001 0 0 0 12.720703 15.707031 A 1.0001 1.0001 0 0 0 12.722656 15.705078 A 1.0001 1.0001 0 0 0 12.728516 15.699219 A 1.0001 1.0001 0 0 0 12.736328 15.691406 A 1.0001 1.0001 0 0 0 13 14.841797 L 13 12.042969 z M 12 18.099609 L 11.199219 18.501953 L 11.041016 19.382812 L 11.652344 20.037109 L 12 20.099609 L 12.800781 19.699219 L 12.958984 18.816406 L 12.347656 18.162109 L 12 18.099609 z M 68 18.099609 L 67.199219 18.501953 L 67.041016 19.382812 L 67.652344 20.037109 L 68 20.099609 L 68.800781 19.699219 L 68.958984 18.816406 L 68.347656 18.162109 L 68 18.099609 z M 12 22.199219 L 11.199219 22.601562 L 11.041016 23.484375 L 11.652344 24.138672 L 12 24.199219 L 12.800781 23.798828 L 12.958984 22.916016 L 12.347656 22.261719 L 12 22.199219 z M 68 22.199219 L 67.199219 22.601562 L 67.041016 23.484375 L 67.652344 24.138672 L 68 24.199219 L 68.800781 23.798828 L 68.958984 22.916016 L 68.347656 22.261719 L 68 22.199219 z M 39.716797 23.041016 L 39.0625 23.652344 L 39 24 L 39 27 L 39.402344 27.800781 L 40.283203 27.958984 L 40.9375 27.347656 L 41 27 L 41 24 L 40.597656 23.199219 L 39.716797 23.041016 z M 12 26.300781 L 11.199219 26.701172 L 11.041016 27.583984 L 11.652344 28.238281 L 12 28.300781 L 12.800781 27.898438 L 12.958984 27.015625 L 12.347656 26.361328 L 12 26.300781 z M 68 26.300781 L 67.199219 26.701172 L 67.041016 27.583984 L 67.652344 28.238281 L 68 28.300781 L 68.800781 27.898438 L 68.958984 27.015625 L 68.347656 26.361328 L 68 26.300781 z M 12 30.400391 L 11.199219 30.800781 L 11.041016 31.683594 L 11.652344 32.337891 L 12 32.400391 L 12.800781 31.998047 L 12.958984 31.117188 L 12.347656 30.462891 L 12 30.400391 z M 68 30.400391 L 67.199219 30.800781 L 67.041016 31.683594 L 67.652344 32.337891 L 68 32.400391 L 68.800781 31.998047 L 68.958984 31.117188 L 68.347656 30.462891 L 68 30.400391 z M 12 34.5 L 11.199219 34.902344 L 11.041016 35.783203 L 11.652344 36.4375 L 12 36.5 L 12.800781 36.097656 L 12.958984 35.216797 L 12.347656 34.5625 L 12 34.5 z M 68 34.5 L 67.199219 34.902344 L 67.041016 35.783203 L 67.652344 36.4375 L 68 36.5 L 68.800781 36.097656 L 68.958984 35.216797 L 68.347656 34.5625 L 68 34.5 z M 39.716797 36.041016 L 39.0625 36.652344 L 39 37 L 39 40 L 39.402344 40.800781 L 40.283203 40.958984 L 40.9375 40.347656 L 41 40 L 41 37 L 40.597656 36.199219 L 39.716797 36.041016 z M 12 38.599609 L 11.199219 39.001953 L 11.041016 39.882812 L 11.652344 40.537109 L 12 40.599609 L 12.800781 40.199219 L 12.958984 39.316406 L 12.347656 38.662109 L 12 38.599609 z M 68 38.599609 L 67.199219 39.001953 L 67.041016 39.882812 L 67.652344 40.537109 L 68 40.599609 L 68.800781 40.199219 L 68.958984 39.316406 L 68.347656 38.662109 L 68 38.599609 z M 12 42.699219 L 11.199219 43.101562 L 11.041016 43.984375 L 11.652344 44.638672 L 12 44.699219 L 12.800781 44.298828 L 12.958984 43.416016 L 12.347656 42.761719 L 12 42.699219 z M 68 42.699219 L 67.199219 43.101562 L 67.041016 43.984375 L 67.652344 44.638672 L 68 44.699219 L 68.800781 44.298828 L 68.958984 43.416016 L 68.347656 42.761719 L 68 42.699219 z M 12 46.800781 L 11.199219 47.201172 L 11.041016 48.083984 L 11.652344 48.738281 L 12 48.800781 L 12.800781 48.398438 L 12.958984 47.515625 L 12.347656 46.861328 L 12 46.800781 z M 68 46.800781 L 67.199219 47.201172 L 67.041016 48.083984 L 67.652344 48.738281 L 68 48.800781 L 68.800781 48.398438 L 68.958984 47.515625 L 68.347656 46.861328 L 68 46.800781 z M 39.716797 49.041016 L 39.0625 49.652344 L 39 50 L 39 53 L 39.402344 53.800781 L 40.283203 53.958984 L 40.9375 53.347656 L 41 53 L 41 50 L 40.597656 49.199219 L 39.716797 49.041016 z M 12 50.900391 L 11.199219 51.300781 L 11.041016 52.183594 L 11.652344 52.837891 L 12 52.900391 L 12.800781 52.498047 L 12.958984 51.617188 L 12.347656 50.962891 L 12 50.900391 z M 68 50.900391 L 67.199219 51.300781 L 67.041016 52.183594 L 67.652344 52.837891 L 68 52.900391 L 68.800781 52.498047 L 68.958984 51.617188 L 68.347656 50.962891 L 68 50.900391 z M 12 55 A 1.0001 1.0001 0 1 0 12 57 A 1.0001 1.0001 0 1 0 12 55 z M 68 55 A 1.0001 1.0001 0 1 0 68 57 A 1.0001 1.0001 0 1 0 68 55 z M 15.751953 55.068359 L 14.951172 55.46875 L 14.792969 56.351562 L 15.404297 57.005859 L 15.751953 57.068359 L 16.552734 56.666016 L 16.710938 55.785156 L 16.099609 55.130859 L 15.751953 55.068359 z M 64.242188 55.085938 L 63.441406 55.488281 L 63.283203 56.369141 L 63.894531 57.023438 L 64.242188 57.085938 L 65.042969 56.685547 L 65.201172 55.802734 L 64.587891 55.148438 L 64.242188 55.085938 z M 19.5 55.267578 L 18.697266 55.667969 L 18.541016 56.550781 L 19.152344 57.205078 L 19.5 57.267578 L 20.300781 56.865234 L 20.458984 55.984375 L 19.845703 55.330078 L 19.5 55.267578 z M 60.494141 55.28125 L 59.693359 55.683594 L 59.535156 56.564453 L 60.148438 57.21875 L 60.494141 57.28125 L 61.296875 56.880859 L 61.453125 55.998047 L 60.841797 55.34375 L 60.494141 55.28125 z M 23.238281 55.589844 L 22.4375 55.990234 L 22.279297 56.873047 L 22.890625 57.527344 L 23.238281 57.589844 L 24.039062 57.1875 L 24.197266 56.304688 L 23.583984 55.650391 L 23.238281 55.589844 z M 56.755859 55.599609 L 55.955078 56 L 55.796875 56.882812 L 56.410156 57.537109 L 56.755859 57.599609 L 57.556641 57.197266 L 57.714844 56.314453 L 57.103516 55.660156 L 56.755859 55.599609 z M 26.964844 56.027344 L 26.164062 56.429688 L 26.005859 57.310547 L 26.617188 57.966797 L 26.964844 58.027344 L 27.765625 57.626953 L 27.923828 56.744141 L 27.310547 56.089844 L 26.964844 56.027344 z M 53.029297 56.033203 L 52.228516 56.433594 L 52.070312 57.316406 L 52.681641 57.970703 L 53.029297 58.033203 L 53.830078 57.630859 L 53.988281 56.75 L 53.376953 56.095703 L 53.029297 56.033203 z M 30.675781 56.580078 L 29.875 56.982422 L 29.716797 57.863281 L 30.328125 58.517578 L 30.675781 58.580078 L 31.476562 58.179688 L 31.634766 57.296875 L 31.023438 56.642578 L 30.675781 56.580078 z M 49.316406 56.580078 L 48.515625 56.982422 L 48.357422 57.863281 L 48.970703 58.517578 L 49.316406 58.580078 L 50.119141 58.179688 L 50.275391 57.296875 L 49.664062 56.642578 L 49.316406 56.580078 z M 34.369141 57.246094 L 33.568359 57.648438 L 33.410156 58.53125 L 34.021484 59.185547 L 34.369141 59.246094 L 35.169922 58.845703 L 35.328125 57.962891 L 34.714844 57.308594 L 34.369141 57.246094 z M 45.625 57.25 L 44.824219 57.652344 L 44.666016 58.535156 L 45.277344 59.189453 L 45.625 59.25 L 46.425781 58.849609 L 46.583984 57.966797 L 45.972656 57.3125 L 45.625 57.25 z M 38.027344 58.080078 L 37.226562 58.480469 L 37.068359 59.363281 L 37.679688 60.017578 L 38.027344 60.080078 L 38.828125 59.677734 L 38.986328 58.796875 L 38.375 58.142578 L 38.027344 58.080078 z M 41.966797 58.080078 L 41.164062 58.482422 L 41.007812 59.365234 L 41.619141 60.019531 L 41.966797 60.080078 L 42.767578 59.679688 L 42.925781 58.796875 L 42.3125 58.142578 L 41.966797 58.080078 z M 40 61 A 1.0001 1.0001 0 1 0 40 63 A 1.0001 1.0001 0 1 0 40 61 z"/></svg>