<svg xmlns="http://www.w3.org/2000/svg" viewBox="0 0 40 40"><rect width="15" height="29" x="12.5" y="5.5" fill="#ffeea3"/><path fill="#f5c276" d="M27,6v28H13V6H27 M28,5H12v30h16V5L28,5z"/><rect width="12" height="29" x=".5" y="5.5" fill="#8bb7f0"/><path fill="#4e7ab5" d="M12,6v28H1V6H12 M13,5H0v30h13V5L13,5z"/><rect width="12" height="29" x="27.5" y="5.5" fill="#f78f8f"/><path fill="#c74343" d="M39,6v28H28V6H39 M40,5H27v30h13V5L40,5z"/><path fill="#ba9b48" d="M24,21c0-0.75,0-1,0-1c0.552,0,1-0.448,1-1c0-0.552-0.448-1-1-1c-0.813-0.594,1-0.906,1-2s-2-1-2-1	c0,0.719-1,1-1,1h-2h-2c0,0-1-0.281-1-1c0,0-2-0.094-2,1s1.812,1.406,1,2c-0.552,0-1,0.448-1,1c0,0.552,0.448,1,1,1c0,0,0,0.25,0,1	c0,1.125-1,0.875-1,2c0,1.031,3,1,3,1s0,0.25,0,1s2,1,2,1s2-0.25,2-1s0-1,0-1s3,0.031,3-1C25,22.063,24,22.125,24,21z"/><rect width="8" height="7" x="16" y="16" fill="#ba9b48"/><rect width="3" height="3" x="17" y="17" fill="#c74343"/><rect width="3" height="6" x="20" y="17" fill="#f5c276"/><rect width="1" height="3" x="21" y="17" fill="#c74343"/><rect width="3" height="3" x="17" y="20" fill="#f5c276"/><rect width="1" height="3" x="18" y="20" fill="#c74343"/><rect width="1" height="1" x="18" y="18" fill="#f5c276"/><rect width="2" height="1" x="20" y="20" fill="#c74343"/><rect width="2" height="1" x="21" y="22" fill="#c74343"/><polygon fill="#ba9b48" points="18,14 18,15 19,16 21,16 22,15 22,14 21,14 20,14 19,14"/></svg>