<?xml version="1.0"?><svg xmlns="http://www.w3.org/2000/svg" viewBox="0 0 100 100">    <path d="M 19 21 C 18.448 21 18 21.447 18 22 C 18 25.309 15.309 28 12 28 C 11.448 28 11 28.447 11 29 L 11 70 C 11 70.553 11.448 71 12 71 C 15.309 71 18 73.691 18 77 C 18 77.553 18.448 78 19 78 L 81 78 C 81.553 78 82 77.553 82 77 C 82 73.691 84.691 71 88 71 C 88.553 71 89 70.553 89 70 L 89 29 C 89 28.447 88.553 28 88 28 C 84.691 28 82 25.309 82 22 C 82 21.447 81.553 21 81 21 L 19 21 z M 19.9375 23 L 80.0625 23 C 80.5155 26.614 83.388953 29.4855 87.001953 29.9375 L 87.001953 69.0625 C 83.387953 69.5155 80.5145 72.387 80.0625 76 L 19.9375 76 C 19.4845 72.387 16.613 69.5145 13 69.0625 L 13 29.9375 C 16.613 29.4845 19.4845 26.613 19.9375 23 z M 25.5 43 C 25.224 43 25 43.224 25 43.5 C 25 43.776 25.224 44 25.5 44 L 65.5 44 C 65.776 44 66 43.776 66 43.5 C 66 43.224 65.776 43 65.5 43 L 25.5 43 z M 68.5 43 C 68.224 43 68 43.224 68 43.5 C 68 43.776 68.224 44 68.5 44 L 71.5 44 C 71.776 44 72 43.776 72 43.5 C 72 43.224 71.776 43 71.5 43 L 68.5 43 z M 73.5 43 C 73.224 43 73 43.224 73 43.5 C 73 43.776 73.224 44 73.5 44 L 74.5 44 C 74.776 44 75 43.776 75 43.5 C 75 43.224 74.776 43 74.5 43 L 73.5 43 z M 25.5 56 C 25.224 56 25 56.224 25 56.5 C 25 56.776 25.224 57 25.5 57 L 37.5 57 C 37.776 57 38 56.776 38 56.5 C 38 56.224 37.776 56 37.5 56 L 25.5 56 z M 41.5 56 C 41.224 56 41 56.224 41 56.5 C 41 56.776 41.224 57 41.5 57 L 74.5 57 C 74.776 57 75 56.776 75 56.5 C 75 56.224 74.776 56 74.5 56 L 41.5 56 z"/></svg>