<?xml version="1.0"?><svg xmlns="http://www.w3.org/2000/svg" viewBox="0 0 30 30">    <path d="M 9 0.01171875 C 8.89225 0.01171875 8.7843125 0.0784375 8.7578125 0.2109375 L 7 9 L 6.4472656 7.8964844 C 6.3352656 7.6734844 6 7.7529531 6 8.0019531 L 6 14 L 5.4101562 13.355469 C 5.2641563 13.196469 5 13.300625 5 13.515625 L 5 27 L 7 27 L 7 24.5 C 7 24 7.5 23 7.5 23 C 7.5 23 8 24 8 24.5 L 8 27 L 10 27 L 10 24.5 C 10 24 10.5 23 10.5 23 C 10.5 23 11 24 11 24.5 L 11 27 L 12 27 L 13 27 L 14 27 L 13.980469 23.980469 C 13.980469 23.000469 15 22 15 22 C 15 22 16 23 16 24 L 16 27 L 18 27 L 19 27 L 19 24.5 C 19 24 19.5 23 19.5 23 C 19.5 23 20 24 20 24.5 L 20 27 L 22 27 L 22 24.5 C 22 24 22.5 23 22.5 23 C 22.5 23 23 24 23 24.5 L 23 27 L 25 27 L 25 13.515625 C 25 13.299625 24.735844 13.196469 24.589844 13.355469 L 24 14 L 24 8.0019531 C 24 7.7529531 23.664734 7.6715313 23.552734 7.8945312 L 23 9 L 21.242188 0.2109375 C 21.189187 -0.0540625 20.810812 -0.0540625 20.757812 0.2109375 L 19 9 L 18.447266 7.8964844 C 18.335266 7.6734844 18 7.7529531 18 8.0019531 L 18 14 L 17.410156 13.355469 C 17.264156 13.196469 17 13.300625 17 13.515625 L 17 17.986328 C 16.479371 16.938391 15.870092 15.915595 15.460938 15.263672 C 15.247938 14.923672 14.752063 14.923672 14.539062 15.263672 C 14.129908 15.915595 13.520629 16.938391 13 17.986328 L 13 13.515625 C 13 13.299625 12.735844 13.196469 12.589844 13.355469 L 12 14 L 12 8.0019531 C 12 7.7529531 11.664734 7.6715313 11.552734 7.8945312 L 11 9 L 9.2421875 0.2109375 C 9.2156875 0.0784375 9.10775 0.01171875 9 0.01171875 z M 9 11 C 9 11 10 12 10 13 L 10 15 L 8 15 L 8 13 C 8 12 9 11 9 11 z M 21 11 C 21 11 22 12 22 13 L 22 15 L 20 15 L 20 13 C 20 12 21 11 21 11 z M 9 17 C 9 17 10 18 10 19 L 10 21 L 8 21 L 8 19 C 8 18 9 17 9 17 z M 21 17 C 21 17 22 18 22 19 L 22 21 L 20 21 L 20 19 C 20 18 21 17 21 17 z"/></svg>