<svg xmlns="http://www.w3.org/2000/svg" viewBox="0 0 100 100"><circle cx="50.125" cy="49.958" r="37" fill="#cee1f4"/><circle cx="13.125" cy="28.958" r="2" fill="#78a0cf"/><circle cx="77.125" cy="12.958" r="1" fill="#f1bc19"/><circle cx="83.125" cy="14.958" r="4" fill="#f1bc19"/><circle cx="87.125" cy="23.958" r="2" fill="#78a0cf"/><circle cx="81.125" cy="75.958" r="2" fill="#fbcd59"/><circle cx="15.125" cy="65.958" r="4" fill="#fbcd59"/><circle cx="25.125" cy="86.958" r="2" fill="#78a0cf"/><circle cx="24.625" cy="33.458" r="2.5" fill="#fff"/><circle cx="82.125" cy="37.958" r="1" fill="#fff"/><circle cx="26.125" cy="73.958" r="1" fill="#f1bc19"/><path fill="#88ae45" d="M42,30H25.25C23.455,30,22,31.455,22,33.25v33.5c0,1.795,1.455,3.25,3.25,3.25H42V30z"/><path fill="#ef9922" d="M75.75,30H59v40h16.75c1.795,0,3.25-1.455,3.25-3.25v-33.5C79,31.455,77.545,30,75.75,30z"/><path fill="#472b29" d="M75.5,33.75H69c-0.138,0-0.25-0.112-0.25-0.25s0.112-0.25,0.25-0.25h6.5 c0.138,0,0.25,0.112,0.25,0.25S75.638,33.75,75.5,33.75z"/><path fill="#472b29" d="M75.5,66.75H69c-0.138,0-0.25-0.112-0.25-0.25s0.112-0.25,0.25-0.25h6.5 c0.138,0,0.25,0.112,0.25,0.25S75.638,66.75,75.5,66.75z"/><rect width="19" height="39" x="41" y="30" fill="#fff"/><path fill="#472b29" d="M52,66.75H25.5c-0.138,0-0.25-0.112-0.25-0.25s0.112-0.25,0.25-0.25H52 c0.138,0,0.25,0.112,0.25,0.25S52.138,66.75,52,66.75z"/><path fill="#472b29" d="M46.5,33.75H34c-0.138,0-0.25-0.112-0.25-0.25s0.112-0.25,0.25-0.25h12.5 c0.138,0,0.25,0.112,0.25,0.25S46.638,33.75,46.5,33.75z"/><path fill="#472b29" d="M32,33.75h-6.5c-0.138,0-0.25-0.112-0.25-0.25s0.112-0.25,0.25-0.25H32 c0.138,0,0.25,0.112,0.25,0.25S32.138,33.75,32,33.75z"/><path fill="#472b29" d="M25.501,66.75c-0.138,0-0.25-0.112-0.25-0.25V57c0-0.138,0.112-0.25,0.25-0.25s0.25,0.112,0.25,0.25 v9.5C25.751,66.638,25.64,66.75,25.501,66.75z"/><path fill="#472b29" d="M75.502,66.75c-0.138,0-0.25-0.112-0.25-0.25V58c0-0.138,0.112-0.25,0.25-0.25s0.25,0.112,0.25,0.25 v8.5C75.752,66.638,75.64,66.75,75.502,66.75z"/><path fill="#472b29" d="M75.5,40.75c-0.138,0-0.25-0.112-0.25-0.25v-7c0-0.138,0.112-0.25,0.25-0.25s0.25,0.112,0.25,0.25v7 C75.75,40.638,75.638,40.75,75.5,40.75z"/><path fill="#472b29" d="M75.5,55.75c-0.138,0-0.25-0.112-0.25-0.25v-13c0-0.138,0.112-0.25,0.25-0.25s0.25,0.112,0.25,0.25 v13C75.75,55.638,75.638,55.75,75.5,55.75z"/><g><path fill="#472b29" d="M75.75,31.4c1.02,0,1.85,0.83,1.85,1.85v33.5c0,1.02-0.83,1.85-1.85,1.85h-50.5 c-1.02,0-1.85-0.83-1.85-1.85v-33.5c0-1.02,0.83-1.85,1.85-1.85H75.75 M75.75,30h-50.5C23.455,30,22,31.455,22,33.25v33.5 c0,1.795,1.455,3.25,3.25,3.25h50.5c1.795,0,3.25-1.455,3.25-3.25v-33.5C79,31.455,77.545,30,75.75,30L75.75,30z"/></g><g><line x1="25.501" x2="25.5" y1="48" y2="54.5" fill="#cbc9bc"/><path fill="#472b29" d="M25.5,54.75L25.5,54.75c-0.138,0-0.25-0.112-0.25-0.25l0.001-6.5c0-0.138,0.112-0.25,0.25-0.25l0,0 c0.138,0,0.25,0.112,0.25,0.25l-0.001,6.5C25.75,54.638,25.638,54.75,25.5,54.75z"/></g><g><line x1="25.5" x2="25.499" y1="33.5" y2="39.5" fill="#cbc9bc"/><path fill="#472b29" d="M25.499,39.75L25.499,39.75c-0.138,0-0.25-0.112-0.25-0.25l0.001-6c0-0.138,0.112-0.25,0.25-0.25 l0,0c0.138,0,0.25,0.112,0.25,0.25l-0.001,6C25.749,39.638,25.637,39.75,25.499,39.75z"/></g><g><path fill="#472b29" d="M67,33.75H49.5c-0.138,0-0.25-0.112-0.25-0.25s0.112-0.25,0.25-0.25H67 c0.138,0,0.25,0.112,0.25,0.25S67.138,33.75,67,33.75z"/></g><g><path fill="#472b29" d="M67,66.75H55c-0.138,0-0.25-0.112-0.25-0.25s0.112-0.25,0.25-0.25h12c0.138,0,0.25,0.112,0.25,0.25 S67.138,66.75,67,66.75z"/></g><g><path fill="#472b29" d="M41.5,46c-0.276,0-0.5-0.224-0.5-0.5v-14c0-0.276,0.224-0.5,0.5-0.5s0.5,0.224,0.5,0.5v14 C42,45.776,41.776,46,41.5,46z"/></g><g><path fill="#472b29" d="M59.5,41c-0.276,0-0.5-0.224-0.5-0.5v-9c0-0.276,0.224-0.5,0.5-0.5s0.5,0.224,0.5,0.5v9 C60,40.776,59.776,41,59.5,41z"/></g><g><path fill="#472b29" d="M59.5,53c-0.276,0-0.5-0.224-0.5-0.5v-9c0-0.276,0.224-0.5,0.5-0.5s0.5,0.224,0.5,0.5v9 C60,52.776,59.776,53,59.5,53z"/></g><g><path fill="#472b29" d="M59.5,70c-0.276,0-0.5-0.224-0.5-0.5v-14c0-0.276,0.224-0.5,0.5-0.5s0.5,0.224,0.5,0.5v14 C60,69.776,59.776,70,59.5,70z"/></g><g><path fill="#472b29" d="M41.5,70c-0.276,0-0.5-0.224-0.5-0.5v-21c0-0.276,0.224-0.5,0.5-0.5s0.5,0.224,0.5,0.5v21 C42,69.776,41.776,70,41.5,70z"/></g></svg>