<svg xmlns="http://www.w3.org/2000/svg" viewBox="0 0 100 100"><path fill="#c7ede6" d="M88.704,55.677c0.3-0.616,0.566-1.264,0.796-1.943c2.633-7.77-1.349-17.078-9.733-19.325C78.86,23.026,70.86,15.216,61.826,13.884c-10.341-1.525-19.814,5.044-22.966,15.485c-3.799-1.346-7.501-1.182-10.99,0.857c-1.583,0.732-3.031,1.812-4.33,3.233c-1.907,2.086-3.147,4.719-3.652,7.495c-0.748,0.118-1.483,0.236-2.176,0.484c-4.04,1.449-6.589,4.431-7.288,8.923c-0.435,2.797,0.443,5.587,0.933,6.714c1.935,4.455,6.422,6.98,10.981,6.312c0.227-0.033,0.557,0.069,0.752,0.233c0.241,7.12,3.698,13.417,8.884,17.014c8.321,5.772,19.027,3.994,25.781-3.921c2.894,2.96,6.338,4.398,10.384,3.876c4.023-0.519,7.147-2.739,9.426-6.349c1.053,0.283,2.051,0.691,3.083,0.804c4.042,0.442,7.324-1.165,9.732-4.8c0.922-1.391,1.793-3.194,1.793-6.354C92.174,60.634,90.88,57.667,88.704,55.677z"/><path fill="#fff" d="M18.369 47.713H8.338c-.276 0-.5-.224-.5-.5s.224-.5.5-.5h10.03c.276 0 .5.224.5.5S18.645 47.713 18.369 47.713zM21.249 47.713h-1.445c-.276 0-.5-.224-.5-.5s.224-.5.5-.5h1.445c.276 0 .5.224.5.5S21.526 47.713 21.249 47.713zM25.304 47.713h-2.546c-.276 0-.5-.224-.5-.5s.224-.5.5-.5h2.546c.276 0 .5.224.5.5S25.58 47.713 25.304 47.713zM25.304 49.578h-9.616c-.276 0-.5-.224-.5-.5s.224-.5.5-.5h9.616c.276 0 .5.224.5.5S25.58 49.578 25.304 49.578zM13.956 49.578h-.58c-.276 0-.5-.224-.5-.5s.224-.5.5-.5h.58c.276 0 .5.224.5.5S14.233 49.578 13.956 49.578zM11.579 49.578h-1.456c-.276 0-.5-.224-.5-.5s.224-.5.5-.5h1.456c.276 0 .5.224.5.5S11.856 49.578 11.579 49.578zM20.715 45.848h-5.027c-.276 0-.5-.224-.5-.5s.224-.5.5-.5h5.027c.276 0 .5.224.5.5S20.992 45.848 20.715 45.848zM20.715 43.983h-1.257c-.276 0-.5-.224-.5-.5s.224-.5.5-.5h1.257c.276 0 .5.224.5.5S20.992 43.983 20.715 43.983zM17.447 51.443h-1.759c-.276 0-.5-.224-.5-.5s.224-.5.5-.5h1.759c.276 0 .5.224.5.5S17.723 51.443 17.447 51.443zM71.546 21.436h-10.03c-.276 0-.5-.224-.5-.5s.224-.5.5-.5h10.03c.276 0 .5.224.5.5S71.823 21.436 71.546 21.436zM74.427 21.436h-1.445c-.276 0-.5-.224-.5-.5s.224-.5.5-.5h1.445c.276 0 .5.224.5.5S74.703 21.436 74.427 21.436zM78.482 21.436h-2.546c-.276 0-.5-.224-.5-.5s.224-.5.5-.5h2.546c.276 0 .5.224.5.5S78.758 21.436 78.482 21.436zM76.456 17.706H66.84c-.276 0-.5-.224-.5-.5s.224-.5.5-.5h9.616c.276 0 .5.224.5.5S76.733 17.706 76.456 17.706zM65.109 17.706h-.58c-.276 0-.5-.224-.5-.5s.224-.5.5-.5h.58c.276 0 .5.224.5.5S65.385 17.706 65.109 17.706zM62.732 17.706h-1.456c-.276 0-.5-.224-.5-.5s.224-.5.5-.5h1.456c.276 0 .5.224.5.5S63.008 17.706 62.732 17.706zM73.893 19.571h-5.027c-.276 0-.5-.224-.5-.5s.224-.5.5-.5h5.027c.276 0 .5.224.5.5S74.169 19.571 73.893 19.571z"/><path fill="#fff" d="M73.893 17.706h-1.257c-.276 0-.5-.224-.5-.5s.224-.5.5-.5h1.257c.276 0 .5.224.5.5S74.169 17.706 73.893 17.706zM67.411 19.571h-1.759c-.276 0-.5-.224-.5-.5s.224-.5.5-.5h1.759c.276 0 .5.224.5.5S67.687 19.571 67.411 19.571z"/><path fill="#fdfcef" d="M72.77,56.374c0,0,10.309,0,10.371,0c2.381,0,4.31-1.93,4.31-4.311c0-2.077-1.469-3.81-3.425-4.219c0.023-0.182,0.038-0.366,0.038-0.554c0-2.466-1.999-4.465-4.464-4.465c-1.456,0-2.745,0.7-3.56,1.778c-0.208-2.745-2.66-4.862-5.528-4.511c-2.097,0.257-3.832,1.878-4.218,3.955c-0.124,0.666-0.111,1.313,0.012,1.92c-0.562-0.606-1.363-0.987-2.254-0.987c-1.632,0-2.963,1.27-3.069,2.875c-0.741-0.164-1.547-0.153-2.396,0.165c-1.622,0.609-2.778,2.137-2.845,3.868c-0.096,2.459,1.869,4.483,4.307,4.483c0.185,0,0.836,0,0.986,0h8.951"/><path fill="#472b29" d="M83.141,56.874H72.77c-0.276,0-0.5-0.224-0.5-0.5s0.224-0.5,0.5-0.5h10.371c2.102,0,3.811-1.709,3.811-3.811c0-1.794-1.273-3.363-3.027-3.729c-0.254-0.053-0.426-0.292-0.394-0.55c0.02-0.162,0.034-0.326,0.034-0.493c0-2.186-1.778-3.965-3.964-3.965c-1.25,0-2.402,0.576-3.162,1.58c-0.125,0.166-0.342,0.237-0.539,0.178c-0.2-0.059-0.342-0.234-0.358-0.442c-0.091-1.198-0.677-2.324-1.609-3.088c-0.941-0.771-2.13-1.115-3.359-0.965c-1.884,0.23-3.441,1.69-3.787,3.55c-0.107,0.582-0.104,1.164,0.012,1.729c0.045,0.22-0.062,0.442-0.262,0.545c-0.197,0.103-0.442,0.061-0.595-0.104c-0.496-0.533-1.166-0.827-1.889-0.827c-1.353,0-2.48,1.058-2.569,2.408c-0.01,0.146-0.082,0.28-0.199,0.367s-0.269,0.118-0.407,0.088c-0.731-0.162-1.422-0.115-2.112,0.146c-1.45,0.544-2.464,1.918-2.521,3.419c-0.041,1.048,0.336,2.041,1.061,2.794c0.726,0.754,1.701,1.169,2.747,1.169h9.937c0.276,0,0.5,0.224,0.5,0.5s-0.224,0.5-0.5,0.5H60.05c-1.32,0-2.552-0.524-3.468-1.476c-0.915-0.952-1.391-2.204-1.34-3.527c0.074-1.898,1.348-3.633,3.17-4.317c0.697-0.262,1.415-0.352,2.15-0.273c0.357-1.607,1.798-2.8,3.489-2.8c0.58,0,1.148,0.144,1.656,0.41c0.005-0.311,0.036-0.623,0.095-0.934c0.424-2.284,2.336-4.077,4.648-4.36c1.502-0.185,2.96,0.237,4.115,1.184c0.869,0.713,1.493,1.683,1.791,2.754c0.894-0.777,2.031-1.208,3.243-1.208c2.737,0,4.964,2.227,4.964,4.965c0,0.059-0.001,0.118-0.004,0.176c1.989,0.615,3.391,2.481,3.391,4.597C87.952,54.716,85.793,56.874,83.141,56.874z"/><path fill="#fdfcef" d="M84.887,48.349c-1.498-0.706-3.231-0.206-3.87,1.117c-0.079,0.164-0.138,0.334-0.177,0.506"/><path fill="#472b29" d="M80.839,50.222c-0.019,0-0.037-0.002-0.056-0.006c-0.135-0.03-0.219-0.165-0.188-0.299c0.045-0.194,0.11-0.383,0.197-0.56c0.696-1.443,2.582-1.997,4.2-1.233c0.125,0.059,0.179,0.208,0.12,0.333c-0.06,0.126-0.21,0.177-0.333,0.12c-1.372-0.646-2.959-0.198-3.537,1c-0.07,0.144-0.124,0.295-0.159,0.452C81.057,50.143,80.953,50.222,80.839,50.222z"/><path fill="#fdfcef" d="M67.758,67.747H34.389c-0.552,0-1-0.448-1-1V36.534c0-2.56,2.095-4.655,4.655-4.655h26.059c2.56,0,4.655,2.095,4.655,4.655v30.212C68.758,67.299,68.31,67.747,67.758,67.747z"/><path fill="#472b29" d="M67.758,68.447H34.389c-0.938,0-1.7-0.763-1.7-1.7V36.534c0-2.953,2.402-5.355,5.354-5.355h26.06c2.953,0,5.355,2.402,5.355,5.355v30.212C69.458,67.684,68.696,68.447,67.758,68.447z M38.043,32.579c-2.181,0-3.954,1.774-3.954,3.955v30.212c0,0.166,0.135,0.3,0.3,0.3h33.369c0.165,0,0.3-0.134,0.3-0.3V36.534c0-2.181-1.774-3.955-3.955-3.955H38.043z"/><path fill="#f1bc19" d="M64.685,32.377l-27.139-0.017c-2.046,0-3.487,1.689-3.487,3.753v3.736h28.737h5.268v-3.736C68.064,34.049,66.731,32.377,64.685,32.377z"/><path fill="#472b29" d="M65.52 39.976h-.996c-.207 0-.375-.168-.375-.375s.168-.375.375-.375h.996c.207 0 .375.168.375.375S65.727 39.976 65.52 39.976zM63.528 39.976h-29.89c-.207 0-.375-.168-.375-.375s.168-.375.375-.375h29.89c.207 0 .375.168.375.375S63.735 39.976 63.528 39.976z"/><path fill="#fdfcef" d="M38.121 35.364A0.996 0.996 0 1 0 38.121 37.356A0.996 0.996 0 1 0 38.121 35.364Z"/><path fill="#472b29" d="M38.121,37.856c-0.825,0-1.496-0.671-1.496-1.496c0-0.825,0.671-1.497,1.496-1.497s1.496,0.671,1.496,1.497C39.618,37.185,38.947,37.856,38.121,37.856z M38.121,35.863c-0.273,0-0.496,0.223-0.496,0.497c0,0.273,0.223,0.496,0.496,0.496s0.496-0.223,0.496-0.496C38.618,36.086,38.395,35.863,38.121,35.863z"/><path fill="#fdfcef" d="M64.026 35.364A0.996 0.996 0 1 0 64.026 37.356A0.996 0.996 0 1 0 64.026 35.364Z"/><path fill="#472b29" d="M64.026 37.856c-.825 0-1.496-.671-1.496-1.496 0-.825.671-1.497 1.496-1.497.825 0 1.496.671 1.496 1.497C65.522 37.185 64.851 37.856 64.026 37.856zM64.026 35.863c-.273 0-.496.223-.496.497 0 .273.223.496.496.496.273 0 .496-.223.496-.496C64.522 36.086 64.299 35.863 64.026 35.863zM63.279 34.074c-.387 0-.7-.313-.7-.7v-2.989c0-.387.313-.7.7-.7s.7.313.7.7v2.989C63.979 33.76 63.665 34.074 63.279 34.074zM59.791 34.074c-.387 0-.7-.313-.7-.7v-2.989c0-.387.313-.7.7-.7s.7.313.7.7v2.989C60.492 33.76 60.178 34.074 59.791 34.074zM56.304 34.074c-.387 0-.7-.313-.7-.7v-2.989c0-.387.313-.7.7-.7s.7.313.7.7v2.989C57.004 33.76 56.691 34.074 56.304 34.074zM52.817 34.074c-.387 0-.7-.313-.7-.7v-2.989c0-.387.313-.7.7-.7s.7.313.7.7v2.989C53.517 33.76 53.203 34.074 52.817 34.074zM49.329 34.074c-.387 0-.7-.313-.7-.7v-2.989c0-.387.313-.7.7-.7s.7.313.7.7v2.989C50.03 33.76 49.716 34.074 49.329 34.074zM45.843 34.074c-.387 0-.7-.313-.7-.7v-2.989c0-.387.313-.7.7-.7s.7.313.7.7v2.989C46.543 33.76 46.23 34.074 45.843 34.074zM42.356 34.074c-.387 0-.7-.313-.7-.7v-2.989c0-.387.313-.7.7-.7s.7.313.7.7v2.989C43.056 33.76 42.743 34.074 42.356 34.074zM38.869 34.074c-.387 0-.7-.313-.7-.7v-2.989c0-.387.313-.7.7-.7s.7.313.7.7v2.989C39.569 33.76 39.255 34.074 38.869 34.074zM68.509 39.976h-1.993c-.207 0-.375-.168-.375-.375s.168-.375.375-.375h1.993c.207 0 .375.168.375.375S68.716 39.976 68.509 39.976z"/><path fill="#cbc9bc" d="M44.099 44.582L45.095 44.582 45.095 47.571 42.106 47.571 42.106 46.077"/><path fill="#472b29" d="M45.095,47.946h-2.988c-0.207,0-0.375-0.168-0.375-0.375v-1.494c0-0.207,0.168-0.375,0.375-0.375s0.375,0.168,0.375,0.375v1.119h2.238v-2.239h-0.621c-0.207,0-0.375-0.168-0.375-0.375s0.168-0.375,0.375-0.375h0.996c0.207,0,0.375,0.168,0.375,0.375v2.989C45.47,47.778,45.302,47.946,45.095,47.946z"/><path fill="#cbc9bc" d="M47.088 44.582H50.077V47.571H47.088z"/><path fill="#472b29" d="M50.078,47.946h-2.989c-0.207,0-0.375-0.168-0.375-0.375v-2.989c0-0.207,0.168-0.375,0.375-0.375h2.989c0.207,0,0.375,0.168,0.375,0.375v2.989C50.453,47.778,50.285,47.946,50.078,47.946z M47.463,47.196h2.239v-2.239h-2.239V47.196z"/><path fill="#cbc9bc" d="M52.07 44.582H55.059V47.571H52.07z"/><path fill="#472b29" d="M55.059,47.946H52.07c-0.207,0-0.375-0.168-0.375-0.375v-2.989c0-0.207,0.168-0.375,0.375-0.375h2.989c0.207,0,0.375,0.168,0.375,0.375v2.989C55.434,47.778,55.266,47.946,55.059,47.946z M52.445,47.196h2.239v-2.239h-2.239V47.196z"/><path fill="#cbc9bc" d="M57.051 44.582H60.04V47.571H57.051z"/><path fill="#472b29" d="M60.04,47.946h-2.989c-0.207,0-0.375-0.168-0.375-0.375v-2.989c0-0.207,0.168-0.375,0.375-0.375h2.989c0.207,0,0.375,0.168,0.375,0.375v2.989C60.415,47.778,60.247,47.946,60.04,47.946z M57.426,47.196h2.239v-2.239h-2.239V47.196z"/><g><path fill="#cbc9bc" d="M62.033 44.582H65.022V47.571H62.033z"/><path fill="#472b29" d="M65.022,47.946h-2.989c-0.207,0-0.375-0.168-0.375-0.375v-2.989c0-0.207,0.168-0.375,0.375-0.375h2.989c0.207,0,0.375,0.168,0.375,0.375v2.989C65.397,47.778,65.229,47.946,65.022,47.946z M62.408,47.196h2.239v-2.239h-2.239V47.196z"/></g><g><path fill="#cbc9bc" d="M42.106 49.564H45.095V52.553H42.106z"/><path fill="#472b29" d="M45.095,52.928h-2.988c-0.207,0-0.375-0.168-0.375-0.375v-2.989c0-0.207,0.168-0.375,0.375-0.375h2.988c0.207,0,0.375,0.168,0.375,0.375v2.989C45.47,52.76,45.302,52.928,45.095,52.928z M42.482,52.178h2.238v-2.239h-2.238V52.178z"/><path fill="#cbc9bc" d="M47.088 49.564H50.077V52.553H47.088z"/><path fill="#472b29" d="M50.078,52.928h-2.989c-0.207,0-0.375-0.168-0.375-0.375v-2.989c0-0.207,0.168-0.375,0.375-0.375h2.989c0.207,0,0.375,0.168,0.375,0.375v2.989C50.453,52.76,50.285,52.928,50.078,52.928z M47.463,52.178h2.239v-2.239h-2.239V52.178z"/><path fill="#cbc9bc" d="M52.07 49.564H55.059V52.553H52.07z"/><path fill="#472b29" d="M55.059,52.928H52.07c-0.207,0-0.375-0.168-0.375-0.375v-2.989c0-0.207,0.168-0.375,0.375-0.375h2.989c0.207,0,0.375,0.168,0.375,0.375v2.989C55.434,52.76,55.266,52.928,55.059,52.928z M52.445,52.178h2.239v-2.239h-2.239V52.178z"/><g><path fill="#cbc9bc" d="M57.051 49.564H60.04V52.553H57.051z"/><path fill="#472b29" d="M60.04,52.928h-2.989c-0.207,0-0.375-0.168-0.375-0.375v-2.989c0-0.207,0.168-0.375,0.375-0.375h2.989c0.207,0,0.375,0.168,0.375,0.375v2.989C60.415,52.76,60.247,52.928,60.04,52.928z M57.426,52.178h2.239v-2.239h-2.239V52.178z"/></g><g><path fill="#cbc9bc" d="M62.033 49.564H65.022V52.553H62.033z"/><path fill="#472b29" d="M65.022,52.928h-2.989c-0.207,0-0.375-0.168-0.375-0.375v-2.989c0-0.207,0.168-0.375,0.375-0.375h2.989c0.207,0,0.375,0.168,0.375,0.375v2.989C65.397,52.76,65.229,52.928,65.022,52.928z M62.408,52.178h2.239v-2.239h-2.239V52.178z"/></g><g><path fill="#cbc9bc" d="M37.125 49.564H40.114V52.553H37.125z"/><path fill="#472b29" d="M40.114,52.928h-2.988c-0.207,0-0.375-0.168-0.375-0.375v-2.989c0-0.207,0.168-0.375,0.375-0.375h2.988c0.207,0,0.375,0.168,0.375,0.375v2.989C40.489,52.76,40.321,52.928,40.114,52.928z M37.5,52.178h2.238v-2.239H37.5V52.178z"/></g></g><g><path fill="#cbc9bc" d="M42.106 54.545H45.095V57.534H42.106z"/><path fill="#472b29" d="M45.095,57.909h-2.988c-0.207,0-0.375-0.168-0.375-0.375v-2.989c0-0.207,0.168-0.375,0.375-0.375h2.988c0.207,0,0.375,0.168,0.375,0.375v2.989C45.47,57.741,45.302,57.909,45.095,57.909z M42.482,57.159h2.238v-2.239h-2.238V57.159z"/><path fill="#cbc9bc" d="M47.088 54.545H50.077V57.534H47.088z"/><path fill="#472b29" d="M50.078,57.909h-2.989c-0.207,0-0.375-0.168-0.375-0.375v-2.989c0-0.207,0.168-0.375,0.375-0.375h2.989c0.207,0,0.375,0.168,0.375,0.375v2.989C50.453,57.741,50.285,57.909,50.078,57.909z M47.463,57.159h2.239v-2.239h-2.239V57.159z"/><path fill="#cbc9bc" d="M52.07 54.545H55.059V57.534H52.07z"/><path fill="#472b29" d="M55.059,57.909H52.07c-0.207,0-0.375-0.168-0.375-0.375v-2.989c0-0.207,0.168-0.375,0.375-0.375h2.989c0.207,0,0.375,0.168,0.375,0.375v2.989C55.434,57.741,55.266,57.909,55.059,57.909z M52.445,57.159h2.239v-2.239h-2.239V57.159z"/><path fill="#cbc9bc" d="M60.04 57.534L57.051 57.534 57.051 56.634 57.051 54.545 59.034 54.545 60.04 54.545z"/><g><path fill="#cbc9bc" d="M57.051 56.634L57.051 54.545 59.034 54.545"/><path fill="#472b29" d="M57.051,57.009c-0.207,0-0.375-0.168-0.375-0.375v-2.088c0-0.207,0.168-0.375,0.375-0.375h1.982c0.207,0,0.375,0.168,0.375,0.375s-0.168,0.375-0.375,0.375h-1.607v1.713C57.426,56.841,57.258,57.009,57.051,57.009z"/></g><g><path fill="#cbc9bc" d="M37.125 54.545H40.114V57.534H37.125z"/><path fill="#472b29" d="M40.114,57.909h-2.988c-0.207,0-0.375-0.168-0.375-0.375v-2.989c0-0.207,0.168-0.375,0.375-0.375h2.988c0.207,0,0.375,0.168,0.375,0.375v2.989C40.489,57.741,40.321,57.909,40.114,57.909z M37.5,57.159h2.238v-2.239H37.5V57.159z"/></g></g><g><path fill="#cbc9bc" d="M47.088 59.527H50.077V62.516H47.088z"/><path fill="#472b29" d="M50.078,62.891h-2.989c-0.207,0-0.375-0.168-0.375-0.375v-2.989c0-0.207,0.168-0.375,0.375-0.375h2.989c0.207,0,0.375,0.168,0.375,0.375v2.989C50.453,62.723,50.285,62.891,50.078,62.891z M47.463,62.141h2.239v-2.239h-2.239V62.141z"/><g><path fill="#cbc9bc" d="M54.56 62.516L52.07 62.516 52.07 59.527 55.059 59.527 55.059 61.52"/><path fill="#472b29" d="M54.561,62.891H52.07c-0.207,0-0.375-0.168-0.375-0.375v-2.989c0-0.207,0.168-0.375,0.375-0.375h2.989c0.207,0,0.375,0.168,0.375,0.375v1.993c0,0.207-0.168,0.375-0.375,0.375s-0.375-0.168-0.375-0.375v-1.618h-2.239v2.239h2.116c0.207,0,0.375,0.168,0.375,0.375S54.768,62.891,54.561,62.891z"/></g></g><g><path fill="#fdfcee" d="M65.943 54.076A9.457 9.457 0 1 0 65.943 72.99000000000001A9.457 9.457 0 1 0 65.943 54.076Z"/><path fill="#472b29" d="M65.943,73.69c-5.601,0-10.157-4.557-10.157-10.157s4.557-10.157,10.157-10.157S76.1,57.932,76.1,63.533S71.543,73.69,65.943,73.69z M65.943,54.776c-4.829,0-8.757,3.928-8.757,8.757s3.928,8.757,8.757,8.757s8.757-3.928,8.757-8.757S70.772,54.776,65.943,54.776z"/></g><g><path fill="#fdfcef" d="M39.587,70.723c1.883,0,3.517,0,3.54,0c2.11,0,3.821-1.674,3.821-3.739c0-1.802-1.302-3.305-3.035-3.66c0.02-0.158,0.034-0.317,0.034-0.48c0-2.139-1.772-3.873-3.957-3.873c-1.29,0-2.433,0.607-3.155,1.543c-0.185-2.381-2.358-4.218-4.9-3.913c-1.859,0.223-3.397,1.629-3.739,3.431c-0.11,0.578-0.098,1.139,0.011,1.665c-0.498-0.525-1.208-0.856-1.998-0.856c-1.446,0-2.627,1.102-2.72,2.494c-0.657-0.142-1.371-0.133-2.123,0.143c-1.438,0.528-2.462,1.853-2.522,3.356c-0.085,2.133,1.657,3.889,3.818,3.889c0.164,0,0.741,0,0.874,0h7.934 M33.11,70.723h0.36"/><path fill="#472b29" d="M43.127,71.223h-3.54c-0.276,0-0.5-0.224-0.5-0.5s0.224-0.5,0.5-0.5h3.54c1.831,0,3.32-1.453,3.32-3.24c0-1.524-1.108-2.857-2.636-3.169c-0.255-0.052-0.428-0.292-0.396-0.551c0.017-0.138,0.029-0.277,0.029-0.419c0-1.86-1.551-3.373-3.457-3.373c-1.092,0-2.098,0.491-2.759,1.348c-0.126,0.164-0.342,0.233-0.538,0.173c-0.198-0.059-0.34-0.234-0.355-0.44c-0.08-1.02-0.566-1.944-1.371-2.604c-0.828-0.679-1.887-0.983-2.972-0.852c-1.646,0.197-3.007,1.442-3.308,3.028c-0.094,0.494-0.09,0.988,0.01,1.47c0.046,0.219-0.06,0.441-0.258,0.544c-0.197,0.104-0.439,0.064-0.594-0.099c-0.429-0.452-1.011-0.7-1.637-0.7c-1.169,0-2.145,0.891-2.221,2.028c-0.01,0.145-0.082,0.278-0.198,0.366c-0.116,0.088-0.263,0.12-0.406,0.089c-0.642-0.139-1.244-0.098-1.845,0.124c-1.262,0.464-2.145,1.632-2.195,2.907c-0.035,0.875,0.282,1.708,0.895,2.344c0.635,0.661,1.496,1.025,2.424,1.025h8.807c0.276,0,0.5,0.224,0.5,0.5s-0.224,0.5-0.5,0.5h-8.807c-1.186,0-2.331-0.485-3.145-1.332c-0.803-0.834-1.219-1.928-1.174-3.077c0.068-1.674,1.213-3.204,2.85-3.805c0.609-0.224,1.24-0.306,1.881-0.244c0.345-1.396,1.629-2.424,3.135-2.424c0.5,0,0.98,0.11,1.414,0.319c0.009-0.24,0.036-0.48,0.082-0.721c0.381-2.01,2.097-3.586,4.171-3.834c1.363-0.16,2.685,0.218,3.725,1.071c0.748,0.613,1.279,1.41,1.548,2.303c0.791-0.648,1.785-1.007,2.842-1.007c2.458,0,4.457,1.962,4.457,4.373c0,0.034-0.001,0.068-0.002,0.102c1.765,0.555,3.004,2.188,3.004,4.038C47.448,69.322,45.509,71.223,43.127,71.223z M33.469,71.223H33.11c-0.276,0-0.5-0.224-0.5-0.5s0.224-0.5,0.5-0.5h0.359c0.276,0,0.5,0.224,0.5,0.5S33.745,71.223,33.469,71.223z"/><path fill="#472b29" d="M41.419,65.42c-0.019,0-0.037-0.002-0.057-0.006c-0.134-0.031-0.218-0.165-0.187-0.3c0.038-0.169,0.096-0.33,0.17-0.479c0.604-1.223,2.273-1.674,3.721-1.006c0.126,0.058,0.181,0.207,0.122,0.332c-0.058,0.125-0.209,0.181-0.331,0.122c-1.207-0.557-2.579-0.209-3.063,0.774c-0.058,0.114-0.102,0.238-0.132,0.369C41.636,65.342,41.534,65.42,41.419,65.42z"/><g><path fill="#472b29" d="M36.261,71.223h-1.107c-0.276,0-0.5-0.224-0.5-0.5s0.224-0.5,0.5-0.5h1.107c0.276,0,0.5,0.224,0.5,0.5S36.537,71.223,36.261,71.223z"/></g></g><g><path fill="#f4989e" d="M61.385 62.84H70.064V67.403H61.385z"/><path fill="#472b29" d="M70.065,67.778h-8.68c-0.207,0-0.375-0.168-0.375-0.375V62.84c0-0.207,0.168-0.375,0.375-0.375h8.68c0.207,0,0.375,0.168,0.375,0.375v4.563C70.44,67.61,70.272,67.778,70.065,67.778z M61.76,67.028h7.93v-3.813h-7.93V67.028z"/><path fill="#fdfcef" d="M67.895,62.84c0,0.701-0.488,1.274-1.085,1.274c-0.597,0-1.085-0.573-1.085-1.274H67.895z"/><path fill="#472b29" d="M66.81,64.288c-0.694,0-1.26-0.65-1.26-1.449c0-0.097,0.078-0.175,0.175-0.175h2.17c0.097,0,0.175,0.078,0.175,0.175C68.07,63.638,67.504,64.288,66.81,64.288z M65.911,63.014c0.069,0.523,0.446,0.924,0.898,0.924s0.829-0.401,0.898-0.924H65.911z"/><path fill="#fdfcef" d="M65.725,62.84c0,0.701-0.488,1.274-1.085,1.274c-0.597,0-1.085-0.573-1.085-1.274H65.725z"/><path fill="#472b29" d="M64.64,64.288c-0.694,0-1.26-0.65-1.26-1.449c0-0.097,0.078-0.175,0.175-0.175h2.17c0.097,0,0.175,0.078,0.175,0.175C65.9,63.638,65.334,64.288,64.64,64.288z M63.742,63.014c0.069,0.523,0.446,0.924,0.898,0.924s0.829-0.401,0.898-0.924H63.742z"/><g><path fill="#fdfcef" d="M63.555,62.84c0,0.701-0.488,1.274-1.085,1.274s-1.085-0.573-1.085-1.274H63.555z"/><path fill="#472b29" d="M62.47,64.288c-0.694,0-1.26-0.65-1.26-1.449c0-0.097,0.078-0.175,0.175-0.175h2.17c0.097,0,0.175,0.078,0.175,0.175C63.73,63.638,63.164,64.288,62.47,64.288z M61.572,63.014c0.069,0.523,0.446,0.924,0.898,0.924s0.829-0.401,0.898-0.924H61.572z"/></g><g><path fill="#fdfcef" d="M70.065,62.84c0,0.701-0.488,1.274-1.085,1.274c-0.597,0-1.085-0.573-1.085-1.274H70.065z"/><path fill="#472b29" d="M68.98,64.288c-0.694,0-1.26-0.65-1.26-1.449c0-0.097,0.078-0.175,0.175-0.175h2.17c0.097,0,0.175,0.078,0.175,0.175C70.24,63.638,69.674,64.288,68.98,64.288z M68.081,63.014c0.069,0.523,0.446,0.924,0.898,0.924s0.829-0.401,0.898-0.924H68.081z"/></g><g><path fill="#fbcd59" d="M64.77 60.966H66.67999999999999V62.72H64.77z"/><path fill="#472b29" d="M66.68,62.969h-1.91c-0.138,0-0.25-0.112-0.25-0.25v-1.753c0-0.138,0.112-0.25,0.25-0.25h1.91c0.138,0,0.25,0.112,0.25,0.25v1.753C66.93,62.858,66.818,62.969,66.68,62.969z M65.02,62.469h1.41v-1.253h-1.41V62.469z"/></g><path fill="#472b29" d="M65.726,60.845c-0.069,0-0.125-0.056-0.125-0.125V59.95c0-0.069,0.056-0.125,0.125-0.125s0.125,0.056,0.125,0.125v0.771C65.851,60.789,65.795,60.845,65.726,60.845z"/><g><path fill="#f1bc19" d="M66.439,59.337c0,0.674-0.319,0.777-0.713,0.777s-0.713-0.103-0.713-0.777c0-0.674,0.713-1.664,0.713-1.664S66.439,58.663,66.439,59.337z"/><path fill="#472b29" d="M65.726,60.315c-0.393,0-0.914-0.102-0.914-0.978c0-0.73,0.721-1.738,0.752-1.781c0.037-0.052,0.098-0.083,0.162-0.083l0,0c0.064,0,0.125,0.031,0.162,0.083c0.031,0.042,0.751,1.05,0.751,1.781C66.639,60.213,66.118,60.315,65.726,60.315z M65.726,58.035c-0.22,0.354-0.514,0.915-0.514,1.302c0,0.537,0.203,0.577,0.514,0.577c0.31,0,0.513-0.04,0.513-0.577C66.239,58.949,65.945,58.388,65.726,58.035z"/></g></g></svg>