<?xml version="1.0"?><svg xmlns="http://www.w3.org/2000/svg" viewBox="0 0 128 128">    <path d="M88.8,8.8c-1.2-1.2-3.1-1.2-4.2,0L13.8,79.6c-1.2,1.2-1.2,3.1,0,4.2l35.4,35.4c0.6,0.6,1.4,0.9,2.1,0.9s1.5-0.3,2.1-0.9 l49.5-49.5c1.2-1.2,1.2-3.1,0-4.2c-1.2-1.2-3.1-1.2-4.2,0l-47.4,47.4L20.2,81.7l9.9-9.9l5,4.9c0.6,0.6,1.4,0.9,2.1,0.9 s1.5-0.3,2.1-0.9c1.2-1.2,1.2-3.1,0-4.2l-4.9-4.9l9.9-9.9l12,12c0.6,0.6,1.4,0.9,2.1,0.9s1.5-0.3,2.1-0.9c1.2-1.2,1.2-3.1,0-4.2 l-12-12l9.9-9.9l4.9,4.9c0.6,0.6,1.4,0.9,2.1,0.9s1.5-0.3,2.1-0.9c1.2-1.2,1.2-3.1,0-4.2l-4.9-4.9l9.9-9.9l12,12 c0.6,0.6,1.4,0.9,2.1,0.9c0.8,0,1.5-0.3,2.1-0.9c1.2-1.2,1.2-3.1,0-4.2l-12-12l12-12C90,11.9,90,10,88.8,8.8z"/></svg>