<svg xmlns="http://www.w3.org/2000/svg" viewBox="0 0 24 24"><path d="M 5 0 L 5 4 L 7 4 L 7 0 Z M 17 0 L 17 4 L 19 4 L 19 0 Z M 1 3 C 0.398438 3 0 3.398438 0 4 L 0 7 C 0 7.601563 0.398438 8 1 8 L 1 24 L 23 24 L 23 8 C 23.601563 8 24 7.601563 24 7 L 24 4 C 24 3.398438 23.601563 3 23 3 L 20 3 L 20 5 L 16 5 L 16 3 L 8 3 L 8 5 L 4 5 L 4 3 Z M 3 8 L 21 8 L 21 22 L 3 22 Z M 9.59375 10 C 8.792969 10 8.1875 10.304688 7.6875 10.90625 C 7.1875 11.507813 7 12.113281 7 12.8125 C 7 13.511719 7.289063 14.40625 7.6875 15.40625 C 8.085938 16.207031 8.792969 17.007813 9.59375 17.90625 C 10.292969 18.605469 11.105469 19.394531 11.90625 20.09375 C 12.90625 19.195313 13.710938 18.511719 14.3125 17.8125 C 15.113281 16.914063 15.789063 16.113281 16.1875 15.3125 C 16.6875 14.414063 17 13.488281 17 12.6875 C 17 12.085938 16.6875 11.601563 16.1875 11 C 15.6875 10.398438 15.105469 10.09375 14.40625 10.09375 C 13.207031 10.09375 12.5 11.007813 12 11.90625 C 11.601563 10.90625 10.792969 10 9.59375 10 Z"/></svg>