<svg xmlns="http://www.w3.org/2000/svg" viewBox="0 0 24 24"><path d="M 3 7 C 3.296875 7.011719 4.363281 5.660156 4.589844 5.5 C 6.246094 7.644531 6.539063 8.472656 10.363281 11.730469 C 10.132813 10.246094 7.59375 5.867188 6.179688 4.5 C 6.867188 3.839844 7.894531 2.449219 8.296875 2 C 8.71875 3.15625 10.433594 7.777344 12 10.5 C 13.195313 8.355469 15.195313 2.824219 15.175781 2 C 15.859375 2.597656 17.023438 3.894531 17.777344 4.515625 C 16.304688 5.589844 14.078125 10.496094 13.15625 12.804688 C 13.046875 13.140625 13.058594 14.023438 13.058594 14.023438 C 13.882813 14.621094 16.785156 17.546875 17.292969 18 C 15.742188 11.410156 17.9375 6.984375 19.410156 5.5 C 19.648438 5.734375 20.246094 6.273438 21 7 C 20.21875 7.988281 18.945313 10.304688 18.882813 13 C 18.789063 16.875 19.363281 18.976563 20.46875 20.5 C 19.976563 21.074219 19.582031 21.214844 18.882813 22 C 17.773438 21.039063 13.058594 16.792969 13.058594 16.792969 L 13.058594 19.5 C 13.09375 19.671875 12.882813 21.273438 13.589844 22 L 10.410156 22 C 10.929688 21.335938 10.929688 19.890625 10.941406 19.445313 L 10.941406 14.785156 C 10.328125 14.226563 7.363281 11.628906 7.09375 11.363281 C 7.414063 12.929688 7.421875 17.828125 5.117188 21.5 C 4.929688 21.242188 2.960938 19.558594 3 19.5 C 3.707031 18.453125 5.09375 15.703125 5.117188 13.5 C 5.160156 9.480469 3.683594 7.984375 3 7 Z"/></svg>