<svg xmlns="http://www.w3.org/2000/svg" viewBox="0 0 24 24"><path d="M 13.585938 3 L 12.585938 4 L 7 4 L 7 6 L 6 7 L 5 7 L 5 4 L 3 4 L 3 9 L 4 10 L 5 10 L 6 11 L 8 11 L 8 8 L 11 8 L 11 9 L 9 9 L 9 11 L 12 11 L 12 8 L 15 8 L 15 9 L 13 9 L 13 11 L 16 11 L 16 8 L 19 8 L 19 9 L 17 9 L 17 11 L 21 11 L 22 10 L 22 4.585938 L 20.414063 3 Z M 4 11 L 4 13 L 3 14 L 3 19 L 2 19 L 2 21 L 7 21 L 7 19 L 9 19 L 9 21 L 16.414063 21 L 17.414063 20 L 20.414063 20 L 22 18.414063 L 22 14 L 20 12 L 17 12 L 17 16 L 19 16 L 19 17 L 16 17 L 16 12 L 13 12 L 13 16 L 15 16 L 15 17 L 12 17 L 12 12 L 9 12 L 9 16 L 11 16 L 11 17 L 8 17 L 8 12 L 5.648438 12 L 4.648438 11 Z"/></svg>