<?xml version="1.0"?><svg xmlns="http://www.w3.org/2000/svg" viewBox="0 0 30 30">    <path d="M 17 3 C 10 3 10 9 7 10 C 7 10.452 7.0803125 10.915906 7.1953125 11.378906 C 6.6553125 11.818906 6.178 12.328 6 13 C 6.9691595 15.951433 9.5609749 17.231833 11 17.724609 L 11 19.4375 C 10.9977 19.45583 10.97739 19.655132 10.6875 20.013672 C 10.389196 20.382615 9.8505883 20.831554 8.6328125 21 L 7 21 C 5 21 3 22.995 3 25 L 3 27 L 24 27 L 24 26 C 24 24.484688 22.713672 22.841073 21.6875 22.246094 C 22.038661 21.791146 22.274534 21.347887 22.417969 21.017578 C 22.784447 20.172484 23.427987 19.517508 23.998047 18.574219 C 24.108052 18.392192 24.197725 18.188495 24.277344 17.974609 C 25.491097 17.851612 27 17 27 17 C 27 17 25 15.555 25 13 L 25 11 A 1.0001 1.0001 0 0 0 24.982422 10.798828 C 24.898269 9.3993366 23.721035 3 17 3 z M 14 11 C 14 11 17.976 12 18 12 C 18.595 12 20 11 20 11 L 22 12 C 22 12 22.484923 12.046399 23 11.867188 L 23 14 C 23 14.035823 23.002246 14.026006 23.003906 14.033203 C 23.001056 14.034703 22.91196 14.129593 22.863281 14.177734 L 21 15.585938 C 21 15.585938 21.423033 15.623514 21.923828 15.580078 C 22.093301 15.815539 22.358729 15.970519 22.666016 15.990234 C 22.762396 16.652089 22.591347 17.034355 22.285156 17.541016 C 21.885717 18.201976 21.117553 18.985797 20.582031 20.220703 C 20.46608 20.487719 20.182241 20.994777 19.800781 21.373047 C 19.419322 21.751315 18.99632 22 18.429688 22 C 17.13345 22 17.019196 21.284906 16.074219 20.404297 A 1.0001 1.0001 0 1 0 14.710938 21.867188 C 15.106432 22.235742 16.031011 23.682807 17.863281 23.945312 C 17.583059 25.105604 16.962891 26.453125 16.962891 26.453125 C 14.879518 24.822577 12.666725 23.355287 11.011719 22.289062 C 11.542021 21.986719 11.952951 21.629214 12.242188 21.271484 C 12.84429 20.526799 12.986328 19.732422 12.986328 19.732422 A 1.0001 1.0001 0 0 0 13 19.572266 L 13 18 L 14 18 C 14 18 11.617 14.481 14 11 z M 16.984375 14 C 16.965335 14 16.948652 14.001845 16.929688 14.001953 A 1 1 0 0 0 16.921875 14.003906 C 15.903304 14.010567 15 14.173197 15 14.78125 C 15 14.78125 15.498797 14.782605 16.017578 14.808594 A 1 1 0 0 0 16 15 A 1 1 0 0 0 17 16 A 1 1 0 0 0 17.96875 15.242188 C 18.616144 15.505434 19 15.761719 19 15.761719 C 19 14.428778 17.827692 14.100452 17.246094 14.03125 A 1 1 0 0 0 17 14 A 1 1 0 0 0 16.986328 14 C 16.986328 14 16.984375 14 16.984375 14 z"/></svg>