<svg xmlns="http://www.w3.org/2000/svg" viewBox="0 0 128 128"><path fill="#fff" d="M69 4A30 30 0 1 0 69 64A30 30 0 1 0 69 4Z"/><path fill="#444b54" d="M59.6,27c-0.1,0-0.2,0-0.4,0c-1.6-0.2-2.8-1.7-2.6-3.3c0.5-3.9,1.2-7.4,2.1-10.5 c0.5-1.6,2.2-2.5,3.7-2c1.6,0.5,2.5,2.2,2,3.7c-0.8,2.8-1.5,6-1.9,9.5C62.4,25.9,61.1,27,59.6,27z"/><path fill="#444b54" d="M69,67c-18.2,0-33-14.8-33-33S50.8,1,69,1s33,14.8,33,33S87.2,67,69,67z M69,7C54.1,7,42,19.1,42,34 s12.1,27,27,27s27-12.1,27-27S83.9,7,69,7z"/><path fill="#444b54" d="M69,1C50.8,1,36,15.8,36,34s14.8,33,33,33s33-14.8,33-33S87.2,1,69,1z M77.6,59.6 c1.8-3.8,3.1-9,3.8-15.2c0.2-1.6-1-3.1-2.6-3.3c-1.7-0.2-3.1,1-3.3,2.6C74,56,70.3,61,69,61c-14.9,0-27-12.1-27-27S54.1,7,69,7 c1.3,0,5,5,6.5,17.4c0.2,1.5,1.5,2.6,3,2.6c0.1,0,0.2,0,0.4,0c1.6-0.2,2.8-1.7,2.6-3.3c-0.7-6.3-2.1-11.4-3.8-15.2 c9.8,3.3,17.1,12,18.3,22.6H49c-1.7,0-3,1.3-3,3s1.3,3,3,3h46.8C94.7,47.6,87.4,56.3,77.6,59.6z"/><path fill="#444b54" d="M61.7,57c-1.3,0-2.5-0.8-2.9-2.1c-0.9-3.1-1.7-6.6-2.1-10.5c-0.2-1.6,1-3.1,2.6-3.3s3.1,1,3.3,2.6 c0.4,3.5,1.1,6.8,1.9,9.5c0.5,1.6-0.4,3.3-2,3.7C62.2,57,61.9,57,61.7,57z"/><path fill="#fff" d="M20.6,117.6v-35c0-1.9-1.6-3.4-3.5-3.4H9.3v35.5c0,1.7,1.3,3,3,3h8.3V117.6z"/><path fill="#efd5be" d="M111.6,88.2l-33.3,13.1l0,0c0.7-1.1,1.1-2.4,1-3.7c-0.3-3.1-3-5.3-6.1-5.3H57c-6.2-8.9-23-8.9-23-8.9 H20.6v26.8l31.7,9.9c0,0,9.5,2.8,16.5,0c5.8-2.4,40.3-20.2,47.7-24.1c1.4-0.7,3.4-2.9,2.3-5.5l0,0C117.8,88.3,116.1,86.9,111.6,88.2 z"/><path fill="#444b54" d="M73.3,106.9H50c-1.7,0-3-1.3-3-3s1.3-3,3-3h23.3c1.6,0,2.9-1.3,2.9-2.9c0-1.7,1.3-3,3-3s3,1.3,3,3 C82.2,103,78.2,106.9,73.3,106.9z"/><path fill="#444b54" d="M110.8 85.3c-.1 0-.2.1-.3.1l-23.8 9.8c-1.5.6-2.3 2.4-1.6 3.9.6 1.5 2.4 2.3 3.9 1.6l23.6-9.7c2.8-.8 3.1-.1 3.4.6.3.8-.9 1.6-1 1.6-8.3 4.4-41.8 21.7-47.4 24-5.9 2.4-14.4-.1-14.4-.1L23.6 108V86.3H34c4.2 0 16.2 1.4 20.5 7.6.6.8 1.5 1.3 2.5 1.3h16c1.6 0 3 1.2 3.2 2.6.1.8-.2 1.4-.5 1.8-.5.8-.7 1.8-.3 2.8.4.9 1.1 1.6 2.1 1.8l0 0c1.3.3 2.6-.3 3.3-1.4 1.1-1.7 1.6-3.6 1.4-5.5-.4-4.5-4.4-8.1-9.1-8.1H58.5C51 80.4 34.8 80.3 34 80.3H23.2c-.9-2.5-3.3-4.2-6.1-4.2h-4.8c-1.7 0-3 1.3-3 3s1.3 3 3 3h4.8c.3 0 .5.2.5.4v.8 26.8 4.4c0 1.7 1.3 3 3 3s3-1.3 3-3v-.3l27.8 8.7c.3.1 4.7 1.4 9.9 1.4 2.8 0 5.8-.4 8.5-1.5 6-2.4 40.5-20.3 47.9-24.2 3-1.6 5.3-5.4 3.7-9.3C120.3 86.4 117.4 83.4 110.8 85.3zM12.3 117.6c-.8 0-1.6-.3-2.1-.9-.1-.1-.3-.3-.4-.5-.1-.2-.2-.3-.3-.5s-.1-.4-.2-.6 0-.4 0-.6 0-.4 0-.6.1-.4.2-.6c.1-.2.2-.4.3-.5.1-.2.2-.3.4-.5 1.1-1.1 3.1-1.1 4.2 0 .6.6.9 1.3.9 2.1s-.3 1.6-.9 2.1S13.1 117.6 12.3 117.6z"/></svg>