<svg xmlns="http://www.w3.org/2000/svg" viewBox="0 0 40 40"><path fill="#dff0fe" d="M34,13.5c-2.481,0-4.5-2.019-4.5-4.5s2.019-4.5,4.5-4.5c3.196,0,4.5,0.82,4.5,2.833 C38.5,9.769,36.484,13.5,34,13.5z"/><path fill="#4788c7" d="M34,5c3.331,0,4,0.893,4,2.333C38,9.755,36.022,13,34,13c-2.206,0-4-1.794-4-4S31.794,5,34,5 M34,4 c-2.761,0-5,2.239-5,5s2.239,5,5,5s5-3.905,5-6.667C39,4.572,36.761,4,34,4L34,4z"/><path fill="#dff0fe" d="M6,13.5c-2.484,0-4.5-3.731-4.5-6.167C1.5,5.32,2.804,4.5,6,4.5c2.481,0,4.5,2.019,4.5,4.5 S8.481,13.5,6,13.5z"/><path fill="#4788c7" d="M6,5c2.206,0,4,1.794,4,4s-1.794,4-4,4c-2.022,0-4-3.245-4-5.667C2,5.893,2.669,5,6,5 M6,4 C3.239,4,1,4.572,1,7.333C1,10.095,3.239,14,6,14c2.761,0,5-2.239,5-5S8.761,4,6,4L6,4z"/><path fill="#fff" d="M20,29.5c-2.652,0-5.055-1.364-6.427-3.65L13.5,25.729l-0.126-0.065 C8.517,23.16,5.5,18.223,5.5,12.776V1.516h29v11.261c0,5.446-3.017,10.384-7.874,12.887L26.5,25.729l-0.073,0.121 C25.055,28.136,22.652,29.5,20,29.5z"/><path fill="#4788c7" d="M34,2.015v10.761c0,5.258-2.913,10.026-7.603,12.443l-0.253,0.13l-0.146,0.244 C24.717,27.726,22.475,29,20,29s-4.717-1.274-5.998-3.407l-0.146-0.244l-0.253-0.13C8.913,22.802,6,18.035,6,12.776V2.015H34 M35,1.015H5v11.761c0,5.812,3.311,10.841,8.145,13.331C14.543,28.437,17.086,30,20,30s5.457-1.563,6.855-3.892 C31.689,23.617,35,18.588,35,12.776V1.015L35,1.015z"/><path fill="#4788c7" d="M26 5A2 2 0 1 0 26 9 2 2 0 1 0 26 5zM14 5A2 2 0 1 0 14 9 2 2 0 1 0 14 5z"/><path fill="#fff" d="M6 1H34V3H6zM10 10H30V12H10z"/><path fill="#98ccfd" d="M24,19h-8c-0.55,0-1-0.45-1-1v0c0-0.55,0.45-1,1-1h8c0.55,0,1,0.45,1,1v0C25,18.55,24.55,19,24,19z"/><path fill="#fff" d="M5 1H35V3H5z"/><path fill="#4788c7" d="M5.5 4L5.5 4C5.775 4 6 3.775 6 3.5v-2C6 1.225 5.775 1 5.5 1h0C5.225 1 5 1.225 5 1.5v2C5 3.775 5.225 4 5.5 4zM34.5 4L34.5 4C34.775 4 35 3.775 35 3.5v-2C35 1.225 34.775 1 34.5 1l0 0C34.225 1 34 1.225 34 1.5v2C34 3.775 34.225 4 34.5 4z"/></svg>