<?xml version="1.0"?><svg xmlns="http://www.w3.org/2000/svg" viewBox="0 0 128 128">    <path d="M 80.449219 29.349609 C 78.782227 29.444531 77.1125 29.825 75.5 30.5 L 67.699219 33.699219 C 47.699219 41.999219 29.9 54.299219 15 70.199219 C 11.2 74.299219 8.7996094 79.400391 8.0996094 84.900391 L 7.5 89.099609 C 6.5 96.999609 6.5 104.90078 7.5 112.80078 L 8.0996094 117.40039 C 8.7996094 122.90039 13.5 127 19 127 L 36.099609 127 C 37.799609 127 39.099609 125.60039 39.099609 123.90039 C 39.099609 118.40039 43.599609 113.90039 49.099609 113.90039 C 54.399609 113.90039 58.699609 117.99922 59.099609 123.19922 C 58.999609 123.49922 59 123.7 59 124 C 59 125.7 60.3 127 62 127 L 114 127 C 120.1 127 125 122.1 125 116 L 125 83.5 C 125 79.5 124.3 75.499219 123 71.699219 C 116.8 54.499219 104.6 39.999219 88.5 31.199219 C 86 29.824219 83.227539 29.191406 80.449219 29.349609 z M 81.837891 35.199219 C 83.175391 35.274219 84.499219 35.650781 85.699219 36.300781 C 100.49922 44.500781 111.80039 57.699219 117.40039 73.699219 C 118.50039 76.799219 119.09961 80.1 119.09961 83.5 L 119.09961 116 L 119 116 C 119 118.8 116.8 121 114 121 L 64.900391 121 C 63.500391 113.6 56.999219 107.90039 49.199219 107.90039 C 41.399219 107.90039 34.9 113.5 33.5 121 L 19 121 C 16.5 121 14.4 119.09961 14 116.59961 L 13.400391 112 C 12.400391 104.6 12.400391 97.200781 13.400391 89.800781 L 14 85.599609 C 14.2 84.299609 14.500781 83.100391 14.800781 81.900391 L 14.900391 81.900391 L 88.599609 81.900391 C 90.299609 81.900391 91.599609 80.600391 91.599609 78.900391 C 91.599609 77.200391 90.299609 75.900391 88.599609 75.900391 L 18 75.900391 C 18.4 75.300391 18.900391 74.699219 19.400391 74.199219 C 33.700391 58.899219 50.799609 47.099609 70.099609 39.099609 L 77.900391 35.900391 C 79.150391 35.350391 80.500391 35.124219 81.837891 35.199219 z M 68.300781 47.900391 C 66.700781 47.800391 65.199609 48.999219 65.099609 50.699219 C 64.999609 52.399219 66.200391 53.800391 67.900391 53.900391 C 71.800391 54.200391 73.800391 55.900781 73.900391 56.800781 C 73.900391 57.900781 71.199609 59.999219 66.599609 60.199219 C 63.099609 60.299219 60.300781 59.200391 59.300781 57.900391 C 58.300781 56.600391 56.399609 56.300391 55.099609 57.400391 C 53.799609 58.400391 53.499609 60.299609 54.599609 61.599609 C 56.799609 64.499609 61.199609 66.199219 66.099609 66.199219 L 66.800781 66.199219 C 74.300781 65.899219 80.100391 61.699609 79.900391 56.599609 C 79.700391 51.899609 75.000781 48.400391 68.300781 47.900391 z M 101.09961 86.900391 C 97.899609 86.900391 94.899609 88.100391 92.599609 90.400391 C 90.299609 92.700391 89.099609 95.700391 89.099609 98.900391 C 89.099609 105.50039 94.499609 110.90039 101.09961 110.90039 C 107.69961 110.90039 113.09961 105.50039 113.09961 98.900391 C 113.09961 92.300391 107.69961 86.900391 101.09961 86.900391 z M 101.09961 92.900391 C 104.39961 92.900391 107.09961 95.600391 107.09961 98.900391 C 107.09961 102.20039 104.39961 104.90039 101.09961 104.90039 C 97.799609 104.90039 95.099609 102.20039 95.099609 98.900391 C 95.099609 97.300391 95.700391 95.799219 96.900391 94.699219 C 98.000391 93.599219 99.499609 92.900391 101.09961 92.900391 z"/></svg>