<svg xmlns="http://www.w3.org/2000/svg" viewBox="0 0 48 48"><path fill="#90a4ae" d="M26,34h-2V7h-4v2h-2V6c0-0.6,0.4-1,1-1h6c0.6,0,1,0.4,1,1V34z"/><path fill="#c7d1d6" d="M20 9H22V26H20z"/><path fill="#dee4e7" d="M16.3 9H20.1V26H16.3z"/><path fill="#90a4ae" d="M15 26H23V41H15z"/><path fill="#29b6f6" d="M17 27A6 6 0 1 0 17 39A6 6 0 1 0 17 27Z"/><path fill="#84d5f9" d="M17 29A4 4 0 1 0 17 37A4 4 0 1 0 17 29Z"/><path fill="#b1e4fc" d="M17 29A1.5 1.5 0 1 0 17 32A1.5 1.5 0 1 0 17 29Z"/><path fill="#c9d3d8" d="M23 26H35V41H23z"/><path fill="#b0bec5" d="M33 27H35V41H33z"/><path fill="#ff5722" d="M32 12H35V26H32zM23 30H35V32H23z"/><path fill="#ffab91" d="M32 22H35V24H32zM32 18H35V20H32zM32 14H35V16H32z"/><path fill="#90a4ae" d="M23 26H35V28H23zM9 41H40V43H9z"/></svg>