<svg xmlns="http://www.w3.org/2000/svg" width="512" height="512" viewBox="0 0 512 512"><path fill="#49A0AE" d="M256,7.9C393,7.9,504.1,119,504.1,256c0,137-111.1,248.1-248.1,248.1C119,504.1,7.9,393,7.9,256C7.9,119,119,7.9,256,7.9"/><path fill="#AF5C2B" d="M362.6,318.2c0,47.8-45.4,86.9-101.5,86.9c-56,0-101.5-39.2-101.5-86.9c0-47.8,45.4-86.5,101.5-86.5C317.1,231.7,362.6,270.5,362.6,318.2"/><path fill="#B6392F" d="M221.2 140.5c4.5-1.7 8.7-1.3 12.5-.3 3.8 1.1 7.3 3.1 10.2 5.8 2.9 2.7 5.2 6 6.6 9.8 1.3 3.8 1.9 8 .5 12.5-4.4-1.7-7.5-3.5-10.3-5.3-2.8-1.8-5.1-3.6-7.3-5.7-2.2-2.1-4.3-4.3-6.3-7C225.1 147.7 223.2 144.8 221.2 140.5M260.7 113.4c4.2 3.2 6.8 6.9 8.9 10.8 2 3.9 3.3 8.1 4 12.4.7 4.3.7 8.8-.3 13.3-1 4.4-2.8 9.2-6.8 12.7-2.3-4.7-4-8.3-5.4-12.1-1.3-3.8-2.3-7.6-2.9-11.5-.6-3.9-.8-7.9-.6-12.1C258 122.6 258.7 118.2 260.7 113.4"/><path fill="#B6392F" d="M276.9,122.6c3.3,3.7,5,7.6,6.1,11.6c1,4,1.3,8,0.9,12c-0.4,4-1.5,8-3.5,11.9c-2.1,3.7-5.1,7.8-10.1,9.2c-0.6-4.9-1.5-8.2-1.8-11.9c-0.3-3.6-0.4-7.1,0-10.7c0.3-3.5,1.1-7.1,2.3-10.8C272.2,130.2,273.9,126.5,276.9,122.6"/><path fill="#3C3D3C" d="M150.9,235.3c5.5-3.2,11.9-4.6,18.6-4.7c3.3,0.1,6.8,0.6,10.1,1.5c3.3,1,6.5,2.5,9.5,4.3c3,1.8,5.9,3.8,8.6,6.2c2.7,2.3,4.7,5.2,6,8.4c2.6,6.3,3.5,13.1,1.2,20.2l-1.5,0.5c-5.9-4.4-9.5-8.7-13.1-12.7c-1.7-2-3.1-4.1-4.4-6.3c-1.2-2.2-2.6-4.5-4.4-6.2c-1.8-1.8-3.8-3.4-6-4.7c-2.2-1.4-4.6-2.5-7.2-3.3c-5.2-1.8-11-2.2-16.9-1.5L150.9,235.3z"/><path fill="#3C3D3C" d="M149.4 212.5c3.7-2.8 7.9-4.9 12.5-6.3 4.6-1.4 9.6-1.9 14.7-1.2 5.1.8 10 3.1 14.2 6.2 4.1 3.2 7.4 7.2 10.2 11.3 2.8 4.4 5 8.1 7.3 12.2 2.2 4.1 4 8.4 5.1 13 1.1 4.6 1.7 9.4 1.6 14.3-.2 4.9-.6 10.1-3.8 14.6l-1.5-.5c-3.2-8.4-7.5-15.7-11-23.4-1.8-3.9-3.3-7.8-4.5-12-1.2-4.1-2.4-8.6-4-12.1-3.3-7.2-8.2-13.4-15.4-16.1-7.2-2.9-16.3-1.9-24.4 1.3L149.4 212.5zM189.6 200.4c3.9-1.7 8.4-1.8 12.8-.9 2.2.6 4.4 1.4 6.4 2.5 2 1.2 3.9 2.6 5.6 4.1 1.7 1.6 3.5 3.1 5.1 4.9 1.6 1.8 2.6 3.8 2.9 6 .4 2.2.4 4.5-.1 6.8-.5 2.3-1.4 4.6-3.2 6.9l-1.5.3c-2.6-1.4-4.3-2.8-5.8-4.2-1.6-1.4-2.7-2.7-3.8-4-1-1.3-1.6-2.7-1.9-4.2-.3-1.6-.6-3.2-1.3-4.5-.7-1.4-1.5-2.7-2.4-3.9-.9-1.3-2-2.5-3.2-3.5-2.4-2.2-5.7-3.8-9.3-4.7L189.6 200.4zM338.3 280.9c0 0-27.2 36.8-77.2 36.8-.4 0-.7-1.2-1-1.2h-.6c-.7 0-1.5 1.2-2.2 1.1-47.5-1.9-73.1-38.3-73.1-38.3-7 21-7 45-7 45 1.1 45.4 38.2 82.1 84 82.1 45.7 0 82.9-36.5 83.9-82C345 324.5 345 301.7 338.3 280.9"/><path fill="#E98130" d="M331.2,264.8c-3.5-5.8-6-12.2-7.8-18.4c-3-10.7-4-20.9-4.2-27.1c0-0.2,0-0.5,0-0.7c0-1.1-0.1-2.1-0.1-3.1c0-1.3,0-2,0-2l-0.1,0.1c-2.6-29.8-27.5-53.1-57.9-53.1c-30.4,0-56.4,23.3-59,53l-1.1,0v0.4c0,1.6,0.9,3.1,0.9,4.7c0,0.5,0.6,1,0.6,1.4c-0.3,5.9-0.9,15-3.5,24.7c-1.8,6.8-4.3,13.8-8.1,20.1c-2.8,4.6-5,8.6-6.8,14c0,0,25.6,37.7,73.2,37.7l0,0h2.2h0.6c0.3,0,0.7,1.2,1,1.2c50,0,77.3-37.4,77.3-37.4C336.5,274.5,334.2,269.6,331.2,264.8"/><path fill="#E9575B" d="M282,259.7L282,259.7c0-13-11.7-23.4-21.3-23.4c-9.6,0-21.3,10.5-21.3,23.4c0,5.2-0.4,18.8,9.4,18.8c2.9,0,5.4-1.3,7.1-3.4c1.6,0.2,3.2,0.3,4.8,0.3c1.6,0,3.2-0.1,4.8-0.3c1.7,2,4.3,3.4,7.1,3.4C282.4,278.4,282,264.8,282,259.7"/><path fill="#E9575B" d="M284.9,193.7c-10.7,0-19.9,6.2-23.8,15c0,0,0,0,0-0.1c-4-8.8-13.1-14.9-23.8-14.9c-14.3,0-25.9,11-25.9,24.6c0,13.6,11.6,24.6,25.9,24.6c10.7,0,19.8,1.6,23.8-7.2c0,0,0,0,0-0.1c3.9,8.8,13.1,7.2,23.8,7.2c14.3,0,25.9-11,25.9-24.6C310.8,204.7,299.2,193.7,284.9,193.7"/><path fill="#F29D2B" d="M256.5,236.9l-6.3,4.1c-2.5,1.7-3.3,5.1-1.8,7.7l9.8,16.5c0.8,1.3,1.8,2,2.8,2v-31.6C259.4,235.6,257.8,236,256.5,236.9"/><path fill="#FADC58" d="M263.9,265.2l9.8-16.5c1.5-2.6,0.8-6.1-1.8-7.7l-6.3-4.1c-1.3-0.8-2.9-1.2-4.6-1.2v31.6C262.1,267.2,263.1,266.5,263.9,265.2"/><path fill="#4D1715" d="M241.8 218.3c0 4.6-3.8 8.4-8.4 8.4-4.6 0-8.4-3.8-8.4-8.4 0-4.6 3.8-8.4 8.4-8.4C238 209.9 241.8 213.7 241.8 218.3M296.4 218.3c0 4.6-3.8 8.4-8.4 8.4-4.6 0-8.4-3.8-8.4-8.4 0-4.6 3.8-8.4 8.4-8.4C292.6 209.9 296.4 213.7 296.4 218.3"/><path fill="#FFF" d="M239.4 215c0 1.6-1.3 2.9-2.9 2.9-1.6 0-2.9-1.3-2.9-2.9 0-1.6 1.3-2.9 2.9-2.9C238.1 212.1 239.4 213.4 239.4 215M293.7 215c0 1.6-1.3 2.9-2.9 2.9s-2.9-1.3-2.9-2.9c0-1.6 1.3-2.9 2.9-2.9S293.7 213.4 293.7 215"/><path fill="#E9575B" d="M222.6,105.4c7.6,4.2,13.4,9.1,18.8,13.2c1.3,1,2.6,2,3.7,2.7c0.6,0.4,1.1,0.6,1.6,1l2.2,1.4c3.1,2.1,6.7,5.1,9.6,8.8c6,7.4,8.7,16.7,8.9,25c0.1,8.5-1.9,16.5-6.6,23.9c-4.9-7.2-8-13.9-11.2-19.8c-3.1-5.9-6-10.6-9.2-14.6c-1.6-2.1-3.4-4-5.9-6.7l-2-2.2c-0.8-0.9-1.6-2-2.3-2.9c-1.4-1.9-2.4-3.8-3.3-5.7C223.4,122,221.8,114.2,222.6,105.4"/></svg>