<svg xmlns="http://www.w3.org/2000/svg" viewBox="0 0 30 30"><path d="M 15 1 C 14.448 1 14 1.448 14 2 L 14 3 L 13 3 A 1.0001 1.0001 0 1 0 13 5 L 14 5 L 14 6.5859375 L 10 9 L 10 11.501953 L 5.0351562 14.115234 A 1.0001 1.0001 0 1 0 5.9648438 15.884766 L 6 15.867188 L 6 27 L 24 27 L 24 15.867188 L 24.035156 15.884766 A 1.0001 1.0001 0 1 0 24.964844 14.115234 L 20 11.501953 L 20 9 L 16 6.5859375 L 16 5 L 17 5 A 1.0001 1.0001 0 1 0 17 3 L 16 3 L 16 2 C 16 1.448 15.552 1 15 1 z M 17.642578 14.005859 C 17.827578 13.968859 18 14.109828 18 14.298828 L 18 16.259766 C 18 16.407766 17.895 16.535453 17.75 16.564453 L 15 17.386719 L 15 21.177734 C 15 22.662734 14.492422 24 12.732422 24 C 11.592422 24 11 23.337891 11 22.337891 C 11 19.733891 14 20.655203 14 19.408203 L 14 15.763672 C 14 15.312672 14.301328 14.917828 14.736328 14.798828 L 17.642578 14.005859 z"/></svg>