<svg xmlns="http://www.w3.org/2000/svg" viewBox="0 0 50 50"><path d="M 24 7 C 19 7 13.992188 10.6875 10.09375 13.65625 C 10.09375 13.65625 6.671875 16.210938 5.5625 17 C 1.871094 19.648438 0 21 0 23 C 0.0078125 23.792969 0.527344 24.496094 1.28125 24.75 C 1.835938 24.949219 2.410156 25.03125 3 25 C 6.007813 24.839844 8.941406 23.976563 11.5625 22.5 C 12.054688 19.6875 12.902344 16.96875 14.09375 14.375 C 14.453125 13.953125 15.078125 13.890625 15.5 14.25 C 15.777344 14.484375 15.917969 14.863281 15.84375 15.21875 C 14.046875 19.242188 13.078125 23.59375 13 28 C 13 33.738281 17.371094 37 25 37 C 32.628906 37 37 33.710938 37 28 C 37.011719 23.570313 36.125 19.175781 34.40625 15.09375 C 34.214844 14.660156 34.363281 14.152344 34.75 13.875 C 35.21875 13.585938 35.835938 13.71875 36.125 14.1875 C 36.136719 14.207031 36.144531 14.230469 36.15625 14.25 C 37.339844 16.917969 38.128906 19.734375 38.53125 22.625 C 41.136719 24.046875 44.035156 24.867188 47 25 C 47.589844 25.03125 48.164063 24.949219 48.71875 24.75 C 49.472656 24.496094 49.992188 23.792969 50 23 C 50 21 48.136719 19.648438 44.4375 17 C 43.335938 16.210938 39.875 13.65625 39.875 13.65625 C 35.984375 10.6875 31 7 26 7 C 25.941406 6.996094 25.902344 6.996094 25.84375 7 L 24.1875 7 C 24.125 6.992188 24.0625 6.992188 24 7 Z M 25 10 C 26.65625 10 28 11.34375 28 13 C 28 14.65625 26.65625 16 25 16 C 23.34375 16 22 14.65625 22 13 C 22 11.34375 23.34375 10 25 10 Z M 25 11 C 23.902344 11 23 11.902344 23 13 C 22.996094 13.179688 23.09375 13.347656 23.246094 13.4375 C 23.402344 13.53125 23.597656 13.53125 23.753906 13.4375 C 23.90625 13.347656 24.003906 13.179688 24 13 C 24 12.441406 24.441406 12 25 12 C 25.179688 12.003906 25.347656 11.90625 25.4375 11.753906 C 25.53125 11.597656 25.53125 11.402344 25.4375 11.246094 C 25.347656 11.09375 25.179688 10.996094 25 11 Z M 20.5 16.03125 C 21.652344 16.03125 22.785156 16.441406 23.6875 17.28125 C 24.105469 17.640625 24.171875 18.269531 23.8125 18.6875 C 23.453125 19.105469 22.824219 19.171875 22.40625 18.8125 C 22.367188 18.78125 22.3125 18.726563 22.28125 18.6875 C 21.257813 17.78125 19.710938 17.78125 18.6875 18.6875 C 18.269531 19.046875 17.640625 19.011719 17.28125 18.59375 C 16.960938 18.21875 16.960938 17.65625 17.28125 17.28125 C 18.183594 16.441406 19.347656 16.03125 20.5 16.03125 Z M 29.5 16.03125 C 30.644531 16.03125 31.785156 16.449219 32.6875 17.28125 C 33.105469 17.640625 33.171875 18.269531 32.8125 18.6875 C 32.453125 19.105469 31.824219 19.171875 31.40625 18.8125 C 31.367188 18.78125 31.3125 18.726563 31.28125 18.6875 C 30.257813 17.78125 28.710938 17.78125 27.6875 18.6875 C 27.269531 19.046875 26.640625 19.011719 26.28125 18.59375 C 25.960938 18.21875 25.960938 17.65625 26.28125 17.28125 C 27.1875 16.4375 28.347656 16.03125 29.5 16.03125 Z M 22 20 C 22.550781 20 23 20.449219 23 21 C 23.042969 21.011719 23.082031 21.011719 23.125 21 C 23.550781 20.945313 23.949219 20.710938 24.21875 20.375 C 24.40625 20.128906 24.691406 20 25 20 C 25.3125 20.003906 25.59375 20.15625 25.78125 20.40625 C 26.050781 20.738281 26.449219 20.945313 26.875 21 L 27 21 C 27 20.449219 27.445313 20 28 20 C 28.023438 20 28.039063 20 28.0625 20 C 28.589844 20.03125 29 20.46875 29 21 C 28.96875 22.136719 28.042969 23.03125 26.90625 23 L 26.875 23 C 26.195313 22.992188 25.542969 22.78125 25 22.375 C 24.460938 22.78125 23.800781 22.988281 23.125 23 C 22.023438 23.070313 21.070313 22.226563 21 21.125 C 20.996094 21.082031 21 21.046875 21 21 C 21 20.449219 21.449219 20 22 20 Z M 20 24.96875 C 20.128906 24.972656 20.25 25.003906 20.375 25.0625 C 20.394531 25.070313 20.417969 25.085938 20.4375 25.09375 C 21.734375 25.65625 22.679688 26.78125 23 28.15625 C 23.160156 28.988281 22.902344 29.859375 22.3125 30.46875 L 22.28125 30.46875 C 21.703125 31.054688 20.917969 31.394531 20.09375 31.375 C 19.09375 31.375 17.359375 30.898438 15.25 28.6875 C 14.867188 28.289063 14.882813 27.632813 15.28125 27.25 C 15.679688 26.867188 16.335938 26.914063 16.71875 27.3125 C 18.429688 29.101563 19.5625 29.375 20.09375 29.375 C 20.375 29.382813 20.664063 29.28125 20.875 29.09375 C 21.019531 28.9375 21.058594 28.703125 21 28.5 C 20.785156 27.765625 20.238281 27.164063 19.53125 26.875 C 19.027344 26.644531 18.832031 26.066406 19.0625 25.5625 C 19.234375 25.1875 19.609375 24.957031 20 24.96875 Z M 29.90625 25 C 30.292969 24.964844 30.679688 25.164063 30.875 25.53125 C 31.136719 26.019531 30.957031 26.613281 30.46875 26.875 C 30.449219 26.886719 30.425781 26.898438 30.40625 26.90625 C 29.714844 27.203125 29.210938 27.777344 29 28.5 C 28.941406 28.703125 28.980469 28.9375 29.125 29.09375 C 29.328125 29.289063 29.625 29.394531 29.90625 29.375 C 30.4375 29.375 31.570313 29.101563 33.28125 27.3125 C 33.664063 26.921875 34.289063 26.910156 34.6875 27.28125 C 35.074219 27.671875 35.074219 28.296875 34.6875 28.6875 C 32.578125 30.898438 30.914063 31.375 29.875 31.375 C 29.050781 31.394531 28.234375 31.054688 27.65625 30.46875 C 27.070313 29.855469 26.835938 28.984375 27 28.15625 C 27.320313 26.792969 28.25 25.691406 29.53125 25.125 C 29.652344 25.058594 29.777344 25.011719 29.90625 25 Z M 14.25 35.65625 C 13.71875 35.875 13.007813 36.203125 12.15625 36.625 C 9.496094 37.863281 7.625 39.617188 7.15625 41.1875 C 6.945313 41.785156 6.980469 42.445313 7.28125 43 C 7.472656 43.308594 7.859375 44 9.28125 44 C 10.53125 44 12.546875 43.53125 15.875 42 C 18.316406 40.859375 20.269531 39.917969 21.25 38.71875 C 18.675781 38.378906 16.246094 37.316406 14.25 35.65625 Z M 35.34375 35.875 C 33.148438 37.535156 30.523438 38.546875 27.78125 38.78125 C 28.820313 39.992188 30.710938 40.871094 33.0625 42 C 36.390625 43.558594 38.417969 44 39.65625 44 C 41.117188 44 41.507813 43.351563 41.65625 43 C 41.980469 42.433594 42.0625 41.738281 41.84375 41.125 C 41.355469 39.503906 39.472656 37.8125 36.84375 36.5625 Z"/></svg>