<svg xmlns="http://www.w3.org/2000/svg" viewBox="0 0 24 24"><path d="M 11 0 L 11 2 L 9 2 L 9 4 L 11 4 L 11 7.15625 L 7 11 L 7 14.09375 L 1.5 17.125 L 2.5 18.875 L 3 18.59375 L 3 24 L 9 24 L 9 23 C 9 21.300781 10.300781 20 12 20 C 13.699219 20 15 21.300781 15 23 L 15 24 L 21 24 L 21 18.53125 L 21.46875 18.84375 L 22.53125 17.15625 L 17 13.5625 L 17 11 L 13 7.15625 L 13 4 L 15 4 L 15 2 L 13 2 L 13 0 Z M 12 11.90625 C 13.199219 11.90625 14.09375 12.800781 14.09375 14 C 14.09375 15.199219 13.101563 16.09375 12 16.09375 C 10.898438 16.09375 9.90625 15.199219 9.90625 14 C 9.90625 12.800781 10.800781 11.90625 12 11.90625 Z"/></svg>