<svg xmlns="http://www.w3.org/2000/svg" viewBox="0 0 48 48"><radialGradient id="9hcq18y3E9Xh2pwkGf2xla" cx="-1.616" cy="26.716" r="6.571" gradientTransform="rotate(-45.001 23.287 29.5)" gradientUnits="userSpaceOnUse"><stop offset=".001" stop-color="#818180"/><stop offset="1" stop-color="#434243"/></radialGradient><path fill="url(#9hcq18y3E9Xh2pwkGf2xla)" d="M5.631,37.388c0,0-0.516,0.382-0.651,0.741c-0.135,0.359-0.335,1.014-0.47,1.284 S3.69,40.85,3.649,41.279c-0.048,0.503,0.129,1.577,0.129,1.577c0.106,0.58,0.158,1.228,0.494,1.439 c0.35,0.22,1.325,0.968,1.652,0.957c0.766-0.024,1.39,0.349,1.771,0.551c0.382,0.202,1.954-0.179,2.066-0.426 s0.987-0.763,0.987-0.763l0.76-0.717l-0.692-2.537l-2.02-2.783L5.631,37.388z"/><linearGradient id="9hcq18y3E9Xh2pwkGf2xlb" x1="29.263" x2="29.263" y1="23.586" y2="30.808" gradientTransform="rotate(-45.001 23.287 29.5)" gradientUnits="userSpaceOnUse"><stop offset="0" stop-color="#dadada"/><stop offset=".244" stop-color="#f6f6f6"/><stop offset=".621" stop-color="#bebebe"/><stop offset="1" stop-color="#a4a5a4"/></linearGradient><path fill="url(#9hcq18y3E9Xh2pwkGf2xlb)" d="M46.286,9.176L11.459,44.003c-0.237-0.409-0.373-0.835-0.335-1.289 c0.069-1.396-2.206-1.229-2.39-2.113c-0.436-1.473-1.937-0.33-2.093-1.612c-0.247-0.773-0.814-1.156-1.432-1.237L40.035,2.925 L46.286,9.176z"/><linearGradient id="9hcq18y3E9Xh2pwkGf2xlc" x1="5.719" x2="5.809" y1="23.313" y2="30.689" gradientTransform="rotate(-45.001 23.287 29.5)" gradientUnits="userSpaceOnUse"><stop offset=".001" stop-color="#c6b7af" stop-opacity=".5"/><stop offset="1" stop-color="#968b84"/></linearGradient><path fill="url(#9hcq18y3E9Xh2pwkGf2xlc)" d="M11.397,44.066l1.649-1.649c-0.192-0.47-0.582-0.864-1.216-1.058 c-1.416-0.152-0.624-0.592-2.248-1.05c-0.975-0.189-0.579-1.644-1.597-1.952c-1.527,0.188-0.694-1.956-1.278-2.104l-1.562,1.562 c0.635,0.064,1.208,0.441,1.438,1.231c0.12,1.318,1.706,0.089,2.109,1.596c0.162,0.906,2.516,0.661,2.399,2.104 C11.038,43.215,11.165,43.651,11.397,44.066z"/><linearGradient id="9hcq18y3E9Xh2pwkGf2xld" x1="43.187" x2="43.187" y1="22.901" y2="31.508" gradientTransform="rotate(-45.001 23.287 29.5)" gradientUnits="userSpaceOnUse"><stop offset="0" stop-color="#e39f42"/><stop offset=".244" stop-color="#fdc424"/><stop offset=".621" stop-color="#e39f42"/><stop offset="1" stop-color="#b36100"/></linearGradient><path fill="url(#9hcq18y3E9Xh2pwkGf2xld)" d="M46.91,8.552L30.213,25.249l-6.251-6.251L40.659,2.302c0.149-0.149,0.39-0.149,0.539,0 l5.712,5.712C47.058,8.162,47.058,8.404,46.91,8.552z"/><linearGradient id="9hcq18y3E9Xh2pwkGf2xle" x1="29.477" x2="29.477" y1="22.552" y2="31.392" gradientTransform="rotate(-45.001 23.287 29.5)" gradientUnits="userSpaceOnUse"><stop offset="0" stop-color="#cca65c"/><stop offset=".316" stop-color="#f8e1ab"/><stop offset=".713" stop-color="#a77831"/><stop offset=".958" stop-color="#99621a"/></linearGradient><polygon fill="url(#9hcq18y3E9Xh2pwkGf2xle)" points="29.32,26.142 28.683,26.779 22.432,20.528 23.069,19.892"/><g opacity=".69"><linearGradient id="9hcq18y3E9Xh2pwkGf2xlf" x1="27.693" x2="27.693" y1="22.552" y2="31.392" gradientTransform="rotate(-45.001 23.287 29.5)" gradientUnits="userSpaceOnUse"><stop offset=".006" stop-color="#ddd"/><stop offset="1" stop-color="#939393"/></linearGradient><polygon fill="url(#9hcq18y3E9Xh2pwkGf2xlf)" points="27.973,27.489 27.508,27.954 21.257,21.704 21.722,21.238" opacity=".44"/><linearGradient id="9hcq18y3E9Xh2pwkGf2xlg" x1="25.88" x2="25.88" y1="22.552" y2="31.392" gradientTransform="rotate(-45.001 23.287 29.5)" gradientUnits="userSpaceOnUse"><stop offset=".006" stop-color="#ddd"/><stop offset="1" stop-color="#939393"/></linearGradient><polygon fill="url(#9hcq18y3E9Xh2pwkGf2xlg)" points="26.691,28.771 26.225,29.237 19.974,22.986 20.44,22.521" opacity=".44"/><linearGradient id="9hcq18y3E9Xh2pwkGf2xlh" x1="24.066" x2="24.066" y1="22.552" y2="31.392" gradientTransform="rotate(-45.001 23.287 29.5)" gradientUnits="userSpaceOnUse"><stop offset=".006" stop-color="#ddd"/><stop offset="1" stop-color="#939393"/></linearGradient><polygon fill="url(#9hcq18y3E9Xh2pwkGf2xlh)" points="25.408,30.054 24.943,30.519 18.692,24.269 19.157,23.803" opacity=".44"/><linearGradient id="9hcq18y3E9Xh2pwkGf2xli" x1="22.252" x2="22.252" y1="22.552" y2="31.392" gradientTransform="rotate(-45.001 23.287 29.5)" gradientUnits="userSpaceOnUse"><stop offset=".006" stop-color="#ddd"/><stop offset="1" stop-color="#939393"/></linearGradient><polygon fill="url(#9hcq18y3E9Xh2pwkGf2xli)" points="24.126,31.336 23.66,31.802 17.409,25.551 17.875,25.086" opacity=".44"/><linearGradient id="9hcq18y3E9Xh2pwkGf2xlj" x1="20.439" x2="20.439" y1="22.552" y2="31.392" gradientTransform="rotate(-45.001 23.287 29.5)" gradientUnits="userSpaceOnUse"><stop offset=".006" stop-color="#ddd"/><stop offset="1" stop-color="#939393"/></linearGradient><polygon fill="url(#9hcq18y3E9Xh2pwkGf2xlj)" points="22.843,32.619 22.378,33.084 16.127,26.833 16.592,26.368" opacity=".44"/><linearGradient id="9hcq18y3E9Xh2pwkGf2xlk" x1="18.625" x2="18.625" y1="22.552" y2="31.392" gradientTransform="rotate(-45.001 23.287 29.5)" gradientUnits="userSpaceOnUse"><stop offset=".006" stop-color="#ddd"/><stop offset="1" stop-color="#939393"/></linearGradient><polygon fill="url(#9hcq18y3E9Xh2pwkGf2xlk)" points="21.561,33.901 21.095,34.367 14.844,28.116 15.31,27.65" opacity=".44"/><linearGradient id="9hcq18y3E9Xh2pwkGf2xll" x1="16.811" x2="16.811" y1="22.552" y2="31.392" gradientTransform="rotate(-45.001 23.287 29.5)" gradientUnits="userSpaceOnUse"><stop offset=".006" stop-color="#ddd"/><stop offset="1" stop-color="#939393"/></linearGradient><polygon fill="url(#9hcq18y3E9Xh2pwkGf2xll)" points="20.278,35.184 19.813,35.649 13.562,29.398 14.027,28.933" opacity=".44"/><linearGradient id="9hcq18y3E9Xh2pwkGf2xlm" x1="14.998" x2="14.998" y1="22.552" y2="31.392" gradientTransform="rotate(-45.001 23.287 29.5)" gradientUnits="userSpaceOnUse"><stop offset=".006" stop-color="#ddd"/><stop offset="1" stop-color="#939393"/></linearGradient><polygon fill="url(#9hcq18y3E9Xh2pwkGf2xlm)" points="18.996,36.466 18.53,36.932 12.28,30.681 12.745,30.215" opacity=".44"/><linearGradient id="9hcq18y3E9Xh2pwkGf2xln" x1="13.184" x2="13.184" y1="22.552" y2="31.392" gradientTransform="rotate(-45.001 23.287 29.5)" gradientUnits="userSpaceOnUse"><stop offset=".006" stop-color="#ddd"/><stop offset="1" stop-color="#939393"/></linearGradient><polygon fill="url(#9hcq18y3E9Xh2pwkGf2xln)" points="17.713,37.749 17.248,38.214 10.997,31.963 11.463,31.498" opacity=".44"/><linearGradient id="9hcq18y3E9Xh2pwkGf2xlo" x1="11.37" x2="11.37" y1="22.552" y2="31.392" gradientTransform="rotate(-45.001 23.287 29.5)" gradientUnits="userSpaceOnUse"><stop offset=".006" stop-color="#ddd"/><stop offset="1" stop-color="#939393"/></linearGradient><polygon fill="url(#9hcq18y3E9Xh2pwkGf2xlo)" points="16.431,39.031 15.965,39.497 9.715,33.246 10.18,32.78" opacity=".44"/><linearGradient id="9hcq18y3E9Xh2pwkGf2xlp" x1="9.557" x2="9.557" y1="22.552" y2="31.392" gradientTransform="rotate(-45.001 23.287 29.5)" gradientUnits="userSpaceOnUse"><stop offset=".006" stop-color="#ddd"/><stop offset="1" stop-color="#939393"/></linearGradient><polygon fill="url(#9hcq18y3E9Xh2pwkGf2xlp)" points="15.148,40.314 14.683,40.779 8.432,34.528 8.898,34.063" opacity=".44"/><linearGradient id="9hcq18y3E9Xh2pwkGf2xlq" x1="7.743" x2="7.743" y1="22.552" y2="31.392" gradientTransform="rotate(-45.001 23.287 29.5)" gradientUnits="userSpaceOnUse"><stop offset=".006" stop-color="#ddd"/><stop offset="1" stop-color="#939393"/></linearGradient><polygon fill="url(#9hcq18y3E9Xh2pwkGf2xlq)" points="13.866,41.596 13.4,42.062 7.15,35.811 7.615,35.345" opacity=".44"/></g><g opacity=".53"><path fill="#fcc324" d="M28.85,15.14c0.317,0.404,0.591,0.937,1.081,0.274c0.488-0.66,0.118-1.948-0.198-2.187 l-0.896,0.896C28.701,14.559,28.622,14.849,28.85,15.14z"/><path fill="#fcc324" d="M30.187,22.093c0.621-0.216,0.735-0.381,0.781-0.85s0.078-1.085-0.543-0.869 c-0.621,0.216-1.169,1.151-1.23,1.699C29.134,22.622,30.187,22.093,30.187,22.093z"/><path fill="#fcc324" d="M32.887,13.554c0.231-0.548,0.461-1.096-0.101-1.024c-0.562,0.072-1.283,0.418-1.485,0.851 c-0.216,0.463-0.346,1.153,0.043,1.081C31.733,14.39,32.656,14.102,32.887,13.554z"/><path fill="#fcc324" d="M26.89,18.542c0.274,0.303,0.577,0.173,0.706-0.303c0.13-0.476,0.562-0.591,0.216-0.966 c-0.346-0.375-0.735,0.13-0.793,0.332C26.866,18.143,26.616,18.239,26.89,18.542z"/><path fill="#fcc324" d="M32.209,15.933c-0.505-0.303-1.73-0.058-1.946,0.216c-0.172,0.218,0.058,0.663,0.548,0.75 c0.49,0.086,1.024,0.274,1.254-0.101C32.296,16.423,32.714,16.235,32.209,15.933z"/><path fill="#fcc324" d="M34.379,14.172c-0.207,0.132-0.386,0.297-0.495,0.51c-0.36,0.706-0.13,1.081,0.505,0.735 c0.634-0.346,1.139-0.245,1.543-0.678c0.378-0.405,0.505-0.937-0.043-0.966c-0.052-0.003-0.112-0.001-0.172,0.001 c-0.026-0.032-0.042-0.066-0.082-0.096c-0.308-0.231-0.848,0.077-1.099,0.328C34.484,14.057,34.431,14.114,34.379,14.172z"/><path fill="#fcc324" d="M28.966,17.735c-0.173,0.634-0.101,0.822,0.259,1.124c0.36,0.303,0.851,0.678,1.024,0.043 c0.173-0.634-0.288-1.615-0.706-1.975C29.124,16.567,28.966,17.735,28.966,17.735z"/><path fill="#fcc324" d="M32.943,19.03c0.05-0.05,0.104-0.108,0.155-0.165c0.207-0.132,0.386-0.297,0.495-0.51 c0.36-0.706,0.13-1.081-0.505-0.735c-0.634,0.346-1.139,0.245-1.543,0.678c-0.378,0.405-0.505,0.937,0.043,0.966 c0.052,0.003,0.112,0.001,0.172-0.001c0.026,0.032,0.042,0.066,0.082,0.096C32.152,19.589,32.692,19.28,32.943,19.03z"/><path fill="#fcc324" d="M35.412,16.239c-0.231,0.375-0.649,0.562-0.144,0.865c0.505,0.303,1.73,0.058,1.946-0.216 c0.172-0.218-0.058-0.663-0.548-0.75C36.176,16.052,35.643,15.864,35.412,16.239z"/><path fill="#fcc324" d="M38.868,8.733C38.465,8.3,37.96,8.401,37.326,8.055c-0.634-0.346-0.865,0.029-0.505,0.735 c0.36,0.706,1.456,0.937,2.004,0.908C39.373,9.67,39.247,9.138,38.868,8.733z"/><path fill="#fcc324" d="M27.063,16.61c0.159-0.187,0.461-0.231,0.692-0.433c0.231-0.202,0.231-0.288,0.058-0.461 c-0.063-0.063-0.269-0.085-0.501-0.067l-0.782,0.782C26.67,16.705,26.942,16.753,27.063,16.61z"/><path fill="#fcc324" d="M38.987,12.375c-0.144,0.259-0.822,0.706-0.187,0.879c0.634,0.173,1.932,0.375,2.09-0.043 c0.103-0.271-0.332-0.879-0.663-0.923C39.895,12.246,39.131,12.116,38.987,12.375z"/><path fill="#fcc324" d="M36.133,18.574c-0.389,0.072-1.312,0.36-1.542,0.908c-0.231,0.548-0.461,1.096,0.101,1.024 c0.11-0.014,0.228-0.047,0.345-0.08l1.32-1.32C36.417,18.79,36.38,18.529,36.133,18.574z"/><path fill="#fcc324" d="M34.719,11.318c-0.039,0.328-0.348,0.602-0.458,1c-0.11,0.398-0.046,0.496,0.277,0.562 c0.323,0.066,1.606-0.989,1.253-1.454C35.337,10.829,34.758,10.99,34.719,11.318z"/><path fill="#fcc324" d="M37.29,10.944c-0.621,0.216-0.735,0.381-0.781,0.85c-0.046,0.468-0.078,1.085,0.543,0.869 s1.169-1.151,1.23-1.699S37.29,10.944,37.29,10.944z"/><path fill="#fcc324" d="M34.896,9.181c-0.539,0.285-1.009-0.007-1.054,0.622c-0.046,0.629,0.739,0.554,0.969,0.435 c0.616-0.316,0.914-0.172,0.955-0.675C35.808,9.059,35.435,8.896,34.896,9.181z"/><path fill="#fcc324" d="M37.228,14.134c-0.173,0.634,0.288,1.615,0.706,1.975c0.418,0.36,0.577-0.807,0.577-0.807 c0.173-0.634,0.101-0.822-0.259-1.124C37.892,13.875,37.401,13.5,37.228,14.134z"/><path fill="#fcc324" d="M41.737,10.218c-0.634,0.173,0.043,0.62,0.187,0.879c0.144,0.259,0.908,0.13,1.24,0.086 c0.332-0.043,0.766-0.652,0.663-0.923C43.669,9.843,42.371,10.045,41.737,10.218z"/><path fill="#fcc324" d="M31.917,11.044c0.486,0.193,1.079,0.252,1.438,0.155c0.533-0.143-0.343-0.931-0.343-0.931 c-0.059-0.069-0.106-0.11-0.157-0.163L31.917,11.044z"/><path fill="#fcc324" d="M25.691,17.655c-0.008-0.14,0.009-0.272,0.01-0.396l-0.947,0.947 c0.133-0.006,0.257-0.028,0.34-0.069C25.325,18.021,25.711,17.983,25.691,17.655z"/><path fill="#fcc324" d="M42.818,8.675c0.13,0.476,0.432,0.605,0.706,0.303c0.274-0.303,0.024-0.399-0.13-0.937 c-0.058-0.202-0.447-0.706-0.793-0.332C42.256,8.084,42.689,8.199,42.818,8.675z"/><path fill="#fcc324" d="M39.122,3.838L38.31,4.65c0.286,0.13,0.58,0.215,0.76,0.248 C39.454,4.969,39.333,4.301,39.122,3.838z"/><path fill="#fcc324" d="M28.49,20.661c0.144-0.259,0.822-0.706,0.187-0.879c-0.634-0.173-1.932-0.375-2.09,0.043 c-0.103,0.271,0.332,0.879,0.663,0.923C27.582,20.791,28.346,20.921,28.49,20.661z"/><path fill="#fcc324" d="M31.71,23.474c-0.008,0.098,0.012,0.173,0.033,0.244l0.918-0.918 C32.049,23.114,31.752,22.972,31.71,23.474z"/><path fill="#fcc324" d="M46.4,8.38c0.193-0.193-0.135-0.559-0.385-0.81c-0.251-0.251-0.79-0.559-1.099-0.328 c-0.308,0.231-0.173,0.52-0.193,0.848c-0.019,0.328,0.366,0.366,0.598,0.482C45.552,8.689,46.063,8.718,46.4,8.38z"/><path fill="#fcc324" d="M41.189,9.295c0.36-0.303,0.432-0.49,0.259-1.124c0,0-0.159-1.168-0.577-0.807 c-0.418,0.36-0.879,1.341-0.706,1.975S40.829,9.598,41.189,9.295z"/><path fill="#fcc324" d="M40.587,14.495c-0.274-0.303-0.577-0.173-0.706,0.303c-0.13,0.476-0.562,0.591-0.216,0.966 c0.007,0.008,0.015,0.004,0.022,0.012l1.008-1.008C40.702,14.683,40.684,14.601,40.587,14.495z"/><path fill="#fcc324" d="M37.546,17.623c-0.103,0.139-0.161,0.31-0.196,0.49l0.766-0.766 C37.955,17.27,37.774,17.314,37.546,17.623z"/><path fill="#fcc324" d="M32.758,21.718c0.039-0.329,0.348-0.602,0.458-1c0.11-0.398,0.046-0.496-0.277-0.562 c-0.323-0.066-1.606,0.989-1.253,1.454C32.14,22.208,32.719,22.047,32.758,21.718z"/><path fill="#fcc324" d="M39.604,7.334c0.49-0.086,0.72-0.532,0.548-0.75c-0.216-0.274-1.442-0.519-1.946-0.216 c-0.505,0.303-0.086,0.49,0.144,0.865C38.58,7.608,39.113,7.421,39.604,7.334z"/><path fill="#fcc324" d="M43.972,6.542c0.029-0.432-1.197-0.562-1.37-0.389c-0.173,0.173-0.173,0.26,0.058,0.461 c0.231,0.202,0.533,0.245,0.692,0.433C43.51,7.234,43.935,7.097,43.972,6.542z"/><path fill="#fcc324" d="M41.564,5.576c0.317-0.404,0.048-0.796-0.159-1.6c-0.13-0.505-0.404-0.548-0.721-0.317 c-0.317,0.231-0.692,1.528-0.202,2.191C40.973,6.513,41.247,5.979,41.564,5.576z"/></g><polygon fill="#222223" points="7.095,40.662 7.606,41.037 8.236,40.815 7.895,41.258 8.423,41.922 8.321,42.296 7.725,42.007 6.772,41.496 6.551,40.39"/><polygon fill="#222223" points="5.769,38.778 5.56,39.822 6.395,40.146"/><polygon fill="#222223" points="9.572,42.156 9.328,42.626 9.723,43.172 10.531,43.115 10.212,42.307"/><polygon fill="#222223" points="8.517,42.659 8.476,43.521 9.995,44.301 8.969,43.316"/><path fill="#f54e0d" d="M7.149,42.664c0.092,0.117,0.473-0.243,0.662-0.251c0.188-0.008,0.308,0.533,0.258,1.155 c-0.051,0.621-0.433-0.059-0.558-0.257c-0.125-0.198-0.375-0.289-0.774-0.571c-0.399-0.283-0.344-0.559-0.278-0.718 c0.136-0.325,0.498-0.35,0.655-0.072C7.271,42.228,7.057,42.547,7.149,42.664z"/><path fill="#f54e0d" d="M5.515,41.486c-0.064-0.278,0.192-0.577-0.032-0.93c-0.224-0.353-0.46-0.096-0.406,0.107 c0.053,0.203-0.086,0.406-0.086,0.406c-0.053,0.353-0.085,0.428,0.214,0.599C5.505,41.839,5.579,41.764,5.515,41.486z"/><path fill="#f54e0d" d="M5.057,42.781c0.182,0.203,0.192,0.598,0.545,0.631c0.353,0.032,0.876,0.47,0.769,0.021 c-0.107-0.449-0.823-0.823-1.133-0.898C4.929,42.46,5.057,42.781,5.057,42.781z"/><path fill="#f54e0d" d="M8.221,44.32c0.05,0.199,0.021,0.428,0.428,0.492c0.406,0.064,1.133,0.363,0.994-0.011 c-0.139-0.374-0.374-0.631-0.737-0.759S8.178,44.149,8.221,44.32z"/><linearGradient id="9hcq18y3E9Xh2pwkGf2xlr" x1="-18.19" x2="31.287" y1="56.148" y2="-24.611" gradientTransform="matrix(.9995 .0319 -.0308 .9634 .628 1.279)" gradientUnits="userSpaceOnUse"><stop offset="0" stop-color="#a9afb5" stop-opacity=".6"/><stop offset=".896" stop-color="#fff" stop-opacity="0"/></linearGradient><path fill="url(#9hcq18y3E9Xh2pwkGf2xlr)" d="M3.26,39.876c-5.064-14.242,8.659-13.888,1.754-38.908	C20.718,17.877-8.988,25.662,3.26,39.876z"/><linearGradient id="9hcq18y3E9Xh2pwkGf2xls" x1="1.107" x2="30.777" y1="38.763" y2="-9.667" gradientTransform="rotate(21.819 10.44 20.101)" gradientUnits="userSpaceOnUse"><stop offset="0" stop-color="#a9afb5" stop-opacity=".6"/><stop offset=".896" stop-color="#fff" stop-opacity="0"/></linearGradient><path fill="url(#9hcq18y3E9Xh2pwkGf2xls)" d="M3.999,36.993c0,0,0.293-5.994,5.384-12.836c3.99-5.362,4.731-11.988,4.019-13.889	c1.926,4.24,1.362,10.16-1.966,14.633C8.396,28.985,5.449,31.521,3.999,36.993z"/></svg>