<svg xmlns="http://www.w3.org/2000/svg" width="512" height="512" viewBox="0 0 512 512"><path fill="#3AB37C" d="M297,448.5c-3.4-6.5-6.6-13.7-8.8-20.7c-5.1-16.5-9.4-33.4-11.5-50.6c-1.1-8.9-1.1-18-0.9-26.9c0.2-8,1.8-16.1,1.7-24c-0.1-5.3-0.4-11.5,0.6-17.1c-4.5,1.4-8.2,4.9-11.2,8.4c-5.1,5.8-9.2,12.4-12.7,19.3c-7.1,13.8-11.2,28-12.2,43.6c-1.1,17.8,2.2,36.5,13.3,50.8c11.8,15.4,28.1,20,45.8,23.6C299.5,452.8,298.1,450.7,297,448.5z"/><path fill="#EF4823" d="M270.6,458.1c-10.4-4.9-19.2-12.3-25.8-21.7c-11.9-17-15.7-37.8-14.1-58.2c1.4-17.8,6.3-34.4,15-49.9c2.7-4.9,6.1-10.5,10.1-15.6c-0.6,0.2-1.1,0.5-1.7,0.7c-1.9,1-3.8,2-5.8,2.8c-5.7,3.1-11.1,6.8-16,11c-17,14.4-34.7,36.7-29.4,60.5c5.6,25.2,21.2,47.9,40.6,64.9c1.5-1.1,3.6-1.2,5.6,0.3c8.5,6.3,19,8.4,29.5,8.5C275.9,460.3,273.2,459.3,270.6,458.1z"/><path fill="#FCBF95" d="M235.5 296.6c-5.8 1.3-11.4 4.1-14.2 9.2 1.1 1.9 2.2 3.9 3.3 5.8.1 0 .3-.1.4-.1 5.5-1.1 11-2.7 16.3-4.8 3.1-1.8 6.4-3.4 9.7-4.7.2-.1.4-.2.6-.3C246.8 297.9 241.3 295.3 235.5 296.6zM362.6 325.9c-1-3.5-2-7.2-3.9-10.3-4.7-8-11.3-6.7-19.4-5.2-.2 0-.4.1-.6.1-.4 1.3-.8 2.6-1.2 4 1.5 1 3 2 4.5 3 7.6 5.2 15 11.3 21.4 18.1 0 0 0 0 0-.1C365.1 333.5 363.3 328.2 362.6 325.9z"/><path fill="#BCBCBC" d="M436.9,137.5c1.2-24.2-18.9-46.2-36.8-59.7c-19.4-14.7-41.3-25.4-64.9-31.4c-26.4-6.7-54.5-9.2-81.6-5.5c-15.9,2.2-31,6.5-45.8,12.5c-6.5,2.7-13.1,5.6-19,9.4c-2.9,1.8-5.5,4.3-8.5,6c-0.7,0.4-1.9,0.9-2.8,1.5c-0.2,0.7-0.5,1.4-0.9,2c2.8,2,5.5,4.3,7.9,6.7c17.3,17.7,26.1,41.7,33.1,64.9c4,13.3,7.4,27.5,7.1,41.5c-0.2,10.4-1.4,22.5-10,29.6c-15,12.3-38.1,2.1-53.2-4.7c-4.5-2-3.2-9.6,1.5-10.5l3.1-0.6c3.2-0.6,5.5,1.2,6.6,3.5c7.1,3.1,14.6,5.8,22.2,6.2c8.7,0.5,15.4-2.4,17.3-11.6c2.7-13.3,0.5-27.4-2.8-40.4c-6-23.4-14.1-49.9-31.1-67.9c-7.4-7.9-17.1-14.8-28.3-15.1c-9.6-0.3-17,3.7-23,11.2c-11.7,14.6-17.7,37.7-15.2,56.3c1,7.2-10.1,10.3-11.1,3c-0.8-6.1-0.9-12.4-0.3-18.6c-6.8,5.5-12.2,13.8-16.6,20.9c-7.4,11.9-13.8,26-12.1,40.3c1.6,13.6,11.3,22.8,20.2,32.2c8.4,9,15.3,18.5,18.5,30.5c2.4,9.1,3.8,20-0.8,28.7c-4.9,9.2-15.3,12.6-25.2,11.3c-19.7-2.6-36.1-26.3-28.9-45.5c-5.4-0.8-10.2,2.2-10.4,8.4c-0.2,5.7,1.1,11.2,2.3,16.8c2.8,12.7,8.6,23.3,20.7,29.3c11.9,6,26.3,6.4,38.6,1.6c14.4-5.6,24.4-20.5,25-35.8c0.2-6.2,10.3-8.1,11.3-1.4c0.2,1.1,0.9,7.7,3.3,7c3.6-1,5.1-4.6,6.9-7.5c3.9-6.6,8.8-12.8,12-19.8c0-0.1,0.1-0.1,0.1-0.2c0.1-0.7,0.2-1.4,0.6-2.1c0.1-0.2,0.2-0.5,0.3-0.7c0.8-1.8,3.1-2.8,5-2.8c3.8-0.1,4.9,2.9,7.4,4.9c3.1,2.6,6.1,5.4,8.9,8.4c5.9,6.4,11.5,13.3,16,20.8c4.5,7.6,8.4,15.4,12.4,23.3c4.9-5,11.7-8.3,18.3-9.2c10.4-1.5,19.7,2.7,27.3,9.3c1.4-1.2,2.7-2.4,3.9-3.8c-1.3-13.2-8.7-25.5-8.5-38.9c0.2-11.6,3.6-23.4,9.3-33.5c5.3-9.5,12.5-18.7,22.7-23.2c9.3-4.1,20-4.7,29.9-2.7c9.8,2,19.3,6.6,25.8,14.5c7.4,8.9,9.5,21.5,9.8,32.7c0.5,20.3-5.5,39.5-11.4,58.7c10.6-1.2,20.4,0.5,26.2,11.6c2.7,5.2,4.8,11,5.9,16.8c0.7,3.8,1.5,8.5,0.1,12.3c1.2-1.5,2.1-3.4,3-5.1c1.8-3.6,4.1-6.9,6.2-10.3c5.1-7.9,10.1-15.8,14.6-24.1c8.5-15.6,15.1-32.5,21-49.2c5.9-16.9,10.8-34.4,12.1-52.3c0.1-1.5,0.2-3,0.3-4.5c2-11.9,3.8-23.9,4.7-36C436.9,154.6,437.7,145.4,436.9,137.5z M132.5,226.8c-2.9,8-10.8,10-18.5,10c-7.1,0-7.9-10.9-0.8-11c2.4,0,5.1,0,7.2-0.8c0.7-0.3,0.7-0.2,1.2-0.8c0.5-0.6,0.8-1.3,1.1-2.3c1-2.8,4.9-3.7,7.4-2.5C132.9,220.9,133.5,224,132.5,226.8z"/><path fill="#3AB37C" d="M364.4,355.1c-8.1-12.6-20.1-23.5-33.5-31.6c-2.1-0.1-4.2-1.2-5.3-3c-5-2.7-10.2-5-15.4-6.9c12,14.7,18.6,35,23.9,52c7.9,24.8,12.4,56.4,0.7,80.9c1.6-0.8,3.2-1.7,4.8-2.6C370,426.2,384.2,385.7,364.4,355.1z"/><path fill="#EF4823" d="M323.3,369.4c-3.6-11.2-7.4-22.4-12.7-33c-4.9-9.9-11.4-20.6-21.3-26.2c-0.5,2.8-0.4,6-0.4,7.9c0,5.9-0.4,11.5-0.9,17.3c-1.3,15.4-1.5,31.4,1,46.7c2.4,15.1,5.7,31,11.3,45.3c2.5,6.3,4.9,13.2,8.8,18.8c1.5,2.2,3.2,4.2,4.9,6.3c0.8,0.2,1.6,0.7,2.3,1.5c0.1,0.1,0.1,0.2,0.2,0.2c1.9-0.6,3.8-1.3,5.6-2c-0.3-0.5-0.5-1.1-0.7-1.8c0.2-0.2,0.3-0.3,0.4-0.6c0.8-1.8,1.6-3.6,2.2-5.5c1.1-2.2,1.7-4.4,2.2-6.8C334.1,416.3,329.9,390.1,323.3,369.4z"/><path d="M470,156.2c-7.2-1.7-10.4,9.4-3.1,11c7.4,1.7-1.6,15.5-6.9,15.7c-3.3,0.1-11.6-4-15.4-8.6c0-0.2,0-0.4,0.1-0.6c0.8-8.5,1.8-17,1.8-25.5c0.4-0.6,0.8-1.4,0.9-2.3c4.8-27-11.8-52.9-31.4-69.9c-19.7-17.1-42.6-29.8-67.4-37.8c-26.3-8.4-54.9-11.6-82.4-10c-16.4,1-32.8,4-48.4,9.1c-14.1,4.6-28.5,10.7-40.5,19.4c-2.8,2-8.9,5.7-11,9.7c-12.6-5.5-27.1-6-38.9,2.5c-11.5,8.3-18.2,21.7-22.6,34.9c-0.8,2.4-1.5,4.9-2.1,7.4c-9.2,2.8-15.9,11.5-21.5,18.9c-6.7,8.8-12.3,18.2-16.5,28.5c-4.9,12.1-6.4,25.6-2.7,38.2c3.4,11.7,12.4,20.7,20.6,29.3c7.9,8.3,14,16.5,17,27.7c1.7,6.5,3.7,17.9-3,22.5c-7.7,5.4-17.9,0.8-23.6-5c-6.5-6.5-9.9-16.5-6.1-25.2c0.7-1.6,0.6-3,0-4.1c1.2-2.4,0.8-5.3-2.3-6.7c-9-3.9-20.5-3.7-27.1,4.7c-4.9,6.3-4.4,14.7-3.4,22.2c2.4,17.6,8.5,33.4,23.5,43.8c14.5,10,34.2,11.3,50.6,5.8c15-5,26.6-17.2,31.8-31.8c0.1,0,0.2,0.1,0.3,0.1c5.3,2.7,11.5,1,15.8-2.7c4.4-3.9,6.9-9.4,9.9-14.3c2.2-3.5,4.7-7,6.8-10.6c2.9,2.8,5.9,5.5,8.5,8.5c5.3,5.9,9.8,12.2,13.7,19.1c5,8.7,9.3,17.7,13.9,26.6c0,0.1,0,0.2-0.1,0.3c-0.5,3.2,1.4,5.7,3.8,6.7c1.9,3.4,3.9,6.8,6.1,10c-3.6,3.5-6.9,7.2-10,10.9c-7.2,8.8-13,18.8-16.2,29.7c-3.6,12.2-1.9,24.1,1.9,36c7.3,22.9,22.1,43.2,40,59.2c5.5,1.6,10.6,4.8,15.7,8.2c0.3-0.2,0.5-0.4,0.7-0.7c16.8,8,37.4,6.1,55,2c2.1-0.5,4.2-1,6.2-1.6c2.7,1.1,6,0.2,7.4-2.2c16.4-5.4,32.1-13.6,44-26c16.3-17,24-40.5,20.7-63.7c-1.2-8.5-4.1-16.3-8.3-23.5c6.3-2.6,9.7-8.5,12.7-14.6c4.4-8.9,10.9-17,16-25.6c10-16.8,17.3-35.2,24.1-53.4c6.6-17.8,11.6-36.1,13.8-55c0.6-5,0.9-10,1.1-15c6.2,4.1,13.7,6.4,19.4,5.6C479.3,191.7,490,160.9,470,156.2z M249.2,452.8c-2-1.5-4.1-1.3-5.6-0.3c-19.4-16.9-35-39.7-40.6-64.9c-5.3-23.8,12.4-46.1,29.4-60.5c4.9-4.2,10.3-7.9,16-11c2-0.9,3.9-1.8,5.8-2.8c0.6-0.2,1.1-0.5,1.7-0.7c-4,5.1-7.3,10.7-10.1,15.6c-8.7,15.5-13.6,32.2-15,49.9c-1.6,20.5,2.2,41.2,14.1,58.2c6.6,9.5,15.4,16.8,25.8,21.7c2.6,1.2,5.4,2.3,8.1,3.2C268.2,461.2,257.7,459.1,249.2,452.8z M221.4,305.8c2.7-5.1,8.4-7.9,14.2-9.2c5.8-1.3,11.3,1.3,16,5c-0.2,0.1-0.4,0.2-0.6,0.3c-3.3,1.4-6.5,3-9.7,4.7c-5.2,2.1-10.7,3.7-16.3,4.8c-0.1,0-0.3,0.1-0.4,0.1C223.5,309.7,222.4,307.7,221.4,305.8z M255.2,431.1c-11-14.4-14.4-33.1-13.3-50.8c1-15.5,5.1-29.8,12.2-43.6c3.5-6.9,7.6-13.4,12.7-19.3c3-3.5,6.7-7,11.2-8.4c-1,5.7-0.7,11.8-0.6,17.1c0.1,7.9-1.5,16.1-1.7,24c-0.2,8.9-0.2,18.1,0.9,26.9c2.1,17.2,6.4,34.1,11.5,50.6c2.2,7,5.4,14.2,8.8,20.7c1.2,2.2,2.6,4.3,4.1,6.3C283.3,451.1,266.9,446.5,255.2,431.1z M327.4,308.6c-10.9-5.6-22.6-9.5-34.6-11.3c-1.6-2.4-4.7-3.7-7.6-1.4c-0.2,0.2-0.4,0.4-0.7,0.6c-3-0.2-6-0.2-8.9-0.1c0.7-1.2,1.1-2.4,1.1-3.6c-0.4-7.3-2.2-14.1-4.2-21.1c-2.1-6.9-4.5-13.9-4.4-21.2c0.1-6,1.7-11.9,3.7-17.6c3.7-10.7,11.2-23.4,22.2-27.8c9.7-3.9,20.7-2.9,30.2,0.8c11.2,4.3,15.8,14.2,17.6,25.3C346.1,257.5,334.9,283.7,327.4,308.6z M339.3,310.4c8.1-1.5,14.7-2.8,19.4,5.2c1.8,3.1,2.9,6.8,3.9,10.3c0.6,2.3,2.5,7.5,0.9,9.6c0,0,0,0,0,0.1c-6.5-6.9-13.8-12.9-21.4-18.1c-1.5-1-3-2-4.5-3c0.4-1.3,0.8-2.6,1.2-4C339,310.5,339.1,310.4,339.3,310.4z M326.1,437.5c-0.4,2.4-1.1,4.6-2.2,6.8c-0.6,1.9-1.3,3.7-2.2,5.5c-0.1,0.2-0.3,0.4-0.4,0.6c0.1,0.7,0.3,1.3,0.7,1.8c-1.9,0.7-3.8,1.4-5.6,2c-0.1-0.1-0.1-0.2-0.2-0.2c-0.7-0.8-1.5-1.2-2.3-1.5c-1.7-2.1-3.3-4.1-4.9-6.3c-3.9-5.5-6.3-12.5-8.8-18.8c-5.6-14.3-9-30.1-11.3-45.3c-2.4-15.3-2.3-31.3-1-46.7c0.5-5.9,0.8-11.5,0.9-17.3c0-2-0.1-5.2,0.4-7.9c9.9,5.6,16.4,16.3,21.3,26.2c5.3,10.6,9.1,21.8,12.7,33C329.9,390.1,334.1,416.3,326.1,437.5z M339.6,443.8c-1.6,0.9-3.2,1.8-4.8,2.6c11.7-24.5,7.2-56.1-0.7-80.9c-5.4-17-12-37.3-23.9-52c5.2,1.9,10.4,4.2,15.4,6.9c1,1.8,3.2,2.9,5.3,3c13.4,8.1,25.4,19,33.5,31.6C384.2,385.7,370,426.2,339.6,443.8z M436.6,157.5c-1,12.1-2.8,24-4.7,36c-0.1,1.5-0.2,3-0.3,4.5c-1.3,17.9-6.2,35.4-12.1,52.3c-5.9,16.7-12.5,33.6-21,49.2c-4.5,8.3-9.6,16.2-14.6,24.1c-2.2,3.4-4.4,6.7-6.2,10.3c-0.8,1.7-1.7,3.6-3,5.1c1.4-3.8,0.6-8.5-0.1-12.3c-1.1-5.8-3.1-11.6-5.9-16.8c-5.9-11.1-15.6-12.7-26.2-11.6c6-19.2,12-38.4,11.4-58.7c-0.3-11.2-2.4-23.8-9.8-32.7c-6.5-7.8-16-12.5-25.8-14.5c-9.9-2-20.6-1.4-29.9,2.7c-10.1,4.5-17.4,13.7-22.7,23.2c-5.6,10.2-9.1,21.9-9.3,33.5c-0.2,13.4,7.1,25.7,8.5,38.9c-1.2,1.3-2.6,2.6-3.9,3.8c-7.6-6.6-16.9-10.8-27.3-9.3c-6.6,0.9-13.4,4.3-18.3,9.2c-4-7.8-7.9-15.7-12.4-23.3c-4.5-7.5-10.1-14.4-16-20.8c-2.8-3-5.7-5.8-8.9-8.4c-2.5-2.1-3.6-5-7.4-4.9c-1.9,0-4.1,1-5,2.8c-0.1,0.2-0.2,0.5-0.3,0.7c-0.3,0.7-0.5,1.4-0.6,2.1c0,0.1-0.1,0.1-0.1,0.2c-3.2,6.9-8.1,13.2-12,19.8c-1.7,3-3.3,6.5-6.9,7.5c-2.4,0.6-3.1-5.9-3.3-7c-0.9-6.6-11.1-4.8-11.3,1.4c-0.5,15.3-10.6,30.2-25,35.8c-12.4,4.8-26.7,4.4-38.6-1.6c-12-6.1-17.8-16.6-20.7-29.3c-1.2-5.5-2.5-11.1-2.3-16.8c0.2-6.1,5-9.2,10.4-8.4c-7.1,19.2,9.3,42.9,28.9,45.5c9.9,1.3,20.4-2.2,25.2-11.3c4.6-8.7,3.2-19.6,0.8-28.7c-3.2-12-10.1-21.5-18.5-30.5c-8.9-9.5-18.6-18.6-20.2-32.2c-1.7-14.3,4.7-28.4,12.1-40.3c4.4-7.1,9.8-15.4,16.6-20.9c-0.6,6.2-0.5,12.5,0.3,18.6c1,7.3,12.1,4.3,11.1-3c-2.5-18.5,3.6-41.6,15.2-56.3c6-7.5,13.3-11.5,23-11.2c11.3,0.4,20.9,7.2,28.3,15.1c16.9,18,25.1,44.5,31.1,67.9c3.3,13,5.5,27.1,2.8,40.4c-1.9,9.2-8.6,12.1-17.3,11.6c-7.5-0.5-15.1-3.2-22.2-6.2c-1-2.3-3.4-4.1-6.6-3.5l-3.1,0.6c-4.7,0.9-5.9,8.4-1.5,10.5c15.1,6.9,38.2,17,53.2,4.7c8.7-7.1,9.8-19.1,10-29.6c0.3-14-3.1-28.1-7.1-41.5c-6.9-23.2-15.8-47.3-33.1-64.9c-2.4-2.4-5-4.7-7.9-6.7c0.4-0.6,0.7-1.3,0.9-2c0.9-0.6,2.1-1.1,2.8-1.5c2.9-1.7,5.6-4.2,8.5-6c6-3.8,12.5-6.8,19-9.4c14.9-6,29.9-10.3,45.8-12.5c27-3.8,55.2-1.2,81.6,5.5c23.6,6,45.5,16.7,64.9,31.4c17.9,13.6,38,35.6,36.8,59.7C437.7,145.4,436.9,154.6,436.6,157.5z"/><path d="M130,219.5c-2.5-1.2-6.3-0.3-7.4,2.5c-0.4,1-0.7,1.7-1.1,2.3c-0.5,0.6-0.4,0.5-1.2,0.8c-2.1,0.9-4.8,0.8-7.2,0.8c-7.1,0-6.2,11,0.8,11c7.7,0,15.6-2.1,18.5-10C133.5,224,132.9,220.9,130,219.5z"/></svg>