<?xml version="1.0"?><svg xmlns="http://www.w3.org/2000/svg" viewBox="0 0 128 128">    <path d="M 24 1 C 11.3 1 1 11.3 1 24 C 1 36.7 11.3 47 24 47 C 36.7 47 47 36.7 47 24 C 47 11.3 36.7 1 24 1 z M 24 7 C 33.4 7 41 14.6 41 24 C 41 33.4 33.4 41 24 41 C 14.6 41 7 33.4 7 24 C 7 14.6 14.6 7 24 7 z M 54.5625 71 C 53.8 71 53.05 71.300391 52.5 71.900391 L 2.5 121.90039 C 1.6 122.80039 1.4007812 123.99922 1.8007812 125.19922 C 2.3007812 126.29922 3.3996094 127.09961 4.5996094 127.09961 L 124.59961 127.09961 C 125.79961 127.09961 126.90039 126.39922 127.40039 125.19922 C 127.80039 123.99922 127.59922 122.70039 126.69922 121.90039 L 86.699219 81.900391 C 85.699219 80.900391 84.100391 80.7 82.900391 81.5 L 82.800781 81.5 C 82.700781 81.6 82.6 81.699219 82.5 81.699219 C 82.5 81.699219 82.400391 81.700781 82.400391 81.800781 L 78.900391 85.300781 C 77.700391 86.500781 77.700391 88.4 78.900391 89.5 C 80.100391 90.7 81.999609 90.7 83.099609 89.5 L 83.699219 88.900391 L 93.599609 108.59961 L 56.699219 71.900391 C 56.099219 71.300391 55.325 71 54.5625 71 z M 54 78.800781 L 79.300781 121 L 11.800781 121 L 54 78.800781 z"/></svg>