<svg xmlns="http://www.w3.org/2000/svg" width="512" height="512" viewBox="0 0 512 512"><path fill="#D6E5E5" d="M314.4 413.8c-.8-.2-1.6-.6-2.3-1.2-6.3-5.9-7.2-15.8-8.3-23.9-1.4-10.5-4.2-20.6-4.5-31.3-5.8-.2-11.5-.4-17.3-.6 5.1 8.1 5.9 19.4 6.1 28.4.2 8.9.3 20.8-4.5 29.1 2.5 15.8 3.9 31.7 6.5 47.5.5.6.8 1.3 1 2.2 9.4-.5 18.8-1.1 28.1-1.9v-1.3c0-.8.1-1.5.4-2.1C320.4 443.8 316.5 428.6 314.4 413.8zM273.2 418.7c-.4-.3-.7-.7-1-1.2-11.8-17.6-14.6-40.5-14.9-61.3-7 0-14 0-21 .1 1.2 19.2 5.4 38 7.5 57.1 1.9 16.8-.3 35.1 5.1 51.3.1.2.1.4.2.6 10.1-.1 20.3-.3 30.4-.6C276.9 449.3 275.5 434 273.2 418.7zM358.6 457.7c-.2-.5-.4-1.2-.4-1.8-2-32.4-4.9-64.7-9.8-96.8-8.4-.2-16.7-.5-25.1-.8 2.5 7.7 2.6 16.6 2.5 24.4-.1 6.5-.4 13.8-2.1 20.4.6 3.5 1.2 7.1 1.7 10.6 2.2 15.8 6 31.5 5 47.5C339.8 460.2 349.2 459 358.6 457.7zM190.9 418.5c-5.8-9.1-6.5-20.6-7.3-31.2-.7-9.6-3.1-19.2-3.3-28.9-2.1.1-4.3.2-6.4.3-3.9.2-7.7.3-11.6.4 1.5 4.5 2.4 9.3 3.3 13.9 1.6 7.8 2.8 15.7 3 23.6.2 6.8.4 15-2.9 21.2-1.2 2.4-3.2 4.7-5.6 6.1.7 7.1 1.5 14.3 2.8 21.3 1 5.3 2.7 12 .5 17.3 5.2.3 10.4.6 15.5.9 5.4.3 10.9.5 16.3.8C195 448.8 193.1 433.6 190.9 418.5zM233 416.1c-2.2-19.9-6.6-39.5-7.8-59.5-7.2.2-14.4.5-21.5.8 3.7 8.7 3.9 19.8 4.1 28.3.3 11 1 25.9-5.4 35.6 2 14.4 3.7 28.8 3.8 43.3 10.5.3 20.9.6 31.4.6C233.1 449.4 234.9 432.3 233 416.1zM152.5 449.8c-.6-3.6-1.1-7.1-1.6-10.7-.9-5.8-1.6-11.7-2.2-17.5-2.3-2.8-3.7-6.6-4.7-9.8-2-6.8-3.3-13.9-4.3-20.9-1.4-10-3.2-20.9-2.8-31.2-5.2.1-10.4.3-15.5.6 1 2.6 1.4 5.6 1.9 8.1 1.1 6.7 1.6 13.4 1.7 20.2 0 5.2.5 16.7-2.9 23.7.1 1.8.1 3.6.2 5.4.1 6.4.4 12.8.8 19.2.2 3.3.5 6.7.9 10 .1.9.3 2.5.5 3 .1.4.2.8.3 1 1.7 2 1.6 5.3 0 7.3 4 .8 8.1 1.5 12.2 2 5 .6 10 1.1 14.9 1.6 0-.8.2-1.7.8-2.6C154.3 456.6 153 452.4 152.5 449.8zM399.4 431.4c-.8-6.2-1.4-12.4-1.8-18.7-15.6 1.6-15.4-45-15.4-53.4-4.2.1-8.5.1-12.7.1-3.3 0-6.6-.1-10-.1 4.8 31.7 7.7 63.7 9.7 95.7 0 .4 0 .8 0 1.1 1.1-.2 2.1-.3 3.2-.5 9.5-1.5 19-3.3 28.4-5.2C399.8 444.2 400.2 437.8 399.4 431.4zM112.8 445.8c-.8-7.5-1.2-15.1-1.4-22.7-.1-1.9-.1-3.8-.2-5.7-8.1-3-8.9-19.7-9.7-26.1-1.1-9.6-2-19.3-2.2-29-5.6.8-11.2 1.8-16.7 3.1-.1 6.6-.2 13.2-.3 19.7 5.1 22.7-4.2 51.9 20.4 65.3 3.9 2.1 7.9 3.8 12 5.1C113.4 452.5 113.1 448.6 112.8 445.8zM465 358.2c0-.7 0-1.4-.1-2.1-.7.1-1.5.1-2.3-.2-2.9-.8-5.8-1.4-8.7-1.8-.5 0-1-.1-1.4-.1 2.3 16 3.8 35.2-5.6 49.1-.3.5-.7.8-1.1 1.1.4 10.7.4 21.5.4 32.2 1.6-1.2 3.2-2.6 4.6-4.2 12.7-14.5 11.9-36.7 13.5-54.8.2-1.7.9-2.8 1.9-3.5C466.1 368.6 465.2 363.5 465 358.2zM393.3 364.6c0 1.6.1 3.2.2 4.8.3-.4.6-.7 1-1C394.1 367.1 393.7 365.9 393.3 364.6z"/><path fill="#127274" d="M464.5,338.9c-0.4-12.4-0.8-24.8-1.6-37.2c-1.2-17-3.2-34.6-9.6-50.5c-2.6-6.4-6-12.9-11.4-17.5c-6.3-5.4-14.2-7.3-22.5-7.4c-22.6-0.4-44.3,8.3-67,6.8c-24.7-1.7-46.2-16-58.3-37.4c-7.1-12.6-10-27.4-13.8-41.2c-3.5-12.7-7.7-25.7-14.7-36.9c-12.3-20-32-33.8-55.7-35.8c-20.9-1.7-41.6,4.1-58.8,15.9c-34.4,23.6-55.7,65.3-62.3,105.8c-2.1,13.1-2.6,26.5-3.2,39.8c-0.8,16.2-1.4,32.5-1.8,48.7c-0.5,20.8-0.8,41.6-1.1,62.4c4.2-0.9,8.4-1.7,12.6-2.3c30.7-4.5,62-3.2,92.8-4.9c32.6-1.8,64.9-2.2,97.6-1c32.9,1.2,65.8,3.1,98.7,2.4c14-0.3,27.4-2.2,41.3-4c12.9-1.7,26.3-2.9,38.9,0.7C464.6,343,464.5,340.9,464.5,338.9z"/><path fill="#D6E5E5" d="M394.7 382.2c-.1-.1-.2-.1-.3-.2.2 1.6.4 3.2.6 4.8C394.9 385.3 394.8 383.8 394.7 382.2zM435.2 439.9c0-1.5 0-1.2-.7-2.6-1.1-2.2-.5-4 .7-5.3 0-10.4 0-20.9-.5-31.3-.1-.1-.1-.2-.2-.4-3-7.2-4-15.1-4.2-22.9-.1-3.6-.2-7.3 0-10.9 0-.8.2-2.1.4-3.4-.2-1.4-.3-2.8-.3-4.2 0-.1-.1-.2-.2-.3-.9-1.2-1.1-2.4-1-3.6-5.2.7-10.4 1.5-15.5 2.2-2.7.4-5.3.7-8 .9 1.9 8.7 3.6 17.6 4.1 26.5.3 5.6.6 12.9-1.5 18.8.2 8 .9 16 1.8 24 .5 4.3.4 8.9.6 13.3 1.5.7 2.6 2.1 2.6 4.4 0 1 0 1.9-.1 2.8 2.4-.5 4.8-1.1 7.2-1.7 5.1-1.2 10.3-2.4 15.3-4.2C435.4 441.3 435.2 440.6 435.2 439.9z"/><path d="M475.9,353.5c-0.3-8.4-0.5-16.8-0.7-25.2c-0.5-15.7-0.7-31.9-3.3-47.4c-3.2-19-7.1-39.7-21.1-54.1c-18.7-19.1-50.1-10.4-73-6.6c-13.6,2.2-27.4,3.2-40.7-1.4c-11.3-3.9-21-11.3-28.2-20.8c-8.6-11.2-12.2-25.4-15.8-38.9c-3.6-13.5-7.5-26.7-13.6-39.3c-10.1-20.8-27.2-37.8-49.3-45.2c-42.7-14.3-86.5,7.1-113.6,40c-23.5,28.5-37.8,65.8-40.4,102.6c-4,57.4-4,115-5,172.6c0,1.7,0.6,2.9,1.5,3.7c1.4,10.3,0.2,20.9,1.5,31.3c1.6,13,7.9,24.7,18.7,32.3c21.8,15.2,52.2,15.1,77.6,16.7c64.5,3.9,129.1,3.5,193.2-5.7c17.7-2.6,35.3-5.9,52.8-9.8c13.9-3.1,28.6-5.9,39.5-15.8c17.4-15.7,17.2-41.4,19.2-63c0-0.4,0-0.7,0-1c1.2-1,2.1-2.5,2.1-4.4C477.2,367.1,476.1,360.4,475.9,353.5z M102.7,450.4C78,437,87.3,407.8,82.3,385.2c0.1-6.6,0.2-13.2,0.3-19.7c5.5-1.3,11.1-2.3,16.7-3.1c0.2,9.7,1.1,19.4,2.2,29c0.8,6.5,1.6,23.1,9.7,26.1c0.1,1.9,0.2,3.8,0.2,5.7c0.2,7.6,0.6,15.1,1.4,22.7c0.3,2.8,0.6,6.7,1.9,9.7C110.6,454.2,106.6,452.5,102.7,450.4z M152.8,459c-0.5,0.9-0.8,1.8-0.8,2.6c-5-0.4-10-0.9-14.9-1.6c-4.1-0.5-8.2-1.1-12.2-2c1.6-2,1.7-5.3,0-7.3c-0.1-0.2-0.2-0.6-0.3-1c-0.1-0.6-0.3-2.1-0.5-3c-0.5-3.3-0.7-6.6-0.9-10c-0.5-6.4-0.7-12.8-0.8-19.2c0-1.8-0.1-3.6-0.2-5.4c3.4-7,2.9-18.5,2.9-23.7c0-6.7-0.5-13.5-1.7-20.2c-0.4-2.6-0.9-5.5-1.9-8.1c5.2-0.3,10.4-0.5,15.5-0.6c-0.4,10.3,1.3,21.2,2.8,31.2c1,7,2.3,14.1,4.3,20.9c1,3.3,2.3,7.1,4.7,9.8c0.6,5.9,1.3,11.7,2.2,17.5c0.5,3.6,1,7.2,1.6,10.7C153,452.4,154.3,456.6,152.8,459z M178.9,463.4c-5.2-0.3-10.4-0.6-15.5-0.9c2.2-5.3,0.4-12-0.5-17.3c-1.3-7-2.1-14.2-2.8-21.3c2.4-1.4,4.4-3.7,5.6-6.1c3.3-6.3,3.1-14.4,2.9-21.2c-0.3-7.9-1.5-15.9-3-23.6c-0.9-4.6-1.8-9.4-3.3-13.9c3.9-0.1,7.8-0.2,11.6-0.4c2.1-0.1,4.3-0.2,6.4-0.3c0.3,9.7,2.6,19.2,3.3,28.9c0.8,10.6,1.5,22.1,7.3,31.2c2.2,15.2,4.1,30.4,4.3,45.7C189.8,463.9,184.3,463.7,178.9,463.4z M206.2,464.6c-0.1-14.5-1.8-29-3.8-43.3c6.4-9.7,5.7-24.6,5.4-35.6c-0.2-8.5-0.4-19.7-4.1-28.3c7.2-0.3,14.4-0.6,21.5-0.8c1.1,20,5.5,39.6,7.8,59.5c1.8,16.2,0.1,33.3,4.5,49.1C227.1,465.1,216.7,464.9,206.2,464.6z M249.1,465.2c0-0.2-0.1-0.4-0.2-0.6c-5.4-16.1-3.2-34.5-5.1-51.3c-2.1-19.1-6.4-37.9-7.5-57.1c7-0.1,14-0.2,21-0.1c0.3,20.9,3.1,43.7,14.9,61.3c0.3,0.5,0.7,0.8,1,1.2c2.3,15.3,3.7,30.7,6.3,45.9C269.4,464.9,259.2,465.2,249.1,465.2z M319.6,458.8c-0.2,0.6-0.4,1.3-0.4,2.1v1.3c-9.4,0.8-18.7,1.4-28.1,1.9c-0.1-0.9-0.5-1.7-1-2.2c-2.6-15.8-4.1-31.7-6.5-47.5c4.8-8.3,4.7-20.2,4.5-29.1c-0.2-9-1.1-20.3-6.1-28.4c5.8,0.2,11.5,0.4,17.3,0.6c0.3,10.6,3.1,20.8,4.5,31.3c1.1,8.1,1.9,18,8.3,23.9c0.7,0.7,1.5,1.1,2.3,1.2C316.5,428.6,320.4,443.8,319.6,458.8z M330.4,461.1c1-16-2.8-31.7-5-47.5c-0.5-3.5-1.1-7.1-1.7-10.6c1.7-6.6,1.9-13.9,2.1-20.4c0.2-7.7,0-16.7-2.5-24.4c8.4,0.3,16.7,0.6,25.1,0.8c4.9,32.1,7.8,64.4,9.8,96.8c0,0.7,0.2,1.3,0.4,1.8C349.2,459,339.8,460.2,330.4,461.1z M372.4,455.7c-1.1,0.2-2.1,0.3-3.2,0.5c0-0.4,0.1-0.7,0-1.1c-2-32-4.8-64-9.7-95.7c3.3,0,6.6,0.1,10,0.1c4.3,0,8.5,0,12.7-0.1c0,8.4-0.3,55,15.4,53.4c0.4,6.2,1,12.5,1.8,18.7c0.8,6.4,0.4,12.7,1.4,19.1C391.3,452.4,381.9,454.1,372.4,455.7z M393.4,369.4c-0.1-1.6-0.1-3.2-0.2-4.8c0.4,1.2,0.8,2.5,1.1,3.7C394.1,368.7,393.7,369,393.4,369.4z M394.7,382.2c0.1,1.5,0.2,3.1,0.3,4.6c-0.2-1.6-0.4-3.2-0.6-4.8C394.5,382.1,394.6,382.1,394.7,382.2z M420.4,446.1c-2.4,0.6-4.8,1.1-7.2,1.7c0.1-0.9,0.1-1.8,0.1-2.8c0-2.2-1.1-3.7-2.6-4.4c-0.2-4.5-0.1-9-0.6-13.3c-0.9-8-1.6-16-1.8-24c2.1-5.8,1.8-13.1,1.5-18.8c-0.5-8.9-2.2-17.7-4.1-26.5c2.7-0.3,5.3-0.6,8-0.9c5.1-0.7,10.3-1.5,15.5-2.2c-0.1,1.1,0.1,2.4,1,3.6c0.1,0.1,0.1,0.2,0.2,0.3c0.1,1.4,0.2,2.8,0.3,4.2c-0.1,1.3-0.3,2.6-0.4,3.4c-0.2,3.6-0.1,7.3,0,10.9c0.2,7.8,1.2,15.7,4.2,22.9c0.1,0.1,0.1,0.3,0.2,0.4c0.5,10.4,0.5,20.9,0.5,31.3c-1.3,1.2-1.8,3.1-0.7,5.3c0.7,1.4,0.7,1.1,0.7,2.6c0,0.8,0.2,1.4,0.4,2C430.7,443.7,425.4,444.9,420.4,446.1z M425.7,344.4c-13.8,1.8-27.3,3.7-41.3,4c-32.9,0.7-65.8-1.2-98.7-2.4c-32.6-1.2-65-0.8-97.6,1c-30.9,1.7-62.2,0.4-92.8,4.9c-4.2,0.6-8.4,1.4-12.6,2.3c0.3-20.8,0.6-41.6,1.1-62.4c0.4-16.2,1-32.5,1.8-48.7c0.7-13.3,1.1-26.6,3.2-39.8c6.6-40.6,27.9-82.2,62.3-105.8c17.2-11.8,38-17.6,58.8-15.9c23.7,2,43.4,15.8,55.7,35.8c6.9,11.3,11.2,24.3,14.7,36.9c3.8,13.8,6.7,28.6,13.8,41.2c12,21.4,33.6,35.8,58.3,37.4c22.6,1.5,44.4-7.2,67-6.8c8.2,0.1,16.1,2.1,22.5,7.4c5.4,4.6,8.8,11.1,11.4,17.5c6.4,15.9,8.3,33.6,9.6,50.5c0.9,12.4,1.3,24.8,1.6,37.2c0.1,2,0.1,4.1,0.2,6.1C452,341.5,438.6,342.7,425.7,344.4z M464.3,377.4c-1.7,18-0.9,40.3-13.5,54.8c-1.4,1.6-2.9,3-4.6,4.2c0-10.7-0.1-21.5-0.4-32.2c0.4-0.3,0.8-0.6,1.1-1.1c9.5-13.9,8-33.1,5.6-49.1c0.5,0,1,0.1,1.4,0.1c3,0.3,5.9,0.9,8.7,1.8c0.8,0.2,1.6,0.3,2.3,0.2c0,0.7,0,1.4,0.1,2.1c0.2,5.3,1.1,10.4,1.2,15.7C465.2,374.6,464.5,375.7,464.3,377.4z"/></svg>