<?xml version="1.0"?><svg xmlns="http://www.w3.org/2000/svg" viewBox="0 0 64 64">    <path d="M 13 6 C 9.14 6 6 9.141 6 13 L 6 51 C 6 54.859 9.14 58 13 58 L 51 58 C 54.86 58 58 54.859 58 51 L 58 13 C 58 9.141 54.86 6 51 6 L 13 6 z M 13 8 L 51 8 C 53.757 8 56 10.243 56 13 L 56 51 C 56 53.757 53.757 56 51 56 L 13 56 C 10.243 56 8 53.757 8 51 L 8 13 C 8 10.243 10.243 8 13 8 z M 49 11 C 48.448 11 48 11.447 48 12 C 48 12.553 48.448 13 49 13 L 51 13 C 51.552 13 52 12.553 52 12 C 52 11.447 51.552 11 51 11 L 49 11 z M 24 14.037109 C 23.649 14.037109 23.296594 14.198031 23.121094 14.519531 L 21.015625 18.371094 C 20.635625 19.065094 20.068094 19.635578 19.371094 20.017578 L 15.519531 22.123047 C 15.199531 22.298047 15 22.635 15 23 C 15 23.365 15.198531 23.701953 15.519531 23.876953 L 19.371094 25.982422 C 20.067094 26.364422 20.637578 26.933906 21.017578 27.628906 L 23.123047 31.480469 C 23.298047 31.801469 23.634 32 24 32 C 24.366 32 24.701953 31.800516 24.876953 31.478516 L 26.982422 27.626953 C 27.362422 26.932953 27.931906 26.364422 28.628906 25.982422 L 32.480469 23.876953 C 32.801469 23.702953 33 23.365 33 23 C 33 22.635 32.801469 22.298047 32.480469 22.123047 L 28.628906 20.017578 C 27.932906 19.635578 27.362422 19.066094 26.982422 18.371094 L 24.876953 14.519531 C 24.701453 14.198031 24.351 14.037109 24 14.037109 z M 49 16 C 48.448 16 48 16.447 48 17 C 48 17.553 48.448 18 49 18 L 51 18 C 51.552 18 52 17.553 52 17 C 52 16.447 51.552 16 51 16 L 49 16 z M 24 17.083984 L 25.228516 19.330078 C 25.791516 20.361078 26.635969 21.205531 27.667969 21.769531 L 29.916016 23 L 27.667969 24.228516 C 26.634969 24.792516 25.791516 25.636969 25.228516 26.667969 L 24 28.916016 L 22.771484 26.669922 C 22.208484 25.638922 21.364031 24.794469 20.332031 24.230469 L 18.083984 23 L 20.332031 21.771484 C 21.365031 21.207484 22.208484 20.363031 22.771484 19.332031 L 24 17.083984 z M 49 21 C 48.448 21 48 21.447 48 22 C 48 22.553 48.448 23 49 23 L 51 23 C 51.552 23 52 22.553 52 22 C 52 21.447 51.552 21 51 21 L 49 21 z M 49 26 C 48.448 26 48 26.447 48 27 C 48 27.553 48.448 28 49 28 L 51 28 C 51.552 28 52 27.553 52 27 C 52 26.447 51.552 26 51 26 L 49 26 z M 49 31 C 48.448 31 48 31.447 48 32 C 48 32.553 48.448 33 49 33 L 51 33 C 51.552 33 52 32.553 52 32 C 52 31.447 51.552 31 51 31 L 49 31 z M 39 31.039062 C 38.649 31.039062 38.298547 31.199984 38.123047 31.521484 L 36.806641 33.927734 C 36.603641 34.298734 36.299734 34.602641 35.927734 34.806641 L 33.521484 36.123047 C 33.200484 36.298047 33 36.635 33 37 C 33 37.365 33.199531 37.701953 33.519531 37.876953 L 35.927734 39.193359 C 36.299734 39.397359 36.603641 39.701266 36.806641 40.072266 L 38.121094 42.478516 C 38.297094 42.800516 38.634 43 39 43 C 39.366 43 39.701953 42.800516 39.876953 42.478516 L 41.193359 40.072266 C 41.396359 39.701266 41.700266 39.397359 42.072266 39.193359 L 44.478516 37.876953 C 44.799516 37.701953 45 37.365 45 37 C 45 36.635 44.800469 36.298047 44.480469 36.123047 L 42.072266 34.806641 C 41.700266 34.602641 41.396359 34.298734 41.193359 33.927734 L 39.878906 31.521484 C 39.703406 31.199984 39.351 31.039062 39 31.039062 z M 39 34.083984 L 39.439453 34.886719 C 39.826453 35.594719 40.405281 36.172547 41.113281 36.560547 L 41.916016 37 L 41.111328 37.439453 C 40.403328 37.827453 39.826453 38.405281 39.439453 39.113281 L 39 39.916016 L 38.560547 39.113281 C 38.173547 38.405281 37.594719 37.827453 36.886719 37.439453 L 36.083984 37 L 36.888672 36.560547 C 37.596672 36.172547 38.173547 35.594719 38.560547 34.886719 L 39 34.083984 z M 49 36 C 48.448 36 48 36.447 48 37 C 48 37.553 48.448 38 49 38 L 51 38 C 51.552 38 52 37.553 52 37 C 52 36.447 51.552 36 51 36 L 49 36 z M 20 39.609375 C 19.649 39.609375 19.296594 39.770297 19.121094 40.091797 L 18.068359 42.015625 C 17.923359 42.280625 17.709313 42.495625 17.445312 42.640625 L 15.519531 43.693359 C 15.199531 43.868359 15 44.205313 15 44.570312 C 15 44.936312 15.200484 45.273219 15.521484 45.449219 L 17.445312 46.501953 C 17.709312 46.646953 17.925312 46.861 18.070312 47.125 L 19.123047 49.050781 C 19.298047 49.371781 19.635 49.572266 20 49.572266 C 20.365 49.572266 20.701953 49.372781 20.876953 49.050781 L 21.929688 47.126953 C 22.074687 46.861953 22.291688 46.645953 22.554688 46.501953 L 24.480469 45.449219 C 24.800469 45.273219 25 44.937312 25 44.570312 C 25 44.205313 24.801469 43.868359 24.480469 43.693359 L 22.552734 42.638672 C 22.289734 42.494672 22.073688 42.281578 21.929688 42.017578 L 20.876953 40.091797 C 20.701453 39.770297 20.351 39.609375 20 39.609375 z M 49 41 C 48.448 41 48 41.447 48 42 C 48 42.553 48.448 43 49 43 L 51 43 C 51.552 43 52 42.553 52 42 C 52 41.447 51.552 41 51 41 L 49 41 z M 20 42.654297 L 20.175781 42.976562 C 20.504781 43.577562 20.99475 44.068531 21.59375 44.394531 L 21.916016 44.570312 L 21.59375 44.746094 C 20.99475 45.074094 20.504781 45.565016 20.175781 46.166016 L 20 46.486328 L 19.824219 46.164062 C 19.496219 45.564062 19.00625 45.075094 18.40625 44.746094 L 18.085938 44.570312 L 18.40625 44.394531 C 19.00625 44.067531 19.495219 43.578562 19.824219 42.976562 L 20 42.654297 z M 49 46 C 48.448 46 48 46.447 48 47 C 48 47.553 48.448 48 49 48 L 51 48 C 51.552 48 52 47.553 52 47 C 52 46.447 51.552 46 51 46 L 49 46 z M 49 51 C 48.448 51 48 51.447 48 52 C 48 52.553 48.448 53 49 53 L 51 53 C 51.552 53 52 52.553 52 52 C 52 51.447 51.552 51 51 51 L 49 51 z"/></svg>