<svg xmlns="http://www.w3.org/2000/svg" viewBox="0 0 64 64"><linearGradient id="nIxifZQTE8Tid5etnh93Pa" x1="49.499" x2="49.499" y1="312.472" y2="294.515" gradientTransform="matrix(1 0 0 -1 0 318)" gradientUnits="userSpaceOnUse" spreadMethod="reflect"><stop offset="0" stop-color="#6dc7ff"/><stop offset="1" stop-color="#e6abff"/></linearGradient><path fill="url(#nIxifZQTE8Tid5etnh93Pa)" d="M56.999,12H52V7c0-0.552-0.448-1-1-1h-3c-0.552,0-1,0.448-1,1v5h-5c-0.552,0-1,0.448-1,1v3 c0,0.552,0.448,1,1,1h5v5c0,0.552,0.448,1,1,1h3c0.552,0,1-0.448,1-1v-5h4.999c0.552,0,1-0.448,1-1v-3 C57.999,12.448,57.551,12,56.999,12z"/><linearGradient id="nIxifZQTE8Tid5etnh93Pb" x1="42" x2="42" y1="52" y2="56" gradientUnits="userSpaceOnUse" spreadMethod="reflect"><stop offset="0" stop-color="#6dc7ff"/><stop offset="1" stop-color="#e6abff"/></linearGradient><path fill="url(#nIxifZQTE8Tid5etnh93Pb)" d="M26,56h32c0.552,0,1-0.448,1-1v-1c0-1.105-0.895-2-2-2H26c-0.552,0-1,0.448-1,1v2 C25,55.552,25.448,56,26,56z"/><linearGradient id="nIxifZQTE8Tid5etnh93Pc" x1="21" x2="21" y1="30" y2="36" gradientUnits="userSpaceOnUse" spreadMethod="reflect"><stop offset="0" stop-color="#6dc7ff"/><stop offset="1" stop-color="#e6abff"/></linearGradient><path fill="url(#nIxifZQTE8Tid5etnh93Pc)" d="M16,36v-6h9c0.552,0,1,0.448,1,1v5H16z"/><linearGradient id="nIxifZQTE8Tid5etnh93Pd" x1="18.5" x2="18.5" y1="8.125" y2="58.002" gradientUnits="userSpaceOnUse" spreadMethod="reflect"><stop offset="0" stop-color="#1a6dff"/><stop offset="1" stop-color="#c822ff"/></linearGradient><path fill="url(#nIxifZQTE8Tid5etnh93Pd)" d="M18.5,58c-2.481,0-4.5-2.019-4.5-4.5s2.019-4.5,4.5-4.5s4.5,2.019,4.5,4.5S20.981,58,18.5,58z M18.5,51c-1.379,0-2.5,1.122-2.5,2.5s1.121,2.5,2.5,2.5s2.5-1.122,2.5-2.5S19.879,51,18.5,51z"/><linearGradient id="nIxifZQTE8Tid5etnh93Pe" x1="19" x2="19" y1="10.114" y2="55.457" gradientUnits="userSpaceOnUse" spreadMethod="reflect"><stop offset="0" stop-color="#1a6dff"/><stop offset="1" stop-color="#c822ff"/></linearGradient><path fill="url(#nIxifZQTE8Tid5etnh93Pe)" d="M23,30h-2V14c0-1.103-0.897-2-2-2h-2v18h-2V11c0-0.552,0.447-1,1-1h3c2.206,0,4,1.794,4,4V30z"/><linearGradient id="nIxifZQTE8Tid5etnh93Pf" x1="23.5" x2="23.5" y1="8.125" y2="58.002" gradientUnits="userSpaceOnUse" spreadMethod="reflect"><stop offset="0" stop-color="#1a6dff"/><stop offset="1" stop-color="#c822ff"/></linearGradient><path fill="url(#nIxifZQTE8Tid5etnh93Pf)" d="M31,50h-6.51c-0.314,0-0.61-0.147-0.799-0.398C22.447,47.948,20.555,47,18.5,47H16 c-0.553,0-1-0.448-1-1V36c0-0.552,0.447-1,1-1h11c2.757,0,5,2.243,5,5v9C32,49.552,31.553,50,31,50z M24.971,48H30v-8 c0-1.654-1.346-3-3-3H17v8h1.5C21.019,45,23.35,46.087,24.971,48z"/><linearGradient id="nIxifZQTE8Tid5etnh93Pg" x1="12.053" x2="12.053" y1="10.125" y2="60.002" gradientUnits="userSpaceOnUse" spreadMethod="reflect"><stop offset="0" stop-color="#1a6dff"/><stop offset="1" stop-color="#c822ff"/></linearGradient><path fill="url(#nIxifZQTE8Tid5etnh93Pg)" d="M9.895,17.447l-1.789-0.895l3-6C11.275,10.214,11.621,10,12,10h4v2h-3.382L9.895,17.447z"/><linearGradient id="nIxifZQTE8Tid5etnh93Ph" x1="8" x2="8" y1="10.125" y2="60.002" gradientUnits="userSpaceOnUse" spreadMethod="reflect"><stop offset="0" stop-color="#1a6dff"/><stop offset="1" stop-color="#c822ff"/></linearGradient><path fill="url(#nIxifZQTE8Tid5etnh93Ph)" d="M8,22c-1.654,0-3-1.346-3-3s1.346-3,3-3s3,1.346,3,3S9.654,22,8,22z M8,18 c-0.552,0-1,0.449-1,1s0.448,1,1,1s1-0.449,1-1S8.552,18,8,18z"/><linearGradient id="nIxifZQTE8Tid5etnh93Pi" x1="21" x2="21" y1="8.125" y2="58.002" gradientUnits="userSpaceOnUse" spreadMethod="reflect"><stop offset="0" stop-color="#1a6dff"/><stop offset="1" stop-color="#c822ff"/></linearGradient><path fill="url(#nIxifZQTE8Tid5etnh93Pi)" d="M26,37H16c-0.553,0-1-0.448-1-1v-6c0-0.552,0.447-1,1-1h8c1.654,0,3,1.346,3,3v4 C27,36.552,26.553,37,26,37z M17,35h8v-3c0-0.551-0.448-1-1-1h-7V35z"/></svg>