<?xml version="1.0"?><svg xmlns="http://www.w3.org/2000/svg" viewBox="0 0 128 128">    <path d="M 63.699219 3.5 C 56.199219 3.5 49.9 8.9 48.5 16 L 17.300781 16 C 15.600781 16 14.300781 17.3 14.300781 19 L 14.300781 34.5 C 14.300781 36.2 15.600781 37.5 17.300781 37.5 L 19 37.5 L 19 113 L 13 113 C 11.3 113 10 114.3 10 116 C 10 117.7 11.3 119 13 119 L 22 119 L 36.199219 119 L 83.300781 119 L 87.400391 119 L 97 119 L 97.400391 119 L 112.40039 119 C 114.10039 119 115.40039 117.7 115.40039 116 L 115.40039 37.5 L 117.09961 37.5 C 118.79961 37.5 120.09961 36.2 120.09961 34.5 L 120.09961 19 C 120.09961 17.3 118.79961 16 117.09961 16 L 78.900391 16 C 77.500391 8.9 71.199219 3.5 63.699219 3.5 z M 63.699219 9.5 C 68.899219 9.5 73.199219 13.8 73.199219 19 C 73.199219 20.7 74.499219 22 76.199219 22 L 101.09961 22 L 101.09961 31.5 L 20.300781 31.5 L 20.300781 22 L 51.199219 22 C 52.899219 22 54.199219 20.7 54.199219 19 C 54.199219 13.8 58.499219 9.5 63.699219 9.5 z M 62.199219 13.199219 L 62.199219 17.099609 L 58.199219 17.099609 L 58.199219 20.599609 L 62.199219 20.599609 L 62.199219 24.599609 L 65.699219 24.599609 L 65.699219 20.599609 L 69.599609 20.599609 L 69.599609 17.099609 L 65.699219 17.099609 L 65.699219 13.199219 L 62.199219 13.199219 z M 25 37.5 L 94 37.5 L 94 113 L 87.400391 113 L 86.300781 113 L 86.300781 82.900391 C 86.300781 81.200391 85.000781 79.900391 83.300781 79.900391 L 36.199219 79.900391 C 34.499219 79.900391 33.199219 81.200391 33.199219 82.900391 L 33.199219 113 L 25 113 L 25 37.5 z M 36.199219 45.599609 C 34.499219 45.599609 33.199219 46.899609 33.199219 48.599609 L 33.199219 69.199219 C 33.199219 70.899219 34.499219 72.300781 36.199219 72.300781 L 55 72.300781 C 56.7 72.300781 58 71.000781 58 69.300781 L 58 48.599609 C 58 46.899609 56.7 45.599609 55 45.599609 L 36.199219 45.599609 z M 64.400391 45.599609 C 62.700391 45.599609 61.400391 46.899609 61.400391 48.599609 L 61.400391 69.199219 C 61.400391 70.899219 62.800391 72.300781 64.400391 72.300781 L 83.199219 72.300781 C 84.899219 72.300781 86.199219 71.000781 86.199219 69.300781 L 86.199219 48.599609 C 86.199219 46.899609 84.899219 45.599609 83.199219 45.599609 L 64.400391 45.599609 z M 39.199219 51.599609 L 52 51.599609 L 52 66.199219 L 39.199219 66.199219 L 39.199219 51.599609 z M 67.400391 51.599609 L 80.199219 51.599609 L 80.199219 66.199219 L 67.400391 66.199219 L 67.400391 51.599609 z M 39.199219 85.900391 L 56.800781 85.900391 L 56.800781 113 L 56.699219 113 L 39.199219 113 L 39.199219 85.900391 z M 62.699219 85.900391 L 80.300781 85.900391 L 80.300781 113 L 62.699219 113 L 62.699219 85.900391 z"/></svg>