<svg xmlns="http://www.w3.org/2000/svg" viewBox="0 0 128 128"><path d="M 61 1 C 53.3 1 47 7.3 47 15 L 47 19 C 47 20.7 48.3 22 50 22 C 51.7 22 53 20.7 53 19 L 53 15 C 53 10.6 56.6 7 61 7 C 63.8 7 66.199219 8.2992188 67.699219 10.699219 C 69.199219 12.999219 69.400781 15.800781 68.300781 18.300781 L 61.300781 33.800781 C 60.600781 35.300781 61.299219 36.999219 62.699219 37.699219 L 118.09961 64.400391 C 120.19961 65.400391 120.60078 67.400391 120.30078 68.900391 C 120.00078 70.400391 118.80039 72 116.40039 72 L 113 72 C 111.3 72 110 73.3 110 75 C 110 76.7 111.3 78 113 78 L 116.40039 78 C 121.20039 78 125.09961 74.899219 126.09961 70.199219 C 127.19961 65.599219 124.99922 61.1 120.69922 59 L 67.900391 33.599609 L 73.699219 20.800781 C 75.699219 16.500781 75.299219 11.5 72.699219 7.5 C 70.099219 3.4 65.8 1 61 1 z M 49.859375 38.8125 C 49.46875 38.83125 49.074219 38.924609 48.699219 39.099609 L 7.3007812 59 C 3.0007813 61.1 0.80039063 65.599219 1.9003906 70.199219 C 3.0003906 74.899219 6.8996094 78 11.599609 78 L 26 78 C 27.7 78 29 76.7 29 75 L 29 69 C 29 67.3 30.3 66 32 66 C 33.7 66 35 67.3 35 69 L 35 124 C 35 125.7 36.3 127 38 127 C 39.7 127 41 125.7 41 124 L 41 69 C 41 67.9 40.8 66.9 40.5 66 L 96 66 C 97.7 66 99 67.3 99 69 L 99 124 C 99 125.7 100.3 127 102 127 C 103.7 127 105 125.7 105 124 L 105 69 C 105 64 101 60 96 60 L 32 60 C 27 60 23 64 23 69 L 23 72 L 11.599609 72 C 9.1996094 72 7.9992187 70.400391 7.6992188 68.900391 C 7.3992188 67.400391 7.7003906 65.400391 9.9003906 64.400391 L 51.300781 44.5 C 52.800781 43.8 53.399219 42 52.699219 40.5 C 52.174219 39.375 51.03125 38.75625 49.859375 38.8125 z M 26 85 C 24.3 85 23 86.3 23 88 L 23 114 C 23 115.7 24.3 117 26 117 C 27.7 117 29 115.7 29 114 L 29 88 C 29 86.3 27.7 85 26 85 z M 26 121 A 3 3 0 0 0 26 127 A 3 3 0 0 0 26 121 z"/></svg>