<svg xmlns="http://www.w3.org/2000/svg" viewBox="0 0 64 64"><radialGradient id="o6TAH~O_FWw_yt05DRBv7a" cx="32.5" cy="34" r="31.751" gradientTransform="matrix(1 0 0 -1 0 66)" gradientUnits="userSpaceOnUse"><stop offset="0" stop-color="#afeeff"/><stop offset=".193" stop-color="#bbf1ff"/><stop offset=".703" stop-color="#d7f8ff"/><stop offset="1" stop-color="#e1faff"/></radialGradient><path fill="url(#o6TAH~O_FWw_yt05DRBv7a)" d="M59.5,41H48V24.999c0-1.1,0.9-1.999,2-1.999l11.411,0.008c1.14,0,2.2-0.72,2.5-1.82	c0.44-1.661-0.82-3.18-2.41-3.18h-5.379c-0.997,0-1.928-0.675-2.093-1.659c-0.21-1.249,0.759-2.341,1.971-2.341h2.411	c1.85,0,3.32-1.69,2.94-3.6c-0.28-1.43-1.62-2.4-3.07-2.4L45.5,8C44.67,8,44,7.33,44,6.5S44.67,5,45.5,5h5.905	c1.139,0,2.206-0.719,2.505-1.818C54.361,1.521,53.101,0,51.5,0H7.595C6.456,0,5.39,0.719,5.091,1.818C4.639,3.479,5.899,5,7.5,5h3	c0.69,0,1.32,0.28,1.77,0.73c0.417,0.417,0.688,0.988,0.725,1.618C13.083,8.804,11.798,10,10.34,10H8H6c-2.209,0-4,1.791-4,4l0,0	c0,2.209,1.791,4,4,4h2h18v5H13v9h4.34c1.459,0,2.743,1.196,2.655,2.652c-0.038,0.63-0.309,1.201-0.725,1.618	C18.82,36.72,11.69,37,11,37v3H7.252c-3.285,0-6.15,2.532-6.249,5.815C0.901,49.213,3.625,52,7,52h8.83	c1.624,0,3.081,1.216,3.165,2.839C19.086,56.569,17.71,58,16,58h-0.835c-1.626,0-3.079,1.221-3.161,2.844	C11.917,62.575,13.288,64,15,64h43.835c1.626,0,3.079-1.221,3.161-2.844C62.083,59.425,60.712,58,59,58h-2.828	c-2.089,0-3.955-1.527-4.153-3.607C51.791,52.007,53.661,50,56,50h3.307c2.35,0,4.449-1.718,4.672-4.058	C64.235,43.258,62.131,41,59.5,41z"/><path fill="#717171" d="M32,54c-1.104,0-2-0.896-2-2v-8c0-1.104,0.896-2,2-2s2,0.896,2,2v8C34,53.104,33.104,54,32,54z"/><path fill="#717171" d="M45.681,51.589c-0.816,0-1.584-0.505-1.879-1.317l-2.736-7.518c-0.378-1.037,0.157-2.186,1.195-2.563	c1.036-0.381,2.186,0.156,2.563,1.195l2.736,7.518c0.378,1.037-0.157,2.186-1.195,2.563C46.139,51.55,45.908,51.589,45.681,51.589z"/><path fill="#717171" d="M57.713,44.642c-0.57,0-1.138-0.243-1.533-0.714L51.037,37.8c-0.71-0.847-0.6-2.108,0.246-2.818	c0.847-0.708,2.108-0.599,2.818,0.246l5.143,6.128c0.71,0.847,0.6,2.108-0.246,2.818C58.623,44.488,58.167,44.642,57.713,44.642z"/><path fill="#717171" d="M18.319,51.589c-0.228,0-0.458-0.039-0.684-0.122c-1.038-0.377-1.573-1.525-1.195-2.563l2.736-7.518	c0.377-1.039,1.527-1.576,2.563-1.195c1.038,0.377,1.573,1.525,1.195,2.563l-2.736,7.518C19.903,51.084,19.136,51.589,18.319,51.589	z"/><path fill="#717171" d="M6.287,44.642c-0.454,0-0.91-0.153-1.285-0.468c-0.846-0.71-0.956-1.972-0.246-2.818l5.143-6.128	c0.711-0.846,1.973-0.955,2.818-0.246c0.846,0.71,0.956,1.972,0.246,2.818L7.82,43.928C7.425,44.398,6.857,44.642,6.287,44.642z"/><linearGradient id="o6TAH~O_FWw_yt05DRBv7b" x1="32" x2="32" y1="20.872" y2="52.151" gradientTransform="matrix(1 0 0 -1 0 66)" gradientUnits="userSpaceOnUse"><stop offset="0" stop-color="#ff9757"/><stop offset="1" stop-color="#ffb65b"/></linearGradient><path fill="url(#o6TAH~O_FWw_yt05DRBv7b)" d="M59.211,24.635C53.95,19.758,43.737,12,32,12S10.05,19.758,4.789,24.635	c-2.385,2.211-2.385,5.519,0,7.73C10.05,37.242,20.263,45,32,45s21.95-7.758,27.211-12.635	C61.596,30.154,61.596,26.846,59.211,24.635z"/></svg>