<?xml version="1.0"?><svg xmlns="http://www.w3.org/2000/svg" viewBox="0 0 128 128">    <path d="M 75.726562 33.484375 C 73.686914 33.422852 71.412891 33.562891 68.900391 33.900391 C 61.300391 34.900391 53.400391 37.5 49.400391 39 C 40.900391 42.1 26.199609 48.500781 21.599609 56.800781 C 21.499609 56.900781 21.400781 57.100781 21.300781 57.300781 C 15.200781 69.100781 14.400391 83.099609 18.900391 95.599609 C 22.900391 106.59961 30.600781 115.59922 40.800781 121.19922 L 29.699219 121.19922 C 27.999219 121.19922 26.699219 122.49922 26.699219 124.19922 C 26.699219 125.89922 27.999219 127.19922 29.699219 127.19922 L 63.5 127.19922 L 64 127.19922 L 64.599609 127.19922 L 98 127.19922 C 99.7 127.19922 101 125.89922 101 124.19922 C 101 122.49922 99.7 121.19922 98 121.19922 L 87.199219 121.19922 C 106.79922 110.19922 116.70039 86.900391 109.90039 64.900391 C 105.90039 51.900391 96.899219 41.499219 84.699219 35.699219 C 84.499219 35.599219 84.2 35.5 84 35.5 C 81.875 34.25 79.125977 33.586914 75.726562 33.484375 z M 75.333984 39.556641 C 78.645508 39.665039 81.824219 40.462891 82.699219 42.900391 C 83.699219 45.800391 80.800781 48.900781 77.800781 51.300781 C 71.600781 51.400781 63.7 53 55.5 56 C 52.3 57.2 49.200391 58.500391 46.400391 59.900391 C 44.000391 61.100391 43.699219 63.600391 44.699219 65.400391 C 43.999219 65.600391 43.299609 65.700781 42.599609 65.800781 C 40.999609 66.000781 40.000781 67.599219 40.300781 69.199219 C 40.600781 70.599219 41.799219 71.599609 43.199219 71.599609 C 43.399219 71.599609 43.600781 71.6 43.800781 71.5 C 50.300781 70.3 56.599219 68.2 59.699219 67 C 63.699219 65.5 71.400391 62.500391 77.900391 58.400391 C 84.700391 54.000391 88.4 49.599609 89 45.099609 C 93.9 48.699609 98.000391 53.299609 100.90039 58.599609 C 93.700391 56.199609 84.299219 63.200781 89.199219 72.300781 C 102.09922 96.800781 90.400391 109.29922 76.400391 119.19922 C 72.600391 120.39922 68.599219 120.99961 64.699219 121.09961 L 63.800781 121.09961 C 57.900781 121.09961 52.000391 119.79922 46.400391 117.19922 C 36.200391 112.49922 28.399609 104 24.599609 93.5 C 20.699609 82.7 21.4 70.600781 26.5 60.300781 C 26.6 60.200781 26.599219 60.1 26.699219 60 C 29.499219 54.3 41.3 48.399219 51.5 44.699219 C 54.6 43.599219 62.399219 40.900391 69.699219 39.900391 C 71.311719 39.675391 73.34707 39.491602 75.333984 39.556641 z M 32 65.775391 C 31.225 65.775391 30.450391 66.049609 29.900391 66.599609 C 29.800391 66.699609 29.6 66.899609 29.5 67.099609 C 29.4 67.299609 29.299219 67.399609 29.199219 67.599609 C 29.099219 67.799609 29.1 67.999219 29 68.199219 C 29 68.399219 28.900391 68.600781 28.900391 68.800781 C 28.900391 69.600781 29.200781 70.400391 29.800781 70.900391 C 30.400781 71.500391 31.100391 71.800781 31.900391 71.800781 C 32.700391 71.800781 33.5 71.500391 34 70.900391 C 34.5 70.300391 34.900391 69.600781 34.900391 68.800781 C 34.900391 68.600781 34.900781 68.399219 34.800781 68.199219 C 34.900781 67.999219 34.900781 67.799609 34.800781 67.599609 C 34.700781 67.399609 34.6 67.199609 34.5 67.099609 C 34.4 66.899609 34.299609 66.799609 34.099609 66.599609 C 33.549609 66.049609 32.775 65.775391 32 65.775391 z M 113.19922 120.875 C 112.42422 120.875 111.64961 121.14922 111.09961 121.69922 C 110.49961 122.29922 110.19922 123.00078 110.19922 123.80078 C 110.19922 124.00078 110.20078 124.20039 110.30078 124.40039 C 110.10078 124.80039 110.09922 124.99961 110.19922 125.09961 C 110.29922 125.29961 110.4 125.49961 110.5 125.59961 C 110.6 125.79961 110.70039 125.89961 110.90039 126.09961 C 111.50039 126.69961 112.2 127 113 127 C 113.2 127 113.39961 127.00039 113.59961 126.90039 C 113.79961 126.90039 113.99922 126.79922 114.19922 126.69922 C 114.39922 126.59922 114.59922 126.50039 114.69922 126.40039 C 114.89922 126.30039 114.99922 126.2 115.19922 126 C 115.29922 125.9 115.49961 125.7 115.59961 125.5 C 115.69961 125.3 115.80039 125.2 115.90039 125 C 116.00039 124.8 115.99961 124.60039 116.09961 124.40039 C 116.09961 124.20039 116.19922 124.00078 116.19922 123.80078 C 116.19922 123.00078 115.90078 122.19922 115.30078 121.69922 C 114.75078 121.14922 113.97422 120.875 113.19922 120.875 z"/></svg>