<svg xmlns="http://www.w3.org/2000/svg" xmlns:xlink="http://www.w3.org/1999/xlink" viewBox="0 0 100 100"><path fill="#fff" d="M20.4 55.6A.9.9 0 1 0 20.4 57.4.9.9 0 1 0 20.4 55.6zM79.4 30.900000000000002A.7.7 0 1 0 79.4 32.300000000000004.7.7 0 1 0 79.4 30.900000000000002z"/><path fill="#f1bc19" d="M76.8 11.7A.9.9 0 1 0 76.8 13.5.9.9 0 1 0 76.8 11.7zM20.9 63.300000000000004A.9.9 0 1 0 20.9 65.10000000000001.9.9 0 1 0 20.9 63.300000000000004z"/><path fill="#f9dbd2" d="M49.7 12.299999999999997A37.5 37.5 0 1 0 49.7 87.3A37.5 37.5 0 1 0 49.7 12.299999999999997Z"/><path fill="#f1bc19" d="M82.3 10.7A4 4 0 1 0 82.3 18.7A4 4 0 1 0 82.3 10.7Z"/><path fill="#ee3e54" d="M86.3 21.900000000000002A1.9 1.9 0 1 0 86.3 25.7A1.9 1.9 0 1 0 86.3 21.900000000000002Z"/><path fill="#fbcd59" d="M77.3 74.3A1.9 1.9 0 1 0 77.3 78.10000000000001 1.9 1.9 0 1 0 77.3 74.3zM14.1 59.3A4 4 0 1 0 14.1 67.3 4 4 0 1 0 14.1 59.3z"/><path fill="#ee3e54" d="M24.3 85.5A1.9 1.9 0 1 0 24.3 89.30000000000001A1.9 1.9 0 1 0 24.3 85.5Z"/><path fill="#fff" d="M22.5 64.8A2.5 2.5 0 1 0 22.5 69.8A2.5 2.5 0 1 0 22.5 64.8Z"/><path fill="#cbc9bc" d="M67,28.7v4c0,0.4-0.3,0.8-0.8,0.8h-0.8c-0.4,0-0.8-0.3-0.8-0.8v-4c0-0.4,0.3-0.8,0.8-0.8h0.8 C66.7,27.9,67,28.3,67,28.7z"/><path fill="#472b29" d="M66.3,33.8h-0.8c-0.6,0-1.1-0.5-1.1-1.1v-4c0-0.6,0.5-1.1,1.1-1.1h0.8c0.6,0,1.1,0.5,1.1,1.1v4 C67.4,33.3,66.9,33.8,66.3,33.8z M65.4,28.3c-0.2,0-0.4,0.2-0.4,0.4v4c0,0.2,0.2,0.4,0.4,0.4h0.8c0.2,0,0.4-0.2,0.4-0.4v-4 c0-0.2-0.2-0.4-0.4-0.4H65.4z"/><path fill="#e1e0d8" d="M39.5,22H60c2.8,0,5,2.2,5,5v45.5c0,2.8-2.2,5-5,5H39.5c-2.8,0-5-2.2-5-5V27 C34.5,24.3,36.8,22,39.5,22z"/><path fill="#472b29" d="M60,78.3H39.5c-3.1,0-5.7-2.6-5.7-5.7V27c0-3.1,2.6-5.7,5.7-5.7H60c3.1,0,5.7,2.6,5.7,5.7v45.5 C65.7,75.7,63.2,78.3,60,78.3z M39.5,22.8c-2.4,0-4.3,1.9-4.3,4.3v45.5c0,2.4,1.9,4.3,4.3,4.3H60c2.4,0,4.3-1.9,4.3-4.3V27 c0-2.4-1.9-4.3-4.3-4.3H39.5z"/><path fill="#c0e5e4" d="M61.9 36.1L61.9 68.2 38.5 68.2 38.5 61.2 38.5 53.3 38.5 29.1 58.8 29.1 61.9 29.1z"/><path fill="#472b29" d="M38.1 53.3c-.2 0-.4-.2-.4-.4V28.7c0-.2.2-.4.4-.4h20.3c.2 0 .4.2.4.4s-.2.4-.4.4h-20v23.9C38.4 53.1 38.3 53.3 38.1 53.3zM61.5 68.2H38.1c-.2 0-.4-.2-.4-.4v-7c0-.2.2-.4.4-.4s.4.2.4.4v6.7h22.7V35.7c0-.2.2-.4.4-.4s.4.2.4.4v32.1C61.9 68 61.7 68.2 61.5 68.2z"/><path fill="#cbc9bc" d="M49.4 70.1A2 2 0 1 0 49.4 74.1A2 2 0 1 0 49.4 70.1Z"/><path fill="#472b29" d="M49.4 74.4c-1.3 0-2.3-1-2.3-2.3s1-2.3 2.3-2.3 2.3 1 2.3 2.3S50.7 74.4 49.4 74.4zM49.4 70.5c-.9 0-1.6.7-1.6 1.6s.7 1.6 1.6 1.6S51 73 51 72.1 50.3 70.5 49.4 70.5zM46.6 25.2h6.3c.2 0 .4.2.4.4v0c0 .2-.2.4-.4.4h-6.3c-.2 0-.4-.2-.4-.4v0C46.3 25.3 46.4 25.2 46.6 25.2zM61.5 31.4c-.2 0-.4-.2-.4-.4v-2.3c0-.2.2-.4.4-.4s.4.2.4.4V31C61.9 31.3 61.7 31.4 61.5 31.4zM61.5 33c0 0-.1 0-.1 0 0 0-.1-.1-.1-.1-.1-.1-.1-.2-.1-.3s0-.2.1-.3c.1-.1.4-.1.5 0 .1.1.1.2.1.3 0 0 0 .1 0 .1 0 0-.1.1-.1.1C61.7 32.9 61.6 33 61.5 33zM38.1 59.6c-.2 0-.4-.2-.4-.4v-1.6c0-.2.2-.4.4-.4s.4.2.4.4v1.6C38.4 59.4 38.3 59.6 38.1 59.6z"/><g><path fill="#f4989e" d="M49.8 32.699999999999996A9.1 9.1 0 1 0 49.8 50.9A9.1 9.1 0 1 0 49.8 32.699999999999996Z"/><path fill="#472b29" d="M49.8,51.3c-5.2,0-9.5-4.3-9.5-9.5s4.3-9.5,9.5-9.5c5.2,0,9.5,4.3,9.5,9.5S55,51.3,49.8,51.3z M49.8,33c-4.8,0-8.7,3.9-8.7,8.7s3.9,8.7,8.7,8.7s8.7-3.9,8.7-8.7S54.6,33,49.8,33z"/></g><g><defs><path id="dI7Y9JnTWxn2Jm5csSKmta" d="M49.8 32.7A9 9 0 1 0 49.8 50.7A9 9 0 1 0 49.8 32.7Z"/></defs><clipPath id="dI7Y9JnTWxn2Jm5csSKmtb"><use overflow="visible" xlink:href="#dI7Y9JnTWxn2Jm5csSKmta"/></clipPath><g clip-path="url(#dI7Y9JnTWxn2Jm5csSKmtb)"><path fill="#472b29" d="M55.6,36.1c-0.4-1.2-1.2-2.3-2.2-3.2c-1-0.8-2.3-1.2-3.7-1.1c-1.3-0.1-2.6,0.2-3.6,1.1 c-1,0.8-1.8,1.9-2.2,3.2c-0.9,2.5-0.7,5.3,0.7,7.6c1,1.7,2.7,2.9,4.7,3.2l0,0c0.2,0,0.4,0,0.6,0c0.2,0,0.4,0,0.6,0l0,0 c2-0.3,3.7-1.5,4.7-3.2C56.3,41.3,56.5,38.6,55.6,36.1z M49.7,45.4c-1.2-3.5-1.2-7.3,0-10.8C50.9,38.1,50.9,41.9,49.7,45.4z"/><path fill="#d8ad8f" d="M54.1,37.9c0-0.6-0.1-1.1-0.1-1.3l0,0c-0.4-0.7-0.9-1.3-1.5-1.8c-0.8-0.5-1.6-0.8-2.5-1.1 c-2.1-0.5-4.1,1-4.8,3l0,0c0.1,0.4,0.1,0.7,0.1,1.1c-0.6,0-0.8,0.3-0.7,0.9c0,0,0.2,1,0.4,1.5c0,0.3,0.3,0.5,0.5,0.5 c0,0.3,0,0.6,0,0.9c0,0.4,0.1,0.8,0.3,1.1c0.5,0.8,3.4,2.7,4,2.6c1.1,0,3.3-1.9,3.9-2.9C54,42.2,54,42,54,41.8 c0-0.4,0-0.7,0-1.1c0.2,0,0.4-0.2,0.5-0.5c0.2-0.5,0.4-1.4,0.4-1.5C55.1,38.2,54.7,37.8,54.1,37.9z"/><path fill="#b2876b" d="M55.8,47.5l-0.1,0l-0.2-0.1c-0.5-0.2-3.4-1.2-3.4-1.2c-0.2-0.1-0.4-0.2-0.4-0.4 c-0.1-0.4-0.1-0.7-0.1-1.1c-0.5,0.2-1,0.4-1.5,0.5c-0.7,0.1-1.9-0.8-1.9-0.8s0,1.1-0.1,1.4c-0.1,0.2-0.2,0.4-0.5,0.4l-2.8,1 c-0.3,0.1-0.5,0.2-0.8,0.3c-0.6,0.4-1,1-1.2,1.8l0,0c0,0,0,0.1,0,0.2c0,0.2,0,0.3,0,0.5c0,0.2,0,2.3,0,2.5 c3.1,2.2,4.5,2.3,8.4,2.3c1.7,0,4.8-1.1,6.2-1.7C57.1,49.4,57.4,47.9,55.8,47.5z"/><g opacity=".3"><path fill="#f4989e" d="M47.3 40.300000000000004A.7.8 0 1 0 47.3 41.9.7.8 0 1 0 47.3 40.300000000000004zM52.8 40.300000000000004A.7.8 0 1 0 52.8 41.9.7.8 0 1 0 52.8 40.300000000000004z" opacity=".8"/></g><path fill="#472b29" d="M45.8 41c-.1 0-.1-.1-.1-.1l-.3-3c0-.1.1-.2.1-.2.1 0 .2.1.2.1l.3 3C46 40.9 45.9 41 45.8 41 45.8 41 45.8 41 45.8 41zM54 40.9C54 40.9 54 40.9 54 40.9c-.1 0-.2-.1-.1-.2l.2-3c0-.1.1-.1.2-.1.1 0 .1.1.1.2l-.2 3C54.2 40.8 54.1 40.9 54 40.9z"/><path fill="#6d1b18" d="M48.7,42.6c0,0.1,0,0.1,0,0.2c0.2,0.7,0.9,1.1,1.6,0.9c0.4-0.1,0.8-0.5,0.9-0.9 c0-0.1,0-0.1,0-0.2H48.7z"/><path fill="#ee3e54" d="M50.6,43.6c-0.2-0.2-0.4-0.2-0.7-0.2c-0.2,0-0.5,0.1-0.7,0.2C49.7,43.8,50.2,43.8,50.6,43.6z"/><path fill="#fdfcef" d="M49.1,42.6L49.1,42.6v0.2c0,0.2,0.2,0.3,0.4,0.3h1c0.2,0,0.4-0.1,0.4-0.3v-0.2H49.1z"/><path fill="#472b29" d="M50,43.9c-0.3,0-0.5-0.1-0.7-0.2c-0.3-0.2-0.6-0.5-0.7-0.9c0-0.1,0-0.2,0-0.2 c0-0.1,0.1-0.1,0.1-0.1h2.5c0.1,0,0.1,0.1,0.1,0.1c0,0.1,0,0.2,0,0.2c-0.1,0.5-0.5,0.9-1,1C50.2,43.9,50.1,43.9,50,43.9z M48.9,42.8C48.9,42.8,48.9,42.8,48.9,42.8c0.2,0.6,0.8,1,1.4,0.8c0.4-0.1,0.7-0.4,0.8-0.8H48.9z"/><path fill="#ee3e54" d="M46.7,46.4c-0.1,3.4,6.3,3.6,5.9-0.3l1.8,0.6l0.5,7.1c-3.2,1.3-6.8,1.2-10-0.2L45,47L46.7,46.4 z"/><path fill="#fbcd59" d="M49.1,54.8c0.5,0.1,1.1-0.1,1.6-0.1l-0.2-5.1h-1.3L49.1,54.8z"/><path fill="#f1bc19" d="M50.9 49L50.5 49.8 49.2 49.8 48.8 49 49.8 48.2z"/><path fill="#e6e7e8" d="M49.8 48.2l-1.3 1.4-2.6-2.8c.6-.3 1.1-.6 1.8-.8l.5.5L49.8 48.2zM49.8 48.2L51.2 49.6 53.9 46.8 52 46.1 51.5 46.6z"/><path fill="#472b29" d="M49.9 41.9c.3 0 .5-.1.7-.3 0 0 0-.1 0-.1l0 0M50.6 41.5c-.4.3-.9.3-1.3 0l0 0 0 0c0 0 0 0 0 .1.2.2.4.3.7.3L50.6 41.5zM50.3 44.4h-.7H50.3z" opacity=".41"/><path fill="#512c2b" d="M49.2 37.4c-.9-.3-1.8-.4-2.7-.3 0 0-.1 0-.1.1 0 0 0 .1.1.1 0 0 1.9.3 2.4.5l0 0c0 0 0 0 .1 0l.2-.3C49.2 37.5 49.2 37.5 49.2 37.4 49.2 37.5 49.2 37.4 49.2 37.4zM50.7 37.3c.9-.2 1.8-.3 2.7-.1 0 0 .1 0 .1.1 0 0 0 .1-.1.1 0 0-1.9.2-2.5.4l0 0c0 0-.1 0-.1 0l-.2-.3C50.6 37.5 50.6 37.4 50.7 37.3 50.6 37.4 50.6 37.4 50.7 37.3z"/><path fill="#472b29" d="M47.9 38.2c-.2 0-.4.1-.4.3h.1c.2 0 .3.1.3.3 0 .2-.1.3-.3.3 0 0-.1 0-.1 0 0 .3.2.5.5.5.4-.1.6-.5.5-.9C48.3 38.5 48.1 38.3 47.9 38.2L47.9 38.2zM51.9 38.2c-.2 0-.3.1-.4.2 0 0 .1 0 .1 0 .2 0 .3.1.3.3 0 .2-.1.3-.3.3-.1 0-.2-.1-.2-.1-.1.3 0 .6.3.7s.6 0 .7-.3c.1-.1.1-.3 0-.4C52.4 38.5 52.2 38.2 51.9 38.2z"/><path fill="#472b29" d="M50,55.1c-2.5,0-5.2-0.7-7.5-2.5c-0.1,0-0.1-0.1-0.1-0.2c0,0,0-0.1,0-0.1 c-0.1-2.7,0.4-4.5,1.5-5c0.3-0.1,0.5-0.3,0.8-0.4l2.8-1c0.2,0,0.3-0.1,0.3-0.3c0-0.2,0.1-0.7,0.1-1c-0.8-0.5-1.5-1.1-2.1-1.7 c-0.3-0.4-0.4-0.8-0.4-1.2v-0.7c-0.3-0.1-0.5-0.3-0.5-0.6c-0.1-0.4-0.3-1.4-0.4-1.5c-0.1-0.4,0-0.7,0.1-0.9 c0.1-0.1,0.3-0.3,0.6-0.3c0,0,0-0.1,0-0.1c-0.1-0.2-0.2-0.4-0.2-0.7c0.2-2.4,2.1-4.3,4.5-4.5c1.3-0.1,2.5,0.3,3.5,1.2 s1.5,2,1.6,3.3c0,0.3-0.1,0.5-0.2,0.7v0.1c0.3,0,0.5,0.2,0.7,0.4c0.1,0.2,0.2,0.4,0.1,0.9c-0.1,0.3-0.3,1.2-0.4,1.5 c0,0.2-0.2,0.5-0.5,0.6v1c0,0.3-0.1,0.5-0.2,0.7c-0.7,0.9-1.4,1.7-2.3,2.3c0,0.3,0,0.5,0.1,0.8c0,0.1,0.1,0.2,0.3,0.2 c0.1,0,3,1,3.4,1.2l0.2,0.1c0,0,0.1,0,0.1,0c1.5,0.5,1.5,1.6,1.5,4c0,0.5,0,1.1,0.1,1.7c0,0.1,0,0.2-0.1,0.2 C55.7,54.2,52.9,55.1,50,55.1z M42.9,52.3c4.7,3.6,11,2.3,14.1,0.5c0-0.6,0-1.1,0-1.5c-0.1-2.4-0.1-3.2-1.1-3.5h-0.1 c0,0-0.1,0-0.1,0l-0.2-0.1c-0.4-0.2-3.3-1.2-3.4-1.2c-0.3-0.1-0.5-0.3-0.6-0.6c-0.1-0.4-0.1-0.7-0.1-1.1c0-0.1,0-0.1,0.1-0.2 c0.9-0.6,1.7-1.3,2.3-2.2c0.1-0.1,0.1-0.3,0.1-0.5v-1.2c0-0.1,0.1-0.2,0.2-0.2c0.1,0,0.2-0.1,0.3-0.2c0.1-0.5,0.3-1.4,0.4-1.5 c0.1-0.2,0.1-0.3,0-0.4c-0.1-0.1-0.3-0.2-0.5-0.2c-0.1,0-0.1,0-0.2-0.1c0,0-0.1-0.1-0.1-0.2v-0.4c0,0,0-0.1,0-0.1 c0.1-0.2,0.1-0.4,0.1-0.5c-0.1-1.1-0.6-2.2-1.5-2.9c-0.9-0.8-2-1.1-3.1-1.1c-2.1,0.1-3.9,1.9-4,4c0,0.1,0.1,0.3,0.1,0.5 c0,0,0,0.1,0,0.1c0,0.1,0,0.3,0,0.4c0,0.1-0.1,0.2-0.2,0.2c-0.2,0-0.4,0-0.4,0.1c-0.1,0.1-0.1,0.2,0,0.4c0,0,0.2,1,0.4,1.5 c0,0.2,0.1,0.3,0.3,0.3c0,0,0,0,0,0c0.1,0,0.1,0,0.2,0.1c0,0,0.1,0.1,0.1,0.2v0.9c0,0.3,0.1,0.7,0.3,0.9 c0.6,0.7,1.3,1.2,2.1,1.7c0.1,0,0.1,0.1,0.1,0.2c0,0.3-0.1,1-0.1,1.3c-0.1,0.3-0.3,0.6-0.7,0.6l-2.8,1 c-0.3,0.1-0.5,0.2-0.8,0.3C43.2,48.2,42.8,49.8,42.9,52.3C42.9,52.3,42.9,52.3,42.9,52.3z"/><path fill="#472b29" d="M50.1 45.2C50.1 45.2 50.1 45.2 50.1 45.2c-.7-.1-1.4-.3-2-.7-.1 0-.1-.1-.1-.2 0-.1.1-.1.2-.1.6.3 1.2.5 1.8.6.5-.1 1.1-.3 1.5-.6.1 0 .2 0 .2.1 0 .1 0 .2-.1.2C51.3 44.9 50.8 45.1 50.1 45.2 50.2 45.2 50.2 45.2 50.1 45.2zM49.7 33c-1.5-.5-5.6 1.5-4.5 4.8 0 0 4.3-2.5 4.5-3.4.3.9 4.4 3.4 4.5 3.4C55.3 34.5 51.2 32.6 49.7 33z"/></g></g><g><path fill="#88ae45" d="M44.4 57.1A2.9 2.9 0 1 0 44.4 62.9A2.9 2.9 0 1 0 44.4 57.1Z"/><path fill="#472b29" d="M44.4,63.1c-1.7,0-3.2-1.4-3.2-3.2s1.4-3.2,3.2-3.2c1.7,0,3.2,1.4,3.2,3.2S46.1,63.1,44.4,63.1z M44.4,57.3c-1.5,0-2.7,1.2-2.7,2.7s1.2,2.7,2.7,2.7c1.5,0,2.7-1.2,2.7-2.7S45.8,57.3,44.4,57.3z"/></g><path fill="#fdfcef" d="M45.1,61.4h-0.2c-0.3,0-0.6-0.2-0.8-0.3c-0.5-0.4-0.9-0.9-1-1.5c0-0.2,0-0.3,0-0.5 c0-0.1,0-0.1,0.1-0.2c0.1-0.1,0.2-0.2,0.3-0.3h0.2c0,0,0.1,0,0.1,0c0.1,0,0.1,0.1,0.2,0.1l0.1,0.1c0,0.1,0.1,0.2,0.1,0.4L44,59.3 h0.1c0,0.1,0,0.1,0,0.2L44,59.7l-0.1,0.1c0.1,0.1,0.1,0.2,0.2,0.3c0.1,0.2,0.3,0.4,0.6,0.5l0.1-0.1c0-0.1,0.1-0.1,0.2-0.1 c0.2,0,0.4,0.1,0.5,0.2c0.1,0,0.2,0.1,0.2,0.2c0,0.1,0,0.2,0,0.3l-0.1,0.2c-0.1,0.1-0.2,0.2-0.3,0.3l-0.2,0.1H45.1z"/><path fill="#472b29" d="M43.6,58.6L43.6,58.6l0.2,0.1c0,0,0,0,0,0.1c0,0.1,0.1,0.2,0.1,0.4c0,0,0,0.1,0,0.1 c0,0,0,0.1,0,0.1c0,0-0.1,0.1-0.1,0.1l-0.1,0.1l0,0c0.1,0.1,0.1,0.3,0.2,0.4c0.2,0.2,0.4,0.4,0.6,0.6h0.1c0,0,0,0,0.1,0l0.2-0.1 c0,0,0.1,0,0.1,0H45c0.1,0,0.3,0.1,0.4,0.2c0.1,0,0.1,0.1,0.1,0.1c0,0.1,0,0.1,0,0.2c0,0,0,0.1,0,0.1c-0.1,0.1-0.2,0.2-0.3,0.2 h-0.1h-0.1h-0.1c-0.3,0-0.6-0.2-0.8-0.3c-0.5-0.3-0.8-0.9-0.9-1.5c0-0.1,0-0.3,0-0.4c0,0,0-0.1,0-0.1c0.1-0.1,0.2-0.2,0.3-0.3 L43.6,58.6 M43.6,58.4c-0.1,0-0.2,0-0.2,0.1c-0.1,0.1-0.3,0.2-0.4,0.3c0,0.1-0.1,0.1-0.1,0.2c0,0.2,0,0.3,0,0.5 c0.1,0.6,0.5,1.2,1,1.6c0.3,0.2,0.6,0.3,0.9,0.4h0.1h0.2h0.1l0.1-0.1c0.1-0.1,0.3-0.2,0.3-0.3c0-0.1,0.1-0.1,0.1-0.2 c0-0.1,0-0.2,0-0.3c0-0.1-0.1-0.2-0.3-0.3c-0.2-0.1-0.3-0.1-0.5-0.2h-0.1c-0.1,0-0.2,0-0.3,0.1l-0.1,0.1 c-0.2-0.1-0.3-0.3-0.4-0.4L44,59.7l0,0c0,0,0.1-0.1,0.1-0.1c0.1-0.1,0.1-0.2,0.1-0.3v-0.1c0-0.1-0.1-0.3-0.1-0.4 c0-0.1-0.1-0.1-0.1-0.2l-0.2-0.1C43.7,58.4,43.6,58.4,43.6,58.4L43.6,58.4z"/><g><path fill="#ee3e54" d="M55.4 57.1A2.9 2.9 0 1 0 55.4 62.9A2.9 2.9 0 1 0 55.4 57.1Z"/><path fill="#472b29" d="M55.4,63.1c-1.7,0-3.2-1.4-3.2-3.2s1.4-3.2,3.2-3.2s3.2,1.4,3.2,3.2S57.1,63.1,55.4,63.1z M55.4,57.3c-1.5,0-2.7,1.2-2.7,2.7s1.2,2.7,2.7,2.7S58,61.4,58,60S56.8,57.3,55.4,57.3z"/></g><path fill="#fdfcef" d="M54.4,61.4c-0.1,0-0.1,0-0.1-0.1c-0.1-0.1-0.2-0.2-0.3-0.3c0,0,0-0.1,0-0.2v-0.1v-0.2 c0.1-0.3,0.2-0.6,0.3-0.8c0.4-0.5,0.9-0.9,1.5-1c0.1,0,0.2,0,0.3,0h0.1c0.1,0,0.1,0,0.2,0c0.1,0.1,0.2,0.2,0.3,0.3 c0,0.1,0,0.2,0,0.3c0,0.1-0.1,0.1-0.1,0.2l-0.1,0.1c-0.1,0-0.3,0.1-0.4,0.1h-0.1l0,0c-0.1,0-0.1,0-0.2,0l-0.1-0.1l-0.1-0.1 c0,0.1-0.1,0.1-0.3,0.2c-0.2,0.2-0.4,0.3-0.5,0.6c0.1,0,0.1,0.1,0.1,0.2c0.1,0.1,0.1,0.2,0,0.3c0,0.2-0.1,0.3-0.2,0.5 c0,0.1-0.1,0.2-0.2,0.2c-0.1,0-0.1,0-0.2,0L54.4,61.4z"/><path fill="#472b29" d="M56.2,58.8h0.1h0.1c0.1,0.1,0.2,0.2,0.3,0.3c0,0.1,0,0.1,0,0.2c0,0.1,0,0.1-0.1,0.2h-0.1 c-0.1,0-0.2,0.1-0.3,0.1H56l0,0c0,0-0.1,0-0.1,0l-0.1-0.1l-0.1-0.1l0,0l0,0c-0.1,0-0.3,0.1-0.4,0.2c-0.2,0.2-0.4,0.4-0.5,0.6 c0,0.1,0,0.1,0,0.1l0.1,0.2c0,0.1,0,0.1,0,0.2c0,0.1-0.1,0.3-0.2,0.4c0,0.1-0.1,0.1-0.1,0.1c0,0-0.1,0-0.2,0l0,0h-0.1 c-0.1-0.1-0.2-0.2-0.2-0.3c0,0,0-0.1,0-0.1v-0.1c0,0,0-0.1,0-0.2c0-0.3,0.2-0.6,0.3-0.8c0.3-0.5,0.9-0.9,1.5-1 C56,58.7,56.1,58.7,56.2,58.8 M56.2,58.5c-0.1,0-0.2,0-0.4,0c-0.7,0.1-1.2,0.5-1.6,1c-0.2,0.3-0.3,0.6-0.4,0.9v0.3 c0,0,0,0.1,0,0.1c0,0,0,0.1,0,0.1c0.1,0.1,0.2,0.3,0.3,0.3c0.1,0,0.1,0.1,0.2,0.1h0.1c0.1,0,0.2,0,0.2,0c0.1,0,0.2-0.1,0.3-0.3 c0.1-0.1,0.1-0.3,0.2-0.5c0-0.1,0-0.3-0.1-0.4l-0.1,0c0.1-0.2,0.3-0.3,0.4-0.4l0.2-0.1l0,0l0.1,0.1c0.1,0,0.1,0.1,0.2,0.1h0.1 h0.1c0.1,0,0.3-0.1,0.4-0.1c0.1,0,0.1-0.1,0.2-0.1c0-0.1,0.1-0.1,0.1-0.2c0.1-0.1,0.1-0.3,0-0.4c-0.1-0.2-0.2-0.3-0.3-0.4 c-0.1,0-0.1-0.1-0.2-0.1L56.2,58.5z"/></svg>