<svg xmlns="http://www.w3.org/2000/svg" viewBox="0 0 24 24"><path d="M 12 0 C 7.601563 0 4 3.601563 4 8 C 4 12.398438 7.601563 16 12 16 C 16.398438 16 20 12.398438 20 8 C 20 3.601563 16.398438 0 12 0 Z M 6.6875 10.6875 L 17.3125 10.6875 C 16.3125 12.6875 14.300781 14 12 14 C 9.699219 14 7.585938 12.585938 6.6875 10.6875 Z M 7.40625 17.40625 C 4.40625 18.207031 2.101563 20 1 24 L 23 24 C 21.898438 20 19.59375 18.207031 16.59375 17.40625 C 15.195313 18.105469 13.601563 18.59375 12 18.59375 C 10.300781 18.59375 8.804688 18.207031 7.40625 17.40625 Z M 14 20 L 18 20 L 18 22 L 14 22 Z"/></svg>