<svg xmlns="http://www.w3.org/2000/svg" viewBox="0 0 30 30"><path d="M 18 3 C 13.041282 3 9 7.0412819 9 12 C 9 16.958718 13.041282 21 18 21 C 22.958718 21 27 16.958718 27 12 C 27 7.0412819 22.958718 3 18 3 z M 18 5 C 21.877838 5 25 8.1221621 25 12 C 25 15.877838 21.877838 19 18 19 C 14.122162 19 11 15.877838 11 12 C 11 8.1221621 14.122162 5 18 5 z M 18 9 C 16.343 9 15 10.343 15 12 C 15 13.657 16.343 15 18 15 C 19.657 15 21 13.657 21 12 C 21 10.343 19.657 9 18 9 z M 7.078125 10.730469 C 6.390125 12.001469 6 13.456 6 15 C 6 19.963 10.037 24 15 24 C 16.544 24 17.998531 23.609875 19.269531 22.921875 C 18.852531 22.969875 18.43 23 18 23 C 16.028 23 14.180125 22.470594 12.578125 21.558594 C 10.667125 20.849594 9.1494062 19.334828 8.4414062 17.423828 C 7.5284062 15.820828 7 13.972 7 12 C 7 11.57 7.030125 11.147469 7.078125 10.730469 z M 18 11 C 18.552 11 19 11.448 19 12 C 19 12.552 18.552 13 18 13 C 17.448 13 17 12.552 17 12 C 17 11.448 17.448 11 18 11 z M 4.078125 13.730469 C 3.390125 15.001469 3 16.456 3 18 C 3 22.963 7.037 27 12 27 C 13.544 27 14.998531 26.609875 16.269531 25.921875 C 15.852531 25.969875 15.43 26 15 26 C 13.028 26 11.180125 25.470594 9.578125 24.558594 C 7.667125 23.849594 6.1494063 22.334828 5.4414062 20.423828 C 4.5284063 18.820828 4 16.972 4 15 C 4 14.57 4.030125 14.147469 4.078125 13.730469 z"/></svg>