<svg xmlns="http://www.w3.org/2000/svg" viewBox="0 0 24 24"><path d="M 19.9375 0 C 18.914063 0 17.894531 0.386719 17.09375 1.1875 L 14.40625 3.90625 L 20.09375 9.59375 L 22.8125 6.90625 C 24.414063 5.304688 24.414063 2.789063 22.8125 1.1875 C 22.011719 0.386719 20.960938 0 19.9375 0 Z M 12.4375 3.90625 L 9.96875 6.375 L 11.03125 7.40625 L 4.875 13.5625 C 3.894531 14.542969 3.335938 15.261719 3 15.875 C 2.664063 16.488281 2.5625 17 2.5 17.375 C 2.4375 17.75 2.421875 17.980469 2.1875 18.40625 C 1.953125 18.832031 1.484375 19.453125 0.5625 20.375 L 0.0625 20.875 L 0.5625 21.40625 L 2.46875 23.40625 L 3 23.96875 L 3.53125 23.4375 C 4.453125 22.515625 5.074219 22.046875 5.5 21.8125 C 5.925781 21.578125 6.15625 21.5625 6.53125 21.5 C 6.90625 21.4375 7.417969 21.335938 8.03125 21 C 8.644531 20.664063 9.363281 20.105469 10.34375 19.125 L 16.53125 12.9375 L 17.625 14 L 20.09375 11.53125 Z M 12.09375 8.46875 L 15.46875 11.875 L 9.28125 18.0625 C 8.359375 18.984375 7.738281 19.453125 7.3125 19.6875 C 6.886719 19.921875 6.65625 19.9375 6.28125 20 C 5.90625 20.0625 5.394531 20.164063 4.78125 20.5 C 4.328125 20.746094 3.691406 21.304688 3.0625 21.875 L 2.09375 20.84375 C 2.671875 20.207031 3.25 19.582031 3.5 19.125 C 3.835938 18.511719 3.9375 18 4 17.625 C 4.0625 17.25 4.078125 17.019531 4.3125 16.59375 C 4.546875 16.167969 5.015625 15.546875 5.9375 14.625 Z"/></svg>