<svg xmlns="http://www.w3.org/2000/svg" viewBox="0 0 30 30"><path d="M 18 2 C 16.895 2 16 2.896 16 4 C 16 5.104 16.896 6 18 6 C 19.104 6 20 5.104 20 4 C 20 2.895 19.104 2 18 2 z M 5 5 A 1.0001 1.0001 0 1 0 5 7 L 10.132812 7 L 7.9472656 8.3027344 L 7.9414062 8.3085938 C 7.6727712 8.4769785 7.4518763 8.7081158 7.2890625 8.9804688 L 7.2695312 9 L 5.3808594 12.287109 L 2.3613281 15.798828 L 2.375 15.802734 L 2.2070312 15.988281 A 1.0001 1.0001 0 0 0 2.2558594 17.410156 L 1.5253906 17.751953 A 1.0004596 1.0004596 0 0 0 2.3730469 19.564453 L 20.517578 11.068359 A 1.0001 1.0001 0 0 0 20.125 9.15625 A 1.0001 1.0001 0 0 0 19.669922 9.2558594 L 4.6171875 16.304688 L 4.7304688 16.177734 L 9.9277344 11.771484 L 10.117188 11.658203 C 10.117188 11.658203 10.119141 11.65625 10.119141 11.65625 L 15 8.7304688 L 14.996094 8.7246094 C 15.593144 8.3784799 16 7.7393402 16 7 C 16 5.9694052 15.217424 5.1310016 14.216797 5.0214844 A 1.0001 1.0001 0 0 0 14 5 L 5 5 z M 26 11 C 24.895 11 24 11.896 24 13 C 24 14.104 24.896 15 26 15 C 27.104 15 28 14.104 28 13 C 28 11.895 27.104 11 26 11 z M 18 14 A 1.0001 1.0001 0 0 0 17.595703 14.085938 L 14.072266 15.640625 A 1.0001 1.0001 0 0 0 13.505859 16.269531 L 7.2265625 19.099609 A 0.50005 0.50005 0 1 0 7.6367188 20.011719 L 13.746094 17.259766 A 1.0001 1.0001 0 0 0 14.878906 17.470703 L 18.210938 16 L 18.673828 16 L 16.896484 17.333984 C 16.876122 17.34749 16.85772 17.362731 16.837891 17.376953 L 16.710938 17.472656 L 16.712891 17.480469 C 16.331807 17.80361 16.077763 18.263518 16.021484 18.787109 A 1.0001 1.0001 0 0 0 16 19 L 16 22.380859 L 12.339844 24.208984 A 1.0001165 1.0001165 0 0 0 11.8125 24.882812 L 6.3164062 23.050781 A 1.0001 1.0001 0 0 0 6.0234375 22.996094 A 1.0001 1.0001 0 0 0 5.6835938 24.949219 L 17.683594 28.949219 A 1.0005646 1.0005646 0 1 0 18.316406 27.050781 L 14.003906 25.613281 L 17.447266 23.894531 A 1.0001 1.0001 0 0 0 17.917969 23.394531 L 18.826172 21.373047 L 21.03125 21.705078 L 20.791016 24 A 1.0001 1.0001 0 0 0 21.308594 25 L 18 25 L 17.216797 25.353516 L 22.996094 27 L 27 27 C 27.552 27 28 26.552 28 26 C 28 25.448 27.552 25 27 25 L 22.257812 25 A 1.0001 1.0001 0 0 0 22.767578 24.298828 L 23.417969 21.050781 A 1.0001 1.0001 0 0 0 22.748047 19.904297 L 20.914062 19.302734 L 23.042969 17.699219 C 23.153251 17.631296 23.256815 17.554155 23.351562 17.466797 L 23.396484 17.431641 L 23.394531 17.429688 C 23.766959 17.066385 24 16.560979 24 16 C 24 14.969405 23.217424 14.131002 22.216797 14.021484 A 1.0001 1.0001 0 0 0 22 14 L 18 14 z"/></svg>