<svg xmlns="http://www.w3.org/2000/svg" viewBox="0 0 64 64"><path d="M 18 4 C 15.792969 4 14 5.792969 14 8 L 14 10 L 10.796875 10 C 9.382813 10 8.152344 11.007813 7.867188 12.390625 C 7.480469 14.28125 6.28125 15.484375 4.390625 15.871094 C 3.003906 16.148438 2 17.382813 2 18.796875 L 2 43.183594 C 2 44.625 3.027344 45.859375 4.441406 46.125 C 6.390625 46.484375 7.519531 47.613281 7.878906 49.5625 C 8.128906 50.921875 9.28125 51.910156 10.652344 51.984375 L 47.328125 61.8125 C 47.585938 61.878906 47.84375 61.914063 48.097656 61.914063 C 49.203125 61.914063 50.25 61.300781 50.765625 60.292969 C 51.664063 58.523438 53.132813 57.667969 55 57.773438 C 56.417969 57.863281 57.71875 56.933594 58.085938 55.5625 L 60.753906 45.605469 C 61.511719 45.054688 62 44.171875 62 43.1875 L 62 18.800781 C 62 17.382813 60.992188 16.148438 59.605469 15.871094 C 57.714844 15.488281 56.515625 14.289063 56.132813 12.394531 C 55.851563 11.007813 54.617188 10 53.199219 10 L 26 10 L 26 8 C 26 5.792969 24.207031 4 22 4 Z M 18 6 L 22 6 C 23.101563 6 24 6.898438 24 8 L 24 10 L 16 10 L 16 8 C 16 6.898438 16.898438 6 18 6 Z M 10.796875 12 L 14 12 L 14 28.585938 C 14 29.113281 14.214844 29.628906 14.585938 30 L 17.585938 33 C 17.976563 33.390625 18.488281 33.585938 19 33.585938 C 19.511719 33.585938 20.023438 33.390625 20.414063 33 L 23.414063 30 C 23.785156 29.628906 24 29.113281 24 28.585938 L 24 17 C 24 16.445313 23.550781 16 23 16 C 22.449219 16 22 16.445313 22 17 L 22 28.585938 L 19 31.585938 L 16 28.585938 L 16 12 L 53.199219 12 C 53.667969 12 54.078125 12.335938 54.171875 12.796875 C 54.71875 15.496094 56.507813 17.285156 59.210938 17.828125 C 59.667969 17.921875 60 18.332031 60 18.800781 L 60 43.1875 C 60 43.664063 59.664063 44.070313 59.203125 44.15625 C 56.464844 44.671875 54.671875 46.457031 54.15625 49.195313 C 54.070313 49.660156 53.660156 50 53.1875 50 L 10.816406 50 C 10.339844 50 9.929688 49.664063 9.84375 49.203125 C 9.335938 46.460938 7.550781 44.667969 4.808594 44.15625 C 4.339844 44.070313 4 43.660156 4 43.183594 L 4 18.796875 C 4 18.328125 4.332031 17.921875 4.789063 17.828125 C 7.449219 17.285156 9.285156 15.453125 9.828125 12.792969 C 9.921875 12.332031 10.328125 12 10.796875 12 Z M 37 15 C 36.449219 15 36 15.445313 36 16 C 36 16.554688 36.449219 17 37 17 L 39 17 C 39.550781 17 40 16.554688 40 16 C 40 15.445313 39.550781 15 39 15 Z M 43 15 C 42.449219 15 42 15.445313 42 16 L 42 46 C 42 46.554688 42.449219 47 43 47 C 43.550781 47 44 46.554688 44 46 L 44 16 C 44 15.445313 43.550781 15 43 15 Z M 37 20 C 36.449219 20 36 20.445313 36 21 C 36 21.554688 36.449219 22 37 22 L 39 22 C 39.550781 22 40 21.554688 40 21 C 40 20.445313 39.550781 20 39 20 Z M 37 25 C 36.449219 25 36 25.445313 36 26 C 36 26.554688 36.449219 27 37 27 L 39 27 C 39.550781 27 40 26.554688 40 26 C 40 25.445313 39.550781 25 39 25 Z M 37 30 C 36.449219 30 36 30.445313 36 31 C 36 31.554688 36.449219 32 37 32 L 39 32 C 39.550781 32 40 31.554688 40 31 C 40 30.445313 39.550781 30 39 30 Z M 37 35 C 36.449219 35 36 35.445313 36 36 C 36 36.554688 36.449219 37 37 37 L 39 37 C 39.550781 37 40 36.554688 40 36 C 40 35.445313 39.550781 35 39 35 Z M 37 40 C 36.449219 40 36 40.445313 36 41 C 36 41.554688 36.449219 42 37 42 L 39 42 C 39.550781 42 40 41.554688 40 41 C 40 40.445313 39.550781 40 39 40 Z M 37 45 C 36.449219 45 36 45.445313 36 46 C 36 46.554688 36.449219 47 37 47 L 39 47 C 39.550781 47 40 46.554688 40 46 C 40 45.445313 39.550781 45 39 45 Z M 58.453125 46.464844 L 56.152344 55.046875 C 56.03125 55.5 55.613281 55.816406 55.125 55.777344 C 52.460938 55.605469 50.234375 56.921875 48.984375 59.382813 C 48.773438 59.792969 48.296875 59.996094 47.847656 59.878906 L 18.433594 52 L 53.183594 52 C 54.621094 52 55.855469 50.976563 56.125 49.5625 C 56.410156 48.023438 57.183594 47.007813 58.453125 46.464844 Z"/></svg>