<svg xmlns="http://www.w3.org/2000/svg" viewBox="0 0 16 16"><path d="M 4.5 2 C 3.6774686 2 3 2.6774686 3 3.5 L 3 12.5 C 3 13.322531 3.6774686 14 4.5 14 L 13 14 L 13 13 L 4.5 13 C 4.2185314 13 4 12.781469 4 12.5 C 4 12.218531 4.2185314 12 4.5 12 L 13 12 L 13 11 L 13 2 L 4.5 2 z M 4.5 3 L 12 3 L 12 11 L 4.5 11 C 4.3243299 11 4.15725 11.037133 4 11.09375 L 4 3.5 C 4 3.2185314 4.2185314 3 4.5 3 z M 8 4 L 7.3320312 5.7128906 L 5.59375 5.1738281 L 6.5 6.7695312 L 5 7.8105469 L 6.796875 8.0878906 L 6.6640625 9.9257812 L 8 8.6757812 L 9.3359375 9.9257812 L 9.203125 8.0878906 L 11 7.8105469 L 9.5 6.7695312 L 10.40625 5.1738281 L 8.6679688 5.7128906 L 8 4 z"/></svg>