<?xml version="1.0"?><svg xmlns="http://www.w3.org/2000/svg" viewBox="0 0 50 50">    <path d="M 27 4 C 22.3 4 18.588781 5.7235156 16.550781 8.8535156 C 14.827781 11.499516 14.534469 14.906984 15.730469 18.083984 C 15.344469 18.617984 15.017328 19.43825 15.111328 20.53125 C 15.403328 22.69825 16.228391 23.588172 16.900391 23.951172 C 17.237391 25.754172 18.221469 27.6605 19.105469 28.5625 C 19.107469 28.7825 19.111234 28.995125 19.115234 29.203125 C 19.133234 30.166125 19.146531 31.002219 19.019531 32.074219 C 18.728531 32.869219 17.998922 33.531937 16.669922 34.210938 C 16.650922 34.220937 16.639094 34.238047 16.621094 34.248047 C 12.220094 36.467047 5 37.578 5 45 C 5 45 5 46 6 46 L 29.904297 46 C 29.591297 45.262 29.740125 44.390687 30.328125 43.804688 L 31.822266 42.314453 C 32.168266 41.970453 32.626375 41.764375 33.109375 41.734375 L 31.519531 40.150391 C 31.143531 39.775391 30.932641 39.267328 30.931641 38.736328 C 30.930641 38.206328 31.140625 37.696313 31.515625 37.320312 L 34.189453 34.644531 C 33.911453 34.522531 33.639906 34.398484 33.378906 34.271484 C 32.012906 33.600484 31.228719 32.945828 30.886719 32.173828 C 30.810719 30.856828 30.801781 29.799391 30.800781 28.650391 C 31.688781 27.706391 32.586844 25.715703 32.964844 24.095703 C 33.683844 23.758703 34.588875 22.876078 34.796875 20.580078 C 34.876875 19.589078 34.683203 18.738063 34.283203 18.164062 C 35.192203 16.125062 35.263828 12.540203 33.923828 9.7832031 C 32.831828 7.5412031 30.968859 6.2243906 28.630859 6.0253906 L 27.894531 4.5527344 C 27.725531 4.2147344 27.379 4 27 4 z M 26.388672 6.0097656 L 27.105469 7.4472656 C 27.274469 7.7862656 27.621 8 28 8 C 29.879 8 31.268953 8.8942031 32.126953 10.658203 C 33.365953 13.204203 33.032891 16.73525 32.212891 17.78125 C 31.998891 18.05425 31.9425 18.419141 32.0625 18.744141 C 32.1665 19.023141 32.385109 19.239844 32.662109 19.339844 C 32.729109 19.456844 32.855641 19.802156 32.806641 20.410156 C 32.672641 21.884156 32.202516 22.281781 32.103516 22.300781 C 31.608516 22.300781 31.187281 22.662344 31.113281 23.152344 C 30.835281 24.992344 29.687641 27.044078 29.306641 27.330078 C 28.993641 27.508078 28.800781 27.840219 28.800781 28.199219 C 28.800781 29.611219 28.800391 30.830984 28.900391 32.458984 C 28.906391 32.559984 28.928844 32.657953 28.964844 32.751953 C 28.978844 32.787953 28.997719 32.818516 29.011719 32.853516 C 27.916719 33.549516 26.540641 33.947266 25.056641 33.947266 C 23.499641 33.947266 22.016297 33.495609 20.904297 32.724609 C 20.918297 32.685609 20.938172 32.649375 20.951172 32.609375 C 20.971172 32.548375 20.984187 32.487828 20.992188 32.423828 C 21.149188 31.160828 21.133234 30.192969 21.115234 29.167969 C 21.108234 28.827969 21.101563 28.478562 21.101562 28.101562 C 21.101562 27.773563 20.878375 27.426234 20.609375 27.240234 C 20.218375 26.969234 18.973875 24.973516 18.796875 23.103516 C 18.748875 22.590516 18.389047 22.207031 17.873047 22.207031 C 17.731047 22.153031 17.284609 21.680453 17.099609 20.314453 C 17.029609 19.478453 17.457031 19.130859 17.457031 19.130859 C 17.859031 18.859859 18.0105 18.339484 17.8125 17.896484 C 16.6065 15.167484 16.761563 12.196312 18.226562 9.9453125 C 19.797563 7.5323125 22.681672 6.1467656 26.388672 6.0097656 z M 40.591797 31.082031 C 45.450797 32.905031 48.399047 38.733125 45.873047 43.453125 L 39.708984 37.257812 L 42.0625 34.896484 L 40.589844 33.431641 C 39.778844 34.227641 38.488187 34.395922 37.617188 34.044922 L 32.931641 38.734375 L 35.585938 41.378906 L 37.353516 39.617188 L 43.515625 45.802734 C 40.499625 47.458734 36.319375 46.937422 33.234375 43.732422 L 31.740234 45.220703 C 32.187234 45.841703 32.564297 46.404 33.029297 46.875 C 33.082297 46.928 33.136406 46.97925 33.191406 47.03125 C 32.510406 47.17325 32 47.777 32 48.5 C 32 49.328 32.672 50 33.5 50 C 34.328 50 35 49.328 35 48.5 C 35 48.476 34.993188 48.453688 34.992188 48.429688 C 38.345188 50.399687 41.992484 50.504969 45.896484 48.167969 L 47.623047 49.900391 L 49.986328 47.568359 L 48.248047 45.810547 C 53.237047 38.289547 46.586797 30.902031 40.591797 31.082031 z"/></svg>