<svg xmlns="http://www.w3.org/2000/svg" width="512" height="512" viewBox="0 0 512 512"><path fill="#49A0AE" d="M7.9,256C7.9,119,119,7.9,256,7.9C393,7.9,504.1,119,504.1,256c0,137-111.1,248.1-248.1,248.1C119,504.1,7.9,393,7.9,256z"/><path fill="#DFF1ED" d="M377.4,206.9c0,13.7-11.1,24.8-24.8,24.8H164.8c-13.7,0-24.8-11.1-24.8-24.8V97.5c0-13.7,11.1-24.8,24.8-24.8h187.9c13.7,0,24.8,11.1,24.8,24.8V206.9z"/><path fill="#DFF1ED" d="M320.1,265c-1.9,1.9-5.1,1.9-7,0l-23.7-33.5c-1.9-1.9-1.9-5.1,0-7h54.5c1.9,1.9,1.9,5.1,0,7L320.1,265z"/><g><path fill="#B7CAC4" d="M341.3 114.8c0 5-4 9-9 9H184.7c-5 0-9-4-9-9l0 0c0-5 4-9 9-9h147.6C337.2 105.8 341.3 109.8 341.3 114.8L341.3 114.8zM341.3 150.8c0 5-4 9-9 9H184.7c-5 0-9-4-9-9l0 0c0-5 4-9 9-9h147.6C337.2 141.8 341.3 145.9 341.3 150.8L341.3 150.8zM341.3 186.8c0 5-4 9-9 9H184.7c-5 0-9-4-9-9l0 0c0-5 4-9 9-9h147.6C337.2 177.8 341.3 181.9 341.3 186.8L341.3 186.8z"/></g><g><path fill="#36858D" d="M287.2,416c0-14.9-1.5-23.9-1.5-23.9s19.4-26.9,20.9-64.3c0-5.9,2.9-48.1-47.8-50c0,0,0,0,0-0.1c-0.1,0-0.2,0-0.4,0c-0.1,0-0.2,0-0.4,0c0,0,0,0.1,0,0.1c-50.7,1.9-47.8,44-47.8,50c1.5,37.4,20.9,64.3,20.9,64.3s-1.5,9-1.5,23.9c-80.7,19.4-91.9,46.3-91.9,46.3v11.8c35.1,19.1,75.4,29.9,118.2,29.9c44.8,0,86.8-11.9,123.1-32.7v-9C379.1,462.4,367.9,435.5,287.2,416z"/></g></svg>