<svg xmlns="http://www.w3.org/2000/svg" width="512" height="512" viewBox="0 0 512 512"><path fill="#FEBF10" d="M138.2 271.1c-.4-3.7.8-8.6-.7-12-.4-1-4.6-.5-5.3-.3-1.9.6-3.2 1.3-4.5 2.8-.6.8-1.3 1.3-2.1 1.6 1 6.7 1.6 13.5 3.9 20 .1.3.2.6.2.9 2.1-2.5 6.1-2.2 8.1-.1.4-.5.7-1.3.9-2.4C139.2 278.2 138.6 274.6 138.2 271.1zM266.9 177c-2.2-3.8-4.4-7.8-6.4-11.8 0 .1 0 .1 0 .2-.1 7.2-.1 14.4-.1 21.7.8 0 1.6.1 2.5.5 4.8 2.2 9.8 4.5 15 5.5 2.4.4 4.8.6 7.1.6C277.6 190 271.3 184.7 266.9 177zM182.4 329.3c-.8-3.7-1.7-7.7-3.8-10.9-2.3-3.6-2.8-2.1-5.3 1.8-.6.9-1.2 1.5-2 1.9 1.4 7.5 3.1 15 3.9 22.6.8-.6 1.8-1 3.1-1 3.1.1 4.7.4 4.7-3C183.1 337.1 183.1 332.9 182.4 329.3z"/><path fill="#74CCCF" d="M346,403.9l0.1-1.9c0-0.1,0-0.3,0-0.4c0.6-9.2,1.7-24.6-11.9-20.2c-9.9,3.2-3.3,19.6-1,26.1c0.1,0.3,0.2,0.7,0.3,1c4.7-0.2,9.5-0.4,14.2-0.6C346.6,407.1,345.9,405.8,346,403.9z"/><path fill="#FEBF10" d="M226.1 270.4c-.3-4-.9-8-1.3-12.1-.2-2.9.1-7.3-1.4-10-1.5-2.6-5.9-1.4-8.3-1-.2 0-.4.1-.6.1.5.7.8 1.7.8 2.9-.4 8.6.5 17.3 2.3 25.7 2.3-1.1 4.7-1.6 7.1-2.4C226.6 273 226.2 272.6 226.1 270.4zM217.6 149.9c0-2.4 0-4.8 0-7.2-.1-2.2.3-6.8-1.5-8.4-1.5-1.4-4.2-1.4-6.7-1.1.1 1.4-.5 2.8-1.5 3.9 0 .7 0 1.5 0 1.8.1 2.3-.1 4.6 0 6.9.3 5.9.9 11.7.8 17.6 1.4-1 2.9-1.7 4.5-2 1.9-.4 4.4-.1 4.8-2.5C218.7 156 217.6 153 217.6 149.9zM221.1 201.4c-.2-1.9-.2-7-1.5-8.1-1-.8-4-.9-6.2-1 0 .3-.1.7-.2 1-2 7.1-1.2 14.7.9 21.7.2-.1.5-.1.7-.1 1.9-.2 5.9-.3 6.3-2.4C221.8 209.2 221.5 204.9 221.1 201.4zM176.9 253.7c-2.5-4-7-2.9-11-1.8-.6.2-1.2.2-1.8.2 0 .3 0 .6 0 1-1.1 8.6 2.2 17.5 4 25.9 1.2-.5 2.7-.4 4.1.6 3.4 2.4 4.2 1.9 5.8-2 1.3-3.3 2-7.2 2.1-10.7C180.1 262.6 179.2 257.4 176.9 253.7zM376 265.8c-1.1-2.6-2.9-5.2-5.1-7-.8-.6-1.5-1-2.1-1.1 0 0-.3-.1-.9.3-.6.4-1.2.6-1.8.7.1 5.7 1.1 11.1 2.9 16.5C376 275.5 378.7 272.6 376 265.8zM333.9 325.2c-.2-1.5-.6-3-.8-4.5-.4-2.3-.7-6.4-2.6-8.1-1-.8-2.4-.7-3.9-.2.3 4.6 1.2 9.2 2.1 13.8 1.1.3 2.2.9 3.1 1.8.8-.1 1.6-.3 2.1-.6C333.7 327.4 334.1 326.2 333.9 325.2zM384.4 316.8c-.9-3.6-2.2-7.2-4.3-10.2-2.7-3.8-4.1-2.5-6.7.9-.6.8-1.3 1.3-2 1.5 0 6 2.2 12 3.3 18 .1 0 .1 0 .2-.1 2.5-.5 8.1-.7 9.9-2.7C386 322.9 384.8 318.3 384.4 316.8zM393.8 367.6c0-2.4 0-6.3-1.9-8.2-2-2-4.4-1.4-6.8-.5-.3 5.5-.3 10.9.4 16.4.1 0 .3-.1.4-.1 1.6-.2 5.6-.3 6.8-1.6C394 372.4 393.9 369.3 393.8 367.6z"/><path fill="#BCBCBC" d="M419.5,394.2c3-3.9,0.1-13.3-0.6-17.8c-1.2-7.5-1.1-14.4-1.2-22c-0.1-10.8-1.1-21.5-2-32.2c-0.9-10.7-1.2-21.5-3.1-32.1c-1.4-7.9-3-15.8-4.7-23.7c-1.3-5.9-2-12.4-4.8-17.9c-4-7.8-10.1-10.9-18.7-11c-13-0.2-26-0.9-39-1.3c-17.4-0.5-34.9-0.9-52.3-0.3c-6.3,0.2-13.2,0.5-19.2,1.5c-2.1,0.4-4.2,0.8-6.2,1.5c0.2-0.1,0.1,0.1-0.1,0.2c-0.9,3.1-4.3,3.5-6.9,2c0.7,24.5,2.1,48.9,3.4,73.4c0.9,16.6,1.6,33.1,3.2,49.6c1.5,15.2,2.9,30.3,2.5,45.6c17.6-0.1,35.3-0.4,52.9-1c-4.6-13.5-8.1-34.3,10.6-37.7c8.7-1.6,17,1,20.7,9.5c3.3,7.6,2.3,15.1,1.9,23.1c-0.1,1.7-0.9,3-2,3.9c0.8,0,1.7-0.1,2.5-0.1c14.8-0.8,29.6-1.3,44.4-3.3c6.6-0.9,13.2-2.4,19.9-3.6C418.8,399.3,417.6,396.8,419.5,394.2z M272.9,281.8c-0.6-7.5-2.1-15-1.9-22.6c0.1-2.6,1.8-4.2,3.8-4.8c-0.9-2.5,0-5.5,3.3-6.2c6-1.3,12.9-1.9,16.9,3.7c3.5,4.9,3,11.4,4.9,16.9c1.7,5,3.8,11.6-0.1,16.2c-3.9,4.5-10.7,3.6-15.9,3c-1.6-0.2-2.7-0.9-3.2-1.9C277.7,287.4,273.2,286,272.9,281.8z M276.4,311.6c0.1-1.9,1-3.2,2.2-4c0.2-1.3,0.9-2.6,2.5-3.4c4.7-2.4,11.1-4.5,15.9-1.1c4.5,3.1,7.1,7.8,8.3,13.1c1.2,5.2,2.8,11.8-0.5,16.6c-2.6,3.7-6.7,4.5-10.7,5.7c-2.3,0.7-4.1-0.1-5.2-1.6c-2.1,2.9-7.7,3.2-9.3-1.3C276.8,327.8,276.1,319.7,276.4,311.6z M307.5,387.2c-4.1,7.2-12,10.7-19.4,5.7c-1.2-0.8-1.9-1.9-2.2-3c-1.7-0.3-3.3-1.3-4.1-3.3c-2.8-7-2.6-14.5-2.2-21.8c0.1-2,1.1-3.4,2.5-4.2c-0.3-1.4,0-3,1.2-4.4c11-12.2,21.4,2.9,24.3,13.4C309.4,375.3,310.6,381.8,307.5,387.2z M311.7,286.2c-1.3-6.8-2.7-13.6-3.5-20.4c-0.3-3-0.2-8,1.8-10.5c-0.2-1.7,0.5-3.4,2.5-4.5c20.1-10.6,26.1,16.4,26.7,30.8c0.1,2.3-1.5,4.4-3.7,5c-4.1,1.1-8.3,2.3-12.4,3.4c-1.8,0.5-3.3,0.1-4.4-0.8C316.1,290.5,312.5,289.9,311.7,286.2z M341.5,334.3c-3.1,3-7.4,3.7-11.6,4c-1.6,4.4-9.5,3.8-9.9-1.9c-0.7-9.4-3.9-18.3-3.6-27.8c0.1-3.1,2.4-4.8,4.9-5c5.2-1.9,12.2-2.8,16.4,1.8c3.9,4.3,4.6,9.6,5.7,15C344.3,324.9,345.2,330.7,341.5,334.3z M360,280.6c-2.8-7.8-4.4-15.7-4.1-24c0.1-3,2.4-4.7,4.7-5c0.4-0.9,1-1.7,2-2.3c18.3-11.8,40.8,37.3,6.4,36.2c-1.5-0.1-2.7-0.6-3.5-1.5C363.3,284.2,361,283.3,360,280.6z M365.2,331.7c-0.8-9.7-4.8-18.2-3.5-28.1c0.4-3,2.6-4,4.9-3.7c4.6-5.6,11.5-8.2,17.8-3.3c5,3.8,8.1,10.5,9.6,16.5c1.3,5.2,2.7,12-0.6,16.8c-3.4,5-10.1,5.9-15.5,7c-1.8,0.3-3.3-0.2-4.4-1.1C370.5,337.5,365.6,336.2,365.2,331.7z M400,380.8c-4,3.3-8.8,3.9-13.7,4.6c-1.9,3.5-8.1,4.1-9.4-0.8c-2.4-9.3-2.3-18.5-1.8-27.9c0.1-2.3,1.4-3.8,3.1-4.5c0.5-1,1.4-1.9,2.8-2.4c12.7-5,23,3.1,23.1,16.4C404.1,370.7,404,377.5,400,380.8z"/><path fill="#FEBF10" d="M295.5 318.9c-1.4-5.4-3.2-9-8.9-6.2-.2 6 .3 11.9 2 17.6.6-.8 1.4-1.4 2.6-1.8 1.2-.4 5-1.3 5.2-1.6C297.3 325 296 321 295.5 318.9zM319 259c0 1-.4 1.9-.9 2.7 0 1 .1 1.9.2 2.9.3 2.2.6 4.4.9 6.7.5 2.9 1 5.8 1.6 8.7 2.6-.7 5.3-1.5 7.9-2.2C328.2 270.1 326 256.7 319 259zM289.1 267.9c-.6-2.8-.6-6.9-2.1-9.5-1.1-1.9-4-.9-5.8-.5 0 .3.1.6.1 1-.2 6.7.9 13.2 1.6 19.9 1-.6 2.1-.9 3.5-.7 1.6.2 3.8.6 5.4.1C291.5 274.8 289.8 271.4 289.1 267.9zM299.3 379c-.2-2.6-.8-5.1-1.6-7.5-.9-2.8-2-6.2-4.1-8.4-1.6-1.7-1.4-1.4-2.9.3-.3.3-.6.6-.9.8 0 .2 0 .3 0 .5-.3 6.4-.7 12.7 1.6 18.7.6.1 1.1.4 1.7.8C296.7 386.5 299.5 382.7 299.3 379zM227.2 334.3c-.8-3.8-1.4-7.7-2.2-11.5-.7-3.2-1.3-6.9-3.2-9.6-1.5-2.2-3.9-1.5-6-.5-.2.6-.6 1.1-1 1.6-1.6 1.7-.2 8.9.1 11.3.4 3 .9 6.3 1.9 9.3.5.2 1 .6 1.4 1 2.3 2.2 5.8 2 8.5.3C227.6 335.6 227.5 335.9 227.2 334.3z"/><path fill="#BCBCBC" d="M255.1,334.8c-1.1-33-3.7-66-4.5-99c-0.8-33.4-0.1-66.8-0.1-100.2c0-8.8,2-25.6-9.6-28.2c-7-1.6-14.1-0.9-21.2,0c-1.5,0.2-2.9,0.4-4.4,0.5c-1.4,0.9-3.2,1-4.7,0.5c-3.9,0.4-7.7,0.7-11.6,1c-31.5,2.3-62.9,6-94.5,8.2c-1.5,10.2-0.7,20.7,0.2,31c1,12.1,1.7,24,1.2,36.2c-1,26-2.9,51.8-1.1,77.9c1.8,26.2,5.8,52.2,7.3,78.4c1.4,24.6,0.8,49.2-0.5,73.7c6.8-0.2,13.6-0.6,20.3-1c10.7-0.6,21.3-0.3,31.9-0.2c0-0.3,0-0.6,0-0.9c0.5-10.2,0.1-20.4,0.6-30.6c0.1-2.8,2.1-5.1,5-5.2c9.5-0.5,19.1-1,28.6-0.5c3,0.1,4.9,2.1,5.2,5c1.2,10.1,0.9,20.1,0.4,30.2c5.9-0.5,11.8-1.1,17.7-1.5c12.8-0.9,25.7-0.4,38.5-0.3C260.5,384.7,255.9,359.9,255.1,334.8z M234.7,254.6c0.5,6.2,2,12.8,1.5,18.9c-0.2,3.1-1.4,6-4.1,7.8c-3,2-6.5,2.1-9.6,3.7c-3.1,1.5-6-0.2-7.2-2.6c-2.6,1.6-6.5,1-7.3-2.8c-2.1-9.4-3.2-19.3-2.8-29c0.1-3.1,2.5-4.8,5-5c-2.2-2.6-2.1-7.2,2.2-8c5.6-1,13.5-2.2,17.8,2.7C233.7,244.4,234.3,249.4,234.7,254.6z M152.7,133.9c0.8-1.6,2-2.4,3.3-2.6c0.3-0.8,0.9-1.5,1.7-2.1c6.8-5.1,17.9-3.6,23.5,2.5c2.6,2.9,3.4,6.6,3.8,10.4c0.4,3.6,1.9,7,2.6,10.6c1.3,7.2,2.2,16.5-5.5,20.5c-6,3.1-14.5,4.9-20,0.1c-0.6-0.6-1.1-1.2-1.3-1.8c-0.8,0-1.7-0.2-2.5-0.8c-5.2-3.2-5.6-12.3-6.2-17.6C151.2,147,150.1,139.5,152.7,133.9z M155.1,193.8c0.1-3.2,2.6-4.9,5.1-5c0.5-0.3,1-0.6,1.6-0.8c5.6-1.8,12.3-2.7,17,1.6c4.5,4.1,6,10.6,7.2,16.4c1.1,5.1,2.2,11.4-1,16c-3.2,4.7-8.1,7.5-12.9,10.3c-3.7,2.2-7.2-0.7-7.6-4c-3,2.1-8.2,0.9-8.1-3.8C156.9,214.2,154.8,204.1,155.1,193.8z M149.2,208.8c1,5.9,1.6,13.3-3,18c-4.5,4.7-11.1,5.6-17.3,6c-2.2,0.1-3.7-0.9-4.5-2.4c-1.8,0.4-3.8-0.2-5-2.4c-5.3-9.2-3.9-20-3.3-30.2c0.2-3.1,2.5-4.8,4.9-5c0.2-0.1,0.4-0.2,0.6-0.3c6.1-2.9,13-4.3,18.9,0C145.8,196.2,148.2,202.7,149.2,208.8z M110.8,155.9c-0.2-4.8,0-9.6,0.2-14.5c0.1-1.9,1-3.2,2.2-4c0.2-1.3,0.9-2.6,2.5-3.4c3.1-1.7,6.4-2.9,9.4-4.6c2.5-1.4,5.4-0.6,7,1.8c6.9,10.4,8.5,22.6,10.2,34.7c0.4,2.7-2.4,5.3-5,5.2c-4.8-0.1-9.5,0.4-14.3,0.3c-2.5-0.1-4-1.5-4.7-3.4c-0.5,0-1,0-1.6-0.1C111.6,166.6,111,160.3,110.8,155.9z M119.8,286.1c-2.4-6.8-3-13.9-4.1-21c-1.3-0.8-2.1-2.1-2-4.1l0.3-5.1c0.2-4.7,6.1-6.7,8.8-3.7c5.1-4,13-5.1,18.7-2.4c7.7,3.7,6.1,11.2,6.7,18.2c0.5,6.1,1.8,12.6-0.2,18.6c-2.3,6.7-8.6,9.2-15.3,8.6c-3.1-0.3-6.2-2.9-5.1-6.3c0-0.1,0.1-0.2,0.1-0.2C125.2,290.3,121.1,289.8,119.8,286.1z M153.6,355.3c-0.1,2.7-2.1,5.3-5,5.2c-6.5-0.1-13.5,1.2-16.1-6.3c-0.5-1.4-0.4-2.6,0.1-3.6c-1,0.9-2.5,1.3-4.3,0.6c-5.5-2.1-5.4-9.1-5.9-14.1c-0.5-5.8-0.9-11.6-0.6-17.4c0.1-1.8,0.9-3.1,2-3.9c-0.1-1.3,0.3-2.6,1.7-3.7c4.6-3.8,10.9-7.3,16.8-3.9c4.7,2.8,7.1,8.1,8.5,13.1C153.8,332.2,154.2,344,153.6,355.3z M158.7,284.1c-2-11.2-6-22.1-4.5-33.5c0.4-3.1,2.9-4.2,5.3-3.7c-0.1-2.1,1-4.1,3.6-4.8c7.8-2.2,16.3-2.3,21.5,4.8c4,5.5,6,13.8,5.5,20.5c-0.5,6.4-1.5,13.5-5.4,18.8c-4.5,6.1-11.6,6.6-17.6,2.2c-0.6-0.4-1.1-0.9-1.4-1.5C163.1,288.5,159.4,287.9,158.7,284.1z M192.8,344.7c-1.7,7-7.5,9.4-14.2,9.3c-2.2-0.1-3.8-1.3-4.5-2.9c-2.7,2.5-8.5,1.3-8.8-3.5c-0.6-9-2.9-17.7-4.4-26.5c-0.5-3.1,1.5-5.4,3.9-6.2c3.5-5.3,10.1-12.1,16.9-7.6c5.7,3.7,8.5,10.6,10,17C193.1,330.3,194.3,338.4,192.8,344.7z M198.5,164.5c0.3-9-0.3-18.4-1-27.4c-0.2-3-0.3-6.6,2.7-8.3c0.2-0.1,0.4-0.2,0.6-0.3c0.3-2.2,1.9-4.4,4.6-4.8c5.7-0.9,12.7-1.3,17.3,2.9c3.6,3.3,4.6,8.2,4.9,12.9c0.2,3.4,0.2,6.8,0.2,10.3c0,3.9,1.5,8,0.2,11.8c-1.1,3.5-2.8,6.6-6.3,8.3c-3,1.4-6.4,0.8-8.6,3.6c-3.4,4.2-8.8,0.2-8.5-4.2C201.7,169.8,198.4,168.3,198.5,164.5z M203.3,191c0.5-2,1.9-3.1,3.4-3.5c-0.3-2.7,1.3-5.5,4.8-5.3c5.3,0.3,11.7,0.2,15.6,4.3c3.8,3.9,4,11,4.2,16.1c0.2,5.3,1.1,11.5-1.8,16.3c-3,4.9-9.2,5.8-14.4,6.4c-1.9,0.2-3.2-0.5-4.1-1.6c-2.3,0.5-5-0.5-6-3.4C201.8,211,200.7,200.4,203.3,191z M233.8,343.6c-5.6,4.5-13.4,5.3-19.5,1.9c-1.9,0.5-4-0.1-5.1-2.4c-2.8-5.7-4-12.3-4.7-18.5c-0.6-5.5-1.2-12.4,2.6-17c0.2-1.3,1-2.5,2.5-3.2c5.9-2.9,14.2-4.9,19.1,1.1c4.5,5.4,5.7,12.2,6.9,18.9C236.7,330.7,239.8,338.8,233.8,343.6z"/><path fill="#74CCCF" d="M193.5,386.5c-6.3-0.1-12.7,0.1-19,0.4c-0.2,8.5,0,17.1-0.4,25.6c0,0.4-0.1,0.7-0.2,1.1c1.1,0,2.2,0,3.3-0.1c5.4-0.2,10.9-0.5,16.3-1C193.9,403.8,194.1,395.1,193.5,386.5z"/><path fill="#FEBF10" d="M164.1 162.3c-.2-.2-.5-.3-.9-.6.4.2.7.5.9.7C164.1 162.4 164.1 162.4 164.1 162.3zM125.6 140.4c-1.5.7-3.1 1.4-4.6 2.2-.2 3.1-.3 6.2-.3 9.3 0 1.8 0 3.7.2 5.5.1.5.1 1 .2 1.5.7.6 1.2 1.4 1.4 2.2 0 0 0 0 .1 0 2.9.1 5.7-.1 8.6-.2C130.3 153.8 128.8 146.8 125.6 140.4zM139.4 211.6c-1-7.3-4.2-14.2-12.5-10.4-.3.1-.6.3-.9.3-.6 7.1-1.4 15 2.1 21.1.2 0 .4 0 .5-.1 2.7-.2 7.5-.1 9.6-2.3C140.4 218.2 139.8 214.4 139.4 211.6z"/><path fill="#FEBF10" d="M176.9,151.5c-0.6-2.2-1.5-4.4-1.8-6.6c-0.2-1.8-0.2-3.9-0.9-5.6c-1.6-4-8.4-3.6-11.2-1.4c-0.4,0.3-0.8,0.5-1.2,0.7c0,0.2-0.3,0.9-0.3,1.1c-0.1,1.2-0.1,2.3-0.1,3.5c0,2.8,0.2,5.7,0.5,8.5c0.3,2.6,0.7,5.3,1.3,7.9c0.2,0.9,0.5,1.9,0.8,2.8c0.4,0.3,0.4,0.4,0.3,0.4c0.5,0.5,0.8,1.2,1,1.8c1.2-0.1,2.5,0.3,3.7,1.3c0.7,0.6,7.4-0.4,8.5-2.1C179.7,160.7,177.8,154.8,176.9,151.5z"/><path fill="#127274" d="M435.9,408.9c-12.2,0.6-24.5,4.3-36.6,5.8c-14.8,1.8-29.6,2.4-44.4,3.1c-30.4,1.5-60.9,2.2-91.3,2.3c-15.3,0-30.6-0.6-45.8,0.6c-14.1,1.2-28.2,3-42.3,3.1c-15.1,0.2-30.1-0.5-45.2,0.4c-13.5,0.8-27,1.5-40.5,0.6c-0.2,1-0.7,1.8-1.3,2.4c0,5.9,1.9,11.7,3,17.4c0.6,2.9,0.8,7.3,4.4,7.8c5.2,0.7,10.9-0.3,16.1-0.7c7.7-0.6,15.4-1,23.1-1.2c32.5-0.9,65.1,0.8,97.6,0.5c33.2-0.3,66.4-1.7,99.6-1.6c32.9,0.1,65.9-5,98.8-2.3c1.1,0.1,2,0.5,2.8,1c0.2-1.9,1.2-3.7,2.7-4.6C436.8,432,436.2,420.4,435.9,408.9z"/><path fill="#FEBF10" d="M164.1 162.4C164.1 162.5 164.1 162.5 164.1 162.4c.1.2.2.3.3.3C164.3 162.6 164.2 162.5 164.1 162.4zM176.6 210.1c-.8-3.9-1.4-9-3.9-12.2-1.7-2.3-5.2-1-7.5-.3.2 8.7 1.7 17.4 1.5 26.1.1-.1.2-.1.3-.2C173 220 178.3 217.8 176.6 210.1zM142.3 330c-.7-4.1-1.4-8.8-4-12.2-.7-1-.9-1-1.6-.9-1.1.1-2.9 1.3-4 2.2-.3.2-.5.4-.8.6-.2 4.2 0 8.5.3 12.7.2 2.5.3 5.1.7 7.6.1.9.2 1.9.5 2.8.1.5.2.7.3.9.1.2.1.2 0 0-.2-.4-.9-1.4-2.4-2.1 3.1 1.6 3.6 5.3 2.3 7.7 2.2-2 6.4-2 8.2 1.2.1 0 .2 0 .3.1.5 0 .9 0 1.4 0C143.7 343.6 143.5 336.7 142.3 330z"/><path d="M446,403.6c0-2.9-2.5-4.9-5.2-5c-4.2-0.1-8.4,0.2-12.6,0.8c0-0.1,0.1-0.1,0.2-0.2c5.1-6.8,1.3-19.3,0.2-26.8c-0.8-4.9-0.7-9.5-0.6-14.4c0.2-8.2-0.4-16.5-1-24.7c-1.2-15.4-1.9-30.8-4.4-46c-1.2-7.3-2.8-14.6-4.3-21.9c-1.4-6.7-2.5-13.4-5.2-19.7c-4.1-9.7-11.8-16.2-22.2-17.9c-4.8-0.8-9.8-0.5-14.7-0.6c-1.4,0-2.9-0.1-4.3-0.1c0.2-2.9,0.2-5.9-0.1-9h-0.5c-0.5-6.9-1.8-13.7-3.4-20.5c2.5-0.5,5-1.2,7.3-2.2c5.9-2.7,2.6-12.4-3.4-9.6c-2,0.9-4.1,1.5-6.3,1.9c0-0.1-0.1-0.3-0.1-0.4c-0.6-2.3-1.1-4.7-1.5-7.1c8.4-1.2,16.8-2.3,25.2-2.9c6.6-0.4,5.8-10.6-0.8-10.2c-8.7,0.6-17.4,1.8-26,3c-0.2-1.4-0.4-2.8-0.6-4.2c-0.1-1-0.3-1.9-0.4-2.9c3.3-0.5,6.6-1.2,9.8-2.3c6.2-2.2,2.9-11.8-3.4-9.6c-2.4,0.8-4.9,1.4-7.4,1.8c-0.1-1.1-0.1-2.2-0.2-3.2c0.7-0.9,1.1-2,1.1-3.3c0-2.4-0.6-4.5-1.9-6.5c-3-4.8-9-1.4-9.3,3.2c-0.2,3.6-0.2,7.2,0.1,10.8c-3.9,0.1-7.9,0.1-11.7,0.1c-6.6,0-5.8,10.2,0.8,10.2c3.9,0,7.9,0,11.9-0.1c0.3,2.5,0.8,5.1,1.2,7.6c-5.6,0.7-11.3,1.4-17,1.7c-6.6,0.4-5.8,10.6,0.8,10.2c6-0.4,12-1.1,17.9-1.9c0.2,1.1,0.4,2.2,0.6,3.3c0.2,1.5,0.5,2.9,0.8,4.4c-0.6,0.1-1.2,0.2-1.8,0.3c-6.4,1.2-5.7,11.4,0.8,10.2c1.1-0.2,2.1-0.4,3.2-0.5c1.5,6.3,2.9,12.5,3.5,18.9h0c0.1,0.6,0.1,1.1,0.2,1.7c0.2,2.3,0.2,4.6,0.1,6.9c-10.6-0.4-21.3-0.7-32-0.9c-11-0.2-22.1-0.4-33.1,0c0.1-4.9,1.9-9.5,4-14c1.2,0.4,2.5,0.9,3.6,1.5c5.8,3.1,10.8-5.8,5-8.9c-1.5-0.8-3-1.4-4.6-2c0.5-1.4,1-2.8,1.3-4.3c0.3-0.6,0.4-1.2,0.5-2l0.1-2.2c0.1-2.7-1.5-4.3-3.6-4.7c-0.6-0.5-1.3-0.9-2.3-1.1c-10.6-2.4-18.9-6.8-24.7-16.3c-7.2-11.9-14.5-26.1-13.1-40.3c0.2-2-0.6-3.4-1.9-4.1c-0.1-2.4-0.3-4.7-0.5-7.1c-1-10.9-5.9-19.5-16.8-22.8c-6.1-1.8-12.4-1.7-18.7-1.1c0.2-0.6,0.4-1.2,0.7-1.8h-6c2.3-10.4,5.5-20.6,8-30.9c1.1,0.2,2.1,0.4,3.2,0.6c1.3,0.3,2.6,0.6,3.8,1.1c0.7,0.3,2.1,1.5,1.4,0.5c3.9,5.3,12.3-0.4,8.5-5.7c-3.1-4.2-9-5.8-14.5-6.5c0.9-4.3,1.8-8.6,2.6-12.9c11.4,0.8,22.7,2.1,33.9,4.2c0.8,0.4,1.7,0.7,2.7,0.7h2c5.9,0,6.1-9,0.6-10.1c-12.4-2.4-24.9-3.9-37.4-4.9c0.6-3.5,1.2-7,1.7-10.6c1-6.5-9-8.4-10-1.9c-0.6,4-1.3,7.9-2,11.9c-10-0.5-20.1-0.7-30.1-0.7c-6.6,0-5.8,10.2,0.8,10.2c9.2,0,18.3,0.2,27.4,0.6c-0.8,4.1-1.6,8.2-2.5,12.4c-6.4-0.6-13.5-0.7-19,2.2c-5.8,3-0.1,11.5,5.7,8.5c-0.9,0.5,0.8-0.1,0.9-0.1c1.4-0.2,2.9-0.3,4.3-0.4c1.9-0.1,3.9-0.1,5.8,0c-2.9,12-6.8,23.8-9,36c-1.8,0.2-3.6,0.4-5.4,0.4c-34.2,1.5-68.3,6.6-102.6,8.8c-2.2,0.1-4.4,1.6-4.8,3.9c-4.7,22.8,1.1,46.5,0.6,69.5c-0.6,26-2.9,51.8-1.5,77.8c1.4,26.2,5.4,52.3,7.3,78.4c1.9,25.8,1.1,51.7-0.2,77.5c-4.9,0-9.8-0.2-14.7-0.6c-2.6-0.2-4.1,1.3-4.6,3.2c-1.7,0.4-3.1,1.5-3.4,3.5c-1,6.3-0.2,12.3,1.1,18.5c1.1,5.5,2,11.6,4.8,16.6c4.6,8.1,16,6.6,23.7,5.9c32.2-2.9,64.5-1.6,96.7-1.1c33.2,0.6,66.4-0.7,99.6-1.3c16.5-0.3,33,0.2,49.5-0.5c16.5-0.7,33-2.2,49.5-2.7c7.6-0.2,15.1-0.1,22.7,0.4c0.3,0.1,0.6,0.1,0.9,0.1l4.1,0.2c3.1,0.2,4.7-2,4.8-4.3c1,0.8,1.9,2.1,1,0.3c2.4,5,9.2,1.9,9.5-2.7C447.3,434.9,446.3,419.2,446,403.6z M345.5,236.2c13,0.4,26,1.1,39,1.3c8.6,0.1,14.7,3.2,18.7,11c2.8,5.4,3.5,12,4.8,17.9c1.7,7.9,3.3,15.8,4.7,23.7c1.8,10.6,2.2,21.4,3.1,32.1c0.9,10.7,1.9,21.4,2,32.2c0.1,7.6,0,14.5,1.2,22c0.7,4.5,3.5,13.9,0.6,17.8c-2,2.6-0.7,5.1,1.4,6.4c-6.7,1.2-13.3,2.7-19.9,3.6c-14.7,2-29.5,2.5-44.4,3.3c-0.8,0-1.7,0.1-2.5,0.1c1.1-0.8,1.9-2.1,2-3.9c0.4-8,1.4-15.5-1.9-23.1c-3.7-8.5-12-11-20.7-9.5c-18.7,3.3-15.3,24.2-10.6,37.7c-17.6,0.5-35.3,0.8-52.9,1c0.4-15.2-1-30.4-2.5-45.6c-1.6-16.5-2.3-33-3.2-49.6c-1.3-24.5-2.7-48.9-3.4-73.4c2.5,1.4,5.9,1.1,6.9-2c0.2-0.1,0.3-0.3,0.1-0.2c2-0.8,4.1-1.2,6.2-1.5c6.1-1.1,12.9-1.3,19.2-1.5C310.7,235.3,328.1,235.7,345.5,236.2z M347.8,407.9c-4.7,0.2-9.5,0.4-14.2,0.6c-0.1-0.3-0.1-0.6-0.3-1c-2.3-6.4-8.9-22.9,1-26.1c13.6-4.3,12.5,11,11.9,20.2c0,0.1,0,0.3,0,0.4l-0.1,1.9C345.9,405.8,346.6,407.1,347.8,407.9z M260.5,165.3c0-0.1,0-0.1,0-0.2c2,4.1,4.3,8,6.4,11.8c4.4,7.7,10.7,13,18.1,16.5c-2.4,0-4.8-0.1-7.1-0.6c-5.2-1-10.2-3.3-15-5.5c-0.9-0.4-1.7-0.5-2.5-0.5C260.4,179.8,260.4,172.6,260.5,165.3z M275.4,202.8c1.3,0.3,2.6,0.5,3.9,0.6c-0.3,2.7,1.4,5.9,5,6.1c2,0.1,4,0.2,6,0.3c-2.4,5.2-4.1,10.4-4.2,16.2c-1.2,0.1-2.4,0.1-3.6,0.2c-4.8,0.4-16.5,0.5-21.8,4.9c-0.1-5.3-0.2-10.5-0.3-15.8c-0.1-6-0.1-12-0.1-18C265.2,199.6,270.2,201.7,275.4,202.8z M104.6,117.7c31.5-2.2,62.9-5.9,94.5-8.2c3.9-0.3,7.7-0.6,11.6-1c1.6,0.5,3.4,0.3,4.7-0.5c1.5-0.2,2.9-0.4,4.4-0.5c7.1-1,14.1-1.7,21.2,0c11.5,2.6,9.6,19.4,9.6,28.2c0,33.4-0.7,66.8,0.1,100.2c0.8,33.1,3.4,66,4.5,99c0.8,25.1,5.4,49.9,4.8,75c-12.8-0.1-25.7-0.5-38.5,0.3c-5.9,0.4-11.8,0.9-17.7,1.5c0.5-10.1,0.8-20.2-0.4-30.2c-0.3-2.9-2.2-4.8-5.2-5c-9.5-0.4-19.1,0-28.6,0.5c-2.9,0.2-4.8,2.4-5,5.2c-0.5,10.2-0.1,20.4-0.6,30.6c0,0.3,0,0.6,0,0.9c-10.6-0.1-21.2-0.4-31.9,0.2c-6.8,0.4-13.6,0.8-20.3,1c1.3-24.6,1.9-49.2,0.5-73.7c-1.5-26.2-5.5-52.2-7.3-78.4c-1.7-26,0.2-51.8,1.1-77.9c0.4-12.2-0.2-24.1-1.2-36.2C103.9,138.4,103,127.9,104.6,117.7z M193.4,412.5c-5.4,0.4-10.9,0.8-16.3,1c-1.1,0-2.2,0-3.3,0.1c0.1-0.3,0.1-0.7,0.2-1.1c0.4-8.5,0.2-17.1,0.4-25.6c6.3-0.3,12.7-0.5,19-0.4C194.1,395.1,193.9,403.8,193.4,412.5z M436.6,443.5c-1.5,0.8-2.6,2.6-2.7,4.6c-0.7-0.6-1.7-0.9-2.8-1c-32.9-2.7-65.9,2.4-98.8,2.3c-33.2-0.1-66.4,1.3-99.6,1.6c-32.5,0.3-65.1-1.4-97.6-0.5c-7.7,0.2-15.4,0.6-23.1,1.2c-5.2,0.4-10.9,1.4-16.1,0.7c-3.5-0.5-3.8-4.9-4.4-7.8c-1.1-5.7-3.1-11.5-3-17.4c0.7-0.6,1.1-1.4,1.3-2.4c13.5,0.9,27,0.2,40.5-0.6c15.1-0.9,30.1-0.2,45.2-0.4c14.2-0.2,28.3-2,42.3-3.1c15.2-1.2,30.6-0.6,45.8-0.6c30.5-0.1,60.9-0.8,91.3-2.3c14.9-0.7,29.7-1.3,44.4-3.1c12.1-1.5,24.3-5.2,36.6-5.8C436.2,420.4,436.8,432,436.6,443.5z"/><path d="M142.3 165.8c-1.7-12.1-3.4-24.3-10.2-34.7-1.6-2.4-4.5-3.1-7-1.8-3.1 1.7-6.4 2.9-9.4 4.6-1.6.8-2.3 2.1-2.5 3.4-1.2.8-2.1 2.2-2.2 4-.3 4.8-.4 9.6-.2 14.5.2 4.4.8 10.7 6 11.9.6.1 1.1.2 1.6.1.7 1.8 2.2 3.3 4.7 3.4 4.8.1 9.5-.4 14.3-.3C139.9 171.1 142.7 168.5 142.3 165.8zM122.8 161.1C122.8 161.1 122.7 161.1 122.8 161.1c-.3-.8-.8-1.6-1.5-2.2-.1-.5-.2-1-.2-1.5-.2-1.8-.2-3.7-.2-5.5 0-3.1.1-6.2.3-9.3 1.5-.8 3-1.5 4.6-2.2 3.2 6.4 4.6 13.4 5.7 20.5C128.5 161 125.6 161.2 122.8 161.1zM187.6 152.6c-.7-3.6-2.2-7-2.6-10.6-.4-3.7-1.1-7.5-3.8-10.4-5.6-6.1-16.7-7.7-23.5-2.5-.8.6-1.4 1.3-1.7 2.1-1.3.2-2.5 1-3.3 2.6-2.7 5.7-1.5 13.1-.8 19.1.6 5.3 1 14.5 6.2 17.6.9.5 1.7.8 2.5.8.3.6.7 1.2 1.3 1.8 5.6 4.8 14.1 3 20-.1C189.8 169 188.9 159.7 187.6 152.6zM177.7 163.8c-1.1 1.6-7.8 2.7-8.5 2.1-1.2-1-2.5-1.4-3.7-1.3-.2-.6-.5-1.3-1-1.8-.1 0-.2-.1-.3-.2 0 0 0 0 0-.1-.3-.3-.6-.5-.9-.7.4.3.7.5.9.6-.3-.9-.6-1.9-.8-2.8-.6-2.6-1-5.2-1.3-7.9-.3-2.8-.5-5.7-.5-8.5 0-1.2 0-2.3.1-3.5 0-.2.3-.9.3-1.1.4-.2.8-.4 1.2-.7 2.8-2.1 9.6-2.6 11.2 1.4.7 1.7.7 3.8.9 5.6.2 2.2 1.2 4.5 1.8 6.6C177.8 154.8 179.7 160.7 177.7 163.8z"/><path d="M164.1 162.3c0 0 0 .1 0 .1.1.1.2.2.3.3C164.5 162.8 164.5 162.6 164.1 162.3zM227.8 149.7c0-3.4 0-6.8-.2-10.3-.3-4.7-1.3-9.5-4.9-12.9-4.6-4.2-11.6-3.8-17.3-2.9-2.8.4-4.3 2.6-4.6 4.8-.2.1-.4.2-.6.3-2.9 1.8-2.9 5.4-2.7 8.3.7 9 1.3 18.4 1 27.4-.1 3.8 3.2 5.3 6.1 4.6-.3 4.4 5.1 8.4 8.5 4.2 2.2-2.7 5.6-2.2 8.6-3.6 3.5-1.6 5.2-4.8 6.3-8.3C229.3 157.7 227.8 153.6 227.8 149.7zM218.1 159c-.4 2.4-2.9 2.1-4.8 2.5-1.7.3-3.2 1-4.5 2 .1-5.9-.5-11.8-.8-17.6-.1-2.3.1-4.6 0-6.9 0-.3 0-1.1 0-1.8 1-1 1.6-2.4 1.5-3.9 2.5-.3 5.2-.3 6.7 1.1 1.8 1.7 1.4 6.3 1.5 8.4.1 2.4 0 4.8 0 7.2C217.6 153 218.7 156 218.1 159zM149.2 208.8c-1-6.2-3.4-12.6-8.6-16.3-5.9-4.2-12.7-2.8-18.9 0-.2.1-.4.2-.6.3-2.4.2-4.8 1.9-4.9 5-.6 10.2-2 21 3.3 30.2 1.2 2.1 3.2 2.7 5 2.4.8 1.5 2.2 2.6 4.5 2.4 6.2-.4 12.8-1.3 17.3-6C150.8 222.1 150.2 214.7 149.2 208.8zM138.3 220.4c-2.1 2.2-6.9 2.1-9.6 2.3-.2 0-.4 0-.5.1-3.5-6.1-2.7-14-2.1-21.1.3-.1.6-.2.9-.3 8.3-3.9 11.5 3 12.5 10.4C139.8 214.4 140.4 218.2 138.3 220.4zM186.1 205.9c-1.2-5.7-2.7-12.3-7.2-16.4-4.7-4.3-11.5-3.4-17-1.6-.6.2-1.2.5-1.6.8-2.5.1-5 1.8-5.1 5-.4 10.3 1.8 20.4 1.4 30.7-.2 4.7 5 5.9 8.1 3.8.5 3.2 4 6.1 7.6 4 4.8-2.9 9.6-5.7 12.9-10.3C188.3 217.3 187.2 211 186.1 205.9zM167 223.5c-.1.1-.2.1-.3.2.2-8.7-1.3-17.4-1.5-26.1 2.3-.8 5.8-2 7.5.3 2.4 3.3 3 8.4 3.9 12.2C178.3 217.8 173 220 167 223.5zM231.3 202.6c-.2-5.1-.5-12.2-4.2-16.1-3.9-4.1-10.3-4-15.6-4.3-3.5-.2-5 2.6-4.8 5.3-1.5.4-2.9 1.5-3.4 3.5-2.6 9.5-1.5 20.1 1.7 29.3 1 2.9 3.6 3.8 6 3.4.8 1.1 2.2 1.8 4.1 1.6 5.2-.6 11.4-1.5 14.4-6.4C232.4 214.1 231.5 207.9 231.3 202.6zM221.1 212.6c-.4 2.1-4.4 2.2-6.3 2.4-.3 0-.5.1-.7.1-2.1-7-2.8-14.6-.9-21.7.1-.4.2-.7.2-1 2.2.1 5.2.2 6.2 1 1.3 1 1.3 6.2 1.5 8.1C221.5 204.9 221.8 209.2 221.1 212.6zM148.2 268.1c-.6-7.1 1-14.5-6.7-18.2-5.7-2.7-13.6-1.6-18.7 2.4-2.7-3-8.6-.9-8.8 3.7l-.3 5.1c-.1 2 .8 3.3 2 4.1 1.1 7.1 1.7 14.2 4.1 21 1.3 3.7 5.4 4.2 7.9 2.6 0 .1-.1.2-.1.2-1.1 3.4 2 6.1 5.1 6.3 6.7.6 13-1.9 15.3-8.6C150 280.7 148.7 274.2 148.2 268.1zM138.8 281.7c-.1 1.1-.4 1.9-.9 2.4-1.9-2.1-6-2.4-8.1.1-.1-.3-.1-.6-.2-.9-2.3-6.5-2.9-13.3-3.9-20 .7-.3 1.4-.8 2.1-1.6 1.3-1.6 2.6-2.3 4.5-2.8.8-.2 4.9-.8 5.3.3 1.4 3.4.3 8.3.7 12C138.6 274.6 139.2 278.2 138.8 281.7zM184.6 246.9c-5.2-7.1-13.8-7-21.5-4.8-2.6.7-3.6 2.7-3.6 4.8-2.4-.5-4.9.5-5.3 3.7-1.5 11.5 2.5 22.4 4.5 33.5.7 3.8 4.4 4.4 7 2.9.3.5.8 1.1 1.4 1.5 6 4.3 13.1 3.9 17.6-2.2 3.9-5.3 5-12.4 5.4-18.8C190.6 260.7 188.7 252.4 184.6 246.9zM180 266.9c-.1 3.6-.7 7.4-2.1 10.7-1.6 3.9-2.4 4.4-5.8 2-1.5-1.1-2.9-1.2-4.1-.6-1.8-8.4-5.1-17.3-4-25.9 0-.3.1-.7 0-1 .6 0 1.2 0 1.8-.2 4-1.1 8.4-2.2 11 1.8C179.2 257.4 180.1 262.6 180 266.9zM234.7 254.6c-.4-5.2-1.1-10.2-4.6-14.2-4.3-4.9-12.2-3.7-17.8-2.7-4.3.8-4.5 5.3-2.2 8-2.4.2-4.8 1.9-5 5-.4 9.7.7 19.6 2.8 29 .8 3.8 4.6 4.4 7.3 2.8 1.2 2.4 4.1 4.1 7.2 2.6 3.1-1.5 6.6-1.7 9.6-3.7 2.7-1.8 3.9-4.7 4.1-7.8C236.7 267.4 235.2 260.7 234.7 254.6zM224.7 273.7c-2.4.8-4.8 1.3-7.1 2.4-1.8-8.4-2.6-17.1-2.3-25.7 0-1.2-.2-2.1-.8-2.9.2 0 .4 0 .6-.1 2.3-.4 6.8-1.6 8.3 1 1.5 2.6 1.1 7.1 1.4 10 .3 4 .9 8 1.3 12.1C226.2 272.6 226.6 273 224.7 273.7zM133.7 343.6C133.8 343.8 133.8 343.8 133.7 343.6L133.7 343.6z"/><path d="M150.8 321.2c-1.4-5.1-3.8-10.4-8.5-13.1-5.8-3.4-12.2.2-16.8 3.9-1.4 1.1-1.8 2.5-1.7 3.7-1.1.8-1.9 2.2-2 3.9-.2 5.8.2 11.7.6 17.4.4 5 .4 12 5.9 14.1 1.8.7 3.2.3 4.3-.6-.5 1-.6 2.2-.1 3.6 2.6 7.5 9.7 6.2 16.1 6.3 2.9 0 4.8-2.5 5-5.2C154.2 344 153.8 332.2 150.8 321.2zM143.6 350.4c-.5 0-.9 0-1.4 0-.1 0-.2-.1-.3-.1-1.8-3.1-5.9-3.1-8.2-1.2 1.3-2.4.8-6.2-2.3-7.7 1.5.7 2.2 1.7 2.4 2.1-.1-.2-.2-.4-.3-.9-.2-.9-.3-1.9-.5-2.8-.3-2.5-.5-5.1-.7-7.6-.3-4.2-.5-8.4-.3-12.7.3-.2.5-.3.8-.6 1.1-.9 2.9-2.1 4-2.2.7-.1.9 0 1.6.9 2.5 3.4 3.3 8.1 4 12.2C143.5 336.7 143.7 343.6 143.6 350.4zM191.7 324.2c-1.5-6.4-4.3-13.3-10-17-6.9-4.4-13.4 2.3-16.9 7.6-2.4.8-4.4 3.1-3.9 6.2 1.5 8.8 3.8 17.5 4.4 26.5.3 4.9 6.1 6 8.8 3.5.7 1.6 2.3 2.8 4.5 2.9 6.7.2 12.6-2.3 14.2-9.3C194.3 338.4 193.1 330.3 191.7 324.2zM183 340.8c0 3.3-1.7 3-4.7 3-1.3 0-2.3.3-3.1 1-.8-7.6-2.4-15.1-3.9-22.6.8-.4 1.4-1 2-1.9 2.5-3.9 3-5.4 5.3-1.8 2 3.2 3 7.2 3.8 10.9C183.1 332.9 183.1 337.1 183 340.8zM235.6 324.4c-1.2-6.7-2.4-13.5-6.9-18.9-4.9-6-13.2-4-19.1-1.1-1.6.8-2.3 2-2.5 3.2-3.8 4.6-3.2 11.5-2.6 17 .7 6.2 1.9 12.8 4.7 18.5 1.2 2.3 3.2 2.9 5.1 2.4 6.1 3.4 13.9 2.6 19.5-1.9C239.8 338.8 236.7 330.7 235.6 324.4zM226.7 336.2c-2.6 1.7-6.1 1.9-8.5-.3-.5-.4-1-.8-1.4-1-1-3-1.5-6.3-1.9-9.3-.3-2.4-1.7-9.6-.1-11.3.5-.5.8-1.1 1-1.6 2.1-1 4.5-1.7 6 .5 1.9 2.7 2.5 6.4 3.2 9.6.8 3.8 1.4 7.7 2.2 11.5C227.5 335.9 227.6 335.6 226.7 336.2zM299.8 268.9c-1.8-5.5-1.4-12-4.9-16.9-4-5.6-10.9-5-16.9-3.7-3.3.7-4.2 3.7-3.3 6.2-2 .6-3.7 2.2-3.8 4.8-.3 7.6 1.2 15 1.9 22.6.3 4.2 4.8 5.6 7.7 4.3.6 1 1.6 1.7 3.2 1.9 5.2.6 12 1.5 15.9-3C303.7 280.5 301.5 273.9 299.8 268.9zM286.3 278.1c-1.3-.2-2.5.1-3.5.7-.7-6.6-1.8-13.2-1.6-19.9 0-.3 0-.7-.1-1 1.8-.4 4.8-1.4 5.8.5 1.5 2.6 1.5 6.6 2.1 9.5.7 3.5 2.3 6.8 2.6 10.4C290.1 278.7 287.9 278.3 286.3 278.1zM312.5 250.7c-2 1.1-2.7 2.8-2.5 4.5-2 2.5-2.1 7.6-1.8 10.5.8 6.9 2.2 13.7 3.5 20.4.7 3.8 4.4 4.3 7 2.9 1.1.9 2.6 1.3 4.4.8 4.1-1.1 8.3-2.3 12.4-3.4 2.2-.6 3.8-2.8 3.7-5C338.6 267.1 332.6 240.1 312.5 250.7zM320.9 280c-.6-2.9-1.1-5.8-1.6-8.7-.4-2.2-.7-4.4-.9-6.7-.1-1-.2-1.9-.2-2.9.5-.8.8-1.8.9-2.7 7.1-2.2 9.2 11.1 9.8 18.8C326.2 278.5 323.5 279.3 320.9 280zM362.6 249.3c-1 .6-1.6 1.5-2 2.3-2.4.3-4.6 2-4.7 5-.3 8.3 1.3 16.2 4.1 24 .9 2.7 3.3 3.6 5.5 3.4.8.9 2 1.4 3.5 1.5C403.4 286.7 380.9 237.5 362.6 249.3zM369 275.3c-1.7-5.4-2.8-10.8-2.9-16.5.6-.1 1.2-.4 1.8-.7.7-.4.9-.3.9-.3.6.1 1.3.5 2.1 1.1 2.2 1.8 4 4.3 5.1 7C378.7 272.6 376 275.5 369 275.3zM305.3 316.1c-1.2-5.3-3.8-10-8.3-13.1-4.9-3.3-11.2-1.3-15.9 1.1-1.6.8-2.4 2.1-2.5 3.4-1.2.8-2.1 2.2-2.2 4-.4 8.1.4 16.2 3.1 23.9 1.6 4.5 7.2 4.2 9.3 1.3 1.1 1.5 2.9 2.3 5.2 1.6 4-1.3 8.2-2.1 10.7-5.7C308.1 327.9 306.5 321.3 305.3 316.1zM296.3 327c-.1.3-4 1.2-5.2 1.6-1.2.4-2 1-2.6 1.8-1.7-5.8-2.2-11.6-2-17.6 5.7-2.8 7.5.8 8.9 6.2C296 321 297.3 325 296.3 327zM343.4 320.5c-1.1-5.5-1.8-10.7-5.7-15-4.2-4.6-11.2-3.7-16.4-1.8-2.4.2-4.8 1.9-4.9 5-.3 9.5 2.9 18.4 3.6 27.8.4 5.7 8.3 6.3 9.9 1.9 4.2-.3 8.5-1 11.6-4C345.2 330.7 344.3 324.9 343.4 320.5zM333.9 327.4c-.5.3-1.2.5-2.1.6-.8-.9-1.9-1.6-3.1-1.8-.9-4.6-1.8-9.1-2.1-13.8 1.4-.4 2.9-.6 3.9.2 1.9 1.7 2.2 5.8 2.6 8.1.2 1.5.6 3 .8 4.5C334.1 326.2 333.7 327.4 333.9 327.4zM393.9 313c-1.5-5.9-4.6-12.7-9.6-16.5-6.3-4.9-13.2-2.3-17.8 3.3-2.3-.3-4.5.8-4.9 3.7-1.2 9.9 2.7 18.4 3.5 28.1.4 4.5 5.4 5.8 8.2 4 1.1.9 2.6 1.4 4.4 1.1 5.5-1.1 12.1-2 15.5-7C396.6 325 395.2 318.2 393.9 313zM384.8 324.2c-1.8 2.1-7.4 2.3-9.9 2.7-.1 0-.2 0-.2.1-1.2-6-3.3-12-3.3-18 .7-.3 1.4-.8 2-1.5 2.6-3.4 3.9-4.7 6.7-.9 2.2 3 3.4 6.6 4.3 10.2C384.8 318.3 386 322.9 384.8 324.2zM404 366.2c-.1-13.3-10.4-21.5-23.1-16.4-1.3.5-2.2 1.4-2.8 2.4-1.6.7-2.9 2.2-3.1 4.5-.5 9.5-.5 18.7 1.8 27.9 1.3 5 7.5 4.3 9.4.8 5-.7 9.8-1.3 13.7-4.6C404 377.5 404.1 370.7 404 366.2zM392.8 373.7c-1.2 1.3-5.2 1.4-6.8 1.6-.1 0-.3.1-.4.1-.7-5.4-.6-10.9-.4-16.4 2.4-.9 4.8-1.5 6.8.5 1.9 1.9 1.9 5.7 1.9 8.2C393.9 369.3 394 372.4 392.8 373.7zM307.8 369.6c-3-10.5-13.3-25.6-24.3-13.4-1.3 1.4-1.6 3-1.2 4.4-1.4.8-2.4 2.2-2.5 4.2-.4 7.4-.6 14.8 2.2 21.8.8 2 2.4 3 4.1 3.3.3 1.1 1 2.2 2.2 3 7.3 5 15.2 1.5 19.4-5.7C310.6 381.8 309.4 375.3 307.8 369.6zM293.2 384.1c-.6-.4-1.2-.6-1.7-.8-2.3-6-1.9-12.3-1.6-18.7 0-.2 0-.4 0-.5.3-.2.6-.5.9-.8 1.5-1.7 1.3-2 2.9-.3 2.1 2.2 3.1 5.6 4.1 8.4.8 2.4 1.4 5 1.6 7.5C299.5 382.7 296.7 386.5 293.2 384.1z"/></svg>