<svg xmlns="http://www.w3.org/2000/svg" viewBox="0 0 24 24"><path d="M 5 0 L 5 3 L 7 3 L 7 0 Z M 9 0 L 9 3 L 11 3 L 11 0 Z M 13 0 L 13 3 L 15 3 L 15 0 Z M 17 0 L 17 3 L 19 3 L 19 0 Z M 4 4 L 4 20 L 20 20 L 20 4 Z M 0 5 L 0 7 L 3 7 L 3 5 Z M 21 5 L 21 7 L 24 7 L 24 5 Z M 0 9 L 0 11 L 3 11 L 3 9 Z M 8 9 L 16 9 L 16 15 L 8 15 Z M 21 9 L 21 11 L 24 11 L 24 9 Z M 0 13 L 0 15 L 3 15 L 3 13 Z M 21 13 L 21 15 L 24 15 L 24 13 Z M 0 17 L 0 19 L 3 19 L 3 17 Z M 21 17 L 21 19 L 24 19 L 24 17 Z M 5 21 L 5 24 L 7 24 L 7 21 Z M 9 21 L 9 24 L 11 24 L 11 21 Z M 13 21 L 13 24 L 15 24 L 15 21 Z M 17 21 L 17 24 L 19 24 L 19 21 Z"/></svg>