<svg xmlns="http://www.w3.org/2000/svg" viewBox="0 0 100 100"><path d="M 37.992188 12 C 23.660007 12 12 23.673203 12 38 C 12 49.785738 19.880802 59.77041 30.664062 62.941406 A 1.0001 1.0001 0 1 0 31.228516 61.023438 C 21.281776 58.098433 14 48.894262 14 38 C 14 24.756797 24.744368 14 37.992188 14 C 48.886156 14 58.092615 21.28847 61.021484 31.232422 A 1.0001 1.0001 0 1 0 62.939453 30.666016 C 59.764322 19.885968 49.778218 12 37.992188 12 z M 85.980469 12.990234 A 1.0001 1.0001 0 0 0 85.292969 13.292969 L 13.292969 85.292969 A 1.0001 1.0001 0 1 0 14.707031 86.707031 L 86.707031 14.707031 A 1.0001 1.0001 0 0 0 85.980469 12.990234 z M 37.792969 17.007812 C 37.616492 17.015688 37.452713 17.029666 37.300781 17.035156 A 0.50034417 0.50034417 0 1 0 37.337891 18.035156 C 37.696027 18.022176 38.003182 17.988482 38.263672 18.013672 A 0.50034046 0.50034046 0 1 0 38.359375 17.017578 C 38.15862 16.998168 37.969446 16.999937 37.792969 17.007812 z M 41.263672 17.285156 A 0.50005 0.50005 0 0 0 41.195312 18.279297 C 41.546793 18.339677 41.867729 18.370217 42.144531 18.435547 A 0.50005 0.50005 0 1 0 42.373047 17.462891 C 42.005849 17.376221 41.663801 17.344592 41.363281 17.292969 A 0.50005 0.50005 0 0 0 41.263672 17.285156 z M 34.332031 17.341797 A 0.50005 0.50005 0 0 0 34.296875 17.345703 C 33.938473 17.388063 33.586574 17.460146 33.242188 17.560547 A 0.50035142 0.50035142 0 1 0 33.521484 18.521484 C 33.815097 18.435884 34.112465 18.373534 34.414062 18.337891 A 0.50005 0.50005 0 0 0 34.332031 17.341797 z M 45.097656 18.292969 A 0.50005 0.50005 0 0 0 44.941406 19.263672 C 45.264848 19.385745 45.574988 19.487759 45.855469 19.605469 A 0.50005 0.50005 0 1 0 46.242188 18.683594 C 45.912667 18.545304 45.589527 18.440052 45.292969 18.328125 A 0.50005 0.50005 0 0 0 45.097656 18.292969 z M 30.554688 18.419922 A 0.50005 0.50005 0 0 0 30.373047 18.449219 C 30.047629 18.561146 29.713225 18.690114 29.384766 18.863281 A 0.50017731 0.50017731 0 1 0 29.851562 19.748047 C 30.111103 19.611214 30.394684 19.500557 30.697266 19.396484 A 0.50005 0.50005 0 0 0 30.554688 18.419922 z M 48.666016 20.027344 A 0.50005 0.50005 0 0 0 48.421875 20.955078 C 48.716374 21.138485 49.00002 21.297103 49.25 21.466797 A 0.50054901 0.50054901 0 0 0 49.8125 20.638672 C 49.51448 20.436366 49.218673 20.272062 48.951172 20.105469 A 0.50005 0.50005 0 0 0 48.666016 20.027344 z M 27.021484 20.216797 A 0.50005 0.50005 0 0 0 26.96875 20.21875 A 0.50005 0.50005 0 0 0 26.746094 20.289062 C 26.445814 20.462743 26.145864 20.65469 25.859375 20.884766 A 0.50005 0.50005 0 1 0 26.484375 21.664062 C 26.715886 21.47814 26.974326 21.312616 27.248047 21.154297 A 0.50005 0.50005 0 0 0 27.021484 20.216797 z M 51.832031 22.416016 A 0.50005 0.50005 0 0 0 51.511719 23.285156 C 51.769329 23.526733 52.019687 23.731866 52.21875 23.941406 A 0.50005 0.50005 0 1 0 52.943359 23.253906 C 52.686423 22.983447 52.419703 22.767064 52.195312 22.556641 A 0.50005 0.50005 0 0 0 51.832031 22.416016 z M 23.853516 22.666016 A 0.50005 0.50005 0 0 0 23.548828 22.789062 C 23.274756 23.02197 23.02071 23.275363 22.789062 23.546875 A 0.50080542 0.50080542 0 0 0 23.550781 24.197266 C 23.749134 23.964777 23.963385 23.747874 24.195312 23.550781 A 0.50005 0.50005 0 0 0 23.853516 22.666016 z M 54.482422 25.371094 A 0.50005 0.50005 0 0 0 54.097656 26.166016 C 54.307503 26.460019 54.514898 26.705619 54.658203 26.941406 A 0.50043473 0.50043473 0 1 0 55.513672 26.421875 C 55.312977 26.091662 55.08431 25.829934 54.910156 25.585938 A 0.50005 0.50005 0 0 0 54.482422 25.371094 z M 21.259766 25.666016 A 0.50005 0.50005 0 0 0 20.884766 25.859375 C 20.65469 26.145864 20.462744 26.445814 20.289062 26.746094 A 0.50014708 0.50014708 0 1 0 21.154297 27.248047 C 21.312616 26.974326 21.478139 26.715886 21.664062 26.484375 A 0.50005 0.50005 0 0 0 21.259766 25.666016 z M 33.474609 28 C 33.111609 28 32.913906 28.2715 32.878906 28.8125 C 32.878906 28.8125 32.253906 36.829766 32.253906 37.009766 C 32.253906 37.605766 32.6075 37.902344 33.3125 37.902344 L 37.164062 37.902344 C 38.287062 37.902344 39.160156 38.215844 39.785156 38.839844 C 40.409156 39.463844 40.720703 40.391094 40.720703 41.621094 L 40.720703 42.136719 C 40.720703 43.403719 40.409156 44.353328 39.785156 44.986328 C 39.160156 45.620328 38.278672 45.935547 37.138672 45.935547 C 36.107672 45.935547 35.257891 45.687453 34.587891 45.189453 C 33.917891 44.691453 33.583984 44.008625 33.583984 43.140625 C 33.583984 42.526625 33.202359 42.21875 32.443359 42.21875 C 31.682359 42.21875 31.304688 42.580688 31.304688 43.304688 C 31.304688 44.607688 31.828906 45.715906 32.878906 46.628906 C 33.927906 47.542906 35.355063 48 37.164062 48 C 38.919062 48 40.330438 47.524219 41.398438 46.574219 C 42.465438 45.624219 43 44.146672 43 42.138672 L 43 41.621094 C 43 39.686094 42.469156 38.267281 41.410156 37.363281 C 40.352156 36.459281 38.938063 36.005859 37.164062 36.005859 L 34.451172 36.005859 L 34.859375 30.0625 L 41.289062 30.0625 C 41.524062 30.0625 41.705031 29.959953 41.832031 29.751953 C 41.959031 29.543953 42.023438 29.30225 42.023438 29.03125 C 42.023438 28.75825 41.958031 28.5205 41.832031 28.3125 C 41.705031 28.1045 41.524062 28 41.289062 28 L 33.474609 28 z M 56.509766 28.779297 A 0.50005 0.50005 0 0 0 56.078125 29.492188 C 56.2287 29.824112 56.386743 30.101768 56.478516 30.357422 A 0.50010389 0.50010389 0 1 0 57.419922 30.019531 C 57.287695 29.651185 57.113659 29.350201 56.990234 29.078125 A 0.50005 0.50005 0 0 0 56.509766 28.779297 z M 19.292969 29.113281 A 0.50005 0.50005 0 0 0 18.863281 29.386719 C 18.690114 29.715178 18.561146 30.047629 18.449219 30.373047 A 0.50092393 0.50092393 0 0 0 19.396484 30.699219 C 19.500557 30.396637 19.611214 30.111103 19.748047 29.851562 A 0.50005 0.50005 0 0 0 19.292969 29.113281 z M 57.839844 32.517578 A 0.50005 0.50005 0 0 0 57.378906 33.138672 C 57.461436 33.484878 57.557891 33.793656 57.609375 34.078125 A 0.50014586 0.50014586 0 1 0 58.59375 33.900391 C 58.527234 33.53286 58.42303 33.206044 58.351562 32.90625 A 0.50005 0.50005 0 0 0 57.839844 32.517578 z M 18.027344 32.875 A 0.50005 0.50005 0 0 0 17.5625 33.242188 C 17.462099 33.586574 17.38806 33.938473 17.345703 34.296875 A 0.50051202 0.50051202 0 1 0 18.339844 34.414062 C 18.375484 34.112465 18.435884 33.815097 18.521484 33.521484 A 0.50005 0.50005 0 0 0 18.027344 32.875 z M 17.542969 36.810547 A 0.50005 0.50005 0 0 0 17.035156 37.300781 C 17.025126 37.602625 16.978668 37.956872 17.017578 38.359375 A 0.50005 0.50005 0 1 0 18.011719 38.263672 C 17.986629 38.004175 18.021223 37.69414 18.033203 37.333984 A 0.50005 0.50005 0 0 0 17.542969 36.810547 z M 69.037109 37.015625 A 1.0001 1.0001 0 0 0 68.767578 38.978516 C 78.712776 41.907469 86 51.110189 86 62 C 86 75.242478 75.238968 86 61.992188 86 C 51.097121 86 41.902639 78.713663 38.978516 68.769531 A 1.0001 1.0001 0 1 0 37.060547 69.333984 C 40.230423 80.113853 50.205253 88 61.992188 88 C 76.323407 88 88 76.327522 88 62 C 88 50.217811 80.112834 40.235594 69.332031 37.060547 A 1.0001 1.0001 0 0 0 69.037109 37.015625 z M 17.792969 40.771484 A 0.50005 0.50005 0 0 0 17.292969 41.363281 C 17.344679 41.66521 17.376279 42.006074 17.462891 42.373047 A 0.50005 0.50005 0 1 0 18.435547 42.144531 C 18.370167 41.867504 18.339587 41.547384 18.279297 41.195312 A 0.50005 0.50005 0 0 0 17.792969 40.771484 z M 66 41.396484 A 0.50005 0.50005 0 0 0 65.921875 42.390625 C 66.206521 42.442145 66.516513 42.538638 66.861328 42.621094 A 0.50005 0.50005 0 1 0 67.09375 41.648438 C 66.794565 41.576892 66.466964 41.472734 66.099609 41.40625 A 0.50005 0.50005 0 0 0 66 41.396484 z M 69.785156 42.546875 A 0.50005 0.50005 0 0 0 69.642578 43.519531 C 69.898738 43.611191 70.17551 43.769175 70.507812 43.919922 A 0.50005 0.50005 0 1 0 70.921875 43.009766 C 70.650178 42.886512 70.350309 42.710464 69.980469 42.578125 A 0.50005 0.50005 0 0 0 69.785156 42.546875 z M 73.292969 44.412109 A 0.50005 0.50005 0 0 0 73.058594 45.341797 C 73.295116 45.485549 73.539449 45.692424 73.832031 45.902344 A 0.50029859 0.50029859 0 0 0 74.416016 45.089844 C 74.170598 44.913763 73.907603 44.688529 73.578125 44.488281 A 0.50005 0.50005 0 0 0 73.292969 44.412109 z M 18.806641 44.609375 A 0.50005 0.50005 0 0 0 18.753906 44.611328 A 0.50005 0.50005 0 0 0 18.328125 45.292969 C 18.440177 45.58986 18.54566 45.910487 18.683594 46.240234 A 0.50005 0.50005 0 1 0 19.605469 45.855469 C 19.487402 45.573216 19.38562 45.264515 19.263672 44.941406 A 0.50005 0.50005 0 0 0 18.806641 44.609375 z M 76.384766 46.914062 A 0.50005 0.50005 0 0 0 76.058594 47.78125 C 76.26816 47.980338 76.472269 48.229677 76.714844 48.488281 A 0.50005 0.50005 0 1 0 77.443359 47.804688 C 77.231934 47.579291 77.016527 47.313552 76.746094 47.056641 A 0.50005 0.50005 0 0 0 76.384766 46.914062 z M 20.490234 48.179688 A 0.50005 0.50005 0 0 0 20.105469 48.951172 C 20.272062 49.218673 20.436366 49.51448 20.638672 49.8125 A 0.50054901 0.50054901 0 0 0 21.466797 49.25 C 21.297103 49.00002 21.138485 48.716374 20.955078 48.421875 A 0.50005 0.50005 0 0 0 20.541016 48.179688 A 0.50005 0.50005 0 0 0 20.490234 48.179688 z M 78.9375 49.962891 A 0.50005 0.50005 0 0 0 78.533203 50.75 C 78.702897 50.99998 78.861515 51.283626 79.044922 51.578125 A 0.50049744 0.50049744 0 1 0 79.894531 51.048828 C 79.727938 50.781327 79.563634 50.48552 79.361328 50.1875 A 0.50005 0.50005 0 0 0 78.9375 49.962891 z M 22.882812 51.349609 A 0.50005 0.50005 0 0 0 22.556641 52.195312 C 22.768066 52.420709 22.983473 52.686448 23.253906 52.943359 A 0.50005 0.50005 0 1 0 23.941406 52.21875 C 23.73184 52.019662 23.527731 51.770323 23.285156 51.511719 A 0.50005 0.50005 0 0 0 22.882812 51.349609 z M 62.486328 52 C 62.250328 52 62.013344 52.118469 61.777344 52.355469 L 59.263672 55.332031 C 58.935672 55.588031 58.771484 55.906062 58.771484 56.289062 C 58.771484 56.544062 58.854578 56.767984 59.017578 56.958984 C 59.181578 57.150984 59.380187 57.246094 59.617188 57.246094 C 59.817187 57.246094 60.009406 57.145313 60.191406 56.945312 L 61.203125 55.443359 L 61.203125 71.179688 C 61.203125 71.434687 61.316922 71.63525 61.544922 71.78125 C 61.771922 71.92825 62.041562 72 62.351562 72 C 62.660562 72 62.92925 71.92825 63.15625 71.78125 C 63.38425 71.63625 63.498047 71.434687 63.498047 71.179688 L 63.498047 52.820312 C 63.498047 52.565313 63.392594 52.36475 63.183594 52.21875 C 62.973594 52.07275 62.741328 52 62.486328 52 z M 80.847656 53.445312 A 0.50005 0.50005 0 0 0 80.394531 54.144531 C 80.512598 54.426784 80.61438 54.735485 80.736328 55.058594 A 0.50005 0.50005 0 1 0 81.671875 54.707031 C 81.559823 54.41014 81.45434 54.089513 81.316406 53.759766 A 0.50005 0.50005 0 0 0 80.847656 53.445312 z M 25.837891 54 A 0.50005 0.50005 0 0 0 25.583984 54.910156 C 25.829402 55.086237 26.092397 55.311471 26.421875 55.511719 A 0.50005 0.50005 0 1 0 26.941406 54.658203 C 26.704884 54.514451 26.460551 54.307576 26.167969 54.097656 A 0.50005 0.50005 0 0 0 25.837891 54 z M 29.248047 56.033203 A 0.50005 0.50005 0 0 0 29.078125 56.990234 C 29.349822 57.113488 29.649691 57.289536 30.019531 57.421875 A 0.50010389 0.50010389 0 1 0 30.357422 56.480469 C 30.101262 56.388809 29.82449 56.230825 29.492188 56.080078 A 0.50005 0.50005 0 0 0 29.248047 56.033203 z M 82.025391 57.234375 A 0.50005 0.50005 0 0 0 81.564453 57.855469 C 81.629843 58.132496 81.660413 58.452615 81.720703 58.804688 A 0.50026406 0.50026406 0 1 0 82.707031 58.636719 C 82.655321 58.33479 82.623721 57.993926 82.537109 57.626953 A 0.50005 0.50005 0 0 0 82.025391 57.234375 z M 32.990234 57.365234 A 0.50005 0.50005 0 0 0 32.90625 58.351562 C 33.205435 58.423113 33.533036 58.527266 33.900391 58.59375 A 0.50014586 0.50014586 0 1 0 34.078125 57.609375 C 33.793479 57.557855 33.483487 57.461362 33.138672 57.378906 A 0.50005 0.50005 0 0 0 32.990234 57.365234 z M 82.478516 61.181641 A 0.50005 0.50005 0 0 0 81.988281 61.736328 C 82.013371 61.995825 81.978777 62.30586 81.966797 62.666016 A 0.50005 0.50005 0 1 0 82.964844 62.699219 C 82.974874 62.397375 83.021332 62.043128 82.982422 61.640625 A 0.50005 0.50005 0 0 0 82.478516 61.181641 z M 82.158203 65.138672 A 0.50005 0.50005 0 0 0 81.660156 65.585938 C 81.624516 65.887535 81.564116 66.184903 81.478516 66.478516 A 0.50005 0.50005 0 1 0 82.4375 66.757812 C 82.537901 66.413426 82.61194 66.061527 82.654297 65.703125 A 0.50005 0.50005 0 0 0 82.158203 65.138672 z M 41.900391 65.503906 A 0.50005 0.50005 0 0 0 41.40625 66.099609 C 41.47277 66.46714 41.57697 66.793956 41.648438 67.09375 A 0.50005 0.50005 0 1 0 42.621094 66.861328 C 42.538564 66.515122 42.442109 66.206344 42.390625 65.921875 A 0.50005 0.50005 0 0 0 41.900391 65.503906 z M 81.087891 68.957031 A 0.50005 0.50005 0 0 0 80.603516 69.300781 C 80.499443 69.603363 80.388786 69.888897 80.251953 70.148438 A 0.50005 0.50005 0 1 0 81.136719 70.613281 C 81.309886 70.284822 81.438854 69.952371 81.550781 69.626953 A 0.50005 0.50005 0 0 0 81.087891 68.957031 z M 43.017578 69.306641 A 0.50005 0.50005 0 0 0 42.580078 69.980469 C 42.712305 70.348815 42.886341 70.649799 43.009766 70.921875 A 0.50084703 0.50084703 0 0 0 43.921875 70.507812 C 43.7713 70.175888 43.613257 69.898232 43.521484 69.642578 A 0.50005 0.50005 0 0 0 43.017578 69.306641 z M 79.287109 72.496094 A 0.50005 0.50005 0 0 0 78.845703 72.751953 C 78.687384 73.025674 78.52186 73.284114 78.335938 73.515625 A 0.50005 0.50005 0 1 0 79.115234 74.140625 C 79.34531 73.854136 79.537256 73.554186 79.710938 73.253906 A 0.50005 0.50005 0 0 0 79.287109 72.496094 z M 44.878906 72.8125 A 0.50005 0.50005 0 0 0 44.486328 73.578125 C 44.687023 73.908338 44.91569 74.170067 45.089844 74.414062 A 0.50005 0.50005 0 1 0 45.902344 73.833984 C 45.692497 73.539981 45.485102 73.294381 45.341797 73.058594 A 0.50005 0.50005 0 0 0 44.929688 72.8125 A 0.50005 0.50005 0 0 0 44.878906 72.8125 z M 76.830078 75.623047 A 0.50005 0.50005 0 0 0 76.449219 75.802734 C 76.250866 76.035223 76.036614 76.252126 75.804688 76.449219 A 0.50005 0.50005 0 1 0 76.451172 77.210938 C 76.725244 76.97803 76.979291 76.724637 77.210938 76.453125 A 0.50005 0.50005 0 0 0 76.830078 75.623047 z M 47.425781 75.896484 A 0.50005 0.50005 0 0 0 47.056641 76.746094 C 47.313577 77.016553 47.580297 77.232936 47.804688 77.443359 A 0.50005 0.50005 0 1 0 48.488281 76.714844 C 48.230671 76.473267 47.980313 76.268134 47.78125 76.058594 A 0.50005 0.50005 0 0 0 47.425781 75.896484 z M 73.822266 78.220703 A 0.50005 0.50005 0 0 0 73.515625 78.335938 C 73.284114 78.521861 73.025674 78.687384 72.751953 78.845703 A 0.50014708 0.50014708 0 1 0 73.253906 79.710938 C 73.554186 79.537256 73.854136 79.34531 74.140625 79.115234 A 0.50005 0.50005 0 0 0 73.822266 78.220703 z M 50.46875 78.443359 A 0.50005 0.50005 0 0 0 50.1875 79.361328 C 50.48552 79.563634 50.781327 79.727938 51.048828 79.894531 A 0.50049744 0.50049744 0 0 0 51.578125 79.044922 C 51.283626 78.861515 50.99998 78.702897 50.75 78.533203 A 0.50005 0.50005 0 0 0 50.46875 78.443359 z M 70.373047 80.191406 A 0.50005 0.50005 0 0 0 70.148438 80.251953 C 69.888897 80.388786 69.605316 80.499443 69.302734 80.603516 A 0.50060687 0.50060687 0 1 0 69.626953 81.550781 C 69.952371 81.438854 70.286775 81.309886 70.615234 81.136719 A 0.50005 0.50005 0 0 0 70.373047 80.191406 z M 53.951172 80.353516 A 0.50005 0.50005 0 0 0 53.757812 81.316406 C 54.087333 81.454696 54.410473 81.559948 54.707031 81.671875 A 0.50005 0.50005 0 1 0 55.058594 80.736328 C 54.735152 80.614255 54.425012 80.512241 54.144531 80.394531 A 0.50005 0.50005 0 0 0 53.951172 80.353516 z M 66.611328 81.457031 A 0.50005 0.50005 0 0 0 66.478516 81.478516 C 66.184903 81.564116 65.887535 81.626466 65.585938 81.662109 A 0.50005 0.50005 0 1 0 65.703125 82.654297 C 66.061527 82.611937 66.413426 82.539854 66.757812 82.439453 A 0.50005 0.50005 0 0 0 66.611328 81.457031 z M 57.707031 81.550781 A 0.50005 0.50005 0 0 0 57.626953 82.537109 C 57.994151 82.623779 58.336199 82.655408 58.636719 82.707031 A 0.50026406 0.50026406 0 1 0 58.804688 81.720703 C 58.453207 81.660323 58.132271 81.629783 57.855469 81.564453 A 0.50005 0.50005 0 0 0 57.707031 81.550781 z M 62.662109 81.964844 C 62.303973 81.977824 61.996818 82.011518 61.736328 81.986328 A 0.50034046 0.50034046 0 1 0 61.640625 82.982422 C 62.042135 83.021242 62.395356 82.975824 62.699219 82.964844 A 0.50034417 0.50034417 0 1 0 62.662109 81.964844 z"/></svg>