<?xml version="1.0"?><svg xmlns="http://www.w3.org/2000/svg" viewBox="0 0 100 100">    <path d="M 27.109375 15.919922 C 24.630035 15.811682 22.321609 17.456078 21.693359 19.955078 L 16.224609 41.708984 C 10.811204 43.64519 6.921875 48.811932 6.921875 54.882812 C 6.921875 62.602812 13.201875 68.882812 20.921875 68.882812 C 26.420385 68.882812 31.174126 65.689203 33.462891 61.066406 L 35.644531 61.615234 C 32.181788 64.166286 29.921875 68.261339 29.921875 72.882812 C 29.921875 80.602812 36.201875 86.882812 43.921875 86.882812 C 51.641875 86.882812 57.921875 80.602812 57.921875 72.882812 C 57.921875 70.729261 57.417241 68.695466 56.544922 66.871094 L 80.568359 72.912109 C 81.000359 73.020109 81.436094 73.074219 81.871094 73.074219 C 82.825094 73.074219 83.767328 72.815547 84.611328 72.310547 C 85.839328 71.576547 86.706734 70.41025 87.052734 69.03125 L 94.773438 38.332031 C 95.490437 35.474031 93.749578 32.564703 90.892578 31.845703 L 28.177734 16.076172 C 27.820984 15.986547 27.463566 15.935385 27.109375 15.919922 z M 27.023438 17.917969 C 27.244859 17.927559 27.468531 17.95975 27.691406 18.015625 L 90.404297 33.785156 C 91.266297 34.002156 91.995078 34.545453 92.455078 35.314453 C 92.916078 36.084453 93.049031 36.98275 92.832031 37.84375 L 85.113281 68.544922 C 84.896281 69.405922 84.352984 70.13275 83.583984 70.59375 C 82.814984 71.05375 81.918641 71.190656 81.056641 70.972656 L 55.058594 64.435547 C 52.499449 61.069777 48.466922 58.882812 43.921875 58.882812 C 41.840972 58.882812 39.870618 59.350202 38.09375 60.167969 L 34.232422 59.197266 C 34.674635 57.836561 34.921875 56.389112 34.921875 54.882812 C 34.921875 54.845239 34.916313 54.808989 34.916016 54.771484 L 77.341797 65.439453 C 77.382797 65.449453 77.424844 65.455078 77.464844 65.455078 C 77.689844 65.455078 77.892219 65.303172 77.949219 65.076172 C 78.216219 64.015172 78.848469 63.118875 79.730469 62.546875 C 80.601469 61.982875 81.614172 61.802875 82.576172 62.046875 C 82.703172 62.076875 82.841078 62.058234 82.955078 61.990234 C 83.068078 61.923234 83.149594 61.812594 83.183594 61.683594 L 87.888672 42.974609 C 87.920672 42.845609 87.899078 42.709703 87.830078 42.595703 C 87.763078 42.482703 87.652437 42.401187 87.523438 42.367188 C 85.518438 41.863188 84.332906 39.683766 84.878906 37.509766 C 84.944906 37.240766 84.782625 36.969344 84.515625 36.902344 L 79.744141 35.703125 C 79.471141 35.638125 79.206672 35.799406 79.138672 36.066406 C 79.072672 36.334406 79.234953 36.606828 79.501953 36.673828 L 83.810547 37.755859 C 83.442547 40.121859 84.700734 42.402453 86.802734 43.189453 L 82.326172 60.980469 C 81.246172 60.834469 80.147547 61.083031 79.185547 61.707031 C 78.227547 62.328031 77.505094 63.256516 77.121094 64.353516 L 34.861328 53.726562 C 34.33108 47.285298 29.427749 42.079758 23.130859 41.074219 L 26.416016 28.003906 C 28.630016 28.298906 30.823141 26.890812 31.619141 24.632812 L 70.609375 34.4375 C 70.878375 34.5015 71.148797 34.340219 71.216797 34.074219 C 71.282797 33.806219 71.120516 33.533797 70.853516 33.466797 L 31.400391 23.546875 C 31.130391 23.481875 30.860922 23.644156 30.794922 23.910156 C 30.245922 26.084156 28.165969 27.446453 26.167969 26.939453 C 25.896969 26.875453 25.627547 27.035734 25.560547 27.302734 L 22.130859 40.943359 C 21.73108 40.908899 21.330438 40.882812 20.921875 40.882812 C 20.072259 40.882812 19.24383 40.969561 18.435547 41.115234 L 23.632812 20.443359 C 24.027438 18.877984 25.473484 17.85084 27.023438 17.917969 z M 72.431641 33.90625 C 72.238375 33.936625 72.075641 34.077094 72.025391 34.277344 C 71.958391 34.544344 72.120672 34.817766 72.388672 34.884766 L 73.277344 35.107422 C 73.318344 35.117422 73.360391 35.123047 73.400391 35.123047 C 73.624391 35.123047 73.827766 34.971141 73.884766 34.744141 C 73.951766 34.477141 73.789484 34.205672 73.521484 34.138672 L 72.632812 33.914062 C 72.564813 33.897813 72.496063 33.896125 72.431641 33.90625 z M 54.314453 35.892578 C 50.136547 35.711152 46.254063 38.477875 45.195312 42.6875 C 43.986312 47.4995 46.914563 52.399375 51.726562 53.609375 C 52.459562 53.792375 53.195922 53.880859 53.919922 53.880859 C 57.946922 53.880859 61.622437 51.154172 62.648438 47.076172 C 63.234438 44.745172 62.876578 42.325672 61.642578 40.263672 C 60.409578 38.201672 58.446234 36.74225 56.115234 36.15625 C 55.513734 36.005625 54.911297 35.918496 54.314453 35.892578 z M 53.921875 36.882812 C 54.565875 36.882813 55.220094 36.962953 55.871094 37.126953 C 57.943094 37.646953 59.687203 38.941391 60.783203 40.775391 C 61.880203 42.608391 62.198734 44.760031 61.677734 46.832031 C 60.602734 51.110031 56.245703 53.716672 51.970703 52.638672 C 47.692703 51.563672 45.088062 47.207641 46.164062 42.931641 C 47.075062 39.306641 50.342875 36.882812 53.921875 36.882812 z M 38.572266 36.884766 C 36.945203 36.813207 35.438594 37.892172 35.027344 39.529297 C 34.800344 40.435297 34.938969 41.375734 35.417969 42.177734 C 35.896969 42.980734 36.660406 43.547391 37.566406 43.775391 C 37.852406 43.846391 38.140875 43.880859 38.421875 43.880859 C 39.987875 43.880859 41.415453 42.821328 41.814453 41.236328 C 42.284453 39.365328 41.144438 37.460281 39.273438 36.988281 C 39.038938 36.929406 38.804703 36.894988 38.572266 36.884766 z M 38.421875 37.882812 C 38.622875 37.882812 38.82825 37.906937 39.03125 37.960938 C 40.36625 38.296938 41.181703 39.655187 40.845703 40.992188 C 40.683703 41.639187 40.276125 42.184344 39.703125 42.527344 C 39.129125 42.870344 38.456547 42.970641 37.810547 42.806641 C 37.163547 42.644641 36.618391 42.238016 36.275391 41.666016 C 35.933391 41.092016 35.835047 40.420437 35.998047 39.773438 C 36.282047 38.640437 37.302875 37.882812 38.421875 37.882812 z M 20.921875 42.882812 C 27.538875 42.882812 32.921875 48.265813 32.921875 54.882812 C 32.921875 61.499812 27.538875 66.882812 20.921875 66.882812 C 14.304875 66.882813 8.921875 61.499812 8.921875 54.882812 C 8.921875 48.265813 14.304875 42.882812 20.921875 42.882812 z M 70.572266 44.884766 C 68.945682 44.813207 67.438594 45.892172 67.027344 47.529297 C 66.556344 49.400297 67.695406 51.303391 69.566406 51.775391 C 69.852406 51.846391 70.140875 51.880859 70.421875 51.880859 C 71.987875 51.880859 73.415453 50.821328 73.814453 49.236328 C 74.284453 47.365328 73.144437 45.460281 71.273438 44.988281 C 71.039062 44.929406 70.804635 44.894988 70.572266 44.884766 z M 20.921875 45.882812 C 15.958875 45.882813 11.921875 49.919812 11.921875 54.882812 C 11.921875 59.845812 15.958875 63.882812 20.921875 63.882812 C 25.884875 63.882812 29.921875 59.845813 29.921875 54.882812 C 29.921875 49.919813 25.884875 45.882812 20.921875 45.882812 z M 70.421875 45.882812 C 70.622875 45.882812 70.82825 45.905984 71.03125 45.958984 C 72.36625 46.294984 73.181703 47.655187 72.845703 48.992188 C 72.683703 49.639187 72.276125 50.184344 71.703125 50.527344 C 71.130125 50.869344 70.457547 50.969687 69.810547 50.804688 C 68.474547 50.468688 67.661047 49.109437 67.998047 47.773438 C 68.282047 46.640437 69.302875 45.882812 70.421875 45.882812 z M 20.921875 46.882812 C 25.332875 46.882812 28.921875 50.471812 28.921875 54.882812 C 28.921875 59.293813 25.332875 62.882812 20.921875 62.882812 C 16.510875 62.882812 12.921875 59.293813 12.921875 54.882812 C 12.921875 50.471812 16.510875 46.882812 20.921875 46.882812 z M 43.921875 60.882812 C 50.538875 60.882812 55.921875 66.265812 55.921875 72.882812 C 55.921875 79.499813 50.538875 84.882812 43.921875 84.882812 C 37.304875 84.882812 31.921875 79.499813 31.921875 72.882812 C 31.921875 66.265812 37.304875 60.882812 43.921875 60.882812 z M 43.921875 63.882812 C 38.958875 63.882812 34.921875 67.919813 34.921875 72.882812 C 34.921875 77.845812 38.958875 81.882812 43.921875 81.882812 C 48.884875 81.882812 52.921875 77.845812 52.921875 72.882812 C 52.921875 67.919813 48.884875 63.882812 43.921875 63.882812 z M 43.921875 64.882812 C 48.332875 64.882812 51.921875 68.471812 51.921875 72.882812 C 51.921875 77.293813 48.332875 80.882812 43.921875 80.882812 C 39.510875 80.882812 35.921875 77.293813 35.921875 72.882812 C 35.921875 68.471812 39.510875 64.882812 43.921875 64.882812 z"/></svg>