<svg xmlns="http://www.w3.org/2000/svg" viewBox="0 0 26 26"><path d="M 0.59375 0 C 0.292969 0 0 0.292969 0 0.59375 L 0 5 L 8 5 L 8 0.59375 C 8 0.292969 7.707031 0 7.40625 0 Z M 18.6875 0 C 18.289063 0 18 0.292969 18 0.59375 L 18 5 L 26 5 L 26 0.59375 C 26 0.292969 25.707031 0 25.40625 0 Z M 0 6 L 0 21 L 8 21 L 8 6 Z M 18 6 L 18 22 L 26 22 L 26 6 Z M 3 8 L 5 8 L 5 19 L 3 19 Z M 21 8 L 23 8 L 23 20 L 21 20 Z M 10 10 L 10 12 L 16 12 L 16 10 Z M 10 14 L 10 16 L 16 16 L 16 14 Z M 0 22 L 0 25.40625 C 0 25.707031 0.292969 26 0.59375 26 L 7.3125 26 C 7.710938 26 8 25.707031 8 25.40625 L 8 22 Z M 18 23 L 18 25.40625 C 18 25.804688 18.292969 26 18.59375 26 L 25.3125 26 C 25.710938 26 25.90625 25.707031 25.90625 25.40625 L 25.90625 23 Z"/></svg>