<svg xmlns="http://www.w3.org/2000/svg" viewBox="0 0 64 64"><linearGradient id="BaEKpmqwySdrAMKm59CTpa" x1="32" x2="32" y1="11.328" y2="53.39" gradientUnits="userSpaceOnUse" spreadMethod="reflect"><stop offset="0" stop-color="#1a6dff"/><stop offset="1" stop-color="#c822ff"/></linearGradient><path fill="url(#BaEKpmqwySdrAMKm59CTpa)" d="M8,11h7v2H8c-1.654,0-3,1.346-3,3v32c0,1.654,1.346,3,3,3h7v2H8c-2.757,0-5-2.243-5-5V16 C3,13.243,5.243,11,8,11z M56,11h-7v2h7c1.654,0,3,1.346,3,3v32c0,1.654-1.346,3-3,3h-7v2h7c2.757,0,5-2.243,5-5V16 C61,13.243,58.757,11,56,11z"/><linearGradient id="BaEKpmqwySdrAMKm59CTpb" x1="32" x2="32" y1="23.042" y2="24.993" gradientUnits="userSpaceOnUse" spreadMethod="reflect"><stop offset="0" stop-color="#6dc7ff"/><stop offset="1" stop-color="#e6abff"/></linearGradient><path fill="url(#BaEKpmqwySdrAMKm59CTpb)" d="M14 23H50V25H14z"/><linearGradient id="BaEKpmqwySdrAMKm59CTpc" x1="28" x2="28" y1="31.042" y2="32.993" gradientUnits="userSpaceOnUse" spreadMethod="reflect"><stop offset="0" stop-color="#6dc7ff"/><stop offset="1" stop-color="#e6abff"/></linearGradient><path fill="url(#BaEKpmqwySdrAMKm59CTpc)" d="M14 31H42V33H14z"/><linearGradient id="BaEKpmqwySdrAMKm59CTpd" x1="32" x2="32" y1="39.042" y2="40.993" gradientUnits="userSpaceOnUse" spreadMethod="reflect"><stop offset="0" stop-color="#6dc7ff"/><stop offset="1" stop-color="#e6abff"/></linearGradient><path fill="url(#BaEKpmqwySdrAMKm59CTpd)" d="M14 39H50V41H14z"/></svg>