<svg xmlns="http://www.w3.org/2000/svg" viewBox="0 0 24 24"><path d="M 22 8.601563 C 22 3.101563 18.199219 0 12.398438 0 C 6.601563 0 4 3.101563 4 7.5 C 4 8.199219 4.398438 8.398438 4.101563 9.101563 C 3.398438 10.300781 2.601563 12.199219 2.300781 12.800781 C 2 13.5 2.5 13.898438 3 14 C 3.601563 14.199219 3.800781 14.300781 4.300781 14.398438 C 4.398438 15.800781 3.699219 16.601563 4.699219 16.898438 C 4.300781 17.800781 5.101563 17.898438 5.5 18.5 C 5.898438 19.101563 5.601563 20.601563 6.199219 21.199219 C 7.398438 22.300781 9.898438 21.300781 9.898438 23.5 L 9.898438 24 L 19.199219 24 C 19.199219 20.898438 19.101563 18.199219 19.601563 16.300781 C 20.199219 14.5 22 12.101563 22 8.601563 Z M 14 18 L 12 18 L 12 16 L 14 16 Z M 14 14.300781 L 12 14.300781 C 12 12.800781 12.601563 11.800781 13.300781 10.898438 C 13.898438 10.199219 14.398438 9.601563 14.699219 9.199219 C 15 8.800781 15.101563 8.300781 15.101563 7.699219 C 15.101563 7 14.898438 6.5 14.601563 6.101563 C 14.199219 5.699219 13.699219 5.5 13 5.5 C 12.398438 5.5 11.898438 5.699219 11.5 6 C 11.101563 6.300781 10.898438 6.800781 10.898438 7.398438 L 9 7.398438 L 9 7.300781 C 9 6.300781 9.300781 5.398438 10.101563 4.800781 C 10.898438 4.300781 11.800781 4 13 4 C 14.300781 4 15.300781 4.300781 16 5 C 16.601563 5.601563 17 6.5 17 7.699219 C 17 10.800781 14 11.800781 14 14.300781 Z"/></svg>