<svg xmlns="http://www.w3.org/2000/svg" viewBox="0 0 24 24"><path d="M 22.5 0.09375 L 18.15625 4.4375 L 16.40625 2.6875 C 15.507813 1.789063 14.210938 1.789063 13.3125 2.6875 L 9.90625 6.09375 L 8.90625 5.09375 L 7.5 6.5 L 17.5 16.5 L 18.90625 15.09375 L 17.90625 14.09375 L 21.3125 10.6875 C 22.210938 9.789063 22.210938 8.492188 21.3125 7.59375 L 19.5625 5.84375 L 23.90625 1.5 Z M 6.5 7.5 L 5.09375 8.90625 L 6.09375 9.90625 L 2.6875 13.3125 C 1.789063 14.210938 1.789063 15.507813 2.6875 16.40625 L 4.4375 18.15625 L 0.09375 22.5 L 1.5 23.90625 L 5.84375 19.5625 L 7.59375 21.3125 C 8.492188 22.210938 9.789063 22.210938 10.6875 21.3125 L 14.09375 17.90625 L 15.09375 18.90625 L 16.5 17.5 Z"/></svg>