<svg xmlns="http://www.w3.org/2000/svg" viewBox="0 0 26 26"><path d="M 4.875 0 C 2.183594 0 0 2.183594 0 4.875 L 0 21.125 C 0 23.816406 2.183594 26 4.875 26 L 21.125 26 C 23.816406 26 26 23.816406 26 21.125 L 26 4.875 C 26 2.183594 23.816406 0 21.125 0 Z M 4.875 3 L 21.125 3 C 22.160156 3 23 3.839844 23 4.875 L 23 21.125 C 23 22.160156 22.160156 23 21.125 23 L 4.875 23 C 3.839844 23 3 22.160156 3 21.125 L 3 4.875 C 3 3.839844 3.839844 3 4.875 3 Z M 9.78125 5.96875 C 8.75 6.082031 7.976563 6.964844 8 8 L 8 18 C 7.988281 18.722656 8.367188 19.390625 8.992188 19.753906 C 9.613281 20.121094 10.386719 20.121094 11.007813 19.753906 C 11.632813 19.390625 12.011719 18.722656 12 18 L 12 8 C 12.007813 7.457031 11.796875 6.9375 11.414063 6.554688 C 11.03125 6.171875 10.511719 5.960938 9.96875 5.96875 C 9.90625 5.964844 9.84375 5.964844 9.78125 5.96875 Z M 15.78125 5.96875 C 14.75 6.082031 13.976563 6.964844 14 8 L 14 18 C 13.988281 18.722656 14.367188 19.390625 14.992188 19.753906 C 15.613281 20.121094 16.386719 20.121094 17.007813 19.753906 C 17.632813 19.390625 18.011719 18.722656 18 18 L 18 8 C 18.007813 7.457031 17.796875 6.9375 17.414063 6.554688 C 17.03125 6.171875 16.511719 5.960938 15.96875 5.96875 C 15.90625 5.964844 15.84375 5.964844 15.78125 5.96875 Z"/></svg>