<svg xmlns="http://www.w3.org/2000/svg" viewBox="0 0 40 40"><path fill="#f78f8f" d="M0.5 6.5H39.5V33.5H0.5z"/><path fill="#c74343" d="M39.001,7v26h-38V7H39.001 M40.001,6h-40v28h40V6L40.001,6z"/><path fill="#fff" d="M12 9H39V11H12zM12 14H39V16H12zM1 24H39V26H1zM1.003 19H39.003V21H1.003zM1.003 29H39.003V31H1.003z"/><path fill="#8bb7f0" d="M0.5 6.5H12.5V18.5H0.5z"/><path fill="#4e7ab5" d="M12,7v11H1V7H12 M13,6H0v13h13V6L13,6z"/><g><path fill="#fff" d="M6.5 9.24L7.386 12 10.25 12 7.933 13.566 8.817 16.24 6.5 14.586 4.183 16.24 5.067 13.566 2.75 12 5.614 12z"/></g></svg>