<svg xmlns="http://www.w3.org/2000/svg" viewBox="0 0 24 24"><path d="M 12 0 C 7.128906 0 3 3.484375 3 8 C 3 10.765625 4.25 12.359375 5.28125 13.46875 C 6.3125 14.578125 7 15.136719 7 16.6875 C 7 16.992188 7.136719 17.277344 7.375 17.46875 C 7.386719 17.46875 7.394531 17.46875 7.40625 17.46875 C 7.414063 17.488281 7.425781 17.511719 7.4375 17.53125 C 7.457031 17.542969 7.480469 17.554688 7.5 17.5625 C 7.511719 17.574219 7.519531 17.582031 7.53125 17.59375 C 7.691406 17.71875 7.894531 17.773438 8.09375 17.75 L 16.09375 16.75 C 16.191406 16.738281 16.289063 16.707031 16.375 16.65625 C 16.765625 16.496094 17.015625 16.109375 17 15.6875 C 17 15.160156 17.128906 14.910156 17.40625 14.5625 C 17.683594 14.214844 18.15625 13.835938 18.6875 13.34375 C 19.753906 12.359375 21 10.765625 21 8 C 21 3.484375 16.871094 0 12 0 Z M 12 2 C 15.929688 2 19 4.714844 19 8 C 19 10.234375 18.246094 11.011719 17.3125 11.875 C 16.84375 12.308594 16.316406 12.71875 15.84375 13.3125 C 15.425781 13.839844 15.101563 14.546875 15.03125 15.375 L 12.78125 15.625 C 12.894531 15.066406 13 14.261719 13 13 C 13 9.199219 10.511719 9.394531 11.8125 5.59375 C 11.511719 8.59375 13.6875 9.199219 13.6875 12.5 C 13.6875 12.5 15.90625 11.988281 15.90625 9.1875 C 16.007813 6.988281 12.507813 5.300781 12.40625 3.5 C 9.40625 5.199219 8 7.210938 8 9.8125 C 8 14.414063 12 12.199219 12 13.5 C 12 14.636719 11.78125 15.363281 11.53125 15.8125 L 8.96875 16.125 C 8.773438 14.21875 7.601563 13.074219 6.71875 12.125 C 5.75 11.082031 5 10.234375 5 8 C 5 4.714844 8.070313 2 12 2 Z M 15.90625 17.34375 L 7.90625 18.34375 C 7.492188 18.394531 7.199219 18.773438 7.25 19.1875 C 7.300781 19.601563 7.679688 19.894531 8.09375 19.84375 L 16.09375 18.84375 C 16.507813 18.792969 16.800781 18.414063 16.75 18 C 16.699219 17.585938 16.320313 17.292969 15.90625 17.34375 Z M 15.96875 19.4375 C 15.949219 19.445313 15.925781 19.457031 15.90625 19.46875 L 7.90625 20.46875 C 7.609375 20.457031 7.335938 20.625 7.207031 20.890625 C 7.074219 21.160156 7.117188 21.476563 7.308594 21.703125 C 7.5 21.929688 7.808594 22.023438 8.09375 21.9375 L 16.09375 20.9375 C 16.507813 20.902344 16.816406 20.539063 16.78125 20.125 C 16.746094 19.710938 16.382813 19.402344 15.96875 19.4375 Z M 14 22 L 10.09375 22.59375 C 10.195313 23.394531 11.199219 24 12 24 C 13.101563 24 14 23.101563 14 22 Z"/></svg>