<svg xmlns="http://www.w3.org/2000/svg" width="512" height="512" viewBox="0 0 512 512"><path fill="#74CCCF" d="M116.2,211.6c-1.2-6.2-6-12.7-13.2-9.9c-7.2,2.7-12.4,10.2-16.3,16.6c-4.2,6.9-7.4,14.3-11.5,21.2c-5.7,9.5-13.4,19-15.7,30c13.2-0.3,26.3,1.5,39.5,1.8c3.5,0.1,9.2,0.9,12.3-1.5c1.7-1.3,2.1-4.2,2.5-6.2c1.5-8.4,2.2-16.8,2.8-25.3C117.1,229.5,117.9,220.3,116.2,211.6z"/><path fill="#EF4823" d="M139.9,177.2c-0.7,0-1.4-0.1-2-0.3c-16-0.9-32.3-3.4-48.1-0.6c-14.7,2.6-22.5,14.9-28.4,27.5c-4.4,9.4-8,19.1-12.4,28.5c-5.5,11.8-11.8,23.2-16.5,35.3c-6.2,16-9,33-10.8,50.1c25.7,4.8,24.1,49.4-0.7,54.4c-0.4,0.1-0.8,0.1-1.1,0.1c2.1,9.4,7.2,17.1,18.1,19.9c16.8,4.3,33.9,0.4,50.9,0.3c0.9-0.9,2-1.6,3.3-1.6c0-0.8,0-1.6,0-2.3c-0.3-0.6-0.6-1.2-0.7-2c-4.4-25.5,25.6-43.3,48.3-47.6c-2.5-2.7-1.8-7.5,1.2-9V177.2H139.9z M126.8,246.5c-0.6,8.3-0.8,17.8-4.2,25.6c-3.7,8.6-12.4,10.2-20.9,10.1c-15.9-0.3-31.7-2.8-47.6-1.5c-4.7,0.4-6.7-4.4-5.3-7.8c-0.5-0.9-0.7-2-0.5-3.3c1.5-11.1,7.9-20.5,13.7-29.8c9.5-15.1,15.9-36.1,31.9-45.8c8.3-5,16.9-4.9,24.9,0.5c7.1,4.9,8.8,14.9,9.2,22.9C128.5,227.2,127.4,236.9,126.8,246.5z"/><path fill="#74CCCF" d="M20.6,328.9c-0.4,4.2-0.7,8.4-1.1,12.6c-0.5,6.2-1.2,13.3-0.9,20.2c0.5-0.2,1-0.4,1.5-0.5c6.7-1.3,9.1-11.1,9-16.8C29.1,338.2,27.2,330.8,20.6,328.9z"/><path fill="none" d="M20.6,328.9c-0.4,4.2-0.7,8.4-1.1,12.6c-0.5,6.2-1.2,13.3-0.9,20.2c0.5-0.2,1-0.4,1.5-0.5c6.7-1.3,9.1-11.1,9-16.8C29.1,338.2,27.2,330.8,20.6,328.9z"/><path fill="none" d="M139.9,177.2c-0.7,0-1.4-0.1-2-0.3c-16-0.9-32.3-3.4-48.1-0.6c-14.7,2.6-22.5,14.9-28.4,27.5c-4.4,9.4-8,19.1-12.4,28.5c-5.5,11.8-11.8,23.2-16.5,35.3c-6.2,16-9,33-10.8,50.1c25.7,4.8,24.1,49.4-0.7,54.4c-0.4,0.1-0.8,0.1-1.1,0.1c2.1,9.4,7.2,17.1,18.1,19.9c16.8,4.3,33.9,0.4,50.9,0.3c0.9-0.9,2-1.6,3.3-1.6c0-0.8,0-1.6,0-2.3c-0.3-0.6-0.6-1.2-0.7-2c-4.4-25.5,25.6-43.3,48.3-47.6c-2.5-2.7-1.8-7.5,1.2-9V177.2H139.9z"/><path fill="#74CCCF" d="M215,220.5c-1.4,18.7-10.1,37-16.9,54c-8.8,21.9-19.2,43.3-27.2,65.6c1.8,0.4,3.7,0.9,5.5,1.4c0.7-1.5,2.2-2.6,4.3-2.7c0.8,0,1.7-0.1,2.5-0.1c0-1.3,0.4-2.6,1.2-3.7c0.2-0.3,0.3-0.6,0.5-0.9c0.6-1.2,1.2-2.4,1.8-3.6c1.9-3.9,3.7-7.9,5.4-11.8c5.2-11.7,10.2-23.4,15.1-35.2c5.1-12.2,10.1-24.5,15-36.8c1.8-4.6,3.6-9.2,5.3-13.8c0.3-0.9,0.6-1.7,1-2.6c0.1-0.2,0.5-1.6,0.6-1.7c0.1-0.4,0.3-0.9,0.4-1.3C224.6,225,219.8,222.8,215,220.5z"/><path fill="#127274" d="M210.9,391.4c-0.5-9.5-5-18.1-11.9-24.6c-8.8-8.3-20.6-14.4-33-16.9c-2.6,1.7-6.2,1.5-7.7-1.1c-6.2-0.5-12.3-0.1-18.2,1.4c-13.4,3.4-34.2,12.8-37.4,28c1,1.1,1.6,2.7,1.3,4.6c-2.4,14,1,28.3,11.3,38.4c10,9.7,23.4,15,37.2,16c16.2,1.2,33.6-4,44.7-16.3C204.6,412.8,211.4,402.9,210.9,391.4z M176.2,404.2c-12.7,14.3-47.6,12.4-44.6-12.2c0,0,0,0,0-0.1c-0.4-2.4,0.5-4.8,3.6-5.6c5.2-1.3,8.5-7,13.2-9.5c5.7-3.1,14.5-4.5,20.9-2.8C182.8,377.7,184.9,394.5,176.2,404.2z"/><path fill="#74CCCF" d="M169.7 386.5c-2-2.9-6.9-2.2-9.9-1.8-4.9.7-8 2.7-11.5 6-1.8 1.7-3.7 3.3-5.8 4.5.2 4.6 5.3 6.6 9.5 7.1 5.9.7 12.9-1.1 16.6-6.1C170.3 393.7 171.6 389.3 169.7 386.5zM184.6 334.7c1.4-1.8 3.8-2.8 6.5-1.4C187.9 331.7 185.7 333.2 184.6 334.7z"/><path fill="#EF4823" d="M313.5 350.9c-14.9-.3-29.8-.9-44.7-1.3-24.9-.8-49.8-1.3-74.6-.4 10.7 6.3 19.6 15.3 24.3 26.9 0 .1 0 .1.1.2 16.8 0 33.5-.4 50.3-.8 9.1-.2 18.1-.4 27.2-.5 4.5-.1 9-.1 13.5-.1 1.8 0 3.7 0 5.5 0 .1-.1.1-.1.2-.2 2.4-9.4 9.6-17.4 18.4-23.4C327 351.1 320.3 351 313.5 350.9zM476 369.9c0-.8-.1-1.7-.1-2.5-.1-2-.2-4.1-.4-6.1-.3-3.2-.6-6.6-1.7-9.6-2.1-5.8-8.8-5-14-4.7-14.1.9-28.3 1.7-42.5 2.2 10.6 6.3 19.4 15.2 24.2 26.5.8-.6 1.8-1 3.1-1 9.4 0 20.2 1.5 29.7-.6.3-1.1 1-2.1 2.1-3C475.3 372.1 476 371.3 476 369.9z"/><path fill="#127274" d="M434,391.4c-0.5-9.5-5-18.1-11.9-24.6c-14.9-14.1-38.7-21.8-58.9-16.6c-13.4,3.4-34.2,12.8-37.4,28c1,1.1,1.6,2.7,1.3,4.6c-2.4,14,1,28.3,11.3,38.4c10,9.7,23.4,15,37.2,16c16.2,1.2,33.6-4,44.7-16.3C427.8,412.8,434.6,402.9,434,391.4z M399.4,404.2c-12.7,14.3-47.6,12.4-44.6-12.2c0,0,0,0,0-0.1c-0.4-2.4,0.5-4.8,3.6-5.6c5.2-1.3,8.5-7,13.2-9.5c5.7-3.1,14.5-4.5,20.9-2.8C406,377.7,408.1,394.5,399.4,404.2z"/><path fill="#FEBF10" d="M477.2,278.6c-1.4-5.5-4.2-10.1-7.6-14.6c-7-9-15.5-16.7-22.9-25.5c-7.5-9-13.4-19-15.1-30.6c-1.9-12.4-0.6-25.4-3.7-37.5c-7-27.1-33.3-42.8-56.4-55.2c-26.4-14.2-52-29.8-78.3-44c-1.7,1.6-3.3,3.6-4.6,5.1c-3.8,4.5-7.3,9.1-10.8,13.7c-8.3,10.9-18.5,20-27.7,30c-11.7,12.8-21.5,26.8-31.7,40.8c-5,6.9-10.1,13.9-15.4,20.7c-2.7,3.5-5.4,6.8-8.4,10c-1.1,1.1-2.2,2.3-3.1,3.5c21.4,13.8,45.2,23.2,68.6,33.2c23.6,10,45.9,21.3,67.3,35.6c21.1,14.2,41.5,29.8,64.2,41.3c22.4,11.4,47.4,16,70.2,26.4c0,0,0.1,0,0.1,0c1.4-1.5,3.6-2,5.6-1.5c4.9-9.6,8.6-19.8,10.1-30.5C478.6,292.7,478.9,285.4,477.2,278.6z"/><path fill="#74CCCF" d="M392.9,386.5c-2-2.9-6.9-2.2-9.9-1.8c-4.9,0.7-8,2.7-11.5,6c-1.8,1.7-3.7,3.3-5.8,4.5c0.2,4.6,5.3,6.6,9.5,7.1c5.9,0.7,12.9-1.1,16.6-6.1C393.5,393.7,394.8,389.3,392.9,386.5z"/><path d="M169.4,374c-6.4-1.8-15.2-0.3-20.9,2.8c-4.7,2.5-8,8.2-13.2,9.5c-3,0.8-4,3.2-3.6,5.6c0,0,0,0,0,0.1c-3.1,24.6,31.9,26.5,44.6,12.2C184.9,394.5,182.8,377.7,169.4,374z M168.5,396.2c-3.6,5-10.6,6.8-16.6,6.1c-4.3-0.5-9.3-2.5-9.5-7.1c2.1-1.2,4-2.7,5.8-4.5c3.5-3.3,6.6-5.4,11.5-6c3-0.4,7.9-1.2,9.9,1.8C171.6,389.3,170.3,393.7,168.5,396.2z"/><path d="M485.7,354.3c-1.1-7.3-3.9-12.9-10-16.1c5.4-10,9.5-20.6,11.9-31.7c2.6-12,3.3-27.3-2.5-38.5c-10.4-20.2-32.4-32.3-40.7-53.8c-4.5-11.6-3-25.2-4.3-37.4c-1.5-13.4-6.7-25.3-15.3-35.7c-17.5-21.2-43.2-32.4-66.5-45.6c-19.3-11-38.4-22.3-57.9-32.8c-0.8-2.7-3.5-5-7-4.1c-4,1.1-7.2,4.4-10,7.2c-4.2,4.4-7.9,9.3-11.6,14.1c-8.8,11.4-18.9,21.2-28.7,31.6c-12.7,13.5-23.1,28.7-34,43.6c-5.4,7.4-10.9,14.8-16.5,22.1c-4.9,6.3-12.9,12-13.7,20.4c-0.4,4.3,3.4,6.7,6.6,6.4c6.1,4,12.4,7.6,18.9,11c0.3,19.6-9.9,39.4-17,57.1c-8.7,21.6-18.7,42.6-26.6,64.5c-0.7,0.4-1.3,0.9-1.8,1.5c-2.2-0.2-4.5-0.3-6.7-0.3c0,0,0-0.1,0-0.1V174.3c0-0.5-0.1-1-0.2-1.5c0.3-3-1.7-6.6-5.7-6.6c-13.3-0.1-26.6-1.8-39.9-2c-11.3-0.2-23.4,0.7-33.2,6.8c-17.2,10.6-24,33.5-31.5,51c-4.7,11.1-10.7,21.7-15.6,32.8c-5.7,12.9-10.1,26.3-12.4,40.2c-1.9,11.3-2.5,23-3.8,34.4c-1.3,11.8-2.4,23.8-1.8,35.7c0.5,9.5,2.6,19.4,8.9,26.7c6.1,7,14.6,10.6,23.5,12.2c17.7,3.3,35.6-1,53.3-0.4c2.1,9.2,6.7,17.8,13.7,25.1c11.7,12.2,29,18.4,45.6,19.4c17.1,1,34.7-4,47.8-15.4c13.3-11.6,22.6-28.3,20.7-45.6c16.8-0.1,33.5-0.4,50.3-0.8c9.1-0.2,18.1-0.4,27.2-0.5c4.5-0.1,9-0.1,13.5-0.1c0.7,0,1.5,0.1,2.4,0.1c0,0.3,0.1,0.5,0.1,0.8c0.1,0.8,0.4,1.4,0.7,2c-0.6,14.9,4.4,28.9,15.1,40.1c11.7,12.2,29,18.4,45.6,19.4c17.1,1,34.7-4,47.8-15.4c13.7-12,23.2-29.3,20.5-47.1c0.4,0.1,0.7,0.1,1.1,0.1c12.6,0.1,27.1,2.1,38.9-3.3c3.8-1.7,4.1-6.1,2.3-8.8C488.2,367.5,486.5,359.5,485.7,354.3z M191.5,195c0.9-1.2,2-2.3,3.1-3.5c3-3.2,5.7-6.5,8.4-10c5.3-6.8,10.3-13.7,15.4-20.7c10.2-14,20-28.1,31.7-40.8c9.2-10.1,19.4-19.2,27.7-30c3.6-4.6,7.1-9.3,10.8-13.7c1.3-1.5,2.9-3.6,4.6-5.1c26.4,14.2,52,29.8,78.3,44c23,12.4,49.4,28,56.4,55.2c3.1,12.1,1.8,25.2,3.7,37.5c1.8,11.7,7.6,21.7,15.1,30.6c7.3,8.8,15.9,16.4,22.9,25.5c3.5,4.5,6.3,9.1,7.6,14.6c1.7,6.8,1.4,14.1,0.5,21c-1.5,10.7-5.2,20.9-10.1,30.5c-2-0.5-4.2,0.1-5.6,1.5c0,0-0.1,0-0.1,0c-22.8-10.4-47.8-15-70.2-26.4c-22.7-11.6-43.1-27.2-64.2-41.3c-21.3-14.3-43.7-25.5-67.3-35.6C236.7,218.3,212.9,208.8,191.5,195z M445.7,336.8c-3.7,0.2-7.5,0.4-11.2,0.6c-15.1,0.8-30.2,1.3-45.3,1.4c-0.5,0-0.9,0-1.3,0.1c-6.4-1-12.9-1.2-19-0.6c-5.1,0.5-10.8,1.7-16.6,3.7c-1.2-3-4.6-5-7.7-2.3c-2,1.7-4.3,0.6-6.8,0.6c-3.2,0-6.4,0-9.6-0.1c-7.1-0.1-14.2-0.2-21.3-0.4c-14.3-0.4-28.5-0.9-42.8-1.3c-22.9-0.7-45.8-1.1-68.7-0.4c1.9-3.3,3.2-7.1,4.1-9.2c5.4-11.8,10.4-23.8,15.5-35.8c5.6-13.3,11.1-26.6,16.4-40c2.8-7.1,6-14.3,8.2-21.6c4.7,2,9.3,4,14,5.9c23.6,10,46.1,21.1,67.5,35.3c21.2,14.1,41.6,29.6,64.1,41.5C404.4,324.4,425.6,329.2,445.7,336.8z M198.1,274.5c6.8-16.9,15.5-35.3,16.9-54c4.8,2.3,9.6,4.5,14.4,6.6c-0.1,0.4-0.3,0.9-0.4,1.3c0,0.1-0.5,1.5-0.6,1.7c-0.3,0.9-0.6,1.8-1,2.6c-1.7,4.6-3.5,9.2-5.3,13.8c-4.9,12.3-9.9,24.6-15,36.8c-4.9,11.8-9.9,23.6-15.1,35.2c-1.8,4-3.5,7.9-5.4,11.8c-0.6,1.2-1.2,2.4-1.8,3.6c-0.2,0.3-0.3,0.6-0.5,0.9c-0.8,1.1-1.2,2.4-1.2,3.7c-0.8,0-1.7,0.1-2.5,0.1c-2.2,0.1-3.6,1.2-4.3,2.7c-1.8-0.5-3.6-1-5.5-1.4C178.9,317.8,189.3,296.4,198.1,274.5z M191.1,333.3c-2.7-1.3-5.1-0.4-6.5,1.4C185.7,333.2,187.9,331.7,191.1,333.3z M19.5,341.5c0.4-4.2,0.7-8.4,1.1-12.6c6.5,1.9,8.4,9.3,8.6,15.6c0.1,5.7-2.3,15.4-9,16.8c-0.6,0.1-1.1,0.3-1.5,0.5C18.4,354.8,19,347.7,19.5,341.5z M91.6,386.6c0.1,0.8,0.4,1.4,0.7,2c0,0.8,0,1.6,0,2.3c-1.3,0-2.4,0.6-3.3,1.6c-17,0.1-34.2,4-50.9-0.3c-11-2.8-16-10.6-18.1-19.9c0.3,0,0.7,0,1.1-0.1c24.8-4.9,26.4-49.6,0.7-54.4c1.8-17.1,4.6-34.1,10.8-50.1c4.7-12.2,11-23.5,16.5-35.3c4.4-9.4,7.9-19.2,12.4-28.5c6-12.6,13.8-24.8,28.4-27.5c15.8-2.8,32.1-0.4,48.1,0.6c0.6,0.2,1.2,0.3,2,0.3h1.2V330c-3,1.5-3.7,6.3-1.2,9C117.2,343.3,87.2,361.1,91.6,386.6z M197.3,420.9c-11.1,12.3-28.5,17.5-44.7,16.3c-13.8-1-27.2-6.4-37.2-16c-10.4-10.1-13.8-24.4-11.3-38.4c0.3-1.9-0.2-3.5-1.3-4.6c3.2-15.2,24-24.6,37.4-28c5.9-1.5,12-1.9,18.2-1.4c1.5,2.6,5.1,2.8,7.7,1.1c12.4,2.5,24.3,8.6,33,16.9c6.9,6.5,11.4,15.1,11.9,24.6C211.4,402.9,204.6,412.8,197.3,420.9z M315.3,374.6c-0.1,0.1-0.1,0.1-0.2,0.2c-1.8,0-3.7,0-5.5,0c-4.5,0-9,0.1-13.5,0.1c-9.1,0.1-18.1,0.3-27.2,0.5c-16.8,0.4-33.5,0.7-50.3,0.8c0-0.1,0-0.1-0.1-0.2c-4.8-11.6-13.6-20.6-24.3-26.9c24.9-0.9,49.8-0.3,74.6,0.4c14.9,0.4,29.8,1,44.7,1.3c6.7,0.2,13.5,0.3,20.2,0.3C324.9,357.2,317.7,365.2,315.3,374.6z M420.5,420.9c-11.1,12.3-28.5,17.5-44.7,16.3c-13.8-1-27.2-6.4-37.2-16c-10.4-10.1-13.8-24.4-11.3-38.4c0.3-1.9-0.2-3.5-1.3-4.6c3.2-15.2,24-24.6,37.4-28c20.2-5.1,44,2.5,58.9,16.6c6.9,6.5,11.4,15.1,11.9,24.6C434.6,402.9,427.8,412.8,420.5,420.9z M474.4,374.1c-9.5,2.1-20.3,0.6-29.7,0.6c-1.3,0-2.3,0.4-3.1,1c-4.8-11.4-13.6-20.3-24.2-26.5c14.2-0.5,28.3-1.3,42.5-2.2c5.2-0.3,11.9-1.1,14,4.7c1.1,3,1.3,6.4,1.7,9.6c0.2,2,0.3,4.1,0.4,6.1c0.1,0.8,0.1,1.7,0.1,2.5c0.1,1.4-0.7,2.2,0.5,1.3C475.4,372,474.7,373,474.4,374.1z"/><path d="M392.6 374c-6.4-1.8-15.2-.3-20.9 2.8-4.7 2.5-8 8.2-13.2 9.5-3 .8-4 3.2-3.6 5.6 0 0 0 0 0 .1-3.1 24.6 31.9 26.5 44.6 12.2C408.1 394.5 406 377.7 392.6 374zM391.7 396.2c-3.6 5-10.6 6.8-16.6 6.1-4.3-.5-9.3-2.5-9.5-7.1 2.1-1.2 4-2.7 5.8-4.5 3.5-3.3 6.6-5.4 11.5-6 3-.4 7.9-1.2 9.9 1.8C394.8 389.3 393.5 393.7 391.7 396.2zM128 217.5c-.4-8-2.1-18-9.2-22.9-8-5.5-16.7-5.6-24.9-.5-16 9.8-22.3 30.8-31.9 45.8-5.8 9.2-12.2 18.7-13.7 29.8-.2 1.3 0 2.4.5 3.3-1.3 3.4.6 8.1 5.3 7.8 15.9-1.3 31.7 1.2 47.6 1.5 8.5.2 17.2-1.5 20.9-10.1 3.4-7.8 3.6-17.3 4.2-25.6C127.4 236.9 128.5 227.2 128 217.5zM116.5 238.2c-.6 8.5-1.3 16.9-2.8 25.3-.4 2-.8 4.9-2.5 6.2-3.1 2.4-8.8 1.6-12.3 1.5-13.2-.3-26.3-2.1-39.5-1.8 2.3-11.1 10-20.5 15.7-30 4.1-6.9 7.3-14.3 11.5-21.2 3.9-6.3 9.1-13.8 16.3-16.6 7.2-2.7 12.1 3.7 13.2 9.9C117.9 220.3 117.1 229.5 116.5 238.2z"/></svg>