<svg xmlns="http://www.w3.org/2000/svg" width="512" height="512" viewBox="0 0 512 512"><path fill="#F6851F" d="M285,447.8c-0.8-13.3-15.3-22-27.7-22.3c-7.3-0.2-15.1,1.4-20,7.3c-5.4,6.6-7,14.9-6.4,23.2c0.1,1.2-0.1,2.3-0.5,3.2c0.2,0.3,0.4,0.5,0.6,0.8c6.7,10.7,19.9,17.9,32.7,14.7C275.7,471.8,285.8,461.1,285,447.8z"/><path d="M298.3,445.5c-1.3-20.9-23.6-32.3-42.1-33.3c-25.4-1.4-40.5,21.5-38.8,44.9c0.1,1.8,0.9,3.2,1.9,4.2c-0.9,1.8-1,4.1,0.5,6.3c10.5,16.5,29.4,23.9,48.3,19.9C287,483.4,299.4,464.3,298.3,445.5z M263.6,474.8c-12.8,3.2-26-4.1-32.7-14.7c-0.2-0.3-0.4-0.6-0.6-0.8c0.4-0.9,0.6-2,0.5-3.2c-0.6-8.3,1-16.6,6.4-23.2c4.9-5.9,12.8-7.4,20-7.3c12.4,0.3,26.9,9,27.7,22.3C285.8,461.1,275.7,471.8,263.6,474.8z"/><path fill="#F6851F" d="M280,359c-0.8-13.3-15.3-22-27.7-22.3c-7.3-0.2-15.1,1.4-20,7.3c-5.4,6.6-7,14.9-6.4,23.2c0.1,1.2-0.1,2.3-0.5,3.2c0.2,0.3,0.4,0.5,0.6,0.8c6.7,10.7,19.9,17.9,32.7,14.7C270.8,382.9,280.8,372.2,280,359z"/><path d="M293.3,356.6c-1.3-20.9-23.6-32.3-42.1-33.3c-25.4-1.4-40.5,21.5-38.8,44.9c0.1,1.8,0.9,3.2,1.9,4.2c-0.9,1.8-1,4.1,0.5,6.3c10.5,16.5,29.4,23.9,48.3,19.9C282,394.6,294.5,375.5,293.3,356.6z M258.6,385.9c-12.8,3.2-26-4.1-32.7-14.7c-0.2-0.3-0.4-0.6-0.6-0.8c0.4-0.9,0.6-2,0.5-3.2c-0.6-8.3,1-16.6,6.4-23.2c4.9-5.9,12.8-7.4,20-7.3c12.4,0.3,26.9,9,27.7,22.3C280.8,372.2,270.8,382.9,258.6,385.9z"/><path fill="#F6851F" d="M280,269c-0.8-13.3-15.3-22-27.7-22.3c-7.3-0.2-15.1,1.4-20,7.3c-5.4,6.6-7,14.9-6.4,23.2c0.1,1.2-0.1,2.3-0.5,3.2c0.2,0.3,0.4,0.5,0.6,0.8c6.7,10.7,19.9,17.9,32.7,14.7C270.8,293,280.8,282.3,280,269z"/><path d="M293.3,266.7c-1.3-20.9-23.6-32.3-42.1-33.3c-25.4-1.4-40.5,21.5-38.8,44.9c0.1,1.8,0.9,3.2,1.9,4.2c-0.9,1.8-1,4.1,0.5,6.3c10.5,16.5,29.4,23.9,48.3,19.9C282,304.6,294.5,285.5,293.3,266.7z M258.6,296c-12.8,3.2-26-4.1-32.7-14.7c-0.2-0.3-0.4-0.6-0.6-0.8c0.4-0.9,0.6-2,0.5-3.2c-0.6-8.3,1-16.6,6.4-23.2c4.9-5.9,12.8-7.4,20-7.3c12.4,0.3,26.9,9,27.7,22.3C280.8,282.3,270.8,293,258.6,296z"/><path fill="#F6851F" d="M282.3,177.7c-0.8-13.3-15.3-22-27.7-22.3c-7.3-0.2-15.1,1.4-20,7.3c-5.4,6.6-7,14.9-6.4,23.2c0.1,1.2-0.1,2.3-0.5,3.2c0.2,0.3,0.4,0.5,0.6,0.8c6.7,10.7,19.9,17.9,32.7,14.7C273.1,201.6,283.1,190.9,282.3,177.7z"/><path d="M295.6,175.3c-1.3-20.9-23.6-32.3-42.1-33.3c-25.4-1.4-40.5,21.5-38.8,44.9c0.1,1.8,0.9,3.2,1.9,4.2c-0.9,1.8-1,4.1,0.5,6.3c10.5,16.5,29.4,23.9,48.3,19.9C284.3,213.3,296.8,194.2,295.6,175.3z M260.9,204.7c-12.8,3.2-26-4.1-32.7-14.7c-0.2-0.3-0.4-0.6-0.6-0.8c0.4-0.9,0.6-2,0.5-3.2c-0.6-8.3,1-16.6,6.4-23.2c4.9-5.9,12.8-7.4,20-7.3c12.4,0.3,26.9,9,27.7,22.3C283.1,190.9,273.1,201.6,260.9,204.7z"/><path fill="#F6851F" d="M280,67.8c-0.8-13.3-15.3-22-27.7-22.3c-7.3-0.2-15.1,1.4-20,7.3c-5.4,6.6-7,14.9-6.4,23.2c0.1,1.2-0.1,2.3-0.5,3.2c0.2,0.3,0.4,0.5,0.6,0.8c6.7,10.7,19.9,17.9,32.7,14.7C270.8,91.8,280.8,81.1,280,67.8z"/><path d="M293.3,65.5c-1.3-20.9-23.6-32.3-42.1-33.3c-25.4-1.4-40.5,21.5-38.8,44.9c0.1,1.8,0.9,3.2,1.9,4.2c-0.9,1.8-1,4.1,0.5,6.3c10.5,16.5,29.4,23.9,48.3,19.9C282,103.4,294.5,84.3,293.3,65.5z M258.6,94.8c-12.8,3.2-26-4.1-32.7-14.7c-0.2-0.3-0.4-0.6-0.6-0.8c0.4-0.9,0.6-2,0.5-3.2c-0.6-8.3,1-16.6,6.4-23.2c4.9-5.9,12.8-7.4,20-7.3c12.4,0.3,26.9,9,27.7,22.3C280.8,81.1,270.8,91.8,258.6,94.8z"/><path fill="#F6851F" d="M366.1,133.9c-0.8-13.3-15.3-22-27.7-22.3c-7.3-0.2-15.1,1.4-20,7.3c-5.4,6.6-7,14.9-6.4,23.2c0.1,1.2-0.1,2.3-0.5,3.2c0.2,0.3,0.4,0.5,0.6,0.8c6.7,10.7,19.9,17.9,32.7,14.7C356.8,157.8,366.9,147.1,366.1,133.9z"/><path d="M379.4,131.5c-1.3-20.9-23.6-32.3-42.1-33.3c-25.4-1.4-40.5,21.5-38.8,44.9c0.1,1.8,0.9,3.2,1.9,4.2c-0.9,1.8-1,4.1,0.5,6.3c10.5,16.5,29.4,23.9,48.3,19.9C368.1,169.5,380.5,150.3,379.4,131.5z M344.7,160.8c-12.8,3.2-26-4.1-32.7-14.7c-0.2-0.3-0.4-0.6-0.6-0.8c0.4-0.9,0.6-2,0.5-3.2c-0.6-8.3,1-16.6,6.4-23.2c4.9-5.9,12.8-7.4,20-7.3c12.4,0.3,26.9,9,27.7,22.3C366.9,147.1,356.8,157.8,344.7,160.8z"/><path fill="#F6851F" d="M196.3,138.9c-0.8-13.3-15.3-22-27.7-22.3c-7.3-0.2-15.1,1.4-20,7.3c-5.4,6.6-7,14.9-6.4,23.2c0.1,1.2-0.1,2.3-0.5,3.2c0.2,0.3,0.4,0.5,0.6,0.8c6.7,10.7,19.9,17.9,32.7,14.7C187,162.8,197.1,152.1,196.3,138.9z"/><path d="M209.6,136.5c-1.3-20.9-23.6-32.3-42.1-33.3c-25.4-1.4-40.5,21.5-38.8,44.9c0.1,1.8,0.9,3.2,1.9,4.2c-0.9,1.8-1,4.1,0.5,6.3c10.5,16.5,29.4,23.9,48.3,19.9C198.3,174.5,210.7,155.4,209.6,136.5z M174.9,165.9c-12.8,3.2-26-4.1-32.7-14.7c-0.2-0.3-0.4-0.6-0.6-0.8c0.4-0.9,0.6-2,0.5-3.2c-0.6-8.3,1-16.6,6.4-23.2c4.9-5.9,12.8-7.4,20-7.3c12.4,0.3,26.9,9,27.7,22.3C197.1,152.1,187,162.8,174.9,165.9z"/><path fill="#F6851F" d="M140.9,210.6c-0.8-13.3-15.3-22-27.7-22.3c-7.3-0.2-15.1,1.4-20,7.3c-5.4,6.6-7,14.9-6.4,23.2c0.1,1.2-0.1,2.3-0.5,3.2c0.2,0.3,0.4,0.5,0.6,0.8c6.7,10.7,19.9,17.9,32.7,14.7C131.7,234.5,141.7,223.8,140.9,210.6z"/><path d="M154.2,208.2c-1.3-20.9-23.6-32.3-42.1-33.3c-25.4-1.4-40.5,21.5-38.8,44.9c0.1,1.8,0.9,3.2,1.9,4.2c-0.9,1.8-1,4.1,0.5,6.3c10.5,16.5,29.4,23.9,48.3,19.9C142.9,246.1,155.4,227,154.2,208.2z M119.5,237.5c-12.8,3.2-26-4.1-32.7-14.7c-0.2-0.3-0.4-0.6-0.6-0.8c0.4-0.9,0.6-2,0.5-3.2c-0.6-8.3,1-16.6,6.4-23.2c4.9-5.9,12.8-7.4,20-7.3c12.4,0.3,26.9,9,27.7,22.3C141.7,223.8,131.7,234.5,119.5,237.5z"/><path fill="#F6851F" d="M433.8,202.9c-0.8-13.3-15.3-22-27.7-22.3c-7.3-0.2-15.1,1.4-20,7.3c-5.4,6.6-7,14.9-6.4,23.2c0.1,1.2-0.1,2.3-0.5,3.2c0.2,0.3,0.4,0.5,0.6,0.8c6.7,10.7,19.9,17.9,32.7,14.7C424.6,226.9,434.6,216.2,433.8,202.9z"/><g><path d="M447.1,200.6c-1.3-20.9-23.6-32.3-42.1-33.3c-25.4-1.4-40.5,21.5-38.8,44.9c0.1,1.8,0.9,3.2,1.9,4.2c-0.9,1.8-1,4.1,0.5,6.3c10.5,16.5,29.4,23.9,48.3,19.9C435.8,238.5,448.3,219.4,447.1,200.6z M412.4,229.9c-12.8,3.2-26-4.1-32.7-14.7c-0.2-0.3-0.4-0.6-0.6-0.8c0.4-0.9,0.6-2,0.5-3.2c-0.6-8.3,1-16.6,6.4-23.2c4.9-5.9,12.8-7.4,20-7.3c12.4,0.3,26.9,9,27.7,22.3C434.6,216.2,424.6,226.9,412.4,229.9z"/></g></svg>