<svg xmlns="http://www.w3.org/2000/svg" viewBox="0 0 100 100"><circle cx="77" cy="13" r="1" fill="#f1bc19"/><circle cx="50" cy="50" r="37" fill="#e6edb7"/><circle cx="83" cy="15" r="4" fill="#f1bc19"/><circle cx="87" cy="24" r="2" fill="#9f8066"/><circle cx="81" cy="76" r="2" fill="#fbcd59"/><circle cx="15" cy="64" r="4" fill="#fbcd59"/><circle cx="25" cy="87" r="2" fill="#9f8066"/><circle cx="19.5" cy="45.5" r="2.5" fill="#fff"/><circle cx="79.5" cy="33.5" r="1.5" fill="#fff"/><path fill="#fefdef" d="M32.562,26v15.579c0,2.718,2.189,4.921,4.888,4.921h26.098c2.7,0,4.888-2.204,4.888-4.921V26H32.562 z"/><path fill="#472b29" d="M41.563,44H38c-1.654,0-3-1.346-3-3V26c0-0.276,0.224-0.5,0.5-0.5S36,25.724,36,26v15 c0,1.103,0.897,2,2,2h3.563c0.276,0,0.5,0.224,0.5,0.5S41.839,44,41.563,44z"/><path fill="#472b29" d="M52.875,44h-8.25c-0.276,0-0.5-0.224-0.5-0.5s0.224-0.5,0.5-0.5h8.25c0.276,0,0.5,0.224,0.5,0.5 S53.151,44,52.875,44z"/><path fill="#472b29" d="M63,44h-8.063c-0.276,0-0.5-0.224-0.5-0.5s0.224-0.5,0.5-0.5H63c1.103,0,2-0.897,2-2V25.917 c0-0.276,0.224-0.5,0.5-0.5s0.5,0.224,0.5,0.5V41C66,42.654,64.654,44,63,44z"/><path fill="#472b29" d="M61.5,29.75h-22c-0.138,0-0.25-0.112-0.25-0.25s0.112-0.25,0.25-0.25h22 c0.138,0,0.25,0.112,0.25,0.25S61.638,29.75,61.5,29.75z"/><path fill="#472b29" d="M46.5,33.75h-7c-0.138,0-0.25-0.112-0.25-0.25s0.112-0.25,0.25-0.25h7c0.138,0,0.25,0.112,0.25,0.25 S46.638,33.75,46.5,33.75z"/><path fill="#472b29" d="M49.5,37.75h-10c-0.138,0-0.25-0.112-0.25-0.25s0.112-0.25,0.25-0.25h10 c0.138,0,0.25,0.112,0.25,0.25S49.638,37.75,49.5,37.75z"/><path fill="#472b29" d="M61.5,33.75h-13c-0.138,0-0.25-0.112-0.25-0.25s0.112-0.25,0.25-0.25h13 c0.138,0,0.25,0.112,0.25,0.25S61.638,33.75,61.5,33.75z"/><path fill="#472b29" d="M61.5,37.75h-4c-0.138,0-0.25-0.112-0.25-0.25s0.112-0.25,0.25-0.25h4c0.138,0,0.25,0.112,0.25,0.25 S61.638,37.75,61.5,37.75z"/><path fill="#472b29" d="M55.5,37.75h-4c-0.138,0-0.25-0.112-0.25-0.25s0.112-0.25,0.25-0.25h4c0.138,0,0.25,0.112,0.25,0.25 S55.638,37.75,55.5,37.75z"/><path fill="#472b29" d="M63.458,46.887H37.542c-3.063,0-5.555-2.488-5.555-5.546V26c0-0.387,0.313-0.7,0.7-0.7 s0.7,0.313,0.7,0.7v15.341c0,2.286,1.863,4.146,4.154,4.146h25.916c2.291,0,4.154-1.86,4.154-4.146V26c0-0.387,0.313-0.7,0.7-0.7 s0.7,0.313,0.7,0.7v15.341C69.013,44.399,66.521,46.887,63.458,46.887z"/><path fill="#fefdef" d="M68.437,73V57.421c0-2.718-2.189-4.921-4.888-4.921H37.451c-2.7,0-4.888,2.204-4.888,4.921V73 H68.437z"/><path fill="#472b29" d="M65.5,73.5c-0.276,0-0.5-0.224-0.5-0.5v-7.938c0-0.276,0.224-0.5,0.5-0.5s0.5,0.224,0.5,0.5V73 C66,73.276,65.776,73.5,65.5,73.5z"/><g><path fill="#472b29" d="M35.5,73.583c-0.276,0-0.5-0.224-0.5-0.5V58c0-1.654,1.346-3,3-3h25c1.654,0,3,1.346,3,3v4.75 c0,0.276-0.224,0.5-0.5,0.5s-0.5-0.224-0.5-0.5V58c0-1.103-0.897-2-2-2H38c-1.103,0-2,0.897-2,2v15.083 C36,73.359,35.776,73.583,35.5,73.583z"/></g><g><path fill="#472b29" d="M68.313,73.7c-0.387,0-0.7-0.313-0.7-0.7V57.659c0-2.286-1.863-4.146-4.154-4.146H37.542 c-2.291,0-4.154,1.86-4.154,4.146V73c0,0.387-0.313,0.7-0.7,0.7s-0.7-0.313-0.7-0.7V57.659c0-3.058,2.492-5.546,5.555-5.546h25.916 c3.063,0,5.555,2.488,5.555,5.546V73C69.013,73.387,68.699,73.7,68.313,73.7z"/></g><g><path fill="#472b29" d="M61.5,60.75h-22c-0.138,0-0.25-0.112-0.25-0.25s0.112-0.25,0.25-0.25h22 c0.138,0,0.25,0.112,0.25,0.25S61.638,60.75,61.5,60.75z"/></g><g><path fill="#472b29" d="M46.5,64.75h-7c-0.138,0-0.25-0.112-0.25-0.25s0.112-0.25,0.25-0.25h7c0.138,0,0.25,0.112,0.25,0.25 S46.638,64.75,46.5,64.75z"/></g><g><path fill="#472b29" d="M49.5,68.75h-10c-0.138,0-0.25-0.112-0.25-0.25s0.112-0.25,0.25-0.25h10 c0.138,0,0.25,0.112,0.25,0.25S49.638,68.75,49.5,68.75z"/></g><g><path fill="#472b29" d="M61.5,64.75h-13c-0.138,0-0.25-0.112-0.25-0.25s0.112-0.25,0.25-0.25h13 c0.138,0,0.25,0.112,0.25,0.25S61.638,64.75,61.5,64.75z"/></g><g><path fill="#472b29" d="M61.5,68.75h-4c-0.138,0-0.25-0.112-0.25-0.25s0.112-0.25,0.25-0.25h4c0.138,0,0.25,0.112,0.25,0.25 S61.638,68.75,61.5,68.75z"/></g><g><path fill="#472b29" d="M55.5,68.75h-4c-0.138,0-0.25-0.112-0.25-0.25s0.112-0.25,0.25-0.25h4c0.138,0,0.25,0.112,0.25,0.25 S55.638,68.75,55.5,68.75z"/></g></svg>