<?xml version="1.0"?><svg xmlns="http://www.w3.org/2000/svg" viewBox="0 0 30 30">    <path d="M16.539,27.851c0,0-0.035,0.127,0.046,0.147 c0.082,0.02,0.303-0.144,0.402-0.189s0.249-0.164,0.247-0.221s-0.145-0.121-0.085-0.213c0.06-0.093,0.131-0.099,0.226-0.154 c0.095-0.055,0.383-0.312,0.383-0.312l0.897-0.886c0,0,0.282-0.129,0.472-0.233c0.19-0.104,0.474-0.291,0.474-0.291 c0.31-0.108,0.568-0.254,0.739-0.463l0.015-0.553l0.495-0.113c0,0-0.065-0.272,0.104-0.357c0.169-0.085,0.602-0.268,0.773-0.225 c0.171,0.043,0.247,0.194,0.491,0.154c0.244-0.039,0.671-0.385,0.671-0.385s0.718-0.51,0.904-0.77 c0.187-0.26,0.398-0.656,0.398-0.656s-0.356-0.173-0.55-0.267c-0.194-0.094-0.37-0.175-0.473-0.309 c-0.088-0.115-0.204-0.013-0.349-0.4c-0.058-0.18-0.004-0.806-0.028-0.93c-0.023-0.124-0.318-0.242-0.318-0.242 s-0.089-0.524-0.214-0.681c-0.125-0.157-0.296-0.197-0.296-0.197l-0.167-0.046c0,0-0.16-0.443-0.275-0.629 c-0.115-0.186-0.287-0.354-0.287-0.354l-0.04-0.244c0,0,0.044-0.017-0.185-0.035s-0.559,0.131-0.559,0.131s0.087-0.217,0.209-0.377 c0.121-0.161,0.087-0.399,0.362-0.398c0.274,0.002,0.379,0.044,0.594-0.016c0.214-0.061,0.254-0.321,0.254-0.321l-0.004-0.296 c0,0,0.106-0.041,0.193-0.189c0.087-0.148,0.027-0.572,0.027-0.572s-0.298-0.01-0.261-0.314s0.339-0.665,0.339-0.665 s0.06-0.248,0.153-0.417s0.18-0.676,0.18-0.676l0.847-0.01c0,0,0.028,0.194,0.243,0.168c0.215-0.026,0.327-0.697,0.282-1.064 s-0.09-0.555-0.015-0.73c0.075-0.175,0.199-0.796,0.226-1.011c0.028-0.216-0.224-0.397-0.224-0.397s0.175-0.131,0.158-0.344 c-0.004-0.059-0.039-0.237-0.039-0.237s0.208-0.387,0.22-0.549c0.421-0.174,0.497-0.848,0.497-0.848l-0.455,0.494l0.025-0.256 c0,0-0.253,0.194-0.278,0.104c-0.025-0.091,0.294-0.292,0.294-0.292l-0.073-0.294c0,0-0.115,0.039-0.071-0.083 c0.043-0.122,0.506-0.15,0.575-0.326c0.069-0.176-0.07-0.392-0.154-0.479c-0.085-0.087-0.067-0.376-0.067-0.376 s0.142,0.062,0.261-0.012c0.119-0.074,0.079-0.164,0.2-0.152c0.121,0.011,0.291,0.052,0.257,0.143 c-0.033,0.091-0.23,0.078-0.23,0.227c0,0.149,0.066,0.323,0.232,0.349c0.041,0.108-0.08,0.272-0.025,0.301 c0.055,0.028,0.167-0.077,0.428-0.159c0.261-0.082,0.123-0.017,0.518-0.081s0.741-0.109,0.741-0.109l0.037-0.295l-0.065-0.3 c0,0-0.403-0.695-0.502-0.804s-0.375-0.53-0.515-0.877c-0.14-0.346-0.537-0.463-0.537-0.463s-0.117-0.464-0.493-0.404 s-0.615,0.153-0.62,0.338c-0.004,0.185-0.12,0.212-0.12,0.212s-0.548,0.004-0.809-0.328l-0.261-0.332c0,0-0.112,0.092-0.749-0.216 c-0.637-0.308-0.987-0.339-1.551,0.489c-0.564,0.828-1.382,2.03-2.893,3.224c-1.511,1.195-3.628,2.436-4.276,2.646 c-0.648,0.21-1.606,0.787-1.606,0.787s-1.14,0.345-1.189,0.579c-0.049,0.233,0.013,0.619-0.038,0.82 c-0.05,0.201-0.587,0.943-0.759,1.187c-0.172,0.245-0.315,0.26-0.549,0.286c-0.233,0.026-0.493,0.309-0.493,0.309 s-0.902-0.069-1.219,0.114c-0.317,0.183-0.693,0.578-0.812,0.819c-0.119,0.241-0.079,0.428-0.253,0.545 C6.423,16.121,6.1,16.046,6.1,16.046s0.035,0.227,0,0.558c-0.034,0.331-0.655,0.728-0.821,0.888s-0.671,0.523-0.671,0.523 s-0.735,2.015-0.591,2.152c0.144,0.136,0.977,0.627,0.977,0.627s0.472-1.099,0.896-1.095c0.424,0.004,0.626,0.631,0.742,1.073 c0.139,0.529,0.146,0.878,0.146,0.878s0.323,0.396,0.315,0.613s-0.156,1.509,0.039,1.733c0.195,0.224,1.059,0.523,1.213,0.711 c0.154,0.188,0.097,0.299,0.097,0.299s0.831,0.178,1.041,0.16c0.21-0.018,0.774-0.347,0.782-0.477c0.008-0.13,0.08-0.341,0.2-0.364 c0.121-0.023,0.165,0.033,0.224,0.022c0.059-0.011,0.06-0.093,0.159-0.081c0.099,0.013,0.214,0.136,0.261,0.253 s0.465,0.149,0.584,0.137c0.119-0.013,0.32-0.008,0.32-0.008s0.119-0.313,0.25-0.368c0.131-0.056,0.272-0.091,0.408-0.219 c0.136-0.128,0.032-0.302,0.111-0.374c0.079-0.071,0.388,0.039,0.295,0.182c-0.094,0.142-0.345,0.317-0.069,0.421 c0.276,0.104,0.448,0.01,0.653,0.064c0.205,0.054,0.386,0.181,0.787,0.229c0.4,0.048,1.391-0.027,1.435,0.076 c0.045,0.104,0.187,0.501,0.207,0.663c0.02,0.163,0.021,0.362,0.332,0.408c0.311,0.047,0.322-0.064,0.594-0.064 c0.272,0,0.488,0.057,0.737-0.022c0.25-0.079,0.553-0.274,0.659-0.281c0.106-0.008,0.4,0.177,0.279,0.281 c-0.121,0.105-1.296,0.744-1.557,0.902c-0.261,0.158-0.379,0.215-0.373,0.313c0.006,0.098,0.183,0.327,0.137,0.416 C16.854,27.363,16.539,27.851,16.539,27.851z" fill-rule="evenodd" clip-rule="evenodd"/></svg>