<svg xmlns="http://www.w3.org/2000/svg" viewBox="0 0 24 24"><path d="M 2.5 1 L 0 20 L 0 23 L 24 23 L 24 20 L 21.5 1 Z M 3.75 3 L 20.25 3 L 22.5 20 L 1.5 20 Z M 5.59375 5 L 5.1875 8 L 8.59375 8 L 8.8125 5 Z M 10.40625 5 L 10.3125 8 L 13.6875 8 L 13.59375 5 Z M 15.1875 5 L 15.40625 8 L 18.8125 8 L 18.40625 5 Z M 5.09375 9 L 4.59375 13 L 8.3125 13 L 8.5 9 Z M 10.3125 9 L 10.1875 13 L 13.8125 13 L 13.6875 9 Z M 15.5 9 L 15.6875 13 L 19.40625 13 L 18.90625 9 Z M 4.5 14 L 4 18 L 8 18 L 8.1875 14 Z M 10.09375 14 L 10 18 L 14 18 L 13.90625 14 Z M 15.8125 14 L 16 18 L 20 18 L 19.5 14 Z"/></svg>