<svg xmlns="http://www.w3.org/2000/svg" viewBox="0 0 40 40"><path fill="#fff" d="M20,38.5c-1.021,0-1.992-0.459-2.665-1.259l-0.098-0.117l-0.146-0.042 C12.622,35.795,9.5,31.649,9.5,27V12.381c0-2.615,2.127-4.743,4.742-4.743h11.516c2.615,0,4.742,2.127,4.742,4.743V27 c0,4.649-3.122,8.795-7.591,10.083l-0.146,0.042l-0.098,0.117C21.992,38.041,21.021,38.5,20,38.5z"/><path fill="#4788c7" d="M25.758,8.139c2.339,0,4.242,1.903,4.242,4.242V27c0,4.427-2.973,8.376-7.229,9.602l-0.292,0.084 l-0.196,0.233C21.704,37.606,20.872,38,20,38s-1.704-0.394-2.283-1.081l-0.196-0.233l-0.292-0.084C12.973,35.376,10,31.427,10,27 V12.381c0-2.339,1.903-4.242,4.242-4.242H25.758 M25.758,7.139H14.242C11.347,7.139,9,9.486,9,12.381V27 c0,5.017,3.362,9.24,7.952,10.563C17.686,38.434,18.772,39,20,39s2.314-0.566,3.048-1.437C27.638,36.24,31,32.017,31,27V12.381 C31,9.486,28.653,7.139,25.758,7.139L25.758,7.139z"/><path fill="#b6dcfe" d="M32,37.5c-2.786,0-5.358-1-6.593-1.566c1.599-1.12,5.093-4.142,5.093-9.148v-6.905 c0-2.709-2.099-4.729-3.348-5.691C30.381,14.266,32.5,15.186,32.5,19c0,10.231,4.284,14.786,5.747,16.042 C37.403,35.81,35.184,37.5,32,37.5z M9,37.5c-3.726,0-6.264-1.708-7.22-2.48C3.266,33.732,7.5,29.171,7.5,19 c0-5.491,1.571-5.95,3.043-5.95c0.966,0,2.134,0.269,3.486,0.58C15.8,14.038,17.807,14.5,20,14.5c1.098,0,2.264-0.081,3.391-0.16 c0.62-0.043,1.251-0.087,1.872-0.117c-0.86,1.228-3.64,4.53-9.081,5.281c-3.218,0.444-6.682,2.73-6.682,6.699l1,0.083l-1-0.023 v0.522c0,5.073,3.832,8.21,5.622,9.399C13.783,36.679,11.221,37.5,9,37.5z"/><path fill="#4788c7" d="M10.543,12.55l0,1c0.909,0,2.051,0.263,3.373,0.568C15.713,14.531,17.75,15,20,15 c1.115,0,2.29-0.082,3.426-0.161c0.255-0.018,0.511-0.036,0.768-0.053c-1.239,1.427-3.792,3.63-8.081,4.222 C12.687,19.483,9,21.936,9,26.204v0.059v0.522c0,4.629,3.036,7.711,5.049,9.246C12.674,36.484,10.727,37,9,37 c-3.081,0-5.313-1.221-6.444-2.02C4.369,33.202,8,28.459,8,19c0-5.45,1.53-5.45,2.542-5.45L10.543,12.55 M28.606,14.807 C31.075,15.173,32,16.403,32,19c0,9.551,3.703,14.294,5.497,16.031C36.516,35.818,34.609,37,32,37 c-2.202,0-4.273-0.65-5.606-1.186C28.211,34.353,31,31.364,31,26.786v-6.904C31,17.721,29.777,15.979,28.606,14.807 M10.543,12.55 C8.324,12.549,7,13.864,7,19c0,11.947-6,16-6,16s2.925,3,8,3c3.303,0,7.246-1.719,7.246-1.719S10,33.035,10,26.786 c0-0.444,0-0.522,0-0.522v0.023c0,0,0-0.017,0-0.083c0-3.678,3.242-5.788,6.25-6.204c7.038-0.972,9.75-6,9.75-6s4,2.35,4,5.882 c0,1.527,0,4.397,0,6.904c0,6.13-5.607,9.202-5.607,9.202S27.945,38,32,38c4.392,0,7-3,7-3s-6-4.053-6-16 c0-4.468-2.82-5.315-6.319-5.315C24.545,13.685,22.156,14,20,14C16.192,14,12.874,12.55,10.543,12.55L10.543,12.55z"/><path fill="#4788c7" d="M25.5 23A1.5 1.5 0 1 0 25.5 26 1.5 1.5 0 1 0 25.5 23zM14.5 23A1.5 1.5 0 1 0 14.5 26 1.5 1.5 0 1 0 14.5 23z"/><path fill="#dff0fe" d="M32.5,21.423C30.763,21.182,25.368,20.5,20,20.5S9.237,21.182,7.5,21.423v-4.421l-0.285-0.136 C4.958,15.792,3.5,13.489,3.5,11c0-3.584,2.916-6.5,6.5-6.5c1.196,0,2.372,0.335,3.4,0.968l0.478,0.294l0.238-0.508 C15.182,2.974,17.492,1.5,20,1.5s4.818,1.474,5.885,3.754l0.238,0.508L26.6,5.468C27.628,4.835,28.804,4.5,30,4.5 c3.584,0,6.5,2.916,6.5,6.5c0,2.489-1.458,4.792-3.715,5.866L32.5,17.001V21.423z"/><path fill="#4788c7" d="M20,2c2.315,0,4.447,1.361,5.432,3.466l0.475,1.016l0.955-0.589C27.812,5.309,28.897,5,30,5 c3.308,0,6,2.692,6,6c0,2.298-1.346,4.423-3.43,5.414L32,16.686v0.632v3.534C29.827,20.566,24.902,20,20,20s-9.827,0.566-12,0.851 v-3.534v-0.632l-0.57-0.271C5.346,15.423,4,13.298,4,11c0-3.308,2.692-6,6-6c1.103,0,2.188,0.309,3.138,0.894l0.955,0.589 l0.475-1.016C15.553,3.361,17.685,2,20,2 M20,1c-2.808,0-5.222,1.657-6.338,4.043C12.596,4.386,11.344,4,10,4 c-3.866,0-7,3.134-7,7c0,2.791,1.637,5.193,4,6.317V22c0,0,6.478-1,13-1s13,1,13,1v-4.683c2.363-1.124,4-3.527,4-6.317 c0-3.866-3.134-7-7-7c-1.344,0-2.596,0.386-3.662,1.043C25.222,2.657,22.808,1,20,1L20,1z"/><path fill="none" stroke="#4788c7" stroke-miterlimit="10" d="M24.5 17L24.5 21M15.5 17L15.5 21M11.5 17L11.5 21M28.5 17L28.5 21"/></svg>