<svg xmlns="http://www.w3.org/2000/svg" viewBox="0 0 48 48"><path fill="#546e7a" d="M30 43L28 43 15 6 17 6z"/><path fill="#78909c" d="M31 6L33 6 20 43 18 43z"/><path fill="#4dd0e1" d="M48,9v11c0,0-4.45,2-7.05,2c-3.45,0-6.36-2-8.95-2c-3,0-4.075,0.832-4.275,1.012L32.28,8.04 C32.56,8.01,32.68,8,33,8c2.59,0,4.55,2,8,2C43.6,10,48,9,48,9z"/><path fill="#00acc1" d="M48,9v5c0,0-4.45,2-7.05,2c-3.45,0-6.36-2-8.95-2c-0.747,0-1.357,0.051-1.856,0.13l2.136-6.09 C32.56,8.01,32.68,8,33,8c2.59,0,4.55,2,8,2C43.6,10,48,9,48,9z"/><path fill="#0097a7" d="M32.3 8L27.725 21.012 25.724 21.012 30.3 8z"/><path fill="#e57373" d="M0.005,9l0,11c0,0,4.45,2,7.05,2c3.45,0,6.36-2,8.95-2c3,0,4.075,0.832,4.275,1.012L15.725,8.04 c-0.28-0.03-0.4-0.04-0.72-0.04c-2.59,0-4.55,2-8,2C4.405,10,0.005,9,0.005,9z"/><path fill="#ef5350" d="M15.705 8L20.28 21.012 22.281 21.012 17.705 8z"/><path fill="#ef9a9a" d="M0,9l0,5c0,0,4.45,2,7.05,2c3.45,0,6.36-2,8.95-2c0.747,0,1.357,0.051,1.856,0.13L15.72,8.04 C15.44,8.01,15.32,8,15,8c-2.59,0-4.55,2-8,2C4.4,10,0,9,0,9z"/></svg>