<svg xmlns="http://www.w3.org/2000/svg" viewBox="0 0 40 40"><path fill="#98ccfd" d="M1 23L24 23 38.999 39 1 39z"/><path fill="none" stroke="#4688c8" stroke-linecap="round" stroke-miterlimit="10" d="M1.5 23.5L23.783 23.5 37.845 38.5"/><path fill="none" stroke="#fff" stroke-linecap="round" stroke-miterlimit="10" d="M1.5 25.5L22.782 25.5 34.841 38.5"/><path fill="#4788c7" d="M22 2H23V25H22z"/><path fill="#dff0fe" d="M34,12.5c-1.346,0-2.377-0.241-3.469-0.496C29.467,11.756,28.368,11.5,27,11.5 c-1.875,0-3.585,0.473-4.5,0.782V2.351C23.245,2.096,25.191,1.5,27.142,1.5c1.242,0,2.247,0.236,3.311,0.486 C31.527,2.239,32.638,2.5,34,2.5c1.609,0,2.789-0.363,3.5-0.671v9.903C37.085,11.973,35.956,12.5,34,12.5z"/><path fill="#4788c7" d="M27.142,2c1.184,0,2.161,0.23,3.197,0.473C31.441,2.732,32.581,3,34,3c1.242,0,2.249-0.21,3-0.453 v8.882C36.509,11.662,35.531,12,34,12c-1.288,0-2.293-0.234-3.356-0.482C29.553,11.263,28.426,11,27,11 c-1.553,0-2.997,0.313-4,0.603V2.712C23.866,2.437,25.501,2,27.142,2 M38,1c0,0-1.394,1-4,1s-4.258-1-6.858-1C24.541,1,22,2,22,2 v11c0,0,2.349-1,5-1c2.651,0,4.225,1,7,1s4-1,4-1V1L38,1z"/><path fill="#fff" d="M28.893,32h-2.021C17.216,32,13.708,26.964,13,25.744V25h-1v1c0.152,0.296,3.562,7,14.872,7 c0.036,0,2.489,0,3.021,0C29.53,32.642,29.186,32.299,28.893,32z"/><path fill="#4788c7" d="M22.5,23L22.5,23c0.275,0,0.5,0.225,0.5,0.5v2c0,0.275-0.225,0.5-0.5,0.5l0,0 c-0.275,0-0.5-0.225-0.5-0.5v-2C22,23.225,22.225,23,22.5,23z"/></svg>