<svg xmlns="http://www.w3.org/2000/svg" viewBox="0 0 26 26"><path d="M 13 1 C 8 1 4 4 4 9 L 4 11.875 C 3.457031 12.320313 3 13.066406 3 14 C 3 15.257813 3.867188 16.214844 5 16.65625 C 5.703125 18.472656 6.589844 20.417969 7.8125 22 C 9.101563 23.671875 10.839844 25 13 25 C 15.199219 25 16.9375 23.675781 18.21875 22 C 19.429688 20.414063 20.300781 18.464844 21 16.65625 C 22.105469 16.226563 23 15.296875 23 14 C 23 13.050781 22.570313 12.289063 22.03125 11.84375 C 22.34375 11.777344 22.679688 11.6875 23.0625 11.5625 C 24.082031 11.226563 25.335938 10.707031 25.90625 9.40625 C 26.066406 9.066406 26.019531 8.664063 25.789063 8.367188 C 25.558594 8.070313 25.179688 7.929688 24.8125 8 C 24.488281 8.066406 24.222656 8.289063 24.09375 8.59375 C 24.027344 8.742188 23.828125 8.929688 23.53125 9.125 C 23.824219 8.535156 24 7.824219 24 7 C 24.007813 6.691406 23.871094 6.398438 23.632813 6.203125 C 23.398438 6.007813 23.082031 5.933594 22.78125 6 C 22.316406 6.105469 21.988281 6.523438 22 7 C 22 7.261719 21.964844 7.492188 21.90625 7.71875 C 21.277344 3.496094 17.554688 1 13 1 Z M 15 6 C 15 8.90625 18.53125 7.675781 18.96875 11.21875 C 18.96875 11.226563 18.96875 11.242188 18.96875 11.25 C 17.414063 12.078125 15.183594 13 13 13 C 10.828125 13 8.617188 12.074219 7.0625 11.25 C 7.707031 6.101563 15 9.058594 15 6 Z M 20.65625 13.34375 C 20.875 13.421875 21 13.332031 21 14 C 21 14.613281 20.621094 14.949219 20.09375 15 L 19.46875 15.0625 L 19.25 15.65625 C 18.566406 17.464844 17.695313 19.378906 16.625 20.78125 C 15.554688 22.183594 14.402344 23 13 23 C 11.660156 23 10.492188 22.183594 9.40625 20.78125 C 8.320313 19.378906 7.429688 17.457031 6.75 15.65625 L 6.53125 15.0625 L 5.90625 15 C 5.445313 14.953125 5 14.464844 5 14 C 5 13.402344 5.105469 13.464844 5.34375 13.375 C 5.351563 13.371094 5.367188 13.378906 5.375 13.375 C 7.03125 14.855469 9.964844 17 13 17 C 16.054688 17 19.007813 14.824219 20.65625 13.34375 Z"/></svg>