<svg xmlns="http://www.w3.org/2000/svg" viewBox="0 0 100 100"><path d="M 50 14 C 30.129581 14 14 30.129595 14 50 C 14 69.870405 30.129581 86 50 86 C 69.870419 86 86 69.870405 86 50 C 86 30.129595 69.870419 14 50 14 z M 50 16 C 68.78954 16 84 31.210473 84 50 C 84 68.789527 68.78954 84 50 84 C 31.21046 84 16 68.789527 16 50 C 16 31.210473 31.21046 16 50 16 z M 50 19 C 32.884791 19 19 32.884791 19 50 C 19 67.115209 32.884791 81 50 81 C 67.115209 81 81 67.115209 81 50 C 81 40.904382 77.079076 32.716819 70.835938 27.046875 A 0.50005 0.50005 0 1 0 70.164062 27.787109 C 76.206924 33.275165 80 41.191618 80 50 C 80 66.574791 66.574791 80 50 80 C 33.425209 80 20 66.574791 20 50 C 20 33.425209 33.425209 20 50 20 C 53.630741 20 57.108062 20.645941 60.328125 21.826172 A 0.50018397 0.50018397 0 1 0 60.671875 20.886719 C 57.343938 19.66695 53.749259 19 50 19 z M 63.480469 22.140625 A 0.50005 0.50005 0 0 0 63.277344 23.091797 C 63.947092 23.423229 64.604492 23.779343 65.246094 24.158203 A 0.50005 0.50005 0 1 0 65.753906 23.296875 C 65.091508 22.905735 64.414908 22.53788 63.722656 22.195312 A 0.50005 0.50005 0 0 0 63.480469 22.140625 z M 67.507812 24.511719 A 0.50005 0.50005 0 0 0 67.457031 24.513672 A 0.50005 0.50005 0 0 0 67.212891 25.425781 C 67.545583 25.65906 67.873213 25.899999 68.195312 26.146484 A 0.50080937 0.50080937 0 1 0 68.804688 25.351562 C 68.470787 25.096048 68.130417 24.848143 67.787109 24.607422 A 0.50005 0.50005 0 0 0 67.507812 24.511719 z M 51.34375 27.990234 C 51.244547 27.992362 51.145038 28.004414 51.044922 28.027344 L 51.042969 28.027344 L 37.400391 31.164062 C 36.598261 31.348598 36.088685 32.161307 36.273438 32.962891 L 37.394531 37.835938 C 37.579066 38.638067 38.389823 39.145688 39.191406 38.960938 L 52.835938 35.826172 C 53.6374 35.641448 54.145858 34.829129 53.962891 34.027344 L 52.841797 29.152344 C 52.680464 28.451069 52.038169 27.975344 51.34375 27.990234 z M 51.46875 28.994141 C 51.661105 29.026058 51.819588 29.170051 51.867188 29.376953 L 52.988281 34.25 C 53.051311 34.526215 52.885866 34.788286 52.611328 34.851562 L 38.96875 37.986328 L 38.966797 37.986328 C 38.69238 38.049578 38.432606 37.887198 38.369141 37.611328 L 37.248047 32.738281 C 37.184798 32.463865 37.349129 32.202137 37.625 32.138672 L 51.267578 29.001953 C 51.336182 28.986141 51.404632 28.983502 51.46875 28.994141 z M 55.5 39 C 54.677469 39 54 39.677469 54 40.5 L 54 45.5 C 54 45.88837 54.169991 46.232354 54.416016 46.5 C 54.169991 46.767646 54 47.11163 54 47.5 L 54 52.5 C 54 52.88837 54.169991 53.232354 54.416016 53.5 C 54.169991 53.767646 54 54.11163 54 54.5 L 54 59.5 C 54 59.88837 54.169991 60.232354 54.416016 60.5 C 54.169991 60.767646 54 61.11163 54 61.5 L 54 66.5 C 54 67.322531 54.677469 68 55.5 68 L 69.5 68 C 70.322531 68 71 67.322531 71 66.5 L 71 61.5 C 71 61.11163 70.830009 60.767646 70.583984 60.5 C 70.830009 60.232354 71 59.88837 71 59.5 L 71 54.5 C 71 54.11163 70.830009 53.767646 70.583984 53.5 C 70.830009 53.232354 71 52.88837 71 52.5 L 71 47.5 C 71 47.11163 70.830009 46.767646 70.583984 46.5 C 70.830009 46.232354 71 45.88837 71 45.5 L 71 40.5 C 71 39.677469 70.322531 39 69.5 39 L 55.5 39 z M 55.5 40 L 69.5 40 C 69.781469 40 70 40.218531 70 40.5 L 70 45.5 C 70 45.781469 69.781469 46 69.5 46 L 55.5 46 C 55.218531 46 55 45.781469 55 45.5 L 55 40.5 C 55 40.218531 55.218531 40 55.5 40 z M 35.998047 41.003906 C 35.90167 40.999211 35.804254 41.004096 35.708984 41.017578 C 35.327904 41.071508 34.967947 41.269239 34.720703 41.597656 L 26.300781 52.785156 C 25.805994 53.442389 25.940821 54.390277 26.597656 54.884766 L 30.59375 57.890625 C 31.250982 58.385412 32.198871 58.250585 32.693359 57.59375 L 41.113281 46.408203 C 41.608068 45.750971 41.473242 44.803082 40.816406 44.308594 L 36.820312 41.300781 C 36.573851 41.115236 36.287178 41.017991 35.998047 41.003906 z M 35.847656 42.001953 C 35.973176 41.984045 36.106366 42.015003 36.21875 42.099609 L 40.214844 45.107422 C 40.440008 45.276933 40.483665 45.581873 40.314453 45.806641 L 31.894531 56.994141 C 31.72502 57.219305 31.420081 57.261006 31.195312 57.091797 L 27.199219 54.085938 C 26.974054 53.916426 26.930396 53.609533 27.099609 53.384766 L 35.519531 42.199219 C 35.604287 42.086636 35.722136 42.019862 35.847656 42.001953 z M 55.5 47 L 69.5 47 C 69.781469 47 70 47.218531 70 47.5 L 70 52.5 C 70 52.781469 69.781469 53 69.5 53 L 55.5 53 C 55.218531 53 55 52.781469 55 52.5 L 55 47.5 C 55 47.218531 55.218531 47 55.5 47 z M 55.5 54 L 69.5 54 C 69.781469 54 70 54.218531 70 54.5 L 70 59.5 C 70 59.781469 69.781469 60 69.5 60 L 55.5 60 C 55.218531 60 55 59.781469 55 59.5 L 55 54.5 C 55 54.218531 55.218531 54 55.5 54 z M 46.753906 58.146484 C 46.654988 58.155533 46.555383 58.175088 46.457031 58.205078 L 33.0625 62.28125 C 32.275129 62.520885 31.824534 63.365527 32.064453 64.152344 L 33.519531 68.9375 C 33.759166 69.724871 34.605761 70.175466 35.392578 69.935547 L 48.785156 65.859375 C 49.572527 65.61974 50.025076 64.775098 49.785156 63.988281 L 48.330078 59.205078 C 48.120398 58.516129 47.446332 58.083143 46.753906 58.146484 z M 46.947266 59.142578 C 47.141596 59.161541 47.311272 59.293125 47.373047 59.496094 L 48.828125 64.279297 C 48.910205 64.54848 48.764765 64.821931 48.494141 64.904297 L 35.099609 68.978516 C 34.830426 69.060596 34.558929 68.915156 34.476562 68.644531 L 33.021484 63.861328 C 32.939404 63.592145 33.084844 63.320647 33.355469 63.238281 L 46.748047 59.162109 C 46.815343 59.141589 46.882489 59.136257 46.947266 59.142578 z M 55.5 61 L 69.5 61 C 69.781469 61 70 61.218531 70 61.5 L 70 66.5 C 70 66.781469 69.781469 67 69.5 67 L 55.5 67 C 55.218531 67 55 66.781469 55 66.5 L 55 61.5 C 55 61.218531 55.218531 61 55.5 61 z"/></svg>