<svg xmlns="http://www.w3.org/2000/svg" viewBox="0 0 64 64"><radialGradient id="J0mItA1m1tLXupWW__UcGa" cx="32.5" cy="31.5" r="30.516" gradientUnits="userSpaceOnUse" spreadMethod="reflect"><stop offset="0" stop-color="#afeeff"/><stop offset=".193" stop-color="#bbf1ff"/><stop offset=".703" stop-color="#d7f8ff"/><stop offset="1" stop-color="#e1faff"/></radialGradient><path fill="url(#J0mItA1m1tLXupWW__UcGa)" d="M59,20h1.5c2.168,0,3.892-1.998,3.422-4.243C63.58,14.122,62.056,13,60.385,13L53,13 c-1.105,0-2-0.895-2-2c0-1.105,0.895-2,2-2h3.385c1.67,0,3.195-1.122,3.537-2.757C60.392,3.998,58.668,2,56.5,2H34.006H32.5h-24 C6.575,2,5,3.575,5,5.5S6.575,9,8.5,9H10c1.105,0,2,0.895,2,2c0,1.105-0.895,2-2,2l-5.385,0c-1.67,0-3.195,1.122-3.537,2.757 C0.608,18.002,2.332,20,4.5,20H20v12L4.615,32c-1.67,0-3.195,1.122-3.537,2.757C0.608,37.002,2.332,39,4.5,39H5c1.105,0,2,0.895,2,2 c0,1.105-0.895,2-2,2H4.5c-2.168,0-3.892,1.998-3.422,4.243C1.42,48.878,2.945,50,4.615,50H10c1.105,0,2,0.895,2,2 c0,1.105-0.895,2-2,2l-1.385,0c-1.67,0-3.195,1.122-3.537,2.757C4.608,59.002,6.332,61,8.5,61h22.494H32.5h23 c1.925,0,3.5-1.575,3.5-3.5S57.425,54,55.5,54H55c-1.105,0-2-0.895-2-2c0-1.105,0.895-2,2-2h4.385c1.67,0,3.195-1.122,3.537-2.757 C63.392,44.998,61.668,43,59.5,43H47V31h12.385c1.67,0,3.195-1.122,3.537-2.757C63.392,25.998,61.668,24,59.5,24H59 c-1.105,0-2-0.895-2-2C57,20.895,57.895,20,59,20z"/><linearGradient id="J0mItA1m1tLXupWW__UcGb" x1="32" x2="32" y1="40" y2="11" gradientUnits="userSpaceOnUse" spreadMethod="reflect"><stop offset="0" stop-color="#f29265"/><stop offset=".645" stop-color="#fbb687"/><stop offset="1" stop-color="#ffc595"/></linearGradient><path fill="url(#J0mItA1m1tLXupWW__UcGb)" d="M32 11A14.5 14.5 0 1 0 32 40A14.5 14.5 0 1 0 32 11Z"/><linearGradient id="J0mItA1m1tLXupWW__UcGc" x1="19" x2="19" y1="44" y2="22" gradientUnits="userSpaceOnUse" spreadMethod="reflect"><stop offset="0" stop-color="#ffce76"/><stop offset="1" stop-color="#ffcca0"/><stop offset="1" stop-color="#ffcca0"/></linearGradient><path fill="url(#J0mItA1m1tLXupWW__UcGc)" d="M19 22A11 11 0 1 0 19 44A11 11 0 1 0 19 22Z"/><linearGradient id="J0mItA1m1tLXupWW__UcGd" x1="45" x2="45" y1="44" y2="22" gradientUnits="userSpaceOnUse" spreadMethod="reflect"><stop offset="0" stop-color="#ffce76"/><stop offset="1" stop-color="#ffcca0"/><stop offset="1" stop-color="#ffcca0"/></linearGradient><path fill="url(#J0mItA1m1tLXupWW__UcGd)" d="M45 22A11 11 0 1 0 45 44A11 11 0 1 0 45 22Z"/><linearGradient id="J0mItA1m1tLXupWW__UcGe" x1="32" x2="32" y1="45" y2="19" gradientUnits="userSpaceOnUse" spreadMethod="reflect"><stop offset="0" stop-color="#fff0d6"/><stop offset="1" stop-color="#fff0e2"/></linearGradient><path fill="url(#J0mItA1m1tLXupWW__UcGe)" d="M32 19A13 13 0 1 0 32 45A13 13 0 1 0 32 19Z"/><linearGradient id="J0mItA1m1tLXupWW__UcGf" x1="32" x2="32" y1="35" y2="53" gradientUnits="userSpaceOnUse" spreadMethod="reflect"><stop offset="0" stop-color="#42d778"/><stop offset=".428" stop-color="#3dca76"/><stop offset="1" stop-color="#34b171"/></linearGradient><path fill="url(#J0mItA1m1tLXupWW__UcGf)" d="M48.089,43.568c-2.034-0.813-4.39-1.326-6.913-1.492c0.926-1.641,1.562-3.467,1.812-5.418 c0.125-0.978-0.77-1.819-1.738-1.632C37.464,35.758,34,37,32,40.913c-2-3.913-5.464-5.155-9.25-5.887 c-0.969-0.187-1.864,0.653-1.738,1.632c0.25,1.951,0.886,3.777,1.812,5.418c-2.523,0.166-4.879,0.679-6.913,1.492 c-0.957,0.382-1.211,1.62-0.525,2.39C17.584,48.43,20.849,50,24.504,50c1.42,0,3.233-0.259,4.496-0.694l0.297,2.38 C29.391,52.437,30.029,53,30.786,53h2.428c0.756,0,1.395-0.563,1.488-1.314L35,49.306C36.263,49.741,38.076,50,39.496,50 c3.654,0,6.92-1.57,9.118-4.042C49.299,45.188,49.046,43.95,48.089,43.568z"/></svg>