<svg xmlns="http://www.w3.org/2000/svg" width="512" height="512" viewBox="0 0 512 512"><path fill="#3AB37C" d="M326.6,208c-5.8-12.6-13.7-24.8-22.2-35.8c-5.1-6.6-10.5-13-16.9-18.4c-4.1-3.4-10.2-7.9-15.2-7.8c-7.3,0.2-11.3,8.4-14.8,14.5c-7.2,12.4-12.7,25.6-20,37.9c-12.9,21.7-37,40.1-37.2,67.3c-0.1,21.8,6.5,46.5,21.9,62.6c1.2-3,4.7-4.9,7.4-3.5c2.1-2,4.2-4,6.2-6.1c3.6-3.8,7.1-7.8,10.3-12c-9.1-15.4-17.8-33.8-11.9-51.1c2.3-6.7,12.1-1.7,9.9,4.9c-2.7,7.9,0.5,17.4,3.6,24.7c1.6,3.9,3.5,7.8,5.5,11.5c3.4-5.4,6.4-11,8.8-17c1.4-3.6,2.6-7.3,3.6-11c-4.7-13.4-14.5-25.4-13.9-40.3c0.3-7,11.3-7.9,11-0.8c-0.3,8.5,3.2,16.1,7,23.6c1.7-7.4,3.5-15,4.3-22.5c1.1-10.1,4.5-22,2.9-32.5c-4-0.5-7.3-5.3-3.7-8.9l3-3c3-3,7.7-2.1,9.3,1.8c3.8,9.1,2.9,19.2,1.5,29.1c2.4-3.5,4.7-7.2,5.9-11.3c0.9-2.9,3.3-5,6.4-4.3c2.7,0.5,5.2,3.6,4.3,6.4c-2.4,7.7-6.8,13.9-11.3,20.6c-1.5,2.3-5.1,2.3-7.2,0.9c-0.1,0.7-0.2,1.4-0.2,2.1c-0.9,8.8-3.1,17.7-5,26.4c-0.7,3.1-1.4,6.3-2.1,9.5c2.4-1.5,4.8-2.9,7.2-4.5c4.8-3.1,11-7.2,10.8-13.6c-0.2-7.1,10.8-7.9,11-0.8c0.6,19.2-20.1,23.3-31.4,34.1c-0.8,0.7-1.6,1.2-2.4,1.4c-0.1,0.3-0.2,0.7-0.4,1c-3.3,8.1-7.4,15.8-12.3,23c14.1-3.9,31.4-8.2,34.6-23.1c1.5-6.9,12.3-4.8,10.8,2.1c-5.1,23.9-31.3,27.1-50.6,34.1c-1.8,0.6-3.3,0.4-4.5-0.4c-1.7,2-3.4,3.9-5.2,5.8c-2.8,3-5.8,5.9-8.9,8.7c13.6,14.2,39.6,12.4,54.9,1.9c20.2-13.8,31.9-37.3,37.8-60.5C334.5,253.1,336.2,228.8,326.6,208z"/><path fill="#BCBCBC" d="M429.3,177.3c-10-5.1-19.8-10.3-29.6-15.6c-21.2-11.4-42.8-22-63.9-33.5c-10.6-5.7-21.1-11.7-31.4-17.9c-10.3-6.2-21.2-12.1-31-19.2c-6.3-4.5-11.8-10.2-17.8-15.1c-3.7-3-8.2-7-13.1-8.7c-1,0.7-2.4,1-3.7,1c-0.5,0.5-0.9,0.9-1.4,1.3c-1.3,1.1-2.9,2-4.4,3c-4.5,3.2-8.6,6.8-12.7,10.4c-7.7,6.8-16,13.1-24.2,19.4c-17.2,13.3-34.6,26.4-53.1,37.8c-9.4,5.8-19.2,10.8-28.6,16.5c-8.8,5.4-17.3,11.1-26,16.6c-12.1,7.7-25.6,14.2-37.5,22.6c16-1,32-3.1,48.1-3.6c7-0.2,14.1-0.5,21.2,0.2c5.1,0.5,11.5,1.5,14.5,6.3c1.9,3.1,0.4,6.3-2,7.8c1.1,30.6,6.1,60.8,8.4,91.3c2.4,31.4,4.3,62.8,3.5,94.3c-0.1,5.2-0.8,11.4,1.4,16.3c2.1,4.8,7.2,6.8,12,7.6c11.7,2.1,23.5-0.3,35.3-0.6c32.2-0.8,64.4,0.4,96.7-0.5c30.6-0.8,61.1-5.1,91.7-4.7c0.1-18.7,0.4-37.5,0.1-56.2c-0.4-20.9-1.9-41.6-3.9-62.4c-1-10.6-2.1-21.1-3-31.7c-0.9-9.6-2.3-19.5-2.2-29.1c0.1-5.8,0.2-11.6-0.1-17.5c-0.2-3.3-0.2-11.6-2-13.4c-1.8-1.7-2.1-3.8-1.5-5.6c-0.2-2.2,0.8-4.6,3.3-5.8c12.7-5.9,27.7-3.9,41.2-3.4c10.1,0.4,20.1,0,30.2-0.4C438.9,182.3,434.1,179.8,429.3,177.3z M333.8,295.1c-9.1,22.9-24.2,46-48,55.4c-18.1,7.2-43.9,5-57.9-9.9c-7.5,6.4-15,12.8-21.8,20c-4.8,5.2-13.1-2.1-8.3-7.3c5.5-5.8,11.5-11,17.5-16.2c-12-12.1-19.6-28.7-23.2-45.2c-2.5-11.5-3.8-23.2-2.3-34.9c1.6-12.8,8.6-24.1,16.2-34.2c8.3-11.1,17.4-21.5,24-33.7c6.8-12.5,12.4-25.8,20.2-37.8c4.6-7.1,9.2-14,18-15.8c6.2-1.3,13,0.9,18.3,4.2c14.3,8.8,25.2,23,34.4,36.8c8.4,12.5,17,26.2,20.5,41C347.5,243.2,343.6,270.6,333.8,295.1z"/><path fill="#010101" d="M464.6,184.5h-1.8c-17.4-12.7-37.6-21.5-56.5-31.7c-21.7-11.8-43.9-22.7-65.6-34.4c-10.6-5.7-21.1-11.7-31.4-17.9c-10.3-6.2-21.5-12-31-19.4c-12.1-9.5-24.8-26.2-41.7-25.6c-3,0.1-4.6,2.2-4.9,4.5c-0.6,0.5-1.1,1-1.8,1.5c-9.6,6.3-17.8,14.5-26.8,21.6c-18.6,14.6-37.3,29.1-57,42.1c-9.8,6.5-19.8,12.3-30.1,17.9c-10.1,5.6-19.7,12-29.4,18.3c-18.6,12-39.8,21.4-55.9,37c-4.1,4,0.5,9.4,5.1,9c0.4,0.1,0.9,0.2,1.4,0.2c19.8-0.1,39.4-3.7,59.2-4c5.4-0.1,10.7-0.4,16-0.3c2,0,6.3,0.1,9.3,0.6c-0.4,0.7-0.5,1.6-0.5,2.6c1,32.2,6.5,64.1,8.8,96.2c1.2,16.2,2.1,32.4,3,48.6c0.9,14.9,0.4,29.6,0.1,44.5c-0.3,11.3,1.8,21.8,12.3,27.9c10.1,5.8,23.6,4.7,34.7,3.9c30.2-2.2,60.4-1.4,90.7-1.3c19.6,0.1,39.2-0.8,58.8-2.2c19.2-1.4,38.4-3.1,57.6-2.5c3.2,0.1,5.1-3.2,5.1-5.9c0-21.4,0.5-42.8,0.1-64.2c-0.4-22.2-2.3-44.3-4.4-66.4c-1.9-19.3-4.9-39-4.6-58.4c0.1-6.6,0.1-13.2-0.6-19.8c-0.3-3.1-0.7-6.5-1.9-9.5c11-3.1,23.4-1.2,34.5-0.9c16.6,0.6,33.2-0.9,49.8-0.9C472.5,195.5,471.6,184.5,464.6,184.5z M413.4,185.4c-13.5-0.5-28.5-2.5-41.2,3.4c-2.5,1.2-3.5,3.5-3.3,5.8c-0.6,1.8-0.3,3.9,1.5,5.6c1.9,1.8,1.9,10.1,2,13.4c0.3,5.8,0.2,11.6,0.1,17.5c-0.1,9.7,1.3,19.5,2.2,29.1c1,10.6,2,21.1,3,31.7c2,20.8,3.5,41.5,3.9,62.4c0.3,18.7,0,37.5-0.1,56.2c-30.6-0.5-61.1,3.8-91.7,4.7c-32.2,0.9-64.4-0.3-96.7,0.5c-11.8,0.3-23.6,2.7-35.3,0.6c-4.8-0.8-10-2.9-12-7.6c-2.2-4.9-1.5-11.1-1.4-16.3c0.8-31.5-1.1-62.9-3.5-94.3c-2.3-30.5-7.3-60.7-8.4-91.3c2.4-1.5,3.9-4.6,2-7.8c-2.9-4.8-9.4-5.7-14.5-6.3c-7-0.7-14.1-0.5-21.2-0.2c-16.1,0.5-32.1,2.6-48.1,3.6c11.9-8.4,25.3-14.9,37.5-22.6c8.7-5.5,17.2-11.2,26-16.6c9.4-5.7,19.2-10.7,28.6-16.5c18.5-11.4,36-24.5,53.1-37.8c8.2-6.3,16.4-12.5,24.2-19.4c4.1-3.6,8.3-7.2,12.7-10.4c1.4-1,3-1.9,4.4-3c0.5-0.4,1-0.9,1.4-1.3c1.3,0.1,2.6-0.3,3.7-1c4.9,1.7,9.5,5.7,13.1,8.7c6,4.9,11.5,10.6,17.8,15.1c9.8,7,20.7,13,31,19.2c10.3,6.2,20.8,12.2,31.4,17.9c21.1,11.5,42.7,22.1,63.9,33.5c9.8,5.3,19.7,10.5,29.6,15.6c4.8,2.5,9.6,5,14.3,7.8C433.5,185.4,423.5,185.8,413.4,185.4z"/><path fill="#010101" d="M341.4,217.4c-3.5-14.8-12.1-28.5-20.5-41c-9.2-13.8-20.1-27.9-34.4-36.8c-5.3-3.3-12-5.5-18.3-4.2c-8.8,1.8-13.4,8.7-18,15.8c-7.7,12-13.3,25.3-20.2,37.8c-6.7,12.3-15.7,22.6-24,33.7c-7.6,10.1-14.6,21.5-16.2,34.2c-1.4,11.7-0.2,23.5,2.3,34.9c3.6,16.6,11.2,33.1,23.2,45.2c-6.1,5.2-12.1,10.4-17.5,16.2c-4.9,5.2,3.4,12.4,8.3,7.3c6.8-7.2,14.3-13.5,21.8-20c14,14.9,39.8,17.1,57.9,9.9c23.8-9.5,38.9-32.5,48-55.4C343.6,270.6,347.5,243.2,341.4,217.4z M329,274.8c-5.9,23.2-17.6,46.7-37.8,60.5c-15.3,10.4-41.4,12.2-54.9-1.9c3.1-2.8,6.1-5.7,8.9-8.7c1.8-1.9,3.5-3.8,5.2-5.8c1.2,0.8,2.7,1,4.5,0.4c19.2-7.1,45.4-10.3,50.6-34.1c1.5-6.9-9.3-9-10.8-2.1c-3.2,15-20.5,19.2-34.6,23.1c4.9-7.2,9.1-14.9,12.3-23c0.1-0.3,0.2-0.7,0.4-1c0.9-0.2,1.7-0.7,2.4-1.4c11.3-10.8,31.9-14.9,31.4-34.1c-0.2-7.1-11.2-6.2-11,0.8c0.2,6.4-6.1,10.5-10.8,13.6c-2.4,1.6-4.8,3-7.2,4.5c0.7-3.2,1.4-6.3,2.1-9.5c1.9-8.7,4.1-17.6,5-26.4c0.1-0.7,0.2-1.4,0.2-2.1c2.1,1.4,5.7,1.4,7.2-0.9c4.5-6.6,8.9-12.8,11.3-20.6c0.9-2.9-1.6-5.9-4.3-6.4c-3.2-0.6-5.6,1.5-6.4,4.3c-1.3,4.1-3.5,7.7-5.9,11.3c1.4-9.9,2.3-20-1.5-29.1c-1.6-3.9-6.3-4.8-9.3-1.8l-3,3c-3.6,3.6-0.3,8.4,3.7,8.9c1.6,10.5-1.8,22.4-2.9,32.5c-0.8,7.5-2.6,15.1-4.3,22.5c-3.8-7.5-7.3-15.1-7-23.6c0.3-7.1-10.7-6.2-11,0.8c-0.6,14.9,9.2,26.8,13.9,40.3c-1,3.8-2.2,7.5-3.6,11c-2.4,6-5.4,11.6-8.8,17c-2-3.7-3.9-7.6-5.5-11.5c-3.1-7.3-6.3-16.8-3.6-24.7c2.3-6.6-7.6-11.6-9.9-4.9c-5.9,17.3,2.8,35.7,11.9,51.1c-3.2,4.2-6.7,8.1-10.3,12c-2,2.1-4,4.1-6.2,6.1c-2.7-1.4-6.2,0.5-7.4,3.5c-15.4-16.1-22-40.8-21.9-62.6c0.2-27.1,24.3-45.5,37.2-67.3c7.3-12.3,12.9-25.6,20-37.9c3.5-6.1,7.6-14.3,14.8-14.5c5-0.1,11.1,4.4,15.2,7.8c6.4,5.4,11.9,11.8,16.9,18.4c8.5,11,16.4,23.2,22.2,35.8C336.2,228.8,334.5,253.1,329,274.8z"/></svg>