<svg xmlns="http://www.w3.org/2000/svg" viewBox="0 0 48 48"><path fill="#81d4fa" d="M10,42h28c2.2,0,4-1.8,4-4V15.7c0-1.6-1-3.1-2.6-3.7L24,6L8.6,12C7,12.6,6,14.1,6,15.7V38	C6,40.2,7.8,42,10,42z"/><path fill="#795548" d="M11.341,28.161l18.787-5.226l-0.804-2.89l-18.787,5.226c-0.798,0.222-1.265,1.049-1.043,1.847l0,0	C9.716,27.916,10.543,28.383,11.341,28.161z"/><rect width="7" height="11" x="27.671" y="15.588" fill="#5d4037" transform="rotate(-15.549 31.172 21.091)"/><path fill="#795548" d="M33.123,16.912l-5.78,1.608c-0.798,0.222-1.625-0.245-1.847-1.043v0	c-0.222-0.798,0.245-1.625,1.043-1.847l5.78-1.608c0.798-0.222,1.625,0.245,1.847,1.043v0C34.388,15.863,33.921,16.69,33.123,16.912	z"/><path fill="#795548" d="M35.803,26.546l-5.78,1.608c-0.798,0.222-1.625-0.245-1.847-1.043l0,0	c-0.222-0.798,0.245-1.625,1.043-1.847l5.78-1.608c0.798-0.222,1.625,0.245,1.847,1.043l0,0	C37.068,25.497,36.601,26.324,35.803,26.546z"/><path fill="#795548" d="M25,37h13v-1.938C38,33.923,37.077,33,35.938,33h-8.876C25.923,33,25,33.923,25,35.062V37z"/></svg>