<svg xmlns="http://www.w3.org/2000/svg" xmlns:xlink="http://www.w3.org/1999/xlink" width="512" height="512" viewBox="0 0 512 512"><path fill="#65A844" d="M504.1,256c0,137-111.1,248.1-248.1,248.1C119,504.1,7.9,393,7.9,256C7.9,119,119,7.9,256,7.9C393,7.9,504.1,119,504.1,256"/><path fill="#E9DEDB" d="M214.6 351.9H243V391.09999999999997H214.6z"/><path fill="#F6E9E5" d="M268.9 351.9H297.29999999999995V391.09999999999997H268.9z"/><path fill="#3C3D3C" d="M228.5 396.2c1.2 0 2.2 1 2.2 2.2v5.4h22.9c0-13.7-11.1-24.7-24.7-24.7-13.6 0-24.7 11.1-24.7 24.7h22.2v-5.4C226.4 397.2 227.3 396.2 228.5 396.2M282.9 396.2c1.2 0 2.2 1 2.2 2.2v5.4h22.9c0-13.7-11.1-24.7-24.7-24.7-13.6 0-24.7 11.1-24.7 24.7h22.2v-5.4C280.7 397.2 281.6 396.2 282.9 396.2"/><defs><path id="7JoG7RMWPKj5YX~sichPza" d="M169 219.5H342.9V328.1H169z"/></defs><clipPath id="7JoG7RMWPKj5YX~sichPzb"><use overflow="visible" xlink:href="#7JoG7RMWPKj5YX~sichPza"/></clipPath><path fill="#C5CBD4" d="M256,328c41.2,0,75.9-20.9,87-49.4c-11.1-38.2-45.8-59.1-87-59.1s-75.9,20.9-87,59.1C180.1,307.2,214.8,328,256,328" clip-path="url(#7JoG7RMWPKj5YX~sichPzb)"/><path fill="#E9DEDB" d="M343,278.6c-11.1-38.2-45.8-59.1-87-59.1c-41.2,0-75.9,20.9-87,59.1c-2.4,8.3-3.7,17.4-3.7,27.3c0,38.1,40.6,69,90.7,69c24.6,0,46.9-7.5,63.3-19.6c16.2-12,26.5-28.6,27.3-47c0-0.8,0.2-1.5,0.2-2.3C346.7,295.9,345.4,286.9,343,278.6"/><path fill="#3C3D3C" d="M346.5 308.2c-6.8-9-26.5-.3-29.8 6.8-3.3 7.2-13.5 9.2-15.4 17.4-1.9 8.2 4.5 15.9 4.5 15.9 4.1 4.2 8.8 6.2 13.5 6.9C335.5 343.2 345.7 326.6 346.5 308.2M207.6 333.9c0 0-5.9-6.3-2.1-12.5 3.7-6.3 13.8 2.2 13.8 2.2s9.6 6.3 12.2 7.1c10.2 3.1 8.7 13.3-3.5 18.2C219.3 352.4 207.6 333.9 207.6 333.9M124.1 122.1c0 0 8 55.3 39.2 55.3h41.6c0 0-14.3-55.3-45.5-55.3H124.1z"/><path fill="#D76D7A" d="M138.4,131.9c0,0,5.2,35.7,25.3,35.7h26.9c0,0-9.3-35.7-29.4-35.7H138.4z"/><path fill="#3C3D3C" d="M387.9,122.1c0,0-8.1,55.3-39.2,55.3h-41.6c0,0,14.3-55.3,45.5-55.3H387.9z"/><path fill="#D76D7A" d="M373.6,131.9c0,0-5.2,35.7-25.3,35.7h-26.9c0,0,9.2-35.7,29.4-35.7H373.6z"/><path fill="#3C3D3C" d="M271.1,196.2c-1.4-48.4,29.3-68.7,32.2-70.5c11.9,10.1,20.1,23.6,22.3,38c0,0.3,0.1,0.7,0.2,1c0,0,3.1,13.4,4.3,20.2c2.6,14,5.8,24.6,7.3,37.4C336.8,222.6,272.6,246.8,271.1,196.2"/><path fill="#F6E9E5" d="M338.3,235.6c0-1.3-0.1-2.4-0.1-3.6c-0.1-3.4-0.4-6.5-0.7-9.6c-0.7,0.3-64.9,24.4-66.4-26.1c-1.4-48.4,29.3-68.7,32.2-70.5c-12.5-10.6-33.6-17.4-47.4-17.5v0l0,0l0,0v0c-20.7,0.1-35.1,6.9-47.6,17.5c2.9,1.8,33.5,22.1,32.1,70.5c-1.4,50.5-65.7,26.4-66.4,26.1c-0.3,3.1-0.6,6.2-0.7,9.6c0,1.2,0.7,3.1,0.7,4.4c0,41.1,34.4,75.5,83.1,75.5h-1.2v-2.5C304.1,309.1,338.3,276.7,338.3,235.6"/><path fill="#3C3D3C" d="M240.4,196.2c1.4-48.4-29.3-68.7-32.2-70.5c-11.9,10.1-20.1,23.6-22.3,38c-0.1,0.3-0.1,0.7-0.2,1c0,0-3.1,13.4-4.3,20.2c-2.6,14-5.8,24.6-7.3,37.4C174.7,222.6,238.9,246.8,240.4,196.2"/><path fill="#F09D9E" d="M324.2,270.7c0,24.6-30.5,44.6-68.2,44.6c-37.6,0-68.2-20-68.2-44.6s30.5-44.6,68.2-44.6C293.6,226.1,324.2,246.1,324.2,270.7"/><path fill="#D76D7A" d="M225.1 263.8c0 5.4-4.4 9.8-9.8 9.8-5.4 0-9.8-4.4-9.8-9.8 0-5.4 4.4-9.8 9.8-9.8C220.7 254 225.1 258.4 225.1 263.8M306.7 263.8c0 5.4-4.4 9.8-9.8 9.8-5.4 0-9.8-4.4-9.8-9.8 0-5.4 4.4-9.8 9.8-9.8C302.3 254 306.7 258.4 306.7 263.8"/><path fill="#F5EFF1" d="M313.5,182.6c0,8.5-6.9,15.5-15.5,15.5c-8.5,0-15.5-6.9-15.5-15.5c0-8.5,6.9-15.5,15.5-15.5C306.6,167.1,313.5,174,313.5,182.6"/><path fill="#3C3D3C" d="M308.9,182.6c0,6-4.9,10.9-10.9,10.9c-6,0-10.9-4.9-10.9-10.9c0-6,4.9-10.9,10.9-10.9C304,171.7,308.9,176.5,308.9,182.6"/><path fill="#F6E9E5" d="M234.3,182.6c0,8.5-6.9,15.5-15.5,15.5c-8.5,0-15.5-6.9-15.5-15.5c0-8.5,6.9-15.5,15.5-15.5C227.3,167.1,234.3,174,234.3,182.6"/><path fill="#3C3D3C" d="M229.7,182.6c0,6-4.9,10.9-10.9,10.9c-6,0-10.9-4.9-10.9-10.9c0-6,4.9-10.9,10.9-10.9C224.8,171.7,229.7,176.5,229.7,182.6"/><path fill="#FFF" d="M226.8 179.3c0 2.2-1.8 4-4 4-2.2 0-4-1.8-4-4 0-2.2 1.8-4 4-4C225 175.3 226.8 177.1 226.8 179.3M305.3 179.3c0 2.2-1.8 4-4 4-2.2 0-4-1.8-4-4 0-2.2 1.8-4 4-4C303.6 175.3 305.3 177.1 305.3 179.3"/></svg>