<svg xmlns="http://www.w3.org/2000/svg" viewBox="0 0 64 64"><path d="M 29.947266 2.0019531 C 29.614093 1.9950733 29.262174 1.9959143 28.894531 2.0273438 A 1.0001 1.0001 0 0 0 28.742188 3.9960938 C 28.693638 3.9842207 29.092355 4.1984316 29.390625 4.4980469 C 29.688895 4.7976622 29.972667 5.2053634 29.994141 5.2480469 C 30.621359 6.4974468 30.41918 7.3563688 29.685547 8.3613281 C 28.951913 9.3662875 27.576962 10.366094 26.013672 11.193359 C 24.450382 12.020625 22.71215 12.692255 21.277344 13.181641 C 19.842538 13.671026 18.759855 13.96279 18.306641 14.105469 C 16.28916 14.739301 14.838532 16.234061 14.234375 18 L 13.003906 18 C 11.90839 18 11 18.90839 11 20.003906 L 11 23.996094 C 11 24.061884 11.063922 24.101732 11.070312 24.166016 C 7.6789615 24.589982 5 27.386045 5 30.888672 L 5 51.111328 C 5 54.903714 8.0962864 58 11.888672 58 L 52.111328 58 C 55.903714 58 59 54.903714 59 51.111328 L 59 30.888672 C 59 27.386045 56.321041 24.589982 52.929688 24.166016 C 52.936084 24.101732 53 24.061882 53 23.996094 L 53 20.003906 C 53 18.90839 52.09161 18 50.996094 18 L 49.996094 18 C 49.95503 13.984037 47.700749 10.029057 44.25 7.0546875 C 40.767355 4.0528248 36.02299 2.0234375 30.886719 2.0234375 C 30.594866 2.0234375 30.280439 2.008833 29.947266 2.0019531 z M 31.582031 4.0917969 C 35.921429 4.268624 39.966335 6.0042688 42.943359 8.5703125 C 46.046366 11.244946 47.949837 14.73668 47.992188 18 L 16.419922 18 C 16.911636 17.115332 17.75147 16.376469 18.90625 16.013672 C 19.209035 15.918352 20.42779 15.584489 21.923828 15.074219 C 23.419866 14.563948 25.242134 13.864297 26.949219 12.960938 C 28.656303 12.057578 30.259821 10.966963 31.300781 9.5410156 C 32.341741 8.115065 32.710532 6.2007095 31.78125 4.3496094 C 31.73558 4.2588282 31.636245 4.1791147 31.582031 4.0917969 z M 13.003906 20 L 14.730469 20 A 1.0001 1.0001 0 0 0 15.251953 20 L 50.996094 20 C 51.008574 20 51 19.991406 51 20.003906 L 51 23.996094 C 51.000006 24.008584 51.008578 24 50.996094 24 L 13.003906 24 C 12.991422 24 13 24.008578 13 23.996094 L 13 20.003906 C 13 19.991422 12.991422 20 13.003906 20 z M 13 25.998047 C 13.0016 25.998051 13.002306 26 13.003906 26 L 50.996094 26 C 50.997694 26 50.9984 25.998147 51 25.998047 L 51 26 L 52.111328 26 C 54.822955 26 57 28.177057 57 30.888672 L 57 51.111328 C 57 53.822943 54.822943 56 52.111328 56 L 11.888672 56 C 9.1770572 56 7 53.822943 7 51.111328 L 7 30.888672 C 7 28.177057 9.1770572 26 11.888672 26 L 13 26 L 13 25.998047 z M 32 32 C 29.933334 32 28.322871 33.307503 27.375 35.013672 C 26.427129 36.719841 26 38.861111 26 41 C 26 43.138889 26.427129 45.280159 27.375 46.986328 C 28.322871 48.692497 29.933334 50 32 50 C 33.813065 50 35.356831 48.829073 36.382812 47.1875 C 37.408795 45.545927 38 43.378026 38 41 C 38 38.621974 37.408795 36.454073 36.382812 34.8125 C 35.356831 33.170927 33.813065 32 32 32 z M 32 34 C 32.948361 34 33.90384 34.61919 34.6875 35.873047 C 35.47116 37.126904 36 38.959748 36 41 C 36 43.040252 35.47116 44.873096 34.6875 46.126953 C 33.90384 47.38081 32.948361 48 32 48 C 30.733334 48 29.843795 47.307503 29.125 46.013672 C 28.406205 44.719841 28 42.861111 28 41 C 28 39.138889 28.406205 37.280159 29.125 35.986328 C 29.843795 34.692497 30.733334 34 32 34 z M 9 39 C 8.447 39 8 39.447 8 40 L 8 42 C 8 42.553 8.447 43 9 43 C 9.553 43 10 42.553 10 42 L 10 40 C 10 39.447 9.553 39 9 39 z M 14 39 C 13.447 39 13 39.447 13 40 L 13 42 C 13 42.553 13.447 43 14 43 C 14.553 43 15 42.553 15 42 L 15 40 C 15 39.447 14.553 39 14 39 z M 19 39 C 18.447 39 18 39.447 18 40 L 18 42 C 18 42.553 18.447 43 19 43 C 19.553 43 20 42.553 20 42 L 20 40 C 20 39.447 19.553 39 19 39 z M 24 39 C 23.447 39 23 39.447 23 40 L 23 42 C 23 42.553 23.447 43 24 43 C 24.553 43 25 42.553 25 42 L 25 40 C 25 39.447 24.553 39 24 39 z M 40 39 C 39.447 39 39 39.447 39 40 L 39 42 C 39 42.553 39.447 43 40 43 C 40.553 43 41 42.553 41 42 L 41 40 C 41 39.447 40.553 39 40 39 z M 45 39 C 44.447 39 44 39.447 44 40 L 44 42 C 44 42.553 44.447 43 45 43 C 45.553 43 46 42.553 46 42 L 46 40 C 46 39.447 45.553 39 45 39 z M 50 39 C 49.447 39 49 39.447 49 40 L 49 42 C 49 42.553 49.447 43 50 43 C 50.553 43 51 42.553 51 42 L 51 40 C 51 39.447 50.553 39 50 39 z M 55 39 C 54.447 39 54 39.447 54 40 L 54 42 C 54 42.553 54.447 43 55 43 C 55.553 43 56 42.553 56 42 L 56 40 C 56 39.447 55.553 39 55 39 z"/></svg>