<svg xmlns="http://www.w3.org/2000/svg" viewBox="0 0 64 64"><radialGradient id="pGdq_T7~mlcneymWnHwWVa" cx="32" cy="34.5" r="30.301" gradientTransform="matrix(1 0 0 -1 0 66)" gradientUnits="userSpaceOnUse"><stop offset="0" stop-color="#afeeff"/><stop offset=".193" stop-color="#bbf1ff"/><stop offset=".703" stop-color="#d7f8ff"/><stop offset="1" stop-color="#e1faff"/></radialGradient><path fill="url(#pGdq_T7~mlcneymWnHwWVa)" d="M60,37L60,37c1.657,0,3-1.343,3-3l0,0c0-1.657-1.343-3-3-3H42v-9h18	c2.335,0,4.22-2.028,3.979-4.41c-0.21-2.075-2.082-3.59-4.168-3.59H55.5c-1.381,0-2.5-1.119-2.5-2.5l0,0c0-1.381,1.119-2.5,2.5-2.5	H58c1.657,0,3-1.343,3-3l0,0c0-1.657-1.343-3-3-3H46c-1.105,0-25.785,0-27,0H4.189C2.103,3,0.231,4.514,0.021,6.59	C-0.22,8.972,1.665,11,4,11h0.302c1.733,0,3.348,1.166,3.644,2.873C8.329,16.083,6.638,18,4.5,18H4.189	c-2.086,0-3.958,1.514-4.168,3.59C-0.22,23.972,1.665,26,4,26h18v16H3c-1.657,0-3,1.343-3,3l0,0c0,1.657,1.343,3,3,3h3l0,0	c1.215,0,2.176,1.083,1.973,2.336C7.813,51.319,6.889,52,5.893,52H4.189c-2.086,0-3.958,1.514-4.168,3.59	C-0.22,57.972,1.665,60,4,60h56c2.209,0,4-1.791,4-4l0,0c0-2.209-1.791-4-4.001-4h-1.896c-0.809-0.021-1.608-0.396-1.923-1.141	C55.564,49.401,56.618,48,58,48h2.385c1.67,0,3.195-1.122,3.537-2.757C64.392,42.998,62.668,41,60.5,41H60c-1.105,0-2-0.895-2-2l0,0	C58,37.895,58.895,37,60,37z"/><linearGradient id="pGdq_T7~mlcneymWnHwWVb" x1="14.243" x2="14.243" y1="63.398" y2="35.506" gradientTransform="matrix(1 0 0 -1 0 66)" gradientUnits="userSpaceOnUse"><stop offset="0" stop-color="#42d778"/><stop offset=".996" stop-color="#34b171"/><stop offset="1" stop-color="#34b171"/></linearGradient><path fill="url(#pGdq_T7~mlcneymWnHwWVb)" d="M19,19c0,2.37,0.64,4.59,1.75,6.5c-2.21-0.01-4.46,0.55-6.51,1.74S10.58,30.09,9.49,32	c-2.25-3.89-2.42-8.83-0.01-13s6.78-6.5,11.27-6.5C19.64,14.41,19,16.63,19,19z"/><linearGradient id="pGdq_T7~mlcneymWnHwWVc" x1="21.343" x2="20.704" y1="-3.415" y2="36.543" gradientTransform="matrix(1 0 0 -1 0 66)" gradientUnits="userSpaceOnUse"><stop offset="0" stop-color="#155cde"/><stop offset=".486" stop-color="#2185e6"/><stop offset="1" stop-color="#2eb5f0"/></linearGradient><path fill="url(#pGdq_T7~mlcneymWnHwWVc)" d="M32,32c-3.59,6.22-11.54,8.35-17.76,4.76c-2.05-1.19-3.66-2.85-4.75-4.76	c1.09-1.91,2.7-3.57,4.75-4.76s4.3-1.75,6.51-1.74C22.99,29.39,27.19,32,32,32z"/><linearGradient id="pGdq_T7~mlcneymWnHwWVd" x1="14.243" x2="14.243" y1="11.638" y2="44.919" gradientTransform="matrix(1 0 0 -1 0 66)" gradientUnits="userSpaceOnUse"><stop offset="0" stop-color="#155cde"/><stop offset=".486" stop-color="#2185e6"/><stop offset="1" stop-color="#2eb5f0"/></linearGradient><path fill="url(#pGdq_T7~mlcneymWnHwWVd)" d="M19,45c0,2.37,0.64,4.59,1.75,6.5c-4.49,0-8.86-2.33-11.27-6.5s-2.24-9.11,0.01-13	c1.09,1.91,2.7,3.57,4.75,4.76s4.3,1.75,6.51,1.74C19.64,40.41,19,42.63,19,45z"/><linearGradient id="pGdq_T7~mlcneymWnHwWVe" x1="26.372" x2="26.372" y1="18.362" y2="70.657" gradientTransform="matrix(1 0 0 -1 0 66)" gradientUnits="userSpaceOnUse"><stop offset="0" stop-color="#155cde"/><stop offset=".486" stop-color="#2185e6"/><stop offset="1" stop-color="#2eb5f0"/></linearGradient><path fill="url(#pGdq_T7~mlcneymWnHwWVe)" d="M27.24,49.76c-2.05,1.18-4.28,1.74-6.49,1.74C19.64,49.59,19,47.37,19,45s0.64-4.59,1.75-6.5	c4.48-0.01,8.84-2.34,11.25-6.5C35.59,38.22,33.46,46.17,27.24,49.76z"/><linearGradient id="pGdq_T7~mlcneymWnHwWVf" x1="26.375" x2="26.375" y1="13.425" y2="48.798" gradientTransform="matrix(1 0 0 -1 0 66)" gradientUnits="userSpaceOnUse"><stop offset="0" stop-color="#155cde"/><stop offset=".486" stop-color="#2185e6"/><stop offset="1" stop-color="#2eb5f0"/></linearGradient><path fill="url(#pGdq_T7~mlcneymWnHwWVf)" d="M32,32c-2.41,4.16-6.77,6.49-11.25,6.5C22.99,34.61,27.19,32,32,32z"/><linearGradient id="pGdq_T7~mlcneymWnHwWVg" x1="32" x2="32" y1="-50.83" y2="26.311" gradientTransform="matrix(1 0 0 -1 0 66)" gradientUnits="userSpaceOnUse"><stop offset="0" stop-color="#ff5840"/><stop offset=".007" stop-color="#ff5840"/><stop offset=".989" stop-color="#fa528c"/><stop offset="1" stop-color="#fa528c"/></linearGradient><path fill="url(#pGdq_T7~mlcneymWnHwWVg)" d="M36.76,49.76c2.05,1.18,4.28,1.74,6.49,1.74C41.01,55.39,36.81,58,32,58s-9.01-2.61-11.25-6.5	c2.21,0,4.44-0.56,6.49-1.74c2.06-1.19,3.67-2.86,4.76-4.78C33.09,46.9,34.7,48.57,36.76,49.76z"/><linearGradient id="pGdq_T7~mlcneymWnHwWVh" x1="-792.905" x2="-791.905" y1="1735.861" y2="1735.861" gradientTransform="rotate(90 23333.988 62583.098) scale(49.4732)" gradientUnits="userSpaceOnUse"><stop offset="0" stop-color="#ff6e59"/><stop offset=".007" stop-color="#ff6e59"/><stop offset=".989" stop-color="#fb689b"/><stop offset="1" stop-color="#fb689b"/></linearGradient><path fill="url(#pGdq_T7~mlcneymWnHwWVh)" d="M32,32c1.182,2.048,1.743,4.284,1.741,6.49c-0.002,2.276-0.603,4.52-1.741,6.491	c1.09,1.92,2.7,3.59,4.76,4.779c2.05,1.18,4.28,1.74,6.49,1.74C44.36,49.59,45,47.37,45,45s-0.64-4.59-1.75-6.5	C38.77,38.49,34.41,36.16,32,32"/><linearGradient id="pGdq_T7~mlcneymWnHwWVi" x1="32" x2="32" y1="-50.83" y2="26.311" gradientTransform="matrix(1 0 0 -1 0 66)" gradientUnits="userSpaceOnUse"><stop offset="0" stop-color="#ff5840"/><stop offset=".007" stop-color="#ff5840"/><stop offset=".989" stop-color="#fa528c"/><stop offset="1" stop-color="#fa528c"/></linearGradient><path fill="url(#pGdq_T7~mlcneymWnHwWVi)" d="M32,44.98c-2.24-3.88-2.4-8.82,0-12.98C34.4,36.16,34.24,41.1,32,44.98z"/><linearGradient id="pGdq_T7~mlcneymWnHwWVj" x1="49.757" x2="49.757" y1="12.915" y2="144.755" gradientTransform="matrix(1 0 0 -1 0 66)" gradientUnits="userSpaceOnUse"><stop offset="0" stop-color="#ff5840"/><stop offset=".007" stop-color="#ff5840"/><stop offset=".989" stop-color="#fa528c"/><stop offset="1" stop-color="#fa528c"/></linearGradient><path fill="url(#pGdq_T7~mlcneymWnHwWVj)" d="M54.52,45c-2.41,4.17-6.78,6.5-11.27,6.5C44.36,49.59,45,47.37,45,45s-0.64-4.59-1.75-6.5	c2.21,0.01,4.46-0.55,6.51-1.74s3.66-2.85,4.75-4.76C56.76,35.89,56.93,40.83,54.52,45z"/><linearGradient id="pGdq_T7~mlcneymWnHwWVk" x1="26.596" x2="25.319" y1="55.501" y2="-11.648" gradientTransform="matrix(1 0 0 -1 0 66)" gradientUnits="userSpaceOnUse"><stop offset="0" stop-color="#42d778"/><stop offset=".996" stop-color="#34b171"/><stop offset="1" stop-color="#34b171"/></linearGradient><path fill="url(#pGdq_T7~mlcneymWnHwWVk)" d="M32,32c-7.18,0-13-5.82-13-13c0-2.37,0.64-4.59,1.75-6.5c2.21,0,4.44,0.56,6.49,1.74	C33.46,17.83,35.59,25.78,32,32z"/><linearGradient id="pGdq_T7~mlcneymWnHwWVl" x1="32" x2="32" y1="7.936" y2="53.717" gradientTransform="matrix(1 0 0 -1 0 66)" gradientUnits="userSpaceOnUse"><stop offset="0" stop-color="#feaa53"/><stop offset=".612" stop-color="#ffcd49"/><stop offset="1" stop-color="#ffde44"/></linearGradient><path fill="url(#pGdq_T7~mlcneymWnHwWVl)" d="M43.25,12.5c-2.21,0-4.44,0.56-6.49,1.74c-2.06,1.19-3.67,2.86-4.76,4.78	c-1.09-1.92-2.7-3.59-4.76-4.78c-2.05-1.18-4.28-1.74-6.49-1.74C22.99,8.61,27.19,6,32,6S41.01,8.61,43.25,12.5z"/><linearGradient id="pGdq_T7~mlcneymWnHwWVm" x1="38.5" x2="38.5" y1="8.83" y2="72.542" gradientTransform="matrix(1 0 0 -1 0 66)" gradientUnits="userSpaceOnUse"><stop offset="0" stop-color="#feaa53"/><stop offset=".612" stop-color="#ffcd49"/><stop offset="1" stop-color="#ffde44"/></linearGradient><path fill="url(#pGdq_T7~mlcneymWnHwWVm)" d="M45,19c0,7.18-5.82,13-13,13c2.4-4.16,2.24-9.1,0-12.98c1.09-1.92,2.7-3.59,4.76-4.78	c2.05-1.18,4.28-1.74,6.49-1.74C44.36,14.41,45,16.63,45,19z"/><linearGradient id="pGdq_T7~mlcneymWnHwWVn" x1="32" x2="32" y1="4.234" y2="42.033" gradientTransform="matrix(1 0 0 -1 0 66)" gradientUnits="userSpaceOnUse"><stop offset="0" stop-color="#feaa53"/><stop offset=".612" stop-color="#ffcd49"/><stop offset="1" stop-color="#ffde44"/></linearGradient><path fill="url(#pGdq_T7~mlcneymWnHwWVn)" d="M32,32c-2.4-4.16-2.24-9.1,0-12.98C34.24,22.9,34.4,27.84,32,32z"/><linearGradient id="pGdq_T7~mlcneymWnHwWVo" x1="43.885" x2="36.991" y1="49.574" y2="-120.851" gradientTransform="matrix(1 0 0 -1 0 66)" gradientUnits="userSpaceOnUse"><stop offset="0" stop-color="#feaa53"/><stop offset=".612" stop-color="#ffcd49"/><stop offset="1" stop-color="#ffde44"/></linearGradient><path fill="url(#pGdq_T7~mlcneymWnHwWVo)" d="M54.51,32c-1.09,1.91-2.7,3.57-4.75,4.76c-2.132,1.23-4.467,1.789-6.76,1.741	C38.603,38.409,34,35,32,32c4.81,0,9.01-2.61,11.25-6.5c2.21-0.01,4.46,0.55,6.51,1.74S53.42,30.09,54.51,32z"/><linearGradient id="pGdq_T7~mlcneymWnHwWVp" x1="49.316" x2="50.465" y1="88.224" y2="-35.989" gradientTransform="matrix(1 0 0 -1 0 66)" gradientUnits="userSpaceOnUse"><stop offset="0" stop-color="#feaa53"/><stop offset=".612" stop-color="#ffcd49"/><stop offset="1" stop-color="#ffde44"/></linearGradient><path fill="url(#pGdq_T7~mlcneymWnHwWVp)" d="M54.51,32c-1.09-1.91-2.7-3.57-4.75-4.76s-4.3-1.75-6.51-1.74C44.36,23.59,45,21.37,45,19	s-0.64-4.59-1.75-6.5c4.49,0,8.86,2.33,11.27,6.5S56.76,28.11,54.51,32z"/><linearGradient id="pGdq_T7~mlcneymWnHwWVq" x1="26.79" x2="26.365" y1="51.866" y2="36.887" gradientTransform="matrix(1 0 0 -1 0 66)" gradientUnits="userSpaceOnUse"><stop offset="0" stop-color="#42d778"/><stop offset=".996" stop-color="#34b171"/><stop offset="1" stop-color="#34b171"/></linearGradient><path fill="url(#pGdq_T7~mlcneymWnHwWVq)" d="M32,32c-4.81,0-9.01-2.61-11.25-6.5C25.23,25.51,29.59,27.84,32,32z"/><linearGradient id="pGdq_T7~mlcneymWnHwWVr" x1="37.38" x2="38.146" y1="58.849" y2="-8.683" gradientTransform="matrix(1 0 0 -1 0 66)" gradientUnits="userSpaceOnUse"><stop offset="0" stop-color="#feaa53"/><stop offset=".612" stop-color="#ffcd49"/><stop offset="1" stop-color="#ffde44"/></linearGradient><path fill="url(#pGdq_T7~mlcneymWnHwWVr)" d="M43.25,25.5C41.01,29.39,36.81,32,32,32C34.41,27.84,38.77,25.51,43.25,25.5z"/><linearGradient id="pGdq_T7~mlcneymWnHwWVs" x1="37.625" x2="37.625" y1="12.915" y2="144.755" gradientTransform="matrix(1 0 0 -1 0 66)" gradientUnits="userSpaceOnUse"><stop offset="0" stop-color="#ff5840"/><stop offset=".007" stop-color="#ff5840"/><stop offset=".989" stop-color="#fa528c"/><stop offset="1" stop-color="#fa528c"/></linearGradient><path fill="url(#pGdq_T7~mlcneymWnHwWVs)" d="M43.25,38.5C38.77,38.49,34.41,36.16,32,32C36.81,32,41.01,34.61,43.25,38.5z"/></svg>