<svg xmlns="http://www.w3.org/2000/svg" viewBox="0 0 40 40"><path fill="#fff" d="M15,38.5c-1.088,0-2.099-0.506-2.772-1.389l-0.087-0.114l-0.134-0.05 C8.713,35.705,6.5,32.512,6.5,29V17.682c0-2.089,1.7-3.79,3.789-3.79h9.422c2.089,0,3.789,1.7,3.789,3.79V29 c0,3.512-2.213,6.705-5.507,7.947l-0.134,0.05l-0.087,0.114C17.099,37.994,16.088,38.5,15,38.5z"/><path fill="#4788c7" d="M19.711,14.393c1.814,0,3.289,1.476,3.289,3.289V29c0,3.305-2.083,6.31-5.183,7.479l-0.268,0.101 l-0.174,0.228C16.797,37.566,15.931,38,15,38s-1.797-0.434-2.375-1.192l-0.174-0.228l-0.268-0.101C9.083,35.31,7,32.305,7,29 V17.682c0-1.814,1.476-3.289,3.289-3.289H19.711 M19.711,13.393h-9.422C7.92,13.393,6,15.313,6,17.682V29 c0,3.853,2.426,7.131,5.83,8.415C12.561,38.372,13.703,39,15,39s2.439-0.628,3.17-1.585C21.574,36.131,24,32.853,24,29V17.682 C24,15.313,22.08,13.393,19.711,13.393L19.711,13.393z"/><path fill="#b6dcfe" d="M25.263,37.658c-2.311,0-4.441-1.041-5.47-1.635c1.249-0.899,3.707-3.19,3.707-7.309v-6.656 c0-3.195-2.877-5.273-3-5.36l-0.459-0.326l-0.27,0.495c-0.021,0.04-2.254,4.024-7.84,4.796C9.229,22.036,6.5,23.949,6.5,27.382 v1.332c0,4.292,3.069,6.788,4.529,7.732c-0.89,0.48-2.652,1.212-5.135,1.212c-3.137,0-4.719-1.411-5.259-2.023 c0.722-0.931,2.721-3.702,2.721-5.777c0-1.083,0.031-2.356,0.064-3.712C3.459,24.591,3.5,22.929,3.5,21.316 C3.5,13.182,7.936,7.5,14.286,7.5c4.426,0,6.261,2.995,6.336,3.123l0.146,0.244l0.285,0.001c3.701,0,7.447,3.01,7.447,8.763 c0,1.877-0.278,3.843-0.548,5.744c-0.232,1.642-0.452,3.193-0.452,4.481c0,2.569,2.513,4.858,3.662,5.771 C30.17,36.308,27.87,37.658,25.263,37.658z"/><path fill="#4788c7" d="M14.286 8c4.12 0 5.837 2.762 5.904 2.874l.29.494h.573c3.452 0 6.947 2.838 6.947 8.263 0 1.842-.276 3.79-.543 5.674C27.222 26.966 27 28.534 27 29.857c0 2.417 2.006 4.568 3.321 5.718-1.109.674-2.987 1.582-5.058 1.582-1.783 0-3.47-.663-4.565-1.215C22.081 34.759 24 32.444 24 28.715v-6.656c0-3.451-3.08-5.675-3.211-5.768l-.916-.644-.541.981c-.086.155-2.155 3.807-7.469 4.541C8.945 21.571 6 23.649 6 27.382v1.332c0 3.902 2.397 6.395 4.044 7.647-.936.391-2.341.796-4.149.796-2.503 0-3.935-.951-4.598-1.563.896-1.204 2.56-3.714 2.56-5.737 0-1.075.031-2.35.064-3.7C3.96 24.574 4 22.937 4 21.316 4 13.476 8.23 8 14.286 8M14.286 7C8.025 7 3 12.45 3 21.316c0 3.02-.143 6.216-.143 8.542S0 35.632 0 35.632s1.621 2.526 5.895 2.526c3.914 0 6.102-1.726 6.102-1.726S7 33.977 7 28.715c0-.754 0-1.098 0-1.332 0-3.097 2.467-4.874 5-5.224 5.927-.819 8.211-5.053 8.211-5.053S23 19.084 23 22.058c0 1.286 0 4.545 0 6.656 0 5.162-4.143 7.312-4.143 7.312s2.991 2.131 6.406 2.131c3.699 0 6.737-2.526 6.737-2.526s-4-2.741-4-5.774c0-2.695 1-6.653 1-10.226 0-6.06-3.967-9.263-7.947-9.263C21.053 10.368 19.076 7 14.286 7L14.286 7zM35 18H36V35.643H35z"/><path fill="#dff0fe" d="M28.5 19.5H38.5V22.5H28.5z"/><path fill="#4788c7" d="M38,20v2h-9v-2H38 M39,19H28v4h11V19L39,19z"/><path fill="#dff0fe" d="M35.5 32.5A3 3 0 1 0 35.5 38.5A3 3 0 1 0 35.5 32.5Z"/><path fill="#4788c7" d="M35.5,33c1.378,0,2.5,1.121,2.5,2.5S36.878,38,35.5,38S33,36.879,33,35.5S34.122,33,35.5,33 M35.5,32c-1.933,0-3.5,1.567-3.5,3.5s1.567,3.5,3.5,3.5s3.5-1.567,3.5-3.5S37.433,32,35.5,32L35.5,32z"/><path fill="#98ccfd" d="M29,24.5c-0.275,0-0.5-0.224-0.5-0.5V9c0-3.033-2.468-5.5-5.5-5.5H9C5.968,3.5,3.5,5.967,3.5,9v15 c0,0.276-0.225,0.5-0.5,0.5H2c-0.275,0-0.5-0.224-0.5-0.5V9c0-4.136,3.364-7.5,7.5-7.5h14c4.136,0,7.5,3.364,7.5,7.5v15 c0,0.276-0.225,0.5-0.5,0.5H29z"/><path fill="#4788c7" d="M23,2c3.86,0,7,3.14,7,7v15h-1V9c0-3.308-2.692-6-6-6H9C5.692,3,3,5.692,3,9v15H2V9 c0-3.86,3.14-7,7-7H23 M23,1H9C4.582,1,1,4.582,1,9v15c0,0.552,0.448,1,1,1h1c0.552,0,1-0.448,1-1V9c0-2.761,2.239-5,5-5h14 c2.761,0,5,2.239,5,5v15c0,0.552,0.448,1,1,1h1c0.552,0,1-0.448,1-1V9C31,4.582,27.418,1,23,1L23,1z"/><g><path fill="#fff" d="M19 22.5A2.5 2.5 0 1 0 19 27.5A2.5 2.5 0 1 0 19 22.5Z"/><path fill="#4788c7" d="M19,23c1.105,0,2,0.895,2,2c0,1.105-0.895,2-2,2s-2-0.895-2-2C17,23.895,17.895,23,19,23 M19,22 c-1.654,0-3,1.346-3,3s1.346,3,3,3s3-1.346,3-3S20.654,22,19,22L19,22z"/></g><g><path fill="#fff" d="M11 22.5A2.5 2.5 0 1 0 11 27.5A2.5 2.5 0 1 0 11 22.5Z"/><path fill="#4788c7" d="M11,23c1.105,0,2,0.895,2,2c0,1.105-0.895,2-2,2s-2-0.895-2-2C9,23.895,9.895,23,11,23 M11,22 c-1.654,0-3,1.346-3,3s1.346,3,3,3s3-1.346,3-3S12.654,22,11,22L11,22z"/></g><path fill="#4788c7" d="M18.5 23A1.5 1.5 0 1 0 18.5 26 1.5 1.5 0 1 0 18.5 23zM11.5 24A1.5 1.5 0 1 0 11.5 27 1.5 1.5 0 1 0 11.5 24z"/></svg>