<svg xmlns="http://www.w3.org/2000/svg" viewBox="0 0 26 26"><path d="M 12 0 L 12 0.40625 C 11.996094 0.4375 11.996094 0.46875 12 0.5 L 12 4 L 5 4 C 5 4 6.515625 6.796875 6 11 C 5.511719 14.96875 3.53125 17 3.53125 17 L 12 17 L 12 19 L 4.3125 19 C 1.976563 19 2 17 2 17 C 2 17 0 18.792969 0 21.5 C 0 24.5 2.375 26 4.5 26 L 21 26 C 23 26 26 25 26 22 C 26 19.996094 24 19.253906 24 17.5 C 24 16.722656 24.433594 16 26 16 C 26 16 25.546875 15 24.34375 15 C 20.820313 15 22.0625 19 19 19 L 13 19 L 13 17 L 20 17 C 20 17 22 15 22 11 C 22 7 20 4 20 4 L 13 4 L 13 2.03125 C 16.535156 2.167969 16.128906 3 18 3 C 20.039063 3 21.9375 1 21.9375 1 C 21.9375 1 21.058594 1.6875 19 1.6875 C 16.699219 1.6875 16.523438 0.203125 12.6875 0.03125 C 12.597656 -0.0078125 12.5 -0.015625 12.40625 0 C 12.386719 0 12.363281 0 12.34375 0 C 12.21875 -0.00390625 12.128906 0 12 0 Z"/></svg>