<svg xmlns="http://www.w3.org/2000/svg" viewBox="0 0 30 30"><path d="M 15.414062 1 C 14.423578 1 13.735273 1.5566397 13.353516 2.1464844 C 8.6236269 2.9360198 5 7.0505105 5 12 L 5 13.986328 A 1.0001 1.0001 0 0 0 4.984375 13.986328 A 1.0001 1.0001 0 0 0 4 15 L 4 17 C 4 18.516667 4.6641977 19.596554 5.3417969 20.189453 C 5.7549533 20.550965 5.9278894 20.556643 6.2050781 20.666016 C 6.4687035 21.347299 7.7723876 24.368329 10.796875 25.978516 C 10.913539 26.660773 11 27.571075 11 29 C 11 29 12.003512 27.982945 12.587891 26.679688 C 13.28621 26.867142 14.046973 26.984447 14.884766 26.994141 A 1.0001 1.0001 0 0 0 15 27 A 1.0001 1.0001 0 0 0 15.119141 26.994141 C 15.955364 26.984138 16.714906 26.866843 17.412109 26.679688 C 17.996488 27.982945 19 29 19 29 C 19 27.571075 19.086461 26.660773 19.203125 25.978516 C 22.227613 24.368329 23.531297 21.347299 23.794922 20.666016 C 24.072111 20.556643 24.245047 20.550965 24.658203 20.189453 C 25.335802 19.596554 26 18.516667 26 17 L 26 15 A 1.0001 1.0001 0 0 0 25 13.986328 L 25 12 C 25 7.4032044 21.872787 3.528118 17.638672 2.3652344 C 17.212558 1.5181506 16.431585 1 15.414062 1 z M 13.322266 4.1777344 C 13.615971 4.6362908 14 5.0190922 14 6 C 14 7.092 13 7.792 13 9 C 13 11.437 16 10.077 16 13 C 16 13 18 13.387 18 11.5 C 18 10.207 17 10.038 17 9 C 17 7.3670781 17.850303 6.9849225 17.974609 4.5742188 C 20.923163 5.7511767 23 8.6226198 23 12 L 23 14 A 1.0001 1.0001 0 0 0 24 15.013672 L 24 17 C 24 17.983333 23.664198 18.403446 23.341797 18.685547 C 23.019396 18.967648 22.757812 19.029297 22.757812 19.029297 L 22.224609 19.162109 L 22.050781 19.683594 C 22.050781 19.683594 21.470801 21.458082 19.957031 22.957031 C 19.984375 22.6875 20 22.375 20 22 C 20 20.976 19 19 17 19 C 17 19 16.012 20 15 20 C 13.988 20 13 19 13 19 C 11 19 10 20.976 10 22 C 10 22.375 10.015625 22.6875 10.042969 22.957031 C 8.5291989 21.458082 7.9492188 19.683594 7.9492188 19.683594 L 7.7753906 19.162109 L 7.2421875 19.029297 C 7.2421875 19.029297 6.9806039 18.967647 6.6582031 18.685547 C 6.3358023 18.403446 6 17.983333 6 17 L 6 15.013672 A 1.0001 1.0001 0 0 0 7 14 L 7 12 C 7 8.145677 9.70274 4.9456814 13.322266 4.1777344 z M 11 15 A 1 1 0 0 0 10 16 A 1 1 0 0 0 11 17 A 1 1 0 0 0 12 16 A 1 1 0 0 0 11 15 z M 19 15 A 1 1 0 0 0 18 16 A 1 1 0 0 0 19 17 A 1 1 0 0 0 20 16 A 1 1 0 0 0 19 15 z M 13 22 L 15 22 L 17 22 C 17.91196 22 17.168669 23.655699 17.029297 24.707031 C 16.41805 24.887025 15.748404 25 15 25 C 14.251596 25 13.58195 24.887025 12.970703 24.707031 C 12.831331 23.655699 12.08804 22 13 22 z"/></svg>