<svg xmlns="http://www.w3.org/2000/svg" viewBox="0 0 48 48"><path fill="#c0e6ed" d="M34.189,31.895c-0.673-2.903-1.652-5.733-2.223-8.658c-0.319-1.636-0.511-3.3-0.956-4.907 c-0.445-1.607-1.23-2.809-2.446-3.949c-0.826-0.774-1.846-1.317-2.907-1.709c-0.452-0.167-0.927-0.309-1.407-0.267 c-1.201,0.106-1.981,1.275-2.58,2.321c-0.858,1.499-1.656,2.625-2.514,4.124c-0.644,1.125-1.289,2.254-1.767,3.459 c-0.416,1.05-0.701,2.146-0.984,3.239c-1.397,5.393-2.799,10.81-3.395,16.349l3.615,0.431l9.125-0.391l9.431,0.625 C35.297,38.918,35.012,35.447,34.189,31.895z"/><path fill="#f26322" d="M37.793,42.563c-0.388-9.575-2.506-18.853-6.294-27.655c-0.494-1.148-1.027-2.302-1.845-3.247 c-1.783-2.058-5.062-2.791-7.389-1.375c-1.722,1.048-3.276,3.081-4.14,4.902c-0.965,2.035-1.474,2.986-2.438,5.021 c-0.445,0.938-0.686,2.48-1.026,3.461c-0.396,1.144-0.644,2.334-0.891,3.519c-0.381,1.829-0.762,3.659-1.143,5.488 c-0.617,2.966-1.238,5.955-1.263,8.985c0.448,1.058,1.645,0.235,1.645,0.235c0.596-5.539,1.998-10.956,3.395-16.349 c0.283-1.093,0.568-2.19,0.984-3.239c0.478-1.205,1.092-3.059,1.735-4.184c0.858-1.499,1.084-1.752,1.942-3.251 c0.599-1.047,1.982-2.363,3.184-2.469c0.48-0.042,0.955,0.1,1.407,0.267c1.062,0.392,2.082,0.935,2.907,1.709 c1.216,1.14,2.001,2.343,2.446,3.949c0.445,1.607,0.636,3.271,0.956,4.907c0.571,2.925,1.551,5.754,2.223,8.658 c0.823,3.552,1.108,7.023,0.993,10.668C35.181,42.563,36.566,43.583,37.793,42.563z"/><path fill="#d6e5e5" d="M43.572,44.413c0.342-0.12,0.562-1.134,0.376-1.444c-0.186-0.311-1.87-0.364-2.229-0.406 c-1.875-0.219-2.603,0.111-4.49,0.233c-3.099,0.2-5.629-0.492-8.729-0.67c-1.803-0.104-3.873-0.272-5.662-0.029 c-5.01,0.682-10.097,0.2-15.129-0.283c-0.442-0.042-0.928-0.105-1.227-0.434c-0.285-0.313-0.316-0.775-0.329-1.198 c-0.142-4.696,0.068-9.402,0.628-14.067c0.307-2.563,0.721-5.147,0.431-7.712c-0.099-0.873-0.278-1.735-0.419-2.602 C6.205,12.177,6.3,8.444,7.071,4.856c-0.57-0.115-2.007-0.262-2.587-0.215c-0.015,5.814,0.156,11.987,0.142,17.8 c-0.017,6.623-0.033,13.245-0.05,19.868c-0.001,0.325,0.005,0.671,0.187,0.94c0.242,0.358,0.714,0.463,1.141,0.533 c4.54,0.741,9.168,0.656,13.767,0.569c1.302-0.025,2.608-0.049,3.897-0.237c1.741-0.254,3.579,0.053,5.338,0.053 c3.282,0,6.282,0.498,9.563,0.432C40.25,44.563,42.019,44.257,43.572,44.413z"/><path fill="#d6e5e5" d="M11.37,23.526c-1.232-0.219-3.013-0.197-4.264-0.154l-0.329,2.021 c1.07-0.029,3.158-0.068,4.091-0.139c0.116-0.009,0.235-0.019,0.34-0.07c0.334-0.164,0.349-0.623,0.506-0.961 c0.059-0.127,0.146-0.256,0.118-0.393C11.793,23.637,11.563,23.561,11.37,23.526z"/><path fill="#010101" d="M44.377,42.711c-0.244-0.406-0.906-0.52-2.298-0.62c-0.133-0.01-0.239-0.018-0.303-0.025 c-1.298-0.152-2.087-0.05-3,0.067c-0.159,0.02-0.333,0.041-0.505,0.062c-0.426-9.483-2.544-18.729-6.313-27.486 c-0.499-1.158-1.059-2.373-1.927-3.376c-2.024-2.336-5.551-2.984-8.026-1.475c-1.925,1.171-3.391,2.734-4.238,4.521 c-0.246,0.518-0.495,1.018-0.739,1.51c-0.729,1.464-1.417,2.846-1.912,4.464c-0.12,0.393-0.238,0.815-0.357,1.244 c-0.182,0.652-0.367,1.319-0.571,1.909c-0.407,1.177-0.661,2.398-0.908,3.58l-1.143,5.488c-0.609,2.929-1.238,5.957-1.271,9.026 c-1.042-0.089-2.08-0.187-3.11-0.285c-0.38-0.036-0.735-0.085-0.906-0.273c-0.164-0.18-0.187-0.531-0.197-0.875 c-0.141-4.658,0.069-9.366,0.624-13.993l0.03-0.245c0.007,0,0.013,0.004,0.021,0.004l0.292,0.004c0.001,0,0.003,0,0.005,0 c0.043,0,0.084-0.006,0.125-0.016c1.061-0.033,2.121-0.091,3.155-0.17c0.139-0.011,0.329-0.025,0.522-0.119 c0.427-0.21,0.554-0.629,0.647-0.935c0.027-0.091,0.053-0.183,0.119-0.32c0.068-0.137,0.184-0.365,0.127-0.646 c-0.042-0.211-0.209-0.582-0.864-0.698c-1.274-0.227-2.557-0.183-3.801-0.143c0.147-1.505,0.224-3.028,0.052-4.545 c-0.068-0.601-0.173-1.195-0.278-1.79c-0.049-0.278-0.099-0.558-0.144-0.837C6.705,12.133,6.797,8.513,7.56,4.961 c0.028-0.131,0.002-0.268-0.071-0.38C7.416,4.47,7.301,4.392,7.169,4.365C6.547,4.24,5.075,4.086,4.444,4.143 C4.185,4.163,3.985,4.379,3.984,4.64c-0.007,2.91,0.032,5.959,0.071,8.907c0.039,2.944,0.078,5.989,0.071,8.893l-0.05,19.868 c0,0.345-0.001,0.816,0.273,1.221c0.386,0.569,1.094,0.685,1.475,0.746c4.603,0.751,9.306,0.66,13.857,0.576 c1.294-0.024,2.632-0.05,3.959-0.242c1.076-0.157,2.234-0.087,3.352-0.019c0.643,0.038,1.284,0.077,1.914,0.077 c1.524,0,3.017,0.111,4.461,0.219c1.454,0.107,2.951,0.219,4.495,0.219c0.205,0,0.41-0.002,0.616-0.006 c0.684-0.014,1.364-0.066,2.032-0.118c1.076-0.083,2.091-0.161,3.012-0.07c0.075,0.01,0.146-0.001,0.216-0.025 c0.272-0.096,0.483-0.347,0.628-0.745C44.487,43.805,44.625,43.127,44.377,42.711z M11.865,41.666 c0.025-2.988,0.649-5.987,1.252-8.888l1.143-5.488c0.24-1.15,0.488-2.34,0.874-3.456c0.21-0.607,0.402-1.295,0.589-1.968 c0.117-0.421,0.232-0.836,0.35-1.22c0.471-1.539,1.142-2.886,1.851-4.312c0.248-0.497,0.499-1.003,0.748-1.527 c0.764-1.609,2.096-3.025,3.854-4.096c2.039-1.239,5.067-0.667,6.751,1.275c0.774,0.895,1.296,2.031,1.764,3.117 c3.727,8.66,5.82,17.804,6.236,27.185c-0.028,0.002-0.05,0.005-0.079,0.007c-0.52,0.034-1.022,0.038-1.516,0.027 c0.099-3.722-0.226-7.176-1.005-10.542c-0.292-1.259-0.645-2.519-0.986-3.737c-0.448-1.601-0.912-3.255-1.233-4.902 c-0.106-0.544-0.198-1.092-0.29-1.64c-0.183-1.088-0.372-2.213-0.674-3.306c-0.454-1.64-1.251-2.929-2.586-4.18 c-0.792-0.742-1.827-1.353-3.076-1.813c-0.499-0.185-1.04-0.348-1.624-0.296c-1.27,0.111-2.564,1.012-3.298,2.294 c-0.425,0.742-0.762,1.281-1.099,1.821c-0.343,0.549-0.687,1.098-1.119,1.854c-0.497,0.868-0.962,2.113-1.373,3.213 c-0.139,0.372-0.271,0.725-0.394,1.034c-0.427,1.079-0.72,2.207-1.002,3.299c-1.371,5.291-2.787,10.761-3.395,16.308 c-0.222-0.016-0.444-0.031-0.665-0.049C11.862,41.677,11.865,41.672,11.865,41.666z M34.682,42.275 c-0.932-0.065-1.846-0.179-2.787-0.3c-1.07-0.139-2.178-0.281-3.367-0.35l-0.606-0.036c-1.647-0.1-3.512-0.212-5.152,0.012 c-3.057,0.415-6.161,0.389-9.245,0.199c0.603-5.463,2.005-10.883,3.364-16.128c0.275-1.062,0.56-2.159,0.964-3.18 c0.125-0.315,0.259-0.675,0.401-1.054c0.397-1.063,0.847-2.269,1.304-3.066c0.425-0.742,0.762-1.281,1.099-1.821 c0.343-0.549,0.687-1.098,1.119-1.854c0.576-1.006,1.564-1.71,2.518-1.794c0.387-0.034,0.8,0.094,1.189,0.237 c1.124,0.415,2.045,0.955,2.738,1.604c1.193,1.119,1.904,2.266,2.306,3.719c0.289,1.042,0.474,2.142,0.652,3.204 c0.094,0.556,0.187,1.112,0.295,1.665c0.33,1.688,0.798,3.361,1.252,4.98c0.338,1.208,0.688,2.457,0.975,3.694 C34.46,35.282,34.776,38.647,34.682,42.275z M7.644,23.893c1.196-0.043,2.434-0.084,3.614,0.122 c-0.057,0.122-0.1,0.258-0.141,0.394c-0.031,0.103-0.089,0.295-0.128,0.325c-0.025,0.011-0.113,0.018-0.161,0.021 c-1.113,0.085-2.257,0.142-3.398,0.173c0.044-0.349,0.085-0.701,0.126-1.053C7.586,23.88,7.613,23.892,7.644,23.893z M43.389,43.896c-0.938-0.067-1.92,0.008-2.955,0.088c-0.649,0.05-1.312,0.102-1.975,0.115c-1.719,0.033-3.394-0.09-5.017-0.211 c-1.462-0.108-2.975-0.221-4.536-0.221c-0.611,0-1.231-0.038-1.854-0.076c-0.638-0.038-1.288-0.078-1.938-0.078 c-0.542,0-1.083,0.027-1.619,0.105c-1.265,0.185-2.571,0.209-3.834,0.232c-4.506,0.084-9.164,0.173-13.678-0.563 c-0.345-0.057-0.681-0.134-0.808-0.32c-0.102-0.15-0.101-0.432-0.101-0.658l0.05-19.868c0.007-2.91-0.032-5.959-0.071-8.907 c-0.036-2.778-0.074-5.646-0.072-8.398c0.446,0.016,1.035,0.07,1.493,0.132c-0.69,3.508-0.75,7.075-0.177,10.612 c0.046,0.284,0.096,0.567,0.146,0.852c0.102,0.574,0.204,1.148,0.269,1.727c0.246,2.175-0.036,4.426-0.308,6.603l-0.123,0.994 c-0.561,4.677-0.773,9.435-0.631,14.142c0.012,0.394,0.032,1.052,0.458,1.519c0.444,0.489,1.109,0.554,1.549,0.597 c4.992,0.478,10.155,0.977,15.245,0.28c1.544-0.209,3.356-0.101,4.957-0.004l0.609,0.036c1.154,0.066,2.243,0.207,3.296,0.344 c1.809,0.232,3.519,0.457,5.494,0.326c0.653-0.042,1.169-0.108,1.642-0.169c0.883-0.112,1.58-0.203,2.758-0.065 c0.071,0.008,0.193,0.018,0.345,0.028c0.785,0.057,1.292,0.122,1.512,0.193C43.524,43.45,43.463,43.737,43.389,43.896z"/><path fill="#d6e5e5" d="M14.253,23.442c1.538,0.026,3.011-0.075,4.549-0.049c0.065,0.001,0.132,0.003,0.189,0.034 c0.131,0.072,0.139,0.255,0.131,0.405c-0.024,0.408-0.048,1.19-0.072,1.598c-0.003,0.047-0.007,0.098-0.038,0.134 c-0.033,0.038-0.086,0.049-0.136,0.055c-0.39,0.049-0.772-0.155-1.164-0.138c-1.477,0.064-2.479-0.111-3.689-0.03 C13.952,24.921,13.85,23.795,14.253,23.442z"/><path fill="#010101" d="M18.749,26.127c-0.218,0-0.419-0.045-0.602-0.085c-0.152-0.034-0.292-0.08-0.415-0.061 c-0.75,0.029-1.369,0.005-1.968-0.021c-0.579-0.025-1.125-0.048-1.709-0.01c-0.258,0.033-0.495-0.172-0.529-0.434 c-0.167-1.268-0.037-2.069,0.396-2.451c0.093-0.082,0.208-0.126,0.339-0.124c0.758,0.012,1.506-0.006,2.253-0.023 c0.76-0.019,1.521-0.036,2.295-0.024c0.088,0.001,0.254,0.004,0.422,0.097c0.282,0.155,0.413,0.448,0.388,0.871 c-0.012,0.202-0.024,0.497-0.036,0.791c-0.012,0.301-0.025,0.602-0.037,0.808c-0.003,0.07-0.014,0.266-0.16,0.433 c-0.104,0.123-0.258,0.2-0.454,0.223C18.871,26.124,18.81,26.127,18.749,26.127z M17.758,24.98c0.222,0,0.425,0.045,0.606,0.085 c0.071,0.016,0.138,0.031,0.201,0.042c0.007-0.155,0.014-0.325,0.021-0.495c0.011-0.271,0.022-0.542,0.033-0.744 c-0.678,0.015-1.378,0.032-2.079,0.049c-0.668,0.017-1.336,0.035-2.016,0.027c-0.047,0.159-0.09,0.468-0.053,0.987 c0.456-0.009,0.887,0.011,1.338,0.029c0.575,0.025,1.173,0.053,1.881,0.021C17.713,24.98,17.735,24.98,17.758,24.98z"/><path fill="#d6e5e5" d="M22.953,23.618C22.912,23.602,22.918,23.591,22.953,23.618 C22.987,23.646,22.963,23.576,22.953,23.618c-0.109,0.451-0.12,0.999-0.149,1.462c-0.004,0.057-0.005,0.119,0.027,0.166 c0.046,0.067,0.14,0.075,0.222,0.077c1.44,0.035,2.881,0.07,4.321,0.104c0.277,0.007,0.596-0.006,0.767-0.224 c0.27-0.345-0.067-0.842-0.016-1.277c0.006-0.053,0.017-0.113-0.016-0.156c-0.027-0.035-0.074-0.045-0.117-0.054 c-1.298-0.243-2.619-0.361-3.939-0.351C23.648,23.369,23.323,23.456,22.953,23.618z"/><path fill="#010101" d="M27.479,25.93c-0.043,0-0.082,0-0.116-0.001l-4.323-0.104c-0.283-0.007-0.492-0.106-0.622-0.295 c-0.132-0.188-0.12-0.392-0.115-0.479l0.015-0.264c0.02-0.354,0.041-0.749,0.111-1.115c-0.003-0.017-0.004-0.033-0.005-0.05 c-0.008-0.196,0.1-0.379,0.274-0.467c0.054-0.027,0.114-0.042,0.175-0.047c0.411-0.166,0.769-0.239,1.175-0.242 c1.351,0.004,2.706,0.111,4.035,0.36c0.065,0.012,0.275,0.049,0.422,0.241c0.155,0.2,0.127,0.424,0.117,0.508 c-0.012,0.098,0.02,0.238,0.05,0.375c0.072,0.323,0.17,0.768-0.138,1.162C28.238,25.892,27.772,25.93,27.479,25.93z M23.318,24.83 l4.068,0.099c0.261,0.011,0.343-0.021,0.366-0.037c0.008-0.039-0.032-0.218-0.056-0.324c-0.028-0.126-0.058-0.263-0.071-0.407 c-1.183-0.205-2.384-0.286-3.569-0.294c-0.233,0.002-0.435,0.035-0.666,0.116C23.351,24.245,23.334,24.541,23.318,24.83z"/><path fill="#d6e5e5" d="M30.86,23.342c-0.06,0.532-0.203,1.142-0.21,1.677c-0.001,0.061,0,0.126,0.031,0.179 c0.055,0.093,0.18,0.112,0.288,0.121c1.424,0.115,2.853,0.172,4.282,0.171c0.297,0,0.619-0.011,0.852-0.196 c0.315-0.251,0.331-0.771,0.078-1.085c-0.212-0.263-0.552-0.382-0.877-0.475C33.901,23.33,32.318,23.246,30.86,23.342z"/><path fill="#010101" d="M35.253,25.99c-1.442,0-2.897-0.058-4.324-0.173c-0.12-0.01-0.484-0.039-0.677-0.363 c-0.104-0.175-0.102-0.354-0.102-0.439c0.004-0.381,0.068-0.772,0.129-1.151c0.032-0.197,0.063-0.393,0.084-0.577 c0.027-0.241,0.223-0.427,0.464-0.443c1.184-0.077,2.946-0.072,4.616,0.41c0.412,0.119,0.833,0.279,1.127,0.642 c0.216,0.268,0.318,0.624,0.279,0.979c-0.036,0.33-0.19,0.618-0.434,0.813C36.034,25.987,35.545,25.989,35.253,25.99z M31.159,24.831c1.381,0.107,2.743,0.159,4.093,0.159c0.171-0.001,0.433-0.001,0.542-0.088c0.032-0.026,0.055-0.077,0.062-0.139 c0.01-0.087-0.015-0.182-0.063-0.24c-0.125-0.155-0.39-0.241-0.627-0.31c-1.354-0.391-2.792-0.44-3.867-0.395 c-0.01,0.067-0.021,0.135-0.032,0.203C31.223,24.295,31.177,24.575,31.159,24.831z"/><path fill="#d6e5e5" d="M44.268,23.577c-0.857-0.07-1.869-0.101-2.726-0.171c-0.805-0.066-1.646-0.127-2.391,0.186 c-0.095,0.04-0.191,0.088-0.257,0.167c-0.094,0.112-0.114,0.266-0.13,0.412c-0.037,0.326-0.068,0.679,0.096,0.963 c0.27,0.468,0.911,0.523,1.451,0.524c1.016,0.002,2.031,0.003,3.047,0.005c0.17,0,0.346,0,0.504-0.064 c0.28-0.113,0.449-0.4,0.56-0.681C44.597,24.474,44.52,23.983,44.268,23.577z"/><path fill="#010101" d="M43.356,26.163l-3.048-0.006c-0.429,0-1.436,0-1.882-0.773c-0.253-0.437-0.197-0.938-0.161-1.269 c0.02-0.169,0.051-0.447,0.245-0.679c0.136-0.161,0.31-0.248,0.445-0.306c0.876-0.366,1.847-0.287,2.627-0.223 c0.424,0.034,0.886,0.06,1.349,0.084c0.472,0.025,0.944,0.051,1.377,0.087c0.158,0.013,0.301,0.1,0.384,0.234 c0.351,0.565,0.421,1.217,0.193,1.789c-0.197,0.497-0.471,0.812-0.838,0.96C43.798,26.163,43.553,26.163,43.356,26.163z M40.55,23.853c-0.421,0-0.838,0.046-1.206,0.2c-0.069,0.039-0.08,0.134-0.084,0.174c-0.025,0.224-0.056,0.504,0.032,0.657 c0.142,0.245,0.648,0.273,1.018,0.273l3.048,0.006c0.115,0,0.246,0,0.315-0.028c0.056-0.022,0.166-0.104,0.283-0.4 c0.083-0.21,0.079-0.449-0.008-0.68c-0.344-0.024-0.707-0.044-1.07-0.063c-0.472-0.025-0.944-0.051-1.377-0.087 C41.195,23.879,40.871,23.853,40.55,23.853z"/></svg>