<?xml version="1.0"?><svg xmlns="http://www.w3.org/2000/svg" viewBox="0 0 128 128">    <path d="M 63.082031 6.0019531 C 48.515665 6.2411194 34.05 11.896875 23 23 C 6 39.9 1.2007813 65.099609 10.800781 87.099609 C 11.300781 88.199609 12.399609 88.900391 13.599609 88.900391 C 13.999609 88.900391 14.400781 88.799219 14.800781 88.699219 C 16.300781 87.999219 17.000391 86.300781 16.400391 84.800781 C 7.7003906 65.000781 11.999219 42.399219 27.199219 27.199219 C 45.899219 8.4992188 75.500391 7.1003906 95.900391 22.900391 L 90.599609 23.5 C 88.999609 23.7 87.8 25.200781 88 26.800781 C 88.2 28.300781 89.5 29.400391 91 29.400391 L 91.400391 29.400391 L 103.40039 28 C 105.00039 27.8 106.1 26.400781 106 24.800781 L 106 24.599609 L 106 24.199219 L 105.40039 13.5 C 105.30039 11.8 103.89922 10.599219 102.19922 10.699219 C 100.49922 10.799219 99.300391 12.200391 99.400391 13.900391 L 99.599609 18 C 88.865234 9.796875 75.934708 5.7909241 63.082031 6.0019531 z M 64 27 C 51.3 27 41 37.3 41 50 C 41 62.7 51.3 73 64 73 C 76.7 73 87 62.7 87 50 C 87 37.3 76.7 27 64 27 z M 64 33 C 73.4 33 81 40.6 81 50 C 81 59.4 73.4 67 64 67 C 54.6 67 47 59.4 47 50 C 47 40.6 54.6 33 64 33 z M 114.30078 38.828125 C 113.90547 38.8375 113.49961 38.924609 113.09961 39.099609 C 111.59961 39.799609 110.89961 41.499609 111.59961 43.099609 C 120.29961 62.899609 116.10078 85.600391 100.80078 100.90039 C 82.100781 119.50039 52.499609 120.89961 32.099609 105.09961 L 37.400391 104.5 C 39.000391 104.3 40.2 102.79922 40 101.19922 C 39.8 99.599219 38.299219 98.399609 36.699219 98.599609 L 24.699219 100 C 23.099219 100.2 21.999609 101.59922 22.099609 103.19922 L 22.099609 103.40039 L 22.099609 103.80078 L 22.699219 114.5 C 22.799219 116.1 24.099219 117.30078 25.699219 117.30078 L 25.900391 117.30078 C 27.600391 117.20078 28.799219 115.79961 28.699219 114.09961 L 28.5 110 C 38.9 117.9 51.5 122 64 122 C 78.9 122 93.7 116.3 105 105 C 122.1 87.9 126.79961 62.699609 117.09961 40.599609 C 116.57461 39.474609 115.48672 38.8 114.30078 38.828125 z M 64 81 C 55.8 81 47.699219 83.200391 40.699219 87.400391 C 39.299219 88.200391 38.799219 90.1 39.699219 91.5 C 40.499219 92.9 42.400781 93.4 43.800781 92.5 C 49.900781 88.9 56.9 87 64 87 C 73.8 87 83.200391 90.599609 90.400391 97.099609 C 91.000391 97.599609 91.700391 97.900391 92.400391 97.900391 C 93.200391 97.900391 93.999609 97.600391 94.599609 96.900391 C 95.699609 95.700391 95.600391 93.799219 94.400391 92.699219 C 86.100391 85.099219 75.3 81 64 81 z"/></svg>