<svg xmlns="http://www.w3.org/2000/svg" viewBox="0 0 128 128"><path fill="#fff" d="M64.3 50.5c-.7-4.9-4.9-8.5-9.9-8.5H37c-5.5 0-10 4.5-10 10v30h6l0 31.7c0 3.3 2.5 6.2 5.8 6.2 3.4.1 6.2-2.6 6.2-6 0 3.4 2.8 6.1 6.2 6 3.3-.1 5.8-3 5.8-6.2L57 82 64.3 50.5zM78 82v12c0 5.5 4.5 10 10 10h0c5.5 0 10-4.5 10-10l3 0v-6c0-3.3-2.7-6-6-6H78zM45 12A10 10 0 1 0 45 32 10 10 0 1 0 45 12z"/><path fill="#444b54" d="M45 35c-7.2 0-13-5.8-13-13S37.8 9 45 9s13 5.8 13 13S52.2 35 45 35zM45 15c-3.9 0-7 3.1-7 7s3.1 7 7 7 7-3.1 7-7S48.9 15 45 15zM51 123c-5 0-9-4-9-9 0-1.7 1.3-3 3-3s3 1.3 3 3c0 1.7 1.3 3 3 3s3-1.3 3-3V82c0-1.7 1.3-3 3-3s3 1.3 3 3v32C60 119 56 123 51 123z"/><path fill="#444b54" d="M39,123c-5,0-9-4-9-9V85h-3c-1.7,0-3-1.3-3-3V52c0-7.2,5.8-13,13-13h17.4c6.5,0,11.9,4.7,12.9,11.1l1.9,12.7C70.6,72.2,78.5,79,88,79c1.7,0,3,1.3,3,3s-1.3,3-3,3c-12.5,0-22.9-9-24.8-21.3L61.3,51c-0.5-3.4-3.5-6-6.9-6H37c-3.9,0-7,3.1-7,7v27h3c1.7,0,3,1.3,3,3v32c0,1.7,1.3,3,3,3s3-1.3,3-3V82c0-1.7,1.3-3,3-3s3,1.3,3,3v32C48,119,44,123,39,123z"/><g><path fill="#444b54" d="M88,107c-7.2,0-13-5.8-13-13v-5c0-1.7,1.3-3,3-3s3,1.3,3,3v5c0,3.9,3.1,7,7,7c1.2,0,2.4-0.3,3.5-0.9c1.4-0.8,3.3-0.3,4.1,1.1c0.8,1.4,0.3,3.3-1.1,4.1C92.5,106.4,90.3,107,88,107z"/><path fill="#444b54" d="M101,107c-1.7,0-3-1.3-3-3V88c0-1.7-1.3-3-3-3h-7c-1.7,0-3-1.3-3-3s1.3-3,3-3h7c5,0,9,4,9,9v16C104,105.7,102.7,107,101,107z"/><path fill="#fff" d="M88 56A7 7 0 1 0 88 70A7 7 0 1 0 88 56Z"/><path fill="#444b54" d="M88,73c-5.5,0-10-4.5-10-10s4.5-10,10-10s10,4.5,10,10S93.5,73,88,73z M88,59c-2.2,0-4,1.8-4,4s1.8,4,4,4s4-1.8,4-4S90.2,59,88,59z"/><g><path fill="#444b54" d="M83,123c-1.7,0-3-1.3-3-3v-16c0-1.7,1.3-3,3-3s3,1.3,3,3v16C86,121.7,84.7,123,83,123z"/></g><g><path fill="#444b54" d="M93,123c-1.7,0-3-1.3-3-3v-17c0-1.7,1.3-3,3-3s3,1.3,3,3v17C96,121.7,94.7,123,93,123z"/></g></g></svg>