<svg xmlns="http://www.w3.org/2000/svg" viewBox="0 0 30 30"><path d="M 16 2 A 2 2 0 0 0 14 4 A 2 2 0 0 0 16 6 A 2 2 0 0 0 18 4 A 2 2 0 0 0 16 2 z M 11 6 A 2 2 0 0 0 9 8 A 2 2 0 0 0 11 10 A 2 2 0 0 0 13 8 A 2 2 0 0 0 11 6 z M 19.859375 7 C 19.748156 7.0017344 19.656156 7.0122969 19.597656 7.0292969 L 15.296875 7.8847656 C 14.954875 8.0037656 14.689031 8.278 14.582031 8.625 L 14.107422 10.828125 L 12.367188 11.697266 A 1.0001 1.0001 0 0 0 12.365234 11.697266 C 11.64925 12.055935 11.065464 12.630815 10.693359 13.339844 A 1.0001 1.0001 0 0 0 10.691406 13.339844 L 9.8769531 14.894531 L 7.5371094 16.113281 A 1.0002691 1.0002691 0 1 0 8.4628906 17.886719 L 11.080078 16.523438 A 1.0001 1.0001 0 0 0 11.503906 16.099609 L 12.462891 14.269531 C 12.506475 14.186483 12.573752 14.121469 12.628906 14.046875 L 13.890625 15.359375 C 13.890625 15.359375 11 21 4 24 C 4 25 6 27 15 27 C 25 27 26 25 26 25 C 20.886 20.455 17.068359 14.429687 17.068359 14.429688 L 16.486328 12.021484 C 16.545799 12.015592 16.604206 12 16.664062 12 L 20 12 A 1.0001 1.0001 0 0 0 20.316406 11.949219 L 22.068359 11.365234 A 1 1 0 0 0 23 12 A 1 1 0 0 0 24 11 A 1 1 0 0 0 23.871094 10.511719 A 1.0001 1.0001 0 0 0 23.046875 8.9960938 A 1.0001 1.0001 0 0 0 22.683594 9.0507812 L 21.867188 9.3242188 C 21.552096 8.648573 20.99145 7.4557043 20.902344 7.34375 C 20.689344 7.076 20.193031 6.9947969 19.859375 7 z M 22.042969 13.480469 L 20.947266 13.845703 C 20.642266 13.947703 20.322 14 20 14 L 18.964844 14 L 19.068359 14.429688 C 19.068359 14.429688 20.412453 16.544937 22.564453 19.210938 L 22.042969 13.480469 z"/></svg>