<svg xmlns="http://www.w3.org/2000/svg" viewBox="0 0 100 100"><circle cx="78" cy="14" r="1" fill="#f1bc19"/><circle cx="50" cy="50" r="38" fill="#f9dbd2"/><circle cx="84" cy="16" r="4" fill="#f1bc19"/><circle cx="14" cy="26" r="2" fill="#ee3e54"/><circle cx="78" cy="77" r="2" fill="#fbcd59"/><circle cx="17" cy="78" r="4" fill="#fbcd59"/><circle cx="24" cy="83" r="2" fill="#ee3e54"/><circle cx="66.483" cy="78.517" r="2.483" fill="#fff"/><circle cx="16" cy="48" r="1" fill="#fff"/><circle cx="86" cy="31" r="1" fill="#f1bc19"/><circle cx="80" cy="66" r="2" fill="#fff"/><path fill="#fabf82" d="M70.297,31.734c-0.692-0.861-2.092-0.769-2.953-0.078l-5.698,4.912l-6.199,1.254 c-1.157-0.136-2.305-0.22-3.449-0.276V34.29H47v3.258c-1.128,0.056-2.252,0.138-3.368,0.267l-6.161-1.247l-5.698-4.912 c-0.861-0.691-2.261-0.783-2.953,0.078c-0.578,0.719-0.502,1.96,0.203,2.594l7.081,6.002L44,41.701V54h11V41.725l8.013-1.395 l7.081-6.002C70.799,33.694,70.875,32.453,70.297,31.734z"/><path fill="#472b29" d="M55.5,54.5h-12V42.122L35.884,40.8l-7.185-6.09c-0.906-0.814-1.027-2.347-0.27-3.289 c0.903-1.123,2.619-0.985,3.656-0.154l5.612,4.838l5.955,1.204c0.878-0.1,1.813-0.177,2.847-0.235v-3.284h5.998v3.281 c1.064,0.061,2.027,0.142,2.928,0.246l5.992-1.212l5.6-4.827c1.05-0.843,2.768-0.979,3.669,0.144l0,0 c0.758,0.942,0.637,2.475-0.259,3.279l-7.195,6.1L55.5,42.146V54.5z M44.5,53.5h10V41.304l8.293-1.443l6.978-5.914 c0.481-0.433,0.555-1.379,0.137-1.898l0,0c-0.505-0.627-1.605-0.519-2.25-0.002l-5.784,4.986l-6.405,1.296l-0.079-0.01 c-1.033-0.122-2.15-0.211-3.415-0.274l-0.476-0.023v-3.231H47.5v3.234l-0.476,0.023c-1.233,0.062-2.325,0.147-3.335,0.265 L43.61,38.32l-6.367-1.288l-5.797-4.997c-0.632-0.508-1.731-0.616-2.237,0.013c-0.418,0.52-0.345,1.466,0.147,1.908l6.967,5.904 l8.177,1.42V53.5z"/><path fill="#a2b3cb" d="M46.143,76.485c-0.402,0-0.682-0.556-0.739-1.078c-0.68-7.946-1.696-20.009-1.703-20.597V38.497 c0.508-0.056,1.012-0.101,1.5-0.141c0.734,1.723,2.397,2.844,4.3,2.844c1.87,0,3.563-1.145,4.298-2.843 c0.531,0.043,1.021,0.087,1.502,0.14v14.414l5.354,0.186l10.202,3.776c0.311,0.122,1.138,0.446,1.206,0.751 c0.023,0.105-0.064,0.339-0.384,0.677l-1.751,1.58c-0.587,0.549-1.088,0.801-1.583,0.801c-0.001,0,0,0-0.001,0 c-0.194,0-0.388-0.038-0.592-0.116l-7.203-2.792H49.3v14.845c0,0.583-0.282,0.979-0.871,1.749l-1.714,1.883 C46.503,76.404,46.307,76.485,46.143,76.485z"/><path fill="#472b29" d="M44.785,39.094C45.719,40.79,47.524,41.9,49.5,41.9c1.976,0,3.781-1.11,4.715-2.806 c0.128,0.011,0.256,0.022,0.385,0.035v13.106v1.353l1.352,0.046l4.564,0.158l9.979,3.691l0.104,0.041 c0.128,0.05,0.395,0.155,0.602,0.261l-1.761,1.592c-0.435,0.407-0.794,0.604-1.097,0.604c-0.107,0-0.218-0.023-0.337-0.068 l-7.083-2.745l-0.244-0.095h-0.262H50h-1.4v1.4v14.145c0,0.343-0.177,0.604-0.725,1.322l-0.024,0.031l-1.6,1.75 c-0.012,0.008-0.024,0.015-0.034,0.021c-0.043-0.077-0.094-0.203-0.114-0.377c-0.674-7.869-1.683-19.841-1.703-20.552V39.129 C44.53,39.117,44.658,39.105,44.785,39.094 M45.678,37.617c-0.896,0.068-1.79,0.145-2.678,0.258v16.938 c0,0.719,1.708,20.672,1.708,20.672c0.104,0.944,0.657,1.701,1.434,1.701c0.316,0,0.67-0.125,1.045-0.415l1.739-1.901 C49.542,74.063,50,73.492,50,72.618V58.474h10.417l7.083,2.745c0.296,0.114,0.577,0.163,0.843,0.163 c0.831,0,1.516-0.48,2.053-0.982l1.791-1.619c1.531-1.625-0.375-2.281-1.177-2.599L60.79,52.401L56,52.235v-14.36 c-0.898-0.116-1.789-0.19-2.678-0.257C52.836,39.279,51.318,40.5,49.5,40.5C47.681,40.5,46.164,39.279,45.678,37.617 L45.678,37.617z"/><g><path fill="#fabf82" d="M49.902,36c3.339,0,6.048-2.739,5.999-6.088c-0.046-3.184-2.727-5.865-5.911-5.911 c-3.35-0.048-6.088,2.661-6.088,5.999C43.902,33.309,46.593,36,49.902,36"/><path fill="#472b29" d="M49.902,36.7c-3.694,0-6.7-3.006-6.7-6.7c0-1.807,0.71-3.5,1.999-4.771 c1.288-1.27,2.999-1.914,4.799-1.929c3.589,0.052,6.55,3.013,6.602,6.602c0.026,1.806-0.659,3.511-1.929,4.799 C53.402,35.99,51.709,36.7,49.902,36.7z M49.9,24.7c-1.399,0-2.716,0.54-3.717,1.526c-1.02,1.005-1.581,2.345-1.581,3.773 c0,2.923,2.377,5.3,5.3,5.3c1.429,0,2.769-0.562,3.773-1.581s1.547-2.368,1.525-3.797c-0.04-2.79-2.431-5.181-5.221-5.221 C49.954,24.7,49.927,24.7,49.9,24.7z"/></g><g><path fill="#472b29" d="M49.856,22.498c3.191,0.265,6.609,2.127,6.421,6.564l-0.5,2.188c0.27-3.515-2.869-3.438-4.266-3.512 c-2.894,0.043-6.144,0.457-6.756-0.238c-0.967-1.195-1.392-2.507-0.981-4C46.134,23.875,46.9,22.406,49.856,22.498z"/><path fill="#472b29" d="M56.46,31.406l-1.381-0.21c0.064-0.839-0.091-1.477-0.463-1.896 c-0.669-0.755-1.999-0.813-2.88-0.852l-0.263-0.012c-0.71,0.012-1.492,0.049-2.244,0.084c-2.846,0.135-4.357,0.171-5-0.559 c-1.2-1.482-1.574-3.039-1.131-4.648l0.166-0.604l0.618,0.099c1.021,0.162,1.677-0.076,2.508-0.375 c0.889-0.32,1.89-0.703,3.486-0.635l0.036,0.002c3.389,0.28,7.272,2.359,7.063,7.291l-0.017,0.127L56.46,31.406z M51.5,27.038 l0.298,0.013c1.019,0.045,2.702,0.118,3.771,1.219c-0.232-3.383-3.051-4.843-5.754-5.072c-1.302-0.021-2.144,0.263-2.949,0.553 c-0.743,0.269-1.511,0.544-2.529,0.508c-0.108,0.962,0.204,1.865,0.962,2.802c0.347,0.229,2.465,0.129,3.864,0.063 C49.931,27.087,50.728,27.05,51.5,27.038z"/></g><g><path fill="#472b29" d="M57.042,53.638h-3c-0.387,0-0.7-0.313-0.7-0.7s0.313-0.7,0.7-0.7h3c0.387,0,0.7,0.313,0.7,0.7 S57.429,53.638,57.042,53.638z"/></g><g><path fill="#472b29" d="M49.292,58.93c-0.387,0-0.7-0.313-0.7-0.7v-2.354c0-0.387,0.313-0.7,0.7-0.7s0.7,0.313,0.7,0.7 v2.354C49.992,58.616,49.679,58.93,49.292,58.93z"/></g><g><path fill="#472b29" d="M47.5,50.75h-3c-0.138,0-0.25-0.112-0.25-0.25s0.112-0.25,0.25-0.25h3c0.138,0,0.25,0.112,0.25,0.25 S47.638,50.75,47.5,50.75z"/></g><g><path fill="#472b29" d="M54.5,50.75h-5c-0.138,0-0.25-0.112-0.25-0.25s0.112-0.25,0.25-0.25h5c0.138,0,0.25,0.112,0.25,0.25 S54.638,50.75,54.5,50.75z"/></g><g><path fill="#472b29" d="M72.5,53.75c-0.028,0-0.058-0.005-0.086-0.015l-4.717-1.716c-0.129-0.048-0.196-0.191-0.149-0.321 c0.048-0.128,0.191-0.193,0.321-0.149l4.717,1.716c0.129,0.048,0.196,0.191,0.149,0.321C72.698,53.687,72.603,53.75,72.5,53.75z"/></g><g><path fill="#472b29" d="M65.123,51.067c-0.028,0-0.058-0.005-0.085-0.015l-3.582-1.303H58.5c-0.138,0-0.25-0.112-0.25-0.25 s0.112-0.25,0.25-0.25l3.085,0.015l3.623,1.317c0.13,0.048,0.197,0.191,0.15,0.32C65.321,51.004,65.226,51.067,65.123,51.067z"/></g><g><path fill="#472b29" d="M41.836,69.441c-0.127,0-0.235-0.096-0.249-0.224l-1.336-12.691 c-0.014-0.138,0.086-0.261,0.223-0.275c0.142-0.012,0.261,0.086,0.275,0.223l1.336,12.691c0.014,0.138-0.086,0.261-0.223,0.275 C41.854,69.441,41.845,69.441,41.836,69.441z"/></g><g><path fill="#472b29" d="M42.5,75.75c-0.127,0-0.235-0.096-0.249-0.224l-0.35-3.321c-0.014-0.138,0.086-0.261,0.223-0.275 c0.144-0.005,0.262,0.086,0.275,0.223l0.35,3.321c0.014,0.138-0.086,0.261-0.223,0.275C42.518,75.75,42.509,75.75,42.5,75.75z"/></g><g><path fill="#472b29" d="M64.5,78h-5c-0.276,0-0.5-0.224-0.5-0.5s0.224-0.5,0.5-0.5h5c0.276,0,0.5,0.224,0.5,0.5 S64.776,78,64.5,78z"/></g><g><path fill="#472b29" d="M55.875,78H35.5c-0.276,0-0.5-0.224-0.5-0.5s0.224-0.5,0.5-0.5h20.375c0.276,0,0.5,0.224,0.5,0.5 S56.151,78,55.875,78z"/></g></svg>