<svg xmlns="http://www.w3.org/2000/svg" viewBox="0 0 24 24"><path d="M 15 3 C 10.398438 3 6.554688 6.449219 6.0625 11 L 2 11 L 2 13 L 12 13 L 12 11 L 8.0625 11 C 8.523438 7.722656 11.207031 5.332031 14.5 5.09375 C 14.3125 5.722656 14 6.304688 14 7 C 14 10.84375 17.15625 14 21 14 C 21.214844 14 21.410156 13.921875 21.625 13.90625 C 20.757813 16.832031 18.214844 19 15 19 L 2 19 L 2 21 L 15 21 C 19.707031 21 23.550781 17.40625 24 12.8125 L 24.15625 11.25 L 22.6875 11.75 C 22.214844 11.90625 21.605469 12 21 12 C 18.246094 12 16 9.753906 16 7 C 16 6.082031 16.257813 5.273438 16.6875 4.5 L 17.5 3 Z M 0 15 L 0 17 L 14 17 L 14 15 Z"/></svg>