<svg xmlns="http://www.w3.org/2000/svg" viewBox="0 0 64 64"><linearGradient id="f0Noi~ZSFtA4ZiLUQY7fda" x1="32" x2="32" y1="984.25" y2="975.746" gradientTransform="matrix(1 0 0 -1 0 990)" gradientUnits="userSpaceOnUse"><stop offset="0" stop-color="#6dc7ff"/><stop offset="1" stop-color="#e6abff"/></linearGradient><path fill="url(#f0Noi~ZSFtA4ZiLUQY7fda)" d="M32 6A4 4 0 1 0 32 14A4 4 0 1 0 32 6Z"/><linearGradient id="f0Noi~ZSFtA4ZiLUQY7fdb" x1="32" x2="32" y1="5.625" y2="57.751" gradientUnits="userSpaceOnUse"><stop offset="0" stop-color="#1a6dff"/><stop offset="1" stop-color="#c822ff"/></linearGradient><path fill="url(#f0Noi~ZSFtA4ZiLUQY7fdb)" d="M42,37V22c0-2.757-2.063-5-4.6-5H26.6c-2.536,0-4.6,2.243-4.6,5v15c0,0.553,0.447,1,1,1h0.218l-0.885,3.536c-0.142,0.62,0.001,1.257,0.392,1.746C23.089,43.738,23.624,44,24.192,44H26v10.5c0,1.93,1.57,3.5,3.5,3.5c0.98,0,1.864-0.407,2.5-1.058C32.636,57.593,33.52,58,34.5,58c1.93,0,3.5-1.57,3.5-3.5V44h2.088c0.568,0,1.104-0.262,1.468-0.718c0.391-0.489,0.533-1.126,0.383-1.784L40.997,38H41C41.553,38,42,37.553,42,37z M29.5,56c-0.827,0-1.5-0.673-1.5-1.5V44h3v10.5C31,55.327,30.327,56,29.5,56z M36,54.5c0,0.827-0.673,1.5-1.5,1.5S33,55.327,33,54.5V44h3V54.5z M37.966,26.74l-1.932,0.52L39.982,42H24.278l3.691-14.757l-1.939-0.486L24,34.873V22c0-1.654,1.166-3,2.6-3H37.4c1.434,0,2.6,1.346,2.6,3v12.297L37.966,26.74z"/><linearGradient id="f0Noi~ZSFtA4ZiLUQY7fdc" x1="29.5" x2="29.5" y1="5" y2="57.443" gradientUnits="userSpaceOnUse"><stop offset="0" stop-color="#1a6dff"/><stop offset="1" stop-color="#c822ff"/></linearGradient><path fill="url(#f0Noi~ZSFtA4ZiLUQY7fdc)" d="M32,5c-2.057,0-3.826,1.25-4.592,3.03C24.376,8.328,22,10.891,22,14c0,0.553,0.447,1,1,1h3c0.544,0,0.988-0.445,1-0.989c0-0.011,0.025-0.719,0.482-1.903C28.28,13.81,29.999,15,32,15c2.757,0,5-2.243,5-5S34.757,5,32,5z M25.125,13h-0.998c0.268-1.036,0.94-1.911,1.84-2.444C25.489,11.573,25.247,12.406,25.125,13z M32,13c-1.654,0-3-1.346-3-3s1.346-3,3-3s3,1.346,3,3S33.654,13,32,13z"/></svg>