<svg xmlns="http://www.w3.org/2000/svg" viewBox="0 0 24 24"><path d="M 16.125 -0.0625 C 15.390625 -0.046875 14.523438 0.507813 14 1.40625 C 13.199219 2.605469 13.292969 4.007813 14.09375 4.40625 C 14.894531 4.90625 16.207031 4.292969 16.90625 3.09375 C 17.605469 1.894531 17.613281 0.59375 16.8125 0.09375 C 16.613281 -0.03125 16.371094 -0.0664063 16.125 -0.0625 Z M 18.53125 3.15625 C 18.078125 3.246094 17.625 3.59375 17.3125 4.09375 C 16.710938 4.894531 16.710938 5.789063 17.3125 6.1875 C 17.914063 6.585938 18.8125 6.207031 19.3125 5.40625 C 19.914063 4.605469 19.914063 3.613281 19.3125 3.3125 C 19.085938 3.164063 18.804688 3.101563 18.53125 3.15625 Z M 12.8125 5.09375 C 11.949219 5.144531 11.101563 5.507813 10.5 6.40625 C 8 10.304688 10.3125 11.605469 8.3125 13.90625 C 5.710938 16.90625 5.199219 15.386719 3 18.1875 C 1.800781 19.6875 1.289063 21.40625 3.6875 23.40625 C 5.289063 24.707031 7.414063 23.792969 8.8125 22.59375 C 10.316406 21.296875 11.652344 20.625 12.9375 20 L 17 20 C 17.601563 20 18 19.601563 18 19 L 18 16.71875 C 18.210938 16.503906 18.402344 16.269531 18.59375 16 C 21.792969 12.300781 18.210938 7.585938 16.3125 6.1875 C 15.75 5.75 14.25 5.007813 12.8125 5.09375 Z M 20.625 6.0625 C 20.207031 6.019531 19.6875 6.238281 19.3125 6.6875 C 18.8125 7.289063 18.695313 8.105469 19.09375 8.40625 C 19.492188 8.707031 20.3125 8.507813 20.8125 7.90625 C 21.3125 7.304688 21.398438 6.488281 21 6.1875 C 20.898438 6.113281 20.765625 6.078125 20.625 6.0625 Z M 14 8.5 L 17 11.09375 L 17 19 L 11 19 L 11 11.09375 Z M 21.28125 9 C 21.03125 9.011719 20.75 9.113281 20.5 9.3125 C 20 9.710938 19.792969 10.292969 20.09375 10.59375 C 20.292969 10.894531 20.898438 10.898438 21.5 10.5 C 22 10.101563 22.207031 9.488281 21.90625 9.1875 C 21.757813 9.039063 21.53125 8.988281 21.28125 9 Z M 14 11 C 13.449219 11 13 11.449219 13 12 C 13 12.550781 13.449219 13 14 13 C 14.550781 13 15 12.550781 15 12 C 15 11.449219 14.550781 11 14 11 Z M 21.03125 11.46875 C 20.820313 11.480469 20.605469 11.539063 20.40625 11.6875 C 20.007813 11.988281 19.792969 12.511719 20.09375 12.8125 C 20.292969 13.113281 20.8125 12.988281 21.3125 12.6875 C 21.710938 12.386719 21.894531 11.894531 21.59375 11.59375 C 21.445313 11.492188 21.242188 11.457031 21.03125 11.46875 Z"/></svg>