<svg xmlns="http://www.w3.org/2000/svg" viewBox="0 0 48 48"><linearGradient id="dyROg6dFuKu4pEC87scTaa" x1="24" x2="24" y1="6.319" y2="41.782" gradientUnits="userSpaceOnUse"><stop offset=".005" stop-color="#ffa8a1"/><stop offset=".18" stop-color="#ff7666"/><stop offset=".252" stop-color="#fb6c59"/><stop offset=".59" stop-color="#ec4023"/><stop offset=".754" stop-color="#e62f0e"/><stop offset="1" stop-color="#a01d08"/></linearGradient><path fill="url(#dyROg6dFuKu4pEC87scTaa)" d="M38,42H10c-2.209,0-4-1.791-4-4V10c0-2.209,1.791-4,4-4h28c2.209,0,4,1.791,4,4v28	C42,40.209,40.209,42,38,42z"/><path fill="#a52510" d="M29.52,14.064c-3.286,0-5.52,2.208-5.52,2.208s-2.222-2.208-5.52-2.208	c-3.658,0-6.624,2.966-6.624,6.624C11.856,27.312,24,33.936,24,33.936s12.144-6.624,12.144-13.248	C36.144,17.03,33.179,14.064,29.52,14.064z"/><path fill="#fff" d="M29.295,14.874c-3.152,0-5.295,2.118-5.295,2.118s-2.131-2.118-5.295-2.118	c-3.509,0-6.354,2.845-6.354,6.354C12.351,27.582,24,33.936,24,33.936s11.649-6.354,11.649-12.708	C35.649,17.719,32.804,14.874,29.295,14.874z"/><path fill="#7f0f06" d="M38,40.085H10c-2.209,0-4-1.791-4-4V38c0,2.209,1.791,4,4,4h28c2.209,0,4-1.791,4-4v-1.915 C42,38.294,40.209,40.085,38,40.085z"/><path fill="#8b1307" d="M38,39.428H10c-2.209,0-4-1.791-4-4v1.915c0,2.209,1.791,4,4,4h28c2.209,0,4-1.791,4-4 v-1.915C42,37.637,40.209,39.428,38,39.428z" opacity=".8"/><path fill="#981708" d="M38,38.77H10c-2.209,0-4-1.791-4-4v1.915c0,2.209,1.791,4,4,4h28c2.209,0,4-1.791,4-4 V34.77C42,36.979,40.209,38.77,38,38.77z" opacity=".6"/><path fill="#a41c08" d="M38,38.113H10c-2.209,0-4-1.791-4-4v1.915c0,2.209,1.791,4,4,4h28c2.209,0,4-1.791,4-4 v-1.915C42,36.322,40.209,38.113,38,38.113z" opacity=".4"/><path fill="#b12009" d="M38,37.455H10c-2.209,0-4-1.791-4-4v1.915c0,2.209,1.791,4,4,4h28c2.209,0,4-1.791,4-4 v-1.915C42,35.664,40.209,37.455,38,37.455z" opacity=".2"/></svg>