<svg xmlns="http://www.w3.org/2000/svg" viewBox="0 0 16 16"><path d="M 12.5 3 C 11.677495 3 11 3.6774952 11 4.5 C 11 5.3225048 11.677495 6 12.5 6 C 13.322505 6 14 5.3225048 14 4.5 C 14 3.6774952 13.322505 3 12.5 3 z M 12.5 4 C 12.782065 4 13 4.2179353 13 4.5 C 13 4.7820647 12.782065 5 12.5 5 C 12.217935 5 12 4.7820647 12 4.5 C 12 4.2179353 12.217935 4 12.5 4 z M 5.5 5 C 4.121 5 3 6.122 3 7.5 L 3 9.375 L 1.0742188 13 L 2.2070312 13 L 3.9414062 9.734375 C 3.9784062 9.662375 4 9.582 4 9.5 L 4 7.5 C 4 6.673 4.673 6 5.5 6 L 8.9335938 6 C 9.5795938 6 10.153422 6.4113906 10.357422 7.0253906 L 12.025391 12.033203 L 12.974609 11.716797 L 11.306641 6.7089844 C 10.964641 5.6869844 10.010594 5 8.9335938 5 L 5.5 5 z M 5.5 7 A 0.50005 0.50005 0 0 0 5.0351562 7.6855469 L 6 10.095703 L 6 13 L 7 13 L 7 10 A 0.50005 0.50005 0 0 0 6.9648438 9.8144531 L 6.2382812 8 L 8.5 8 A 0.5 0.5 0 0 0 9 7.5 A 0.5 0.5 0 0 0 8.5 7 L 5.5 7 z"/></svg>