<svg xmlns="http://www.w3.org/2000/svg" viewBox="0 0 26 26"><path d="M 24 7 L 2 7 C 0.894531 7 0 7.894531 0 9 L 0 17 C 0 18.105469 0.894531 19 2 19 L 24 19 C 25.105469 19 26 18.105469 26 17 L 26 9 C 26 7.894531 25.105469 7 24 7 Z M 9.96875 11.449219 L 8.570313 11.449219 L 8.570313 15.449219 L 7.464844 15.449219 L 7.464844 11.449219 L 6.074219 11.449219 L 6.074219 10.550781 L 9.96875 10.550781 Z M 15.222656 15.449219 L 14.113281 15.449219 L 14.113281 13.453125 L 12.085938 13.453125 L 12.085938 15.449219 L 10.980469 15.449219 L 10.980469 10.550781 L 12.085938 10.550781 L 12.085938 12.503906 L 14.113281 12.503906 L 14.113281 10.550781 L 15.222656 10.550781 Z M 19.632813 15.449219 L 16.691406 15.449219 L 16.691406 10.550781 L 19.519531 10.550781 L 19.519531 11.449219 L 17.796875 11.449219 L 17.796875 12.539063 L 19.398438 12.539063 L 19.398438 13.433594 L 17.796875 13.433594 L 17.796875 14.554688 L 19.632813 14.554688 Z"/></svg>