<svg xmlns="http://www.w3.org/2000/svg" viewBox="0 0 24 24"><path d="M 5.5 5 C 2.460938 5 0 7.460938 0 10.5 C 0 11.679688 0.367188 12.761719 1 13.65625 L 1 20.125 C 1 20.605469 1.394531 21 1.875 21 L 4 21 C 4 22.65625 5.34375 24 7 24 C 8.65625 24 10 22.65625 10 21 L 12.125 21 C 12.605469 21 13 20.605469 13 20.125 L 13 7.875 C 13 7.394531 12.605469 7 12.125 7 L 9.75 7 C 8.742188 5.777344 7.207031 5 5.5 5 Z M 5.5 6.5625 C 7.671875 6.5625 9.4375 8.328125 9.4375 10.5 C 9.4375 12.671875 7.671875 14.4375 5.5 14.4375 C 3.328125 14.4375 1.5625 12.671875 1.5625 10.5 C 1.5625 8.328125 3.328125 6.5625 5.5 6.5625 Z M 5.09375 7.3125 L 4.90625 10.5 L 4.96875 10.875 L 6.96875 12.59375 L 7.375 12.15625 L 5.84375 10.46875 L 5.65625 7.3125 Z M 14.65625 9 C 14.296875 9 14 9.292969 14 9.65625 L 14 20.34375 C 14 20.613281 14.171875 20.839844 14.40625 20.9375 C 14.484375 20.96875 14.566406 21 14.65625 21 L 16 21 C 16 22.65625 17.34375 24 19 24 C 20.65625 24 22 22.65625 22 21 L 23.34375 21 C 23.433594 21 23.515625 20.972656 23.59375 20.9375 C 23.75 20.871094 23.871094 20.75 23.9375 20.59375 C 23.972656 20.515625 24 20.433594 24 20.34375 L 24 15.1875 C 24 15.058594 23.945313 14.953125 23.875 14.84375 L 20.1875 9.28125 C 20.066406 9.101563 19.875 9 19.65625 9 Z M 17 11 L 19.53125 11 L 22.1875 15 L 17 15 Z M 3.90625 15.75 C 4.070313 15.800781 4.238281 15.839844 4.40625 15.875 C 4.585938 15.910156 4.753906 15.949219 4.9375 15.96875 C 4.753906 15.949219 4.582031 15.910156 4.40625 15.875 C 4.234375 15.839844 4.070313 15.800781 3.90625 15.75 Z M 7 19.5 C 7.828125 19.5 8.5 20.171875 8.5 21 C 8.5 21.828125 7.828125 22.5 7 22.5 C 6.171875 22.5 5.5 21.828125 5.5 21 C 5.5 20.171875 6.171875 19.5 7 19.5 Z M 19 19.5 C 19.828125 19.5 20.5 20.171875 20.5 21 C 20.5 21.828125 19.828125 22.5 19 22.5 C 18.171875 22.5 17.5 21.828125 17.5 21 C 17.5 20.171875 18.171875 19.5 19 19.5 Z"/></svg>