<svg xmlns="http://www.w3.org/2000/svg" viewBox="0 0 100 100"><path d="M 36 14 A 1.0001 1.0001 0 0 0 35.105469 14.552734 C 35.105469 14.552734 32.336454 20.090248 29.568359 27.199219 C 26.800264 34.30819 24 42.956667 24 49.5 C 24 54.213852 25.574165 58.715299 29.675781 61.914062 C 33.209744 64.670127 38.523355 66.444198 46.154297 66.884766 C 46.414951 69.085424 47 74.23867 47 76 C 47 75.98611 46.966749 76.169479 46.679688 76.466797 C 46.392621 76.764115 45.904607 77.132554 45.292969 77.503906 C 44.069692 78.24661 42.355969 79.017172 40.634766 79.693359 C 37.192359 81.045733 33.724609 82.039063 33.724609 82.039062 A 1.0001 1.0001 0 0 0 33 83 L 33 84 A 1.0001 1.0001 0 0 0 34 85 L 66 85 A 1.0001 1.0001 0 0 0 67 84 L 67 83 A 1.0001 1.0001 0 0 0 66.275391 82.039062 C 66.275391 82.039062 62.807641 81.045733 59.365234 79.693359 C 57.644031 79.017172 55.930308 78.24661 54.707031 77.503906 C 54.095393 77.132554 53.607378 76.764115 53.320312 76.466797 C 53.033248 76.169479 53 75.986111 53 76 C 53 74.238354 53.584618 69.083476 53.845703 66.884766 C 61.476645 66.444198 66.790256 64.670127 70.324219 61.914062 C 74.425835 58.715298 76 54.213852 76 49.5 C 76 42.95736 73.20684 34.310076 70.445312 27.201172 C 67.683786 20.092267 64.919922 14.552734 64.919922 14.552734 A 1.0001 1.0001 0 0 0 64.025391 14 L 36 14 z M 36.652344 16 L 47.34375 16 L 59.570312 24.462891 L 48.248047 31.068359 A 0.50005 0.50005 0 0 0 48.259766 31.939453 L 58.462891 37.503906 L 50.257812 42.0625 A 0.50005 0.50005 0 0 0 50.179688 42.884766 L 56.179688 47.884766 A 0.50064424 0.50064424 0 1 0 56.820312 47.115234 L 51.380859 42.582031 L 59.742188 37.9375 A 0.50005 0.50005 0 0 0 59.740234 37.060547 L 49.517578 31.484375 L 60.751953 24.931641 A 0.50005 0.50005 0 0 0 60.785156 24.089844 L 49.099609 16 L 63.373047 16 C 63.598731 16.455414 65.97541 21.218719 68.580078 27.923828 C 71.305552 34.939924 74 43.54264 74 49.5 C 74 53.786148 72.687587 57.534702 69.095703 60.335938 C 65.503819 63.137172 59.482968 65 50 65 C 40.517032 65 34.496181 63.137172 30.904297 60.335938 C 27.312413 57.534702 26 53.786148 26 49.5 C 26 43.543333 28.699736 34.94181 31.431641 27.925781 C 34.042519 21.22057 36.426238 16.455184 36.652344 16 z M 70.492188 48.992188 A 0.50005 0.50005 0 0 0 69.998047 49.5 C 69.998047 49.793 69.998875 50.122747 69.984375 50.480469 A 0.50038131 0.50038131 0 1 0 70.984375 50.519531 C 70.999871 50.137255 70.998047 49.793 70.998047 49.5 A 0.50005 0.50005 0 0 0 70.492188 48.992188 z M 70.091797 52.494141 A 0.50005 0.50005 0 0 0 69.628906 52.865234 C 69.413796 53.630385 69.072853 54.426528 68.53125 55.216797 A 0.50005 0.50005 0 1 0 69.355469 55.783203 C 69.963866 54.895472 70.350907 53.991615 70.591797 53.134766 A 0.50005 0.50005 0 0 0 70.091797 52.494141 z M 67.058594 56.996094 A 0.50005 0.50005 0 0 0 66.75 57.109375 C 64.556228 58.862677 60.820576 60.362624 54.462891 60.837891 A 0.50005 0.50005 0 1 0 54.537109 61.833984 C 61.021422 61.349251 64.966772 59.815323 67.375 57.890625 A 0.50005 0.50005 0 0 0 67.058594 56.996094 z M 48.177734 66.955078 C 48.784089 66.970888 49.366275 67 50 67 C 50.634404 67 51.217243 66.970922 51.824219 66.955078 C 51.545346 69.26595 51 73.897371 51 76 C 51 76.763889 51.404253 77.361771 51.882812 77.857422 C 52.361373 78.353073 52.967107 78.789321 53.667969 79.214844 C 55.069692 80.06589 56.855969 80.857828 58.634766 81.556641 C 60.77032 82.395608 61.531577 82.575539 62.890625 83 L 37.109375 83 C 38.468423 82.575539 39.22968 82.395608 41.365234 81.556641 C 43.144031 80.857828 44.930308 80.06589 46.332031 79.214844 C 47.032893 78.789321 47.638627 78.353073 48.117188 77.857422 C 48.595747 77.361771 49 76.763889 49 76 C 49 73.897384 48.455659 69.265247 48.177734 66.955078 z"/></svg>