<svg xmlns="http://www.w3.org/2000/svg" width="512" height="512" viewBox="0 0 512 512"><path fill="#D92949" d="M7.9,256C7.9,119,119,7.9,256,7.9C393,7.9,504.1,119,504.1,256c0,137-111.1,248.1-248.1,248.1C119,504.1,7.9,393,7.9,256z"/><g opacity=".12"><path d="M385.9 114.4c7.3 0 13.3 6 13.3 13.3v195.7c0 7.3-5.9 13.3-13.3 13.3H320 195.2h-69.1c-7.3 0-13.3-6-13.3-13.3V127.7c0-7.3 5.9-13.3 13.3-13.3H385.9zM345.2 391v14.4H166.8l0-11.8c.3-2.6 6.7-9.4 32.7-9.4 9 0 14.9-2.7 17.4-7.9 4.9-10.1-5.2-26.5-10.8-34.4h103.8c-5.5 8.4-16.1 26.7-11.2 36.3 2 4 6.1 6 12.2 6C331.5 384.2 342.1 389.2 345.2 391z"/></g><path fill="#4A072D" d="M385.9 106.6c7.3 0 13.3 6 13.3 13.3v195.7c0 7.3-5.9 13.3-13.3 13.3H320 195.2h-69.1c-7.3 0-13.3-6-13.3-13.3V119.8c0-7.3 5.9-13.3 13.3-13.3H385.9zM345.2 383.1v14.4H166.8l0-11.8c.3-2.6 6.7-9.4 32.7-9.4 9 0 14.9-2.7 17.4-7.9 4.9-10.1-5.2-26.5-10.8-34.4h103.8c-5.5 8.4-16.1 26.7-11.2 36.3 2 4 6.1 6 12.2 6C331.5 376.3 342.1 381.3 345.2 383.1z"/><path d="M119.5 116.6H384.6V290.9H119.5z" opacity=".12"/><path fill="#FFF" d="M123.4 120.6H388.5V294.9H123.4z"/><path fill="#F2E8DC" d="M257.3 310.4c2.3 0 4.2 1.9 4.2 4.2 0 2.3-1.9 4.2-4.2 4.2-2.3 0-4.2-1.9-4.2-4.2C253.1 312.3 255 310.4 257.3 310.4zM242.5 310.4c2.3 0 4.2 1.9 4.2 4.2 0 2.3-1.9 4.2-4.2 4.2-2.3 0-4.2-1.9-4.2-4.2C238.2 312.3 240.2 310.4 242.5 310.4zM272.1 310.4c2.3 0 4.2 1.9 4.2 4.2 0 2.3-1.9 4.2-4.2 4.2-2.3 0-4.2-1.9-4.2-4.2C267.9 312.3 269.8 310.4 272.1 310.4z"/><path fill="#891C56" d="M265.2,182.5c-3.2,0-5.8,2.2-6.6,5.2h-10.7l14.7-19.5c0.8,0.3,1.7,0.5,2.6,0.5c3.8,0,6.9-3.1,6.9-6.9c0-3.8-3.1-6.9-6.9-6.9c-3.8,0-6.9,3.1-6.9,6.9c0,1.6,0.6,3.1,1.6,4.2l-16.3,21.7h-13.3c-0.8-3-3.4-5.2-6.6-5.2c-3.8,0-6.9,3.1-6.9,6.9c0,1.7,0.7,3.2,1.7,4.4l-12.8,17.9l-9.7-1.9c-0.2-3.6-3.2-6.5-6.8-6.5c-3.8,0-6.9,3.1-6.9,6.9c0,3.8,3.1,6.9,6.9,6.9c2.7,0,5-1.6,6.2-3.9l8.2,1.6l-11.9,16.6c-0.8-0.3-1.6-0.5-2.5-0.5c-3.8,0-6.9,3.1-6.9,6.9s3.1,6.9,6.9,6.9s6.9-3.1,6.9-6.9c0-1.7-0.7-3.2-1.7-4.4l12.8-17.9l9.7,1.9c0.2,3.6,3.2,6.5,6.8,6.5c3.8,0,6.9-3.1,6.9-6.9c0-1.6-0.6-3.1-1.6-4.2l16.3-21.7h13.3c0.8,3,3.4,5.2,6.6,5.2c3.8,0,6.9-3.1,6.9-6.9C272.1,185.6,269,182.5,265.2,182.5z"/><path fill="#FFF" d="M226.3,210.7c-0.8-0.3-1.7-0.5-2.6-0.5c-2.7,0-5,1.6-6.2,3.9l-8.2-1.6l11.9-16.6c0.8,0.3,1.6,0.5,2.5,0.5c3.2,0,5.8-2.2,6.6-5.2H241L226.3,210.7z"/><path fill="#891C56" d="M272.1 258.6L272.1 265.5 161.5 265.5 161.5 154.8 168.4 154.8 168.4 258.6z"/><path fill="#F2295F" d="M319,253.7l-7.7,13.3c-8.2-5.4-13.6-14.7-13.6-25.3c0-16.1,12.6-29.3,28.5-30.3v15.3c-7.5,0.9-13.3,7.3-13.3,15C312.9,246.6,315.3,251,319,253.7z"/><path fill="#891C56" d="M340.2,232.5l13.3-7.7c-5.1-7.7-13.6-12.9-23.4-13.5v15.3C334.2,227.2,337.8,229.4,340.2,232.5z"/><path fill="#E02658" d="M355.3,228.2l-13.2,7.6c0.8,1.8,1.2,3.8,1.2,5.9c0,8.4-6.8,15.2-15.2,15.2c-2.1,0-4.1-0.4-5.9-1.2l-7.6,13.2c4.1,2,8.6,3.2,13.5,3.2c16.8,0,30.4-13.6,30.4-30.4C358.5,236.8,357.4,232.2,355.3,228.2z"/><g><path fill="#F2295F" d="M328.3,173h29.3c0-16.2-13.1-29.3-29.3-29.3V173z"/><path fill="#891C56" d="M324.6,176.6v-32.7c-14.4,1.8-25.6,14.1-25.6,29c0,16.2,13.1,29.3,29.3,29.3c14.9,0,27.2-11.2,29-25.6H324.6z"/></g></svg>