<svg xmlns="http://www.w3.org/2000/svg" viewBox="0 0 26 26"><path d="M 3 4 C 1.300781 4 0 8 0 13 C 0 18 1.300781 22 3 22 L 23 22 C 24.699219 22 26 18 26 13 C 26 8 24.699219 4 23 4 Z M 7.90625 9 L 10 9 L 10 17 L 8 17 L 8 16 L 5.40625 16 L 4.6875 17 L 2.1875 17 Z M 11 9 L 13.6875 9 C 14.988281 9 17.40625 9.800781 17.40625 13 C 17.40625 16.101563 14.988281 17 13.6875 17 L 11 17 Z M 17 9 L 18 9 C 18 9 20 10 20 13 C 20 16 18 17 18 17 L 17 17 C 17 17 19 16 19 13 C 19 10 17 9 17 9 Z M 19 9 L 20 9 C 20 9 22 10 22 13 C 22 16 20 17 20 17 L 19 17 C 19 17 21 16 21 13 C 21 10 19 9 19 9 Z M 21 9 L 22 9 C 22 9 24 10 24 13 C 24 16 22 17 22 17 L 21 17 C 21 17 23 16 23 13 C 23 10 21 9 21 9 Z M 13 11 L 13 15 L 13.6875 15 C 13.988281 15 15.40625 14.699219 15.40625 13 C 15.40625 11.300781 13.886719 11 13.6875 11 Z M 8 12.09375 L 6.59375 14.1875 L 8 14.1875 Z"/></svg>