<svg xmlns="http://www.w3.org/2000/svg" viewBox="0 0 26 26"><path d="M 13.25 -0.03125 C 12.785156 -0.0742188 12.320313 0.144531 12.09375 0.59375 C 11.59375 1.59375 12.6875 3.90625 12.6875 3.90625 C 12.6875 3.90625 15.304688 3.695313 15.90625 2.59375 C 16.207031 1.992188 16.007813 1.300781 15.40625 1 C 15.007813 0.898438 14.613281 0.898438 14.3125 1 C 14.210938 0.601563 13.988281 0.292969 13.6875 0.09375 C 13.539063 0.0195313 13.40625 -0.015625 13.25 -0.03125 Z M 9.125 2.03125 C 9.019531 2.03125 8.914063 2.042969 8.8125 2.09375 C 8.511719 2.195313 8.414063 2.386719 8.3125 2.6875 C 8.011719 2.488281 7.800781 2.492188 7.5 2.59375 C 7 2.792969 6.800781 3.289063 7 3.6875 C 7.398438 4.488281 9.1875 4.90625 9.1875 4.90625 C 9.1875 4.90625 10.304688 3.292969 9.90625 2.59375 C 9.757813 2.21875 9.445313 2.027344 9.125 2.03125 Z M 5.5 7 C 4.121094 7 3 8.121094 3 9.5 C 3 10.878906 4.121094 12 5.5 12 C 6.878906 12 8 10.878906 8 9.5 C 8 8.121094 6.878906 7 5.5 7 Z M 9 7 L 9 18 L 26 18 L 26 9 C 26 7.898438 25.101563 7 24 7 Z M 0 10 L 0 26 L 2 26 L 2 24 C 2 23.398438 2.398438 23 3 23 L 23 23 C 23.601563 23 24 23.398438 24 24 L 24 26 L 26 26 L 26 19 L 2 19 L 2 10 Z M 15.90625 10 C 16.507813 10 17.101563 10.3125 17.5 10.8125 C 17.898438 10.3125 18.394531 10 19.09375 10 C 20.195313 10 21 10.90625 21 11.90625 C 21 13.90625 17.5 15.8125 17.5 15.8125 C 17.5 15.8125 14 13.90625 14 11.90625 C 14 10.804688 14.90625 10 15.90625 10 Z M 5.5 13 C 4.121094 13 3 14.121094 3 15.5 C 3 16.878906 4.121094 18 5.5 18 C 6.878906 18 8 16.878906 8 15.5 C 8 14.121094 6.878906 13 5.5 13 Z"/></svg>