<?xml version="1.0"?><svg xmlns="http://www.w3.org/2000/svg" viewBox="0 0 30 30">    <path d="M 5 2 C 5 2 3 4.895 3 6 C 3 7.105 3.895 8 5 8 C 6.105 8 7 7.105 7 6 C 7 4.895 5 2 5 2 z M 14 4 C 14 4 11 8.343 11 10 C 11 11.657 12.343 13 14 13 C 15.657 13 17 11.657 17 10 C 17 8.343 14 4 14 4 z M 9.1640625 8.9472656 C 8.5220625 9.4892656 7.7321562 10.267844 6.6601562 11.339844 C 4.8581562 13.141844 3.031 15 2 15 L 2 25 L 3 25 C 4 25 5 27 8 27 L 19 27 L 23.5 27 C 24.328 27 25 26.328 25 25.5 C 25 24.672 24.328 24 23.5 24 L 19 24 L 19 23 L 26.5 23 C 27.328 23 28 22.328 28 21.5 C 28 20.672 27.328 20 26.5 20 L 19 20 L 19 19 L 28.5 19 C 29.328 19 30 18.328 30 17.5 C 30 16.672 29.328 16 28.5 16 L 19 16 L 19 15 L 26.5 15 C 27.328 15 28 14.328 28 13.5 C 28 12.672 27.328 12 26.5 12 L 19 12 L 18.576172 12 C 17.803172 13.763 16.045 15 14 15 C 11.243 15 9 12.757 9 10 C 9 9.682 9.0690625 9.3222656 9.1640625 8.9472656 z"/></svg>