<svg xmlns="http://www.w3.org/2000/svg" viewBox="0 0 16 16"><path d="M 2.5 2 C 1.6774686 2 1 2.6774686 1 3.5 L 1 4.5 L 1 12.5 C 1 13.322531 1.6774686 14 2.5 14 L 13.5 14 C 14.322531 14 15 13.322531 15 12.5 L 15 5.5 C 15 4.6774686 14.322531 4 13.5 4 L 6.7988281 4 L 6.1445312 2.7871094 C 5.8835911 2.3027204 5.3751898 2 4.8242188 2 L 2.5 2 z M 2.5 3 L 4.8242188 3 C 5.0092477 3 5.176612 3.1001077 5.2636719 3.2617188 L 5.6621094 4 L 2 4 L 2 3.5 C 2 3.2185314 2.2185314 3 2.5 3 z M 2 5 L 13.5 5 C 13.781469 5 14 5.2185314 14 5.5 L 14 12.5 C 14 12.781469 13.781469 13 13.5 13 L 2.5 13 C 2.2185314 13 2 12.781469 2 12.5 L 2 5 z M 8 6.0136719 C 7.919 6.0136719 7.8381406 6.0579844 7.8066406 6.1464844 L 7.390625 7.3066406 C 7.364625 7.3786406 7.3711562 7.4594375 7.4101562 7.5234375 C 7.4491562 7.5874375 7.5139844 7.625 7.5839844 7.625 L 8.4179688 7.625 C 8.4869688 7.625 8.5527969 7.5874375 8.5917969 7.5234375 C 8.6287969 7.4594375 8.635375 7.3786406 8.609375 7.3066406 L 8.1933594 6.1464844 C 8.1618594 6.0579844 8.081 6.0136719 8 6.0136719 z M 5.2304688 8.25 C 5.1284687 8.25 5.0387656 8.3236875 5.0097656 8.4296875 C 4.9807656 8.5356875 5.0204687 8.6509375 5.1054688 8.7109375 L 7.8730469 10.648438 C 7.9110469 10.675437 7.9550469 10.6875 7.9980469 10.6875 C 8.0410469 10.6875 8.0850469 10.675438 8.1230469 10.648438 L 10.892578 8.7109375 C 10.978578 8.6509375 11.017281 8.5366875 10.988281 8.4296875 C 10.959281 8.3226875 10.872531 8.25 10.769531 8.25 L 5.2304688 8.25 z M 6.4628906 10.636719 C 6.4058906 10.656719 6.3608438 10.702719 6.3398438 10.761719 L 6.0117188 11.720703 C 5.9827188 11.804703 6.0082188 11.899078 6.0742188 11.955078 C 6.1092187 11.985078 6.1523125 12 6.1953125 12 C 6.2323125 12 6.2697344 11.989797 6.3027344 11.966797 L 7.1601562 11.373047 C 7.2151562 11.335047 7.25 11.269219 7.25 11.199219 C 7.25 11.129219 7.2151563 11.063391 7.1601562 11.025391 L 6.6308594 10.658203 C 6.5798594 10.623203 6.5188906 10.616719 6.4628906 10.636719 z M 9.5371094 10.636719 C 9.4781094 10.616719 9.4191406 10.623203 9.3691406 10.658203 L 8.8398438 11.025391 C 8.7848438 11.063391 8.75 11.129219 8.75 11.199219 C 8.75 11.269219 8.7848437 11.335047 8.8398438 11.373047 L 9.6972656 11.966797 C 9.7302656 11.989797 9.7676875 12 9.8046875 12 C 9.8476875 12 9.8897812 11.985078 9.9257812 11.955078 C 9.9917813 11.899078 10.017281 11.804703 9.9882812 11.720703 L 9.6601562 10.761719 C 9.6401563 10.701719 9.5941094 10.656719 9.5371094 10.636719 z"/></svg>