<svg xmlns="http://www.w3.org/2000/svg" viewBox="0 0 40 40"><path fill="#dcd5f2" d="M30.86,33l8.564-15l-9.42-16.5H9.996L0.576,18l9.42,16.5H28L30.86,33z M9.5,18	c0-5.79,4.71-10.5,10.5-10.5S30.5,12.21,30.5,18S25.79,28.5,20,28.5S9.5,23.79,9.5,18z"/><path fill="#c6bae6" d="M20,31c-7.168,0-13-5.832-13-13S12.832,5,20,5s13,5.832,13,13S27.168,31,20,31z M20,8	c-5.514,0-10,4.486-10,10s4.486,10,10,10s10-4.486,10-10S25.514,8,20,8z"/><path fill="#8b75a1" d="M25.448,26.379C23.88,27.401,22.011,28,20,28c-5.523,0-10-4.477-10-10c0-5.523,4.477-10,10-10	c5.523,0,10,4.477,10,10c0,1.412-0.296,2.754-0.824,3.972c0.403-0.22,0.83-0.4,1.272-0.549C30.802,20.344,31,19.196,31,18	c0-6.065-4.935-11-11-11S9,11.935,9,18s4.935,11,11,11c1.845,0,3.581-0.462,5.11-1.267C25.184,27.267,25.297,26.814,25.448,26.379z"/><polygon fill="#8b75a1" points="28,34 10.286,34 1.152,18 10.286,2 29.714,2 38.849,18 30.284,33 31.436,33 40,18 30.294,1 9.706,1 0,18 9.706,35 28,35"/><path fill="#c6bae6" d="M31.436,33l6.059-10.613c-0.275-0.187-0.565-0.353-0.863-0.506L30.284,33H31.436z"/><polygon fill="#c6bae6" points="28,34 24.202,34 23.153,35 28,35"/><path fill="#b6c9d6" d="M24.651,39.136l6.639-6.957l-1.519-1.419l-6.901,6.58c-0.492,0.494-0.492,1.296,0,1.789	c0.24,0.239,0.557,0.371,0.895,0.371C24.103,39.5,24.42,39.368,24.651,39.136z"/><path fill="#788b9c" d="M29.775,31.449l0.804,0.752l-6.274,6.575C24.161,38.92,23.969,39,23.765,39s-0.396-0.08-0.541-0.224	c-0.298-0.298-0.298-0.783-0.017-1.065L29.775,31.449 M29.769,30.074l-7.252,6.914c-0.689,0.689-0.689,1.807,0,2.496	C22.861,39.828,23.313,40,23.765,40s0.903-0.172,1.248-0.517L32,32.161L29.769,30.074L29.769,30.074z"/><path fill="#d1edff" d="M39.5,29c0,3.59-2.91,6.5-6.5,6.5s-6.5-2.91-6.5-6.5s2.91-6.5,6.5-6.5S39.5,25.41,39.5,29z"/><path fill="#788b9c" d="M26,29c0-3.86,3.141-7,7-7s7,3.14,7,7s-3.141,7-7,7S26,32.86,26,29z M27,29c0,3.309,2.691,6,6,6	s6-2.691,6-6s-2.691-6-6-6S27,25.691,27,29z"/></svg>