<svg xmlns="http://www.w3.org/2000/svg" viewBox="0 0 32 32"><path d="M 12.5 4 C 10.578812 4 9 5.5788117 9 7.5 C 9 9.4211883 10.578812 11 12.5 11 C 14.421188 11 16 9.4211883 16 7.5 C 16 5.5788117 14.421188 4 12.5 4 z M 23 4 C 20.250484 4 18 6.2504839 18 9 C 18 11.749516 20.250484 14 23 14 C 25.749516 14 28 11.749516 28 9 C 28 6.2504839 25.749516 4 23 4 z M 12.5 6 C 13.340812 6 14 6.6591883 14 7.5 C 14 8.3408117 13.340812 9 12.5 9 C 11.659188 9 11 8.3408117 11 7.5 C 11 6.6591883 11.659188 6 12.5 6 z M 23 6 C 24.668484 6 26 7.3315161 26 9 C 26 10.668484 24.668484 12 23 12 C 21.331516 12 20 10.668484 20 9 C 20 7.3315161 21.331516 6 23 6 z M 22 7 L 22 9.4140625 L 23.564453 10.978516 L 24.978516 9.5644531 L 24 8.5859375 L 24 7 L 22 7 z M 8.7734375 11.265625 C 8.2565757 11.304927 7.7654802 11.544611 7.4160156 11.943359 L 5.5878906 14.033203 C 5.3501693 14.306583 5.188616 14.64216 5.125 15 L 4.4433594 18.869141 L 6.4121094 19.214844 L 7.0957031 15.349609 L 7.09375 15.349609 C 7.09375 15.349609 7.09375 15.347656 7.09375 15.347656 L 7.0957031 15.345703 L 8.921875 13.261719 L 8.921875 13.259766 L 9.7167969 13.412109 L 8.5429688 18.775391 C 8.4209688 19.332391 8.5419531 19.915953 8.8769531 20.376953 L 14.404297 28 L 16.876953 28 L 10.496094 19.203125 L 11.681641 13.785156 L 12.148438 13.875 L 12.910156 16.509766 C 13.085192 17.110456 13.53408 17.59992 14.125 17.822266 L 17.652344 19.15625 L 18.359375 17.285156 L 14.832031 15.951172 L 14.070312 13.320312 L 14.070312 13.318359 C 13.862025 12.597696 13.261985 12.050577 12.523438 11.910156 L 12.521484 11.910156 L 9.2949219 11.294922 C 9.1213627 11.2621 8.9457248 11.252524 8.7734375 11.265625 z M 8.4082031 22.044922 L 7.921875 23.978516 L 5 28 L 7.4746094 28 L 9.7695312 24.839844 L 9.9160156 24.236328 L 8.4082031 22.044922 z"/></svg>