<svg xmlns="http://www.w3.org/2000/svg" viewBox="0 0 100 100"><circle cx="13" cy="29" r="2" fill="#ee3e54"/><circle cx="77" cy="13" r="1" fill="#f1bc19"/><circle cx="50.125" cy="49.688" r="37" fill="#fce0a2"/><circle cx="83" cy="15" r="4" fill="#f1bc19"/><circle cx="87" cy="24" r="2" fill="#ee3e54"/><circle cx="81" cy="76" r="2" fill="#fbcd59"/><circle cx="15" cy="63" r="4" fill="#fbcd59"/><circle cx="25" cy="87" r="2" fill="#ee3e54"/><circle cx="18.5" cy="53.5" r="2.5" fill="#fff"/><circle cx="21" cy="67" r="1" fill="#f1bc19"/><circle cx="80" cy="34" r="1" fill="#fff"/><path fill="#f4989e" d="M50,73.3c-12.848,0-23.3-10.452-23.3-23.3S37.152,26.7,50,26.7S73.3,37.152,73.3,50 S62.848,73.3,50,73.3z M50,30.3c-10.862,0-19.7,8.838-19.7,19.7S39.138,69.7,50,69.7S69.7,60.862,69.7,50S60.862,30.3,50,30.3z"/><path fill="#472b29" d="M50,27.4c12.462,0,22.6,10.138,22.6,22.6S62.462,72.6,50,72.6S27.4,62.462,27.4,50 S37.538,27.4,50,27.4 M50,70.4c11.249,0,20.4-9.151,20.4-20.4S61.249,29.6,50,29.6S29.6,38.751,29.6,50S38.751,70.4,50,70.4 M50,26c-13.255,0-24,10.745-24,24s10.745,24,24,24s24-10.745,24-24S63.255,26,50,26L50,26z M50,69c-10.493,0-19-8.507-19-19 c0-10.494,8.507-19,19-19s19,8.506,19,19C69,60.493,60.493,69,50,69L50,69z"/><path fill="#ee3e54" d="M49.412,77.568l-6.478-18.434H24.083c-0.637,0-0.904-0.814-0.39-1.191L38.66,46.967l-6.707-19.086 c-0.213-0.607,0.479-1.129,1.004-0.756L49.605,38.94l16.103-11.809c0.516-0.378,1.214,0.126,1.017,0.735l-6.107,18.891 l15.753,11.18c0.524,0.372,0.261,1.197-0.382,1.197H56.616l-5.954,18.418C50.468,78.153,49.622,78.163,49.412,77.568z M46.781,59.134l3.136,8.925l2.885-8.925H46.781z M57.79,55.505h8.886l-7.228-5.129L57.79,55.505z M45.506,55.505h8.47l2.37-7.331 l-6.706-4.759l-6.664,4.888L45.506,55.505z M33.154,55.505h8.506l-1.742-4.96L33.154,55.505z M38.473,35.489l3.245,9.235 l4.803-3.523L38.473,35.489z M52.724,41.153l4.792,3.401l2.931-9.065L52.724,41.153z"/><path fill="#472b29" d="M50.033,78.508c-0.498,0-0.927-0.302-1.093-0.774l-6.36-18.1H24.083 c-0.511,0-0.943-0.313-1.103-0.799c-0.158-0.485,0.005-0.994,0.417-1.296l14.667-10.756L31.48,28.047 c-0.171-0.486-0.015-1,0.396-1.311c0.412-0.311,0.949-0.316,1.368-0.02L49.6,38.323l15.813-11.596 c0.413-0.303,0.948-0.305,1.363-0.006c0.416,0.3,0.583,0.81,0.426,1.297l-5.994,18.542l15.454,10.968 c0.42,0.299,0.59,0.809,0.434,1.299s-0.59,0.807-1.104,0.807H56.98l-5.843,18.071c-0.155,0.481-0.583,0.797-1.088,0.803 C50.044,78.508,50.039,78.508,50.033,78.508z M49.884,77.401c0.032,0.09,0.099,0.084,0.153,0.106c0.052,0,0.12-0.02,0.149-0.11 l6.065-18.764H75.99c0.096,0,0.136-0.061,0.151-0.11c0.017-0.051,0.02-0.123-0.06-0.18L60.029,46.951l6.221-19.24 c0.029-0.091-0.016-0.146-0.06-0.178c-0.041-0.031-0.11-0.058-0.187,0.001L49.609,39.556L32.667,27.533 c-0.078-0.057-0.146-0.03-0.188,0.002s-0.087,0.089-0.055,0.18l6.83,19.436L23.989,58.346c-0.078,0.057-0.074,0.128-0.058,0.179 c0.016,0.05,0.056,0.109,0.151,0.109h19.206L49.884,77.401z M49.938,69.622l-3.862-10.988h7.415L49.938,69.622z M47.487,59.634 l2.411,6.859l2.217-6.859H47.487z M68.244,56.005H57.104l2.077-6.431L68.244,56.005z M58.477,55.005h6.631l-5.394-3.827 L58.477,55.005z M54.34,56.005h-9.188l-2.771-7.887l7.254-5.32l7.3,5.181L54.34,56.005z M45.86,55.005h7.751l2.146-6.636 l-6.112-4.339l-6.074,4.455L45.86,55.005z M42.365,56.005H31.626l8.539-6.262L42.365,56.005z M34.681,55.005h6.272l-1.284-3.658 L34.681,55.005z M41.47,45.525l-3.99-11.354l9.896,7.022L41.47,45.525z M39.466,36.807l2.5,7.115l3.701-2.714L39.466,36.807z M57.783,45.356l-5.914-4.197l9.529-6.987L57.783,45.356z M53.578,41.146l3.672,2.607l2.246-6.946L53.578,41.146z"/><path fill="#472b29" d="M38.167,47.813c-0.152,0-0.304-0.07-0.401-0.202c-0.165-0.222-0.118-0.535,0.104-0.699l4.203-3.118 c0.224-0.163,0.535-0.117,0.699,0.104c0.165,0.222,0.118,0.535-0.104,0.699l-4.203,3.118 C38.375,47.781,38.271,47.813,38.167,47.813z"/><path fill="#472b29" d="M49.522,43.848c-0.101,0-0.202-0.03-0.29-0.093l-3.051-2.17c-0.225-0.16-0.277-0.472-0.117-0.697 c0.161-0.225,0.474-0.275,0.697-0.117l3.051,2.17c0.225,0.16,0.277,0.472,0.117,0.697C49.832,43.774,49.679,43.848,49.522,43.848z"/><path fill="#472b29" d="M52.438,41.44c-0.101,0-0.202-0.03-0.29-0.093l-3.051-2.169c-0.225-0.16-0.277-0.472-0.117-0.697 c0.161-0.225,0.473-0.275,0.697-0.117l3.051,2.169c0.225,0.16,0.277,0.472,0.117,0.697C52.747,41.367,52.594,41.44,52.438,41.44z"/><path fill="#472b29" d="M56.302,48.864c-0.05,0-0.1-0.007-0.149-0.023c-0.264-0.082-0.41-0.363-0.327-0.626l1.118-3.56 c0.082-0.264,0.362-0.413,0.626-0.327c0.264,0.082,0.41,0.363,0.327,0.626l-1.118,3.56C56.712,48.728,56.515,48.864,56.302,48.864z"/><path fill="#472b29" d="M59.454,50.898c-0.05,0-0.1-0.008-0.15-0.023c-0.263-0.082-0.409-0.363-0.326-0.627l1.119-3.56 c0.082-0.263,0.359-0.406,0.627-0.326c0.263,0.082,0.409,0.363,0.326,0.627l-1.119,3.56C59.864,50.762,59.667,50.898,59.454,50.898 z"/><path fill="#472b29" d="M39.218,51.542c-0.152,0-0.304-0.07-0.401-0.202c-0.165-0.222-0.118-0.535,0.104-0.699l4.203-3.118 c0.223-0.163,0.536-0.117,0.699,0.104c0.165,0.222,0.118,0.535-0.104,0.699l-4.203,3.118C39.426,51.51,39.321,51.542,39.218,51.542 z"/><g><path fill="#472b29" d="M43.014,59.847c-0.207,0-0.4-0.129-0.473-0.336l-1.66-4.779c-0.09-0.261,0.048-0.546,0.309-0.637 c0.262-0.09,0.545,0.047,0.637,0.309l1.66,4.779c0.09,0.261-0.048,0.546-0.309,0.637C43.123,59.838,43.068,59.847,43.014,59.847z"/></g><g><path fill="#472b29" d="M46.98,60.22c-0.206,0-0.398-0.128-0.471-0.333l-1.831-5.152c-0.093-0.26,0.043-0.546,0.304-0.638 c0.255-0.098,0.545,0.042,0.638,0.304l1.831,5.152c0.093,0.26-0.043,0.546-0.304,0.638C47.093,60.211,47.036,60.22,46.98,60.22z"/></g><g><path fill="#472b29" d="M58.517,56.005H53.59c-0.276,0-0.5-0.224-0.5-0.5s0.224-0.5,0.5-0.5h4.927 c0.276,0,0.5,0.224,0.5,0.5S58.793,56.005,58.517,56.005z"/></g><g><path fill="#472b29" d="M57.048,59.644h-4.927c-0.276,0-0.5-0.224-0.5-0.5s0.224-0.5,0.5-0.5h4.927 c0.276,0,0.5,0.224,0.5,0.5S57.324,59.644,57.048,59.644z"/></g><g><path fill="#472b29" d="M29.028,45.454c-0.019,0-0.037-0.002-0.056-0.006c-0.135-0.031-0.219-0.165-0.188-0.3 c0.718-3.144,2.163-6.144,4.181-8.678c0.512-0.645,1.066-1.266,1.648-1.848c0.098-0.098,0.256-0.098,0.354,0s0.098,0.256,0,0.354 c-0.568,0.568-1.11,1.176-1.611,1.805c-1.971,2.477-3.383,5.408-4.083,8.479C29.245,45.376,29.143,45.454,29.028,45.454z"/></g><g><path fill="#472b29" d="M63.869,66.703c-0.071,0-0.142-0.03-0.191-0.089c-0.089-0.105-0.075-0.263,0.03-0.353 c2.076-1.752,3.776-3.854,5.055-6.245c0.065-0.121,0.216-0.164,0.339-0.103c0.121,0.065,0.167,0.217,0.103,0.339 c-1.309,2.447-3.049,4.598-5.174,6.392C63.983,66.684,63.926,66.703,63.869,66.703z"/></g><g><path fill="#472b29" d="M71.511,50.261c-0.138,0-0.25-0.112-0.25-0.25c0-5.213-1.905-10.228-5.365-14.12 c-0.092-0.104-0.083-0.261,0.021-0.353c0.102-0.093,0.261-0.084,0.353,0.021c3.542,3.983,5.492,9.116,5.492,14.452 C71.761,50.148,71.648,50.261,71.511,50.261z"/></g><g><path fill="#472b29" d="M57.732,30.182c-0.03,0-0.061-0.005-0.09-0.017c-1.577-0.608-3.23-1.025-4.915-1.241 c-0.137-0.018-0.233-0.143-0.216-0.28c0.018-0.137,0.13-0.236,0.28-0.216c1.723,0.221,3.416,0.648,5.03,1.271 c0.129,0.05,0.193,0.194,0.144,0.323C57.928,30.121,57.833,30.182,57.732,30.182z"/></g><g><path fill="#472b29" d="M41.646,30.433c-0.098,0-0.19-0.058-0.23-0.152c-0.054-0.128,0.006-0.274,0.133-0.328 c2.677-1.13,5.521-1.702,8.451-1.702c0.138,0,0.25,0.112,0.25,0.25s-0.112,0.25-0.25,0.25c-2.864,0-5.642,0.56-8.256,1.663 C41.712,30.427,41.679,30.433,41.646,30.433z"/></g><g><path fill="#472b29" d="M28.574,52.185c-0.129,0-0.237-0.098-0.249-0.229c-0.057-0.648-0.086-1.304-0.086-1.945 c0-0.814,0.046-1.636,0.137-2.442c0.015-0.137,0.127-0.237,0.276-0.22c0.137,0.015,0.235,0.139,0.22,0.276 c-0.088,0.787-0.133,1.59-0.133,2.386c0,0.627,0.028,1.268,0.084,1.902c0.012,0.137-0.09,0.259-0.228,0.271 C28.589,52.185,28.581,52.185,28.574,52.185z"/></g><g><path fill="#472b29" d="M35.461,66.113c-0.061,0-0.121-0.021-0.169-0.065c-1.718-1.576-3.163-3.403-4.296-5.43 c-0.067-0.12-0.024-0.272,0.096-0.34c0.119-0.07,0.272-0.026,0.34,0.096c1.108,1.98,2.521,3.766,4.198,5.305 c0.102,0.094,0.108,0.252,0.016,0.354C35.596,66.086,35.528,66.113,35.461,66.113z"/></g><g><path fill="#472b29" d="M45.646,71.33c-0.017,0-0.033-0.002-0.051-0.005c-3.058-0.63-5.891-1.885-8.419-3.732 c-0.111-0.082-0.136-0.238-0.055-0.35c0.082-0.112,0.238-0.134,0.35-0.055c2.471,1.806,5.237,3.032,8.226,3.646 c0.135,0.028,0.222,0.16,0.194,0.296C45.867,71.249,45.763,71.33,45.646,71.33z"/></g></svg>