<svg xmlns="http://www.w3.org/2000/svg" viewBox="0 0 24 24"><path d="M 0 0 L 0 24 L 24 24 L 24 0 Z M 6 2 L 13 2 L 13 15.59375 C 14 14.992188 15.5 14 16.5 14 C 17.898438 14 19 15.101563 19 16.5 C 19 17.898438 17.898438 19 16.5 19 C 15.898438 19 13.699219 22 12 22 C 10.300781 22 8.101563 19 7.5 19 C 6.101563 19 5 17.898438 5 16.5 C 5 15.101563 6.101563 14 7.5 14 C 8.5 14 10 14.992188 11 15.59375 L 11 12 L 5 12 L 5 10 L 11 10 L 11 8 L 4 8 L 4 6 L 11 6 L 11 4 L 6 4 Z M 14 2 L 18 2 L 18 4 L 14 4 Z M 14 6 L 20 6 L 20 8 L 14 8 Z M 14 10 L 19 10 L 19 12 L 14 12 Z M 7.5 15.3125 C 6.835938 15.3125 6.3125 15.835938 6.3125 16.5 C 6.3125 17.164063 6.835938 17.6875 7.5 17.6875 C 8.164063 17.6875 8.6875 17.164063 8.6875 16.5 C 8.6875 15.835938 8.164063 15.3125 7.5 15.3125 Z M 16.5 15.3125 C 15.835938 15.3125 15.3125 15.835938 15.3125 16.5 C 15.3125 17.164063 15.835938 17.6875 16.5 17.6875 C 17.164063 17.6875 17.6875 17.164063 17.6875 16.5 C 17.6875 15.835938 17.164063 15.3125 16.5 15.3125 Z"/></svg>