<svg xmlns="http://www.w3.org/2000/svg" width="512" height="512" viewBox="0 0 512 512"><path fill="#74CCCF" d="M160.6 84.5c-.1.2-.3.4-.4.7-14.4 19.1-29.8 38.1-46.5 55.1-5.7 5.8-11.4 11.7-16.5 18.1-2.7 3.3-5.6 6.9-7.8 10.8 4.5 1.6 9 2.8 13.7 3.8-.4-1.2-.4-2.6.1-4 6.5-18.8 19.2-35.3 31.8-50.4 10.1-12 20.8-23.5 31.1-35.2C164.2 83.7 162.4 84.1 160.6 84.5zM163.8 185.8c-15.6 1.4-31.7 2.3-47.4.9 12.5 12.9 19.9 30.5 31.9 44.2 1.1-.5 2.5-.6 3.8-.3 5.2-8.8 12.3-16.3 18.8-24.2 5.3-6.4 12.4-14.2 14.7-22.8C178.3 184.4 171.1 185.1 163.8 185.8zM161.8 309.1c-6.8-21-15.4-42.5-16.3-64.8-.8-.3-1.6-.7-2.3-1.5-15.9-16.3-23.8-42-43.3-54.5-2 0-3.9-.1-5.7-1.1-1.8-.9-3.2-2.8-3.3-4.8 0-.1 0-.2 0-.3-.5-.2-1.1-.3-1.6-.5 1.8 9.7 6.1 19.1 10.4 27.9 3.1 6.3 6.3 12.5 9.3 18.8 2.9 6.2 5.2 12.6 7.9 18.8 12.2 28 27.4 54.5 41 81.8 4.9 9.8 9.5 19.7 14.2 29.6C169.7 341.8 167 325.2 161.8 309.1z"/><path fill="#D6E5E5" d="M182.5,82.5c-12.2,14.5-25.4,28.1-37.6,42.6c-12.4,14.8-24.8,30.7-31.2,49.1c0,0.1-0.1,0.3-0.2,0.4c13.5,1.5,27.3,1,40.6,0c11.5-0.9,23-2.2,34.5-3.5c0.5-29.3,6-58.3,6.4-87.6C190.8,83,186.6,82.6,182.5,82.5z"/><path fill="#74CCCF" d="M207.8 424.3c-2.6-9-5.3-17.9-7.9-26.9-5.3-18.1-9.3-36.8-15.5-54.6-1.6-4.6-3.3-9.2-5-13.8 4.4 21 6.1 42.6 10.2 63.7.1.4.1.7.1 1.1.4.9.8 1.7 1.2 2.6 4 8.9 7.7 18 12 26.8 1.6 3.4 3.3 6.8 5.4 9.9.4.5.9 1.4 1.4 2.1.4-.2.7-.3 1.1-.3C209.8 431.4 208.8 427.8 207.8 424.3zM319.3 147.3c-5.6-18.8-9.7-38.8-10.2-58.5-12.4.4-24.8.7-37.1 1 13 11.5 24.4 25.9 34.8 39.6 4.5 6 9 12.2 12.8 18.7C319.5 147.9 319.4 147.6 319.3 147.3zM414.2 190.2c-8.5-.9-17.1-1.9-25.6-3.1-12.2-1.8-24.6-1.8-36.8-2.5-3.1-.2-6.1-.3-9.2-.5 0 .3 0 .6-.1 1 14.3 20.9 26 43.8 34.9 67.5 5.2-13 14.2-23.6 24-33.6 8.7-8.7 18.4-17.2 25.4-27.4C422.7 191.1 418.4 190.6 414.2 190.2zM258.4 90.1c-8.9.2-17.7.2-26.6-.4-8.2-.6-16.1-2.5-24.2-4-.3-.1-.6-.1-1-.2-.6 27.4-5.5 54.6-6.3 81.9.4-.1.8-.2 1.2-.3 0-.8.1-1.6.4-2.5 4.8-13.2 16.4-23.7 25.3-34.3 11.1-13.1 21.4-26.9 32-40.3C259.1 90.1 258.8 90.1 258.4 90.1zM337.1 120.4V92.6c-1.5-1.1-2.2-2.9-2-4.7-4.7.2-9.4.4-14.1.5.5 18.2 4 36.7 9.2 54 1.2 4 2.1 8.2 3 12.3.6-3 1.3-5.9 1.9-8.9.6-2.9 1.3-5.8 1.9-8.8C338 131.9 337.1 125.6 337.1 120.4z"/><path fill="#D6E5E5" d="M353.5,87.2c-1.3,0-2.6,0.1-3.9,0.1c0.1,1.1-0.1,2.3-0.6,3.5c0,0.1-0.1,0.2-0.1,0.2v26.3c0,8.6,0.7,17.4-1.1,25.9c-1.4,6.3-2.8,12.6-4.1,18.9c-0.6,3-1.2,6-1.5,9c0,0.4-0.1,0.7-0.1,1c8.4,0.5,16.7,1,25.1,1.4c6.3,0.3,13,0.1,19.2,1.1c7.3,1.2,14.7,2.1,22,2.9c2.3,0.3,4.7,0.5,7.1,0.8C394.6,148.1,376.1,116.2,353.5,87.2z"/><path fill="#74CCCF" d="M214.7,397.4c-5.3-20-0.8-40.4-3.5-60.5c-2.7-20.8-2.4-41.7-5.4-62.4c-2.9-20.4-7.5-40.5-9.9-61c-0.8-6.6-1.4-13.2-1.6-19.9c-7.7,16.6-24.9,29.2-33.3,45.3c-0.2,0.3-0.3,0.6-0.5,0.8c0.5,0.7,0.9,1.6,1.1,2.6c6.9,35.6,24.8,67.8,35.7,102.2c5.7,18.1,10,36.8,15.4,55c2,6.6,3.9,13.3,5.8,19.9c0.3-6,0.8-12,1.5-17.9C217.8,401.5,215.5,400.4,214.7,397.4z"/><path fill="#D6E5E5" d="M316,169.5c-0.2-1.2-0.3-1.8-0.8-3.2c-1.1-3.2-2.5-6.3-4.2-9.2c-4.8-8.4-10.4-16.3-16.3-24c-8.7-11.2-17.9-22.8-28.5-32.5c-9.6,12.2-19,24.7-29,36.5c-8.3,9.8-19.3,19.6-24.1,31.8c7.9-0.6,15.9-1,23.9-0.9c26.4,0.1,52.8,1.4,79.1,2.8C316.1,170.3,316.1,169.9,316,169.5z"/><path fill="#74CCCF" d="M248.5 179.8c-8.2-.1-16.3.1-24.4.6 14 13.9 23.4 32.6 35.7 47.9 1-3.4 4.8-4.8 7.8-4.1 20.5-11.4 41.8-24 58-41.2C299.9 181.5 274.2 180.2 248.5 179.8zM367.5 259.7c-7.6-20.8-17.4-40.9-29.2-59.6-17.3 62.2-31.9 125-49.2 187.2.3-.4.7-.7 1.1-1 18.8-13 26.4-38.2 36.5-57.7 12.1-23.5 24-48.2 40.9-68.7C367.5 259.7 367.5 259.7 367.5 259.7zM441.9 192.7c-.6 0-1.2-.1-1.8-.1-14.3 24.3-43.8 38.8-52.7 66.3-.4 1.3-1.2 2.3-2.1 3 0 5.1 0 10.3.2 15.4.1 2 .2 4 .4 6 6.6-9 13.1-18.1 19.6-27.2 14.3-20.1 27.8-40.8 38-63.2C443 192.8 442.4 192.7 441.9 192.7zM252 237.3c-7.9-9.4-14.4-20-21.6-30-6.5-9.1-13.5-19.4-23-25.8-.4 0-.8.1-1.2.1-1.8 34.7 9.5 68.7 12.8 103 1 9.9.8 19.8 1.6 29.7.8 9.1 1.9 18.1 3.2 27.2 1.2 8.6-.2 17.9-.3 26.5 0 2.8 0 5.6.1 8.4 2-13.3 4.2-26.7 6.6-39.9 6.2-33 18.4-64.5 26.8-96.9C255.2 239.7 253.4 239 252 237.3zM445 180c-4.2-13.4-13.4-24.6-21.9-35.5-8.4-10.7-15.8-21.5-22.9-33.1-4.3-7.1-8.5-15.5-15.5-20.3-4.7-3.3-10.7-4.2-16.6-4.3 22.5 30 41.2 62.6 62.9 93.2 1.9.2 3.8.4 5.8.5 2.9.2 5.8.5 8.7.6C445.3 180.8 445.1 180.4 445 180zM376.8 293.3c-2.7-3.6-2.6-9.5-2.8-13.7-.1-2.8-.2-5.6-.2-8.4-7.4 9.6-13.6 20-19.4 30.6-6.6 12.2-13.5 24.5-19.5 37-2.5 5.2-5 10.6-7.6 16 9.9-11.1 19.7-22.2 29.3-33.5 7.4-8.7 14.5-17.8 21.4-26.9C377.5 294.1 377.1 293.7 376.8 293.3zM326.4 198.8c-15.8 14.4-34.9 25.6-53.3 35.9-.7.4-1.3.6-2 .7-1.4 36.5 2.2 73.1 2.4 109.6.1 16.3 1.4 33.2 1.1 50C293.1 329.9 308.3 263.9 326.4 198.8zM255.9 435.8c5.9-14.7 6.7-31.3 6.7-47 0-16.1-.7-32.2-.9-48.4-.2-22.2-1.7-44.4-2.4-66.7-6.4 20.8-13.1 41.6-17.1 63-3.2 17.1-5.9 34.4-8.5 51.6-2.4 16.4-4.4 33-3.3 49.7.2 3.3-1.9 5.3-4.3 6 0 .2 0 .3 0 .5v1.1c8.1 3.6 17.9 2.4 27.4 2.1 1.1-1.8 2.3-3.6 3.5-5.4C255.6 440.7 254.9 438.4 255.9 435.8zM273.1 415.5c-.2 1.6-.5 3.1-.7 4.7 1-1.4 2.1-2.7 3.1-4.1C274.6 416 273.8 415.8 273.1 415.5zM287.7 391.9c-1.3 4.4-2.5 8.9-3.8 13.3 2.3-2.9 4.7-5.8 7.1-8.7C289.3 395.5 288.1 393.8 287.7 391.9z"/><path fill="#010101" d="M455.2,181.6c1.1-1.4,1.7-3.2,1-5.4c-4.2-13.2-12.7-24.6-21.1-35.5c-8.4-10.9-16.4-21.7-23.6-33.5c-4.8-8-9.5-16.3-16.3-22.8c-6.1-5.8-14.3-8.3-22.6-9c-14.5-1.3-29.7,0.1-44.2,0.8c-17.4,0.8-34.7,1.1-52.1,1.6c-17.3,0.5-35.4,2.3-52.4-0.9c-16.1-3.1-32-6.7-48.5-6.3c-6.6,0.2-13.1,1.4-19.4,3c-1.8,0.5-2.9,1.4-3.4,2.6c-0.4,0.3-0.8,0.7-1.2,1.2C136.7,96.7,121,116,104,133.3c-6.1,6.2-12.1,12.7-17.5,19.6c-5.1,6.4-10.3,13.8-11.9,21.9c-0.6,2.8,0.7,4.8,2.6,5.9c1.5,10.8,6,21.2,10.6,31c3,6.4,6.2,12.6,9.3,18.9c3.2,6.6,5.7,13.6,8.6,20.3c12.8,29.9,29.4,58.1,43.7,87.3c7.2,14.7,14,29.6,21.2,44.3c3.9,7.9,8,15.5,11.5,23.5c4.1,9.3,8.1,18.6,12.7,27.6c3.1,5.9,6.7,12.7,13.4,14.9c0.8,0.3,1.6,0.3,2.3,0.3c7.1,7.5,16.4,10.6,27.3,11c5.9,0.2,11.9-0.3,17.9-0.4c7.3-0.1,10.7-10.4,14.3-15.8c17.3-26.3,38.3-50,59.1-73.4c20.7-23.3,41.7-46.3,60-71.6c18.4-25.4,37.5-50.2,53.2-77.4c5.9-10.3,11.2-20.9,15.6-31.9C459.4,185.9,457.7,183,455.2,181.6z M342.2,171.2c0.3-3,0.9-6,1.5-9c1.2-6.3,2.7-12.6,4.1-18.9c1.9-8.5,1.1-17.3,1.1-25.9V91.1c0-0.1,0.1-0.2,0.1-0.2c0.6-1.2,0.7-2.4,0.6-3.5c1.3,0,2.6-0.1,3.9-0.1c22.6,29,41.1,60.9,61.9,91.2c-2.4-0.3-4.7-0.5-7.1-0.8c-7.3-0.9-14.7-1.7-22-2.9c-6.2-1.1-12.9-0.8-19.2-1.1c-8.4-0.4-16.7-0.9-25.1-1.4C342.1,171.9,342.1,171.5,342.2,171.2z M426.9,191.5c-7.1,10.2-16.7,18.6-25.4,27.4c-9.9,9.9-18.9,20.6-24,33.6c-9-23.7-20.6-46.6-34.9-67.5c0.1-0.3,0.1-0.7,0.1-1c3.1,0.2,6.1,0.4,9.2,0.5c12.3,0.7,24.7,0.7,36.8,2.5c8.5,1.2,17.1,2.2,25.6,3.1C418.4,190.6,422.7,191.1,426.9,191.5z M335,87.9c-0.1,1.8,0.5,3.6,2,4.7v27.9c0,5.2,0.9,11.4-0.1,16.5c-0.6,2.9-1.3,5.9-1.9,8.8c-0.7,3-1.3,5.9-1.9,8.9c-0.9-4.1-1.8-8.2-3-12.3c-5.2-17.3-8.7-35.8-9.2-54C325.6,88.2,330.3,88,335,87.9z M309.1,88.8c0.5,19.7,4.5,39.8,10.2,58.5c0.1,0.3,0.2,0.6,0.2,0.9c-3.8-6.5-8.2-12.7-12.8-18.7c-10.4-13.8-21.7-28.1-34.8-39.6C284.4,89.5,296.8,89.2,309.1,88.8z M294.7,133.1c5.9,7.6,11.6,15.5,16.3,24c1.7,3,3.1,6,4.2,9.2c0.5,1.4,0.6,2,0.8,3.2c0.1,0.4,0.1,0.8,0.1,1.2c-26.4-1.5-52.7-2.7-79.1-2.8c-8,0-15.9,0.3-23.9,0.9c4.8-12.2,15.9-21.9,24.1-31.8c10-11.8,19.3-24.3,29-36.5C276.7,110.3,286,121.9,294.7,133.1z M206.8,85.5c0.3,0.1,0.6,0.1,1,0.2c8,1.5,16,3.4,24.2,4c8.8,0.6,17.7,0.6,26.6,0.4c0.3,0,0.7,0,1,0c-10.7,13.4-21,27.2-32,40.3c-8.9,10.5-20.5,21-25.3,34.3c-0.3,0.9-0.4,1.7-0.4,2.5c-0.4,0.1-0.8,0.1-1.2,0.3C201.2,140.1,206.1,112.9,206.8,85.5z M182.5,82.5c4.2,0.2,8.4,0.6,12.5,1.1c-0.3,29.3-5.9,58.3-6.4,87.6c-11.5,1.3-23,2.6-34.5,3.5c-13.3,1-27.1,1.5-40.6,0c0.1-0.1,0.1-0.2,0.2-0.4c6.4-18.5,18.8-34.3,31.2-49.1C157,110.6,170.2,96.9,182.5,82.5z M185.6,183.7c-2.4,8.5-9.5,16.4-14.7,22.8c-6.5,7.8-13.6,15.4-18.8,24.2c-1.3-0.3-2.7-0.2-3.8,0.3c-12-13.7-19.4-31.3-31.9-44.2c15.7,1.4,31.8,0.5,47.4-0.9C171.1,185.1,178.3,184.4,185.6,183.7z M97.2,158.4c5.1-6.4,10.8-12.3,16.5-18.1c16.8-17,32.1-36.1,46.5-55.1c0.2-0.2,0.3-0.4,0.4-0.7c1.8-0.4,3.6-0.8,5.4-1.1c-10.4,11.7-21.1,23.2-31.1,35.2c-12.6,15.1-25.3,31.6-31.8,50.4c-0.5,1.4-0.5,2.8-0.1,4c-4.6-0.9-9.2-2.2-13.7-3.8C91.6,165.3,94.5,161.7,97.2,158.4z M158,328.9c-13.6-27.3-28.8-53.8-41-81.8c-2.7-6.2-5-12.7-7.9-18.8c-3-6.3-6.2-12.5-9.3-18.8c-4.3-8.8-8.6-18.1-10.4-27.9c0.5,0.2,1.1,0.3,1.6,0.5c0,0.1,0,0.2,0,0.3c0.1,2.1,1.5,3.9,3.3,4.8c1.9,1,3.7,1,5.7,1.1c19.5,12.5,27.4,38.2,43.3,54.5c0.7,0.8,1.5,1.2,2.3,1.5c0.9,22.3,9.5,43.8,16.3,64.8c5.2,16.1,7.9,32.8,10.4,49.4C167.5,348.6,162.9,338.7,158,328.9z M209.7,435.2c-0.5-0.7-1-1.5-1.4-2.1c-2-3.1-3.7-6.5-5.4-9.9c-4.3-8.8-8-17.8-12-26.8c-0.4-0.9-0.8-1.7-1.2-2.6c0-0.3,0-0.7-0.1-1.1c-4.1-21.1-5.9-42.7-10.2-63.7c1.7,4.6,3.4,9.1,5,13.8c6.1,17.8,10.2,36.5,15.5,54.6c2.6,9,5.3,17.9,7.9,26.9c1,3.5,2,7,3,10.6C210.4,435,210.1,435.1,209.7,435.2z M218.6,419.2c-1.9-6.6-3.9-13.3-5.8-19.9c-5.4-18.2-9.7-36.9-15.4-55c-10.9-34.3-28.8-66.6-35.7-102.2c-0.2-1-0.6-1.9-1.1-2.6c0.2-0.2,0.3-0.5,0.5-0.8c8.4-16.1,25.5-28.7,33.3-45.3c0.2,6.7,0.8,13.3,1.6,19.9c2.4,20.5,7,40.6,9.9,61c3,20.7,2.6,41.7,5.4,62.4c2.7,20.2-1.9,40.6,3.5,60.5c0.8,3,3.1,4.1,5.4,3.9C219.4,407.3,218.9,413.2,218.6,419.2z M223.5,368.1c0-8.7,1.5-17.9,0.3-26.5c-1.3-9-2.4-18.1-3.2-27.2c-0.8-9.9-0.7-19.8-1.6-29.7c-3.3-34.3-14.6-68.3-12.8-103c0.4,0,0.8-0.1,1.2-0.1c9.5,6.4,16.5,16.6,23,25.8c7.2,10,13.6,20.6,21.6,30c1.4,1.7,3.3,2.3,5,2.2c-8.4,32.5-20.6,63.9-26.8,96.9c-2.5,13.2-4.6,26.6-6.6,39.9C223.5,373.6,223.5,370.8,223.5,368.1z M255.9,435.8c-1,2.5-0.3,4.8,1.2,6.4c-1.2,1.8-2.3,3.6-3.5,5.4c-9.4,0.3-19.3,1.4-27.4-2.1v-1.1c0-0.2,0-0.3,0-0.5c2.5-0.6,4.5-2.7,4.3-6c-1.1-16.6,0.8-33.2,3.3-49.7c2.6-17.2,5.3-34.5,8.5-51.6c4-21.4,10.7-42.2,17.1-63c0.7,22.2,2.2,44.4,2.4,66.7c0.2,16.1,0.9,32.2,0.9,48.4C262.6,404.5,261.8,421.1,255.9,435.8z M267.6,224.2c-3-0.7-6.8,0.7-7.8,4.1c-12.3-15.3-21.7-34-35.7-47.9c8.1-0.5,16.2-0.7,24.4-0.6c25.7,0.4,51.4,1.7,77.1,3.2C309.4,200.2,288,212.8,267.6,224.2z M271.1,235.4c0.7-0.1,1.3-0.3,2-0.7c18.4-10.3,37.5-21.5,53.3-35.9c-18.1,65.2-33.3,131.1-51.8,196.2c0.4-16.8-1-33.8-1.1-50C273.3,308.4,269.7,271.9,271.1,235.4z M272.3,420.2c0.3-1.6,0.5-3.1,0.7-4.7c0.7,0.3,1.5,0.5,2.4,0.6C274.4,417.4,273.4,418.8,272.3,420.2z M283.9,405.2c1.3-4.4,2.5-8.9,3.8-13.3c0.3,1.9,1.6,3.7,3.3,4.6C288.6,399.4,286.3,402.3,283.9,405.2z M290.2,386.2c-0.4,0.3-0.8,0.6-1.1,1c17.4-62.1,32-125,49.2-187.2c11.9,18.7,21.6,38.8,29.2,59.6c0,0,0,0.1,0,0.1c-16.9,20.6-28.8,45.2-40.9,68.7C316.6,348,309,373.2,290.2,386.2z M356.5,321.3c-9.6,11.3-19.4,22.4-29.3,33.5c2.6-5.4,5.1-10.9,7.6-16c6.1-12.5,12.9-24.8,19.5-37c5.8-10.7,12-21,19.4-30.6c0,2.8,0.1,5.6,0.2,8.4c0.2,4.3,0.1,10.1,2.8,13.7c0.3,0.4,0.7,0.8,1,1.1C370.9,303.6,363.9,312.6,356.5,321.3z M405.7,256.1c-6.5,9.1-13,18.2-19.6,27.2c-0.2-2-0.3-4-0.4-6c-0.2-5.1-0.2-10.3-0.2-15.4c0.9-0.7,1.6-1.7,2.1-3c8.9-27.5,38.4-42,52.7-66.3c0.6,0,1.2,0.1,1.8,0.1c0.5,0,1.1,0.1,1.7,0.1C433.5,215.3,419.9,236,405.7,256.1z M436.7,180.5c-1.9-0.2-3.9-0.3-5.8-0.5c-21.6-30.6-40.4-63.2-62.9-93.2c5.8,0.1,11.9,1,16.6,4.3c7,4.8,11.2,13.2,15.5,20.3c7,11.6,14.5,22.4,22.9,33.1c8.5,10.9,17.7,22.2,21.9,35.5c0.1,0.4,0.3,0.7,0.5,1.1C442.5,181,439.6,180.7,436.7,180.5z"/></svg>