<svg xmlns="http://www.w3.org/2000/svg" viewBox="0 0 26 26"><path d="M 13.40625 0 C 14.304688 2.601563 12.5 2.894531 11.5 5.09375 C 10.800781 6.792969 8.59375 10.113281 6.59375 11.3125 C 5.195313 12.113281 6.3125 13.199219 7.3125 13.5 C 8.8125 13.898438 10.207031 12.511719 11.40625 11.3125 C 12.40625 10.3125 13.792969 9.992188 14.09375 11.59375 C 14.492188 13.492188 14.601563 14.304688 15 15.90625 C 15.398438 17.507813 16.210938 17.792969 16.8125 17.59375 C 17.8125 17.292969 17.695313 16.914063 18.09375 16.8125 C 18.492188 16.710938 18.613281 17.992188 19.8125 17.59375 C 21.011719 17.195313 20.699219 16.289063 21 16.1875 C 21.300781 16.085938 21.8125 16.992188 22.8125 16.59375 C 23.8125 16.292969 23.507813 15.007813 23.90625 14.90625 C 24.304688 14.804688 24.492188 15.105469 25.09375 14.90625 C 25.792969 14.707031 26.6875 12.992188 25.1875 8.59375 C 22.789063 1.09375 21.789063 2.699219 20.6875 0 Z M 5.5 14 C 4.675781 14 3.738281 14.363281 3.1875 15.3125 C 2.585938 16.3125 2.40625 17.585938 2.90625 18.6875 C 2.90625 18.789063 2.6875 18.59375 2.6875 19.09375 C 2.585938 19.59375 2.894531 20.292969 3.09375 20.59375 C 3.195313 20.695313 3.398438 20.804688 3.5 20.90625 C 3.5 20.90625 3.707031 21.792969 4.40625 22.59375 C 4.507813 23.195313 3.8125 23.59375 3.8125 23.59375 C 1.8125 23.894531 0.199219 25 0 26 L 12 26 C 11.898438 25 10.1875 23.894531 8.1875 23.59375 C 8.1875 23.59375 7.289063 23.394531 7.6875 22.59375 C 8.1875 21.992188 8.492188 21.199219 8.59375 21 C 8.59375 21 9.40625 20.394531 9.40625 19.59375 C 9.40625 18.695313 9.1875 18.6875 9.1875 18.6875 C 9.488281 17.789063 9.585938 14.414063 7.1875 14.8125 C 7.039063 14.363281 6.324219 14 5.5 14 Z"/></svg>