<svg xmlns="http://www.w3.org/2000/svg" viewBox="0 0 64 64"><path d="M 12 4 C 9.792969 4 8 5.792969 8 8 L 8 56 C 8 58.207031 9.792969 60 12 60 L 49 60 C 50.652344 60 52 58.652344 52 57 L 52 53.816406 C 53.160156 53.402344 54 52.300781 54 51 L 54 7 C 54 5.347656 52.652344 4 51 4 Z M 12 6 L 51 6 C 51.550781 6 52 6.449219 52 7 L 52 51 C 52 51.550781 51.550781 52 51 52 L 20 52 L 20 17 C 20 16.449219 19.554688 16 19 16 C 18.445313 16 18 16.449219 18 17 L 18 52 L 12 52 C 11.382813 52 10.660156 52.222656 10 52.632813 L 10 8 C 10 6.898438 10.898438 6 12 6 Z M 13 8 C 12.445313 8 12 8.449219 12 9 C 12 9.550781 12.445313 10 13 10 L 15 10 C 15.554688 10 16 9.550781 16 9 C 16 8.449219 15.554688 8 15 8 Z M 19 8 C 18.445313 8 18 8.449219 18 9 L 18 13 C 18 13.550781 18.445313 14 19 14 C 19.554688 14 20 13.550781 20 13 L 20 9 C 20 8.449219 19.554688 8 19 8 Z M 13 13 C 12.445313 13 12 13.449219 12 14 C 12 14.550781 12.445313 15 13 15 L 15 15 C 15.554688 15 16 14.550781 16 14 C 16 13.449219 15.554688 13 15 13 Z M 13 18 C 12.445313 18 12 18.449219 12 19 C 12 19.550781 12.445313 20 13 20 L 15 20 C 15.554688 20 16 19.550781 16 19 C 16 18.449219 15.554688 18 15 18 Z M 29.390625 19.96875 C 28.960938 19.96875 28.578125 20.242188 28.441406 20.652344 L 23.042969 36.652344 C 22.867188 37.171875 23.144531 37.742188 23.671875 37.917969 C 23.773438 37.953125 23.882813 37.96875 23.988281 37.96875 C 24.40625 37.96875 24.796875 37.707031 24.9375 37.289063 L 26.742188 31.9375 C 26.792969 31.949219 26.835938 31.96875 26.890625 31.96875 L 31.890625 31.96875 C 31.941406 31.96875 31.984375 31.949219 32.035156 31.9375 L 33.84375 37.289063 C 34.019531 37.8125 34.582031 38.097656 35.109375 37.917969 C 35.628906 37.742188 35.914063 37.171875 35.734375 36.652344 L 30.335938 20.652344 C 30.199219 20.242188 29.816406 19.96875 29.390625 19.96875 Z M 13 23 C 12.445313 23 12 23.449219 12 24 C 12 24.550781 12.445313 25 13 25 L 15 25 C 15.554688 25 16 24.550781 16 24 C 16 23.449219 15.554688 23 15 23 Z M 29.390625 24.097656 L 31.371094 29.96875 L 27.40625 29.96875 Z M 41 26 C 38.792969 26 37 27.792969 37 30 L 37 34 C 37 36.207031 38.792969 38 41 38 L 42 38 C 43.199219 38 44.265625 37.457031 45 36.617188 C 45.734375 37.457031 46.800781 38 48 38 C 48.554688 38 49 37.554688 49 37 C 49 36.445313 48.554688 36 48 36 C 46.898438 36 46 35.101563 46 34 L 46 27.089844 C 46 26.535156 45.554688 26.089844 45 26.089844 C 44.617188 26.089844 44.296875 26.3125 44.128906 26.625 C 43.511719 26.234375 42.785156 26 42 26 Z M 13 28 C 12.445313 28 12 28.449219 12 29 C 12 29.550781 12.445313 30 13 30 L 15 30 C 15.554688 30 16 29.550781 16 29 C 16 28.449219 15.554688 28 15 28 Z M 41 28 L 42 28 C 43.101563 28 44 28.898438 44 30 L 44 34 C 44 35.101563 43.101563 36 42 36 L 41 36 C 39.898438 36 39 35.101563 39 34 L 39 30 C 39 28.898438 39.898438 28 41 28 Z M 13 33 C 12.445313 33 12 33.449219 12 34 C 12 34.550781 12.445313 35 13 35 L 15 35 C 15.554688 35 16 34.550781 16 34 C 16 33.449219 15.554688 33 15 33 Z M 13 38 C 12.445313 38 12 38.449219 12 39 C 12 39.550781 12.445313 40 13 40 L 15 40 C 15.554688 40 16 39.550781 16 39 C 16 38.449219 15.554688 38 15 38 Z M 13 43 C 12.445313 43 12 43.449219 12 44 C 12 44.550781 12.445313 45 13 45 L 15 45 C 15.554688 45 16 44.550781 16 44 C 16 43.449219 15.554688 43 15 43 Z M 13 48 C 12.445313 48 12 48.449219 12 49 C 12 49.550781 12.445313 50 13 50 L 15 50 C 15.554688 50 16 49.550781 16 49 C 16 48.449219 15.554688 48 15 48 Z M 12 54 L 50 54 L 50 57 C 50 57.550781 49.550781 58 49 58 L 12 58 C 10.898438 58 10 57.101563 10 56 C 10 54.753906 11.390625 54 12 54 Z"/></svg>