<svg xmlns="http://www.w3.org/2000/svg" viewBox="0 0 40 40"><path fill="#fff" d="M22.064,15.367l8.523-8.524L30.273,6.49C29.774,5.933,29.5,5.226,29.5,4.5c0-1.654,1.346-3,3-3 c1.492,0,2.764,1.123,2.958,2.611l0.05,0.381l0.382,0.05C37.378,4.736,38.5,6.008,38.5,7.5c0,1.654-1.346,3-3,3 c-0.726,0-1.433-0.274-1.99-0.773l-0.353-0.315l-8.524,8.524L22.064,15.367z"/><path fill="#4788c7" d="M32.5,2c1.241,0,2.3,0.935,2.463,2.176l0.1,0.762l0.762,0.1C37.065,5.2,38,6.259,38,7.5 c0,1.378-1.121,2.5-2.5,2.5c-0.773,0-1.328-0.351-1.657-0.646l-0.705-0.63l-0.669,0.669l-7.836,7.836l-1.862-1.862l7.836-7.836 l0.669-0.669l-0.63-0.705C30.351,5.828,30,5.273,30,4.5C30,3.122,31.121,2,32.5,2 M32.5,1C30.567,1,29,2.567,29,4.5 c0,0.896,0.347,1.704,0.9,2.324l-8.543,8.543l3.276,3.276l8.543-8.543c0.619,0.554,1.428,0.9,2.324,0.9c1.933,0,3.5-1.567,3.5-3.5 c0-1.777-1.33-3.229-3.046-3.454C35.729,2.33,34.277,1,32.5,1L32.5,1z"/><path fill="none" stroke="#4788c7" stroke-linecap="round" stroke-linejoin="round" stroke-miterlimit="10" d="M25.428 25.428L37.5 37.5"/><path fill="#dff0fe" d="M8.621,30.162l-6.267-8.497c1.5-1.685,9.74-10.164,23.607-10.165 c-0.014,0.004,0.993,0.185,1.673,0.865c0.696,0.697,0.869,1.737,0.871,1.747c-0.005,13.195-8.446,21.9-10.152,23.524L8.621,30.162z"/><path fill="#4788c7" d="M25.871,12c0.207,0.045,0.923,0.232,1.41,0.719c0.489,0.489,0.674,1.203,0.719,1.41 c-0.037,12.338-7.512,20.681-9.686,22.847l-9.332-7.167L3,21.697C4.999,19.548,12.914,12.036,25.871,12 M25.965,11 C10.204,11,1.716,21.641,1.716,21.641l6.545,8.874l10.122,7.773c0,0,10.617-9.174,10.617-24.254c0,0-0.183-1.195-1.012-2.023 C27.16,11.183,25.965,11,25.965,11L25.965,11z"/><path fill="#98ccfd" d="M16.279,38.5c-2.53,0-6.249-2.083-9.473-5.307c-4.326-4.326-6.473-9.489-4.688-11.274 c0.41-0.41,1.017-0.619,1.802-0.619c2.531,0,6.249,2.083,9.473,5.307c2.179,2.179,3.853,4.59,4.714,6.791 c0.797,2.037,0.788,3.671-0.025,4.484C17.671,38.292,17.064,38.5,16.279,38.5L16.279,38.5z"/><path fill="#4788c7" d="M3.92,21.8c2.368,0,6.032,2.074,9.119,5.161c2.131,2.131,3.765,4.482,4.602,6.619 c0.711,1.816,0.743,3.292,0.087,3.948C17.415,37.841,16.927,38,16.28,38c-2.368,0-6.032-2.074-9.119-5.161 c-4.366-4.366-6.076-9.18-4.688-10.567C2.785,21.959,3.273,21.8,3.92,21.8 M3.92,20.8c-0.894,0-1.636,0.246-2.155,0.765 c-2.014,2.014,0.085,7.378,4.688,11.981C9.87,36.963,13.706,39,16.28,39c0.894,0,1.636-0.246,2.155-0.765 c2.014-2.014-0.085-7.378-4.688-11.981C10.33,22.837,6.495,20.8,3.92,20.8L3.92,20.8z"/><path fill="none" stroke="#4788c7" stroke-linecap="round" stroke-linejoin="round" stroke-miterlimit="10" d="M7.5 7.5L17.5 17.5"/><g><path fill="#b6dcfe" d="M7.989,8.495c-1.757,0-3.086-0.322-3.647-0.882c-0.839-0.839-1.46-3.478-1.735-5.009 C4.131,2.875,6.76,3.49,7.612,4.342c0.841,0.841,0.93,2.987,0.879,4.144C8.351,8.491,8.181,8.495,7.989,8.495L7.989,8.495z"/><path fill="#4788c7" d="M3.236,3.232c1.622,0.336,3.441,0.881,4.023,1.463C7.811,5.248,8.01,6.744,8.004,7.995 c-0.005,0-0.01,0-0.015,0c-1.577,0-2.839-0.282-3.293-0.736C4.124,6.687,3.577,4.862,3.236,3.232 M2,2c0,0,0.672,4.65,1.989,5.966 c0.884,0.884,2.822,1.029,4,1.029c0.577,0,0.971-0.035,0.971-0.035s0.343-3.634-0.994-4.972S2,2,2,2L2,2z"/></g><path fill="#fff" d="M9 28.409A1.133 2.591 0 1 0 9 33.591A1.133 2.591 0 1 0 9 28.409Z" transform="rotate(-45.001 9 31)"/></svg>