<svg xmlns="http://www.w3.org/2000/svg" viewBox="0 0 24 24"><path d="M 0 0 L 0 20 L 8 24 L 10.1875 22.90625 C 9.6875 22.40625 9.210938 21.90625 8.8125 21.40625 L 8.59375 21.5 C 7.625 19.9375 7 17.851563 7 16 L 7 21.3125 L 5 20.3125 L 5 4.03125 L 7 4.78125 L 7 16 C 7 13.898438 7.800781 11.914063 9 10.3125 L 9 4.6875 L 11 3.9375 L 11 8.5 C 11.601563 8.101563 12.300781 7.800781 13 7.5 L 13 3.1875 L 15 2.4375 L 15 7.09375 C 15.300781 6.992188 15.699219 7 16 7 C 16.300781 7 16.699219 6.992188 17 7.09375 L 17 2.65625 L 19 3.65625 L 19 7.59375 C 19.699219 7.792969 20.398438 8.101563 21 8.5 L 21 4.6875 L 22 5.1875 L 22 9.3125 C 22.800781 10.011719 23.5 10.90625 24 11.90625 L 24 4 L 16 0 L 8 3 Z M 2 2.90625 L 3 3.28125 L 3 19.3125 L 2 18.8125 Z M 16 8 C 11.601563 8 8 11.601563 8 16 C 8 20.398438 11.601563 24 16 24 C 20.398438 24 24 20.398438 24 16 C 24 11.601563 20.398438 8 16 8 Z M 16 9.3125 C 19.699219 9.3125 22.6875 12.300781 22.6875 16 C 22.6875 19.699219 19.699219 22.6875 16 22.6875 C 12.300781 22.6875 9.3125 19.699219 9.3125 16 C 9.3125 12.300781 12.300781 9.3125 16 9.3125 Z M 15.8125 13 L 15.8125 13.8125 L 17.59375 13.8125 L 16 18.1875 L 16.8125 18.1875 L 18.5 13.5 L 18.5 13 Z M 12.1875 16.1875 L 12.1875 16.6875 L 14.8125 16.6875 L 14.8125 16.1875 Z M 23.5 24 L 23.59375 24 Z"/></svg>