<svg xmlns="http://www.w3.org/2000/svg" viewBox="0 0 100 100"><path fill="#c7ede6" d="M88.704,55.677c0.3-0.616,0.566-1.264,0.796-1.943c2.633-7.77-1.349-17.078-9.733-19.325C78.86,23.026,70.86,15.216,61.826,13.884c-10.341-1.525-19.814,5.044-22.966,15.485c-3.799-1.346-7.501-1.182-10.99,0.857c-1.583,0.732-3.031,1.812-4.33,3.233c-1.907,2.086-3.147,4.719-3.652,7.495c-0.748,0.118-1.483,0.236-2.176,0.484c-4.04,1.449-6.589,4.431-7.288,8.923c-0.435,2.797,0.443,5.587,0.933,6.714c1.935,4.455,6.422,6.98,10.981,6.312c0.227-0.033,0.557,0.069,0.752,0.233c0.241,7.12,3.698,13.417,8.884,17.014c8.321,5.772,19.027,3.994,25.781-3.921c2.894,2.96,6.338,4.398,10.384,3.876c4.023-0.519,7.147-2.739,9.426-6.349c1.053,0.283,2.051,0.691,3.083,0.804c4.042,0.442,7.324-1.165,9.732-4.8c0.922-1.391,1.793-3.194,1.793-6.354C92.174,60.634,90.88,57.667,88.704,55.677z"/><path fill="#fdfcef" d="M73.968,48.846c0,0,11.691,0,11.762,0c2.7,0,4.888-2.189,4.888-4.889c0-2.355-1.666-4.321-3.884-4.784c0.026-0.206,0.043-0.415,0.043-0.628c0-2.796-2.267-5.063-5.063-5.063c-1.651,0-3.113,0.794-4.037,2.017c-0.236-3.113-3.017-5.514-6.27-5.116c-2.379,0.291-4.346,2.13-4.784,4.486c-0.14,0.756-0.126,1.489,0.014,2.177c-0.638-0.687-1.546-1.119-2.557-1.119c-1.85,0-3.361,1.441-3.48,3.261c-0.84-0.186-1.754-0.174-2.717,0.188c-1.84,0.691-3.15,2.423-3.227,4.387c-0.109,2.789,2.12,5.085,4.885,5.085c0.21,0,0.948,0,1.118,0h10.151"/><path fill="#472b29" d="M85.73,49.346H73.967c-0.276,0-0.5-0.224-0.5-0.5s0.224-0.5,0.5-0.5H85.73c2.419,0,4.388-1.969,4.388-4.389c0-2.067-1.466-3.873-3.486-4.295c-0.254-0.053-0.426-0.292-0.394-0.55c0.022-0.186,0.039-0.375,0.039-0.567c0-2.516-2.047-4.563-4.562-4.563c-1.439,0-2.766,0.663-3.638,1.818c-0.126,0.167-0.343,0.238-0.54,0.179c-0.2-0.059-0.342-0.235-0.358-0.442c-0.104-1.377-0.778-2.671-1.85-3.549c-1.083-0.888-2.451-1.28-3.86-1.109c-2.166,0.265-3.956,1.943-4.354,4.081c-0.123,0.67-0.119,1.338,0.014,1.986c0.045,0.22-0.062,0.442-0.262,0.545c-0.197,0.103-0.441,0.061-0.595-0.104c-0.574-0.619-1.353-0.959-2.19-0.959c-1.569,0-2.879,1.227-2.981,2.793c-0.01,0.146-0.082,0.28-0.199,0.367c-0.116,0.087-0.269,0.118-0.407,0.088c-0.844-0.187-1.639-0.131-2.434,0.167c-1.669,0.626-2.836,2.209-2.902,3.938c-0.048,1.208,0.386,2.35,1.221,3.218c0.835,0.869,1.959,1.347,3.164,1.347h11.269c0.276,0,0.5,0.224,0.5,0.5s-0.224,0.5-0.5,0.5H59.543c-1.479,0-2.859-0.587-3.885-1.654s-1.558-2.469-1.5-3.951c0.083-2.125,1.51-4.069,3.551-4.835c0.801-0.3,1.627-0.401,2.468-0.298c0.377-1.823,1.997-3.182,3.905-3.182c0.685,0,1.354,0.179,1.943,0.509c0-0.384,0.035-0.771,0.107-1.159c0.476-2.562,2.62-4.573,5.215-4.891c1.687-0.208,3.32,0.267,4.615,1.328c1.004,0.823,1.716,1.951,2.038,3.193c1.012-0.916,2.319-1.425,3.714-1.425c3.067,0,5.562,2.496,5.562,5.563c0,0.083-0.002,0.166-0.007,0.249c2.254,0.672,3.848,2.777,3.848,5.164C91.118,46.929,88.701,49.346,85.73,49.346z"/><path fill="#fdfcef" d="M71.135,38.077c-1.808-0.119-3.365,1.13-3.476,2.789c-0.014,0.206-0.005,0.409,0.025,0.606c-0.349-0.394-0.865-0.661-1.458-0.7c-1.085-0.071-2.022,0.645-2.158,1.62c-0.197-0.054-0.403-0.09-0.616-0.104c-1.582-0.104-2.944,0.989-3.042,2.441"/><path fill="#472b29" d="M60.41,44.979c-0.006,0-0.011,0-0.017,0c-0.138-0.009-0.242-0.128-0.232-0.266c0.106-1.586,1.575-2.781,3.308-2.674c0.135,0.009,0.271,0.027,0.408,0.053c0.274-0.968,1.258-1.638,2.366-1.568c0.425,0.028,0.823,0.161,1.163,0.382c0.001-0.019,0.002-0.038,0.004-0.057c0.119-1.793,1.803-3.146,3.741-3.021c0.138,0.009,0.242,0.128,0.232,0.266c-0.008,0.132-0.118,0.233-0.249,0.233c-0.005,0-0.011,0-0.017,0c-1.66-0.106-3.107,1.038-3.21,2.556c-0.013,0.183-0.005,0.368,0.023,0.552c0.017,0.11-0.04,0.217-0.141,0.264c-0.1,0.047-0.22,0.023-0.293-0.06c-0.323-0.364-0.781-0.583-1.288-0.617c-0.951-0.058-1.775,0.555-1.894,1.405c-0.011,0.071-0.051,0.134-0.11,0.174c-0.06,0.041-0.135,0.052-0.203,0.033c-0.189-0.051-0.38-0.084-0.567-0.096c-1.441-0.102-2.688,0.896-2.776,2.208C60.65,44.878,60.541,44.979,60.41,44.979z"/><path fill="#fdfcef" d="M87.709,39.746c-1.699-0.801-3.664-0.234-4.389,1.267c-0.09,0.186-0.157,0.379-0.201,0.574"/><path fill="#472b29" d="M83.12,41.836c-0.018,0-0.036-0.002-0.055-0.006c-0.135-0.03-0.22-0.164-0.189-0.299c0.049-0.215,0.122-0.426,0.219-0.626c0.782-1.622,2.899-2.244,4.722-1.384c0.125,0.059,0.179,0.208,0.12,0.333c-0.059,0.125-0.21,0.178-0.333,0.12c-1.572-0.74-3.394-0.227-4.058,1.149c-0.081,0.166-0.142,0.341-0.182,0.52C83.337,41.758,83.234,41.836,83.12,41.836z"/><path fill="#fff" d="M18.369 47.713H8.338c-.276 0-.5-.224-.5-.5s.224-.5.5-.5h10.03c.276 0 .5.224.5.5S18.645 47.713 18.369 47.713zM21.25 47.713h-1.445c-.276 0-.5-.224-.5-.5s.224-.5.5-.5h1.445c.276 0 .5.224.5.5S21.526 47.713 21.25 47.713zM25.304 47.713h-2.546c-.276 0-.5-.224-.5-.5s.224-.5.5-.5h2.546c.276 0 .5.224.5.5S25.581 47.713 25.304 47.713zM25.304 49.578h-9.616c-.276 0-.5-.224-.5-.5s.224-.5.5-.5h9.616c.276 0 .5.224.5.5S25.581 49.578 25.304 49.578zM13.957 49.578h-.58c-.276 0-.5-.224-.5-.5s.224-.5.5-.5h.58c.276 0 .5.224.5.5S14.233 49.578 13.957 49.578zM11.58 49.578h-1.456c-.276 0-.5-.224-.5-.5s.224-.5.5-.5h1.456c.276 0 .5.224.5.5S11.856 49.578 11.58 49.578zM20.715 45.848h-5.027c-.276 0-.5-.224-.5-.5s.224-.5.5-.5h5.027c.276 0 .5.224.5.5S20.992 45.848 20.715 45.848zM20.715 43.983h-1.258c-.276 0-.5-.224-.5-.5s.224-.5.5-.5h1.258c.276 0 .5.224.5.5S20.992 43.983 20.715 43.983zM17.447 51.443h-1.759c-.276 0-.5-.224-.5-.5s.224-.5.5-.5h1.759c.276 0 .5.224.5.5S17.723 51.443 17.447 51.443zM71.546 21.436h-10.03c-.276 0-.5-.224-.5-.5s.224-.5.5-.5h10.03c.276 0 .5.224.5.5S71.823 21.436 71.546 21.436zM74.427 21.436h-1.445c-.276 0-.5-.224-.5-.5s.224-.5.5-.5h1.445c.276 0 .5.224.5.5S74.704 21.436 74.427 21.436zM78.482 21.436h-2.546c-.276 0-.5-.224-.5-.5s.224-.5.5-.5h2.546c.276 0 .5.224.5.5S78.758 21.436 78.482 21.436zM76.457 17.706H66.84c-.276 0-.5-.224-.5-.5s.224-.5.5-.5h9.616c.276 0 .5.224.5.5S76.733 17.706 76.457 17.706zM65.108 17.706h-.58c-.276 0-.5-.224-.5-.5s.224-.5.5-.5h.58c.276 0 .5.224.5.5S65.384 17.706 65.108 17.706zM62.732 17.706h-1.457c-.276 0-.5-.224-.5-.5s.224-.5.5-.5h1.457c.276 0 .5.224.5.5S63.008 17.706 62.732 17.706zM73.893 19.571h-5.027c-.276 0-.5-.224-.5-.5s.224-.5.5-.5h5.027c.276 0 .5.224.5.5S74.17 19.571 73.893 19.571z"/><path fill="#fff" d="M73.893 17.706h-1.257c-.276 0-.5-.224-.5-.5s.224-.5.5-.5h1.257c.276 0 .5.224.5.5S74.17 17.706 73.893 17.706zM67.411 19.571h-1.759c-.276 0-.5-.224-.5-.5s.224-.5.5-.5h1.759c.276 0 .5.224.5.5S67.687 19.571 67.411 19.571z"/><path fill="#8889b9" d="M71.086 63.447A3.33 3.33 0 1 0 71.086 70.107A3.33 3.33 0 1 0 71.086 63.447Z"/><path fill="#472b29" d="M71.086,70.604c-2.109,0-3.826-1.717-3.826-3.827s1.717-3.827,3.826-3.827c2.11,0,3.827,1.717,3.827,3.827S73.196,70.604,71.086,70.604z M71.086,63.943c-1.562,0-2.834,1.271-2.834,2.834s1.271,2.834,2.834,2.834c1.563,0,2.835-1.271,2.835-2.834S72.649,63.943,71.086,63.943z"/><path fill="#646689" d="M71.086 64.662A2.115 2.115 0 1 0 71.086 68.892A2.115 2.115 0 1 0 71.086 64.662Z"/><path fill="#472b29" d="M71.086,69.176c-1.322,0-2.398-1.076-2.398-2.399s1.076-2.399,2.398-2.399s2.398,1.077,2.398,2.399S72.408,69.176,71.086,69.176z M71.086,64.945c-1.01,0-1.832,0.822-1.832,1.832s0.822,1.832,1.832,1.832s1.832-0.821,1.832-1.832S72.095,64.945,71.086,64.945z"/><path fill="#8889b9" d="M38.152 63.447A3.33 3.33 0 1 0 38.152 70.107A3.33 3.33 0 1 0 38.152 63.447Z"/><path fill="#472b29" d="M38.152,70.604c-2.109,0-3.826-1.717-3.826-3.827s1.717-3.827,3.826-3.827c2.11,0,3.827,1.717,3.827,3.827S40.262,70.604,38.152,70.604z M38.152,63.943c-1.562,0-2.834,1.271-2.834,2.834s1.271,2.834,2.834,2.834c1.563,0,2.835-1.271,2.835-2.834S39.715,63.943,38.152,63.943z"/><path fill="#646689" d="M38.152 64.662A2.115 2.115 0 1 0 38.152 68.892A2.115 2.115 0 1 0 38.152 64.662Z"/><path fill="#472b29" d="M38.152,69.176c-1.322,0-2.398-1.076-2.398-2.399s1.076-2.399,2.398-2.399c1.323,0,2.399,1.077,2.399,2.399S39.475,69.176,38.152,69.176z M38.152,64.945c-1.01,0-1.832,0.822-1.832,1.832s0.822,1.832,1.832,1.832c1.011,0,1.833-0.821,1.833-1.832S39.163,64.945,38.152,64.945z"/><g><path fill="#ee3e54" d="M38.39,67.273c2.193,0.703,3.076-0.614,4.982-0.728c1.253-0.075,2.237,0.73,3.504,0.552c1.761-0.247,2.611-1.521,4.591-0.977c1.055,0.29,1.768,0.795,2.966,0.614c0.589-0.089,1.086-0.346,1.68-0.422c0.868-0.112,1.616,0.073,2.435,0.267c0.817,0.194,1.502,0.486,2.426,0.3c0.62-0.125,1.019-0.459,1.585-0.645c0.838-0.275,1.606-0.229,2.475-0.036c0.58,0.129,1.15,0.39,1.752,0.461c1.249,0.148,1.786-0.266,2.759-0.542c0.86-0.244,1.747-0.364,2.663-0.266c1.477,0.159,2.901,1.307,4.433,1.077c0.07-0.01,0.136-0.027,0.204-0.041l-3.6-18.291H35.993l-3.53,17.938C34.329,66.167,36.948,66.81,38.39,67.273z"/><path fill="#472b29" d="M39.612,68.177c-0.429,0-0.901-0.067-1.436-0.238c-0.824-0.264-3.664-1.097-5.578-0.719c-0.229,0.045-0.465-0.027-0.63-0.192c-0.165-0.165-0.236-0.401-0.191-0.63l3.529-17.938c0.064-0.328,0.352-0.565,0.687-0.565h37.252c0.335,0,0.622,0.237,0.687,0.565l3.6,18.291c0.074,0.374-0.165,0.738-0.538,0.819c-0.107,0.024-0.175,0.039-0.244,0.049c-1.085,0.159-2.087-0.23-2.972-0.577c-0.578-0.227-1.124-0.44-1.645-0.497c-0.746-0.078-1.534-0.001-2.396,0.243c-0.24,0.068-0.451,0.146-0.654,0.22c-0.637,0.232-1.298,0.47-2.379,0.344c-0.425-0.051-0.809-0.172-1.18-0.29c-0.214-0.068-0.428-0.136-0.643-0.184c-0.868-0.193-1.477-0.187-2.104,0.018c-0.204,0.067-0.382,0.159-0.56,0.248c-0.307,0.154-0.654,0.328-1.104,0.418c-0.902,0.182-1.601-0.007-2.273-0.188c-0.148-0.04-0.298-0.08-0.452-0.117c-0.808-0.192-1.461-0.347-2.184-0.254c-0.246,0.032-0.491,0.108-0.75,0.189c-0.284,0.089-0.577,0.18-0.915,0.231c-1.037,0.159-1.771-0.112-2.48-0.372c-0.244-0.09-0.497-0.183-0.775-0.26c-0.98-0.269-1.568-0.002-2.384,0.367c-0.54,0.244-1.152,0.521-1.924,0.629c-0.822,0.11-1.525-0.1-2.147-0.288c-0.486-0.148-0.946-0.287-1.413-0.259c-0.63,0.038-1.141,0.234-1.681,0.441C41.119,67.921,40.451,68.177,39.612,68.177z M33.703,65.725c1.908,0,3.974,0.584,4.901,0.881l0,0c1.105,0.354,1.777,0.098,2.626-0.228c0.588-0.226,1.254-0.482,2.1-0.532c0.729-0.046,1.349,0.148,1.904,0.316c0.553,0.167,1.029,0.316,1.546,0.241c0.572-0.08,1.043-0.293,1.541-0.519c0.873-0.396,1.861-0.843,3.332-0.44c0.317,0.087,0.606,0.192,0.886,0.294c0.619,0.227,1.107,0.405,1.79,0.303c0.248-0.038,0.477-0.112,0.706-0.184c0.306-0.095,0.621-0.194,0.988-0.241c0.979-0.126,1.821,0.075,2.635,0.268c0.22,0.052,0.384,0.096,0.545,0.14c0.59,0.159,1.055,0.283,1.632,0.167c0.268-0.054,0.493-0.167,0.755-0.298c0.238-0.12,0.478-0.237,0.751-0.326c0.875-0.288,1.725-0.303,2.845-0.054c0.254,0.056,0.507,0.135,0.76,0.215c0.324,0.103,0.63,0.199,0.923,0.234c0.752,0.087,1.164-0.062,1.734-0.27c0.232-0.085,0.476-0.173,0.751-0.251c1.037-0.294,1.995-0.389,2.93-0.288c0.706,0.076,1.366,0.334,2.005,0.584c0.597,0.234,1.168,0.458,1.718,0.508L72.67,49.296H36.569l-3.234,16.437C33.457,65.727,33.58,65.725,33.703,65.725z"/></g><path fill="#472b29" d="M39.464 67.762c-.011 0-.022-.001-.034-.002-.155-.019-.266-.16-.247-.315l.896-7.4c.02-.154.149-.263.315-.247.155.019.266.16.247.315l-.896 7.4C39.728 67.656 39.606 67.762 39.464 67.762zM46.877 67.498c-.156 0-.283-.127-.283-.284v-7.163c0-.157.127-.284.283-.284s.283.127.283.284v7.163C47.16 67.371 47.033 67.498 46.877 67.498zM53.662 67.135c-.156 0-.283-.127-.283-.284v-6.773c0-.157.127-.284.283-.284s.283.127.283.284v6.773C53.945 67.008 53.818 67.135 53.662 67.135zM60.352 67.419c-.156 0-.283-.127-.283-.284v-7.108c0-.157.127-.284.283-.284s.283.127.283.284v7.108C60.635 67.292 60.508 67.419 60.352 67.419zM67.616 67.448c-.141 0-.263-.104-.281-.247l-.918-7.086c-.02-.155.09-.298.245-.318.15-.018.297.09.317.245l.918 7.086c.02.155-.09.298-.245.318C67.64 67.447 67.628 67.448 67.616 67.448z"/><g><path fill="#f1bc19" d="M53.901 28.729H55.407000000000004V30.744999999999997H53.901z"/><path fill="#472b29" d="M55.756,31.094h-2.205v-2.716h2.205V31.094z M54.251,30.394h0.807v-1.315h-0.807V30.394z"/><path fill="#f1bc19" d="M56.196,28.048h-3.085c-0.752,0-1.362,0.61-1.362,1.362h5.808C57.558,28.658,56.948,28.048,56.196,28.048z"/><path fill="#472b29" d="M57.908,29.76H51.4v-0.35c0-0.944,0.768-1.712,1.712-1.712h3.084c0.944,0,1.712,0.768,1.712,1.712V29.76z M52.162,29.06h4.984c-0.144-0.386-0.515-0.662-0.95-0.662h-3.084C52.676,28.398,52.305,28.674,52.162,29.06z"/><g><path fill="#f1bc19" d="M71.775,46.772c-0.139-0.69-0.395-1.226-1.671-1.226h-30.9c-1.276,0-1.532,0.537-1.671,1.226h0v0.001c-0.01,0.051-0.016,0.102-0.016,0.154v0.207h0.016v0.056v1.184h34.259L71.775,46.772z"/><path fill="#472b29" d="M72.296,48.873H37.033l-0.017-1.946c0-0.085,0.009-0.172,0.027-0.258c0.161-0.8,0.544-1.624,2.16-1.624h30.9c1.616,0,1.999,0.823,2.161,1.628l0.01,0.093L72.296,48.873z M38.033,47.873h33.254l-0.011-1.049c-0.093-0.455-0.189-0.779-1.172-0.779h-30.9c-1.012,0-1.084,0.344-1.18,0.821L38.033,47.873z"/></g><g><path fill="#dba305" d="M54.654,30.744c-8.15,0-14.756,6.607-14.756,14.756H69.41C69.41,37.351,62.803,30.744,54.654,30.744z"/><path fill="#472b29" d="M69.91,46.001H39.398v-0.5c0-8.413,6.844-15.256,15.256-15.256S69.91,37.088,69.91,45.501V46.001z M40.407,45.001h28.494c-0.265-7.63-6.554-13.756-14.247-13.756S40.671,37.37,40.407,45.001z"/></g></g><g><path fill="#fdfcef" d="M40.551,71.74c1.883,0,3.517,0,3.54,0c2.11,0,3.821-1.674,3.821-3.739c0-1.802-1.302-3.305-3.035-3.66c0.02-0.158,0.034-0.317,0.034-0.48c0-2.139-1.772-3.873-3.957-3.873c-1.29,0-2.433,0.607-3.155,1.543c-0.185-2.381-2.358-4.218-4.9-3.913c-1.859,0.223-3.397,1.629-3.739,3.431c-0.11,0.578-0.098,1.139,0.011,1.665c-0.498-0.525-1.208-0.856-1.998-0.856c-1.446,0-2.627,1.102-2.72,2.494c-0.657-0.142-1.371-0.133-2.123,0.143c-1.438,0.528-2.462,1.853-2.522,3.356c-0.085,2.133,1.657,3.889,3.818,3.889c0.164,0,0.741,0,0.874,0h7.934 M34.074,71.74h0.36"/><path fill="#472b29" d="M44.091,72.239h-3.54c-0.276,0-0.5-0.224-0.5-0.5s0.224-0.5,0.5-0.5h3.54c1.831,0,3.32-1.453,3.32-3.239c0-1.524-1.108-2.857-2.636-3.17c-0.257-0.052-0.429-0.294-0.396-0.554c0.018-0.137,0.03-0.275,0.03-0.416c0-1.86-1.551-3.373-3.457-3.373c-1.093,0-2.099,0.491-2.76,1.348c-0.126,0.164-0.342,0.234-0.538,0.174c-0.198-0.059-0.34-0.234-0.355-0.44c-0.079-1.019-0.565-1.943-1.37-2.603c-0.828-0.68-1.887-0.985-2.973-0.853c-1.646,0.197-3.006,1.442-3.308,3.028c-0.094,0.494-0.09,0.989,0.01,1.471c0.046,0.219-0.06,0.441-0.258,0.544c-0.197,0.104-0.439,0.064-0.594-0.099c-0.429-0.452-1.01-0.7-1.636-0.7c-1.169,0-2.146,0.891-2.222,2.028c-0.01,0.145-0.082,0.278-0.198,0.366c-0.116,0.088-0.264,0.12-0.406,0.089c-0.641-0.139-1.242-0.097-1.846,0.124c-1.262,0.464-2.144,1.632-2.193,2.906c-0.035,0.875,0.282,1.708,0.894,2.344c0.635,0.661,1.495,1.025,2.424,1.025h8.808c0.276,0,0.5,0.224,0.5,0.5s-0.224,0.5-0.5,0.5h-8.808c-1.186,0-2.332-0.485-3.146-1.332c-0.802-0.835-1.218-1.928-1.172-3.077c0.066-1.674,1.212-3.203,2.849-3.805c0.612-0.225,1.241-0.307,1.881-0.245c0.345-1.396,1.63-2.424,3.136-2.424c0.499,0,0.979,0.11,1.413,0.319c0.009-0.24,0.036-0.481,0.082-0.721c0.382-2.01,2.098-3.586,4.171-3.835c1.363-0.163,2.686,0.218,3.727,1.073c0.747,0.613,1.278,1.409,1.546,2.301c0.791-0.648,1.785-1.006,2.843-1.006c2.458,0,4.457,1.961,4.457,4.373c0,0.034-0.001,0.068-0.002,0.103c1.765,0.555,3.003,2.188,3.003,4.038C48.412,70.338,46.473,72.239,44.091,72.239z M34.433,72.239h-0.359c-0.276,0-0.5-0.224-0.5-0.5s0.224-0.5,0.5-0.5h0.359c0.276,0,0.5,0.224,0.5,0.5S34.71,72.239,34.433,72.239z"/><path fill="#472b29" d="M42.384,66.437c-0.018,0-0.036-0.002-0.055-0.006c-0.135-0.03-0.22-0.164-0.189-0.298c0.037-0.168,0.095-0.33,0.17-0.48c0.604-1.225,2.275-1.674,3.721-1.006c0.126,0.058,0.181,0.207,0.122,0.332c-0.058,0.125-0.208,0.18-0.331,0.122c-1.208-0.558-2.579-0.209-3.063,0.774c-0.058,0.115-0.102,0.238-0.13,0.367C42.602,66.358,42.5,66.437,42.384,66.437z"/><g><path fill="#472b29" d="M37.225,72.239h-1.107c-0.276,0-0.5-0.224-0.5-0.5s0.224-0.5,0.5-0.5h1.107c0.276,0,0.5,0.224,0.5,0.5S37.502,72.239,37.225,72.239z"/></g></g></svg>