<svg xmlns="http://www.w3.org/2000/svg" viewBox="0 0 48 48"><polygon fill="#b0bec5" points="27,21 24,21 21,21 11,38 11,46 21,36 24,36 27,36 37,46 37,38"/><polygon fill="#cfd8dc" points="17.856,39.144 19.3,37.7 15.013,31.178 13.883,33.099"/><polygon fill="#cfd8dc" points="21.076,36 23.47,36 17.51,26.934 16.379,28.855"/><polygon fill="#cfd8dc" points="30.142,39.144 28.698,37.7 32.985,31.178 34.116,33.099"/><polygon fill="#cfd8dc" points="26.922,36 24.528,36 30.489,26.934 31.619,28.855"/><polygon fill="#cfd8dc" points="37,48 39,48 40,40 40,27 36,27 36,40"/><polygon fill="#cfd8dc" points="11,48 9,48 8,40 8,27 12,27 12,40"/><path fill="#03a9f4" d="M11.18,26H8.82C8.367,26,8,26.367,8,26.82V28h4v-1.18C12,26.367,11.633,26,11.18,26z"/><path fill="#03a9f4" d="M39.18,26h-2.36C36.367,26,36,26.367,36,26.82V28h4v-1.18C40,26.367,39.633,26,39.18,26z"/><path fill="#78909c" d="M27,21h-3h-3l-1.323,2.248C21.032,23.726,22.482,24,24,24s2.968-0.274,4.323-0.752L27,21z"/><circle cx="24" cy="11" r="11" fill="#b0bec5"/><path fill="#cfd8dc" d="M19,1.21V7h2V0.425C20.302,0.622,19.634,0.886,19,1.21z"/><path fill="#cfd8dc" d="M27,0.425V7h2V1.21C28.366,0.886,27.698,0.622,27,0.425z"/><path fill="#cfd8dc" d="M24,0c-0.338,0-0.67,0.021-1,0.05V7h2V0.05C24.67,0.021,24.338,0,24,0z"/><circle cx="24" cy="11" r="7" fill="#78909c"/><circle cx="24" cy="11" r="5" fill="#b0bec5"/><g><rect width="2" height="25" x="23" y="11" fill="#90a4ae"/></g><g><circle cx="24" cy="11" r="2" fill="#03a9f4"/></g><g><rect width="2" height="2" x="23" y="26" fill="#cfd8dc"/></g><g><rect width="2" height="2" x="23" y="30" fill="#cfd8dc"/></g></svg>