<svg xmlns="http://www.w3.org/2000/svg" viewBox="0 0 26 26"><path d="M 0.90625 -0.03125 C 0.863281 -0.0234375 0.820313 -0.0117188 0.78125 0 C 0.40625 0.0664063 0.105469 0.339844 0 0.703125 C -0.105469 1.070313 0.00390625 1.460938 0.28125 1.71875 L 24.28125 25.71875 C 24.679688 26.117188 25.320313 26.117188 25.71875 25.71875 C 26.117188 25.320313 26.117188 24.679688 25.71875 24.28125 L 22.90625 21.46875 C 22.953125 21.027344 23 20.546875 23 20 C 23 19.398438 22.601563 19 22 19 C 21.550781 19 21.203125 19.226563 21.0625 19.59375 L 10.15625 8.71875 C 11.921875 6.433594 13.507813 3.980469 14 1.1875 C 14.101563 0.6875 13.6875 0.101563 13.1875 0 C 12.6875 -0.101563 12.101563 0.3125 12 0.8125 C 11.597656 3.140625 10.285156 5.265625 8.75 7.3125 L 1.71875 0.28125 C 1.511719 0.0585938 1.210938 -0.0546875 0.90625 -0.03125 Z M 6.3125 10.40625 C 4.011719 13.207031 2 15.898438 2 19 C 2 23.5 7.398438 23.585938 10.5 23.6875 C 11.398438 23.6875 12.289063 23.710938 12.6875 23.8125 C 13.488281 24.011719 14.113281 24.414063 14.8125 24.8125 C 15.914063 25.414063 17 26 18.5 26 C 19.398438 26 20.292969 25.789063 21.09375 25.1875 L 19.6875 23.8125 C 19.289063 24.011719 18.898438 24 18.5 24 C 17.5 24 16.710938 23.601563 15.8125 23 C 15.113281 22.601563 14.1875 22.105469 13.1875 21.90625 C 12.585938 21.707031 11.699219 21.6875 10.5 21.6875 C 7 21.585938 4 21.300781 4 19 C 4 16.601563 5.6875 14.210938 7.6875 11.8125 Z"/></svg>