<svg xmlns="http://www.w3.org/2000/svg" viewBox="0 0 16 16"><path d="M 2.5 1 A 0.5 0.5 0 0 0 2 1.5 A 0.5 0.5 0 0 0 2.5 2 A 0.5 0.5 0 0 0 3 1.5 A 0.5 0.5 0 0 0 2.5 1 z M 3.5 2 A 0.5 0.5 0 0 0 3 2.5 A 0.5 0.5 0 0 0 3.5 3 A 0.5 0.5 0 0 0 4 2.5 A 0.5 0.5 0 0 0 3.5 2 z M 4.5 3 A 0.5 0.5 0 0 0 4 3.5 A 0.5 0.5 0 0 0 4.5 4 A 0.5 0.5 0 0 0 5 3.5 A 0.5 0.5 0 0 0 4.5 3 z M 6.484375 4 C 6.385375 4 6.2916563 4.040375 6.2226562 4.109375 L 5.109375 5.2226562 C 4.964375 5.3666563 4.964375 5.6010938 5.109375 5.7460938 L 6.328125 6.9648438 L 5.4394531 7.8535156 C 5.1580498 8.1349189 5 8.516987 5 8.9140625 L 5 10.5 L 5 11 L 6 11 L 6 10.5 L 6 8.9140625 C 6 8.9127553 5.99999 8.9114621 6 8.9101562 L 8 10.910156 L 8 11 L 8 13.5 L 8 14 L 9 14 L 9 13.5 L 9 11.910156 L 10.660156 13.570312 C 11.229275 14.139432 12.16721 14.139432 12.736328 13.570312 L 14.568359 11.738281 C 15.137478 11.169163 15.137478 10.231228 14.568359 9.6621094 L 9.9082031 5.0019531 C 9.9102868 5.0019268 9.9119764 5 9.9140625 5 L 11.498047 5 L 11.998047 5 L 11.998047 4 L 11.498047 4 L 9.9140625 4 C 9.516987 4 9.1331928 4.1563168 8.8515625 4.4394531 L 7.9648438 5.328125 L 6.7460938 4.109375 C 6.6770937 4.040375 6.582375 4 6.484375 4 z M 9.0996094 5.6074219 L 13.861328 10.369141 C 14.04821 10.556022 14.04821 10.844368 13.861328 11.03125 L 12.029297 12.863281 C 11.842415 13.050163 11.554068 13.050163 11.367188 12.863281 L 6.6054688 8.1015625 L 9.0996094 5.6074219 z"/></svg>