<svg xmlns="http://www.w3.org/2000/svg" viewBox="0 0 128 128"><path fill="#fff" d="M99,44c11,0,20,9,20,20s-9,20-20,20H29C18,84,9,75,9,64s9-20,20-20h5v-5C34,22.4,47.4,9,64,9s30,13.4,30,30v5H99z"/><path fill="#444b54" d="M99,87h-8c-1.7,0-3-1.3-3-3s1.3-3,3-3h8c9.4,0,17-7.6,17-17s-7.6-17-17-17h-5c-1.7,0-3-1.3-3-3v-5c0-14.9-12.1-27-27-27S37,24.1,37,39v5c0,1.7-1.3,3-3,3h-5c-9.4,0-17,7.6-17,17s7.6,17,17,17h8c1.7,0,3,1.3,3,3s-1.3,3-3,3h-8C16.3,87,6,76.7,6,64s10.3-23,23-23h2v-2C31,20.8,45.8,6,64,6s33,14.8,33,33v2h2c12.7,0,23,10.3,23,23S111.7,87,99,87z"/><path fill="#71c2ff" d="M50 124c-1.7 0-3-1.3-3-3V50c0-1.7 1.3-3 3-3s3 1.3 3 3v71C53 122.7 51.7 124 50 124zM78 124c-1.7 0-3-1.3-3-3V50c0-1.7 1.3-3 3-3s3 1.3 3 3v71C81 122.7 79.7 124 78 124z"/><path fill="#71c2ff" d="M77.9 87H50c-1.7 0-3-1.3-3-3s1.3-3 3-3h27.9c1.7 0 3 1.3 3 3S79.5 87 77.9 87zM77.9 67H50c-1.7 0-3-1.3-3-3s1.3-3 3-3h27.9c1.7 0 3 1.3 3 3S79.5 67 77.9 67zM77.9 107H50c-1.7 0-3-1.3-3-3s1.3-3 3-3h27.9c1.7 0 3 1.3 3 3S79.5 107 77.9 107z"/></svg>