<svg xmlns="http://www.w3.org/2000/svg" viewBox="0 0 48 48"><path fill="#ffc107" d="M31,10c-1.898,0-3.699,0.391-5.348,1.081l-0.027,1.231L29,12.5l-1.148,2.025 C28.843,14.19,29.897,14,31,14c5.516,0,10,4.484,10,10s-4.484,10-10,10c-1.543,0-2.996-0.359-4.305-0.988 c-1.223-0.586-2.309-1.41-3.195-2.418C21.949,28.828,21,26.527,21,24c0-1.633,0.401-3.169,1.1-4.529l-0.537-1.283l-2.412,1.594 l-0.454-2.419C17.622,19.34,17,21.595,17,24c0,3.434,1.246,6.574,3.305,9.012c0.914,1.086,1.996,2.023,3.195,2.789 C25.672,37.188,28.238,38,31,38c7.719,0,14-6.281,14-14S38.719,10,31,10z"/><path fill="#f29e25" d="M19.313,26.563c0-2.827,0.995-5.41,2.633-7.459l-0.383-0.916l-2.412,1.594l-0.454-2.419 C17.622,19.34,17,21.595,17,24c0,3.434,1.246,6.574,3.305,9.012c0.914,1.086,1.996,2.023,3.195,2.789 c0.238,0.152,0.48,0.293,0.727,0.434C21.254,34.047,19.313,30.535,19.313,26.563z"/><path fill="#ffc107" d="M21.125,35.938l-2.813-0.125l0.778-2.32C18.116,33.814,17.082,34,16,34c-5.516,0-10-4.484-10-10 s4.484-10,10-10c1.543,0,2.996,0.359,4.305,0.988c1.223,0.586,2.309,1.41,3.195,2.418C25.051,19.172,26,21.473,26,24 c0,1.788-0.482,3.457-1.309,4.909l0.593,1.18l2.296-1.757l0.641,2.462C29.348,28.78,30,26.468,30,24 c0-3.434-1.246-6.574-3.305-9.012c-0.914-1.086-1.996-2.023-3.195-2.789C21.328,10.813,18.762,10,16,10C8.281,10,2,16.281,2,24 s6.281,14,14,14c1.678,0,3.282-0.304,4.771-0.85L21.125,35.938z"/><path fill="#f29e25" d="M27.688 21.438c0 2.957-1.086 5.65-2.862 7.739l.458.912 2.296-1.757.641 2.462C29.348 28.78 30 26.468 30 24c0-3.434-1.246-6.574-3.301-9.012-.918-1.086-1.996-2.023-3.199-2.789-.238-.152-.48-.293-.727-.434C25.75 13.953 27.688 17.465 27.688 21.438zM30.094 30.109l1.034 1.953c0 0 1.341-.575 1.455-1.494C31.817 30.416 30.094 30.109 30.094 30.109z"/><path fill="#ffc107" d="M22.586 39.917l2.454.507c0 0 .466-1.587-.255-2.351C24.098 38.632 22.586 39.917 22.586 39.917zM25.085 7.361l-2.487.306c0 0 .067 1.652.994 2.146C24.063 9.063 25.085 7.361 25.085 7.361z"/><path fill="#f29e25" d="M26.973 30.656L26.531 32.069 28.341 32.333zM16.316 18.867l-1.649-1.472c0 0-1.057 1.005-.845 1.907C14.594 19.18 16.316 18.867 16.316 18.867zM18.01 17.143L17.933 15.666 16.144 16.047z"/></svg>