<svg xmlns="http://www.w3.org/2000/svg" viewBox="0 0 64 64"><radialGradient id="GGCxc5xJWi9KI5RY58Tgwa" cx="33.383" cy="29.972" r="34.557" gradientTransform="matrix(1 0 0 -1 0 66)" gradientUnits="userSpaceOnUse"><stop offset="0" stop-color="#e6d5a2"/><stop offset=".106" stop-color="#eadaab"/><stop offset=".437" stop-color="#f2e6c2"/><stop offset=".744" stop-color="#f7edd1"/><stop offset="1" stop-color="#faf1d6"/></radialGradient><path fill="url(#GGCxc5xJWi9KI5RY58Tgwa)" d="M62,22h-5.876c-0.999,0-1.93-0.677-2.095-1.662C53.821,19.089,54.79,18,56,18h2.84	c1.62,0,3.07-1.22,3.16-2.84c0.08-1.74-1.29-3.16-3-3.16h-4.5c-0.83,0-1.5-0.67-1.5-1.5S53.67,9,54.5,9h2.332	c1.486,0,2.871-1,3.125-2.464C60.286,4.642,58.833,3,57,3H5.114C4.113,3,3.186,3.686,3.028,4.674C2.827,5.928,3.795,7,5,7h2.2	c1.541,0,2.79,1.249,2.79,2.79l0,0c0,1.765-1.444,3.21-3.21,3.21H4.64c-1.311,0-2.506,0.946-2.631,2.251	C1.866,16.746,3.034,18,4.5,18H20v17H2.64c-1.311,0-2.506,0.946-2.631,2.251C-0.134,38.746,1.034,40,2.5,40h2.86	c1.311,0,2.506,0.946,2.631,2.251C8.134,43.746,6.966,45,5.5,45H5.16C3.54,45,2.09,46.22,2,47.84C1.92,49.57,3.29,51,5,51h8.36	c1.311,0,2.506,0.946,2.631,2.251C16.134,54.746,14.966,56,13.5,56h-1.34c-1.62,0-3.07,1.22-3.16,2.84C8.92,60.57,10.29,62,12,62	h39.84c1.62,0,3.07-1.22,3.16-2.84c0.08-1.74-1.29-3.16-3-3.16h-0.5c-1.933,0-3.5-1.567-3.5-3.5l0,0c0-1.933,1.567-3.5,3.5-3.5H58	c2.209,0,4-1.791,4-4l0,0c0-2.209-1.791-4-4-4H46V26h15.876c0.999,0,1.93-0.677,2.095-1.662C64.179,23.089,63.21,22,62,22z"/><linearGradient id="GGCxc5xJWi9KI5RY58Tgwb" x1="32" x2="32" y1="11" y2="38" gradientTransform="matrix(1 0 0 -1 0 66)" gradientUnits="userSpaceOnUse"><stop offset=".122" stop-color="#636d7a"/><stop offset=".191" stop-color="#616b78"/><stop offset="1" stop-color="#555c68"/></linearGradient><path fill="url(#GGCxc5xJWi9KI5RY58Tgwb)" d="M14,28h36v3l3.328,17.304c0.383,2.107-0.961,4.152-3.049,4.625	c-12.186,2.761-24.372,2.761-36.558,0c-2.088-0.473-3.432-2.519-3.049-4.625L14,31V28z"/><linearGradient id="GGCxc5xJWi9KI5RY58Tgwc" x1="14.926" x2="14.926" y1="-27.575" y2="15.539" gradientTransform="matrix(1 0 0 -1 0 66)" gradientUnits="userSpaceOnUse"><stop offset="0" stop-color="#efc468"/><stop offset=".004" stop-color="#efc468"/><stop offset=".609" stop-color="#efc384"/><stop offset="1" stop-color="#efc291"/><stop offset="1" stop-color="#efc291"/></linearGradient><path fill="url(#GGCxc5xJWi9KI5RY58Tgwc)" d="M18.739,34.578C19.917,37.676,19.209,42,17,42c-3,0-4.822-0.903-6-4s0-7,3-7	C16.209,31,17.561,31.481,18.739,34.578z"/><linearGradient id="GGCxc5xJWi9KI5RY58Tgwd" x1="48.926" x2="48.926" y1="-27.575" y2="15.539" gradientTransform="matrix(1 0 0 -1 0 66)" gradientUnits="userSpaceOnUse"><stop offset="0" stop-color="#efc468"/><stop offset=".004" stop-color="#efc468"/><stop offset=".609" stop-color="#efc384"/><stop offset="1" stop-color="#efc291"/><stop offset="1" stop-color="#efc291"/></linearGradient><path fill="url(#GGCxc5xJWi9KI5RY58Tgwd)" d="M45.114,34.578C43.936,37.676,44.643,42,46.853,42c3,0,4.822-0.903,6-4s0-7-3-7	C47.643,31,46.292,31.481,45.114,34.578z"/><linearGradient id="GGCxc5xJWi9KI5RY58Tgwe" x1="32" x2="32" y1="-29.37" y2="14.681" gradientTransform="matrix(1 0 0 -1 0 66)" gradientUnits="userSpaceOnUse"><stop offset="0" stop-color="#efc468"/><stop offset=".004" stop-color="#efc468"/><stop offset=".609" stop-color="#efc384"/><stop offset="1" stop-color="#efc291"/><stop offset="1" stop-color="#efc291"/></linearGradient><path fill="url(#GGCxc5xJWi9KI5RY58Tgwe)" d="M50.34,31.49c-0.18,3.67-0.83,7.19-1.86,10.4C45.48,51.28,39.22,58,32,58	s-13.47-6.71-16.48-16.09c-1.03-3.21-1.68-6.74-1.86-10.42C13.65,31.3,14,31.18,14,31v-5c0-0.03,0.01-0.05,0.02-0.08	c0-0.01,0-0.01,0-0.02C15.57,17.33,22.98,11,32,11c4.56,0,8.71,1.62,11.9,4.33c1.26,1.07,2.36,2.3,3.28,3.67	c0.3,0.43,0.57,0.88,0.82,1.35c0.94,1.69,1.62,3.56,1.98,5.55c0,0.01,0,0.01,0,0.02C49.99,25.95,50,25.97,50,26v5.01	C50.01,31.18,50.35,31.3,50.34,31.49z"/><linearGradient id="GGCxc5xJWi9KI5RY58Tgwf" x1="15.5" x2="15.5" y1="32" y2="44" gradientTransform="matrix(1 0 0 -1 0 66)" gradientUnits="userSpaceOnUse"><stop offset=".122" stop-color="#636d7a"/><stop offset=".191" stop-color="#616b78"/><stop offset="1" stop-color="#555c68"/></linearGradient><path fill="url(#GGCxc5xJWi9KI5RY58Tgwf)" d="M17,22l-3,3v8c0,0.552,0.448,1,1,1l0,0c1.105,0,2-0.895,2-2V22z"/><linearGradient id="GGCxc5xJWi9KI5RY58Tgwg" x1="-971.5" x2="-971.5" y1="32" y2="44" gradientTransform="rotate(180 -461.5 33)" gradientUnits="userSpaceOnUse"><stop offset=".122" stop-color="#636d7a"/><stop offset=".191" stop-color="#616b78"/><stop offset="1" stop-color="#555c68"/></linearGradient><path fill="url(#GGCxc5xJWi9KI5RY58Tgwg)" d="M47,22l3,3v4.01V33c0,0.552-0.448,1-1,1l0,0c-1.105,0-2-0.895-2-2V22z"/><linearGradient id="GGCxc5xJWi9KI5RY58Tgwh" x1="32" x2="32" y1="29.576" y2="62.552" gradientTransform="matrix(1 0 0 -1 0 66)" gradientUnits="userSpaceOnUse"><stop offset="0" stop-color="#70b3e6"/><stop offset="1" stop-color="#9edcf9"/></linearGradient><path fill="url(#GGCxc5xJWi9KI5RY58Tgwh)" d="M50,28c-1.19-0.26-2.54-0.49-4-0.69c-2.33-0.31-4.97-0.53-7.72-0.66	c-6.85-0.33-14.47-0.11-20.28,0.66c-1.46,0.2-2.81,0.43-4,0.69c0-0.34,0-0.67,0.01-1v-0.01c-0.01-0.36,0-0.72,0.01-1.07	c0-0.01,0-0.01,0-0.02c0.02-2.13,0.08-4.13,0.15-5.9c0.21-4.9,0.52-8.17,0.52-8.17c0.19-1.72,1.47-3.13,3.17-3.48	c1.91-0.39,3.92-0.7,5.98-0.91c7.38-0.8,15.45-0.5,22.3,0.91c1.7,0.35,2.98,1.76,3.17,3.48c0,0,0.12,1.17,0.25,3.17	c0.17,2.54,0.37,6.42,0.42,10.9c0,0.01,0,0.01,0,0.02c0.01,0.35,0.02,0.71,0.01,1.07C50,27.32,50,27.66,50,28z"/><linearGradient id="GGCxc5xJWi9KI5RY58Tgwi" x1="44" x2="44" y1="41.337" y2="61.755" gradientTransform="matrix(1 0 0 -1 0 66)" gradientUnits="userSpaceOnUse"><stop offset="0" stop-color="#70b3e6"/><stop offset="1" stop-color="#9edcf9"/></linearGradient><path fill="url(#GGCxc5xJWi9KI5RY58Tgwi)" d="M50,26v2c-1.19-0.26-2.54-0.49-4-0.69c-2.33-0.31-4.97-0.53-7.72-0.66	C38.1,26.31,38,25.91,38,25.5c0-1.38,1.12-2.5,2.5-2.5H46c1.1,0,2-0.9,2-2c0-0.55-0.22-1.05-0.59-1.41C47.05,19.22,46.55,19,46,19	h-0.89c-1.04,0-1.99-0.75-2.1-1.78c-0.08-0.79,0.29-1.49,0.89-1.89C44.22,15.12,44.6,15,45,15h4.56c0.17,2.54,0.37,6.42,0.42,10.9	c0,0.01,0,0.01,0,0.02C49.99,25.95,50,25.97,50,26z"/><linearGradient id="GGCxc5xJWi9KI5RY58Tgwj" x1="32" x2="32" y1="41.085" y2="60.566" gradientTransform="matrix(1 0 0 -1 0 66)" gradientUnits="userSpaceOnUse"><stop offset="0" stop-color="#df634f"/><stop offset=".207" stop-color="#de6464"/><stop offset=".527" stop-color="#dc657f"/><stop offset=".802" stop-color="#db6690"/><stop offset="1" stop-color="#db6696"/></linearGradient><path fill="url(#GGCxc5xJWi9KI5RY58Tgwj)" d="M36,15h-2v-2c0-1.104-0.895-2-2-2s-2,0.896-2,2v2h-2c-1.105,0-2,0.896-2,2s0.895,2,2,2h2v2	c0,1.104,0.895,2,2,2s2-0.896,2-2v-2h2c1.105,0,2-0.896,2-2S37.105,15,36,15z"/><linearGradient id="GGCxc5xJWi9KI5RY58Tgwk" x1="19.587" x2="19.587" y1="24.234" y2="49.073" gradientTransform="matrix(1 0 0 -1 0 66)" gradientUnits="userSpaceOnUse"><stop offset="0" stop-color="#70b3e6"/><stop offset="1" stop-color="#9edcf9"/></linearGradient><path fill="url(#GGCxc5xJWi9KI5RY58Tgwk)" d="M24.99,9.24c0.15,1.5-1.02,2.76-2.49,2.76H20c-0.55,0-1.05,0.22-1.41,0.59	C18.22,12.95,18,13.45,18,14s0.22,1.05,0.59,1.41c0.23,0.24,0.52,0.41,0.85,0.51C19.62,15.97,19.8,16,20,16	c1.21,0,2.18,1.08,1.97,2.34C21.81,19.32,20.89,20,19.89,20h-5.72c0.21-4.9,0.52-8.17,0.52-8.17c0.19-1.72,1.47-3.13,3.17-3.48	c1.91-0.39,3.92-0.7,5.98-0.91C24.46,7.83,24.91,8.47,24.99,9.24z"/><linearGradient id="GGCxc5xJWi9KI5RY58Tgwl" x1="32" x2="32" y1="-5.867" y2="41.527" gradientTransform="matrix(1 0 0 -1 0 66)" gradientUnits="userSpaceOnUse"><stop offset="0" stop-color="#de5943"/><stop offset=".007" stop-color="#de5943"/><stop offset=".989" stop-color="#d95388"/><stop offset="1" stop-color="#d95388"/></linearGradient><path fill="url(#GGCxc5xJWi9KI5RY58Tgwl)" d="M34,47c-1,0-2,1-2,1s-1-1-2.001-1C28,47,26,49,26,49s1.2,3,6,3s6-3,6-3S36,47,34,47z"/></svg>