<svg xmlns="http://www.w3.org/2000/svg" viewBox="0 0 128 128"><path fill="#fff" d="M99,114H29c-2.8,0-5-2.2-5-5V19c0-2.8,2.2-5,5-5h55l20,20v75C104,111.8,101.8,114,99,114z"/><path fill="none" stroke="#444b54" stroke-linecap="round" stroke-linejoin="round" stroke-miterlimit="10" stroke-width="6" d="M94.5,37H81V14H29c-2.8,0-5,2.2-5,5v90c0,2.8,2.2,5,5,5h70c2.8,0,5-2.2,5-5V34L84,14h-3"/><path fill="#c3dbea" d="M79 79H49c0 8.3 6.7 15 15 15S79 87.3 79 79zM48.6 51.5A7.5 7.5 0 1 0 48.6 66.5 7.5 7.5 0 1 0 48.6 51.5zM83.1 62h-9c-1.7 0-3-1.3-3-3s1.3-3 3-3h9c1.7 0 3 1.3 3 3S84.7 62 83.1 62z"/></svg>