<svg xmlns="http://www.w3.org/2000/svg" width="512" height="512" viewBox="0 0 512 512"><path fill="#A2D4DE" d="M504.1,256c0,137-111.1,248.1-248.1,248.1S7.9,393,7.9,256S119,7.9,256,7.9S504.1,119,504.1,256"/><path fill="#8F6652" d="M309.9,310c0-6,0-11.4-1.5-16.4c0-0.1,0.4-0.1,0.5-0.2c-6.8-23.3-27.7-36-52.8-36s-46.2,12.7-52.9,36c-1.5,5.1-0.9,10.6-0.9,16.6c0,12.2,5.5,23.3,19.3,31v15.1c-6.9,3.8-8.9,10.9-8.9,17.8h42.5c0-6.9,0.8-14-6.1-17.8v-4.4c0,0.2,6.9,0.4,6.9,0.4v1.2h0.2h-0.2v-1.2c0,0,6.9-0.1,6.9-0.3v4.4c0,3.8-5.7,10.9-5.7,17.8h42.5c0-6.9-2.3-14-9.2-17.8v-15C304.1,333.3,309.9,322.3,309.9,310"/><path fill="#733F2B" d="M211.5 171.7c-2.4-2.5-5.6-5.4-8.3-7l-.9-.5c-.2.6-.5 1.9-.8 3.3-.5 3.1-.4 6.2-.4 10.5.1 4.2.1 9.4-.3 14.7-.4 5.3-1.2 10.7-2.3 15.9-2.3 10.4-5.6 20.2-9.3 29.5l-.2.6c-4.7 11.8-18.1 17.5-29.8 12.8-11.8-4.7-17.5-18.1-12.8-29.8.8-2 1.9-3.9 3.2-5.5 5-6.5 9.5-13 13.1-19.7 1.8-3.3 3.3-6.7 4.7-10.2 1.3-3.6 2.4-7.4 3.6-12.1 1.2-4.7 2.8-10.5 5.5-15.9 1.3-2.7 2.9-5.6 5.4-8.7 1.3-1.5 2.8-3.1 4.7-4.5 1.9-1.4 4.4-2.8 7.1-3.5 2.7-.8 5.5-.8 8-.5 2.5.3 4.5 1.1 6.3 2 3.5 1.7 6 3.8 8.1 5.8 2.1 2.1 3.8 4.2 5.4 6.3 1.6 2.2 2.9 4.2 4.4 6.7 2.4 4.2 1 9.5-3.2 11.9-3.6 2-8 1.3-10.7-1.6L211.5 171.7zM300.5 171.7c2.4-2.5 5.6-5.4 8.3-7l.9-.5c.2.6.5 1.9.8 3.3.5 3.1.4 6.2.4 10.5-.1 4.2-.1 9.4.3 14.7.4 5.3 1.2 10.7 2.3 15.9 2.2 10.4 5.6 20.2 9.3 29.5l.2.6c4.7 11.8 18.1 17.5 29.8 12.8 11.8-4.7 17.5-18.1 12.8-29.8-.8-2-1.9-3.9-3.2-5.5-5-6.5-9.5-13-13.1-19.7-1.8-3.3-3.3-6.7-4.7-10.2-1.3-3.6-2.4-7.4-3.6-12.1-1.2-4.7-2.8-10.5-5.5-15.9-1.3-2.7-2.9-5.6-5.4-8.7-1.3-1.5-2.8-3.1-4.7-4.5-1.9-1.4-4.4-2.8-7.1-3.5-2.7-.8-5.5-.8-8-.5-2.5.3-4.5 1.1-6.3 2-3.5 1.7-6 3.8-8.1 5.8-2.1 2.1-3.8 4.2-5.4 6.3-1.6 2.2-2.9 4.2-4.4 6.7-2.4 4.2-1 9.5 3.2 11.9 3.6 2 8 1.3 10.7-1.6L300.5 171.7z"/><path fill="#8F6652" d="M323.2,252.1c0-15.9-3.7-26.1-6.5-41.1c-1-5.5-3.6-16.4-3.6-16.4c-4.7-25.9-29.6-45.7-57.2-45.7v4.4h0.3h-0.3V149c-27.6,0-52.2,19.9-56.9,45.8c0,0-2.4,10.8-3.4,16.3c-2.8,15-6.7,25.2-6.7,41.1c0,33.5,25.7,60.7,67.1,60.7v-1h0.3h-0.3v1C297.2,312.8,323.2,285.6,323.2,252.1"/><path fill="#3B1414" d="M254.5 290.4H256.9V304.4H254.5z"/><path fill="#733F2B" d="M291.7,266.3c0,13.3-15.9,24.1-35.4,24.1c-19.6,0-35.4-10.8-35.4-24.1c0-13.3,15.9-24.1,35.4-24.1C275.8,242.2,291.7,252.9,291.7,266.3"/><path fill="#411713" d="M255.1 306.8c-13.1 0-18.4-5-18.6-5.2-.5-.5-.5-1.2 0-1.7.5-.5 1.2-.5 1.7 0 0 0 4.9 4.5 17 4.5 11.1 0 17-4.5 17.1-4.6.5-.4 1.3-.3 1.7.2.4.5.3 1.3-.2 1.7C273.4 301.9 267 306.8 255.1 306.8M297.1 213.9c0 6.1-3.9 11.1-8.8 11.1-4.9 0-8.8-5-8.8-11.1 0-6.1 4-11.1 8.8-11.1C293.1 202.8 297.1 207.8 297.1 213.9M232.7 213.9c0 6.1-4 11.1-8.8 11.1s-8.8-5-8.8-11.1c0-6.1 4-11.1 8.8-11.1S232.7 207.8 232.7 213.9"/><path fill="#FFF" d="M223.9 208.9c0 1.9 1.4 3.4 3.2 3.4 1.8 0 3.2-1.5 3.2-3.4 0-1.9-1.4-3.4-3.2-3.4C225.3 205.5 223.9 207 223.9 208.9M288.5 208.9c0 1.9 1.4 3.4 3.2 3.4 1.8 0 3.2-1.5 3.2-3.4 0-1.9-1.4-3.4-3.2-3.4C289.9 205.5 288.5 207 288.5 208.9"/></svg>