<svg xmlns="http://www.w3.org/2000/svg" viewBox="0 0 80 80"><path d="M 19.984375 7 A 1.0001 1.0001 0 0 0 19.167969 7.4453125 C 19.167969 7.4453125 18.824595 7.9836392 18.544922 8.8925781 C 18.265248 9.8015171 18 11.154762 18 13 C 18 17.588408 19.89301 24.106273 27.792969 33.083984 L 24.636719 38.496094 A 1.0001 1.0001 0 0 0 24.605469 38.552734 C 23.782702 40.200834 23.889603 42.260848 24.917969 43.804688 A 1.0001 1.0001 0 0 0 24.976562 43.882812 L 26.908203 46.244141 L 26.029297 49.757812 A 1.0001 1.0001 0 0 0 26.019531 49.804688 C 25.803173 50.888616 25.672778 52.122604 25.660156 53.28125 C 25.647536 54.439896 25.721226 55.493505 26.072266 56.371094 A 1.0001 1.0001 0 0 0 26.105469 56.447266 L 28 60.236328 L 28 64 C 28 66.611627 29.551947 68.871232 31.609375 70.451172 C 33.666803 72.031112 36.270379 73 38.75 73 L 41.25 73 C 43.729621 73 46.333197 72.031112 48.390625 70.451172 C 50.448053 68.871232 52 66.611627 52 64 L 52 60.236328 L 53.894531 56.447266 C 54.304514 55.627299 54.381121 54.653253 54.402344 53.515625 C 54.423564 52.377997 54.327874 51.131754 54.107422 50.027344 A 1.0001 1.0001 0 0 0 54.09375 49.966797 L 53.089844 46.205078 L 54.806641 43.855469 A 1.0001 1.0001 0 0 0 54.832031 43.820312 C 55.82565 42.328637 55.945744 40.412427 55.142578 38.808594 A 1.0001 1.0001 0 0 0 55.136719 38.796875 L 52.183594 33.111328 C 60.105922 24.118068 62 17.593511 62 13 C 62 9.5448718 60.869141 7.5039062 60.869141 7.5039062 A 1.0001 1.0001 0 0 0 59.292969 7.2929688 C 51.590787 14.99515 47.573674 20.162177 45.4375 23.527344 C 44.876528 22.338498 43.978325 21.40141 43.125 20.71875 C 41.748029 19.617174 40.371094 19.072266 40.371094 19.072266 A 1.0001 1.0001 0 0 0 39.980469 19 A 1.0001 1.0001 0 0 0 39.628906 19.072266 C 39.628906 19.072266 38.251971 19.617174 36.875 20.71875 C 36.021675 21.401407 35.123472 22.338498 34.5625 23.527344 C 32.426327 20.162177 28.409213 14.99515 20.707031 7.2929688 A 1.0001 1.0001 0 0 0 19.984375 7 z M 59.603516 9.9023438 C 59.800085 10.643379 60 11.610666 60 13 C 60 17.171928 58.412285 23.268569 50.255859 32.332031 A 1.0001 1.0001 0 0 0 50.113281 33.460938 L 53.355469 39.705078 L 53.355469 39.708984 C 53.835683 40.671069 53.765282 41.810379 53.169922 42.707031 L 51.972656 44.34375 A 2 2 0 0 0 50 42.667969 A 2 2 0 0 0 48 44.667969 A 2 2 0 0 0 50 46.667969 A 2 2 0 0 0 51.060547 46.361328 L 52.148438 50.435547 C 52.331086 51.357602 52.420776 52.490484 52.402344 53.478516 C 52.383814 54.471638 52.195486 55.372701 52.105469 55.552734 L 50.287109 59.191406 L 49.865234 59.402344 L 49.708984 60.283203 L 50 60.59375 L 50 64 C 50 64.267745 49.969071 64.533226 49.921875 64.796875 C 49.406049 64.278244 48.694855 64 48 64 C 47.827 64 47.652234 64.035516 47.490234 64.103516 C 47.163234 64.238516 46.903531 64.498219 46.769531 64.824219 C 46.634531 65.149219 46.634531 65.51775 46.769531 65.84375 C 46.837531 66.00775 46.934594 66.153344 47.058594 66.277344 L 48.390625 67.609375 C 48.410261 67.62917 48.434205 67.643698 48.455078 67.662109 C 48.080464 68.089772 47.65398 68.494563 47.173828 68.863281 C 45.461006 70.178592 43.189379 71 41.25 71 L 38.75 71 C 36.810621 71 34.538994 70.178592 32.826172 68.863281 C 32.3468 68.495162 31.92107 68.090947 31.546875 67.664062 C 31.600216 67.617828 31.652875 67.572919 31.699219 67.519531 L 32.943359 66.275391 C 32.946359 66.272391 32.946266 66.271531 32.947266 66.269531 C 33.068266 66.147531 33.166422 66.001844 33.232422 65.839844 C 33.365422 65.514844 33.365469 65.148219 33.230469 64.824219 C 33.095469 64.497219 32.835766 64.237516 32.509766 64.103516 C 32.347766 64.035516 32.173 64 32 64 C 31.305145 64 30.593951 64.278244 30.078125 64.796875 C 30.030929 64.533226 30 64.267745 30 64 L 30 60.261719 L 30.417969 60.708984 L 30.765625 60.769531 L 31.566406 60.369141 L 31.724609 59.486328 L 31.113281 58.832031 L 30.765625 58.769531 L 29.964844 59.171875 L 29.896484 59.556641 A 1.0001 1.0001 0 0 0 29.894531 59.552734 L 27.925781 55.617188 C 27.777765 55.241036 27.649084 54.319162 27.660156 53.302734 C 27.671236 52.285643 27.791309 51.151593 27.978516 50.208984 L 28.941406 46.361328 A 2 2 0 0 0 30 46.667969 A 2 2 0 0 0 32 44.667969 A 2 2 0 0 0 30 42.667969 A 2 2 0 0 0 28.013672 44.439453 L 26.578125 42.685547 C 26.019919 41.839042 25.938507 40.368408 26.394531 39.451172 L 29.863281 33.503906 A 1.0001 1.0001 0 0 0 29.744141 32.332031 C 21.587715 23.268569 20 17.171928 20 13 C 20 11.545513 20.206738 10.630387 20.400391 9.9082031 C 27.435937 17.080869 31.325367 22.060948 33.148438 25.023438 C 34.118445 26.599702 34.584234 27.663071 34.804688 28.296875 C 34.914913 28.613777 34.965277 28.824349 34.986328 28.9375 C 35.007379 29.050651 35 29 35 29 A 1.0001 1.0001 0 1 0 37 29 C 37 29 36.992602 28.7931 36.951172 28.570312 C 36.909722 28.347527 36.835086 28.042473 36.695312 27.640625 C 36.548126 27.217464 36.323578 26.679979 36 26.029297 A 1.0001 1.0001 0 0 0 36 26 C 36 24.416667 37.001971 23.179674 38.125 22.28125 C 39.062699 21.53109 39.715899 21.275282 40 21.150391 C 40.284101 21.275282 40.937301 21.53109 41.875 22.28125 C 42.998029 23.179674 44 24.416667 44 26 A 1.0001 1.0001 0 0 0 44.001953 26.027344 C 43.677776 26.679025 43.452038 27.216991 43.304688 27.640625 C 43.164913 28.042473 43.090277 28.347526 43.048828 28.570312 C 43.007379 28.7931 43 29 43 29 A 1.0001 1.0001 0 1 0 45 29 C 45 29 44.992602 29.05065 45.013672 28.9375 C 45.034722 28.824349 45.085083 28.613777 45.195312 28.296875 C 45.415766 27.663071 45.881555 26.599702 46.851562 25.023438 C 48.675134 22.060139 52.56417 17.078281 59.603516 9.9023438 z M 40 28 L 39.199219 28.402344 L 39.041016 29.283203 L 39.652344 29.9375 L 40 30 L 40.800781 29.597656 L 40.958984 28.716797 L 40.347656 28.0625 L 40 28 z M 38.726562 58.027344 L 37.925781 58.429688 L 37.767578 59.310547 L 38.378906 59.964844 L 38.726562 60.027344 L 39.527344 59.626953 L 39.685547 58.744141 L 39.072266 58.089844 L 38.726562 58.027344 z M 42.724609 58.085938 L 41.921875 58.488281 L 41.765625 59.369141 L 42.376953 60.023438 L 42.724609 60.085938 L 43.525391 59.685547 L 43.683594 58.802734 L 43.070312 58.148438 L 42.724609 58.085938 z M 34.736328 58.291016 L 33.935547 58.693359 L 33.777344 59.576172 L 34.388672 60.230469 L 34.736328 60.291016 L 35.537109 59.890625 L 35.695312 59.007812 L 35.083984 58.353516 L 34.736328 58.291016 z M 46.707031 58.4375 L 45.90625 58.837891 L 45.748047 59.720703 L 46.361328 60.375 L 46.707031 60.4375 L 47.507812 60.035156 L 47.666016 59.154297 L 47.054688 58.5 L 46.707031 58.4375 z"/></svg>