<?xml version="1.0"?><svg xmlns="http://www.w3.org/2000/svg" viewBox="0 0 128 128">    <path d="M 24.900391 8.5 C 23.300391 8.5 21.900391 9.8 21.900391 11.5 L 21.900391 113.5 L 14.900391 113.5 C 13.200391 113.5 11.900391 114.8 11.900391 116.5 C 11.900391 118.2 13.200391 119.5 14.900391 119.5 L 25.5 119.5 L 35.5 119.5 C 36.3 119.5 37.099609 119.19961 37.599609 118.59961 C 38.199609 117.99961 38.5 117.3 38.5 116.5 L 38.5 24.5 L 87.5 24.5 L 87.5 116.5 C 87.5 117.3 87.800391 118.09961 88.400391 118.59961 C 89.000391 119.19961 89.7 119.5 90.5 119.5 L 100.09961 119.5 L 100.30078 119.5 L 100.5 119.5 L 110.09961 119.5 C 111.79961 119.5 113.09961 118.2 113.09961 116.5 C 113.09961 114.8 111.79961 113.5 110.09961 113.5 L 103.09961 113.5 L 103.09961 11.5 C 103.09961 9.8 101.79961 8.5 100.09961 8.5 L 24.900391 8.5 z M 27.900391 14.5 L 97.099609 14.5 L 97.099609 113.5 L 93.5 113.5 L 93.5 21.5 C 93.5 19.8 92.2 18.5 90.5 18.5 L 35.5 18.5 C 33.8 18.5 32.5 19.8 32.5 21.5 L 32.5 113.5 L 27.900391 113.5 L 27.900391 14.5 z M 76.900391 66.5 C 75.200391 66.5 73.900391 67.8 73.900391 69.5 C 73.900391 71.2 75.200391 72.5 76.900391 72.5 L 82.5 72.5 C 84.2 72.5 85.5 71.2 85.5 69.5 C 85.5 67.8 84.2 66.5 82.5 66.5 L 76.900391 66.5 z"/></svg>