<?xml version="1.0"?><svg xmlns="http://www.w3.org/2000/svg" viewBox="0 0 128 128">    <path d="M 64 10.099609 C 59 10.099609 54.700391 14 54.400391 19 L 52.400391 45.300781 L 50.800781 45.300781 C 46.700781 45.300781 43.400391 48.599219 43.400391 52.699219 C 43.400391 56.799219 46.599219 60.099609 50.699219 60.099609 L 77.199219 60.099609 C 81.299219 60.099609 84.599609 56.799219 84.599609 52.699219 C 84.599609 48.599219 81.299219 45.300781 77.199219 45.300781 L 75.599609 45.300781 L 73.599609 19 C 73.199609 14 69 10.099609 64 10.099609 z M 64 16.099609 C 65.9 16.099609 67.499219 17.6 67.699219 19.5 L 69.599609 45.300781 L 58.400391 45.300781 L 60.300781 19.5 C 60.400781 17.6 62.1 16.099609 64 16.099609 z M 50.699219 51.300781 L 67.199219 51.300781 C 67.999219 51.300781 68.599609 51.899219 68.599609 52.699219 C 68.599609 53.499219 67.999219 54.099609 67.199219 54.099609 L 50.699219 54.099609 C 49.899219 54.099609 49.300781 53.499219 49.300781 52.699219 C 49.300781 51.899219 49.899219 51.300781 50.699219 51.300781 z M 54.199219 61.900391 C 46.999219 61.900391 41.199219 67.700391 41.199219 74.900391 L 41.199219 104.90039 C 41.199219 112.10039 46.999219 117.90039 54.199219 117.90039 L 73.900391 117.90039 C 81.100391 117.90039 86.900391 112.10039 86.900391 104.90039 L 86.900391 74.900391 C 86.900391 67.700391 81.100391 61.900391 73.900391 61.900391 L 54.199219 61.900391 z M 54.199219 67.900391 L 66.900391 67.900391 C 70.800391 67.900391 73.900391 71.000391 73.900391 74.900391 L 73.900391 104.90039 C 73.900391 108.80039 70.800391 111.90039 66.900391 111.90039 L 54.199219 111.90039 C 50.299219 111.90039 47.199219 108.80039 47.199219 104.90039 L 47.199219 74.900391 C 47.199219 71.000391 50.299219 67.900391 54.199219 67.900391 z"/></svg>