<svg xmlns="http://www.w3.org/2000/svg" viewBox="0 0 80 80"><path d="M 25 7 L 25 11.808594 C 24.585092 12.170723 24.174714 12.543179 23.775391 12.931641 C 20.970628 15.660107 18.613459 18.977755 17.455078 21.703125 C 16.966028 22.687921 16.121594 24.729286 15.335938 27.300781 A 1.0001 1.0001 0 0 0 15.150391 27.65625 C 14.127836 30.948916 13 34.818667 13 39 C 13 43.119048 16.491372 47.673225 21.123047 51.404297 C 23.023019 52.93483 25.137722 54.303295 27.335938 55.404297 A 1.0001 1.0001 0 0 0 27.339844 55.414062 L 30.996094 63.443359 A 1.0001 1.0001 0 0 0 31 63.451172 L 31 66.375 C 30.630634 66.361687 30.259605 66.357092 29.890625 66.371094 C 28.688191 66.416724 27.515161 66.624254 26.552734 67.105469 A 1.0001163 1.0001163 0 1 0 27.447266 68.894531 C 28.16403 68.536149 29.633896 68.315392 31.011719 68.373047 C 32.389541 68.430697 33.739588 68.814596 34.101562 69.068359 A 1.0005189 1.0005189 0 0 0 35.25 67.429688 C 34.628199 66.993772 33.850615 66.7433 33 66.585938 L 33 63.087891 L 35.646484 57.933594 C 35.87382 57.952985 36.10024 57.968694 36.326172 57.978516 C 36.467712 58.285522 36.638897 58.634954 36.857422 59.080078 C 37.25092 59.881615 37.742561 60.855923 38.224609 61.800781 C 39.131069 63.577521 39.899032 65.050447 40 65.244141 L 40 69.052734 C 38.476533 69.00365 36.850783 69.257227 35.457031 70.160156 A 1.0001 1.0001 0 1 0 36.542969 71.839844 C 37.538928 71.194619 38.866089 70.973934 40.179688 71.050781 C 41.493285 71.127631 42.778902 71.507615 43.552734 71.894531 A 1.0001163 1.0001163 0 1 0 44.447266 70.105469 C 43.772135 69.767903 42.926508 69.48685 42 69.292969 L 42 65.101562 L 43.888672 56.365234 C 45.715181 55.58046 47.567893 54.559459 49.398438 53.349609 C 53.616072 50.562076 57.694359 46.818807 60.841797 42.884766 A 1.0001 1.0001 0 0 0 60.873047 42.841797 C 60.807667 42.933367 60.957857 42.761777 61.203125 42.597656 C 61.448396 42.433536 61.79674 42.228343 62.205078 42.005859 C 63.021755 41.560893 64.082203 41.042168 65.162109 40.529297 C 66.242015 40.016425 67.341703 39.508283 68.255859 39.074219 C 69.170015 38.640155 69.846903 38.322366 70.306641 38.015625 C 72.472782 36.571531 72.938439 33.902978 72.148438 31.984375 C 71.753434 31.025074 70.966114 30.177374 69.863281 29.941406 C 69.451435 29.853286 69.010911 29.944403 68.572266 30.033203 C 68.681314 28.484931 68.085851 27.04402 67.035156 26.193359 C 66.242434 25.551558 65.21058 25.195572 64.15625 25.373047 C 63.731088 25.444617 63.335534 25.670034 62.951172 25.917969 C 62.74642 25.458098 62.504642 25.020501 62.175781 24.679688 C 61.40193 23.87771 60.380161 23.421919 59.345703 23.294922 C 59.087089 23.263173 58.826492 23.251257 58.566406 23.261719 C 57.786149 23.293103 57.016144 23.522421 56.363281 23.994141 C 55.492798 24.623103 54.90625 25.722261 54.90625 27.029297 C 54.90625 29.054673 54.00212 31.447498 53.0625 33.291016 C 52.438106 34.516066 52.164299 34.847272 51.818359 35.363281 C 49.814159 33.296292 44.038768 28 37 28 C 34.152975 28 32.196538 28.418517 30.894531 28.875 C 30.943815 28.747653 30.975779 28.660795 31.027344 28.529297 C 31.596448 27.077988 32.316049 25.394612 32.847656 24.529297 L 32.849609 24.525391 L 32.851562 24.523438 C 33.876219 22.887742 35.418731 21.792627 36.853516 20.560547 C 38.290077 19.326941 39.675781 17.791723 39.675781 15.490234 C 39.675781 15.532904 39.680484 15.240904 39.646484 14.929688 C 39.612371 14.618467 39.539315 14.2043 39.388672 13.71875 C 39.089432 12.754246 38.471492 11.505549 37.269531 10.216797 C 36.373877 9.1486172 34.912239 8 33 8 C 31.152002 8 29.294124 8.751756 27.509766 9.9042969 C 26.997314 9.0998067 26.191405 8.0324137 25 7 z M 33 10 C 34.076889 10 35.108171 10.742919 35.751953 11.515625 A 1.0001 1.0001 0 0 0 35.791016 11.558594 C 36.801709 12.635488 37.260052 13.608351 37.478516 14.3125 C 37.587748 14.664575 37.636624 14.949045 37.658203 15.146484 C 37.679783 15.343923 37.675781 15.370566 37.675781 15.490234 C 37.675781 17.034746 36.87472 17.908028 35.550781 19.044922 C 34.226843 20.181816 32.435707 21.417766 31.152344 23.470703 A 1.0001 1.0001 0 0 0 31.148438 23.476562 C 30.449283 24.612475 29.749761 26.310182 29.166016 27.798828 C 28.874143 28.543151 28.6156 29.228849 28.423828 29.738281 C 28.327938 29.992997 28.248703 30.203416 28.191406 30.349609 C 28.162756 30.422709 28.140323 30.48048 28.126953 30.511719 A 1.0001 1.0001 0 0 0 28.556641 31.896484 L 28.888672 32.251953 L 29.236328 32.3125 L 30.037109 31.912109 L 30.119141 31.458984 A 1.0001 1.0001 0 0 0 30.123047 31.455078 C 30.123047 31.455078 30.376401 31.184487 31.431641 30.798828 C 32.486881 30.413169 34.254785 30 37 30 C 44.333333 30 51.248047 37.658203 51.248047 37.658203 A 1.0001 1.0001 0 0 0 52.808594 37.589844 C 52.808594 37.589844 53.83037 36.187451 54.84375 34.199219 C 55.85713 32.210986 56.90625 29.61892 56.90625 27.029297 C 56.90625 26.259333 57.155968 25.887803 57.533203 25.615234 C 57.910439 25.342665 58.491646 25.206372 59.101562 25.28125 C 59.711481 25.35613 60.320211 25.637118 60.736328 26.068359 C 61.152446 26.499601 61.413472 27.056901 61.369141 27.898438 A 1.0001 1.0001 0 0 0 63.251953 28.419922 C 63.660141 27.648943 64.086018 27.411463 64.488281 27.34375 C 64.890545 27.27604 65.358691 27.4091 65.777344 27.748047 C 66.614649 28.425944 67.163847 29.75345 66.142578 31.332031 A 1.0001 1.0001 0 0 0 67.623047 32.642578 C 68.512505 31.901506 69.098585 31.824249 69.445312 31.898438 C 69.792042 31.972628 70.08808 32.23427 70.298828 32.746094 C 70.720325 33.769741 70.493124 35.487657 69.197266 36.351562 C 69.042503 36.454822 68.296592 36.841111 67.398438 37.267578 C 66.500281 37.694045 65.398031 38.203403 64.304688 38.722656 C 63.211343 39.24191 62.128682 39.770185 61.248047 40.25 C 60.807729 40.489907 60.417331 40.716413 60.089844 40.935547 C 59.762357 41.154681 59.503728 41.318865 59.246094 41.679688 L 59.279297 41.634766 C 56.272738 45.392723 52.318788 49.020221 48.294922 51.679688 C 44.271056 54.339154 40.164381 56 37 56 C 32.366667 56 26.745278 53.364631 22.376953 49.845703 C 18.008628 46.326775 15 41.880952 15 39 C 15 36.376075 15.506383 33.833417 16.144531 31.433594 A 1.0001564 1.0001564 0 0 0 16.419922 30.945312 C 17.321427 27.038466 18.705916 23.665243 19.261719 22.552734 A 1.0001 1.0001 0 0 0 19.289062 22.496094 C 20.285414 20.146595 22.547075 16.916733 25.169922 14.365234 C 27.792771 11.813736 30.804498 10 33 10 z M 34.060547 13.796875 C 33.753547 13.796875 33.445016 13.951766 33.291016 14.259766 L 30.060547 17.335938 C 29.444547 17.951937 29.29125 18.875234 29.90625 19.490234 C 30.21425 19.798234 30.520422 19.951172 30.982422 19.951172 C 31.290422 19.951172 31.59825 19.798234 31.90625 19.490234 L 35.136719 16.412109 C 35.751719 15.951109 35.751719 14.875766 35.136719 14.259766 C 34.828719 13.951766 34.522547 13.796875 34.060547 13.796875 z M 25.9375 32.367188 L 25.136719 32.769531 L 24.978516 33.650391 L 25.591797 34.304688 L 25.9375 34.367188 L 26.740234 33.966797 L 26.896484 33.083984 L 26.285156 32.429688 L 25.9375 32.367188 z M 18.037109 32.386719 L 17.236328 32.787109 L 17.078125 33.669922 L 17.691406 34.324219 L 18.037109 34.386719 L 18.839844 33.984375 L 18.996094 33.101562 L 18.384766 32.447266 L 18.037109 32.386719 z M 21.984375 32.898438 L 21.183594 33.298828 L 21.025391 34.181641 L 21.638672 34.835938 L 21.984375 34.898438 L 22.785156 34.496094 L 22.943359 33.615234 L 22.332031 32.958984 L 21.984375 32.898438 z M 37.261719 33.748047 L 36.460938 34.150391 L 36.302734 35.03125 L 36.916016 35.685547 L 37.261719 35.748047 L 38.0625 35.347656 L 38.220703 34.464844 L 37.609375 33.810547 L 37.261719 33.748047 z M 41.191406 34.28125 L 40.390625 34.681641 L 40.232422 35.564453 L 40.84375 36.21875 L 41.191406 36.28125 L 41.992188 35.878906 L 42.150391 34.998047 L 41.539062 34.34375 L 41.191406 34.28125 z M 33.355469 34.556641 L 32.554688 34.957031 L 32.396484 35.839844 L 33.007812 36.494141 L 33.355469 36.556641 L 34.15625 36.154297 L 34.314453 35.271484 L 33.703125 34.617188 L 33.355469 34.556641 z M 29.550781 35.787109 L 28.75 36.189453 L 28.591797 37.072266 L 29.203125 37.726562 L 29.550781 37.787109 L 30.351562 37.386719 L 30.509766 36.503906 L 29.898438 35.849609 L 29.550781 35.787109 z M 44.869141 35.84375 L 44.068359 36.246094 L 43.910156 37.128906 L 44.523438 37.783203 L 44.869141 37.84375 L 45.669922 37.443359 L 45.828125 36.560547 L 45.216797 35.90625 L 44.869141 35.84375 z M 49.027344 39.986328 A 1.0001 1.0001 0 0 0 48.009766 40.859375 C 48.026546 40.740963 47.965556 41.014096 47.832031 41.316406 C 47.698509 41.618717 47.495154 42.024471 47.224609 42.486328 C 46.683519 43.410043 45.871101 44.566491 44.789062 45.685547 C 42.624989 47.923658 39.434772 50 35 50 C 28.8589 50 25.909897 46.515422 24.712891 45.298828 A 1.0001 1.0001 0 1 0 23.287109 46.701172 C 24.290103 47.720578 28.0671 52 35 52 C 40.065228 52 43.801637 49.58406 46.226562 47.076172 C 47.439026 45.822228 48.338137 44.542629 48.951172 43.496094 C 49.257689 42.972826 49.492741 42.508471 49.662109 42.125 C 49.831478 41.741529 49.937452 41.513037 49.990234 41.140625 A 1.0001 1.0001 0 0 0 49.027344 39.986328 z M 30.078125 56.601562 C 31.231946 57.034681 32.393052 57.39334 33.550781 57.628906 L 31.958984 60.732422 L 30.078125 56.601562 z M 41.662109 57.205078 L 40.611328 62.066406 C 40.339816 61.539819 40.314668 61.49787 40.005859 60.892578 C 39.526408 59.952811 39.037721 58.984214 38.652344 58.199219 C 38.577364 58.046488 38.583183 58.046553 38.515625 57.904297 C 39.539519 57.783468 40.592071 57.542833 41.662109 57.205078 z"/></svg>