<svg xmlns="http://www.w3.org/2000/svg" viewBox="0 0 48 48"><polygon fill="#86665a" points="45,22 3,22 11,6 37,6"/><rect width="26" height="11" x="11" y="6" fill="#6d4c41"/><polygon fill="#a1887f" points="45,42 3,42 11,17 37,17"/><rect width="46" height="20" x="1" y="22" fill="#ffa000"/><polygon fill="#ffb74d" points="2.375,20 1,22 47,22 45.625,20"/><circle cx="15" cy="32" r="2" fill="#5d4037"/><circle cx="33" cy="32" r="2" fill="#5d4037"/><path fill="#795548" d="M31,36H17c-1.654,0-3-1.346-3-3v-1c0-0.553,0.448-1,1-1s1,0.447,1,1v1c0,0.552,0.449,1,1,1h14	c0.551,0,1-0.448,1-1v-1c0-0.553,0.448-1,1-1s1,0.447,1,1v1C34,34.654,32.654,36,31,36z"/></svg>