<?xml version="1.0"?><svg xmlns="http://www.w3.org/2000/svg" viewBox="0 0 24 24">    <path d="M 3.9882812 1 C 2.3499049 1 1 2.3499048 1 3.9882812 L 1 12 L 1 20.011719 C 1 21.650095 2.3499048 23 3.9882812 23 L 12 23 L 20.011719 23 C 21.650095 23 23 21.650095 23 20.011719 L 23 12 L 23 3.9882812 C 23 2.3499049 21.650095 1 20.011719 1 L 12 1 L 3.9882812 1 z M 3.9882812 3 L 12 3 L 20.011719 3 C 20.569342 3 21 3.4306577 21 3.9882812 L 21 12 L 21 20.011719 C 21 20.569342 20.569342 21 20.011719 21 L 12 21 L 3.9882812 21 C 3.4306577 21 3 20.569342 3 20.011719 L 3 12 L 3 3.9882812 C 3 3.4306577 3.4306577 3 3.9882812 3 z M 5.5371094 9 L 4 11.59375 L 12 16 L 20 11.59375 L 18.462891 9 L 12 12.560547 L 5.5371094 9 z"/></svg>