<svg xmlns="http://www.w3.org/2000/svg" viewBox="0 0 100 100"><circle cx="50.125" cy="49.958" r="37" fill="#cee1f4"/><circle cx="13.125" cy="28.958" r="2" fill="#78a0cf"/><circle cx="77.125" cy="12.958" r="1" fill="#f1bc19"/><circle cx="83.125" cy="14.958" r="4" fill="#f1bc19"/><circle cx="87.125" cy="23.958" r="2" fill="#78a0cf"/><circle cx="81.125" cy="75.958" r="2" fill="#fbcd59"/><circle cx="15.125" cy="62.958" r="4" fill="#fbcd59"/><circle cx="25.125" cy="86.958" r="2" fill="#78a0cf"/><circle cx="18.625" cy="45.458" r="2.5" fill="#fff"/><circle cx="80.125" cy="33.958" r="1" fill="#fff"/><circle cx="18.125" cy="55.958" r="1" fill="#f1bc19"/><path fill="#43a047" d="M54.914,40.887c1.384-3.562,2.586-6.981,2.586-10.579c0-6.168-4.217-9.476-8.382-9.555 c-0.05-0.001-0.1-0.002-0.15-0.002c-4.154,0-8.689,3.299-8.967,10.624c-0.021,0.556,0.41,1.024,0.961,1.045 c0.552,0.058,1.016-0.412,1.038-0.968c0.231-6.089,3.715-8.701,7.08-8.685c3.191,0.062,6.42,2.672,6.42,7.542 c0,3.613-1.413,7.213-2.908,11.025c-0.738,1.88-1.478,3.792-2.1,5.777c-0.337-0.806-0.862-1.574-1.701-2.196 c-1.139-0.845-5-1.007-5.969,2.25c3.805-0.672,6.481,2.562,6.517,4.149c0.002,0.097,0.029,0.184,0.054,0.272 C49.152,52.999,49,54.46,49,55.993C49,56.549,49.448,57,50,57s1-0.451,1-1.007c0-3.254,0.709-6.244,1.66-9.101 c0.043-0.018,0.09-0.06,0.152-0.153C55.471,42.723,60.55,41.537,63,42.98C61.372,38.464,57.783,38.823,54.914,40.887z"/><path fill="#f9a825" d="M44,53.805c-1.513,1.488-4.167,1.855-6.714,0.707c-2.547-1.148-4.185-3.449-4.286-5.665 C35.191,51.784,43.227,47.054,44,53.805z"/><path fill="#472b29" d="M41.851,50.627c-0.035,0-0.069-0.007-0.103-0.022c-1.053-0.474-2.431-0.482-3.745-0.45 c-0.161,0.005-0.252-0.106-0.256-0.244c-0.003-0.138,0.106-0.253,0.244-0.256c1.375-0.034,2.814-0.024,3.962,0.494 c0.126,0.057,0.182,0.205,0.125,0.331C42.037,50.573,41.946,50.627,41.851,50.627z"/><path fill="#472b29" d="M40.31,55.432c-1.021,0-2.095-0.227-3.127-0.692c-2.543-1.146-4.324-3.51-4.433-5.881 c-0.005-0.11,0.062-0.21,0.166-0.247c0.102-0.037,0.219-0.002,0.284,0.086c0.461,0.618,1.265,0.92,2.605,0.979 c0.138,0.006,0.245,0.123,0.239,0.261c-0.007,0.138-0.13,0.245-0.261,0.239c-0.795-0.035-1.738-0.149-2.454-0.661 c0.373,1.951,1.929,3.809,4.058,4.769c2.321,1.046,4.853,0.812,6.349-0.573c-0.12-0.916-0.381-1.628-0.796-2.173 c-0.084-0.11-0.063-0.267,0.047-0.35c0.108-0.083,0.266-0.063,0.35,0.047c0.49,0.643,0.788,1.474,0.911,2.542 c0.009,0.076-0.019,0.153-0.073,0.207C43.205,54.938,41.814,55.432,40.31,55.432z"/><path fill="#472b29" d="M42.653,23.98c-0.058,0-0.115-0.02-0.163-0.06c-0.105-0.09-0.117-0.248-0.027-0.353 c1.669-1.949,4.04-3.067,6.504-3.067l0.154,0.002c0.138,0.003,0.249,0.117,0.246,0.255c-0.002,0.138-0.111,0.248-0.254,0.245 L48.967,21c-2.319,0-4.551,1.054-6.125,2.892C42.793,23.95,42.723,23.98,42.653,23.98z"/><path fill="#472b29" d="M50,57.25c-0.689,0-1.25-0.564-1.25-1.257c0-1.416,0.127-2.855,0.388-4.395 c-0.025-0.093-0.046-0.18-0.048-0.281c-0.014-0.635-0.553-1.75-1.704-2.693c-0.754-0.619-2.342-1.599-4.52-1.215 c-0.087,0.015-0.172-0.015-0.23-0.08c-0.058-0.065-0.078-0.155-0.053-0.238c0.5-1.682,1.687-2.395,2.594-2.697 c1.44-0.48,3.045-0.216,3.763,0.318c0.623,0.462,1.126,1.04,1.504,1.724c0.573-1.752,1.233-3.46,1.915-5.195 c0.05-0.128,0.195-0.192,0.324-0.141c0.128,0.05,0.191,0.196,0.141,0.324c-0.755,1.924-1.484,3.812-2.093,5.76 c-0.032,0.1-0.122,0.17-0.227,0.175c-0.1,0.005-0.202-0.056-0.242-0.153c-0.363-0.868-0.892-1.552-1.619-2.092 c-0.603-0.447-2.039-0.668-3.307-0.245c-0.724,0.241-1.65,0.781-2.141,1.989c2.158-0.235,3.737,0.747,4.509,1.38 c1.108,0.908,1.866,2.141,1.887,3.069c0.001,0.056,0.018,0.116,0.037,0.184c0.01,0.036,0.019,0.099,0.013,0.136 c-0.263,1.533-0.39,2.961-0.39,4.366c0,0.418,0.336,0.757,0.75,0.757s0.75-0.34,0.75-0.757c0-2.835,0.531-5.752,1.673-9.18 c0.022-0.067,0.072-0.122,0.138-0.15l0,0c-0.004,0,0.014-0.017,0.044-0.063c2.501-3.778,7.149-5.199,9.925-4.123 c-0.625-1.411-1.504-2.299-2.618-2.644c-1.398-0.434-3.122,0.013-4.852,1.257c-0.09,0.065-0.211,0.063-0.299-0.005 c-0.087-0.068-0.12-0.185-0.08-0.288c1.354-3.485,2.569-6.909,2.569-10.489c0-5.171-3.007-7.995-5.82-8.913 c-0.132-0.043-0.203-0.184-0.16-0.315c0.042-0.131,0.184-0.203,0.314-0.16c2.981,0.972,6.166,3.949,6.166,9.388 c0,3.413-1.066,6.657-2.32,9.937c1.64-0.998,3.262-1.313,4.629-0.89c1.42,0.44,2.488,1.631,3.177,3.54 c0.035,0.099,0.005,0.21-0.076,0.277c-0.081,0.068-0.196,0.076-0.286,0.023c-2.419-1.424-7.351-0.097-9.853,3.681 c-0.05,0.076-0.1,0.134-0.15,0.177c-1.105,3.34-1.62,6.182-1.62,8.94C51.25,56.686,50.689,57.25,50,57.25z"/><path fill="#472b29" d="M53.502,39.361c-0.029,0-0.06-0.005-0.089-0.016c-0.129-0.049-0.193-0.193-0.145-0.322 c0.636-1.681,1.336-3.67,1.705-5.675c0.025-0.135,0.156-0.226,0.291-0.201c0.136,0.025,0.226,0.155,0.201,0.291 c-0.377,2.044-1.086,4.059-1.73,5.761C53.698,39.299,53.603,39.361,53.502,39.361z"/><path fill="#472b29" d="M41.054,32.673c-0.039,0-0.079-0.002-0.119-0.006c-0.317-0.011-0.626-0.154-0.853-0.401 c-0.227-0.246-0.345-0.567-0.332-0.902c0.084-2.214,0.555-4.175,1.401-5.83c0.063-0.123,0.214-0.171,0.336-0.109 c0.123,0.063,0.172,0.214,0.109,0.336c-0.813,1.589-1.266,3.48-1.347,5.621c-0.008,0.202,0.063,0.396,0.2,0.544 c0.136,0.148,0.321,0.234,0.521,0.241c0.196,0.02,0.368-0.038,0.508-0.159c0.164-0.142,0.262-0.349,0.271-0.568 c0.234-6.169,3.83-8.925,7.301-8.925c0.01,0,0.02,0,0.03,0c3.316,0.064,6.669,2.761,6.669,7.792c0,0.138-0.112,0.25-0.25,0.25 s-0.25-0.112-0.25-0.25c0-4.708-3.106-7.232-6.175-7.292c-0.009,0-0.019,0-0.028,0c-2.993,0-6.561,2.209-6.797,8.444 c-0.014,0.358-0.175,0.695-0.443,0.927C41.591,32.574,41.328,32.673,41.054,32.673z"/><path fill="#f4511e" d="M47.536,34.718c-1.072-2.702-3.219-4.438-5.287-4.546c-0.006,0.007-0.011,0.017-0.017,0.024 c-0.365-0.061-0.802-0.097-1.273-0.097c-0.471,0-0.908,0.036-1.273,0.097c-0.006-0.007-0.011-0.017-0.017-0.024 c-2.068,0.108-4.216,1.844-5.287,4.546c-1.072,2.701-0.729,5.516,0.66,7.121c2.068-0.108,4.216-1.844,5.287-4.546 c0.555-1.399,0.724-2.824,0.572-4.099c0.02,0,0.039,0.002,0.059,0.002c0.02,0,0.039-0.002,0.059-0.002 c-0.152,1.275,0.017,2.701,0.572,4.099c1.072,2.702,3.219,4.438,5.287,4.546C48.265,40.234,48.608,37.419,47.536,34.718z"/><path fill="#472b29" d="M35.041,42.089c-0.072,0-0.142-0.031-0.189-0.086c-1.489-1.72-1.771-4.684-0.703-7.377 c0.051-0.128,0.197-0.191,0.325-0.14c0.128,0.051,0.191,0.196,0.14,0.325c-0.982,2.474-0.763,5.174,0.537,6.771 c1.991-0.169,3.966-1.912,4.945-4.38c0.518-1.306,0.71-2.682,0.556-3.977c-0.009-0.071,0.014-0.142,0.061-0.196 c0.047-0.053,0.116-0.084,0.187-0.084l0.085,0.24l0.003,0l-0.014-0.238c0.081-0.004,0.161,0.024,0.211,0.078 c0.05,0.054,0.089,0.127,0.081,0.2c-0.155,1.296,0.038,2.671,0.556,3.977c0.248,0.624,0.56,1.208,0.926,1.736 c0.079,0.113,0.051,0.269-0.063,0.348c-0.114,0.079-0.269,0.051-0.348-0.063c-0.389-0.559-0.719-1.177-0.981-1.837 c-0.164-0.413-0.296-0.832-0.398-1.254c-0.102,0.422-0.235,0.842-0.398,1.254c-1.07,2.697-3.283,4.588-5.506,4.703 C35.049,42.088,35.045,42.089,35.041,42.089z"/><path fill="#472b29" d="M46.876,42.089c-0.004,0-0.009,0-0.013,0c-0.926-0.048-1.877-0.406-2.75-1.034 c-0.112-0.081-0.138-0.237-0.057-0.349c0.08-0.112,0.237-0.137,0.349-0.057c0.755,0.544,1.569,0.865,2.361,0.932 c1.3-1.596,1.519-4.296,0.537-6.771c-0.987-2.489-2.987-4.24-4.995-4.384c-0.04,0.016-0.08,0.023-0.118,0.016 c-0.733-0.122-1.733-0.122-2.464,0c-0.046,0.008-0.093,0.002-0.135-0.015c-1.233,0.095-2.516,0.813-3.535,1.982 c-0.09,0.104-0.248,0.115-0.353,0.024c-0.104-0.091-0.115-0.249-0.024-0.353c1.132-1.299,2.581-2.086,3.975-2.159 c0.029-0.002,0.06,0.002,0.088,0.011c0.741-0.111,1.7-0.111,2.441,0.002c0.027-0.009,0.054-0.014,0.078-0.013 c2.224,0.116,4.437,2.006,5.507,4.703c1.068,2.692,0.785,5.657-0.703,7.377C47.018,42.057,46.949,42.089,46.876,42.089z"/><path fill="#c29b67" d="M30.82,72C28.162,72,26,69.921,26,67.364V55.563h49v11.802C75,69.921,72.839,72,70.181,72H30.82z"/><path fill="#9f8066" d="M46,72h2.499l-1.84-2.872l3.069-1.078c0,0-4.962-8.339-4.729-7.754l1.938,6.291L43.34,67.85L46,72z"/><path fill="#9f8066" d="M32.78,67.077h6l-0.761,4.681c-0.013,0.082,0,0.16,0,0.241h2l0.934-5.75l2.186-5.381L40.766,56 h-2.333l2.426,4.978l-1.478,3.638H35.22l0.866-5.328L33.414,56h-2.828l3.329,4.098L32.78,67.077z"/><path fill="#9f8066" d="M68.667,58.308L65.999,56h-3.333l2.666,2.308l-3.865,3.345L55.5,62.794L58.251,72h2.509 c0-0.108,0.006-0.216-0.027-0.325l-2.11-7.062l4.88-0.933c0.106-0.021,0.194-0.072,0.287-0.115L66,65.231v4.615 c0.09,0.083,2-4.615,2-4.615l-3.367-3.432L68.667,58.308z"/><path fill="#472b29" d="M48.5,72.125c-0.041,0-0.082-0.02-0.105-0.058l-1.84-2.872c-0.021-0.032-0.025-0.072-0.013-0.108 c0.012-0.036,0.041-0.065,0.077-0.077l2.925-1.027c-1.394-2.342-3.313-5.542-4.182-6.935l1.696,5.502 c0.02,0.064-0.015,0.133-0.078,0.155l-3.449,1.211l2.575,4.017c0.037,0.058,0.02,0.135-0.038,0.173 c-0.057,0.037-0.135,0.021-0.173-0.038l-2.66-4.15c-0.021-0.032-0.025-0.072-0.013-0.108c0.012-0.036,0.041-0.065,0.077-0.077 l3.484-1.223l-1.903-6.176c-0.018-0.059,0.002-0.151,0.058-0.178c0.033-0.017,0.063-0.034,0.168,0.09l0.008-0.001l0.005,0.016 c0.313,0.379,1.26,1.916,4.718,7.727c0.019,0.032,0.023,0.071,0.01,0.107c-0.013,0.035-0.041,0.063-0.076,0.075l-2.92,1.025 l1.755,2.739c0.037,0.058,0.02,0.135-0.038,0.173C48.546,72.119,48.522,72.125,48.5,72.125z"/><path fill="#472b29" d="M33.304,63.978c-0.006,0-0.013-0.001-0.02-0.002c-0.068-0.011-0.114-0.075-0.104-0.143l0.602-3.699 l-3.294-4.054c-0.03-0.037-0.037-0.089-0.016-0.133c0.021-0.044,0.064-0.071,0.113-0.071h2.829c0.038,0,0.073,0.017,0.097,0.046 l2.671,3.288c0.043,0.054,0.035,0.132-0.019,0.176c-0.053,0.043-0.132,0.036-0.176-0.018l-2.634-3.242h-2.506l3.164,3.894 c0.022,0.028,0.032,0.064,0.026,0.099l-0.61,3.755C33.417,63.934,33.365,63.978,33.304,63.978z"/><path fill="#472b29" d="M39.382,64.741H35.22c-0.037,0-0.071-0.016-0.095-0.044s-0.034-0.065-0.028-0.101l0.593-3.647 c0.012-0.068,0.071-0.115,0.144-0.103c0.068,0.011,0.114,0.075,0.104,0.143l-0.569,3.502h3.931l1.425-3.509l-2.402-4.927 c-0.019-0.039-0.017-0.084,0.006-0.121c0.023-0.037,0.063-0.059,0.106-0.059h2.333c0.048,0,0.091,0.027,0.112,0.07l2.374,4.869 c0.03,0.062,0.004,0.137-0.058,0.167c-0.062,0.03-0.137,0.005-0.167-0.058l-2.34-4.799h-2.054l2.338,4.798 c0.016,0.032,0.017,0.069,0.003,0.102l-1.478,3.638C39.479,64.71,39.433,64.741,39.382,64.741z"/><path fill="#472b29" d="M40.02,72.125c-0.006,0-0.013-0.001-0.02-0.002c-0.068-0.011-0.114-0.075-0.104-0.143l0.935-5.75 l1.504-3.71c0.026-0.064,0.099-0.095,0.163-0.069c0.064,0.026,0.095,0.099,0.069,0.163l-1.496,3.683l-0.927,5.723 C40.133,72.081,40.08,72.125,40.02,72.125z"/><g><path fill="#472b29" d="M38.02,72.125c-0.069,0-0.125-0.055-0.125-0.124c0-0.024-0.001-0.048-0.003-0.072 c-0.003-0.057-0.007-0.121,0.004-0.19l0.255-1.568c0.011-0.068,0.074-0.115,0.144-0.103c0.068,0.011,0.114,0.075,0.104,0.143 l-0.255,1.567c-0.007,0.042-0.004,0.087-0.001,0.136c0.001,0.028,0.003,0.056,0.003,0.085C38.146,72.068,38.09,72.125,38.02,72.125 C38.021,72.125,38.02,72.125,38.02,72.125z"/></g><g><path fill="#472b29" d="M38.534,68.719c-0.006,0-0.013-0.001-0.02-0.002c-0.068-0.011-0.114-0.075-0.104-0.143l0.223-1.372 H32.78c-0.037,0-0.071-0.016-0.095-0.044s-0.034-0.065-0.028-0.101l0.278-1.708c0.011-0.068,0.072-0.115,0.144-0.103 c0.068,0.011,0.114,0.075,0.104,0.143l-0.254,1.563h5.853c0.037,0,0.071,0.016,0.095,0.044s0.034,0.065,0.028,0.101l-0.247,1.517 C38.647,68.676,38.594,68.719,38.534,68.719z"/></g><g><path fill="#472b29" d="M60.761,72.125c-0.069,0-0.125-0.056-0.125-0.125v-0.043c0.001-0.087,0.001-0.169-0.021-0.245 l-0.378-1.264c-0.02-0.066,0.019-0.136,0.084-0.156c0.073-0.02,0.137,0.018,0.156,0.084l0.377,1.263 c0.034,0.112,0.033,0.222,0.032,0.319V72C60.886,72.069,60.83,72.125,60.761,72.125z"/></g><g><path fill="#472b29" d="M58.251,72.125c-0.054,0-0.104-0.035-0.12-0.089L55.38,62.83c-0.01-0.034-0.005-0.07,0.014-0.101 c0.018-0.03,0.048-0.051,0.083-0.058l1.092-0.209c0.067-0.013,0.133,0.031,0.146,0.099c0.013,0.068-0.032,0.133-0.1,0.146 l-0.956,0.183l2.712,9.073c0.02,0.066-0.019,0.136-0.084,0.156C58.274,72.123,58.263,72.125,58.251,72.125z"/></g><g><path fill="#472b29" d="M58.025,62.437c-0.059,0-0.111-0.042-0.123-0.102c-0.013-0.068,0.032-0.133,0.1-0.146l3.409-0.652 l1.432-1.239c0.052-0.045,0.13-0.04,0.177,0.013c0.045,0.052,0.039,0.131-0.013,0.176l-1.457,1.261 c-0.017,0.014-0.037,0.024-0.059,0.028l-3.442,0.658C58.041,62.436,58.033,62.437,58.025,62.437z"/></g><g><path fill="#472b29" d="M66.005,69.972c-0.033,0-0.066-0.012-0.09-0.034c-0.025-0.024-0.04-0.057-0.04-0.092v-4.553 l-2.1-1.582c-0.074,0.037-0.152,0.074-0.248,0.092c-0.068,0.013-0.133-0.031-0.146-0.099c-0.013-0.068,0.031-0.133,0.1-0.147 c0.067-0.013,0.131-0.044,0.197-0.077l0.06-0.028c0.04-0.02,0.09-0.014,0.128,0.013l2.21,1.665c0.031,0.024,0.05,0.061,0.05,0.1 v4.125c0.384-0.835,1.188-2.768,1.729-4.096l-3.31-3.374c-0.024-0.025-0.037-0.058-0.036-0.093 c0.002-0.034,0.018-0.067,0.043-0.089l3.925-3.396l-2.523-2.183h-2.95l2.413,2.089c0.027,0.024,0.043,0.058,0.043,0.095 c0,0.036-0.016,0.071-0.043,0.095l-1.186,1.026c-0.053,0.045-0.13,0.04-0.177-0.013c-0.045-0.052-0.039-0.131,0.013-0.176 l1.076-0.931l-2.557-2.214c-0.039-0.034-0.054-0.089-0.035-0.138c0.019-0.049,0.065-0.081,0.117-0.081h3.332 c0.03,0,0.059,0.011,0.082,0.03l2.668,2.308c0.027,0.024,0.043,0.058,0.043,0.095s-0.016,0.071-0.043,0.095l-3.934,3.404 l3.273,3.337c0.035,0.036,0.046,0.088,0.027,0.135c-1.89,4.648-2.008,4.674-2.085,4.691C66.022,69.971,66.014,69.972,66.005,69.972 z"/></g><g><path fill="#472b29" d="M59.881,68.945c-0.054,0-0.104-0.035-0.12-0.089l-1.258-4.206c-0.01-0.034-0.005-0.07,0.014-0.101 c0.018-0.03,0.048-0.051,0.083-0.058l3.456-0.66c0.066-0.013,0.133,0.031,0.146,0.099c0.013,0.068-0.032,0.133-0.1,0.146 l-3.32,0.634l1.219,4.074c0.02,0.066-0.019,0.136-0.084,0.156C59.904,68.944,59.893,68.945,59.881,68.945z"/></g><g><path fill="#472b29" d="M51.792,63.875c-0.133,0-0.244-0.105-0.25-0.239l-0.167-3.75c-0.005-0.12,0.075-0.227,0.192-0.254 l3.047-0.721c0.141-0.032,0.27,0.052,0.301,0.186c0.032,0.134-0.051,0.269-0.186,0.301l-2.846,0.673l0.158,3.543 c0.006,0.138-0.101,0.255-0.239,0.261C51.8,63.875,51.796,63.875,51.792,63.875z"/></g><g><path fill="#472b29" d="M56.021,59.085c-0.113,0-0.216-0.077-0.243-0.192c-0.032-0.134,0.051-0.269,0.186-0.301l0.835-0.198 l-0.421-2.604c-0.021-0.136,0.071-0.265,0.207-0.287c0.145-0.023,0.265,0.071,0.287,0.207l0.458,2.833 c0.021,0.129-0.062,0.253-0.189,0.283l-1.062,0.251C56.06,59.082,56.04,59.085,56.021,59.085z"/></g><g><path fill="#472b29" d="M75,56.45H26c-0.387,0-0.7-0.313-0.7-0.7s0.313-0.7,0.7-0.7h49c0.387,0,0.7,0.313,0.7,0.7 S75.387,56.45,75,56.45z"/></g></svg>