<svg xmlns="http://www.w3.org/2000/svg" viewBox="0 0 16 16"><path d="M 5.671875 1 C 4.010875 1 1.4497813 2.8765469 1.0507812 5.9355469 C 1.0257812 6.1255469 1.0089531 6.315 1.0019531 6.5 C 0.99895312 6.584 1 6.667 1 6.75 C 1.009 9.252 2.5593281 11.194328 3.7363281 11.861328 C 3.5223281 11.307328 3.373625 10.723578 3.265625 10.142578 C 2.508625 9.2345781 1.8189687 7.7784531 2.0429688 6.0644531 C 2.0499688 6.0094531 2.0671719 5.9641562 2.0761719 5.9101562 C 2.3751719 4.6011562 3.666 3 6.5 3 L 8.5 3 C 11.334 3 12.624828 4.6011562 12.923828 5.9101562 C 12.932828 5.9641563 12.950031 6.0094531 12.957031 6.0644531 C 13.181031 7.7784531 12.491375 9.2335781 11.734375 10.142578 C 11.627375 10.723578 11.477672 11.306328 11.263672 11.861328 C 12.440672 11.194328 13.991 9.252 14 6.75 C 14 6.667 14.001047 6.584 13.998047 6.5 C 13.991047 6.315 13.976172 6.1265469 13.951172 5.9355469 C 13.551172 2.8775469 10.989125 1 9.328125 1 C 8.499125 1 7.75 1.625 7.5 2 C 7.25 1.625 6.500875 1 5.671875 1 z M 6 5 C 5.4958229 5 5.0312064 5.1308884 4.6621094 5.3769531 C 4.2930123 5.6230178 4 6.0211014 4 6.5 C 4 7.452 3.99293 9.1151187 4.390625 10.652344 C 4.5894726 11.420956 4.8909342 12.164231 5.375 12.773438 C 5.8590658 13.382642 6.5454425 13.84872 7.4179688 13.994141 A 0.50005 0.50005 0 0 0 7.5820312 13.994141 C 8.4545574 13.84872 9.1409342 13.382642 9.625 12.773438 C 10.109066 12.164231 10.410527 11.420956 10.609375 10.652344 C 11.00707 9.1151187 11 7.452 11 6.5 C 11 6.0211014 10.706988 5.6230178 10.337891 5.3769531 C 9.9687932 5.1308884 9.5041771 5 9 5 C 8.4958229 5 8.0312064 5.1308884 7.6621094 5.3769531 C 7.5716365 5.4372684 7.5781388 5.5748114 7.5 5.6523438 C 7.4218612 5.5748115 7.4283635 5.4372684 7.3378906 5.3769531 C 6.9687936 5.1308884 6.5041771 5 6 5 z M 6 6 C 6.3238229 6 6.6093002 6.0930491 6.7832031 6.2089844 C 6.9571061 6.3249197 7 6.4268986 7 6.5 L 7 7 L 8 7 L 8 6.5 C 8 6.4268986 8.0428939 6.3249197 8.2167969 6.2089844 C 8.3906998 6.0930491 8.6761771 6 9 6 C 9.3238229 6 9.6093002 6.0930491 9.7832031 6.2089844 C 9.9571061 6.3249197 10 6.4268986 10 6.5 C 10 7.452 9.9929297 9.0386151 9.640625 10.400391 C 9.4644726 11.081278 9.2034342 11.699675 8.84375 12.152344 C 8.504729 12.579008 8.0712481 12.83768 7.5 12.957031 C 6.9287519 12.83768 6.495271 12.579008 6.15625 12.152344 C 5.7965658 11.699675 5.5355274 11.081278 5.359375 10.400391 C 5.0070703 9.0386151 5 7.452 5 6.5 C 5 6.4268986 5.0428939 6.3249197 5.2167969 6.2089844 C 5.3906998 6.0930491 5.6761771 6 6 6 z M 6 8 L 6 11 L 9 11 L 9 8 L 6 8 z"/></svg>