<svg xmlns="http://www.w3.org/2000/svg" viewBox="0 0 100 100"><circle cx="13" cy="29" r="2" fill="#ee3e54"/><circle cx="77" cy="13" r="1" fill="#f1bc19"/><circle cx="49" cy="50" r="37" fill="#fce0a2"/><path fill="#472b29" d="M68,71.5c-0.276,0-0.5-0.224-0.5-0.5V32.489c0-0.276,0.224-0.5,0.5-0.5s0.5,0.224,0.5,0.5V71 C68.5,71.276,68.276,71.5,68,71.5z"/><rect width="15" height="9" x="60.5" y="41.5" fill="#ee3e54"/><path fill="#472b29" d="M75.5,51h-15c-0.276,0-0.5-0.224-0.5-0.5v-9c0-0.276,0.224-0.5,0.5-0.5h15 c0.276,0,0.5,0.224,0.5,0.5v9C76,50.776,75.776,51,75.5,51z M61,50h14v-8H61V50z"/><path fill="#8889b9" d="M76,52.5H60c-0.276,0-0.5-0.224-0.5-0.5v-1c0-0.276,0.224-0.5,0.5-0.5h16c0.276,0,0.5,0.224,0.5,0.5 v1C76.5,52.276,76.276,52.5,76,52.5z"/><path fill="#472b29" d="M76,53H60c-0.551,0-1-0.449-1-1v-1c0-0.551,0.449-1,1-1h16c0.551,0,1,0.449,1,1v1 C77,52.551,76.551,53,76,53z M76,52v0.5V52C76,52,76,52,76,52z M60,51v1h16v-1H60z"/><path fill="#8889b9" d="M76,41.5H60c-0.276,0-0.5-0.224-0.5-0.5v-1c0-0.276,0.224-0.5,0.5-0.5h16c0.276,0,0.5,0.224,0.5,0.5 v1C76.5,41.276,76.276,41.5,76,41.5z"/><path fill="#472b29" d="M76,42H60c-0.551,0-1-0.449-1-1v-1c0-0.551,0.449-1,1-1h16c0.551,0,1,0.449,1,1v1 C77,41.551,76.551,42,76,42z M76,41v0.5V41C76,41,76,41,76,41z M60,40v1h16v-1H60z"/><path fill="#472b29" d="M63.417,50.75c-0.138,0-0.25-0.112-0.25-0.25v-2.388c0-0.138,0.112-0.25,0.25-0.25 s0.25,0.112,0.25,0.25V50.5C63.667,50.638,63.555,50.75,63.417,50.75z"/><path fill="#472b29" d="M63.417,46.452c-0.138,0-0.25-0.112-0.25-0.25v-1.245c0-0.138,0.112-0.25,0.25-0.25 s0.25,0.112,0.25,0.25v1.245C63.667,46.34,63.555,46.452,63.417,46.452z"/><path fill="#472b29" d="M63.417,44.154c-0.138,0-0.25-0.112-0.25-0.25V41.5c0-0.138,0.112-0.25,0.25-0.25 s0.25,0.112,0.25,0.25v2.404C63.667,44.042,63.555,44.154,63.417,44.154z"/><path fill="#472b29" d="M66.5,50.75c-0.138,0-0.25-0.112-0.25-0.25v-9c0-0.138,0.112-0.25,0.25-0.25s0.25,0.112,0.25,0.25v9 C66.75,50.638,66.638,50.75,66.5,50.75z"/><path fill="#472b29" d="M69.5,50.75c-0.138,0-0.25-0.112-0.25-0.25v-1.415c0-0.138,0.112-0.25,0.25-0.25 s0.25,0.112,0.25,0.25V50.5C69.75,50.638,69.638,50.75,69.5,50.75z"/><path fill="#472b29" d="M69.5,47.974c-0.138,0-0.25-0.112-0.25-0.25V41.5c0-0.138,0.112-0.25,0.25-0.25 s0.25,0.112,0.25,0.25v6.224C69.75,47.862,69.638,47.974,69.5,47.974z"/><path fill="#472b29" d="M72.5,50.75c-0.138,0-0.25-0.112-0.25-0.25v-9c0-0.138,0.112-0.25,0.25-0.25s0.25,0.112,0.25,0.25v9 C72.75,50.638,72.638,50.75,72.5,50.75z"/><path fill="#472b29" d="M74.149,71.063c-0.168,0-0.332-0.084-0.426-0.238L68,61.528l-5.723,9.296 c-0.144,0.235-0.452,0.308-0.688,0.164c-0.235-0.145-0.308-0.453-0.164-0.688l6.149-9.988c0.182-0.296,0.67-0.296,0.852,0 l6.149,9.988c0.145,0.235,0.071,0.543-0.164,0.688C74.329,71.039,74.239,71.063,74.149,71.063z"/><circle cx="83" cy="15" r="4" fill="#f1bc19"/><circle cx="87" cy="24" r="2" fill="#ee3e54"/><circle cx="81" cy="76" r="2" fill="#fbcd59"/><circle cx="15" cy="63" r="4" fill="#fbcd59"/><circle cx="25" cy="87" r="2" fill="#ee3e54"/><circle cx="18.5" cy="53.5" r="2.5" fill="#fff"/><circle cx="21" cy="67" r="1" fill="#f1bc19"/><circle cx="80" cy="34" r="1" fill="#fff"/><path fill="#472b29" d="M32,71.5c-0.276,0-0.5-0.224-0.5-0.5V33.489c0-0.276,0.224-0.5,0.5-0.5s0.5,0.224,0.5,0.5V71 C32.5,71.276,32.276,71.5,32,71.5z"/><rect width="15" height="9" x="24.5" y="41.5" fill="#ee3e54"/><path fill="#472b29" d="M39.5,51h-15c-0.276,0-0.5-0.224-0.5-0.5v-9c0-0.276,0.224-0.5,0.5-0.5h15 c0.276,0,0.5,0.224,0.5,0.5v9C40,50.776,39.776,51,39.5,51z M25,50h14v-8H25V50z"/><path fill="#8889b9" d="M40,52.5H24c-0.276,0-0.5-0.224-0.5-0.5v-1c0-0.276,0.224-0.5,0.5-0.5h16c0.276,0,0.5,0.224,0.5,0.5 v1C40.5,52.276,40.276,52.5,40,52.5z"/><path fill="#472b29" d="M40,53H24c-0.551,0-1-0.449-1-1v-1c0-0.551,0.449-1,1-1h16c0.551,0,1,0.449,1,1v1 C41,52.551,40.551,53,40,53z M40,52v0.5V52C40,52,40,52,40,52z M24,51v1h16v-1H24z"/><circle cx="50" cy="59" r="12.728" fill="#8889b9"/><path fill="#472b29" d="M50,72.428c-7.404,0-13.428-6.024-13.428-13.428S42.596,45.572,50,45.572S63.428,51.596,63.428,59 S57.404,72.428,50,72.428z M50,46.972c-6.632,0-12.028,5.396-12.028,12.028S43.368,71.028,50,71.028S62.028,65.632,62.028,59 S56.632,46.972,50,46.972z"/><circle cx="50" cy="59" r="10.489" fill="#cbc9bc"/><path fill="#472b29" d="M41.862,72.562H40.5c-0.387,0-0.7-0.313-0.7-0.7s0.313-0.7,0.7-0.7h1.07l1.55-1.564 c0.272-0.274,0.716-0.276,0.99-0.004c0.274,0.272,0.277,0.715,0.004,0.99l-1.755,1.771C42.228,72.487,42.048,72.562,41.862,72.562z"/><path fill="#472b29" d="M59.404,72.562h-1.362c-0.185,0-0.362-0.073-0.493-0.203l-1.771-1.755 c-0.275-0.272-0.277-0.715-0.004-0.99s0.716-0.276,0.99-0.004l1.566,1.552h1.074c0.387,0,0.7,0.313,0.7,0.7 S59.791,72.562,59.404,72.562z"/><path fill="#8889b9" d="M40,41.5H24c-0.276,0-0.5-0.224-0.5-0.5v-1c0-0.276,0.224-0.5,0.5-0.5h16c0.276,0,0.5,0.224,0.5,0.5 v1C40.5,41.276,40.276,41.5,40,41.5z"/><path fill="#472b29" d="M40,42H24c-0.551,0-1-0.449-1-1v-1c0-0.551,0.449-1,1-1h16c0.551,0,1,0.449,1,1v1 C41,41.551,40.551,42,40,42z M40,41v0.5V41C40,41,40,41,40,41z M24,40v1h16v-1H24z"/><path fill="#472b29" d="M50,69.75c-5.928,0-10.75-4.822-10.75-10.75S44.072,48.25,50,48.25c1.747,0,3.481,0.429,5.017,1.24 c0.122,0.064,0.169,0.216,0.104,0.338c-0.065,0.123-0.217,0.168-0.338,0.104C53.32,49.159,51.666,48.75,50,48.75 c-5.652,0-10.25,4.598-10.25,10.25S44.348,69.25,50,69.25S60.25,64.652,60.25,59c0-1.935-0.542-3.82-1.567-5.45 c-0.074-0.117-0.039-0.271,0.078-0.345c0.118-0.074,0.271-0.039,0.345,0.078c1.076,1.71,1.644,3.687,1.644,5.716 C60.75,64.928,55.928,69.75,50,69.75z"/><path fill="#472b29" d="M57.28,51.683c-0.063,0-0.125-0.023-0.173-0.07c-0.299-0.288-0.619-0.56-0.951-0.81 c-0.11-0.083-0.132-0.24-0.049-0.35c0.083-0.111,0.24-0.132,0.35-0.049c0.348,0.262,0.684,0.548,0.997,0.849 c0.1,0.096,0.103,0.254,0.007,0.354C57.411,51.657,57.345,51.683,57.28,51.683z"/><path fill="#472b29" d="M27.417,50.75c-0.138,0-0.25-0.112-0.25-0.25v-6.117c0-0.138,0.112-0.25,0.25-0.25 s0.25,0.112,0.25,0.25V50.5C27.667,50.638,27.555,50.75,27.417,50.75z"/><path fill="#472b29" d="M27.417,43.085c-0.138,0-0.25-0.112-0.25-0.25V41.5c0-0.138,0.112-0.25,0.25-0.25 s0.25,0.112,0.25,0.25v1.335C27.667,42.973,27.555,43.085,27.417,43.085z"/><path fill="#472b29" d="M30.5,50.75c-0.138,0-0.25-0.112-0.25-0.25v-1.138c0-0.138,0.112-0.25,0.25-0.25 s0.25,0.112,0.25,0.25V50.5C30.75,50.638,30.638,50.75,30.5,50.75z"/><path fill="#472b29" d="M30.5,48.612c-0.138,0-0.25-0.112-0.25-0.25V43.66c0-0.138,0.112-0.25,0.25-0.25 s0.25,0.112,0.25,0.25v4.702C30.75,48.5,30.638,48.612,30.5,48.612z"/><path fill="#472b29" d="M30.5,43.91c-0.138,0-0.25-0.112-0.25-0.25V41.5c0-0.138,0.112-0.25,0.25-0.25s0.25,0.112,0.25,0.25 v2.16C30.75,43.798,30.638,43.91,30.5,43.91z"/><path fill="#472b29" d="M33.5,50.75c-0.138,0-0.25-0.112-0.25-0.25v-9c0-0.138,0.112-0.25,0.25-0.25s0.25,0.112,0.25,0.25v9 C33.75,50.638,33.638,50.75,33.5,50.75z"/><g><path fill="#472b29" d="M36.5,50.75c-0.138,0-0.25-0.112-0.25-0.25v-1.394c0-0.138,0.112-0.25,0.25-0.25 s0.25,0.112,0.25,0.25V50.5C36.75,50.638,36.638,50.75,36.5,50.75z"/></g><g><path fill="#472b29" d="M36.5,48.292c-0.138,0-0.25-0.112-0.25-0.25V44c0-0.138,0.112-0.25,0.25-0.25s0.25,0.112,0.25,0.25 v4.042C36.75,48.181,36.638,48.292,36.5,48.292z"/></g><g><path fill="#472b29" d="M36.5,43.292c-0.138,0-0.25-0.112-0.25-0.25V41.5c0-0.138,0.112-0.25,0.25-0.25 s0.25,0.112,0.25,0.25v1.542C36.75,43.181,36.638,43.292,36.5,43.292z"/></g><g><path fill="#472b29" d="M38.149,71.063c-0.168,0-0.332-0.084-0.426-0.238L32,61.528l-5.723,9.296 c-0.144,0.235-0.452,0.308-0.688,0.164c-0.235-0.145-0.308-0.453-0.164-0.688l6.149-9.988c0.182-0.296,0.67-0.296,0.852,0 l6.149,9.988c0.145,0.235,0.071,0.543-0.164,0.688C38.329,71.039,38.239,71.063,38.149,71.063z"/></g><g><path fill="#fbcd59" d="M26.545,30.055l3.397,1.407c0.432,0.179,0.915,0.261,1.365,0.134 c0.455-0.128,1.024-0.092,1.578,0.138s0.982,0.606,1.213,1.018c0.229,0.408,0.629,0.692,1.06,0.87l3.397,1.407 c0.51,0.211,0.753,0.796,0.541,1.307c-0.211,0.51-0.796,0.753-1.307,0.541l-12.01-4.975c-0.51-0.211-0.753-0.796-0.541-1.307 C25.45,30.086,26.035,29.844,26.545,30.055z"/><path fill="#472b29" d="M38.171,37.204c-0.159,0-0.321-0.031-0.477-0.095l-12.011-4.975 c-0.637-0.264-0.94-0.997-0.676-1.633c0.263-0.636,0.995-0.94,1.633-0.677l0,0l3.397,1.407c0.303,0.125,0.758,0.25,1.202,0.125 c0.524-0.146,1.159-0.093,1.741,0.147c0.582,0.241,1.068,0.651,1.335,1.127c0.226,0.402,0.635,0.636,0.938,0.762l3.397,1.407 c0.637,0.264,0.94,0.997,0.677,1.633C39.128,36.914,38.662,37.204,38.171,37.204z M26.164,30.229c-0.294,0-0.575,0.174-0.694,0.463 c-0.158,0.382,0.024,0.822,0.406,0.98l12.011,4.975c0.381,0.157,0.821-0.023,0.98-0.406c0.158-0.382-0.024-0.822-0.406-0.98 l-3.397-1.407c-0.54-0.223-0.948-0.562-1.183-0.979c-0.213-0.38-0.611-0.711-1.091-0.91c-0.479-0.199-0.994-0.244-1.415-0.128 c-0.459,0.129-0.988,0.08-1.528-0.144l-3.397-1.407C26.356,30.248,26.259,30.229,26.164,30.229z"/></g><g><path fill="#fbcd59" d="M74.5,36.5h-13c-0.552,0-1-0.448-1-1l0,0c0-0.552,0.448-1,1-1h13c0.552,0,1,0.448,1,1l0,0 C75.5,36.052,75.052,36.5,74.5,36.5z"/><path fill="#472b29" d="M74.5,36.75h-13c-0.689,0-1.25-0.561-1.25-1.25s0.561-1.25,1.25-1.25h13 c0.689,0,1.25,0.561,1.25,1.25S75.189,36.75,74.5,36.75z M61.5,34.75c-0.414,0-0.75,0.336-0.75,0.75s0.336,0.75,0.75,0.75h13 c0.414,0,0.75-0.336,0.75-0.75s-0.336-0.75-0.75-0.75H61.5z"/></g><g><path fill="#fbcd59" d="M74.5,30.5h-3.677c-0.467,0-0.946-0.109-1.313-0.398c-0.372-0.293-0.911-0.477-1.51-0.477 s-1.139,0.184-1.51,0.477c-0.367,0.289-0.845,0.398-1.313,0.398H61.5c-0.552,0-1,0.448-1,1c0,0.552,0.448,1,1,1h13 c0.552,0,1-0.448,1-1C75.5,30.948,75.052,30.5,74.5,30.5z"/><path fill="#472b29" d="M74.5,32.75h-13c-0.689,0-1.25-0.561-1.25-1.25s0.561-1.25,1.25-1.25h3.677 c0.329,0,0.796-0.06,1.158-0.345c0.856-0.674,2.474-0.674,3.33,0c0.362,0.285,0.83,0.345,1.158,0.345H74.5 c0.689,0,1.25,0.561,1.25,1.25S75.189,32.75,74.5,32.75z M61.5,30.75c-0.414,0-0.75,0.336-0.75,0.75s0.336,0.75,0.75,0.75h13 c0.414,0,0.75-0.336,0.75-0.75s-0.336-0.75-0.75-0.75h-3.677c-0.584,0-1.092-0.156-1.468-0.452c-0.683-0.537-2.028-0.537-2.711,0 c-0.376,0.296-0.883,0.452-1.468,0.452H61.5z"/></g></svg>