<svg xmlns="http://www.w3.org/2000/svg" viewBox="0 0 24 24"><path d="M 15.5 0 C 13.601563 0 12 1.601563 12 3.5 C 12 5.898438 13 5.695313 13 8.59375 C 13 12.292969 7.988281 15 3.1875 15 C 1.386719 15 1.992188 15.59375 2.59375 16.09375 C 1.292969 15.792969 -0.507813 15.992188 3.09375 18.09375 C 4.742188 19.035156 6.351563 20.21875 9.5625 20.6875 C 10.085938 22.191406 9 22.332031 9 22.90625 C 9 24.007813 14.398438 24.304688 14.5 23.90625 C 14.5 23.707031 13.988281 23.601563 14.1875 23.5 C 14.386719 23.199219 15 23.101563 15 23 C 15 22.800781 14.386719 22.792969 14.1875 22.59375 C 13.988281 22.394531 14.40625 22.289063 14.40625 22.1875 C 14.40625 22.085938 12.5 21.992188 11 22.09375 C 11 22.09375 10.597656 21.667969 10.96875 20.84375 C 11.476563 20.878906 12.007813 20.90625 12.59375 20.90625 C 18.894531 20.90625 20 16.886719 20 14.6875 C 20 11.386719 17 9.507813 17 6.90625 C 17 5.105469 18.113281 5.898438 19.8125 5.5 C 21.3125 5.199219 22.414063 4.304688 22.8125 3.90625 C 23.113281 3.507813 23.113281 2.898438 22.3125 3 C 21.011719 3.300781 19.511719 3 18.8125 2.5 C 18.414063 1.101563 17.101563 0 15.5 0 Z M 16.5 2.8125 C 16.898438 2.8125 17.1875 3.101563 17.1875 3.5 C 17.1875 3.898438 16.898438 4.1875 16.5 4.1875 C 16.101563 4.1875 15.8125 3.898438 15.8125 3.5 C 15.8125 3.101563 16.101563 2.8125 16.5 2.8125 Z"/></svg>