<?xml version="1.0"?><svg xmlns="http://www.w3.org/2000/svg" viewBox="0 0 50 50">    <path d="M 35.884766 1.0019531 C 35.524629 1.0256836 35.049687 1.275 34.851562 1.359375 C 34.543563 1.490375 34.132359 1.5894844 33.943359 1.8964844 C 33.876359 2.0034844 33.699609 2.578125 33.974609 2.578125 C 34.444609 2.578125 36.462219 1.9441094 36.324219 1.2871094 C 36.275094 1.0542344 36.100848 0.98771484 35.884766 1.0019531 z M 30.777344 1.7695312 C 30.318594 1.8090313 29.850766 1.9135781 29.509766 1.9550781 C 29.176766 1.9960781 28.844266 1.9757031 28.697266 2.3457031 C 28.622266 2.5337031 29.643281 2.8455937 29.988281 2.8085938 C 30.383281 2.7665938 30.745766 2.9054844 31.134766 2.8964844 C 31.627766 2.8854844 32.718187 2.4926094 31.992188 1.9746094 C 31.686188 1.7561094 31.236094 1.7300312 30.777344 1.7695312 z M 27.982422 2.1816406 C 27.604717 2.2230078 27.103828 2.4955469 26.892578 2.5917969 C 26.421578 2.8077969 26.065969 2.9743437 25.542969 3.0273438 C 25.083969 3.0743438 24.462766 2.9504219 24.134766 3.3574219 C 23.746766 3.8404219 24.165641 4.2429531 24.681641 4.2519531 C 25.350641 4.2649531 25.718828 3.5869062 26.298828 3.3789062 C 26.747828 3.2179062 28.646406 3.3863594 28.441406 2.4433594 C 28.391531 2.2138594 28.209045 2.1568203 27.982422 2.1816406 z M 40.039062 3.0058594 C 39.395742 3.0239551 38.798203 3.2714063 38.314453 3.4726562 C 38.102453 3.5606562 37.895313 3.6490781 37.695312 3.7050781 C 36.693312 3.9860781 35.607031 4.0749219 34.457031 4.1699219 C 32.439031 4.3359219 30.353531 4.5088594 28.519531 5.7558594 C 26.179531 7.3448594 25.967922 9.6197812 26.044922 11.425781 C 26.056922 11.712781 26.027906 12.002344 26.003906 12.277344 C 25.934906 13.043344 25.856891 13.912125 26.462891 14.578125 C 26.867891 15.022125 27.458484 15.239187 28.271484 15.242188 C 28.298484 15.247187 28.324562 15.241234 28.351562 15.240234 C 28.287562 15.450234 28.206297 15.676312 28.154297 15.820312 C 28.019297 16.195312 27.913812 16.492531 27.882812 16.769531 C 27.854812 17.014531 27.842031 17.231687 27.832031 17.429688 C 27.807031 17.974688 27.803797 18.057234 27.466797 18.365234 C 26.987797 18.801234 26.422219 19.164828 25.824219 19.548828 C 25.619219 19.679828 25.417797 19.811312 25.216797 19.945312 C 25.120797 20.008312 25.025641 20.072625 24.931641 20.140625 C 24.883641 19.919625 24.814859 19.730172 24.755859 19.576172 C 24.763859 19.572172 24.773203 19.568453 24.783203 19.564453 C 24.938203 19.496453 26.305969 18.858516 26.667969 17.603516 C 26.796969 17.153516 26.843125 16.456406 26.328125 15.691406 C 25.985125 15.182406 25.514437 15.072594 25.148438 15.058594 C 25.152438 15.006594 25.156156 14.952203 25.160156 14.908203 C 25.199156 14.497203 25.252172 13.935672 24.951172 13.388672 C 24.263172 12.138672 22.97425 12.331547 22.28125 12.435547 C 22.10625 12.461547 21.93425 12.489234 21.78125 12.490234 C 21.66925 12.487234 21.425469 12.391453 21.230469 12.314453 C 20.627469 12.076453 19.615078 11.674031 18.705078 12.457031 C 17.979078 13.080031 17.915 14.082844 17.875 14.714844 C 17.842 15.226844 17.828453 15.738953 17.814453 16.251953 C 17.800453 16.765953 17.785953 17.281922 17.751953 17.794922 C 17.728953 18.131922 17.713266 18.455531 17.697266 18.769531 C 17.627266 20.191531 17.570984 21.313078 16.958984 22.580078 C 16.601984 23.318078 16.053219 23.946625 15.449219 24.640625 C 15.136219 25.000625 14.895109 25.407734 14.662109 25.802734 C 14.425109 26.202734 14.180641 26.615125 13.931641 26.828125 C 13.878641 26.873125 13.746859 26.939047 13.630859 26.998047 C 13.200859 27.215047 12.399641 27.619391 12.306641 28.650391 C 12.214641 29.681391 13.005719 30.458031 13.386719 30.832031 C 13.957719 31.391031 15.702859 32.328344 17.380859 32.652344 C 16.507859 33.000344 15.398078 33.253453 14.580078 33.439453 C 13.150078 33.764453 12.362203 33.944219 12.283203 34.824219 C 12.267203 35.011219 12.274688 35.645516 13.054688 35.978516 C 14.086657 36.418465 14.089097 36.618007 14.027344 36.916016 C 13.418231 38.378693 10.399364 37.265532 10.134766 36.771484 C 9.9157656 36.363484 10.183875 36.080813 9.671875 35.757812 C 8.290875 34.887813 3.5431719 35.790484 5.5761719 38.021484 C 6.0541719 38.545484 6.6553125 38.628094 7.3203125 38.746094 C 8.0323125 38.872094 8.5913438 39.422344 9.2773438 39.527344 C 9.9333438 39.627344 10.045578 39.141844 10.517578 38.839844 C 10.848739 38.627635 13.41375 38.352868 14.634766 38.757812 C 14.663597 38.776041 14.683626 38.797103 14.714844 38.814453 C 15.013844 38.980453 15.365328 39.056719 15.736328 39.136719 C 16.003328 39.194719 16.560781 39.313406 16.675781 39.441406 C 17.071781 39.935406 17.588406 39.955547 17.941406 39.810547 C 18.698406 39.494547 18.612156 38.745937 18.535156 38.085938 C 18.526156 38.005937 18.514953 37.895437 18.501953 37.773438 C 18.814953 37.935437 19.251375 38.064141 19.859375 37.994141 C 20.126375 37.965141 20.370844 37.871766 20.589844 37.759766 C 20.712844 38.051766 20.914344 38.337625 21.277344 38.515625 C 21.708344 38.724625 22.211484 38.692875 22.771484 38.421875 C 22.993484 38.313875 23.172266 38.167437 23.322266 38.023438 C 23.340266 38.091437 23.356141 38.157938 23.369141 38.210938 C 23.493141 38.720938 23.648828 39.354469 24.173828 39.855469 C 25.065828 40.705469 26.108141 40.633078 26.869141 40.580078 L 27.183594 40.560547 C 27.571594 40.538547 27.729172 40.645609 28.201172 40.974609 C 28.395172 41.109609 28.599031 41.252672 28.832031 41.388672 C 29.121031 41.556672 29.431422 41.661625 29.732422 41.765625 C 29.928422 41.832625 30.452375 42.013234 30.484375 42.115234 C 30.534375 42.278234 30.206828 42.87125 30.048828 43.15625 C 29.830828 43.55225 29.604094 43.960484 29.496094 44.396484 C 29.457094 44.551484 29.332937 44.803828 29.210938 45.048828 C 28.919938 45.636828 28.589641 46.303438 28.681641 47.023438 C 28.900641 48.741438 30.788703 48.851438 31.595703 48.898438 L 31.708984 48.904297 C 31.813984 48.911297 31.92325 48.926406 32.03125 48.941406 C 32.20025 48.964406 32.425781 48.994141 32.675781 48.994141 C 33.231781 48.994141 33.909656 48.844047 34.347656 48.123047 C 34.900656 47.217047 34.9375 45.543344 34.9375 45.527344 C 34.9595 44.415344 34.408141 43.831688 33.869141 43.429688 C 34.373141 43.376688 34.751703 43.199031 35.220703 42.707031 L 35.308594 42.621094 C 35.602594 42.335094 36.382562 41.575187 35.976562 40.617188 C 35.806563 40.220188 35.508375 40.006953 35.234375 39.876953 C 35.304375 39.770953 35.3855 39.661797 35.4375 39.591797 L 35.578125 39.398438 C 36.323125 38.333438 36.642344 37.245109 36.527344 36.162109 C 36.391344 34.883109 35.707172 33.845656 35.076172 32.972656 C 34.957172 32.807656 34.8245 32.640703 34.6875 32.470703 C 34.3705 32.076703 34.042844 31.669266 33.964844 31.322266 C 33.925844 31.151266 33.921969 31.133672 34.417969 30.763672 L 34.607422 30.619141 C 34.860422 30.424141 35.047312 30.264719 35.195312 30.136719 C 35.252313 30.088719 35.299797 30.046719 35.341797 30.011719 C 35.461797 30.038719 35.564297 30.127703 35.779297 30.345703 C 36.023297 30.594703 36.359719 30.936141 36.886719 30.994141 C 37.975719 31.114141 38.578453 30.858078 38.939453 30.705078 C 38.983453 30.686078 39.023063 30.666156 39.039062 30.660156 C 39.205062 30.626156 39.380594 30.607937 39.558594 30.585938 C 40.338594 30.489937 41.407891 30.356188 42.087891 29.367188 C 42.926891 28.147187 42.131047 27.108375 41.748047 26.609375 C 41.614047 26.435375 41.477781 26.254953 41.425781 26.126953 C 41.355781 25.953953 41.440625 25.901469 41.515625 25.855469 C 41.769625 25.701469 41.972953 25.683203 42.251953 25.658203 C 43.745953 25.525203 44.356187 24.752516 44.867188 22.353516 C 45.128187 21.121516 44.406703 19.831016 43.220703 19.416016 C 42.713703 19.239016 42.230797 19.267063 41.841797 19.289062 C 41.523797 19.306062 41.387359 19.304203 41.318359 19.283203 C 41.322359 19.226203 41.332844 19.158469 41.339844 19.105469 C 41.356844 18.976469 41.372859 18.845797 41.380859 18.716797 C 41.412859 18.180797 41.538641 18.041547 41.556641 18.060547 C 41.702641 18.067547 41.848141 18.106672 41.994141 18.138672 C 42.554141 18.263672 43.861969 18.551766 44.542969 17.134766 C 44.869969 16.454766 44.800141 15.742875 44.744141 15.171875 C 44.718141 14.900875 44.693797 14.644891 44.716797 14.462891 C 44.778797 13.982891 45.010297 13.552687 45.279297 13.054688 C 45.422297 12.790687 45.565359 12.524188 45.693359 12.242188 C 46.055359 11.437187 46.010703 10.692156 45.970703 10.035156 C 45.960703 9.8601563 45.949266 9.6829531 45.947266 9.5019531 C 45.940266 8.7389531 45.928891 7.6930781 45.087891 6.8300781 C 44.685891 6.4160781 44.220547 6.1194219 43.810547 5.8574219 C 43.434547 5.6164219 43.078078 5.3892812 42.830078 5.1132812 C 42.704078 4.9732813 42.601141 4.7989531 42.494141 4.6269531 C 42.213141 4.1759531 41.864422 3.6132969 41.232422 3.2792969 C 40.826672 3.0651719 40.425055 2.995002 40.039062 3.0058594 z M 23.083984 4.5957031 C 22.203984 4.4397031 21.9155 5.6665 21.3125 6.1875 C 21.1515 6.3265 21.708391 6.6022969 22.150391 6.2792969 C 22.414391 6.0862969 22.570266 5.7550625 22.822266 5.5390625 C 23.106266 5.2950625 24.020984 4.7607031 23.083984 4.5957031 z M 20.818359 6.9804688 C 20.736105 6.9884043 20.645672 7.0161094 20.544922 7.0683594 C 19.964922 7.3693594 19.436234 8.5515781 19.240234 9.1425781 C 19.170234 9.3535781 18.931156 10.78525 19.410156 10.53125 C 20.297156 10.06325 21.310891 9.4511875 21.462891 8.3671875 C 21.534641 7.8553125 21.394137 6.9249199 20.818359 6.9804688 z M 10.90625 31.462891 C 10.706484 31.465891 10.511719 31.502484 10.324219 31.583984 C 8.9252188 32.191984 11.586094 32.729391 11.871094 32.775391 C 12.820094 32.930391 12.829359 32.204234 12.693359 32.115234 C 12.140609 31.755234 11.505547 31.453891 10.90625 31.462891 z M 9.8320312 33.222656 C 9.5675781 33.201609 9.3105313 33.205922 9.0820312 33.232422 C 8.5110312 33.299422 6.8847656 33.784437 7.8847656 34.523438 C 8.3527656 34.869437 8.7895781 34.256937 9.2675781 34.335938 C 9.8765781 34.435938 9.8911406 35.189563 10.369141 35.476562 C 11.255141 36.009563 12.534625 35.219031 11.890625 34.207031 C 11.490875 33.579281 10.625391 33.285797 9.8320312 33.222656 z M 5.8066406 38.994141 C 5.4858437 38.977078 5.1690312 39.01975 4.8632812 39.15625 C 3.8452813 39.61025 3.7468906 40.994672 4.4628906 41.763672 C 4.7428906 42.064672 5.3054688 42.3945 5.7304688 42.1875 C 6.0524688 42.0305 6.1374062 41.566375 6.4414062 41.359375 C 7.4134062 40.699375 7.9795937 42.199469 8.6835938 42.605469 C 9.7525937 43.222469 10.832969 42.420797 11.792969 41.966797 C 12.259969 41.746797 12.891609 41.580297 13.224609 41.154297 C 13.616609 40.652297 13.373156 40.31725 13.160156 39.78125 C 13.076156 39.57125 12.430781 39.901625 12.300781 39.890625 C 11.854781 39.851625 11.826937 39.433625 11.460938 39.265625 C 10.895938 39.007625 10.665859 39.513344 10.255859 39.777344 C 9.7078594 40.131344 9.2339531 40.078484 8.6269531 39.896484 C 7.7704531 39.639984 6.7690312 39.045328 5.8066406 38.994141 z"/></svg>