<?xml version="1.0"?><svg xmlns="http://www.w3.org/2000/svg" viewBox="0 0 30 30">    <path d="M 16 3 C 11.589 3 8 6.589 8 11 C 8 11.553 8.447 12 9 12 C 9.553 12 10 11.553 10 11 C 10 7.691 12.691 5 16 5 C 16.918 5 17.785453 5.2120312 18.564453 5.5820312 C 18.572453 5.5100312 18.568031 5.4372344 18.582031 5.3652344 C 18.701031 4.7472344 19.04325 4.2060313 19.53125 3.8320312 C 18.46425 3.3050312 17.269 3 16 3 z M 26.427734 3 C 26.365922 3.0037969 26.303891 3.0189219 26.244141 3.0449219 L 20.865234 5.3496094 C 20.700234 5.4206094 20.581875 5.5690937 20.546875 5.7460938 C 20.512875 5.9230937 20.568312 6.1044219 20.695312 6.2324219 L 21.847656 7.3847656 L 19.158203 10.074219 C 18.974203 10.258219 18.945797 10.547672 19.091797 10.763672 C 19.111797 10.792672 19.134203 10.81975 19.158203 10.84375 C 19.313203 10.99875 19.548859 11.046031 19.755859 10.957031 L 25.132812 8.6542969 C 25.299813 8.5812969 25.419125 8.4318594 25.453125 8.2558594 C 25.487125 8.0788594 25.431688 7.8975312 25.304688 7.7695312 L 24.152344 6.6171875 L 26.841797 3.9277344 C 27.025797 3.7437344 27.054203 3.4542813 26.908203 3.2382812 C 26.796453 3.0740312 26.613172 2.9886094 26.427734 3 z M 16.714844 7 C 14.651844 7 13 8.45 13 10.5 C 13 12.534 11 12.867 11 14 C 11 14.918 12 15.139 12 16 C 12 16.86 11 17.004 11 18 C 11 18.996 12.275 20 13.5 20 C 14.725 20 16 18.444 16 17 C 16 15.556 15 14.561969 15 11.667969 C 15 9.9499688 15.497844 9 16.714844 9 C 16.989844 9 17.194375 9.0678281 17.359375 9.1738281 C 17.466375 8.9908281 17.590094 8.8132031 17.746094 8.6582031 L 18.650391 7.7539062 C 18.042391 7.2589062 17.330844 7 16.714844 7 z M 23.988281 11.318359 L 21.921875 12.203125 C 21.552875 15.691125 19.635781 17.46625 18.050781 18.90625 C 16.950781 19.90825 16 20.772 16 22 C 16 23.654 14.654 25 13 25 C 11.346 25 10 23.654 10 22 C 10 21.447 9.553 21 9 21 C 8.447 21 8 21.447 8 22 C 8 24.757 10.243 27 13 27 C 15.757 27 18 24.757 18 22 C 18 21.657 18.741484 20.981719 19.396484 20.386719 C 21.190484 18.754719 23.875281 16.300359 23.988281 11.318359 z"/></svg>