<svg xmlns="http://www.w3.org/2000/svg" viewBox="0 0 40 40"><path fill="#fff" d="M0.657 26.289L10.26 2.652 37.521 13.748 39.473 28.353 27.918 37.427z"/><path fill="#4788c7" d="M10.535,3.303l26.529,10.799l1.875,14.034l-11.102,8.719l-26.53-10.84L10.535,3.303 M9.985,2 L0.006,26.563L27.998,38l12.008-9.431l-2.028-15.175L9.985,2L9.985,2z"/><path fill="#b6dcfe" d="M21.996 34.998L33.537 25.929 31.6 11.358 37.521 13.749 39.473 28.353 27.918 37.427z"/><path fill="#4788c7" d="M32.209,12.143l4.855,1.961l1.875,14.032l-11.101,8.718l-4.859-1.992l10.642-8.363l0.449-0.353 l-0.075-0.566L32.209,12.143 M30.992,10.573l2.013,15.139l-11.992,9.424L27.998,38l12.008-9.431l-2.028-15.175L30.992,10.573 L30.992,10.573z"/><g><path fill="#4788c7" d="M26.5 21.471L27.127 19.986 23.443 18.428 20.887 24.478 24.698 26.09 25.324 24.608 23.232 23.724 23.578 22.906 25.405 23.678 26.031 22.196 24.204 21.424 24.535 20.641zM13.624 16.085L15.589 16.915 16.216 15.43 12.532 13.873 9.976 19.922 13.787 21.534 14.413 20.052 12.321 19.168 12.667 18.35 14.494 19.123 15.12 17.641 13.293 16.868zM21.593 17.926l-.128-.115c-.178-.159-.382-.306-.608-.438-.224-.128-.484-.25-.798-.371-.32-.123-.639-.207-.947-.248-.323-.042-.629-.033-.913.033-.293.066-.559.196-.791.388-.231.193-.414.46-.544.794-.165.429-.183.852-.05 1.257.127.388.395.778.795 1.162.144.135.276.266.398.389.113.115.206.226.279.331.064.092.108.181.13.264.016.058.013.115-.012.178-.016.041-.038.072-.073.101-.034.028-.079.047-.139.06-.073.015-.161.016-.265.001-.111-.014-.239-.049-.381-.104-.244-.094-.475-.233-.684-.414-.207-.178-.384-.397-.524-.652l-.26-.468-.734 1.906.102.114c.181.202.414.392.692.563.27.167.572.316.898.442.314.121.633.208.946.26.15.023.298.036.439.036.166 0 .326-.017.478-.049.296-.061.564-.191.798-.385.235-.196.424-.475.56-.829.1-.259.148-.505.146-.735-.004-.235-.05-.46-.139-.668-.088-.208-.208-.409-.358-.598-.149-.188-.322-.377-.519-.564-.136-.128-.254-.248-.358-.36-.096-.103-.173-.199-.231-.291-.051-.079-.083-.152-.098-.216-.011-.045-.006-.089.013-.139.016-.042.039-.074.072-.098.041-.03.092-.05.154-.062.074-.014.166-.014.267 0 .109.015.229.048.354.096.097.038.196.085.293.137.102.058.201.121.299.193.096.071.185.148.27.233.081.082.152.167.213.257l.269.395L21.593 17.926z"/></g></svg>