<svg xmlns="http://www.w3.org/2000/svg" viewBox="0 0 128 128"><path fill="#F1E9B4" d="M63,6.5c-22.1,0-40,17.9-40,40c0,22.1,17.9,40,40,40s40-17.9,40-40C103,24.4,85.1,6.5,63,6.5z M60.1,42.7l7.2,1.8c5.1,1.3,8.6,5.8,8.6,11.1c0,5.8-4.4,10.6-10,11.3V69c0,1.7-1.3,3-3,3c-1.7,0-3-1.3-3-3v-2.1c-5.6-0.5-10-5.2-10-10.9c0-1.7,1.3-3,3-3s3,1.3,3,3c0,2.8,2.2,5,5,5h3.6c3,0,5.4-2.4,5.4-5.4c0-2.5-1.7-4.7-4.1-5.3l-7.2-1.8c-5.1-1.3-8.6-5.8-8.6-11.1c0-5.8,4.4-10.6,10-11.3V24c0-1.7,1.3-3,3-3c1.7,0,3,1.3,3,3v2.1c5.6,0.5,10,5.2,10,10.9c0,1.7-1.3,3-3,3s-3-1.3-3-3c0-2.8-2.2-5-5-5h-3.6c-3,0-5.4,2.4-5.4,5.4C56,39.9,57.7,42.1,60.1,42.7z"/><path fill="#FFF" d="M60.1,42.7l7.2,1.8c5.1,1.3,8.6,5.8,8.6,11.1c0,5.8-4.4,10.6-10,11.3V69c0,1.7-1.3,3-3,3c-1.7,0-3-1.3-3-3v-2.1c-5.6-0.5-10-5.2-10-10.9c0-1.7,1.3-3,3-3s3,1.3,3,3c0,2.8,2.2,5,5,5h3.6c3,0,5.4-2.4,5.4-5.4c0-2.5-1.7-4.7-4.1-5.3l-7.2-1.8c-5.1-1.3-8.6-5.8-8.6-11.1c0-5.8,4.4-10.6,10-11.3V24c0-1.7,1.3-3,3-3c1.7,0,3,1.3,3,3v2.1c5.6,0.5,10,5.2,10,10.9c0,1.7-1.3,3-3,3s-3-1.3-3-3c0-2.8-2.2-5-5-5h-3.6c-3,0-5.4,2.4-5.4,5.4C56,39.9,57.7,42.1,60.1,42.7z"/><path fill="#454B54" d="M63,89.5c-23.7,0-43-19.3-43-43s19.3-43,43-43s43,19.3,43,43S86.7,89.5,63,89.5z M63,9.5c-20.4,0-37,16.6-37,37s16.6,37,37,37s37-16.6,37-37S83.4,9.5,63,9.5z"/><path fill="#CBDED6" d="M43.2,102.9L43.2,102.9c11.5-1.8,21.4,8.1,19.6,19.6l0,0l0,0C51.3,124.3,41.4,114.4,43.2,102.9L43.2,102.9z"/><path fill="#454B54" d="M60.1,125.7c-5.9,0-11.4-2.6-15.3-7.1c-3.8-4.5-5.5-10.4-4.6-16.2c0.2-1.3,1.2-2.3,2.5-2.5c1-0.2,2.1-0.2,3.1-0.2c5.9,0,11.4,2.6,15.3,7.1c3.8,4.5,5.5,10.4,4.6,16.2c-0.2,1.3-1.2,2.3-2.5,2.5C62.2,125.6,61.2,125.7,60.1,125.7z M46,105.7c0,3.3,1.2,6.5,3.4,9c2.7,3.1,6.5,4.9,10.6,5c0-3.3-1.2-6.5-3.4-9C53.9,107.5,50.1,105.7,46,105.7z"/><path fill="#A1C4B7" d="M63.2,122.7L63.2,122.7c17.2,2.6,32-12.2,29.4-29.4v0l0,0C75.3,90.7,60.5,105.5,63.2,122.7L63.2,122.7z"/><path fill="#CBDED6" d="M63.2,122.7L63.2,122.7l29.4-29.4v0l0,0C75.3,90.7,60.5,105.5,63.2,122.7L63.2,122.7z"/><path fill="#454B54" d="M67.1,126C67.1,126,67.1,126,67.1,126c-1.5,0-3-0.1-4.5-0.3c-1.3-0.2-2.3-1.2-2.5-2.5c-1.3-8.3,1.1-16.7,6.6-23.1C72.3,93.7,80.2,90,88.5,90c1.5,0,3,0.1,4.5,0.3c1.3,0.2,2.3,1.2,2.5,2.5c1.3,8.3-1.1,16.7-6.6,23.1C83.4,122.3,75.5,126,67.1,126z M65.9,120c0.4,0,0.8,0,1.3,0c0,0,0,0,0,0c6.6,0,12.9-2.9,17.2-8c3.8-4.5,5.7-10.2,5.4-16c-7.1-0.4-13.9,2.5-18.5,7.9C67.5,108.4,65.6,114.2,65.9,120z"/><path fill="#454B54" d="M63.2,126c-1.7,0-3-1.3-3-3V86.5c0-1.7,1.3-3,3-3s3,1.3,3,3V123C66.2,124.7,64.8,126,63.2,126z"/><path fill="#454B54" d="M68.2 126h-35c-1.7 0-3-1.3-3-3s1.3-3 3-3h35c1.7 0 3 1.3 3 3S69.8 126 68.2 126zM23.2 126c-.8 0-1.6-.3-2.1-.9-.6-.6-.9-1.3-.9-2.1s.3-1.6.9-2.1c1.1-1.1 3.1-1.1 4.2 0 .6.6.9 1.3.9 2.1s-.3 1.6-.9 2.1C24.7 125.7 24 126 23.2 126z"/></svg>