<svg xmlns="http://www.w3.org/2000/svg" xmlns:xlink="http://www.w3.org/1999/xlink" viewBox="0 0 100 100"><path fill="#fff" d="M21.3 55.6A.9.9 0 1 0 21.3 57.4.9.9 0 1 0 21.3 55.6zM80.3 30.900000000000002A.7.7 0 1 0 80.3 32.300000000000004.7.7 0 1 0 80.3 30.900000000000002z"/><path fill="#f1bc19" d="M77.7 11.7A.9.9 0 1 0 77.7 13.5.9.9 0 1 0 77.7 11.7zM21.8 63.300000000000004A.9.9 0 1 0 21.8 65.10000000000001.9.9 0 1 0 21.8 63.300000000000004z"/><path fill="#f9dbd2" d="M50.6 12.299999999999997A37.5 37.5 0 1 0 50.6 87.3A37.5 37.5 0 1 0 50.6 12.299999999999997Z"/><path fill="#f1bc19" d="M83.1 10.7A4 4 0 1 0 83.1 18.7A4 4 0 1 0 83.1 10.7Z"/><path fill="#ee3e54" d="M87.1 21.900000000000002A1.9 1.9 0 1 0 87.1 25.7A1.9 1.9 0 1 0 87.1 21.900000000000002Z"/><path fill="#fbcd59" d="M78.2 74.3A1.9 1.9 0 1 0 78.2 78.10000000000001 1.9 1.9 0 1 0 78.2 74.3zM15 59.3A4 4 0 1 0 15 67.3 4 4 0 1 0 15 59.3z"/><path fill="#ee3e54" d="M25.2 85.5A1.9 1.9 0 1 0 25.2 89.30000000000001A1.9 1.9 0 1 0 25.2 85.5Z"/><path fill="#fff" d="M23.3 64.8A2.5 2.5 0 1 0 23.3 69.8A2.5 2.5 0 1 0 23.3 64.8Z"/><path fill="#cbc9bc" d="M67.9,28.7v4c0,0.4-0.3,0.8-0.8,0.8h-0.8c-0.4,0-0.8-0.3-0.8-0.8v-4c0-0.4,0.3-0.7,0.8-0.7h0.8 C67.6,27.9,67.9,28.3,67.9,28.7z"/><path fill="#472b29" d="M67.1,33.8h-0.8c-0.6,0-1.1-0.5-1.1-1.1v-4c0-0.6,0.5-1.1,1.1-1.1h0.8c0.6,0,1.1,0.5,1.1,1.1v4 C68.3,33.3,67.8,33.8,67.1,33.8z M66.3,28.3c-0.2,0-0.4,0.2-0.4,0.4v4c0,0.2,0.2,0.4,0.4,0.4h0.8c0.2,0,0.4-0.2,0.4-0.4v-4 c0-0.2-0.2-0.4-0.4-0.4H66.3z"/><path fill="#e1e0d8" d="M40.4,22h20.5c2.8,0,5,2.2,5,5v45.5c0,2.8-2.2,5-5,5H40.4c-2.8,0-5-2.2-5-5V27 C35.4,24.3,37.7,22,40.4,22z"/><path fill="#472b29" d="M60.9,78.3H40.4c-3.1,0-5.7-2.6-5.7-5.7V27c0-3.1,2.6-5.7,5.7-5.7h20.5c3.1,0,5.7,2.6,5.7,5.7 v45.5C66.6,75.7,64.1,78.3,60.9,78.3z M40.4,22.8c-2.4,0-4.3,1.9-4.3,4.3v45.5c0,2.4,1.9,4.3,4.3,4.3h20.5 c2.4,0,4.3-1.9,4.3-4.3V27c0-2.4-1.9-4.3-4.3-4.3H40.4z"/><path fill="#c0e5e4" d="M62.8 36.1L62.8 68.2 39.3 68.2 39.3 61.2 39.3 53.3 39.3 29.1 59.7 29.1 62.8 29.1z"/><path fill="#472b29" d="M39,53.3c-0.2,0-0.4-0.2-0.4-0.4V28.7c0-0.2,0.2-0.4,0.4-0.4h20.3c0.2,0,0.4,0.2,0.4,0.4 s-0.2,0.4-0.4,0.4h-20v23.9C39.3,53.1,39.2,53.3,39,53.3z"/><path fill="#472b29" d="M62.4,68.2H39c-0.2,0-0.4-0.2-0.4-0.4V52.6c0-0.2,0.2-0.4,0.4-0.4s0.4,0.2,0.4,0.4v14.9H62V35.7 c0-0.2,0.2-0.4,0.4-0.4s0.4,0.2,0.4,0.4v32.1C62.8,68,62.6,68.2,62.4,68.2z"/><path fill="#cbc9bc" d="M50.3 70.1A2 2 0 1 0 50.3 74.1A2 2 0 1 0 50.3 70.1Z"/><path fill="#472b29" d="M50.3 74.4c-1.3 0-2.3-1-2.3-2.3s1-2.3 2.3-2.3c1.3 0 2.3 1 2.3 2.3S51.6 74.4 50.3 74.4zM50.3 70.5c-.9 0-1.6.7-1.6 1.6s.7 1.6 1.6 1.6 1.6-.7 1.6-1.6S51.2 70.5 50.3 70.5zM47.5 25.2h6.3c.2 0 .4.2.4.4v0c0 .2-.2.4-.4.4h-6.3c-.2 0-.4-.2-.4-.4v0C47.2 25.3 47.3 25.2 47.5 25.2zM62.4 31.4c-.2 0-.4-.2-.4-.4v-2.3c0-.2.2-.4.4-.4s.4.2.4.4V31C62.8 31.3 62.6 31.4 62.4 31.4zM62.4 33c-.1 0-.2 0-.3-.1-.1-.1-.1-.2-.1-.3s0-.2.1-.3c.1-.1.4-.1.5 0 .1.1.1.2.1.3 0 0 0 .1 0 .1 0 0 0 .1-.1.1C62.6 32.9 62.5 33 62.4 33zM39 59.6c-.2 0-.4-.2-.4-.4v-1.6c0-.2.2-.4.4-.4s.4.2.4.4v1.6C39.3 59.4 39.2 59.6 39 59.6z"/><g><defs><path id="Vr07elh~_IYa1SIa~Dvdqa" d="M62.4 35.8L62.4 67.9 39 67.9 39 56.3 39 68.6 39 28.8 59.3 28.8 62.4 28.8z"/></defs><clipPath id="Vr07elh~_IYa1SIa~Dvdqb"><use overflow="visible" xlink:href="#Vr07elh~_IYa1SIa~Dvdqa"/></clipPath><g clip-path="url(#Vr07elh~_IYa1SIa~Dvdqb)"><path fill="#472b29" d="M63,47.7c-0.1-0.3-0.4-0.6-0.7-0.8h-0.1v-0.1c0.1-0.2,0.2-0.5,0.2-0.7V46 c0-0.3-0.1-0.6-0.3-0.9l-0.3-0.4c0.1,0,0.1-0.1,0.1-0.1c0.2-0.2,0.3-0.4,0.3-0.6c0.1-0.2,0.1-0.4,0.1-0.7v-0.1 c0-0.3-0.1-0.6-0.3-0.9l-0.3-0.4l-0.2-0.2l0.1-0.1c0.3-0.3,0.5-0.6,0.5-1c0-0.2,0-0.4-0.1-0.6c-0.1-0.2-0.2-0.4-0.3-0.5 c-0.3-0.3-0.6-0.4-1-0.5h-0.2c0.2-0.3,0.3-0.7,0.3-1.2c-0.1-1-1-1.8-2-1.8c0-0.1,0-0.1,0-0.2c0-1.2-0.9-2.2-2.1-2.3 c-0.3,0-0.6,0.1-0.9,0.2c-0.3-0.8-1.1-1.3-1.9-1.3c-0.3,0-0.5,0.1-0.7,0.2l0,0l-0.2-0.3c-0.3-0.3-0.6-0.5-1-0.5 c-0.2,0-0.4,0-0.6,0.1c-0.2,0.1-0.4,0.2-0.5,0.3c-0.1,0.1-0.2,0.2-0.3,0.3c-0.1-0.1-0.2-0.2-0.3-0.3c-0.1-0.1-0.3-0.2-0.5-0.3 C49.8,32,49.6,32,49.4,32c-0.4,0-0.7,0.2-1,0.5l-0.2,0.3l0,0c-0.2-0.1-0.5-0.2-0.7-0.2c-0.9,0-1.6,0.5-1.9,1.3 c-0.3-0.1-0.6-0.2-0.9-0.2c-1.2,0-2.2,1-2.2,2.2c0,0,0,0,0,0.1c0,0.1,0,0.1,0,0.2c-1,0-1.9,0.8-2,1.8c0,0.4,0,0.8,0.2,1.2 h-0.2c-0.2,0-0.4,0-0.5,0.1c-0.2,0.1-0.3,0.2-0.5,0.3c-0.3,0.3-0.4,0.7-0.4,1.1c0,0.4,0.2,0.7,0.5,1l0.1,0.1l-0.2,0.2 l-0.3,0.4c-0.2,0.3-0.3,0.6-0.3,0.9v0.1c0,0.2,0.1,0.5,0.2,0.7c0.1,0.2,0.2,0.4,0.3,0.6l0.1,0.1l-0.3,0.4 C39,45.4,39,45.7,39,46v0.1c0,0.2,0,0.5,0.1,0.7v0.1L39,47c-0.3,0.2-0.6,0.4-0.7,0.8c-0.1,0.3-0.1,0.7,0.1,1l0.1,0.3 c0.2,0.3,0.4,0.6,0.8,0.7c0.1,0.1,0.3,0.1,0.4,0.1c0,0.1,0.1,0.2,0.1,0.3c0.1,0.2,0.2,0.3,0.3,0.4c0.1,0.1,0.3,0.2,0.4,0.2 c0.1,0.1,0.3,0.1,0.5,0.1h0.1c-0.1,0.2-0.2,0.5-0.2,0.8v0.1c0,0.2,0,0.4,0.1,0.6c0.3,0.5,0.8,0.9,1.4,0.9l0.4-0.1h0.1 c0,0.1,0,0.3,0.1,0.4c0,0.2,0.1,0.4,0.3,0.6c0.1,0.2,0.3,0.3,0.5,0.4c0.2,0.1,0.4,0.2,0.7,0.2H45c0.1,0,0.3-0.1,0.4-0.1 c0.1,0.1,0.1,0.2,0.2,0.3c0.1,0.2,0.3,0.3,0.5,0.4c0.2,0.1,0.4,0.2,0.6,0.2H47c0.2,0,0.4-0.1,0.5-0.2c0.4,0.6,1.1,1,1.8,1 c0.5,0,1-0.2,1.4-0.5c0.4,0.3,0.9,0.5,1.4,0.5c0.7,0,1.4-0.4,1.8-1c0.2,0.1,0.3,0.2,0.5,0.2h0.4c0.2,0,0.4-0.1,0.6-0.2 c0.2-0.1,0.3-0.2,0.5-0.4c0.1-0.1,0.1-0.2,0.2-0.3c0.1,0,0.2,0.1,0.4,0.1h0.5c0.2,0,0.5-0.1,0.7-0.2c0.4-0.2,0.7-0.6,0.8-1 c0-0.1,0.1-0.3,0.1-0.4h0.1l0.4,0.1c0.4-0.1,0.7-0.2,1-0.5c0.1-0.1,0.3-0.3,0.3-0.5c0.1-0.2,0.1-0.4,0.1-0.6v-0.1 c0-0.3-0.1-0.5-0.2-0.8h0.1c0.2,0,0.3,0,0.5-0.1c0.2,0,0.3-0.1,0.4-0.2c0.1-0.1,0.2-0.2,0.3-0.4c0.1-0.1,0.1-0.2,0.1-0.3 c0.1,0,0.3,0,0.4-0.1c0.3-0.1,0.6-0.4,0.8-0.7l0.1-0.3C63.1,48.4,63.2,48.1,63,47.7z"/><path fill="#d8ad8f" d="M57.5,44.6c0.1-0.9-0.2-1.7-0.1-2.1l0,0c-0.8-1-1.3-2.1-2.4-2.8c-1.2-0.8-2.6-1.3-4-1.7 c-3.4-0.8-6.7,1.6-7.8,4.8v0.1c0.1,0.6,0.2,1.2,0.2,1.8c-0.9,0-1.4,0.5-1.1,1.5c0,0,0.4,1.6,0.6,2.3c0.1,0.4,0.5,0.7,0.9,0.7 c0,0.5,0,1,0,1.5c0,0.6,0.2,1.2,0.5,1.7c0.9,1.3,5.5,4.3,6.6,4.2c1.8,0,5.4-3.1,6.3-4.6c0.2-0.3,0.3-0.7,0.3-1v-1.8 c0.4,0,0.7-0.3,0.8-0.7c0.2-0.8,0.6-2.3,0.6-2.3C59.1,45.1,58.5,44.6,57.5,44.6z"/><path fill="#b2876b" d="M60.3,59.8l-0.2-0.1l-0.3-0.1c-0.7-0.3-5.5-1.9-5.5-1.9c-0.3-0.1-0.6-0.3-0.7-0.7 c-0.1-0.6-0.2-1.1-0.1-1.7c-0.8,0.4-1.6,0.6-2.5,0.8c-1.1,0.1-3.1-1.3-3.1-1.3s-0.1,1.8-0.1,2.2c-0.1,0.3-0.4,0.6-0.8,0.7 l-4.6,1.5c-0.5,0.1-0.9,0.3-1.3,0.5c-1,0.6-1.7,1.6-2,2.8l0,0c0,0.1,0,0.2-0.1,0.4c-0.1,0.3-0.1,0.5-0.1,0.8 c0,0.3,0,3.6-0.1,3.9c4.3,3.3,9.6,3.7,15.8,3.7c2.8,0,5.5-1.7,7.9-2.6C62.3,63.1,62.8,60.6,60.3,59.8z"/><g opacity=".3"><path fill="#f4989e" d="M46.3 48.599999999999994A1.2 1.2 0 1 0 46.3 51 1.2 1.2 0 1 0 46.3 48.599999999999994zM55.3 48.599999999999994A1.2 1.2 0 1 0 55.3 51 1.2 1.2 0 1 0 55.3 48.599999999999994z" opacity=".8"/></g><path fill="#472b29" d="M43.9 49.6c-.1 0-.2-.1-.2-.2l-.5-4.8c0-.1.1-.2.2-.2.1 0 .2.1.2.2l.5 4.8C44.2 49.5 44.1 49.6 43.9 49.6 44 49.6 44 49.6 43.9 49.6zM57.3 49.3C57.3 49.3 57.3 49.3 57.3 49.3c-.1 0-.2-.1-.2-.2l.3-4.8c0-.1.1-.2.2-.2.1 0 .2.1.2.2l-.3 4.8C57.5 49.2 57.5 49.3 57.3 49.3z"/><path fill="#ee3e54" d="M58.5,59c0.4,5.9-15.8,5.4-15.7,0.1l-0.5,0l-0.8,10.2C50,73.7,59.8,70,59.8,70L59,59.2 C58.8,59.2,58.7,59.1,58.5,59z"/><path fill="#472b29" d="M51.2,55.1C51.3,55.1,51.3,55,51.2,55.1L51.2,55.1 L50.2,55l0,0c0,0,0,0,0,0.1H51.2z" opacity=".41"/><path fill="#472b29" d="M51 56.3C51 56.3 51 56.3 51 56.3c-1.2-.1-2.2-.5-3.2-1-.1-.1-.2-.2-.1-.3.1-.1.2-.2.3-.1.9.5 1.9.8 3 1 .9-.2 1.7-.5 2.5-1 .1-.1.3 0 .3.1.1.1 0 .3-.1.3C53 55.8 52.1 56.1 51 56.3 51.1 56.3 51.1 56.3 51 56.3zM58 39.9c.2-.2.3-.4.3-.7 0-.2-.1-.4-.2-.6.2-.2.3-.5.3-.7-.1-.6-.6-1.1-1.2-1.1-.1-.1-.2-.1-.4-.1 0-.1.1-.2.1-.3-.1-.7-.7-1.2-1.5-1.1-.4 0-.7.1-1 .3-.3-.6-1-1-1.6-.9-.8-.1-1.6.5-1.7 1.3 0 .2.1.4.2.6-.2 0-.3.1-.5.2l0 0c0-.4-.2-.8-.6-1 0-.1 0-.1 0-.2-.1-.8-.8-1.4-1.7-1.3h-.1c-.1 0-.3 0-.4 0-.5 0-.9.1-1.3.4-.7 0-1.4.5-1.5 1.2-.4 0-.8.2-1.1.6-.4.2-.7.6-.8 1.1-.5.1-.9.5-1 1.1 0 .1 0 .2 0 .3-.3.2-.5.6-.6 1 .1.5.4 1 .9 1.2 0 .1 0 .1 0 .2.1.9 1 1.6 1.9 1.5.5 0 .9-.1 1.3-.4.5 0 .9-.4 1.1-.8l0 0c.7.1 1.3-.4 1.4-1.1l0 0c.4-.1.8-.3 1-.7h.2c.4.6 1.1 1 1.8 1 .2.6.8 1.1 1.4 1h.1c0 0 0 .1 0 .1.1.7.8 1.2 1.5 1.2.5 0 1-.2 1.3-.6.4.3.9.4 1.3.4.9.1 1.8-.6 1.9-1.5C58.9 40.7 58.5 40.1 58 39.9z"/><path fill="#472b29" d="M51.6,72.1c-4.6,0-9.2-1.4-13-4.1c-0.1-0.1-0.2-0.2-0.2-0.4l0-0.2c-0.2-4.4,0.7-7.1,2.5-8 c0.4-0.2,0.9-0.4,1.4-0.6l4.5-1.5c0.2-0.1,0.4-0.2,0.4-0.4c0-0.2,0.1-1,0.1-1.5c-1.3-0.7-2.4-1.7-3.4-2.8 c-0.5-0.6-0.7-1.3-0.6-2l0-1.1c-0.4-0.2-0.8-0.6-0.9-1c-0.2-0.7-0.6-2.2-0.6-2.3c-0.2-0.7-0.1-1.2,0.1-1.5 c0.2-0.2,0.4-0.4,0.9-0.5c0,0,0,0,0-0.1c-0.2-0.3-0.2-0.7-0.3-1.1c0-4,3.5-7.3,7.9-7.3c4.3,0,7.9,3.2,7.9,7.2 c0,0.4-0.1,0.8-0.3,1.1v0c0.5,0.1,0.9,0.3,1.1,0.6c0.2,0.3,0.4,0.7,0.2,1.4l0,0l-0.1,0.2c-0.1,0.5-0.4,1.5-0.5,2.1 c-0.1,0.4-0.3,0.7-0.7,0.9v1.4c0,0.4-0.1,0.9-0.3,1.2c-1.1,1.5-2.3,2.7-3.8,3.6c0,0.4,0,0.8,0.1,1.2c0.1,0.1,0.2,0.2,0.4,0.3 c0.2,0.1,4.8,1.6,5.6,2l0.5,0.2c2.4,0.7,2.5,3.7,2.6,7.9l0,1.4c0,0.2-0.1,0.4-0.3,0.4C59.3,71.1,55.4,72.1,51.6,72.1z M39.3,67.3c6.7,4.6,15.6,5,22.7,1.1l0-1.1c-0.1-3.9-0.2-6.4-1.9-7c0,0,0,0,0,0l-0.5-0.2c-0.7-0.3-5.4-1.9-5.5-1.9 c-0.5-0.1-0.8-0.5-1-0.9c-0.2-0.7-0.2-1.2-0.2-1.8c0-0.2,0.1-0.3,0.2-0.4c1.4-0.9,2.7-2.1,3.7-3.5c0.1-0.2,0.2-0.5,0.2-0.7 v-1.7c0-0.3,0.2-0.5,0.4-0.5c0.2,0,0.3-0.1,0.3-0.3c0.2-0.6,0.4-1.6,0.5-2.1c0-0.1,0.1-0.2,0.1-0.3l0,0c0.1-0.2,0.1-0.4,0-0.5 c-0.1-0.2-0.4-0.3-0.8-0.3c0,0,0,0,0,0c-0.1,0-0.3-0.1-0.4-0.1C57.1,45,57,44.8,57,44.7v-0.6c0-0.1,0-0.2,0.1-0.2 c0.1-0.3,0.2-0.5,0.2-0.8c0-3.4-3.1-6.2-6.9-6.2s-6.9,2.8-6.9,6.2c0,0.2,0.1,0.5,0.2,0.8c0,0.1,0,0.1,0,0.2c0,0.2,0,0.5,0,0.7 c0,0.3-0.2,0.5-0.5,0.5c-0.3,0-0.5,0.1-0.6,0.2c-0.1,0.1-0.1,0.3,0,0.6c0,0.1,0.4,1.6,0.6,2.3c0.1,0.2,0.2,0.4,0.4,0.4 c0,0,0,0,0,0c0.1,0,0.3,0.1,0.4,0.1c0.1,0.1,0.1,0.2,0.1,0.4v1.5c0,0.5,0.1,1,0.4,1.4c1,1,2.1,1.9,3.4,2.7 c0.2,0.1,0.3,0.3,0.3,0.4c0,0.5-0.1,1.7-0.2,2c-0.2,0.6-0.6,1-1.1,1.1l-4.5,1.5c-0.4,0.1-0.8,0.3-1.2,0.5 C40.4,60.7,39.1,62.1,39.3,67.3z"/><path fill="#472b29" d="M49.5 43.3c-1.5-.3-3-.3-4.4 0-.1 0-.1.1-.1.1 0 .1.1.1.1.1 1.3.1 2.7.2 4 .4l0 0c0 0 .1 0 .1-.1l.3-.4C49.6 43.4 49.6 43.4 49.5 43.3 49.5 43.3 49.5 43.3 49.5 43.3zM51.9 43.4c1.4-.3 2.9-.4 4.4-.2.1 0 .1 0 .1.1 0 .1 0 .1-.1.1 0 0 0 0-.1 0-1.3.1-2.7.4-4 .6h0c0 0-.1 0-.1 0l-.3-.4c0 0 0-.1 0-.1C51.8 43.5 51.8 43.4 51.9 43.4zM47.4 44.8c-.3 0-.6.2-.7.5h.1c.3 0 .5.2.5.5s-.2.5-.5.5c-.1 0-.2 0-.2-.1.1.4.4.7.8.8.6-.1 1-.7.8-1.3C48.2 45.2 47.9 44.9 47.4 44.8L47.4 44.8zM53.9 44.8c-.3 0-.5.1-.6.4.1 0 .1 0 .2 0 .3 0 .5.2.5.5s-.2.5-.5.5c-.2 0-.3-.1-.4-.2-.1.5.2.9.7 1 .5.1.9-.2 1-.7 0-.1 0-.2 0-.4C54.9 45.4 54.5 44.9 53.9 44.8 54 44.8 53.9 44.8 53.9 44.8z"/><path fill="#472b29" d="M50.8,50.7c0.3,0,0.6-0.2,0.8-0.4c0-0.1,0-0.1,0-0.2 c0,0-0.1-0.1-0.1,0c0,0,0,0,0,0c-0.1,0.2-0.4,0.3-0.6,0.3c-0.2,0-0.5-0.1-0.6-0.3c0-0.1-0.1-0.1-0.1-0.1c0,0,0,0-0.1,0 c0,0.1,0,0.1,0,0.2C50.2,50.5,50.5,50.7,50.8,50.7z" opacity=".41"/><path fill="#6d1b18" d="M48.8,52.1c0,0.1,0,0.2,0,0.3c0,0.8,0.9,1.5,2,1.5s2-0.7,2-1.5c0-0.1,0-0.2,0-0.3H48.8z"/><path fill="#ee3e54" d="M51.8,53.7c-0.3-0.3-0.7-0.4-1.1-0.4c-0.4,0-0.8,0.1-1.1,0.4c0.3,0.2,0.7,0.2,1.1,0.2 C51.1,53.9,51.5,53.8,51.8,53.7z"/><path fill="#fdfcef" d="M49.3,52.1v0.3c0,0.2,0.3,0.4,0.7,0.4h1.5c0.4,0,0.7-0.2,0.7-0.4v-0.3H49.3z"/><path fill="#472b29" d="M50.8,54.1c-1.2,0-2.2-0.8-2.2-1.7c0-0.1,0-0.2,0-0.3c0-0.1,0.1-0.2,0.2-0.2h4 c0.1,0,0.2,0.1,0.2,0.2c0,0.1,0,0.2,0,0.3C53,53.3,52,54.1,50.8,54.1z M48.9,52.3C48.9,52.3,48.9,52.4,48.9,52.3 c0,0.8,0.8,1.4,1.8,1.4s1.8-0.6,1.8-1.3c0,0,0-0.1,0-0.1H48.9z"/><path fill="#836f61" d="M50.5,34.7c-4.4,0-7.9,3-7.9,6.7c0,0.3,0.1,0.7,0.3,1c1-3.3,5.4-4.9,7.6-4.9s6.6,1.5,7.6,4.9 c0.2-0.3,0.3-0.7,0.3-1C58.4,37.7,54.8,34.7,50.5,34.7z"/><path fill="#ee3e54" d="M57.4,44.2C56.9,44.1,56.5,44,56,44c-0.7,0-1.4,0.1-2.1,0.2c-0.9,0.2-1.8,0.4-2.6,0.8 c-0.6,0.3-1.4,0.3-2,0c-0.8-0.4-1.7-0.7-2.6-0.8c-0.7-0.1-1.4-0.1-2.1-0.2c-0.5,0-0.9,0-1.3,0.2c-0.2,0.1-0.2,0.2-0.1,0.8 c0.1,0.5,0.4,1.1,0.7,1.5c0.5,0.8,1.2,1.3,2,1.7c0.6,0.3,1.4,0.3,2,0c0.6-0.3,1.1-0.8,1.5-1.4c0.2-0.3,0.5-0.9,0.7-1h0.2h0.2 c0.3,0,0.5,0.6,0.7,1c0.4,0.6,0.9,1.1,1.5,1.4c0.6,0.3,1.4,0.3,2,0c0.8-0.4,1.5-1,2-1.7c0.3-0.5,0.5-1,0.7-1.5 C57.6,44.4,57.5,44.3,57.4,44.2z M49.4,46.3c-0.2,0.5-0.6,1-1,1.3c-0.6,0.4-1.3,0.5-2,0.4c-0.7-0.2-1.3-0.6-1.8-1.2 c-0.4-0.6-0.4-1.3-0.2-2c0.2-0.4,1-0.5,1.3-0.5c0.8,0,1.6,0.1,2.4,0.4c1.1,0.3,1.3,0.8,1.3,0.8C49.5,45.8,49.5,46.1,49.4,46.3 L49.4,46.3z M56.1,46.9c-0.5,0.5-1.1,0.9-1.7,1.1c-0.7,0.2-1.4,0-2-0.4c-0.4-0.3-0.8-0.8-1-1.3c-0.1-0.2-0.1-0.5,0-0.8 c0,0,0.2-0.6,1.3-0.8c0.8-0.2,1.5-0.3,2.3-0.3c0.4,0,1.1,0.1,1.3,0.5C56.6,45.5,56.6,46.3,56.1,46.9L56.1,46.9z"/></g></g><g><path fill="#fdfcef" d="M42.8,47.4c-0.1,2.6-1.6,4.8-3.9,6l0,0c0,1.2,0.3,2.4,0.8,3.5c0.1,0.2,0,0.5-0.2,0.6 c-0.1,0-0.2,0.1-0.3,0c-2.1-0.2-4-1.1-5.6-2.5h-1.3c-5.8,0-10.5-3.5-10.5-7.7s4.7-7.7,10.5-7.7S42.8,43.1,42.8,47.4"/><path fill="#472b29" d="M39.3,58.1C39.3,58.1,39.2,58.1,39.3,58.1c-2.2-0.2-4.2-1.1-5.8-2.5h-1.1c-6,0-11-3.7-11-8.2 c0-4.5,4.9-8.2,11-8.2s11,3.7,11,8.2c0,0,0,0,0,0c0,0,0,0,0,0c-0.1,2.6-1.6,5-3.9,6.3c0.1,1,0.3,2.1,0.8,3c0.2,0.5,0,1-0.4,1.3 C39.6,58,39.4,58.1,39.3,58.1z M32.3,40.1c-5.5,0-10,3.2-10,7.2c0,4,4.5,7.2,10,7.2h1.3c0.1,0,0.2,0,0.3,0.1 c1.5,1.3,3.3,2.2,5.3,2.4c-0.6-1.1-0.9-2.4-0.9-3.7c0-0.2,0.1-0.4,0.3-0.5c2.1-1.1,3.5-3.2,3.7-5.6c0,0,0,0,0,0 C42.3,43.4,37.8,40.1,32.3,40.1z"/></g></svg>