<?xml version="1.0"?><svg xmlns="http://www.w3.org/2000/svg" viewBox="0 0 30 30">    <path d="M 14.998047 5 A 1.0001 1.0001 0 0 0 14.705078 5.0449219 L 1.8652344 8.9960938 A 1.0001 1.0001 0 0 0 1 10 L 1 20.277344 C 0.40436594 20.623613 0 21.261054 0 22 C 0 23.105 2 26 2 26 C 2 26 4 23.105 4 22 C 4 21.261054 3.5956341 20.623613 3 20.277344 L 3 11.353516 L 14.705078 14.955078 A 1.0001 1.0001 0 0 0 15.294922 14.955078 L 28.294922 10.955078 A 1.0001 1.0001 0 0 0 28.294922 9.0449219 L 15.294922 5.0449219 A 1.0001 1.0001 0 0 0 14.998047 5 z M 7 14.677734 L 7 21 C 7 21 10.369625 21.007172 14.015625 23.326172 C 14.012625 23.217172 14 23.11 14 23 C 14 20.514 15.007719 18.263766 16.636719 16.634766 L 15.882812 16.867188 C 15.595813 16.956188 15.297 17 15 17 C 14.703 17 14.404188 16.956188 14.117188 16.867188 L 7 14.677734 z M 23 16 C 19.134 16 16 19.134 16 23 C 16 26.866 19.134 30 23 30 C 26.866 30 30 26.866 30 23 C 30 19.134 26.866 16 23 16 z M 22 18 L 24 18 L 24 19.419922 C 25.088 19.708922 25.791453 20.468375 25.814453 21.484375 L 24.160156 21.484375 C 24.121156 20.986375 23.647578 20.638672 23.017578 20.638672 C 22.387578 20.638672 21.972656 20.93725 21.972656 21.40625 C 21.972656 21.79225 22.284344 22.015109 23.027344 22.162109 L 23.935547 22.339844 C 25.327547 22.608844 25.951172 23.236469 25.951172 24.355469 C 25.951172 25.527469 25.227 26.321656 24 26.597656 L 24 28 L 22 28 L 22 26.605469 C 20.802 26.346469 20.072828 25.601578 20.048828 24.517578 L 21.757812 24.517578 C 21.801813 25.030578 22.314641 25.357422 23.056641 25.357422 C 23.725641 25.357422 24.183594 25.034312 24.183594 24.570312 C 24.183594 24.179312 23.875312 23.969594 23.070312 23.808594 L 22.142578 23.623047 C 20.853578 23.379047 20.189453 22.675406 20.189453 21.566406 C 20.189453 20.482406 20.88 19.700109 22 19.412109 L 22 18 z"/></svg>