<svg xmlns="http://www.w3.org/2000/svg" viewBox="0 0 100 100"><path fill="#ee3e54" d="M13,27c-1.105,0-2,0.895-2,2s0.895,2,2,2s2-0.895,2-2S14.105,27,13,27z"/><path fill="#f1bc19" d="M77,12c-0.551,0-1,0.449-1,1s0.449,1,1,1s1-0.449,1-1S77.551,12,77,12z"/><path fill="#fce0a2" d="M50,13c-20.434,0-37,16.566-37,37s16.566,37,37,37s37-16.566,37-37S70.434,13,50,13z"/><path fill="#f1bc19" d="M83,11c-2.211,0-4,1.789-4,4s1.789,4,4,4s4-1.789,4-4S85.211,11,83,11z"/><path fill="#ee3e54" d="M87,22c-1.105,0-2,0.895-2,2s0.895,2,2,2s2-0.895,2-2S88.105,22,87,22z"/><path fill="#fbcd59" d="M81,74c-1.105,0-2,0.895-2,2s0.895,2,2,2s2-0.895,2-2S82.105,74,81,74z M15,59 c-2.211,0-4,1.789-4,4s1.789,4,4,4s4-1.789,4-4S17.211,59,15,59z"/><path fill="#ee3e54" d="M25,85c-1.105,0-2,0.895-2,2s0.895,2,2,2s2-0.895,2-2S26.105,85,25,85z"/><path fill="#fff" d="M18.5,52c-1.379,0-2.5,1.121-2.5,2.5s1.121,2.5,2.5,2.5s2.5-1.121,2.5-2.5S19.879,52,18.5,52z"/><path fill="#f1bc19" d="M21,66c-0.551,0-1,0.449-1,1s0.449,1,1,1s1-0.449,1-1S21.551,66,21,66z"/><path fill="#fff" d="M80,31c-0.551,0-1,0.449-1,1s0.449,1,1,1s1-0.449,1-1S80.551,31,80,31z"/><path fill="#ee3e54" d="M26.333,35.448c-0.43,0-0.857-0.184-1.154-0.54c-0.53-0.637-0.444-1.583,0.193-2.112 c6.896-5.743,15.645-8.905,24.633-8.905c8.935,0,17.642,3.128,24.518,8.809c0.639,0.527,0.729,1.473,0.201,2.111 c-0.528,0.64-1.473,0.729-2.112,0.201c-6.339-5.237-14.368-8.121-22.607-8.121c-8.289,0-16.355,2.916-22.713,8.21 C27.011,35.334,26.671,35.448,26.333,35.448z"/><path fill="#77cbd2" d="M74.184,71c0.205-1.288,0.316-2.608,0.316-3.954c0-13.648-10.969-24.713-24.5-24.713 S25.5,53.398,25.5,67.046c0,1.346,0.111,2.666,0.316,3.954H74.184z"/><path fill="#88ae45" d="M44.688,42.438c0,0-1.063,4.438,0.813,3.875s3.438-1.563,5.375-0.625s4.313,1.313,3.5,2.438 s-1.75,0.813-2.938,0.188s-0.5,0.938-1,1.375s-2.188,0.438-2.125,1.688S48.688,59,50.75,59.75s4.25,0.938,5.563,0.313 S57,58.438,56,57.938s-2.063-2.25-2.125-3.438s0.688-2.75,1.438-1.438s2.5,3.813,4.188,4.375s2.313,0.75,2.875,2.188 s1.688,2.563,1.188,3.688s-0.75,1.938-0.25,3.188s-0.438,2.125-0.438,2.125l1.688,0.438c0,0-0.313-2.5,1.25-3.063 s1.75-2.313,2.813-2.188S70.75,65,70.313,66s-0.063,3.125-0.063,3.125l1.813,0.125c0,0,0.625-3.125,1.625-3.813s0-3.875,0-3.875 s-1.313-7.813-7.25-13.313S49.813,40.5,44.688,42.438z"/><path fill="#88ae45" d="M34.97,47.431c0,0,3.395-1.031,4.607-0.182s0.727,2.667,2.061,2.789s4.426-0.909,4.547,2.486 s0.182,8.245,1.516,9.094c1.334,0.849,4.304,0.364,3.274,1.455c-1.031,1.091-2.849,2.789-4.244,2.486s-4.486,1.516-5.395,2.849 c-0.909,1.334-2.366,2.562-2.366,2.562L29.594,71c0,0-1.563-3.344,1.011-4.776c0.948-0.527,1.879-3.092,1.455-4.122 c-0.424-1.031,1.819-2.607,1.455-3.941s-0.546-2.001-2.001-2.001s-3.637,0.182-3.577-0.303 C27.998,55.373,31.332,49.856,34.97,47.431z"/><path fill="#472b29" d="M72.063,69.5c-0.005,0-0.011,0-0.017-0.001l-1.813-0.125c-0.115-0.008-0.209-0.093-0.229-0.206 c-0.016-0.09-0.383-2.212,0.08-3.269c0.162-0.37,0.047-0.708-0.078-0.927c-0.271-0.471-0.85-0.847-1.41-0.912 c-0.376-0.044-0.61,0.24-0.996,0.746c-0.106,0.14-0.218,0.286-0.341,0.431c-0.089,0.105-0.247,0.118-0.352,0.029 c-0.105-0.089-0.118-0.247-0.029-0.352c0.117-0.138,0.223-0.277,0.324-0.411c0.399-0.524,0.777-1.019,1.453-0.94 c0.718,0.084,1.435,0.551,1.785,1.16c0.258,0.449,0.294,0.938,0.103,1.376c-0.329,0.752-0.152,2.256-0.075,2.789l1.396,0.096 c0.17-0.769,0.753-3.115,1.683-3.754c0.617-0.424,0.268-2.43-0.097-3.594c-0.021-0.111-1.378-7.828-7.181-13.204 c-5.848-5.417-16.399-7.583-21.367-5.808c-0.251,1.124-0.45,2.933,0.031,3.387c0.072,0.068,0.202,0.149,0.497,0.06 c0.39-0.117,0.767-0.253,1.136-0.387l0.313-0.113c0.132-0.046,0.273,0.021,0.319,0.152c0.046,0.13-0.021,0.273-0.151,0.319 l-0.311,0.112c-0.377,0.137-0.763,0.276-1.163,0.396c-0.502,0.151-0.812-0.013-0.984-0.176c-0.873-0.824-0.221-3.675-0.144-3.997 c0.02-0.081,0.077-0.146,0.155-0.176c5.148-1.946,15.884,0.19,22.008,5.863c5.931,5.494,7.313,13.376,7.327,13.454 c0.1,0.311,1.015,3.353-0.105,4.122c-0.752,0.517-1.353,2.814-1.521,3.656C72.284,69.417,72.181,69.5,72.063,69.5z"/><path fill="#472b29" d="M64.563,69.313c-0.021,0-0.042-0.003-0.063-0.008l-1.688-0.438c-0.088-0.023-0.156-0.092-0.179-0.18 c-0.022-0.088,0.004-0.182,0.07-0.244c0.033-0.031,0.805-0.78,0.377-1.85c-0.549-1.373-0.242-2.268,0.253-3.382 c0.273-0.615-0.026-1.243-0.515-2.131c-0.098-0.178-0.175-0.318-0.251-0.461c-0.187-0.351-0.318-0.63-0.426-0.903 c-0.511-1.305-1.047-1.484-2.64-2.014l-0.082-0.027c-0.369-0.123-0.759-0.338-1.16-0.64c-0.11-0.083-0.132-0.24-0.049-0.35 c0.083-0.111,0.24-0.132,0.35-0.05c0.357,0.269,0.7,0.459,1.018,0.565l0.082,0.027c1.663,0.554,2.351,0.783,2.947,2.306 c0.1,0.254,0.224,0.517,0.401,0.85c0.075,0.141,0.151,0.279,0.226,0.414c0.479,0.871,0.95,1.729,0.556,2.616 c-0.459,1.033-0.724,1.799-0.247,2.993c0.373,0.932,0.043,1.673-0.229,2.074l0.973,0.252c-0.025-0.758,0.074-2.477,1.439-2.969 c0.128-0.047,0.273,0.02,0.32,0.151c0.047,0.13-0.021,0.273-0.151,0.32c-1.354,0.488-1.089,2.773-1.086,2.796 c0.01,0.082-0.021,0.164-0.083,0.219C64.681,69.291,64.623,69.313,64.563,69.313z"/><path fill="#472b29" d="M54.314,60.688c-1.099,0-2.37-0.237-3.65-0.703c-0.734-0.267-1.305-1.11-1.747-2.577 c-0.04-0.132,0.035-0.272,0.167-0.311c0.135-0.04,0.272,0.035,0.312,0.167c0.382,1.269,0.88,2.048,1.439,2.251 c2.115,0.769,4.172,0.892,5.37,0.322c0.273-0.13,0.6-0.349,0.603-0.655c0.003-0.334-0.366-0.744-0.919-1.021 c-1.073-0.537-2.194-2.344-2.263-3.648c-0.047-0.886,0.321-1.997,0.922-2.174c0.252-0.074,0.624-0.029,0.982,0.599 c0.21,0.368,0.976,1.654,2.021,2.772c0.094,0.101,0.089,0.259-0.012,0.353c-0.102,0.094-0.26,0.089-0.354-0.012 c-1.082-1.158-1.874-2.486-2.091-2.865c-0.149-0.261-0.302-0.398-0.406-0.367c-0.28,0.082-0.604,0.906-0.564,1.668 c0.059,1.115,1.08,2.774,1.987,3.227c0.743,0.371,1.201,0.936,1.196,1.473c-0.003,0.311-0.16,0.755-0.888,1.102 C55.858,60.556,55.134,60.688,54.314,60.688z"/><path fill="#472b29" d="M48.768,55.929c-0.118,0-0.223-0.084-0.246-0.205c-0.334-1.829-0.428-3.709-0.458-4.327 c-0.053-1.055,0.881-1.376,1.563-1.611c0.271-0.093,0.527-0.181,0.647-0.286c0.113-0.099,0.127-0.4,0.139-0.641 c0.017-0.351,0.035-0.713,0.318-0.875c0.264-0.151,0.597-0.011,0.824,0.108c1.247,0.656,1.956,0.805,2.619-0.113 c0.149-0.206,0.117-0.314,0.106-0.35c-0.108-0.361-1.017-0.709-1.896-1.045c-0.507-0.194-1.083-0.414-1.616-0.672 c-0.772-0.374-1.526-0.452-2.44-0.255c-0.139,0.03-0.268-0.057-0.297-0.192c-0.029-0.135,0.057-0.268,0.192-0.297 c1.019-0.219,1.897-0.126,2.764,0.294c0.515,0.249,1.055,0.455,1.577,0.655c1.127,0.431,2.018,0.771,2.197,1.369 c0.075,0.252,0.015,0.516-0.18,0.785c-0.955,1.322-2.134,0.854-3.256,0.262c-0.267-0.14-0.345-0.115-0.346-0.115 c-0.043,0.047-0.056,0.308-0.063,0.464c-0.018,0.354-0.037,0.755-0.31,0.993c-0.194,0.169-0.495,0.273-0.813,0.383 c-0.761,0.262-1.257,0.48-1.227,1.104c0.031,0.619,0.124,2.475,0.452,4.271c0.025,0.136-0.065,0.266-0.201,0.291 C48.798,55.927,48.783,55.929,48.768,55.929z"/><path fill="#472b29" d="M46.458,58.004c-0.126,0-0.235-0.096-0.248-0.225c-0.147-1.435-0.202-3.058-0.25-4.491l-0.026-0.756 c-0.07-1.978-1.142-2.349-2.722-2.297c-0.154,0.006-0.254-0.104-0.258-0.242c-0.004-0.138,0.104-0.254,0.242-0.258 c1.46-0.048,3.147,0.225,3.238,2.778l0.026,0.757c0.047,1.424,0.102,3.039,0.247,4.457c0.014,0.137-0.086,0.26-0.223,0.274 C46.476,58.004,46.467,58.004,46.458,58.004z"/><path fill="#472b29" d="M41.639,50.288c-0.008,0-0.016,0-0.023-0.001c-0.885-0.08-1.116-0.769-1.339-1.436 c-0.174-0.519-0.354-1.055-0.843-1.397c-0.113-0.079-0.141-0.235-0.061-0.348c0.079-0.113,0.235-0.14,0.348-0.061 c0.623,0.436,0.839,1.08,1.03,1.648c0.23,0.687,0.376,1.048,0.91,1.097c0.138,0.012,0.239,0.134,0.227,0.272 C41.875,50.19,41.766,50.288,41.639,50.288z"/><path fill="#472b29" d="M33.279,59.66c-0.039,0-0.078-0.009-0.115-0.028c-0.123-0.063-0.171-0.214-0.107-0.337 c0.227-0.44,0.296-0.779,0.217-1.068c-0.36-1.322-0.496-1.817-1.759-1.817c-0.306,0-0.644,0.008-0.987,0.016 c-1.65,0.04-2.458,0.024-2.736-0.283c-0.081-0.089-0.117-0.202-0.102-0.318c0.079-0.63,3.517-6.187,7.142-8.604 c0.021-0.014,0.042-0.024,0.066-0.031c0.066-0.02,1.644-0.494,3.056-0.526c0.145-0.003,0.253,0.106,0.256,0.244 c0.003,0.138-0.106,0.252-0.244,0.256c-1.231,0.028-2.649,0.425-2.887,0.495c-3.459,2.324-6.585,7.389-6.874,8.174 c0.303,0.142,1.55,0.112,2.313,0.094c0.347-0.008,0.689-0.016,0.999-0.016c1.646,0,1.883,0.869,2.242,2.184 c0.114,0.417,0.033,0.872-0.255,1.43C33.457,59.611,33.369,59.66,33.279,59.66z"/><path fill="#472b29" d="M29.563,71.219c-0.088,0-0.174-0.047-0.219-0.13c-0.545-0.996-0.607-2.71-0.138-3.821 c0.286-0.677,0.747-1.121,1.333-1.284c0.273-0.076,0.581-0.428,0.843-0.965c0.474-0.968,0.678-2.26,0.448-2.821 c-0.202-0.49,0.05-1.019,0.324-1.472c0.072-0.118,0.227-0.155,0.343-0.084c0.118,0.072,0.156,0.225,0.084,0.343 c-0.292,0.483-0.382,0.799-0.29,1.022c0.32,0.778,0.018,2.253-0.46,3.231c-0.234,0.478-0.625,1.079-1.159,1.228 c-0.44,0.122-0.778,0.457-1.006,0.997c-0.453,1.072-0.305,2.617,0.116,3.386c0.066,0.121,0.022,0.273-0.099,0.339 C29.645,71.209,29.604,71.219,29.563,71.219z"/><path fill="#472b29" d="M39,71.188c-0.071,0-0.142-0.03-0.191-0.089c-0.089-0.106-0.075-0.263,0.031-0.352 c0.014-0.012,1.411-1.191,2.29-2.48c0.98-1.438,4.188-3.271,5.655-2.953c0.941,0.204,2.326-0.631,4.009-2.413 c0.138-0.146,0.145-0.209,0.145-0.21c-0.081-0.097-0.713-0.186-1.131-0.245c-0.764-0.108-1.631-0.23-2.24-0.617 c-0.521-0.332-0.896-1.16-1.147-2.533c-0.025-0.136,0.065-0.266,0.201-0.291c0.133-0.024,0.266,0.065,0.291,0.201 c0.221,1.211,0.532,1.952,0.924,2.201c0.518,0.329,1.362,0.448,2.041,0.544c0.812,0.114,1.398,0.197,1.536,0.589 c0.111,0.316-0.165,0.608-0.256,0.704c-1.835,1.944-3.338,2.805-4.479,2.558c-1.253-0.273-4.264,1.468-5.135,2.746 c-0.918,1.347-2.322,2.531-2.381,2.581C39.114,71.168,39.057,71.188,39,71.188z"/><path fill="#472b29" d="M74.021,70.99c-0.037,0-0.073-0.003-0.11-0.009c-0.382-0.06-0.643-0.419-0.582-0.801 c0.202-1.277,0.305-2.569,0.305-3.839c0-13.22-10.583-23.975-23.592-23.975c-13.008,0-23.591,10.755-23.591,23.975 c0,1.27,0.103,2.561,0.305,3.839c0.061,0.382-0.2,0.74-0.582,0.801c-0.378,0.06-0.74-0.2-0.801-0.582 c-0.214-1.35-0.322-2.715-0.322-4.058c0-13.992,11.211-25.375,24.992-25.375c13.781,0,24.992,11.383,24.992,25.375 c0,1.343-0.108,2.708-0.322,4.058C74.657,70.744,74.359,70.99,74.021,70.99z"/><path fill="#472b29" d="M49.5,38.5c-0.141,0-0.281-0.059-0.379-0.175c-1.747-2.038-0.798-3.46-0.037-4.603 c0.749-1.123,1.29-1.935,0.037-3.397c-0.18-0.21-0.156-0.525,0.054-0.705c0.209-0.179,0.526-0.156,0.705,0.054 c1.747,2.038,0.798,3.46,0.037,4.603c-0.749,1.123-1.29,1.935-0.037,3.397c0.18,0.21,0.156,0.525-0.054,0.705 C49.731,38.46,49.615,38.5,49.5,38.5z"/><path fill="#472b29" d="M41.5,39.5c-0.141,0-0.281-0.059-0.379-0.175c-1.747-2.038-0.798-3.46-0.037-4.603 c0.155-0.233,0.311-0.466,0.444-0.705c0.134-0.241,0.439-0.328,0.68-0.193c0.241,0.135,0.328,0.439,0.193,0.68 c-0.146,0.262-0.315,0.517-0.485,0.772c-0.749,1.123-1.29,1.935-0.037,3.397c0.18,0.21,0.156,0.525-0.054,0.705 C41.731,39.46,41.615,39.5,41.5,39.5z"/><path fill="#472b29" d="M42.322,33.011c-0.233,0-0.441-0.163-0.489-0.4c-0.082-0.401-0.315-0.821-0.712-1.285 c-0.18-0.21-0.156-0.525,0.054-0.705c0.211-0.18,0.525-0.156,0.705,0.054c0.512,0.596,0.817,1.164,0.933,1.736 c0.055,0.271-0.119,0.535-0.39,0.59C42.389,33.007,42.355,33.011,42.322,33.011z"/><path fill="#472b29" d="M33.5,43.5c-0.141,0-0.281-0.059-0.379-0.175c-1.747-2.038-0.798-3.46-0.037-4.603 c0.749-1.123,1.29-1.935,0.037-3.397c-0.18-0.21-0.156-0.525,0.054-0.705c0.21-0.179,0.526-0.156,0.705,0.054 c1.747,2.038,0.798,3.46,0.037,4.603c-0.749,1.123-1.29,1.935-0.037,3.397c0.18,0.21,0.156,0.525-0.054,0.705 C33.731,43.46,33.615,43.5,33.5,43.5z"/><path fill="#472b29" d="M65.5,43.5c-0.141,0-0.281-0.059-0.379-0.175c-1.747-2.038-0.798-3.46-0.037-4.603 c0.749-1.123,1.29-1.935,0.037-3.397c-0.18-0.21-0.156-0.525,0.054-0.705c0.209-0.179,0.526-0.156,0.705,0.054 c1.747,2.038,0.798,3.46,0.037,4.603c-0.749,1.123-1.29,1.935-0.037,3.397c0.18,0.21,0.156,0.525-0.054,0.705 C65.731,43.46,65.615,43.5,65.5,43.5z"/><path fill="#472b29" d="M57.5,39.5c-0.141,0-0.281-0.059-0.379-0.175c-0.672-0.784-0.995-1.531-0.986-2.285 c0.003-0.276,0.27-0.498,0.505-0.494c0.276,0.003,0.498,0.229,0.495,0.506c-0.005,0.5,0.238,1.031,0.745,1.623 c0.18,0.21,0.156,0.525-0.054,0.705C57.731,39.46,57.615,39.5,57.5,39.5z"/><g><path fill="#472b29" d="M57.184,35.986c-0.09,0-0.181-0.024-0.263-0.075c-0.235-0.145-0.307-0.453-0.162-0.688 c0.104-0.168,0.214-0.334,0.325-0.5c0.749-1.123,1.29-1.935,0.037-3.397c-0.18-0.21-0.156-0.525,0.054-0.705 c0.209-0.179,0.525-0.156,0.705,0.054c1.747,2.038,0.799,3.46,0.037,4.603c-0.104,0.157-0.209,0.313-0.307,0.471 C57.515,35.902,57.351,35.986,57.184,35.986z"/></g><g><path fill="#472b29" d="M36.082,26.747c-0.1,0-0.195-0.061-0.233-0.16c-0.05-0.129,0.014-0.274,0.143-0.323 c2.556-0.99,5.223-1.71,7.926-2.141c0.137-0.022,0.264,0.071,0.287,0.208c0.021,0.136-0.071,0.264-0.208,0.286 c-2.669,0.425-5.302,1.136-7.825,2.114C36.143,26.742,36.112,26.747,36.082,26.747z"/></g><g><path fill="#472b29" d="M31.125,29.084c-0.087,0-0.172-0.046-0.218-0.128c-0.068-0.12-0.025-0.273,0.095-0.34 c1.1-0.618,2.246-1.19,3.406-1.699c0.128-0.055,0.274,0.002,0.33,0.128c0.055,0.126-0.002,0.274-0.128,0.329 c-1.145,0.503-2.276,1.067-3.362,1.677C31.209,29.074,31.167,29.084,31.125,29.084z"/></g><g><path fill="#472b29" d="M26.333,35.698c-0.522,0-1.012-0.23-1.346-0.63c-0.299-0.359-0.44-0.814-0.398-1.279 c0.042-0.466,0.264-0.887,0.623-1.185c1.362-1.135,2.819-2.185,4.329-3.123c0.118-0.072,0.272-0.037,0.344,0.081 c0.073,0.117,0.037,0.271-0.081,0.344c-1.491,0.926-2.928,1.963-4.273,3.083c-0.257,0.213-0.415,0.514-0.445,0.846 c-0.031,0.333,0.07,0.657,0.284,0.914c0.423,0.509,1.249,0.587,1.76,0.16c6.404-5.332,14.527-8.268,22.874-8.268 c0.138,0,0.25,0.112,0.25,0.25s-0.112,0.25-0.25,0.25c-8.23,0-16.239,2.895-22.553,8.152C27.137,35.554,26.74,35.698,26.333,35.698 z"/></g><g><path fill="#472b29" d="M64.452,30.213c-0.034,0-0.068-0.007-0.102-0.022c-3.923-1.744-8.082-2.752-12.359-2.994 c-0.138-0.008-0.243-0.126-0.235-0.264c0.008-0.137,0.117-0.243,0.264-0.235c4.338,0.246,8.555,1.268,12.534,3.037 c0.126,0.056,0.183,0.204,0.127,0.33C64.639,30.157,64.547,30.213,64.452,30.213z"/></g><g><path fill="#472b29" d="M73.564,35.606c-0.405,0-0.795-0.14-1.112-0.401c-1.874-1.548-3.921-2.907-6.083-4.038 c-0.123-0.064-0.17-0.215-0.106-0.337c0.064-0.122,0.218-0.17,0.337-0.106c2.194,1.147,4.27,2.525,6.17,4.095 c0.258,0.213,0.584,0.312,0.915,0.281c0.333-0.032,0.633-0.191,0.845-0.448c0.213-0.258,0.313-0.582,0.281-0.915 c-0.032-0.332-0.191-0.632-0.448-0.845c-6.832-5.643-15.482-8.751-24.359-8.751c-1.433,0-2.883,0.082-4.309,0.244 c-0.135,0.015-0.261-0.083-0.277-0.22c-0.016-0.137,0.083-0.261,0.22-0.277c1.444-0.164,2.913-0.247,4.365-0.247 c8.993,0,17.756,3.149,24.677,8.866c0.36,0.298,0.583,0.718,0.627,1.183c0.044,0.465-0.095,0.92-0.393,1.28 c-0.298,0.361-0.718,0.584-1.184,0.628C73.677,35.603,73.621,35.606,73.564,35.606z"/></g><g><path fill="#472b29" d="M71.208,62.705c-0.12,0-0.226-0.087-0.246-0.209c-0.34-2.052-0.98-4.038-1.902-5.902 c-0.061-0.124-0.01-0.274,0.113-0.335c0.123-0.061,0.274-0.011,0.335,0.113c0.943,1.908,1.599,3.94,1.947,6.042 c0.022,0.136-0.069,0.265-0.206,0.288C71.236,62.704,71.222,62.705,71.208,62.705z"/></g><g><path fill="#472b29" d="M68.1,54.641c-0.082,0-0.163-0.041-0.21-0.115c-1.044-1.625-2.305-3.101-3.749-4.389 c-0.103-0.092-0.112-0.25-0.02-0.353c0.091-0.103,0.249-0.112,0.353-0.02c1.477,1.318,2.768,2.829,3.836,4.492 c0.075,0.116,0.041,0.271-0.075,0.345C68.193,54.628,68.146,54.641,68.1,54.641z"/></g><g><path fill="#472b29" d="M62.427,48.703c-0.05,0-0.101-0.015-0.145-0.046c-1.602-1.136-3.348-2.043-5.192-2.695 c-0.13-0.046-0.198-0.189-0.152-0.319c0.046-0.13,0.189-0.198,0.319-0.152c1.887,0.668,3.675,1.596,5.314,2.759 c0.113,0.08,0.139,0.236,0.06,0.349C62.582,48.666,62.505,48.703,62.427,48.703z"/></g></svg>