<svg xmlns="http://www.w3.org/2000/svg" viewBox="0 0 64 64"><path d="M 32 1 C 30.898438 1 30 1.898438 30 3 L 30 4.101563 C 26.601563 4.601563 24 7.5 24 11 L 24 18.597656 L 15.597656 27.5 C 12 31.398438 10 36.5 10 41.800781 L 10 45 C 10 46.300781 10.800781 47.402344 12 47.800781 L 12 48 C 12 55.699219 21.398438 62 33 62 C 44.601563 62 54 55.699219 54 48 L 54 47.800781 C 55.199219 47.402344 56 46.300781 56 45 L 56 41.902344 C 56 36.5 54 31.5 50.402344 27.597656 L 42 18.597656 L 42 11 C 42 7.5 39.398438 4.601563 36 4.101563 L 36 3 C 36 1.898438 35.101563 1 34 1 Z M 32 3 L 34 3 L 34 4 L 32 4 Z M 31 6 L 35 6 C 37.800781 6 40 8.199219 40 11 L 40 12.097656 L 26 13.902344 L 26 11.902344 L 36.199219 10.597656 C 36.699219 10.5 37.097656 10 37.097656 9.5 C 37.097656 9 36.5 8.601563 36 8.601563 L 26.199219 9.800781 C 26.699219 7.601563 28.601563 6 31 6 Z M 40 14.097656 L 40 18 L 26 18 L 26 15.902344 Z M 25.402344 20 L 40.5 20 L 48.800781 28.902344 C 52.101563 32.402344 53.902344 37 53.902344 41.902344 L 53.902344 45 L 54 45 C 54 45.601563 53.601563 46 53 46 L 13 46 C 12.398438 46 12 45.601563 12 45 L 12 41.902344 C 12 37.101563 13.800781 32.5 17.097656 28.902344 Z M 15 39 C 14.398438 39 14 39.398438 14 40 L 14 42 C 14 42.601563 14.398438 43 15 43 C 15.601563 43 16 42.601563 16 42 L 16 40 C 16 39.398438 15.601563 39 15 39 Z M 20 39 C 19.398438 39 19 39.398438 19 40 L 19 42 C 19 42.601563 19.398438 43 20 43 C 20.601563 43 21 42.601563 21 42 L 21 40 C 21 39.398438 20.601563 39 20 39 Z M 25 39 C 24.398438 39 24 39.398438 24 40 L 24 42 C 24 42.601563 24.398438 43 25 43 C 25.601563 43 26 42.601563 26 42 L 26 40 C 26 39.398438 25.601563 39 25 39 Z M 30 39 C 29.398438 39 29 39.398438 29 40 L 29 42 C 29 42.601563 29.398438 43 30 43 C 30.601563 43 31 42.601563 31 42 L 31 40 C 31 39.398438 30.601563 39 30 39 Z M 35 39 C 34.398438 39 34 39.398438 34 40 L 34 42 C 34 42.601563 34.398438 43 35 43 C 35.601563 43 36 42.601563 36 42 L 36 40 C 36 39.398438 35.601563 39 35 39 Z M 40 39 C 39.398438 39 39 39.398438 39 40 L 39 42 C 39 42.601563 39.398438 43 40 43 C 40.601563 43 41 42.601563 41 42 L 41 40 C 41 39.398438 40.601563 39 40 39 Z M 45 39 C 44.398438 39 44 39.398438 44 40 L 44 42 C 44 42.601563 44.398438 43 45 43 C 45.601563 43 46 42.601563 46 42 L 46 40 C 46 39.398438 45.601563 39 45 39 Z M 50 39 C 49.398438 39 49 39.398438 49 40 L 49 42 C 49 42.601563 49.398438 43 50 43 C 50.601563 43 51 42.601563 51 42 L 51 40 C 51 39.398438 50.601563 39 50 39 Z M 14 48 L 52 48 C 52 54.601563 43.5 60 33 60 C 22.5 60 14 54.601563 14 48 Z M 21.722656 51.550781 C 21.472656 51.601563 21.25 51.75 21.097656 52 C 20.800781 52.5 20.902344 53.101563 21.402344 53.402344 C 24.199219 55.300781 28.398438 56.402344 33 56.402344 C 34.101563 56.402344 35.097656 56.300781 36.097656 56.199219 C 36.597656 56.097656 37 55.597656 37 55.097656 C 37 54.597656 36.402344 54.199219 35.902344 54.199219 C 35 54.300781 34 54.402344 33 54.402344 C 28.898438 54.402344 25 53.398438 22.5 51.699219 C 22.25 51.550781 21.972656 51.5 21.722656 51.550781 Z M 43.785156 51.550781 C 43.65625 51.574219 43.527344 51.625 43.402344 51.699219 C 42.601563 52.199219 41.601563 52.699219 40.5 53.097656 C 40 53.300781 39.699219 53.902344 39.902344 54.402344 C 40.101563 54.800781 40.5 55.097656 40.902344 55.097656 C 41 55.097656 41.097656 55.101563 41.199219 55 C 42.398438 54.5 43.601563 54 44.5 53.402344 C 45 53.101563 45.101563 52.5 44.800781 52 C 44.574219 51.625 44.179688 51.476563 43.785156 51.550781 Z"/></svg>