<svg xmlns="http://www.w3.org/2000/svg" width="512" height="512" viewBox="0 0 512 512"><path fill="#FEBF10" d="M355.3,193.4c-9.9-13.8-27.4-21.5-44.2-22.1c-18.8-0.8-36.4,5.5-49.3,19.3c-13.2,14.2-29.7,36.1-18.9,54.6c8.2,7,16.3,14.6,26,19.5c9.7,4.9,20.5,6.6,31.3,6.4c19.9-0.3,41.6-6.5,53.6-23.5C365,232.1,366.7,209.1,355.3,193.4z M306,220.3c-5.4,13.2-13.8,25.2-23,36.1c-1.7,2-4.4,2.1-6.6,1.2c-4.7-1.9-8.9-6-12.7-9.3c-2.4-2-4.7-4-7.1-6c-0.8-0.6-1.5-1.3-2.4-1.9c0,0,0,0-0.1-0.1c-0.5-0.2-0.6-0.3-0.3-0.3c-4.5-2.4-4.3-10.2,1.4-10.3c0,0,0,0,0,0c-1.3-15.9,12.6-32.1,24.3-41.2c2.7-2.1,7.4-0.4,8.2,2.9c2.5,9,7.9,16.6,15.8,21.6C306.3,214.6,307.2,217.4,306,220.3z"/><path fill="#D6E5E5" d="M280.1 202.4c-7.4 7.1-14.7 17.3-14 26.7.2 2.3-.8 3.9-2.3 4.8 1.6 1.4 3.1 2.9 4.6 4.1 2.8 2.4 5.8 5.4 9.1 7.7 6.5-8 12.3-16.6 16.7-26C288.2 215 283.4 209.2 280.1 202.4zM218.6 379.1c-5-16.3-12.8-31.7-22.3-45.8-3.6 12.5-10.2 25.3-25 19-6.6-2.8-10.8-2.7-13.8 4.1-2.9 6.6-4.4 13.9-8 20.2-4.2 7.5-10.2 12.9-19.2 13.4-4 .2-7.9-.3-11.8-.7-1.8-.2-6.1-1.1-7.5.5-4.6 5.4-1.5 16.9-1.8 23.3-.3 6.5-1.7 12.8-6.4 17.2.6 1.2.8 2.6.4 3.8 15.9 12.5 36 21.1 56 24 19.8 2.8 41.6-.7 53.8-18.2C225.5 422.3 224.6 398.9 218.6 379.1zM156.9 243.1c-7.8-16.4-24.6-26.9-42.9-23.9-22.7 3.8-36.9 23.6-44.9 43.5-4.4 10.8-8.2 21.9-12.2 32.9-3.2 8.9-9.4 20.8-6.1 30.5.6 1.7.4 3.2-.3 4.3 1 .6 1.7 1.5 2.2 3 1.1 3.6 2.2 8.5 4.9 11.2.7.7 1.7 1.3 1.8 1.3.7.1.3.3 1.6-.2 4.9-1.9 9.4-7.9 12.9-12.1 7.2-9 16.4-26.1 29.9-25.9 6.5.1 10.9 4.5 15.8 8.2 4.3 3.2 9 2 11.6-3.4 3.2-6.5 8.1-18.5 17.3-16.6 5 1 8.5 4.4 11.8 8.1C165.6 284 166 262.2 156.9 243.1z"/><path fill="#D6E5E5" d="M446.5,215.2c-5.6-25.2-11.1-55.7-32.6-72.7c-19.3-15.3-44-15.2-67.1-18.9c-11.6-1.9-21.8-5-32-10.9c-9.3-5.4-18.1-11.7-27.3-17.4C269.1,84,248,76.5,227,86.5c-19.5,9.3-29.3,30.7-45,44.6c-9.1,8.1-19.5,13.1-31,17c-11.7,4-24.3,6.8-35,13c-10.7,6.2-18.6,14.8-23.1,26.4c-3.3,8.5-6.9,20.7-2.2,29.4c9.2-6,19.8-9.6,30.9-9.2c20.9,0.9,38.3,13.9,46.3,33.1c9.9,23.6,8.7,50,0.5,73.8c0.5,4.1-3.5,8.7-7.8,5.9c-0.4-0.3-0.8-0.5-1.1-0.8c0,0,0,0,0,0c0,0-0.1-0.1-0.1-0.1c-1-0.7-1.8-1.6-2.5-2.6l-0.3-0.2c-1.4-0.8-2.2-2-2.5-3.2c-1-1.2-2-2.3-3.1-3.4c-0.9-0.9-2.5-2.9-3.9-3.3c-0.6,0.7-1.2,1.5-1.8,2.3c-4.5,7.5-7.3,16.7-16.9,19.1c-3.9,1-7.4,0.5-10.6-0.8c1.6,3,2.7,6.2,3.1,9.6c0.8,7.2-2.3,12.4-3.8,19.1c-1.6,7,5,8.7,10.2,10.5c4.6,1.6,8.3,3.6,11.1,7c0.6-0.9,1.2-1.9,1.8-3c5.2-10.8,7-30.1,22.3-31.1c4.3-0.3,8.1,0.6,12.1,2.2c2.7,1.2,5.1,1.9,7.2-1c4.2-5.9,5-14.7,6.6-21.6c1.1-4.9,7.2-5.5,10-1.8c2.5,3.3,4.9,6.6,7.2,10.1c12.7,19,23.2,40.4,26.9,63.1c2.3,13.8,1.7,29.1-3.3,42.5c0.2,0.1,0.3,0.3,0.5,0.4c8.2,7.9,17.5,6.9,27.4,2.8c10-4.1,19.4-9.7,30.2-11.8c12.5-2.4,25.1-3.1,37.7-4.5c11.2-1.3,23.2-2.9,33.4-8.2c11.9-6.3,19.7-15.9,25.2-28.1c5.7-12.6,10.5-25.8,18.2-37.3c8.1-12.1,17.4-22.5,27-33.4c8-9.1,15.7-18.5,20-29.9C457,260.8,451.4,237.4,446.5,215.2z M357.2,260.8c-15.7,15.5-38.5,22-60.3,21.2c-11.9-0.4-23.7-2.4-34.2-8.3c-6.5-3.7-12.4-8.2-18.2-12.9c-1.4,0.3-3-0.1-4.3-1.5c-2.1-2.1-3.9-4.3-5.4-6.7c-0.4-0.3-0.8-0.7-1.2-1c-1.6-1.3-2.1-2.9-1.9-4.5c-4.8-10.5-4.4-22.4,0.8-34c6.2-14,16.9-27.7,28.8-37.3c20.7-16.9,50.6-20,75.1-10c16.1,6.5,30.5,19.5,35.3,36.7C377.4,222.4,372.1,246.1,357.2,260.8z"/><path fill="#010101" d="M462.5,238.6c-1.8-12.8-5.1-25.3-8-37.9c-3-13.2-6.6-26.4-12.5-38.7c-5.7-11.9-13.5-22.7-24.3-30.5c-9.6-6.9-20.7-11-32.2-13.5c-11.5-2.5-23.2-3.3-34.8-5c-5.7-0.9-11.4-2-17-3.5c-5.2-1.4-10.2-4.6-14.8-7.3c-18.4-10.7-35-25-56.2-30c-22.2-5.3-44,3-59.7,18.8c-7.6,7.6-13.9,16.4-21,24.5c-7.8,8.8-16.3,15.2-27.2,19.6c-23.6,9.5-49.5,13.1-65.2,35.3c-9.6,13.5-17.5,38.1-7.6,53.3c-6,5.4-11.2,11.8-15.1,18.5c-6.7,11.4-10.7,24.2-15.3,36.5c-4.2,11.1-8.9,22.5-11.5,34.1c-1.2,5.5-1.4,11.4,0.5,16.8c0.5,1.4,1.3,2.3,2.3,2.9c-0.7,1.2-1,2.7-0.5,4.4c2.1,7,5.1,15.7,12.3,19c6.1,2.8,12.4-0.1,17.2-4.1c5.6-4.7,10.1-10.5,14.6-16.3c4-5.1,8-11.2,13.2-15.1c0,0,0.1-0.1,0.1-0.1c0.2,0.6,0.5,1.3,1.1,1.9c4.9,5.8,9.3,11.7,9.3,19.5c0,6.2-4.4,11.6-4.2,18.1c0.2,6.4,5.5,12,10.9,14.7c3.2,1.6,8.8,2.1,12.1,4.6c-1.4,0.1-2.9,0.1-4.5,0c-7-0.6-15-2.4-20.7,2.9c-6,5.5-5.8,14.9-5.5,22.3c0.2,6,2,15.5-4.2,19.1c-3.2,1.9-3.1,5.3-1.3,7.6c-0.2,1.8,0.5,3.8,1.8,5.1c-1,1.9-0.9,4.3,1.4,6.1c31.3,24.8,87.6,43,120.3,11.2c3.2-3.1,5.9-6.5,8.1-10.2c7.8,6.5,16.9,8.3,27,6.4c10.4-2,19.7-8,29.4-11.8c11.2-4.4,24-4.8,35.8-5.9c12.2-1.1,24.4-2.5,36.1-6.1c11.6-3.6,21.9-10.2,29.8-19.4c8.8-10.2,13.2-23.5,18.6-35.6c5.9-13.2,13.5-25.4,23-36.4c9.1-10.5,18.9-20.3,26.8-31.9C463.8,283.5,465.7,260.8,462.5,238.6z M103.7,307.8c-13.4-0.3-22.6,16.9-29.9,25.9c-3.5,4.3-7.9,10.2-12.9,12.1c-1.3,0.5-0.9,0.4-1.6,0.2c-0.1,0-1.1-0.7-1.8-1.3c-2.8-2.7-3.9-7.7-4.9-11.2c-0.4-1.4-1.2-2.4-2.2-3c0.7-1.2,0.9-2.6,0.3-4.3c-3.3-9.6,2.9-21.5,6.1-30.5c4-11,7.8-22,12.2-32.9c8-19.9,22.2-39.8,44.9-43.5c18.3-3,35.1,7.5,42.9,23.9c9,19.1,8.6,40.9,3.2,60.9c-3.3-3.7-6.8-7.1-11.8-8.1c-9.3-1.8-14.1,10.1-17.3,16.6c-2.7,5.3-7.3,6.6-11.6,3.4C114.6,312.3,110.2,307.9,103.7,307.8z M213.1,440c-12.2,17.4-34,21-53.8,18.2c-20-2.9-40.1-11.5-56-24c0.3-1.2,0.1-2.6-0.4-3.8c4.7-4.3,6.1-10.6,6.4-17.2c0.3-6.5-2.8-18,1.8-23.3c1.4-1.6,5.7-0.7,7.5-0.5c3.9,0.4,7.9,0.9,11.8,0.7c8.9-0.5,15-5.9,19.2-13.4c3.5-6.4,5.1-13.6,8-20.2c3-6.8,7.2-6.9,13.8-4.1c14.8,6.3,21.4-6.5,25-19c9.6,14.1,17.4,29.4,22.3,45.8C224.6,398.9,225.5,422.3,213.1,440z M448.7,282.9c-4.3,11.4-12,20.9-20,29.9c-9.6,10.9-18.9,21.3-27,33.4c-7.7,11.5-12.5,24.7-18.2,37.3c-5.5,12.2-13.2,21.8-25.2,28.1c-10.1,5.4-22.1,7-33.4,8.2c-12.6,1.4-25.2,2.1-37.7,4.5c-10.7,2-20.2,7.7-30.2,11.8c-9.9,4.1-19.2,5.1-27.4-2.8c-0.2-0.2-0.3-0.3-0.5-0.4c5-13.4,5.6-28.6,3.3-42.5c-3.8-22.7-14.2-44.1-26.9-63.1c-2.3-3.4-4.7-6.8-7.2-10.1c-2.8-3.7-8.9-3.1-10,1.8c-1.5,6.9-2.3,15.7-6.6,21.6c-2.1,2.9-4.5,2.2-7.2,1c-3.9-1.7-7.8-2.5-12.1-2.2c-15.3,1-17,20.2-22.3,31.1c-0.5,1.1-1.1,2.1-1.8,3c-2.8-3.4-6.5-5.4-11.1-7c-5.2-1.8-11.8-3.5-10.2-10.5c1.5-6.7,4.6-11.9,3.8-19.1c-0.4-3.3-1.5-6.5-3.1-9.6c3.2,1.4,6.7,1.8,10.6,0.8c9.7-2.4,12.4-11.6,16.9-19.1c0.5-0.8,1.1-1.6,1.8-2.3c1.4,0.5,3,2.4,3.9,3.3c1.1,1.1,2.1,2.2,3.1,3.4c0.4,1.2,1.2,2.4,2.5,3.2l0.3,0.2c0.7,1,1.5,1.8,2.5,2.6c0,0,0.1,0.1,0.1,0.1c0,0,0,0,0,0c0.4,0.3,0.8,0.5,1.1,0.8c4.2,2.8,8.3-1.7,7.8-5.9c8.2-23.8,9.4-50.1-0.5-73.8c-8-19.2-25.4-32.2-46.3-33.1c-11.2-0.5-21.7,3.2-30.9,9.2c-4.7-8.7-1.1-20.8,2.2-29.4c4.5-11.6,12.4-20.2,23.1-26.4c10.8-6.2,23.3-9.1,35-13c11.5-3.9,21.9-8.9,31-17c15.7-13.9,25.5-35.3,45-44.6c20.9-10,42.1-2.5,60.5,8.8c9.2,5.6,18,11.9,27.3,17.4c10.2,5.9,20.4,9,32,10.9c23.2,3.7,47.9,3.6,67.1,18.9c21.5,17,27,47.5,32.6,72.7C451.4,237.4,457,260.8,448.7,282.9z"/><path fill="#010101" d="M371.8,202.5c-4.8-17.2-19.1-30.1-35.3-36.7c-24.5-9.9-54.4-6.8-75.1,10c-11.9,9.7-22.6,23.3-28.8,37.3c-5.2,11.6-5.5,23.5-0.8,34c-0.2,1.5,0.3,3.2,1.9,4.5c0.4,0.3,0.8,0.7,1.2,1c1.5,2.3,3.3,4.5,5.4,6.7c1.4,1.4,2.9,1.8,4.3,1.5c5.7,4.7,11.6,9.2,18.2,12.9c10.5,5.9,22.3,7.8,34.2,8.3c21.7,0.8,44.6-5.7,60.3-21.2C372.1,246.1,377.4,222.4,371.8,202.5z M354,247.6c-12.1,17-33.8,23.2-53.6,23.5c-10.9,0.2-21.6-1.5-31.3-6.4c-9.7-4.9-17.8-12.5-26-19.5c-10.8-18.5,5.7-40.4,18.9-54.6c12.9-13.8,30.5-20.1,49.3-19.3c16.8,0.7,34.2,8.3,44.2,22.1C366.7,209.1,365,232.1,354,247.6z"/><path fill="#010101" d="M303.6,212.9c-8-5-13.4-12.6-15.8-21.6c-0.9-3.3-5.5-5-8.2-2.9c-11.7,9.2-25.6,25.3-24.3,41.2c0,0,0,0,0,0c-5.7,0.1-5.9,8-1.4,10.3c-0.2,0-0.1,0.1,0.3,0.3c0,0,0.1,0,0.1,0.1c0.8,0.6,1.6,1.2,2.4,1.9c2.4,2,4.7,4,7.1,6c3.8,3.3,8,7.3,12.7,9.3c2.3,0.9,4.9,0.8,6.6-1.2c9.2-10.9,17.6-22.8,23-36.1C307.2,217.4,306.3,214.6,303.6,212.9z M277.5,245.7c-3.3-2.2-6.2-5.3-9.1-7.7c-1.4-1.2-2.9-2.7-4.6-4.1c1.5-0.9,2.5-2.5,2.3-4.8c-0.8-9.4,6.6-19.6,14-26.7c3.2,6.8,8.1,12.6,14.1,17.3C289.9,229,284,237.6,277.5,245.7z"/></svg>