<svg xmlns="http://www.w3.org/2000/svg" viewBox="0 0 100 100"><path d="M 31 17 C 23.27961 17 17 23.27961 17 31 L 17 69 C 17 76.72039 23.27961 83 31 83 L 69 83 C 76.72039 83 83 76.72039 83 69 L 83 31 C 83 23.27961 76.72039 17 69 17 L 31 17 z M 31 19 L 69 19 C 75.63961 19 81 24.36039 81 31 L 81 69 C 81 75.63961 75.63961 81 69 81 L 31 81 C 24.36039 81 19 75.63961 19 69 L 19 31 C 19 24.36039 24.36039 19 31 19 z M 34.099609 23 C 27.975367 23 23 27.975367 23 34.099609 L 23 65.900391 C 23 72.024633 27.975367 77 34.099609 77 L 65.900391 77 C 72.024633 77 77 72.024633 77 65.900391 L 77 51.5 A 0.50005 0.50005 0 1 0 76 51.5 L 76 65.900391 C 76 71.484148 71.484148 76 65.900391 76 L 34.099609 76 C 28.515852 76 24 71.484148 24 65.900391 L 24 34.099609 C 24 28.515852 28.515852 24 34.099609 24 L 60.5 24 A 0.50005 0.50005 0 1 0 60.5 23 L 34.099609 23 z M 41.609375 36 C 41.256375 36 40.942016 36.189359 40.666016 36.568359 C 40.666016 36.568359 37.236578 41.311 37.142578 41.5 C 37.047578 41.69 37 41.893375 37 42.109375 C 37 42.412375 37.094203 42.671719 37.283203 42.886719 C 37.472203 43.101719 37.704422 43.208984 37.982422 43.208984 C 38.259422 43.208984 38.497219 43.056906 38.699219 42.753906 L 40.212891 40.287109 L 40.212891 62.785156 C 40.212891 63.089156 40.330312 63.330813 40.570312 63.507812 C 40.809313 63.684812 41.105984 63.773438 41.458984 63.773438 C 41.785984 63.773437 42.076125 63.684812 42.328125 63.507812 C 42.580125 63.331813 42.705078 63.089156 42.705078 62.785156 L 42.705078 36.949219 C 42.705078 36.671219 42.592234 36.442625 42.365234 36.265625 C 42.138234 36.088625 41.886375 36 41.609375 36 z M 55 36 C 50.179 36 47.769531 38.19775 47.769531 42.59375 C 47.769531 45.64175 48.908406 47.635219 51.191406 48.574219 C 48.396406 49.691219 47 52.066266 47 55.697266 L 47 56.154297 C 47 58.845297 47.730406 60.826703 49.191406 62.095703 C 50.653406 63.365703 52.589 64 55 64 C 57.41 64 59.346594 63.365703 60.808594 62.095703 C 62.269594 60.825703 63 58.843344 63 56.152344 L 63 55.695312 C 63 52.039313 61.615703 49.666219 58.845703 48.574219 C 61.102703 47.635219 62.230469 45.64175 62.230469 42.59375 C 62.230469 38.19775 59.82 36 55 36 z M 55 38.164062 C 58.179 38.164062 59.769531 39.70325 59.769531 42.78125 C 59.769531 45.90925 58.179 47.472656 55 47.472656 C 51.846 47.472656 50.269531 45.90925 50.269531 42.78125 C 50.269531 39.70425 51.846 38.165062 55 38.164062 z M 76.492188 38.992188 A 0.50005 0.50005 0 0 0 76 39.5 L 76 41.5 A 0.50005 0.50005 0 1 0 77 41.5 L 77 39.5 A 0.50005 0.50005 0 0 0 76.492188 38.992188 z M 76.492188 43.992188 A 0.50005 0.50005 0 0 0 76 44.5 L 76 48.5 A 0.50005 0.50005 0 1 0 77 48.5 L 77 44.5 A 0.50005 0.50005 0 0 0 76.492188 43.992188 z M 55 49.791016 C 58.64 49.791016 60.460938 51.684703 60.460938 55.470703 L 60.460938 56.003906 C 60.460938 57.934906 59.992641 59.389187 59.056641 60.367188 C 58.120641 61.345188 56.780109 61.833984 55.037109 61.833984 C 53.293109 61.833984 51.941469 61.345188 50.980469 60.367188 C 50.019469 59.389187 49.537109 57.934906 49.537109 56.003906 L 49.537109 55.470703 C 49.537109 51.684703 51.358 49.791016 55 49.791016 z"/></svg>