<svg xmlns="http://www.w3.org/2000/svg" viewBox="0 0 128 128"><path fill="#fff" d="M64 14A50 50 0 1 0 64 114A50 50 0 1 0 64 14Z"/><path fill="#444b54" d="M64,117c-29.2,0-53-23.8-53-53s23.8-53,53-53s53,23.8,53,53S93.2,117,64,117z M64,17c-25.9,0-47,21.1-47,47s21.1,47,47,47s47-21.1,47-47S89.9,17,64,17z"/><path fill="#444b54" d="M49 68c-.3 0-.5 0-.8-.1s-.5-.1-.8-.2c-.2-.1-.5-.2-.7-.4-.2-.2-.4-.3-.6-.5-.2-.2-.4-.4-.5-.6-.1-.2-.3-.5-.4-.7-.1-.2-.2-.5-.2-.8 0-.3-.1-.5-.1-.8 0-1 .4-2.1 1.2-2.8C46.9 60.4 48 60 49 60s2.1.4 2.8 1.2C52.6 61.9 53 63 53 64s-.4 2.1-1.2 2.8c-.2.2-.4.3-.6.5-.2.1-.5.3-.7.4-.2.1-.5.2-.8.2C49.5 68 49.3 68 49 68zM79 68c-.3 0-.5 0-.8-.1s-.5-.1-.8-.2c-.2-.1-.5-.2-.7-.4-.2-.2-.4-.3-.6-.5-.2-.2-.4-.4-.5-.6-.1-.2-.3-.5-.4-.7-.1-.2-.2-.5-.2-.8 0-.3-.1-.5-.1-.8 0-1 .4-2.1 1.2-2.8.9-.9 2.3-1.4 3.6-1.1.3 0 .5.1.8.2.2.1.5.2.7.4.2.1.4.3.6.5C82.6 61.9 83 63 83 64c0 .3 0 .5-.1.8 0 .3-.1.5-.2.8-.1.2-.2.5-.4.7-.1.2-.3.4-.5.6-.2.2-.4.3-.6.5-.2.1-.5.3-.7.4-.2.1-.5.2-.8.2C79.5 68 79.3 68 79 68zM64 68c-.3 0-.5 0-.8-.1s-.5-.1-.8-.2c-.2-.1-.5-.2-.7-.4-.2-.2-.4-.3-.6-.5-.2-.2-.4-.4-.5-.6-.1-.2-.3-.5-.4-.7-.1-.2-.2-.5-.2-.8 0-.3-.1-.5-.1-.8 0-1 .4-2.1 1.2-2.8C61.9 60.4 63 60 64 60s2.1.4 2.8 1.2C67.6 61.9 68 63 68 64s-.4 2.1-1.2 2.8c-.2.2-.4.3-.6.5-.2.1-.5.3-.7.4-.2.1-.5.2-.8.2C64.5 68 64.3 68 64 68z"/></svg>