<svg xmlns="http://www.w3.org/2000/svg" viewBox="0 0 48 48"><path fill="#ffba57" d="M9.009,3.994c0,0-0.332,9.299,3,17c2.315,5.352,0.976,9.024,3,11 c1.837,1.793,3.948,0.364,8.929,1.451c9.636,2.103,16.071-2.451,20.071-2.451v-6c-13.957,0.674-9.114-4.364-21-4v-2 c0,0,2.201-6.533,0-15H9.009z"/><polygon fill="#d84315" points="7,44 13,39 11,39 13,35 7,40 9,40"/><polygon fill="#d84315" points="3,35 7,34 7,36 12,32 8,33 8,31"/><polygon fill="#d84315" points="17,35 18,39 16,39 20,44 19,40 21,40"/><path fill="#ffa726" d="M44.009,30.994c0,0-0.006-0.995-0.009-0.994c-14,4-20.382,0.785-23,0c-10-3-9-26-9-26H9.009 c-0.002,0.05-0.188,5.726,1.316,11.87c0.564,1.871,1.075,3.498,1.42,4.464c0.088,0.22,0.169,0.443,0.263,0.66 c2.315,5.352,0.976,9.024,3,11c1.837,1.793,3.948,0.364,8.929,1.451c0.598,0.131,1.184,0.235,1.758,0.317 c0.009,0.001,0.017,0.002,0.026,0.004C34.375,34.992,40.261,30.994,44.009,30.994z"/><path fill="#ffa726" d="M23.009,3.994c0,0,0.472,11.285-2.009,15.006c-2,3-2,4-2,4c2-2,4.009-2.006,4.009-2.006v-2 C23.009,18.994,25.21,12.461,23.009,3.994z"/><path fill="#ffa726" d="M44.009,24.994L44.009,24.994c-13.957,0.674-9.114-4.364-21-4v-1.401L19,23c2-1,6-2,13,1 C36.596,25.97,41.04,25.157,44.009,24.994z"/><path fill="#ffa726" d="M16,26c0,0,2,4,9,1c0,0-4,4-8,3L16,26z"/></svg>