<svg xmlns="http://www.w3.org/2000/svg" width="512" height="512" viewBox="0 0 512 512"><path fill="#F6851F" d="M441.6,153.7c-15.2-21.4-31.5-41.8-49-61.3c-8.5-9.4-15.8-20.3-24.7-29.4c-3.5-3.5-8.9-8.3-11-13.5c-1.4,1.2-2.8,2.4-4.2,3.7c-3.7,3.4-7.3,6.8-10.9,10.3c-9.2,9-18.7,17.5-27.9,26.5c-12.1,11.8-22.9,24.9-35.4,36.3c-10,9-20.3,17.6-30.7,26.2h4.2c3.1,0,6.1,0.1,9.2,0c5.2-0.2,10.3-0.7,15.4-1c8.3-0.5,18-1.5,26.1,1.3c4.5-1.5,9.8,4.3,5.9,8.9c-8,9.4-11.7,21.7-18,32.2c-3.1,5.1-6,11.4-10,15.8c-0.7,0.8-1.6,1.7-2.4,2.7c0,1.1-0.5,2.2-1.6,3.3c-1.5,1.4-3,2.4-4.8,2.4c-0.4,1.4-1.5,2.7-3.5,3.1c-7.2,1.7-15.2-6.2-20.3-10.4c-7.4-6.2-14.6-12.5-19.7-20.8c-6.7-10.9-11.3-23.1-17.5-34.3c-4.5-8.1-11-14.2-16.7-21.2c-1,1.2-1.9,2.4-2.8,3.6c-7.2,10.5-11.8,22.6-17.5,33.9c-6.6,13.2-14.2,25.9-21.7,38.6c-15.6,26.5-31.6,52.7-45.1,80.4c-14,28.6-26.1,58.1-40.6,86.5c-3.3,6.5-7.2,12.6-10.6,19c-2.1,4.1-4.3,8.3-5.9,12.6c-0.5,1.4-1,2.8-1.3,4.2c0,0.1,0,0.2,0,0.3c10-0.5,20,0.4,30,1.4c12.9,1.3,25.7,1.6,38.6,1.9c11.1,0.2,22.3-0.4,33.4-0.2c4.2,0.1,8.6,0.2,12.8-0.6c3.3-0.6,3.7-4,4.4-7.2c4.6-22.6,14.2-43.7,22.9-65c4.6-11.2,8.9-22.4,14.9-33c5.8-10.3,12.4-20.2,19.9-29.4c1.9-2.3,5.6-2.4,7.8-0.5c24.6,22.1,39.1,52.7,61.6,76.5c9.3-13.8,18.1-28.3,23.8-43.8c6.4-17.5,13.1-34.9,21.3-51.6c8-16.3,15.7-32.7,23.2-49.3c6.7-14.7,13.7-29.3,22.4-42.9c0.6-1.7,1.5-3,2.8-4.3c0.5-0.5,1.1-0.9,1.7-1.2c0.3-1.6,1.4-2.9,3.6-3.4c10-2.1,20.2-3.3,30.4-3.3c5.2,0,10.4-1,15.6-1c0.5,0,1,0,1.6,0C441.1,155.6,441.2,154.7,441.6,153.7z"/><path fill="#010101" d="M453.1,150.9c-14.6-20.8-30.1-41-46.9-60.1c-8.2-9.3-16.5-18.5-24.3-28.2c-2.8-3.5-5.7-6.8-8.8-10c-1.3-1.3-2.5-2.7-3.7-4.2c-0.7-0.8-1.3-1.7-1.9-2.6c-0.3-0.4-0.4-0.7-0.5-0.8c0-2.5-1.5-4.2-3.4-5c-0.5-1.6-1.8-3-4-3.5c-3.3-0.7-6.1,1.6-8.5,3.5c-4,3.2-7.7,6.8-11.5,10.3c-8.6,8.2-17.2,16.4-25.8,24.6c-13.4,12.6-25.2,26.5-38.4,39.2c-13,12.5-27.2,23.6-41,35.3c-2.3,2-2.5,4.8-1.5,7c-0.7,2.3,1,5,3,5.9c5.2,2.5,13.1,1.1,18.8,1.1c5.3,0,10.6-0.2,15.9-0.5c7.2-0.5,16.5-2.3,24.3-0.9c-4.7,7.7-8.1,16.3-12.5,24.2c-3,5.3-6.1,11.9-10.2,16.4c-1.9,2-4.4,4.9-5.4,7.5c0,0.1-0.1,0.2-0.1,0.2c-0.3-0.1-0.8-0.3-1.5-0.7c-1.5-0.8-2.8-1.8-4.2-2.8c-3-2.2-5.9-4.5-8.6-7c-7.2-6.5-13.1-12.6-17.8-21.2c-5.7-10.5-10.6-21.6-16.2-32.2c-4.8-9-13.5-15.3-19.3-23.6c-2.2-3.1-6.1-3-8.7-0.6c-9,8.5-14.6,19.9-19.8,31c-5.9,12.4-12.2,24.5-19,36.4c-15.2,26.7-31.5,52.8-46,79.9c-14.8,27.8-26.8,57-40.5,85.4c-4.4,9.2-8.8,18.2-13.8,27.1c-4.4,7.7-8.8,15.5-11.8,23.8c-1.1,3-2,6-1.9,9.1c-5.3,2.3-4.1,11.5,2.4,10.5c12.8-1.9,25.6-0.8,38.4,0.5c13.2,1.3,26.4,1.6,39.7,1.9c11.6,0.2,23.1-0.4,34.7-0.2c8.5,0.1,17.5,0.2,22.7-7.5c2.2-3.3,2.9-7.9,3.6-11.7c0.9-4.8,2.1-9.2,3.6-13.9c4.2-13.1,9.6-25.9,14.9-38.6c4.9-11.9,9.4-24.1,15.3-35.6c5-9.6,10.8-18.7,17.3-27.3c23.6,23.1,38,53.9,61.7,77c2,1.9,6.1,1.9,7.8-0.5c10.4-15.2,20.3-30.8,27.4-47.8c7.5-17.7,13.6-35.9,21.9-53.3c7.8-16.5,15.8-32.8,23.3-49.4c7.4-16.4,15.2-32.7,25.2-47.7c0.1-0.1,0.1-0.2,0.2-0.3c10.9-2.3,21.9-2.5,32.9-2.7c4.2-0.1,8.3-0.9,12.4-1c2.9-0.1,6.2-0.1,8.3-2.4c1.8-2,1.6-4.5,0.4-6.6C454,156.7,454.9,153.4,453.1,150.9z M441.3,156.5c-0.5,0-1,0-1.6,0c-5.1,0-10.4,1-15.6,1c-10.2,0-20.4,1.2-30.4,3.3c-2.2,0.5-3.3,1.8-3.6,3.4c-0.6,0.3-1.2,0.6-1.7,1.2c-1.3,1.4-2.2,2.7-2.8,4.3c-8.7,13.6-15.8,28.2-22.4,42.9c-7.5,16.6-15.2,33-23.2,49.3c-8.2,16.7-14.9,34.2-21.3,51.6c-5.8,15.6-14.6,30.1-23.8,43.8c-22.5-23.9-37-54.4-61.6-76.5c-2.2-1.9-5.9-1.8-7.8,0.5c-7.4,9.2-14.1,19.1-19.9,29.4c-6,10.6-10.3,21.8-14.9,33c-8.7,21.3-18.3,42.4-22.9,65c-0.6,3.2-1.1,6.6-4.4,7.2c-4.2,0.8-8.6,0.7-12.8,0.6c-11.1-0.2-22.2,0.4-33.4,0.2c-13-0.2-25.7-0.6-38.6-1.9c-10-1-20-1.8-30-1.4c0-0.1,0-0.2,0-0.3c0.3-1.5,0.8-2.9,1.3-4.2c1.6-4.3,3.8-8.5,5.9-12.6c3.4-6.4,7.3-12.6,10.6-19c14.5-28.4,26.6-57.9,40.6-86.5c13.5-27.6,29.6-53.9,45.1-80.4c7.5-12.7,15.1-25.4,21.7-38.6c5.7-11.3,10.3-23.4,17.5-33.9c0.9-1.3,1.8-2.5,2.8-3.6c5.8,6.9,12.3,13.1,16.7,21.2c6.2,11.2,10.8,23.4,17.5,34.3c5.1,8.3,12.3,14.7,19.7,20.8c5,4.2,13.1,12.1,20.3,10.4c2-0.5,3.1-1.7,3.5-3.1c1.8-0.1,3.3-1,4.8-2.4c1.1-1,1.6-2.2,1.6-3.3c0.8-1,1.6-1.9,2.4-2.7c4-4.4,6.9-10.7,10-15.8c6.3-10.5,10-22.8,18-32.2c3.9-4.6-1.4-10.4-5.9-8.9c-8.2-2.8-17.8-1.8-26.1-1.3c-5.1,0.3-10.3,0.8-15.4,1c-3.1,0.1-6.1,0-9.2,0h-4.2c10.3-8.6,20.7-17.2,30.7-26.2c12.5-11.4,23.3-24.4,35.4-36.3c9.2-9,18.8-17.5,27.9-26.5c3.6-3.5,7.2-7,10.9-10.3c1.4-1.3,2.8-2.5,4.2-3.7c2.1,5.3,7.5,10,11,13.5c8.9,9,16.2,19.9,24.7,29.4c17.6,19.5,33.8,39.9,49,61.3C441.2,154.7,441.1,155.6,441.3,156.5z"/></svg>