<svg xmlns="http://www.w3.org/2000/svg" viewBox="0 0 26 26"><path d="M 3 2 C 1.355469 2 0 3.355469 0 5 L 0 21 C 0 22.644531 1.355469 24 3 24 L 23 24 C 24.644531 24 26 22.644531 26 21 L 26 5 C 26 3.355469 24.644531 2 23 2 Z M 3 6 L 12 6 L 12 11 L 3 11 Z M 4 7 L 4 10 L 5 10 L 5 7 Z M 8 7 L 8 10 L 9 10 L 9 7 Z M 16.5 7 C 17.300781 7 18 7.699219 18 8.5 C 18 9.300781 17.300781 10 16.5 10 C 15.699219 10 15 9.300781 15 8.5 C 15 7.699219 15.699219 7 16.5 7 Z M 21.5 7 C 22.300781 7 23 7.699219 23 8.5 C 23 9.300781 22.300781 10 21.5 10 C 20.699219 10 20 9.300781 20 8.5 C 20 7.699219 20.699219 7 21.5 7 Z M 10 8 L 10 10 L 11 10 L 11 8 Z M 6 9 L 6 10 L 7 10 L 7 9 Z M 2 14 L 5 14 L 5 20 L 7 20 L 7 14 L 8 14 L 8 20 L 10 20 L 10 14 L 11 14 L 11 20 L 13 20 L 13 14 L 16 14 L 16 20 L 18 20 L 18 14 L 19 14 L 19 20 L 21 20 L 21 14 L 24 14 L 24 21 C 24 21.554688 23.554688 22 23 22 L 3 22 C 2.445313 22 2 21.554688 2 21 Z"/></svg>