<svg xmlns="http://www.w3.org/2000/svg" viewBox="0 0 16 16"><path d="M 2.5 2 A 0.50005 0.50005 0 0 0 2 2.5 L 2 12 L 1 12 C 0.448 12 0 12.448 0 13 C 0 13.552 0.448 14 1 14 L 2.5 14 L 12.5 14 L 14 14 C 14.552 14 15 13.552 15 13 C 15 12.448 14.552 12 14 12 L 13 12 L 13 2.5 A 0.50005 0.50005 0 0 0 12.5 2 L 2.5 2 z M 3 3 L 12 3 L 12 13 L 3 13 L 3 3 z M 8.4941406 3.9941406 A 0.50005 0.50005 0 0 0 8.1464844 4.8535156 L 8.7929688 5.5 L 8.1464844 6.1464844 A 0.50005 0.50005 0 1 0 8.8535156 6.8535156 L 9.5 6.2070312 L 10.146484 6.8535156 A 0.50005 0.50005 0 1 0 10.853516 6.1464844 L 10.207031 5.5 L 10.853516 4.8535156 A 0.50005 0.50005 0 0 0 10.490234 3.9960938 A 0.50005 0.50005 0 0 0 10.146484 4.1464844 L 9.5 4.7929688 L 8.8535156 4.1464844 A 0.50005 0.50005 0 0 0 8.4941406 3.9941406 z M 4.5 5 A 0.50005 0.50005 0 1 0 4.5 6 L 6.5 6 A 0.50005 0.50005 0 1 0 6.5 5 L 4.5 5 z M 8.5 9 A 0.50005 0.50005 0 0 0 8 9.5 L 8 11.5 A 0.50005 0.50005 0 0 0 8.5 12 L 10.5 12 A 0.50005 0.50005 0 0 0 11 11.5 L 11 9.5 A 0.50005 0.50005 0 0 0 10.5 9 L 8.5 9 z M 4.5 10 A 0.50005 0.50005 0 1 0 4.5 11 L 6.5 11 A 0.50005 0.50005 0 1 0 6.5 10 L 4.5 10 z M 9 10 L 10 10 L 10 11 L 9 11 L 9 10 z"/></svg>