<svg xmlns="http://www.w3.org/2000/svg" viewBox="0 0 48 48"><path fill="#a37b57" d="M38.608,18.657c-0.552-1.835-1.11-3.686-2.039-5.362c-0.583-1.053-1.331-2.049-2.345-2.698 s-2.327-0.91-3.446-0.466c-0.761,0.302-1.367,0.892-1.934,1.483c-1.63,1.7-3.117,3.536-4.441,5.483L21.5,31.28l22.672,4.845 C43.165,32.778,39.614,22.004,38.608,18.657z"/><path fill="#d6e5e5" d="M37.42,15.11c-0.37-0.11-1.03-0.21-1.34-0.12c-0.99,0.3-1.68,1.42-2.71,1.41 c-0.34,0-0.66-0.13-0.98-0.25c-0.49-0.2-0.99-0.4-1.4-0.74c-0.42-0.35-0.73-0.83-1.19-1.14c-0.79-0.53-2.04-0.47-3.07-0.27 c0.67-0.83,1.37-1.62,2.11-2.39c0.57-0.59,1.18-1.18,1.94-1.48c1.12-0.44,2.43-0.18,3.44,0.47c1.02,0.65,1.77,1.64,2.35,2.69 C36.9,13.88,37.18,14.49,37.42,15.11z"/><path fill="#010101" d="M44.65,35.981c-0.505-1.681-1.666-5.277-2.788-8.756c-1.118-3.464-2.274-7.046-2.776-8.713v0.001 c-0.262-0.873-0.532-1.76-0.842-2.636l0.011,0.003l-0.369-0.951c-0.04-0.103-0.086-0.199-0.128-0.3 c-0.052-0.124-0.103-0.247-0.158-0.37c-0.187-0.423-0.381-0.834-0.593-1.212c-0.403-0.73-0.841-1.333-1.313-1.84 c-0.377-0.408-0.773-0.758-1.201-1.033c-1.237-0.794-2.689-0.986-3.889-0.512c-0.003,0.001-0.005,0.002-0.008,0.003c0,0,0,0,0,0 c-0.001,0-0.002,0-0.003,0.001c-0.065,0.026-0.122,0.064-0.185,0.093c-0.761,0.352-1.374,0.928-1.93,1.505 c-0.766,0.796-1.465,1.589-2.138,2.422l-0.005,0.007c-0.155,0.188-0.308,0.378-0.459,0.569l-0.397,0.492l0.018-0.003 c-0.521,0.676-1.03,1.361-1.508,2.065l-3.079,14.852l23.983,5.125L44.65,35.981z M31.311,15.026 c-0.163-0.136-0.307-0.295-0.451-0.452c-0.23-0.25-0.468-0.509-0.781-0.72c-0.558-0.374-1.271-0.499-1.973-0.499 c-0.059,0-0.119,0.001-0.177,0.003c0.038-0.043,0.074-0.089,0.112-0.132c0.008-0.01,0.018-0.019,0.026-0.029 c0.372-0.421,0.751-0.834,1.139-1.239c0.521-0.544,1.087-1.098,1.758-1.363c0.892-0.351,2.035-0.188,2.988,0.426 c0.397,0.253,0.767,0.578,1.118,0.974c0.375,0.427,0.728,0.936,1.063,1.542c0.166,0.3,0.309,0.613,0.454,0.926 c-0.233-0.015-0.464-0.004-0.65,0.049c-0.512,0.155-0.923,0.466-1.319,0.768c-0.44,0.333-0.82,0.621-1.237,0.621 c-0.233,0.027-0.474-0.091-0.738-0.19l-0.098-0.037C32.084,15.485,31.65,15.308,31.311,15.026z M22.089,30.895l2.784-13.601 c0.663-0.969,1.37-1.912,2.115-2.825c1.121-0.196,2.022-0.124,2.532,0.215c0.214,0.146,0.402,0.351,0.603,0.567 c0.175,0.19,0.351,0.379,0.548,0.544c0.459,0.381,0.985,0.596,1.494,0.804l0.124,0.048c0.322,0.121,0.68,0.244,1.095,0.254 c0.749,0,1.326-0.438,1.836-0.824c0.342-0.26,0.665-0.504,1-0.605c0.117-0.035,0.482-0.009,0.82,0.062 c0.416,1.072,0.761,2.179,1.089,3.268v0.001c0.504,1.676,1.662,5.263,2.781,8.731c0.964,2.986,1.956,6.06,2.534,7.925 L22.089,30.895z"/><path fill="#513620" d="M19.895,9.331c-0.996-1.35-1.649-2.826-3.264-3.281c-0.372-0.105-1.296-0.056-1.641,0.119 c-0.347,0.177-0.552,0.541-0.735,0.885c-3.688,6.94-7.633,20.979-10.32,28.364l25.814-2.606 C27.846,25.829,24.193,15.155,19.895,9.331z"/><path fill="#d6e5e5" d="M22.166,12.933c-0.41,0.48-1.316,0.677-1.836,0.547c-0.63-0.16-1.14-0.62-1.63-1.05 c-0.33-0.28-0.75-0.57-1.16-0.43c-0.15,0.05-0.27,0.16-0.39,0.27c-0.63,0.55-1.27,1.11-1.9,1.66c-0.2,0.18-0.42,0.36-0.68,0.39 c-0.2,0.02-0.38-0.06-0.56-0.13c-0.87-0.37-1.624-0.751-2.324-1.381c0.87-2.08,1.704-4.119,2.574-5.759 c0.18-0.34,0.38-0.7,0.73-0.88c0.35-0.18,1.268-0.226,1.638-0.116C18.248,6.504,18.9,7.98,19.9,9.33 C20.69,10.4,21.416,11.693,22.166,12.933z"/><path fill="#010101" d="M30.23,32.68c-0.51-1.9-1.71-6.07-3.43-10.64c-1.13-3.02-2.49-6.22-4.03-9.05 c-0.03-0.07-0.07-0.13-0.11-0.2l-0.56-0.93c-0.57-0.97-1.17-1.97-1.8-2.83c-0.2-0.27-0.39-0.55-0.57-0.82 c-0.74-1.1-1.51-2.23-2.96-2.64c-0.48-0.14-1.53-0.09-2.01,0.15c-0.44,0.23-0.7,0.63-0.88,0.97c-0.02,0.04-0.04,0.09-0.06,0.13 c-0.1,0.19-0.2,0.38-0.3,0.58c-0.7,1.4-1.38,3.02-2.09,4.72l-0.04,0.08l-0.3,0.74c-1.67,4.3-3.32,9.37-4.84,14.03 c-1.01,3.1-1.96,6.02-2.78,8.28L3.19,36l27.2-2.75L30.23,32.68z M12.36,12.5c0.57-1.45,1.15-2.81,1.73-4 c0.2-0.42,0.4-0.83,0.61-1.22c0.17-0.31,0.31-0.56,0.52-0.67c0.03-0.02,0.08-0.03,0.13-0.04c0.04-0.01,0.08-0.02,0.13-0.03 c0.18-0.03,0.41-0.05,0.61-0.05c0.17,0,0.32,0.01,0.41,0.04c0.41,0.12,0.75,0.31,1.06,0.57c0.5,0.43,0.9,1.02,1.34,1.67 c0.19,0.28,0.39,0.57,0.6,0.86c0.19,0.26,0.38,0.53,0.57,0.82c0.4,0.61,0.79,1.27,1.18,1.92l0.083,0.144 c0.058,0.101,0.115,0.206,0.172,0.308C21.175,12.99,20.719,13.06,20.45,13c-0.49-0.13-0.94-0.53-1.43-0.95 c-0.25-0.21-0.91-0.78-1.64-0.52c-0.25,0.08-0.43,0.24-0.56,0.36l-1.9,1.67c-0.1,0.09-0.28,0.25-0.4,0.26 c-0.05,0.02-0.17-0.03-0.31-0.09c-0.74-0.31-1.36-0.62-1.92-1.07L12.36,12.5z M4.67,34.84c0.77-2.15,1.63-4.79,2.53-7.56 c1.48-4.53,3.08-9.45,4.71-13.65c0.58,0.42,1.21,0.73,1.97,1.05c0.17,0.06,0.38,0.14,0.63,0.14h0.12c0.44-0.05,0.78-0.36,0.95-0.51 l1.91-1.67c0.07-0.07,0.16-0.15,0.21-0.17c0.13-0.04,0.36,0.07,0.71,0.37c0.5,0.44,1.07,0.94,1.8,1.13 c0.5,0.12,1.21,0.03,1.78-0.28c2.9,5.42,5.46,12.71,7.12,18.68L4.67,34.84z"/><path fill="#2b8c5e" d="M44.625,36.625c-5.556-3.395-12.843-5.26-19.355-5.334c-7.348-0.083-15.61,0.614-21.833,4.522 l2.234,6.454c1.994-0.41,3.989-0.82,5.99-1.196c2.053-0.386,4.147-0.738,6.223-0.502c1.92,0.218,3.677,0.405,5.585,0.713 c2.146,0.346,4.468,0.311,6.531-0.375c1.39-0.462,2.708-0.773,4.166-0.907c0.659-0.06,1.322-0.004,1.981,0.052 c1.48,0.127,2.973,0.256,4.39,0.701c1.006,0.316,2.075,0.791,3.068,0.439L44.625,36.625z"/><path fill="#71c598" d="M44.62,36.62l-0.51,2.29c-3.81-1.3-7.69-2.46-11.68-2.93c-3.65-0.42-7.34-0.26-11.01-0.1 c-1.39,0.06-2.78,0.13-4.16,0.28c-2.35,0.27-4.66,0.81-6.96,1.35c-1.94,0.45-3.87,0.9-5.8,1.36l-1.06-3.06 c6.22-3.91,14.48-4.6,21.83-4.52C31.78,31.36,39.07,33.23,44.62,36.62z"/><path fill="#010101" d="M44.886,36.198c0,0-0.001,0-0.001-0.001c-0.002-0.001-0.002-0.003-0.004-0.004 c-5.418-3.31-12.748-5.329-19.605-5.403c-6.249-0.07-15.32,0.334-22.101,4.597c0,0,0,0.001-0.001,0.001 c-0.001,0-0.001,0.001-0.002,0.001c-0.197,0.124-0.283,0.367-0.207,0.588l2.234,6.453c0.071,0.205,0.263,0.337,0.473,0.337 c0.033,0,0.067-0.003,0.101-0.011c1.991-0.409,3.982-0.818,5.981-1.194c2.073-0.389,4.098-0.722,6.073-0.496l0.595,0.067 c1.682,0.189,3.271,0.368,4.968,0.642c1.715,0.277,4.282,0.433,6.768-0.394c1.472-0.489,2.722-0.762,4.055-0.884 c0.617-0.056,1.266-0.001,1.893,0.053c1.434,0.123,2.915,0.25,4.284,0.681l0.44,0.144c0.907,0.303,1.937,0.646,2.944,0.289 c0.162-0.058,0.283-0.195,0.321-0.363l1.019-4.566C45.159,36.525,45.068,36.31,44.886,36.198z M4.044,36.026 c2.042-1.228,4.294-2.108,6.608-2.736c4.18-1.133,8.567-1.444,12.28-1.497c0.812-0.011,1.593-0.01,2.333-0.002 c6.561,0.074,13.553,1.966,18.789,5.073l-0.31,1.393c-3.352-1.13-7.26-2.304-11.256-2.774c-3.695-0.426-7.455-0.262-11.089-0.104 c-1.348,0.06-2.781,0.129-4.195,0.283c-2.399,0.275-4.747,0.827-7.017,1.359c-1.793,0.416-3.578,0.833-5.362,1.257L4.044,36.026z M41.146,40.426l-0.457-0.149c-1.474-0.464-3.012-0.596-4.498-0.723c-0.672-0.058-1.366-0.115-2.07-0.053 c-1.393,0.128-2.752,0.424-4.277,0.931c-2.294,0.763-4.689,0.614-6.294,0.356c-1.721-0.278-3.321-0.458-5.015-0.649l-0.594-0.067 c-2.111-0.237-4.219,0.104-6.372,0.508c-1.859,0.35-3.714,0.729-5.567,1.109L5.15,39.231c1.751-0.416,3.503-0.826,5.264-1.235 c2.242-0.526,4.561-1.07,6.899-1.339c1.382-0.15,2.797-0.22,4.128-0.277c3.596-0.157,7.313-0.319,10.93,0.097 c3.949,0.465,7.83,1.641,11.158,2.766l-0.344,1.544C42.563,40.901,41.872,40.668,41.146,40.426z"/></svg>