<svg xmlns="http://www.w3.org/2000/svg" width="512" height="512" viewBox="0 0 512 512"><path fill="#357180" d="M504.1,256c0,137-111.1,248.1-248.1,248.1C119,504.1,7.9,393,7.9,256S119,7.9,256,7.9C393,7.9,504.1,119,504.1,256"/><path fill="#BCBDC0" d="M320.2,291.5c-0.1-0.7-0.1-1.4-0.2-2.1c-4,2.3-8.4,4.4-13.1,6.2c-25.8-0.2-82.4,5.8-83.3,5.6c-0.3-0.1-0.7-0.1-1-0.2c-3.1-0.7-6-1.5-8.9-2.4c-0.2-0.1-0.4-0.1-0.5-0.2c-7.7-2.4-14.8-5.4-21-9c-0.3,2.4,0.2,4.8,0.2,7.3c0,20.1,8.5,37.7,29.2,48.2v17.9c-6.9,3.9-10.6,11.1-10.6,18h19.4h3.8h19.9c0-6.9-4.9-14.1-11.8-18v-8.9c6.9,0.6,8.7,0.9,12.6,0.9c0.1,0,0.9,0,1,0c1.5,0,3.2-0.1,4.7-0.2c0.7-0.1,2.8-0.1,3.5-0.2c1.5-0.1-1.1-0.3,5.8-0.5v8.9c-6.9,3.9-11.6,11.1-11.6,18h19.4h3.8h19.9c0-6.9-3.9-14.1-10.8-18v-15.3v-2.6c0-0.1,1.2-0.2,1.4-0.3c-2.4,0.3,22.7-29.1,23.3-29.3c0,0,1.6-0.6,2.2-0.8c2-5.6,3.1-11.5,3.1-17.7C320.4,295,320.3,293.2,320.2,291.5"/><path fill="#C5CBD4" d="M325.5,308.5c-0.3,0.3-0.6,0.6-0.8,0.9c-1.2,1.3-4.1,3.9-9.2,5.7c0,0-0.1,0-0.1,0.1c-0.6,0.2-1.2,0.4-1.9,0.6c-0.2,0-0.3,0.1-0.5,0.1c-0.6,0.2-1.2,0.3-1.8,0.5c-0.2,0.1-0.5,0.1-0.7,0.2c-0.6,0.1-1.1,0.2-1.7,0.3c-0.3,0.1-0.6,0.1-0.9,0.1c-0.6,0.1-1.2,0.1-1.8,0.2c-0.4,0-0.7,0.1-1.1,0.1c-0.6,0.1-1.3,0.1-1.9,0.1c-0.4,0-0.8,0-1.2,0c-0.7,0-1.5,0-2.2,0c-0.4,0-0.8,0-1.1,0c-1.2-0.1-2.4-0.1-3.6-0.3c-9.1-0.9-13.1-7.1-14.6-14.4c1.7-0.3,3.4-0.6,5.1-0.9c0.3-0.1-0.3-0.1,0-0.2c12.7-2.6,25.8-6.9,32.7-12.3v0c20.7-9.8,28.8-23.5,28.8-38.6c0-7.5-2.1-14.6-6.8-21.1c0.6-4,1.1-7.8,1.1-12c0-47-37.8-85-84.7-85H256c-47.1,0-85.3,37.9-85.3,85c0,4.2,0.3,8.1,0.9,12.1c-4.7,6.5-6.4,13.5-6.4,21c0,15.2,8.1,28.8,28.7,38.6v0c6.9,3.5,12.4,6.6,20.1,9c0.2,0.1-0.1,0.1,0.1,0.2c2.9,0.9,5.6,1.7,8.7,2.4c0.3,0.1,0.6,0.2,0.9,0.2c1.5,0.3,3,0.7,4.5,0.9c-2.8-8.5-4.3-15.2-4.9-20.8c0.8,5.9,2.3,12.7,4.8,20.8c3.4,14.3,11.5,30.5,28.3,38.3c5.7,2.7,12.5,4.4,20.5,4.7c1.4,0,2.9,0.7,4.2,0.7c1.2,0,2.4,0.5,3.5,0.5h0.5c2.6,0,5.2-1.3,5.2-1.5v-0.1c34.5-4,43.5-25.2,43.5-25.2c2.2-1.9,2.4-5.9-0.2-9C331,307.5,327.7,306.6,325.5,308.5 M255.9,306.9c0,1-3.8,2-5.9,3.1c-2.5,1.3-4.9,2.5-7.9,3.7c0.7-3.2,2.4-5.9,4.4-8.3c2-2.3,4.3-4.4,7.3-5.8c0.8-0.4,2.1-0.7,2.1-0.9V306.9z M255.9,289.3c0,0.2-1.5,0.3-2.4,0.6c-2.8,0.7-5.4,1.7-8.2,2.9c-2.8,1.2-5.6,2.7-8.9,4.3c0.8-3.6,3-6.7,5.7-9.2c2.7-2.5,5.9-4.4,9.5-5.3c1.5-0.4,4.3-0.6,4.3-0.7V289.3z M255.9,269.1c0,0.1-3.8,0.3-5.8,0.7c-3.4,0.6-6.5,1.7-9.8,3.2c-3.3,1.5-6.6,3.3-10.1,5.5c1.1-4.1,3.8-7.6,7-10.4c3.3-2.8,7.2-4.8,11.5-5.6c2.5-0.5,7.2-0.5,7.2-0.3V269.1z"/><path fill="#C5CBD4" d="M285.1 345.1c2.6-.1 5.1-.3 7.4-.6h0C290.2 344.8 287.7 345 285.1 345.1M284.6 345.1c-1.2 0-2.3.1-3.6.1C282.3 345.2 283.5 345.2 284.6 345.1M313.5 315.8c-.2 0-.3.1-.5.1C313.2 315.9 313.4 315.9 313.5 315.8M311.3 316.4c-.2.1-.5.1-.7.2C310.8 316.5 311.1 316.5 311.3 316.4M303.1 317.5c-.4 0-.8 0-1.2 0C302.3 317.5 302.6 317.5 303.1 317.5M306.1 317.2c-.4 0-.7.1-1.1.1C305.4 317.3 305.7 317.3 306.1 317.2M280.2 302.8c1.7-.3 3.4-.6 5.1-.9C283.6 302.2 281.9 302.5 280.2 302.8M315.5 315.2c0 0-.1 0-.1.1C315.4 315.2 315.5 315.2 315.5 315.2M299.6 317.5c-.4 0-.8 0-1.1 0C298.9 317.5 299.2 317.5 299.6 317.5M286.3 301.7c12.7-2.6 24.2-6.8 33.7-12.2 0 0 0 0 0 0C310.4 294.8 299 299.1 286.3 301.7M308.8 316.9c-.3.1-.6.1-.9.1C308.2 317 308.5 316.9 308.8 316.9"/><path fill="#908BC0" d="M213.6 298.6c-.2-.1-.4-.1-.5-.2C213.2 298.5 213.4 298.5 213.6 298.6M223.5 301.2c-.3-.1-.7-.2-1-.2C222.8 301 223.2 301.1 223.5 301.2M192.1 289.4c6.2 3.5 13.3 6.6 21 9C205.3 296 198.3 293 192.1 289.4L192.1 289.4zM222.5 301c-3-.7-6-1.5-8.9-2.4C216.5 299.5 219.4 300.3 222.5 301M228.1 302.2c-1.5-.3-3-.6-4.5-.9C225 301.5 226.5 301.9 228.1 302.2"/><path fill="#C5CBD4" d="M121.4 201.9c-6.9 35.7 13.1 69.5 44.6 75.6 3.7.7 7.4 1 11 .9-6.8-6.7-11.2-14.3-12.6-22.5-.3-1.7-.4-3.4-.4-5.1 0-7.5 2.6-14.6 7.3-21.1-.6-4-.9-8.1-.9-12.3 0-18.3 5.8-35.3 15.6-49.2 4.4-6.2 9.5-11.8 15.4-16.6-3.3-1.4-6.8-2.5-10.5-3.3C159.4 142.3 128.3 166.3 121.4 201.9M390.5 201.9c-6.9-35.7-38-59.7-69.5-53.6-3.7.7-7.2 1.8-10.5 3.3 5.8 4.8 11 10.4 15.4 16.6 9.8 13.9 15.6 30.9 15.6 49.2 0 4.2-.3 8.3-.9 12.3 4.7 6.5 7.3 13.6 7.3 21.1 0 1.7-.2 3.5-.4 5.1-1.3 8.2-5.7 15.8-12.6 22.5 3.6.1 7.3-.2 11-.9C377.5 271.4 397.4 237.6 390.5 201.9"/><path fill="#908BC0" d="M261.8 263.3c-1.8-.6-3.6-.9-5.5-1.1-2.5-.2-5-.2-7.5.3-4.3.8-8.4 2.8-11.7 5.6-3.2 2.8-5.9 6.3-7 10.4 3.6-2.2 6.8-4 10.2-5.5 3.3-1.5 6.6-2.5 9.9-3.2 2-.4 4-.6 6-.7 1.4-.1 2.9-.1 4.4 0 3.6.1 7.4.6 11.6.9C269.5 266.8 265.9 264.6 261.8 263.3M256.3 282c-1.5.1-3 .3-4.5.7-3.7 1-7 2.8-9.7 5.3-2.7 2.5-4.8 5.6-5.6 9.2 3.2-1.7 6.1-3.1 8.9-4.3 2.8-1.2 5.6-2.2 8.3-2.9.9-.2 1.7-.4 2.6-.6 2-.4 4-.7 6.1-.9 3-.3 6.3-.3 9.9-.4C268.4 283.7 262.4 281.7 256.3 282M263.7 297.8c-2.5-.2-5 .1-7.3.9-.8.3-1.6.6-2.3.9-2.9 1.4-5.4 3.4-7.5 5.7-2 2.4-3.6 5.1-4.3 8.3 3-1.2 5.6-2.5 8-3.7 2.1-1.1 4.1-2.1 6.1-3.1.3-.1.6-.3.9-.5 2.3-1.1 4.5-2 6.9-2.8 2.4-.7 4.9-1.2 8.2-1.5C270.3 299.6 267 298.1 263.7 297.8M268.5 312.2c-2.5.3-5.1 1.3-7.2 3-2.1 1.7-3.7 4-4.5 6.6-.7 2.5-.7 5.2.5 7.7l4.7-4.8c1.4-1.4 2.7-2.5 4-3.6 1.4-1.1 2.8-2.2 4.4-3.3 1.7-1.2 3.4-2.4 5.5-4C273.6 312.3 271 312 268.5 312.2M280.1 321c-1.9.5-3.7 1.7-4.9 3.4-1.3 1.7-2 3.8-1.9 5.9.1 2 .9 4 2.6 5.4 1.4-1.7 2.3-3 3.1-4.1.8-1 1.5-1.8 2.1-2.7.7-.9 1.3-1.8 2.1-2.9.8-1.2 1.7-2.5 2.8-4.4C284.1 320.5 282 320.5 280.1 321M294.7 325c-1.8.7-2.8 1.7-3.6 2.7-.7 1-1.2 2.2-1.3 3.3-.1 1.2 0 2.4.6 3.7.6 1.2 1.5 2.6 3.3 3.3 1.2-1.4 2-2.3 2.6-3.2.6-1 .9-1.9 1-2.9.1-1 0-2-.4-3.1C296.6 327.6 296 326.4 294.7 325M308.7 332.1c-.1-1-.1-1.9-.4-2.9-.2-.9-.5-1.9-.9-2.9-.4-1-1-2.1-1.9-3.2-1.1 1-1.7 2.2-2 3.4-.3 1.2-.3 2.5-.1 3.7.2 1.2.8 2.5 1.7 3.5.9 1 2.1 1.9 3.7 1.9L308.7 332.1z"/><path fill="#3C3D3C" d="M217 235.4c0 5.7-4.6 10.3-10.3 10.3-5.7 0-10.3-4.6-10.3-10.3 0-5.7 4.6-10.3 10.3-10.3C212.4 225.1 217 229.7 217 235.4M295 235.4c0 5.7 4.6 10.3 10.3 10.3 5.7 0 10.3-4.6 10.3-10.3 0-5.7-4.6-10.3-10.3-10.3C299.6 225.1 295 229.7 295 235.4"/><path fill="#FFF" d="M214.7 232.5c0 2.4-2 4.4-4.4 4.4s-4.4-2-4.4-4.4c0-2.4 2-4.4 4.4-4.4S214.7 230.1 214.7 232.5M313.2 232.5c0 2.4-2 4.4-4.4 4.4-2.4 0-4.4-2-4.4-4.4 0-2.4 2-4.4 4.4-4.4C311.2 228.2 313.2 230.1 313.2 232.5"/><path fill="#F6E9E5" d="M221.6 295c-.9 1.5-1.6 2.5-2.4 3.6-.8 1.1-1.7 2.1-2.6 3.1-1.8 2-3.9 3.9-6.2 5.5-2.3 1.6-4.8 3-7.6 3.9s-5.7 1.3-8.6 1.2c-2.6-.1-4.6-2.3-4.4-4.9.1-2.2 1.7-4 3.8-4.4l.3-.1c3.3-.7 6.1-2.6 8.4-5.3 1.1-1.3 2.2-2.9 3.1-4.5.4-.8.9-1.6 1.2-2.5.4-.8.8-1.8.9-2.3.9-4.3 5.1-7.1 9.4-6.2 4.3.9 7.1 5.1 6.2 9.4-.2.8-.5 1.6-.9 2.3L221.6 295zM295.9 288.5c.1.5.5 1.5.9 2.3.4.8.8 1.7 1.2 2.5.9 1.6 1.9 3.1 3.1 4.5 2.3 2.7 5.1 4.6 8.4 5.2l.3.1c2.5.5 4.2 3 3.7 5.5-.4 2.2-2.3 3.7-4.4 3.8-2.9.1-5.8-.3-8.6-1.2-2.8-.9-5.3-2.3-7.6-3.9-2.3-1.6-4.3-3.5-6.2-5.5-.9-1-1.8-2-2.6-3.1-.8-1.1-1.6-2.1-2.4-3.6l-.6-1c-2.2-3.8-.9-8.7 3-10.9 3.8-2.2 8.7-.9 10.9 3C295.4 286.9 295.7 287.7 295.9 288.5"/></svg>