<svg xmlns="http://www.w3.org/2000/svg" viewBox="0 0 26 26"><path d="M 7 0 L 4 4 L 10 4 Z M 16 0 L 19 4 L 22 0 Z M 2 6 C 0.898438 6 0 6.898438 0 8 L 0 24 C 0 25.101563 0.898438 26 2 26 L 24 26 C 25.101563 26 26 25.101563 26 24 L 26 8 C 26 6.898438 25.101563 6 24 6 Z M 5 8 C 6.101563 8 7 8.898438 7 10 C 7 11.101563 6.101563 12 5 12 C 6.699219 12 8 13.300781 8 15 L 8 18 L 7 19 L 6.5 24 L 3.5 24 L 3 19 L 2 18 L 2 15 C 2 13.300781 3.300781 12 5 12 C 3.898438 12 3 11.101563 3 10 C 3 8.898438 3.898438 8 5 8 Z M 13 8 C 14.101563 8 15 8.898438 15 10 C 15 11.101563 14.101563 12 13 12 C 14.699219 12 16 13.300781 16 15 L 16 18 L 15 19 L 14.5 24 L 11.5 24 L 11 19 L 10 18 L 10 15 C 10 13.300781 11.300781 12 13 12 C 11.898438 12 11 11.101563 11 10 C 11 8.898438 11.898438 8 13 8 Z M 21 8 C 22.101563 8 23 8.898438 23 10 C 23 11.101563 22.101563 12 21 12 C 22.699219 12 24 13.300781 24 15 L 24 18 L 23 19 L 22.5 24 L 19.5 24 L 19 19 L 18 18 L 18 15 C 18 13.300781 19.300781 12 21 12 C 19.898438 12 19 11.101563 19 10 C 19 8.898438 19.898438 8 21 8 Z"/></svg>