<svg xmlns="http://www.w3.org/2000/svg" viewBox="0 0 24 24"><path d="M 11 2 L 11 5 C 14 5 13 6 15 6 L 16 6 L 16 3 L 15 3 C 13 3 14 2 11 2 Z M 4 7 L 4 9 L 20 9 L 20 7 Z M 0 10 L 0 24 L 24 24 L 24 10 Z M 3 13 L 5 13 L 5 16 L 3 16 Z M 7 13 L 9 13 L 9 16 L 7 16 Z M 11 13 L 13 13 L 13 16 L 11 16 Z M 15 13 L 17 13 L 17 16 L 15 16 Z M 19 13 L 21 13 L 21 16 L 19 16 Z M 3 18 L 5 18 L 5 21 L 3 21 Z M 7 18 L 9 18 L 9 21 L 7 21 Z M 11 18 L 13 18 L 13 21 L 11 21 Z M 15 18 L 17 18 L 17 21 L 15 21 Z M 19 18 L 21 18 L 21 21 L 19 21 Z"/></svg>