<?xml version="1.0"?><svg xmlns="http://www.w3.org/2000/svg" viewBox="0 0 24 24">    <path d="M 23 3 L 15 4 L 15 11 L 18 11 L 18 9 L 21 12 L 18 15 L 18 13 L 15 13 L 15 20 L 23 21 L 23 3 z M 10.25 4 A 1.75 1.75 0 0 0 8.5 5.75 A 1.75 1.75 0 0 0 10.25 7.5 A 1.75 1.75 0 0 0 12 5.75 A 1.75 1.75 0 0 0 10.25 4 z M 4.9960938 7.015625 L 2.0292969 8.1113281 L 2.7207031 9.9882812 L 5.0039062 9.1445312 L 5.7617188 9.4179688 L 4.2011719 12.294922 C 4.0671719 12.569922 3.998 12.875687 4 13.179688 C 4.003 13.709687 4.2109375 14.207031 4.5859375 14.582031 L 6.6757812 16.40625 L 5.4609375 20 L 7.5722656 20 L 9 15.804688 L 7.0996094 13.861328 L 8.6640625 10.976562 L 9.7871094 13 L 13 13 L 13 11 L 10.962891 11 L 9.6914062 8.7109375 L 4.9960938 7.015625 z M 3.7773438 15.164062 L 3.0800781 16 L 1 16 L 1 18 L 4.0039062 18 L 5.3046875 16.455078 L 3.8789062 15.289062 C 3.8409063 15.251062 3.8133438 15.204063 3.7773438 15.164062 z"/></svg>