<?xml version="1.0"?><svg xmlns="http://www.w3.org/2000/svg" viewBox="0 0 30 30">    <path d="M 15 2 C 13.340654 2 11.341045 2.6985806 9.5644531 4.0039062 A 2.5 2.5 0 0 0 9.5 4 A 2.5 2.5 0 0 0 7.0253906 6.1660156 A 3 3 0 0 0 5 9 A 3 3 0 0 0 5.0058594 9.1816406 C 3.839988 9.5930945 3 10.693204 3 12 C 3 12.537343 3.1530175 13.034493 3.4003906 13.470703 C 2.5611689 14.002506 2 14.932834 2 16 C 2 17.044373 2.534371 17.962742 3.34375 18.5 C 2.534371 19.037258 2 19.955627 2 21 C 2 22.657 3.343 24 5 24 C 5.0173982 24 5.0334534 23.994436 5.0507812 23.994141 C 5.0507812 23.994141 5.0507812 23.996094 5.0507812 23.996094 C 5.0174863 24.158857 5 24.327375 5 24.5 C 5 25.881 6.119 27 7.5 27 C 8.3596068 27 9.1165021 26.566676 9.5664062 25.90625 C 10.765821 27.040611 12.499561 27.950688 14.847656 27.990234 A 1.0001 1.0001 0 0 0 15 28 A 1.0001 1.0001 0 0 0 15.136719 27.990234 C 17.492998 27.954615 19.231436 27.043205 20.433594 25.90625 C 20.883498 26.566676 21.640393 27 22.5 27 C 23.881 27 25 25.881 25 24.5 C 25 24.327375 24.982514 24.156904 24.949219 23.994141 C 24.966547 23.994436 24.982602 24 25 24 C 26.657 24 28 22.657 28 21 C 28 19.955627 27.465629 19.037258 26.65625 18.5 C 27.465629 17.962742 28 17.044373 28 16 C 28 14.936569 27.443688 14.007374 26.609375 13.474609 A 3 3 0 0 0 27 12 A 3 3 0 0 0 24.990234 9.171875 A 3 3 0 0 0 25 9 A 3 3 0 0 0 22.974609 6.1660156 A 2.5 2.5 0 0 0 20.5 4 A 2.5 2.5 0 0 0 20.373047 4.0039062 C 19.625025 3.1306064 18.071526 2 15 2 z M 15 9 C 15 9 22 12 22 17 L 23 17 L 23 18 C 23 18.983333 22.664198 19.403446 22.341797 19.685547 C 22.019396 19.967648 21.757812 20.029297 21.757812 20.029297 L 21.121094 20.189453 L 21.013672 20.835938 C 21.013672 20.835938 20.789961 22.137325 19.917969 23.445312 C 19.045976 24.753302 17.666667 26 15 26 C 12.333333 26 10.954024 24.753301 10.082031 23.445312 C 9.2100392 22.137324 8.9863281 20.835937 8.9863281 20.835938 L 8.8789062 20.189453 L 8.2421875 20.029297 C 8.2421875 20.029297 7.9806039 19.967647 7.6582031 19.685547 C 7.3358023 19.403446 7 18.983333 7 18 L 7 17 L 8 17 C 8 10 11 13 15 9 z M 12 16 A 1 1 0 0 0 11 17 A 1 1 0 0 0 12 18 A 1 1 0 0 0 13 17 A 1 1 0 0 0 12 16 z M 18 16 A 1 1 0 0 0 17 17 A 1 1 0 0 0 18 18 A 1 1 0 0 0 19 17 A 1 1 0 0 0 18 16 z M 15 20 C 13.04 20.333 12.277 21.884 11 21 C 11 21 11.589844 22 12.714844 22 C 13.728844 22 13.927 21.299641 15 21.306641 C 16.073 21.299641 16.271156 22 17.285156 22 C 18.410156 22 19 21 19 21 C 17.723 21.884 16.96 20.333 15 20 z"/></svg>