<svg xmlns="http://www.w3.org/2000/svg" viewBox="0 0 26 26"><path d="M 13 0 C 11.183594 0 10.105469 0.378906 9.375 0.84375 C 8.644531 1.308594 8.421875 1.617188 7.78125 1.84375 C 7.769531 1.855469 7.761719 1.863281 7.75 1.875 C 6.925781 2.183594 6.058594 2.523438 5.3125 3.15625 C 4.566406 3.789063 4 4.785156 4 6 C 4 7.054688 4.503906 7.777344 4.90625 8.21875 C 4.585938 8.816406 4.375 9.449219 4.25 10.09375 C 3 10.234375 2 11.210938 2 12.5 C 2 13.5625 2.664063 14.480469 3.59375 14.84375 C 3.535156 14.898438 3.464844 14.941406 3.40625 15 L 1.8125 16.8125 L 2.5 17.40625 L 1.3125 19.1875 L 2.1875 19.5 L 1.59375 22.09375 L 2.90625 22 L 3 24.1875 L 4.5 23.90625 L 5.6875 25.5 L 6.6875 24.90625 L 8 26 L 9.3125 25.3125 L 10.5 26 L 11.90625 25.59375 L 12.90625 25.96875 L 12.9375 25.96875 L 13 26 L 13 25.96875 L 14 25.59375 L 15.40625 26 L 16.59375 25.3125 L 18 26 L 19.3125 24.90625 L 20.3125 25.5 L 21.5 23.90625 L 22.90625 24.1875 L 23 22.09375 L 24.3125 22.1875 L 23.6875 19.59375 L 24.6875 19.1875 L 23.5 17.40625 L 24.1875 16.8125 L 22.59375 15 C 22.535156 14.941406 22.464844 14.898438 22.40625 14.84375 C 23.335938 14.480469 24 13.5625 24 12.5 C 24 11.210938 23 10.234375 21.75 10.09375 C 21.632813 9.460938 21.429688 8.835938 21.125 8.25 C 21.515625 7.789063 22 7.039063 22 6 C 22 5.460938 21.792969 4.707031 21.21875 4.0625 C 20.664063 3.441406 19.785156 2.929688 18.5 2.5 C 18.492188 2.496094 18.507813 2.472656 18.5 2.46875 C 18.078125 2.289063 17.582031 1.757813 16.75 1.15625 C 15.917969 0.554688 14.699219 0 13 0 Z M 13 2 C 14.300781 2 14.945313 2.335938 15.5625 2.78125 C 16.179688 3.226563 16.742188 3.894531 17.71875 4.3125 C 17.738281 4.324219 17.761719 4.335938 17.78125 4.34375 C 18.917969 4.707031 19.5 5.125 19.75 5.40625 C 20 5.6875 20 5.839844 20 6 C 20 6.160156 19.9375 6.351563 19.84375 6.53125 C 18.332031 5.011719 16.015625 4 13 4 C 10.003906 4 7.699219 5.023438 6.1875 6.53125 C 6.085938 6.355469 6 6.175781 6 6 C 6 5.3125 6.191406 5.03125 6.59375 4.6875 C 6.996094 4.34375 7.660156 4.042969 8.4375 3.75 C 9.496094 3.375 9.992188 2.816406 10.4375 2.53125 C 10.882813 2.246094 11.417969 2 13 2 Z M 16.03125 6.4375 C 17.34375 6.855469 18.3125 7.53125 18.96875 8.34375 C 19.027344 8.542969 19.148438 8.714844 19.3125 8.84375 C 19.769531 9.582031 20 10.394531 20 11.1875 C 19.996094 11.535156 20.175781 11.855469 20.464844 12.039063 C 20.757813 12.226563 21.125 12.246094 21.4375 12.09375 C 21.511719 12.058594 21.480469 12.0625 21.53125 12.03125 C 21.742188 12.0625 22 12.296875 22 12.5 C 22 12.714844 21.714844 13 21.5 13 C 21.089844 12.996094 20.714844 13.242188 20.5625 13.625 C 19.714844 13.238281 18.800781 13 17.90625 13 L 14.90625 13 C 14.90625 13 14.613281 14.097656 13.09375 14.1875 C 11.394531 14.1875 11.09375 13 11.09375 13 L 8.09375 13 C 7.199219 13 6.285156 13.238281 5.4375 13.625 C 5.285156 13.242188 4.910156 12.996094 4.5 13 C 4.285156 13 4 12.714844 4 12.5 C 4 12.296875 4.257813 12.0625 4.46875 12.03125 C 4.519531 12.0625 4.488281 12.058594 4.5625 12.09375 C 4.875 12.246094 5.242188 12.226563 5.535156 12.039063 C 5.824219 11.855469 6.003906 11.535156 6 11.1875 C 6 9.441406 7.1875 7.460938 9.71875 6.53125 C 10.714844 6.78125 11.90625 7 13.09375 7 C 14.203125 7 15.210938 6.742188 16.03125 6.4375 Z M 8.8125 8 C 8.261719 8.050781 7.855469 8.542969 7.90625 9.09375 C 7.957031 9.644531 8.449219 10.050781 9 10 C 9.511719 10 9.910156 10.117188 10.25 10.28125 C 9.949219 10.570313 9.863281 11.019531 10.027344 11.402344 C 10.195313 11.785156 10.582031 12.023438 11 12 L 11.8125 12 C 11.878906 12.152344 11.9375 12.28125 11.9375 12.28125 C 12.054688 12.703125 12.433594 12.996094 12.867188 13.011719 C 13.304688 13.023438 13.699219 12.753906 13.84375 12.34375 C 13.84375 12.34375 13.902344 12.195313 14 12 L 15 12 C 15.398438 11.996094 15.757813 11.757813 15.914063 11.390625 C 16.070313 11.027344 15.992188 10.601563 15.71875 10.3125 C 16.089844 10.140625 16.496094 10 17 10 C 17.359375 10.003906 17.695313 9.816406 17.878906 9.503906 C 18.058594 9.191406 18.058594 8.808594 17.878906 8.496094 C 17.695313 8.183594 17.359375 7.996094 17 8 C 14.960938 8 13.773438 9.003906 13 10 L 12.90625 10 C 12.894531 9.964844 12.890625 9.933594 12.84375 9.875 C 12.117188 8.964844 10.832031 8 9 8 C 8.96875 8 8.9375 8 8.90625 8 C 8.875 8 8.84375 8 8.8125 8 Z M 18.53125 16.375 C 19.289063 16.386719 19.90625 17.023438 19.90625 17.8125 L 19.90625 20.40625 C 19.90625 21.207031 19.210938 21.914063 18.3125 21.8125 C 17.679688 21.722656 16.847656 21.632813 16 21.5625 L 16 16.8125 C 16.871094 16.699219 17.601563 16.550781 18.1875 16.40625 C 18.300781 16.382813 18.421875 16.375 18.53125 16.375 Z M 7.4375 16.40625 C 7.554688 16.398438 7.6875 16.394531 7.8125 16.40625 C 8.398438 16.550781 9.128906 16.699219 10 16.8125 L 10 21.5625 C 9.113281 21.636719 8.25 21.71875 7.59375 21.8125 C 6.695313 21.914063 6 21.207031 6 20.40625 L 6 17.8125 C 6 17.023438 6.613281 16.464844 7.4375 16.40625 Z M 11 16.90625 C 11.65625 16.960938 12.351563 17 13.09375 17 C 13.765625 16.996094 14.398438 16.957031 15 16.90625 L 15 21.46875 C 14.285156 21.425781 13.570313 21.40625 12.90625 21.40625 C 12.296875 21.410156 11.652344 21.429688 11 21.46875 Z"/></svg>