<svg xmlns="http://www.w3.org/2000/svg" width="512" height="512" viewBox="0 0 512 512"><path fill="#48A1AF" d="M256,7.9C119,7.9,7.9,119,7.9,256C7.9,393,119,504.1,256,504.1c137,0,248.1-111.1,248.1-248.1C504.1,119,393,7.9,256,7.9z"/><path fill="#17474C" d="M333.6,296.2c-5.6-28-17.1-42-38.2-42h-75.6c-21.1,0-31.1,19.2-38.2,42c-7.2,22.8-15.9,113.7-15.9,113.7c0,23.2,17.1,42,38.2,42h104.3c21.1,0,38.2-18.8,38.2-42C346.4,409.9,339.2,324.2,333.6,296.2z"/><path fill="#0E2C2D" d="M256.2,254l-23.5,0.2h-12.9c-21.1,0-31.1,19.2-38.2,42c-7.2,22.8-15.9,113.7-15.9,113.7c0,23.2,17.1,42,38.2,42l53,0.1L256.2,254z"/><path fill="#E9C29C" d="M302.5,409.9l5.6,42c21.1,0,38.2-18.8,38.2-42L302.5,409.9z"/><path fill="#29636D" d="M333.6,296.2c-5.6-28-17.1-42-38.2-42h-13.7l20.9,155.7l43.8,0C346.4,409.9,339.2,324.2,333.6,296.2z"/><path fill="#E9C29C" d="M165.6,409.9c0,23.2,17.1,42,38.2,42l7.9-41.9L165.6,409.9z"/><path fill="#29636D" d="M219.8,254.2c-21.1,0-31.1,19.2-38.2,42c-7.2,22.8-15.9,113.7-15.9,113.7l46.1,0.1l20.9-155.9L219.8,254.2z"/><path fill="#FFF" d="M262.8 270.4L256.6 264.1 254 264.3 249.2 270.4 231.8 408.1 255.1 429.4 280.2 408.1z"/><path fill="#8DD3D5" d="M264.5 283.9L245.6 299.3 244.4 308.3 265.4 291.1zM267.1 304.4L242.4 324.7 241.2 333.6 268 311.7zM269.7 325L239.2 350 238 358.9 270.6 332.3zM272.3 345.6L236 375.3 234.8 384.2 273.2 352.8zM274.9 366.1L232.8 400.6 231.8 408.1 232.7 408.6 275.8 373.4zM277.5 386.7L240.9 416.5 245.7 420.8 278.4 394z"/><g><path fill="#6FC5BC" d="M255.7,255.6c-6.2,0-11.3,5.1-11.3,11.4c0,6.3,5.1,11.4,11.3,11.4c6.2,0,11.3-5.1,11.3-11.4C267,260.7,262,255.6,255.7,255.6z"/></g><g><path fill="#E9C29C" d="M256,96.9c-40.5,0-73.3,32.8-73.3,73.3c0,40.5,32.8,73.3,73.3,73.3c40.5,0,73.3-32.8,73.3-73.3C329.3,129.7,296.5,96.9,256,96.9z"/><path fill="#492A15" d="M256,96.9c-40.5,0-73.3,32.8-73.3,73.3c0,0,30.2-2.1,57.6-14.5c28.4-12.8,39-30.4,39-30.4l49.9,44.9C329.3,129.7,296.5,96.9,256,96.9z"/><path fill="#343433" d="M234 170.4c-5.5 0-10 4.8-10 10.6s4.5 10.6 10 10.6c5.5 0 10-4.7 10-10.6S239.6 170.4 234 170.4zM277.5 170.4c-5.5 0-10 4.8-10 10.6s4.5 10.6 10 10.6c5.5 0 10-4.7 10-10.6S283.1 170.4 277.5 170.4z"/><path fill="#FFF" d="M280.7 172.8c-2.2 0-4 1.9-4 4.2 0 2.3 1.8 4.2 4 4.2 2.2 0 4-1.9 4-4.2C284.7 174.7 282.9 172.8 280.7 172.8zM237.1 172.8c-2.2 0-4 1.9-4 4.2 0 2.3 1.8 4.2 4 4.2 2.2 0 4-1.9 4-4.2C241.1 174.7 239.3 172.8 237.1 172.8z"/></g><g><path fill="#492A15" d="M251.8,198.6c-5.6-2.1-12.9-0.6-18.3,7.7c-5.1,7.8-15.3,2.4-15.1-2.8c0.2-4.8,5.8-2.9,4.7,0.2c0,0,1.5-2,0.6-3.9c-2.4-5.2-10.3-1.3-9.8,5.8c0,0,0.5,14.7,21.4,15.4c5.4,0.2,12.8-1,18.7-7.5C258.2,208.9,257.1,200.6,251.8,198.6z"/><path fill="#492A15" d="M288.3,199.8c-0.8,1.8,0.6,3.9,0.6,3.9c-1.1-3.1,4.5-5,4.7-0.2c0.2,5.2-10,10.7-15.1,2.8c-5.4-8.2-12.7-9.8-18.3-7.7c-5.2,1.9-6.4,10.2-2.3,14.7c5.9,6.5,13.3,7.7,18.7,7.5c20.9-0.7,21.4-15.4,21.4-15.4C298.6,198.5,290.7,194.6,288.3,199.8z"/></g><g><path fill="#E0B500" d="M256,59.4c-78.9,0-59.3,84.5-59.3,84.5h118.6C315.3,143.9,334.9,59.4,256,59.4z"/><path fill="#EDC92C" d="M196.7,143.9h58.9l0.4-84.5C177.1,59.4,196.7,143.9,196.7,143.9z"/><path fill="#EDC92C" d="M256,57.3c-21.5,0-16.2,82-16.2,82h32.4C272.2,139.3,277.6,57.3,256,57.3z"/><path fill="#EFD050" d="M239.8,139.3h15.8l0.4-82C234.5,57.3,239.8,139.3,239.8,139.3z"/><path fill="#DBB626" d="M256,133.6c-43.1,0-78-8.5-78,3.3s34.9,17.3,78,17.3s78-5.4,78-17.3S299.1,133.6,256,133.6z"/></g></svg>