<?xml version="1.0"?><svg xmlns="http://www.w3.org/2000/svg" viewBox="0 0 30 30">    <path d="M 7 3 A 3 3 0 0 0 4 6 A 3 3 0 0 0 7 9 A 3 3 0 0 0 10 6 A 3 3 0 0 0 7 3 z M 23 3 A 3 3 0 0 0 20 6 A 3 3 0 0 0 23 9 A 3 3 0 0 0 26 6 A 3 3 0 0 0 23 3 z M 6 11 C 4.3550302 11 3 12.35503 3 14 L 3 20 A 1.0001 1.0001 0 0 0 3.9472656 21.011719 L 3.9472656 27.101562 C 3.9472656 27.537562 4.4104688 28 4.9804688 28 C 5.5244688 28 5.9757187 27.578156 6.0117188 27.035156 L 6.4492188 20.464844 C 6.4672187 20.203844 6.6842656 20 6.9472656 20 C 7.2102656 20 7.4273125 20.204797 7.4453125 20.466797 L 7.8828125 27.035156 C 7.9188125 27.577156 8.3700625 28 8.9140625 28 C 9.4840625 28 9.9472656 27.536797 9.9472656 26.966797 L 9.9472656 21.011719 A 1.0001 1.0001 0 0 0 11 20 L 11 14 C 11 12.35503 9.6449698 11 8 11 L 6 11 z M 22 11 C 20.35503 11 19 12.35503 19 14 L 19 20 A 1.0001 1.0001 0 0 0 19.947266 21.011719 L 19.947266 27.101562 C 19.947266 27.537562 20.410469 28 20.980469 28 C 21.524469 28 21.975719 27.578156 22.011719 27.035156 L 22.449219 20.464844 C 22.467219 20.203844 22.684266 20 22.947266 20 C 23.210266 20 23.427312 20.204797 23.445312 20.466797 L 23.882812 27.035156 C 23.918813 27.577156 24.370062 28 24.914062 28 C 25.484063 28 25.947266 27.536797 25.947266 26.966797 L 25.947266 21.011719 A 1.0001 1.0001 0 0 0 27 20 L 27 14 C 27 12.35503 25.64497 11 24 11 L 22 11 z M 13 14 L 13 16 L 17 16 L 17 14 L 13 14 z M 13 18 L 13 20 L 17 20 L 17 18 L 13 18 z"/></svg>