<svg xmlns="http://www.w3.org/2000/svg" viewBox="0 0 24 24"><path d="M 3 5 C 3 5 0 9.300781 0 14 C 0 17.300781 2.699219 20 6 20 C 9.300781 20 12 17.300781 12 14 C 12 12.800781 11.613281 10.507813 10.8125 9.40625 C 10.8125 9.40625 10.988281 12.792969 10.6875 14.09375 C 10.1875 16.292969 8.199219 18 6 18 C 3.800781 18 1.886719 16.199219 1.6875 14 C 1.386719 9.601563 3 5 3 5 Z M 12 14 C 12 17.300781 14.699219 20 18 20 C 21.300781 20 24 17.300781 24 14 C 24 9.300781 21 5 21 5 C 21 5 22.613281 9.601563 22.3125 14 C 22.113281 16.199219 20.199219 18 18 18 C 15.800781 18 13.8125 16.292969 13.3125 14.09375 C 13.011719 12.792969 13.1875 9.40625 13.1875 9.40625 C 12.386719 10.507813 12 12.800781 12 14 Z M 6 13 C 4.894531 13 4 13.894531 4 15 C 4 16.105469 4.894531 17 6 17 C 7.105469 17 8 16.105469 8 15 C 8 13.894531 7.105469 13 6 13 Z M 18 13 C 16.894531 13 16 13.894531 16 15 C 16 16.105469 16.894531 17 18 17 C 19.105469 17 20 16.105469 20 15 C 20 13.894531 19.105469 13 18 13 Z"/></svg>