<svg xmlns="http://www.w3.org/2000/svg" viewBox="0 0 100 100"><path fill="#c7ede6" d="M88.346,56.924c0.3-0.616,0.566-1.264,0.796-1.943c2.633-7.77-1.349-17.078-9.733-19.325c-0.906-11.384-8.906-19.193-17.941-20.526c-10.341-1.525-19.814,5.044-22.966,15.485c-3.799-1.346-7.501-1.182-10.99,0.857c-1.583,0.732-3.031,1.812-4.33,3.233c-1.907,2.086-3.147,4.719-3.652,7.495c-0.748,0.118-1.483,0.236-2.176,0.484c-4.04,1.449-6.589,4.431-7.288,8.923c-0.435,2.797,0.443,5.587,0.933,6.714c1.935,4.455,6.422,6.98,10.981,6.312c0.227-0.033,0.557,0.069,0.752,0.233c0.241,7.12,3.698,13.417,8.884,17.014c8.321,5.772,19.027,3.994,25.781-3.921c2.894,2.96,6.338,4.398,10.384,3.876c4.023-0.519,7.147-2.739,9.426-6.349c1.053,0.283,2.051,0.691,3.083,0.804c4.042,0.442,7.324-1.165,9.732-4.8c0.922-1.391,1.794-3.194,1.794-6.354C91.816,61.881,90.522,58.914,88.346,56.924z"/><path fill="#fdfcef" d="M71.705,50.889c0,0,10.616,0,10.681,0c2.452,0,4.439-1.987,4.439-4.439c0-2.139-1.513-3.924-3.527-4.344c0.023-0.187,0.039-0.377,0.039-0.57c0-2.539-2.058-4.598-4.597-4.598c-1.499,0-2.827,0.721-3.666,1.831c-0.215-2.826-2.739-5.007-5.693-4.646c-2.16,0.264-3.947,1.934-4.344,4.073c-0.127,0.686-0.114,1.352,0.013,1.977c-0.579-0.624-1.403-1.016-2.322-1.016c-1.68,0-3.052,1.308-3.16,2.961c-0.763-0.169-1.593-0.158-2.467,0.17c-1.671,0.627-2.861,2.2-2.93,3.983c-0.099,2.533,1.925,4.617,4.435,4.617c0.191,0,0.861,0,1.015,0h9.218"/><path fill="#472b29" d="M82.386,51.389H71.705c-0.276,0-0.5-0.224-0.5-0.5s0.224-0.5,0.5-0.5h10.681c2.172,0,3.939-1.768,3.939-3.939c0-1.855-1.316-3.477-3.129-3.855c-0.255-0.053-0.426-0.293-0.394-0.552c0.021-0.167,0.035-0.336,0.035-0.508c0-2.26-1.838-4.098-4.097-4.098c-1.292,0-2.483,0.595-3.267,1.633c-0.125,0.166-0.338,0.237-0.54,0.178c-0.199-0.059-0.342-0.234-0.357-0.441c-0.094-1.238-0.7-2.401-1.663-3.19c-0.973-0.797-2.203-1.149-3.471-0.997c-1.947,0.239-3.556,1.747-3.913,3.669c-0.112,0.6-0.108,1.201,0.011,1.786c0.044,0.22-0.062,0.442-0.262,0.545c-0.198,0.103-0.441,0.059-0.595-0.105c-0.512-0.553-1.206-0.856-1.955-0.856c-1.4,0-2.569,1.096-2.661,2.494c-0.01,0.145-0.082,0.279-0.199,0.366c-0.116,0.088-0.265,0.121-0.408,0.089c-0.757-0.169-1.471-0.116-2.184,0.15c-1.499,0.562-2.546,1.983-2.606,3.535c-0.042,1.083,0.347,2.109,1.097,2.889s1.758,1.209,2.839,1.209h10.233c0.276,0,0.5,0.224,0.5,0.5s-0.224,0.5-0.5,0.5H58.606c-1.355,0-2.62-0.538-3.56-1.516c-0.939-0.978-1.428-2.264-1.375-3.621c0.076-1.949,1.383-3.73,3.254-4.432c0.72-0.271,1.463-0.366,2.22-0.279c0.362-1.655,1.842-2.885,3.583-2.885c0.603,0,1.194,0.151,1.72,0.432c0.004-0.327,0.036-0.656,0.097-0.983c0.436-2.346,2.399-4.188,4.774-4.479c1.539-0.192,3.04,0.243,4.227,1.216c0.899,0.737,1.543,1.742,1.846,2.851c0.919-0.808,2.095-1.256,3.347-1.256c2.811,0,5.097,2.287,5.097,5.098c0,0.064-0.001,0.128-0.004,0.192c2.048,0.628,3.492,2.547,3.492,4.723C87.325,49.173,85.109,51.389,82.386,51.389z"/><path fill="#fdfcef" d="M69.133,41.11c-1.642-0.108-3.055,1.026-3.157,2.533c-0.013,0.187-0.004,0.371,0.023,0.55c-0.317-0.358-0.786-0.6-1.324-0.636c-0.985-0.065-1.836,0.586-1.959,1.471c-0.179-0.049-0.366-0.082-0.56-0.095c-1.437-0.094-2.674,0.898-2.762,2.216"/><path fill="#472b29" d="M59.394,47.4c-0.006,0-0.012,0-0.017-0.001c-0.138-0.009-0.242-0.128-0.233-0.266c0.098-1.454,1.447-2.574,3.028-2.449c0.117,0.007,0.235,0.022,0.354,0.044c0.26-0.877,1.161-1.496,2.166-1.42c0.377,0.024,0.73,0.139,1.035,0.329c0-0.004,0-0.007,0-0.011c0.11-1.642,1.666-2.901,3.422-2.766c0.138,0.009,0.242,0.128,0.233,0.266c-0.009,0.138-0.137,0.246-0.266,0.232c-1.519-0.088-2.8,0.935-2.891,2.301c-0.011,0.166-0.004,0.333,0.021,0.495c0.017,0.109-0.041,0.218-0.141,0.265c-0.099,0.047-0.219,0.023-0.293-0.061c-0.289-0.325-0.698-0.521-1.153-0.553c-0.844-0.046-1.589,0.497-1.695,1.256c-0.01,0.071-0.05,0.135-0.11,0.175s-0.133,0.05-0.204,0.032c-0.17-0.046-0.341-0.075-0.51-0.087c-1.293-0.062-2.417,0.806-2.497,1.984C59.635,47.298,59.525,47.4,59.394,47.4z"/><path fill="#fdfcef" d="M84.183,42.625c-1.543-0.727-3.327-0.213-3.985,1.15c-0.082,0.169-0.142,0.344-0.182,0.521"/><path fill="#472b29" d="M80.015,44.546c-0.018,0-0.037-0.002-0.055-0.006c-0.135-0.031-0.219-0.165-0.188-0.3c0.044-0.197,0.112-0.39,0.201-0.573c0.717-1.484,2.654-2.053,4.317-1.269c0.125,0.06,0.179,0.208,0.12,0.333c-0.059,0.126-0.209,0.176-0.333,0.12c-1.417-0.67-3.056-0.205-3.654,1.032c-0.072,0.149-0.127,0.307-0.164,0.468C80.233,44.467,80.13,44.546,80.015,44.546z"/><path fill="#fff" d="M19.011 47.96H8.98c-.276 0-.5-.224-.5-.5s.224-.5.5-.5h10.031c.276 0 .5.224.5.5S19.287 47.96 19.011 47.96zM21.891 47.96h-1.446c-.276 0-.5-.224-.5-.5s.224-.5.5-.5h1.446c.276 0 .5.224.5.5S22.168 47.96 21.891 47.96zM25.946 47.96H23.4c-.276 0-.5-.224-.5-.5s.224-.5.5-.5h2.546c.276 0 .5.224.5.5S26.223 47.96 25.946 47.96zM25.946 49.825H16.33c-.276 0-.5-.224-.5-.5s.224-.5.5-.5h9.616c.276 0 .5.224.5.5S26.223 49.825 25.946 49.825zM14.598 49.825h-.58c-.276 0-.5-.224-.5-.5s.224-.5.5-.5h.58c.276 0 .5.224.5.5S14.875 49.825 14.598 49.825zM12.222 49.825h-1.456c-.276 0-.5-.224-.5-.5s.224-.5.5-.5h1.456c.276 0 .5.224.5.5S12.498 49.825 12.222 49.825zM21.357 46.095H16.33c-.276 0-.5-.224-.5-.5s.224-.5.5-.5h5.027c.276 0 .5.224.5.5S21.634 46.095 21.357 46.095zM21.357 44.23H20.1c-.276 0-.5-.224-.5-.5s.224-.5.5-.5h1.257c.276 0 .5.224.5.5S21.634 44.23 21.357 44.23zM18.089 51.69H16.33c-.276 0-.5-.224-.5-.5s.224-.5.5-.5h1.759c.276 0 .5.224.5.5S18.365 51.69 18.089 51.69z"/><path fill="#64a3e2" d="M30.888 29.92H71.104V70.136H30.888z" transform="rotate(-5.557 50.996 50.052)"/><path fill="#472b29" d="M32.925,72.685c-0.162,0-0.319-0.056-0.445-0.16c-0.144-0.117-0.234-0.288-0.252-0.473l-3.886-40.028c-0.037-0.385,0.244-0.727,0.629-0.764l40.028-3.886c0.187-0.024,0.369,0.037,0.513,0.156c0.144,0.117,0.234,0.288,0.252,0.473l3.886,40.028c0.037,0.385-0.244,0.727-0.629,0.764l-40.028,3.886C32.97,72.684,32.947,72.685,32.925,72.685z M29.803,32.585l3.75,38.635l38.635-3.75l-3.75-38.635L29.803,32.585z"/><path fill="#fff" d="M36.204,68.499c-0.115,0-0.228-0.04-0.318-0.114c-0.102-0.084-0.167-0.205-0.18-0.338l-3.18-32.763c-0.027-0.274,0.174-0.519,0.449-0.546l32.763-3.181c0.129-0.01,0.263,0.027,0.366,0.112c0.102,0.084,0.167,0.205,0.18,0.338l3.18,32.763c0.013,0.132-0.027,0.264-0.111,0.365c-0.084,0.103-0.206,0.167-0.338,0.181l-32.763,3.181C36.237,68.498,36.221,68.499,36.204,68.499z M33.57,35.686l3.083,31.768l28.109-2.729l0,0l3.658-0.354l-3.083-31.768L33.57,35.686z"/><g opacity=".37"><path fill="#fff" d="M33.789 40.813c-.127 0-.236-.097-.249-.226-.013-.138.087-.26.225-.273l32.27-3.133c.128-.016.26.088.273.225.013.138-.087.26-.225.273l-32.27 3.133C33.806 40.813 33.798 40.813 33.789 40.813zM34.325 46.329c-.127 0-.236-.097-.249-.226-.013-.138.087-.26.225-.273l32.27-3.133c.133-.01.259.088.273.225.013.138-.087.26-.225.273l-32.27 3.133C34.342 46.329 34.333 46.329 34.325 46.329zM35.396 57.36c-.127 0-.236-.097-.249-.226-.013-.138.087-.26.225-.273l29.086-2.823c.13-.013.26.088.273.225.013.138-.087.26-.225.273l-3.359.326c-.002 0-.005 0-.008 0L35.42 57.359C35.412 57.36 35.404 57.36 35.396 57.36zM34.86 51.844c-.127 0-.236-.097-.249-.226-.013-.138.087-.26.225-.273l32.516-3.156c.131-.012.259.087.273.225.013.138-.087.26-.225.273l-32.516 3.156C34.877 51.844 34.869 51.844 34.86 51.844z"/><path fill="#fff" d="M35.932,62.875c-0.127,0-0.236-0.097-0.249-0.226c-0.013-0.138,0.087-0.26,0.225-0.273l32.021-3.108l-0.487-5.018l-2.935,0.285c-0.133,0.022-0.26-0.087-0.273-0.225c-0.013-0.138,0.087-0.26,0.225-0.273l3.184-0.31c0.071-0.006,0.132,0.014,0.183,0.056c0.051,0.042,0.083,0.104,0.09,0.169l0.536,5.516c0.013,0.138-0.087,0.26-0.225,0.273l-32.27,3.133C35.948,62.875,35.94,62.875,35.932,62.875z"/></g><g opacity=".37"><path fill="#fff" d="M58.078 65.877c-.127 0-.236-.097-.249-.226l-3.133-32.27c-.013-.138.087-.26.225-.273.127-.017.26.088.273.225l3.133 32.27c.013.138-.087.26-.225.273C58.094 65.877 58.086 65.877 58.078 65.877zM47.046 66.948c-.127 0-.236-.097-.249-.226l-3.133-32.27c-.013-.138.087-.26.225-.273.132-.013.259.088.273.225l3.133 32.27c.013.138-.087.26-.225.273C47.062 66.948 47.054 66.948 47.046 66.948zM52.561 66.413c-.127 0-.236-.097-.249-.226l-3.132-32.27c-.013-.138.087-.26.225-.273.13-.011.26.087.273.225l3.132 32.27c.013.138-.087.26-.225.273C52.578 66.413 52.57 66.413 52.561 66.413zM41.53 67.484c-.127 0-.236-.097-.249-.226l-3.133-32.27c-.013-.138.087-.26.225-.273.126-.016.26.088.273.225l3.133 32.27c.013.138-.087.26-.225.273C41.547 67.484 41.538 67.484 41.53 67.484zM63.593 65.342c-.127 0-.236-.097-.249-.226l-3.133-32.271c-.013-.138.087-.26.225-.273.134-.014.259.088.273.225l3.133 32.271c.013.138-.087.26-.225.273C63.61 65.342 63.601 65.342 63.593 65.342z"/></g><path fill="#fff" d="M68.036 21.639h-10.03c-.276 0-.5-.224-.5-.5s.224-.5.5-.5h10.03c.276 0 .5.224.5.5S68.312 21.639 68.036 21.639zM70.917 21.639h-1.446c-.276 0-.5-.224-.5-.5s.224-.5.5-.5h1.446c.276 0 .5.224.5.5S71.194 21.639 70.917 21.639zM74.972 21.639h-2.546c-.276 0-.5-.224-.5-.5s.224-.5.5-.5h2.546c.276 0 .5.224.5.5S75.248 21.639 74.972 21.639zM74.972 23.504h-9.616c-.276 0-.5-.224-.5-.5s.224-.5.5-.5h9.616c.276 0 .5.224.5.5S75.248 23.504 74.972 23.504zM63.624 23.504h-.58c-.276 0-.5-.224-.5-.5s.224-.5.5-.5h.58c.276 0 .5.224.5.5S63.9 23.504 63.624 23.504zM61.247 23.504h-1.456c-.276 0-.5-.224-.5-.5s.224-.5.5-.5h1.456c.276 0 .5.224.5.5S61.523 23.504 61.247 23.504zM70.383 19.774h-5.027c-.276 0-.5-.224-.5-.5s.224-.5.5-.5h5.027c.276 0 .5.224.5.5S70.659 19.774 70.383 19.774zM70.383 17.91h-1.257c-.276 0-.5-.224-.5-.5s.224-.5.5-.5h1.257c.276 0 .5.224.5.5S70.659 17.91 70.383 17.91zM67.114 25.369h-1.759c-.276 0-.5-.224-.5-.5s.224-.5.5-.5h1.759c.276 0 .5.224.5.5S67.39 25.369 67.114 25.369z"/><path fill="#fdfcef" d="M40.534,72.734c1.71,0,3.194,0,3.215,0c1.916,0,3.469-1.52,3.469-3.396c0-1.636-1.182-3.001-2.756-3.323c0.018-0.143,0.031-0.288,0.031-0.436c0-1.942-1.609-3.517-3.593-3.517c-1.172,0-2.209,0.551-2.865,1.401c-0.168-2.162-2.141-3.83-4.45-3.554c-1.688,0.202-3.084,1.479-3.395,3.116c-0.1,0.525-0.089,1.034,0.01,1.512c-0.453-0.477-1.097-0.777-1.814-0.777c-1.313,0-2.385,1.001-2.47,2.265c-0.596-0.129-1.245-0.121-1.928,0.13c-1.306,0.48-2.236,1.683-2.29,3.047c-0.077,1.937,1.504,3.532,3.467,3.532c0.149,0,0.673,0,0.794,0h7.204 M34.652,72.734h0.327"/><path fill="#472b29" d="M43.748,73.234h-3.214c-0.276,0-0.5-0.224-0.5-0.5s0.224-0.5,0.5-0.5h3.214c1.638,0,2.97-1.299,2.97-2.896c0-1.362-0.991-2.554-2.356-2.832c-0.256-0.053-0.429-0.293-0.396-0.553c0.016-0.123,0.026-0.248,0.026-0.374c0-1.663-1.388-3.017-3.093-3.017c-0.978,0-1.877,0.439-2.47,1.206c-0.126,0.165-0.341,0.231-0.539,0.174c-0.198-0.06-0.339-0.234-0.355-0.44c-0.071-0.913-0.506-1.741-1.227-2.332c-0.742-0.61-1.686-0.879-2.665-0.765c-1.475,0.177-2.694,1.293-2.963,2.713c-0.084,0.443-0.082,0.887,0.008,1.317c0.045,0.219-0.06,0.441-0.258,0.545c-0.197,0.103-0.44,0.062-0.594-0.099c-0.381-0.401-0.896-0.622-1.452-0.622c-1.038,0-1.903,0.79-1.971,1.799c-0.01,0.146-0.082,0.279-0.199,0.366c-0.117,0.089-0.266,0.12-0.407,0.089c-0.568-0.123-1.108-0.087-1.649,0.111c-1.129,0.414-1.917,1.458-1.963,2.597c-0.031,0.782,0.253,1.526,0.8,2.096c0.568,0.591,1.337,0.916,2.167,0.916h7.998c0.276,0,0.5,0.224,0.5,0.5s-0.224,0.5-0.5,0.5h-7.998c-1.089,0-2.142-0.446-2.889-1.224c-0.737-0.767-1.12-1.771-1.078-2.827c0.061-1.539,1.113-2.944,2.617-3.497c0.549-0.201,1.116-0.277,1.688-0.228c0.332-1.269,1.506-2.198,2.882-2.198c0.431,0,0.854,0.094,1.241,0.269c0.011-0.198,0.035-0.397,0.073-0.597c0.35-1.844,1.923-3.291,3.827-3.519c1.25-0.154,2.463,0.199,3.418,0.983c0.668,0.548,1.147,1.255,1.399,2.048c0.717-0.568,1.61-0.882,2.557-0.882c2.257,0,4.093,1.802,4.093,4.017c0,0.02,0,0.04,0,0.06c1.604,0.519,2.727,2.011,2.727,3.699C47.718,71.487,45.937,73.234,43.748,73.234z M34.978,73.234h-0.326c-0.276,0-0.5-0.224-0.5-0.5s0.224-0.5,0.5-0.5h0.326c0.276,0,0.5,0.224,0.5,0.5S35.255,73.234,34.978,73.234z"/><path fill="#472b29" d="M42.198 67.942c-.018 0-.036-.002-.055-.006-.135-.03-.219-.164-.189-.299.034-.152.086-.3.156-.44.555-1.123 2.085-1.537 3.41-.924.125.058.18.206.122.331-.059.126-.207.179-.332.122-1.081-.5-2.315-.19-2.751.692-.051.104-.09.215-.116.328C42.416 67.863 42.313 67.942 42.198 67.942zM37.514 73.234h-1.005c-.276 0-.5-.224-.5-.5s.224-.5.5-.5h1.005c.276 0 .5.224.5.5S37.79 73.234 37.514 73.234z"/><path fill="#fff" d="M44.039,59.109c-0.058,0-0.114-0.02-0.159-0.057c-0.051-0.042-0.083-0.104-0.09-0.169l-1.239-12.762c-0.007-0.076,0.021-0.152,0.076-0.205l7.236-6.91c0.082-0.079,0.203-0.092,0.301-0.034l8.979,5.336c0.068,0.041,0.113,0.111,0.121,0.19l1.239,12.762c0.013,0.138-0.087,0.26-0.225,0.273l-16.215,1.574C44.056,59.109,44.047,59.109,44.039,59.109z M43.061,46.194l1.203,12.392l15.718-1.525l-1.203-12.387l-8.707-5.175L43.061,46.194z"/><path fill="#472b29" d="M55.209,76.197c-0.128,0-0.256-0.049-0.354-0.146c-0.195-0.195-0.195-0.512,0-0.707l2.785-2.785c0.195-0.195,0.512-0.195,0.707,0s0.195,0.512,0,0.707l-2.785,2.785C55.465,76.148,55.337,76.197,55.209,76.197z"/><path fill="#88ae45" d="M43.339,87.698l-0.131-0.131c-1.058-1.058-1.058-2.79,0-3.848l8.088-8.088c1.058-1.058,2.79-1.058,3.848,0l0.131,0.131c1.058,1.058,1.058,2.79,0,3.848l-8.088,8.088C46.128,88.756,44.397,88.756,43.339,87.698z"/><path fill="#472b29" d="M45.263,88.992c-0.862,0-1.671-0.334-2.277-0.94l-0.129-0.129c-1.257-1.257-1.257-3.301-0.001-4.557l8.088-8.088c1.255-1.256,3.298-1.257,4.555,0l0.131,0.132c0.606,0.605,0.94,1.414,0.94,2.276c0,0.863-0.334,1.672-0.94,2.277l-8.087,8.088C46.934,88.658,46.125,88.992,45.263,88.992z M53.22,75.335c-0.569,0-1.138,0.217-1.571,0.649l-8.088,8.088c-0.866,0.866-0.866,2.275,0,3.142l0.129,0.129l0.001,0.001c0.835,0.836,2.306,0.836,3.141,0l8.087-8.088c0.417-0.417,0.647-0.975,0.647-1.57c0-0.595-0.23-1.152-0.647-1.57l-0.131-0.132C54.357,75.552,53.788,75.335,53.22,75.335z"/><path fill="#d1dc82" d="M54.913,75.982c-0.923-0.923-2.374-0.984-3.223-0.135l-0.154,0.154l0.336,0.336l3.022,3.022l0.154-0.154C55.897,78.356,55.837,76.905,54.913,75.982z"/><path fill="#472b29" d="M54.899,80.139c-0.096,0-0.192-0.036-0.265-0.109l-3.581-3.581c-0.146-0.146-0.146-0.385,0-0.531s0.384-0.146,0.53,0l3.581,3.581c0.146,0.146,0.146,0.385,0,0.531C55.091,80.103,54.995,80.139,54.899,80.139z"/><path fill="#77cbd2" d="M66.773 54.285999999999994A9.847 9.847 0 1 0 66.773 73.97999999999999A9.847 9.847 0 1 0 66.773 54.285999999999994Z" opacity=".74" transform="rotate(-45.001 66.772 64.135)"/><path fill="#fdfcef" d="M75.5,55.406c-4.834-4.834-12.672-4.834-17.506,0c-4.834,4.834-4.834,12.672,0,17.506c4.834,4.834,12.672,4.834,17.506,0C80.334,68.078,80.334,60.24,75.5,55.406z M73.71,71.121c-3.845,3.845-10.08,3.845-13.925,0c-3.845-3.845-3.845-10.08,0-13.925c3.845-3.845,10.08-3.845,13.925,0C77.555,61.042,77.555,67.276,73.71,71.121z"/><path fill="#472b29" d="M66.747 77.031c-3.298 0-6.596-1.255-9.106-3.766-5.021-5.021-5.021-13.191 0-18.213s13.191-5.021 18.213 0 5.021 13.191 0 18.213C73.343 75.776 70.045 77.031 66.747 77.031zM66.747 52.286c-3.042 0-6.083 1.158-8.399 3.474-4.631 4.632-4.631 12.167 0 16.799 4.632 4.631 12.167 4.631 16.799 0 4.631-4.632 4.631-12.167 0-16.799C72.83 53.444 69.789 52.286 66.747 52.286zM66.747 74.506c-2.764 0-5.362-1.077-7.316-3.031s-3.03-4.553-3.03-7.316 1.076-5.361 3.03-7.315 4.552-3.03 7.316-3.03c2.764 0 5.362 1.076 7.316 3.03 1.955 1.954 3.031 4.552 3.031 7.315s-1.076 5.362-3.031 7.316l0 0 0 0C72.109 73.429 69.511 74.506 66.747 74.506zM66.747 54.813c-2.497 0-4.844.972-6.609 2.737-1.765 1.765-2.737 4.112-2.737 6.608 0 2.497.972 4.844 2.737 6.609s4.112 2.738 6.609 2.738 4.844-.973 6.609-2.738l0 0c1.766-1.766 2.738-4.112 2.738-6.609 0-2.496-.972-4.844-2.738-6.608C71.591 55.785 69.244 54.813 66.747 54.813zM44.64 88.542c-.053 0-.102-.034-.119-.087l-1.378-4.281c-.021-.065.015-.136.081-.157.065-.02.136.016.157.081l1.378 4.281c.021.065-.015.136-.081.157C44.666 88.54 44.653 88.542 44.64 88.542zM45.513 88.245c-.054 0-.104-.035-.12-.089l-1.561-5.244c-.02-.066.018-.137.084-.156.067-.016.136.02.155.084l1.561 5.244c.02.066-.018.137-.084.156C45.536 88.243 45.524 88.245 45.513 88.245zM46.039 86.402c-.054 0-.104-.035-.12-.089l-1.307-4.39c-.02-.066.018-.137.084-.156.066-.015.136.019.155.084l1.307 4.39c.02.066-.018.137-.084.156C46.063 86.4 46.051 86.402 46.039 86.402zM46.571 84.478c-.054 0-.104-.035-.12-.089l-.921-3.095c-.02-.066.018-.137.084-.156.067-.015.136.02.155.084l.921 3.095c.02.066-.018.137-.084.156C46.595 84.476 46.582 84.478 46.571 84.478z"/></svg>