<svg xmlns="http://www.w3.org/2000/svg" viewBox="0 0 100 100"><path fill="#c7ede6" d="M88.473,56.124c0.299-0.614,0.563-1.259,0.792-1.935c2.622-7.739-1.343-17.008-9.693-19.245c-0.903-11.338-8.87-19.115-17.867-20.442c-10.298-1.519-19.733,5.023-22.872,15.422c-3.784-1.34-7.471-1.177-10.945,0.853c-1.576,0.729-3.018,1.805-4.312,3.22c-1.9,2.077-3.134,4.7-3.637,7.465c-0.745,0.117-1.477,0.235-2.167,0.482c-4.023,1.443-6.562,4.413-7.258,8.886c-0.434,2.785,0.441,5.564,0.929,6.687c1.927,4.436,6.396,6.952,10.936,6.286c0.226-0.033,0.554,0.069,0.749,0.232c0.24,7.091,3.683,13.362,8.848,16.944c8.287,5.748,18.949,3.977,25.675-3.905c2.882,2.948,6.312,4.38,10.342,3.86c4.006-0.517,7.117-2.728,9.387-6.322c1.048,0.282,2.043,0.689,3.071,0.801c4.025,0.44,7.294-1.161,9.692-4.78c0.918-1.385,1.786-3.181,1.786-6.328C91.929,61.06,90.641,58.105,88.473,56.124z"/><path fill="#fdfcef" d="M76.628,49.522c0,0,11.643,0,11.714,0c2.689,0,4.868-2.18,4.868-4.869c0-2.346-1.659-4.303-3.868-4.765c0.025-0.205,0.043-0.413,0.043-0.625c0-2.785-2.257-5.042-5.042-5.042c-1.644,0-3.1,0.791-4.02,2.008c-0.235-3.1-3.004-5.491-6.244-5.095c-2.369,0.29-4.328,2.121-4.764,4.467c-0.14,0.752-0.125,1.483,0.014,2.168c-0.635-0.684-1.539-1.115-2.546-1.115c-1.843,0-3.347,1.435-3.466,3.248c-0.837-0.185-1.747-0.173-2.706,0.187c-1.832,0.688-3.137,2.413-3.214,4.369c-0.108,2.778,2.111,5.064,4.864,5.064c0.209,0,0.944,0,1.114,0h10.109"/><path fill="#472b29" d="M88.341,50.022H76.627c-0.276,0-0.5-0.224-0.5-0.5s0.224-0.5,0.5-0.5h11.714c2.408,0,4.368-1.96,4.368-4.369c0-2.057-1.459-3.855-3.47-4.275c-0.254-0.053-0.426-0.292-0.394-0.551c0.022-0.185,0.038-0.373,0.038-0.564c0-2.505-2.037-4.542-4.542-4.542c-1.432,0-2.752,0.66-3.622,1.81c-0.125,0.166-0.342,0.237-0.539,0.178c-0.2-0.059-0.342-0.234-0.358-0.441c-0.104-1.371-0.774-2.659-1.841-3.533c-1.077-0.883-2.441-1.274-3.844-1.104c-2.156,0.264-3.938,1.935-4.333,4.063c-0.123,0.664-0.119,1.33,0.013,1.978c0.044,0.22-0.062,0.442-0.262,0.544c-0.197,0.103-0.441,0.061-0.595-0.104c-0.571-0.616-1.346-0.955-2.18-0.955c-1.562,0-2.864,1.221-2.967,2.78c-0.01,0.146-0.082,0.28-0.199,0.367c-0.116,0.087-0.266,0.119-0.408,0.088c-0.834-0.184-1.629-0.13-2.421,0.167c-1.661,0.624-2.823,2.199-2.89,3.92c-0.047,1.201,0.385,2.339,1.216,3.203c0.831,0.865,1.949,1.341,3.148,1.341h11.223c0.276,0,0.5,0.224,0.5,0.5s-0.224,0.5-0.5,0.5H62.261c-1.474,0-2.848-0.585-3.869-1.647c-1.021-1.062-1.553-2.46-1.495-3.936c0.083-2.118,1.505-4.055,3.538-4.818c0.796-0.299,1.618-0.398,2.456-0.297c0.377-1.815,1.99-3.168,3.891-3.168c0.681,0,1.347,0.178,1.935,0.506c-0.001-0.383,0.035-0.768,0.106-1.151c0.474-2.552,2.609-4.556,5.194-4.872c1.674-0.207,3.308,0.265,4.599,1.323c0.999,0.819,1.708,1.941,2.029,3.178c1.008-0.911,2.31-1.418,3.697-1.418c3.056,0,5.542,2.486,5.542,5.542c0,0.083-0.002,0.165-0.007,0.246c2.245,0.671,3.832,2.767,3.832,5.145C93.709,47.614,91.301,50.022,88.341,50.022z"/><path fill="#fdfcef" d="M73.806,38.798c-1.801-0.118-3.351,1.126-3.462,2.778c-0.014,0.205-0.005,0.407,0.025,0.604c-0.347-0.392-0.862-0.659-1.452-0.697c-1.08-0.071-2.013,0.643-2.149,1.613c-0.197-0.054-0.401-0.09-0.614-0.104c-1.576-0.103-2.932,0.985-3.029,2.431"/><path fill="#472b29" d="M63.125,45.672c-0.006,0-0.011,0-0.017,0c-0.138-0.009-0.242-0.128-0.232-0.266c0.105-1.581,1.558-2.781,3.295-2.664c0.134,0.009,0.27,0.026,0.406,0.053c0.273-0.964,1.259-1.63,2.356-1.562c0.416,0.027,0.817,0.162,1.157,0.382c0.001-0.019,0.002-0.037,0.004-0.056c0.119-1.787,1.781-3.131,3.728-3.011c0.138,0.009,0.242,0.128,0.232,0.266c-0.008,0.132-0.118,0.233-0.249,0.233c-0.005,0-0.011,0-0.017,0c-1.668-0.115-3.095,1.033-3.196,2.545c-0.012,0.185-0.004,0.37,0.023,0.549c0.017,0.109-0.04,0.217-0.141,0.264s-0.221,0.023-0.294-0.06c-0.316-0.357-0.783-0.581-1.281-0.614c-0.952-0.065-1.768,0.553-1.884,1.398c-0.011,0.071-0.051,0.135-0.11,0.174s-0.135,0.052-0.203,0.033c-0.192-0.052-0.377-0.083-0.564-0.096c-1.431-0.101-2.676,0.891-2.765,2.198C63.366,45.571,63.256,45.672,63.125,45.672z"/><path fill="#fdfcef" d="M90.313,40.46c-1.692-0.798-3.649-0.233-4.371,1.262c-0.09,0.186-0.156,0.377-0.2,0.571"/><path fill="#472b29" d="M85.742,42.542c-0.018,0-0.036-0.002-0.055-0.006c-0.135-0.03-0.22-0.164-0.189-0.299c0.049-0.215,0.123-0.425,0.22-0.625c0.778-1.615,2.891-2.235,4.702-1.379c0.125,0.059,0.179,0.208,0.12,0.333c-0.06,0.125-0.209,0.178-0.333,0.12c-1.569-0.738-3.378-0.225-4.039,1.145c-0.081,0.166-0.142,0.34-0.182,0.518C85.959,42.464,85.856,42.542,85.742,42.542z"/><path fill="#fff" d="M18.427 48.194H8.438c-.276 0-.5-.224-.5-.5s.224-.5.5-.5h9.989c.276 0 .5.224.5.5S18.703 48.194 18.427 48.194zM21.296 48.194h-1.439c-.276 0-.5-.224-.5-.5s.224-.5.5-.5h1.439c.276 0 .5.224.5.5S21.573 48.194 21.296 48.194zM25.334 48.194h-2.535c-.276 0-.5-.224-.5-.5s.224-.5.5-.5h2.535c.276 0 .5.224.5.5S25.611 48.194 25.334 48.194zM25.334 50.052h-9.577c-.276 0-.5-.224-.5-.5s.224-.5.5-.5h9.577c.276 0 .5.224.5.5S25.611 50.052 25.334 50.052zM14.033 50.052h-.577c-.276 0-.5-.224-.5-.5s.224-.5.5-.5h.577c.276 0 .5.224.5.5S14.309 50.052 14.033 50.052zM11.665 50.052h-1.45c-.276 0-.5-.224-.5-.5s.224-.5.5-.5h1.45c.276 0 .5.224.5.5S11.942 50.052 11.665 50.052zM20.764 46.337h-5.007c-.276 0-.5-.224-.5-.5s.224-.5.5-.5h5.007c.276 0 .5.224.5.5S21.04 46.337 20.764 46.337zM20.764 44.48h-1.252c-.276 0-.5-.224-.5-.5s.224-.5.5-.5h1.252c.276 0 .5.224.5.5S21.04 44.48 20.764 44.48zM17.509 51.909h-1.752c-.276 0-.5-.224-.5-.5s.224-.5.5-.5h1.752c.276 0 .5.224.5.5S17.786 51.909 17.509 51.909zM71.387 22.025h-9.989c-.276 0-.5-.224-.5-.5s.224-.5.5-.5h9.989c.276 0 .5.224.5.5S71.663 22.025 71.387 22.025zM74.256 22.025h-1.439c-.276 0-.5-.224-.5-.5s.224-.5.5-.5h1.439c.276 0 .5.224.5.5S74.533 22.025 74.256 22.025zM78.294 22.025h-2.536c-.276 0-.5-.224-.5-.5s.224-.5.5-.5h2.536c.276 0 .5.224.5.5S78.571 22.025 78.294 22.025zM76.277 18.31H66.7c-.276 0-.5-.224-.5-.5s.224-.5.5-.5h9.577c.276 0 .5.224.5.5S76.553 18.31 76.277 18.31zM64.975 18.31h-.577c-.276 0-.5-.224-.5-.5s.224-.5.5-.5h.577c.276 0 .5.224.5.5S65.251 18.31 64.975 18.31zM62.608 18.31h-1.45c-.276 0-.5-.224-.5-.5s.224-.5.5-.5h1.45c.276 0 .5.224.5.5S62.884 18.31 62.608 18.31zM73.724 20.168h-5.007c-.276 0-.5-.224-.5-.5s.224-.5.5-.5h5.007c.276 0 .5.224.5.5S74 20.168 73.724 20.168z"/><path fill="#fff" d="M73.724 18.31h-1.252c-.276 0-.5-.224-.5-.5s.224-.5.5-.5h1.252c.276 0 .5.224.5.5S74 18.31 73.724 18.31zM67.268 20.168h-1.752c-.276 0-.5-.224-.5-.5s.224-.5.5-.5h1.752c.276 0 .5.224.5.5S67.544 20.168 67.268 20.168z"/><path fill="#78a0cf" d="M66.646,73.023H37.111c-3.766,0-6.847-3.081-6.847-6.847V36.641c0-3.766,3.081-6.847,6.847-6.847h29.535c3.766,0,6.847,3.081,6.847,6.847v29.535C73.494,69.942,70.412,73.023,66.646,73.023z"/><path fill="#472b29" d="M66.647,73.723H37.112c-4.162,0-7.548-3.386-7.548-7.547V36.641c0-4.162,3.386-7.547,7.548-7.547h29.535c4.161,0,7.547,3.386,7.547,7.547v29.535C74.194,70.338,70.808,73.723,66.647,73.723z M37.112,30.494c-3.39,0-6.147,2.757-6.147,6.147v29.535c0,3.39,2.758,6.147,6.147,6.147h29.535c3.39,0,6.146-2.757,6.146-6.147V36.641c0-3.39-2.757-6.147-6.146-6.147H37.112z"/><path fill="#fdfcee" d="M64.857,69.936H38.901c-3.052,0-5.549-2.497-5.549-5.549V38.431c0-3.052,2.497-5.549,5.549-5.549h25.956c3.052,0,5.549,2.497,5.549,5.549v25.956C70.406,67.439,67.909,69.936,64.857,69.936z"/><path fill="#472b29" d="M64.775 70.286H38.983c-3.298 0-5.98-2.683-5.98-5.981V38.513c0-3.298 2.683-5.981 5.98-5.981h24.562c.193 0 .35.157.35.35s-.156.35-.35.35H38.983c-2.912 0-5.281 2.369-5.281 5.281v25.792c0 2.912 2.369 5.281 5.281 5.281h25.792c2.912 0 5.281-2.369 5.281-5.281V50.036c0-.193.156-.35.35-.35s.35.157.35.35v14.268C70.755 67.602 68.073 70.286 64.775 70.286zM70.406 48.328c-.193 0-.35-.157-.35-.35v-2.745c0-.193.156-.35.35-.35s.35.157.35.35v2.745C70.755 48.171 70.599 48.328 70.406 48.328z"/><g><path fill="#472b29" d="M70.406,44.211c-0.193,0-0.35-0.157-0.35-0.35v-1.373c0-0.193,0.156-0.35,0.35-0.35s0.35,0.157,0.35,0.35v1.373C70.755,44.054,70.599,44.211,70.406,44.211z"/></g><g><path fill="#fdfcef" d="M40.612,75.779c1.876,0,3.502,0,3.526,0c2.101,0,3.805-1.667,3.805-3.724c0-1.794-1.297-3.292-3.023-3.645c0.02-0.157,0.033-0.316,0.033-0.478c0-2.13-1.764-3.857-3.941-3.857c-1.285,0-2.423,0.605-3.142,1.536c-0.184-2.371-2.348-4.2-4.88-3.897c-1.851,0.222-3.383,1.622-3.723,3.417c-0.109,0.576-0.098,1.134,0.011,1.659c-0.496-0.523-1.203-0.853-1.99-0.853c-1.44,0-2.616,1.097-2.709,2.484c-0.654-0.142-1.365-0.132-2.115,0.143c-1.432,0.526-2.452,1.846-2.512,3.342c-0.085,2.125,1.65,3.873,3.802,3.873c0.163,0,0.738,0,0.87,0h7.901 M34.161,75.779h0.358"/><path fill="#472b29" d="M44.138,76.279h-3.526c-0.276,0-0.5-0.224-0.5-0.5s0.224-0.5,0.5-0.5h3.526c1.822,0,3.305-1.446,3.305-3.224c0-1.517-1.103-2.844-2.623-3.155c-0.256-0.052-0.428-0.292-0.396-0.552c0.017-0.136,0.029-0.275,0.029-0.416c0-1.851-1.544-3.357-3.441-3.357c-1.087,0-2.088,0.489-2.746,1.342c-0.125,0.164-0.343,0.233-0.538,0.174c-0.198-0.059-0.34-0.234-0.355-0.44c-0.079-1.015-0.563-1.935-1.364-2.592c-0.825-0.677-1.882-0.978-2.958-0.848c-1.639,0.196-2.992,1.436-3.292,3.014c-0.094,0.493-0.091,0.985,0.009,1.463c0.046,0.219-0.06,0.441-0.258,0.545c-0.197,0.104-0.439,0.064-0.595-0.099c-0.426-0.449-1.003-0.696-1.627-0.696c-1.163,0-2.134,0.886-2.209,2.017c-0.01,0.145-0.082,0.279-0.198,0.366c-0.116,0.088-0.264,0.12-0.406,0.089c-0.636-0.138-1.235-0.097-1.837,0.124c-1.257,0.461-2.135,1.624-2.185,2.893c-0.035,0.871,0.281,1.699,0.89,2.333c0.633,0.658,1.489,1.02,2.412,1.02h8.771c0.276,0,0.5,0.224,0.5,0.5s-0.224,0.5-0.5,0.5h-8.771c-1.181,0-2.322-0.484-3.133-1.327c-0.8-0.832-1.214-1.921-1.169-3.066c0.066-1.668,1.208-3.192,2.839-3.791c0.608-0.224,1.235-0.303,1.873-0.244c0.343-1.39,1.623-2.414,3.123-2.414c0.49,0,0.972,0.112,1.406,0.32c0.009-0.239,0.036-0.479,0.082-0.72c0.38-2.002,2.089-3.573,4.155-3.82c1.359-0.16,2.675,0.217,3.711,1.068c0.744,0.61,1.273,1.402,1.541,2.291c0.787-0.645,1.777-1.001,2.829-1.001c2.449,0,4.441,1.955,4.441,4.357c0,0.033-0.001,0.067-0.001,0.1c1.757,0.553,2.99,2.18,2.99,4.023C48.443,74.385,46.512,76.279,44.138,76.279z M34.52,76.279h-0.358c-0.276,0-0.5-0.224-0.5-0.5s0.224-0.5,0.5-0.5h0.358c0.276,0,0.5,0.224,0.5,0.5S34.796,76.279,34.52,76.279z"/><path fill="#472b29" d="M42.437,70.499c-0.018,0-0.036-0.002-0.055-0.006c-0.135-0.03-0.22-0.164-0.189-0.299c0.037-0.164,0.094-0.324,0.169-0.477c0.604-1.221,2.268-1.669,3.708-1.003c0.126,0.058,0.181,0.207,0.122,0.332c-0.058,0.125-0.209,0.179-0.331,0.122c-1.201-0.554-2.566-0.207-3.051,0.771c-0.058,0.118-0.102,0.241-0.129,0.365C42.655,70.42,42.551,70.499,42.437,70.499z"/><g><path fill="#472b29" d="M37.299,76.279h-1.103c-0.276,0-0.5-0.224-0.5-0.5s0.224-0.5,0.5-0.5h1.103c0.276,0,0.5,0.224,0.5,0.5S37.576,76.279,37.299,76.279z"/></g></g><g><path fill="#c5def0" d="M59.415,56.916c0.03-4.2-2.421-6.654-4.905-8.015l0.44-7.791h-3.005h-2.83l0.44,7.791c-2.484,1.361-4.935,3.851-4.905,8.051c0.008,1.121-0.01,2.358-0.009,2.366c0.265,1.794,3.718,2.545,7.266,2.545c0.013,0,0.025,0,0.038,0c0,0,0.2,0,0.212,0c3.548,0,7.001-0.769,7.266-2.563C59.425,59.291,59.407,58.036,59.415,56.916z"/><path fill="#472b29" d="M52.158,62.237h-0.212c-1.73,0-7.282-0.207-7.676-2.865c-0.001-0.01-0.004-0.072-0.003-0.182c0.004-0.34,0.015-1.326,0.009-2.236c-0.032-4.465,2.594-6.949,4.892-8.266l-0.426-7.557c-0.006-0.103,0.03-0.204,0.102-0.279c0.07-0.075,0.169-0.117,0.272-0.117h5.834c0.104,0,0.202,0.042,0.272,0.117c0.071,0.075,0.107,0.176,0.102,0.279l-0.426,7.557c2.298,1.316,4.924,3.794,4.892,8.231c-0.006,0.909,0.005,1.906,0.009,2.25c0.001,0.111-0.002,0.174-0.002,0.176C59.399,62.029,53.849,62.237,52.158,62.237z M49.512,41.485l0.417,7.395c0.009,0.144-0.067,0.28-0.193,0.35c-2.166,1.187-4.74,3.489-4.71,7.719c0.007,0.916-0.005,1.908-0.009,2.25l-0.001,0.116c0.193,1.279,2.964,2.173,6.892,2.173h0.25c3.926,0,6.697-0.901,6.896-2.243l-0.005-0.066c-0.004-0.347-0.016-1.351-0.009-2.265v0c0.03-4.201-2.544-6.497-4.71-7.683c-0.126-0.07-0.202-0.206-0.193-0.35l0.417-7.395H49.512z"/><path fill="#a2ceea" d="M56.52,41.433c0,0.622-0.515,1.126-1.151,1.126h-6.522c-0.636,0-1.151-0.504-1.151-1.126l0,0c0-0.622,0.515-1.126,1.151-1.126h6.522C56.005,40.307,56.52,40.811,56.52,41.433L56.52,41.433z"/><path fill="#472b29" d="M55.37,42.934h-6.522c-0.842,0-1.526-0.673-1.526-1.501c0-0.828,0.685-1.501,1.526-1.501h6.522c0.841,0,1.525,0.673,1.525,1.501C56.895,42.261,56.21,42.934,55.37,42.934z M48.847,40.682c-0.428,0-0.776,0.337-0.776,0.751c0,0.415,0.349,0.751,0.776,0.751h6.522c0.428,0,0.775-0.337,0.775-0.751c0-0.414-0.348-0.751-0.775-0.751H48.847z"/><path fill="#78a0cf" d="M59.114,59.113c0.001-0.007-0.016-1.159-0.009-2.188c0.01-1.311-0.261-2.433-0.711-3.397H45.622c-0.456,0.974-0.732,2.108-0.722,3.43c0.008,1.029-0.01,2.165-0.009,2.172c0.255,1.647,3.577,2.337,6.991,2.337c0.012,0,0.024,0,0.036,0c0,0,0.192,0,0.204,0C55.537,61.467,58.859,60.761,59.114,59.113z"/><path fill="#c5def0" d="M47.575 54.842A1.086 1.086 0 1 0 47.575 57.013999999999996A1.086 1.086 0 1 0 47.575 54.842Z"/><path fill="#472b29" d="M47.575,57.163c-0.682,0-1.236-0.554-1.236-1.236s0.555-1.236,1.236-1.236s1.236,0.554,1.236,1.236S48.256,57.163,47.575,57.163z M47.575,54.992c-0.516,0-0.936,0.42-0.936,0.936s0.42,0.936,0.936,0.936s0.936-0.42,0.936-0.936S48.09,54.992,47.575,54.992z"/><path fill="#c5def0" d="M50.154 57.014A1.562 1.562 0 1 0 50.154 60.138A1.562 1.562 0 1 0 50.154 57.014Z"/><path fill="#472b29" d="M50.154,60.288c-0.944,0-1.713-0.768-1.713-1.712s0.769-1.712,1.713-1.712s1.713,0.768,1.713,1.712S51.098,60.288,50.154,60.288z M50.154,57.163c-0.779,0-1.412,0.634-1.412,1.413s0.633,1.413,1.412,1.413s1.412-0.634,1.412-1.413S50.933,57.163,50.154,57.163z"/><g><path fill="#c5def0" d="M51.083 54.861A0.633 0.633 0 1 0 51.083 56.127A0.633 0.633 0 1 0 51.083 54.861Z"/><path fill="#472b29" d="M51.083,56.277c-0.432,0-0.783-0.351-0.783-0.783c0-0.432,0.352-0.783,0.783-0.783s0.783,0.351,0.783,0.783C51.867,55.926,51.515,56.277,51.083,56.277z M51.083,55.011c-0.267,0-0.482,0.217-0.482,0.483c0,0.267,0.216,0.483,0.482,0.483s0.482-0.217,0.482-0.483C51.566,55.228,51.35,55.011,51.083,55.011z"/></g><g><path fill="#472b29" d="M58.52,53.623h-1.469c-0.138,0-0.25-0.112-0.25-0.25s0.112-0.25,0.25-0.25h1.469c0.138,0,0.25,0.112,0.25,0.25S58.658,53.623,58.52,53.623z"/></g><g><path fill="#472b29" d="M56.114,53.623H45.401c-0.138,0-0.25-0.112-0.25-0.25s0.112-0.25,0.25-0.25h10.713c0.138,0,0.25,0.112,0.25,0.25S56.251,53.623,56.114,53.623z"/></g></g></svg>