<svg xmlns="http://www.w3.org/2000/svg" viewBox="0 0 26 26"><path d="M 8 5 C 3.628906 5 0 8.628906 0 13 C -0.0078125 13.125 -0.0078125 13.25 0 13.375 C 0.199219 17.601563 3.726563 21 8 21 C 9.398438 21 10.507813 20.695313 11.40625 20.09375 C 9.804688 18.394531 8.90625 16.304688 8.40625 14.90625 C 8.304688 15.007813 8.101563 15 8 15 C 6.972656 15 6.109375 14.21875 6 13.21875 C 6.003906 13.144531 6.003906 13.074219 6 13 C 6 11.769531 6.769531 11 8 11 C 8.667969 11 8.5625 11.007813 8.90625 11.4375 C 9.25 11.867188 9.71875 12.875 10.21875 14.125 C 10.71875 15.375 11.25 16.867188 12.40625 18.3125 C 13.5625 19.757813 15.667969 21 18 21 C 22.371094 21 26 17.371094 26 13 C 26 12.894531 26.003906 12.792969 26 12.6875 C 26 12.667969 26 12.644531 26 12.625 C 25.800781 8.398438 22.273438 5 18 5 C 16.601563 5 15.492188 5.304688 14.59375 5.90625 C 16.195313 7.605469 16.992188 9.695313 17.59375 11.09375 C 17.695313 10.992188 17.898438 11 18 11 C 19.027344 11 19.890625 11.78125 20 12.78125 C 19.996094 12.855469 19.996094 12.925781 20 13 C 20 14.230469 19.230469 15 18 15 C 17.332031 15 17.4375 14.992188 17.09375 14.5625 C 16.75 14.132813 16.28125 13.125 15.78125 11.875 C 15.28125 10.625 14.75 9.132813 13.59375 7.6875 C 12.4375 6.242188 10.332031 5 8 5 Z"/></svg>