<svg xmlns="http://www.w3.org/2000/svg" viewBox="0 0 80 80"><path d="M 40 5 C 39.449219 5 39 5.449219 39 6 C 39 6.550781 39.449219 7 40 7 C 40.550781 7 41 6.550781 41 6 C 41 5.449219 40.550781 5 40 5 Z M 49.167969 7.003906 C 48.957031 6.996094 48.75 7 48.550781 7.015625 C 47.75 7.078125 46.945313 7.363281 46.445313 8.042969 C 45.945313 8.722656 45.917969 9.585938 46.121094 10.359375 C 46.324219 11.128906 46.738281 11.894531 47.308594 12.6875 C 48.449219 14.277344 50.234375 15.972656 52.453125 17.507813 C 54.667969 19.042969 56.902344 20.128906 58.8125 20.65625 C 59.769531 20.917969 60.648438 21.046875 61.449219 20.984375 C 62.25 20.921875 63.054688 20.636719 63.554688 19.957031 C 64.054688 19.277344 64.078125 18.414063 63.875 17.640625 C 63.675781 16.871094 63.261719 16.105469 62.691406 15.3125 C 61.550781 13.722656 59.765625 12.027344 57.546875 10.492188 C 55.328125 8.957031 53.09375 7.871094 51.183594 7.34375 C 50.464844 7.144531 49.796875 7.027344 49.167969 7.003906 Z M 40 9 C 39.449219 9 39 9.449219 39 10 C 39 10.550781 39.449219 11 40 11 C 40.550781 11 41 10.550781 41 10 C 41 9.449219 40.550781 9 40 9 Z M 48.707031 9.007813 C 49.164063 8.972656 49.851563 9.050781 50.65625 9.273438 C 52.261719 9.714844 54.347656 10.710938 56.40625 12.136719 C 58.46875 13.5625 60.117188 15.152344 61.066406 16.476563 C 61.542969 17.140625 61.835938 17.734375 61.941406 18.152344 C 62.050781 18.566406 61.988281 18.707031 61.941406 18.769531 C 61.894531 18.835938 61.746094 18.953125 61.292969 18.988281 C 60.835938 19.027344 60.148438 18.949219 59.34375 18.730469 C 57.738281 18.285156 55.652344 17.289063 53.589844 15.863281 C 51.527344 14.4375 49.882813 12.847656 48.933594 11.523438 C 48.457031 10.859375 48.164063 10.265625 48.058594 9.851563 C 47.949219 9.433594 48.007813 9.292969 48.054688 9.226563 C 48.101563 9.164063 48.253906 9.042969 48.707031 9.007813 Z M 37 9.21875 C 33.054688 9.777344 29.488281 11.421875 26.527344 13.679688 C 27.398438 13.96875 27.988281 14 28 14 L 29.578125 14 C 31.792969 12.660156 34.292969 11.679688 37 11.257813 Z M 19 13 C 19 19 23 23 23 23 C 28 23 28 18 28 18 C 28 18 23 18 19 13 Z M 40 13 C 39.449219 13 39 13.449219 39 14 C 39 14.550781 39.449219 15 40 15 C 40.550781 15 41 14.550781 41 14 C 41 13.449219 40.550781 13 40 13 Z M 40 17 C 39.449219 17 39 17.449219 39 18 C 39 18.550781 39.449219 19 40 19 C 40.550781 19 41 18.550781 41 18 C 41 17.449219 40.550781 17 40 17 Z M 40 21 C 39.449219 21 39 21.449219 39 22 C 39 22.550781 39.449219 23 40 23 C 40.550781 23 41 22.550781 41 22 C 41 21.449219 40.550781 21 40 21 Z M 59.078125 23.761719 C 59.667969 25.425781 60 27.183594 60 29 C 60 36.445313 58.859375 41.082031 58.367188 42.730469 L 57.949219 44.132813 L 59.410156 44.011719 L 59.375 43.027344 L 59.5 43.894531 L 59.5 44 C 60.328125 44 61 44.628906 61 45.402344 C 61 45.804688 60.734375 46.703125 60.539063 47.355469 C 60.300781 48.160156 60.167969 48.632813 60.167969 49 C 60.167969 49.550781 59.679688 50 59.082031 50 L 57 50 L 57 52.050781 C 57 60.292969 51.113281 67.324219 43 68.769531 L 43 71.121094 C 43.214844 70.988281 43.425781 70.851563 43.625 70.6875 C 52.550781 68.964844 59 61.171875 59 52.050781 L 59 52 L 59.082031 52 C 60.78125 52 62.167969 50.65625 62.167969 49.019531 C 62.179688 48.863281 62.339844 48.320313 62.457031 47.921875 C 62.722656 47.023438 63 46.09375 63 45.402344 C 63 43.894531 61.988281 42.617188 60.59375 42.171875 C 61.222656 39.6875 62 35.328125 62 29 C 62 27.273438 61.730469 25.589844 61.25 23.980469 C 61.207031 23.980469 61.164063 23.984375 61.121094 23.984375 C 60.464844 23.984375 59.777344 23.898438 59.078125 23.761719 Z M 18.804688 24.203125 C 18.28125 25.804688 18 27.425781 18 29 C 18 34.96875 18.875 39.671875 19.464844 42.152344 C 18.039063 42.582031 17 43.875 17 45.402344 C 17 46.09375 17.277344 47.023438 17.542969 47.921875 C 17.660156 48.320313 17.820313 48.859375 17.832031 49 C 17.832031 50.652344 19.21875 52 20.917969 52 L 21 52 L 21 52.050781 C 21 61.171875 27.449219 68.964844 36.375 70.6875 C 36.570313 70.851563 36.785156 70.984375 37 71.121094 L 37 68.769531 C 28.886719 67.324219 23 60.292969 23 52.050781 L 23 50 L 20.917969 50 C 20.320313 50 19.832031 49.550781 19.832031 49 C 19.832031 48.632813 19.699219 48.160156 19.460938 47.355469 C 19.265625 46.703125 19 45.804688 19 45.402344 C 19 44.628906 19.671875 44 20.496094 44 L 22.054688 44.144531 L 21.679688 42.753906 C 21.175781 40.886719 20 35.808594 20 29 C 20 28.019531 20.125 27.019531 20.359375 26.015625 L 20.171875 25.828125 C 20.011719 25.667969 19.472656 25.105469 18.804688 24.203125 Z M 40 25 C 39.449219 25 39 25.449219 39 26 C 39 26.550781 39.449219 27 40 27 C 40.550781 27 41 26.550781 41 26 C 41 25.449219 40.550781 25 40 25 Z M 40 29 C 39.449219 29 39 29.449219 39 30 C 39 30.550781 39.449219 31 40 31 C 40.550781 31 41 30.550781 41 30 C 41 29.449219 40.550781 29 40 29 Z M 40 33 C 39.449219 33 39 33.449219 39 34 C 39 34.550781 39.449219 35 40 35 C 40.550781 35 41 34.550781 41 34 C 41 33.449219 40.550781 33 40 33 Z M 40 37 C 39.449219 37 39 37.449219 39 38 C 39 38.550781 39.449219 39 40 39 C 40.550781 39 41 38.550781 41 38 C 41 37.449219 40.550781 37 40 37 Z M 40 41 C 39.449219 41 39 41.449219 39 42 C 39 42.550781 39.449219 43 40 43 C 40.550781 43 41 42.550781 41 42 C 41 41.449219 40.550781 41 40 41 Z M 40 45 C 39.449219 45 39 45.449219 39 46 C 39 46.550781 39.449219 47 40 47 C 40.550781 47 41 46.550781 41 46 C 41 45.449219 40.550781 45 40 45 Z M 40 49 C 39.449219 49 39 49.449219 39 50 C 39 50.550781 39.449219 51 40 51 C 40.550781 51 41 50.550781 41 50 C 41 49.449219 40.550781 49 40 49 Z M 40 53 C 39.449219 53 39 53.449219 39 54 C 39 54.550781 39.449219 55 40 55 C 40.550781 55 41 54.550781 41 54 C 41 53.449219 40.550781 53 40 53 Z M 40 57 C 39.449219 57 39 57.449219 39 58 C 39 58.550781 39.449219 59 40 59 C 40.550781 59 41 58.550781 41 58 C 41 57.449219 40.550781 57 40 57 Z M 40 61 C 39.449219 61 39 61.449219 39 62 C 39 62.550781 39.449219 63 40 63 C 40.550781 63 41 62.550781 41 62 C 41 61.449219 40.550781 61 40 61 Z M 40 65 C 39.449219 65 39 65.449219 39 66 C 39 66.550781 39.449219 67 40 67 C 40.550781 67 41 66.550781 41 66 C 41 65.449219 40.550781 65 40 65 Z M 40 69 C 39.449219 69 39 69.449219 39 70 C 39 70.550781 39.449219 71 40 71 C 40.550781 71 41 70.550781 41 70 C 41 69.449219 40.550781 69 40 69 Z M 40 73 C 39.449219 73 39 73.449219 39 74 C 39 74.550781 39.449219 75 40 75 C 40.550781 75 41 74.550781 41 74 C 41 73.449219 40.550781 73 40 73 Z"/></svg>