<svg xmlns="http://www.w3.org/2000/svg" viewBox="0 0 48 48"><path fill="#ff3d00" d="M24 4A20 20 0 1 0 24 44A20 20 0 1 0 24 4Z"/><path fill="#37474f" d="M17.8 5c-1.3.4-2.6 1-3.8 1.7L24 24 17.8 5zM10.6 9.2c-1 .9-2 2-2.8 3.1L24 24 10.6 9.2zM5.7 15.9c-.6 1.3-1 2.6-1.3 4L24 24 5.7 15.9zM4 24c0 1.4.2 2.8.4 4.2L24 24H4zM5.7 32.1c.6 1.3 1.3 2.5 2.1 3.6L24 24 5.7 32.1zM10.6 38.8c1 .9 2.2 1.8 3.4 2.5L24 24 10.6 38.8zM24 24l-6.2 19c1.3.4 2.7.7 4.1.9L24 24zM26.1 43.9c1.4-.1 2.8-.4 4.1-.9L24 24 26.1 43.9zM34 41.3c1.2-.7 2.3-1.5 3.4-2.5L24 24 34 41.3zM40.2 35.7c.8-1.1 1.5-2.3 2.1-3.6L24 24 40.2 35.7zM43.6 28.2c.3-1.3.4-2.7.4-4.2H24L43.6 28.2zM43.6 19.8c-.3-1.4-.7-2.7-1.3-4L24 24 43.6 19.8zM40.2 12.3c-.8-1.1-1.8-2.2-2.8-3.1L24 24 40.2 12.3zM34 6.7C32.8 6 31.5 5.4 30.2 5L24 24 34 6.7z"/><path fill="#64dd17" d="M26.1,4.1C25.4,4,24.7,4,24,4s-1.4,0-2.1,0.1L24,24L26.1,4.1z"/><path fill="#388e3c" d="M24 10A14 14 0 1 0 24 38A14 14 0 1 0 24 10Z"/><path fill="#66bb6a" d="M37.8,26.5L28,24l9.8-2.6c-0.1-0.7-0.3-1.3-0.5-1.9l-9.9,2.6l7.3-7.3c-0.4-0.5-0.9-1-1.4-1.4 l-7.3,7.3l2.6-9.9c-0.6-0.2-1.3-0.4-1.9-0.5L24,20l-2.6-9.8c-0.7,0.1-1.3,0.3-1.9,0.5l2.6,9.9l-7.3-7.3c-0.5,0.4-1,0.9-1.4,1.4 l7.3,7.3l-10-2.6c-0.2,0.6-0.4,1.3-0.5,1.9L20,24l-9.8,2.6c0.1,0.7,0.3,1.3,0.5,1.9l9.9-2.6l-7.3,7.3c0.4,0.5,0.9,1,1.4,1.4l7.3-7.3 l-2.6,10c0.6,0.2,1.3,0.4,1.9,0.5L24,28l2.6,9.8c0.7-0.1,1.3-0.3,1.9-0.5l-2.6-9.9l7.3,7.3c0.5-0.4,1-0.9,1.4-1.4l-7.3-7.3l9.9,2.6 C37.5,27.8,37.6,27.2,37.8,26.5z"/><path fill="#5d4037" d="M24 14A10 10 0 1 0 24 34A10 10 0 1 0 24 14Z"/><path fill="#dd9f05" d="M23 16.9H25V31H23z" transform="rotate(-45.001 24 24)"/><path fill="#dd9f05" d="M16.9 23H31V25H16.9z" transform="rotate(-45.001 24 24)"/><path fill="#ffc107" d="M24,8C15.2,8,8,15.2,8,24s7.2,16,16,16s16-7.2,16-16S32.8,8,24,8z M24,38c-7.7,0-14-6.3-14-14 s6.3-14,14-14s14,6.3,14,14S31.7,38,24,38z"/><path fill="#ffc107" d="M24 22A2 2 0 1 0 24 26 2 2 0 1 0 24 22zM19.5 18A1.5 1.5 0 1 0 19.5 21 1.5 1.5 0 1 0 19.5 18zM28.5 18A1.5 1.5 0 1 0 28.5 21 1.5 1.5 0 1 0 28.5 18zM19.5 27A1.5 1.5 0 1 0 19.5 30 1.5 1.5 0 1 0 19.5 27zM28.5 27A1.5 1.5 0 1 0 28.5 30 1.5 1.5 0 1 0 28.5 27z"/></svg>