<svg xmlns="http://www.w3.org/2000/svg" viewBox="0 0 64 64"><radialGradient id="KTEQBqxgSjAlAC8Lt3f6ua" cx="32.375" cy="35.569" r="49.78" gradientUnits="userSpaceOnUse" spreadMethod="reflect"><stop offset="0" stop-color="#afeeff"/><stop offset=".193" stop-color="#bbf1ff"/><stop offset=".703" stop-color="#d7f8ff"/><stop offset="1" stop-color="#e1faff"/></radialGradient><path fill="url(#KTEQBqxgSjAlAC8Lt3f6ua)" d="M60,44H45l-2.6-1h6.012c1.138,0,2.202-0.721,2.497-1.821C51.355,39.516,50.096,38,48.5,38 c-0.828,0-1.5-0.672-1.5-1.5s0.672-1.5,1.5-1.5h2.912c1.139,0,2.202-0.721,2.497-1.821C54.355,31.516,53.096,29,51.5,29H51 c-1.105,0-2-0.895-2-2c0-1.105,0.895-2,2-2h9.412c1.139,0,2.202-0.721,2.497-1.821C63.355,21.516,62.096,20,60.5,20H59 c-1.105,0-2-0.895-2-2c0-1.105,0.895-2,2-2h2c1.848,0,3.319-1.693,2.94-3.605C63.657,10.972,62.32,10,60.869,10H50.5 C49.672,10,49,9.328,49,8.5S49.672,7,50.5,7h5.912c1.139,0,2.202-0.721,2.497-1.821C59.355,3.516,58.096,2,56.5,2H10.588 C9.449,2,8.386,2.721,8.091,3.821C7.645,5.484,8.904,7,10.5,7l0,0C11.881,7,13,8.119,13,9.5c0,1.381-1.119,2.5-2.5,2.5H9.588H7 c-1.65,0-3,1.35-3,3c0,1.65,1.35,3,3,3h19c0.352,0,0.685-0.073,1-0.185V29h-7.412c-1.139,0-2.202,1.721-2.497,2.821 c-0.219,0.817-0.024,1.595,0.418,2.179H3.5C2.119,34,1,35.119,1,36.5C1,37.881,2.119,39,3.5,39h1C5.881,39,7,40.119,7,41.5 C7,42.881,5.881,44,4.5,44H4c-1.657,0-3,1.343-3,3s1.343,3,3,3h5.5c1.381,0,2.5,1.119,2.5,2.5c0,1.381-1.119,2.5-2.5,2.5H8 c-1.657,0-3,1.343-3,3s1.343,3,3,3h48c1.657,0,3-1.343,3-3s-1.343-3-3-3h-0.5c-1.381,0-2.5-1.119-2.5-2.5c0-1.381,1.119-2.5,2.5-2.5 H60c1.657,0,3-1.343,3-3S61.657,44,60,44z"/><linearGradient id="KTEQBqxgSjAlAC8Lt3f6ub" x1="32" x2="32" y1="56" y2="6" gradientUnits="userSpaceOnUse" spreadMethod="reflect"><stop offset="0" stop-color="#feaa53"/><stop offset=".612" stop-color="#ffcd49"/><stop offset="1" stop-color="#ffde44"/></linearGradient><path fill="url(#KTEQBqxgSjAlAC8Lt3f6ub)" d="M57,31c0,13.805-11.195,25-25,25S7,44.805,7,31S18.195,6,32,6S57,17.195,57,31z"/><linearGradient id="KTEQBqxgSjAlAC8Lt3f6uc" x1="32" x2="32" y1="36.49" y2="57.173" gradientUnits="userSpaceOnUse" spreadMethod="reflect"><stop offset="0" stop-color="#ff5840"/><stop offset=".989" stop-color="#fa528c"/></linearGradient><path fill="url(#KTEQBqxgSjAlAC8Lt3f6uc)" d="M32 39A7 5.5 0 1 0 32 50A7 5.5 0 1 0 32 39Z"/><linearGradient id="KTEQBqxgSjAlAC8Lt3f6ud" x1="32" x2="32" y1="37.108" y2="55.608" gradientUnits="userSpaceOnUse" spreadMethod="reflect"><stop offset="0" stop-color="#42d778"/><stop offset=".428" stop-color="#3dca76"/><stop offset="1" stop-color="#34b171"/></linearGradient><path fill="url(#KTEQBqxgSjAlAC8Lt3f6ud)" d="M32,42c-3.866,0-7,1.895-7,3v12.5c0,0.825,0.675,1.5,1.5,1.5s1.5-0.675,1.5-1.5V57 c0-0.55,0.45-1,1-1s1,0.45,1,1v2c0,0.825,0.675,1.5,1.5,1.5S33,59.825,33,59v-3.5c0-0.825,0.675-1.5,1.5-1.5s1.5,0.675,1.5,1.5 s0.675,1.5,1.5,1.5s1.5-0.675,1.5-1.5V45C39,43.895,35.866,42,32,42z"/><path fill="#717171" d="M45.499,34c-0.226,0-0.454-0.051-0.67-0.159l-7-3.5C37.321,30.087,37,29.568,37,29 s0.321-1.087,0.829-1.342l7-3.5c0.743-0.369,1.643-0.07,2.013,0.671c0.37,0.741,0.07,1.642-0.671,2.013L41.854,29l4.316,2.158 c0.741,0.371,1.041,1.271,0.671,2.013C46.579,33.696,46.049,34,45.499,34z"/><g><path fill="#717171" d="M18.501,34c-0.55,0-1.08-0.304-1.343-0.83c-0.37-0.741-0.07-1.642,0.671-2.013L22.146,29 l-4.316-2.158c-0.741-0.371-1.041-1.271-0.671-2.013c0.37-0.741,1.271-1.04,2.013-0.671l7,3.5C26.679,27.913,27,28.432,27,29 s-0.321,1.087-0.829,1.342l-7,3.5C18.955,33.949,18.727,34,18.501,34z"/></g></svg>