<svg xmlns="http://www.w3.org/2000/svg" viewBox="0 0 48 48"><path fill="#127272" d="M16.841,7.781c-2.043,0.074-7.153,0.366-8.473,1.927c-0.871,1.03-1.113,2.469-1.002,3.813 s0.534,2.64,0.852,3.951c1.636,6.753,0.454,15.821,0.358,22.769c-0.011,0.765,0.001,1.568,0.371,2.238 c0.498,0.901,1.527,1.359,2.515,1.647c5.559,1.617,12.489-0.294,18.276-0.108c1.432,0.046,4.866,0.221,6.293,0.092 c1.427-0.129,3.41-0.664,4.389-1.71c1.206-1.288,1.47-3.172,1.628-4.929c0.728-8.096,0.418-18.264-0.546-26.336 c-0.108-0.903-0.238-1.844-0.753-2.594c-0.743-1.08-2.669-1.468-3.979-1.47s-5.184,0.293-6.476,0.51"/><path fill="#d6e5e5" d="M17.793,9.464c-0.862,0.57-3.079,0.11-4.013,0.552c-1.167,0.553-1.299,2.137-1.229,3.427 c0.38,6.97,1.793,16.916,1.282,23.878c-0.048,0.65-0.068,1.41,0.435,1.824c0.403,0.331,0.982,0.298,1.501,0.251 c5.84-0.533,14.684-0.238,20.543,0.026c0.27,0.012,0.582,0.007,0.753-0.202c0.087-0.107,0.119-0.248,0.147-0.383 c1.681-8.158,0.639-20.032-0.441-28.291c-0.03-0.233-0.065-0.477-0.206-0.665c-0.162-0.216-0.432-0.317-0.69-0.396 c-0.914-0.28-3.306-0.431-4.695-0.435"/><path fill="#38b47b" d="M33.542,18.37c-0.89,0.424-1.28,0.405-2.081,0.979c-0.693,0.497-1.347,1.047-2,1.595 c-1.537,1.291-3.073,2.582-4.61,3.873c-0.099,0.084-0.205,0.17-0.333,0.193c-0.084,0.015-0.17,0-0.254-0.016 c-1.158-0.228-2.213-0.801-3.306-1.246c-1.093-0.445-2.146-0.455-3.347-0.299c2.765,2.172,5.173,5.085,6.836,8.183 C27.564,27.278,30.423,22.722,33.542,18.37z"/><path fill="#010101" d="M24.448,32.132c-0.011,0-0.021,0-0.032-0.001c-0.172-0.011-0.327-0.11-0.408-0.263 c-1.652-3.075-4.033-5.926-6.705-8.025c-0.158-0.125-0.227-0.332-0.173-0.526c0.053-0.194,0.218-0.337,0.417-0.363 c1.045-0.134,2.289-0.203,3.6,0.332c0.3,0.122,0.597,0.254,0.894,0.385c0.787,0.349,1.53,0.679,2.32,0.834 c0.071,0,0.135-0.041,0.17-0.069l4.608-3.873c0.645-0.542,1.312-1.103,2.031-1.619c0.56-0.401,0.954-0.547,1.372-0.701 c0.226-0.083,0.474-0.174,0.786-0.322c0.206-0.099,0.453-0.044,0.598,0.13c0.146,0.176,0.156,0.427,0.023,0.612 c-1.565,2.185-3.093,4.461-4.57,6.663c-1.461,2.178-2.972,4.43-4.523,6.599C24.761,32.055,24.609,32.132,24.448,32.132z M18.888,23.858c2.185,1.908,4.136,4.284,5.612,6.839c1.383-1.957,2.736-3.974,4.048-5.931c1.16-1.729,2.351-3.504,3.57-5.248 c-0.112,0.064-0.231,0.141-0.365,0.236c-0.688,0.494-1.34,1.042-1.97,1.572l-4.61,3.874c-0.124,0.103-0.308,0.256-0.568,0.302 c-0.184,0.03-0.349-0.001-0.438-0.019c-0.899-0.177-1.729-0.544-2.531-0.9c-0.288-0.127-0.575-0.255-0.865-0.373 C20.187,23.974,19.598,23.859,18.888,23.858z"/><path fill="#bcbcbc" d="M31.053,7.242c-0.337-0.39-0.768-0.697-1.065-1.119c-0.317-0.45-0.472-1.02-0.881-1.389 c-0.266-0.24-0.6-0.358-0.954-0.419c-0.356-0.25-0.64-0.629-0.94-0.957c-1.019-1.118-2.584-1.747-4.082-1.536 c-1.498,0.211-2.864,0.935-3.296,2.385l0.003,0c-0.216-0.001-0.434-0.002-0.635-0.003c-0.375-0.002-0.72,0.203-0.893,0.537 c-0.595,1.147-1.117,2.347-1.409,3.6c-0.052,0.224-0.099,0.465-0.014,0.679c0.152,0.385,0.633,0.498,1.042,0.557 c2.163,0.314,5.362,0.628,7.524,0.312c1.178-0.172,2.339-0.531,3.529-0.496c0.461,0.013,0.925,0.086,1.381,0.016 c0.456-0.069,0.921-0.319,1.086-0.749C31.635,8.177,31.39,7.632,31.053,7.242z"/><path fill="#010101" d="M42,11.08c-0.13-1.06-0.28-2.01-0.84-2.82c-0.85-1.24-2.9-1.69-4.39-1.69h-0.01 c-1,0-3.583,0.177-5.317,0.362c-0.004-0.005-0.007-0.011-0.011-0.016c-0.151-0.176-0.32-0.337-0.489-0.497 c-0.207-0.194-0.401-0.379-0.545-0.584c-0.108-0.154-0.194-0.325-0.281-0.494c-0.166-0.323-0.354-0.689-0.673-0.978 c-0.309-0.278-0.671-0.43-1.055-0.514c-0.194-0.148-0.382-0.337-0.567-0.56c-0.08-0.09-0.16-0.18-0.24-0.27 c-1.16-1.27-2.9-1.92-4.52-1.69c-1.755,0.251-3.026,1.102-3.56,2.375l-0.294-0.002c-0.002,0-0.005,0-0.008,0 c-0.563,0-1.072,0.309-1.331,0.807c-0.529,1.019-0.915,1.921-1.189,2.778C11.936,7.477,9.009,8.183,7.99,9.39 c-0.86,1.01-1.26,2.5-1.12,4.17c0.09,1.05,0.35,2.07,0.61,3.05c0.09,0.33,0.17,0.65,0.25,0.98c1.19,4.89,0.86,11.17,0.58,16.72 C8.2,36.4,8.1,38.38,8.08,40.24c-0.02,0.84,0.01,1.72,0.43,2.48c0.63,1.14,1.91,1.62,2.81,1.89c1.73,0.5,3.58,0.67,5.48,0.67 c2.05,0,4.16-0.2,6.24-0.4c2.35-0.22,4.58-0.43,6.68-0.36l0.98,0.03c1.66,0.07,4.18,0.17,5.38,0.06c1.49-0.14,3.62-0.71,4.71-1.87 c1.31-1.41,1.6-3.43,1.76-5.22C43.24,29.83,43.03,19.7,42,11.08z M13.63,20.72c-0.24-2.62-0.46-5.11-0.58-7.3 c-0.09-1.62,0.23-2.61,0.94-2.95c0.34-0.16,1.02-0.17,1.68-0.18c0.726-0.008,1.468-0.034,2.036-0.246 c0.051,0.008,0.113,0.021,0.153,0.027c1.319,0.191,3.466,0.45,5.46,0.45c0.779,0,1.535-0.04,2.208-0.138 c0.389-0.057,0.775-0.134,1.162-0.21c0.786-0.156,1.521-0.313,2.28-0.281c0.13,0.003,0.261,0.012,0.392,0.021 c0.347,0.023,0.704,0.046,1.078-0.011c0.339-0.051,0.643-0.176,0.894-0.35c1.523,0.01,3.641,0.176,4.397,0.408 c0.17,0.06,0.36,0.12,0.43,0.22c0.07,0.09,0.1,0.28,0.12,0.43c1.58,12.13,1.74,21.85,0.44,28.13c-0.01,0.04-0.03,0.14-0.03,0.16 c-0.02,0.01-0.09,0.03-0.36,0.02c-9.4-0.42-16.14-0.43-20.61-0.02c-0.46,0.04-0.89,0.06-1.13-0.14c-0.31-0.26-0.3-0.86-0.26-1.4 C14.68,32.56,14.12,26.27,13.63,20.72z M23.2,2.32c1.31-0.19,2.7,0.34,3.64,1.37l0.051,0.058c-1.274-0.005-2.829-0.014-4.349-0.024 l-1.92-0.012C21.252,2.745,22.452,2.42,23.2,2.32z M17.389,8.453c0.246-1.055,0.68-2.161,1.366-3.482 c0.085-0.165,0.255-0.268,0.443-0.268c0.001,0,0.002,0,0.003,0l3.334,0.021c1.631,0.011,3.314,0.021,4.634,0.025 c0.639,0.002,1.242,0.03,1.604,0.356c0.184,0.166,0.315,0.421,0.454,0.691c0.108,0.211,0.218,0.422,0.353,0.613 c0.202,0.287,0.443,0.516,0.676,0.736c0.144,0.136,0.289,0.271,0.419,0.423c0.21,0.243,0.417,0.627,0.309,0.911 c-0.099,0.257-0.436,0.395-0.695,0.434c-0.266,0.042-0.555,0.022-0.862,0.001c-0.143-0.009-0.287-0.019-0.429-0.022 c-0.861-0.029-1.697,0.141-2.503,0.3c-0.37,0.073-0.74,0.147-1.112,0.201c-2.355,0.346-5.946-0.104-7.38-0.313 c-0.484-0.07-0.62-0.173-0.649-0.246C17.32,8.751,17.365,8.557,17.389,8.453z M41.55,37.43c-0.15,1.69-0.39,3.45-1.49,4.63 c-0.84,0.89-2.65,1.42-4.07,1.55c-1.13,0.1-3.61,0.01-5.26-0.06l-0.98-0.03c-2.16-0.07-4.52,0.15-6.81,0.37 c-3.89,0.37-7.92,0.75-11.34-0.24c-1.17-0.34-1.87-0.79-2.21-1.41c-0.31-0.55-0.32-1.26-0.31-1.99c0.02-1.84,0.12-3.81,0.23-5.89 C9.6,28.75,9.92,22.38,8.7,17.35c-0.08-0.33-0.16-0.66-0.25-1c-0.26-0.98-0.51-1.91-0.58-2.87c-0.07-0.82-0.05-2.35,0.88-3.45 c0.78-0.915,3.56-1.538,7.649-1.726c-0.059,0.274-0.1,0.582,0.024,0.898c0.01,0.026,0.031,0.038,0.043,0.062 C16.201,9.28,15.92,9.285,15.65,9.29c-0.79,0.01-1.55,0.02-2.08,0.27c-1.12,0.53-1.63,1.85-1.52,3.91 c0.12,2.22,0.35,4.71,0.58,7.34c0.49,5.51,1.05,11.76,0.7,16.47c-0.04,0.58-0.12,1.65,0.62,2.25c0.39,0.32,0.87,0.4,1.29,0.4 c0.21,0,0.41-0.02,0.57-0.04c4.42-0.4,11.12-0.39,20.48,0.03c0.26,0.02,0.82,0.04,1.16-0.38c0.17-0.21,0.22-0.45,0.25-0.6 c1.66-8.06,0.68-19.93-0.43-28.46c-0.04-0.25-0.08-0.6-0.3-0.9c-0.25-0.33-0.62-0.47-0.95-0.57c-0.5-0.15-1.36-0.27-2.28-0.35 c-0.599-0.044-1.219-0.077-1.767-0.095c0.038-0.22,0.044-0.446-0.014-0.679c1.668-0.163,3.898-0.316,4.802-0.316 c1.32,0.05,2.99,0.39,3.58,1.26c0.43,0.62,0.56,1.44,0.67,2.37C42.03,19.75,42.24,29.8,41.55,37.43z"/><path fill="#010101" d="M20.863,7.154c-0.109,0-0.222-0.04-0.321-0.117c-0.218-0.171-0.224-0.513-0.054-0.73 c0.326-0.417,0.974-0.371,1.494-0.338c0.082,0.006,0.155,0.011,0.213,0.012l4.932,0.082c0.276,0.005,0.496,0.232,0.492,0.509 c-0.004,0.275-0.189,0.505-0.508,0.491L22.178,6.98c-0.072-0.001-0.162-0.007-0.263-0.014c-0.176-0.013-0.586-0.041-0.703,0.013 C21.12,7.098,20.994,7.154,20.863,7.154z"/></svg>