<?xml version="1.0"?><svg xmlns="http://www.w3.org/2000/svg" viewBox="0 0 128 128">    <path d="M 65.050781 25.974609 C 64.650781 25.974609 64.250391 26.049219 63.900391 26.199219 L 2.9003906 51.199219 C 1.7003906 51.699219 1 52.8 1 54 C 1 55.2 1.7003906 56.300781 2.9003906 56.800781 L 21 64.199219 L 21 89 C 21 93.3 22.8 97.3 26 100 C 36.5 108.9 49.900391 113.30078 63.400391 113.30078 C 77.000391 113.30078 90.700781 108.80039 101.80078 99.900391 C 105.10078 97.300391 107 93.3 107 89 L 107 64.5 L 125.19922 56.800781 C 126.29922 56.300781 127 55.2 127 54 C 127 52.8 126.29922 51.699219 125.19922 51.199219 L 66.199219 26.199219 C 65.849219 26.049219 65.450781 25.974609 65.050781 25.974609 z M 65 32.199219 L 116.30078 54 L 65 75.800781 L 11.900391 54 L 65 32.199219 z M 124 61 C 122.3 61 121 62.3 121 64 L 121 82.900391 C 121 84.600391 122.3 85.900391 124 85.900391 C 125.7 85.900391 127 84.500391 127 82.900391 L 127 64 C 127 62.3 125.7 61 124 61 z M 27 66.699219 L 63.900391 81.800781 L 64 81.800781 C 70 84.000781 75.299609 85.799609 81.099609 86.099609 C 82.699609 86.199609 84 87.499609 84 89.099609 L 84 103.40039 C 65.9 110.60039 44.700391 107.90039 29.900391 95.400391 C 28.100391 93.800391 27 91.5 27 89 L 27 66.699219 z"/></svg>