<svg xmlns="http://www.w3.org/2000/svg" viewBox="0 0 30 30"><path d="M27 8V6c0-1.105-.895-2-2-2H5C3.895 4 3 4.895 3 6v2H27zM4 10v14c0 1.105.895 2 2 2h18c1.105 0 2-.895 2-2V10H4zM20.047 16.297l-2.638 1.964.98 3.139c.1.322-.155.6-.441.6-.088 0-.18-.026-.265-.087L15 20.011l-2.683 1.902C12.233 21.973 12.141 22 12.052 22c-.286 0-.542-.278-.441-.6l.98-3.139-2.638-1.964c-.354-.263-.171-.825.27-.83l3.288-.038 1.053-3.115C14.635 12.105 14.817 12 15 12s.365.105.436.314l1.053 3.115 3.288.038C20.218 15.472 20.401 16.034 20.047 16.297z"/></svg>