<svg xmlns="http://www.w3.org/2000/svg" width="512" height="512" viewBox="0 0 512 512"><path fill="#C56528" d="M386,150c-0.2-6.9-0.6-13.9-1-20.8c-0.9-18.7-2.9-37.9-10.4-55.2c-7.3-16.8-19.7-32.3-36.4-40.5c-6.2-3-12.9-5.3-19.8-5.9c-4.2-0.4-9.4-0.5-13.1,1.8c14.4,13.2,26.1,29.2,27.1,49.6c0.2,3.4,0.1,6.7-0.3,10c0.1,0.5,0.2,1,0.2,1.6c0.2,10.2,4.9,20.1,10.6,28.5c5.6,8.2,12.4,16.4,21.4,21c5.2,2.7,3.1,9.5-2,10.4c-1.4,0.3-3.4,0.6-5,1.1c0.3,0.2,0.6,0.4,0.8,0.5c1.9,1.2,3.9,2.3,5.9,3.4c4.1,2.2,12.7,5.6,16.1,10.5l2.9,0.3c0,0,0,0,0.1,0C386.3,162.3,386.2,154.9,386,150z"/><path fill="#FCBF95" d="M389.2,199.9c-0.2-3.6-0.5-12.5-4.3-14.9c-0.9,13.6-2.7,27.1-4.7,40.6c3.5-2,7-5.3,8-8.1C390.1,212,389.5,205.5,389.2,199.9z"/><path fill="#C56528" d="M320.9,75.2C318.2,58.2,307.6,46,295.1,35c-1.2-1-1.7-2.2-1.8-3.4c-4.4-1.3-8.6-3.2-13-4.3c-5.5-1.4-11.4-1.8-17.1-2c-12.7-0.5-25.2,0.2-37.7,2.8c-19.2,4.1-37.4,12.5-52.6,25.1c-15,12.4-27.1,28.5-33.7,46.8c-7.9,22-6.7,45.3-4.7,68.1c0.5-0.1,1-0.3,1.5-0.4c-0.1-1.2-0.3-2.5-0.4-3.7c-0.2-1.7-0.4-3.5-0.5-5.2c1.9-2.6,3.8-5.1,5.7-7.7l1.2,0.1c2-2.8,4.9-5,7.8-7c4.8-3.3,9.8-6.1,14.9-8.9c13.6-7.3,26.3-15.9,38.8-25c3.5-2.6,8,0.2,8.6,4.1c0.5,3.8,0.3,7.9-0.8,11.7c5.9-1.6,11.6-3.9,16.8-6.7c8.3-4.5,16.6-10.1,20.5-19c2.9-6.5,12.4-1.6,9.9,4.9c-1.4,3.5-8.8,23.4-0.7,23.2c7.6-0.2,15.3-3.5,22.1-6.8c7.7-3.8,15.1-8.4,22.2-13.3c5.6-3.9,12.9-8.3,16.5-14.3C322.2,88.4,321.9,81.6,320.9,75.2z"/><path fill="#FCBF95" d="M141.1,210.6c-1.1-10.5-2.4-21-3.6-31.4c-7.8,3.4-8,17-7.1,25.3c0.8,7.2,2.6,14.5,5.8,21.1c1.6,3.2,4.2,7.3,7,9.5C142.5,226.9,141.9,218.7,141.1,210.6z"/><path fill="#D6E5E5" d="M242,422.7c-14.5-0.9-28.7-4.7-39-14.4c-1.3,4.1-4.1,7.8-7.5,10.9c5.9,5.7,9.6,13.5,13.7,20.5c3,5.1,9.7,17.8,17.3,14.9c8-3,14-11.3,19-17.8c3.5-4.5,6.7-9.4,10.2-13.9C251.2,423,246.6,423,242,422.7z"/><path fill="#FCBF95" d="M333.6,393.9c-0.7-2-1.5-4.2-2-5.9c-1.2-4.4-2.3-8.8-3-13.3c-0.3-1.8-0.6-3.8-0.7-5.7c-3.8,2.2-7.8,4.2-12,6c-21.9,9-46.4,13.1-70,10.3c-15-1.8-28.7-6.4-41-13.8c0.7,7.1,0.2,14.6-0.1,21.8c0.2,0.2,0.4,0.4,0.5,0.7c8.8,13.7,24.6,17.6,40,18.1c8.2,0.3,16.4-0.1,24.6-0.3c4.4-0.1,8.7,0,13-0.6c10.8-1.6,21.7-4.1,32.2-7.2c5.1-1.5,10.3-3.1,15.1-5.4c1-0.5,2.1-1,3-1.7C333.1,395.7,333.2,394.7,333.6,393.9z"/><path fill="#D6E5E5" d="M339,405.9c-13.7,9.5-47.1,14.7-53.4,15.8c-2.8,0.5-5.6,0.6-8.4,0.8c2.6,4.5,4.5,10,5.7,12.7c1.4,3.2,3.6,9.6,6.7,14.8c2.1,0.6,3.8,2.3,3.7,4.9c2.3,2.2,4.9,3.3,7.9,2.4c9.7-3,17.6-11.9,24-19.3c6.2-7.2,12.3-14.9,16.7-23.4c0.6-1.1,1.4-1.9,2.3-2.4C342.3,410.1,340.7,408,339,405.9z"/><path fill="#1E4384" d="M289.5,492.2c-1.2-2.1-2.9-3.4-4.8-4.9c-4-3.1-8.2-6.3-10.9-10.6c-2.5-4.2-1.9-9.2,0.7-13.1c1.5-2.4,4.8-4.7,6.6-7.3c-1.1-1.7-2.1-3.4-3-5.3c-2.5-5-4.4-10.3-6.8-15.4c-1.1-2.4-2.3-4.7-3.6-7c-0.3-0.6-0.7-1.1-1-1.7c-5.6,6.7-10.2,14.2-15.8,20.9c-1.6,2-3.4,4-5.3,6c4.7,4.3,8.4,9.5,11.6,14.9c1.4,2.3,1.1,4.6-0.4,6.7c-2.8,3.9-6.6,10.9-9.8,15.9c-1.3,2-2.8,4.8-4.7,7.1c9.5,0.2,19,0.1,28.5-0.4c7-0.3,14-0.8,21.1-1.3C291.1,495.3,290.4,493.7,289.5,492.2z"/><path fill="#D6E5E5" d="M408 452.7c-5.1-6.4-13.6-9.9-20.8-13-8.8-3.8-17.8-7.1-25.9-12.3-3.5-2.3-6.8-4.9-9.8-7.7-4.9 9.5-11.8 18.4-18.9 26.3-7.2 8.2-16.2 17.9-27 21.3-6.8 2.1-12.5.5-17.3-3.1-.6.7-1.2 1.3-1.8 2-3.1 3.2-4.4 4.4-.8 7.6 3.4 3.1 7.3 5.7 10.6 8.9 3.1 3 4.1 7.8 6.9 11.1.5.6.9 1.3 1.1 1.9 14-1.3 28-2.8 42-4.2 18.9-1.8 42.8-4.2 56.5-18.9C408 467.3 413.5 459.6 408 452.7zM237.4 461.3c-3.1 2.1-6.4 3.8-10.1 4.5-10.6 2-19.5-7.6-24.6-15.6-5.1-8.1-8.9-18.1-16.4-24.4-12.8 7.5-27.4 11.7-41.4 16.4-9.6 3.2-39.2 14.2-29.4 28.6 5.9 8.7 16.2 12.7 26.1 15.2 10.6 2.7 21.4 4 32.1 5.9 18.8 3.4 37.7 5.4 56.8 6.3-.4-2.4.7-5.2 3-6.3.1-.2.3-.4.5-.7.6-.8 1.3-1.7 1.9-2.6 1.7-2.5 3.2-5.1 4.8-7.6 1.8-3 3.6-6.2 5.5-9.2C243.7 468 240.9 464.3 237.4 461.3z"/><path fill="#FCBF95" d="M370.3,172.1c-0.5-0.4-1.3-1-1.1-0.9c-2-1.3-4.1-2.5-6.2-3.6c-4.7-2.5-9.7-5-13.8-8.3c-3.6-3-6.5-7.6-4-12.2c0.9-1.7,2.4-3,4-4c-6.1-5.1-11.3-11.4-15.5-17.9c-4-6.1-7.7-12.8-10-19.9c-5.5,5.8-12.3,10.5-18.9,14.8c-9.2,6.1-18.9,11.9-29.3,15.7c-6.8,2.5-17.9,6.5-24.7,2c-5.2-3.4-7.1-8.6-7.3-14.2c-12.3,9.1-28.7,14.3-42.3,15.9c-4.5,0.5-8.2-5.8-4.6-9.1c1.1-1,2-2.1,2.7-3.3c-8.7,6.1-17.6,11.9-26.6,16.6c-4.7,2.5-9.3,5-13.8,7.9c-2.1,1.4-4.2,2.7-6.2,4.3c-0.6,0.5-2.1,2.7-1.6,1.1c-0.7,2.5-2.7,3.8-4.7,4.1c0.2,1.7,0.4,3.4,0.5,5.1c1.4,15.3,3.7,30.5,5.2,45.8c2.6,25.5,2.7,51.5,9.1,76.4c5.6,21.7,15.3,42.7,31.1,58.9c1.6,1.6,3.2,3.1,4.8,4.6c0.6,0.3,1.1,0.8,1.5,1.4c14.6,12.6,31.8,19.9,51.6,21.4c23.4,1.7,48-2.4,68.9-13.4c3.6-1.9,7-3.9,10.2-6.3c0.3-0.8,0.7-1.5,1.1-2.2c1.2-2,3.1-2.8,5-2.8c3.7-3.4,6.9-7.2,9.7-11.5c6.4-10,10.2-21.3,12.5-32.9c2.4-12,3.6-24.1,5-36.2c1.6-13.5,3.9-26.9,5.9-40.3c2.6-17.5,5-35.2,5.6-52.8C372.2,175.9,370.4,174.6,370.3,172.1z M237.8,234.8c0.6-10.4,2.2-20.6,2.7-31c0.5-9.7,1-19.4,2-29.1c0-0.1,0-0.2,0-0.4l0.1-1.1c0.7-7,11.8-6.7,11,0.3c-1,9-1.6,17.9-1.9,27c-0.4,9.8-1.7,19.4-2.5,29.1c-0.7,8.8-1.2,18,0.3,26.7c0.8,4.7,2.1,10.4,5.4,14.4c1.5-0.2,3.2,0.2,4.5,1.9l2.7,3.3c3.1,3.8-0.2,11.3-5.7,9C237.5,276.7,236.8,252.4,237.8,234.8z M213.9,180c-1.6,3.4-4.5,6.2-8,7.8c-5.3,2.5-11.5,2.8-16-1.4c-3.9-3.7-4.3-9.3-3.6-14.6c-2.3,1-4.5,2.2-6.2,3.2c-6.1,3.6-11.3-6.2-5.2-9.7c15.9-9.3,42.7-14.4,48,9.4C224.3,180.3,217.4,183,213.9,180z M276.4,329c-9.8,10.5-25.6,2.6-36.8-0.6c-6.8-2-3.6-12.5,3.2-10.5c6.7,2,20.2,9.4,26.1,3.1C273.8,315.8,281.2,323.9,276.4,329z M325.6,181.4c-0.5-0.9-1.1-1.7-1.8-2.6c0,0.7,0,1.4-0.1,2c-0.9,6.9-7.4,13.2-14.7,12.1c-6.7-1-11.3-7.9-10.7-14.6c0.1-0.8,0.2-1.6,0.4-2.4c-0.6,0.4-1.1,0.9-1.6,1.4c-5,5-12.4-3.1-7.4-8.1c7.7-7.7,19.2-9.6,29.2-6.4c3.9,0.7,7.4,2.9,10.4,5.7c2.5,2.1,4.6,4.7,6.1,7.7C338.7,182.6,329.4,187.3,325.6,181.4z"/><path d="M408.3,438.5c-8.8-6.1-18.9-9.6-28.7-13.9c-14.5-6.4-24.9-15.8-34.1-28.5v-2.3c0-1.9-0.8-3.2-1.9-4c-0.1-0.2-0.1-0.4-0.2-0.5c-1.1-3.8-2.1-7.6-3-11.4c-1.1-4.9-2.6-11.4-1.4-16.7c10.8-9,19-20.5,24.3-34.5c8.6-22.7,8.8-47.7,12.4-71.4c0.9-5.8,1.8-11.5,2.6-17.3c6.5-1.6,13.4-6.4,17.5-11.4c5.8-7.1,4.4-18.3,4.3-26.8c-0.1-8.6-2.8-20.7-10.5-24.9c10.7-10.3,6.7-28,6.5-41.4c-0.2-22.3-3.4-45.8-12.6-66.3c-8.9-19.8-24.7-37-44.9-45.6c-11.3-4.8-30.8-9.3-41.4-0.2c-5.1-1.2-9.9-3.4-14.9-4.9c-5.8-1.7-12.2-1.8-18.2-2.1c-13.1-0.6-26.2,0-39.1,2.7c-21.4,4.5-41.1,13.3-58.2,27c-16.6,13.4-29.9,31-37.4,51.1c-9.6,25.8-7.7,53.3-5.2,80.2c0,0.4,0.1,0.7,0.2,1c-4.8,7.9-5.8,19.4-5.1,28c1.3,15.5,7.7,37.7,24.4,42.9c0.2,0,0.3,0.1,0.5,0.1c1.3,15.1,3,30.1,6.8,44.8c6,23.1,16.9,45,33.4,62.5c2,2.1,4,4.1,6.1,6c3.4,5.8,3.5,13.2,3.6,19.8c0.1,5-0.2,9.9-0.4,14.9c-1.3,1.3-1.9,3.2-1.2,5.4c1.7,5.2-2.7,9.3-7,12.5c-6.7,4.9-14.7,8.2-22.4,11.1c-14.1,5.4-28.7,8.8-41.9,16.3c-8.1,4.6-15.8,11.3-18.2,20.7c-2.5,9.9,5,19.6,12.4,25c8.9,6.5,20,9.6,30.6,11.9c11.5,2.5,23.4,4.1,35,6c31.8,5.1,64.2,6.2,96.4,4.6c14.6-0.8,29.1-2.5,43.7-4.1c9.9-1.1,19.8-1.6,29.7-2.6c20-2.1,42.3-5.8,57.7-19.8c6.9-6.3,12.8-14.8,12.7-24.4C421.2,449.6,414.7,442.9,408.3,438.5z M339,405.9c1.6,2.1,3.3,4.2,5,6.2c-0.9,0.5-1.7,1.2-2.3,2.4c-4.3,8.5-10.5,16.2-16.7,23.4c-6.4,7.4-14.3,16.3-24,19.3c-3,0.9-5.6-0.2-7.9-2.4c0.1-2.6-1.6-4.3-3.7-4.9c-3.1-5.2-5.3-11.6-6.7-14.8c-1.2-2.8-3.1-8.2-5.7-12.7c2.8-0.1,5.6-0.3,8.4-0.8C292,420.6,325.3,415.3,339,405.9z M245.3,411.9c-15.4-0.5-31.2-4.3-40-18.1c-0.2-0.3-0.3-0.5-0.5-0.7c0.4-7.1,0.8-14.6,0.1-21.8c12.3,7.5,26,12,41,13.8c23.6,2.9,48.2-1.3,70-10.3c4.2-1.7,8.2-3.7,12-6c0.2,2,0.4,3.9,0.7,5.7c0.7,4.5,1.8,8.9,3,13.3c0.4,1.7,1.3,3.8,2,5.9c-0.4,0.9-0.6,1.8-0.4,2.8c-1,0.7-2,1.2-3,1.7c-4.8,2.3-10,3.9-15.1,5.4c-10.5,3.1-21.3,5.5-32.2,7.2c-4.3,0.7-8.7,0.5-13,0.6C261.7,411.8,253.5,412.2,245.3,411.9z M255.8,422.9c-3.5,4.6-6.7,9.4-10.2,13.9c-5,6.5-11,14.8-19,17.8c-7.6,2.9-14.4-9.8-17.3-14.9c-4.1-7.1-7.8-14.8-13.7-20.5c3.4-3.1,6.2-6.8,7.5-10.9c10.3,9.7,24.5,13.5,39,14.4C246.6,423,251.2,423,255.8,422.9z M388.2,217.5c-1,2.9-4.5,6.1-8,8.1c2-13.5,3.8-27,4.7-40.6c3.8,2.4,4.2,11.3,4.3,14.9C389.5,205.5,390.1,212,388.2,217.5z M318.3,27.6c7,0.6,13.6,2.8,19.8,5.9c16.7,8.1,29.2,23.6,36.4,40.5c7.5,17.4,9.5,36.5,10.4,55.2c0.3,6.9,0.8,13.9,1,20.8c0.1,4.9,0.3,12.3-3.3,16.3c0,0,0,0-0.1,0l-2.9-0.3c-3.4-4.9-12-8.3-16.1-10.5c-2-1.1-3.9-2.2-5.9-3.4c-0.1-0.1-0.4-0.3-0.8-0.5c1.6-0.5,3.6-0.8,5-1.1c5.2-1,7.2-7.7,2-10.4c-8.9-4.7-15.8-12.8-21.4-21c-5.7-8.3-10.4-18.2-10.6-28.5c0-0.6-0.1-1.1-0.2-1.6c0.5-3.2,0.5-6.6,0.3-10c-1-20.4-12.6-36.4-27.1-49.6C308.9,27,314.1,27.2,318.3,27.6z M136.2,225.5c-3.2-6.6-5-13.8-5.8-21.1c-0.9-8.3-0.8-21.9,7.1-25.3c1.2,10.5,2.5,21,3.6,31.4c0.8,8.1,1.5,16.2,2.1,24.4C140.4,232.8,137.7,228.7,136.2,225.5z M142.1,151.2l-1.2-0.1c-1.9,2.6-3.8,5.1-5.7,7.7c0.2,1.7,0.3,3.5,0.5,5.2c0.1,1.2,0.3,2.5,0.4,3.7c-0.5,0.1-1,0.2-1.5,0.4c-2-22.9-3.2-46.2,4.7-68.1c6.6-18.4,18.7-34.5,33.7-46.8c15.2-12.5,33.3-21,52.6-25.1c12.4-2.6,25-3.3,37.7-2.8c5.7,0.2,11.5,0.6,17.1,2c4.4,1.1,8.6,3,13,4.3c0.1,1.2,0.7,2.4,1.8,3.4c12.5,10.9,23.1,23.2,25.8,40.1c1,6.4,1.3,13.3-2.1,19c-3.6,6-10.8,10.4-16.5,14.3c-7.1,4.9-14.4,9.5-22.2,13.3c-6.8,3.3-14.4,6.6-22.1,6.8c-8.1,0.2-0.7-19.6,0.7-23.2c2.6-6.5-7-11.4-9.9-4.9c-3.9,8.9-12.3,14.5-20.5,19c-5.2,2.8-11,5.1-16.8,6.7c1-3.9,1.3-8,0.8-11.7c-0.5-3.9-5-6.7-8.6-4.1c-12.5,9.1-25.2,17.8-38.8,25c-5.1,2.7-10.1,5.6-14.9,8.9C147,146.2,144.1,148.4,142.1,151.2z M192.5,347.3c-15.8-16.2-25.5-37.2-31.1-58.9c-6.4-24.9-6.5-51-9.1-76.4c-1.6-15.3-3.8-30.5-5.2-45.8c-0.2-1.7-0.3-3.4-0.5-5.1c2-0.3,4-1.6,4.7-4.1c-0.5,1.6,1-0.7,1.6-1.1c1.9-1.6,4.1-3,6.2-4.3c4.5-2.9,9.1-5.4,13.8-7.9c9-4.7,17.9-10.5,26.6-16.6c-0.7,1.2-1.6,2.3-2.7,3.3c-3.7,3.3,0.1,9.7,4.6,9.1c13.6-1.6,30-6.8,42.3-15.9c0.2,5.6,2.2,10.8,7.3,14.2c6.9,4.6,17.9,0.5,24.7-2c10.4-3.8,20.1-9.6,29.3-15.7c6.6-4.3,13.4-9,18.9-14.8c2.3,7.1,6,13.8,10,19.9c4.2,6.5,9.5,12.8,15.5,17.9c-1.7,1-3.1,2.3-4,4c-2.5,4.7,0.4,9.3,4,12.2c4.1,3.4,9.1,5.8,13.8,8.3c2.1,1.1,4.2,2.3,6.2,3.6c-0.2-0.1,0.6,0.5,1.1,0.9c0.2,2.6,2,3.9,4.1,4.1c-0.7,17.7-3,35.3-5.6,52.8c-2,13.4-4.3,26.8-5.9,40.3c-1.4,12.1-2.6,24.3-5,36.2c-2.4,11.6-6.1,22.9-12.5,32.9c-2.8,4.3-6,8.2-9.7,11.5c-1.9-0.1-3.8,0.7-5,2.8c-0.4,0.7-0.8,1.5-1.1,2.2c-3.2,2.3-6.6,4.4-10.2,6.3c-20.9,11-45.5,15.1-68.9,13.4c-19.8-1.5-37-8.8-51.6-21.4c-0.5-0.6-1-1-1.5-1.4C195.6,350.4,194,348.9,192.5,347.3z M235.9,488.6c-0.6,0.9-1.2,1.7-1.9,2.6c-0.2,0.3-0.4,0.5-0.5,0.7c-2.3,1.1-3.4,3.8-3,6.3c-19-0.9-38-2.9-56.8-6.3c-10.7-1.9-21.5-3.2-32.1-5.9c-9.9-2.5-20.2-6.5-26.1-15.2c-9.8-14.3,19.8-25.4,29.4-28.6c14-4.7,28.5-8.9,41.4-16.4c7.5,6.3,11.2,16.2,16.4,24.4c5.1,8.1,14,17.7,24.6,15.6c3.7-0.7,7-2.3,10.1-4.5c3.5,3.1,6.3,6.7,8.8,10.5c-1.9,3-3.7,6.1-5.5,9.2C239.1,483.6,237.6,486.1,235.9,488.6z M270.9,498.2c-9.5,0.4-19,0.5-28.5,0.4c1.9-2.3,3.4-5.1,4.7-7.1c3.2-5,6.9-12,9.8-15.9c1.5-2.1,1.8-4.4,0.4-6.7c-3.3-5.4-7-10.6-11.6-14.9c1.9-2,3.6-4.1,5.3-6c5.6-6.7,10.2-14.2,15.8-20.9c0.3,0.6,0.7,1.1,1,1.7c1.3,2.3,2.5,4.6,3.6,7c2.4,5.1,4.3,10.4,6.8,15.4c0.9,1.8,1.9,3.6,3,5.3c-1.8,2.6-5.1,4.9-6.6,7.3c-2.6,4-3.3,9-0.7,13.1c2.7,4.4,6.9,7.5,10.9,10.6c1.9,1.5,3.6,2.8,4.8,4.9c0.9,1.5,1.6,3.1,2.5,4.6C285,497.4,278,497.8,270.9,498.2z M402.9,472.7c-13.8,14.7-37.7,17.1-56.5,18.9c-14,1.3-28,2.9-42,4.2c-0.2-0.6-0.5-1.3-1.1-1.9c-2.8-3.3-3.8-8.1-6.9-11.1c-3.3-3.2-7.2-5.8-10.6-8.9c-3.6-3.2-2.3-4.4,0.8-7.6c0.6-0.7,1.2-1.3,1.8-2c4.7,3.6,10.5,5.2,17.3,3.1c10.8-3.4,19.8-13.1,27-21.3c7.1-8,14-16.8,18.9-26.3c3,2.8,6.3,5.4,9.8,7.7c8.1,5.2,17,8.5,25.9,12.3c7.3,3.1,15.8,6.7,20.8,13C413.5,459.6,408,467.3,402.9,472.7z"/><path d="M261.9 276l-2.7-3.3c-1.3-1.6-2.9-2.1-4.5-1.9-3.2-3.9-4.5-9.6-5.4-14.4-1.5-8.8-1-17.9-.3-26.7.8-9.7 2-19.3 2.5-29.1.4-9 1-18 1.9-27 .8-7-10.3-7.3-11-.3l-.1 1.1c0 .1 0 .2 0 .4-1 9.7-1.5 19.3-2 29.1-.5 10.4-2.1 20.6-2.7 31-1 17.6-.3 41.9 18.5 50.1C261.7 287.3 265 279.8 261.9 276zM269 321c-5.9 6.4-19.4-1.1-26.1-3.1-6.8-2-10 8.5-3.2 10.5 11.2 3.2 27.1 11.1 36.8.6C281.2 323.9 273.8 315.8 269 321zM335.4 176.2c-1.6-3-3.7-5.5-6.1-7.7-3-2.8-6.5-5-10.4-5.7-10-3.1-21.5-1.3-29.2 6.4-5 5 2.5 13.1 7.4 8.1.5-.5 1.1-1 1.6-1.4-.2.8-.3 1.6-.4 2.4-.6 6.7 4 13.6 10.7 14.6 7.3 1.1 13.8-5.2 14.7-12.1.1-.7.1-1.4.1-2 .6.8 1.2 1.7 1.8 2.6C329.4 187.3 338.7 182.6 335.4 176.2zM223 174.6c-5.3-23.8-32.1-18.7-48-9.4-6.1 3.6-1 13.3 5.2 9.7 1.8-1 3.9-2.2 6.2-3.2-.7 5.3-.3 10.9 3.6 14.6 4.5 4.2 10.7 3.9 16 1.4 3.4-1.6 6.4-4.4 8-7.8C217.4 183 224.3 180.3 223 174.6z"/></svg>