<?xml version="1.0"?><svg xmlns="http://www.w3.org/2000/svg" viewBox="0 0 128 128">    <path d="M 64 21.400391 C 55 21.400391 39.100391 22.4 31.900391 28.5 C 31.700391 28.6 31.500781 28.700391 31.300781 28.900391 C 21.600781 37.900391 16 50.7 16 64 C 16 76.9 20.999609 88.9 30.099609 98 C 39.199609 107 51.2 112 64 112 L 64.199219 112 C 89.699219 111.9 110.60039 91.9 111.90039 66.5 C 112.60039 52.9 107.69922 40.100391 98.199219 30.400391 C 97.999219 30.200391 97.8 30.000391 97.5 29.900391 C 93.7 25.500391 84.7 21.400391 64 21.400391 z M 63.900391 27.400391 C 84.500391 27.400391 93.900391 32.100391 93.900391 36.400391 C 93.900391 38.600391 91.500391 40.899609 86.400391 42.599609 C 80.500391 40.599609 72.600391 39.400391 63.900391 39.400391 C 59.800391 39.400391 55.900781 39.699219 52.300781 40.199219 C 49.900781 40.499219 48.899609 42.500391 49.099609 44.400391 C 48.899609 44.400391 48.600391 44.300781 48.400391 44.300781 C 46.800391 44.000781 45.2 45.100781 45 46.800781 C 44.7 48.400781 45.8 49.999219 47.5 50.199219 C 54 51.299219 60.6 51.400391 64 51.400391 C 88 51.400391 96.400391 45.900781 98.900391 40.800781 C 102.40039 45.800781 104.6 51.5 105.5 57.5 C 99.6 52.7 88.500391 56.000781 89.900391 66.300781 C 93.700391 93.700781 78.400781 101.50039 61.800781 105.90039 C 51.400781 105.40039 41.800781 101.09922 34.300781 93.699219 C 26.400781 85.799219 22 75.3 22 64 C 22 52.5 26.799609 41.4 35.099609 33.5 C 35.199609 33.4 35.300391 33.400781 35.400391 33.300781 C 40.000391 28.900781 53.100391 27.400391 63.900391 27.400391 z M 37.300781 40.324219 C 37.100781 40.324219 36.899219 40.350391 36.699219 40.400391 C 36.499219 40.400391 36.299609 40.499609 36.099609 40.599609 C 35.899609 40.699609 35.699609 40.800391 35.599609 40.900391 C 35.399609 41.000391 35.299609 41.100781 35.099609 41.300781 C 34.999609 41.400781 34.799219 41.600781 34.699219 41.800781 C 34.599219 42.000781 34.500391 42.100781 34.400391 42.300781 C 34.300391 42.500781 34.299219 42.700391 34.199219 42.900391 C 34.199219 43.100391 34.099609 43.3 34.099609 43.5 C 34.099609 44.3 34.4 45.099609 35 45.599609 C 35.6 46.199609 36.299609 46.5 37.099609 46.5 C 37.899609 46.5 38.699219 46.199609 39.199219 45.599609 C 39.799219 44.999609 40.099609 44.3 40.099609 43.5 C 40.099609 43.3 40.1 43.100391 40 42.900391 C 40.3 42.700391 40.299219 42.500781 40.199219 42.300781 C 40.099219 42.100781 40.000391 41.900781 39.900391 41.800781 C 39.800391 41.600781 39.7 41.500781 39.5 41.300781 C 39.4 41.200781 39.2 41.000391 39 40.900391 C 38.8 40.800391 38.7 40.699609 38.5 40.599609 C 38.3 40.499609 38.100391 40.500391 37.900391 40.400391 C 37.700391 40.350391 37.500781 40.324219 37.300781 40.324219 z"/></svg>