<?xml version="1.0"?><svg xmlns="http://www.w3.org/2000/svg" viewBox="0 0 50 50">    <path d="M 24.009766 0 C 21.062766 0 18.321 0.86489062 16 2.3378906 L 16 7.6699219 C 16 8.2249219 16.829 8.8347031 18 8.9707031 L 18 7 C 18 6.448 18.447 6 19 6 C 19.553 6 20 6.448 20 7 L 20 9 L 30 9 L 30 7 C 30 6.448 30.447 6 31 6 C 31.553 6 32 6.448 32 7 L 32 8.9707031 C 33.171 8.8347031 34 8.2229687 34 7.6679688 L 34 2.3378906 C 31.679 0.86489062 28.937234 0 25.990234 0 L 24.009766 0 z M 14 3.8574219 C 10.939 6.6074219 9 10.580766 9 15.009766 L 9 16.007812 L 9 35 L 9 36.1875 C 9 37.6035 9.4454531 38.911 10.189453 40 L 11.414062 40 C 12.854062 37.37 14 34.220719 14 25.886719 L 14 18.019531 L 14 18.017578 L 14 15 C 14 14.448 14.447 14 15 14 C 15.553 14 16 14.448 16 15 L 16 17.322266 L 25 20.923828 L 34 17.322266 L 34 15 C 34 14.448 34.447 14 35 14 C 35.553 14 36 14.448 36 15 L 36 18.017578 L 36 18.019531 L 36 25.886719 C 36 34.220719 37.145938 37.37 38.585938 40 L 39.810547 40 C 40.554547 38.911 41 37.6035 41 36.1875 L 41 35 L 41 16.007812 L 41 15.009766 C 41 10.580766 39.061 6.6074219 36 3.8574219 L 36 7.6699219 C 36 9.4149219 34.275 10.788844 32 10.964844 L 32 13 C 32 13.552 31.553 14 31 14 C 30.447 14 30 13.552 30 13 L 30 11 L 20 11 L 20 13 C 20 13.552 19.553 14 19 14 C 18.447 14 18 13.552 18 13 L 18 10.964844 C 15.725 10.788844 14 9.4149219 14 7.6699219 L 14 3.8574219 z M 7 18.044922 C 4.045 22.801922 4 29.164797 4 29.466797 C 4 31.730797 5.236 33.679156 7 34.535156 L 7 18.044922 z M 43 18.044922 L 43 34.535156 C 44.764 33.679156 46 31.730797 46 29.466797 C 46 29.164797 45.955 22.801922 43 18.044922 z M 16 19.476562 L 16 24.523438 L 22.306641 22 L 16 19.476562 z M 34 19.476562 L 27.693359 22 L 34 24.523438 L 34 19.476562 z M 25 23.076172 L 16.443359 26.5 L 25 29.923828 L 33.556641 26.5 L 25 23.076172 z M 15.958984 28.460938 C 15.894984 30.503938 15.75225 32.224937 15.53125 33.710938 L 22.306641 31 L 15.958984 28.460938 z M 34.041016 28.460938 L 27.693359 31 L 34.46875 33.710938 C 34.24775 32.224938 34.105016 30.503937 34.041016 28.460938 z M 25 32.078125 L 15.371094 35.929688 C 15.280094 35.966687 15.185797 35.975375 15.091797 35.984375 C 14.721797 37.514375 14.242203 38.797953 13.658203 40.001953 L 18 40.001953 C 18 39.448953 18.447 39.001953 19 39.001953 C 19.553 39.001953 20 39.448953 20 40.001953 L 30 40.001953 C 30 39.448953 30.447 39.001953 31 39.001953 C 31.553 39.001953 32 39.448953 32 40.001953 L 36.341797 40.001953 L 36.341797 40 C 35.757797 38.796 35.278203 37.512422 34.908203 35.982422 C 34.814203 35.974422 34.719906 35.966688 34.628906 35.929688 L 25 32.078125 z M 8.5683594 42 C 7.1513594 42 6 43.153312 6 44.570312 L 6 47.431641 C 6 48.848641 7.1513594 50 8.5683594 50 L 18 50 L 18 42 L 12.277344 42 L 8.5683594 42 z M 20 42 L 20 50 L 30 50 L 30 42 L 20 42 z M 32 42 L 32 50 L 41.431641 50 C 42.848641 50 44 48.848641 44 47.431641 L 44 44.570312 C 44 43.153312 42.848641 42 41.431641 42 L 37.724609 42 L 32 42 z"/></svg>