<?xml version="1.0"?><svg xmlns="http://www.w3.org/2000/svg" viewBox="0 0 30 30">    <path d="M 12 3 C 10.895 3 10 3.895 10 5 C 10 5.017 10.005859 5.0337812 10.005859 5.0507812 C 9.8378594 5.0317812 9.673 5 9.5 5 C 7.015 5 5 7.015 5 9.5 C 5 9.971 5.0915625 10.415797 5.2265625 10.841797 C 3.8845625 11.738797 3 13.265 3 15 C 3 16.735 3.8845625 18.261203 5.2265625 19.158203 C 5.0915625 19.584203 5 20.029 5 20.5 C 5 22.83 6.777875 24.722125 9.046875 24.953125 C 9.260875 26.116125 10.275 27 11.5 27 C 12.881 27 14 25.881 14 24.5 L 14 24 C 14 22.897 13.103 22 12 22 C 11.447 22 11 21.552 11 21 C 11 20.448 11.447 20 12 20 C 12.732 20 13.409 20.212641 14 20.556641 L 14 11.970703 C 13.165 12.610703 12.131 13 11 13 C 10.447 13 10 12.552 10 12 C 10 11.448 10.447 11 11 11 C 12.654 11 14 9.654 14 8 L 14 5 C 14 3.895 13.105 3 12 3 z M 18 3 C 16.895 3 16 3.895 16 5 L 16 8 C 16 9.654 17.346 11 19 11 C 19.553 11 20 11.448 20 12 C 20 12.552 19.553 13 19 13 C 17.869 13 16.835 12.611656 16 11.972656 L 16 16.720703 C 17.466 15.055703 19.607 14 22 14 C 23.861 14 25.569687 14.641031 26.929688 15.707031 C 26.970687 15.477031 27 15.242 27 15 C 27 13.265 26.115437 11.738797 24.773438 10.841797 C 24.908438 10.415797 25 9.971 25 9.5 C 25 7.015 22.985 5 20.5 5 C 20.327 5 20.162141 5.0317812 19.994141 5.0507812 C 19.994141 5.0337812 20 5.017 20 5 C 20 3.895 19.105 3 18 3 z M 22 16 C 18.698136 16 16 18.698136 16 22 C 16 25.301864 18.698136 28 22 28 C 23.291499 28 24.487316 27.583068 25.46875 26.882812 L 28.292969 29.707031 A 1.0001 1.0001 0 1 0 29.707031 28.292969 L 26.882812 25.46875 C 27.583068 24.487316 28 23.291499 28 22 C 28 18.698136 25.301864 16 22 16 z M 22 18 C 24.220984 18 26 19.779016 26 22 C 26 24.220984 24.220984 26 22 26 C 19.779016 26 18 24.220984 18 22 C 18 19.779016 19.779016 18 22 18 z"/></svg>