<svg xmlns="http://www.w3.org/2000/svg" viewBox="0 0 64 64"><linearGradient id="QFzeXay8N3gXtDKI7XyQRa" x1="44" x2="44" y1="39.872" y2="47.584" gradientUnits="userSpaceOnUse"><stop offset="0" stop-color="#6dc7ff"/><stop offset="1" stop-color="#e6abff"/></linearGradient><path fill="url(#QFzeXay8N3gXtDKI7XyQRa)" d="M46.628,49.322c-0.119,0-0.239-0.029-0.35-0.088L44,48.029l-2.278,1.205 c-0.253,0.134-0.555,0.113-0.788-0.055c-0.234-0.169-0.349-0.451-0.3-0.736l0.435-2.556l-1.845-1.81 c-0.205-0.201-0.277-0.497-0.188-0.771c0.089-0.273,0.32-0.469,0.603-0.51l2.548-0.373l1.14-2.325 c0.127-0.259,0.384-0.42,0.672-0.42c0.288,0,0.545,0.161,0.672,0.42l0,0l1.14,2.325l2.547,0.373 c0.284,0.041,0.515,0.237,0.604,0.51c0.089,0.274,0.017,0.57-0.188,0.771l-1.845,1.81l0.435,2.556 c0.049,0.285-0.066,0.567-0.3,0.736C46.935,49.274,46.782,49.322,46.628,49.322z"/><g><linearGradient id="QFzeXay8N3gXtDKI7XyQRb" x1="13" x2="13" y1="9.362" y2="53.091" gradientUnits="userSpaceOnUse"><stop offset="0" stop-color="#1a6dff"/><stop offset="1" stop-color="#c822ff"/></linearGradient><rect width="6" height="2" x="10" y="14" fill="url(#QFzeXay8N3gXtDKI7XyQRb)"/><linearGradient id="QFzeXay8N3gXtDKI7XyQRc" x1="20" x2="20" y1="9.362" y2="53.091" gradientUnits="userSpaceOnUse"><stop offset="0" stop-color="#1a6dff"/><stop offset="1" stop-color="#c822ff"/></linearGradient><rect width="4" height="2" x="18" y="14" fill="url(#QFzeXay8N3gXtDKI7XyQRc)"/><linearGradient id="QFzeXay8N3gXtDKI7XyQRd" x1="32" x2="32" y1="9.362" y2="53.091" gradientUnits="userSpaceOnUse"><stop offset="0" stop-color="#1a6dff"/><stop offset="1" stop-color="#c822ff"/></linearGradient><path fill="url(#QFzeXay8N3gXtDKI7XyQRd)" d="M57.894,41.155c-0.249-0.765-0.896-1.312-1.69-1.428l-7.132-1.043l-1.17-2.387H48V12.946 C48,11.321,46.654,10,45,10H9c-1.654,0-3,1.321-3,2.946v32.108C6,46.679,7.346,48,9,48h17h2h7.409l0.388,0.381l-1.219,7.157 c-0.137,0.798,0.185,1.588,0.839,2.062c0.65,0.472,1.497,0.531,2.205,0.155L44,54.38l6.378,3.375 C50.687,57.919,51.023,58,51.357,58c0.431,0,0.86-0.135,1.226-0.4c0.654-0.474,0.976-1.264,0.839-2.061l-1.219-7.158l5.165-5.067 C57.943,42.75,58.144,41.923,57.894,41.155z M45.881,32.175C45.525,31.45,44.805,31,44,31c-0.733,0-1.381,0.386-1.763,1H28V20h18 v12.418L45.881,32.175z M26,32H8V20h18V32z M9,12h36c0.552,0,1,0.424,1,0.946V18H8v-5.054C8,12.424,8.448,12,9,12z M9,46 c-0.552,0-1-0.424-1-0.946V34h18v12H9z M28,46V34h13.224l-2.296,4.684l-7.133,1.043c-0.793,0.116-1.44,0.663-1.689,1.428 c-0.25,0.767-0.049,1.595,0.526,2.159L33.37,46H28z M55.968,41.885l-5.538,5.434c-0.234,0.23-0.341,0.559-0.285,0.882l1.307,7.675 c0.003,0.021,0.01,0.066-0.138,0.111l-6.846-3.623c-0.147-0.077-0.307-0.116-0.468-0.116s-0.321,0.039-0.469,0.116L36.59,55.98 c-0.053-0.038-0.045-0.083-0.042-0.105l1.307-7.674c0.056-0.323-0.051-0.653-0.285-0.882l-5.538-5.434 c-0.013-0.013-0.046-0.046-0.025-0.111c0.019-0.06,0.057-0.066,0.078-0.069l7.653-1.119c0.326-0.048,0.608-0.253,0.753-0.549 l3.423-6.981c0.022-0.041,0.151-0.041,0.172,0l3.423,6.981c0.145,0.296,0.427,0.501,0.753,0.549l7.652,1.119 c0.021,0.003,0.059,0.008,0.079,0.069C56.015,41.839,55.982,41.871,55.968,41.885z"/></g></svg>