<svg xmlns="http://www.w3.org/2000/svg" width="512" height="512" viewBox="0 0 512 512"><path fill="#FEBF10" d="M52.5 195.2c-4.7-11.6-24 2.8-17.5 13.6.8 1.2.9 2.5.7 3.6.3 1 .3 2.1-.2 3.2.2.1.5.2.8.4 1.5.7 3 1.2 4.6 1.5 2.5.5 5.9 1.4 7.7-.6C53.4 211.7 55.2 201.9 52.5 195.2zM138.6 158.2c-.9-6-10.3-13.1-16.1-8.3-4.1 3.4-4 9.2-3.8 14.3 1.9.9 3.3 2.7 3 5.3-.2 1.5-.1 2 1.8 2.3 1.8.3 3.7.1 5.5-.3C134.6 169.9 139.5 164.6 138.6 158.2zM93.2 103.2c-2.3-6.1-11.2-11.9-16.6-6.1-3.9 4.2-6.4 10.1-7.3 15.9 1.3.4 2.5 1.3 3.2 2.9C75.7 123.1 96.3 111.5 93.2 103.2zM237.5 225.2c-1.1-3.4-5.4-6.6-8.1-3-2.1 2.9-3.1 6.8-3.5 10.5 1.5.3 2.9 1.2 3.6 3.2.1.3.3.5.3.6 0 0 .1 0 .1 0-.7.1 1.4-.5 1.2-.4.7-.4 1.5-.8 2.1-1.4C235.6 232.5 238.7 228.6 237.5 225.2zM206.1 268.5c-8.7-1.8-14.4 4.1-14.3 12.7 0 1.6-.6 2.9-1.6 3.8.1 13 22.3 18.7 25.8 3.9C218.1 280.5 215.7 270.4 206.1 268.5zM333.1 32.7c-2.6-3.2-7.9-2.2-10.9-.3-3 1.9-5.3 4.4-6.5 7.5 1.2 1.7 1.4 4-.2 6-.7.9-.5 1 1 2 1.3.9 2.9 1.6 4.4 2 3.2.8 6.7 1.4 9.8-.4C335.5 46.5 336.6 37 333.1 32.7zM227.8 84.7C225 72 227.9 59 227.9 46.1c-5.4.9-10.5 2.8-15.5 4.9-5.5 2.3-11.3 5.6-17.3 6.3-11 1.3-18.7-4.8-27.9-9.6-5.2-2.7-10.7-5.5-16.6-6-2.1-.2-5.3-.6-7.4.1-.3.1-.5.1-.6.1 0 .1 0 .2 0 .4-2.5 11.3-1.6 23-3.9 34.3-.4 1.9-1.5 3-2.9 3.6v.1c0 1.3-.4 2.4-1.1 3.2-1.4 5.1-3.7 9.9-6 14.7-1.5 3.1-3 6.2-4 9.5-.4 1.2-1.8 4.5-.9 5.8 1.8 2.5 7.1 2.6 9.8 3 4.8.8 9.4 1.9 14.1 2.9 9 1.9 21.6 3.6 28.3 10.6 7 7.5 8.9 18.2 14.8 26.3 4.4-3.6 7-9.9 9.4-14.6 3-6 6.1-12.8 11-17.5 5.6-5.3 13.6-7.1 20.9-8.8 4.7-1.1 10.1-2 14.4-4.4C238 104.1 230.2 95.2 227.8 84.7z"/><path fill="#F6851F" d="M406.5 119.6c-2.4-1.6-5.2-2.7-7.9-3.6-11.4-3.9-25.6-6.4-31.4-18.5-2.5-5.2-3-11.1-3.4-16.8-.2-3.5-.1-8.4-1.5-12.2-12.2 8.3-23.9 17.9-32.1 30.3-1.7 2.5-4.6 2.9-6.8 1.9-6.7 2.8-13.9 4.8-20.3 8.2 7.3 7.9 18 12.4 21.1 23.8 1.4 5.3-.3 10.8-1.6 15.9-1 4.2-3.8 11-2.2 15.3.1.3.2.5.2.6.9.1 1.7.1 2.6 0 3-.3 5.9-1 8.8-1.7 5.3-1.3 11.2-3.4 16.7-3.3 6.4.1 11.7 3.5 16.8 7.1 3.6 2.6 7.6 6.2 12 7.5-.6-12.6-1.9-26.9 7.7-36.1 6.2-5.9 14.1-9.7 21.1-14.6.8-.6 1.6-1.1 2.5-1.7 0 0 0 0 0 0C408.2 120.9 407.4 120.2 406.5 119.6zM149.3 225.2c-4.6-6.1-3.9-12.8-3.5-19.7-7.6 4.6-15.2 9.1-23.3 12.8-2.2 1-4 .3-5.1-1-2.5-.4-5.1-.5-7.6-.6 2.9 5.9 7.3 11.4 5.9 18.3-1.5 7.3-7.3 12.6-9.3 19.7 3.4 0 6.8-.1 10.2.1 6.7.4 14.8 1.2 19.8 6.3 2.8 2.8 6.8 8.8 10.9 10.1.1-.9.3-1.7.3-2.6.2-2.5.2-5 .2-7.5 0-6.9 2.7-15.8 8-20.6 2.6-2.4 5.1-4.2 8.3-5.8.6-.3 1.1-.5 1.7-.8C159.7 231.8 153.2 230.4 149.3 225.2zM473.8 210c-1-13-28.8-21.8-27-4.8.1.6 0 1.2-.1 1.7C446.2 221.2 475 225.2 473.8 210z"/><path fill="#FEBF10" d="M405.8,288c-8-8-6.3-19.2-9.7-29c-11.5,4.7-24,11.5-31.6,20.9c-2.7,3.4-7,1.5-8.3-1.6c-3.9,1.2-7.9,2.5-11.7,4c-1.7,0.7-9.4,2.9-9.8,5.3c-0.3,2,3.1,5.4,4.3,6.8c2.5,3.2,5.8,5.4,8.9,8c5.8,4.9,9.9,11.2,8.8,19.1c-0.8,5.7-3.9,10.9-5.7,16.3c8.1-4.4,16.6-9.2,25.7-6.2c6.6,2.2,11.5,6.5,17.7,9.4c1.7,0.8,4.3,2.4,6.3,2.2c0.3,0,0.4,0.1,0.4,0.1c0-0.1,0-0.3,0.1-0.7c2-8.5,0.8-17.1,5.6-24.9c5-8,13.7-12.4,20.5-18.7C420.6,294.8,411.7,293.9,405.8,288z"/><path fill="#010101" d="M294.9 179.6c-2.2 8.7-6.5 16.7-10.3 24.7-4.3 9-7.4 18.5-10.7 27.8-6.9 19-14 38.6-17.9 58.5-7.6 38.2-3.2 77.7-3.1 116.3 0 6.4 10 5.6 10-.8-.1-38.5-4.3-77.4 3.3-115.5 3.9-19.6 11.2-39 18.1-57.8 3.2-8.7 6.2-17.4 10.2-25.7 4-8.4 8.1-16.6 10.4-25.6C306.3 175.3 296.4 173.4 294.9 179.6zM410 110.1c-9.8-5.9-28.2-5.2-33.8-16.9-2.7-5.5-2.2-12.4-2.7-18.4-.6-6.3-2-12.2-6.3-17-1.5-1.7-4.4-1.5-6.1-.4-14 9.1-27.1 19.6-37 33.1-.8-.2-1.8-.1-2.9.3-9.5 4.1-19.6 6.5-28.1 12.6-2.3 1.6-2.8 4.6-1.3 6.9 3.5 5.5 8.8 9.4 13.9 13.4 3.9 3.2 9.9 8 9.3 13.7-1 10.1-9.4 24.8-1.4 33.8 3.5 3.9 9 3.5 13.7 2.8 6.6-1.1 13-3.4 19.6-4.4 6.4-1 11.8 4.1 16.7 7.6 5.8 4.2 12.2 8.2 19.7 7.2 2.8-.4 4.6-2.5 4.6-5.4-.1-7.8-1.1-15.7-.1-23.5 1.3-9.3 8-13.5 15.5-18.1 5.1-3.2 14.4-7.3 16.3-13.6C421.3 117.7 414.5 112.8 410 110.1zM408.9 121.7c-.8.6-1.6 1.2-2.5 1.7-7 4.9-14.9 8.7-21.1 14.6-9.6 9.2-8.3 23.5-7.7 36.1-4.4-1.4-8.4-5-12-7.5-5-3.6-10.4-7-16.8-7.1-5.5-.1-11.4 2-16.7 3.3-2.9.7-5.8 1.4-8.8 1.7-.9.1-1.7.1-2.6 0 0-.1-.1-.3-.2-.6-1.5-4.3 1.2-11.1 2.2-15.3 1.3-5.1 3-10.6 1.6-15.9-3.1-11.4-13.8-15.9-21.1-23.8 6.4-3.4 13.5-5.4 20.3-8.2 2.2.9 5.2.6 6.8-1.9 8.1-12.4 19.9-22 32.1-30.3 1.4 3.8 1.3 8.7 1.5 12.2.4 5.7.9 11.6 3.4 16.8 5.8 12.1 20 14.6 31.4 18.5 2.7.9 5.5 2 7.9 3.6C407.4 120.2 408.2 120.9 408.9 121.7 408.9 121.6 408.9 121.7 408.9 121.7zM257 106.1c-9.2-6-18.2-15.2-20.1-26.4-2.1-12.9 1.7-26.4.8-39.5-.2-2.8-2.7-4.7-5.4-4.6-6.9.2-13.5 2.1-20 4.6-6.8 2.6-13.7 7-21 7.3-5.3.2-10.4-3.4-14.7-5.9-5.5-3.3-11.4-6.4-17.5-8.3-7.5-2.4-21.3-4.4-25.6 4.3-2 4.1-2.1 9.8-2.6 14.2-.9 7-.7 14.1-1.9 21.1-1.6.5-3 1.7-3.3 3.7-1.7 12.9-13.4 24.1-12.1 37.5 1.1 10.4 13.5 11.2 21.4 12.6 10.5 1.9 22.5 3.7 32 8.7 4.7 2.5 7.1 9.9 9.2 14.4 2.7 6 5.6 11.6 10.1 16.4 1.1 1.2 3.5 1.6 5 1 14.3-6.6 16.7-23.8 25.8-35.1 4.6-5.7 14.1-6.6 20.8-8.2 7.5-1.8 15.2-4.1 20.5-10.2C260.9 111.2 259.7 107.8 257 106.1zM232.2 115.2c-7.3 1.7-15.3 3.5-20.9 8.8-4.9 4.7-8 11.6-11 17.5-2.4 4.7-5 11-9.4 14.6-5.9-8.1-7.8-18.8-14.8-26.3-6.7-7.1-19.3-8.7-28.3-10.6-4.7-1-9.4-2.1-14.1-2.9-2.7-.4-8-.5-9.8-3-.9-1.2.6-4.6.9-5.8 1-3.3 2.5-6.4 4-9.5 2.3-4.8 4.6-9.6 6-14.7.7-.8 1.1-1.9 1.1-3.2v-.1c1.4-.5 2.5-1.7 2.9-3.6 2.3-11.3 1.4-23 3.9-34.3 0-.2 0-.3 0-.4.1 0 .3 0 .6-.1 2.1-.7 5.2-.2 7.4-.1 5.9.5 11.4 3.3 16.6 6 9.2 4.8 16.9 10.9 27.9 9.6 6-.7 11.8-4 17.3-6.3 5.1-2.1 10.2-4 15.5-4.9C227.9 59 225 72 227.8 84.7c2.3 10.6 10.2 19.4 18.8 26.1C242.2 113.2 236.8 114.1 232.2 115.2zM178 228.1c-6.1-3.7-14-3.9-19.8-8.1-6.2-4.5-1.7-17.4-2.4-23.8-.4-3.9-4.5-5.7-7.8-3.8-8.8 5.3-17.4 10.9-26.7 15.4-.2-.1-.4-.1-.6-.1-6.1-1.1-12.2-1.1-18.3-1.1-2.5 0-5.1 2.8-4.6 5.4 1.7 8.4 10.7 16.8 6.4 25.3-3.3 6.6-8.5 12.5-8.3 20.4.2 6.3 7 7 11.8 7 7.8 0 17.4-1.1 23.3 5 4.5 4.6 8.8 9.4 15.1 11.4 6.8 2.1 10.6-3.8 11.3-9.5.9-7.2-.1-14.2 3.2-20.9 3.8-7.8 14.2-7.8 19-14.7C181.5 233.1 181 229.9 178 228.1zM164.1 234.6c-3.2 1.5-5.7 3.4-8.3 5.8-5.3 4.8-8 13.7-8 20.6 0 2.5 0 5-.2 7.5-.1.9-.2 1.7-.3 2.6-4.1-1.3-8.1-7.3-10.9-10.1-5.1-5.1-13.1-5.9-19.8-6.3-3.4-.2-6.8-.1-10.2-.1 1.9-7.1 7.7-12.3 9.3-19.7 1.4-6.9-3-12.4-5.9-18.3 2.5.1 5.1.2 7.6.6 1.1 1.4 2.9 2.1 5.1 1 8.1-3.7 15.7-8.2 23.3-12.8-.4 6.9-1.2 13.6 3.5 19.7 4 5.2 10.5 6.7 16.6 8.6C165.3 234.1 164.7 234.3 164.1 234.6zM344.2 33.5C341.8 23 331.9 18.9 322 21.6c-10.7 3-17.5 13.6-17.2 24.4 0 .7.2 1.4.4 1.9 1.2 7.8 13.2 12.5 21.3 12.8C340.9 61.1 347 45.5 344.2 33.5zM330.8 49.4c-3.1 1.9-6.5 1.3-9.8.4-1.5-.4-3.1-1.1-4.4-2-1.5-1-1.7-1.1-1-2 1.6-2.1 1.3-4.4.2-6 1.2-3.1 3.5-5.6 6.5-7.5 3.1-1.9 8.4-3 10.9.3C336.6 37 335.5 46.5 330.8 49.4zM102.8 100.7c-1.3-6.1-7.2-10.7-12.2-13.7-5.4-3.2-11.6-2.9-17-.1C63.1 92.2 59 108.1 58.8 119c-.1 4 3.7 5.2 6.7 4 5.3 6 14.7 5.5 22.1 2.2C97.2 120.9 105.3 111.8 102.8 100.7zM72.5 115.9c-.7-1.6-1.9-2.5-3.2-2.9 1-5.8 3.5-11.7 7.3-15.9 5.3-5.8 14.3-.1 16.6 6.1C96.3 111.5 75.7 123.1 72.5 115.9zM123.9 138.8c-14.5 2-15.2 17.7-15.1 29.1 0 2.4 1.4 3.8 3.2 4.3 1.3 7.2 8.3 10.4 16.2 9.5 11.2-1.3 19.5-10.1 20.3-21.5C149.4 147.3 136.3 137.1 123.9 138.8zM128.9 171.5c-1.7.5-3.7.6-5.5.3-1.9-.3-2-.8-1.8-2.3.3-2.6-1.1-4.5-3-5.3-.2-5.1-.3-10.9 3.8-14.3 5.8-4.8 15.2 2.3 16.1 8.3C139.5 164.6 134.6 169.9 128.9 171.5zM62.8 195.1c-2.9-13.4-15.6-16.8-26.9-11.1-10.6 5.4-15.2 17.9-10.3 28.4-6.3 10.6 13.7 16 21.4 15.7C61.4 227.3 65.2 206 62.8 195.1zM48.4 216.9c-1.8 1.9-5.2 1-7.7.6-1.6-.3-3.1-.8-4.6-1.5-.3-.2-.6-.3-.8-.4.5-1.1.5-2.2.2-3.2.2-1.1.1-2.4-.7-3.6-6.5-10.8 12.8-25.2 17.5-13.6C55.2 201.9 53.4 211.7 48.4 216.9zM436.8 206c0 .1 0 .1 0 .2 0 12.6 9.7 21.5 22.1 23.2 12.9 1.7 24.4-5.7 24.8-19.2C484.7 183.6 433.6 174.8 436.8 206zM446.7 206.8c.1-.5.1-1 .1-1.7-1.7-17 26-8.2 27 4.8C475 225.2 446.2 221.2 446.7 206.8zM438.1 294.8c-6.5-6.9-16.2-7.7-23.8-12.8-4.8-3.2-5.5-9.2-6.3-14.5-1-6.2-2.1-12-5-17.7-1-1.9-3.9-2.6-5.8-1.9-12.3 4.6-26.4 11.5-36.2 21.1-1.2-1.1-2.9-1.7-4.8-1.1-9.6 2.8-21.1 5.5-28.4 12.7-6.2 6.1-1.1 14.1 3.1 19.5 2.8 3.6 6.1 6.4 9.6 9.2 3 2.4 6 4.9 6.4 9 .5 4.6-2.3 9.4-4 13.5-2.1 4.9-3.3 9.9-3 15.3.2 3.1 3.7 5.6 6.6 4.3 5.8-2.4 11-6 16.7-8.5 7-3.1 12.6-1.4 18.9 2.4 6.7 4.1 19.9 13.3 26.7 4.3 5-6.6 2.5-16.6 5.3-24.1 1.9-5.2 7.1-8.8 11.4-12 4.7-3.5 9.4-7 13.1-11.5C440.4 299.6 440 296.8 438.1 294.8zM406.8 317.7c-4.9 7.8-3.6 16.4-5.6 24.9-.1.4-.1.6-.1.7 0-.1-.1-.1-.4-.1-1.9.1-4.6-1.4-6.3-2.2-6.2-2.8-11.1-7.2-17.7-9.4-9.1-3-17.6 1.8-25.7 6.2 1.8-5.4 4.8-10.6 5.7-16.3 1.2-7.9-3-14.2-8.8-19.1-3.1-2.6-6.4-4.8-8.9-8-1.1-1.4-4.5-4.8-4.3-6.8.3-2.5 8-4.7 9.8-5.3 3.8-1.5 7.8-2.8 11.7-4 1.3 3.1 5.6 5 8.3 1.6 7.6-9.4 20.1-16.2 31.6-20.9 3.3 9.8 1.6 21.1 9.7 29 5.9 5.8 14.7 6.8 21.6 11C420.5 305.3 411.8 309.7 406.8 317.7zM247.4 223.8c-1.7-9.1-12.6-16.7-21.4-11.7-7.9 4.4-10.1 15.6-10.2 23.9 0 3.1 2.3 4.6 4.7 4.4 3.2 7 11.1 7.4 17.2 3.4C244.1 239.7 248.9 231.4 247.4 223.8zM233.3 234.7c-.6.6-1.4 1-2.1 1.4.2-.1-1.9.5-1.2.4-.1 0-.1 0-.1 0-.1-.1-.2-.3-.3-.6-.7-1.9-2.1-2.9-3.6-3.2.3-3.7 1.4-7.6 3.5-10.5 2.7-3.6 7-.5 8.1 3C238.7 228.6 235.6 232.5 233.3 234.7zM182 463c-2.5-6.5-4.2-13.3-6.4-20-3.2-9.6-7.3-19-10.8-28.6-6.9-19-13.8-37.9-23.6-55.6-17.9-32.6-43.2-60.3-66.4-89.1-4-5-12.3.6-8.3 5.6 22.9 28.4 47.5 55.7 65.5 87.6 9.8 17.4 16.4 36.2 23.2 54.8 3.5 9.5 7.5 19 10.8 28.6 3 8.6 4.9 17.6 8.9 25.9 2.4 5.1 9.7 3.8 9.7-2v-3C184.8 465 183.6 463.6 182 463zM211.6 435.1c-.2-1.7-.3-3.4-.5-5.1-.3-4.2-.6-8.3-1.2-12.5-2.1-15-3.4-30.1-6.5-44.9-2.9-14.1-7.2-27.8-13.2-40.9-5.7-12.6-12.3-24.9-17.8-37.6-2.5-5.9-12-2.6-9.4 3.3 5.4 12.7 11.9 25.1 17.8 37.6 6.4 13.9 10.8 28.8 13.7 43.8 2.9 15 4 30.2 6.3 45.3.8 5.6-1.1 14.7 3.3 19 1.3 1.2 3.3 1.5 5 1 2.1-.7 3-2.4 3.6-4.4C213.3 437.6 212.7 436.1 211.6 435.1zM346.1 360.9c-15.7 7.4-23.8 25.7-29.4 41.1-6.8 18.8-7.5 39.3-13.7 58.2-1.8.7-3.2 2.4-3.2 4.8v5c0 4.9 7.6 6.3 9.5 1.8 8.2-19.4 8.6-40.7 14.8-60.7 2.5-8 5.8-15.8 9.8-23.2 3.6-6.6 8.5-14.3 15.6-17.6C355.2 367.6 352 358.1 346.1 360.9z"/><path fill="#010101" d="M253.4 161.9c-1.3-10.6-4-22.6-12.3-30.1-4.8-4.3-11.4 3.2-6.6 7.5 7.2 6.4 8.4 18.2 9.4 27.2 1.1 10.1.9 20.3.9 30.4 0 6.4 10 5.6 10-.8C254.8 184.7 254.9 173.3 253.4 161.9zM96.1 158.8c-2.2-4.4-4.6-8.6-7.1-12.8-2.4-3.9-5.3-8.2-6.2-12.8-1.2-6.3-11.2-5.6-10 .8 1.7 9.2 7.6 16.3 11.8 24.4 5.4 10.4 10 20.6 10.2 32.6.1 6.4 10.1 5.7 10-.8C104.6 179 101.1 168.7 96.1 158.8zM341.1 177.9c-8.7 2.1-12.8 14.2-15.5 21.5-3.5 9.7-5.9 19.7-8.2 29.8-1.6 7.1-4 14-5.8 21-2.5 9.9-4.5 19.9-6.3 29.9-3.5 19.4-5.9 39-8.6 58.6-.9 6.4 8.9 8.3 9.8 1.9 2.5-18.3 4.9-36.6 7.9-54.8 1.5-8.8 3.2-17.5 5.1-26.2 2-8.9 4.9-17.5 7.1-26.4 2.1-8.4 4-16.9 6.5-25.2 1.4-4.7 3.2-9.3 5.3-13.7 1.3-2.6 3.1-6.3 5.8-6.9C350.7 185.8 347.4 176.4 341.1 177.9zM208 258.7c-6-1.5-12.7-.1-17.7 3.5-4.5 3.2-6.9 8-7.9 13.1 0 0 0 .1 0 .1-5.2 12.6.1 25.9 13.1 30.7 13 4.8 25.8-1.2 30.2-14.3C230.4 277.5 222.5 262.2 208 258.7zM216.1 288.9c-3.6 14.8-25.7 9.1-25.8-3.9 1-.9 1.6-2.2 1.6-3.8-.1-8.6 5.5-14.5 14.3-12.7C215.7 270.4 218.1 280.5 216.1 288.9z"/></svg>