<?xml version="1.0"?><svg xmlns="http://www.w3.org/2000/svg" viewBox="0 0 128 128">    <path d="M 64.212891 1.0742188 C 63.475391 1.0742188 62.749219 1.3503906 62.199219 1.9003906 L 41.199219 21.900391 C 41.099219 22.000391 41 22.099219 41 22.199219 C 41 22.299219 40.900391 22.300391 40.900391 22.400391 C 40.800391 22.500391 40.799219 22.599219 40.699219 22.699219 C 40.699219 22.799219 40.599609 22.900391 40.599609 22.900391 C 40.599609 23.000391 40.5 23.099609 40.5 23.099609 C 40.5 23.199609 40.400391 23.300391 40.400391 23.400391 L 40.400391 23.599609 L 40.400391 24 L 40.400391 51 L 4 51 C 2.3 51 1 52.3 1 54 L 1 74 L 1 124 C 1 125.7 2.3 127 4 127 L 124 127 C 125.7 127 127 125.7 127 124 L 127 74 L 127 54 C 127 52.3 125.7 51 124 51 L 88 51 L 88 24 L 88 23.599609 L 88 23.400391 C 88 23.300391 87.900391 23.199609 87.900391 23.099609 C 87.900391 22.999609 87.900781 22.900391 87.800781 22.900391 C 87.800781 22.800391 87.699219 22.699219 87.699219 22.699219 C 87.699219 22.599219 87.599609 22.500391 87.599609 22.400391 C 87.599609 22.300391 87.5 22.299219 87.5 22.199219 C 87.4 22.099219 87.400781 22.000391 87.300781 21.900391 L 66.300781 1.9003906 C 65.700781 1.3503906 64.950391 1.0742188 64.212891 1.0742188 z M 64 8.0996094 L 82 25.199219 L 82 121 L 74 121 L 74 109 C 74 103.5 69.5 99 64 99 C 58.5 99 54 103.5 54 109 L 54 121 L 46 121 L 46 25.300781 L 64 8.0996094 z M 64 23 A 6 6 0 0 0 58 29 A 6 6 0 0 0 64 35 A 6 6 0 0 0 70 29 A 6 6 0 0 0 64 23 z M 64 43 C 60.7 43 58 45.7 58 49 L 58 88 C 58 89.7 59.3 91 61 91 L 67 91 C 68.7 91 70 89.7 70 88 L 70 49 C 70 45.7 67.3 43 64 43 z M 7 57 L 40 57 L 40 71 L 7 71 L 7 57 z M 88 57 L 121 57 L 121 71 L 88 71 L 88 57 z M 7 77 L 40 77 L 40 121 L 7 121 L 7 77 z M 88 77 L 121 77 L 121 121 L 88 121 L 88 77 z M 16.5 83 C 14 83 12 85 12 87.5 L 12 92 C 12 93.7 13.3 95 15 95 L 18 95 C 19.7 95 21 93.7 21 92 L 21 87.5 C 21 85 19 83 16.5 83 z M 31.5 83 C 29 83 27 85 27 87.5 L 27 92 C 27 93.7 28.3 95 30 95 L 33 95 C 34.7 95 36 93.7 36 92 L 36 87.5 C 36 85 34 83 31.5 83 z M 97.5 83 C 95 83 93 85 93 87.5 L 93 92 C 93 93.7 94.3 95 96 95 L 99 95 C 100.7 95 102 93.7 102 92 L 102 87.5 C 102 85 100 83 97.5 83 z M 111.5 83 C 109 83 107 85 107 87.5 L 107 92 C 107 93.7 108.3 95 110 95 L 113 95 C 114.7 95 116 93.7 116 92 L 116 87.5 C 116 85 114 83 111.5 83 z M 16.5 103 C 14 103 12 105 12 107.5 L 12 112 C 12 113.7 13.3 115 15 115 L 18 115 C 19.7 115 21 113.7 21 112 L 21 107.5 C 21 105 19 103 16.5 103 z M 31.5 103 C 29 103 27 105 27 107.5 L 27 112 C 27 113.7 28.3 115 30 115 L 33 115 C 34.7 115 36 113.7 36 112 L 36 107.5 C 36 105 34 103 31.5 103 z M 97.5 103 C 95 103 93 105 93 107.5 L 93 112 C 93 113.7 94.3 115 96 115 L 99 115 C 100.7 115 102 113.7 102 112 L 102 107.5 C 102 105 100 103 97.5 103 z M 111.5 103 C 109 103 107 105 107 107.5 L 107 112 C 107 113.7 108.3 115 110 115 L 113 115 C 114.7 115 116 113.7 116 112 L 116 107.5 C 116 105 114 103 111.5 103 z"/></svg>