<svg xmlns="http://www.w3.org/2000/svg" viewBox="0 0 24 24"><path d="M 12 0 C 5.363281 0 0 5.363281 0 12 C 0 18.636719 5.363281 24 12 24 C 18.636719 24 24 18.636719 24 12 C 24 5.363281 18.636719 0 12 0 Z M 12 2 C 17.566406 2 22 6.433594 22 12 C 22 17.566406 17.566406 22 12 22 C 6.433594 22 2 17.566406 2 12 C 2 6.433594 6.433594 2 12 2 Z M 5.6875 10.25 L 4.3125 11.75 C 4.3125 11.75 5.75 13 8 13 C 10.25 13 11.6875 11.75 11.6875 11.75 L 10.3125 10.25 C 10.3125 10.25 9.550781 11 8 11 C 6.449219 11 5.6875 10.25 5.6875 10.25 Z M 13.6875 10.25 L 12.3125 11.75 C 12.3125 11.75 13.75 13 16 13 C 18.25 13 19.6875 11.75 19.6875 11.75 L 18.3125 10.25 C 18.3125 10.25 17.550781 11 16 11 C 14.449219 11 13.6875 10.25 13.6875 10.25 Z M 9 16 L 9 18 L 15 18 L 15 16 Z"/></svg>