<svg xmlns="http://www.w3.org/2000/svg" viewBox="0 0 100 100"><circle cx="77" cy="13" r="1" fill="#f1bc19"/><circle cx="50" cy="50" r="37" fill="#e6edb7"/><circle cx="83" cy="15" r="4" fill="#f1bc19"/><circle cx="87" cy="24" r="2" fill="#9f8066"/><circle cx="81" cy="76" r="2" fill="#fbcd59"/><circle cx="25" cy="87" r="2" fill="#9f8066"/><circle cx="20.5" cy="41.5" r="2.5" fill="#fff"/><circle cx="79.5" cy="40.5" r="1.5" fill="#fff"/><circle cx="16.125" cy="68.958" r="4" fill="#fbcd59"/><polygon fill="#cbc9bc" points="67,74 33,74 33,60.167 36,58 36,43 33,40.917 33,27 67,27 67,40.417 63,44.667 63,57.167 67,61.75"/><path fill="#f1bc19" d="M34.5,74h-3V61.167c0-0.398,0.158-0.779,0.439-1.061l3.561-3.561V44.464l-3.549-3.476 c-0.288-0.282-0.451-0.668-0.451-1.072V27h3v12.286l3.549,3.476c0.288,0.282,0.451,0.668,0.451,1.072v13.333 c0,0.398-0.158,0.779-0.439,1.061L34.5,61.788V74z"/><path fill="#f1bc19" d="M65.5,74h3V61.167c0-0.398-0.158-0.779-0.439-1.061L64.5,56.545V44.464l3.549-3.476 c0.288-0.282,0.451-0.668,0.451-1.072V27h-3v12.286l-3.549,3.476c-0.288,0.282-0.451,0.668-0.451,1.072v13.333 c0,0.398,0.158,0.779,0.439,1.061l3.561,3.561V74z"/><rect width="2" height="5" x="49" y="27" fill="#fff"/><rect width="2" height="6" x="49" y="35" fill="#fff"/><rect width="3" height="11" x="41" y="45" fill="#fff"/><rect width="3" height="11" x="56" y="45" fill="#fff"/><rect width="3" height="11" x="46" y="45" fill="#fff"/><rect width="3" height="11" x="51" y="45" fill="#fff"/><rect width="2" height="5" x="49" y="69" fill="#fff" transform="rotate(-180 50 71.5)"/><rect width="2" height="6" x="49" y="60" fill="#fff" transform="rotate(-180 50 63)"/><path fill="#472b29" d="M34.5,74.5c-0.276,0-0.5-0.224-0.5-0.5V61.788c0-0.133,0.053-0.26,0.146-0.354l3.561-3.561 C37.896,57.685,38,57.434,38,57.167v-1.833c0-0.276,0.224-0.5,0.5-0.5s0.5,0.224,0.5,0.5v1.833c0,0.534-0.208,1.036-0.586,1.414 L35,61.995V74C35,74.276,34.776,74.5,34.5,74.5z"/><path fill="#472b29" d="M38.5,53.417c-0.276,0-0.5-0.224-0.5-0.5v-5.5c0-0.276,0.224-0.5,0.5-0.5s0.5,0.224,0.5,0.5v5.5 C39,53.193,38.776,53.417,38.5,53.417z"/><path fill="#472b29" d="M38.5,45.583c-0.276,0-0.5-0.224-0.5-0.5v-1.25c0-0.267-0.109-0.527-0.301-0.715l-3.549-3.475 C34.054,39.549,34,39.42,34,39.286V27c0-0.276,0.224-0.5,0.5-0.5S35,26.724,35,27v12.076l3.399,3.328 C38.781,42.778,39,43.299,39,43.833v1.25C39,45.359,38.776,45.583,38.5,45.583z"/><path fill="#472b29" d="M31.5,35.667c-0.276,0-0.5-0.224-0.5-0.5V27c0-0.276,0.224-0.5,0.5-0.5S32,26.724,32,27v8.167 C32,35.443,31.776,35.667,31.5,35.667z"/><path fill="#472b29" d="M31.5,65.083c-0.276,0-0.5-0.224-0.5-0.5v-3.417c0-0.534,0.208-1.036,0.586-1.414L35,56.338V44.674 l-3.399-3.328C31.219,40.972,31,40.451,31,39.917V37.25c0-0.276,0.224-0.5,0.5-0.5s0.5,0.224,0.5,0.5v2.667 c0,0.267,0.109,0.527,0.301,0.715l3.549,3.475C35.946,44.201,36,44.33,36,44.464v12.081c0,0.133-0.053,0.26-0.146,0.354 l-3.561,3.561C32.104,60.649,32,60.9,32,61.167v3.417C32,64.859,31.776,65.083,31.5,65.083z"/><path fill="#472b29" d="M31.5,74.5c-0.276,0-0.5-0.224-0.5-0.5v-6.417c0-0.276,0.224-0.5,0.5-0.5s0.5,0.224,0.5,0.5V74 C32,74.276,31.776,74.5,31.5,74.5z"/><g><path fill="#472b29" d="M65.5,74.5c-0.276,0-0.5-0.224-0.5-0.5v-7.583c0-0.276,0.224-0.5,0.5-0.5s0.5,0.224,0.5,0.5V74 C66,74.276,65.776,74.5,65.5,74.5z"/></g><g><path fill="#472b29" d="M65.5,64.667c-0.276,0-0.5-0.224-0.5-0.5v-2.172l-3.414-3.414C61.208,58.203,61,57.701,61,57.167 v-8.25c0-0.276,0.224-0.5,0.5-0.5s0.5,0.224,0.5,0.5v8.25c0,0.267,0.104,0.518,0.293,0.707l3.561,3.561 C65.947,61.528,66,61.655,66,61.788v2.379C66,64.443,65.776,64.667,65.5,64.667z"/></g><g><path fill="#472b29" d="M61.5,46.833c-0.276,0-0.5-0.224-0.5-0.5v-2.5c0-0.534,0.219-1.055,0.601-1.429L65,39.076V27 c0-0.276,0.224-0.5,0.5-0.5S66,26.724,66,27v12.286c0,0.134-0.054,0.263-0.15,0.357L62.3,43.119c-0.191,0.187-0.3,0.448-0.3,0.714 v2.5C62,46.609,61.776,46.833,61.5,46.833z"/></g><g><path fill="#472b29" d="M68.5,34.833c-0.276,0-0.5-0.224-0.5-0.5V27c0-0.276,0.224-0.5,0.5-0.5S69,26.724,69,27v7.333 C69,34.609,68.776,34.833,68.5,34.833z"/></g><g><path fill="#472b29" d="M64.5,51.75c-0.276,0-0.5-0.224-0.5-0.5v-6.786c0-0.134,0.054-0.263,0.15-0.357l3.549-3.476 c0.191-0.187,0.3-0.448,0.3-0.714v-3.083c0-0.276,0.224-0.5,0.5-0.5s0.5,0.224,0.5,0.5v3.083c0,0.534-0.219,1.055-0.601,1.429 L65,44.674v6.576C65,51.526,64.776,51.75,64.5,51.75z"/></g><g><path fill="#472b29" d="M68.5,74.5c-0.276,0-0.5-0.224-0.5-0.5V61.167c0-0.267-0.104-0.518-0.293-0.707l-3.561-3.561 C64.053,56.805,64,56.678,64,56.545v-2.379c0-0.276,0.224-0.5,0.5-0.5s0.5,0.224,0.5,0.5v2.172l3.414,3.414 C68.792,60.13,69,60.633,69,61.167V74C69,74.276,68.776,74.5,68.5,74.5z"/></g><g><path fill="#ee3e54" d="M74,57.5c-0.422,0-0.827-0.179-1.111-0.491l-5-5.5c-0.523-0.575-0.523-1.443,0-2.018l5-5.5 C73.173,43.679,73.578,43.5,74,43.5c0.374,0,0.732,0.139,1.008,0.39c0.612,0.556,0.658,1.507,0.101,2.119L72.392,49H81.5 c0.827,0,1.5,0.673,1.5,1.5S82.327,52,81.5,52h-9.108l2.718,2.991c0.557,0.612,0.511,1.563-0.101,2.119 C74.732,57.362,74.374,57.5,74,57.5z"/><path fill="#472b29" d="M74,44L74,44c0.249,0,0.488,0.092,0.672,0.26c0.408,0.371,0.438,1.005,0.068,1.413l-1.959,2.155 l-1.52,1.673h2.26H81.5c0.551,0,1,0.449,1,1s-0.449,1-1,1h-7.979h-2.26l1.52,1.673l1.959,2.155 c0.371,0.408,0.341,1.042-0.068,1.413C74.488,56.908,74.25,57,74,57c-0.285,0-0.548-0.116-0.741-0.328l-5-5.5 c-0.349-0.383-0.349-0.961,0-1.345l5-5.5C73.452,44.116,73.715,44,74,44 M74,43c-0.544,0-1.086,0.221-1.48,0.655l-5,5.5 c-0.693,0.763-0.693,1.928,0,2.69l5,5.5C72.915,57.779,73.457,58,74,58c0.48,0,0.962-0.172,1.345-0.52 c0.817-0.743,0.877-2.008,0.135-2.825L73.521,52.5H81.5c1.104,0,2-0.896,2-2s-0.896-2-2-2h-7.979l1.959-2.155 c0.743-0.817,0.683-2.082-0.135-2.825C74.962,43.172,74.48,43,74,43L74,43z"/></g><g><path fill="#ee3e54" d="M26.5,58c-0.374,0-0.732-0.139-1.008-0.39c-0.612-0.556-0.658-1.507-0.101-2.119l2.718-2.991H19 c-0.827,0-1.5-0.673-1.5-1.5s0.673-1.5,1.5-1.5h9.108l-2.718-2.991c-0.557-0.612-0.511-1.563,0.101-2.119 C25.768,44.138,26.126,44,26.5,44c0.422,0,0.827,0.179,1.111,0.491l5,5.5c0.523,0.575,0.523,1.443,0,2.018l-5,5.5 C27.327,57.821,26.922,58,26.5,58L26.5,58z"/><path fill="#472b29" d="M26.5,44.5c0.285,0,0.548,0.116,0.741,0.328l5,5.5c0.349,0.383,0.349,0.961,0,1.345l-5,5.5 c-0.192,0.211-0.454,0.327-0.74,0.327c-0.249,0-0.488-0.092-0.672-0.26c-0.408-0.371-0.438-1.005-0.068-1.413l1.959-2.155 L29.239,52h-2.26H19c-0.551,0-1-0.449-1-1s0.449-1,1-1h7.979h2.26l-1.52-1.673l-1.959-2.155c-0.371-0.408-0.341-1.042,0.068-1.413 C26.012,44.592,26.25,44.5,26.5,44.5 M26.5,43.5c-0.48,0-0.962,0.172-1.345,0.52c-0.817,0.743-0.877,2.008-0.135,2.825L26.979,49 H19c-1.104,0-2,0.896-2,2s0.896,2,2,2h7.979l-1.959,2.155c-0.743,0.817-0.683,2.082,0.135,2.825 c0.383,0.348,0.865,0.52,1.345,0.52c0.544,0,1.086-0.221,1.48-0.655l5-5.5c0.693-0.763,0.693-1.928,0-2.69l-5-5.5 C27.585,43.721,27.043,43.5,26.5,43.5L26.5,43.5z"/></g></svg>