<?xml version="1.0"?><svg xmlns="http://www.w3.org/2000/svg" viewBox="0 0 128 128">    <path d="M 57 2 C 40.5 2 27 15.5 27 32 C 27 33 27.099219 34.099609 27.199219 35.099609 C 27.299219 36.299609 28.099219 37.299609 29.199219 37.599609 C 26.299219 48.999609 19.8 79.999219 31 90.199219 C 31.6 90.699219 32.3 91 33 91 L 33.5 91 C 34.4 90.8 35.199609 90.300391 35.599609 89.400391 L 45.300781 70.900391 C 45.600781 70.500391 45.8 69.999609 46 69.599609 C 46.4 68.699609 46.900391 67.7 47.400391 66.5 C 48.300391 64.7 47.099609 62.499219 45.099609 62.199219 L 43 62 C 38.6 61.5 35.199609 57.799219 35.099609 53.199219 C 34.999609 48.399219 39.000781 44.199609 43.800781 44.099609 C 48.900781 43.899609 53.099609 47.999609 53.099609 53.099609 C 53.099609 53.899609 53.000781 54.700391 52.800781 55.400391 C 52.500781 56.500391 53.199219 57.600391 54.199219 57.900391 C 54.399219 58.000391 54.7 58 55 58 L 60 58 C 61.5 58 62.8 56.900781 63 55.300781 L 65.099609 36.699219 C 80.499609 36.799219 97.699219 37.700781 109.19922 40.800781 C 109.49922 40.900781 109.7 40.900391 110 40.900391 C 111.3 40.900391 112.50039 39.999219 112.90039 38.699219 C 113.30039 37.099219 112.40078 35.5 110.80078 35 C 87.900781 28.8 45 30.8 33 31.5 C 33.2 18.5 43.9 8 57 8 C 66.9 8 75.700781 13.899609 79.300781 23.099609 C 79.900781 24.599609 81.699219 25.400781 83.199219 24.800781 C 84.699219 24.200781 85.500391 22.400391 84.900391 20.900391 C 80.300391 9.4003906 69.4 2 57 2 z M 86.898438 40.013672 C 86.700781 40.021484 86.500781 40.049609 86.300781 40.099609 C 84.700781 40.499609 83.699609 42.099219 84.099609 43.699219 C 84.099609 43.799219 87.300781 57.800391 80.800781 68.400391 L 71 65.199219 L 72.699219 61.199219 C 73.399219 59.699219 72.699219 57.899219 71.199219 57.199219 C 69.699219 56.499219 67.900781 57.300781 67.300781 58.800781 L 64.300781 65.800781 C 64.000781 66.600781 64.000781 67.399219 64.300781 68.199219 C 64.600781 68.999219 65.299609 69.600781 66.099609 69.800781 L 73 72.099609 C 72.8 73.699609 72.400781 76.8 70.800781 80 C 70.100781 81.5 70.699219 83.3 72.199219 84 C 72.599219 84.2 73.1 84.300781 73.5 84.300781 C 74.6 84.300781 75.699219 83.699609 76.199219 82.599609 C 77.799219 79.299609 78.500781 76.2 78.800781 74 L 81.099609 74.800781 C 81.399609 75.000781 81.7 75 82 75 C 82.9 75 83.800391 74.600781 84.400391 73.800781 C 94.100391 60.800781 90.100391 43.100781 89.900391 42.300781 C 89.550391 40.900781 88.282031 39.958984 86.898438 40.013672 z M 44.099609 50.099609 A 3 3 0 0 0 41.099609 53.099609 A 3 3 0 0 0 44.099609 56.099609 A 3 3 0 0 0 47.099609 53.099609 A 3 3 0 0 0 44.099609 50.099609 z M 67.998047 87.832031 C 67.029297 87.915039 66.099609 88.462891 65.599609 89.400391 C 64.599609 91.200391 63.000391 93.699609 61.400391 96.099609 C 60.500391 97.399609 60.899219 99.199219 62.199219 100.19922 C 62.699219 100.59922 63.300391 100.69922 63.900391 100.69922 C 64.900391 100.69922 65.800391 100.20039 66.400391 99.400391 C 67.200391 98.200391 69.300391 95.000781 70.900391 92.300781 C 71.700391 90.900781 71.199219 88.999219 69.699219 88.199219 C 69.174219 87.899219 68.579297 87.782227 67.998047 87.832031 z M 38.101562 98.021484 C 37.50625 98.012109 36.925391 98.2 36.400391 98.5 C 35.700391 98.9 35.199609 99.600391 35.099609 100.40039 L 30.099609 123.40039 C 29.699609 125.00039 30.800391 126.6 32.400391 127 C 34.000391 127.4 35.6 126.29922 36 124.69922 L 40.400391 104.69922 C 51.400391 107.29922 60.800391 115.00078 65.400391 125.30078 C 65.900391 126.40078 66.999609 127.09961 68.099609 127.09961 C 68.499609 127.09961 68.900781 127.00078 69.300781 126.80078 C 70.800781 126.10078 71.500781 124.40078 70.800781 122.80078 C 65.400781 110.70078 54.5 101.69922 41.5 98.699219 L 38.699219 98.099609 C 38.499219 98.049609 38.3 98.024609 38.101562 98.021484 z"/></svg>