<svg xmlns="http://www.w3.org/2000/svg" viewBox="0 0 100 100"><path fill="#c7ede6" d="M88.544,56.005c0.3-0.616,0.566-1.264,0.796-1.943c2.633-7.77-1.349-17.078-9.733-19.325C78.7,23.354,70.7,15.545,61.666,14.212C51.325,12.687,41.851,19.257,38.7,29.698c-3.799-1.346-7.501-1.182-10.99,0.857c-1.583,0.732-3.031,1.812-4.33,3.233c-1.907,2.086-3.147,4.719-3.652,7.495c-0.748,0.118-1.483,0.236-2.176,0.484c-4.04,1.449-6.589,4.431-7.288,8.923c-0.435,2.797,0.443,5.587,0.933,6.714c1.935,4.455,6.422,6.98,10.981,6.312c0.227-0.033,0.557,0.069,0.752,0.233c0.241,7.12,3.698,13.417,8.884,17.014c8.321,5.772,19.027,3.994,25.781-3.921c2.894,2.96,6.338,4.398,10.384,3.876c4.023-0.519,7.147-2.739,9.426-6.349c1.053,0.283,2.051,0.691,3.083,0.804c4.042,0.442,7.324-1.165,9.732-4.8c0.922-1.391,1.794-3.194,1.794-6.354C92.014,60.962,90.721,57.995,88.544,56.005z"/><path fill="#fff" d="M18.208 48.041H8.178c-.276 0-.5-.224-.5-.5s.224-.5.5-.5h10.03c.276 0 .5.224.5.5S18.485 48.041 18.208 48.041zM21.09 48.041h-1.446c-.276 0-.5-.224-.5-.5s.224-.5.5-.5h1.446c.276 0 .5.224.5.5S21.367 48.041 21.09 48.041zM25.144 48.041h-2.546c-.276 0-.5-.224-.5-.5s.224-.5.5-.5h2.546c.276 0 .5.224.5.5S25.42 48.041 25.144 48.041zM25.144 49.906h-9.616c-.276 0-.5-.224-.5-.5s.224-.5.5-.5h9.616c.276 0 .5.224.5.5S25.42 49.906 25.144 49.906zM13.796 49.906h-.58c-.276 0-.5-.224-.5-.5s.224-.5.5-.5h.58c.276 0 .5.224.5.5S14.073 49.906 13.796 49.906zM11.419 49.906H9.963c-.276 0-.5-.224-.5-.5s.224-.5.5-.5h1.456c.276 0 .5.224.5.5S11.696 49.906 11.419 49.906zM20.555 46.176h-5.027c-.276 0-.5-.224-.5-.5s.224-.5.5-.5h5.027c.276 0 .5.224.5.5S20.831 46.176 20.555 46.176zM20.555 44.312h-1.257c-.276 0-.5-.224-.5-.5s.224-.5.5-.5h1.257c.276 0 .5.224.5.5S20.831 44.312 20.555 44.312zM17.287 51.771h-1.759c-.276 0-.5-.224-.5-.5s.224-.5.5-.5h1.759c.276 0 .5.224.5.5S17.563 51.771 17.287 51.771z"/><g><path fill="#fdfcef" d="M80.961,67.302c1.883,0,3.517,0,3.54,0c2.11,0,3.821-1.674,3.821-3.739c0-1.802-1.302-3.305-3.035-3.66c0.02-0.158,0.034-0.317,0.034-0.48c0-2.139-1.772-3.873-3.957-3.873c-1.29,0-2.433,0.607-3.155,1.543c-0.185-2.381-2.358-4.218-4.9-3.913c-1.859,0.223-3.397,1.629-3.739,3.431c-0.11,0.578-0.098,1.139,0.011,1.665c-0.498-0.525-1.208-0.856-1.998-0.856c-1.446,0-2.627,1.102-2.72,2.494c-0.657-0.142-1.371-0.133-2.123,0.143c-1.438,0.528-2.462,1.853-2.522,3.356c-0.085,2.133,1.657,3.889,3.818,3.889c0.164,0,0.741,0,0.874,0h7.934 M74.484,67.302h0.36"/><path fill="#472b29" d="M84.501,67.802h-3.54c-0.276,0-0.5-0.224-0.5-0.5s0.224-0.5,0.5-0.5h3.54c1.831,0,3.32-1.453,3.32-3.239c0-1.524-1.108-2.857-2.636-3.17c-0.255-0.052-0.428-0.292-0.396-0.551c0.017-0.138,0.029-0.277,0.029-0.419c0-1.86-1.551-3.373-3.457-3.373c-1.092,0-2.098,0.491-2.76,1.348c-0.125,0.164-0.338,0.231-0.539,0.173c-0.197-0.059-0.339-0.234-0.354-0.44c-0.079-1.019-0.565-1.944-1.37-2.604c-0.828-0.679-1.887-0.984-2.972-0.852c-1.646,0.197-3.007,1.442-3.308,3.028c-0.094,0.495-0.091,0.99,0.009,1.471c0.046,0.219-0.06,0.441-0.258,0.544c-0.197,0.104-0.439,0.064-0.595-0.099c-0.428-0.452-1.009-0.7-1.635-0.7c-1.169,0-2.145,0.891-2.221,2.028c-0.01,0.145-0.082,0.278-0.198,0.366c-0.116,0.088-0.264,0.119-0.406,0.089c-0.64-0.139-1.243-0.098-1.845,0.124c-1.262,0.463-2.145,1.631-2.195,2.906c-0.035,0.875,0.282,1.708,0.895,2.344c0.635,0.661,1.496,1.025,2.424,1.025h8.807c0.276,0,0.5,0.224,0.5,0.5s-0.224,0.5-0.5,0.5h-8.807c-1.186,0-2.331-0.485-3.145-1.332c-0.803-0.834-1.219-1.928-1.174-3.077c0.068-1.675,1.213-3.204,2.851-3.805c0.609-0.225,1.238-0.307,1.88-0.245c0.345-1.396,1.629-2.424,3.135-2.424c0.493,0,0.977,0.113,1.414,0.323c0.009-0.241,0.036-0.483,0.082-0.726c0.381-2.009,2.097-3.586,4.171-3.834c1.364-0.161,2.685,0.218,3.726,1.072c0.747,0.613,1.278,1.41,1.546,2.302c0.792-0.648,1.786-1.007,2.843-1.007c2.458,0,4.457,1.962,4.457,4.373c0,0.034-0.001,0.068-0.002,0.102c1.765,0.555,3.004,2.188,3.004,4.038C88.822,65.9,86.883,67.802,84.501,67.802z M74.843,67.802h-0.359c-0.276,0-0.5-0.224-0.5-0.5s0.224-0.5,0.5-0.5h0.359c0.276,0,0.5,0.224,0.5,0.5S75.12,67.802,74.843,67.802z"/><path fill="#472b29" d="M82.793,61.999c-0.018,0-0.036-0.002-0.055-0.006c-0.135-0.03-0.22-0.164-0.189-0.299c0.037-0.166,0.095-0.328,0.171-0.48c0.604-1.224,2.273-1.674,3.721-1.006c0.126,0.058,0.181,0.207,0.122,0.332c-0.058,0.125-0.208,0.18-0.331,0.122c-1.206-0.557-2.579-0.208-3.063,0.774c-0.059,0.117-0.103,0.24-0.131,0.367C83.011,61.919,82.908,61.999,82.793,61.999z"/><g><path fill="#472b29" d="M77.635,67.802h-1.107c-0.276,0-0.5-0.224-0.5-0.5s0.224-0.5,0.5-0.5h1.107c0.276,0,0.5,0.224,0.5,0.5S77.911,67.802,77.635,67.802z"/></g></g><g><path fill="#fff" d="M71.386 21.764h-10.03c-.276 0-.5-.224-.5-.5s.224-.5.5-.5h10.03c.276 0 .5.224.5.5S71.662 21.764 71.386 21.764zM74.268 21.764h-1.446c-.276 0-.5-.224-.5-.5s.224-.5.5-.5h1.446c.276 0 .5.224.5.5S74.544 21.764 74.268 21.764zM78.323 21.764h-2.546c-.276 0-.5-.224-.5-.5s.224-.5.5-.5h2.546c.276 0 .5.224.5.5S78.599 21.764 78.323 21.764zM76.296 18.035H66.68c-.276 0-.5-.224-.5-.5s.224-.5.5-.5h9.616c.276 0 .5.224.5.5S76.573 18.035 76.296 18.035zM64.949 18.035h-.58c-.276 0-.5-.224-.5-.5s.224-.5.5-.5h.58c.276 0 .5.224.5.5S65.225 18.035 64.949 18.035zM62.572 18.035h-1.456c-.276 0-.5-.224-.5-.5s.224-.5.5-.5h1.456c.276 0 .5.224.5.5S62.848 18.035 62.572 18.035zM73.734 19.899h-5.027c-.276 0-.5-.224-.5-.5s.224-.5.5-.5h5.027c.276 0 .5.224.5.5S74.01 19.899 73.734 19.899z"/><path fill="#fff" d="M73.734 18.035h-1.258c-.276 0-.5-.224-.5-.5s.224-.5.5-.5h1.258c.276 0 .5.224.5.5S74.01 18.035 73.734 18.035zM67.25 19.899h-1.759c-.276 0-.5-.224-.5-.5s.224-.5.5-.5h1.759c.276 0 .5.224.5.5S67.527 19.899 67.25 19.899z"/></g><g><path fill="#fdfcee" d="M71.875,67.59H34.518c-2.295,0-4.172-1.877-4.172-4.172V35.806c0-2.295,1.877-4.172,4.172-4.172h37.357c2.295,0,4.172,1.877,4.172,4.172v27.612C76.047,65.713,74.169,67.59,71.875,67.59z"/><path fill="#472b29" d="M71.874,68.291H34.518c-2.687,0-4.873-2.186-4.873-4.872V35.807c0-2.687,2.187-4.873,4.873-4.873h37.356c2.687,0,4.873,2.186,4.873,4.873v27.612C76.747,66.105,74.561,68.291,71.874,68.291z M34.518,32.334c-1.915,0-3.473,1.558-3.473,3.472v27.612c0,1.915,1.558,3.472,3.473,3.472h37.356c1.915,0,3.473-1.557,3.473-3.472V35.807c0-1.915-1.558-3.472-3.473-3.472H34.518z"/><path fill="#cdcbbd" d="M71.222,32.061H35.431c-2.534,0-4.607,1.962-4.607,4.36v2.18h44.75v-2.18C75.574,34.023,73.756,32.061,71.222,32.061z"/><path fill="#472b29" d="M66.497 39.066h-4.093c-.207 0-.375-.168-.375-.375s.168-.375.375-.375h4.093c.207 0 .375.168.375.375S66.704 39.066 66.497 39.066zM60.359 39.066H30.345c-.207 0-.375-.168-.375-.375s.168-.375.375-.375h30.014c.207 0 .375.168.375.375S60.566 39.066 60.359 39.066zM76.047 39.066h-6.14c-.207 0-.375-.168-.375-.375s.168-.375.375-.375h6.14c.207 0 .375.168.375.375S76.254 39.066 76.047 39.066z"/><g><path fill="#ee3e54" d="M36.058 33.987A1.344 1.344 0 1 0 36.058 36.675000000000004A1.344 1.344 0 1 0 36.058 33.987Z"/><path fill="#472b29" d="M36.058,37.05c-0.947,0-1.719-0.771-1.719-1.719s0.771-1.719,1.719-1.719c0.948,0,1.72,0.771,1.72,1.719S37.006,37.05,36.058,37.05z M36.058,34.362c-0.534,0-0.969,0.435-0.969,0.969c0,0.535,0.435,0.969,0.969,0.969c0.535,0,0.97-0.435,0.97-0.969C37.028,34.796,36.593,34.362,36.058,34.362z"/></g><g><path fill="#f1bc19" d="M40.763 33.987A1.344 1.344 0 1 0 40.763 36.675000000000004A1.344 1.344 0 1 0 40.763 33.987Z"/><path fill="#472b29" d="M40.763,37.05c-0.948,0-1.72-0.771-1.72-1.719s0.771-1.719,1.72-1.719c0.947,0,1.719,0.771,1.719,1.719S41.71,37.05,40.763,37.05z M40.763,34.362c-0.535,0-0.97,0.435-0.97,0.969c0,0.535,0.435,0.969,0.97,0.969c0.534,0,0.969-0.435,0.969-0.969C41.732,34.796,41.297,34.362,40.763,34.362z"/></g><g><path fill="#88ae45" d="M45.467 33.987A1.344 1.344 0 1 0 45.467 36.675000000000004A1.344 1.344 0 1 0 45.467 33.987Z"/><path fill="#472b29" d="M45.467,37.05c-0.947,0-1.719-0.771-1.719-1.719s0.771-1.719,1.719-1.719c0.948,0,1.72,0.771,1.72,1.719S46.415,37.05,45.467,37.05z M45.467,34.362c-0.534,0-0.969,0.435-0.969,0.969c0,0.535,0.435,0.969,0.969,0.969c0.535,0,0.97-0.435,0.97-0.969C46.437,34.796,46.002,34.362,45.467,34.362z"/></g><g><path fill="#ee3e54" d="M71.825 52.763A8.521 8.521 0 1 0 71.825 69.805A8.521 8.521 0 1 0 71.825 52.763Z"/><path fill="#472b29" d="M71.825,70.505c-5.085,0-9.222-4.137-9.222-9.221s4.137-9.221,9.222-9.221c5.084,0,9.221,4.137,9.221,9.221S76.909,70.505,71.825,70.505z M71.825,53.463c-4.312,0-7.821,3.508-7.821,7.821s3.509,7.821,7.821,7.821s7.82-3.508,7.82-7.821S76.137,53.463,71.825,53.463z"/></g><path fill="#472b29" d="M56.946 63.261h-3.259c-.207 0-.375-.168-.375-.375s.168-.375.375-.375h3.259c.207 0 .375.168.375.375S57.153 63.261 56.946 63.261zM51.839 63.261H30.345c-.207 0-.375-.168-.375-.375s.168-.375.375-.375h21.494c.207 0 .375.168.375.375S52.046 63.261 51.839 63.261z"/><g><path fill="#f4989e" d="M71.825,59.342c-1.786-2.551-4.283-1.39-4.283,1.053c0,2.239,2.986,4.147,4.283,4.87c1.297-0.723,4.283-2.63,4.283-4.87C76.108,57.952,73.61,56.791,71.825,59.342z"/><path fill="#472b29" d="M71.825,65.64c-0.062,0-0.126-0.016-0.183-0.047c-1.346-0.75-4.476-2.759-4.476-5.197c0-1.342,0.688-2.427,1.751-2.762c0.99-0.312,2.051,0.096,2.907,1.097c0.855-1.001,1.915-1.41,2.907-1.097c1.063,0.335,1.751,1.42,1.751,2.762c0,2.438-3.13,4.447-4.476,5.197C71.951,65.624,71.887,65.64,71.825,65.64z M69.575,58.282c-0.146,0-0.29,0.022-0.432,0.066c-0.745,0.235-1.227,1.039-1.227,2.047c0,1.945,2.6,3.686,3.908,4.438c1.309-0.752,3.908-2.493,3.908-4.438c0-1.008-0.481-1.812-1.227-2.047c-0.791-0.249-1.672,0.206-2.374,1.209c-0.141,0.2-0.475,0.2-0.615,0C70.941,58.734,70.241,58.282,69.575,58.282z"/></g></g><g><path fill="#fdfcef" d="M37.857,70.839c0,0,11.691,0,11.762,0c2.7,0,4.888-2.189,4.888-4.889c0-2.355-1.666-4.321-3.884-4.784c0.026-0.206,0.043-0.415,0.043-0.628c0-2.796-2.267-5.063-5.063-5.063c-1.651,0-3.113,0.794-4.037,2.017c-0.236-3.113-3.017-5.514-6.27-5.116c-2.379,0.291-4.346,2.13-4.784,4.486c-0.14,0.756-0.126,1.489,0.014,2.177c-0.638-0.687-1.546-1.119-2.557-1.119c-1.85,0-3.361,1.441-3.48,3.261c-0.84-0.186-1.754-0.174-2.717,0.188c-1.84,0.691-3.15,2.423-3.227,4.387c-0.109,2.789,2.12,5.085,4.885,5.085c0.21,0,0.948,0,1.118,0h10.151"/><path fill="#472b29" d="M49.62,71.339H37.857c-0.276,0-0.5-0.224-0.5-0.5s0.224-0.5,0.5-0.5H49.62c2.419,0,4.388-1.969,4.388-4.389c0-2.066-1.466-3.873-3.486-4.295c-0.254-0.053-0.426-0.292-0.394-0.55c0.022-0.187,0.039-0.375,0.039-0.567c0-2.516-2.047-4.563-4.562-4.563c-1.439,0-2.766,0.663-3.639,1.818c-0.125,0.166-0.342,0.237-0.539,0.179c-0.2-0.059-0.342-0.235-0.358-0.442c-0.104-1.377-0.778-2.671-1.85-3.549c-1.082-0.887-2.451-1.283-3.86-1.109c-2.166,0.265-3.956,1.943-4.354,4.081c-0.124,0.667-0.119,1.336,0.014,1.986c0.045,0.22-0.062,0.442-0.262,0.545c-0.197,0.103-0.442,0.061-0.595-0.104c-0.574-0.619-1.353-0.959-2.19-0.959c-1.569,0-2.879,1.227-2.981,2.793c-0.01,0.146-0.082,0.28-0.199,0.367c-0.116,0.087-0.268,0.118-0.407,0.088c-0.844-0.188-1.639-0.131-2.434,0.168c-1.669,0.626-2.836,2.209-2.902,3.938c-0.048,1.207,0.386,2.35,1.221,3.218c0.835,0.869,1.959,1.347,3.164,1.347h11.269c0.276,0,0.5,0.224,0.5,0.5s-0.224,0.5-0.5,0.5H23.432c-1.479,0-2.859-0.587-3.885-1.654s-1.558-2.469-1.5-3.95c0.083-2.126,1.51-4.069,3.551-4.835c0.801-0.3,1.628-0.401,2.468-0.299c0.377-1.823,1.997-3.182,3.905-3.182c0.684,0,1.354,0.179,1.943,0.509c-0.001-0.385,0.035-0.772,0.107-1.159c0.476-2.562,2.62-4.573,5.215-4.891c1.685-0.206,3.32,0.267,4.615,1.328c1.004,0.823,1.716,1.951,2.038,3.193c1.012-0.916,2.319-1.425,3.714-1.425c3.067,0,5.562,2.496,5.562,5.563c0,0.083-0.002,0.167-0.007,0.249c2.254,0.672,3.848,2.777,3.848,5.164C55.007,68.922,52.59,71.339,49.62,71.339z"/><path fill="#fdfcef" d="M35.024,60.07c-1.808-0.119-3.365,1.13-3.476,2.789c-0.014,0.206-0.005,0.409,0.025,0.606c-0.349-0.394-0.865-0.661-1.458-0.7c-1.085-0.071-2.022,0.645-2.158,1.62c-0.197-0.054-0.403-0.09-0.616-0.104c-1.582-0.104-2.944,0.989-3.042,2.441"/><path fill="#472b29" d="M24.299,66.972c-0.006,0-0.011,0-0.017,0c-0.138-0.009-0.242-0.128-0.232-0.266c0.106-1.587,1.578-2.789,3.308-2.673c0.135,0.009,0.271,0.026,0.408,0.053c0.274-0.968,1.247-1.636,2.366-1.568c0.425,0.028,0.822,0.161,1.162,0.382c0.001-0.018,0.002-0.036,0.004-0.055c0.121-1.794,1.797-3.146,3.742-3.022c0.138,0.009,0.242,0.128,0.232,0.266c-0.008,0.137-0.102,0.253-0.266,0.233c-1.644-0.108-3.108,1.037-3.211,2.557c-0.012,0.183-0.004,0.368,0.024,0.551c0.017,0.11-0.04,0.217-0.141,0.264c-0.1,0.048-0.22,0.022-0.293-0.06c-0.323-0.364-0.781-0.583-1.288-0.617c-0.941-0.058-1.775,0.555-1.894,1.405c-0.011,0.071-0.051,0.134-0.11,0.174c-0.06,0.04-0.136,0.051-0.203,0.033c-0.189-0.052-0.38-0.084-0.566-0.096c-1.458-0.107-2.688,0.895-2.777,2.208C24.539,66.871,24.43,66.972,24.299,66.972z"/><g><path fill="#fdfcef" d="M51.598,61.739c-1.699-0.801-3.664-0.234-4.389,1.267c-0.09,0.186-0.157,0.379-0.201,0.574"/><path fill="#472b29" d="M47.008,63.83c-0.019,0-0.037-0.002-0.056-0.006c-0.135-0.031-0.219-0.165-0.188-0.3c0.049-0.216,0.123-0.427,0.219-0.626c0.784-1.622,2.9-2.243,4.721-1.384c0.125,0.059,0.179,0.208,0.12,0.333c-0.06,0.126-0.21,0.177-0.333,0.12c-1.575-0.742-3.394-0.227-4.057,1.149c-0.08,0.166-0.142,0.341-0.184,0.521C47.225,63.751,47.122,63.83,47.008,63.83z"/></g></g></svg>