<svg xmlns="http://www.w3.org/2000/svg" viewBox="0 0 16 16"><path d="M 8.3691406 1.0175781 L 1.0195312 3.0175781 L 1.28125 3.9824219 L 2 3.7871094 L 2 5 L 3 5 L 3 3.515625 L 8.4882812 2.0214844 L 10 2.4960938 L 10 1.4472656 L 8.6503906 1.0234375 C 8.5593906 0.9944375 8.4611406 0.99157813 8.3691406 1.0175781 z M 12 2 L 12 5 L 13.5 5 L 13.507812 5 C 13.510813 5 13.751766 5.009625 13.884766 5.140625 C 13.913766 5.168625 14 5.254 14 5.5 C 14 5.776 13.776 6 13.5 6 L 12.091797 6 C 12.298797 6.581 12.849 7 13.5 7 C 14.327 7 15 6.327 15 5.5 C 15 4.951 14.775891 4.6146875 14.587891 4.4296875 C 14.154891 4.0026875 13.565 4.004 13.5 4 L 13 4 L 13 3 L 15 3 L 15 2 L 12 2 z M 2 6 L 2 7 L 1 7 L 1 8 L 2 8 L 2 14 L 10 14 L 10 13 L 3 13 L 3 8 L 10 8 L 10 7 L 3 7 L 3 6 L 2 6 z M 12 8 L 12 13 L 13 13 L 13 11 L 13.5 11 C 14.322531 11 15 10.322531 15 9.5 C 15 8.6774686 14.322531 8 13.5 8 L 12 8 z M 13 9 L 13.5 9 C 13.781469 9 14 9.2185314 14 9.5 C 14 9.7814686 13.781469 10 13.5 10 L 13 10 L 13 9 z"/></svg>