<svg xmlns="http://www.w3.org/2000/svg" viewBox="0 0 100 100"><path d="M 31 17 C 23.27961 17 17 23.27961 17 31 L 17 69 C 17 76.72039 23.27961 83 31 83 L 69 83 C 76.72039 83 83 76.72039 83 69 L 83 31 C 83 23.27961 76.72039 17 69 17 L 31 17 z M 31 19 L 69 19 C 75.63961 19 81 24.36039 81 31 L 81 69 C 81 75.63961 75.63961 81 69 81 L 31 81 C 24.36039 81 19 75.63961 19 69 L 19 31 C 19 24.36039 24.36039 19 31 19 z M 34.099609 23 C 27.975367 23 23 27.975367 23 34.099609 L 23 65.900391 C 23 72.024633 27.975367 77 34.099609 77 L 65.900391 77 C 72.024633 77 77 72.024633 77 65.900391 L 77 51.5 A 0.50005 0.50005 0 1 0 76 51.5 L 76 65.900391 C 76 71.484148 71.484148 76 65.900391 76 L 34.099609 76 C 28.515852 76 24 71.484148 24 65.900391 L 24 34.099609 C 24 28.515852 28.515852 24 34.099609 24 L 60.5 24 A 0.50005 0.50005 0 1 0 60.5 23 L 34.099609 23 z M 49.658203 35.998047 C 49.202203 35.998047 48.935375 36.316219 48.859375 36.949219 L 48.140625 47.892578 C 48.140625 47.943578 48.080078 48.602344 48.080078 48.652344 C 48.080078 49.284344 48.491516 49.599609 49.353516 49.599609 L 54.634766 49.599609 C 56.330766 49.599609 57.648938 50.068859 58.585938 51.005859 C 59.522938 51.942859 59.990234 53.348656 59.990234 55.222656 L 59.990234 55.945312 C 59.990234 57.870312 59.522937 59.307812 58.585938 60.257812 C 57.648937 61.207812 56.317703 61.681641 54.595703 61.681641 C 53.051703 61.681641 51.772766 61.296438 50.759766 60.523438 C 49.746766 59.751438 49.240234 58.694563 49.240234 57.351562 C 49.240234 56.642562 48.810219 56.287109 47.949219 56.287109 C 47.138219 56.287109 46.734375 56.705016 46.734375 57.541016 C 46.734375 59.365016 47.441328 60.898672 48.861328 62.138672 C 50.279328 63.380672 52.204719 64 54.636719 64 C 57.017719 64 58.922562 63.348969 60.351562 62.042969 C 61.782562 60.738969 62.498047 58.704359 62.498047 55.943359 L 62.498047 55.222656 C 62.498047 52.512656 61.789094 50.535922 60.371094 49.294922 C 58.952094 48.053922 57.041766 47.433594 54.634766 47.433594 L 50.492188 47.433594 L 51.091797 38.316406 L 60.294922 38.316406 C 60.852922 38.316406 61.132812 37.923672 61.132812 37.138672 C 61.132813 36.379672 60.853875 35.998047 60.296875 35.998047 L 49.658203 35.998047 z M 41.904297 36 C 41.551297 36 41.237938 36.189359 40.960938 36.568359 C 40.960938 36.568359 37.5315 41.311 37.4375 41.5 C 37.3425 41.69 37.294922 41.893375 37.294922 42.109375 C 37.294922 42.412375 37.388172 42.671719 37.576172 42.886719 C 37.765172 43.101719 37.997391 43.208984 38.275391 43.208984 C 38.552391 43.208984 38.792141 43.056906 38.994141 42.753906 L 40.505859 40.287109 L 40.505859 62.785156 C 40.505859 63.089156 40.625234 63.330813 40.865234 63.507812 C 41.104234 63.684812 41.400906 63.773438 41.753906 63.773438 C 42.080906 63.773437 42.369094 63.684812 42.621094 63.507812 C 42.873094 63.331813 43 63.089156 43 62.785156 L 43 36.949219 C 43 36.671219 42.887156 36.442625 42.660156 36.265625 C 42.433156 36.088625 42.181297 36 41.904297 36 z M 76.492188 38.992188 A 0.50005 0.50005 0 0 0 76 39.5 L 76 41.5 A 0.50005 0.50005 0 1 0 77 41.5 L 77 39.5 A 0.50005 0.50005 0 0 0 76.492188 38.992188 z M 76.492188 43.992188 A 0.50005 0.50005 0 0 0 76 44.5 L 76 48.5 A 0.50005 0.50005 0 1 0 77 48.5 L 77 44.5 A 0.50005 0.50005 0 0 0 76.492188 43.992188 z"/></svg>