<svg xmlns="http://www.w3.org/2000/svg" viewBox="0 0 100 100"><path fill="#ee3e54" d="M12.875,27.958c-1.105,0-2,0.895-2,2s0.895,2,2,2s2-0.895,2-2S13.98,27.958,12.875,27.958z"/><path fill="#f1bc19" d="M76.875,12.958c-0.551,0-1,0.449-1,1s0.449,1,1,1s1-0.449,1-1S77.426,12.958,76.875,12.958z"/><path fill="#fce0a2" d="M49.875,13.958c-20.434,0-37,16.566-37,37s16.566,37,37,37s37-16.566,37-37 S70.309,13.958,49.875,13.958z"/><path fill="#f1bc19" d="M82.875,11.958c-2.211,0-4,1.789-4,4s1.789,4,4,4s4-1.789,4-4S85.086,11.958,82.875,11.958z"/><path fill="#ee3e54" d="M86.875,22.958c-1.105,0-2,0.895-2,2s0.895,2,2,2s2-0.895,2-2S87.98,22.958,86.875,22.958z"/><path fill="#fbcd59" d="M80.875,74.958c-1.105,0-2,0.895-2,2s0.895,2,2,2s2-0.895,2-2S81.98,74.958,80.875,74.958z M14.875,59.958c-2.211,0-4,1.789-4,4c0,2.211,1.789,4,4,4s4-1.789,4-4C18.875,61.747,17.086,59.958,14.875,59.958z"/><path fill="#ee3e54" d="M24.875,85.958c-1.105,0-2,0.895-2,2s0.895,2,2,2s2-0.895,2-2S25.98,85.958,24.875,85.958z"/><path fill="#fff" d="M18.375,52.958c-1.379,0-2.5,1.121-2.5,2.5s1.121,2.5,2.5,2.5s2.5-1.121,2.5-2.5 S19.754,52.958,18.375,52.958z"/><path fill="#f1bc19" d="M20.875,65.958c-0.551,0-1,0.449-1,1s0.449,1,1,1s1-0.449,1-1S21.426,65.958,20.875,65.958z"/><path fill="#fff" d="M81.875,37.958c-0.551,0-1,0.449-1,1s0.449,1,1,1s1-0.449,1-1S82.426,37.958,81.875,37.958z"/><circle cx="63.5" cy="33.5" r="4.8" fill="#fabf82"/><path fill="#472b29" d="M63.5,29.4c2.261,0,4.1,1.839,4.1,4.1s-1.839,4.1-4.1,4.1s-4.1-1.839-4.1-4.1 S61.239,29.4,63.5,29.4 M63.5,28c-3.038,0-5.5,2.462-5.5,5.5s2.462,5.5,5.5,5.5s5.5-2.462,5.5-5.5S66.538,28,63.5,28L63.5,28z"/><path fill="#f6cca4" d="M76,46.97c-27.139,0-34.385-15.785-34.766-16.5c-0.519-0.975-0.149-2.186,0.826-2.705 c0.973-0.518,2.181-0.151,2.702,0.819l0,0C45.103,29.213,51.376,42.97,76,42.97c1.104,0,2,0.896,2,2S77.104,46.97,76,46.97z"/><path fill="#472b29" d="M76,47.47c-25.45,0-33.76-13.902-35.168-16.688c-0.687-1.293-0.224-2.81,0.993-3.458 c1.211-0.645,2.727-0.186,3.377,1.024l0.049,0.095C46.442,30.785,53.52,42.47,76,42.47c1.379,0,2.5,1.122,2.5,2.5 S77.379,47.47,76,47.47z M42.984,28.033c-0.234,0-0.47,0.056-0.689,0.173c-0.73,0.389-1.008,1.299-0.619,2.029l0.049,0.095 C43.086,33.026,51.136,46.47,76,46.47c0.827,0,1.5-0.673,1.5-1.5s-0.673-1.5-1.5-1.5c-23.064,0-30.403-12.141-31.64-14.574 C44.061,28.336,43.527,28.033,42.984,28.033z"/><path fill="#8889b9" d="M51.187,71.979l-6.165-23.607c-0.205-1.644,1.961-3.143,3.605-3.349 c1.638-0.208,3.144,0.96,3.349,2.605l3.128,23.747c0.206,1.644-0.563,2.479-1.563,2.602C52.5,74.105,51.602,73.545,51.187,71.979z"/><path fill="#472b29" d="M53.259,74.495c-1.228,0-2.148-0.853-2.555-2.387l0-0.002l-6.165-23.607 c-0.267-2.109,2.209-3.744,4.027-3.971c0.918-0.118,1.838,0.133,2.579,0.707c0.74,0.575,1.212,1.403,1.328,2.332l3.128,23.744 c0.151,1.209-0.188,1.938-0.497,2.336c-0.363,0.465-0.882,0.751-1.501,0.827C53.485,74.488,53.371,74.495,53.259,74.495z M51.671,71.851c0.315,1.189,0.926,1.74,1.811,1.629c0.243-0.03,0.585-0.132,0.833-0.449c0.278-0.357,0.38-0.908,0.294-1.594 L51.48,47.693c-0.083-0.666-0.42-1.258-0.949-1.669c-0.528-0.41-1.182-0.591-1.84-0.505c-1.528,0.191-3.328,1.543-3.172,2.791 L51.671,71.851L51.671,71.851z"/><path fill="#8889b9" d="M52.375,53H39c-0.735,0-1.444-0.27-1.993-0.758l-6.424-6.284c-1.238-1.101-1.679-2.592-0.958-3.375 c0.958-1.042,2.917,0,4.368,1.174L40.141,48l12.234-2c1.657,0,3,2.343,3,4S54.032,53,52.375,53z"/><path fill="#472b29" d="M52.375,53.5H39c-0.858,0-1.684-0.314-2.325-0.884l-6.441-6.3c-0.858-0.762-1.408-1.761-1.453-2.656 c-0.028-0.557,0.137-1.046,0.476-1.416c0.994-1.078,2.834-0.669,5.051,1.125l5.951,4.105l12.035-1.968c0.003,0,0.006,0,0.008,0 c2.107,0,3.573,2.683,3.573,4.493C55.875,51.93,54.305,53.5,52.375,53.5z M30.68,42.655c-0.279,0-0.516,0.081-0.687,0.267 c-0.156,0.169-0.228,0.401-0.213,0.688c0.031,0.623,0.466,1.379,1.136,1.974l6.441,6.3C37.797,52.276,38.387,52.5,39,52.5h13.375 c1.379,0,2.5-1.122,2.5-2.5c0-1.496-1.236-3.5-2.5-3.5l-12.353,2.026l-6.313-4.356C32.732,43.38,31.516,42.655,30.68,42.655z"/><path fill="#88ae45" d="M75,42.961c-19.167,0-26.586-10.525-28.985-13.887l-4.341,2.506 c1.338,1.946,5.268,6.562,10.366,9.81l-5.977,4.735c-3.163,2.154,4.125,9.813,6.875,8l9.597-8.055 c3.593,1.037,7.727,1.741,12.465,1.896V42.961z"/><path fill="#472b29" d="M51.944,55.078c-2.173,0-4.839-2.261-6.211-4.309c-1.517-2.264-1.541-4.217-0.064-5.223l5.178-4.104 c-4.793-3.26-8.439-7.559-9.749-9.465c-0.111-0.161-0.149-0.361-0.106-0.551s0.164-0.354,0.333-0.452l4.341-2.506 c0.313-0.18,0.71-0.094,0.92,0.199C49.01,32.066,56.284,42.261,75,42.261c0.387,0,0.7,0.313,0.7,0.7v5.005 c0,0.19-0.077,0.371-0.214,0.503c-0.136,0.132-0.317,0.201-0.51,0.197c-4.333-0.143-8.461-0.755-12.275-1.822l-9.313,7.817 C52.95,54.95,52.461,55.078,51.944,55.078z M42.695,31.799c1.621,2.157,5.191,6.115,9.72,9c0.191,0.122,0.312,0.328,0.323,0.554 c0.012,0.226-0.087,0.444-0.265,0.584l-5.977,4.735c-1.163,0.795,0.012,2.739,0.399,3.316c1.644,2.453,4.545,4.281,5.657,3.551 l9.532-8.007c0.179-0.15,0.418-0.201,0.645-0.136c3.592,1.036,7.48,1.655,11.57,1.841v-3.582 c-18.128-0.241-25.714-9.82-28.484-13.658L42.695,31.799z"/><path fill="#ee3e54" d="M58.331,33.742L67.687,31c0,0-0.642-6.113-10.687-4.249C57,26.751,58.504,28.313,58.331,33.742z"/><path fill="#472b29" d="M58.331,34.242c-0.109,0-0.218-0.036-0.306-0.105c-0.127-0.098-0.199-0.251-0.194-0.411 c0.162-5.071-1.183-6.619-1.196-6.635c-0.122-0.134-0.164-0.327-0.105-0.498c0.058-0.172,0.201-0.301,0.38-0.334 c3.994-0.741,7.048-0.349,9.076,1.166c1.963,1.466,2.19,3.44,2.199,3.523c0.025,0.24-0.125,0.464-0.356,0.532l-9.356,2.742 C58.426,34.236,58.378,34.242,58.331,34.242z M57.819,27.119c0.444,0.886,1.046,2.692,1.024,5.952l8.259-2.42 c-0.159-0.559-0.594-1.595-1.735-2.439C63.689,26.971,61.153,26.604,57.819,27.119z"/><g><path fill="#77cbd2" d="M56.574,76.5H48.5v-2h12l-0.638,0.638C58.99,76.01,57.807,76.5,56.574,76.5z"/><path fill="#472b29" d="M56.573,76.75H48.5c-0.138,0-0.25-0.112-0.25-0.25v-2c0-0.138,0.112-0.25,0.25-0.25h12 c0.102,0,0.192,0.061,0.231,0.154c0.038,0.094,0.017,0.201-0.055,0.272l-0.638,0.638C59.127,76.227,57.864,76.75,56.573,76.75z M48.75,76.25h7.823c1.159,0,2.293-0.47,3.112-1.289l0.211-0.211H48.75V76.25z"/></g><g><path fill="#77cbd2" d="M25.862,43.259l5.709-5.709l1.414,1.414L24.5,47.45v-0.902C24.5,45.314,24.99,44.131,25.862,43.259z"/><path fill="#472b29" d="M24.5,47.7c-0.032,0-0.065-0.006-0.096-0.019c-0.093-0.039-0.154-0.13-0.154-0.231v-0.902 c0-1.309,0.51-2.54,1.436-3.466l0,0l5.709-5.709c0.098-0.098,0.256-0.098,0.354,0l1.414,1.414c0.098,0.098,0.098,0.256,0,0.354 l-8.485,8.485C24.629,47.674,24.565,47.7,24.5,47.7z M26.039,43.436c-0.831,0.832-1.289,1.937-1.289,3.112v0.298l7.882-7.882 l-1.061-1.061L26.039,43.436z"/></g><g><circle cx="55.5" cy="26.5" r="2" fill="#f4989e"/><path fill="#472b29" d="M55.5,29c-1.379,0-2.5-1.122-2.5-2.5s1.121-2.5,2.5-2.5s2.5,1.122,2.5,2.5S56.879,29,55.5,29z M55.5,25c-0.827,0-1.5,0.673-1.5,1.5s0.673,1.5,1.5,1.5s1.5-0.673,1.5-1.5S56.327,25,55.5,25z"/></g><g><path fill="#472b29" d="M68.5,77h-24c-0.276,0-0.5-0.224-0.5-0.5s0.224-0.5,0.5-0.5h24c0.276,0,0.5,0.224,0.5,0.5 S68.776,77,68.5,77z"/></g><g><path fill="#472b29" d="M41.5,77h-9c-0.276,0-0.5-0.224-0.5-0.5s0.224-0.5,0.5-0.5h9c0.276,0,0.5,0.224,0.5,0.5 S41.776,77,41.5,77z"/></g><g><path fill="#472b29" d="M43.5,65h-6c-0.276,0-0.5-0.224-0.5-0.5s0.224-0.5,0.5-0.5h6c0.276,0,0.5,0.224,0.5,0.5 S43.776,65,43.5,65z"/></g><g><path fill="#472b29" d="M36.5,60h-8c-0.276,0-0.5-0.224-0.5-0.5s0.224-0.5,0.5-0.5h8c0.276,0,0.5,0.224,0.5,0.5 S36.776,60,36.5,60z"/></g><g><path fill="#472b29" d="M43.5,60h-4c-0.276,0-0.5-0.224-0.5-0.5s0.224-0.5,0.5-0.5h4c0.276,0,0.5,0.224,0.5,0.5 S43.776,60,43.5,60z"/></g><g><path fill="#472b29" d="M34.5,65h-4c-0.276,0-0.5-0.224-0.5-0.5s0.224-0.5,0.5-0.5h4c0.276,0,0.5,0.224,0.5,0.5 S34.776,65,34.5,65z"/></g><g><path fill="#472b29" d="M45.5,70h-4c-0.276,0-0.5-0.224-0.5-0.5s0.224-0.5,0.5-0.5h4c0.276,0,0.5,0.224,0.5,0.5 S45.776,70,45.5,70z"/></g><g><path fill="#472b29" d="M38.5,70h-5c-0.276,0-0.5-0.224-0.5-0.5s0.224-0.5,0.5-0.5h5c0.276,0,0.5,0.224,0.5,0.5 S38.776,70,38.5,70z"/></g><g><path fill="#472b29" d="M58.621,46.446c-0.071,0-0.142-0.03-0.191-0.089c-0.089-0.105-0.075-0.263,0.03-0.352l1.712-1.446 c0.105-0.09,0.264-0.076,0.353,0.03c0.089,0.105,0.075,0.263-0.03,0.352l-1.712,1.446C58.735,46.427,58.678,46.446,58.621,46.446z"/></g><g><path fill="#472b29" d="M58.435,31.724c-0.108,0-0.208-0.071-0.24-0.18c-0.038-0.133,0.037-0.271,0.17-0.31l4.635-1.357 c0.132-0.039,0.271,0.037,0.311,0.17c0.038,0.133-0.037,0.271-0.17,0.31l-4.635,1.357C58.481,31.721,58.458,31.724,58.435,31.724z"/></g><g><path fill="#472b29" d="M64.372,29.943c-0.106,0-0.206-0.069-0.239-0.176c-0.04-0.132,0.033-0.272,0.165-0.313l2.44-0.755 c0.137-0.04,0.272,0.033,0.313,0.165c0.04,0.132-0.033,0.272-0.165,0.313l-2.44,0.755C64.421,29.939,64.396,29.943,64.372,29.943z"/></g><g><path fill="#472b29" d="M51.75,52.25c-0.071,0-0.142-0.03-0.191-0.089c-0.089-0.105-0.075-0.263,0.03-0.352l5.335-4.506 c0.104-0.09,0.263-0.076,0.353,0.03c0.089,0.105,0.075,0.263-0.03,0.352l-5.335,4.506C51.864,52.231,51.807,52.25,51.75,52.25z"/></g></svg>