<?xml version="1.0"?><svg xmlns="http://www.w3.org/2000/svg" viewBox="0 0 128 128">    <path d="M 98.900391 14.300781 C 98.000391 14.300781 97.099219 14.399219 96.199219 14.699219 L 41.599609 32.099609 C 40.899609 31.099609 39.600781 30.7 38.300781 31 L 17.300781 37.699219 C 16.500781 37.899219 15.9 38.499219 15.5 39.199219 C 15.3 39.599219 15.199219 40 15.199219 40.5 L 10.300781 42.099609 C 8.7007813 42.599609 7.8003906 44.300391 8.4003906 45.900391 L 12.099609 57.300781 C 12.299609 58.100781 12.899609 58.699609 13.599609 59.099609 C 13.999609 59.299609 14.5 59.400391 15 59.400391 C 15.3 59.400391 15.600391 59.400781 15.900391 59.300781 L 20.099609 58 L 18 95 L 18 95.099609 C 13.9 95.799609 11 101 11 108 C 11 115.5 14.4 121 19 121 L 109 121 C 113.6 121 117 115.5 117 108 C 117 100.5 113.6 95 109 95 L 104.59961 95 L 111.5 84.699219 C 112.4 83.299219 111.99922 81.5 110.69922 80.5 C 109.29922 79.6 107.5 80.000781 106.5 81.300781 L 98.599609 93.199219 C 97.599609 94.699219 97.500391 96.700781 98.400391 98.300781 C 99.300391 99.900781 101.00078 100.90039 102.80078 100.90039 L 105.5 100.90039 C 104.6 102.70039 104.09961 105.20039 104.09961 107.90039 C 104.09961 108.90039 104.20078 110.00039 104.30078 110.90039 L 19 110.90039 C 18.4 110.90039 17.699219 110.69922 17.199219 110.19922 C 17.099219 109.49922 17 108.70039 17 107.90039 C 17 103.70039 18.499609 101.30039 19.099609 100.90039 L 77.800781 100.90039 C 82.600781 100.90039 87.1 98.999609 90.5 95.599609 L 106.09961 80 C 107.29961 78.8 107.29961 76.900781 106.09961 75.800781 C 104.89961 74.600781 103.00039 74.600781 101.90039 75.800781 L 86.300781 91.5 C 84.000781 93.8 81.000781 95 77.800781 95 L 57.300781 95 C 63.100781 91.7 68.199609 87.100391 72.099609 81.400391 C 72.799609 80.400391 72.799609 79 72.099609 78 L 58.900391 59.400391 C 58.200391 58.400391 56.899609 57.899219 55.599609 58.199219 C 55.099609 58.299219 54.599609 58.400391 54.099609 58.400391 C 51.699609 58.400391 49.7 56.899609 49 54.599609 L 47.300781 49.199219 L 101.59961 31.900391 C 103.89961 31.200391 105.80039 29.6 106.90039 27.5 C 108.00039 25.4 108.2 22.899609 107.5 20.599609 C 106.3 16.899609 102.90039 14.300781 98.900391 14.300781 z M 98.800781 20.400391 C 100.10078 20.400391 101.29922 21.2 101.69922 22.5 C 101.89922 23.3 101.9 24.100781 101.5 24.800781 C 101.1 25.500781 100.49922 26.000781 99.699219 26.300781 L 45.5 43.5 L 43.699219 37.800781 L 97.900391 20.5 C 98.200391 20.4 98.500781 20.400391 98.800781 20.400391 z M 37.300781 37.699219 L 43.300781 56.5 C 44.800781 61.2 49.199219 64.400391 54.199219 64.400391 L 55.099609 64.400391 L 63.900391 76.699219 C 56.700391 86.199219 47.400391 91.800781 35.400391 91.800781 C 31.600391 91.800781 27.799609 91.199609 24.099609 90.099609 L 26.099609 56.099609 C 26.099609 55.699609 26.1 55.4 26 55 L 22 42.599609 L 37.300781 37.699219 z M 17 46.300781 L 18.800781 52 L 16.900391 52.599609 L 15.099609 46.900391 L 17 46.300781 z M 5.5996094 114.47461 C 4.8246094 114.47461 4.05 114.75078 3.5 115.30078 C 2.9 115.90078 2.5996094 116.60039 2.5996094 117.40039 C 2.5996094 118.20039 2.9 119 3.5 119.5 C 4.1 120.1 4.7996094 120.40039 5.5996094 120.40039 C 6.3996094 120.40039 7.1992188 120.1 7.6992188 119.5 C 8.2992187 119 8.5996094 118.20039 8.5996094 117.40039 C 8.5996094 116.60039 8.2992187 115.80078 7.6992188 115.30078 C 7.1492188 114.75078 6.3746094 114.47461 5.5996094 114.47461 z"/></svg>