<svg xmlns="http://www.w3.org/2000/svg" viewBox="0 0 48 48"><rect width="2" height="26" x="36" y="10" fill="#b0bec5"/><line x1="19" x2="38" y1="20" y2="9.868" fill="none" stroke="#5d4037" stroke-miterlimit="10" stroke-width="2"/><path fill="#ff754c" d="M11,26l1.8-4.7c0.45-1.485,0.07-2.504-0.485-3.176C11.703,17.381,10.753,17,9.79,17H9.2	c-1.4,0-2.6,0.9-3.1,2.2L4,26H11z"/><path fill="#e64a19" d="M11.3,20h1.8c-0.1,0.4-0.2,0.8-0.3,1.3l-2,5.3L8.3,28L11.3,20z"/><path fill="#ffba57" d="M11.7,8c1.9,0,3.5,1.6,3.5,3.5S13.6,15,11.7,15s-3.5-1.6-3.5-3.5S9.8,8,11.7,8"/><path fill="#795548" d="M31,28c-6,8-10.2,7.8-14,8c-4,0.3-7,0-7,0H4v-8H31z"/><path fill="#7e8ccf" d="M44,35c-3,0-4-2-4-2s-1,2-4,2s-4-2-4-2s-1,2-4,2s-4-2-4-2s-1,2-4,2s-4-2-4-2s-1,2-4,2s-4-2-4-2	s-1,2-4,2v6h40V35z"/><path fill="#c5cae9" d="M44,37c-3,0-4-2-4-2s-1,2-4,2s-4-2-4-2s-1,2-4,2s-4-2-4-2s-1,2-4,2s-4-2-4-2s-1,2-4,2s-4-2-4-2	s-1,2-4,2v4h40V37z"/><path fill="#ff754c" d="M14.7,24c-0.4,0-0.8-0.1-1.1-0.4l-3.478-3.503c-0.6-0.6-0.6-1.5,0-2.1s1.5-0.6,2.1,0L14.9,20.7l4-2.4	c0.7-0.4,1.6-0.2,2.1,0.5c0.4,0.7,0.2,1.6-0.5,2.1c0,0-3.271,2.134-4.661,2.839C15.572,23.875,15.122,24,14.7,24z"/><rect width="29" height="2" x="4" y="26" fill="#5d4037"/></svg>