<?xml version="1.0"?><svg xmlns="http://www.w3.org/2000/svg" viewBox="0 0 128 128">    <path d="M 64 41.800781 C 62.3 41.800781 61 43.100781 61 44.800781 L 61 74.599609 C 55.1 75.299609 49.599609 78.1 45.599609 82.5 C 40.899609 87.7 38.499609 94.599609 39.099609 101.59961 L 40.5 117.30078 C 40.5 117.40078 40.499609 117.49961 40.599609 117.59961 C 38.899609 118.99961 36.599219 119.80078 34.199219 119.80078 C 31.199219 119.80078 28.399609 118.60039 26.599609 116.40039 C 25.999609 115.70039 25.200781 115.30078 24.300781 115.30078 C 23.400781 115.30078 22.6 115.70039 22 116.40039 C 20.2 118.60039 17.400391 119.80078 14.400391 119.80078 C 11.400391 119.80078 8.6007813 118.60039 6.8007812 116.40039 C 5.7007813 115.10039 3.7996094 114.99961 2.5996094 116.09961 C 1.2996094 117.19961 1.2007813 119.10078 2.3007812 120.30078 C 5.3007812 123.80078 9.7 125.80078 14.5 125.80078 C 18.2 125.80078 21.600391 124.6 24.400391 122.5 C 27.200391 124.7 30.600781 125.80078 34.300781 125.80078 C 38.000781 125.80078 41.399219 124.6 44.199219 122.5 C 46.999219 124.7 50.399609 125.80078 54.099609 125.80078 C 57.699609 125.80078 61.200391 124.6 63.900391 122.5 C 66.700391 124.7 70.200391 126 73.900391 126 L 74.099609 126 C 77.799609 126 81.399219 124.7 84.199219 122.5 C 84.199219 122.5 84.300781 122.49961 84.300781 122.59961 C 84.400781 122.69961 84.499609 122.70078 84.599609 122.80078 C 84.899609 123.00078 85.299609 123.3 85.599609 123.5 C 85.699609 123.6 85.9 123.70078 86 123.80078 C 86.3 124.00078 86.7 124.20078 87 124.30078 C 87.1 124.40078 87.300391 124.4 87.400391 124.5 C 87.900391 124.7 88.300781 124.89961 88.800781 125.09961 C 88.900781 125.09961 89 125.09922 89 125.19922 C 89.4 125.29922 89.800781 125.4 90.300781 125.5 C 90.500781 125.5 90.600781 125.59961 90.800781 125.59961 C 91.200781 125.69961 91.500391 125.70078 91.900391 125.80078 C 92.100391 125.80078 92.200391 125.80039 92.400391 125.90039 C 92.900391 126.00039 93.5 126 94 126 C 97.7 126 101.10039 124.79922 103.90039 122.69922 C 106.60039 124.79922 109.90039 126 113.40039 126 L 113.5 126 C 115.1 126 116.5 124.69961 116.5 123.09961 C 116.3 121.19961 115.00078 119.80078 113.30078 119.80078 C 110.40078 119.70078 107.8 118.50039 106 116.40039 C 105.4 115.70039 104.59922 115.30078 103.69922 115.30078 C 102.79922 115.30078 102.00039 115.70039 101.40039 116.40039 C 99.600391 118.60039 96.800781 119.80078 93.800781 119.80078 C 91.200781 119.80078 88.899609 118.90078 87.099609 117.30078 L 88.900391 101.59961 C 89.500391 94.599609 87.100391 87.6 82.400391 82.5 C 78.400391 78.1 72.9 75.299609 67 74.599609 L 67 44.800781 C 67 43.100781 65.7 41.800781 64 41.800781 z M 63.800781 80.400391 C 70.100781 84.100391 74.299219 90.8 74.699219 98.5 L 45 98.5 C 45.3 93.9 47 89.8 50 86.5 C 53.6 82.6 58.500781 80.400391 63.800781 80.400391 z M 45.400391 104.40039 L 74.5 104.40039 L 73.099609 120 C 70.399609 119.8 68.000781 118.59961 66.300781 116.59961 L 66.099609 116.40039 C 65.499609 115.70039 64.700781 115.30078 63.800781 115.30078 C 62.900781 115.30078 62.1 115.70039 61.5 116.40039 C 59.7 118.60039 56.900391 119.80078 53.900391 119.80078 C 51.000391 119.80078 48.200391 118.6 46.400391 116.5 L 45.400391 104.40039 z M 123.5 115.30078 C 121.8 115.30078 120.5 116.60078 120.5 118.30078 C 120.5 120.00078 121.8 121.30078 123.5 121.30078 C 125.2 121.30078 126.5 120.00078 126.5 118.30078 C 126.5 116.60078 125.2 115.30078 123.5 115.30078 z"/></svg>