<svg xmlns="http://www.w3.org/2000/svg" width="512" height="512" viewBox="0 0 512 512"><path fill="#008593" d="M7.9,256C7.9,119,119,7.9,256,7.9C393,7.9,504.1,119,504.1,256c0,137-111.1,248.1-248.1,248.1C119,504.1,7.9,393,7.9,256z"/><path fill="#FFC50B" d="M258.6 150.2L275.5 184.4 313.2 189.9 285.9 216.5 292.4 254.1 258.6 236.3 224.9 254.1 231.4 216.5 204.1 189.9 241.8 184.4zM396.6 150.2L413.5 184.4 451.2 189.9 423.9 216.5 430.3 254.1 396.6 236.3 362.9 254.1 369.3 216.5 342 189.9 379.7 184.4zM322.7 275.9L339.6 310.1 377.3 315.5 350 342.1 356.5 379.7 322.7 362 289 379.7 295.5 342.1 268.2 315.5 305.9 310.1zM114.1 149.3L131 183.4 168.7 188.9 141.4 215.5 147.9 253.1 114.1 235.3 80.4 253.1 86.9 215.5 59.6 188.9 97.3 183.4zM185.8 271.2L202.6 305.4 240.4 310.9 213.1 337.5 219.5 375 185.8 357.3 152 375 158.5 337.5 131.2 310.9 168.9 305.4z"/></svg>