<svg xmlns="http://www.w3.org/2000/svg" width="512" height="512" viewBox="0 0 512 512"><path fill="#357180" d="M7.9,256C7.9,119,119,7.9,256,7.9C393,7.9,504.1,119,504.1,256c0,137-111.1,248.1-248.1,248.1C119,504.1,7.9,393,7.9,256z"/><path fill="#D62127" d="M397.3,156.9H121c-7.8,0-14.2,6.4-14.2,14.2v167.5c0,7.8,6.4,14.2,14.2,14.2h276.3c7.8,0,14.2-6.4,14.2-14.2V171.1C411.5,163.3,405.2,156.9,397.3,156.9z"/><path fill="#FFF" d="M411.5,338.6v-11.8L141.2,156.9H121c-7.8,0-14.2,6.4-14.2,14.2v9l274.9,172.7h15.7C405.2,352.8,411.5,346.4,411.5,338.6z"/></svg>