<?xml version="1.0"?><svg xmlns="http://www.w3.org/2000/svg" viewBox="0 0 128 128">    <path d="M 55.800781 28.800781 C 31.900781 28.800781 12.5 48.199609 12.5 72.099609 C 12.5 95.899609 31.8 115.19922 55.5 115.19922 L 88.300781 115.19922 C 94.400781 115.19922 99.400391 110.19961 99.400391 104.09961 L 99.400391 72.099609 C 99.400391 48.199609 79.999609 28.800781 56.099609 28.800781 L 55.800781 28.800781 z M 55.800781 34.900391 L 56.099609 34.900391 C 76.699609 34.900391 93.400391 51.599219 93.400391 72.199219 C 93.400391 92.599219 76.800391 109.19922 56.400391 109.19922 L 56.300781 109.19922 C 36.000781 109.19922 18.999609 93.200391 18.599609 72.900391 C 18.099609 52.000391 35.000781 34.900391 55.800781 34.900391 z M 95.835938 39.707031 C 95.258789 39.732227 94.686719 39.925781 94.199219 40.300781 C 92.899219 41.300781 92.599609 43.2 93.599609 44.5 C 99.299609 52.2 102.30078 61.499219 102.30078 71.199219 C 102.30078 72.899219 103.60078 74.199219 105.30078 74.199219 C 107.00078 74.199219 108.30078 72.899219 108.30078 71.199219 C 108.30078 60.199219 104.90039 49.700391 98.400391 40.900391 C 97.775391 40.087891 96.797852 39.665039 95.835938 39.707031 z M 55.900391 53 C 45.300391 53 36.800781 61.5 36.800781 72 C 36.800781 82.5 45.300391 91.099609 55.900391 91.099609 C 66.500391 91.099609 75.099609 82.6 75.099609 72 C 75.099609 61.4 66.500391 53 55.900391 53 z M 55.900391 59 C 63.200391 59 69.099609 64.899609 69.099609 72.099609 C 69.099609 79.299609 63.200391 85.199219 55.900391 85.199219 C 48.600391 85.199219 42.800781 79.2 42.800781 72 C 42.800781 64.8 48.700391 59 55.900391 59 z M 105.5 106 C 103.8 106 102.5 107.3 102.5 109 C 102.5 110.7 103.8 112 105.5 112 L 114.5 112 L 114.5 117 C 114.5 118.7 115.8 120 117.5 120 C 119.2 120 120.5 118.7 120.5 117 L 120.5 109 C 120.5 107.3 119.2 106 117.5 106 L 105.5 106 z"/></svg>