<svg xmlns="http://www.w3.org/2000/svg" viewBox="0 0 40 40"><path fill="#fff" d="M31,17.5c-3.584,0-6.5-2.916-6.5-6.5V8c0-3.584,2.916-6.5,6.5-6.5s6.5,2.916,6.5,6.5v3 C37.5,14.584,34.584,17.5,31,17.5z"/><path fill="#4788c7" d="M31,2c3.308,0,6,2.692,6,6v3c0,3.308-2.692,6-6,6c-3.308,0-6-2.692-6-6V8C25,4.692,27.692,2,31,2 M31,1L31,1c-3.866,0-7,3.134-7,7v3c0,3.866,3.134,7,7,7h0c3.866,0,7-3.134,7-7V8C38,4.134,34.866,1,31,1L31,1z"/><path fill="#dff0fe" d="M12.571,38.5c-0.344,0-0.658-0.158-0.862-0.435c-0.203-0.275-0.262-0.621-0.161-0.948l2.407-7.811 h15.09l2.407,7.812c0.101,0.327,0.042,0.672-0.161,0.947c-0.204,0.276-0.518,0.435-0.862,0.435H12.571z M14.901,35.5h13.216 l-1.869-6h-9.644L14.901,35.5z"/><path fill="#4788c7" d="M28.676,29.807l2.298,7.458c0.073,0.238-0.022,0.417-0.086,0.503C30.824,37.855,30.68,38,30.429,38 H12.571c-0.251,0-0.396-0.145-0.459-0.232c-0.063-0.086-0.159-0.266-0.086-0.503l2.298-7.458h1.673l-1.397,4.92L14.239,36h1.323 h11.875h1.359l-0.404-1.297l-1.525-4.896H28.676 M29.414,28.807H13.586l-2.515,8.164C10.76,37.979,11.515,39,12.571,39h17.857 c1.057,0,1.812-1.021,1.501-2.029L29.414,28.807L29.414,28.807z M15.563,35l1.419-5h8.898l1.557,5H15.563L15.563,35z"/><path fill="#b6dcfe" d="M31,14.5c-1.93,0-3.5-1.57-3.5-3.5V8c0-1.93,1.57-3.5,3.5-3.5s3.5,1.57,3.5,3.5v3 C34.5,12.93,32.93,14.5,31,14.5z"/><path fill="#4788c7" d="M31,5c1.654,0,3,1.346,3,3v3c0,1.654-1.346,3-3,3s-3-1.346-3-3V8C28,6.346,29.346,5,31,5 M31,4L31,4 c-2.209,0-4,1.791-4,4v3c0,2.209,1.791,4,4,4h0c2.209,0,4-1.791,4-4V8C35,5.791,33.209,4,31,4L31,4z"/><g><path fill="#fff" d="M27.5,8.5V8c0-1.93,1.57-3.5,3.5-3.5s3.5,1.57,3.5,3.5v0.5H27.5z"/><path fill="#4788c7" d="M31,5c1.654,0,3,1.346,3,3h-6C28,6.346,29.346,5,31,5 M31,4L31,4c-2.209,0-4,1.791-4,4v1h8V8 C35,5.791,33.209,4,31,4L31,4z"/></g><g><path fill="#b6dcfe" d="M12.5,30.5c-1.379,0-2.573-0.94-2.904-2.285L3.579,4.59C3.525,4.371,3.5,4.181,3.5,4 c0-1.378,1.122-2.5,2.5-2.5c1.099,0,2.055,0.713,2.378,1.775L16.377,24.5H30.5c1.654,0,3,1.346,3,3s-1.346,3-3,3H12.5z"/><path fill="#4788c7" d="M6,2c0.877,0,1.641,0.571,1.9,1.421l0.009,0.031l0.011,0.03l7.866,20.87L16.031,25h0.692H30.5 c1.379,0,2.5,1.122,2.5,2.5S31.879,30,30.5,30h-18c-1.148,0-2.142-0.783-2.418-1.905l-0.254-1.028L9.82,27.07L4.066,4.475 C4.021,4.292,4,4.141,4,4C4,2.897,4.897,2,6,2 M6,1C4.343,1,3,2.343,3,4c0,0.247,0.038,0.484,0.095,0.714l5.973,23.455 c0.009,0.047,0.024,0.092,0.035,0.138l0.007,0.027l0.001,0C9.486,29.862,10.856,31,12.5,31h18c1.933,0,3.5-1.567,3.5-3.5 S32.433,24,30.5,24H16.723L8.857,3.13C8.482,1.9,7.352,1,6,1L6,1z"/></g><g><path fill="#b6dcfe" d="M13,20.5c-0.827,0-1.5-0.673-1.5-1.5s0.673-1.5,1.5-1.5h9c1.76,0,3.221,1.306,3.464,3H13z"/><path fill="#4788c7" d="M22,18c1.304,0,2.416,0.836,2.829,2H13c-0.551,0-1-0.449-1-1s0.449-1,1-1H22 M22,17h-9 c-1.105,0-2,0.895-2,2s0.895,2,2,2h13C26,18.791,24.209,17,22,17L22,17z"/></g></svg>