<svg xmlns="http://www.w3.org/2000/svg" width="512" height="512" viewBox="0 0 512 512"><path fill="#C56528" d="M370.9,49c-3.3-3.8-11.2-1.8-15.2-0.7c-6,1.6-11.7,3.9-17.6,5.7c-6.8,2.1-14.7,3.2-21.1-0.9c-5.6-3.6-9.6-8.9-14.9-12.8c-5.1-3.8-10.6-6.6-17.1-4.8c-5.9,1.6-11.3,4.4-16.8,7.1c-11.2,5.4-23.8,11.5-36.7,8.7c-8.5-1.8-15.7-6.9-23.9-9.5c-7.5-2.4-15.2-4.4-23-5.2c-5.8-0.6-13.4-1-18.2,2.9c-4.6,3.8-3.9,12.5-0.6,16.8c4.9,6.4,13.4,9.8,20,14.2c5.2,3.4,9.5,7.3,12.3,12.4c5-1.4,10.6-1.4,15.2-1.4c9.6,0,19.2,0.8,28.8,1.2c21.8,0.9,43.7,0.1,65.5,0.1c2.4,0,4.1,1.3,5,3c0.4,0,0.7,0,1.1,0.1c9.4-12.4,24.8-21.2,40.2-22c5.4-0.3,11.7,0.2,16.7-2.1C375,59.5,373.5,52,370.9,49z"/><path fill="none" stroke="#231F20" stroke-miterlimit="10" d="M370.9,49c-3.3-3.8-11.2-1.8-15.2-0.7c-6,1.6-11.7,3.9-17.6,5.7c-6.8,2.1-14.7,3.2-21.1-0.9c-5.6-3.6-9.6-8.9-14.9-12.8c-5.1-3.8-10.6-6.6-17.1-4.8c-5.9,1.6-11.3,4.4-16.8,7.1c-11.2,5.4-23.8,11.5-36.7,8.7c-8.5-1.8-15.7-6.9-23.9-9.5c-7.5-2.4-15.2-4.4-23-5.2c-5.8-0.6-13.4-1-18.2,2.9c-4.6,3.8-3.9,12.5-0.6,16.8c4.9,6.4,13.4,9.8,20,14.2c5.2,3.4,9.5,7.3,12.3,12.4c5-1.4,10.6-1.4,15.2-1.4c9.6,0,19.2,0.8,28.8,1.2c21.8,0.9,43.7,0.1,65.5,0.1c2.4,0,4.1,1.3,5,3c0.4,0,0.7,0,1.1,0.1c9.4-12.4,24.8-21.2,40.2-22c5.4-0.3,11.7,0.2,16.7-2.1C375,59.5,373.5,52,370.9,49z"/><path fill="#FEBF10" d="M287.7,93.7c-14.4,0.2-28.8,0.3-43.1-0.2c-9-0.3-17.9-1.2-26.9-1.3c-3.9,0-12.2-0.6-16.9,0.9c-0.3,0.9-0.9,1.7-1.6,2.2c0.3,5.1,3.8,8.3,9.2,10.4c8.2,3.3,17.6,3.8,26.3,3.9c16.6,0.2,32.9-2.5,49.4-3c0.3,0,0.6-0.1,0.9-0.1h0.2C284.2,102.4,285.4,97.9,287.7,93.7z"/><path fill="none" stroke="#231F20" stroke-miterlimit="10" d="M287.7,93.7c-14.4,0.2-28.8,0.3-43.1-0.2c-9-0.3-17.9-1.2-26.9-1.3c-3.9,0-12.2-0.6-16.9,0.9c-0.3,0.9-0.9,1.7-1.6,2.2c0.3,5.1,3.8,8.3,9.2,10.4c8.2,3.3,17.6,3.8,26.3,3.9c16.6,0.2,32.9-2.5,49.4-3c0.3,0,0.6-0.1,0.9-0.1h0.2C284.2,102.4,285.4,97.9,287.7,93.7z"/><path fill="#FEBF10" d="M230.6,292.7c-2.1-1.5-7.3-3.8-9.7-1.8c-1,0.8-1.1,2.2-0.8,3.7c0,0.1,0.1,0.2,0.1,0.3c3.6,9.7,13.6,16.4,23.8,18.3C243,304.8,237.5,297.8,230.6,292.7z"/><path fill="none" stroke="#231F20" stroke-miterlimit="10" d="M230.6,292.7c-2.1-1.5-7.3-3.8-9.7-1.8c-1,0.8-1.1,2.2-0.8,3.7c0,0.1,0.1,0.2,0.1,0.3c3.6,9.7,13.6,16.4,23.8,18.3C243,304.8,237.5,297.8,230.6,292.7z"/><path fill="#FEBF10" d="M298.1,357.2c-2.4-7.1-13.5,3.4-15.7,6.3c-3.9,4.9-9.7,13.7-8.4,20.7c4.2-2.7,8.4-6.2,11.8-9.4c3.4-3.2,6.8-6.6,9.5-10.4C296.5,362.5,298.6,358.6,298.1,357.2z"/><path fill="none" stroke="#231F20" stroke-miterlimit="10" d="M298.1,357.2c-2.4-7.1-13.5,3.4-15.7,6.3c-3.9,4.9-9.7,13.7-8.4,20.7c4.2-2.7,8.4-6.2,11.8-9.4c3.4-3.2,6.8-6.6,9.5-10.4C296.5,362.5,298.6,358.6,298.1,357.2z"/><path fill="#FEBF10" d="M310.7,98.8c0-0.1,0-0.2,0-0.2c0-0.1,0-0.1-0.1-0.2c0-0.1-0.7-1.5-0.2-0.6c-0.5-0.8-1.1-1.9-1.6-2.5c-0.5-0.5-0.8-1.1-1.1-1.6c-3.1,0-6.3,0-9.4,0c0.6,1.3,0.6,2.8-0.4,4.4c-0.7,1.2-1.4,2.4-1.8,3.8c0.2-0.7-0.2,2.3-0.3,1.5c0,0.2,0,0.4,0,0.7c0,0.1,0,0.2,0.1,0.2l0,0.1c0.1,0.1,0.1,0.1,0.2,0.2c0,0,0,0,0,0c0,0,0,0,0,0c0.2,0.1,0.4,0.2,0.6,0.3c0-0.1,1.5,0.4,1.9,0.4c0.1,0,0.2,0,0.3,0h0c0.5,0,0.9,0,1.4,0c0.9-0.1,1.8-0.2,2.6-0.3c-0.1,0,1.8-0.5,2.1-0.7c1.1-0.4,1.7-0.7,1.8-0.8c0.7-0.4,1.4-0.9,2.1-1.4c0-0.1,0.7-0.7,1.1-1.2c-0.3,0.2,0.7-1.9,0.5-0.9c0-0.2,0.1-0.3,0.1-0.5C310.7,99.2,310.7,98.9,310.7,98.8z"/><path fill="none" stroke="#231F20" stroke-miterlimit="10" d="M310.7,98.8c0-0.1,0-0.2,0-0.2c0-0.1,0-0.1-0.1-0.2c0-0.1-0.7-1.5-0.2-0.6c-0.5-0.8-1.1-1.9-1.6-2.5c-0.5-0.5-0.8-1.1-1.1-1.6c-3.1,0-6.3,0-9.4,0c0.6,1.3,0.6,2.8-0.4,4.4c-0.7,1.2-1.4,2.4-1.8,3.8c0.2-0.7-0.2,2.3-0.3,1.5c0,0.2,0,0.4,0,0.7c0,0.1,0,0.2,0.1,0.2l0,0.1c0.1,0.1,0.1,0.1,0.2,0.2c0,0,0,0,0,0c0,0,0,0,0,0c0.2,0.1,0.4,0.2,0.6,0.3c0-0.1,1.5,0.4,1.9,0.4c0.1,0,0.2,0,0.3,0h0c0.5,0,0.9,0,1.4,0c0.9-0.1,1.8-0.2,2.6-0.3c-0.1,0,1.8-0.5,2.1-0.7c1.1-0.4,1.7-0.7,1.8-0.8c0.7-0.4,1.4-0.9,2.1-1.4c0-0.1,0.7-0.7,1.1-1.2c-0.3,0.2,0.7-1.9,0.5-0.9c0-0.2,0.1-0.3,0.1-0.5C310.7,99.2,310.7,98.9,310.7,98.8z"/><path fill="#FEBF10" d="M331,135.3c-0.3-6.4-1.1-19.2-9.1-20.8c-3.2-0.6-4.4-3.2-4.3-5.7c-2.4,2.5-5.3,4.3-8.6,5.6c3.3,8,5.3,16.6,8.6,24.6c2.4,5.9,5.7,13.2,11.3,16.9C331.1,149.4,331.4,141.7,331,135.3z"/><path fill="none" stroke="#231F20" stroke-miterlimit="10" d="M331,135.3c-0.3-6.4-1.1-19.2-9.1-20.8c-3.2-0.6-4.4-3.2-4.3-5.7c-2.4,2.5-5.3,4.3-8.6,5.6c3.3,8,5.3,16.6,8.6,24.6c2.4,5.9,5.7,13.2,11.3,16.9C331.1,149.4,331.4,141.7,331,135.3z"/><path fill="#FEBF10" d="M298,116.2c-0.8,0-1.6-0.1-2.4-0.3c-0.1,0.4-0.2,0.9-0.3,1.3c-0.5,2.4-1,4.8-1.4,7.2c-1.1,6.4-1.9,12.9-2.5,19.4c-0.5,6.5-0.9,13.1-0.5,19.7c0.2,3.8,0.8,10,2.2,12.3c0,0.1,0.1,0.2,0.2,0.3c0.4-0.1,0.8-0.3,0.7-0.2c0.5-0.3,0.9-0.6,1.2-1.2c3.1-5.4,3.7-12.2,4-18.2C299.7,143,298.1,129.6,298,116.2z"/><path fill="none" stroke="#231F20" stroke-miterlimit="10" d="M298,116.2c-0.8,0-1.6-0.1-2.4-0.3c-0.1,0.4-0.2,0.9-0.3,1.3c-0.5,2.4-1,4.8-1.4,7.2c-1.1,6.4-1.9,12.9-2.5,19.4c-0.5,6.5-0.9,13.1-0.5,19.7c0.2,3.8,0.8,10,2.2,12.3c0,0.1,0.1,0.2,0.2,0.3c0.4-0.1,0.8-0.3,0.7-0.2c0.5-0.3,0.9-0.6,1.2-1.2c3.1-5.4,3.7-12.2,4-18.2C299.7,143,298.1,129.6,298,116.2z"/><path fill="#FEBF10" d="M293.2,302.7c-9.9-12.3-21.2,14.5-22.8,22.8c5.8-0.8,11.7-4.8,15.9-8.3C289.9,314.3,297.2,307.7,293.2,302.7z"/><path fill="none" stroke="#231F20" stroke-miterlimit="10" d="M293.2,302.7c-9.9-12.3-21.2,14.5-22.8,22.8c5.8-0.8,11.7-4.8,15.9-8.3C289.9,314.3,297.2,307.7,293.2,302.7z"/><path fill="#FEBF10" d="M298.5,405.8c-1.3-0.8-2.9-1.6-4.5-1.5c-4.2,0.3-7.6,2.9-10.3,5.9c-4.6,5.1-8.5,11.5-10.5,18.2c0.7-0.3,1.5-0.7,2.2-1.1c3.8-2,7.5-4.2,10.9-6.7c3.3-2.4,6.6-4.9,9.3-8c1.6-1.8,3.7-4.9,3.6-6C299.1,406.4,299.4,406.3,298.5,405.8z"/><path fill="none" stroke="#231F20" stroke-miterlimit="10" d="M298.5,405.8c-1.3-0.8-2.9-1.6-4.5-1.5c-4.2,0.3-7.6,2.9-10.3,5.9c-4.6,5.1-8.5,11.5-10.5,18.2c0.7-0.3,1.5-0.7,2.2-1.1c3.8-2,7.5-4.2,10.9-6.7c3.3-2.4,6.6-4.9,9.3-8c1.6-1.8,3.7-4.9,3.6-6C299.1,406.4,299.4,406.3,298.5,405.8z"/><g><path fill="#C56528" d="M442.2,469c-1.2-3.4-3.2-6.4-5.4-9.2c-5.4-7.2-11.6-13.2-14.3-22.1c-6.2-20.6-1.2-42.9,3.1-63.4c5.8-27.5,7.3-55.7,6.6-83.8c-0.7-25.2-1.7-51.2-7.3-75.9c-4.2-18.5-10.4-36.8-18.9-53.8c-8.2-16.4-19-32.5-33.8-43.7c-13.1-9.9-28.4-14.2-44.4-12.3c9.7,4.3,13.2,16.3,14,26.4c0.9,10.9,0.4,24.4-4.9,34.3c-1.1,2-3.6,3.6-6,3c-10.2-2.9-16.3-10.2-20.6-19c0,5.1-0.2,10.1-0.9,15.2c-0.9,7-2.6,14.9-8.3,19.6c-4.1,3.4-10.8,4.5-14.8,0.5c-4.3-4.2-5.5-10.5-6.1-16.3c-0.8-7.6-0.5-15.2,0-22.8c0.6-9,1.2-18.8,3.4-28c-18.3,0.6-36.5,3.7-54.9,2.7c-8.2-0.4-17.9-1.9-25.7-5.4c-1.8,2.2-5.1,3.3-8.1,1.2c1,0.7-0.9,0.2-2.2,0.6c-2.1,0.6-4.2,1.4-6.2,2.3c-4.9,2.3-9.6,5.1-14.1,8.1c-9.1,6-16.6,12-23,21c-18.2,25.8-24.6,57.4-28.5,88.1c-4,31.4-7.3,63-9.7,94.6c-1.3,16.3-1.6,32.6-2.5,48.9c-0.5,8.2-1.1,16.4-1.8,24.6c-0.5,6.1-0.9,12.1-3.8,17.6c-5.2,10.1-14.5,16.2-22.4,24c-5.4,5.3-14.7,14.2-10.4,22.7c4.4,8.8,20.9,5.7,27.9,3.2c12.9-4.5,24.2-12.5,36.5-18.3c0.3-2.9,2.6-5.7,6.3-4.9c43.2,9,86.3,25,130.8,25.4c22,0.2,44.5,2.6,66.3-1.8c18.6-3.8,35.8-12.6,54.9-14.7c3.9-0.4,5.8,2.6,5.7,5.7c5.7,3.4,10.8,7.7,16.9,10.8c4.9,2.5,9.5,3.4,15,2.9c3.1-0.3,8.6-0.4,11-2.8C443.1,472.6,443.1,471.4,442.2,469z M277.5,238.6c3-7.3,6.7-14.6,6.9-22.6c0.2-7,11.2-7.9,11-0.8c-0.3,10.2-4.3,19.1-8.1,28.4C284.7,250.1,274.9,245.2,277.5,238.6z M295.5,249.1c3.9-5.8,13.8-1,9.9,4.9c-6.4,9.6-12.2,19.8-20.3,28.2c-4.9,5.1-13.2-2.2-8.3-7.3C284.3,267.3,289.6,258,295.5,249.1z M294.9,428c-7.6,5.8-16.9,12-26.5,13.6c-1.9,0.3-3.3-0.3-4.3-1.3v10.8c0,7.1-11,7.9-11,0.8v-29.7c-0.7,2.7-2.1,5.1-4.6,6.4c-4.8,2.5-9.8,1.7-14.6-0.5c-8.6-4.1-18.8-11.6-23.4-20.3c-0.9-1.8-0.9-3.5-0.2-5c-1.6,0-3.2-0.7-4.3-2.5c-8.4-14,9.9-19.6,20.7-17.7c0.3,0,0.5,0.1,0.8,0.2c-0.9-0.5-1.9-1.1-2.8-1.7c-7.8-5.3-15.9-14.1-19.1-23.2c-0.7-0.5-1.3-1.3-1.8-2.2c-2.8-6.1-3.3-14.6,2.8-19c5.3-3.8,13.4-2.7,18.9,0.4c11.4,6.5,20.1,21.1,20.5,34.3c0.1,4.9-2.2,11.6-7.5,13.1c-2.2,0.6-4.3,0.6-6.4,0.1c4.4,2.4,8.2,6.5,11.3,10.1c3.8,4.4,8.1,10,9.6,16v-19.2c0-22.4-0.7-44.8-1.1-67.2c-0.6,0.3-1.3,0.5-2,0.5c-14.2-0.3-28.8-7.2-36.6-19.1c-0.8-0.6-1.5-1.4-2-2.5c-0.6-1.4-1-2.8-1.4-4.2c0-0.1-0.1-0.2-0.1-0.3c-0.3-0.7-0.4-1.4-0.4-2c-0.5-3-0.3-6.1,0.7-8.9c-0.2-0.1-0.3-0.2-0.5-0.4c-2.9-2.9-5.7-5.7-8.6-8.6c-2.1-2.1-2.6-5.4-0.5-7.8c1.9-2.1,5.6-2.6,7.8-0.5l1.1,1.1c2.5,2.5,5,5,7.5,7.5c0.3,0.3,0.6,0.7,0.9,1.1c4.3-1.5,9.3-0.8,13.5,0.8c9.2,3.6,16.2,11.1,20.1,19.9c0-2.2,0-4.5,0-6.7c0-2,0.9-3.5,2.2-4.5c-1.4-0.4-2.7-1.1-3.9-2c-3.5-2.7-5.2-6.5-5.8-10.7c-2.9,1.9-8.2,0.7-9.1-3.9c-0.9-4.9-5.4-8.4-8.5-11.9c-3.3-3.7-6.1-7.4-7.7-12.2c-2.2-6.7,8.2-10.4,10.4-3.6c1.8,5.5,6.2,9.1,9.8,13.3c2.4,2.8,4.3,5.6,5.5,8.8c0.4-0.9,0.9-1.6,1.6-2.1c-0.9-4.3-1.8-8.6-2.1-13c-0.2-3.2-0.3-7,0.5-10.5c-2.6,2.7-7.8,2.8-9.2-1.7c-3.2-9.7-6.1-19.7-6.3-29.9c-0.1-7.1,10.8-7.9,11-0.8c0.2,9.4,2.8,18.3,5.7,27.1c0.2,0.5,0.2,1,0.3,1.4c0.5-1,1.2-1.9,2-2.6c2.8-2.7,6.7-4,10.5-3.9c-0.6-0.8-1-1.8-1-3.1v-34.5c0-7.1,11-7.9,11-0.8v34.5c0,2.8-1.7,4.6-3.7,5.3c0.4,0.2,0.8,0.4,1.2,0.6c5.9,3.4,9,9.2,9.9,15.8c1,6.6,0.3,13.4-0.6,19.9c-1,6.8-2.8,13.8-8.6,18.3c-1.6,1.3-3.5,2.2-5.4,2.7c0.8,0.8,1.4,2,1.4,3.5c0,6.6,0.1,13.3,0.2,19.9c7.1-16.9,24.1-35.8,38.9-17.4c14.2,17.7-15.6,40.3-31.8,40.8c-3.9,0.1-5.9-3.2-5.7-6.2c-0.4-0.1-0.7-0.2-1.1-0.3c0.3,14.8,0.7,29.6,0.9,44.4c2.1-7.3,6.7-14.3,10.8-19.1c7.4-8.5,22.3-17.5,31.5-5.9c7.6,9.6-1.7,22-8.5,29c-7.3,7.4-16.5,15.8-26.5,19.4c-5,1.8-8.3-3.6-6.8-7.5c-0.1-0.1-0.1-0.3-0.2-0.4c-0.1-0.1-0.1-0.3-0.2-0.4c0,0.4,0,0.7,0,1.1v30.4c3.4-8.5,9-16.6,15.6-22c4.8-3.9,11.5-6.8,17.9-5.3c4.8,1.2,10.4,4,12,9.2C312.7,413.3,302.3,422.4,294.9,428z M318.1,279.2c-3,3-6,6-9,9c-2.1,2.1-5.4,2.6-7.8,0.5c-2.1-1.9-2.6-5.6-0.5-7.8c3-3,6-6,9-9c2.1-2.1,5.4-2.6,7.8-0.5C319.7,273.3,320.2,277.1,318.1,279.2z"/><path fill="none" stroke="#231F20" stroke-miterlimit="10" d="M442.2,469c-1.2-3.4-3.2-6.4-5.4-9.2c-5.4-7.2-11.6-13.2-14.3-22.1c-6.2-20.6-1.2-42.9,3.1-63.4c5.8-27.5,7.3-55.7,6.6-83.8c-0.7-25.2-1.7-51.2-7.3-75.9c-4.2-18.5-10.4-36.8-18.9-53.8c-8.2-16.4-19-32.5-33.8-43.7c-13.1-9.9-28.4-14.2-44.4-12.3c9.7,4.3,13.2,16.3,14,26.4c0.9,10.9,0.4,24.4-4.9,34.3c-1.1,2-3.6,3.6-6,3c-10.2-2.9-16.3-10.2-20.6-19c0,5.1-0.2,10.1-0.9,15.2c-0.9,7-2.6,14.9-8.3,19.6c-4.1,3.4-10.8,4.5-14.8,0.5c-4.3-4.2-5.5-10.5-6.1-16.3c-0.8-7.6-0.5-15.2,0-22.8c0.6-9,1.2-18.8,3.4-28c-18.3,0.6-36.5,3.7-54.9,2.7c-8.2-0.4-17.9-1.9-25.7-5.4c-1.8,2.2-5.1,3.3-8.1,1.2c1,0.7-0.9,0.2-2.2,0.6c-2.1,0.6-4.2,1.4-6.2,2.3c-4.9,2.3-9.6,5.1-14.1,8.1c-9.1,6-16.6,12-23,21c-18.2,25.8-24.6,57.4-28.5,88.1c-4,31.4-7.3,63-9.7,94.6c-1.3,16.3-1.6,32.6-2.5,48.9c-0.5,8.2-1.1,16.4-1.8,24.6c-0.5,6.1-0.9,12.1-3.8,17.6c-5.2,10.1-14.5,16.2-22.4,24c-5.4,5.3-14.7,14.2-10.4,22.7c4.4,8.8,20.9,5.7,27.9,3.2c12.9-4.5,24.2-12.5,36.5-18.3c0.3-2.9,2.6-5.7,6.3-4.9c43.2,9,86.3,25,130.8,25.4c22,0.2,44.5,2.6,66.3-1.8c18.6-3.8,35.8-12.6,54.9-14.7c3.9-0.4,5.8,2.6,5.7,5.7c5.7,3.4,10.8,7.7,16.9,10.8c4.9,2.5,9.5,3.4,15,2.9c3.1-0.3,8.6-0.4,11-2.8C443.1,472.6,443.1,471.4,442.2,469z M277.5,238.6c3-7.3,6.7-14.6,6.9-22.6c0.2-7,11.2-7.9,11-0.8c-0.3,10.2-4.3,19.1-8.1,28.4C284.7,250.1,274.9,245.2,277.5,238.6z M295.5,249.1c3.9-5.8,13.8-1,9.9,4.9c-6.4,9.6-12.2,19.8-20.3,28.2c-4.9,5.1-13.2-2.2-8.3-7.3C284.3,267.3,289.6,258,295.5,249.1z M294.9,428c-7.6,5.8-16.9,12-26.5,13.6c-1.9,0.3-3.3-0.3-4.3-1.3v10.8c0,7.1-11,7.9-11,0.8v-29.7c-0.7,2.7-2.1,5.1-4.6,6.4c-4.8,2.5-9.8,1.7-14.6-0.5c-8.6-4.1-18.8-11.6-23.4-20.3c-0.9-1.8-0.9-3.5-0.2-5c-1.6,0-3.2-0.7-4.3-2.5c-8.4-14,9.9-19.6,20.7-17.7c0.3,0,0.5,0.1,0.8,0.2c-0.9-0.5-1.9-1.1-2.8-1.7c-7.8-5.3-15.9-14.1-19.1-23.2c-0.7-0.5-1.3-1.3-1.8-2.2c-2.8-6.1-3.3-14.6,2.8-19c5.3-3.8,13.4-2.7,18.9,0.4c11.4,6.5,20.1,21.1,20.5,34.3c0.1,4.9-2.2,11.6-7.5,13.1c-2.2,0.6-4.3,0.6-6.4,0.1c4.4,2.4,8.2,6.5,11.3,10.1c3.8,4.4,8.1,10,9.6,16v-19.2c0-22.4-0.7-44.8-1.1-67.2c-0.6,0.3-1.3,0.5-2,0.5c-14.2-0.3-28.8-7.2-36.6-19.1c-0.8-0.6-1.5-1.4-2-2.5c-0.6-1.4-1-2.8-1.4-4.2c0-0.1-0.1-0.2-0.1-0.3c-0.3-0.7-0.4-1.4-0.4-2c-0.5-3-0.3-6.1,0.7-8.9c-0.2-0.1-0.3-0.2-0.5-0.4c-2.9-2.9-5.7-5.7-8.6-8.6c-2.1-2.1-2.6-5.4-0.5-7.8c1.9-2.1,5.6-2.6,7.8-0.5l1.1,1.1c2.5,2.5,5,5,7.5,7.5c0.3,0.3,0.6,0.7,0.9,1.1c4.3-1.5,9.3-0.8,13.5,0.8c9.2,3.6,16.2,11.1,20.1,19.9c0-2.2,0-4.5,0-6.7c0-2,0.9-3.5,2.2-4.5c-1.4-0.4-2.7-1.1-3.9-2c-3.5-2.7-5.2-6.5-5.8-10.7c-2.9,1.9-8.2,0.7-9.1-3.9c-0.9-4.9-5.4-8.4-8.5-11.9c-3.3-3.7-6.1-7.4-7.7-12.2c-2.2-6.7,8.2-10.4,10.4-3.6c1.8,5.5,6.2,9.1,9.8,13.3c2.4,2.8,4.3,5.6,5.5,8.8c0.4-0.9,0.9-1.6,1.6-2.1c-0.9-4.3-1.8-8.6-2.1-13c-0.2-3.2-0.3-7,0.5-10.5c-2.6,2.7-7.8,2.8-9.2-1.7c-3.2-9.7-6.1-19.7-6.3-29.9c-0.1-7.1,10.8-7.9,11-0.8c0.2,9.4,2.8,18.3,5.7,27.1c0.2,0.5,0.2,1,0.3,1.4c0.5-1,1.2-1.9,2-2.6c2.8-2.7,6.7-4,10.5-3.9c-0.6-0.8-1-1.8-1-3.1v-34.5c0-7.1,11-7.9,11-0.8v34.5c0,2.8-1.7,4.6-3.7,5.3c0.4,0.2,0.8,0.4,1.2,0.6c5.9,3.4,9,9.2,9.9,15.8c1,6.6,0.3,13.4-0.6,19.9c-1,6.8-2.8,13.8-8.6,18.3c-1.6,1.3-3.5,2.2-5.4,2.7c0.8,0.8,1.4,2,1.4,3.5c0,6.6,0.1,13.3,0.2,19.9c7.1-16.9,24.1-35.8,38.9-17.4c14.2,17.7-15.6,40.3-31.8,40.8c-3.9,0.1-5.9-3.2-5.7-6.2c-0.4-0.1-0.7-0.2-1.1-0.3c0.3,14.8,0.7,29.6,0.9,44.4c2.1-7.3,6.7-14.3,10.8-19.1c7.4-8.5,22.3-17.5,31.5-5.9c7.6,9.6-1.7,22-8.5,29c-7.3,7.4-16.5,15.8-26.5,19.4c-5,1.8-8.3-3.6-6.8-7.5c-0.1-0.1-0.1-0.3-0.2-0.4c-0.1-0.1-0.1-0.3-0.2-0.4c0,0.4,0,0.7,0,1.1v30.4c3.4-8.5,9-16.6,15.6-22c4.8-3.9,11.5-6.8,17.9-5.3c4.8,1.2,10.4,4,12,9.2C312.7,413.3,302.3,422.4,294.9,428z M318.1,279.2c-3,3-6,6-9,9c-2.1,2.1-5.4,2.6-7.8,0.5c-2.1-1.9-2.6-5.6-0.5-7.8c3-3,6-6,9-9c2.1-2.1,5.4-2.6,7.8-0.5C319.7,273.3,320.2,277.1,318.1,279.2z"/></g><g><path fill="#FEBF10" d="M227.8,394.8c-2.8-1.9-5.6-1.9-8.9-1.5c-1.2,0.2-2.6,0.3-3.7,0.8c1,1.7,1,3.4,0.4,4.8c1.5,0,3.1,0.7,4.1,2.6c3,5.6,8.8,10.2,14,13.7c2.4,1.6,5.3,3.4,8.2,3.9c0.3,0,0.5,0.1,0.6,0.1c0-0.3,0.3-1,0.4-1.3C243.6,409,234.5,399.5,227.8,394.8z"/><path fill="none" stroke="#231F20" stroke-miterlimit="10" d="M227.8,394.8c-2.8-1.9-5.6-1.9-8.9-1.5c-1.2,0.2-2.6,0.3-3.7,0.8c1,1.7,1,3.4,0.4,4.8c1.5,0,3.1,0.7,4.1,2.6c3,5.6,8.8,10.2,14,13.7c2.4,1.6,5.3,3.4,8.2,3.9c0.3,0,0.5,0.1,0.6,0.1c0-0.3,0.3-1,0.4-1.3C243.6,409,234.5,399.5,227.8,394.8z"/></g><g><path fill="#FEBF10" d="M264.5,248.2c-1.1-3.6-2.9-5.9-7-6.2c-2.5-0.2-2.5,3-2.7,4.9c-0.5,7.5,1.9,15,3.2,22.3c0.5,2.9-1.1,4.8-3.3,5.4c0.1,2.1,0.7,4.3,2.4,4.6c3,0.5,5.4-3.7,6.1-6.2C265.3,265.8,266.7,255.4,264.5,248.2z"/><path fill="none" stroke="#231F20" stroke-miterlimit="10" d="M264.5,248.2c-1.1-3.6-2.9-5.9-7-6.2c-2.5-0.2-2.5,3-2.7,4.9c-0.5,7.5,1.9,15,3.2,22.3c0.5,2.9-1.1,4.8-3.3,5.4c0.1,2.1,0.7,4.3,2.4,4.6c3,0.5,5.4-3.7,6.1-6.2C265.3,265.8,266.7,255.4,264.5,248.2z"/></g><g><path fill="#FEBF10" d="M225,350.2c-3-2.9-6.3-5-10.6-5.2c-2.7-0.2-1.6,3.4-0.8,5.5c0.9,0.6,1.7,1.5,2.1,2.8c1.8,5.8,6.6,11.2,11,15.2c2.2,2,4.6,4.2,7.5,5.3c0.1,0,0.1,0,0.2,0c0.1-0.4,0.4-0.9,0.4-1.2C236,365.2,230.2,355.2,225,350.2z"/><path fill="none" stroke="#231F20" stroke-miterlimit="10" d="M225,350.2c-3-2.9-6.3-5-10.6-5.2c-2.7-0.2-1.6,3.4-0.8,5.5c0.9,0.6,1.7,1.5,2.1,2.8c1.8,5.8,6.6,11.2,11,15.2c2.2,2,4.6,4.2,7.5,5.3c0.1,0,0.1,0,0.2,0c0.1-0.4,0.4-0.9,0.4-1.2C236,365.2,230.2,355.2,225,350.2z"/></g><g><path fill="#231F20" d="M438.4,444.7c-6.8-8.2-7.8-19.5-7.7-29.7c0.1-11.6,2.6-23.2,4.9-34.5c5.9-28.7,8.1-57.4,7.7-86.7c-0.7-45.4-5.5-90.6-24.9-132.2c-15.3-32.9-41.1-66.1-80.3-68.1c-5.2-0.3-10.5,0.3-15.7,1.2c-0.6,0.1-1.1,0.3-1.5,0.5c-0.1-0.2-0.1-0.4-0.2-0.7c6-9.5,17.8-17.3,28.8-19.3c7.7-1.4,15.4-0.4,23-2.6c8.8-2.6,12.5-10.7,11.4-19.3c-1.2-9.1-7.1-16-16.4-17c-8.4-0.9-16.8,1.9-24.7,4.6c-7.5,2.5-15.6,6.8-22.5,1.1c-8-6.6-14.1-14-24.4-17.3c-12.1-3.8-24.7,4.6-35.2,9.3c-10.7,4.8-21.2,9.6-32.8,4.6c-3.5-1.5-6.4-3.6-10-4.9c-3.2-1.2-6.5-2.3-9.8-3.3c-13-4-28.8-7.9-42.1-3.1c-14.2,5.1-17.4,23.5-9.3,35.2c4.6,6.6,12.2,10.5,18.9,14.5c4.8,2.9,11,6.4,13.5,11.7c-0.1,0.2-0.1,0.3-0.2,0.5c-0.3,0.7-0.4,1.5-0.4,2.2c-0.7,6,0.6,10.8,3.1,14.6c-3.7,0.6-7.3,2.2-10.6,3.7c-8.1,3.9-15.6,8.8-22.9,14c-18.1,12.9-28.8,34.6-36,55.1c-9.3,26.4-11.9,54.2-15.1,81.9c-1.8,15.7-3.4,31.4-4.8,47.2c-1.4,15.8-3.6,31.9-3.6,47.8c0,12.4-0.7,24.7-1.7,37.1c-0.7,9.7-0.1,20.4-6.1,28.6c-9.9,13.3-26.6,20.4-31.6,37.3c-4.6,15.4,8.7,26.2,22.9,26.6c21.7,0.7,38-12.6,56.7-21.3c1.7-0.8,2.7-2.2,3.1-3.7c42.3,9.1,83.6,22.9,127.1,24.9c21.9,1,44.6,2.3,66.3-1.1c17.7-2.7,34.1-10.9,51.7-14.3c0.3,0.1,0.6,0.3,0.9,0.4c9.7,3.2,16.8,11.5,26.1,15.5c9.5,4.1,23,3.8,32.1-1.3C463.9,474.4,446.5,454.4,438.4,444.7z M321.9,114.5c8.1,1.6,8.8,14.4,9.1,20.8c0.3,6.4,0.1,14.1-2,20.6c-5.6-3.7-8.9-11-11.3-16.9c-3.3-8.1-5.3-16.6-8.6-24.6c3.3-1.2,6.2-3,8.6-5.6C317.4,111.3,318.7,113.9,321.9,114.5z M293.3,176.1c-0.1-0.1-0.2-0.3-0.2-0.3c-1.4-2.3-2-8.5-2.2-12.3c-0.4-6.6-0.1-13.1,0.5-19.7c0.5-6.5,1.4-13,2.5-19.4c0.4-2.4,0.9-4.8,1.4-7.2c0.1-0.4,0.2-0.9,0.3-1.3c0.8,0.1,1.6,0.2,2.4,0.3c0.1,13.5,1.7,26.8,1.1,40.3c-0.3,6.1-0.8,12.9-4,18.2c-0.4,0.6-0.8,0.9-1.2,1.2C294.1,175.8,293.7,176,293.3,176.1z M298.9,105.2L298.9,105.2c-0.1,0-0.2,0-0.3,0c-0.4,0-1.9-0.4-1.9-0.4c-0.2-0.1-0.4-0.2-0.6-0.3c0,0,0,0,0,0c0,0,0,0,0,0c-0.1,0-0.1-0.1-0.2-0.2l0-0.1c0-0.1,0-0.2-0.1-0.2c0-0.2,0-0.4,0-0.7c0.1,0.8,0.6-2.2,0.3-1.5c0.5-1.3,1.1-2.6,1.8-3.8c0.9-1.6,0.9-3.2,0.4-4.4c3.2,0,6.3,0,9.4,0c0.3,0.6,0.7,1.1,1.1,1.6c0.5,0.6,1.2,1.6,1.6,2.5c-0.5-0.9,0.2,0.6,0.2,0.6c0,0.1,0,0.1,0.1,0.2c0,0.1,0,0.1,0,0.2c0,0.1,0,0.5,0,0.7c0,0.2-0.1,0.3-0.1,0.5c0.2-0.9-0.8,1.1-0.5,0.9c-0.4,0.4-1.1,1.1-1.1,1.2c-0.7,0.5-1.4,1-2.1,1.4c-0.2,0.1-0.7,0.3-1.8,0.8c-0.4,0.1-2.2,0.6-2.1,0.7c-0.9,0.2-1.8,0.3-2.6,0.3C299.8,105.2,299.4,105.2,298.9,105.2z M185.8,70.4c-6.6-4.4-15-7.7-20-14.2c-3.3-4.3-3.9-13,0.6-16.8c4.8-4,12.5-3.5,18.2-2.9c7.8,0.8,15.5,2.8,23,5.2c8.3,2.6,15.5,7.7,23.9,9.5c12.8,2.8,25.4-3.4,36.7-8.7c5.5-2.6,10.9-5.4,16.8-7.1c6.5-1.8,12,1.1,17.1,4.8c5.3,3.9,9.3,9.2,14.9,12.8c6.3,4.1,14.3,3,21.1,0.9c5.9-1.8,11.6-4.1,17.6-5.7c4-1.1,11.9-3.1,15.2,0.7c2.6,3,4.1,10.5-0.4,12.6c-5,2.3-11.3,1.8-16.7,2.1c-15.4,0.8-30.8,9.7-40.2,22c-0.3-0.1-0.7-0.1-1.1-0.1c-0.9-1.7-2.6-3-5-3c-21.8,0-43.7,0.8-65.5-0.1c-9.6-0.4-19.2-1.3-28.8-1.2c-4.6,0-10.2,0.1-15.2,1.4C195.3,77.7,190.9,73.8,185.8,70.4z M285.2,106.6H285c-0.3,0-0.6,0-0.9,0.1c-16.5,0.5-32.9,3.2-49.4,3c-8.7-0.1-18.1-0.6-26.3-3.9c-5.4-2.2-8.8-5.3-9.2-10.4c0.7-0.5,1.3-1.3,1.6-2.2c4.7-1.6,13-1,16.9-0.9c9,0.1,17.9,1,26.9,1.3c14.3,0.5,28.7,0.3,43.1,0.2C285.4,97.9,284.2,102.4,285.2,106.6z M441.6,474.2c-2.4,2.4-7.9,2.5-11,2.8c-5.5,0.5-10.1-0.4-15-2.9c-6.1-3.2-11.2-7.4-16.9-10.8c0.1-3-1.9-6.1-5.7-5.7c-19.1,2.1-36.3,10.9-54.9,14.7c-21.7,4.4-44.3,2-66.3,1.8c-44.5-0.4-87.6-16.4-130.8-25.4c-3.7-0.8-6.1,2-6.3,4.9c-12.3,5.8-23.6,13.8-36.5,18.3c-6.9,2.4-23.5,5.5-27.9-3.2c-4.3-8.6,5-17.4,10.4-22.7c7.9-7.8,17.2-13.9,22.4-24c2.9-5.5,3.3-11.6,3.8-17.6c0.7-8.2,1.3-16.4,1.8-24.6c0.9-16.3,1.3-32.6,2.5-48.9c2.4-31.6,5.8-63.1,9.7-94.6c3.9-30.7,10.2-62.3,28.5-88.1c6.4-9,13.9-15,23-21c4.5-3,9.2-5.8,14.1-8.1c2-0.9,4.1-1.7,6.2-2.3c1.2-0.3,3.2,0.1,2.2-0.6c2.9,2.1,6.3,0.9,8.1-1.2c7.8,3.6,17.5,5,25.7,5.4c18.5,1,36.6-2.1,54.9-2.7c-2.1,9.1-2.7,19-3.4,28c-0.5,7.6-0.8,15.3,0,22.8c0.6,5.8,1.8,12,6.1,16.3c4.1,4,10.8,2.9,14.8-0.5c5.7-4.7,7.4-12.6,8.3-19.6c0.7-5.1,0.9-10.1,0.9-15.2c4.3,8.8,10.4,16.1,20.6,19c2.4,0.7,4.9-0.9,6-3c5.4-9.9,5.8-23.4,4.9-34.3c-0.8-10.1-4.3-22.1-14-26.4c16.1-1.9,31.3,2.4,44.4,12.3c14.8,11.2,25.6,27.3,33.8,43.7c8.5,17,14.7,35.3,18.9,53.8c5.6,24.7,6.7,50.7,7.3,75.9c0.7,28.1-0.8,56.2-6.6,83.8c-4.3,20.5-9.3,42.8-3.1,63.4c2.7,8.9,8.8,14.9,14.3,22.1c2.2,2.8,4.2,5.9,5.4,9.2C443.1,471.4,443.1,472.6,441.6,474.2z"/><path fill="none" stroke="#231F20" stroke-miterlimit="10" d="M438.4,444.7c-6.8-8.2-7.8-19.5-7.7-29.7c0.1-11.6,2.6-23.2,4.9-34.5c5.9-28.7,8.1-57.4,7.7-86.7c-0.7-45.4-5.5-90.6-24.9-132.2c-15.3-32.9-41.1-66.1-80.3-68.1c-5.2-0.3-10.5,0.3-15.7,1.2c-0.6,0.1-1.1,0.3-1.5,0.5c-0.1-0.2-0.1-0.4-0.2-0.7c6-9.5,17.8-17.3,28.8-19.3c7.7-1.4,15.4-0.4,23-2.6c8.8-2.6,12.5-10.7,11.4-19.3c-1.2-9.1-7.1-16-16.4-17c-8.4-0.9-16.8,1.9-24.7,4.6c-7.5,2.5-15.6,6.8-22.5,1.1c-8-6.6-14.1-14-24.4-17.3c-12.1-3.8-24.7,4.6-35.2,9.3c-10.7,4.8-21.2,9.6-32.8,4.6c-3.5-1.5-6.4-3.6-10-4.9c-3.2-1.2-6.5-2.3-9.8-3.3c-13-4-28.8-7.9-42.1-3.1c-14.2,5.1-17.4,23.5-9.3,35.2c4.6,6.6,12.2,10.5,18.9,14.5c4.8,2.9,11,6.4,13.5,11.7c-0.1,0.2-0.1,0.3-0.2,0.5c-0.3,0.7-0.4,1.5-0.4,2.2c-0.7,6,0.6,10.8,3.1,14.6c-3.7,0.6-7.3,2.2-10.6,3.7c-8.1,3.9-15.6,8.8-22.9,14c-18.1,12.9-28.8,34.6-36,55.1c-9.3,26.4-11.9,54.2-15.1,81.9c-1.8,15.7-3.4,31.4-4.8,47.2c-1.4,15.8-3.6,31.9-3.6,47.8c0,12.4-0.7,24.7-1.7,37.1c-0.7,9.7-0.1,20.4-6.1,28.6c-9.9,13.3-26.6,20.4-31.6,37.3c-4.6,15.4,8.7,26.2,22.9,26.6c21.7,0.7,38-12.6,56.7-21.3c1.7-0.8,2.7-2.2,3.1-3.7c42.3,9.1,83.6,22.9,127.1,24.9c21.9,1,44.6,2.3,66.3-1.1c17.7-2.7,34.1-10.9,51.7-14.3c0.3,0.1,0.6,0.3,0.9,0.4c9.7,3.2,16.8,11.5,26.1,15.5c9.5,4.1,23,3.8,32.1-1.3C463.9,474.4,446.5,454.4,438.4,444.7z M321.9,114.5c8.1,1.6,8.8,14.4,9.1,20.8c0.3,6.4,0.1,14.1-2,20.6c-5.6-3.7-8.9-11-11.3-16.9c-3.3-8.1-5.3-16.6-8.6-24.6c3.3-1.2,6.2-3,8.6-5.6C317.4,111.3,318.7,113.9,321.9,114.5z M293.3,176.1c-0.1-0.1-0.2-0.3-0.2-0.3c-1.4-2.3-2-8.5-2.2-12.3c-0.4-6.6-0.1-13.1,0.5-19.7c0.5-6.5,1.4-13,2.5-19.4c0.4-2.4,0.9-4.8,1.4-7.2c0.1-0.4,0.2-0.9,0.3-1.3c0.8,0.1,1.6,0.2,2.4,0.3c0.1,13.5,1.7,26.8,1.1,40.3c-0.3,6.1-0.8,12.9-4,18.2c-0.4,0.6-0.8,0.9-1.2,1.2C294.1,175.8,293.7,176,293.3,176.1z M298.9,105.2L298.9,105.2c-0.1,0-0.2,0-0.3,0c-0.4,0-1.9-0.4-1.9-0.4c-0.2-0.1-0.4-0.2-0.6-0.3c0,0,0,0,0,0c0,0,0,0,0,0c-0.1,0-0.1-0.1-0.2-0.2l0-0.1c0-0.1,0-0.2-0.1-0.2c0-0.2,0-0.4,0-0.7c0.1,0.8,0.6-2.2,0.3-1.5c0.5-1.3,1.1-2.6,1.8-3.8c0.9-1.6,0.9-3.2,0.4-4.4c3.2,0,6.3,0,9.4,0c0.3,0.6,0.7,1.1,1.1,1.6c0.5,0.6,1.2,1.6,1.6,2.5c-0.5-0.9,0.2,0.6,0.2,0.6c0,0.1,0,0.1,0.1,0.2c0,0.1,0,0.1,0,0.2c0,0.1,0,0.5,0,0.7c0,0.2-0.1,0.3-0.1,0.5c0.2-0.9-0.8,1.1-0.5,0.9c-0.4,0.4-1.1,1.1-1.1,1.2c-0.7,0.5-1.4,1-2.1,1.4c-0.2,0.1-0.7,0.3-1.8,0.8c-0.4,0.1-2.2,0.6-2.1,0.7c-0.9,0.2-1.8,0.3-2.6,0.3C299.8,105.2,299.4,105.2,298.9,105.2z M185.8,70.4c-6.6-4.4-15-7.7-20-14.2c-3.3-4.3-3.9-13,0.6-16.8c4.8-4,12.5-3.5,18.2-2.9c7.8,0.8,15.5,2.8,23,5.2c8.3,2.6,15.5,7.7,23.9,9.5c12.8,2.8,25.4-3.4,36.7-8.7c5.5-2.6,10.9-5.4,16.8-7.1c6.5-1.8,12,1.1,17.1,4.8c5.3,3.9,9.3,9.2,14.9,12.8c6.3,4.1,14.3,3,21.1,0.9c5.9-1.8,11.6-4.1,17.6-5.7c4-1.1,11.9-3.1,15.2,0.7c2.6,3,4.1,10.5-0.4,12.6c-5,2.3-11.3,1.8-16.7,2.1c-15.4,0.8-30.8,9.7-40.2,22c-0.3-0.1-0.7-0.1-1.1-0.1c-0.9-1.7-2.6-3-5-3c-21.8,0-43.7,0.8-65.5-0.1c-9.6-0.4-19.2-1.3-28.8-1.2c-4.6,0-10.2,0.1-15.2,1.4C195.3,77.7,190.9,73.8,185.8,70.4z M285.2,106.6H285c-0.3,0-0.6,0-0.9,0.1c-16.5,0.5-32.9,3.2-49.4,3c-8.7-0.1-18.1-0.6-26.3-3.9c-5.4-2.2-8.8-5.3-9.2-10.4c0.7-0.5,1.3-1.3,1.6-2.2c4.7-1.6,13-1,16.9-0.9c9,0.1,17.9,1,26.9,1.3c14.3,0.5,28.7,0.3,43.1,0.2C285.4,97.9,284.2,102.4,285.2,106.6z M441.6,474.2c-2.4,2.4-7.9,2.5-11,2.8c-5.5,0.5-10.1-0.4-15-2.9c-6.1-3.2-11.2-7.4-16.9-10.8c0.1-3-1.9-6.1-5.7-5.7c-19.1,2.1-36.3,10.9-54.9,14.7c-21.7,4.4-44.3,2-66.3,1.8c-44.5-0.4-87.6-16.4-130.8-25.4c-3.7-0.8-6.1,2-6.3,4.9c-12.3,5.8-23.6,13.8-36.5,18.3c-6.9,2.4-23.5,5.5-27.9-3.2c-4.3-8.6,5-17.4,10.4-22.7c7.9-7.8,17.2-13.9,22.4-24c2.9-5.5,3.3-11.6,3.8-17.6c0.7-8.2,1.3-16.4,1.8-24.6c0.9-16.3,1.3-32.6,2.5-48.9c2.4-31.6,5.8-63.1,9.7-94.6c3.9-30.7,10.2-62.3,28.5-88.1c6.4-9,13.9-15,23-21c4.5-3,9.2-5.8,14.1-8.1c2-0.9,4.1-1.7,6.2-2.3c1.2-0.3,3.2,0.1,2.2-0.6c2.9,2.1,6.3,0.9,8.1-1.2c7.8,3.6,17.5,5,25.7,5.4c18.5,1,36.6-2.1,54.9-2.7c-2.1,9.1-2.7,19-3.4,28c-0.5,7.6-0.8,15.3,0,22.8c0.6,5.8,1.8,12,6.1,16.3c4.1,4,10.8,2.9,14.8-0.5c5.7-4.7,7.4-12.6,8.3-19.6c0.7-5.1,0.9-10.1,0.9-15.2c4.3,8.8,10.4,16.1,20.6,19c2.4,0.7,4.9-0.9,6-3c5.4-9.9,5.8-23.4,4.9-34.3c-0.8-10.1-4.3-22.1-14-26.4c16.1-1.9,31.3,2.4,44.4,12.3c14.8,11.2,25.6,27.3,33.8,43.7c8.5,17,14.7,35.3,18.9,53.8c5.6,24.7,6.7,50.7,7.3,75.9c0.7,28.1-0.8,56.2-6.6,83.8c-4.3,20.5-9.3,42.8-3.1,63.4c2.7,8.9,8.8,14.9,14.3,22.1c2.2,2.8,4.2,5.9,5.4,9.2C443.1,471.4,443.1,472.6,441.6,474.2z"/></g><g><path fill="#231F20" d="M309.5,402.9c-1.6-5.1-7.2-8-12-9.2c-6.3-1.6-13,1.4-17.9,5.3c-6.6,5.3-12.2,13.4-15.6,22v-30.4c0-0.4,0-0.7,0-1.1c0.1,0.1,0.1,0.3,0.2,0.4c0.1,0.1,0.1,0.3,0.2,0.4c-1.5,3.8,1.8,9.3,6.8,7.5c10-3.6,19.2-12,26.5-19.4c6.8-6.9,16.1-19.4,8.5-29c-9.2-11.6-24.1-2.6-31.5,5.9c-4.2,4.8-8.7,11.8-10.8,19.1c-0.2-14.8-0.6-29.6-0.9-44.4c0.3,0.1,0.7,0.2,1.1,0.3c-0.2,3,1.8,6.4,5.7,6.2c16.2-0.5,46.1-23.1,31.8-40.8c-14.8-18.4-31.8,0.5-38.9,17.4c-0.1-6.6-0.2-13.3-0.2-19.9c0-1.6-0.5-2.7-1.4-3.5c1.9-0.5,3.8-1.4,5.4-2.7c5.8-4.4,7.6-11.4,8.6-18.3c0.9-6.6,1.6-13.3,0.6-19.9c-1-6.6-4-12.4-9.9-15.8c-0.4-0.2-0.8-0.4-1.2-0.6c2-0.8,3.7-2.6,3.7-5.3v-34.5c0-7.1-11-6.2-11,0.8V228c0,1.3,0.4,2.3,1,3.1c-3.8-0.1-7.7,1.3-10.5,3.9c-0.8,0.8-1.5,1.7-2,2.6c0-0.5-0.1-0.9-0.3-1.4c-2.9-8.8-5.5-17.8-5.7-27.1c-0.1-7.1-11.1-6.2-11,0.8c0.2,10.2,3.1,20.2,6.3,29.9c1.5,4.5,6.7,4.4,9.2,1.7c-0.8,3.5-0.7,7.4-0.5,10.5c0.3,4.4,1.2,8.7,2.1,13c-0.7,0.5-1.3,1.2-1.6,2.1c-1.3-3.2-3.1-6-5.5-8.8c-3.7-4.2-8.1-7.8-9.8-13.3c-2.2-6.7-12.6-3.1-10.4,3.6c1.6,4.8,4.4,8.5,7.7,12.2c3.1,3.5,7.6,7,8.5,11.9c0.9,4.7,6.2,5.8,9.1,3.9c0.6,4.1,2.2,8,5.8,10.7c1.2,0.9,2.5,1.6,3.9,2c-1.3,1-2.2,2.5-2.2,4.5c0,2.2,0,4.5,0,6.7c-3.9-8.9-11-16.3-20.1-19.9c-4.2-1.6-9.2-2.3-13.5-0.8c-0.3-0.4-0.6-0.8-0.9-1.1c-2.5-2.5-5-5-7.5-7.5l-1.1-1.1c-2.1-2.1-5.9-1.6-7.8,0.5c-2.1,2.4-1.6,5.6,0.5,7.8c2.9,2.9,5.7,5.7,8.6,8.6c0.1,0.1,0.3,0.3,0.5,0.4c-1.1,2.8-1.2,5.9-0.7,8.9c0,0.6,0.1,1.3,0.4,2c0,0.1,0.1,0.2,0.1,0.3c0.4,1.5,0.8,2.9,1.4,4.2c0.5,1.1,1.2,2,2,2.5c7.8,12,22.4,18.8,36.6,19.1c0.6,0,1.3-0.2,2-0.5c0.4,22.4,1.1,44.8,1.1,67.2v19.2c-1.5-6-5.8-11.6-9.6-16c-3.1-3.5-6.9-7.6-11.3-10.1c2,0.5,4.2,0.5,6.4-0.1c5.3-1.5,7.6-8.2,7.5-13.1c-0.4-13.2-9.1-27.8-20.5-34.3c-5.5-3.1-13.6-4.3-18.9-0.4c-6.1,4.4-5.5,12.9-2.8,19c0.4,1,1.1,1.7,1.8,2.2c3.1,9.1,11.3,18,19.1,23.2c0.9,0.6,1.8,1.2,2.8,1.7c-0.3-0.1-0.5-0.1-0.8-0.2c-10.8-1.8-29.1,3.7-20.7,17.7c1.1,1.8,2.7,2.5,4.3,2.5c-0.6,1.5-0.7,3.2,0.2,5c4.6,8.6,14.7,16.2,23.4,20.3c4.8,2.3,9.8,3,14.6,0.5c2.5-1.3,3.9-3.7,4.6-6.4v29.7c0,7.1,11,6.2,11-0.8v-10.8c1,1,2.4,1.6,4.3,1.3c9.6-1.6,18.9-7.8,26.5-13.6C302.3,422.4,312.7,413.3,309.5,402.9z M282.4,363.5c2.3-2.8,13.3-13.4,15.7-6.3c0.5,1.4-1.6,5.3-2.8,7.2c-2.7,3.9-6,7.2-9.5,10.4c-3.4,3.1-7.6,6.7-11.8,9.4C272.6,377.2,278.5,368.3,282.4,363.5z M293.2,302.7c4,5-3.3,11.6-6.8,14.5c-4.3,3.5-10.2,7.5-15.9,8.3C272,317.2,283.3,290.4,293.2,302.7z M220.3,294.9c0-0.1-0.1-0.2-0.1-0.3c-0.3-1.5-0.2-2.9,0.8-3.7c2.4-2,7.6,0.3,9.7,1.8c6.9,5.1,12.4,12.1,13.4,20.5C233.9,311.3,223.8,304.6,220.3,294.9z M226.8,368.6c-4.4-4-9.2-9.4-11-15.2c-0.4-1.3-1.2-2.3-2.1-2.8c-0.9-2.2-1.9-5.7,0.8-5.5c4.2,0.3,7.6,2.4,10.6,5.2c5.2,5,11,15,9.9,22.5c0,0.2-0.3,0.8-0.4,1.2c-0.1,0-0.1,0-0.2,0C231.5,372.8,229.1,370.6,226.8,368.6z M242.8,417.9c0,0.4-0.4,1.1-0.4,1.3c-0.1,0-0.3-0.1-0.6-0.1c-2.9-0.4-5.8-2.2-8.2-3.9c-5.2-3.5-11-8.1-14-13.7c-1-1.9-2.5-2.6-4.1-2.6c0.6-1.4,0.6-3.1-0.4-4.8c1.1-0.6,2.5-0.7,3.7-0.8c3.3-0.4,6.2-0.5,8.9,1.5C234.5,399.5,243.6,409,242.8,417.9z M257.2,279.2c-1.8-0.3-2.3-2.4-2.4-4.6c2.2-0.6,3.8-2.5,3.3-5.4c-1.3-7.3-3.7-14.8-3.2-22.3c0.1-1.9,0.2-5.1,2.7-4.9c4,0.3,5.8,2.5,7,6.2c2.2,7.2,0.8,17.6-1.2,24.7C262.6,275.5,260.2,279.7,257.2,279.2z M299.2,406.7c0.1,1-2,4.1-3.6,6c-2.7,3.1-6,5.6-9.3,8c-3.5,2.5-7.2,4.7-10.9,6.7c-0.7,0.4-1.4,0.7-2.2,1.1c2.1-6.7,6-13.1,10.5-18.2c2.7-3,6.1-5.7,10.3-5.9c1.6-0.1,3.1,0.7,4.5,1.5C299.4,406.3,299.1,406.4,299.2,406.7z"/><path fill="none" stroke="#231F20" stroke-miterlimit="10" d="M309.5,402.9c-1.6-5.1-7.2-8-12-9.2c-6.3-1.6-13,1.4-17.9,5.3c-6.6,5.3-12.2,13.4-15.6,22v-30.4c0-0.4,0-0.7,0-1.1c0.1,0.1,0.1,0.3,0.2,0.4c0.1,0.1,0.1,0.3,0.2,0.4c-1.5,3.8,1.8,9.3,6.8,7.5c10-3.6,19.2-12,26.5-19.4c6.8-6.9,16.1-19.4,8.5-29c-9.2-11.6-24.1-2.6-31.5,5.9c-4.2,4.8-8.7,11.8-10.8,19.1c-0.2-14.8-0.6-29.6-0.9-44.4c0.3,0.1,0.7,0.2,1.1,0.3c-0.2,3,1.8,6.4,5.7,6.2c16.2-0.5,46.1-23.1,31.8-40.8c-14.8-18.4-31.8,0.5-38.9,17.4c-0.1-6.6-0.2-13.3-0.2-19.9c0-1.6-0.5-2.7-1.4-3.5c1.9-0.5,3.8-1.4,5.4-2.7c5.8-4.4,7.6-11.4,8.6-18.3c0.9-6.6,1.6-13.3,0.6-19.9c-1-6.6-4-12.4-9.9-15.8c-0.4-0.2-0.8-0.4-1.2-0.6c2-0.8,3.7-2.6,3.7-5.3v-34.5c0-7.1-11-6.2-11,0.8V228c0,1.3,0.4,2.3,1,3.1c-3.8-0.1-7.7,1.3-10.5,3.9c-0.8,0.8-1.5,1.7-2,2.6c0-0.5-0.1-0.9-0.3-1.4c-2.9-8.8-5.5-17.8-5.7-27.1c-0.1-7.1-11.1-6.2-11,0.8c0.2,10.2,3.1,20.2,6.3,29.9c1.5,4.5,6.7,4.4,9.2,1.7c-0.8,3.5-0.7,7.4-0.5,10.5c0.3,4.4,1.2,8.7,2.1,13c-0.7,0.5-1.3,1.2-1.6,2.1c-1.3-3.2-3.1-6-5.5-8.8c-3.7-4.2-8.1-7.8-9.8-13.3c-2.2-6.7-12.6-3.1-10.4,3.6c1.6,4.8,4.4,8.5,7.7,12.2c3.1,3.5,7.6,7,8.5,11.9c0.9,4.7,6.2,5.8,9.1,3.9c0.6,4.1,2.2,8,5.8,10.7c1.2,0.9,2.5,1.6,3.9,2c-1.3,1-2.2,2.5-2.2,4.5c0,2.2,0,4.5,0,6.7c-3.9-8.9-11-16.3-20.1-19.9c-4.2-1.6-9.2-2.3-13.5-0.8c-0.3-0.4-0.6-0.8-0.9-1.1c-2.5-2.5-5-5-7.5-7.5l-1.1-1.1c-2.1-2.1-5.9-1.6-7.8,0.5c-2.1,2.4-1.6,5.6,0.5,7.8c2.9,2.9,5.7,5.7,8.6,8.6c0.1,0.1,0.3,0.3,0.5,0.4c-1.1,2.8-1.2,5.9-0.7,8.9c0,0.6,0.1,1.3,0.4,2c0,0.1,0.1,0.2,0.1,0.3c0.4,1.5,0.8,2.9,1.4,4.2c0.5,1.1,1.2,2,2,2.5c7.8,12,22.4,18.8,36.6,19.1c0.6,0,1.3-0.2,2-0.5c0.4,22.4,1.1,44.8,1.1,67.2v19.2c-1.5-6-5.8-11.6-9.6-16c-3.1-3.5-6.9-7.6-11.3-10.1c2,0.5,4.2,0.5,6.4-0.1c5.3-1.5,7.6-8.2,7.5-13.1c-0.4-13.2-9.1-27.8-20.5-34.3c-5.5-3.1-13.6-4.3-18.9-0.4c-6.1,4.4-5.5,12.9-2.8,19c0.4,1,1.1,1.7,1.8,2.2c3.1,9.1,11.3,18,19.1,23.2c0.9,0.6,1.8,1.2,2.8,1.7c-0.3-0.1-0.5-0.1-0.8-0.2c-10.8-1.8-29.1,3.7-20.7,17.7c1.1,1.8,2.7,2.5,4.3,2.5c-0.6,1.5-0.7,3.2,0.2,5c4.6,8.6,14.7,16.2,23.4,20.3c4.8,2.3,9.8,3,14.6,0.5c2.5-1.3,3.9-3.7,4.6-6.4v29.7c0,7.1,11,6.2,11-0.8v-10.8c1,1,2.4,1.6,4.3,1.3c9.6-1.6,18.9-7.8,26.5-13.6C302.3,422.4,312.7,413.3,309.5,402.9z M282.4,363.5c2.3-2.8,13.3-13.4,15.7-6.3c0.5,1.4-1.6,5.3-2.8,7.2c-2.7,3.9-6,7.2-9.5,10.4c-3.4,3.1-7.6,6.7-11.8,9.4C272.6,377.2,278.5,368.3,282.4,363.5z M293.2,302.7c4,5-3.3,11.6-6.8,14.5c-4.3,3.5-10.2,7.5-15.9,8.3C272,317.2,283.3,290.4,293.2,302.7z M220.3,294.9c0-0.1-0.1-0.2-0.1-0.3c-0.3-1.5-0.2-2.9,0.8-3.7c2.4-2,7.6,0.3,9.7,1.8c6.9,5.1,12.4,12.1,13.4,20.5C233.9,311.3,223.8,304.6,220.3,294.9z M226.8,368.6c-4.4-4-9.2-9.4-11-15.2c-0.4-1.3-1.2-2.3-2.1-2.8c-0.9-2.2-1.9-5.7,0.8-5.5c4.2,0.3,7.6,2.4,10.6,5.2c5.2,5,11,15,9.9,22.5c0,0.2-0.3,0.8-0.4,1.2c-0.1,0-0.1,0-0.2,0C231.5,372.8,229.1,370.6,226.8,368.6z M242.8,417.9c0,0.4-0.4,1.1-0.4,1.3c-0.1,0-0.3-0.1-0.6-0.1c-2.9-0.4-5.8-2.2-8.2-3.9c-5.2-3.5-11-8.1-14-13.7c-1-1.9-2.5-2.6-4.1-2.6c0.6-1.4,0.6-3.1-0.4-4.8c1.1-0.6,2.5-0.7,3.7-0.8c3.3-0.4,6.2-0.5,8.9,1.5C234.5,399.5,243.6,409,242.8,417.9z M257.2,279.2c-1.8-0.3-2.3-2.4-2.4-4.6c2.2-0.6,3.8-2.5,3.3-5.4c-1.3-7.3-3.7-14.8-3.2-22.3c0.1-1.9,0.2-5.1,2.7-4.9c4,0.3,5.8,2.5,7,6.2c2.2,7.2,0.8,17.6-1.2,24.7C262.6,275.5,260.2,279.7,257.2,279.2z M299.2,406.7c0.1,1-2,4.1-3.6,6c-2.7,3.1-6,5.6-9.3,8c-3.5,2.5-7.2,4.7-10.9,6.7c-0.7,0.4-1.4,0.7-2.2,1.1c2.1-6.7,6-13.1,10.5-18.2c2.7-3,6.1-5.7,10.3-5.9c1.6-0.1,3.1,0.7,4.5,1.5C299.4,406.3,299.1,406.4,299.2,406.7z"/></g><g><path fill="#231F20" d="M284.5,216c-0.2,8-4,15.4-6.9,22.6c-2.7,6.5,7.2,11.5,9.9,4.9c3.8-9.3,7.8-18.2,8.1-28.4C295.6,208.1,284.7,209,284.5,216z"/><path fill="none" stroke="#231F20" stroke-miterlimit="10" d="M284.5,216c-0.2,8-4,15.4-6.9,22.6c-2.7,6.5,7.2,11.5,9.9,4.9c3.8-9.3,7.8-18.2,8.1-28.4C295.6,208.1,284.7,209,284.5,216z"/></g><g><path fill="#231F20" d="M295.5,249.1c-5.9,8.9-11.2,18.1-18.7,25.8c-5,5.1,3.3,12.3,8.3,7.3c8.1-8.3,13.9-18.5,20.3-28.2C309.3,248.1,299.4,243.3,295.5,249.1z"/><path fill="none" stroke="#231F20" stroke-miterlimit="10" d="M295.5,249.1c-5.9,8.9-11.2,18.1-18.7,25.8c-5,5.1,3.3,12.3,8.3,7.3c8.1-8.3,13.9-18.5,20.3-28.2C309.3,248.1,299.4,243.3,295.5,249.1z"/></g><g><path fill="#231F20" d="M317.6,271.5c-2.4-2.1-5.6-1.6-7.8,0.5c-3,3-6,6-9,9c-2.1,2.1-1.6,5.9,0.5,7.8c2.4,2.1,5.6,1.6,7.8-0.5c3-3,6-6,9-9C320.2,277.1,319.7,273.3,317.6,271.5z"/><path fill="none" stroke="#231F20" stroke-miterlimit="10" d="M317.6,271.5c-2.4-2.1-5.6-1.6-7.8,0.5c-3,3-6,6-9,9c-2.1,2.1-1.6,5.9,0.5,7.8c2.4,2.1,5.6,1.6,7.8-0.5c3-3,6-6,9-9C320.2,277.1,319.7,273.3,317.6,271.5z"/></g></svg>