<svg xmlns="http://www.w3.org/2000/svg" viewBox="0 0 40 40"><path fill="#dff0fe" d="M31.061,34.945l-2.86-1.558C30.36,29.282,31.5,24.664,31.5,20c0-4.608-1.056-9.011-3.139-13.085 c-0.051-0.1-0.104-0.197-0.159-0.294l3.543-1.862c2.458,4.686,3.755,9.959,3.755,15.284c0,5.315-1.293,10.581-3.744,15.261 L31.061,34.945z"/><path fill="#4788c7" d="M31.531,5.435C33.803,9.936,35,14.965,35,20.042c0,5.068-1.194,10.091-3.46,14.588l-0.229-0.118 l-2.442-1.33C30.92,29.115,32,24.58,32,20c0-4.634-1.05-9.065-3.122-13.171L31.531,5.435 M31.952,4.084l-4.438,2.334 c0.133,0.242,0.276,0.478,0.402,0.725C29.888,11,31,15.37,31,20c0,4.926-1.261,9.556-3.475,13.589l3.307,1.801l1.133,0.583 C34.538,31.237,36,25.81,36,20.042C36,14.263,34.533,8.826,31.952,4.084L31.952,4.084z"/><path fill="#dff0fe" d="M18.62,28.547c-0.824-1.675-2.12-4.89-2.12-8.547s1.295-6.872,2.12-8.547l3.417-1.757 C22.917,11.707,24.5,15.895,24.5,20c0,4.158-1.681,8.504-2.465,10.304L18.62,28.547z"/><path fill="#4788c7" d="M21.786,10.387C22.611,12.373,24,16.273,24,20c0,3.727-1.389,7.627-2.214,9.613l-2.789-1.435 C18.191,26.508,17,23.453,17,20s1.191-6.508,1.996-8.179L21.786,10.387 M22.276,9.01l-4.031,2.073C17.357,12.851,16,16.166,16,20 c0,3.834,1.357,7.149,2.245,8.917l4.031,2.073C23.014,29.382,25,24.627,25,20S23.014,10.618,22.276,9.01L22.276,9.01z"/><path fill="none" stroke="#4788c7" stroke-linecap="round" stroke-miterlimit="10" d="M36.5 38L2 20 36.5 2"/></svg>