<?xml version="1.0"?><svg xmlns="http://www.w3.org/2000/svg" viewBox="0 0 30 30">    <path d="M 17.046875 3 C 10.769875 3 10.066219 10.011 9.6992188 12 L 6.4316406 12 L 6.015625 14 L 9.3535156 14 C 7.4985156 25.024 6.7040625 25.78125 5.7890625 25.78125 C 4.9590625 23.45825 4.3556563 22.714844 3.0976562 22.714844 C 1.3336562 22.714844 0.97460938 24.169703 0.97460938 24.720703 C 0.97460937 25.958703 2 27 4 27 C 11.403 27 11.992344 20.927 13.152344 14 L 16.568359 14 L 16.986328 12 L 13.457031 12 C 13.828031 9.124 14.227313 4.96475 15.320312 4.21875 C 15.501312 4.69875 16.167625 7.2851563 18.015625 7.2851562 C 20.001625 7.2851562 20.167969 5.4328437 20.167969 5.2148438 C 20.165969 4.5508438 19.791875 3 17.046875 3 z M 21.339844 16 C 20.316844 16 19.018219 16.619953 18.449219 16.876953 L 18.240234 17.746094 C 18.398234 17.688094 19.141844 17.457031 19.464844 17.457031 C 20.596844 17.457031 20.786984 17.978125 21.333984 19.828125 C 21.462984 20.265125 21.639609 20.909578 21.849609 21.767578 C 21.615609 22.100578 20.854766 22.975734 20.759766 23.052734 C 20.512766 22.962734 19.740656 22.697266 19.097656 22.697266 C 17.629656 22.697266 17.285156 23.971016 17.285156 24.541016 C 17.285156 25.050016 17.636734 26 18.677734 26 C 20.154734 26 20.576688 24.835859 22.054688 22.630859 C 22.444688 24.214859 22.540078 26 24.955078 26 C 25.988078 26 27.21875 25.498516 27.84375 25.228516 L 28.052734 24.359375 C 28.052734 24.359375 27.355078 24.646484 26.830078 24.646484 C 25.309078 24.646484 25.324781 23.536422 24.425781 20.232422 C 24.671781 19.893422 25.323203 19.047203 25.533203 18.908203 C 25.748203 18.984203 26.520406 19.253906 27.191406 19.253906 C 27.696406 19.253906 29 18.928687 29 17.429688 C 29 16.912687 28.691422 16 27.607422 16 C 25.892422 16 25.013844 18.353906 24.214844 19.378906 C 23.779844 17.201906 23.322844 16 21.339844 16 z"/></svg>