<svg xmlns="http://www.w3.org/2000/svg" viewBox="0 0 64 64"><path d="M 54.484375 0.27148438 C 54.228625 0.27148438 53.972844 0.36895313 53.777344 0.56445312 L 44.292969 10.050781 C 43.901969 10.441781 43.901969 11.073844 44.292969 11.464844 L 45.707031 12.878906 L 44.625 13.960938 L 37.3125 13.296875 C 36.8285 13.257875 36.371953 13.572781 36.251953 14.050781 L 33.423828 25.363281 C 33.338828 25.704281 33.4385 26.0635 33.6875 26.3125 C 33.8775 26.5025 34.132531 26.605469 34.394531 26.605469 C 34.475531 26.605469 34.556672 26.596172 34.638672 26.576172 L 45.951172 23.748047 C 46.429172 23.628047 46.747125 23.1785 46.703125 22.6875 L 46.039062 15.375 L 47.121094 14.292969 L 48.535156 15.707031 C 48.730156 15.902031 48.986187 16 49.242188 16 C 49.498187 16 49.753219 15.902031 49.949219 15.707031 L 59.435547 6.2226562 C 59.826547 5.8316563 59.826547 5.1995938 59.435547 4.8085938 L 55.191406 0.56445312 C 54.995906 0.36895312 54.740125 0.27148438 54.484375 0.27148438 z M 54.484375 2.6855469 L 57.314453 5.515625 L 49.242188 13.585938 L 46.414062 10.757812 L 54.484375 2.6855469 z M 37.984375 15.365234 L 44.080078 15.919922 L 44.634766 22.015625 L 35.767578 24.232422 L 37.984375 15.365234 z M 22 29 C 21.448 29 21 29.448 21 30 L 21 39 L 12 39 C 11.448 39 11 39.448 11 40 L 11 49 L 2 49 C 1.448 49 1 49.448 1 50 L 1 60 C 1 60.552 1.448 61 2 61 L 22 61 L 42 61 L 62 61 C 62.552 61 63 60.552 63 60 L 63 50 C 63 49.448 62.552 49 62 49 L 53 49 L 53 40 C 53 39.448 52.552 39 52 39 L 43 39 L 43 30 C 43 29.448 42.552 29 42 29 L 22 29 z M 23 31 L 41 31 L 41 39 L 32 39 L 23 39 L 23 31 z M 13 41 L 31 41 L 31 49 L 22 49 L 13 49 L 13 41 z M 33 41 L 42 41 L 51 41 L 51 49 L 42 49 L 33 49 L 33 41 z M 37 44 C 36.448 44 36 44.448 36 45 C 36 45.552 36.448 46 37 46 L 41 46 C 41.552 46 42 45.552 42 45 C 42 44.448 41.552 44 41 44 L 37 44 z M 45 44 C 44.448 44 44 44.448 44 45 C 44 45.552 44.448 46 45 46 L 47 46 C 47.552 46 48 45.552 48 45 C 48 44.448 47.552 44 47 44 L 45 44 z M 3 51 L 12 51 L 21 51 L 21 59 L 3 59 L 3 51 z M 23 51 L 32 51 L 41 51 L 41 59 L 23 59 L 23 51 z M 43 51 L 52 51 L 61 51 L 61 59 L 43 59 L 43 51 z M 7 53.027344 C 6.447 53.027344 6 53.475344 6 54.027344 L 6 56.027344 C 6 56.579344 6.447 57.027344 7 57.027344 C 7.553 57.027344 8 56.579344 8 56.027344 L 8 54.027344 C 8 53.475344 7.553 53.027344 7 53.027344 z M 12 53.027344 C 11.447 53.027344 11 53.475344 11 54.027344 L 11 56.027344 C 11 56.579344 11.447 57.027344 12 57.027344 C 12.553 57.027344 13 56.579344 13 56.027344 L 13 54.027344 C 13 53.475344 12.553 53.027344 12 53.027344 z M 17 53.027344 C 16.447 53.027344 16 53.475344 16 54.027344 L 16 56.027344 C 16 56.579344 16.447 57.027344 17 57.027344 C 17.553 57.027344 18 56.579344 18 56.027344 L 18 54.027344 C 18 53.475344 17.553 53.027344 17 53.027344 z M 27 53.027344 C 26.447 53.027344 26 53.475344 26 54.027344 L 26 56.027344 C 26 56.579344 26.447 57.027344 27 57.027344 C 27.553 57.027344 28 56.579344 28 56.027344 L 28 54.027344 C 28 53.475344 27.553 53.027344 27 53.027344 z M 32 53.027344 C 31.447 53.027344 31 53.475344 31 54.027344 L 31 56.027344 C 31 56.579344 31.447 57.027344 32 57.027344 C 32.553 57.027344 33 56.579344 33 56.027344 L 33 54.027344 C 33 53.475344 32.553 53.027344 32 53.027344 z M 37 53.027344 C 36.447 53.027344 36 53.475344 36 54.027344 L 36 56.027344 C 36 56.579344 36.447 57.027344 37 57.027344 C 37.553 57.027344 38 56.579344 38 56.027344 L 38 54.027344 C 38 53.475344 37.553 53.027344 37 53.027344 z M 47 53.027344 C 46.447 53.027344 46 53.475344 46 54.027344 L 46 56.027344 C 46 56.579344 46.447 57.027344 47 57.027344 C 47.553 57.027344 48 56.579344 48 56.027344 L 48 54.027344 C 48 53.475344 47.553 53.027344 47 53.027344 z M 52 53.027344 C 51.447 53.027344 51 53.475344 51 54.027344 L 51 56.027344 C 51 56.579344 51.447 57.027344 52 57.027344 C 52.553 57.027344 53 56.579344 53 56.027344 L 53 54.027344 C 53 53.475344 52.553 53.027344 52 53.027344 z M 57 53.027344 C 56.447 53.027344 56 53.475344 56 54.027344 L 56 56.027344 C 56 56.579344 56.447 57.027344 57 57.027344 C 57.553 57.027344 58 56.579344 58 56.027344 L 58 54.027344 C 58 53.475344 57.553 53.027344 57 53.027344 z"/></svg>