<svg xmlns="http://www.w3.org/2000/svg" viewBox="0 0 24 24"><path d="M 18.101563 2.898438 C 17.800781 2.898438 16.898438 2.800781 17 6.800781 C 17 8.800781 16.699219 10.699219 16.398438 10.699219 C 16 10.699219 16 8.5 16 6.199219 C 16 1.199219 15.199219 1 14.601563 1 C 14 1 13.199219 0.800781 13.300781 6.300781 C 13.398438 8.398438 13 10.398438 12.800781 10.398438 C 12.300781 10.398438 12.101563 6.398438 12.101563 3.898438 C 12.101563 1.101563 12 0.101563 11 0.101563 C 10.199219 0.101563 9.5 0 9.5 3.699219 C 9.5 6.601563 10.101563 10.5 9.800781 10.5 C 9.398438 10.601563 9.101563 8.898438 8.601563 6.199219 C 7.898438 2.300781 7.5 1.601563 6.601563 1.699219 C 5.699219 1.800781 5.601563 2.300781 6.101563 6.398438 C 6.5 9.199219 6.800781 12.800781 6.800781 13.5 C 6.898438 14.800781 4 15.199219 4.101563 17.300781 C 4.101563 18.199219 4.601563 19.101563 6.398438 21.300781 C 7.601563 22.699219 8.601563 23.699219 8.699219 24.101563 L 16.800781 24.101563 C 16.800781 22.101563 18.398438 22.101563 18.699219 16.300781 C 19.398438 2.699219 18.699219 2.898438 18.101563 2.898438 Z"/></svg>