<svg xmlns="http://www.w3.org/2000/svg" viewBox="0 0 100 100"><path d="M 31 17 C 23.27961 17 17 23.27961 17 31 L 17 69 C 17 76.72039 23.27961 83 31 83 L 69 83 C 76.72039 83 83 76.72039 83 69 L 83 31 C 83 23.27961 76.72039 17 69 17 L 31 17 z M 31 19 L 69 19 C 75.63961 19 81 24.36039 81 31 L 81 69 C 81 75.63961 75.63961 81 69 81 L 31 81 C 24.36039 81 19 75.63961 19 69 L 19 31 C 19 24.36039 24.36039 19 31 19 z M 34.099609 23 C 27.975367 23 23 27.975367 23 34.099609 L 23 65.900391 C 23 72.024633 27.975367 77 34.099609 77 L 65.900391 77 C 72.024633 77 77 72.024633 77 65.900391 L 77 51.5 A 0.50005 0.50005 0 1 0 76 51.5 L 76 65.900391 C 76 71.484148 71.484148 76 65.900391 76 L 34.099609 76 C 28.515852 76 24 71.484148 24 65.900391 L 24 34.099609 C 24 28.515852 28.515852 24 34.099609 24 L 60.5 24 A 0.50005 0.50005 0 1 0 60.5 23 L 34.099609 23 z M 42.896484 36 C 42.540484 36 42.222359 36.191219 41.943359 36.574219 C 41.943359 36.574219 38.487578 41.353922 38.392578 41.544922 C 38.296578 41.736922 38.248047 41.941203 38.248047 42.158203 C 38.248047 42.464203 38.343203 42.727359 38.533203 42.943359 C 38.724203 43.160359 38.958281 43.267578 39.238281 43.267578 C 39.518281 43.267578 39.758891 43.114594 39.962891 42.808594 L 41.486328 40.322266 L 41.486328 63.005859 C 41.486328 63.311859 41.605656 63.554422 41.847656 63.732422 C 42.088656 63.911422 42.386187 64 42.742188 64 C 43.072187 64 43.365141 63.910422 43.619141 63.732422 C 43.873141 63.554422 44 63.311859 44 63.005859 L 44 36.957031 C 44 36.676031 43.886203 36.446578 43.658203 36.267578 C 43.429203 36.089578 43.175484 36 42.896484 36 z M 57.644531 36 C 57.109531 36 56.714938 36.254672 56.460938 36.763672 L 46.857422 55.683594 C 46.755422 55.862594 46.705078 56.078984 46.705078 56.333984 C 46.705078 57.001984 47.035219 57.334938 47.699219 57.335938 L 57.474609 57.335938 L 57.474609 62.992188 C 57.474609 63.302188 57.596844 63.547516 57.839844 63.728516 C 58.080844 63.909516 58.379328 64 58.736328 64 C 59.067328 64 59.362187 63.909516 59.617188 63.728516 C 59.872187 63.548516 60 63.302188 60 62.992188 L 60 57.335938 L 62.044922 57.335938 C 62.324922 57.335938 62.553422 57.219375 62.732422 56.984375 C 62.910422 56.749375 63 56.470438 63 56.148438 C 63 55.851437 62.917953 55.586562 62.751953 55.351562 C 62.585953 55.116562 62.351922 55 62.044922 55 L 60 55 L 60 47.537109 C 60 47.228109 59.872188 46.990266 59.617188 46.822266 C 59.362187 46.654266 59.067328 46.572266 58.736328 46.572266 C 57.895328 46.572266 57.474609 46.893109 57.474609 47.537109 L 57.474609 55 L 49.919922 55 L 58.753906 37.53125 C 58.830906 37.35325 58.869141 37.186203 58.869141 37.033203 C 58.869141 36.752203 58.73675 36.511641 58.46875 36.306641 C 58.20075 36.102641 57.924531 36 57.644531 36 z M 76.492188 38.992188 A 0.50005 0.50005 0 0 0 76 39.5 L 76 41.5 A 0.50005 0.50005 0 1 0 77 41.5 L 77 39.5 A 0.50005 0.50005 0 0 0 76.492188 38.992188 z M 76.492188 43.992188 A 0.50005 0.50005 0 0 0 76 44.5 L 76 48.5 A 0.50005 0.50005 0 1 0 77 48.5 L 77 44.5 A 0.50005 0.50005 0 0 0 76.492188 43.992188 z"/></svg>