<svg xmlns="http://www.w3.org/2000/svg" viewBox="0 0 16 16"><path d="M 12.535156 1.003906 C 12.535156 1.003906 11.597656 0.9375 10.566406 1.46875 C 9.597656 1.96875 8.542969 3.03125 7.996094 5 L 6.5 5 C 6.320313 5 6.152344 5.09375 6.0625 5.25 C 5.96875 5.40625 5.96875 5.597656 6.0625 5.753906 C 6.152344 5.910156 6.320313 6.003906 6.5 6 L 7.742188 6 C 7.078125 8.9375 6.636719 10.839844 6.121094 11.792969 C 5.839844 12.304688 5.566406 12.570313 5.183594 12.746094 C 4.800781 12.921875 4.261719 13 3.5 13 C 3.320313 13 3.152344 13.09375 3.0625 13.25 C 2.96875 13.40625 2.96875 13.597656 3.0625 13.753906 C 3.152344 13.910156 3.320313 14.003906 3.5 14 C 4.328125 14 5.007813 13.925781 5.601563 13.65625 C 6.191406 13.382813 6.648438 12.914063 7 12.269531 C 7.667969 11.042969 8.078125 9.089844 8.773438 6 L 10.5 6 C 10.679688 6.003906 10.847656 5.910156 10.9375 5.753906 C 11.03125 5.597656 11.03125 5.40625 10.9375 5.25 C 10.847656 5.09375 10.679688 5 10.5 5 L 9.03125 5 C 9.515625 3.441406 10.320313 2.722656 11.027344 2.359375 C 11.5625 2.082031 11.753906 2.128906 12 2.117188 L 12 2.5 C 11.996094 2.683594 12.09375 2.851563 12.246094 2.941406 C 12.402344 3.03125 12.597656 3.03125 12.753906 2.941406 C 12.90625 2.851563 13.003906 2.683594 13 2.5 L 13 1.5 C 13 1.242188 12.796875 1.023438 12.535156 1.003906 Z"/></svg>