<svg xmlns="http://www.w3.org/2000/svg" xmlns:xlink="http://www.w3.org/1999/xlink" viewBox="0 0 100 100"><path fill="#fff" d="M20.4 55.6A.9.9 0 1 0 20.4 57.4.9.9 0 1 0 20.4 55.6zM79.4 30.900000000000002A.7.7 0 1 0 79.4 32.300000000000004.7.7 0 1 0 79.4 30.900000000000002z"/><path fill="#f1bc19" d="M76.8 11.7A.9.9 0 1 0 76.8 13.5.9.9 0 1 0 76.8 11.7zM20.9 63.300000000000004A.9.9 0 1 0 20.9 65.10000000000001.9.9 0 1 0 20.9 63.300000000000004z"/><path fill="#e4e4f9" d="M49.7 12.299999999999997A37.5 37.5 0 1 0 49.7 87.3A37.5 37.5 0 1 0 49.7 12.299999999999997Z"/><path fill="#f1bc19" d="M82.3 10.7A4 4 0 1 0 82.3 18.7A4 4 0 1 0 82.3 10.7Z"/><path fill="#ee3e54" d="M86.3 21.900000000000002A1.9 1.9 0 1 0 86.3 25.7A1.9 1.9 0 1 0 86.3 21.900000000000002Z"/><path fill="#fbcd59" d="M77.3 74.3A1.9 1.9 0 1 0 77.3 78.10000000000001 1.9 1.9 0 1 0 77.3 74.3zM14.1 59.3A4 4 0 1 0 14.1 67.3 4 4 0 1 0 14.1 59.3z"/><path fill="#ee3e54" d="M24.3 85.5A1.9 1.9 0 1 0 24.3 89.30000000000001A1.9 1.9 0 1 0 24.3 85.5Z"/><path fill="#fff" d="M22.5 64.8A2.5 2.5 0 1 0 22.5 69.8A2.5 2.5 0 1 0 22.5 64.8Z"/><path fill="#cbc9bc" d="M67,28.7v4c0,0.4-0.3,0.8-0.8,0.8h-0.8c-0.4,0-0.8-0.3-0.8-0.8v-4c0-0.4,0.3-0.8,0.8-0.8h0.8 C66.7,27.9,67,28.3,67,28.7z"/><path fill="#472b29" d="M66.3,33.8h-0.8c-0.6,0-1.1-0.5-1.1-1.1v-4c0-0.6,0.5-1.1,1.1-1.1h0.8c0.6,0,1.1,0.5,1.1,1.1v4 C67.4,33.3,66.9,33.8,66.3,33.8z M65.4,28.3c-0.2,0-0.4,0.2-0.4,0.4v4c0,0.2,0.2,0.4,0.4,0.4h0.8c0.2,0,0.4-0.2,0.4-0.4v-4 c0-0.2-0.2-0.4-0.4-0.4H65.4z"/><path fill="#e1e0d8" d="M39.5,22H60c2.8,0,5,2.2,5,5v45.5c0,2.8-2.2,5-5,5H39.5c-2.8,0-5-2.2-5-5V27 C34.5,24.3,36.8,22,39.5,22z"/><path fill="#472b29" d="M60,78.3H39.5c-3.1,0-5.7-2.6-5.7-5.7V27c0-3.1,2.6-5.7,5.7-5.7H60c3.1,0,5.7,2.6,5.7,5.7v45.5 C65.7,75.7,63.2,78.3,60,78.3z M39.5,22.8c-2.4,0-4.3,1.9-4.3,4.3v45.5c0,2.4,1.9,4.3,4.3,4.3H60c2.4,0,4.3-1.9,4.3-4.3V27 c0-2.4-1.9-4.3-4.3-4.3H39.5z"/><path fill="#c0e5e4" d="M61.9 36.1L61.9 68.2 38.5 68.2 38.5 61.2 38.5 53.3 38.5 29.1 58.8 29.1 61.9 29.1z"/><path fill="#cbc9bc" d="M49.4 70.1A2 2 0 1 0 49.4 74.1A2 2 0 1 0 49.4 70.1Z"/><path fill="#472b29" d="M49.4 74.4c-1.3 0-2.3-1-2.3-2.3s1-2.3 2.3-2.3 2.3 1 2.3 2.3S50.7 74.4 49.4 74.4zM49.4 70.5c-.9 0-1.6.7-1.6 1.6s.7 1.6 1.6 1.6S51 73 51 72.1 50.3 70.5 49.4 70.5zM46.6 25.2h6.3c.2 0 .4.2.4.4v0c0 .2-.2.4-.4.4h-6.3c-.2 0-.4-.2-.4-.4v0C46.3 25.3 46.4 25.2 46.6 25.2zM61.5 31.4c-.2 0-.4-.2-.4-.4v-2.3c0-.2.2-.4.4-.4s.4.2.4.4V31C61.9 31.3 61.7 31.4 61.5 31.4zM61.5 33c0 0-.1 0-.1 0 0 0-.1-.1-.1-.1-.1-.1-.1-.2-.1-.3s0-.2.1-.3c.1-.1.4-.1.5 0 .1.1.1.2.1.3 0 0 0 .1 0 .1 0 0-.1.1-.1.1C61.7 32.9 61.6 33 61.5 33zM38.1 59.6c-.2 0-.4-.2-.4-.4v-1.6c0-.2.2-.4.4-.4s.4.2.4.4v1.6C38.4 59.4 38.3 59.6 38.1 59.6z"/><defs><path id="HMj4ljz~Y~F27EOqtvwtda" d="M61.5 35.8L61.5 67.9 38.1 67.9 38.1 56.3 38.1 68.6 38.1 28.8 58.4 28.8 61.5 28.8z"/></defs><clipPath id="HMj4ljz~Y~F27EOqtvwtdb"><use overflow="visible" xlink:href="#HMj4ljz~Y~F27EOqtvwtda"/></clipPath><g clip-path="url(#HMj4ljz~Y~F27EOqtvwtdb)"><path fill="#472b29" d="M39.3,64.8c0.3,0.1,0.6,0.1,0.9-0.1h0.1c0,0,0,0,0,0.1c0.1,0.2,0.3,0.3,0.4,0.5l0.1,0.1 c0.2,0.2,0.5,0.3,0.8,0.3H42v0.2c0,0.2,0.1,0.4,0.3,0.6c0.1,0.2,0.3,0.3,0.4,0.4l0.1,0.1c0.2,0.2,0.5,0.3,0.8,0.3H44l0.3-0.1 v0.2c0.1,0.3,0.2,0.6,0.5,0.9c0.1,0.1,0.3,0.2,0.5,0.2c0.2,0,0.3,0,0.5,0c0.2,0,0.3-0.1,0.5-0.2c0.2-0.1,0.3-0.2,0.4-0.3 l0.1-0.1l0,0c0.2,0.3,0.4,0.6,0.7,0.8c0.8,0.5,1.9,0.2,2.4-0.5l0.1,0.1c0.8,0.6,2,0.5,2.7-0.3c0.2-0.2,0.3-0.5,0.3-0.7 c0.7,0.2,1.5-0.1,1.9-0.7c0.1-0.2,0.2-0.4,0.2-0.6h0.4c0.3,0,0.7-0.2,0.9-0.5c0.1-0.1,0.2-0.3,0.2-0.5c0-0.2,0-0.4,0-0.5 c0-0.1-0.1-0.2-0.1-0.3c0.3,0,0.6-0.1,0.8-0.2c0.2-0.1,0.3-0.2,0.4-0.4c0.2-0.3,0.2-0.7,0.2-1L57.8,62l0,0 c0.2-0.1,0.4-0.2,0.5-0.4c0.4-0.6,0.4-1.4,0-2c0.2-0.1,0.4-0.3,0.6-0.5c0.5-0.9,0.2-2.1-0.7-2.7l-0.1-0.1 c0.5-0.7,0.4-1.7-0.3-2.3c-0.3-0.2-0.6-0.4-1-0.4l0,0l0.1-0.1c0.1-0.1,0.2-0.3,0.2-0.5c0-0.2,0-0.3,0-0.5 c0-0.2-0.1-0.3-0.2-0.5c-0.1-0.2-0.2-0.3-0.4-0.4c-0.3-0.2-0.7-0.3-1-0.2h-0.2c0-0.1,0-0.2,0-0.3l-0.1-0.4 c-0.1-0.3-0.3-0.5-0.5-0.7l-0.1-0.1c-0.2-0.1-0.4-0.2-0.6-0.3c-0.2-0.1-0.4-0.1-0.6-0.1h-0.2L53,49.4 c-0.1-0.3-0.3-0.5-0.6-0.7l-0.1-0.1c-0.2-0.1-0.4-0.2-0.6-0.3h-0.1c0,0,0-0.1,0-0.1c0-0.3,0-0.6-0.2-0.9 c-0.2-0.2-0.5-0.4-0.8-0.5h-0.3c-0.3-0.1-0.6,0-0.9,0.2c-0.1,0.1-0.2,0.2-0.3,0.3c-0.1,0-0.2-0.1-0.3-0.1c-0.1,0-0.3,0-0.4,0 c-0.1,0-0.3,0.1-0.4,0.2c-0.1,0.1-0.2,0.2-0.3,0.3c0,0,0,0.1,0,0.1c-0.1-0.2-0.3-0.4-0.5-0.6l-0.1-0.1 c-0.1-0.1-0.3-0.2-0.5-0.2c-0.2,0-0.4,0-0.5,0c-0.3,0.1-0.6,0.3-0.8,0.5l-0.2,0.3V48c-0.1-0.1-0.2-0.1-0.3-0.2 c-0.2-0.1-0.4-0.1-0.6-0.1c-0.2,0-0.4,0.1-0.6,0.2c-0.2,0.1-0.4,0.2-0.5,0.3l-0.2,0.3c-0.1,0.1-0.1,0.2-0.1,0.3 c-0.3-0.1-0.6,0-0.8,0.1c-0.2,0.1-0.3,0.2-0.4,0.3l-0.2,0.3c-0.1,0.1-0.1,0.3-0.1,0.5c-0.6-0.1-1.3,0.2-1.6,0.8 c-0.2,0.3-0.4,0.8-0.3,1.2c-0.4,0.1-0.8,0.4-1,0.7c-0.4,0.5-0.5,1.2-0.2,1.8c-0.2,0.1-0.3,0.2-0.4,0.3l-0.2,0.3 c-0.1,0.3-0.2,0.7-0.1,1c0,0.1,0.1,0.2,0.1,0.3c-0.1,0.1-0.2,0.1-0.3,0.2l-0.2,0.3c-0.1,0.2-0.2,0.4-0.2,0.6 c0,0.2,0,0.4,0,0.6c0.1,0.2,0.2,0.4,0.3,0.5c0.1,0.1,0.2,0.2,0.3,0.3l-0.1,0.1l-0.2,0.3c-0.1,0.1-0.2,0.3-0.2,0.5 c0,0.2,0,0.3,0,0.5c0,0.2,0.1,0.3,0.2,0.5c0.1,0.2,0.2,0.3,0.4,0.4l0.1,0.1c0.2,0.1,0.4,0.2,0.7,0.2l-0.1,0.1 c-0.1,0.1-0.1,0.2-0.2,0.4c0,0.1,0,0.3,0,0.4c0,0.1,0.1,0.3,0.1,0.4c0,0.1,0.1,0.2,0.2,0.2c-0.1,0.1-0.1,0.2-0.2,0.3 c-0.1,0.3,0,0.6,0.1,0.9l0.1,0.2C38.8,64.5,39,64.7,39.3,64.8z"/><path fill="#472b29" d="M38.6,39c0.1,0.3,0.3,0.6,0.6,0.7h0.1c0,0,0,0,0,0.1c-0.1,0.2-0.1,0.4-0.1,0.6v0.1 c0,0.3,0.1,0.6,0.2,0.8l0.3,0.3l-0.1,0.1c-0.1,0.1-0.3,0.3-0.3,0.5c-0.1,0.2-0.1,0.4-0.1,0.6v0.1c0,0.3,0.1,0.6,0.3,0.8 l0.3,0.3c0.1,0.1,0.1,0.1,0.2,0.2l-0.1,0.1c-0.2,0.2-0.4,0.6-0.4,0.9c0,0.2,0,0.3,0.1,0.5c0,0.2,0.1,0.3,0.3,0.5 c0.1,0.1,0.3,0.2,0.4,0.3c0.2,0.1,0.3,0.1,0.5,0.1h0.2c-0.5,0.9-0.2,1.9,0.7,2.4c0.3,0.1,0.6,0.2,0.9,0.2c0,0,0,0.1,0,0.2 c0,1.1,0.8,2,1.9,2.1c0.3,0,0.6-0.1,0.8-0.2c0.3,0.7,1,1.2,1.8,1.2c0.2,0,0.5-0.1,0.7-0.2l0,0l0.2,0.3c0.3,0.3,0.6,0.4,1,0.5 c0.2,0,0.4,0,0.5-0.1c0.2,0,0.3-0.1,0.5-0.3c0.1-0.1,0.2-0.2,0.2-0.3c0.1,0.1,0.1,0.2,0.2,0.3c0.1,0.1,0.3,0.2,0.5,0.3 c0.2,0.1,0.4,0.1,0.5,0.1c0.4,0,0.7-0.2,1-0.5l0.2-0.3l0,0c0.2,0.1,0.4,0.2,0.7,0.2c0.8,0,1.5-0.4,1.8-1.2 c0.3,0.1,0.5,0.2,0.8,0.2c1.1-0.1,1.9-1,1.9-2.1c0-0.1,0-0.1,0-0.2c0.9,0,1.7-0.7,1.8-1.6c0-0.3-0.1-0.7-0.2-1h0.2 c0.2,0,0.3,0,0.5-0.1c0.2-0.1,0.3-0.2,0.4-0.3c0.1-0.1,0.2-0.3,0.3-0.5c0.1-0.2,0.1-0.3,0.1-0.5c0-0.3-0.2-0.7-0.4-0.9 L60,44.4l0.2-0.2l0.3-0.3c0.1-0.2,0.2-0.5,0.2-0.8V43c0-0.4-0.2-0.8-0.4-1.1L60,41.7l0.3-0.3c0.2-0.3,0.2-0.6,0.2-0.8v-0.1 c0-0.2,0-0.4-0.1-0.6c0,0,0,0,0-0.1h0.1c0.6-0.3,0.9-1,0.6-1.6c0,0,0,0,0,0l-0.1-0.2c-0.1-0.3-0.4-0.5-0.7-0.6 c-0.1,0-0.3-0.1-0.4-0.1c0-0.1-0.1-0.2-0.1-0.3c-0.1-0.1-0.1-0.3-0.3-0.3c-0.1-0.1-0.2-0.2-0.4-0.2c-0.1-0.1-0.3-0.1-0.4-0.1 h-0.1c0.1-0.2,0.2-0.5,0.2-0.7v-0.1c0-0.2,0-0.4-0.1-0.5c-0.1-0.2-0.2-0.3-0.3-0.5c-0.1-0.1-0.3-0.2-0.5-0.3 c-0.2-0.1-0.3-0.1-0.5-0.1H57h-0.1c0-0.1,0-0.2-0.1-0.3c-0.1-0.4-0.4-0.7-0.8-0.8c-0.2-0.1-0.4-0.2-0.6-0.2H55 c-0.1,0-0.2,0-0.3,0.1c0-0.1-0.1-0.2-0.2-0.3c-0.1-0.1-0.3-0.3-0.4-0.3c-0.2-0.1-0.3-0.2-0.5-0.2h-0.4c-0.2,0-0.3,0.1-0.5,0.2 c-0.4-0.6-1-0.9-1.7-0.9c-0.5,0-0.9,0.1-1.2,0.4c-0.3-0.3-0.8-0.4-1.2-0.4c-0.7,0-1.3,0.3-1.7,0.9c-0.1-0.1-0.3-0.1-0.5-0.2 h-0.4c-0.2,0-0.4,0.1-0.5,0.2c-0.2,0.1-0.3,0.2-0.4,0.3c-0.1,0.1-0.1,0.2-0.2,0.3c-0.1,0-0.2-0.1-0.3-0.1h-0.4 c-0.2,0-0.4,0.1-0.6,0.2c-0.2,0.1-0.4,0.2-0.5,0.4c-0.1,0.2-0.2,0.3-0.3,0.5c0,0.1-0.1,0.2-0.1,0.3h-0.1h-0.4 c-0.2,0-0.4,0-0.5,0.1c-0.2,0.1-0.3,0.2-0.4,0.3c-0.1,0.1-0.2,0.3-0.3,0.5c-0.1,0.2-0.1,0.3-0.1,0.5v0.1 c0,0.3,0.1,0.5,0.2,0.7H41c-0.3,0-0.6,0.1-0.8,0.3C40.1,36.7,40,36.9,40,37c-0.1,0.1-0.1,0.2-0.1,0.3c-0.1,0-0.3,0-0.4,0.1 c-0.3,0.1-0.6,0.3-0.7,0.6l-0.1,0.2C38.5,38.4,38.5,38.7,38.6,39z"/><path fill="#d8ad8f" d="M57.5,43.2c0.1-1-0.2-1.8-0.1-2.3l0,0c-0.8-1-1.4-2.3-2.6-3C53.5,37,52,36.4,50.5,36 c-3.6-0.9-7.2,1.8-8.4,5.2c0,0,0,0,0,0.1c0.1,0.6,0.2,1.2,0.2,1.9c-1,0-1.5,0.5-1.2,1.5c0,0,0.4,1.7,0.6,2.5 c0.1,0.4,0.5,0.8,0.9,0.8c0,0.5,0,1.1,0,1.6c0,0.6,0.2,1.3,0.5,1.8c1,1.4,5.9,4.6,7.1,4.5c1.9,0,5.8-3.3,6.8-4.9 c0.2-0.3,0.3-0.7,0.3-1.1V48c0.4,0,0.7-0.4,0.8-0.8c0.3-0.8,0.6-2.5,0.6-2.5C59.2,43.7,58.5,43.2,57.5,43.2z"/><path fill="#b2876b" d="M60.5,59.5l-0.2-0.1l-0.4-0.2c-0.8-0.3-5.9-2.1-5.9-2.1c-0.4-0.1-0.6-0.4-0.8-0.7 c-0.2-0.6-0.2-1.2-0.2-1.9c-0.9,0.4-1.8,0.7-2.7,0.9c-1.2,0.1-3.3-1.5-3.3-1.5s-0.1,2-0.1,2.4c-0.1,0.4-0.4,0.6-0.8,0.7 l-5,1.7c-0.5,0.1-1,0.3-1.4,0.6c-1.1,0.7-1.8,1.8-2.1,3l0,0c0,0.1,0,0.2,0,0.4c-0.1,0.3-0.1,0.6-0.1,0.9c0,0.3,0,4.6-0.1,4.9 c4.3,4.5,10.4,3.5,17.2,3.5c3.1-0.1,6.1-1.2,8.5-3.3C62.7,62.8,63.2,60.4,60.5,59.5z"/><path fill="#8889b9" d="M44.9,58.1c1,0.8,8.3,1.2,10.3-0.3l3.1,1L59.2,71c-5.9,1.7-12.3,1.6-18.1-0.3l0.5-11.5 L44.9,58.1z"/><g opacity=".3"><path fill="#f4989e" d="M45.5 47.400000000000006A1.3 1.3 0 1 0 45.5 50 1.3 1.3 0 1 0 45.5 47.400000000000006zM55.2 47.400000000000006A1.3 1.3 0 1 0 55.2 50 1.3 1.3 0 1 0 55.2 47.400000000000006z" opacity=".8"/></g><path fill="#472b29" d="M42.9 48.5c-.1 0-.2-.1-.2-.2l-.5-5.1c0-.1.1-.2.2-.2.1 0 .2.1.2.2l.5 5.1C43.1 48.4 43 48.5 42.9 48.5 42.9 48.5 42.9 48.5 42.9 48.5zM57.3 48.2C57.3 48.2 57.3 48.2 57.3 48.2c-.1 0-.2-.1-.2-.2l.3-5.2c0-.1.1-.2.2-.2.1 0 .2.1.2.2L57.5 48C57.5 48.1 57.4 48.2 57.3 48.2z"/><path fill="#472b29" d="M50.2 50.1c.5 0 1-.2 1.3-.6 0 0 0-.1 0-.1 0 0 0 0 0 0l0 0c0 0-.1 0-.1 0-.6.6-1.6.6-2.3 0 0 0 0 0-.1 0h-.1c0 0 0 .1 0 .1 0 0 0 0 0 0C49.2 49.9 49.7 50.1 50.2 50.1zM50.8 54.4L50.8 54.4l-1.1-.1c0 0 0 0 0 .1H50.8z" opacity=".41"/><path fill="#512c2b" d="M48.9 42.4c-1.5-.4-3.1-.6-4.8-.5-.1 0-.1 0-.1.1 0 .1 0 .1.1.1 0 0 0 0 0 0 0 0 3.2.6 4.3.9h0c0 0 .1 0 .1 0l.4-.4C49 42.5 49 42.5 48.9 42.4 48.9 42.4 48.9 42.4 48.9 42.4zM51.4 42.3c1.6-.4 3.2-.5 4.8-.3.1 0 .1 0 .2.1 0 .1 0 .1-.1.2 0 0 0 0-.1 0 0 0-3.3.4-4.3.7h-.1c0 0-.1 0-.1 0l-.4-.5C51.3 42.4 51.3 42.4 51.4 42.3 51.4 42.3 51.4 42.3 51.4 42.3z"/><path fill="#472b29" d="M46.6 43.7c-.3 0-.6.2-.8.5H46c.3 0 .5.2.5.5 0 .3-.2.5-.5.5-.1 0-.2 0-.2-.1.1.4.4.8.9.8.6-.2 1-.8.9-1.5C47.4 44.2 47 43.9 46.6 43.7L46.6 43.7zM53.6 43.7c-.3 0-.5.2-.7.4.1 0 .1 0 .2 0 .3 0 .5.3.5.5 0 .3-.2.5-.5.5 0 0 0 0 0 0-.2 0-.3-.1-.4-.2.1.5.7.8 1.2.7.5-.1.8-.7.7-1.2C54.4 44.1 54.1 43.8 53.6 43.7L53.6 43.7z"/><path fill="#472b29" d="M50.3,72.6c-4.8,0-10-1-13.2-3.7c-0.1-0.1-0.2-0.3-0.2-0.4c0,0,0-0.1,0-0.2 c-0.2-5.1,0.7-8.2,2.6-9.2c0.5-0.3,1-0.5,1.5-0.6l5-1.6c0.3-0.1,0.4-0.2,0.5-0.4c0-0.2,0.1-1.1,0.1-1.7C45.3,54,44,53,43,51.8 c-0.5-0.7-0.7-1.4-0.7-2.2l0-1.2c-0.5-0.2-0.8-0.6-0.9-1.1c-0.2-0.8-0.6-2.4-0.6-2.5c-0.3-0.8-0.1-1.3,0.1-1.5 c0.2-0.2,0.4-0.5,1-0.6c0,0,0-0.1,0-0.1c-0.2-0.4-0.3-0.7-0.3-1.1c0-4.3,3.7-7.8,8.4-7.8c4.6,0,8.4,3.5,8.4,7.7 c0,0.4-0.1,0.8-0.3,1.2v0.1c0.5,0.1,0.9,0.3,1.2,0.7c0.3,0.4,0.4,0.9,0.2,1.5l-0.1,0.3c-0.1,0.5-0.4,1.6-0.6,2.2 c-0.1,0.4-0.4,0.8-0.8,1v1.5c0,0.5-0.1,0.9-0.4,1.3c-1.2,1.6-2.5,2.9-4.1,3.9c0,0.4,0.1,0.9,0.2,1.3c0.1,0.2,0.2,0.3,0.4,0.4 c0.2,0.1,5.2,1.8,6,2.1l0.5,0.2c2.6,0.8,2.6,2.8,2.8,6.8c0,0.8,0.1,1.8,0.1,2.9c0,0.1,0,0.2-0.1,0.3c-1.3,1.8-5.4,2.8-8.9,3.3 C53.2,72.5,51.7,72.6,50.3,72.6z M37.9,68.3c3.9,3.3,11.3,3.7,16.5,3.1c3.9-0.5,7.1-1.5,8.1-2.7c0-1-0.1-1.9-0.1-2.7 c-0.1-4.1-0.2-5.3-2.1-5.9c0,0,0,0,0,0l-0.6-0.2c-0.8-0.3-5.8-2.1-5.9-2.1c-0.5-0.1-0.9-0.5-1.1-1c-0.2-0.7-0.3-1.3-0.3-1.9 c0-0.2,0.1-0.3,0.2-0.4c1.6-1,2.9-2.3,4-3.8c0.1-0.2,0.2-0.5,0.2-0.8V48c0-0.3,0.2-0.5,0.4-0.5c0.2,0,0.3-0.2,0.4-0.4 c0.2-0.6,0.4-1.7,0.6-2.2c0-0.2,0.1-0.3,0.1-0.3l0,0c0.1-0.2,0.1-0.4,0-0.6c-0.1-0.2-0.5-0.3-0.9-0.3c-0.1,0-0.3,0-0.4-0.1 c-0.1-0.1-0.2-0.2-0.2-0.4v-0.7c0-0.1,0-0.2,0.1-0.2c0.1-0.3,0.2-0.6,0.2-0.9c0-3.7-3.3-6.7-7.4-6.7c-4.1,0-7.4,3-7.4,6.8 c0,0.3,0.1,0.6,0.2,0.8c0,0.1,0.1,0.1,0.1,0.2c0,0.1,0,0.2,0,0.4c0,0.1,0,0.2,0,0.3c0,0.3-0.2,0.5-0.5,0.5 c-0.3,0-0.6,0.1-0.7,0.2c-0.1,0.1-0.1,0.4,0,0.7c0,0.1,0.4,1.7,0.6,2.5c0.1,0.3,0.3,0.4,0.5,0.4c0.3,0,0.5,0.2,0.5,0.5v1.6 c0,0.5,0.1,1.1,0.5,1.5c1,1.1,2.3,2.1,3.6,2.9c0.2,0.1,0.3,0.3,0.3,0.4c0,0.5-0.1,1.8-0.2,2.2c-0.2,0.6-0.6,1-1.2,1.1 l-4.9,1.6c-0.5,0.1-0.9,0.3-1.3,0.6C39.1,60.4,37.7,62.1,37.9,68.3C37.9,68.2,37.9,68.3,37.9,68.3z"/><path fill="#472b29" d="M50.5 55.8C50.5 55.8 50.5 55.7 50.5 55.8c-1.3-.1-2.4-.5-3.5-1.1-.1-.1-.2-.2-.1-.3.1-.1.2-.2.3-.1 1 .6 2.1.9 3.2 1.1.9-.2 1.9-.5 2.7-1 .1-.1.3 0 .3.1.1.1 0 .3-.1.3C52.6 55.2 51.6 55.6 50.5 55.8 50.6 55.7 50.6 55.8 50.5 55.8zM54.1 34.8c.2.7.2 1.4-.2 2-.5.6-1.4.8-2.1.5.3 1.5-2.4 1.9-3 .7.5 1.3-2.3 2.5-3.1 1.3.1.7-.2 1.3-.8 1.8-.5.3-1.1.4-1.7.3.3.3.4.7.3 1.1-.1.3-.5.6-.9.5-.4 0-.7-.2-1-.5-.8-.9-1-2.1-.7-3.3.3-1 .9-2 1.7-2.7 1.7-1.7 3.9-2.7 6.3-3 1.3-.2 2.7.1 3.8.9.6.4 1 1 1 1.7"/><path fill="#472b29" d="M58 37.5c-1-.9-2.4-1.3-3.7-1-.1 0-.1 0-.2.1-.1 0-.1 0-.2.1-.5.4-.6 1.1-.3 1.6.3.4.9.6 1.4.5 0 .6.4 1.1 1 1.2.1 0 .1 0 .2 0-.1.5.1 1 .5 1.2-.3.4-.2 1 .2 1.3 0 0 .1.1.2.1 1 .5 1.6-.6 1.7-1.4C59.2 39.9 58.9 38.6 58 37.5zM54.3 51.5c0 0 0-.1 0-.1l0 0c0 0-.1 0-.1 0 0 0 0 0 0 0-1.2.8-2.6 1.2-4 1.1-1.4.1-2.8-.3-4-1.1l0 0c0 0-.1 0-.1 0 0 0 0 .1 0 .1 2.5 1.7 5.8 1.7 8.3 0H54.3z"/></g><path fill="#472b29" d="M38.1,53.3c-0.2,0-0.4-0.2-0.4-0.4V28.7c0-0.2,0.2-0.4,0.4-0.4h20.3c0.2,0,0.4,0.2,0.4,0.4 s-0.2,0.4-0.4,0.4h-20v23.9C38.4,53.1,38.3,53.3,38.1,53.3z"/><path fill="#472b29" d="M61.5,68.2H38.1c-0.2,0-0.4-0.2-0.4-0.4V52.6c0-0.2,0.2-0.4,0.4-0.4s0.4,0.2,0.4,0.4v14.9h22.7 V35.7c0-0.2,0.2-0.4,0.4-0.4s0.4,0.2,0.4,0.4v32.1C61.9,68,61.7,68.2,61.5,68.2z"/><g><path fill="#fdfcef" d="M41.9,47.4c-0.1,2.6-1.6,4.8-3.9,6l0,0c0,1.2,0.3,2.4,0.8,3.5c0.1,0.2,0,0.5-0.2,0.6 c-0.1,0-0.2,0.1-0.3,0.1c-2.1-0.2-4.1-1.1-5.6-2.5h-1.3c-5.8,0-10.4-3.4-10.4-7.7s4.7-7.7,10.5-7.7S41.9,43.1,41.9,47.4"/><path fill="#472b29" d="M38.4,58.1c0,0-0.1,0-0.1,0c-2.1-0.2-4.1-1.1-5.7-2.5h-1.1c0,0,0,0-0.1,0 c-3.5,0-6.6-1.2-8.7-3.2c-1.4-1.4-2.2-3.1-2.2-4.9c0-4.5,4.9-8.2,11-8.2s11,3.7,11,8.2c0,0.1,0,0.2-0.1,0.2 c-0.2,2.5-1.7,4.8-3.9,6.1c0.1,1,0.3,2.1,0.8,3c0.2,0.4,0.1,1-0.4,1.3C38.7,58,38.6,58.1,38.4,58.1z M32.7,54.6 c0.1,0,0.2,0,0.3,0.1c1.5,1.3,3.3,2.2,5.3,2.4c-0.6-1.1-0.9-2.4-0.9-3.7c0-0.2,0.1-0.4,0.3-0.5c2.1-1.1,3.5-3.2,3.7-5.6 c0-0.1,0-0.1,0-0.2c-0.1-3.9-4.6-7-10-7c-5.5,0-10,3.2-10,7.2c0,1.5,0.7,3,1.9,4.2c1.9,1.9,4.9,2.9,8,3H32.7z"/></g></svg>