<svg xmlns="http://www.w3.org/2000/svg" viewBox="0 0 16 16"><path d="M 7.5 1 C 6.128906 1 5 2.128906 5 3.5 L 5 12.148438 C 5 12.695313 5.199219 13.140625 5.460938 13.441406 C 5.722656 13.746094 6.015625 13.925781 6.21875 14.066406 C 6.464844 14.238281 6.765625 14.453125 7.054688 14.636719 C 7.347656 14.816406 7.574219 15 7.992188 15 C 8.421875 15 8.648438 14.804688 8.949219 14.597656 C 9.25 14.394531 9.5625 14.144531 9.851563 13.910156 C 10.378906 13.480469 11 12.863281 11 12 C 11 10.972656 10.734375 9.953125 10.484375 9.003906 C 10.230469 8.054688 10 7.175781 10 6.5 L 10 3.5 C 10 2.128906 8.871094 1 7.5 1 Z M 7.5 2 C 8.328125 2 9 2.671875 9 3.5 L 9 4.351563 C 8.523438 4.128906 8.003906 4 7.488281 4 C 6.9375 4 6.433594 4.128906 6 4.363281 L 6 3.5 C 6 2.671875 6.671875 2 7.5 2 Z M 7.488281 5 C 7.992188 5 8.558594 5.191406 9 5.496094 L 9 6.5 C 9 7.386719 9.269531 8.316406 9.515625 9.257813 C 9.609375 9.609375 9.6875 9.957031 9.765625 10.300781 C 9.757813 10.34375 9.75 10.386719 9.753906 10.429688 C 9.761719 10.480469 9.761719 10.761719 9.640625 10.902344 C 9.617188 10.925781 9.550781 11 9.328125 11 L 6.410156 11 C 6.320313 11 6.277344 10.972656 6.234375 10.933594 C 6.09375 10.789063 5.996094 10.40625 6 10.003906 L 6 5.640625 C 6.039063 5.589844 6.078125 5.535156 6.125 5.492188 C 6.4375 5.167969 6.863281 5 7.488281 5 Z"/></svg>