<svg xmlns="http://www.w3.org/2000/svg" viewBox="0 0 128 128"><path fill="#efefed" d="M111.9,120.1l-78.7,0.5c-17.8-1.4-30.6-17.9-27.4-35.5l6.9-38.7C16.7,21.2,41,4.3,66.1,9.4l19.3,3.9c19.4,4,33.9,20.1,35.7,39.8l4.8,51.6C126.6,112.9,120.2,120,111.9,120.1z"/><path fill="#ff697b" d="M105 120L23 120 23 114 54 114 64 114 105 114z"/><path fill="#b6efe8" d="M30,114V51c0-18.8,15.2-34,34-34h0c18.8,0,34,15.2,34,34v63"/><path fill="#fff" d="M64,17L64,17c-18.8,0-34,15.2-34,34v28v35h34h34V79V51C98,32.2,82.8,17,64,17z M43.1,30.2c2.6-2.5,5.6-4.5,8.9-5.9c3.3-1.4,7,1.1,7,4.7v4.8c0,2.8-2.3,5.1-5.1,5.1h-7.2C42.1,39,39.9,33.4,43.1,30.2z M59.1,101.4c0,4.2-3.4,7.6-7.6,7.6h-9.1c-4.2,0-7.6-3.4-7.6-7.6v-9.8c0-4.2,3.4-7.6,7.6-7.6h9.1c4.2,0,7.6,3.4,7.6,7.6V101.4z M59.1,66.4c0,4.2-3.4,7.6-7.6,7.6h-9.1c-4.2,0-7.6-3.4-7.6-7.6v-9.8c0-4.2,3.4-7.6,7.6-7.6h9.1c4.2,0,7.6,3.4,7.6,7.6V66.4z M69,29.1c0-3.6,3.7-6.1,7-4.7c3.3,1.4,6.3,3.4,8.9,5.9c3.3,3.2,1,8.8-3.5,8.8h-7.2c-2.8,0-5.1-2.3-5.1-5.1V29.1z M93.1,101.4c0,4.2-3.4,7.6-7.6,7.6h-9.1c-4.2,0-7.6-3.4-7.6-7.6v-9.8c0-4.2,3.4-7.6,7.6-7.6h9.1c4.2,0,7.6,3.4,7.6,7.6V101.4z M93.1,66.4c0,4.2-3.4,7.6-7.6,7.6h-9.1c-4.2,0-7.6-3.4-7.6-7.6v-9.8c0-4.2,3.4-7.6,7.6-7.6h9.1c4.2,0,7.6,3.4,7.6,7.6V66.4z"/><path fill="#fff" d="M30.5 98c0 0 15.8-8.2 24 0s23.5 4 29 4 13.5 4 13.5 4l1 8H30L30.5 98zM81 56c-.1 0-.3 0-.4 0-.1 0-.2-.1-.4-.1-.1 0-.2-.1-.4-.2-.1-.1-.2-.1-.3-.2C79.2 55 79 54.5 79 54c0-.5.2-1 .6-1.4.1-.1.2-.2.3-.2.1-.1.2-.1.4-.2.1-.1.2-.1.4-.1.3-.1.5-.1.8 0 .1 0 .2.1.4.1.1 0 .2.1.3.2s.2.1.3.2C82.8 53 83 53.5 83 54c0 .5-.2 1-.6 1.4-.1.1-.2.2-.3.2-.1.1-.2.1-.3.2-.1.1-.2.1-.4.1C81.3 56 81.1 56 81 56zM51 66c-.5 0-1-.2-1.4-.6C49.2 65 49 64.5 49 64c0-.5.2-1 .6-1.4.7-.8 2.1-.8 2.8 0 .1.1.2.2.2.3.1.1.1.2.2.3.1.1.1.2.1.4 0 .1 0 .3 0 .4 0 .1 0 .3 0 .4 0 .1-.1.2-.1.4 0 .1-.1.2-.2.4-.1.1-.1.2-.2.3C52 65.8 51.5 66 51 66zM71 96c-.5 0-1-.2-1.4-.6C69.2 95 69 94.5 69 94c0-.5.2-1 .6-1.4.1-.1.2-.2.3-.2.1-.1.2-.1.4-.2.1-.1.2-.1.4-.1.3-.1.5-.1.8 0 .1 0 .3.1.4.1.1 0 .2.1.3.2s.2.1.3.2C72.8 93 73 93.5 73 94c0 .5-.2 1-.6 1.4C72 95.8 71.5 96 71 96zM91 76c-.1 0-.3 0-.4 0-.1 0-.2-.1-.4-.1-.1 0-.2-.1-.3-.2-.1-.1-.2-.1-.3-.2C89.2 75 89 74.5 89 74c0-.5.2-1 .6-1.4.7-.8 2.1-.8 2.8 0 .1.1.2.2.2.3.1.1.1.2.2.3.1.1.1.2.1.4 0 .1 0 .3 0 .4 0 .1 0 .3 0 .4 0 .1-.1.2-.1.4 0 .1-.1.2-.2.4-.1.1-.1.2-.2.3C92 75.8 91.5 76 91 76zM71 26c-.5 0-1-.2-1.4-.6C69.2 25 69 24.5 69 24c0-.5.2-1 .6-1.4.7-.8 2.1-.8 2.8 0C72.8 23 73 23.5 73 24c0 .5-.2 1-.6 1.4C72 25.8 71.5 26 71 26z"/><path fill="#444b54" d="M54 76H40c-1.7 0-3 1.3-3 3s1.3 3 3 3h14c1.7 0 3-1.3 3-3S55.7 76 54 76zM47.5 41c-1.7 0-3 1.3-3 3s1.3 3 3 3H54c1.7 0 3-1.3 3-3s-1.3-3-3-3"/><path fill="#444b54" d="M105,111h-4V51c0-20.4-16.6-37-37-37S27,30.6,27,51v53c0,1.7,1.3,3,3,3s3-1.3,3-3V51c0-17.1,13.9-31,31-31c13.6,0,25.2,8.8,29.3,21H74c-1.7,0-3,1.3-3,3s1.3,3,3,3h20.7c0.2,1.3,0.3,2.6,0.3,4v25H74c-1.7,0-3,1.3-3,3s1.3,3,3,3h21v29H67V27c0-1.7-1.3-3-3-3s-3,1.3-3,3v84H30h-7c-1.7,0-3,1.3-3,3s1.3,3,3,3h82c1.7,0,3-1.3,3-3S106.7,111,105,111z"/></svg>