<svg xmlns="http://www.w3.org/2000/svg" viewBox="0 0 32 32"><path d="M 15 3 C 8.9545455 3 4 7.9545455 4 14 C 4 16.163589 4.8412428 17.967671 5.59375 19.585938 C 6.3462572 21.204204 7 22.637277 7 24.101562 L 7 29 L 9 29 L 9 24.101562 C 9 22.065848 8.1537428 20.34967 7.40625 18.742188 C 6.6587572 17.134704 6 15.637411 6 14 C 6 9.0454545 10.045455 5 15 5 C 18.806822 5 20.85193 6.5976715 22.082031 8.2070312 C 23.312133 9.8163911 23.621094 11.390625 23.621094 11.390625 L 23.646484 11.523438 L 23.707031 11.646484 C 23.707031 11.646484 26.05239 16.341031 26.384766 17.005859 C 26.450676 17.16776 26.449133 17.294734 26.445312 17.333984 L 26.419922 17.339844 L 26.382812 17.351562 C 25.849059 17.529481 24.736328 17.835938 24.736328 17.835938 L 24 18.037109 L 24 21 C 24 21.666667 23.635834 22.450104 23.042969 23.042969 C 22.450104 23.635834 21.666667 24 21 24 L 19 24 L 19 29 L 21 29 L 21 26 C 22.333333 26 23.549896 25.364166 24.457031 24.457031 C 25.364166 23.549896 26 22.333333 26 21 L 26 19.548828 C 26.347841 19.450638 26.566809 19.392678 26.939453 19.271484 C 27.635101 19.098658 28.204066 18.518031 28.375 17.910156 C 28.545934 17.302281 28.44134 16.721122 28.220703 16.207031 L 28.208984 16.181641 L 28.195312 16.154297 C 27.898036 15.559741 25.564431 10.886765 25.521484 10.800781 C 25.457929 10.508775 25.066431 8.8192611 23.669922 6.9921875 C 22.148774 5.0020473 19.392178 3 15 3 z M 14 9 L 10 15 L 13.636719 15 L 11 20 L 20 13 L 15.230469 13 L 18.455078 9 L 14 9 z"/></svg>