<?xml version="1.0"?><svg xmlns="http://www.w3.org/2000/svg" viewBox="0 0 64 64">    <path d="M 35 0 C 20.839 0 10.327813 9.41 10.007812 22.375 C 9.9998125 22.689 9.9512813 22.984 9.8632812 23.25 L 4.4433594 39.509766 C 4.2513594 40.085766 4.3272969 40.70775 4.6542969 41.21875 C 4.9812969 41.73075 5.5151406 42.063859 6.1191406 42.130859 L 9.109375 42.462891 C 9.616375 42.519891 10 42.946031 10 43.457031 L 10 52.53125 C 10 53.95125 10.606063 55.309812 11.664062 56.257812 C 12.724063 57.205813 14.144734 57.660953 15.552734 57.501953 L 18.451172 57.179688 L 18.453125 57.179688 L 23.841797 56.580078 L 23.308594 60.607422 C 23.194594 61.464422 23.455391 62.328516 24.025391 62.978516 C 24.594391 63.627516 25.41725 64 26.28125 64 L 52.777344 64 C 53.626344 64 54.439813 63.638813 55.007812 63.007812 C 55.575812 62.376812 55.850719 61.529547 55.761719 60.685547 L 54.324219 47.037109 C 54.188219 45.737109 54.414516 44.43925 54.978516 43.28125 C 58.263516 36.55325 60 29.194 60 22 C 60 9.047 49.72 0 35 0 z M 35 2 C 50.889 2 58 12.045 58 22 C 58 28.891 56.334594 35.947297 53.183594 42.404297 C 52.454594 43.899297 52.161891 45.574094 52.337891 47.246094 L 53.773438 60.894531 C 53.802437 61.181531 53.714484 61.456922 53.521484 61.669922 C 53.329484 61.882922 53.064344 62 52.777344 62 L 26.28125 62 C 25.98825 62 25.721297 61.878203 25.529297 61.658203 C 25.337297 61.438203 25.253016 61.159141 25.291016 60.869141 L 25.888672 56.351562 L 29.109375 55.992188 C 29.658375 55.931188 30.054141 55.437672 29.994141 54.888672 C 29.933141 54.340672 29.442625 53.944859 28.890625 54.005859 L 26.160156 54.308594 L 15.332031 55.511719 C 14.479031 55.606719 13.635 55.333625 13 54.765625 C 12.364 54.198625 12 53.38325 12 52.53125 L 12 43.457031 C 12 41.926031 10.852078 40.645563 9.3300781 40.476562 L 6.3398438 40.142578 L 11.761719 23.882812 C 11.912719 23.427813 11.994813 22.936828 12.007812 22.423828 C 12.299813 10.588828 21.97 2 35 2 z M 35 5 C 34.447 5 34 5.448 34 6 L 34 8 C 34 8.552 34.447 9 35 9 C 35.553 9 36 8.552 36 8 L 36 6 C 36 5.448 35.553 5 35 5 z M 29.572266 5.7402344 C 29.443437 5.7224687 29.309531 5.729375 29.175781 5.765625 C 28.642781 5.908625 28.32575 6.4562344 28.46875 6.9902344 L 28.986328 8.9238281 C 29.105328 9.3708281 29.509172 9.6640625 29.951172 9.6640625 C 30.037172 9.6640625 30.125891 9.6548594 30.212891 9.6308594 C 30.745891 9.4878594 31.062922 8.9382969 30.919922 8.4042969 L 30.400391 6.4726562 C 30.293891 6.0721562 29.95875 5.7935313 29.572266 5.7402344 z M 40.427734 5.7402344 C 40.042047 5.7936719 39.706859 6.0721563 39.599609 6.4726562 L 39.080078 8.4042969 C 38.937078 8.9382969 39.254109 9.4888594 39.787109 9.6308594 C 39.874109 9.6538594 39.962828 9.6640625 40.048828 9.6640625 C 40.489828 9.6640625 40.894672 9.3708281 41.013672 8.9238281 L 41.53125 6.9902344 C 41.67425 6.4562344 41.357219 5.908625 40.824219 5.765625 C 40.691469 5.729625 40.556297 5.7224219 40.427734 5.7402344 z M 24.125 7.8867188 C 23.996313 7.9028125 23.86875 7.9444219 23.75 8.0136719 C 23.271 8.2896719 23.107766 8.9028594 23.384766 9.3808594 L 24.384766 11.111328 C 24.570766 11.432328 24.905953 11.611328 25.251953 11.611328 C 25.421953 11.611328 25.593 11.569516 25.75 11.478516 C 26.229 11.202516 26.392234 10.589328 26.115234 10.111328 L 25.115234 8.3808594 C 24.907484 8.0216094 24.511062 7.8384375 24.125 7.8867188 z M 45.873047 7.8886719 C 45.486328 7.8407656 45.091766 8.0223594 44.884766 8.3808594 L 43.884766 10.113281 C 43.607766 10.590281 43.771 11.201516 44.25 11.478516 C 44.407 11.569516 44.578047 11.613281 44.748047 11.613281 C 45.094047 11.613281 45.430234 11.434281 45.615234 11.113281 L 46.615234 9.3808594 C 46.891234 8.9028594 46.728 8.291625 46.25 8.015625 C 46.1305 7.946625 46.001953 7.9046406 45.873047 7.8886719 z M 35 12 C 25.626 12 18 19.626 18 29 C 18 38.374 25.626 46 35 46 C 44.374 46 52 38.374 52 29 C 52 19.626 44.374 12 35 12 z M 35 14 C 43.271 14 50 20.729 50 29 C 50 37.271 43.271 44 35 44 C 26.729 44 20 37.271 20 29 C 20 20.729 26.729 14 35 14 z M 32 18 C 30.897 18 30 18.897 30 20 L 30 24 L 26 24 C 24.897 24 24 24.897 24 26 L 24 32 C 24 33.103 24.897 34 26 34 L 30 34 L 30 38 C 30 39.103 30.897 40 32 40 L 38 40 C 39.103 40 40 39.103 40 38 L 40 34 L 44 34 C 45.103 34 46 33.103 46 32 L 46 26 C 46 24.897 45.103 24 44 24 L 40 24 L 40 20 C 40 18.897 39.103 18 38 18 L 32 18 z M 32 20 L 38 20 L 38 25 C 38 25.552 38.447 26 39 26 L 44 26 L 44 32 L 39 32 C 38.447 32 38 32.448 38 33 L 38 38 L 32 38 L 32 33 C 32 32.448 31.553 32 31 32 L 26 32 L 26 26 L 31 26 C 31.553 26 32 25.552 32 25 L 32 20 z"/></svg>