<svg xmlns="http://www.w3.org/2000/svg" viewBox="0 0 48 48"><path fill="#4b7bb2" d="M24.055,33.071c0.744,2.255,1.916,4.028,3.948,5.257c2.032,1.228,4.583,1.621,6.852,0.922 c1.278-0.393,2.435-1.107,3.499-1.916c0.993-0.755,2.244-1.793,2.899-2.855c0.999-1.62,1.594-3.121,1.789-5.014 c0.362-3.511,0.56-7.105-0.301-10.527s-3.237-6.638-6.407-8.189c-1.503-0.735-2.877-0.859-4.521-1.171 c-1.134-0.215-2.569-0.004-3.703-0.219c0.825,0.199,1.481,0.478,2.187,0.947c3.83,2.539,6.798,6.334,7.797,10.819 s0.195,9.346-2.195,13.271c-0.362,0.595-0.947,1.446-1.514,1.85c-0.739,0.527-1.678,0.695-2.586,0.716 c-1.075,0.026-2.178-0.143-3.117-0.668c-2.176-1.218-2.841-4.183-3.342-6.626c1.154-1.852,1.656-4.303,1.977-6.461 c0.38-2.561,0.606-5.352-0.72-7.576c-0.689-1.156-2.094-2.127-3.329-1.592c-0.862,0.373-1.738,1.607-2.019,2.503 c-1.333,4.244-0.599,9.173,1.511,13.089c-0.46,2.49-2.137,5.292-4.424,6.379c-2.287,1.087-5.325,0.638-6.919-1.33 c-0.544-0.672-0.903-1.474-1.188-2.29c-0.632-1.814-0.916-3.732-1.071-5.647c-0.076-0.931-0.122-1.866-0.087-2.8 c0.24-6.415,4.552-12.322,10.604-14.463c-4.684-0.245-9.041,1.142-12.218,4.594c-0.832,0.904-1.565,1.914-2.042,3.045 c-0.473,1.123-0.684,2.34-0.803,3.553c-0.242,2.472-0.116,4.968,0.155,7.438c0.293,2.674,0.867,5.543,2.858,7.353 c0.381,0.347,0.805,0.644,1.235,0.928c1.53,1.011,2.995,2.495,4.785,2.891s3.738,0.283,5.354-0.583 c0.847-0.454,1.766-1.711,2.438-2.398C22.424,35.294,23.305,34.264,24.055,33.071z"/><path fill="#010101" d="M32.528,40.092c-1.649,0-3.328-0.457-4.784-1.337c-1.743-1.054-2.974-2.528-3.821-4.595 c-0.582,0.81-1.274,1.618-2.128,2.49c-0.187,0.191-0.394,0.428-0.612,0.678c-0.592,0.677-1.263,1.443-1.947,1.811 c-1.611,0.864-3.635,1.087-5.698,0.632c-1.395-0.309-2.565-1.194-3.698-2.052c-0.419-0.317-0.834-0.633-1.255-0.911 C8.18,36.54,7.71,36.216,7.29,35.833c-2.131-1.938-2.722-4.965-3.019-7.669c-0.322-2.937-0.372-5.333-0.155-7.541 c0.093-0.953,0.282-2.374,0.839-3.698c0.456-1.08,1.153-2.123,2.134-3.19c3.111-3.379,7.474-5.032,12.613-4.754 c0.238,0.012,0.434,0.191,0.468,0.428c0.034,0.235-0.103,0.463-0.328,0.543c-5.816,2.058-10.04,7.819-10.271,14.011 c-0.029,0.787-0.002,1.658,0.086,2.741c0.182,2.242,0.515,3.997,1.045,5.522c0.323,0.929,0.674,1.608,1.104,2.14 c1.375,1.699,4.15,2.22,6.315,1.192c2.227-1.058,3.675-3.735,4.114-5.849c-2.216-4.211-2.765-9.176-1.463-13.316 c0.317-1.012,1.286-2.375,2.297-2.813c1.494-0.645,3.151,0.444,3.957,1.796c1.378,2.312,1.192,5.165,0.785,7.904 c-0.297,1.999-0.786,4.523-1.942,6.48c0.443,2.152,1.076,4.989,3.057,6.098c0.766,0.428,1.728,0.645,2.861,0.604 c0.997-0.023,1.752-0.228,2.307-0.624c0.381-0.272,0.883-0.893,1.377-1.703c2.33-3.826,3.108-8.529,2.134-12.902 c-0.924-4.147-3.618-7.881-7.585-10.511c-0.646-0.429-1.252-0.69-2.028-0.877c-0.264-0.063-0.429-0.326-0.372-0.592 c0.057-0.265,0.313-0.436,0.582-0.386c1.056,0.2,2.493-0.011,3.703,0.219c0.314,0.06,0.619,0.112,0.916,0.163 c1.262,0.219,2.454,0.425,3.731,1.05c3.186,1.559,5.743,4.821,6.673,8.516c0.883,3.507,0.672,7.216,0.314,10.7 c-0.192,1.857-0.749,3.42-1.861,5.226c-0.721,1.169-2.07,2.266-3.022,2.99c-1.313,0.998-2.474,1.633-3.654,1.996 C34.209,39.972,33.373,40.092,32.528,40.092z M24.055,32.57c0.02,0,0.04,0.001,0.061,0.004c0.192,0.023,0.354,0.155,0.414,0.34 c0.767,2.325,1.953,3.909,3.732,4.985c1.96,1.186,4.37,1.511,6.446,0.873c1.064-0.328,2.126-0.912,3.343-1.837 c0.889-0.676,2.143-1.692,2.776-2.72c1.029-1.669,1.542-3.104,1.717-4.803c0.35-3.394,0.556-6.997-0.289-10.354 c-0.86-3.416-3.214-6.429-6.143-7.861c-1.149-0.563-2.221-0.748-3.462-0.962c-0.302-0.053-0.612-0.106-0.932-0.167 c-0.313-0.06-0.655-0.083-1.016-0.093c4.113,2.769,6.908,6.684,7.878,11.04c1.029,4.623,0.207,9.594-2.256,13.639 c-0.403,0.662-1.017,1.545-1.65,1.998c-0.724,0.517-1.661,0.781-2.865,0.81c-1.31,0.041-2.448-0.215-3.373-0.731 c-2.439-1.365-3.103-4.601-3.587-6.962c-0.026-0.126-0.002-0.256,0.065-0.365c1.135-1.822,1.615-4.309,1.907-6.271 c0.38-2.557,0.563-5.203-0.655-7.246c-0.597-1-1.773-1.791-2.701-1.39c-0.697,0.302-1.494,1.407-1.741,2.193 c-1.238,3.942-0.687,8.69,1.474,12.702c0.054,0.101,0.072,0.216,0.052,0.328c-0.439,2.379-2.098,5.503-4.702,6.739 c-2.607,1.237-5.841,0.608-7.521-1.467c-0.504-0.623-0.909-1.398-1.271-2.44c-0.559-1.606-0.908-3.44-1.098-5.77 c-0.091-1.124-0.119-2.032-0.088-2.859c0.215-5.771,3.691-11.193,8.71-13.924c-3.804,0.285-7.042,1.787-9.458,4.411 c-0.901,0.98-1.539,1.93-1.948,2.901c-0.385,0.912-0.628,1.995-0.766,3.407c-0.21,2.138-0.161,4.468,0.154,7.334 c0.276,2.519,0.813,5.324,2.697,7.038c0.369,0.336,0.782,0.622,1.174,0.881c0.438,0.29,0.872,0.617,1.308,0.947 c1.046,0.793,2.128,1.612,3.31,1.873c1.831,0.404,3.609,0.213,5.01-0.536c0.524-0.281,1.132-0.976,1.667-1.588 c0.232-0.266,0.452-0.517,0.65-0.719c1.091-1.115,1.902-2.115,2.55-3.146C23.724,32.657,23.885,32.57,24.055,32.57z"/></svg>