<svg xmlns="http://www.w3.org/2000/svg" width="512" height="512" viewBox="0 0 512 512"><path fill="#EDC92F" d="M256,7.9C119,7.9,7.9,119,7.9,256C7.9,393,119,504.1,256,504.1c137,0,248.1-111.1,248.1-248.1C504.1,119,393,7.9,256,7.9z"/><path fill="#CC821F" d="M103.8 167.9c0 0-6-15.6-2.3-22.6 0 0-8.7 7.1-1.2 26.6l34.5 75.9 2.5-4.8L103.8 167.9zM145.6 162.6c0 0-1.3-16.7 4.4-22.3 0 0-10.4 4.3-8.8 25.2l13.9 75.3 8.1-1.8L145.6 162.6z"/><path fill="#E79E2F" d="M87.4 231.2l-12.9-23.4c-3.2-5.3-9.8-7.1-9.8-7.1-13.1-2-21.3 10.6-21.3 10.6-7.1 15.1 28.2 56.5 28.2 56.5s34.3 46.4 41.3 55.4c7.1 9.1 25.2 18.1 25.2 18.1l13.5-15.6L87.4 231.2zM153.9 220l-17.2-73.9c-2.3-6.4-8.1-9-8.1-9-12.4-4.8-26.6 7.1-26.6 7.1-9.8 11.7 17 62.4 17 62.4s23.9 51.2 28.9 61.6c4.9 10.4 18.6 23.4 18.6 23.4l3.3-31.5L153.9 220z"/><path fill="#E79E2F" d="M185.5,175.9l-1.9-26.7c-1.1-7.7-6-10.5-6-10.5c-11.1-7.3-27.5,1.3-27.5,1.3c-12.7,10.8,2.3,64.6,2.3,64.6s9.1,48.2,15.8,64.5c4.4,10.6,13.9,28.6,13.9,28.6l22.5-9.2L185.5,175.9z"/><path fill="#E79E2F" d="M246.3,190c0,0-9.6-13.6-27-5.2c0,0-5.4,1.2-7.4,9.6l-5.6,26.1l-34.5,109l21,12.2c0,0,14.8-13.9,19-24.6c4.2-10.7,24.3-63,24.3-63S257.4,202.4,246.3,190z"/><path fill="#E79E2F" d="M232.9,308.3c2.8-6.3,8.6-36.8,10.8-76.1l-34.3,2.8l-6.8,28l-65.8,9.1L113,323.1c0,0,9.3,15.1,25.2,18.1l7.8,42.6c0,0,39.3-14.4,84.7-22.7c0,0-1.5-34.8-4.5-43.9C226.1,317.4,230.2,314.6,232.9,308.3z"/><path fill="#E79E2F" d="M126.3,226.9l-25-53.4c-3.9-6.9-9.1-7.9-9.1-7.9c-12.9-3.2-24.1,10.1-24.1,10.1c-8.4,14.4,22.7,60.8,22.7,60.8s30.1,47.3,36.3,57c6.2,9.7,23.4,20.4,23.4,20.4l17.4-15.9L126.3,226.9z"/><g><path fill="#CC821F" d="M71.1,199c0,0-6.8-15.3-3.4-22.5c0,0-8.3,7.6,0.2,26.7l34.2,53.4L71.1,199z"/></g><g><path fill="#CC821F" d="M410.5 145.2c3.8 7-2.3 22.6-2.3 22.6L374.6 243l2.5 4.8 34.5-75.9C419.2 152.4 410.5 145.2 410.5 145.2zM362 140.3c5.6 5.6 4.4 22.3 4.4 22.3L348.9 239l8.1 1.8 13.9-75.3C372.4 144.6 362 140.3 362 140.3z"/><path fill="#E79E2F" d="M468.6 211.2c0 0-8.2-12.6-21.3-10.6 0 0-6.6 1.8-9.8 7.1l-12.9 23.4-64.3 94.5 13.5 15.6c0 0 18.1-9.1 25.2-18.1 7.1-9.1 41.3-55.4 41.3-55.4S475.6 226.4 468.6 211.2zM409.9 144.2c0 0-14.2-11.9-26.6-7.1 0 0-5.8 2.6-8.1 9L358.1 220l-16 40.1 3.3 31.5c0 0 13.7-13.1 18.6-23.4 4.9-10.4 28.9-61.6 28.9-61.6S419.7 155.9 409.9 144.2z"/><path fill="#E79E2F" d="M361.8,140.1c0,0-16.4-8.6-27.5-1.3c0,0-4.9,2.8-6,10.5l-1.9,26.7l-19,112.7l22.5,9.2c0,0,9.5-17.9,13.9-28.6c6.7-16.3,15.8-64.5,15.8-64.5S374.6,150.9,361.8,140.1z"/><path fill="#E79E2F" d="M305.7,220.5l-5.6-26.1c-2-8.4-7.4-9.6-7.4-9.6c-15.7-7.3-27,5.2-27,5.2c-11.1,12.5,10.3,64.1,10.3,64.1s20.2,52.3,24.3,63c4.2,10.7,19,24.6,19,24.6l21-12.2L305.7,220.5z"/><path fill="#E79E2F" d="M375.1,272l-65.8-9.1l-6.8-28l-34.3-2.8c2.3,39.3,8.1,69.8,10.8,76.1c2.8,6.3,6.8,9.1,6.8,9.1c-3,9.1-4.5,43.9-4.5,43.9c45.4,8.3,84.7,22.7,84.7,22.7l7.8-42.6c15.9-3,25.2-18.1,25.2-18.1L375.1,272z"/><path fill="#E79E2F" d="M443.9,175.6c0,0-11.2-13.3-24.1-10.1c0,0-5.2,1.1-9.1,7.9l-25,53.4l-41.6,71.1l17.4,15.9c0,0,17.2-10.7,23.4-20.4c6.2-9.7,36.3-57,36.3-57S452.3,190.1,443.9,175.6z"/><g><path fill="#CC821F" d="M444.3,176.5c3.4,7.2-3.4,22.5-3.4,22.5l-31,57.6l34.2-53.4C452.6,184.1,444.3,176.5,444.3,176.5z"/></g></g></svg>