<svg xmlns="http://www.w3.org/2000/svg" viewBox="0 0 24 24"><path d="M 6.5 1 C 2.051 1 0.27221875 3.3023906 0.19921875 3.4003906 L 0 3.6679688 L 0 22 L 9.7792969 22 C 10.32882 22.609642 11.116712 23 12 23 C 12.883288 23 13.67118 22.609642 14.220703 22 L 24 22 L 24 3.6679688 L 23.800781 3.4003906 C 23.727781 3.3023906 21.949 1 17.5 1 C 14.666 1 12.916 1.9346719 12 2.6386719 C 11.084 1.9346719 9.334 1 6.5 1 z M 6.5 3 C 9.2706597 3 10.575736 3.9970271 11 4.4023438 L 11 19.199219 C 9.8802118 18.615799 8.2819827 18 6.5 18 C 4.722 18 3.119 18.613312 2 19.195312 L 2 4.3964844 C 2.482 3.9564844 3.838 3 6.5 3 z M 17.5 3 C 20.17 3 21.525 3.9615313 22 4.3945312 L 22 19.195312 C 20.881 18.613312 19.278 18 17.5 18 C 15.718017 18 14.119788 18.615799 13 19.199219 L 13 4.4042969 C 13.435509 3.9892658 14.741678 3 17.5 3 z M 17 6 L 17 7.046875 C 16.522423 7.1351648 16.124202 7.3161068 15.816406 7.6015625 C 15.444406 7.9465625 15.259766 8.3869219 15.259766 8.9199219 C 15.259766 9.2379219 15.311016 9.5084219 15.416016 9.7324219 C 15.520016 9.9564219 15.669234 10.152266 15.865234 10.322266 C 16.061234 10.492266 16.295406 10.642484 16.566406 10.771484 C 16.836406 10.900484 17.131172 11.028297 17.451172 11.154297 C 17.770172 11.280297 17.994094 11.414641 18.121094 11.556641 C 18.249094 11.698641 18.3125 11.893578 18.3125 12.142578 C 18.3125 12.366578 18.248094 12.542922 18.121094 12.669922 C 17.993094 12.796922 17.819656 12.861328 17.597656 12.861328 C 17.294656 12.861328 17.059531 12.767078 16.894531 12.580078 C 16.729531 12.393078 16.648438 12.118766 16.648438 11.759766 L 15 11.759766 C 15 12.412766 15.190312 12.938891 15.570312 13.337891 C 15.911335 13.695067 16.395268 13.932663 17 13.984375 L 17 15 L 18 15 L 18 14 C 18.61 13.943 19.075687 13.794078 19.429688 13.455078 C 19.783688 13.114078 19.960938 12.673766 19.960938 12.134766 C 19.960938 11.816766 19.905922 11.543406 19.794922 11.316406 C 19.683922 11.089406 19.529984 10.890703 19.333984 10.720703 C 19.137984 10.549703 18.905719 10.397672 18.636719 10.263672 C 18.367719 10.129672 18.082297 10.000953 17.779297 9.8769531 C 17.476297 9.7519531 17.256141 9.6194219 17.119141 9.4824219 C 16.982141 9.3454219 16.912109 9.1607344 16.912109 8.9277344 C 16.912109 8.6977344 16.972797 8.5177188 17.091797 8.3867188 C 17.209797 8.2557188 17.37775 8.1894531 17.59375 8.1894531 C 17.83475 8.1894531 18.020391 8.276125 18.150391 8.453125 C 18.280391 8.630125 18.345703 8.8829375 18.345703 9.2109375 L 20 9.2109375 C 20 8.6119375 19.829281 8.1175156 19.488281 7.7285156 C 19.148281 7.3385156 18.626 7.068 18 7 L 18 6 L 17 6 z"/></svg>