<svg xmlns="http://www.w3.org/2000/svg" viewBox="0 0 26 26"><path d="M 0.90625 -0.03125 C 0.863281 -0.0234375 0.820313 -0.0117188 0.78125 0 C 0.40625 0.0664063 0.105469 0.339844 0 0.703125 C -0.105469 1.070313 0.00390625 1.460938 0.28125 1.71875 L 10.53125 11.9375 C 10.613281 12.089844 10.730469 12.21875 10.875 12.3125 L 24.28125 25.71875 C 24.679688 26.117188 25.320313 26.117188 25.71875 25.71875 C 26.117188 25.320313 26.117188 24.679688 25.71875 24.28125 L 16.125 14.6875 C 19.285156 14.957031 22.042969 14.894531 23.59375 13.5 C 26.09375 11.101563 26 7.199219 26 7 C 26 6.398438 25.601563 6 25 6 C 24.398438 6 24 6.5 24 7 C 24 7 23.992188 7.328125 23.9375 7.8125 L 14.21875 2.6875 C 14.847656 2.191406 15.375 1.875 15.375 1.875 C 15.800781 1.648438 16.003906 1.148438 15.859375 0.691406 C 15.710938 0.230469 15.257813 -0.0585938 14.78125 0 C 14.660156 0.0195313 14.542969 0.0625 14.4375 0.125 C 14.4375 0.125 11.234375 1.667969 10.15625 4.78125 C 10.15625 4.792969 10.15625 4.800781 10.15625 4.8125 C 9.953125 5.488281 9.660156 6.699219 9.75 8.3125 L 1.71875 0.28125 C 1.511719 0.0585938 1.210938 -0.0546875 0.90625 -0.03125 Z M 13.4375 3.375 L 23.78125 8.875 C 23.664063 9.414063 23.488281 9.996094 23.21875 10.5625 L 12.75 4.15625 C 12.964844 3.871094 13.195313 3.613281 13.4375 3.375 Z M 12.25 5 L 22.71875 11.40625 C 22.5625 11.621094 22.382813 11.816406 22.1875 12 C 21.949219 12.21875 21.617188 12.378906 21.21875 12.5 L 11.875 6.15625 C 11.9375 5.855469 12.003906 5.578125 12.0625 5.375 C 12.109375 5.246094 12.1875 5.125 12.25 5 Z M 11.71875 7.28125 L 19.78125 12.75 C 18.121094 12.878906 15.953125 12.699219 13.90625 12.46875 L 12.28125 10.84375 C 11.800781 9.410156 11.671875 8.214844 11.71875 7.28125 Z M 8 12 C 5.800781 12 4.007813 12.304688 2.90625 13.40625 C 1.40625 15.007813 0.300781 16.914063 0 18.8125 C -0.101563 19.3125 0.3125 19.898438 0.8125 20 L 1 20 C 1.5 20 1.898438 19.6875 2 19.1875 C 2.03125 19.023438 2.078125 18.855469 2.125 18.6875 L 10.96875 23.875 C 10.851563 23.945313 10.59375 24.09375 10.59375 24.09375 C 10.09375 24.394531 9.988281 25 10.1875 25.5 C 10.386719 25.800781 10.695313 26 11.09375 26 C 11.292969 26 11.394531 26.007813 11.59375 25.90625 C 11.695313 25.90625 13.199219 24.988281 14.5 23.6875 C 15.300781 22.886719 15.898438 21.601563 16 20 L 12.75 16.6875 C 12.773438 16.710938 12.8125 16.761719 12.8125 16.8125 C 13.640625 17.769531 13.910156 18.742188 13.9375 19.625 L 6.46875 14.0625 C 7.503906 13.949219 8.761719 13.988281 10.09375 14.09375 Z M 5.1875 14.34375 L 13.84375 20.75 C 13.746094 21.148438 13.609375 21.503906 13.4375 21.78125 L 3.875 15.40625 C 4.042969 15.203125 4.214844 15.003906 4.40625 14.8125 C 4.601563 14.617188 4.871094 14.460938 5.1875 14.34375 Z M 3.28125 16.21875 L 12.75 22.5 C 12.441406 22.78125 12.15625 23.039063 11.875 23.25 L 2.46875 17.75 C 2.679688 17.234375 2.953125 16.714844 3.28125 16.21875 Z"/></svg>