<svg xmlns="http://www.w3.org/2000/svg" viewBox="0 0 100 100"><path fill="#c7ede6" d="M88.704,55.674c0.3-0.616,0.566-1.264,0.796-1.943c2.633-7.77-1.349-17.078-9.733-19.325C78.86,23.023,70.86,15.214,61.826,13.881c-10.341-1.525-19.814,5.044-22.966,15.485c-3.799-1.346-7.501-1.182-10.99,0.857c-1.583,0.732-3.031,1.812-4.33,3.233c-1.907,2.086-3.147,4.719-3.652,7.495c-0.748,0.118-1.483,0.236-2.176,0.484c-4.04,1.449-6.589,4.431-7.288,8.923c-0.435,2.797,0.443,5.587,0.933,6.714c1.935,4.455,6.422,6.98,10.981,6.312c0.227-0.033,0.557,0.069,0.752,0.233c0.241,7.12,3.698,13.417,8.884,17.014c8.321,5.772,19.027,3.994,25.781-3.921c2.894,2.96,6.338,4.398,10.384,3.876c4.023-0.519,7.147-2.739,9.426-6.349c1.053,0.283,2.051,0.691,3.083,0.804c4.042,0.442,7.324-1.165,9.732-4.8c0.922-1.391,1.793-3.194,1.793-6.354C92.174,60.631,90.881,57.664,88.704,55.674z"/><path fill="#fdfcef" d="M72.968,49.843c0,0,11.691,0,11.762,0c2.7,0,4.888-2.189,4.888-4.889c0-2.355-1.666-4.321-3.884-4.784c0.026-0.206,0.043-0.415,0.043-0.628c0-2.796-2.267-5.063-5.063-5.063c-1.651,0-3.113,0.794-4.037,2.017c-0.236-3.113-3.017-5.514-6.27-5.116c-2.379,0.291-4.346,2.13-4.784,4.486c-0.14,0.756-0.126,1.489,0.014,2.177c-0.638-0.687-1.546-1.119-2.557-1.119c-1.85,0-3.361,1.441-3.48,3.261c-0.84-0.186-1.754-0.174-2.717,0.188c-1.84,0.691-3.15,2.423-3.227,4.387c-0.109,2.789,2.12,5.085,4.885,5.085c0.21,0,0.948,0,1.118,0h10.151"/><path fill="#472b29" d="M84.73,50.343H72.967c-0.276,0-0.5-0.224-0.5-0.5s0.224-0.5,0.5-0.5H84.73c2.419,0,4.388-1.969,4.388-4.389c0-2.066-1.466-3.872-3.486-4.295c-0.255-0.054-0.427-0.294-0.394-0.553c0.023-0.186,0.039-0.373,0.039-0.564c0-2.517-2.047-4.563-4.562-4.563c-1.438,0-2.765,0.663-3.639,1.818c-0.125,0.165-0.343,0.237-0.539,0.178c-0.2-0.059-0.342-0.234-0.358-0.441c-0.104-1.377-0.778-2.671-1.85-3.549c-1.083-0.888-2.456-1.282-3.86-1.109c-2.165,0.265-3.955,1.943-4.354,4.082c-0.123,0.667-0.119,1.335,0.014,1.985c0.044,0.22-0.062,0.442-0.262,0.544c-0.197,0.104-0.442,0.061-0.595-0.104c-0.575-0.618-1.353-0.959-2.19-0.959c-1.568,0-2.878,1.228-2.981,2.794c-0.01,0.146-0.082,0.279-0.199,0.367c-0.116,0.087-0.269,0.118-0.407,0.088c-0.843-0.187-1.639-0.132-2.434,0.167c-1.668,0.627-2.835,2.21-2.902,3.939c-0.048,1.207,0.386,2.349,1.221,3.217c0.835,0.869,1.959,1.348,3.164,1.348h11.269c0.276,0,0.5,0.224,0.5,0.5s-0.224,0.5-0.5,0.5H58.542c-1.479,0-2.859-0.588-3.885-1.654c-1.025-1.065-1.558-2.469-1.5-3.949c0.084-2.126,1.511-4.069,3.551-4.836c0.801-0.3,1.628-0.399,2.468-0.299c0.378-1.822,1.998-3.182,3.905-3.182c0.685,0,1.354,0.18,1.944,0.51c-0.001-0.385,0.034-0.771,0.106-1.158c0.477-2.563,2.621-4.574,5.215-4.892c1.674-0.204,3.32,0.266,4.615,1.328c1.004,0.823,1.717,1.951,2.038,3.193c1.013-0.916,2.319-1.426,3.714-1.426c3.067,0,5.562,2.496,5.562,5.563c0,0.083-0.002,0.166-0.007,0.248c2.254,0.674,3.848,2.777,3.848,5.164C90.118,47.926,87.701,50.343,84.73,50.343z"/><path fill="#fdfcef" d="M70.135,39.075c-1.808-0.119-3.365,1.13-3.476,2.789c-0.014,0.206-0.005,0.409,0.025,0.606c-0.349-0.394-0.865-0.661-1.458-0.7c-1.085-0.071-2.022,0.645-2.158,1.62c-0.197-0.054-0.403-0.09-0.616-0.104c-1.582-0.104-2.944,0.989-3.042,2.441"/><path fill="#472b29" d="M59.41,45.976c-0.006,0-0.011,0-0.017-0.001c-0.138-0.009-0.242-0.128-0.232-0.266c0.106-1.586,1.577-2.781,3.308-2.674c0.136,0.009,0.272,0.026,0.408,0.053c0.274-0.968,1.248-1.646,2.366-1.567c0.425,0.027,0.823,0.16,1.163,0.382c0.001-0.019,0.002-0.038,0.004-0.057c0.119-1.794,1.801-3.16,3.741-3.021c0.138,0.009,0.242,0.128,0.232,0.266c-0.008,0.137-0.103,0.257-0.266,0.232c-1.666-0.115-3.107,1.036-3.21,2.557c-0.013,0.183-0.005,0.368,0.023,0.552c0.017,0.109-0.04,0.218-0.141,0.265c-0.101,0.045-0.221,0.021-0.294-0.061c-0.322-0.364-0.779-0.583-1.287-0.617c-0.942-0.045-1.775,0.555-1.894,1.404c-0.011,0.071-0.051,0.135-0.11,0.175s-0.136,0.052-0.203,0.032c-0.188-0.051-0.378-0.083-0.567-0.097c-1.466-0.086-2.688,0.897-2.776,2.209C59.65,45.875,59.541,45.976,59.41,45.976z"/><path fill="#fdfcef" d="M86.709,40.743c-1.699-0.801-3.664-0.234-4.389,1.267c-0.09,0.186-0.157,0.379-0.201,0.574"/><path fill="#472b29" d="M82.12,42.834c-0.018,0-0.036-0.002-0.055-0.006c-0.135-0.03-0.22-0.164-0.189-0.299c0.049-0.215,0.122-0.426,0.219-0.627c0.784-1.622,2.903-2.242,4.722-1.385c0.125,0.06,0.179,0.208,0.12,0.333c-0.06,0.126-0.21,0.176-0.333,0.12c-1.576-0.744-3.394-0.226-4.059,1.148c-0.08,0.167-0.141,0.342-0.181,0.52C82.337,42.754,82.234,42.834,82.12,42.834z"/><path fill="#fff" d="M18.369 47.711H8.338c-.276 0-.5-.224-.5-.5s.224-.5.5-.5h10.03c.276 0 .5.224.5.5S18.645 47.711 18.369 47.711zM21.25 47.711h-1.445c-.276 0-.5-.224-.5-.5s.224-.5.5-.5h1.445c.276 0 .5.224.5.5S21.526 47.711 21.25 47.711zM25.304 47.711h-2.546c-.276 0-.5-.224-.5-.5s.224-.5.5-.5h2.546c.276 0 .5.224.5.5S25.581 47.711 25.304 47.711zM25.304 49.575h-9.616c-.276 0-.5-.224-.5-.5s.224-.5.5-.5h9.616c.276 0 .5.224.5.5S25.581 49.575 25.304 49.575zM13.957 49.575h-.58c-.276 0-.5-.224-.5-.5s.224-.5.5-.5h.58c.276 0 .5.224.5.5S14.233 49.575 13.957 49.575zM11.58 49.575h-1.456c-.276 0-.5-.224-.5-.5s.224-.5.5-.5h1.456c.276 0 .5.224.5.5S11.856 49.575 11.58 49.575zM20.715 45.845h-5.027c-.276 0-.5-.224-.5-.5s.224-.5.5-.5h5.027c.276 0 .5.224.5.5S20.992 45.845 20.715 45.845zM20.715 43.98h-1.257c-.276 0-.5-.224-.5-.5s.224-.5.5-.5h1.257c.276 0 .5.224.5.5S20.992 43.98 20.715 43.98zM17.447 51.44h-1.759c-.276 0-.5-.224-.5-.5s.224-.5.5-.5h1.759c.276 0 .5.224.5.5S17.723 51.44 17.447 51.44zM71.546 21.433h-10.03c-.276 0-.5-.224-.5-.5s.224-.5.5-.5h10.03c.276 0 .5.224.5.5S71.823 21.433 71.546 21.433zM74.427 21.433h-1.445c-.276 0-.5-.224-.5-.5s.224-.5.5-.5h1.445c.276 0 .5.224.5.5S74.704 21.433 74.427 21.433zM78.482 21.433h-2.546c-.276 0-.5-.224-.5-.5s.224-.5.5-.5h2.546c.276 0 .5.224.5.5S78.758 21.433 78.482 21.433zM76.457 17.704H66.84c-.276 0-.5-.224-.5-.5s.224-.5.5-.5h9.616c.276 0 .5.224.5.5S76.733 17.704 76.457 17.704zM65.108 17.704h-.579c-.276 0-.5-.224-.5-.5s.224-.5.5-.5h.579c.276 0 .5.224.5.5S65.384 17.704 65.108 17.704zM62.732 17.704h-1.457c-.276 0-.5-.224-.5-.5s.224-.5.5-.5h1.457c.276 0 .5.224.5.5S63.008 17.704 62.732 17.704zM73.893 19.568h-5.027c-.276 0-.5-.224-.5-.5s.224-.5.5-.5h5.027c.276 0 .5.224.5.5S74.169 19.568 73.893 19.568z"/><path fill="#fff" d="M73.893 17.704h-1.257c-.276 0-.5-.224-.5-.5s.224-.5.5-.5h1.257c.276 0 .5.224.5.5S74.169 17.704 73.893 17.704zM67.411 19.568h-1.759c-.276 0-.5-.224-.5-.5s.224-.5.5-.5h1.759c.276 0 .5.224.5.5S67.687 19.568 67.411 19.568z"/><path fill="#edf7f5" d="M72.617,29.282l2.491-0.038c0.142-5.083-5.983-4.773-5.983-4.773l-30.167-0.004c-2.314,0-4.227,2.526-4.227,4.593v26.08l-5.998-0.017c-0.005,0.217,0.003,12.478,0.022,12.673c0.392,4.033,5.651,3.582,5.651,3.582l35.105,0.025c1.892,0.176,3.107-2.082,3.107-3.336C72.617,66.812,72.617,29.282,72.617,29.282"/><path fill="#472b29" d="M34.224,69.691c-0.387,0-0.7-0.313-0.7-0.7s0.313-0.7,0.7-0.7c0.128,0,0.161-0.036,0.182-0.058c0.126-0.136,0.26-0.523,0.18-1.599l0.047-37.574c0-2.396,2.198-5.293,4.928-5.293l30.167,0.004c0.102-0.005,3.354-0.148,5.294,1.749c0.965,0.943,1.432,2.202,1.389,3.743c-0.011,0.379-0.32,0.68-0.699,0.681l-22.938,0.038h-0.001c-0.386,0-0.699-0.312-0.7-0.699c0-0.387,0.312-0.7,0.699-0.701l22.214-0.037c-0.089-0.825-0.398-1.49-0.938-2.02c-1.498-1.469-4.257-1.354-4.285-1.354L39.56,25.168c-1.866,0-3.527,2.177-3.527,3.894l-0.049,37.522c0.068,0.891,0.058,1.944-0.553,2.602C35.125,69.516,34.708,69.691,34.224,69.691z"/><path fill="#472b29" d="M70.326 72.087c-.091 0-.182-.005-.273-.013l-34.987-.021c-1.993.168-5.976-.478-6.338-4.205-.026-.257-.027-12.628-.025-12.726.011-.38.321-.682.7-.682.001 0 .001 0 .002 0l5.329.017c.387.001.699.315.698.702-.001.386-.314.698-.7.698-.001 0-.001 0-.002 0l-4.628-.015c0 2.562.004 11.463.021 11.897.317 3.252 4.7 2.933 4.884 2.915l35.11.021c.525.042.963-.119 1.369-.488.646-.59 1.033-1.551 1.033-2.139V29.282c0-.387.313-.7.7-.7s.7.313.7.7V68.05c0 1.068-.613 2.374-1.491 3.174C71.805 71.792 71.084 72.087 70.326 72.087zM49.765 29.982h-3.007c-.387 0-.7-.313-.7-.7s.313-.7.7-.7h3.007c.387 0 .7.313.7.7S50.152 29.982 49.765 29.982zM49.464 38.377H38.64c-.207 0-.375-.168-.375-.375s.168-.375.375-.375h10.824c.207 0 .375.168.375.375S49.671 38.377 49.464 38.377z"/><path fill="#472b29" d="M71.114 38.377H51.269c-.207 0-.375-.168-.375-.375s.168-.375.375-.375h19.845c.207 0 .375.168.375.375S71.321 38.377 71.114 38.377zM71.518 42.39H52.876c-.207 0-.375-.168-.375-.375s.168-.375.375-.375h18.643c.207 0 .375.168.375.375S71.725 42.39 71.518 42.39zM63.929 49.337H52.876c-.207 0-.375-.168-.375-.375s.168-.375.375-.375h11.054c.207 0 .375.168.375.375S64.136 49.337 63.929 49.337z"/><path fill="#9dc3ea" d="M50.414 43.309L50.414 52.435 38.64 52.435 38.64 41.203 48.336 41.203"/><path fill="#472b29" d="M50.415 52.809H38.64c-.207 0-.375-.168-.375-.375V41.203c0-.207.168-.375.375-.375h9.696c.207 0 .375.168.375.375s-.168.375-.375.375h-9.321v10.481H50.04v-8.751c0-.207.168-.375.375-.375s.375.168.375.375v9.126C50.79 52.641 50.622 52.809 50.415 52.809zM60.858 52.809h-7.982c-.207 0-.375-.168-.375-.375s.168-.375.375-.375h7.982c.207 0 .375.168.375.375S61.065 52.809 60.858 52.809zM62.695 34.768h-8.419c-.207 0-.375-.168-.375-.375s.168-.375.375-.375h8.419c.207 0 .375.168.375.375S62.902 34.768 62.695 34.768zM71.114 34.768h-6.615c-.207 0-.375-.168-.375-.375s.168-.375.375-.375h6.615c.207 0 .375.168.375.375S71.321 34.768 71.114 34.768zM52.471 34.768H38.64c-.207 0-.375-.168-.375-.375s.168-.375.375-.375h13.831c.207 0 .375.168.375.375S52.678 34.768 52.471 34.768zM57.283 66.04H38.64c-.207 0-.375-.168-.375-.375s.168-.375.375-.375h18.643c.207 0 .375.168.375.375S57.49 66.04 57.283 66.04zM55.804 61.83H38.64c-.207 0-.375-.168-.375-.375s.168-.375.375-.375h17.164c.207 0 .375.168.375.375S56.011 61.83 55.804 61.83zM52.887 57.621H38.64c-.207 0-.375-.168-.375-.375s.168-.375.375-.375h14.247c.207 0 .375.168.375.375S53.094 57.621 52.887 57.621zM65.604 45.864H52.876c-.207 0-.375-.168-.375-.375s.168-.375.375-.375h12.729c.207 0 .375.168.375.375S65.811 45.864 65.604 45.864z"/><path fill="#cad34f" d="M38.619 46.365c-.01-.052.014-.178.033-.279.019-.099.037-.193.037-.264 0-.069.096-.226.159-.33.048-.079.09-.147.109-.199.029-.079.141-.261.24-.423.043-.07.085-.138.119-.196.029-.049.089-.152.027-.218-.02-.022-.043-.028-.07-.03.008-.008.015-.015.02-.019.069-.049.458-.341.468-.35.007-.008.174-.193-.01-.557-.066-.129-.048-.164-.025-.209.015-.029.034-.066.034-.117 0-.034-.02-.065-.051-.076-.004-.002-.026-.009-.056-.014-.027-.003-.055.009-.071.032-.749 1.08-1.161 2.359-1.191 3.697-.001.039.024.073.06.081.005.001.011.002.016.002.03 0 .058-.019.07-.05C38.58 46.745 38.64 46.477 38.619 46.365zM40.842 50.185c-.043-.009-.129-.076-.192-.124-.098-.076-.157-.12-.212-.12-.048 0-.147-.04-.208-.083-.025-.018-.059-.036-.094-.055C40.087 49.776 40.02 49.741 40 49.71c-.03-.047-.104-.171-.153-.301l-.018-.051c-.03-.089-.048-.129-.201-.312l-.03-.035c-.124-.149-.132-.158-.213-.199l-.055-.028c-.06-.032-.102-.064-.142-.095-.046-.035-.093-.072-.16-.101-.105-.045-.149-.081-.23-.156-.061-.057-.115-.091-.163-.104-.026-.006-.053.001-.072.021-.019.02-.027.048-.021.076.272 1.269.894 2.415 1.799 3.314.009.009.02.016.033.019.024.007.046.009.065.009.042 0 .074-.012.1-.022.022-.009.038-.015.06-.015.112 0 .25-.117.277-.14.024-.021.033-.056.023-.088l-.084-.268.085-.337.113-.337c.003-.009.004-.018.004-.027C41.018 50.501 41.013 50.222 40.842 50.185zM42.198 41.242c.021 0 .042-.009.056-.026 0 0 .088-.102.161-.201.021-.029.022-.069.001-.098-.02-.029-.056-.04-.088-.027-.726.297-1.385.733-1.959 1.297-.008.008-.015.018-.019.029-.012.031-.022.061-.03.091-.011.047 0 .091.03.119.049.047.131.035.2.012l.178.084c.01.005.02.007.031.007.009 0 .018-.002.026-.005l.251-.097c.018-.007.033-.021.042-.04.001-.001.064-.131.205-.237.119-.091.15-.136.185-.199.01-.017.02-.037.038-.061.03-.043.03-.043.056-.07.029-.031.086-.092.236-.263C42.058 41.258 42.199 41.242 42.198 41.242L42.198 41.242zM48.739 49.602c-.03-.002-.061.013-.076.042l-.17.339c-.102.048-.289.149-.317.262-.02.084-.04.203-.045.239-.023.054-.114.273-.137.368-.023.098.003.266.073.335.024.023.052.036.081.036.012 0 .024-.002.036-.006.057-.02.117-.081.18-.145.033-.033.064-.066.089-.083.088-.063.21-.275.237-.388.014-.059.036-.146.056-.226l.035-.137 0-.001c.024-.101.048-.301.049-.384 0-.081-.024-.185-.025-.19C48.796 49.63 48.77 49.606 48.739 49.602z"/><path fill="#cad34f" d="M47.77,41.442c-0.023-0.016-0.053-0.016-0.077-0.002l-0.048,0.03c-0.043,0.027-0.159,0.098-0.186,0.094c-0.046-0.048-0.127-0.116-0.181-0.16c0.003-0.015,0.003-0.028,0.002-0.038c-0.01-0.131-0.221-0.252-0.346-0.312c-0.008-0.004-0.017-0.006-0.026-0.007l-0.484-0.034h-0.342c-0.032,0-0.078,0.004-0.13,0.009c-0.06,0.006-0.129,0.013-0.191,0.013c-0.081,0-0.194,0.057-0.344,0.138c-0.059,0.032-0.126,0.068-0.154,0.075c-0.042,0.011-0.097,0.037-0.16,0.066c-0.068,0.032-0.171,0.08-0.209,0.08c-0.118,0-0.25,0.164-0.295,0.225c-0.132,0.258-0.079,0.326-0.062,0.348c0.014,0.018,0.055,0.055,0.131,0.029c0.115-0.041,0.23-0.035,0.245-0.029c0.012,0.037,0.029,0.085,0.046,0.134c0.012,0.034,0.024,0.068,0.034,0.097c-0.01-0.001-0.022,0-0.033,0.003c-0.143,0.051-0.261,0.126-0.281,0.141c-0.132,0.141-0.266,0.266-0.305,0.301c-0.04,0.015-0.154,0.062-0.236,0.128c-0.031,0.024-0.087,0.044-0.142,0.062c-0.085,0.029-0.173,0.059-0.218,0.126c-0.09,0.134-0.056,0.263,0.005,0.345l-0.092,0.128l-0.076,0.057l-0.316,0.069L43.1,43.594c-0.022,0.004-0.04,0.018-0.052,0.038c-0.012,0.02-0.014,0.045-0.008,0.067c0.008,0.029-0.003,0.151-0.027,0.278v0.411c0,0.036,0.023,0.068,0.056,0.078c0.08,0.023,0.347,0.1,0.42,0.1l0.033,0.001c0.088,0.004,0.25,0.011,0.353-0.098c0.096-0.103,0.247-0.325,0.294-0.4c0.037-0.059,0.088-0.12,0.208-0.162c0.094-0.033,0.143-0.078,0.179-0.11c0.022-0.02,0.034-0.03,0.048-0.035c0.041-0.015,0.196-0.045,0.302-0.065l0.156,0.111c-0.007,0.021-0.01,0.045,0,0.073c0.02,0.059,0.076,0.103,0.292,0.142v0.123c0,0.023,0.009,0.044,0.024,0.059c0.016,0.015,0.037,0.024,0.058,0.021l0.28-0.024c0.029-0.003,0.054-0.022,0.064-0.051s0.005-0.061-0.014-0.084l-0.162-0.194c-0.01-0.012-0.023-0.021-0.038-0.025l-0.233-0.249l-0.003-0.036c0.088,0.052,0.197,0.117,0.25,0.144c0.069,0.037,0.209,0.138,0.258,0.174l0.127,0.319c0.003,0.007,0.007,0.014,0.011,0.02l0.182,0.237c0.026,0.035,0.075,0.039,0.107,0.012c0.033-0.028,0.038-0.079,0.011-0.113c-0.073-0.096-0.09-0.16-0.09-0.169c0,0,0.012-0.009,0.047-0.01c0.055,0.006,0.239,0.024,0.317-0.004c0.057-0.02,0.105-0.038,0.161-0.065c-0.034,0.043-0.056,0.101-0.042,0.174c0.021,0.115,0.096,0.257,0.22,0.423c0.019,0.026,0.038,0.053,0.055,0.08c0.071,0.106,0.16,0.237,0.274,0.156c0.031-0.021,0.093-0.062,0.152-0.1c-0.003,0.048-0.003,0.099,0.006,0.146c0.012,0.062,0.017,0.14,0.02,0.197c-0.12,0.009-0.155,0.039-0.168,0.085c-0.004,0.015-0.015,0.069,0.043,0.11c0.022,0.015,0.054,0.061,0.085,0.109c-0.041-0.049-0.102-0.085-0.17-0.121c-0.045-0.024-0.092-0.048-0.125-0.075c-0.095-0.075-0.527-0.173-0.679-0.206c-0.099-0.064-0.228-0.123-0.303-0.059c-0.19,0.16-0.672,0.064-0.793,0.012c-0.093-0.039-0.136-0.089-0.136-0.119c0-0.079-0.082-0.364-0.106-0.449c-0.011-0.039-0.047-0.063-0.086-0.056c-0.084,0.016-0.233,0.041-0.278,0.041c-0.033,0-0.14-0.037-0.22-0.07c-0.011-0.005-0.023-0.007-0.035-0.005c-0.025,0.003-0.245,0.026-0.346,0.08c-0.083,0.045-0.26,0.115-0.331,0.14c-0.044,0.016-0.157,0.034-0.216,0.042c-0.233-0.093-0.416,0.135-0.49,0.289c-0.014,0.029-0.034,0.055-0.056,0.082c-0.039,0.048-0.088,0.108-0.088,0.196c0,0.04-0.104,0.16-0.195,0.224c-0.013,0.009-0.032,0.022-0.056,0.037c-0.147,0.096-0.295,0.198-0.354,0.304c-0.062,0.11-0.143,0.271-0.17,0.415C42.1,46.322,42.1,46.425,42.1,46.596c0,0.059-0.003,0.109-0.005,0.155c-0.005,0.087-0.01,0.169,0.007,0.272c0.027,0.178,0.289,0.577,0.358,0.669c0.099,0.132,0.216,0.279,0.341,0.358c0.094,0.06,0.225,0.176,0.257,0.205c0.049,0.069,0.177,0.165,0.356,0.093c0.071-0.028,0.145-0.045,0.216-0.062c0.107-0.025,0.217-0.051,0.321-0.113c0.157-0.094,0.258-0.127,0.298-0.129c0.003,0.098,0.041,0.182,0.104,0.23c0.061,0.047,0.141,0.057,0.224,0.027c0.022-0.008,0.046-0.017,0.071-0.027c0.044-0.017,0.128-0.051,0.17-0.056c-0.015,0.12,0.009,0.253,0.028,0.361c0.009,0.053,0.018,0.104,0.018,0.132c0,0.018-0.001,0.036-0.002,0.054c-0.004,0.083-0.009,0.186,0.07,0.27c0.023,0.024,0.058,0.054,0.095,0.086c0.044,0.037,0.125,0.106,0.135,0.124c0,0.061,0.019,0.327,0.076,0.449c0.054,0.114,0.072,0.216,0.048,0.268c-0.048,0.1-0.134,0.362-0.141,0.385c-0.01,0.056-0.042,0.246-0.015,0.331c0.031,0.098,0.102,0.207,0.211,0.324c0.055,0.059,0.078,0.125,0.102,0.195c0.019,0.055,0.038,0.111,0.073,0.16c0.052,0.075,0.153,0.295,0.19,0.379l0.117,0.224v0.197c0,0.024,0.01,0.046,0.027,0.062c0.014,0.012,0.031,0.019,0.049,0.019c0.004,0,0.009,0,0.013-0.001c0.016-0.003,0.392-0.073,0.485-0.098c0.107-0.029,0.361-0.208,0.459-0.312c0.049-0.053,0.072-0.099,0.092-0.14c0.021-0.044,0.038-0.078,0.088-0.121c0.114-0.097,0.321-0.266,0.321-0.266c0.02-0.016,0.031-0.043,0.029-0.069l-0.02-0.333l0.251-0.356l0.213-0.228c0.061-0.089,0.201-0.31,0.172-0.43c-0.015-0.065-0.046-0.356-0.064-0.55c0.03-0.07,0.097-0.214,0.144-0.281c0.029-0.043,0.047-0.086,0.064-0.128c0.028-0.068,0.054-0.132,0.128-0.198c0.124-0.11,0.213-0.239,0.278-0.333l0.055-0.08c0.073-0.104,0.188-0.266,0.229-0.331l0,0c0.04-0.063,0.074-0.192,0.103-0.313c0.007-0.021,0.005-0.045-0.007-0.066c-0.016-0.029-0.048-0.045-0.078-0.039l-0.362,0.064c-0.088-0.148-0.238-0.365-0.36-0.543c-0.092-0.134-0.18-0.261-0.206-0.308c-0.059-0.105-0.124-0.325-0.151-0.44c-0.016-0.068-0.067-0.196-0.112-0.31c-0.023-0.058-0.043-0.108-0.051-0.133c-0.001-0.003-0.004-0.008-0.005-0.011c0.246,0.377,0.563,0.879,0.595,0.948c0.014,0.03,0.02,0.073,0.026,0.117c0.011,0.075,0.023,0.161,0.079,0.22c0.17,0.181,0.472,0.034,0.574-0.038c0.021-0.015,0.056-0.036,0.098-0.061c0.128-0.077,0.229-0.14,0.281-0.194c0.045-0.047,0.045-0.047,0.095-0.081l0.076-0.053c0.125-0.089,0.207-0.154,0.216-0.245c0.003-0.031-0.003-0.077-0.045-0.122c-0.044-0.047-0.141-0.222-0.192-0.321c-0.016-0.032-0.05-0.048-0.083-0.04c-0.158,0.038-0.304-0.047-0.319-0.067c0-0.049-0.039-0.137-0.09-0.23c0.047,0.032,0.094,0.073,0.139,0.113C49.16,45.916,49.255,46,49.368,46c0.106,0,0.161,0.033,0.292,0.114l0.035,0.021c0.08,0.048,0.137,0.105,0.186,0.155c0.044,0.045,0.086,0.086,0.137,0.114c0.055,0.029,0.153,0.15,0.193,0.202c0.038,0.093,0.139,0.35,0.156,0.425l0,0.001c0.012,0.049,0.043,0.127,0.08,0.218c0.016,0.04,0.033,0.081,0.047,0.118c0.012,0.031,0.04,0.051,0.07,0.051c0.004,0,0.008,0,0.012-0.001c0.035-0.006,0.061-0.038,0.064-0.075l0.005-0.092c0.006-0.093,0.012-0.187,0.012-0.28C50.657,44.715,49.578,42.648,47.77,41.442z M46.851,43.851c-0.009-0.065-0.013-0.107,0.01-0.139c0.077-0.101,0.176-0.144,0.244-0.168c0.061-0.021,0.224-0.105,0.286-0.138l0.073,0.014c-0.122,0.128-0.101,0.173-0.087,0.202c0.008,0.016,0.038,0.067,0.116,0.045c0.048-0.009,0.218,0.071,0.324,0.156c0.02,0.016,0.02,0.056,0.014,0.091c-0.084-0.009-0.236-0.025-0.345-0.042c-0.17-0.025-0.425,0.023-0.436,0.025c-0.008,0.002-0.016,0.005-0.023,0.009l-0.188,0.112C46.867,43.966,46.858,43.9,46.851,43.851z M45.414,42.383c0.031,0.004,0.063-0.017,0.076-0.05c0-0.001,0.044-0.114,0.106-0.201c0.023-0.033,0.046-0.069,0.067-0.102c0.031,0.07,0.063,0.144,0.073,0.175c0.006,0.026-0.011,0.123-0.037,0.214c-0.103,0.068-0.224,0.138-0.245,0.143c-0.034-0.012-0.15-0.105-0.273-0.213C45.237,42.363,45.313,42.376,45.414,42.383z"/><path fill="#472b29" d="M50.415,52.809H38.64c-0.207,0-0.375-0.168-0.375-0.375V41.203c0-0.207,0.168-0.375,0.375-0.375h9.696c0.207,0,0.375,0.168,0.375,0.375s-0.168,0.375-0.375,0.375h-9.321v10.481H50.04v-8.751c0-0.207,0.168-0.375,0.375-0.375s0.375,0.168,0.375,0.375v9.126C50.79,52.641,50.622,52.809,50.415,52.809z"/><path fill="#fdfcef" d="M40.997,73.99c1.883,0,3.517,0,3.54,0c2.11,0,3.821-1.674,3.821-3.739c0-1.802-1.302-3.305-3.035-3.66c0.02-0.158,0.034-0.317,0.034-0.48c0-2.139-1.772-3.873-3.957-3.873c-1.29,0-2.433,0.607-3.155,1.543c-0.185-2.381-2.358-4.218-4.9-3.913c-1.859,0.223-3.397,1.629-3.739,3.431c-0.11,0.578-0.098,1.139,0.011,1.665c-0.498-0.525-1.208-0.856-1.998-0.856c-1.446,0-2.627,1.102-2.72,2.494c-0.657-0.142-1.371-0.133-2.123,0.143c-1.438,0.528-2.462,1.853-2.522,3.356c-0.085,2.133,1.657,3.889,3.818,3.889c0.164,0,0.741,0,0.874,0h7.934 M34.52,73.99h0.36"/><path fill="#472b29" d="M44.538,74.49h-3.54c-0.276,0-0.5-0.224-0.5-0.5s0.224-0.5,0.5-0.5h3.54c1.831,0,3.32-1.453,3.32-3.239c0-1.524-1.108-2.857-2.636-3.169c-0.255-0.053-0.428-0.293-0.396-0.552c0.017-0.138,0.029-0.276,0.029-0.419c0-1.86-1.551-3.373-3.457-3.373c-1.092,0-2.098,0.491-2.76,1.349c-0.125,0.164-0.343,0.23-0.538,0.174c-0.198-0.06-0.34-0.234-0.355-0.44c-0.079-1.02-0.565-1.944-1.369-2.604c-0.829-0.68-1.884-0.981-2.973-0.854c-1.647,0.197-3.007,1.442-3.308,3.028c-0.094,0.496-0.091,0.99,0.009,1.471c0.046,0.219-0.06,0.441-0.258,0.545c-0.197,0.102-0.439,0.064-0.595-0.1c-0.427-0.451-1.008-0.699-1.635-0.699c-1.169,0-2.145,0.891-2.221,2.027c-0.01,0.146-0.082,0.279-0.198,0.366c-0.117,0.089-0.265,0.122-0.407,0.089c-0.638-0.138-1.241-0.098-1.844,0.125c-1.262,0.463-2.145,1.631-2.195,2.906c-0.035,0.874,0.282,1.707,0.895,2.344c0.635,0.66,1.495,1.024,2.423,1.024h8.808c0.276,0,0.5,0.224,0.5,0.5s-0.224,0.5-0.5,0.5H24.07c-1.185,0-2.33-0.485-3.144-1.332c-0.803-0.835-1.219-1.928-1.174-3.076c0.068-1.675,1.213-3.204,2.85-3.806c0.612-0.224,1.241-0.307,1.881-0.244c0.345-1.396,1.629-2.424,3.135-2.424c0.493,0,0.977,0.113,1.414,0.322c0.009-0.241,0.036-0.482,0.082-0.725c0.381-2.01,2.096-3.587,4.171-3.835c1.37-0.167,2.686,0.218,3.726,1.072c0.748,0.613,1.278,1.409,1.546,2.302c0.791-0.648,1.786-1.007,2.843-1.007c2.458,0,4.457,1.962,4.457,4.373c0,0.034-0.001,0.068-0.002,0.103c1.765,0.554,3.004,2.188,3.004,4.037C48.858,72.588,46.919,74.49,44.538,74.49z M34.879,74.49H34.52c-0.276,0-0.5-0.224-0.5-0.5s0.224-0.5,0.5-0.5h0.359c0.276,0,0.5,0.224,0.5,0.5S35.156,74.49,34.879,74.49z"/><path fill="#472b29" d="M42.83,68.687c-0.018,0-0.036-0.002-0.055-0.006c-0.135-0.03-0.22-0.164-0.189-0.299c0.037-0.164,0.094-0.325,0.169-0.479c0.606-1.224,2.277-1.676,3.722-1.007c0.126,0.058,0.181,0.206,0.122,0.331c-0.058,0.126-0.209,0.181-0.331,0.122c-1.204-0.557-2.577-0.209-3.064,0.775c-0.058,0.117-0.101,0.24-0.129,0.366C43.047,68.608,42.945,68.687,42.83,68.687z"/><g><path fill="#472b29" d="M37.671,74.49h-1.107c-0.276,0-0.5-0.224-0.5-0.5s0.224-0.5,0.5-0.5h1.107c0.276,0,0.5,0.224,0.5,0.5S37.948,74.49,37.671,74.49z"/></g><g><path fill="#fbb97f" d="M73.976,79.927L73.976,79.927c-1.31,0-2.381-1.072-2.381-2.381V48.378c0-1.31,1.072-2.381,2.381-2.381h0c1.31,0,2.381,1.072,2.381,2.381v29.168C76.357,78.856,75.285,79.927,73.976,79.927z"/><path fill="#472b29" d="M73.976,80.427c-1.589,0-2.882-1.292-2.882-2.881V48.379c0-1.589,1.293-2.882,2.882-2.882s2.881,1.293,2.881,2.882v29.168C76.857,79.135,75.565,80.427,73.976,80.427z M73.976,46.497c-1.038,0-1.882,0.844-1.882,1.882v29.168c0,1.037,0.844,1.881,1.882,1.881c1.037,0,1.881-0.844,1.881-1.881V48.379C75.857,47.34,75.013,46.497,73.976,46.497z"/><path fill="#e9a770" d="M88.481,54.033H69.384c-2.031,0-3.692-1.808-3.692-4.018v0c0-2.21,1.662-4.018,3.692-4.018h19.097l3.692,4.018v0L88.481,54.033z"/><path fill="#472b29" d="M88.482,54.534H69.384c-2.312,0-4.192-2.027-4.192-4.519s1.881-4.519,4.192-4.519h19.098c0.14,0,0.273,0.059,0.368,0.162l3.692,4.019c0.176,0.19,0.176,0.485,0,0.676l-3.692,4.019C88.755,54.475,88.622,54.534,88.482,54.534z M69.384,46.497c-1.761,0-3.192,1.578-3.192,3.519s1.432,3.519,3.192,3.519h18.878l3.233-3.519l-3.233-3.519H69.384z"/><path fill="#c07d49" d="M73.976 49.153A0.862 0.862 0 1 0 73.976 50.877A0.862 0.862 0 1 0 73.976 49.153Z"/><path fill="#472b29" d="M73.976,51.203c-0.654,0-1.188-0.533-1.188-1.188s0.533-1.188,1.188-1.188s1.188,0.533,1.188,1.188S74.63,51.203,73.976,51.203z M73.976,49.478c-0.296,0-0.537,0.241-0.537,0.537s0.241,0.537,0.537,0.537s0.537-0.241,0.537-0.537S74.272,49.478,73.976,49.478z"/><path fill="#e9a770" d="M59.496,55.843h1.272h17.826c2.031,0,3.692,1.808,3.692,4.018v0c0,2.21-1.662,4.018-3.692,4.018H59.496l-3.692-4.018v0L59.496,55.843z"/><path fill="#472b29" d="M78.593,64.379H59.497c-0.14,0-0.273-0.059-0.368-0.162l-3.692-4.019c-0.176-0.19-0.176-0.485,0-0.676l3.692-4.019c0.095-0.104,0.229-0.162,0.368-0.162h19.097c2.312,0,4.192,2.027,4.192,4.519S80.905,64.379,78.593,64.379z M59.716,63.379h18.877c1.761,0,3.192-1.578,3.192-3.519s-1.432-3.519-3.192-3.519H59.716l-3.233,3.519L59.716,63.379z"/><path fill="#c07d49" d="M74.002 58.998999999999995A0.862 0.862 0 1 0 74.002 60.723A0.862 0.862 0 1 0 74.002 58.998999999999995Z"/><path fill="#472b29" d="M74.001 61.048c-.654 0-1.187-.533-1.187-1.188s.532-1.188 1.187-1.188 1.188.533 1.188 1.188S74.656 61.048 74.001 61.048zM74.001 59.324c-.296 0-.536.241-.536.537s.24.537.536.537.537-.241.537-.537S74.297 59.324 74.001 59.324zM82.851 48.32c-.206 0-.373-.166-.375-.372-.002-.207.164-.376.372-.378l.327-.003c.001 0 .002 0 .003 0 .206 0 .373.166.375.372.002.207-.164.376-.372.378l-.327.003C82.853 48.32 82.852 48.32 82.851 48.32zM75.075 48.372c-.206 0-.374-.166-.375-.372-.001-.208.165-.377.372-.378l6.88-.046c.001 0 .002 0 .003 0 .206 0 .374.166.375.372.001.208-.165.377-.372.378l-6.88.046C75.077 48.372 75.076 48.372 75.075 48.372zM84.351 48.309c-.206 0-.374-.166-.375-.373s.166-.376.373-.377l.931-.006c0 0 .001 0 .002 0 .206 0 .374.166.375.373s-.166.376-.373.377l-.931.006C84.353 48.309 84.352 48.309 84.351 48.309zM65.031 57.614c-.206 0-.374-.166-.375-.372-.001-.208.165-.377.372-.378l3.208-.021c.001 0 .002 0 .003 0 .206 0 .374.166.375.372.001.208-.165.377-.372.378l-3.208.021C65.033 57.614 65.032 57.614 65.031 57.614zM63.256 57.661c-.206 0-.373-.166-.375-.372-.002-.207.165-.376.372-.378l.67-.005c0 0 .002 0 .003 0 .206 0 .373.166.375.372.002.207-.165.376-.372.378l-.67.005C63.258 57.661 63.257 57.661 63.256 57.661z"/><g><path fill="#fdfcef" d="M60.573 63.879L60.573 55.843 59.496 55.843 55.804 59.861 59.496 63.879z"/><path fill="#472b29" d="M60.573,64.379h-1.076c-0.14,0-0.273-0.059-0.368-0.162l-3.692-4.019c-0.176-0.19-0.176-0.485,0-0.676l3.692-4.019c0.095-0.104,0.229-0.162,0.368-0.162h1.076c0.276,0,0.5,0.224,0.5,0.5v8.037C61.073,64.156,60.849,64.379,60.573,64.379z M59.716,63.379h0.356v-7.037h-0.356l-3.233,3.519L59.716,63.379z"/></g><g><path fill="#ee3e54" d="M60.433 60.723L56.915 60.723 56.21 59.741 56.915 58.759 60.433 58.759z"/><path fill="#472b29" d="M60.433,60.973h-3.518c-0.08,0-0.156-0.039-0.203-0.104l-0.706-0.982c-0.062-0.087-0.062-0.204,0-0.291l0.706-0.982c0.047-0.065,0.123-0.104,0.203-0.104h3.518c0.138,0,0.25,0.112,0.25,0.25v1.965C60.683,60.861,60.571,60.973,60.433,60.973z M57.043,60.473h3.14v-1.465h-3.14l-0.526,0.732L57.043,60.473z"/></g><g><path fill="#fdfcef" d="M87.405 45.997L87.405 54.033 88.481 54.033 92.174 50.015 88.481 45.997z"/><path fill="#472b29" d="M88.482,54.534h-1.077c-0.276,0-0.5-0.224-0.5-0.5v-8.037c0-0.276,0.224-0.5,0.5-0.5h1.077c0.14,0,0.273,0.059,0.368,0.162l3.692,4.019c0.176,0.19,0.176,0.485,0,0.676l-3.692,4.019C88.755,54.475,88.622,54.534,88.482,54.534z M87.905,53.534h0.357l3.233-3.519l-3.233-3.519h-0.357V53.534z"/></g><g><path fill="#88ae45" d="M87.545 49.153L91.062 49.153 91.768 50.135 91.062 51.118 87.545 51.118z"/><path fill="#472b29" d="M91.062,51.368h-3.518c-0.138,0-0.25-0.112-0.25-0.25v-1.965c0-0.138,0.112-0.25,0.25-0.25h3.518c0.08,0,0.156,0.039,0.203,0.104l0.706,0.982c0.062,0.087,0.062,0.204,0,0.291l-0.706,0.982C91.218,51.329,91.142,51.368,91.062,51.368z M87.794,50.868h3.14l0.526-0.732l-0.526-0.732h-3.14V50.868z"/></g></g></svg>