<svg xmlns="http://www.w3.org/2000/svg" viewBox="0 0 100 100"><circle cx="50" cy="50" r="37" fill="#cee1f4"/><circle cx="13" cy="29" r="2" fill="#78a0cf"/><circle cx="77" cy="13" r="1" fill="#f1bc19"/><circle cx="83" cy="15" r="4" fill="#f1bc19"/><circle cx="87" cy="24" r="2" fill="#78a0cf"/><circle cx="81" cy="76" r="2" fill="#fbcd59"/><circle cx="15" cy="63" r="4" fill="#fbcd59"/><circle cx="25" cy="87" r="2" fill="#78a0cf"/><circle cx="18.5" cy="53.5" r="2.5" fill="#fff"/><circle cx="21" cy="67" r="1" fill="#f1bc19"/><circle cx="80" cy="34" r="1" fill="#fff"/><path fill="#8889b9" d="M49.669,33.527c6.043,6.043,4.615,12.405,0.811,16.21c-3.805,3.805-10.167,5.232-16.21-0.811 s-9.478-17.268-5.673-21.073S43.626,27.484,49.669,33.527z"/><path fill="#8889b9" d="M51.331,65.987c-6.043-6.043-4.615-12.405-0.811-16.21s10.167-5.232,16.21,0.811 s9.478,17.268,5.673,21.073C68.599,75.465,57.374,72.03,51.331,65.987z"/><path fill="#ee3e54" d="M34.27,50.588c6.043-6.043,12.405-4.615,16.21-0.811s5.232,10.167-0.811,16.21 c-6.043,6.043-17.268,9.478-21.073,5.673C24.792,67.856,28.227,56.631,34.27,50.588z"/><path fill="#ee3e54" d="M66.73,48.927c-6.043,6.043-12.405,4.615-16.21,0.811s-5.232-10.167,0.811-16.21 s17.268-9.478,21.073-5.673C76.208,31.658,72.773,42.884,66.73,48.927z"/><path fill="#ef9922" d="M50.458,49.757c0.007-0.007,0.015-0.013,0.022-0.02c0.007-0.007,0.013-0.015,0.02-0.022 c-3.601-3.618-5.041-9.531,0-15.286c-0.264-0.301-0.531-0.602-0.831-0.902c-6.043-6.043-17.268-9.478-21.073-5.673 c-3.805,3.805-0.369,15.03,5.674,21.073c0.3,0.3,0.601,0.567,0.902,0.831C40.927,44.716,46.84,46.156,50.458,49.757z"/><path fill="#472b29" d="M35.171,50.257c-0.118,0-0.235-0.041-0.33-0.124c-0.309-0.271-0.618-0.545-0.925-0.853 c-2.955-2.954-5.443-7.289-6.657-11.594c-1.287-4.562-0.928-8.274,0.984-10.187c4.148-4.146,15.787-0.321,21.78,5.674 c0.308,0.308,0.583,0.616,0.853,0.925c0.166,0.189,0.166,0.471,0,0.659c-1.923,2.196-2.973,4.514-3.121,6.891 c-0.018,0.275-0.248,0.479-0.53,0.468c-0.275-0.018-0.485-0.255-0.468-0.53c0.154-2.479,1.19-4.884,3.081-7.151 c-0.166-0.185-0.337-0.369-0.521-0.554c-6.084-6.085-16.934-9.106-20.366-5.674c-1.625,1.624-1.896,5.066-0.729,9.208 c1.169,4.147,3.563,8.319,6.402,11.158c0.184,0.185,0.369,0.355,0.554,0.521c4.748-3.958,9.464-3.632,12.928-1.724 c-0.499-0.897-0.869-1.846-1.097-2.819c-0.063-0.27,0.104-0.538,0.373-0.601c0.273-0.071,0.538,0.104,0.601,0.372 c0.432,1.842,1.425,3.584,2.873,5.039c0.194,0.195,0.194,0.511-0.001,0.706s-0.553,0.238-0.748,0.043 c-3.299-3.283-8.868-5-14.604,0.021C35.407,50.216,35.289,50.257,35.171,50.257z"/><path fill="#ef9922" d="M65.828,49.757c-5.755,5.041-11.668,3.601-15.286,0c-0.007,0.007-0.015,0.013-0.022,0.02 c-0.007,0.007-0.013,0.015-0.02,0.022c3.601,3.618,5.041,9.531,0,15.286c0.264,0.301,0.531,0.602,0.831,0.902 c6.043,6.043,17.268,9.478,21.073,5.674c3.805-3.805,0.369-15.03-5.674-21.073C66.43,50.288,66.129,50.021,65.828,49.757z"/><path fill="#472b29" d="M67.56,73.753c-5.243,0-12.333-3.161-16.583-7.412c-0.308-0.308-0.583-0.616-0.853-0.925 c-0.166-0.189-0.166-0.471,0-0.659c0.854-0.977,1.546-1.992,2.054-3.02c0.123-0.248,0.421-0.349,0.67-0.227 c0.248,0.123,0.349,0.423,0.227,0.67c-0.488,0.987-1.131,1.961-1.912,2.899c0.166,0.185,0.337,0.369,0.521,0.554 c6.083,6.083,16.933,9.106,20.366,5.674c3.433-3.434,0.41-14.282-5.673-20.366c-0.184-0.185-0.369-0.355-0.554-0.521 c-1.662,1.384-3.412,2.316-5.209,2.773c-0.269,0.066-0.54-0.094-0.608-0.361s0.093-0.539,0.361-0.607 c1.765-0.449,3.492-1.406,5.133-2.844c0.188-0.166,0.471-0.166,0.659,0c0.309,0.271,0.618,0.546,0.925,0.854 c5.994,5.993,9.821,17.632,5.673,21.78C71.551,73.221,69.71,73.753,67.56,73.753z"/><path fill="#472b29" d="M53.459,60.219c-0.041,0-0.082-0.005-0.123-0.015c-0.268-0.067-0.43-0.34-0.363-0.607 c0.843-3.35-0.188-6.792-2.829-9.445c-0.194-0.195-0.194-0.511,0.001-0.706s0.553-0.238,0.748-0.043 c1.942,1.934,4.383,3.04,6.871,3.113c0.276,0.009,0.493,0.239,0.485,0.515c-0.008,0.276-0.252,0.522-0.515,0.485 c-1.667-0.05-3.311-0.516-4.821-1.348c1.312,2.37,1.689,5.045,1.028,7.673C53.887,60.067,53.683,60.219,53.459,60.219z"/><path fill="#ef9922" d="M50.5,49.799c-0.007-0.007-0.013-0.015-0.02-0.022c-0.007-0.007-0.015-0.013-0.022-0.02 c-3.618,3.601-9.531,5.041-15.286,0c-0.301,0.264-0.602,0.531-0.902,0.831c-6.043,6.043-9.478,17.268-5.674,21.073 c3.805,3.805,15.03,0.369,21.073-5.674c0.3-0.3,0.567-0.601,0.831-0.902C45.459,59.33,46.899,53.417,50.5,49.799z"/><path fill="#472b29" d="M33.44,73.753c-2.151,0-3.99-0.531-5.197-1.738c-4.148-4.148-0.32-15.787,5.673-21.78 c0.308-0.308,0.616-0.583,0.925-0.854c0.208-0.182,0.523-0.161,0.706,0.046c0.182,0.208,0.161,0.524-0.046,0.706 c-0.292,0.257-0.585,0.517-0.877,0.809c-6.083,6.084-9.106,16.933-5.673,20.366c3.433,3.431,14.281,0.409,20.366-5.674 c0.184-0.185,0.355-0.369,0.521-0.554c-3.958-4.75-3.631-9.467-1.722-12.931c-0.532,0.296-1.081,0.547-1.639,0.749 c-0.261,0.092-0.547-0.041-0.64-0.301c-0.094-0.26,0.041-0.547,0.3-0.641c1.439-0.52,2.812-1.402,3.968-2.555 c0.196-0.193,0.512-0.192,0.707,0.001c0.195,0.195,0.237,0.553,0.043,0.748c-3.284,3.3-5.002,8.869,0.021,14.605 c0.166,0.188,0.166,0.47,0,0.659c-0.271,0.309-0.545,0.617-0.853,0.925C45.773,70.591,38.683,73.752,33.44,73.753z"/><path fill="#472b29" d="M42.946,53.521c-1.925,0-3.834-0.547-5.691-1.633c-0.238-0.14-0.318-0.445-0.179-0.685 c0.14-0.237,0.447-0.316,0.684-0.179c2.108,1.233,4.279,1.708,6.448,1.41c0.271-0.039,0.525,0.153,0.563,0.428 c0.037,0.273-0.154,0.525-0.428,0.563C43.878,53.49,43.412,53.521,42.946,53.521z"/><path fill="#ef9922" d="M52.725,37.76c0.145,0.308,0.274,0.615,0.388,0.921c1.586,4.282,0.1,8.309-2.613,11.035 c0.007,0.007,0.013,0.015,0.02,0.022c0.007,0.007,0.015,0.013,0.022,0.02c3.618-3.601,9.531-5.041,15.286,0 c0.301-0.264,0.602-0.531,0.902-0.831c6.043-6.043,9.478-17.268,5.674-21.073c-3.805-3.805-15.03-0.369-21.073,5.673 c-0.3,0.3-0.567,0.601-0.831,0.902c0.701,0.801,1.277,1.604,1.739,2.404C52.418,37.143,52.58,37.452,52.725,37.76"/><path fill="#472b29" d="M65.829,50.257c-0.139,0-0.277-0.058-0.376-0.17c-0.182-0.208-0.161-0.524,0.046-0.706 c0.292-0.257,0.585-0.516,0.877-0.808c2.839-2.839,5.232-7.011,6.402-11.158c1.168-4.142,0.896-7.584-0.729-9.208 c-3.435-3.435-14.282-0.409-20.366,5.674c-0.184,0.185-0.355,0.369-0.521,0.554c0.516,0.62,0.973,1.256,1.36,1.896 c0.143,0.236,0.067,0.543-0.168,0.687c-0.235,0.144-0.543,0.068-0.687-0.169c-0.428-0.706-0.947-1.41-1.543-2.091 c-0.166-0.188-0.166-0.47,0-0.659c0.271-0.309,0.545-0.617,0.853-0.925c5.994-5.993,17.633-9.824,21.78-5.674 c1.912,1.912,2.271,5.625,0.984,10.187c-1.214,4.305-3.703,8.64-6.657,11.594c-0.308,0.308-0.616,0.582-0.925,0.853 C66.063,50.216,65.946,50.257,65.829,50.257z"/><path fill="#472b29" d="M50.542,50.257c-0.128,0-0.256-0.049-0.354-0.146c-0.195-0.195-0.237-0.553-0.043-0.748 c2.923-2.937,3.854-6.872,2.491-10.528c-0.097-0.259,0.035-0.547,0.293-0.644c0.259-0.099,0.547,0.034,0.643,0.294 c1.115,2.99,0.845,6.144-0.677,8.887c2.895-1.593,6.694-2.102,10.685,0.161c0.24,0.136,0.325,0.441,0.188,0.682 c-0.137,0.239-0.442,0.327-0.682,0.188c-4.179-2.368-8.736-1.729-12.193,1.71C50.797,50.208,50.669,50.257,50.542,50.257z"/><path fill="#472b29" d="M33.425,73.61c-2.201,0.001-4.086-0.542-5.322-1.774c-1.179-1.176-1.803-3.024-1.803-5.347 c0-5.33,3.144-12.332,7.476-16.65c0.115-0.114,0.23-0.225,0.346-0.332c-0.115-0.106-0.23-0.217-0.345-0.33 C29.444,44.857,26.3,37.854,26.3,32.524c0-2.322,0.624-4.171,1.803-5.346c4.22-4.208,16.005-0.38,22.061,5.655 c0.116,0.116,0.228,0.231,0.336,0.348c0.109-0.116,0.221-0.232,0.337-0.349c6.055-6.035,17.84-9.859,22.06-5.654 c1.179,1.175,1.802,3.023,1.803,5.346c0,5.33-3.144,12.333-7.476,16.651c-0.115,0.114-0.23,0.225-0.346,0.331 c0.115,0.107,0.23,0.218,0.346,0.332c4.332,4.318,7.476,11.32,7.476,16.65c0,2.322-0.624,4.171-1.803,5.347 c-4.222,4.203-16.007,0.38-22.061-5.655c-0.116-0.116-0.228-0.232-0.336-0.349c-0.108,0.116-0.22,0.232-0.336,0.349 C45.883,70.447,38.736,73.61,33.425,73.61z M33.479,26.774c-1.874,0-3.429,0.439-4.389,1.396c-0.91,0.906-1.391,2.412-1.391,4.354 c0,4.913,3.037,11.645,7.064,15.659c0.288,0.286,0.578,0.543,0.868,0.796l0.604,0.527l-0.604,0.527 c-0.29,0.253-0.579,0.509-0.868,0.797C30.737,54.845,27.7,61.576,27.7,66.489c0,1.941,0.481,3.448,1.391,4.354 c3.367,3.356,14.066,0.344,20.084-5.655c0.289-0.287,0.545-0.576,0.799-0.864l0.526-0.598l0.526,0.598 c0.253,0.288,0.51,0.577,0.799,0.864c6.018,5.999,16.717,9.012,20.084,5.655c0.91-0.906,1.391-2.413,1.391-4.354 c0-4.913-3.037-11.645-7.064-15.658c-0.289-0.288-0.578-0.544-0.868-0.797l-0.604-0.527l0.604-0.527 c0.29-0.253,0.58-0.51,0.869-0.797c4.026-4.014,7.063-10.745,7.063-15.658c0-1.941-0.481-3.447-1.391-4.354 c-3.366-3.358-14.065-0.344-20.084,5.655c-0.289,0.287-0.545,0.576-0.799,0.864L50.5,35.288l-0.526-0.598 c-0.253-0.288-0.51-0.577-0.798-0.863C44.873,29.537,38.177,26.774,33.479,26.774z"/><path fill="#472b29" d="M60.54,30.568c-0.094,0-0.184-0.054-0.227-0.145c-0.059-0.125-0.004-0.273,0.121-0.332 c3.491-1.63,7.923-2.659,9.887-0.664c0.097,0.099,0.096,0.257-0.003,0.354c-0.099,0.099-0.257,0.095-0.354-0.002 c-1.468-1.492-5.125-1.191-9.32,0.766C60.611,30.561,60.575,30.568,60.54,30.568z"/><path fill="#472b29" d="M54.073,34.995c-0.063,0-0.126-0.023-0.175-0.072c-0.099-0.097-0.1-0.255-0.003-0.354 c1.21-1.229,2.787-2.421,4.56-3.446c0.118-0.068,0.271-0.028,0.341,0.092c0.069,0.119,0.028,0.272-0.091,0.342 c-1.734,1.003-3.274,2.166-4.453,3.364C54.202,34.97,54.137,34.995,54.073,34.995z"/><g><path fill="#472b29" d="M65.33,46.435c-0.063,0-0.126-0.023-0.175-0.072c-0.099-0.097-0.1-0.255-0.003-0.354 c3.676-3.735,6.424-10.782,5.654-14.501c-0.028-0.136,0.059-0.268,0.194-0.296c0.133-0.021,0.267,0.059,0.295,0.194 c0.813,3.923-1.946,11.051-5.787,14.954C65.459,46.409,65.395,46.435,65.33,46.435z"/></g><g><path fill="#472b29" d="M30.91,29.854c-0.063,0-0.126-0.023-0.175-0.072c-0.099-0.097-0.1-0.255-0.003-0.354 c0.935-0.949,2.555-1.294,4.683-0.985c0.136,0.02,0.231,0.146,0.212,0.282c-0.02,0.137-0.152,0.229-0.283,0.212 c-1.965-0.282-3.437,0.009-4.255,0.843C31.04,29.828,30.975,29.854,30.91,29.854z"/></g><g><path fill="#472b29" d="M46.98,34.995c-0.064,0-0.129-0.025-0.178-0.074c-2.437-2.477-6.275-4.688-9.78-5.633 c-0.133-0.036-0.212-0.173-0.176-0.307c0.036-0.133,0.174-0.206,0.306-0.176c3.584,0.967,7.513,3.229,10.007,5.764 c0.097,0.099,0.096,0.257-0.003,0.354C47.107,34.972,47.044,34.995,46.98,34.995z"/></g><g><path fill="#472b29" d="M35.723,46.435c-0.064,0-0.129-0.025-0.178-0.074c-3.801-3.863-6.565-10.958-5.801-14.885 c0.026-0.136,0.158-0.225,0.293-0.197c0.135,0.026,0.224,0.157,0.198,0.293c-0.726,3.724,2.028,10.74,5.666,14.438 c0.097,0.099,0.096,0.257-0.003,0.354C35.85,46.411,35.787,46.435,35.723,46.435z"/></g><g><path fill="#472b29" d="M33.964,70.753c-1.318,0-2.462-0.309-3.23-1.065c-0.098-0.097-0.099-0.255-0.002-0.354 c0.097-0.099,0.255-0.099,0.354-0.002c1.466,1.446,5.127,1.156,9.325-0.744c0.125-0.058,0.274-0.002,0.331,0.124 c0.057,0.126,0.001,0.274-0.125,0.331C38.491,70.006,36.017,70.753,33.964,70.753z"/></g><g><path fill="#472b29" d="M42.474,68.074c-0.087,0-0.172-0.046-0.218-0.128c-0.067-0.12-0.024-0.272,0.096-0.34 c1.733-0.973,3.273-2.102,4.453-3.265c0.099-0.097,0.256-0.097,0.354,0.002c0.097,0.099,0.096,0.257-0.002,0.354 c-1.211,1.194-2.788,2.352-4.56,3.345C42.558,68.063,42.516,68.074,42.474,68.074z"/></g><g><path fill="#472b29" d="M30.002,67.961c-0.115,0-0.219-0.08-0.244-0.198c-0.813-3.811,1.946-10.733,5.789-14.523 c0.099-0.096,0.256-0.098,0.354,0.002c0.097,0.099,0.096,0.257-0.002,0.354c-3.674,3.624-6.42,10.459-5.651,14.064 c0.029,0.135-0.058,0.268-0.192,0.296C30.038,67.959,30.02,67.961,30.002,67.961z"/></g><g><path fill="#472b29" d="M67.067,70.749c-0.446,0-0.922-0.035-1.427-0.104c-0.137-0.02-0.232-0.146-0.213-0.282 c0.019-0.136,0.157-0.217,0.282-0.214c1.968,0.274,3.44-0.01,4.26-0.816c0.097-0.097,0.255-0.097,0.354,0.002 c0.097,0.099,0.096,0.257-0.003,0.354C69.606,70.39,68.497,70.749,67.067,70.749z"/></g><g><path fill="#472b29" d="M63.966,70.3c-0.021,0-0.042-0.003-0.063-0.008c-3.584-0.938-7.511-3.134-10.006-5.595 c-0.098-0.097-0.099-0.255-0.002-0.354c0.098-0.099,0.255-0.099,0.354-0.002c2.437,2.403,6.276,4.549,9.781,5.466 c0.133,0.035,0.213,0.172,0.178,0.306C64.179,70.226,64.078,70.3,63.966,70.3z"/></g><g><path fill="#472b29" d="M71.064,67.896c-0.017,0-0.033-0.002-0.05-0.005c-0.135-0.027-0.223-0.159-0.196-0.294 c0.725-3.611-2.028-10.417-5.664-14.003c-0.098-0.097-0.099-0.255-0.002-0.354c0.098-0.1,0.255-0.098,0.354-0.002 c3.802,3.75,6.568,10.641,5.803,14.456C71.285,67.814,71.18,67.896,71.064,67.896z"/></g></svg>