<svg xmlns="http://www.w3.org/2000/svg" viewBox="0 0 30 30"><path d="M 14.943359 1.0019531 A 1.0001 1.0001 0 0 0 14.251953 1.3359375 L 8 8.3710938 L 8 5.8730469 A 1.0001 1.0001 0 0 0 7.5 4 L 6.5 4 A 1.0001 1.0001 0 0 0 6 5.8730469 L 6 10.464844 L 3.4453125 12.167969 A 1.0001 1.0001 0 1 0 4.5546875 13.832031 L 6 12.869141 L 6 19 A 1.0001 1.0001 0 0 0 7 20 L 7 26 A 1.0001 1.0001 0 0 0 8 27 L 22 27 A 1.0001 1.0001 0 0 0 23 26 L 23 20 A 1.0001 1.0001 0 0 0 24 19 L 24 12.869141 L 25.445312 13.832031 A 1.0001 1.0001 0 1 0 26.554688 12.167969 L 23.671875 10.246094 A 1.0001 1.0001 0 0 0 23.650391 10.226562 L 15.748047 1.3359375 A 1.0001 1.0001 0 0 0 14.943359 1.0019531 z M 15 3.5058594 L 17.455078 6.2675781 L 15.214844 10 L 14.785156 10 L 12.544922 6.2675781 L 15 3.5058594 z M 14 6 L 14 8 L 16 8 L 16 6 L 14 6 z M 12 7.3066406 L 13.615234 10 L 12 10 L 12 7.3066406 z M 18 7.3066406 L 18 10 L 16.384766 10 L 18 7.3066406 z M 11 8.0058594 L 11 10 L 9.2265625 10 L 11 8.0058594 z M 19 8.0058594 L 20.773438 10 L 19 10 L 19 8.0058594 z M 8.3378906 11 L 11 11 L 11 12 L 10 12 L 10 14 L 11 14 L 11 15 L 8 15 L 8 11.564453 L 8 11.380859 L 8.3378906 11 z M 12 11 L 18 11 L 18 15 L 12 15 L 12 11 z M 19 11 L 21.662109 11 L 22 11.380859 L 22 15 L 19 15 L 19 14 L 20 14 L 20 12 L 19 12 L 19 11 z M 14 12 L 14 14 L 16 14 L 16 12 L 14 12 z M 8 16 L 11 16 L 11 18 L 8.1542969 18 A 1.0001 1.0001 0 0 0 8 17.986328 L 8 16 z M 12 16 L 18 16 L 18 18 L 12 18 L 12 16 z M 19 16 L 22 16 L 22 17.986328 A 1.0001 1.0001 0 0 0 21.841797 18 L 19 18 L 19 16 z M 9 20 L 12 20 L 12 22 L 9 22 L 9 20 z M 14 20 L 16 20 L 16 22 L 14 22 L 14 20 z M 18 20 L 21 20 L 21 22 L 18 22 L 18 20 z M 10 23 L 12 23 L 12 24.5 L 10 23 z M 13 23 L 17 23 L 17 25 L 13 25 L 13 23 z M 18 23 L 19.998047 23 L 18 24.5 L 18 23 z M 9 23.5 L 10.998047 25 L 9 25 L 9 23.5 z M 21 23.5 L 21 25 L 19.001953 25 L 21 23.5 z"/></svg>