<svg xmlns="http://www.w3.org/2000/svg" viewBox="0 0 48 48"><path fill="#fcbf95" d="M24.156,0.656c-1.231,0.105-1.844,1-2.644,2.343c-4.403-2.562-5.105,4.902-4.951,8.41 c0.069,1.561-0.02,13.131-0.02,13.131c-0.417-3.483-1.989-5.829-2.76-5.875c-1.927-0.116-2.121,0.879-2.392,2.481 c-0.278,1.644-0.264,1.804-0.664,3.452c-0.51,2.098,0.256,7.034,0.15,8.34c-0.168,2.069,0.522,2.514,0.688,4.583 c0.165,2.069,2.957,7.216,4.125,8.216c1.332,1.14,5.827,0.478,8.812,0.228c2.299,0.226,5.004,0.963,7.088-0.045 c2.019-0.976,2.403-2.973,3.195-5.091c0.666-1.782,0.972-3.679,1.237-5.566c0.336-2.393,0.613-4.811,0.454-7.222 c-0.13-1.984-0.553-3.934-0.974-5.876c-0.915-4.216-0.991-9.128-1.906-13.344c-0.231-1.064-0.784-2.391-1.858-2.318 c-0.963,0.372-1.287,1.61-1.258,2.653c-0.471-3.371-0.208-6.649-2.564-6.649l-1.831,0.68C26.084,3.188,25.844,0.512,24.156,0.656z"/><path fill="#010101" d="M25.455,21.761c-0.267,0-0.487-0.209-0.499-0.478c-0.246-5.438-0.155-10.92,0.262-15.854 c0.063-0.76,0.144-1.441,0.474-2.082c0.416-0.813,1.198-1.34,1.992-1.34l0,0c0.82,0,1.936,0.493,2.589,2.839 c0.307,1.103,0.616,2.288,0.736,3.583c0.025,0.275-0.177,0.518-0.452,0.544c-0.269,0.024-0.518-0.177-0.544-0.452 C29.9,7.308,29.604,6.173,29.31,5.114c-0.269-0.961-0.768-2.107-1.625-2.107c-0.001,0-0.001,0-0.001,0 c-0.48,0-0.899,0.4-1.103,0.797c-0.246,0.479-0.313,1.058-0.367,1.709c-0.413,4.892-0.503,10.33-0.26,15.726 c0.013,0.276-0.2,0.509-0.477,0.522C25.47,21.761,25.462,21.761,25.455,21.761z"/><path fill="#010101" d="M20.746,21.646c-0.005,0-0.011,0-0.016,0c-0.276-0.008-0.493-0.239-0.484-0.515 c0.052-1.619,0.157-3.345,0.269-5.172c0.206-3.349,0.418-6.812,0.292-9.788l-0.005-0.122c-0.044-1.053-0.09-2.141,0.232-3.196 c0.348-1.136,1.213-2.549,2.506-2.797c0.689-0.131,1.357,0.028,1.889,0.447c0.485,0.382,1.08,1.172,1.154,2.761 c0.014,0.276-0.2,0.51-0.476,0.523c-0.282,0.014-0.511-0.2-0.522-0.476c-0.046-0.959-0.313-1.659-0.775-2.022 c-0.404-0.319-0.852-0.295-1.082-0.25c-0.761,0.146-1.45,1.17-1.736,2.107c-0.273,0.891-0.23,1.893-0.19,2.861l0.006,0.122 c0.127,3.027-0.087,6.517-0.293,9.891c-0.112,1.82-0.217,3.539-0.268,5.142C21.237,21.433,21.016,21.646,20.746,21.646z"/><path fill="#010101" d="M16.092,22.89c-0.017,0-0.033-0.001-0.051-0.002c-0.274-0.027-0.475-0.272-0.447-0.547l0.014-0.146 c0.424-4.261,0.637-6.4,0.454-10.764c-0.013-0.314-0.029-0.614-0.046-0.907c-0.065-1.185-0.127-2.303,0.094-3.614 c0.267-1.581,0.961-3.001,2.122-4.342C18.74,1.98,19.67,1.931,20.377,2.08c0.808,0.171,1.384,0.583,1.541,1.1 c0.08,0.264-0.068,0.543-0.333,0.624c-0.27,0.08-0.544-0.069-0.624-0.333c-0.026-0.088-0.294-0.307-0.791-0.412 c-0.51-0.109-1.007-0.039-1.183,0.163c-1.037,1.199-1.656,2.459-1.892,3.854c-0.203,1.201-0.146,2.216-0.081,3.392 c0.017,0.297,0.033,0.603,0.047,0.921c0.185,4.435-0.03,6.597-0.459,10.905l-0.015,0.146C16.563,22.697,16.346,22.89,16.092,22.89z"/><path fill="#010101" d="M28.962,46.935c-1.011,0-2.039-0.145-3.002-0.28c-0.515-0.072-1.021-0.144-1.509-0.192 c-0.357,0.038-0.84,0.085-1.34,0.134c-3.025,0.294-6.455,0.627-7.749-0.48c-1.218-1.043-4.119-6.309-4.298-8.556 c-0.067-0.836-0.224-1.388-0.375-1.921c-0.214-0.755-0.416-1.468-0.313-2.742c0.034-0.427-0.038-1.351-0.123-2.42 c-0.161-2.037-0.361-4.573-0.016-5.998c0.305-1.247,0.366-1.631,0.503-2.473l0.155-0.944c0.264-1.563,0.515-3.049,2.915-2.897 c1.175,0.071,2.805,2.786,3.227,6.315c0.065,0.544-0.108,1.427-0.277,2.28c-0.11,0.557-0.224,1.133-0.229,1.442 c-0.021,1.15,0.239,1.757,0.542,2.461c0.245,0.572,0.499,1.163,0.61,2.053c0.034,0.274-0.16,0.524-0.435,0.558 c-0.272,0.028-0.523-0.161-0.558-0.434c-0.094-0.75-0.309-1.251-0.537-1.782c-0.319-0.742-0.648-1.51-0.623-2.875 c0.008-0.397,0.125-0.99,0.249-1.618c0.139-0.704,0.312-1.58,0.266-1.967c-0.399-3.336-1.867-5.346-2.303-5.437 c-1.443-0.081-1.578,0.394-1.86,2.066l-0.154,0.938c-0.141,0.868-0.205,1.264-0.519,2.549c-0.308,1.27-0.106,3.82,0.041,5.683 c0.092,1.158,0.164,2.072,0.122,2.58c-0.089,1.094,0.073,1.665,0.278,2.388c0.157,0.553,0.335,1.181,0.409,2.115 c0.157,1.968,2.89,6.966,3.952,7.875c0.97,0.831,4.457,0.491,7.002,0.244c0.505-0.049,0.991-0.096,1.443-0.134 c0.592,0.05,1.112,0.123,1.641,0.197c1.856,0.261,3.773,0.531,5.271-0.194c1.52-0.734,1.993-2.1,2.594-3.83 c0.112-0.324,0.227-0.654,0.351-0.987c0.655-1.753,0.957-3.659,1.21-5.46c0.303-2.155,0.611-4.659,0.45-7.12 c-0.128-1.959-0.553-3.914-0.963-5.803c-0.463-2.134-0.717-4.467-0.962-6.724c-0.242-2.231-0.492-4.538-0.943-6.62 c-0.099-0.452-0.475-1.893-1.263-1.926c-0.672,0.323-0.888,1.343-0.865,2.141c0.054,1.878,0.057,4.27,0.061,6.583 c0.003,2.306,0.006,4.69,0.06,6.556c0.008,0.276-0.21,0.506-0.485,0.514c-0.267,0.001-0.507-0.209-0.515-0.486 c-0.054-1.878-0.057-4.27-0.06-6.583c-0.004-2.306-0.007-4.69-0.061-6.556c-0.034-1.207,0.363-2.664,1.577-3.134 c0.047-0.018,0.097-0.029,0.146-0.033c1.136-0.067,1.989,0.912,2.381,2.711c0.463,2.134,0.717,4.468,0.961,6.724 c0.243,2.231,0.493,4.538,0.944,6.62c0.419,1.925,0.852,3.916,0.984,5.95c0.168,2.555-0.148,5.121-0.458,7.324 c-0.261,1.856-0.572,3.823-1.263,5.671c-0.122,0.326-0.234,0.648-0.344,0.964c-0.622,1.793-1.21,3.488-3.103,4.402 C30.928,46.795,29.953,46.935,28.962,46.935z"/><path fill="#010101" d="M33.347,31.021c-0.692,0-1.278-0.496-1.726-0.875l-0.183-0.154c-0.89-0.732-2.185-1.159-3.958-1.304 c-0.562-0.046-1.127-0.065-1.692-0.084c-0.954-0.032-1.941-0.066-2.913-0.229c-1.258-0.211-2.092-0.653-2.548-1.351 c-0.15-0.231-0.086-0.541,0.146-0.692c0.228-0.15,0.54-0.087,0.692,0.145c0.29,0.445,0.922,0.751,1.876,0.911 c0.906,0.152,1.816,0.183,2.781,0.216c0.581,0.02,1.162,0.04,1.74,0.086c1.983,0.163,3.459,0.663,4.512,1.53l0.192,0.162 c0.502,0.425,0.882,0.712,1.217,0.617c0.268-0.081,0.543,0.07,0.623,0.334c0.08,0.265-0.07,0.543-0.334,0.623 C33.626,31.001,33.484,31.021,33.347,31.021z"/><path fill="#010101" d="M19.252,21.904c-0.254,0-0.472-0.193-0.497-0.451c-0.026-0.275,0.175-0.52,0.449-0.546 c0.889-0.087,1.797-0.129,2.677-0.117c0.276,0.003,0.498,0.229,0.495,0.505c-0.003,0.274-0.227,0.495-0.5,0.495 c-0.002,0-0.004,0-0.005,0c-0.865-0.011-1.717,0.029-2.569,0.112C19.285,21.903,19.269,21.904,19.252,21.904z"/><path fill="#010101" d="M26.779,22.19c-0.074,0-0.148-0.016-0.22-0.051c-0.639-0.312-1.376-0.4-2.069-0.245 c-0.279,0.061-0.537-0.111-0.597-0.38c-0.06-0.27,0.11-0.537,0.38-0.596c0.919-0.202,1.885-0.087,2.726,0.323 c0.248,0.121,0.351,0.42,0.229,0.668C27.142,22.087,26.964,22.19,26.779,22.19z"/><path fill="#010101" d="M31.25,22.984c-0.048,0-0.097-0.007-0.145-0.021c-0.272-0.083-0.532-0.078-0.842-0.073 c-0.339,0.006-0.726,0.012-1.146-0.116c-0.265-0.08-0.414-0.359-0.334-0.624c0.08-0.264,0.36-0.414,0.623-0.333 c0.273,0.083,0.533,0.077,0.842,0.073c0.339-0.003,0.726-0.011,1.146,0.116c0.265,0.08,0.414,0.359,0.334,0.624 C31.663,22.845,31.465,22.984,31.25,22.984z"/><path fill="#010101" d="M19.708,12.979h-1.625c-0.276,0-0.5-0.224-0.5-0.5s0.224-0.5,0.5-0.5h1.625 c0.276,0,0.5,0.224,0.5,0.5S19.984,12.979,19.708,12.979z"/><path fill="#010101" d="M24.04,12.038h-1.125c-0.276,0-0.5-0.224-0.5-0.5s0.224-0.5,0.5-0.5h1.125 c0.276,0,0.5,0.224,0.5,0.5S24.316,12.038,24.04,12.038z"/><path fill="#010101" d="M27.449,13.01c-0.118,0-0.263-0.009-0.449-0.037c-0.273-0.04-0.463-0.293-0.423-0.567 c0.041-0.273,0.295-0.469,0.567-0.422c0.28,0.04,0.385,0.025,0.516,0.007c0.169-0.023,0.379-0.054,0.804,0.008 c0.273,0.04,0.462,0.293,0.423,0.567c-0.041,0.273-0.302,0.461-0.567,0.422c-0.281-0.041-0.387-0.025-0.517-0.007 C27.708,12.995,27.601,13.01,27.449,13.01z"/><path fill="#010101" d="M33.368,15.195c-0.039,0-0.079-0.004-0.119-0.015c-0.356-0.087-0.451-0.083-0.799-0.067 l-0.181,0.008c-0.309,0.027-0.509-0.205-0.52-0.48c-0.011-0.276,0.205-0.508,0.48-0.519l0.175-0.008 c0.378-0.017,0.588-0.026,1.082,0.096c0.269,0.066,0.433,0.336,0.366,0.605C33.798,15.043,33.594,15.195,33.368,15.195z"/><path fill="#010101" d="M13.822,28.019c0.695-0.126,1.435,0.269,2.124,0c0.593-0.231,0.335-1.199-0.266-0.964 c-0.636,0.248-1.447-0.122-2.124,0C12.924,27.169,13.192,28.133,13.822,28.019L13.822,28.019z"/></svg>