<svg xmlns="http://www.w3.org/2000/svg" viewBox="0 0 128 128"><path fill="#fff" d="M123.9,87.4c-1.8-4-6.7-5.6-10.7-3.9l-3.5,1.5l-0.7-1.4c-1.7-4.1-6.4-6-10.5-4.2l-20.8,9.1c-0.8-1.3-2-2.3-3.5-3L48.4,73.9c-10-4.5-21.7-3.1-30.4,3.6l-3.9,3l-1,1v0H4c-1.7,0-3,1.3-3,3v32h12v-5.2l0.9-0.5c3.3-1.9,7.4-2,10.8-0.3l22.2,11.1c5.2,2.5,11.2,2.7,16.6,0.4l56.4-23.8C123.9,96.4,125.8,91.5,123.9,87.4z"/><path fill="#444b54" d="M64 12A16 16 0 1 0 64 44 16 16 0 1 0 64 12zM126.8 86.5c-1.1-2.7-3.3-4.8-6-5.9-2.7-1.1-5.7-1.1-8.4.1l-1.2.5c-2.8-4.7-8.6-6.7-13.8-4.5l-11.6 4.9c-1.5.6-2.2 2.4-1.6 3.9.5 1.1 1.6 1.8 2.8 1.8.4 0 .8-.1 1.2-.2l11.6-4.9c2.1-.9 4.4-.2 5.8 1.4l-23.5 10c.3-4.5-2.1-8.9-6.5-10.8L49.6 71.2c-11-4.9-23.8-3.4-33.4 3.9l-3.9 3c-.1.1-.2.2-.3.3l-1 1c-.6.6-.9 1.3-.9 2.1v32H4c-1.7 0-3 1.3-3 3s1.3 3 3 3h9c1.7 0 3-1.3 3-3V82.7l3.8-2.9c7.9-6 18.3-7.2 27.4-3.2L73 88.2c1.2.5 2.2 1.5 2.6 2.8s.4 2.6-.1 3.8C75 96 74 96.9 72.8 97.4c-1.2.5-2.6.4-3.8-.1l-20-8.9c-1.5-.7-3.3 0-4 1.5-.7 1.5 0 3.3 1.5 4l20 8.9c2.7 1.2 5.7 1.3 8.4.2.4-.1.8-.3 1.1-.5.2 0 .3-.1.4-.1l38.2-16.2c1.2-.5 2.6-.5 3.8 0 1.2.5 2.2 1.5 2.7 2.7.5 1.2.5 2.6 0 3.8s-1.5 2.2-2.7 2.7l-56.4 23.8c-4.5 1.9-9.7 1.8-14.1-.4l-23.8-11.6c-1.5-.7-3.3-.1-4 1.4s-.1 3.3 1.4 4l23.8 11.6c3.2 1.6 6.6 2.3 10.1 2.3 3 0 6.1-.6 9-1.8l56.4-23.8c2.7-1.1 4.8-3.3 5.9-6C127.9 92.2 127.9 89.2 126.8 86.5zM112 31h-11c-1.7 0-3-1.3-3-3s1.3-3 3-3h11c1.7 0 3 1.3 3 3S113.7 31 112 31zM27 31H16c-1.7 0-3-1.3-3-3s1.3-3 3-3h11c1.7 0 3 1.3 3 3S28.7 31 27 31zM96 12.5c-1 0-2-.5-2.6-1.5-.8-1.4-.3-3.3 1.1-4.1l8.7-5c1.4-.8 3.3-.3 4.1 1.1.8 1.4.3 3.3-1.1 4.1l-8.7 5C97.1 12.4 96.6 12.5 96 12.5zM23.3 54.5c-1 0-2-.5-2.6-1.5-.8-1.4-.3-3.3 1.1-4.1l8.7-5c1.4-.8 3.3-.3 4.1 1.1.8 1.4.3 3.3-1.1 4.1l-8.7 5C24.3 54.4 23.8 54.5 23.3 54.5zM104.7 54.5c-.5 0-1-.1-1.5-.4l-8.7-5c-1.4-.8-1.9-2.7-1.1-4.1.8-1.4 2.7-1.9 4.1-1.1l8.7 5c1.4.8 1.9 2.7 1.1 4.1C106.7 54 105.7 54.5 104.7 54.5zM32 12.5c-.5 0-1-.1-1.5-.4l-8.7-5c-1.4-.8-1.9-2.7-1.1-4.1.8-1.4 2.7-1.9 4.1-1.1l8.7 5c1.4.8 1.9 2.7 1.1 4.1C34 12 33 12.5 32 12.5zM4 25A3 3 0 1 0 4 31 3 3 0 1 0 4 25zM124 25A3 3 0 1 0 124 31 3 3 0 1 0 124 25z"/></svg>