<svg xmlns="http://www.w3.org/2000/svg" viewBox="0 0 30 30"><path d="M 3.984375 4.9863281 A 1.0001 1.0001 0 0 0 3 6 L 3 8 C 3 14.277839 7.8516588 19.437925 14 19.949219 L 14 23 L 10 23 A 1.0001 1.0001 0 0 0 8.9863281 24 L 7 24 A 1.0001 1.0001 0 1 0 7 26 L 23 26 A 1.0001 1.0001 0 1 0 23 24 L 21.013672 24 A 1.0001 1.0001 0 0 0 20 23 L 16 23 L 16 19.949219 C 22.148341 19.437925 27 14.277839 27 8 L 27 6 A 1.0001 1.0001 0 1 0 25 6 L 25 8 C 25 13.19656 21.062074 17.450989 16 17.951172 L 16 16.941406 C 20.490008 16.441053 24 12.620171 24 8 L 24 6 A 1.0001 1.0001 0 1 0 22 6 L 22 8 C 22 11.536745 19.399042 14.437987 16 14.921875 L 16 13.908203 C 18.82852 13.427972 21 10.960675 21 8 L 21 6 A 1.0001 1.0001 0 1 0 19 6 L 19 8 C 19 9.8741091 17.729419 11.41944 16 11.861328 L 16 6 A 1.0001 1.0001 0 0 0 14.984375 4.9863281 A 1.0001 1.0001 0 0 0 14 6 L 14 11.861328 C 12.270581 11.41944 11 9.8741091 11 8 L 11 6 A 1.0001 1.0001 0 0 0 9.984375 4.9863281 A 1.0001 1.0001 0 0 0 9 6 L 9 8 C 9 10.960675 11.17148 13.427972 14 13.908203 L 14 14.921875 C 10.600958 14.437987 8 11.536745 8 8 L 8 6 A 1.0001 1.0001 0 0 0 6.984375 4.9863281 A 1.0001 1.0001 0 0 0 6 6 L 6 8 C 6 12.620171 9.5099919 16.441053 14 16.941406 L 14 17.951172 C 8.9379267 17.450989 5 13.19656 5 8 L 5 6 A 1.0001 1.0001 0 0 0 3.984375 4.9863281 z"/></svg>