<svg xmlns="http://www.w3.org/2000/svg" viewBox="0 0 24 24"><path d="M 6 1 C 2.199219 1 0 4.386719 0 7.6875 C 0 13.1875 5.101563 15 5.5 15 C 5.101563 14.800781 1.8125 11.90625 1.8125 8.40625 C 1.8125 6.304688 3.09375 4.6875 5.09375 4.6875 C 6.71875 4.6875 7.855469 5.917969 8.5625 7.09375 C 8.152344 7.769531 7.769531 8.433594 7.5 9 C 7.101563 8.101563 6.09375 7 4.09375 7 C 3.09375 7 2.914063 7.386719 3.3125 8.1875 C 3.710938 8.988281 4.601563 10.613281 7 11.8125 C 7 15.113281 7.894531 15.011719 8.09375 16.8125 C 8.292969 19.210938 9.09375 18.007813 9.09375 20.40625 C 9.09375 21.007813 9.800781 21.507813 10 22.40625 C 10.199219 23.304688 11.394531 24.09375 12.09375 24.09375 C 12.792969 24.09375 13.988281 23.304688 14.1875 22.40625 C 14.386719 21.507813 15.09375 21.007813 15.09375 20.40625 C 15.09375 18.007813 15.894531 18.304688 16.09375 16.90625 C 16.394531 15.207031 17.1875 14.605469 17.1875 11.90625 C 19.585938 10.707031 20.507813 9.011719 20.90625 8.3125 C 21.207031 7.414063 20.90625 7 19.90625 7 C 17.90625 7 16.90625 8.105469 16.40625 8.90625 C 16.167969 8.40625 15.832031 7.808594 15.46875 7.21875 C 16.171875 6.007813 17.320313 4.6875 19 4.6875 C 21 4.6875 22.3125 6.304688 22.3125 8.40625 C 22.3125 11.90625 18.992188 14.800781 18.59375 15 C 18.992188 15 24.09375 13.085938 24.09375 7.6875 C 24.09375 4.386719 21.894531 1 18.09375 1 C 15.019531 1 13.3125 3.257813 12.75 4.15625 C 12.464844 4 12.175781 3.90625 11.90625 3.90625 C 11.6875 3.90625 11.445313 3.953125 11.21875 4.0625 C 10.59375 3.074219 8.914063 1 6 1 Z M 9 12 C 9.601563 12 10 12.398438 10 13 C 10 13.601563 9.601563 14 9 14 C 8.398438 14 8 13.601563 8 13 C 8 12.398438 8.398438 12 9 12 Z M 15 12 C 15.601563 12 16 12.398438 16 13 C 16 13.601563 15.601563 14 15 14 C 14.398438 14 14 13.601563 14 13 C 14 12.398438 14.398438 12 15 12 Z M 12 19 C 12.800781 19 13.40625 19.398438 13.40625 20 C 13.105469 20 12 19.699219 12 21 C 12 19.699219 10.894531 20 10.59375 20 C 10.59375 19.5 11.199219 19 12 19 Z"/></svg>