<svg xmlns="http://www.w3.org/2000/svg" viewBox="0 0 24 24"><path d="M 12 0 C 11.449219 0 11 0.449219 11 1 C 11 1.164063 11.054688 1.300781 11.125 1.4375 C 10.121094 2.003906 8.5625 3.148438 8.125 5 L 7 5 L 7 7 L 8 7 L 8 10.59375 L 10 9.8125 L 10 7 L 11 7 L 11 9.40625 L 12 9 L 13 9.40625 L 13 7 L 14 7 L 14 9.8125 L 16 10.59375 L 16 7 L 17 7 L 17 5 L 15.875 5 C 15.4375 3.148438 13.878906 2.003906 12.875 1.4375 C 12.945313 1.300781 13 1.164063 13 1 C 13 0.449219 12.550781 0 12 0 Z M 12 10 L 2 14 L 2 16 L 3 16 L 3 24 L 9 24 L 9 22 C 9 20.300781 10.300781 19 12 19 C 13.699219 19 15 20.300781 15 22 L 15 24 L 21 24 L 21 16 L 22 16 L 22 14 Z"/></svg>