<svg xmlns="http://www.w3.org/2000/svg" viewBox="0 0 80 80"><path d="M 40 10 C 36.144531 10 33 13.144531 33 17 C 33 20.855469 36.144531 24 40 24 C 43.855469 24 47 20.855469 47 17 C 47 13.144531 43.855469 10 40 10 Z M 40 12 C 42.773438 12 45 14.226563 45 17 C 45 19.773438 42.773438 22 40 22 C 37.226563 22 35 19.773438 35 17 C 35 14.226563 37.226563 12 40 12 Z M 33 26 C 28.59375 26 25 29.59375 25 34 L 25 48.71875 C 25 51.097656 26.6875 53.15625 29.019531 53.625 L 30 53.820313 L 30 66 C 30 68.199219 31.800781 70 34 70 L 40 70 C 42.199219 70 44 68.199219 44 66 L 44 39.203125 L 50.714844 44.863281 L 50.644531 44.796875 C 50.746094 44.902344 50.871094 44.992188 50.984375 45.082031 C 50.378906 45.714844 50 46.566406 50 47.5 L 50 49.5 L 52 49.5 L 52 47.5 C 52 46.660156 52.660156 46 53.5 46 C 54.339844 46 55 46.660156 55 47.5 L 55 70 L 57 70 L 57 47.5 C 57 46.5625 56.621094 45.710938 56.015625 45.078125 C 56.910156 44.34375 57.5 43.242188 57.5 42 C 57.5 40.652344 56.824219 39.453125 55.792969 38.730469 L 41.628906 27.222656 C 41.519531 27.132813 41.390625 27.066406 41.25 27.03125 C 40.3125 26.414063 39.214844 26 38 26 Z M 33 28 L 38 28 C 38.898438 28 39.710938 28.304688 40.390625 28.8125 C 40.777344 29.105469 41.320313 29.074219 41.675781 28.738281 L 41.070313 29.34375 L 54.53125 40.28125 C 54.558594 40.300781 54.582031 40.320313 54.609375 40.335938 C 55.144531 40.695313 55.5 41.300781 55.5 42 C 55.5 43.117188 54.617188 44 53.5 44 C 52.9375 44 52.4375 43.773438 52.074219 43.398438 C 52.050781 43.375 52.027344 43.355469 52.003906 43.332031 L 43.644531 36.292969 C 43.347656 36.039063 42.929688 35.984375 42.578125 36.148438 C 42.226563 36.3125 42 36.664063 42 37.054688 L 42 66 C 42 67.117188 41.117188 68 40 68 L 34 68 C 32.882813 68 32 67.117188 32 66 L 32 53 C 32 52.523438 31.664063 52.113281 31.195313 52.019531 L 29.410156 51.660156 C 28.003906 51.378906 27 50.15625 27 48.71875 L 27 34 C 27 30.675781 29.675781 28 33 28 Z M 31 36 C 30.449219 36 30 36.449219 30 37 C 30 37.550781 30.449219 38 31 38 C 31.550781 38 32 37.550781 32 37 C 32 36.449219 31.550781 36 31 36 Z M 31 40 C 30.449219 40 30 40.449219 30 41 C 30 41.550781 30.449219 42 31 42 C 31.550781 42 32 41.550781 32 41 C 32 40.449219 31.550781 40 31 40 Z M 31 44 C 30.449219 44 30 44.449219 30 45 C 30 45.550781 30.449219 46 31 46 C 31.550781 46 32 45.550781 32 45 C 32 44.449219 31.550781 44 31 44 Z M 31 48 C 30.449219 48 30 48.449219 30 49 C 30 49.550781 30.449219 50 31 50 C 31.550781 50 32 49.550781 32 49 C 32 48.449219 31.550781 48 31 48 Z"/></svg>