<?xml version="1.0"?><svg xmlns="http://www.w3.org/2000/svg" viewBox="0 0 128 128">    <path d="M 94.1875 1.875 C 90.425 1.875 86.950781 2.75 83.800781 4.5 C 82.400781 5.3 81.799609 7.0996094 82.599609 8.5996094 C 83.399609 9.9996094 85.199219 10.600781 86.699219 9.8007812 C 90.699219 7.6007812 95.499609 7.3996094 101.09961 9.0996094 C 99.699609 11.599609 97.200391 15.100781 92.900391 17.300781 C 88.300391 19.600781 82.599609 19.600391 76.099609 17.400391 C 74.499609 16.900391 72.800781 17.700781 72.300781 19.300781 C 71.800781 20.900781 72.599219 22.599609 74.199219 23.099609 C 77.999219 24.399609 81.699609 25.099609 85.099609 25.099609 C 88.899609 25.099609 92.399609 24.299219 95.599609 22.699219 C 104.69961 17.999219 107.9 8.7007812 108 8.3007812 C 108.5 6.8007812 107.80078 5.1 106.30078 4.5 C 102.00078 2.75 97.95 1.875 94.1875 1.875 z M 73.261719 1.9375 C 72.499219 1.975 71.749219 2.3003906 71.199219 2.9003906 C 67.199219 7.3003906 64.2 12.7 62.5 18.5 C 61.5 22 61 25.599219 61 29.199219 L 61 32.300781 C 58.3 30.000781 54.8 28.599609 51 28.599609 C 46.3 28.599609 41.900391 30.700391 38.900391 34.400391 C 36.700391 37.100391 35.5 40.599609 35.5 44.099609 C 35.5 46.399609 36 48.699219 37 50.699219 C 28.9 51.199219 22.5 57.899609 22.5 66.099609 C 22.5 74.299609 28.9 80.900391 37 81.400391 C 36.1 83.400391 35.5 85.6 35.5 88 C 35.5 96.2 41.9 102.90039 50 103.40039 C 49.1 105.40039 48.5 107.6 48.5 110 C 48.5 118.5 55.5 125.5 64 125.5 C 72.5 125.5 79.5 118.5 79.5 110 C 79.5 107.7 79 105.40039 78 103.40039 C 86.1 102.90039 92.5 96.2 92.5 88 C 92.5 85.7 92 83.400391 91 81.400391 C 99.1 80.900391 105.5 74.2 105.5 66 C 105.5 57.8 99.1 51.099609 91 50.599609 C 91.9 48.599609 92.5 46.4 92.5 44 C 92.5 35.5 85.5 28.5 77 28.5 C 73.2 28.5 69.7 29.899219 67 32.199219 L 67 29.099609 C 67 25.999609 67.400781 22.999609 68.300781 20.099609 C 69.700781 15.199609 72.199609 10.700391 75.599609 6.9003906 C 76.699609 5.7003906 76.600391 3.7992187 75.400391 2.6992188 C 74.800391 2.1492188 74.024219 1.9 73.261719 1.9375 z M 38 16 C 36.3 16 35 17.3 35 19 C 35 20.7 36.3 22 38 22 L 57.199219 22 C 58.899219 22 60.199219 20.7 60.199219 19 C 60.199219 17.3 58.899219 16 57.199219 16 L 38 16 z M 51 34.5 C 56.2 34.5 60.5 38.8 60.5 44 C 60.5 49.2 56.2 53.5 51 53.5 C 45.8 53.5 41.5 49.2 41.5 44 C 41.5 41.8 42.199609 39.7 43.599609 38 C 45.399609 35.8 48.1 34.5 51 34.5 z M 77 34.5 C 82.2 34.5 86.5 38.8 86.5 44 C 86.5 49.2 82.2 53.5 77 53.5 C 71.8 53.5 67.5 49.2 67.5 44 C 67.5 38.8 71.8 34.5 77 34.5 z M 38 56.5 C 43.2 56.5 47.5 60.8 47.5 66 C 47.5 71.2 43.2 75.5 38 75.5 C 32.8 75.5 28.5 71.2 28.5 66 C 28.5 60.8 32.8 56.5 38 56.5 z M 64 56.5 C 69.2 56.5 73.5 60.8 73.5 66 C 73.5 71.2 69.2 75.5 64 75.5 C 58.8 75.5 54.5 71.2 54.5 66 C 54.5 60.8 58.8 56.5 64 56.5 z M 90 56.5 C 95.2 56.5 99.5 60.8 99.5 66 C 99.5 71.2 95.2 75.5 90 75.5 C 84.8 75.5 80.5 71.2 80.5 66 C 80.5 60.8 84.8 56.5 90 56.5 z M 51 78.5 C 56.2 78.5 60.5 82.8 60.5 88 C 60.5 93.2 56.2 97.5 51 97.5 C 45.8 97.5 41.5 93.2 41.5 88 C 41.5 82.8 45.8 78.5 51 78.5 z M 77 78.5 C 82.2 78.5 86.5 82.8 86.5 88 C 86.5 93.2 82.2 97.5 77 97.5 C 71.8 97.5 67.5 93.2 67.5 88 C 67.5 82.8 71.8 78.5 77 78.5 z M 64 100.5 C 69.2 100.5 73.5 104.8 73.5 110 C 73.5 115.2 69.2 119.5 64 119.5 C 58.8 119.5 54.5 115.2 54.5 110 C 54.5 104.8 58.8 100.5 64 100.5 z"/></svg>