<svg xmlns="http://www.w3.org/2000/svg" viewBox="0 0 64 64"><radialGradient id="jH9vgY6fOLly4plYuYzvQa" cx="32.5" cy="32.5" r="31.5" gradientUnits="userSpaceOnUse" spreadMethod="reflect"><stop offset="0" stop-color="#afeeff"/><stop offset=".193" stop-color="#bbf1ff"/><stop offset=".703" stop-color="#d7f8ff"/><stop offset="1" stop-color="#e1faff"/></radialGradient><path fill="url(#jH9vgY6fOLly4plYuYzvQa)" d="M58.5,45c-1.375,0-2.5-1.125-2.5-2.5s1.125-2.5,2.5-2.5H60c2.2,0,4-1.8,4-4s-1.8-4-4-4 c-1.65,0-3-1.35-3-3c0-1.65,1.35-3,2.999-3H60c2.335,0,4.22-2.028,3.979-4.41C63.77,19.514,61.897,18,59.811,18H59 c-1.105,0-2-0.895-2-2c0-1.105,0.895-2,2-2h0.357c1.308,0,2.499-0.941,2.63-2.242C62.137,10.261,60.966,9,59.5,9h-11 C47.672,9,47,8.328,47,7.5S47.672,6,48.5,6h3.857c1.308,0,2.499-0.941,2.63-2.242C55.137,2.261,53.966,1,52.5,1L10.643,1 c-1.308,0-2.499,0.941-2.63,2.242C7.863,4.739,9.034,6,10.5,6H14c1.105,0,2,0.895,2,2c0,1.105-0.895,2-2,2H6.189 c-2.086,0-3.958,1.514-4.168,3.59C1.78,15.972,3.665,18,6,18h5.5c1.933,0,3.5,1.567,3.5,3.5c0,1.933-1.567,3.5-3.499,3.5H11.5 c-0.002-0.001-3.318-1.148-3.5,0H5.5C3.575,25,2,26.575,2,28.5C2,30.425,3.575,32,5.5,32H4c1.1,0,2,0.9,2,2c0,1.1-0.9,2-2,2 c-1.65,0-3,1.35-3,3c0,1.65,1.35,3,3,3h4c1.1,0,2,0.9,2,2c0,1.1-0.9,2-2,2l0,0c-2.75,0-5,2.25-5,5s2.25,5,5,5h14.5 c0.825,0,1.5,0.675,1.5,1.5S23.325,59,22.5,59h-3c-1.375,0-2.5,1.125-2.5,2.5s1.125,2.5,2.5,2.5h36c1.375,0,2.5-1.125,2.5-2.5 S56.875,59,55.5,59h-4c-0.825,0-1.5-0.675-1.5-1.5s0.675-1.5,1.5-1.5h7c3.025,0,5.5-2.475,5.5-5.5C64,47.475,61.525,45,58.5,45z"/><linearGradient id="jH9vgY6fOLly4plYuYzvQb" x1="35" x2="35" y1="52" y2="14" gradientUnits="userSpaceOnUse" spreadMethod="reflect"><stop offset="0" stop-color="#ff9757"/><stop offset="1" stop-color="#ffb65b"/></linearGradient><path fill="url(#jH9vgY6fOLly4plYuYzvQb)" d="M20.796,49l28.926,3C55.365,48.115,59,42.052,59,35.235C59,23.507,51.549,14,38.294,14 C18.529,14,11,29,11,35.235C11,42.052,15.152,45.115,20.796,49z"/><linearGradient id="jH9vgY6fOLly4plYuYzvQc" x1="25.81" x2="25.81" y1="49" y2="25.826" gradientUnits="userSpaceOnUse" spreadMethod="reflect"><stop offset="0" stop-color="#f48a53"/><stop offset=".88" stop-color="#f59756"/><stop offset="1" stop-color="#f59956"/></linearGradient><path fill="url(#jH9vgY6fOLly4plYuYzvQc)" d="M33,46.5c0-1.375,1.125-2.5,2.5-2.5h1.112H37c1.1,0,2-0.9,2-2c0-1.1-0.9-2-2-2h-1.5 c-0.825,0-1.5-0.675-1.5-1.5c0-0.825,0.675-1.5,1.5-1.5c0.9,0,0.702,0,1,0c1.375,0,2.5-1.125,2.5-2.5S37.875,32,36.5,32h-4 c-0.825,0-1.5-0.675-1.5-1.5s0.675-1.5,1.5-1.5c1.375,0,2.5-1.125,2.5-2.5S33.875,24,32.5,24H15.725c-1.33,1.66-2.352,3.37-3.105,5 H15c0.825,0,1.5,0.675,1.5,1.5S15.825,32,15,32h4.5c-1.375,0-2.5,1.125-2.5,2.5s1.125,2.5,2.5,2.5H18c0.825,0,1.5,0.675,1.5,1.5 S18.825,40,18,40h1c-1.1,0-2,0.9-2,2c0,0.745,0.418,1.391,1.026,1.735c0.063,0.643,0.363,1.217,0.823,1.626 c0.078,0.056,0.067,1.392,0.083,2.338c0.327,0.233,0.661,0.468,1.001,0.705C21.76,47.76,19.626,49,20,49h15.5 C34.125,49,33,47.875,33,46.5z"/><linearGradient id="jH9vgY6fOLly4plYuYzvQd" x1="51.653" x2="51.653" y1="49" y2="45.28" gradientUnits="userSpaceOnUse" spreadMethod="reflect"><stop offset="0" stop-color="#f48a53"/><stop offset="1" stop-color="#f58f55"/></linearGradient><path fill="url(#jH9vgY6fOLly4plYuYzvQd)" d="M56.306,45H49c-1.1,0-2,0.9-2,2c0,1.1,0.9,2,2,2h4.258 C54.437,47.778,55.461,46.438,56.306,45z"/><linearGradient id="jH9vgY6fOLly4plYuYzvQe" x1="-437.948" x2="-436.318" y1="111.24" y2="111.24" gradientTransform="matrix(0 -5.9219 -5.9219 0 692.26 -2540.284)" gradientUnits="userSpaceOnUse" spreadMethod="reflect"><stop offset="0" stop-color="#49cff0"/><stop offset=".207" stop-color="#54d3f2"/><stop offset=".572" stop-color="#72def7"/><stop offset="1" stop-color="#9cedff"/></linearGradient><path fill="url(#jH9vgY6fOLly4plYuYzvQe)" d="M58.885,49h-2.115H9.173H8.115C6.947,49,6,49.895,6,51s0.947,2,2.115,2h50.769 C60.053,53,61,52.105,61,51S60.053,49,58.885,49"/><linearGradient id="jH9vgY6fOLly4plYuYzvQf" x1="10.816" x2="10.816" y1="40.1" y2="21" gradientUnits="userSpaceOnUse" spreadMethod="reflect"><stop offset="0" stop-color="#f29265"/><stop offset=".64" stop-color="#fbb687"/><stop offset="1" stop-color="#ffc595"/></linearGradient><path fill="url(#jH9vgY6fOLly4plYuYzvQf)" d="M21.633,36.1l-10.911-8.183C11.504,27.186,12,26.154,12,25c0-2.209-1.791-4-4-4s-4,1.791-4,4 c0,0.353,0.06,0.689,0.146,1.015C4.096,26.013,4.05,26,4,26c-2.209,0-4,1.791-4,4c0,2.209,1.791,4,4,4 c1.561,0,2.898-0.903,3.557-2.207L18.633,40.1L21.633,36.1z"/><linearGradient id="jH9vgY6fOLly4plYuYzvQg" x1="19.778" x2="20.009" y1="55.93" y2="36.445" gradientUnits="userSpaceOnUse" spreadMethod="reflect"><stop offset="0" stop-color="#ff9757"/><stop offset="1" stop-color="#ffb65b"/></linearGradient><path fill="url(#jH9vgY6fOLly4plYuYzvQg)" d="M13,45c-3.569-4.934-3.569-4.934-3.569-4.934c-1.915-2.46-1.907-5.909,0.02-8.36l2.45-3.116 c1.834-2.332,4.97-3.202,7.743-2.148l5.569,2.117c6.543,2.488,8.879,10.552,4.679,16.152l0,0C27.906,47.36,24.98,48.852,22,49 c-1.35,0.067-4.5,0-4.5,0S15.113,47.921,13,45z"/><linearGradient id="jH9vgY6fOLly4plYuYzvQh" x1="16" x2="16" y1="49" y2="31.933" gradientUnits="userSpaceOnUse" spreadMethod="reflect"><stop offset="0" stop-color="#f48f54"/><stop offset=".88" stop-color="#f59c57"/><stop offset="1" stop-color="#f59e57"/></linearGradient><path fill="url(#jH9vgY6fOLly4plYuYzvQh)" d="M24,47c0-1.1-0.9-2-2-2h-1.5c-0.825,0-1.5-0.675-1.5-1.5s0.675-1.5,1.5-1.5H21 c1.1,0,2-0.9,2-2c0-1.1-0.9-2-2-2h-5.5c-0.825,0-1.5-0.675-1.5-1.5s0.675-1.5,1.5-1.5H17c1.1,0,2-0.9,2-2c0-1.1-0.9-2-2-2h-6.994 l-0.555,0.707c-1.927,2.451-1.935,5.9-0.02,8.36c0,0,0,0,3.569,4.934c2.113,2.921,4.5,4,4.5,4H22c0,0,0.594-0.07,0.782-0.161 C23.496,48.533,24,47.823,24,47z"/></svg>