<svg xmlns="http://www.w3.org/2000/svg" viewBox="0 0 30 30"><path d="M 9 3 A 1.0001 1.0001 0 0 0 7.9863281 4 L 7 4 A 1.0001 1.0001 0 0 0 6.78125 4.0214844 C 4.6863057 4.1384901 3 5.8775225 3 8 C 3 10.096413 4.646065 11.815605 6.7050781 11.970703 A 1.0001 1.0001 0 0 0 7.2890625 11.970703 C 7.9094812 11.92489 8.4886407 11.741083 9 11.441406 L 9 14 L 9 19 L 9 22 L 8 22 C 7.448 22 7 22.448 7 23 L 7 24 L 6 24 C 5.448 24 5 24.448 5 25 L 5 26 C 5 26.552 5.448 27 6 27 L 24 27 C 24.552 27 25 26.552 25 26 L 25 25 C 25 24.448 24.552 24 24 24 L 23 24 L 23 23 C 23 22.448 22.552 22 22 22 L 21 22 L 21 19 L 21 14 L 21 11.441406 C 21.509752 11.740141 22.086846 11.924134 22.705078 11.970703 A 1.0001 1.0001 0 0 0 23.289062 11.970703 C 25.350815 11.818457 27 10.098397 27 8 C 27 5.8775225 25.313694 4.1384901 23.21875 4.0214844 A 1.0001 1.0001 0 0 0 23 4 L 22.013672 4 A 1.0001 1.0001 0 0 0 21 3 L 9 3 z M 7 6 C 8.1164141 6 9 6.8835859 9 8 C 9 8.7483954 8.5980913 9.3854123 8 9.7285156 L 8 8 A 1.0001 1.0001 0 0 0 6.984375 6.9863281 A 1.0001 1.0001 0 0 0 6 8 L 6 9.7285156 C 5.4019087 9.3854123 5 8.7483954 5 8 C 5 6.8835859 5.8835859 6 7 6 z M 10.439453 6 L 12 6 L 12 8 L 11 8 A 1.0001 1.0001 0 0 0 10.988281 7.8496094 C 10.960822 7.1771524 10.762065 6.5502006 10.439453 6 z M 14 6 L 16 6 L 16 8 L 14 8 L 14 6 z M 18 6 L 19.560547 6 C 19.241386 6.5443154 19.042685 7.1638761 19.011719 7.828125 A 1.0001 1.0001 0 0 0 19 8 L 18 8 L 18 6 z M 23 6 C 24.116414 6 25 6.8835859 25 8 C 25 8.7483954 24.598091 9.3854123 24 9.7285156 L 24 8 A 1.0001 1.0001 0 0 0 22.984375 6.9863281 A 1.0001 1.0001 0 0 0 22 8 L 22 9.7285156 C 21.401909 9.3854123 21 8.7483954 21 8 C 21 6.8835859 21.883586 6 23 6 z M 13 12 C 13.553 12 14 12.448 14 13 L 14 14 L 14 19 L 14 20 C 14 20.552 13.553 21 13 21 C 12.447 21 12 20.552 12 20 L 12 19 L 12 14 L 12 13 C 12 12.448 12.447 12 13 12 z M 17 12 C 17.553 12 18 12.448 18 13 L 18 14 L 18 19 L 18 20 C 18 20.552 17.553 21 17 21 C 16.447 21 16 20.552 16 20 L 16 19 L 16 14 L 16 13 C 16 12.448 16.447 12 17 12 z"/></svg>