<svg xmlns="http://www.w3.org/2000/svg" viewBox="0 0 16 16"><path d="M 4.5 2 C 3.6774686 2 3 2.6774686 3 3.5 L 3 12.5 C 3 13.322531 3.6774686 14 4.5 14 L 12.447266 14 C 13.269797 14 13.947266 13.322531 13.947266 12.5 L 13.947266 3.5 C 13.947266 2.6774686 13.269797 2 12.447266 2 L 4.5 2 z M 4.5 3 L 12.447266 3 C 12.728734 3 12.947266 3.2185314 12.947266 3.5 L 12.947266 12.5 C 12.947266 12.781469 12.728734 13 12.447266 13 L 4.5 13 C 4.2185314 13 4 12.781469 4 12.5 L 4 3.5 C 4 3.2185314 4.2185314 3 4.5 3 z M 8.5625 4 C 7.2133073 4.0000001 6.125 5.1335873 6.125 6.5 C 6.125 7.6773887 6.9347719 8.6782017 8.0214844 8.9335938 C 8.1250529 10.125637 8.6428958 10.915917 9.1777344 11.367188 C 9.7753963 11.871465 10.408203 11.992187 10.408203 11.992188 A 0.50067526 0.50067526 0 0 0 10.591797 11.007812 C 10.591797 11.007812 10.224604 10.941033 9.8222656 10.601562 C 9.4780066 10.311095 9.1369501 9.8217558 9.0410156 8.9511719 C 10.160198 8.7208395 11.001953 7.700375 11.001953 6.5 C 11.001953 5.1335871 9.9116929 3.9999998 8.5625 4 z M 8.5625 5 C 9.3539631 4.9999999 10.001953 5.6572736 10.001953 6.5 C 10.001953 7.3370188 9.3622744 7.9892256 8.578125 7.9980469 A 0.50005 0.50005 0 0 0 8.4941406 7.9921875 C 8.4934865 7.9921553 8.4928414 7.9922206 8.4921875 7.9921875 A 0.50005 0.50005 0 0 0 8.4882812 7.9921875 C 7.7317681 7.951807 7.125 7.3156686 7.125 6.5 C 7.125 5.6572738 7.7710371 5 8.5625 5 z"/></svg>