<svg xmlns="http://www.w3.org/2000/svg" viewBox="0 0 16 16"><path d="M 7.5058594 1.03125 L 0 5.0449219 L 0 6 L 1 6 L 1 5.6445312 L 7.5058594 2.1660156 L 14 5.6425781 L 14 6 L 15 6 L 15 5.0449219 L 7.5058594 1.03125 z M 3 6 L 3 8 L 3 9 L 3 14 L 3.5 14 L 4 14 L 11 14 L 11.5 14 L 12 14 L 12 13.5 L 12 12.5 L 12 8.5 L 12 7.5 C 12 6.6774686 11.322531 6 10.5 6 L 7 6 L 7 7 L 7 8 L 6 8 L 4 8 L 4 6 L 3 6 z M 6 8 A 1 1 0 0 0 7 7 A 1 1 0 0 0 6 6 A 1 1 0 0 0 5 7 A 1 1 0 0 0 6 8 z M 0 7 L 0 8 L 1 8 L 1 7 L 0 7 z M 8 7 L 10.5 7 C 10.781469 7 11 7.2185314 11 7.5 L 11 8 L 8 8 L 8 7 z M 14 7 L 14 8 L 15 8 L 15 7 L 14 7 z M 0 9 L 0 10 L 1 10 L 1 9 L 0 9 z M 4 9 L 11 9 L 11 11.09375 C 10.84275 11.037133 10.67567 11 10.5 11 L 7 11 L 7 12 L 7 13 L 6 13 L 4 13 L 4 9 z M 6 13 A 1 1 0 0 0 7 12 A 1 1 0 0 0 6 11 A 1 1 0 0 0 5 12 A 1 1 0 0 0 6 13 z M 14 9 L 14 10 L 15 10 L 15 9 L 14 9 z M 0 11 L 0 12 L 1 12 L 1 11 L 0 11 z M 14 11 L 14 12 L 15 12 L 15 11 L 14 11 z M 8 12 L 10.5 12 C 10.781469 12 11 12.218531 11 12.5 L 11 13 L 8 13 L 8 12 z M 0 13 L 0 14 L 1 14 L 1 13 L 0 13 z M 14 13 L 14 14 L 15 14 L 15 13 L 14 13 z"/></svg>