<svg xmlns="http://www.w3.org/2000/svg" viewBox="0 0 26 26"><path d="M 0.90625 -0.03125 C 0.863281 -0.0234375 0.820313 -0.0117188 0.78125 0 C 0.40625 0.0664063 0.105469 0.339844 0 0.703125 C -0.105469 1.070313 0.00390625 1.460938 0.28125 1.71875 L 13.90625 15.3125 L 24.28125 25.71875 C 24.679688 26.117188 25.320313 26.117188 25.71875 25.71875 C 26.117188 25.320313 26.117188 24.679688 25.71875 24.28125 L 16.78125 15.34375 C 17.375 14.710938 17.882813 14.15625 18.375 13.65625 C 18.679688 13.777344 19.175781 13.726563 19.8125 13.3125 C 19.710938 14.210938 21.300781 15.105469 21.5 13.40625 C 21.898438 14.007813 22.113281 15.007813 23.3125 14.40625 C 24.210938 14.105469 24.195313 12.289063 24.09375 11.6875 C 24.292969 11.886719 24.800781 11.894531 25 11.59375 C 25.398438 10.894531 24.898438 9.804688 24.5 9.40625 C 25.601563 9.90625 26 9.394531 26 9.09375 C 26 7.894531 25.707031 7.710938 25.40625 7.3125 C 26.007813 7.613281 26.707031 6.1875 24.90625 5.1875 C 25.304688 5.085938 26.386719 3.488281 24.1875 3.1875 C 25.085938 2.085938 23.488281 1.09375 22.6875 1.59375 C 22.886719 0.292969 21.199219 -0.0859375 20.5 0.8125 C 20.101563 0.0117188 18.394531 -0.195313 18.59375 0.40625 C 17.195313 -0.292969 16.1875 0.0117188 16.6875 1.3125 C 13.886719 -0.289063 13.1875 1.210938 13.6875 1.8125 C 12.085938 1.613281 10.992188 1.898438 11.59375 2.5 C 9.894531 3.101563 11.007813 3.488281 11.40625 3.6875 C 10.605469 4.085938 9.105469 4.898438 10.90625 5.5 C 9.804688 6.199219 10.800781 7.09375 12 7.09375 C 11.101563 7.644531 11.070313 8.199219 11.40625 8.5625 C 11.183594 8.816406 10.980469 9.0625 10.75 9.3125 L 1.71875 0.28125 C 1.511719 0.0585938 1.210938 -0.0546875 0.90625 -0.03125 Z M 14.40625 10.09375 C 14.199219 10.488281 14.113281 10.832031 14.125 11.09375 C 13.859375 11.355469 13.601563 11.59375 13.3125 11.875 L 12.4375 11 C 12.695313 10.726563 12.976563 10.441406 13.21875 10.1875 C 13.667969 10.324219 14.257813 10.242188 14.40625 10.09375 Z M 16.3125 11.6875 C 16.125 12.15625 16.246094 12.585938 16.5625 12.78125 C 16.242188 13.089844 15.800781 13.542969 15.375 13.9375 L 14.78125 13.34375 C 15.253906 12.789063 15.6875 12.289063 16.09375 11.8125 C 16.171875 11.769531 16.265625 11.742188 16.3125 11.6875 Z M 7.90625 12 C 5.605469 14 3.5 15.5 3.5 15.5 C 1.199219 17.398438 -1.699219 21.300781 1.5 24.5 L 1.59375 24.59375 C 3.695313 26.695313 7.195313 26.488281 9.09375 24.1875 C 9.09375 24.1875 11.585938 21.3125 14.1875 18.3125 L 12.59375 16.6875 C 10.195313 18.988281 7.804688 21.199219 7.40625 21.5 C 7.40625 21.5 9.789063 19.011719 12.1875 16.3125 L 10.40625 14.5 C 7.304688 17.199219 4.1875 19.6875 4.1875 19.6875 C 4.386719 19.289063 7.113281 16.605469 9.8125 13.90625 Z"/></svg>