<svg xmlns="http://www.w3.org/2000/svg" viewBox="0 0 100 100"><path d="M 48.378906 9 C 34.642696 9 19.5 21.057847 19.5 41 L 19.5 73 C 19.5 76.861344 17.864193 78.674226 15.904297 79.748047 C 13.944401 80.821868 11.584852 81 10.5 81 A 1.0001 1.0001 0 0 0 10.486328 81 A 1.0001 1.0001 0 0 0 10.400391 81.005859 A 1.0001 1.0001 0 0 0 10.302734 81.021484 A 1.0001 1.0001 0 0 0 10.296875 81.021484 A 1.0001 1.0001 0 0 0 10.205078 81.046875 A 1.0001 1.0001 0 0 0 9.9355469 81.177734 A 1.0001 1.0001 0 0 0 9.5527344 82.318359 C 9.5581044 82.334349 9.5783714 82.364539 9.5839844 82.380859 A 1.0001 1.0001 0 0 0 9.6464844 82.509766 C 10.079329 83.711281 11.092387 85.667635 13.076172 87.480469 C 15.145555 89.371435 18.25202 91 22.5 91 C 25.874781 91 29.38009 90.109101 32.0625 87.730469 C 34.74491 85.351836 36.5 81.515809 36.5 76 L 36.5 56 C 36.5 51.151513 37.559404 48.324293 38.974609 46.646484 C 40.389815 44.968676 42.228967 44.326411 44.152344 44.0625 C 50.518909 43.189276 54.658061 40.508144 57.173828 38.017578 C 58.431712 36.772295 59.28781 35.578789 59.835938 34.679688 C 60.082648 34.275002 60.248345 33.954443 60.378906 33.691406 C 60.473076 33.778176 60.547213 33.838547 60.664062 33.957031 C 61.100758 34.399831 61.673758 35.06197 62.242188 35.947266 C 63.379046 37.717857 64.5 40.364043 64.5 44 L 64.5 76 C 64.5 82.745942 67.10857 86.673689 70.332031 88.71875 C 73.555493 90.763811 77.247177 91 79.5 91 C 83.035826 91 85.84165 89.346878 87.814453 87.476562 C 89.722653 85.667496 90.853188 83.721766 91.349609 82.515625 C 91.349609 82.515625 91.351562 82.513672 91.351562 82.513672 A 1.0001 1.0001 0 0 0 91.398438 82.425781 C 91.404837 82.409751 91.425491 82.380974 91.431641 82.365234 A 1.0001 1.0001 0 0 0 90.982422 81.126953 A 1.0001 1.0001 0 0 0 90.894531 81.082031 A 1.0001 1.0001 0 0 0 90.892578 81.082031 A 1.0001 1.0001 0 0 0 90.888672 81.080078 A 1.0001 1.0001 0 0 0 90.804688 81.048828 A 1.0001 1.0001 0 0 0 90.798828 81.046875 A 1.0001 1.0001 0 0 0 90.791016 81.044922 A 1.0001 1.0001 0 0 0 90.701172 81.021484 A 1.0001 1.0001 0 0 0 90.605469 81.005859 A 1.0001 1.0001 0 0 0 90.603516 81.005859 A 1.0001 1.0001 0 0 0 90.601562 81.005859 A 1.0001 1.0001 0 0 0 90.503906 81 A 1.0001 1.0001 0 0 0 90.5 81 C 89.374655 81 87.024863 80.848471 85.076172 79.791016 C 83.127481 78.73356 81.5 76.925851 81.5 73 L 81.5 37 C 81.5 29.610475 79.20712 24.175657 75.765625 20.617188 C 72.38979 17.126607 67.950013 15.485972 63.640625 15.423828 L 63.757812 15.583984 C 63.722232 15.534724 63.715931 15.528984 63.675781 15.478516 C 63.665061 15.465046 63.643549 15.439508 63.630859 15.423828 C 63.550269 15.422728 63.469165 15.400391 63.388672 15.400391 L 63.611328 15.400391 C 63.572548 15.352861 63.537618 15.308401 63.482422 15.244141 C 63.316845 15.051346 63.076328 14.788621 62.759766 14.476562 C 62.126637 13.852452 61.187429 13.035977 59.923828 12.224609 C 57.396627 10.601875 53.562666 9 48.378906 9 z M 48.378906 11 C 53.153146 11 56.583201 12.456688 58.84375 13.908203 C 59.974024 14.633961 60.809079 15.359851 61.357422 15.900391 C 61.631593 16.170661 61.832768 16.395041 61.964844 16.548828 C 62.030884 16.625718 62.080544 16.683969 62.111328 16.722656 C 62.142108 16.761346 62.189915 16.830737 62.140625 16.761719 A 1.0001 1.0001 0 0 0 62.148438 16.771484 L 62.308594 16.990234 A 1.0001 1.0001 0 0 0 63.115234 17.400391 L 63.388672 17.400391 C 67.274114 17.400391 71.28237 18.85658 74.328125 22.005859 C 77.37389 25.155107 79.5 30.020525 79.5 37 L 79.5 73 C 79.5 77.525149 81.670535 80.219034 84.121094 81.548828 C 85.854578 82.489502 87.513947 82.75087 88.890625 82.867188 C 88.345794 83.809622 87.595162 84.92787 86.4375 86.025391 C 84.719303 87.654326 82.416174 89 79.5 89 C 77.400823 89 74.092835 88.734986 71.404297 87.029297 C 68.715759 85.323608 66.5 82.251058 66.5 76 L 66.5 44 C 66.5 39.949957 65.232673 36.902595 63.925781 34.867188 C 63.272335 33.849483 62.610165 33.08231 62.087891 32.552734 C 61.826753 32.287947 61.600703 32.08205 61.425781 31.933594 C 61.251783 31.785921 61.235488 31.753061 61.015625 31.621094 L 61.013672 31.619141 L 60.460938 31.287109 A 1.0001 1.0001 0 0 0 60 31.146484 L 60 24.5 A 0.50005 0.50005 0 0 0 59.484375 24 A 0.50005 0.50005 0 0 0 59.021484 24.355469 C 59.021484 24.355469 55.337046 36.648286 42.945312 38.003906 C 41.11497 38.204352 37.778283 39.262522 34.861328 42.322266 C 31.944373 45.382009 29.5 50.436104 29.5 58.5 L 29.5 77.5 C 29.5 78.383817 29.40651 79.176042 29.232422 79.880859 A 0.50005 0.50005 0 1 0 30.203125 80.119141 C 30.399038 79.325958 30.5 78.454183 30.5 77.5 L 30.5 58.5 C 30.5 50.636896 32.85244 45.876975 35.583984 43.011719 C 38.315529 40.146462 41.47903 39.168648 43.054688 38.996094 C 52.624961 37.949133 57.210274 30.736037 59 26.960938 L 59 31.816406 L 58.783203 32.392578 A 1.0001 1.0001 0 0 0 58.78125 32.396484 C 58.83134 32.261865 58.74688 32.490064 58.640625 32.708984 C 58.534365 32.927908 58.367015 33.246144 58.128906 33.636719 C 57.652689 34.417867 56.89307 35.483439 55.767578 36.597656 C 53.516595 38.826091 49.821294 41.265302 43.880859 42.080078 C 41.679236 42.382168 39.25881 43.209731 37.447266 45.357422 C 35.635815 47.505166 34.5 50.858487 34.5 56 L 34.5 76 C 34.5 81.101191 32.954668 84.265304 30.736328 86.232422 C 28.517988 88.19954 25.522219 89 22.5 89 C 18.75398 89 16.191696 87.617645 14.425781 86.003906 C 13.881566 85.506588 13.452371 85.009226 13.087891 84.525391 C 14.036585 84.967823 15.280182 85.398322 16.916016 85.677734 A 0.50026397 0.50026397 0 0 0 17.083984 84.691406 C 14.888771 84.316447 13.451802 83.668177 12.570312 83.126953 C 12.405926 83.026022 12.281694 82.936655 12.15625 82.847656 C 13.514499 82.721484 15.150242 82.441593 16.865234 81.501953 C 19.315838 80.159274 21.5 77.472656 21.5 73 L 21.5 41 C 21.5 22.068153 35.815117 11 48.378906 11 z M 28.177734 82.494141 A 0.50005 0.50005 0 0 0 27.791016 82.662109 C 27.472457 83.010045 27.112031 83.31566 26.710938 83.583984 A 0.50005 0.50005 0 1 0 27.265625 84.416016 C 27.728532 84.10634 28.151902 83.747955 28.527344 83.337891 A 0.50005 0.50005 0 0 0 28.177734 82.494141 z M 23.978516 84.707031 A 0.50005 0.50005 0 0 0 23.894531 84.71875 C 23.0142 84.907049 22.043488 85 21 85 A 0.50005 0.50005 0 1 0 21 86 C 22.102512 86 23.143795 85.90297 24.105469 85.697266 A 0.50005 0.50005 0 0 0 23.978516 84.707031 z"/></svg>