<svg xmlns="http://www.w3.org/2000/svg" width="512" height="512" viewBox="0 0 512 512"><path fill="#EDC92F" d="M256,7.9C119,7.9,7.9,119,7.9,256C7.9,393,119,504.1,256,504.1c137,0,248.1-111.1,248.1-248.1C504.1,119,393,7.9,256,7.9z"/><path fill="#A46434" d="M357.5,203.1l-23.6-17.3c-1.6-1.2-4.5-0.1-7.7,2.5L281,147.9l-0.1,0.1c0,0-37.8-41-46-47c-56.8-41.6-106.4-5.7-120.6,12.6c0,0,57.5-3.1,72,21.5c17.8,30.3,1.6,46.5,1.6,46.5L43.4,383.9c13.2,21.9,29.6,41.5,48.7,58.3c57.9-100.3,128.3-221.8,134-229.6c20.2-27.6,77.3,8.7,77.3,8.7c-0.5,2.3-3.7,8.9-2.6,9.7l23.6,17.3c2.5,1.8,8.5-2.1,13.4-8.7l15.5-21.2C358.2,211.8,360.1,204.9,357.5,203.1z"/><path fill="#935328" d="M256.3,165.1c-0.1,0-0.2-0.1-0.3-0.1c-10.1-2.7-16.9,1.1-27-1.4L64.7,413.9c8.4,10.1,17.5,19.6,27.4,28.3c56.7-98.2,125.3-216.6,133.6-229C224.6,211.5,246.7,170.4,256.3,165.1z"/><path fill="#7B7C7C" d="M357.5,203.1l-23.6-17.3c-1.6-1.2-4.5-0.1-7.7,2.5L281,147.9l-0.1,0.1c0,0-37.8-41-46-47c-56.8-41.6-106.4-5.7-120.6,12.6c0,0,57.5-3.1,72,21.5c17.8,30.3,1.6,46.5,1.6,46.5l38.2,30.9c20.2-27.6,77.3,8.7,77.3,8.7c-0.5,2.3-3.7,8.9-2.6,9.7l23.6,17.3c2.5,1.8,8.5-2.1,13.4-8.7l15.5-21.2C358.2,211.8,360.1,204.9,357.5,203.1z"/><path fill="#626463" d="M357.5,203.1l-23.6-17.3c-1.6-1.2-4.5-0.1-7.7,2.5L281,147.9l-0.1,0.1c0,0-13.9-15.1-26.6-28.2l-47.5,77.1l19.4,15.7c20.2-27.6,77.3,8.7,77.3,8.7c-0.5,2.3-3.7,8.9-2.6,9.7l23.6,17.3c2.5,1.8,8.5-2.1,13.4-8.7l15.5-21.2C358.2,211.8,360.1,204.9,357.5,203.1z"/><g><path fill="#868786" d="M352.3,325.7c-4.3,0-7.9,1.4-7.9,3.2s3.5,85.3,7.9,85.3s7.9-83.5,7.9-85.3S356.6,325.7,352.3,325.7z"/><path fill="#6A6D6C" d="M352.3,325.7c-4.3,0-7.9,1.4-7.9,3.2c0,0.3,0.1,2.7,0.3,6.6l14.9,5.5c0.3-5.5,0.5-11.7,0.5-12C360.1,327.1,356.6,325.7,352.3,325.7z"/><path fill="#868786" d="M352.3 306.8A32.8 13.2 0 1 0 352.3 333.2A32.8 13.2 0 1 0 352.3 306.8Z"/><path fill="#666867" d="M352.3 314.6A13.3 5.4 0 1 0 352.3 325.4A13.3 5.4 0 1 0 352.3 314.6Z"/></g></svg>