<svg xmlns="http://www.w3.org/2000/svg" width="512" height="512" viewBox="0 0 512 512"><path fill="#E84849" d="M33.5,256c0-122.9,99.6-222.5,222.5-222.5S478.5,133.1,478.5,256c0,122.9-99.6,222.5-222.5,222.5S33.5,378.9,33.5,256z"/><path fill="#F3C9A1" d="M331.5,310.1c0,16.2-6.9,64-9.5,64H215.7c-4.9,0-10.2-25.5-13.2-33.1l0-30.1c0-16.2,5.6-38,21.8-38h85.3c16.2,0,21.8,5.6,21.8,21.8V310.1z"/><path fill="#F3C9A1" d="M202.5,340.4c0,0-26.4-36.4-33.8-51.4c-3.8-7.7-2.3-26.4-3.6-44.8c-1.3-17.7-7-33.6-2.7-37.4c11.8-10.6,26,10.3,27.3,12.8c11,21.5,13.1,53.7,13.1,53.7l20.8,26L202.5,340.4z"/><path fill="#F3C9A1" d="M331.5 309.5L199.9 332.5 199.9 216.1 331.5 231.3z"/><path fill="#F3C9A1" d="M232.5 226.8c0 9-7.3 16.3-16.2 16.3l0 0c-9 0-16.3-7.3-16.3-16.3V121.4c0-9 7.3-16.3 16.3-16.3l0 0c9 0 16.2 7.3 16.2 16.3V226.8zM265.5 226.8c0 9-7.3 16.3-16.2 16.3l0 0c-9 0-16.3-7.3-16.3-16.3V96c0-9 7.3-16.3 16.3-16.3l0 0c9 0 16.2 7.3 16.2 16.3V226.8zM298.5 226.8c0 9-7.3 16.3-16.3 16.3l0 0c-9 0-16.3-7.3-16.3-16.3V116.3c0-9 7.3-16.3 16.3-16.3l0 0c9 0 16.3 7.3 16.3 16.3V226.8zM331.5 229.3c0 9-7.3 16.3-16.3 16.3l0 0c-9 0-16.3-7.3-16.3-16.3v-57.2c0-9 7.3-16.3 16.3-16.3l0 0c9 0 16.3 7.3 16.3 16.3V229.3z"/><path fill="#EADEDF" d="M205.9 366.4H325.4V457.79999999999995H205.9z"/><path fill="#9F2322" d="M329.1,377.8H204.2c-2.2,0-4,1.8-4,4v89.6c17.8,4.6,36.5,7,55.7,7c27.1,0,53.1-4.9,77.1-13.7v-82.9C333.1,379.6,331.3,377.8,329.1,377.8z"/></svg>