<svg xmlns="http://www.w3.org/2000/svg" width="512" height="512" viewBox="0 0 512 512"><path fill="#C56528" d="M435.9 234.3c.7-18.3 1.6-36.6 1.9-55-3 .1-6.4.5-8.9 2 3.8 8 2.7 20.1 2.3 27.6-1.3 21.8-1.2 43.7-2.2 65.5-1.2 24.9-3.9 49.8-2 74.8.5 6.2 1.1 12.4 2.2 18.5.8 4.8 2.6 9.2 4.3 13.8-1.1-4.7-2.1-9.5-2.7-14.4-2.7-21.8.3-43.5 2.4-65.1C435.5 279.5 435 256.9 435.9 234.3zM430.1 417.2c-29.2 4.6-58.9 5.9-88.5 5.3-30.1-.6-60.1 1.3-90.2-.6-15.4-1-30.7-3.5-46.1-4.5-14-.9-27.7.1-41.7 1-10.1.7-21.6 1-30.9-3.7-.4.5-1 .9-1.7 1.2-4.1 2-6.2 7.8-8.5 12.4 54 .6 107.9 5.2 161.8 6.9 28.9.9 57.9 1 86.8-1 13.8-.9 27.5-2.5 41.2-3.9 6.2-.7 12.1-1.1 18.4-1 .5 0 1.1 0 1.6 0C431.1 425.6 430.4 421.4 430.1 417.2zM116.4 382.7c.2-13.9 1-27.9 1-41.8-.1-16-.7-31.9-.1-48 1.3-32.6 4.3-65.1 3.6-97.7 0-.2 0-.3 0-.5-.4-.2-.8-.5-1.2-.8-3.6-3.1-4.2-7.7-6.5-11.4-.1.4-.1.9-.2 1.4-.3 2.9-.4 5.8-.5 8.8 0 7.5.3 15 .7 22.5.4 6.6.7 12.9.1 19.4-1.2 13.7-3.9 27.2-4.4 41-1 27.4-.1 55 1.2 82.4.6 13 1.4 26 2.2 39 .4 8 .7 16.1 2.1 24.1 2.7-5.1 5.2-9.8 9.6-13.2C118.3 401 116.3 391.8 116.4 382.7z"/><path fill="#D6E5E5" d="M421.4,380.4c-3.4-9.7-4.6-20-5.3-30.3c-1.5-22.3,0-44.7,1.5-67c1.5-22.6,1.4-45.3,2.4-67.9c0.3-6.1,0.9-12.3,0.6-18.4c-0.1-2.1,0-8.7-1.8-11.4c-27.8,0.2-55.3,4.6-82.9,6.1c-27.8,1.5-55.7,1.8-83.6,1.9c-14.2,0-28.4-0.1-42.6-0.3c-13.5-0.2-27.3-1-40.8,0.3c-7.4,0.7-15,0-22.4,0c-3.7,0-10.2-0.5-14.6,0.5c0,0.2,0,0.4,0,0.6c0.6,27.4-1.5,54.7-2.9,82.1c-0.7,13.7-1.3,27.4-1.2,41.1c0.1,12.5,0.6,24.9,0.4,37.4c-0.2,7.3-0.2,14.6-0.6,21.8c-0.3,5-0.6,10.6,0.7,15.6c3.4,12.8,14.9,15.8,26.9,15.6c13.3-0.3,26.6-2.1,40-1.8c15.1,0.3,30,2.5,45,4c32.2,3.1,64.5,0.6,96.7,1.4c30.3,0.7,60.7-0.3,90.7-4.9c0.1-1.1,0.6-2,1.3-2.8C428.1,395.7,424,387.6,421.4,380.4z"/><path fill="#C56528" d="M271.4 53.1c-3.4-.6-8-1-11 1-.8.5-1.3 1.1-1.5 1.9 2.7 1.6 4.1 5.5 1.6 8.5-.4.5-.6.7-.8 1-.1.3-.2.6-.4.9 0 0 0 .1 0 .1 0 .1 0 .2 0 .2.3.4.8 1 .6.9 2.1 1.9 4.8 3 7.8 3.6 5.7 1.1 14.4.9 16.4-3.8C287.4 60.1 278.2 54.3 271.4 53.1zM472.8 138.3c-1.9 1.3-4.8 1.1-6.7-.3-1.6 0-2.9.1-3.5.1-7.4.1-14.7-.2-22.1-.4-21.4-.7-42.9-.6-64.3-1.3-32.7-1.1-65.4-2.5-98.1-2-32.9.5-65.7 3.2-98.6 3.7-19.5.3-38.8-.4-58.3-.7-8.9-.1-17.9-.2-26.7.9-3.4.4-6.9.9-10.1 2.1 0 0 0 0 0 0 7.4 6.3 12.8 14.3 20.3 20.7 3.1 2.6 6.5 4.9 9.8 7.4 24.9.8 49.4-5.2 74.1-6.9 14-1 28-.6 42-.3 14.2.3 28.4.2 42.6 0 29.2-.2 58.4-.7 87.6-.8 26.8-.1 53.6.9 80.3.9 0 0 .1 0 .1 0 7.9-10.3 20.7-17.2 32.1-23C473.1 138.3 472.9 138.3 472.8 138.3zM440.9 411.3c0 4.8.2 9.9 1.9 14.5C442.5 420.9 441.8 416 440.9 411.3zM359.5 171.4c-28.6.2-57.1.6-85.7.8-14.8.1-29.7.2-44.5-.1-14-.3-28.1-.7-42 .5-21 1.9-42 6.2-63.1 6.8 0 0 0 .1 0 .1.5 1.4.9 3.2 1.6 4.7 5.2-2.1 12.3-1.8 17.3-1.8 7.8 0 15.7.7 23.5.1 27.4-2 55.3-.1 82.8-.1 28.5 0 57.1-.2 85.5-1.9 26.7-1.5 53.3-5.6 80-6.1 1.1-.9 2.6-1.4 4.5-1 .4.1.7.2 1.1.3.7-.6 1.4-1.1 2.2-1.6C401.7 171.8 380.6 171.2 359.5 171.4zM475.3 182.6c-.8-9.5-1.7-19.2-1.2-28.8.1-1.3.1-2.6.2-3.9-9.4 4.9-19.5 10.9-25.4 19.5-.1 22-1.2 44-2.1 65.9-.9 22.3-.3 44.6-2.5 66.8-2.2 21.8-5.6 44-2.2 65.9 2.9 18.5 10 35.7 11.5 54.4.2.5.3 1.1.3 1.8v4c0 1-.2 1.8-.6 2.5.5 1.2.7 2.5.3 3.7 3.4 1 8.3 1.8 12.6 3.4.4-1.3.7-2.7.8-4.3.1-2 1.1-3.3 2.4-3.9.2-.3.3-.6.6-.9l0 0c.1-1 .2-1.6.2-2.4.1-3 .1-5.9 0-8.9-.4-18.2-1.6-36.3-1.7-54.6-.1-32.2 1.5-64.2 3.9-96.3C474.5 239 477.5 210.5 475.3 182.6zM454.8 446.4c-4.3-1.2-9-2.3-12.9-4.6-.8-.5-1.4-1-2.1-1.5-2.1.2-4.3.2-6.4.2-6.2-.1-12.1.1-18.2.8-13.7 1.4-27.3 3-41 4-28.9 2-57.8 2-86.8 1.2-57.9-1.8-115.6-7-173.5-7 0 0-.1 0-.1 0-2.8 2.4-5.9 4.6-9.1 6.6 9 .3 18.1.7 27.1 1.1 32.8 1.4 65.6 3.2 98.4 5.3 32.3 2.1 64.4 3 96.7 3 16.4 0 32.8 0 49.2 0 8.4 0 17 .6 25.4-.2 6.8-.6 13.5-2.2 20.3-3.1 9.9-1.4 20.1-1.2 30-3.2 2.1-.4 4.1-1 5.8-1.7C456.6 446.9 455.7 446.6 454.8 446.4zM101.4 397.8c-.8-13.7-1.6-27.3-2.3-41-1.4-29-3-58.7-.7-87.7.6-7.7 1.7-15.4 2.6-23.1.8-6.1 2-12.5 1.8-18.7-.2-6.2-.7-12.4-.9-18.6-.4-8.1-.7-16.4 0-24.5.3-3.2.7-6.8 2.2-9.6-2.4-1.8-4.7-3.5-6.9-5.5-6.3-5.7-11.2-12.9-17.4-18.6 0 48.9.1 97.5 3.1 146.3 1.6 25.7 3.7 51.5 6.3 77.1 1.3 12.8 2.7 25.7 3.5 38.5.4 6.4.8 12.9 1.2 19.4.1 2.4.3 4.8.4 7.3 3.9-2.2 7.8-4.6 11.3-7.5C102.5 420.7 102.1 409.2 101.4 397.8z"/><path d="M487.5,141.4c4.7-4.1,0.4-11.8-4.4-10.2c-3.5-2.8-8.5-3.7-13.2-4c-0.8-0.4-1.6-0.8-2.4-1.1c-5.3-2.2-10.8-4-16.2-5.8c-16.2-5.6-32.1-12.6-48-18.9c-19.8-7.9-39.7-15.8-59.5-23.9c-9.7-4-19.7-6.9-29.5-10.4c-6.3-2.3-12.3-5.8-19-6.6c-2.3-9.6-12.4-16.5-22.6-18.2c-6.5-1.1-14.1-0.5-19.5,3.6c-4.5,3.5-5.9,8.6-5.4,13.8c-4.8,2.5-9.9,4.4-15.1,6.2c-7.2,2.7-14.1,5.6-20.9,9.2c-15.8,8.3-32.9,15.7-49.7,21.8c-16.9,6.2-34.2,11.6-51.2,17.5c-13,4.5-27.8,6.7-38.6,15.9c-2.2,1.9-2.5,4.6-1.6,6.8c-1.1,1-1.8,2.4-1.8,4.2c0,53-0.1,105.6,3.2,158.5c1.6,25.7,3.8,51.4,6.3,77.1c1.3,12.8,2.6,25.7,3.5,38.6c0.4,6.4,0.8,12.9,1.1,19.4c0.3,5.6-1,14.3,2.3,19c1,1.4,2.5,2.2,4,2.4c0.4,0.1,0.9,0.2,1.4,0.2c33.1,1.2,66.2,2.7,99.2,4.5c32.5,1.8,64.9,4.6,97.4,5.2c32.5,0.6,64.9,0.3,97.4,0.3c7.5,0,15,0.2,22.5-0.8c7.2-1,14.3-2.5,21.6-3.3c9.5-1,18.9-1.1,28.2-3.4c4.5-1.1,8.5-3,11.8-5.7c3.7,0.8,8.3-2.4,6.7-7.1c-0.1-0.3-0.2-0.5-0.3-0.8c1.2-2.3,2-4.9,2.3-7.8c4.3-2.5,3.6-11.1,3.6-14.9c0.1-8.3-0.4-16.6-0.8-24.9c-1.2-24-1.2-48-0.4-72c1-32.6,4.2-65,5.9-97.6c0.7-13.4,1.7-27.1,0.8-40.5c-0.6-9.2-1.6-18.3-1.7-27.5c-0.1-3.9,0-7.8,0.6-11.7C485.8,146.3,486.6,142.1,487.5,141.4z M260.5,54.1c3-2,7.6-1.6,11-1c6.8,1.2,15.9,7,12.8,14.3c-2,4.7-10.7,4.9-16.4,3.8c-3.1-0.6-5.8-1.7-7.8-3.6c0.2,0.1-0.3-0.5-0.6-0.9c0-0.1,0-0.1,0-0.2c0-0.1,0-0.1,0-0.1c0.2-0.3,0.3-0.6,0.4-0.9c0.2-0.3,0.4-0.5,0.8-1c2.5-3,1.1-6.9-1.6-8.5C259.2,55.3,259.7,54.6,260.5,54.1z M117,123.9c17.3-6.3,35-11.5,52.3-17.9c16.5-6.2,33.1-13.7,48.7-21.8c10.1-5.2,21.4-8.3,31.7-13.2c2.3,4.9,8,8.7,14.1,10.5c10.3,3.1,26.5,1.5,30.8-10.2c6.1,0.6,11.9,4.7,17.6,6.5c9.1,2.8,18,5.9,26.9,9.5c18,7.4,36.1,14.6,54.1,21.8c14.6,5.8,29.1,11.7,43.7,17.5c-2.9-0.1-5.8-0.1-8.6-0.1c-32.7-0.4-65.4-1.6-98.1-2.5c-32.7-0.9-65.2-0.3-97.9,1.4c-28.9,1.5-58.2,3.1-87.2,2c-11.9-0.4-23.8-1.1-35.7-0.9C111.9,125.6,114.5,124.8,117,123.9z M84.4,140.3c3.2-1.2,6.7-1.7,10.1-2.1c8.9-1.1,17.8-1,26.7-0.9c19.5,0.3,38.8,1.1,58.3,0.7c32.9-0.6,65.7-3.2,98.6-3.7c32.7-0.5,65.4,0.9,98.1,2c21.4,0.7,42.9,0.6,64.3,1.3c7.4,0.2,14.7,0.6,22.1,0.4c0.6,0,1.9-0.1,3.5-0.1c1.9,1.4,4.8,1.6,6.7,0.3c0.1,0,0.3,0,0.4,0.1c-11.4,5.8-24.2,12.7-32.1,23c0,0-0.1,0-0.1,0c-26.8,0-53.5-1.1-80.3-0.9c-29.2,0.2-58.4,0.6-87.6,0.8c-14.2,0.1-28.4,0.2-42.6,0c-14-0.3-28-0.7-42,0.3c-24.7,1.7-49.2,7.7-74.1,6.9c-3.2-2.5-6.7-4.8-9.8-7.4C97.1,154.6,91.7,146.6,84.4,140.3C84.3,140.3,84.3,140.3,84.4,140.3z M430.9,367.1c0.6,4.9,1.6,9.6,2.7,14.4c-1.7-4.5-3.5-9-4.3-13.8c-1.1-6.1-1.7-12.3-2.2-18.5c-1.9-25,0.7-49.9,2-74.8c1.1-21.8,1-43.7,2.2-65.5c0.4-7.6,1.5-19.6-2.3-27.6c2.5-1.5,5.9-1.8,8.9-2c-0.3,18.3-1.2,36.6-1.9,55c-0.9,22.6-0.4,45.2-2.6,67.7C431.2,323.7,428.2,345.4,430.9,367.1z M113.3,215.2c-0.4-7.5-0.8-15-0.7-22.5c0-2.9,0.1-5.8,0.5-8.8c0.1-0.5,0.1-0.9,0.2-1.4c2.4,3.7,2.9,8.3,6.5,11.4c0.4,0.3,0.8,0.6,1.2,0.8c0,0.2,0,0.3,0,0.5c0.7,32.6-2.4,65.1-3.6,97.7c-0.6,16,0,32,0.1,48c0.1,14-0.8,27.9-1,41.8c-0.1,9.1,1.9,18.3,7.6,25.1c-4.4,3.4-6.9,8.1-9.6,13.2c-1.4-7.9-1.6-16.1-2.1-24.1c-0.7-13-1.5-26-2.2-39c-1.3-27.4-2.2-54.9-1.2-82.4c0.5-13.7,3.1-27.3,4.4-41C114,228.1,113.7,221.8,113.3,215.2z M131.2,416c0.7-0.3,1.2-0.7,1.7-1.2c9.3,4.7,20.8,4.3,30.9,3.7c13.9-0.9,27.7-1.9,41.7-1c15.4,1,30.7,3.5,46.1,4.5c30,1.9,60.1-0.1,90.2,0.6c29.6,0.6,59.2-0.6,88.5-5.3c0.3,4.2,1,8.4,2.4,12.2c-0.5,0-1.1,0-1.6,0c-6.2-0.1-12.2,0.3-18.4,1c-13.7,1.5-27.4,3-41.2,3.9c-28.9,2-57.9,1.8-86.8,1c-54-1.7-107.8-6.3-161.8-6.9C125,423.8,127.1,418,131.2,416z M127.8,317.5c-0.1-13.7,0.5-27.4,1.2-41.1c1.4-27.3,3.5-54.7,2.9-82.1c0-0.2,0-0.4,0-0.6c4.4-1.1,10.9-0.5,14.6-0.5c7.4,0,15,0.7,22.4,0c13.4-1.3,27.3-0.5,40.8-0.3c14.2,0.2,28.4,0.3,42.6,0.3c27.9,0,55.8-0.3,83.6-1.9c27.7-1.5,55.2-5.9,82.9-6.1c1.8,2.7,1.7,9.3,1.8,11.4c0.2,6.1-0.3,12.3-0.6,18.4c-1,22.6-0.9,45.3-2.4,67.9c-1.5,22.3-3,44.6-1.5,67c0.7,10.2,1.9,20.6,5.3,30.3c2.6,7.3,6.7,15.3,7.5,23.3c-0.8,0.8-1.3,1.8-1.3,2.8c-30,4.6-60.3,5.6-90.7,4.9c-32.3-0.8-64.5,1.8-96.7-1.4c-15-1.5-29.9-3.6-45-4c-13.4-0.3-26.6,1.5-40,1.8c-12.1,0.3-23.5-2.8-26.9-15.6c-1.3-4.9-1-10.5-0.7-15.6c0.4-7.3,0.5-14.5,0.6-21.8C128.4,342.4,127.9,330,127.8,317.5z M420.5,173.7c-0.4-0.1-0.7-0.2-1.1-0.3c-1.9-0.4-3.4,0-4.5,1c-26.8,0.5-53.3,4.6-80,6.1c-28.5,1.6-57,1.8-85.5,1.9c-27.5,0-55.3-1.9-82.8,0.1c-7.8,0.6-15.7-0.1-23.5-0.1c-5,0-12.1-0.3-17.3,1.8c-0.8-1.4-1.1-3.2-1.6-4.7c0,0,0-0.1,0-0.1c21.1-0.5,42.1-4.9,63.1-6.8c14-1.3,28-0.8,42-0.5c14.8,0.3,29.7,0.2,44.5,0.1c28.6-0.2,57.1-0.6,85.7-0.8c21.1-0.1,42.1,0.5,63.2,0.8C422,172.6,421.2,173.1,420.5,173.7z M94,432c-0.3-6.5-0.7-12.9-1.2-19.4c-0.9-12.9-2.2-25.7-3.5-38.5c-2.6-25.7-4.7-51.4-6.3-77.1c-3.1-48.8-3.1-97.5-3.1-146.3c6.3,5.7,11.2,12.9,17.4,18.6c2.2,2,4.5,3.7,6.9,5.5c-1.5,2.8-2,6.4-2.2,9.6c-0.7,8.1-0.4,16.4,0,24.5c0.3,6.2,0.8,12.4,0.9,18.6c0.2,6.2-1,12.6-1.8,18.7c-1,7.7-2,15.4-2.6,23.1c-2.4,29-0.7,58.6,0.7,87.7c0.6,13.7,1.5,27.3,2.3,41c0.7,11.4,1.1,22.9,4.2,33.9c-3.5,2.9-7.4,5.2-11.3,7.5C94.2,436.8,94.1,434.4,94,432z M451.6,448.8c-9.9,2-20.1,1.8-30,3.2c-6.8,0.9-13.5,2.5-20.3,3.1c-8.4,0.8-17,0.2-25.4,0.2c-16.4,0-32.8,0-49.2,0c-32.3,0-64.4-1-96.7-3c-32.8-2.1-65.6-3.9-98.4-5.3c-9-0.4-18.1-0.8-27.1-1.1c3.2-2,6.3-4.1,9.1-6.6c0,0,0.1,0,0.1,0c57.9,0.1,115.7,5.3,173.5,7c28.9,0.9,57.9,0.8,86.8-1.2c13.7-0.9,27.4-2.5,41-4c6.2-0.7,12.1-0.8,18.2-0.8c2.1,0,4.3,0,6.4-0.2c0.7,0.5,1.4,1,2.1,1.5c3.9,2.4,8.5,3.4,12.9,4.6c0.9,0.2,1.8,0.5,2.6,0.7C455.7,447.8,453.7,448.4,451.6,448.8z M440.9,411.3c0.9,4.8,1.6,9.6,1.9,14.5C441.1,421.2,440.9,416.1,440.9,411.3z M472.4,266.8c-2.4,32.1-4,64.1-3.9,96.3c0.1,18.2,1.3,36.4,1.7,54.6c0.1,3,0.1,5.9,0,8.9c0,0.8-0.1,1.4-0.2,2.4l0,0c-0.2,0.3-0.4,0.6-0.6,0.9c-1.3,0.6-2.3,1.9-2.4,3.9c-0.1,1.6-0.4,3-0.8,4.3c-4.3-1.6-9.2-2.5-12.6-3.4c0.4-1.2,0.2-2.5-0.3-3.7c0.4-0.7,0.6-1.6,0.6-2.5v-4c0-0.7-0.1-1.3-0.3-1.8c-1.5-18.7-8.6-35.9-11.5-54.4c-3.4-21.9,0-44.1,2.2-65.9c2.2-22.2,1.6-44.5,2.5-66.8c0.8-22,2-43.9,2.1-65.9c5.9-8.6,16-14.6,25.4-19.5c-0.1,1.3-0.2,2.6-0.2,3.9c-0.5,9.6,0.4,19.2,1.2,28.8C477.5,210.5,474.5,239,472.4,266.8z"/></svg>