<?xml version="1.0"?><svg xmlns="http://www.w3.org/2000/svg" width="128" height="128" viewBox="0 0 128 128">    <path d="M 16 42 C 7.7 42 1 48.7 1 57 C 1 60.4 2.1 63.5 4 66 L 3 66 C 1.3 66 0 67.3 0 69 C 0 70.7 1.3 72 3 72 L 3.6992188 72 L 9.3007812 94.599609 C 11.600781 103.89961 19.400781 110.70078 28.800781 111.80078 L 28.199219 121 L 19 121 C 17.3 121 16 122.3 16 124 C 16 125.7 17.3 127 19 127 L 124 127 C 125.7 127 127 125.7 127 124 C 127 122.3 125.7 121 124 121 L 99.599609 121 L 99 111.80078 C 108.4 110.70078 116.39922 103.9 118.69922 94.5 L 124.40039 71.900391 C 125.90039 71.700391 127 70.500391 127 68.900391 C 127 67.200391 125.7 65.900391 124 65.900391 L 107 65.900391 L 107 62.900391 C 107 61.200391 105.7 59.900391 104 59.900391 L 67 59.900391 C 65.3 59.900391 64 61.200391 64 62.900391 L 64 85.900391 C 64 87.600391 65.3 88.900391 67 88.900391 L 104 88.900391 C 105.7 88.900391 107 87.600391 107 85.900391 L 107 72 L 118.19922 72 L 112.90039 93.099609 C 111.00039 100.69961 104.20039 106 96.400391 106 L 31.599609 106 C 23.799609 106 16.999609 100.69961 15.099609 93.099609 L 9.8007812 72 L 55 72 C 56.7 72 58 70.7 58 69 C 58 67.3 56.7 66 55 66 L 28 66 C 29.9 63.5 31 60.4 31 57 C 31 48.7 24.3 42 16 42 z M 16 48 C 21 48 25 52 25 57 C 25 62 21 66 16 66 C 11 66 7 62 7 57 C 7 52 11 48 16 48 z M 34.800781 112 L 93 112 L 93.599609 121 L 34.199219 121 L 34.800781 112 z M 4 121 A 3 3 0 0 0 1 124 A 3 3 0 0 0 4 127 A 3 3 0 0 0 7 124 A 3 3 0 0 0 4 121 z"/></svg>