<svg xmlns="http://www.w3.org/2000/svg" viewBox="0 0 100 100"><path fill="#fff" d="M80.8 31.900000000000002A0.7 0.7 0 1 0 80.8 33.300000000000004A0.7 0.7 0 1 0 80.8 31.900000000000002Z"/><path fill="#f1bc19" d="M78.1 12.6A0.9 0.9 0 1 0 78.1 14.4A0.9 0.9 0 1 0 78.1 12.6Z"/><path fill="#e4e4f9" d="M50.9 13.299999999999997A37.5 37.5 0 1 0 50.9 88.3A37.5 37.5 0 1 0 50.9 13.299999999999997Z"/><path fill="#f1bc19" d="M83.6 11.6A4 4 0 1 0 83.6 19.6A4 4 0 1 0 83.6 11.6Z"/><path fill="#8889b9" d="M13.4 27.400000000000002A1.9 1.9 0 1 0 13.4 31.2A1.9 1.9 0 1 0 13.4 27.400000000000002Z"/><path fill="#fbcd59" d="M78.6 75.39999999999999A1.9 1.9 0 1 0 78.6 79.2 1.9 1.9 0 1 0 78.6 75.39999999999999zM18.6 72.2A4 4 0 1 0 18.6 80.2 4 4 0 1 0 18.6 72.2z"/><path fill="#8889b9" d="M24.5 80.89999999999999A1.9 1.9 0 1 0 24.5 84.7A1.9 1.9 0 1 0 24.5 80.89999999999999Z"/><path fill="#fff" d="M67.2 76.60000000000001A2.6 2.6 0 1 0 67.2 81.8 2.6 2.6 0 1 0 67.2 76.60000000000001zM16.1 47A.9.9 0 1 0 16.1 48.8.9.9 0 1 0 16.1 47z"/><path fill="#f1bc19" d="M85.3 30.3A0.9 0.9 0 1 0 85.3 32.1A0.9 0.9 0 1 0 85.3 30.3Z"/><path fill="#fff" d="M80.5 64.60000000000001A1.8 1.8 0 1 0 80.5 68.2A1.8 1.8 0 1 0 80.5 64.60000000000001Z"/><path fill="#fdfcee" d="M37.3,27.9h32.2c3.1,0,5.5,2.5,5.5,5.5v32.2c0,3.1-2.5,5.5-5.5,5.5H37.3c-3.1,0-5.5-2.5-5.5-5.5 V33.4C31.7,30.4,34.2,27.9,37.3,27.9z"/><path fill="#472b29" d="M69.5,71.7H37.3c-3.3,0-6-2.7-6-6V33.4c0-3.3,2.7-6,6-6h32.2c3.3,0,6,2.7,6,6v32.2 C75.5,69,72.8,71.7,69.5,71.7z M37.3,28.4c-2.8,0-5,2.3-5,5v32.2c0,2.8,2.3,5,5,5h32.2c2.8,0,5-2.3,5-5V33.4c0-2.8-2.3-5-5-5 H37.3z"/><path fill="#472b29" d="M65.8 35.1H62c-.3 0-.5-.2-.5-.5s.2-.5.5-.5h3.8c.3 0 .5.2.5.5S66.1 35.1 65.8 35.1zM60.1 35.1H32c-.3 0-.5-.2-.5-.5s.2-.5.5-.5h28c.3 0 .5.2.5.5S60.4 35.1 60.1 35.1zM74.7 35.1H69c-.3 0-.5-.2-.5-.5s.2-.5.5-.5h5.7c.3 0 .5.2.5.5S75 35.1 74.7 35.1zM74.7 67h-35c-.3 0-.5-.2-.5-.5s.2-.5.5-.5h35c.3 0 .5.2.5.5S75 67 74.7 67zM37.8 67H32c-.3 0-.5-.2-.5-.5S31.8 66 32 66h5.7c.3 0 .5.2.5.5S38.1 67 37.8 67z"/><path fill="#ee3e54" d="M37.1 30.099999999999998A1.3 1.3 0 1 0 37.1 32.699999999999996A1.3 1.3 0 1 0 37.1 30.099999999999998Z"/><path fill="#472b29" d="M37.1,33c-0.9,0-1.6-0.7-1.6-1.6s0.7-1.6,1.6-1.6s1.6,0.7,1.6,1.6S38,33,37.1,33z M37.1,30.4 c-0.5,0-1,0.4-1,1s0.4,1,1,1s1-0.4,1-1S37.7,30.4,37.1,30.4z"/><path fill="#f1bc19" d="M41.6 30.099999999999998A1.3 1.3 0 1 0 41.6 32.699999999999996A1.3 1.3 0 1 0 41.6 30.099999999999998Z"/><path fill="#472b29" d="M41.6,33c-0.9,0-1.6-0.7-1.6-1.6s0.7-1.6,1.6-1.6s1.6,0.7,1.6,1.6S42.5,33,41.6,33z M41.6,30.4 c-0.5,0-1,0.4-1,1s0.4,1,1,1s1-0.4,1-1S42.1,30.4,41.6,30.4z"/><path fill="#88ae45" d="M46.1 30.099999999999998A1.3 1.3 0 1 0 46.1 32.699999999999996A1.3 1.3 0 1 0 46.1 30.099999999999998Z"/><path fill="#472b29" d="M46.1 33c-.9 0-1.6-.7-1.6-1.6s.7-1.6 1.6-1.6 1.6.7 1.6 1.6S46.9 33 46.1 33zM46.1 30.4c-.5 0-1 .4-1 1s.4 1 1 1 1-.4 1-1S46.6 30.4 46.1 30.4zM46.8 63.9c-.2 0-.4-.2-.4-.3V37.5c0-.2.2-.4.4-.4s.4.2.4.4v26.1C47.1 63.8 47 63.9 46.8 63.9z"/><path fill="#d8ad8f" d="M42.3,63.3c-0.4-0.3-5.8-2.2-5.8-2.2c-0.3-0.1-0.5-0.4-0.6-0.7c-0.1-0.5-0.1-1-0.1-1.6 c1.4-0.8,2.6-2,3.5-3.4c0.2-0.3,0.3-0.7,0.3-1c0-0.6,0-1.1,0-1.7c0.4,0,0.6-0.3,0.7-0.7c0.2-0.7,0.6-2.2,0.6-2.2 c0.3-0.9-0.2-1.4-1-1.4c0.2-0.2,0.4-0.4,0.6-0.7h0.1h0.3c1.2,0.4,2.9,0.2,3.3-2.5c-0.4,0.5-1.1,0.8-1.7,0.7c0-0.2,0-0.5-0.2-0.7 c0.3-0.3,0.5-0.8,0.5-1.3c0-1-0.8-1.8-1.8-1.8l0,0c0.1-0.2,0.1-0.4,0.1-0.7c0-1.3-1.1-2.3-2.3-2.3c0,0,0,0,0,0 c-0.2,0-0.4,0-0.6,0.1v-0.1c-0.1-1.5-1.4-2.7-3-2.6c0,0,0,0,0,0c-0.9,0-1.7,0.3-2.3,1c-0.7-0.4-1.4-0.6-2.2-0.6 c-1.9,0-3.5,1.3-3.5,2.8c0,0.1,0,0.1,0,0.2c-0.5,0.2-0.8,0.5-1,1c-0.1,0.5,0.4,1.7,0.3,1.8l0,0c-0.5-0.1-1.1,0.3-1.1,0.9 c0,0.2,0,0.3,0,0.5c0.1,1.4,0.4,2.8,0.7,4.2c-0.9,0-1.3,0.5-1,1.4c0,0,0.3,1.5,0.6,2.2c0.1,0.4,0.4,0.7,0.8,0.7 c0,0.5,0,0.9,0,1.4c0,0.6,0.2,1.2,0.6,1.6c0.8,1.2,1.9,2.3,3.2,3c0,0.5-0.1,1.1-0.1,1.6c0,0.3-0.3,0.6-0.6,0.7L25,62.7 c-0.4,0.1-0.8,0.3-1.2,0.5c-1.2,0.9-2,2.4-2,3.9h22.4C44.1,65.6,43.4,64.2,42.3,63.3z"/><path fill="#efa21b" d="M35.8,45.9c0.4,0.8,1.3,1.3,2.2,1.3c0.2,0,0.5,0,0.7-0.1c0.4,0.4,0.9,0.7,1.5,0.7h0.3 c1.1,0.3,2.8,0.5,3.3-1.7c-0.4,0.3-1,0.4-1.5,0.2c0-0.3-0.1-0.6-0.2-0.8c0.4-0.3,0.6-0.8,0.5-1.2c0-1-0.8-1.7-1.8-1.7l0,0 c0.1-0.2,0.1-0.4,0.1-0.7c0-1.3-1.1-2.2-2.3-2.2c0,0,0,0,0,0c-0.2,0-0.4,0-0.6,0.1v-0.1c-0.1-1.5-1.4-2.7-2.9-2.6c0,0,0,0-0.1,0 c-0.9,0-1.7,0.4-2.3,1c-0.6-0.4-1.4-0.6-2.1-0.6c-1.9,0-3.5,1.2-3.5,2.8c0,0.1,0,0.1,0,0.2c-0.5,0.2-0.8,0.5-1,1 c0,0,0.3,1.5,0.3,1.7c0.4,0.4,0.8,0.8,1.4,0.9c0.6,0.2,1.2,0.2,1.7,0c0.7,1.6,2.3,2.6,4,2.5C34.3,46.4,35.1,46.2,35.8,45.9z"/><path fill="#b2876b" d="M33,67.1h11.1c0-1.4-0.7-2.8-1.8-3.7c-0.4-0.3-5.8-2.1-5.8-2.1c-0.3-0.1-0.6-0.3-0.7-0.6 c-0.1-0.6-0.2-1.2-0.1-1.8c-0.7,0.4-1.6,0.8-2.4,1c-1-0.1-2-0.4-2.9-0.9c0,0-0.1,1.3-0.2,1.7c-0.1,0.3-0.4,0.6-0.7,0.6l-4.4,1.5 c-0.4,0.1-0.8,0.3-1.2,0.5c-1.2,0.9-2,2.3-2,3.8H33z"/><path fill="#a1a1ca" d="M33.7,74.1c3.7,0,7.4-1,10.6-2.8c-0.1-4.3,0-7.2-2.1-7.9c-0.5-0.1-2.2-1-2.2-1s-4.6,2.6-6.5,3 c-3.8,0.8-7.6,1-11.4,0.6c0,0.2-0.1,3.2-0.2,4.5C25.3,72.8,29.5,74.1,33.7,74.1z"/><path fill="#6d3c14" d="M26.7,43.3c-0.1,0-0.3,0.1-0.4,0.1 c-0.4,0-0.6,0.3-0.6,0.7l0.6,4.1c0-0.4,0.1-3.5,1.1-4.4C27.2,43.7,26.9,43.5,26.7,43.3z" opacity=".34"/><path fill="#472b29" d="M31.9 48.1c-1.4-.3-2.8-.4-4.2-.2-.1 0-.1.1-.1.1 0 0 0 .1.1.1 1.3.1 2.5.3 3.8.6l0 0c0 0 .1 0 .1 0l.3-.4C31.9 48.2 31.9 48.2 31.9 48.1 31.9 48.2 31.9 48.1 31.9 48.1zM34.1 48.1c1.4-.3 2.8-.4 4.2-.2.1 0 .1.1.1.1 0 0 0 .1-.1.1-1.3.1-2.5.3-3.8.6l0 0c0 0-.1 0-.1 0l-.3-.4C34.1 48.2 34.1 48.2 34.1 48.1 34.1 48.2 34.1 48.1 34.1 48.1zM29.9 49.4c-.3 0-.6.2-.7.5h.1c.3 0 .4.3.4.5 0 .2-.2.4-.4.4-.1 0-.1 0-.2-.1.1.4.4.7.8.7.6-.1.9-.7.8-1.3C30.6 49.8 30.3 49.5 29.9 49.4L29.9 49.4zM36.1 49.4c-.2 0-.5.1-.6.3h.2c.3 0 .4.3.4.5 0 .2-.2.4-.4.4-.1 0-.3-.1-.3-.2-.1.4.2.9.6 1 .4.1.9-.2 1-.6 0-.1 0-.2 0-.4C37 49.9 36.6 49.5 36.1 49.4 36.1 49.4 36.1 49.4 36.1 49.4z"/><path fill="#472b29" d="M33,54.7c0.5,0,0.9-0.2,1.2-0.5c0.1-0.1,0.1-0.2,0-0.3 c0,0,0,0,0,0c-0.1-0.1-0.2-0.1-0.3,0c-0.3,0.3-0.6,0.4-1,0.4c-0.4,0-0.7-0.1-1-0.4c-0.1-0.1-0.2-0.1-0.3,0 c-0.1,0.1-0.1,0.2,0,0.3c0,0,0,0,0,0C32.1,54.5,32.5,54.7,33,54.7z" opacity=".41"/><path fill="#472b29" d="M33.3,60C33.3,60,33.3,60,33.3,60c-1.2-0.1-2.2-0.5-3.2-1c-0.1-0.1-0.2-0.2-0.1-0.3 s0.2-0.2,0.3-0.1c0.9,0.5,1.9,0.8,2.9,1c0.9-0.2,1.7-0.5,2.4-1c0.1-0.1,0.3,0,0.3,0.1c0.1,0.1,0,0.3-0.1,0.3 C35.2,59.4,34.3,59.8,33.3,60C33.3,60,33.3,60,33.3,60z"/><path fill="#e2900e" d="M42.3,46.1c0-0.3-0.1-0.6-0.2-0.8c0.3-0.3,0.5-0.8,0.5-1.2c0-1-0.8-1.7-1.8-1.7c0,0,0,0,0,0l0,0 c0.1-0.2,0.1-0.4,0.1-0.7c0-1.2-1.1-2.2-2.3-2.2c0,0,0,0,0,0c-0.2,0-0.4,0-0.6,0.1v-0.1c-0.1-1.5-1.4-2.7-2.9-2.6c0,0,0,0-0.1,0 c-0.7,0-1.3,0.2-1.9,0.6c0.2,0.2,0.1,0,0.2,0.2c1-0.2,2-0.1,2.9,0.3c1.4,0.8,2,2.6,1.3,4.1v0.1c0.2,0.1,0.4,0.1,0.6,0.2 c1.1,0.6,1.5,1.9,1,3c-0.1,0.2-0.2,0.4-0.4,0.5l0,0c0.6,0.3,1,0.9,1,1.6c0.2,0,0.3,0.1,0.5,0.1h0.3c1.1,0.3,2.8,0.5,3.3-1.7 C43.4,46.3,42.8,46.3,42.3,46.1z"/><path fill="#472b29" d="M41.5,48.4c-0.4,0-0.8-0.1-1.1-0.3h-0.2c-0.6,0-1.2-0.2-1.6-0.6c-0.2,0-0.4,0.1-0.6,0.1 c-0.9,0-1.8-0.4-2.3-1.2c-0.7,0.3-1.4,0.4-2.1,0.4c-1.8,0.1-3.4-0.8-4.2-2.4c-0.5,0.1-1.1,0.1-1.7-0.1c-0.7-0.2-1.2-0.6-1.6-1.2 c-0.1-0.1-0.1-0.3,0.1-0.4c0.1-0.1,0.3-0.1,0.4,0.1c0.3,0.5,0.8,0.8,1.3,0.9c0.5,0.2,1.1,0.2,1.6,0c0.1,0,0.3,0,0.4,0.2 c0.6,1.5,2.2,2.4,3.8,2.3c0.7,0,1.5-0.2,2.1-0.5c0.1-0.1,0.3,0,0.4,0.1c0.4,0.7,1.1,1.2,1.9,1.1c0.2,0,0.4,0,0.6-0.1 c0.1,0,0.2,0,0.3,0.1c0.3,0.4,0.8,0.6,1.2,0.6h0.3c0.1,0,0.1,0,0.2,0c0.5,0.3,1.1,0.3,1.6,0.1c0.2-0.1,0.3,0,0.4,0.2 c0.1,0.2,0,0.3-0.2,0.4C42.2,48.3,41.8,48.4,41.5,48.4z"/><g opacity=".3"><path fill="#ba8964" d="M29 52.699999999999996A1.1 1.1 0 1 0 29 54.9 1.1 1.1 0 1 0 29 52.699999999999996zM37.5 52.699999999999996A1.1 1.1 0 1 0 37.5 54.9 1.1 1.1 0 1 0 37.5 52.699999999999996z" opacity=".8"/></g><path fill="#8e7469" d="M31.3 51.4A.1.1 0 1 0 31.3 51.6.1.1 0 1 0 31.3 51.4zM31.4 52.4A.1.1 0 1 0 31.4 52.6.1.1 0 1 0 31.4 52.4zM32.2 51.9A.1.1 0 1 0 32.2 52.1.1.1 0 1 0 32.2 51.9zM34 51.9A.1.1 0 1 0 34 52.1.1.1 0 1 0 34 51.9zM34.5 52.699999999999996A.1.1 0 1 0 34.5 52.9.1.1 0 1 0 34.5 52.699999999999996zM35.1 51.9A.1.1 0 1 0 35.1 52.1.1.1 0 1 0 35.1 51.9z" opacity=".8"/><path fill="#472b29" d="M26.7 53.2c-.2 0-.3-.1-.3-.3L26 48.6c0-.2.1-.3.3-.3.2 0 .3.1.3.3l.4 4.3C27 53 26.9 53.2 26.7 53.2 26.7 53.2 26.7 53.2 26.7 53.2zM39.4 53.1C39.4 53.1 39.4 53.1 39.4 53.1c-.2 0-.3-.2-.3-.3l.3-4.2c0-.2.2-.3.3-.3.2 0 .3.2.3.3l-.3 4.2C39.7 53 39.6 53.1 39.4 53.1z"/><path fill="#472b29" d="M33.7,74.4c-4.3,0-8.5-1.3-12.1-3.7c-0.1-0.1-0.2-0.2-0.2-0.3c0-0.6,0.1-1.5,0.1-2.4 c0.1-1.7,0.1-2.2,0.2-2.3c0.3-1.1,1-2.1,1.9-2.7c0.4-0.3,0.9-0.5,1.4-0.6l4.4-1.5c0.2-0.1,0.3-0.2,0.3-0.4 c0.1-0.4,0.1-0.9,0.1-1.3c-1.2-0.8-2.3-1.8-3.1-3c-0.4-0.5-0.6-1.2-0.5-1.8l0-1.1c-0.4-0.1-0.7-0.5-0.8-0.9 c-0.2-0.7-0.5-2.1-0.6-2.2c-0.2-0.6-0.1-1.1,0.1-1.3c0.1-0.2,0.4-0.4,0.8-0.5c-0.1-0.4-0.2-1.1-0.3-1.9c-0.2-0.9-0.3-1.8-0.3-1.9 C25,44.3,25,44.1,25,43.8c0.1-0.5,0.4-1,0.9-1.1c-0.3-0.6-0.3-1.2-0.1-1.6c0.2-0.5,0.5-0.8,1-1.1c0-1.7,1.7-3.2,3.9-3.2 c0.7,0,1.4,0.2,2.1,0.5c0.6-0.6,1.5-0.9,2.4-0.9c1.6-0.1,3,1.1,3.3,2.7c0.1,0,0.2,0,0.3,0c1.5,0,2.7,1.1,2.7,2.6 c0,0.1,0,0.2,0,0.4c0.4,0.1,0.8,0.3,1.1,0.6c0.4,0.4,0.7,0.9,0.7,1.5c0,0.5-0.2,1-0.5,1.3c0,0.1,0,0.1,0.1,0.2 c0.4,0,0.8-0.3,1.1-0.6c0.1-0.1,0.3-0.2,0.4-0.1c0.2,0.1,0.2,0.2,0.2,0.4c-0.3,1.5-0.6,2.4-1.9,2.8c-0.6,0.2-1.3,0.2-1.9,0.1 c0,0,0,0,0,0c0.2,0.1,0.4,0.2,0.5,0.4c0.2,0.2,0.3,0.7,0.1,1.4c0,0,0,0,0,0c0,0,0,0.1-0.1,0.2c-0.1,0.5-0.3,1.4-0.5,2 c-0.1,0.4-0.3,0.7-0.7,0.8v1.3c0,0.4-0.1,0.8-0.3,1.2c-0.8,1.4-2,2.6-3.4,3.4c0,0.4,0.1,0.9,0.1,1.3c0,0.2,0.2,0.3,0.3,0.4 c0.9,0.3,5.5,1.9,5.9,2.2c1.2,0.6,2,2,2,3.4l0.2,4.8c0,0.1-0.1,0.3-0.2,0.3C41.2,73.4,37.5,74.4,33.7,74.4 C33.7,74.4,33.7,74.4,33.7,74.4z M22.2,70.2c3.4,2.3,7.4,3.5,11.5,3.5c0,0,0,0,0,0c0,0,0,0,0,0c3.6,0,7.1-0.9,10.2-2.7l-0.2-4.6 c0-1.2-0.6-2.3-1.6-2.8c-0.3-0.2-3.7-1.4-5.8-2.1c-0.4-0.1-0.8-0.5-0.8-1c-0.1-0.5-0.1-1.1-0.1-1.6c0-0.1,0.1-0.3,0.2-0.3 c1.4-0.8,2.5-1.9,3.3-3.3c0.1-0.2,0.2-0.5,0.2-0.8v-1.6c0-0.2,0.1-0.4,0.3-0.4c0.2,0,0.4-0.2,0.4-0.4c0.2-0.6,0.4-1.5,0.5-1.9 c0-0.2,0.1-0.2,0.1-0.3l0,0c0.1-0.3,0.1-0.5,0-0.7S40.1,49,39.8,49c-0.2,0-0.3-0.1-0.4-0.2c-0.1-0.2,0-0.3,0.1-0.4 c0.2-0.2,0.4-0.3,0.5-0.6c0.1-0.1,0.2-0.2,0.3-0.2c0,0,0.1,0,0.1,0c0.6,0.1,1.2,0.1,1.8,0c0.6-0.2,1-0.5,1.2-1.3 c-0.4,0.2-0.8,0.2-1.2,0.2c-0.2,0-0.3-0.2-0.3-0.4c0-0.2,0-0.4-0.1-0.5c-0.1-0.1,0-0.3,0.1-0.4c0.3-0.3,0.4-0.6,0.4-1 c0-0.4-0.2-0.7-0.4-1c-0.3-0.3-0.6-0.4-1-0.4c-0.1,0-0.2-0.1-0.3-0.2s-0.1-0.2-0.1-0.3c0.1-0.2,0.1-0.4,0.1-0.6 c0-1-0.9-1.9-2-1.9c-0.2,0-0.4,0-0.5,0.1c-0.1,0-0.2,0-0.3-0.1c-0.1-0.1-0.1-0.2-0.1-0.3c-0.1-1.4-1.2-2.5-2.5-2.4 c-0.8,0-1.5,0.3-2,0.9c-0.1,0.1-0.3,0.2-0.5,0.1c-0.6-0.4-1.3-0.5-2-0.5c-1.7,0-3.1,1.1-3.1,2.4c0,0.1,0,0.1,0,0.2 c0,0.2-0.1,0.3-0.2,0.4c-0.4,0.2-0.6,0.4-0.8,0.8c-0.1,0.3,0,0.8,0.3,1.4c0.1,0.1,0.1,0.3,0,0.4c-0.1,0.1-0.2,0.2-0.4,0.2 c-0.3,0-0.7,0.2-0.7,0.5c0,0.1,0,0.2,0,0.3c0,0.2,0.2,1.1,0.3,2c0.2,1,0.4,2.2,0.4,2.3c0,0.1,0,0.2-0.1,0.3 c-0.1,0.1-0.2,0.1-0.3,0.1c-0.3,0-0.6,0.1-0.7,0.2c-0.1,0.1-0.1,0.4,0,0.7c0,0.1,0.3,1.5,0.6,2.2c0.1,0.3,0.2,0.4,0.5,0.4 c0,0,0,0,0,0c0.1,0,0.2,0,0.3,0.1c0.1,0.1,0.1,0.2,0.1,0.3v1.4c0,0.5,0.1,1,0.4,1.4c0.8,1.2,1.9,2.2,3.1,2.9 c0.1,0.1,0.2,0.2,0.2,0.3c0,0.5-0.1,1.1-0.1,1.6c-0.1,0.5-0.4,0.9-0.9,1L25.2,63c-0.4,0.1-0.8,0.3-1.2,0.5 c-0.8,0.5-1.4,1.4-1.6,2.3c0,0.2-0.1,1.3-0.1,2.2C22.2,68.8,22.2,69.6,22.2,70.2z"/><path fill="#6d1b18" d="M30.6,55.8c0,0.1,0,0.2,0,0.3c0,1,1.1,1.9,2.6,1.9s2.5-0.8,2.5-1.9c0-0.1,0-0.2,0-0.3H30.6z"/><path fill="#ee3e54" d="M34.4,57.8c-0.4-0.3-0.9-0.5-1.3-0.5c-0.5,0-1,0.1-1.4,0.5C32.6,58.1,33.6,58.1,34.4,57.8z"/><path fill="#fdfcef" d="M31.3,55.8v0.3c0,0.3,0.4,0.5,0.8,0.5h1.9c0.4,0,0.8-0.2,0.8-0.5v-0.3l0,0L31.3,55.8z"/><path fill="#472b29" d="M33.1,58.3c-1.5,0-2.8-1-2.8-2.1c0-0.1,0-0.2,0-0.4c0-0.1,0.1-0.2,0.2-0.2h5.1 c0.1,0,0.2,0.1,0.2,0.2c0,0.1,0,0.3,0,0.4C35.9,57.4,34.7,58.3,33.1,58.3z M30.8,56.1C30.8,56.1,30.8,56.1,30.8,56.1 c0,1,1.1,1.7,2.3,1.7c1.3,0,2.3-0.7,2.3-1.6c0,0,0-0.1,0-0.1H30.8z"/><path fill="#f1bc19" d="M53.5,59.3c-0.9,0-1.5-0.3-1.7-0.8c-0.1-0.3-0.1-0.6,0-0.9c0.6-1,1.6-1.8,2.8-2.2 c0.8-0.3,1.6-0.5,2.5-0.5h0.2V44.7c0-0.2,0.1-0.3,0.3-0.4L68,41.5h0.1c0.1,0,0.2,0,0.2,0.1c0.1,0.1,0.1,0.2,0.1,0.3v11.4 c0,0.1,0,0.1,0,0.2c0,0.1,0,0.1,0,0.2c-0.6,1.1-1.6,2-2.8,2.4c-0.8,0.3-1.6,0.5-2.5,0.5c-0.9,0-1.5-0.3-1.7-0.8 c-0.1-0.3-0.1-0.6,0-0.9c0.6-1,1.6-1.8,2.8-2.2c0.8-0.3,1.6-0.5,2.5-0.5h0.2v-8.6l-8,2.1V56c0,0.1,0,0.1,0,0.2c0,0.1,0,0.1,0,0.2 c-0.6,1.1-1.6,2-2.9,2.3C55.2,59,54.3,59.2,53.5,59.3z"/><path fill="#472b29" d="M68.1,41.9v11.4c0,0.1,0,0.1,0,0.2v0l0,0c-0.1,0.7-1.2,1.6-2.6,2.2c-0.7,0.3-1.5,0.5-2.4,0.5 c-0.7,0-1.2-0.2-1.4-0.5c-0.3-0.7,0.8-1.9,2.6-2.6c0.7-0.3,1.5-0.5,2.4-0.5c0.2,0,0.4,0,0.5,0v-9.4l-8.8,2.3V56 c0,0.1,0,0.1,0,0.2l0,0l0,0c-0.1,0.7-1.2,1.6-2.6,2.2c-0.7,0.3-1.5,0.5-2.4,0.5c-0.7,0-1.2-0.2-1.4-0.5c-0.3-0.7,0.8-1.9,2.6-2.6 c0.7-0.3,1.5-0.5,2.3-0.5c0.2,0,0.4,0,0.5,0V44.7L68.1,41.9 M68.1,41.2c-0.1,0-0.1,0-0.2,0L57.4,44c-0.3,0.1-0.6,0.4-0.6,0.7v9.8 c-0.8,0.1-1.7,0.2-2.4,0.6c-1.3,0.4-2.3,1.2-3,2.4c-0.2,0.4-0.2,0.8,0,1.2c0.2,0.4,0.7,1,2,1c0.9,0,1.8-0.2,2.7-0.6 c1.3-0.5,2.7-1.5,3-2.6c0-0.1,0.1-0.2,0.1-0.3l0,0c0-0.1,0-0.2,0-0.3V46l7.3-1.9v7.7c-0.8,0.1-1.6,0.3-2.4,0.6 c-1.3,0.4-2.3,1.3-3,2.4c-0.2,0.4-0.2,0.8,0,1.2c0.2,0.4,0.7,1,2,1c0.9,0,1.8-0.2,2.6-0.6c1.3-0.5,2.7-1.5,3-2.6 c0-0.1,0.1-0.2,0.1-0.3l0,0c0-0.1,0-0.2,0-0.3V41.9c0-0.2-0.1-0.5-0.3-0.6C68.4,41.2,68.2,41.2,68.1,41.2L68.1,41.2z"/><path fill="#472b29" d="M58.8,47.9c-0.2,0-0.3-0.1-0.4-0.3c-0.1-0.2,0.1-0.4,0.3-0.5l8.1-2.1c0.2-0.1,0.4,0.1,0.5,0.3 s-0.1,0.4-0.3,0.5L58.8,47.9C58.9,47.9,58.9,47.9,58.8,47.9z"/></svg>