<svg xmlns="http://www.w3.org/2000/svg" viewBox="0 0 48 48"><path fill="#c56528" d="M32.942,42.41c-0.903,1.454-1.061,3.356,1.069,3.055c0.72-0.102,1.357-0.475,1.866-1.059 c0.8-0.918,0.469-0.956-0.455-1.428C34.539,42.528,33.948,42.326,32.942,42.41z"/><path fill="#010101" d="M33.59,45.996c-0.852,0-1.287-0.368-1.507-0.705c-0.573-0.879-0.151-2.201,0.435-3.146 c0.083-0.135,0.226-0.222,0.383-0.234c1.116-0.096,1.797,0.136,2.749,0.621l0.225,0.113c0.478,0.237,0.854,0.425,0.94,0.857 c0.088,0.442-0.229,0.851-0.561,1.231c-0.597,0.685-1.348,1.108-2.172,1.225C33.904,45.985,33.74,45.996,33.59,45.996z M33.239,42.893c-0.41,0.75-0.546,1.504-0.319,1.852c0.183,0.28,0.658,0.275,1.021,0.225c0.583-0.082,1.122-0.391,1.559-0.892 c0.15-0.173,0.233-0.284,0.278-0.354c-0.093-0.055-0.23-0.123-0.35-0.182l-0.234-0.118C34.446,43.04,33.978,42.862,33.239,42.893z"/><path fill="#c56528" d="M41.373,43.036c-0.767-0.561-3.373,0.161-4.019,0.835c0.394,0.342,0.568,0.842,0.974,1.17 c0.465,0.376,1.143,0.638,1.774,0.616C41.686,45.602,41.857,43.958,41.373,43.036z"/><path fill="#010101" d="M40.033,46.159c-0.691,0-1.457-0.274-2.02-0.729c-0.267-0.215-0.445-0.476-0.604-0.706 c-0.124-0.181-0.241-0.352-0.384-0.475c-0.104-0.09-0.165-0.219-0.171-0.355c-0.007-0.137,0.043-0.27,0.138-0.368 c0.725-0.757,3.602-1.677,4.676-0.893c0.061,0.045,0.111,0.104,0.146,0.171c0.33,0.629,0.459,1.616,0.001,2.405 c-0.34,0.585-0.942,0.922-1.696,0.948C40.091,46.159,40.063,46.159,40.033,46.159z M38.09,43.952 c0.051,0.07,0.099,0.14,0.145,0.207c0.137,0.198,0.255,0.37,0.408,0.494c0.4,0.323,0.966,0.528,1.443,0.505 c0.414-0.015,0.698-0.162,0.865-0.451c0.225-0.387,0.188-0.935,0.036-1.314C40.46,43.187,38.898,43.514,38.09,43.952z"/><polygon fill="#38b47b" points="42.085,26.145 33.468,25.523 33.181,28.156 30.021,27.342 31.266,14.177 32.319,11.449 35.622,10.826 40.122,10.683 42.899,10.97 44.319,13.124 45.58,23.943 45.293,27.917 42.037,27.103"/><path fill="#bcbcbc" d="M6.277,26.558c0.004,1.477,0.32,2.878,0.383,4.336c0.058,1.34-0.056,2.685,0.021,4.025 c0.089,1.552,0.074,3.108,0.074,4.665c0,0.954-0.452,2.677-0.122,3.535c1.493-0.046,2.939,0.134,4.435,0.073 c1.528-0.063,3.081-0.586,4.618-0.487c-0.436-0.274-0.685-2.553-0.6-3.162c0.097-0.698,0.491-1.333,0.576-2.049 c0.095-0.794,0.042-1.686,0-2.486c-0.144-2.729-0.554-5.451-0.577-8.191C12.422,26.682,8.963,26.21,6.277,26.558z"/><path fill="#010101" d="M10.404,43.704c-0.56,0-1.111-0.023-1.65-0.047c-0.689-0.029-1.403-0.059-2.104-0.038 c-0.006,0-0.011,0-0.016,0c-0.206,0-0.393-0.127-0.467-0.32c-0.262-0.681-0.138-1.648-0.019-2.584 c0.055-0.429,0.106-0.834,0.106-1.131v-0.579c0.002-1.334,0.004-2.713-0.073-4.058c-0.042-0.723-0.029-1.449-0.017-2.152 c0.011-0.626,0.021-1.253-0.006-1.879c-0.026-0.633-0.105-1.275-0.182-1.896c-0.098-0.794-0.199-1.614-0.201-2.461 c-0.001-0.251,0.186-0.465,0.436-0.497c2.026-0.26,4.482-0.07,6.647,0.099c0.787,0.062,1.547,0.121,2.251,0.157 c0.265,0.013,0.473,0.23,0.475,0.495c0.013,1.605,0.165,3.242,0.312,4.825c0.103,1.114,0.206,2.229,0.265,3.344 c0.047,0.878,0.094,1.766-0.003,2.571c-0.051,0.424-0.188,0.802-0.319,1.168c-0.112,0.31-0.218,0.602-0.258,0.89 c-0.078,0.562,0.175,2.412,0.414,2.706c0.193,0.122,0.258,0.342,0.188,0.56c-0.07,0.217-0.283,0.34-0.529,0.327 c-0.823-0.05-1.662,0.088-2.547,0.235c-0.658,0.11-1.338,0.225-2.018,0.253C10.859,43.701,10.631,43.704,10.404,43.704z M7.148,42.612c0.559,0,1.111,0.024,1.649,0.047c0.737,0.031,1.499,0.063,2.251,0.033c0.617-0.024,1.237-0.129,1.894-0.239 c0.636-0.106,1.287-0.216,1.946-0.25c-0.295-0.997-0.34-2.425-0.297-2.729c0.054-0.392,0.183-0.748,0.308-1.092 c0.118-0.328,0.229-0.637,0.268-0.947c0.086-0.72,0.041-1.563,0.002-2.306c-0.063-1.196-0.166-2.297-0.268-3.398 c-0.135-1.451-0.272-2.947-0.308-4.44c-0.578-0.035-1.186-0.083-1.811-0.132c-1.959-0.152-4.158-0.325-5.995-0.153 c0.027,0.629,0.103,1.247,0.183,1.894c0.079,0.641,0.16,1.303,0.189,1.976c0.027,0.646,0.017,1.293,0.006,1.939 c-0.013,0.685-0.024,1.393,0.015,2.078c0.079,1.374,0.077,2.768,0.075,4.115v0.578c0,0.36-0.056,0.796-0.114,1.258 c-0.075,0.585-0.164,1.284-0.111,1.771C7.068,42.612,7.107,42.612,7.148,42.612z"/><path fill="#010101" d="M11.256,43.601c-0.03,0-0.06-0.003-0.09-0.008c-0.271-0.05-0.452-0.31-0.403-0.581 c0.491-2.714,0.228-5.435-0.053-8.315c-0.166-1.71-0.338-3.479-0.338-5.25c0-0.276,0.224-0.5,0.5-0.5s0.5,0.224,0.5,0.5 c0,1.723,0.17,3.467,0.333,5.153c0.274,2.821,0.558,5.739,0.042,8.59C11.703,43.432,11.492,43.601,11.256,43.601z"/><path fill="#ed2224" d="M6.468,43.722c-0.319,0.544-1.01,1.083-0.649,1.749c0.36,0.664,1.466,0.619,2.159,0.556 c1.213-0.109,3.421-0.864,3.262-2.292c-0.797,0.102-1.643-0.478-2.47-0.55C8.063,43.123,7.125,42.863,6.468,43.722z"/><path fill="#010101" d="M7.341,46.562c-0.685,0-1.571-0.136-1.961-0.853c-0.426-0.784,0.075-1.446,0.406-1.885 c0.091-0.119,0.181-0.237,0.25-0.355c0.011-0.018,0.021-0.034,0.034-0.051c0.74-0.969,1.773-0.846,2.458-0.763l0.285,0.031 c0.418,0.036,0.813,0.174,1.193,0.307c0.429,0.148,0.835,0.292,1.17,0.246c0.132-0.02,0.267,0.02,0.373,0.104 c0.104,0.082,0.173,0.204,0.188,0.337c0.055,0.491-0.094,0.968-0.431,1.379c-0.815,0.999-2.504,1.396-3.283,1.466 C7.859,46.539,7.616,46.562,7.341,46.562z M6.882,44.004c-0.086,0.141-0.19,0.281-0.298,0.424 c-0.338,0.447-0.428,0.616-0.325,0.805c0.105,0.193,0.479,0.406,1.675,0.296c0.889-0.08,2.102-0.493,2.599-1.102 c0.057-0.069,0.103-0.14,0.137-0.21c-0.34-0.054-0.668-0.168-0.99-0.279c-0.339-0.118-0.658-0.229-0.952-0.255 c-0.102-0.009-0.207-0.021-0.316-0.034C7.703,43.564,7.246,43.546,6.882,44.004z"/><path fill="#ed2224" d="M16.426,43.278c0.778,0.285,2.12,0.785,2.001,1.76c-1.919,0.413-6.332,0.731-7.066-1.496 C12.402,43.069,14.955,42.952,16.426,43.278z"/><path fill="#010101" d="M15.548,45.842c-2.023,0-4.114-0.481-4.661-2.144c-0.08-0.242,0.035-0.506,0.268-0.611 c1.114-0.506,3.776-0.652,5.38-0.297c0.021,0.005,0.043,0.011,0.063,0.019c0.81,0.297,2.494,0.914,2.325,2.29 c-0.025,0.212-0.183,0.384-0.391,0.429C17.731,45.7,16.649,45.842,15.548,45.842z M12.079,43.828 c0.973,1.203,3.958,1.115,5.758,0.813c-0.278-0.408-1.091-0.714-1.551-0.882C15.106,43.506,13.193,43.555,12.079,43.828z"/><path fill="#74cccf" d="M14.702,17.05c0.001,1.91-0.189,3.439-0.096,5.364c0.056,1.149-0.072,3.761,0.548,4.702 c-1.646-0.049-3.301-0.146-4.956-0.297c-0.778-0.071-1.584-0.282-2.437-0.195c-0.731,0.075-1.393,0.615-2.127,0.482 c0.638-0.342,0.303-4.247,0.354-5.102c0.089-1.502,0.185-3.308,0.965-4.598c-0.05,0.286-0.336,0.977-0.438,1.223 c-0.395,0.956,0.002,1.203-0.287,2.154c-0.246,0.809-0.019,1.943-0.144,2.777c-0.237,1.581-0.144,3.973-0.39,5.8 c-0.614,0.018-1.665-0.325-2.279-0.357c-0.065-1.552-0.012-3.125-0.012-4.682c0-2.934,0.09-5.881,1.151-8.609 c0.975-2.505,2.368-3.622,4.976-4.407c1.17-0.352,2.252-0.101,3.447,0.096c1.117,0.184,2.106,1.053,2.633,1.676 c0.495,0.755,1.953,3.245,2.319,3.899c0.374,0.667,0.803,1.715,1.423,2.185c1.457,1.106,2.451,0.933,4.174,1.18 c-0.259,0.842-0.223,1.628-0.264,2.535c-1.979,0.107-3.076,0.235-4.78-0.704C17.676,21.727,15.468,20.592,14.702,17.05z"/><path fill="#010101" d="M5.649,29.861c-0.387,0-0.862-0.101-1.322-0.198c-0.344-0.072-0.699-0.147-0.937-0.16 c-0.258-0.013-0.464-0.22-0.475-0.479c-0.045-1.083-0.033-2.188-0.021-3.257c0.005-0.482,0.01-0.965,0.01-1.446 c0-2.906,0.092-5.979,1.186-8.791c0.999-2.567,2.435-3.842,5.298-4.705c1.157-0.348,2.195-0.17,3.292,0.017l0.38,0.064 c1.479,0.243,2.619,1.474,2.934,1.846c0.537,0.813,1.985,3.284,2.374,3.977c0.087,0.154,0.176,0.327,0.269,0.508 c0.28,0.547,0.63,1.227,1.021,1.524c1.023,0.776,1.761,0.85,2.876,0.96c0.328,0.033,0.68,0.067,1.067,0.123 c0.145,0.021,0.273,0.104,0.352,0.228s0.098,0.275,0.055,0.415c-0.188,0.609-0.204,1.196-0.224,1.875l-0.018,0.534 c-0.012,0.257-0.216,0.463-0.473,0.477l-0.346,0.02c-1.791,0.101-2.976,0.167-4.703-0.784c-0.679-0.373-2.096-1.149-3.119-2.982 c-0.038,0.901-0.066,1.775-0.019,2.762c0.012,0.244,0.016,0.551,0.021,0.895c0.013,1.097,0.035,2.934,0.446,3.557 c0.103,0.156,0.109,0.356,0.019,0.519c-0.091,0.163-0.261,0.262-0.451,0.257c-1.694-0.051-3.372-0.151-4.987-0.3 c-0.247-0.022-0.498-0.059-0.752-0.096c-0.545-0.078-1.065-0.154-1.588-0.1c-0.236,0.024-0.487,0.119-0.752,0.221 c-0.224,0.084-0.462,0.175-0.715,0.23c-0.032,0.642-0.076,1.273-0.155,1.854c-0.032,0.243-0.236,0.427-0.48,0.434 C5.689,29.86,5.67,29.861,5.649,29.861z M3.9,28.559c0.2,0.034,0.414,0.079,0.634,0.125c0.237,0.051,0.493,0.104,0.721,0.14 c0.042-0.418,0.07-0.859,0.092-1.309c-0.108-0.076-0.185-0.194-0.206-0.332c-0.032-0.203,0.064-0.405,0.241-0.509 c0.005-0.109,0.009-0.219,0.013-0.328c0.03-0.833,0.059-1.63,0.131-2.333c-0.007-0.33-0.016-0.631-0.022-0.858 c-0.015-0.523-0.026-0.955-0.013-1.181c0.093-1.576,0.204-3.451,1.036-4.827c0.124-0.206,0.38-0.294,0.603-0.209 c0.226,0.084,0.359,0.317,0.317,0.554c-0.051,0.296-0.263,0.831-0.464,1.316c-0.173,0.419-0.162,0.637-0.147,0.938 c0.014,0.293,0.032,0.657-0.128,1.184c-0.118,0.387-0.104,0.922-0.091,1.439c0.012,0.427,0.022,0.868-0.037,1.267 c-0.021,0.138-0.038,0.283-0.055,0.434c0.018,1.088-0.004,1.882-0.101,2.442c0.091-0.032,0.185-0.067,0.281-0.104 c0.314-0.119,0.64-0.242,1.006-0.279c0.655-0.065,1.254,0.021,1.833,0.104c0.236,0.034,0.47,0.068,0.7,0.089 c1.351,0.124,2.745,0.215,4.157,0.27c-0.224-0.845-0.26-2.006-0.275-3.293c-0.004-0.33-0.008-0.625-0.019-0.858 c-0.057-1.162-0.011-2.203,0.033-3.208c0.03-0.699,0.062-1.408,0.062-2.18c0-0.256,0.192-0.47,0.446-0.498 c0.266-0.028,0.488,0.142,0.542,0.392c0.699,3.234,2.644,4.301,3.474,4.756c1.505,0.83,2.452,0.794,4.116,0.702l0.002-0.067 c0.016-0.531,0.029-1.041,0.128-1.568c-0.165-0.019-0.324-0.034-0.477-0.049c-1.145-0.113-2.133-0.211-3.382-1.159 c-0.572-0.435-0.962-1.194-1.306-1.864c-0.087-0.17-0.17-0.332-0.251-0.476c-0.343-0.611-1.808-3.115-2.302-3.869 c-0.497-0.581-1.389-1.307-2.296-1.457l-0.386-0.065c-1.022-0.174-1.905-0.325-2.835-0.045c-2.556,0.77-3.774,1.845-4.655,4.109 c-1.031,2.652-1.117,5.5-1.117,8.428c0,0.484-0.005,0.97-0.01,1.457C3.885,26.693,3.875,27.635,3.9,28.559z"/><path fill="#fcbf95" d="M27.011,19.778c-0.803-0.089-2.156,0.256-2.895,0.477c-0.578,0.172-0.788,0.361-0.839,0.959 c-0.038,0.451-0.065,1.051,0.055,1.477c0.472-0.015,0.728,0.525,1.275,0.402c0.301-0.068,0.769-0.465,0.862-0.74 c0.202-0.597-0.179-0.801,0.513-1.114c0.33-0.149,0.725-0.271,1.004-0.477c0.143-0.105,0.428-0.333,0.414-0.528 C27.374,19.877,27.131,20.14,27.011,19.778z"/><path fill="#010101" d="M24.446,23.612c-0.363,0-0.636-0.17-0.829-0.291c-0.108-0.067-0.204-0.164-0.271-0.129 c-0.22,0.019-0.434-0.144-0.497-0.364c-0.146-0.517-0.11-1.192-0.071-1.655c0.075-0.889,0.513-1.193,1.193-1.396 c0.765-0.228,2.175-0.594,3.095-0.495c0.171,0.019,0.317,0.124,0.393,0.275c0.273,0.113,0.417,0.328,0.439,0.642 c0.032,0.436-0.337,0.76-0.617,0.966c-0.247,0.182-0.546,0.303-0.81,0.41c-0.097,0.04-0.193,0.078-0.283,0.119 c-0.104,0.046-0.15,0.078-0.169,0.093c0.012-0.016,0.017,0.022,0.017,0.054c0.002,0.152,0.004,0.381-0.095,0.672 c-0.146,0.432-0.752,0.961-1.225,1.068C24.621,23.602,24.531,23.612,24.446,23.612z M23.761,22.269 c0.152,0.058,0.28,0.137,0.387,0.204c0.197,0.123,0.257,0.152,0.349,0.132c0.134-0.03,0.446-0.291,0.499-0.416 c0.043-0.127,0.042-0.221,0.041-0.34c-0.003-0.369,0.052-0.756,0.739-1.066c0.102-0.046,0.211-0.09,0.32-0.135 c0.22-0.089,0.446-0.181,0.594-0.289c0.026-0.02,0.051-0.038,0.072-0.056c-0.014-0.012-0.026-0.025-0.039-0.04 c-0.564,0.001-1.457,0.169-2.465,0.47c-0.434,0.13-0.454,0.179-0.483,0.523C23.76,21.431,23.722,21.887,23.761,22.269z M27.484,19.621l-0.474,0.157l0.478-0.15C27.487,19.626,27.485,19.623,27.484,19.621z"/><path fill="#fcbf95" d="M3.452,29.066c-0.199,0.567-0.19,0.936,0.194,1.351c0.283,0.306,0.592,0.658,1.026,0.78 c0.483,0.136,0.902-0.122,1.131-0.522c0.337-0.588-0.134-0.805-0.108-1.315C5.361,28.931,4.165,28.97,3.452,29.066z"/><path fill="#010101" d="M4.931,31.733c-0.13,0-0.262-0.018-0.394-0.055c-0.549-0.154-0.918-0.555-1.215-0.876 c-0.649-0.7-0.545-1.325-0.342-1.902c0.063-0.177,0.219-0.305,0.405-0.329c0.788-0.107,2.186-0.185,2.704,0.481 c0.074,0.095,0.111,0.214,0.104,0.333c-0.004,0.081,0.024,0.152,0.08,0.282c0.109,0.256,0.291,0.682-0.038,1.256 C5.941,31.44,5.454,31.733,4.931,31.733z M3.84,29.526c-0.048,0.251,0.016,0.38,0.174,0.551c0.276,0.3,0.518,0.562,0.794,0.639 c0.302,0.084,0.494-0.174,0.561-0.289c0.082-0.143,0.073-0.163-0.014-0.366c-0.05-0.118-0.112-0.266-0.143-0.446 C5.004,29.528,4.506,29.469,3.84,29.526z"/><g><path fill="#c0e6ed" d="M33.372,25.145c0,2.389-0.262,4.524-0.484,6.822c-0.222,2.302,0.101,4.658,0.101,6.966 c0,1.218,0.251,2.798-0.067,3.923c1.589,0.725,2.718,0.944,4.493,0.769c0.7-0.069,1.394-0.122,2.085-0.194 c1.079-0.112,1.698,0.049,2.034-0.979c0.468-1.432,0.48-3.202,0.551-4.672c0.089-1.856,0.31-3.681,0.287-5.557 c-0.023-1.892-0.016-4.03-0.223-5.914c-1.464-0.05-2.916-0.469-4.368-0.685C36.366,25.413,34.932,25.433,33.372,25.145z"/><path fill="#010101" d="M36.33,44.183c-1.248,0-2.271-0.26-3.614-0.872c-0.225-0.103-0.341-0.354-0.274-0.591 c0.2-0.71,0.146-1.669,0.094-2.596c-0.023-0.415-0.046-0.82-0.046-1.191c0-0.849-0.044-1.704-0.088-2.562 c-0.075-1.459-0.153-2.969-0.011-4.452l0.111-1.122c0.19-1.893,0.37-3.68,0.37-5.652c0-0.148,0.066-0.29,0.18-0.384 c0.114-0.095,0.264-0.133,0.411-0.107c0.853,0.158,1.682,0.221,2.483,0.283c0.626,0.049,1.273,0.099,1.908,0.193 c0.521,0.077,1.04,0.18,1.56,0.283c0.907,0.18,1.845,0.366,2.752,0.396c0.249,0.009,0.453,0.198,0.48,0.445 c0.183,1.673,0.201,3.568,0.218,5.241l0.008,0.722c0.015,1.236-0.075,2.462-0.162,3.646c-0.047,0.646-0.095,1.291-0.126,1.939 l-0.025,0.585c-0.057,1.362-0.121,2.908-0.549,4.219c-0.386,1.178-1.193,1.23-1.975,1.282c-0.149,0.01-0.311,0.021-0.483,0.038 c-0.377,0.039-0.755,0.073-1.134,0.106l-0.954,0.089C37.06,44.162,36.686,44.183,36.33,44.183z M33.499,42.563 c1.363,0.577,2.353,0.715,3.867,0.563l0.963-0.089c0.374-0.033,0.747-0.066,1.119-0.104c0.187-0.02,0.36-0.031,0.521-0.042 c0.785-0.052,0.92-0.075,1.09-0.595c0.386-1.18,0.447-2.651,0.501-3.95l0.026-0.59c0.031-0.658,0.079-1.313,0.127-1.966 c0.085-1.164,0.174-2.367,0.159-3.562l-0.008-0.724c-0.016-1.582-0.031-3.213-0.17-4.722c-0.839-0.065-1.669-0.23-2.475-0.391 c-0.505-0.1-1.009-0.2-1.513-0.275c-0.605-0.09-1.216-0.136-1.838-0.185c-0.646-0.05-1.311-0.101-2.002-0.2 c-0.031,1.79-0.196,3.434-0.37,5.164l-0.11,1.118c-0.136,1.41-0.061,2.882,0.013,4.306c0.044,0.856,0.09,1.742,0.09,2.612 c0,0.354,0.022,0.739,0.044,1.135C33.582,40.916,33.631,41.789,33.499,42.563z"/></g><g><path fill="#010101" d="M36.723,44.22c-0.256,0-0.474-0.195-0.497-0.456c-0.063-0.715,0.018-1.465,0.095-2.19 c0.04-0.367,0.079-0.729,0.097-1.074c0.044-0.872,0.194-1.699,0.341-2.499c0.169-0.924,0.328-1.796,0.327-2.705 c-0.001-0.917-0.024-1.815-0.048-2.71c-0.024-0.915-0.048-1.826-0.048-2.748c0-0.276,0.224-0.5,0.5-0.5s0.5,0.224,0.5,0.5 c0,0.913,0.023,1.815,0.048,2.722c0.023,0.903,0.047,1.811,0.048,2.734c0.001,1.001-0.174,1.96-0.344,2.887 c-0.14,0.769-0.285,1.563-0.326,2.37c-0.018,0.362-0.059,0.743-0.1,1.131c-0.073,0.677-0.148,1.377-0.094,1.995 c0.024,0.274-0.179,0.518-0.454,0.542C36.753,44.219,36.738,44.22,36.723,44.22z"/></g><g><path fill="#010101" d="M31.253,28.235c-0.197,0-0.396-0.007-0.589-0.014c-0.262-0.01-0.507-0.021-0.693-0.004 c-0.178,0.008-0.35-0.068-0.45-0.216c-0.101-0.146-0.116-0.336-0.04-0.497c0.45-0.951,0.494-2.001,0.541-3.112 c0.018-0.428,0.036-0.857,0.076-1.284c0.087-0.902,0.196-1.796,0.307-2.688c0.235-1.909,0.457-3.712,0.457-5.591 c0.001-1.204,0.002-2.701,1.144-3.624c0.748-0.604,1.829-0.855,2.784-1.077c0.296-0.069,0.581-0.135,0.84-0.208 c1.574-0.45,2.993-0.188,4.493,0.089c0.354,0.065,0.715,0.132,1.083,0.189c1.864,0.292,2.687,0.925,3.385,2.606 c0.38,0.917,0.441,1.817,0.501,2.687c0.042,0.615,0.082,1.195,0.226,1.792l0.086,0.358c0.373,1.548,0.726,3.011,0.726,4.726 l0.004,0.589c0.009,0.785,0.017,1.597-0.104,2.384c-0.027,0.18-0.039,0.413-0.053,0.665c-0.04,0.72-0.085,1.535-0.441,2.008 c-0.103,0.134-0.269,0.213-0.431,0.197c-0.371-0.023-0.756-0.108-1.128-0.19c-0.588-0.131-1.194-0.265-1.656-0.127 c-0.153,0.048-0.321,0.016-0.447-0.081c-0.127-0.098-0.2-0.25-0.196-0.41c0.021-0.786-0.106-1.924-0.347-3.12 c-0.211-1.052-0.226-2.209-0.223-3.304c0.003-1.112-0.022-2.237-0.048-3.368c-0.023-1.094-0.048-2.192-0.048-3.286 c0-0.276,0.224-0.5,0.5-0.5s0.5,0.224,0.5,0.5c0,1.087,0.024,2.177,0.048,3.264c0.025,1.139,0.051,2.272,0.048,3.393 c-0.003,1.044,0.011,2.145,0.203,3.105c0.125,0.623,0.318,1.721,0.36,2.751c0.52-0.014,1.043,0.101,1.521,0.207 c0.225,0.05,0.441,0.098,0.646,0.13c0.09-0.326,0.119-0.848,0.14-1.223c0.017-0.289,0.032-0.557,0.063-0.761 c0.108-0.708,0.1-1.478,0.092-2.224l-0.004-0.6c0-1.597-0.339-3.003-0.697-4.492l-0.087-0.359c-0.163-0.678-0.207-1.328-0.25-1.957 c-0.057-0.826-0.11-1.606-0.428-2.372c-0.521-1.256-0.995-1.748-2.615-2.001c-0.378-0.059-0.746-0.127-1.11-0.194 c-1.44-0.267-2.683-0.498-4.038-0.111c-0.272,0.078-0.574,0.148-0.888,0.221c-0.85,0.197-1.813,0.42-2.381,0.88 c-0.771,0.623-0.771,1.804-0.772,2.847c0,1.94-0.236,3.858-0.465,5.713c-0.108,0.882-0.218,1.767-0.303,2.661 c-0.039,0.409-0.057,0.821-0.073,1.23c-0.039,0.922-0.078,1.869-0.361,2.787c0.014,0.001,0.026,0.001,0.04,0.002 c0.396,0.013,1.226,0.042,1.386-0.106c0.315-0.587,0.205-1.539,0.098-2.46c-0.078-0.676-0.16-1.376-0.071-1.98 c0.112-0.766,0.299-1.54,0.479-2.289c0.111-0.46,0.222-0.918,0.313-1.372c0.269-1.309,0.264-2.651,0.258-4.073l-0.002-0.615 c0-0.276,0.224-0.5,0.5-0.5s0.5,0.224,0.5,0.5l0.002,0.61c0.006,1.475,0.012,2.868-0.277,4.278 c-0.095,0.464-0.208,0.934-0.321,1.405c-0.175,0.727-0.355,1.479-0.461,2.2c-0.07,0.475,0,1.08,0.074,1.72 c0.125,1.075,0.255,2.188-0.222,3.067C32.664,28.142,31.973,28.235,31.253,28.235z"/></g><g><path fill="#fcbf95" d="M30.404,27.635c0,0.609-0.185,1.789,0.314,2.18c0.465,0.364,1.398,0.099,1.746-0.213 c1.716-1.539-0.529-1.882-1.581-2.255"/><path fill="#010101" d="M31.323,30.488c-0.335,0-0.661-0.08-0.914-0.279c-0.605-0.474-0.556-1.464-0.519-2.187 c0.007-0.143,0.014-0.275,0.014-0.387c0-0.285,0.242-0.528,0.525-0.499c0.107-0.231,0.375-0.35,0.621-0.26 c0.142,0.05,0.306,0.1,0.479,0.152c0.827,0.25,1.857,0.562,2.035,1.364c0.166,0.745-0.536,1.374-0.767,1.581 C32.484,30.256,31.891,30.488,31.323,30.488z M30.898,27.879c-0.003,0.063-0.006,0.127-0.01,0.193 c-0.018,0.357-0.06,1.194,0.138,1.349c0.209,0.164,0.865,0.024,1.104-0.191c0.408-0.366,0.47-0.571,0.459-0.62 c-0.052-0.231-0.994-0.517-1.349-0.624C31.121,27.95,31.006,27.914,30.898,27.879z"/></g><g><path fill="#fcbf95" d="M42.564,27.156c0,0.999-0.372,2.159,0.764,2.3c1.013,0.126,1.52-0.761,1.615-1.616 c-0.917-0.144-1.622-0.96-2.57-0.972"/><path fill="#010101" d="M43.514,29.968c-0.081,0-0.164-0.005-0.248-0.016c-1.379-0.172-1.286-1.455-1.23-2.222 c0.012-0.156,0.023-0.314,0.027-0.47c-0.118-0.093-0.192-0.237-0.19-0.398c0.004-0.274,0.227-0.494,0.5-0.494 c0.002,0,0.004,0,0.006,0c0.641,0.008,1.17,0.299,1.638,0.557c0.346,0.189,0.672,0.369,1.004,0.421 c0.265,0.042,0.449,0.283,0.42,0.549c-0.08,0.721-0.389,1.342-0.847,1.704C44.285,29.842,43.916,29.968,43.514,29.968z M43.05,27.549c-0.005,0.085-0.011,0.17-0.018,0.254c-0.076,1.053,0.025,1.116,0.356,1.157c0.232,0.025,0.424-0.02,0.584-0.146 c0.166-0.131,0.3-0.349,0.386-0.614c-0.294-0.107-0.563-0.255-0.824-0.399C43.369,27.71,43.209,27.622,43.05,27.549z"/></g><g><path fill="#fcbf95" d="M35.343,5.194c0.102,1.503-0.789,3.131-0.198,4.552c0.52,1.25,1.984,2.144,3.402,1.565 c2.366-0.965,2.972-5.876,0.58-7.023c-0.622-0.298-1.535-0.506-2.237-0.382C35.83,4.093,35.574,4.762,35.343,5.194z"/><path fill="#010101" d="M37.636,11.994c-1.32,0-2.483-0.927-2.953-2.055c-0.41-0.989-0.216-2.005-0.028-2.987 c0.116-0.608,0.227-1.184,0.189-1.723c-0.006-0.094,0.014-0.187,0.059-0.27l0.057-0.109c0.235-0.457,0.631-1.222,1.845-1.436 c0.896-0.161,1.928,0.129,2.54,0.423c1.181,0.566,1.854,1.934,1.803,3.659c-0.05,1.66-0.814,3.626-2.411,4.278 C38.364,11.925,37.994,11.994,37.636,11.994z M35.849,5.306c0.02,0.619-0.098,1.236-0.212,1.833 c-0.168,0.876-0.326,1.704-0.03,2.415c0.413,0.994,1.584,1.771,2.751,1.293c0.99-0.404,1.743-1.826,1.789-3.382 c0.04-1.318-0.422-2.337-1.234-2.728c-0.5-0.239-1.316-0.45-1.935-0.34C36.253,4.526,36.056,4.904,35.849,5.306z"/></g><g><path fill="#fcbf95" d="M8.714,5.393c-0.746,0.72-0.721,2.258-0.698,3.224c0.022,0.938,0.248,1.8,0.751,2.59 c0.632,0.992,1.599,1.188,2.778,0.943c1.705-0.355,2.172-2.806,2.215-4.231c0.037-1.21-0.15-2.404-1.395-2.887 C11.193,4.576,9.069,4.224,8.714,5.393z"/><path fill="#010101" d="M10.706,12.743c-1.031,0-1.823-0.424-2.36-1.268c-0.532-0.836-0.804-1.768-0.83-2.847 C7.493,7.647,7.455,6.027,8.279,5.123c0.138-0.341,0.395-0.61,0.75-0.783c1.029-0.5,2.694-0.093,3.517,0.225 c1.61,0.625,1.75,2.223,1.715,3.369c-0.062,2.024-0.779,4.323-2.613,4.705C11.314,12.708,11.001,12.743,10.706,12.743z M10.235,5.102c-0.304,0-0.572,0.041-0.769,0.137C9.317,5.311,9.233,5.404,9.192,5.538C9.168,5.62,9.122,5.693,9.062,5.752 C8.463,6.331,8.497,7.81,8.516,8.605c0.021,0.892,0.241,1.655,0.674,2.333c0.464,0.728,1.161,0.95,2.255,0.722 c1.353-0.282,1.778-2.494,1.816-3.756c0.043-1.396-0.269-2.093-1.076-2.406C11.599,5.27,10.847,5.102,10.235,5.102z M8.714,5.393 h0.01H8.714z"/></g></svg>