<svg xmlns="http://www.w3.org/2000/svg" viewBox="0 0 48 48"><radialGradient id="d3DifKEugQZFjuRN15BSwa" cx="16.806" cy="16.701" r="23.479" gradientUnits="userSpaceOnUse"><stop offset="0" stop-color="#bde6ff"/><stop offset=".376" stop-color="#87c0f9"/><stop offset=".796" stop-color="#5199f2"/><stop offset="1" stop-color="#3c8af0"/></radialGradient><path fill="url(#d3DifKEugQZFjuRN15BSwa)" d="M32.589,8.533c-5.113,0-8.589,3.436-8.589,3.436s-3.457-3.436-8.589-3.436	c-5.692,0-10.307,4.615-10.307,10.307C5.104,29.147,24,39.454,24,39.454S42.896,29.147,42.896,18.84	C42.896,13.147,38.282,8.533,32.589,8.533z"/><linearGradient id="d3DifKEugQZFjuRN15BSwb" x1="24.224" x2="23.474" y1="10.502" y2="38.42" gradientUnits="userSpaceOnUse"><stop offset=".147" stop-color="#4d95f2" stop-opacity="0"/><stop offset=".845" stop-color="#235ddb"/></linearGradient><path fill="url(#d3DifKEugQZFjuRN15BSwb)" d="M32.589,8.539c-5.113,0-8.589,3.436-8.589,3.436s-3.457-3.436-8.589-3.436	c-5.692,0-10.307,4.615-10.307,10.307C5.104,29.154,24,39.461,24,39.461s18.896-10.307,18.896-20.614	C42.896,13.154,38.282,8.539,32.589,8.539z"/><radialGradient id="d3DifKEugQZFjuRN15BSwc" cx=".445" cy="85.544" r="7.589" gradientTransform="matrix(.8237 -.567 .3817 .5545 -17.86 -31.762)" gradientUnits="userSpaceOnUse"><stop offset=".129" stop-color="#cdf0fc"/><stop offset=".834" stop-color="#cfebff" stop-opacity="0"/></radialGradient><path fill="url(#d3DifKEugQZFjuRN15BSwc)" d="M21.164,11.949c1.267,2.195-0.395,5.528-3.714,7.444s-7.036,1.69-8.303-0.506	s0.395-5.528,3.714-7.444S19.897,9.753,21.164,11.949z" opacity=".69"/></svg>