<svg xmlns="http://www.w3.org/2000/svg" viewBox="0 0 24 24"><path d="M 12 2 C 2 2 2.8125 10.90625 2.8125 10.90625 C 2.011719 11.304688 1.394531 11.988281 1.09375 13.1875 C 0.792969 14.488281 0.300781 17.011719 0 18.8125 C -0.199219 20.011719 1.085938 21.3125 2.6875 21.3125 C 2.84375 21.3125 2.976563 21.289063 3.125 21.28125 C 3.21875 21.289063 3.308594 21.3125 3.40625 21.3125 C 6.40625 21.3125 7.804688 20.59375 11.90625 20.59375 C 16.007813 20.59375 17.605469 21.3125 20.40625 21.3125 C 20.527344 21.3125 20.609375 21.285156 20.71875 21.28125 C 20.847656 21.289063 20.960938 21.3125 21.09375 21.3125 C 24.195313 21.3125 23.90625 18.8125 23.90625 18.8125 C 23.90625 18.8125 23.210938 14.988281 22.8125 13.1875 C 22.414063 11.386719 21.09375 10.8125 21.09375 10.8125 C 21.09375 10.8125 21.5 2 12 2 Z M 12 3.59375 C 14.5 3.59375 16.394531 4.292969 17.59375 5.59375 C 19.59375 7.695313 19.59375 10.8125 19.59375 10.8125 C 19.59375 11.070313 19.648438 11.265625 19.71875 11.46875 C 19.402344 11.527344 19.03125 11.59375 18.6875 11.59375 C 18.289063 11.59375 17.6875 11.398438 17.1875 11.5 C 15.1875 12 17.59375 12.605469 18.09375 12.90625 C 18.394531 13.105469 18.605469 13.394531 18.90625 13.59375 C 19.605469 14.09375 20.207031 12.90625 20.40625 12.40625 C 20.421875 12.355469 20.425781 12.328125 20.4375 12.28125 C 20.460938 12.292969 20.476563 12.300781 20.5 12.3125 C 20.5 12.3125 21.105469 12.695313 21.40625 13.59375 C 21.804688 15.09375 22.398438 18.398438 22.5 19 C 22.5 19.066406 22.5 19.183594 22.4375 19.28125 C 22.175781 18.953125 21.117188 17.578125 20.3125 16.59375 C 19.511719 15.792969 19.5 15 12 15 C 4.699219 15 4.300781 15.792969 3.5 16.59375 C 2.898438 17.195313 2.1875 17.925781 1.65625 18.75 C 1.945313 17.203125 2.289063 15.183594 2.65625 13.6875 C 2.789063 14.578125 3.113281 15.6875 3.59375 15 C 3.894531 14.5 3.5 13.914063 4 13.3125 C 4.300781 12.914063 5.105469 13 5.40625 12.5 C 6.007813 11.800781 4.585938 11.8125 4.1875 11.8125 C 4.152344 11.8125 4.125 11.8125 4.09375 11.8125 C 4.289063 11.515625 4.40625 11.171875 4.40625 10.8125 C 4.40625 10.8125 4.199219 7.8125 6 5.8125 C 6.613281 5.101563 7.382813 4.550781 8.3125 4.1875 C 8.269531 4.65625 8.15625 5.308594 8.09375 5.5 C 7.894531 6.300781 7.207031 6.707031 6.90625 7.40625 C 6.707031 8.007813 6.800781 8.605469 7.5 8.40625 C 8.101563 8.304688 8.304688 7.699219 8.90625 7.5 C 9.507813 7.398438 10.414063 7.90625 10.8125 7.40625 C 11.3125 6.804688 10.613281 6.613281 10.3125 6.3125 C 9.855469 5.855469 9.488281 4.574219 8.90625 4 C 9.808594 3.734375 10.839844 3.59375 12 3.59375 Z M 16.65625 6.3125 C 16.238281 6.390625 15.875 6.664063 15.5 6.8125 C 15.101563 7.011719 13.707031 7.289063 14.40625 7.6875 C 15.007813 7.988281 15.1875 7.601563 15.6875 8 C 15.988281 8.300781 16.199219 8.699219 16.5 9 C 16.898438 9.300781 17.40625 9.613281 17.40625 8.8125 C 17.40625 8.613281 17.09375 8.386719 17.09375 8.1875 C 16.992188 7.789063 17.113281 7.804688 17.3125 7.40625 C 17.511719 6.90625 17.695313 6.511719 17.09375 6.3125 C 16.945313 6.289063 16.796875 6.285156 16.65625 6.3125 Z M 11.53125 10.46875 C 11.105469 10.554688 10.800781 11.179688 10.5 11.40625 C 10 11.707031 9.414063 11.386719 8.8125 11.6875 C 8.511719 11.789063 8.210938 12.105469 8.3125 12.40625 C 8.414063 12.90625 9.011719 12.710938 9.3125 12.8125 C 9.8125 13.011719 10.007813 13.414063 10.40625 13.8125 C 10.707031 14.113281 11.292969 14.585938 11.59375 14.1875 C 11.894531 13.6875 11.40625 13 11.40625 12.5 C 11.507813 12 12.398438 10.992188 12 10.59375 C 11.824219 10.46875 11.671875 10.441406 11.53125 10.46875 Z"/></svg>