<svg xmlns="http://www.w3.org/2000/svg" viewBox="0 0 16 16"><path d="M 6.5 2 C 5.6774686 2 5 2.6774686 5 3.5 C 5 4.3225314 5.6774686 5 6.5 5 C 7.1043565 5 7.5882846 4.6795311 7.9648438 4.4023438 C 8.3414028 4.1251564 8.609375 3.8476563 8.609375 3.8476562 L 8.9472656 3.4980469 L 8.6074219 3.1503906 C 8.6074219 3.1503906 8.3380175 2.8744123 7.9609375 2.5976562 C 7.5838575 2.3209003 7.1025538 2 6.5 2 z M 6.5 5 L 5.5 5 C 4.6774686 5 4 5.6774686 4 6.5 L 4 9.3320312 L 4.6464844 9.9785156 L 5 10.332031 L 5 14 L 6 14 L 6 9.9179688 L 5.3535156 9.2714844 L 5 8.9179688 L 5 6.5 C 5 6.2185314 5.2185314 6 5.5 6 L 11.857422 6 C 11.788202 6.2820587 11.74834 6.6385417 11.632812 6.7910156 C 11.538522 6.9154572 11.434953 7.0186646 11.322266 7.1484375 C 11.209579 7.2782104 11.059518 7.4586711 11.029297 7.7363281 C 10.966917 8.3130975 10.978747 8.8109305 10.707031 9.0546875 C 10.533931 9.2099791 10.324002 9.3086471 10.105469 9.3886719 C 9.8876888 9.4684206 9.6844275 9.490453 9.4238281 9.6660156 C 9.1817003 9.828185 9.1689076 9.9250894 9.0644531 10.066406 C 8.9599986 10.207723 8.8415304 10.369587 8.7128906 10.517578 C 8.4556111 10.81356 8.1759896 11 8 11 L 8 7 L 7 7 L 7 14 L 8 14 L 8 12 C 8.6750104 12 9.1390764 11.550847 9.4667969 11.173828 C 9.6306571 10.985319 9.765142 10.800167 9.8671875 10.662109 C 9.9293966 10.577946 10.000181 10.508528 10.021484 10.482422 C 10.031818 10.484909 10.200856 10.419076 10.449219 10.328125 C 10.720185 10.228895 11.0621 10.079537 11.375 9.7988281 C 12.061136 9.1832818 11.983885 8.2922405 12.021484 7.8769531 C 12.026606 7.8694244 12.040135 7.8461884 12.076172 7.8046875 C 12.150422 7.7191795 12.286725 7.5851678 12.429688 7.3964844 C 12.71562 7.0191648 13 6.4122339 13 5.5 L 13 5 L 6.5 5 z M 6.5 3 C 6.6724462 3 7.0649706 3.1790996 7.3691406 3.4023438 C 7.4364316 3.4517317 7.4269426 3.4550221 7.484375 3.5019531 C 7.428617 3.5475941 7.43813 3.5497482 7.3730469 3.5976562 C 7.0703559 3.8204693 6.6786435 4 6.5 4 C 6.2185314 4 6 3.7814686 6 3.5 C 6 3.2185314 6.2185314 3 6.5 3 z"/></svg>