<svg xmlns="http://www.w3.org/2000/svg" viewBox="0 0 128 128"><path fill="#fff" d="M22,19v105c0,1.7,1.3,3,3,3h77.8c1.7,0,3-1.3,3-3l0.1-95C106,18,97,9,86,9H32C26.5,9,22,13.5,22,19z"/><path fill="#71c2ff" d="M33 101H37V105H33z"/><path fill="#71c2ff" d="M37 108h-4c-1.7 0-3-1.3-3-3v-4c0-1.7 1.3-3 3-3h4c1.7 0 3 1.3 3 3v4C40 106.7 38.7 108 37 108zM88 106H92V110H88z"/><path fill="#71c2ff" d="M92 113h-4c-1.7 0-3-1.3-3-3v-4c0-1.7 1.3-3 3-3h4c1.7 0 3 1.3 3 3v4C95 111.7 93.7 113 92 113zM74 117H78V121H74z"/><path fill="#71c2ff" d="M78 124h-4c-1.7 0-3-1.3-3-3v-4c0-1.7 1.3-3 3-3h4c1.7 0 3 1.3 3 3v4C81 122.7 79.7 124 78 124zM59 103H63V107H59z"/><path fill="#71c2ff" d="M63,110h-4c-1.7,0-3-1.3-3-3v-4c0-1.7,1.3-3,3-3h4c1.7,0,3,1.3,3,3v4C66,108.7,64.7,110,63,110z"/><g><path fill="#71c2ff" d="M89 75H93V79H89z"/><path fill="#71c2ff" d="M93,82h-4c-1.7,0-3-1.3-3-3v-4c0-1.7,1.3-3,3-3h4c1.7,0,3,1.3,3,3v4C96,80.7,94.7,82,93,82z"/></g><g><path fill="#71c2ff" d="M42 85H50V93H42z"/><path fill="#71c2ff" d="M50,96h-8c-1.7,0-3-1.3-3-3v-8c0-1.7,1.3-3,3-3h8c1.7,0,3,1.3,3,3v8C53,94.7,51.7,96,50,96z M45,90h2v-2h-2V90z"/></g><g><path fill="#71c2ff" d="M72 89H80V97H72z"/><path fill="#71c2ff" d="M80,100h-8c-1.7,0-3-1.3-3-3v-8c0-1.7,1.3-3,3-3h8c1.7,0,3,1.3,3,3v8C83,98.7,81.7,100,80,100z M75,94h2v-2h-2V94z"/></g><g><path fill="#71c2ff" d="M58 66H66V74H58z"/><path fill="#71c2ff" d="M66,77h-8c-1.7,0-3-1.3-3-3v-8c0-1.7,1.3-3,3-3h8c1.7,0,3,1.3,3,3v8C69,75.7,67.7,77,66,77z M61,71h2v-2h-2V71z"/></g><g><path fill="#444b54" d="M105.8 82c1.7 0 3-1.3 3-3l.1-37c0-1.7-1.3-3-3-3 0 0 0 0 0 0-1.7 0-3 1.3-3 3l-.1 37C102.8 80.7 104.2 82 105.8 82 105.8 82 105.8 82 105.8 82zM109 28.6c-.1-6-2.5-11.6-6.7-15.9C97.9 8.4 92.2 6 86 6c0 0 0 0 0 0 0 0 0 0 0 0 0 0 0 0 0 0H32c-7.2 0-13 5.8-13 13v60c0 1.7 1.3 3 3 3s3-1.3 3-3V19c0-3.9 3.1-7 7-7h51v7c0 7.2 5.8 13 13 13h9.6c.1 0 .2 0 .4 0 0 0 0 0 0 0 1.2 0 2.3-.8 2.8-1.8.2-.4.3-.8.3-1.2C109 28.9 109 28.7 109 28.6zM89 19v-6.7c3.4.6 6.5 2.2 9 4.7 2.5 2.5 4.1 5.6 4.7 9H96C92.1 26 89 22.9 89 19z"/></g></svg>