<svg xmlns="http://www.w3.org/2000/svg" viewBox="0 0 26 26"><path d="M 13 0 C 11.832031 0 10.867188 0.472656 10.59375 1.125 C 4.550781 1.757813 0 4.835938 0 10.59375 L 0 16.8125 C -0.0078125 16.875 -0.0078125 16.9375 0 17 C 0 18.125 0.261719 20.125 0.9375 22.03125 C 1.277344 22.984375 1.703125 23.910156 2.34375 24.65625 C 2.984375 25.402344 3.910156 26 5 26 C 7.332031 26 8.957031 25 13 25 C 16.9375 25 18.667969 26 21 26 C 22.070313 26 22.960938 25.421875 23.59375 24.6875 C 24.226563 23.953125 24.6875 23.039063 25.03125 22.09375 C 25.722656 20.199219 26 18.183594 26 17 C 26 16.96875 26 16.9375 26 16.90625 L 26 10.59375 C 26 4.835938 21.449219 1.757813 15.40625 1.125 C 15.132813 0.472656 14.167969 0 13 0 Z M 12.5 4 L 13.3125 4 L 13.3125 4.8125 C 15.613281 5.011719 16.398438 6.199219 16.5 7.5 L 14.5 7.5 C 14.5 7.199219 14.210938 6.3125 13.3125 6.3125 L 13.3125 8.5 C 14.710938 8.800781 16.90625 9.09375 16.90625 11.59375 C 17.007813 12.792969 15.507813 14.1875 13.40625 14.1875 L 13.40625 15 L 12.59375 15 L 12.59375 14.1875 C 10.09375 13.988281 9.199219 12.792969 9 11.09375 L 11 11.09375 C 11 11.992188 11.601563 12.613281 12.5 12.8125 L 12.5 10.1875 C 11.101563 9.789063 9.1875 9.492188 9.1875 7.59375 C 9.1875 5.59375 11.398438 4.90625 12.5 4.90625 Z M 12.3125 6.3125 C 11.917969 6.359375 11.3125 6.5625 11.3125 7.3125 C 11.3125 8.011719 12.09375 8.210938 12.59375 8.3125 L 12.59375 6.3125 C 12.542969 6.3125 12.445313 6.296875 12.3125 6.3125 Z M 13.40625 10.3125 L 13.40625 12.6875 C 13.90625 12.6875 15 12.300781 15 11.5 C 15 10.699219 14.007813 10.511719 13.40625 10.3125 Z M 13 16 C 17.773438 16 21.738281 16.488281 24 16.84375 C 23.996094 16.894531 23.996094 16.949219 24 17 C 24 17.816406 23.742188 19.800781 23.15625 21.40625 C 22.863281 22.210938 22.484375 22.921875 22.09375 23.375 C 21.703125 23.828125 21.378906 24 21 24 C 19.332031 24 17.261719 23 13 23 C 8.640625 23 6.667969 24 5 24 C 4.589844 24 4.265625 23.832031 3.875 23.375 C 3.484375 22.917969 3.097656 22.183594 2.8125 21.375 C 2.238281 19.757813 2 17.773438 2 17 C 2.003906 16.949219 2.003906 16.894531 2 16.84375 C 4.261719 16.488281 8.226563 16 13 16 Z"/></svg>