<svg xmlns="http://www.w3.org/2000/svg" viewBox="0 0 24 24"><path d="M 2 0 L 2 2 L 3 2 L 3 4 L 4.125 4 C 4.722656 8.320313 7.164063 10.953125 8.53125 12.125 C 7.492188 13.058594 4.820313 15.667969 4.15625 20 L 3 20 L 3 22 L 2 22 L 2 24 L 22 24 L 22 22 L 21 22 L 21 20 L 19.84375 20 C 19.179688 15.667969 16.507813 13.058594 15.46875 12.125 C 16.839844 10.96875 19.28125 8.355469 19.875 4 L 21 4 L 21 2 L 22 2 L 22 0 Z M 6.15625 4 L 17.84375 4 C 17.066406 9.121094 13.5 11.125 13.5 11.125 L 12.21875 11.875 L 13.375 12.78125 C 13.375 12.78125 16.917969 15.648438 17.8125 20 L 17.28125 20 C 16.078125 18.042969 13.613281 16 12 16 C 10.386719 16 7.921875 18.042969 6.71875 20 L 6.1875 20 C 7.082031 15.648438 10.625 12.78125 10.625 12.78125 L 11.75 11.875 L 10.5 11.15625 C 10.5 11.15625 6.933594 9.070313 6.15625 4 Z M 10 8 C 10 8.898438 11.101563 11 12 11 C 12.898438 11 14 8.898438 14 8 Z"/></svg>