<?xml version="1.0"?><svg xmlns="http://www.w3.org/2000/svg" viewBox="0 0 128 128">    <path d="M 63.962891 18.224609 C 52.625391 18.224609 41.299219 19.15 30.199219 21 C 19.199219 22.8 11.199219 32.300391 11.199219 43.400391 C 11.199219 49.500391 13.600391 55.2 17.900391 59.5 L 19.5 61 L 19.5 92 C 19.5 96.8 21.400781 101.40078 24.800781 104.80078 C 28.600781 108.60078 33.900781 110.5 39.300781 110 C 55.600781 108.4 72.399219 108.4 88.699219 110 C 89.299219 110.1 89.9 110.09961 90.5 110.09961 C 100.4 110.09961 108.5 101.99961 108.5 92.099609 L 108.5 61.099609 L 110.09961 59.5 C 114.39961 55.2 116.80078 49.500391 116.80078 43.400391 C 116.80078 32.200391 108.80078 22.8 97.800781 21 C 86.650781 19.15 75.300391 18.224609 63.962891 18.224609 z M 63.396484 24.027344 C 69.871094 24.008594 76.350781 24.300391 82.800781 24.900391 C 90.200781 27.800391 95.300781 34.999219 95.300781 43.199219 C 95.300781 48.399219 93.2 53.499219 89.5 57.199219 L 87 59.699219 L 87 92 C 87 96.6 85.000781 100.60078 81.800781 103.30078 C 75.900781 102.90078 69.899609 102.69922 64.099609 102.69922 C 55.699609 102.69922 47.200781 103.1 38.800781 104 C 35.200781 104.4 31.699609 103.09961 29.099609 100.59961 C 26.799609 98.299609 25.599609 95.299609 25.599609 92.099609 L 25.599609 59.900391 C 25.599609 59.100391 25.299219 58.300781 24.699219 57.800781 L 22.199219 55.300781 C 18.999219 52.100781 17.300781 47.900391 17.300781 43.400391 C 17.200781 35.000391 23.099219 28.099219 31.199219 26.699219 C 41.824219 24.949219 52.605469 24.058594 63.396484 24.027344 z M 44.400391 74.199219 A 2.8 2.8 0 0 0 41.599609 77 A 2.8 2.8 0 0 0 44.400391 79.800781 A 2.8 2.8 0 0 0 47.199219 77 A 2.8 2.8 0 0 0 44.400391 74.199219 z M 52.199219 86 A 2.8 2.8 0 0 0 49.400391 88.800781 A 2.8 2.8 0 0 0 52.199219 91.599609 A 2.8 2.8 0 0 0 55 88.800781 A 2.8 2.8 0 0 0 52.199219 86 z"/></svg>