<?xml version="1.0"?><svg xmlns="http://www.w3.org/2000/svg" viewBox="0 0 128 128">    <path d="M 48.699219 11.5 C 46.299219 11.5 44.099609 12.9 43.099609 15 L 41.800781 15 C 38.300781 15 35.5 17.800781 35.5 21.300781 L 35.5 23.699219 L 34.199219 23.699219 C 32.499219 23.699219 31.199219 24.999219 31.199219 26.699219 C 31.199219 28.399219 32.499219 29.699219 34.199219 29.699219 L 35.5 29.699219 L 35.5 32.099609 C 35.5 35.599609 38.300781 38.400391 41.800781 38.400391 L 43.099609 38.400391 C 44.099609 40.400391 46.299219 41.900391 48.699219 41.900391 L 49 41.900391 C 51.4 41.900391 53.599609 40.500391 54.599609 38.400391 L 55.900391 38.400391 C 59.400391 38.400391 62.199219 35.599609 62.199219 32.099609 L 62.199219 29.699219 L 105.30078 29.699219 C 107.00078 29.699219 108.30078 28.399219 108.30078 26.699219 C 108.30078 24.999219 107.00078 23.699219 105.30078 23.699219 L 62.199219 23.699219 L 62.199219 21.300781 C 62.199219 17.800781 59.400391 15 55.900391 15 L 54.599609 15 C 53.599609 13 51.4 11.5 49 11.5 L 48.699219 11.5 z M 29.099609 51.5 C 27.399609 51.5 26.099609 52.8 26.099609 54.5 C 26.099609 56.2 27.399609 57.5 29.099609 57.5 L 31.800781 57.5 L 31.800781 63.099609 C 25.000781 63.599609 19.599609 69.299219 19.599609 76.199219 L 19.599609 103.30078 C 19.599609 110.60078 25.499219 116.5 32.699219 116.5 L 73.199219 116.5 C 80.399219 116.5 86.300781 110.60078 86.300781 103.30078 L 86.300781 76.300781 C 86.300781 69.200781 80.699609 63.399609 73.599609 63.099609 L 73.599609 57.5 L 76.300781 57.5 C 78.000781 57.5 79.300781 56.2 79.300781 54.5 C 79.300781 52.8 78.000781 51.5 76.300781 51.5 L 29.099609 51.5 z M 37.900391 57.599609 L 67.699219 57.599609 L 67.699219 66.199219 C 67.699219 67.899219 68.999219 69.199219 70.699219 69.199219 L 73.300781 69.199219 C 77.200781 69.199219 80.400391 72.400391 80.400391 76.400391 L 80.400391 80.599609 L 36.900391 80.599609 L 36.900391 90.400391 C 36.900391 92.100391 35.600391 93.400391 33.900391 93.400391 C 32.200391 93.400391 30.900391 92.100391 30.900391 90.400391 L 30.900391 80.599609 L 25.599609 80.599609 L 25.599609 76.400391 C 25.599609 72.400391 28.800781 69.199219 32.800781 69.199219 L 34.900391 69.199219 C 36.600391 69.199219 37.900391 67.899219 37.900391 66.199219 L 37.900391 57.599609 z M 25.699219 103.30078 L 80.400391 103.30078 C 80.300391 107.30078 77.099219 110.5 73.199219 110.5 L 32.800781 110.5 C 28.900781 110.5 25.699219 107.30078 25.699219 103.30078 z"/></svg>