<?xml version="1.0"?><svg xmlns="http://www.w3.org/2000/svg" viewBox="0 0 128 128">    <path d="M 58 4.0996094 C 56.3 4.0996094 55 5.3996094 55 7.0996094 L 55 20.099609 C 53.8 20.999609 53 22.399609 53 24.099609 L 53 30.099609 C 53 31.699609 53.8 33.199609 55 34.099609 L 55 55.5 C 46.7 57.1 40.5 64.399219 40.5 73.199219 L 40.5 117.59961 C 38.7 119.09961 36.499609 119.90039 34.099609 119.90039 C 31.099609 119.90039 28.3 118.7 26.5 116.5 C 25.9 115.8 25.099219 115.40039 24.199219 115.40039 C 23.299219 115.40039 22.500391 115.8 21.900391 116.5 C 20.100391 118.7 17.300781 119.90039 14.300781 119.90039 C 11.300781 119.90039 8.4992188 118.7 6.6992188 116.5 C 5.5992188 115.2 3.7 115.09922 2.5 116.19922 C 1.2 117.29922 1.0992188 119.20039 2.1992188 120.40039 C 5.1992188 123.90039 9.6003906 125.90039 14.400391 125.90039 C 18.100391 125.90039 21.500781 124.69961 24.300781 122.59961 C 27.100781 124.79961 30.499219 125.90039 34.199219 125.90039 C 37.899219 125.90039 41.299609 124.69961 44.099609 122.59961 C 46.899609 124.79961 50.3 125.90039 54 125.90039 C 57.6 125.90039 61.100781 124.69961 63.800781 122.59961 C 66.600781 124.79961 70.100781 126.09961 73.800781 126.09961 L 74 126.09961 C 77.7 126.09961 81.299609 124.79961 84.099609 122.59961 C 84.099609 122.59961 84.199219 122.59922 84.199219 122.69922 C 84.299219 122.79922 84.4 122.80039 84.5 122.90039 C 84.8 123.10039 85.2 123.39961 85.5 123.59961 C 85.6 123.69961 85.800391 123.80039 85.900391 123.90039 C 86.200391 124.10039 86.600391 124.30039 86.900391 124.40039 C 87.000391 124.50039 87.200781 124.49961 87.300781 124.59961 C 87.800781 124.79961 88.199219 124.99922 88.699219 125.19922 C 88.799219 125.19922 88.900391 125.20078 88.900391 125.30078 C 89.300391 125.40078 89.699219 125.49961 90.199219 125.59961 C 90.399219 125.59961 90.499219 125.69922 90.699219 125.69922 C 91.099219 125.79922 91.400781 125.80039 91.800781 125.90039 C 92.000781 125.90039 92.100781 125.9 92.300781 126 C 92.800781 126.1 93.400391 126.09961 93.900391 126.09961 C 97.600391 126.09961 101.00078 124.90078 103.80078 122.80078 C 106.50078 124.90078 109.80078 126.09961 113.30078 126.09961 L 113.40039 126.09961 C 115.00039 126.09961 116.40039 124.79922 116.40039 123.19922 C 116.30039 121.19922 115.00078 119.80078 113.30078 119.80078 C 110.40078 119.70078 107.8 118.50039 106 116.40039 C 105.4 115.70039 104.59922 115.30078 103.69922 115.30078 C 102.79922 115.30078 102.00039 115.70039 101.40039 116.40039 C 99.600391 118.60039 96.800781 119.80078 93.800781 119.80078 C 92.900781 119.80078 91.999219 119.7 91.199219 119.5 C 91.399219 119.1 91.5 118.59961 91.5 118.09961 L 91.5 73.099609 C 91.5 64.399609 85.3 57.100391 77 55.400391 L 77 34.099609 C 78.2 33.199609 79 31.799609 79 30.099609 L 79 24.099609 C 79 22.499609 78.2 20.999609 77 20.099609 L 77 7.0996094 C 77 5.3996094 75.7 4.0996094 74 4.0996094 L 58 4.0996094 z M 61.099609 10.099609 L 68.099609 10.099609 L 68.099609 19.099609 L 61.099609 19.099609 L 61.099609 10.099609 z M 59.099609 25.099609 L 71.099609 25.099609 L 71.099609 29.099609 L 59.099609 29.099609 L 59.099609 25.099609 z M 61.099609 35.099609 L 68.099609 35.099609 L 68.099609 55.099609 L 61.099609 55.099609 L 61.099609 35.099609 z M 58.5 61.099609 L 72.5 61.099609 C 76.2 63.799609 78.5 68.199609 78.5 73.099609 L 78.5 118.90039 L 78.599609 118.90039 C 77.199609 119.60039 75.600391 120 73.900391 120 L 73.800781 120 C 70.900781 120 68.100781 118.69961 66.300781 116.59961 L 66.099609 116.40039 C 65.499609 115.70039 64.700781 115.30078 63.800781 115.30078 C 62.900781 115.30078 62.1 115.70039 61.5 116.40039 C 59.7 118.60039 56.900391 119.80078 53.900391 119.80078 C 51.000391 119.80078 48.4 118.59961 46.5 116.59961 L 46.5 73.099609 C 46.5 66.499609 51.9 61.099609 58.5 61.099609 z M 53.599609 70.099609 C 51.899609 70.099609 50.599609 71.399609 50.599609 73.099609 L 50.599609 88.099609 C 50.599609 89.799609 51.899609 91.099609 53.599609 91.099609 C 55.299609 91.099609 56.599609 89.799609 56.599609 88.099609 L 56.599609 73.099609 C 56.599609 71.399609 55.199609 70.099609 53.599609 70.099609 z M 123.5 115.30078 C 121.8 115.30078 120.5 116.60078 120.5 118.30078 C 120.5 120.00078 121.8 121.30078 123.5 121.30078 C 125.2 121.30078 126.5 120.00078 126.5 118.30078 C 126.5 116.60078 125.2 115.30078 123.5 115.30078 z"/></svg>