<svg xmlns="http://www.w3.org/2000/svg" viewBox="0 0 40 40"><path fill="#dff0fe" d="M16.986 35.149L12.666 37.708 11.369 32.646 6.352 33.648 7.397 28.421 2.168 27.387 5.014 23.136 0.833 20 4.851 16.986 2.292 12.666 7.354 11.369 6.352 6.352 11.579 7.397 12.613 2.168 16.864 5.014 20 0.833 23.014 4.851 27.334 2.292 28.631 7.354 33.648 6.352 32.603 11.579 37.832 12.613 34.986 16.864 39.167 20 35.149 23.014 37.708 27.334 32.646 28.631 33.648 33.648 28.421 32.603 27.387 37.832 23.136 34.986 20 39.167z"/><path fill="#4788c7" d="M20,1.667l2.344,3.126l0.538,0.717l0.772-0.457l3.362-1.991L28.03,7.02l0.235,0.918l0.93-0.186 l3.816-0.763l-0.8,4.001l-0.197,0.983l0.983,0.194L37,12.959l-2.166,3.234l-0.527,0.788l0.758,0.569L38.333,20l-3.126,2.344 l-0.717,0.538l0.457,0.772l1.991,3.362L32.98,28.03l-0.918,0.235l0.186,0.93l0.763,3.816l-4.001-0.8l-0.983-0.197l-0.194,0.983 L27.041,37l-3.234-2.166l-0.788-0.527l-0.569,0.758L20,38.333l-2.344-3.126l-0.538-0.717l-0.772,0.457l-3.362,1.991L11.97,32.98 l-0.235-0.918l-0.93,0.186l-3.816,0.763l0.8-4.001l0.197-0.983l-0.983-0.194L3,27.041l2.166-3.234l0.527-0.788l-0.758-0.569 L1.667,20l3.126-2.344l0.717-0.538l-0.457-0.772l-1.991-3.362L7.02,11.97l0.918-0.235l-0.186-0.93L6.989,6.989l4.001,0.8 l0.983,0.197l0.194-0.983L12.959,3l3.234,2.166l0.788,0.527l0.569-0.758L20,1.667 M20,0l-3.251,4.335l-4.48-3l-1.083,5.474 L5.714,5.714l1.057,5.287l-5.249,1.345l2.67,4.509L0,20l4.335,3.251l-3,4.48l5.474,1.083l-1.094,5.471l5.287-1.057l1.345,5.249 l4.509-2.67L20,40l3.251-4.335l4.48,3l1.083-5.474l5.471,1.094l-1.057-5.287l5.249-1.345l-2.67-4.509L40,20l-4.335-3.251l3-4.48 l-5.474-1.083l1.094-5.471l-5.287,1.057l-1.345-5.249l-4.509,2.67L20,0L20,0z"/><path fill="#fff" d="M35.808 23.144L40 20 35.665 16.749 37.171 14.5 2.798 14.5 4.192 16.856 0 20 4.335 23.251 1.335 27.731 6.809 28.814 5.714 34.286 11.001 33.228 12.346 38.478 16.856 35.808 20 40 23.251 35.665 27.731 38.665 28.814 33.191 34.286 34.286 33.228 28.998 38.478 27.654z"/><path fill="#b6dcfe" d="M20 9A11 11 0 1 0 20 31A11 11 0 1 0 20 9Z"/><path fill="#dff0fe" d="M29.222,14.002C30.347,15.727,31,17.787,31,20c0,6.075-4.925,11-11,11S9,26.075,9,20 c0-2.214,0.654-4.275,1.779-6L29.222,14.002z"/><path fill="#4788c7" d="M27.011 21.884c-.527 0-.975-.184-1.344-.554-.369-.369-.554-.819-.554-1.35 0-.522.182-.964.547-1.323s.808-.54 1.33-.54c.531 0 .982.181 1.354.544.37.363.556.802.556 1.32 0 .531-.185.981-.554 1.35C27.98 21.7 27.534 21.884 27.011 21.884zM27.011 19.014c-.27 0-.501.095-.691.284-.192.189-.288.419-.288.689 0 .275.093.51.28.706.188.196.416.294.686.294.266 0 .497-.099.691-.297.197-.198.294-.432.294-.702 0-.275-.096-.505-.286-.692C27.506 19.107 27.277 19.014 27.011 19.014zM15.636 18v10h-1.583v-8.063c-.286.205-.595.379-.924.521-.33.145-.707.27-1.13.379v-1.351c.263-.086.518-.177.764-.273.246-.095.488-.202.726-.321.24-.119.48-.25.723-.396.244-.146.495-.311.754-.498H15.636zM23.57 27.945H17.43v-.757c0-.31.044-.599.13-.869.086-.271.202-.527.348-.764.146-.24.317-.464.512-.677.195-.21.405-.415.628-.614.222-.196.45-.387.682-.573.232-.183.46-.368.682-.555.209-.177.4-.351.573-.523.173-.169.321-.347.443-.528s.218-.374.286-.577c.068-.202.102-.422.102-.658 0-.259-.04-.486-.119-.679-.08-.192-.191-.355-.336-.483-.142-.131-.312-.228-.508-.295-.195-.065-.409-.098-.641-.098-.4 0-.808.093-1.221.28s-.812.467-1.194.839v-1.521c.201-.15.402-.281.607-.392.205-.112.416-.205.634-.281.218-.074.447-.13.689-.166C19.971 18.018 20.227 18 20.5 18c.441 0 .842.057 1.201.175.359.115.666.286.921.51.255.226.452.506.591.843.138.337.207.723.207 1.16 0 .396-.049.752-.147 1.067-.097.317-.236.611-.415.884-.18.273-.397.532-.652.778-.255.246-.539.498-.853.757-.263.214-.527.422-.787.623-.262.203-.498.401-.707.595-.209.192-.379.386-.508.578-.131.194-.195.389-.195.584v.034h4.413V27.945zM38.5 15h-37C1.224 15 1 14.776 1 14.5v0C1 14.224 1.224 14 1.5 14h37c.276 0 .5.224.5.5v0C39 14.776 38.776 15 38.5 15z"/><g><path fill="#4788c7" d="M20,1.667l2.344,3.126l0.538,0.717l0.772-0.457l3.362-1.991L28.03,7.02l0.235,0.918l0.93-0.186 l3.816-0.763l-0.8,4.001l-0.197,0.983l0.983,0.194L37,12.959l-2.166,3.234l-0.527,0.788l0.758,0.569L38.333,20l-3.126,2.344 l-0.717,0.538l0.457,0.772l1.991,3.362L32.98,28.03l-0.918,0.235l0.186,0.93l0.763,3.816l-4.001-0.8l-0.983-0.197l-0.194,0.983 L27.041,37l-3.234-2.166l-0.788-0.527l-0.569,0.758L20,38.333l-2.344-3.126l-0.538-0.717l-0.772,0.457l-3.362,1.991L11.97,32.98 l-0.235-0.918l-0.93,0.186l-3.816,0.763l0.8-4.001l0.197-0.983l-0.983-0.194L3,27.041l2.166-3.234l0.527-0.788l-0.758-0.569 L1.667,20l3.126-2.344l0.717-0.538l-0.457-0.772l-1.991-3.362L7.02,11.97l0.918-0.235l-0.186-0.93L6.989,6.989l4.001,0.8 l0.983,0.197l0.194-0.983L12.959,3l3.234,2.166l0.788,0.527l0.569-0.758L20,1.667 M20,0l-3.251,4.335l-4.48-3l-1.083,5.474 L5.714,5.714l1.057,5.287l-5.249,1.345l2.67,4.509L0,20l4.335,3.251l-3,4.48l5.474,1.083l-1.094,5.471l5.287-1.057l1.345,5.249 l4.509-2.67L20,40l3.251-4.335l4.48,3l1.083-5.474l5.471,1.094l-1.057-5.287l5.249-1.345l-2.67-4.509L40,20l-4.335-3.251l3-4.48 l-5.474-1.083l1.094-5.471l-5.287,1.057l-1.345-5.249l-4.509,2.67L20,0L20,0z"/></g></svg>