<svg xmlns="http://www.w3.org/2000/svg" xmlns:xlink="http://www.w3.org/1999/xlink" width="512" height="512" viewBox="0 0 512 512"><path fill="#65A844" d="M504.1,256c0,137-111.1,248.1-248.1,248.1S7.9,393,7.9,256S119,7.9,256,7.9S504.1,119,504.1,256"/><defs><path id="g1WMmsrQ8qt4knjtPTbXfa" d="M196.5 257.1H315.8V331.6H196.5z"/></defs><clipPath id="g1WMmsrQ8qt4knjtPTbXfb"><use overflow="visible" xlink:href="#g1WMmsrQ8qt4knjtPTbXfa"/></clipPath><path fill="#E57827" d="M256.2,331.6c28.2,0,52.1-14.3,59.7-33.9c-7.6-26.2-31.4-40.6-59.7-40.6s-52.1,14.3-59.7,40.6C204.1,317.3,228,331.6,256.2,331.6" clip-path="url(#g1WMmsrQ8qt4knjtPTbXfb)"/><path fill="#E57827" d="M256.2,331.6c28.2,0,52.1-14.3,59.7-33.9c-7.6-26.2-31.4-40.6-59.7-40.6s-52.1,14.3-59.7,40.6C204.1,317.3,228,331.6,256.2,331.6"/><path fill="#E57827" d="M196.5 297.7c-1.7 5.7-2.6 11.9-2.6 18.7 0 26.1 16.2 47.3 62.2 47.3v-32.1C228 331.6 204.1 317.3 196.5 297.7M315.7 297.7c1.7 5.7 2.6 11.9 2.6 18.7 0 26.1-15.8 48.7-62.2 47.3v-32.1C284.3 331.6 308.1 317.3 315.7 297.7"/><path fill="#E57827" d="M218.4 344.6H244.3V380.40000000000003H218.4zM268 344.6H293.9V380.40000000000003H268z"/><path fill="#3C3D3C" d="M231.1 384.9c1.1 0 2 .9 2 2v5H254c0-12.5-10.1-22.6-22.6-22.6-12.5 0-22.6 10.1-22.6 22.6h20.3v-5C229.1 385.8 230 384.9 231.1 384.9M280.7 384.9c1.1 0 2 .9 2 2v5h20.9c0-12.5-10.1-22.6-22.6-22.6-12.5 0-22.6 10.1-22.6 22.6h20.3v-5C278.7 385.8 279.6 384.9 280.7 384.9M136 340.9c3.7-1.7 14.6-6.5 27.8.2 5.8 2.9 9.1 5.5 11.6 7.4 2.4 2 7 6.8 8.8 10.5-3.7 1.7-4.4 2.4-9.1 3.9-3 .9-7.4 1.4-10.2.4-2.8-1-5.8-2.1-9.4-5.3C153 356.1 143.5 342.7 136 340.9"/><path fill="#E57827" d="M181.5 361.7c-1.7 0-3.5-.1-5.3-.4-3.6-.6-6.1-4-5.5-7.6.6-3.6 4-6.1 7.6-5.5 21.4 3.4 29.7-32.9 29.8-33.3.8-3.6 4.3-5.8 7.9-5 3.6.8 5.8 4.3 5 7.9C220.6 319.7 210.9 361.7 181.5 361.7M238.3 145.9c12.4 12.4 17.7 27.1 12 32.8-5.8 5.8-20.4.4-32.8-12-12.4-12.4-15.1-35.9-15.1-35.9S225.9 133.5 238.3 145.9"/><path fill="#FAB789" d="M235.4,148c9.3,9.3,13.4,20.4,9.1,24.8c-4.3,4.3-15.5,0.3-24.8-9.1c-9.3-9.3-11.4-27.2-11.4-27.2S226,138.7,235.4,148"/><path fill="#E57827" d="M274.1,145.6c-12.4,12.4-17.7,27.1-12,32.8c5.8,5.8,20.4,0.4,32.8-12c12.4-12.4,15.1-35.9,15.1-35.9S286.5,133.2,274.1,145.6"/><path fill="#FAB789" d="M277,147.7c-9.3,9.3-13.4,20.4-9.1,24.8c4.3,4.3,15.4,0.3,24.8-9.1c9.3-9.3,11.4-27.2,11.4-27.2S286.4,138.4,277,147.7"/><path fill="#3C3D3C" d="M258.4,110c3.1,4.8,4.7,9.2,6.2,13c0.7,2,1.4,3.1,2.2,5c0.8,2,1.6,4.3,2,6.8c1,5,0.8,10.6-1,15.5c-1.8,5-4.9,9.4-9.9,12.3c-1.8-5.4-2.8-9.7-3.7-13.6c-0.9-3.9-1.8-7.3-2.5-11c-0.4-1.9-0.7-3.8-0.9-6.2c-0.3-2.4-0.4-5.7,0.2-8.2C252.1,118.6,254.3,114.1,258.4,110"/><path fill="#FFF" d="M301.8,246.5c-5.1-14-29.4-13.3-29.4-13.3l-16.2-58.2L240,233.3c0,0-24.3-0.7-29.5,13.3c-5.2,14-26.6,50.8,45.7,55.2C328.5,297.3,307,260.5,301.8,246.5"/><path fill="#E57827" d="M210.5,246.5c5.2-14,29.5-13.3,29.5-13.3l16.2-58.2l16.2,58.2c0,0,24.3-0.7,29.4,13.3c0.5,1.4,1.2,3.1,2,4.9c0.4-4.7,0.6-9.6,0.6-14.5c0-50.4-21.6-91.3-48.2-91.3S208,186.5,208,237c0,4.9,0.2,9.8,0.6,14.5C209.3,249.6,210,248,210.5,246.5"/><path fill="#251D19" d="M241 192.3c0 3.8-3.1 6.9-6.9 6.9-3.8 0-6.9-3.1-6.9-6.9 0-3.8 3.1-6.9 6.9-6.9C237.9 185.4 241 188.5 241 192.3M285.2 192.3c0 3.8-3.1 6.9-6.9 6.9-3.8 0-6.9-3.1-6.9-6.9 0-3.8 3.1-6.9 6.9-6.9C282.1 185.4 285.2 188.5 285.2 192.3M225.8 269.8c2.3 8.5.4 16.4-4.2 17.6-4.6 1.2-10.1-4.7-12.4-13.2-2.3-8.5-.4-16.4 4.2-17.6C217.9 255.4 223.5 261.3 225.8 269.8M286.9 269.8c-2.3 8.5-.4 16.4 4.2 17.6 4.6 1.2 10.2-4.7 12.4-13.2 2.3-8.5.4-16.4-4.2-17.6C294.7 255.4 289.1 261.3 286.9 269.8"/><path fill="#3C3D3C" d="M241.5,112.6c4.4,3.6,7.4,7.2,10,10.3c1.3,1.6,2.3,2.5,3.6,4c1.4,1.6,2.9,3.6,4.1,5.8c2.5,4.4,4.1,9.8,4,15c-0.1,5.3-1.7,10.5-5.5,14.8c-3.4-4.6-5.7-8.3-7.9-11.7c-2.1-3.4-4-6.3-5.8-9.6c-0.9-1.7-1.9-3.4-2.9-5.6c-1.1-2.2-2.2-5.3-2.4-7.8C238.3,122.7,238.9,117.7,241.5,112.6"/></svg>