<svg xmlns="http://www.w3.org/2000/svg" width="512" height="512" viewBox="0 0 512 512"><path fill="#14B6B9" d="M427.5,196.5c4.8-25.6,10.4-55.5-1.2-80.1c-8.6-18.1-26.2-29.7-44.8-35.5c-23.7-7.4-48.8-7.8-73.4-8.1c-32.8-0.4-65.6,1.1-98.4,1.3c-14.2,0.1-28.3-0.4-42.5-0.9c-10.5-0.4-21.3-0.5-31.6,1.4c-9.4,1.8-19,5.6-25.6,12.8c-7.4,8.1-12.4,19.3-15.3,30.1c0.4,0.8,0.5,1.8,0.5,2.8c-2.3,29.3-2.8,58.6-2.1,88c0.7,28.2,0.9,56.4,1.3,84.7c0.6,41.8,2.1,92.6,43.4,115.7c23.3,13,51.6,14.6,77.7,16.1c31.4,1.9,62.9,0.6,94.2,2.7c22,1.4,45.3,1,66.2-6.8c23.2-8.7,39.9-26.5,46.1-50.7c7.3-28.3,2.5-57.3-0.3-85.9c-1.4-14.4-2.4-28.9-1.2-43.3C421.8,225.9,424.8,211.2,427.5,196.5z M372.8,355.5c-0.5,0.6-1.2,1.2-2.1,1.6c-5.5,2.4-12.5,1.7-18.3,1.4c-6.4-0.4-12.7-1.1-19.1-1.1c-2.4,0-4.8-1.2-5.6-3.7c-3.6-11.4-4.5-23.3-5.4-35.1c-0.8-10-3.1-19.8-3.7-29.8c-38.3,1.7-76.5,5.2-114.8,5.6c1.2,16.9,4.9,33.6,4.1,50.7v0.4l0,0c0,0.5,0,1-0.1,1.5c-0.2,3.8-4.2,5-7.3,4c-0.6,0.3-1.4,0.4-2.2,0.4h-37.5c-1.8,0-3.1-0.7-4.1-1.7c-2.6,0-5-1.5-4.8-4.9c1.5-33.8-3.2-67.7-5.2-101.4c-2-34.2-0.8-68.4-0.8-102.6c0-4.4,4.3-6.4,7.6-5.5c0.6-0.2,1.2-0.4,2-0.4c12.2-0.1,25.6-2,37.5,1.6c1.2,0.4,2.1,1,2.7,1.8c3.5,0.5,6.5,3.8,4.1,7.6c-3.1,5.1-2.7,12.1-2.5,17.9c0.3,6.9,1,13.8,1.4,20.6c0.9,16.1-2.8,32.7,0.6,48.7c24.8,4,50.1,2.4,75.1,4.5c9.3,0.8,18.7,1.4,28.1,1.1c5.6-0.1,13.3,0.2,18.8-2.4c-0.2-15.2-2.1-30.3-2.7-45.5c-0.6-15-0.3-30.1-0.3-45.2c0-0.5,0.1-1,0.2-1.4c0.1-2.5,1.7-4.8,4.9-4.8h48c3,0,4.8,1.9,5.5,4.2c0.3,0.7,0.5,1.5,0.4,2.4c-2.9,68,2.9,136,3,204C380.3,354.4,376,356.4,372.8,355.5z"/><path fill="#EF4823" d="M366.2,150.3h-36.9c-0.1,13.2-0.3,26.4,0.3,39.6c0.7,15.8,2.7,31.7,2.7,47.5c0,0.6-0.1,1.2-0.2,1.7c0.1,1.7-0.5,3.5-2.2,4.8c-6.4,5-16.3,5.4-24.1,5.7c-10.1,0.3-20.2-0.2-30.3-1c-27.2-2.2-54.8-0.5-81.8-5.4c-1.8-0.3-3.6-1.8-4.1-3.6c-5.2-18.7-0.8-37.8-2.1-56.8c-0.6-7.8-1.4-15.7-1.3-23.6c0.1-4.2,0.2-8.7,1.4-12.8c-9.9-2.2-20.7-0.7-30.8-0.6c-0.1,32.9-1.2,65.9,0.9,98.7c2.1,31.8,6.3,63.9,5.2,95.8h34.2c0.2-16-3.5-31.8-4.5-47.8c-2-2.3-2.1-6.1,0-8c1.4-4.7,8.5-5.4,10.3-1.2c41.2-0.5,82.3-4.5,123.5-5.9c6.2-0.2,7.6,8.2,3.1,10.5c0.6,10,3,19.8,3.7,29.9c0.7,9.7,1.4,19.4,3.8,28.8c4.8,0.2,9.7,0.7,14.5,1c4.8,0.2,10.9,1.1,15.5-0.8c0.8-0.4,1.6-0.5,2.3-0.5C369,280.9,363.7,215.6,366.2,150.3z"/><path d="M437.7,202.2c5.1-26.8,10.3-55.7,1.8-82.4c-6.3-19.6-21.5-34.3-39.6-43.3c-19.1-9.4-40.7-12.7-61.8-13.5c-32.6-1.3-65.1-0.9-97.7-0.2c-16.4,0.4-32.8,0.6-49.2,0.4c-12.1-0.1-24.3-1.1-36.4-1c-20.5,0.1-41.8,4.3-55.4,21c-8.3,10.1-13.7,24.1-16.4,36.7c-0.4,1.9,0.1,3.4,1.1,4.5c-2.1,30.2-2.5,60.5-1.7,90.8c0.9,32,0.4,64.1,1.6,96.1c1,25.9,3.4,52.2,16.4,75.1c10.2,18.1,27.2,31.4,46.5,38.7c12.3,4.6,25.2,6.6,38.2,8.1c15.6,1.9,31.3,2.8,47,3.5c29.7,1.2,59.4,1.6,89.1,2.4c22.2,0.6,45.2-1.6,65.6-10.9c22.7-10.3,37.7-29.1,45.1-52.6c8.6-27.5,4.5-57.3,1.6-85.3c-1.5-14.4-2.9-28.9-2.3-43.3C431.7,231.8,434.9,216.9,437.7,202.2z M427.5,196.5c-2.8,14.7-5.8,29.4-7,44.3c-1.2,14.4-0.2,28.9,1.2,43.3c2.7,28.6,7.6,57.6,0.3,85.9c-6.2,24.2-22.9,42-46.1,50.7c-20.9,7.8-44.2,8.3-66.2,6.8c-31.3-2-62.8-0.8-94.2-2.7c-26.1-1.6-54.4-3.1-77.7-16.1C96.4,385.6,94.9,334.8,94.3,293c-0.4-28.2-0.6-56.4-1.3-84.7c-0.7-29.3-0.2-58.7,2.1-88c0.1-1.1-0.1-2-0.5-2.8c2.9-10.8,7.9-22,15.3-30.1c6.6-7.2,16.1-11,25.6-12.8c10.4-1.9,21.1-1.8,31.6-1.4c14.2,0.5,28.3,0.9,42.5,0.9c32.8-0.1,65.6-1.7,98.4-1.3c24.6,0.3,49.7,0.7,73.4,8.1c18.6,5.8,36.3,17.4,44.8,35.5C438,141,432.4,171,427.5,196.5z"/><path d="M377.3,145.9c0-0.9-0.1-1.7-0.4-2.4c-0.7-2.2-2.5-4.2-5.5-4.2h-48c-3.2,0-4.8,2.3-4.9,4.8c-0.1,0.4-0.2,0.9-0.2,1.4c0,15.1-0.3,30.2,0.3,45.2c0.6,15.2,2.5,30.3,2.7,45.5c-5.5,2.6-13.2,2.3-18.8,2.4c-9.4,0.2-18.8-0.3-28.1-1.1c-25-2.1-50.3-0.6-75.1-4.5c-3.5-15.9,0.3-32.5-0.6-48.7c-0.4-6.9-1.1-13.7-1.4-20.6c-0.2-5.8-0.6-12.8,2.5-17.9c2.3-3.8-0.7-7.1-4.1-7.6c-0.7-0.8-1.6-1.4-2.7-1.8c-11.9-3.6-25.3-1.7-37.5-1.6c-0.8,0-1.4,0.1-2,0.4c-3.2-0.9-7.6,1.1-7.6,5.5c0,34.2-1.2,68.4,0.8,102.6c2,33.7,6.7,67.6,5.2,101.4c-0.2,3.4,2.2,4.9,4.8,4.9c1,1,2.3,1.7,4.1,1.7h37.5c0.8,0,1.6-0.2,2.2-0.4c3.1,1,7-0.2,7.3-4c0-0.5,0-1,0.1-1.5l0,0V345c0.8-17.1-2.9-33.8-4.1-50.7c38.3-0.4,76.5-3.9,114.8-5.6c0.6,10,2.9,19.8,3.7,29.8c0.9,11.8,1.8,23.8,5.4,35.1c0.8,2.5,3.2,3.6,5.6,3.7c6.4,0.1,12.8,0.8,19.1,1.1c5.8,0.3,12.8,1,18.3-1.4c0.9-0.4,1.6-0.9,2.1-1.6c3.2,0.9,7.5-1.1,7.5-5.5C380.2,281.9,374.4,214,377.3,145.9z M367,346.7c-4.5,2-10.7,1.1-15.5,0.8c-4.8-0.2-9.7-0.7-14.5-1c-2.5-9.4-3.1-19.2-3.8-28.8c-0.8-10-3.1-19.8-3.7-29.9c4.6-2.2,3.2-10.7-3.1-10.5c-41.2,1.5-82.3,5.5-123.5,5.9c-1.8-4.2-8.9-3.5-10.3,1.2c-2.1,1.9-2,5.8,0,8c1,16,4.8,31.8,4.5,47.8h-34.2c1.1-31.9-3.1-64-5.2-95.8c-2.2-32.9-1.1-65.8-0.9-98.7c10-0.1,20.8-1.5,30.8,0.6c-1.1,4.2-1.3,8.7-1.4,12.8c-0.2,7.9,0.7,15.8,1.3,23.6c1.4,19-3.1,38.1,2.1,56.8c0.5,1.8,2.3,3.3,4.1,3.6c26.9,4.9,54.6,3.2,81.8,5.4c10.1,0.8,20.2,1.3,30.3,1c7.8-0.3,17.6-0.7,24.1-5.7c1.7-1.3,2.3-3.1,2.2-4.8c0.1-0.5,0.2-1.1,0.2-1.7c-0.1-15.9-2-31.7-2.7-47.5c-0.6-13.2-0.3-26.4-0.3-39.6h36.9c-2.5,65.3,2.8,130.5,3.1,195.8C368.6,346.2,367.8,346.3,367,346.7z"/></svg>