<svg xmlns="http://www.w3.org/2000/svg" viewBox="0 0 26 26"><path d="M 12.90625 0.125 C 12.832031 0.125 12.738281 0.136719 12.6875 0.1875 L 12 1.59375 L 10.5 1.8125 C 10.398438 1.8125 10.414063 1.90625 10.3125 1.90625 C 10.3125 2.007813 10.304688 2.09375 10.40625 2.09375 L 11.5 3.1875 L 11.1875 4.6875 C 11.1875 4.789063 11.210938 4.90625 11.3125 4.90625 C 11.414063 4.90625 11.398438 5.007813 11.5 4.90625 L 13 4.1875 L 14.40625 4.90625 L 14.59375 4.90625 C 14.695313 4.90625 14.6875 4.789063 14.6875 4.6875 L 14.40625 3.1875 L 15.5 2.09375 C 15.601563 2.09375 15.601563 2.007813 15.5 1.90625 C 15.5 1.804688 15.414063 1.8125 15.3125 1.8125 L 13.8125 1.59375 L 13.09375 0.1875 C 13.042969 0.136719 12.980469 0.125 12.90625 0.125 Z M 18.0625 1.03125 C 18.011719 1.03125 17.957031 1.042969 17.90625 1.09375 L 17.40625 2.1875 L 16.1875 2.40625 C 16.085938 2.40625 16.09375 2.5 16.09375 2.5 L 16.09375 2.6875 L 17 3.5 L 16.8125 4.6875 C 16.8125 4.789063 16.804688 4.804688 16.90625 4.90625 L 17.09375 4.90625 L 18 4.3125 L 19.09375 4.90625 L 19.3125 4.90625 C 19.3125 4.90625 19.40625 4.789063 19.40625 4.6875 L 19.1875 3.5 L 20 2.6875 L 20 2.5 C 20 2.398438 19.90625 2.40625 19.90625 2.40625 L 18.6875 2.1875 L 18.1875 1.09375 C 18.136719 1.042969 18.113281 1.03125 18.0625 1.03125 Z M 8 1.0625 C 7.949219 1.0625 7.90625 1.085938 7.90625 1.1875 L 7.3125 2.1875 L 6.09375 2.40625 L 6 2.5 L 6 2.6875 L 6.90625 3.5 L 6.6875 4.6875 C 6.6875 4.789063 6.710938 4.804688 6.8125 4.90625 L 7 4.90625 L 8 4.3125 L 9.09375 4.90625 L 9.3125 4.90625 C 9.3125 4.90625 9.40625 4.789063 9.40625 4.6875 L 9.09375 3.5 L 10 2.6875 L 10 2.5 C 10 2.398438 9.90625 2.40625 9.90625 2.40625 L 8.6875 2.1875 L 8.09375 1.1875 C 8.09375 1.085938 8.050781 1.0625 8 1.0625 Z M 3.4375 2.03125 C 3.417969 2.042969 3.40625 2.070313 3.40625 2.09375 L 3 2.90625 L 2.09375 3 C 1.992188 3 2 3.09375 2 3.09375 L 2 3.1875 L 2.6875 3.8125 L 2.5 4.8125 L 2.5 4.90625 L 2.59375 4.90625 L 3.40625 4.5 L 4.1875 4.90625 L 4.40625 4.90625 C 4.40625 4.90625 4.507813 4.8125 4.40625 4.8125 L 4.3125 3.90625 L 5 3.1875 L 5 3.09375 C 5 3.09375 5.007813 3 4.90625 3 L 4 2.90625 L 3.59375 2.09375 C 3.59375 2.019531 3.492188 1.992188 3.4375 2.03125 Z M 22.4375 2.03125 C 22.417969 2.042969 22.40625 2.070313 22.40625 2.09375 L 22 2.90625 L 21.09375 3 C 21.09375 3 21 2.992188 21 3.09375 L 21 3.1875 L 21.6875 3.8125 L 21.5 4.6875 L 21.5 4.8125 L 21.59375 4.8125 L 22.40625 4.40625 L 23.1875 4.8125 L 23.40625 4.8125 C 23.40625 4.8125 23.507813 4.6875 23.40625 4.6875 L 23.1875 3.8125 L 24 3.1875 L 24 3.09375 C 24 3.09375 24.007813 3 23.90625 3 L 23 2.90625 L 22.59375 2.09375 C 22.59375 2.019531 22.492188 1.992188 22.4375 2.03125 Z M 4 5 C 2.300781 5 1 6.300781 1 8 L 1 26 L 25 26 L 25 8 C 25 6.300781 23.699219 5 22 5 Z M 4 7 L 22 7 C 22.601563 7 23 7.398438 23 8 L 23 24 L 15 24 L 15 19 L 11 19 L 11 24 L 3 24 L 3 8 C 3 7.398438 3.398438 7 4 7 Z M 5 9 L 5 12 L 9 12 L 9 9 Z M 11 9 L 11 12 L 15 12 L 15 9 Z M 17 9 L 17 12 L 21 12 L 21 9 Z M 5 14 L 5 17 L 9 17 L 9 14 Z M 11 14 L 11 17 L 15 17 L 15 14 Z M 17 14 L 17 17 L 21 17 L 21 14 Z M 5 19 L 5 22 L 9 22 L 9 19 Z M 17 19 L 17 22 L 21 22 L 21 19 Z"/></svg>