<svg xmlns="http://www.w3.org/2000/svg" xmlns:xlink="http://www.w3.org/1999/xlink" width="512" height="512" viewBox="0 0 512 512"><path fill="none" d="M188.6 17.3L188.6 17.3 188.6 17.3z"/><path fill="#357180" d="M7.9,256C7.9,119,119,7.9,256,7.9C393,7.9,504.1,119,504.1,256c0,137-111.1,248.1-248.1,248.1C119,504.1,7.9,393,7.9,256z"/><path fill="#EFF8F9" d="M182,412.3c14.4,0.3,29.1,5.3,41.6,16.2c19.3-13.7,45.9-17.7,70.1-6.1c13.9-9.1,31.3-13,48.5-9.7c11.2-8.8,25.3-14.2,40-15c21.5-9.4,48.4-7.7,69.8,10.4c9-11.6,17.1-24,23.9-37.2c-10.2-7.1-21-11.2-31.7-12.6c-22.3-25.2-53.4-28.7-77.6-18.1c-14.7,0.8-28.7,6.2-40,15c-17.1-3.3-34.6,0.6-48.5,9.7c-24.2-11.7-50.8-7.6-70.1,6.1c-12.5-10.9-27.2-15.9-41.6-16.2c-37.9-37.6-90.1-24-111.3,10.1c-2.7,1-5.3,2.2-7.9,3.6c-5.5-4.7-11.4-8.2-17.5-10.9c10.6,23.5,24.6,45,41.6,63.9C92.8,388.1,144.3,375,182,412.3z"/><path fill="#D72128" d="M309 170.5H352.3V233.1H309z"/><path fill="#F1F1F1" d="M334.7,191.5c18-0.8,32-0.5,31.5-12.9c-1.2-27.5-14.7-13.9-32.7-13.1c-18,0.8-33.6-11.4-32.4,16C301.7,195.3,316.7,192.3,334.7,191.5z"/><path fill="#D72128" d="M392.9 408.9L213.2 425.4 213.2 285.9 392.9 285.9z"/><path fill="#D4A074" d="M204.7,150.6c-12.8,0-89.8,106.9-89.8,106.9h179.7C294.5,257.6,217.5,150.6,204.7,150.6z"/><path fill="#CC2128" d="M114.9 380.5L213.2 425.4 213.2 285.9 114.9 257.6z"/><path fill="#D4A074" d="M294.5 257.6L392.9 285.9 213.2 285.9 114.9 257.6z"/><path fill="#D72128" d="M303.1,178.9c-12.8,0-89.8,106.9-89.8,106.9h179.7C392.9,285.9,315.9,178.9,303.1,178.9z"/><defs><path id="s1Gx4Xqvv~GvTvQwFQaD3a" d="M318.4,206.4c-12.8-6.1-17.5,3.2-17.5,3.2c-30.9,54.9-55.4,71.8-70.6,76.3h145.2C348.7,269.3,328.5,211.1,318.4,206.4z"/></defs><clipPath id="s1Gx4Xqvv~GvTvQwFQaD3b"><use overflow="visible" xlink:href="#s1Gx4Xqvv~GvTvQwFQaD3a"/></clipPath><g clip-path="url(#s1Gx4Xqvv~GvTvQwFQaD3b)"><path fill="#C12227" d="M360.8 272.5L243.2 269.7 243.2 268.6 360.9 271.5z"/></g><g clip-path="url(#s1Gx4Xqvv~GvTvQwFQaD3b)"><path fill="#C12227" d="M360.8 255.9L243.2 253.1 243.2 252 360.9 254.9z"/></g><g clip-path="url(#s1Gx4Xqvv~GvTvQwFQaD3b)"><path fill="#C12227" d="M360.8 239.4L243.2 236.5 243.2 235.4 360.9 238.3z"/></g><g clip-path="url(#s1Gx4Xqvv~GvTvQwFQaD3b)"><path fill="#C12227" d="M360.8 222.8L243.2 219.9 243.2 218.9 360.9 221.7z"/></g><defs><path id="s1Gx4Xqvv~GvTvQwFQaD3c" d="M392.9 408.9L213.2 425.4 213.2 285.9 392.9 285.9z"/></defs><clipPath id="s1Gx4Xqvv~GvTvQwFQaD3d"><use overflow="visible" xlink:href="#s1Gx4Xqvv~GvTvQwFQaD3c"/></clipPath><g clip-path="url(#s1Gx4Xqvv~GvTvQwFQaD3d)"><path fill="#C12227" d="M211.1 301.8H392.9V305.7H211.1z" transform="matrix(.9999 .0157 -.0157 .9999 4.803 -4.702)"/></g><g clip-path="url(#s1Gx4Xqvv~GvTvQwFQaD3d)"><path fill="#C12227" d="M211.1 285.2H392.9V289.09999999999997H211.1z" transform="rotate(.888 301.98 287.188) scale(1.00002)"/></g><g clip-path="url(#s1Gx4Xqvv~GvTvQwFQaD3d)"><path fill="#C12227" d="M211.1 318.3H392.9V322.2H211.1z" transform="matrix(.9999 .0157 -.0157 .9999 5.065 -4.702)"/></g><g clip-path="url(#s1Gx4Xqvv~GvTvQwFQaD3d)"><path fill="#C12227" d="M211.1 334.9H392.9V338.79999999999995H211.1z" transform="rotate(.888 301.972 336.92) scale(1.00002)"/></g><g clip-path="url(#s1Gx4Xqvv~GvTvQwFQaD3d)"><path fill="#C12227" d="M211.1 351.5H392.9V355.4H211.1z" transform="matrix(.9999 .0157 -.0157 .9999 5.584 -4.696)"/></g><g clip-path="url(#s1Gx4Xqvv~GvTvQwFQaD3d)"><path fill="#C12227" d="M211.1 368.1H392.9V372H211.1z" transform="matrix(.9999 .0157 -.0157 .9999 5.844 -4.694)"/></g><g clip-path="url(#s1Gx4Xqvv~GvTvQwFQaD3d)"><path fill="#C12227" d="M211.1 384.6H392.9V388.5H211.1z" transform="matrix(.9999 .0157 -.0157 .9999 6.104 -4.692)"/></g><g clip-path="url(#s1Gx4Xqvv~GvTvQwFQaD3d)"><path fill="#C12227" d="M211.1 401.2H392.9V405.09999999999997H211.1z" transform="rotate(.888 301.963 403.228) scale(1.00002)"/></g><g clip-path="url(#s1Gx4Xqvv~GvTvQwFQaD3d)"><path fill="#C12227" d="M211.1 417.8H392.9V421.7H211.1z" transform="matrix(.9999 .0157 -.0157 .9999 6.624 -4.688)"/></g><g><path fill="#BD2227" d="M374.4,367.6c0,3.5-2.9,6.4-6.4,6.4h-38.6c-3.5,0-6.4-2.9-6.4-6.4V329c0-3.5,2.9-6.4,6.4-6.4H368c3.5,0,6.4,2.9,6.4,6.4V367.6z"/></g><g><path fill="#E5D0C0" d="M369.6,363.9c0,2.9-2.3,5.2-5.2,5.2H333c-2.9,0-5.2-2.3-5.2-5.2v-31.4c0-2.9,2.3-5.2,5.2-5.2h31.4c2.9,0,5.2,2.3,5.2,5.2V363.9z"/></g><g><path fill="#BD2227" d="M305.9,414.1l-62,5.1v-90c0-4.3,3.4-7.7,7.7-7.7h46.6c4.3,0,7.7,3.4,7.7,7.7V414.1z"/></g><g><path fill="#DB2127" d="M301.1,409l-52.4,6.2v-82.2c0-3.6,2.9-6.5,6.5-6.5h39.4c3.6,0,6.5,2.9,6.5,6.5V409z"/></g><g><path fill="#BD2227" d="M295.6,366.9c0,2.2-1.8,4-4,4c-2.2,0-4-1.8-4-4c0-2.2,1.8-4,4-4C293.8,362.9,295.6,364.7,295.6,366.9z"/></g><g><path fill="#D72128" d="M347.2 326.5H351.3V370.3H347.2z"/></g><g><path fill="#D72128" d="M324.1 347.1H372.6V351.20000000000005H324.1z"/></g><g><path fill="#F1F1F1" d="M311.6,182.5c0,0-2.3-2.1-5.6-2.8c0.2-0.1,0.2-0.1,0.2-0.1s-94.1-30.3-98-30.7c-3.9-0.4-5.7,1.8-5.7,1.8s-7.6-3.2-81.2,97.7c-4.6,2.9-7.7,7.5-9,14.3c0,0,58.3,34.6,110.2,24.6c13.6-0.8,41.4-12.1,78.4-77.7c0,0,4.6-9.3,17.5-3.2c12.8,6.1,42.4,99.5,80.9,81.6C399.3,288,400.1,262.4,311.6,182.5z"/></g><g opacity=".4"><path fill="#EBEBEC" d="M363.6,99.3c-1.9-8.3-8.1-14.5-15.7-16.7c0.6-3.3,0.6-6.7-0.2-10.2c-3-13.5-16.4-22-29.9-19c-13.5,3-22,16.4-19,29.9c1.2,5.4,4.1,10,7.9,13.3c-3.1,4.2-4.4,9.6-3.2,15c0.9,3.8,2.8,7.1,5.5,9.5c-2.9,4.1-4.2,9.4-3,14.7c2.2,9.9,12.1,16.2,22,14c0.8-0.2,1.6-0.4,2.3-0.7c4,2.6,9.1,3.7,14.1,2.6c9.9-2.2,16.2-12.1,14-22c-0.6-2.8-1.9-5.4-3.6-7.5C361.9,117.2,365.6,108.3,363.6,99.3z"/></g><g opacity=".4"><path fill="#EBEBEC" d="M372,128.6c4.2-7.8,1.4-17.5-6.4-21.8c-4.8-2.6-10.3-2.5-14.8-0.3c-0.1-0.2-0.2-0.3-0.3-0.5c1.2-1.1,2.2-2.5,3.1-4c4.2-7.8,1.4-17.5-6.4-21.8c-7.8-4.2-17.5-1.4-21.8,6.4c-3,5.5-2.4,12,0.9,16.8c-1.2,1.1-2.2,2.4-3.1,4c-2.9,5.4-2.5,11.6,0.6,16.4c-0.8,0.9-1.5,1.8-2,2.9c-4.2,7.8-1.4,17.5,6.4,21.8c7.8,4.2,17.5,1.4,21.8-6.4c1.1-2,1.7-4.2,1.9-6.4C359.4,138.8,368.1,135.8,372,128.6z"/></g><g><path fill="#A2D4DE" d="M98.3,447.5c-1.7-1.4-3.3-2.9-4.9-4.3C95,444.7,96.6,446.1,98.3,447.5z"/><path fill="#EFF8F9" d="M93.4 443.2L93.4 443.2 93.4 443.2z"/><g><path fill="#EFF8F9" d="M382.1,397.8c-14.7,0.8-28.7,6.2-40,15c-17.1-3.3-34.6,0.6-48.5,9.7c-24.2-11.7-50.8-7.6-70.1,6.1c-12.5-10.9-27.2-15.9-41.6-16.2c-37.6-37.3-89.2-24.2-110.7,9.2c6.9,7.7,14.3,14.9,22.1,21.7c1.6,1.4,3.3,2.8,4.9,4.3c42.9,35.3,97.8,56.6,157.7,56.6c59.9,0,114.8-21.2,157.7-56.6c1.7-1.4,3.3-2.9,5-4.3c12.2-10.6,23.3-22.3,33.2-35.1C430.5,390,403.6,388.3,382.1,397.8z"/></g></g><g><path fill="#F3F4F5" d="M62.2 351c-5.8 0-10.5 4.7-10.5 10.5 0 5.8 4.7 10.5 10.5 10.5 5.8 0 10.5-4.7 10.5-10.5C72.7 355.7 68 351 62.2 351zM11.8 299.3c.9 5.2 2 10.5 3.3 15.6 1.4-1.8 2.2-4 2.2-6.4C17.2 304.5 15 301.1 11.8 299.3zM131.3 281.9c-5.8 0-10.5 4.7-10.5 10.5 0 5.8 4.7 10.5 10.5 10.5 5.8 0 10.5-4.7 10.5-10.5C141.8 286.6 137.1 281.9 131.3 281.9zM75.9 228.8c-5.8 0-10.5 4.7-10.5 10.5 0 5.8 4.7 10.5 10.5 10.5 5.8 0 10.5-4.7 10.5-10.5C86.4 233.6 81.7 228.8 75.9 228.8zM192.7 220.5c-5.8 0-10.5 4.7-10.5 10.5 0 5.8 4.7 10.5 10.5 10.5 5.8 0 10.5-4.7 10.5-10.5C203.2 225.2 198.5 220.5 192.7 220.5zM137.3 167.5c-5.8 0-10.5 4.7-10.5 10.5 0 5.8 4.7 10.5 10.5 10.5 5.8 0 10.5-4.7 10.5-10.5C147.8 172.2 143.1 167.5 137.3 167.5zM29.1 179.7c0-4.2-2.5-7.7-6-9.4-2.4 6.4-4.4 13.1-6.3 19.7.6.1 1.2.2 1.8.2C24.4 190.2 29.1 185.5 29.1 179.7zM80 107.8c-5.8 0-10.5 4.7-10.5 10.5 0 5.8 4.7 10.5 10.5 10.5 5.8 0 10.5-4.7 10.5-10.5C90.5 112.5 85.8 107.8 80 107.8zM296.3 449.3c-5.8 0-10.5 4.7-10.5 10.5 0 5.8 4.7 10.5 10.5 10.5s10.5-4.7 10.5-10.5C306.8 454 302.1 449.3 296.3 449.3zM402.6 451.4c0 1.4.3 2.8.8 4.1 5.4-4 10.6-8.2 15.7-12.7-1.7-1.2-3.8-1.9-6-1.9C407.3 440.9 402.6 445.6 402.6 451.4zM357.7 387.9c-5.8 0-10.5 4.7-10.5 10.5 0 5.8 4.7 10.5 10.5 10.5 5.8 0 10.5-4.7 10.5-10.5C368.2 392.6 363.5 387.9 357.7 387.9zM172.3 461.1c-5.8 0-10.5 4.7-10.5 10.5 0 5.8 4.7 10.5 10.5 10.5 5.8 0 10.5-4.7 10.5-10.5C182.8 465.8 178.1 461.1 172.3 461.1zM116.9 408.1c-5.8 0-10.5 4.7-10.5 10.5 0 5.8 4.7 10.5 10.5 10.5 5.8 0 10.5-4.7 10.5-10.5C127.4 412.8 122.7 408.1 116.9 408.1zM241.5 392c-5.8 0-10.5 4.7-10.5 10.5 0 5.8 4.7 10.5 10.5 10.5 5.8 0 10.5-4.7 10.5-10.5C252 396.7 247.3 392 241.5 392zM186 339c-5.8 0-10.5 4.7-10.5 10.5 0 5.8 4.7 10.5 10.5 10.5 5.8 0 10.5-4.7 10.5-10.5C196.5 343.7 191.8 339 186 339zM302.8 330.6c-5.8 0-10.5 4.7-10.5 10.5 0 5.8 4.7 10.5 10.5 10.5 5.8 0 10.5-4.7 10.5-10.5C313.3 335.3 308.6 330.6 302.8 330.6zM247.4 277.6c-5.8 0-10.5 4.7-10.5 10.5 0 5.8 4.7 10.5 10.5 10.5 5.8 0 10.5-4.7 10.5-10.5C257.9 282.3 253.2 277.6 247.4 277.6zM250.7 162.5c-5.8 0-10.5 4.7-10.5 10.5 0 5.8 4.7 10.5 10.5 10.5 5.8 0 10.5-4.7 10.5-10.5C261.2 167.2 256.5 162.5 250.7 162.5zM195.3 109.5c-5.8 0-10.5 4.7-10.5 10.5 0 5.8 4.7 10.5 10.5 10.5 5.8 0 10.5-4.7 10.5-10.5C205.8 114.2 201.1 109.5 195.3 109.5zM312.1 101.1c-5.8 0-10.5 4.7-10.5 10.5 0 5.8 4.7 10.5 10.5 10.5 5.8 0 10.5-4.7 10.5-10.5C322.6 105.8 317.9 101.1 312.1 101.1zM256.7 48.1c-5.8 0-10.5 4.7-10.5 10.5 0 5.8 4.7 10.5 10.5 10.5 5.8 0 10.5-4.7 10.5-10.5C267.1 52.8 262.4 48.1 256.7 48.1zM381.2 53c4 0 7.4-2.2 9.1-5.4-5.8-3.8-11.8-7.3-18-10.6-1 1.6-1.6 3.5-1.6 5.6C370.7 48.2 375.4 53 381.2 53zM138 49.8c-5.8 0-10.5 4.7-10.5 10.5 0 5.8 4.7 10.5 10.5 10.5 5.8 0 10.5-4.7 10.5-10.5C148.5 54.5 143.8 49.8 138 49.8zM460.7 393.4c0 .8.1 1.6.3 2.4 2.8-4.1 5.5-8.4 8.1-12.7C464.2 384.1 460.7 388.3 460.7 393.4zM415.7 329.9c-5.8 0-10.5 4.7-10.5 10.5 0 5.8 4.7 10.5 10.5 10.5s10.5-4.7 10.5-10.5C426.2 334.6 421.5 329.9 415.7 329.9zM477.1 268.5c-5.8 0-10.5 4.7-10.5 10.5 0 5.8 4.7 10.5 10.5 10.5s10.5-4.7 10.5-10.5C487.6 273.2 482.9 268.5 477.1 268.5zM360.9 272.6c-5.8 0-10.5 4.7-10.5 10.5 0 5.8 4.7 10.5 10.5 10.5 5.8 0 10.5-4.7 10.5-10.5C371.3 277.3 366.7 272.6 360.9 272.6zM305.4 219.6c-5.8 0-10.5 4.7-10.5 10.5s4.7 10.5 10.5 10.5c5.8 0 10.5-4.7 10.5-10.5S311.2 219.6 305.4 219.6zM422.2 211.2c-5.8 0-10.5 4.7-10.5 10.5 0 5.8 4.7 10.5 10.5 10.5s10.5-4.7 10.5-10.5C432.7 215.9 428 211.2 422.2 211.2zM366.8 158.2c-5.8 0-10.5 4.7-10.5 10.5 0 5.8 4.7 10.5 10.5 10.5 5.8 0 10.5-4.7 10.5-10.5C377.3 162.9 372.6 158.2 366.8 158.2zM485.2 161.1c-1.3-3.2-2.8-6.4-4.2-9.6 0 .4-.1.7-.1 1.1C480.9 156.1 482.6 159.2 485.2 161.1zM425.4 99.6c0 5.8 4.7 10.5 10.5 10.5 5.8 0 10.5-4.7 10.5-10.5 0-1.1-.2-2.2-.5-3.2-1.8-2.1-3.6-4.2-5.4-6.2-1.4-.7-2.9-1.1-4.5-1.1C430.1 89.1 425.4 93.8 425.4 99.6z"/></g></svg>