<svg xmlns="http://www.w3.org/2000/svg" viewBox="0 0 48 48"><path fill="#1e4384" d="M45.178,20.089c-1.933-0.063-3.858,0.012-5.78,0.091c-0.254-0.835-0.63-1.71-0.922-2.549 c-0.388-1.116-0.879-2.114-1.563-3.032c1.157-1.069,3.764-3.321,4.456-4.065c-1.52-1.528-2.472-2.727-4.057-4.161 c-1.62,1.302-2.955,2.757-4.395,4.25c-0.293-0.186-0.588-0.369-0.897-0.539c-0.688-0.378-1.44-0.381-2.171-0.576 c-0.83-0.221-1.597-0.538-2.387-0.792c-0.05-1.137-0.088-2.275-0.09-3.416c0.17-0.27,0.559-1.456,0.272-1.76 c-0.272-0.289-1.358,0.04-1.794,0.044c-0.796,0.007-1.582-0.048-2.351-0.1c-0.957-0.065-1.455-0.346-1.72,0.533 c-0.318,1.055-0.232,2.674-0.287,3.781c-0.012,0.243,0.001,0.479,0.003,0.718c-1.625,0.363-3.252,1.248-4.528,2.171 c-0.202-0.205-0.403-0.414-0.606-0.618c-1.289-1.297-2.539-2.841-3.969-3.946c-0.652,0.651-1.067,1.401-1.809,2.076 c-0.672,0.612-1.767,1.292-2.246,2.009c1.353,1.452,2.802,2.795,4.25,4.137c-0.935,1.18-1.747,2.641-2.265,3.985 c-0.193,0.5-0.316,1.05-0.402,1.618c-1.691-0.087-4.674-0.307-5.607-0.275c0,2.162-0.169,3.686-0.056,5.828 c1.984,0.223,3.88,0.157,5.862,0.124c0.068,0.2,0.139,0.406,0.208,0.626c0.252,0.806,0.281,1.708,0.487,2.487 c0.247,0.933,0.607,1.824,1.058,2.66c-1.253,1.239-2.701,2.451-3.752,3.829c0.647,0.656,1.392,1.074,2.064,1.82 c0.609,0.676,1.284,1.777,1.998,2.259c1.275-1.202,2.462-2.481,3.641-3.766c1.407,0.822,2.869,1.907,4.418,2.402 c0.124,0.04,0.249,0.059,0.373,0.092c-0.038,0.745-0.068,1.492-0.068,2.249c0,0.813,0.654,2.574,0.19,3.232 c2.303-0.181,4.642-0.248,6.999-0.377c0.058-1.672,0.239-3.358,0.209-5.066c0.443-0.088,0.888-0.177,1.338-0.255 c1.489-0.257,2.901-1.267,4.061-2.175c0.011-0.008,0.021-0.019,0.031-0.027c1.152,1.293,2.923,3.348,3.565,3.952 c1.519-1.528,2.711-2.486,4.137-4.081c-1.166-1.467-2.453-2.696-3.78-3.983c0.742-1.106,1.216-2.396,1.665-3.651 c0.243-0.68,0.476-1.281,0.594-1.956c0.015,0,0.03,0,0.046,0c1.823,0,3.792,0.203,5.58-0.033c0.004-0.924-0.23-1.75-0.18-2.755 C45.047,22.196,45.343,20.937,45.178,20.089z"/><path fill="#010101" d="M20.737,44.015c-0.179,0-0.345-0.096-0.435-0.253c-0.096-0.168-0.086-0.377,0.025-0.535 c0.183-0.258-0.002-1.199-0.112-1.762c-0.087-0.44-0.168-0.855-0.168-1.183c0-0.626,0.021-1.246,0.049-1.862 c-0.003-0.001-0.006-0.002-0.008-0.003c-1.202-0.384-2.325-1.088-3.412-1.77c-0.255-0.16-0.508-0.318-0.759-0.471 c-1.108,1.204-2.209,2.378-3.392,3.492c-0.171,0.162-0.431,0.182-0.623,0.051c-0.54-0.365-1.017-0.983-1.478-1.582 c-0.211-0.272-0.414-0.538-0.611-0.756c-0.341-0.379-0.702-0.666-1.085-0.97c-0.32-0.255-0.651-0.518-0.964-0.835 c-0.175-0.177-0.192-0.456-0.041-0.654c0.783-1.025,1.771-1.955,2.727-2.854c0.272-0.257,0.544-0.512,0.809-0.769 c-0.396-0.785-0.706-1.603-0.927-2.434c-0.098-0.369-0.158-0.765-0.219-1.165c-0.066-0.44-0.135-0.896-0.262-1.301 c-0.028-0.092-0.058-0.182-0.087-0.269l-0.267,0.005c-1.794,0.032-3.49,0.065-5.295-0.139c-0.243-0.027-0.431-0.227-0.443-0.471 c-0.071-1.336-0.034-2.426,0.006-3.58c0.023-0.711,0.049-1.445,0.049-2.273c0-0.27,0.214-0.491,0.483-0.5 c0.671-0.028,2.302,0.076,3.873,0.172c0.47,0.029,0.925,0.057,1.332,0.08c0.093-0.479,0.209-0.899,0.354-1.274 c0.498-1.292,1.236-2.634,2.059-3.748c-1.326-1.229-2.682-2.5-3.943-3.854c-0.157-0.169-0.179-0.426-0.05-0.619 c0.363-0.544,0.979-1.024,1.574-1.488c0.271-0.211,0.533-0.416,0.75-0.613c0.378-0.344,0.663-0.708,0.966-1.093 c0.252-0.322,0.513-0.654,0.827-0.968c0.181-0.177,0.461-0.195,0.659-0.042c1.015,0.784,1.935,1.773,2.823,2.73 c0.399,0.43,0.795,0.856,1.195,1.259l0.312,0.317c0.897-0.612,2.345-1.467,3.96-1.906c-0.002-0.117-0.001-0.234,0.005-0.353 c0.014-0.288,0.019-0.609,0.023-0.947c0.014-0.989,0.029-2.111,0.284-2.955c0.334-1.111,1.12-1.015,1.752-0.937 c0.145,0.018,0.305,0.038,0.48,0.049c0.806,0.055,1.56,0.107,2.313,0.1c0.116-0.001,0.286-0.032,0.473-0.063 c0.647-0.108,1.318-0.217,1.688,0.175c0.512,0.542,0.067,1.77-0.136,2.216c0.004,0.863,0.028,1.785,0.075,2.938 c0.188,0.064,0.373,0.13,0.56,0.196c0.48,0.17,0.964,0.343,1.472,0.479c0.231,0.062,0.466,0.102,0.699,0.144 c0.518,0.091,1.054,0.186,1.583,0.477c0.197,0.108,0.389,0.222,0.577,0.338l0.315-0.328c1.248-1.302,2.427-2.531,3.846-3.672 c0.192-0.153,0.466-0.146,0.649,0.019c0.987,0.894,1.727,1.69,2.51,2.533c0.483,0.521,0.982,1.059,1.565,1.646 c0.189,0.19,0.194,0.497,0.012,0.693c-0.463,0.497-1.683,1.583-2.862,2.634c-0.473,0.421-0.927,0.826-1.297,1.161 c0.552,0.814,1.002,1.733,1.373,2.796c0.113,0.327,0.24,0.659,0.367,0.993c0.153,0.403,0.307,0.807,0.44,1.205 c1.688-0.068,3.563-0.136,5.438-0.076c0.232,0.007,0.43,0.175,0.474,0.403c0.126,0.643,0.028,1.419-0.066,2.17 c-0.043,0.342-0.086,0.674-0.101,0.969c-0.024,0.511,0.029,0.971,0.087,1.458c0.047,0.407,0.097,0.828,0.095,1.274 c-0.001,0.25-0.187,0.461-0.435,0.494c-1.269,0.166-2.615,0.122-3.917,0.077c-0.461-0.016-0.919-0.03-1.369-0.036 c-0.116,0.475-0.276,0.919-0.444,1.384l-0.085,0.237c-0.368,1.031-0.817,2.29-1.495,3.408c1.25,1.21,2.432,2.362,3.531,3.748 c0.151,0.19,0.144,0.463-0.019,0.644c-0.888,0.992-1.679,1.735-2.516,2.521c-0.519,0.487-1.055,0.99-1.639,1.578 c-0.19,0.191-0.499,0.198-0.697,0.012c-0.492-0.463-1.564-1.681-2.602-2.858l-0.686-0.776c-1.233,0.94-2.534,1.771-3.943,2.014 c-0.309,0.053-0.614,0.111-0.919,0.172c-0.001,0.963-0.06,1.921-0.116,2.85c-0.038,0.61-0.075,1.218-0.096,1.824 c-0.009,0.259-0.214,0.468-0.473,0.481c-0.816,0.045-1.63,0.082-2.441,0.119c-1.498,0.068-3.048,0.14-4.547,0.257 C20.764,44.014,20.75,44.015,20.737,44.015z M15.825,35.039c0.087,0,0.174,0.022,0.252,0.068c0.373,0.218,0.75,0.454,1.131,0.692 c1.034,0.648,2.104,1.319,3.188,1.665c0.061,0.021,0.12,0.032,0.18,0.046l0.17,0.04c0.229,0.062,0.383,0.273,0.37,0.509 c-0.037,0.736-0.067,1.475-0.067,2.224c0,0.229,0.072,0.599,0.148,0.988c0.115,0.584,0.231,1.18,0.204,1.693 c1.291-0.09,2.603-0.149,3.877-0.208c0.658-0.03,1.317-0.061,1.979-0.095c0.021-0.463,0.05-0.927,0.079-1.392 c0.063-1.045,0.13-2.125,0.11-3.19c-0.004-0.242,0.165-0.452,0.402-0.499c0.503-0.1,0.924-0.184,1.35-0.257 c1.339-0.231,2.636-1.135,3.839-2.076c0.209-0.164,0.538-0.162,0.713,0.033l0.999,1.131c0.782,0.888,1.647,1.871,2.195,2.447 c0.457-0.45,0.888-0.854,1.307-1.248c0.729-0.684,1.422-1.335,2.169-2.144c-1.014-1.227-2.112-2.291-3.271-3.412l-0.199-0.193 c-0.174-0.169-0.202-0.438-0.067-0.639c0.736-1.095,1.221-2.451,1.609-3.54l0.086-0.24c0.21-0.58,0.391-1.082,0.487-1.635 c0.042-0.239,0.249-0.414,0.492-0.414c0.622,0.001,1.213,0.021,1.809,0.041c1.104,0.037,2.239,0.075,3.302-0.021 c-0.017-0.233-0.044-0.468-0.072-0.71c-0.06-0.506-0.121-1.029-0.092-1.623c0.016-0.318,0.06-0.676,0.106-1.045 c0.063-0.507,0.13-1.027,0.117-1.46c-1.832-0.037-3.672,0.036-5.309,0.103c-0.236,0.018-0.433-0.136-0.499-0.354 c-0.15-0.494-0.345-1.003-0.537-1.51c-0.131-0.342-0.261-0.684-0.378-1.02c-0.398-1.146-0.873-2.066-1.492-2.897 c-0.152-0.205-0.126-0.493,0.063-0.666c0.411-0.381,1.007-0.911,1.634-1.47c0.894-0.795,1.882-1.676,2.458-2.231 c-0.447-0.46-0.85-0.893-1.241-1.315c-0.68-0.733-1.327-1.43-2.131-2.181c-1.228,1.026-2.295,2.139-3.419,3.312l-0.599,0.623 c-0.164,0.172-0.427,0.203-0.628,0.075c-0.282-0.18-0.568-0.358-0.868-0.522c-0.385-0.211-0.818-0.288-1.276-0.369 c-0.262-0.046-0.523-0.093-0.783-0.163c-0.534-0.142-1.043-0.322-1.549-0.502c-0.287-0.102-0.573-0.204-0.862-0.297 c-0.199-0.064-0.337-0.246-0.347-0.454c-0.061-1.383-0.088-2.443-0.091-3.437c0-0.095,0.026-0.188,0.076-0.268 c0.117-0.185,0.301-0.82,0.302-1.113c-0.194-0.007-0.572,0.055-0.769,0.087c-0.246,0.041-0.472,0.075-0.625,0.076 c-0.791,0.008-1.564-0.046-2.314-0.097c-0.271-0.019-0.449-0.04-0.61-0.06c-0.583-0.072-0.58-0.07-0.673,0.233 c-0.214,0.71-0.229,1.757-0.242,2.68c-0.005,0.35-0.01,0.684-0.024,0.982c-0.007,0.156-0.003,0.31,0,0.463l0.004,0.226 c0.002,0.235-0.161,0.44-0.391,0.492c-1.836,0.411-3.51,1.484-4.344,2.088c-0.199,0.144-0.475,0.123-0.648-0.054l-0.605-0.617 c-0.407-0.41-0.812-0.845-1.218-1.283c-0.754-0.811-1.529-1.646-2.347-2.333c-0.151,0.175-0.295,0.359-0.444,0.549 c-0.314,0.4-0.639,0.815-1.078,1.215c-0.234,0.213-0.518,0.435-0.81,0.662c-0.401,0.314-0.814,0.636-1.11,0.951 c1.26,1.324,2.614,2.579,3.928,3.796c0.191,0.177,0.214,0.472,0.052,0.677c-0.873,1.102-1.671,2.507-2.189,3.854 c-0.162,0.42-0.284,0.916-0.375,1.514c-0.038,0.254-0.261,0.44-0.52,0.425c-0.509-0.026-1.134-0.064-1.785-0.104 c-1.188-0.073-2.502-0.153-3.299-0.17c-0.007,0.642-0.027,1.231-0.047,1.807c-0.034,1.004-0.066,1.96-0.025,3.066 c1.586,0.146,3.121,0.117,4.74,0.089l0.632-0.012c0.202,0.013,0.412,0.133,0.482,0.339c0.087,0.254,0.15,0.439,0.212,0.637 c0.15,0.479,0.225,0.974,0.297,1.452c0.055,0.363,0.107,0.723,0.196,1.058c0.231,0.874,0.573,1.732,1.015,2.551 c0.106,0.195,0.07,0.437-0.088,0.593c-0.353,0.349-0.721,0.694-1.09,1.043c-0.813,0.764-1.648,1.551-2.336,2.381 c0.176,0.153,0.36,0.3,0.551,0.451c0.397,0.315,0.81,0.643,1.206,1.083c0.213,0.236,0.434,0.521,0.66,0.815 c0.31,0.402,0.628,0.815,0.939,1.112c1.138-1.096,2.211-2.253,3.3-3.438C15.555,35.095,15.689,35.039,15.825,35.039z"/><path fill="#d6e5e5" d="M19.445,18.524c-0.211-1.031,1.268-4.267,3.695-4.724c1.856-0.349,4.701-0.005,5.993,1.491 c1.065,1.233,1.223,3.129,0.722,4.562c-0.438,1.251-1.593,2.078-2.589,2.83c-0.773,0.583-1.718,1.015-2.064,1.926 c-0.258,0.68-0.115,1.925-0.135,2.644c-1.134,0.087-2.573,0.227-3.396,0.163c-0.085-0.996-0.141-1.609-0.17-1.992 c-0.094-1.211,0.859-2.95,1.918-3.545c0.854-0.48,1.272-1.094,1.989-1.754c0.617-0.569,1.085-1.59,0.811-2.397 c-0.178-0.526-0.93-0.95-1.496-0.947c-0.904,0.006-1.836,1.146-1.709,1.859C22.385,18.736,20.112,18.685,19.445,18.524z"/><path fill="#010101" d="M22.156,27.932c-0.191,0-0.368-0.006-0.525-0.019c-0.244-0.019-0.438-0.211-0.459-0.455 l-0.171-1.996c-0.109-1.404,0.926-3.32,2.171-4.02c0.525-0.295,0.871-0.653,1.271-1.067c0.192-0.2,0.394-0.407,0.623-0.619 c0.491-0.452,0.878-1.274,0.677-1.869c-0.099-0.291-0.628-0.607-1.014-0.607c-0.002,0-0.004,0-0.005,0 c-0.28,0.002-0.636,0.212-0.904,0.535c-0.253,0.304-0.342,0.595-0.316,0.736c0.023,0.132-0.007,0.269-0.085,0.378 c-0.079,0.11-0.197,0.183-0.331,0.204c-0.699,0.109-3.026,0.054-3.76-0.124c-0.188-0.045-0.334-0.196-0.373-0.386 c-0.145-0.708,0.262-1.958,0.989-3.041c0.838-1.248,1.939-2.056,3.103-2.274c2.105-0.397,5.079,0.051,6.464,1.656 c1.27,1.471,1.325,3.598,0.815,5.053c-0.47,1.341-1.617,2.205-2.631,2.966l-0.13,0.098c-0.187,0.141-0.383,0.273-0.578,0.405 c-0.571,0.385-1.109,0.748-1.318,1.299c-0.152,0.4-0.131,1.154-0.112,1.76c0.007,0.266,0.015,0.514,0.009,0.721 c-0.007,0.256-0.207,0.466-0.462,0.485l-0.571,0.045C23.733,27.861,22.851,27.932,22.156,27.932z M22.13,26.932 c0.664-0.004,1.529-0.068,2.322-0.132l0.11-0.009c-0.002-0.07-0.004-0.143-0.006-0.216c-0.021-0.731-0.046-1.56,0.178-2.145 c0.321-0.848,1.05-1.339,1.693-1.773c0.182-0.122,0.363-0.245,0.536-0.375l0.131-0.099c0.943-0.71,1.919-1.444,2.288-2.498 c0.4-1.145,0.374-2.907-0.63-4.069c-1.098-1.273-3.669-1.674-5.521-1.327c-1.211,0.228-2.061,1.257-2.458,1.85 c-0.502,0.748-0.769,1.499-0.834,1.957c0.692,0.078,1.9,0.111,2.598,0.08c0.072-0.333,0.249-0.683,0.514-1.001 c0.464-0.557,1.086-0.892,1.666-0.896c0.003,0,0.007,0,0.011,0c0.738,0,1.699,0.514,1.962,1.286 c0.349,1.028-0.213,2.25-0.946,2.926c-0.215,0.197-0.401,0.391-0.582,0.578c-0.436,0.451-0.847,0.877-1.5,1.244 c-0.903,0.507-1.743,2.057-1.665,3.07L22.13,26.932z"/><g><path fill="#d6e5e5" d="M22.08,31.795c0.063,0.654,0.402,1.345,1.178,1.545c0.423,0.109,0.898,0.152,1.351,0.131 c0.479-0.022,0.707-0.11,0.974-0.431c0.247-0.297,0.53-0.531,0.553-0.922c0.02-0.35-0.132-0.779-0.245-1.11 c-0.248-0.726-1.056-1.473-2.02-1.271c-0.458,0.096-0.774,0.467-1.115,0.737c-0.207,0.164-0.495,0.399-0.636,0.645 C22.001,31.324,21.994,31.59,22.08,31.795z"/><path fill="#010101" d="M24.379,33.976c-0.429,0-0.855-0.052-1.245-0.152c-0.854-0.219-1.428-0.931-1.544-1.911 c-0.117-0.341-0.083-0.733,0.096-1.044c0.175-0.303,0.469-0.558,0.761-0.787c0.072-0.058,0.145-0.121,0.217-0.185 c0.279-0.245,0.626-0.55,1.105-0.649c1.197-0.259,2.259,0.615,2.595,1.598c0.14,0.406,0.297,0.866,0.271,1.302 c-0.029,0.49-0.311,0.807-0.537,1.061l-0.131,0.151c-0.397,0.479-0.791,0.586-1.336,0.61 C24.547,33.974,24.463,33.976,24.379,33.976z M24.189,30.203c-0.07,0-0.143,0.007-0.216,0.022c-0.223,0.047-0.431,0.229-0.65,0.423 c-0.086,0.074-0.171,0.148-0.257,0.217c-0.124,0.098-0.411,0.324-0.514,0.502c-0.036,0.063-0.041,0.164-0.013,0.232 c0.021,0.047,0.033,0.097,0.038,0.147c0.026,0.278,0.158,0.941,0.804,1.107c0.365,0.095,0.789,0.135,1.203,0.116 c0.379-0.018,0.459-0.066,0.612-0.251l0.153-0.177c0.183-0.205,0.277-0.318,0.286-0.456c0.014-0.238-0.113-0.609-0.206-0.881 C25.275,30.752,24.801,30.203,24.189,30.203z"/></g></svg>