<svg xmlns="http://www.w3.org/2000/svg" viewBox="0 0 24 24"><path d="M 11.09375 0 C 4.992188 0 0 4.898438 0 11 C 0 17.101563 4.898438 22 11 22 C 12.300781 22 13.488281 21.8125 14.6875 21.3125 C 14.585938 20.914063 14.5 20.414063 14.5 19.8125 L 14.5 19.1875 C 13.5 19.6875 12.300781 20 11 20 C 6 20 2 16 2 11 C 2 6 6 2 11 2 C 15.5 2 19.304688 5.386719 19.90625 9.6875 L 20 9.59375 L 21.1875 11.09375 C 21.386719 11.292969 21.601563 11.59375 22 12.09375 C 22 11.695313 22.09375 11.398438 22.09375 11 C 22.09375 4.898438 17.195313 0 11.09375 0 Z M 11 4 C 7.132813 4 4 7.132813 4 11 C 4 12.609375 4.527344 14.121094 5.5 15.3125 C 5.671875 15.527344 5.988281 15.5625 6.203125 15.390625 C 6.417969 15.21875 6.453125 14.902344 6.28125 14.6875 C 5.457031 13.679688 5 12.390625 5 11 C 5 7.667969 7.667969 5 11 5 C 12.546875 5 13.941406 5.582031 15 6.53125 L 10.90625 9.5 C 10.121094 9.546875 9.5 10.203125 9.5 11 C 9.5 11.828125 10.171875 12.5 11 12.5 C 11.796875 12.5 12.453125 11.878906 12.5 11.09375 L 15.46875 7 C 16.417969 8.058594 17 9.453125 17 11 C 17 12.390625 16.542969 13.679688 15.71875 14.6875 C 15.546875 14.902344 15.582031 15.21875 15.796875 15.390625 C 16.011719 15.5625 16.328125 15.527344 16.5 15.3125 C 17.472656 14.121094 18 12.609375 18 11 C 18 9.128906 17.253906 7.441406 16.0625 6.1875 L 16.8125 5.1875 L 15.8125 5.9375 C 14.558594 4.746094 12.871094 4 11 4 Z M 20 12 C 20 12 16 17.113281 16 19.8125 C 16 22.113281 17.800781 24 20 24 C 22.199219 24 24 22.113281 24 19.8125 C 24 17.113281 20 12 20 12 Z"/></svg>