<svg xmlns="http://www.w3.org/2000/svg" viewBox="0 0 48 48"><path fill="#00acc1" d="M21,12c0,4.95-4.05,9-9,9s-9-4.05-9-9s4.05-9,9-9S21,7.05,21,12"/><path fill="#fff" d="M19,12c0,3.9-3.1,7-7,7s-7-3.1-7-7s3.1-7,7-7S19,8.1,19,12"/><path d="M16.4,15.1l-2.9-2.9c0-0.1,0-0.1,0-0.2c0-0.4-0.2-0.8-0.5-1.1V7h-2v3.9c-0.3,0.3-0.5,0.7-0.5,1.1c0,0.8,0.7,1.5,1.5,1.5h0.1	l2.9,2.9L16.4,15.1z"/><path fill="#ffb74d" d="M33.5,8c1.9,0,3.5,1.6,3.5,3.5S35.4,15,33.5,15c-1.9,0-3.5-1.6-3.5-3.5S31.6,8,33.5,8"/><path fill="#78909c" d="M25.386,27.299l-2.546,7.82l-5.903-0.371c-0.966-0.074-1.857,0.669-1.932,1.634	c-0.074,0.966,0.669,1.857,1.634,1.932c0,0,7.24,0.446,7.315,0.446c0.669,0,1.337-0.446,1.634-1.04L29,32"/><path fill="#ce93d8" d="M44.932,25.486c-0.035-1.006-0.908-1.435-1.795-1.435h-5.135l-1.668-4.953	c-0.323-0.874-0.963-1.471-1.791-1.739c-1.471-0.474-3.066-0.985-4.388-1.334c-0.705-0.13-1.711,0.077-2.568,0.361l-5.411,2.353	c-0.443,0.177-0.798,0.443-0.975,0.887L18.399,25c-0.443,0.798-0.108,1.831,0.598,2.154c0.79,0.359,1.754,0.078,2.286-0.898	l2.411-4.713l3.447-0.952l-1.85,6.983c-0.532,1.862,0.621,3.015,0.976,3.37l8.808,4.975l2.208,7.79	c0.267,0.942,1.248,1.49,2.19,1.223c0.942-0.267,1.49-1.248,1.223-2.19l-2.138-8.391l0.001-0.001	c-0.001-0.005-0.004-0.009-0.005-0.014c-0.226-0.708-0.65-1.206-0.99-1.486l-5.108-3.546l1.915-5.984l1.06,2.792	c0.219,0.561,0.747,0.887,1.368,0.887h6.372C44.106,26.999,44.965,26.429,44.932,25.486z"/><path fill="#78909c" d="M38.557,34.351l0.001-0.001c-0.001-0.005-0.004-0.009-0.005-0.014 c-0.226-0.708-0.65-1.206-0.99-1.486l-5.108-3.546l0.043-0.144l-7.194-1.627l-0.014,0.042c-0.532,1.862,0.621,3.015,0.975,3.37 l8.808,4.975l2.208,7.79c0.267,0.942,1.248,1.49,2.19,1.223c0.942-0.267,1.49-1.248,1.223-2.19L38.557,34.351z"/><path fill="#ffb74d" d="M18.73,24.365L18.399,25c-0.443,0.798-0.108,1.831,0.598,2.154c0.79,0.359,1.754,0.078,2.286-0.898	l0.251-0.49L18.73,24.365z"/><path fill="#ffb74d" d="M43.137,24.051H43v2.948h0.17c0.937,0,1.795-0.57,1.762-1.514	C44.897,24.479,44.024,24.051,43.137,24.051z"/></svg>