<svg xmlns="http://www.w3.org/2000/svg" viewBox="0 0 64 64"><linearGradient id="8EEjvSkxRrH7FYc4hk1uRa" x1="32" x2="32" y1="5.25" y2="59.15" gradientUnits="userSpaceOnUse" spreadMethod="reflect"><stop offset="0" stop-color="#1a6dff"/><stop offset="1" stop-color="#c822ff"/></linearGradient><path fill="url(#8EEjvSkxRrH7FYc4hk1uRa)" d="M51,29.351V25c0-10.477-8.523-19-19-19s-19,8.524-19,19v4.35c-2.5,0.826-4,3.043-4,5.65 c0,3.309,2.691,6,6,6h0.757C16.829,45,19,47.561,22,49.746v5.21c0,1.215,0.689,2.313,1.756,2.795C24.125,57.919,24.513,58,24.895,58 c0.642,0,1.269-0.229,1.771-0.67l2.731-2.317c0.702,0.607,1.605,0.988,2.604,0.988c0.975,0,1.856-0.364,2.551-0.945l2.729,2.274 c0.521,0.441,1.157,0.67,1.804,0.67c0.397,0,0.798-0.086,1.179-0.263C41.334,57.241,42,56.176,42,54.956v-5.209 C45,47.562,47.171,45,48.243,41H49c3.309,0,6-2.691,6-6C55,32.394,53.5,30.177,51,29.351z M49,25v4h-2v2h-1c-0.552,0-1-0.448-1-1v-6 h-3c-1.654,0-3-1.345-3-3v-2V9.526C45,12.2,49,18.123,49,25z M15,25c0-9.374,7.626-17,17-17c1.74,0,3.5,0.265,5,0.753V19 c0,2.757-2.243,5-5,5H19v6c0,0.552-0.448,1-1,1h-1v-2h-2V25z M15,39c-2.206,0-4-1.794-4-4c0-2.206,2-4,4-4v2c-1,0-2,0.897-2,2 c0,1.103,0.897,2,2,2h0.03c0.04,1,0.121,2,0.239,2H15z M25.358,55.816c-0.306,0.268-0.618,0.185-0.777,0.113 C24.3,55.803,24,55.479,24,54.956v-5.911c0-0.523,0.3-0.846,0.581-0.973c0.158-0.073,0.473-0.155,0.784,0.119l2.878,2.485 C28.096,51.093,28,51.534,28,52.001c0,0.479,0.098,0.932,0.253,1.358L25.358,55.816z M32,54.001c-1.103,0-2-0.897-2-2 c0-1.103,0.897-2,2-2c1.103,0,2,0.897,2,2C34,53.103,33.103,54.001,32,54.001z M40,54.956c0,0.516-0.299,0.837-0.577,0.967 c-0.173,0.078-0.512,0.168-0.854-0.124l-2.844-2.369C35.896,52.984,36,52.506,36,52.001c0-0.499-0.103-0.971-0.27-1.412l2.845-2.392 c0.34-0.287,0.679-0.196,0.848-0.118C39.702,48.208,40,48.529,40,49.045V54.956z M41.594,47.497 c-0.301-0.532-0.755-0.967-1.331-1.234c-1-0.463-2.141-0.305-2.979,0.405l-2.721,2.287c-0.696-0.587-1.583-0.955-2.564-0.955 c-1.01,0-1.923,0.389-2.628,1.008l-2.693-2.326c-0.813-0.716-1.935-0.884-2.922-0.434c-0.579,0.261-1.04,0.708-1.348,1.251 C19.016,44.663,17,40.452,17,36.001V33h1c1.654,0,3-1.345,3-3v-4h11c2.264,0,4.275-1.085,5.555-2.758C38.38,24.87,40.053,26,42,26h1 v4c0,1.654,1.346,3,3,3h1v3.001C47,40.451,44.986,44.66,41.594,47.497z M49,39h-0.27c0.119,0,0.199-1,0.239-2H49 c1.103,0,2-0.897,2-2c0-1.103-1-2-2-2v-2c2,0,4,1.794,4,4C53,37.206,51.206,39,49,39z"/><linearGradient id="8EEjvSkxRrH7FYc4hk1uRb" x1="38" x2="38" y1="33.313" y2="38.701" gradientUnits="userSpaceOnUse" spreadMethod="reflect"><stop offset="0" stop-color="#6dc7ff"/><stop offset="1" stop-color="#e6abff"/></linearGradient><path fill="url(#8EEjvSkxRrH7FYc4hk1uRb)" d="M38 33.5A2.5 2.5 0 1 0 38 38.5A2.5 2.5 0 1 0 38 33.5Z"/><linearGradient id="8EEjvSkxRrH7FYc4hk1uRc" x1="26" x2="26" y1="33.313" y2="38.701" gradientUnits="userSpaceOnUse" spreadMethod="reflect"><stop offset="0" stop-color="#6dc7ff"/><stop offset="1" stop-color="#e6abff"/></linearGradient><path fill="url(#8EEjvSkxRrH7FYc4hk1uRc)" d="M26 33.5A2.5 2.5 0 1 0 26 38.5A2.5 2.5 0 1 0 26 33.5Z"/><linearGradient id="8EEjvSkxRrH7FYc4hk1uRd" x1="32" x2="32" y1="39.875" y2="44.188" gradientUnits="userSpaceOnUse" spreadMethod="reflect"><stop offset="0" stop-color="#6dc7ff"/><stop offset="1" stop-color="#e6abff"/></linearGradient><path fill="url(#8EEjvSkxRrH7FYc4hk1uRd)" d="M29,41.001c0,1.657,1.343,3,3,3c1.657,0,3-1.343,3-3V40h-6V41.001z"/><linearGradient id="8EEjvSkxRrH7FYc4hk1uRe" x1="28" x2="28" y1="5.25" y2="59.149" gradientUnits="userSpaceOnUse" spreadMethod="reflect"><stop offset="0" stop-color="#1a6dff"/><stop offset="1" stop-color="#c822ff"/></linearGradient><path fill="url(#8EEjvSkxRrH7FYc4hk1uRe)" d="M32,22H21v-2h11c0.552,0,1-0.448,1-1v-3h2v3C35,20.655,33.654,22,32,22z"/><linearGradient id="8EEjvSkxRrH7FYc4hk1uRf" x1="27" x2="27" y1="5.25" y2="59.15" gradientUnits="userSpaceOnUse" spreadMethod="reflect"><stop offset="0" stop-color="#1a6dff"/><stop offset="1" stop-color="#c822ff"/></linearGradient><path fill="url(#8EEjvSkxRrH7FYc4hk1uRf)" d="M23 16H31V18H23z"/></svg>