<svg xmlns="http://www.w3.org/2000/svg" viewBox="0 0 100 100"><path d="M 47.625 17 C 35.629 17 25.736594 32.854781 23.933594 44.175781 C 23.895594 44.357781 20.122484 62.500109 18.646484 74.912109 C 18.341484 77.476109 19.148375 80.054469 20.859375 81.980469 C 22.563375 83.899469 25.013078 85 27.580078 85 L 33 85 C 33.552 85 34 84.553 34 84 L 34 81 C 34 78.585 35.721 76.564562 38 76.101562 C 38.044 81.017562 41.294156 85 45.285156 85 L 54.714844 85 C 58.704844 85 61.956 81.017562 62 76.101562 C 64.28 76.565562 66 78.585 66 81 L 66 84 C 66 84.553 66.448 85 67 85 L 74.572266 85 C 76.562266 85 78.465062 84.148062 79.789062 82.664062 C 81.120063 81.171063 81.753391 79.171688 81.525391 77.179688 C 80.096391 64.691688 75.387609 43.9715 75.349609 43.8125 C 73.408609 32.8535 63.87575 17 51.71875 17 L 47.625 17 z M 47.625 19 L 51.71875 19 C 62.37775 19 71.518625 33.654984 73.390625 44.208984 C 73.408625 44.286984 74.084141 47.259703 74.994141 51.595703 C 74.933141 55.983703 70.563 62.805094 59 62.996094 C 59 62.294094 58.910812 61.613031 58.757812 60.957031 C 65.409813 59.785031 69 55.744 69 52.5 C 69 47.178 68.035719 29.542531 55.636719 26.019531 C 55.369719 25.942531 55.095531 26.097281 55.019531 26.363281 C 54.943531 26.629281 55.098281 26.904469 55.363281 26.980469 C 67.089281 30.311469 68 47.355 68 52.5 C 68 54.945 65.041656 58.878094 58.472656 59.996094 C 57.231656 56.508094 53.908 54 50 54 C 46.092 54 42.765391 56.508094 41.525391 59.996094 C 34.009391 58.891094 32 54.768 32 52.5 L 31.998047 52.142578 C 31.930047 34.039578 38.826047 28.469375 44.623047 26.984375 C 44.891047 26.916375 45.053375 26.643953 44.984375 26.376953 C 44.915375 26.108953 44.642953 25.949578 44.376953 26.017578 C 38.234953 27.590578 30.928047 33.399484 30.998047 52.146484 L 31 52.5 C 31 55.945 34.172234 59.876891 41.240234 60.962891 C 41.088234 61.617891 41 62.296094 41 62.996094 C 30.693 62.828094 25.288891 57.48975 24.212891 53.09375 C 25.149891 48.14575 25.877437 44.637109 25.898438 44.537109 C 27.558438 34.125109 36.847 19 47.625 19 z M 50 25 C 48.782 25 48.336297 25.090906 47.529297 25.253906 L 46.966797 25.365234 C 46.695797 25.417234 46.516359 25.678219 46.568359 25.949219 C 46.619359 26.220219 46.882344 26.397656 47.152344 26.347656 L 47.728516 26.232422 C 48.496516 26.077422 48.882 26 50 26 C 51.175 26 51.589016 26.095109 52.416016 26.287109 L 52.972656 26.414062 C 53.009656 26.422062 53.044078 26.427734 53.080078 26.427734 C 53.309078 26.427734 53.516359 26.268156 53.568359 26.035156 C 53.628359 25.765156 53.459453 25.4975 53.189453 25.4375 L 52.642578 25.3125 C 51.769578 25.1105 51.29 25 50 25 z M 75.541016 54.228516 C 76.984016 61.259516 78.758062 70.58125 79.539062 77.40625 C 79.702062 78.83425 79.249875 80.265031 78.296875 81.332031 C 77.337875 82.408031 76.014266 83 74.572266 83 L 68 83 L 68 81 C 68 77.366 65.214969 74.370203 61.667969 74.033203 C 61.614969 74.014203 61.56 74 61.5 74 L 52.5 74 C 52.224 74 52 74.224 52 74.5 C 52 74.776 52.224 75 52.5 75 L 60 75 L 60 76 C 60 79.859 57.629844 83 54.714844 83 L 45.285156 83 C 42.371156 83 40 79.859 40 76 L 40 75 L 46.5 75 C 46.776 75 47 74.776 47 74.5 C 47 74.224 46.776 74 46.5 74 L 38.5 74 C 38.44 74 38.385031 74.014203 38.332031 74.033203 C 34.785031 74.370203 32 77.366 32 81 L 32 83 L 27.580078 83 C 25.584078 83 23.680469 82.145344 22.355469 80.652344 C 21.022469 79.152344 20.395813 77.146438 20.632812 75.148438 C 21.377813 68.885437 22.711563 61.145672 23.851562 55.013672 C 25.877563 59.421672 31.611 64 41.5 64 C 41.776 64 42 63.776 42 63.5 L 42 63 C 42 58.589 45.589 55 50 55 C 54.411 55 58 58.589 58 63 L 58 63.5 C 58 63.776 58.224 64 58.5 64 C 69.03 64 74.093016 58.772516 75.541016 54.228516 z M 50 59.25 C 48.79 59.25 47.774172 60.444172 47.451172 62.201172 C 45.695172 62.524172 44.5 63.54 44.5 64.75 C 44.5 65.96 45.695172 66.975828 47.451172 67.298828 C 47.774172 69.055828 48.79 70.25 50 70.25 C 51.21 70.25 52.225828 69.055828 52.548828 67.298828 C 54.304828 66.975828 55.5 65.96 55.5 64.75 C 55.5 63.54 54.304828 62.524172 52.548828 62.201172 C 52.225828 60.444172 51.21 59.25 50 59.25 z M 50 60.25 C 50.75 60.25 51.442281 61.304172 51.613281 62.701172 C 51.640281 62.930172 51.820828 63.108719 52.048828 63.136719 C 53.445828 63.307719 54.501953 64.001 54.501953 64.75 C 54.501953 65.499 53.446828 66.192281 52.048828 66.363281 C 51.820828 66.390281 51.639328 66.569828 51.611328 66.798828 C 51.441328 68.195828 50.75 69.25 50 69.25 C 49.25 69.25 48.557719 68.195828 48.386719 66.798828 C 48.359719 66.569828 48.179172 66.391281 47.951172 66.363281 C 46.554172 66.192281 45.498047 65.499 45.498047 64.75 C 45.498047 64.001 46.553172 63.307719 47.951172 63.136719 C 48.179172 63.109719 48.358719 62.930172 48.386719 62.701172 C 48.556719 61.304172 49.25 60.25 50 60.25 z M 48.5 74 C 48.224 74 48 74.224 48 74.5 C 48 74.776 48.224 75 48.5 75 L 50.5 75 C 50.776 75 51 74.776 51 74.5 C 51 74.224 50.776 74 50.5 74 L 48.5 74 z"/></svg>