<svg xmlns="http://www.w3.org/2000/svg" viewBox="0 0 24 24"><path d="M 5 0 C 3.34375 0 2 1.34375 2 3 C 2 4.65625 3.34375 6 5 6 C 6.65625 6 8 4.65625 8 3 C 8 1.34375 6.65625 0 5 0 Z M 19 0 C 17.34375 0 16 1.34375 16 3 C 16 4.65625 17.34375 6 19 6 C 20.65625 6 22 4.65625 22 3 C 22 1.34375 20.65625 0 19 0 Z M 5 7 C 1.101563 7 0 8.386719 0 9.1875 L 0 18 L 2 18 L 2 24 L 8 24 L 8 18 L 10 18 L 10 15 L 5 15 L 5 11 L 10 11 L 10 9.1875 C 10 8.386719 8.898438 7 5 7 Z M 19 7 C 15.101563 7 14 8.386719 14 9.1875 L 19 13 L 14 17 L 14 18 L 16 18 L 16 24 L 22 24 L 22 18 L 24 18 L 24 9.1875 C 24 8.386719 22.898438 7 19 7 Z M 11 9 L 11 12 L 6 12 L 6 14 L 11 14 L 11 17 L 16.59375 13 Z"/></svg>