<svg xmlns="http://www.w3.org/2000/svg" viewBox="0 0 16 16"><path d="M 5.5 1 A 0.50005 0.50005 0 0 0 5 1.5 L 5 4.4199219 A 0.50005 0.50005 0 0 0 5 4.5820312 L 5 7.4199219 A 0.50005 0.50005 0 0 0 5 7.5820312 L 5 10.419922 A 0.50005 0.50005 0 0 0 5.0371094 10.705078 A 0.50030889 0.50030889 0 0 0 5.6289062 11 L 6 11 L 6 13.5 A 0.50005 0.50005 0 0 0 6.5 14 L 9.5 14 A 0.50005 0.50005 0 0 0 10 13.5 L 10 11 L 10.419922 11 A 0.50005 0.50005 0 0 0 10.824219 10.886719 A 0.50005 0.50005 0 0 0 10.828125 10.884766 A 0.50005 0.50005 0 0 0 10.861328 10.853516 A 0.50005 0.50005 0 0 0 10.863281 10.849609 A 0.50005 0.50005 0 0 0 10.894531 10.816406 A 0.50005 0.50005 0 0 0 11 10.417969 L 11 7.5800781 A 0.50005 0.50005 0 0 0 11 7.4179688 L 11 4.5800781 A 0.50005 0.50005 0 0 0 11 4.4179688 L 11 1.5 A 0.50005 0.50005 0 0 0 10.5 1 L 5.5 1 z M 2.4941406 1.9941406 A 0.50005 0.50005 0 0 0 2.1464844 2.8535156 L 3.1464844 3.8535156 A 0.50005 0.50005 0 1 0 3.8535156 3.1464844 L 2.8535156 2.1464844 A 0.50005 0.50005 0 0 0 2.4941406 1.9941406 z M 13.490234 1.9960938 A 0.50005 0.50005 0 0 0 13.146484 2.1464844 L 12.146484 3.1464844 A 0.50005 0.50005 0 1 0 12.853516 3.8535156 L 13.853516 2.8535156 A 0.50005 0.50005 0 0 0 13.490234 1.9960938 z M 6 2 L 10 2 L 10 4 L 6 4 L 6 2 z M 6 5 L 10 5 L 10 7 L 6 7 L 6 5 z M 1.5 6 A 0.50005 0.50005 0 1 0 1.5 7 L 3.5 7 A 0.50005 0.50005 0 1 0 3.5 6 L 1.5 6 z M 12.5 6 A 0.50005 0.50005 0 1 0 12.5 7 L 14.5 7 A 0.50005 0.50005 0 1 0 14.5 6 L 12.5 6 z M 6 8 L 10 8 L 10 10 L 9.5800781 10 A 0.50005 0.50005 0 0 0 9.4179688 10 L 6.5917969 10 A 0.50005 0.50005 0 0 0 6.4921875 9.9921875 A 0.50005 0.50005 0 0 0 6.4179688 10 L 6 10 L 6 8 z M 12.494141 8.9941406 A 0.50005 0.50005 0 0 0 12.146484 9.8535156 L 13.146484 10.853516 A 0.50005 0.50005 0 1 0 13.853516 10.146484 L 12.853516 9.1464844 A 0.50005 0.50005 0 0 0 12.494141 8.9941406 z M 3.4902344 8.9960938 A 0.50005 0.50005 0 0 0 3.1464844 9.1464844 L 2.1464844 10.146484 A 0.50005 0.50005 0 1 0 2.8535156 10.853516 L 3.8535156 9.8535156 A 0.50005 0.50005 0 0 0 3.4902344 8.9960938 z M 7 11 L 9 11 L 9 13 L 7 13 L 7 11 z"/></svg>