<svg xmlns="http://www.w3.org/2000/svg" xmlns:xlink="http://www.w3.org/1999/xlink" width="512" height="512" viewBox="0 0 512 512"><path fill="#65A844" d="M504.1,256c0,137-111.1,248.1-248.1,248.1S7.9,393,7.9,256C7.9,119,119,7.9,256,7.9S504.1,119,504.1,256"/><defs><path id="L2jAGHWXk7gKIPXvxL41ya" d="M196.5 255.5H315.8V330H196.5z"/></defs><clipPath id="L2jAGHWXk7gKIPXvxL41yb"><use overflow="visible" xlink:href="#L2jAGHWXk7gKIPXvxL41ya"/></clipPath><path fill="#F1F1F2" d="M256.1,330c28.2,0,52.1-14.3,59.7-33.9c-7.6-26.2-31.4-40.6-59.7-40.6c-28.3,0-52.1,14.3-59.7,40.6C204.1,315.7,227.9,330,256.1,330" clip-path="url(#L2jAGHWXk7gKIPXvxL41yb)"/><path fill="#F1F1F2" d="M256.1,330c28.2,0,52.1-14.3,59.7-33.9c-7.6-26.2-31.4-40.6-59.7-40.6c-28.3,0-52.1,14.3-59.7,40.6C204.1,315.7,227.9,330,256.1,330"/><path fill="#F1F1F2" d="M196.5 296.1c-1.7 5.7-2.6 11.9-2.6 18.7 0 26.1 16.2 47.3 62.2 47.3V330C227.9 330 204.1 315.7 196.5 296.1M315.7 296.1c1.7 5.7 2.6 11.9 2.6 18.7 0 26.1-15.8 48.7-62.2 47.3V330C284.2 330 308.1 315.7 315.7 296.1"/><path fill="#F1F1F2" d="M218.4 342.9H244.3V378.59999999999997H218.4zM268 342.9H293.9V378.59999999999997H268z"/><path fill="#3C3D3C" d="M231.1 383.3c1.1 0 2 .9 2 2v5h20.9c0-12.5-10.1-22.6-22.6-22.6-12.5 0-22.6 10.1-22.6 22.6h20.3v-5C229.1 384.2 230 383.3 231.1 383.3M280.7 383.3c1.1 0 2 .9 2 2v5h20.9c0-12.5-10.1-22.6-22.6-22.6-12.5 0-22.6 10.1-22.6 22.6h20.3v-5C278.7 384.2 279.6 383.3 280.7 383.3M136 339.3c3.7-1.7 14.6-6.5 27.8.2 5.8 2.9 9.1 5.5 11.6 7.4 2.4 2 7 6.8 8.8 10.5-3.7 1.7-4.4 2.4-9.1 3.9-3 .9-7.4 1.4-10.2.4-2.8-1-5.8-2.1-9.4-5.3C152.9 354.4 143.5 341.1 136 339.3"/><path fill="#F1F1F2" d="M181.5 360.1c-1.7 0-3.5-.1-5.3-.4-3.6-.6-6.1-4-5.5-7.6.6-3.6 4-6.1 7.6-5.5 21.4 3.4 29.7-32.9 29.8-33.3.8-3.6 4.3-5.8 7.9-5 3.6.8 5.8 4.3 5 7.9C220.6 318.1 210.9 360.1 181.5 360.1M238.2 144.2c12.4 12.4 17.7 27.1 12 32.8-5.7 5.8-20.4.4-32.8-12-12.4-12.4-15.1-35.9-15.1-35.9S225.9 131.9 238.2 144.2"/><path fill="#ECA9CB" d="M235.3,146.4c9.3,9.3,13.4,20.4,9,24.8c-4.3,4.3-15.4,0.3-24.8-9.1c-9.4-9.3-11.4-27.2-11.4-27.2S226,137,235.3,146.4"/><path fill="#F1F1F2" d="M274.1,143.9c-12.4,12.4-17.7,27.1-12,32.8c5.7,5.8,20.4,0.4,32.8-12c12.4-12.4,15.1-35.9,15.1-35.9S286.4,131.6,274.1,143.9"/><path fill="#ECA9CB" d="M277,146.1c-9.3,9.3-13.4,20.4-9,24.8c4.3,4.3,15.4,0.3,24.8-9.1c9.3-9.3,11.4-27.2,11.4-27.2S286.3,136.8,277,146.1"/><path fill="#F6EE81" d="M258.3,108.4c3.1,4.8,4.7,9.2,6.2,13c0.7,2,1.4,3.1,2.2,5c0.8,2,1.6,4.3,2,6.8c1,5,0.8,10.6-1,15.5c-1.8,5-4.9,9.4-9.9,12.3c-1.8-5.4-2.7-9.7-3.7-13.6c-0.9-3.9-1.7-7.3-2.4-11c-0.4-1.9-0.7-3.8-0.9-6.2c-0.3-2.5-0.4-5.7,0.2-8.2C252,116.9,254.2,112.4,258.3,108.4"/><path fill="#FFF" d="M301.8,244.9c-5.1-14-29.4-13.3-29.4-13.3l-16.2-58.2l-16.2,58.2c0,0-24.3-0.7-29.4,13.3c-5.2,14-26.6,50.8,45.7,55.2C328.4,295.7,307,258.9,301.8,244.9"/><path fill="#F1F1F2" d="M210.5,244.9c5.2-14,29.4-13.3,29.4-13.3l16.2-58.2l16.2,58.2c0,0,24.3-0.7,29.4,13.3c0.5,1.4,1.2,3.1,2,4.9c0.4-4.7,0.6-9.6,0.6-14.5c0-50.4-21.6-91.3-48.2-91.3c-26.6,0-48.2,40.9-48.2,91.3c0,4.9,0.2,9.8,0.6,14.5C209.3,248,210,246.3,210.5,244.9"/><path fill="#251D19" d="M240.9 190.7c0 3.8-3.1 6.9-6.9 6.9-3.8 0-6.9-3.1-6.9-6.9 0-3.8 3.1-6.9 6.9-6.9C237.8 183.8 240.9 186.9 240.9 190.7M285.1 190.7c0 3.8-3.1 6.9-6.9 6.9-3.8 0-6.9-3.1-6.9-6.9 0-3.8 3.1-6.9 6.9-6.9C282 183.8 285.1 186.9 285.1 190.7M225.7 268.2c2.3 8.5.4 16.4-4.2 17.6-4.6 1.2-10.2-4.7-12.4-13.2-2.3-8.5-.4-16.4 4.2-17.6C217.9 253.8 223.5 259.7 225.7 268.2"/><path fill="#FFF" d="M266.2,150.2c0,5.7-4.6,10.3-10.3,10.3c-5.7,0-10.3-4.6-10.3-10.3c0-5.7,10.3-86.1,10.3-86.1S266.2,144.5,266.2,150.2"/><path fill="#251D19" d="M286.8,268.2c-2.3,8.5-0.4,16.4,4.2,17.6c4.6,1.2,10.1-4.7,12.4-13.2c2.3-8.5,0.4-16.4-4.2-17.6C294.7,253.8,289.1,259.7,286.8,268.2"/><path fill="#F6EE81" d="M241.5,111c4.4,3.6,7.4,7.2,10,10.3c1.3,1.6,2.3,2.5,3.6,4c1.4,1.6,2.9,3.6,4.1,5.8c2.5,4.4,4.1,9.8,4,15c-0.1,5.3-1.7,10.5-5.5,14.8c-3.4-4.6-5.7-8.3-7.8-11.7c-2.1-3.4-4-6.3-5.9-9.6c-0.9-1.7-1.9-3.4-2.9-5.6c-1.1-2.2-2.2-5.3-2.4-7.8C238.2,121.1,238.9,116.1,241.5,111"/></svg>