<svg xmlns="http://www.w3.org/2000/svg" viewBox="0 0 100 100"><path fill="#c7ede6" d="M88.683,56.007c0.3-0.616,0.566-1.264,0.796-1.943c2.633-7.77-1.349-17.078-9.733-19.325c-0.906-11.384-8.906-19.193-17.941-20.526C51.464,12.689,41.991,19.259,38.839,29.7c-3.799-1.346-7.501-1.182-10.99,0.857c-1.583,0.732-3.031,1.812-4.33,3.233c-1.907,2.086-3.147,4.719-3.652,7.495c-0.748,0.118-1.483,0.236-2.176,0.484c-4.04,1.449-6.589,4.431-7.288,8.923c-0.435,2.797,0.443,5.587,0.933,6.714c1.935,4.455,6.422,6.98,10.981,6.312c0.227-0.033,0.557,0.069,0.752,0.233c0.241,7.12,3.698,13.417,8.884,17.014c8.321,5.772,19.027,3.994,25.781-3.921c2.894,2.96,6.338,4.398,10.384,3.876c4.023-0.519,7.147-2.739,9.426-6.349c1.053,0.283,2.051,0.691,3.083,0.804c4.042,0.442,7.324-1.165,9.732-4.8c0.922-1.391,1.793-3.194,1.793-6.354C92.153,60.964,90.86,57.997,88.683,56.007z"/><path fill="#fff" d="M18.348 48.043H8.318c-.276 0-.5-.224-.5-.5s.224-.5.5-.5h10.03c.276 0 .5.224.5.5S18.624 48.043 18.348 48.043zM21.229 48.043h-1.446c-.276 0-.5-.224-.5-.5s.224-.5.5-.5h1.446c.276 0 .5.224.5.5S21.506 48.043 21.229 48.043zM25.283 48.043h-2.546c-.276 0-.5-.224-.5-.5s.224-.5.5-.5h2.546c.276 0 .5.224.5.5S25.56 48.043 25.283 48.043zM25.283 49.908h-9.616c-.276 0-.5-.224-.5-.5s.224-.5.5-.5h9.616c.276 0 .5.224.5.5S25.56 49.908 25.283 49.908zM13.936 49.908h-.58c-.276 0-.5-.224-.5-.5s.224-.5.5-.5h.58c.276 0 .5.224.5.5S14.212 49.908 13.936 49.908zM11.559 49.908h-1.456c-.276 0-.5-.224-.5-.5s.224-.5.5-.5h1.456c.276 0 .5.224.5.5S11.835 49.908 11.559 49.908zM20.695 46.179h-5.027c-.276 0-.5-.224-.5-.5s.224-.5.5-.5h5.027c.276 0 .5.224.5.5S20.971 46.179 20.695 46.179zM20.695 44.313h-1.257c-.276 0-.5-.224-.5-.5s.224-.5.5-.5h1.257c.276 0 .5.224.5.5S20.971 44.313 20.695 44.313zM17.426 51.773h-1.759c-.276 0-.5-.224-.5-.5s.224-.5.5-.5h1.759c.276 0 .5.224.5.5S17.702 51.773 17.426 51.773z"/><path fill="#c0e5e4" d="M36.081,68.916c0,0,11.233,0,11.301,0c2.594,0,4.697-2.103,4.697-4.697c0-2.263-1.601-4.152-3.732-4.597c0.025-0.198,0.041-0.399,0.041-0.603c0-2.687-2.178-4.865-4.865-4.865c-1.586,0-2.991,0.763-3.879,1.938c-0.227-2.991-2.898-5.298-6.024-4.916c-2.285,0.28-4.176,2.046-4.596,4.31c-0.135,0.726-0.121,1.431,0.014,2.092c-0.613-0.66-1.485-1.075-2.456-1.075c-1.778,0-3.229,1.384-3.344,3.133c-0.807-0.179-1.685-0.167-2.61,0.18c-1.768,0.664-3.027,2.328-3.1,4.215c-0.105,2.68,2.037,4.885,4.693,4.885c0.202,0,0.911,0,1.074,0h9.753"/><path fill="#472b29" d="M47.382,69.416H36.081c-0.276,0-0.5-0.224-0.5-0.5s0.224-0.5,0.5-0.5h11.301c2.314,0,4.197-1.883,4.197-4.197c0-1.977-1.402-3.704-3.333-4.108c-0.255-0.053-0.426-0.292-0.394-0.55c0.022-0.178,0.037-0.358,0.037-0.542c0-2.407-1.958-4.365-4.364-4.365c-1.376,0-2.645,0.634-3.48,1.739c-0.125,0.166-0.338,0.239-0.54,0.178c-0.199-0.059-0.342-0.234-0.357-0.441c-0.1-1.318-0.746-2.556-1.771-3.396c-1.036-0.849-2.346-1.226-3.694-1.061c-2.072,0.254-3.785,1.86-4.166,3.905c-0.119,0.638-0.115,1.278,0.012,1.901c0.044,0.22-0.062,0.442-0.262,0.544c-0.199,0.102-0.443,0.06-0.595-0.104c-0.548-0.59-1.291-0.916-2.09-0.916c-1.497,0-2.747,1.171-2.845,2.666c-0.01,0.146-0.083,0.28-0.199,0.367c-0.117,0.087-0.268,0.119-0.408,0.088c-0.803-0.178-1.564-0.125-2.326,0.16c-1.596,0.599-2.712,2.112-2.777,3.766c-0.045,1.154,0.37,2.247,1.168,3.078c0.799,0.831,1.874,1.288,3.025,1.288h10.828c0.276,0,0.5,0.224,0.5,0.5s-0.224,0.5-0.5,0.5H22.221c-1.427,0-2.757-0.566-3.746-1.595c-0.989-1.028-1.502-2.381-1.446-3.81c0.08-2.051,1.456-3.925,3.424-4.664c0.766-0.288,1.558-0.386,2.362-0.29c0.371-1.751,1.932-3.055,3.768-3.055c0.649,0,1.286,0.167,1.849,0.476c0.001-0.36,0.036-0.723,0.103-1.084c0.459-2.47,2.527-4.409,5.028-4.715c1.617-0.201,3.2,0.256,4.449,1.28c0.959,0.786,1.643,1.861,1.957,3.047c0.973-0.87,2.224-1.353,3.558-1.353c2.958,0,5.364,2.407,5.364,5.365c0,0.075-0.002,0.15-0.006,0.225c2.167,0.653,3.696,2.679,3.696,4.976C52.579,67.085,50.248,69.416,47.382,69.416z"/><path fill="#472b29" d="M23.055 65.21c-.006 0-.012 0-.017 0-.138-.009-.242-.128-.233-.266.103-1.53 1.529-2.691 3.188-2.578.128.009.256.025.385.049.268-.93 1.221-1.57 2.281-1.505.404.027.783.151 1.108.36 0-.012.001-.024.002-.037.116-1.729 1.727-3.043 3.606-2.913.138.009.242.128.233.266-.009.138-.127.251-.266.233-1.588-.103-2.976.993-3.074 2.447-.012.177-.004.354.022.528.017.109-.041.217-.141.264-.098.047-.22.023-.293-.061-.309-.348-.746-.558-1.23-.589-.884-.062-1.695.53-1.809 1.341-.01.071-.05.134-.11.174s-.134.052-.203.033c-.181-.049-.364-.08-.543-.092-1.387-.096-2.572.857-2.656 2.112C23.295 65.109 23.185 65.21 23.055 65.21zM44.874 62.19c-.019 0-.037-.002-.056-.006-.134-.031-.218-.165-.188-.3.048-.208.119-.411.212-.603.755-1.564 2.795-2.163 4.548-1.335.125.059.179.208.12.333-.058.125-.208.178-.333.12-1.506-.709-3.25-.216-3.885 1.1-.077.159-.135.326-.175.498C45.091 62.112 44.988 62.19 44.874 62.19z"/><path fill="#fdfcee" d="M38.035,69.289h26.311c2.01,0,3.654-1.644,3.654-3.654V50.941c0-2.01-1.644-3.654-3.654-3.654H38.035c-2.01,0-3.654,1.644-3.654,3.654v14.694C34.381,67.645,36.025,69.289,38.035,69.289z"/><path fill="#472b29" d="M64.346,69.89H38.035c-2.346,0-4.254-1.909-4.254-4.254V50.941c0-2.346,1.909-4.254,4.254-4.254h26.311c2.346,0,4.254,1.909,4.254,4.254v14.694C68.6,67.981,66.692,69.89,64.346,69.89z M38.035,47.887c-1.684,0-3.054,1.37-3.054,3.054v14.694c0,1.684,1.37,3.054,3.054,3.054h26.311c1.684,0,3.054-1.37,3.054-3.054V50.941c0-1.684-1.37-3.054-3.054-3.054H38.035z"/><path fill="#472b29" d="M55.906 57.407c-.11 0-.218-.051-.286-.147-.112-.158-.075-.376.083-.488l11.515-8.164c.157-.112.376-.074.488.083.112.158.075.376-.083.488l-11.515 8.164C56.047 57.386 55.976 57.407 55.906 57.407zM47.403 57.373c-.068 0-.136-.02-.197-.061l-11.913-8.13c-.16-.109-.201-.327-.092-.486.109-.16.325-.201.486-.092l11.913 8.13c.16.109.201.327.092.486C47.625 57.319 47.515 57.373 47.403 57.373zM34.711 67.553c-.115 0-.227-.056-.294-.16-.105-.162-.059-.379.103-.484L51.005 56.21c.491-.319 1.141-.307 1.619.028l15.212 10.678c.158.111.196.33.085.488-.111.159-.33.197-.488.085L52.221 56.811c-.241-.17-.586-.175-.835-.014L34.901 67.496C34.842 67.535 34.776 67.553 34.711 67.553z"/><path fill="#fdfcee" d="M39.685,50.509v-6.102c3.079-2.727,4.838-4.285,7.918-7.013h7.357h3.56h1.108h0.496c1.878,0,3.415,1.361,3.415,3.025v7.803"/><path fill="#472b29" d="M39.685 50.859c-.193 0-.35-.157-.35-.35v-6.103c0-.1.043-.196.118-.262l7.917-7.013c.064-.057.146-.088.232-.088h12.521c2.076 0 3.765 1.514 3.765 3.375v7.803c0 .193-.157.35-.35.35-.193 0-.35-.157-.35-.35v-7.803c0-1.475-1.375-2.674-3.064-2.674H47.736l-7.7 6.82v5.945C40.035 50.703 39.879 50.859 39.685 50.859zM60.14 51.902h-9.528c-.193 0-.35-.157-.35-.35s.157-.35.35-.35h9.528c.193 0 .35.157.35.35S60.334 51.902 60.14 51.902z"/><path fill="#472b29" d="M60.14,49.477h-9.528c-0.193,0-0.35-0.157-0.35-0.35s0.157-0.35,0.35-0.35h9.528c0.193,0,0.35,0.157,0.35,0.35S60.334,49.477,60.14,49.477z"/><path fill="#cdcbbd" d="M48.505 51.379L48.505 46.703 43.067 46.703 43.067 52.245 47.315 52.245"/><path fill="#472b29" d="M47.315 52.595h-4.248c-.193 0-.35-.157-.35-.35v-5.542c0-.193.157-.35.35-.35h5.438c.193 0 .35.157.35.35v4.676c0 .193-.157.35-.35.35s-.35-.157-.35-.35v-4.326h-4.737v4.841h3.898c.193 0 .35.157.35.35S47.509 52.595 47.315 52.595zM60.14 47.053h-9.528c-.193 0-.35-.157-.35-.35s.157-.35.35-.35h9.528c.193 0 .35.157.35.35S60.334 47.053 60.14 47.053z"/><g><path fill="#cdcbbd" d="M47.82,37.515v3.91c0,1.688-1.594,3.069-3.542,3.069h-4.513"/><path fill="#472b29" d="M44.279,44.844h-4.513c-0.193,0-0.35-0.157-0.35-0.35s0.157-0.35,0.35-0.35h4.513c1.76,0,3.191-1.22,3.191-2.719v-3.911c0-0.193,0.157-0.35,0.35-0.35s0.35,0.157,0.35,0.35v3.911C48.17,43.31,46.425,44.844,44.279,44.844z"/></g><g><path fill="#f7f1d7" d="M62.432,44.873c-0.002,2.368,1.46,4.609,3.974,6.089l0,0c0,1.279-0.373,2.696-0.839,3.598c-0.165,0.32,0.093,0.693,0.451,0.653c2.32-0.255,4.518-1.4,5.686-2.546h1.325c5.853,0,10.598-3.49,10.598-7.795s-4.745-7.795-10.598-7.795S62.432,40.568,62.432,44.873"/><path fill="#472b29" d="M65.969,55.716c-0.312,0-0.606-0.153-0.786-0.414c-0.198-0.289-0.221-0.661-0.061-0.972c0.362-0.7,0.727-1.898,0.777-3.09c-2.528-1.579-3.97-3.886-3.968-6.368c0-4.573,4.979-8.294,11.098-8.294s11.098,3.721,11.098,8.294s-4.979,8.295-11.098,8.295h-1.125c-1.201,1.099-3.413,2.277-5.831,2.543C66.038,55.714,66.004,55.716,65.969,55.716z M73.03,37.578c-5.568,0-10.098,3.272-10.098,7.294v0c-0.002,2.2,1.357,4.262,3.728,5.659c0.152,0.09,0.246,0.253,0.246,0.431c0,1.274-0.351,2.776-0.895,3.827c2.238-0.324,4.307-1.462,5.343-2.479c0.093-0.092,0.219-0.143,0.35-0.143h1.325c5.568,0,10.098-3.272,10.098-7.295C83.127,40.85,78.597,37.578,73.03,37.578z M62.432,44.872h0.01H62.432z"/><path fill="#472b29" d="M77.941 42.105h-2.918c-.166 0-.3-.134-.3-.3s.134-.3.3-.3h2.918c.166 0 .3.134.3.3S78.107 42.105 77.941 42.105zM73.726 42.105h-6.16c-.166 0-.3-.134-.3-.3s.134-.3.3-.3h6.16c.166 0 .3.134.3.3S73.891 42.105 73.726 42.105zM79.238 44.051h-8.106c-.166 0-.3-.134-.3-.3s.134-.3.3-.3h8.106c.166 0 .3.134.3.3S79.404 44.051 79.238 44.051zM69.835 44.051h-3.891c-.166 0-.3-.134-.3-.3s.134-.3.3-.3h3.891c.166 0 .3.134.3.3S70.001 44.051 69.835 44.051zM75.996 45.996H65.945c-.166 0-.3-.134-.3-.3s.134-.3.3-.3h10.051c.166 0 .3.134.3.3S76.161 45.996 75.996 45.996zM73.354 48.265h-5.788c-.166 0-.3-.134-.3-.3s.134-.3.3-.3h5.788c.166 0 .3.134.3.3S73.519 48.265 73.354 48.265z"/><g><path fill="#ee3e54" d="M78.982 46.358A4.042 4.042 0 1 0 78.982 54.442A4.042 4.042 0 1 0 78.982 46.358Z"/><path fill="#472b29" d="M78.982,54.942c-2.505,0-4.542-2.038-4.542-4.542c0-2.504,2.038-4.542,4.542-4.542s4.542,2.038,4.542,4.542C83.524,52.904,81.487,54.942,78.982,54.942z M78.982,46.857c-1.953,0-3.542,1.589-3.542,3.542s1.589,3.542,3.542,3.542s3.542-1.589,3.542-3.542S80.935,46.857,78.982,46.857z"/></g><g><path fill="#f1bc19" d="M78.847 47.838L80.397 50.914 79.319 50.914 79.319 52.961 77.566 50.029 78.847 50.029z"/><path fill="#472b29" d="M79.319,53.111c-0.052,0-0.101-0.027-0.129-0.073l-1.753-2.933c-0.027-0.046-0.028-0.104-0.001-0.151c0.026-0.047,0.076-0.076,0.13-0.076h1.131v-2.041c0-0.069,0.048-0.13,0.115-0.146c0.07-0.018,0.137,0.017,0.168,0.079l1.55,3.076c0.023,0.046,0.021,0.102-0.006,0.146s-0.076,0.071-0.128,0.071h-0.929v1.898c0,0.067-0.045,0.126-0.11,0.145C79.345,53.11,79.332,53.111,79.319,53.111z M77.83,50.179l1.338,2.239v-1.504c0-0.083,0.067-0.15,0.15-0.15h0.835l-1.157-2.295v1.56c0,0.083-0.067,0.15-0.15,0.15H77.83z"/></g></g><g><path fill="#fdfcef" d="M72.459,72.063c1.883,0,3.517,0,3.54,0c2.11,0,3.821-1.674,3.821-3.739c0-1.802-1.302-3.305-3.035-3.66c0.02-0.158,0.034-0.317,0.034-0.48c0-2.139-1.772-3.873-3.957-3.873c-1.29,0-2.433,0.607-3.155,1.543c-0.185-2.381-2.358-4.218-4.9-3.913c-1.859,0.223-3.397,1.629-3.739,3.431c-0.11,0.578-0.098,1.139,0.011,1.665c-0.498-0.525-1.208-0.856-1.998-0.856c-1.446,0-2.627,1.102-2.72,2.494c-0.657-0.142-1.371-0.133-2.123,0.143c-1.438,0.528-2.462,1.853-2.522,3.356c-0.085,2.133,1.657,3.889,3.818,3.889c0.164,0,0.741,0,0.874,0h7.934 M65.982,72.063h0.36"/><path fill="#472b29" d="M75.999,72.563h-3.54c-0.276,0-0.5-0.224-0.5-0.5s0.224-0.5,0.5-0.5h3.54c1.831,0,3.321-1.453,3.321-3.239c0-1.524-1.108-2.857-2.636-3.17c-0.256-0.052-0.429-0.293-0.396-0.553c0.018-0.137,0.03-0.276,0.03-0.417c0-1.86-1.551-3.373-3.457-3.373c-1.092,0-2.098,0.491-2.759,1.348c-0.127,0.164-0.341,0.232-0.539,0.173s-0.339-0.234-0.355-0.44c-0.079-1.019-0.565-1.943-1.369-2.603c-0.828-0.68-1.885-0.983-2.973-0.853c-1.646,0.197-3.006,1.442-3.307,3.028c-0.094,0.495-0.09,0.99,0.01,1.471c0.045,0.219-0.06,0.441-0.258,0.544c-0.197,0.104-0.44,0.063-0.595-0.099c-0.428-0.452-1.009-0.7-1.635-0.7c-1.169,0-2.145,0.891-2.221,2.027c-0.01,0.145-0.082,0.279-0.198,0.366c-0.116,0.087-0.264,0.12-0.407,0.089c-0.638-0.139-1.242-0.097-1.845,0.124c-1.262,0.464-2.144,1.631-2.195,2.906c-0.035,0.875,0.283,1.708,0.895,2.344c0.635,0.661,1.496,1.025,2.423,1.025h8.808c0.276,0,0.5,0.224,0.5,0.5s-0.224,0.5-0.5,0.5h-8.808c-1.185,0-2.331-0.485-3.145-1.332c-0.802-0.835-1.218-1.928-1.172-3.077c0.067-1.674,1.212-3.203,2.849-3.805c0.611-0.225,1.242-0.306,1.88-0.245c0.344-1.395,1.629-2.424,3.135-2.424c0.493,0,0.976,0.113,1.414,0.323c0.009-0.241,0.036-0.483,0.082-0.725c0.381-2.01,2.097-3.586,4.17-3.835c1.36-0.16,2.685,0.218,3.727,1.073c0.748,0.613,1.278,1.409,1.546,2.301c0.791-0.648,1.785-1.006,2.842-1.006c2.458,0,4.457,1.961,4.457,4.373c0,0.034,0,0.068-0.001,0.103c1.764,0.555,3.003,2.188,3.003,4.038C80.32,70.661,78.382,72.563,75.999,72.563z M66.341,72.563h-0.359c-0.276,0-0.5-0.224-0.5-0.5s0.224-0.5,0.5-0.5h0.359c0.276,0,0.5,0.224,0.5,0.5S66.617,72.563,66.341,72.563z"/><path fill="#472b29" d="M74.292,66.76c-0.018,0-0.036-0.002-0.055-0.006c-0.135-0.03-0.219-0.164-0.189-0.299c0.037-0.166,0.094-0.327,0.169-0.479c0.604-1.223,2.274-1.674,3.722-1.007c0.125,0.058,0.18,0.207,0.122,0.332c-0.058,0.125-0.206,0.179-0.332,0.122c-1.202-0.555-2.578-0.208-3.063,0.774c-0.058,0.116-0.101,0.24-0.129,0.367C74.51,66.681,74.407,66.76,74.292,66.76z"/><g><path fill="#472b29" d="M69.133,72.563h-1.107c-0.276,0-0.5-0.224-0.5-0.5s0.224-0.5,0.5-0.5h1.107c0.276,0,0.5,0.224,0.5,0.5S69.409,72.563,69.133,72.563z"/></g></g><g><path fill="#fff" d="M74.374 25.723h-10.03c-.276 0-.5-.224-.5-.5s.224-.5.5-.5h10.03c.276 0 .5.224.5.5S74.65 25.723 74.374 25.723zM77.255 25.723h-1.446c-.276 0-.5-.224-.5-.5s.224-.5.5-.5h1.446c.276 0 .5.224.5.5S77.532 25.723 77.255 25.723zM81.309 25.723h-2.546c-.276 0-.5-.224-.5-.5s.224-.5.5-.5h2.546c.276 0 .5.224.5.5S81.586 25.723 81.309 25.723zM81.309 27.587h-9.616c-.276 0-.5-.224-.5-.5s.224-.5.5-.5h9.616c.276 0 .5.224.5.5S81.586 27.587 81.309 27.587zM69.962 27.587h-.58c-.276 0-.5-.224-.5-.5s.224-.5.5-.5h.58c.276 0 .5.224.5.5S70.238 27.587 69.962 27.587zM67.585 27.587h-1.456c-.276 0-.5-.224-.5-.5s.224-.5.5-.5h1.456c.276 0 .5.224.5.5S67.861 27.587 67.585 27.587zM76.72 23.858h-5.027c-.276 0-.5-.224-.5-.5s.224-.5.5-.5h5.027c.276 0 .5.224.5.5S76.997 23.858 76.72 23.858zM76.72 21.993h-1.257c-.276 0-.5-.224-.5-.5s.224-.5.5-.5h1.257c.276 0 .5.224.5.5S76.997 21.993 76.72 21.993zM73.452 29.453h-1.759c-.276 0-.5-.224-.5-.5s.224-.5.5-.5h1.759c.276 0 .5.224.5.5S73.728 29.453 73.452 29.453z"/></g></svg>