<?xml version="1.0"?><svg xmlns="http://www.w3.org/2000/svg" width="30" height="30" viewBox="0 0 30 30">    <path d="M 4 3 C 4 8.057 9 9.3627969 9 16.591797 C 9 17.761797 9.719 18.998047 11.5 18.998047 C 14 18.997047 13.365 17 20 17 C 21.644 17 22.366344 15.761578 22.527344 15.267578 C 23.251344 14.999578 24 14.575281 24 13.613281 C 24 13.196281 23.579266 13 23.322266 13 C 22.986266 13 22.344 13.145938 22 13.335938 C 21.493 13.484937 20.204297 13.589844 18.779297 13.589844 C 17.896297 13.589844 17.117031 13.081875 16.207031 12.671875 C 14.831031 12.051875 13.766672 12.115547 13.013672 10.185547 C 12.418672 8.3705469 12.001953 5.146 12.001953 3 L 4 3 z M 14.992188 19.988281 A 1.0001 1.0001 0 0 0 14.115234 21.466797 L 16.916016 26.773438 L 15.146484 27.707031 L 19.708984 29.923828 L 20.453125 24.90625 L 18.685547 25.839844 L 15.884766 20.533203 A 1.0001 1.0001 0 0 0 14.992188 19.988281 z M 3 20 A 1 1 0 0 0 2 21 A 1 1 0 0 0 3 22 A 1 1 0 0 0 4 21 A 1 1 0 0 0 3 20 z M 7 20 A 1 1 0 0 0 6 21 A 1 1 0 0 0 7 22 A 1 1 0 0 0 8 21 A 1 1 0 0 0 7 20 z M 11 20 A 1 1 0 0 0 10 21 A 1 1 0 0 0 11 22 A 1 1 0 0 0 12 21 A 1 1 0 0 0 11 20 z M 19 20 A 1 1 0 0 0 18 21 A 1 1 0 0 0 19 22 A 1 1 0 0 0 20 21 A 1 1 0 0 0 19 20 z M 23 20 A 1 1 0 0 0 22 21 A 1 1 0 0 0 23 22 A 1 1 0 0 0 24 21 A 1 1 0 0 0 23 20 z M 27 20 A 1 1 0 0 0 26 21 A 1 1 0 0 0 27 22 A 1 1 0 0 0 28 21 A 1 1 0 0 0 27 20 z"/></svg>