<svg xmlns="http://www.w3.org/2000/svg" viewBox="0 0 64 64"><radialGradient id="1A1B4zjQBENTrqhap8M2Na" cx="32" cy="1462" r="30.537" gradientTransform="translate(0 -1430)" gradientUnits="userSpaceOnUse"><stop offset="0" stop-color="#f4e9c3"/><stop offset=".219" stop-color="#f8eecd"/><stop offset=".644" stop-color="#fdf4dc"/><stop offset="1" stop-color="#fff6e1"/></radialGradient><path fill="url(#1A1B4zjQBENTrqhap8M2Na)" d="M64,24.025L64,24.025C64,21.25,61.75,19,58.975,19H54.5c-2.485,0-4.5-2.015-4.5-4.5l0,0	c0-2.485,2.015-4.5,4.5-4.5h1c1.933,0,3.5-1.567,3.5-3.5l0,0C59,4.567,57.433,3,55.5,3h-47C6.567,3,5,4.567,5,6.5l0,0	C5,8.433,6.567,10,8.5,10h1c2.485,0,4.5,2.015,4.5,4.5l0,0c0,2.485-2.015,4.5-4.5,4.5H4c-2.209,0-4,1.791-4,4l0,0	c0,2.209,1.791,4,4,4h2.5c1.933,0,3.5,1.567,3.5,3.5l0,0c0,1.933-1.567,3.5-3.499,3.5H6.499C3.462,34.001,1,36.463,1,39.5l0,0	C1,42.538,3.462,45,6.5,45h4c1.933,0,3.5,1.567,3.5,3.5l0,0c0,1.933-1.567,3.5-3.5,3.5l0,0C8.015,52,6,54.015,6,56.5l0,0	c0,2.485,2.015,4.5,4.5,4.5h45c2.485,0,4.5-2.015,4.5-4.5l0,0c0-2.485-2.015-4.5-4.5-4.5h-2.01C51.563,52,50,50.437,50,48.51v-0.001	c0-1.927,1.563-3.49,3.49-3.49h5.5c2.214,0,4.01-1.795,4.01-4.01l0,0c0-2.214-1.795-4.01-4.01-4.01h-1.02	C55.777,37,54,35.223,54,33.03v-0.009c0-2.193,1.777-3.97,3.97-3.97h1.005C61.75,29.051,64,26.801,64,24.025z"/><linearGradient id="1A1B4zjQBENTrqhap8M2Nb" x1="38.848" x2="38.848" y1="-17.622" y2="53.525" gradientTransform="matrix(1 0 0 -1 0 66)" gradientUnits="userSpaceOnUse"><stop offset="0" stop-color="#155cde"/><stop offset=".278" stop-color="#1f7fe5"/><stop offset=".569" stop-color="#279ceb"/><stop offset=".82" stop-color="#2cafef"/><stop offset="1" stop-color="#2eb5f0"/></linearGradient><path fill="url(#1A1B4zjQBENTrqhap8M2Nb)" d="M58.164,40.798L36.281,9.942c-1.464-2.066-4.339-2.561-6.419-1.108	c-2.081,1.453-2.581,4.304-1.117,6.369l3.37,4.752L18.693,37.714H44.71l4.233,5.968l-3.154,5.477	c-1.263,2.192-0.495,4.984,1.714,6.236C48.224,55.806,49.01,56,49.784,56c1.599,0,3.154-0.828,4.004-2.305l4.607-8	C59.283,44.157,59.191,42.247,58.164,40.798z"/><linearGradient id="1A1B4zjQBENTrqhap8M2Nc" x1="29.633" x2="29.633" y1="1.856" y2="86.446" gradientTransform="matrix(1 0 0 -1 0 66)" gradientUnits="userSpaceOnUse"><stop offset="0" stop-color="#155cde"/><stop offset=".278" stop-color="#1f7fe5"/><stop offset=".569" stop-color="#279ceb"/><stop offset=".82" stop-color="#2cafef"/><stop offset="1" stop-color="#2eb5f0"/></linearGradient><path fill="url(#1A1B4zjQBENTrqhap8M2Nc)" d="M49.789,55.999H15.238c-1.588,0-3.065-0.812-3.906-2.148l-5.759-9.142	c-1.349-2.141-0.693-4.961,1.464-6.299c2.158-1.34,5-0.686,6.348,1.453l4.405,6.994h22.907l-7.293-9.868	c-1.505-2.036-1.061-4.896,0.991-6.389c2.053-1.491,4.933-1.054,6.439,0.983l12.669,17.142c1.027,1.388,1.179,3.233,0.395,4.769	S51.525,55.999,49.789,55.999z"/><linearGradient id="1A1B4zjQBENTrqhap8M2Nd" x1="22.787" x2="22.787" y1="57.223" y2="-14.574" gradientTransform="matrix(1 0 0 -1 0 66)" gradientUnits="userSpaceOnUse"><stop offset="0" stop-color="#40daf2"/><stop offset=".259" stop-color="#3bd3ef"/><stop offset=".624" stop-color="#2ec1e8"/><stop offset="1" stop-color="#1ba7dd"/></linearGradient><path fill="url(#1A1B4zjQBENTrqhap8M2Nd)" d="M40.702,46.857H9.479c-1.509,0-2.925-0.743-3.778-1.943c-0.046-0.069-0.092-0.137-0.127-0.206	c-0.092-0.126-0.161-0.263-0.23-0.4c-0.023-0.046-0.046-0.091-0.069-0.148c-0.011-0.034-0.035-0.069-0.035-0.103	c-0.069-0.137-0.115-0.274-0.161-0.423c-0.023-0.057-0.035-0.114-0.046-0.183c-0.046-0.137-0.069-0.263-0.092-0.4	c-0.046-0.251-0.069-0.503-0.069-0.766c0-0.183,0.012-0.377,0.035-0.56c0.023-0.16,0.058-0.331,0.092-0.491	c0.012-0.034,0.023-0.08,0.035-0.137c0.046-0.16,0.092-0.32,0.161-0.469c0.058-0.171,0.138-0.331,0.219-0.491	c0-0.011,0.012-0.023,0.023-0.034c0.081-0.149,0.173-0.309,0.276-0.446c0.012-0.023,0.023-0.034,0.046-0.057	c0.012-0.034,0.046-0.069,0.069-0.103L28.863,9.784c1.555-2,4.446-2.377,6.461-0.834s2.396,4.411,0.841,6.411L18.831,37.714H33.93	L40.702,46.857z"/></svg>