<?xml version="1.0"?><svg xmlns="http://www.w3.org/2000/svg" viewBox="0 0 30 30">    <path d="M 16 3 C 15.448 3 15 3.448 15 4 L 15 8 L 10 8 A 1.0001 1.0001 0 0 0 9 9 L 9 13 L 4 13 C 3.448 13 3 13.448 3 14 L 3 26 C 3 26.552 3.448 27 4 27 L 14 27 C 14.552 27 15 26.552 15 26 L 15 22 L 20 22 A 1.0001 1.0001 0 0 0 21 21 L 21 17 L 26 17 C 26.552 17 27 16.552 27 16 L 27 4 C 27 3.448 26.552 3 26 3 L 16 3 z M 23 8 C 23.1375 8 23.275859 8.05125 23.380859 8.15625 L 25.306641 10.082031 C 25.644641 10.420031 25.403781 11 24.925781 11 L 24 11 L 24 14 C 24 14.553 23.552 15 23 15 C 22.448 15 22 14.553 22 14 L 22 11 L 21.074219 11 C 21.047736 11 21.024959 10.991682 21 10.988281 L 21 9.7753906 L 22.619141 8.15625 C 22.724141 8.05125 22.8625 8 23 8 z M 11 10 L 19 10 L 19 20 L 15 20 L 15 14 C 15 13.448 14.552 13 14 13 L 11 13 L 11 10 z M 11 18 C 11.1375 18 11.275859 18.05125 11.380859 18.15625 L 13.306641 20.082031 C 13.644641 20.420031 13.403781 21 12.925781 21 L 12 21 L 12 24 C 12 24.553 11.552 25 11 25 C 10.448 25 10 24.553 10 24 L 10 21 L 9.0742188 21 C 8.5952188 21 8.3553594 20.420031 8.6933594 20.082031 L 10.619141 18.15625 C 10.724141 18.05125 10.8625 18 11 18 z"/></svg>