<svg xmlns="http://www.w3.org/2000/svg" width="512" height="512" viewBox="0 0 512 512"><path fill="#EF4823" d="M409.5 57.5c-4.3-5.5-15.5-9.9-19.1-2.8.5.7.7 1.5.7 2.6.1 9.5.9 19 2.1 28.4.8 6.9 1.9 13.9 5.6 20 2.1 3.4 5.9 8.9 10.1 4.7 3.1-3.1 5.4-6.7 6.9-10.6 0-1.1.3-2.2.9-3 .3-1.1.5-2.2.6-3.4C418.6 82.2 416.7 66.7 409.5 57.5zM158.6 104.9c-.6-14.3-7.4-39.8-26.2-31.7-.3.8-.8 1.6-1.5 2.2 1.2-1.1.4.2.2 1.5-.2 1.8-.3 3.5-.2 5.3.1 4.9.7 9.9 1.4 14.7.8 4.8 1.7 9.6 2.9 14.3.8 2.8 1.8 6.6 3 8.3.2.3.3.5.4.8 5 .8 10.2 1.1 14.6-1.1C158.3 116.7 158.9 109.7 158.6 104.9z"/><path fill="#1E4384" d="M478.9,278.3c-0.9-16.5,0.5-33,1.5-49.5c1.2-19.6,2.2-39.2,1.1-58.8c-1-17.9-3.3-37-11.8-53.1c-3.8-7.3-8.6-14-15-19.3c-3.4-2.8-7-5.2-10.9-7.1c-5.2-2.5-10.9-3.6-16.4-5.3c0.4,4.7,0.3,9.2-0.2,13.3c-0.1,1-0.3,1.9-0.4,2.9c5.8,3.6,8.1,10.8,6.7,18c-1.9,9.6-8.5,18.9-17.7,22.8c-10.1,4.2-24.7,1.1-32.8-6.3c-4.2-3.9-7.6-9.4-7.3-15.4c0.2-3.5,0.5-7.3,2.5-10.3c0.9-1.4,1.9-2.8,2.9-4.1c0-0.1,0.1-0.1,0.1-0.2c0-2.1,1.3-4.2,3.4-4.9c-0.1-0.4-0.2-0.7-0.3-1.1c-0.5-2.3-0.9-4.7-1.3-7.1c-18.8,0.9-37.5,2.5-56.3,3.8c-19.4,1.4-38.8,1.7-58.3,2.2c-33.7,0.8-68.4,4.7-101.5-3.3c0.9,4.4,1.4,8.8,1.5,13c0,0.7,0,1.4,0,2.1c10.9,6.1,17.1,18,11.9,30.2c-5,11.8-17.7,19.1-30.2,19.7c-11.5,0.6-27.3-0.9-34.8-11c-7.1-9.7-1.5-27.8,10.1-31.8c-1.5-5.8-2.7-11.8-3.5-17.7c-49.9-6.9-59.4,54.8-60.5,91.7c-0.5,15.5,0.1,31.1,1.8,46.6c2.3,22.1,7.2,43.9,9.8,65.9c1.9,15.7,3.2,31.5,3.9,47.3c0.6,13.8,0,27.7,1.1,41.5c1.6,19.8,6.6,40.7,22.2,54.3c20.2,17.6,50.4,20.3,76.1,20.3c30.6,0,60.8-4.6,91.2-7.3c31.7-2.8,63.1,0.3,94.7,2.5c16.3,1.1,32.6,1.9,49,1.2c10-0.5,19.9-1.7,29.2-5.5c31.4-12.7,40.6-47,42.8-77.8C485.8,346.4,480.8,312.4,478.9,278.3z M458.5,414.1c-0.3,0.9-0.8,1.7-1.4,2.4v2.2c0,2.7-1.7,5.2-4.6,5.4c-28.7,1.7-57.5,2.1-86.2,4c-28.9,1.9-57.8,4-86.6,5.8c-57.3,3.7-114.7,6.6-172.1,6.7c-5.1,0-6.6-6.2-3.9-8.8c-0.3-15.4-2.7-30.8-3.1-46.2c-0.6-21.5-1.5-43-2.6-64.5c-2.2-43.7-4.8-87.4-4.8-131.1c0-3.4,2.7-5.2,5.3-5.2c0.6-0.2,1.3-0.2,2.1-0.1c28.5,4.6,57.6,3.4,86.3,2c29.4-1.5,58.6-1.9,88-2.2c31-0.2,62.1-1.1,92.9-4.6c14.7-1.7,29.1-4.1,43.9-4.3c12.8-0.2,25.7-0.1,38.4-2.1c0-6.4,10-7.2,10-0.7v4.5c0,2.9-1.7,4.7-4.4,5.3c-0.2,0.2-0.5,0.5-0.8,0.7c0.7-0.5,0.1-0.3-0.4,0.9c-0.2,0.6-0.4,1.3-0.6,2.3c-0.6,2.8-0.9,5.7-1,8.5c-0.3,7.5,0,15.1,0.5,22.6c0.9,13.2,3.3,26.4,3.8,39.5c1.1,27.6,2.3,55.2,2.7,82.8c0.2,12.8,0,25.5,0.7,38.3C461.2,390.2,461.8,402.4,458.5,414.1z"/><path fill="#010101" d="M488.7,260.8c0.9-36,5.8-71.9,1.3-107.8c-2.1-17-6.6-34.2-16-48.7c-4.4-6.7-10.1-12.7-16.6-17.3c-8.7-6.2-18.2-8.5-28.3-11.7c-1.2-0.4-2.2-0.3-3.1,0.1c-2-9.1-5.9-17.8-12.3-23.3c-11.4-9.9-30.4-9-34,7.7c-0.4,2,0.3,3.5,1.4,4.5c0.1,5.6,0.3,11.5,0.7,17.2c-0.3-0.1-0.5-0.2-0.8-0.2c-2.2-0.5-3.8,0.4-4.8,1.8c-35.1,1.8-69.9,5.2-105.1,5.7c-35.9,0.4-72.5,5.5-107.6-4.5c0,0-0.1,0-0.1,0c-1.6-3.6-3.6-6.9-6.1-9.8c-8.7-10-20.8-10.2-32-4.4c-2,1-2.6,2.7-2.3,4.3c-2.5,4.2-2.7,10-2.2,15.5c-70.9-7-72.1,95.2-67.9,143.4c1.7,19.7,5.9,39.1,8.7,58.6c4.3,30.8,5.5,61.5,6.2,92.5c0.5,20.5,4,41.8,15.8,58.9c13.8,20,37,28.2,60.1,31.8c29.9,4.7,60.5,1.9,90.3-1.3c15.1-1.6,30.1-3.3,45.2-4.4c16.2-1.2,32.5-0.3,48.6,0.8c31,2.1,62.7,6.4,93.8,3.1c17-1.8,33.1-8.4,45.4-20.4c24-23.4,26.9-61.5,26.9-93C493.9,326.8,487.8,293.9,488.7,260.8z M409.5,62c7.2,9.2,9.1,24.7,7.8,35.9c-0.1,1.2-0.4,2.3-0.6,3.4c-0.6,0.9-0.9,2-0.9,3c-1.5,3.9-3.8,7.5-6.9,10.6c-4.2,4.3-8-1.2-10.1-4.7c-3.7-6.1-4.8-13-5.6-20c-1.1-9.4-2-18.9-2.1-28.4c0-1.1-0.3-1.9-0.7-2.6C394,52,405.2,56.4,409.5,62z M388.8,112.6c1.7,3.5,3.9,6.7,6.6,9.4c5.7,5.9,14.1,5.5,20,0.3c3.3-3,6-6.5,7.9-10.5c1.1,2.4,0.6,5.8-0.4,8.5c-2.3,6.5-7.6,12.6-14.7,13.6c-7.8,1.1-19.4-2.9-22.2-10.8C384.7,119,386.6,115.8,388.8,112.6z M130.9,79.8c0.7-0.7,1.2-1.4,1.5-2.2c18.8-8.1,25.5,17.3,26.2,31.7c0.2,4.9-0.3,11.8-5.3,14.3c-4.3,2.1-9.6,1.9-14.6,1.1c-0.1-0.3-0.3-0.5-0.4-0.8c-1.1-1.7-2.2-5.5-3-8.3c-1.3-4.7-2.2-9.5-2.9-14.3c-0.8-4.9-1.3-9.8-1.4-14.7c-0.1-1.8,0-3.5,0.2-5.3C131.3,80,132.2,78.8,130.9,79.8z M130.2,133.1c9.5,2.2,20.1,3.7,28.9-1.3c4.1-2.3,6.5-6,7.9-10.2c4.4,3.6,6.8,8.8,4.5,14.8c-3,8.1-11.8,13.2-20.1,14.1c-8.3,0.9-17.5,0-24.9-4.1c-3.7-2.1-4.6-5-4-9c0.4-2.9,1.6-6.2,3.8-8.4C126.6,130.8,127.8,132.5,130.2,133.1z M483.4,380.7c-2.2,30.8-11.4,65.1-42.8,77.8c-9.3,3.8-19.2,5-29.2,5.5c-16.3,0.8-32.7,0-49-1.2c-31.6-2.2-63-5.2-94.7-2.5c-30.4,2.7-60.6,7.3-91.2,7.3c-25.7,0-55.9-2.7-76.1-20.3c-15.6-13.6-20.6-34.6-22.2-54.3c-1.1-13.8-0.5-27.7-1.1-41.5c-0.7-15.8-2-31.6-3.9-47.3c-2.6-22.1-7.5-43.8-9.8-65.9c-1.6-15.5-2.2-31-1.8-46.6c1.1-36.9,10.5-98.6,60.5-91.7c0.8,6,2,11.9,3.5,17.7c-11.5,3.9-17.1,22.1-10.1,31.8c7.4,10.2,23.3,11.6,34.8,11c12.5-0.7,25.2-8,30.2-19.7c5.2-12.2-1-24.1-11.9-30.2c0-0.7,0-1.4,0-2.1c-0.1-4.2-0.6-8.7-1.5-13c33.1,8,67.8,4,101.5,3.3c19.5-0.5,38.8-0.8,58.3-2.2c18.8-1.3,37.5-3,56.3-3.8c0.4,2.4,0.8,4.8,1.3,7.1c0.1,0.4,0.2,0.7,0.3,1.1c-2.1,0.7-3.4,2.8-3.4,4.9c0,0.1-0.1,0.1-0.1,0.2c-1,1.3-2,2.7-2.9,4.1c-1.9,3-2.3,6.8-2.5,10.3c-0.3,6,3.1,11.5,7.3,15.4c8.1,7.4,22.6,10.5,32.8,6.3c9.3-3.8,15.8-13.1,17.7-22.8c1.4-7.2-0.9-14.4-6.7-18c0.2-1,0.3-1.9,0.4-2.9c0.5-4.1,0.5-8.6,0.2-13.3c5.5,1.7,11.2,2.8,16.4,5.3c3.9,1.9,7.5,4.3,10.9,7.1c6.4,5.3,11.2,12,15,19.3c8.4,16.1,10.7,35.2,11.8,53.1c1.1,19.6,0.1,39.2-1.1,58.8c-1,16.4-2.5,33-1.5,49.5C480.8,312.4,485.8,346.4,483.4,380.7z"/><path fill="#EF4823" d="M450.3,372.1c-0.5-13.7-0.3-27.4-0.6-41.1c-0.3-14.2-0.8-28.3-1.3-42.5c-0.4-11.6-0.2-23.5-1.6-35c-1.8-14.3-3.3-28.7-3.9-43.1c-0.3-7.4-0.4-14.9,0.5-22.2c0.2-1.3,0.4-2.6,0.7-3.9c-11.1,1.2-22.3,1-33.5,1.3c-14.8,0.4-29.3,2.9-44,4.5c-30.9,3.3-61.9,4.2-92.9,4.4c-30,0.2-59.8,0.9-89.7,2.3c-26.9,1.3-54.1,2.1-80.9-1.7c0.2,41.8,2.7,83.5,4.8,125.2c1.1,22.1,2.1,44.3,2.7,66.4c0.3,14.6,2.7,29.2,3,43.8c55.8-0.3,111.6-3.2,167.3-6.8c28.9-1.9,57.8-3.9,86.6-5.8c26.5-1.8,53.1-2.2,79.7-3.7c0-0.2,0.1-0.4,0.1-0.5l-1.5-1.5c-3.9-3.9,0.4-10,4.6-8.8C451.8,393.2,450.7,382.7,450.3,372.1z"/><path fill="#010101" d="M460.6,378.2c-0.7-12.8-0.5-25.5-0.7-38.3c-0.4-27.6-1.6-55.2-2.7-82.8c-0.5-13.2-3-26.4-3.8-39.5c-0.5-7.5-0.8-15.1-0.5-22.6c0.1-2.9,0.5-5.7,1-8.5c0.2-1,0.4-1.7,0.6-2.3c0.5-1.2,1-1.4,0.4-0.9c0.3-0.2,0.6-0.5,0.8-0.7c2.7-0.6,4.4-2.4,4.4-5.3v-4.5c0-3-2.2-4.4-4.5-4.5h0c-2.6,0-5.4,1.8-5.5,5.2c-12.7,2-25.6,1.9-38.4,2.1c-14.8,0.3-29.2,2.6-43.9,4.3c-30.8,3.5-61.9,4.4-92.9,4.6c-29.4,0.2-58.6,0.7-88,2.2c-28.7,1.5-57.8,2.6-86.3-2c-0.8-0.1-1.5-0.1-2.1,0.1c-2.6,0-5.3,1.9-5.3,5.2c0,43.8,2.6,87.5,4.8,131.1c1.1,21.5,2.1,43,2.6,64.5c0.4,15.4,2.8,30.8,3.1,46.2c-2.7,2.6-1.2,8.8,3.9,8.8c57.4,0,114.8-3,172.1-6.7c28.9-1.8,57.8-3.9,86.6-5.8c28.7-1.9,57.5-2.3,86.2-4c2.9-0.2,4.6-2.7,4.6-5.4v-2.2c0.7-0.7,1.2-1.5,1.4-2.4C461.8,402.4,461.2,390.2,460.6,378.2z M450.4,403.7c-4.2-1.3-8.5,4.9-4.6,8.8l1.5,1.5c0,0.2-0.1,0.4-0.1,0.5c-26.5,1.5-53.1,1.9-79.7,3.7c-28.9,1.9-57.8,4-86.6,5.8c-55.7,3.6-111.5,6.5-167.3,6.8c-0.3-14.6-2.7-29.2-3-43.8c-0.5-22.1-1.6-44.3-2.7-66.4c-2.1-41.7-4.5-83.4-4.8-125.2c26.8,3.8,54,2.9,80.9,1.7c29.9-1.4,59.7-2.1,89.7-2.3c31-0.2,62.1-1.1,92.9-4.4c14.7-1.6,29.2-4.1,44-4.5c11.2-0.3,22.4-0.1,33.5-1.3c-0.3,1.3-0.5,2.6-0.7,3.9c-1,7.3-0.8,14.8-0.5,22.2c0.5,14.4,2.1,28.8,3.9,43.1c1.4,11.5,1.2,23.4,1.6,35c0.5,14.2,1,28.3,1.3,42.5c0.3,13.7,0,27.4,0.6,41.1C450.7,382.7,451.8,393.2,450.4,403.7z"/><path fill="#010101" d="M163 250.1c-11.6.3-23.1 1.6-34.7 1.6-7.1 0-6.2 11 .8 11 7.7-.1 15.4-.7 23-1.1-1.5 10.9 1.7 21.8 3.8 32.5 2.8 14.6 5.7 29.2 7.8 44 1.5 10.6 4.4 24.5-.7 34.5-2.7 5.4-11.7 9.3-18.7 8.7.4-3.8-4.1-8.1-8.7-5.6-1.9 1.1-3.5 2.4-5.1 3.9-2.1 2-1.7 6 .5 7.8 9.5 7.5 22.6 5 32.5-.4 12-6.6 13.5-20.8 12.8-33.2-1-16.1-4-32.1-7-48-1.5-8-3.2-16-4.8-24-1.4-6.9-2.5-13.8-1.1-20.6 3.3-.1 6.6-.2 9.9-.1 1.8 0 3.5 0 5.1.2.7.1 1.4.2 2.1.3.1 0 .2 0 .3.1 3.1 2.1 7.9 1.5 8.3-3.2C190.1 246.9 169.7 249.9 163 250.1zM178.4 256.1c-.2 2.4.9 4.2 2.5 5.3C179.5 261 178.1 260 178.4 256.1zM262.3 328.2c-.8-12.6-2.8-25.1-3.6-37.8-.9-13.8-2.4-27.6-5.7-41-.7-2.8-4.4-4.4-7-3.4-2 .8-3 1.9-4.3 3.6-2.5 3.3-.7 7.2 2.1 8.7 2 9.7 3 19.5 3.7 29.3.8 11 1.9 21.9 3.1 32.9 1.2 10.8 1.8 21.6-.3 32.3-1.5 7.8-5.9 17.9-15.1 18.2-8.2.3-11.2-13.7-12.3-19.5-1.9-9.9-1.9-20-2.8-30-1-11-4.3-21.6-6.8-32.2-3-12.7-5.3-25.5-6-38.5-.4-7.1-11.4-6.2-11 .8 1.5 27.3 11.7 53 13.5 80.2 1.1 17.3 2.8 50.9 27.2 50.1 9.4-.3 16.8-8.5 20.7-16.3C263.2 354.5 263.1 340.3 262.3 328.2zM315.7 368.6c-2.2 1.7-8.5 1.3-11.6 1.7-2.9.4-9.7 3-11.6.2-3.2-4.7-2.4-13.2-2.4-18.5.1-6.3.6-12.7.2-19-.8-15.3-2.9-30.4-5.8-45.4-1.4-7-2.8-13.8-5.2-20.5-2.1-5.8-5.6-12.5-5.2-18.8.5-7-10.3-9.2-10.8-2.1-.5 7.6 1.8 14.5 4.5 21.6 3 8 4.8 15.9 6.4 24.3 3.2 16.9 5.6 34.4 5.2 51.6-.3 10.9-3.1 32.6 9.7 38 5.3 2.2 11.5.3 16.9-.5 5-.7 11.6-.2 15.9-3.4C327.5 373.5 321.4 364.3 315.7 368.6zM348.3 251.8c0-7.1-11-6.2-11 .8 0 6.9-.1 13.8-.3 20.7-3-2.3-6.1-4.5-9.2-6.8-5.1-3.8-10.2-7.5-15.3-11.4-2.1-1.6-4.1-3.3-6.1-5-1.1-1-3.1-3-3.1-3-4.3-5.6-13.4.5-9.1 6.2 5.6 7.4 14.6 12.9 22 18.3 4.6 3.4 9.2 6.7 13.7 10.2 1.5 1.2 3.1 2.4 4.6 3.6.4.4.9.8 1.3 1.1.2.4.4.7.7 1-.5 10.8-1.3 21.7-2.2 32.5-1 10.5-3.5 20.8-4.7 31.2-.6 5.1-.3 10.4-.3 15.5 0 1 0 1.4 0 1.6 0 .1-.1.3-.2 1.1-.6.9-.9 1.9-.9 3.2 0 1 0 2.1.4 3 1.4 3.5 6.7 5.4 9.3 1.8 3.4-4.8 2.2-13 2.2-18.4 0-11.8 3.1-23.4 4.5-35.1C347.7 300.2 348.2 275.8 348.3 251.8zM431.8 357.1c-.9-2.4-1.9-4.8-2.7-7.2-1.3-3.6-1.3-7.9-1.6-11.7-.5-5.4-.8-10.9-1-16.4 5.6-.8 5.1-9.2-.1-10.7 0-10.1.3-20.2.3-30.2 0-7.1-11-6.2-11 .8 0 9.7-.2 19.4-.2 29.1h-21.7c-7.2 0-5.7-7-5.4-12.3 1.2-21.6 1.5-44.2-1.7-65.6-1.1-7-12-6.2-11 .8 3.6 23.7 1.5 47.5 1.5 71.4 0 8.1 3.9 14.3 12 16.3 5.5 1.3 12.1.4 17.7.4h8.7c.1 3.9.2 7.7.5 11.5.4 6.6.6 13.9 2.7 20.1.7 2.1 1.5 4.1 2.3 6.1.4 1 .7 2 1.1 2.9.5 1.3.5 3.8.7.6.1-.1.2-.2.2-.4-1.1 4.5 3.7 9.6 8.1 6C435.3 365.7 433.3 361.2 431.8 357.1z"/></svg>