<svg xmlns="http://www.w3.org/2000/svg" viewBox="0 0 26 26"><path d="M 4 0 C 3.398438 0 3.101563 0.398438 3 1 L 0 17 C 0 17.601563 0.398438 18 1 18 L 25 18 C 25.601563 18 26 17.601563 26 17 L 23 1 C 22.898438 0.398438 22.601563 0 22 0 Z M 13 3 C 14.398438 3 15.6875 4.007813 15.6875 5.90625 C 15.6875 7.105469 15.105469 8.386719 14.40625 9.1875 C 14.105469 10.085938 14.59375 10.3125 14.59375 10.3125 C 16.195313 10.8125 18 11.90625 18 12.90625 L 18 13.3125 C 18 14.710938 15.398438 15 13 15 C 10.601563 15 8 14.710938 8 13.3125 L 8 12.90625 C 8 11.90625 9.8125 10.914063 11.3125 10.3125 C 11.414063 10.3125 11.894531 9.988281 11.59375 9.1875 C 10.792969 8.386719 10.3125 7.105469 10.3125 5.90625 C 10.3125 4.007813 11.601563 3 13 3 Z M 0 18.5 L 0 25 C 0 25.601563 0.398438 26 1 26 L 25 26 C 25.601563 26 26 25.601563 26 25 L 26 18.5 C 26 18.5 25.800781 19 25 19 L 1 19 C 0.300781 19 0 18.5 0 18.5 Z M 2 21 L 3 21 L 3 23 L 5 23 L 5 21 L 6 21 L 6 23 L 8 23 L 8 21 L 9 21 L 9 23 L 11 23 L 11 21 L 12 21 L 12 23 L 14 23 L 14 21 L 15 21 L 15 23 L 17 23 L 17 21 L 18 21 L 18 24 L 2 24 Z M 22.5 21 C 23.300781 21 24 21.699219 24 22.5 C 24 23.300781 23.300781 24 22.5 24 C 21.699219 24 21 23.300781 21 22.5 C 21 21.699219 21.699219 21 22.5 21 Z"/></svg>