<svg xmlns="http://www.w3.org/2000/svg" viewBox="0 0 48 48"><radialGradient id="84twS5VAwp~mh5VX98UFKa" cx="24" cy="24" r="18" fx="23.905" fy="16.289" gradientUnits="userSpaceOnUse"><stop offset="0" stop-color="#ffe16e"/><stop offset=".629" stop-color="#ffd226"/><stop offset=".75" stop-color="#fdcd23"/><stop offset=".899" stop-color="#f6bd1b"/><stop offset=".999" stop-color="#f0af13"/></radialGradient><circle cx="24" cy="24" r="18" fill="url(#84twS5VAwp~mh5VX98UFKa)"/><circle cx="30" cy="21" r="4" fill="#fff"/><circle cx="30" cy="21" r="2" fill="#212121"/><circle cx="18" cy="21" r="4" fill="#fff"/><circle cx="18" cy="21" r="2" fill="#212121"/><radialGradient id="84twS5VAwp~mh5VX98UFKb" cx="24.084" cy="29.233" r="13.227" gradientTransform="matrix(.7594 0 0 .3463 5.777 19.11)" gradientUnits="userSpaceOnUse"><stop offset=".582" stop-color="#cc9000"/><stop offset="1" stop-color="#cc9000" stop-opacity="0"/></radialGradient><path fill="url(#84twS5VAwp~mh5VX98UFKb)" d="M24.003,32C20.424,32,16,32,16,32s3.72,2,8.003,2S32,32,32,32S27.582,32,24.003,32z"/><radialGradient id="84twS5VAwp~mh5VX98UFKc" cx="24" cy="32.093" r="9.791" fx="23.993" fy="32.459" gradientTransform="matrix(.8327 0 0 2.0574 4.016 -35.952)" gradientUnits="userSpaceOnUse"><stop offset="0" stop-color="#ffe16e"/><stop offset="1" stop-color="#ffe16e" stop-opacity="0"/></radialGradient><path fill="url(#84twS5VAwp~mh5VX98UFKc)" d="M32.327,32c0,0-4.398,0-8.327,0s-8.327,0-8.327,0v-2.057h16.654V32z"/><radialGradient id="84twS5VAwp~mh5VX98UFKd" cx="32.507" cy="28.963" r=".865" gradientTransform="rotate(180 24 30)" gradientUnits="userSpaceOnUse"><stop offset="0" stop-color="#1c1911"/><stop offset=".999" stop-color="#171714"/></radialGradient><circle cx="15.5" cy="30.5" r=".5" fill="url(#84twS5VAwp~mh5VX98UFKd)"/><radialGradient id="84twS5VAwp~mh5VX98UFKe" cx="24.118" cy="28.925" r="6.627" gradientTransform="rotate(180 24 30)" gradientUnits="userSpaceOnUse"><stop offset="0" stop-color="#1c1911"/><stop offset=".999" stop-color="#171714"/></radialGradient><path fill="url(#84twS5VAwp~mh5VX98UFKe)" d="M15.5,31H24h8.5l0.167-0.973c0,0-3.533-1.027-8.667-1.027s-8.667,1.027-8.667,1.027L15.5,31z"/><radialGradient id="84twS5VAwp~mh5VX98UFKf" cx="41.507" cy="28.963" r=".865" gradientTransform="matrix(1 0 0 -1 -9 60)" gradientUnits="userSpaceOnUse"><stop offset="0" stop-color="#1c1911"/><stop offset=".999" stop-color="#171714"/></radialGradient><circle cx="32.5" cy="30.5" r=".5" fill="url(#84twS5VAwp~mh5VX98UFKf)"/></svg>