<svg xmlns="http://www.w3.org/2000/svg" viewBox="0 0 100 100"><path fill="#fff" d="M20.8 55.5A.9.9 0 1 0 20.8 57.3.9.9 0 1 0 20.8 55.5zM79.8 30.8A.7.7 0 1 0 79.8 32.2.7.7 0 1 0 79.8 30.8z"/><path fill="#f1bc19" d="M77.2 11.6A.9.9 0 1 0 77.2 13.4.9.9 0 1 0 77.2 11.6zM21.2 63.199999999999996A.9.9 0 1 0 21.2 65 .9.9 0 1 0 21.2 63.199999999999996z"/><path fill="#e6edb7" d="M50.3 12.200000000000003A37.5 37.5 0 1 0 50.3 87.2A37.5 37.5 0 1 0 50.3 12.200000000000003Z"/><path fill="#f1bc19" d="M82.6 10.6A4 4 0 1 0 82.6 18.6A4 4 0 1 0 82.6 10.6Z"/><path fill="#ee3e54" d="M86.6 21.8A1.9 1.9 0 1 0 86.6 25.599999999999998A1.9 1.9 0 1 0 86.6 21.8Z"/><path fill="#fbcd59" d="M77.6 74.19999999999999A1.9 1.9 0 1 0 77.6 78 1.9 1.9 0 1 0 77.6 74.19999999999999zM14.5 59.2A4 4 0 1 0 14.5 67.2 4 4 0 1 0 14.5 59.2z"/><path fill="#ee3e54" d="M24.7 85.39999999999999A1.9 1.9 0 1 0 24.7 89.2A1.9 1.9 0 1 0 24.7 85.39999999999999Z"/><path fill="#fff" d="M76.3 28.2A1.8 1.8 0 1 0 76.3 31.8 1.8 1.8 0 1 0 76.3 28.2zM18.2 48.6A2.5 2.5 0 1 0 18.2 53.6 2.5 2.5 0 1 0 18.2 48.6z"/><path fill="#472b29" d="M37.7,41.7c0.5,1-0.3,2.3-1.3,2.9s-2.2,0.8-3.2,1.4c-2.1,1.3-2.7,4-1.4,6.1c0.7,1.1,1.9,1.9,3.2,2 c-1.8,0.4-3,2.1-2.7,3.9c0.4,1.8,1.6,3.2,3.3,3.8c1.7,0.5,3.5,0.6,5.2,0.2c2.7,2.5,6.7,3,9.9,1.2"/><path fill="#472b29" d="M63.3,41.7c-0.5,1,0.3,2.3,1.3,2.9c1,0.6,2.2,0.8,3.2,1.4c2.1,1.3,2.7,4,1.4,6.1 c-0.7,1.1-1.9,1.9-3.2,2c1.8,0.4,3,2.1,2.7,3.9c-0.4,1.8-1.6,3.2-3.3,3.8c-1.7,0.5-3.5,0.6-5.2,0.2c-2.7,2.5-6.7,3-9.9,1.2"/><path fill="#d8ad8f" d="M61.5,41.6c0.1-1.5,0.6-3.3,0.7-4L61,34.2c-1.3-1.7-2.2-3.1-4-4.3c-2-1.3-4.6-0.5-6.9-1.1 c-5.7-1.4-10.9,4.3-12.7,9.7l-0.1,0.1c0.2,1,0.3,2,0.4,2.9c-1.5,0-2.3,0.8-1.8,2.4c0,0,0.6,2.6,1,3.9c0.1,0.7,0.8,1.2,1.5,1.2 c0,0.8,0,1.7,0,2.5c0,1,0.3,2,0.8,2.8c1.5,2.2,9.2,7.2,11.1,7c3,0,9-5.1,10.6-7.7c0.3-0.5,0.4-1.1,0.4-1.7c0-1,0-2,0-3 c0.6-0.1,1.1-0.6,1.3-1.2c0.4-1.3,1-3.9,1-3.9C64.2,42.4,63,41.5,61.5,41.6z"/><path fill="#b2876b" d="M66.1,67.1c-0.1,0-0.2-0.1-0.3-0.1l-0.6-0.2c-1.2-0.5-9.3-3.3-9.3-3.3c-0.6-0.2-1-0.6-1.2-1.1 c-0.2-1-0.3-1.9-0.2-2.9c-1.4,0.6-2.8,1.1-4.2,1.4c-1.9,0.2-5.2-2.3-5.2-2.3s-0.1,3-0.2,3.7c-0.2,0.6-0.7,1-1.3,1.1l-7.7,2.6 c-0.8,0.2-1.5,0.5-2.2,0.9c-1.6,1.1-2.8,2.8-3.3,4.7l0,0c0,0.1,0,0.3-0.1,0.6c-0.1,0.4-0.1,0.9-0.1,1.3c0,0.5-0.1,1-0.1,1.5 c6.8,7,11.3,11.5,21.9,11.5c4.6,0,14-2.4,18.1-3.9C69.6,73.3,70.3,68.4,66.1,67.1z"/><path fill="#472b29" d="M38.6 49.8c-.1 0-.2-.1-.2-.2l-.8-8.1c0-.1.1-.2.2-.2.1 0 .2.1.2.2l.8 8.1C38.9 49.7 38.8 49.8 38.6 49.8 38.7 49.8 38.7 49.8 38.6 49.8zM61.2 49.4C61.2 49.4 61.2 49.4 61.2 49.4c-.1 0-.2-.1-.2-.2l.5-8.1c0-.1.1-.2.2-.2.1 0 .2.1.2.2l-.5 8.1C61.4 49.3 61.3 49.4 61.2 49.4z"/><path fill="#9daa39" d="M30,81c8.1,5.6,13,5.3,23.5,5.3c4.6,0,13-1.8,16.4-4C69.4,73,70.3,68.7,66,67.4 c-0.8-0.3-3.9-1.8-3.9-1.8s-8,4.5-11.5,5.2c-6.6,1.3-13.4,1.7-20.1,1.1C30.4,72.3,30.2,79.4,30,81z"/><path fill="#fbcd59" d="M66.5,67.6c-0.2-0.1-0.3-0.2-0.5-0.2c-0.8-0.3-3.9-1.8-3.9-1.8s-8,4.5-11.5,5.2 c-6.6,1.3-13.4,1.7-20.1,1.1c-0.1,0.3-0.2,1.6-0.3,3.1C52.4,79,63.4,69.3,66.5,67.6z"/><path fill="#472b29" d="M49.2,87.2c-7.2,0-14.6-1.4-19.5-5.5c-0.1-0.1-0.2-0.3-0.2-0.4c0-0.1,0-0.2,0-0.5 c-0.2-7.8,1.2-12.6,4-14c0.7-0.4,1.5-0.7,2.3-0.9l7.7-2.6c0.5-0.1,0.8-0.4,0.9-0.8c0.1-0.4,0.2-2,0.2-2.9 c-2.3-1.4-4.9-3.4-5.8-4.7c-0.6-0.9-1-2-0.9-3.1l0-2c-0.7-0.2-1.3-0.8-1.5-1.6c-0.4-1.2-1-3.8-1-3.9c-0.4-1.1-0.1-1.8,0.2-2.2 c0.2-0.3,0.7-0.7,1.6-0.8c0-0.2,0-0.3,0-0.5c-0.3-0.5-0.4-1.1-0.5-1.7c0-6.5,5.8-11.8,12.9-11.8c7.1,0,12.9,5.3,12.9,11.8 c0,0.7-0.2,1.3-0.5,1.9c0,0,0,0,0,0c0,0.1,0,0.2,0,0.3c0.8,0.1,1.5,0.4,1.9,1c0.3,0.4,0.6,1.1,0.2,2.1l0,0c-0.1,0.6-0.7,3-1,3.9 c-0.1,0.7-0.6,1.2-1.3,1.5v2.6c0,0.7-0.2,1.3-0.5,1.9c-1.8,2.4-3.9,4.4-6.4,6c0,0.8,0,1.5,0.2,2.3c0.1,0.3,0.5,0.6,0.9,0.7 c0.4,0.1,8.1,2.8,9.3,3.3l0.6,0.2c0.1,0.1,0.2,0.1,0.3,0.1c3.8,1.2,3.9,4.8,4.1,11.3c0,1.4,0.1,2.9,0.1,4.6c0,0.2-0.1,0.3-0.2,0.4 C67.9,84.7,58.8,87.2,49.2,87.2z M30.5,81.1c10.7,8.7,34.1,4.3,39,1.4c-0.1-1.6-0.1-3-0.1-4.3c-0.2-6.2-0.2-9.4-3.4-10.3 c0,0,0,0,0,0c-0.1,0-0.3-0.1-0.4-0.2L65,67.4c-1.2-0.5-9.2-3.2-9.2-3.3c-0.7-0.2-1.2-0.7-1.5-1.4c-0.3-1-0.4-2-0.3-2.9 c0-0.2,0.1-0.3,0.2-0.4c2.5-1.6,4.6-3.5,6.3-5.9c0.2-0.4,0.3-0.9,0.4-1.4l0-3c0-0.3,0.2-0.5,0.4-0.5c0.4-0.1,0.8-0.4,0.8-0.8 c0.4-1.3,1-3.8,1-3.9c0.2-0.6,0.2-1-0.1-1.3c-0.3-0.4-0.9-0.6-1.6-0.6c-0.1,0-0.3,0-0.4-0.1C61.1,42,61,41.8,61,41.7 c0-0.8,0-1.2,0.2-1.4c0.2-0.4,0.3-0.9,0.3-1.4c0-5.9-5.3-10.8-11.9-10.8c-6.6,0-11.9,4.8-11.9,10.8c0,0.5,0.2,1,0.4,1.4 c0,0.1,0,0.1,0.1,0.2c0,0.4,0.1,0.8,0.1,1.1c0,0.1,0,0.3-0.1,0.4c-0.1,0.1-0.2,0.1-0.4,0.1c-0.4,0-1,0.1-1.3,0.4 c-0.3,0.4-0.2,0.9,0,1.3c0,0.1,0.6,2.7,1,3.9c0.1,0.5,0.5,0.9,1,0.9c0,0,0,0,0,0c0.1,0,0.3,0.1,0.4,0.1c0.1,0.1,0.1,0.2,0.1,0.4 v2.5c0,0.9,0.2,1.8,0.8,2.5c0.7,1,3.1,2.9,5.8,4.6c0.2,0.1,0.2,0.3,0.2,0.5l0,0.1c-0.1,0.9-0.2,2.6-0.3,3.2 c-0.3,0.8-0.9,1.4-1.7,1.5l-7.7,2.6c-0.7,0.2-1.4,0.5-2.1,0.9c-1.7,0.9-3.7,3.8-3.5,13.1C30.5,80.8,30.5,81,30.5,81.1z"/><path fill="#472b29" d="M50.4,61.1c-1.9,0-5-1.7-5.2-1.7c-0.1-0.1-0.2-0.2-0.1-0.3c0.1-0.1,0.2-0.2,0.3-0.1 c0,0,3.4,1.8,5.1,1.7c1.5-0.3,3-0.8,4.3-1.6c0.1-0.1,0.3,0,0.3,0.1c0.1,0.1,0,0.3-0.1,0.3c-1.4,0.8-2.9,1.4-4.5,1.7 C50.6,61.1,50.5,61.1,50.4,61.1z"/><path fill="#fbcd59" d="M45.2 30.2A1.5 1.5 0 1 0 45.2 33.2A1.5 1.5 0 1 0 45.2 30.2Z"/><path fill="#033b55" d="M37.6,43.3c0-0.2,0-0.4,0-0.7L36,43l0.6,3l0.6-0.1l-0.5-2.4L37.6,43.3z"/><path fill="#472b29" d="M50.2,50.4c0.8,0,1.6-0.4,2.2-1c0.1-0.1,0.1-0.2,0-0.2l0,0 c-0.1-0.1-0.2-0.1-0.2,0c-1.1,1-2.8,1-3.9,0c0,0-0.1,0-0.1,0c0,0-0.1,0-0.1,0c-0.1,0.1-0.1,0.1,0,0.2c0,0,0,0,0,0 C48.6,50.1,49.3,50.4,50.2,50.4z" opacity=".41"/><path fill="#472b29" d="M47.4 39.7l.5-1c-2.3-.5-4.7-.5-7 .2l.7 1C43.5 39.3 45.5 39.2 47.4 39.7zM58.7 39.7l.5-1c-2.3-.5-4.7-.5-7 .2l.7 1C54.8 39.3 56.8 39.2 58.7 39.7zM44.2 40.4c-.6 0-1.1.4-1.3.9.1 0 .1 0 .2 0 .5 0 .9.4.9.9 0 .5-.4.9-.9.9-.1 0-.3 0-.4-.1.1.8.7 1.3 1.5 1.4 1.1-.2 1.8-1.2 1.6-2.3C45.6 41.2 45 40.5 44.2 40.4L44.2 40.4zM55.9 40.4c-.5 0-.9.3-1.2.7.1 0 .2-.1.3-.1.5.1.9.5.8 1 0 .4-.4.8-.8.8-.3 0-.5-.2-.7-.4.2.8 1.1 1.4 1.9 1.1.8-.2 1.4-1.1 1.1-1.9C57.3 40.9 56.7 40.4 55.9 40.4L55.9 40.4z"/><path fill="#cd9480" d="M42.6 46.6A2.3 2.3 0 1 0 42.6 51.199999999999996 2.3 2.3 0 1 0 42.6 46.6zM57.5 46.6A2.3 2.3 0 1 0 57.5 51.199999999999996 2.3 2.3 0 1 0 57.5 46.6z"/><path fill="#472b29" d="M51.5,26.7c1.6,0.5,5.4,2.8,5,5.9c-0.4,3.4,5.7,3.8,4.2,9.8c-0.2,1,1.1,0.7,1.6-0.2 c3-5.5,2.9-11.2-0.1-14.8c-2.8-3.4-9.4-3.6-10.5-2.4c-0.1,0.2-0.2,0.4-0.2,0.6C51.4,26,51.3,26.7,51.5,26.7z"/><path fill="#472b29" d="M58.4,26.2c0-1.9-2.2-3.4-4.1-3.6c-5.8-0.6-13.9,1.6-17.4,6.1s-4.2,13.9-2.2,16.9 c2.2,3.3,3.5,0.4,3.9-1c2.1-7.3,6-6.8,9.5-9c4.7-2.9,2.8-7.3,9.2-4.6C58.9,31.8,58.3,27.9,58.4,26.2z"/><path fill="#ee3e54" d="M50.2 36A0.8 0.8 0 1 0 50.2 37.599999999999994A0.8 0.8 0 1 0 50.2 36Z"/><path fill="#f1bc19" d="M49.8 65.6A1 1 0 1 0 49.8 67.6 1 1 0 1 0 49.8 65.6zM49.8 65.6c-2.5 0-5.1-.7-5.1-1.9 0-.1.1-.3.3-.3s.3.1.3.3c0 .7 2 1.4 4.6 1.4 2.6 0 4.6-.8 4.6-1.4 0-.1.1-.3.3-.3s.3.1.3.3C54.9 65 52.2 65.6 49.8 65.6z"/><path fill="#6d1b18" d="M46.8,54c0,0.2-0.1,0.3-0.1,0.5c0,1.4,1.5,2.5,3.5,2.5s3.5-1.1,3.5-2.5c0-0.2,0-0.3-0.1-0.5H46.8z"/><path fill="#ee3e54" d="M52,56.6c-0.5-0.4-1.2-0.6-1.8-0.6c-0.7,0-1.3,0.2-1.8,0.6C49.5,57.2,50.8,57.2,52,56.6z"/><path fill="#fdfcef" d="M47.8,54L47.8,54v0.4c0,0.4,0.5,0.7,1.1,0.7h2.6c0.6,0,1.1-0.3,1.1-0.7V54l0,0H47.8z"/><path fill="#472b29" d="M50.2,57.2c-2,0-3.6-1.2-3.6-2.7c0-0.2,0-0.4,0.1-0.5c0-0.1,0.1-0.1,0.2-0.1h6.8 c0.1,0,0.2,0.1,0.2,0.1c0,0.2,0.1,0.3,0.1,0.5C53.8,56,52.2,57.2,50.2,57.2z M46.9,54.2c0,0.1,0,0.2,0,0.3c0,1.3,1.5,2.3,3.2,2.3 c1.8,0,3.3-1,3.3-2.3c0-0.1,0-0.2,0-0.3H46.9z"/></svg>