<svg xmlns="http://www.w3.org/2000/svg" viewBox="0 0 64 64"><path fill="#d92949" d="M63.013,32C63.013,14.875,49.125,0.987,32,0.987S0.988,14.875,0.988,32S14.875,63.012,32,63.012 S63.013,49.125,63.013,32z"/><path fill="#42413a" d="M17.138,49.156L17.138,49.156c-0.828,0-1.5-0.672-1.5-1.5v-2.5h3v2.5 C18.638,48.484,17.967,49.156,17.138,49.156z"/><path fill="#42413a" d="M48.138,49.156L48.138,49.156c-0.828,0-1.5-0.672-1.5-1.5v-2.5h3v2.5 C49.638,48.484,48.967,49.156,48.138,49.156z"/><rect width="4" height="12" x="30.638" y="21.156" fill="#8e8d7c"/><rect width="38" height="6.844" x="13.638" y="40.156" fill="#8e8d7c"/><polygon fill="#b7cac4" points="51.638,40.156 13.638,40.156 19.638,31.156 45.638,31.156"/><path fill="#42413a" d="M39.638,21.156h-14c-1.105,0-2-0.895-2-2v-5c0-1.105,0.895-2,2-2h14c1.105,0,2,0.895,2,2v5 C41.638,20.26,40.743,21.156,39.638,21.156z"/><rect width="7" height="3" x="31.638" y="15.156" fill="#3addd1"/></svg>