<svg xmlns="http://www.w3.org/2000/svg" viewBox="0 0 48 48"><path fill="#71c598" d="M28.608,29.324c1.204-0.348,4.233-0.744,5.459-1.006c4.437-0.95,6.879-2.995,9.31-6.789 s2.875-8.906,0.633-12.811c-0.297-0.518-0.64-1.015-1.063-1.44c-0.468-0.47-1.025-0.842-1.581-1.205 c-1.042-0.68-2.098-1.341-3.165-1.982c-0.679-0.408-1.371-0.812-2.131-1.042c-0.769-0.233-1.581-0.281-2.384-0.328 c-2.649-0.153-5.333-0.304-7.934,0.216s-4.6,2.007-6.516,3.823c-1.53,1.45-3.219,2.422-4.667,3.952 c-1.85,1.955-3.554,4.039-5.255,6.121c-1.023,1.252-2.189,3.22-3.008,4.611c-2.722,4.622-2.882,9.471-2.683,14.816 c0.053,1.423,0.197,2.884,0.852,4.152c0.798,1.543,2.298,2.652,3.934,3.272c1.636,0.62,3.41,0.795,5.162,0.838 c2.205,0.054,4.548-0.137,6.34-1.41c0.825-0.586,1.484-1.371,2.085-2.181c0.616-0.831,1.189-1.713,1.495-2.698 c0.348-1.117,0.337-2.306,0.45-3.47c0.113-1.163,0.382-2.374,1.169-3.246c0.396-0.439,0.901-0.766,1.409-1.07 C27.2,30.04,27.843,29.545,28.608,29.324z"/><path fill="#2b8c5e" d="M42.565,13.032c0.573,2.439,0.039,5.111-1.429,7.151c-0.836,1.161-1.943,2.107-3.125,2.922 c-2.289,1.58-4.895,2.709-7.622,3.301c-1.446,0.314-2.929,0.48-4.335,0.937s-2.769,1.257-3.518,2.52 c-1.231,2.076-0.504,4.727-1.006,7.082c-0.562,2.637-2.833,4.836-5.51,5.335c-1.759,0.327-3.577-0.028-5.28-0.574 c-1.627-0.521-3.28-1.282-4.246-2.678c-1.302-1.883-1.028-4.394-0.587-6.634c1.289-6.547,3.676-13.096,8.283-17.966 c1.567-1.657,3.36-3.086,5.148-4.506c2.188-1.738,4.45-3.508,7.131-4.326c1.881-0.574,3.879-0.649,5.848-0.646 c2.446,0.004,4.373,0.67,6.279,2.187C40.57,8.708,41.992,10.593,42.565,13.032z M28.608,29.324 c1.204-0.348,4.233-0.744,5.459-1.006c4.437-0.95,6.879-2.995,9.31-6.789s2.875-8.906,0.633-12.811 c-0.297-0.518-0.64-1.015-1.063-1.44c-0.468-0.47-1.025-0.842-1.581-1.205c-1.042-0.68-2.098-1.341-3.165-1.982 c-0.679-0.408-1.371-0.812-2.131-1.042c-0.769-0.233-1.581-0.281-2.384-0.328c-2.649-0.153-5.333-0.304-7.934,0.216 s-4.6,2.007-6.516,3.823c-1.53,1.45-3.219,2.422-4.667,3.952c-1.85,1.955-3.554,4.039-5.255,6.121 c-1.023,1.252-2.189,3.22-3.008,4.611c-2.722,4.622-2.882,9.471-2.683,14.816c0.053,1.423,0.197,2.884,0.852,4.152 c0.798,1.543,2.298,2.652,3.934,3.272c1.636,0.62,3.41,0.795,5.162,0.838c2.205,0.054,4.548-0.137,6.34-1.41 c0.825-0.586,1.484-1.371,2.085-2.181c0.616-0.831,1.189-1.713,1.495-2.698c0.348-1.117,0.337-2.306,0.45-3.47 c0.113-1.163,0.382-2.374,1.169-3.246c0.396-0.439,0.901-0.766,1.409-1.07C27.2,30.04,27.843,29.545,28.608,29.324z"/><path fill="#010101" d="M14.61,42.907c-1.193,0-2.504-0.238-4.022-0.724c-1.39-0.446-3.369-1.228-4.504-2.87 c-1.405-2.031-1.125-4.686-0.667-7.015c1.56-7.922,4.311-13.879,8.411-18.213c1.608-1.7,3.434-3.151,5.201-4.555 c2.096-1.664,4.472-3.551,7.296-4.413c1.83-0.558,3.696-0.693,5.995-0.667c2.567,0.003,4.599,0.711,6.59,2.296 c2.229,1.774,3.583,3.793,4.143,6.171c0.605,2.577,0.041,5.402-1.511,7.558c-0.771,1.071-1.833,2.065-3.246,3.041 c-2.329,1.608-5.026,2.777-7.8,3.379c-0.491,0.106-0.987,0.196-1.482,0.286c-0.979,0.178-1.903,0.345-2.804,0.638 c-1.062,0.346-2.487,1.025-3.243,2.3c-0.688,1.16-0.705,2.554-0.721,4.027c-0.011,0.957-0.022,1.947-0.226,2.903 c-0.604,2.834-3.033,5.188-5.908,5.722C15.629,42.862,15.131,42.907,14.61,42.907z M32.222,5.451c-2.142,0-3.919,0.109-5.605,0.624 c-2.642,0.807-4.939,2.63-6.966,4.239c-1.739,1.382-3.537,2.81-5.096,4.459c-3.966,4.191-6.634,9.987-8.156,17.719 c-0.419,2.124-0.686,4.527,0.507,6.253c0.962,1.391,2.736,2.085,3.987,2.485c2.016,0.646,3.616,0.823,5.035,0.559 c2.489-0.463,4.591-2.498,5.112-4.948c0.183-0.858,0.194-1.797,0.204-2.705c0.018-1.542,0.036-3.136,0.861-4.526 c0.915-1.542,2.568-2.342,3.793-2.741c0.966-0.313,1.967-0.495,2.936-0.67c0.484-0.088,0.968-0.176,1.448-0.279 c2.647-0.575,5.221-1.69,7.443-3.225c1.318-0.91,2.3-1.827,3.003-2.803c1.385-1.924,1.889-4.445,1.349-6.745 c-0.505-2.15-1.746-3.988-3.792-5.616l0,0c-1.802-1.436-3.643-2.076-5.968-2.079C32.286,5.451,32.253,5.451,32.222,5.451z"/><path fill="#010101" d="M14.221,45.032c-0.227,0-0.448-0.004-0.663-0.009c-1.509-0.037-3.478-0.17-5.327-0.87 c-1.914-0.726-3.406-1.973-4.201-3.511c-0.705-1.364-0.853-2.902-0.907-4.362c-0.185-4.956-0.125-10.203,2.751-15.089 c0.74-1.257,1.979-3.36,3.052-4.674c1.679-2.054,3.414-4.178,5.279-6.148c0.828-0.874,1.735-1.575,2.613-2.253 c0.692-0.535,1.408-1.088,2.073-1.719c1.717-1.628,3.863-3.37,6.762-3.95c2.684-0.536,5.417-0.378,8.062-0.225 c0.82,0.047,1.668,0.096,2.5,0.348c0.796,0.241,1.515,0.654,2.243,1.092c1.063,0.64,2.134,1.31,3.181,1.992 c0.62,0.404,1.172,0.779,1.663,1.271c0.406,0.407,0.78,0.912,1.142,1.543c2.231,3.888,1.972,9.245-0.646,13.33 c-2.679,4.181-5.289,6.079-9.627,7.008c-0.486,0.104-1.252,0.229-2.078,0.363c-1.239,0.202-2.644,0.432-3.347,0.635l0,0 c-0.511,0.147-0.977,0.445-1.47,0.76c-0.166,0.106-0.332,0.212-0.5,0.313c-0.436,0.262-0.931,0.574-1.295,0.977 c-0.757,0.84-0.958,2.092-1.042,2.96c-0.029,0.294-0.049,0.591-0.07,0.887c-0.062,0.884-0.125,1.798-0.4,2.683 c-0.345,1.107-0.987,2.061-1.571,2.848c-0.566,0.763-1.269,1.631-2.198,2.29C18.404,44.796,16.138,45.032,14.221,45.032z M29.904,3.076c-1.363,0-2.724,0.086-4.054,0.352c-2.65,0.53-4.657,2.166-6.27,3.696c-0.703,0.665-1.438,1.233-2.15,1.783 c-0.887,0.685-1.724,1.332-2.498,2.149c-1.84,1.944-3.564,4.054-5.231,6.094c-1.024,1.254-2.239,3.316-2.965,4.549 c-2.742,4.656-2.801,9.536-2.614,14.544c0.05,1.344,0.182,2.751,0.797,3.94c0.682,1.318,1.984,2.396,3.667,3.034 c1.708,0.647,3.567,0.771,4.997,0.806c1.882,0.049,4.271-0.062,6.038-1.317c0.814-0.579,1.455-1.372,1.973-2.071 c0.534-0.72,1.12-1.585,1.419-2.549c0.241-0.773,0.298-1.59,0.358-2.455c0.021-0.306,0.042-0.61,0.072-0.915 c0.098-1.009,0.339-2.473,1.294-3.532c0.457-0.505,1.026-0.866,1.524-1.164c0.16-0.096,0.318-0.197,0.476-0.298 c0.531-0.34,1.081-0.69,1.731-0.878c0.761-0.22,2.197-0.454,3.464-0.66c0.806-0.132,1.555-0.253,2.029-0.355 c4.042-0.864,6.479-2.645,8.995-6.568c2.421-3.78,2.67-8.72,0.62-12.293c-0.318-0.555-0.639-0.991-0.983-1.335 c-0.422-0.424-0.929-0.767-1.5-1.14c-1.037-0.676-2.096-1.34-3.149-1.973c-0.698-0.42-1.331-0.783-2.018-0.992 c-0.718-0.218-1.505-0.263-2.267-0.307C32.419,3.149,31.161,3.076,29.904,3.076z M28.607,29.324h0.01H28.607z"/><path fill="#38b47b" d="M29.566,9.433c-1.257-0.019-2.146,0.394-3.179,1.103c-1.006,0.69-1.674,1.858-1.701,3.069 c-0.027,1.211,0.61,2.428,1.654,3.06c0.71,0.43,1.553,0.583,2.381,0.666c0.957,0.096,1.949,0.103,2.849-0.231 c1.852-0.688,2.94-2.936,2.321-4.795C33.272,10.445,31.545,9.463,29.566,9.433z"/><path fill="#010101" d="M29.757,17.888c-0.388,0-0.755-0.027-1.085-0.061c-0.765-0.075-1.751-0.228-2.59-0.735 c-1.183-0.716-1.927-2.089-1.896-3.498c0.03-1.349,0.765-2.678,1.918-3.47c1.064-0.73,2.07-1.194,3.47-1.191 c2.307,0.035,4.144,1.267,4.792,3.213c0.703,2.108-0.521,4.643-2.62,5.423C31.083,17.814,30.394,17.888,29.757,17.888z M29.483,9.932c-1.108,0-1.901,0.391-2.813,1.017c-0.893,0.613-1.461,1.635-1.484,2.667c-0.023,1.059,0.531,2.087,1.414,2.621 c0.667,0.403,1.511,0.53,2.171,0.596c0.763,0.077,1.752,0.122,2.626-0.201c1.587-0.59,2.55-2.577,2.02-4.169 c-0.519-1.555-1.961-2.5-3.859-2.529l0,0C29.533,9.933,29.508,9.932,29.483,9.932z"/><path fill="#38b47b" d="M23.955,20.709c-0.498-0.151-0.987-0.257-1.427,0.011c-0.44,0.268-0.738,0.711-0.898,1.183 c-0.083,0.245-0.132,0.505-0.103,0.761c0.049,0.433,0.314,0.813,0.582,1.167c0.112,0.147,0.228,0.295,0.378,0.408 c0.3,0.224,0.714,0.282,1.088,0.21s0.715-0.259,1.016-0.482c0.215-0.159,0.415-0.34,0.565-0.555 c0.332-0.478,0.384-1.119,0.132-1.639S24.53,20.884,23.955,20.709z"/><path fill="#010101" d="M23.268,24.978c-0.402,0-0.781-0.116-1.079-0.338c-0.198-0.148-0.339-0.325-0.478-0.508 c-0.296-0.391-0.618-0.854-0.681-1.413c-0.035-0.303,0.007-0.622,0.126-0.976c0.212-0.627,0.606-1.143,1.111-1.45 c0.68-0.413,1.429-0.185,1.833-0.063c0.742,0.226,1.339,0.708,1.638,1.322c0.329,0.68,0.262,1.521-0.171,2.144 c-0.163,0.234-0.384,0.454-0.678,0.672c-0.415,0.308-0.813,0.494-1.22,0.571C23.535,24.965,23.4,24.978,23.268,24.978z M23.145,21.056c-0.135,0-0.251,0.027-0.356,0.091c-0.304,0.186-0.547,0.512-0.684,0.917c-0.071,0.211-0.098,0.389-0.08,0.543 c0.035,0.308,0.258,0.624,0.484,0.922c0.101,0.133,0.185,0.239,0.279,0.31c0.167,0.123,0.432,0.171,0.696,0.119 c0.255-0.049,0.521-0.177,0.812-0.393c0.204-0.151,0.352-0.295,0.452-0.438c0.23-0.331,0.267-0.777,0.092-1.137 c-0.177-0.364-0.552-0.657-1.029-0.802l0,0C23.545,21.106,23.328,21.056,23.145,21.056z"/><path fill="#38b47b" d="M15.114,24.688c-0.553-0.295-1.361-0.19-1.923,0.086C12.63,25.05,12.5,25.436,12.054,25.9 c-0.156,0.162-0.312,0.329-0.411,0.538c-0.149,0.316-0.148,0.688-0.14,1.043c0.008,0.328,0.021,0.668,0.154,0.962 c0.156,0.345,0.457,0.584,0.771,0.755c0.861,0.469,1.931,0.501,2.775-0.005c0.843-0.506,1.407-1.572,1.302-2.621 c-0.027-0.268-0.095-0.534-0.226-0.761C15.975,25.283,15.605,25.006,15.114,24.688z"/><path fill="#010101" d="M13.84,30.063c-0.561,0-1.13-0.142-1.65-0.424c-0.477-0.26-0.81-0.593-0.988-0.989 c-0.167-0.37-0.189-0.758-0.198-1.156c-0.01-0.436-0.003-0.861,0.187-1.267c0.138-0.292,0.349-0.512,0.503-0.673 c0.135-0.14,0.237-0.272,0.333-0.396c0.229-0.294,0.466-0.598,0.945-0.833c0.653-0.319,1.643-0.469,2.378-0.078 c0.012,0.007,0.024,0.014,0.036,0.021c0.489,0.315,0.958,0.652,1.327,1.295c0.156,0.271,0.253,0.594,0.29,0.96 c0.12,1.207-0.514,2.481-1.542,3.1C14.972,29.916,14.411,30.063,13.84,30.063z M14.318,25.013c-0.295,0-0.625,0.072-0.906,0.21 c-0.273,0.134-0.402,0.3-0.598,0.551c-0.115,0.148-0.24,0.306-0.401,0.474c-0.143,0.148-0.257,0.272-0.319,0.405 c-0.098,0.208-0.1,0.494-0.092,0.818c0.007,0.302,0.02,0.567,0.11,0.768c0.087,0.193,0.273,0.369,0.555,0.521 c0.739,0.402,1.613,0.404,2.278,0.006c0.697-0.419,1.144-1.32,1.062-2.143c-0.022-0.225-0.077-0.414-0.162-0.562 c-0.234-0.407-0.505-0.63-0.983-0.94C14.717,25.048,14.526,25.013,14.318,25.013z"/><path fill="#38b47b" d="M11.505,31.77c-0.264-0.207-0.868-0.318-1.154-0.144c-0.409,0.248-0.703,0.674-0.789,1.141 C9.476,33.234,9.6,33.735,9.894,34.11c0.093,0.119,0.207,0.229,0.35,0.28c0.136,0.049,0.285,0.041,0.43,0.033 c0.511-0.029,1.075-0.082,1.427-0.45c0.265-0.278,0.349-0.678,0.383-1.059c0.009-0.105,0.015-0.214-0.023-0.313 c-0.044-0.115-0.14-0.201-0.236-0.278C11.956,32.104,11.811,31.935,11.505,31.77z"/><path fill="#010101" d="M10.515,34.929c-0.131,0-0.284-0.013-0.439-0.068C9.86,34.782,9.672,34.638,9.5,34.418 c-0.38-0.485-0.542-1.136-0.43-1.742c0.111-0.604,0.493-1.157,1.021-1.478c0.469-0.282,1.26-0.155,1.685,0.15 c0.248,0.139,0.411,0.281,0.569,0.42l0.195,0.167c0.094,0.075,0.292,0.235,0.388,0.489c0.072,0.188,0.068,0.367,0.053,0.533 c-0.034,0.387-0.125,0.948-0.519,1.36c-0.51,0.532-1.292,0.577-1.76,0.604C10.648,34.926,10.585,34.929,10.515,34.929z M10.723,32.039c-0.05,0-0.092,0.006-0.118,0.018c-0.283,0.172-0.491,0.472-0.552,0.801c-0.06,0.327,0.027,0.681,0.233,0.943 c0.076,0.097,0.12,0.116,0.127,0.119c0.043,0.015,0.159,0.007,0.229,0.004c0.436-0.025,0.878-0.068,1.097-0.296 c0.134-0.141,0.212-0.382,0.246-0.758c0.005-0.06,0.005-0.087,0.004-0.1c-0.001,0.006-0.025-0.014-0.079-0.058 c-0.084-0.069-0.157-0.132-0.225-0.192c-0.146-0.127-0.251-0.22-0.419-0.31c-0.025-0.014-0.049-0.029-0.071-0.047 C11.101,32.089,10.875,32.039,10.723,32.039z"/></svg>