<svg xmlns="http://www.w3.org/2000/svg" width="512" height="512" viewBox="0 0 512 512"><path fill="#D6E5E5" d="M418,207.6c-8.7-24.7-25.5-46-43.9-64.3c-18.6-18.5-40-34.5-63.9-45.4c-23.2-10.6-48.9-16.7-74.5-14.3c-27.1,2.6-53.3,14-76.2,28.3c-23.2,14.5-45.9,33.1-61.4,56c-9.7,14.4-16.1,30.3-20.4,46.8c-0.4,2.8-1.2,5.5-2,8.2c-0.3,1.3-0.6,2.7-0.8,4c-0.6,2.2-1.1,4.4-1.6,6.7c-0.7,4-1.1,8-1.7,12c-0.2,1.2-0.7,2.1-1.3,2.7c-3.9,32.4-3.4,66.1,5.4,97.6c8.7,30.9,25.4,61.1,53.1,78.8c41.2,26.5,95.8,26.5,141.3,12.4c48.3-15,89.3-45.3,118.3-86.6C416.7,309.8,435.1,256.5,418,207.6z M189.7,133.4c0.3-0.4,0.5-0.8,0.8-1.1c2-14.6,11.8-28.5,26.3-33c20.5-6.3,47.8,5.6,59.5,23.1c12.3,18.3,7,46.1-7.5,61.8c-15.7,16.9-41.7,19.4-60.9,6.6C190.9,179.5,177.6,152.9,189.7,133.4z M306.6,386.4c0.1,1.2-0.2,2.5-1.2,3.7c-1.4,1.8-4.2,2.3-6.3,2.5c-1.8,0.1-3.7,1.2-5.5,1.5c-2.2,0.4-4.4,0.7-6.7,1c-8.8,1.3-17.4,4.1-26.2,5.3c-19.4,2.7-39.5,4.2-59.1,4.2c-2,0-3.4-0.9-4.3-2.2c-1.9,0.1-3.9-0.9-4.8-3.1c-4.1-9.9-1.4-20.1,4.2-28.7c4.3-6.6,12.7-11.6,14.7-19.5c4-15.9-2.9-33-5.9-48.5c-1.8-9-1.2-18.7-4-27.3c-1.2-3.6-2.4-5.9-5.7-7.7c-2.7-1.4-5.5-2.9-7.8-4.9c-6.2-5.2-20.2-22-13.1-30.7c0.8-1.9,2.7-3.5,5.4-3.3c8.8,0.7,16.2-4.3,24.7-5.1c8.8-0.8,17.5-1.7,26.3-2.5c17.5-1.6,35.2-1.5,52.7-1.5c0.6,0,1.1,0.1,1.6,0.2c2.7-0.5,5.6,0.9,5.7,4.4c0.2,8.3,3.2,16.9,0.2,25c-2.3,6.3-7.7,10.3-13.8,12.4c-4.6,1.5-10,2.2-11,7.8c-1.8,10.3-0.4,21.4,1.1,31.6c1.4,9.4,1.9,18.9,3.2,28.3c0.6,4.6,1.3,9.3,2.6,13.8c1,3.2,2,7.9,4.6,10.2c5.7,5.2,14.8,2.9,20.8,8.1c6.2,5.4,8.2,12.8,9.3,20.7C308.4,384.1,307.7,385.5,306.6,386.4z"/><path fill="#EF4823" d="M268.8 129.1c-5.9-8.8-15.2-14.9-25.1-18.4-9.6-3.4-20.7-5-29.6 1-7 4.7-11.9 11.9-13.4 20.1-1.8 3.7-3.4 7.5-4.2 11.5-.1 0-.1 0-.2.1-2.3 8.3 0 18.1 4.1 25.4 4.9 8.8 13.2 15.6 23 18.4 9.8 2.8 21.2 3.1 29.9-2.8 8.7-5.9 15-14.2 17.8-24.5C273.8 149.8 274.9 138.1 268.8 129.1zM297.5 378.8c-.6-2.8-1.5-5.6-3.3-7.8-2.8-3.5-6.6-3.7-10.7-4.5-8.1-1.7-13.9-5.7-17.2-13.5-3.5-8.2-4.9-17.2-5.8-25.9-.9-9.1-1.9-18-3.1-27.1-1.4-10.2-3.2-22.2-.7-32.4 1.4-5.9 4.6-10.4 10.2-12.9 4.5-2 10.6-2.4 13.8-6.5 3.7-4.7 1.9-12.2.9-18.6-17.3 0-34.5.1-51.7 1.7-9.2.9-19.2.7-28 3.4-6.2 1.9-12.3 3.6-18.6 3.9.5 1.1 1.2 3.4 1.7 4.2 1.6 2.9 3.4 5.7 5.5 8.2 3.8 4.6 8.3 6.2 13.1 9.7 6.2 4.5 8.3 12.9 9.1 20.1 1 8.2 1.6 16.4 3.4 24.5 3.4 14.6 9 31.4 5.3 46.5-.8 3.4-2 6.6-3.9 9.5-2.1 3.3-5.2 5.7-7.8 8.6-6.1 6.8-11.4 15.4-8.4 24.6 18.2-.1 36.8-1.5 54.8-3.8 8.5-1.1 17-2.7 25.3-5 3.8-1 7.9-.9 11.7-1.9 1.1-.3 2.1-.6 3.1-.9.3-.3.6-.6 1-.9C296.9 381 297 379.8 297.5 378.8z"/><path fill="#EF4823" d="M457,173c-21.3-43.4-61.6-77.5-104.2-99C310,52.3,260.5,40.9,212.7,48.5C133.7,61,57.3,118.8,34.7,196.4c0,0.9-0.2,1.7-0.7,2.6c-0.4,1.4-0.8,2.9-1.1,4.3c-0.5,1-1,2-1.4,3.1c-0.1,0.9-0.3,1.9-0.4,2.7c-0.9,4.1-2,8.2-2.7,12.3c-1.4,7.7-1.1,15.7-3.8,23c-0.2,2.1-0.5,4.2-0.8,6.3c0,0.3,0,0.5,0,0.7c-0.5,4.4-0.9,8.8-1.3,13.2c-0.8,9.2-1.2,18.4-1.1,27.6c0.3,18.1,2.4,36.2,6.9,53.7c8.7,33.3,25.5,64.8,52,87.3c18.2,15.5,39.5,25.7,62.4,32.3c25,7.3,51,11.4,77.1,11.5c51.5,0.1,103.2-13.9,145.6-43.7C443.8,378.1,503,266.5,457,173z M418,318.5c-20.8,45.2-56.1,84.8-99.9,108.8c-42.9,23.5-94.1,35.3-142.6,25.9c-22.8-4.4-45-13-63-28c-16.5-13.8-29.1-31.7-37.7-51.3c-18.5-42.2-20-90.2-13.5-135.2c0.2-1.2,0.7-2.1,1.4-2.8c0.5-3.6,1-7.1,1.9-10.6c0.3-0.9,0.6-1.9,0.9-2.8c0.7-3.4,1.5-6.8,2.4-10.1c0,0,0,0,0-0.1c0-1.1,0.3-2.1,0.8-2.9c4.2-15.2,10-29.8,18.6-43.1c14.7-22.9,35.7-42,58.2-57.2c22.3-15.1,47.7-27.8,74.2-33.2c24.5-5,50.1-3.1,73.7,4.7c24.6,8.1,47.4,21,67.5,37.3c19.9,16.1,38.5,35.4,52.4,57c13.6,21.3,21.4,46.1,21.4,71.4C434.5,271.3,428.4,295.9,418,318.5z"/><path d="M456.7,152.1c-25.2-40.4-65.9-71.6-108.7-91.6C304.7,40.3,255.1,31,207.7,39.2c-81.8,14.2-160,74.7-182.9,155.6c-3.3,5.5-3.8,13.1-5.2,19.2c-1,4.3-1.7,8.7-2.3,13.1c-0.1,0.4-0.1,0.9-0.2,1.3c-0.1,0.3-0.2,0.5-0.2,0.8c-0.8,4.2-1.5,8.4-2.1,12.6c0,0.1-0.1,0.1-0.1,0.2c-0.5,1.2-0.6,2.3-0.4,3.2c-1,8.1-1.7,16.2-2.3,24.3c-0.8,11.4-0.9,22.9-0.3,34.3c1.3,22.3,5.6,44.5,13.3,65.5c15.3,41.8,45.5,76.5,86.1,95.3c23.1,10.6,48.8,16.7,73.9,20c25.5,3.3,51.5,3.1,77-0.6c50.9-7.4,98.5-29.7,136.1-64.8c36.4-33.9,65-77.6,78.1-125.8C489.5,245.5,483.2,194.6,456.7,152.1z M365.4,433.4c-42.4,29.8-94.1,43.8-145.6,43.7c-26.1-0.1-52.1-4.2-77.1-11.5c-22.9-6.7-44.2-16.8-62.4-32.3c-26.5-22.5-43.3-54-52-87.3c-4.6-17.5-6.6-35.6-6.9-53.7c-0.2-9.2,0.2-18.4,1.1-27.6c0.4-4.4,0.8-8.8,1.3-13.2c0-0.2,0-0.5,0-0.7c0.3-2.1,0.6-4.2,0.8-6.3c2.7-7.3,2.4-15.4,3.8-23c0.8-4.1,1.8-8.2,2.7-12.3c0.2-0.8,0.3-1.8,0.4-2.7c0.4-1,0.9-2.1,1.4-3.1c0.4-1.4,0.7-2.9,1.1-4.3c0.5-0.9,0.8-1.8,0.7-2.6c22.6-77.6,99-135.5,177.9-147.9c47.9-7.6,97.3,3.8,140.1,25.5c42.6,21.5,82.8,55.7,104.2,99C503,266.5,443.8,378.1,365.4,433.4z"/><path d="M413.1,175c-13.8-21.6-32.5-40.9-52.4-57c-20.1-16.3-42.9-29.2-67.5-37.3c-23.7-7.8-49.3-9.7-73.7-4.7c-26.5,5.4-51.9,18.2-74.2,33.2c-22.5,15.2-43.4,34.3-58.2,57.2c-8.5,13.3-14.4,28-18.6,43.1c-0.5,0.8-0.8,1.7-0.8,2.9c0,0,0,0,0,0.1c-0.9,3.3-1.7,6.7-2.4,10.1c-0.3,1-0.6,1.9-0.9,2.8c-0.9,3.4-1.5,7-1.9,10.6c-0.7,0.6-1.2,1.5-1.4,2.8c-6.5,45-4.9,93,13.5,135.2c8.6,19.7,21.2,37.5,37.7,51.3c18,15,40.2,23.6,63,28c48.6,9.4,99.8-2.4,142.6-25.9c43.8-24,79.1-63.5,99.9-108.8c10.4-22.6,16.5-47.2,16.5-72.1C434.5,221,426.7,196.3,413.1,175z M388.2,350.4c-29,41.4-70,71.6-118.3,86.6c-45.5,14.2-100.1,14.1-141.3-12.4c-27.7-17.7-44.4-47.9-53.1-78.8c-8.8-31.5-9.3-65.2-5.4-97.6c0.7-0.6,1.1-1.5,1.3-2.7c0.6-4,1.1-8,1.7-12c0.5-2.2,1.1-4.4,1.6-6.7c0.3-1.3,0.6-2.7,0.8-4c0.8-2.7,1.6-5.4,2-8.2c4.3-16.5,10.7-32.5,20.4-46.8c15.4-22.9,38.1-41.5,61.4-56c22.9-14.3,49.1-25.8,76.2-28.3c25.6-2.4,51.3,3.7,74.5,14.3c23.9,10.9,45.3,27,63.9,45.4c18.5,18.3,35.3,39.6,43.9,64.3C435.1,256.5,416.7,309.8,388.2,350.4z"/><path d="M276.4 122.4c-11.8-17.4-39-29.4-59.5-23.1-14.5 4.5-24.3 18.3-26.3 33-.3.3-.6.6-.8 1.1-12.1 19.4 1.2 46.1 18.2 57.4 19.2 12.8 45.2 10.3 60.9-6.6C283.4 168.5 288.7 140.7 276.4 122.4zM271.1 159.8c-2.8 10.3-9.1 18.6-17.8 24.5-8.8 5.9-20.2 5.6-29.9 2.8-9.8-2.8-18-9.6-23-18.4-4.1-7.3-6.4-17.1-4.1-25.4.1 0 .1 0 .2-.1.8-4 2.4-7.8 4.2-11.5 1.5-8.1 6.4-15.3 13.4-20.1 8.9-6 20-4.4 29.6-1 9.9 3.5 19.2 9.6 25.1 18.4C274.9 138.1 273.8 149.8 271.1 159.8zM308.2 382.3c-1.1-7.9-3.1-15.3-9.3-20.7-6-5.3-15.1-2.9-20.8-8.1-2.6-2.4-3.7-7-4.6-10.2-1.3-4.5-2-9.1-2.6-13.8-1.2-9.4-1.8-18.9-3.2-28.3-1.5-10.2-3-21.3-1.1-31.6 1-5.6 6.4-6.3 11-7.8 6.2-2 11.6-6.1 13.8-12.4 2.9-8.1 0-16.7-.2-25-.1-3.5-3.1-4.9-5.7-4.4-.5-.2-1-.2-1.6-.2-17.6 0-35.2-.1-52.7 1.5-8.8.8-17.5 1.7-26.3 2.5-8.5.8-15.8 5.7-24.7 5.1-2.6-.2-4.5 1.4-5.4 3.3-7.1 8.6 6.9 25.5 13.1 30.7 2.3 2 5.2 3.4 7.8 4.9 3.3 1.8 4.5 4.1 5.7 7.7 2.8 8.7 2.2 18.4 4 27.3 3.1 15.5 9.9 32.6 5.9 48.5-2 7.9-10.4 12.8-14.7 19.5-5.6 8.7-8.3 18.8-4.2 28.7.9 2.3 2.9 3.2 4.8 3.1.9 1.3 2.3 2.2 4.3 2.2 19.6-.1 39.7-1.6 59.1-4.2 8.9-1.2 17.4-4 26.2-5.3 2.2-.3 4.5-.6 6.7-1 1.8-.3 3.8-1.3 5.5-1.5 2.1-.2 4.9-.7 6.3-2.5.9-1.2 1.3-2.5 1.2-3.7C307.7 385.5 308.4 384.1 308.2 382.3zM297.3 382.2c-.4.2-.8.5-1 .9-1 .3-2.1.6-3.1.9-3.8 1.1-7.9.9-11.7 1.9-8.3 2.2-16.7 3.9-25.3 5-18 2.3-36.7 3.6-54.8 3.8-3-9.2 2.2-17.8 8.4-24.6 2.6-2.9 5.7-5.2 7.8-8.6 1.9-2.9 3.1-6.1 3.9-9.5 3.7-15.1-1.9-31.9-5.3-46.5-1.9-8.1-2.5-16.3-3.4-24.5-.9-7.3-2.9-15.6-9.1-20.1-4.8-3.5-9.4-5.1-13.1-9.7-2.1-2.6-3.9-5.3-5.5-8.2-.5-.9-1.3-3.1-1.7-4.2 6.4-.3 12.4-2 18.6-3.9 8.8-2.7 18.9-2.5 28-3.4 17.2-1.6 34.5-1.7 51.7-1.7 1 6.3 2.8 13.9-.9 18.6-3.2 4.1-9.3 4.5-13.8 6.5-5.6 2.5-8.8 7-10.2 12.9-2.5 10.2-.7 22.2.7 32.4 1.2 9 2.1 18 3.1 27.1.9 8.8 2.3 17.8 5.8 25.9 3.3 7.8 9.1 11.8 17.2 13.5 4.1.8 7.9 1.1 10.7 4.5 1.8 2.2 2.7 5 3.3 7.8C297 379.8 296.9 381 297.3 382.2z"/></svg>