<?xml version="1.0"?><svg xmlns="http://www.w3.org/2000/svg" viewBox="0 0 128 128">    <path d="M 87 26 C 85.3 26 84 27.3 84 29 L 84 44 C 84 45.7 85.3 47 87 47 C 88.7 47 90 45.7 90 44 L 90 29 C 90 27.3 88.7 26 87 26 z M 53 29 C 52.9 29 52.799219 28.999609 52.699219 29.099609 C 52.599219 29.099609 52.500391 29.199219 52.400391 29.199219 C 52.300391 29.199219 52.199609 29.300781 52.099609 29.300781 C 51.999609 29.400781 51.900781 29.4 51.800781 29.5 C 51.700781 29.5 51.699609 29.599609 51.599609 29.599609 L 51.5 29.699219 L 51.400391 29.800781 C 48.000391 32.500781 45.499219 36.099609 44.199219 40.099609 C 40.299219 38.099609 36 37.300391 31.5 37.900391 C 30.1 38.100391 29.100391 39.1 28.900391 40.5 C 28.600391 42.6 28.7 44.700781 29 46.800781 C 29.9 48.200781 31.199609 49.199219 32.599609 49.199219 L 33.099609 49.199219 C 34.699609 48.899219 35.799609 47.399219 35.599609 45.699219 C 35.499609 44.999219 35.400391 44.299609 35.400391 43.599609 C 38.900391 43.699609 42.200391 44.899219 44.900391 47.199219 C 44.900391 47.199219 45 47.200781 45 47.300781 C 45.1 47.400781 45.200391 47.499609 45.400391 47.599609 C 45.500391 47.599609 45.499609 47.699219 45.599609 47.699219 C 45.699609 47.699219 45.800391 47.800781 45.900391 47.800781 C 46.000391 47.800781 46.099219 47.800391 46.199219 47.900391 C 46.299219 47.900391 46.400391 47.9 46.400391 48 L 46.599609 48 L 46.800781 48 L 47 48 C 47.1 48 47.200781 48.000391 47.300781 47.900391 C 47.400781 47.900391 47.5 47.900781 47.5 47.800781 C 47.6 47.800781 47.700781 47.699219 47.800781 47.699219 C 47.900781 47.699219 47.9 47.599609 48 47.599609 C 48.1 47.499609 48.200781 47.500391 48.300781 47.400391 C 48.400781 47.400391 48.4 47.300781 48.5 47.300781 L 48.800781 47 L 48.900391 46.900391 C 49.000391 46.700391 49.099219 46.600391 49.199219 46.400391 C 49.299219 46.200391 49.300391 46.100391 49.400391 45.900391 C 49.400391 45.800391 49.4 45.699609 49.5 45.599609 C 49.5 45.499609 49.499609 45.400781 49.599609 45.300781 C 49.999609 41.800781 51.500781 38.699609 53.800781 36.099609 C 56.100781 38.599609 57.6 41.699609 58 45.099609 C 58.2 46.599609 59.5 47.699219 61 47.699219 L 61.400391 47.699219 C 63.000391 47.499219 64.2 46.000391 64 44.400391 C 63.3 38.600391 60.400781 33.400781 55.800781 29.800781 L 55.699219 29.699219 L 55.599609 29.599609 C 55.499609 29.599609 55.500391 29.5 55.400391 29.5 C 55.300391 29.4 55.199609 29.400781 55.099609 29.300781 C 54.999609 29.300781 54.900781 29.199219 54.800781 29.199219 C 54.700781 29.199219 54.6 29.099609 54.5 29.099609 C 54.4 29.099609 54.299219 29.1 54.199219 29 L 53.900391 29 L 53.599609 29 L 53.300781 29 L 53 29 z M 73 36 C 71.3 36 70 37.3 70 39 L 70 52.699219 L 70 53 C 68.4 55.1 66.400781 57.399219 64.300781 59.699219 C 64.300781 58.599219 63.699609 57.599609 62.599609 57.099609 C 57.099609 54.399609 54.300391 53.699609 51.900391 53.099609 C 51.200391 52.899609 50.499219 52.8 49.699219 52.5 C 45.799219 51.3 41.6 50.8 37.5 51 C 18.4 51.8 2.3996094 67.300391 1.0996094 86.400391 C 0.39960937 97.000391 3.9992188 107.20039 11.199219 114.90039 C 18.399219 122.60039 28.5 127 39 127 L 39.800781 127 L 40 127 L 124 127 C 125.7 127 127 125.7 127 124 C 127 122.3 125.7 121 124 121 L 115.90039 121 C 120.50039 116.8 123.40039 110.7 123.40039 104 C 123.40039 87.9 111.10078 75.400391 100.30078 64.400391 C 96.100781 60.100391 92.100391 56.000781 89.400391 52.300781 C 88.800391 51.500781 87.900391 50.999609 86.900391 51.099609 C 85.900391 51.099609 85 51.6 84.5 52.5 L 77.5 63.5 C 76.6 64.9 77.000391 66.799609 78.400391 67.599609 C 79.800391 68.499609 81.7 68.099219 82.5 66.699219 L 87.199219 59.300781 C 89.799219 62.300781 92.8 65.499219 96 68.699219 C 101.1 73.899219 106.59922 79.5 110.69922 85.5 C 101.79922 86.2 95.3 80.4 92 79.5 C 91.2 79.2 90.299609 79.299219 89.599609 79.699219 C 88.199609 80.499219 87.7 82.400781 88.5 83.800781 C 92.7 91.000781 97 98.4 97 104 C 97 113.4 89.4 121 80 121 C 70.6 121 63 113.4 63 104 C 63 102.3 61.7 101 60 101 C 58.3 101 57 102.3 57 104 C 57 110.5 59.7 116.3 64 120.5 C 62.7 120.8 61.3 121 60 121 C 50.6 121 43 113.4 43 104 C 43 90.3 54.299219 78.700391 64.199219 68.400391 C 68.499219 64.000391 72.500391 59.799219 75.400391 55.699219 C 75.900391 54.999219 76.100391 54.100781 75.900391 53.300781 C 75.900391 53.100781 76 52.899609 76 52.599609 L 76 39 C 76 37.3 74.7 36 73 36 z M 37.699219 57 C 41.199219 56.9 44.7 57.300781 48 58.300781 C 48.9 58.600781 49.7 58.700391 50.5 58.900391 C 51.6 59.200391 52.799219 59.400391 54.199219 59.900391 C 43.299219 71.300391 30 85.4 30 104 C 30 110.2 31.899609 116.00078 35.099609 120.80078 C 27.599609 119.90078 20.799609 116.50039 15.599609 110.90039 C 9.4996094 104.40039 6.4996094 95.800781 7.0996094 86.800781 C 8.1996094 70.700781 21.599219 57.6 37.699219 57 z M 36.697266 59.451172 C 36.499805 59.446484 36.299609 59.4625 36.099609 59.5 C 28.099609 61 20.999609 65.499219 16.099609 72.199219 C 15.099609 73.499219 15.400781 75.400391 16.800781 76.400391 C 17.300781 76.800391 17.999609 77 18.599609 77 C 19.499609 77 20.4 76.600781 21 75.800781 C 24.9 70.400781 30.699219 66.7 37.199219 65.5 C 38.799219 65.2 39.899609 63.6 39.599609 62 C 39.337109 60.5125 38.079492 59.483984 36.697266 59.451172 z M 13.599609 82.175781 C 12.824609 82.175781 12.05 82.45 11.5 83 C 11.4 83.1 11.199609 83.3 11.099609 83.5 C 10.999609 83.7 10.900781 83.8 10.800781 84 C 10.700781 84.2 10.699609 84.399609 10.599609 84.599609 C 10.599609 84.799609 10.5 84.999219 10.5 85.199219 C 10.5 85.999219 10.800391 86.800781 11.400391 87.300781 C 12.000391 87.900781 12.7 88.199219 13.5 88.199219 C 13.7 88.199219 13.899609 88.199609 14.099609 88.099609 C 14.299609 88.099609 14.499219 88.000391 14.699219 87.900391 C 14.899219 87.800391 15.099219 87.699609 15.199219 87.599609 C 15.399219 87.499609 15.499219 87.399219 15.699219 87.199219 C 16.299219 86.599219 16.599609 85.899609 16.599609 85.099609 C 16.599609 84.299609 16.299219 83.5 15.699219 83 C 15.149219 82.45 14.374609 82.175781 13.599609 82.175781 z M 10.099609 120.82422 C 9.8996094 120.82422 9.7 120.85039 9.5 120.90039 C 9.3 120.90039 9.1003906 120.99961 8.9003906 121.09961 C 8.7003906 121.19961 8.6003906 121.30039 8.4003906 121.40039 C 8.2003906 121.50039 8.1 121.60078 8 121.80078 C 7.3 122.40078 7 123.2 7 124 C 7 124.8 7.3003906 125.59961 7.9003906 126.09961 C 8.5003906 126.69961 9.2 127 10 127 C 10.8 127 11.599609 126.69961 12.099609 126.09961 C 12.199609 125.99961 12.4 125.79961 12.5 125.59961 C 12.6 125.39961 12.700781 125.29961 12.800781 125.09961 C 12.900781 124.89961 12.9 124.7 13 124.5 C 13 124.3 13.099609 124.10039 13.099609 123.90039 C 13.099609 123.10039 12.799219 122.30078 12.199219 121.80078 L 11.800781 121.40039 C 11.600781 121.30039 11.500781 121.19961 11.300781 121.09961 C 11.100781 120.99961 10.899219 121.00039 10.699219 120.90039 C 10.499219 120.85039 10.299609 120.82422 10.099609 120.82422 z"/></svg>