<?xml version="1.0"?><svg xmlns="http://www.w3.org/2000/svg" viewBox="0 0 30 30">    <path d="M 14 2 A 3 3 0 0 0 11 5 A 3 3 0 0 0 14 8 A 3 3 0 0 0 17 5 A 3 3 0 0 0 14 2 z M 21 4 C 20.448 4 20 4.448 20 5 L 20 6 L 20 7 C 20 7.552 20.448 8 21 8 L 25.5 8 A 0.5 0.5 0 0 0 26 7.5 A 0.5 0.5 0 0 0 25.730469 7.0566406 L 25.724609 7.0527344 L 24 6 L 25.726562 4.9453125 A 0.5 0.5 0 0 0 26 4.5 A 0.5 0.5 0 0 0 25.5 4 L 21 4 z M 13 10 C 11.35503 10 10 11.35503 10 13 L 10 19 A 1.0001 1.0001 0 0 0 11 20.013672 L 11 26.101562 C 11 26.537562 11.463203 27 12.033203 27 C 12.577203 27 13.028453 26.578156 13.064453 26.035156 L 13.501953 19.464844 C 13.519953 19.203844 13.737 19 14 19 C 14.263 19 14.480047 19.204797 14.498047 19.466797 L 14.935547 26.035156 C 14.971547 26.577156 15.422797 27 15.966797 27 C 16.536797 27 17 26.536797 17 25.966797 L 17 12 L 22 12 A 1.0001 1.0001 0 1 0 22 10 L 13 10 z"/></svg>