<svg xmlns="http://www.w3.org/2000/svg" viewBox="0 0 64 64"><linearGradient id="t5qhf3aCs75XrGROWwm_sa" x1="32" x2="32" y1="14.667" y2="57.76" gradientUnits="userSpaceOnUse" spreadMethod="reflect"><stop offset="0" stop-color="#1a6dff"/><stop offset="1" stop-color="#c822ff"/></linearGradient><path fill="url(#t5qhf3aCs75XrGROWwm_sa)" d="M55.114,47.011l-1.301-12.118l-1.988,0.213L53.102,47H10.676l1.349-13.498 C12.282,30.936,14.421,29,17,29h1h2h6h12h4h1v-2h-1c-1.654,0-3-1.346-3-3.001v-3.184c1.162-0.415,2-1.514,2-2.816 c0-1.654-1.346-3-3-3H26c-1.654,0-3,1.345-3,3c0,1.302,0.838,2.401,2,2.815v1.185C25,24.756,22.757,27,20,27h-2h-1 c-3.611,0-6.605,2.71-6.965,6.302L8.663,47.034C7.169,47.204,6,48.46,6,49.999v4C6,55.654,7.346,57,9,57h46c1.654,0,3-1.346,3-3.001 v-4C58,48.384,56.715,47.072,55.114,47.011z M26,17h12c0.552,0,1,0.448,1,1s-0.448,1-1,1H26c-0.552,0-1-0.448-1-1S25.448,17,26,17z M27,21.999V21h10v2.999C37,25.129,37.391,26,38.025,27H38H26h-1.111C26.189,26,27,23.957,27,21.999z M56,53.999 C56,54.551,55.552,55,55,55H42c0-1-0.897-2-2-2H24c-1.103,0-2,1-2,2H9c-0.552,0-1-0.449-1-1.001v-4C8,49.447,8.448,49,9,49h46 c0.552,0,1,0.447,1,0.999V53.999z"/><linearGradient id="t5qhf3aCs75XrGROWwm_sb" x1="26.543" x2="26.543" y1="14.667" y2="57.76" gradientUnits="userSpaceOnUse" spreadMethod="reflect"><stop offset="0" stop-color="#1a6dff"/><stop offset="1" stop-color="#c822ff"/></linearGradient><path fill="url(#t5qhf3aCs75XrGROWwm_sb)" d="M16.838,31c-1.547,0-2.858,1.208-2.986,2.749l-0.759,9.089 c-0.045,0.556,0.145,1.11,0.522,1.519C13.992,44.765,14.526,45,15.083,45h22.92C39.104,45,40,44.104,40,43.002V32.996 C40,31.895,39.104,31,38.003,31H16.838z M15.086,43.002l0.758-9.088c0.043-0.514,0.479-0.915,0.994-0.915L38,32.996l0.003,10.003 L15.086,43.002z"/><linearGradient id="t5qhf3aCs75XrGROWwm_sc" x1="26.543" x2="26.543" y1="34.938" y2="41.258" gradientUnits="userSpaceOnUse" spreadMethod="reflect"><stop offset="0" stop-color="#6dc7ff"/><stop offset="1" stop-color="#e6abff"/></linearGradient><path fill="url(#t5qhf3aCs75XrGROWwm_sc)" d="M18.084,41h16.918C35.553,41,36,40.552,36,40.001v-4.004C36,35.446,35.553,35,35.002,35 H18.418c-0.519,0-0.951,0.397-0.994,0.915l-0.334,4.005C17.042,40.501,17.501,41,18.084,41z"/><linearGradient id="t5qhf3aCs75XrGROWwm_sd" x1="49" x2="49" y1="6.624" y2="44.405" gradientUnits="userSpaceOnUse" spreadMethod="reflect"><stop offset="0" stop-color="#6dc7ff"/><stop offset="1" stop-color="#e6abff"/></linearGradient><path fill="url(#t5qhf3aCs75XrGROWwm_sd)" d="M54.918,7.229c-0.653-0.343-1.438-0.296-2.043,0.122l-3.333,2.287 c-0.328,0.227-0.755,0.227-1.085,0l-3.331-2.287c-0.607-0.418-1.391-0.465-2.044-0.122C42.415,7.58,42,8.272,42,9.034v23.744 c0,1.019,0.495,1.967,1.323,2.536L48,38.526V44h2v-5.474l4.677-3.211C55.505,34.745,56,33.797,56,32.779V9.034 C56,8.272,55.585,7.58,54.918,7.229z M54,23.464l-4,2.667v-6.596l4-2.667V23.464z M43.996,16.865L48,19.534v6.596l-4.002-2.668 L43.996,16.865z M54,9.034v5.43l-4,2.667v-5.504c0.233-0.085,0.461-0.193,0.674-0.34L54,9.034z M47.325,11.286 c0.213,0.146,0.441,0.255,0.675,0.34v5.504l-4.004-2.669l-0.001-5.462L47.325,11.286z M44.456,33.666 C44.171,33.47,44,33.138,44,32.779l-0.002-6.912L48,28.534V36.1L44.456,33.666z M53.544,33.666L50,36.1v-7.565l4-2.667v6.911 C54,33.138,53.83,33.47,53.544,33.666z"/></svg>