<svg xmlns="http://www.w3.org/2000/svg" viewBox="0 0 40 40"><path fill="#b6dcfe" d="M18.5,38.5v-4h-4v-3h4v-4.103l-0.417-0.07C12.53,26.394,8.5,21.629,8.5,16 C8.5,9.659,13.659,4.5,20,4.5S31.5,9.659,31.5,16c0,5.629-4.03,10.394-9.583,11.327l-0.417,0.07V31.5h4v3h-4v4H18.5z M20,8.5 c-4.136,0-7.5,3.364-7.5,7.5s3.364,7.5,7.5,7.5s7.5-3.364,7.5-7.5S24.136,8.5,20,8.5z"/><path fill="#4788c7" d="M20,5c6.065,0,11,4.935,11,11c0,5.385-3.855,9.941-9.166,10.834L21,26.974v0.846V31v1h1h3v2h-3h-1 v1v3h-2v-3v-1h-1h-3v-2h3h1v-1v-3.18v-0.846l-0.834-0.14C12.855,25.941,9,21.385,9,16C9,9.935,13.935,5,20,5 M20,24 c4.411,0,8-3.589,8-8s-3.589-8-8-8c-4.411,0-8,3.589-8,8S15.589,24,20,24 M20,4C13.373,4,8,9.372,8,16 c0,5.944,4.327,10.866,10,11.82V31h-4v4h4v4h4v-4h4v-4h-4v-3.18c5.673-0.954,10-5.876,10-11.82C32,9.372,26.627,4,20,4L20,4z M20,23c-3.866,0-7-3.134-7-7s3.134-7,7-7s7,3.134,7,7S23.866,23,20,23L20,23z"/><path fill="#b6dcfe" stroke="#4788c7" stroke-miterlimit="10" stroke-width="0" d="M20,7.5c-3.583,0-6.644-2.542-7.343-6h3.114 c0.634,1.785,2.321,3,4.229,3s3.595-1.215,4.229-3h3.114C26.644,4.958,23.583,7.5,20,7.5z"/><path fill="#4788c7" stroke="#4788c7" stroke-miterlimit="10" stroke-width="0" d="M14.981,6.219 c0.342-0.176,0.695-0.332,1.057-0.472C14.748,4.856,13.757,3.553,13.297,2h2.135C16.219,3.799,18,5,20,5c2,0,3.781-1.201,4.568-3 h2.135c-0.46,1.553-1.452,2.856-2.742,3.747c0.362,0.14,0.715,0.296,1.057,0.472C26.586,4.951,27.669,3.106,27.93,1h-4.07 c-0.45,1.72-2,3-3.86,3s-3.41-1.28-3.86-3h-4.07C12.331,3.106,13.414,4.951,14.981,6.219z"/></svg>