<svg xmlns="http://www.w3.org/2000/svg" width="512" height="512" viewBox="0 0 512 512"><path fill="#65A844" d="M504.1,256c0,137-111.1,248.1-248.1,248.1C119,504.1,7.9,393,7.9,256C7.9,119,119,7.9,256,7.9C393,7.9,504.1,119,504.1,256"/><path fill="#282821" d="M303.7,184.3c0,26.4-21.4,47.7-47.7,47.7c-26.4,0-47.7-21.4-47.7-47.7c0-26.4,21.4-47.7,47.7-47.7C282.4,136.5,303.7,157.9,303.7,184.3"/><path fill="#282821" d="M365.1,283.2c0,60.2-48.8,109.1-109.1,109.1s-109.1-48.8-109.1-109.1S195.8,174.2,256,174.2S365.1,223,365.1,283.2"/><path fill="#282821" d="M213.8,210.8c30-5.4,50-34.2,44.6-64.2c-4.4-24.1-27.5-40.2-51.7-35.8c-1.9,0.3-3.7,0.8-5.4,1.4l0.7,2.1c1.6-0.6,3.4-1,5.1-1.3c22.9-4.1,44.9,11.1,49,34c5.2,28.8-14,56.4-42.8,61.6L213.8,210.8z"/><path fill="#282821" d="M196.3 114.3c0 3.1 2.6 5.7 5.7 5.7 3.2 0 5.7-2.6 5.7-5.7s-2.5-5.7-5.7-5.7C198.9 108.6 196.3 111.1 196.3 114.3M298.2 210.8c-30-5.4-50-34.2-44.6-64.2 4.4-24.1 27.5-40.2 51.7-35.8 1.9.3 3.7.8 5.5 1.4l-.7 2.1c-1.6-.6-3.4-1-5.1-1.3-22.9-4.1-44.9 11.1-49 34-5.2 28.8 14 56.4 42.8 61.6L298.2 210.8z"/><path fill="#282821" d="M315.7,114.3c0,3.1-2.6,5.7-5.7,5.7s-5.7-2.6-5.7-5.7s2.5-5.7,5.7-5.7S315.7,111.1,315.7,114.3"/><path fill="#D12031" d="M284.2,177.9c-62.3-16.7-126.3,20.3-143,82.6c-16.7,62.3,20.3,126.3,82.6,143L284.2,177.9z"/><path fill="#D12031" d="M288.2,403.4c62.3-16.7,99.2-80.7,82.6-143c-16.7-62.3-80.7-99.2-143-82.6L288.2,403.4z"/><path fill="#282821" d="M202.7 312.1c0 8.2-6.7 14.9-14.9 14.9-8.2 0-14.9-6.7-14.9-14.9 0-8.2 6.7-14.9 14.9-14.9C196 297.2 202.7 303.8 202.7 312.1M225.8 248.4c0 8.2-6.7 14.9-14.9 14.9-8.2 0-14.9-6.7-14.9-14.9 0-8.2 6.7-14.9 14.9-14.9C219.2 233.5 225.8 240.2 225.8 248.4M283.4 248.4c0 8.2 6.7 14.9 14.9 14.9 8.2 0 14.9-6.7 14.9-14.9 0-8.2-6.7-14.9-14.9-14.9C290.1 233.5 283.4 240.2 283.4 248.4M306.5 312.1c0 8.2 6.7 14.9 14.9 14.9s14.9-6.7 14.9-14.9c0-8.2-6.7-14.9-14.9-14.9S306.5 303.8 306.5 312.1"/></svg>