<svg xmlns="http://www.w3.org/2000/svg" viewBox="0 0 24 24"><path d="M 11 0 L 11 1.40625 L 13 2.40625 L 13 0 Z M 9.875 1.78125 C 9.425781 1.828125 9.0625 2.167969 8.988281 2.613281 C 8.914063 3.0625 9.148438 3.5 9.5625 3.6875 L 13.5625 5.6875 C 13.886719 5.898438 14.304688 5.90625 14.632813 5.707031 C 14.964844 5.503906 15.148438 5.128906 15.105469 4.742188 C 15.0625 4.359375 14.804688 4.03125 14.4375 3.90625 L 10.4375 1.90625 C 10.292969 1.828125 10.132813 1.785156 9.96875 1.78125 C 9.9375 1.78125 9.90625 1.78125 9.875 1.78125 Z M 9.78125 5 C 9.34375 5.074219 9.007813 5.429688 8.957031 5.871094 C 8.910156 6.3125 9.152344 6.734375 9.5625 6.90625 L 13.5625 8.90625 C 14.0625 9.148438 14.664063 8.9375 14.90625 8.4375 C 15.148438 7.9375 14.9375 7.335938 14.4375 7.09375 L 10.4375 5.09375 C 10.261719 5.007813 10.066406 4.976563 9.875 5 C 9.84375 5 9.8125 5 9.78125 5 Z M 9.78125 8.09375 C 9.34375 8.167969 9.007813 8.523438 8.957031 8.964844 C 8.910156 9.40625 9.152344 9.828125 9.5625 10 L 10.9375 10.6875 C 10.871094 10.886719 10.722656 11.214844 10.40625 11.65625 C 9.980469 12.246094 9.382813 12.972656 8.75 13.71875 C 7.484375 15.210938 6 16.816406 6 18.8125 C 6 20.777344 7.011719 22.191406 8.25 22.96875 C 9.488281 23.746094 10.890625 24 12 24 C 13.089844 24 14.503906 23.800781 15.75 23.03125 C 16.996094 22.261719 18 20.816406 18 18.8125 C 18 16.789063 16.519531 15.121094 15.25 13.625 C 14.804688 13.097656 14.394531 12.609375 14.03125 12.15625 C 14.527344 12.1875 14.972656 11.851563 15.074219 11.363281 C 15.175781 10.875 14.90625 10.390625 14.4375 10.21875 L 10.4375 8.21875 C 10.265625 8.121094 10.070313 8.078125 9.875 8.09375 C 9.84375 8.09375 9.8125 8.09375 9.78125 8.09375 Z M 12.03125 12.84375 C 12.535156 13.523438 13.152344 14.203125 13.75 14.90625 C 14.980469 16.359375 16 17.9375 16 18.8125 C 16 20.207031 15.46875 20.832031 14.6875 21.3125 C 13.90625 21.792969 12.808594 22 12 22 C 11.207031 22 10.101563 21.777344 9.3125 21.28125 C 8.523438 20.785156 8 20.148438 8 18.8125 C 8 18.007813 9.015625 16.457031 10.25 15 C 10.867188 14.269531 11.519531 13.558594 12.03125 12.84375 Z"/></svg>