<?xml version="1.0"?><svg xmlns="http://www.w3.org/2000/svg" viewBox="0 0 64 64">    <path d="M 31 2.2382812 C 30.539125 2.2384062 30.078203 2.3427344 29.658203 2.5527344 L 3.6582031 15.552734 C 2.6352031 16.063734 2 17.093328 2 18.236328 L 2 21.382812 C 2 22.080813 2.3542188 22.715984 2.9492188 23.083984 C 3.5422187 23.451984 4.2695312 23.483875 4.8945312 23.171875 L 6 22.617188 L 6 58 L 3 58 C 2.448 58 2 58.448 2 59 C 2 59.552 2.448 60 3 60 L 6 60 L 56 60 L 59 60 C 59.552 60 60 59.552 60 59 C 60 58.448 59.552 58 59 58 L 56 58 L 56 22.617188 L 57.105469 23.171875 C 57.390469 23.313875 57.696953 23.384766 58.001953 23.384766 C 58.365953 23.384766 58.727781 23.282984 59.050781 23.083984 C 59.645781 22.715984 60 22.080812 60 21.382812 L 60 18.236328 C 60 17.093328 59.364797 16.064734 58.341797 15.552734 L 32.341797 2.5527344 C 31.921297 2.3422344 31.460875 2.2381563 31 2.2382812 z M 31 4.2382812 C 31.153625 4.2381563 31.307266 4.2717969 31.447266 4.3417969 L 57.447266 17.341797 C 57.788266 17.511797 58 17.855328 58 18.236328 L 58 21.382812 L 31.894531 8.328125 C 31.613531 8.188125 31.307 8.1191406 31 8.1191406 C 30.693 8.1191406 30.386469 8.189125 30.105469 8.328125 L 4 21.382812 L 4 18.236328 C 4 17.855328 4.2117344 17.511797 4.5527344 17.341797 L 30.552734 4.3417969 C 30.692234 4.2722969 30.846375 4.2384062 31 4.2382812 z M 31 10.117188 L 54 21.617188 L 54 44 L 43 44 C 42.448 44 42 44.448 42 45 C 42 45.552 42.448 46 43 46 L 54 46 L 54 58 L 8 58 L 8 46 L 19 46 C 19.552 46 20 45.552 20 45 C 20 44.448 19.552 44 19 44 L 8 44 L 8 21.617188 L 31 10.117188 z M 31 16 C 28.243 16 26 18.243 26 21 L 26 37.017578 C 26 37.325578 25.853422 37.618734 25.607422 37.802734 C 22.934422 39.806734 21.594328 43.1155 22.111328 46.4375 C 22.720328 50.3505 26.028562 53.506359 29.976562 53.943359 C 30.310562 53.980359 30.645516 53.998047 30.978516 53.998047 C 33.194516 53.998047 35.346 53.189031 37 51.707031 C 38.907 50.001031 40 47.556 40 45 C 40 42.142 38.684672 39.517828 36.388672 37.798828 C 36.145672 37.617828 36 37.325578 36 37.017578 L 36 34 L 39 34 C 39.552 34 40 33.552 40 33 C 40 32.448 39.552 32 39 32 L 36 32 L 36 30 L 41 30 C 41.552 30 42 29.552 42 29 C 42 28.448 41.552 28 41 28 L 36 28 L 36 26 L 39 26 C 39.552 26 40 25.552 40 25 C 40 24.448 39.552 24 39 24 L 36 24 L 36 22 L 41 22 C 41.552 22 42 21.552 42 21 C 42 20.448 41.552 20 41 20 L 35.898438 20 C 35.433437 17.721 33.415 16 31 16 z M 31 18 C 32.654 18 34 19.346 34 21 L 34 37.017578 C 34 37.952578 34.445453 38.842391 35.189453 39.400391 C 36.976453 40.736391 38 42.778 38 45 C 38 46.988 37.150969 48.889797 35.667969 50.216797 C 34.165969 51.562797 32.224312 52.183078 30.195312 51.955078 C 27.128312 51.616078 24.559891 49.164906 24.087891 46.128906 C 23.684891 43.539906 24.726641 40.961344 26.806641 39.402344 C 27.553641 38.842344 28 37.951578 28 37.017578 L 28 21 C 28 19.346 29.346 18 31 18 z M 31.609375 40.099609 C 31.227063 40.176016 30.908672 40.475109 30.826172 40.880859 C 30.715172 41.421859 31.064469 41.949547 31.605469 42.060547 C 32.445469 42.232547 33.173516 42.760812 33.603516 43.507812 C 33.788516 43.829813 34.125656 44.009766 34.472656 44.009766 C 34.641656 44.009766 34.812703 43.966953 34.970703 43.876953 C 35.449703 43.601953 35.613891 42.989719 35.337891 42.511719 C 34.621891 41.267719 33.408813 40.388562 32.007812 40.101562 C 31.872312 40.073313 31.736812 40.074141 31.609375 40.099609 z"/></svg>