<svg xmlns="http://www.w3.org/2000/svg" viewBox="0 0 40 40"><path fill="#98ccfd" d="M4.51,38.5c0.236-6.306,4.94-11,11.127-11h8.727c6.187,0,10.891,4.694,11.127,11H4.51z"/><path fill="#4788c7" d="M24.364,28c5.737,0,10.139,4.233,10.597,10H5.039c0.458-5.767,4.86-10,10.597-10H24.364 M24.364,27h-8.727C9.21,27,4,32.041,4,39h32C36,32.041,30.79,27,24.364,27L24.364,27z"/><path fill="#98ccfd" d="M18.5 29.5H21.5V38.5H18.5z"/><path fill="#4788c7" d="M21,30v8h-2v-8H21 M22,29h-4v10h4V29L22,29z"/><path fill="#98ccfd" d="M20,30.5c-3.253,0-4.314-1.899-4.5-2.295v-5.359h9v5.36C24.313,28.609,23.263,30.5,20,30.5z"/><path fill="#4788c7" d="M24,23.346v4.746C23.761,28.544,22.776,30,20,30c-2.759,0-3.758-1.461-4-1.911v-4.743H24 M25,22.346H15v5.962c0,0,0.998,2.692,5,2.692s5-2.692,5-2.692V22.346L25,22.346z"/><path fill="#fff" d="M20,27.643c-0.561,0-1.098-0.215-1.513-0.606l-0.091-0.085l-0.119-0.033c-3.294-0.904-5.777-4.212-5.777-7.695v-8.917c0-1.827,1.486-3.313,3.312-3.313h8.375c1.826,0,3.313,1.486,3.313,3.313v8.917c0,3.483-2.483,6.791-5.777,7.695l-0.119,0.033l-0.091,0.085C21.098,27.428,20.561,27.643,20,27.643z"/><path fill="#4788c7" d="M24.187,7.493c1.551,0,2.813,1.262,2.813,2.813v8.918c0,3.266-2.325,6.367-5.409,7.213l-0.24,0.066l-0.181,0.17c-0.322,0.303-0.738,0.471-1.17,0.471s-0.848-0.167-1.17-0.471l-0.181-0.17l-0.24-0.066C15.325,25.59,13,22.488,13,19.223v-8.918c0-1.551,1.262-2.813,2.813-2.813h8.374 M24.187,6.493h-8.375C13.707,6.493,12,8.2,12,10.305v8.918c0,3.764,2.694,7.23,6.144,8.178c0.486,0.457,1.136,0.742,1.856,0.742s1.37-0.285,1.856-0.742C25.306,26.453,28,22.987,28,19.223v-8.918C28,8.2,26.293,6.493,24.187,6.493L24.187,6.493z"/><path fill="none" stroke="#4788c7" stroke-miterlimit="10" d="M17.286,17.512c0,0,1.1-0.905,2.714-0.905s2.714,0.905,2.714,0.905"/><path fill="#4788c7" d="M22.5 16H27v2.5c0 .828-.672 1.5-1.5 1.5h-3c-.828 0-1.5-.672-1.5-1.5v-1C21 16.672 21.672 16 22.5 16zM17.5 16H13v2.5c0 .828.672 1.5 1.5 1.5h3c.828 0 1.5-.672 1.5-1.5v-1C19 16.672 18.328 16 17.5 16z"/><path fill="#b6dcfe" d="M6.502,22.608C6.555,17.158,7.781,1.5,20,1.5c3.244,0,4.534,2.685,4.547,2.712L24.682,4.5H25c7.649,0,8.417,15.431,8.492,18.109l-8.057,1.965c0.989-1.13,2.064-2.976,2.064-5.666v-3.329c0-2.907-2.355-5.893-2.456-6.018l-0.412-0.518l-0.386,0.54c-0.02,0.026-1.985,2.71-6.43,3.165c-0.303,0.03-0.601,0.055-0.891,0.078c-2.176,0.175-4.426,0.355-4.426,3.596v2.485c0,2.641,1.171,4.548,2.202,5.716L6.502,22.608z"/><path fill="#4788c7" d="M20,2c2.89,0,4.049,2.33,4.094,2.423L24.363,5H25c6.187,0,7.824,11.761,7.986,17.218l-6.331,1.544C27.393,22.58,28,20.979,28,18.908v-3.329c0-3.08-2.461-6.198-2.565-6.33l-0.824-1.022L23.84,9.292c-0.075,0.103-1.878,2.53-6.074,2.959c-0.299,0.031-0.594,0.054-0.882,0.077C14.708,12.504,12,12.721,12,16.423v2.485c0,2.048,0.668,3.681,1.455,4.895l-6.448-1.585C7.115,16.57,8.515,2,20,2 M20,1C7.267,1,6,17.037,6,23l10.507,2.583c0,0-3.507-2.275-3.507-6.675c0-0.768,0-1.296,0-2.485c0-3.152,2.278-2.912,4.867-3.177c4.75-0.486,6.786-3.373,6.786-3.373S27,12.813,27,15.579c0,1.308,0,1.18,0,3.329c0,4.648-3.439,6.637-3.439,6.637L34,23c0,0-0.067-19-9-19C25,4,23.6,1,20,1L20,1z"/></svg>