<svg xmlns="http://www.w3.org/2000/svg" viewBox="0 0 40 40"><path fill="#fff" d="M20.054,38.455C9.225,33.713,2.833,24.483,1.542,11.732c4.604-0.963,8.989-4.429,8.971-10.232 h17.095c3.635,0,6.568,1.245,8.482,3.602c2.28,2.807,2.97,7.057,1.942,11.966C36.025,26.619,29.644,34.207,20.054,38.455z"/><path fill="#4788c7" d="M27.608,2c3.48,0,6.278,1.181,8.094,3.417c2.184,2.688,2.837,6.79,1.841,11.548 c-1.959,9.323-8.163,16.745-17.49,20.943C9.646,33.272,3.451,24.377,2.086,12.121C6.596,11.023,10.786,7.602,11.004,2H27.608 M27.608,1H10c0.277,5.819-3.997,9.462-9,10.326C2.196,24.425,8.722,34.119,20.055,39c8.972-3.913,16.265-11.351,18.467-21.83 C40.528,7.586,36.096,1,27.608,1L27.608,1z"/><path fill="#98ccfd" d="M27.608,3H11.931c-0.604,5.213-4.447,8.534-8.748,9.856c1.49,11.285,7.29,19.529,16.868,23.952 c8.8-4.094,14.651-11.185,16.514-20.049c0.933-4.457,0.352-8.262-1.639-10.712C33.306,4.054,30.776,3,27.608,3z"/><path fill="#fff" fill-rule="evenodd" d="M30.287,14l-11.801,0l3.178-4.923l2.167-0.773 c0.274-0.097,0.196-0.301,0.054-0.301h-2.032l-0.22-2.286c-0.008-0.122-0.196-0.171-0.243-0.008l-0.667,2.294h-2.119 c-0.181,0-0.204,0.219,0,0.301l1.931,0.724L16.22,14l-9.622,0c-0.377,0-0.431,0.659,0,0.691l8.347,1.091 c-0.283,0.529-0.754,1.041-0.919,1.635c-0.173,0.618,0.29,1.091,0.753,0.984c0.746-0.17,1.978-1.773,2.48-2.416l0.259-0.316 l12.767-1.002C30.742,14.642,30.734,14,30.287,14z" clip-rule="evenodd"/><path fill="#fff" fill-rule="evenodd" d="M30.5,21.625V21H28v0.625c0.513,0.001,0.615,0.27,0.615,0.562 v0.091l-2.348,2.531v-2.274c0-0.64-0.031-0.909,0.608-0.909V21h-2.5v0.625c0.622,0,0.629,0.215,0.629,0.909v2.95 c0,0.529-0.035,0.658-0.107,0.731c-0.284,0.329-0.977,0.164-1.226-0.055c-0.249-0.256-0.409-0.548-0.676-1.735L20.507,13.5 l-2.756,11.126c-0.16,0.621-0.32,1.077-0.463,1.351c-0.213,0.438-1.097,0.475-1.488,0.329c-0.177-0.055-0.231-0.238-0.231-0.822 v-2.95c0-0.658,0.018-0.914,0.658-0.914V21h-2.044l-1.156,3.142L11.871,21H9.75v0.625c0.624,0.013,0.663,0.388,0.663,0.909v2.858 c0,0.585,0.012,1.107-0.663,1.107V27h1.875v-0.5c-0.622,0-0.624-0.376-0.624-0.961v-2.932l1.653,4.193l1.636-4.064v2.749 c0,0.694-0.024,1.016-0.664,1.016V27H19v-0.5c-0.75,0-0.786-0.413-0.574-1.216L18.744,24h2.294c0.106,0.529,0.34,1.72,0.34,1.885 c0,0.476-0.291,0.615-0.753,0.615V27h6.25v-0.5c-0.479,0-0.608-0.267-0.608-0.632v-0.11l2.348-2.547v2.274 c0,0.693-0.031,1.015-0.615,1.016V27h2.5v-0.5c-0.605,0-0.623-0.34-0.623-1.016v-2.95C29.877,21.876,29.86,21.625,30.5,21.625z M18.951,23.25l1.04-4.471l0.884,4.471H18.951z" clip-rule="evenodd"/><g><path fill="#98ccfd" d="M19.64 17L20.507 13.5 21.304 17 22.33 17 21.482 13.278 21.191 12 19.848 12 19.536 13.26 18.61 17z"/></g></svg>