<svg xmlns="http://www.w3.org/2000/svg" viewBox="0 0 48 48"><path fill="#ffd600" d="M37 26L47 19 35 21 38.053 14.088 32 18 34 1 24 18.305 14 1 16 18 9.947 14.088 13 21 1 19 11 26 1 33 14 31 10 40 20.458 33 24 41.027 27.583 33 38 40 34 31 47 33z"/><path fill="#ffea00" d="M24 22L33.424 6 34 1 24 18.305zM32 20L36.747 17.044 38.053 14.088 32 18zM35 21L34 23 42.714 22 47 19zM35 27.151L42.61 32.325 47 33 37 26z"/><g><path fill="#ffea00" d="M24 22L14.576 6 14 1 24 18.305zM16 20L11.253 17.044 9.947 14.088 16 18zM13 21L14 23 5.286 22 1 19zM13 27.151L5.39 32.325 1 33 11 26z"/></g><path fill="#fbc02d" d="M24 25.172L20 29 20.458 33 24 41.027 27.583 33 28 29z"/><path fill="#ffecb3" d="M26 30L24 28 22 30 24 47z"/></svg>