<svg xmlns="http://www.w3.org/2000/svg" viewBox="0 0 24 24"><path d="M 18.21875 0 C 18.144531 0.0390625 18.09375 0.164063 18.09375 0.3125 C 18.292969 1.613281 18.511719 4.300781 17.3125 5.5 L 12.25 10.5625 L 11.65625 9.9375 L 10.9375 10.65625 L 11.5625 11.25 L 10.25 12.5625 L 9.65625 11.9375 L 8.9375 12.65625 L 9.5625 13.25 L 8.25 14.5625 L 7.65625 13.9375 L 6.9375 14.65625 L 7.5625 15.25 L 3.90625 18.90625 L 5.1875 20.1875 L 8.0625 17.3125 C 8.160156 17.992188 8.460938 18.628906 9 19.125 C 10.285156 20.390625 12.371094 20.414063 13.5625 19.09375 C 13.574219 19.082031 13.582031 19.074219 13.59375 19.0625 C 13.863281 18.722656 15.65625 16.910156 16.28125 16.375 C 16.300781 16.367188 16.324219 16.355469 16.34375 16.34375 C 17.625 15.0625 17.640625 12.945313 16.3125 11.75 C 15.804688 11.292969 15.160156 11.011719 14.5 10.90625 L 18.59375 6.8125 C 19.792969 5.613281 22.613281 5.800781 23.8125 6 C 24.011719 6 24.101563 5.695313 24 5.59375 L 18.5 0.09375 C 18.398438 -0.0078125 18.292969 -0.0390625 18.21875 0 Z M 10.84375 8.4375 L 9.4375 9.84375 L 10.15625 10.5625 L 11.5625 9.15625 Z M 8.84375 10.4375 L 7.4375 11.84375 L 8.15625 12.5625 L 9.5625 11.15625 Z M 14.03125 12.34375 C 14.476563 12.359375 14.949219 12.515625 15.3125 12.84375 C 15.964844 13.433594 15.972656 14.5 15.3125 15.21875 C 15.296875 15.238281 15.300781 15.261719 15.28125 15.28125 C 14.5 15.957031 12.976563 17.429688 12.4375 18.09375 C 12.429688 18.101563 12.410156 18.117188 12.40625 18.125 C 11.796875 18.765625 10.738281 18.769531 10.03125 18.0625 C 10.019531 18.050781 10.011719 18.042969 10 18.03125 C 9.328125 17.425781 9.3125 16.34375 10.03125 15.625 L 12.84375 12.84375 C 12.84375 12.832031 12.84375 12.824219 12.84375 12.8125 C 13.136719 12.484375 13.585938 12.328125 14.03125 12.34375 Z M 6.84375 12.4375 L 5.4375 13.84375 L 6.15625 14.5625 L 7.5625 13.15625 Z M 2.9375 19.84375 L 1.375 21.375 L 0.75 20.75 L 0.03125 21.46875 L 2.53125 23.96875 L 3.25 23.25 L 2.65625 22.65625 L 4.1875 21.09375 Z"/></svg>