<svg xmlns="http://www.w3.org/2000/svg" viewBox="0 0 128 128"><path fill="#fff" d="M58,26.2c0-5-4-9-9-9c-5,0-9,4-9,9c0,0,0,0,0,0c-1.7-1.3-3.7-2-6-2c-5.5,0-10,4.5-10,10c0,1.1,0.2,2.1,0.5,3c-0.2,0-0.3,0-0.5,0c-6.1,0-11,4.9-11,11c0,2.4,0.7,4.5,2,6.3c-4.2,2.7-7,7.3-7,12.7c0,5.3,2.8,10,6.9,12.6c-1.2,2.2-1.9,4.7-1.9,7.4c0,8.3,6.7,15,15,15c0.3,0,0.6,0,0.9,0c2,5.8,7.6,10,14.1,10c8.3,0,15-6.7,15-15C58,89,58,31.2,58,26.2z"/><path fill="#fff" d="M7.9,67c0-5.3,2.8-10,7-12.7c-1.3-1.8-2-4-2-6.3c0-6.1,4.9-11,11-11c0.2,0,0.3,0,0.5,0c-0.3-1-0.5-2-0.5-3c0-5.5,4.5-10,10-10c1.5,0,2.9,0.3,4.1,0.9c-8.8,11-14.3,26.5-14.3,43.9c0,16.2,4.8,30.9,12.7,41.7c-3.5-1.7-6.3-4.8-7.6-8.5c-0.3,0-0.6,0-0.9,0c-8.3,0-15-6.7-15-15c0-2.7,0.7-5.2,1.9-7.4C10.7,77,7.9,72.3,7.9,67z"/><path fill="#fbe1e3" d="M70,26.2c0-5,4-9,9-9c5,0,9,4,9,9c0,0,0,0,0,0c1.7-1.3,3.7-2,6-2c5.5,0,10,4.5,10,10c0,1.1-0.2,2.1-0.5,3c0.2,0,0.3,0,0.5,0c6.1,0,11,4.9,11,11c0,2.4-0.7,4.5-2,6.3c4.2,2.7,7,7.3,7,12.7c0,5.3-2.8,10-6.9,12.6c1.2,2.2,1.9,4.7,1.9,7.4c0,8.3-6.7,15-15,15c-0.3,0-0.6,0-0.9,0c-2,5.8-7.6,10-14.1,10c-8.3,0-15-6.7-15-15C70,89,70,31.2,70,26.2z"/><path fill="#fff" d="M70,26.2c0-5,4-9,9-9c5,0,9,4,9,9c0,0,0,0,0,0c1.7-1.3,3.7-2,6-2c5.5,0,10,4.5,10,10c0,1.1-0.2,2.1-0.5,3c0.2,0,0.3,0,0.5,0c6.1,0,11,4.9,11,11c0,2.4-0.7,4.5-2,6.3c4.2,2.7,7,7.3,7,12.7c0,5.3-2.8,10-6.9,12.6c1.2,2.2,1.9,4.7,1.9,7.4c0,8.3-6.7,15-15,15c-0.3,0-0.6,0-0.9,0c-2,5.8-7.6,10-14.1,10c-8.3,0-15-6.7-15-15C70,89,70,31.2,70,26.2z"/><path fill="#444b54" d="M89.6 76.1c-1.2 0-2.3-.7-2.8-1.8-.9-2.2-1.4-4.6-1.4-7 0-1.7 1.3-3 3-3s3 1.3 3 3c0 1.6.3 3.2.9 4.7.6 1.5-.1 3.3-1.6 3.9C90.4 76 90 76.1 89.6 76.1zM84.2 51c-.8 0-1.6-.3-2.1-.9-.6-.6-.9-1.3-.9-2.1 0-.2 0-.4.1-.6 0-.2.1-.4.2-.6.1-.2.2-.4.3-.5.1-.2.2-.3.4-.5 1.1-1.1 3.1-1.1 4.2 0 .1.1.3.3.4.5.1.2.2.3.3.5.1.2.1.4.2.6 0 .2 0 .4 0 .6 0 .2 0 .4 0 .6 0 .2-.1.4-.2.6-.1.2-.2.4-.3.5-.1.2-.2.3-.4.4-.1.1-.3.3-.5.4-.2.1-.3.2-.5.3-.2.1-.4.1-.6.2C84.6 51 84.4 51 84.2 51z"/><path fill="#444b54" d="M116.9 53.7c.7-1.7 1.1-3.6 1.1-5.5 0-6.7-4.7-12.3-11-13.7 0-.1 0-.2 0-.3 0-6.9-5.4-12.5-12.2-13-.1 0-.3 0-.4 0-.1 0-.1 0-.2 0-.1 0-.1 0-.2 0-1.3 0-2.6.2-3.8.6-1.8-4.4-6.1-7.6-11.2-7.6-6.6 0-12 5.4-12 12v71c0 2 .3 3.9.9 5.7.4 1.3 1.6 2 2.8 2 .3 0 .6-.1 1-.2 1.6-.5 2.4-2.2 1.9-3.8-.4-1.2-.6-2.5-.6-3.8v-71c0-3.3 2.7-6 6-6 3 0 5.5 2.2 5.9 5.1-2.2 2.3-3.5 5.4-3.5 8.9 0 1.7 1.3 3 3 3s3-1.3 3-3c0-3.8 3-6.9 6.8-7 3.8.1 6.8 3.2 6.8 7 0 .7-.1 1.4-.3 2.1-.3.9-.1 2 .5 2.7.6.8 1.5 1.2 2.5 1.2l.3 0c4.4 0 8 3.6 8 8 0 1.2-.3 2.3-.7 3.3H108c-1.7 0-3 1.3-3 3s1.3 3 3 3h4c3.1 2.3 5 5.8 5 9.7 0 2.9-1.1 5.7-3 7.9-1.1 1.2-1 3.1.3 4.2 1.2 1.1 3.1 1 4.2-.3 2.9-3.3 4.5-7.5 4.5-11.9C123 62 120.8 57.1 116.9 53.7zM49 14.2c-5.1 0-9.4 3.1-11.2 7.6-1.2-.4-2.5-.6-3.8-.6-7.2 0-13 5.8-13 13 0 0 0 0 0 .1-6.3 1.4-11.1 7-11.1 13.7 0 2 .4 3.9 1.2 5.7C7.3 57.1 5 62 5 67.2c0 5.6 2.6 10.8 7 14.2.1.1.2.1.2.2.1.1.2.2.3.2.1.1.3.2.4.3.1.1.2.1.3.2 0 0 .1 0 .1.1 0 0 0 0 .1 0 2.8 1.8 6.1 2.8 9.6 2.8 9.9 0 18-8.1 18-18v-5c0-1.7-1.3-3-3-3s-3 1.3-3 3v5c0 6.6-5.4 12-12 12-2.3 0-4.5-.7-6.4-1.9 0 0 0 0 0 0-3.5-2.2-5.6-6-5.6-10.1 0-3.9 1.9-7.4 5-9.7h4c1.7 0 3-1.3 3-3s-1.3-3-3-3h-3.2c-.6-1.1-.9-2.3-.9-3.6 0-3.9 2.8-7.1 6.5-7.8 2.2 4.2 6.5 7.1 11.6 7.1 1.7 0 3-1.3 3-3s-1.3-3-3-3c-3.1 0-5.8-2.1-6.7-4.9-.1-.3-.2-.6-.2-.9 0-.1 0-.1 0-.2 0-.3-.1-.6-.1-1 0-3.9 3.1-7 7-7 1.5 0 3 .5 4.2 1.4.9.7 2.1.8 3.1.3 1-.5 1.7-1.5 1.7-2.7 0 0 0 0 0-.1 0-3.3 2.7-5.9 6-5.9 3.3 0 6 2.7 6 6v71c0 6.6-5.4 12-12 12-5.1 0-9.6-3.2-11.3-8-.4-1.3-1.7-2.1-3-2l-.3 0c-.1 0-.3 0-.4 0-6.6 0-12-5.4-12-12 0-1.7-1.3-3-3-3s-3 1.3-3 3c0 9.5 7.5 17.4 16.9 18 3 6.1 9.2 10 16.1 10 9.9 0 18-8.1 18-18v-71C61 19.6 55.6 14.2 49 14.2z"/><g><path fill="#fcca3d" d="M126.5,119.4l-21.2-35.3c-0.9-1.5-2.5-2.4-4.3-2.4s-3.4,0.9-4.3,2.4l-21.2,35.3c-0.9,1.6-1,3.4-0.1,5c0.9,1.6,2.5,2.5,4.4,2.5h42.3c1.8,0,3.5-0.9,4.4-2.5C127.4,122.9,127.4,121,126.5,119.4z"/><path fill="#fff" d="M101 110c-1.7 0-3-1.3-3-3V97c0-1.7 1.3-3 3-3s3 1.3 3 3v10C104 108.7 102.7 110 101 110zM101 120c-.8 0-1.6-.3-2.1-.9-.1-.1-.3-.3-.4-.5-.1-.2-.2-.3-.3-.5-.1-.2-.1-.4-.2-.6 0-.2-.1-.4-.1-.6 0-.8.3-1.6.9-2.1 1.1-1.1 3.1-1.1 4.2 0 .6.6.9 1.3.9 2.1 0 .2 0 .4-.1.6 0 .2-.1.4-.2.6-.1.2-.2.4-.3.5-.1.2-.2.3-.4.5C102.6 119.7 101.8 120 101 120z"/></g></svg>