<svg xmlns="http://www.w3.org/2000/svg" viewBox="0 0 16 16"><path fill="#e0ac89" d="M12.5 3.5H15.5V4.5H12.5z"/><path fill="#a16a4a" d="M16 3L12 3 12 5 16 5 16 3z"/><path fill="#8bb7f0" d="M14,12.5c-0.827,0-1.5-0.673-1.5-1.5V6.5h3v6H14z"/><path fill="#4e7ab5" d="M15,7v5h-1c-0.551,0-1-0.449-1-1V7H15 M16,6h-4v5c0,1.105,0.895,2,2,2h2V6L16,6z"/><g><path fill="#c4d6a3" d="M3.5,12.5c-1.654,0-3-1.346-3-3s1.346-3,3-3h1V9c0,0.596,0.267,1.063,0.751,1.314 c0.34,0.177,0.682,0.186,0.747,0.186h0.5l0.002-6h-5V3.501l7.784,0.022c0.671,0,1.216,0.545,1.216,1.214V12.5H3.5z"/><path fill="#859b5f" d="M7,4.017l2.286,0.007C9.68,4.024,10,4.344,10,4.738V12H3.5C2.122,12,1,10.878,1,9.5S2.122,7,3.5,7H4 v2c0,1.313,1.005,2,2.017,2c0,0,0,0,0,0L7,10.983V10V5V4.017 M1,3v2h5v5c0,0-0.001,0-0.002,0C5.952,10,5,9.988,5,9c0-1.013,0-3,0-3 H3.5C1.567,6,0,7.567,0,9.5S1.567,13,3.5,13H11V4.738c0-0.947-0.768-1.714-1.714-1.714L1,3L1,3z"/></g></svg>