<svg xmlns="http://www.w3.org/2000/svg" viewBox="0 0 64 64"><radialGradient id="w~~7Mha_gITkK7TohnEeja" cx="-159.167" cy="35.917" r="26" gradientTransform="rotate(180 -64 32)" gradientUnits="userSpaceOnUse" spreadMethod="reflect"><stop offset="0" stop-color="#f4e09d"/><stop offset=".226" stop-color="#f8e8b5"/><stop offset=".513" stop-color="#fcf0cd"/><stop offset=".778" stop-color="#fef4dc"/><stop offset="1" stop-color="#fff6e1"/></radialGradient><path fill="url(#w~~7Mha_gITkK7TohnEeja)" d="M58,56L58,56c-2.209,0-4,1.791-4,4v0c0,2.209,1.791,4,4,4h0c2.209,0,4-1.791,4-4v0 C62,57.791,60.209,56,58,56z"/><radialGradient id="w~~7Mha_gITkK7TohnEejb" cx="-160.583" cy="29.917" r="28.77" gradientTransform="rotate(180 -64 32)" gradientUnits="userSpaceOnUse" spreadMethod="reflect"><stop offset="0" stop-color="#f4e09d"/><stop offset=".226" stop-color="#f8e8b5"/><stop offset=".513" stop-color="#fcf0cd"/><stop offset=".778" stop-color="#fef4dc"/><stop offset="1" stop-color="#fff6e1"/></radialGradient><path fill="url(#w~~7Mha_gITkK7TohnEejb)" d="M56.5,0L56.5,0C54.567,0,53,1.567,53,3.5v0C53,5.433,54.567,7,56.5,7h0 C58.433,7,60,5.433,60,3.5v0C60,1.567,58.433,0,56.5,0z"/><radialGradient id="w~~7Mha_gITkK7TohnEejc" cx="-160" cy="32" r="32" gradientTransform="rotate(180 -64 32)" gradientUnits="userSpaceOnUse" spreadMethod="reflect"><stop offset="0" stop-color="#f4e09d"/><stop offset=".226" stop-color="#f8e8b5"/><stop offset=".513" stop-color="#fcf0cd"/><stop offset=".778" stop-color="#fef4dc"/><stop offset="1" stop-color="#fff6e1"/></radialGradient><path fill="url(#w~~7Mha_gITkK7TohnEejc)" d="M0,43.5L0,43.5C0,45.985,2.015,48,4.5,48H8c2.209,0,4,1.791,4,4v0c0,2.209-1.791,4-4,4H7 c-2.209,0-4,1.791-4,4v0c0,2.209,1.791,4,4,4h41c2.209,0,4-1.791,4-4v0c0-2.209-1.791-4-4-4h-1c-1.657,0-3-1.343-3-3v0 c0-1.657,1.343-3,3-3h11.5c1.933,0,3.5-1.567,3.5-3.5v0c0-1.933-1.567-3.5-3.5-3.5H58c-1.657,0-3-1.343-3-3v0c0-1.657,1.343-3,3-3 h1c2.761,0,5-2.239,5-5v0c0-2.761-2.239-5-5-5h-5.5c-1.933,0-3.5-1.567-3.5-3.5v0c0-1.933,1.567-3.5,3.5-3.5H55 c2.209,0,4-1.791,4-4v0c0-2.209-1.791-4-4-4h-8.5c-1.381,0-2.5-1.119-2.5-2.5v0C44,8.119,45.119,7,46.5,7h0 C48.433,7,50,5.433,50,3.5v0C50,1.567,48.433,0,46.5,0l-30,0C14.567,0,13,1.567,13,3.5v0C13,5.433,14.567,7,16.5,7H17 c1.105,0,2,0.895,2,2v0c0,1.105-0.895,2-2,2H9c-2.209,0-4,1.791-4,4v0c0,2.209,1.791,4,4,4h1c1.381,0,2.5,1.119,2.5,2.5v0 c0,1.381-1.119,2.5-2.5,2.5H4c-2.209,0-4,1.791-4,4v0c0,2.209,1.791,4,4,4h1.5C7.433,32,9,33.567,9,35.5v0 C9,37.433,7.433,39,5.5,39h-1C2.015,39,0,41.015,0,43.5z"/><linearGradient id="w~~7Mha_gITkK7TohnEejd" x1="32" x2="32" y1="59.93" y2="23.548" gradientUnits="userSpaceOnUse" spreadMethod="reflect"><stop offset="0" stop-color="#77d4f4"/><stop offset=".139" stop-color="#7fd8f5"/><stop offset=".683" stop-color="#9be5fa"/><stop offset="1" stop-color="#a5eafc"/></linearGradient><path fill="url(#w~~7Mha_gITkK7TohnEejd)" d="M32 21A20 20 0 1 0 32 61A20 20 0 1 0 32 21Z"/><linearGradient id="w~~7Mha_gITkK7TohnEeje" x1="32" x2="32" y1="47" y2="5" gradientUnits="userSpaceOnUse" spreadMethod="reflect"><stop offset="0" stop-color="#0d47a1"/><stop offset=".365" stop-color="#135fba"/><stop offset=".734" stop-color="#1770cc"/><stop offset="1" stop-color="#1976d2"/></linearGradient><path fill="url(#w~~7Mha_gITkK7TohnEeje)" d="M41.891,33H36V9c0-1.992-1.481-3.642-3.393-3.938C32.411,5.021,32.208,5,32,5 s-0.411,0.021-0.607,0.062C29.481,5.358,28,7.008,28,9v24h-5.891c-1.841,0-2.795,2.076-1.539,3.348l9.891,10.02 c0.832,0.843,2.246,0.843,3.078,0l9.891-10.02C44.686,35.076,43.731,33,41.891,33z"/></svg>