<svg xmlns="http://www.w3.org/2000/svg" viewBox="0 0 64 64"><linearGradient id="XhL2w0AqORiLJkqIRrl_oa" x1="2812.154" x2="2812.154" y1="2650.358" y2="2678.972" gradientTransform="matrix(.254 0 0 .254 -695.287 -656.647)" gradientUnits="userSpaceOnUse"><stop offset="0" stop-color="#6dc7ff"/><stop offset="1" stop-color="#e6abff"/></linearGradient><path fill="url(#XhL2w0AqORiLJkqIRrl_oa)" d="M26,22v-4c0-0.552-0.448-1-1-1H13c-0.552,0-1,0.448-1,1v4c0,0.552,0.448,1,1,1h12	C25.552,23,26,22.552,26,22z"/><linearGradient id="XhL2w0AqORiLJkqIRrl_ob" x1="2922.39" x2="2922.39" y1="2650.358" y2="2678.972" gradientTransform="matrix(.254 0 0 .254 -695.287 -656.647)" gradientUnits="userSpaceOnUse"><stop offset="0" stop-color="#6dc7ff"/><stop offset="1" stop-color="#e6abff"/></linearGradient><path fill="url(#XhL2w0AqORiLJkqIRrl_ob)" d="M52,22v-4c0-0.552-0.448-1-1-1h-8c-0.552,0-1,0.448-1,1v4c0,0.552,0.448,1,1,1h8	C51.552,23,52,22.552,52,22z"/><linearGradient id="XhL2w0AqORiLJkqIRrl_oc" x1="32" x2="32" y1="7.681" y2="55.12" gradientUnits="userSpaceOnUse"><stop offset="0" stop-color="#1a6dff"/><stop offset="1" stop-color="#c822ff"/></linearGradient><rect width="44" height="2" x="10" y="7" fill="url(#XhL2w0AqORiLJkqIRrl_oc)"/><linearGradient id="XhL2w0AqORiLJkqIRrl_od" x1="16.5" x2="16.5" y1="7.681" y2="55.12" gradientUnits="userSpaceOnUse"><stop offset="0" stop-color="#1a6dff"/><stop offset="1" stop-color="#c822ff"/></linearGradient><rect width="9" height="2" x="12" y="27" fill="url(#XhL2w0AqORiLJkqIRrl_od)"/><linearGradient id="XhL2w0AqORiLJkqIRrl_oe" x1="27" x2="27" y1="7.681" y2="55.12" gradientUnits="userSpaceOnUse"><stop offset="0" stop-color="#1a6dff"/><stop offset="1" stop-color="#c822ff"/></linearGradient><rect width="8" height="2" x="23" y="27" fill="url(#XhL2w0AqORiLJkqIRrl_oe)"/><linearGradient id="XhL2w0AqORiLJkqIRrl_of" x1="37" x2="37" y1="7.681" y2="55.12" gradientUnits="userSpaceOnUse"><stop offset="0" stop-color="#1a6dff"/><stop offset="1" stop-color="#c822ff"/></linearGradient><rect width="8" height="2" x="33" y="27" fill="url(#XhL2w0AqORiLJkqIRrl_of)"/><linearGradient id="XhL2w0AqORiLJkqIRrl_og" x1="47" x2="47" y1="7.681" y2="55.12" gradientUnits="userSpaceOnUse"><stop offset="0" stop-color="#1a6dff"/><stop offset="1" stop-color="#c822ff"/></linearGradient><rect width="8" height="2" x="43" y="27" fill="url(#XhL2w0AqORiLJkqIRrl_og)"/><linearGradient id="XhL2w0AqORiLJkqIRrl_oh" x1="19" x2="19" y1="7.681" y2="55.12" gradientUnits="userSpaceOnUse"><stop offset="0" stop-color="#1a6dff"/><stop offset="1" stop-color="#c822ff"/></linearGradient><rect width="14" height="2" x="12" y="35" fill="url(#XhL2w0AqORiLJkqIRrl_oh)"/><linearGradient id="XhL2w0AqORiLJkqIRrl_oi" x1="17" x2="17" y1="7.681" y2="55.12" gradientUnits="userSpaceOnUse"><stop offset="0" stop-color="#1a6dff"/><stop offset="1" stop-color="#c822ff"/></linearGradient><rect width="10" height="2" x="12" y="39" fill="url(#XhL2w0AqORiLJkqIRrl_oi)"/><linearGradient id="XhL2w0AqORiLJkqIRrl_oj" x1="34" x2="34" y1="7.681" y2="55.12" gradientUnits="userSpaceOnUse"><stop offset="0" stop-color="#1a6dff"/><stop offset="1" stop-color="#c822ff"/></linearGradient><path fill="url(#XhL2w0AqORiLJkqIRrl_oj)" d="M58,35.641V14c0-1.65-1.35-3-3-3H9c-1.65,0-3,1.35-3,3v30c0,1.65,1.35,3,3,3h27.17 c0.967,6.22,6.343,11,12.83,11c7.168,0,13-5.832,13-13C62,41.325,60.46,38.008,58,35.641z M36,45H9c-0.55,0-1-0.45-1-1V14 c0-0.55,0.45-1,1-1h46c0.55,0,1,0.45,1,1v20.063C53.977,32.763,51.578,32,49,32C41.832,32,36,37.832,36,45z M49,56 c-6.065,0-11-4.935-11-11s4.935-11,11-11s11,4.935,11,11S55.065,56,49,56z"/><linearGradient id="XhL2w0AqORiLJkqIRrl_ok" x1="48.968" x2="48.968" y1="7.681" y2="55.12" gradientUnits="userSpaceOnUse"><stop offset="0" stop-color="#1a6dff"/><stop offset="1" stop-color="#c822ff"/></linearGradient><polygon fill="url(#XhL2w0AqORiLJkqIRrl_ok)" points="53.293,39.17 43.228,49.235 44.642,50.649 54.707,40.584"/><linearGradient id="XhL2w0AqORiLJkqIRrl_ol" x1="45.5" x2="45.5" y1="7.681" y2="55.12" gradientUnits="userSpaceOnUse"><stop offset="0" stop-color="#1a6dff"/><stop offset="1" stop-color="#c822ff"/></linearGradient><circle cx="45.5" cy="41.5" r="2.5" fill="url(#XhL2w0AqORiLJkqIRrl_ol)"/><linearGradient id="XhL2w0AqORiLJkqIRrl_om" x1="52.5" x2="52.5" y1="7.681" y2="55.12" gradientUnits="userSpaceOnUse"><stop offset="0" stop-color="#1a6dff"/><stop offset="1" stop-color="#c822ff"/></linearGradient><circle cx="52.5" cy="48.5" r="2.5" fill="url(#XhL2w0AqORiLJkqIRrl_om)"/></svg>