<svg xmlns="http://www.w3.org/2000/svg" viewBox="0 0 26 26"><path d="M 5 0 C 3.898438 0 3 0.898438 3 2 L 3 16 C 3 17.101563 3.898438 18 5 18 L 5.5625 18 L 5.8125 19.40625 C 6.511719 23.207031 9.789063 26 13.6875 26 L 16.90625 26 C 18.507813 26 19.894531 25.09375 20.59375 23.59375 L 22.6875 18.8125 C 23.1875 17.613281 23.105469 16.199219 22.40625 15 C 22.40625 14.898438 22.3125 14.914063 22.3125 14.8125 L 17 8.3125 L 17 2 C 17 0.898438 16.101563 0 15 0 Z M 8.8125 9.96875 C 8.945313 9.972656 9.0625 9.972656 9.1875 10 C 9.3125 10.027344 9.445313 10.070313 9.5625 10.125 C 9.792969 10.230469 10.011719 10.398438 10.1875 10.59375 C 10.363281 10.789063 10.492188 11.039063 10.59375 11.3125 L 13 18 L 15.40625 18 C 15.929688 17.925781 16.335938 17.617188 16.59375 17.21875 C 16.613281 17.1875 16.636719 17.160156 16.65625 17.125 C 16.71875 17.03125 16.765625 16.917969 16.8125 16.8125 C 16.816406 16.800781 16.839844 16.792969 16.84375 16.78125 C 16.890625 16.671875 16.910156 16.554688 16.9375 16.4375 C 16.96875 16.296875 17 16.152344 17 16 L 17 11.5625 L 20.6875 16.09375 C 21.085938 16.695313 21.105469 17.398438 20.90625 18 L 18.8125 22.8125 C 18.511719 23.511719 17.800781 24 17 24 L 13.8125 24 C 10.914063 24 8.40625 21.894531 7.90625 19.09375 L 7.3125 15.59375 L 6.8125 12.5 C 6.636719 11.710938 6.917969 10.851563 7.59375 10.3125 C 7.617188 10.296875 7.632813 10.265625 7.65625 10.25 C 7.675781 10.238281 7.699219 10.230469 7.71875 10.21875 C 7.8125 10.175781 7.898438 10.125 8 10.09375 C 8.273438 9.992188 8.546875 9.960938 8.8125 9.96875 Z"/></svg>