<svg xmlns="http://www.w3.org/2000/svg" viewBox="0 0 24 24"><path d="M 12 6 C 7.648438 6 3.660156 7.652344 0.65625 10.34375 C -0.222656 11.027344 -0.386719 12.292969 0.296875 13.171875 C 0.980469 14.050781 2.246094 14.214844 3.125 13.53125 C 3.855469 17.761719 7.566406 21 12 21 C 16.445313 21 20.15625 17.746094 20.875 13.5 C 21.75 14.050781 22.898438 13.851563 23.535156 13.035156 C 24.171875 12.222656 24.089844 11.058594 23.34375 10.34375 C 20.339844 7.652344 16.351563 6 12 6 Z M 12 10 C 12.824219 10 13.628906 10.070313 14.40625 10.21875 C 14.417969 10.21875 14.425781 10.214844 14.4375 10.21875 C 14.796875 10.714844 15 11.332031 15 12 C 15 13.667969 13.667969 15 12 15 C 10.332031 15 9 13.667969 9 12 C 9 11.332031 9.203125 10.714844 9.5625 10.21875 C 9.566406 10.214844 9.589844 10.222656 9.59375 10.21875 C 10.371094 10.070313 11.175781 10 12 10 Z M 7.09375 11 C 7.027344 11.324219 7 11.65625 7 12 C 7 14.75 9.25 17 12 17 C 14.75 17 17 14.75 17 12 C 17 11.65625 16.972656 11.324219 16.90625 11 C 17.636719 11.300781 18.34375 11.636719 19 12.0625 C 18.964844 15.910156 15.855469 19 12 19 C 8.144531 19 5.035156 15.910156 5 12.0625 C 5.65625 11.636719 6.363281 11.300781 7.09375 11 Z"/></svg>