<svg xmlns="http://www.w3.org/2000/svg" viewBox="0 0 26 26"><path d="M 22.40625 1.0625 C 22.277344 1.058594 22.136719 1.070313 22 1.09375 L 2 4 L 24 4 L 24 2.8125 C 24 1.851563 23.316406 1.097656 22.40625 1.0625 Z M 2 5 C 0.898438 5 0 5.898438 0 7 L 0 23 C 0 24.101563 0.898438 25 2 25 L 24 25 C 25.101563 25 26 24.101563 26 23 L 26 7 C 26 5.898438 25.101563 5 24 5 Z M 13 9 C 16.300781 9 19 11.699219 19 15 C 19 18.300781 16.300781 21 13 21 C 9.699219 21 7 18.300781 7 15 C 7 11.699219 9.699219 9 13 9 Z M 11.1875 12 C 9.886719 12 9 12.886719 9 14.1875 C 9 15.6875 12.898438 19 13 19 C 13 19 17 15.6875 17 14.1875 C 17 12.886719 16.113281 12 14.8125 12 C 14.011719 12 13.398438 12.507813 13 12.90625 C 12.601563 12.507813 11.988281 12 11.1875 12 Z"/></svg>