<?xml version="1.0"?><svg xmlns="http://www.w3.org/2000/svg" viewBox="0 0 128 128">    <path d="M 41 42 C 36 42 32 46 32 51 C 32 56 36 60 41 60 L 89.800781 60 L 97 84 L 34.599609 84 C 27.599609 84 20.999609 87.099609 16.599609 92.599609 L 2.5996094 110.09961 C 1.8996094 110.99961 1.6992187 112.20078 2.1992188 113.30078 C 2.7992187 114.30078 3.8 115 5 115 L 124 115 C 124.9 115 125.80039 114.60078 126.40039 113.80078 C 127.00039 113.00078 127.10039 112.09961 126.90039 111.09961 L 106.90039 44.099609 C 106.50039 42.799609 105.4 42 104 42 L 41 42 z M 41 48 L 101.80078 48 L 120 109 L 11.199219 109 L 21.300781 96.400391 C 24.500781 92.300391 29.399609 90 34.599609 90 L 101 90 C 101.9 90 102.80039 89.600781 103.40039 88.800781 C 104.00039 88.000781 104.10039 87.099609 103.90039 86.099609 L 94.900391 56.099609 C 94.500391 54.899609 93.3 54 92 54 L 41 54 C 39.3 54 38 52.7 38 51 C 38 49.3 39.3 48 41 48 z M 51 74 C 49.3 74 48 75.3 48 77 C 48 78.7 49.3 80 51 80 L 77 80 C 78.7 80 80 78.7 80 77 C 80 75.3 78.7 74 77 74 L 51 74 z M 4 121 C 2.3 121 1 122.3 1 124 C 1 125.7 2.3 127 4 127 L 124 127 C 125.7 127 127 125.7 127 124 C 127 122.3 125.7 121 124 121 L 4 121 z"/></svg>