<svg xmlns="http://www.w3.org/2000/svg" viewBox="0 0 100 100"><circle cx="13.063" cy="28.958" r="2" fill="#ee3e54"/><circle cx="77.063" cy="12.958" r="1" fill="#f1bc19"/><circle cx="50.063" cy="49.958" r="37" fill="#fce0a2"/><circle cx="83.063" cy="14.958" r="4" fill="#f1bc19"/><circle cx="87.063" cy="23.958" r="2" fill="#ee3e54"/><circle cx="81.063" cy="75.958" r="2" fill="#fbcd59"/><circle cx="15.063" cy="62.958" r="4" fill="#fbcd59"/><circle cx="25.063" cy="86.958" r="2" fill="#ee3e54"/><circle cx="18.563" cy="48.458" r="2.5" fill="#fff"/><circle cx="25.063" cy="69.958" r="1" fill="#f1bc19"/><circle cx="80.063" cy="33.958" r="1" fill="#fff"/><g><polygon fill="#8889b9" points="22.946,65.3 34.425,27.798 71.504,34.416 77.16,65.3"/><path fill="#472b29" d="M34.912,28.596l35.991,6.424L76.32,64.6H23.893L34.912,28.596 M33.937,27L22,66h56l-5.895-32.188 L33.937,27L33.937,27z"/></g><g><line x1="31.136" x2="32.306" y1="52.073" y2="48.435" fill="#8889b9"/><path fill="#472b29" d="M31.136,52.573c-0.051,0-0.102-0.008-0.153-0.024c-0.263-0.084-0.408-0.366-0.323-0.629l1.17-3.639 c0.085-0.263,0.368-0.406,0.629-0.322c0.263,0.084,0.408,0.366,0.323,0.629l-1.17,3.639C31.543,52.438,31.347,52.573,31.136,52.573 z"/></g><g><polyline fill="#8889b9" points="45.083,61.821 28,61.821 30.07,55.386"/><path fill="#472b29" d="M45.083,62.321H28c-0.16,0-0.31-0.076-0.404-0.205c-0.094-0.13-0.121-0.296-0.072-0.448l2.07-6.436 c0.084-0.263,0.364-0.409,0.629-0.322c0.263,0.084,0.407,0.366,0.323,0.629l-1.86,5.782h16.397c0.276,0,0.5,0.224,0.5,0.5 S45.36,62.321,45.083,62.321z"/></g><g><path fill="#472b29" d="M59.917,62.321h-5.75c-0.276,0-0.5-0.224-0.5-0.5s0.224-0.5,0.5-0.5h5.75c0.276,0,0.5,0.224,0.5,0.5 S60.193,62.321,59.917,62.321z"/></g><g><polyline fill="#8889b9" points="70.676,49.748 73,61.821 63.5,61.821"/><path fill="#472b29" d="M73,62.321h-9.5c-0.276,0-0.5-0.224-0.5-0.5s0.224-0.5,0.5-0.5h8.895l-2.209-11.479 c-0.052-0.271,0.125-0.533,0.396-0.586c0.274-0.052,0.533,0.125,0.586,0.396l2.324,12.073c0.028,0.146-0.011,0.298-0.105,0.413 C73.291,62.255,73.149,62.321,73,62.321z"/></g><g><polyline fill="#8889b9" points="62.436,36.219 68.263,37.209 70.086,46.682"/><path fill="#472b29" d="M70.086,47.183c-0.235,0-0.444-0.166-0.491-0.405l-1.757-9.134l-5.485-0.931 c-0.272-0.047-0.456-0.305-0.41-0.577c0.046-0.271,0.305-0.451,0.577-0.409l5.827,0.989c0.206,0.035,0.368,0.194,0.408,0.398 l1.823,9.474c0.052,0.271-0.125,0.533-0.396,0.586C70.149,47.18,70.117,47.183,70.086,47.183z"/></g><g><line x1="54.021" x2="59.072" y1="34.79" y2="35.648" fill="#8889b9"/><path fill="#472b29" d="M59.073,36.148c-0.028,0-0.056-0.002-0.084-0.007l-5.051-0.858 c-0.272-0.047-0.455-0.305-0.409-0.577c0.046-0.272,0.303-0.456,0.577-0.409l5.051,0.858c0.272,0.047,0.455,0.305,0.409,0.577 C59.524,35.977,59.312,36.148,59.073,36.148z"/></g><g><line x1="37.592" x2="50.091" y1="32" y2="34.123" fill="#8889b9"/><path fill="#472b29" d="M50.091,34.623c-0.028,0-0.056-0.002-0.084-0.007l-12.499-2.123 c-0.272-0.047-0.456-0.305-0.41-0.577c0.046-0.271,0.304-0.458,0.577-0.409l12.499,2.123c0.272,0.047,0.456,0.305,0.41,0.577 C50.542,34.45,50.331,34.623,50.091,34.623z"/></g><g><line x1="33.475" x2="36.623" y1="44.799" y2="35.013" fill="#8889b9"/><path fill="#472b29" d="M33.476,45.299c-0.051,0-0.102-0.008-0.153-0.024C33.06,45.19,32.915,44.908,33,44.646l3.147-9.786 c0.085-0.263,0.364-0.407,0.629-0.322c0.263,0.084,0.407,0.366,0.323,0.629l-3.147,9.786 C33.883,45.164,33.687,45.299,33.476,45.299z"/></g></svg>