<svg xmlns="http://www.w3.org/2000/svg" viewBox="0 0 100 100"><path d="M 50 14 C 30.129581 14 14 30.129595 14 50 C 14 69.870405 30.129581 86 50 86 C 69.870419 86 86 69.870405 86 50 C 86 30.129595 69.870419 14 50 14 z M 50 16 C 68.78954 16 84 31.210473 84 50 C 84 68.789527 68.78954 84 50 84 C 31.21046 84 16 68.789527 16 50 C 16 31.210473 31.21046 16 50 16 z M 50 19 C 32.884791 19 19 32.884791 19 50 C 19 67.115209 32.884791 81 50 81 C 67.115209 81 81 67.115209 81 50 C 81 40.904382 77.079076 32.716819 70.835938 27.046875 A 0.50005 0.50005 0 1 0 70.164062 27.787109 C 76.206924 33.275165 80 41.191618 80 50 C 80 66.574791 66.574791 80 50 80 C 33.425209 80 20 66.574791 20 50 C 20 33.425209 33.425209 20 50 20 C 53.630741 20 57.108062 20.645941 60.328125 21.826172 A 0.50018397 0.50018397 0 1 0 60.671875 20.886719 C 57.343938 19.66695 53.749259 19 50 19 z M 63.480469 22.140625 A 0.50005 0.50005 0 0 0 63.277344 23.091797 C 63.947092 23.423229 64.604492 23.779343 65.246094 24.158203 A 0.50005 0.50005 0 1 0 65.753906 23.296875 C 65.091508 22.905735 64.414908 22.53788 63.722656 22.195312 A 0.50005 0.50005 0 0 0 63.480469 22.140625 z M 67.507812 24.511719 A 0.50005 0.50005 0 0 0 67.457031 24.513672 A 0.50005 0.50005 0 0 0 67.212891 25.425781 C 67.545583 25.65906 67.873213 25.899999 68.195312 26.146484 A 0.50080937 0.50080937 0 1 0 68.804688 25.351562 C 68.470787 25.096048 68.130417 24.848143 67.787109 24.607422 A 0.50005 0.50005 0 0 0 67.507812 24.511719 z M 35.349609 32 C 34.55072 32 33.825981 32.477836 33.511719 33.212891 L 25.130859 52.804688 C 24.671002 53.879604 25.556373 55.097121 26.720703 54.992188 A 0.50005 0.50005 0 0 0 26.724609 54.992188 L 35.830078 54.070312 L 33.804688 61.599609 L 32.443359 61.072266 C 31.687986 60.779627 30.850138 61.473439 31.025391 62.269531 A 0.50005 0.50005 0 0 0 31.029297 62.285156 L 32.511719 68.173828 C 32.662518 68.863733 33.472594 69.209217 34.080078 68.855469 A 0.50005 0.50005 0 0 0 34.085938 68.851562 L 39.478516 65.615234 C 39.84261 65.403531 40.026537 64.998696 39.996094 64.626953 C 39.965654 64.25521 39.720256 63.888268 39.328125 63.736328 L 37.808594 63.148438 L 44.814453 50.310547 A 0.50005 0.50005 0 0 0 44.818359 50.302734 C 45.383093 49.222001 44.495658 47.895459 43.28125 48.005859 A 0.50005 0.50005 0 0 0 43.277344 48.005859 L 34.359375 48.910156 L 41.841797 34.169922 A 0.50005 0.50005 0 0 0 41.84375 34.166016 C 42.327742 33.187551 41.591955 32 40.5 32 L 35.349609 32 z M 35.349609 33 L 40.5 33 C 40.892045 33 41.121198 33.37109 40.947266 33.722656 L 33.054688 49.273438 A 0.50005 0.50005 0 0 0 33.550781 49.998047 L 43.373047 49 C 43.852639 48.9564 44.156861 49.412577 43.933594 49.839844 L 36.65625 63.169922 A 0.50005 0.50005 0 0 0 36.916016 63.875 L 38.966797 64.667969 C 39.005667 64.683029 38.99845 64.689974 39 64.708984 C 39.0016 64.727994 39.011473 64.7297 38.976562 64.75 A 0.50005 0.50005 0 0 0 38.96875 64.753906 L 33.578125 67.990234 C 33.529605 68.018484 33.497481 68.003038 33.488281 67.960938 A 0.50005 0.50005 0 0 0 33.484375 67.945312 L 32.001953 62.054688 C 31.989203 61.996778 32.011451 61.978499 32.082031 62.005859 L 33.962891 62.732422 A 0.50005 0.50005 0 0 0 34.626953 62.396484 L 36.982422 53.628906 A 0.50005 0.50005 0 0 0 36.449219 53.001953 L 26.625 53.998047 L 26.630859 53.996094 C 26.175189 54.037164 25.870639 53.620302 26.050781 53.199219 L 34.431641 33.607422 C 34.589318 33.238529 34.948498 33 35.349609 33 z M 60 33 C 55.592885 33 52 36.592885 52 41 L 52 48.050781 C 49.758042 48.303855 48 50.192095 48 52.5 L 48 63.5 C 48 65.979258 50.020742 68 52.5 68 L 67.5 68 C 69.979258 68 72 65.979258 72 63.5 L 72 52.5 C 72 50.192095 70.241958 48.303855 68 48.050781 L 68 41 C 68 36.592885 64.407115 33 60 33 z M 60 34 C 63.864885 34 67 37.135115 67 41 L 67 48 L 65 48 L 65 41 C 65 38.247738 62.752262 36 60 36 C 57.247738 36 55 38.247738 55 41 L 55 48 L 53 48 L 53 41 C 53 37.135115 56.135115 34 60 34 z M 60 37 C 62.209738 37 64 38.790262 64 41 L 64 48 L 56 48 L 56 41 C 56 38.790262 57.790262 37 60 37 z M 52.5 49 L 56 49 L 67.5 49 C 69.438742 49 71 50.561258 71 52.5 L 71 63.5 C 71 65.438742 69.438742 67 67.5 67 L 52.5 67 C 50.561258 67 49 65.438742 49 63.5 L 49 52.5 C 49 50.561258 50.561258 49 52.5 49 z M 60.015625 54.992188 C 59.061336 54.992187 58.280719 55.370518 57.775391 55.943359 C 57.270062 56.516201 57.029297 57.259826 57.029297 57.996094 C 57.029297 58.732362 57.270062 59.475987 57.775391 60.048828 C 58.280714 60.621669 59.061336 61 60.015625 61 C 60.969914 61 61.748578 60.621669 62.253906 60.048828 C 62.759235 59.475987 63 58.732362 63 57.996094 C 63 57.259826 62.759235 56.516201 62.253906 55.943359 C 61.748578 55.370518 60.969914 54.992188 60.015625 54.992188 z M 60.015625 55.992188 C 60.718002 55.992188 61.180902 56.23931 61.503906 56.605469 C 61.826906 56.971627 62 57.480362 62 57.996094 C 62 58.511826 61.826911 59.02056 61.503906 59.386719 C 61.180902 59.752877 60.718002 60 60.015625 60 C 59.313248 60 58.848395 59.752877 58.525391 59.386719 C 58.202386 59.02056 58.029297 58.511826 58.029297 57.996094 C 58.029297 57.480362 58.202386 56.971627 58.525391 56.605469 C 58.848395 56.23931 59.313248 55.992187 60.015625 55.992188 z"/></svg>