<svg xmlns="http://www.w3.org/2000/svg" viewBox="0 0 128 128"><path fill="#fd7" d="M102.5,95.8c0-24.9-10.1-47.4-26.4-63.6L21,87.3c-3.1,3.1-0.9,8.5,3.5,8.5L102.5,95.8z"/><path fill="#fff" d="M42.2 77.2A10 10 0 1 0 42.2 97.2A10 10 0 1 0 42.2 77.2Z" transform="rotate(-22.5 42.165 87.17)"/><path fill="#ff697d" d="M42.2 80.2A7 7 0 1 0 42.2 94.2A7 7 0 1 0 42.2 80.2Z" transform="rotate(-22.5 42.165 87.17)"/><path fill="#fff" d="M67.1 53.8A10 10 0 1 0 67.1 73.8A10 10 0 1 0 67.1 53.8Z" transform="rotate(-22.5 67.136 63.84)"/><path fill="#fff" d="M84.7,88c-2.1-5.1-8-7.5-13.1-5.4c-5.1,2.1-7.5,8-5.4,13.1c0,0.1,0.1,0.1,0.1,0.2l18.3,0C85.7,93.4,85.8,90.6,84.7,88z"/><path fill="#fff" d="M49 67.4A3 3 0 1 0 49 73.4A3 3 0 1 0 49 67.4Z" transform="rotate(-22.5 48.997 70.367)"/><path fill="#ff697d" d="M81.9,89.1c-1.5-3.6-5.6-5.3-9.1-3.8c-3.6,1.5-5.3,5.6-3.8,9.1c0.2,0.5,0.5,0.9,0.8,1.4l11.4,0C82.5,93.9,82.9,91.4,81.9,89.1z"/><path fill="#ffa869" d="M95.1,95.8l7.3,0c0-24.9-10.1-47.4-26.4-63.6L64.8,43.5c0.9,1.5,2.6,4.7,5.5,7.2c4.4,3.9,11,8.1,14.9,13.7c5.2,7.6,4,22.1,3.9,23.3C88.6,94.1,91.2,96.5,95.1,95.8z"/><path fill="#3f4a54" d="M102.5,98.8H24.5c-3.3,0-6.1-1.9-7.4-4.9c-1.3-3-0.6-6.4,1.7-8.7l43.8-43.8c1.2-1.2,3.1-1.2,4.2,0c1.2,1.2,1.2,3.1,0,4.2L23.1,89.4c-0.9,0.9-0.6,1.8-0.4,2.2c0.2,0.4,0.6,1.2,1.8,1.2h77.9c1.7,0,3,1.3,3,3S104.1,98.8,102.5,98.8z"/><path fill="#fff" d="M70.6,34.5c-0.9-2.2-0.5-4.8,1.3-6.5c2.3-2.3,6.1-2.3,8.5,0c18.1,18.1,28.1,42.2,28.1,67.9c0,3.3-2.7,6-6,6c-3.3,0-6-2.7-6-6c0-22.4-8.7-43.5-24.6-59.4C71.3,35.8,70.9,35.2,70.6,34.5z"/><path fill="#3f4a54" d="M102.5,104.8c-5,0-9-4-9-9c0-21.6-8.4-42-23.7-57.3c-0.8-0.8-1.5-1.8-2-2.9c-1.4-3.4-0.6-7.2,2-9.8c3.5-3.5,9.2-3.5,12.7,0c18.7,18.7,29,43.6,29,70C111.5,100.8,107.4,104.8,102.5,104.8z M76.1,29.2c-0.8,0-1.5,0.3-2.1,0.9c-0.9,0.9-1.1,2.1-0.7,3.3c0,0,0,0,0,0c0.1,0.4,0.4,0.7,0.6,1c16.4,16.4,25.5,38.3,25.5,61.5c0,1.7,1.3,3,3,3c1.7,0,3-1.3,3-3c0-24.8-9.7-48.2-27.2-65.8C77.6,29.5,76.9,29.2,76.1,29.2z"/><path fill="#ff697d" d="M67.1 56.8A7 7 0 1 0 67.1 70.8A7 7 0 1 0 67.1 56.8Z" transform="rotate(-22.5 67.136 63.84)"/><path fill="#fff" d="M60.6 81.5A3 3 0 1 0 60.6 87.5A3 3 0 1 0 60.6 81.5Z" transform="rotate(-22.5 60.558 84.542)"/><path fill="#fff" d="M83 71.1A3 3 0 1 0 83 77.1A3 3 0 1 0 83 71.1Z" transform="rotate(-22.5 82.985 74.141)"/></svg>