<svg xmlns="http://www.w3.org/2000/svg" viewBox="0 0 24 24"><path d="M 12 0 C 8.714844 0 6.8125 0.84375 6.8125 0.84375 L 6.84375 0.9375 C 6.859375 0.988281 7.21875 2.140625 8 4 C 7.800781 4.101563 7.304688 4.207031 6.90625 4.40625 C 5.707031 4.804688 4.605469 5.59375 3.90625 6.59375 L 0.3125 12.09375 C 0.113281 12.492188 0 12.914063 0 13.3125 L 0 21 L 3 21 L 3 14.90625 C 3 14.605469 3.113281 14.292969 3.3125 14.09375 L 5 11.59375 L 5 23 C 5 23.550781 8.132813 24 12 24 C 15.867188 24 19 23.550781 19 23 L 19 11.59375 L 20.6875 14.09375 C 20.886719 14.292969 21 14.605469 21 14.90625 L 21 21 L 24 21 L 24 13.3125 C 24 12.914063 23.894531 12.492188 23.59375 12.09375 L 20 6.59375 C 19.300781 5.492188 18.292969 4.710938 17.09375 4.3125 C 16.695313 4.210938 16.199219 4.101563 16 4 C 16.78125 2.140625 17.140625 0.988281 17.15625 0.9375 L 17.1875 0.84375 C 17.1875 0.84375 15.285156 0 12 0 Z M 12 1 C 14.105469 1 15.496094 1.339844 16.21875 1.5625 L 14 3 C 14 3 14.5 5 12 8 C 9.5 5 10 3 10 3 L 7.78125 1.5625 C 8.503906 1.339844 9.894531 1 12 1 Z"/></svg>