<svg xmlns="http://www.w3.org/2000/svg" viewBox="0 0 64 64"><radialGradient id="jcxigzRSClQXcmjoyvULNa" cx="32.5" cy="31.5" r="30.516" gradientUnits="userSpaceOnUse" spreadMethod="reflect"><stop offset="0" stop-color="#afeeff"/><stop offset=".193" stop-color="#bbf1ff"/><stop offset=".703" stop-color="#d7f8ff"/><stop offset="1" stop-color="#e1faff"/></radialGradient><path fill="url(#jcxigzRSClQXcmjoyvULNa)" d="M59,20h1.5c2.168,0,3.892-1.998,3.422-4.243C63.58,14.122,62.056,13,60.385,13L53,13 c-1.105,0-2-0.895-2-2c0-1.105,0.895-2,2-2h3.385c1.67,0,3.195-1.122,3.537-2.757C60.392,3.998,58.668,2,56.5,2H34.006H32.5h-24 C6.575,2,5,3.575,5,5.5S6.575,9,8.5,9H10c1.105,0,2,0.895,2,2c0,1.105-0.895,2-2,2l-5.385,0c-1.67,0-3.195,1.122-3.537,2.757 C0.608,18.002,2.332,20,4.5,20H18v12L4.615,32c-1.67,0-3.195,1.122-3.537,2.757C0.608,37.002,2.332,39,4.5,39H5c1.105,0,2,0.895,2,2 c0,1.105-0.895,2-2,2H4.5c-2.168,0-3.892,1.998-3.422,4.243C1.42,48.878,2.945,50,4.615,50H10c1.105,0,2,0.895,2,2 c0,1.105-0.895,2-2,2l-1.385,0c-1.67,0-3.195,1.122-3.537,2.757C4.608,59.002,6.332,61,8.5,61h22.494H32.5h23 c1.925,0,3.5-1.575,3.5-3.5S57.425,54,55.5,54H55c-1.105,0-2-0.895-2-2c0-1.105,0.895-2,2-2h4.385c1.67,0,3.195-1.122,3.537-2.757 C63.392,44.998,61.668,43,59.5,43H47V31h12.385c1.67,0,3.195-1.122,3.537-2.757C63.392,25.998,61.668,24,59.5,24H59 c-1.105,0-2-0.895-2-2C57,20.895,57.895,20,59,20z"/><linearGradient id="jcxigzRSClQXcmjoyvULNb" x1="32" x2="32" y1="56" y2="6" gradientUnits="userSpaceOnUse" spreadMethod="reflect"><stop offset="0" stop-color="#ff634d"/><stop offset=".204" stop-color="#fe6464"/><stop offset=".521" stop-color="#fc6581"/><stop offset=".794" stop-color="#fa6694"/><stop offset=".989" stop-color="#fa669a"/><stop offset="1" stop-color="#fa669a"/></linearGradient><path fill="url(#jcxigzRSClQXcmjoyvULNb)" d="M57,31c0,13.805-11.195,25-25,25S7,44.805,7,31S18.195,6,32,6S57,17.195,57,31z"/><path fill="#fff" d="M26 31h13c1.1 0 2 .9 2 2v0c0 1.1-.9 2-2 2H26c-1.1 0-2-.9-2-2v0C24 31.9 24.9 31 26 31zM26 37h13c1.1 0 2 .9 2 2v0c0 1.1-.9 2-2 2H26c-1.1 0-2-.9-2-2v0C24 37.9 24.9 37 26 37z"/><path fill="#fff" d="M32.5,31L32.5,31c1.375,0,2.5,1.125,2.5,2.5v10c0,1.375-1.125,2.5-2.5,2.5h0 c-1.375,0-2.5-1.125-2.5-2.5v-10C30,32.125,31.125,31,32.5,31z"/><path fill="#fff" d="M24.151,18.391L24.151,18.391c1.158-0.741,2.712-0.399,3.453,0.76l6.794,10.627 c0.741,1.158,0.399,2.712-0.76,3.453l0,0c-1.158,0.741-2.712,0.399-3.453-0.76l-6.794-10.627 C22.651,20.686,22.993,19.132,24.151,18.391z"/><path fill="#fff" d="M40.849,18.391L40.849,18.391c-1.158-0.741-2.712-0.399-3.453,0.76l-7.538,11.791 c-0.741,1.158-0.399,2.712,0.76,3.453l0,0c1.158,0.741,2.712,0.399,3.453-0.76l7.538-11.791 C42.349,20.686,42.007,19.132,40.849,18.391z"/></svg>