<svg xmlns="http://www.w3.org/2000/svg" viewBox="0 0 26 26"><path d="M 1.59375 0 C 1.59375 0 0.804688 0.199219 0.40625 1 C 0.0078125 1.800781 0.1875 2.8125 0.1875 2.8125 C 0.1875 2.8125 1.707031 3.292969 2.90625 4.59375 C 5.90625 7.59375 3.898438 11.710938 7.5 19.3125 C 9.898438 24.613281 15.40625 26 18.40625 26 C 20.304688 26 24.289063 24.914063 25.1875 23.8125 C 25.144531 23.828125 25.105469 23.832031 25.0625 23.84375 C 25.75 23.164063 26.046875 22.203125 25.96875 21.25 C 25.890625 20.328125 25.449219 19.402344 24.78125 18.5625 C 24.726563 18.496094 24.714844 18.410156 24.65625 18.34375 L 24.625 18.375 C 24.390625 17.972656 24.21875 17.710938 23.96875 17.46875 C 23.949219 17.445313 23.925781 17.429688 23.90625 17.40625 C 23.195313 16.542969 22.328125 15.941406 21.375 15.65625 C 20.886719 15.507813 20.351563 15.425781 19.84375 15.5 C 19.347656 15.570313 18.871094 15.777344 18.46875 16.125 C 18.457031 16.132813 18.449219 16.144531 18.4375 16.15625 C 18.386719 16.199219 18.359375 16.269531 18.3125 16.3125 C 18.175781 16.445313 18.039063 16.5625 17.9375 16.71875 C 14.660156 19.996094 11.324219 15.988281 9.6875 12.90625 C 8.488281 10.707031 8.414063 5.414063 5.3125 2.3125 C 3.710938 0.710938 1.59375 0 1.59375 0 Z M 20.15625 17.5 C 20.316406 17.476563 20.519531 17.484375 20.78125 17.5625 C 21.304688 17.71875 21.925781 18.117188 22.40625 18.71875 L 22.5 18.8125 C 22.363281 18.675781 23.136719 19.714844 23 19.4375 L 23.0625 19.5625 L 23.15625 19.65625 C 23.683594 20.265625 23.925781 20.902344 23.96875 21.40625 C 24.011719 21.910156 23.867188 22.25 23.625 22.46875 C 23.441406 22.632813 23.148438 22.6875 22.625 22.53125 C 22.101563 22.375 21.449219 21.976563 20.96875 21.375 L 20.9375 21.34375 L 20.90625 21.28125 C 21.042969 21.417969 20.269531 20.378906 20.40625 20.65625 L 20.28125 20.46875 C 19.792969 19.859375 19.519531 19.15625 19.46875 18.625 C 19.417969 18.09375 19.546875 17.824219 19.71875 17.6875 L 19.75 17.65625 L 19.78125 17.65625 C 19.875 17.574219 19.996094 17.523438 20.15625 17.5 Z"/></svg>