<svg xmlns="http://www.w3.org/2000/svg" viewBox="0 0 40 40"><path fill="#66798f" d="M23.315,18.643h-6.63c0,0-6.63,2.056-6.63,14.336h19.889C29.944,20.742,23.315,18.643,23.315,18.643 z"/><path fill="#98ccfd" d="M4.509,38.5c0.34-9.302,10.137-10.99,10.238-11.006L25.333,27.5c0.331,0.062,9.827,1.75,10.158,11 H4.509z"/><path fill="#4788c7" d="M25.247,28c0.945,0.173,9.092,1.901,9.716,10H5.038c0.624-8.106,8.787-9.83,9.715-10H25.247 M25.333,27H14.667C14.667,27,4,28.721,4,39h32C36,28.757,25.333,27,25.333,27L25.333,27z"/><path fill="#dff0fe" d="M20,30.411c-3.281,0-4.701-1.917-5-2.387v-4.863h10v4.863C24.703,28.491,23.284,30.411,20,30.411z"/><path fill="#4788c7" d="M24.5,23.661v4.212c-0.376,0.531-1.69,2.038-4.5,2.038c-2.803,0-4.122-1.507-4.5-2.039v-4.211H24.5 M25.5,22.661h-11v5.5c0,0,1.467,2.75,5.5,2.75s5.5-2.75,5.5-2.75V22.661L25.5,22.661z"/><path fill="#dff0fe" d="M23 38L17 38 18 33 22 33z"/><path fill="#fff" d="M23 34.992L17 34.992 18 29.597 22 29.597z"/><g><path fill="#dff0fe" d="M20,27.5c-0.621,0-1.221-0.237-1.688-0.668l-0.084-0.078l-0.11-0.033 C15.355,25.886,13.5,23.387,13.5,20.5v-8.136c0-1.564,1.272-2.836,2.836-2.836h7.328c1.563,0,2.836,1.272,2.836,2.836V20.5 c0,2.887-1.855,5.386-4.618,6.221l-0.11,0.033l-0.084,0.078C21.221,27.263,20.621,27.5,20,27.5z"/><path fill="#4788c7" d="M23.664,10.028c1.288,0,2.336,1.048,2.336,2.336V20.5c0,2.623-1.753,4.984-4.263,5.742l-0.22,0.066 l-0.169,0.156C20.974,26.81,20.495,27,20,27s-0.974-0.19-1.349-0.536l-0.169-0.156l-0.22-0.066C15.753,25.484,14,23.123,14,20.5 v-8.136c0-1.288,1.048-2.336,2.336-2.336H23.664 M23.664,9.028h-7.328c-1.842,0-3.336,1.494-3.336,3.336V20.5 c0,3.161,2.096,5.83,4.973,6.699C18.508,27.692,19.216,28,20,28s1.492-0.308,2.027-0.801C24.904,26.33,27,23.661,27,20.5v-8.136 C27,10.521,25.506,9.028,23.664,9.028L23.664,9.028z"/></g><g><path fill="#fff" d="M29,32.5c-2.481,0-4.5-2.019-4.5-4.5c0-1.182,0.459-2.301,1.292-3.15l0.344-0.35l-0.344-0.35 C24.959,23.301,24.5,22.182,24.5,21s0.459-2.301,1.292-3.15l0.344-0.35l-0.344-0.35C24.959,16.301,24.5,15.182,24.5,14 c0-0.367,0.06-0.752,0.187-1.211l0.122-0.438l-0.424-0.163c-0.908-0.351-1.663-0.972-2.184-1.796l-0.219-0.347l-0.383,0.147 C21.067,10.396,20.528,10.5,20,10.5s-1.067-0.104-1.601-0.308l-0.383-0.147l-0.219,0.347c-0.521,0.825-1.275,1.446-2.184,1.796 l-0.424,0.163l0.122,0.438C15.44,13.248,15.5,13.633,15.5,14c0,1.182-0.459,2.301-1.292,3.15l-0.344,0.35l0.344,0.35 C15.041,18.699,15.5,19.818,15.5,21s-0.459,2.301-1.292,3.15l-0.344,0.35l0.344,0.35C15.041,25.699,15.5,26.818,15.5,28 c0,2.481-2.019,4.5-4.5,4.5S6.5,30.481,6.5,28c0-1.182,0.459-2.301,1.292-3.15l0.344-0.35l-0.344-0.35 C6.959,23.301,6.5,22.182,6.5,21s0.459-2.301,1.292-3.15l0.344-0.35l-0.344-0.35C6.959,16.301,6.5,15.182,6.5,14 c0-1.868,1.133-3.512,2.886-4.188L9.81,9.649L9.687,9.211C9.56,8.752,9.5,8.367,9.5,8c0-2.481,2.019-4.5,4.5-4.5 c0.528,0,1.067,0.104,1.601,0.308l0.383,0.147l0.219-0.347C17.035,2.288,18.455,1.5,20,1.5s2.965,0.788,3.798,2.108l0.219,0.347 l0.383-0.147C24.933,3.604,25.472,3.5,26,3.5c2.481,0,4.5,2.019,4.5,4.5c0,0.367-0.06,0.752-0.188,1.211L30.19,9.649l0.424,0.163 C32.367,10.488,33.5,12.132,33.5,14c0,1.182-0.459,2.301-1.292,3.15l-0.344,0.35l0.344,0.35C33.041,18.699,33.5,19.818,33.5,21 s-0.459,2.301-1.292,3.15l-0.344,0.35l0.344,0.35C33.041,25.699,33.5,26.818,33.5,28C33.5,30.481,31.481,32.5,29,32.5z"/><path fill="#4788c7" d="M20,2c1.372,0,2.633,0.701,3.375,1.875l0.437,0.693l0.765-0.293C25.055,4.093,25.534,4,26,4 c2.206,0,4,1.794,4,4c0,0.322-0.054,0.664-0.169,1.075l-0.246,0.876l0.849,0.327C31.993,10.88,33,12.341,33,14 c0,1.051-0.408,2.045-1.149,2.799L31.163,17.5l0.688,0.701C32.592,18.955,33,19.949,33,21s-0.408,2.045-1.149,2.799L31.163,24.5 l0.688,0.701C32.592,25.955,33,26.949,33,28c0,2.206-1.794,4-4,4s-4-1.794-4-4c0-1.051,0.408-2.045,1.149-2.799l0.688-0.701 l-0.688-0.701C25.408,23.045,25,22.051,25,21s0.408-2.045,1.149-2.799l0.688-0.701l-0.688-0.701C25.408,16.045,25,15.051,25,14 c0-0.322,0.054-0.664,0.169-1.075l0.246-0.876l-0.849-0.327c-0.807-0.311-1.478-0.863-1.941-1.597l-0.437-0.693l-0.765,0.293 C20.945,9.907,20.466,10,20,10s-0.945-0.093-1.422-0.275l-0.765-0.293l-0.437,0.693c-0.463,0.733-1.134,1.285-1.941,1.597 l-0.849,0.327l0.246,0.876C14.946,13.336,15,13.678,15,14c0,1.051-0.408,2.045-1.149,2.799L13.163,17.5l0.688,0.701 C14.592,18.955,15,19.949,15,21s-0.408,2.045-1.149,2.799L13.163,24.5l0.688,0.701C14.592,25.955,15,26.949,15,28 c0,2.206-1.794,4-4,4s-4-1.794-4-4c0-1.051,0.408-2.045,1.149-2.799L8.837,24.5l-0.688-0.701C7.408,23.045,7,22.051,7,21 s0.408-2.045,1.149-2.799L8.837,17.5l-0.688-0.701C7.408,16.045,7,15.051,7,14c0-1.659,1.007-3.12,2.566-3.722l0.849-0.327 l-0.246-0.876C10.054,8.664,10,8.322,10,8c0-2.206,1.794-4,4-4c0.466,0,0.945,0.093,1.422,0.275l0.765,0.293l0.437-0.693 C17.367,2.701,18.628,2,20,2 M20,1c-1.781,0-3.335,0.939-4.22,2.341C15.225,3.129,14.629,3,14,3c-2.761,0-5,2.239-5,5 c0,0.469,0.086,0.915,0.206,1.346C7.334,10.068,6,11.873,6,14c0,1.364,0.549,2.598,1.435,3.5C6.549,18.402,6,19.636,6,21 s0.549,2.598,1.435,3.5C6.549,25.402,6,26.636,6,28c0,2.761,2.239,5,5,5s5-2.239,5-5c0-1.364-0.549-2.598-1.435-3.5 C15.451,23.598,16,22.364,16,21s-0.549-2.598-1.435-3.5C15.451,16.598,16,15.364,16,14c0-0.469-0.086-0.915-0.206-1.346 c1.01-0.39,1.856-1.092,2.427-1.996C18.775,10.871,19.371,11,20,11s1.225-0.129,1.78-0.341c0.57,0.903,1.417,1.606,2.427,1.996 C24.086,13.085,24,13.531,24,14c0,1.364,0.549,2.598,1.435,3.5C24.549,18.402,24,19.636,24,21s0.549,2.598,1.435,3.5 C24.549,25.402,24,26.636,24,28c0,2.761,2.239,5,5,5s5-2.239,5-5c0-1.364-0.549-2.598-1.435-3.5C33.451,23.598,34,22.364,34,21 s-0.549-2.598-1.435-3.5C33.451,16.598,34,15.364,34,14c0-2.127-1.334-3.932-3.206-4.654C30.914,8.915,31,8.469,31,8 c0-2.761-2.239-5-5-5c-0.629,0-1.225,0.129-1.78,0.341C23.335,1.939,21.781,1,20,1L20,1z"/></g></svg>