<?xml version="1.0"?><svg xmlns="http://www.w3.org/2000/svg" viewBox="0 0 30 30">    <path d="M 15 3.0078125 A 2 2 0 0 0 13.294922 3.9648438 C 12.067337 4.1686778 11.063142 4.6347697 10.164062 5.046875 C 8.6456057 5.7428807 7.3490127 6.3222305 4.625 5.7753906 A 1.0001163 1.0001163 0 0 0 4.2304688 7.7363281 C 4.3604731 7.7624262 4.4772634 7.7715815 4.6035156 7.7929688 L 1.3222656 16 L 3.4765625 16 L 6 9.6914062 L 8.5234375 16 L 10.677734 16 L 7.4433594 7.9140625 C 8.900537 7.7633949 10.038512 7.3030972 10.998047 6.8632812 C 11.812538 6.4899482 12.487555 6.1538711 13.251953 5.9746094 A 2 2 0 0 0 15 7.0078125 A 2 2 0 0 0 16.605469 6.1953125 C 18.192328 6.6921561 18.880606 7.5502843 19.894531 8.6503906 C 20.63371 9.4523976 21.538195 10.349249 22.896484 11.0625 L 19.322266 20 L 21.476562 20 L 24 13.691406 L 26.523438 20 L 28.677734 20 L 25.472656 11.986328 C 25.584808 12.012045 25.684393 12.044971 25.800781 12.068359 A 1.0001 1.0001 0 1 0 26.193359 10.107422 C 23.469813 9.5601196 22.497219 8.5250763 21.365234 7.296875 C 20.326155 6.1694759 19.110166 4.8254798 16.822266 4.1894531 A 2 2 0 0 0 15 3.0078125 z M 1 18 A 1 1 0 0 0 0 19 A 1 1 0 0 0 0.09375 19.419922 C 0.09375 19.419922 0.095685888 19.42574 0.095703125 19.425781 A 1 1 0 0 0 0.1640625 19.548828 C 0.33246097 19.91572 1.8557308 23 6 23 C 10.112486 23 11.637527 19.970995 11.826172 19.564453 A 1 1 0 0 0 12 19 A 1 1 0 0 0 11 18 L 6 18 L 1 18 z M 19 22 A 1 1 0 0 0 18 23 A 1 1 0 0 0 18.09375 23.419922 C 18.09375 23.419922 18.095686 23.42574 18.095703 23.425781 A 1 1 0 0 0 18.164062 23.548828 C 18.332461 23.91572 19.855731 27 24 27 C 28.112486 27 29.637527 23.970995 29.826172 23.564453 A 1 1 0 0 0 30 23 A 1 1 0 0 0 29 22 L 24 22 L 19 22 z"/></svg>