<svg xmlns="http://www.w3.org/2000/svg" viewBox="0 0 24 24"><path d="M 12 0 L 0 5.1875 L 0 24 L 24 24 L 24 5.1875 Z M 12 3.40625 L 22 7.71875 L 22 22 L 2 22 L 2 7.71875 Z M 12 8.09375 C 12 8.09375 11.480469 8.757813 11.28125 9.21875 C 11.058594 9.085938 10.804688 9 10.5 9 C 9.597656 9 8.992188 9.289063 8.46875 9.53125 C 7.945313 9.773438 7.46875 10 6.5 10 C 6.222656 9.972656 5.980469 10.175781 5.953125 10.453125 C 5.925781 10.730469 6.128906 10.972656 6.40625 11 L 4.8125 16 L 5.59375 16 L 7 11.40625 L 8.40625 16 L 9.1875 16 L 7.71875 10.875 C 8.195313 10.769531 8.589844 10.617188 8.90625 10.46875 C 9.457031 10.210938 9.804688 10 10.5 10 C 10.734375 10 10.988281 10.191406 11.1875 10.46875 C 11.085938 10.625 11 10.796875 11 11 C 11 11.550781 11.449219 12 12 12 C 12.550781 12 13 11.550781 13 11 C 13 10.796875 12.914063 10.625 12.8125 10.46875 C 13.011719 10.191406 13.265625 10 13.5 10 C 14.195313 10 14.542969 10.210938 15.09375 10.46875 C 15.410156 10.617188 15.804688 10.769531 16.28125 10.875 L 14.8125 16 L 15.59375 16 L 17 11.40625 L 18.40625 16 L 19.1875 16 L 17.59375 11 C 17.871094 10.972656 18.074219 10.730469 18.046875 10.453125 C 18.019531 10.175781 17.777344 9.972656 17.5 10 C 16.53125 10 16.054688 9.773438 15.53125 9.53125 C 15.007813 9.289063 14.402344 9 13.5 9 C 13.195313 9 12.941406 9.085938 12.71875 9.21875 C 12.519531 8.757813 12 8.09375 12 8.09375 Z M 4 17 C 4.398438 18.199219 5.601563 19 7 19 C 8.398438 19 9.601563 18.199219 10 17 Z M 14 17 C 14.398438 18.199219 15.601563 19 17 19 C 18.398438 19 19.601563 18.199219 20 17 Z"/></svg>