<svg xmlns="http://www.w3.org/2000/svg" width="512" height="512" viewBox="0 0 512 512"><path fill="#D6E5E5" d="M233.5 59.1c-7.7.4-15.3.2-22.9-.2.1 3 .2 6 .1 9-.1 3.6-1.2 10.1 1.3 13.1 1.7 2.1 8.9.2 11.3-.2 9.3-1.3 18.6-2.8 27.9-3.7 4.2-.4 8.8-.9 13.4-.8.4-5.6 1.9-11 3.3-16.4.2-.7.3-1.4.5-2.1C256.8 58.2 245.1 58.5 233.5 59.1zM201.4 178c-12.8 7.7-19.4 24.2-28 35.5-4.4 5.7-11.4 12.6-12.1 20.1 0-.3 1.4 1.3 2 1.8 1.6 1.3 3.3 2.4 4.9 3.5 2.1 1.4 4.1 2.7 6.1 4.2 11.5-20.3 21.7-42 43-52C211.2 188 205.1 183.7 201.4 178z"/><path fill="#FEBF10" d="M370,301.1c-6-4.5-13.1-7.5-20-10.3c-9.8-3.9-20.3-4.6-30.8-5.4c-14.9-1.2-29.9-0.9-44.8,0c-30,1.9-59.8,6.1-89.8,8.4c-13.6,1-26.9,2.7-40.5,3.2c-10.3,0.4-21.3,0.8-31.1,4.3c5.7,12.1,29.1,11.3,40,12.1c11.6,0.9,23.3,3.4,34.8,4.9c12.7,1.7,25.4,3.2,38.2,4.3c49.7,4.4,103.1,4.5,149.3-16.7C374.1,304.2,372,302.6,370,301.1z"/><path fill="#D6E5E5" d="M256.4,27.4c-8.4-1.2-17.3-1.1-25.7-1.3c-5.1-0.1-10.2-1.5-15.3-0.7c-5.9,0.9-5.7,7.3-5.7,12c0,3.5,0.2,7,0.4,10.4c7.5,0.5,15,0.7,22.5,0.4c12.6-0.4,25.2-0.8,37.8-1.1c0.2-2.4,0.3-4.9,0.2-7.5C270.3,31.3,263.8,28.5,256.4,27.4z"/><path fill="#74CCCF" d="M407.5,142.7c-3.3-22.5-11.8-44.9-27.6-61.6c-12.4-13.1-30.3-24.2-48.8-26.4c-0.2-0.1-0.4-0.2-0.6-0.2c-8.3-1.3-16.8-1.8-24,3.1c-9.1,0-18.2,0-27.2,0.2c-1.6,6.9-3.5,13.8-3.8,21c0.2,0.1,0.4,0.2,0.5,0.3c6.3,3.4,0,12.4-6.2,9.1c-1.5-0.8-6.2-0.7-8.6-0.7c-5.2,0-10.4,0.7-15.5,1.3c-9.3,1.1-18.6,2.4-27.9,3.6c-4.5,0.6-8.5,0.7-12.2-2.3c-4.3-3.5-5.5-8.3-5.9-13.6c-0.3-5.1,0-10.3,0.2-15.4c0-1,0-1.9,0-2.9c-13.9-1.1-27.8-2.8-41.7-3.4c3.4,6.2,8.4,11.4,13.2,16.5c7.1,7.4,14.4,14.4,19.9,23.2c5.2,8.3,5.2,18.3,5.4,27.7c0.1,5.1-0.4,11.3,0.4,16.9c0.1,0.2,0.1,0.3,0.1,0.5c0.2,0.8,0.3,1.5,0.4,2.2c0.2,0.7,0.4,1.4,0.6,2.1c-1.5,3.6-2.8,7.2-4,10.9c-0.2,0-0.4,0-0.6-0.1c-2.8,3.6-6.7,6.6-10.6,9.3c-11.1,7.6-21.9,15.9-32.3,24.4c-21.3,17.4-34.8,39.9-40.2,66.9c-2.4,12.1-3.5,24.4-4,36.8c11.1-4.5,23.2-5.3,35-5.9c15-0.7,29.8-2.4,44.8-3.5c32.4-2.4,64.5-7.2,97-8.7c24.8-1.1,52.1-1.4,75.3,8.6c5.3,2.3,13.8,6.3,20.2,11.5c-0.2-2.5-0.4-5-0.6-7.5c-0.4-4.6-0.7-9.2-1.1-13.8c0,0,0,0,0.1,0c0,0,0,0,0,0c0.7-0.5,1.4-1.1,2.1-1.7c5.1-4.2,9-9.5,12.5-15.3c0.2-0.3,0.3-0.6,0.3-1c2.2-4.3,3.5-9.4,4.6-13.2c2.5-8.7,5.1-17.5,7.2-26.3C409.5,191.7,411,166.7,407.5,142.7z M229,198.5c-27.5,7.3-37,37.4-50.5,59.2c-3.1,5-10,1.7-10-3.5v-1.8c0,0-0.1-0.1-0.1-0.1c-5-4.6-16.7-8.2-17.8-16.1c-1.3-9.9,6-18.8,11.7-26.2c11.6-14.9,20.2-37.3,39.3-44.3c3.5-1.3,6.9,0.2,7.8,3.9c1.8,6.7,11.6,11.4,17.4,13.9c2.1,0.9,3.2,2.6,3.4,4.4C234.2,189.6,234.6,197.1,229,198.5z M373.4,215.2c0.2,0.3,0.4,0.7,0.6,1c-0.7,0.6-1.3,1.2-2,1.8c-2.3,1.7-4.4,3.5-6.5,5.5c-0.1-0.2-0.2-0.5-0.4-0.7c-4,0.5-7.6-4.6-5.3-8.5c-6.5-9.2-14.6-17.2-23.9-24.2c-8.5-6.4-17.7-11.9-26.2-18.4c-9.1-6.9-13.5-15.7-14-27.1c-0.7-14.9,3.1-28.9,5.2-43.6c1.1-8.2,3.6-16.1,5.9-24.1c4.6-1.3,9.2-2.2,13.8-3.1c29.9,1.8,49.4,30.5,58.3,57.2C387.5,156.7,390.6,192,373.4,215.2z"/><path fill="#FEBF10" d="M380.3,335.9c0.1-4.9,0.1-9.8,0-14.7c-2.7,1.4-5.5,0-6.9-2.4c-46.4,19.1-99,19.2-148.3,14.9c-13.3-1.2-26.5-2.7-39.7-4.5c-11.7-1.6-23.5-4-35.3-4.9c-13.5-1-34.1-1.5-43.9-12.9c0,7.6,0,15.3-0.1,22.8c-0.2,24.4-3.8,48.6-3.5,72.9c0.3,23.3,6,47,25.4,61.8c17.7,13.5,41.6,15.2,63.1,15.2c21.9,0,43.8-1.9,65.7-2.7c20.6-0.7,41.4-2.1,61.3-7.8c22.2-6.4,40-20.1,49.2-41c-0.7-1.2-1.1-2.7-0.7-4.3C373.5,397.9,379.6,367.1,380.3,335.9z"/><path fill="#010101" d="M378.9,130.9c-8.9-26.7-28.4-55.4-58.3-57.2c-4.6,0.9-9.2,1.9-13.8,3.1c-2.3,8-4.8,15.9-5.9,24.1c-2,14.6-5.9,28.6-5.2,43.6c0.5,11.4,4.9,20.2,14,27.1c8.5,6.4,17.7,12,26.2,18.4c9.3,7,17.4,15,23.9,24.2c-2.3,3.9,1.3,9,5.3,8.5c0.1,0.2,0.2,0.5,0.4,0.7c2-2,4.2-3.8,6.5-5.5c0.7-0.6,1.3-1.2,2-1.8c-0.2-0.3-0.4-0.7-0.6-1C390.6,192,387.5,156.7,378.9,130.9z M366.9,205.3c-5.1-7-11.2-13.4-18.1-19.1c-8.6-7.1-17.7-13.4-27-19.5c-4.2-2.7-8.6-5.6-11.5-9.7c-3.1-4.3-3.7-9.6-3.7-14.8c-0.1-14.2,3-28.1,5.6-41.9c1-5.3,2.4-10.5,3.8-15.7c0,0,0,0,0.1,0c27.9-2,46.1,28.5,53.1,51.5C375.3,156.5,379.1,185.7,366.9,205.3z"/><path fill="#010101" d="M417.8,137.4c-4.3-24.5-14.3-49.4-32.8-66.7c-17.9-16.8-41.5-29.1-66.6-26.9c-2.2,0.2-3.5,1.4-4.1,2.9c-11,0-22.1,0.1-33.1,0.3c0.4-3.4,0.4-6.8,0-10.3c-2.6-21.1-26.1-20.6-42.4-21.2c-5.2-0.2-10.3-0.6-15.4-1c-4.8-0.4-10.5-0.7-14.9,1.8c-10.9,6.1-10.3,17.8-9.5,28.8c0,0.7,0.1,1.3,0.2,2c-16.2-1.4-32.5-3.3-48.8-3.4c-3.2,0-6.9,2.9-5.8,6.5c3.1,10.3,9.4,18.7,16.7,26.4c6.9,7.2,15,14.1,20.2,22.8c4.9,8.3,4.2,18.2,4.4,27.5c0.1,4.1,0,8.7,0.5,13.2c0,0.5,0,1,0.1,1.6c1.8,7.7-8.2,12-13.2,15.8c-9,6.9-18.4,13.4-27.2,20.5c-16.7,13.5-30.8,29.8-38.8,49.9c-9.8,24.4-11.5,51-11.9,77c-0.2,13.1,0,26.2-0.4,39.3c-0.3,11.9-1.5,23.7-2.4,35.5c-1.6,23.5-2.8,49.2,7.3,71.1c9.5,20.6,28,34.7,49.9,40c22.4,5.5,45.5,4.5,68.3,3.2c21-1.2,42.1-1.2,63-3c20.3-1.7,41.3-5,59.5-14.5c18.9-9.9,32.5-25.8,39.5-46.1c0.8-2.4,0-4.4-1.4-5.7c6.6-30.2,12.4-60.9,12.6-91.9c0.1-16.2-0.8-32.3-2.2-48.4c-0.3-4-0.6-8.1-1-12.2c0.9,0,1.8-0.2,2.7-0.7c0.5-0.3,1.1-0.6,1.5-0.9c8.1-5.2,11.7-15.4,14.3-24.2c2.8-9.5,5.7-19.3,7.9-29C420.5,191.3,422.5,163.9,417.8,137.4z M215.3,25.4c5.1-0.8,10.2,0.6,15.3,0.7c8.5,0.1,17.3,0.1,25.7,1.3c7.5,1.1,13.9,3.9,14.1,12.3c0.1,2.6,0,5-0.2,7.5c-12.6,0.3-25.2,0.6-37.8,1.1c-7.5,0.3-15,0-22.5-0.4c-0.2-3.5-0.4-6.9-0.4-10.4C209.6,32.8,209.4,26.4,215.3,25.4z M210.6,58.9c7.6,0.4,15.3,0.6,22.9,0.2c11.6-0.6,23.2-1,34.9-1.2c-0.2,0.7-0.3,1.4-0.5,2.1c-1.4,5.4-2.9,10.8-3.3,16.4c-4.5-0.2-9.2,0.4-13.4,0.8c-9.4,0.9-18.6,2.5-27.9,3.7c-2.5,0.3-9.6,2.3-11.3,0.2c-2.5-3-1.4-9.5-1.3-13.1C210.8,64.9,210.7,61.9,210.6,58.9z M380.3,335.9c-0.7,31.2-6.8,62-13.5,92.4c-0.4,1.7,0,3.2,0.7,4.3c-9.2,20.8-27,34.6-49.2,41c-19.9,5.7-40.7,7.1-61.3,7.8c-21.9,0.8-43.8,2.6-65.7,2.7c-21.5,0-45.4-1.7-63.1-15.2c-19.4-14.7-25.1-38.5-25.4-61.8c-0.3-24.4,3.3-48.6,3.5-72.9c0.1-7.6,0-15.2,0.1-22.8c9.8,11.4,30.4,11.9,43.9,12.9c11.8,0.9,23.5,3.3,35.3,4.9c13.2,1.8,26.4,3.4,39.7,4.5c49.3,4.3,101.8,4.3,148.3-14.9c1.4,2.4,4.2,3.8,6.9,2.4C380.4,326.1,380.4,331,380.3,335.9z M113,301.3c9.8-3.6,20.8-3.9,31.1-4.3c13.6-0.5,27-2.2,40.5-3.2c30-2.3,59.8-6.5,89.8-8.4c14.9-0.9,29.9-1.2,44.8,0c10.4,0.8,21,1.6,30.8,5.4c6.9,2.7,14,5.8,20,10.3c2,1.5,4.1,3.1,5.3,4.9c-46.2,21.2-99.6,21.1-149.3,16.7c-12.7-1.1-25.5-2.6-38.2-4.3c-11.6-1.5-23.2-4-34.8-4.9C142.1,312.6,118.7,313.4,113,301.3z M403.9,215.3c-2.1,8.8-4.6,17.6-7.2,26.3c-1.1,3.9-2.4,9-4.6,13.2c0,0.3-0.1,0.6-0.3,1c-3.5,5.8-7.4,11-12.5,15.3c-0.7,0.6-1.4,1.1-2.1,1.7c0,0,0,0,0,0c0,0,0,0-0.1,0c0.4,4.6,0.8,9.2,1.1,13.8c0.2,2.5,0.4,5,0.6,7.5c-6.4-5.3-14.9-9.2-20.2-11.5c-23.2-10-50.4-9.7-75.3-8.6c-32.4,1.5-64.6,6.3-97,8.7c-15,1.1-29.8,2.8-44.8,3.5c-11.8,0.6-24,1.3-35,5.9c0.5-12.3,1.6-24.6,4-36.8c5.4-26.9,18.9-49.5,40.2-66.9c10.4-8.5,21.2-16.8,32.3-24.4c3.9-2.7,7.8-5.7,10.6-9.3c0.2,0,0.4,0.1,0.6,0.1c1.2-3.7,2.6-7.3,4-10.9c-0.2-0.7-0.5-1.4-0.6-2.1c-0.1-0.7-0.2-1.4-0.4-2.2c0-0.2-0.1-0.3-0.1-0.5c-0.8-5.6-0.3-11.8-0.4-16.9c-0.2-9.5-0.2-19.5-5.4-27.7c-5.5-8.7-12.7-15.8-19.9-23.2c-4.8-5-9.8-10.3-13.2-16.5c13.9,0.6,27.8,2.2,41.7,3.4c0,1,0,1.9,0,2.9c-0.2,5.1-0.5,10.3-0.2,15.4c0.3,5.3,1.5,10.1,5.9,13.6c3.7,3,7.8,2.9,12.2,2.3c9.3-1.2,18.6-2.5,27.9-3.6c5.1-0.6,10.3-1.3,15.5-1.3c2.5,0,7.1-0.1,8.6,0.7c6.2,3.3,12.4-5.8,6.2-9.1c-0.2-0.1-0.4-0.2-0.5-0.3c0.3-7.2,2.2-14.1,3.8-21c9.1-0.1,18.2-0.1,27.2-0.2c7.2-4.9,15.7-4.4,24-3.1c0.2,0,0.4,0.1,0.6,0.2c18.5,2.1,36.4,13.3,48.8,26.4c15.8,16.7,24.3,39.1,27.6,61.6C411,166.7,409.5,191.7,403.9,215.3z"/><path fill="#010101" d="M230.2,187.9c-0.2-1.8-1.3-3.5-3.4-4.4c-5.8-2.4-15.7-7.2-17.4-13.9c-1-3.7-4.4-5.2-7.8-3.9c-19.1,7-27.7,29.4-39.3,44.3c-5.7,7.4-13,16.2-11.7,26.2c1,7.9,12.7,11.4,17.8,16.1c0,0,0.1,0.1,0.1,0.1v1.8c0,5.2,6.9,8.5,10,3.5c13.4-21.7,23-51.9,50.5-59.2C234.6,197.1,234.2,189.6,230.2,187.9z M174.3,243.1c-2-1.5-4-2.8-6.1-4.2c-1.7-1.1-3.4-2.2-4.9-3.5c-0.6-0.5-2-2.1-2-1.8c0.7-7.5,7.8-14.4,12.1-20.1c8.6-11.3,15.2-27.8,28-35.5c3.7,5.7,9.8,10,16,13.2C196,201.2,185.9,222.9,174.3,243.1z"/></svg>