<svg xmlns="http://www.w3.org/2000/svg" viewBox="0 0 48 48"><path fill="#7986cb" d="M24,4c-3.866,0-7,3.134-7,7s3.134,7,7,7s7-3.134,7-7S27.866,4,24,4z M24,15c-2.209,0-4-1.791-4-4 s1.791-4,4-4s4,1.791,4,4S26.209,15,24,15z"/><path fill="#9fa8da" d="M40.765,15.515C40.536,14.625,39.712,14,38.768,14H24H9.232c-0.944,0-1.767,0.625-1.996,1.515 l-4.173,24C2.738,40.777,3.72,42,5.059,42H24h18.941c1.339,0,2.321-1.223,1.996-2.485L40.765,15.515z"/><path fill="#3949ab" d="M11 33H9v-7.533l-2 .762v-1.683L10.786 23H11V33zM16 25c.551 0 1 .449 1 1v4c0 .551-.449 1-1 1s-1-.449-1-1v-4C15 25.449 15.449 25 16 25M16 23c-1.657 0-3 1.343-3 3v4c0 1.657 1.343 3 3 3s3-1.343 3-3v-4C19 24.343 17.657 23 16 23L16 23zM24 25c.551 0 1 .449 1 1v4c0 .551-.449 1-1 1s-1-.449-1-1v-4C23 25.449 23.449 25 24 25M24 23c-1.657 0-3 1.343-3 3v4c0 1.657 1.343 3 3 3s3-1.343 3-3v-4C27 24.343 25.657 23 24 23L24 23zM32 25c.551 0 1 .449 1 1v4c0 .551-.449 1-1 1s-1-.449-1-1v-4C31 25.449 31.449 25 32 25M32 23c-1.657 0-3 1.343-3 3v4c0 1.657 1.343 3 3 3s3-1.343 3-3v-4C35 24.343 33.657 23 32 23L32 23zM37 27H41V29H37z"/><path fill="#3949ab" d="M38 28H40V33H38z"/></svg>