<svg xmlns="http://www.w3.org/2000/svg" viewBox="0 0 80 80"><path d="M 39.990234 4 A 1.0001 1.0001 0 0 0 39.035156 4.7265625 L 34.771484 19.722656 L 33.488281 10.857422 A 1.0001 1.0001 0 0 0 31.521484 10.783203 C 31.521484 10.783203 30.396976 15.861587 29.271484 21.027344 C 28.708739 23.610222 28.145426 26.215645 27.722656 28.220703 C 27.511271 29.223232 27.33548 30.07438 27.210938 30.703125 C 27.148667 31.017497 27.099559 31.275908 27.064453 31.474609 C 27.036657 31.631921 27.015238 31.705289 27.005859 31.871094 A 1.0001 1.0001 0 0 0 27.003906 31.886719 L 26.865234 33.136719 C 24.920997 34.797284 18.03252 41.211144 14.978516 50.976562 C 9.3980655 56.697245 6.8815226 65.978266 6.015625 70.818359 A 1.0001 1.0001 0 1 0 7.984375 71.169922 C 8.6560802 67.415303 10.507887 60.6819 13.896484 55.535156 C 13.825178 55.979775 13.761999 56.429435 13.708984 56.884766 A 1.0001 1.0001 0 1 0 15.695312 57.115234 C 16.883223 46.912604 23.189139 39.475115 26.527344 36.181641 L 25.503906 45.386719 A 1.0001 1.0001 0 0 0 26.740234 46.466797 L 31.496094 45.277344 L 31.496094 46.996094 A 1.0001 1.0001 0 0 0 33.050781 47.828125 L 36.224609 45.712891 L 36.759766 49.560547 C 32.01649 50.955154 28.498047 54.79566 28.498047 59.433594 C 28.498047 60.078442 28.538277 60.580408 28.769531 61.076172 C 29.000789 61.571936 29.674996 62.021487 30.230469 61.998047 C 30.785941 61.974607 31.158557 61.750178 31.542969 61.503906 C 31.927381 61.257635 32.313472 60.952426 32.730469 60.607422 C 34.129143 59.450222 35.903707 57.859893 37.783203 56.929688 L 39.755859 71.132812 A 1.0001 1.0001 0 0 0 41.738281 71.132812 L 43.710938 56.927734 C 45.590406 57.857831 47.365046 59.447878 48.763672 60.605469 C 49.180654 60.950589 49.566804 61.257521 49.951172 61.503906 C 50.33554 61.750291 50.708234 61.974374 51.263672 61.998047 C 51.81911 62.021717 52.493291 61.571957 52.724609 61.076172 C 52.955927 60.580387 52.996094 60.078442 52.996094 59.433594 C 52.996094 54.796067 49.476079 50.955569 44.734375 49.560547 L 45.210938 46.126953 L 46.789062 47.705078 A 1.0001 1.0001 0 0 0 48.496094 46.996094 L 48.496094 44.113281 L 53.048828 46.390625 A 1.0001 1.0001 0 0 0 54.490234 45.386719 L 53.535156 36.785156 C 56.580315 40.509384 61.778476 47.886489 62.8125 56.125 A 1.0001 1.0001 0 1 0 64.796875 55.875 C 64.680574 54.948383 64.430008 54.06668 64.226562 53.167969 C 65.479092 54.658459 66.775071 56.483848 67.957031 58.775391 C 69.898843 62.540108 71.483707 67.037655 72.001953 71.119141 A 1.000153 1.000153 0 0 0 73.986328 70.867188 C 73.427574 66.466673 71.769063 61.804158 69.734375 57.859375 C 67.705454 53.925773 65.367849 50.725532 63.068359 49.183594 C 59.961967 40.655798 54.269156 34.447251 53.144531 33.267578 L 52.990234 31.886719 A 1.0003546 1.0003546 0 0 0 52.986328 31.867188 C 52.976598 31.700258 52.956125 31.626538 52.927734 31.46875 C 52.891844 31.269284 52.842894 31.012058 52.779297 30.697266 C 52.652111 30.067681 52.471666 29.213742 52.255859 28.210938 C 51.824246 26.205329 51.250226 23.601875 50.675781 21.019531 C 50.101336 18.437187 49.526362 15.877498 49.095703 13.962891 C 48.880374 13.005587 48.701724 12.208945 48.576172 11.652344 C 48.513392 11.374043 48.463271 11.156636 48.429688 11.007812 C 48.412897 10.933402 48.401198 10.876119 48.392578 10.837891 C 48.383978 10.799661 48.378906 10.777344 48.378906 10.777344 L 48.376953 10.777344 A 1.0001 1.0001 0 0 0 47.402344 9.9980469 C 47.402344 9.9980469 47.050806 10.467242 46.765625 10.845703 L 46.412109 10.861328 L 45.199219 19.644531 L 40.958984 4.7265625 A 1.0001 1.0001 0 0 0 39.990234 4 z M 39.996094 8.65625 L 44.578125 24.771484 A 1.0001 1.0001 0 0 0 46.53125 24.634766 L 47.638672 16.611328 C 47.986351 18.160969 48.328531 19.681387 48.722656 21.453125 C 49.296586 24.033156 49.871051 26.635952 50.300781 28.632812 C 50.515647 29.631244 50.694315 30.47776 50.818359 31.091797 C 50.880379 31.398815 50.929538 31.649732 50.960938 31.824219 C 50.970205 31.875719 50.97345 31.917143 50.978516 31.964844 C 50.950642 31.992197 50.862351 32.117067 50.544922 32.304688 C 50.07505 32.582411 49.265979 32.891512 48.238281 33.148438 C 46.182887 33.662286 43.241532 33.996094 39.996094 33.996094 C 36.750606 33.996094 33.811271 33.662053 31.755859 33.148438 C 30.728153 32.891629 29.91907 32.582326 29.449219 32.304688 C 29.131803 32.117124 29.043504 31.99359 29.015625 31.966797 C 29.020707 31.918181 29.02392 31.87472 29.033203 31.822266 C 29.064013 31.647871 29.111103 31.39862 29.171875 31.091797 C 29.293426 30.478151 29.469197 29.631096 29.679688 28.632812 C 30.100666 26.636246 30.662355 24.033747 31.224609 21.453125 C 31.759963 18.995973 31.882805 18.460148 32.296875 16.580078 L 33.464844 24.642578 A 1.0001 1.0001 0 0 0 35.416016 24.771484 L 39.996094 8.65625 z M 40 20.765625 L 39.105469 22.552734 C 38.4382 23.886271 37.7722 25.220271 37.105469 26.552734 L 36.845703 27.072266 L 37.167969 27.554688 C 37.834713 28.554303 38.500713 29.554303 39.167969 30.554688 L 40 31.802734 L 40.832031 30.554688 C 41.499287 29.554303 42.165287 28.554304 42.832031 27.554688 L 43.154297 27.072266 L 42.894531 26.552734 C 42.2278 25.220271 41.5618 23.886271 40.894531 22.552734 L 40 20.765625 z M 40 25.236328 C 40.281821 25.800174 40.563673 26.36381 40.845703 26.927734 C 40.563552 27.350921 40.281969 27.774216 40 28.197266 C 39.718031 27.774216 39.436448 27.350921 39.154297 26.927734 C 39.436327 26.36381 39.718179 25.800174 40 25.236328 z M 51.234375 34.195312 L 52.298828 43.78125 L 47.943359 41.603516 A 1.0001 1.0001 0 0 0 46.496094 42.496094 L 46.496094 44.580078 L 45.205078 43.289062 A 1.0001 1.0001 0 0 0 43.505859 43.859375 L 42.779297 49.091797 L 42.773438 49.089844 L 42.632812 50.138672 L 42.628906 50.171875 L 40.746094 63.720703 L 38.845703 50.029297 L 38.720703 49.089844 L 38.714844 49.091797 L 37.988281 43.859375 A 1.0001 1.0001 0 0 0 36.441406 43.164062 L 33.496094 45.126953 L 33.496094 43.996094 A 1.0001 1.0001 0 0 0 32.253906 43.027344 L 27.650391 44.177734 L 28.759766 34.197266 C 29.450585 34.553322 30.282616 34.843228 31.269531 35.089844 C 32.319687 35.352261 33.54726 35.557861 34.878906 35.710938 A 1.0001 1.0001 0 0 0 34.791016 35.789062 C 34.158867 36.421211 33.55515 36.715992 33.119141 36.861328 C 32.683132 37.006664 32.498047 36.996094 32.498047 36.996094 A 1.0001 1.0001 0 1 0 32.498047 38.996094 C 32.498047 38.996094 33.062962 38.987494 33.751953 38.757812 C 33.946334 38.693019 34.160727 38.6049 34.382812 38.5 C 34.145209 38.765426 33.996094 39.112089 33.996094 39.496094 C 33.996094 40.324094 34.668094 40.996094 35.496094 40.996094 C 36.324094 40.996094 36.996094 40.324094 36.996094 39.496094 C 36.996094 38.668094 36.325094 37.996094 35.496094 37.996094 C 35.392594 37.996094 35.29293 38.007352 35.195312 38.027344 C 35.528157 37.803416 35.866922 37.543234 36.205078 37.205078 A 1.0001 1.0001 0 0 0 36.269531 35.837891 C 37.453824 35.932202 38.689708 35.996094 39.996094 35.996094 C 41.303893 35.996094 42.54081 35.932722 43.726562 35.837891 A 1.0001 1.0001 0 0 0 43.789062 37.205078 C 44.127219 37.543234 44.465984 37.803416 44.798828 38.027344 C 44.701236 38.007352 44.599594 37.996094 44.496094 37.996094 C 43.668094 37.996094 42.996094 38.668094 42.996094 39.496094 C 42.996094 40.324094 43.668094 40.996094 44.496094 40.996094 C 45.324094 40.996094 45.996094 40.324094 45.996094 39.496094 C 45.995629 39.110974 45.846159 38.763748 45.607422 38.498047 C 45.830886 38.603789 46.046712 38.692654 46.242188 38.757812 C 46.931179 38.987476 47.496094 38.996094 47.496094 38.996094 A 1.0001 1.0001 0 1 0 47.496094 36.996094 C 47.496094 36.996094 47.311009 37.006664 46.875 36.861328 C 46.438991 36.715992 45.835274 36.421211 45.203125 35.789062 A 1.0001 1.0001 0 0 0 45.115234 35.708984 C 46.446665 35.555502 47.674882 35.350322 48.724609 35.087891 C 49.711532 34.84116 50.543566 34.551388 51.234375 34.195312 z M 37.044922 51.671875 L 37.484375 54.982422 C 34.980662 56.052006 32.873044 57.893246 31.455078 59.066406 C 31.089163 59.369148 30.781026 59.602984 30.533203 59.767578 C 30.516423 59.637058 30.498047 59.644065 30.498047 59.433594 C 30.498047 55.917294 33.193251 52.926906 37.044922 51.671875 z M 44.449219 51.671875 C 48.300262 52.926915 50.996094 55.917433 50.996094 59.433594 C 50.996094 59.644575 50.977778 59.636965 50.960938 59.767578 C 50.71307 59.60287 50.405019 59.367341 50.039062 59.064453 C 48.621045 57.890811 46.513555 56.050172 44.009766 54.980469 L 44.449219 51.671875 z M 63.976562 58.992188 L 63.175781 59.394531 L 63.017578 60.275391 L 63.628906 60.929688 L 63.976562 60.992188 L 64.777344 60.591797 L 64.935547 59.708984 L 64.322266 59.054688 L 63.976562 58.992188 z M 14.507812 59.992188 L 13.707031 60.394531 L 13.548828 61.275391 L 14.162109 61.929688 L 14.507812 61.992188 L 15.310547 61.591797 L 15.466797 60.708984 L 14.855469 60.054688 L 14.507812 59.992188 z M 63.857422 62.990234 L 63.056641 63.390625 L 62.898438 64.273438 L 63.509766 64.927734 L 63.857422 64.990234 L 64.658203 64.587891 L 64.816406 63.707031 L 64.205078 63.052734 L 63.857422 62.990234 z M 14.75 63.984375 L 13.947266 64.384766 L 13.791016 65.267578 L 14.402344 65.921875 L 14.75 65.984375 L 15.550781 65.582031 L 15.708984 64.699219 L 15.095703 64.044922 L 14.75 63.984375 z M 63.548828 66.976562 L 62.748047 67.378906 L 62.589844 68.259766 L 63.201172 68.914062 L 63.548828 68.976562 L 64.349609 68.576172 L 64.507812 67.693359 L 63.896484 67.039062 L 63.548828 66.976562 z M 15.392578 67.929688 L 14.589844 68.332031 L 14.433594 69.212891 L 15.044922 69.869141 L 15.392578 69.929688 L 16.193359 69.529297 L 16.351562 68.646484 L 15.738281 67.992188 L 15.392578 67.929688 z"/></svg>