<svg xmlns="http://www.w3.org/2000/svg" viewBox="0 0 24 24"><path d="M 12 0 C 5.363281 0 0 5.363281 0 12 C 0 18.636719 5.363281 24 12 24 C 18.636719 24 24 18.636719 24 12 C 24 5.363281 18.636719 0 12 0 Z M 12 2 C 17.566406 2 22 6.433594 22 12 C 22 17.566406 17.566406 22 12 22 C 6.433594 22 2 17.566406 2 12 C 2 6.433594 6.433594 2 12 2 Z M 5.6875 9.25 L 4.3125 10.75 C 4.3125 10.75 5.75 12 8 12 C 10.25 12 11.6875 10.75 11.6875 10.75 L 10.3125 9.25 C 10.3125 9.25 9.550781 10 8 10 C 6.449219 10 5.6875 9.25 5.6875 9.25 Z M 13.6875 9.25 L 12.3125 10.75 C 12.3125 10.75 13.75 12 16 12 C 18.25 12 19.6875 10.75 19.6875 10.75 L 18.3125 9.25 C 18.3125 9.25 17.550781 10 16 10 C 14.449219 10 13.6875 9.25 13.6875 9.25 Z M 10.8125 14 C 9.3125 14 8 15.007813 7 15.40625 C 7.898438 16.007813 9.898438 18 12 18 C 14.101563 18 16 16.101563 17 15.5 C 16 15 14.8125 14 13.3125 14 C 12.8125 14 12 14.8125 12 14.8125 C 12 14.8125 11.3125 14 10.8125 14 Z"/></svg>