<svg xmlns="http://www.w3.org/2000/svg" viewBox="0 0 48 48"><path fill="#d7cdc9" d="M10.068,1.467c0,0,10.565,8.079,16.483,11.053c2.882,1.449,2.978,5.52,0.188,7.139 c-1.502,0.871-3.142,1.357-4.012,1.423c-0.779,0.06-1.435-0.519-1.561-1.29C19.75,11.145,4.467,5.201,4.467,5.201L10.068,1.467z"/><path fill="#d7cdc9" d="M22.616,21.553c-0.943,0-1.75-0.701-1.911-1.685C19.35,11.584,4.448,5.695,4.297,5.636 C4.135,5.573,4.022,5.425,4.003,5.252c-0.019-0.173,0.06-0.342,0.205-0.439l5.601-3.734c0.165-0.111,0.383-0.104,0.542,0.018 c0.106,0.08,10.598,8.086,16.409,11.007c1.501,0.754,2.427,2.208,2.477,3.89c0.051,1.696-0.796,3.217-2.265,4.07 c-1.585,0.92-3.294,1.414-4.211,1.485C22.713,21.551,22.664,21.553,22.616,21.553z M5.455,5.104 c3.253,1.39,14.906,6.878,16.171,14.614c0.09,0.553,0.552,0.934,1.065,0.899c0.841-0.064,2.42-0.552,3.813-1.362 c1.168-0.677,1.841-1.886,1.801-3.234c-0.04-1.333-0.774-2.486-1.964-3.084c-5.364-2.696-14.607-9.625-16.29-10.898L5.455,5.104z"/><path fill="#d7cdc9" d="M30.277,12.595c1.093,2.54,0.972,4.798,0.83,5.823c-0.044,0.32,0.241,0.582,0.56,0.531 c4.016-0.647,3.2-7.185-0.968-7.033C30.357,11.929,30.142,12.281,30.277,12.595z"/><path fill="#d7cdc9" d="M31.903,46.515l-0.514-16.497c2.349-2.99,0.488-5.612-0.555-7.183 c-0.51-0.769-1.599-0.942-2.267-0.311c-1.441,1.363-4.303,1.72-6.523,1.772c-0.798,0.019-1.073,1.084-0.388,1.501 c0.927,0.563,1.81,1.107,2.11,1.31c2.392,1.624,1.998,1.868,2.299,4.78l1.073,14.628H31.903z"/><path fill="#d7cdc9" d="M31.903,47h-4.764c-0.249,0-0.457-0.196-0.475-0.449L25.59,31.922 c-0.045-0.438-0.075-0.828-0.101-1.168c-0.138-1.773-0.155-2.001-1.987-3.244c-0.297-0.201-1.172-0.739-2.089-1.297 c-0.492-0.299-0.725-0.877-0.58-1.44c0.145-0.562,0.628-0.95,1.2-0.963c2.093-0.049,4.869-0.374,6.21-1.642 c0.407-0.384,0.971-0.569,1.529-0.501c0.594,0.069,1.125,0.396,1.456,0.896l0.084,0.126c1.017,1.53,2.898,4.356,0.558,7.489 L32.379,46.5c0.004,0.131-0.045,0.258-0.134,0.353C32.155,46.947,32.032,47,31.903,47z M27.581,46.03h3.831l-0.499-15.997 c-0.004-0.115,0.034-0.228,0.104-0.318c2.068-2.632,0.527-4.949-0.493-6.482l-0.084-0.127c-0.176-0.265-0.459-0.438-0.775-0.475 c-0.3-0.032-0.568,0.054-0.773,0.248c-1.56,1.476-4.578,1.849-6.836,1.902c-0.217,0.005-0.283,0.17-0.301,0.24 c-0.018,0.071-0.04,0.246,0.146,0.36c0.935,0.568,1.828,1.117,2.13,1.322c2.136,1.45,2.253,1.977,2.408,3.976 c0.025,0.333,0.055,0.714,0.1,1.158L27.581,46.03z"/><path fill="#d7cdc9" d="M23,47V33c0,0,2-2,1-3c0,0-1.226-0.817-2.633-1.668c-1.039-0.628-2.343,0.24-2.157,1.44 C19.354,30.697,19.595,31.595,20,32c1,1,1,15,1,15"/></svg>