<?xml version="1.0"?><svg xmlns="http://www.w3.org/2000/svg" viewBox="0 0 16 16">    <path d="M 13.324219 1 C 12.977219 1.318 12.663328 1.6360781 12.361328 1.9550781 C 12.498328 2.0590781 12.643578 2.1513906 12.767578 2.2753906 C 12.884578 2.3933906 12.978125 2.5233906 13.078125 2.6503906 C 13.367125 2.3453906 13.669 2.0403281 14 1.7363281 L 13.324219 1 z M 9.7519531 2 C 8.9099531 2 8.067125 2.307375 7.453125 2.921875 C 6.904125 3.470875 6.5305469 4.3784375 6.0605469 5.5234375 C 6.4205469 5.5714375 6.7437344 5.6521875 7.0527344 5.7421875 C 7.4487344 4.7801875 7.7741563 4.0149063 8.1601562 3.6289062 C 9.0101562 2.7789062 10.49375 2.7789062 11.34375 3.6289062 C 12.22075 4.5059062 12.22075 5.9335469 11.34375 6.8105469 C 11.29175 6.8625469 11.230828 6.9022187 11.173828 6.9492188 C 10.908828 7.4452187 10.67475 7.9257656 10.46875 8.3847656 C 11.06175 8.2517656 11.608828 7.9585781 12.048828 7.5175781 C 13.316828 6.2495781 13.317781 4.188875 12.050781 2.921875 C 11.436781 2.307375 10.593953 2 9.7519531 2 z M 10.464844 4.2558594 C 9.2698437 6.0178594 8.5833437 7.6831094 8.0273438 9.0371094 C 7.5943438 10.094109 7.2528438 10.929797 6.8398438 11.341797 C 6.3258437 11.855797 5.5827187 12.052312 4.8867188 11.945312 C 4.6727187 12.233313 4.4383125 12.5225 4.1953125 12.8125 C 4.5323125 12.9275 4.884 13 5.25 13 C 6.118 13 6.9348281 12.662828 7.5488281 12.048828 C 8.1028281 11.494828 8.477125 10.577969 8.953125 9.4179688 C 9.432125 8.2499688 10.024891 6.8367969 10.962891 5.3417969 C 10.996891 4.9927969 10.903766 4.6342344 10.634766 4.3652344 C 10.585766 4.3162344 10.521844 4.2928594 10.464844 4.2558594 z M 5.25 6.5 C 4.382 6.5 3.566125 6.8371719 2.953125 7.4511719 C 2.097125 8.3061719 1.8347656 9.5212812 2.1347656 10.613281 C 2.4657656 10.195281 2.7691094 9.7801406 3.0371094 9.3691406 C 3.1131094 8.9261406 3.3172031 8.4992031 3.6582031 8.1582031 C 4.0832031 7.7332031 4.649 7.5 5.25 7.5 C 6.037 7.5 6.664125 7.7297031 7.328125 7.9707031 C 7.347125 7.9777031 7.3657656 7.9832344 7.3847656 7.9902344 C 7.5087656 7.6962344 7.6440625 7.3942656 7.7890625 7.0722656 L 7.6699219 7.03125 C 6.9539219 6.77025 6.212 6.5 5.25 6.5 z M 5.2382812 8.4707031 C 4.9992813 8.4707031 4.7809844 8.5585938 4.5839844 8.6835938 C 3.7819844 10.143594 2.684 11.719672 1 13.263672 L 1.6757812 14 C 3.7147812 12.131 4.9437344 10.229344 5.8027344 8.5273438 C 5.6207344 8.4943437 5.4362812 8.4707031 5.2382812 8.4707031 z"/></svg>