<svg xmlns="http://www.w3.org/2000/svg" viewBox="0 0 64 64"><linearGradient id="z8hlwb2yLXQ5yqgWWghaaa" x1="11" x2="11" y1="28.75" y2="52.022" gradientUnits="userSpaceOnUse" spreadMethod="reflect"><stop offset="0" stop-color="#6dc7ff"/><stop offset="1" stop-color="#e6abff"/></linearGradient><path fill="url(#z8hlwb2yLXQ5yqgWWghaaa)" d="M8 31H14V50H8z"/><linearGradient id="z8hlwb2yLXQ5yqgWWghaab" x1="32" x2="32" y1="4.499" y2="59.76" gradientUnits="userSpaceOnUse" spreadMethod="reflect"><stop offset="0" stop-color="#1a6dff"/><stop offset="1" stop-color="#c822ff"/></linearGradient><path fill="url(#z8hlwb2yLXQ5yqgWWghaab)" d="M56.427,38.814c-0.936-0.691-2.187-0.893-3.434-0.549l-15.289,4.227 C37.891,42.027,38,41.522,38,40.991C38,38.79,36.206,37,34,37h-9.377c-0.667-1-2.363-4-4.623-4h-4v-1c0-1.654-1.346-3-3-3h-4 C7.345,29,6,30.346,6,32v17C6,50.655,7.345,52,8.999,52h4c1.654,0,3-1.345,3-2.999v-0.753l12.14,8.201 C29.663,57.481,31.437,58,33.214,58c1.642,0,3.286-0.442,4.742-1.331l18.173-11.101C57.284,44.864,58,43.587,58,42.234v-0.313 C58,40.69,57.427,39.558,56.427,38.814z M14,49.001C14,49.553,13.551,50,13,50h-1v-4h-2v4H8.999C8.448,50,8,49.553,8,49.001V32 c0-0.552,0.448-1,0.999-1h4c0.552,0,1,0.449,1,1V49.001z M56,42.234c0,0.66-0.349,1.283-0.913,1.627L36.913,54.962 c-2.365,1.444-5.368,1.378-7.653-0.17L16,45.833V35h4c1.06,0,2.469,2.034,3.088,3.409L23.353,39H34c1.103,0,2,0.893,2,1.989 C36,42.098,35.103,43,34,43h-5h-5v2h5h5h2l17.525-4.807c0.643-0.178,1.279-0.091,1.71,0.228C55.721,40.782,56,41.329,56,41.921 V42.234z"/><linearGradient id="z8hlwb2yLXQ5yqgWWghaac" x1="39" x2="39" y1="4.5" y2="59.759" gradientUnits="userSpaceOnUse" spreadMethod="reflect"><stop offset="0" stop-color="#1a6dff"/><stop offset="1" stop-color="#c822ff"/></linearGradient><path fill="url(#z8hlwb2yLXQ5yqgWWghaac)" d="M27,30H51c2.757,0,5-2.243,5-5.001v-13C56,10.346,54.655,9,53,9h-1V8.999 C52,7.345,50.655,6,49,6h-6c-1.617,0-3.043,0.784-3.957,1.979C38.134,6.739,36.666,6,35,6h-6c-1.654,0-3,1.345-3,2.999V9h-1 c-1.654,0-3,1.346-3,2.999v13C22,27.757,24.243,30,27,30z M53,11c0.552,0,1,0.448,1,0.999v13C54,26.654,52.655,28,51,28H40.146 c0.378-1,1.354-2.001,2.854-2.001V26h6c1.654,0,3-1.346,3-3.001V11H53z M43,8h6c0.552,0,1,0.448,1,0.999v14 C50,23.551,49.552,24,49,24h-6l0-0.001c-1,0-2,0.381-3,1.013V11C40,9.346,41.346,8,43,8z M28,8.999C28,8.448,28.448,8,29,8h6 c1.654,0,3,1,3,3v14.013C37,24.381,36.127,24,35,24h-6c-0.552,0-1-0.449-1-1.001V8.999z M24,11.999C24,11.448,24.448,11,25,11h1 v11.999C26,24.654,27.346,26,29,26h6c1.347,0,2.476,1,2.854,2H27c-1.654,0-3-1.346-3-3.001V11.999z"/><linearGradient id="z8hlwb2yLXQ5yqgWWghaad" x1="45" x2="45" y1="4.5" y2="59.759" gradientUnits="userSpaceOnUse" spreadMethod="reflect"><stop offset="0" stop-color="#1a6dff"/><stop offset="1" stop-color="#c822ff"/></linearGradient><path fill="url(#z8hlwb2yLXQ5yqgWWghaad)" d="M42 13H48V15H42z"/><linearGradient id="z8hlwb2yLXQ5yqgWWghaae" x1="45" x2="45" y1="4.5" y2="59.759" gradientUnits="userSpaceOnUse" spreadMethod="reflect"><stop offset="0" stop-color="#1a6dff"/><stop offset="1" stop-color="#c822ff"/></linearGradient><path fill="url(#z8hlwb2yLXQ5yqgWWghaae)" d="M42 17H48V19H42z"/><linearGradient id="z8hlwb2yLXQ5yqgWWghaaf" x1="33" x2="33" y1="4.5" y2="59.759" gradientUnits="userSpaceOnUse" spreadMethod="reflect"><stop offset="0" stop-color="#1a6dff"/><stop offset="1" stop-color="#c822ff"/></linearGradient><path fill="url(#z8hlwb2yLXQ5yqgWWghaaf)" d="M30 13H36V15H30z"/><linearGradient id="z8hlwb2yLXQ5yqgWWghaag" x1="33" x2="33" y1="4.5" y2="59.759" gradientUnits="userSpaceOnUse" spreadMethod="reflect"><stop offset="0" stop-color="#1a6dff"/><stop offset="1" stop-color="#c822ff"/></linearGradient><path fill="url(#z8hlwb2yLXQ5yqgWWghaag)" d="M30 17H36V19H30z"/></svg>