<svg xmlns="http://www.w3.org/2000/svg" viewBox="0 0 48 48"><path fill="#90caf9" d="M9,31h5l3.899,9.368C18.316,41.663,17.385,43,16.066,43H6.934c-1.319,0-2.251-1.337-1.833-2.632 L9,31z"/><path fill="#455a64" d="M33.5,20H28v-7h5.5c1.933,0,3.5,1.567,3.5,3.5v0C37,18.433,35.433,20,33.5,20z"/><path fill="#455a64" d="M27,7.001h-5v20h5V7.001z"/><path fill="#455a64" d="M20,34h14c2.761,0,5-2.239,5-5v-7c0-2.209-1.791-4-4-4h-8v-3h8c3.866,0,7,3.134,7,7v8 c0,3.866-3.134,7-7,7H20V34z"/><rect width="9" height="15" x="20" y="9.001" fill="#03a9f4"/><rect width="7.001" height="2" x="21" y="5" fill="#03a9f4"/><circle cx="32.5" cy="16.5" r="1.5" fill="#03a9f4"/><path fill="#03a9f4" d="M40,40H25l4.412-7.06c0.365-0.585,1.006-0.94,1.696-0.94h2.783c0.69,0,1.331,0.355,1.696,0.94L40,40 z"/><circle cx="32.5" cy="35.5" r="1.5" fill="#455a64"/><path fill="#455a64" d="M42,43l-22,0v-1c0-1.105,0.895-2,2-2l18,0c1.105,0,2,0.895,2,2V43z"/><rect width="5" height="7" x="9" y="24" fill="#90caf9"/><path fill="#90caf9" d="M14,24H9c-0.552,0-1-0.448-1-1v0c0-0.552,0.448-1,1-1h5c0.552,0,1,0.448,1,1v0 C15,23.552,14.552,24,14,24z"/><path fill="#f50057" d="M13.499,35H9.501L7.58,39.616C7.306,40.274,7.79,41,8.503,41h5.993c0.713,0,1.197-0.726,0.923-1.384 L13.499,35z"/></svg>