<svg xmlns="http://www.w3.org/2000/svg" viewBox="0 0 16 16"><path d="M 3.492188 1.992188 C 3.214844 1.996094 2.996094 2.222656 3 2.5 L 3 5.484375 C 3 5.488281 3 5.496094 3 5.5 L 3 9.5 C 3 9.65625 3.074219 9.800781 3.195313 9.898438 C 3.320313 9.992188 3.480469 10.023438 3.632813 9.984375 C 3.632813 9.984375 4.21875 9.824219 4.90625 9.535156 C 5.3125 9.363281 5.757813 9.144531 6.160156 8.867188 C 6.253906 8.953125 6.375 9 6.5 9 L 8.5 9 C 8.625 9 8.742188 8.953125 8.835938 8.871094 C 9.238281 9.148438 9.679688 9.367188 10.089844 9.539063 C 10.777344 9.828125 11.371094 9.984375 11.371094 9.984375 C 11.519531 10.023438 11.679688 9.992188 11.804688 9.894531 C 11.925781 9.800781 12 9.65625 12 9.5 L 12 7.160156 C 12 7.148438 12 7.136719 12 7.125 L 12 2.5 C 12.003906 2.363281 11.949219 2.234375 11.855469 2.136719 C 11.757813 2.042969 11.628906 1.988281 11.492188 1.992188 C 11.214844 1.996094 10.996094 2.222656 11 2.5 L 11 5.128906 C 10.765625 5.203125 10.449219 5.316406 10.09375 5.46875 C 9.683594 5.640625 9.242188 5.855469 8.839844 6.132813 C 8.746094 6.046875 8.625 6 8.5 6 L 6.5 6 C 6.375 6 6.257813 6.046875 6.164063 6.132813 C 5.761719 5.855469 5.316406 5.636719 4.90625 5.464844 C 4.554688 5.316406 4.234375 5.203125 4 5.128906 L 4 2.5 C 4.003906 2.363281 3.949219 2.234375 3.855469 2.136719 C 3.757813 2.042969 3.628906 1.988281 3.492188 1.992188 Z M 4 6.203125 C 4.203125 6.269531 4.238281 6.269531 4.523438 6.386719 C 5.085938 6.621094 5.691406 6.976563 6 7.300781 L 6 7.695313 C 5.683594 8.023438 5.078125 8.375 4.515625 8.613281 C 4.238281 8.730469 4.203125 8.726563 4 8.796875 L 4 7.035156 C 4 7.023438 4 7.011719 4 7 Z M 11 6.203125 L 11 8.796875 C 10.796875 8.730469 10.757813 8.730469 10.472656 8.613281 C 9.910156 8.375 9.304688 8.023438 9 7.699219 L 9 7.304688 C 9.316406 6.976563 9.921875 6.625 10.484375 6.390625 C 10.761719 6.269531 10.796875 6.273438 11 6.203125 Z M 7 7 L 8 7 L 8 7.042969 C 7.996094 7.085938 7.996094 7.125 8 7.167969 L 8 7.828125 C 7.996094 7.871094 7.996094 7.914063 8 7.957031 L 8 8 L 7 8 L 7 7.953125 C 7.003906 7.914063 7.003906 7.871094 7 7.828125 L 7 7.171875 C 7.003906 7.128906 7.003906 7.085938 7 7.046875 Z M 5.488281 10.367188 C 5.140625 10.523438 4.816406 10.648438 4.542969 10.746094 C 4.605469 10.839844 4.664063 10.933594 4.726563 11.03125 C 5.851563 12.671875 7.109375 13.820313 7.164063 13.871094 C 7.261719 13.957031 7.378906 14 7.5 14 C 7.621094 14 7.738281 13.957031 7.835938 13.871094 C 7.890625 13.820313 9.148438 12.675781 10.269531 11.03125 C 10.335938 10.9375 10.394531 10.839844 10.453125 10.746094 C 10.175781 10.652344 9.851563 10.527344 9.507813 10.375 C 9.488281 10.40625 9.46875 10.4375 9.445313 10.46875 C 8.726563 11.515625 7.9375 12.363281 7.5 12.804688 C 7.0625 12.367188 6.269531 11.515625 5.554688 10.46875 C 5.53125 10.433594 5.511719 10.398438 5.488281 10.367188 Z"/></svg>