<svg xmlns="http://www.w3.org/2000/svg" viewBox="0 0 40 40"><path fill="#dff0fe" d="M20.668,21c-0.538,0-1.038-0.29-1.304-0.756c-0.152-0.267-0.211-0.99,0.021-1.951 c0.231-0.956,0.609-1.547,0.862-1.691l8.399-3.347l0.85-7.529c0.117-0.699,0.74-1.226,1.477-1.226c0.082,0,0.164,0.007,0.247,0.02 c0.814,0.136,1.368,0.911,1.231,1.728l-0.976,8.189c-0.071,0.424-0.339,0.809-0.732,1.032l-9.333,5.334 C21.184,20.932,20.927,21,20.668,21z"/><path fill="#4788c7" d="M30.974,5L30.974,5c0.055,0,0.11,0.004,0.164,0.013c0.263,0.044,0.494,0.187,0.649,0.405 c0.155,0.218,0.217,0.483,0.166,0.793l-0.966,8.121c-0.05,0.298-0.229,0.554-0.49,0.704l-9.332,5.333 c-0.154,0.088-0.32,0.132-0.495,0.132c-0.359,0-0.692-0.193-0.87-0.503c-0.271-0.518,0.203-2.55,0.669-2.94l8.086-3.227 l0.556-0.222l0.067-0.595l0.813-7.201C30.079,5.341,30.489,5,30.974,5 M30.973,4C30.011,4,29.163,4.691,29,5.67l-0.817,7.231 L20,16.167c-0.959,0.548-1.618,3.367-1.07,4.326c0.369,0.646,1.044,1.008,1.738,1.008c0.337,0,0.677-0.085,0.99-0.263l9.333-5.333 c0.521-0.298,0.882-0.815,0.98-1.408l0.973-8.167c0.182-1.09-0.554-2.121-1.644-2.302C31.191,4.009,31.082,4,30.973,4L30.973,4z"/><path fill="#dff0fe" d="M4.002,34.5c-0.533,0-1.014-0.272-1.288-0.729c-0.206-0.344-0.266-0.747-0.169-1.136 s0.34-0.716,0.683-0.922L8.5,28.48V20c0-0.698,0.536-1.258,1.433-1.497l9.555-2.812c0.422-0.125,0.879-0.191,1.324-0.191 c0.522,0,2.259,0.112,2.69,1.562l0.085,0.287l0.293,0.061l7,1.113l6.348-3.809c0.234-0.141,0.5-0.215,0.77-0.215 c0.532,0,1.014,0.272,1.288,0.729c0.206,0.344,0.266,0.747,0.169,1.136s-0.34,0.716-0.683,0.922l-6.667,4 c-0.233,0.14-0.5,0.214-0.772,0.214h-8.736l-0.067,0.019c-2.86,0.809-10.346,2.923-10.639,2.993l-0.383,0.093L11.5,25v4.333 c0,0.524-0.279,1.018-0.728,1.286l-6.004,3.669C4.54,34.426,4.274,34.5,4.002,34.5z"/><path fill="#4788c7" d="M37.998,14.999c0.355,0,0.677,0.182,0.86,0.487c0.137,0.229,0.177,0.497,0.113,0.757 c-0.065,0.259-0.226,0.477-0.455,0.615l-6.666,3.999C31.692,20.95,31.514,21,31.333,21h-8.667h-0.139l-0.133,0.038 c-4.016,1.135-10.066,2.842-10.598,2.982L11,24.154L11,25l0,4.333c0,0.35-0.186,0.678-0.492,0.862l-5.994,3.663 C4.357,33.952,4.185,34,4.002,34c-0.356,0-0.677-0.182-0.859-0.486c-0.137-0.229-0.177-0.497-0.113-0.757 c0.065-0.259,0.226-0.477,0.464-0.62l5.029-3.085L9,28.76v-0.56V20c0-0.464,0.387-0.834,1.086-1.021l9.546-2.809 c0.375-0.111,0.782-0.17,1.179-0.17c0.435,0,1.879,0.087,2.211,1.204l0.199,0.607l0.622,0.099l6.779,1.077l0.359,0.057l0.312-0.187 l6.192-3.715C37.641,15.049,37.818,14.999,37.998,14.999 M37.998,13.999c-0.35,0-0.705,0.092-1.027,0.286L30.779,18L24,16.923 l-0.019-0.003C23.585,15.589,22.222,15,20.811,15c-0.496,0-0.997,0.073-1.465,0.212L9.804,18.02C8.531,18.359,8,19.197,8,20v8.201 l-5.029,3.085c-0.947,0.568-1.254,1.797-0.686,2.743C2.66,34.654,3.322,35,4.002,35c0.35,0,0.705-0.091,1.027-0.285l6-3.667 C11.632,30.688,12,30.036,12,29.333L12,25c0.136-0.023,10.667-3,10.667-3h8.667c0.363,0,0.718-0.099,1.029-0.285l6.667-4 c0.947-0.568,1.254-1.797,0.686-2.743C39.34,14.347,38.677,13.999,37.998,13.999L37.998,13.999z"/><path fill="none" stroke="#4788c7" stroke-linecap="round" stroke-miterlimit="10" d="M3.915 19.758L9.5 9.5"/><path fill="#dff0fe" d="M3.5 15.5A3 3 0 1 0 3.5 21.5A3 3 0 1 0 3.5 15.5Z"/><path fill="#4788c7" d="M3.5,16C4.878,16,6,17.121,6,18.5S4.878,21,3.5,21S1,19.879,1,18.5S2.122,16,3.5,16 M3.5,15 C1.567,15,0,16.567,0,18.5S1.567,22,3.5,22S7,20.433,7,18.5S5.433,15,3.5,15L3.5,15z"/><g><path fill="#4788c7" d="M7,18.5c0-0.171-0.027-0.335-0.05-0.5H3H0.05C0.027,18.165,0,18.329,0,18.5l0,0v0l0,0v0 c0,1.464,0.9,2.714,2.176,3.237C2.512,21.199,3,20.781,3,20.1V19h3.95C6.973,18.835,7,18.671,7,18.5z"/></g><g><path fill="#98ccfd" d="M18.656,15.937l0.832-0.245c0.408-0.12,0.856-0.184,1.297-0.184c0.527,0,2.264,0.114,2.715,1.564 v4.507l-2.619,0.453L18.656,15.937z"/><path fill="#4788c7" d="M20.785,16.008c0.431,0,1.827,0.085,2.215,1.146v4.004l-1.793,0.31l-1.899-5.203l0.32-0.094 C19.992,16.065,20.391,16.008,20.785,16.008 M20.785,15.008c-0.495,0-0.989,0.071-1.438,0.204l-1.343,0.395l2.551,6.99L24,22v-5 C23.607,15.589,22.194,15.008,20.785,15.008L20.785,15.008z"/></g></svg>