<?xml version="1.0"?><svg xmlns="http://www.w3.org/2000/svg" viewBox="0 0 128 128">    <path d="M90.1,42H94c1.7,0,3-1.3,3-3V9c0-1.7-1.3-3-3-3H34c-1.7,0-3,1.3-3,3v30c0,1.7,1.3,3,3,3h16l0,0.1 c6.6,19.7-17.2,33.7-26.8,42.4c-2.6,2.3-4.5,5.2-5.6,8.5l0,0.1c-4.3,12.8,5.3,26,18.8,26H46c0-1.7,1.3-3,3-3h12V51c0-1.7,1.3-3,3-3 s3,1.3,3,3v65h12c1.7,0,3,1.3,3,3h23.1c6.8,0,11.6-6.7,9.5-13.2L90.1,42z M86.1,53.1C85.6,53.7,84.8,54,84,54s-1.6-0.3-2.1-0.9 C81.3,52.6,81,51.8,81,51s0.3-1.6,0.9-2.1c1.1-1.1,3.1-1.1,4.2,0c0.6,0.6,0.9,1.3,0.9,2.1S86.7,52.6,86.1,53.1z M87,36H37V12h50V36 z"/></svg>