<svg xmlns="http://www.w3.org/2000/svg" viewBox="0 0 24 24"><path d="M 20.0625 0.03125 C 20.796875 0.789063 21.25 1.828125 21.25 2.96875 C 21.25 5.300781 19.363281 7.1875 17.03125 7.1875 C 16.554688 7.1875 16.113281 7.113281 15.6875 6.96875 C 16.492188 8.199219 17.859375 9 19.4375 9 C 21.929688 9 23.96875 6.992188 23.96875 4.5 C 23.96875 2.21875 22.261719 0.332031 20.0625 0.03125 Z M 8 8 C 6.890625 8 0 19.945313 0 21.59375 L 0 24 L 24 24 L 24 22.3125 C 24 20.03125 17.894531 12 17.09375 12 C 16.664063 12 15.207031 13.445313 13.75 15.125 C 11.59375 11.914063 8.578125 8 8 8 Z"/></svg>