<svg xmlns="http://www.w3.org/2000/svg" viewBox="0 0 26 26"><path d="M 6.875 3.03125 C 6.613281 3.070313 6.335938 3.207031 6.1875 3.40625 L 4.6875 5.40625 C 4.585938 5.507813 4.601563 5.585938 4.5 5.6875 L 4 7.90625 L 4 5 C 4 4.398438 3.601563 4 3 4 C 2.398438 4 2 4.398438 2 5 L 2 9.3125 C 2 10.511719 1.699219 11.101563 1 11.5 L 0 12 L 0 18.3125 L 3 17.40625 C 3.300781 17.304688 3.699219 17.304688 4 17.40625 L 6.6875 18 C 7.1875 18.101563 7.6875 18.105469 8.1875 17.90625 L 9.8125 17.40625 C 10.113281 17.304688 10.394531 16.988281 10.59375 16.6875 L 12 13.59375 C 12 13.59375 11.5 13.09375 11 13.09375 C 10 13.09375 9.59375 13.699219 8.59375 15 L 7.5 15 C 7.101563 15 6.792969 14.804688 6.59375 14.40625 L 6.09375 13.40625 C 5.992188 13.105469 5.992188 12.800781 6.09375 12.5 L 6.59375 11.5 C 6.695313 11.199219 7.101563 11 7.5 11 L 9 11 L 10.1875 12.5 C 10.488281 12.898438 11.195313 12.988281 11.59375 12.6875 C 11.992188 12.386719 12.113281 11.710938 11.8125 11.3125 L 10.3125 9.40625 C 10.113281 9.105469 9.800781 9 9.5 9 L 8 9 L 8.59375 8 L 10.5 6.8125 C 11 6.511719 11.113281 5.90625 10.8125 5.40625 C 10.613281 5.007813 9.898438 4.894531 9.5 5.09375 L 7.40625 6.40625 C 7.207031 6.507813 7.09375 6.613281 7.09375 6.8125 L 5.90625 8.8125 L 6.5 6.5 L 7.90625 4.6875 C 8.105469 4.1875 7.992188 3.488281 7.59375 3.1875 C 7.394531 3.039063 7.136719 2.992188 6.875 3.03125 Z M 26 7.6875 L 23 8.59375 C 22.699219 8.695313 22.300781 8.695313 22 8.59375 L 19.3125 8 C 18.8125 7.898438 18.3125 7.894531 17.8125 8.09375 L 16.1875 8.59375 C 15.886719 8.695313 15.605469 9.011719 15.40625 9.3125 L 14 12.40625 C 14 12.40625 14.5 12.90625 15 12.90625 C 16 12.90625 16.40625 12.300781 17.40625 11 L 18.5 11 C 18.898438 11 19.207031 11.195313 19.40625 11.59375 L 19.90625 12.59375 C 20.007813 12.894531 20.007813 13.199219 19.90625 13.5 L 19.40625 14.5 C 19.207031 14.800781 18.898438 15.09375 18.5 15.09375 L 17 15.09375 L 15.8125 13.59375 C 15.511719 13.195313 14.804688 13.105469 14.40625 13.40625 C 14.007813 13.707031 13.886719 14.414063 14.1875 14.8125 L 15.6875 16.6875 C 15.886719 16.886719 16.199219 17.09375 16.5 17.09375 L 18 17.09375 L 17.40625 18.09375 L 15.5 19.3125 C 15 19.613281 14.886719 20.1875 15.1875 20.6875 C 15.488281 21.1875 16.09375 21.300781 16.59375 21 L 18.6875 19.6875 L 19 19.40625 L 20.1875 17.40625 L 19.59375 19.6875 L 18.1875 21.5 C 17.886719 21.898438 18.007813 22.605469 18.40625 22.90625 C 18.804688 23.207031 19.511719 23.085938 19.8125 22.6875 L 21.3125 20.6875 C 21.414063 20.585938 21.398438 20.511719 21.5 20.3125 L 22 18.1875 L 22 21 C 22 21.601563 22.398438 22 23 22 C 23.601563 22 24 21.601563 24 21 L 24 16.6875 C 24 15.488281 24.300781 14.898438 25 14.5 L 26 14 Z"/></svg>