<svg xmlns="http://www.w3.org/2000/svg" viewBox="0 0 64 64"><path d="M 31.984375 2.9863281 A 1.0001 1.0001 0 0 0 31 4 L 31 14 A 1.0001 1.0001 0 1 0 33 14 L 33 4 A 1.0001 1.0001 0 0 0 31.984375 2.9863281 z M 21.271484 5.1171875 A 1.0001 1.0001 0 0 0 20.361328 6.5136719 L 21.892578 10.208984 A 1.0001 1.0001 0 1 0 23.740234 9.4433594 L 22.208984 5.7480469 A 1.0001 1.0001 0 0 0 21.271484 5.1171875 z M 42.697266 5.1171875 A 1.0001 1.0001 0 0 0 41.791016 5.7480469 L 40.259766 9.4433594 A 1.0001 1.0001 0 1 0 42.107422 10.208984 L 43.638672 6.5136719 A 1.0001 1.0001 0 0 0 42.697266 5.1171875 z M 12.191406 11.191406 A 1.0001 1.0001 0 0 0 11.494141 12.908203 L 18.564453 19.978516 A 1.0001 1.0001 0 1 0 19.978516 18.564453 L 12.908203 11.494141 A 1.0001 1.0001 0 0 0 12.191406 11.191406 z M 51.779297 11.191406 A 1.0001 1.0001 0 0 0 51.091797 11.494141 L 44.021484 18.564453 A 1.0001 1.0001 0 1 0 45.435547 19.978516 L 52.505859 12.908203 A 1.0001 1.0001 0 0 0 51.779297 11.191406 z M 6.125 20.279297 A 1.0001 1.0001 0 0 0 5.7480469 22.208984 L 9.4433594 23.740234 A 1.0001 1.0001 0 1 0 10.208984 21.892578 L 6.5136719 20.361328 A 1.0001 1.0001 0 0 0 6.125 20.279297 z M 57.845703 20.279297 A 1.0001 1.0001 0 0 0 57.486328 20.361328 L 53.791016 21.892578 A 1.0001 1.0001 0 1 0 54.556641 23.740234 L 58.251953 22.208984 A 1.0001 1.0001 0 0 0 57.845703 20.279297 z M 4 31 A 1.0001 1.0001 0 1 0 4 33 L 14 33 A 1.0001 1.0001 0 1 0 14 31 L 4 31 z M 50 31 A 1.0001 1.0001 0 1 0 50 33 L 60 33 A 1.0001 1.0001 0 1 0 60 31 L 50 31 z M 54.166016 40.177734 A 1.0001 1.0001 0 0 0 53.791016 42.107422 L 57.486328 43.638672 A 1.0001 1.0001 0 1 0 58.251953 41.791016 L 54.556641 40.259766 A 1.0001 1.0001 0 0 0 54.166016 40.177734 z M 9.8027344 40.179688 A 1.0001 1.0001 0 0 0 9.4433594 40.259766 L 5.7480469 41.791016 A 1.0001 1.0001 0 1 0 6.5136719 43.638672 L 10.208984 42.107422 A 1.0001 1.0001 0 0 0 9.8027344 40.179688 z M 19.251953 43.71875 A 1.0001 1.0001 0 0 0 18.564453 44.021484 L 11.494141 51.091797 A 1.0001 1.0001 0 1 0 12.908203 52.505859 L 19.978516 45.435547 A 1.0001 1.0001 0 0 0 19.251953 43.71875 z M 44.716797 43.71875 A 1.0001 1.0001 0 0 0 44.021484 45.435547 L 51.091797 52.505859 A 1.0001 1.0001 0 1 0 52.505859 51.091797 L 45.435547 44.021484 A 1.0001 1.0001 0 0 0 44.716797 43.71875 z M 31.984375 48.986328 A 1.0001 1.0001 0 0 0 31 50 L 31 60 A 1.0001 1.0001 0 1 0 33 60 L 33 50 A 1.0001 1.0001 0 0 0 31.984375 48.986328 z M 22.798828 53.160156 A 1.0001 1.0001 0 0 0 21.892578 53.791016 L 20.361328 57.486328 A 1.0001 1.0001 0 1 0 22.208984 58.251953 L 23.740234 54.556641 A 1.0001 1.0001 0 0 0 22.798828 53.160156 z M 41.169922 53.160156 A 1.0001 1.0001 0 0 0 40.259766 54.556641 L 41.791016 58.251953 A 1.0001 1.0001 0 1 0 43.638672 57.486328 L 42.107422 53.791016 A 1.0001 1.0001 0 0 0 41.169922 53.160156 z"/></svg>