<svg xmlns="http://www.w3.org/2000/svg" viewBox="0 0 64 64"><path d="M 32 4 C 29.39854 4 26.591518 4.7811341 24.732422 6.0527344 C 22.955641 6.1214164 21.355152 6.7436277 20.191406 7.9042969 C 18.961443 9.1310086 18.210669 10.866637 18.007812 12.902344 C 17.752025 15.457082 17.991622 17.336924 18.140625 18.503906 C 18.218695 19.117441 18.227292 19.570178 18.232422 19.541016 L 18.234375 19.537109 C 18.201245 19.721885 18.195412 19.915719 18.169922 20.103516 L 18.072266 20.103516 A 1.0001 1.0001 0 0 0 17.789062 20.144531 L 17.654297 20.185547 C 16.991734 20.379204 16.570358 20.86989 16.330078 21.298828 C 16.089798 21.727767 15.984674 22.135068 15.923828 22.433594 C 15.713236 23.464126 15.793907 24.618847 16.103516 25.775391 C 16.39242 26.855544 16.854669 27.808721 17.445312 28.544922 C 17.865558 29.068732 18.406088 29.435219 19.013672 29.654297 C 19.616303 31.523223 20.462933 33.378822 21.535156 35.066406 L 8.2714844 41.382812 C 4.4424827 43.206618 2 47.074081 2 51.314453 L 2 59 C 2 60.64497 3.3550302 62 5 62 L 32.1875 62 C 32.604868 63.157321 33.706873 64 35 64 L 61 64 C 62.64497 64 64 62.64497 64 61 L 64 40 C 64 38.35503 62.64497 37 61 37 L 57.5 37 L 54.800781 33.400391 A 1.0001 1.0001 0 0 0 54 33 L 43.609375 33 C 44.149803 31.912557 44.612762 30.789315 44.978516 29.658203 C 45.590797 29.440625 46.134104 29.069798 46.556641 28.542969 C 47.146996 27.8069 47.61003 26.855228 47.898438 25.775391 C 48.208045 24.618847 48.288584 23.464719 48.078125 22.433594 A 1.0001 1.0001 0 0 0 48.078125 22.431641 C 48.020395 22.151242 47.920696 21.765223 47.701172 21.355469 C 47.482018 20.946405 47.112084 20.477954 46.505859 20.242188 L 46.503906 20.240234 L 46.306641 20.164062 A 1.0001 1.0001 0 0 0 45.890625 20.095703 L 45.697266 20.105469 C 45.552832 19.015883 45.435435 18.00219 44.943359 16.666016 C 44.921289 16.606056 44.930739 16.609646 44.917969 16.5625 C 44.951649 16.5647 44.980229 16.566012 45.019531 16.570312 L 46.572266 16.75 A 1.0001 1.0001 0 0 0 47.638672 15.445312 L 47.150391 13.958984 C 45.09946 7.7075177 39.804926 4 33 4 L 32 4 z M 32 6 L 33 6 C 39.107074 6 43.434931 9.0494985 45.25 14.582031 A 1.0001 1.0001 0 0 0 45.246094 14.582031 C 45.113853 14.567341 44.96793 14.556641 44.810547 14.556641 C 44.314607 14.556641 43.782645 14.648601 43.353516 15.058594 C 43.023573 15.373601 42.86651 15.836815 42.853516 16.232422 C 42.840526 16.628029 42.930176 16.987396 43.066406 17.357422 C 43.697762 19.071796 43.902703 20.010682 43.96875 21.431641 A 1.0001 1.0001 0 0 0 45.513672 22.224609 C 45.67469 22.119676 45.764148 22.106226 45.779297 22.105469 A 1.0001 1.0001 0 0 0 45.78125 22.105469 C 45.79319 22.110069 45.85727 22.149079 45.9375 22.298828 C 46.01773 22.448574 46.08587 22.672383 46.119141 22.833984 C 46.246315 23.458791 46.208991 24.353083 45.966797 25.257812 A 1.0001 1.0001 0 0 0 45.966797 25.259766 C 45.743204 26.096928 45.369988 26.824835 44.996094 27.291016 C 44.622199 27.757197 44.276631 27.880859 44.234375 27.880859 A 1.0001 1.0001 0 0 0 43.277344 28.595703 C 42.745452 30.382773 41.920705 32.180201 40.896484 33.804688 L 38.980469 36.359375 C 38.77662 36.58394 38.563934 36.792193 38.351562 37 L 35 37 C 33.35503 37 32 38.35503 32 40 C 29.524563 40 27.159355 38.656818 25.160156 36.515625 C 23.160957 34.374432 21.577624 31.462082 20.726562 28.595703 A 1.0001 1.0001 0 0 0 19.767578 27.880859 C 19.724368 27.880859 19.379965 27.759268 19.005859 27.292969 C 18.631754 26.82667 18.259252 26.095659 18.035156 25.257812 C 17.792764 24.352356 17.755405 23.457452 17.882812 22.833984 C 17.917963 22.66151 17.990999 22.423952 18.074219 22.275391 C 18.157439 22.126829 18.203406 22.108812 18.214844 22.105469 A 1.0001 1.0001 0 0 0 18.216797 22.103516 C 18.216797 22.103516 18.21875 22.103516 18.21875 22.103516 C 18.22315 22.103604 18.31397 22.112716 18.486328 22.224609 A 1.0001 1.0001 0 0 0 20.029297 21.433594 C 20.055317 20.906656 20.114327 20.385859 20.203125 19.890625 A 1.0001 1.0001 0 0 0 20.203125 19.886719 C 20.306247 19.299557 20.201027 18.864418 20.123047 18.251953 C 19.974045 17.084935 19.763834 15.440824 19.998047 13.101562 C 20.164191 11.434269 20.752729 10.168851 21.603516 9.3203125 C 22.454211 8.4718153 23.577835 8 25.019531 8 A 1.0001 1.0001 0 0 0 25.619141 7.8007812 C 26.862484 6.8682735 29.724533 6 32 6 z M 26.171875 12.125 C 25.582197 12.178984 25.024687 12.493281 24.679688 13.019531 L 23.080078 15.449219 C 22.769078 15.905219 22.885797 16.527844 23.341797 16.839844 C 23.797797 17.150844 24.420422 17.034125 24.732422 16.578125 C 24.738422 16.569125 24.744 16.560781 24.75 16.550781 L 26.349609 14.119141 L 27.919922 14.880859 C 30.783922 16.271859 33.925375 16.996 37.109375 17 L 39.660156 17 C 40.212156 17 40.660156 16.552 40.660156 16 C 40.660156 15.448 40.212156 15 39.660156 15 L 37.109375 15 C 34.226375 14.996 31.382062 14.340078 28.789062 13.080078 L 27.230469 12.320312 C 26.891094 12.154563 26.525682 12.092609 26.171875 12.125 z M 42.5 35 L 53.5 35 L 55 37 L 41.052734 37 C 41.534842 36.409748 41.981628 35.785118 42.398438 35.134766 L 42.5 35 z M 22.712891 36.720703 C 23.028202 37.121339 23.35315 37.512303 23.697266 37.880859 C 24.726465 38.983175 25.886674 39.926612 27.142578 40.638672 L 28.947266 46.953125 L 27.003906 52.001953 L 21.943359 37.087891 L 22.712891 36.720703 z M 20.123047 37.953125 L 27.603516 60 L 26.46875 60 L 17.275391 48.966797 L 19.800781 45.599609 A 1.0001 1.0001 0 0 0 19.990234 44.859375 L 19.082031 38.449219 L 20.123047 37.953125 z M 35 39 L 61 39 C 61.56503 39 62 39.43497 62 40 L 62 47.253906 C 62 48.523811 61.266714 49.629849 60.216797 50.060547 L 52 53.431641 L 52 53 C 52 51.906937 51.093063 51 50 51 L 46 51 C 44.906937 51 44 51.906937 44 53 L 44 53.431641 L 35.783203 50.060547 C 34.734343 49.629938 34 48.523811 34 47.253906 L 34 47 L 34 40 C 34 39.43497 34.43497 39 35 39 z M 17.189453 39.349609 L 17.951172 44.730469 L 15.199219 48.400391 A 1.0001 1.0001 0 0 0 15.232422 49.640625 L 23.865234 60 L 5 60 C 4.4349698 60 4 59.56503 4 59 L 4 51.314453 C 4 47.840825 5.9938611 44.681695 9.1308594 43.1875 L 17.189453 39.349609 z M 37.984375 40.986328 A 1.0001 1.0001 0 0 0 37 42 L 37 44 A 1.0001 1.0001 0 1 0 39 44 L 39 42 A 1.0001 1.0001 0 0 0 37.984375 40.986328 z M 42.984375 40.986328 A 1.0001 1.0001 0 0 0 42 42 L 42 44 A 1.0001 1.0001 0 1 0 44 44 L 44 42 A 1.0001 1.0001 0 0 0 42.984375 40.986328 z M 47.984375 40.986328 A 1.0001 1.0001 0 0 0 47 42 L 47 44 A 1.0001 1.0001 0 1 0 49 44 L 49 42 A 1.0001 1.0001 0 0 0 47.984375 40.986328 z M 52.984375 40.986328 A 1.0001 1.0001 0 0 0 52 42 L 52 44 A 1.0001 1.0001 0 1 0 54 44 L 54 42 A 1.0001 1.0001 0 0 0 52.984375 40.986328 z M 57.984375 40.986328 A 1.0001 1.0001 0 0 0 57 42 L 57 44 A 1.0001 1.0001 0 1 0 59 44 L 59 42 A 1.0001 1.0001 0 0 0 57.984375 40.986328 z M 29.507812 41.642578 C 30.311422 41.869222 31.142854 42 32 42 L 32 46 L 30.753906 46 L 29.507812 41.642578 z M 30.6875 48 L 32 48 L 32 60 L 29.716797 60 L 28.005859 54.957031 L 30.6875 48 z M 34 51.314453 C 34.314002 51.549646 34.650839 51.757203 35.023438 51.910156 A 1.0001 1.0001 0 0 0 35.023438 51.912109 L 44.0625 55.621094 C 44.36553 57.525105 46.015148 59 48 59 C 49.985513 59 51.635276 57.524075 51.9375 55.619141 L 60.974609 51.912109 C 61.347952 51.758956 61.685438 51.550226 62 51.314453 L 62 61 C 62 61.56503 61.56503 62 61 62 L 35 62 C 34.43497 62 34 61.56503 34 61 L 34 51.314453 z M 46 53 L 50 53 L 50 55 C 50 56.116666 49.116666 57 48 57 C 46.883334 57 46 56.116666 46 55 L 46 53 z M 6.984375 53.986328 A 1.0001 1.0001 0 0 0 6 55 L 6 57 A 1.0001 1.0001 0 1 0 8 57 L 8 55 A 1.0001 1.0001 0 0 0 6.984375 53.986328 z M 11.984375 53.986328 A 1.0001 1.0001 0 0 0 11 55 L 11 57 A 1.0001 1.0001 0 1 0 13 57 L 13 55 A 1.0001 1.0001 0 0 0 11.984375 53.986328 z M 16.984375 53.986328 A 1.0001 1.0001 0 0 0 16 55 L 16 57 A 1.0001 1.0001 0 1 0 18 57 L 18 55 A 1.0001 1.0001 0 0 0 16.984375 53.986328 z"/></svg>