<svg xmlns="http://www.w3.org/2000/svg" viewBox="0 0 30 30"><path d="M 14 2 A 3 3 0 0 0 11 5 A 3 3 0 0 0 14 8 A 3 3 0 0 0 17 5 A 3 3 0 0 0 14 2 z M 21 4 C 20.448 4 20 4.448 20 5 L 20 6 L 20 7 C 20 7.552 20.448 8 21 8 L 25.5 8 A 0.5 0.5 0 0 0 26 7.5 A 0.5 0.5 0 0 0 25.730469 7.0566406 L 25.724609 7.0527344 L 24 6 L 25.726562 4.9453125 A 0.5 0.5 0 0 0 26 4.5 A 0.5 0.5 0 0 0 25.5 4 L 21 4 z M 10.763672 6.0019531 C 10.325531 6.0187812 9.3722031 6.1317031 8.7519531 6.7519531 C 7.9249531 7.5789531 8.0019531 8.9980469 8.0019531 8.9980469 C 8.0019531 8.9980469 9.4210469 9.0750469 10.248047 8.2480469 C 11.075047 7.4210469 10.998047 6.0019531 10.998047 6.0019531 C 10.998047 6.0019531 10.909719 5.9963438 10.763672 6.0019531 z M 13.992188 10 A 1.0001 1.0001 0 0 0 13.800781 10.017578 C 12.25494 10.105658 10.92885 11.206221 10.589844 12.732422 L 9.0234375 19.783203 A 1.0003373 1.0003373 0 0 0 10.011719 21 L 11 21 L 11 25.966797 C 11 26.536797 11.463203 27 12.033203 27 C 12.577203 27 13.028453 26.578156 13.064453 26.035156 L 13.400391 21 L 14.599609 21 L 14.935547 26.035156 C 14.971547 26.577156 15.422797 27 15.966797 27 C 16.536797 27 17 26.536797 17 25.966797 L 17 21 L 18 21 A 1.0003371 1.0003371 0 0 0 18.976562 19.783203 L 17.246094 12 L 22 12 A 1.0001 1.0001 0 1 0 22 10 L 16 10 L 13.996094 10 C 13.994777 10 13.993504 9.9999985 13.992188 10 z"/></svg>