<svg xmlns="http://www.w3.org/2000/svg" viewBox="0 0 24 24"><path d="M 10 0 C 8.898438 1 7.199219 3.800781 6.800781 5.800781 C 5.800781 6.800781 5.800781 7.898438 6.601563 9.199219 C 7.199219 10.101563 7 11.300781 7.300781 12.398438 C 7.5 13.398438 8.101563 14.398438 8.398438 15.300781 C 9.199219 17.398438 9.898438 19.800781 9.398438 20.800781 C 8.800781 21.800781 8 21.699219 7 22.101563 C 6 22.5 5.300781 22.699219 4.898438 22.800781 C 3.898438 22.898438 4 23 4 23.199219 C 4 23.699219 4.398438 24 4.898438 24 C 5.199219 24 5.398438 23.898438 5.699219 23.800781 C 5.898438 24 6.199219 24 6.601563 24 C 9.398438 24 9.300781 23.699219 10.300781 23.699219 C 10.699219 23.699219 11.601563 24 12.601563 24 C 13.601563 24 14 23.300781 14 22.699219 C 14 21.601563 13 21.101563 12.5 17.898438 C 12 14.601563 13.101563 12.5 12.898438 11.199219 C 12.601563 9 11 8.199219 11.101563 7.898438 C 11.199219 7.5 11.800781 6.800781 12.601563 6.398438 C 13.601563 5.898438 18.101563 3.199219 19.199219 0.101563 L 10 0.101563 Z"/></svg>