<svg xmlns="http://www.w3.org/2000/svg" viewBox="0 0 64 64"><linearGradient id="u7NnB74v38Cx0TJLyJVOSa" x1="32" x2="32" y1="9" y2="55" gradientUnits="userSpaceOnUse" spreadMethod="reflect"><stop offset="0" stop-color="#1a6dff"/><stop offset="1" stop-color="#c822ff"/></linearGradient><path fill="url(#u7NnB74v38Cx0TJLyJVOSa)" d="M50,9H14c-2.76,0-5,2.24-5,5v36c0,2.76,2.24,5,5,5h36c2.76,0,5-2.24,5-5V14 C55,11.24,52.76,9,50,9z M28.53,11c-1.2,1.39-2.53,3.5-2.53,6v23c0,0.11,0.02,0.23,0.06,0.33C26.21,40.78,27.29,43,33,43 c4.27,0,8.56-2.85,11.18-4.99L41.82,47H17.98c0.23-0.31,0.44-0.6,0.58-0.79C19.86,44.41,20,43.77,20,42V17c0-2.5-1.33-4.61-2.53-6 H28.53z M53,50c0,1.65-1.35,3-3,3H14c-1.65,0-3-1.35-3-3V14c0-1.65,1.35-3,3-3h0.64c0.81,0.68,3.36,3.08,3.36,6v25 c0,1.36,0,1.57-1.06,3.04c-0.46,0.63-1.74,2.36-1.74,2.36c-0.23,0.31-0.26,0.71-0.09,1.05C15.28,48.79,15.62,49,16,49h26.59 c0.45,0,0.85-0.31,0.96-0.75l3.42-13c0.11-0.44-0.08-0.9-0.48-1.12c-0.4-0.23-0.9-0.15-1.21,0.18C45.21,34.38,38.84,41,33,41 c-3.65,0-4.76-0.99-5-1.26V17c0-2.92,2.55-5.32,3.36-6H50c1.65,0,3,1.35,3,3V50z"/><linearGradient id="u7NnB74v38Cx0TJLyJVOSb" x1="32" x2="32" y1="11" y2="53" gradientUnits="userSpaceOnUse" spreadMethod="reflect"><stop offset="0" stop-color="#6dc7ff"/><stop offset="1" stop-color="#e6abff"/></linearGradient><path fill="url(#u7NnB74v38Cx0TJLyJVOSb)" d="M53,14v36c0,1.65-1.35,3-3,3H14c-1.65,0-3-1.35-3-3V14c0-1.65,1.35-3,3-3h0.64 c0.81,0.68,3.36,3.08,3.36,6v25c0,1.36,0,1.57-1.06,3.04c-0.46,0.63-1.74,2.36-1.74,2.36c-0.23,0.31-0.26,0.71-0.09,1.05 C15.28,48.79,15.62,49,16,49h26.59c0.45,0,0.85-0.31,0.96-0.75l3.42-13c0.11-0.44-0.08-0.9-0.48-1.12c-0.4-0.23-0.9-0.15-1.21,0.18 C45.21,34.38,38.84,41,33,41c-3.65,0-4.76-0.99-5-1.26V17c0-2.92,2.55-5.32,3.36-6H50C51.65,11,53,12.35,53,14z"/></svg>