<?xml version="1.0"?><svg xmlns="http://www.w3.org/2000/svg" viewBox="0 0 64 64">    <path d="M 32 1.5449219 C 30.664 1.5449219 29.408844 2.0638125 28.464844 3.0078125 L 3.0097656 28.464844 C 1.0607656 30.414844 1.0607656 33.586156 3.0097656 35.535156 L 28.464844 60.990234 C 29.408844 61.934234 30.664 62.455078 32 62.455078 C 33.336 62.455078 34.591156 61.934234 35.535156 60.990234 L 60.990234 35.535156 C 62.938234 33.586156 62.938234 30.414844 60.990234 28.464844 L 35.535156 3.0097656 C 34.591156 2.0647656 33.336 1.5449219 32 1.5449219 z M 32 3.5449219 C 32.802 3.5449219 33.555094 3.8578281 34.121094 4.4238281 L 46 16.302734 L 46 17 C 46 17.552 46.447 18 47 18 C 47.198 18 47.372344 17.927125 47.527344 17.828125 L 59.576172 29.878906 C 60.745172 31.047906 60.745172 32.951094 59.576172 34.121094 L 47.527344 46.171875 C 47.372344 46.071875 47.198 46 47 46 C 46.447 46 46 46.448 46 47 L 46 47.697266 L 34.121094 59.576172 C 32.988094 60.709172 31.011906 60.709172 29.878906 59.576172 L 18 47.699219 L 18 47 C 18 46.448 17.553 46 17 46 C 16.802 46 16.627656 46.071875 16.472656 46.171875 L 4.4238281 34.121094 C 3.2538281 32.951094 3.2538281 31.048906 4.4238281 29.878906 L 16.472656 17.828125 C 16.627656 17.927125 16.802 18 17 18 C 17.553 18 18 17.552 18 17 L 18 16.300781 L 29.878906 4.4238281 C 30.444906 3.8578281 31.198 3.5449219 32 3.5449219 z M 22 14 C 21.447 14 21 14.448 21 15 L 21 17 C 21 17.552 21.447 18 22 18 C 22.553 18 23 17.552 23 17 L 23 15 C 23 14.448 22.553 14 22 14 z M 27 14 C 26.447 14 26 14.448 26 15 L 26 17 C 26 17.552 26.447 18 27 18 C 27.553 18 28 17.552 28 17 L 28 15 C 28 14.448 27.553 14 27 14 z M 32 14 C 31.447 14 31 14.448 31 15 L 31 17 C 31 17.552 31.447 18 32 18 C 32.553 18 33 17.552 33 17 L 33 15 C 33 14.448 32.553 14 32 14 z M 37 14 C 36.447 14 36 14.448 36 15 L 36 17 C 36 17.552 36.447 18 37 18 C 37.553 18 38 17.552 38 17 L 38 15 C 38 14.448 37.553 14 37 14 z M 42 14 C 41.447 14 41 14.448 41 15 L 41 17 C 41 17.552 41.447 18 42 18 C 42.553 18 43 17.552 43 17 L 43 15 C 43 14.448 42.553 14 42 14 z M 20 24 C 19.577 24 19.199594 24.266062 19.058594 24.664062 L 14.058594 38.664062 C 13.871594 39.184063 14.144063 39.755406 14.664062 39.941406 C 15.182063 40.127406 15.756406 39.856891 15.941406 39.337891 L 17.132812 36 L 22.867188 36 L 24.058594 39.335938 C 24.203594 39.744937 24.589 40 25 40 C 25.111 40 25.225937 39.981406 25.335938 39.941406 C 25.856938 39.755406 26.128406 39.182109 25.941406 38.662109 L 20.941406 24.664062 C 20.800406 24.266062 20.423 24 20 24 z M 29 24 C 28.447 24 28 24.448 28 25 L 28 39 C 28 39.552 28.447 40 29 40 L 33 40 C 35.757 40 38 37.757 38 35 L 38 29 C 38 26.243 35.757 24 33 24 L 29 24 z M 41 24 C 40.447 24 40 24.448 40 25 L 40 39 C 40 39.552 40.447 40 41 40 C 41.553 40 42 39.552 42 39 L 42 34 L 44.464844 34 L 48.167969 39.554688 C 48.359969 39.843688 48.678953 40 49.001953 40 C 49.191953 40 49.383688 39.946031 49.554688 39.832031 C 50.014688 39.526031 50.139031 38.905313 49.832031 38.445312 L 46.8125 33.916016 C 48.6295 33.540016 50 31.927 50 30 L 50 28 C 50 25.794 48.206 24 46 24 L 41 24 z M 30 26 L 33 26 C 34.654 26 36 27.346 36 29 L 36 35 C 36 36.654 34.654 38 33 38 L 30 38 L 30 26 z M 42 26 L 46 26 C 47.103 26 48 26.897 48 28 L 48 30 C 48 31.103 47.103 32 46 32 L 42 32 L 42 26 z M 20 27.972656 L 22.152344 34 L 17.847656 34 L 20 27.972656 z M 22 46 C 21.447 46 21 46.448 21 47 L 21 49 C 21 49.552 21.447 50 22 50 C 22.553 50 23 49.552 23 49 L 23 47 C 23 46.448 22.553 46 22 46 z M 27 46 C 26.447 46 26 46.448 26 47 L 26 49 C 26 49.552 26.447 50 27 50 C 27.553 50 28 49.552 28 49 L 28 47 C 28 46.448 27.553 46 27 46 z M 32 46 C 31.447 46 31 46.448 31 47 L 31 49 C 31 49.552 31.447 50 32 50 C 32.553 50 33 49.552 33 49 L 33 47 C 33 46.448 32.553 46 32 46 z M 37 46 C 36.447 46 36 46.448 36 47 L 36 49 C 36 49.552 36.447 50 37 50 C 37.553 50 38 49.552 38 49 L 38 47 C 38 46.448 37.553 46 37 46 z M 42 46 C 41.447 46 41 46.448 41 47 L 41 49 C 41 49.552 41.447 50 42 50 C 42.553 50 43 49.552 43 49 L 43 47 C 43 46.448 42.553 46 42 46 z"/></svg>