<svg xmlns="http://www.w3.org/2000/svg" viewBox="0 0 26 26"><path d="M 13 0 C 10.953125 0 9.09375 0.351563 7.65625 0.96875 C 6.9375 1.277344 6.324219 1.636719 5.84375 2.125 C 5.363281 2.613281 5 3.269531 5 4 L 5 19 C 5 19.730469 5.363281 20.382813 5.84375 20.875 C 6.167969 21.207031 6.566406 21.476563 7 21.71875 L 7 23.40625 C 7 24.804688 9.699219 26 13 26 C 16.300781 26 19 24.804688 19 23.40625 L 19 21.71875 C 19.433594 21.476563 19.832031 21.207031 20.15625 20.875 C 20.636719 20.382813 21 19.730469 21 19 L 21 4 C 21 3.269531 20.636719 2.613281 20.15625 2.125 C 19.675781 1.636719 19.0625 1.277344 18.34375 0.96875 C 16.90625 0.351563 15.046875 0 13 0 Z M 13 2 C 14.816406 2 16.464844 2.34375 17.5625 2.8125 C 18.109375 3.046875 18.523438 3.300781 18.75 3.53125 C 18.976563 3.761719 19 3.902344 19 4 C 19 4.097656 18.976563 4.238281 18.75 4.46875 C 18.523438 4.699219 18.109375 4.953125 17.5625 5.1875 C 16.464844 5.65625 14.816406 6 13 6 C 11.183594 6 9.535156 5.65625 8.4375 5.1875 C 7.890625 4.953125 7.476563 4.699219 7.25 4.46875 C 7.023438 4.238281 7 4.097656 7 4 C 7 3.902344 7.023438 3.761719 7.25 3.53125 C 7.476563 3.300781 7.890625 3.046875 8.4375 2.8125 C 9.535156 2.34375 11.183594 2 13 2 Z M 7 6.6875 C 7.214844 6.804688 7.417969 6.929688 7.65625 7.03125 C 9.09375 7.648438 10.953125 8 13 8 C 15.046875 8 16.90625 7.648438 18.34375 7.03125 C 18.582031 6.929688 18.785156 6.804688 19 6.6875 L 19 8.53125 C 17.785156 9.410156 15.582031 10 13 10 C 10.417969 10 8.214844 9.410156 7 8.53125 Z M 7 12.53125 C 8.214844 13.410156 10.417969 14 13 14 C 15.582031 14 17.785156 13.410156 19 12.53125 L 19 19 C 19 19.121094 18.972656 19.273438 18.75 19.5 C 18.527344 19.726563 18.105469 19.988281 17.5625 20.21875 C 16.472656 20.683594 14.839844 21 13 21 C 11.160156 21 9.527344 20.683594 8.4375 20.21875 C 7.894531 19.988281 7.472656 19.726563 7.25 19.5 C 7.027344 19.273438 7 19.121094 7 19 Z M 13 16 C 12.398438 16 12 16.398438 12 17 L 12 18 C 12 18.601563 12.398438 19 13 19 C 13.601563 19 14 18.601563 14 18 L 14 17 C 14 16.398438 13.601563 16 13 16 Z"/></svg>