<svg xmlns="http://www.w3.org/2000/svg" viewBox="0 0 64 64"><linearGradient id="aFNuXgLJEZq0C4Qv2RB1Za" x1="32" x2="32" y1="9.5" y2="57.575" gradientUnits="userSpaceOnUse" spreadMethod="reflect"><stop offset="0" stop-color="#1a6dff"/><stop offset="1" stop-color="#c822ff"/></linearGradient><path fill="url(#aFNuXgLJEZq0C4Qv2RB1Za)" d="M54,31h-2V14c0-1.654-1.346-3-3-3H15c-1.654,0-3,1.346-3,3v16h-2V14c0-2.757,2.243-5,5-5h34 c2.757,0,5,2.243,5,5V31z"/><linearGradient id="aFNuXgLJEZq0C4Qv2RB1Zb" x1="46.5" x2="46.5" y1="26" y2="58" gradientUnits="userSpaceOnUse" spreadMethod="reflect"><stop offset="0" stop-color="#6dc7ff"/><stop offset="1" stop-color="#e6abff"/></linearGradient><path fill="url(#aFNuXgLJEZq0C4Qv2RB1Zb)" d="M49.49,40.25c1.53,3.32,1.44,7.21,1.44,7.39c0,5.7-4.64,10.36-10.34,10.36h-1.68 c-3.2,0-5.91-2.63-5.91-5.75v-8.2c1.2,0.06,2.47-0.12,3.67-0.66c1.97-0.9,3.41-2.68,4.16-5.14l0.05-0.08v-0.15 C40.93,37.85,41,37.6,41,37.3c0-1.33-0.97-2.3-2.3-2.3c-0.87,0-1.76,0.59-2.07,1.36c-0.5,0.9-1.32,1.96-2.41,2.06 c-0.38,0.04-0.78-0.04-1.22-0.23V38c0-2.21,1.79-4,4-4h5.12c6.51,0,13.22-6.56,13.97-7.31c0.18-0.16,0.83-0.69,1.66-0.69 c1.3,0,2.25,1,2.25,2.38C60,31.56,53.81,38.02,49.49,40.25z"/><linearGradient id="aFNuXgLJEZq0C4Qv2RB1Zc" x1="39" x2="39" y1="20" y2="32" gradientUnits="userSpaceOnUse" spreadMethod="reflect"><stop offset="0" stop-color="#6dc7ff"/><stop offset="1" stop-color="#e6abff"/></linearGradient><path fill="url(#aFNuXgLJEZq0C4Qv2RB1Zc)" d="M39 20A6 6 0 1 0 39 32A6 6 0 1 0 39 20Z"/><linearGradient id="aFNuXgLJEZq0C4Qv2RB1Zd" x1="22.5" x2="22.5" y1="9.5" y2="57.575" gradientUnits="userSpaceOnUse" spreadMethod="reflect"><stop offset="0" stop-color="#1a6dff"/><stop offset="1" stop-color="#c822ff"/></linearGradient><path fill="url(#aFNuXgLJEZq0C4Qv2RB1Zd)" d="M25.093,58h-1.686c-5.697,0-10.333-4.662-10.333-10.392c-0.005-0.154-0.095-4.04,1.438-7.354 C10.194,38.019,4,31.562,4,28.375C4,26.999,4.946,26,6.25,26c0.83,0,1.484,0.528,1.607,0.635C8.657,27.436,15.366,34,21.875,34 h4.796c1.95,0,2.859,1.141,2.956,1.271c1.749,2.161,3.352,3.265,4.596,3.145c1.091-0.099,1.905-1.157,2.404-2.054 C36.941,35.59,37.83,35,38.704,35C40.034,35,41,35.97,41,37.305c0,0.296-0.073,0.547-0.122,0.713v0.147l-0.051,0.08 c-0.746,2.468-2.184,4.245-4.156,5.141c-1.909,0.867-3.996,0.8-5.671,0.359v8.505C31,55.367,28.295,58,25.093,58z M6.249,28 C6.169,28,6,28,6,28.375c0,2.16,6.326,8.995,10.241,10.472l1.118,0.422l-0.611,1.025c-1.775,2.978-1.676,7.243-1.674,7.286 c0,4.655,3.738,8.42,8.333,8.42h1.686C27.174,56,29,54.248,29,52.25V40.786l1.412,0.64c1.326,0.6,3.543,0.995,5.432,0.139 c1.433-0.649,2.456-1.933,3.043-3.814c0.019-0.11,0.047-0.208,0.072-0.293c0.014-0.048,0.034-0.103,0.041-0.16 C38.998,37.072,38.926,37,38.704,37c-0.069,0-0.199,0.081-0.234,0.136l-0.055,0.126c-1.047,1.915-2.435,3.003-4.013,3.146 c-1.956,0.184-4.112-1.137-6.354-3.909C28.025,36.47,27.617,36,26.671,36h-4.796c-7.166,0-14.069-6.584-15.38-7.903 C6.469,28.082,6.312,28.003,6.249,28z"/><linearGradient id="aFNuXgLJEZq0C4Qv2RB1Ze" x1="25" x2="25" y1="9.5" y2="57.575" gradientUnits="userSpaceOnUse" spreadMethod="reflect"><stop offset="0" stop-color="#1a6dff"/><stop offset="1" stop-color="#c822ff"/></linearGradient><path fill="url(#aFNuXgLJEZq0C4Qv2RB1Ze)" d="M25,22c2.243,0,4,1.757,4,4s-1.757,4-4,4s-4-1.757-4-4S22.757,22,25,22L25,22z M25,20 c-3.36,0-6,2.64-6,6s2.64,6,6,6s6-2.64,6-6S28.36,20,25,20L25,20z"/></svg>