<svg xmlns="http://www.w3.org/2000/svg" viewBox="0 0 64 64"><radialGradient id="7xRgWkevSZGQw4v5XzQH9a" cx="31.5" cy="30.5" r="31.004" gradientUnits="userSpaceOnUse" spreadMethod="reflect"><stop offset="0" stop-color="#f4e9c3"/><stop offset=".219" stop-color="#f8eecd"/><stop offset=".644" stop-color="#fdf4dc"/><stop offset="1" stop-color="#fff6e1"/></radialGradient><path fill="url(#7xRgWkevSZGQw4v5XzQH9a)" d="M19,6.5C19,7.329,18.328,8,17.5,8l-10,0c-1.466,0-2.637,1.261-2.487,2.758 C5.143,12.059,6.335,13,7.643,13L12,13c1.215,0,2.176,1.083,1.973,2.336C13.813,16.319,12.889,17,11.893,17H4.189 c-2.086,0-3.958,1.514-4.168,3.59C-0.22,22.972,1.665,25,4,25l5,0c1.624,0,3.081,1.216,3.165,2.839C12.256,29.569,10.88,31,9.17,31 L3,31c-1.848,0-3.319,1.693-2.94,3.605C0.343,36.028,1.68,37,3.131,37L7.5,37c1.466,0,2.637,1.261,2.487,2.758 C9.857,41.059,8.665,42,7.357,42L6.5,42c-2.168,0-3.892,1.998-3.422,4.243C3.42,47.878,4.944,49,6.615,49h0.278 c0.996,0,1.92,0.681,2.08,1.664C9.176,51.917,8.215,53,7.001,53l-2.812,0c-2.086,0-3.958,1.514-4.168,3.59 C-0.22,58.972,1.665,61,4,61h3.188c0,0,0,0,0.001,0L32,61l23.811,0c2.086,0,3.958-1.514,4.168-3.59C60.22,55.028,58.335,53,56,53 c0,0,0,0-0.001,0l-2.878,0c-0.997,0-1.927-0.675-2.093-1.658C50.819,50.093,51.788,49,53,49h5c0,0,0,0,0.001,0h1.385 c1.67,0,3.195-1.122,3.537-2.757C63.392,43.998,61.668,42,59.5,42L55,42c-1.308,0-2.499-0.941-2.63-2.242 C52.221,38.261,53.392,37,54.857,37h3.011c1.451,0,2.789-0.972,3.071-2.395C61.319,32.693,59.848,31,58,31l-4.83,0 c-1.624,0-3.081-1.216-3.165-2.839C49.914,26.431,51.29,25,53,25h6c2.335,0,4.22-2.028,3.979-4.41 c-0.21-2.075-2.082-3.59-4.168-3.59h-0.704c-0.996,0-1.92-0.681-2.08-1.664C55.824,14.083,56.785,13,58,13l1.357,0 c1.308,0,2.5-0.941,2.63-2.242C62.137,9.261,60.966,8,59.5,8h-17C41.672,8,41,7.329,41,6.5S41.672,5,42.5,5l3.857,0 c1.308,0,2.5-0.941,2.63-2.242C49.137,1.261,47.966,0,46.5,0L13.643,0c-1.308,0-2.5,0.941-2.63,2.242C10.863,3.739,12.034,5,13.5,5 l4,0C18.328,5,19,5.672,19,6.5L19,6.5z"/><linearGradient id="7xRgWkevSZGQw4v5XzQH9b" x1="32" x2="32" y1="43" y2="-10.018" gradientUnits="userSpaceOnUse" spreadMethod="reflect"><stop offset="0" stop-color="#155cde"/><stop offset=".158" stop-color="#196ce1"/><stop offset=".724" stop-color="#28a1ec"/><stop offset="1" stop-color="#2eb5f0"/></linearGradient><path fill="url(#7xRgWkevSZGQw4v5XzQH9b)" d="M22.109,23H29v17c0,1.657,1.343,3,3,3c1.657,0,3-1.343,3-3V23h6.891 c1.841,0,2.795-2.076,1.539-3.348l-9.891-10.02c-0.832-0.843-2.246-0.843-3.078,0l-9.891,10.02C19.314,20.924,20.269,23,22.109,23z"/><linearGradient id="7xRgWkevSZGQw4v5XzQH9c" x1="29.86" x2="35.364" y1="25.557" y2="57.889" gradientUnits="userSpaceOnUse" spreadMethod="reflect"><stop offset="0" stop-color="#40daf2"/><stop offset=".259" stop-color="#3bd3ef"/><stop offset=".624" stop-color="#2ec1e8"/><stop offset="1" stop-color="#1ba7dd"/></linearGradient><path fill="url(#7xRgWkevSZGQw4v5XzQH9c)" d="M50,55H14c-3.309,0-6-2.691-6-6V27c0-1.657,1.343-3,3-3s3,1.343,3,3v22h36V27 c0-1.657,1.343-3,3-3s3,1.343,3,3v22C56,52.309,53.309,55,50,55z"/></svg>