<svg xmlns="http://www.w3.org/2000/svg" viewBox="0 0 48 48"><path fill="#4e342e" d="M40,21.5c0-1.506-0.607-2.87-1.587-3.863C39.385,16.725,40,15.438,40,14c0-2.167-1.386-3.994-3.314-4.688C36.881,8.914,37,8.473,37,8c0-1.657-1.343-3-3-3c-0.473,0-0.914,0.119-1.312,0.314C31.994,3.386,30.167,2,28,2c-1.643,0-3.089,0.804-4,2.027C23.089,2.804,21.643,2,20,2c-2.167,0-3.994,1.386-4.688,3.314C14.914,5.119,14.473,5,14,5c-1.657,0-3,1.343-3,3c0,0.473,0.119,0.914,0.314,1.312C9.386,10.006,8,11.833,8,14c0,1.438,0.615,2.725,1.587,3.637C8.607,18.63,8,19.994,8,21.5c0,2.524,1.703,4.646,4.021,5.293C12.017,26.863,12,26.929,12,27c0,2.209,1.791,4,4,4c1.477,0,2.752-0.809,3.445-2h9.11c0.693,1.191,1.968,2,3.445,2c2.209,0,4-1.791,4-4c0-0.071-0.017-0.137-0.021-0.207C38.297,26.146,40,24.024,40,21.5z"/><path fill="#e5852e" d="M40,44H8c0-11.014,12-13,12-13h4h4C28,31,40,33.025,40,44"/><path fill="#c16e14" d="M24,36c-3.438,0-4-5-4-5v-7h8v7C28,31,27.437,36,24,36z"/><path fill="#0277bd" d="M31,31.889l-0.014,4.775c0.008,1.444-0.762,2.78-2.015,3.496L24,43l-4.99-2.851c-1.243-0.711-2.012-2.031-2.015-3.464l-0.011-4.799C13.428,33.268,8,36.592,8,44h32C40,36.606,34.554,33.276,31,31.889z"/><path fill="#e5852e" d="M31,15c-2.938,0-4.938-6-7-6c-2.063,0-2,2-2,2s-0.75-1-3-1s-3,3.625-3,8.5V24c0,3.499,2.669,4.459,5,6c1.042,0.689,2.099,1,3,1c0.886,0,1.991-0.308,3-1c2.433-1.669,5-2.476,5-6v-9.09C31.695,14.964,31.368,15,31,15z"/><path fill="#b71c1c" d="M25,25c-0.75,0-1,1-1,1s-0.042-1-1-1c-0.958,0-3,1-3,1s2.2,2,4,2c1.8,0,4-2,4-2S25.75,25,25,25z"/><path fill="#e0e0e0" d="M22,19c0,0-1.343,1-3,1s-3-0.833-3-1c0-0.828,0.343-2,2-2S22,19,22,19z"/><path fill="#3e2723" d="M19,18c1.657,0,3,1,3,1s-1.063-1.563-3-2s-3,0-3,0v2C16.413,18.419,17.695,18,19,18z"/><path fill="#212121" d="M18,19c0,0.551,0.448,1,1,1s1-0.449,1-1c0-0.551-0.448-1-1-1S18,18.449,18,19"/><path fill="#e0e0e0" d="M26,19c0,0,1.343,1,3,1s3-0.75,3-1c0-0.828-0.343-2-2-2S26,19,26,19z"/><path fill="#3e2723" d="M29,18c-1.657,0-3,1-3,1s1.063-1.563,3-2s3,0,3,0v2C31.587,18.419,30.304,18,29,18z"/><path fill="#212121" d="M30,19c0,0.551-0.448,1-1,1s-1-0.449-1-1c0-0.551,0.448-1,1-1S30,18.449,30,19"/><path fill="#a0530e" d="M21.048,15.898c-0.642-0.578-1.616-1.237-2.832-1.517c-0.607-0.122-1.289-0.173-1.941,0.074c-0.016,0.006-0.029,0.016-0.045,0.023c-0.061,0.455-0.11,0.935-0.146,1.44c0.167-0.096,0.345-0.166,0.554-0.183c0.344-0.051,0.793,0.013,1.255,0.11c0.934,0.217,1.943,0.567,2.732,0.798C21.409,16.885,22,17,22,17S21.697,16.472,21.048,15.898z"/><path fill="#795548" d="M36,11c-0.023-0.001-0.095,0.317-0.533,0.809c-0.222,0.22-0.517,0.508-0.954,0.699c-0.424,0.208-0.979,0.37-1.592,0.355c-1.237-0.002-2.6-0.641-3.633-1.64c-0.422-0.43-0.857-0.874-1.3-1.325c-0.406-0.393-0.832-0.805-1.267-1.147c-0.851-0.719-1.768-1.243-2.458-1.35c-0.343-0.051-0.636-0.037-0.924,0.094c-0.294,0.117-0.561,0.373-0.772,0.673c-0.435,0.614-0.573,1.384-0.597,1.927c-0.005,0.272-0.01,0.506,0.011,0.659C21.994,10.915,22,11,22,11s-0.061-0.061-0.175-0.176c-0.11-0.119-0.274-0.302-0.427-0.574c-0.312-0.529-0.682-1.449-0.453-2.675c0.127-0.598,0.411-1.287,1.007-1.845c0.577-0.571,1.457-0.937,2.324-0.977c0.874-0.059,1.693,0.165,2.413,0.477c0.727,0.312,1.36,0.739,1.927,1.198c0.568,0.472,1.069,0.961,1.523,1.503c0.234,0.272,0.461,0.545,0.629,0.792c0.174,0.248,0.388,0.521,0.507,0.71c0.578,0.801,1.245,1.397,1.931,1.702c0.683,0.318,1.41,0.292,1.943,0.164c0.242-0.073,0.478-0.133,0.62-0.208C35.92,11.031,36,11,36,11z"/><path fill="#a0530e" d="M31,15c-0.554,0-1.075-0.214-1.569-0.561c-1.056,0.326-1.911,0.911-2.486,1.439C26.299,16.465,26,17,26,17s0.593-0.126,1.379-0.382c0.79-0.244,1.803-0.611,2.738-0.831c0.464-0.101,0.909-0.159,1.25-0.103c0.176,0.022,0.33,0.066,0.478,0.141c0.053,0.032,0.101,0.082,0.155,0.119V14.91C31.696,14.965,31.368,15,31,15z"/></svg>