<svg xmlns="http://www.w3.org/2000/svg" viewBox="0 0 24 24"><path d="M 12 0 L 0 5 L 0 7 L 24 7 L 24 5 L 12 0 z M 12 3 C 12.552 3 13 3.448 13 4 C 13 4.552 12.552 5 12 5 C 11.448 5 11 4.552 11 4 C 11 3.448 11.448 3 12 3 z M 0 8 L 0 9 L 1 9 L 1 19 L 1 20 L 1 21 L 23 21 L 23 20 L 23 19 L 23 9 L 24 9 L 24 8 L 20 8 L 16 8 L 16 9 L 17 9 L 17 19 L 15 19 L 15 11 L 9 11 L 9 19 L 7 19 L 7 9 L 8 9 L 8 8 L 4 8 L 0 8 z M 9 8 L 9 9 L 15 9 L 15 8 L 9 8 z M 3 9 L 4 9 L 5 9 L 5 19 L 3 19 L 3 9 z M 19 9 L 20 9 L 21 9 L 21 19 L 19 19 L 19 9 z M 0 22 L 0 24 L 24 24 L 24 22 L 0 22 z"/></svg>