<svg xmlns="http://www.w3.org/2000/svg" viewBox="0 0 48 48"><path fill="#002b7f" d="M2,11.449c14.667-5.02,29.333,5.02,44,0c0,8.367,0,16.734,0,25.102c-14.667,5.02-29.333-5.02-44,0	C2,28.184,2,19.816,2,11.449z"/><path fill="#ce1126" d="M2,24c14.667-5.02,29.333,5.02,44,0c0,4.184,0,8.367,0,12.551c-14.667,5.02-29.333-5.02-44,0	C2,32.367,2,28.184,2,24z"/><path fill="#ffd83d" d="M15.652,16.054c0-0.609-0.505-1.264-1.375-1.327c-0.714-0.051-1.441,0.126-2.058,0.253	c-0.001-0.015-0.002-0.03-0.003-0.045c-0.101,0.014-0.202,0.028-0.303,0.042c0.035,0.253,0.062,0.698,0.13,1.147	c0.017,0.538,0.033,1.077,0.05,1.615c0.93,0.019,1.86,0.072,2.79,0.149c0.009-0.016,0.018-0.033,0.028-0.049	c0.038,0.02,0.076,0.04,0.114,0.061C15.369,17.295,15.652,16.783,15.652,16.054z"/><path fill="#ffd83d" d="M11.317,14.924c-0.001,0.015-0.002,0.03-0.003,0.045c-0.617-0.141-1.344-0.336-2.058-0.293	C8.386,14.729,7.881,15.391,7.881,16c0,0.731,0.284,1.238,0.627,1.845c0.038-0.02,0.076-0.04,0.114-0.061	c0.009,0.017,0.018,0.033,0.028,0.049c0.93-0.073,1.86-0.104,2.79-0.101c0.017-0.538,0.033-1.076,0.05-1.614	c0.068-0.448,0.095-0.892,0.13-1.144C11.519,14.956,11.418,14.94,11.317,14.924z"/><path d="M9.761,14.967c0.474,0.048,1.514,0.501,1.395,1.13c-0.168,0.888-0.713,0.533-1.436,0.438	c-0.182,0.066-0.364,0.133-0.546,0.202c-0.195,0.201-0.483,0.396-0.677,0.184C8.39,16.93,8.282,16.94,8.174,16.95	c0,0.401,0,0.801,0,1.202c1.193-0.113,2.386-0.154,3.579-0.14c0-0.968,0-1.935,0-2.903C11.089,15.044,10.425,14.995,9.761,14.967z"/><path fill="#ffd83d" d="M11.364,14.52c0.12,0,0.217,0.094,0.217,0.208s-0.097,0.206-0.217,0.206	c-0.12-0.001-0.217-0.093-0.217-0.206C11.146,14.613,11.244,14.52,11.364,14.52z"/><path fill="#ffd83d" d="M10.875,14.411c0.12-0.001,0.217,0.09,0.217,0.205s-0.097,0.207-0.217,0.208	c-0.12,0.002-0.217-0.09-0.217-0.203C10.658,14.506,10.755,14.412,10.875,14.411z"/><path fill="#ffd83d" d="M10.38,14.302c0.12-0.003,0.217,0.088,0.217,0.202c0,0.115-0.097,0.209-0.217,0.212	s-0.217-0.086-0.217-0.2C10.162,14.4,10.26,14.305,10.38,14.302z"/><path fill="#ffd83d" d="M9.882,14.239c0.12-0.006,0.217,0.085,0.217,0.199c0,0.115-0.097,0.21-0.217,0.215	c-0.12,0.004-0.217-0.083-0.217-0.197C9.665,14.34,9.762,14.244,9.882,14.239z"/><path fill="#ffd83d" d="M9.385,14.216c0.12-0.007,0.217,0.081,0.217,0.195c0,0.114-0.097,0.212-0.217,0.218	c-0.12,0.006-0.217-0.079-0.217-0.194C9.167,14.322,9.265,14.223,9.385,14.216z"/><path fill="#ffd83d" d="M8.897,14.273c0.12-0.009,0.217,0.078,0.217,0.192s-0.097,0.213-0.217,0.221	c-0.12,0.009-0.217-0.076-0.217-0.191C8.68,14.382,8.777,14.282,8.897,14.273z"/><path fill="#ffd83d" d="M8.432,14.461c0.12-0.01,0.217,0.075,0.217,0.189s-0.097,0.214-0.217,0.225	c-0.12,0.01-0.217-0.073-0.217-0.187C8.215,14.573,8.312,14.471,8.432,14.461z"/><path fill="#ffd83d" d="M8.04,14.772c0.12-0.012,0.217,0.072,0.217,0.186S8.16,15.173,8.04,15.185	C7.92,15.196,7.823,15.115,7.823,15C7.823,14.886,7.92,14.783,8.04,14.772z"/><path fill="#ffd83d" d="M7.762,15.182c0.12-0.013,0.217,0.07,0.217,0.184c0,0.115-0.097,0.216-0.217,0.229	c-0.12,0.013-0.217-0.069-0.217-0.182C7.545,15.299,7.642,15.196,7.762,15.182z"/><path fill="#ffd83d" d="M7.628,15.647c0.12-0.013,0.217,0.068,0.217,0.183s-0.097,0.217-0.217,0.23	c-0.12,0.014-0.217-0.067-0.217-0.181C7.411,15.764,7.508,15.66,7.628,15.647z"/><path fill="#ffd83d" d="M7.633,16.112c0.12-0.014,0.217,0.069,0.217,0.183s-0.097,0.217-0.217,0.23	c-0.12,0.014-0.217-0.068-0.217-0.181C7.416,16.23,7.513,16.126,7.633,16.112z"/><path fill="#ffd83d" d="M7.727,16.559c0.12-0.013,0.217,0.07,0.217,0.184s-0.097,0.216-0.217,0.23	c-0.12,0.013-0.217-0.067-0.217-0.182C7.509,16.676,7.607,16.572,7.727,16.559z"/><path d="M13.772,15.011c-0.474,0.041-1.514,0.47-1.395,1.101c0.168,0.892,0.713,0.551,1.436,0.468	c0.182,0.069,0.364,0.139,0.546,0.21c0.195,0.203,0.483,0.401,0.677,0.188c0.108,0.009,0.216,0.019,0.324,0.029	c0,0.401,0,0.801,0,1.202c-1.193-0.11-2.386-0.18-3.579-0.195c0-0.968,0-1.935,0-2.903C12.444,15.06,13.108,15.028,13.772,15.011z"/><path fill="#ffd83d" d="M12.169,14.53c-0.12-0.003-0.217,0.088-0.217,0.202c0,0.114,0.097,0.208,0.217,0.211	s0.217-0.087,0.217-0.201C12.387,14.628,12.289,14.533,12.169,14.53z"/><path fill="#ffd83d" d="M12.658,14.432c-0.12-0.004-0.217,0.085-0.217,0.2c0,0.114,0.097,0.21,0.217,0.214	s0.217-0.085,0.217-0.199C12.875,14.533,12.778,14.437,12.658,14.432z"/><path fill="#ffd83d" d="M13.153,14.334c-0.12-0.006-0.217,0.083-0.217,0.197c0,0.114,0.097,0.211,0.217,0.216	c0.12,0.005,0.217-0.083,0.217-0.196C13.371,14.437,13.274,14.34,13.153,14.334z"/><path fill="#ffd83d" d="M13.651,14.281c-0.12-0.007-0.217,0.081-0.217,0.195c0,0.114,0.097,0.212,0.217,0.219	s0.217-0.079,0.217-0.194S13.771,14.288,13.651,14.281z"/><path fill="#ffd83d" d="M14.148,14.266c-0.12-0.008-0.217,0.078-0.217,0.192s0.097,0.213,0.217,0.221	c0.12,0.009,0.217-0.077,0.217-0.191C14.366,14.373,14.268,14.274,14.148,14.266z"/><path fill="#ffd83d" d="M14.636,14.328c-0.12-0.009-0.217,0.076-0.217,0.19c0,0.114,0.097,0.213,0.217,0.223	c0.12,0.009,0.217-0.075,0.217-0.189C14.854,14.438,14.756,14.337,14.636,14.328z"/><path fill="#ffd83d" d="M15.101,14.518c-0.12-0.011-0.217,0.074-0.217,0.188c0,0.114,0.097,0.215,0.217,0.225	c0.12,0.011,0.217-0.073,0.217-0.187C15.319,14.63,15.221,14.528,15.101,14.518z"/><path fill="#ffd83d" d="M15.493,14.827c-0.12-0.011-0.217,0.072-0.217,0.187c0,0.114,0.097,0.215,0.217,0.227	c0.12,0.011,0.217-0.071,0.217-0.186C15.711,14.941,15.613,14.839,15.493,14.827z"/><path fill="#ffd83d" d="M15.771,15.236c-0.12-0.012-0.217,0.071-0.217,0.186c0,0.114,0.097,0.216,0.217,0.228	s0.217-0.07,0.217-0.185C15.989,15.351,15.891,15.248,15.771,15.236z"/><path fill="#ffd83d" d="M15.905,15.699c-0.12-0.012-0.217,0.071-0.217,0.185s0.097,0.217,0.217,0.228	c0.12,0.012,0.217-0.07,0.217-0.184C16.122,15.814,16.025,15.711,15.905,15.699z"/><path fill="#ffd83d" d="M15.9,16.165c-0.12-0.012-0.217,0.071-0.217,0.185s0.097,0.216,0.217,0.228	c0.12,0.012,0.217-0.07,0.217-0.184C16.117,16.28,16.02,16.177,15.9,16.165z"/><path fill="#ffd83d" d="M15.807,16.612c-0.12-0.012-0.217,0.071-0.217,0.185s0.097,0.216,0.217,0.228	c0.12,0.012,0.217-0.071,0.217-0.184C16.024,16.727,15.927,16.624,15.807,16.612z"/><path fill="#ffd83d" d="M11.922,13.777c0.024-0.042,0.048-0.084,0.072-0.126c-0.065-0.116-0.129-0.232-0.194-0.347	c0.066-0.011,0.118-0.058,0.133-0.12c0.095,0.059,0.19,0.118,0.285,0.178c0.119-0.069,0.239-0.138,0.358-0.206	c-0.119-0.076-0.239-0.151-0.358-0.226c-0.096,0.056-0.191,0.112-0.287,0.168c-0.019-0.059-0.071-0.105-0.136-0.116	c0.066-0.117,0.133-0.234,0.199-0.35c-0.076-0.136-0.151-0.272-0.227-0.407c-0.076,0.134-0.151,0.268-0.227,0.402	c0.066,0.118,0.133,0.237,0.199,0.355c-0.065,0.009-0.117,0.053-0.136,0.113c-0.096-0.059-0.191-0.117-0.287-0.175	c-0.119,0.072-0.239,0.144-0.358,0.217c0.119,0.071,0.239,0.142,0.358,0.214c0.095-0.057,0.19-0.114,0.285-0.171	c0.016,0.061,0.068,0.11,0.133,0.123c-0.065,0.114-0.129,0.228-0.194,0.342c0.024,0.043,0.048,0.085,0.072,0.128	c-0.178,0.06-0.305,0.22-0.305,0.41c0,0.242,0.206,0.437,0.46,0.44c0.254,0.004,0.46-0.188,0.46-0.429	C12.227,14.005,12.099,13.841,11.922,13.777z"/><path fill="#ffd83d" d="M11.766,16.474c-0.568-0.007-0.986,0.255-1.011,0.905c-0.139-0.23-0.726-0.951-1.275-0.823	c-0.326,0.075-0.614,0.526-0.565,1.015c-0.27-0.721-1.061-0.774-1.638-0.263c0.512,0.337,0.74,1.498,1.171,1.972	c1.105-0.094,2.211-0.128,3.316-0.115c1.105,0.014,2.211,0.075,3.317,0.171c0.431-0.475,0.661-1.636,1.173-1.982	c-0.577-0.5-1.368-0.448-1.638,0.27c0.049-0.489-0.24-0.941-0.567-1.021c-0.548-0.135-1.134,0.572-1.273,0.799	C12.753,16.753,12.334,16.482,11.766,16.474z"/><path d="M15.073,19.336c0,0.238-1.481,0.343-3.306,0.32c-1.825-0.028-3.306-0.142-3.306-0.377c0-0.233,1.481-0.497,3.306-0.469	C13.592,18.834,15.073,19.106,15.073,19.336z"/><path fill="#ffd83d" d="M11.767,14.644c0.085,0.001,0.154,0.068,0.154,0.149s-0.069,0.145-0.154,0.144	s-0.154-0.068-0.154-0.148C11.612,14.708,11.681,14.643,11.767,14.644z"/><path fill="#ffd83d" d="M11.767,14.952c0.091,0.002,0.164,0.072,0.164,0.159c0,0.086-0.074,0.155-0.164,0.154	c-0.091-0.001-0.164-0.071-0.164-0.158C11.602,15.02,11.676,14.951,11.767,14.952z"/><path fill="#ffd83d" d="M11.767,15.279c0.099,0.001,0.179,0.079,0.179,0.173c0,0.095-0.08,0.169-0.179,0.168	c-0.099-0.001-0.179-0.078-0.179-0.172C11.587,15.353,11.667,15.277,11.767,15.279z"/><path fill="#ffd83d" d="M11.767,15.634c0.113,0.001,0.205,0.091,0.205,0.198c0,0.108-0.092,0.193-0.205,0.192	c-0.113-0.002-0.205-0.089-0.205-0.197C11.562,15.719,11.654,15.632,11.767,15.634z"/><path fill="#ffd83d" d="M11.767,16.038c0.124,0.002,0.225,0.099,0.225,0.217c0,0.118-0.101,0.212-0.225,0.21	c-0.124-0.001-0.225-0.098-0.225-0.216C11.542,16.131,11.642,16.037,11.767,16.038z"/><path d="M11.767,17.006c-0.032,0-0.036,0.04-0.037,0.073c-0.004,0.108-0.051,0.211-0.091,0.263s-0.099,0.038-0.154,0.009	c-0.055-0.028-0.087-0.049-0.146-0.091c-0.058-0.041-0.103-0.017-0.033,0.077c0.203,0.275,0.424,0.513,0.424,0.962	c0,0.058,0.011,0.076,0.037,0.076c0.026,0.001,0.039-0.017,0.038-0.075c0-0.449,0.219-0.681,0.422-0.952	c0.07-0.093,0.025-0.118-0.033-0.078s-0.091,0.06-0.146,0.087c-0.055,0.026-0.114,0.039-0.154-0.013s-0.087-0.158-0.091-0.265	C11.803,17.047,11.798,17.006,11.767,17.006z M9.695,17.131c-0.015,0.005-0.024,0.032-0.012,0.07	c0.062,0.209,0.081,0.319,0.07,0.372c-0.011,0.052-0.041,0.061-0.081,0.045s-0.087-0.038-0.124-0.061	c-0.036-0.023-0.074,0.009-0.022,0.047c0.266,0.195,0.451,0.426,0.522,0.712c0.015,0.059,0.054,0.064,0.043-0.001	c-0.06-0.362-0.072-0.66,0.019-0.85c0.034-0.071,0-0.138-0.055-0.022c-0.037,0.077-0.096,0.11-0.143,0.046	c-0.047-0.065-0.145-0.236-0.175-0.314c-0.011-0.029-0.024-0.043-0.036-0.044C9.699,17.13,9.697,17.131,9.695,17.131z M13.832,17.176c-0.011,0.001-0.025,0.014-0.036,0.044c-0.029,0.077-0.127,0.248-0.175,0.311c-0.047,0.063-0.107,0.03-0.143-0.048	c-0.055-0.118-0.089-0.052-0.055,0.021c0.091,0.192,0.08,0.491,0.019,0.851c-0.011,0.066,0.028,0.06,0.043,0.002	c0.071-0.285,0.256-0.512,0.522-0.704c0.052-0.037,0.015-0.069-0.022-0.047c-0.036,0.021-0.084,0.044-0.124,0.059	c-0.04,0.014-0.07,0.006-0.081-0.047c-0.011-0.053,0.008-0.163,0.07-0.371c0.011-0.037,0.003-0.065-0.012-0.07	C13.837,17.175,13.834,17.176,13.832,17.176z M8.211,17.662c-0.021,0-0.029,0.017,0,0.052c0.066,0.079,0.138,0.203,0.143,0.258	s-0.024,0.057-0.051,0.06c-0.08,0.007-0.12-0.045-0.192-0.054c-0.073-0.009-0.084,0.028-0.032,0.059	c0.268,0.158,0.536,0.344,0.644,0.523c0.044,0.073,0.103,0.096,0.07,0.026c-0.101-0.216-0.125-0.402-0.103-0.519	c0.022-0.116,0.052-0.195,0.048-0.261s-0.043-0.058-0.059,0.005c-0.011,0.043-0.032,0.099-0.047,0.121s-0.073,0.038-0.129-0.029	S8.306,17.71,8.26,17.68C8.242,17.669,8.224,17.662,8.211,17.662z M15.322,17.719c-0.013,0-0.031,0.006-0.048,0.018	c-0.046,0.03-0.187,0.156-0.243,0.223s-0.115,0.051-0.129,0.028c-0.015-0.022-0.036-0.08-0.047-0.122	c-0.016-0.063-0.055-0.07-0.059-0.005c-0.004,0.066,0.026,0.145,0.048,0.261s-0.002,0.304-0.103,0.519	c-0.033,0.07,0.026,0.047,0.07-0.026c0.108-0.179,0.376-0.363,0.644-0.523c0.052-0.031,0.041-0.069-0.032-0.059	c-0.073,0.009-0.112,0.062-0.193,0.054c-0.027-0.002-0.056-0.005-0.051-0.059c0.005-0.055,0.077-0.178,0.143-0.258	C15.351,17.736,15.344,17.718,15.322,17.719z"/><linearGradient id="LNnaOhyxTkxF3tXloSduFa" x1="2" x2="46" y1="26" y2="26" gradientTransform="matrix(1 0 0 -1 0 50)" gradientUnits="userSpaceOnUse"><stop offset=".004" stop-opacity=".8"/><stop offset=".097" stop-color="#000615" stop-opacity=".393"/><stop offset=".188" stop-color="#000b24" stop-opacity="0"/><stop offset=".377" stop-color="#000b24" stop-opacity=".018"/><stop offset=".406" stop-color="#000819" stop-opacity=".119"/><stop offset=".468" stop-color="#000207" stop-opacity=".342"/><stop offset=".513" stop-opacity=".5"/><stop offset=".579" stop-color="#000104" stop-opacity=".337"/><stop offset=".642" stop-color="#00050f" stop-opacity=".18"/><stop offset=".704" stop-color="#000b23" stop-opacity=".027"/><stop offset=".708" stop-color="#000b24" stop-opacity=".018"/><stop offset=".83" stop-color="#000b24" stop-opacity=".018"/><stop offset=".9" stop-color="#000718" stop-opacity=".341"/><stop offset="1" stop-opacity=".8"/></linearGradient><path fill="url(#LNnaOhyxTkxF3tXloSduFa)" d="M2,11.449c14.667-5.02,29.333,5.02,44,0	c0,8.367,0,16.734,0,25.102c-14.667,5.02-29.333-5.02-44,0C2,28.184,2,19.816,2,11.449z" opacity=".7"/><linearGradient id="LNnaOhyxTkxF3tXloSduFb" x1="2" x2="46" y1="26" y2="26" gradientTransform="matrix(1 0 0 -1 0 50)" gradientUnits="userSpaceOnUse"><stop offset="0" stop-color="#fff" stop-opacity="0"/><stop offset=".227" stop-color="#fff" stop-opacity=".3"/><stop offset=".356" stop-color="#fff" stop-opacity="0"/><stop offset=".587" stop-color="#fff" stop-opacity="0"/><stop offset=".79" stop-color="#fff" stop-opacity=".3"/><stop offset=".996" stop-color="#fff" stop-opacity="0"/></linearGradient><path fill="url(#LNnaOhyxTkxF3tXloSduFb)" d="M2,11.449c14.667-5.02,29.333,5.02,44,0	c0,8.367,0,16.734,0,25.102c-14.667,5.02-29.333-5.02-44,0C2,28.184,2,19.816,2,11.449z" opacity=".7"/></svg>