<svg xmlns="http://www.w3.org/2000/svg" viewBox="0 0 32 32"><path d="M 16 4 C 9.3844239 4 4 9.3844287 4 16 C 4 22.615571 9.3844239 28 16 28 C 22.615576 28 28 22.615571 28 16 C 28 9.3844287 22.615576 4 16 4 z M 16 6 C 21.534697 6 26 10.465307 26 16 C 26 21.534693 21.534697 26 16 26 C 10.465303 26 6 21.534693 6 16 C 6 10.465307 10.465303 6 16 6 z M 9 11 L 9 17 L 13 17 L 13 21 L 15 21 L 15 11 L 13 11 L 13 15 L 11 15 L 11 11 L 9 11 z M 20 11 C 18.35503 11 17 12.35503 17 14 L 17 18 C 17 19.64497 18.35503 21 20 21 C 21.64497 21 23 19.64497 23 18 L 23 14 C 23 12.35503 21.64497 11 20 11 z M 20 13 C 20.56503 13 21 13.43497 21 14 L 21 18 C 21 18.56503 20.56503 19 20 19 C 19.43497 19 19 18.56503 19 18 L 19 14 C 19 13.43497 19.43497 13 20 13 z"/></svg>