<svg xmlns="http://www.w3.org/2000/svg" viewBox="0 0 26 26"><path d="M 2 7 C 0.894531 7 0 7.894531 0 9 L 0 17 C 0 18.105469 0.894531 19 2 19 L 24 19 C 25.105469 19 26 18.105469 26 17 L 26 9 C 26 7.894531 25.105469 7 24 7 Z M 4.6875 10.125 L 6 10.125 L 7.71875 15.03125 L 6.53125 15.03125 L 6.1875 13.9375 L 4.4375 13.9375 L 4.09375 15.03125 L 2.90625 15.03125 Z M 14.6875 10.125 L 16 10.125 L 17.71875 15.03125 L 16.53125 15.03125 L 16.1875 13.9375 L 14.4375 13.9375 L 14.09375 15.03125 L 12.90625 15.03125 Z M 18.6875 10.125 L 19.875 10.125 L 21.84375 13.09375 C 21.933594 13.230469 21.988281 13.367188 22.0625 13.5 L 22.09375 13.5 C 22.074219 13.386719 22.0625 13.148438 22.0625 12.8125 L 22.0625 10.125 L 23.09375 10.125 L 23.09375 15.03125 L 22 15.03125 L 19.96875 11.9375 C 19.851563 11.757813 19.765625 11.621094 19.71875 11.53125 C 19.738281 11.703125 19.75 11.957031 19.75 12.3125 L 19.75 15.03125 L 18.6875 15.03125 Z M 5.28125 11 C 5.269531 11.144531 5.265625 11.265625 5.21875 11.40625 L 4.6875 13.09375 L 5.9375 13.09375 L 5.40625 11.4375 C 5.367188 11.316406 5.328125 11.171875 5.3125 11 Z M 15.28125 11 C 15.269531 11.144531 15.265625 11.265625 15.21875 11.40625 L 14.6875 13.09375 L 15.9375 13.09375 L 15.40625 11.4375 C 15.367188 11.316406 15.328125 11.171875 15.3125 11 Z M 8.8125 14.15625 L 9.8125 14.15625 L 9.3125 15.875 L 8.46875 15.875 Z"/></svg>