<svg xmlns="http://www.w3.org/2000/svg" width="512" height="512" viewBox="0 0 512 512"><path fill="#3CB881" d="M504.1,256c0,137-111.1,248.1-248.1,248.1C119,504.1,7.9,393,7.9,256C7.9,119,119,7.9,256,7.9C393,7.9,504.1,119,504.1,256"/><path fill="#4A1C12" d="M144,371.5c-0.1-1.3-0.2-2.5-0.2-3.8c0-3.8,0.6-7.5,1.9-11c1.7-4.7-0.8-9.8-5.5-11.4c-4.7-1.6-9.8,0.8-11.4,5.4c-1.9,5.5-2.9,11.2-2.9,17c0,1.1,0.1,2.3,0.2,3.4C129.2,373.3,135.1,375.5,144,371.5"/><path fill="#D09C75" d="M218.3 358.7c-4.9 0-9 4-9 9 0 18.1-14.7 32.8-32.8 32.8-16.8 0-30.7-12.7-32.6-29-8.9 4-14.8 1.8-18-.5 1.7 26.4 23.7 47.3 50.5 47.3 28 0 50.7-22.8 50.7-50.7C227.3 362.7 223.3 358.7 218.3 358.7M230.6 338.8C230.6 338.8 230.6 338.8 230.6 338.8c4.8 2.5 9.9 5.2 15.1 8.3 3.4 2 6.8 4 10.3 6.3v-31.7-76.1c-40.2 0-72.7 32.6-72.7 72.7 0 1.3.1 2.6.2 3.9 7.7 11.2 18.4 20.5 31.2 26.9-.8-4.8-1.5-9.9-2.3-15.2C218.1 335.6 224.1 337.2 230.6 338.8M256 245.6v76.1 31.7c3.5-2.3 6.9-4.3 10.3-6.3 5.2-3.1 10.3-5.8 15.2-8.2 6.6-1.5 12.8-3.2 18.6-5-.8 5.2-1.5 10.1-2.2 14.8 12.6-6.5 23.2-15.9 30.7-27.1 0-1.1.2-2.1.2-3.2C328.8 278.1 296.2 245.6 256 245.6"/><path fill="#D09C75" d="M256 358.7v-23.3c-3.5-2.3-6.9-4.3-10.3-6.3-5.2-3.1-15.2 6.1-15.2 6.1 0 0-12.5.4-18.2-1.4.8 5.3 1.5 10.4 2.3 15.2 12.2 6.1 26.2 9.6 41.1 9.6C255.9 358.7 256 358.7 256 358.7M280.9 335.6c-4.9 2.4-9.3-9.6-14.5-6.5-3.4 2-6.8 4-10.3 6.3v-13.8 31.7 5.4c15.2 0 29.5-3.7 41.9-10.1.8-4.7 1.4-9.7 2.2-14.8C294.3 335.6 287.4 334.1 280.9 335.6"/><path fill="#F6C899" d="M304.1,392.1v-22.9c13.8-12.6,22.9-30.3,23.8-50c-7.5,11.2-17.8,20.6-30.4,27.1c-6.2,3.2-12.6,5.7-19.7,7.4c-0.1,0-0.1,0-0.2,0.1c-1.7,0.4-3.3,0.8-5,1.1c-0.3,0.1-0.6,0.1-0.9,0.1c-1.5,0.3-3,0.5-4.5,0.7c-0.7,0.1-1.3,0.1-2,0.2c-1.2,0.1-2.4,2.1-3.5,2.2c-1.9,0.1-3.8,2-5.7,2h-0.2c-1.9,0-3.8-1.9-5.6-2c-1-0.1-1.9-1.1-2.9-1.2c-0.9-0.1-1.7-0.6-2.6-0.7c-1.3-0.2-2.6-0.6-3.9-0.8c-0.5-0.1-1-0.2-1.4-0.3c-1.5-0.3-3-0.6-4.5-1c-0.2-0.1-0.5-0.1-0.7-0.2c-1.7-0.4-3.3-0.8-4.9-1.3c0,0-0.1,0-0.1,0c-5-1.5-9.8-3.4-14.4-5.7c-12.8-6.4-23-15.7-30.6-26.9c1,19.4,9.8,36.9,23.6,49.3v22.9c-6.9,5.4-12.6,16.2-12.6,23.1h59.5c0-6.9-5.5-17.7-12.4-23.1v-4.6c0,0.1,1.6,0.1,2.1,0.2c1.4,0.3,3.1,0.5,4.6,0.6c0.2,0,0.4,0,0.6,0.1c2,0.2,4.2,0.3,6.5,0.3c4.5,0,8.8-0.4,12.4-1.1c0.3-0.1,1.3-0.1,1.3-0.1v4.6c-6.9,5.4-12.1,16.2-12.1,23.1H317C317,408.3,311,397.6,304.1,392.1"/><path fill="#AF5C2B" d="M392.1,241.3c0,143.1-126.1,125-136.1,143.1c-21.8-21.4-136.1,0-136.1-143.1c0-79,17.6-143.1,136.1-143.1C383.5,98.2,392.1,162.3,392.1,241.3"/><path fill="#AF5C2B" d="M228.2,167.1c0,21.4-17.3,38.7-38.7,38.7c-21.4,0-38.7-17.3-38.7-38.7c0-21.4,17.3-38.7,38.7-38.7C210.8,128.3,228.2,145.7,228.2,167.1"/><path fill="#4A1C12" d="M211.8,167.1c0,12.3-10,22.3-22.3,22.3c-12.3,0-22.3-10-22.3-22.3c0-12.3,10-22.3,22.3-22.3C201.8,144.7,211.8,154.7,211.8,167.1"/><path fill="#F6C899" d="M359.4,167.1c0,21.4-17.3,38.7-38.7,38.7c-21.4,0-38.7-17.3-38.7-38.7c0-21.4,17.3-38.7,38.7-38.7C342,128.3,359.4,145.7,359.4,167.1"/><path fill="#4A1C12" d="M342.9,167.1c0,12.3-10,22.3-22.3,22.3c-12.3,0-22.3-10-22.3-22.3c0-12.3,10-22.3,22.3-22.3C333,144.7,342.9,154.7,342.9,167.1"/><path fill="#F6C899" d="M228.2,167.1c0,21.4-17.3,38.7-38.7,38.7c-21.4,0-38.7-17.3-38.7-38.7c0-21.4,17.3-38.7,38.7-38.7C210.8,128.3,228.2,145.7,228.2,167.1"/><path fill="#4A1C12" d="M211.8,167.1c0,12.3-10,22.3-22.3,22.3c-12.3,0-22.3-10-22.3-22.3c0-12.3,10-22.3,22.3-22.3C201.8,144.7,211.8,154.7,211.8,167.1"/><path fill="#E96331" d="M256,160.1L256,160.1C256,160.1,256.1,160.1,256,160.1C256.1,160.1,256,160.1,256,160.1"/><path fill="#0B191C" d="M242.9,325.1L242.9,325.1C242.9,325.1,242.9,325.1,242.9,325.1C242.9,325.1,242.9,325.1,242.9,325.1"/><path fill="#A94825" d="M256.2 160.1C256.1 160.1 256.1 160.1 256.2 160.1 256.1 160.1 256.1 160.1 256.2 160.1L256.2 160.1zM256.2 241.3v-81.2c0 0-.1 0-.1 0 0 0-.1 0-.1 0v81.3C256.1 241.3 256.1 241.3 256.2 241.3"/><path fill="#A94825" d="M256 321.6C256 321.6 256.1 321.6 256 321.6c.1 0 .2 0 .2 0V272v-30.7c-.1 0-.1 0-.2 0V272 321.6zM256 321.6L256 321.6C256 321.6 256.1 321.6 256 321.6 256.1 321.6 256 321.6 256 321.6"/><path fill="#F6C899" d="M255.9,143.4v3h0.2h-0.2V143.4c-75.8,0.1-95.7,47.2-95.5,98.6c0.1,24.6,6.3,66.6,6.3,66.6s-0.4,8.1,40.9,22.1v-18.7c0-14,2-20.8,3.6-24.2c16,6.3,28.3,14,31.5,20.6c3.9-2.2,8.5-3.5,13.3-3.5l12.6-28.9c7.9-1.5,12.8,0.7,18.6,2.5c3.9,1.6,7.9,3.6,11,6.2c0,0,5.8,2,5.8,27.3v18.6c41.3-14,41.1-22.1,41.1-22.1s6.2-42.8,6.4-66.6C352.1,190.7,331.7,143.5,255.9,143.4"/><path fill="#F7F3CE" d="M298.3 284.8c-3.2-2.6-7-4.6-10.9-6.2-8.3-2.6-15-5.9-31.3 2.1-16.4-8-22.9-4.7-31.3-2.1-3.9 1.6-8 3.6-11.2 6.2 0 0-6 2-6 27.3v18.7c13.8 5.3 30.7 8.7 48.3 8.7h.1l0 0h0c15 0 29.8-3.1 43.4-7.6 1.5-.5 4.7-.6 4.7-1.1v-18.6C304.1 286.8 298.3 284.8 298.3 284.8M303.7 333L303.7 333c-1.5.5-3 1.1-4.5 1.5C300.7 334 302.2 333.5 303.7 333"/><path fill="#4A1C12" d="M191.8,227c0,0,39.8-11.6,38.9,29C230.7,255.9,191.8,270.1,191.8,227"/><path fill="#B66B28" d="M226.5,242.2c0,8.2-6.6,14.8-14.8,14.8s-14.8-6.6-14.8-14.8c0-8.2,6.6-14.8,14.8-14.8S226.5,234.1,226.5,242.2"/><path fill="#FFF" d="M221.7,236.1c0,2.8-2.3,5.1-5.1,5.1c-2.8,0-5.1-2.3-5.1-5.1c0-2.8,2.3-5.1,5.1-5.1C219.5,231.1,221.7,233.3,221.7,236.1"/><path fill="#4A1C12" d="M320.6,227c0,0-39.8-11.6-38.9,29C281.7,255.9,320.6,270.1,320.6,227"/><path fill="#B66B28" d="M285.7,242.2c0,8.2,6.6,14.8,14.8,14.8c8.1,0,14.8-6.6,14.8-14.8c0-8.2-6.6-14.8-14.8-14.8C292.3,227.5,285.7,234.1,285.7,242.2"/><path fill="#FFF" d="M301.1,236.1c0,2.8,2.3,5.1,5.1,5.1c2.8,0,5.1-2.3,5.1-5.1c0-2.8-2.3-5.1-5.1-5.1C303.4,231.1,301.1,233.3,301.1,236.1"/><path fill="#D76D7A" d="M253.7,297.3c-2.2-0.4-4.1-1.4-5.4-2.8c-5.9-6.9-13.6-11.7-17.8-14c4-1.2,12.4-3.1,25.4-3.1c12.8,0,21.3,1.9,25.3,3.1c-7.5,4.5-13.7,9.4-18.3,14.2c-1.3,1.3-3,2.2-5,2.6H253.7z"/><path fill="#4A1C12" d="M256 278.8c9.9 0 17.1 1.2 21.7 2.2-6.3 4.1-11.7 8.4-15.7 12.6-1 1.1-2.4 1.8-4.1 2.2h-3.9c-2-.4-3.5-1.2-4.5-2.3-4.8-5.6-10.7-9.8-15.1-12.5C238.9 279.9 246.1 278.8 256 278.8M256 275.9c-19.6 0-29 4.3-29 4.3.2.3 12.1 5.8 20.2 15.2 1.7 2 4.1 2.9 6.5 3.4h4.4c2.2-.4 4.3-1.4 5.9-3.1 8.4-8.9 20.6-15.5 20.7-15.6C284.7 280.1 275.4 275.9 256 275.9M254.2 308.6c-3.6 6.3-8.3 9.9-13.7 10.6-12.3 1.7-25.4-11.3-25.6-11.4-.7-.7-1.8-.7-2.5 0-.7.7-.7 1.8 0 2.5.6.5 12.7 12.6 25.8 12.6.9 0 1.8-.1 2.8-.2 5.9-.8 11-4.3 15-10.3 4 6 9.1 9.5 15 10.3.9.1 1.8.2 2.8.2 13.1 0 25.3-12 25.8-12.6.7-.7.7-1.8 0-2.5-.7-.7-1.9-.7-2.5 0-.1.1-13.2 13-25.5 11.4-5.5-.8-10.1-4.3-13.7-10.6v-9.7c.1 0 .3-.1.4-.1h-4.4c.2 0 .3.1.5.1V308.6z"/><path fill="#8F6652" d="M125.9,309.6c-0.4,0-0.9-0.2-1.2-0.5c-0.7-0.7-0.8-1.8-0.1-2.5c35.4-38.6,90.3-17,90.8-16.8c0.9,0.4,1.4,1.4,1,2.3c-0.4,0.9-1.4,1.4-2.3,1c-0.5-0.2-53.2-20.9-86.8,15.9C126.8,309.4,126.3,309.6,125.9,309.6"/><path fill="#8F6652" d="M137.5,320.9c-0.5,0-0.9-0.2-1.3-0.5c-0.7-0.7-0.7-1.8,0-2.5c33.1-34.2,76.3-22.7,76.8-22.5c1,0.3,1.5,1.3,1.3,2.2c-0.3,1-1.2,1.5-2.2,1.2c-0.4-0.1-41.6-11-73.2,21.6C138.4,320.7,138,320.9,137.5,320.9"/><path fill="#8F6652" d="M152.4 333.4c-.4 0-.7-.1-1-.3-.8-.6-1-1.7-.4-2.5 22.9-32.6 61.4-29.4 61.8-29.4 1 .1 1.7 1 1.6 1.9-.1 1-.9 1.7-1.9 1.6-.4 0-36.8-3-58.5 27.9C153.5 333.1 152.9 333.4 152.4 333.4M383.5 309.6c-.5 0-1-.2-1.3-.6-33.7-36.7-86.3-16.1-86.8-15.9-.9.4-2-.1-2.3-1-.4-.9.1-2 1-2.3.5-.2 55.5-21.8 90.8 16.8.7.7.6 1.9-.1 2.5C384.4 309.4 383.9 309.6 383.5 309.6"/><path fill="#8F6652" d="M371.9,320.9c-0.5,0-0.9-0.2-1.3-0.5c-31.7-32.6-72.8-21.7-73.2-21.6c-1,0.3-1.9-0.3-2.2-1.2c-0.3-1,0.3-1.9,1.2-2.2c0.4-0.1,43.6-11.6,76.8,22.5c0.7,0.7,0.7,1.8,0,2.5C372.8,320.7,372.3,320.9,371.9,320.9"/><path fill="#8F6652" d="M357,333.4c-0.6,0-1.1-0.3-1.5-0.8c-21.7-30.9-58.1-27.9-58.5-27.9c-1,0.1-1.9-0.6-1.9-1.6c-0.1-1,0.6-1.9,1.6-1.9c0.4,0,38.8-3.2,61.8,29.4c0.6,0.8,0.4,1.9-0.4,2.5C357.7,333.3,357.3,333.4,357,333.4"/><path fill="#AF5C2B" d="M255.9 187.5L223.9 149.4 255.9 131 286.3 149z"/></svg>