<svg xmlns="http://www.w3.org/2000/svg" viewBox="0 0 100 100"><path d="M 35.105469 6 A 0.50005 0.50005 0 0 0 35.072266 6.0019531 C 34.549377 6.0364864 34.114343 6.3186922 33.515625 6.6972656 C 32.916907 7.0758391 32.236346 7.5746068 31.587891 8.1054688 C 30.939436 8.6363306 30.325256 9.1969192 29.857422 9.7089844 C 29.623505 9.965017 29.425822 10.20782 29.275391 10.443359 C 29.124959 10.678899 29 10.896701 29 11.208984 L 29 20.5 A 0.50005 0.50005 0 0 0 29.5 21 L 32 21 L 32 61 L 23 61 A 1.0001 1.0001 0 0 0 22 62 L 22 90.279297 C 22 91.784672 23.263677 93 24.765625 93 L 41.234375 93 C 42.736323 93 44 91.784672 44 90.279297 L 44 62 A 1.0001 1.0001 0 0 0 43 61 L 34 61 L 34 21 L 36.5 21 A 0.50005 0.50005 0 0 0 37 20.5 L 37 7.484375 C 37 6.6156908 36.14215 6 35.105469 6 z M 35.119141 7.0078125 C 35.727635 7.0199124 36 7.4043176 36 7.484375 L 36 20 L 33.154297 20 A 1.0001 1.0001 0 0 0 32.984375 19.986328 A 1.0001 1.0001 0 0 0 32.839844 20 L 30 20 L 30 11.208984 C 30 11.262014 30.01682 11.140674 30.119141 10.980469 C 30.221459 10.820262 30.38687 10.61139 30.595703 10.382812 C 31.013369 9.9256595 31.602111 9.3869194 32.222656 8.8789062 C 32.843201 8.3708932 33.498999 7.8918641 34.050781 7.5429688 C 34.59266 7.200335 35.093883 7.015077 35.119141 7.0078125 z M 61 20 A 1.0001 1.0001 0 0 0 60 21 L 60 29 L 56 29 A 1.0001 1.0001 0 0 0 55 30 L 55 90.253906 C 55 91.765193 56.25614 93 57.765625 93 L 74.236328 93 C 75.745365 93 77 91.765193 77 90.253906 L 77 30 A 1.0001 1.0001 0 0 0 76 29 L 72 29 L 72 21 A 1.0001 1.0001 0 0 0 71 20 L 61 20 z M 62 22 L 70 22 L 70 30 L 62 30 L 62 22 z M 57 31 L 60.464844 31 L 61 31 L 71 31 L 75 31 L 75 38 L 74.5 38 A 0.50005 0.50005 0 1 0 74.5 39 L 75 39 L 75 90.253906 C 75 90.66862 74.671291 91 74.236328 91 L 57.765625 91 C 57.32911 91 57 90.66862 57 90.253906 L 57 39 L 66 39 A 0.50005 0.50005 0 1 0 66 38 L 57 38 L 57 31 z M 69 38 A 0.50005 0.50005 0 1 0 69 39 L 71.5 39 A 0.50005 0.50005 0 1 0 71.5 38 L 69 38 z M 24 63 L 32.832031 63 A 1.0001 1.0001 0 0 0 33.158203 63 L 42 63 L 42 90.279297 C 42 90.671922 41.678427 91 41.234375 91 L 24.765625 91 C 24.321573 91 24 90.671922 24 90.279297 L 24 63 z"/></svg>