<svg xmlns="http://www.w3.org/2000/svg" width="512" height="512" viewBox="0 0 512 512"><path fill="#337180" d="M256,7.9C119,7.9,7.9,119,7.9,256C7.9,393,119,504.1,256,504.1c137,0,248.1-111.1,248.1-248.1C504.1,119,393,7.9,256,7.9z"/><path fill="#D9E3E4" d="M330.1,173h-97.5v40.6c0,0,4.3,0,32.8,0c4.1,0.2,16,0.8,19.8,2.9c8,4.2,14.4,5.5,21.3,5.8v0.1c0.6,0,1.3,0,1.9,0c0.6,0,1.2,0,1.9,0v-0.1c6.9-0.3,13.3-1.5,21.3-5.8c2.5-1.3,8.5-2.1,13.5-2.5c33.9,2,31.9,1.3,31.9,29.5c0,0,7.9,3.1,20.1,3.1c12.2,0,20.1-3.1,20.1-3.1C417,185.4,409.8,173,330.1,173z"/><path fill="#A2D4DE" d="M415.4,240.9h-37.1c-4,0-7.2,3.8-7.2,8.5c0,4.7,3.2,8.5,7.2,8.5h37.1c4,0,7.2-3.8,7.2-8.5C422.7,244.6,419.4,240.9,415.4,240.9z"/><path fill="#D9E3E4" d="M309.6,152c-20.8,0-37.7,16.9-37.7,37.7s16.9,37.7,37.7,37.7c20.8,0,37.7-16.9,37.7-37.7S330.4,152,309.6,152z"/><path fill="#D9E3E4" d="M309.6,130.8c-9.7,0-17.5,7.8-17.5,17.5v25.6c0,9.7,7.8,17.5,17.5,17.5c9.7,0,17.5-7.8,17.5-17.5v-25.6C327.1,138.6,319.3,130.8,309.6,130.8z"/><path fill="#8EC0C8" d="M303.2 114.3v21.6c0 0 1.9 2.1 6.9 2.1s5.2-2.1 5.2-2.1v-21.6H303.2zM314.9 104.8h-10.7c-2.2 0-4 1.8-4 4s1.8 4 4 4h10.7c2.2 0 4-1.8 4-4S317.1 104.8 314.9 104.8z"/><path fill="#A2D4DE" d="M335.2,108.6h-51.5c-2.7,0-4.8,2.4-4.8,5.4c0,3,2.2,5.4,4.8,5.4h51.5c2.7,0,4.8-2.4,4.8-5.4C340,111,337.8,108.6,335.2,108.6z"/><g><path fill="#67B8CB" d="M236.7,160c-7.9,0-14.3,6.5-14.3,14.5v37.2c0,8,6.4,14.5,14.3,14.5c7.9,0,14.3-6.5,14.3-14.5v-37.2C251,166.5,244.6,160,236.7,160z"/></g><g><path fill="#FFF" d="M378.9,183.4c0,0,10.8,6.6,17.8,10.9c6.3,4,13.2,13.2,13.2,13.2C404.7,193.8,396.7,185.2,378.9,183.4z"/></g><g><path fill="#FFF" d="M315.3,161.1c0,0,12.7,5.5,14.9,19.6c1.2,7.6,8.9-1.1,8.9-1.1C333.5,167.3,330.6,161.1,315.3,161.1z"/></g><g><path fill="#C4E7ED" d="M398.2,272.4c0,0-13.4,24.1-13.4,33.4c0,7.4,6,13.4,13.4,13.4c7.4,0,13.4-6,13.4-13.4C411.5,297.2,398.2,272.4,398.2,272.4z"/></g><g><path fill="#FFF" d="M403.4,311.3c-2.7,2.9-6.4,4.8-6.4,4.8c8.9-0.2,10.9-2.3,11.8-11.8C408.7,304.4,406.3,308.1,403.4,311.3z"/></g><g><path fill="#D3DDDD" d="M239.2,179.6h-65.1c-8.3,0-15,6.7-15,15v157.7h-57v-96c0-8.3-6.7-15-15-15H8.4c-0.3,4.9-0.4,9.8-0.4,14.7c0,5.1,0.2,10.2,0.5,15.3h63.7v96c0,8.3,6.7,15,15,15h87c8.3,0,15-6.7,15-15V209.6h50.1c8.3,0,15-6.7,15-15S247.5,179.6,239.2,179.6z"/><path fill="#67B8CB" d="M10,223.7C8.6,234.3,7.9,245,7.9,256c0,11.4,0.8,22.6,2.3,33.6c7-1,12.3-7,12.3-14.4v-37.2C22.5,230.7,17.1,224.6,10,223.7z"/><path fill="#A2D4DE" d="M87.1 241.3h-5.8l-22.4 22.4c-2.2 2.2-3.5 4.8-4 7.6h17.2v16.6c2.6-.6 5.1-1.9 7.1-3.9l22.9-22.9v-4.8C102.1 248 95.4 241.3 87.1 241.3zM205.8 209.7c-.6-2.6-1.9-5.1-3.9-7.1l-22.9-22.9h-4.8c-8.3 0-15 6.7-15 15v5.8l22.4 22.4c2.2 2.2 4.8 3.5 7.6 4l0-17.2H205.8zM102.1 352.3v-16.2c-3.2.3-6.4 1.7-8.9 4.2l-21.1 21.1v5.8c0 8.3 6.7 15 15 15h4.8l21.6-21.7c2.4-2.4 3.7-5.3 4.1-8.3H102.1zM167.2 340.4c-2.3-2.3-5.1-3.6-8.1-4.1v16h-16.3c.4 3 1.8 6 4.1 8.3l21.7 21.7h5.5c8.3 0 15-6.7 15-15v-5L167.2 340.4z"/></g></svg>