<svg xmlns="http://www.w3.org/2000/svg" viewBox="0 0 40 40"><path fill="#dff0fe" d="M14.221,38.5c-0.52,0-1.004-0.232-1.328-0.638c-0.322-0.405-0.442-0.927-0.328-1.433 c1.303-5.753,1.936-9.352,1.936-11.001c0-1.345-1.012-3.943-2.184-6.951c-1.32-3.389-2.816-7.23-2.816-9.334 c0-3.213,0.659-6.538,0.899-7.643h19.201c0.24,1.105,0.899,4.43,0.899,7.643c0,2.104-1.496,5.945-2.816,9.334 c-1.172,3.008-2.184,5.606-2.184,6.951c0,1.649,0.633,5.248,1.936,11.001c0.114,0.506-0.006,1.028-0.328,1.433 c-0.324,0.405-0.809,0.638-1.328,0.638H14.221z"/><path fill="#4788c7" d="M29.195,2C29.473,3.353,30,6.296,30,9.143c0,2.01-1.478,5.805-2.782,9.153 C26.028,21.352,25,23.99,25,25.429c0,1.69,0.637,5.324,1.948,11.112c0.081,0.357-0.004,0.725-0.231,1.01 c-0.228,0.286-0.57,0.45-0.937,0.45H20h-5.779c-0.367,0-0.709-0.164-0.937-0.45c-0.228-0.285-0.312-0.653-0.231-1.01 C14.363,30.753,15,27.118,15,25.429c0-1.438-1.028-4.077-2.218-7.132C11.478,14.948,10,11.153,10,9.143 c0-2.847,0.527-5.79,0.805-7.143H20H29.195 M30,1H20H10c0,0-1,4.124-1,8.143s5,13.526,5,16.285c0,2.104-1.119,7.34-1.923,10.891 C11.766,37.695,12.811,39,14.221,39H20h5.779c1.41,0,2.455-1.305,2.144-2.681C27.119,32.769,26,27.533,26,25.429 c0-2.759,5-12.267,5-16.285S30,1,30,1L30,1z"/><path fill="#98ccfd" d="M10,9.143c0,2.01,1.478,5.805,2.782,9.153C13.972,21.352,15,23.99,15,25.429 c0,1.65-0.613,5.172-1.862,10.728c1.984-0.26,4.367-0.473,6.862-0.473c2.496,0,4.879,0.214,6.862,0.473 C25.613,30.6,25,27.079,25,25.429c0-1.438,1.028-4.077,2.218-7.132C28.522,14.948,30,11.153,30,9.143 C30,9.096,29.997,9.048,29.997,9H10.003C10.003,9.048,10,9.096,10,9.143z M20,11c0.552,0,1,0.448,1,1c0,0.552-0.448,1-1,1 s-1-0.448-1-1C19,11.448,19.448,11,20,11z M24,15c0.552,0,1,0.448,1,1c0,0.552-0.448,1-1,1s-1-0.448-1-1C23,15.448,23.448,15,24,15 z M20,20c0.552,0,1,0.448,1,1c0,0.552-0.448,1-1,1s-1-0.448-1-1C19,20.448,19.448,20,20,20z"/><path fill="none" stroke="#f7fcff" stroke-linecap="round" stroke-miterlimit="10" d="M16.5,32.5c0,0,1.097-5.345,1-7 c-0.346-5.929-4-8.932-4-16.01c0-2.21,1-4.99,1-4.99"/></svg>