<svg xmlns="http://www.w3.org/2000/svg" viewBox="0 0 30 30"><path d="M 13 3 C 9.611 3 6 4.9021875 6 9.4921875 C 6 15.632187 2 13.046813 2 14.257812 C 2 16.336812 3.039 17.47 4 18 C 4 20.581 5.991 22 7 22 C 7.7193416 22 8.3260996 21.877371 8.8339844 21.664062 C 9.0416732 22.215244 9.2860136 22.722337 9.5410156 23.158203 C 10.135827 24.174893 10.75103 25.031329 10.783203 25.117188 C 10.964048 25.599784 11.203285 26.244431 11.65625 26.839844 C 12.109215 27.435256 12.892263 28 13.865234 28 C 14.317887 28 14.713776 27.90911 15 27.818359 C 15.286224 27.90911 15.682113 28 16.134766 28 C 17.107737 28 17.890785 27.435256 18.34375 26.839844 C 18.796715 26.244431 19.035952 25.599784 19.216797 25.117188 C 19.248967 25.031327 19.864173 24.174893 20.458984 23.158203 C 20.713986 22.722337 20.958327 22.215244 21.166016 21.664062 C 21.6739 21.877371 22.280658 22 23 22 C 24.009 22 26 20.581 26 18 C 26.961 17.47 28 16.336813 28 14.257812 C 28 13.046812 24 15.631187 24 9.4921875 C 24 4.9021875 20.389 3 17 3 C 16.161282 3 15.49637 3.1507751 15 3.4140625 C 14.50363 3.1507751 13.838718 3 13 3 z M 15 6.3574219 C 16.470695 6.8675155 19.108868 6.3994847 19.8125 8.6914062 C 18.899501 8.1572744 18.175574 8 17 8 A 1.0001 1.0001 0 1 0 17 10 C 18.433516 10 18.126888 9.8916971 19.419922 10.814453 A 1.0001 1.0001 0 0 0 19.953125 11.007812 C 19.925599 11.34222 19.888117 11.687218 19.841797 12.037109 C 18.354834 11.980628 17.087891 11.169922 17.087891 11.169922 A 1.0001 1.0001 0 0 0 16.523438 10.992188 A 1.0001 1.0001 0 0 0 15.96875 12.830078 C 15.96875 12.830078 16.015109 12.858971 16.021484 12.863281 C 16.020277 12.886525 16.009766 12.906081 16.009766 12.929688 C 16.009766 13.545687 16.509 14.046875 17.125 14.046875 C 17.433 14.046875 17.711813 13.918797 17.914062 13.716797 C 18.391738 13.863334 18.936717 13.974302 19.527344 14.017578 C 19.268012 15.513331 19 16.955905 19 18 C 19 18.770685 19.163873 19.535696 19.525391 20.189453 C 19.369911 20.904067 19.077264 21.559011 18.732422 22.148438 C 18.231733 23.004247 17.661577 23.567873 17.34375 24.416016 C 17.174595 24.867419 16.970738 25.341319 16.751953 25.628906 C 16.533168 25.916494 16.418795 26 16.134766 26 C 15.720392 26 15.470703 25.867188 15.470703 25.867188 A 1.0004591 1.0004591 0 0 0 15.380859 25.824219 A 1.0004591 1.0004591 0 0 0 15.365234 25.818359 A 1.0004591 1.0004591 0 0 0 15.285156 25.791016 A 1.0004591 1.0004591 0 0 0 15.25 25.78125 A 1.0004591 1.0004591 0 0 0 15.224609 25.775391 A 1.0004591 1.0004591 0 0 0 15.152344 25.761719 A 1.0004591 1.0004591 0 0 0 15.089844 25.753906 A 1.0004591 1.0004591 0 0 0 15.083984 25.753906 A 1.0004591 1.0004591 0 0 0 14.804688 25.769531 A 1.0004591 1.0004591 0 0 0 14.783203 25.773438 A 1.0004591 1.0004591 0 0 0 14.703125 25.794922 A 1.0004591 1.0004591 0 0 0 14.689453 25.798828 A 1.0004591 1.0004591 0 0 0 14.615234 25.826172 A 1.0004591 1.0004591 0 0 0 14.601562 25.832031 A 1.0004591 1.0004591 0 0 0 14.529297 25.867188 C 14.529297 25.867188 14.279608 26 13.865234 26 C 13.581205 26 13.466832 25.91649 13.248047 25.628906 C 13.029262 25.341319 12.825405 24.867419 12.65625 24.416016 C 12.338423 23.567873 11.768267 23.004248 11.267578 22.148438 C 10.922736 21.559011 10.630089 20.904067 10.474609 20.189453 C 10.836127 19.535696 11 18.770685 11 18 C 11 16.955905 10.731988 15.513331 10.472656 14.017578 C 11.06605 13.974946 11.61216 13.863887 12.091797 13.716797 C 12.294159 13.920602 12.574704 14.046875 12.884766 14.046875 C 13.500766 14.046875 14 13.547641 14 12.931641 C 14 12.906795 13.989617 12.885771 13.988281 12.861328 C 13.994119 12.857374 14.039062 12.830078 14.039062 12.830078 A 1.0001 1.0001 0 0 0 13.455078 10.992188 A 1.0001 1.0001 0 0 0 12.921875 11.169922 C 12.921875 11.169922 11.648407 11.983867 10.158203 12.037109 C 10.111439 11.683864 10.072493 11.335465 10.044922 10.998047 A 1.0004791 1.0004791 0 0 0 10.589844 10.814453 C 11.882878 9.8916971 11.57625 10 13.009766 10 A 1.0001 1.0001 0 1 0 13.009766 8 C 11.829955 8 11.103801 8.1603098 10.185547 8.6992188 C 10.88568 6.3987106 13.5277 6.8680723 15 6.3574219 z M 13.5 17.5 A 0.50005 0.50005 0 1 0 13.5 18.5 C 13.58333 18.5 13.678701 18.55132 13.916016 18.685547 C 14.15333 18.819775 14.520157 19 15 19 C 15.479843 19 15.862126 18.83123 16.128906 18.693359 C 16.395686 18.555489 16.58375 18.5 16.5 18.5 A 0.50005 0.50005 0 1 0 16.5 17.5 C 16.08325 17.5 15.886892 17.694511 15.669922 17.806641 C 15.452952 17.91877 15.252157 18 15 18 C 14.747843 18 14.612888 17.930225 14.408203 17.814453 C 14.203518 17.698681 13.916667 17.5 13.5 17.5 z M 14 19.392578 C 13.742 19.392578 11.783203 20.203125 11.783203 20.203125 C 11.783203 20.203125 13.268 22 15 22 C 16.733 22 18.216797 20.203125 18.216797 20.203125 C 18.216797 20.203125 16.255 19.400391 16 19.400391 C 15.745 19.400391 15.356 19.826172 15 19.826172 C 14.644 19.826172 14.258 19.392578 14 19.392578 z"/></svg>