<svg xmlns="http://www.w3.org/2000/svg" viewBox="0 0 128 128"><path fill="#fff" d="M97,19L97,19c0-5.5,4.5-10,10-10h0H31c-5.5,0-10,4.5-10,10v0c0,5.5,4.5,10,10,10h11l-3,93h12l-3-93h59h0"/><path fill="#adf9d2" d="M48 29H107V119H48z"/><path fill="#009f96" d="M21,19v90c0,5.5,4.5,10,10,10h11V29H31C25.5,29,21,24.5,21,19L21,19z"/><path fill="#444b54" d="M107,26l-55.8,0c-1.6,0-3.1,1.2-3.2,2.8c-0.1,1.7,1.3,3.2,3,3.2h53v84H51c-1.7,0-3,1.3-3,3l0,0c0,1.7,1.3,3,3,3h56c1.7,0,3-1.3,3-3V29C110,27.3,108.7,26,107,26z"/><path fill="#444b54" d="M31,116c-3.9,0-7-3.1-7-7V29.9c2,1.3,4.4,2.1,7,2.1l7.8,0c1.6,0,3.1-1.2,3.2-2.8c0.1-1.7-1.3-3.2-3-3.2l-7.8,0c-3.6,0-6.7-2.5-7.2-6.1C23.5,15.7,26.8,12,31,12h65c-1.2,1.9-2,4.2-2,6.7c0,1.7,1.2,3.2,2.9,3.3c1.7,0.1,3.1-1.3,3.1-3c0-3.9,3.1-7,7-7c1.5,0,2.9-1.2,3-2.8c0.1-1.8-1.3-3.2-3-3.2H31c-7.2,0-13,5.8-13,13v90c0,7.2,5.8,13,13,13h8c1.7,0,3-1.3,3-3l0,0c0-1.7-1.3-3-3-3H31z"/><g><path fill="#fff" d="M63,79h24c1.7,0,3-1.3,3-3V62c0-1.7-1.3-3-3-3H63c-1.7,0-3,1.3-3,3v14C60,77.7,61.3,79,63,79z"/></g></svg>