<svg xmlns="http://www.w3.org/2000/svg" width="512" height="512" viewBox="0 0 512 512"><path fill="#FEBF10" d="M202.9 359.3c-2.3 1.3-5.4 1.1-7.2-1.7-.3-.4-.6-.8-.9-1.2-1.5-.5-2.4-1.4-2.9-2.5-6.7-4.3-17.7-4.7-24.4-5-5.1-.2-10.4-.6-15.4.2-6 .9-10.8 4.2-15.5 7.9-.7.5-1.4.9-2.1 1-2.8 8.4-4.8 17.2-5.7 26 .3.1.7.1 1 .3 19 6.6 36.1-4.5 52.6-12.9 8.3-4.2 17.3-8.4 26.6-10.3C206.8 360.7 204.9 360 202.9 359.3zM240.7 323.4c-5.8-4-13.7-6.6-20.7-7-1.3-.1-2.8 0-3.9.4 0 0 0 0 0 0 .1.3.5.8 1.5 1.6 1.7 1.3 3.7 2.2 5.6 3.2 4.3 2.3 8.7 4.7 11.9 8.4 3.3 3.9 3.4 8.4 3.1 13.3-.5 7.7-3.1 15.2-9.5 18.3 1 .3 2 .7 3 1.1 2.9 1.2 3.6 3.6 3 5.9.1.3.1.5.1.8 1.1 15.4 3.7 30.8 3 46.3-.5 11.1-3.8 22.2-3.4 33.3.4-.1.8-.1 1.1 0 1.3-14.5 2.6-29 3.6-43.6 1.1-16.2.7-32.5 2.2-48.7.7-7.8 3.3-15.3 4-23C245.8 328.9 244.4 325.9 240.7 323.4z"/><path fill="#EF4823" d="M223.7,372c-14.9-3.7-32.4,7.7-44.9,14c-8.6,4.3-17.5,9-26.9,11.1c-8.1,1.8-15.9,1-23.7-1.3c0,0.3,0,0.5,0,0.8c0.2,8.5,1.2,17.4,4.2,25.4c2.3,6,5.2,11.7,7.9,17.4c0.9,0,1.8,0.2,2.8,0.8c6,3.7,13.1,2.7,19.4,0.4c6.1-2.1,13.2-5,18.2-9.3c7.1-6.2,13-14,20.6-19.6c5.3-3.9,12.6-5,17.5-9.4c2.4-2.1,5.4-1.9,7.5-0.5C225.7,391.8,224.5,381.9,223.7,372z"/><path fill="#EF4823" d="M474.4,262.1c-4.5-8.6-10.2-16.6-16.6-24c-13.1-15.2-29.1-26.6-48.7-32c-25.8-7.1-52.9-6.9-79-12.2c-13.3-2.7-26.1-7.1-38.1-13.5c-12.1-6.4-23.5-13.9-35.2-21c-24.3-14.9-50.4-24.6-78-31.4c-14.5-3.6-29.2-6.5-44-7.8c-13.1-1.2-27.9-2.4-40.7,1.4c-22,6.7-37.2,25.8-43.6,47.5c-3.4,11.6-5.3,24-3.7,36.1c1.7,13.2,6.6,25.5,12.5,37.4c12.2,24.3,28.3,48.4,27.6,76.7c-0.4,14.6-3.5,29-3.4,43.6c0.1,12.6,1.7,25.6,6.6,37.2c7.1,16.9,20.4,29.3,36.4,37c-2.5-5.2-5-10.5-6.4-16.1c-2.2-8.5-3.5-17.4-3.3-26.2c0.3-18.3,4.3-36.8,12-53.5c8-17.4,19.7-32.1,37.2-40.5c18.9-9.2,40.3-10.6,60.7-13.9c7.2-1.1,8,10.2,0.9,11.3c-18.9,3-38.9,4.1-56.4,12.5c-13.3,6.4-22.7,17.1-29.4,29.7c2.9-1.3,6-2.2,9.4-2.6c6.4-0.8,12.9-0.5,19.3,0c9.8,0.7,22.4,2.1,30.5,8.8c1.9,0.7,3.8,1.4,5.8,2.1c4.4,1.6,9.7,3.6,14.5,3.2c4.5-0.3,5.2-2.6,5.7-6.8c0.7-5.6,0.9-8-4.3-11c-4.1-2.3-8.7-4.2-12.3-7.2c-6.1-5.1-7.8-15-0.2-19.7c6.5-4,15.9-2.1,22.6,0.2c7.1,2.4,15.7,5.6,20.3,12c8.3,11.6,0.5,26.9-0.4,39.6c-0.5,7.2-0.8,14.5-1,21.8c4.3-2.8,7.7-6.9,11.3-10.4c4-3.8,8.4-6.8,12.6-10.3c4.5-3.8,9-7.9,14.1-10.8c2.7-1.5,6.9-3.1,8.7-5.7c0.7-1,1.5-1.6,2.3-1.9c-3.3-1.8-6.5-3.7-9.8-5.8c-2.9-1.8-3.4-5.1-2.3-7.6c-14-17.1-41.6-19.8-52.8-40c-7.8-14.2-3.6-29.4,5.8-41.8c5.8-7.6,13.2-14.1,18.6-21.9c5.7-8.3,9.9-17.5,14.7-26.3c3.5-6.4,13.7-1.4,10.2,5c-4.8,8.8-9.1,17.8-14.6,26.2c-5,7.6-11.8,13.7-17.4,20.7c-8,9.9-14.9,23.4-5.8,34.8c2.2,2.8,4.8,5.2,7.7,7.3c-0.1-2.7,1.5-5.4,5-5.4c8.6,0,17.6,0.2,25.9-2.5c6.6-2.2,12.4-6.1,18-10.1c10.9-7.7,21.5-16.7,34.2-21.2c14.4-5.1,31.1-4.8,46.2-4c15.7,0.8,31,3.2,45.8,8.5c6.9,2.4,1.8,12.6-5,10.2c-15.1-5.3-31.4-7.4-47.3-7.5c-14.3-0.1-29.7-0.4-42.6,6.7c-11.5,6.3-21.3,15.1-32.5,21.9c-12.1,7.3-24.5,9.2-38.3,9.4c3.6,2,7.3,3.9,10.8,5.9c10,5.7,20.2,12.2,26.2,22.4c0.5,0.9,0.8,1.9,0.8,2.7c8,4.5,16,8,25.8,7.8c10.9-0.1,21.4-3,31.4-7.3c10.2-4.3,19.8-9.7,29.4-15.1c9.1-5,18-10.5,28-13.8c13.1-4.3,25.9-4.7,39.5-5.4c8.2-0.4,20.8-1.3,23.1-11.2C480.8,276.9,477.9,268.8,474.4,262.1z"/><path d="M490.7,276.2c-1.8-18.5-15.4-35.5-27.4-48.9c-13.8-15.4-30.7-25.9-50.5-31.9c-25.6-7.7-52.8-7.5-79-12.4c-27.6-5.2-49.9-20.3-73.4-34.7c-24.1-14.8-50.4-24.1-77.7-31.1c-14.5-3.7-29.2-6.5-44-8.1c-13.5-1.5-27.9-2.4-41.4,0.1c-23.1,4.2-40.8,20.3-51.3,40.8c-11.2,22-13.9,47.8-7.3,71.5c7.1,25.5,23.9,47,32.6,71.8c6.4,18.2,3.7,35.9,1.8,54.6c-1.7,16.6-0.9,33.5,4,49.5c8.3,27.1,30.3,45.5,56.4,54.4c2.1,4,7.4,3.5,9.7,0.8c13.2,4.4,28.7-2.7,39.9-9.4c8.3-5,14.6-12.8,21.5-19.4c6.5-6.2,15.4-7.9,22.1-13.6c0,1.6,0,3.2,0,4.8c-0.2,13.4-5,26.3-3.1,39.8c0.3,1.8,1.2,3.9,3.1,4.6c3.4,1.3,6.7,1.8,9.9,0.6c3,3.1,9,2.8,9.5-2.5c1.5-16.7,3-33.4,4.1-50.1c0.3-4.7,0.5-9.5,0.7-14.2c0.6-0.1,1.2-0.2,1.8-0.5c5.3-2.5,9.6-6.2,13.8-10.3c4.9-4.7,9.9-8.8,15.2-13.1c4.6-3.8,9-7.8,14.1-10.8c3.6-2.1,8.5-4.1,10.9-7.6c1.5-2.1,1.3-4.4,0.4-6.3c0.9,0.4,1.9,0.7,2.9,1.1c7,2.3,14.5,2.9,21.8,2.6c14.2-0.6,27.8-6,40.4-12.2c13-6.3,25.1-14.3,38.1-20.5c12.9-6.1,26.4-8.3,40.5-8.6c11.6-0.2,23.7-0.8,32.8-9C489.7,292.6,491.5,284,490.7,276.2z M218.8,402.3c-4.8,4.3-12.2,5.5-17.5,9.4c-7.6,5.6-13.5,13.4-20.6,19.6c-4.9,4.3-12.1,7.2-18.2,9.3c-6.4,2.2-13.4,3.2-19.4-0.4c-1-0.6-1.9-0.9-2.8-0.8c-2.7-5.8-5.6-11.4-7.9-17.4c-3-8-4-16.9-4.2-25.4c0-0.3,0-0.5,0-0.8c7.8,2.3,15.6,3.1,23.7,1.3c9.5-2.1,18.3-6.8,26.9-11.1c12.5-6.3,30-17.7,44.9-14c0.8,9.9,2,19.9,2.6,29.8C224.2,400.4,221.2,400.1,218.8,402.3z M128.6,384.2c0.9-8.8,2.9-17.6,5.7-26c0.7-0.2,1.4-0.5,2.1-1c4.8-3.6,9.5-6.9,15.5-7.9c5-0.8,10.3-0.5,15.4-0.2c6.7,0.3,17.7,0.7,24.4,5c0.5,1.1,1.4,1.9,2.9,2.5c0.3,0.4,0.7,0.8,0.9,1.2c1.9,2.8,4.9,3,7.2,1.7c2,0.7,3.9,1.3,5.9,1.9c-9.3,1.9-18.3,6.2-26.6,10.3c-16.5,8.3-33.6,19.5-52.6,12.9C129.3,384.3,129,384.2,128.6,384.2z M245.4,333.7c-0.7,7.7-3.3,15.2-4,23c-1.4,16.1-1.1,32.5-2.2,48.7c-1,14.5-2.2,29-3.6,43.6c-0.4,0-0.8,0-1.1,0c-0.3-11.1,3-22.2,3.4-33.3c0.7-15.4-1.9-30.9-3-46.3c0-0.3-0.1-0.6-0.1-0.8c0.6-2.3-0.2-4.7-3-5.9c-1-0.4-2-0.8-3-1.1c6.4-3.1,9-10.7,9.5-18.3c0.3-4.9,0.3-9.4-3.1-13.3c-3.2-3.8-7.6-6.2-11.9-8.4c-1.9-1-3.8-2-5.6-3.2c-1-0.8-1.4-1.3-1.5-1.6c0,0,0,0,0,0c1-0.4,2.6-0.5,3.9-0.4c7,0.4,14.9,3.1,20.7,7C244.4,325.9,245.8,328.9,245.4,333.7z M479,284.4c-2.3,9.9-14.9,10.8-23.1,11.2c-13.6,0.6-26.4,1.1-39.5,5.4c-10,3.3-18.9,8.7-28,13.8c-9.7,5.3-19.3,10.7-29.4,15.1c-10,4.3-20.5,7.2-31.4,7.3c-9.8,0.1-17.8-3.3-25.8-7.8c0-0.9-0.3-1.8-0.8-2.7c-5.9-10.2-16.2-16.7-26.2-22.4c-3.4-2-7.1-3.9-10.8-5.9c13.7-0.2,26.1-2.1,38.3-9.4c11.2-6.8,21-15.6,32.5-21.9c12.9-7.1,28.3-6.8,42.6-6.7c15.9,0.1,32.3,2.2,47.3,7.5c6.8,2.4,11.9-7.7,5-10.2c-14.9-5.3-30.1-7.7-45.8-8.5c-15.1-0.8-31.8-1.1-46.2,4c-12.7,4.5-23.4,13.5-34.2,21.2c-5.6,4-11.4,7.9-18,10.1c-8.2,2.7-17.3,2.5-25.9,2.5c-3.5,0-5.1,2.6-5,5.4c-2.9-2.1-5.5-4.5-7.7-7.3c-9-11.5-2.2-24.9,5.8-34.8c5.7-7,12.5-13.2,17.4-20.7c5.5-8.4,9.8-17.4,14.6-26.2c3.5-6.4-6.7-11.4-10.2-5c-4.8,8.8-9,18.1-14.7,26.3c-5.4,7.9-12.9,14.3-18.6,21.9c-9.3,12.4-13.6,27.6-5.8,41.8c11.1,20.2,38.8,22.8,52.8,40c-1,2.5-0.6,5.8,2.3,7.6c3.3,2,6.5,4,9.8,5.8c-0.8,0.3-1.6,0.9-2.3,1.9c-1.8,2.6-6,4.2-8.7,5.7c-5.1,3-9.6,7-14.1,10.8c-4.2,3.5-8.7,6.6-12.6,10.3c-3.6,3.5-7.1,7.6-11.3,10.4c0.2-7.3,0.5-14.5,1-21.8c0.9-12.7,8.8-27.9,0.4-39.6c-4.6-6.4-13.2-9.6-20.3-12c-6.7-2.2-16.1-4.2-22.6-0.2c-7.6,4.7-5.9,14.6,0.2,19.7c3.6,3,8.2,4.9,12.3,7.2c5.1,3,4.9,5.4,4.3,11c-0.5,4.1-1.2,6.4-5.7,6.8c-4.8,0.4-10-1.6-14.5-3.2c-1.9-0.7-3.8-1.4-5.8-2.1c-8-6.7-20.7-8.1-30.5-8.8c-6.4-0.5-12.9-0.8-19.3,0c-3.3,0.4-6.4,1.3-9.4,2.6c6.7-12.7,16.2-23.3,29.4-29.7c17.5-8.5,37.5-9.6,56.4-12.5c7.2-1.1,6.4-12.5-0.9-11.3c-20.5,3.2-41.8,4.7-60.7,13.9c-17.5,8.5-29.2,23.1-37.2,40.5c-7.7,16.7-11.7,35.1-12,53.5c-0.2,8.8,1.1,17.7,3.3,26.2c1.5,5.6,3.9,10.9,6.4,16.1c-16.1-7.7-29.3-20.1-36.4-37c-4.9-11.7-6.5-24.7-6.6-37.2c-0.1-14.6,3.1-29,3.4-43.6c0.7-28.3-15.5-52.4-27.6-76.7c-5.9-11.8-10.8-24.2-12.5-37.4C45.1,193,47,180.7,50.4,169c6.3-21.7,21.5-40.8,43.6-47.5c12.8-3.9,27.6-2.7,40.7-1.4c14.9,1.4,29.6,4.3,44,7.8c27.6,6.9,53.7,16.6,78,31.4c11.7,7.1,23.1,14.7,35.2,21c12.1,6.3,24.8,10.7,38.1,13.5c26.2,5.4,53.2,5.1,79,12.2c19.6,5.4,35.6,16.8,48.7,32c6.4,7.4,12.1,15.4,16.6,24C477.9,268.8,480.8,276.9,479,284.4z"/></svg>