<svg xmlns="http://www.w3.org/2000/svg" viewBox="0 0 48 48"><path fill="#bbdefb" d="M6,10c0-2.2,1.8-4,4-4h28c2.2,0,4,1.8,4,4v28c0,2.2-1.8,4-4,4H10c-2.2,0-4-1.8-4-4V10z"/><path fill="#1976d2" d="M30,25.6l-0.4-0.1C27.9,25,25,23.4,25,20.6c0-2.5,2.2-4.6,5-4.6s5,2.1,5,4.6c0,2.8-2.9,4.4-4.6,4.9 L30,25.6z M30,19c-1.1,0-2,0.7-2,1.6c0,0.9,1.3,1.5,2,1.8c0.7-0.3,2-1,2-1.8C32,19.7,31.1,19,30,19z"/><path fill="#1976d2" d="M30 32c-2.8 0-5-2.1-5-4.6 0-2.8 2.9-4.4 4.6-4.9l.4-.1.4.1c1.7.5 4.6 2.1 4.6 4.9C35 29.9 32.8 32 30 32zM30 25.6c-.7.3-2 1-2 1.8 0 .9.9 1.6 2 1.6 1.1 0 2-.7 2-1.6C32 26.6 30.7 25.9 30 25.6zM23 19v-3h-8.3l-1 8h0 3H18c1.1 0 2 .9 2 2v1c0 1.1-.9 2-2 2s-2-.9-2-2h-3c0 2.8 2.2 5 5 5s5-2.2 5-5v-1c0-2.8-2.2-5-5-5-.3 0-.7 0-1 .1l.3-2.1H23z"/></svg>