<svg xmlns="http://www.w3.org/2000/svg" viewBox="0 0 32 32"><path d="M 3 6 L 3 7 L 3 26 L 29 26 L 29 6 L 3 6 z M 5 8 L 15 8 L 15 24 L 5 24 L 5 8 z M 17 8 L 27 8 L 27 24 L 17 24 L 17 8 z M 10.205078 10 L 9.9453125 10.603516 C 9.9453125 10.603516 9.3333333 12 8 12 L 8 14 C 8.8281796 14 9.4581293 13.723245 10 13.376953 L 10 22 L 12 22 L 12 10 L 10.205078 10 z M 22 10 C 20.35503 10 19 11.35503 19 13 L 19 19 C 19 20.64497 20.35503 22 22 22 C 23.64497 22 25 20.64497 25 19 L 25 13 C 25 11.35503 23.64497 10 22 10 z M 22 12 C 22.56503 12 23 12.43497 23 13 L 23 19 C 23 19.56503 22.56503 20 22 20 C 21.43497 20 21 19.56503 21 19 L 21 13 C 21 12.43497 21.43497 12 22 12 z"/></svg>