<svg xmlns="http://www.w3.org/2000/svg" viewBox="0 0 100 100"><path d="M 51 9 C 42.953674 9 35.748578 11.355591 30.511719 15.283203 C 25.274859 19.210815 22 24.763863 22 31 C 22 37.236137 25.274859 42.789185 30.511719 46.716797 C 33.457003 48.925742 37.025686 50.637832 41.015625 51.712891 C 35.870004 52.470682 31.265744 53.805515 27.490234 55.59375 C 21.598447 58.384341 17.672053 62.360791 17.142578 67.068359 A 1.0001 1.0001 0 0 0 17.001953 67.578125 L 17.001953 67.931641 A 1.0001 1.0001 0 0 0 17 68 C 17 68.012408 17.001891 68.024705 17.001953 68.037109 L 17.001953 68.087891 C 17.001953 67.999651 17 68.005182 17 68.107422 C 17 68.20966 17.001953 68.217148 17.001953 68.128906 L 17 73.761719 A 1.0001 1.0001 0 0 0 17.001953 73.818359 C 17.012823 74.008108 17.035373 74.24803 17.146484 74.830078 C 17.257599 75.412126 17.45104 76.219778 17.785156 77.177734 C 18.453389 79.093646 19.686827 81.615043 21.943359 84.121094 C 26.456378 89.133196 35.040074 94 50.998047 94 C 64.809375 94 75.129299 90.795907 80.726562 84.400391 C 82.958512 81.850045 84.032055 79.230089 84.541016 77.236328 C 84.795496 76.239448 84.910127 75.39789 84.960938 74.791016 C 85.011747 74.184141 84.997287 73.740354 84.998047 73.761719 L 84.998047 68.154297 C 84.998047 68.221627 85 68.206752 85 68.107422 C 85 68.008092 84.998047 67.993209 84.998047 68.060547 L 84.998047 68.037109 C 84.998109 68.024705 85 68.012408 85 68 A 1.0001 1.0001 0 0 0 84.998047 67.949219 L 84.998047 67.578125 A 1.0001 1.0001 0 0 0 84.857422 67.070312 C 84.328806 62.361913 80.402342 58.384715 74.509766 55.59375 C 70.734256 53.805515 66.129996 52.470682 60.984375 51.712891 C 64.974314 50.637832 68.542997 48.925742 71.488281 46.716797 C 76.725141 42.789185 80 37.236137 80 31 C 80 24.763863 76.725141 19.210815 71.488281 15.283203 C 66.251422 11.355591 59.046326 9 51 9 z M 51 11 C 58.654674 11 65.449219 13.256378 70.287109 16.884766 C 75.125 20.513153 78 25.460137 78 31 C 78 36.539863 75.125 41.486847 70.287109 45.115234 C 65.449219 48.743622 58.654674 51 51 51 C 43.345326 51 36.550781 48.743622 31.712891 45.115234 C 26.875 41.486847 24 36.539863 24 31 C 24 25.460137 26.875 20.513153 31.712891 16.884766 C 36.550781 13.256378 43.345326 11 51 11 z M 51 14 C 44.319332 14 38.349205 15.8324 34.021484 18.871094 C 29.693764 21.909788 27 26.188058 27 31 C 27 35.811942 29.693764 40.090212 34.021484 43.128906 C 38.349205 46.1676 44.319332 48 51 48 C 57.680668 48 63.650795 46.1676 67.978516 43.128906 C 72.306236 40.090212 75 35.811942 75 31 C 75 26.188058 72.306236 21.909788 67.978516 18.871094 C 63.650795 15.8324 57.680668 14 51 14 z M 51 15 C 57.497332 15 63.276517 16.791147 67.404297 19.689453 C 71.532076 22.587759 74 26.559942 74 31 C 74 35.440058 71.532076 39.412241 67.404297 42.310547 C 63.276517 45.208853 57.497332 47 51 47 C 44.502668 47 38.723483 45.208853 34.595703 42.310547 C 30.467924 39.412241 28 35.440058 28 31 C 28 26.559942 30.467924 22.587759 34.595703 19.689453 C 38.723483 16.791147 44.502668 15 51 15 z M 51 53 C 59.946041 53 67.926096 54.689234 73.654297 57.402344 C 79.382498 60.115453 82.732111 63.776263 82.976562 67.642578 A 1.0001 1.0001 0 0 0 82.998047 67.794922 L 82.998047 68.033203 C 82.977939 71.049884 80.197356 74.563214 74.697266 77.310547 C 69.177157 80.067879 61.064172 82 51 82 C 40.935828 82 32.822843 80.067879 27.302734 77.310547 C 21.802644 74.563214 19.022061 71.049884 19.001953 68.033203 L 19.001953 67.792969 A 1.0001 1.0001 0 0 0 19.023438 67.642578 C 19.267848 63.776258 22.617502 60.115453 28.345703 57.402344 C 34.073904 54.689234 42.053959 53 51 53 z M 51 56 C 42.14394 56 34.961842 57.43217 29.953125 59.556641 C 27.448767 60.618876 25.486286 61.85221 24.126953 63.193359 C 22.767621 64.534509 22 66.005855 22 67.5 C 22 68.994145 22.767621 70.465491 24.126953 71.806641 C 25.486286 73.14779 27.448767 74.381124 29.953125 75.443359 C 34.961842 77.56783 42.14394 79 51 79 C 59.85606 79 67.038158 77.56783 72.046875 75.443359 C 74.551233 74.381124 76.513714 73.14779 77.873047 71.806641 C 79.232379 70.465491 80 68.994145 80 67.5 C 80 66.005855 79.232379 64.534509 77.873047 63.193359 C 76.513714 61.85221 74.551233 60.618876 72.046875 59.556641 C 67.038158 57.43217 59.85606 56 51 56 z M 51 57 C 59.74794 57 66.815967 58.423533 71.65625 60.476562 C 74.076392 61.503078 75.938083 62.688962 77.171875 63.90625 C 78.405667 65.123538 79 66.349145 79 67.5 C 79 67.83863 78.941953 68.183745 78.837891 68.533203 C 78.67535 68.392144 78.525835 68.248793 78.351562 68.109375 A 0.50005 0.50005 0 0 0 78.029297 67.994141 A 0.50005 0.50005 0 0 0 77.728516 68.888672 C 77.975307 69.086105 78.192937 69.287764 78.412109 69.488281 C 78.112962 70.02033 77.715053 70.557838 77.171875 71.09375 C 75.938083 72.311038 74.076392 73.496922 71.65625 74.523438 C 66.815967 76.576466 59.74794 78 51 78 C 42.25206 78 35.184033 76.576466 30.34375 74.523438 C 27.923608 73.496922 26.061917 72.311038 24.828125 71.09375 C 24.284173 70.557074 23.885169 70.019119 23.585938 69.486328 C 27.866882 65.587041 37.560432 62 51 62 C 55.388323 62 59.377876 62.378202 62.910156 63.025391 A 0.50032038 0.50032038 0 1 0 63.089844 62.041016 C 59.494124 61.382204 55.445677 61 51 61 C 37.622774 61 27.865814 64.423659 23.160156 68.529297 C 23.056909 68.181238 23 67.837308 23 67.5 C 23 66.349145 23.594333 65.123538 24.828125 63.90625 C 26.061917 62.688962 27.923608 61.503077 30.34375 60.476562 C 35.184033 58.423533 42.25206 57 51 57 z M 66.980469 62.923828 A 0.50005 0.50005 0 0 0 66.871094 63.908203 C 67.911778 64.185191 68.902373 64.4885 69.837891 64.810547 A 0.50005 0.50005 0 1 0 70.162109 63.865234 C 69.203627 63.535282 68.192222 63.226371 67.128906 62.943359 A 0.50005 0.50005 0 0 0 66.980469 62.923828 z M 73.470703 65.246094 A 0.50005 0.50005 0 0 0 73.287109 66.201172 C 73.80224 66.443008 74.293873 66.693232 74.759766 66.947266 A 0.50083106 0.50083106 0 0 0 75.240234 66.068359 C 74.756127 65.804393 74.24576 65.547039 73.712891 65.296875 A 0.50005 0.50005 0 0 0 73.470703 65.246094 z M 19 73.394531 C 20.613482 75.520618 23.146695 77.469489 26.410156 79.099609 C 32.294297 82.038778 40.681172 84 51 84 C 61.318828 84 69.705703 82.038778 75.589844 79.099609 C 78.851587 77.470347 81.384441 75.523217 82.998047 73.398438 L 82.998047 73.798828 A 1.0001 1.0001 0 0 0 82.998047 73.833984 C 83.000347 73.897354 83.0115 74.114375 82.96875 74.625 C 82.926 75.135625 82.826785 75.867568 82.603516 76.742188 C 82.156976 78.491426 81.217708 80.802377 79.222656 83.082031 C 74.217929 88.800521 64.496718 92 50.998047 92 C 35.443019 92 27.535122 87.342601 23.429688 82.783203 C 21.37697 80.503504 20.270033 78.228932 19.673828 76.519531 C 19.375726 75.664831 19.20608 74.951413 19.111328 74.455078 C 19.018297 73.967757 18.993248 73.59669 19 73.716797 L 19 73.394531 z"/></svg>