<svg xmlns="http://www.w3.org/2000/svg" width="48" height="48" viewBox="0 0 48 48"><path fill="#009688" d="M6,10c0-2.209,1.791-4,4-4h28c2.209,0,4,1.791,4,4v28c0,2.209-1.791,4-4,4H10c-2.209,0-4-1.791-4-4	V10z"/><rect width="24" height="9" x="12" y="11" fill="#eee"/><path fill="#7cb342" d="M20,18h-3c-0.552,0-1-0.448-1-1v-5c0-0.552,0.448-1,1-1h3c0.552,0,1,0.448,1,1v5 C21,17.552,20.552,18,20,18z M18,16h1v-3h-1V16z"/><path fill="#7cb342" d="M29,18h-3c-0.552,0-1-0.448-1-1v-5c0-0.552,0.448-1,1-1h3c0.552,0,1,0.448,1,1v5 C30,17.552,29.552,18,29,18z M27,16h1v-3h-1V16z"/><rect width="2" height="7" x="32" y="11" fill="#7cb342"/><rect width="2" height="2" x="22" y="16" fill="#7cb342"/><path fill="#cfd8dc" d="M33.667,29.192c1.007,0.423,1.084,0.238,1.595,0.327c0.488-0.609,1.017-1.335,1.889-1.384	c-2.118-1.213-4.811-1.196-7.249-1.09c-0.602,0.812-0.347,1.515-0.589,2.468c-0.398-0.693-0.22-1.735,0.125-2.447	c-0.332,0.016-0.657,0.032-0.974,0.045c-2.186,0.09-4.163,1.279-6.235,1.64c-0.678,0.409-0.892,1.064-0.584,2.089	c-0.432-0.617-0.523-1.327-0.191-1.997c-0.082,0.005-0.164,0.008-0.245,0.009c-2.309,0.045-7.495-0.166-4.405,3.397	c1.583,1.823,7.409,3.29,7.409,3.29s-1.063-1.871-1.468-2.706c0.67,1.195,1.56,2.158,2.842,2.666	c0.261-0.03,0.514-0.071,0.756-0.128c0.949-0.224,1.99-0.838,2.899-1.391c-0.683-0.335-1.079-0.959-1.383-1.754	c0.51,0.624,1.234,1.115,1.997,1.352l-0.001,0.029c0.068-0.04,0.135-0.079,0.199-0.117c2.072-1.212,3.345-1.711,4.814-3.454	C33.998,29.324,34.052,29.353,33.667,29.192z"/><path fill="#eceff1" d="M12.829,28.206c0,0,1.937,1.048,2.941,1.498c2.008,0.894,4.115,1.597,6.285,1.877	c2.162,0.292,4.395,0.037,6.497-0.671c1.052-0.351,2.073-0.806,3.06-1.331c0.991-0.518,1.93-1.136,2.906-1.693	c-0.937,0.617-1.834,1.296-2.799,1.88c-0.959,0.592-1.964,1.121-3.018,1.549c-2.1,0.862-4.42,1.292-6.73,1.124	c-2.303-0.165-4.541-0.774-6.679-1.583c-1.07-0.407-3.143-1.381-3.143-1.381L12.829,28.206z"/><rect width="24" height="2" x="12" y="9" fill="#90a4ae"/></svg>