<svg xmlns="http://www.w3.org/2000/svg" viewBox="0 0 50 50"><path d="M 23 3 C 21.863281 3 20.488281 4.238281 17.746094 7.726563 C 17.652344 7.847656 17.566406 7.949219 17.5 8.039063 C 16.976563 7.988281 15.925781 7.796875 15.050781 7.640625 C 12.121094 7.109375 9.953125 6.75 8.773438 7.027344 C 8.410156 7.113281 8.125 7.390625 8.03125 7.75 C 7.492188 9.847656 7.6875 12.75 7.976563 15.8125 C 7.632813 16.117188 6.734375 16.644531 6.117188 17.011719 C 4.226563 18.117188 2.867188 18.917969 3.007813 20.117188 C 3.015625 20.183594 3.03125 20.246094 3.050781 20.3125 C 3.96875 23.128906 7.035156 25.730469 8.066406 26.542969 C 7.777344 28.71875 8.472656 30.898438 9.945313 32.519531 C 9.8125 32.632813 9.667969 32.757813 9.546875 32.859375 C 8.648438 33.605469 8 34.148438 8 35 C 8 36.851563 10.449219 39.332031 15.074219 39.882813 C 15.09375 39.882813 15.113281 39.875 15.132813 39.878906 C 15.421875 39.917969 15.722656 39.945313 16.027344 39.96875 C 16.316406 39.984375 16.613281 39.996094 16.917969 39.996094 C 16.945313 39.996094 16.972656 40 17 40 C 22.269531 40 24.945313 39.511719 26.027344 39.246094 C 25.75 39.011719 25.523438 38.878906 25.515625 38.875 C 25.035156 38.609375 24.855469 38 25.125 37.515625 C 25.390625 37.035156 26 36.859375 26.484375 37.125 C 26.585938 37.179688 29 38.542969 29 41 C 29 41.550781 28.554688 42 28 42 C 27.464844 42 27.039063 41.582031 27.011719 41.054688 C 26.058594 41.351563 23.253906 42 17 42 C 16.730469 42 16.464844 41.988281 16.199219 41.972656 C 16.550781 42.96875 17.398438 43.96875 18.910156 43.96875 L 18.96875 43.96875 C 18.984375 43.984375 19 44.027344 19.011719 44.066406 L 19 45.996094 C 18.996094 46.546875 19.441406 46.996094 19.996094 47 L 22 47 C 21.449219 47 21 46.550781 21 46 C 21 45.449219 21.449219 45 22 45 C 22.550781 45 23 45.449219 23 46 C 23 46.550781 22.550781 47 22 47 L 25 47 C 24.449219 47 24 46.550781 24 46 C 24 45.449219 24.449219 45 25 45 C 25.550781 45 26 45.449219 26 46 C 26 46.550781 25.550781 47 25 47 L 28 47 C 27.449219 47 27 46.550781 27 46 C 27 45.449219 27.449219 45 28 45 C 28.550781 45 29 45.449219 29 46 C 29 46.550781 28.550781 47 28 47 L 30 47 C 30.554688 47 31 46.550781 31 46 C 31 42.183594 32 38.847656 32.042969 38.707031 C 32.179688 38.261719 32.625 37.972656 33.066406 38 C 33.210938 38.007813 34.597656 38.039063 35.050781 36.683594 C 35.183594 36.285156 35.289063 35.746094 35.050781 35.410156 C 34.867188 35.15625 34.464844 35 34 35 C 33.242188 35 32.832031 35.554688 32.828125 35.5625 C 32.519531 36.015625 31.898438 36.136719 31.4375 35.828125 C 30.984375 35.519531 30.863281 34.898438 31.171875 34.4375 C 31.535156 33.90625 32.535156 33 34 33 C 35.132813 33 36.105469 33.453125 36.671875 34.242188 C 37.078125 34.804688 37.457031 35.796875 36.949219 37.316406 C 36.351563 39.089844 34.894531 39.769531 33.78125 39.953125 C 33.625 40.578125 33.398438 41.609375 33.230469 42.84375 C 34.402344 43.425781 35.546875 43.894531 35.621094 43.925781 C 35.742188 43.976563 35.871094 44 36 44 C 36.15625 44 36.308594 43.964844 36.453125 43.890625 C 36.710938 43.761719 36.898438 43.523438 36.96875 43.242188 L 37.796875 39.929688 C 42.242188 39.484375 42.632813 38.871094 42.84375 38.535156 C 43.027344 38.253906 43.484375 37.527344 42.214844 33.5 C 44.246094 32.410156 46.929688 30.671875 47 29.042969 C 47.070313 27.394531 44.347656 25.140625 42.292969 23.675781 C 43.335938 21.628906 45 18.179688 45 17 C 45 16.414063 45 15.0625 37.992188 13.222656 C 37.949219 10.398438 37.707031 6.292969 36.707031 5.292969 C 36.308594 4.894531 35.269531 3.851563 28.1875 7.75 C 27.589844 7.101563 27.054688 6.429688 26.566406 5.820313 C 25.304688 4.246094 24.308594 3 23 3 Z M 14.101563 18.003906 C 14.230469 18.019531 14.359375 18.058594 14.480469 18.125 C 14.964844 18.390625 15.140625 19 14.875 19.484375 C 14.503906 20.15625 14.796875 21.292969 14.933594 21.640625 C 14.980469 21.765625 15 21.898438 14.996094 22.027344 C 15.160156 22.007813 15.328125 22 15.5 22 C 16.074219 22 16.617188 22.109375 17.136719 22.273438 C 17.476563 21.082031 18.222656 20.355469 18.320313 20.265625 C 18.722656 19.890625 19.355469 19.914063 19.734375 20.320313 C 20.105469 20.722656 20.085938 21.351563 19.6875 21.730469 C 19.664063 21.75 19.105469 22.308594 18.988281 23.140625 C 18.984375 23.179688 18.960938 23.214844 18.953125 23.253906 C 19.03125 23.324219 19.125 23.375 19.203125 23.449219 C 18.445313 24.617188 18 26.003906 18 27.5 C 18 28.765625 18.324219 29.953125 18.882813 31 L 15.558594 31 C 14.699219 31 14 31.671875 14 32.5 C 14 33.328125 14.699219 34 15.558594 34 L 17.433594 34 C 17.984375 34 18.433594 34.449219 18.433594 35 C 18.433594 35.550781 17.984375 36 17.433594 36 L 15.558594 36 C 13.789063 36 12.328125 34.722656 12.058594 33.058594 C 12.027344 32.875 12 32.691406 12 32.5 C 12 32.253906 12.027344 32.011719 12.078125 31.78125 C 12.074219 31.777344 12.074219 31.777344 12.070313 31.777344 C 12.054688 31.761719 12.039063 31.753906 12.027344 31.742188 C 10.710938 30.671875 9.984375 29.089844 10.003906 27.449219 C 10.007813 27.316406 10.015625 27.191406 10.027344 27.0625 C 10.042969 26.886719 10.0625 26.714844 10.09375 26.546875 C 10.113281 26.445313 10.125 26.34375 10.152344 26.246094 C 10.214844 25.976563 10.296875 25.714844 10.398438 25.464844 C 10.46875 25.289063 10.542969 25.113281 10.628906 24.949219 C 9.8125 24.769531 8.574219 24.0625 8.042969 22.285156 C 7.886719 21.757813 8.183594 21.203125 8.710938 21.042969 C 9.242188 20.886719 9.800781 21.1875 9.957031 21.714844 C 10.300781 22.855469 11.03125 22.996094 11.113281 23.007813 C 11.125 23.007813 11.128906 23.015625 11.140625 23.015625 C 11.492188 23.0625 11.65625 23.066406 12.253906 23.082031 C 12.539063 22.875 12.835938 22.679688 13.160156 22.527344 C 13.128906 22.476563 13.09375 22.425781 13.066406 22.367188 C 12.980469 22.144531 12.234375 20.132813 13.125 18.519531 C 13.324219 18.15625 13.714844 17.964844 14.101563 18.003906 Z M 29 19 C 29.257813 18.996094 29.515625 19.09375 29.710938 19.285156 C 30.105469 19.671875 30.109375 20.304688 29.722656 20.699219 C 29.707031 20.71875 28.941406 21.515625 28.367188 22.773438 C 28.363281 22.785156 28.355469 22.792969 28.347656 22.804688 C 28.8125 23.085938 29.230469 23.433594 29.589844 23.835938 C 30.195313 23.0625 31.207031 22.335938 31.425781 22.183594 C 31.878906 21.863281 32.5 21.972656 32.816406 22.425781 C 33.136719 22.878906 33.027344 23.5 32.574219 23.816406 C 32.132813 24.128906 31.007813 25.105469 30.640625 25.5625 C 30.757813 25.871094 30.847656 26.191406 30.90625 26.519531 C 30.9375 26.515625 30.96875 26.5 31 26.5 C 31.804688 26.5 33.097656 26.96875 33.351563 27.0625 C 33.867188 27.257813 34.128906 27.832031 33.9375 28.347656 C 33.785156 28.75 33.40625 29 33 29 C 32.882813 29 32.765625 28.980469 32.652344 28.9375 C 32.085938 28.726563 31.285156 28.5 31 28.5 C 30.96875 28.5 30.9375 28.484375 30.90625 28.480469 C 30.441406 31.046875 28.195313 33 25.5 33 C 23.527344 33 21.800781 31.949219 20.828125 30.386719 C 20.308594 29.546875 20 28.558594 20 27.5 C 20 26.648438 20.203125 25.847656 20.550781 25.128906 C 20.605469 25.015625 20.671875 24.90625 20.734375 24.796875 C 20.804688 24.667969 20.878906 24.542969 20.960938 24.421875 C 21.519531 23.601563 22.292969 22.949219 23.195313 22.523438 C 22.988281 21.59375 22.992188 20.511719 23.011719 19.960938 C 23.035156 19.410156 23.496094 18.992188 24.046875 19 C 24.601563 19.023438 25.03125 19.488281 25.011719 20.039063 C 24.984375 20.746094 25.035156 21.523438 25.125 22.023438 C 25.25 22.015625 25.375 22 25.5 22 C 25.847656 22 26.183594 22.035156 26.515625 22.097656 C 26.527344 22.046875 26.527344 21.996094 26.546875 21.941406 C 27.277344 20.34375 28.257813 19.339844 28.296875 19.296875 C 28.488281 19.101563 28.742188 19.003906 29 19 Z M 13 27 C 12.449219 27 12 27.449219 12 28 C 12 28.550781 12.449219 29 13 29 C 13.550781 29 14 28.550781 14 28 C 14 27.449219 13.550781 27 13 27 Z M 25 27 C 24.449219 27 24 27.449219 24 28 C 24 28.550781 24.449219 29 25 29 C 25.550781 29 26 28.550781 26 28 C 26 27.449219 25.550781 27 25 27 Z"/></svg>