<svg xmlns="http://www.w3.org/2000/svg" width="512" height="512" viewBox="0 0 512 512"><path fill="#EF4754" d="M247.6 50.7c-5.4 3.6-11.2 6.1-18.2 6.8 0 4.4.5 8.7 1.2 13 6.7-2.2 12.8-5.5 18.3-9.9 0 0 .1-.1.1-.1C248.4 57.3 247.8 54 247.6 50.7zM259.3 114.8c-.5-3.9-1-7.7-1.6-11.6-1.9 1.6-4.1 2.8-6.5 3.6-3.6 1.3-8.1 1.7-11.2 3.9-.6.5-1.3.8-1.9.9.6 5.4 1.1 10.7 1.6 16.1 5.9.2 13.5.7 16.4-5 .9-1.8 2.3-2.7 3.8-2.9C259.7 118.1 259.5 116.5 259.3 114.8zM257.7 163.8c-4.9.8-10.4-.2-14.3-.2-.5 0-.9 0-1.3-.1.3 4.9.7 9.9.4 14.9.4.2.8.4 1.1.7 1 .7 4.3 1.8 6.4 2.1 1.1.2 2.1.3 3.2.1.1 0 .1 0 .2 0 1.7-2.8 4.8-3 7.1-1.8.2-5.5.5-11 .6-16.6C260.1 163.3 258.9 163.6 257.7 163.8zM229.6 330c-4.3-10.1-8.8-20.1-12.9-30.3-4.2-10.4-7.2-20.9-9.9-31.8-.4-1.6-.1-3 .5-4.1-6.5 3.8-14 4.1-21.4 5.4-5.5.9-11.2 2.3-11.9 8.6-1.2 11.2 4.9 23.7 9.6 33.5 6.7 14.1 13.3 28.1 19.2 42.6 2 4.9 11.1 25.4 18.1 19.7 2.4-2 5.9-.7 7.6 1.5 4.5 5.7 8.3 12.7 7.6 20.2-.7 7.7-5.8 13.3-12.1 17.4-3.2 2.1-6.7.4-8.3-2.7-.6-1.3-1.2-2.6-1.8-4-3.1 2.3-6.6 4.2-9.8 5.9-5.1 2.8-10.4 5.3-15.7 7.8-5.8 2.7-12 6-18.4 6.8-7.9 1-11.1-5.2-15.8-10.2-2.5-2.7-2.4-6.4.6-8.7 10.2-7.9 22.8-12.2 34.9-16.7-10.1-12.9-16.2-28.5-22.7-43.5-4.2-9.6-7.1-20.4-12.4-29.4-1.6-2.7-3.3-5.5-4.9-8.3-2.1 3.2-4.3 6.3-6.4 9.4-1 1.5-2.2 2.9-3.1 4.5-.1.2-.2.4-.3.6.1.1.1.3.2.4 2.2 2.9 4.4 5.5 6 8.7 2.3 4.8 4.1 10.1 7.3 14.4 2.6 3.5 5 8.1 5.8 12.3 1.4 7.6-3 12.4-6.4 18.6-1.8 3.3-5.6 3.8-8.6 1.7-11.7-8.5-15.3-23.3-24.5-33.7-6.5 9.5-13.5 19.3-15.5 30.6-.2.9-.5 1.7-.9 2.3.1 10.4 5.7 19.8 6 30.2.1 4.1-4.1 7.3-7.9 5.4-5.3-2.7-10.5-5-16.2-6.7-3.8-1.1-6.7-3.5-8.1-7.3-3.1-8.4-.9-17.8 0-26.7-3.9.2-7.9 1.1-11.8 1.2-2.8.1-5.9-2-5.9-5.1v-23c0-3.2 2.9-7 6.5-5.8 6.8 2.2 12.7 6 18.9 9.3 9.2-14.9 18-30 27.9-44.5 3.9-5.6 8.6-10.6 12.9-16 1.9-2.4 4.2-5 6-7.8-.4.1-.8.2-1.3.3-6.1 1.3-12.4 2.1-18.6 2.9-2.4.3-4.8.8-7.1.9-3.3.1-8.3-1.2-11.4.2-3.2 1.4-3.7 5.9-4.6 8.8-1.2 3.6-2.4 6.8-4.7 9.9-1.9 2.7-7.1 2.4-8.7-.6-4.8-8.9-13.1-19.4-3.2-28.4 3.9-3.5 8.5-7 6.5-12.9-1.8-5.3-3.9-10.2-4.5-15.8-1-8.9 4.3-22.9 15.8-18.1 9.1 3.8 10.9 14.1 13.6 22.8 9.8-1.7 19.5-3.6 29.4-4.1-3.8-11-8.1-22-10.9-33.3-1.5-6.1-2.1-12.7-4.8-18.4-1.2-2.5-4.9-2.4-7.3-2.8-2.9-.5-5.7-1.2-8.5-2.3-2.7-1-3.9-5-2.5-7.4 3.9-6.9 6.4-17.1 15.7-18.4 4.8-.7 9 1 13.6 1.9 3.1.6 4.8-.4 7-2.7 4.5-4.9 8.5-11.9 15.4-13.6 5.9-1.5 14.8 2.2 16.3 8.7 1.5 6.8-1.7 12.6-5.6 18-1.9 2.5-3.9 4.9-6 7.3-.8.9-1.6 1.8-2.3 2.7-.3.4-.4.5-.3.4-.4.5-.7 1.1-1 1.6-3.9 7.7-2.6 17.3-.4 25.3 1.9 7 4.4 13.8 7.7 20.3 7.5-1.4 14.6-4.6 21.1-8.5-.1-.2-.2-.4-.3-.7-3.8-11.9-5.5-24.6-2.9-37 2.5-11.8 8-22.4 12.2-33.6 3.6-9.6 7.3-20.5 5.4-30.9-1.6-8.6-8.3-15.9-15.8-20.2-27.9-15.9-55.8 18.3-70.3 38.1-18.6 25.3-34.9 54.5-45.2 84.3-9.9 28.7-9.2 59.4-11.6 89.2-2.3 28.3-5.9 59.4 8.5 85.3 19.2 34.6 61.3 51.5 99.4 51.7 36.9.2 87.3-16.8 87.1-61.3C246.5 370.8 238 349.8 229.6 330zM260.9 133.8c-5.5 4.3-13 4.8-20.4 4.8.3 4.7.7 9.4.9 14.1.3-.1.7-.1 1-.1h1c.3 0 .5 0 .8.1 2.7.1 5.4.4 8.1.4 1.4 0 3.1.1 4.3-.3.3-.1.6-.3.7-.4.2-2.5 1.4-4.8 3.8-5.5C261.3 142.6 261.2 138.2 260.9 133.8zM252.3 73.8c-.1-.5-.3-1.1-.4-1.6-5.8 4.1-12.3 7.2-19 9.2 0 0 0 0 0 0 1.4 6.2 2.9 12.4 3.9 18.6 2.4-1.1 5-1.8 7.5-2.5 3.1-.9 6.5-1.6 7.9-4.8.8-1.8 2.1-2.8 3.6-3C254.7 84.4 253.6 79 252.3 73.8zM439.7 326.3c-.3-16.2.1-32.3-.2-48.5-.3-14-2.8-27.6-7.8-40.7-5.3-13.6-12.7-25.8-19.8-38.5-14.7-26.2-26.3-54.4-43.8-78.9-12.2-17.2-38.1-42.2-59-22-17 16.5-15.8 40-12.8 61.7 3 21.7 8.5 44.6 3.4 66.3.6.3 1.2.6 1.9.9 2.9 1.3 5.8 2.6 8.8 3.7 4.5 1.7 14.1 5.5 18 .8 2.2-2.7 3.1-6.5 4.5-9.7.9-2 3.6-6.1 2.6-8.4-1.5-3.5-5.6-5.9-8.4-8.3-2.8-2.4-5.1-5.3-7.6-8-5.4-5.7-13.2-13-9.3-21.7 3.6-8.1 12.9-12 21-7.8 6.6 3.5 10.8 9.8 14.6 16 2.5 4 4.9 8.6 8.6 11.6 3.1-4.7 5.9-9.8 10.5-13 2-1.4 5.4-4.4 8-4.4 2.9 0 4.2 1.4 6.5 2.8 5.1 3.1 10.8 9.4 8.4 15.8-1.7 4.6-6.5 8.3-9.7 11.8-4.9 5.3-8.7 11.5-13.8 16.8-4.5 4.6-6.8 13.2-7.9 19.7.5.2 1.1.5 1.4.6 3.5 1.4 6.9 3 10.5 3.8 7.1 1.6 14.4 2.1 21.6 3.4 3.3-6.8 7.5-14.5 15.4-15.2 11.4-1 18.5 9.6 13.3 19.6-1.3 2.5-2.9 4.9-4.6 7.1-1.1 1.4-3.3 3.5-3.1 5.4.5 5.6 5.2 10.3 7.5 15.3 4.9 10.4-3.7 16.4-11.4 21.7-2.4 1.6-6.1 1.1-7.6-1.5-3.3-5.5-3.8-11.2-4.9-17.4-1.1-6-5.9-4.3-10.6-4.2-11.9.2-24 1.3-35-3.4-.8 4.1-2 8.2-2.7 12.3-.7 4-1.9 9.6.6 13.3 4.7 6.9 12.9 12.4 19.2 17.9 3.9 3.4 7.9 6.9 12.3 9.7 3.3 2.1 6.3 4.3 10.3 3.1 8.5-2.6 15.5-8.6 22.4-13.9 2.2-1.7 6.2-1 7.6 1.5 4 7.2 16 14.8 10.6 24.3-2.6 4.7-8.4 5.9-13.3 6.6-2.6.4-5.5.6-8 1.8 1.3 4.3 3.4 8.4 3.5 12.9.2 5.6-6 9.8-11.4 10-8.8.4-9.7-7.5-12.8-13.5-6.9.6-16.7-5.9-21.2-8.5-10.9-6.3-17.9-17.3-27.8-24.8-.4 4.8.6 10 1.5 14.5 1.4 7.2 3.5 14.3 4.7 21.5.2 1.3 0 2.4-.5 3.3 4.8 10.1 8.2 21 7.4 32.2-.2 3.2-3.8 4.6-6.4 4.3-3.7-.4-6.7 1.5-9.9 3.2-3.6 1.9-8.1.3-8.6-4.1-1-9.4-4.3-18.2-8.3-26.7-3.4 2.5-7.1 4.8-10.8 6.2-8.3 3.2-13.1-3.7-18-8.8-3.1-3.3-1.9-9.3 3.2-9.6 3.1-.2 7.1-2.1 10.3-3.4 3.4-1.4 7.3-2.9 10.3-5.1 0-.2.1-.6 0-1.2-.1-1.2-.2-2.4-.3-3.6-.4-2.3-.8-4.6-1.4-6.8-1.5-6.1-2.4-12.5-3.2-18.7-1-8.2-1.2-16.6-.9-24.8.3-7.9 1.5-16.8 0-24.7-1.7-8.6-12.8-13-20.7-16.7-5.5 15.2-9.4 30.6-11.4 46.8-2.2 18-4.6 36.5-1.6 54.5 2.4 14.1 8.2 28 18.4 38.3 10.9 11 24.9 18.1 39.2 23.8 20.4 8.2 48.5 15.8 68.9 3.5 20.9-12.6 32.9-37.8 37.3-61C440.1 354.6 439.9 340.4 439.7 326.3z"/><path fill="#EF4754" d="M79,289.7c0.1,0.2,0.2,0.4,0.3,0.6c0.7-2.6,1.5-5.2,2.8-7.5C79.9,284.6,77.6,286.5,79,289.7z"/><path fill="#EF4754" d="M412.9,333.9c-7.4,5.7-15.5,11.8-24.7,12.8c-11.4,1.2-21.6-8.9-29.6-15.7c-4.3-3.7-8.5-7.4-12.8-11.1c-3.9-3.4-8.2-7.3-10.1-12.2c-4.2-10.9,1.2-22.7,2.8-33.5c0.3-2.4,1.8-3.7,3.6-4.2c1.1-2.7,4-4.6,7.2-2.7c12.6,7.5,27.3,3.8,41.1,4.2c5,0.2,8.8,2.2,11.7,5.8c-2.5-5.8-3.2-11.4,0.8-17.5c1.9-2.8,4.3-5.2,5.7-8.3c0.7-1.5,1.2-5-2.1-3.8c-4.7,1.7-6.7,8.9-8.7,13c-1,2.1-3.6,3.5-6,3c-8.5-2-17.3-2.1-25.7-4.2c-4.2-1.1-8.2-2.7-12.2-4.3c-2-0.8-4.2-1.6-5.8-3c-3.6-3.2-3.1-7.4-2.1-11.6c1.7-7.2,4.1-14.5,8-20.7c2.4-3.7,6.1-6.9,8.9-10.4c1.6-2.1,3.1-4.4,4.8-6.4c2.8-3.2,7.2-6.4,9.4-10.1c-0.4-0.6-0.8-1.2-1.4-1.7c-0.7-0.7-1.5-1.2-2.3-1.7c-0.8,0.5-1.7,1-2.4,1.6c-4.7,3.9-7.3,10-10.9,14.8c-1.6,2.1-4.3,2.1-6.6,1.3c-7.6-2.7-12.3-10.1-16.3-16.6c-2-3.3-8.6-16.2-14.2-13.7c-5.2,2.2-1.7,6.1,0.8,8.8c2.6,2.9,5.1,6.2,7.9,8.8c5.5,5.1,14.9,10.4,14.8,19c0,4.2-1.7,8.1-3.4,12c-1.7,3.8-2.9,7.9-5.2,11.3c-4.8,7.1-13.4,8.7-21.4,7c-3.1-0.6-17-4.7-25-9.8c-1.4,0.3-2.9-0.1-4.2-1.6c-7.3-7.9-14.6-15.8-21.8-23.7c-2.5-4-4.9-8.1-6.7-12.5c0.3-0.2,0.6-0.4,1-0.6c0.1-1.8,0.2-3.6,0.2-5.4c-5.2,3.9-13.7,2.2-19.8-0.7c-2.2,5.5-6,10.2-10.3,14.3c-12.6,12-26.2,22.6-40.8,31.9c-0.8,0.5-1.7,0.8-2.5,0.9c-9.3,5.5-19.4,9.8-30.2,11.1c-1.8,0.2-4.1-0.8-5-2.4c-7.6-13.4-13.5-29.4-13.1-45c0.2-6.8,2-13.5,6.4-18.9c3-3.8,6.6-7.2,9.2-11.3c0.9-1.5,2.8-3.9,2.6-5.8c-0.1-0.6-2.1-2.1-3-1.7c-4.7,1.8-7.9,8.4-11.5,11.8c-2.4,2.2-5.1,4.1-8.3,4.9c-3.9,1.1-7.8-0.3-11.6-1.2c-4.1-1-6.5-1.6-8.7,2.4c-0.6,1.1-1.1,2.1-1.6,3.2c4.8,0.9,9.7,1.4,13.2,5.4c4.3,4.9,5.1,12.6,6.4,18.7c3.2,14.4,9,28.5,13.7,42.6c0.9,2.8-0.3,5-2.2,6.2c-0.6,1.7-2.1,3-4.6,3.1c-12.9,0.1-25.4,2.9-38,5c-2.5,0.4-4.8-1.5-5.6-3.7c-1.6-4.1-2.6-8.3-4-12.5c-0.7-2.1-1.4-4.5-2.8-6.3c-0.7-1-2.2-1.3-1.5-2.2c-4.6,5.5,1.1,14.7,2.7,20.3c1.9,6.7,0.9,13-3,18.2c6.5-4.1,13.5-2.1,20.7-3c5.6-0.7,11.2-1.3,16.7-2.2c3.6-0.6,11.2-1.6,13.3-3.7c4.7-5.1,12.7,1.7,8.6,6.9c0.1,0.5,0.1,1.1,0,1.8c-1,6.6-5.5,12.4-9.6,17.4c-4.4,5.5-9.4,10.7-13.5,16.4c-11.2,15.5-20.3,32.3-30.4,48.5c-1.6,2.6-4.4,3.8-7.4,2.5c-4.8-2.2-9.3-5.3-14.1-7.7v8.8c4.2-0.4,8.3-1,12.6-0.4c0.2,0,0.3,0.1,0.5,0.1c2.6,0,5,1.5,4.9,4.9c-0.1,8.8-2.8,17.9-1.4,26.6c0.1,0.8,0.2,1.6,0.7,2.3c0.1,0,0.2,0.1,0.4,0.2c1.5,0.5,3.1,0.8,4.7,1.4c1.4,0.5,2.8,1,4.2,1.6c-1.9-7.3-4.8-14.4-4.4-22.2c0.1-1.2,0.5-2.2,1-3.1c0-0.1,0-0.3,0.1-0.4c2.7-14.9,12.5-27,20.5-39.4c2-3.1,5.5-4.1,8.6-1.7c11.1,8.8,14.8,23.6,24.2,33.7c0.4-0.7,0.8-1.3,1.1-2c1.6-3.1-0.2-7.4-2.5-10.5c-5.3-7-7.4-15.6-12.9-22.5c-2.1-2.7-4.6-6-4-9.6c0.5-3.2,2.8-6,4.6-8.6c4.1-5.8,9.9-12.5,11.4-19.4c0.7-3.2,3.3-4.4,5.9-4.2c2.8-0.3,5.8,1.2,6,4.9c0.4,7.8,6.9,13.6,9.7,20.6c3.7,9.2,7.3,18.4,11.3,27.4c6.9,15.7,13,32.8,25.1,45.3c2.9,3,2.2,7.7-1.8,9.3c-11.6,4.8-24.4,8.4-35.1,15.1c0.8,1,1.7,1.9,2.5,2.2c1.1,0.4,3.9-1,4.9-1.3c5-1.8,9.8-4.2,14.7-6.4c4.3-1.9,8.5-4.1,12.5-6.4c3-1.8,6.4-3.6,8.9-6.1c-0.9-5.3,8.1-7.8,10.9-2.1c1,2,1.9,4.1,2.8,6.1c1.4-1.7,2.4-3.6,2.3-5.9c-0.2-3-1.3-5.7-2.9-8.2c-11.4,3.8-22-11.4-26.7-20.4c-4.5-8.7-7.5-18.2-11.5-27.2c-3.1-7.1-6.8-13.9-10.1-20.8c-5.9-12.1-13.6-28.2-10.8-42.1c1.5-7.2,6.1-12.2,13.2-14.5c8.5-2.8,19-1.4,26.5-6.7c1.8-1.3,3.6-1.3,5.1-0.5c8.5-10.3,21.1-16.4,28.8-27.5c2.1-3.1,6.8-2,8.7,0.6c4.9,6.4,12.8,10.1,19.4,14.5c2.1,1.4,4.1,2.7,6.2,4c1.2,0.7,2.3,1.4,3.5,2c0.2,0.1,0.5,0.2,0.7,0.4c1.8-0.1,3.6,0.6,4.8,2c0.3-0.7,0.5-1.3,0.8-2c2.5,1,5,2,7.4,3c0.9,0.4,1.8,0.9,2.7,1.3c0,0.1-0.1,0.3-0.1,0.4c-0.1,0.3-0.2,0.5-0.3,0.8c10.8,5.5,23.7,10.8,27.2,23.5c2.3,8.6,0.8,18.5,0.5,27.3c-0.3,9.5-0.1,19.1,1.4,28.5c1.2,7.3,3.1,14.5,4,21.8c0.6,4.9,0.8,10.4-3.2,13.8c1.7,0.6,3.1,1.8,3.8,3.3c1.1,0.5,2.1,1.4,2.8,2.7c4,8,7.2,16.2,9.1,24.8c1.4-0.5,2.8-0.9,4.3-1.2c-0.5-8.3-4.2-16.7-7.8-24c-1-2.1-0.6-3.9,0.6-5.1c-2.8-14.8-10.5-32.6-3.3-47.2c1.3-2.6,4.7-3.9,7.4-2.5c12.4,6.6,19.5,19,30.9,26.9c3,2,6.2,3.7,9.5,5.3c2.2,1.1,4.4,2.2,6.6,3c0.6,0.2,1.1,0.5,1.8,0.6c0.1,0,0.2,0,0.3,0.1c0.8-0.2,1.7-0.2,2.5-0.1c1.9-0.4,4.1,0.1,5.6,2c2.3,2.9,3.5,6.3,4.8,9.8c0.2,0.7,0.5,1.1,0.7,1.4c-0.9-3.7-2.8-7.1-3.1-10.9c-0.5-5.5,3.1-9.8,8.3-11.4c3.2-1,6.5-1.5,9.9-2c1.4-0.2,2.8-0.4,4.2-1C417.6,339,415.2,336.5,412.9,333.9z"/><path fill="#EF4754" d="M405.1,282.8c0.9,3.2,0.9,6.7,1.6,10.1c1-0.8,1.8-1.6,2.2-2.5C409.6,288.8,406.5,284.8,405.1,282.8z"/><path d="M450.4,309.9c-0.3-15.5,1-31.2-0.9-46.6c-1.6-13.5-5.7-26.5-11.3-38.8c-6-13.3-13.9-25.6-20.9-38.4c-7.3-13.4-14-27.1-21.1-40.6c-11.7-22-24.7-44.7-46-58.7c-8.7-5.7-19.5-8.8-29.8-6.8c-11.5,2.2-21,10.4-27.3,20c-23.6,36.1,3,79.8-3.2,119c-6.4-6.9-12.8-13.9-19.2-20.9c0,0,0,0,0,0c1-26.8,2.6-53.5,0.1-80.3c-1.2-13.5-3.4-27.1-6.3-40.3c-2.6-12.1-8.2-25.8-5-38.2c1.5-5.7-5.9-8.3-9.5-4.7c-7.1,7.1-13.9,11.9-24.3,12.1c-2.6,0.1-4.1,1.6-4.7,3.5c-1.3,1-2.3,2.5-2.4,4.4c-0.8,16.2,5.4,31.8,7.5,47.7c2.3,17.4,3.3,35.1,4.6,52.6c0.6,8.4,1.8,17.5,0.7,25.8c-0.8,6.5-5.2,11.4-9.7,15.8c-9.7,9.5-20.5,17.9-31.8,25.5c-4-13.2-4.1-26.2,0.5-39.3c4.1-11.8,9.9-22.9,13.3-35.1c3-10.8,3.8-22.8-1.2-33.2c-4.1-8.5-12-15.4-20.2-19.8c-29.8-16.1-59.6,13.2-76.7,34.6c-19.9,24.9-36.1,53.9-48.1,83.4c-4.8,11.7-8.5,23.7-10.7,36.2c-2.6,14.5-3.4,29.3-4.2,44c-1.7,29.2-7.2,59.7-1.1,88.7c9.1,43.3,46.2,70.3,87.6,79.7c38.1,8.7,85.1,2.9,113-26.8c21.5-23,17.3-55.4,8.1-82.8c-5-15-11.6-29.3-17.8-43.8c-6.2-14.3-11-28.5-14.8-43.6c-0.3-1.3-1-2.3-1.8-2.9c7.3-9.4,18-15.3,25.9-24c6.3,5.8,14.3,10,21.4,14.7c3.1,2,6.3,4.2,9.7,5.4c1.3,0.5,2.8,0.6,4.2,0.3c-3.4,9.2-6.5,18.6-8.6,28.2c-3.2,14.5-4.6,29.3-5.9,44c-1.9,22.7-0.2,45.4,11.3,65.5c11.3,19.7,31.3,31.1,51.6,39.7c21.7,9.2,46.9,15.2,70.1,8.3c23.2-6.9,38.8-30.2,47-51.7C452.3,365.6,450.9,337.7,450.4,309.9z M261.3,146.9c-2.4,0.8-3.6,3-3.8,5.5c-0.1,0.1-0.4,0.3-0.7,0.4c-1.3,0.4-2.9,0.3-4.3,0.3c-2.7,0-5.4-0.3-8.1-0.4c-0.2,0-0.5-0.1-0.8-0.1h-1c-0.4,0-0.7,0-1,0.1c-0.3-4.7-0.6-9.4-0.9-14.1c7.4,0,14.9-0.5,20.4-4.8C261.2,138.2,261.3,142.6,261.3,146.9z M242.1,163.5c0.4,0.1,0.8,0.1,1.3,0.1c3.9,0,9.4,1,14.3,0.2c1.2-0.2,2.4-0.5,3.4-0.9c-0.2,5.5-0.4,11-0.6,16.6c-2.4-1.2-5.5-1-7.1,1.8c-0.1,0-0.1,0-0.2,0c-1.1,0.1-2.1,0-3.2-0.1c-2-0.3-5.4-1.4-6.4-2.1c-0.4-0.3-0.7-0.5-1.1-0.7C242.8,173.4,242.4,168.4,242.1,163.5z M259.3,114.8c0.2,1.7,0.4,3.4,0.6,5c-1.5,0.2-2.9,1.1-3.8,2.9c-2.8,5.7-10.5,5.2-16.4,5c-0.5-5.4-1-10.7-1.6-16.1c0.6-0.2,1.3-0.5,1.9-0.9c3.1-2.3,7.6-2.7,11.2-3.9c2.4-0.8,4.6-2,6.5-3.6C258.3,107,258.8,110.9,259.3,114.8z M251.8,72.1c0.1,0.6,0.3,1.1,0.4,1.6c1.4,5.3,2.5,10.6,3.4,15.9c-1.5,0.2-2.8,1.2-3.6,3c-1.4,3.2-4.8,3.9-7.9,4.8c-2.5,0.7-5.1,1.4-7.5,2.5c-1-6.2-2.5-12.4-3.9-18.6c0,0,0,0,0,0C239.6,79.3,246.1,76.2,251.8,72.1z M230.6,70.5c-0.7-4.3-1.2-8.7-1.2-13c6.9-0.7,12.8-3.1,18.2-6.8c0.2,3.3,0.8,6.6,1.4,9.8c0,0-0.1,0.1-0.1,0.1C243.4,65,237.3,68.3,230.6,70.5z M216.7,299.8c4.1,10.2,8.6,20.2,12.9,30.3c8.4,19.8,16.9,40.8,17,62.6c0.2,44.5-50.1,61.5-87.1,61.3c-38.2-0.2-80.2-17.2-99.4-51.7c-14.4-25.9-10.8-57-8.5-85.3c2.4-29.8,1.8-60.6,11.6-89.2c10.3-29.8,26.6-59,45.2-84.3c14.5-19.8,42.4-54,70.3-38.1c7.5,4.3,14.2,11.5,15.8,20.2c2,10.4-1.8,21.3-5.4,30.9c-4.2,11.2-9.7,21.8-12.2,33.6c-2.6,12.4-1,25.1,2.9,37c0.1,0.3,0.2,0.5,0.3,0.7c-6.6,3.8-13.7,7-21.1,8.5c-3.3-6.5-5.8-13.3-7.7-20.3c-2.1-8-3.4-17.6,0.4-25.3c0.3-0.6,0.6-1.1,1-1.6c-0.1,0.2,0,0.1,0.3-0.4c0.7-0.9,1.5-1.8,2.3-2.7c2.1-2.4,4.1-4.8,6-7.3c4-5.3,7.2-11.2,5.6-18c-1.5-6.5-10.4-10.1-16.3-8.7c-6.9,1.7-10.9,8.7-15.4,13.6c-2.2,2.3-3.8,3.4-7,2.7c-4.6-0.9-8.8-2.6-13.6-1.9c-9.2,1.3-11.8,11.5-15.7,18.4c-1.4,2.4-0.2,6.3,2.5,7.4c2.8,1.1,5.6,1.8,8.5,2.3c2.4,0.4,6.1,0.3,7.3,2.8c2.6,5.7,3.2,12.4,4.8,18.4c2.8,11.2,7.1,22.3,10.9,33.3c-9.9,0.5-19.6,2.4-29.4,4.1c-2.7-8.7-4.6-19-13.6-22.8c-11.5-4.8-16.7,9.2-15.8,18.1c0.6,5.6,2.8,10.5,4.5,15.8c2,5.9-2.6,9.4-6.5,12.9c-9.9,9-1.6,19.5,3.2,28.4c1.6,3,6.7,3.3,8.7,0.6c2.2-3.1,3.5-6.3,4.7-9.9c0.9-3,1.4-7.4,4.6-8.8c3.1-1.4,8-0.1,11.4-0.2c2.4-0.1,4.8-0.6,7.1-0.9c6.2-0.7,12.4-1.6,18.6-2.9c0.4-0.1,0.8-0.2,1.3-0.3c-1.8,2.8-4.1,5.4-6,7.8c-4.3,5.3-9.1,10.3-12.9,16C102.9,321,94.1,336.1,85,351c-6.2-3.3-12.1-7.1-18.9-9.3c-3.7-1.2-6.5,2.6-6.5,5.8v23c0,3.1,3.1,5.1,5.9,5.1c3.9-0.1,7.9-1,11.8-1.2c-0.9,8.9-3.1,18.3,0,26.7c1.4,3.8,4.2,6.2,8.1,7.3c5.8,1.6,10.9,3.9,16.2,6.7c3.9,2,8.1-1.3,7.9-5.4c-0.4-10.4-6-19.8-6-30.2c0.4-0.6,0.8-1.4,0.9-2.3c2-11.3,9-21.1,15.5-30.6c9.1,10.3,12.8,25.2,24.5,33.7c2.9,2.1,6.7,1.6,8.6-1.7c3.4-6.2,7.8-11,6.4-18.6c-0.8-4.3-3.2-8.9-5.8-12.3c-3.2-4.3-5-9.6-7.3-14.4c-1.6-3.3-3.9-5.8-6-8.7c-0.1-0.2-0.2-0.3-0.2-0.4c0.1-0.2,0.2-0.4,0.3-0.6c0.9-1.6,2.1-3,3.1-4.5c2.1-3,4.4-6.1,6.4-9.4c1.5,2.8,3.3,5.6,4.9,8.3c5.3,8.9,8.3,19.8,12.4,29.4c6.5,15,12.6,30.6,22.7,43.5c-12.1,4.6-24.7,8.9-34.9,16.7c-3,2.3-3.1,6-0.6,8.7c4.7,5,7.9,11.2,15.8,10.2c6.4-0.8,12.6-4.1,18.4-6.8c5.3-2.5,10.5-4.9,15.7-7.8c3.1-1.7,6.7-3.6,9.8-5.9c0.6,1.3,1.2,2.6,1.8,4c1.5,3.2,5,4.8,8.3,2.7c6.2-4.1,11.4-9.7,12.1-17.4c0.7-7.6-3-14.5-7.6-20.2c-1.7-2.2-5.2-3.5-7.6-1.5c-7,5.7-16.1-14.7-18.1-19.7c-6-14.5-12.5-28.5-19.2-42.6c-4.7-9.8-10.8-22.3-9.6-33.5c0.7-6.3,6.4-7.6,11.9-8.6c7.4-1.2,14.9-1.6,21.4-5.4c-0.6,1.1-0.9,2.5-0.5,4.1C209.5,278.9,212.5,289.3,216.7,299.8z M82.1,282.8c-1.3,2.3-2.1,4.9-2.8,7.5c-0.1-0.2-0.2-0.4-0.3-0.6C77.6,286.5,79.9,284.6,82.1,282.8z M275.4,246.9c-0.2-0.1-0.5-0.2-0.7-0.4c-1.2-0.6-2.4-1.3-3.5-2c-2.1-1.3-4.2-2.6-6.2-4c-6.6-4.4-14.5-8.1-19.4-14.5c-1.9-2.5-6.5-3.6-8.7-0.6c-7.7,11.1-20.3,17.2-28.8,27.5c-1.5-0.7-3.3-0.7-5.1,0.5c-7.4,5.3-18,3.9-26.5,6.7c-7.1,2.3-11.7,7.3-13.2,14.5c-2.8,13.9,4.9,29.9,10.8,42.1c3.4,7,7,13.7,10.1,20.8c3.9,9,7,18.5,11.5,27.2c4.7,9,15.3,24.2,26.7,20.4c1.5,2.5,2.7,5.1,2.9,8.2c0.2,2.3-0.8,4.3-2.3,5.9c-0.9-2-1.8-4.1-2.8-6.1c-2.8-5.8-11.7-3.3-10.9,2.1c-2.5,2.6-5.9,4.4-8.9,6.1c-4.1,2.4-8.2,4.5-12.5,6.4c-4.9,2.2-9.6,4.5-14.7,6.4c-1,0.4-3.8,1.7-4.9,1.3c-0.8-0.3-1.7-1.2-2.5-2.2c10.7-6.8,23.5-10.4,35.1-15.1c4-1.6,4.8-6.3,1.8-9.3c-12.2-12.5-18.2-29.6-25.1-45.3c-4-9-7.6-18.2-11.3-27.4c-2.8-7-9.3-12.8-9.7-20.6c-0.2-3.7-3.2-5.2-6-4.9c-2.5-0.2-5.2,1.1-5.9,4.2c-1.5,6.9-7.4,13.7-11.4,19.4c-1.8,2.6-4,5.4-4.6,8.6c-0.6,3.6,1.8,7,4,9.6c5.5,6.9,7.6,15.5,12.9,22.5c2.3,3.1,4.1,7.4,2.5,10.5c-0.3,0.7-0.7,1.3-1.1,2c-9.4-10.1-13-24.9-24.2-33.7c-3-2.4-6.6-1.4-8.6,1.7c-8,12.4-17.8,24.5-20.5,39.4c0,0.1,0,0.3-0.1,0.4c-0.6,0.8-1,1.8-1,3.1c-0.4,7.8,2.5,14.9,4.4,22.2c-1.4-0.6-2.7-1.1-4.2-1.6c-1.5-0.5-3.1-0.8-4.7-1.4c-0.1-0.1-0.3-0.1-0.4-0.2c-0.4-0.7-0.5-1.6-0.7-2.3c-1.3-8.7,1.3-17.8,1.4-26.6c0.1-3.3-2.4-4.9-4.9-4.9c-0.2,0-0.3-0.1-0.5-0.1c-4.3-0.5-8.4,0-12.6,0.4v-8.8c4.7,2.5,9.2,5.5,14.1,7.7c2.9,1.3,5.7,0.1,7.4-2.5c10.1-16.2,19.2-33,30.4-48.5c4.1-5.7,9.1-10.9,13.5-16.4c4-5.1,8.5-10.9,9.6-17.4c0.1-0.6,0.1-1.2,0-1.8c4.2-5.2-3.9-12-8.6-6.9c-2,2.2-9.6,3.1-13.3,3.7c-5.6,0.9-11.2,1.5-16.7,2.2c-7.2,0.9-14.2-1-20.7,3c3.9-5.2,4.9-11.5,3-18.2c-1.6-5.6-7.2-14.8-2.7-20.3c-0.7,0.8,0.8,1.2,1.5,2.2c1.4,1.8,2.1,4.2,2.8,6.3c1.4,4.1,2.3,8.4,4,12.5c0.9,2.1,3.1,4.1,5.6,3.7c12.6-2.1,25.1-4.9,38-5c2.4,0,3.9-1.4,4.6-3.1c1.9-1.2,3.1-3.5,2.2-6.2c-4.7-14-10.5-28.1-13.7-42.6c-1.4-6.1-2.1-13.8-6.4-18.7c-3.5-4.1-8.4-4.6-13.2-5.4c0.5-1.1,1-2.2,1.6-3.2c2.1-4.1,4.6-3.4,8.7-2.4c3.8,1,7.7,2.3,11.6,1.2c3.2-0.9,5.9-2.7,8.3-4.9c3.6-3.4,6.8-10,11.5-11.8c0.9-0.3,2.9,1.1,3,1.7c0.2,1.9-1.6,4.3-2.6,5.8c-2.6,4.1-6.2,7.5-9.2,11.3c-4.3,5.4-6.2,12.1-6.4,18.9c-0.5,15.6,5.5,31.6,13.1,45c0.9,1.6,3.2,2.6,5,2.4c10.8-1.3,20.9-5.5,30.2-11.1c0.8-0.1,1.6-0.3,2.5-0.9c14.6-9.3,28.2-20,40.8-31.9c4.3-4.1,8.1-8.8,10.3-14.3c6.1,2.9,14.7,4.6,19.8,0.7c-0.1,1.8-0.2,3.6-0.2,5.4c-0.3,0.2-0.7,0.4-1,0.6c1.9,4.4,4.2,8.5,6.7,12.5c7.3,7.9,14.6,15.8,21.8,23.7c1.3,1.4,2.9,1.9,4.2,1.6c8,5.1,21.9,9.1,25,9.8c8,1.7,16.5,0.1,21.4-7c2.3-3.4,3.5-7.6,5.2-11.3c1.7-3.8,3.4-7.7,3.4-12c0.1-8.6-9.3-13.9-14.8-19c-2.8-2.7-5.3-6-7.9-8.8c-2.5-2.7-6-6.6-0.8-8.8c5.6-2.4,12.1,10.5,14.2,13.7c4.1,6.5,8.7,14,16.3,16.6c2.2,0.8,5,0.8,6.6-1.3c3.7-4.8,6.2-10.9,10.9-14.8c0.7-0.6,1.6-1.1,2.4-1.6c0.8,0.5,1.6,1.1,2.3,1.7c0.5,0.5,1,1.1,1.4,1.7c-2.2,3.7-6.6,6.9-9.4,10.1c-1.7,2-3.2,4.3-4.8,6.4c-2.8,3.5-6.5,6.6-8.9,10.4c-3.9,6.2-6.3,13.5-8,20.7c-1,4.3-1.5,8.4,2.1,11.6c1.6,1.4,3.8,2.2,5.8,3c4,1.6,8,3.2,12.2,4.3c8.4,2.1,17.3,2.2,25.7,4.2c2.4,0.6,4.9-0.8,6-3c2-4.1,4.1-11.3,8.7-13c3.3-1.2,2.8,2.3,2.1,3.8c-1.4,3.1-3.8,5.5-5.7,8.3c-4,6.1-3.3,11.8-0.8,17.5c-2.9-3.7-6.8-5.6-11.7-5.8c-13.8-0.5-28.5,3.3-41.1-4.2c-3.3-1.9-6.1,0-7.2,2.7c-1.8,0.4-3.3,1.8-3.6,4.2c-1.6,10.9-7,22.6-2.8,33.5c1.9,5,6.1,8.8,10.1,12.2c4.3,3.7,8.5,7.4,12.8,11.1c8,6.9,18.2,17,29.6,15.7c9.2-1,17.3-7.1,24.7-12.8c2.3,2.6,4.7,5,6.3,8.1c-1.3,0.6-2.8,0.8-4.2,1c-3.3,0.5-6.6,1-9.9,2c-5.2,1.6-8.8,5.9-8.3,11.4c0.3,3.8,2.2,7.2,3.1,10.9c-0.2-0.3-0.5-0.8-0.7-1.4c-1.3-3.4-2.5-6.9-4.8-9.8c-1.5-1.9-3.7-2.4-5.6-2c-0.8-0.1-1.7-0.1-2.5,0.1c-0.1,0-0.2,0-0.3-0.1c-0.6-0.1-1.1-0.4-1.8-0.6c-2.3-0.9-4.4-2-6.6-3c-3.2-1.6-6.5-3.3-9.5-5.3c-11.4-7.9-18.4-20.3-30.9-26.9c-2.7-1.4-6.1-0.2-7.4,2.5c-7.2,14.6,0.5,32.3,3.3,47.2c-1.2,1.2-1.6,3-0.6,5.1c3.6,7.3,7.2,15.7,7.8,24c-1.5,0.3-2.9,0.7-4.3,1.2c-1.8-8.6-5.1-16.8-9.1-24.8c-0.7-1.3-1.7-2.2-2.8-2.7c-0.7-1.5-2.1-2.8-3.8-3.3c4-3.4,3.8-8.9,3.2-13.8c-0.9-7.3-2.9-14.6-4-21.8c-1.5-9.4-1.7-19-1.4-28.5c0.3-8.7,1.8-18.7-0.5-27.3c-3.5-12.7-16.4-18-27.2-23.5c0.1-0.3,0.2-0.5,0.3-0.8c0.1-0.1,0.1-0.3,0.1-0.4c-0.9-0.4-1.8-0.9-2.7-1.3c-2.5-1-5-2-7.4-3c-0.3,0.7-0.5,1.3-0.8,2C279,247.5,277.1,246.9,275.4,246.9z M408.9,290.3c-0.4,0.9-1.2,1.8-2.2,2.5c-0.7-3.3-0.7-6.9-1.6-10.1C406.5,284.8,409.6,288.8,408.9,290.3z M437.5,368.5c-4.4,23.3-16.3,48.4-37.3,61c-20.4,12.3-48.5,4.8-68.9-3.5c-14.2-5.7-28.3-12.8-39.2-23.8c-10.2-10.3-16-24.2-18.4-38.3c-3-18-0.6-36.6,1.6-54.5c2-16.2,5.9-31.6,11.4-46.8c7.9,3.7,19,8,20.7,16.7c1.5,7.9,0.3,16.7,0,24.7c-0.3,8.3-0.2,16.6,0.9,24.8c0.8,6.2,1.7,12.6,3.2,18.7c0.6,2.3,1,4.5,1.4,6.8c0.2,1.2,0.3,2.4,0.3,3.6c0,0.7,0,1.1,0,1.2c-3,2.2-6.9,3.7-10.3,5.1c-3.1,1.3-7.2,3.2-10.3,3.4c-5.1,0.3-6.3,6.4-3.2,9.6c4.9,5.2,9.8,12,18,8.8c3.7-1.4,7.4-3.7,10.8-6.2c4,8.5,7.3,17.2,8.3,26.7c0.5,4.4,4.9,6,8.6,4.1c3.2-1.6,6.1-3.6,9.9-3.2c2.7,0.3,6.2-1.2,6.4-4.3c0.8-11.2-2.6-22.1-7.4-32.2c0.5-0.9,0.7-2,0.5-3.3c-1.3-7.2-3.3-14.3-4.7-21.5c-0.9-4.4-1.9-9.6-1.5-14.5c9.8,7.5,16.9,18.5,27.8,24.8c4.5,2.6,14.3,9.2,21.2,8.5c3.1,6.1,3.9,13.9,12.8,13.5c5.4-0.2,11.6-4.4,11.4-10c-0.1-4.5-2.2-8.7-3.5-12.9c2.5-1.1,5.3-1.4,8-1.8c4.9-0.7,10.7-1.9,13.3-6.6c5.3-9.4-6.6-17.1-10.6-24.3c-1.4-2.5-5.4-3.2-7.6-1.5c-7,5.3-13.9,11.3-22.4,13.9c-4,1.2-7-1-10.3-3.1c-4.4-2.8-8.4-6.3-12.3-9.7c-6.4-5.4-14.5-10.9-19.2-17.9c-2.5-3.6-1.3-9.3-0.6-13.3c0.8-4.1,1.9-8.2,2.7-12.3c11,4.7,23.1,3.5,35,3.4c4.8-0.1,9.5-1.7,10.6,4.2c1.1,6.2,1.6,11.8,4.9,17.4c1.5,2.5,5.3,3.1,7.6,1.5c7.7-5.3,16.2-11.3,11.4-21.7c-2.3-4.9-7.1-9.6-7.5-15.3c-0.2-1.9,2-4,3.1-5.4c1.7-2.2,3.3-4.6,4.6-7.1c5.2-10-1.9-20.6-13.3-19.6c-7.9,0.7-12.2,8.4-15.4,15.2c-7.2-1.3-14.5-1.8-21.6-3.4c-3.7-0.8-7.1-2.4-10.5-3.8c-0.3-0.1-0.8-0.3-1.4-0.6c1.1-6.5,3.4-15,7.9-19.7c5.1-5.2,8.9-11.5,13.8-16.8c3.3-3.5,8-7.1,9.7-11.8c2.4-6.4-3.3-12.7-8.4-15.8c-2.3-1.4-3.6-2.8-6.5-2.8c-2.6,0-6,3-8,4.4c-4.6,3.3-7.4,8.3-10.5,13c-3.7-3-6.2-7.7-8.6-11.6c-3.9-6.2-8-12.5-14.6-16c-8-4.2-17.4-0.3-21,7.8c-3.8,8.7,4,15.9,9.3,21.7c2.5,2.7,4.7,5.6,7.6,8c2.8,2.3,6.9,4.8,8.4,8.3c1,2.3-1.7,6.4-2.6,8.4c-1.4,3.2-2.3,7-4.5,9.7c-3.8,4.7-13.5,1-18-0.8c-3-1.2-5.9-2.4-8.8-3.7c-0.6-0.3-1.2-0.6-1.9-0.9c5.1-21.8-0.4-44.6-3.4-66.3c-3-21.7-4.2-45.3,12.8-61.7c20.9-20.2,46.7,4.8,59,22c17.5,24.5,29.1,52.7,43.8,78.9c7.1,12.7,14.6,24.9,19.8,38.5c5,13,7.6,26.7,7.8,40.7c0.3,16.1,0,32.3,0.2,48.5C439.9,340.4,440.1,354.6,437.5,368.5z"/></svg>