<svg xmlns="http://www.w3.org/2000/svg" viewBox="0 0 40 40"><path fill="#b6dcfe" stroke="#4788c7" stroke-miterlimit="2" d="M32 1.5A5.5 5.5 0 1 0 32 12.5A5.5 5.5 0 1 0 32 1.5Z"/><path fill="#b6dcfe" stroke="#4788c7" stroke-miterlimit="2" d="M24.121,12.514L30.516,6c0.697-0.71,1.827-0.71,2.524,0l0,0c0.697,0.71,0.697,1.861,0,2.571l-6.799,6.925"/><path fill="#b6dcfe" d="M19.617,9.479c-1.781,0-3.44,0.507-4.865,1.372c-1.337-0.865-2.921-1.372-4.625-1.372C5.362,9.479,1.5,13.167,1.5,18c0,14.448,13.803,21,13.803,21S29,31.524,29,18.875C29,13.559,24.858,9.479,19.617,9.479z"/><path fill="#dff0fe" d="M14.52,10.787l-1.007,1.614c0,0-1.981,5.214-1.681,12.891c0.3,7.677,3.767,13.791,3.767,13.791S25.432,32.531,27.952,26s1.818-11.479-1.063-14S18.062,8.438,14.52,10.787z"/><path fill="none" stroke="#4788c7" stroke-miterlimit="2" d="M19.617,9.479c-1.781,0-3.44,0.507-4.865,1.372c-1.337-0.865-2.921-1.372-4.625-1.372C5.362,9.479,1.5,13.167,1.5,18c0,14.448,13.803,21,13.803,21S29.5,31.524,29.5,18.875C29.5,13.559,24.858,9.479,19.617,9.479z"/><path fill="none" stroke="#4788c7" stroke-linecap="round" stroke-linejoin="round" stroke-miterlimit="10" d="M5.5,20.5c2.438-4.756,6.869-5,6.869-5h0.756c0,0,7.604-0.402,11.375,6"/><path fill="none" stroke="#4788c7" stroke-linecap="round" stroke-miterlimit="2" d="M11.5,27.604c0,0,4.102,0.87,5,3.896"/><path fill="none" stroke="#4788c7" stroke-miterlimit="2" d="M15.333,38.958c0,0-3.833-5.879-3.833-14.626s3.078-13.551,3.078-13.551"/><path fill="none" stroke="#4788c7" stroke-linecap="round" stroke-linejoin="round" stroke-miterlimit="10" d="M7.5 25.5c1.163-4.385 4.849-4.262 4.849-4.262l0 0c0 0 6.693 0 9.151 6.262M11.5 27.604c0 0-1.515.593-2 2.896"/></svg>