<?xml version="1.0"?><svg xmlns="http://www.w3.org/2000/svg" viewBox="0 0 128 128">    <path d="M 104 1 C 102.3 1 101 2.3 101 4 L 101 11 L 14 11 C 6.8 11 1 16.8 1 24 L 1 64 C 1 65.7 2.3 67 4 67 L 11 67 L 11 80 C 11 81.7 12.3 83 14 83 C 15.7 83 17 81.7 17 80 L 17 67 L 24 67 C 25.1 67 26.199219 66.400781 26.699219 65.300781 L 35.900391 47 L 81 47 L 81 87 L 4 87 C 2.3 87 1 88.3 1 90 L 1 97 C 1 104.2 6.8 110 14 110 L 51 110 L 54.900391 114.09961 C 55.500391 114.69961 56.299609 115 57.099609 115 L 86 115 L 86.099609 115 L 124.09961 115 C 125.79961 115 127.09961 113.7 127.09961 112 L 127.09961 24 C 126.99961 16.8 121.2 11 114 11 L 107 11 L 107 4 C 107 2.3 105.7 1 104 1 z M 14 17 L 114 17 C 117.9 17 121 20.1 121 24 L 121 109 L 86.099609 109 L 86 109 L 58.300781 109 L 54.400391 104.90039 C 53.800391 104.30039 52.999219 104 52.199219 104 L 14 104 C 10.1 104 7 100.9 7 97 L 7 93 L 84 93 C 85.7 93 87 91.7 87 90 L 87 44 C 87 43.2 86.699609 42.400391 86.099609 41.900391 C 85.599609 41.300391 84.8 41 84 41 L 34 41 C 32.9 41 31.800781 41.599219 31.300781 42.699219 L 22.099609 61 L 7 61 L 7 24 C 7 20.1 10.1 17 14 17 z M 104 41 C 98.5 41 94 45.5 94 51 C 94 56.5 98.5 61 104 61 C 109.5 61 114 56.5 114 51 C 114 45.5 109.5 41 104 41 z M 104 47 C 106.2 47 108 48.8 108 51 C 108 53.2 106.2 55 104 55 C 101.8 55 100 53.2 100 51 C 100 48.8 101.8 47 104 47 z M 104 73 C 98.5 73 94 77.5 94 83 C 94 88.5 98.5 93 104 93 C 109.5 93 114 88.5 114 83 C 114 77.5 109.5 73 104 73 z M 104 79 C 106.2 79 108 80.8 108 83 C 108 85.2 106.2 87 104 87 C 101.8 87 100 85.2 100 83 C 100 80.8 101.8 79 104 79 z M 4 121 C 2.3 121 1 122.3 1 124 C 1 125.7 2.3 127 4 127 L 124 127 C 125.7 127 127 125.7 127 124 C 127 122.3 125.7 121 124 121 L 4 121 z"/></svg>