<?xml version="1.0"?><svg xmlns="http://www.w3.org/2000/svg" viewBox="0 0 128 128">    <path d="M 96.699219 11.5 C 94.099219 11.5 91.600781 12 89.300781 13 L 89.199219 13 L 39.800781 34.599609 C 38.300781 35.299609 37.600781 36.999609 38.300781 38.599609 C 38.800781 39.699609 39.899609 40.400391 41.099609 40.400391 C 41.499609 40.400391 41.900781 40.299609 42.300781 40.099609 L 78.699219 24.199219 C 77.899219 26.299219 77.5 28.6 77.5 31 C 77.5 41.8 86.200781 50.5 96.800781 50.5 C 107.40078 50.5 116 41.8 116 31 C 116 20.2 107.29922 11.5 96.699219 11.5 z M 96.699219 17.5 C 103.99922 17.5 110 23.6 110 31 C 110 38.4 103.99922 44.5 96.699219 44.5 C 89.399219 44.5 83.400391 38.4 83.400391 31 C 83.400391 23.6 89.399219 17.5 96.699219 17.5 z M 96.599609 26.900391 A 4.0999999 4.0999999 0 0 0 92.5 31 A 4.0999999 4.0999999 0 0 0 96.599609 35.099609 A 4.0999999 4.0999999 0 0 0 100.69922 31 A 4.0999999 4.0999999 0 0 0 96.599609 26.900391 z M 27.300781 42 C 18.900781 42 12 48.900391 12 57.400391 C 12 61.200391 13.399219 64.700391 15.699219 67.400391 C 15.799219 67.500391 15.800391 67.599609 15.900391 67.599609 L 35.099609 88 C 35.699609 88.6 36.500781 88.900391 37.300781 88.900391 C 38.000781 88.900391 38.800391 88.599609 39.400391 88.099609 C 40.600391 86.999609 40.7 85.100391 39.5 83.900391 L 28.900391 72.699219 C 36.500391 71.899219 42.5 65.300391 42.5 57.400391 C 42.5 48.900391 35.700781 42 27.300781 42 z M 27.300781 48 C 32.400781 48 36.5 52.200391 36.5 57.400391 C 36.5 62.600391 32.400781 66.800781 27.300781 66.800781 C 24.800781 66.800781 22.500781 65.799609 20.800781 64.099609 L 20.599609 63.900391 C 18.999609 62.200391 18 59.900391 18 57.400391 C 18 52.200391 22.200781 48 27.300781 48 z M 108.80273 50.984375 C 107.42188 51.082812 106.175 52.1 106 53.5 L 103.5 70 C 98.3 59.7 87.600391 52.699219 75.400391 52.699219 C 58.000391 52.799219 43.900391 66.999609 43.900391 84.599609 C 43.900391 102.19961 58.1 116.5 75.5 116.5 C 90.7 116.5 103.50039 105.50078 106.40039 90.800781 L 106.40039 90.599609 C 106.50039 89.899609 106.69922 89.100391 106.69922 88.400391 L 111.90039 54.400391 C 112.20039 52.800391 111.00039 51.2 109.40039 51 C 109.20039 50.975 109 50.970312 108.80273 50.984375 z M 27.300781 54.400391 A 3 3 0 0 0 24.300781 57.400391 A 3 3 0 0 0 27.300781 60.400391 A 3 3 0 0 0 30.300781 57.400391 A 3 3 0 0 0 27.300781 54.400391 z M 75.400391 58.699219 C 89.500391 58.699219 101 70.399609 101 84.599609 C 101 85.599609 100.90078 86.6 100.80078 87.5 L 100.5 89.699219 C 98.2 101.49922 87.800391 110.5 75.400391 110.5 C 61.300391 110.5 49.800781 98.899609 49.800781 84.599609 C 49.800781 70.299609 61.300391 58.699219 75.400391 58.699219 z M 75.599609 65.199219 C 73.899609 65.199219 72.599609 66.499219 72.599609 68.199219 L 72.599609 73.900391 C 71.699609 74.100391 70.899609 74.500391 70.099609 74.900391 L 66.199219 70.900391 C 64.999219 69.700391 63.1 69.700391 62 70.900391 C 60.8 72.100391 60.8 73.999609 62 75.099609 L 66 79.099609 C 65.6 79.899609 65.2 80.699609 65 81.599609 L 59.400391 81.599609 C 57.700391 81.599609 56.400391 82.899609 56.400391 84.599609 C 56.400391 86.299609 57.700391 87.599609 59.400391 87.599609 L 65 87.599609 C 65.2 88.499609 65.6 89.299609 66 90.099609 L 62 94.099609 C 60.8 95.299609 60.8 97.200781 62 98.300781 C 62.6 98.900781 63.299609 99.199219 64.099609 99.199219 C 64.899609 99.199219 65.599219 98.900781 66.199219 98.300781 L 70.099609 94.300781 C 70.899609 94.700781 71.699609 95.100781 72.599609 95.300781 L 72.599609 101 C 72.599609 102.7 73.899609 104 75.599609 104 C 77.299609 104 78.599609 102.7 78.599609 101 L 78.599609 95.300781 C 79.499609 95.100781 80.299609 94.700781 81.099609 94.300781 L 85 98.300781 C 85.6 98.900781 86.399609 99.199219 87.099609 99.199219 C 87.899609 99.199219 88.599219 98.900781 89.199219 98.300781 C 90.399219 97.100781 90.399219 95.199609 89.199219 94.099609 L 85.199219 90.099609 C 85.599219 89.299609 85.999219 88.499609 86.199219 87.599609 L 91.800781 87.599609 C 93.500781 87.599609 94.800781 86.299609 94.800781 84.599609 C 94.800781 82.899609 93.500781 81.599609 91.800781 81.599609 L 86.199219 81.599609 C 85.999219 80.699609 85.599219 79.899609 85.199219 79.099609 L 89.199219 75.099609 C 90.399219 73.899609 90.399219 72.000391 89.199219 70.900391 C 87.999219 69.700391 86.1 69.700391 85 70.900391 L 81.099609 74.900391 C 80.299609 74.500391 79.499609 74.100391 78.599609 73.900391 L 78.599609 68.199219 C 78.599609 66.499219 77.299609 65.199219 75.599609 65.199219 z M 75.400391 79.5 C 78.200391 79.5 80.599609 81.899219 80.599609 84.699219 C 80.599609 87.499219 78.300391 89.900391 75.400391 89.900391 C 72.600391 89.900391 70.199219 87.499219 70.199219 84.699219 C 70.199219 81.899219 72.500391 79.5 75.400391 79.5 z"/></svg>