<svg xmlns="http://www.w3.org/2000/svg" viewBox="0 0 26 26"><path d="M 11 11 C 9.921875 11 9.285156 12 8 14 L 14 14 C 12.714844 12 12.078125 11 11 11 Z M 0.96875 14 C 0.796875 14.003906 0.652344 14.035156 0.5 14.125 C 0.195313 14.304688 0 14.644531 0 15 C 0 20.363281 4.828125 22.097656 6.90625 22.59375 C 6.949219 22.605469 7.191406 22.671875 7.40625 22.71875 C 7.871094 23.09375 8.382813 23.375 8.9375 23.59375 C 7.773438 24.167969 7 25.148438 7 26 L 15 26 C 15 25.203125 14.324219 24.300781 13.28125 23.71875 C 15.871094 22.96875 16.3125 20.824219 21 19.09375 C 25.480469 17.4375 26 15 26 15 L 23.96875 15 C 23.097656 16.644531 20.335938 17.125 19.15625 17.125 C 16.277344 17.125 15.285156 15 14.125 15 L 8.15625 15 C 7.175781 15.261719 6 16 6 16 C 5.316406 16 3.109375 15.027344 1.46875 14.125 C 1.3125 14.039063 1.140625 13.996094 0.96875 14 Z M 2.28125 16.78125 C 3.144531 17.191406 4.148438 17.621094 5 17.84375 C 5.027344 18.597656 5.1875 19.304688 5.4375 19.96875 C 4.140625 19.367188 2.839844 18.402344 2.28125 16.78125 Z"/></svg>