<svg xmlns="http://www.w3.org/2000/svg" viewBox="0 0 24 24"><path d="M 12.09375 0 C 11.96875 0.0117188 11.835938 0.0429688 11.6875 0.09375 C 11.488281 -0.0078125 11.105469 -0.0078125 10.90625 0.09375 C 10.804688 0.09375 10.507813 0.292969 10.40625 0.59375 C 10.105469 0.695313 9.886719 0.707031 9.6875 0.90625 C 9.585938 1.105469 9.5 1.5 9.5 1.5 C 9.5 1.5 9.011719 1.6875 8.8125 2.1875 C 8.710938 2.488281 8.8125 3 8.8125 3 C 8.8125 3 8.5 3.300781 8.5 3.5 C 8.398438 3.601563 8.5 4 8.5 4 C 8.5 4 8.40625 4.105469 8.40625 4.40625 C 8.40625 4.605469 8.6875 4.90625 8.6875 4.90625 C 8.6875 4.90625 8.585938 5.207031 8.6875 5.40625 C 8.6875 5.707031 9 5.8125 9 5.8125 C 9 5.8125 8.707031 6.414063 9.40625 6.8125 C 9.40625 7.3125 9.707031 7.59375 9.90625 7.59375 C 9.804688 7.992188 10.011719 8.398438 10.3125 8.5 C 10.3125 9.101563 9.894531 9.398438 9.59375 9.5 C 9.292969 9.699219 4 10.488281 4 11.6875 C 6.601563 13.886719 7 17.09375 7 17.09375 L 17.1875 17.09375 C 17.1875 17.09375 17.085938 14.386719 20.1875 11.6875 C 20.1875 10.789063 14.699219 9.601563 14.5 9.5 C 14.199219 9.300781 13.90625 9.085938 13.90625 8.6875 C 14.105469 8.488281 14.289063 8.3125 14.1875 7.8125 C 14.289063 7.8125 14.613281 7.710938 14.8125 7.3125 C 14.914063 7.113281 14.90625 6.789063 14.90625 6.6875 C 14.90625 6.585938 15.085938 6.386719 15.1875 6.1875 C 15.1875 5.988281 15.085938 5.695313 15.1875 5.59375 C 15.289063 5.492188 15.398438 5.398438 15.5 5 C 15.601563 4.601563 15.5 4.09375 15.5 4.09375 C 15.5 4.09375 15.59375 3.585938 15.59375 3.1875 C 15.492188 2.789063 15.195313 2.511719 15.09375 2.3125 C 15.09375 2.113281 15.105469 1.800781 14.90625 1.5 C 14.707031 1.199219 14.3125 1.1875 14.3125 1.1875 C 14.3125 1.1875 14.210938 0.800781 13.8125 0.5 C 13.414063 0.199219 12.90625 0.3125 12.90625 0.3125 C 12.90625 0.3125 12.800781 0.101563 12.5 0 C 12.351563 0 12.21875 -0.0117188 12.09375 0 Z M 8 18 C 8.398438 18.601563 8.300781 20.5 8 21 L 16 21 C 15.601563 20.398438 15.699219 18.5 16 18 Z M 6 22 L 6 24 L 18 24 L 18 22 Z"/></svg>