<svg xmlns="http://www.w3.org/2000/svg" viewBox="0 0 64 64"><linearGradient id="E8rnFo_CLTEwpq9Pb51yBa" x1="24.999" x2="24.999" y1="29.75" y2="36.666" gradientUnits="userSpaceOnUse" spreadMethod="reflect"><stop offset="0" stop-color="#6dc7ff"/><stop offset="1" stop-color="#e6abff"/></linearGradient><path fill="url(#E8rnFo_CLTEwpq9Pb51yBa)" d="M24.999 30A3 3 0 1 0 24.999 36A3 3 0 1 0 24.999 30Z"/><linearGradient id="E8rnFo_CLTEwpq9Pb51yBb" x1="38.999" x2="38.999" y1="29.75" y2="36.666" gradientUnits="userSpaceOnUse" spreadMethod="reflect"><stop offset="0" stop-color="#6dc7ff"/><stop offset="1" stop-color="#e6abff"/></linearGradient><path fill="url(#E8rnFo_CLTEwpq9Pb51yBb)" d="M38.999 30A3 3 0 1 0 38.999 36A3 3 0 1 0 38.999 30Z"/><linearGradient id="E8rnFo_CLTEwpq9Pb51yBc" x1="31.999" x2="31.999" y1="5.333" y2="59.564" gradientUnits="userSpaceOnUse" spreadMethod="reflect"><stop offset="0" stop-color="#1a6dff"/><stop offset="1" stop-color="#c822ff"/></linearGradient><path fill="url(#E8rnFo_CLTEwpq9Pb51yBc)" d="M20.999,33c0,2.206,1.794,4,4,4s4-1.794,4-4c0-1.858-1.279-3.41-2.999-3.858V20h12v9.142 c-1.721,0.447-3.001,2-3.001,3.858c0,2.206,1.794,4,4,4s4-1.794,4-4c0-1.858-1.279-3.41-2.999-3.858V11c0-2.757-2.243-5-5.001-5h-6 C26.242,6,24,8.243,24,11v3.99L23.999,15H24v14.142C22.279,29.588,20.999,31.141,20.999,33z M26.999,33c0,1.103-0.897,2-2,2 s-2-0.897-2-2s0.897-2,2-2S26.999,31.897,26.999,33z M26,18v-3.01c0.005-1.649,1.348-2.99,2.999-2.99h6c1.654,0,3,1.346,3,3H38v3H26 z M40.999,33c0,1.103-0.897,2-2,2s-2-0.897-2-2s0.897-2,2-2S40.999,31.897,40.999,33z M28.999,8h6C36.653,8,38,9.346,38,11v0.026 C37.162,10.392,36.129,10,34.999,10h-6c-1.129,0-2.161,0.391-2.999,1.025V11C26,9.346,27.346,8,28.999,8z"/><linearGradient id="E8rnFo_CLTEwpq9Pb51yBd" x1="32" x2="32" y1="5.333" y2="59.564" gradientUnits="userSpaceOnUse" spreadMethod="reflect"><stop offset="0" stop-color="#1a6dff"/><stop offset="1" stop-color="#c822ff"/></linearGradient><path fill="url(#E8rnFo_CLTEwpq9Pb51yBd)" d="M50.999,22H50v-6h-0.001c0-2.206-1.794-4-4-4H42v2h3.999c1.103,0,2,0.897,2,2s-0.897,2-2,2H42 v2h3.999c0.732,0,1.41-0.212,2.001-0.557V45c0,0.552-0.449,1-1.001,1h-30C16.448,46,16,45.552,16,45V19.444 C16.59,19.789,17.268,20,17.999,20H22v-2h-4.001C16.9,18,16.005,17.107,16,16.01V16h-0.001c0-1.103,0.897-2,2-2H22v-2h-4.001 C15.793,12,14,13.794,14,16v0.01V22h-1.001C11.346,22,10,23.346,10,25v22c0,2.757,2.242,5,4.999,5H24c0,0,0.643,0.135,0.83,0.36 l3.203,3.84c0.953,1.144,2.398,1.8,3.965,1.8c0,0,0,0,0.001,0c1.566,0,3.012-0.656,3.967-1.8l3.2-3.84 C39.354,52.135,39.665,52,40,52l-0.004-2c-0.932,0-1.794,0.394-2.366,1.079l-3.2,3.84C33.856,55.606,32.97,56,31.999,56 c-0.001,0-0.001,0-0.001,0c-0.971,0-1.857-0.394-2.429-1.081l-3.203-3.84C25.795,50.394,25,50,24,50h-9.001 C13.346,50,12,48.654,12,47V25c0-0.552,0.448-1,0.999-1H14v21c0,1.654,1.346,3,2.999,3h30C48.653,48,50,46.654,50,45V24h0.999 C51.551,24,52,24.448,52,25v22c0,1.654-1.347,3-3.001,3H40v2h8.999C51.757,52,54,49.757,54,47V25C54,23.346,52.653,22,50.999,22z"/><linearGradient id="E8rnFo_CLTEwpq9Pb51yBe" x1="32" x2="32" y1="5.333" y2="59.564" gradientUnits="userSpaceOnUse" spreadMethod="reflect"><stop offset="0" stop-color="#1a6dff"/><stop offset="1" stop-color="#c822ff"/></linearGradient><path fill="url(#E8rnFo_CLTEwpq9Pb51yBe)" d="M21 42H43V44H21z"/></svg>