<svg xmlns="http://www.w3.org/2000/svg" width="512" height="512" viewBox="0 0 512 512"><path fill="#D6E5E5" d="M373.9 364.8c-12.9-1.2-25.4-5.5-37.1-10.9-12.1-5.7-23.7-12.5-36.5-16.5-6.1-1.9-12.2-3.6-18.6-3.3-3.2.2-6.3.4-9.3 1.4 3.7 1 7.3 2.8 9.7 4.1 11.8 6.5 21.4 16.4 33.8 21.7 17.4 7.5 37.4 10.9 56 5.9 2.5-.7 4.9-1.4 7.4-2.1C377.5 365.1 375.7 364.9 373.9 364.8zM210.8 114.1c-.3-2.8-.6-5.8-1.7-8.5-1.7 1.1-3.5.9-4.9.2-7 1.3-14.4.5-21.4 1.4-7.4.9-14.9.9-22.4 1.8-6.1.7-12.2 1.4-18.3 1.8-20.7 1.5-44.4 1.4-63.2 11.5-3 8.1-3.1 17.1-1.7 25.6 1.6 9.6 3.3 19.2 5 28.8 1.8 10 4.7 19.1 9.1 28.3 3 6.2 5.8 13.3 10.9 18.2 16.6 15.8 39.1 7 58.9 4.6 8.4-1 16.5-1.5 24.5-4.7 7.9-3.2 14.4-8.2 19.8-14.7.5-.7 1.1-1.1 1.8-1.4 1.1-4.6 1.1-9.7 1.3-14.3.2-6.8 1-13.5 1.6-20.3 1.1-12 .7-23.9 1.1-35.9C211.5 129 211.6 121.5 210.8 114.1z"/><path fill="#F6851F" d="M77.8,403.9c-1.7-10.8-4.7-21.4-6.8-32.2c-2-10.7-3.6-21.5-5-32.3c-3-22.7-5.4-45.3-6.8-68.1c-1.4-22.1-2.5-44.3-4.4-66.4c-0.1-1,0.1-1.9,0.4-2.7c-2.3-9.8-3.8-19.8-5.7-29.6c-0.9-4.6-1.4-10.6-5.2-13.9c-1.7-1.5-3.7-2.5-5.8-3.2c0.2,2.5,0.8,5.1,1.1,7.2c0.6,5.4,1.2,10.9,1.7,16.4c1.1,12.5,2,25,2.8,37.5c1.6,24.9,3,49.9,5.3,74.8c2.4,25.6,5.4,51,6.3,76.8c0.5,12.6,1.8,24.8,3.6,37.2c0.8,5.4,1.2,10.9,1.8,16.3c0.4,4.2,0.8,8.5,3.3,12.1c0.6,0.9,0.9,1.9,1,2.8c4.2,3.5,11.3,1,13.3-4.9C81.4,423.5,79.2,412.4,77.8,403.9z"/><path fill="#C56528" d="M384.6 374.9c-17 5.2-33.8 7.4-51.4 3.5-9.1-2-18.6-4.9-26.8-9.3-7.4-4-13.8-9.2-20.6-14.1-3.4-2.5-6.1-4.3-10.4-6.4-2.1-1.1-4.3-2.2-6.6-2.8-.2 0-.4-.1-.6-.2-.2.4-.4.7-.7 1 .7 1 1 2.4.5 4 0 .1-.1.2-.1.3 3.2 13.5 13.6 24.2 25.8 30.4 14.1 7.2 29.3 8.6 44.9 7.9 17.2-.8 34.9-3.7 50.6-11.2 5.2-2.5 9.5-5.7 13.3-9.4C396.8 371.3 390.3 373.1 384.6 374.9zM246.8 310c-4.8-6.8-12.4-10.2-20.5-11.2-19.4-2.4-39.3 6.4-52.9 20.1-9.9 10-19.6 23.2-33.5 27 1.8.5 3.5.9 5.3 1.2.5.1 2.6.1.9.2 1.6-.1 3.2-.2 4.8-.7 3.4-1 6.6-2.4 9.6-4.2 5.8-3.6 11.2-7.8 17.1-11.4 13.1-8 28-16.8 43.6-18.2 7.4-.6 15.1.4 21.7 4 4.6 2.5 7.6 7.3 11.9 10.1C253.4 320.9 250.1 314.8 246.8 310z"/><path fill="#C56528" d="M233.2,324.8c-8.4-2.2-16.5-0.4-24.5,2.6c-8.8,3.3-17,7.9-25,12.8c-6.7,4.1-12.8,9.3-19.7,12.9c-5.9,3.1-13.1,6.2-19.9,5.1c-1.1-0.2-2.3-0.4-3.4-0.7c4.6,3.6,9.4,6.8,15,8.4c13,3.6,26.4,2.4,39-2.1c12.4-4.4,23.3-11,34.4-17.7c6.2-3.7,12.7-7.5,19.7-9.8C243.5,332.6,240,326.5,233.2,324.8z"/><path fill="#C56528" d="M257.3 345.6c-10.3 1.9-19.6 8.4-28.5 13.7-11.6 7-23.8 13.6-37 16.9-13.2 3.4-26.7 4.1-39.8 0-9.3-2.9-16-9.1-23.4-14.8 9.6 12.4 23.1 21.6 38.9 24.5 18.4 3.5 37-1.3 53.7-9.2 12-5.7 30.2-13 35.5-26.6-.1-.3-.1-.6-.2-.9C256.3 347.7 256.6 346.5 257.3 345.6zM374.6 353.5c-12.2-4.2-19.9-12.5-28-22.1-8-9.5-17.8-18.5-29.9-22.2-10.8-3.3-24.2-5.5-34.9-.5-5.5 2.6-10 7.5-12.8 12.9-.7 1.4-1.4 2.8-2 4.2 1.8-.7 3.5-1.5 5.4-1.8 2.8-.5 5.7-.9 8.6-1 6.2-.1 12.2.7 18.2 2.4 11.6 3.4 22.4 8.2 33.1 13.7 11.6 6 23.9 11.7 36.9 13.8 2.2.4 4.5.7 7 .9C375.5 353.8 375 353.7 374.6 353.5z"/><path fill="#14B6B9" d="M457.7,108.7c-1.7-8.7-4.9-17.3-9.7-24.9c-7.8,3.7-15.7,5.6-24.4,4.8c-8.8-0.8-17.4-3.5-25.8-6.1c-9.4-3-18.9-6.1-28.6-7.6c-9.4-1.4-19-1.3-28.5-1.1c-8.9,0.2-17.8,0.6-26.7,0.2c-6.4-0.3-12.9-0.7-19.3,0c-4.8,0.5-11.6,1.5-13.9,6.1c-1.2,2.4-2.3,4.8-3,7.4c-0.1,0.4-0.2,0.8-0.3,1.1c-2.8,5.4-4.3,11.6-6.5,17.4c-2.1,0.4-4.2-0.4-5.7-2.3c-6.7-8.5-21.6-1.2-28.4,3.5c-1.8,1.2-3.6,1.2-5.1,0.5c-0.4-5.6-1.4-13.2-3.9-16.9c-0.2-1.1-0.4-2.2-0.5-3.3c-0.4-0.2-0.8-0.4-1.2-0.8c-4.1-3.2-10.6-3.7-15.6-4.1c-5.8-0.5-11.6-0.5-17.4-0.5c-17.7,0-35.4-0.5-53,1.3c-17.4,1.8-33.9,6.9-50.9,11.1c-8.1,2-16.3,3.9-24.6,4.8c-4.9,0.5-10.2,1.5-15,0.3c-9.1,12.4-12.7,28.9-12.8,44.1c0.1,0.1,0.2,0.1,0.3,0.2c8.3,1.8,15.8,5.7,19.6,13.8c2.4,5,3.1,10.5,4.1,15.9c1.3,6.9,2.4,13.9,3.8,20.8c4.8,22.8,13.7,44.8,36.6,54c18.3,7.4,39.4,7.2,58.6,3.4c10.4-2,21-4.6,31.2-7.5c11.4-3.2,21.9-7.6,29.4-17.1c0.5-0.7,1.2-1.2,1.8-1.5c0.3-1.2,0.9-2.2,1.8-2.9c0.1-0.2,0.2-0.4,0.3-0.6c0.6-1.4,0.7-3.3,1-4.8c0.8-3.5,1.5-6.9,2.3-10.4c1.5-6.9,3-13.8,4-20.8c2.1-15.9,0.6-32.1,0.6-48.1c0-0.6,0.1-1.1,0.2-1.6c0-0.7,0.1-1.5,0.4-2.3c5.5-15.4,34.3-15.3,42.4-1.9c0.1,0,0.3,0,0.4,0c1.8,3.1,3.5,6.4,4.8,9.7c1.3,25.7,10.9,50,16.6,74.9c0.1,0.7,0.2,1.3,0.1,1.9c0.1,0.5,0.2,1,0.2,1.5c-0.1,4.4,6.4,7.3,10.4,8.9c17.9,7.6,39.1,9.7,58.3,10.3c14.9,0.4,30.1,0,44.9-2c5.7-0.8,12.9-1.8,17.1-6.3c4.3-4.5,6.8-10.1,8.3-16.1c3.3-13.7,4.8-27.6,4.5-41.6c-0.2-7-0.4-14,2-20.7c1.9-5.2,5-9.8,8.4-14.2c3.5-4.5,6.4-8.6,7.2-14.4C459,119.3,458.7,113.9,457.7,108.7z M222.3,132.3c-0.3,12.8,0,25.6-1.1,38.4c-0.7,8.6-1.4,17-1.9,25.6c0,0.3,0,0.7-0.1,1c-1.9,7.8-5.1,15.3-9.1,22.3c-5.5,5.7-12.1,10.4-19.5,13.4c-9.3,3.8-18.7,4.4-28.6,5.8c-22.1,3-47.6,11.2-66.1-6.4c-6.3-6-10.1-13.4-13.7-21.2c-4.9-10.3-8.5-20.5-10.5-31.8c-1.1-5.9-1.9-11.8-2.9-17.7c-0.9-5.3-2.3-10.6-2.9-16c-0.8-7.9-0.5-15.9,1.6-23.5c-0.2-0.4-0.4-0.8-0.5-1.2c2.3-3.7,5.2-6.8,8.5-9.6c0.2,0,0.4,0,0.6,0.1c18.3-8.8,39.8-9.9,59.7-11.3c13.8-0.9,27.6-3.4,41.4-3.8c5.4-0.2,10.7-0.5,16.1-0.7c2.9-0.1,6.8,0.1,10-0.6c4.9,0.3,9.5,1.5,13.3,5.6c1.5,1.6,2.9,3.5,4.1,5.5C222.5,114.6,222.5,123.5,222.3,132.3z M429.5,173.1c-0.6,17.9,2.8,43.7-16.5,53.9c-10.5,5.6-22,5-33.5,3.2c-7.9-1.2-15.8-3-23.9-3.7c-6.9-0.6-13.8-0.8-20.6-1.9c-12-2.1-24.3-7.2-31.6-17.4c-6.2-8.6-8.6-19.1-10.1-29.4c-1.8-12.2-3.5-24.3-5.6-36.4c-2.6-14.6-4.4-29.3-0.8-43.9c-0.6-1.1-1-2.5-0.6-3.7c0,0,0-0.1,0-0.1c1.3-3.7,5.2-4.7,8.1-3.7c-0.1-0.1-0.2-0.1-0.3-0.2c-0.5-0.1-0.4-0.2,0,0c0.2,0,0.4,0.1,0.7,0.1c0.7,0.1,1.4,0.1,2.1,0.1c1.8,0.1,3.6,0.1,5.4,0.1c4.3,0.1,8.6,0.1,12.9,0c14.4-0.4,28.6-1.2,43-0.6c14.4,0.7,28.7,2,42.9,3.9c10.6,1.4,22.1,2.5,31.4,8.3c3,1.9,3.3,5.3,2.1,7.7C436,131,430.2,151.8,429.5,173.1z"/><path fill="#D6E5E5" d="M420,155.9c1.9-15.2,4.6-30.3,3.5-45.7c0-0.2,0-0.4,0-0.7c-9.9-4.5-22-5-32.4-6.2c-14.6-1.7-29.2-3-43.9-3.1c-13-0.1-26,1-39.1,1c-3.6,0-7.2,0-10.8-0.2c-1.1,4.5-1.7,9.2-1.7,13.8c0.2,14.9,3.9,29.5,6.2,44.2c1.6,10.4,2,21.3,5.4,31.3c3.8,11.1,11.6,19,23.3,22c7.2,1.8,14.6,2.4,22,2.9c7.4,0.6,14.6,1.7,21.9,2.9c10.5,1.8,24.6,5.4,34.2-1.3c6.9-4.9,9-13.5,9.7-21.4c0.5-5.9,0-11.8,0.1-17.7C418.5,170.4,419.1,163.1,420,155.9z"/><path fill="#010101" d="M467,134c5.8-14.8,2.2-33.3-5.2-48.2c-0.4-0.2-0.7-0.5-1-0.9c-2.8-5.1-7.5-11.6-14.2-10.4c-2.3,0.4-5.2,1.4-7.6,1.3c-17.8,6.2-38-4.2-55.1-8.9c-21.5-5.9-43.6-3.8-65.6-3.7c-13.9,0-29.9-3-42.1,5.5c-4.4,3.1-10.6,14.1-10.7,22.3c-8.1-3.3-17.8-1.5-26.3,2.3c-0.1-0.6-0.2-1.2-0.4-1.8c-0.3-0.3-0.5-0.8-0.5-1.5c0-0.6,0-1.2,0-1.8c-0.1-0.5-0.1-1-0.2-1.5c-0.3-1.7-0.8-3.3-1.5-4.9c-0.5-0.5-1.1-0.9-1.8-1.2c-0.3-0.8-0.8-1.5-1.7-2.1c-9.2-7.2-22.8-7.1-33.9-7.3c-16.9-0.3-33.9-0.4-50.8,0.6c-17.3,1-34,4.7-50.7,9.2c-8.3,2.2-16.7,4.5-25.1,6.1c-4.2,0.8-8.4,1.3-12.7,1.7c-2.5,0.2-4.9,0.3-7.4,0.4c0.9,0.5,0.9,0.6,0,0.1c-0.3-0.2-0.7-0.3-1-0.5c-1.3-0.6-2.5-0.7-3.6-0.5c-1.7-0.4-3.6,0-5,1.8c-12.6,15.2-17.2,35.8-17.4,55.2c0,2,0.9,3.4,2.1,4.2c0,0.2,0,0.3,0.1,0.5c-1.6,7.1,0.7,16,1.5,22.7c1.5,13,2.3,26.2,3.2,39.2c1.9,26.9,3.2,53.7,5.7,80.6c1.2,13,2.6,26,4.1,39c1.5,13.2,1.9,26.4,2.3,39.7c0.2,6.4,0.6,12.8,1.1,19.1c0.5,6.7,2,13.2,2.9,19.9c1,7.9,0.8,16.6,3.5,24.2c-0.1,0.8,0,1.7,0.3,2.6c3.1,8.8,11.1,13.8,20.3,12.4c9.3-1.4,15.1-8.5,17.1-17.4c2.4-10.9-0.1-23.6-2-34.4c-2.3-12.7-5.7-25.1-7.8-37.9c-4.2-25.6-7.2-51.4-9-77.2c-1.2-15.8-2-31.6-3-47.4c2.6,4,5.6,7.7,9,11.1c7.4,7.2,16.8,11.7,26.5,14.9c19.8,6.5,42,5.3,62.1,1c11.1-2.4,22.4-5,33.3-8.3c10.4-3.2,20.2-8.3,27.5-16.3c4.8-14,11.7-27.3,14.8-41.8c0.2-1.2,0.4-2.3,0.6-3.5c0.3-1.8,0.5-3.5,0.7-5.3c0.1-0.7,0.1-1.5,0.2-2.2c0-0.2,0.1-0.4,0.1-0.6c1.5-15.2,0.3-30.6,0.3-45.9c4-6.7,19.9-5.8,23,1.4c2,1.3,3.6,3.3,4.5,6.1c2.6,7.8,3,16,2.6,24.1c3.7,16.9,9.3,33.6,13.2,50.5c-0.1,0.4-0.1,0.8-0.2,1.2c-0.4,16.5,26.6,22.1,38.4,24.7c24.1,5.3,49.4,5.7,73.9,3.9c12.1-0.9,25.7-1.4,35.5-9.3c10-8.1,13-21.8,15-33.8c1-6.5,2.2-13.1,2.6-19.7c0.4-7.8-0.5-15.7,0-23.6C452.3,151.4,462.9,144.7,467,134z M71,371.7c2,10.8,5,21.3,6.8,32.2c1.4,8.5,3.6,19.6,0.7,28c-2,5.9-9.2,8.4-13.3,4.9c0-0.9-0.3-1.9-1-2.8c-2.4-3.6-2.9-7.9-3.3-12.1c-0.5-5.4-1-10.9-1.8-16.3c-1.8-12.5-3.1-24.6-3.6-37.2c-0.9-25.7-4-51.1-6.3-76.8c-2.3-24.9-3.7-49.9-5.3-74.8c-0.8-12.5-1.7-25-2.8-37.5c-0.5-5.5-1.1-10.9-1.7-16.4c-0.2-2.1-0.9-4.7-1.1-7.2c2.1,0.7,4.1,1.7,5.8,3.2c3.8,3.3,4.3,9.3,5.2,13.9c1.9,9.9,3.4,19.8,5.7,29.6c-0.3,0.8-0.5,1.6-0.4,2.7c1.9,22.1,3,44.2,4.4,66.4c1.5,22.8,3.8,45.4,6.8,68.1C67.5,350.3,69,361,71,371.7z M451,138.9c-3.4,4.4-6.5,8.9-8.4,14.2c-2.4,6.7-2.2,13.7-2,20.7c0.3,14-1.2,28-4.5,41.6c-1.4,6-4,11.6-8.3,16.1c-4.2,4.4-11.4,5.5-17.1,6.3c-14.8,1.9-30,2.4-44.9,2c-19.2-0.6-40.4-2.7-58.3-10.3c-3.9-1.7-10.5-4.6-10.4-8.9c0-0.6,0-1.1-0.2-1.5c0.1-0.6,0-1.2-0.1-1.9c-5.7-25-15.3-49.2-16.6-74.9c-1.3-3.3-3-6.6-4.8-9.7c-0.1,0-0.3,0-0.4,0c-8.1-13.4-36.9-13.5-42.4,1.9c-0.3,0.8-0.4,1.6-0.4,2.3c-0.1,0.5-0.2,1-0.2,1.6c0,16,1.5,32.2-0.6,48.1c-0.9,7-2.4,13.9-4,20.8c-0.8,3.5-1.5,6.9-2.3,10.4c-0.3,1.5-0.4,3.4-1,4.8c-0.1,0.2-0.2,0.4-0.3,0.6c-0.9,0.7-1.5,1.7-1.8,2.9c-0.6,0.3-1.2,0.8-1.8,1.5c-7.5,9.5-18,13.9-29.4,17.1c-10.2,2.8-20.8,5.4-31.2,7.5c-19.1,3.7-40.3,3.9-58.6-3.4c-22.9-9.2-31.9-31.2-36.6-54c-1.4-6.9-2.6-13.9-3.8-20.8c-1-5.4-1.7-10.9-4.1-15.9c-3.9-8.1-11.3-11.9-19.6-13.8c-0.1-0.1-0.2-0.1-0.3-0.2c0.2-15.2,3.7-31.7,12.8-44.1c4.8,1.3,10.1,0.3,15-0.3c8.3-0.9,16.5-2.8,24.6-4.8c16.9-4.2,33.4-9.3,50.9-11.1c17.6-1.9,35.4-1.4,53-1.3c5.8,0,11.6,0,17.4,0.5c5,0.4,11.5,0.9,15.6,4.1c0.4,0.3,0.8,0.6,1.2,0.8c0.1,1.1,0.3,2.2,0.5,3.3c2.6,3.7,3.5,11.3,3.9,16.9c1.5,0.7,3.3,0.7,5.1-0.5c6.8-4.7,21.7-12,28.4-3.5c1.5,1.9,3.7,2.7,5.7,2.3c2.2-5.7,3.7-12,6.5-17.4c0.1-0.4,0.2-0.8,0.3-1.1c0.7-2.6,1.8-5.1,3-7.4c2.4-4.6,9.1-5.6,13.9-6.1c6.4-0.7,12.9-0.3,19.3,0c8.9,0.4,17.8,0,26.7-0.2c9.5-0.2,19.1-0.3,28.5,1.1c9.8,1.5,19.2,4.6,28.6,7.6c8.4,2.7,17,5.3,25.8,6.1c8.7,0.8,16.7-1.1,24.4-4.8c4.8,7.5,8.1,16.1,9.7,24.9c1,5.2,1.3,10.6,0.5,15.8C457.4,130.3,454.5,134.4,451,138.9z"/><path fill="#010101" d="M220.7 106c-1.2-2-2.6-3.9-4.1-5.5-3.8-4.1-8.4-5.3-13.3-5.6-3.2.8-7.1.5-10 .6-5.4.2-10.7.6-16.1.7-13.8.4-27.6 2.9-41.4 3.8-19.9 1.4-41.4 2.5-59.7 11.3-.2 0-.4-.1-.6-.1-3.3 2.8-6.2 5.9-8.5 9.6.1.4.3.8.5 1.2-2.1 7.6-2.4 15.5-1.6 23.5.6 5.4 2 10.7 2.9 16 1 5.9 1.8 11.8 2.9 17.7 2.1 11.3 5.6 21.4 10.5 31.8 3.7 7.8 7.4 15.2 13.7 21.2 18.5 17.6 44 9.5 66.1 6.4 9.8-1.4 19.2-2 28.6-5.8 7.4-3 14-7.7 19.5-13.4 4-7 7.2-14.5 9.1-22.3 0-.3 0-.7.1-1 .5-8.6 1.2-17 1.9-25.6 1.1-12.8.7-25.6 1.1-38.4C222.5 123.5 222.5 114.6 220.7 106zM211.2 136.4c-.4 12 0 23.9-1.1 35.9-.6 6.8-1.3 13.5-1.6 20.3-.2 4.6-.2 9.7-1.3 14.3-.6.3-1.2.8-1.8 1.4-5.4 6.6-11.9 11.5-19.8 14.7-7.9 3.2-16.1 3.7-24.5 4.7-19.8 2.4-42.3 11.2-58.9-4.6-5.1-4.8-7.9-11.9-10.9-18.2-4.3-9.1-7.3-18.3-9.1-28.3-1.7-9.6-3.5-19.2-5-28.8-1.4-8.6-1.3-17.5 1.7-25.6 18.8-10.1 42.5-10 63.2-11.5 6.1-.4 12.2-1.1 18.3-1.8 7.4-.9 15-.9 22.4-1.8 7-.9 14.4-.1 21.4-1.4 1.4.8 3.2.9 4.9-.2 1.1 2.7 1.4 5.7 1.7 8.5C211.6 121.5 211.5 129 211.2 136.4zM432.4 101.8c-9.3-5.8-20.8-6.9-31.4-8.3-14.2-1.9-28.5-3.2-42.9-3.9-14.4-.7-28.6.1-43 .6-4.3.1-8.6.1-12.9 0-1.8 0-3.6-.1-5.4-.1-.7 0-1.4-.1-2.1-.1-.3 0-.6-.1-.7-.1.1 0 .2.1.3.2-2.8-1-6.8 0-8.1 3.7 0 0 0 .1 0 .1-.4 1.2-.1 2.5.6 3.7-3.6 14.6-1.8 29.3.8 43.9 2.2 12.1 3.9 24.2 5.6 36.4 1.5 10.4 4 20.8 10.1 29.4 7.3 10.2 19.6 15.3 31.6 17.4 6.8 1.2 13.8 1.3 20.6 1.9 8 .7 15.9 2.5 23.9 3.7 11.5 1.8 23 2.4 33.5-3.2 19.2-10.2 15.9-36 16.5-53.9.7-21.3 6.5-42.1 5-63.6C435.7 107.1 435.4 103.7 432.4 101.8zM420 155.9c-.9 7.2-1.5 14.5-1.6 21.8-.1 5.9.4 11.8-.1 17.7-.7 8-2.9 16.6-9.7 21.4-9.5 6.8-23.7 3.1-34.2 1.3-7.3-1.3-14.5-2.4-21.9-2.9-7.4-.6-14.8-1.1-22-2.9-11.6-3-19.5-10.8-23.3-22-3.4-10-3.8-20.9-5.4-31.3-2.3-14.7-6-29.3-6.2-44.2-.1-4.7.6-9.3 1.7-13.8 3.6.2 7.2.2 10.8.2 13 0 26-1.1 39.1-1 14.7.1 29.3 1.4 43.9 3.1 10.4 1.2 22.5 1.7 32.4 6.2 0 .2 0 .4 0 .7C424.6 125.5 421.9 140.7 420 155.9z"/><path fill="#010101" d="M294.1 89.8C293.6 89.6 293.6 89.7 294.1 89.8L294.1 89.8zM425.4 291.8c-6.4-3-11.3 6.8-4.9 9.9 7.8 3.7 10.3 12.4 9.4 20.5-1 9.5-6.4 16.3-15 20.1-10.2 4.5-22.2 4.6-32.9 2-12.8-3-20.1-11.9-28.3-21.4-8.2-9.5-17.8-17.9-29.5-22.6-11.5-4.6-24.6-6.6-36.8-4.6-11.3 1.8-20 8.3-26.2 17.5-.6-1.3-1.3-2.5-1.9-3.7-4-7.7-9.5-13.6-17.2-17.5-16.5-8.2-37.4-4.9-53.3 2.8-8.8 4.3-16.7 10-23.7 16.8-6.6 6.4-12.1 13.9-19.6 19.4-6.1 4.5-15 7.2-21.7 2.4-4.8-3.5-7.6-9.3-9-15.2.8-1.5.8-3.4-.4-5.2-.4-.7-.9-1.3-1.3-2-.5-.7-1-1.2-1.7-1.6-2.8-2.8-9.6-1.1-9.7 4.4-1.3 38.3 26.3 74.8 63.9 82.9 21.3 4.6 43.5-1.8 62.6-11.2 11.6-5.7 24.7-11.9 33.1-22 5.2 10.6 13.7 19.1 24.2 25.5 15.5 9.4 33.3 11.4 51.1 11.1 19.7-.4 40-4 57.9-12.6 18.3-8.7 28-25 36.4-42.5 1.5-1.4 2.8-3 4-4.8C445 325.3 443.4 300.4 425.4 291.8zM173.3 318.9c13.6-13.7 33.5-22.5 52.9-20.1 8.1 1 15.7 4.4 20.5 11.2 3.3 4.8 6.7 10.8 7.9 16.9-4.3-2.9-7.3-7.6-11.9-10.1-6.6-3.6-14.3-4.6-21.7-4-15.6 1.4-30.5 10.2-43.6 18.2-5.9 3.6-11.3 7.8-17.1 11.4-3 1.9-6.2 3.3-9.6 4.2-1.6.5-3.2.6-4.8.7 1.7-.1-.5-.1-.9-.2-1.8-.3-3.5-.8-5.3-1.2C153.7 342.1 163.4 329 173.3 318.9zM248.9 336.4c-6.9 2.3-13.5 6.1-19.7 9.8-11.2 6.7-22.1 13.3-34.4 17.7-12.6 4.5-26 5.7-39 2.1-5.6-1.6-10.4-4.8-15-8.4 1.1.3 2.3.5 3.4.7 6.8 1.1 14-2 19.9-5.1 6.9-3.6 13-8.8 19.7-12.9 8-4.9 16.2-9.5 25-12.8 8-3 16.1-4.8 24.5-2.6C240 326.5 243.5 332.6 248.9 336.4zM256.5 349.3c0 .3.1.6.2.9-5.2 13.6-23.5 20.8-35.5 26.6-16.7 8-35.2 12.7-53.7 9.2-15.8-3-29.2-12.2-38.9-24.5 7.3 5.7 14.1 11.9 23.4 14.8 13.1 4.1 26.6 3.4 39.8 0 13.2-3.4 25.4-10 37-16.9 8.9-5.4 18.1-11.8 28.5-13.7C256.6 346.5 256.3 347.7 256.5 349.3zM268.9 321.6c2.8-5.4 7.3-10.3 12.8-12.9 10.7-5 24.1-2.8 34.9.5 12.2 3.7 21.9 12.7 29.9 22.2 8.1 9.6 15.9 17.9 28 22.1.5.2.9.3 1.4.4-2.4-.2-4.7-.6-7-.9-13-2.1-25.2-7.8-36.9-13.8-10.7-5.5-21.5-10.4-33.1-13.7-6-1.8-12-2.5-18.2-2.4-2.9 0-5.7.5-8.6 1-1.9.3-3.6 1.2-5.4 1.8C267.5 324.4 268.2 323 268.9 321.6zM379.3 365.1c-2.5.7-4.9 1.4-7.4 2.1-18.6 5-38.6 1.5-56-5.9-12.5-5.3-22-15.2-33.8-21.7-2.4-1.3-6-3.1-9.7-4.1 3-1.1 6.1-1.3 9.3-1.4 6.4-.3 12.5 1.4 18.6 3.3 12.9 4 24.4 10.8 36.5 16.5 11.7 5.5 24.2 9.8 37.1 10.9C375.7 364.9 377.5 365.1 379.3 365.1zM389.3 377.9c-15.7 7.5-33.4 10.4-50.6 11.2-15.6.7-30.8-.7-44.9-7.9-12.2-6.2-22.6-16.9-25.8-30.4 0-.1.1-.2.1-.3.5-1.6.2-3-.5-4 .3-.3.5-.6.7-1 .2.1.4.1.6.2 2.3.5 4.5 1.7 6.6 2.8 4.3 2.2 7 4 10.4 6.4 6.8 4.9 13.2 10.1 20.6 14.1 8.2 4.5 17.7 7.3 26.8 9.3 17.6 3.9 34.4 1.7 51.4-3.5 5.8-1.7 12.2-3.6 18-6.4C398.8 372.2 394.4 375.4 389.3 377.9z"/></svg>