<svg xmlns="http://www.w3.org/2000/svg" width="512" height="512" viewBox="0 0 512 512"><path fill="#C56528" d="M77.2,381.5c-4.7,0.1-9.3,0.2-14,0.1c0.1,7.2,0.9,14.4,1.9,21.5c1,7.4,2.7,14.9,2.6,22.3c-0.1,4.5-0.9,11.6,2.1,15.4c1.5,1.9,6.2,1.7,10,1.4C82.9,422.1,76.9,401.7,77.2,381.5z"/><path fill="#74CCCF" d="M162,270.2c-4.1-2.8-9-5.5-12-9.6c-4.4-6.2-6.5-13.4-8.5-20.7c-2.1-7.3-4.9-14-9.4-20.2c-8.3-11.5-20.8-19.3-34.6-22.5c-9.7-2.2-25.2-6.5-33.9,0.1c-1.3,0.9-2.5,1.2-3.7,1c-0.9,15.3-4.5,30.5-4.6,45.9c0,8,1.8,15.9,2.2,23.9c0.2,4,0.2,7.9-0.1,11.8c20.4-0.6,40.9-1.1,61.3-1.4c-0.9-0.4-1.7-0.7-2.5-1.1c-5.7-2.8-11.6-5.9-16.9-9.6c-11.3-7.9-20.8-17.8-31.9-25.8c-5.7-4.2,1.8-12.1,7.5-8c11.1,8.1,20.5,18.7,32.3,25.9c5.4,3.3,11.1,6.4,16.8,9c5,2.3,10.5,4.3,14.6,8.2c0.4,0.4,0.7,0.7,0.9,1.1c7.1-0.1,14.2-0.2,21.3-0.4c0.7-2.3,2.8-4.3,5.2-4.4C165.3,272.3,163.8,271.4,162,270.2z"/><path fill="#C56528" d="M440.7,378.2c-3.1,0-6.1,0-9.2-0.1c-0.4,0-0.8,0-1.3,0c-0.2,0.7-0.6,1.3-1.2,2c0.5-0.5-0.1,0-0.3,1.1c-0.2,1.2-0.4,2.4-0.5,3.6c-0.2,3.6-0.1,7.3,0.2,10.9c0.5,7.2,1.3,14.4,2.2,21.5c0.7,6.1,0.6,12.6,1.9,18.6c1.1,5.3,2.8,8.3,7.4,8.3c1.5-11.2,1.4-22.4,2.3-33.7C443,399.3,443,389,440.7,378.2z"/><path fill="#D6E5E5" d="M440.6,290.1c-13.2-6.4-28.9-1.7-42.9-2.1c-15.6-0.5-31.3-1-46.9-0.8c-32.6,0.4-65.1-1-97.7-0.5c-32.9,0.5-65.7,1.6-98.6,2.1c-32.8,0.5-65.6,1.1-98.4,2.1c-0.3,15.8,0.5,31.4,4.2,46.9c0.2,0.8,0.2,1.6,0.1,2.3l4.1,0.1c65.4,2.1,131.1,5.9,196.6,4.9c62.9-0.9,125.9-3,188.8-3.3c1-1.5,2.6-2.5,4.4-2.3C458.1,322.4,457.5,298.3,440.6,290.1z"/><path fill="#C56528" d="M480.7,311.4c-2.4-14.4-5.2-28.5-6.2-43.1c-0.8-12-0.1-24.2-1.4-36.2c-1-9.3-3.2-20.8-11.3-26.7c-2.3-1.7-5.2-2.6-7.5-2.3c-0.3,0-1.9,1-2.3,1.6c-6.5,10.2-3.9,27.5-2.6,39.2c1.7,14.7,5.5,28.6,7.9,43.1c0.2,1.1,0.1,2.1-0.3,2.9c0.5,0.7,1,1.3,1.5,2c10.8,16.2,10.4,38.8,4.8,56.8c-0.9,2.9-3.4,4.1-5.8,4c-0.4,0.1-0.9,0.2-1.3,0.2c-3.3,0-6.5,0-9.8,0c-64.9,0.5-129.8,2.9-194.7,3.4c-32.7,0.3-65.4-1.1-98.1-2.2l-98.6-3.2c-4.9-0.2-6.6-5.5-4.9-8.7c-0.2-0.4-0.3-0.7-0.4-1.2c-4.1-17.2-5-34.5-4.6-52.1c0-0.4,0-0.9,0-1.4c0-0.4,0-0.7,0-1.1c0-1.1,0.3-2,0.8-2.7c1.4-8.1,0.8-16.3-0.2-24.4c-1.1-8.7-1.6-16.9-0.8-25.7c1.3-14.5,5.3-29.4,3.8-44.1c-0.4-3.5-2.3-21.1-8.7-18.9c-8.2,2.8-7.7,15.3-7.5,22.5c0.2,9.5,1.1,18.7,0.9,28.2c-0.4,15.7-1.4,31.3-2.9,46.9c-1.5,15.4-4,30.7-5.8,46.1c-1.6,13.4-4.2,29.6,3.2,41.9c5.6,9.3,15.8,13.1,26.3,13.8c14.5,1,29.2,0.1,43.7,0.4c32.5,0.7,65.1,2.3,97.7,1c32.4-1.2,64.8-4.1,97.3-4.4c16.1-0.2,32.2,0.9,48.3,1.2c16.2,0.3,32.3-0.1,48.5-0.6c16.4-0.4,32.8-0.9,49.1-0.4c10.2,0.3,21.2-0.9,29.6-7.1C483.5,349.3,483.5,327.9,480.7,311.4z"/><path d="M489.3,298.7c-2.9-15.8-4.2-31.9-4.6-47.9c-0.5-18.2,0.4-40.7-15.3-53.4c-5.1-4.2-12.5-6.7-19-4.6c-5.7,1.9-8.7,7.2-10.6,12.5c-4.5,12.6-2.6,28-1,40.9c1.4,11.5,4.2,22.7,6.4,34c-4.4-2.1-9.3-3.4-14.3-4c-7-0.8-14.1-0.2-21.1,0.4c-7.9,0.7-15.8,0.2-23.7,0c-64.9-1.8-129.8-0.8-194.7,0.6c-4.7,0.1-9.3,0.2-14,0.3c0.6-2.8,0.3-5.7-1.3-8.7c-2.8-5.2-9.1-8.2-13.7-11.5c-6.2-4.5-8.1-12.1-10-19.2c-2.4-8.8-5.8-16.6-11-24.2c-9.5-13.9-24.1-22.5-40-27c-7.3-2.1-15-3.1-22.5-3.5c-6.3-0.4-13.5,0.1-19.2,3.4c-1.4-12.9-6.4-28-19.7-27C20.1,161,21.1,187.9,22,202c1.8,27.5-0.8,55.4-4.2,82.7c-1.8,14.6-4.3,29.1-5.4,43.8c-0.9,13,0.9,27.4,9.3,37.9c6.8,8.5,17.1,12.6,27.7,14c0.9,0.1,1.9,0.2,2.8,0.3c0,8.8,1.2,17.6,2.4,26.3c0.7,4.7,1.4,9.4,2,14.1c0.4,3.5,0,7.2,0.2,10.8c0.2,6.4,1.4,14.2,7.2,18c6,4,13.9,2.7,20.8,2.8c2.4,0,4.6-2,5.1-4.3c4.7-22.4-2-44.9-1.7-67.4c0.8,0,1.6,0,2.4,0c32.5,0.4,65.1,2.1,97.6,1.4c32.5-0.7,64.9-3.7,97.4-4.5c16.2-0.4,32.2,0.2,48.4,0.9c16.1,0.7,32.3,0.3,48.5-0.1c11.9-0.3,23.7-0.7,35.6-0.8c-1.4,5-0.9,11-0.7,15.7c0.4,8.7,1.6,17.4,2.6,26.1c0.9,8.2,0.6,17,3.7,24.7c4,9.7,13.2,11.6,22.7,9.7c1.8-0.4,3.4-2.3,3.7-4c2.2-13.3,2.2-26.8,3.1-40.3c0.4-6.2,1.1-12.2,0.7-18.5c-0.3-4.6-1-9.3-2-13.9c5-0.6,10-1.7,14.8-3.8c17.8-7.7,25.4-25.1,26.3-43.6C493.6,319.5,491.3,309.2,489.3,298.7z M253.1,286.7c32.6-0.5,65.2,0.9,97.7,0.5c15.6-0.2,31.3,0.3,46.9,0.8c14,0.4,29.7-4.3,42.9,2.1c16.9,8.2,17.4,32.3,13.7,49.5c-1.8-0.2-3.5,0.8-4.4,2.3c-63,0.2-125.9,2.3-188.8,3.3c-65.5,1-131.1-2.8-196.6-4.9l-4.1-0.1c0.1-0.7,0.1-1.5-0.1-2.3c-3.7-15.4-4.4-31.1-4.2-46.9c32.8-1,65.6-1.6,98.4-2.1C187.4,288.3,220.2,287.1,253.1,286.7z M60,198.2c1.1,0.2,2.4-0.1,3.7-1c8.7-6.5,24.2-2.3,33.9-0.1c13.8,3.2,26.3,11,34.6,22.5c4.5,6.2,7.3,12.8,9.4,20.2c2,7.3,4.1,14.5,8.5,20.7c2.9,4.2,7.9,6.8,12,9.6c1.7,1.2,3.3,2.1,4,3.2c-2.3,0.1-4.5,2-5.2,4.4c-7.1,0.1-14.2,0.2-21.3,0.4c-0.2-0.4-0.5-0.8-0.9-1.1c-4-3.9-9.5-5.9-14.6-8.2c-5.8-2.6-11.5-5.7-16.8-9c-11.7-7.2-21.1-17.8-32.3-25.9c-5.7-4.1-13.2,3.9-7.5,8c11.1,8.1,20.7,18,31.9,25.8c5.2,3.7,11.1,6.7,16.9,9.6c0.8,0.4,1.7,0.8,2.5,1.1c-20.4,0.4-40.9,0.8-61.3,1.4c0.3-3.9,0.3-7.9,0.1-11.8c-0.4-8-2.3-15.9-2.2-23.9C55.5,228.8,59.1,213.6,60,198.2z M79.9,442.2c-3.8,0.3-8.5,0.5-10-1.4c-3-3.8-2.2-10.9-2.1-15.4c0.1-7.5-1.5-15-2.6-22.3c-1-7.1-1.8-14.3-1.9-21.5c4.6,0.1,9.3,0,14-0.1C76.9,401.7,82.9,422.1,79.9,442.2z M442.2,410.5c-0.9,11.2-0.8,22.5-2.3,33.7c-4.5,0-6.3-3-7.4-8.3c-1.2-6.1-1.1-12.5-1.9-18.6c-0.8-7.2-1.7-14.3-2.2-21.5c-0.2-3.6-0.3-7.3-0.2-10.9c0.1-1.2,0.2-2.4,0.5-3.6c0.2-1.1,0.8-1.6,0.3-1.1c0.6-0.6,1-1.3,1.2-2c0.4,0,0.8,0,1.3,0c3.1,0,6.2,0.1,9.2,0.1C443,389,443,399.3,442.2,410.5z M468.6,360.3c-8.5,6.2-19.5,7.4-29.6,7.1c-16.4-0.5-32.8-0.1-49.1,0.4c-16.2,0.4-32.3,0.9-48.5,0.6c-16.1-0.3-32.2-1.4-48.3-1.2c-32.5,0.3-64.9,3.2-97.3,4.4c-32.6,1.3-65.1-0.4-97.7-1c-14.5-0.3-29.2,0.6-43.7-0.4c-10.5-0.7-20.7-4.4-26.3-13.8c-7.4-12.3-4.8-28.5-3.2-41.9c1.8-15.4,4.3-30.7,5.8-46.1c1.5-15.6,2.5-31.2,2.9-46.9c0.2-9.5-0.7-18.8-0.9-28.2c-0.1-7.2-0.7-19.6,7.5-22.5c6.4-2.2,8.3,15.4,8.7,18.9c1.5,14.6-2.5,29.5-3.8,44.1c-0.8,8.8-0.3,16.9,0.8,25.7c1,8.2,1.6,16.4,0.2,24.4c-0.4,0.8-0.7,1.7-0.8,2.7c0,0.4,0,0.7,0,1.1c-0.1,0.5-0.1,1,0,1.4c-0.4,17.6,0.5,34.9,4.6,52.1c0.1,0.4,0.2,0.8,0.4,1.2c-1.7,3.2,0,8.5,4.9,8.7l98.6,3.2c32.7,1.1,65.4,2.4,98.1,2.2c64.9-0.5,129.8-2.8,194.7-3.4c3.3,0,6.5,0,9.8,0c0.4,0,0.9-0.1,1.3-0.2c2.4,0.1,4.9-1.1,5.8-4c5.6-18,6-40.6-4.8-56.8c-0.5-0.7-1-1.4-1.5-2c0.3-0.8,0.5-1.7,0.3-2.9c-2.4-14.5-6.2-28.4-7.9-43.1c-1.4-11.8-3.9-29,2.6-39.2c0.4-0.6,2-1.5,2.3-1.6c2.3-0.3,5.2,0.7,7.5,2.3c8.1,5.9,10.3,17.4,11.3,26.7c1.3,12,0.5,24.2,1.4,36.2c1,14.6,3.8,28.7,6.2,43.1C483.5,327.9,483.5,349.3,468.6,360.3z"/><path d="M235.6 202.4c-7.9.1-15.8 1.1-23.6.4 2.5-2.2 5.7-4.1 7.8-5.8 5-3.9 9.7-8.6 10.6-15.1.5-3.7-2.1-6.6-5.8-6.5-13.7.1-27.3 2.9-41 3-7.1.1-6.2 11 .8 11 10.3-.1 20.4-1.7 30.6-2.5-2 1.7-4.3 3.2-6.1 4.6-5.1 3.8-9.8 8-11.4 14.4-.8 3.1 1.6 5.7 4.3 6.4 11.2 3.1 23 1.2 34.5 1.1C243.5 213.3 242.6 202.3 235.6 202.4zM317.2 147.7c-8.3 1.8-16.6 3.2-25 4-6.4.6-13.3 1-19.8-.1 3.6-4.9 8.4-9.2 12.1-13.9 5.5-7 8.7-14.7 6.7-23.6-.6-2.6-3.3-3.6-5.6-3.7-15.7-.8-30.8 2.9-46 6-6.8 1.4-6.1 12.4.8 11 13.4-2.7 26.8-5.9 40.5-6.1-.8 5.4-5.5 10.3-8.8 14-4.7 5.4-10.1 10.5-13.1 17.1-1.1 2.5-.4 6.3 2.5 7.4 18.7 7 40.4 2.3 59.3-1.7C327.7 156.6 324 146.2 317.2 147.7zM435.9 102c-1.5-.6-2.8-.6-4.4-.7-1.2 0-2.2.3-2.9.8-.6.1-1.1.1-1.7.2-4.4.3-8.7 1.1-13.1 1.5-7.4.7-14.8.9-22.1 1.6-10.9 1.1-24.7 3.4-35.8-.2 7-11.1 16-20.9 23-32 5.8-9.3 14.8-19.2 16.5-30.4.6-3.7-2.2-6.5-5.8-6.5-25.5 0-52.1-.3-76.4 8.3-6.7 2.4-3.1 12.8 3.6 10.4 20.8-7.4 43.6-7.7 65.6-7.7-1.3 2.6-3 5.1-4.6 7.6-3.3 5-6.5 10-9.7 15-7.7 12.3-18 22.7-25.1 35.5-1.5 2.7 0 5.9 2.5 7.4 13.6 7.8 32.1 5.1 47 3.7 8.6-.8 17.2-1.1 25.7-2 3.8-.4 7.6-.9 11.5-1.3 2.3-.2 4.8-.4 6.9-1.6C440 109.5 439.7 103.6 435.9 102z"/></svg>