<svg xmlns="http://www.w3.org/2000/svg" width="512" height="512" viewBox="0 0 512 512"><path fill="#CBDB2D" d="M192.6,143.7c-15.9-3.4-35.4-6.1-50.5,1.4c-14.4,7.2-31.4,24.7-27.8,41.9c1,0.9,1.7,2.2,1.8,4c0,0.5,0.1,1,0.1,1.4c0.3,0.6,0.6,1.1,0.9,1.7c1.2,2.1,1.1,4.2,0.2,5.9c5.6,25.6,30.3,40.7,56.2,43.5c30,3.3,60.8-8.9,72.7-38.2C260.4,169.9,221.4,149.8,192.6,143.7z"/><path fill="#D6E5E5" d="M471.6,154.8c-8.5-22.3-20.5-43.1-35.8-60.9c-0.2,0.2-0.5,0.4-0.8,0.5c-9.2,5-13.3,14.8-20,22.3c-7.8,8.7-16.4,16.6-25.3,24.2c-8.9,7.7-17.7,15.8-27.2,22.9c-9.9,7.3-20.1,14.2-30,21.4c-8.4,6-16.9,12-23.6,19.9c-5.7,6.7-11.1,13.8-17.2,20.2c-4.1,4.3-10.9,12.1-17.6,12.1c-2.7,0-6.6,0.7-9.1-0.6c-2.6-1.4-5.1-2.8-7.5-4.4c-3.2-2.1-6.3-4.3-9.8-5.9c-7.2,9.5-16.5,17.1-27.8,22.1c-2.4,1.1-4.9,2-7.5,2.8c2.8,1.9,5.5,3.8,8,5.5c8.2,5.6,16.3,11.4,24.3,17.2c6,4.3,12,8.9,18.6,12.2c0.3,0.2,0.5,0.4,0.8,0.5c1.3-0.5,2.6-1,3.8-1.6c3.1-1.3,6.2-2.7,9.3-4.2c6.3-3,12.4-6.3,18.4-9.8c12.6-7.4,24.8-15.4,36.8-23.7c24.3-16.7,48.5-33.5,73.9-48.6c13.6-8,27.3-15.8,40.5-24.5c5.9-3.9,11.7-8.2,18.1-11.3c1.6-0.8,3.2-1.5,4.8-2.4c0.2-0.1,0.3-0.2,0.5-0.3C469.8,158.4,470.3,156.2,471.6,154.8z"/><path fill="#4B7BB2" d="M360.6,262.3c-0.8-4.7-8-7.7-11.6-9.4c-0.6-0.3-1.1-0.6-1.5-1c-20.8,14.5-41.8,28.8-64.7,39.9c-3.6,1.7-7.2,3.4-10.8,4.9c-2.7,1.1-6.3,3.4-9.4,2.7c-1.5-0.3-2.6-0.7-3.8-1.6c-0.6-0.4-1.1-0.6-1.3-0.7c0.1,0,0.4,0.1,1.1,0.3c-1.6-0.3-3-1.4-4.4-2.3c-7.2-4.6-14.2-9.7-21.1-14.7c-7.9-5.7-15.7-11.4-23.9-16.6c-3.4-2.2-6.9-4.4-10.5-6.2c-1.3-0.6-2.5-1.3-3.8-1.8c0.2,0.1-2.2-0.4-0.7-0.3c-0.1,0-0.2,0-0.3,0c-7.9,0.9-15.9,0.8-23.7-0.3c-5.5-0.7-11-2-16.2-3.7c-3.9,0.3-7,2.5-10,5c15,18,39.2,26.4,56.7,41.4c18.7,16,41.1,27.4,57.9,45.6c23.7-17.2,44.9-37.7,69.3-54c9.2-6.1,20.1-10.5,28-18.5C358,268.7,361.2,265.6,360.6,262.3z"/><path fill="#14B6B9" d="M471.1,162.8c0.3,0.9,1.2,1.8,3.4,2.5C473,164.9,471.9,164,471.1,162.8z"/><path fill="#14B6B9" d="M477,170.5c-1.9,1.1-3.9,2-5.7,2.8c-6.3,3.1-12,7.2-17.8,11.1c-6.9,4.6-13.9,8.8-21,13c-25.2,14.9-50.1,30.2-74.2,46.8c9.6,5.7,18.6,15.2,12.3,26.9c-5.6,10.3-16.8,16.9-26.7,22.5c-30.2,17.2-54.5,43-82.9,62.8c-2.9,2-6.3,0.9-8.3-1.6c-8.8-10.8-20.5-19.2-31.8-27.2c-10.7-7.5-20.8-15.6-31.2-23.2c-19.7-14.5-44.7-24.9-58.9-45.6c-1.9-2.7-1-6.5,1.6-8.3c2.5-1.7,4.7-3.6,7-5.3c-18.9-10.3-33-27.5-35-50.5c-4.1-11.2-2.6-23.4,3.8-33.9c10.7-17.5,29.2-30.9,50-32c17.9-0.9,35.9,1.8,52.9,7.6c15.7,5.3,31.9,13.9,41.7,27.7c1.7,2.4,3.1,4.8,4.2,7.4c0.1,0,0.1,0,0.2,0c8-0.1,16-1.9,24-2c3.2-0.1,6.3,2.1,6.4,5.5c0.2,4.5,4.7,7.2,7.8,9.9c3,2.6,5.7,5.4,7.3,9.1c0.6-0.6,1.1-1.2,1.7-1.8c7.6-7.7,17.1-13.9,25.8-20.1c10-7,20.8-13.6,30-21.6c8.5-7.4,17.2-14.5,25.6-22c8.1-7.2,16.7-14.6,23.1-23.4c5.3-7.4,10.6-15.5,18.6-20.1c-12.9-13.1-27.8-24.3-44.7-32.8c-51-25.7-111-28.1-166.4-19.3C166.7,40.8,114.2,58.8,76.9,94c-19.6,18.5-34.7,40.9-42.7,66.8c-8,26-10.4,53.1-12.1,80.1c-0.1,1.1-0.4,2-1,2.7c0,0.2,0,0.5,0,0.8c0,52.9-1.1,108.3,30.1,153.9c25.3,37.1,64.5,61.5,107.2,73.7c88,25.2,194.2,9.6,264.9-50.8C495.1,360,503.8,256.1,477,170.5z"/><path fill="#4B7BB2" d="M292,199.4c-1.4-4.4-6.5-6.9-9.6-10c-2.3-2.4-4.2-4.8-5.4-7.7c-5.5,0.5-11,1.3-16.5,1.6c1.5,9.4-0.1,19.2-4.2,28.4c-0.7,1.6-1.5,3.2-2.3,4.7c2.5,1.2,4.9,2.7,7.4,4.3c3.4,2.3,8,6.5,12.4,4.4c6-2.9,10.9-9.7,15.1-14.7c2.1-2.4,4.1-5,6.1-7.5C293.7,202.4,292.6,201.3,292,199.4z"/><path d="M487.8,168.7c-14.2-46.9-40.9-88.3-82-115.7C359.5,22,300.5,14.5,246,18.5c-51.7,3.8-104.6,17.9-148.6,46c-21.6,13.8-40.9,31.9-55,53.4c-14.9,22.7-22.5,48.8-26.6,75.4c-2.3,15.1-3.4,30.3-4.4,45.6c-0.1,0.9,0.1,1.8,0.4,2.6c-0.9,0.9-1.5,2.2-1.5,3.8c0,30.1-0.6,60.4,4.6,90.2c4.8,27.1,15.2,52.9,31.6,75.1c29.2,39.5,73.5,63.3,120.4,75c88.9,22.2,194.2,3.7,264.5-57.1C505.5,364.4,514.7,257.6,487.8,168.7z M474.6,165.3c-2.2-0.7-3.1-1.6-3.4-2.5C471.9,164,473,164.9,474.6,165.3z M435.1,94.4c0.3-0.2,0.6-0.3,0.8-0.5c15.3,17.8,27.2,38.6,35.8,60.9c-1.3,1.4-1.8,3.6-1.4,5.7c-0.2,0.1-0.3,0.2-0.5,0.3c-1.5,0.9-3.2,1.6-4.8,2.4c-6.4,3.1-12.2,7.4-18.1,11.3c-13.1,8.7-26.9,16.5-40.5,24.5c-25.4,15.1-49.6,31.8-73.9,48.6c-12,8.3-24.2,16.3-36.8,23.7c-6,3.5-12.1,6.8-18.4,9.8c-3.1,1.5-6.2,2.9-9.3,4.2c-1.3,0.5-2.5,1.1-3.8,1.6c-0.3-0.2-0.5-0.4-0.8-0.5c-6.6-3.3-12.6-7.9-18.6-12.2c-8.1-5.8-16.1-11.6-24.3-17.2c-2.5-1.7-5.2-3.6-8-5.5c2.5-0.8,5-1.8,7.5-2.8c11.3-5,20.6-12.5,27.8-22.1c3.5,1.5,6.7,3.8,9.8,5.9c2.4,1.6,4.9,3.1,7.5,4.4c2.5,1.3,6.4,0.6,9.1,0.6c6.7,0,13.5-7.8,17.6-12.1c6.1-6.4,11.5-13.5,17.2-20.2c6.7-7.9,15.2-13.9,23.6-19.9c10-7.2,20.2-14,30-21.4c9.4-7,18.3-15.1,27.2-22.9c8.8-7.7,17.4-15.6,25.3-24.2C421.8,109.3,425.9,99.4,435.1,94.4z M117.1,194c-0.3-0.6-0.6-1.1-0.9-1.7c0-0.5-0.1-0.9-0.1-1.4c-0.1-1.8-0.8-3.1-1.8-4c-3.7-17.2,13.4-34.7,27.8-41.9c15.1-7.5,34.6-4.7,50.5-1.4c28.8,6.1,67.8,26.2,53.5,61.6c-11.8,29.3-42.7,41.5-72.7,38.2c-25.8-2.9-50.5-18-56.2-43.5C118.2,198.2,118.4,196.1,117.1,194z M154,251.5c5.3,1.7,10.7,2.9,16.2,3.7c7.8,1,15.8,1.1,23.7,0.3c0.1,0,0.2,0,0.3,0c-1.5-0.1,0.8,0.4,0.7,0.3c1.3,0.5,2.6,1.1,3.8,1.8c3.6,1.8,7.1,4,10.5,6.2c8.2,5.2,16,11,23.9,16.6c7,5,13.9,10.1,21.1,14.7c1.4,0.9,2.8,1.9,4.4,2.3c-0.7-0.1-1-0.2-1.1-0.3c0.1,0.1,0.7,0.3,1.3,0.7c1.2,0.9,2.3,1.3,3.8,1.6c3.1,0.6,6.7-1.6,9.4-2.7c3.7-1.5,7.3-3.2,10.8-4.9c22.9-11,43.9-25.4,64.7-39.9c0.4,0.4,0.9,0.7,1.5,1c3.6,1.8,10.8,4.7,11.6,9.4c0.6,3.4-2.6,6.5-4.8,8.7c-7.8,8-18.8,12.4-28,18.5c-24.4,16.3-45.6,36.8-69.3,54c-16.8-18.1-39.2-29.6-57.9-45.6c-17.5-15-41.8-23.5-56.7-41.4C147,254,150,251.7,154,251.5z M260.6,183.3c5.5-0.3,11-1.2,16.5-1.6c1.2,2.8,3.1,5.3,5.4,7.7c3,3.1,8.2,5.7,9.6,10c0.6,1.8,1.7,3,3.1,3.5c-2,2.5-4.1,5-6.1,7.5c-4.2,5-9.1,11.7-15.1,14.7c-4.4,2.1-8.9-2.1-12.4-4.4c-2.4-1.6-4.8-3-7.4-4.3c0.8-1.5,1.6-3.1,2.3-4.7C260.6,202.5,262.1,192.7,260.6,183.3z M423.4,421.2c-70.8,60.4-176.9,76-264.9,50.8c-42.7-12.2-81.9-36.6-107.2-73.7c-31.1-45.6-30.1-101-30.1-153.9c0-0.3,0-0.5,0-0.8c0.5-0.7,0.9-1.6,1-2.7c1.7-27,4.1-54.1,12.1-80.1c7.9-25.9,23.1-48.3,42.7-66.8c37.3-35.2,89.8-53.2,139.6-61.1c55.5-8.8,115.5-6.4,166.4,19.3c16.9,8.5,31.8,19.7,44.7,32.8c-8,4.7-13.3,12.8-18.6,20.1c-6.3,8.8-15,16.2-23.1,23.4c-8.4,7.5-17.1,14.6-25.6,22c-9.2,8-20,14.6-30,21.6c-8.8,6.2-18.3,12.4-25.8,20.1c-0.6,0.6-1.1,1.2-1.7,1.8c-1.6-3.6-4.3-6.5-7.3-9.1c-3.1-2.7-7.6-5.4-7.8-9.9c-0.2-3.4-3.2-5.6-6.4-5.5c-8,0.1-16,1.9-24,2c-0.1,0-0.1,0-0.2,0c-1.2-2.5-2.6-5-4.2-7.4c-9.8-13.8-26-22.4-41.7-27.7c-16.9-5.8-35-8.5-52.9-7.6c-20.9,1.1-39.4,14.5-50,32c-6.4,10.5-7.9,22.8-3.8,33.9c2,22.9,16.1,40.2,35,50.5c-2.3,1.7-4.5,3.5-7,5.3c-2.7,1.9-3.5,5.6-1.6,8.3c14.2,20.7,39.2,31.1,58.9,45.6c10.5,7.7,20.6,15.8,31.2,23.2c11.4,8,23,16.3,31.8,27.2c2,2.5,5.5,3.6,8.3,1.6c28.4-19.8,52.7-45.6,82.9-62.8c9.9-5.6,21.1-12.2,26.7-22.5c6.3-11.7-2.7-21.2-12.3-26.9c24.1-16.6,49-31.9,74.2-46.8c7.1-4.2,14.1-8.5,21-13c5.8-3.9,11.5-8,17.8-11.1c1.7-0.8,3.7-1.8,5.7-2.8C503.8,256.1,495.1,360,423.4,421.2z"/></svg>