<svg xmlns="http://www.w3.org/2000/svg" viewBox="0 0 48 48"><linearGradient id="BqGn_tqDNPMy1KAaaUqwha" x1="22.339" x2="24.611" y1="39.964" y2="40.799" gradientUnits="userSpaceOnUse"><stop offset="0" stop-color="#5e5e61"/><stop offset=".106" stop-color="#626265"/><stop offset=".213" stop-color="#6d6d71"/><stop offset=".319" stop-color="#808085"/><stop offset=".349" stop-color="#87878c"/><stop offset=".456" stop-color="#77777c"/><stop offset=".623" stop-color="#66666a"/><stop offset=".799" stop-color="#5b5b5f"/><stop offset="1" stop-color="#58585c"/></linearGradient><polygon fill="url(#BqGn_tqDNPMy1KAaaUqwha)" points="24.18,42.624 21.517,41.652 22.796,38.148 25.459,39.12"/><linearGradient id="BqGn_tqDNPMy1KAaaUqwhb" x1="31.066" x2="27.101" y1="19.489" y2="22.251" gradientUnits="userSpaceOnUse"><stop offset="0" stop-color="#5e5e61"/><stop offset=".106" stop-color="#626265"/><stop offset=".213" stop-color="#6d6d71"/><stop offset=".319" stop-color="#808085"/><stop offset=".349" stop-color="#87878c"/><stop offset=".456" stop-color="#77777c"/><stop offset=".623" stop-color="#66666a"/><stop offset=".799" stop-color="#5b5b5f"/><stop offset="1" stop-color="#58585c"/></linearGradient><polygon fill="url(#BqGn_tqDNPMy1KAaaUqwhb)" points="28.848,23.652 31.616,21.555 29.103,18.238 26.335,20.335"/><radialGradient id="BqGn_tqDNPMy1KAaaUqwhc" cx="31.812" cy="45.211" r="10.505" gradientTransform="matrix(.9653 .261 -.0916 .3387 5.243 21.594)" gradientUnits="userSpaceOnUse"><stop offset="0" stop-color="#7c7c80"/><stop offset=".179" stop-color="#7e7e82"/><stop offset=".274" stop-color="#86868a"/><stop offset=".348" stop-color="#949498"/><stop offset=".389" stop-color="#9f9fa3"/><stop offset=".899" stop-color="#7c7c80"/></radialGradient><path fill="url(#BqGn_tqDNPMy1KAaaUqwhc)" d="M33.778,46.383c0,0.781-2.17,0.599-2.534,0.599h-3.742c0.77-0.845,1.294-1.893,1.518-3.047	c0.139,0.054,0.278,0.118,0.417,0.182C31.671,45.046,33.778,45.966,33.778,46.383z"/><path fill="#58585c" d="M29.437,44.116c-0.225,1.069-0.695,2.042-1.358,2.865h-6.64c-1.411,0-2.395-1.347-1.764-2.598	l0.952-1.732c0,0,3.935-0.706,4.191-0.567c0.866,0.47,2.534,1.155,4.202,1.85C29.159,43.988,29.298,44.052,29.437,44.116z"/><radialGradient id="BqGn_tqDNPMy1KAaaUqwhd" cx="23.247" cy="46.562" r="17.636" gradientTransform="matrix(.9828 .1849 -.0982 .5221 4.974 17.956)" gradientUnits="userSpaceOnUse"><stop offset="0" stop-color="#5e5e61"/><stop offset=".106" stop-color="#626265"/><stop offset=".213" stop-color="#6d6d71"/><stop offset=".319" stop-color="#808085"/><stop offset=".349" stop-color="#87878c"/><stop offset=".456" stop-color="#77777c"/><stop offset=".623" stop-color="#66666a"/><stop offset=".799" stop-color="#5b5b5f"/><stop offset="1" stop-color="#58585c"/></radialGradient><path fill="url(#BqGn_tqDNPMy1KAaaUqwhd)" d="M29.02,43.934c-0.224,1.155-0.748,2.203-1.518,3.047h-6.062c-1.411,0-2.395-1.347-1.764-2.598	l0.952-1.732c0,0,3.935-0.706,4.191-0.567C25.684,42.555,27.352,43.239,29.02,43.934z"/><radialGradient id="BqGn_tqDNPMy1KAaaUqwhe" cx="23.804" cy="39.55" r="2.62" gradientUnits="userSpaceOnUse"><stop offset="0" stop-color="#ececf5"/><stop offset=".107" stop-color="#ececf5"/><stop offset=".196" stop-color="#d8d8e0"/><stop offset=".474" stop-color="#9d9da3"/><stop offset=".678" stop-color="#79797d"/><stop offset=".785" stop-color="#6b6b6e"/><stop offset="1" stop-color="#9f9fa3"/></radialGradient><path fill="url(#BqGn_tqDNPMy1KAaaUqwhe)" d="M26.176,39.616l-0.289,0.513c-0.118,0.235-1.101,0.203-2.256-0.085	c-1.155-0.289-2.042-0.738-2.01-1.005H21.61l0.128-0.492c0.481,0.278,1.219,0.567,2.074,0.78	C24.764,39.573,25.63,39.669,26.176,39.616z"/><radialGradient id="BqGn_tqDNPMy1KAaaUqwhf" cx="30.954" cy="31.855" r="25.86" gradientTransform="matrix(.3033 -.9529 .686 .2184 -.288 54.395)" gradientUnits="userSpaceOnUse"><stop offset="0" stop-color="#7c7c80"/><stop offset=".179" stop-color="#7e7e82"/><stop offset=".274" stop-color="#86868a"/><stop offset=".348" stop-color="#949498"/><stop offset=".389" stop-color="#9f9fa3"/><stop offset=".899" stop-color="#7c7c80"/></radialGradient><path fill="url(#BqGn_tqDNPMy1KAaaUqwhf)" d="M34.013,25.919L26.55,38.974l-0.374,0.641c-0.545,0.053-1.411-0.043-2.363-0.289	c-0.855-0.214-1.593-0.502-2.074-0.78l0.225-0.855l0.192-0.759c0.278-0.652,0.342-1.636,0.278-2.224	c-0.385-3.699,0.021-5.1,0.449-6.255c0.599-1.561,1.604-2.406,2.641-3.197c0.107-0.086,0.941-0.609,1.048-0.652	c2.064-0.748,1.337-1.86,1.337-1.86l6.298,1.529C34.366,24.829,34.291,25.417,34.013,25.919z"/><radialGradient id="BqGn_tqDNPMy1KAaaUqwhg" cx="17.125" cy="11.742" r="33.869" gradientTransform="matrix(.7331 .6801 -.3523 .3798 8.707 -4.364)" gradientUnits="userSpaceOnUse"><stop offset="0" stop-color="#7c7c80"/><stop offset=".179" stop-color="#7e7e82"/><stop offset=".274" stop-color="#86868a"/><stop offset=".348" stop-color="#949498"/><stop offset=".389" stop-color="#9f9fa3"/><stop offset=".899" stop-color="#7c7c80"/></radialGradient><path fill="url(#BqGn_tqDNPMy1KAaaUqwhg)" d="M30.06,16.623l-5.909,4.079c-0.05-0.029-0.07-0.039-0.07-0.039	c-7.869-4.393-10.613-8.531-11.557-11.185c-0.281-0.717-0.432-1.464-0.472-2.192c-0.01-0.147-0.02-0.275-0.02-0.383h0.01	c0-1.582,0.563-3.096,1.708-4.216c2.553-2.496,7.015-2.182,9.949,0.688C27.236,6.706,29.106,13.399,30.06,16.623z"/><radialGradient id="BqGn_tqDNPMy1KAaaUqwhh" cx="25.474" cy="31.187" r="13.553" gradientTransform="matrix(.2536 -.9673 .6487 .1701 -1.217 50.523)" gradientUnits="userSpaceOnUse"><stop offset="0" stop-color="#58585c" stop-opacity="0"/><stop offset="1" stop-color="#58585c"/></radialGradient><path fill="url(#BqGn_tqDNPMy1KAaaUqwhh)" d="M34.013,25.919L26.55,38.974l-0.374,0.641c-0.545,0.053-1.411-0.043-2.363-0.289	c-0.855-0.214-1.593-0.502-2.074-0.78l0.225-0.855l0.192-0.759c0.278-0.652,0.342-1.636,0.278-2.224	c-0.385-3.699,0.021-5.1,0.449-6.255c0.599-1.561,1.604-2.406,2.641-3.197c0.107-0.086,0.941-0.609,1.048-0.652	c2.064-0.748,1.337-1.86,1.337-1.86l6.298,1.529C34.366,24.829,34.291,25.417,34.013,25.919z"/><radialGradient id="BqGn_tqDNPMy1KAaaUqwhi" cx="23.96" cy="7.488" r="18.24" gradientTransform="matrix(-.6811 -.7322 .461 -.4289 36.826 28.242)" gradientUnits="userSpaceOnUse"><stop offset="0" stop-color="#58585c" stop-opacity="0"/><stop offset=".938" stop-color="#58585c" stop-opacity=".938"/><stop offset="1" stop-color="#58585c"/></radialGradient><path fill="url(#BqGn_tqDNPMy1KAaaUqwhi)" d="M30.06,16.623l-5.909,4.079c-0.05-0.029-0.07-0.039-0.07-0.039	c-7.869-4.393-10.613-8.531-11.557-11.185c-0.281-0.717-0.432-1.464-0.472-2.192c-0.01-0.147-0.02-0.275-0.02-0.383h0.01	c0-1.582,0.563-3.096,1.708-4.216c2.553-2.496,7.015-2.182,9.949,0.688C27.236,6.706,29.106,13.399,30.06,16.623z"/><radialGradient id="BqGn_tqDNPMy1KAaaUqwhj" cx="27.58" cy="19.182" r="3.78" gradientUnits="userSpaceOnUse"><stop offset="0" stop-color="#ececf5"/><stop offset=".107" stop-color="#ececf5"/><stop offset=".196" stop-color="#d8d8e0"/><stop offset=".474" stop-color="#9d9da3"/><stop offset=".678" stop-color="#79797d"/><stop offset=".785" stop-color="#6b6b6e"/><stop offset="1" stop-color="#9f9fa3"/></radialGradient><path fill="url(#BqGn_tqDNPMy1KAaaUqwhj)" d="M29.805,18.938l-3.091,2.184c-0.182,0.128-0.406,0.196-0.626,0.17	c-0.993-0.115-1.728-0.476-1.936-0.59l5.909-4.079c0.01,0.02,0.01,0.049,0.02,0.069c0,0,0.157,0.683,0.122,1.515	C30.191,18.498,30.043,18.77,29.805,18.938z"/><linearGradient id="BqGn_tqDNPMy1KAaaUqwhk" x1="33.728" x2="28.427" y1="21.23" y2="27.244" gradientUnits="userSpaceOnUse"><stop offset="0" stop-color="#ececf5"/><stop offset=".107" stop-color="#ececf5"/><stop offset=".196" stop-color="#d8d8e0"/><stop offset=".474" stop-color="#9d9da3"/><stop offset=".678" stop-color="#79797d"/><stop offset=".785" stop-color="#6b6b6e"/><stop offset="1" stop-color="#9f9fa3"/></linearGradient><circle cx="30.751" cy="24.607" r="3.739" fill="url(#BqGn_tqDNPMy1KAaaUqwhk)"/><radialGradient id="BqGn_tqDNPMy1KAaaUqwhl" cx="29.551" cy="25.531" r="4.294" gradientUnits="userSpaceOnUse"><stop offset=".443" stop-color="#7c7c80"/><stop offset="1" stop-color="#9f9fa3"/></radialGradient><circle cx="30.751" cy="24.607" r="3.426" fill="url(#BqGn_tqDNPMy1KAaaUqwhl)"/><radialGradient id="BqGn_tqDNPMy1KAaaUqwhm" cx="30.751" cy="24.607" r="2.244" gradientUnits="userSpaceOnUse"><stop offset="0" stop-color="#5e5e61"/><stop offset=".106" stop-color="#626265"/><stop offset=".213" stop-color="#6d6d71"/><stop offset=".319" stop-color="#808085"/><stop offset=".349" stop-color="#87878c"/><stop offset=".456" stop-color="#77777c"/><stop offset=".623" stop-color="#66666a"/><stop offset=".799" stop-color="#5b5b5f"/><stop offset="1" stop-color="#58585c"/></radialGradient><circle cx="30.751" cy="24.607" r="2.244" fill="url(#BqGn_tqDNPMy1KAaaUqwhm)"/><circle cx="30.751" cy="24.607" r=".748" fill="#58585c"/><linearGradient id="BqGn_tqDNPMy1KAaaUqwhn" x1="21.039" x2="23.611" y1="39.931" y2="44.275" gradientUnits="userSpaceOnUse"><stop offset="0" stop-color="#ececf5"/><stop offset=".107" stop-color="#ececf5"/><stop offset=".196" stop-color="#d8d8e0"/><stop offset=".474" stop-color="#9d9da3"/><stop offset=".678" stop-color="#79797d"/><stop offset=".785" stop-color="#6b6b6e"/><stop offset="1" stop-color="#9f9fa3"/></linearGradient><circle cx="22.683" cy="42.707" r="2.138" fill="url(#BqGn_tqDNPMy1KAaaUqwhn)"/><radialGradient id="BqGn_tqDNPMy1KAaaUqwho" cx="22.683" cy="42.707" r="1.84" gradientUnits="userSpaceOnUse"><stop offset=".443" stop-color="#7c7c80"/><stop offset="1" stop-color="#9f9fa3"/></radialGradient><circle cx="22.683" cy="42.707" r="1.84" fill="url(#BqGn_tqDNPMy1KAaaUqwho)"/><radialGradient id="BqGn_tqDNPMy1KAaaUqwhp" cx="22.683" cy="42.707" r="1.283" gradientUnits="userSpaceOnUse"><stop offset="0" stop-color="#5e5e61"/><stop offset=".106" stop-color="#626265"/><stop offset=".213" stop-color="#6d6d71"/><stop offset=".319" stop-color="#808085"/><stop offset=".349" stop-color="#87878c"/><stop offset=".456" stop-color="#77777c"/><stop offset=".623" stop-color="#66666a"/><stop offset=".799" stop-color="#5b5b5f"/><stop offset="1" stop-color="#58585c"/></radialGradient><circle cx="22.683" cy="42.707" r="1.283" fill="url(#BqGn_tqDNPMy1KAaaUqwhp)"/><circle cx="22.683" cy="42.707" r=".428" fill="#58585c"/></svg>