<svg xmlns="http://www.w3.org/2000/svg" viewBox="0 0 30 30"><path d="M 15 2 C 14.448 2 14 2.448 14 3 L 14 3.171875 C 14 3.649875 13.663406 4.0763437 13.191406 4.1523438 C 12.962406 4.1893437 12.735719 4.2322031 12.511719 4.2832031 C 12.047719 4.3892031 11.578484 4.1265 11.396484 3.6875 L 11.330078 3.53125 C 11.119078 3.02125 10.534437 2.7782344 10.023438 2.9902344 C 9.5134375 3.2012344 9.2704219 3.785875 9.4824219 4.296875 L 9.5488281 4.4570312 C 9.7328281 4.8970313 9.5856875 5.4179219 9.1796875 5.6699219 C 8.9836875 5.7919219 8.7924688 5.9197344 8.6054688 6.0527344 C 8.2174688 6.3297344 7.68075 6.2666875 7.34375 5.9296875 L 7.2226562 5.8085938 C 6.8316562 5.4175937 6.1985937 5.4175938 5.8085938 5.8085938 C 5.4185938 6.1995938 5.4185938 6.8326563 5.8085938 7.2226562 L 5.9296875 7.34375 C 6.2666875 7.68075 6.3297344 8.2164688 6.0527344 8.6054688 C 5.9197344 8.7924687 5.7919219 8.9836875 5.6699219 9.1796875 C 5.4179219 9.5856875 4.8960781 9.7337812 4.4550781 9.5507812 L 4.296875 9.484375 C 3.786875 9.273375 3.2002813 9.5153906 2.9882812 10.025391 C 2.7772813 10.535391 3.0192969 11.120031 3.5292969 11.332031 L 3.6855469 11.396484 C 4.1245469 11.578484 4.3892031 12.047719 4.2832031 12.511719 C 4.2322031 12.735719 4.1873906 12.962406 4.1503906 13.191406 C 4.0753906 13.662406 3.649875 14 3.171875 14 L 3 14 C 2.448 14 2 14.448 2 15 C 2 15.552 2.448 16 3 16 L 3.171875 16 C 3.649875 16 4.0763437 16.336594 4.1523438 16.808594 C 4.1893437 17.037594 4.2322031 17.264281 4.2832031 17.488281 C 4.3892031 17.952281 4.1265 18.421516 3.6875 18.603516 L 3.53125 18.669922 C 3.02125 18.880922 2.7782344 19.465563 2.9902344 19.976562 C 3.2012344 20.486563 3.785875 20.729578 4.296875 20.517578 L 4.4570312 20.451172 C 4.8980312 20.268172 5.418875 20.415312 5.671875 20.820312 C 5.793875 21.016313 5.9206875 21.208484 6.0546875 21.396484 C 6.3316875 21.784484 6.2686406 22.321203 5.9316406 22.658203 L 5.8085938 22.779297 C 5.4175937 23.170297 5.4175938 23.803359 5.8085938 24.193359 C 6.1995938 24.583359 6.8326562 24.584359 7.2226562 24.193359 L 7.3457031 24.072266 C 7.6827031 23.735266 8.2174688 23.670266 8.6054688 23.947266 C 8.7934688 24.081266 8.9856406 24.210031 9.1816406 24.332031 C 9.5866406 24.584031 9.7357344 25.105875 9.5527344 25.546875 L 9.4863281 25.705078 C 9.2753281 26.215078 9.5173438 26.801672 10.027344 27.013672 C 10.062344 27.027672 10.097812 27.022203 10.132812 27.033203 C 10.547812 25.386203 11.982469 24.147344 13.730469 24.027344 L 15.027344 22.730469 C 15.088344 21.838469 15.451 21.034484 16 20.396484 L 16 19 C 16 18.953 15.978656 18.912188 15.972656 18.867188 C 16.704656 18.683187 17.358188 18.30625 17.867188 17.78125 C 17.902188 17.80825 17.924891 17.843234 17.962891 17.865234 L 23.998047 21.318359 C 24.113047 21.154359 24.226031 20.988359 24.332031 20.818359 C 24.584031 20.413359 25.105875 20.264266 25.546875 20.447266 L 25.705078 20.513672 C 25.794078 20.550672 25.885563 20.556406 25.976562 20.566406 C 26.254562 20.400406 26.555094 20.275641 26.871094 20.181641 C 26.921094 20.114641 26.979672 20.053656 27.013672 19.972656 C 27.224672 19.462656 26.982656 18.878016 26.472656 18.666016 L 26.316406 18.601562 C 25.877406 18.419563 25.61275 17.950328 25.71875 17.486328 C 25.76975 17.262328 25.814562 17.035641 25.851562 16.806641 C 25.924563 16.337641 26.350125 16 26.828125 16 L 27 16 C 27.552 16 28 15.552 28 15 C 28 14.448 27.552 14 27 14 L 26.828125 14 C 26.350125 14 25.923656 13.663406 25.847656 13.191406 C 25.810656 12.962406 25.767797 12.735719 25.716797 12.511719 C 25.610797 12.047719 25.8735 11.578484 26.3125 11.396484 L 26.46875 11.330078 C 26.97875 11.119078 27.221766 10.534437 27.009766 10.023438 C 26.798766 9.5134375 26.214125 9.2704219 25.703125 9.4824219 L 25.542969 9.5488281 C 25.101969 9.7318281 24.581125 9.5846875 24.328125 9.1796875 C 24.206125 8.9836875 24.079312 8.7915156 23.945312 8.6035156 C 23.668312 8.2155156 23.731359 7.6787969 24.068359 7.3417969 L 24.191406 7.2207031 C 24.582406 6.8297031 24.582406 6.1966406 24.191406 5.8066406 C 23.800406 5.4156406 23.167344 5.4156406 22.777344 5.8066406 L 22.65625 5.9296875 C 22.31925 6.2666875 21.782531 6.3316875 21.394531 6.0546875 C 21.206531 5.9206875 21.014359 5.7919219 20.818359 5.6699219 C 20.413359 5.4179219 20.266219 4.8960781 20.449219 4.4550781 L 20.515625 4.296875 C 20.726625 3.786875 20.484609 3.2002812 19.974609 2.9882812 C 19.464609 2.7772813 18.879969 3.0192969 18.667969 3.5292969 L 18.601562 3.6855469 C 18.419563 4.1245469 17.950328 4.3892031 17.486328 4.2832031 C 17.262328 4.2322031 17.035641 4.1873906 16.806641 4.1503906 C 16.336641 4.0753906 16 3.649875 16 3.171875 L 16 3 C 16 2.448 15.552 2 15 2 z M 14 7.0683594 L 14 11 C 14 11.047 14.021344 11.087812 14.027344 11.132812 C 13.295344 11.316812 12.641812 11.69375 12.132812 12.21875 C 12.097812 12.19175 12.075109 12.156766 12.037109 12.134766 L 8.6347656 10.169922 C 9.9047656 8.4979219 11.813 7.3423594 14 7.0683594 z M 16 7.0683594 C 18.187 7.3413594 20.095234 8.4979219 21.365234 10.169922 L 17.964844 12.134766 C 17.925844 12.156766 17.902187 12.19175 17.867188 12.21875 C 17.358187 11.69375 16.704656 11.316812 15.972656 11.132812 C 15.978656 11.087813 16 11.047 16 11 L 16 7.0683594 z M 7.625 11.896484 L 11.035156 13.865234 C 11.077156 13.889234 11.123016 13.901922 11.166016 13.919922 C 11.069016 14.265922 11 14.623 11 15 C 11 15.38 11.070922 15.740844 11.169922 16.089844 C 11.125922 16.107844 11.077156 16.109766 11.035156 16.134766 L 7.625 18.103516 C 7.223 17.149516 7 16.1 7 15 C 7 13.899 7.223 12.850484 7.625 11.896484 z M 22.375 11.896484 C 22.777 12.850484 23 13.899 23 15 C 23 16.1 22.777 17.149516 22.375 18.103516 L 18.964844 16.134766 C 18.922844 16.110766 18.874078 16.107844 18.830078 16.089844 C 18.929078 15.741844 19 15.38 19 15 C 19 14.623 18.930984 14.265922 18.833984 13.919922 C 18.877984 13.902922 18.922844 13.889234 18.964844 13.865234 L 22.375 11.896484 z M 15 13.5 C 15.828 13.5 16.5 14.172 16.5 15 C 16.5 15.828 15.828 16.5 15 16.5 C 14.172 16.5 13.5 15.828 13.5 15 C 13.5 14.172 14.172 13.5 15 13.5 z M 12.132812 17.78125 C 12.641813 18.30625 13.293391 18.683188 14.025391 18.867188 C 14.020391 18.912187 14 18.953 14 19 L 14 22.931641 C 11.813 22.658641 9.9047656 21.502078 8.6347656 19.830078 L 12.035156 17.865234 C 12.074156 17.843234 12.098812 17.80725 12.132812 17.78125 z M 19 21 A 2 2 0 0 0 17 23 A 2 2 0 0 0 17.068359 23.517578 L 14.515625 26.070312 A 2 2 0 0 0 14 26 A 2 2 0 0 0 12 28 A 2 2 0 0 0 14 30 A 2 2 0 0 0 16 28 A 2 2 0 0 0 15.931641 27.482422 L 18.484375 24.929688 A 2 2 0 0 0 19 25 A 2 2 0 0 0 19.517578 24.931641 L 22.070312 27.484375 A 2 2 0 0 0 22 28 A 2 2 0 0 0 24 30 A 2 2 0 0 0 26 28 A 2 2 0 0 0 25.931641 27.482422 L 27.484375 25.929688 A 2 2 0 0 0 28 26 A 2 2 0 0 0 30 24 A 2 2 0 0 0 28 22 A 2 2 0 0 0 26 24 A 2 2 0 0 0 26.068359 24.517578 L 24.515625 26.070312 A 2 2 0 0 0 24 26 A 2 2 0 0 0 23.482422 26.068359 L 20.929688 23.515625 A 2 2 0 0 0 21 23 A 2 2 0 0 0 19 21 z"/></svg>