<?xml version="1.0"?><svg xmlns="http://www.w3.org/2000/svg" viewBox="0 0 128 128">    <path d="M 86.300781 5.9003906 C 77.500781 5.9003906 70.300781 13.100391 70.300781 21.900391 L 70.300781 25.300781 C 70.300781 27.000781 71.600781 28.300781 73.300781 28.300781 C 82.100781 28.300781 89.300781 21.100781 89.300781 12.300781 L 89.300781 8.9003906 C 89.300781 7.2003906 88.000781 5.9003906 86.300781 5.9003906 z M 83.300781 12.400391 C 83.300781 16.800391 80.300781 20.500781 76.300781 21.800781 C 76.300781 17.400781 79.300781 13.600391 83.300781 12.400391 z M 55.099609 17.199219 A 4.0999999 4.0999999 0 0 0 51 21.300781 A 4.0999999 4.0999999 0 0 0 55.099609 25.400391 A 4.0999999 4.0999999 0 0 0 59.199219 21.300781 A 4.0999999 4.0999999 0 0 0 55.099609 17.199219 z M 24.199219 22.099609 C 22.499219 22.099609 21.199219 23.399609 21.199219 25.099609 L 21.199219 31 C 21.199219 45.2 32.700391 56.699219 46.900391 56.699219 C 48.600391 56.699219 49.900391 55.399219 49.900391 53.699219 L 49.900391 47.800781 C 49.900391 33.600781 38.399219 22.099609 24.199219 22.099609 z M 27.199219 28.300781 C 36.699219 29.700781 43.900391 50.5 43.900391 50.5 C 34.500391 49 27.199219 40.8 27.199219 31 L 27.199219 28.300781 z M 67.363281 28.400391 C 66.600781 28.400391 65.850781 28.700781 65.300781 29.300781 C 59.500781 35.100781 56.300781 42.899219 56.300781 51.199219 L 56.300781 85.900391 C 47.500781 87.200391 41 94.399219 41 103.19922 C 41 112.89922 49.099219 120.90039 59.199219 120.90039 C 69.199219 120.90039 77.400391 112.99922 77.400391 103.19922 C 77.400391 94.399219 70.799219 87.200781 62.199219 85.800781 L 62.199219 51.099609 C 62.199219 44.399609 64.8 38.2 69.5 33.5 C 70.7 32.3 70.7 30.400781 69.5 29.300781 C 68.9 28.700781 68.125781 28.400391 67.363281 28.400391 z M 104.80078 32.099609 C 85.200781 32.099609 69.300781 47.999609 69.300781 67.599609 L 69.300781 76 C 69.300781 77.7 70.600781 79 72.300781 79 C 91.900781 79 107.80078 63.1 107.80078 43.5 L 107.80078 35.099609 C 107.80078 33.399609 106.40078 32.099609 104.80078 32.099609 z M 72.900391 36 A 3 3 0 0 0 69.900391 39 A 3 3 0 0 0 72.900391 42 A 3 3 0 0 0 75.900391 39 A 3 3 0 0 0 72.900391 36 z M 101.80078 38.199219 C 101.80078 38.199219 90.200781 71.300781 75.300781 72.800781 L 75.300781 67.5 C 75.300781 52.3 86.900781 39.799219 101.80078 38.199219 z M 43.900391 65.800781 A 6.0999999 6.0999999 0 0 0 37.800781 71.900391 A 6.0999999 6.0999999 0 0 0 43.900391 78 A 6.0999999 6.0999999 0 0 0 50 71.900391 A 6.0999999 6.0999999 0 0 0 43.900391 65.800781 z M 59.099609 91.5 C 65.799609 91.5 71.300781 96.699219 71.300781 103.19922 C 71.300781 109.69922 65.799609 114.90039 59.099609 114.90039 C 52.399609 114.90039 47 109.59922 47 103.19922 C 47 96.799219 52.399609 91.5 59.099609 91.5 z"/></svg>