<?xml version="1.0"?><svg xmlns="http://www.w3.org/2000/svg" viewBox="0 0 30 30">    <path d="M 15 2 L 12 7 C 12 7 14 8.25 14 10 C 14 12 12.091 13 11 13 C 10.125 13 9 12.531969 9 11.667969 C 9 10.785969 9.4980469 10.271484 9.4980469 10.271484 L 7 7 L 6.25 11.082031 C 6.25 11.082031 7.1972656 11.442016 7.1972656 12.541016 C 7.1972656 13.372016 6.2106406 13.998047 5.3066406 13.998047 C 4.6536406 13.998047 3.3320312 13.330062 3.3320312 11.789062 L 1 11 L 5 21 L 15 21 L 25 21 L 29 11 L 26.667969 11.791016 C 26.667969 13.332016 25.346359 14 24.693359 14 C 23.789359 14 22.802734 13.373969 22.802734 12.542969 C 22.802734 11.442969 23.75 11.083984 23.75 11.083984 L 23 7 L 20.501953 10.271484 C 20.501953 10.271484 21 10.785969 21 11.667969 C 21 12.531969 19.875 13 19 13 C 17.909 13 16 12 16 10 C 16 8.25 18 7 18 7 L 15 2 z M 15 15 C 16.105 15 17 15.895 17 17 C 17 18.105 16.105 19 15 19 C 13.895 19 13 18.105 13 17 C 13 15.895 13.895 15 15 15 z M 5.5 16 C 5.776 16 6 16.448 6 17 C 6 17.552 5.776 18 5.5 18 C 5.224 18 5 17.552 5 17 C 5 16.448 5.224 16 5.5 16 z M 9 16 C 9.552 16 10 16.448 10 17 C 10 17.552 9.552 18 9 18 C 8.448 18 8 17.552 8 17 C 8 16.448 8.448 16 9 16 z M 21 16 C 21.552 16 22 16.448 22 17 C 22 17.552 21.552 18 21 18 C 20.448 18 20 17.552 20 17 C 20 16.448 20.448 16 21 16 z M 24.5 16 C 24.776 16 25 16.448 25 17 C 25 17.552 24.776 18 24.5 18 C 24.224 18 24 17.552 24 17 C 24 16.448 24.224 16 24.5 16 z M 5 23 A 1.0001 1.0001 0 1 0 5 25 L 25 25 A 1.0001 1.0001 0 1 0 25 23 L 5 23 z"/></svg>