<?xml version="1.0"?><svg xmlns="http://www.w3.org/2000/svg" viewBox="0 0 30 30">    <path d="M 19.642578 0.005859375 L 16.736328 0.79882812 C 16.301328 0.91782812 16 1.3126719 16 1.7636719 L 16 4.4082031 C 16 5.6962031 13 4.7338906 13 7.3378906 C 13 8.3178906 13.949422 9 14.732422 9 C 16.492422 9 17 7.6627344 17 6.1777344 L 17 3.0625 L 19.75 2.2382812 C 19.895 2.2092812 20 2.0815937 20 1.9335938 L 20 0.29882812 C 20 0.10982813 19.827578 -0.031140625 19.642578 0.005859375 z M 28.384766 6.0097656 C 27.912766 6.1237656 27.295219 6.3551719 26.824219 6.8261719 C 26.353219 7.2971719 26.126625 7.9128125 26.015625 8.3828125 C 25.933625 8.7318125 26.271094 9.0664219 26.621094 8.9824219 C 27.093094 8.8684219 27.711641 8.6370156 28.181641 8.1660156 C 28.652641 7.6950156 28.879234 7.079375 28.990234 6.609375 C 29.072234 6.260375 28.734766 5.9257656 28.384766 6.0097656 z M 7 7 A 2 2 0 0 0 5 9 A 2 2 0 0 0 7 11 A 2 2 0 0 0 9 9 A 2 2 0 0 0 7 7 z M 23 7 A 2 2 0 0 0 21 9 A 2 2 0 0 0 23 11 A 2 2 0 0 0 25 9 A 2 2 0 0 0 23 7 z M 28.955078 9.9882812 A 1.0001 1.0001 0 0 0 28.158203 10.458984 A 1 1 0 0 0 28.158203 10.460938 A 1.0001 1.0001 0 0 0 28.105469 10.552734 L 26.552734 13.658203 L 24.292969 12.527344 A 1.0001 1.0001 0 0 0 24.291016 12.527344 C 23.597579 12.181849 22.833304 12 22.056641 12 L 8 12 A 2 2 0 0 0 7.5488281 12.052734 C 6.7792339 12.170865 6.0734969 12.567369 5.5996094 13.199219 L 4 15.332031 L 1.8007812 12.400391 A 1.0003907 1.0003907 0 0 0 1.7890625 12.386719 A 1 1 0 0 0 1.7363281 12.324219 A 1.0003907 1.0003907 0 0 0 1.6035156 12.205078 A 1 1 0 0 0 1.5878906 12.191406 A 1.0003907 1.0003907 0 0 0 1.5742188 12.181641 A 1 1 0 0 0 1.5039062 12.136719 A 1.0003907 1.0003907 0 0 0 1.453125 12.109375 A 1 1 0 0 0 1.4492188 12.107422 A 1.0003907 1.0003907 0 0 0 1.1972656 12.019531 A 1 1 0 0 0 1.140625 12.009766 A 1.0003907 1.0003907 0 0 0 1.1054688 12.005859 A 1 1 0 0 0 1 12 A 1 1 0 0 0 0.98632812 12 A 1.0003907 1.0003907 0 0 0 0.80078125 12.019531 A 1 1 0 0 0 0.7734375 12.027344 A 1.0003907 1.0003907 0 0 0 0.71484375 12.042969 A 1 1 0 0 0 0.67382812 12.056641 A 1.0003907 1.0003907 0 0 0 0.62890625 12.072266 A 1 1 0 0 0 0.58203125 12.09375 A 1.0003907 1.0003907 0 0 0 0.4453125 12.167969 A 1 1 0 0 0 0.40820312 12.193359 A 1.0003907 1.0003907 0 0 0 0.3671875 12.224609 A 1 1 0 0 0 0.32421875 12.265625 A 1.0003907 1.0003907 0 0 0 0.29296875 12.292969 A 1 1 0 0 0 0.27148438 12.316406 A 1.0003907 1.0003907 0 0 0 0.16601562 12.449219 A 1 1 0 0 0 0.14648438 12.480469 A 1.0003907 1.0003907 0 0 0 0.0703125 12.632812 A 1 1 0 0 0 0.06640625 12.642578 A 1.0003907 1.0003907 0 0 0 0.017578125 12.8125 A 1 1 0 0 0 0.009765625 12.865234 A 1.0003907 1.0003907 0 0 0 0.00390625 12.919922 A 1 1 0 0 0 0 13 A 1.0003907 1.0003907 0 0 0 0.01953125 13.199219 A 1 1 0 0 0 0.044921875 13.294922 A 1.0003907 1.0003907 0 0 0 0.044921875 13.296875 A 1 1 0 0 0 0.078125 13.388672 A 1.0003907 1.0003907 0 0 0 0.078125 13.390625 A 1 1 0 0 0 0.12304688 13.478516 A 1.0003907 1.0003907 0 0 0 0.12304688 13.480469 A 1 1 0 0 0 0.17382812 13.564453 A 1.0003907 1.0003907 0 0 0 0.17382812 13.566406 A 1.0003907 1.0003907 0 0 0 0.19921875 13.599609 A 1 1 0 0 0 0.234375 13.644531 L 3.1992188 17.599609 A 1.0001 1.0001 0 0 0 3.2109375 17.613281 A 1 1 0 0 0 3.2617188 17.673828 A 1.0001 1.0001 0 0 0 3.2636719 17.675781 A 1.0001 1.0001 0 0 0 3.2695312 17.679688 A 1 1 0 0 0 3.3183594 17.730469 A 1.0001 1.0001 0 0 0 3.3632812 17.769531 A 1 1 0 0 0 3.3964844 17.794922 A 1.0001 1.0001 0 0 0 3.4257812 17.818359 A 1 1 0 0 0 3.4863281 17.857422 A 1.0001 1.0001 0 0 0 3.5351562 17.884766 A 1 1 0 0 0 3.5507812 17.892578 A 1.0001 1.0001 0 0 0 3.6269531 17.927734 A 1 1 0 0 0 3.6464844 17.933594 A 1.0001 1.0001 0 0 0 3.8046875 17.980469 A 1 1 0 0 0 3.8554688 17.988281 A 1.0001 1.0001 0 0 0 3.8710938 17.992188 A 1 1 0 0 0 3.9707031 18 A 1.0001 1.0001 0 0 0 4 18 A 1 1 0 0 0 4.0136719 18 A 1.0001 1.0001 0 0 0 4.2949219 17.955078 A 1 1 0 0 0 4.4179688 17.90625 A 1.0001 1.0001 0 0 0 4.5644531 17.826172 A 1 1 0 0 0 4.6328125 17.775391 A 1.0001 1.0001 0 0 0 4.6445312 17.765625 A 1 1 0 0 0 4.7070312 17.707031 A 1.0001 1.0001 0 0 0 4.7167969 17.697266 A 1 1 0 0 0 4.7285156 17.683594 L 6.4179688 16.222656 L 7.0214844 20.292969 L 7.0234375 20.294922 A 2 2 0 0 0 7.5507812 21.373047 A 1.0001 1.0001 0 0 0 7.5859375 21.414062 L 13.230469 27.640625 A 1 1 0 0 0 13.248047 27.660156 L 13.259766 27.671875 A 1 1 0 0 0 13.302734 27.716797 A 1.0001 1.0001 0 0 0 14.765625 26.355469 A 1 1 0 0 0 14.740234 26.328125 L 14.726562 26.3125 L 13.978516 25.207031 A 1.0001 1.0001 0 0 0 13.980469 25.195312 L 14.980469 20.195312 A 1.0001 1.0001 0 0 0 14.128906 19.009766 L 11.220703 18.283203 L 10.671875 14.496094 L 15 14 L 19.216797 14 C 19.285028 14.560114 19.558594 16.695312 19.558594 16.695312 L 17.244141 20.347656 A 1 1 0 0 0 17 21 A 1 1 0 0 0 18 22 L 18.388672 22 L 17.039062 26.724609 A 1 1 0 0 0 17.037109 26.732422 A 1.0001 1.0001 0 1 0 18.960938 27.275391 L 20.074219 23.375 A 1.0001 1.0001 0 0 0 20.105469 23.447266 L 22.105469 27.447266 A 1.0001163 1.0001163 0 0 0 22.166016 27.550781 A 1 1 0 0 0 22.265625 27.677734 A 1.0001163 1.0001163 0 0 0 22.291016 27.703125 A 1 1 0 0 0 22.320312 27.732422 A 1.0001163 1.0001163 0 0 0 22.373047 27.777344 A 1 1 0 0 0 22.390625 27.791016 A 1.0001163 1.0001163 0 0 0 22.447266 27.833984 A 1 1 0 0 0 22.474609 27.849609 A 1.0001163 1.0001163 0 0 0 22.621094 27.925781 A 1 1 0 0 0 22.662109 27.939453 A 1.0001163 1.0001163 0 0 0 22.722656 27.958984 A 1 1 0 0 0 22.763672 27.970703 A 1.0001163 1.0001163 0 0 0 22.802734 27.980469 A 1 1 0 0 0 22.880859 27.992188 A 1.0001163 1.0001163 0 0 0 22.892578 27.994141 A 1 1 0 0 0 22.984375 28 A 1.0001163 1.0001163 0 0 0 23 28 A 1 1 0 0 0 23.015625 28 A 1.0001163 1.0001163 0 0 0 23.214844 27.976562 A 1 1 0 0 0 23.289062 27.957031 A 1.0001163 1.0001163 0 0 0 23.294922 27.955078 A 1 1 0 0 0 23.382812 27.923828 A 1.0001163 1.0001163 0 0 0 23.388672 27.921875 A 1 1 0 0 0 23.472656 27.880859 A 1.0001163 1.0001163 0 0 0 23.478516 27.876953 A 1 1 0 0 0 23.558594 27.830078 A 1.0001163 1.0001163 0 0 0 23.560547 27.828125 A 1.0001163 1.0001163 0 0 0 23.564453 27.826172 A 1 1 0 0 0 23.638672 27.769531 A 1.0001163 1.0001163 0 0 0 23.644531 27.765625 A 1 1 0 0 0 23.669922 27.740234 A 1.0001163 1.0001163 0 0 0 23.716797 27.697266 A 1 1 0 0 0 23.779297 27.626953 A 1.0001163 1.0001163 0 0 0 23.783203 27.621094 A 1 1 0 0 0 23.837891 27.546875 A 1.0001163 1.0001163 0 0 0 23.839844 27.544922 A 1.0001163 1.0001163 0 0 0 23.841797 27.541016 A 1 1 0 0 0 23.849609 27.529297 A 1.0001163 1.0001163 0 0 0 23.931641 27.363281 A 1 1 0 0 0 23.960938 27.275391 A 1.0001163 1.0001163 0 0 0 23.962891 27.267578 A 1 1 0 0 0 23.984375 27.177734 A 1.0001163 1.0001163 0 0 0 23.986328 27.169922 A 1 1 0 0 0 23.998047 27.078125 A 1.0001163 1.0001163 0 0 0 23.998047 27.070312 A 1 1 0 0 0 23.998047 27.050781 A 1.0001163 1.0001163 0 0 0 23.994141 26.900391 A 1 1 0 0 0 23.992188 26.878906 A 1.0001163 1.0001163 0 0 0 23.980469 26.800781 A 1 1 0 0 0 23.978516 26.794922 A 1.0001163 1.0001163 0 0 0 23.921875 26.611328 A 1 1 0 0 0 23.912109 26.589844 A 1.0001163 1.0001163 0 0 0 23.894531 26.552734 L 22.117188 23 L 22.617188 22 L 25 22 A 1 1 0 0 0 26 21 A 1 1 0 0 0 25.712891 20.298828 L 25.714844 20.294922 L 23.390625 17.484375 L 24.166016 14.699219 L 26.552734 15.894531 A 1 1 0 0 0 26.636719 15.931641 A 1.0001 1.0001 0 0 0 26.710938 15.955078 A 1 1 0 0 0 26.740234 15.964844 A 1 1 0 0 0 26.929688 15.998047 A 1.0001 1.0001 0 0 0 26.970703 16 L 27.001953 16.013672 L 26.982422 16 A 1.0001 1.0001 0 0 0 27.099609 15.994141 A 1 1 0 0 0 27.105469 15.994141 A 1.0001 1.0001 0 0 0 27.164062 15.984375 A 1 1 0 0 0 27.216797 15.976562 A 1.0001 1.0001 0 0 0 27.294922 15.955078 A 1 1 0 0 0 27.330078 15.943359 A 1.0001 1.0001 0 0 0 27.34375 15.9375 A 1 1 0 0 0 27.421875 15.90625 A 1.0001 1.0001 0 0 0 27.478516 15.876953 A 1 1 0 0 0 27.482422 15.875 A 1.0001 1.0001 0 0 0 27.539062 15.841797 A 1 1 0 0 0 27.59375 15.804688 A 1.0001 1.0001 0 0 0 27.603516 15.796875 A 1 1 0 0 0 27.671875 15.740234 A 1.0001 1.0001 0 0 0 27.716797 15.697266 A 1 1 0 0 0 27.742188 15.669922 A 1.0001 1.0001 0 0 0 27.783203 15.621094 A 1 1 0 0 0 27.804688 15.59375 A 1.0001 1.0001 0 0 0 27.841797 15.541016 A 1 1 0 0 0 27.849609 15.527344 A 1.0001 1.0001 0 0 0 27.890625 15.453125 A 1 1 0 0 0 27.894531 15.447266 L 29.890625 11.453125 A 1 1 0 0 0 29.894531 11.447266 A 1.0001 1.0001 0 0 0 28.955078 9.9882812 z M 11.130859 21 L 12.78125 21 L 12.404297 22.880859 L 11.130859 21 z"/></svg>