<svg xmlns="http://www.w3.org/2000/svg" viewBox="0 0 100 100"><circle cx="78" cy="14" r="1" fill="#f1bc19"/><circle cx="50" cy="50" r="38" fill="#f9dbd2"/><circle cx="84" cy="16" r="4" fill="#f1bc19"/><circle cx="14" cy="26" r="2" fill="#ee3e54"/><circle cx="78" cy="77" r="2" fill="#fbcd59"/><circle cx="17" cy="78" r="4" fill="#fbcd59"/><circle cx="24" cy="83" r="2" fill="#ee3e54"/><circle cx="64.483" cy="78.517" r="2.483" fill="#fff"/><circle cx="16" cy="48" r="1" fill="#fff"/><circle cx="86" cy="31" r="1" fill="#f1bc19"/><circle cx="84" cy="45" r="2" fill="#fff"/><circle cx="50" cy="50" r="24.25" fill="#77cbd2" stroke="#472b29" stroke-miterlimit="10" stroke-width="1.4"/><path fill="none" stroke="#472b29" stroke-linecap="round" stroke-linejoin="round" stroke-miterlimit="10" d="M67.145,38.758	c1.446,2.201,2.479,4.696,2.991,7.377"/><path fill="none" stroke="#472b29" stroke-linecap="round" stroke-linejoin="round" stroke-miterlimit="10" d="M70.5,50	c0,11.322-9.178,20.5-20.5,20.5S29.5,61.322,29.5,50S38.678,29.5,50,29.5c5.582,0,10.642,2.231,14.339,5.849"/><polygon fill="#fff" points="50,32.286 53.948,44.226 66.522,44.29 56.387,51.734 60.211,63.714 50,56.375 39.789,63.714 43.613,51.734 33.478,44.29 46.052,44.226"/><polyline fill="none" stroke="#472b29" stroke-linecap="round" stroke-linejoin="round" stroke-miterlimit="10" stroke-width=".5" points="44.717,60.172 39.789,63.714 43.613,51.734 33.478,44.29 46.052,44.226 47.802,38.934"/><polyline fill="none" stroke="#472b29" stroke-linecap="round" stroke-linejoin="round" stroke-miterlimit="10" stroke-width=".5" points="59.342,49.564 56.387,51.734 60.211,63.714 50,56.375 47.329,58.295"/><polyline fill="none" stroke="#472b29" stroke-linecap="round" stroke-linejoin="round" stroke-miterlimit="10" stroke-width=".5" points="48.82,35.856 50,32.286 53.948,44.226 66.522,44.29 61.934,47.66"/></svg>