<svg xmlns="http://www.w3.org/2000/svg" width="512" height="512" viewBox="0 0 512 512"><path fill="#4ABC96" d="M7.9,256C7.9,119,119,7.9,256,7.9C393,7.9,504.1,119,504.1,256c0,137-111.1,248.1-248.1,248.1C119,504.1,7.9,393,7.9,256z"/><path fill="#DFF1ED" d="M412.7,313.2c0,18.1-14.6,32.7-32.7,32.7H132c-18.1,0-32.7-14.6-32.7-32.7V168.8c0-18.1,14.6-32.7,32.7-32.7h248c18.1,0,32.7,14.6,32.7,32.7V313.2z"/><path fill="#DFF1ED" d="M337,389.9c-2.6,2.6-6.7,2.6-9.3,0l-31.3-44.3c-2.6-2.6-2.6-6.7,0-9.3h72c2.6,2.6,2.6,6.7,0,9.3L337,389.9z"/><g><path fill="#B7CAC4" d="M359.2,205.4l-100.5-50.2l-99.2,50.2c0,1.3,0,9.6,0,11L260.1,270l99.2-53.7C359.2,215,359.2,206.7,359.2,205.4z"/><path fill="#FFF" d="M207.8,149.9c-3.6,0-6.5,2.9-6.5,6.5V287c0,3.6,2.9,6.5,6.5,6.5h97.7c3.6,0,6.5-2.9,6.5-6.5V174.9l-25.5-25H207.8z"/><path fill="#DBDBDA" d="M312.1,174.9H297c-5.9,0-10.6-4.8-10.6-10.6l0.1-14.4L312.1,174.9z"/><path fill="#B7CAC4" d="M297.9 188.7c0 1.8-1.5 3.3-3.3 3.3h-76.8c-1.8 0-3.3-1.5-3.3-3.3l0 0c0-1.8 1.5-3.3 3.3-3.3h76.8C296.4 185.4 297.9 186.9 297.9 188.7L297.9 188.7zM297.9 202.9c0 1.8-1.5 3.3-3.3 3.3h-76.8c-1.8 0-3.3-1.5-3.3-3.3l0 0c0-1.8 1.5-3.3 3.3-3.3h76.8C296.4 199.6 297.9 201.1 297.9 202.9L297.9 202.9zM297.9 217.6c0 1.8-1.5 3.3-3.3 3.3h-76.8c-1.8 0-3.3-1.5-3.3-3.3l0 0c0-1.8 1.5-3.3 3.3-3.3h76.8C296.4 214.3 297.9 215.8 297.9 217.6L297.9 217.6zM257 233.2c0 1.8-1.5 3.3-3.3 3.3h-36c-1.8 0-3.3-1.5-3.3-3.3l0 0c0-1.8 1.5-3.3 3.3-3.3h36C255.6 230 257 231.4 257 233.2L257 233.2z"/><g><path fill="#B7CAC4" d="M159.6,221.2l0,94.8c0,4.9,4,8.9,8.9,8.9h181.8c4.9,0,8.9-4,8.9-8.9l-0.2-95l-99,54.4L159.6,221.2"/></g></g></svg>