<svg xmlns="http://www.w3.org/2000/svg" viewBox="0 0 100 100"><path d="M 25 26 A 1.0001 1.0001 0 0 0 24 27 L 24 29 L 4 29 A 1.0001 1.0001 0 0 0 3.0253906 30.224609 C 3.0253906 30.224609 3.8465967 33.74462 7.015625 37.177734 C 10.067416 40.483842 15.360673 43.739488 24 43.976562 L 24 45.832031 A 1.0001 1.0001 0 0 0 24.289062 46.716797 A 1.0001 1.0001 0 0 0 24.294922 46.722656 A 1.0001 1.0001 0 0 0 24.308594 46.736328 A 1.0001 1.0001 0 0 0 25.125 47.005859 C 30.6009 47.073309 35 51.507709 35 57 C 35 62.494925 30.596748 66.930855 25.117188 66.994141 A 1.0001 1.0001 0 0 0 24.283203 67.289062 A 1.0001 1.0001 0 0 0 24.277344 67.294922 A 1.0001 1.0001 0 0 0 24.263672 67.308594 A 1.0001 1.0001 0 0 0 24 68.158203 L 24 74 A 1.0001 1.0001 0 0 0 25 75 L 41.025391 75 A 1.0001 1.0001 0 0 0 41.804688 74.625 C 43.897818 72.014317 48.548899 70 54 70 C 59.451101 70 64.102181 72.014317 66.195312 74.625 A 1.0001 1.0001 0 0 0 66.974609 75 L 81 75 A 1.0001 1.0001 0 0 0 82 74 L 82 68.167969 A 1.0001 1.0001 0 0 0 81.710938 67.283203 A 1.0001 1.0001 0 0 0 81.707031 67.279297 A 1.0001 1.0001 0 0 0 81.699219 67.271484 A 1.0001 1.0001 0 0 0 81.691406 67.263672 A 1.0001 1.0001 0 0 0 80.943359 66.988281 C 75.436723 66.955924 71 62.5144 71 57 C 71 53.083333 72.92645 49.510516 76.699219 46.396484 C 80.471988 43.282453 86.088865 40.697435 93.234375 38.972656 A 1.0001 1.0001 0 0 0 94 38 L 94 33 L 96 33 A 1.0001 1.0001 0 0 0 97 32 L 97 27 A 1.0001 1.0001 0 0 0 96 26 L 25 26 z M 26 28 L 95 28 L 95 31 L 93 31 A 1.0001 1.0001 0 0 0 92 32 L 92 37.283203 C 85.040157 39.05566 79.369225 41.59861 75.425781 44.853516 C 72.552948 47.224743 70.556278 49.984948 69.615234 53 L 62.5 53 A 0.50005 0.50005 0 1 0 62.5 54 L 69.347656 54 C 69.122636 54.977348 69 55.977994 69 57 C 69 62.04487 72.167772 66.268512 76.601562 68 L 67.773438 68 C 65.284361 62.69368 60.03933 59 54 59 C 47.96067 59 42.71564 62.69368 40.226562 68 L 29.779297 68 C 34.022923 66.148446 37 61.916934 37 57 C 37 55.962544 36.854297 54.960891 36.605469 54 L 58.5 54 A 0.50005 0.50005 0 1 0 58.5 53 L 36.298828 53 C 34.752897 48.648809 30.773384 45.447734 26 45.050781 L 26 43.167969 A 1.0001 1.0001 0 0 0 26 42.841797 L 26 30.167969 A 1.0001 1.0001 0 0 0 26 29.841797 L 26 28 z M 5.4277344 31 L 24 31 L 24 41.978516 C 15.869062 41.749287 11.204601 38.769177 8.484375 35.822266 C 6.5788079 33.757901 5.8326114 32.103209 5.4277344 31 z M 28.5 31 A 0.50005 0.50005 0 1 0 28.5 32 L 76.5 32 A 0.50005 0.50005 0 1 0 76.5 31 L 28.5 31 z M 79.5 31 A 0.50005 0.50005 0 1 0 79.5 32 L 85.5 32 A 0.50005 0.50005 0 1 0 85.5 31 L 79.5 31 z M 88.5 31 A 0.50005 0.50005 0 1 0 88.5 32 L 89.5 32 A 0.50005 0.50005 0 1 0 89.5 31 L 88.5 31 z M 54 60 C 59.747304 60 64.770711 63.56635 67.042969 68.703125 A 0.50005 0.50005 0 0 0 67.5 69 L 80 69 L 80 73 L 67.347656 73 C 64.604915 69.929069 59.680418 68 54 68 C 48.319582 68 43.395085 69.929069 40.652344 73 L 26 73 L 26 69 L 40.5 69 A 0.50005 0.50005 0 0 0 40.957031 68.703125 C 43.229289 63.56635 48.252696 60 54 60 z"/></svg>