<svg xmlns="http://www.w3.org/2000/svg" viewBox="0 0 48 48"><path fill="#1e4384" d="M19.25,31.063c0,0,6.281-2.281,11.406,0c2.094-3,5.719-9.25,5.719-9.25s0.188-6.781-11.438-6.406 S12.5,17.469,11.938,20S19.25,31.063,19.25,31.063z"/><path fill="#73a1b2" d="M20.143,46.5c-4.216-0.809-7.65-3.822-9.31-8.333c-0.132-0.357-0.252-0.731-0.25-1.119 c0.003-0.437,0.16-0.851,0.308-1.254c0.382-1.046,0.355-3.139,0.627-4.229c0.264-1.056,0.477-2.153,0.378-3.245 c-0.105-1.154-0.549-2.225-0.899-3.314c-1.485-4.615-1.37-9.651,0.47-14.095c1.151-2.575,3.423-3.839,5.715-5.054 s5.591-2.229,7.24-4.419c3.501,4.879,6.963,4.042,10.758,8.624c1.546,1.994,2.419,7.085,2.336,9.751 c-0.088,2.817-0.983,5.437-0.986,8.255c-0.002,1.944,0.506,4.844,1.14,6.648c0.298,0.849,0.632,1.76,0.443,2.649 c-0.137,0.644-0.529,1.17-0.914,1.665c-2.528,3.257-4.92,6.61-8.651,7.47c0.271-4.509,0.943-10.281,1.213-14.789 c0.097-1.611,0.192-3.242-0.065-4.829c-0.048-0.298-0.107-0.621,0.009-0.894c0.096-0.227,0.294-0.371,0.486-0.496 c1.01-0.658,2.121-1.113,3.266-1.337c0.326-0.064,0.689-0.131,0.893-0.429c0.176-0.258,0.18-0.614,0.163-0.941 c-0.081-1.569-0.456-3.118-1.093-4.511c-2.193,0.838-4.386,1.676-6.579,2.514c-0.102,0.039-0.209,0.081-0.282,0.172 c-0.109,0.135-0.114,0.337-0.114,0.52c0.003,1.367,0.006,2.733,0.008,4.1c0.003,1.361,0.035,2.829,0.752,3.915 c0.162,0.246,0.366,0.497,0.358,0.805c-0.006,0.237-0.14,0.442-0.275,0.623c-0.666,0.893-1.445,2.159-2.371,2.661 c-0.711-0.358-1.502-1.275-2.004-1.954c-0.502-0.678-0.692-1.749-0.219-2.454c0.237-0.353,0.612-0.584,0.771-0.99 c0.114-0.293,0.095-0.628,0.074-0.948c-0.125-1.86-0.249-3.721-0.374-5.581c-0.012-0.177-0.026-0.363-0.113-0.511 c-0.11-0.189-0.312-0.273-0.5-0.345c-2.823-1.087-5.337-1.442-8.177-2.467c-0.348,1.379-0.851,2.646-0.765,4.078 c0.02,0.336,0.063,0.697,0.267,0.94c0.189,0.225,0.473,0.296,0.74,0.357c1.498,0.342,2.996,0.685,4.494,1.027 c0.233,0.053,0.475,0.111,0.664,0.277c0.355,0.313,0.408,0.892,0.432,1.404C20.489,32.525,19.861,40.392,20.143,46.5z"/><path fill="#febf10" d="M28.25,5.36c-1.179,2.325-2.593,7.359-3.636,10.109c-1.434-2.991-3.003-8.09-5.016-10.726 c0,0,4.506-2.063,4.789-3.063C25.108,2.711,28.25,5.36,28.25,5.36z"/><path fill="#010101" d="M38.141,34.55c-0.625-1.781-1.114-4.628-1.111-6.481c0.002-1.435,0.238-2.798,0.488-4.241 c0.224-1.29,0.455-2.624,0.498-3.999c0.087-2.778-0.799-7.955-2.45-10.086c-1.879-2.269-3.675-3.25-5.411-4.198 c-1.835-1.002-3.568-1.949-5.326-4.398c-0.093-0.129-0.242-0.206-0.4-0.208c-0.145-0.008-0.309,0.071-0.405,0.199 c-1.152,1.53-3.181,2.456-5.142,3.352c-0.681,0.311-1.34,0.612-1.934,0.927c-2.194,1.164-4.682,2.483-5.926,5.268 c-2.22,4.333-2.391,9.346-0.494,14.496c0.379,1.03,0.771,2.096,0.87,3.186c0.095,1.046-0.12,2.098-0.365,3.079 c-0.264,1.054-0.947,5.085-0.95,5.602c-0.002,0.484,0.144,0.923,0.281,1.295c1.709,4.645,5.239,7.798,9.685,8.651 c0.149,0.028,0.306-0.014,0.421-0.113c0.116-0.101,0.179-0.248,0.172-0.401c-0.14-3.035-0.052-6.579,0.032-10.006 c0.043-1.746,0.087-3.521,0.101-5.247c0.399-0.182,0.836-0.267,1.273-0.248c0.104,0.352,0.262,0.681,0.462,0.952 c0.56,0.756,1.482,1.552,2.243,1.936c0.146,0.075,0.319,0.071,0.463-0.007c0.899-0.488,1.59-1.433,2.199-2.266l0.272-0.369 c0.091-0.122,0.183-0.258,0.254-0.412c0.423-0.169,0.948-0.102,1.304,0.181c0.016,0.013,0.035,0.018,0.052,0.029 c-0.012,0.221-0.024,0.442-0.037,0.661c-0.135,2.247-0.374,4.855-0.605,7.379c-0.232,2.531-0.472,5.148-0.608,7.41 c-0.009,0.157,0.056,0.311,0.176,0.412C28.315,46.959,28.43,47,28.547,47c0.038,0,0.075-0.004,0.112-0.013 c3.678-0.848,6.117-4.005,8.475-7.058l0.458-0.593c0.355-0.457,0.841-1.084,1.008-1.868C38.814,36.464,38.468,35.479,38.141,34.55z M27.734,5.294c-1.127,2.38-1.887,4.917-2.703,7.425c-0.054-3.294-0.104-6.589-0.132-9.883C25.844,3.923,26.793,4.685,27.734,5.294 z M23.897,2.73c0.028,3.371,0.08,6.743,0.136,10.114c-1.09-2.714-2.084-5.501-3.717-7.919C21.584,4.326,22.873,3.643,23.897,2.73z M20.775,30.151c0-1.298-0.013-2.57-0.068-3.758c-0.029-0.619-0.102-1.317-0.601-1.756c-0.286-0.252-0.63-0.332-0.883-0.39 l-4.495-1.027c-0.208-0.048-0.386-0.095-0.468-0.191c-0.12-0.143-0.14-0.484-0.15-0.648c-0.062-1.022,0.208-1.978,0.495-2.988 c0.039-0.136,0.077-0.272,0.115-0.409c1.179,0.399,2.31,0.697,3.408,0.987c1.431,0.377,2.783,0.734,4.245,1.297 c0.072,0.027,0.221,0.085,0.247,0.13c0.029,0.05,0.04,0.207,0.045,0.292l0.375,5.58c0.017,0.253,0.036,0.54-0.041,0.734 c-0.059,0.151-0.189,0.287-0.339,0.443c-0.136,0.142-0.271,0.285-0.381,0.45c-0.219,0.326-0.323,0.696-0.348,1.073 C21.539,29.971,21.148,30.032,20.775,30.151z M27.95,29.773c-0.077-0.178-0.178-0.333-0.264-0.46l-0.064-0.095 c-0.613-0.929-0.666-2.198-0.669-3.657l-0.008-4.083c0-0.046,0-0.185-0.018-0.185c0.016-0.011,0.069-0.031,0.092-0.04l6.131-2.343 c0.497,1.22,0.793,2.558,0.862,3.898c0.007,0.146,0.025,0.485-0.077,0.634c-0.085,0.125-0.318,0.17-0.576,0.221 c-1.213,0.237-2.372,0.711-3.443,1.408c-0.264,0.173-0.528,0.38-0.673,0.721c-0.168,0.397-0.101,0.81-0.042,1.169 c0.156,0.962,0.171,1.953,0.142,2.942C28.906,29.719,28.416,29.678,27.95,29.773z M37.622,37.262 c-0.11,0.518-0.436,0.968-0.819,1.462l-0.46,0.595c-2.196,2.844-4.279,5.54-7.252,6.512c0.139-2.079,0.354-4.413,0.561-6.679 c0.232-2.531,0.472-5.148,0.608-7.41c0.097-1.617,0.197-3.288-0.075-4.969c-0.037-0.226-0.075-0.458-0.02-0.59 c0.042-0.1,0.176-0.192,0.298-0.272c0.963-0.626,2.002-1.052,3.101-1.268c0.372-0.072,0.881-0.171,1.198-0.635 c0.257-0.375,0.272-0.822,0.25-1.249c-0.083-1.626-0.477-3.248-1.138-4.693c-0.11-0.24-0.388-0.353-0.633-0.259l-6.579,2.514 c-0.124,0.047-0.331,0.126-0.494,0.325c-0.226,0.28-0.225,0.642-0.224,0.835l0.008,4.101c0.002,1.238,0.006,2.935,0.834,4.188 l0.071,0.106c0.102,0.15,0.208,0.306,0.205,0.411c-0.002,0.094-0.09,0.223-0.175,0.337l-0.279,0.378 c-0.511,0.699-1.038,1.419-1.643,1.837c-0.579-0.352-1.24-0.949-1.652-1.505c-0.377-0.512-0.558-1.354-0.206-1.878 c0.078-0.117,0.176-0.216,0.272-0.315c0.196-0.204,0.418-0.436,0.549-0.772c0.157-0.401,0.129-0.823,0.107-1.163l-0.375-5.581 c-0.014-0.201-0.032-0.476-0.18-0.73c-0.204-0.348-0.547-0.479-0.752-0.559c-1.513-0.582-2.955-0.963-4.349-1.33 c-1.236-0.326-2.514-0.663-3.837-1.142c-0.133-0.047-0.279-0.036-0.405,0.029c-0.125,0.066-0.215,0.182-0.25,0.319 c-0.078,0.308-0.163,0.609-0.248,0.909c-0.296,1.047-0.603,2.129-0.531,3.321c0.026,0.435,0.091,0.884,0.383,1.23 c0.305,0.363,0.73,0.46,1.012,0.523l4.493,1.027c0.171,0.039,0.349,0.08,0.446,0.166c0.223,0.195,0.249,0.752,0.263,1.052 c0.14,3.035,0.052,6.579-0.032,10.006c-0.079,3.203-0.161,6.508-0.058,9.426c-3.801-0.951-6.81-3.79-8.314-7.878 c-0.107-0.29-0.221-0.627-0.22-0.943c0.004-0.37,0.642-4.253,0.919-5.365c0.254-1.015,0.499-2.214,0.391-3.411 c-0.111-1.221-0.526-2.35-0.928-3.441c-1.798-4.881-1.644-9.616,0.457-13.719c1.115-2.494,3.441-3.728,5.493-4.816 c0.576-0.306,1.218-0.598,1.88-0.9c0.034-0.016,0.07-0.032,0.104-0.048c2.153,3.149,3.181,6.937,4.782,10.371 c0.199,0.427,0.78,0.243,0.914-0.119c1.199-3.238,2.016-6.659,3.494-9.787c0.363,0.21,0.725,0.411,1.085,0.607 c1.653,0.903,3.363,1.837,5.11,3.946c1.459,1.884,2.309,6.923,2.231,9.429c-0.041,1.305-0.266,2.604-0.484,3.86 c-0.247,1.42-0.501,2.89-0.503,4.409c-0.002,1.982,0.5,4.912,1.189,6.877C37.494,35.724,37.777,36.53,37.622,37.262z"/></svg>