<?xml version="1.0"?><svg xmlns="http://www.w3.org/2000/svg" viewBox="0 0 16 16">    <path d="M 1 2 L 1 4 C 1 6.3825063 1.2390825 8.8250721 2.2441406 10.742188 C 3.2491988 12.659301 5.1043636 14 8 14 C 10.895636 14 12.750801 12.659301 13.755859 10.742188 C 14.760918 8.8250721 15 6.3825063 15 4 L 15 2.5 L 15 2 L 14 2 L 14 2.5 C 14 4.2110221 12.855736 5.8154154 10.871094 7.0234375 C 8.8864517 8.2314596 6.0932557 9 3 9 L 2.6152344 9 C 2.292895 7.966562 2.1242754 6.791368 2.0507812 5.5722656 C 2.6761794 6.4481556 3.5605544 7.2443569 4.671875 7.9121094 C 5.248875 7.8561094 5.8095625 7.7721094 6.3515625 7.6621094 C 3.6375625 6.4361094 2 4.532 2 2.5 L 2 2 L 1 2 z M 13.949219 5.578125 C 13.842998 7.332481 13.539841 8.9980043 12.869141 10.277344 C 11.999199 11.936729 10.604364 13 8 13 C 5.3956364 13 4.0008012 11.936729 3.1308594 10.277344 C 3.0845187 10.188951 3.0468432 10.091968 3.0039062 10 C 6.2600895 9.9993556 9.2138969 9.2018953 11.390625 7.8769531 C 12.447117 7.2338818 13.322173 6.4543204 13.949219 5.578125 z"/></svg>