<svg xmlns="http://www.w3.org/2000/svg" width="512" height="512" viewBox="0 0 512 512"><path fill="#337180" d="M504.1,256C504.1,119,393,7.9,256,7.9C119,7.9,7.9,119,7.9,256C7.9,393,119,504.1,256,504.1C393,504.1,504.1,393,504.1,256z"/><path fill="#B5E3EA" d="M311.2,247.1c0,30.5-24.7,55.2-55.2,55.2l0,0c-30.5,0-55.2-24.7-55.2-55.2v-82.8c0-30.5,24.7-55.2,55.2-55.2l0,0c30.5,0,55.2,24.7,55.2,55.2V247.1z"/><path fill="#337180" d="M293.2,198h-74.3v-31.7c0-20.5,16.6-37.1,37.1-37.1l0,0c20.5,0,37.2,16.6,37.2,37.1V198z"/><path fill="#B5E3EA" d="M345,206.2c-6.5,0-11.7,5.2-11.7,11.7v31.2c0,42.6-34.7,77.3-77.3,77.3c-42.6,0-77.3-34.7-77.3-77.3v-31.2c0-6.5-5.2-11.7-11.7-11.7c-6.5,0-11.7,5.2-11.7,11.7v31.2c0,51.5,38.9,94.1,89,99.9v30.6h-27.1c-6.5,0-11.7,5.2-11.7,11.7c0,6.5,5.2,11.7,11.7,11.7h77.6c6.5,0,11.7-5.2,11.7-11.7c0-6.5-5.2-11.7-11.7-11.7h-27.1V349c50-5.8,89-48.4,89-99.9v-31.2C356.6,211.5,351.4,206.2,345,206.2z"/></svg>