<svg xmlns="http://www.w3.org/2000/svg" viewBox="0 0 24 24"><path d="M -0.375 0 L 2 7.125 L 4 23.125 L 4.125 24 L 17.875 24 L 18 23.125 L 19.125 14.90625 L 19.3125 14.90625 C 21.371094 14.90625 23.148438 13.386719 23.40625 11.3125 L 24 6.625 L 24 6.5 C 24 6.128906 23.851563 5.726563 23.5625 5.4375 C 23.273438 5.148438 22.871094 5 22.5 5 L 20.46875 5 L 21 1.125 L 21.15625 0 Z M 2.375 2 L 18.84375 2 L 18.4375 5 L 3.375 5 Z M 4 7 L 18.15625 7 L 16.125 22 L 5.875 22 Z M 20.1875 7 L 21.90625 7 L 21.40625 11.0625 C 21.269531 12.15625 20.496094 12.867188 19.40625 12.90625 Z"/></svg>