<?xml version="1.0"?><svg xmlns="http://www.w3.org/2000/svg" viewBox="0 0 30 30">    <path d="M 9.5449219 4 C 5.9299219 4 3 6.9299219 3 10.544922 C 3 16.885922 10.421875 22.951656 13.796875 25.597656 L 13.800781 25.591797 C 14.015383 25.753869 14.262883 25.868597 14.53125 25.935547 C 15.12348 26.944113 16.156813 27.667464 17.363281 27.871094 C 17.770306 29.047096 18.693441 30 20 30 C 20.768584 30 21.466647 29.695875 22 29.212891 C 22.533353 29.695875 23.231416 30 24 30 C 25.306559 30 26.229694 29.047096 26.636719 27.871094 C 28.522968 27.55273 30 25.972131 30 24 C 30 23.445405 29.787705 22.97021 29.585938 22.5 C 29.787705 22.02979 30 21.554595 30 21 C 30 19.425873 29.007585 18.161546 27.677734 17.513672 C 27.355635 16.509972 26.661103 15.667013 25.728516 15.261719 C 26.498684 13.739674 27 12.154112 27 10.544922 C 27 6.9299219 24.070078 4 20.455078 4 C 17.000078 4 15 7 15 7 C 15 7 12.999922 4 9.5449219 4 z M 19.5 17 C 20.340812 17 21 17.659188 21 18.5 L 21 23 A 1 1 0 0 0 20 24 A 1 1 0 0 0 21 25 L 21 27 C 21 27.56503 20.56503 28 20 28 C 19.43497 28 19 27.56503 19 27 A 1.0001 1.0001 0 0 0 18 26 C 16.883334 26 16 25.116666 16 24 A 1 1 0 0 0 17 23 A 1 1 0 0 0 16.308594 22.050781 A 1.0001 1.0001 0 0 0 16.279297 21.996094 C 16.099259 21.68696 16 21.357136 16 21 C 16 20.116118 16.566843 19.389813 17.357422 19.119141 A 1.0001 1.0001 0 0 0 18.025391 18.304688 C 18.122794 17.563572 18.729555 17 19.5 17 z M 24.5 17 C 25.270445 17 25.877206 17.563572 25.974609 18.304688 A 1.0001 1.0001 0 0 0 26.642578 19.119141 C 27.433157 19.389813 28 20.116118 28 21 A 1 1 0 0 0 27 22 A 1 1 0 0 0 27.691406 22.949219 A 1.0001 1.0001 0 0 0 27.720703 23.003906 C 27.900741 23.31304 28 23.642864 28 24 C 28 25.116666 27.116666 26 26 26 A 1.0001 1.0001 0 0 0 25 27 C 25 27.56503 24.56503 28 24 28 C 23.43497 28 23 27.56503 23 27 L 23 22 A 1 1 0 0 0 24 21 A 1 1 0 0 0 23 20 L 23 18.5 C 23 17.659188 23.659188 17 24.5 17 z"/></svg>