<svg xmlns="http://www.w3.org/2000/svg" viewBox="0 0 48 48"><path fill="#fb8c00" d="M22.1,26.3c-0.2,0-0.4-0.1-0.5-0.3c-0.1-0.3,0.1-0.5,0.3-0.6c0,0,1-0.3,2-0.3c1,0,2,0.3,2,0.3 c0.3,0.1,0.4,0.4,0.3,0.6c-0.1,0.3-0.4,0.4-0.6,0.3c0,0-0.9-0.3-1.7-0.3c-0.8,0-1.7,0.3-1.7,0.3C22.2,26.3,22.2,26.3,22.1,26.3z"/><path fill="#37474f" d="M41,41c0.2-8.4-12-11-12-11H19c0,0-12,2.3-12,11l0,2h34L41,41z"/><path fill="#fff" d="M19,29h10l-4,14h-2L19,29z"/><path fill="#fb8c00" d="M19 30v-5h10v5l-3 2h-4L19 30zM14 18.5c0-1.4.9-1.5 2-1.5s3 1.1 3 2.5S17.5 22 16.4 22 14 19.9 14 18.5M34 18.5c0 1.4-1.3 3.5-2.4 3.5S29 20.9 29 19.5s1.9-2.5 3-2.5S34 17.1 34 18.5"/><path fill="#ffa726" d="M15,14l1,7.6c0.6,4,3.3,8,8,8s7.4-3.9,8-7.9l1-6.6c0-6-4-9-9-9h-1C18.6,6,15,9,15,14z"/><path fill="#f44336" d="M25,33h-2l-0.9,6.8L23,43h2l0.9-3.2L25,33z"/><path fill="#f44336" d="M22,32l1,2h2l1-2H22z"/><path fill="#738d99" d="M14,17l2,2l1-3c0,0-1-1-1-3c0-3,2-6,4-6s3,1,4,1s2-1,4-1s4,3,4,6c0,1.8-1,3-1,3l1,3l2-2 c0,0,0.6-12-10-12S14,17,14,17z"/><path fill="#fb8c00" d="M18 19c0 .4 1.6 2 3 2s2-1.2 2-2c0-1-1.1-2.1-2.1-2.1C19.9 16.9 18 18 18 19zM30 19c0 .4-1.1 2-3 2-1.4 0-2-1.2-2-2 0-1 1.1-2 2.1-2C28.1 17 30 18 30 19z"/><path fill="#37474f" d="M28 19c0 .6-.4 1-1 1s-1-.4-1-1 .4-1 1-1S28 18.4 28 19zM22 19c0 .6-.4 1-1 1s-1-.4-1-1 .4-1 1-1S22 18.4 22 19z"/><path fill="#ffb951" d="M25.1,23.1c-0.4,0-0.8-2.5-0.8-5.1h-0.8c0,2.6-0.4,5.1-0.8,5.1s-0.7,0.3-0.7,0.7 c0,0.4,0.3,0.7,0.7,0.7h0.3c0.1,0.3,0.5,0.5,0.8,0.5s0.7-0.2,0.8-0.5h0.3c0.4,0,0.7-0.3,0.7-0.7S25.5,23.1,25.1,23.1z"/><path fill="#fb8c00" d="M24.5,26.1c-0.1,0.2-0.3,0.3-0.5,0.3s-0.4-0.1-0.5-0.3L21.4,27c0,0,1.2,0,2.6,0s2.6,0,2.6,0 L24.5,26.1z"/></svg>