<svg xmlns="http://www.w3.org/2000/svg" viewBox="0 0 48 48"><path fill="#ffc107" d="M24 4A20 20 0 1 0 24 44A20 20 0 1 0 24 4Z"/><path fill="#ffa000" d="M24 7A19 18.5 0 1 0 24 44A19 18.5 0 1 0 24 7Z"/><path fill="#795548" d="M24 7A17 17 0 1 0 24 41A17 17 0 1 0 24 7Z"/><path fill="#fff" d="M24 9A15 15 0 1 0 24 39A15 15 0 1 0 24 9Z"/><path fill="#eceff1" d="M9,24c0-8.284,6.716-15,15-15s15,6.716,15,15H9z"/><path fill="#ff1744" d="M37,25h-7c-0.55,0-1-0.45-1-1v0c0-0.55,0.45-1,1-1h7c0.55,0,1,0.45,1,1v0C38,24.55,37.55,25,37,25z"/><path fill="#2196f3" d="M25,11l0,7c0,0.55-0.45,1-1,1h0c-0.55,0-1-0.45-1-1l0-7c0-0.55,0.45-1,1-1h0C24.55,10,25,10.45,25,11 z"/><path fill="#6d4c41" d="M24 20A4 4 0 1 0 24 28A4 4 0 1 0 24 20Z"/><path fill="#ffc107" d="M24 22A2 2 0 1 0 24 26A2 2 0 1 0 24 22Z"/><path fill="#ffa000" d="M24,22c1.105,0,2,0.895,2,2s-0.895,2-2,2V22z"/></svg>