<svg xmlns="http://www.w3.org/2000/svg" viewBox="0 0 24 24"><path d="M 2.324219 4 C 1.050781 4 0 5.050781 0 6.324219 L 0 18.675781 C 0 19.949219 1.050781 21 2.324219 21 L 12.816406 21 C 13.859375 22.789063 15.792969 24 18 24 C 21.300781 24 24 21.300781 24 18 C 24 17.914063 23.988281 17.832031 23.984375 17.75 L 24 17.75 L 24 6.324219 C 24 5.050781 22.949219 4 21.675781 4 Z M 2.324219 6 L 21.675781 6 C 21.867188 6 22 6.132813 22 6.324219 L 22 13.546875 C 20.9375 12.589844 19.535156 12 18 12 C 14.699219 12 12 14.699219 12 18 C 12 18.339844 12.035156 18.675781 12.09375 19 L 2.324219 19 C 2.132813 19 2 18.867188 2 18.675781 L 2 6.324219 C 2 6.132813 2.132813 6 2.324219 6 Z M 4 8 L 4 12 L 8 12 L 8 8 Z M 10 9 L 10 11 L 19 11 L 19 9 Z M 4 15 L 4 17 L 7 17 L 7 15 Z M 8 15 L 8 17 L 11 17 L 11 15 Z M 18 15 C 18.601563 15 19.101563 15.101563 19.5 15.402344 C 19.800781 15.699219 20 16.097656 20 16.597656 C 20 17 19.800781 17.402344 19.402344 17.800781 L 18.902344 18.199219 C 18.800781 18.300781 18.699219 18.398438 18.597656 18.597656 C 18.597656 18.699219 18.5 18.800781 18.5 19 L 17.300781 19 C 17.300781 18.601563 17.398438 18.5 17.5 18.199219 C 17.5 18 17.699219 17.800781 17.902344 17.597656 C 18.199219 17.398438 18.300781 17.199219 18.402344 17.097656 C 18.5 17 18.5 16.800781 18.5 16.699219 C 18.601563 16.199219 18.398438 16 18 16 C 17.898438 16 17.699219 16 17.597656 16.097656 C 17.5 16.300781 17.402344 16.398438 17.402344 16.597656 L 16 16.597656 C 16 16.097656 16.199219 15.699219 16.597656 15.402344 C 16.898438 15.101563 17.398438 15 18 15 Z M 17.902344 19.699219 C 18.101563 19.699219 18.300781 19.800781 18.402344 19.902344 C 18.601563 20 18.699219 20.199219 18.699219 20.402344 C 18.699219 20.601563 18.601563 20.800781 18.5 20.902344 C 18.300781 21.101563 18.199219 21.097656 17.902344 21.097656 C 17.699219 21.097656 17.5 21 17.402344 20.902344 C 17.300781 20.800781 17.199219 20.601563 17.199219 20.402344 C 17.199219 20.199219 17.300781 20 17.402344 19.902344 C 17.5 19.800781 17.699219 19.699219 17.902344 19.699219 Z"/></svg>