<svg xmlns="http://www.w3.org/2000/svg" width="512" height="512" viewBox="0 0 512 512"><path fill="#3CB881" d="M7.9,256C7.9,119,119,7.9,256,7.9C393,7.9,504.1,119,504.1,256c0,137-111.1,248.1-248.1,248.1C119,504.1,7.9,393,7.9,256z"/><path fill="#202121" d="M340.1,99.9H173.3c-32.5,0-49.1,16.5-49.1,49.1v317.2c4,2.5,8.1,5,12.3,7.3v-311h239.2v310.8c4.6-2.5,9.1-5.3,13.5-8.1V149C389.2,116.4,372.7,99.9,340.1,99.9z"/><path fill="#61A5B1" d="M375.7,473.3V162.5H136.5v311c35.4,19.5,76.2,30.7,119.5,30.7C299.4,504.1,340.2,492.9,375.7,473.3z"/><path d="M287.8,136.7c0,3.2-2.6,5.7-5.7,5.7h-50.7c-3.2,0-5.7-2.6-5.7-5.7l0,0c0-3.2,2.6-5.7,5.7-5.7h50.7C285.2,131,287.8,133.5,287.8,136.7L287.8,136.7z"/><g><path fill="#FFF" d="M462.8,332.6c0,12.8-10.4,23.2-23.2,23.2H263.4c-12.8,0-23.2-10.4-23.2-23.2V230c0-12.8,10.4-23.2,23.2-23.2h176.2c12.8,0,23.2,10.4,23.2,23.2V332.6z"/></g><g><path fill="#B7CAC4" d="M255.9,331.5c0,4.7,3.8,8.5,8.5,8.5h172.7c4.7,0,8.5-3.8,8.5-8.5l-0.2-90.3l-94.1,51.7l-95.5-51.5L255.9,331.5z"/><path fill="#B7CAC4" d="M445.6,236.8c0-4.7-3.8-8.5-8.5-8.5H264.4c-4.7,0-8.5,3.8-8.5,8.5l95.5,51L445.6,236.8z"/></g></svg>