<svg xmlns="http://www.w3.org/2000/svg" viewBox="0 0 26 26"><path d="M 8.90625 0 L 5.09375 1 L 4.8125 1 C 3.613281 0.5 2.292969 1.605469 2.59375 2.90625 L 3 4.90625 L 3 5.09375 L 2 8.90625 L 2 9.09375 L 3 12.90625 L 3 13.09375 L 2 16.90625 L 2 17.09375 L 3 20.90625 L 3 21.09375 L 2.59375 23.09375 C 2.292969 24.394531 3.613281 25.492188 4.8125 25.09375 L 5.1875 25.09375 L 8.90625 26 L 9.09375 26 L 12.8125 25.09375 L 13.09375 25.09375 L 16.8125 26 L 17.09375 26 L 20.8125 25.09375 L 21.1875 25.09375 C 22.386719 25.492188 23.707031 24.394531 23.40625 23.09375 L 23 21 L 23 20.8125 L 23.90625 17.09375 L 23.90625 16.8125 L 23 13.09375 L 23 12.8125 L 24 9.1875 L 24 8.90625 L 23.09375 4.90625 L 23.09375 4.6875 L 23.5 2.90625 C 23.800781 1.605469 22.511719 0.507813 21.3125 0.90625 L 21 0.90625 L 17.09375 0 L 16.90625 0 L 13.09375 1 L 12.90625 1 L 9.09375 0 Z M 5.5 3 L 9 3 L 9 9 L 5 9 L 5 3.5 C 5 3.199219 5.199219 3 5.5 3 Z M 10 3 L 20.40625 3 C 20.804688 3 21 3.199219 21 3.5 L 21 9 L 10 9 Z M 5 10 L 9 10 L 9 13 L 5 13 Z M 10 10 L 21 10 L 21 13 L 10 13 Z M 5 14 L 9 14 L 9 23 L 5.5 23 C 5.199219 23 5 22.800781 5 22.5 Z M 10 14 L 17 14 L 17 23 L 10 23 Z M 18 14 L 21 14 L 21 22.40625 C 21 22.804688 20.800781 23 20.5 23 L 18 23 Z"/></svg>