<svg xmlns="http://www.w3.org/2000/svg" viewBox="0 0 16 16"><path d="M 4.5 1 C 3.6774686 1 3 1.6774686 3 2.5 C 3 3.3225314 3.6774686 4 4.5 4 C 5.1043565 4 5.5882846 3.679531 5.9648438 3.4023438 C 6.3414028 3.1251563 6.609375 2.8476563 6.609375 2.8476562 L 6.9472656 2.4980469 L 6.6074219 2.1503906 C 6.6074219 2.1503906 6.3380175 1.8744123 5.9609375 1.5976562 C 5.5838575 1.3209003 5.1025538 1 4.5 1 z M 4.5 4 L 4 4 C 2.9014686 4 2 4.9014686 2 6 L 2 12 L 3 12 L 3 13 L 4 13 L 4 11 L 3 11 L 3 6 C 3 5.4612924 3.4163923 5.0381904 3.9472656 5.0097656 L 4.5 7 L 5.0527344 5.0097656 C 5.5836077 5.0381904 6 5.4612924 6 6 L 6 11 L 5 11 L 5 13 L 6 13 L 6 12 L 7 12 L 7 6 C 7 4.9014686 6.0985314 4 5 4 L 4.5 4 z M 4.5 2 C 4.6724462 2 5.0649706 2.1790996 5.3691406 2.4023438 C 5.4364316 2.4517317 5.4269426 2.4550221 5.484375 2.5019531 C 5.428617 2.5475941 5.43813 2.5497482 5.3730469 2.5976562 C 5.0703559 2.8204693 4.6786435 3 4.5 3 C 4.2185314 3 4 2.7814686 4 2.5 C 4 2.2185314 4.2185314 2 4.5 2 z M 11.5 3 C 10.677495 3 10 3.6774952 10 4.5 C 10 5.3225048 10.677495 6 11.5 6 C 12.322505 6 13 5.3225048 13 4.5 C 13 3.6774952 12.322505 3 11.5 3 z M 11.5 6 C 10.125015 6 9 7.1250151 9 8.5 L 9 10.558594 L 9.7773438 10.947266 L 10 11.058594 L 10 13 L 11 13 L 11 10.441406 L 10.222656 10.052734 L 10 9.9414062 L 10 8.5 C 10 7.6649849 10.664985 7 11.5 7 C 12.335015 7 13 7.6649849 13 8.5 L 13 9.9414062 L 12 10.441406 L 12 13 L 13 13 L 13 11.058594 L 14 10.558594 L 14 8.5 C 14 7.1250151 12.874985 6 11.5 6 z M 11.5 4 C 11.782065 4 12 4.2179353 12 4.5 C 12 4.7820647 11.782065 5 11.5 5 C 11.217935 5 11 4.7820647 11 4.5 C 11 4.2179353 11.217935 4 11.5 4 z"/></svg>