<svg xmlns="http://www.w3.org/2000/svg" viewBox="0 0 64 64"><radialGradient id="mIz0tEaw3y018Vf6L9FrKa" cx="30.167" cy="32.573" r="40.161" gradientUnits="userSpaceOnUse" spreadMethod="reflect"><stop offset="0" stop-color="#f4e9c3"/><stop offset=".219" stop-color="#f8eecd"/><stop offset=".644" stop-color="#fdf4dc"/><stop offset="1" stop-color="#fff6e1"/></radialGradient><path fill="url(#mIz0tEaw3y018Vf6L9FrKa)" d="M59,31h1.302c1.896,0,3.595-1.355,3.693-3.248c0.105-2.018-1.501-3.687-3.495-3.687l-2.402,0 c-0.982,0-1.892-0.664-2.065-1.631C56.011,22.308,56,22.183,56,22.061c0.002-1.084,0.867-1.966,1.944-1.995 c1.511-0.041,2.864-1.146,3.035-2.649c0.014-0.12,0.02-0.238,0.02-0.355c-0.001-1.655-1.344-2.997-3-2.997h-2.302 c-0.216,0-2.431-0.019-2.64-0.054C53.039,14.007,53.019,14.004,53,14v0.065V23H32v-9h12.858c0.218-0.844,0.268-1.755-0.473-2.86 C43.466,9.769,41.873,9,40.223,9L35.5,9C34.672,9,34,8.328,34,7.5C34,6.672,34.672,6,35.5,6l0.331,0 c1.625,0,3.08-1.217,3.165-2.839C39.086,1.43,37.711,0,36,0L7.169,0c-1.625,0-3.08,1.217-3.165,2.839C3.914,4.569,5.289,6,7,6h7.5 C15.328,6,16,6.672,16,7.5C16,8.328,15.328,9,14.5,9H6c-2.209,0-4,1.791-4,4l0,0v0c0,2.209,1.791,4,4,4h13v6h-7l1,10.554 c-0.536,0.401-0.917,0.99-0.987,1.688c-0.092,0.921,0.318,1.75,0.987,2.253v2.522c-0.014,0.074-0.021,0.149-0.013,0.225 C13.137,41.739,11.966,43,10.5,43l-7.33,0c-1.493,0-2.88,1.011-3.126,2.483c-0.122,0.731,0.022,1.423,0.343,2.005 C0.923,48.458,2.004,49,3.112,49h1.581c1.188,0,2.104,0.664,2.275,1.635C6.989,50.758,7,50.878,7,50.997 C7.001,52.103,6.106,53,5.001,53H5c-1.135,0-2.236,0.602-2.699,1.638C1.311,56.852,2.905,59,5,59h31c1.657,0,3-1.343,3-3v0 c0-1.657-1.343-3-3-3h-5V43l23,0h4.83c1.57,0,3.084-1.206,3.165-2.774c0.09-1.73-1.286-3.161-2.996-3.161h-0.013 c-0.006,0-0.011,0-0.017,0c-0.777,0-1.539-0.254-2.078-0.768c-0.17-0.162-0.318-0.35-0.438-0.564C55.166,33.414,56.809,31,59,31z"/><radialGradient id="mIz0tEaw3y018Vf6L9FrKb" cx="30.167" cy="39.333" r="41.484" gradientUnits="userSpaceOnUse" spreadMethod="reflect"><stop offset="0" stop-color="#f4e9c3"/><stop offset=".219" stop-color="#f8eecd"/><stop offset=".644" stop-color="#fdf4dc"/><stop offset="1" stop-color="#fff6e1"/></radialGradient><path fill="url(#mIz0tEaw3y018Vf6L9FrKb)" d="M4.5,40C5.881,40,7,38.881,7,37.5C7,36.119,5.881,35,4.5,35S2,36.119,2,37.5 C2,38.881,3.119,40,4.5,40z"/><linearGradient id="mIz0tEaw3y018Vf6L9FrKc" x1="32" x2="32" y1="55" y2="20" gradientUnits="userSpaceOnUse" spreadMethod="reflect"><stop offset="0" stop-color="#99dff3"/><stop offset="1" stop-color="#9fe7f6"/></linearGradient><path fill="url(#mIz0tEaw3y018Vf6L9FrKc)" d="M9,50V20h46v30c0,2.761-2.239,5-5,5H14C11.239,55,9,52.761,9,50z"/><linearGradient id="mIz0tEaw3y018Vf6L9FrKd" x1="32" x2="32" y1="23" y2="10" gradientUnits="userSpaceOnUse" spreadMethod="reflect"><stop offset="0" stop-color="#1d7be5"/><stop offset=".326" stop-color="#2493ea"/><stop offset=".745" stop-color="#2bacee"/><stop offset="1" stop-color="#2eb5f0"/></linearGradient><path fill="url(#mIz0tEaw3y018Vf6L9FrKd)" d="M55,14.8V23H9v-8.2c0-2.653,2.166-4.8,4.842-4.8h36.316C52.834,10,55,12.147,55,14.8"/><linearGradient id="mIz0tEaw3y018Vf6L9FrKe" x1="21.5" x2="21.5" y1="20" y2="10" gradientUnits="userSpaceOnUse" spreadMethod="reflect"><stop offset="0" stop-color="#155cde"/><stop offset=".625" stop-color="#2289e7"/><stop offset="1" stop-color="#289fec"/></linearGradient><path fill="url(#mIz0tEaw3y018Vf6L9FrKe)" d="M24.655,10h-6.311C16.928,10.995,16,12.638,16,14.5c0,3.036,2.464,5.5,5.5,5.5 s5.5-2.464,5.5-5.5C27,12.638,26.072,10.995,24.655,10z"/><linearGradient id="mIz0tEaw3y018Vf6L9FrKf" x1="21.5" x2="21.5" y1="6" y2="17" gradientUnits="userSpaceOnUse" spreadMethod="reflect"><stop offset="0" stop-color="#a4a4a4"/><stop offset=".58" stop-color="#828282"/><stop offset=".63" stop-color="#7f7f7f"/><stop offset="1" stop-color="#6f6f6f"/></linearGradient><path fill="url(#mIz0tEaw3y018Vf6L9FrKf)" d="M21.5,17L21.5,17c-1.375,0-2.5-1.125-2.5-2.5v-6C19,7.125,20.125,6,21.5,6h0 C22.875,6,24,7.125,24,8.5v6C24,15.875,22.875,17,21.5,17z"/><linearGradient id="mIz0tEaw3y018Vf6L9FrKg" x1="42.5" x2="42.5" y1="20" y2="10" gradientUnits="userSpaceOnUse" spreadMethod="reflect"><stop offset="0" stop-color="#155cde"/><stop offset=".625" stop-color="#2289e7"/><stop offset="1" stop-color="#289fec"/></linearGradient><path fill="url(#mIz0tEaw3y018Vf6L9FrKg)" d="M45.655,10h-6.311C37.928,10.995,37,12.638,37,14.5c0,3.036,2.464,5.5,5.5,5.5 s5.5-2.464,5.5-5.5C48,12.638,47.072,10.995,45.655,10z"/><linearGradient id="mIz0tEaw3y018Vf6L9FrKh" x1="42.5" x2="42.5" y1="6" y2="17" gradientUnits="userSpaceOnUse" spreadMethod="reflect"><stop offset="0" stop-color="#a4a4a4"/><stop offset=".58" stop-color="#828282"/><stop offset=".63" stop-color="#7f7f7f"/><stop offset="1" stop-color="#6f6f6f"/></linearGradient><path fill="url(#mIz0tEaw3y018Vf6L9FrKh)" d="M42.5,17L42.5,17c-1.375,0-2.5-1.125-2.5-2.5v-6C40,7.125,41.125,6,42.5,6h0 C43.875,6,45,7.125,45,8.5v6C45,15.875,43.875,17,42.5,17z"/><g><linearGradient id="mIz0tEaw3y018Vf6L9FrKi" x1="25.5" x2="25.5" y1="46" y2="30" gradientUnits="userSpaceOnUse" spreadMethod="reflect"><stop offset="0" stop-color="#155cde"/><stop offset=".287" stop-color="#1868e0"/><stop offset=".8" stop-color="#2187e7"/><stop offset="1" stop-color="#2595ea"/></linearGradient><path fill="url(#mIz0tEaw3y018Vf6L9FrKi)" d="M17,33.003C17,31.35,18.329,30,19.956,30c1.289,0,2.381,0.826,2.777,1.995 c0,0,2.658,8.262,2.718,8.605l0.099,0.565h0.119l0.099-0.565c0.079-0.342,2.737-8.685,2.737-8.685 C28.882,30.806,29.953,30,31.183,30C32.73,30,34,31.29,34,32.861v11.265C34,45.154,33.167,46,32.135,46 c-1.012,0-1.845-0.846-1.845-1.874v-9.028h-0.119l-0.159,0.826c-0.099,0.504-0.277,1.149-0.496,1.794l-2.222,6.932 C27.037,45.416,26.283,46,25.43,46c-0.873,0-1.607-0.584-1.865-1.35l-2.241-6.932c-0.218-0.645-0.397-1.31-0.496-1.794 c-0.06-0.282-0.119-0.564-0.159-0.826h-0.119v9.109c0,0.987-0.793,1.793-1.765,1.793C17.793,46,17,45.194,17,44.207V33.003z"/><linearGradient id="mIz0tEaw3y018Vf6L9FrKj" x1="42" x2="42" y1="46" y2="34" gradientUnits="userSpaceOnUse" spreadMethod="reflect"><stop offset="0" stop-color="#155cde"/><stop offset=".287" stop-color="#1868e0"/><stop offset=".8" stop-color="#2187e7"/><stop offset="1" stop-color="#2595ea"/></linearGradient><path fill="url(#mIz0tEaw3y018Vf6L9FrKj)" d="M42.021,34C45.909,34,48,36.593,48,39.979C48,43.449,45.784,46,41.937,46 s-5.937-2.572-5.937-5.979C36.001,36.551,38.175,34,42.021,34z M42,43.219c1.442,0,2.09-1.275,2.09-3.219 c0-1.924-0.648-3.22-2.111-3.22c-1.443,0-2.091,1.275-2.091,3.199C39.889,41.944,40.558,43.219,42,43.219z"/></g></svg>