<svg xmlns="http://www.w3.org/2000/svg" viewBox="0 0 100 100"><path fill="#c7ede6" d="M88.704,55.929c0.3-0.616,0.566-1.264,0.796-1.943c2.633-7.77-1.349-17.078-9.733-19.325C78.86,23.278,70.86,15.469,61.826,14.136C51.485,12.611,42.011,19.18,38.86,29.621c-3.799-1.346-7.501-1.182-10.99,0.857c-1.583,0.732-3.031,1.812-4.33,3.233c-1.907,2.086-3.147,4.719-3.652,7.495c-0.748,0.118-1.483,0.236-2.176,0.484c-4.04,1.449-6.589,4.431-7.288,8.923c-0.435,2.797,0.443,5.587,0.933,6.714c1.935,4.455,6.422,6.98,10.981,6.312c0.227-0.033,0.557,0.069,0.752,0.233c0.241,7.12,3.698,13.417,8.884,17.014C40.295,86.659,51,84.88,57.754,76.966c2.894,2.96,6.338,4.398,10.384,3.876c4.023-0.519,7.147-2.739,9.426-6.349c1.053,0.283,2.051,0.691,3.083,0.804c4.042,0.442,7.324-1.165,9.732-4.8c0.922-1.391,1.793-3.194,1.793-6.354C92.174,60.886,90.88,57.919,88.704,55.929z"/><path fill="#fff" d="M18.369 47.965H8.338c-.276 0-.5-.224-.5-.5s.224-.5.5-.5h10.03c.276 0 .5.224.5.5S18.645 47.965 18.369 47.965zM21.249 47.965h-1.446c-.276 0-.5-.224-.5-.5s.224-.5.5-.5h1.446c.276 0 .5.224.5.5S21.526 47.965 21.249 47.965zM25.304 47.965h-2.546c-.276 0-.5-.224-.5-.5s.224-.5.5-.5h2.546c.276 0 .5.224.5.5S25.58 47.965 25.304 47.965zM25.304 49.83h-9.616c-.276 0-.5-.224-.5-.5s.224-.5.5-.5h9.616c.276 0 .5.224.5.5S25.58 49.83 25.304 49.83zM13.956 49.83h-.58c-.276 0-.5-.224-.5-.5s.224-.5.5-.5h.58c.276 0 .5.224.5.5S14.233 49.83 13.956 49.83zM11.579 49.83h-1.456c-.276 0-.5-.224-.5-.5s.224-.5.5-.5h1.456c.276 0 .5.224.5.5S11.856 49.83 11.579 49.83zM20.715 46.1h-5.027c-.276 0-.5-.224-.5-.5s.224-.5.5-.5h5.027c.276 0 .5.224.5.5S20.992 46.1 20.715 46.1zM20.715 44.235h-1.257c-.276 0-.5-.224-.5-.5s.224-.5.5-.5h1.257c.276 0 .5.224.5.5S20.992 44.235 20.715 44.235zM17.447 51.695h-1.759c-.276 0-.5-.224-.5-.5s.224-.5.5-.5h1.759c.276 0 .5.224.5.5S17.723 51.695 17.447 51.695zM71.546 21.688h-10.03c-.276 0-.5-.224-.5-.5s.224-.5.5-.5h10.03c.276 0 .5.224.5.5S71.823 21.688 71.546 21.688zM74.428 21.688h-1.446c-.276 0-.5-.224-.5-.5s.224-.5.5-.5h1.446c.276 0 .5.224.5.5S74.704 21.688 74.428 21.688zM78.482 21.688h-2.546c-.276 0-.5-.224-.5-.5s.224-.5.5-.5h2.546c.276 0 .5.224.5.5S78.759 21.688 78.482 21.688zM76.456 17.958H66.84c-.276 0-.5-.224-.5-.5s.224-.5.5-.5h9.617c.276 0 .5.224.5.5S76.733 17.958 76.456 17.958zM65.108 17.958h-.58c-.276 0-.5-.224-.5-.5s.224-.5.5-.5h.58c.276 0 .5.224.5.5S65.385 17.958 65.108 17.958zM62.732 17.958h-1.457c-.276 0-.5-.224-.5-.5s.224-.5.5-.5h1.457c.276 0 .5.224.5.5S63.008 17.958 62.732 17.958zM73.893 19.823h-5.028c-.276 0-.5-.224-.5-.5s.224-.5.5-.5h5.028c.276 0 .5.224.5.5S74.17 19.823 73.893 19.823z"/><path fill="#fff" d="M73.893 17.958h-1.257c-.276 0-.5-.224-.5-.5s.224-.5.5-.5h1.257c.276 0 .5.224.5.5S74.17 17.958 73.893 17.958zM67.411 19.823h-1.759c-.276 0-.5-.224-.5-.5s.224-.5.5-.5h1.759c.276 0 .5.224.5.5S67.687 19.823 67.411 19.823z"/><path fill="#fdfcef" d="M72.77,56.626c0,0,10.309,0,10.371,0c2.381,0,4.31-1.93,4.31-4.311c0-2.077-1.469-3.81-3.425-4.219c0.023-0.182,0.038-0.366,0.038-0.554c0-2.466-1.999-4.465-4.464-4.465c-1.456,0-2.745,0.7-3.56,1.778c-0.208-2.745-2.66-4.862-5.528-4.511c-2.097,0.257-3.832,1.878-4.218,3.955c-0.124,0.666-0.111,1.313,0.012,1.92c-0.562-0.606-1.363-0.987-2.254-0.987c-1.632,0-2.963,1.27-3.069,2.875c-0.741-0.164-1.547-0.153-2.396,0.165c-1.622,0.609-2.778,2.137-2.845,3.868c-0.096,2.459,1.869,4.483,4.307,4.483c0.185,0,0.836,0,0.986,0h8.951"/><path fill="#472b29" d="M83.141,57.126H72.77c-0.276,0-0.5-0.224-0.5-0.5s0.224-0.5,0.5-0.5h10.372c2.101,0,3.81-1.709,3.81-3.811c0-1.794-1.273-3.363-3.027-3.729c-0.254-0.053-0.426-0.292-0.394-0.551c0.02-0.161,0.034-0.325,0.034-0.492c0-2.186-1.778-3.965-3.964-3.965c-1.25,0-2.402,0.576-3.161,1.58c-0.125,0.167-0.337,0.239-0.54,0.178c-0.199-0.059-0.342-0.234-0.357-0.441c-0.091-1.199-0.678-2.324-1.61-3.088c-0.941-0.772-2.132-1.115-3.359-0.965c-1.884,0.23-3.442,1.69-3.787,3.55c-0.108,0.581-0.104,1.162,0.011,1.73c0.044,0.219-0.062,0.442-0.262,0.544c-0.198,0.102-0.441,0.061-0.595-0.105c-0.495-0.533-1.165-0.827-1.888-0.827c-1.353,0-2.481,1.058-2.569,2.408c-0.01,0.146-0.082,0.28-0.199,0.367c-0.117,0.087-0.268,0.118-0.408,0.088c-0.729-0.16-1.421-0.114-2.112,0.146c-1.45,0.544-2.463,1.918-2.521,3.419c-0.041,1.048,0.336,2.041,1.061,2.794c0.725,0.754,1.701,1.169,2.747,1.169h9.937c0.276,0,0.5,0.224,0.5,0.5s-0.224,0.5-0.5,0.5H60.05c-1.32,0-2.552-0.524-3.467-1.476c-0.915-0.952-1.391-2.204-1.339-3.527c0.074-1.898,1.347-3.633,3.169-4.317c0.697-0.261,1.417-0.352,2.15-0.273c0.358-1.607,1.798-2.8,3.49-2.8c0.58,0,1.148,0.144,1.656,0.41c0.005-0.311,0.037-0.623,0.094-0.934c0.424-2.285,2.336-4.078,4.649-4.36c1.498-0.182,2.959,0.237,4.114,1.184c0.87,0.713,1.494,1.683,1.792,2.753c0.893-0.777,2.031-1.208,3.242-1.208c2.737,0,4.964,2.227,4.964,4.965c0,0.059-0.001,0.118-0.004,0.176c1.989,0.615,3.391,2.481,3.391,4.597C87.952,54.968,85.794,57.126,83.141,57.126z"/><path fill="#fdfcef" d="M84.887,48.602c-1.498-0.706-3.231-0.206-3.87,1.117c-0.079,0.164-0.138,0.334-0.177,0.506"/><path fill="#472b29" d="M80.839,50.474c-0.019,0-0.037-0.002-0.056-0.006c-0.134-0.031-0.218-0.165-0.188-0.3c0.044-0.192,0.11-0.38,0.196-0.558c0.698-1.444,2.584-1.998,4.202-1.235c0.125,0.059,0.179,0.208,0.12,0.333c-0.059,0.125-0.208,0.179-0.333,0.12c-1.372-0.646-2.96-0.199-3.539,1c-0.069,0.144-0.123,0.296-0.159,0.453C81.056,50.396,80.953,50.474,80.839,50.474z"/><path fill="#fdfcef" d="M67.758,67.999H34.389c-0.552,0-1-0.448-1-1V36.786c0-2.56,2.095-4.655,4.655-4.655h26.059c2.56,0,4.655,2.095,4.655,4.655v30.212C68.758,67.551,68.31,67.999,67.758,67.999z"/><path fill="#472b29" d="M67.758,68.699h-33.37c-0.938,0-1.7-0.763-1.7-1.7V36.786c0-2.953,2.402-5.355,5.355-5.355h26.059c2.953,0,5.355,2.402,5.355,5.355v30.212C69.458,67.936,68.696,68.699,67.758,68.699z M38.044,32.831c-2.181,0-3.955,1.774-3.955,3.955v30.212c0,0.166,0.134,0.3,0.3,0.3h33.37c0.166,0,0.3-0.134,0.3-0.3V36.786c0-2.181-1.774-3.955-3.955-3.955H38.044z"/><path fill="#f1bc19" d="M64.685,32.629l-27.139-0.017c-2.046,0-3.487,1.689-3.487,3.753v3.736h28.737h5.268v-3.736C68.064,34.301,66.731,32.629,64.685,32.629z"/><path fill="#472b29" d="M65.52 40.228h-.996c-.207 0-.375-.168-.375-.375s.168-.375.375-.375h.996c.207 0 .375.168.375.375S65.727 40.228 65.52 40.228zM63.527 40.228h-29.89c-.207 0-.375-.168-.375-.375s.168-.375.375-.375h29.89c.207 0 .375.168.375.375S63.734 40.228 63.527 40.228z"/><path fill="#fdfcef" d="M38.121 35.616A0.996 0.996 0 1 0 38.121 37.608000000000004A0.996 0.996 0 1 0 38.121 35.616Z"/><path fill="#472b29" d="M38.121,38.108c-0.825,0-1.497-0.671-1.497-1.496c0-0.825,0.671-1.497,1.497-1.497s1.496,0.671,1.496,1.497C39.618,37.437,38.947,38.108,38.121,38.108z M38.121,36.115c-0.274,0-0.497,0.223-0.497,0.497c0,0.273,0.223,0.496,0.497,0.496c0.273,0,0.496-0.223,0.496-0.496C38.618,36.338,38.395,36.115,38.121,36.115z"/><path fill="#fdfcef" d="M64.026 35.616A0.996 0.996 0 1 0 64.026 37.608000000000004A0.996 0.996 0 1 0 64.026 35.616Z"/><path fill="#472b29" d="M64.026 38.108c-.825 0-1.497-.671-1.497-1.496 0-.825.671-1.497 1.497-1.497.825 0 1.496.671 1.496 1.497C65.522 37.437 64.851 38.108 64.026 38.108zM64.026 36.115c-.274 0-.497.223-.497.497 0 .273.223.496.497.496.273 0 .496-.223.496-.496C64.522 36.338 64.299 36.115 64.026 36.115zM63.278 34.326c-.387 0-.7-.313-.7-.7v-2.989c0-.387.313-.7.7-.7s.7.313.7.7v2.989C63.978 34.012 63.665 34.326 63.278 34.326zM59.791 34.326c-.387 0-.7-.313-.7-.7v-2.989c0-.387.313-.7.7-.7s.7.313.7.7v2.989C60.492 34.012 60.178 34.326 59.791 34.326zM56.304 34.326c-.387 0-.7-.313-.7-.7v-2.989c0-.387.313-.7.7-.7s.7.313.7.7v2.989C57.004 34.012 56.691 34.326 56.304 34.326zM52.817 34.326c-.387 0-.7-.313-.7-.7v-2.989c0-.387.313-.7.7-.7s.7.313.7.7v2.989C53.517 34.012 53.203 34.326 52.817 34.326zM49.33 34.326c-.387 0-.7-.313-.7-.7v-2.989c0-.387.313-.7.7-.7s.7.313.7.7v2.989C50.03 34.012 49.717 34.326 49.33 34.326zM45.843 34.326c-.387 0-.7-.313-.7-.7v-2.989c0-.387.313-.7.7-.7s.7.313.7.7v2.989C46.543 34.012 46.229 34.326 45.843 34.326zM42.355 34.326c-.387 0-.7-.313-.7-.7v-2.989c0-.387.313-.7.7-.7s.7.313.7.7v2.989C43.056 34.012 42.742 34.326 42.355 34.326zM38.869 34.326c-.387 0-.7-.313-.7-.7v-2.989c0-.387.313-.7.7-.7s.7.313.7.7v2.989C39.569 34.012 39.255 34.326 38.869 34.326zM68.509 40.228h-1.993c-.207 0-.375-.168-.375-.375s.168-.375.375-.375h1.993c.207 0 .375.168.375.375S68.716 40.228 68.509 40.228z"/><path fill="#cbc9bc" d="M44.099 44.834L45.095 44.834 45.095 47.823 42.106 47.823 42.106 46.329"/><path fill="#472b29" d="M45.096,48.198h-2.989c-0.207,0-0.375-0.168-0.375-0.375v-1.495c0-0.207,0.168-0.375,0.375-0.375s0.375,0.168,0.375,0.375v1.12h2.239v-2.239h-0.622c-0.207,0-0.375-0.168-0.375-0.375s0.168-0.375,0.375-0.375h0.997c0.207,0,0.375,0.168,0.375,0.375v2.989C45.471,48.03,45.303,48.198,45.096,48.198z"/><path fill="#cbc9bc" d="M47.088 44.834H50.077V47.823H47.088z"/><path fill="#472b29" d="M50.077,48.198h-2.989c-0.207,0-0.375-0.168-0.375-0.375v-2.989c0-0.207,0.168-0.375,0.375-0.375h2.989c0.207,0,0.375,0.168,0.375,0.375v2.989C50.452,48.03,50.284,48.198,50.077,48.198z M47.463,47.448h2.239v-2.239h-2.239V47.448z"/><path fill="#cbc9bc" d="M52.07 44.834H55.059V47.823H52.07z"/><path fill="#472b29" d="M55.058,48.198H52.07c-0.207,0-0.375-0.168-0.375-0.375v-2.989c0-0.207,0.168-0.375,0.375-0.375h2.989c0.207,0,0.375,0.168,0.375,0.375v2.989C55.433,48.03,55.265,48.198,55.058,48.198z M52.445,47.448h2.239v-2.239h-2.239V47.448z"/><path fill="#cbc9bc" d="M57.051 44.834H60.04V47.823H57.051z"/><path fill="#472b29" d="M60.04,48.198h-2.989c-0.207,0-0.375-0.168-0.375-0.375v-2.989c0-0.207,0.168-0.375,0.375-0.375h2.989c0.207,0,0.375,0.168,0.375,0.375v2.989C60.415,48.03,60.247,48.198,60.04,48.198z M57.426,47.448h2.239v-2.239h-2.239V47.448z"/><g><path fill="#cbc9bc" d="M62.033 44.834H65.022V47.823H62.033z"/><path fill="#472b29" d="M65.022,48.198h-2.989c-0.207,0-0.375-0.168-0.375-0.375v-2.989c0-0.207,0.168-0.375,0.375-0.375h2.989c0.207,0,0.375,0.168,0.375,0.375v2.989C65.397,48.03,65.229,48.198,65.022,48.198z M62.408,47.448h2.239v-2.239h-2.239V47.448z"/></g><g><path fill="#cbc9bc" d="M42.106 49.816H45.095V52.805H42.106z"/><path fill="#472b29" d="M45.096,53.18h-2.989c-0.207,0-0.375-0.168-0.375-0.375v-2.989c0-0.207,0.168-0.375,0.375-0.375h2.989c0.207,0,0.375,0.168,0.375,0.375v2.989C45.471,53.012,45.303,53.18,45.096,53.18z M42.481,52.43h2.239v-2.239h-2.239V52.43z"/><path fill="#cbc9bc" d="M47.088 49.816H50.077V52.805H47.088z"/><path fill="#472b29" d="M50.077,53.18h-2.989c-0.207,0-0.375-0.168-0.375-0.375v-2.989c0-0.207,0.168-0.375,0.375-0.375h2.989c0.207,0,0.375,0.168,0.375,0.375v2.989C50.452,53.012,50.284,53.18,50.077,53.18z M47.463,52.43h2.239v-2.239h-2.239V52.43z"/><path fill="#cbc9bc" d="M52.07 49.816H55.059V52.805H52.07z"/><path fill="#472b29" d="M55.058,53.18H52.07c-0.207,0-0.375-0.168-0.375-0.375v-2.989c0-0.207,0.168-0.375,0.375-0.375h2.989c0.207,0,0.375,0.168,0.375,0.375v2.989C55.433,53.012,55.265,53.18,55.058,53.18z M52.445,52.43h2.239v-2.239h-2.239V52.43z"/><g><path fill="#cbc9bc" d="M57.051 49.816H60.04V52.805H57.051z"/><path fill="#472b29" d="M60.04,53.18h-2.989c-0.207,0-0.375-0.168-0.375-0.375v-2.989c0-0.207,0.168-0.375,0.375-0.375h2.989c0.207,0,0.375,0.168,0.375,0.375v2.989C60.415,53.012,60.247,53.18,60.04,53.18z M57.426,52.43h2.239v-2.239h-2.239V52.43z"/></g><g><path fill="#cbc9bc" d="M62.033 49.816H65.022V52.805H62.033z"/><path fill="#472b29" d="M65.022,53.18h-2.989c-0.207,0-0.375-0.168-0.375-0.375v-2.989c0-0.207,0.168-0.375,0.375-0.375h2.989c0.207,0,0.375,0.168,0.375,0.375v2.989C65.397,53.012,65.229,53.18,65.022,53.18z M62.408,52.43h2.239v-2.239h-2.239V52.43z"/></g><g><path fill="#cbc9bc" d="M37.125 49.816H40.114V52.805H37.125z"/><path fill="#472b29" d="M40.114,53.18h-2.989c-0.207,0-0.375-0.168-0.375-0.375v-2.989c0-0.207,0.168-0.375,0.375-0.375h2.989c0.207,0,0.375,0.168,0.375,0.375v2.989C40.489,53.012,40.321,53.18,40.114,53.18z M37.5,52.43h2.239v-2.239H37.5V52.43z"/></g></g><g><path fill="#cbc9bc" d="M42.106 54.797H45.095V57.785999999999994H42.106z"/><path fill="#472b29" d="M45.096,58.161h-2.989c-0.207,0-0.375-0.168-0.375-0.375v-2.989c0-0.207,0.168-0.375,0.375-0.375h2.989c0.207,0,0.375,0.168,0.375,0.375v2.989C45.471,57.993,45.303,58.161,45.096,58.161z M42.481,57.411h2.239v-2.239h-2.239V57.411z"/><path fill="#cbc9bc" d="M47.088 54.797H50.077V57.785999999999994H47.088z"/><path fill="#472b29" d="M50.077,58.161h-2.989c-0.207,0-0.375-0.168-0.375-0.375v-2.989c0-0.207,0.168-0.375,0.375-0.375h2.989c0.207,0,0.375,0.168,0.375,0.375v2.989C50.452,57.993,50.284,58.161,50.077,58.161z M47.463,57.411h2.239v-2.239h-2.239V57.411z"/><path fill="#cbc9bc" d="M52.07 54.797H55.059V57.785999999999994H52.07z"/><path fill="#472b29" d="M55.058,58.161H52.07c-0.207,0-0.375-0.168-0.375-0.375v-2.989c0-0.207,0.168-0.375,0.375-0.375h2.989c0.207,0,0.375,0.168,0.375,0.375v2.989C55.433,57.993,55.265,58.161,55.058,58.161z M52.445,57.411h2.239v-2.239h-2.239V57.411z"/><path fill="#cbc9bc" d="M60.04 57.786L57.051 57.786 57.051 56.886 57.051 54.797 59.034 54.797 60.04 54.797z"/><g><path fill="#cbc9bc" d="M57.051 56.886L57.051 54.797 59.034 54.797"/><path fill="#472b29" d="M57.051,57.26c-0.207,0-0.375-0.168-0.375-0.375v-2.088c0-0.207,0.168-0.375,0.375-0.375h1.983c0.207,0,0.375,0.168,0.375,0.375s-0.168,0.375-0.375,0.375h-1.608v1.713C57.426,57.093,57.258,57.26,57.051,57.26z"/></g><g><path fill="#cbc9bc" d="M37.125 54.797H40.114V57.785999999999994H37.125z"/><path fill="#472b29" d="M40.114,58.161h-2.989c-0.207,0-0.375-0.168-0.375-0.375v-2.989c0-0.207,0.168-0.375,0.375-0.375h2.989c0.207,0,0.375,0.168,0.375,0.375v2.989C40.489,57.993,40.321,58.161,40.114,58.161z M37.5,57.411h2.239v-2.239H37.5V57.411z"/></g></g><g><path fill="#cbc9bc" d="M47.088 59.779H50.077V62.768H47.088z"/><path fill="#472b29" d="M50.077,63.143h-2.989c-0.207,0-0.375-0.168-0.375-0.375v-2.989c0-0.207,0.168-0.375,0.375-0.375h2.989c0.207,0,0.375,0.168,0.375,0.375v2.989C50.452,62.975,50.284,63.143,50.077,63.143z M47.463,62.393h2.239v-2.239h-2.239V62.393z"/><g><path fill="#cbc9bc" d="M54.56 62.768L52.07 62.768 52.07 59.779 55.059 59.779 55.059 61.772"/><path fill="#472b29" d="M54.56,63.143H52.07c-0.207,0-0.375-0.168-0.375-0.375v-2.989c0-0.207,0.168-0.375,0.375-0.375h2.989c0.207,0,0.375,0.168,0.375,0.375v1.993c0,0.207-0.168,0.375-0.375,0.375s-0.375-0.168-0.375-0.375v-1.618h-2.239v2.239h2.116c0.207,0,0.375,0.168,0.375,0.375S54.767,63.143,54.56,63.143z"/></g></g><g><path fill="#ee3e54" d="M65.943 54.327999999999996A9.457 9.457 0 1 0 65.943 73.24199999999999A9.457 9.457 0 1 0 65.943 54.327999999999996Z"/><path fill="#472b29" d="M65.943,73.942c-5.601,0-10.157-4.557-10.157-10.157s4.557-10.157,10.157-10.157S76.1,58.184,76.1,63.785S71.543,73.942,65.943,73.942z M65.943,55.028c-4.829,0-8.757,3.928-8.757,8.757s3.928,8.757,8.757,8.757s8.757-3.928,8.757-8.757S70.771,55.028,65.943,55.028z"/></g><g><path fill="#fdfcef" d="M39.587,70.975c1.883,0,3.517,0,3.54,0c2.11,0,3.821-1.674,3.821-3.739c0-1.802-1.302-3.305-3.035-3.66c0.02-0.158,0.034-0.317,0.034-0.48c0-2.139-1.772-3.873-3.957-3.873c-1.29,0-2.433,0.607-3.155,1.543c-0.185-2.381-2.358-4.218-4.9-3.913c-1.859,0.223-3.397,1.629-3.739,3.431c-0.11,0.578-0.098,1.139,0.011,1.665c-0.498-0.525-1.208-0.856-1.998-0.856c-1.446,0-2.627,1.102-2.72,2.494c-0.657-0.142-1.371-0.133-2.123,0.143c-1.438,0.528-2.462,1.853-2.522,3.356c-0.085,2.133,1.657,3.889,3.818,3.889c0.164,0,0.741,0,0.874,0h7.934 M33.11,70.975h0.36"/><path fill="#472b29" d="M43.127,71.475h-3.54c-0.276,0-0.5-0.224-0.5-0.5s0.224-0.5,0.5-0.5h3.54c1.831,0,3.321-1.453,3.321-3.239c0-1.524-1.108-2.857-2.636-3.17c-0.256-0.052-0.429-0.293-0.396-0.553c0.018-0.137,0.03-0.276,0.03-0.417c0-1.86-1.551-3.373-3.457-3.373c-1.092,0-2.098,0.492-2.759,1.349c-0.127,0.164-0.341,0.231-0.539,0.173c-0.198-0.059-0.339-0.234-0.355-0.44c-0.079-1.019-0.565-1.943-1.369-2.603c-0.828-0.68-1.882-0.983-2.973-0.853c-1.646,0.197-3.006,1.442-3.308,3.028c-0.094,0.495-0.09,0.989,0.01,1.471c0.045,0.219-0.06,0.441-0.258,0.544c-0.197,0.104-0.44,0.063-0.595-0.099c-0.429-0.452-1.009-0.701-1.635-0.701c-1.169,0-2.145,0.891-2.221,2.028c-0.01,0.145-0.082,0.279-0.198,0.366c-0.116,0.087-0.264,0.12-0.407,0.089c-0.638-0.138-1.242-0.097-1.845,0.124c-1.262,0.464-2.144,1.631-2.195,2.906c-0.035,0.875,0.283,1.708,0.895,2.345c0.635,0.661,1.495,1.024,2.423,1.024h8.808c0.276,0,0.5,0.224,0.5,0.5s-0.224,0.5-0.5,0.5H22.66c-1.185,0-2.331-0.485-3.144-1.332c-0.803-0.835-1.219-1.928-1.173-3.078c0.067-1.674,1.212-3.203,2.849-3.805c0.611-0.224,1.241-0.305,1.88-0.245c0.344-1.396,1.629-2.424,3.135-2.424c0.493,0,0.976,0.113,1.414,0.323c0.009-0.241,0.036-0.483,0.082-0.726c0.381-2.009,2.097-3.586,4.171-3.834c1.362-0.162,2.685,0.218,3.726,1.072c0.748,0.614,1.278,1.41,1.546,2.302c0.791-0.648,1.785-1.007,2.842-1.007c2.458,0,4.457,1.962,4.457,4.373c0,0.034,0,0.068-0.001,0.103c1.764,0.555,3.003,2.188,3.003,4.038C47.448,69.573,45.51,71.475,43.127,71.475z M33.469,71.475H33.11c-0.276,0-0.5-0.224-0.5-0.5s0.224-0.5,0.5-0.5h0.359c0.276,0,0.5,0.224,0.5,0.5S33.745,71.475,33.469,71.475z"/><path fill="#472b29" d="M41.42,65.672c-0.018,0-0.036-0.002-0.055-0.006c-0.135-0.03-0.219-0.164-0.189-0.299c0.037-0.166,0.094-0.327,0.169-0.479c0.605-1.224,2.273-1.675,3.722-1.007c0.125,0.058,0.18,0.207,0.122,0.332c-0.058,0.125-0.207,0.18-0.332,0.122c-1.203-0.557-2.579-0.208-3.063,0.774c-0.058,0.117-0.101,0.24-0.129,0.367C41.638,65.593,41.535,65.672,41.42,65.672z"/><g><path fill="#472b29" d="M36.261,71.475h-1.107c-0.276,0-0.5-0.224-0.5-0.5s0.224-0.5,0.5-0.5h1.107c0.276,0,0.5,0.224,0.5,0.5S36.537,71.475,36.261,71.475z"/></g></g><g><path fill="#fdfcef" d="M64.611,68.072c0-0.303,0.111-0.565,0.332-0.786s0.486-0.332,0.795-0.332c0.308,0,0.573,0.111,0.795,0.332s0.332,0.486,0.332,0.795c0,0.313-0.111,0.581-0.332,0.803c-0.216,0.216-0.481,0.324-0.795,0.324c-0.319,0-0.586-0.108-0.803-0.324C64.719,68.666,64.611,68.396,64.611,68.072z M64.749,65.216l-1.216-6.145c-0.05-0.255,0.225-0.483,0.583-0.483h3.241c0.358,0,0.634,0.228,0.583,0.483l-1.216,6.145c-0.041,0.209-0.29,0.364-0.583,0.364h-0.809C65.039,65.58,64.791,65.425,64.749,65.216z"/><path fill="#472b29" d="M65.738,69.582c-0.42,0-0.78-0.146-1.068-0.434s-0.434-0.65-0.434-1.076c0-0.404,0.148-0.758,0.441-1.051c0.586-0.588,1.534-0.587,2.12,0c0.293,0.293,0.442,0.65,0.442,1.06c0,0.416-0.148,0.775-0.442,1.068C66.509,69.436,66.153,69.582,65.738,69.582z M65.738,67.328c-0.21,0-0.378,0.071-0.53,0.222c-0.151,0.152-0.222,0.318-0.222,0.521c0,0.226,0.068,0.399,0.214,0.545c0.29,0.289,0.771,0.296,1.067,0c0.151-0.152,0.222-0.322,0.222-0.538c0-0.209-0.071-0.377-0.222-0.529C66.115,67.399,65.947,67.328,65.738,67.328z M66.142,65.955h-0.809c-0.476,0-0.875-0.28-0.952-0.667l-1.215-6.145c-0.042-0.207,0.013-0.414,0.153-0.585c0.178-0.216,0.476-0.346,0.798-0.346h3.242c0.322,0,0.62,0.129,0.797,0.346c0.14,0.17,0.195,0.378,0.154,0.585l-1.216,6.146C67.017,65.675,66.618,65.955,66.142,65.955z M65.116,65.134c0.018,0.021,0.093,0.07,0.217,0.07h0.809c0.131,0,0.208-0.055,0.22-0.074l1.212-6.133c-0.01,0.019-0.082-0.035-0.216-0.035h-3.242c-0.133,0-0.208,0.054-0.22,0.074L65.116,65.134z M65.118,65.144h0.009H65.118z M65.113,65.131L65.113,65.131L65.113,65.131z"/></g></svg>