<svg xmlns="http://www.w3.org/2000/svg" viewBox="0 0 100 100"><path d="M 26.5 14 C 22.364 14 19 17.364 19 21.5 C 19 25.636 22.364 29 26.5 29 C 30.636 29 34 25.636 34 21.5 C 34 17.364 30.636 14 26.5 14 z M 26.5 16 C 29.532 16 32 18.468 32 21.5 C 32 24.532 29.532 27 26.5 27 C 23.468 27 21 24.532 21 21.5 C 21 18.468 23.468 16 26.5 16 z M 26.5 31 C 19.729 31 13.995141 35.765078 12.869141 42.330078 C 12.486141 44.563078 11.884172 48.482562 11.076172 53.976562 C 10.613172 57.121563 12.286141 60.100141 15.119141 61.369141 L 14.011719 68.853516 C 13.968719 69.140516 14.052188 69.431344 14.242188 69.652344 C 14.432188 69.872344 14.709 70 15 70 L 19.050781 70 L 20.041016 89.052734 C 20.069016 89.583734 20.507062 90 21.039062 90 L 31.960938 90 C 32.492938 90 32.930031 89.583734 32.957031 89.052734 L 33.949219 70 L 38 70 C 38.291 70 38.567813 69.872344 38.757812 69.652344 C 38.947812 69.431344 39.031281 69.140516 38.988281 68.853516 L 37.880859 61.369141 C 40.713859 60.100141 42.386828 57.121563 41.923828 53.976562 C 41.115828 48.482562 40.513859 44.563078 40.130859 42.330078 C 39.004859 35.765078 33.271 31 26.5 31 z M 69 31 C 68.448 31 68 31.448 68 32 L 68 52 L 59.707031 52 L 48.851562 41.144531 C 48.107563 40.400531 46.895531 40.398391 46.144531 41.150391 C 45.399531 41.895391 45.399531 43.107562 46.144531 43.851562 L 54.292969 52 L 52 52 C 49.239 52 47 54.239 47 57 L 47 60 C 47 64.971 51.03 69 56 69 L 67.171875 69 L 62.585938 73.585938 C 62.585938 73.585938 62.585938 73.587891 62.585938 73.587891 C 61.627938 73.212891 60.589 73 59.5 73 C 54.813 73 51 76.813 51 81.5 C 51 86.187 54.813 90 59.5 90 C 62.938 90 65.899328 87.944 67.236328 85 L 77.294922 85 C 78.157922 87.887 80.836 90 84 90 C 87.86 90 91 86.859 91 83 C 91 79.141 87.86 76 84 76 C 83.906 76 83.813703 76.009672 83.720703 76.013672 L 76.707031 69 L 84 69 C 88.962 69 93 64.963 93 60 L 93 54 L 93 53 L 93 52 L 92.974609 52 C 92.449609 40.332 82.795 31 71 31 L 69 31 z M 26.5 33 C 32.295 33 37.197203 37.065969 38.158203 42.667969 C 38.538203 44.885969 39.140312 48.788578 39.945312 54.267578 C 40.297312 56.666578 38.903047 58.922078 36.623047 59.705078 L 34.0625 42.427734 C 34.0225 42.154734 33.764094 41.964859 33.496094 42.005859 C 33.222094 42.045859 33.033219 42.299266 33.074219 42.572266 L 35.783203 60.859375 L 35.783203 60.867188 L 36.841797 68 L 16.158203 68 L 17.216797 60.867188 C 17.216797 60.864187 17.215797 60.862375 17.216797 60.859375 L 19.925781 42.572266 C 19.966781 42.299266 19.776906 42.045859 19.503906 42.005859 C 19.240906 41.965859 18.9775 42.155734 18.9375 42.427734 L 16.376953 59.705078 C 14.096953 58.922078 12.702688 56.668531 13.054688 54.269531 C 13.859687 48.789531 14.461797 44.887922 14.841797 42.669922 C 15.802797 37.066922 20.705 33 26.5 33 z M 70 33 L 71 33 C 74.574 33 77.924078 33.954516 80.830078 35.603516 L 79.277344 37.931641 C 79.124344 38.161641 79.187969 38.472 79.417969 38.625 C 79.502969 38.682 79.598359 38.708984 79.693359 38.708984 C 79.855359 38.708984 80.014328 38.631328 80.111328 38.486328 L 81.6875 36.121094 C 84.6055 37.975094 87.016391 40.552281 88.650391 43.613281 L 85.390625 45.201172 C 85.141625 45.322172 85.037203 45.621141 85.158203 45.869141 C 85.245203 46.047141 85.424375 46.150391 85.609375 46.150391 C 85.682375 46.150391 85.756172 46.135562 85.826172 46.101562 L 89.085938 44.513672 C 90.300938 47.094672 91 49.964 91 53 L 87.5 53 C 87.224 53 87 53.224 87 53.5 C 87 53.776 87.224 54 87.5 54 L 91 54 L 91 60 C 91 60.34 90.966922 60.672 90.919922 61 L 77.5 61 C 77.224 61 77 61.224 77 61.5 C 77 61.776 77.224 62 77.5 62 L 90.705078 62 C 89.842078 64.887 87.165 67 84 67 L 74.707031 67 L 61.707031 54 L 68.5 54 L 69 54 L 84.5 54 C 84.776 54 85 53.776 85 53.5 C 85 53.224 84.776 53 84.5 53 L 71.667969 53 L 83.197266 47.382812 C 83.446266 47.261812 83.550688 46.962844 83.429688 46.714844 C 83.308688 46.466844 83.010719 46.364375 82.761719 46.484375 L 70.939453 52.244141 L 78.515625 40.878906 C 78.668625 40.648906 78.606953 40.338547 78.376953 40.185547 C 78.145953 40.032547 77.835594 40.093219 77.683594 40.324219 L 70 51.849609 L 70 33 z M 47.5 41.585938 C 47.73325 41.585938 47.965578 41.674563 48.142578 41.851562 L 52.443359 46.152344 L 51.1875 47.482422 L 46.849609 43.144531 C 46.495609 42.789531 46.495469 42.211562 46.855469 41.851562 C 47.032469 41.674563 47.26675 41.585938 47.5 41.585938 z M 53.150391 46.857422 L 82.466797 76.173828 C 81.802797 76.322828 81.173703 76.564672 80.595703 76.888672 L 72.414062 68.707031 C 72.219063 68.512031 71.902031 68.512031 71.707031 68.707031 L 65.201172 75.212891 C 64.701172 74.758891 64.152687 74.35725 63.554688 74.03125 L 70.292969 67.292969 C 70.487969 67.097969 70.487969 66.780937 70.292969 66.585938 L 51.894531 48.1875 L 53.150391 46.857422 z M 52 54 L 56.292969 54 L 69.232422 66.939453 L 69.171875 67 L 56 67 C 52.83 67 50.155922 64.891 49.294922 62 L 55.5 62 C 55.776 62 56 61.776 56 61.5 C 56 61.224 55.776 61 55.5 61 L 49.080078 61 C 49.032078 60.673 49 60.34 49 60 L 49 57 C 49 55.343 50.343 54 52 54 z M 58.5 61 C 58.224 61 58 61.224 58 61.5 C 58 61.776 58.224 62 58.5 62 L 61.5 62 C 61.776 62 62 61.776 62 61.5 C 62 61.224 61.776 61 61.5 61 L 58.5 61 z M 71.5 61 C 71.224 61 71 61.224 71 61.5 C 71 61.776 71.224 62 71.5 62 L 74.5 62 C 74.776 62 75 61.776 75 61.5 C 75 61.224 74.776 61 74.5 61 L 71.5 61 z M 72.060547 69.767578 L 79.746094 77.453125 C 78.592094 78.340125 77.720922 79.573 77.294922 81 L 67.974609 81 C 67.861609 79.064 67.102344 77.301781 65.902344 75.925781 L 72.060547 69.767578 z M 21.054688 70 L 26 70 L 26 88 L 21.988281 88 L 21.054688 70 z M 27 70 L 31.945312 70 L 31.009766 88 L 27 88 L 27 70 z M 59.5 75 C 63.084 75 66 77.916 66 81.5 C 66 85.084 63.084 88 59.5 88 C 55.916 88 53 85.084 53 81.5 C 53 77.916 55.916 75 59.5 75 z M 59.486328 77.414062 C 57.232328 77.414062 55.398438 79.247953 55.398438 81.501953 C 55.398438 83.755953 57.232328 85.587891 59.486328 85.587891 C 61.419328 85.587891 63.103234 84.215219 63.490234 82.324219 C 63.545234 82.053219 63.370609 81.788422 63.099609 81.732422 C 62.831609 81.679422 62.564766 81.851094 62.509766 82.121094 C 62.217766 83.550094 60.946328 84.587891 59.486328 84.587891 C 57.783328 84.587891 56.398438 83.202 56.398438 81.5 C 56.398438 79.798 57.784328 78.412109 59.486328 78.412109 C 59.750328 78.412109 60.012625 78.446672 60.265625 78.513672 C 60.531625 78.581672 60.805 78.420297 60.875 78.154297 C 60.944 77.886297 60.784578 77.614922 60.517578 77.544922 C 60.182578 77.457922 59.835328 77.414062 59.486328 77.414062 z M 84 78 C 86.757 78 89 80.243 89 83 C 89 85.757 86.757 88 84 88 C 81.243 88 79 85.757 79 83 C 79 80.243 81.243 78 84 78 z M 61.939453 78.398438 C 61.811328 78.401938 61.684344 78.454687 61.589844 78.554688 C 61.399844 78.754688 61.408375 79.070766 61.609375 79.259766 C 62.028375 79.656766 62.326656 80.158891 62.472656 80.712891 C 62.531656 80.937891 62.733078 81.085938 62.955078 81.085938 C 62.997078 81.085938 63.040031 81.080359 63.082031 81.068359 C 63.349031 80.998359 63.5085 80.724984 63.4375 80.458984 C 63.2445 79.724984 62.850875 79.060156 62.296875 78.535156 C 62.196875 78.440156 62.067578 78.394937 61.939453 78.398438 z M 84 80 C 82.346 80 81 81.346 81 83 C 81 84.654 82.346 86 84 86 C 85.654 86 87 84.654 87 83 C 87 81.346 85.654 80 84 80 z M 84 81 C 85.103 81 86 81.897 86 83 C 86 84.103 85.103 85 84 85 C 82.897 85 82 84.103 82 83 C 82 81.897 82.897 81 84 81 z M 67.974609 82 L 77.080078 82 C 77.033078 82.328 77 82.66 77 83 C 77 83.34 77.033078 83.672 77.080078 84 L 67.623047 84 C 67.820047 83.363 67.934609 82.691 67.974609 82 z"/></svg>