<?xml version="1.0"?><svg xmlns="http://www.w3.org/2000/svg" viewBox="0 0 30 30">    <path d="M 14.5 3 A 2.5 2.5 0 0 0 12 5.5 A 2.5 2.5 0 0 0 14.5 8 A 2.5 2.5 0 0 0 17 5.5 A 2.5 2.5 0 0 0 14.5 3 z M 25.964844 5.9960938 A 1.0001 1.0001 0 0 0 25.701172 6.0449219 C 24.298863 6.4840079 23.01795 7.1956525 21.919922 8.1171875 A 1.0001 1.0001 0 0 0 21.917969 8.1171875 A 1.0001 1.0001 0 0 0 21.535156 8.0234375 A 1.0001 1.0001 0 0 0 21.078125 8.1132812 L 16.789062 10 L 12.5 10 A 1.0001 1.0001 0 0 0 12.400391 10.003906 A 2.5 2.5 0 0 0 10.419922 11.117188 L 7.609375 14.865234 A 2.5 2.5 0 0 0 7 16.5 A 2.5 2.5 0 0 0 7.625 18.150391 L 7.625 18.152344 L 7.671875 18.203125 A 2.5 2.5 0 0 0 7.7226562 18.255859 L 10.435547 21.160156 L 11 26 A 1.0001 1.0001 0 1 0 13 26 L 13 20 A 1.0001 1.0001 0 0 0 12.832031 19.445312 L 11.681641 17.71875 A 2.5 2.5 0 0 0 11.75 17.583984 L 15.521484 12.675781 L 17.279297 11.958984 A 1.0001 1.0001 0 0 0 17.402344 11.916016 L 19.5 10.992188 C 18.550726 12.61213 18 14.491723 18 16.5 C 18 21.40006 21.238307 25.557682 25.701172 26.955078 A 1.0007358 1.0007358 0 1 0 26.298828 25.044922 C 22.649693 23.902318 20 20.51994 20 16.5 C 20 12.48006 22.649693 9.0976819 26.298828 7.9550781 A 1.0001 1.0001 0 0 0 25.964844 5.9960938 z M 6.5097656 19.890625 L 6.2988281 21.435547 L 3.2128906 25.384766 C 2.8728906 25.819766 2.9497656 26.446109 3.3847656 26.787109 C 3.5677656 26.930109 3.784 27 4 27 C 4.297 27 4.5910625 26.867234 4.7890625 26.615234 L 8.5761719 22.490234 L 8.5253906 22.046875 L 6.5097656 19.890625 z"/></svg>