<svg xmlns="http://www.w3.org/2000/svg" viewBox="0 0 64 64"><linearGradient id="uxsiUH1MkU7O2uURkHIZya" x1="32" x2="32" y1="40.93" y2="44.792" gradientUnits="userSpaceOnUse"><stop offset="0" stop-color="#6dc7ff"/><stop offset="1" stop-color="#e6abff"/></linearGradient><circle cx="32" cy="42.957" r="3" fill="url(#uxsiUH1MkU7O2uURkHIZya)"/><linearGradient id="uxsiUH1MkU7O2uURkHIZyb" x1="32" x2="32" y1="8.07" y2="10.759" gradientUnits="userSpaceOnUse"><stop offset="0" stop-color="#6dc7ff"/><stop offset="1" stop-color="#e6abff"/></linearGradient><path fill="url(#uxsiUH1MkU7O2uURkHIZyb)" d="M31.335,7.349l-3.079,3.296c-0.467,0.5-0.113,1.317,0.572,1.317h6.305 c0.719,0,1.091-0.858,0.601-1.383l-3.018-3.23C32.342,6.949,31.709,6.949,31.335,7.349z"/><linearGradient id="uxsiUH1MkU7O2uURkHIZyc" x1="6.061" x2="6.061" y1="51.441" y2="54.951" gradientUnits="userSpaceOnUse"><stop offset="0" stop-color="#6dc7ff"/><stop offset="1" stop-color="#e6abff"/></linearGradient><path fill="url(#uxsiUH1MkU7O2uURkHIZyc)" d="M3.76,56.034l4.424,0.883c0.671,0.134,1.179-0.597,0.819-1.18l-3.318-5.361 c-0.378-0.611-1.304-0.477-1.492,0.217l-1.159,4.266C2.89,55.388,3.224,55.927,3.76,56.034z"/><linearGradient id="uxsiUH1MkU7O2uURkHIZyd" x1="57.939" x2="57.939" y1="51.355" y2="55.16" gradientUnits="userSpaceOnUse"><stop offset="0" stop-color="#6dc7ff"/><stop offset="1" stop-color="#e6abff"/></linearGradient><path fill="url(#uxsiUH1MkU7O2uURkHIZyd)" d="M60.24,56.052l-4.424,0.883c-0.671,0.134-1.179-0.597-0.819-1.18l3.318-5.361 c0.378-0.611,1.304-0.477,1.492,0.217l1.159,4.266C61.11,55.406,60.777,55.945,60.24,56.052z"/><linearGradient id="uxsiUH1MkU7O2uURkHIZye" x1="32" x2="32" y1="6.049" y2="58.713" gradientUnits="userSpaceOnUse"><stop offset="0" stop-color="#1a6dff"/><stop offset="1" stop-color="#c822ff"/></linearGradient><path fill="url(#uxsiUH1MkU7O2uURkHIZye)" d="M61.932,54.617l-1.159-4.268c-0.19-0.7-0.777-1.22-1.496-1.324 c-0.721-0.107-1.43,0.226-1.812,0.844l-1.126,1.819L46,45.395v-8.316c0-2.262-1.833-4.102-4.091-4.119 c-0.206-0.582-0.757-1.003-1.409-1.003H40v-4.233c0-4.024-3.076-7.342-7-7.728v-7.034h2.133c0.726,0,1.382-0.431,1.671-1.096 c0.29-0.666,0.156-1.439-0.339-1.97l-3.018-3.23c-0.367-0.393-0.884-0.617-1.421-0.617h0c-0.537,0-1.054,0.226-1.42,0.617 l-3.079,3.297c-0.485,0.519-0.616,1.275-0.333,1.927c0.283,0.651,0.925,1.072,1.635,1.072H31v7.034c-3.924,0.386-7,3.704-7,7.728 v4.233h-0.5c-0.652,0-1.203,0.421-1.409,1.003C19.833,32.978,18,34.817,18,37.079v8.317l-10.323,6.3l-1.142-1.846 c-0.382-0.617-1.086-0.948-1.812-0.844c-0.718,0.104-1.306,0.625-1.496,1.326l-1.159,4.266c-0.14,0.519-0.059,1.078,0.225,1.535 c0.283,0.455,0.746,0.776,1.271,0.881l4.424,0.884c0.116,0.023,0.233,0.035,0.349,0.035c0.577,0,1.127-0.281,1.464-0.768 c0.405-0.583,0.425-1.351,0.051-1.954l-1.123-1.815L18,47.739v4.096c0,2.272,1.85,4.122,4.123,4.122h19.755 c2.273,0,4.123-1.85,4.123-4.122v-4.098l9.287,5.653l-1.139,1.84c-0.375,0.604-0.354,1.372,0.052,1.956 c0.337,0.485,0.887,0.766,1.462,0.766c0.116,0,4.774-0.918,4.774-0.918h0c0.526-0.105,0.99-0.428,1.272-0.884 S62.072,55.135,61.932,54.617z M4.014,55.065l1.036-3.813l2.839,4.587L4.014,55.065z M29.329,10.962l2.697-2.888l2.697,2.888 H29.329z M26,27.724c0-3.18,2.587-5.767,5.766-5.767h0.468c3.179,0,5.766,2.587,5.766,5.767v4.233h-0.5 c-0.651,0-1.201,0.419-1.408,1h-8.265c-0.207-0.581-0.757-1-1.408-1H26V27.724z M44,51.835c0,1.17-0.952,2.122-2.123,2.122H39 v-0.354c0-0.892-0.723-1.615-1.615-1.615H26.615c-0.892,0-1.615,0.723-1.615,1.615v0.354h-2.877c-1.17,0-2.123-0.952-2.123-2.122 V37.079c0-1.17,0.952-2.122,2.123-2.122h19.755c1.17,0,2.123,0.952,2.123,2.122V51.835z M56.111,55.857l2.841-4.589l1.052,3.812 L56.111,55.857z"/><linearGradient id="uxsiUH1MkU7O2uURkHIZyf" x1="32" x2="32" y1="6.029" y2="58.692" gradientUnits="userSpaceOnUse"><stop offset="0" stop-color="#1a6dff"/><stop offset="1" stop-color="#c822ff"/></linearGradient><path fill="url(#uxsiUH1MkU7O2uURkHIZyf)" d="M32,38.957c-2.206,0-4,1.794-4,4c0,1.474,0.81,2.75,2,3.444v0.556c0,1.103,0.897,2,2,2 s2-0.897,2-2v-0.556c1.19-0.694,2-1.97,2-3.444C36,40.751,34.206,38.957,32,38.957z M32,44.957c-1.103,0-2-0.897-2-2s0.897-2,2-2 s2,0.897,2,2S33.103,44.957,32,44.957z"/></svg>