<svg xmlns="http://www.w3.org/2000/svg" viewBox="0 0 24 24"><path d="M 14.300781 10.5 C 13.300781 8.199219 14.898438 5 19.5 5 C 22.699219 5 24 7.601563 24 10.101563 C 24 13.898438 20.199219 15.300781 20.199219 15.300781 C 20.199219 15.300781 18.199219 22 12.300781 22 C 10.199219 22 9.101563 21.699219 8.300781 21.699219 C 7.5 21.699219 6.699219 22.101563 6.300781 22.101563 C 5.800781 22.101563 2.898438 20 1.800781 17.300781 C 0.199219 13.101563 0.101563 10 0 8.300781 C -0.199219 6 0.199219 4.601563 1.300781 3.5 C 2 2.898438 2.898438 2.101563 3.898438 2 C 5 1.898438 5.398438 2.398438 6.199219 3 C 6.898438 3.5 7.199219 3.699219 7.300781 4.300781 C 7.300781 4.5 7.398438 5 7 5 C 7.101563 5.300781 6.800781 5.898438 6.300781 5.800781 C 6.398438 6.199219 5.800781 6.5 5.5 6.5 C 5.601563 6.800781 5 6.898438 4.800781 6.898438 C 4.601563 6.898438 4.398438 6.898438 4.199219 6.800781 C 4.199219 6.800781 3.699219 6.601563 3.898438 6.300781 C 3.601563 6.898438 2.800781 6.601563 3.101563 7.300781 C 3.300781 7.800781 3.898438 9.699219 5.300781 11 C 7 12.5 7.5 13.898438 8 15 C 8.199219 13.800781 9.101563 9.699219 14.300781 10.5 Z"/></svg>