<svg xmlns="http://www.w3.org/2000/svg" viewBox="0 0 100 100"><path fill="#fff" d="M19.8 54.800000000000004A.9.9 0 1 0 19.8 56.6.9.9 0 1 0 19.8 54.800000000000004zM78.9 30.1A.7.7 0 1 0 78.9 31.5.7.7 0 1 0 78.9 30.1z"/><path fill="#f1bc19" d="M76.3 10.799999999999999A.9.9 0 1 0 76.3 12.6.9.9 0 1 0 76.3 10.799999999999999zM20.3 62.4A.9.9 0 1 0 20.3 64.2.9.9 0 1 0 20.3 62.4z"/><path fill="#f9dbd2" d="M49.1 11.5A37.5 37.5 0 1 0 49.1 86.5A37.5 37.5 0 1 0 49.1 11.5Z"/><path fill="#f1bc19" d="M81.7 9.9A4 4 0 1 0 81.7 17.9A4 4 0 1 0 81.7 9.9Z"/><path fill="#ee3e54" d="M85.7 21.1A1.9 1.9 0 1 0 85.7 24.9A1.9 1.9 0 1 0 85.7 21.1Z"/><path fill="#fbcd59" d="M76.7 73.5A1.9 1.9 0 1 0 76.7 77.30000000000001 1.9 1.9 0 1 0 76.7 73.5zM13.5 58.4A4 4 0 1 0 13.5 66.4 4 4 0 1 0 13.5 58.4z"/><path fill="#ee3e54" d="M23.8 84.69999999999999A1.9 1.9 0 1 0 23.8 88.5A1.9 1.9 0 1 0 23.8 84.69999999999999Z"/><path fill="#fff" d="M75.4 27.5A1.8 1.8 0 1 0 75.4 31.1 1.8 1.8 0 1 0 75.4 27.5zM17.3 47.8A2.5 2.5 0 1 0 17.3 52.8 2.5 2.5 0 1 0 17.3 47.8z"/><path fill="#d8ad8f" d="M65.3,67.4c-0.7-0.5-10.2-3.8-10.2-3.8c-0.5-0.2-0.9-0.6-1-1.2c-0.1-0.9-0.2-1.8-0.2-2.8 c2.5-1.4,4.6-3.5,6.1-6c0.3-0.5,0.4-1.1,0.4-1.7c0-1,0-2,0-3c0.6-0.1,1.1-0.6,1.3-1.2c0.4-1.3,1-3.8,1-3.9 c0.5-1.6-0.3-2.5-1.8-2.4c0.4-0.3,0.7-0.7,1-1.2H62c0.1,0,0.3,0,0.4,0c2,0.7,5.1,0.3,5.9-4.5c-0.7,0.9-1.9,1.4-3,1.3 c0-0.4-0.1-0.8-0.3-1.2c0.6-0.6,1-1.4,1-2.2c0-1.7-1.5-3.1-3.2-3.1l0,0c0.1-0.4,0.2-0.8,0.2-1.2c0-2.2-1.8-4-4-4c0,0-0.1,0-0.1,0 c-0.4,0-0.8,0-1.1,0.1c0,0,0-0.1,0-0.1c-0.1-2.7-2.5-4.8-5.2-4.7c0,0,0,0,0,0c-1.5,0-3,0.6-4,1.8c-1.1-0.7-2.5-1.1-3.8-1 c-3.4,0-6.2,2.2-6.2,4.9c0,0.1,0,0.2,0,0.4c-0.8,0.3-1.4,1-1.7,1.8c-0.3,0.8,0.6,3,0.6,3.1l0,0c-1-0.1-1.9,0.7-2,1.7 c0,0.2,0,0.4,0.1,0.6c0.1,0.5,0.9,7.3,1.3,7.5c-1.5,0-2.3,0.8-1.8,2.4c0,0,0.6,2.6,1,3.9c0.1,0.7,0.8,1.2,1.5,1.2 c0,0.8,0,1.7,0,2.5c0,1,0.3,2,0.9,2.8c1.5,2.2,3.4,4,5.6,5.3c0,0.9-0.1,1.9-0.2,2.8c-0.1,0.6-0.5,1-1,1.2L35,66.3 c-0.8,0.2-1.5,0.5-2.2,0.9c-2.2,1.6-3.5,4.1-3.6,6.9h39.3C68.6,71.5,67.4,69,65.3,67.4z"/><path fill="#b2876b" d="M65.3,67.3c-0.1,0-0.2-0.1-0.3-0.1l-0.6-0.2c-1.2-0.5-9.2-3.3-9.2-3.3c-0.5-0.2-1-0.6-1.2-1.1 c-0.2-1.1-0.3-2.2-0.2-3.3c-1.3,0.8-2.7,1.4-4.2,1.8c-1.9,0.2-5.1-1.6-5.1-1.6s-0.2,2.4-0.3,3.1c-0.2,0.6-0.7,1-1.3,1.1l-7.7,2.6 c-2.7,0.6-4.9,2.8-5.4,5.6h0c0,0.1,0,0.3-0.1,0.6c-0.1,0.4-0.2,0.9-0.1,1.3c0,0.5-0.3,6.1-0.4,6.6c7.6,5.3,10.6,6.1,21.1,6.1 c4.6,0,14.8-2.9,18.9-4.4C68.7,72.8,69.6,68.6,65.3,67.3z"/><path fill="#ee3e54" d="M40.4,64.5c1.5,1.3,13,1.8,16.1-0.7l4.9,1.7L62.5,84c0,0-15.8,5.9-28-0.3l0.7-17.4L40.4,64.5z"/><path fill="#f1bc19" d="M48.9 64.2A1 1 0 1 0 48.9 66.2A1 1 0 1 0 48.9 64.2Z"/><path fill="#f1bc19" d="M48.9,64.3c-2.5,0-5.1-0.7-5.1-1.9c0-0.1,0.1-0.3,0.3-0.3s0.3,0.1,0.3,0.3c0,0.7,2,1.4,4.6,1.4 c2.6,0,4.6-0.8,4.6-1.4c0-0.1,0.1-0.3,0.3-0.3s0.3,0.1,0.3,0.3C54.1,63.6,51.4,64.3,48.9,64.3z"/><path fill="#bd977c" d="M54,36.8c0.7,1.4,2.2,2.3,3.8,2.3c0.4,0,0.8-0.1,1.2-0.2c0.6,0.8,1.6,1.2,2.6,1.2 c0.1,0,0.3,0,0.4,0c1.9,0.6,4.9,1,5.9-3c-0.8,0.6-1.8,0.7-2.7,0.3c0-0.5-0.1-1-0.3-1.5c0.6-0.5,1-1.3,1-2.2c-0.1-1.7-1.5-3-3.2-3 l0,0c0.1-0.4,0.2-0.8,0.2-1.2c-0.1-2.2-1.9-4-4.1-3.9c0,0,0,0,0,0c-0.4,0-0.8,0.1-1.1,0.1c0,0,0-0.1,0-0.1 c-0.2-2.7-2.4-4.7-5.1-4.6c-1.5,0-3,0.6-4,1.8c-1.1-0.7-2.5-1-3.8-1c-3.4,0-6.1,2.2-6.1,4.9c0,0.1,0,0.2,0,0.4 c-0.8,0.3-1.4,0.9-1.8,1.7c0,0,0.5,2.7,0.6,3c0.6,0.8,1.5,1.3,2.4,1.6c1,0.3,2,0.3,3,0c0.8,2.5,3.7,4.4,7.1,4.4 C51.4,37.6,52.8,37.3,54,36.8z"/><path fill="#9f8066" d="M37.9,32.2c-0.2,0-0.5,0.2-0.7,0.2 c-0.6,0-1.1,0.6-1.1,1.3l1.1,7.3c0-0.6,0.2-6.2,2-7.8C38.7,32.8,38.3,32.5,37.9,32.2z" opacity=".94"/><path fill="#472b29" d="M47 40.6c-2.4-.6-4.9-.7-7.4-.4-.1 0-.2.1-.2.2 0 .1.1.2.2.2 0 0 5.1.6 6.7 1.1h.1c.1 0 .2 0 .2-.1l.6-.7c0-.1 0-.1 0-.2C47.1 40.7 47.1 40.6 47 40.6zM51 40.6c2.4-.6 4.9-.7 7.4-.4.1 0 .2 0 .2.2 0 .1 0 .2-.2.2 0 0-.1 0-.1 0 0 0-5.1.6-6.7 1.1h-.1c-.1 0-.2 0-.2-.1l-.6-.7c0-.1 0-.1 0-.2C50.9 40.7 50.9 40.6 51 40.6zM43.5 42.9c-.5 0-1 .3-1.2.8.1 0 .1 0 .2 0 .5.1.8.5.7.9 0 .4-.3.7-.7.7-.1 0-.3 0-.4-.1.1.7.7 1.2 1.4 1.3 1-.2 1.6-1.2 1.4-2.2C44.8 43.6 44.2 43.1 43.5 42.9L43.5 42.9zM54.5 42.9c-.4 0-.8.2-1.1.6.1 0 .2-.1.3-.1.5.1.8.5.7.9 0 .4-.3.7-.7.7-.3 0-.5-.1-.6-.4-.2.8.3 1.6 1.1 1.7.8.2 1.6-.3 1.7-1.1 0-.2 0-.4 0-.6C56 43.8 55.4 43 54.5 42.9 54.5 42.9 54.5 42.9 54.5 42.9z"/><path fill="#472b29" d="M49,52.2c0.8,0,1.6-0.4,2.2-1c0.1-0.1,0.1-0.3,0-0.5 c0,0,0,0,0,0c-0.1-0.1-0.3-0.1-0.5,0c-1,0.9-2.4,0.9-3.3,0c-0.1-0.1-0.3-0.1-0.5,0c-0.1,0.1-0.1,0.3,0,0.5 C47.4,51.8,48.2,52.1,49,52.2z" opacity=".41"/><path fill="#472b29" d="M49.2 61.4c-2 0-5.2-1.8-5.3-1.9-.1-.1-.2-.2-.1-.3.1-.1.2-.2.3-.1 0 0 3.5 2 5.3 1.8 1.6-.3 3-1 4.4-1.8.1-.1.3 0 .3.1.1.1 0 .3-.1.3-1.4.9-3 1.5-4.6 1.9C49.4 61.4 49.3 61.4 49.2 61.4zM64 40.8c-.7 0-1.3-.2-1.9-.5h-.3c-1 0-2-.4-2.7-1.1-.4.1-.8.1-1.2.1-1.6 0-3.1-.8-3.9-2.2-1.2.5-2.5.8-3.7.8-3.4 0-6.4-1.8-7.3-4.3-1 .2-2 .2-3-.1-1.1-.3-2.1-1-2.8-2-.1-.1-.1-.3.1-.4.1-.1.3-.1.4.1.6.8 1.5 1.5 2.5 1.7 1 .3 2 .3 2.9 0 .1 0 .2 0 .2 0 .1 0 .1.1.1.2.7 2.4 3.6 4.1 6.9 4.1 1.3 0 2.6-.3 3.7-.8.1-.1.3 0 .4.1.7 1.3 2.1 2.1 3.5 2.1 0 0 0 0 .1 0 .4 0 .8-.1 1.1-.2.1 0 .2 0 .3.1.6.7 1.5 1.1 2.4 1.1h.4c.1 0 .1 0 .2 0 .9.6 2 .6 3 .2.2-.1.3 0 .4.2.1.2 0 .3-.2.4C65.1 40.7 64.6 40.8 64 40.8z"/><g opacity=".3"><path fill="#ba8964" d="M41.9 48.7A2 2 0 1 0 41.9 52.7 2 2 0 1 0 41.9 48.7zM57 48.7A2 2 0 1 0 57 52.7 2 2 0 1 0 57 48.7z" opacity=".8"/></g><path fill="#8e7469" d="M45.9 46.5A.2.2 0 1 0 45.9 46.900000000000006.2.2 0 1 0 45.9 46.5zM46.2 48.199999999999996A.2.2 0 1 0 46.2 48.6.2.2 0 1 0 46.2 48.199999999999996zM47.7 47.3A.2.2 0 1 0 47.7 47.7.2.2 0 1 0 47.7 47.3zM50.9 47.3A.2.2 0 1 0 50.9 47.7.2.2 0 1 0 50.9 47.3zM51.7 48.699999999999996A.2.2 0 1 0 51.7 49.1.2.2 0 1 0 51.7 48.699999999999996zM52.8 47.3A.2.2 0 1 0 52.8 47.7.2.2 0 1 0 52.8 47.3z" opacity=".8"/><path fill="#472b29" d="M37.8 49.3c-.2 0-.3-.1-.3-.3l-.7-7.5c0-.2.1-.3.3-.3.2 0 .3.1.3.3l.7 7.5C38.2 49.2 38 49.3 37.8 49.3 37.9 49.3 37.9 49.3 37.8 49.3zM60.3 49.2C60.3 49.2 60.3 49.2 60.3 49.2c-.2 0-.3-.2-.3-.3l.5-7.4c0-.2.1-.3.3-.3.2 0 .3.2.3.3l-.5 7.4C60.6 49.1 60.5 49.2 60.3 49.2z"/><path fill="#472b29" d="M48,86.9c-6.9,0-14-1.5-19-6.2c-0.1-0.1-0.2-0.3-0.2-0.4c0.1-0.8,0.2-2.9,0.3-4.7 c0.1-2.7,0.2-3.8,0.3-4.1c0.5-1.9,1.7-3.6,3.4-4.7c0.7-0.5,1.5-0.8,2.3-1l7.7-2.7c0.4-0.1,0.6-0.4,0.7-0.8 c0.1-0.8,0.2-1.6,0.2-2.5c-2.2-1.3-4.1-3.1-5.6-5.3c-0.6-0.9-1-2-0.9-3.1l0-2c-0.7-0.2-1.3-0.8-1.5-1.5c-0.4-1.2-1-3.8-1-3.9 c-0.4-1.1-0.1-1.8,0.2-2.2c0.2-0.3,0.7-0.7,1.5-0.8c-0.1-0.8-0.4-2.2-0.7-4c-0.2-1.4-0.5-2.7-0.5-2.9c-0.1-0.2-0.1-0.5-0.1-0.8 c0-0.6,0.3-1.2,0.8-1.6c0.3-0.2,0.6-0.4,0.9-0.5c-0.5-1.1-0.6-2.1-0.3-2.9c0.3-0.8,1-1.5,1.8-1.9v0c0-3,3-5.4,6.7-5.4 c1.3,0,2.5,0.3,3.7,0.9c1.1-1.1,2.5-1.7,4.1-1.7c2.8-0.1,5.3,2,5.6,4.7c0.2,0,0.4-0.1,0.7,0l0.1,0c2.5,0,4.5,2,4.5,4.5 c0,0.3,0,0.5-0.1,0.7c1.7,0.3,3,1.7,3.1,3.5c0,0.9-0.3,1.7-0.9,2.3c0.1,0.2,0.1,0.4,0.1,0.6c0.8,0,1.6-0.4,2.2-1.1 c0.1-0.2,0.4-0.2,0.6-0.1c0.2,0.1,0.3,0.3,0.3,0.5c-0.5,2.6-1.2,4.2-3.3,4.9c-1.1,0.3-2.3,0.3-3.4,0.1c-0.1,0.1-0.1,0.2-0.2,0.3 c0.5,0.2,0.8,0.4,1,0.7c0.3,0.4,0.6,1.1,0.2,2.3l0,0c-0.1,0.6-0.7,3-1,3.9c-0.1,0.6-0.6,1.2-1.2,1.4V52c0,0.7-0.2,1.3-0.5,1.9 C59,56.4,57,58.5,54.5,60c0,0.8,0.1,1.6,0.2,2.4c0.1,0.4,0.3,0.7,0.7,0.8c1.6,0.6,9.6,3.4,10.3,3.9c3.2,2.1,3.3,4.2,3.4,5.7 l0.5,9.4c0,0.2-0.1,0.4-0.3,0.5C67,83.9,57.7,86.9,48,86.9z M29.8,80.2c11.6,10.4,34.2,4,38.8,1.6l-0.5-9.1 c-0.1-1.4-0.2-3.1-2.9-4.9c-0.5-0.3-6.5-2.5-10.1-3.7c-0.7-0.2-1.2-0.9-1.3-1.6c-0.1-0.9-0.2-1.9-0.2-2.8c0-0.2,0.1-0.4,0.3-0.4 c2.4-1.4,4.5-3.4,5.9-5.8C59.9,53,60,52.5,60,52V49c0-0.3,0.2-0.5,0.4-0.5c0.4-0.1,0.8-0.4,0.8-0.8c0.4-1.3,1-3.8,1-3.9 c0.2-0.5,0.3-1,0-1.4c-0.2-0.3-0.7-0.4-1.3-0.4c-0.2,0-0.4-0.1-0.5-0.3s0-0.4,0.2-0.6c0.4-0.3,0.7-0.6,0.9-1 c0.1-0.2,0.3-0.3,0.4-0.3h0.1c0,0,0.1,0,0.1,0c1,0.2,2.1,0.2,3.2,0c1.2-0.4,1.9-1.1,2.3-2.7c-0.7,0.4-1.4,0.5-2.2,0.5 c-0.3,0-0.5-0.2-0.5-0.5c0-0.4-0.1-0.7-0.2-1c-0.1-0.2,0-0.4,0.1-0.6c0.5-0.5,0.8-1.1,0.8-1.8c0-1.4-1.2-2.6-2.7-2.6 c-0.2,0-0.3-0.1-0.4-0.2c-0.1-0.1-0.1-0.3-0.1-0.5c0.1-0.3,0.2-0.7,0.2-1c0-1.9-1.6-3.5-3.5-3.5l-0.1,0c-0.3,0-0.7,0-1,0.1 c-0.2,0-0.3,0-0.4-0.1c-0.1-0.1-0.2-0.2-0.2-0.4v-0.1c-0.1-2.3-2.1-4.2-4.4-4.2c-0.1,0-0.1,0-0.2,0c-1.4,0-2.7,0.6-3.6,1.6 c-0.2,0.2-0.4,0.2-0.6,0.1c-1.1-0.6-2.3-1-3.5-1c-3.1,0-5.7,2-5.7,4.4v0.4c0,0.2-0.1,0.4-0.3,0.5c-0.7,0.3-1.3,0.8-1.5,1.6 c-0.3,0.6-0.1,1.5,0.5,2.6c0.1,0.1,0.1,0.4,0,0.5c-0.1,0.2-0.3,0.3-0.5,0.3c-0.4,0-0.7,0.1-1,0.3c-0.3,0.2-0.4,0.6-0.5,0.9 c0,0.2,0,0.3,0,0.5c0.1,0.2,0.3,1.5,0.5,3c0.3,1.9,0.7,4.2,0.8,4.5c0,0.1,0,0.3-0.1,0.4c-0.1,0.1-0.2,0.2-0.4,0.2 c-0.4,0-1,0.1-1.3,0.4c-0.3,0.4-0.2,0.9,0,1.3c0,0.1,0.6,2.7,1,3.9c0.1,0.5,0.5,0.8,1,0.9c0.1,0,0.3,0.1,0.4,0.1 c0.1,0.1,0.1,0.2,0.1,0.4v2.5c0,0.9,0.2,1.8,0.8,2.5c1.4,2.1,3.3,3.9,5.5,5.1c0.2,0.1,0.3,0.3,0.2,0.4c0,1-0.1,1.9-0.2,2.9 c-0.1,0.7-0.6,1.4-1.3,1.6l-7.7,2.7c-0.8,0.2-1.4,0.5-2.1,0.9c-1.4,1-2.5,2.5-3,4.2c-0.1,0.3-0.2,2.2-0.3,3.8 C30,77.4,29.9,79.2,29.8,80.2z"/><path fill="#6d1b18" d="M44.8,54.2c-0.1,0.2-0.1,0.4-0.1,0.6c0,1.8,2,3.3,4.5,3.3s4.5-1.5,4.5-3.3c0-0.2,0-0.4-0.1-0.6 H44.8z"/><path fill="#ee3e54" d="M51.5,57.6c-1.4-1-3.3-1-4.8,0C48.3,58.3,50,58.3,51.5,57.6z"/><path fill="#fdfcef" d="M46,54.2C46,54.2,46,54.2,46,54.2v0.6c0,0.5,0.6,0.9,1.4,0.9h3.4c0.8,0,1.4-0.4,1.4-0.9v-0.6 c0,0,0,0,0-0.1H46z"/><path fill="#472b29" d="M49.2,58.4c-2.6,0-4.8-1.6-4.8-3.5c0-0.2,0-0.5,0.1-0.7c0-0.1,0.1-0.2,0.2-0.2h8.8 c0.1,0,0.2,0.1,0.2,0.2c0.1,0.2,0.1,0.4,0.1,0.7C53.9,56.8,51.8,58.4,49.2,58.4z M45,54.5c0,0.1,0,0.2,0,0.4c0,1.7,1.9,3,4.3,3 c2.3,0,4.2-1.4,4.2-3c0-0.1,0-0.2,0-0.4H45z"/><g><path fill="#fdfcee" d="M69.7 57.50000000000001A14.4 14.4 0 1 0 69.7 86.30000000000001A14.4 14.4 0 1 0 69.7 57.50000000000001Z"/><path fill="#472b29" d="M69.7,86.7c-8.2,0-14.8-6.6-14.8-14.8c0-8.2,6.6-14.8,14.8-14.8s14.8,6.6,14.8,14.8 C84.5,80,77.8,86.7,69.7,86.7z M69.7,57.8c-7.8,0-14.1,6.3-14.1,14.1s6.3,14.1,14.1,14.1s14.1-6.3,14.1-14.1S77.4,57.8,69.7,57.8 z"/></g><g><path fill="#00a5a5" d="M69.7 60.00000000000001A11.9 11.9 0 1 0 69.7 83.80000000000001A11.9 11.9 0 1 0 69.7 60.00000000000001Z"/><path fill="#472b29" d="M69.7,84c-6.7,0-12.2-5.5-12.2-12.2c0-6.7,5.5-12.2,12.2-12.2s12.2,5.5,12.2,12.2 C81.8,78.6,76.4,84,69.7,84z M69.7,60.2c-6.4,0-11.7,5.2-11.7,11.7s5.2,11.7,11.7,11.7s11.7-5.2,11.7-11.7S76.1,60.2,69.7,60.2z"/></g><path fill="#77cbd2" d="M69.7,61.8c5.1,0,9.7,3.2,11.4,7.9 c-1.2-6.3-7.3-10.5-13.6-9.3c-4.7,0.9-8.4,4.6-9.3,9.3C60,64.9,64.6,61.7,69.7,61.8z" opacity=".79"/><path fill="#fdfcef" d="M64.6,77.3c-0.7,0-1-0.3-1.1-0.5c-0.1-0.2-0.1-0.4,0-0.6c0.4-0.7,1.1-1.2,1.8-1.4 c0.5-0.2,1.1-0.3,1.6-0.3H67v-6.1c0-0.1,0.1-0.2,0.2-0.3l6.8-1.7h0.1c0.1,0,0.1,0,0.2,0.1c0.1,0.1,0.1,0.1,0.1,0.2v6.9 c0,0,0,0.1,0,0.1c0,0,0,0.1,0,0.1c-0.4,0.7-1.1,1.2-1.8,1.4c-0.5,0.2-1.1,0.3-1.6,0.3c-0.7,0-1-0.3-1.1-0.5 c-0.1-0.2-0.1-0.4,0-0.6c0.4-0.7,1.1-1.1,1.8-1.4c0.5-0.2,1.1-0.3,1.6-0.3h0.1v-5.1l-5.1,1.3v6.2c0,0,0,0.1,0,0.1c0,0,0,0.1,0,0.1 c-0.4,0.7-1.1,1.2-1.8,1.4C65.8,77.1,65.2,77.2,64.6,77.3z"/><path fill="#472b29" d="M74.1,66.7v7l0,0c-0.1,0.4-0.8,1-1.7,1.3c-0.5,0.2-1,0.3-1.5,0.3c-0.4,0-0.8-0.1-0.9-0.3 c-0.2-0.4,0.5-1.1,1.7-1.6c0.5-0.2,1-0.3,1.5-0.3c0.1,0,0.2,0,0.3,0v-5.7l-5.7,1.4v6.5l0,0c-0.1,0.4-0.8,1-1.7,1.3 c-0.5,0.2-1,0.3-1.5,0.3c-0.4,0-0.8-0.1-0.9-0.3c-0.2-0.4,0.5-1.1,1.7-1.6c0.5-0.2,1-0.3,1.5-0.3h0.3v-6.3L74.1,66.7 M74.1,66.2 H74l-6.8,1.7c-0.2,0.1-0.4,0.3-0.4,0.5v5.8c-0.5,0-1,0.2-1.5,0.3c-0.8,0.2-1.6,0.8-2,1.5c-0.1,0.3-0.1,0.5,0,0.8 c0.1,0.3,0.5,0.7,1.4,0.7c0.6,0,1.2-0.1,1.7-0.3c0.9-0.2,1.6-0.8,2-1.6c0-0.1,0-0.1,0-0.2v-6l4.7-1.1v4.4c-0.5,0-1,0.2-1.5,0.3 c-0.8,0.2-1.6,0.8-2,1.5c-0.1,0.3-0.1,0.5,0,0.8c0.1,0.2,0.4,0.7,1.4,0.7c0.6,0,1.2-0.1,1.7-0.3c0.9-0.2,1.6-0.8,2-1.6 c0-0.1,0-0.1,0-0.2v-7c0-0.2-0.1-0.3-0.2-0.4C74.3,66.2,74.2,66.2,74.1,66.2L74.1,66.2z"/><path fill="#472b29" d="M68.2,70.4c-0.1,0-0.2-0.1-0.2-0.2c0-0.1,0-0.3,0.2-0.3l4.9-1.2c0.1,0,0.3,0,0.3,0.2 c0,0.1,0,0.3-0.2,0.3L68.2,70.4C68.2,70.4,68.2,70.4,68.2,70.4z"/></svg>