<svg xmlns="http://www.w3.org/2000/svg" viewBox="0 0 24 24"><path d="M 11 0 L 11 2.8125 C 10.992188 2.875 10.992188 2.9375 11 3 L 11 15.34375 C 10.167969 15.007813 9.140625 14.902344 8 15.1875 C 5.199219 15.886719 3 18.414063 3 20.8125 C 3 23.210938 5.199219 24.605469 8 23.90625 C 10.800781 23.207031 13 20.710938 13 18.3125 C 13 18.257813 13.003906 18.207031 13 18.15625 C 13.003906 18.105469 13.003906 18.050781 13 18 L 13 6.1875 C 18.234375 7.203125 20 12 20 12 L 20 8.40625 C 20 4.90625 16.101563 0 11 0 Z"/></svg>