<svg xmlns="http://www.w3.org/2000/svg" width="512" height="512" viewBox="0 0 512 512"><path fill="#010101" d="M478.9 234.9c-1 9.6-4.2 22.5-13.7 27.2-5.7 2.8-2.5 12.3 3.3 9.4 13-6.5 18.8-20.9 20.3-34.8C489.4 230.5 479.6 228.5 478.9 234.9zM446.1 249.5c-6.3 1.8-12.2 3.6-18.7 3.7-6.4.1-5.7 10.1.8 10 7.4-.1 14.2-2.2 21.3-4.3C455.6 257.2 452.3 247.7 446.1 249.5zM449.8 279.3c-2.4-.5-5.7 1.2-5.9 4 0 .1 0 .1 0 .2-.2.2-.6.7-.6.8-.8.9-2.1 1.6-3.1 2.3-2.4 1.6-4.8 2.9-7.1 4.5-5.2 3.8.4 12.1 5.6 8.3 4.9-3.6 14.6-7 15.1-14.2C453.9 282.5 452.7 279.9 449.8 279.3z"/><path fill="#EF4823" d="M225.1 208.2c-19-13.8-44.8-9.6-64.1.9-12.6 6.8-24 15.5-34.8 25-8.7 7.6-17.1 15.7-27.4 21.4-9.8 5.4-21.9 9.8-33.1 6.2-9.9-3.2-18-10-22.1-19.6-7.1-16.5-3.4-35.8 1.9-52.6C26.9 186 16 214.9 12.9 229.3c-6.4 29.6 6.4 59.3 25.1 82 32.4 39.4 90.1 53.9 138.5 39.7 21.3-6.2 46.1-16.3 53.9-39 4-11.8 5.4-24.5 6.3-36.9 1.1-15.1 1.2-30.3 1.2-45.5C235.9 221.2 232.3 213.4 225.1 208.2zM182.4 212.2c12.2 0 36-.6 38.4 15.6.9 6.4-9 7.1-10 .8-.6-4-9-5-12-5.5-5.2-.8-10.4-.9-15.6-.9C176.8 222.2 176 212.2 182.4 212.2zM184.4 247.2c6.4 0 7.2 9.9.8 10-9.6.1-20.3.9-28.6 6.2-5.5 3.4-11.1-4.9-5.6-8.3C160.8 248.9 173 247.3 184.4 247.2zM173.6 285.4c-6 3.4-12.7 4.5-19.1 6.6-6.1 2-9.4-7.5-3.3-9.4 5.5-1.8 11.7-2.5 16.9-5.4C173.6 274 179.2 282.2 173.6 285.4zM127.3 242c1.9-4.1 5.6-7.4 9.2-10.1 3.4-2.6 7.4-5.4 11.6-6.4 6.2-1.5 9.6 7.9 3.3 9.4-5.4 1.3-12.9 6.4-15.2 11.5C133.6 252.3 124.7 247.9 127.3 242zM27.1 255.9c-4.3-13.2-7.3-27.9-.8-40.9 2.9-5.7 11.9-1.3 9 4.4C30 230 33.1 242 36.5 252.6 38.5 258.7 29.1 262 27.1 255.9zM64.8 314.1C49.7 312.5 40.4 299 31.7 288c-4-5.1 4.3-10.6 8.3-5.6 7.1 8.9 14.6 20.5 26.8 21.9C73.2 305 71.2 314.8 64.8 314.1zM83.9 286c-6.3-.3-12.5-.9-18.4-3.3-6-2.4-1.5-11.3 4.4-9 4 1.6 8.8 2.1 13.1 2.2 3.4.1 8.7.7 11.8-.9 5.7-3 11.3 5.3 5.6 8.3C95.5 286 89.5 286.3 83.9 286zM101 304.1c6.3-4.1 14.4-2.5 21.1-5.6 5.9-2.7 9.1 6.8 3.3 9.4-3.4 1.5-7.2 2.1-10.9 2.6-2.6.3-5.8.4-8 1.8C101.2 315.9 95.6 307.6 101 304.1zM152.6 339.4c-11.5 7.1-25.7 4-38.4 3.8-6.4-.1-7.2-10-.8-10 10.4.1 24.2 3.6 33.6-2.2C152.5 327.7 158.1 336 152.6 339.4zM175.5 312l-12 6c-2.4 1.2-5.6-.7-6.4-3.1-1-2.8.6-5.2 3.1-6.4l12-6c2.4-1.2 5.6.7 6.4 3.1C179.5 308.4 177.9 310.7 175.5 312zM210.7 326.2c-2.3 10.9-16.7 13.6-25.3 17.8-5.8 2.8-9-6.7-3.3-9.4 3.7-1.8 7.7-3.1 11.4-4.8 2.2-1 6.8-2.8 7.3-5.4C202.2 318 212.1 319.9 210.7 326.2zM224.7 270.2c-2.1 7.1-2.9 14.6-5.5 21.5-2.5 6.9-6.7 12.3-12.6 16.6-5.2 3.8-10.8-4.5-5.6-8.3 10.5-7.7 10.5-20.4 13.9-31.8C216.7 262.2 226.5 264 224.7 270.2zM228.2 251.2c-5.8.1-11.2.9-16.7 2.7-6.1 2-9.4-7.4-3.3-9.4 6.3-2.1 12.6-3.2 19.3-3.3C233.8 241.2 234.6 251.2 228.2 251.2zM486.9 190.6c-1.8-3.5-3.7-7-5.7-10.3-1.7-2.8-3.2-6.2-5.9-8.1-.2-.1-.3-.2-.5-.4 4.6 19.7 2.5 41.8-13 56.1-19.6 18-50.8 18.9-74.3 8.4-21.1-9.4-37.3-29.1-61-32.6-27.5-4.1-73.1 1.7-77.5 34.4.2 1.5.3 3 .4 4.5 2.4 1 4.2 3.7 2.8 6.8-4.1 9.1-1.5 21.5-.3 31 1.5 12.1 7.8 22.1 16.5 30.3 18.8 17.7 42.8 33.1 68.1 39.1 28.4 6.8 57.7 2 84.1-10 21.9-9.9 44.5-23.8 57.6-44.6 12-19.1 16.3-41.8 16.6-64.2C495.2 217.6 493.3 202.9 486.9 190.6zM427.4 253.2c6.6-.1 12.5-1.9 18.7-3.7 6.2-1.8 9.5 7.6 3.3 9.4-7 2-13.9 4.2-21.3 4.3C421.8 263.3 421 253.4 427.4 253.2zM399.4 247.2c6.9.3 12.7 3.8 19.3 5.1 6.3 1.2 4.4 11.1-1.9 9.8-5.6-1.1-10.9-4.7-16.7-4.9-2.7-.1-5.1-1.6-5.4-4.6C394.6 250.1 396.7 247.1 399.4 247.2zM388 271.8c8.3 3 17 4.5 25.7 5.6 6.4.8 4.5 10.6-1.9 9.8-9.7-1.1-19.1-3.1-28.3-6.4C377.5 278.5 382 269.6 388 271.8zM342.9 229.3c.5-2.4 3.3-4.8 5.9-4 10 3.2 19.8 12 22.8 22.3 1.8 6.2-7.7 9.5-9.4 3.3-1.9-6.6-8.6-13.6-15.2-15.7C344.3 234.3 342.3 232.2 342.9 229.3zM333 254.8c10.3 4.9 18.5 13.2 25.9 21.7 4.2 4.9-4.1 10.4-8.3 5.6-6.2-7.2-13.4-14.2-22.1-18.3C322.7 261 327.2 252 333 254.8zM303.5 315c-7.2-5.2-13.4-12.1-18.7-19.2-4.9-6.7-9.4-13.9-11-22.2-1.2-6.3 8.8-7 10-.8 1.4 7.2 6.6 14 11 19.6 4.5 5.6 9.5 10.9 15.3 15C315.3 311.2 308.7 318.7 303.5 315zM289 251.9c1.9-2.2 4.9-2.1 7.1-.5 4.5 3.3 9.3 5.5 12.8 10 1.7 2.1.8 5.5-1.3 6.9-2.4 1.6-5.2.8-6.9-1.3-2.8-3.5-7.6-5.4-11.2-8C287.3 257.4 287.4 253.8 289 251.9zM310.6 234.7c-10.1-4.8-23.3-5.5-34.1-2.8-6.2 1.6-9.6-7.9-3.3-9.4 13.5-3.4 29.2-2.8 41.9 3.2C320.9 228.5 316.4 237.5 310.6 234.7zM340.2 344.2c-8.9-.1-17.2-2.7-22.5-10.2-3.8-5.3 4.5-10.8 8.3-5.6 3.1 4.4 8.3 5.7 13.5 5.8C345.8 334.3 346.6 344.3 340.2 344.2zM370.5 338c-10.7-7.7-22.1-14.3-33.9-20.3-5.8-2.9-1.3-11.9 4.4-9 12.6 6.3 24.7 13.5 36.1 21.7C382.3 334.2 375.7 341.7 370.5 338zM383.3 308.5c-1.1 2.2-4.4 3.7-6.7 2.3-2.7-1.7-6.1-3.4-9.4-3.5-2.7-.1-5.1-1.7-5.4-4.6-.2-2.5 1.9-5.4 4.6-5.4 5.2.1 10.2 1.7 14.6 4.5C383.3 303.2 384.6 305.8 383.3 308.5zM431.3 312.5c-6.9 10.4-22.2 8.8-33.1 8.8-6.4 0-7.2-10-.8-10 4.5 0 9 .2 13.5-.2 2.9-.2 9.5-.2 11.4-3.1C425.8 302.7 434.8 307.1 431.3 312.5zM453.7 285.2c-.5 7.1-10.2 10.6-15.1 14.2-5.2 3.8-10.8-4.5-5.6-8.3 2.3-1.7 4.8-3 7.1-4.5 1.1-.7 2.3-1.5 3.1-2.3 0 0 .4-.6.6-.8 0 0 0-.1 0-.2.2-2.7 3.4-4.4 5.9-4C452.7 279.9 453.9 282.5 453.7 285.2zM488.7 236.8c-1.4 13.8-7.2 28.3-20.3 34.8-5.8 2.9-9-6.6-3.3-9.4 9.5-4.7 12.8-17.6 13.7-27.2C479.6 228.5 489.4 230.5 488.7 236.8z"/><path fill="#010101" d="M499.7,196c-2.7-8.1-6.7-15.5-11.1-22.8c-1.9-3.2-3.7-6.2-6.6-8.6c-2.7-2.2-6.9-3.8-8.4-7c-2.3-4.7-9.2-3.3-9.9,0.6c-1.1,0.5-2.1,1-0.5,0.4c-5,1.8-3.7,8.5,0.4,9.6c6.1,19.7,5.5,43.3-13,56c-23.5,16.1-53.6,8.5-75.4-6.3c-10.1-6.9-19.8-14.5-31.1-19.5c-8.5-3.7-17.6-5-26.8-5.5c-17.7-1-36.4,1.3-52.3,9.5c-8.5,4.4-15.2,10.5-19.7,17.8c-1.1-3-2.3-5.9-3.9-8.8c-5-9-14.5-14.9-23.9-18.2c-23.1-8.1-45.9-1.8-66.4,10.1c-12.3,7.1-23.4,16.3-34,25.7c-8.6,7.6-17.3,15.3-27.8,20.3c-10.8,5-22.2,5.1-31.2-3.3c-7-6.6-8.3-17-8.2-26.1c0.2-11.1,3.4-22.2,6.8-32.6c0.7-2-0.8-4.7-2.7-5.4c-20.1-8.3-35.1,7-43.4,23.9c-10.2,20.9-12.3,44.9-5.3,67c7.2,22.7,21.5,43.9,39.1,59.7c17,15.2,38.2,24.9,60.3,29.9c38.5,8.6,84.3,2.8,116.5-21.4c15.1-11.4,20.5-28.2,23.3-46.3c0.1-0.6,0.2-1.1,0.2-1.7c2.4,7.1,6.1,13.7,11.5,19.7c18.6,21,45.2,36.8,71.7,45.3c27.2,8.8,56.6,6,83.2-3.3c24-8.3,48.1-22,65.5-40.7c18-19.4,25.7-44.9,27.7-70.8C505.6,226.9,504.9,211.4,499.7,196z M236.6,275.2c-0.9,12.4-2.2,25.1-6.3,36.9c-7.8,22.6-32.6,32.8-53.9,39C128,365.1,70.4,350.7,38,311.3c-18.7-22.7-31.5-52.3-25.1-82c3.1-14.4,14-43.3,32.6-39.8c-5.2,16.8-9,36.1-1.9,52.6c4.1,9.6,12.3,16.4,22.1,19.6c11.2,3.6,23.3-0.9,33.1-6.2c10.2-5.6,18.7-13.7,27.4-21.4c10.8-9.4,22.2-18.1,34.8-25c19.3-10.5,45.1-14.7,64.1-0.9c7.1,5.2,10.8,13,12.7,21.5C237.8,244.9,237.7,260,236.6,275.2z M495,231.2c-0.3,22.3-4.6,45-16.6,64.2c-13.1,20.8-35.7,34.7-57.6,44.6c-26.4,11.9-55.7,16.8-84.1,10c-25.4-6.1-49.3-21.4-68.1-39.1c-8.7-8.2-15-18.2-16.5-30.3c-1.2-9.5-3.8-21.9,0.3-31c1.4-3.1-0.4-5.8-2.8-6.8c-0.1-1.5-0.2-3-0.4-4.5c4.4-32.7,50-38.6,77.5-34.4c23.6,3.6,39.8,23.2,61,32.6c23.5,10.5,54.6,9.6,74.3-8.4c15.6-14.3,17.6-36.4,13-56.1c0.2,0.1,0.3,0.2,0.5,0.4c2.6,2,4.2,5.4,5.9,8.1c2,3.4,3.9,6.8,5.7,10.3C493.3,202.9,495.2,217.6,495,231.2z"/><path fill="#010101" d="M315 225.8c-12.7-6-28.4-6.7-41.9-3.2-6.2 1.6-2.9 11 3.3 9.4 10.8-2.7 24-2 34.1 2.8C316.4 237.5 320.9 228.5 315 225.8zM371.5 247.6c-2.9-10.2-12.8-19.1-22.8-22.3-2.6-.8-5.4 1.5-5.9 4-.6 2.9 1.4 5 4 5.9 6.7 2.1 13.3 9.1 15.2 15.7C363.9 257.1 373.3 253.8 371.5 247.6zM358.9 276.4c-7.4-8.5-15.6-16.8-25.9-21.7-5.8-2.8-10.3 6.2-4.4 9 8.7 4.1 15.8 11.1 22.1 18.3C354.8 286.8 363.2 281.3 358.9 276.4zM308.9 261.4c-3.5-4.5-8.4-6.7-12.8-10-2.2-1.6-5.1-1.7-7.1.5-1.7 1.9-1.7 5.4.5 7.1 3.6 2.6 8.4 4.5 11.2 8 1.7 2.1 4.6 3 6.9 1.3C309.7 266.9 310.6 263.6 308.9 261.4zM310.1 307.5c-5.8-4.2-10.8-9.5-15.3-15-4.5-5.6-9.6-12.4-11-19.6-1.2-6.2-11.2-5.6-10 .8 1.6 8.2 6 15.5 11 22.2 5.3 7.1 11.5 14 18.7 19.2C308.7 318.7 315.3 311.2 310.1 307.5zM377.1 330.5c-11.4-8.2-23.5-15.4-36.1-21.7-5.8-2.9-10.2 6.1-4.4 9 11.8 5.9 23.2 12.6 33.9 20.3C375.7 341.7 382.3 334.2 377.1 330.5zM413.8 277.3c-8.7-1-17.5-2.6-25.7-5.6-6-2.2-10.5 6.8-4.4 9 9.2 3.3 18.6 5.3 28.3 6.4C418.2 287.9 420.2 278.1 413.8 277.3zM422.3 308c-1.9 2.9-8.5 2.9-11.4 3.1-4.5.3-9 .2-13.5.2-6.4 0-5.6 9.9.8 10 10.9 0 26.2 1.6 33.1-8.8C434.8 307.1 425.8 302.7 422.3 308zM220.8 227.9c-2.4-16.2-26.1-15.6-38.4-15.6-6.4 0-5.6 10 .8 10 5.2 0 10.4.2 15.6.9 3 .4 11.4 1.4 12 5.5C211.7 235 221.7 234.2 220.8 227.9zM36.5 252.6C33.1 242 30 230 35.3 219.5c2.9-5.8-6.1-10.2-9-4.4-6.6 13-3.6 27.6.8 40.9C29.1 262 38.5 258.7 36.5 252.6zM66.8 304.3c-12.2-1.4-19.8-13-26.8-21.9-4-5-12.3.5-8.3 5.6 8.7 11 18.1 24.4 33.2 26.1C71.2 314.8 73.2 305 66.8 304.3zM95 275.1c-3.2 1.7-8.4 1-11.8.9-4.3-.1-9.1-.6-13.1-2.2-6-2.4-10.4 6.6-4.4 9 5.9 2.3 12.1 2.9 18.4 3.3 5.6.3 11.6.1 16.7-2.6C106.3 280.4 100.7 272.1 95 275.1zM148.1 225.5c-4.2 1-8.2 3.8-11.6 6.4-3.5 2.7-7.3 6-9.2 10.1-2.7 5.9 6.3 10.3 9 4.4 2.3-5.1 9.8-10.2 15.2-11.5C157.7 233.5 154.4 224 148.1 225.5zM184.4 247.2c-11.4.1-23.6 1.7-33.4 7.8-5.5 3.4.1 11.7 5.6 8.3 8.3-5.2 19-6.1 28.6-6.2C191.6 257.2 190.8 247.2 184.4 247.2zM214.9 268.3c-3.4 11.5-3.4 24.1-13.9 31.8-5.2 3.8.4 12.1 5.6 8.3 5.9-4.3 10.1-9.7 12.6-16.6 2.5-7 3.4-14.4 5.5-21.5C226.5 264 216.7 262.2 214.9 268.3zM147 331.1c-9.4 5.7-23.2 2.3-33.6 2.2-6.4-.1-5.6 9.9.8 10 12.7.1 26.9 3.2 38.4-3.8C158.1 336 152.5 327.7 147 331.1zM122.1 298.5c-6.7 3-14.8 1.4-21.1 5.6-5.4 3.5.2 11.8 5.6 8.3 2.2-1.5 5.4-1.5 8-1.8 3.7-.5 7.5-1.1 10.9-2.6C131.3 305.3 128 295.8 122.1 298.5zM168 277.1c-5.1 2.9-11.3 3.6-16.9 5.4-6.1 2-2.8 11.4 3.3 9.4 6.5-2.1 13.1-3.2 19.1-6.6C179.2 282.2 173.6 274 168 277.1zM178.5 305.6c-.8-2.3-3.9-4.3-6.4-3.1l-12 6c-2.4 1.2-4.1 3.6-3.1 6.4.8 2.3 3.9 4.3 6.4 3.1l12-6C177.9 310.7 179.5 308.4 178.5 305.6zM200.9 324.3c-.6 2.7-5.1 4.4-7.3 5.4-3.8 1.7-7.7 3-11.4 4.8-5.7 2.8-2.5 12.2 3.3 9.4 8.6-4.1 22.9-6.8 25.3-17.8C212.1 319.9 202.2 318 200.9 324.3zM381 301.8c-4.4-2.8-9.4-4.4-14.6-4.5-2.7-.1-4.8 2.9-4.6 5.4.2 2.9 2.6 4.5 5.4 4.6 3.3.1 6.7 1.7 9.4 3.5 2.3 1.5 5.6 0 6.7-2.3C384.6 305.8 383.3 303.2 381 301.8zM339.4 334.2c-5.2-.1-10.3-1.4-13.5-5.8-3.7-5.2-12 .3-8.3 5.6 5.4 7.5 13.7 10.1 22.5 10.2C346.6 344.3 345.8 334.3 339.4 334.2zM227.4 241.2c-6.6.1-13 1.2-19.3 3.3-6.1 2-2.8 11.4 3.3 9.4 5.5-1.8 10.9-2.7 16.7-2.7C234.6 251.2 233.8 241.2 227.4 241.2zM418.8 252.3c-6.7-1.3-12.4-4.8-19.3-5.1-2.7-.1-4.8 2.9-4.6 5.4.2 3 2.7 4.5 5.4 4.6 5.7.2 11.1 3.8 16.7 4.9C423.2 263.4 425.1 253.6 418.8 252.3z"/></svg>