<svg xmlns="http://www.w3.org/2000/svg" viewBox="0 0 100 100"><circle cx="14" cy="29" r="2" fill="#ee3e54"/><circle cx="78" cy="13" r="1" fill="#f1bc19"/><circle cx="51" cy="50" r="37" fill="#fce0a2"/><circle cx="84" cy="15" r="4" fill="#f1bc19"/><circle cx="88" cy="24" r="2" fill="#ee3e54"/><circle cx="82" cy="76" r="2" fill="#fbcd59"/><circle cx="16" cy="63" r="4" fill="#fbcd59"/><circle cx="26" cy="87" r="2" fill="#ee3e54"/><circle cx="20.5" cy="54.5" r="2.5" fill="#fff"/><circle cx="22" cy="67" r="1" fill="#f1bc19"/><circle cx="81" cy="34" r="1" fill="#fff"/><path fill="#e1e0d8" d="M66.719,73H35.281C31.26,73,28,69.74,28,65.719V34.281C28,30.26,31.26,27,35.281,27h31.438 C70.74,27,74,30.26,74,34.281v31.438C74,69.74,70.74,73,66.719,73z"/><path fill="#472b29" d="M66.719,73.7H35.281c-4.401,0-7.981-3.58-7.981-7.981V34.281c0-4.401,3.581-7.981,7.981-7.981 h31.438c4.401,0,7.981,3.58,7.981,7.981v31.438C74.7,70.12,71.12,73.7,66.719,73.7z M35.281,27.7 c-3.629,0-6.581,2.952-6.581,6.581v31.438c0,3.629,2.952,6.581,6.581,6.581h31.438c3.629,0,6.581-2.952,6.581-6.581V34.281 c0-3.629-2.952-6.581-6.581-6.581H35.281z"/><path fill="#472b29" d="M31.5,40.167c-0.276,0-0.5-0.224-0.5-0.5v-4.333C31,32.393,33.393,30,36.333,30h14 c0.276,0,0.5,0.224,0.5,0.5s-0.224,0.5-0.5,0.5h-14C33.944,31,32,32.944,32,35.333v4.333C32,39.943,31.776,40.167,31.5,40.167z"/><path fill="#472b29" d="M42.583,70h-6.25C33.393,70,31,67.607,31,64.667V44.333c0-0.276,0.224-0.5,0.5-0.5 s0.5,0.224,0.5,0.5v20.333C32,67.056,33.944,69,36.333,69h6.25c0.276,0,0.5,0.224,0.5,0.5S42.86,70,42.583,70z"/><path fill="#472b29" d="M65.667,70h-19.75c-0.276,0-0.5-0.224-0.5-0.5s0.224-0.5,0.5-0.5h19.75 C68.057,69,70,67.056,70,64.667v-5.083c0-0.276,0.224-0.5,0.5-0.5s0.5,0.224,0.5,0.5v5.083C71,67.607,68.607,70,65.667,70z"/><g><path fill="#472b29" d="M70.5,56.167c-0.276,0-0.5-0.224-0.5-0.5V35.333C70,32.944,68.057,31,65.667,31h-2.75 c-0.276,0-0.5-0.224-0.5-0.5s0.224-0.5,0.5-0.5h2.75C68.607,30,71,32.393,71,35.333v20.333C71,55.943,70.776,56.167,70.5,56.167z"/></g><g><path fill="#472b29" d="M59.5,31h-6.25c-0.276,0-0.5-0.224-0.5-0.5s0.224-0.5,0.5-0.5h6.25c0.276,0,0.5,0.224,0.5,0.5 S59.776,31,59.5,31z"/></g><g><circle cx="51" cy="50" r="16" fill="#88ae45"/></g><g><circle cx="51" cy="50" r="11" fill="#c0d078"/></g><g><path fill="#78a0cf" d="M51,34c-2.752,0-5.33,0.711-7.588,1.937L51.013,51.5l7.596-15.552C56.345,34.715,53.76,34,51,34z"/><path fill="#472b29" d="M51.013,52.07l-7.931-16.238l0.21-0.114c2.405-1.305,4.998-1.967,7.708-1.967 c2.718,0,5.318,0.666,7.728,1.979l0.21,0.114L51.013,52.07z M43.742,36.044l7.271,14.886l7.266-14.875 C56.002,34.857,53.555,34.25,51,34.25C48.454,34.25,46.013,34.854,43.742,36.044z"/></g><g><path fill="#fff" d="M55.505,52.171C54.697,53.845,52.984,55,51,55c-2.761,0-5-2.239-5-5s2.239-5,5-5s5,2.239,5,5"/><path fill="#472b29" d="M51,55.25c-2.895,0-5.25-2.355-5.25-5.25s2.355-5.25,5.25-5.25c2.895,0,5.25,2.355,5.25,5.25 c0,0.138-0.112,0.25-0.25,0.25s-0.25-0.112-0.25-0.25c0-2.619-2.131-4.75-4.75-4.75s-4.75,2.131-4.75,4.75s2.131,4.75,4.75,4.75 c1.812,0,3.492-1.055,4.28-2.688c0.062-0.125,0.21-0.176,0.334-0.116c0.125,0.06,0.177,0.209,0.117,0.334 C54.859,54.084,53.003,55.25,51,55.25z"/></g><g><circle cx="51" cy="50" r="3" fill="#78a0cf"/><path fill="#472b29" d="M51,53.25c-1.792,0-3.25-1.458-3.25-3.25s1.458-3.25,3.25-3.25s3.25,1.458,3.25,3.25 S52.792,53.25,51,53.25z M51,47.25c-1.517,0-2.75,1.234-2.75,2.75s1.233,2.75,2.75,2.75s2.75-1.234,2.75-2.75 S52.517,47.25,51,47.25z"/></g><g><path fill="#472b29" d="M51,66.25c-8.96,0-16.25-7.29-16.25-16.25S42.04,33.75,51,33.75c8.96,0,16.25,7.29,16.25,16.25 S59.96,66.25,51,66.25z M51,34.25c-8.685,0-15.75,7.065-15.75,15.75S42.315,65.75,51,65.75S66.75,58.685,66.75,50 S59.685,34.25,51,34.25z"/></g><g><path fill="#472b29" d="M40.965,45.738c-0.035,0-0.069-0.007-0.103-0.022c-0.126-0.057-0.182-0.205-0.125-0.331 c0.772-1.714,1.975-3.222,3.479-4.36c0.108-0.083,0.267-0.062,0.35,0.048c0.083,0.11,0.062,0.267-0.048,0.35 c-1.438,1.088-2.587,2.529-3.324,4.167C41.151,45.684,41.06,45.738,40.965,45.738z"/></g><g><path fill="#472b29" d="M51,61.25c-6.203,0-11.25-5.047-11.25-11.25c0-0.856,0.097-1.709,0.287-2.536 c0.031-0.134,0.165-0.219,0.3-0.188c0.135,0.031,0.218,0.165,0.188,0.3c-0.182,0.79-0.274,1.606-0.274,2.424 c0,5.927,4.822,10.75,10.75,10.75S61.75,55.927,61.75,50S56.928,39.25,51,39.25c-1.451,0-2.859,0.284-4.185,0.845 c-0.127,0.053-0.273-0.005-0.328-0.133c-0.054-0.127,0.006-0.274,0.133-0.328c1.387-0.587,2.86-0.884,4.379-0.884 c6.203,0,11.25,5.047,11.25,11.25S57.203,61.25,51,61.25z"/></g></svg>