<?xml version="1.0"?><svg xmlns="http://www.w3.org/2000/svg" viewBox="0 0 50 50">    <path d="M12.14,15.62c-0.86-0.4-1.8-0.62-2.77-0.62c-1.89,0-3.67,0.85-4.65,2.23c-0.18,0.25-0.36,0.56-0.5,0.92c0,0,0,0,0,0.01 C4.08,18.61,4.01,19.07,4,19.54c0.02,0.35,0.08,0.73,0.22,1.13c0.24,0.7,0.43,1.37,0.6,2.03c0.7,2.61,1.14,4.21,4.3,4.29 C9.04,26.48,9,25.91,9,25.26C9,21.65,10.18,18.32,12.14,15.62z M25,11c-7.72,0-14,6.4-14,14.26c0,2.03,0.42,2.62,0.67,2.79 c0.69,0.48,2.55-0.23,4.52-0.97c1.72-0.66,3.76-1.41,5.97-1.81c-0.1-0.24-0.16-0.5-0.16-0.77c0-1.38,1.34-2.5,3-2.5s3,1.12,3,2.5 c0,0.27-0.06,0.53-0.16,0.77c2.21,0.4,4.25,1.15,5.97,1.81c1.97,0.74,3.83,1.45,4.52,0.97c0.25-0.17,0.67-0.76,0.67-2.79 C39,17.4,32.72,11,25,11z M19,22c-1.1,0-2-0.9-2-2c0-1.1,0.9-2,2-2s2,0.9,2,2C21,21.1,20.1,22,19,22z M31,22c-1.1,0-2-0.9-2-2 c0-1.1,0.9-2,2-2s2,0.9,2,2C33,21.1,32.1,22,31,22z M39.47,29.7c-0.52,0.36-1.11,0.51-1.76,0.51c-1.28,0-2.82-0.59-4.6-1.26 C30.69,28.04,27.96,27,25,27s-5.69,1.04-8.11,1.95c-2.68,1.02-4.81,1.82-6.36,0.75c-0.09-0.07-0.18-0.15-0.27-0.23 c0.34,1.34,1,2.3,1.99,2.88c2.32,1.35,6.58,0.59,12.31-2.19L25,29.95l0.44,0.21c5.73,2.78,9.99,3.53,12.31,2.19 c0.99-0.58,1.65-1.54,1.99-2.88C39.65,29.55,39.56,29.63,39.47,29.7z M25,0c-5.75,0-12.45,9.27-14.93,13.04 c1.18,0.09,2.33,0.44,3.37,1C16.36,10.94,20.46,9,25,9c4.43,0,8.44,1.84,11.34,4.8c1.08-0.52,2.27-0.8,3.49-0.8h0.08 C37.4,9.2,30.73,0,25,0z M41.94,28.74c-0.01,0.01-0.03,0.02-0.05,0.02c-0.31,2.46-1.38,4.3-3.13,5.32 c-2.9,1.68-7.53,1.04-13.76-1.91c-3.97,1.88-7.29,2.82-9.92,2.82c-1.5,0-2.78-0.3-3.84-0.92c-1.71-0.99-2.77-2.77-3.12-5.15 c-0.03,0-0.06-0.01-0.09-0.02C8.01,29.25,8,29.61,8,30c0,5.17,2.52,12.19,9.64,14.93c2.39,0.92,6.15,3.24,6.36,4.07 c0,0.33,0.17,0.64,0.44,0.83C24.61,49.94,24.8,50,25,50c0.13,0,0.25-0.02,0.37-0.07c0.19-0.08,3.9-1.6,5.19-4.73 c0.25,0.36,0.42,0.65,0.44,0.8c0,0.34,0.17,0.65,0.46,0.84c0.28,0.18,0.64,0.21,0.95,0.07C32.8,46.74,42,42.51,42,30 C42,29.57,41.98,29.15,41.94,28.74z M44.25,17.15C43.3,15.82,41.6,15,39.83,15c-0.74,0-1.46,0.14-2.14,0.4 c2.07,2.73,3.31,6.15,3.31,9.86c0,0.62-0.04,1.17-0.11,1.67c2.3-0.34,2.7-1.87,3.31-4.22c0.17-0.66,0.35-1.34,0.58-2.03 C45.2,19.46,45.01,18.2,44.25,17.15z"/></svg>