<svg xmlns="http://www.w3.org/2000/svg" viewBox="0 0 24 24"><path d="M 12 2 C 6.4889971 2 2 6.4889971 2 12 C 2 17.511003 6.4889971 22 12 22 C 17.511003 22 22 17.511003 22 12 C 22 6.4889971 17.511003 2 12 2 z M 5.0722656 8 L 11 8 L 12 10 L 13 8 L 18.927734 8 C 19.60659 9.1763918 20 10.53955 20 12 C 20 13.46045 19.60659 14.823608 18.927734 16 L 13 16 L 12 14 L 11 16 L 5.0722656 16 C 4.3934096 14.823608 4 13.46045 4 12 C 4 10.53955 4.3934096 9.1763918 5.0722656 8 z M 5 9 L 5 15 L 7 15 L 7 12.625 L 8.375 15 L 10 15 L 10 9 L 8 9 L 8 11.25 L 6.625 9 L 5 9 z M 14 9 L 14 15 L 16 15 L 16 13 L 18 13 C 18.552 13 19 12.552 19 12 L 19 10 C 19 9.448 18.552 9 18 9 L 14 9 z M 16 10 L 17 10 L 17 12 L 16 12 L 16 10 z M 12 11 A 1 1 0 0 0 11 12 A 1 1 0 0 0 12 13 A 1 1 0 0 0 13 12 A 1 1 0 0 0 12 11 z"/></svg>