<svg xmlns="http://www.w3.org/2000/svg" viewBox="0 0 100 100"><path d="M 72.492188 12.992188 A 0.50005 0.50005 0 0 0 72 13.5 L 72 17.5 A 0.50005 0.50005 0 1 0 73 17.5 L 73 13.5 A 0.50005 0.50005 0 0 0 72.492188 12.992188 z M 26 13 C 21.202589 13 17.265632 16.429799 16.306641 20.951172 C 13.186499 22.439086 11 25.572784 11 29.25 C 11 31.473854 11.879591 33.45361 13.191406 35.048828 C 12.473387 36.3834 12 37.877869 12 39.5 C 12 44.22985 15.496727 48.114148 20.035156 48.828125 C 20.635364 49.317397 21.294409 49.738658 22 50.078125 L 22 58.117188 C 14.985524 60.396891 11.199219 65.400391 11.199219 65.400391 A 1.0001 1.0001 0 0 0 11 66 L 11 77.433594 A 0.50005 0.50005 0 0 0 11 77.591797 L 11 79 C 11 83.406438 14.593562 87 19 87 L 52 87 L 82 87 C 85.854334 87 89 83.854334 89 80 L 89 65.033203 A 1.0001264 1.0001264 0 0 0 89 65 A 1.0001 1.0001 0 0 0 89 64.984375 A 1.0001264 1.0001264 0 0 0 88.982422 64.818359 A 1.0001 1.0001 0 0 0 88.972656 64.769531 A 1.0001264 1.0001264 0 0 0 88.955078 64.705078 A 1.0001 1.0001 0 0 0 88.933594 64.642578 A 1.0001264 1.0001264 0 0 0 88.929688 64.634766 A 1.0001 1.0001 0 0 0 88.892578 64.550781 A 1.0001264 1.0001264 0 0 0 88.876953 64.521484 A 1.0001 1.0001 0 0 0 88.84375 64.462891 A 1.0001264 1.0001264 0 0 0 88.826172 64.435547 A 1.0001 1.0001 0 0 0 88.810547 64.416016 A 1.0001264 1.0001264 0 0 0 88.765625 64.355469 A 1.0001 1.0001 0 0 0 88.759766 64.349609 C 88.759766 64.349609 88.714688 64.30138 88.708984 64.294922 A 1.0001 1.0001 0 0 0 88.697266 64.283203 C 88.538569 64.10437 86.95152 62.356366 83.863281 60.626953 C 80.609336 58.804744 75.679487 57 69 57 C 56.742135 57 48.586289 62.617466 46.447266 64.269531 C 45.31691 63.414621 44.170771 62.587015 43 61.802734 L 43 53.113281 C 43.520185 52.784233 43.990063 52.378043 44.398438 51.919922 C 48.610612 51.699897 52 48.26533 52 44 C 52 42.387961 51.445437 40.92985 50.623047 39.673828 C 51.444181 38.470808 52 37.063149 52 35.5 C 52 32.569751 50.278849 30.071521 47.816406 28.839844 C 47.239076 24.993027 44.001357 22 40 22 C 39.228561 22 38.487403 22.118695 37.787109 22.322266 C 37.155422 21.779635 36.45427 21.31403 35.693359 20.951172 C 34.734368 16.429799 30.797411 13 26 13 z M 26 15 C 29.831403 15 33.001672 17.681782 33.792969 21.265625 C 33.138261 21.097972 32.456356 21 31.75 21 C 30.916766 21 30.113025 21.125648 29.355469 21.355469 A 0.50005 0.50005 0 1 0 29.644531 22.3125 C 30.310975 22.11032 31.017234 22 31.75 22 C 32.714849 22 33.633293 22.190448 34.474609 22.53125 A 1.0001 1.0001 0 0 0 34.476562 22.533203 A 1.0001 1.0001 0 0 0 34.501953 22.544922 C 34.825569 22.677947 35.137295 22.835444 35.435547 23.011719 C 35.448626 23.019452 35.461583 23.027344 35.474609 23.035156 C 36.058091 23.384986 36.586873 23.814644 37.048828 24.308594 C 37.073979 24.335557 37.098306 24.363279 37.123047 24.390625 C 37.56527 24.878145 37.941163 25.426364 38.238281 26.021484 C 38.259784 26.064689 38.28012 26.108652 38.300781 26.152344 C 38.436401 26.438295 38.55656 26.731808 38.654297 27.037109 C 38.659148 27.052299 38.665168 27.066798 38.669922 27.082031 C 38.766452 27.39065 38.835802 27.711931 38.890625 28.037109 C 38.901853 28.103864 38.912479 28.170916 38.921875 28.238281 C 38.968165 28.569566 39 28.9055 39 29.25 C 39 31.209012 38.224446 32.97197 36.964844 34.277344 A 1.0001 1.0001 0 0 0 36.839844 35.505859 C 37.572578 36.666907 38 38.028878 38 39.5 C 38 43.338231 35.133489 46.478286 31.427734 46.935547 A 1.0001 1.0001 0 0 0 30.896484 47.171875 C 29.580165 48.310504 27.877923 49 26 49 C 24.122077 49 22.419835 48.310504 21.103516 47.171875 A 1.0001 1.0001 0 0 0 20.572266 46.935547 C 16.866511 46.478286 14 43.338231 14 39.5 C 14 39.164063 14.029143 38.83518 14.072266 38.511719 C 14.07905 38.460321 14.083977 38.408479 14.091797 38.357422 C 14.140755 38.04105 14.207394 37.73152 14.294922 37.429688 C 14.303977 37.398171 14.314762 37.36728 14.324219 37.335938 C 14.503777 36.746189 14.760856 36.190775 15.072266 35.669922 C 16.072388 34.0002 17.691124 32.744562 19.625 32.246094 A 0.50005 0.50005 0 0 0 19.507812 31.259766 A 0.50005 0.50005 0 0 0 19.375 31.277344 C 17.594452 31.73629 16.042508 32.759423 14.914062 34.140625 C 13.728535 32.84968 13 31.14319 13 29.25 C 13 26.212051 14.861452 23.628719 17.498047 22.544922 A 1.0001 1.0001 0 0 0 18.105469 21.771484 C 18.696686 17.936132 21.989778 15 26 15 z M 64.476562 15.138672 A 0.50005 0.50005 0 0 0 64.066406 15.894531 L 66.066406 19.357422 A 0.5005035 0.5005035 0 0 0 66.933594 18.857422 L 64.933594 15.394531 A 0.50005 0.50005 0 0 0 64.476562 15.138672 z M 80.507812 15.138672 A 0.50005 0.50005 0 0 0 80.066406 15.394531 L 78.066406 18.857422 A 0.5005035 0.5005035 0 0 0 78.933594 19.357422 L 80.933594 15.894531 A 0.50005 0.50005 0 0 0 80.507812 15.138672 z M 72.5 20 C 67.265137 20 63 24.265141 63 29.5 C 63 34.734859 67.265137 39 72.5 39 C 77.734863 39 82 34.734859 82 29.5 C 82 24.265141 77.734863 20 72.5 20 z M 58.605469 20.996094 A 0.50005 0.50005 0 0 0 58.394531 21.933594 L 61.857422 23.933594 A 0.5005035 0.5005035 0 0 0 62.357422 23.066406 L 58.894531 21.066406 A 0.50005 0.50005 0 0 0 58.65625 20.996094 A 0.50005 0.50005 0 0 0 58.605469 20.996094 z M 86.328125 20.996094 A 0.50005 0.50005 0 0 0 86.105469 21.066406 L 82.642578 23.066406 A 0.5005035 0.5005035 0 0 0 83.142578 23.933594 L 86.605469 21.933594 A 0.50005 0.50005 0 0 0 86.378906 20.996094 A 0.50005 0.50005 0 0 0 86.328125 20.996094 z M 72.5 22 C 76.653984 22 80 25.346019 80 29.5 C 80 33.653981 76.653984 37 72.5 37 C 68.346016 37 65 33.653981 65 29.5 C 65 25.346019 68.346016 22 72.5 22 z M 40 24 C 43.177306 24 45.751599 26.448197 45.976562 29.5625 A 1.0001 1.0001 0 0 0 46.59375 30.414062 C 48.590719 31.237538 50 33.195895 50 35.5 C 50 36.801815 49.543332 37.982181 48.791016 38.923828 C 48.180958 38.348134 47.479826 37.867176 46.693359 37.539062 A 0.50005 0.50005 0 0 0 46.498047 37.498047 A 0.50005 0.50005 0 0 0 46.306641 38.460938 C 47.299754 38.875263 48.148447 39.55661 48.787109 40.404297 C 48.915615 40.575068 49.032519 40.753793 49.142578 40.9375 C 49.197146 41.028825 49.252972 41.118492 49.302734 41.212891 C 49.401896 41.400303 49.485305 41.596579 49.564453 41.794922 C 49.601946 41.889373 49.644974 41.981369 49.677734 42.078125 C 49.748126 42.284999 49.798116 42.500319 49.845703 42.716797 C 49.868473 42.820832 49.900672 42.921338 49.917969 43.027344 C 49.969746 43.343708 50 43.668033 50 44 C 50 47.325562 47.325562 50 44 50 C 44.08824 50 44.069846 49.998047 43.978516 49.998047 A 1.0001 1.0001 0 0 0 43.179688 50.396484 C 42.444815 51.369908 41.306863 52 40 52 C 38.684025 52 37.538299 51.361008 36.804688 50.376953 A 1.0001 1.0001 0 0 0 36.072266 49.976562 C 34.816019 49.888077 33.673292 49.409864 32.75 48.667969 C 36.899741 47.653651 40 43.952776 40 39.5 C 40 37.877869 39.526613 36.3834 38.808594 35.048828 C 40.120409 33.45361 41 31.473854 41 29.25 C 41 27.31165 40.381189 25.533454 39.349609 24.058594 C 39.565105 24.034229 39.778045 24 40 24 z M 56.5 29 A 0.50005 0.50005 0 1 0 56.5 30 L 60.5 30 A 0.50005 0.50005 0 1 0 60.5 29 L 56.5 29 z M 84.5 29 A 0.50005 0.50005 0 1 0 84.5 30 L 88.5 30 A 0.50005 0.50005 0 1 0 88.5 29 L 84.5 29 z M 21.5 31 A 0.50005 0.50005 0 1 0 21.5 32 C 21.811468 32 22.123028 32.025143 22.4375 32.064453 A 0.50005 0.50005 0 1 0 22.5625 31.072266 C 22.220972 31.029578 21.866532 31 21.5 31 z M 62.080078 34.996094 A 0.50005 0.50005 0 0 0 61.857422 35.066406 L 58.394531 37.066406 A 0.5005035 0.5005035 0 0 0 58.894531 37.933594 L 62.357422 35.933594 A 0.50005 0.50005 0 0 0 62.130859 34.996094 A 0.50005 0.50005 0 0 0 62.080078 34.996094 z M 82.853516 34.996094 A 0.50005 0.50005 0 0 0 82.642578 35.933594 L 86.105469 37.933594 A 0.5005035 0.5005035 0 0 0 86.605469 37.066406 L 83.142578 35.066406 A 0.50005 0.50005 0 0 0 82.904297 34.996094 A 0.50005 0.50005 0 0 0 82.853516 34.996094 z M 44 37 C 43.805359 37 43.628707 37.013551 43.464844 37.025391 A 0.50026033 0.50026033 0 1 0 43.535156 38.023438 C 43.703295 38.011283 43.856641 38 44 38 C 44.143359 38 44.296707 38.011278 44.464844 38.023438 A 0.50026033 0.50026033 0 1 0 44.535156 37.025391 C 44.371295 37.013543 44.194641 37 44 37 z M 66.507812 39.386719 A 0.50005 0.50005 0 0 0 66.066406 39.642578 L 64.066406 43.105469 A 0.5005035 0.5005035 0 0 0 64.933594 43.605469 L 66.933594 40.142578 A 0.50005 0.50005 0 0 0 66.507812 39.386719 z M 78.476562 39.386719 A 0.50005 0.50005 0 0 0 78.066406 40.142578 L 80.066406 43.605469 A 0.5005035 0.5005035 0 0 0 80.933594 43.105469 L 78.933594 39.642578 A 0.50005 0.50005 0 0 0 78.476562 39.386719 z M 72.492188 40.992188 A 0.50005 0.50005 0 0 0 72 41.5 L 72 45.5 A 0.50005 0.50005 0 1 0 73 45.5 L 73 41.5 A 0.50005 0.50005 0 0 0 72.492188 40.992188 z M 30.830078 49.623047 C 32.065759 50.844943 33.716297 51.633803 35.537109 51.859375 C 35.959542 52.347231 36.451711 52.774953 37 53.119141 L 37 58.552734 C 34.856914 57.705403 32.550109 57.152204 30 57.035156 L 30 50.078125 C 30.285334 49.940848 30.560891 49.786528 30.830078 49.623047 z M 23 50.484375 C 23.941724 50.811455 24.946939 51 26 51 C 27.053061 51 28.058276 50.811455 29 50.484375 L 29 57 C 26.808181 57 24.807326 57.309556 23 57.804688 L 23 50.484375 z M 42 53.617188 L 42 61.136719 C 40.717142 60.326233 39.389558 59.592903 38 58.972656 L 38 53.621094 C 38.620256 53.861678 39.290118 54 40 54 C 40.710889 54 41.380451 53.859805 42 53.617188 z M 29 59 C 36.610757 59 41.855555 63.264777 47.734375 67.767578 C 53.105615 71.881605 59.12658 75.979424 67.558594 76.712891 C 62.506111 81.242352 57.96423 85 52 85 L 19 85 C 15.674438 85 13 82.325562 13 79 L 13 76.712891 C 15.131827 74.779946 20.226738 71 27.5 71 C 34.855047 71 39.487244 75.158279 46.316406 77.855469 A 0.50005 0.50005 0 1 0 46.683594 76.925781 C 40.042756 74.302971 35.228953 70 27.5 70 C 20.536188 70 15.52938 73.291269 13 75.414062 L 13 66.375 C 13.510493 65.722487 18.982179 59 29 59 z M 69 59 C 75.320513 59 79.890664 60.695256 82.886719 62.373047 C 84.291035 63.159464 85.30431 63.914389 86.017578 64.509766 C 83.481139 65.284984 81.20509 66.368136 79.099609 67.617188 C 78.54885 67.317627 77.731439 66.925528 76.589844 66.527344 C 74.388387 65.759436 71.055556 65 66.5 65 C 58.246278 65 52.776231 66.958267 50.972656 67.703125 C 50.294461 67.201585 49.621148 66.692847 48.951172 66.179688 C 48.667346 65.962295 48.383259 65.745219 48.099609 65.527344 C 50.518736 63.732178 57.916148 59 69 59 z M 66.5 66 C 70.944444 66 74.162675 66.740517 76.261719 67.472656 C 77.244921 67.815594 77.726529 68.050911 78.068359 68.246094 C 74.907453 70.25984 72.142302 72.635751 69.554688 74.955078 C 62.175338 74.833916 56.870672 71.927807 51.994141 68.433594 C 53.616054 67.750431 58.382828 66 66.5 66 z M 87 66.410156 L 87 75.058594 C 84.366945 75.376407 82.200684 76.109342 80.28125 77.044922 A 0.50052682 0.50052682 0 0 0 80.71875 77.945312 C 82.527661 77.063606 84.545334 76.389413 87 76.078125 L 87 80 C 87 82.773666 84.773666 85 82 85 L 59.556641 85 C 63.076103 83.24444 66.250134 80.59483 69.439453 77.724609 C 74.436996 73.22708 79.728172 68.5341 87 66.410156 z M 78.515625 78.076172 A 0.50005 0.50005 0 0 0 78.244141 78.150391 C 77.203088 78.769148 76.207903 79.424462 75.220703 80.085938 A 0.50026412 0.50026412 0 1 0 75.779297 80.916016 C 76.762097 80.25749 77.740912 79.613008 78.755859 79.009766 A 0.50005 0.50005 0 0 0 78.515625 78.076172 z M 50.470703 78.173828 A 0.50005 0.50005 0 0 0 50.380859 79.160156 C 51.651876 79.47153 53.010493 79.695852 54.451172 79.837891 A 0.50005 0.50005 0 1 0 54.548828 78.84375 C 53.149507 78.705789 51.838124 78.48808 50.619141 78.189453 A 0.50005 0.50005 0 0 0 50.470703 78.173828 z M 56.466797 78.960938 A 0.50005 0.50005 0 0 0 56.484375 79.958984 C 56.801928 79.969377 57.125142 80 57.5 80 A 0.50005 0.50005 0 1 0 57.5 79 C 57.180858 79 56.87007 78.972538 56.515625 78.960938 A 0.50005 0.50005 0 0 0 56.466797 78.960938 z M 73.498047 81.314453 A 0.50005 0.50005 0 0 0 73.230469 81.398438 C 72.873998 81.626817 72.513889 81.852601 72.148438 82.072266 A 0.50005 0.50005 0 1 0 72.664062 82.927734 C 73.040611 82.701399 73.408002 82.471855 73.769531 82.240234 A 0.50005 0.50005 0 0 0 73.498047 81.314453 z"/></svg>