<svg xmlns="http://www.w3.org/2000/svg" viewBox="0 0 80 80"><path d="M 40 19.300781 C 38.452458 19.300781 37.05704 20.086195 35.890625 21.238281 C 34.72421 22.390368 33.735553 23.933476 32.908203 25.683594 C 32.331072 26.904417 31.839295 28.229112 31.435547 29.591797 C 29.892217 29.422647 28.282566 29.37247 26.6875 29.457031 C 24.82522 29.555761 22.988536 29.828404 21.316406 30.275391 C 19.644276 30.722377 18.13334 31.34164 16.923828 32.189453 C 15.714316 33.037266 14.782584 34.14989 14.466797 35.529297 C 14.159127 36.874211 14.474959 38.211635 15.164062 39.486328 C 12.266575 38.485069 9.9262003 37.315131 8.3691406 36.087891 C 6.7371474 34.801589 6 33.537745 6 32.332031 A 1.0001 1.0001 0 0 0 4.984375 31.318359 A 1.0001 1.0001 0 0 0 4 32.332031 C 4 34.348318 5.2206651 36.15263 7.1308594 37.658203 C 9.0410537 39.163777 11.696284 40.451368 14.935547 41.53125 C 21.414072 43.691014 30.244916 45 40 45 C 49.755084 45 58.585928 43.691014 65.064453 41.53125 C 68.303716 40.451368 70.958946 39.163777 72.869141 37.658203 C 74.402143 36.449925 75.477396 35.046294 75.847656 33.498047 C 75.935781 33.349095 76 33.185493 76 33 L 75.998047 32.871094 C 75.99672 32.825231 75.975876 32.786381 75.96875 32.742188 C 75.980106 32.605661 76 32.470588 76 32.332031 A 1.0001 1.0001 0 1 0 74 32.332031 C 74 33.537745 73.262853 34.801589 71.630859 36.087891 C 70.345693 37.100831 68.523698 38.073812 66.302734 38.947266 C 65.506994 36.706752 63.529759 34.639886 61.115234 32.830078 C 58.295067 30.71622 54.826451 28.988952 51.609375 28.152344 C 50.86115 27.957783 50.108036 27.854495 49.365234 27.837891 C 48.90804 27.827673 48.456909 27.860721 48.009766 27.914062 C 47.730354 27.146437 47.427891 26.394545 47.091797 25.683594 C 46.264447 23.933476 45.27579 22.390368 44.109375 21.238281 C 42.94296 20.086195 41.547542 19.300781 40 19.300781 z M 31.359375 21.179688 L 30.558594 21.580078 L 30.400391 22.462891 L 31.011719 23.117188 L 31.359375 23.179688 L 32.160156 22.777344 L 32.318359 21.894531 L 31.707031 21.240234 L 31.359375 21.179688 z M 48.640625 21.179688 L 47.839844 21.580078 L 47.681641 22.462891 L 48.292969 23.117188 L 48.640625 23.179688 L 49.441406 22.777344 L 49.599609 21.894531 L 48.986328 21.240234 L 48.640625 21.179688 z M 40 21.300781 C 40.868458 21.300781 41.775915 21.74629 42.703125 22.662109 C 43.630335 23.577929 44.527053 24.939557 45.283203 26.539062 C 46.795504 29.738079 47.75 33.883117 47.75 37.253906 C 47.75 39.462394 46.825837 41.436957 45.349609 42.847656 C 43.601862 42.938464 41.824498 43 40 43 C 38.175502 43 36.398138 42.938464 34.650391 42.847656 C 33.175098 41.436531 32.25 39.461374 32.25 37.253906 C 32.25 36.075698 32.371601 34.801745 32.587891 33.507812 L 32.615234 33.357422 L 32.611328 33.353516 C 33.019646 30.994427 33.754223 28.575225 34.716797 26.539062 C 35.472947 24.939556 36.369665 23.577929 37.296875 22.662109 C 38.224085 21.74629 39.131542 21.300781 40 21.300781 z M 27.369141 21.445312 L 26.568359 21.847656 L 26.410156 22.728516 L 27.021484 23.382812 L 27.369141 23.445312 L 28.169922 23.044922 L 28.328125 22.162109 L 27.716797 21.507812 L 27.369141 21.445312 z M 52.630859 21.445312 L 51.830078 21.847656 L 51.671875 22.728516 L 52.283203 23.382812 L 52.630859 23.445312 L 53.431641 23.044922 L 53.589844 22.162109 L 52.978516 21.507812 L 52.630859 21.445312 z M 23.390625 21.857422 L 22.589844 22.259766 L 22.431641 23.142578 L 23.042969 23.796875 L 23.390625 23.857422 L 24.191406 23.457031 L 24.349609 22.574219 L 23.738281 21.919922 L 23.390625 21.857422 z M 56.609375 21.857422 L 55.808594 22.259766 L 55.650391 23.142578 L 56.261719 23.796875 L 56.609375 23.857422 L 57.410156 23.457031 L 57.568359 22.574219 L 56.957031 21.919922 L 56.609375 21.857422 z M 40 22.300781 L 39.199219 22.703125 L 39.041016 23.583984 L 39.652344 24.238281 L 40 24.300781 L 40.800781 23.900391 L 40.958984 23.017578 L 40.347656 22.363281 L 40 22.300781 z M 19.431641 22.421875 L 18.628906 22.822266 L 18.472656 23.705078 L 19.083984 24.359375 L 19.431641 24.421875 L 20.232422 24.019531 L 20.390625 23.138672 L 19.777344 22.484375 L 19.431641 22.421875 z M 60.568359 22.421875 L 59.767578 22.822266 L 59.609375 23.705078 L 60.222656 24.359375 L 60.568359 24.421875 L 61.371094 24.019531 L 61.527344 23.138672 L 60.916016 22.484375 L 60.568359 22.421875 z M 15.498047 23.150391 L 14.697266 23.552734 L 14.539062 24.433594 L 15.152344 25.087891 L 15.498047 25.150391 L 16.298828 24.75 L 16.457031 23.867188 L 15.845703 23.212891 L 15.498047 23.150391 z M 64.501953 23.150391 L 63.701172 23.552734 L 63.542969 24.433594 L 64.154297 25.087891 L 64.501953 25.150391 L 65.302734 24.75 L 65.460938 23.867188 L 64.847656 23.212891 L 64.501953 23.150391 z M 11.615234 24.107422 L 10.814453 24.507812 L 10.65625 25.390625 L 11.269531 26.044922 L 11.615234 26.107422 L 12.416016 25.705078 L 12.574219 24.824219 L 11.962891 24.169922 L 11.615234 24.107422 z M 68.384766 24.107422 L 67.583984 24.507812 L 67.425781 25.390625 L 68.037109 26.044922 L 68.384766 26.107422 L 69.185547 25.705078 L 69.34375 24.824219 L 68.730469 24.169922 L 68.384766 24.107422 z M 37.242188 25.027344 L 36.441406 25.427734 L 36.283203 26.310547 L 36.896484 26.964844 L 37.242188 27.027344 L 38.042969 26.625 L 38.201172 25.744141 L 37.589844 25.089844 L 37.242188 25.027344 z M 7.8515625 25.447266 L 7.0507812 25.849609 L 6.8925781 26.730469 L 7.5039062 27.384766 L 7.8515625 27.447266 L 8.6523438 27.044922 L 8.8105469 26.164062 L 8.1972656 25.509766 L 7.8515625 25.447266 z M 72.148438 25.447266 L 71.347656 25.849609 L 71.189453 26.730469 L 71.802734 27.384766 L 72.148438 27.447266 L 72.949219 27.046875 L 73.107422 26.164062 L 72.496094 25.509766 L 72.148438 25.447266 z M 5 28 L 4.1992188 28.402344 L 4.0410156 29.283203 L 4.6523438 29.9375 L 5 30 L 5.8007812 29.597656 L 5.9589844 28.716797 L 5.3476562 28.0625 L 5 28 z M 75 28 L 74.199219 28.402344 L 74.041016 29.283203 L 74.652344 29.9375 L 75 30 L 75.800781 29.597656 L 75.958984 28.716797 L 75.347656 28.0625 L 75 28 z M 35.607422 28.671875 L 34.806641 29.072266 L 34.648438 29.955078 L 35.261719 30.609375 L 35.607422 30.671875 L 36.408203 30.269531 L 36.566406 29.386719 L 35.955078 28.732422 L 35.607422 28.671875 z M 48.648438 29.861328 C 49.453006 29.808205 50.278707 29.872911 51.105469 30.087891 C 54.006393 30.842283 57.311933 32.477795 59.916016 34.429688 C 62.149372 36.103701 63.811256 38.034897 64.417969 39.638672 C 60.036149 41.09788 54.399929 42.16305 48.09375 42.667969 C 49.133027 41.116137 49.75 39.256001 49.75 37.253906 C 49.75 34.906154 49.352798 32.324323 48.648438 29.861328 z M 28.611328 31.425781 C 29.392965 31.434293 30.168847 31.474045 30.923828 31.546875 C 30.490337 33.480213 30.25 35.437387 30.25 37.253906 C 30.25 39.256817 30.868471 41.116238 31.908203 42.667969 C 26.850355 42.263104 22.228879 41.498213 18.337891 40.455078 C 16.815961 38.80227 16.134323 37.207921 16.416016 35.976562 C 16.593229 35.202469 17.134528 34.485437 18.072266 33.828125 C 19.010004 33.170813 20.320661 32.611044 21.832031 32.207031 C 23.869905 31.662275 26.266419 31.400247 28.611328 31.425781 z M 27.666016 32.427734 L 26.865234 32.830078 L 26.707031 33.710938 L 27.318359 34.365234 L 27.666016 34.427734 L 28.466797 34.027344 L 28.625 33.144531 L 28.013672 32.490234 L 27.666016 32.427734 z M 34.595703 32.537109 L 33.792969 32.9375 L 33.636719 33.820312 L 34.248047 34.474609 L 34.595703 34.537109 L 35.396484 34.134766 L 35.554688 33.251953 L 34.941406 32.597656 L 34.595703 32.537109 z M 23.697266 32.865234 L 22.894531 33.267578 L 22.738281 34.150391 L 23.349609 34.804688 L 23.697266 34.865234 L 24.498047 34.464844 L 24.65625 33.582031 L 24.042969 32.927734 L 23.697266 32.865234 z M 19.888672 34.046875 L 19.087891 34.449219 L 18.929688 35.330078 L 19.542969 35.984375 L 19.888672 36.046875 L 20.691406 35.646484 L 20.847656 34.763672 L 20.236328 34.109375 L 19.888672 34.046875 z M 34.25 36.515625 L 33.449219 36.917969 L 33.291016 37.798828 L 33.902344 38.453125 L 34.25 38.515625 L 35.050781 38.115234 L 35.208984 37.232422 L 34.597656 36.578125 L 34.25 36.515625 z M 8.9335938 40.990234 A 1.0001 1.0001 0 0 0 8.1992188 42.599609 C 11.423219 46.898276 20.369048 54 33 54 A 1.0001 1.0001 0 1 0 33 52 C 21.130952 52 12.576781 45.101724 9.8007812 41.400391 A 1.0001 1.0001 0 0 0 8.9335938 40.990234 z M 53 47 A 1 1 0 0 0 52 48 A 1 1 0 0 0 53 49 A 1 1 0 0 0 54 48 A 1 1 0 0 0 53 47 z M 70.078125 47.052734 C 69.815125 47.025234 69.539812 47.094719 69.320312 47.261719 C 68.878312 47.592719 68.787141 48.218156 69.119141 48.660156 C 69.316141 48.922156 69.617875 49.060547 69.921875 49.060547 C 70.129875 49.060547 70.339531 48.995375 70.519531 48.859375 L 70.605469 48.796875 C 71.045469 48.462875 71.093766 47.863828 70.759766 47.423828 C 70.592266 47.203828 70.341125 47.080234 70.078125 47.052734 z M 49.320312 49.544922 C 49.191297 49.531828 49.056781 49.543234 48.925781 49.583984 C 48.920781 49.584984 48.820406 49.616188 48.816406 49.617188 C 48.293406 49.786188 48.05375 50.331469 48.21875 50.855469 C 48.35275 51.279469 48.771078 51.541016 49.205078 51.541016 C 49.308078 51.541016 49.412672 51.526094 49.513672 51.496094 C 50.041672 51.333094 50.338781 50.774094 50.175781 50.246094 C 50.053531 49.849344 49.707359 49.584203 49.320312 49.544922 z M 66.900391 49.646484 C 66.637641 49.620109 66.361578 49.690922 66.142578 49.857422 C 65.702578 50.191422 65.615219 50.818812 65.949219 51.257812 C 66.145219 51.517812 66.444094 51.654297 66.746094 51.654297 C 66.956094 51.654297 67.169562 51.587219 67.351562 51.449219 C 67.354563 51.446219 67.436453 51.384813 67.439453 51.382812 C 67.873453 51.044813 67.913125 50.449672 67.578125 50.013672 C 67.411125 49.795672 67.163141 49.672859 66.900391 49.646484 z M 45.427734 50.667969 C 45.299109 50.648312 45.164047 50.65375 45.029297 50.6875 L 44.941406 50.707031 C 44.404406 50.837031 44.075078 51.379016 44.205078 51.916016 C 44.316078 52.373016 44.726734 52.679688 45.177734 52.679688 C 45.255734 52.679688 45.334062 52.670391 45.414062 52.650391 L 45.521484 52.625 C 46.056484 52.49 46.380141 51.946156 46.244141 51.410156 C 46.142891 51.008906 45.813609 50.726938 45.427734 50.667969 z M 41.089844 51.505859 L 41.001953 51.519531 C 40.456953 51.608531 40.088734 52.124922 40.177734 52.669922 C 40.258734 53.159922 40.681109 53.507812 41.162109 53.507812 C 41.216109 53.507813 41.270172 53.503141 41.326172 53.494141 L 41.4375 53.474609 C 41.9815 53.378609 42.344047 52.860406 42.248047 52.316406 C 42.151047 51.773406 41.632844 51.409859 41.089844 51.505859 z M 14.902344 51.541016 C 14.772625 51.5485 14.641578 51.581328 14.517578 51.642578 C 14.021578 51.886578 13.8185 52.486422 14.0625 52.982422 L 14.113281 53.082031 C 14.284281 53.419031 14.610031 53.599609 14.957031 53.599609 C 15.117031 53.599609 15.2815 53.562422 15.4375 53.482422 C 15.9295 53.232422 16.107422 52.592609 15.857422 52.099609 C 15.674422 51.727609 15.2915 51.518563 14.902344 51.541016 z M 63.242188 51.933594 C 63.109734 51.949594 62.979375 51.990391 62.859375 52.056641 C 62.375375 52.322641 62.199797 52.930062 62.466797 53.414062 C 62.648797 53.745062 62.99075 53.931641 63.34375 53.931641 C 63.50675 53.931641 63.671219 53.892594 63.824219 53.808594 C 63.829219 53.805594 63.921734 53.751047 63.927734 53.748047 C 64.402734 53.475047 64.526813 52.895969 64.257812 52.417969 C 64.056062 52.058719 63.639547 51.885594 63.242188 51.933594 z M 37 52 A 1 1 0 0 0 36 53 A 1 1 0 0 0 37 54 A 1 1 0 0 0 38 53 A 1 1 0 0 0 37 52 z M 60 53.994141 A 1.0001 1.0001 0 0 0 59.638672 54.066406 C 54.1342 56.193129 42.024491 60.9418 26.351562 55.064453 A 1.0001 1.0001 0 1 0 25.648438 56.935547 C 41.97551 63.0582 54.8658 58.056866 60.361328 55.933594 A 1.0001 1.0001 0 0 0 60 53.994141 z M 17 55 A 1 1 0 0 0 16 56 A 1 1 0 0 0 17 57 A 1 1 0 0 0 18 56 A 1 1 0 0 0 17 55 z M 19.679688 58.240234 C 19.428437 58.239234 19.175562 58.335391 18.976562 58.525391 C 18.577562 58.906391 18.578031 59.555078 18.957031 59.955078 C 18.958031 59.956078 18.995094 59.993141 18.996094 59.994141 C 19.183094 60.190141 19.422062 60.285156 19.664062 60.285156 C 19.916063 60.285156 20.172953 60.184281 20.376953 59.988281 C 20.774953 59.606281 20.753094 58.936109 20.371094 58.537109 C 20.180094 58.338109 19.930938 58.241234 19.679688 58.240234 z M 59.982422 58.990234 A 1.0001 1.0001 0 0 0 59.294922 59.291016 C 54.430417 64.131501 47.450783 67 40 67 C 33.726185 67 28.219335 64.817939 23.617188 61.212891 A 1.0002308 1.0002308 0 1 0 22.382812 62.787109 C 27.288666 66.630061 33.259815 69 40 69 C 47.963217 69 55.443583 65.944499 60.705078 60.708984 A 1.0001 1.0001 0 0 0 59.982422 58.990234 z"/></svg>