<svg xmlns="http://www.w3.org/2000/svg" viewBox="0 0 24 24"><path d="M 12 0 C 5.3644809 0 0 5.3644809 0 12 C 0 18.635519 5.3644809 24 12 24 C 18.635519 24 24 18.635519 24 12 C 24 5.3644809 18.635519 0 12 0 z M 12 2 C 17.564481 2 22 6.4355191 22 12 C 22 17.564481 17.564481 22 12 22 C 6.4355191 22 2 17.564481 2 12 C 2 6.4355191 6.4355191 2 12 2 z M 8 8 C 6.895 8 6 8.895 6 10 C 6 11.105 6.895 12 8 12 C 9.105 12 10 11.105 10 10 C 10 8.895 9.105 8 8 8 z M 16 8 C 14.895 8 14 8.895 14 10 C 14 11.105 14.895 12 16 12 C 17.105 12 18 11.105 18 10 C 18 8.895 17.105 8 16 8 z M 8 15 L 8 17 L 16 17 L 16 15 L 8 15 z"/></svg>