<svg xmlns="http://www.w3.org/2000/svg" viewBox="0 0 64 64"><path d="M 29.787109 2 C 26.049083 2 23.020569 4.8431304 22.732422 8.4335938 C 20.505661 9.9359943 19 12.408503 19 15.25 C 19 19.868744 22.885444 23.599609 27.611328 23.599609 C 29.027793 23.599609 30.333423 23.204989 31.511719 22.615234 C 32.945618 24.027028 34.844877 25 37.037109 25 C 40.144684 25 42.795436 23.214147 44.078125 20.648438 C 47.380813 20.217269 50 17.549509 50 14.199219 C 50 11.592914 48.402451 9.3920651 46.154297 8.3222656 C 45.498832 5.1219424 42.663713 2.6992186 39.212891 2.6992188 C 37.548748 2.6992188 36.083174 3.3477391 34.863281 4.2792969 C 33.555939 2.9438444 31.820486 2 29.787109 2 z M 29.787109 4 C 31.537759 4 33.065043 4.8334556 33.996094 6.09375 A 1.0001 1.0001 0 0 0 35.505859 6.2109375 C 36.442111 5.2830531 37.748018 4.6992186 39.212891 4.6992188 C 41.901171 4.6992188 44.06316 6.6462932 44.341797 9.109375 A 1.0001 1.0001 0 0 0 44.978516 9.9316406 C 46.760406 10.614491 48 12.263589 48 14.199219 C 48 16.667101 45.985543 18.687072 43.402344 18.789062 A 1.0001 1.0001 0 0 0 42.515625 19.410156 C 41.662734 21.495846 39.549155 23 37.037109 23 C 35.150145 23 33.490781 22.150398 32.414062 20.841797 A 1.0001 1.0001 0 0 0 31.125 20.621094 C 30.105352 21.237767 28.906194 21.599609 27.611328 21.599609 C 23.929212 21.599609 21 18.749256 21 15.25 C 21 12.969201 22.247279 10.981774 24.138672 9.8554688 A 1.0001 1.0001 0 0 0 24.626953 8.9960938 C 24.626953 8.8922049 24.625 8.8753298 24.625 8.9492188 C 24.625047 6.22317 26.906002 4 29.787109 4 z M 28.029297 7.1503906 C 27.853844 7.1213281 27.670641 7.1850312 27.556641 7.3320312 C 27.268641 7.7060312 27 8.1566094 27 8.5996094 C 27 9.9256094 28.119 11 29.5 11 C 30.303 11 31.1695 10.496 31.6875 9.875 C 31.8815 9.642 31.800109 9.2857656 31.537109 9.1347656 L 28.199219 7.2109375 C 28.145469 7.1799375 28.087781 7.1600781 28.029297 7.1503906 z M 39.96875 7.1503906 C 39.910266 7.1602031 39.852578 7.1816406 39.798828 7.2128906 L 36.462891 9.1347656 C 36.199891 9.2867656 36.1185 9.642 36.3125 9.875 C 36.8305 10.496 37.697 11 38.5 11 C 39.881 11 41 9.9256094 41 8.5996094 C 41 8.1566094 40.730406 7.7069844 40.441406 7.3339844 C 40.327406 7.1862344 40.144203 7.1209531 39.96875 7.1503906 z M 27.210938 13 C 27.096937 13 26.998906 13.097891 27.003906 13.212891 C 27.128906 16.428891 30.085 19 34 19 C 37.915 19 40.871094 16.428891 40.996094 13.212891 C 41.000094 13.097891 40.903062 13 40.789062 13 L 39.123047 13 C 39.047047 13 38.979312 13.043328 38.945312 13.111328 L 37.679688 15.642578 C 37.605688 15.789578 37.394312 15.789578 37.320312 15.642578 L 36.054688 13.111328 C 36.020687 13.043328 35.952953 13 35.876953 13 L 32.123047 13 C 32.047047 13 31.977359 13.043328 31.943359 13.111328 L 30.677734 15.642578 C 30.603734 15.789578 30.394312 15.789578 30.320312 15.642578 L 29.054688 13.111328 C 29.021688 13.043328 28.952953 13 28.876953 13 L 27.210938 13 z M 3 18 C 1.35 18 0 19.35 0 21 L 0 59 C 0 60.65 1.35 62 3 62 L 5 62 C 6.65 62 8 60.65 8 59 L 8 55 C 8 54.45 8.45 54 9 54 L 55 54 C 55.55 54 56 54.45 56 55 L 56 59 C 56 60.65 57.35 62 59 62 L 61 62 C 62.65 62 64 60.65 64 59 L 64 33 C 64 31.35 62.65 30 61 30 L 59 30 C 57.35 30 56 31.35 56 33 L 56 33.359375 C 54.35 31.309375 51.83 30 49 30 L 23 30 L 22 30 C 20.895 30 20 30.895 20 32 L 20 34 L 17.976562 34 C 18.6102 33.162105 19 32.130708 19 31 C 19 28.24 16.76 26 14 26 C 11.24 26 9 28.24 9 31 C 9 32.130708 9.3898005 33.162105 10.023438 34 L 8 34 L 8 33.304688 L 8 24.330078 L 8 23.330078 L 8 21 C 8 19.35 6.65 18 5 18 L 3 18 z M 3 20 L 5 20 C 5.55 20 6 20.45 6 21 L 6 24 L 6 27 L 6 40 C 6 41.1 6.9 42 8 42 L 20 42 L 56 42 L 58 42 L 58 40 L 58 39 L 58 33 C 58 32.45 58.45 32 59 32 L 61 32 C 61.55 32 62 32.45 62 33 L 62 44 C 61.448 44 61 44.448 61 45 L 61 47 C 61 47.552 61.448 48 62 48 L 62 59 C 62 59.55 61.55 60 61 60 L 59 60 C 58.45 60 58 59.55 58 59 L 58 55 C 58 53.35 56.65 52 55 52 L 9 52 C 7.35 52 6 53.35 6 55 L 6 59 C 6 59.55 5.55 60 5 60 L 3 60 C 2.45 60 2 59.55 2 59 L 2 48 C 2.552 48 3 47.552 3 47 L 3 45 C 3 44.448 2.552 44 2 44 L 2 21 C 2 20.45 2.45 20 3 20 z M 14 28 C 15.66 28 17 29.34 17 31 C 17 32.66 15.66 34 14 34 C 12.34 34 11 32.66 11 31 C 11 29.34 12.34 28 14 28 z M 23 32 L 49 32 C 50.902 32 52.627625 32.765 53.890625 34 L 33 34 C 32.448 34 32 34.448 32 35 C 32 35.552 32.448 36 33 36 L 55 36 C 55.102 36 55.194109 35.969406 55.287109 35.941406 C 55.739109 36.866406 56 37.903 56 39 L 56 40 L 22 40 L 22 38 L 22 35 L 22 33 C 22 32.45 22.45 32 23 32 z M 25 34 C 24.448 34 24 34.448 24 35 C 24 35.552 24.448 36 25 36 L 29 36 C 29.552 36 30 35.552 30 35 C 30 34.448 29.552 34 29 34 L 25 34 z M 8 36 L 20 36 L 20 40 L 8 40 L 8 36 z M 7 44 C 6.448 44 6 44.448 6 45 L 6 47 C 6 47.552 6.448 48 7 48 C 7.552 48 8 47.552 8 47 L 8 45 C 8 44.448 7.552 44 7 44 z M 12 44 C 11.448 44 11 44.448 11 45 L 11 47 C 11 47.552 11.448 48 12 48 C 12.552 48 13 47.552 13 47 L 13 45 C 13 44.448 12.552 44 12 44 z M 17 44 C 16.448 44 16 44.448 16 45 L 16 47 C 16 47.552 16.448 48 17 48 C 17.552 48 18 47.552 18 47 L 18 45 C 18 44.448 17.552 44 17 44 z M 22 44 C 21.448 44 21 44.448 21 45 L 21 47 C 21 47.552 21.448 48 22 48 C 22.552 48 23 47.552 23 47 L 23 45 C 23 44.448 22.552 44 22 44 z M 27 44 C 26.448 44 26 44.448 26 45 L 26 47 C 26 47.552 26.448 48 27 48 C 27.552 48 28 47.552 28 47 L 28 45 C 28 44.448 27.552 44 27 44 z M 32 44 C 31.448 44 31 44.448 31 45 L 31 47 C 31 47.552 31.448 48 32 48 C 32.552 48 33 47.552 33 47 L 33 45 C 33 44.448 32.552 44 32 44 z M 37 44 C 36.448 44 36 44.448 36 45 L 36 47 C 36 47.552 36.448 48 37 48 C 37.552 48 38 47.552 38 47 L 38 45 C 38 44.448 37.552 44 37 44 z M 42 44 C 41.448 44 41 44.448 41 45 L 41 47 C 41 47.552 41.448 48 42 48 C 42.552 48 43 47.552 43 47 L 43 45 C 43 44.448 42.552 44 42 44 z M 47 44 C 46.448 44 46 44.448 46 45 L 46 47 C 46 47.552 46.448 48 47 48 C 47.552 48 48 47.552 48 47 L 48 45 C 48 44.448 47.552 44 47 44 z M 52 44 C 51.448 44 51 44.448 51 45 L 51 47 C 51 47.552 51.448 48 52 48 C 52.552 48 53 47.552 53 47 L 53 45 C 53 44.448 52.552 44 52 44 z M 57 44 C 56.448 44 56 44.448 56 45 L 56 47 C 56 47.552 56.448 48 57 48 C 57.552 48 58 47.552 58 47 L 58 45 C 58 44.448 57.552 44 57 44 z"/></svg>