<svg xmlns="http://www.w3.org/2000/svg" viewBox="0 0 64 64"><radialGradient id="zhctJpvXJwoJnQ20B78PMa" cx="32" cy="789.5" r="31.259" gradientTransform="matrix(1 0 0 -1 0 821)" gradientUnits="userSpaceOnUse"><stop offset="0" stop-color="#eed7a2"/><stop offset=".106" stop-color="#f1dcab"/><stop offset=".437" stop-color="#f8e8c3"/><stop offset=".744" stop-color="#fcefd2"/><stop offset="1" stop-color="#fef2d7"/></radialGradient><path fill="url(#zhctJpvXJwoJnQ20B78PMa)" d="M58,54c-1.105,0-2-0.895-2-2s0.895-2,2-2h2.5c1.925,0,3.5-1.575,3.5-3.5S62.425,43,60.5,43H50	c-1.381,0-2.5-1.119-2.5-2.5S48.619,38,50,38h8c1.65,0,3-1.35,3-3s-1.35-3-3-3H42v-6h18c2.335,0,4.22-2.028,3.979-4.41	C63.77,19.514,61.897,18,59.811,18H58c-1.105,0-2-0.895-2-2s0.895-2,2-2h0.357c1.308,0,2.499-0.941,2.63-2.242	C61.137,10.261,59.966,9,58.5,9h-14C43.672,9,43,8.328,43,7.5S43.672,6,44.5,6h3.857c1.308,0,2.499-0.941,2.63-2.242	C51.137,2.261,49.966,1,48.5,1H15.643c-1.308,0-2.499,0.941-2.63,2.242C12.863,4.739,14.034,6,15.5,6H19c1.105,0,2,0.895,2,2	s-0.895,2-2,2H6.189c-2.086,0-3.958,1.514-4.168,3.59C1.78,15.972,3.665,18,6,18h2.5c1.933,0,3.5,1.567,3.5,3.5S10.433,25,8.5,25	H5.189c-2.086,0-3.958,1.514-4.168,3.59C0.78,30.972,2.665,33,5,33h17v11H6c-1.65,0-3,1.35-3,3s1.35,3,3,3l0,0c1.105,0,2,0.895,2,2	s-0.895,2-2,2H4.189c-2.086,0-3.958,1.514-4.168,3.59C-0.22,59.972,1.665,62,4,62h53.811c2.086,0,3.958-1.514,4.168-3.59	C62.22,56.028,60.335,54,58,54z"/><linearGradient id="zhctJpvXJwoJnQ20B78PMb" x1="32" x2="32" y1="759.479" y2="803.479" gradientTransform="matrix(1 0 0 -1 0 821)" gradientUnits="userSpaceOnUse"><stop offset="0" stop-color="#50bdec"/><stop offset="1" stop-color="#8ae1fb"/></linearGradient><path fill="url(#zhctJpvXJwoJnQ20B78PMb)" d="M50,12H14c-2.209,0-4,1.791-4,4v36c0,2.209,1.791,4,4,4h36c2.209,0,4-1.791,4-4V16	C54,13.791,52.209,12,50,12z"/><linearGradient id="zhctJpvXJwoJnQ20B78PMc" x1="23.651" x2="23.523" y1="43.683" y2="26.449" gradientUnits="userSpaceOnUse"><stop offset="0" stop-color="#0d47a1"/><stop offset=".365" stop-color="#135fba"/><stop offset=".734" stop-color="#1770cc"/><stop offset="1" stop-color="#1976d2"/></linearGradient><path fill="url(#zhctJpvXJwoJnQ20B78PMc)" d="M23.397,24.567c4.464,0,7.369,2.976,7.369,8.712c0,7.057-3.216,10.153-7.825,10.153 c-2.452,0-5.688-0.842-5.688-3.264c0-1.08,0.864-1.968,1.968-1.968c1.563,0,2.072,1.872,3.648,1.872 c1.848,0,3.192-1.152,3.264-5.064h-0.072c-0.816,0.888-1.8,1.608-3.792,1.608c-3.336,0-5.905-2.136-5.905-5.785 C16.364,27.375,18.837,24.567,23.397,24.567z M23.397,33.52c1.632,0,2.665-1.152,2.665-2.784c0-1.632-0.96-2.784-2.665-2.784 c-1.632,0-2.664,1.152-2.664,2.784C20.733,32.368,21.765,33.52,23.397,33.52z"/><linearGradient id="zhctJpvXJwoJnQ20B78PMd" x1="40.565" x2="40.437" y1="43.558" y2="26.324" gradientUnits="userSpaceOnUse"><stop offset="0" stop-color="#0d47a1"/><stop offset=".365" stop-color="#135fba"/><stop offset=".734" stop-color="#1770cc"/><stop offset="1" stop-color="#1976d2"/></linearGradient><path fill="url(#zhctJpvXJwoJnQ20B78PMd)" d="M41.133,24.615c2.537,0,5.473,1.086,5.473,3.384c0,1.08-0.888,1.944-1.968,1.944 c-1.669,0-1.956-2.017-3.672-2.017c-1.704,0-3.264,1.824-3.264,5.041h0.048c0.936-1.056,2.064-1.68,4.152-1.68 c3.096,0,5.809,1.752,5.809,5.785c0,3.48-2.64,6.36-7.009,6.36c-4.464,0-7.393-2.64-7.393-8.473 C33.308,27.808,36.716,24.615,41.133,24.615z M40.725,40.072c1.632,0,2.688-1.128,2.688-2.76c0-1.632-1.056-2.785-2.688-2.785 c-1.632,0-2.688,1.152-2.688,2.785C38.037,38.944,39.021,40.072,40.725,40.072z"/></svg>