<svg xmlns="http://www.w3.org/2000/svg" viewBox="0 0 26 26"><path d="M 0.90625 -0.03125 C 0.863281 -0.0234375 0.820313 -0.0117188 0.78125 0 C 0.40625 0.0664063 0.105469 0.339844 0 0.703125 C -0.105469 1.070313 0.00390625 1.460938 0.28125 1.71875 L 24.28125 25.71875 C 24.679688 26.117188 25.320313 26.117188 25.71875 25.71875 C 26.117188 25.320313 26.117188 24.679688 25.71875 24.28125 L 19.84375 18.40625 C 22.085938 17.25 24 16.101563 24 13.3125 C 24 10.414063 20.894531 8 17.09375 8 C 15.753906 8 14.5625 8.277344 13.5625 8.78125 C 13.808594 8 14.039063 7.257813 14.1875 6.8125 C 14.386719 6.011719 14.699219 5.101563 15.5 5 C 15.699219 5 16.011719 5.011719 16.3125 4.8125 C 16.3125 4.710938 16 4.195313 16 4.09375 C 16.300781 4.09375 16.507813 4.585938 16.90625 4.6875 C 17.304688 4.789063 17.40625 4.492188 17.40625 4.09375 C 17.507813 4.394531 17.886719 4.585938 18.1875 4.6875 C 18.488281 4.789063 18.792969 4.488281 18.59375 4.1875 C 18.894531 4.386719 20.09375 4.988281 20.09375 4.1875 C 20.09375 3.6875 19.6875 3.011719 19.1875 2.8125 C 19.488281 2.8125 20.007813 3 20.40625 3 C 20.707031 3 20.992188 2.804688 21.09375 2.40625 C 21.195313 1.90625 20.894531 1.613281 20.59375 1.3125 C 20.394531 1.113281 20.585938 1.199219 20.6875 1 C 20.789063 0.800781 20.292969 0.6875 20.09375 0.6875 C 19.394531 0.585938 20.101563 0.511719 20 0.3125 C 20 0.0117188 19.292969 0.09375 19.09375 0.09375 C 18.792969 0.09375 18.394531 0.207031 18.09375 0.40625 C 18.195313 0.304688 18.414063 0.101563 18.3125 0 C 18.210938 -0.101563 17.695313 -0.0078125 17.59375 0.09375 L 16.6875 0.40625 C 16.488281 0.507813 16.292969 0.707031 16.09375 0.90625 C 16.09375 0.804688 16.1875 0.695313 16.1875 0.59375 C 15.6875 0.492188 15 1.601563 15 2 C 15 1.800781 15.011719 1.394531 14.8125 1.59375 C 14.613281 1.792969 13 3.5 13 7 C 13 7.421875 12.800781 8.148438 12.59375 8.90625 C 11.644531 8.421875 10.59375 8.109375 9.46875 8.03125 L 1.71875 0.28125 C 1.511719 0.0585938 1.210938 -0.0546875 0.90625 -0.03125 Z M 7.78125 -0.03125 C 7.714844 -0.0351563 7.644531 -0.0234375 7.59375 0 C 7.492188 0.199219 7.710938 0.40625 7.8125 0.40625 C 7.511719 0.207031 7.210938 0.09375 6.8125 0.09375 C 6.710938 0.09375 6 0.0117188 6 0.3125 C 6 0.511719 6.601563 0.6875 6 0.6875 L 5.90625 0.6875 C 5.707031 0.6875 5.210938 0.800781 5.3125 1 C 5.414063 1.101563 5.605469 1.113281 5.40625 1.3125 C 5.105469 1.511719 4.707031 1.90625 4.90625 2.40625 C 5.007813 2.707031 5.199219 2.898438 5.5 3 C 5.898438 3 6.386719 2.8125 6.6875 2.8125 C 6.289063 3.011719 5.90625 3.59375 5.90625 4.09375 C 5.90625 4.992188 7.105469 4.292969 7.40625 4.09375 C 7.207031 4.492188 7.511719 4.6875 7.8125 4.6875 C 8.113281 4.585938 8.492188 4.394531 8.59375 4.09375 C 8.59375 4.394531 8.695313 4.6875 9.09375 4.6875 C 9.492188 4.585938 9.699219 4.195313 10 4.09375 C 10 4.195313 9.6875 4.710938 9.6875 4.8125 C 9.886719 5.011719 10.199219 4.898438 10.5 5 C 11.300781 5.101563 11.613281 6.011719 11.8125 6.8125 C 11.914063 7.011719 11.992188 7.289063 12.09375 7.6875 C 12.195313 7.386719 12.1875 7.199219 12.1875 7 C 12.1875 5.898438 12.394531 4.886719 12.59375 4.1875 C 12.09375 2.585938 11.414063 1.789063 11.3125 1.6875 C 11.011719 1.386719 11 1.800781 11 2 C 11 1.601563 10.1875 0.492188 9.6875 0.59375 C 9.6875 0.695313 9.710938 0.804688 9.8125 0.90625 C 9.613281 0.804688 9.488281 0.601563 9.1875 0.5 C 8.886719 0.300781 8.613281 0.195313 8.3125 0.09375 C 8.238281 0.09375 7.984375 -0.015625 7.78125 -0.03125 Z M 4.90625 9 C 3.207031 9.898438 2 11.511719 2 13.3125 C 2 19.710938 11.898438 17.601563 13 26 C 13.398438 23.199219 14.707031 21.605469 16.40625 20.40625 Z"/></svg>