<svg xmlns="http://www.w3.org/2000/svg" viewBox="0 0 64 64"><path d="M 61 2 C 59.347656 2 58 3.347656 58 5 L 58 5.226563 L 16.421875 16.007813 L 4.707031 4.292969 C 4.316406 3.902344 3.683594 3.902344 3.292969 4.292969 C 2.902344 4.683594 2.902344 5.316406 3.292969 5.707031 L 14.175781 16.589844 L 5.972656 18.71875 C 5.824219 17.195313 4.558594 16 3 16 C 1.347656 16 0 17.347656 0 19 L 0 37 C 0 38.652344 1.347656 40 3 40 C 4.558594 40 5.824219 38.804688 5.96875 37.28125 L 12.945313 39.09375 L 11.757813 43.527344 C 11.410156 44.816406 11.589844 46.164063 12.257813 47.320313 C 12.925781 48.476563 14.003906 49.304688 15.292969 49.652344 L 24.40625 52.09375 C 24.839844 52.207031 25.277344 52.265625 25.710938 52.265625 C 26.578125 52.265625 27.429688 52.039063 28.203125 51.59375 C 29.359375 50.925781 30.183594 49.847656 30.53125 48.558594 L 31.761719 43.96875 L 44.984375 47.398438 L 57.296875 59.707031 C 57.488281 59.902344 57.742188 60 58 60 C 58.257813 60 58.511719 59.902344 58.707031 59.707031 C 59.097656 59.316406 59.097656 58.683594 58.707031 58.292969 L 48.800781 48.390625 L 58 50.773438 L 58 51 C 58 52.652344 59.347656 54 61 54 C 62.652344 54 64 52.652344 64 51 L 64 5 C 64 3.347656 62.652344 2 61 2 Z M 61 4 C 61.550781 4 62 4.449219 62 5 L 62 51 C 62 51.550781 61.550781 52 61 52 C 60.449219 52 60 51.550781 60 51 L 60 5 C 60 4.449219 60.449219 4 61 4 Z M 58 7.292969 L 58 48.707031 L 55.933594 48.171875 C 55.9375 48.128906 55.957031 48.089844 55.957031 48.042969 C 55.957031 47.488281 55.507813 47.042969 54.957031 47.042969 L 52.957031 47.042969 C 52.734375 47.042969 52.542969 47.128906 52.375 47.25 L 46.015625 45.601563 L 18.0625 17.644531 L 52.285156 8.773438 C 52.464844 8.9375 52.699219 9.042969 52.957031 9.042969 L 54.957031 9.042969 C 55.511719 9.042969 55.957031 8.597656 55.957031 8.042969 C 55.957031 7.96875 55.933594 7.902344 55.917969 7.832031 Z M 52.957031 12.042969 C 52.40625 12.042969 51.957031 12.488281 51.957031 13.042969 C 51.957031 13.597656 52.40625 14.042969 52.957031 14.042969 L 54.957031 14.042969 C 55.507813 14.042969 55.957031 13.597656 55.957031 13.042969 C 55.957031 12.488281 55.511719 12.042969 54.957031 12.042969 Z M 52.957031 17.042969 C 52.40625 17.042969 51.957031 17.488281 51.957031 18.042969 C 51.957031 18.597656 52.40625 19.042969 52.957031 19.042969 L 54.957031 19.042969 C 55.507813 19.042969 55.957031 18.597656 55.957031 18.042969 C 55.957031 17.488281 55.511719 17.042969 54.957031 17.042969 Z M 3 18 C 3.550781 18 4 18.449219 4 19 L 4 37 C 4 37.550781 3.550781 38 3 38 C 2.449219 38 2 37.550781 2 37 L 2 19 C 2 18.449219 2.449219 18 3 18 Z M 15.8125 18.230469 L 42.199219 44.609375 L 20 38.855469 L 20 35 C 20 34.445313 19.550781 34 19 34 C 18.449219 34 18 34.445313 18 35 L 18 38.339844 L 6 35.226563 L 6 20.773438 Z M 52.957031 22.042969 C 52.40625 22.042969 51.957031 22.488281 51.957031 23.042969 C 51.957031 23.597656 52.40625 24.042969 52.957031 24.042969 L 54.957031 24.042969 C 55.507813 24.042969 55.957031 23.597656 55.957031 23.042969 C 55.957031 22.488281 55.511719 22.042969 54.957031 22.042969 Z M 19 24 C 18.449219 24 18 24.445313 18 25 L 18 31 C 18 31.554688 18.449219 32 19 32 C 19.550781 32 20 31.554688 20 31 L 20 25 C 20 24.445313 19.550781 24 19 24 Z M 52.957031 27.042969 C 52.40625 27.042969 51.957031 27.488281 51.957031 28.042969 C 51.957031 28.597656 52.40625 29.042969 52.957031 29.042969 L 54.957031 29.042969 C 55.507813 29.042969 55.957031 28.597656 55.957031 28.042969 C 55.957031 27.488281 55.511719 27.042969 54.957031 27.042969 Z M 52.957031 32.042969 C 52.40625 32.042969 51.957031 32.488281 51.957031 33.042969 C 51.957031 33.597656 52.40625 34.042969 52.957031 34.042969 L 54.957031 34.042969 C 55.507813 34.042969 55.957031 33.597656 55.957031 33.042969 C 55.957031 32.488281 55.511719 32.042969 54.957031 32.042969 Z M 52.957031 37.042969 C 52.40625 37.042969 51.957031 37.488281 51.957031 38.042969 C 51.957031 38.597656 52.40625 39.042969 52.957031 39.042969 L 54.957031 39.042969 C 55.507813 39.042969 55.957031 38.597656 55.957031 38.042969 C 55.957031 37.488281 55.511719 37.042969 54.957031 37.042969 Z M 14.878906 39.59375 L 29.824219 43.46875 L 28.597656 48.039063 C 28.390625 48.8125 27.894531 49.460938 27.203125 49.859375 C 26.507813 50.261719 25.699219 50.367188 24.925781 50.160156 L 15.8125 47.71875 C 15.035156 47.511719 14.390625 47.015625 13.988281 46.324219 C 13.589844 45.628906 13.480469 44.820313 13.6875 44.046875 Z M 52.957031 42.042969 C 52.40625 42.042969 51.957031 42.488281 51.957031 43.042969 C 51.957031 43.597656 52.40625 44.042969 52.957031 44.042969 L 54.957031 44.042969 C 55.507813 44.042969 55.957031 43.597656 55.957031 43.042969 C 55.957031 42.488281 55.511719 42.042969 54.957031 42.042969 Z"/></svg>