<svg xmlns="http://www.w3.org/2000/svg" viewBox="0 0 40 40"><path fill="#fff" d="M2.652 29.738L13.748 2.477 28.353 0.525 37.427 12.08 26.289 39.341z"/><path fill="#4788c7" d="M28.136,1.059l8.719,11.102L26.014,38.69L3.303,29.463L14.102,2.934L28.136,1.059 M28.569-0.008 L13.395,2.019L2,30.013l24.563,9.979L38,12L28.569-0.008L28.569-0.008z"/><path fill="#b6dcfe" d="M25.929 6.46L11.358 8.397 13.749 2.477 28.353 0.525 37.427 12.08 34.998 18.002z"/><path fill="#4788c7" d="M28.136,1.059l8.718,11.101l-1.992,4.859L26.498,6.376l-0.353-0.449L25.58,6.003L12.143,7.789 l1.961-4.855L28.136,1.059 M28.569-0.008L13.395,2.019l-2.822,6.987l15.139-2.013l9.424,11.992L38,12L28.569-0.008L28.569-0.008z"/><g><path fill="#4788c7" d="M17.507 17.952l3.258 1.398-4.169.725-.732 1.708 6.036 2.589.706-1.646-3.293-1.412c-.026-.011-.051-.022-.076-.033l4.318-.765.694-1.622-6.036-2.589L17.507 17.952zM14.604 25.144l3.258 1.398-4.169.725-.732 1.708 6.036 2.589.706-1.645-3.293-1.412c-.026-.011-.051-.022-.077-.033l4.319-.765.694-1.622-6.036-2.588L14.604 25.144zM25.02 13.045L24.116 15.13 23.301 14.777 24.09 12.956 22.614 12.316 21.825 14.137 21.045 13.799 21.893 11.842 20.414 11.201 18.823 14.87 24.849 17.483 26.495 13.685z"/></g></svg>