<svg xmlns="http://www.w3.org/2000/svg" viewBox="0 0 100 100"><path fill="#fff" d="M20.2 55.9A.9.9 0 1 0 20.2 57.699999999999996.9.9 0 1 0 20.2 55.9zM79.3 31.3A.7.7 0 1 0 79.3 32.7.7.7 0 1 0 79.3 31.3z"/><path fill="#f1bc19" d="M76.7 12A.9.9 0 1 0 76.7 13.8.9.9 0 1 0 76.7 12zM20.7 63.6A.9.9 0 1 0 20.7 65.4.9.9 0 1 0 20.7 63.6z"/><path fill="#c0e5e4" d="M49.5 12.700000000000003A37.5 37.5 0 1 0 49.5 87.7A37.5 37.5 0 1 0 49.5 12.700000000000003Z"/><path fill="#f1bc19" d="M82.1 11.1A4 4 0 1 0 82.1 19.1A4 4 0 1 0 82.1 11.1Z"/><path fill="#ee3e54" d="M86.1 22.3A1.9 1.9 0 1 0 86.1 26.099999999999998A1.9 1.9 0 1 0 86.1 22.3Z"/><path fill="#fbcd59" d="M77.1 74.69999999999999A1.9 1.9 0 1 0 77.1 78.5 1.9 1.9 0 1 0 77.1 74.69999999999999zM14 59.6A4 4 0 1 0 14 67.6 4 4 0 1 0 14 59.6z"/><path fill="#ee3e54" d="M24.2 85.89999999999999A1.9 1.9 0 1 0 24.2 89.7A1.9 1.9 0 1 0 24.2 85.89999999999999Z"/><path fill="#fff" d="M75.8 28.7A1.8 1.8 0 1 0 75.8 32.3 1.8 1.8 0 1 0 75.8 28.7zM17.7 49A2.5 2.5 0 1 0 17.7 54 2.5 2.5 0 1 0 17.7 49z"/><path fill="#472b29" d="M50.3 51.300000000000004A10.5 6.9 0 1 0 50.3 65.10000000000001A10.5 6.9 0 1 0 50.3 51.300000000000004Z"/><path fill="#472b29" d="M50.4 39.8A13.9 9.2 0 1 0 50.4 58.2A13.9 9.2 0 1 0 50.4 39.8Z"/><path fill="#d8ad8f" d="M61.2,44.6c0.1-1.4,0.5-3.1,0.6-3.8l-1.1-3.1c-1.3-1.6-2.1-3-3.8-4.1c-1.9-1.2-4.4-0.5-6.6-1 c-5.4-1.4-10.3,4.1-12,9.2c0,0,0,0.1-0.1,0.1c0.2,0.9,0.3,1.9,0.4,2.8c-1.5,0-2.2,0.8-1.7,2.3c0,0,0.6,2.5,0.9,3.7 c0.1,0.7,0.7,1.2,1.4,1.2c0,0.8,0,1.6,0,2.4c0,1,0.2,1.9,0.8,2.7c1.4,2.1,8.8,6.8,10.5,6.7c2.9,0,8.5-4.9,10-7.3 c0.3-0.5,0.4-1,0.4-1.6c0-0.9,0-1.9,0-2.8c0.6-0.1,1.1-0.5,1.2-1.1c0.4-1.2,0.9-3.7,0.9-3.7C63.8,45.4,62.7,44.6,61.2,44.6z"/><path fill="#b2876b" d="M65.6,68.9l-0.3-0.1l-0.6-0.2C63.6,68,56,65.4,56,65.4c-0.5-0.1-0.9-0.5-1.2-1 c-0.2-0.9-0.3-1.8-0.2-2.8c-1.3,0.6-2.6,1-4,1.3c-1.8,0.2-4.9-2.2-4.9-2.2s-0.1,2.9-0.2,3.5c-0.2,0.6-0.6,1-1.2,1.1L37,67.9 c-0.7,0.2-1.4,0.5-2.1,0.9c-1.6,1-2.7,2.6-3.1,4.4h0c0,0.1,0,0.3-0.1,0.6c-0.1,0.4-0.2,0.8-0.2,1.2c0,0.4-0.1,6.9-0.1,7.4 c6.6,3.8,11.1,5.1,21.1,5.1c4.4,0,13.3-3.9,16.7-5.7C68.8,72.9,69.7,70.1,65.6,68.9z"/><path fill="#5b4040" d="M67,69.7c-0.1,0-6.2-2.4-8.4-3.3l0,0c-2.6,1.4-5.5,2.2-8.4,2.2c-3.2,0-3.7-1.4-6.4-2.9 c0,0-8.9,3-10.1,4.2c-1.4,1.5-2.8,11.4-2.9,12c7.5,5.4,23.6,9.6,38.3-0.1C69,77.5,69,70.4,67,69.7z"/><path fill="#e1e0d8" d="M44.5,65.7l-3.3,1l3.5,5.8c0.6,1,1.8,1.3,2.8,0.8c0.3-0.1,0.5-0.3,0.6-0.6l2.9-4 C51.1,68.7,45.3,67.5,44.5,65.7z"/><path fill="#e1e0d8" d="M57.5,66.1l2.9,1.2l-3.3,5c-0.6,1.2-2.1,1.7-3.3,1c-0.4-0.2-0.7-0.5-0.9-0.8l-2.5-3.6 C50.2,68.9,57.1,68,57.5,66.1z"/><path fill="#472b29" d="M39.6 52.4c-.1 0-.2-.1-.2-.2l-.8-7.6c0-.1.1-.2.2-.2.1 0 .2.1.2.2l.8 7.6C39.8 52.3 39.7 52.4 39.6 52.4 39.6 52.4 39.6 52.4 39.6 52.4zM61 52C60.9 52 60.9 52 61 52c-.1 0-.2-.1-.2-.2l.5-7.7c0-.1.1-.2.2-.2 0 0 0 0 0 0 .1 0 .2.1.2.2l-.5 7.7C61.1 51.9 61.1 52 61 52zM50.8 63.2c-1.9 0-4.8-1.6-4.9-1.7-.1-.1-.2-.2-.1-.3.1-.1.2-.2.3-.1 0 0 3.2 1.7 4.9 1.6 1.4-.3 2.8-.8 4.1-1.5.1-.1.3 0 .3.1.1.1 0 .3-.1.3-1.3.8-2.8 1.3-4.3 1.6C50.9 63.2 50.8 63.2 50.8 63.2z"/><path fill="#472b29" d="M50.4,52.5c0.8,0,1.5-0.3,2.1-0.9c0.1,0,0.1-0.1,0-0.2 c0,0,0,0,0,0l0,0c0-0.1-0.1-0.1-0.2,0c0,0,0,0,0,0c-1,1-2.7,1-3.7,0c0,0-0.1,0-0.1,0c0,0-0.1,0-0.1,0c-0.1,0-0.1,0.1,0,0.2 c0,0,0,0,0,0C48.9,52.2,49.6,52.5,50.4,52.5z" opacity=".41"/><path fill="#472b29" d="M47.9 42.1l.5-1c-2.2-.5-4.5-.4-6.6.2l.6.9C44.2 41.7 46.1 41.6 47.9 42.1zM58.6 42.1l.5-1c-2.2-.5-4.5-.4-6.6.2l.6.9C54.9 41.7 56.8 41.6 58.6 42.1zM44.6 43.5c-.5 0-1 .4-1.2.8.1 0 .1 0 .2 0 .5.1.8.5.7 1C44.3 45.7 44 46 43.6 46c-.1 0-.3 0-.4-.1.1.7.7 1.3 1.4 1.3 1-.3 1.7-1.3 1.4-2.3C45.8 44.2 45.3 43.7 44.6 43.5L44.6 43.5zM55.8 43.5c-.4 0-.9.3-1.1.6C54.8 44 54.9 44 55 44c.5 0 .8.4.8.8 0 .5-.4.9-.8.9-.3 0-.5-.1-.6-.4.2.8 1.1 1.3 1.9 1.1.8-.2 1.3-1.1 1.1-1.9C57.1 43.9 56.5 43.4 55.8 43.5L55.8 43.5zM56.6 54.9c.1-.1.1-.1 0-.2 0 0 0 0 0 0l0 0c-.1-.1-.1-.1-.2 0 0 0 0 0 0 0-1.8 1.2-3.9 1.8-6 1.7-2.1.1-4.2-.5-6-1.7 0 0-.1 0-.1 0 0 0-.1 0-.1 0-.1.1-.1.1 0 .2 0 0 0 0 0 0C47.9 57.5 52.8 57.5 56.6 54.9L56.6 54.9z"/><path fill="#cd9480" d="M43.2 49.3A2.2 2.2 0 1 0 43.2 53.7 2.2 2.2 0 1 0 43.2 49.3zM57.4 49.3A2.2 2.2 0 1 0 57.4 53.7 2.2 2.2 0 1 0 57.4 49.3z"/><path fill="#472b29" d="M49.8,88c-6.5,0-13-1.7-18.7-5.2c-0.1-0.1-0.2-0.2-0.2-0.4c-0.1-5.4,0.4-12.3,3.8-14 c0.7-0.4,1.4-0.7,2.2-0.9l7.3-2.5c0.4-0.1,0.8-0.4,0.9-0.7c0.1-0.4,0.2-1.9,0.2-2.7c-2.1-1.3-4.7-3.2-5.5-4.5 c-0.6-0.8-0.9-1.9-0.9-3l0-1.9c-0.7-0.2-1.2-0.8-1.4-1.5c-0.4-1.1-0.9-3.6-0.9-3.7c-0.3-1-0.1-1.7,0.2-2.1 c0.2-0.3,0.7-0.7,1.5-0.8c0-0.1,0-0.3,0-0.4c-0.2-0.5-0.4-1.1-0.4-1.7c0-6.2,5.5-11.3,12.3-11.3c6.8,0,12.3,5,12.3,11.2 c0,0.7-0.2,1.3-0.5,1.8c0,0.1,0,0.2,0,0.3c0.8,0.1,1.4,0.4,1.8,0.9c0.3,0.4,0.5,1,0.2,2l0,0.1c-0.4,1.7-0.7,2.9-0.9,3.6 c-0.1,0.6-0.6,1.1-1.2,1.4v2.4c0,0.7-0.2,1.3-0.5,1.8c-1.7,2.3-3.7,4.2-6.1,5.8c0,0.7,0,1.5,0.2,2.2c0.1,0.3,0.4,0.5,0.8,0.6 c0.3,0.1,7.7,2.6,8.9,3.1l0.8,0.3c3.6,1.1,3.7,5.8,3.9,12.3l0,0.8c0.1,0.2,0,0.4-0.1,0.5c0,0-0.1,0.1-0.1,0.1 C63.6,86.1,56.7,88,49.8,88z M31.9,82.1c11.3,6.7,25.7,6.5,36.8-0.6l0-0.6c-0.1-6.3-0.2-10.5-3.2-11.4l-0.9-0.4 c-1.1-0.5-8.7-3.1-8.8-3.1c-0.6-0.2-1.2-0.6-1.5-1.3c-0.3-1-0.3-1.9-0.3-2.8c0-0.2,0.1-0.3,0.2-0.4c2.3-1.5,4.3-3.4,6-5.6 c0.2-0.4,0.3-0.8,0.4-1.3v-2.8c0-0.3,0.2-0.5,0.4-0.5c0.4-0.1,0.7-0.3,0.8-0.7c0.2-0.7,0.5-1.9,0.9-3.5c0-0.1,0-0.2,0-0.2 c0.2-0.5,0.1-0.8-0.1-1.1c-0.3-0.3-0.8-0.6-1.5-0.5c-0.1,0-0.3-0.1-0.4-0.1c-0.1-0.1-0.1-0.2-0.1-0.4c0-0.7,0-1.1,0.2-1.3 c0.2-0.4,0.3-0.9,0.3-1.3c0-5.6-5.1-10.2-11.3-10.2s-11.3,4.6-11.3,10.2c0,0.4,0.2,0.9,0.4,1.3c0,0,0,0.1,0,0.1 c0,0.3,0.1,0.7,0.1,1.1c0,0.1,0,0.3-0.1,0.4c-0.1,0.1-0.2,0.2-0.4,0.2c-0.6,0-1,0.1-1.2,0.4c-0.2,0.3-0.1,0.9,0,1.2 c0,0.1,0.6,2.5,1,3.7c0.1,0.5,0.5,0.8,0.9,0.8c0,0,0,0,0,0c0.1,0,0.3,0.1,0.4,0.1c0.1,0.1,0.1,0.2,0.1,0.4v2.4 c0,0.9,0.2,1.7,0.7,2.4c0.7,1,3,2.8,5.5,4.3c0.1,0.1,0.2,0.3,0.2,0.4c0,0.7-0.2,2.6-0.3,3.2c-0.2,0.8-0.9,1.3-1.6,1.5l-7.3,2.5 c-0.7,0.2-1.4,0.5-2,0.8C32.9,70.5,31.8,75,31.9,82.1z"/><path fill="#472b29" d="M50.4,28.4c-7.8,0-14.1,5.2-14.1,11.6c0,0.6,0.2,1.2,0.5,1.8c1.7-5.7,9.6-8.4,13.6-8.4 s11.8,2.4,13.6,8.4c0.3-0.5,0.5-1.1,0.5-1.7C64.5,33.6,58.2,28.4,50.4,28.4z"/><path fill="#472b29" d="M49.2 29.1c-.3.2-.6.5-.9.7-1.7 1.6-2.7 3.8-3 6.1-.4 2.3-.5 4.6-1.1 6.8-.5 2.3-1.8 4.3-3.8 5.5-1.7.7-3.5 1-5.4.8-.6-1.9-.9-3.8-1-5.8-.1-2.2.2-4.3 1-6.4 2.1-5 7.1-8.2 12.5-7.9M51.6 29.1c.3.2.6.5.9.7 1.7 1.6 2.7 3.8 3 6.1.4 2.3.5 4.6 1.1 6.8.5 2.3 1.8 4.3 3.8 5.5 1.7.7 3.5 1 5.3.8.6-1.9.9-3.8 1-5.8.1-2.2-.2-4.3-1-6.4-2.1-5-7.1-8.2-12.5-7.9M50.7 69.3c-2.7 0-5.2-1.3-6.8-3.4l.8-.6c1.4 1.9 3.7 3 6.2 3l0 1C50.8 69.3 50.8 69.3 50.7 69.3z"/><path fill="#472b29" d="M50.8,69.3c-0.2,0-0.4,0-0.6,0l0.1-1c2.5,0.1,5-0.8,6.8-2.5l0.7,0.7 C55.9,68.3,53.4,69.3,50.8,69.3z"/><path fill="#472b29" d="M46 72.9H53.6V73.9H46z" transform="rotate(-79.304 49.83 73.367)"/><path fill="#472b29" d="M50.7 69.1H51.7V76.69999999999999H50.7z" transform="rotate(-10.684 51.23 72.888)"/><path fill="#fbcd59" d="M50.8 68.10000000000001A1.2 1.1 0 1 0 50.8 70.3A1.2 1.1 0 1 0 50.8 68.10000000000001Z"/><path fill="#472b29" d="M50.8,83.9c-7.6,0-17-13.1-17.4-13.7l0.8-0.6c0.1,0.1,9.5,13.2,16.6,13.2 c7.1,0,15.7-13.3,15.8-13.4l0.8,0.5C67.1,70.6,58.4,83.9,50.8,83.9z"/></svg>