<svg xmlns="http://www.w3.org/2000/svg" viewBox="0 0 30 30"><path d="M 5.578125 3 C 4.814125 3 4.0097656 3.921625 4.0097656 5.140625 C 4.0097656 6.504625 5.6148594 7.2847344 4.5058594 8.3027344 C 3.2448594 9.4607344 2 6.1544687 2 9.7304688 C 2 11.319469 3.8126094 14.178516 5.2246094 14.228516 C 5.1126094 14.588516 5.0371094 14.970562 5.0371094 15.351562 C 5.0371094 16.072457 5.2691682 16.882338 6.1269531 17.302734 C 6.27379 18.073037 6.5471254 18.690818 6.9589844 19.136719 C 7.2867619 19.491588 7.6680626 19.700835 8.0449219 19.830078 C 8.0975579 21.573699 8.3932631 22.875284 9.0976562 23.8125 C 9.869048 24.83886 10.935869 25.351323 12.115234 25.910156 C 12.436298 26.062296 12.653788 26.265273 13.097656 26.525391 C 13.541524 26.785509 14.184604 27 15 27 L 16 27 C 16.815396 27 17.458476 26.785509 17.902344 26.525391 C 18.346212 26.265273 18.563702 26.062296 18.884766 25.910156 C 20.064298 25.35175 21.13096 24.839011 21.902344 23.8125 C 22.606729 22.875146 22.902447 21.573723 22.955078 19.830078 C 23.331937 19.700835 23.713238 19.491588 24.041016 19.136719 C 24.501427 18.638252 24.802561 17.942883 24.929688 17.037109 L 25.003906 17 C 25.003906 14.938 28 15.339313 28 12.195312 C 28 11.146313 26 14.197 26 10 C 26 6.383 24 8.18 24 7 C 24 6.826 25 6.1095 25 4.9375 C 25 3.5065 23.744 3 23 3 C 21.492 3 24.342 4.5 21 4.5 C 19.746 4.5 17.881 1.597 15 4 C 13.961 3.762 14.142 3 12 3 C 10.294 3 9.036 5 8 5 C 5.166 5 6.632125 3 5.578125 3 z M 15 9 C 18.420404 9.2629704 18.888159 11.037511 19.646484 12.568359 C 19.600574 12.5674 19.548349 12.563175 19.503906 12.5625 C 18.641801 12.5494 17.90625 12.683594 17.90625 12.683594 A 1.0001188 1.0001188 0 1 0 18.259766 14.652344 C 18.259766 14.652344 18.416739 14.625752 18.650391 14.601562 A 0.84100002 0.84100002 0 0 0 19.484375 15.349609 A 0.84100002 0.84100002 0 0 0 20.304688 14.693359 C 20.501049 14.751612 20.632844 14.810591 20.632812 14.810547 A 1.0001 1.0001 0 0 0 22.074219 15.042969 C 22.462588 15.452651 22.781627 15.997236 22.919922 16.904297 C 22.831356 17.385356 22.686761 17.655338 22.572266 17.779297 C 22.399687 17.966139 22.227663 18 22 18 A 1.0001 1.0001 0 0 0 21 19 L 21 19.380859 C 21 21.185628 20.720351 22.055589 20.302734 22.611328 C 19.885118 23.167067 19.179811 23.557922 18.027344 24.103516 C 17.449408 24.377376 17.11421 24.670899 16.892578 24.800781 C 16.670946 24.930663 16.535604 25 16 25 L 15 25 C 14.464396 25 14.329054 24.93066 14.107422 24.800781 C 13.88579 24.670899 13.550592 24.377376 12.972656 24.103516 C 11.820022 23.557349 11.114874 23.166968 10.697266 22.611328 C 10.279657 22.055688 10 21.185628 10 19.380859 L 10 19 A 1.0001 1.0001 0 0 0 9 18 C 8.7723366 18 8.6003129 17.966139 8.4277344 17.779297 C 8.377399 17.724801 8.3216302 17.635192 8.265625 17.523438 C 9.1105594 17.361041 9.7111344 16.890898 10.054688 16.083984 C 10.160761 15.75658 10.277206 15.465757 10.398438 15.195312 A 1.0001 1.0001 0 0 0 10.896484 14.810547 C 10.896323 14.810774 11.026918 14.752004 11.224609 14.693359 A 0.84100002 0.84100002 0 0 0 12.044922 15.349609 A 0.84100002 0.84100002 0 0 0 12.878906 14.601562 C 13.113034 14.625733 13.269531 14.652344 13.269531 14.652344 A 1.0001 1.0001 0 1 0 13.623047 12.685547 C 13.623047 12.685547 13.169135 12.62533 12.611328 12.591797 C 12.810989 12.456716 13.011137 12.320955 13.210938 12.195312 C 14.206938 11.568312 14.647 10.592 15 9 z M 16.439453 14.986328 A 1.0001 1.0001 0 0 0 15.509766 16.142578 C 15.572036 16.574865 15.703131 17.006793 15.8125 17.447266 C 15.921869 17.887738 16 18.33197 16 18.5 C 16 18.776988 15.782106 19 15.5 19 C 15.25468 19 14.919898 18.91659 14.748047 18.822266 C 14.716647 18.805036 14.747204 18.835822 14.730469 18.826172 C 14.840374 18.602195 15 18.239604 15 17.771484 A 1.0001 1.0001 0 1 0 13 17.771484 C 13 17.802514 12.995101 17.839004 12.931641 17.966797 C 12.868151 18.094592 12.652344 18.240709 12.652344 18.845703 C 12.652344 19.675335 13.240507 20.277242 13.785156 20.576172 C 14.329806 20.875102 14.91732 21 15.5 21 A 1.0001 1.0001 0 0 0 16.185547 20.712891 C 17.188421 20.385635 18 19.601562 18 18.5 C 18 17.94903 17.872787 17.445574 17.753906 16.966797 C 17.635026 16.488019 17.514968 16.029135 17.490234 15.857422 A 1.0001 1.0001 0 0 0 16.539062 14.986328 A 1.0001 1.0001 0 0 0 16.439453 14.986328 z M 15.5 21 L 14 21 A 1.0001 1.0001 0 1 0 14 23 L 17 23 A 1.0001 1.0001 0 1 0 17 21 L 15.5 21 z"/></svg>