<svg xmlns="http://www.w3.org/2000/svg" viewBox="0 0 48 48"><path fill="#16b7b8" d="M21.106,3.477C17.551,3.711,13.988,4.654,11.01,6.61c-3.319,2.18-5.894,5.938-5.545,9.894 c0.091,1.032,0.446,2.143,1.331,2.682c0.623,0.379,1.39,0.405,2.119,0.42c0.824,0.017,1.649,0.034,2.473,0.05 c0.785,0.016,1.629,0.016,2.276-0.43c1.588-1.094,0.728-3.665,1.587-5.391c0.747-1.502,1.882-2.805,3.531-3.116 c2.846-0.536,7.425-0.445,10.313-0.219c1.769,0.139,2.703,0.895,3.842,2.256c1.046,1.25,1.263,3.051,2.358,4.259 c0.969,1.069,1.389,1.301,2.811,1.547c0.627,0.108,3.197,0.085,3.819-0.051c1.573-0.344,1.555-1.943,1.598-3.553 s-0.494-2.953-1.172-4.414c-0.9-1.938-1.961-3.992-3.87-4.952c-1.176-0.591-3.29-1.383-4.603-1.468 C32.45,4.033,24.662,3.242,21.106,3.477z"/><path fill="#bcbcbc" d="M5.492,16.752c0,0,8.823-0.042,9.29-0.647c0.03,1.02-0.109,3.416-2.29,3.52 s-5.236,0.205-5.698-0.439S5.492,16.752,5.492,16.752z"/><path fill="#bcbcbc" d="M34.663,16.113c0,0,2.992,0.541,5.254,0.199s3.75-0.854,3.75-0.854s0.065,3.021-2.04,3.096 s-4.641,0.247-5.648-0.849C34.972,16.609,34.663,16.113,34.663,16.113z"/><path fill="#f58420" d="M13.568,22.564c0.029,1.421,0.084,2.716,0.213,4.131c1.49-0.13,2.98-0.26,4.47-0.39 c0.052-0.005,0.106-0.01,0.15-0.038c0.093-0.06,0.098-0.192,0.093-0.302c-0.051-1.149-0.102-2.298-0.154-3.446 C16.758,22.575,15.151,22.508,13.568,22.564z"/><path fill="#010101" d="M13.781,27.195c-0.256,0-0.474-0.195-0.498-0.454c-0.118-1.289-0.182-2.535-0.215-4.167 c-0.005-0.272,0.209-0.5,0.482-0.51c0.797-0.027,1.602-0.022,2.406-0.023c0.791,0.003,1.582,0.007,2.367-0.022 c0.264,0.015,0.506,0.203,0.518,0.478l0.153,3.446c0.015,0.346-0.092,0.596-0.319,0.744c-0.148,0.096-0.296,0.109-0.375,0.117 l-4.475,0.39C13.811,27.194,13.796,27.195,13.781,27.195z M14.08,23.05c0.03,1.169,0.079,2.141,0.157,3.104l3.749-0.326 l-0.123-2.795c-0.635,0.014-1.272,0.012-1.91,0.009C15.327,23.04,14.701,23.037,14.08,23.05z"/><path fill="#f58420" d="M22.466,22.578c-0.017,1.443,0.003,2.819,0.123,4.257c1.529-0.007,3.057-0.049,4.584-0.125 c0.104-0.005,0.215-0.013,0.299-0.076c0.11-0.084,0.137-0.236,0.153-0.374c0.132-1.158,0.077-2.337-0.163-3.478 c-0.011-0.054-0.024-0.11-0.061-0.15c-0.056-0.061-0.149-0.066-0.233-0.068C25.611,22.543,24.022,22.502,22.466,22.578z"/><path fill="#010101" d="M22.589,27.335c-0.26,0-0.477-0.199-0.498-0.458c-0.107-1.276-0.146-2.604-0.125-4.305 c0.003-0.265,0.211-0.48,0.476-0.493c1.354-0.067,2.738-0.045,4.077-0.024l0.656,0.01c0.105,0.001,0.389,0.005,0.595,0.23 c0.129,0.138,0.165,0.303,0.182,0.382c0.251,1.199,0.309,2.424,0.17,3.64c-0.017,0.147-0.056,0.494-0.347,0.715 c-0.213,0.16-0.451,0.171-0.578,0.177c-1.525,0.077-3.075,0.12-4.604,0.127C22.591,27.335,22.59,27.335,22.589,27.335z M22.962,23.058c-0.007,1.248,0.021,2.29,0.09,3.274c1.356-0.013,2.724-0.054,4.075-0.121c0-0.003,0-0.005,0.001-0.008 c0.119-1.049,0.079-2.104-0.12-3.141l-0.504-0.008C25.337,23.035,24.135,23.018,22.962,23.058z"/><path fill="#f58420" d="M30.524,22.488c0.191,1.408,0.329,2.733,0.117,4.139c1.654-0.038,3.308-0.077,4.962-0.115 c0.212-1.41,0.041-2.847-0.13-4.262c-0.008-0.07-0.019-0.144-0.062-0.2c-0.071-0.09-0.203-0.099-0.318-0.1 C33.605,21.937,32.011,22.501,30.524,22.488z"/><path fill="#010101" d="M30.641,27.127c-0.144,0-0.28-0.062-0.375-0.169c-0.098-0.111-0.142-0.26-0.12-0.405 c0.206-1.371,0.062-2.673-0.119-3.997c-0.02-0.144,0.024-0.289,0.121-0.397c0.096-0.109,0.224-0.201,0.379-0.17 c0.683,0.001,1.423-0.124,2.192-0.262c0.78-0.139,1.582-0.299,2.376-0.276c0.131,0.001,0.479,0.004,0.705,0.289 c0.134,0.169,0.156,0.352,0.167,0.45c0.173,1.432,0.352,2.912,0.128,4.396c-0.037,0.24-0.24,0.42-0.483,0.426l-4.961,0.115 C30.649,27.127,30.645,27.127,30.641,27.127z M31.091,22.969c0.128,1.03,0.212,2.06,0.115,3.145l3.954-0.092 c0.113-1.175-0.023-2.387-0.166-3.568c-0.704,0.01-1.382,0.131-2.098,0.258C32.304,22.817,31.695,22.926,31.091,22.969z"/><path fill="#f58420" d="M13.573,30.497c-0.024,1.436-0.135,2.692-0.091,4.127c1.477-0.093,3.509,0.063,4.986-0.031 c0.055-0.003,0.114-0.008,0.158-0.043c0.05-0.039,0.066-0.107,0.079-0.169c0.266-1.31,0.223-2.682-0.124-3.973 C17.029,30.245,15.065,30.036,13.573,30.497z"/><path fill="#010101" d="M17.271,35.124c-0.43,0-0.873-0.008-1.309-0.016c-0.851-0.015-1.73-0.031-2.448,0.014 c-0.133,0.011-0.268-0.038-0.368-0.129c-0.1-0.092-0.159-0.22-0.164-0.354c-0.028-0.923,0.005-1.751,0.042-2.627 c0.02-0.496,0.041-0.997,0.049-1.523c0.003-0.217,0.146-0.406,0.353-0.47c1.588-0.491,3.593-0.278,5.206-0.107 c0.206,0.021,0.379,0.168,0.433,0.367c0.367,1.365,0.412,2.818,0.131,4.202c-0.019,0.093-0.063,0.31-0.262,0.464 c-0.163,0.128-0.343,0.141-0.429,0.147C18.121,35.116,17.703,35.124,17.271,35.124z M14.669,34.093c0.43,0,0.874,0.008,1.31,0.016 c0.782,0.014,1.587,0.028,2.27-0.004c0.192-1.079,0.167-2.182-0.068-3.235c-1.329-0.138-2.875-0.269-4.115,0.014 c-0.01,0.398-0.026,0.786-0.042,1.17c-0.028,0.691-0.055,1.353-0.05,2.049C14.198,34.095,14.431,34.093,14.669,34.093z"/><path fill="#f58420" d="M22.587,30.453c-0.033,1.435,0.033,2.919,0.108,4.352c1.282,0.028,2.563,0.056,3.845,0.084 c0.399,0.009,0.888-0.036,1.054-0.399c0.071-0.154,0.061-0.332,0.05-0.501c-0.057-0.868-0.114-1.737-0.172-2.605 c-0.015-0.235-0.037-0.487-0.188-0.668c-0.129-0.156-0.33-0.23-0.525-0.286c-1.037-0.3-1.827-0.167-2.906-0.136 C23.509,30.304,22.878,30.265,22.587,30.453z"/><path fill="#010101" d="M26.65,35.391c-0.046,0-0.087-0.001-0.121-0.002l-3.845-0.084c-0.261-0.006-0.474-0.212-0.488-0.474 c-0.071-1.342-0.143-2.897-0.109-4.391c0.004-0.165,0.09-0.318,0.229-0.408c0.36-0.232,0.892-0.234,1.32-0.235l0.203-0.003 c0.221-0.006,0.428-0.017,0.628-0.027c0.785-0.041,1.529-0.079,2.432,0.183c0.261,0.076,0.555,0.188,0.771,0.446 c0.26,0.315,0.285,0.7,0.302,0.955l0.171,2.604c0.013,0.198,0.031,0.47-0.094,0.743C27.758,35.334,27.019,35.391,26.65,35.391z M23.171,34.315l3.38,0.073c0.521,0.022,0.588-0.106,0.588-0.107c0.02-0.043,0.011-0.179,0.005-0.26l-0.171-2.604 c-0.008-0.119-0.021-0.318-0.074-0.383c-0.047-0.057-0.222-0.107-0.279-0.124c-0.74-0.215-1.342-0.185-2.102-0.145 c-0.207,0.011-0.422,0.021-0.649,0.028l-0.23,0.003c-0.129,0-0.372,0.001-0.559,0.022C23.067,32,23.116,33.215,23.171,34.315z"/><path fill="#f58420" d="M30.619,30.582c-0.072,1.306-0.024,2.598,0.097,3.9c1.517,0.054,3.034,0.108,4.552,0.161 c0.06,0.002,0.126,0.002,0.172-0.037c0.054-0.046,0.057-0.127,0.055-0.197c-0.024-1.329-0.081-2.658-0.17-3.984 c-0.005-0.077-0.016-0.164-0.078-0.21c-0.045-0.034-0.106-0.036-0.163-0.036C33.579,30.17,32.096,30.293,30.619,30.582z"/><path fill="#010101" d="M35.301,35.145c-0.02,0-0.037-0.001-0.05-0.001l-4.553-0.161c-0.251-0.009-0.457-0.203-0.48-0.454 c-0.134-1.441-0.166-2.741-0.098-3.974c0.012-0.229,0.178-0.419,0.403-0.463c1.466-0.288,2.942-0.417,4.564-0.413 c0,0,0.001,0,0.002,0c0.083,0,0.279,0.001,0.459,0.137c0.251,0.186,0.27,0.481,0.276,0.579c0.089,1.325,0.147,2.674,0.171,4.006 c0.001,0.097,0.005,0.385-0.231,0.586C35.6,35.128,35.409,35.145,35.301,35.145z M31.176,33.998l3.813,0.136 c-0.025-1.158-0.075-2.313-0.148-3.455c-1.316,0.006-2.542,0.111-3.74,0.322C31.065,31.941,31.091,32.929,31.176,33.998z"/><path fill="#f58420" d="M14.451,38.443c-0.109,1.578-0.024,3.229,0.228,4.791c1.426-0.031,2.853,0.013,4.274,0.133 c0.103,0.009,0.227,0.009,0.285-0.077c0.027-0.04,0.033-0.089,0.038-0.137c0.162-1.559,0.25-3.125,0.262-4.692 c0.001-0.085-0.004-0.183-0.071-0.237c-0.05-0.04-0.12-0.043-0.184-0.043C17.666,38.174,16.061,38.303,14.451,38.443z"/><path fill="#010101" d="M19.022,43.87c-0.036,0-0.073-0.002-0.112-0.005c-1.399-0.117-2.817-0.165-4.221-0.132 c-0.241-0.002-0.465-0.174-0.504-0.42c-0.262-1.623-0.343-3.319-0.233-4.904c0.017-0.246,0.21-0.442,0.456-0.464 c1.642-0.144,3.252-0.277,4.877-0.265c0.082,0.027,0.308,0,0.499,0.155c0.257,0.208,0.255,0.524,0.255,0.628 c-0.013,1.579-0.102,3.173-0.265,4.74c-0.007,0.07-0.022,0.22-0.12,0.364C19.518,43.77,19.306,43.87,19.022,43.87z M15.551,42.724 c1.083,0,2.173,0.044,3.252,0.13c0.137-1.392,0.215-2.788,0.232-4.173c-1.375,0.007-2.732,0.105-4.111,0.224 c-0.057,1.245,0.005,2.551,0.183,3.822C15.255,42.725,15.403,42.724,15.551,42.724z"/><path fill="#f58420" d="M22.497,38.557c0.043,1.576-0.036,3.22,0.007,4.796c0.001,0.044,0.003,0.091,0.029,0.128 c0.041,0.059,0.125,0.066,0.197,0.067c1.433,0.019,2.866,0.037,4.299,0.056c0.097,0.001,0.201,0,0.279-0.056 c0.101-0.073,0.124-0.21,0.138-0.334c0.175-1.537,0.146-3.098-0.083-4.628C25.846,38.531,24.014,38.539,22.497,38.557z"/><path fill="#010101" d="M27.074,44.104c-0.021,0-0.04-0.001-0.056-0.001l-4.295-0.056c-0.273-0.004-0.476-0.099-0.602-0.283 c-0.109-0.154-0.114-0.316-0.117-0.395c-0.022-0.797-0.013-1.608-0.004-2.42c0.009-0.798,0.018-1.597-0.003-2.378 c-0.003-0.134,0.047-0.264,0.14-0.36s0.22-0.151,0.354-0.153c1.323-0.016,3.267-0.03,4.89,0.027 c0.241,0.009,0.441,0.188,0.477,0.426c0.236,1.576,0.265,3.177,0.085,4.759c-0.016,0.141-0.052,0.473-0.341,0.683 C27.413,44.088,27.204,44.104,27.074,44.104z M22.997,43.05l3.955,0.052c0.15-1.382,0.138-2.717-0.027-4.03 c-1.308-0.035-2.771-0.031-3.918-0.02c0.008,0.631,0.001,1.27-0.006,1.909C22.993,41.661,22.985,42.361,22.997,43.05z"/><path fill="#f58420" d="M30.518,38.543c0.035,1.614,0.029,3.31,0.064,4.924c0.001,0.052,0.005,0.11,0.045,0.144 c0.029,0.025,0.07,0.029,0.108,0.032c1.449,0.112,2.902,0.171,4.356,0.175c0.213,0.001,0.463-0.02,0.574-0.202 c0.066-0.109,0.059-0.245,0.051-0.371c-0.091-1.351-0.182-2.701-0.273-4.052c-0.006-0.095-0.013-0.192-0.052-0.279 c-0.124-0.276-0.488-0.323-0.791-0.33C33.399,38.555,31.717,38.527,30.518,38.543z"/><path fill="#010101" d="M35.09,44.318c-1.462-0.005-2.94-0.064-4.395-0.178c-0.064-0.005-0.236-0.018-0.39-0.146 c-0.215-0.181-0.222-0.431-0.225-0.514c-0.017-0.808-0.024-1.632-0.032-2.457c-0.007-0.83-0.015-1.661-0.032-2.471 c-0.003-0.133,0.048-0.262,0.14-0.358c0.093-0.096,0.22-0.15,0.354-0.152c1.294-0.016,3.124,0.019,4.099,0.04 c0.239,0.006,0.966,0.021,1.236,0.626c0.076,0.169,0.086,0.331,0.095,0.45l0.273,4.052c0.01,0.157,0.027,0.418-0.123,0.665 C35.823,44.318,35.291,44.318,35.09,44.318z M31.076,43.167c1.337,0.096,2.684,0.146,4.016,0.151c0.055,0,0.096-0.002,0.126-0.005 c-0.001-0.014-0.002-0.026-0.002-0.035l-0.273-4.052c-0.002-0.033-0.005-0.087-0.011-0.109c-0.003,0.004-0.088-0.028-0.344-0.034 c-0.848-0.021-2.351-0.051-3.56-0.044c0.011,0.652,0.017,1.314,0.022,1.977C31.056,41.737,31.063,42.459,31.076,43.167z"/><path fill="#010101" d="M42.802,10.333c-0.959-2.063-2.066-4.164-4.1-5.187c-1.068-0.537-3.314-1.425-4.795-1.521 c-0.27-0.018-0.769-0.06-1.424-0.116c-2.757-0.234-8.497-0.724-11.41-0.532c-3.959,0.261-7.534,1.372-10.338,3.214 c-3.836,2.521-6.101,6.586-5.769,10.356c0.089,1.017,0.434,2.374,1.568,3.064c0.754,0.461,1.65,0.479,2.369,0.493l2.474,0.051 c0.126,0.002,0.261,0.005,0.401,0.005c0.685,0,1.501-0.063,2.168-0.522c1.133-0.781,1.231-2.1,1.325-3.374 c0.058-0.78,0.117-1.586,0.426-2.207c0.82-1.646,1.888-2.605,3.176-2.848c2.616-0.493,6.999-0.46,10.181-0.212 c1.59,0.125,2.425,0.798,3.497,2.078c0.459,0.55,0.749,1.23,1.055,1.952c0.342,0.806,0.695,1.638,1.316,2.323 c1.044,1.152,1.564,1.438,3.097,1.704c0.667,0.114,3.299,0.101,4.011-0.056c1.9-0.416,1.946-2.244,1.986-3.856l0.004-0.173 C44.067,13.21,43.471,11.772,42.802,10.333z M13.38,18.814c-0.497,0.343-1.189,0.361-1.982,0.342l-2.473-0.051 c-0.63-0.013-1.345-0.027-1.869-0.347c-0.602-0.367-0.878-1.089-1.005-1.702c0.853,0.044,1.708,0.082,2.565,0.082 c1.638,0,3.278-0.081,4.905-0.243c0.19-0.019,0.444-0.045,0.705-0.119C14.143,17.656,13.988,18.396,13.38,18.814z M33.319,12.435 c-1.224-1.461-2.253-2.281-4.186-2.433c-3.011-0.237-7.552-0.318-10.444,0.226c-1.589,0.299-2.933,1.47-3.886,3.385 c-0.31,0.624-0.417,1.315-0.481,2.006c-0.014,0.011-0.031,0.016-0.044,0.029c-0.175,0.173-0.505,0.219-0.857,0.255 c-2.464,0.245-4.962,0.3-7.433,0.166c-0.003-0.03-0.018-0.056-0.027-0.084c-0.078-3.274,1.953-6.742,5.322-8.956 c2.66-1.747,6.067-2.802,9.854-3.052c2.843-0.188,8.527,0.297,11.259,0.531c0.665,0.057,1.171,0.1,1.445,0.117 c1.263,0.082,3.339,0.877,4.411,1.415C40,6.918,41.01,8.851,41.895,10.755c0.617,1.326,1.167,2.646,1.126,4.189l-0.003,0.137 c-0.241,0.094-0.48,0.19-0.712,0.291c-0.648,0.281-1.26,0.547-1.939,0.587c-1.381,0.08-2.654-0.066-4.002-0.222 c-0.463-0.053-0.931-0.107-1.41-0.152c-0.15-0.303-0.288-0.619-0.428-0.947C34.206,13.881,33.874,13.099,33.319,12.435z M41.817,18.023c-0.531,0.116-3.041,0.146-3.627,0.046c-1.306-0.226-1.636-0.407-2.526-1.39c-0.004-0.004-0.006-0.009-0.01-0.013 c0.198,0.022,0.4,0.042,0.596,0.064c1.114,0.128,2.178,0.251,3.311,0.251c0.283,0,0.571-0.008,0.865-0.025 c0.856-0.05,1.58-0.364,2.279-0.668c0.085-0.037,0.176-0.07,0.263-0.107C42.88,17.204,42.639,17.843,41.817,18.023z"/></svg>