<?xml version="1.0"?><svg xmlns="http://www.w3.org/2000/svg" viewBox="0 0 50 50">    <path d="M 25.691406 2.9707031 C 25.596262 2.978895 25.491563 2.9995312 25.375 3.0351562 C 24.704 3.2401562 21.846062 4.9257187 23.039062 5.7617188 C 23.621063 6.1697188 24.551094 5.3568594 24.746094 6.3808594 C 24.994094 7.6798594 23.368203 6.1455312 23.533203 7.0195312 C 23.634203 7.5545313 24.739781 7.256625 24.425781 8.015625 C 24.328781 8.250625 23.894844 8.2497812 23.839844 8.5507812 C 23.758844 8.9947813 24.490375 9.2132812 24.484375 9.4882812 C 24.484375 9.5072813 23.636063 9.4904062 23.539062 9.8164062 C 23.418063 10.222406 23.864781 10.504453 24.175781 10.564453 C 24.629781 10.650453 26.475172 10.46425 25.701172 9.65625 C 25.563172 9.51225 25.175547 9.608 25.185547 9.375 C 25.190547 9.254 25.388688 9.2391094 25.429688 9.1621094 C 25.601688 8.8331094 25.889656 8.6266094 25.972656 8.2246094 C 26.053656 7.8316094 25.926313 7.6940469 25.820312 7.3730469 C 25.676313 6.9370469 25.758266 6.883625 25.947266 6.390625 C 26.233203 5.644375 27.118567 2.8478247 25.691406 2.9707031 z M 22.072266 6.0898438 C 21.932922 6.1061875 21.795922 6.1760625 21.669922 6.3203125 C 21.426922 6.5983125 21.443516 7.0444687 21.603516 7.3554688 C 21.667516 7.4804687 22.148141 7.5446719 21.994141 7.7636719 C 21.662141 8.2356719 22.577141 8.4023437 22.869141 8.2773438 C 23.420141 8.0423438 23.324375 7.2924688 23.109375 6.8554688 C 22.923375 6.4767187 22.490297 6.0408125 22.072266 6.0898438 z M 20.720703 7.7128906 C 20.426703 7.6578906 20.002156 7.9140937 20.035156 8.2460938 C 20.073156 8.6330938 20.568734 8.6755781 20.802734 8.8925781 C 21.154734 9.2195781 21.523703 7.8638906 20.720703 7.7128906 z M 18.917969 7.9394531 C 18.704078 7.9045781 18.358266 8.0359375 18.322266 8.1484375 C 18.211266 8.4924375 19.208312 8.3321563 19.070312 8.0351562 C 19.044562 7.9796562 18.989266 7.9510781 18.917969 7.9394531 z M 21.703125 8.2304688 C 21.591982 8.2821973 21.566953 8.6086719 21.611328 8.8417969 C 21.739328 9.5197969 22.227047 8.9397188 21.998047 8.5117188 C 21.866797 8.2672188 21.769811 8.1994316 21.703125 8.2304688 z M 16.867188 8.5820312 C 16.071188 8.3730313 15.586844 10.009297 16.089844 10.154297 C 16.478844 10.267297 17.940188 8.8650313 16.867188 8.5820312 z M 18.478516 8.6113281 C 18.429633 8.6115176 18.376766 8.6250469 18.322266 8.6542969 C 17.665266 9.0072969 18.454625 9.2727656 18.640625 9.2597656 C 18.999375 9.2343906 18.820695 8.610002 18.478516 8.6113281 z M 22.083984 9.3144531 C 21.990719 9.3187344 21.907328 9.3489687 21.861328 9.4179688 C 21.781328 9.5369687 22.364656 9.7800312 22.472656 9.7070312 C 22.734406 9.5300313 22.363781 9.3016094 22.083984 9.3144531 z M 21.814453 9.9960938 C 21.736547 10.015203 21.673469 10.068375 21.636719 10.171875 C 21.488719 10.590875 22.197109 10.651516 22.412109 10.853516 C 22.723109 11.146516 22.747562 11.673531 22.976562 12.019531 C 23.313562 12.527531 23.527859 12.238594 24.005859 12.433594 C 24.572859 12.664594 25.404812 12.768906 25.757812 12.128906 C 26.046813 11.604906 25.755531 11.055781 25.144531 11.050781 C 24.673531 11.046781 24.331219 11.528391 23.824219 11.400391 C 23.284219 11.264391 23.008891 10.639313 22.587891 10.320312 C 22.414641 10.189062 22.048172 9.9387656 21.814453 9.9960938 z M 16.978516 10.09375 C 16.879031 10.089953 16.787688 10.172937 16.710938 10.398438 C 16.575937 10.795438 17.096094 11.186438 17.246094 11.523438 C 17.416094 11.907438 17.329813 12.292563 17.882812 12.351562 C 18.643812 12.432562 19.502562 11.275078 19.226562 10.580078 C 18.784562 9.4690781 18.402266 11.015406 17.947266 10.941406 C 17.651766 10.894156 17.276969 10.105141 16.978516 10.09375 z M 20.992188 10.408203 C 20.926943 10.405119 20.857938 10.426187 20.789062 10.476562 C 19.943062 11.095562 21.271781 13.009781 21.675781 11.925781 C 21.791281 11.616031 21.448896 10.429791 20.992188 10.408203 z M 14.949219 11.158203 C 13.995879 11.234038 12.939656 12.472156 13.144531 13.488281 C 13.385531 14.688281 16.626641 13.156297 16.056641 11.904297 C 15.794453 11.328672 15.382555 11.123733 14.949219 11.158203 z M 22.226562 11.671875 C 21.88415 11.639828 21.6225 12.420469 22.15625 12.433594 C 22.49525 12.441594 22.616953 11.944234 22.376953 11.740234 C 22.326828 11.697859 22.275479 11.676453 22.226562 11.671875 z M 7.0625 11.996094 C 6.5830625 11.973172 6.1332031 12.232078 5.7207031 12.767578 C 5.6917031 12.805578 5.6637656 12.844 5.6347656 12.875 C 4.8207656 13.762 4.0413125 14.674844 3.3203125 15.589844 C 3.0713125 15.902844 2.83375 16.224922 2.59375 16.544922 C 2.23475 17.023922 1.8743281 17.502031 1.4863281 17.957031 C 1.3753281 18.088031 1.2328438 18.21475 1.0898438 18.34375 C 0.82984375 18.57975 0.5345 18.844969 0.3125 19.167969 C -0.1605 19.854969 0.014140625 20.448734 0.11914062 20.802734 C 0.13814062 20.869734 0.1616875 20.942391 0.1796875 21.025391 C 0.4086875 22.073391 0.8275625 22.390266 1.3515625 22.697266 C 1.4665625 22.765266 1.6045312 22.844469 1.7695312 22.980469 C 1.8775313 23.070469 1.9113281 23.097766 1.7363281 23.759766 C 1.6673281 24.024766 1.5984531 24.2935 1.5644531 24.5625 C 1.5004531 25.0605 1.5392188 25.525547 1.5742188 25.935547 C 1.6132188 26.404547 1.6484375 26.810203 1.5234375 27.158203 C 1.4574375 27.343203 1.3919844 27.490094 1.3339844 27.621094 C 1.1719844 27.991094 1.005 28.376188 1 28.992188 C 1 29.011188 0.98678125 30.935125 1.1757812 32.578125 L 1.1972656 32.787109 C 1.3002656 33.717109 1.3984375 34.595047 2.1484375 35.498047 C 3.7684375 37.451047 5.7618281 38.193172 7.6738281 38.701172 C 9.7378281 39.250172 12.182688 39.856125 14.679688 40.203125 C 15.188688 40.274125 15.697984 40.360266 16.208984 40.447266 C 17.576984 40.679266 18.991406 40.924047 20.441406 40.873047 C 20.608406 40.868047 20.794328 40.851078 20.986328 40.830078 C 21.213328 40.806078 21.555453 40.771687 21.689453 40.804688 C 21.899453 40.858688 22.144297 40.992719 22.404297 41.136719 C 22.919297 41.420719 23.570766 41.748766 24.384766 41.759766 C 25.114766 41.745766 25.651922 41.396578 26.044922 41.142578 C 26.275922 40.991578 26.476813 40.86175 26.632812 40.84375 C 27.110813 40.78975 27.692859 41.228391 28.255859 41.650391 C 28.422859 41.775391 28.586094 41.898766 28.746094 42.009766 C 29.117094 42.267766 29.516469 42.530938 29.980469 42.710938 C 29.867469 42.910937 29.775469 43.088891 29.730469 43.212891 C 29.382469 44.182891 29.559125 45.227812 30.203125 46.007812 C 30.731125 46.646813 31.499312 47 32.320312 47 C 32.469313 47 32.619531 46.987891 32.769531 46.962891 C 34.147531 46.746891 34.458531 45.487375 34.644531 44.734375 C 34.868531 43.825375 34.950969 43.817875 35.167969 43.796875 C 35.279969 43.786875 35.353203 43.787062 35.408203 43.789062 C 36.078203 43.807063 36.336766 43.55375 36.759766 43.09375 C 37.067766 42.75775 37.299859 42.544906 37.630859 42.378906 C 37.755859 42.316906 37.889437 42.271609 38.023438 42.224609 C 38.284438 42.133609 38.579094 42.029609 38.871094 41.849609 C 39.374094 41.541609 39.599672 41.166578 39.763672 40.892578 C 39.808672 40.818578 39.854062 40.737344 39.914062 40.652344 C 40.071062 40.429344 40.191484 40.303422 40.271484 40.232422 C 40.353484 40.325422 40.449578 40.439484 40.517578 40.521484 C 40.770578 40.823484 40.988281 41.084812 41.238281 41.257812 C 41.773281 41.628813 42.27825 41.852312 42.78125 41.945312 C 44.08625 42.187313 44.946156 41.869813 45.660156 40.882812 C 45.680156 40.855813 47.521266 37.778891 46.822266 36.587891 C 46.586266 36.184891 46.138875 35.969344 45.671875 36.027344 C 44.768875 36.137344 43.923453 36.002219 43.564453 35.699219 C 43.516453 35.658219 43.442094 35.551266 43.371094 35.447266 C 43.228094 35.237266 43.052719 34.975234 42.761719 34.740234 C 42.670719 34.666234 42.581094 34.600109 42.496094 34.537109 C 42.455094 34.507109 42.415906 34.478172 42.378906 34.451172 C 42.391906 34.410172 42.412406 34.358969 42.441406 34.292969 C 42.669406 33.779969 43.054844 33.515391 43.589844 33.150391 C 44.137844 32.775391 44.760766 32.350891 45.259766 31.587891 C 45.924766 30.568891 46.023953 29.188422 45.501953 28.232422 C 45.104953 27.504422 44.361547 27.095656 43.560547 27.097656 C 43.046547 27.099656 42.927078 26.999203 42.830078 26.908203 C 42.196078 26.327203 41.457547 26.427422 41.060547 26.482422 C 40.959547 26.496422 40.809719 26.514766 40.761719 26.509766 C 40.495719 26.440766 40.205391 26.153609 39.900391 25.849609 C 39.722391 25.673609 39.546344 25.499813 39.402344 25.382812 C 39.320344 25.293812 39.07125 24.9295 38.90625 24.6875 C 38.09925 23.5075 37.698687 22.914047 36.929688 22.998047 C 35.908688 23.111047 35.777266 24.209234 35.697266 24.865234 C 35.676266 25.041234 35.663953 25.214078 35.626953 25.330078 C 35.553953 25.534078 35.417422 25.743922 34.982422 25.794922 C 34.953422 25.700922 34.929359 25.560203 34.943359 25.408203 C 34.993359 24.878203 34.819172 24.371469 34.451172 23.980469 C 33.513172 22.982469 31.617344 23.016437 31.402344 23.023438 C 30.859344 23.040438 29.591734 23.081891 29.052734 24.212891 C 28.583734 25.196891 29.229047 26.273672 29.748047 27.138672 C 29.883047 27.364672 30.068422 27.671063 30.107422 27.789062 C 30.169422 27.980063 30.159672 28.16375 30.138672 28.46875 C 30.106672 28.92875 30.064937 29.558953 30.460938 30.251953 C 30.805938 30.854953 30.813047 31.189453 30.498047 31.814453 C 30.299047 32.210453 30.178047 32.553141 30.123047 32.869141 C 29.887047 32.495141 29.573094 32.162984 29.121094 31.958984 C 28.562094 31.705984 27.997047 31.660141 27.498047 31.619141 C 27.283047 31.601141 27.069281 31.586875 26.863281 31.546875 C 26.048281 31.387875 25.287109 31.052125 24.662109 30.578125 C 23.781109 29.910125 22.888484 28.707672 23.271484 27.513672 C 23.513484 26.755672 24.135406 25.763969 24.816406 25.042969 C 24.890406 24.964969 24.971734 24.894219 25.052734 24.824219 C 25.370734 24.547219 25.850047 24.128203 25.998047 23.408203 C 26.052047 23.148203 26.064266 22.897344 26.072266 22.652344 C 26.086266 22.238344 26.103266 22.222672 26.197266 22.138672 C 26.268266 22.075672 26.43375 22.003594 26.59375 21.933594 C 27.09075 21.716594 28.124266 21.266391 28.072266 19.900391 C 28.044266 19.165391 27.213859 17.581406 26.380859 17.191406 C 26.049986 17.03717 25.759176 16.992866 25.5 17.009766 C 26.108583 16.949491 26.653695 16.47174 27.357422 16.417969 C 27.872422 16.378969 28.016516 16.704234 28.353516 16.990234 C 28.804516 17.373234 29.358266 17.390844 29.822266 17.714844 C 30.251266 18.013844 30.244219 18.334594 30.324219 18.808594 C 30.385219 19.172594 30.716969 19.809578 30.667969 20.142578 C 30.568969 20.821578 29.185578 20.508922 29.267578 21.294922 C 29.365578 22.238922 31.653078 22.069344 32.330078 22.277344 C 33.091078 22.510344 34.239141 23.183797 34.994141 22.591797 C 35.847141 21.923797 34.533203 22.074359 34.158203 21.943359 C 33.916203 21.859359 33.504875 21.680891 33.671875 21.337891 C 33.782875 21.108891 34.215156 21.194859 34.410156 21.130859 C 35.263156 20.851859 35.099766 20.056344 34.509766 19.527344 C 34.276766 19.318344 33.950094 19.106047 33.621094 19.123047 C 33.419094 19.133047 32.824109 19.523797 32.787109 19.091797 C 32.762109 18.794797 33.336875 18.555828 33.546875 18.548828 C 34.040875 18.531828 34.554797 19.106594 34.841797 18.308594 C 35.308797 17.012594 33.518203 16.9405 32.783203 16.9375 C 32.433203 16.9355 31.884344 17.002031 31.652344 16.707031 C 31.573344 16.606031 31.623031 16.181734 31.582031 16.052734 C 31.484031 15.742734 31.384578 15.633594 31.142578 15.433594 C 30.734578 15.096594 30.152875 15.337844 29.796875 15.089844 C 29.397875 14.810844 29.867391 15.035562 29.650391 14.726562 C 29.720391 14.578563 29.68125 14.473203 29.53125 14.408203 C 29.37925 14.373203 29.281375 14.418922 29.234375 14.544922 C 29.085375 14.560922 29.081266 14.725406 28.822266 14.691406 C 28.448266 14.642406 28.554609 14.43775 28.349609 14.21875 C 28.062609 13.91275 27.523141 13.475109 27.119141 13.912109 C 26.765141 14.295109 26.774562 14.816453 26.351562 14.314453 C 26.089562 14.002453 26.126547 13.451484 25.810547 13.146484 C 25.584547 12.929484 25.484688 12.815328 25.179688 12.986328 C 24.598688 13.313328 25.0375 14.229438 25.1875 14.648438 C 25.2565 14.840438 25.634875 15.634453 25.171875 15.564453 C 24.701875 15.494453 24.776781 14.334781 24.800781 14.050781 C 24.838781 13.598781 24.969766 13.129375 24.384766 13.484375 C 23.906766 13.774375 23.684078 14.674453 23.705078 15.189453 C 23.725078 15.706453 24.119109 16.376172 24.537109 16.701172 C 24.855711 16.949268 25.140012 17.02272 25.410156 17.015625 C 24.61388 17.117831 24.162165 17.862063 23.982422 18.160156 C 23.937422 18.233156 23.879891 18.329391 23.837891 18.400391 C 23.795891 18.324391 23.75375 18.236969 23.71875 18.167969 C 23.60875 17.945969 23.493281 17.728922 23.363281 17.544922 C 22.392281 16.174922 21.736172 16.140422 21.326172 16.232422 C 20.967172 16.315422 20.547266 16.615938 20.447266 17.210938 C 20.409266 17.440937 20.392531 17.893219 20.519531 19.574219 C 20.457531 19.592219 20.39675 19.607187 20.34375 19.617188 C 20.28575 19.574187 20.211156 19.512703 20.160156 19.470703 C 20.046156 19.374703 19.938891 19.284797 19.837891 19.216797 C 18.799891 18.519797 18.12225 18.699375 17.40625 18.984375 C 17.26425 19.041375 17.104203 19.106109 16.908203 19.162109 C 16.306203 19.331109 15.888438 18.72225 15.773438 18.53125 C 15.683437 18.38125 15.602438 18.234844 15.523438 18.089844 C 15.207437 17.510844 14.848703 16.85275 14.095703 16.34375 C 13.420703 15.88875 12.781906 15.430312 12.128906 14.945312 C 11.981906 14.836313 11.840266 14.719516 11.697266 14.603516 C 11.339266 14.312516 10.932313 13.982375 10.445312 13.734375 C 9.9363125 13.475375 9.4660469 13.458312 9.1230469 13.445312 C 9.0150469 13.440312 8.8558281 13.434484 8.7988281 13.396484 L 8.703125 13.267578 C 8.296125 12.704578 7.9767344 12.293281 7.5527344 12.113281 C 7.3867344 12.043031 7.2223125 12.003734 7.0625 11.996094 z M 26.841797 13.027344 C 26.525547 13.045594 26.255703 13.147922 26.345703 13.357422 C 26.666703 14.103422 27.991328 13.709266 27.611328 13.197266 C 27.519328 13.073766 27.158047 13.009094 26.841797 13.027344 z M 17.160156 13.095703 C 17.091959 13.097613 17.021594 13.111172 16.949219 13.138672 C 16.618219 13.264672 16.149078 14.237031 16.330078 14.582031 C 16.540078 14.982031 17.287359 14.699547 16.818359 15.185547 C 16.489359 15.525547 15.879922 15.556391 16.544922 16.150391 C 17.047922 16.599391 17.788625 16.499078 18.390625 16.455078 C 18.819625 16.424078 19.947641 16.537391 20.181641 16.025391 C 20.316641 15.730391 19.817172 15.43375 19.701172 15.21875 C 19.504172 14.85575 19.608344 14.383297 19.402344 14.029297 C 19.334344 13.912297 19.277375 13.686062 19.109375 13.664062 C 18.940375 13.642062 18.842141 13.884906 18.744141 13.878906 C 18.589141 13.868906 18.667922 13.910734 18.419922 13.802734 C 18.020922 13.629484 17.637537 13.082332 17.160156 13.095703 z M 22.314453 13.171875 C 22.098063 13.188891 21.893359 13.328203 21.755859 13.658203 C 21.665859 13.496203 21.493266 13.391578 21.197266 13.392578 C 20.882266 13.393578 20.301687 14.007437 20.179688 14.273438 C 20.031688 14.595437 20.700953 16.112844 21.001953 15.839844 C 21.191953 15.667844 21.507406 15.176687 21.691406 14.679688 C 21.751406 14.939687 21.870172 15.169047 22.076172 15.248047 C 22.459172 15.394047 22.245141 15.186531 22.369141 15.019531 C 22.576141 14.741531 22.504359 14.635844 22.943359 14.464844 C 23.703109 14.170094 22.963625 13.120828 22.314453 13.171875 z M 29.078125 17.941406 C 28.9795 17.954109 28.894656 18.028406 28.847656 18.191406 C 28.694656 18.724406 29.158078 19.554063 29.580078 18.789062 C 29.782578 18.422313 29.374 17.903297 29.078125 17.941406 z M 28.564453 21.552734 C 27.779453 21.441734 27.687844 22.413172 27.839844 22.951172 C 28.041844 23.668172 28.300937 23.880109 28.835938 23.412109 C 29.083938 23.195109 29.122781 23.081453 29.425781 22.939453 C 29.547781 22.882453 30.013391 22.869109 30.025391 22.662109 C 30.036391 22.458109 28.807453 21.587734 28.564453 21.552734 z M 47.240234 30 C 46.894992 29.998564 47.019938 30.504656 47.023438 30.847656 C 47.029438 31.433656 47.031344 32.019469 47.027344 32.605469 C 47.022344 33.411469 47 34 48 34 C 48.222 34 48.25075 33.940859 48.59375 33.755859 C 49.05175 33.508859 49.495297 33.262781 49.779297 32.800781 C 49.944297 32.531781 50.218406 31.782062 49.691406 31.664062 C 49.266406 31.569063 48.586281 31.409719 48.238281 31.136719 C 47.903281 30.873719 47.862922 30.177203 47.419922 30.033203 C 47.349672 30.010328 47.289555 30.000205 47.240234 30 z"/></svg>