<svg xmlns="http://www.w3.org/2000/svg" viewBox="0 0 32 32"><path d="M 16 3 C 9.7062288 3 4.9257814 8.3203125 4.9257812 8.3203125 L 6.3925781 9.6796875 C 6.3925781 9.6796875 7.6821097 8.357367 9.6425781 7.1171875 L 3.3222656 23.960938 C 3.1262845 24.258167 3 24.59924 3 25 C 3 25.954654 3.688983 26.589182 4.4335938 27.029297 C 5.1782044 27.469411 6.1276435 27.805837 7.2714844 28.091797 C 9.5591661 28.663717 12.618736 29 16 29 C 19.381264 29 22.440834 28.663717 24.728516 28.091797 C 25.872356 27.805837 26.821795 27.469411 27.566406 27.029297 C 28.311017 26.589182 29 25.954654 29 25 C 29 24.595573 28.871023 24.252205 28.671875 23.953125 L 22.244141 7.0507812 C 24.266548 8.3101403 25.607422 9.6796875 25.607422 9.6796875 L 27.074219 8.3203125 C 27.074219 8.3203125 24.692467 5.6832672 21.085938 4.1230469 C 21.082859 4.1181311 21.081218 4.1123279 21.078125 4.1074219 L 21.066406 4.1152344 C 19.561303 3.4665032 17.849288 3 16 3 z M 16 5 C 17.28617 5 18.531412 5.2949739 19.675781 5.7363281 C 19.881348 6.2167035 20 6.7423866 20 7.3027344 C 20 9.523109 18.220375 11.302734 16 11.302734 C 13.779625 11.302734 12 9.523109 12 7.3027344 C 12 6.7433402 12.113146 6.2175898 12.318359 5.7382812 C 13.464318 5.2956859 14.711659 5 16 5 z M 16 6.5 C 15.172 6.5 14.5 7.172 14.5 8 C 14.5 8.828 15.172 9.5 16 9.5 C 16.828 9.5 17.5 8.828 17.5 8 C 17.5 7.172 16.828 6.5 16 6.5 z M 10.675781 10.054688 C 11.677327 11.979793 13.68936 13.302734 16 13.302734 C 18.276044 13.302734 20.26496 12.020901 21.28125 10.142578 L 25.886719 22.257812 C 25.517858 22.135765 25.150924 22.013805 24.728516 21.908203 C 22.440834 21.336283 19.381264 21 16 21 C 12.618736 21 9.5591661 21.336283 7.2714844 21.908203 C 6.841956 22.015585 6.4679008 22.139239 6.09375 22.263672 L 10.675781 10.054688 z M 16 23 C 19.246153 23 22.186723 23.335743 24.242188 23.849609 C 25.26992 24.106542 26.078973 24.415644 26.548828 24.693359 C 26.765573 24.82147 26.861307 24.914252 26.919922 24.974609 L 26.935547 25.013672 C 26.879116 25.072891 26.774663 25.173159 26.548828 25.306641 C 26.078973 25.584356 25.26992 25.893458 24.242188 26.150391 C 22.186723 26.664257 19.246153 27 16 27 C 12.753847 27 9.8132765 26.664257 7.7578125 26.150391 C 6.7300805 25.893458 5.9210272 25.584356 5.4511719 25.306641 C 5.224062 25.172403 5.1186087 25.070749 5.0625 25.011719 L 5.0761719 24.976562 C 5.1343235 24.916425 5.2324286 24.822651 5.4511719 24.693359 C 5.9210272 24.415644 6.7300805 24.106542 7.7578125 23.849609 C 9.8132765 23.335743 12.753847 23 16 23 z"/></svg>