<svg xmlns="http://www.w3.org/2000/svg" viewBox="0 0 48 48"><path fill="#546e7a" d="M21,26c-3.6,4-9,7-13.5,7C4.8,33,3,31.136,3,27.67V18h18V26z"/><path fill="#263238" d="M17.4,25.4c-2.34,2.2-5.85,3.85-8.775,3.85c-1.755,0-2.925-1.025-2.925-2.931V21h11.7V25.4z"/><rect width="2" height="14" x="21" y="19" fill="#90a4ae" transform="rotate(-22.993 22.002 26.002)"/><rect width="14" height="2" x="24" y="25" fill="#90a4ae" transform="rotate(-67.007 31.001 26.001)"/><path fill="#757575" d="M28.828,37h-4.656C23.525,37,23,36.475,23,35.828v-3.656C23,31.525,23.525,31,24.172,31h4.656 C29.475,31,30,31.525,30,32.172v3.656C30,36.475,29.475,37,28.828,37z"/><path fill="#546e7a" d="M36.479,27.314c-8.965,0-21.368-2.236-30.775-4.057C2.967,22.727,1,20.381,1,17.654v0 c0-2.72,1.967-5.063,4.695-5.601C16.38,9.946,26.419,8,36.479,8C42.208,8.294,47,12.076,47,17.657v0 C47,23.238,42.208,27.02,36.479,27.314z"/><rect width="2" height="2" x="23" y="33" fill="#424242"/><rect width="2" height="2" x="28" y="33" fill="#424242"/><path fill="#eceff1" d="M35,15c-0.968,0.547-1.948,0.813-2.969,0.962C32.136,14.973,32.477,13.985,33,13h-4 c0.547,0.968,0.813,1.948,0.962,2.969C28.973,15.864,27.985,15.523,27,15v4c0.968-0.547,1.948-0.813,2.969-0.962 C29.864,19.027,29.523,20.015,29,21h4c-0.547-0.968-0.813-1.948-0.962-2.969C33.027,18.136,34.015,18.477,35,19V15z"/><path fill="#455a64" d="M41.073,23.726c-10.445,0.548-25.037-1.299-36.112-2.846c-1.468-0.205-2.758-0.874-3.762-1.826 c0.543,2.094,2.254,3.766,4.505,4.202c9.406,1.821,21.809,4.057,30.774,4.057c3.816-0.196,7.207-1.945,9.052-4.737 C44.157,23.164,42.654,23.562,41.073,23.726z"/><path fill="#263238" d="M4.5,17h16c1.381,0,2.5-1.119,2.5-2.5v0c0-1.381-1.119-2.5-2.5-2.5h-16C3.119,12,2,13.119,2,14.5v0 C2,15.881,3.119,17,4.5,17z"/></svg>