<svg xmlns="http://www.w3.org/2000/svg" width="512" height="512" viewBox="0 0 512 512"><path fill="#71C598" d="M320.2,227.8c-21.4-7.2-46.5-4.2-66,6.7c-17.6,9.8-32,26.3-29.3,46.5c1.1,8.7,3.8,17.5,7.8,25.4c2.6,5.2,7.5,13.5,14.4,13c2.3-0.2,4,0.8,5,2.3c35.7,13.4,85.3-1.4,99.2-38.3C360.4,259.1,343.9,235.7,320.2,227.8z"/><path fill="#EF4823" d="M375.9,100.5c-1-1.4-2.1-2.8-3.1-4.2c-2.1-2.7-4.1-5.5-6.4-8c-7.1-7.7-17.5-12.5-25.6-19.2c-13.8-11.6-24.4-28.9-41-36.8c-1.1,0.2-2.3,0-3.5-0.8c-13.4,9.8-22,26-33.2,38.1c-11,11.8-22.3,24-35.3,33.7h22.5c2.3,0,3.9,1.1,4.9,2.6h4c0,0.2,0.1,0.4,0.1,0.6c0.7,3.6,1.9,7.6,1.8,11.3c-0.1,2.6-0.4,5.2-0.6,7.8c-0.1,1.4-0.2,2.8-0.1,4.2c0,0,0,0.1,0,0.1c1.7,2.1,2.2,5.2,0.1,7.6c1,4.4-3.1,9.4-7.9,6.4c-1.2-0.8-5,0.3-6.5,0.6c-3.4,0.6-6.9,1.2-10.4,1.5c-6.2,0.6-12.4,0.8-18.7,0.7c-11,0-22.1-0.9-33.1-0.7c-9.3,0.1-19.4,1.1-26.9,6.9c-7.7,5.8-11.6,14.9-13.1,24.1c-2.2,14.4-0.4,29.3-0.2,43.8c0.2,16.7,0.3,33.4,1.4,50c1,16.8,3.3,33.5,3.8,50.4c0.4,15.4-2.1,31-0.6,46.3c5.4,55.5,73.5,38.1,112.3,44.9c5.3,0.9,5.7,6.9,2.7,9.7c-3.8,10.9-1,24.8,0.4,35.7c1.1,8.6-0.3,21.6,9.1,25.7c9,3.9,19.9,2.7,29.4,1.9c4.9-0.4,9.8-1.1,14.7-1.1c8,0,15.9-0.1,23.5-2.8c0.3-0.1,0.5-0.2,0.8-0.2c1.5-7.2-2.5-15.7-2.5-22.8c0-12.7,0-25.4,0-38.1c0-24,0.8-48,1-72c-19.4,10.6-41.4,15.4-63.9,12.7c-22-2.6-43-10.9-59.5-25.5c-15.9-14.2-27.9-33.1-30.9-54.1c-3.1-21.6,3.8-43.5,18.8-59.8c33.5-36.3,88.5-44,133.6-26.1c0-1.6,0-3.1-0.1-4.3c-0.6-11.9-0.8-23.8-1-35.7c-0.2-15.5-0.3-31-0.3-46.5c-1.5-3.3-0.2-7.9,4.5-7.9c7.5-0.1,14.9-1,22.3-1.1c4.1-0.1,8.6-0.1,12.7,0.7C376,100.7,375.9,100.6,375.9,100.5z"/><path d="M322.5,216.7c-22.1-6.9-46.5-4.7-67.5,4.7c-24,10.8-44.8,32.3-42,59.6c1.1,11.3,4.9,22.4,10.2,32.4c4.2,7.9,11.2,15.9,20.5,17.2c25.8,11.2,55.5,9.3,80.4-3.3c22.6-11.5,41-33,41.5-58.6C366,243.9,345.5,223.9,322.5,216.7z M252.1,321.7c-1-1.4-2.7-2.4-5-2.3c-7,0.5-11.8-7.8-14.4-13c-4-7.9-6.7-16.7-7.8-25.4c-2.7-20.2,11.8-36.7,29.3-46.5c19.6-10.9,44.6-13.9,66-6.7c23.7,7.9,40.2,31.3,31.1,55.6C337.4,320.2,287.8,335.1,252.1,321.7z"/><path d="M387.9,98.8c-0.7-2.5-3-5-4.5-7c-2.4-3.3-5-6.5-7.6-9.6c-7.3-8.6-18-13.6-26.6-20.8c-16-13.4-28.2-33.7-48.6-41c-1.3-0.5-2.6-0.5-3.7-0.2c-1.5-0.6-3.3-0.6-5,0.6c-14.6,9.7-23.9,26.2-35.2,39.1c-13.4,15.3-28.4,31-46.1,41.2c-4,2.3-2.9,6.9,0,9.1c0.6,2.3,2.6,4.4,5.7,4.4H249c0.2,1.1,0.3,2.2,0.4,3.3c0,0.3,0,0.4,0.1,0.6c0,0.1,0,0.4-0.1,0.7c-0.4,4.4-1,8.9-0.5,13.3c-3.4,0.4-7,1.4-9.8,1.8c-8.9,1.3-18,1.3-27,1.2c-13.5-0.1-27.4-1.8-40.9,0.2c-12.8,1.9-24.3,8.2-31.1,19c-7.2,11.3-8.7,24.6-8.7,37.6c0.1,15.8,0.8,31.6,1.1,47.4c0.3,16.8,0.9,33.5,2.6,50.2c1.7,16.7,2.9,33.6,2.2,50.4c-0.6,14.6-2,28.8,2.3,43c6.9,22.8,29.2,33.6,51.8,36.7c19.9,2.7,40.3,0.4,60.2,2.7c-2.6,11.7-0.6,24.7,0.9,36.2c1.5,12.1,0.9,25.7,12.1,33.1c9.7,6.4,22.9,6,34.1,5.2c5.5-0.4,11-1,16.5-1.4c10-0.7,19.4-0.1,29.1-3.4c1.8-0.6,2.9-1.9,3.4-3.3c1.9-0.4,3.7-1.7,4.4-4c2.5-7.8-1.1-17.2-1.9-25.1c-1.2-12.5-0.1-25.7-0.1-38.3c0-26.8,1-53.6,1-80.4c3.7-4.5-2.2-12-7.9-8.2c-12,8.1-25.1,14.1-39.6,16.5c-14.2,2.4-28.6,0.9-42.5-2.5c-21.4-5.3-40.1-19.3-52.2-37c-11.7-17.1-15.8-38.2-9.5-57.9c7.3-23,29.9-39.7,52.2-47.9c29.3-10.9,62.5-7.7,90.2,5.8c1.2,0.6,2.3,0.7,3.3,0.6c4.9,0.5,7.2-4.9,5.4-8.4c-0.2-1.3-0.4-2.7-0.5-4c-0.4-4.2-0.6-8.3-0.8-12.5c-0.5-11.7-0.7-23.4-0.8-35.1c-0.2-12.7-0.2-25.4-0.2-38.1c3.9-0.2,7.8-0.5,11.8-0.7c5.3-0.3,12.2-1.1,17.1,1.4c5.1,2.6,9.3-3.1,7.7-7.3C387,104.5,388.8,102,387.9,98.8z M363.3,100.1c-7.5,0.1-14.9,1-22.3,1.1c-4.6,0-6,4.6-4.5,7.9c0,15.5,0.1,31,0.3,46.5c0.2,11.9,0.4,23.8,1,35.7c0.1,1.2,0.1,2.7,0.1,4.3c-45.1-17.9-100.1-10.2-133.6,26.1c-15,16.3-22,38.1-18.8,59.8c3.1,21,15,39.9,30.9,54.1c16.5,14.6,37.5,22.9,59.5,25.5c22.5,2.7,44.5-2.1,63.9-12.7c-0.2,24-1,48-1,72c0,12.7,0,25.4,0,38.1c0,7.2,4,15.7,2.5,22.8c-0.3,0.1-0.5,0.1-0.8,0.2c-7.6,2.6-15.5,2.8-23.5,2.8c-4.9,0-9.8,0.7-14.7,1.1c-9.5,0.8-20.4,2-29.4-1.9c-9.5-4.1-8.1-17.1-9.1-25.7c-1.4-10.9-4.2-24.9-0.4-35.7c3-2.8,2.6-8.8-2.7-9.7c-38.8-6.8-106.9,10.6-112.3-44.9c-1.5-15.3,1.1-30.9,0.6-46.3c-0.5-16.9-2.7-33.6-3.8-50.4c-1-16.6-1.1-33.3-1.4-50c-0.2-14.5-2-29.4,0.2-43.8c1.4-9.2,5.3-18.3,13.1-24.1c7.6-5.7,17.7-6.7,26.9-6.9c11-0.2,22.1,0.7,33.1,0.7c6.2,0,12.5-0.2,18.7-0.7c3.5-0.3,6.9-0.9,10.4-1.5c1.5-0.3,5.3-1.4,6.5-0.6c4.8,3,8.8-2.1,7.9-6.4c2-2.4,1.5-5.6-0.1-7.6c0,0,0-0.1,0-0.1c0-1.4,0-2.8,0.1-4.2c0.2-2.6,0.5-5.2,0.6-7.8c0.1-3.7-1.1-7.6-1.8-11.3c0-0.2-0.1-0.4-0.1-0.6h-4c-1-1.5-2.6-2.6-4.9-2.6h-22.5c13.1-9.7,24.4-21.9,35.3-33.7c11.2-12,19.8-28.2,33.2-38.1c1.1,0.8,2.3,1,3.5,0.8c16.6,7.9,27.2,25.2,41,36.8c8,6.7,18.5,11.5,25.6,19.2c2.3,2.5,4.3,5.3,6.4,8c1.1,1.4,2.1,2.8,3.1,4.2c0.1,0.1,0.1,0.2,0.2,0.2C371.9,100,367.4,100,363.3,100.1z"/></svg>