<svg xmlns="http://www.w3.org/2000/svg" viewBox="0 0 24 24"><path d="M 12 0 C 5.898438 0 1 2.199219 1 5 C 1 5.75 1.367188 6.460938 2 7.09375 L 2 9.90625 C 1.398438 10.507813 1 11.199219 1 12 C 1 12.800781 1.398438 13.394531 2 14.09375 L 2 17 C 1.398438 17.601563 1 18.292969 1 19.09375 C 1 21.894531 5.898438 24.09375 12 24.09375 C 18.101563 24.09375 23 21.894531 23 19.09375 C 23 18.394531 22.601563 17.699219 22 17 L 22 14.09375 C 22.601563 13.492188 23 12.800781 23 12 C 23 11.199219 22.601563 10.605469 22 9.90625 L 22 7.09375 C 22.632813 6.460938 23 5.75 23 5 C 23 2.199219 18.101563 0 12 0 Z M 12 2 C 17.800781 2 21 4.101563 21 5 C 21 5.898438 17.800781 8 12 8 C 6.199219 8 3 5.898438 3 5 C 3 4.101563 6.199219 2 12 2 Z M 8 4 C 6.894531 4 6 4.449219 6 5 C 6 5.550781 6.894531 6 8 6 C 9.105469 6 10 5.550781 10 5 C 10 4.449219 9.105469 4 8 4 Z M 12 12 C 12 12 15 15.386719 15 17.1875 C 15 18.789063 13.699219 20 12 20 C 10.300781 20 9 18.789063 9 17.1875 C 9 15.289063 12 12 12 12 Z M 11.6875 13.3125 C 10.988281 14.710938 9.8125 16.09375 9.8125 17.09375 C 9.8125 17.695313 10.09375 18.59375 11.09375 19.09375 C 10.894531 18.695313 10.6875 17.90625 10.6875 17.40625 C 10.6875 16.105469 11.585938 14.011719 11.6875 13.3125 Z"/></svg>