<svg xmlns="http://www.w3.org/2000/svg" width="512" height="512" viewBox="0 0 512 512"><path fill="#D6E5E5" d="M339.6,377.9c-4-4.2-8.1-8.2-11.8-12.7c-9.3-11.2-17.1-23.5-25.9-35.1c-10.7-14-21.8-27.7-32.9-41.4c0,0.1,0,0.2,0,0.2c-0.2,2.8-3,4.2-5.2,5.3c-3.2,1.6-6,4.1-8.9,6.3c-6.7,5.1-13.8,9.6-20.7,14.4c-15.1,10.3-30.7,19.7-45.8,30c-2.1,1.5-4.3,1-5.8-0.3c-0.8,1.2-2,2-3.6,2.1c-8.9,0.5-15.2-7.5-14.2-14.8c-3.1-0.9-5.9-2.4-7.9-4.8c-6.9,2.3-13.1-2.7-14.3-10.2c-0.2-1-0.2-2-0.1-2.9c-5.1-7.6,1.3-17.4,10.5-18.3c-0.4-2.2,0.4-4.6,3-5.8c14.1-6.3,26-16.4,38.8-24.9c11.7-7.8,25-13.9,35.1-23.7c0.6-0.5,1.2-0.9,1.8-1.1c-12.7-17.7-24.8-35.9-37.5-53.6c-17.1-24-34.6-47.8-51.7-71.8c-12.7,10.5-24.3,22.5-33.4,36C99.3,165.1,93,181,88.6,197.6c-0.4,2.8-1.2,5.5-2,8.2c-0.3,1.3-0.6,2.7-0.8,4c-0.6,2.2-1.1,4.4-1.6,6.7c-0.6,4-1.1,8-1.7,12c-0.2,1.2-0.7,2.1-1.3,2.7c-3.9,32.4-3.4,66.1,5.4,97.6c8.7,30.9,25.4,61.1,53.1,78.8c41.2,26.5,95.8,26.5,141.3,12.4c23.4-7.3,45-18.1,64.4-32.1c0.8,0.7,1.5,1.3,2.3,1.9C347.1,385.4,342.3,380.7,339.6,377.9z M139.8,272.4c4.3-5,4.5-7.3-1.6-9.9c-5.6-2.4-11.7-3.5-17.1-6.3c-5.7-3-12.2-9.9-10.6-16.9c1.5-6.8,7.6-10.8,13.4-13.6c3.4-1.7,6.9-3.1,10.5-4.3c3.3-1.2,7-2,9.8-4.2c3.1-2.5-0.6-4.6-3.3-6.4c-3.4-2.4-7-4.3-10.5-6.4c-7.9-4.7-16.4-15.9-10.2-25.2c2.8-4.2,5.9-7,10.3-9.3c3-1.6,7.1-2.7,9.4-5.3c4.2-4.9,11.8,1.7,7.5,6.6c-4,4.6-20.2,7.9-19.2,15.5c1.2,8.9,15.2,12.8,21.3,18c6.1,5.3,8.9,12.8,2.4,19.1c-5.6,5.4-13.9,6.7-20.8,9.7c-2.5,1.1-13,5.2-10.2,9.4c3.7,5.4,10.1,6.6,16,8.6c5.1,1.7,12.2,4,14.8,9.2c3.5,6.8,0.4,13.1-4.3,18.5C143.1,283.9,135.6,277.3,139.8,272.4z"/><path fill="#FFF" d="M331,224.5c-0.4,1.2-0.2-1.1-0.3-1.4c-0.2-0.7-0.4-1.3-0.6-2c-0.6-1.6-1.2-3.2-1.9-4.8c-1.6-3.4-3.4-6.7-5.5-9.8c-4.5-6.8-10.8-13.3-19.6-10.1c-0.5,0.2-1,0.3-1.5,0.3c-4.6,3.6-9.1,7.3-13.4,11.3c-0.2,0.2-0.4,0.4-0.7,0.5c1,1.4,1.9,2.8,2.9,4.2c7.1,10.6,13.2,21.9,20.5,32.4c5-5.9,11.6-9.8,18.4-13.3c1-0.5,2-1.1,3-1.6C331,228.9,330.2,226.8,331,224.5z"/><path fill="#D6E5E5" d="M158,302.7c-0.2,0.5-0.5,1-0.8,1.4c1.8,0.7,3.1,2.3,3.3,4.3c0,0.1,0,0.1,0,0.2c0.5,0,1.1,0,1.6,0C160.8,306.6,159.4,304.6,158,302.7z"/><path fill="#FFF" d="M246.6,260.7c-3.2-4.1-6.3-8.3-9.4-12.6c-11.3,10.9-25.6,17.5-38.4,26.3c-10.9,7.5-21.4,15.6-33.1,21.8c8.6,12.2,16.6,24.9,17.7,39.9c13.9-9.5,28.3-18,42.2-27.5c6.3-4.4,13-8.4,19.2-13l10.5-7.9c1-0.8,2-1.3,3.1-1.9c0.9-1.8,2.7-3.2,5.2-3c0.3,0,0.5,0,0.8,0.1C258.3,275.5,252.4,268.1,246.6,260.7z"/><path fill="#D6E5E5" d="M166.8 316.4c-.4 1.6-1.2 3.2-2.2 4.6 1.4.9 3.4 1.4 5.2 1.6C168.9 320.5 167.9 318.4 166.8 316.4zM429 190.4c-8.7-24.7-25.5-46-43.9-64.3-18.6-18.5-40-34.5-63.9-45.4-23.2-10.6-48.9-16.7-74.6-14.3-16.3 1.5-32.2 6.3-47.4 13 1.9 3.2 5 6.3 7 8.7 3.3 4 6.4 8.3 9.6 12.4 8.6 11.2 15.5 23.9 23.1 35.8 8.3 13.1 16.7 26.2 25.4 39.1 5.7 8.5 11.8 16.7 17.7 25 21.9-19.6 47.2-35.7 72.5-50.5 9.3-5.5 18.8-6.7 27.1 1.4 8.9 8.6 13.4 20.4 15.4 32.5h.9c-.4 4.2-.9 8.4-1.6 12.6-.1.4-.2.9-.4 1.3-11.8 10.3-24 20.3-37.2 28.8-7.2 4.7-14.7 9.1-22.3 13-6.6 3.4-13.3 6.8-18.1 12.6-.4.5-.8.9-1.3 1.1 8.3 10.6 17.3 20.6 26.1 30.9 9.3 10.9 17.1 22.4 25.2 34.1 3.8 5.5 7.8 10.7 11.4 16.3 2.8 4.3 5.5 8.8 8.8 12.8 3.7-4.5 7.3-9.2 10.7-14C427.6 292.6 446.1 239.3 429 190.4z"/><path fill="#EF4823" d="M468,155.8c-21.3-43.4-61.6-77.5-104.2-99C321,35.1,271.5,23.7,223.6,31.3C144.7,43.8,68.3,101.6,45.7,179.2c0,0.9-0.2,1.7-0.7,2.6c-0.4,1.4-0.8,2.9-1.1,4.3c-0.5,1-1,2-1.4,3.1c-0.1,0.9-0.3,1.9-0.4,2.7c-0.9,4.1-2,8.2-2.7,12.3c-1.4,7.7-1.1,15.7-3.8,23c-0.2,2.1-0.5,4.2-0.8,6.3c0,0.3,0,0.5,0,0.7c-0.5,4.4-0.9,8.8-1.3,13.2c-0.8,9.2-1.2,18.4-1.1,27.6c0.3,18.1,2.4,36.2,6.9,53.7c8.7,33.3,25.5,64.8,52,87.3c18.2,15.5,39.5,25.7,62.4,32.3c25,7.3,51,11.4,77.1,11.5C282.3,460,334,446,376.3,416.2C454.8,361,513.9,249.3,468,155.8z M357.4,392.7c-0.2,3.7-3.5,4.6-6.3,3.5c-7.1,5.1-14.4,9.7-22,13.9c-42.9,23.5-94.1,35.3-142.6,25.9c-22.8-4.4-45-13-63-28c-16.5-13.8-29.1-31.7-37.7-51.3c-18.5-42.2-20-90.2-13.5-135.2c0.2-1.2,0.7-2.1,1.4-2.8c0.5-3.6,1-7.1,1.9-10.6c0.3-0.9,0.6-1.9,0.9-2.8c0.7-3.4,1.5-6.8,2.4-10.1c0,0,0,0,0-0.1c0-1.1,0.3-2.1,0.8-2.9c4.2-15.2,10-29.8,18.6-43.1c11.9-18.5,27.8-34.5,45.3-48c0.2,0.5,0.5,1.1,0.7,1.6c1.3,0.1,2.6,0.7,3.5,2.1c18.7,26.6,38.1,52.8,57,79.3c17.9,25.1,34.7,50.9,53.7,75.2c9.5,12.1,19.2,24.1,28.9,36.1c9.6,11.9,19.9,23.7,28.4,36.4c8.1,12,16.4,24.3,26.7,34.6C349.5,373.6,358.1,381.8,357.4,392.7z M429,301.3c-10,21.8-23.4,42.3-39.5,60.4c-0.7-1-1.5-1.9-2.3-2.8c-1,0-2-0.5-3-1.5c-4.7-4.8-8.3-10.4-12-16c-3.6-5.6-7.5-10.8-11.3-16.2c-8.5-12.2-16.5-24.3-26.2-35.6c-9.8-11.5-20.1-22.7-29.2-34.9c-9.3-12.5-16.7-26.6-25.5-39.5c-9-13.1-18.6-25.8-27.4-39.1c-8.9-13.4-17.6-27.1-26.2-40.7c-7.4-11.7-14.6-23.4-22.8-34.6c-5.5-7.5-13.5-14.4-15.8-23.7c-0.6-0.9-1.3-1.7-1.9-2.6c0.7-0.3,1.4-0.7,2-1c0.8-1.6,2.5-2.8,4.2-2.8h1c0.3,0,0.5,0,0.8,0.1c11.8-5.3,24.1-9.5,36.6-12.1c24.5-5,50.1-3.1,73.7,4.7c24.6,8.1,47.4,21,67.5,37.3c19.9,16.1,38.5,35.4,52.4,57.1c13.6,21.3,21.4,46.1,21.4,71.4C445.5,254.2,439.4,278.7,429,301.3z"/><path fill="#F6851F" d="M387.2,190.5c-2.1-2.1-1.8-4.8-0.5-6.7c-1.8-10-5.7-20.7-13.9-26.7c-7.7-5.6-16.8,4-23.2,7.8c-11.7,7-23.4,14.2-34.7,22.1c6.1,2.2,11.4,7.1,15.3,13c4.5,6.7,11.4,16.9,10.4,25.8c3.1-1.8,6.2-3.7,9.3-5.6c13.5-8.5,25.9-18.4,38-28.8C387.7,191,387.5,190.8,387.2,190.5z"/><path d="M487.3,179.5v97C496.1,244.2,496.2,210.8,487.3,179.5z"/><path d="M467.6,134.9C442.4,94.5,401.7,63.3,359,43.3C315.7,23.2,266.1,13.8,218.7,22c-81.8,14.2-160,74.7-182.9,155.6c-3.3,5.5-3.8,13.1-5.2,19.2c-1,4.3-1.7,8.7-2.3,13.1c-0.1,0.4-0.1,0.9-0.2,1.3c-0.1,0.3-0.2,0.5-0.2,0.8c-0.8,4.2-1.5,8.4-2.1,12.6c0,0.1-0.1,0.1-0.1,0.2c-0.5,1.2-0.6,2.3-0.4,3.2c-1,8.1-1.7,16.2-2.3,24.3c-0.8,11.4-0.9,22.9-0.3,34.3c1.3,22.3,5.6,44.5,13.3,65.5c15.3,41.8,45.5,76.5,86.1,95.3c23.1,10.6,48.8,16.7,73.9,20c25.5,3.3,51.5,3.1,77-0.6c50.9-7.4,98.5-29.7,136.1-64.8c36.4-33.9,65-77.6,78.1-125.8v-97C483,164,476.4,149,467.6,134.9z M376.3,416.2C334,446,282.3,460,230.8,459.9c-26.1-0.1-52.1-4.2-77.1-11.5c-22.9-6.7-44.2-16.8-62.4-32.3c-26.5-22.5-43.3-54-52-87.3c-4.6-17.5-6.6-35.6-6.9-53.7c-0.2-9.2,0.2-18.4,1.1-27.6c0.4-4.4,0.8-8.8,1.3-13.2c0-0.2,0-0.5,0-0.7c0.3-2.1,0.6-4.2,0.8-6.3c2.7-7.3,2.4-15.4,3.8-23c0.8-4.1,1.8-8.2,2.7-12.3c0.2-0.8,0.3-1.7,0.4-2.7c0.4-1,0.9-2.1,1.4-3.1c0.4-1.4,0.7-2.9,1.1-4.3c0.5-0.9,0.8-1.8,0.7-2.6c22.6-77.6,99-135.5,177.9-147.9c47.9-7.6,97.3,3.8,140.1,25.5c42.6,21.5,82.8,55.7,104.2,99C513.9,249.3,454.8,361,376.3,416.2z"/><path d="M424.1 157.8c-13.8-21.6-32.5-40.9-52.4-57.1-20.1-16.3-42.9-29.2-67.5-37.3-23.7-7.8-49.3-9.7-73.7-4.7-12.5 2.6-24.8 6.8-36.6 12.1-.3 0-.5-.1-.8-.1h-1c-1.7 0-3.4 1.3-4.2 2.8-.7.3-1.4.7-2 1 .6.9 1.3 1.7 1.9 2.6 2.3 9.3 10.3 16.2 15.8 23.7 8.2 11.1 15.4 22.8 22.8 34.6 8.6 13.6 17.3 27.3 26.2 40.7 8.8 13.3 18.4 25.9 27.4 39.1 8.8 12.9 16.2 27 25.5 39.5 9.1 12.2 19.3 23.4 29.2 34.9 9.7 11.3 17.7 23.4 26.2 35.6 3.8 5.4 7.7 10.6 11.3 16.2 3.6 5.6 7.3 11.2 12 16 .9 1 2 1.4 3 1.5.8.9 1.5 1.8 2.3 2.8 16.1-18.1 29.5-38.6 39.5-60.4 10.4-22.6 16.5-47.2 16.5-72.1C445.5 203.8 437.7 179.1 424.1 157.8zM311 245.2c-7.3-10.5-13.4-21.8-20.5-32.4-.9-1.4-1.9-2.8-2.9-4.2.2-.2.5-.3.7-.5 4.3-3.9 8.8-7.7 13.4-11.3.5 0 1-.1 1.5-.3 8.7-3.2 15 3.3 19.6 10.1 2.1 3.1 3.9 6.4 5.5 9.8.7 1.6 1.3 3.2 1.9 4.8.2.7.4 1.3.6 2 .1.3-.1 2.6.3 1.4-.9 2.3 0 4.4 1.4 5.8-1 .5-2 1.1-3 1.6C322.6 235.4 316 239.2 311 245.2zM387.2 190.5c.3.3.5.5.8.8-12.1 10.4-24.5 20.3-38 28.8-3.1 1.9-6.2 3.8-9.3 5.6 1-8.9-5.9-19.1-10.4-25.8-3.9-5.9-9.2-10.7-15.3-13 11.2-7.9 22.9-15.1 34.7-22.1 6.3-3.8 15.5-13.3 23.2-7.8 8.2 6 12.2 16.7 13.9 26.7C385.4 185.6 385.1 188.4 387.2 190.5zM399.1 333.2c-3.4 4.8-7 9.5-10.7 14-3.3-4-6-8.5-8.8-12.8-3.6-5.6-7.6-10.8-11.4-16.3-8.1-11.7-15.9-23.2-25.2-34.1-8.7-10.3-17.7-20.3-26.1-30.9.5-.3.9-.7 1.3-1.1 4.8-5.8 11.5-9.2 18.1-12.6 7.7-4 15.1-8.4 22.3-13 13.2-8.5 25.3-18.5 37.2-28.8.1-.4.2-.9.4-1.3.6-4.2 1.2-8.4 1.6-12.6h-.9c-2-12.1-6.5-23.8-15.4-32.5-8.3-8-17.8-6.8-27.1-1.4-25.3 14.8-50.5 30.9-72.5 50.5-5.9-8.3-12-16.5-17.7-25-8.7-12.9-17.1-26-25.4-39.1-7.6-11.9-14.4-24.6-23.1-35.8-3.2-4.1-6.2-8.4-9.6-12.4-2-2.5-5.1-5.5-7-8.7 15.1-6.7 31.1-11.4 47.4-13 25.6-2.4 51.3 3.7 74.6 14.3 23.9 10.9 45.3 27 63.9 45.4 18.5 18.3 35.3 39.6 43.9 64.3C446.1 239.3 427.6 292.6 399.1 333.2zM342.4 366.5c-10.3-10.2-18.7-22.5-26.7-34.6-8.5-12.7-18.8-24.5-28.4-36.4-9.7-12-19.4-24-28.9-36.1-19-24.3-35.8-50.1-53.7-75.2-18.8-26.5-38.2-52.7-57-79.3-1-1.4-2.2-2-3.5-2.1-.2-.5-.5-1.1-.7-1.6-17.5 13.5-33.4 29.5-45.3 48-8.5 13.3-14.4 28-18.6 43.1-.5.8-.8 1.7-.8 2.9 0 0 0 0 0 .1-.9 3.3-1.7 6.7-2.4 10.1-.3 1-.6 1.9-.9 2.8-.9 3.4-1.5 7-1.9 10.6-.7.6-1.2 1.5-1.4 2.8-6.5 45-4.9 93 13.5 135.2 8.6 19.7 21.2 37.5 37.7 51.3 18 15 40.2 23.6 63 28 48.6 9.4 99.8-2.4 142.6-25.9 7.6-4.2 15-8.8 22-13.9 2.7 1.1 6 .2 6.3-3.5C358.1 381.8 349.5 373.6 342.4 366.5zM246.6 260.7c5.8 7.5 11.7 14.9 17.6 22.2-.2 0-.5-.1-.8-.1-2.5-.2-4.3 1.2-5.2 3-1.1.5-2 1.1-3.1 1.9l-10.5 7.9c-6.2 4.6-12.8 8.6-19.2 13-13.8 9.5-28.3 18.1-42.2 27.5-1.1-15-9.1-27.7-17.7-39.9 11.6-6.2 22.2-14.4 33.1-21.8 12.8-8.8 27.2-15.4 38.4-26.3C240.3 252.3 243.4 256.5 246.6 260.7zM169.8 322.6c-1.8-.2-3.9-.7-5.2-1.6 1-1.5 1.8-3.1 2.2-4.6C167.9 318.4 168.9 320.5 169.8 322.6zM345.3 387.8c-19.4 13.9-41.1 24.8-64.4 32.1C235.3 434 180.8 434 139.5 407.5c-27.7-17.7-44.4-47.9-53.1-78.8-8.8-31.5-9.3-65.2-5.4-97.6.7-.6 1.1-1.5 1.3-2.7.6-4 1.1-8 1.7-12 .5-2.2 1.1-4.4 1.6-6.7.3-1.3.6-2.7.8-4 .8-2.7 1.6-5.4 2-8.2C93 181 99.3 165.1 109 150.8c9.1-13.5 20.7-25.4 33.4-36 17 24.1 34.5 47.8 51.7 71.8 12.7 17.8 24.8 35.9 37.5 53.6-.6.2-1.2.6-1.8 1.1-10.2 9.8-23.5 15.9-35.1 23.7-12.7 8.5-24.7 18.5-38.8 24.9-2.5 1.1-3.4 3.6-3 5.8-9.2.9-15.6 10.7-10.5 18.3 0 .9 0 1.9.1 2.9 1.2 7.5 7.4 12.5 14.3 10.2 2 2.3 4.9 3.9 7.9 4.8-1 7.3 5.3 15.3 14.2 14.8 1.6-.1 2.8-.9 3.6-2.1 1.5 1.3 3.7 1.8 5.8.3 15-10.3 30.7-19.7 45.8-30 7-4.7 14-9.3 20.7-14.4 2.9-2.2 5.7-4.7 8.9-6.3 2.2-1.1 5-2.5 5.2-5.3 0-.1 0-.2 0-.2 11.1 13.7 22.2 27.4 32.9 41.4 8.8 11.6 16.6 23.9 25.9 35.1 3.7 4.5 7.8 8.5 11.8 12.7 2.6 2.8 7.5 7.5 8 11.8C346.8 389.1 346 388.4 345.3 387.8zM162.1 308.6c-.5-.1-1.1-.1-1.6 0 0-.1 0-.1 0-.2-.1-2-1.5-3.6-3.3-4.3.3-.4.6-.9.8-1.4C159.4 304.6 160.8 306.6 162.1 308.6z"/><path d="M136.7,251.3c-5.8-2-12.3-3.1-16-8.6c-2.8-4.2,7.7-8.3,10.2-9.4c6.9-3,15.2-4.3,20.8-9.7c6.5-6.3,3.7-13.8-2.4-19.1c-6-5.2-20.1-9.1-21.3-18c-1-7.6,15.2-10.9,19.2-15.5c4.3-4.9-3.3-11.5-7.5-6.6c-2.3,2.6-6.4,3.7-9.4,5.3c-4.5,2.3-7.5,5.1-10.3,9.3c-6.2,9.3,2.3,20.5,10.2,25.2c3.5,2.1,7.2,4,10.5,6.4c2.7,1.9,6.4,4,3.3,6.4c-2.8,2.2-6.5,3.1-9.8,4.2c-3.6,1.3-7.1,2.7-10.5,4.3c-5.8,2.9-12,6.8-13.4,13.6c-1.5,7.1,4.9,14,10.6,16.9c5.4,2.8,11.6,3.9,17.1,6.3c6.1,2.6,5.9,5,1.6,9.9c-4.2,4.9,3.3,11.5,7.5,6.6c4.7-5.4,7.8-11.7,4.3-18.5C148.9,255.3,141.8,253,136.7,251.3z"/></svg>