<svg xmlns="http://www.w3.org/2000/svg" viewBox="0 0 128 128"><path fill="#fff" d="M104,99H24c-5.5,0-10-4.5-10-10V39c0-5.5,4.5-10,10-10h80c5.5,0,10,4.5,10,10v50C114,94.5,109.5,99,104,99z"/><path fill="#9eb9d3" d="M54 55L38 39 14 39 14 55zM114 55L114 39 59 39 75 55z"/><path fill="#444b54" d="M114 92c-1.7 0-3-1.3-3-3V39c0-3.9-3.1-7-7-7H49c-1.7 0-3-1.3-3-3s1.3-3 3-3h55c7.2 0 13 5.8 13 13v50C117 90.7 115.7 92 114 92zM99 102H24c-7.2 0-13-5.8-13-13V39c0-1.7 1.3-3 3-3s3 1.3 3 3v50c0 3.9 3.1 7 7 7h75c1.7 0 3 1.3 3 3S100.7 102 99 102z"/><g><path fill="#444b54" d="M118,121c-0.8,0-1.6-0.3-2.1-0.9c-0.6-0.6-0.9-1.3-0.9-2.1c0-0.2,0-0.4,0.1-0.6c0-0.2,0.1-0.4,0.2-0.6c0.1-0.2,0.2-0.3,0.3-0.5c0.1-0.2,0.2-0.3,0.4-0.5c1.1-1.1,3.1-1.1,4.2,0c0.1,0.1,0.3,0.3,0.4,0.5c0.1,0.2,0.2,0.3,0.3,0.5c0.1,0.2,0.1,0.4,0.2,0.6c0,0.2,0.1,0.4,0.1,0.6c0,0.8-0.3,1.6-0.9,2.1C119.6,120.7,118.8,121,118,121z"/></g><g><path fill="#444b54" d="M108,111c-0.8,0-1.5-0.3-2.1-0.9l-98-98C6.7,11,6.7,9,7.9,7.9c1.2-1.2,3.1-1.2,4.2,0l98,98c1.2,1.2,1.2,3.1,0,4.2C109.5,110.7,108.8,111,108,111z"/></g></svg>