<svg xmlns="http://www.w3.org/2000/svg" viewBox="0 0 48 48"><path fill="#80d8ff" d="M42,35H6c-3.3,0-6-2.7-6-6v-9c0-3.3,2.7-6,6-6h36c3.3,0,6,2.7,6,6v9C48,32.3,45.3,35,42,35z"/><path fill="#2196f3" d="M42,33H6c-3.3,0-6-2.7-6-6v-7c0-3.3,2.7-6,6-6h36c3.3,0,6,2.7,6,6v7C48,30.3,45.3,33,42,33z"/><path fill="#80d8ff" d="M24,39l5-5H19L24,39z"/><path fill="#37474f" d="M16,28c-0.6,0-1-0.4-1-1v-6h-2v6c0,0.6-0.4,1-1,1s-1-0.4-1-1v-7c0-0.6,0.4-1,1-1h4c0.6,0,1,0.4,1,1 v7C17,27.6,16.6,28,16,28z"/><path fill="#37474f" d="M11 23h6v2h-6V23zM6 25H4c-.6 0-1-.4-1-1v-4c0-.6.4-1 1-1h2c1.7 0 3 1.3 3 3S7.7 25 6 25zM5 23h1c.6 0 1-.4 1-1s-.4-1-1-1H5V23z"/><path fill="#37474f" d="M7 28H4c-.6 0-1-.4-1-1v-3c0-.6.4-1 1-1h3c1.4 0 2.5 1.1 2.5 2.5C9.5 26.9 8.4 28 7 28zM5 26h2c.3 0 .5-.2.5-.5S7.3 25 7 25H5V26zM23 21h-4c-.6 0-1-.4-1-1s.4-1 1-1h4c.6 0 1 .4 1 1S23.6 21 23 21z"/><path fill="#37474f" d="M21 28c-.6 0-1-.4-1-1v-7c0-.6.4-1 1-1s1 .4 1 1v7C22 27.6 21.6 28 21 28zM30 21h-4c-.6 0-1-.4-1-1s.4-1 1-1h4c.6 0 1 .4 1 1S30.6 21 30 21z"/><path fill="#37474f" d="M28 28c-.6 0-1-.4-1-1v-7c0-.6.4-1 1-1s1 .4 1 1v7C29 27.6 28.6 28 28 28zM37 28h-4c-.6 0-1-.4-1-1s.4-1 1-1h4c.6 0 1 .4 1 1S37.6 28 37 28z"/><path fill="#37474f" d="M33 28c-.6 0-1-.4-1-1v-7c0-.6.4-1 1-1s1 .4 1 1v7C34 27.6 33.6 28 33 28zM44 28h-4c-.6 0-1-.4-1-1s.4-1 1-1h4c.6 0 1 .4 1 1S44.6 28 44 28zM44 21h-4c-.6 0-1-.4-1-1s.4-1 1-1h4c.6 0 1 .4 1 1S44.6 21 44 21zM44 25h-4c-.6 0-1-.4-1-1s.4-1 1-1h4c.6 0 1 .4 1 1S44.6 25 44 25z"/><path fill="#37474f" d="M40,28c-0.6,0-1-0.4-1-1v-7c0-0.6,0.4-1,1-1s1,0.4,1,1v7C41,27.6,40.6,28,40,28z"/></svg>