<svg xmlns="http://www.w3.org/2000/svg" viewBox="0 0 64 64"><radialGradient id="oTahcyYxf8qyxfl9U5_VCa" cx="36.833" cy="35.917" r="26" gradientUnits="userSpaceOnUse" spreadMethod="reflect"><stop offset="0" stop-color="#f4e9c3"/><stop offset=".219" stop-color="#f8eecd"/><stop offset=".644" stop-color="#fdf4dc"/><stop offset="1" stop-color="#fff6e1"/></radialGradient><path fill="url(#oTahcyYxf8qyxfl9U5_VCa)" d="M10,8L10,8c2.209,0,4-1.791,4-4v0c0-2.209-1.791-4-4-4h0C7.791,0,6,1.791,6,4v0 C6,6.209,7.791,8,10,8z"/><radialGradient id="oTahcyYxf8qyxfl9U5_VCb" cx="31.417" cy="29.917" r="28.77" gradientUnits="userSpaceOnUse" spreadMethod="reflect"><stop offset="0" stop-color="#f4e9c3"/><stop offset=".219" stop-color="#f8eecd"/><stop offset=".644" stop-color="#fdf4dc"/><stop offset="1" stop-color="#fff6e1"/></radialGradient><path fill="url(#oTahcyYxf8qyxfl9U5_VCb)" d="M7.5,64L7.5,64c1.933,0,3.5-1.567,3.5-3.5v0c0-1.933-1.567-3.5-3.5-3.5h0 C5.567,57,4,58.567,4,60.5v0C4,62.433,5.567,64,7.5,64z"/><radialGradient id="oTahcyYxf8qyxfl9U5_VCc" cx="32" cy="32" r="32" gradientUnits="userSpaceOnUse" spreadMethod="reflect"><stop offset="0" stop-color="#f4e9c3"/><stop offset=".219" stop-color="#f8eecd"/><stop offset=".644" stop-color="#fdf4dc"/><stop offset="1" stop-color="#fff6e1"/></radialGradient><path fill="url(#oTahcyYxf8qyxfl9U5_VCc)" d="M62,20.5L62,20.5c0-2.485-2.015-4.5-4.5-4.5H49c-2.209,0-4-1.791-4-4v0c0-2.209,1.791-4,4-4 h2c2.209,0,4-1.791,4-4v0c0-2.209-1.791-4-4-4L20,0c-2.209,0-4,1.791-4,4v0c0,2.209,1.791,4,4,4h2c1.657,0,3,1.343,3,3v0 c0,1.657-1.343,3-3,3H7.5C5.567,14,4,15.567,4,17.5v0C4,19.433,5.567,21,7.5,21H9c1.657,0,3,1.343,3,3v0c0,1.657-1.343,3-3,3H5 c-2.761,0-5,2.239-5,5v0c0,2.761,2.239,5,5,5h2.5c1.933,0,3.5,1.567,3.5,3.5v0c0,1.933-1.567,3.5-3.5,3.5H6c-2.209,0-4,1.791-4,4v0 c0,2.209,1.791,4,4,4h11.5c1.381,0,2.5,1.119,2.5,2.5v0c0,1.381-1.119,2.5-2.5,2.5h0c-1.933,0-3.5,1.567-3.5,3.5v0 c0,1.933,1.567,3.5,3.5,3.5h38c1.933,0,3.5-1.567,3.5-3.5v0c0-1.933-1.567-3.5-3.5-3.5H55c-1.105,0-2-0.895-2-2v0 c0-1.105,0.895-2,2-2h5c2.209,0,4-1.791,4-4v0c0-2.209-1.791-4-4-4h-3.5c-1.381,0-2.5-1.119-2.5-2.5v0c0-1.381,1.119-2.5,2.5-2.5 H57c2.209,0,4-1.791,4-4v0c0-2.209-1.791-4-4-4h-4.5c-1.933,0-3.5-1.567-3.5-3.5v0c0-1.933,1.567-3.5,3.5-3.5h5 C59.985,25,62,22.985,62,20.5z"/><linearGradient id="oTahcyYxf8qyxfl9U5_VCd" x1="32.5" x2="32.5" y1="10.999" y2="57" gradientUnits="userSpaceOnUse" spreadMethod="reflect"><stop offset="0" stop-color="#42d778"/><stop offset=".428" stop-color="#3dca76"/><stop offset="1" stop-color="#34b171"/></linearGradient><path fill="url(#oTahcyYxf8qyxfl9U5_VCd)" d="M51,53.5c0,1.933-1.567,3.5-3.5,3.5h-30c-1.933,0-3.5-1.567-3.5-3.5s1.567-3.5,3.5-3.5h30 C49.433,50,51,51.567,51,53.5z M19.828,41.738l28-11.478c1.295-0.531,2.15-1.783,2.172-3.183s-0.792-2.679-2.071-3.25l-28-12.522 c-1.762-0.791-3.834,0.001-4.624,1.766c-0.79,1.765,0.001,3.834,1.766,4.624l20.542,9.187l-20.441,8.38 c-1.789,0.733-2.644,2.777-1.911,4.566c0.555,1.354,1.861,2.173,3.24,2.173C18.943,42.001,19.393,41.917,19.828,41.738z"/></svg>