<svg xmlns="http://www.w3.org/2000/svg" width="512" height="512" viewBox="0 0 512 512"><path fill="#D6E5E5" d="M406.1,154.1c12.8-24.6,16.3-55.4-0.6-79.1c-14.6-20.5-38.1-27.8-62.5-24.2c-13.8,2-26.7,7.3-40.2,10.6 c-13,3.2-26.3,5.2-39.7,3.7c-26.5-3-49-19.8-75.5-23.1c-11.8-1.5-24,0.2-33.9,7.3C143.7,56.5,136,67,131.5,78.5 c-8.8,22.1-7.5,47.6-0.9,70.1c7.2,24.6,22.4,46.3,27.9,71.4c2.8,13.1,2.3,26.6-2,39.3c-4.3,12.5-10.6,24.1-17,35.8 c-6.3,11.5-12.9,23.3-16.7,35.9c-4,13.5-4.8,27.3-2.2,41.1c5.2,27.4,20,54.6,37.2,76.4c13.3,16.9,30.6,27.5,51.5,29.9 c-6-5.4-11.8-18.6-13.3-21.5c-8.5-17.4-13.6-35.7-16.8-54.8c-5.9-35.1-1-72.4,25.9-98c17.2-16.4,40.9-30.7,65.5-30.2 c23.9,0.5,43.7,14.5,54.2,35.7c10.4,20.9,11.5,44.9,7.1,67.5c-5.5,28.7-14.4,56.9-27.2,83.2c0.1,0.6,0,1.3-0.3,2.1 c-0.6,1.9-2.6,6.7-0.6,8.3c3.3,2.7,8.9,2.9,12.9,2.2c10.7-1.9,20-9.6,27.2-17.4c15.2-16.6,26.3-37.3,34.1-58.3 c8.1-22,13.1-45.7,13.2-69.1c0-12.6-1.7-24.5-5.6-36.5c-3.7-11.6-8.5-22.9-12.7-34.3c-0.4-1.2-0.5-2.2-0.2-3.1 c0-0.1,0-0.2-0.1-0.3c-2.2-11.1-4.3-21.7-2-33C375.7,195.1,394.4,176.6,406.1,154.1z"/><path d="M401.8,181.7c7.5-11.1,14.8-22.3,19.7-34.9c4.9-12.5,7.2-25.9,6.4-39.3c-1.5-25.9-16.9-50.7-40.4-62 c-22.9-11-48.3-6.4-71.5,0.7c-13.4,4.1-27,7.8-41,8.3c-14.7,0.6-27.8-4.1-41.2-9.6c-22.2-9.1-46.3-18.8-70.5-12.3 c-24,6.4-39.6,30.2-45.7,52.9c-6.2,23-3.2,48.2,3.8,70.6c7.7,24.4,23.9,46.3,27.3,71.9c3.7,27.3-14,51.4-25.9,74.5 c-6,11.6-11.1,23.9-13.6,36.8c-2.6,13.8-1.2,27.9,2,41.5c6.3,26.8,21.3,53.2,38.2,74.7c7.8,9.9,17.1,18.4,28.1,24.5 c11.9,6.6,25.3,9.1,38.8,9.6c2.4,0.1,4.6-2.2,5-4.4c0.9-5.1-0.9-16-6.6-16.9c-0.4-0.5-0.7-1.1-1-1.6c-1-1.5-1.8-3.1-2.7-4.7 c-3.2-6-6.3-12.1-9-18.4c-5.7-13.1-9-27-11.6-41c-4.9-26.7-3.9-55.7,11.7-78.8c13.2-19.5,37.4-35.3,60.7-38.6 c24.1-3.4,44.4,11,53.8,32.6c8.7,19.9,7.7,41.4,3.5,62.2c-5.4,26.5-14,52.5-26,76.7c-0.6,1.2-0.7,2.4-0.5,3.5 c-2.9,9.3-1.1,18.3,8.8,21.9c11.7,4.2,23.6,0.5,33.7-5.8c21-13.1,35.3-37.7,45.5-59.6c11.3-24.2,18.2-50.7,20-77.4 c0.9-13.5,0.5-26.6-2.4-39.8c-3.2-14.2-8.9-27.7-14.1-41.2c-0.5-1.3-1-2.6-1.5-4c0-0.5,0-1-0.1-1.6c-1.2-6.3-3-12.8-3.1-19.2 c-0.2-6.5,1.1-13.2,3.3-19.4C387.7,202.4,394.9,192,401.8,181.7z M372.5,253.7c0,0.1,0,0.2,0.1,0.3c-0.2,0.9-0.2,2,0.2,3.1 c4.2,11.4,9,22.7,12.7,34.3c3.9,12,5.6,23.9,5.6,36.5c0,23.5-5,47.2-13.2,69.1c-7.8,21-18.9,41.8-34.1,58.3 c-7.1,7.8-16.5,15.5-27.2,17.4c-4,0.7-9.6,0.5-12.9-2.2c-2-1.6,0-6.5,0.6-8.3c0.2-0.8,0.3-1.5,0.3-2.1 c12.8-26.3,21.7-54.5,27.2-83.2c4.3-22.6,3.3-46.6-7.1-67.5c-10.6-21.2-30.3-35.2-54.2-35.7c-24.6-0.5-48.3,13.8-65.5,30.2 c-26.8,25.6-31.7,62.8-25.9,98c3.2,19.1,8.3,37.4,16.8,54.8c1.4,2.9,7.2,16.2,13.3,21.5c-21-2.5-38.2-13-51.5-29.9 c-17.1-21.8-32-49-37.2-76.4c-2.6-13.9-1.9-27.6,2.2-41.1c3.8-12.6,10.4-24.4,16.7-35.9c6.3-11.6,12.6-23.2,17-35.8 c4.4-12.7,4.9-26.2,2-39.3c-5.4-25.1-20.6-46.8-27.9-71.4c-6.6-22.5-7.9-48,0.9-70.1c4.6-11.5,12.2-21.9,22.3-29.2 c9.9-7.1,22-8.8,33.9-7.3c26.5,3.3,49,20.1,75.5,23.1c13.4,1.5,26.7-0.5,39.7-3.7c13.5-3.3,26.5-8.6,40.2-10.6 c24.4-3.6,47.8,3.7,62.5,24.2c16.9,23.7,13.4,54.5,0.6,79.1c-11.7,22.5-30.4,41-35.6,66.6C368.2,232,370.3,242.6,372.5,253.7z"/></svg>