<svg xmlns="http://www.w3.org/2000/svg" viewBox="0 0 48 48"><path fill="#4b7bb2" d="M44.097,18.108c-0.176-0.568-0.445-1.102-0.712-1.632c-0.568-1.127-1.136-4.255-1.703-5.382 c-0.332-0.66-0.706-1.362-1.366-1.695c-0.429-0.216-0.925-0.246-1.404-0.271c-0.824-0.043-1.716-0.046-2.54-0.089 c-3.246-0.237-8.563-0.433-11.818-0.448c-4.73-0.023-9.449,0.422-14.159,0.866c-0.73,0.069-1.469,0.14-2.156,0.396 c-0.455,0.17-0.885,0.425-1.208,0.787c-0.284,0.319-0.476,0.707-0.661,1.092c-1.27,2.642-2.61,7.348-3.609,10.104l42.206-0.681 C44.969,20.015,44.404,19.095,44.097,18.108z"/><path fill="#73a1b2" d="M44.478,34.179c-0.063-0.287-0.148-0.606-0.401-0.757l-39.757-0.4 c-0.599-0.178-1.133,0.445-1.385,1.017c-0.252,0.572-0.216,1.224-0.174,1.848c0.051,0.769,0.102,1.538,0.152,2.307 c0.012,0.178,0.027,0.367,0.132,0.511c0.132,0.182,0.371,0.247,0.592,0.292c1.928,0.388,4.085,0.56,6.051,0.529 c1.414-0.022,3.034-0.067,4.446,0.004c8.566,0.429,18.775-0.009,27.349-0.165c0.691-0.013,1.414-0.034,2.015-0.375 c0.765-0.435,1.182-1.324,1.27-2.2S44.667,35.038,44.478,34.179z"/><path fill="#73a1b2" d="M44.862,28.475c-0.022-0.274-0.056-0.558-0.2-0.793c-0.394-0.64-1.327-0.582-2.067-0.444 L3.896,26.813c-1.041,0.445-0.941,1.619-1.001,2.75c-0.087,1.646,0.08,2.507,0.974,3.202c0.681,0.529,1.188,0.31,2.05,0.323 c6.721,0.097,13.442,0.193,20.163,0.29c2.254,0.032,6.507,0.065,8.761,0.097c0.96,0.014,1.921,0.028,2.879,0.099 c0.536,0.04,1.07,0.097,1.607,0.116c1.199,0.041,2.396-0.116,3.585-0.272c0.506-0.066,1.061-0.158,1.392-0.546 c0.216-0.253,0.298-0.591,0.361-0.918C44.888,30.81,44.954,29.636,44.862,28.475z"/><path fill="#73a1b2" d="M19.288,20.57c-4.685,0.506-8.962-0.099-13.675-0.122c-0.89-0.004-1.896,0.041-2.484,0.709 c-0.534,0.607-0.52,1.505-0.476,2.312c0.059,1.094,0.186,2.326,1.042,3.01c0.518,0.414,1.205,0.536,1.861,0.631 c9.321,1.343,20.802-0.132,30.217,0.083c1.91,0.044,3.82,0.157,5.731,0.111c1.318-0.032,2.886-0.308,3.413-1.516 c0.507-1.162-0.272-2.496-0.119-3.755c0.048-0.395,0.187-0.803,0.06-1.181c-0.109-0.326-0.396-0.558-0.684-0.745 c-1.578-1.027-3.55-1.263-5.431-1.169c-1.88,0.094-3.735,0.488-5.614,0.608c-1.193,0.076-4.389,0.042-5.584,0.057 C24.614,19.641,22.203,20.256,19.288,20.57z"/><path d="M45.158,32.048c0.229-1.188,0.297-2.404,0.202-3.613c-0.026-0.318-0.07-0.685-0.272-1.014 c-0.129-0.211-0.298-0.356-0.481-0.471c0.34-0.263,0.602-0.579,0.768-0.962c0.354-0.813,0.201-1.635,0.053-2.431 c-0.097-0.52-0.188-1.01-0.133-1.465c0.011-0.092,0.027-0.184,0.044-0.275c0.024-0.133,0.045-0.274,0.059-0.419 c0.041-0.073,0.071-0.152,0.071-0.242c0-0.892-0.294-1.631-0.579-2.346c-0.113-0.283-0.225-0.563-0.314-0.851 c-0.189-0.606-0.471-1.167-0.744-1.709c-0.261-0.518-0.542-1.574-0.815-2.596c-0.299-1.119-0.581-2.177-0.888-2.786 c-0.318-0.632-0.754-1.497-1.586-1.916c-0.533-0.269-1.127-0.299-1.604-0.323c-0.417-0.022-0.85-0.034-1.284-0.046 c-0.424-0.011-0.849-0.022-1.247-0.044c-3.183-0.231-8.5-0.434-11.851-0.449c-4.765-0.017-9.565,0.431-14.208,0.868 C9.593,9.031,8.813,9.105,8.064,9.385C7.483,9.603,7.01,9.913,6.659,10.308c-0.341,0.382-0.561,0.84-0.738,1.208 c-0.867,1.804-1.763,4.543-2.553,6.959c-0.386,1.18-0.749,2.29-1.076,3.192c-0.001,0.003,0,0.005-0.001,0.008 c-0.177,0.571-0.17,1.204-0.137,1.821c0.061,1.121,0.207,2.366,1.033,3.184c-0.698,0.603-0.743,1.573-0.774,2.452l-0.017,0.404 c-0.079,1.492,0.037,2.506,0.817,3.308c-0.309,0.252-0.565,0.609-0.734,0.993c-0.307,0.696-0.257,1.465-0.216,2.083l0.153,2.307 c0.013,0.201,0.033,0.507,0.226,0.771c0.26,0.359,0.69,0.447,0.897,0.489c1.89,0.38,4.076,0.564,6.157,0.538l0.602-0.011 c1.225-0.021,2.613-0.045,3.812,0.014c2.693,0.135,5.522,0.186,8.417,0.186c4.25,0,8.641-0.108,12.943-0.214 c2.066-0.051,4.086-0.101,6.023-0.136c0.68-0.013,1.526-0.028,2.252-0.44c0.836-0.476,1.405-1.441,1.521-2.585 c0.097-0.963-0.114-1.922-0.3-2.77c-0.046-0.208-0.124-0.548-0.343-0.821c0.019-0.02,0.044-0.031,0.063-0.053 C44.985,32.847,45.086,32.42,45.158,32.048z M42.687,27.729c0.842-0.158,1.364-0.085,1.549,0.216 c0.087,0.141,0.111,0.358,0.127,0.568c0.088,1.119,0.026,2.244-0.187,3.345c-0.048,0.247-0.11,0.523-0.25,0.688 c-0.208,0.243-0.628,0.316-1.077,0.375c-1.151,0.151-2.337,0.313-3.503,0.268c-0.355-0.012-0.709-0.042-1.064-0.072l-0.523-0.042 c-0.972-0.072-1.956-0.086-2.909-0.1c-1.154-0.017-2.833-0.034-4.499-0.051c-1.587-0.016-3.163-0.031-4.262-0.047l-20.163-0.29 c-0.228,0-0.433,0.009-0.624,0.02c-0.51,0.029-0.764,0.045-1.127-0.237c-0.692-0.538-0.868-1.161-0.781-2.78l0.017-0.422 c0.036-1.01,0.088-1.642,0.682-1.895c0.003-0.001,0.005-0.004,0.008-0.006c0.444,0.177,0.919,0.27,1.384,0.338 c3.015,0.434,6.248,0.576,9.561,0.576c3.185,0,6.443-0.132,9.647-0.261c3.907-0.157,7.598-0.308,11.07-0.227 c0.584,0.013,1.168,0.033,1.752,0.053c1.31,0.045,2.662,0.089,4.001,0.058c0.347-0.008,0.664-0.038,0.967-0.078 C42.548,27.74,42.617,27.743,42.687,27.729z M6.822,11.949c0.158-0.328,0.336-0.699,0.583-0.976 c0.243-0.272,0.583-0.492,1.01-0.651c0.625-0.234,1.306-0.299,2.027-0.367c4.619-0.436,9.39-0.903,14.109-0.864 c3.333,0.016,8.619,0.217,11.793,0.447c0.417,0.022,0.85,0.034,1.284,0.046c0.424,0.011,0.849,0.022,1.258,0.044 c0.423,0.021,0.861,0.044,1.205,0.218c0.498,0.251,0.813,0.815,1.144,1.473c0.261,0.518,0.542,1.574,0.815,2.595 c0.299,1.12,0.581,2.178,0.888,2.787c0.266,0.529,0.517,1.028,0.682,1.557c0.097,0.312,0.218,0.617,0.34,0.924 c0.043,0.108,0.083,0.213,0.124,0.319c-1.41-0.799-3.202-1.168-5.366-1.062c-1.006,0.049-2.01,0.185-2.982,0.314 c-0.866,0.116-1.762,0.237-2.639,0.293c-1.173,0.074-4.369,0.042-5.559,0.057c-1.896,0.024-3.542,0.28-5.284,0.551 c-0.967,0.15-1.967,0.307-3.021,0.42c-3.017,0.326-5.827,0.186-8.804,0.04c-1.556-0.077-3.166-0.157-4.815-0.165 c-0.573,0.009-1.188,0.033-1.745,0.199c0.146-0.439,0.294-0.893,0.448-1.362C5.099,16.398,5.983,13.693,6.822,11.949z M3.273,21.892c0.002-0.006,0.004-0.012,0.006-0.018c0.055-0.144,0.127-0.275,0.225-0.386c0.427-0.485,1.223-0.539,2.017-0.539 c0.03,0,0.06,0,0.089,0c1.627,0.008,3.225,0.087,4.771,0.163c3.017,0.15,5.864,0.291,8.96-0.044 c1.077-0.116,2.089-0.273,3.068-0.426c1.706-0.265,3.318-0.516,5.143-0.539c1.196-0.015,4.396,0.019,5.609-0.059 c0.913-0.059,1.826-0.181,2.709-0.3c0.951-0.128,1.934-0.26,2.898-0.308c2.131-0.106,3.859,0.26,5.133,1.089 c0.191,0.124,0.418,0.291,0.483,0.484c0.054,0.161,0.013,0.39-0.03,0.631c-0.02,0.111-0.039,0.222-0.053,0.331 c-0.073,0.608,0.037,1.198,0.144,1.77c0.126,0.677,0.246,1.316,0.014,1.847c-0.335,0.769-1.333,1.177-2.967,1.216 c-1.309,0.033-2.649-0.014-3.944-0.057c-0.587-0.021-1.175-0.04-1.763-0.054c-3.5-0.079-7.209,0.069-11.133,0.228 c-6.491,0.262-13.203,0.532-19.025-0.307c-0.618-0.089-1.207-0.196-1.62-0.526c-0.687-0.548-0.799-1.607-0.855-2.646 C3.123,22.891,3.113,22.33,3.273,21.892z M43.821,33.852c0.083,0.05,0.145,0.33,0.168,0.435c0.178,0.811,0.363,1.649,0.281,2.453 c-0.083,0.821-0.464,1.501-1.02,1.816c-0.505,0.286-1.181,0.299-1.777,0.31c-1.938,0.035-3.961,0.085-6.029,0.136 c-7.215,0.178-14.675,0.361-21.287,0.03c-1.233-0.062-2.638-0.036-3.879-0.015l-0.6,0.01c-2.014,0.035-4.123-0.153-5.943-0.519 c-0.224-0.045-0.275-0.082-0.286-0.096c-0.023-0.036-0.034-0.187-0.038-0.251L3.26,35.854c-0.035-0.534-0.075-1.141,0.133-1.613 c0.182-0.414,0.534-0.813,0.785-0.739c0.019,0.006,0.038,0.002,0.058,0.005C4.628,33.631,5,33.625,5.36,33.604 c0.168-0.01,0.35-0.018,0.551-0.018l20.163,0.29c1.101,0.016,2.678,0.031,4.267,0.047c1.664,0.017,3.341,0.034,4.496,0.051 c0.937,0.014,1.905,0.027,2.849,0.098l0.513,0.041c0.371,0.031,0.742,0.063,1.114,0.075c0.138,0.005,0.275,0.007,0.413,0.007 c1.104,0,2.196-0.144,3.255-0.282c0.215-0.028,0.48-0.07,0.748-0.147C43.757,33.797,43.783,33.829,43.821,33.852z"/><path fill="#71c598" d="M38.125,21.969c-0.638,0.031-1.156,0.285-1.339,0.672c-0.09,0.191-0.12,0.406-0.115,0.617 c0.012,0.542,0.259,1.082,0.685,1.418c0.426,0.336,1.028,0.447,1.535,0.254c0.506-0.194,0.887-0.7,0.898-1.243 c0.006-0.31-0.098-0.611-0.222-0.895c-0.08-0.185-0.172-0.37-0.311-0.516C39.048,22.057,38.426,21.954,38.125,21.969z"/><path d="M38.367,25.522c-0.469,0-0.943-0.157-1.32-0.455c-0.532-0.42-0.859-1.093-0.875-1.799 c-0.007-0.315,0.048-0.599,0.164-0.842c0.264-0.559,0.924-0.916,1.766-0.957l0,0c0.342-0.025,1.149,0.074,1.517,0.46 c0.193,0.202,0.31,0.438,0.408,0.661c0.127,0.293,0.272,0.683,0.264,1.104c-0.015,0.731-0.516,1.431-1.219,1.7 C38.846,25.48,38.607,25.522,38.367,25.522z M38.149,22.468c-0.512,0.025-0.832,0.219-0.911,0.387 c-0.048,0.102-0.071,0.233-0.067,0.391c0.009,0.406,0.199,0.804,0.495,1.037c0.296,0.234,0.717,0.307,1.047,0.18 c0.327-0.126,0.57-0.456,0.576-0.786c0.005-0.228-0.088-0.475-0.18-0.686c-0.061-0.139-0.129-0.28-0.214-0.369 C38.809,22.553,38.407,22.469,38.149,22.468L38.149,22.468z"/><path fill="#71c598" d="M38.097,29.224c-0.277-0.049-0.745,0.049-0.948,0.244c-0.253,0.242-0.29,0.628-0.303,0.977 c-0.011,0.293-0.011,0.605,0.144,0.854c0.225,0.362,0.697,0.471,1.121,0.507c0.291,0.025,0.603,0.025,0.851-0.129 c0.432-0.269,0.483-0.867,0.479-1.376c-0.001-0.13-0.003-0.262-0.042-0.386C39.258,29.464,38.563,29.306,38.097,29.224z"/><path d="M38.368,32.318c-0.102,0-0.202-0.006-0.298-0.014c-0.272-0.023-1.101-0.094-1.503-0.74 c-0.228-0.366-0.232-0.779-0.219-1.138c0.012-0.319,0.034-0.913,0.456-1.319c0.338-0.323,0.977-0.447,1.382-0.376l0,0 c0.433,0.076,1.448,0.255,1.692,1.034c0.061,0.196,0.063,0.382,0.065,0.53c0.003,0.406,0.012,1.354-0.714,1.806 C38.952,32.273,38.651,32.318,38.368,32.318z M37.939,29.711c-0.157,0-0.383,0.062-0.445,0.118 c-0.113,0.109-0.138,0.37-0.148,0.635c-0.008,0.22-0.009,0.445,0.069,0.572c0.09,0.145,0.346,0.239,0.739,0.272 c0.186,0.017,0.417,0.023,0.543-0.056c0.25-0.155,0.246-0.751,0.244-0.947c-0.001-0.091-0.002-0.187-0.02-0.242 c-0.006-0.02-0.085-0.202-0.911-0.348l0,0C37.989,29.712,37.965,29.711,37.939,29.711z"/><path fill="#71c598" d="M39.441,35.412c-0.251-0.133-0.733-0.141-1-0.046c-0.267,0.095-0.48,0.307-0.633,0.546 c-0.188,0.293-0.302,0.643-0.263,0.989c0.038,0.346,0.245,0.681,0.562,0.824c0.165,0.075,0.348,0.095,0.528,0.106 c0.302,0.018,0.617,0.007,0.888-0.127c0.466-0.231,0.701-0.811,0.603-1.322C40.027,35.872,39.729,35.565,39.441,35.412z"/><path d="M38.842,38.339c-0.083,0-0.162-0.003-0.236-0.008c-0.212-0.013-0.461-0.04-0.705-0.149 c-0.466-0.211-0.793-0.681-0.854-1.225c-0.048-0.434,0.073-0.901,0.341-1.316c0.234-0.365,0.541-0.623,0.886-0.746 c0.363-0.128,1.002-0.137,1.401,0.076c0.486,0.257,0.829,0.737,0.941,1.317c0.146,0.757-0.22,1.541-0.871,1.865 C39.442,38.303,39.121,38.339,38.842,38.339z M38.877,35.802c-0.1,0-0.199,0.011-0.268,0.035c-0.134,0.048-0.269,0.17-0.381,0.345 c-0.144,0.224-0.21,0.459-0.188,0.664c0.021,0.188,0.132,0.361,0.271,0.425c0.094,0.042,0.231,0.056,0.352,0.063 c0.201,0.01,0.454,0.013,0.637-0.076c0.243-0.121,0.393-0.471,0.333-0.779c-0.074-0.386-0.299-0.556-0.427-0.623 c-0.001-0.001-0.001-0.001-0.002-0.001C39.146,35.821,39.011,35.802,38.877,35.802z"/><path fill="#4b7bb2" d="M6.177,23.296c2.728,0.019,5.409,0.072,8.138,0.091c-0.23,0.756-0.342,1.548-0.329,2.338 c-2.476-0.164-4.953-0.327-7.429-0.491c-0.235-0.016-0.479-0.03-0.7,0.054c0.038-0.362-0.061-0.725-0.069-1.089 C5.78,23.835,5.852,23.46,6.177,23.296z"/><path d="M13.986,26.226c-0.011,0-0.022,0-0.033-0.001l-7.429-0.49c-0.181-0.013-0.367-0.024-0.49,0.022 c-0.162,0.062-0.345,0.035-0.482-0.071s-0.211-0.276-0.192-0.448c0.017-0.162-0.006-0.346-0.029-0.541 c-0.02-0.162-0.039-0.324-0.042-0.486c-0.018-0.839,0.352-1.203,0.664-1.36c0.071-0.036,0.154-0.068,0.229-0.054 c1.366,0.01,2.719,0.027,4.073,0.046c1.351,0.019,2.702,0.037,4.065,0.046c0.158,0.001,0.306,0.076,0.399,0.204 c0.093,0.127,0.122,0.291,0.075,0.441c-0.216,0.709-0.319,1.443-0.307,2.184c0.002,0.141-0.054,0.274-0.155,0.371 C14.238,26.177,14.114,26.226,13.986,26.226z M6.34,24.724c0.088,0.002,0.172,0.008,0.25,0.013l6.905,0.456 c0.022-0.441,0.08-0.879,0.174-1.31c-1.148-0.01-2.289-0.025-3.43-0.041c-1.293-0.018-2.587-0.035-3.891-0.045 c-0.059,0.103-0.063,0.299-0.061,0.392c0.002,0.129,0.019,0.258,0.035,0.387C6.329,24.623,6.335,24.673,6.34,24.724z"/><path fill="#4b7bb2" d="M5.938,31.128c-0.206-0.574,0.255-1.251,0.319-1.857c2.611,0.097,5.221,0.193,7.832,0.29 c-0.11,0.617-0.197,1.239-0.261,1.863C11.204,31.208,8.57,31.109,5.938,31.128z"/><path d="M13.828,31.923c-0.014,0-0.027-0.001-0.042-0.002c-2.601-0.213-5.244-0.31-7.846-0.293 c-0.217,0.013-0.402-0.131-0.474-0.331c-0.188-0.523-0.017-1.037,0.135-1.489c0.072-0.216,0.14-0.419,0.158-0.59 c0.027-0.262,0.25-0.434,0.516-0.447l7.833,0.29c0.145,0.006,0.28,0.073,0.371,0.187c0.091,0.112,0.128,0.259,0.103,0.401 c-0.107,0.603-0.193,1.217-0.256,1.826C14.298,31.731,14.082,31.923,13.828,31.923z M6.555,30.626c2.271,0,4.563,0.087,6.83,0.261 c0.035-0.283,0.074-0.566,0.118-0.848l-6.845-0.253C6.625,29.9,6.587,30.013,6.55,30.124c-0.059,0.178-0.117,0.35-0.146,0.502 C6.455,30.626,6.505,30.626,6.555,30.626z"/><path fill="#4b7bb2" d="M6.228,35.604c-0.029,0.424,0.031,1.244,0.002,1.668c-0.004,0.066-0.007,0.139,0.032,0.192 c0.051,0.069,0.15,0.077,0.236,0.078c2.363,0.039,4.726,0.079,7.088,0.118c0.138,0.002,0.287,0.001,0.397-0.083 c0.17-0.13,0.161-0.385,0.134-0.598c-0.042-0.344-0.085-0.689-0.127-1.033c-0.01-0.082-0.025-0.174-0.091-0.224 c-0.052-0.04-0.123-0.044-0.189-0.045c-2.035-0.049-4.07-0.099-6.105-0.148C7.188,35.519,6.616,35.444,6.228,35.604z"/><path d="M13.642,38.162c-0.022,0-0.043-0.001-0.062-0.001l-7.09-0.119c-0.104-0.001-0.426-0.005-0.63-0.281 c-0.15-0.2-0.136-0.425-0.129-0.521c0.014-0.201,0.005-0.496-0.002-0.791c-0.008-0.327-0.015-0.654,0-0.877 c0.013-0.189,0.132-0.355,0.307-0.429c0.414-0.17,0.897-0.146,1.323-0.124l0.259,0.011l6.105,0.148 c0.084,0.001,0.293,0.005,0.481,0.148c0.237,0.182,0.27,0.446,0.283,0.56l0.127,1.033c0.025,0.203,0.09,0.738-0.328,1.057 C14.067,38.146,13.809,38.162,13.642,38.162z M6.738,37.045l6.858,0.116c0.009,0,0.023,0,0.038,0 c-0.001-0.029-0.004-0.069-0.011-0.12l-0.106-0.868l-6.208-0.156c-0.186-0.009-0.4-0.02-0.587-0.008 c0.001,0.131,0.005,0.272,0.009,0.414C6.735,36.641,6.74,36.858,6.738,37.045z"/><path d="M17.045,24.767c-0.264,0-0.485-0.207-0.499-0.475c-0.014-0.275,0.198-0.511,0.474-0.524 c1.581-0.081,3.161-0.172,4.741-0.272c0.27-0.021,0.513,0.19,0.531,0.468c0.018,0.275-0.192,0.513-0.467,0.53 c-1.584,0.101-3.168,0.191-4.753,0.272C17.063,24.767,17.054,24.767,17.045,24.767z"/><path d="M16.935,30.87c-0.269,0-0.491-0.214-0.499-0.484c-0.009-0.276,0.208-0.507,0.484-0.516 c1.665-0.052,3.331-0.091,5.052-0.077c0.276,0,0.5,0.225,0.5,0.5c0,0.276-0.224,0.5-0.5,0.5c0.001,0.026-0.061,0-0.091,0 c-1.646,0-3.304,0.025-4.929,0.077C16.945,30.87,16.94,30.87,16.935,30.87z"/><path d="M20.188,36.916c-1.079,0-2.16-0.053-3.231-0.156c-0.275-0.027-0.476-0.271-0.449-0.546c0.027-0.275,0.267-0.469,0.546-0.45 c1.633,0.159,3.29,0.193,4.922,0.103c0.275-0.028,0.511,0.196,0.527,0.472s-0.195,0.511-0.471,0.526 C21.419,36.898,20.804,36.916,20.188,36.916z"/></svg>