<svg xmlns="http://www.w3.org/2000/svg" viewBox="0 0 64 64"><radialGradient id="k3~CjwttYgjuQI9jFQvO3a" cx="32.66" cy="36.617" r="23.86" gradientTransform="matrix(1 0 0 -1 0 66)" gradientUnits="userSpaceOnUse"><stop offset="0" stop-color="#e6d5a2"/><stop offset=".106" stop-color="#eadaab"/><stop offset=".437" stop-color="#f2e6c2"/><stop offset=".744" stop-color="#f7edd1"/><stop offset="1" stop-color="#faf1d6"/></radialGradient><path fill="url(#k3~CjwttYgjuQI9jFQvO3a)" d="M8,8L8,8c2.209,0,4-1.791,4-4l0,0c0-2.209-1.791-4-4-4l0,0C5.791,0,4,1.791,4,4l0,0	C4,6.209,5.791,8,8,8z"/><radialGradient id="k3~CjwttYgjuQI9jFQvO3b" cx="32.66" cy="36.617" r="23.86" gradientTransform="matrix(1 0 0 -1 0 66)" gradientUnits="userSpaceOnUse"><stop offset="0" stop-color="#e6d5a2"/><stop offset=".106" stop-color="#eadaab"/><stop offset=".437" stop-color="#f2e6c2"/><stop offset=".744" stop-color="#f7edd1"/><stop offset="1" stop-color="#faf1d6"/></radialGradient><path fill="url(#k3~CjwttYgjuQI9jFQvO3b)" d="M64,48c0,2.21-1.79,4-4,4h-2.5c-1.38,0-2.5,1.12-2.5,2.5c0,0.69,0.28,1.32,0.73,1.77	S56.81,57,57.5,57h1c1.93,0,3.5,1.57,3.5,3.5S60.43,64,58.5,64h-53C3.57,64,2,62.43,2,60.5S3.57,57,5.5,57H6c1.38,0,2-1.12,2-2.5	S6.88,52,5.5,52H4c-2.21,0-4-1.79-4-4s1.79-4,4-4h9.5c1.93,0,3.5-1.57,3.5-3.5S15.43,37,13.5,37H5c-2.76,0-5-2.24-5-5s2.24-5,5-5h8	c1.66,0,3-3.34,3-5s-1.34-3-3-3H5.5C3.57,19,2,17.43,2,15.5S3.57,12,5.5,12H22c0.55,0,1.05-0.22,1.41-0.59	C23.78,11.05,24,10.55,24,10c0-1.1-0.9-2-2-2h-3c-1.1,0-2.1-0.45-2.83-1.17C15.45,6.1,15,5.1,15,4c0-2.21,1.79-4,4-4h31	c2.21,0,4,1.79,4,4s-1.79,4-4,4h-9c-2.49,0,1.25,2.76,1.25,5.25c0,1.24,1.25,1.62,2.07,2.43C45.13,16.5,46.26,17,47.5,17h11	c2.49,0,4.5,2.01,4.5,4.5S60.99,26,58.5,26h-11c-1.93,0-3.5,1.57-3.5,3.5s1.57,2.5,3.5,2.5H60c2.21,0,4,1.79,4,4s-1.79,4-4,4H48.5	c-1.38,0-2.5,1.12-2.5,2.5s1.12,1.5,2.5,1.5H60C62.21,44,64,45.79,64,48z"/><linearGradient id="k3~CjwttYgjuQI9jFQvO3c" x1="18" x2="18" y1="11.787" y2="10.127" gradientTransform="matrix(1 0 0 -1 0 66)" gradientUnits="userSpaceOnUse"><stop offset="0" stop-color="#727982"/><stop offset="1" stop-color="#7b828d"/></linearGradient><path fill="url(#k3~CjwttYgjuQI9jFQvO3c)" d="M19,57h-2c-1.105,0-2-0.895-2-2v-1h6v1C21,56.105,20.105,57,19,57z"/><linearGradient id="k3~CjwttYgjuQI9jFQvO3d" x1="46" x2="46" y1="11.787" y2="10.127" gradientTransform="matrix(1 0 0 -1 0 66)" gradientUnits="userSpaceOnUse"><stop offset="0" stop-color="#727982"/><stop offset="1" stop-color="#7b828d"/></linearGradient><path fill="url(#k3~CjwttYgjuQI9jFQvO3d)" d="M47,57h-2c-1.105,0-2-0.895-2-2v-1h6v1C49,56.105,48.105,57,47,57z"/><linearGradient id="k3~CjwttYgjuQI9jFQvO3e" x1="32" x2="32" y1="54.17" y2="57.299" gradientTransform="matrix(1 0 0 -1 0 66)" gradientUnits="userSpaceOnUse"><stop offset="0" stop-color="#727982"/><stop offset="1" stop-color="#7b828d"/></linearGradient><path fill="url(#k3~CjwttYgjuQI9jFQvO3e)" d="M41.5,15c-0.828,0-1.5-0.672-1.5-1.5v-3C40,9.673,39.327,9,38.5,9h-13	C24.673,9,24,9.673,24,10.5v3c0,0.828-0.672,1.5-1.5,1.5S21,14.328,21,13.5v-3C21,8.019,23.019,6,25.5,6h13	c2.481,0,4.5,2.019,4.5,4.5v3C43,14.328,42.328,15,41.5,15z"/><linearGradient id="k3~CjwttYgjuQI9jFQvO3f" x1="41.194" x2="41.449" y1="48.722" y2="51.084" gradientTransform="matrix(1 0 0 -1 0 66)" gradientUnits="userSpaceOnUse"><stop offset="0" stop-color="#727982"/><stop offset="1" stop-color="#7b828d"/></linearGradient><path fill="url(#k3~CjwttYgjuQI9jFQvO3f)" d="M40,12h3c1.105,0,2,0.895,2,2v1h-7v-1C38,12.895,38.895,12,40,12z"/><linearGradient id="k3~CjwttYgjuQI9jFQvO3g" x1="22.413" x2="22.669" y1="50.752" y2="53.114" gradientTransform="matrix(1 0 0 -1 0 66)" gradientUnits="userSpaceOnUse"><stop offset="0" stop-color="#727982"/><stop offset="1" stop-color="#7b828d"/></linearGradient><path fill="url(#k3~CjwttYgjuQI9jFQvO3g)" d="M21,12h3c1.105,0,2,0.895,2,2v1h-7v-1C19,12.895,19.895,12,21,12z"/><linearGradient id="k3~CjwttYgjuQI9jFQvO3h" x1="32" x2="32" y1="11.723" y2="67.064" gradientTransform="matrix(1 0 0 -1 0 66)" gradientUnits="userSpaceOnUse"><stop offset="0" stop-color="#70b3e6"/><stop offset="1" stop-color="#9edcf9"/></linearGradient><path fill="url(#k3~CjwttYgjuQI9jFQvO3h)" d="M55,21v27c0,3.31-2.69,6-6,6H15c-3.31,0-6-2.69-6-6V21c0-3.31,2.69-6,6-6h34	C52.31,15,55,17.69,55,21z"/><linearGradient id="k3~CjwttYgjuQI9jFQvO3i" x1="32.542" x2="31.946" y1="9.604" y2="45.264" gradientTransform="matrix(1 0 0 -1 0 66)" gradientUnits="userSpaceOnUse"><stop offset="0" stop-color="#70b3e6"/><stop offset="1" stop-color="#9edcf9"/></linearGradient><path fill="url(#k3~CjwttYgjuQI9jFQvO3i)" d="M55,21v6H9v-6c0-3.31,2.69-6,6-6h34C52.31,15,55,17.69,55,21z"/><linearGradient id="k3~CjwttYgjuQI9jFQvO3j" x1="18.64" x2="19.16" y1="35.166" y2="39.98" gradientTransform="matrix(1 0 0 -1 0 66)" gradientUnits="userSpaceOnUse"><stop offset="0" stop-color="#727982"/><stop offset="1" stop-color="#7b828d"/></linearGradient><path fill="url(#k3~CjwttYgjuQI9jFQvO3j)" d="M20,24h-2c-1.105,0-2,0.896-2,2v3c0,1.104,0.895,2,2,2h2c1.105,0,2-0.896,2-2v-3	C22,24.896,21.105,24,20,24z"/><linearGradient id="k3~CjwttYgjuQI9jFQvO3k" x1="44.64" x2="45.16" y1="35.166" y2="39.98" gradientTransform="matrix(1 0 0 -1 0 66)" gradientUnits="userSpaceOnUse"><stop offset="0" stop-color="#727982"/><stop offset="1" stop-color="#7b828d"/></linearGradient><path fill="url(#k3~CjwttYgjuQI9jFQvO3k)" d="M46,24h-2c-1.105,0-2,0.896-2,2v3c0,1.104,0.895,2,2,2h2c1.105,0,2-0.896,2-2v-3	C48,24.896,47.105,24,46,24z"/><linearGradient id="k3~CjwttYgjuQI9jFQvO3l" x1="32" x2="32" y1="9.166" y2="32.04" gradientTransform="matrix(1 0 0 -1 0 66)" gradientUnits="userSpaceOnUse"><stop offset="0" stop-color="#f8e7a9"/><stop offset="1" stop-color="#fbf4d4"/></linearGradient><circle cx="32" cy="40.5" r="9.5" fill="url(#k3~CjwttYgjuQI9jFQvO3l)"/><linearGradient id="k3~CjwttYgjuQI9jFQvO3m" x1="32" x2="32" y1="4.877" y2="37.562" gradientTransform="matrix(1 0 0 -1 0 66)" gradientUnits="userSpaceOnUse"><stop offset="0" stop-color="#de5943"/><stop offset=".007" stop-color="#de5943"/><stop offset=".989" stop-color="#d95388"/><stop offset="1" stop-color="#d95388"/></linearGradient><path fill="url(#k3~CjwttYgjuQI9jFQvO3m)" d="M36,39h-2v-2c0-1.104-0.895-2-2-2s-2,0.896-2,2v2h-2c-1.105,0-2,0.896-2,2s0.895,2,2,2h2v2	c0,1.104,0.895,2,2,2s2-0.896,2-2v-2h2c1.105,0,2-0.896,2-2S37.105,39,36,39z"/></svg>