<svg xmlns="http://www.w3.org/2000/svg" viewBox="0 0 64 64"><radialGradient id="LKGLxmIsL~os8_tKRA0Fda" cx="32.5" cy="31.5" r="30.516" gradientUnits="userSpaceOnUse" spreadMethod="reflect"><stop offset="0" stop-color="#afeeff"/><stop offset=".193" stop-color="#bbf1ff"/><stop offset=".703" stop-color="#d7f8ff"/><stop offset="1" stop-color="#e1faff"/></radialGradient><path fill="url(#LKGLxmIsL~os8_tKRA0Fda)" d="M59,20h1.5c2.168,0,3.892-1.998,3.422-4.243C63.58,14.122,62.056,13,60.385,13L53,13 c-1.105,0-2-0.895-2-2c0-1.105,0.895-2,2-2h3.385c1.67,0,3.195-1.122,3.537-2.757C60.392,3.998,58.668,2,56.5,2H34.006H32.5h-24 C6.575,2,5,3.575,5,5.5S6.575,9,8.5,9H10c1.105,0,2,0.895,2,2c0,1.105-0.895,2-2,2l-5.385,0c-1.67,0-3.195,1.122-3.537,2.757 C0.608,18.002,2.332,20,4.5,20H18v12L4.615,32c-1.67,0-3.195,1.122-3.537,2.757C0.608,37.002,2.332,39,4.5,39H5 c1.105,0,2,0.895,2,2c0,1.105-0.895,2-2,2H4.5c-2.168,0-3.892,1.998-3.422,4.243C1.42,48.878,2.945,50,4.615,50H10 c1.105,0,2,0.895,2,2c0,1.105-0.895,2-2,2l-1.385,0c-1.67,0-3.195,1.122-3.537,2.757C4.608,59.002,6.332,61,8.5,61h22.494H32.5h23 c1.925,0,3.5-1.575,3.5-3.5S57.425,54,55.5,54H55c-1.105,0-2-0.895-2-2c0-1.105,0.895-2,2-2h4.385c1.67,0,3.195-1.122,3.537-2.757 C63.392,44.998,61.668,43,59.5,43H47V31h12.385c1.67,0,3.195-1.122,3.537-2.757C63.392,25.998,61.668,24,59.5,24H59 c-1.105,0-2-0.895-2-2C57,20.895,57.895,20,59,20z"/><linearGradient id="LKGLxmIsL~os8_tKRA0Fdb" x1="32" x2="32" y1="74.573" y2="24.573" gradientUnits="userSpaceOnUse" spreadMethod="reflect"><stop offset="0" stop-color="#ffce76"/><stop offset="1" stop-color="#ffcca0"/></linearGradient><path fill="url(#LKGLxmIsL~os8_tKRA0Fdb)" d="M57,31c0,13.805-11.195,25-25,25S7,44.805,7,31S18.195,6,32,6S57,17.195,57,31z"/><linearGradient id="LKGLxmIsL~os8_tKRA0Fdc" x1="31.945" x2="32.289" y1="27.807" y2="35.068" gradientUnits="userSpaceOnUse" spreadMethod="reflect"><stop offset="0" stop-color="#42d778"/><stop offset=".996" stop-color="#34b171"/></linearGradient><path fill="url(#LKGLxmIsL~os8_tKRA0Fdc)" d="M21.5,46c-0.238,0-0.48-0.057-0.705-0.177c-0.731-0.39-1.008-1.299-0.617-2.029 c3.487-6.537,7.798-12.585,12.812-17.977c2.728-2.934,5.695-5.701,8.818-8.227c0.645-0.521,1.591-0.42,2.109,0.223 c0.521,0.645,0.421,1.589-0.223,2.109c-3.014,2.438-5.876,5.107-8.508,7.938c-4.837,5.201-8.996,11.037-12.362,17.346 C22.555,45.712,22.036,46,21.5,46z"/><linearGradient id="LKGLxmIsL~os8_tKRA0Fdd" x1="33.033" x2="33.033" y1="35.061" y2="2.371" gradientUnits="userSpaceOnUse" spreadMethod="reflect"><stop offset="0" stop-color="#31995f"/><stop offset=".093" stop-color="#329e62"/><stop offset=".666" stop-color="#39ba71"/><stop offset="1" stop-color="#3bc477"/></linearGradient><path fill="url(#LKGLxmIsL~os8_tKRA0Fdd)" d="M22.451,22.482c-4.301,4.873-2.722,12.655,4.242,13.68 c3.335,7.963,8.855,8.433,13.888,4.173c6.004-5.118,4.001-15.944,5.364-21.814c0.303-1.304-0.695-2.533-2.032-2.485 C38.389,16.234,26.957,17.285,22.451,22.482z"/><g><linearGradient id="LKGLxmIsL~os8_tKRA0Fde" x1="35.853" x2="36.765" y1="6.963" y2="44.061" gradientUnits="userSpaceOnUse" spreadMethod="reflect"><stop offset="0" stop-color="#42d778"/><stop offset=".996" stop-color="#34b171"/></linearGradient><path fill="url(#LKGLxmIsL~os8_tKRA0Fde)" d="M41.667,39.244c0.271-0.316,0.52-0.647,0.75-0.991c0.045-0.067,0.088-0.135,0.131-0.203 c0.225-0.353,0.436-0.717,0.624-1.094c0.02-0.041,0.038-0.083,0.057-0.124c0.179-0.37,0.341-0.75,0.489-1.139 c0.019-0.051,0.041-0.1,0.059-0.151c0.148-0.402,0.277-0.814,0.396-1.233c0.023-0.081,0.046-0.162,0.068-0.244 c0.112-0.416,0.213-0.838,0.301-1.266c0.014-0.07,0.027-0.141,0.041-0.211c0.085-0.433,0.161-0.87,0.226-1.311 c0.003-0.02,0.007-0.04,0.009-0.059c0.066-0.456,0.121-0.916,0.169-1.376c0.008-0.08,0.017-0.159,0.025-0.239 c0.045-0.443,0.083-0.888,0.116-1.331c0.006-0.087,0.013-0.173,0.019-0.26c0.031-0.448,0.06-0.895,0.084-1.339 c0.002-0.042,0.004-0.083,0.006-0.124c0.024-0.451,0.046-0.9,0.066-1.343c0.021-0.45,0.042-0.894,0.064-1.331 c0.004-0.091,0.009-0.183,0.014-0.274c0.022-0.425,0.046-0.844,0.073-1.253c0.004-0.058,0.008-0.114,0.013-0.172 c0.028-0.396,0.059-0.784,0.096-1.161c0.003-0.033,0.006-0.067,0.009-0.1c0.039-0.382,0.086-0.75,0.138-1.109 c0.01-0.068,0.02-0.136,0.03-0.202c0.055-0.348,0.118-0.683,0.19-1.004c0.006-0.025,0.009-0.053,0.015-0.077 c0.149-0.644-0.02-1.268-0.389-1.731c-4.897,3.055-18.877,19.337-18.861,19.377c2.293,5.469,5.617,7.401,9.105,6.692 c0.023-0.005,0.046-0.014,0.069-0.019c0.294-0.063,0.589-0.14,0.885-0.24c0.058-0.019,0.115-0.048,0.173-0.069 c0.262-0.094,0.524-0.194,0.786-0.316c0.11-0.051,0.219-0.118,0.328-0.174c0.211-0.107,0.421-0.21,0.632-0.335 c0.159-0.094,0.317-0.208,0.476-0.312c0.161-0.105,0.322-0.201,0.482-0.316c0.318-0.229,0.635-0.477,0.95-0.744 c0.341-0.291,0.649-0.605,0.941-0.931C41.571,39.351,41.621,39.299,41.667,39.244z"/></g><linearGradient id="LKGLxmIsL~os8_tKRA0Fdf" x1="42.467" x2="42.467" y1="55.97" y2="43" gradientUnits="userSpaceOnUse" spreadMethod="reflect"><stop offset="0" stop-color="#ffc284"/><stop offset="1" stop-color="#fec296"/></linearGradient><path fill="url(#LKGLxmIsL~os8_tKRA0Fdf)" d="M53.934,43H40.89C39.846,43,39,43.846,39,44.89v0.22c0,1.044,0.846,1.89,1.89,1.89h0.003 c0.996,0,1.92,0.681,2.08,1.664C43.176,49.917,42.215,51,41,51h-7.38c-1.266,0-2.422,0.889-2.596,2.143 c-0.199,1.436,0.824,2.663,2.174,2.827l0,0C42.149,55.547,49.866,50.417,53.934,43z"/></svg>