<svg xmlns="http://www.w3.org/2000/svg" viewBox="0 0 100 100"><path fill="#fff" d="M19.8 54.800000000000004A.9.9 0 1 0 19.8 56.6.9.9 0 1 0 19.8 54.800000000000004zM78.9 30.1A.7.7 0 1 0 78.9 31.5.7.7 0 1 0 78.9 30.1z"/><path fill="#f1bc19" d="M76.3 10.799999999999999A.9.9 0 1 0 76.3 12.6.9.9 0 1 0 76.3 10.799999999999999zM20.3 62.4A.9.9 0 1 0 20.3 64.2.9.9 0 1 0 20.3 62.4z"/><path fill="#fce0a2" d="M49.1 11.5A37.5 37.5 0 1 0 49.1 86.5A37.5 37.5 0 1 0 49.1 11.5Z"/><path fill="#f1bc19" d="M81.7 9.9A4 4 0 1 0 81.7 17.9A4 4 0 1 0 81.7 9.9Z"/><path fill="#ee3e54" d="M85.7 21.1A1.9 1.9 0 1 0 85.7 24.9A1.9 1.9 0 1 0 85.7 21.1Z"/><path fill="#fbcd59" d="M76.7 73.5A1.9 1.9 0 1 0 76.7 77.30000000000001 1.9 1.9 0 1 0 76.7 73.5zM13.5 58.4A4 4 0 1 0 13.5 66.4 4 4 0 1 0 13.5 58.4z"/><path fill="#ee3e54" d="M23.8 84.69999999999999A1.9 1.9 0 1 0 23.8 88.5A1.9 1.9 0 1 0 23.8 84.69999999999999Z"/><path fill="#fff" d="M75.4 27.5A1.8 1.8 0 1 0 75.4 31.1 1.8 1.8 0 1 0 75.4 27.5zM17.3 47.8A2.5 2.5 0 1 0 17.3 52.8 2.5 2.5 0 1 0 17.3 47.8z"/><path fill="#3a2221" d="M58.6,27.7c0-0.2,0-0.5-0.1-0.7c0.1-0.2,0.1-0.4,0.1-0.6c0-1.3-0.9-2.5-2.2-2.8 c-0.2-1.7-1.7-3-3.4-3c-1-1.9-3.3-2.7-5.2-1.7c-0.6,0.3-1.2,0.8-1.5,1.4c-0.3-0.1-0.5-0.1-0.8-0.1c-1.7-0.1-3.1,1.1-3.2,2.8 c0,0,0,0,0,0c0,0,0,0.1,0,0.2c-1.5,0.4-2.5,1.7-2.5,3.2c0,0.8,0.3,1.5,0.8,2.1c-0.4,0.5-0.6,1.1-0.6,1.7c0.1,1.7,1.5,2.9,3.2,2.8 c0.4,0,0.9-0.1,1.3-0.2c0.1,1.4,1.3,2.4,2.7,2.3c0.3,0,0.6,0,0.8-0.1c0.8,0.9,1.9,1.3,3,1.3c1.8,0.1,3.4-1.2,3.7-2.9 c1.2-0.4,2.1-1.5,2.3-2.8C57.9,30,58.6,28.9,58.6,27.7z"/><path fill="#f6cca4" d="M60.8,40.8c0.1-1.5-0.3-2.8-0.2-3.6l0,0c-1.3-1.7-2.2-3.6-4-4.8c-2.1-1.3-4.4-2.2-6.8-2.8 c-5.7-1.4-11.3,2.7-13.1,8.1c0,0,0,0.1,0,0.1c0.2,1,0.3,2,0.4,2.9c-1.5,0-2.3,0.8-1.8,2.4c0,0,0.6,2.6,1,3.9 c0.1,0.7,0.8,1.2,1.5,1.2c0,0.8,0,1.7,0,2.5c0,1,0.3,2,0.9,2.8c1.5,2.2,9.2,7.2,11.1,7c3,0,9-5.1,10.6-7.7 c0.3-0.5,0.4-1.1,0.5-1.7c0-1,0-2,0-3c0.6-0.1,1-0.6,1.2-1.1c0.4-1.3,1-3.9,1-3.9C63.5,41.6,62.4,40.8,60.8,40.8z"/><path fill="#edbc94" d="M65.4,66.4l-0.3-0.1L64.5,66c-1.2-0.5-9.3-3.3-9.3-3.3c-0.6-0.2-1-0.5-1.2-1.1 c-0.2-1-0.3-1.9-0.2-2.9c-1.4,0.6-2.8,1.1-4.2,1.4c-1.9,0.2-5.2-2.3-5.2-2.3s-0.1,3-0.2,3.7c-0.2,0.6-0.6,1-1.2,1.1l-7.7,2.6 c-0.8,0.2-1.5,0.5-2.2,0.9c-1.6,1.1-2.8,2.8-3.3,4.7h0c0,0.2-0.1,0.4-0.1,0.6c-0.1,0.4-0.1,0.9-0.1,1.3c0,0.5-0.1,7.1-0.1,7.7 c8.7,4.8,15.4,5,25.9,5c4.6,0,10-3.2,14.1-4.8C69,71.4,69.7,67.7,65.4,66.4z"/><g opacity=".3"><path fill="#f4989e" d="M42.1 47.5A2 2 0 1 0 42.1 51.5 2 2 0 1 0 42.1 47.5zM57.2 47.5A2 2 0 1 0 57.2 51.5 2 2 0 1 0 57.2 47.5z" opacity=".8"/></g><path fill="#472b29" d="M38 49c-.1 0-.2-.1-.2-.2L37 40.8c0-.1.1-.2.2-.2.1 0 .2.1.2.2l.8 8.1C38.2 48.9 38.2 49 38 49 38 49 38 49 38 49zM60.5 48.6C60.5 48.6 60.5 48.6 60.5 48.6c-.1 0-.2-.1-.2-.2l.5-8.1c0-.1.1-.2.2-.2.1 0 .2.1.2.2l-.5 8.1C60.7 48.5 60.6 48.6 60.5 48.6z"/><path fill="#6d1b18" d="M46.2,53.6c0,0.2-0.1,0.3-0.1,0.5c0,1.4,1.5,2.5,3.5,2.5S53,55.5,53,54c0-0.2,0-0.3-0.1-0.5H46.2z"/><path fill="#ee3e54" d="M51.4,56.2c-1.1-0.8-2.6-0.8-3.6,0C48.9,56.7,50.2,56.7,51.4,56.2z"/><path fill="#fdfcef" d="M47.2,53.6L47.2,53.6V54c0,0.4,0.5,0.7,1.1,0.7h2.6c0.6,0,1.1-0.3,1.1-0.7v-0.4l0,0H47.2z"/><path fill="#472b29" d="M49.5,56.8c-2,0-3.6-1.2-3.6-2.7c0-0.2,0-0.4,0.1-0.5c0-0.1,0.1-0.2,0.2-0.2h6.8 c0.1,0,0.2,0.1,0.2,0.2c0,0.2,0.1,0.3,0.1,0.5C53.2,55.6,51.6,56.8,49.5,56.8z M46.3,53.8c0,0.1,0,0.2,0,0.3 c0,1.3,1.5,2.3,3.2,2.3s3.3-1,3.3-2.3c0-0.1,0-0.2,0-0.3H46.3z"/><path fill="#fbcd59" d="M40.4,63.6c-0.2,9,17.4,9.6,16.2-0.7l4.9,1.7L62.9,84c0,0-16.1,5.1-28.4-0.7l0.7-18L40.4,63.6z"/><path fill="#472b29" d="M49.5 51.7c.8 0 1.5-.3 2-.9 0-.1 0-.1 0-.2l0 0c0-.1-.1-.1-.2 0 0 0 0 0 0 0-1 .9-2.6.9-3.6 0 0 0-.1 0-.1 0 0 0-.1 0-.1 0-.1 0-.1.1 0 .2 0 0 0 0 0 0C48.1 51.4 48.8 51.7 49.5 51.7zM50.4 58.4C50.5 58.4 50.5 58.4 50.4 58.4c.1-.1 0-.2 0-.2h-1.8c0 0-.1 0-.1.1 0 0 0 .1.1.1H50.4z" opacity=".41"/><path fill="#512c2b" d="M47.5 39.7c-2.4-.7-4.9-1-7.4-.8-.1 0-.2.1-.2.2 0 .1.1.2.2.2 0 0 5.1.9 6.7 1.4h.1c.1 0 .1 0 .2-.1l.6-.7c0-.1 0-.1 0-.2C47.6 39.7 47.6 39.7 47.5 39.7zM51.5 39.5c2.4-.6 5-.7 7.5-.4.1 0 .2.1.2.2 0 .1-.1.2-.2.2 0 0-5.1.6-6.7 1.1h-.1c-.1 0-.1 0-.2-.1l-.6-.7c0-.1 0-.1 0-.2C51.5 39.5 51.5 39.5 51.5 39.5z"/><path fill="#472b29" d="M44 41.7c-.5 0-1 .3-1.2.8.1 0 .1 0 .2 0 .5 0 .8.4.8.8 0 .5-.4.8-.8.8-.1 0-.3 0-.4-.1.1.7.7 1.2 1.4 1.3 1-.2 1.6-1.2 1.4-2.2C45.3 42.4 44.7 41.9 44 41.7zM55 41.7c-.4 0-.8.2-1.1.6.1 0 .2-.1.3-.1.5 0 .8.4.8.8 0 .5-.4.8-.8.8-.3 0-.5-.1-.6-.4.2.8 1 1.3 1.8 1.1.8-.2 1.3-1 1.1-1.8C56.2 42.2 55.7 41.7 55 41.7z"/><path fill="#472b29" d="M49,86.8c-7.2,0-14.7-1.8-20-6.4c-0.1-0.1-0.2-0.3-0.2-0.4c0-0.1,0-0.2,0-0.4 c-0.2-7.5,1.1-12.1,4-13.6c0.7-0.4,1.5-0.7,2.3-0.9l7.7-2.6c0.5-0.1,0.8-0.4,1-0.8c0.1-0.4,0.2-2,0.2-2.8 c-2.3-1.5-4.9-3.4-5.8-4.7c-0.6-0.9-1-2-0.9-3.1l0-2.1c-0.7-0.2-1.3-0.8-1.5-1.5c-0.4-1.2-1-3.8-1-3.9c-0.4-1.1-0.1-1.8,0.2-2.2 c0.2-0.3,0.7-0.7,1.6-0.8c0-0.2,0-0.3-0.1-0.5c-0.3-0.6-0.4-1.1-0.5-1.8c0-6.5,5.8-11.8,12.9-11.8c7.1,0,12.9,5.3,12.9,11.8 c0,0.7-0.2,1.3-0.5,1.9c0,0.1,0,0.2,0,0.3c0.8,0.1,1.5,0.4,1.9,1c0.3,0.4,0.6,1.1,0.2,2.1v0c-0.1,0.6-0.7,3-1,3.9 c-0.1,0.6-0.6,1.2-1.2,1.4v2.6c0,0.7-0.2,1.4-0.5,1.9c-1.8,2.4-3.9,4.4-6.4,6c0,0.8,0,1.5,0.2,2.3c0.1,0.3,0.5,0.6,0.9,0.7 c0.4,0.1,8.1,2.8,9.3,3.3l0.9,0.3c3.9,1.2,4,4.1,4.1,10.4c0,1.3,0.1,2.7,0.1,4.2c0,0.2-0.1,0.3-0.2,0.4 C65.9,84.3,57.6,86.8,49,86.8z M29.9,79.8c11.8,10.1,32.8,5.5,39,0.7c-0.1-1.5-0.1-2.8-0.1-4c-0.2-6.2-0.2-8.5-3.4-9.5 c0,0,0,0,0,0l-0.9-0.4c-1.2-0.5-9.1-3.2-9.2-3.3c-0.7-0.2-1.3-0.7-1.5-1.4c-0.3-1-0.3-2-0.3-2.9c0-0.2,0.1-0.3,0.2-0.4 c2.5-1.6,4.6-3.5,6.3-5.9c0.2-0.4,0.4-0.9,0.4-1.4l0-3c0-0.2,0.2-0.5,0.4-0.5c0.4-0.1,0.8-0.4,0.8-0.8c0.4-1.2,1-3.7,1-3.9 c0.2-0.6,0.2-1-0.1-1.3c-0.3-0.4-0.8-0.6-1.6-0.6c-0.1,0-0.3,0-0.4-0.1c-0.1-0.1-0.2-0.2-0.2-0.4c0-0.8,0-1.2,0.2-1.4 c0.2-0.4,0.3-0.9,0.3-1.4c0-5.9-5.3-10.8-11.9-10.8c-6.6,0-11.9,4.8-11.9,10.8c0,0.5,0.2,1,0.4,1.4c0,0,0,0.1,0,0.1 c0.1,0.4,0.1,0.8,0.1,1.1c0,0.1,0,0.3-0.1,0.4s-0.2,0.1-0.4,0.1c-0.4,0-1,0.1-1.3,0.4c-0.3,0.4-0.1,0.9,0,1.3 c0,0.1,0.6,2.7,1,3.9c0.1,0.5,0.5,0.9,1,0.9c0,0,0,0,0,0c0.1,0,0.3,0.1,0.4,0.1c0.1,0.1,0.1,0.2,0.1,0.4V51 c0,0.9,0.2,1.8,0.8,2.5c0.7,1,3.1,2.9,5.8,4.6c0.1,0.1,0.2,0.3,0.2,0.4c0,0.8-0.2,2.8-0.3,3.4c-0.3,0.8-0.9,1.4-1.7,1.5l-7.7,2.6 c-0.7,0.2-1.4,0.5-2.1,0.9c-1.7,0.9-3.7,3.8-3.4,12.7C29.9,79.6,29.9,79.7,29.9,79.8z"/><path fill="#472b29" d="M49.8,60.3c-1.9,0-5-1.7-5.2-1.7c-0.1-0.1-0.2-0.2-0.1-0.3c0.1-0.1,0.2-0.2,0.3-0.1 c0,0,3.4,1.8,5.1,1.7c1.5-0.3,3-0.8,4.3-1.6c0.1-0.1,0.3,0,0.3,0.1c0.1,0.1,0,0.3-0.1,0.3c-1.4,0.8-2.9,1.4-4.5,1.7 C49.9,60.3,49.8,60.3,49.8,60.3z"/><path fill="#512c2b" d="M49.1,22.7C37.7,22.7,33.6,32.4,37,42c0.1,0.3,0.4,0.4,0.6,0.4c0.2-0.1,0.4-0.2,0.4-0.5 c0.5-5.4,3-10,11.2-7.7c8.1-2.3,10.7,2.3,11.1,7.7c0,0.3,0.3,0.5,0.5,0.5c0.2,0,0.4-0.2,0.5-0.4C64.7,32.4,60.6,22.7,49.1,22.7z"/><path fill="#ee3e54" d="M48.1 41.3c-2.3-2.7-10.7-.8-10.7-.8.2.6.3 1.2.4 1.8.6.1.7 1.5.7 2 .3 2.5 2 4.3 5.5 4.3 2.4 0 4.4-1.9 4.5-4.3 0 0 0 0 0 0C48.6 43.2 48.5 42.2 48.1 41.3zM47.7 44.4c0 2-1.7 3.7-3.7 3.6 0 0 0 0-.1 0-.2 0-.4 0-.7 0-3.5 0-4.1-3.1-4.2-5-.1-1.1.8-2.1 1.9-2.2.7-.1 1.4-.1 2.2-.1 2.6 0 3.8.6 4 1.1C47.6 42.7 47.8 43.5 47.7 44.4zM50.6 44.2c0 2.4 2 4.4 4.5 4.3 0 0 0 0 0 0 3.5.1 5.2-1.8 5.5-4.3.1-.5.1-1.9.7-2 .1-.6.3-1.2.4-1.8 0 0-8.5-1.9-10.7.8C50.6 42.2 50.5 43.2 50.6 44.2zM51.9 41.9c.3-.5 1.4-1.1 4.1-1.1.8 0 1.5 0 2.2.1 1.1.1 1.9 1.1 1.9 2.2-.1 1.9-.7 5-4.2 5-.2 0-.4 0-.7 0-2 .1-3.7-1.5-3.8-3.6 0 0 0 0 0-.1C51.3 43.5 51.5 42.7 51.9 41.9z"/><path fill="#ee3e54" d="M51.1,43.4c-0.5-0.3-1-0.5-1.6-0.4c-0.5,0-1,0.1-1.5,0.5l-0.5-1.3h4L51.1,43.4z"/><g><path fill="#fdfcee" d="M69.7 57.50000000000001A14.4 14.4 0 1 0 69.7 86.30000000000001A14.4 14.4 0 1 0 69.7 57.50000000000001Z"/><path fill="#472b29" d="M69.7,86.7c-8.2,0-14.8-6.6-14.8-14.8c0-8.2,6.6-14.8,14.8-14.8s14.8,6.6,14.8,14.8 C84.5,80,77.8,86.7,69.7,86.7z M69.7,57.8c-7.8,0-14.1,6.3-14.1,14.1s6.3,14.1,14.1,14.1s14.1-6.3,14.1-14.1S77.4,57.8,69.7,57.8 z"/></g><g><path fill="#88ae45" d="M69.7 60.00000000000001A11.9 11.9 0 1 0 69.7 83.80000000000001A11.9 11.9 0 1 0 69.7 60.00000000000001Z"/><path fill="#472b29" d="M69.7,84c-6.7,0-12.2-5.5-12.2-12.2c0-6.7,5.5-12.2,12.2-12.2s12.2,5.5,12.2,12.2 C81.8,78.6,76.4,84,69.7,84z M69.7,60.2c-6.4,0-11.7,5.2-11.7,11.7s5.2,11.7,11.7,11.7s11.7-5.2,11.7-11.7S76.1,60.2,69.7,60.2z"/></g><path fill="#b0d65f" d="M69.6,61.7c5.1,0,9.7,3.2,11.5,8 c-1.2-6.4-7.4-10.5-13.7-9.3c-4.7,0.9-8.4,4.6-9.3,9.3C59.9,64.9,64.5,61.7,69.6,61.7z" opacity=".79"/><g><path fill="#f1bc19" d="M68.7 71.7L64.3 76.6 64.3 78 65.8 78 65.8 77.9 65.6 77.3 66.2 77.2 66.1 76.7 66.7 76.7 66.6 76.2 67.4 76.2 70.2 73"/><path fill="#472b29" d="M65.8,78.2h-1.5c-0.1,0-0.2-0.1-0.2-0.2l0-1.4c0,0,0-0.1,0-0.1l4.5-5c0.1-0.1,0.2-0.1,0.2,0 c0.1,0.1,0.1,0.2,0,0.2l-4.4,4.9l0,1.1h1.1l-0.2-0.5c0-0.1,0-0.1,0-0.2c0,0,0.1-0.1,0.1-0.1l0.4,0l-0.1-0.3c0,0,0-0.1,0-0.1 s0.1-0.1,0.1-0.1l0.4,0l-0.1-0.3c0-0.1,0-0.1,0-0.2c0,0,0.1-0.1,0.1-0.1l0.8,0l2.8-3.1c0.1-0.1,0.2-0.1,0.2,0 c0.1,0.1,0.1,0.2,0,0.2l-2.8,3.2c0,0-0.1,0.1-0.1,0.1l-0.6,0l0.1,0.3c0,0,0,0.1,0,0.1c0,0-0.1,0.1-0.1,0.1l-0.4,0l0.1,0.3 c0,0,0,0.1,0,0.1s-0.1,0.1-0.1,0.1l-0.4,0l0.2,0.5c0,0.1,0,0.1,0,0.2l-0.1,0.1C65.9,78.2,65.8,78.2,65.8,78.2z"/></g><g><path fill="#ee3e54" d="M74.5,67.8c-1.1-1.5-3.3-1.9-4.9-0.7c-1.5,1.1-1.9,3.3-0.7,4.9c1.1,1.5,3.3,1.9,4.9,0.7 c0,0,0,0,0,0C75.3,71.5,75.6,69.3,74.5,67.8z M73.8,71.1l-3.7-3.3c1.1-0.8,2.7-0.5,3.5,0.6C74.2,69.3,74.3,70.3,73.8,71.1z"/><path fill="#472b29" d="M71.7,73.5c-0.2,0-0.4,0-0.6,0c-1-0.1-1.8-0.7-2.4-1.5c-1.2-1.6-0.9-4,0.8-5.2 c1.6-1.2,4-0.9,5.2,0.8l0,0c1.2,1.6,0.9,4-0.8,5.2c0,0,0,0,0,0C73.2,73.3,72.4,73.5,71.7,73.5z M71.7,66.6 c-0.7,0-1.3,0.2-1.9,0.6c-1.4,1.1-1.7,3.1-0.7,4.5c0.5,0.7,1.3,1.2,2.1,1.3c0.9,0.1,1.7-0.1,2.4-0.6c0,0,0,0,0,0 c1.4-1.1,1.7-3.1,0.7-4.5l0,0C73.6,67,72.7,66.6,71.7,66.6z M73.8,71.4c-0.1,0-0.1,0-0.2-0.1L70,68C70,68,70,67.9,70,67.9 c0-0.1,0-0.1,0.1-0.2c0.6-0.4,1.3-0.6,2.1-0.4c0.7,0.1,1.3,0.5,1.8,1.1c0.6,0.9,0.6,2,0.2,2.9C74,71.3,74,71.4,73.8,71.4 C73.9,71.4,73.9,71.4,73.8,71.4z M70.6,67.9l3.2,2.9c0.3-0.7,0.2-1.5-0.3-2.1c-0.3-0.5-0.9-0.8-1.5-1 C71.5,67.6,71,67.7,70.6,67.9z"/></g><path fill="#472b29" d="M64.3 77.8C64.3 77.8 64.3 77.7 64.3 77.8c-.1-.1-.1-.1-.1-.2l3-3.4c0 0 .1 0 .1 0 0 0 0 .1 0 .1L64.3 77.8C64.4 77.7 64.4 77.8 64.3 77.8zM67.7 74C67.7 74 67.7 74 67.7 74c-.1-.1-.1-.1-.1-.2l.3-.3c0 0 .1 0 .1 0 0 0 0 .1 0 .1L67.7 74C67.8 74 67.7 74 67.7 74zM68.3 73.3C68.3 73.3 68.3 73.3 68.3 73.3c-.1-.1-.1-.1-.1-.2l0 0c0 0 .1 0 .1 0 0 0 0 .1 0 .1L68.3 73.3C68.4 73.3 68.3 73.3 68.3 73.3zM74 69.4C74 69.4 74 69.4 74 69.4c-.4 0-.8-.2-1.1-.5-.4-.3-.6-.8-.6-1.3 0-.5.1-1 .5-1.4.7-.8 1.9-.9 2.7-.2s.9 1.9.2 2.7c-.1.1-.2.2-.3.3-.1.1-.2 0-.2 0-.1-.1 0-.2 0-.2.1-.1.2-.1.3-.2.6-.7.5-1.7-.1-2.3-.7-.6-1.7-.5-2.3.1-.3.3-.4.7-.4 1.2 0 .4.2.8.5 1.1.2.2.6.4.9.4.1 0 .2.1.2.2C74.2 69.3 74.1 69.4 74 69.4z"/></svg>