<svg xmlns="http://www.w3.org/2000/svg" viewBox="0 0 24 24"><path d="M 2.59375 0 C 2.59375 0 0 0.898438 0 3.5 C 0 5.199219 1.699219 7 4 7 C 5.023438 7 5.910156 6.898438 6.6875 6.71875 C 6.554688 6.914063 6.4375 7.109375 6.3125 7.3125 C 4.613281 9.011719 3.601563 8 1.5 8 C 0.800781 8 0 8.300781 0 9.5 C 0 12.300781 2.789063 12.601563 4.6875 11 C 4.1875 12.300781 4 13.5 4 14 C 4 15.777344 6.925781 17.863281 7 21.1875 C 7 21.230469 7 21.269531 7 21.3125 C 7 21.3125 7.03125 21.285156 7.03125 21.28125 C 7.117188 22.742188 9.160156 24 12 24 C 14.898438 24 17 22.8125 17 21.3125 C 17 18.113281 20 15.800781 20 14 C 20 13.5 19.8125 12.398438 19.3125 11 C 21.113281 12.601563 24 12.300781 24 9.5 C 24 8.300781 23.199219 8 22.5 8 C 20.398438 8 19.488281 9.011719 17.6875 7.3125 C 17.5625 7.109375 17.445313 6.914063 17.3125 6.71875 C 18.089844 6.898438 18.976563 7 20 7 C 22.300781 7 24 5.199219 24 3.5 C 24 0.898438 21.40625 0 21.40625 0 C 21.40625 0 22.40625 0.894531 22.40625 2.59375 C 22.40625 4.84375 17.820313 5.15625 14.96875 4.09375 C 14.082031 3.421875 13.09375 3 12 3 C 10.90625 3 9.917969 3.421875 9.03125 4.09375 C 6.179688 5.15625 1.59375 4.84375 1.59375 2.59375 C 1.59375 0.894531 2.59375 0 2.59375 0 Z M 7 12.09375 L 10 13.90625 C 10 14.007813 9.085938 14.707031 8.1875 14.40625 C 6.585938 13.804688 7 12.09375 7 12.09375 Z M 17 12.1875 C 17 12.085938 17.414063 13.804688 15.8125 14.40625 C 14.914063 14.707031 14 14 14 14 Z M 12 19.5 C 13.898438 19.5 15 21.113281 15 21.3125 C 15 21.414063 14.707031 21.511719 14.40625 21.8125 C 13.707031 22.3125 14.113281 21.3125 13.3125 21.3125 C 12.511719 21.3125 13.5 22.1875 12 22.1875 C 10.5 22.1875 11.585938 21.3125 10.6875 21.3125 C 9.988281 21.3125 10.300781 22.085938 9.5 21.6875 C 9.199219 21.488281 9 21.414063 9 21.3125 C 9 21.113281 10.101563 19.5 12 19.5 Z"/></svg>