<svg xmlns="http://www.w3.org/2000/svg" width="512" height="512" viewBox="0 0 512 512"><path fill="#49A0AE" d="M7.9,256C7.9,119,119,7.9,256,7.9C393,7.9,504.1,119,504.1,256c0,137-111.1,248.1-248.1,248.1C119,504.1,7.9,393,7.9,256z"/><path fill="#444545" d="M325.2,393.4c-20,0-36.3-5.7-48.8-17c-27.8-25.1-25-68.5-24.8-70.4l15.6,1.1l-7.8-0.6l7.8,0.6c0,0.4-2.3,37.7,19.8,57.7c13,11.7,32.2,15.4,57.3,11.1c29.3-5.1,63.1-55.8,61.2-111.2c-1.2-35-18.8-95.3-122-105.7c-67-6.8-149.8,2.3-163.9,83.6c-5,28.9,7.6,58.7,38.4,91.2l-11.4,10.8c-34-35.8-48.3-71-42.5-104.6c12.5-72.7,76.8-107,180.9-96.6c119.4,12,134.9,88.5,136.1,120.8c2.1,58.4-34,120.2-74.1,127.1C339.2,392.7,332,393.4,325.2,393.4z"/><path fill="#E9E9EA" d="M168.4,350.7c0,0-0.3,1.4-2.6,3c-2.5,1.7-3.6,1.8-3.6,1.8l-7.8-10l6.2-4.8L168.4,350.7z"/><path fill="#444545" d="M170.9,341.3c0,0-2.7,4.5-8,8.7c-5.3,4.2-10.5,6.9-10.5,6.9l-32.3-43.3l14.2-11.9L170.9,341.3z"/><g><path fill="#525252" d="M249.3 307.2L246.4 261.9 272.3 262.9 268.7 307.9z"/><path fill="#444445" d="M298.6,177.6h-66.2c-23.6,0-42.6,9.6-42.6,21.5c0,11.9,19.1,21.5,42.6,21.5h66.2c23.6,0,42.6-9.6,42.6-21.5C341.2,187.3,322.1,177.6,298.6,177.6z"/><path fill="#5A5A5A" d="M267.8,133.6c37.3,1.4,66.5,32.7,65.1,70c-1.4,37.3-32.7,66.5-70,65.1c-37.3-1.4-66.5-32.7-65.1-70C199.1,161.3,230.5,132.2,267.8,133.6z"/><path fill="#717171" d="M266.2,177.6c13,0.5,23.2,11.4,22.7,24.4c-0.5,13-11.4,23.2-24.4,22.7c-13-0.5-23.2-11.4-22.7-24.4C242.2,187.3,253.2,177.1,266.2,177.6z"/><path fill="#5A5A5A" d="M266,182.7c10.2,0.4,18.2,8.9,17.8,19.1c-0.4,10.2-8.9,18.2-19.1,17.8c-10.2-0.4-18.1-8.9-17.8-19.1C247.2,190.3,255.8,182.3,266,182.7z"/><path fill="#525252" d="M274.9,191.7c4.5,4.9,5.1,11.6,1.4,15.1c-3.7,3.5-20.1-14.1-16.3-17.5C263.7,185.7,270.4,186.8,274.9,191.7z"/><g><path fill="#676767" d="M269.4 163.3c19.4.7 34.7 17.1 33.9 36.5l16.7.6c1.1-28.7-21.3-52.7-50-53.8-.1 0-.2 0-.3 0l-.6 16.7C269.2 163.3 269.3 163.3 269.4 163.3zM264.4 163.1c-19.4-.7-35.8 14.5-36.5 33.9l-16.7-.6c1.1-28.7 25.1-51 53.8-50 .1 0 .2 0 .3 0l-.6 16.7C264.6 163.1 264.5 163.1 264.4 163.1zM266.6 238.8c19.5.7 35.8-14.5 36.5-33.9l16.7.6c-1 28.7-25.1 51-53.8 50-.1 0-.2 0-.3 0l.6-16.7C266.5 238.8 266.5 238.8 266.6 238.8zM261.6 238.6c-19.5-.7-34.6-17.1-33.9-36.5l-16.7-.6c-1 28.7 21.3 52.7 50 53.8.1 0 .2 0 .3 0l.6-16.7C261.8 238.6 261.7 238.6 261.6 238.6z"/></g></g></svg>