<svg xmlns="http://www.w3.org/2000/svg" viewBox="0 0 128 128"><path fill="#fff" d="M86,9H32c-5.5,0-10,4.5-10,10v90c0,5.5,4.5,10,10,10h64c5.5,0,10-4.5,10-10V29C106,18,97,9,86,9z"/><path fill="#444b54" d="M106,39C105.9,39,105.9,39,106,39c-1.7,0-3,1.3-3,3l0,67c0,1.9-0.7,3.6-2,5s-3.1,2.1-5,2.1H30c-1.7,0-5-3-5-7V19c0-3.9,3.1-7,7-7h51v7c0,7.2,5.8,13,13,13h9.6c0.1,0,0.2,0,0.4,0c0,0,0,0,0,0c1.2,0,2.3-0.8,2.8-1.8c0.2-0.4,0.3-0.8,0.3-1.2c0-0.1,0-0.3,0-0.4c-0.1-6-2.5-11.6-6.7-15.9C97.9,8.4,92.1,6,86,6H32c-7.2,0-13,5.8-13,13v90c0,7.3,5.9,13,11,13h66c3.5,0,6.7-1.4,9.2-3.8c2.5-2.5,3.8-5.7,3.8-9.2l0-67C108.9,40.3,107.6,39,106,39z M102.7,26H96c-3.9,0-7-3.1-7-7v-6.7c3.4,0.6,6.5,2.2,9,4.7C100.5,19.5,102.1,22.6,102.7,26z"/><path fill="#d3d8dd" d="M86 62H42c-1.7 0-3-1.3-3-3s1.3-3 3-3h44c1.7 0 3 1.3 3 3S87.7 62 86 62zM76 32H52c-1.7 0-3-1.3-3-3s1.3-3 3-3h24c1.7 0 3 1.3 3 3S77.7 32 76 32zM86 77H42c-1.7 0-3-1.3-3-3s1.3-3 3-3h44c1.7 0 3 1.3 3 3S87.7 77 86 77zM71.2 92h-29c-1.7 0-3-1.3-3-3s1.3-3 3-3h29c1.7 0 3 1.3 3 3S72.9 92 71.2 92zM86 86A3 3 0 1 0 86 92 3 3 0 1 0 86 86z"/></svg>