<?xml version="1.0"?><svg xmlns="http://www.w3.org/2000/svg" viewBox="0 0 128 128">    <path d="M 65.611328 11.078125 C 56.534546 11.037598 47.400391 12.625 38.900391 16 C 23.200391 22.3 11.100781 33.900391 5.8007812 47.900391 C 1.2007813 60.000391 2.0003906 73.100781 7.9003906 84.800781 C 18.000391 104.70078 39.199609 116.59961 64.599609 116.59961 C 78.499609 116.59961 90.200391 106.80039 92.400391 93.400391 C 92.700391 91.800391 91.600391 90.200391 89.900391 89.900391 C 88.300391 89.600391 86.700391 90.700391 86.400391 92.400391 C 84.600391 103.00039 75.4 110.59961 64.5 110.59961 C 41.4 110.59961 22.199609 99.899609 13.099609 82.099609 C 8.0996094 71.899609 7.4003906 60.5 11.400391 50 C 16.100391 37.6 26.899609 27.199609 41.099609 21.599609 C 65.999609 11.699609 96.799219 18.399219 112.69922 37.199219 L 113.59961 38.300781 C 115.69961 40.700781 116.09961 41.200781 117.59961 44.300781 C 120.89961 51.200781 118.5 59.4 112 63.5 C 109.6 65 107.70078 65.699219 105.80078 65.699219 L 99.599609 65.699219 C 94.499609 65.699219 89.899219 68.700781 87.699219 73.300781 C 86.999219 74.800781 87.699219 76.600781 89.199219 77.300781 C 90.699219 78.000781 92.499219 77.300781 93.199219 75.800781 C 94.299219 73.300781 96.799609 71.699219 99.599609 71.699219 L 105.80078 71.699219 C 109.70078 71.699219 112.79961 69.999609 115.09961 68.599609 C 124.39961 62.899609 127.69961 51.399219 123.09961 41.699219 C 121.19961 37.899219 120.39922 36.900391 118.19922 34.400391 L 117.30078 33.300781 C 105.26953 19.138281 85.580249 11.167285 65.611328 11.078125 z M 74.837891 23.222656 A 11.3 11.3 0 0 0 68.384766 24.943359 A 11.3 11.3 0 0 0 64.818359 40.519531 A 11.3 11.3 0 0 0 80.396484 44.085938 A 11.3 11.3 0 0 0 83.962891 28.509766 A 11.3 11.3 0 0 0 74.837891 23.222656 z M 46.728516 27.630859 A 11.3 11.3 0 0 0 40.275391 29.347656 A 11.3 11.3 0 0 0 36.703125 44.923828 A 11.3 11.3 0 0 0 52.28125 48.496094 A 11.3 11.3 0 0 0 55.851562 32.919922 A 11.3 11.3 0 0 0 46.728516 27.630859 z M 99.841797 36.226562 A 11.3 11.3 0 0 0 93.386719 37.945312 A 11.3 11.3 0 0 0 89.816406 53.521484 A 11.3 11.3 0 0 0 105.39258 57.091797 A 11.3 11.3 0 0 0 108.96484 41.515625 A 11.3 11.3 0 0 0 99.841797 36.226562 z M 27.853516 49.732422 A 11.3 11.3 0 0 0 21.398438 51.449219 A 11.3 11.3 0 0 0 17.828125 67.025391 A 11.3 11.3 0 0 0 33.404297 70.597656 A 11.3 11.3 0 0 0 36.976562 55.021484 A 11.3 11.3 0 0 0 27.853516 49.732422 z M 62.992188 71.574219 C 59.998047 71.466992 56.936719 72.212891 54.199219 73.900391 C 46.999219 78.400391 44.800781 87.999219 49.300781 95.199219 C 51.500781 98.699219 54.9 101.09961 59 102.09961 C 60.2 102.39961 61.3 102.5 62.5 102.5 C 65.4 102.5 68.199219 101.69961 70.699219 100.09961 C 77.899219 95.599609 80.099609 86.000781 75.599609 78.800781 C 72.787109 74.300781 67.982422 71.75293 62.992188 71.574219 z M 62.400391 77.599609 C 65.600391 77.599609 68.7 79.2 70.5 82 C 73.3 86.4 71.9 92.299609 67.5 95.099609 C 65.4 96.399609 62.800781 96.900781 60.300781 96.300781 C 57.800781 95.700781 55.700391 94.199609 54.400391 92.099609 C 51.600391 87.699609 53.000391 81.8 57.400391 79 C 59.000391 78 60.700391 77.599609 62.400391 77.599609 z"/></svg>