<svg xmlns="http://www.w3.org/2000/svg" viewBox="0 0 16 16"><path d="M 5.0058594 1.0039062 C 4.4226105 1.0454884 3.8865658 1.4287636 3.6855469 2.0117188 L 1.0820312 9.5761719 C 0.81380711 10.354022 1.2344453 11.214397 2.0117188 11.482422 L 4 12.167969 L 4 13.5 C 4 14.322531 4.6774686 15 5.5 15 L 13.5 15 C 14.322531 15 15 14.322531 15 13.5 L 15 5.5 C 15 4.8417147 14.56368 4.2835272 13.96875 4.0839844 C 13.951542 4.0754786 13.957469 4.0754666 13.916016 4.0605469 L 13.910156 4.0585938 L 5.5957031 1.0839844 L 5.59375 1.0820312 C 5.3992875 1.0149752 5.2002757 0.99004554 5.0058594 1.0039062 z M 5.0683594 2 C 5.133342 1.9960262 5.2010407 2.0043998 5.2675781 2.0273438 L 10.777344 4 L 5.5 4 C 4.6774686 4 4 4.6774686 4 5.5 L 4 11.109375 L 2.3378906 10.537109 C 2.071164 10.445135 1.9355679 10.168494 2.0273438 9.9023438 L 4.6308594 2.3378906 C 4.6998404 2.1378457 4.8734115 2.0119213 5.0683594 2 z M 5.5 5 L 13.5 5 C 13.52091 5 13.56959 5.0078704 13.658203 5.0371094 L 13.660156 5.03125 C 13.859068 5.096822 14 5.2756296 14 5.5 L 14 13.5 C 14 13.781469 13.781469 14 13.5 14 L 5.5 14 C 5.2185314 14 5 13.781469 5 13.5 L 5 12.511719 L 5 5.5 C 5 5.4296328 5.0141772 5.3628032 5.0390625 5.3027344 C 5.1137183 5.1225279 5.2888985 5 5.5 5 z M 12.5 6 A 0.5 0.5 0 0 0 12 6.5 A 0.5 0.5 0 0 0 12.5 7 A 0.5 0.5 0 0 0 13 6.5 A 0.5 0.5 0 0 0 12.5 6 z"/></svg>