<svg xmlns="http://www.w3.org/2000/svg" viewBox="0 0 24 24"><path d="M 11.5 0 C 10.121094 0 9 1.121094 9 2.5 C 9 3.878906 10.121094 5 11.5 5 C 12.878906 5 14 3.878906 14 2.5 C 14 1.121094 12.878906 0 11.5 0 Z M 10.40625 6 C 9.105469 6 8 7.113281 8 8.3125 L 8 14.1875 C 8 15.6875 9.3125 17 10.8125 17 L 12.3125 17 C 14.8125 17 16.238281 16.820313 16.75 16.75 L 19.09375 21.4375 C 19.335938 21.9375 19.9375 22.148438 20.4375 21.90625 C 20.9375 21.664063 21.148438 21.0625 20.90625 20.5625 L 17.90625 14.5625 C 17.738281 14.214844 17.386719 13.996094 17 14 L 13 13.3125 L 13 8.3125 C 13 7.113281 11.886719 6 10.6875 6 Z M 7 10.3125 C 4.101563 11.210938 2 13.800781 2 17 C 2 20.898438 5.101563 24 9 24 C 12.5 24 15.40625 21.398438 15.90625 18 L 13.90625 18 C 13.40625 20.300781 11.398438 22 9 22 C 6.199219 22 4 19.800781 4 17 C 4 15 5.199219 13.207031 7 12.40625 Z"/></svg>