<svg xmlns="http://www.w3.org/2000/svg" viewBox="0 0 40 40"><path fill="#4788c7" d="M25.5 2L25.5 2C25.224 2 25 2.224 25 2.5v35c0 .276.224.5.5.5l0 0c.276 0 .5-.224.5-.5v-35C26 2.224 25.776 2 25.5 2zM18.5 2L18.5 2C18.224 2 18 2.224 18 2.5v35c0 .276.224.5.5.5l0 0c.276 0 .5-.224.5-.5v-35C19 2.224 18.776 2 18.5 2z"/><path fill="#4788c7" d="M27.5,3h-9C18.224,3,18,2.776,18,2.5v0C18,2.224,18.224,2,18.5,2h9C27.776,2,28,2.224,28,2.5v0 C28,2.776,27.776,3,27.5,3z"/><path fill="#dff0fe" d="M16,17.5c-4.136,0-7.5-3.364-7.5-7.5s3.364-7.5,7.5-7.5h2.5v15H16z"/><path fill="#4788c7" d="M18,3v14h-2c-3.86,0-7-3.14-7-7s3.14-7,7-7H18 M19,2h-3c-4.418,0-8,3.582-8,8s3.582,8,8,8h3V2L19,2z"/></svg>