<svg xmlns="http://www.w3.org/2000/svg" viewBox="0 0 40 40"><path fill="#ffeea3" d="M0.5 14.5H39.5V25.5H0.5z"/><path fill="#f5c276" d="M39,15v10H1V15H39 M40,14H0v12h40V14L40,14z"/><path fill="#8ee4ef" d="M0.5 5.5H39.5V14.5H0.5z"/><path fill="#4fa9b2" d="M39,6v8H1V6H39 M40,5H0v10h40V5L40,5z"/><g><path fill="#8ee4ef" d="M0.5 25.5H39.5V34.5H0.5z"/><path fill="#4fa9b2" d="M39,26v8H1v-8H39 M40,25H0v10h40V25L40,25z"/></g><g><path fill="#4b6477" d="M0.5 5.923L22.085 20.002 0.5 34.077z"/><path fill="#36404d" d="M1,6.846l20.169,13.156L1,33.154V6.846 M0,5v30l23-14.998L0,5L0,5z"/></g></svg>