<svg xmlns="http://www.w3.org/2000/svg" viewBox="0 0 24 24"><path d="M 7 0 C 9.398438 2.898438 9.3125 6.5 9.3125 6.5 C 9.3125 6.5 10.394531 6 11.09375 5.5 C 11.59375 7.800781 10.5 11 10.5 11 C 10.5 11 11.789063 11.105469 13.1875 10.40625 C 12.6875 12.105469 11.3125 14.6875 11.3125 14.6875 C 11.3125 14.6875 13.1875 15.1875 14.6875 15.1875 C 13.988281 17.585938 12 19.40625 12 19.40625 C 12 19.40625 15.101563 20.59375 19 19.59375 C 22.300781 18.695313 24 16.5 24 16.5 L 21.09375 13 C 20.292969 13.898438 18.59375 14.789063 17.59375 14.6875 C 17.695313 14.6875 17.804688 14.59375 17.90625 14.59375 C 20.90625 12.792969 22.5 10.59375 22.5 10.59375 L 18 8 C 18 8 16.613281 9.011719 15.3125 9.3125 C 17.710938 7.3125 18.59375 5.09375 18.59375 5.09375 L 13.59375 3.1875 C 12.394531 4.6875 12 4.6875 12 4.6875 C 13 3.1875 13.8125 1.3125 13.8125 1.3125 C 12.3125 0.3125 8.398438 0 7 0 Z M 0 18 L 0 20 L 11 20 L 11 18 Z M 20.3125 20.3125 C 20.3125 20.3125 19.007813 20.804688 17.90625 20.90625 C 17.90625 20.90625 17.898438 21.300781 18 21.5 C 18.300781 23.699219 15.492188 23 15.59375 24 L 23 24 C 22.699219 23 21.007813 23.789063 20.40625 20.6875 C 20.40625 20.6875 20.414063 20.414063 20.3125 20.3125 Z M 1.40625 21 L 0 24 L 1.40625 24 L 2.8125 21 Z M 8.1875 21 L 9.59375 24 L 11 24 L 9.59375 21 Z"/></svg>