<svg xmlns="http://www.w3.org/2000/svg" viewBox="0 0 24 24"><path d="M 12 0 L 12 3 C 15 3 14 4 16 4 L 17 4 L 17 1 L 16 1 C 14 1 15 0 12 0 Z M 12 4 C 9.539063 4 7.542969 5.6875 7.09375 8 L 6 8 L 6 10 L 7 10 L 7 13 L 9 13 L 9 10 L 11 10 L 11 13 L 13 13 L 13 10 L 15 10 L 15 13 L 17 13 L 17 10 L 18 10 L 18 8 L 16.90625 8 C 16.457031 5.6875 14.460938 4 12 4 Z M 0 14 L 0 24 L 24 24 L 24 14 Z M 3 16 L 5 16 L 5 18 L 3 18 Z M 7 16 L 9 16 L 9 18 L 7 18 Z M 11 16 L 13 16 L 13 18 L 11 18 Z M 15 16 L 17 16 L 17 18 L 15 18 Z M 19 16 L 21 16 L 21 18 L 19 18 Z M 3 20 L 5 20 L 5 22 L 3 22 Z M 7 20 L 9 20 L 9 22 L 7 22 Z M 11 20 L 13 20 L 13 22 L 11 22 Z M 15 20 L 17 20 L 17 22 L 15 22 Z M 19 20 L 21 20 L 21 22 L 19 22 Z"/></svg>