<svg xmlns="http://www.w3.org/2000/svg" width="512" height="512" viewBox="0 0 512 512"><path fill="#E5AA17" d="M7.9,256C7.9,119,119,7.9,256,7.9C393,7.9,504.1,119,504.1,256c0,137-111.1,248.1-248.1,248.1C119,504.1,7.9,393,7.9,256z"/><path fill="#FFF" d="M345.8,119.3c0-15.3-179.9-15.3-179.9,0c0,0,0,20,0,21.3c0,51.6,40.3,93.4,89.9,93.4c49.7,0,89.9-41.8,89.9-93.4C345.8,139.3,345.8,119.3,345.8,119.3z"/><path fill="#FFF" d="M276.2,335.1c0,11-39.8,11-39.8,0l-12.7-109.8c0-11,65.2-11,65.2,0L276.2,335.1z"/><path fill="#FFF" d="M324.6,342.1c-6-11.8-34.2-15-68.4-15v0c-0.1,0-0.1,0-0.2,0s-0.1,0-0.2,0v0c-34.2,0-62.3,3.2-68.4,15c-6.1,11.9-3.8,61.5-3.8,62.1h72.2h0.4h72.2C328.4,403.6,330.6,354,324.6,342.1z"/><g><path fill="#FFF" d="M332.1 229.2c-16.8 0-30.4-12.5-31-13.1-2.5-2.3-2.6-6.2-.3-8.6 2.3-2.5 6.2-2.6 8.7-.3.1.1 13.2 12.1 26.6 9.4 8.6-1.7 16-9.3 22-22.5 6.3-13.8 7.2-24.7 2.8-32.5-6.2-10.9-21.6-12.8-21.8-12.9-3.4-.4-5.8-3.4-5.4-6.7.4-3.4 3.4-5.8 6.7-5.4.9.1 21.7 2.5 31.1 19 6.5 11.4 5.7 26-2.3 43.6-7.7 17-18.1 26.9-30.8 29.4C336.3 229 334.1 229.2 332.1 229.2zM179.9 229.2c16.8 0 30.4-12.5 31-13.1 2.5-2.3 2.6-6.2.3-8.6-2.3-2.5-6.2-2.6-8.7-.3-.1.1-13.2 12.1-26.6 9.4-8.6-1.7-16-9.3-22-22.5-6.3-13.8-7.2-24.7-2.8-32.5 6.2-10.9 21.6-12.8 21.8-12.9 3.4-.4 5.8-3.4 5.4-6.7-.4-3.4-3.4-5.8-6.7-5.4-.9.1-21.7 2.5-31.1 19-6.5 11.4-5.7 26 2.3 43.6 7.7 17 18.1 26.9 30.8 29.4C175.7 229 177.9 229.2 179.9 229.2z"/></g></svg>