<svg xmlns="http://www.w3.org/2000/svg" viewBox="0 0 24 24"><path d="M 12 0.9140625 L 1 5.546875 L 1 23 L 23 23 L 23 22 L 23 5.546875 L 12 0.9140625 z M 7.8984375 7 L 9 7 L 9 9 L 8 9 L 8 11.429688 C 8 12.295687 8.897 13 10 13 C 11.103 13 12 12.294734 12 11.427734 L 12 9.0019531 L 11 9 L 11 7 L 12.101562 7 C 13.147562 7 14 7.7935313 14 8.7695312 L 14 11.429688 C 14 13.096687 12.709563 14.488859 10.976562 14.880859 C 10.981563 14.921859 11 14.958 11 15 L 11 15.152344 C 11 16.723344 12.121 18 13.5 18 C 14.715 18 15.727172 17.006312 15.951172 15.695312 C 15.382172 15.343312 15 14.719 15 14 C 15 12.895 15.895 12 17 12 C 18.105 12 19 12.895 19 14 C 19 14.761 18.569359 15.415906 17.943359 15.753906 C 17.665359 18.140906 15.791 20 13.5 20 C 11.019 20 9 17.825344 9 15.152344 L 9 15 C 9 14.957 9.0184375 14.921859 9.0234375 14.880859 C 7.2904375 14.489859 6 13.096687 6 11.429688 L 6 8.7695312 C 6 7.7935313 6.8524375 7 7.8984375 7 z"/></svg>