<?xml version="1.0"?><svg xmlns="http://www.w3.org/2000/svg" viewBox="0 0 30 30">    <path d="M24,4H6C4.895,4,4,4.895,4,6v18c0,1.105,0.895,2,2,2h18c1.105,0,2-0.895,2-2V6C26,4.895,25.105,4,24,4z M23.28,10.5 l-0.72-0.36c-0.12,0.06-0.18,0.18-0.12,0.18c-0.12,0.06-0.18,0.18-0.3,0.24l1.02,0.48l-0.36,0.6l-1.26-0.6 c-0.06,0.06-0.18,0.12-0.24,0.18c-0.12,0.12-0.24,0.18-0.36,0.24l1.5,0.72l-0.48,0.6l-1.8-0.84c-0.12,0.12-0.24,0.18-0.36,0.24 s-0.18,0.12-0.3,0.18l2.04,0.96l-0.6,0.54l-2.28-1.02c-0.24,0.12-0.48,0.24-0.72,0.36l2.4,1.08l-0.72,0.48l-2.52-1.14 c-0.24,0.12-0.42,0.24-0.66,0.36c-0.06,0-0.06,0-0.06,0l2.64,1.2l-0.66,0.48l-2.7-1.26c-0.24,0.12-0.42,0.24-0.66,0.36l2.94,1.26 l-1.08,0.6l-2.76-1.26c-0.24,0.18-0.48,0.3-0.66,0.42l2.76,1.26l-1.26,0.78l-2.7-1.2c-0.06,0-0.12,0.06-0.18,0.12 c-0.12,0.06-0.24,0.18-0.36,0.24l2.58,1.2L13.2,19.2l-2.76-1.14c-0.18,0.12-0.3,0.3-0.48,0.42l2.76,1.26L11.58,21l-3.42-1.32 c0,0-1.98,2.16-2.16,2.52v-1.08c0,0,1.2-1.38,1.8-1.92v-0.3v-4.08L9,13.98v3.84c0.06,0,0.12-0.06,0.18-0.12 c0.12-0.12,0.24-0.24,0.42-0.36v-3.78c0.24-0.18,0.78-0.54,1.2-0.78v3.66c0.18-0.12,0.42-0.3,0.6-0.42v-3.6L12.6,12v3.24 c0.12-0.06,0.18-0.12,0.3-0.18s0.18-0.12,0.3-0.18v-3.12l1.2-0.3v2.82c0.06,0,0.06-0.06,0.12-0.06c0.18-0.06,0.3-0.18,0.48-0.24 v-2.64l1.2-0.18v2.28c0.18-0.12,0.42-0.18,0.6-0.3v-2.16l0.6-0.12v1.98c0.18-0.12,0.42-0.18,0.6-0.3v-1.8l0.6-0.12v1.68 c0.18-0.12,0.42-0.18,0.6-0.3v-1.56l0.6-0.18v1.44c0.18-0.06,0.42-0.18,0.6-0.3v-1.38L21,9.78v1.26c0.18-0.12,0.42-0.24,0.6-0.36 v-1.2l0.6-0.36v1.08l0.06-0.06L22.8,9.6V8.7L24,7.8C24,7.8,23.82,9.66,23.28,10.5z"/></svg>