<svg xmlns="http://www.w3.org/2000/svg" viewBox="0 0 64 64"><radialGradient id="AKlErRK6wu43SiGDIMcmxa" cx="30.833" cy="35.917" r="26" gradientUnits="userSpaceOnUse" spreadMethod="reflect"><stop offset="0" stop-color="#f4e09d"/><stop offset=".226" stop-color="#f8e8b5"/><stop offset=".513" stop-color="#fcf0cd"/><stop offset=".778" stop-color="#fef4dc"/><stop offset="1" stop-color="#fff6e1"/></radialGradient><path fill="url(#AKlErRK6wu43SiGDIMcmxa)" d="M4,8L4,8c2.209,0,4-1.791,4-4v0c0-2.209-1.791-4-4-4h0C1.791,0,0,1.791,0,4v0 C0,6.209,1.791,8,4,8z"/><radialGradient id="AKlErRK6wu43SiGDIMcmxb" cx="31" cy="32" r="31.504" gradientUnits="userSpaceOnUse" spreadMethod="reflect"><stop offset="0" stop-color="#e9ce8e"/><stop offset="0" stop-color="#eddfb9"/><stop offset=".309" stop-color="#f6e9cb"/><stop offset=".685" stop-color="#fdf2d9"/><stop offset="1" stop-color="#fff5de"/></radialGradient><path fill="url(#AKlErRK6wu43SiGDIMcmxb)" d="M62,20.5L62,20.5c0-2.485-2.015-4.5-4.5-4.5H49c-2.209,0-4-1.791-4-4v0c0-2.209,1.791-4,4-4 h2c2.209,0,4-1.791,4-4v0c0-2.209-1.791-4-4-4L15,0c-2.209,0-4,1.791-4,4v0c0,2.209,1.791,4,4,4h2c1.657,0,3,1.343,3,3v0 c0,1.657-1.343,3-3,3H5.5C3.567,14,2,15.567,2,17.5v0C2,19.433,3.567,21,5.5,21H7c1.657,0,3,1.343,3,3v0c0,1.657-1.343,3-3,3H5 c-2.761,0-5,2.239-5,5v0c0,2.761,2.239,5,5,5h4.5c1.933,0,3.5,1.567,3.5,3.5v0c0,1.933-1.567,3.5-3.5,3.5H9c-2.209,0-4,1.791-4,4v0 c0,2.209,1.791,4,4,4h4.5c1.381,0,2.5,1.119,2.5,2.5v0c0,1.381-1.119,2.5-2.5,2.5h0c-1.933,0-3.5,1.567-3.5,3.5v0 c0,1.933,1.567,3.5,3.5,3.5h34c1.933,0,3.5-1.567,3.5-3.5v0c0-1.933-1.567-3.5-3.5-3.5H47c-1.105,0-2-0.895-2-2v0 c0-1.105,0.895-2,2-2h7c2.209,0,4-1.791,4-4v0c0-2.209-1.791-4-4-4h-1.5c-1.381,0-2.5-1.119-2.5-2.5v0c0-1.381,1.119-2.5,2.5-2.5 H58c2.209,0,4-1.791,4-4v0c0-2.209-1.791-4-4-4h-1.5c-1.933,0-3.5-1.567-3.5-3.5v0c0-1.933,1.567-3.5,3.5-3.5h1 C59.985,25,62,22.985,62,20.5z"/><radialGradient id="AKlErRK6wu43SiGDIMcmxc" cx="80.979" cy="88.427" r="22.75" gradientUnits="userSpaceOnUse" spreadMethod="reflect"><stop offset="0" stop-color="#f4e09d"/><stop offset=".226" stop-color="#f8e8b5"/><stop offset=".513" stop-color="#fcf0cd"/><stop offset=".778" stop-color="#fef4dc"/><stop offset="1" stop-color="#fff6e1"/></radialGradient><path fill="url(#AKlErRK6wu43SiGDIMcmxc)" d="M57.5,64L57.5,64c1.933,0,3.5-1.567,3.5-3.5v0c0-1.933-1.567-3.5-3.5-3.5h0 c-1.933,0-3.5,1.567-3.5,3.5v0C54,62.433,55.567,64,57.5,64z"/><linearGradient id="AKlErRK6wu43SiGDIMcmxd" x1="32" x2="32" y1="58.904" y2="-11.557" gradientUnits="userSpaceOnUse" spreadMethod="reflect"><stop offset="0" stop-color="#155cde"/><stop offset=".278" stop-color="#1f7fe5"/><stop offset=".569" stop-color="#279ceb"/><stop offset=".82" stop-color="#2cafef"/><stop offset="1" stop-color="#2eb5f0"/></linearGradient><path fill="url(#AKlErRK6wu43SiGDIMcmxd)" d="M32,6C18.195,6,7,17.195,7,31s11.195,25,25,25s25-11.195,25-25S45.805,6,32,6z M51,31 c0,3.444-0.935,6.668-2.544,9.456L35,27V12.261C44.053,13.706,51,21.546,51,31z M29,49.739c-3.793-0.606-7.209-2.331-9.905-4.835 L29,35V49.739z M35,35l9.905,9.905c-2.696,2.504-6.112,4.229-9.905,4.835V35z M29,12.261V27L15.544,40.456 C13.935,37.668,13,34.444,13,31C13,21.546,19.947,13.706,29,12.261z"/></svg>