<?xml version="1.0"?><svg xmlns="http://www.w3.org/2000/svg" viewBox="0 0 128 128">    <path d="M 64 1 C 62.3 1 61 2.3 61 4 L 61 21.400391 C 55.3 22.800391 51 27.9 51 34 C 51 38.6 53.4 42.600391 57 44.900391 L 57 80 C 53.4 82.3 51 86.300391 51 90.900391 C 51 93.800391 51.999219 96.599219 53.699219 98.699219 L 41.199219 121 L 29 121 C 27.3 121 26 122.3 26 124 C 26 125.7 27.3 127 29 127 L 104 127 C 105.7 127 107 125.7 107 124 C 107 122.3 105.7 121 104 121 L 86.800781 121 L 74.300781 98.800781 C 76.000781 96.700781 77 93.9 77 91 C 77 86.4 74.6 82.399609 71 80.099609 L 71 44.900391 C 74.6 42.600391 77 38.6 77 34 C 77 27.9 72.7 22.700391 67 21.400391 L 67 4 C 67 2.3 65.7 1 64 1 z M 64 27 C 67.9 27 71 30.1 71 34 C 71 37.9 67.9 41 64 41 C 60.1 41 57 37.9 57 34 C 57 30.1 60.1 27 64 27 z M 63 46.900391 C 63.3 46.900391 63.7 47 64 47 C 64.3 47 64.7 47.000391 65 46.900391 L 65 78 C 64.7 78 64.3 77.900391 64 77.900391 C 63.7 77.900391 63.3 77.9 63 78 L 63 46.900391 z M 64 84 C 67.9 84 71 87.1 71 91 C 71 94.9 67.9 98 64 98 C 60.1 98 57 94.9 57 91 C 57 87.1 60.1 84 64 84 z M 63 103.90039 C 63.3 103.90039 63.7 104 64 104 C 64.3 104 64.7 104.00039 65 103.90039 L 65 121 L 63 121 L 63 103.90039 z M 57 105.09961 L 57 121 L 48.099609 121 L 57 105.09961 z M 71 105.09961 L 79.900391 121 L 71 121 L 71 105.09961 z M 14 121 A 3 3 0 0 0 11 124 A 3 3 0 0 0 14 127 A 3 3 0 0 0 17 124 A 3 3 0 0 0 14 121 z"/></svg>