<svg xmlns="http://www.w3.org/2000/svg" viewBox="0 0 48 48"><path fill="#73a1b2" d="M45.671,33.475c-0.241-0.709-1.172-0.838-1.921-0.843c-2.415-0.017-4.906-0.026-7.424-0.032 c0.116-3.583,0.232-7.194,0.347-10.505c0.051-1.47,0.103-2.941,0.048-4.41c-0.035-0.961-0.121-1.919-0.219-2.876 c2.021,0.035,4.179,0.175,5.904,0.252c0.577,0.026,1.2,0.031,1.675-0.296c1.041-0.717,0.751-3.202,0.024-3.294 c-2.337-0.066-5.343-0.021-7.969-0.039c-0.233-2.268-0.465-4.941-0.698-6.961c-0.05-0.438-0.111-0.902-0.388-1.245 c-0.277-0.343-1.034-0.498-1.341-0.181c-0.894,0.321-1.633,1.241-1.788,2.178s0.017,2.893,0.165,3.83 c0.121,0.763,0.223,1.535,0.315,2.311c-1.346-0.019-2.692,0.003-4.025,0.178c-1.444,0.189-5.087,0.202-6.543,0.209 c-2.425,0.012-4.55-0.09-6.557-0.215c-0.042-2.596-0.092-5.096-0.147-7.448c-0.004-0.172-0.009-0.348-0.066-0.51 c-0.194-0.553-0.939-0.734-1.486-0.522s-1.247,0.65-1.268,1.236c-0.073,2.143-0.12,4.517-0.147,7.043 c-2.704-0.172-5.349-0.295-8.416-0.116c-1.02,0.06-0.553,2.179-0.289,3.166c0.058,0.216,0.137,0.439,0.307,0.584 c0.217,0.186,0.527,0.202,0.813,0.21c2.438,0.064,4.983,0.226,7.559,0.384c-0.009,5.359,0.06,11.212,0.177,17.045 c-2.767,0.001-5.5,0-8.146-0.007c-0.786,0-0.763,0.751-0.853,1.304c-0.09,0.552,0.151,1.202,0.678,1.389 c0.175,0.062,0.364,0.069,0.549,0.075c2.523,0.083,5.163,0.1,7.834,0.101c0.068,2.986,0.148,5.946,0.235,8.806 c0.534,0.697,1.735,0.434,2.251-0.276c0.516-0.71,0.544-1.651,0.551-2.529c0.015-1.982,0.024-3.99,0.029-6.005 c3.528-0.007,7.051-0.011,10.371,0.098c2.355,0.077,4.634,0.301,6.939,0.403c-0.026,1.742-0.036,3.467-0.011,5.161 c0.009,0.621,0.027,1.262,0.281,1.829c0.254,0.567,0.807,1.047,1.428,1.021c1.172-0.049,1.549-1.585,1.59-2.757 c0.059-1.678,0.117-3.437,0.176-5.227c2.183-0.093,5.232-0.452,7.359-0.723c0.526-0.067,1.07-0.147,1.513-0.437 C45.531,34.541,45.841,33.977,45.671,33.475z M15.445,32.605c0-5.718-0.038-11.447-0.107-16.861 c4.604,0.245,9.234,0.35,13.518-0.264c1.294-0.185,2.584-0.402,3.883-0.538c0.399,5.777,0.209,11.784,0.077,17.653 C27.07,32.589,21.196,32.6,15.445,32.605z"/><path fill="#4b7bb2" d="M15.88,9.784c-1.939,1.516-4.277,2.51-5.625,4.569c-0.208,0.318-0.404,0.651-0.492,1.02 s-0.054,0.783,0.169,1.091c0.202,0.279,0.537,0.439,0.877,0.498c1.001,0.172,1.955-0.443,2.76-1.062 c1.387-1.066,2.722-2.265,3.561-3.8c0.2-0.366,0.373-0.759,0.398-1.176c0.025-0.416-0.122-0.862-0.457-1.11 C16.734,9.566,16.208,9.527,15.88,9.784z"/><path fill="#4b7bb2" d="M37.035,9.434c-0.887,0.073-1.801,0.408-2.495,0.965c-0.694,0.557-1.263,1.25-1.828,1.938 c-0.816,0.994-1.651,2.024-2.018,3.257c-0.083,0.279-0.135,0.602,0.024,0.846c0.154,0.236,0.459,0.324,0.74,0.339 c1.088,0.057,2.056-0.696,2.741-1.543c0.685-0.847,1.21-1.833,2.023-2.559c0.258-0.231,0.546-0.435,0.755-0.711 c0.386-0.51,0.45-1.186,0.492-1.824C37.487,9.86,37.318,9.411,37.035,9.434z"/><path fill="#4b7bb2" d="M15.988,30.366c-1.063,0.21-1.769,0.64-2.554,1.388s-1.43,1.627-2.071,2.501 c-0.49,0.669-0.994,1.367-1.145,2.183c-0.021,0.116-0.034,0.243,0.026,0.345c0.044,0.076,0.123,0.126,0.201,0.166 c0.529,0.268,1.18,0.198,1.717-0.055s0.977-0.668,1.391-1.093c0.953-0.981,1.812-2.053,2.562-3.197 c0.238-0.363,0.473-0.762,0.461-1.197C16.562,30.972,16.414,30.282,15.988,30.366z"/><path fill="#4b7bb2" d="M37.172,30.504c-0.848-0.278-1.951,0.456-2.595,1.074c-0.644,0.618-1.119,1.387-1.587,2.147 c-0.246,0.399-0.491,0.798-0.737,1.197c-0.33,0.536-0.668,1.094-0.742,1.719c-0.029,0.246-0.011,0.51,0.122,0.72 c0.181,0.284,0.542,0.409,0.879,0.405c0.853-0.01,1.535-0.678,2.118-1.3c0.941-1.004,1.883-2.008,2.824-3.012 c0.304-0.325,0.62-0.668,0.732-1.099C38.366,31.666,37.848,30.725,37.172,30.504z"/><path fill="#010101" d="M46.14,33.32v-0.01c-0.26-0.77-1.06-1.17-2.39-1.18c-1.642-0.009-3.328-0.017-5.03-0.019 c0.021-0.861-0.587-1.819-1.393-2.083c-0.136-0.045-0.274-0.062-0.411-0.073c0.085-2.683,0.169-5.349,0.254-7.845 c0.05-1.45,0.11-2.96,0.05-4.44c-0.03-0.82-0.09-1.62-0.16-2.35c1.23,0.03,2.52,0.1,3.67,0.16c0.58,0.03,1.14,0.06,1.65,0.08 c0.68,0.03,1.39,0.03,1.99-0.38c0.96-0.66,1-2.17,0.79-3.02c-0.17-0.7-0.52-1.13-1.04-1.19c-1.5-0.04-3.31-0.04-5.05-0.04 c-0.402,0.007-0.793,0.006-1.186,0.007c0.044-0.276,0.069-0.543,0.084-0.761c0.02-0.296-0.084-0.737-0.359-1.007 C37.438,9,37.217,8.916,36.995,8.937c-0.198,0.016-0.395,0.053-0.59,0.092c-0.011-0.124-0.021-0.245-0.034-0.369 c-0.15-1.5-0.29-3-0.43-4.25c-0.05-0.43-0.12-1.03-0.5-1.5c-0.25-0.31-0.7-0.52-1.16-0.54c-0.32-0.01-0.62,0.07-0.83,0.24 c-1.02,0.4-1.84,1.43-2.02,2.53c-0.18,1.08,0.04,3.19,0.16,3.99c0.09,0.57,0.17,1.15,0.25,1.73c-1.08,0-2.29,0.02-3.53,0.18 c-1.38,0.19-4.88,0.2-6.38,0.21h-0.1c-1.387,0.009-2.656-0.026-3.836-0.081c0.011-0.072,0.027-0.141,0.031-0.215 c0.037-0.624-0.215-1.215-0.66-1.543c-0.481-0.354-1.142-0.379-1.628-0.107C15.702,7.502,15.666,5.75,15.63,4.08 c-0.01-0.19-0.01-0.43-0.1-0.67c-0.12-0.34-0.38-0.62-0.73-0.78c-0.43-0.2-0.96-0.22-1.4-0.04c-0.37,0.14-1.56,0.68-1.59,1.68 c-0.06,1.91-0.11,4.11-0.14,6.53c-2.38-0.14-4.96-0.26-7.95-0.08c-0.34,0.02-0.61,0.17-0.81,0.44C2.76,11.36,2.3,12,2.97,14.51 c0.07,0.27,0.19,0.6,0.47,0.84c0.36,0.31,0.82,0.32,1.12,0.33c1.52,0.036,3.079,0.116,4.673,0.212 c0.024,0.32,0.117,0.621,0.293,0.865c0.262,0.362,0.688,0.61,1.198,0.698c0.146,0.024,0.289,0.036,0.432,0.036 c0.166,0,0.325-0.038,0.486-0.067c0.004,4.438,0.062,9.356,0.158,14.686c-2.59,0-5.15,0-7.63-0.01c-1.12,0-1.25,1.02-1.32,1.51 l-0.03,0.21c-0.12,0.73,0.19,1.66,1,1.94c0.26,0.09,0.51,0.1,0.7,0.11c1.769,0.055,3.586,0.074,5.32,0.085 c-0.04,0.129-0.089,0.254-0.114,0.39c-0.021,0.112-0.077,0.412,0.085,0.688c0.114,0.194,0.287,0.299,0.408,0.36 c0.293,0.148,0.629,0.223,0.979,0.223c0.239,0,0.483-0.047,0.725-0.115c0.057,2.298,0.122,4.57,0.187,6.788 c0,0.1,0.04,0.21,0.1,0.29c0.3,0.39,0.76,0.6,1.29,0.6h0.03c0.67-0.01,1.35-0.36,1.74-0.89c0.63-0.87,0.64-1.99,0.64-2.82 c0.02-1.82,0.03-3.66,0.03-5.51c3.13,0,6.61,0,9.86,0.1c1.28,0.04,2.57,0.13,3.81,0.22c0.486,0.03,0.969,0.061,1.45,0.09 c-0.014,0.072-0.037,0.139-0.046,0.213c-0.048,0.413,0.018,0.766,0.197,1.046c0.212,0.333,0.583,0.543,1.017,0.607 c-0.006,1.05-0.005,2.016,0.012,2.894c0.01,0.6,0.02,1.35,0.33,2.03c0.3,0.68,1,1.34,1.9,1.32c1.23-0.06,2-1.27,2.07-3.24 c0.05-1.54,0.11-3.14,0.16-4.77c1.68-0.09,3.95-0.32,6.94-0.7c0.49-0.07,1.16-0.15,1.72-0.52C45.95,34.87,46.4,34.08,46.14,33.32z M37.376,12.269c0.079-0.104,0.13-0.219,0.188-0.331c0.499-0.001,0.997,0,1.506-0.007c1.71,0,3.47,0,4.94,0.04 c0.09,0.11,0.26,0.51,0.25,1.13c-0.01,0.59-0.19,1.06-0.46,1.25c-0.34,0.24-0.85,0.24-1.37,0.21c-0.52-0.02-1.07-0.05-1.65-0.08 c-1.33-0.07-2.85-0.15-4.27-0.17c-0.16-0.01-0.28,0.05-0.38,0.16c-0.09,0.11-0.14,0.25-0.13,0.39c0.09,0.84,0.19,1.84,0.22,2.84 c0.05,1.46,0,2.94-0.05,4.38c-0.084,2.541-0.177,5.277-0.263,8.031c-0.77,0.287-1.424,0.862-1.677,1.105 c-0.342,0.329-0.636,0.692-0.904,1.069l0.024-1.205c0.115-4.745,0.213-9.625-0.018-14.372c0.439-0.286,0.863-0.67,1.257-1.156 c0.25-0.309,0.479-0.635,0.707-0.96c0.4-0.571,0.778-1.11,1.261-1.54l0.203-0.174C36.97,12.699,37.189,12.515,37.376,12.269z M32.35,31.05l-0.02,1.04c-4.04,0-8.14,0-12.21,0.01h-3.178c0.083-0.221,0.14-0.454,0.133-0.707 c-0.008-0.292-0.074-1.007-0.506-1.352c-0.178-0.142-0.396-0.196-0.621-0.164c-0.02-4.517-0.049-9.084-0.107-13.607 c4.3,0.22,8.83,0.32,13.09-0.3l1.08-0.16c0.045-0.006,0.089-0.012,0.133-0.018c-0.041,0.264-0.047,0.608,0.156,0.92 c0.218,0.338,0.62,0.539,1.134,0.567c0.046,0.003,0.092,0.004,0.138,0.004c0.258,0,0.518-0.038,0.777-0.111 C32.555,21.751,32.456,26.473,32.35,31.05z M36.97,10.109c-0.039,0.6-0.099,1.169-0.392,1.556 c-0.118,0.157-0.286,0.298-0.464,0.447l-0.225,0.193c-0.568,0.507-0.998,1.119-1.413,1.712c-0.215,0.307-0.43,0.615-0.665,0.905 c-0.429,0.53-1.312,1.386-2.325,1.358c-0.196-0.011-0.318-0.065-0.348-0.113c-0.015-0.022-0.056-0.121,0.036-0.431 c0.343-1.153,1.147-2.135,1.925-3.083c0.54-0.657,1.098-1.337,1.754-1.865c0.563-0.451,1.316-0.754,2.086-0.843 C36.958,9.998,36.973,10.064,36.97,10.109z M32.41,5.3c0.13-0.76,0.76-1.53,1.47-1.79c0.07-0.02,0.13-0.06,0.18-0.11 c0.11-0.08,0.49,0,0.6,0.14c0.18,0.22,0.23,0.56,0.28,0.99c0.15,1.24,0.29,2.73,0.43,4.22c0.021,0.189,0.036,0.38,0.052,0.572 C34.986,9.5,34.576,9.73,34.227,10.01c-0.501,0.403-0.926,0.868-1.332,1.341c0-0.018,0.007-0.033,0.005-0.051 c-0.1-0.78-0.2-1.56-0.32-2.33C32.43,8,32.28,6.13,32.41,5.3z M21.84,12.25h0.1c1.51-0.01,5.06-0.02,6.5-0.21 c1.4-0.19,2.78-0.2,3.95-0.18c0.03-0.004,0.059-0.014,0.089-0.02c-0.049,0.06-0.103,0.119-0.153,0.179 c-0.653,0.797-1.362,1.688-1.825,2.716c-0.213,0.033-0.426,0.063-0.642,0.095l-1.08,0.15c-4.35,0.63-9.02,0.5-13.42,0.26 c-0.136-0.01-0.261,0.048-0.36,0.134c0.96-0.833,1.902-1.816,2.568-3.034c0.029-0.054,0.06-0.116,0.09-0.176 C18.935,12.22,20.326,12.259,21.84,12.25z M12.81,4.31c0.01-0.25,0.41-0.58,0.95-0.79c0.19-0.07,0.44-0.07,0.62,0.02 c0.11,0.05,0.18,0.12,0.21,0.2c0.03,0.09,0.04,0.23,0.04,0.36c0.045,1.873,0.082,3.854,0.119,5.888 c-0.346,0.24-0.697,0.473-1.043,0.7c-0.352,0.231-0.707,0.463-1.057,0.706c0.002-0.018,0.011-0.034,0.011-0.053 C12.69,8.71,12.74,6.35,12.81,4.31z M4.09,14.59c-0.08-0.07-0.13-0.26-0.15-0.34c-0.53-1.99-0.25-2.46-0.16-2.53 c3.124-0.188,5.804-0.052,8.287,0.106c-0.841,0.63-1.63,1.335-2.231,2.253c-0.162,0.249-0.306,0.524-0.423,0.815 c-1.646-0.089-3.246-0.169-4.822-0.214C4.43,14.67,4.18,14.67,4.09,14.59z M10.893,16.469c-0.248-0.042-0.451-0.151-0.557-0.298 c-0.118-0.162-0.15-0.417-0.087-0.683c0.066-0.276,0.217-0.545,0.424-0.861c0.868-1.326,2.186-2.189,3.581-3.104 c0.644-0.421,1.309-0.857,1.934-1.346c0.135-0.105,0.415-0.088,0.585,0.038c0.172,0.127,0.272,0.394,0.255,0.678 c-0.021,0.347-0.191,0.698-0.337,0.966c-0.839,1.535-2.203,2.703-3.427,3.644C12.542,16.058,11.7,16.609,10.893,16.469z M13.873,16.296c0.364-0.28,0.739-0.585,1.112-0.908c-0.096,0.099-0.145,0.226-0.145,0.362c0.058,4.784,0.096,9.621,0.107,14.409 c-0.653,0.257-1.236,0.64-1.859,1.233c-0.101,0.097-0.194,0.2-0.291,0.301c-0.097-5.307-0.152-10.196-0.156-14.597 C13.081,16.874,13.494,16.588,13.873,16.296z M4.56,34.87c-0.15-0.01-0.3-0.01-0.4-0.05c-0.28-0.1-0.41-0.51-0.35-0.84l0.03-0.24 c0.09-0.64,0.15-0.64,0.33-0.64c2.409,0.009,4.907,0.01,7.424,0.01c-0.216,0.283-0.427,0.567-0.634,0.849 c-0.227,0.31-0.466,0.643-0.677,0.999C8.433,34.953,6.463,34.924,4.56,34.87z M10.709,36.528c0.133-0.717,0.624-1.387,1.057-1.978 c0.617-0.843,1.255-1.713,2.013-2.435c0.743-0.709,1.348-1.052,2.195-1.236c0.045,0.104,0.094,0.307,0.101,0.54 c0.008,0.291-0.183,0.609-0.379,0.909c-0.731,1.116-1.573,2.166-2.502,3.122c-0.349,0.359-0.762,0.762-1.246,0.989 C11.495,36.653,11.018,36.679,10.709,36.528z M29.68,35.28c-1.25-0.09-2.55-0.17-3.85-0.22c-3.44-0.11-7.13-0.1-10.39-0.1 c-0.27,0.01-0.5,0.23-0.5,0.5c0,2.02-0.01,4.02-0.03,6.01c0,0.89-0.04,1.67-0.45,2.23c-0.2,0.28-0.59,0.48-0.94,0.48 c-0.12,0.01-0.29-0.02-0.42-0.11c-0.064-2.293-0.128-4.664-0.185-7.046c0.383-0.267,0.71-0.583,0.995-0.875 c0.91-0.936,1.73-1.964,2.46-3.048h3.75c4.235-0.01,8.49-0.01,12.676-0.01c-0.078,0.124-0.156,0.249-0.233,0.373l-0.737,1.197 c-0.14,0.227-0.284,0.471-0.416,0.727C30.836,35.353,30.26,35.318,29.68,35.28z M32.007,36.699 c0.062-0.526,0.372-1.029,0.671-1.516l0.737-1.196c0.446-0.725,0.908-1.474,1.508-2.05c0.533-0.512,1.293-0.994,1.852-0.994 c0.086,0,0.167,0.011,0.242,0.036h0c0.427,0.14,0.799,0.815,0.686,1.248c-0.083,0.318-0.364,0.618-0.613,0.884l-2.824,3.012 c-0.538,0.573-1.117,1.135-1.761,1.142c-0.193,0.005-0.382-0.065-0.451-0.173C32.004,37.012,31.987,36.873,32.007,36.699z M35.54,41.2c-0.04,1.03-0.35,2.25-1.11,2.28c-0.42,0.03-0.78-0.36-0.95-0.73c-0.21-0.46-0.23-0.99-0.24-1.63 c-0.009-0.91-0.016-1.893-0.006-2.986c0.695-0.245,1.265-0.8,1.761-1.328l0.723-0.771C35.659,37.806,35.599,39.538,35.54,41.2z M44.81,34.41c-0.33,0.23-0.79,0.3-1.3,0.36c-3.215,0.417-5.591,0.646-7.278,0.718l1.588-1.693 c0.182-0.195,0.385-0.421,0.556-0.684c1.816,0.002,3.617,0.01,5.374,0.019c0.58,0.01,1.31,0.1,1.45,0.51 C45.29,33.91,45.07,34.24,44.81,34.41z"/></svg>