<svg xmlns="http://www.w3.org/2000/svg" viewBox="0 0 64 64"><radialGradient id="8_zLZWhDdV6soMavGiQDPa" cx="36.833" cy="35.917" r="26" gradientUnits="userSpaceOnUse" spreadMethod="reflect"><stop offset="0" stop-color="#f4e9c3"/><stop offset=".219" stop-color="#f8eecd"/><stop offset=".644" stop-color="#fdf4dc"/><stop offset="1" stop-color="#fff6e1"/></radialGradient><path fill="url(#8_zLZWhDdV6soMavGiQDPa)" d="M10,8L10,8c2.209,0,4-1.791,4-4v0c0-2.209-1.791-4-4-4h0C7.791,0,6,1.791,6,4v0 C6,6.209,7.791,8,10,8z"/><radialGradient id="8_zLZWhDdV6soMavGiQDPb" cx="30.417" cy="29.917" r="28.77" gradientUnits="userSpaceOnUse" spreadMethod="reflect"><stop offset="0" stop-color="#f4e9c3"/><stop offset=".219" stop-color="#f8eecd"/><stop offset=".644" stop-color="#fdf4dc"/><stop offset="1" stop-color="#fff6e1"/></radialGradient><path fill="url(#8_zLZWhDdV6soMavGiQDPb)" d="M6.5,64L6.5,64c1.933,0,3.5-1.567,3.5-3.5v0c0-1.933-1.567-3.5-3.5-3.5h0 C4.567,57,3,58.567,3,60.5v0C3,62.433,4.567,64,6.5,64z"/><radialGradient id="8_zLZWhDdV6soMavGiQDPc" cx="31" cy="32" r="31.504" gradientUnits="userSpaceOnUse" spreadMethod="reflect"><stop offset="0" stop-color="#f4e9c3"/><stop offset=".219" stop-color="#f8eecd"/><stop offset=".644" stop-color="#fdf4dc"/><stop offset="1" stop-color="#fff6e1"/></radialGradient><path fill="url(#8_zLZWhDdV6soMavGiQDPc)" d="M62,20.5L62,20.5c0-2.485-2.015-4.5-4.5-4.5H50c-2.209,0-4-1.791-4-4v0c0-2.209,1.791-4,4-4 h2c2.209,0,4-1.791,4-4v0c0-2.209-1.791-4-4-4L20,0c-2.209,0-4,1.791-4,4v0c0,2.209,1.791,4,4,4h2c1.657,0,3,1.343,3,3v0 c0,1.657-1.343,3-3,3H7.5C5.567,14,4,15.567,4,17.5v0C4,19.433,5.567,21,7.5,21H9c1.657,0,3,1.343,3,3v0c0,1.657-1.343,3-3,3H5 c-2.761,0-5,2.239-5,5v0c0,2.761,2.239,5,5,5h1.5c1.933,0,3.5,1.567,3.5,3.5v0c0,1.933-1.567,3.5-3.5,3.5H5c-2.209,0-4,1.791-4,4v0 c0,2.209,1.791,4,4,4h11.5c1.381,0,2.5,1.119,2.5,2.5v0c0,1.381-1.119,2.5-2.5,2.5h0c-1.933,0-3.5,1.567-3.5,3.5v0 c0,1.933,1.567,3.5,3.5,3.5h41c1.933,0,3.5-1.567,3.5-3.5v0c0-1.933-1.567-3.5-3.5-3.5H57c-1.105,0-2-0.895-2-2v0 c0-1.105,0.895-2,2-2h1c2.209,0,4-1.791,4-4v0c0-2.209-1.791-4-4-4h-5.5c-1.381,0-2.5-1.119-2.5-2.5v0c0-1.381,1.119-2.5,2.5-2.5 H58c2.209,0,4-1.791,4-4v0c0-2.209-1.791-4-4-4h-2.5c-1.933,0-3.5-1.567-3.5-3.5v0c0-1.933,1.567-3.5,3.5-3.5h2 C59.985,25,62,22.985,62,20.5z"/><g><linearGradient id="8_zLZWhDdV6soMavGiQDPd" x1="32" x2="32" y1="10" y2="56" gradientUnits="userSpaceOnUse" spreadMethod="reflect"><stop offset="0" stop-color="#42d778"/><stop offset=".428" stop-color="#3dca76"/><stop offset="1" stop-color="#34b171"/></linearGradient><path fill="url(#8_zLZWhDdV6soMavGiQDPd)" d="M44.5,56c-5.238,0-9.5-4.262-9.5-9.5v-3c0-5.238,4.262-9.5,9.5-9.5s9.5,4.262,9.5,9.5v3 C54,51.738,49.738,56,44.5,56z M44.5,41c-1.355,0-2.5,1.145-2.5,2.5v3c0,1.355,1.145,2.5,2.5,2.5s2.5-1.145,2.5-2.5v-3 C47,42.145,45.855,41,44.5,41z M21.497,52c-0.676,0-1.358-0.195-1.96-0.603c-1.601-1.084-2.019-3.261-0.935-4.861l21-31 c1.084-1.6,3.261-2.018,4.86-0.935c1.601,1.084,2.019,3.261,0.935,4.861l-21,31C23.721,51.462,22.619,52,21.497,52z M19.5,32 c-5.238,0-9.5-4.262-9.5-9.5v-3c0-5.238,4.262-9.5,9.5-9.5s9.5,4.262,9.5,9.5v3C29,27.738,24.738,32,19.5,32z M19.5,17 c-1.355,0-2.5,1.145-2.5,2.5v3c0,1.355,1.145,2.5,2.5,2.5s2.5-1.145,2.5-2.5v-3C22,18.145,20.855,17,19.5,17z"/></g></svg>