<svg xmlns="http://www.w3.org/2000/svg" viewBox="0 0 26 26"><path d="M 9 5 C 4.589844 5 1 8.589844 1 13 C 1 17.410156 4.589844 21 9 21 C 13.410156 21 17 17.410156 17 13 C 17 8.589844 13.410156 5 9 5 Z M 13.125 5 C 14.558594 5.742188 15.769531 6.859375 16.625 8.21875 C 18.070313 9.316406 19 11.046875 19 13 C 19 14.953125 18.070313 16.683594 16.625 17.78125 C 15.769531 19.140625 14.558594 20.257813 13.125 21 C 17.484375 20.9375 21 17.371094 21 13 C 21 8.628906 17.484375 5.0625 13.125 5 Z M 17.125 5 C 18.558594 5.742188 19.769531 6.859375 20.625 8.21875 C 22.070313 9.316406 23 11.046875 23 13 C 23 14.953125 22.070313 16.683594 20.625 17.78125 C 19.769531 19.140625 18.558594 20.257813 17.125 21 C 21.484375 20.9375 25 17.371094 25 13 C 25 8.628906 21.484375 5.0625 17.125 5 Z M 9 7 C 12.308594 7 15 9.691406 15 13 C 15 16.308594 12.308594 19 9 19 C 5.691406 19 3 16.308594 3 13 C 3 9.691406 5.691406 7 9 7 Z M 8.3125 8.25 L 8.03125 12.75 L 6.5 15.65625 L 7.5 16.34375 L 10.03125 13.3125 L 9.6875 8.25 Z"/></svg>