<svg xmlns="http://www.w3.org/2000/svg" viewBox="0 0 48 48"><path fill="#9fdadf" d="M42.509,26.948c-0.08-1.433-0.308-2.874-0.87-4.195c-1.476-3.466-4.819-5.232-8.42-6.337 l-13.317-0.93c-2.027,1.467-3.877,3.253-5.568,5.097c-0.827,0.901-1.571,1.898-2.035,3.03c-0.411,1.003-0.591,2.086-0.671,3.167 c-0.233,3.152,0.554,6.654,3.089,8.541c1.068,0.795,2.369,1.245,3.398,2.09c0.679,0.557,1.195,1.266,1.575,2.053 c0.279,0.921,0.164,2-0.261,2.884c-0.66,1.373-1.977,1.184-3.179,2.121c6.795,0.455,13.706-0.18,20.511-0.436 c-0.451-0.555-1.529-0.477-1.98-1.033c-0.708-0.872-0.804-0.482-1.114-1.561c-0.239-0.834,0.017-1.471,0.558-2.029 c0.176-0.167,0.358-0.328,0.546-0.476c1.825-1.446,4.088-2.363,5.613-4.123C42.207,32.706,42.665,29.727,42.509,26.948z"/><path fill="#16b7b8" d="M40.381,34.808c-1.523,1.758-3.785,2.681-5.608,4.128c-0.193,0.15-0.375,0.311-0.547,0.472 c-0.547,0.558-0.793,1.201-0.558,2.026c0.311,1.083,0.559,1.157,1.113,1.566c0.926,0.683,1.525,0.474,1.975,1.031 c-6.798,0.257-13.71,0.895-20.508,0.434c1.201-0.933,2.516-0.747,3.18-2.12c0.429-0.879,0.536-1.962,0.257-2.884 c-0.375-0.783-0.89-1.49-1.576-2.048c-1.029-0.847-2.327-1.297-3.388-2.091c-2.455-1.823-3.27-5.168-3.109-8.235 c7.077,0.536,20.662,1.201,30.859-0.611c0.011,0.161,0.021,0.311,0.032,0.472C42.664,29.725,42.203,32.706,40.381,34.808z"/><path fill="#373837" d="M23.828,6.601c-0.56,0.034-1.992,0.149-2.552,0.184c0.106-0.383-0.187-0.764-0.494-1.016 C18.125,3.588,13.375,3.426,9.75,3.792C7.961,3.972,7.014,4.086,5.79,5.404c-0.542,0.584-0.992,1.29-1.103,2.079 C4.628,7.904,4.666,8.334,4.753,8.75c0.543,2.616,3.075,4.38,5.726,4.709c2.652,0.329,5.306-0.594,7.272-2.403 c0.726-0.668,1.379-1.436,2.227-1.94c0.848-0.504,3.147-0.481,3.968,0.066"/><path fill="#74cccf" d="M25.822,13.102c0.023,2.337,1.172,4.493,1.813,6.74c0.851,2.984,0.805,6.156,0.432,9.236 c-0.374,3.08-1.066,6.113-1.492,9.187c-0.055,0.399-0.001,0.949,0.398,1.007c0.325,0.047,0.556-0.299,0.691-0.598 c1.769-3.908,2.177-8.28,2.428-12.562c0.088-1.503,0.159-3.027-0.146-4.501c-0.218-1.056-0.625-2.062-0.962-3.086 c-0.605-1.837-0.993-3.746-1.151-5.674"/><path fill="#d6e5e5" d="M29.194,12.933c0.078-2.866,0.463-5.256,1.114-8.048c0.095-0.406,0.151-0.928-0.203-1.148 c-0.159-0.099-0.358-0.1-0.545-0.097c-1.868,0.027-3.891-0.106-5.755,0.028c0.005,0.867-0.129,1.988-0.124,2.855 c0.007,1.27,0.015,2.543-0.103,3.808c-0.07,0.755-0.181,1.542,0.08,2.254L29.194,12.933z"/><path fill="#bcbcbc" d="M29.728,6.714c-0.285-0.309-0.771-0.376-1.168-0.237c-0.397,0.139-0.712,0.452-0.943,0.804 c-0.347,0.528-0.53,1.208-0.308,1.8s0.939,1.005,1.518,0.752c0.279-0.122,0.308-0.42,0.61-0.457"/><path fill="#d6e5e5" d="M32.607,14.062c-0.596-0.641-1.567-0.719-2.441-0.755c-2.193-0.09-4.385-0.179-6.578-0.269 c-0.876-0.036-1.793-0.064-2.584,0.315c-0.791,0.379-1.394,1.305-1.103,2.132l13.317,0.93 C33.212,15.585,33.173,14.67,32.607,14.062z"/><path fill="#010101" d="M43.008,26.919c-0.097-1.726-0.395-3.152-0.909-4.362c-1.282-3.01-3.962-5.078-8.386-6.5 c-0.019-0.731-0.116-1.665-0.74-2.336c-0.713-0.767-1.768-0.871-2.787-0.914l-0.486-0.02c0.079-2.528,0.397-4.799,1.095-7.789 c0.191-0.825,0.047-1.393-0.428-1.686c-0.291-0.18-0.61-0.17-0.815-0.172c-0.688,0.012-1.398-0.003-2.114-0.015 c-1.217-0.02-2.476-0.042-3.669,0.044c-0.263,0.02-0.465,0.238-0.464,0.502c0.002,0.422-0.029,0.906-0.061,1.392 C23.219,5.436,23.2,5.799,23.19,6.146c-0.215,0.018-0.445,0.037-0.68,0.054c-0.27,0.01-0.54,0.04-0.77,0.05 c-0.1-0.3-0.32-0.6-0.64-0.87C18.04,2.87,12.64,3,9.7,3.29c-1.75,0.18-2.9,0.3-4.28,1.77C4.72,5.82,4.3,6.61,4.19,7.41 C4.13,7.85,4.15,8.32,4.26,8.85c0.55,2.62,3.08,4.72,6.16,5.1c0.38,0.05,0.75,0.07,1.13,0.07c2.38,0,4.71-0.91,6.54-2.6 c0.2-0.18,0.4-0.38,0.59-0.57c0.51-0.5,0.99-0.97,1.55-1.31c0.557-0.329,2.004-0.37,2.895-0.148 c-0.015,0.298-0.018,0.598-0.046,0.893l-0.02,0.209c-0.062,0.636-0.117,1.346,0.07,2.03c-0.745-0.017-1.584,0.017-2.341,0.377 c-0.871,0.417-1.576,1.381-1.441,2.381c-1.732,1.286-3.495,2.905-5.38,4.962c-1.006,1.096-1.703,2.136-2.13,3.179 c-0.384,0.938-0.608,1.992-0.706,3.319c-0.287,3.876,0.943,7.232,3.289,8.979c0.525,0.392,1.098,0.7,1.651,0.998 c0.625,0.337,1.214,0.655,1.728,1.077c0.586,0.48,1.071,1.114,1.414,1.811c0.237,0.783,0.15,1.727-0.233,2.523 c-0.317,0.66-0.812,0.856-1.496,1.129c-0.475,0.189-1.014,0.404-1.54,0.814c-0.164,0.128-0.231,0.343-0.17,0.541 s0.238,0.339,0.445,0.353c1.761,0.118,3.529,0.16,5.29,0.16c2.315,0,4.619-0.073,6.878-0.146c2.684-0.086,5.455-0.175,8.203-0.139 c0.188,0.01,0.372-0.107,0.457-0.282c0.084-0.175,0.061-0.382-0.062-0.533c-0.337-0.415-0.8-0.705-1.248-0.986 c-0.226-0.142-0.45-0.281-0.643-0.435l-0.246-0.188c-0.368-0.275-0.479-0.359-0.697-1.118c-0.169-0.592-0.039-1.054,0.421-1.528 c0.166-0.157,0.337-0.309,0.513-0.448c0.673-0.533,1.432-1.007,2.166-1.466c1.24-0.774,2.521-1.574,3.514-2.722 C42.863,32.712,43.143,29.329,43.008,26.919z M33.126,16.91c4.305,1.331,6.865,3.251,8.052,6.039 c0.386,0.906,0.631,1.971,0.759,3.212c-0.001,0-0.002,0-0.003,0l-8.93,0.73c-0.814,0.066-1.644,0.126-2.475,0.174 c0.02-0.309,0.042-0.619,0.06-0.926c0.1-1.65,0.15-3.14-0.15-4.63c-0.17-0.81-0.44-1.58-0.7-2.33c-0.1-0.27-0.19-0.54-0.28-0.81 c-0.192-0.575-0.35-1.162-0.495-1.75L33.126,16.91z M29.191,27.133c-0.147,0.004-0.297-0.003-0.444-0.001 c0.193-2.85-0.007-5.246-0.627-7.422c-0.21-0.72-0.47-1.44-0.71-2.12c-0.138-0.375-0.258-0.739-0.382-1.106l0.894,0.062 c0.166,0.719,0.354,1.431,0.588,2.133c0.09,0.28,0.19,0.55,0.28,0.83c0.27,0.75,0.51,1.46,0.67,2.2c0.28,1.37,0.23,2.79,0.13,4.37 c-0.02,0.343-0.043,0.69-0.066,1.036C29.413,27.12,29.301,27.13,29.191,27.133z M29.453,28.121 c-0.267,3.512-0.769,7.101-2.242,10.349c-0.05,0.11-0.1,0.19-0.14,0.24c-0.01-0.09-0.02-0.22,0-0.38c0.19-1.39,0.45-2.8,0.69-4.16 c0.29-1.65,0.6-3.34,0.8-5.03c0.042-0.342,0.073-0.671,0.105-1c0.185-0.002,0.369-0.002,0.553-0.007 C29.296,28.131,29.375,28.124,29.453,28.121z M24.054,10.592l0.021-0.215c0.12-1.289,0.112-2.594,0.105-3.856 c-0.002-0.423,0.03-0.908,0.061-1.393c0.021-0.336,0.043-0.671,0.055-0.988c1.015-0.049,2.086-0.031,3.125-0.014 c0.726,0.012,1.446,0.024,2.146,0.015c0.07,0,0.233-0.003,0.275,0.022c0.001,0,0.096,0.105-0.021,0.608 c-0.101,0.432-0.192,0.847-0.278,1.252c-1.326-0.529-2.725,0.966-2.82,2.34c-0.054,0.784,0.316,1.53,1.036,1.878 c0.317,0.153,0.695,0.211,1.04,0.125c0.021-0.005,0.038-0.019,0.058-0.026c-0.079,0.795-0.131,1.588-0.156,2.406L24.15,12.56 c-0.002-0.049-0.005-0.099-0.023-0.148C23.929,11.874,23.99,11.251,24.054,10.592z M29.338,7.041 c-0.132,0.697-0.242,1.365-0.332,2.018c-0.126,0.096-0.238,0.203-0.394,0.281c-0.397,0.198-0.794-0.218-0.879-0.594 C27.574,8.045,28.499,6.374,29.338,7.041z M19.72,8.69c-0.67,0.39-1.21,0.93-1.74,1.45c-0.19,0.18-0.37,0.37-0.57,0.55 c-1.9,1.75-4.41,2.58-6.87,2.27c-2.66-0.33-4.84-2.1-5.3-4.31c-0.08-0.42-0.1-0.77-0.06-1.1c0.09-0.59,0.41-1.2,0.98-1.81 C7.23,4.59,8,4.47,9.8,4.29c2.25-0.23,7.78-0.5,10.66,1.86c0.25,0.21,0.36,0.41,0.33,0.5c-0.04,0.16,0,0.32,0.1,0.45 s0.27,0.2,0.42,0.18c0.28-0.01,0.78-0.05,1.28-0.09c0.2-0.011,0.4-0.024,0.589-0.038c0.001,0.411,0.005,0.821-0.003,1.235 C22.024,8.151,20.466,8.246,19.72,8.69z M21.22,13.804c0.698-0.334,1.574-0.297,2.347-0.266l6.578,0.269 c0.811,0.033,1.641,0.106,2.096,0.596c0.331,0.354,0.431,0.885,0.463,1.475l-12.376-0.864C20.343,14.527,20.75,14.029,21.22,13.804 z M12.762,23.802c0.387-0.944,1.004-1.86,1.941-2.882c1.881-2.052,3.631-3.664,5.346-4.923l5.901,0.412 c0.16,0.511,0.336,1.018,0.52,1.511c0.24,0.68,0.49,1.37,0.68,2.06c0.598,2.081,0.787,4.391,0.596,7.151 c-1.135-0.009-2.277-0.042-3.416-0.09l-12.174-0.507C12.255,25.452,12.446,24.571,12.762,23.802z M40.006,34.483 c-0.895,1.033-2.057,1.759-3.288,2.528c-0.757,0.473-1.54,0.962-2.258,1.53c-0.198,0.157-0.392,0.328-0.594,0.52 c-0.728,0.751-0.95,1.573-0.68,2.516c0.297,1.035,0.567,1.275,1.059,1.644l0.225,0.171c0.196,0.155,0.419,0.3,0.647,0.444 c-2.277,0.004-4.552,0.076-6.766,0.146c-3.344,0.106-6.783,0.216-10.2,0.085c0.659-0.274,1.305-0.625,1.727-1.503 c0.489-1.017,0.597-2.23,0.261-3.319c-0.435-0.899-1.009-1.647-1.708-2.222c-0.588-0.482-1.249-0.839-1.888-1.184 c-0.546-0.294-1.062-0.572-1.529-0.921c-1.927-1.435-2.981-4.166-2.909-7.385l12.22,0.508c1.094,0.045,2.214,0.086,3.335,0.096 c-0.029,0.291-0.055,0.58-0.092,0.882c-0.2,1.66-0.5,3.34-0.79,4.97c-0.25,1.37-0.5,2.8-0.7,4.21c-0.12,0.85,0.21,1.48,0.82,1.57 c0.04,0,0.09,0.01,0.14,0.01c0.3,0,0.74-0.15,1.08-0.9c1.554-3.43,2.067-7.169,2.34-10.809c0.889-0.05,1.78-0.114,2.677-0.187 l8.878-0.727C42.117,29.369,41.839,32.367,40.006,34.483z"/></svg>