<svg xmlns="http://www.w3.org/2000/svg" width="512" height="512" viewBox="0 0 512 512"><path fill="#D7DABA" d="M504.1,256c0,137-111.1,248.1-248.1,248.1C119,504.1,7.9,393,7.9,256S119,7.9,256,7.9C393,7.9,504.1,119,504.1,256"/><path fill="#B68473" d="M216.4,231.5c0,0-21.3,10.7-45.1-16.6c2.4-2.5,24.1-22,56.5-6.4L216.4,231.5z"/><path fill="#D76D7A" d="M214.8,225.5c0,0-16.9,3.7-29.8-9.3c0,0,12.3-11.6,36.6-2L214.8,225.5z"/><path fill="#B68473" d="M295.6,231.5c0,0,21.3,10.7,45.1-16.6c-2.4-2.5-24.1-22-56.5-6.4L295.6,231.5z"/><path fill="#D76D7A" d="M297.2,225.5c0,0,16.9,3.7,29.8-9.3c0,0-12.3-11.6-36.6-2L297.2,225.5z"/><path fill="#B68473" d="M253.8 349.6c1.5 0 2.9 0 4.4-.1C256.7 349.6 255.3 349.6 253.8 349.6M231.7 349.5c36.1-1.9 48.6-26.4 48.6-26.4C271 337.9 253.5 348.2 231.7 349.5"/><path fill="#F29D2B" d="M256.2,349.5c-0.1,0-0.2,0-0.4,0C255.9,349.5,256.1,349.5,256.2,349.5"/><path fill="#8F6652" d="M260.5,349.5c-0.1,0-0.1,0-0.2,0c-1.4,0.1-2.9,0.1-4.4,0.1v19.3c3.2,0,6.3-0.3,9.3-0.8v13h20.4v-20.4c13.6-8.3,22.7-22,23.4-37.7C309.1,323.1,296.6,347.6,260.5,349.5"/><path fill="#8F6652" d="M314.1,300.7c0-30.4-26-55-58.1-55c-32.1,0-58.1,24.6-58.1,55c0,30.4,26,55,58.1,55C288.1,355.7,314.1,331.1,314.1,300.7"/><path fill="#8F6652" d="M251.7,349.5c-0.1,0-0.3,0-0.4,0c-35.6-2-48.4-26.4-48.4-26.4c0.7,15.7,9.8,29.5,23.4,37.7v20.4h20.4v-13c3,0.5,6.1,0.8,9.3,0.8v-19.3C254.5,349.6,253.1,349.6,251.7,349.5"/><path fill="#481A11" d="M236.3 384.6c.9 0 1.6.7 1.6 1.6v3.9h16.4c0-9.8-7.9-17.8-17.8-17.8-9.8 0-17.8 8-17.8 17.8h16v-3.9C234.7 385.3 235.4 384.6 236.3 384.6M275.3 384.6c.9 0 1.6.7 1.6 1.6v3.9h16.4c0-9.8-7.9-17.8-17.8-17.8-9.8 0-17.8 8-17.8 17.8h16v-3.9C273.7 385.3 274.4 384.6 275.3 384.6"/><path fill="#8F6652" d="M256,200c-9.6,0-17.8,1.7-24.5,5.3c-11.6,6.3-19.6,17.4-19.6,17.4c-15,22.3-16.2,55.5-16.2,73.3c0,9.1,2.8,17.5,7.2,25c8.7,14.8,25.3,25.4,48.4,26.4c0.1,0,0.3,0,0.4,0c1.4,0.1,2.8-1.1,4.3-1.1c1.5,0,2.9-1.4,4.4-1.4h0.2c22,0,39.4-10.1,48.6-25.2c4.5-7.5,7.2-15.3,7.2-24.4C316.3,266.9,312.4,200,256,200"/><path fill="#F6C899" d="M221.5 256.8c0 9.3 5.4 16.9 12.2 16.9 6.7 0 12.2-7.6 12.2-16.9 0-9.3-5.4-16.9-12.2-16.9C226.9 239.9 221.5 247.5 221.5 256.8M266.2 256.8c0 9.3 5.4 16.9 12.2 16.9 6.7 0 12.2-7.6 12.2-16.9 0-9.3-5.5-16.9-12.2-16.9C271.6 239.9 266.2 247.5 266.2 256.8"/><path fill="#481A11" d="M228.4 260.8c0 2.9 2.4 5.3 5.3 5.3s5.3-2.4 5.3-5.3v-7.9c0-2.9-2.4-5.3-5.3-5.3s-5.3 2.4-5.3 5.3V260.8zM273.1 260.8c0 2.9 2.4 5.3 5.3 5.3 2.9 0 5.3-2.4 5.3-5.3v-7.9c0-2.9-2.4-5.3-5.3-5.3-2.9 0-5.3 2.4-5.3 5.3V260.8z"/><path fill="#FFF" d="M276.5 253c0 1.7 1.2 3.1 2.7 3.1 1.5 0 2.7-1.4 2.7-3.1s-1.2-3.1-2.7-3.1C277.8 250 276.5 251.3 276.5 253M231.8 253c0 1.7 1.2 3.1 2.7 3.1 1.5 0 2.7-1.4 2.7-3.1s-1.2-3.1-2.7-3.1C233 250 231.8 251.3 231.8 253"/><path fill="#F6E9E5" d="M253.7 297.5c-1.8 0-3.3 1.5-3.3 3.3 0 1.8 1.5 3.3 3.3 3.3s3.3-1.5 3.3-3.3C257 299 255.6 297.5 253.7 297.5M283.2 306.6c-8.7-9.2-19.9-8.9-20.4-8.9-1.8.1-3.1 1.5-3.1 3.3 0 1.7 1.5 3.1 3.2 3.1h.1c.1 0 9-.1 15.6 6.9.6.7 1.5 1 2.3 1 .8 0 1.6-.3 2.2-.9C284.4 309.9 284.4 307.9 283.2 306.6"/><path fill="#481A11" d="M256,293.3c-18.2,0-32.9,9.4-32.9,21c0,3.9,1.7,7.6,4.7,10.8c0.7-1,1.6-1.9,2.7-2.7c1.7-1.2,3.8-1.9,6-1.9c5.9,0,10.7,4.8,10.7,10.7c0,0.3-0.1,0.5-0.1,0.8c-0.1,0.9-0.2,1.7-0.5,2.5c3,0.6,6.1,0.9,9.4,0.9s6.4-0.3,9.4-0.9c-0.2-0.6-0.3-1.1-0.4-1.7c-0.1-0.5-0.1-1-0.1-1.5c0-5.9,4.8-10.7,10.7-10.7c2.9,0,5.6,1.2,7.5,3.2c0.4,0.4,0.8,0.9,1.2,1.4c2.9-3.2,4.7-6.8,4.7-10.8C288.9,302.7,274.2,293.3,256,293.3 M253.7,304.1c-1.8,0-3.3-1.5-3.3-3.3c0-1.8,1.5-3.3,3.3-3.3c1.8,0,3.3,1.5,3.3,3.3C257,302.6,255.6,304.1,253.7,304.1 M280.9,311.9c-0.8,0-1.7-0.3-2.3-1c-6.7-7.1-15.5-6.9-15.6-6.9h-0.1c-1.7,0-3.1-1.4-3.2-3.1c0-1.7,1.3-3.2,3.1-3.2c0.5,0,11.8-0.3,20.4,8.9c1.2,1.3,1.2,3.3-0.1,4.5C282.5,311.6,281.7,311.9,280.9,311.9"/><path fill="#F29D2B" d="M237 182.2c-2.6-7.3-3.6-32-2.8-52.8.2-4-2.9-7.3-6.9-7.5-4-.2-7.3 3-7.5 6.9-.3 6.6-.4 14.8-.3 23.1-.2 0-.5-.1-.7-.1-1 0-1.3-.3-1.6-.6-2-2.2-2.6-8.6-2.3-12.4.3-4-2.6-7.4-6.5-7.8-4-.3-7.5 2.6-7.8 6.5-.2 2.6-1 15.7 6 23.4 3.2 3.5 7.4 5.3 12.2 5.3.5 0 .9 0 1.3-.1.5 6.2 1.2 12 2.4 16.8-2 .1-3.9.1-5.9-.1-8.9-.9-9.2-14.2-9.2-14.8 0-4-3.2-7.2-7.2-7.2h0c-4 0-7.2 3.2-7.2 7.2 0 9.3 4.7 27.3 22.1 29.1 5.1.5 9.9.1 14.1-.3 1.5-.1 3.3-.3 4.9-.4h0c0 0 .1 0 .1 0 1.6-.1 2.9 0 3.4.2 0 0 .7 1 .7 4.5 0 4 3.2 7.2 7.2 7.2 4 0 7.2-3.2 7.2-7.2 0-6.9-1.7-11.9-5.3-15.1C244.4 183.5 240.8 182.5 237 182.2M311.9 161c-4 0-7.2 3.2-7.3 7.1 0 .6-.3 13.9-9.2 14.8-2 .2-3.9.2-5.9.1 1.1-4.8 1.9-10.6 2.4-16.8.4.1.9.1 1.3.1 4.8 0 9.1-1.8 12.2-5.3 7-7.7 6.3-20.8 6-23.4-.3-4-3.8-6.9-7.8-6.5-4 .4-6.9 3.9-6.5 7.8.3 3.7-.3 10.2-2.3 12.4-.3.3-.6.6-1.6.6-.2 0-.5 0-.7.1.1-8.3 0-16.5-.3-23.1-.1-4-3.5-7.1-7.5-6.9-4 .1-7.1 3.5-6.9 7.5.8 20.8-.2 45.5-2.8 52.8-3.8.2-7.4 1.2-10.5 4-3.6 3.3-5.3 8.2-5.3 15.1 0 4 3.2 7.2 7.2 7.2 4 0 7.2-3.2 7.2-7.2 0-3.4.6-4.4.6-4.4 1.1-.6 5.6-.2 8.5.1 4.2.4 9 .8 14.1.3 17.4-1.8 22.1-19.8 22.1-29.1C319.1 164.2 315.9 161 311.9 161"/></svg>