<svg xmlns="http://www.w3.org/2000/svg" viewBox="0 0 64 64"><linearGradient id="8R2B2woIeMstuma5jibNPa" x1="32" x2="32" y1="20.447" y2="29" gradientUnits="userSpaceOnUse"><stop offset="0" stop-color="#6dc7ff"/><stop offset="1" stop-color="#e6abff"/></linearGradient><polygon fill="url(#8R2B2woIeMstuma5jibNPa)" points="22.119,25.25 32,19.692 41.881,25.25 32,30.808"/><linearGradient id="8R2B2woIeMstuma5jibNPb" x1="32" x2="32" y1="9.043" y2="56.277" gradientUnits="userSpaceOnUse"><stop offset="0" stop-color="#1a6dff"/><stop offset="1" stop-color="#c822ff"/></linearGradient><path fill="url(#8R2B2woIeMstuma5jibNPb)" d="M58.508,51.389L49,45.777V25.295c0-0.006-0.003-0.012-0.004-0.018	c0-0.009,0.004-0.018,0.004-0.027c0-0.361-0.195-0.694-0.51-0.872L33,15.665V8.75h-2v6.915l-15.49,8.713	c-0.08,0.045-0.152,0.1-0.215,0.163c-0.003,0.003-0.005,0.007-0.008,0.011c-0.077,0.079-0.135,0.172-0.183,0.271	c-0.013,0.027-0.024,0.053-0.034,0.081C15.029,25.014,15,25.129,15,25.25v20.527l-9.508,5.612l1.017,1.723l9.668-5.706l15.33,8.714	C31.659,56.207,31.83,56.25,32,56.25s0.341-0.043,0.494-0.131l15.33-8.714l9.668,5.706L58.508,51.389z M17,44.064v-1.447h2.592v-2	H17V26.96l14,7.875v18.696l-13.138-7.467h3.879v-2H17z M33,34.835l14-7.875v18.614l-14,7.957V34.835z M32,17.397l13.96,7.853	L32,33.103L18.04,25.25L32,17.397z"/></svg>