<svg xmlns="http://www.w3.org/2000/svg" viewBox="0 0 100 100"><path fill="#c7ede6" d="M88.724,55.551c0.3-0.616,0.566-1.264,0.796-1.943c2.633-7.77-1.349-17.078-9.733-19.325C78.881,22.9,70.881,15.09,61.846,13.758c-10.341-1.525-19.814,5.044-22.966,15.485c-3.799-1.346-7.501-1.182-10.99,0.857c-1.583,0.732-3.031,1.812-4.33,3.233c-1.907,2.086-3.147,4.719-3.652,7.495c-0.748,0.118-1.483,0.236-2.176,0.484c-4.04,1.449-6.589,4.431-7.288,8.923c-0.435,2.797,0.443,5.587,0.933,6.714c1.935,4.455,6.422,6.98,10.981,6.312c0.227-0.033,0.557,0.069,0.752,0.233c0.241,7.12,3.698,13.417,8.884,17.014c8.321,5.772,19.027,3.994,25.781-3.921c2.894,2.96,6.338,4.398,10.384,3.876c4.023-0.519,7.147-2.739,9.426-6.349c1.053,0.283,2.051,0.691,3.083,0.804c4.042,0.442,7.324-1.165,9.732-4.8c0.922-1.391,1.794-3.194,1.793-6.354C92.194,60.508,90.901,57.54,88.724,55.551z"/><path fill="#fdfcef" d="M71.988,49.72c0,0,11.691,0,11.762,0c2.7,0,4.888-2.189,4.888-4.889c0-2.355-1.666-4.321-3.884-4.784c0.026-0.206,0.043-0.415,0.043-0.628c0-2.796-2.267-5.063-5.063-5.063c-1.651,0-3.113,0.794-4.037,2.017c-0.236-3.113-3.017-5.514-6.27-5.116c-2.379,0.291-4.346,2.13-4.784,4.486c-0.14,0.756-0.126,1.489,0.014,2.177c-0.638-0.687-1.546-1.119-2.557-1.119c-1.85,0-3.361,1.441-3.48,3.261c-0.84-0.186-1.754-0.174-2.717,0.188c-1.84,0.691-3.15,2.423-3.227,4.387c-0.109,2.789,2.12,5.085,4.885,5.085c0.21,0,0.948,0,1.118,0h10.151"/><path fill="#472b29" d="M83.75,50.22H71.988c-0.276,0-0.5-0.224-0.5-0.5s0.224-0.5,0.5-0.5H83.75c2.419,0,4.388-1.969,4.388-4.389c0-2.067-1.466-3.873-3.486-4.295c-0.255-0.053-0.426-0.293-0.394-0.552c0.023-0.186,0.039-0.374,0.039-0.565c0-2.517-2.047-4.563-4.563-4.563c-1.439,0-2.765,0.663-3.638,1.818c-0.125,0.166-0.34,0.237-0.54,0.178c-0.2-0.059-0.342-0.234-0.358-0.441c-0.105-1.377-0.779-2.671-1.851-3.549c-1.083-0.888-2.451-1.28-3.86-1.109c-2.166,0.266-3.956,1.943-4.353,4.081c-0.124,0.668-0.12,1.337,0.012,1.986c0.045,0.22-0.062,0.442-0.261,0.544c-0.198,0.104-0.443,0.06-0.595-0.104c-0.575-0.618-1.353-0.959-2.19-0.959c-1.569,0-2.878,1.227-2.981,2.793c-0.01,0.146-0.082,0.28-0.199,0.367c-0.117,0.088-0.268,0.119-0.408,0.089c-0.84-0.184-1.637-0.131-2.433,0.167c-1.669,0.627-2.836,2.209-2.903,3.938c-0.047,1.207,0.387,2.351,1.222,3.219c0.835,0.868,1.958,1.347,3.163,1.347h11.269c0.276,0,0.5,0.224,0.5,0.5s-0.224,0.5-0.5,0.5H57.563c-1.479,0-2.858-0.587-3.884-1.654c-1.025-1.065-1.558-2.469-1.5-3.95c0.083-2.126,1.51-4.069,3.551-4.835c0.8-0.3,1.627-0.399,2.468-0.299c0.376-1.822,1.997-3.182,3.905-3.182c0.684,0,1.354,0.18,1.944,0.51c0-0.385,0.035-0.772,0.107-1.159c0.476-2.562,2.62-4.573,5.215-4.891c1.678-0.205,3.32,0.266,4.615,1.328c1.004,0.822,1.716,1.95,2.039,3.193c1.012-0.916,2.319-1.426,3.713-1.426c3.067,0,5.563,2.496,5.563,5.563c0,0.083-0.002,0.166-0.007,0.248c2.254,0.673,3.848,2.776,3.848,5.164C89.138,47.803,86.721,50.22,83.75,50.22z"/><path fill="#472b29" d="M81.14,42.711c-0.018,0-0.037-0.002-0.056-0.006c-0.134-0.031-0.219-0.165-0.188-0.3c0.049-0.216,0.123-0.428,0.219-0.627c0.784-1.621,2.901-2.239,4.721-1.385c0.125,0.06,0.179,0.208,0.12,0.333c-0.059,0.125-0.208,0.177-0.333,0.12c-1.574-0.743-3.394-0.226-4.058,1.148c-0.08,0.166-0.141,0.342-0.182,0.521C81.357,42.632,81.254,42.711,81.14,42.711z"/><path fill="#fff" d="M18.389 47.587H8.359c-.276 0-.5-.224-.5-.5s.224-.5.5-.5h10.03c.276 0 .5.224.5.5S18.665 47.587 18.389 47.587zM21.27 47.587h-1.446c-.276 0-.5-.224-.5-.5s.224-.5.5-.5h1.446c.276 0 .5.224.5.5S21.547 47.587 21.27 47.587zM25.325 47.587h-2.546c-.276 0-.5-.224-.5-.5s.224-.5.5-.5h2.546c.276 0 .5.224.5.5S25.601 47.587 25.325 47.587zM25.325 49.452h-9.617c-.276 0-.5-.224-.5-.5s.224-.5.5-.5h9.617c.276 0 .5.224.5.5S25.601 49.452 25.325 49.452zM13.977 49.452h-.58c-.276 0-.5-.224-.5-.5s.224-.5.5-.5h.58c.276 0 .5.224.5.5S14.253 49.452 13.977 49.452zM11.6 49.452h-1.456c-.276 0-.5-.224-.5-.5s.224-.5.5-.5H11.6c.276 0 .5.224.5.5S11.876 49.452 11.6 49.452zM20.736 45.722h-5.028c-.276 0-.5-.224-.5-.5s.224-.5.5-.5h5.028c.276 0 .5.224.5.5S21.012 45.722 20.736 45.722zM20.736 43.857h-1.257c-.276 0-.5-.224-.5-.5s.224-.5.5-.5h1.257c.276 0 .5.224.5.5S21.012 43.857 20.736 43.857zM17.467 51.316h-1.759c-.276 0-.5-.224-.5-.5s.224-.5.5-.5h1.759c.276 0 .5.224.5.5S17.743 51.316 17.467 51.316zM71.567 21.31H61.536c-.276 0-.5-.224-.5-.5s.224-.5.5-.5h10.031c.276 0 .5.224.5.5S71.843 21.31 71.567 21.31zM74.448 21.31h-1.446c-.276 0-.5-.224-.5-.5s.224-.5.5-.5h1.446c.276 0 .5.224.5.5S74.724 21.31 74.448 21.31zM78.503 21.31h-2.546c-.276 0-.5-.224-.5-.5s.224-.5.5-.5h2.546c.276 0 .5.224.5.5S78.779 21.31 78.503 21.31zM76.477 17.58h-9.616c-.276 0-.5-.224-.5-.5s.224-.5.5-.5h9.616c.276 0 .5.224.5.5S76.753 17.58 76.477 17.58zM65.129 17.58h-.58c-.276 0-.5-.224-.5-.5s.224-.5.5-.5h.58c.276 0 .5.224.5.5S65.405 17.58 65.129 17.58zM62.752 17.58h-1.457c-.276 0-.5-.224-.5-.5s.224-.5.5-.5h1.457c.276 0 .5.224.5.5S63.029 17.58 62.752 17.58zM73.914 19.445h-5.027c-.276 0-.5-.224-.5-.5s.224-.5.5-.5h5.027c.276 0 .5.224.5.5S74.19 19.445 73.914 19.445z"/><path fill="#fff" d="M73.914 17.58h-1.257c-.276 0-.5-.224-.5-.5s.224-.5.5-.5h1.257c.276 0 .5.224.5.5S74.19 17.58 73.914 17.58zM67.431 19.445h-1.758c-.276 0-.5-.224-.5-.5s.224-.5.5-.5h1.758c.276 0 .5.224.5.5S67.707 19.445 67.431 19.445z"/><path fill="#f1bc19" d="M51.445 71.809L51.445 76.522 53.33 74.951 55.215 76.522 55.215 71.809z"/><path fill="#472b29" d="M55.216 77.022c-.115 0-.229-.039-.32-.116l-1.565-1.304-1.565 1.304c-.149.126-.357.15-.532.069-.176-.083-.288-.259-.288-.453v-4.713c0-.276.224-.5.5-.5h3.771c.276 0 .5.224.5.5v4.713c0 .194-.112.37-.288.453C55.36 77.007 55.287 77.022 55.216 77.022zM53.33 74.451c.114 0 .228.039.32.116l1.065.888v-3.146h-2.771v3.146l1.065-.888C53.103 74.49 53.217 74.451 53.33 74.451zM36.701 69.042c-.207 0-.375-.168-.375-.375v-1.885c0-.207.168-.375.375-.375s.375.168.375.375v1.885C37.076 68.874 36.908 69.042 36.701 69.042zM36.701 70.927c-.207 0-.375-.168-.375-.375v-.629c0-.207.168-.375.375-.375s.375.168.375.375v.629C37.076 70.759 36.908 70.927 36.701 70.927z"/><path fill="#88ae45" d="M35.1,33.398c-0.945,0-1.782-0.518-2.36-1.322v36.823c0,1.838,1.49,3.328,3.328,3.328H60.39c3.111,0,5.656-2.545,5.656-5.656V33.398H35.1z"/><path fill="#472b29" d="M60.39,72.926H36.067c-2.221,0-4.028-1.807-4.028-4.027V32.076c0-0.304,0.196-0.573,0.485-0.666c0.289-0.096,0.605,0.011,0.783,0.258c0.478,0.664,1.114,1.03,1.792,1.03h30.946c0.387,0,0.7,0.313,0.7,0.7v33.173C66.746,70.075,63.895,72.926,60.39,72.926z M33.44,33.647v35.252c0,1.448,1.179,2.627,2.627,2.627H60.39c2.732,0,4.956-2.223,4.956-4.955V34.098H35.1C34.519,34.098,33.952,33.941,33.44,33.647z"/><path fill="#6f913d" d="M36.701,71.495h-1.025c-1.26,0-2.282-1.022-2.282-2.282V28.762h3.307V71.495z"/><path fill="#472b29" d="M36.701,65.9c-0.207,0-0.375-0.168-0.375-0.375V29.076c0-0.207,0.168-0.375,0.375-0.375s0.375,0.168,0.375,0.375v36.449C37.076,65.732,36.908,65.9,36.701,65.9z"/><path fill="#fdfcef" d="M35.529,27.457c-1.677,0-3.037,1.323-3.037,2.98c0,1.646,1.357,2.98,3.037,2.98h30.517c0,0-1.017-1.568-1.017-3.032s1.017-2.927,1.017-2.927H35.529L35.529,27.457z"/><path fill="#472b29" d="M66.046 34.016H35.529c-2.005 0-3.637-1.605-3.637-3.58 0-1.974 1.631-3.579 3.637-3.579h30.517c.223 0 .427.124.531.321.104.197.089.437-.038.62-.009.013-.91 1.333-.91 2.585 0 1.056.665 2.312.92 2.707.12.185.129.419.024.612S66.266 34.016 66.046 34.016zM35.529 28.056c-1.344 0-2.437 1.067-2.437 2.38s1.093 2.381 2.437 2.381h29.516c-.297-.646-.616-1.546-.616-2.434 0-.864.302-1.711.594-2.327H35.529zM36.701 70.298c-.207 0-.375-.168-.375-.375v-3.142c0-.207.168-.375.375-.375s.375.168.375.375v3.142C37.076 70.131 36.908 70.298 36.701 70.298z"/><path fill="#472b29" d="M65.088 29.226h-27.77c-.083 0-.15-.067-.15-.15s.067-.15.15-.15h27.77c.083 0 .15.067.15.15S65.171 29.226 65.088 29.226zM65.13 30.577H35.047c-.083 0-.15-.067-.15-.15s.067-.15.15-.15H65.13c.083 0 .15.067.15.15S65.213 30.577 65.13 30.577zM65.088 31.986h-27.77c-.083 0-.15-.067-.15-.15s.067-.15.15-.15h27.77c.083 0 .15.067.15.15S65.171 31.986 65.088 31.986z"/><path fill="#6f913d" d="M49.446,53.611c0-0.081,0-0.128,0-0.175c0-2.837,0-5.675,0-8.512c0-0.729,0.077-1.447,0.332-2.136c0.537-1.45,1.709-2.269,3.255-2.276c1.305-0.006,2.437,0.462,3.43,1.279c1.292,1.064,2.045,2.455,2.371,4.079c0.313,1.561,0.236,3.109-0.281,4.62c-0.593,1.731-1.707,3.039-3.293,3.944c-1.034,0.591-2.152,0.926-3.333,1.055c-0.019,0.002-0.038,0.006-0.066,0.011c0,1.864,0,3.724,0,5.592c-0.809,0-1.608,0-2.417,0c0-1.866,0-3.725,0-5.585c-0.294-0.039-0.578-0.068-0.86-0.115c-1.694-0.286-3.211-0.941-4.435-2.18c-0.926-0.938-1.5-2.071-1.771-3.355c-0.324-1.537-0.289-3.064,0.215-4.563c0.531-1.577,1.483-2.859,2.782-3.889c0.505-0.4,1.05-0.734,1.637-0.999c0.059-0.027,0.106-0.055,0.16,0.024c0.307,0.451,0.62,0.898,0.931,1.346c0.009,0.013,0.014,0.028,0.011,0.022c-0.354,0.283-0.717,0.544-1.046,0.843c-1.238,1.121-2.001,2.506-2.229,4.166c-0.174,1.265-0.068,2.506,0.443,3.69c0.614,1.425,1.671,2.372,3.144,2.849C48.755,53.451,49.094,53.52,49.446,53.611z M51.859,53.622c0.157-0.028,0.294-0.05,0.431-0.077c0.082-0.016,0.162-0.039,0.243-0.06c1.58-0.412,2.727-1.357,3.381-2.849c0.708-1.617,0.773-3.293,0.303-4.988c-0.24-0.863-0.644-1.645-1.264-2.301c-0.421-0.446-0.909-0.783-1.527-0.9c-0.634-0.12-1.102,0.127-1.354,0.723c-0.035,0.084-0.066,0.171-0.091,0.259c-0.099,0.352-0.123,0.712-0.123,1.076c0.001,2.992,0,5.984,0,8.976C51.859,53.523,51.859,53.566,51.859,53.622z"/><g><path fill="#fdfcef" d="M42.018,75.867c1.883,0,3.517,0,3.54,0c2.11,0,3.821-1.674,3.821-3.739c0-1.802-1.302-3.305-3.035-3.66c0.02-0.158,0.034-0.317,0.034-0.48c0-2.139-1.772-3.873-3.957-3.873c-1.29,0-2.433,0.607-3.155,1.543c-0.185-2.381-2.358-4.218-4.9-3.913c-1.859,0.223-3.397,1.629-3.739,3.431c-0.11,0.578-0.098,1.139,0.011,1.665c-0.498-0.525-1.208-0.856-1.998-0.856c-1.446,0-2.627,1.102-2.72,2.494c-0.657-0.142-1.371-0.133-2.123,0.143c-1.438,0.528-2.462,1.853-2.522,3.356c-0.085,2.133,1.657,3.889,3.818,3.889c0.164,0,0.741,0,0.874,0h7.934 M35.54,75.867h0.36"/><path fill="#472b29" d="M45.558,76.367h-3.54c-0.276,0-0.5-0.224-0.5-0.5s0.224-0.5,0.5-0.5h3.54c1.831,0,3.321-1.453,3.321-3.239c0-1.524-1.108-2.857-2.636-3.169c-0.256-0.053-0.429-0.294-0.396-0.553c0.018-0.138,0.03-0.276,0.03-0.418c0-1.86-1.551-3.373-3.457-3.373c-1.091,0-2.097,0.491-2.76,1.348c-0.126,0.164-0.339,0.23-0.539,0.174c-0.198-0.06-0.339-0.234-0.355-0.44c-0.079-1.02-0.565-1.944-1.37-2.604c-0.829-0.68-1.883-0.981-2.972-0.853c-1.646,0.197-3.006,1.442-3.307,3.028c-0.094,0.494-0.091,0.989,0.009,1.471c0.045,0.219-0.06,0.441-0.258,0.545c-0.196,0.103-0.441,0.063-0.594-0.1c-0.428-0.451-1.009-0.7-1.635-0.7c-1.169,0-2.145,0.891-2.221,2.028c-0.01,0.146-0.082,0.279-0.198,0.366s-0.263,0.12-0.407,0.089c-0.636-0.137-1.239-0.098-1.845,0.125c-1.262,0.462-2.144,1.63-2.195,2.905c-0.035,0.875,0.283,1.708,0.895,2.345c0.635,0.66,1.495,1.024,2.423,1.024h8.808c0.276,0,0.5,0.224,0.5,0.5s-0.224,0.5-0.5,0.5h-8.808c-1.185,0-2.331-0.485-3.144-1.331c-0.802-0.835-1.219-1.928-1.173-3.077c0.067-1.676,1.212-3.205,2.849-3.806c0.612-0.224,1.244-0.309,1.88-0.244c0.344-1.396,1.629-2.425,3.135-2.425c0.493,0,0.977,0.113,1.414,0.323c0.009-0.241,0.037-0.483,0.083-0.726c0.381-2.009,2.096-3.586,4.17-3.834c1.361-0.166,2.685,0.218,3.726,1.071c0.736,0.604,1.272,1.413,1.544,2.305c0.792-0.649,1.788-1.009,2.845-1.009c2.458,0,4.457,1.962,4.457,4.373c0,0.034,0,0.068-0.001,0.103c1.764,0.555,3.003,2.188,3.003,4.037C49.879,74.465,47.94,76.367,45.558,76.367z M35.9,76.367h-0.36c-0.276,0-0.5-0.224-0.5-0.5s0.224-0.5,0.5-0.5h0.36c0.276,0,0.5,0.224,0.5,0.5S36.176,76.367,35.9,76.367z"/><path fill="#472b29" d="M43.85,70.564c-0.018,0-0.036-0.002-0.054-0.006c-0.135-0.03-0.22-0.164-0.19-0.299c0.037-0.165,0.094-0.327,0.169-0.479c0.605-1.224,2.275-1.674,3.722-1.006c0.125,0.058,0.18,0.206,0.122,0.331c-0.059,0.126-0.206,0.18-0.332,0.122c-1.203-0.556-2.578-0.208-3.064,0.774c-0.058,0.116-0.101,0.24-0.129,0.367C44.069,70.485,43.965,70.564,43.85,70.564z"/><g><path fill="#472b29" d="M38.692,76.367h-1.107c-0.276,0-0.5-0.224-0.5-0.5s0.224-0.5,0.5-0.5h1.107c0.276,0,0.5,0.224,0.5,0.5S38.968,76.367,38.692,76.367z"/></g></g><g><path fill="#f1bc19" d="M70.415,69.381c1.015-0.626,1.437-2.077,1.211-2.825l-0.271-2.163c4.004-2.011,6.959-6.067,6.959-10.779c0-6.703-5.755-12.157-12.595-12.157s-12.385,5.434-12.385,12.137c0,4.712,2.745,8.787,6.749,10.798l-0.271,2.163c0,1.258,0.837,2.335,1.993,2.72"/><path fill="#472b29" d="M70.416,70.081c-0.235,0-0.464-0.118-0.596-0.333c-0.203-0.329-0.101-0.76,0.229-0.963c0.753-0.465,1.04-1.592,0.909-2.025c-0.012-0.038-0.02-0.077-0.024-0.116l-0.271-2.164c-0.037-0.294,0.115-0.579,0.38-0.713c3.993-2.005,6.573-5.99,6.573-10.152c0-6.317-5.336-11.457-11.895-11.457c-6.443,0-11.684,5.131-11.684,11.438c0,4.304,2.438,8.201,6.363,10.172c0.265,0.134,0.417,0.419,0.38,0.713l-0.271,2.164c0.006,0.84,0.614,1.666,1.521,1.969c0.367,0.122,0.565,0.519,0.442,0.886c-0.123,0.366-0.518,0.564-0.886,0.442c-1.478-0.493-2.472-1.854-2.472-3.384l0.217-1.77c-4.142-2.275-6.695-6.52-6.695-11.192c0-7.079,5.87-12.838,13.084-12.838c7.331,0,13.295,5.768,13.295,12.857c0,4.53-2.694,8.864-6.904,11.173l0.204,1.631c0.283,1.076-0.298,2.798-1.532,3.559C70.668,70.047,70.541,70.081,70.416,70.081z"/><path fill="#472b29" d="M64.242,68.115c-0.008,0-0.015,0-0.023-0.001c-0.138-0.013-0.239-0.134-0.227-0.271c0.261-2.89,0.051-5.204-0.68-7.207c-0.78,0.206-1.6,0.096-2.212-0.338c-0.547-0.389-0.879-0.917-0.911-1.451c-0.026-0.443,0.152-0.853,0.517-1.183c0.187-0.169,0.385-0.272,0.589-0.306c0.478-0.072,0.981,0.222,1.347,0.798c0.376,0.592,0.696,1.203,0.961,1.846c0.137-0.062,0.27-0.137,0.396-0.224c0.175-0.12,0.332-0.256,0.472-0.401c-0.003-0.005-0.007-0.009-0.011-0.014c-0.433-0.53-0.513-1.272-0.24-2.206c0.119-0.405,0.501-0.794,0.89-0.906c0.258-0.074,0.501-0.024,0.684,0.14c0.267,0.236,0.333,0.621,0.196,1.144c-0.14,0.535-0.388,1.199-0.824,1.792c0.545,0.344,1.308,0.328,1.656,0.301c0.547-0.046,1.073-0.298,1.469-0.702c-0.689-0.452-1.004-1.064-0.872-1.727c0.085-0.425,0.471-0.877,0.896-1.052c0.286-0.117,0.563-0.1,0.784,0.048c0.298,0.2,0.336,0.554,0.363,0.812c0.064,0.604-0.084,1.225-0.413,1.756c0.195,0.083,0.397,0.149,0.599,0.201c0.458-0.854,0.935-1.467,1.384-1.644c0.213-0.082,0.623-0.151,0.981,0.33c0.54,0.724,0.397,1.188,0.183,1.449c-0.396,0.483-1.342,0.59-2.277,0.432c-1.201,2.47-2.369,6.791-2.223,8.157c0.015,0.137-0.084,0.261-0.222,0.275c-0.127,0.017-0.26-0.084-0.275-0.223c-0.147-1.38,0.933-5.682,2.217-8.323c-0.235-0.065-0.463-0.147-0.674-0.244c-0.49,0.547-1.169,0.893-1.881,0.951c-0.818,0.068-1.524-0.081-2.019-0.415c-0.166,0.174-0.353,0.336-0.562,0.48c-0.159,0.109-0.325,0.202-0.497,0.278c0.755,2.07,0.974,4.454,0.706,7.419C64.479,68.017,64.37,68.115,64.242,68.115z M61.447,57.846c-0.024,0-0.048,0.002-0.072,0.006c-0.107,0.017-0.219,0.078-0.333,0.182c-0.252,0.229-0.371,0.492-0.354,0.783c0.023,0.382,0.278,0.772,0.701,1.072c0.469,0.333,1.118,0.422,1.739,0.273c-0.252-0.604-0.554-1.182-0.908-1.739C62.038,58.136,61.745,57.846,61.447,57.846z M70.162,59.061c0.758,0.1,1.431-0.013,1.649-0.278c0.184-0.225-0.005-0.577-0.196-0.834c-0.163-0.217-0.287-0.207-0.398-0.163C70.895,57.912,70.531,58.383,70.162,59.061z M65.339,56.717c-0.025,0-0.055,0.004-0.09,0.014c-0.227,0.065-0.478,0.324-0.549,0.566c-0.212,0.725-0.179,1.29,0.098,1.684c0.371-0.52,0.585-1.102,0.709-1.574c0.058-0.224,0.098-0.517-0.044-0.644C65.447,56.75,65.411,56.717,65.339,56.717z M68.683,56.569c-0.053,0-0.111,0.013-0.176,0.039c-0.271,0.111-0.543,0.427-0.596,0.688c-0.116,0.579,0.298,0.986,0.695,1.236c0.284-0.444,0.415-0.967,0.361-1.472c-0.024-0.23-0.048-0.386-0.145-0.451C68.781,56.582,68.735,56.569,68.683,56.569z"/><path fill="#c29b67" d="M69.086,72.459h-6.818c-0.787,0-1.43-0.662-1.43-1.47v0c0-0.809,0.644-1.47,1.43-1.47h7.163c0.787,0,1.43,0.662,1.43,1.47v0c0,0.439,0,0.439-0.299,0.843"/><path fill="#472b29" d="M69.086,72.959h-6.818c-1.064,0-1.93-0.884-1.93-1.97c0-1.087,0.866-1.971,1.93-1.971h7.163c1.064,0,1.93,0.884,1.93,1.971c0,0.566-0.05,0.671-0.397,1.14c-0.164,0.223-0.477,0.269-0.699,0.105c-0.222-0.164-0.269-0.478-0.104-0.699c0.201-0.272,0.201-0.272,0.201-0.546c0-0.535-0.417-0.971-0.93-0.971h-7.163c-0.513,0-0.93,0.436-0.93,0.971s0.417,0.97,0.93,0.97h6.818c0.276,0,0.5,0.224,0.5,0.5S69.362,72.959,69.086,72.959z"/><path fill="#c29b67" d="M69.116,75.399h-6.06c-0.809,0-1.47-0.662-1.47-1.47v0c0-0.809,0.662-1.47,1.47-1.47h6.06c0.809,0,1.47,0.662,1.47,1.47v0C70.586,74.737,69.924,75.399,69.116,75.399z"/><path fill="#472b29" d="M69.115,75.899h-6.06c-1.086,0-1.97-0.884-1.97-1.971c0-1.086,0.884-1.97,1.97-1.97h6.06c1.086,0,1.97,0.884,1.97,1.97C71.086,75.015,70.202,75.899,69.115,75.899z M63.055,72.959c-0.535,0-0.97,0.435-0.97,0.97s0.435,0.971,0.97,0.971h6.06c0.535,0,0.97-0.436,0.97-0.971s-0.435-0.97-0.97-0.97H63.055z"/><g><path fill="#9f8066" d="M68.909,75.623c0,1.388-2.213,1.741-2.873,1.741c-1.553,0-2.812-0.807-2.812-1.802"/><path fill="#472b29" d="M66.036,77.864c-1.857,0-3.312-1.011-3.312-2.302c0-0.276,0.224-0.5,0.5-0.5s0.5,0.224,0.5,0.5c0,0.615,0.95,1.302,2.312,1.302c0.502,0,2.373-0.311,2.373-1.24c0-0.276,0.224-0.5,0.5-0.5s0.5,0.224,0.5,0.5C69.408,77.316,67.136,77.864,66.036,77.864z"/></g><path fill="#472b29" d="M75.523 53.905c-.138 0-.25-.112-.25-.25 0-.821-.116-1.636-.346-2.42-.039-.133.037-.271.169-.311.134-.041.271.037.31.17.243.83.366 1.691.366 2.561C75.773 53.793 75.661 53.905 75.523 53.905zM74.545 49.859c-.09 0-.178-.05-.222-.136-1.281-2.491-3.716-4.25-6.515-4.704-.481-.078-.976-.118-1.473-.118-.138 0-.25-.112-.25-.25s.112-.25.25-.25c.523 0 1.046.042 1.553.124 2.955.479 5.526 2.338 6.879 4.97.063.123.015.273-.108.337C74.623 49.85 74.584 49.859 74.545 49.859z"/></g></svg>