<svg xmlns="http://www.w3.org/2000/svg" viewBox="0 0 64 64"><linearGradient id="eOptHrESARZFDI4frgXq_a" x1="45" x2="45" y1="41" y2="33" gradientTransform="matrix(1 0 0 -1 0 66)" gradientUnits="userSpaceOnUse"><stop offset="0" stop-color="#6dc7ff"/><stop offset="1" stop-color="#e6abff"/></linearGradient><circle cx="45" cy="29" r="4" fill="url(#eOptHrESARZFDI4frgXq_a)"/><linearGradient id="eOptHrESARZFDI4frgXq_b" x1="45" x2="45" y1="57" y2="54" gradientTransform="matrix(1 0 0 -1 0 66)" gradientUnits="userSpaceOnUse"><stop offset="0" stop-color="#6dc7ff"/><stop offset="1" stop-color="#e6abff"/></linearGradient><rect width="8" height="3" x="41" y="9" fill="url(#eOptHrESARZFDI4frgXq_b)"/><linearGradient id="eOptHrESARZFDI4frgXq_c" x1="25.5" x2="25.5" y1="404.328" y2="410.794" gradientTransform="translate(0 -378)" gradientUnits="userSpaceOnUse"><stop offset="0" stop-color="#6dc7ff"/><stop offset="1" stop-color="#e6abff"/></linearGradient><circle cx="25.5" cy="29.5" r="2.5" fill="url(#eOptHrESARZFDI4frgXq_c)"/><linearGradient id="eOptHrESARZFDI4frgXq_d" x1="31.03" x2="31.03" y1="61.083" y2="8.966" gradientTransform="matrix(1 0 0 -1 0 66)" gradientUnits="userSpaceOnUse"><stop offset="0" stop-color="#1a6dff"/><stop offset="1" stop-color="#c822ff"/></linearGradient><path fill="url(#eOptHrESARZFDI4frgXq_d)" d="M39.96,14.42c0,0.01,0,0.01,0,0.02c-0.6,0.3-1.11,0.76-1.48,1.32C36.81,14.02,34.47,13,32,13	c-3.2,0-6.19,1.72-7.8,4.5c-0.1,0.19-0.21,0.38-0.3,0.57l-1.8-0.87c0.12-0.24,0.24-0.47,0.37-0.7C24.43,13.11,28.09,11,32,11	C35.03,11,37.91,12.27,39.96,14.42z"/><linearGradient id="eOptHrESARZFDI4frgXq_e" x1="35.5" x2="35.5" y1="61.083" y2="8.966" gradientTransform="matrix(1 0 0 -1 0 66)" gradientUnits="userSpaceOnUse"><stop offset="0" stop-color="#1a6dff"/><stop offset="1" stop-color="#c822ff"/></linearGradient><path fill="url(#eOptHrESARZFDI4frgXq_e)" d="M37,21h-3v-1c0-0.552,0.448-1,1-1h1c0.552,0,1,0.448,1,1V21z"/><linearGradient id="eOptHrESARZFDI4frgXq_f" x1="45" x2="45" y1="61.083" y2="8.966" gradientTransform="matrix(1 0 0 -1 0 66)" gradientUnits="userSpaceOnUse"><stop offset="0" stop-color="#1a6dff"/><stop offset="1" stop-color="#c822ff"/></linearGradient><path fill="url(#eOptHrESARZFDI4frgXq_f)" d="M55,38H35c-1.654,0-3-1.346-3-3V23c0-1.654,1.346-3,3-3h20c1.654,0,3,1.346,3,3v12	C58,36.654,56.654,38,55,38z M35,22c-0.551,0-1,0.449-1,1v12c0,0.551,0.449,1,1,1h20c0.551,0,1-0.449,1-1V23c0-0.551-0.449-1-1-1H35	z"/><linearGradient id="eOptHrESARZFDI4frgXq_g" x1="45" x2="45" y1="61.083" y2="8.966" gradientTransform="matrix(1 0 0 -1 0 66)" gradientUnits="userSpaceOnUse"><stop offset="0" stop-color="#1a6dff"/><stop offset="1" stop-color="#c822ff"/></linearGradient><path fill="url(#eOptHrESARZFDI4frgXq_g)" d="M45,34c-2.757,0-5-2.243-5-5s2.243-5,5-5s5,2.243,5,5S47.757,34,45,34z M45,26	c-1.654,0-3,1.346-3,3s1.346,3,3,3s3-1.346,3-3S46.654,26,45,26z"/><linearGradient id="eOptHrESARZFDI4frgXq_h" x1="54.5" x2="54.5" y1="61.083" y2="8.966" gradientTransform="matrix(1 0 0 -1 0 66)" gradientUnits="userSpaceOnUse"><stop offset="0" stop-color="#1a6dff"/><stop offset="1" stop-color="#c822ff"/></linearGradient><path fill="url(#eOptHrESARZFDI4frgXq_h)" d="M56,21h-3v-1c0-0.552,0.448-1,1-1h1c0.552,0,1,0.448,1,1V21z"/><linearGradient id="eOptHrESARZFDI4frgXq_i" x1="37.5" x2="37.5" y1="61.083" y2="8.966" gradientTransform="matrix(1 0 0 -1 0 66)" gradientUnits="userSpaceOnUse"><stop offset="0" stop-color="#1a6dff"/><stop offset="1" stop-color="#c822ff"/></linearGradient><path fill="url(#eOptHrESARZFDI4frgXq_i)" d="M38,26h-1c-0.552,0-1-0.448-1-1l0,0c0-0.552,0.448-1,1-1h1c0.552,0,1,0.448,1,1l0,0	C39,25.552,38.552,26,38,26z"/><linearGradient id="eOptHrESARZFDI4frgXq_j" x1="52.5" x2="52.5" y1="61.083" y2="8.966" gradientTransform="matrix(1 0 0 -1 0 66)" gradientUnits="userSpaceOnUse"><stop offset="0" stop-color="#1a6dff"/><stop offset="1" stop-color="#c822ff"/></linearGradient><path fill="url(#eOptHrESARZFDI4frgXq_j)" d="M53,26h-1c-0.552,0-1-0.448-1-1l0,0c0-0.552,0.448-1,1-1h1c0.552,0,1,0.448,1,1l0,0	C54,25.552,53.552,26,53,26z"/><linearGradient id="eOptHrESARZFDI4frgXq_k" x1="55.5" x2="55.5" y1="61.083" y2="8.966" gradientTransform="matrix(1 0 0 -1 0 66)" gradientUnits="userSpaceOnUse"><stop offset="0" stop-color="#1a6dff"/><stop offset="1" stop-color="#c822ff"/></linearGradient><rect width="3" height="2" x="54" y="28" fill="url(#eOptHrESARZFDI4frgXq_k)"/><linearGradient id="eOptHrESARZFDI4frgXq_l" x1="55.5" x2="55.5" y1="61.083" y2="8.966" gradientTransform="matrix(1 0 0 -1 0 66)" gradientUnits="userSpaceOnUse"><stop offset="0" stop-color="#1a6dff"/><stop offset="1" stop-color="#c822ff"/></linearGradient><rect width="3" height="2" x="54" y="32" fill="url(#eOptHrESARZFDI4frgXq_l)"/><linearGradient id="eOptHrESARZFDI4frgXq_m" x1="43" x2="43" y1="61.083" y2="8.966" gradientTransform="matrix(1 0 0 -1 0 66)" gradientUnits="userSpaceOnUse"><stop offset="0" stop-color="#1a6dff"/><stop offset="1" stop-color="#c822ff"/></linearGradient><rect width="2" height="5" x="42" y="12" fill="url(#eOptHrESARZFDI4frgXq_m)"/><linearGradient id="eOptHrESARZFDI4frgXq_n" x1="47" x2="47" y1="61.083" y2="8.966" gradientTransform="matrix(1 0 0 -1 0 66)" gradientUnits="userSpaceOnUse"><stop offset="0" stop-color="#1a6dff"/><stop offset="1" stop-color="#c822ff"/></linearGradient><rect width="2" height="5" x="46" y="12" fill="url(#eOptHrESARZFDI4frgXq_n)"/><linearGradient id="eOptHrESARZFDI4frgXq_o" x1="45" x2="45" y1="61.083" y2="8.966" gradientTransform="matrix(1 0 0 -1 0 66)" gradientUnits="userSpaceOnUse"><stop offset="0" stop-color="#1a6dff"/><stop offset="1" stop-color="#c822ff"/></linearGradient><path fill="url(#eOptHrESARZFDI4frgXq_o)" d="M48,13h-6c-1.103,0-2-0.897-2-2V7c0-1.103,0.897-2,2-2h6c1.103,0,2,0.897,2,2v4	C50,12.103,49.103,13,48,13z M42,7v4h6.001L48,7H42z"/><linearGradient id="eOptHrESARZFDI4frgXq_p" x1="34.5" x2="34.5" y1="61.083" y2="8.966" gradientTransform="matrix(1 0 0 -1 0 66)" gradientUnits="userSpaceOnUse"><stop offset="0" stop-color="#1a6dff"/><stop offset="1" stop-color="#c822ff"/></linearGradient><rect width="3" height="2" x="33" y="28" fill="url(#eOptHrESARZFDI4frgXq_p)"/><linearGradient id="eOptHrESARZFDI4frgXq_q" x1="34.5" x2="34.5" y1="61.083" y2="8.966" gradientTransform="matrix(1 0 0 -1 0 66)" gradientUnits="userSpaceOnUse"><stop offset="0" stop-color="#1a6dff"/><stop offset="1" stop-color="#c822ff"/></linearGradient><rect width="3" height="2" x="33" y="32" fill="url(#eOptHrESARZFDI4frgXq_q)"/><linearGradient id="eOptHrESARZFDI4frgXq_r" x1="43" x2="43" y1="61.083" y2="8.966" gradientTransform="matrix(1 0 0 -1 0 66)" gradientUnits="userSpaceOnUse"><stop offset="0" stop-color="#1a6dff"/><stop offset="1" stop-color="#c822ff"/></linearGradient><rect width="2" height="15" x="42" y="42" fill="url(#eOptHrESARZFDI4frgXq_r)"/><linearGradient id="eOptHrESARZFDI4frgXq_s" x1="47" x2="47" y1="61.083" y2="8.966" gradientTransform="matrix(1 0 0 -1 0 66)" gradientUnits="userSpaceOnUse"><stop offset="0" stop-color="#1a6dff"/><stop offset="1" stop-color="#c822ff"/></linearGradient><rect width="2" height="15" x="46" y="42" fill="url(#eOptHrESARZFDI4frgXq_s)"/><linearGradient id="eOptHrESARZFDI4frgXq_t" x1="45" x2="45" y1="61.083" y2="8.966" gradientTransform="matrix(1 0 0 -1 0 66)" gradientUnits="userSpaceOnUse"><stop offset="0" stop-color="#1a6dff"/><stop offset="1" stop-color="#c822ff"/></linearGradient><path fill="url(#eOptHrESARZFDI4frgXq_t)" d="M50,37v3c0,0.551-0.449,1-1,1h-8c-0.551,0-1-0.449-1-1v-3h-2v3c0,1.654,1.346,3,3,3h8	c1.654,0,3-1.346,3-3v-3H50z"/><linearGradient id="eOptHrESARZFDI4frgXq_u" x1="32" x2="32" y1="61.083" y2="8.966" gradientTransform="matrix(1 0 0 -1 0 66)" gradientUnits="userSpaceOnUse"><stop offset="0" stop-color="#1a6dff"/><stop offset="1" stop-color="#c822ff"/></linearGradient><path fill="url(#eOptHrESARZFDI4frgXq_u)" d="M32,49c2.81,0,5.53-0.62,8-1.77V45c-2.43,1.3-5.16,2-8,2c-5.34,0-10.33-2.49-13.54-6.71	c0.5-0.46,1.02-0.89,1.56-1.3C22.76,42.63,27.1,45,32,45c1.89,0,3.7-0.35,5.36-1l-1.14-1.71c-1.48,0.52-3.08,0.76-4.74,0.7	C24.44,42.72,19,36.66,19,29.61V22c0-7.17,5.83-13,13-13c2.16,0,4.21,0.53,6,1.47V8.26C36.16,7.45,34.14,7,32,7	c-8.27,0-15,6.73-15,15v1c-3.31,0-6,2.69-6,6s2.69,6,6,6h0.87c0.29,0.81,0.64,1.58,1.05,2.32C13.33,41.47,10,48.02,10,55v1	c0,0.55,0.45,1,1,1h29v-2h-4.14c-0.45-1.72-2-3-3.86-3s-3.41,1.28-3.86,3H18v-2h-2v2h-4c0-4.94,1.84-9.66,5.05-13.28	C20.65,46.3,26.13,49,32,49z M17,33c-2.21,0-4-1.79-4-4s1.79-4,4-4v5c0,1.03,0.11,2.03,0.31,3H17z M32,54c0.74,0,1.38,0.4,1.72,1	h-3.44C30.62,54.4,31.26,54,32,54z M51.44,44.72C50.99,44.9,50.51,45,50,45v1.32c1.3,2.67,2,5.63,2,8.68h-2v2h3c0.55,0,1-0.45,1-1	v-1C54,51.37,53.1,47.85,51.44,44.72z"/><linearGradient id="eOptHrESARZFDI4frgXq_v" x1="45" x2="45" y1="61.083" y2="8.966" gradientTransform="matrix(1 0 0 -1 0 66)" gradientUnits="userSpaceOnUse"><stop offset="0" stop-color="#1a6dff"/><stop offset="1" stop-color="#c822ff"/></linearGradient><path fill="url(#eOptHrESARZFDI4frgXq_v)" d="M41.031,21l0.75-3h6.438l0.75,3h2.062l-0.871-3.485C49.937,16.623,49.139,16,48.219,16	h-6.438c-0.919,0-1.717,0.623-1.94,1.515L38.969,21H41.031z"/></svg>