<svg xmlns="http://www.w3.org/2000/svg" viewBox="0 0 24 24"><path d="M 14 0 L 14 9 L 16.03125 6.96875 L 24 6.96875 L 24 0 Z M 16 2 L 22 2 L 22 3 L 16 3 Z M 16 4 L 20 4 L 20 5 L 16 5 Z M 8 6 C 4.6875 6 2 8.6875 2 12 C 2 15.3125 4.6875 18 8 18 C 11.3125 18 14 15.3125 14 12 C 14 8.6875 11.3125 6 8 6 Z M 4 14 L 12 14 C 11.261719 15.476563 9.761719 16.5 8 16.5 C 6.238281 16.5 4.738281 15.476563 4 14 Z M 4.625 19.03125 C 2.460938 19.617188 0.777344 21.011719 0 24 L 16 24 C 15.222656 21.011719 13.539063 19.617188 11.375 19.03125 C 10.371094 19.585938 9.214844 19.90625 8 19.90625 C 6.785156 19.90625 5.628906 19.585938 4.625 19.03125 Z"/></svg>