<?xml version="1.0"?><svg xmlns="http://www.w3.org/2000/svg" viewBox="0 0 30 30">    <path d="M 15 2.7265625 L 14.269531 7.1035156 C 14.268531 7.1045156 14.266625 7.1054687 14.265625 7.1054688 C 13.570625 7.5144688 12.17 8.338 12 11 L 12 13 L 11 15 L 9.5 8 L 8 16 L 8 25 L 22 25 L 22 16 L 20.5 8 L 19 15 L 18 13 L 18 11 C 17.83 8.338 16.428422 7.5144687 15.732422 7.1054688 C 15.731422 7.1044687 15.729516 7.1035156 15.728516 7.1035156 L 15 2.7265625 z M 4 9 L 3 13 L 3 16 L 1 16 L 1 25 L 6 25 L 6 16 L 5 16 L 5 13 L 4 9 z M 26 9 L 25 13 L 25 16 L 24 16 L 24 25 L 29 25 L 29 16 L 27 16 L 27 13 L 26 9 z M 3.5 18.5 C 3.776 18.5 4 18.724 4 19 L 4 20 L 3 20 L 3 19 C 3 18.724 3.224 18.5 3.5 18.5 z M 10.5 18.5 C 10.776 18.5 11 18.724 11 19 L 11 20 L 10 20 L 10 19 C 10 18.724 10.224 18.5 10.5 18.5 z M 13.5 18.5 C 13.776 18.5 14 18.724 14 19 L 14 20 L 13 20 L 13 19 C 13 18.724 13.224 18.5 13.5 18.5 z M 16.5 18.5 C 16.776 18.5 17 18.724 17 19 L 17 20 L 16 20 L 16 19 C 16 18.724 16.224 18.5 16.5 18.5 z M 19.5 18.5 C 19.776 18.5 20 18.724 20 19 L 20 20 L 19 20 L 19 19 C 19 18.724 19.224 18.5 19.5 18.5 z M 26.5 18.5 C 26.776 18.5 27 18.724 27 19 L 27 20 L 26 20 L 26 19 C 26 18.724 26.224 18.5 26.5 18.5 z M 3.5 21.5 C 3.776 21.5 4 21.724 4 22 L 4 23 L 3 23 L 3 22 C 3 21.724 3.224 21.5 3.5 21.5 z M 10.5 21.5 C 10.776 21.5 11 21.724 11 22 L 11 23 L 10 23 L 10 22 C 10 21.724 10.224 21.5 10.5 21.5 z M 13.5 21.5 C 13.776 21.5 14 21.724 14 22 L 14 23 L 13 23 L 13 22 C 13 21.724 13.224 21.5 13.5 21.5 z M 16.5 21.5 C 16.776 21.5 17 21.724 17 22 L 17 23 L 16 23 L 16 22 C 16 21.724 16.224 21.5 16.5 21.5 z M 19.5 21.5 C 19.776 21.5 20 21.724 20 22 L 20 23 L 19 23 L 19 22 C 19 21.724 19.224 21.5 19.5 21.5 z M 26.5 21.5 C 26.776 21.5 27 21.724 27 22 L 27 23 L 26 23 L 26 22 C 26 21.724 26.224 21.5 26.5 21.5 z"/></svg>