<svg xmlns="http://www.w3.org/2000/svg" viewBox="0 0 128 128"><path d="M 64.037109 22.875 C 51.174609 22.875 38.3 24.050391 25.5 26.400391 C 20.1 27.400391 15.700781 31.500391 14.300781 36.900391 L 14.300781 37 C 13.900781 38.6 14.9 40.199609 16.5 40.599609 C 18.1 40.999609 19.699609 40.000391 20.099609 38.400391 L 20.099609 38.300781 C 20.899609 35.200781 23.4 32.799219 26.5 32.199219 C 51.3 27.599219 76.500781 27.599219 101.30078 32.199219 C 104.40078 32.799219 107.00078 35.200781 107.80078 38.300781 C 112.00078 55.000781 112.00078 72.700391 107.80078 89.400391 L 107.80078 89.5 C 107.00078 92.6 104.50039 94.999609 101.40039 95.599609 C 76.600391 100.19961 51.399609 100.19961 26.599609 95.599609 C 23.499609 94.999609 20.899609 92.6 20.099609 89.5 C 17.099609 77.4 16.199609 64.999219 17.599609 52.699219 C 17.799609 51.099219 16.600391 49.600391 14.900391 49.400391 C 13.300391 49.200391 11.799609 50.399609 11.599609 52.099609 C 10.199609 65.199609 11.100781 78.299609 14.300781 91.099609 C 15.600781 96.499609 20 100.59961 25.5 101.59961 C 38.3 103.99961 51.1 105.09961 64 105.09961 C 76.9 105.09961 89.7 103.89961 102.5 101.59961 C 107.9 100.59961 112.29922 96.499609 113.69922 91.099609 L 113.69922 91 C 118.09922 73.3 118.09922 54.700391 113.69922 36.900391 C 112.39922 31.500391 108 27.400391 102.5 26.400391 C 89.75 24.050391 76.899609 22.875 64.037109 22.875 z M 77.400391 42.099609 C 75.700391 42.099609 74.400391 43.399609 74.400391 45.099609 C 74.400391 46.799609 75.700391 48.099609 77.400391 48.099609 L 84.5 48.099609 L 75 61.400391 C 74.3 62.300391 74.200781 63.5 74.800781 64.5 C 75.300781 65.5 76.3 66.099609 77.5 66.099609 L 90.5 66.099609 L 90.800781 66.099609 C 92.300781 65.999609 93.5 64.699609 93.5 63.099609 C 93.5 61.399609 92.2 60.099609 90.5 60.099609 L 83.400391 60.099609 L 93 46.900391 C 93.5 45.900391 93.599609 44.699219 93.099609 43.699219 C 92.599609 42.699219 91.600391 42.099609 90.400391 42.099609 L 77.400391 42.099609 z M 60.919922 50.744141 C 60.649609 50.731641 60.374609 50.750781 60.099609 50.800781 L 52.400391 52.900391 C 50.800391 53.300391 49.800781 54.999609 50.300781 56.599609 C 50.700781 58.199609 52.4 59.199219 54 58.699219 L 56.300781 58.099609 L 53.5 66.400391 C 53.1 67.400391 53.399609 68.600391 54.099609 69.400391 C 54.899609 70.200391 55.999609 70.500781 57.099609 70.300781 L 64.800781 68.199219 C 65.100781 68.099219 65.3 68.000391 65.5 67.900391 C 66.6 67.200391 67.300391 65.9 66.900391 64.5 C 66.500391 62.9 64.799219 61.900391 63.199219 62.400391 L 60.900391 63 L 63.699219 54.699219 C 64.099219 53.599219 63.899609 52.499219 63.099609 51.699219 C 62.499609 51.099219 61.730859 50.781641 60.919922 50.744141 z M 43.400391 71.699219 A 3 3 0 0 0 43.400391 77.699219 A 3 3 0 0 0 43.400391 71.699219 z"/></svg>