<svg xmlns="http://www.w3.org/2000/svg" width="512" height="512" viewBox="0 0 512 512"><path fill="#C56528" d="M157.8,363.4c-4.1-4.7-14.3-2.5-13.6,4.3c0,0.5,0,1,0,1.4c0.4,0.3,0.8,0.6,1.1,1C149.8,375.5,163.6,370.1,157.8,363.4z"/><path fill="#C56528" d="M211.9,320.2c-25.3-24.5-65.3-33.8-98.3-20.5C94.1,307.5,76.8,323,73,344.4c-3.8,21.5,2.5,43.3,7.9,64.1c1.2,0.8,2,2.1,2,4.1v2.3c0,0,0.1,0.1,0.1,0.1c2.9,3.5,6,6.8,9.2,10c16,15.7,35.6,26.5,58.5,25.2c22.2-1.2,46.3-9.1,62.2-25.3C241.2,396.1,240.9,348.3,211.9,320.2z M192.2,423.4c-19.4,7.7-45.2,12.4-65.6,6c-22-6.8-40.9-24.6-41.4-48.6c-0.3-0.4-0.5-0.9-0.7-1.4c-9.2-25.9,5.3-51.7,28.5-64.2c23.2-12.5,53.4-10.9,76.2,1.9c20.3,11.4,33.3,32.2,34.7,55.6c0.7,11.2-1.2,22.5-7.2,32.1C211,413.8,201.8,419.5,192.2,423.4z"/><path fill="#D6E5E5" d="M295.9 117.3c-9.1-5-19.3-7.2-29.7-6.9-9.3.3-19.1 1.2-26.5 7.5-5.4 4.5-9.1 10.6-12.7 16.6 16.9-.3 33.8-1.3 50.6-1.9 8.6-.3 19.2-3.1 28.4-1.9C304.4 125.2 301.6 120.4 295.9 117.3zM400.3 197.1c.6-.7 1.3-1.1 2.1-1.4-.2-12.1-2.6-25.4-7.6-35.9-4.6-9.7-13-20.9-25.1-17.6-11.9 3.2-18.9 11.4-18.8 23.8 0 10.9 2.6 21.4 4.9 31.9 9.4-.1 18.9-.6 28.3-.6 3.5 0 7 0 10.5-.2 1.8-.1 3.5-.2 5.3-.5C401.4 196.3 401.9 195.5 400.3 197.1zM176.6 200.9c.6-.7 1.3-1.1 2.1-1.4-.2-12.1-2.6-25.4-7.6-35.9-4.6-9.7-13-20.9-25.1-17.6-11.9 3.2-18.9 11.4-18.8 23.8 0 10.9 2.6 21.4 4.9 31.9 9.4-.1 18.9-.6 28.3-.6 3.5 0 7 0 10.5-.2 1.8-.1 3.5-.2 5.3-.5C177.7 200.1 178.2 199.3 176.6 200.9z"/><path fill="#C56528" d="M291.1,359.5c-15.4-3.8-31.5-1.3-47.2-1c0.4,2.7,0.8,5.3,0.9,8c0.7-0.1,1.5-0.1,2.3,0.1c15.1,4,31.1,1,46.5,0.9c0.2,0,0.5,0,0.7,0c0.3-3,0.6-6,1-9C294.4,359.5,292.9,359.9,291.1,359.5z"/><path fill="#14B6B9" d="M451.8,117.4c-14.2-33.3-61.8-33.4-92.2-33c-29.6,0.4-59.1,1.6-88.7,1.8c-32.2,0.2-64.3-0.4-96.5-0.6c-18.9-0.1-38.2,2-56.1,8.4c-16.2,5.8-32.3,15.6-39.7,31.9c-10.2,22.6-1.7,49.4,5.7,71.5c9.8,29.1,19.2,59.4,35.4,85.7c0.7,1.1,0.9,2.1,0.9,3.1c11.7-3,24-4,35.8-2.8c22.1,2.3,44.1,11.6,60.6,26.5c-0.3-24.8-1.8-49.5-1.9-74.2c-0.1-15.9,0-31.7-0.6-47.6c-0.6-15.4-1.4-30.8-1.4-46.2c0-1.2,0.3-2.3,0.9-3.1c0.1-0.9,0.5-1.8,1.1-2.5c-0.4-1.2-0.3-2.5,0.6-3.9c5.5-9.1,11.1-19.1,20.1-25.1c10-6.7,22.8-8.3,34.6-7.7c12.3,0.6,25.9,3.4,35.7,11.4c8.6,7,11.3,16.9,12.7,27.5c0.2,1.3-0.1,2.4-0.6,3.3c0.3,13.2,1.7,26.3,2.8,39.4c1.1,14.1,1,28.2,1.3,42.3c0.3,14,0.8,28.1,1.9,42.1c0.7,8.8,1.9,17.6,2.4,26.4c21.2-15.9,50.8-18.2,76.7-10.5c0.2-0.7,0.5-1.3,0.9-1.9c4.3-6.1,7.1-13.7,10.2-20.5c3.2-6.9,6.2-13.9,9.2-20.9c6.2-14.5,12.2-29.2,18.2-43.8C451.1,171.2,462.3,142,451.8,117.4z M189.6,204.1c-0.2,4-3.8,6-6.9,5.7c-5.2,2.9-13.4,2.2-18.8,2.2c-11.6,0.1-23.2,0.7-34.7,0.7c-1.6,0-2.9-0.6-3.9-1.5c-1.4-0.4-2.6-1.5-3.1-3.5c-3.1-14.2-7.7-29.2-5.6-44c2.1-14.7,12.6-25.2,27.1-28.4C179,127.4,190.8,178.7,189.6,204.1z M413.3,200.3c-0.2,4-3.8,6-6.9,5.7c-5.2,2.9-13.4,2.2-18.8,2.2c-11.6,0.1-23.2,0.7-34.7,0.7c-1.6,0-2.9-0.6-3.9-1.5c-1.4-0.4-2.6-1.5-3.1-3.5c-3.1-14.2-7.7-29.2-5.6-44c2.1-14.7,12.6-25.2,27.1-28.4C402.7,123.6,414.5,175,413.3,200.3z"/><path fill="#127274" d="M293.9,341.8c-3.2-3.8-8.7-4.9-12.5-8c-3.7-3-5.4-7.1-4.4-11.9c0.2-1.1,0.8-2.6,0.7-3.7c0.9,0.1,0.7,0-0.6-0.3c-0.4-0.1-0.9-0.2-1.3-0.4c-2.4-0.7-4.3-1.8-6.3-3.3c-3.3-2.7-4.6-8.4-3.4-12.3c2.7-9,12.6-10.1,19.1-15.1c6.3-4.8,15-13.6,9.2-21.9c-4.8-6.8-12.6-10.9-18.2-16.9c-8.1-8.7-12-20.2-16.9-30.8c-5.6-12-10.7-23.8-15.1-36.4c-4-11.6-7.7-23.4-7.9-35.7c-4.1,0.2-8.2,0.3-12.3,0.4c0.2,14.6,0.9,29.1,1.5,43.6c0.5,15.2,0.4,30.4,0.5,45.6c0.2,27.9,2,55.7,2,83.5c0,1-0.2,1.9-0.6,2.7c5.2,6.6,9.5,14,12.5,22.1c0.6,1.5,1.1,3,1.5,4.5c17.2-0.2,34.9-3.1,51.9,1.1c1.5,0.4,2.6,1.2,3.3,2.3c0.4-2.4,0.8-4.7,1.2-7.1C296.3,343.7,295,343.1,293.9,341.8z"/><path fill="#C56528" d="M392.1,363.1c-2.2-5.8-12.5-7.3-14.3-0.7c-0.1,0.5-0.3,0.9-0.5,1.3c0.3,0.4,0.5,0.9,0.7,1.4C380.4,371.6,395.3,371.4,392.1,363.1z"/><path fill="#C56528" d="M457.9,341.6c-15.1-31.8-49.3-54.6-84.9-53.7c-21,0.5-42.6,8.9-53.6,27.7c-11.1,18.8-12.9,41.4-15.1,62.8c0.8,1.2,1.1,2.7,0.5,4.5L304,385c0,0,0,0.1,0,0.1c1.5,4.3,3.2,8.5,5.1,12.6c9.4,20.3,24.1,37.3,46,44.1c21.2,6.7,46.6,7.7,67.1-1.8C458.8,423,475.3,378.1,457.9,341.6z M450.7,395c-3.3,10.7-9,20.7-18,27.6c-8.4,6.4-19,8.6-29.4,8.8c-20.9,0.4-46.7-4.3-63.6-17.4c-18.2-14.1-29.7-37.4-21.7-60.1c-0.1-0.5-0.2-1-0.2-1.6c0.5-27.5,23.1-46.6,49.2-50.2c26.1-3.6,53.8,8.6,70.7,28.6C452.7,348.5,457.6,372.6,450.7,395z"/><path fill="#EF4823" d="M315.6,297.8c-0.1-10.5-1.8-21.1-2.6-31.6c-1-14-1.6-28-1.9-42.1c-0.2-14.1-0.1-28.2-1.3-42.3c-1.1-13.2-2.5-26.5-2.8-39.7c-4.4-1.2-9.9-0.2-14.1,0.2c-5.8,0.5-11.5,1.2-17.3,1.3c-9.5,0.1-18.9,0.6-28.3,1c0.3,12.5,4.3,24.2,8.5,36c4.4,12.5,10,24,15.3,36.1c4.4,10.1,8.6,20.4,17.2,27.7c5.8,4.9,12.4,9.4,16.3,16.2c4.6,8.2,2.9,17.7-2.6,25c-3.2,4.2-7.2,8.4-11.7,11.3c-3.5,2.2-7.5,3.4-10.9,5.7c-4.7,3.2-1.5,3.9,2.5,5.5c5.1,2,7.5,6.8,6.7,12.2c-0.2,1.3-0.6,2.6-0.7,3.9c0,0.3-0.1,0.6-0.1,0.7c0.1,0,0.1,0,0.2,0.1c1.5,1.2,3.2,2.1,4.9,3c2.7,1.5,5.3,3,7.5,5c2.4-8.6,5.7-16.8,10.5-24.2c1.8-2.8,3.8-5.4,5.9-7.7C316,300.1,315.7,299.1,315.6,297.8z"/><path d="M223.8,372.7c-1.4-23.4-14.4-44.3-34.7-55.6c-22.8-12.8-53.1-14.5-76.2-1.9c-23.2,12.5-37.7,38.4-28.5,64.2c0.2,0.6,0.4,1,0.7,1.4c0.5,24,19.4,41.8,41.4,48.6c20.4,6.3,46.2,1.7,65.6-6c9.7-3.8,18.8-9.6,24.4-18.5C222.6,395.3,224.4,383.9,223.8,372.7z M152.4,318.5c0-0.2,0-0.4,0-0.5c13.5,0.8,27.2,5.2,37.7,12.9c-1.3,0.4-2.5,1.2-3.3,2.4c-3.1,1.6-5.6,5.1-8.1,7.2c-4.4,3.6-9.2,6.9-14.3,9.6c-1.2,0.6-2,1.5-2.4,2.4c-1.7-0.9-3.5-1.5-5.4-1.9C155.2,339.8,151.6,329.2,152.4,318.5z M130.4,320.2c3.4-1,7-1.7,10.7-2c-0.4,11.1,2.6,21.6,4,32.6c-2.5,0.7-4.7,1.8-6.5,3.4c-0.2-0.2-0.3-0.4-0.5-0.6c-0.8-0.9-1.7-1.4-2.6-1.6c-0.8-0.6-1.6-1.2-2.4-1.8c-2.1-1.5-4.1-3.1-6.1-4.8c-5.7-4.8-11.3-10.3-18.1-13.5C115,326.5,122.5,322.5,130.4,320.2z M99.3,393.2c-1-2.4-1.8-5-2.2-7.7c-0.1-0.2-0.2-0.4-0.2-0.7c-0.5-3.2-0.9-6.5-1.2-9.7c-0.3-0.4-0.6-0.7-1-1c-3.8-12.3-0.8-23.9,6-33.4c0.3,0.2,0.7,0.4,1.1,0.5c7.4,2.8,12.9,8.9,19,13.8c3.4,2.8,7.9,7.4,12.3,8.6c-0.3,1.5-0.4,3.1-0.2,4.7c-12.4,3.1-21.4,16.6-31.7,23.1C100.3,391.9,99.7,392.5,99.3,393.2z M146.6,420.6c-16,0.3-32.7-6.6-42.2-18.8c1,0,2.1-0.3,3.1-0.9c5.1-3.2,9.4-7.9,14.1-11.8c4.3-3.6,10.5-9.8,16.4-10.1c0.2,0,0.3,0,0.5,0c3,2.5,6.6,3.8,10.2,4.2c0.6,5.8,2.8,11.5,4.9,16.9c1.4,3.8,5.3,11.4,4.4,14.6c-0.7,2.2,0,4,1.3,5.1C154.9,420.3,150.7,420.5,146.6,420.6z M145.3,370.2c-0.4-0.4-0.7-0.8-1.1-1c0.1-0.4,0.1-0.9,0-1.4c-0.6-6.8,9.5-9,13.6-4.3C163.6,370.1,149.8,375.5,145.3,370.2z M205.7,400.7c-6.1,8.3-16.9,12.3-26.4,15.1c-3.6,1.1-7.3,2-11.1,2.7c0.3-0.5,0.5-1,0.7-1.5c1.6-5.3-1.6-11.9-3.4-16.8c-2.2-6-5.2-12.2-5.8-18.6c2.7-1.2,5-2.8,6.8-4.9c14.5,5.3,28.5,12.1,43.6,15.6C209.1,395.2,207.6,398.1,205.7,400.7z M212.6,381.1c-13.4-3.1-25.8-9-38.6-13.8c-0.5-2.1-2.2-3.2-4-3.5c-0.2-1.2-0.6-2.4-1.1-3.7c0.6-0.1,1.2-0.3,1.8-0.6c7.7-4,15.6-9.5,21.6-16c2.7-1,4.2-3.6,4.7-6.6c0.7,0.7,1.3,1.4,1.9,2.1C207.9,349.6,213.8,366.1,212.6,381.1z"/><path d="M418.9,287.6c-1.8-0.9-3.6-1.7-5.5-2.5c7.8-11.7,12.9-25.8,18.4-38.5c6.3-14.5,12.1-29.3,18.2-43.9c10.7-25.6,21.2-53.7,14.5-81.6c-9.2-38.7-53.9-46.2-87.4-47.4c-24.5-0.9-49.2,0.7-73.7,1.2c-32.7,0.6-65.4,0.6-98.1,0.2C164.9,74.6,118,71.8,85,99.9c-9.3,7.9-15.8,17.8-19.4,29.4c-4.6,14.6-2.3,30.3,0.8,45c4.2,19.9,12,38.9,18.4,58.1c6.5,19.5,14.9,39.2,25.8,56.7c0,0,0,0.1,0.1,0.1C87.4,298,68.1,315.4,62.5,341c-4.2,19-0.3,38.8,4.6,57.8c5,10.5,9.7,21.2,15.2,31.5c13,13.4,28.2,24.4,46.8,28.9c22.3,5.4,47.8,0.1,68-9.9c19.5-9.6,34.9-25.6,42.6-46.1c3.1-8.3,4.9-17,5.4-25.8c0,0,0.1,0,0.1,0c16.1,4.3,33.1,1.2,49.5,1.1c0.1,0,0.2,0,0.3,0c0.6,5.8,1,11.7,1.7,17.5c7.6,18.4,18.2,35.2,35,46.7c18.9,12.9,44.7,16.9,67.1,14.6c21.6-2.1,41.7-11.7,56-28.2c13.5-15.5,21.3-35.7,21.3-56.3C476.1,336.2,450.8,303.4,418.9,287.6z M84.3,197.3c-7.4-22.1-16-48.9-5.7-71.5c7.4-16.3,23.5-26.1,39.7-31.9c17.9-6.4,37.2-8.5,56.1-8.4c32.2,0.2,64.3,0.8,96.5,0.6c29.6-0.2,59.1-1.4,88.7-1.8c30.4-0.4,77.9-0.3,92.2,33c10.5,24.6-0.7,53.8-10.2,76.9c-6,14.6-12,29.3-18.2,43.8c-3,7-6.1,13.9-9.2,20.9c-3.1,6.8-5.9,14.3-10.2,20.5c-0.4,0.6-0.7,1.3-0.9,1.9c-25.8-7.7-55.5-5.5-76.7,10.5c-0.5-8.8-1.8-17.6-2.4-26.4c-1.1-14-1.6-28-1.9-42.1c-0.3-14.1-0.2-28.2-1.3-42.3c-1.1-13.1-2.5-26.2-2.8-39.4c0.5-0.9,0.8-2,0.6-3.3c-1.4-10.6-4-20.5-12.7-27.5c-9.9-8-23.4-10.7-35.7-11.4c-11.8-0.6-24.6,1-34.6,7.7c-9,6.1-14.7,16-20.1,25.1c-0.9,1.4-1,2.8-0.6,3.9c-0.6,0.7-0.9,1.5-1.1,2.5c-0.6,0.8-0.9,1.9-0.9,3.1c0,15.4,0.8,30.8,1.4,46.2c0.6,15.9,0.5,31.7,0.6,47.6c0.1,24.8,1.6,49.5,1.9,74.2c-16.5-15-38.5-24.3-60.6-26.5c-11.8-1.2-24-0.2-35.8,2.8c0-1-0.2-2.1-0.9-3.1C103.5,256.7,94.1,226.4,84.3,197.3z M306,130.7c-9.2-1.2-19.8,1.6-28.4,1.9c-16.8,0.6-33.7,1.6-50.6,1.9c3.6-6,7.4-12.1,12.7-16.6c7.4-6.3,17.2-7.2,26.5-7.5c10.3-0.3,20.6,1.9,29.7,6.9C301.6,120.4,304.4,125.2,306,130.7z M212.9,424.9c-15.9,16.1-40,24.1-62.2,25.3c-22.9,1.2-42.6-9.5-58.5-25.2c-3.2-3.2-6.3-6.6-9.2-10c0,0,0-0.1-0.1-0.1v-2.3c0-1.9-0.8-3.3-2-4.1c-5.5-20.8-11.7-42.6-7.9-64.1c3.8-21.5,21-36.9,40.5-44.7c33-13.3,73-3.9,98.3,20.5C240.9,348.3,241.2,396.1,212.9,424.9z M294.4,367.6c-0.2,0-0.5,0-0.7,0c-15.4,0.1-31.4,3.1-46.5-0.9c-0.8-0.2-1.6-0.3-2.3-0.1c-0.2-2.7-0.5-5.4-0.9-8c15.7-0.3,31.8-2.9,47.2,1c1.8,0.5,3.3,0,4.3-0.8C295.1,361.6,294.7,364.6,294.4,367.6z M296.5,350.9c-0.7-1.1-1.8-1.9-3.3-2.3c-16.9-4.2-34.7-1.3-51.9-1.1c-0.5-1.5-1-3-1.5-4.5c-3-8.1-7.3-15.5-12.5-22.1c0.4-0.8,0.6-1.7,0.6-2.7c0-27.9-1.8-55.7-2-83.5c-0.1-15.2,0-30.4-0.5-45.6c-0.5-14.5-1.3-29.1-1.5-43.6c4.1-0.1,8.2-0.2,12.3-0.4c0.2,12.3,3.8,24.2,7.9,35.7c4.4,12.5,9.5,24.4,15.1,36.4c5,10.6,8.8,22.1,16.9,30.8c5.6,6,13.4,10.1,18.2,16.9c5.8,8.2-2.9,17.1-9.2,21.9c-6.5,4.9-16.4,6.1-19.1,15.1c-1.2,3.9,0.1,9.6,3.4,12.3c1.9,1.6,3.9,2.7,6.3,3.3c0.4,0.1,0.9,0.2,1.3,0.4c1.3,0.4,1.5,0.5,0.6,0.3c0.1,1.1-0.5,2.6-0.7,3.7c-0.9,4.8,0.7,8.8,4.4,11.9c3.8,3.1,9.3,4.3,12.5,8c1.1,1.3,2.4,1.9,3.8,2C297.3,346.2,296.9,348.6,296.5,350.9z M292.7,327.9c-1.7-0.9-3.4-1.8-4.9-3c-0.1-0.1-0.1-0.1-0.2-0.1c0-0.1,0.1-0.4,0.1-0.7c0.2-1.3,0.5-2.6,0.7-3.9c0.9-5.4-1.6-10.2-6.7-12.2c-4-1.6-7.2-2.3-2.5-5.5c3.4-2.3,7.4-3.5,10.9-5.7c4.5-2.9,8.5-7,11.7-11.3c5.5-7.2,7.2-16.8,2.6-25c-3.8-6.8-10.4-11.3-16.3-16.2c-8.6-7.3-12.8-17.6-17.2-27.7c-5.3-12.1-10.9-23.6-15.3-36.1c-4.1-11.8-8.2-23.5-8.5-36c9.4-0.5,18.9-1,28.3-1c5.8-0.1,11.5-0.8,17.3-1.3c4.2-0.4,9.7-1.3,14.1-0.2c0.3,13.3,1.7,26.5,2.8,39.7c1.2,14.1,1.1,28.2,1.3,42.3c0.2,14,0.9,28.1,1.9,42.1c0.8,10.5,2.5,21,2.6,31.6c0,1.3,0.4,2.3,1,3.1c-2.1,2.4-4.1,5-5.9,7.7c-4.8,7.5-8.1,15.7-10.5,24.2C298,330.9,295.5,329.4,292.7,327.9z M422.2,440c-20.5,9.5-45.9,8.5-67.1,1.8c-21.9-6.9-36.5-23.9-46-44.1c-1.9-4.1-3.6-8.3-5.1-12.6c0,0,0-0.1,0-0.1l0.8-2.1c0.7-1.8,0.4-3.4-0.5-4.5c2.2-21.4,4-44,15.1-62.8c11.1-18.8,32.6-27.2,53.6-27.7c35.6-0.8,69.8,21.9,84.9,53.7C475.3,378.1,458.8,423,422.2,440z"/><path d="M437.7 330.7c-16.9-20-44.6-32.2-70.7-28.6-26.1 3.6-48.7 22.7-49.2 50.2 0 .6.1 1.1.2 1.6-8 22.6 3.5 46 21.7 60.1 16.9 13.1 42.7 17.8 63.6 17.4 10.4-.2 21-2.4 29.4-8.8 9-6.9 14.7-16.9 18-27.6C457.6 372.6 452.7 348.5 437.7 330.7zM402.8 319.1c.1-.2.1-.3.2-.5 12.3 5.5 23.6 14.4 30.8 25.4-1.4-.1-2.8.2-4 1-3.4.4-7 2.8-10.1 3.9-5.4 1.8-11.1 3.3-16.8 3.9-1.4.2-2.4.7-3.1 1.4-1.3-1.4-2.8-2.6-4.4-3.7C398 340.1 398.4 328.9 402.8 319.1zM328.3 359c.2-2.4.8-4.8 1.4-7.2-.1-.4-.3-.7-.5-1 .8-12.9 7.7-22.7 17.4-29.1.2.3.5.6.8.9 5.9 5.2 9 12.9 12.9 19.6 2.2 3.8 4.8 9.7 8.5 12.4-.8 1.3-1.4 2.8-1.9 4.4-12.7-1.4-25.9 8-37.8 10.5-.9.2-1.7.5-2.3 1C326.8 366.7 327.2 362.9 328.3 359zM374.1 411.1c-1.4 1.9-1.4 3.7-.5 5.2-4.1-1-8.1-2.3-12-3.7-15.1-5.4-28.3-17.6-33-32.4.9.4 2 .5 3.3.2 5.9-1.3 11.6-4.1 17.3-6.1 5.2-1.8 13.2-5.5 18.9-3.7.2 0 .3.1.5.1 2 3.4 4.8 5.9 8 7.5-1.5 5.7-1.4 11.8-1.4 17.6C375.1 400 376.1 408.5 374.1 411.1zM375.3 344.5c-.6-.8-1.1-1.7-1.7-2.5-1.4-2.2-2.7-4.4-4-6.6-3.7-6.5-6.9-13.6-12.2-19 7.7-2.8 16.1-3.9 24.2-3.3 3.5.3 7.2.9 10.8 1.9-4.2 10.3-5.2 21.1-7.7 31.9-2.6-.2-5 .1-7.2.9-.1-.2-.2-.4-.3-.7C376.7 345.8 376 345 375.3 344.5zM378 365c-.2-.5-.4-1-.7-1.4.2-.4.4-.8.5-1.3 1.8-6.6 12.1-5.1 14.3.7C395.3 371.4 380.4 371.6 378 365zM423.9 414.8c-8.6 5.6-20.1 5.5-30 4.9-3.8-.3-7.6-.7-11.3-1.4.4-.3.8-.7 1.2-1.2 3.3-4.4 2.7-11.7 2.7-16.9 0-6.4-.6-13.2 1.1-19.4 2.9-.2 5.7-.9 8.1-2.2 11.7 10.1 22.5 21.3 35.3 29.9C429 410.9 426.6 413 423.9 414.8zM437.3 398.9c-11.4-7.6-21-17.5-31.3-26.5.2-2.1-.9-3.8-2.5-4.7.2-1.2.3-2.5.3-3.9.6.1 1.2.1 1.9.1 8.6-1 18-3.4 25.8-7.5 2.9 0 5.2-1.9 6.7-4.5.4.9.7 1.8 1 2.6C443.8 367.8 443.7 385.2 437.3 398.9zM367.4 131.5c-14.4 3.2-25 13.7-27.1 28.4-2.1 14.7 2.5 29.7 5.6 44 .4 2 1.6 3.1 3.1 3.5.9.9 2.2 1.5 3.9 1.5 11.6 0 23.2-.6 34.7-.7 5.4 0 13.6.7 18.8-2.2 3 .3 6.7-1.7 6.9-5.7C414.5 175 402.7 123.6 367.4 131.5zM400.3 197.1c1.6-1.6 1-.8-.4-.6-1.7.3-3.5.4-5.3.5-3.5.2-7 .2-10.5.2-9.4 0-18.9.5-28.3.6-2.4-10.5-4.9-21-4.9-31.9 0-12.5 7-20.6 18.8-23.8 12.1-3.3 20.5 7.9 25.1 17.6 5 10.6 7.4 23.9 7.6 35.9C401.7 196 401 196.5 400.3 197.1zM143.7 135.3c-14.4 3.2-25 13.7-27.1 28.4-2.1 14.7 2.5 29.7 5.6 44 .4 2 1.6 3.1 3.1 3.5.9.9 2.2 1.5 3.9 1.5 11.6 0 23.2-.6 34.7-.7 5.4 0 13.6.7 18.8-2.2 3 .3 6.7-1.7 6.9-5.7C190.8 178.7 179 127.4 143.7 135.3zM176.6 200.9c1.6-1.6 1-.8-.4-.6-1.7.3-3.5.4-5.3.5-3.5.2-7 .2-10.5.2-9.4 0-18.9.5-28.3.6-2.4-10.5-4.9-21-4.9-31.9 0-12.5 7-20.6 18.8-23.8 12.1-3.3 20.5 7.9 25.1 17.6 5 10.6 7.4 23.9 7.6 35.9C178 199.8 177.3 200.2 176.6 200.9z"/></svg>