<?xml version="1.0"?><svg xmlns="http://www.w3.org/2000/svg" viewBox="0 0 128 128">    <path d="M 26.199219 24.699219 C 24.499219 24.699219 23.199219 25.999219 23.199219 27.699219 L 23.199219 99.699219 C 23.199219 101.39922 24.499219 102.69922 26.199219 102.69922 L 36.199219 102.69922 C 37.899219 102.69922 39.199219 101.39922 39.199219 99.699219 C 39.199219 97.999219 37.899219 96.699219 36.199219 96.699219 L 29.199219 96.699219 L 29.199219 50.699219 L 49.199219 50.699219 C 50.899219 50.699219 52.199219 49.399219 52.199219 47.699219 C 52.199219 45.999219 50.899219 44.699219 49.199219 44.699219 L 29.199219 44.699219 L 29.199219 30.699219 L 69.199219 30.699219 C 70.899219 30.699219 72.199219 29.399219 72.199219 27.699219 C 72.199219 25.999219 70.899219 24.699219 69.199219 24.699219 L 26.199219 24.699219 z M 69.199219 44.699219 C 67.499219 44.699219 66.199219 45.999219 66.199219 47.699219 C 66.199219 49.399219 67.499219 50.699219 69.199219 50.699219 L 100.19922 50.699219 L 100.19922 96.699219 L 72.199219 96.699219 L 72.199219 64.699219 C 72.199219 62.999219 70.899219 61.699219 69.199219 61.699219 C 67.499219 61.699219 66.199219 62.999219 66.199219 64.699219 L 66.199219 96.699219 L 56.199219 96.699219 C 54.499219 96.699219 53.199219 97.999219 53.199219 99.699219 C 53.199219 101.39922 54.499219 102.69922 56.199219 102.69922 L 103.19922 102.69922 C 104.89922 102.69922 106.19922 101.39922 106.19922 99.699219 L 106.19922 47.699219 C 106.19922 45.999219 104.89922 44.699219 103.19922 44.699219 L 69.199219 44.699219 z"/></svg>