<svg xmlns="http://www.w3.org/2000/svg" width="512" height="512" viewBox="0 0 512 512"><path fill="#BCBCBC" d="M285.7,265.1c-6.2-9.1-17.1-8.3-25.6-2.8c-5.2,3.4-14.5,12.3-9,17.6c2.6,2.5,2,5.9,0.1,8c9,3.7,20.2,4.2,29.2,0.9c3.4-1.3,8.2-3.6,9.2-7.5C291.1,275.7,288.9,269.7,285.7,265.1z"/><path fill="#FEBF10" d="M357.4,253.5c-0.3,0.6-0.7,1-1.1,1.4c0.5,0.5,1,1.1,1.3,1.8c2.2,4.5,13.6,3.4,13.3-2.3C370.6,246.6,360.4,248.1,357.4,253.5z"/><path fill="#BCBCBC" d="M195.1,270.2c-8-3.1-12.5,14.3-12.6,19.4c-0.1,2.4-1.3,4-3,4.9c-0.1,4.9,0.6,17,7.8,14.5c7.4-2.5,10.9-11.4,11.7-18.6C199.6,285.7,201.1,272.6,195.1,270.2z"/><path fill="#FEBF10" d="M304.5,104.6c-5.5-4.8-6.7-11.7-8.2-18.5c-3.4,5-6.5,10.4-8.4,16.1c0.7,1.2,1.1,2.7,1.1,4.5c0.1,2.8-2,5.3-4.5,5.9c-2.9,2.8-8.8,1.2-9.4-3.2c-4.1-1.5-8.3-2.2-12.6-2.5c3.1,4.5,6.7,8.6,7.2,14.4c0.5,5.2-1,10.2-1.6,15.3c3-1.9,5.8-4.2,8.8-5.8c4.4-2.2,9.8-3.7,14.7-2.7c5.4,1.1,8.8,6.1,12.4,9.7c1.6,1.6,3,3.6,4.5,5.1c-1.6-8.7-3.7-18.4,3.3-24.6c3.8-3.4,8.2-5.5,12.9-7.6c1.4-0.6,2.8-1.3,4.2-2C320.3,108.4,311.2,110.4,304.5,104.6z"/><path fill="#BCBCBC" d="M266.3,198.9c-0.7-1.7-0.5-3.2,0.2-4.4c-16.3,2.6-32.4,7.7-46.7,15.4c1.2,1.1,1.9,2.7,1.6,4.8c-0.9,6.5,0.8,10.9,6.4,12.9c5,1.7,12.5,0.7,18.1-1.3C257.2,222.2,271.7,212.2,266.3,198.9z"/><path fill="#127274" d="M402.8 266.4c-14-36-44.5-63.4-82.6-71.1-14.3-2.9-29.5-3.5-44.8-2 .5.5 1 1.2 1.3 1.9 8.2 20.2-11.8 37.2-29.5 42-8.4 2.3-18.7 3.5-26.6-1-7.9-4.5-10.8-12.4-10.3-20.9-7.3 4.7-13.9 10.2-19.9 16.4-17.4 18.1-30.6 40.5-29 66.4.8 12.9 4.2 25.9 7.9 38.2 3.8 12.4 8.5 24.4 16.7 34.6.9 1.1 1.2 2.2 1.2 3.3 10.9-3.5 21.6-7.4 32.2-11.5 23.3-8.8 46.8-17.1 69.8-26.6 26.6-11 52.8-23.3 77.1-39 13.3-8.6 26.1-18.1 38.4-28.2C403.9 268.4 403.2 267.5 402.8 266.4zM210 290.9c-1.2 12.2-8.5 27.2-21.9 29.2-14.6 2.2-20-13.4-19.5-25.1.1-2.3 1.4-4 3-4.9.5-12.4 9.1-35.4 25.4-30.7C210.4 263.2 211.2 279.2 210 290.9zM288.5 297.2c-13.4 6.9-31.7 6.2-45-.7-4.1-2.1-3.4-7.1-.7-9.4-9.8-10.9-.7-25.8 9.7-32.9 12.5-8.6 30-10.6 40.5 2.2C303.4 269.2 304.8 288.8 288.5 297.2zM381.8 256.1c-2.4 17.2-27.5 18.9-34.5 4.3-1.2-2.4-.4-4.4 1.2-5.7-1.5-1.4-2.3-3.7-.9-6.1 4.1-7.4 12.5-12.4 21.1-10.3C376.9 240.3 383.1 247.3 381.8 256.1zM420.4 301.4c-3.2 2.2-6.4 4.3-9.6 6.4-23.7 15.5-47.9 30.7-72.3 45.2-24.3 14.4-49.6 27.8-76.4 37-15.2 5.2-30.9 9.3-46.8 12.8 6.5 7.9 14.4 14.8 23.3 20 40.7 23.7 95.2 20.8 134.4-4.8 7-4.6 13.6-9.9 19.5-15.7-.8-.7-1.5-1.5-1.8-2.5-.2-.2-.3-.4-.5-.6-.3-.5-.6-1.1-.8-1.7-1.9-.1-3.8-1.2-4.6-3.6-3.5-9.8-3.5-20.9-2.3-31.1 1.1-9.3 3.3-18.8 8.9-26.5 7.9-10.8 23-21.9 36.3-19C426.6 311.6 424.3 306.2 420.4 301.4z"/><path fill="#BCBCBC" d="M398.3,345.7c-5.4,10.2-7.2,25-5,37.3c1.3,0.8,2.2,2.1,2.2,4.2v2.5c1.9,0.4,3.7,1.8,4.3,3.7c0.2,0.2,0.3,0.4,0.5,0.6c6.7-8,12.3-16.8,16.8-26.4c5.3-11.3,10.7-24.9,11.5-38.1C417.9,323.2,403.2,336.4,398.3,345.7z"/><path fill="#FEBF10" d="M483.4,179.1c-4.2-10.6-13-17.7-23.3-22.1c-22.3-9.4-48-5.9-70.5,0.9c-21.7,6.6-42.3,16.3-61.7,27.9c3.6,0.9,7.1,1.9,10.6,3.1c0.1,0,0.2-0.1,0.3-0.1c14.7-6.6,29-14,44.1-19.7c19.4-7.3,42.2-14,62.6-6.9c16.1,5.6,28.4,20.5,26.3,38c-2.1,17.1-13.9,32.5-25.1,44.9c-12,13.2-25.5,25-39.5,36c-19.1,14.8-38.5,28.6-59.8,40.1c-25.4,13.6-51.9,24.8-78.8,35.1c-20.6,7.8-41.2,15.7-61.9,23.1c-20.2,7.3-41.2,13.9-62.7,16.3c-19,2.1-40,0.9-55.7-11.2c-14.4-11-19.7-27.6-13.3-44.6c6.6-17.5,21-31.7,34.8-43.8c8-7.1,16.4-13.6,25-20.1c-3.8,2.2-7.6,4.5-11.4,6.9c-15.1,9.5-29.8,20.1-42.5,32.8c-10.3,10.2-21.3,22.8-24,37.6c-2.7,14.8,5.8,26.6,17.5,34.8c20.4,14.3,45.2,17.7,69.7,16.1c25.8-1.7,51-7.9,76.1-13.9c12.9-3.1,25.8-6,38.3-10.4c13.4-4.7,26.5-10.3,39.2-16.6c25.6-12.8,49.8-28.2,73.9-43.5c23.4-14.9,47.6-28.8,68.7-46.9c19-16.3,37.5-37.3,43.6-62.2C486.4,200.2,487.3,189,483.4,179.1z"/><path fill="#010101" d="M496.9,190.2c-1.4-24-19.2-39.6-41.1-46.3c-23.1-7.2-48.8-2.7-71.4,4.1c-23.4,7.1-45.7,18.2-66.5,31c-1.8,1.1-2.5,2.7-2.5,4.3c-4.1-0.6-8.2-1.1-12.3-1.4c-46.7-3.2-96,13.6-127.1,49.4c-5.5,6.3-10.3,13.1-14.2,20.2c-0.9-0.2-2-0.2-3.1,0.3c-30,11.9-58.7,30.8-82.2,52.7c-21.1,19.6-43.7,51.7-22.3,79.3c13.1,16.9,35.3,26.2,55.8,29.7c25.5,4.3,51.9,0.4,77-4.7c5.5-1.1,10.9-2.2,16.4-3.4c29.6,40,83.7,50.8,130.3,40.6c21.7-4.7,42.3-14.8,59.3-29.2c18.2-15.5,29.6-34.8,39.1-56.4c4.1-9.5,6.9-19.8,7.3-30.1c1.1-1.8,1.3-4.1,0-6.2c-0.5-10.4-3.6-20.4-10.1-29.1c15.9-11.6,30.9-24.4,43.2-39.8C487,237.1,498.3,214.1,496.9,190.2z M266.5,194.4c-0.7,1.2-0.9,2.7-0.2,4.4c5.5,13.4-9.1,23.4-20.4,27.3c-5.6,1.9-13.1,3-18.1,1.3c-5.5-1.9-7.3-6.4-6.4-12.9c0.3-2-0.4-3.7-1.6-4.8C234.2,202.1,250.2,197,266.5,194.4z M190.4,231.8c5.9-6.2,12.6-11.6,19.9-16.4c-0.5,8.5,2.3,16.4,10.3,20.9c7.9,4.5,18.2,3.3,26.6,1c17.7-4.9,37.7-21.8,29.5-42c-0.3-0.8-0.8-1.4-1.3-1.9c15.2-1.5,30.5-0.9,44.8,2c38.1,7.7,68.7,35.1,82.6,71.1c0.5,1.2,1.1,2,2,2.6c-12.3,10-25.2,19.6-38.4,28.2c-24.2,15.7-50.4,28-77.1,39c-23,9.5-46.5,17.8-69.8,26.6c-10.7,4-21.4,8-32.2,11.5c0-1-0.3-2.2-1.2-3.3c-8.1-10.2-12.9-22.3-16.7-34.6c-3.8-12.3-7.1-25.3-7.9-38.2C159.8,272.2,173.1,249.8,190.4,231.8z M409.8,254.9c-9.2-19.9-23-37.3-40.8-50.2c-5.3-3.8-11-7.2-16.8-10c15.9-7.4,31.7-15,48.5-20c18.9-5.7,40.5-8,55.2,7.5c10.8,11.4,2.5,28.3-4.5,39.1c-9.9,15.4-24,28.5-37.9,40.4v-2.1C413.5,256.9,411.8,255.3,409.8,254.9z M150.7,302c1.1,13.2,4.9,26.8,8.8,39.5c3.8,12.6,9.2,25.2,17.5,35.6c0.1,0.1,0.1,0.1,0.2,0.2c-5.8,1.7-11.6,3.2-17.6,4.5c-17.9,3.9-38.6,6.2-55.9-1.2c-7.6-3.3-14.3-8.8-18.3-16.1c-3.3-6-2.5-13.2-0.6-19.5c5.1-16.4,20.1-30,32.4-41c11.2-10,23.3-18.7,35.3-27.7C150.6,284.6,150,293.2,150.7,302z M373,418c-39.2,25.6-93.8,28.4-134.4,4.8c-8.9-5.2-16.8-12-23.3-20c15.8-3.6,31.6-7.6,46.8-12.8c26.8-9.2,52.1-22.6,76.4-37c24.4-14.5,48.6-29.6,72.3-45.2c3.2-2.1,6.4-4.2,9.6-6.4c3.9,4.8,6.3,10.2,7.4,15.7c-13.4-2.9-28.5,8.3-36.3,19c-5.6,7.7-7.8,17.2-8.9,26.5c-1.2,10.2-1.2,21.3,2.3,31.1c0.9,2.4,2.7,3.5,4.6,3.6c0.2,0.6,0.5,1.2,0.8,1.7c0.1,0.2,0.3,0.4,0.5,0.6c0.3,1,1,1.9,1.8,2.5C386.6,408.1,380.1,413.4,373,418z M417,367.5c-4.5,9.5-10.1,18.4-16.8,26.4c-0.1-0.2-0.3-0.4-0.5-0.6c-0.6-1.9-2.3-3.3-4.3-3.7v-2.5c0-2-0.9-3.4-2.2-4.2c-2.2-12.3-0.3-27,5-37.3c4.8-9.3,19.6-22.5,30.2-16.3C427.7,342.6,422.3,356.2,417,367.5z M483.9,210.3c-6.1,24.9-24.6,45.9-43.6,62.2c-21.1,18.1-45.3,32.1-68.7,46.9c-24.1,15.3-48.3,30.7-73.9,43.5c-12.7,6.4-25.8,12-39.2,16.6c-12.5,4.4-25.4,7.3-38.3,10.4c-25.1,6-50.3,12.2-76.1,13.9c-24.4,1.6-49.2-1.8-69.7-16.1c-11.7-8.2-20.2-19.9-17.5-34.8c2.7-14.8,13.8-27.3,24-37.6c12.7-12.6,27.4-23.2,42.5-32.8c3.7-2.4,7.5-4.7,11.4-6.9c-8.5,6.4-16.9,13-25,20.1C96,308,81.6,322.2,75,339.7c-6.5,17-1.1,33.6,13.3,44.6c15.7,12.1,36.8,13.2,55.7,11.2c21.5-2.3,42.4-9,62.7-16.3c20.7-7.4,41.3-15.2,61.9-23.1c26.9-10.3,53.4-21.4,78.8-35.1c21.3-11.4,40.7-25.3,59.8-40.1c14.1-10.9,27.5-22.8,39.5-36c11.2-12.4,23.1-27.7,25.1-44.9c2.1-17.5-10.3-32.4-26.3-38c-20.4-7.1-43.3-0.4-62.6,6.9c-15.1,5.7-29.4,13.1-44.1,19.7c-0.1,0-0.2,0.1-0.3,0.1c-3.5-1.2-7-2.2-10.6-3.1c19.4-11.6,40-21.3,61.7-27.9c22.5-6.8,48.2-10.3,70.5-0.9c10.3,4.4,19.1,11.5,23.3,22.1C487.3,189,486.4,200.2,483.9,210.3z"/><path fill="#010101" d="M197 259.3c-16.3-4.7-25 18.3-25.4 30.7-1.7.9-2.9 2.6-3 4.9-.4 11.7 5 27.4 19.5 25.1 13.5-2.1 20.7-17 21.9-29.2C211.2 279.2 210.4 263.2 197 259.3zM199 290.5c-.8 7.1-4.4 16-11.7 18.6-7.2 2.5-7.9-9.6-7.8-14.5 1.7-.9 3-2.6 3-4.9.1-5.1 4.7-22.5 12.6-19.4C201.1 272.6 199.6 285.7 199 290.5zM293 256.4c-10.5-12.8-28-10.9-40.5-2.2-10.4 7.2-19.4 22-9.7 32.9-2.7 2.3-3.4 7.2.7 9.4 13.3 6.9 31.6 7.6 45 .7C304.8 288.8 303.4 269.2 293 256.4zM289.6 281.3c-1.1 3.9-5.8 6.2-9.2 7.5-9 3.3-20.2 2.8-29.2-.9 1.9-2.1 2.5-5.5-.1-8-5.5-5.3 3.8-14.2 9-17.6 8.5-5.6 19.4-6.3 25.6 2.8C288.9 269.7 291.1 275.7 289.6 281.3zM368.7 238.3c-8.6-2.2-17.1 2.9-21.1 10.3-1.3 2.4-.6 4.7.9 6.1-1.6 1.2-2.4 3.2-1.2 5.7 7.1 14.6 32.1 13 34.5-4.3C383.1 247.3 376.9 240.3 368.7 238.3zM357.7 256.7c-.4-.7-.8-1.3-1.3-1.8.4-.4.8-.9 1.1-1.4 3-5.4 13.2-6.9 13.6 1C371.2 260.1 359.9 261.2 357.7 256.7zM342.9 100.6c-9.6-4.3-19.9-1.3-29.8-3.7-3.8-.9-4.6-6.4-5.4-9.5-1.2-5.2-1.9-10.3-4.1-15.2-1.6-3.5-6.5-5.3-9.3-1.8-6.7 8.2-13.2 17.8-16.9 28.1-7.8-2.5-15.8-2.9-24.4-2.9-3.8 0-5.6 4.1-4.8 7.3 1.8 7.2 9.1 12 10.4 19.1.6 3.3-.6 7.1-1.1 10.4-.7 4.1-1.2 8.4-.6 12.6.4 2.7 2.8 5.7 5.9 5.1 5.6-1.2 10.1-3.6 14.8-6.9 2.9-2 9.1-6.4 12.5-3.8 8.5 6.5 12.6 18.6 25.2 16.7 3.1-.5 5.2-2.7 5.1-5.9-.2-5.3-1.6-10.5-2.3-15.7-.7-5.5.3-8.2 5.1-11 8.3-4.8 16.8-6.8 22.2-15.4C347 105.5 345.5 101.8 342.9 100.6zM324.6 110.7c-4.7 2.1-9 4.2-12.9 7.6-7 6.2-4.9 15.8-3.3 24.6-1.6-1.5-2.9-3.5-4.5-5.1-3.6-3.7-7-8.6-12.4-9.7-4.9-1-10.3.5-14.7 2.7-3.1 1.6-5.8 3.9-8.8 5.8.7-5.1 2.1-10.2 1.6-15.3-.5-5.8-4.2-9.9-7.2-14.4 4.3.3 8.5 1 12.6 2.5.6 4.4 6.5 6 9.4 3.2 2.6-.5 4.6-3.1 4.5-5.9 0-1.8-.4-3.3-1.1-4.5 2-5.6 5-11.1 8.4-16.1 1.4 6.8 2.7 13.7 8.2 18.5 6.7 5.8 15.9 3.9 24.3 4.1C327.4 109.4 326 110 324.6 110.7z"/></svg>