<svg xmlns="http://www.w3.org/2000/svg" viewBox="0 0 16 16"><path d="M 2.679688 1 C 1.753906 1 1 1.769531 1 2.699219 L 1 6.898438 C 1 10.8125 4.136719 14 8 14 C 11.863281 14 15 10.8125 15 6.898438 L 15 2.699219 C 15 1.769531 14.246094 1 13.316406 1 Z M 2.679688 2 L 13.316406 2 C 13.695313 2 14 2.300781 14 2.699219 L 14 6.898438 C 14 10.277344 11.316406 13 8 13 C 4.683594 13 2 10.277344 2 6.898438 L 2 2.699219 C 2 2.300781 2.304688 2 2.679688 2 Z M 10.988281 4.984375 C 10.726563 4.992188 10.476563 5.101563 10.292969 5.292969 L 8 7.585938 L 5.707031 5.292969 C 5.519531 5.097656 5.261719 4.992188 4.992188 4.992188 C 4.582031 4.992188 4.21875 5.238281 4.0625 5.613281 C 3.910156 5.992188 4 6.421875 4.292969 6.707031 L 7.292969 9.707031 C 7.683594 10.097656 8.316406 10.097656 8.707031 9.707031 L 11.707031 6.707031 C 12.003906 6.421875 12.09375 5.980469 11.9375 5.601563 C 11.777344 5.222656 11.402344 4.976563 10.988281 4.984375 Z"/></svg>