<svg xmlns="http://www.w3.org/2000/svg" viewBox="0 0 30 30"><path d="M 8 3 C 7.275 3 3 4.7595781 3 8.5175781 C 3 10.517578 4 12.083047 4 12.998047 C 4 14.344047 2 13.571563 2 14.601562 C 2 15.970758 3.0271406 21.977619 8.2089844 22.871094 C 8.4707918 23.569808 8.9209819 24.16863 9.5019531 24.605469 C 10.175943 25.11225 11.036889 25.36939 11.955078 25.568359 C 11.971258 25.590989 11.972742 25.592957 12.007812 25.648438 C 12.128286 25.839005 12.321562 26.178679 12.621094 26.537109 C 13.220157 27.253969 14.343518 28.003906 16 28.003906 C 17.667955 28.003906 18.788926 27.17722 19.382812 26.390625 C 19.9767 25.60403 20.311498 25.038412 20.328125 25.029297 C 20.686886 24.832782 21.040044 24.596108 21.380859 24.341797 C 21.423625 24.325747 27 22.222984 27 16.998047 C 27 16.087047 25 16.921 25 15.5 C 25 13.809 26 12.571 26 10 C 26 6.104 22.673 4.5 21 4.5 C 19.373 4.5 18.755 5 18 5 C 17.443 5 15.412 3 8 3 z M 17.994141 7 C 20.022141 7 22 8.726 22 11 C 22 12.418 21.777344 13.271484 21.777344 13.271484 L 21.451172 16.966797 C 22.014172 17.210797 22.916391 17.85625 22.775391 18.78125 C 22.643391 19.65025 21.554 19.971141 21 19.994141 C 21 19.994141 21.087619 21.649256 20.712891 22.275391 C 20.67286 22.321659 20.661431 22.35365 20.609375 22.402344 C 20.29101 22.700147 19.818548 23.028154 19.367188 23.275391 C 18.356814 23.829276 18.163221 24.687392 17.787109 25.185547 C 17.410997 25.683702 17.121045 26.003906 16 26.003906 C 14.867482 26.003906 14.490983 25.656796 14.154297 25.253906 C 13.985954 25.052461 13.853511 24.825277 13.697266 24.578125 C 13.619146 24.454549 13.539007 24.325477 13.400391 24.171875 C 13.261774 24.018273 13.030217 23.801384 12.642578 23.732422 C 11.771358 23.576894 11.128006 23.318618 10.716797 23.013672 C 10.01599 22.469884 10 20.7471 10 20 C 9.199 20 7.9738281 19.834812 7.6738281 19.007812 C 7.2668281 17.882812 8.671875 17 8.671875 17 C 8.671875 14.72 7 12.696469 7 10.480469 C 7 9.9094688 7.568 8.65 8 8 C 13.087 8 16.961141 7 17.994141 7 z M 13.433594 14 C 11.553627 14 10.363281 14.941406 10.363281 14.941406 A 1.0001 1.0001 0 1 0 11.644531 16.476562 C 11.644531 16.476562 12.151561 16 13.433594 16 A 1.0001 1.0001 0 1 0 13.433594 14 z M 17.318359 14 A 1.0001 1.0001 0 1 0 17.318359 16 C 17.959376 16 18.326439 16.137796 18.527344 16.242188 C 18.728249 16.346578 18.695313 16.337891 18.695312 16.337891 A 1.0001 1.0001 0 1 0 20.25 15.080078 C 20.25 15.080078 19.930564 14.716906 19.449219 14.466797 C 18.967874 14.216688 18.258343 14 17.318359 14 z M 13.5 19 C 13.5 19 13.708967 19.5356 14.277344 19.916016 C 13.863629 20.11297 13 20.628009 13 21.5 C 13 22.262 13.779297 23 13.779297 23 C 13.779297 23 14.424391 21.662109 15.650391 21.662109 C 16.876391 21.662109 17.534266 22.078078 17.822266 22.330078 C 18.110266 22.582078 18.642031 22.057625 18.332031 21.390625 C 18.057514 20.799969 17.589536 20.27208 16.8125 19.900391 C 17.332899 19.52112 17.5 19 17.5 19 L 13.5 19 z"/></svg>