<svg xmlns="http://www.w3.org/2000/svg" viewBox="0 0 48 48"><path fill="#ffb74d" d="M27,20h-6c-0.92,0.11-4.43,0.77-5,1v23h16V21C31.43,20.77,27.92,20.11,27,20z"/><path fill="#ffb74d" d="M19,27c-0.501,0-1.001-0.151-1.428-0.448l-11.5-8c-0.687-0.478-1.089-1.267-1.071-2.104 c0.017-0.836,0.451-1.609,1.157-2.058l11-7c1.164-0.739,2.71-0.398,3.451,0.767s0.397,2.71-0.768,3.452l-7.831,4.983l6.427,4.471 C18.618,21.022,18.807,21,19,21c1.381,0,2.5,1.119,2.5,2.5v1c0,0.931-0.518,1.785-1.342,2.216C19.794,26.906,19.396,27,19,27z"/><path fill="#ffb74d" d="M29,27c-0.396,0-0.794-0.094-1.158-0.284C27.018,26.285,26.5,25.431,26.5,24.5v-1 c0-1.381,1.119-2.5,2.5-2.5c0.193,0,0.382,0.022,0.563,0.063l6.427-4.471l-7.831-4.983c-1.165-0.742-1.509-2.287-0.768-3.452 c0.741-1.166,2.287-1.507,3.451-0.767l11,7c0.706,0.449,1.141,1.222,1.157,2.058c0.018,0.836-0.385,1.626-1.071,2.104l-11.5,8 C30.001,26.849,29.501,27,29,27z"/><path fill="#ffb74d" d="M26,16h-4v5h4V16z"/><circle cx="24" cy="12" r="6" fill="#ffb74d"/><path fill="#424242" d="M23.76,4C23.254,3.976,22,3,22,3l-1.226,2.035L18,6c0,1,0,2,0,2c-0.364,0.897-1,3-1,3l1,2l1,0v-3 l8-2l2,2v3l1-0.042L32,11c0,0-1.89-0.979-1.978-1.61C29.964,8.969,31,8,31,8l-1-1c-0.342-1.011-0.348-2.644-2-3l-2-1 C26,3,24.373,4.03,23.76,4z"/><path fill="#ef6c00" d="M22,16c0-1.105,0.895-2,2-2s2,0.895,2,2H22z"/><path fill="#ffe0b2" d="M32,31.51V44H16V31.51c1.17-1.18,2-4.35,2-8.08v-2.91c0.68-0.13,1.42-0.27,2.01-0.37 C20.12,22.33,21.03,28,24,28s3.88-5.67,3.99-7.85c0.59,0.1,1.33,0.24,2.01,0.37v2.91C30,27.16,30.83,30.33,32,31.51z M27.3,32 c1-1,0.7-4,0.7-4c-1,3-2,4-5,5C25,33,26.3,33,27.3,32z"/><path fill="#ffcc80" d="M23,44c2,0,9,0,9,0v-4.51C31.25,39.18,28.9,42,28,42C24.96,42,24,42.5,23,44z"/><path fill="#ffcc80" d="M16,33c0,0,2,1,3,1s4,1,3,2s-3-1-4,1s-2,3-2,3V33z"/></svg>