<svg xmlns="http://www.w3.org/2000/svg" viewBox="0 0 64 64"><radialGradient id="zWuaEeXR7qcOD8ry49AGOa" cx="32" cy="31.5" r="31.751" gradientUnits="userSpaceOnUse" spreadMethod="reflect"><stop offset="0" stop-color="#c5f1ff"/><stop offset=".35" stop-color="#cdf3ff"/><stop offset=".907" stop-color="#e4faff"/><stop offset="1" stop-color="#e9fbff"/></radialGradient><path fill="url(#zWuaEeXR7qcOD8ry49AGOa)" d="M60.5,32c2.168,0,3.892-1.998,3.422-4.243C63.58,26.122,62.056,25,60.385,25L43,25v-7 l14.386,0c1.67,0,3.195-1.122,3.537-2.757C61.392,12.997,59.668,11,57.5,11H46c-1.105,0-2-0.895-2-2v0c0-1.105,0.895-2,2-2l4.385,0 c1.67,0,3.195-1.122,3.537-2.757C54.392,1.998,52.668,0,50.5,0L10.615,0C8.944,0,7.42,1.122,7.078,2.757C6.608,5.002,8.332,7,10.5,7 H13c1.105,0,2,0.895,2,2v0c0,1.105-0.895,2-2,2l-6.385,0c-1.67,0-3.195,1.122-3.537,2.757C2.608,16.002,4.332,18,6.5,18H22l0,15 L3.614,33c-1.67,0-3.195,1.122-3.537,2.757C-0.392,38.002,1.332,40,3.5,40H4c1.105,0,2,0.895,2,2v0c0,1.105-0.895,2-2,2H3.615 c-1.67,0-3.195,1.122-3.537,2.757C-0.392,49.002,1.332,51,3.5,51h21.115C25.932,51,27,52.068,27,53.385v0.229 C27,54.932,25.932,56,24.615,56l-5,0c-1.67,0-3.195,1.122-3.537,2.757C15.608,61.002,17.332,63,19.5,63l38.885,0 c1.67,0,3.195-1.122,3.537-2.757C62.392,57.998,60.668,56,58.5,56h-3.115C54.068,56,53,54.932,53,53.615v-0.229 C53,52.068,54.068,51,55.385,51h0c1.67,0,3.195-1.122,3.537-2.757C59.392,45.998,57.668,44,55.5,44H43l0-12H60.5z"/><linearGradient id="zWuaEeXR7qcOD8ry49AGOb" x1="32" x2="32" y1="66.567" y2="16.567" gradientUnits="userSpaceOnUse" spreadMethod="reflect"><stop offset="0" stop-color="#155cde"/><stop offset=".278" stop-color="#1f7fe5"/><stop offset=".569" stop-color="#279ceb"/><stop offset=".82" stop-color="#2cafef"/><stop offset="1" stop-color="#2eb5f0"/></linearGradient><path fill="url(#zWuaEeXR7qcOD8ry49AGOb)" d="M52,9H12c-2.761,0-5,2.239-5,5v30v12.35C7,57.814,8.186,59,9.65,59h0.007 c0.844,0,1.638-0.402,2.137-1.083l5.041-6.874C17.777,49.759,19.274,49,20.867,49H52c2.761,0,5-2.239,5-5V14 C57,11.239,54.761,9,52,9z"/><linearGradient id="zWuaEeXR7qcOD8ry49AGOc" x1="14.5" x2="14.5" y1="24" y2="9" gradientUnits="userSpaceOnUse" spreadMethod="reflect"><stop offset="0" stop-color="#4cbcf1"/><stop offset=".989" stop-color="#4dc0f2"/></linearGradient><path fill="url(#zWuaEeXR7qcOD8ry49AGOc)" d="M15.5,24H7V14c0-2.761,2.239-5,5-5h7.5c1.381,0,2.5,1.119,2.5,2.5v0 c0,1.381-1.119,2.5-2.5,2.5h-5c-1.381,0-2.5,1.119-2.5,2.5v0c0,1.381,1.119,2.5,2.5,2.5h1c1.381,0,2.5,1.119,2.5,2.5v0 C18,22.881,16.881,24,15.5,24z"/><path fill="#fff" d="M32,21.141l1.054,2.957c0.683,1.927,2.443,3.214,4.484,3.278l2.381,0.074l-1.842,1.346 c-1.721,1.257-2.436,3.466-1.78,5.495l0.008,0.026l0.009,0.026l0.747,2.177l-2.393-1.513c-0.796-0.514-1.718-0.786-2.666-0.786 c-0.948,0-1.869,0.272-2.65,0.776l-2.395,1.525l0.75-2.23c0.656-2.029-0.06-4.238-1.78-5.495l-1.842-1.346l2.381-0.074 c2.041-0.064,3.801-1.35,4.482-3.272L32,21.141 M32,16c-0.753,0-1.507,0.427-1.809,1.281l-2.072,5.815 c-0.265,0.747-0.959,1.256-1.75,1.28l-5.505,0.172c-1.828,0.057-2.549,2.402-1.071,3.482l4.361,3.187 c0.671,0.491,0.952,1.358,0.696,2.151l-1.716,5.103C22.701,39.812,23.758,41,24.963,41c0.344,0,0.7-0.097,1.037-0.314l4.961-3.159 c0.316-0.204,0.678-0.306,1.039-0.306s0.723,0.102,1.039,0.306l4.996,3.159C38.372,40.903,38.728,41,39.072,41 c1.205,0,2.262-1.188,1.829-2.528l-1.751-5.103c-0.256-0.792,0.025-1.66,0.696-2.151l4.361-3.187 c1.478-1.08,0.757-3.425-1.071-3.482l-5.505-0.172c-0.79-0.025-1.485-0.533-1.75-1.28l-2.072-5.815C33.507,16.427,32.753,16,32,16 L32,16z"/></svg>