<svg xmlns="http://www.w3.org/2000/svg" viewBox="0 0 100 100"><circle cx="13" cy="29" r="2" fill="#78a0cf"/><circle cx="77" cy="13" r="1" fill="#f1bc19"/><circle cx="50" cy="50" r="37" fill="#cee1f4"/><circle cx="83" cy="15" r="4" fill="#f1bc19"/><circle cx="87" cy="24" r="2" fill="#78a0cf"/><circle cx="81" cy="76" r="2" fill="#fbcd59"/><circle cx="15" cy="63" r="4" fill="#fbcd59"/><circle cx="25" cy="87" r="2" fill="#78a0cf"/><circle cx="18.5" cy="53.5" r="2.5" fill="#fff"/><circle cx="21" cy="67" r="1" fill="#f1bc19"/><circle cx="80" cy="34" r="1" fill="#fff"/><g><path fill="#fabf82" d="M49.848,64.101c-0.272-1.439-0.858-2.282-2.241-2.7c-0.06-0.018-0.141-0.047-0.232-0.082 c-0.105-0.045-0.237-0.099-0.393-0.16c-0.838-0.354-5.816-2.191-5.816-2.191c-0.41-0.104-0.677-0.397-0.832-0.726 c-0.255-0.544-0.156-1.954-0.156-1.954s-2.082,0.712-3.38,0.955c-1.274,0.124-4.013-1.524-4.013-1.524s-0.064,2.037-0.151,2.489 c-0.068,0.355-0.451,0.656-0.861,0.76l-4.777,1.732c-0.528,0.138-1.036,0.336-1.481,0.611c-1.202,0.742-1.811,1.857-2.121,2.79 c0,0-0.314,2.224-0.302,2.304c-0.03,0.311-0.061,0.654-0.092,1.014c5.207,3.525,9.389,4.513,16.563,4.199 c3.26-0.143,8.114-1.752,10.657-3.036C50.086,65.749,49.848,64.101,49.848,64.101z"/><path fill="#88cdd7" d="M47.607,61.429c-0.06-0.018-0.141-0.047-0.232-0.082c-0.105-0.045-0.237-0.099-0.393-0.16 c-0.518-0.219-2.619-1.005-4.147-1.573l-0.072-0.019c-1.687,0.865-4.088,2.164-6.293,2.164c-2.205,0-4.416-1.174-6.293-2.164 l-0.211,0.055l-2.971,1.077c-0.528,0.138-1.036,0.336-1.481,0.611c-1.202,0.742-1.811,1.857-2.121,2.79 c0,0-0.314,2.224-0.302,2.304c-0.03,0.311-0.061,3.651-0.092,4.011c5.207,3.525,9.389,4.513,16.563,4.199 c3.26-0.143,8.114-1.752,10.657-3.036c-0.134-2.833-0.372-7.478-0.372-7.478C49.577,62.689,48.99,61.846,47.607,61.429z"/><path fill="#be7841" d="M29.188,47.961c-0.107-0.236-2.605-5.812-0.696-9.627c0.795-1.589,2.23-2.631,4.265-3.099 c1.174-0.802,2.579-1.242,3.967-1.242c1.175,0,2.314,0.304,3.389,0.903c0.557,0.311,1.008,0.573,1.385,0.792 c1.199,0.697,1.561,0.908,2.228,0.908c0.075,0,0.154-0.003,0.238-0.008c0.191-0.012,0.294-0.019,0.391-0.019 c0.808,0,0.965,0.524,0.995,0.75c0.099,0.744-0.156,1.369-0.38,1.921c-0.184,0.451-0.342,0.84-0.245,1.159 c1.254,4.117-0.692,7.469-0.776,7.61l-0.941,1.586l0.011-1.845c0-0.032,0.009-2.96-0.66-4.937 c-0.942,0.486-2.063,0.74-3.279,0.74c-2.177,0-4.579-0.781-6.962-2.262c-1.632,1.408-1.981,5.094-1.974,6.459l0.013,2.334 L29.188,47.961z"/><path fill="#472b29" d="M36.725,34.493c1.014,0,2.085,0.248,3.145,0.839c2.37,1.322,2.81,1.764,3.857,1.764 c0.085,0,0.173-0.003,0.267-0.008c0.124-0.007,0.248-0.018,0.362-0.018c0.257,0,0.463,0.053,0.498,0.315 c0.164,1.235-0.903,2.19-0.608,3.16c1.204,3.954-0.728,7.209-0.728,7.209s0.023-3.609-0.908-5.666 c-0.961,0.635-2.167,0.966-3.532,0.966c-2.063,0-4.491-0.757-6.988-2.37c-2.477,1.648-2.448,7.07-2.448,7.07 s-4.692-10.3,3.319-12.052C33.98,34.984,35.296,34.493,36.725,34.493 M36.725,33.493l0,1L36.725,33.493 c-1.457,0-2.931,0.452-4.171,1.276c-2.139,0.513-3.655,1.636-4.509,3.341c-2.015,4.025,0.577,9.813,0.688,10.058l1.928,4.232 l-0.018-4.651c-0.005-1.225,0.278-4.403,1.545-5.829c2.354,1.398,4.723,2.134,6.891,2.134c1.071,0,2.077-0.187,2.966-0.547 c0.481,1.845,0.475,4.212,0.474,4.241l-0.021,3.686l1.881-3.17c0.088-0.148,2.141-3.685,0.824-8.011 c-0.045-0.149,0.101-0.508,0.23-0.825c0.236-0.579,0.529-1.3,0.413-2.175c-0.076-0.572-0.507-1.184-1.489-1.184 c-0.108,0-0.222,0.007-0.339,0.015l-0.083,0.005c-0.073,0.004-0.142,0.006-0.208,0.006c-0.514,0-0.784-0.146-1.975-0.839 c-0.38-0.221-0.834-0.485-1.394-0.798C39.207,33.818,37.985,33.493,36.725,33.493L36.725,33.493z"/><path fill="#00a5a5" d="M27.572,73.379c-0.166,0-0.3-0.134-0.3-0.3V70.43c0-0.166,0.134-0.3,0.3-0.3s0.3,0.134,0.3,0.3 v2.649C27.872,73.244,27.738,73.379,27.572,73.379z"/><path fill="#00a5a5" d="M45.228,73.844c-0.166,0-0.3-0.134-0.3-0.3V70.43c0-0.166,0.134-0.3,0.3-0.3s0.3,0.134,0.3,0.3 v3.115C45.528,73.71,45.394,73.844,45.228,73.844z"/><path fill="#fddbbc" d="M44.682,46.312c-0.078-0.005-0.158-0.006-0.241-0.006c-0.647-0.031-0.592,0.213-0.563-0.188 c0.052-0.711-0.286-3.581-0.286-3.726c0-2.988-3.12-5.426-7.019-5.561v-0.009c-0.026,0-0.052,0.004-0.078,0.004 c-0.026-0.001-0.052-0.004-0.078-0.004v0.009c-3.899,0.135-7.019,2.572-7.019,5.561c0,0.146-0.099,3.029-0.047,3.74 c0.029,0.401-0.155,0.142-0.802,0.174c-0.083,0-0.163,0.001-0.241,0.006c-0.71,0.047-1.284,0.499-1.406,1.058 c0.087,0.053,0.41,2.502,0.933,3.467c0.292,0.539,0.748,0.614,1.217,0.961c0.26,0.193,0.31,0.41,0.381,0.698 c0.263,1.066,0.993,1.973,1.793,2.747c0.395,0.382,3.017,3.177,5.269,3.036c2.263-0.085,4.874-2.654,5.269-3.036 c0.8-0.774,1.53-1.68,1.793-2.747c0.071-0.288,0.121-0.505,0.381-0.698c0.469-0.348,0.925-0.423,1.217-0.961 c0.523-0.965,0.846-3.414,0.933-3.467C45.966,46.811,45.392,46.36,44.682,46.312z"/><path fill="#512c2b" d="M36.535,51.046c0.458,0,0.902-0.2,1.188-0.535c0.029-0.034,0.025-0.084-0.009-0.113l0,0 c-0.033-0.029-0.084-0.026-0.113,0.008c-0.233,0.266-0.621,0.419-1.066,0.419c-0.444,0-0.833-0.153-1.066-0.419 c-0.016-0.018-0.038-0.027-0.061-0.027c-0.019,0-0.037,0.006-0.053,0.019c-0.033,0.029-0.037,0.08-0.009,0.113 C35.633,50.846,36.077,51.046,36.535,51.046z"/><path fill="#512c2b" d="M35.075,44.859l0.291-0.558c-1.229-0.288-2.643-0.242-3.81,0.12l0.366,0.544 C32.88,44.649,34.061,44.608,35.075,44.859z"/><path fill="#512c2b" d="M41.225,44.859l0.291-0.558c-1.229-0.288-2.643-0.242-3.81,0.12l0.366,0.544 C39.031,44.649,40.211,44.608,41.225,44.859z"/><path fill="#512c2b" d="M33.306,45.647c-0.295,0-0.554,0.195-0.704,0.49c0.037-0.012,0.076-0.02,0.117-0.02 c0.242,0,0.438,0.219,0.438,0.489s-0.196,0.489-0.438,0.489c-0.079,0-0.153-0.025-0.217-0.066 c0.104,0.443,0.424,0.766,0.804,0.766c0.464,0,0.839-0.481,0.839-1.074C34.146,46.128,33.77,45.647,33.306,45.647z"/><path fill="#512c2b" d="M39.729,45.647c-0.252,0-0.477,0.143-0.631,0.367c0.048-0.02,0.1-0.033,0.154-0.033 c0.242,0,0.438,0.219,0.438,0.489c0,0.27-0.196,0.489-0.438,0.489c-0.15,0-0.282-0.084-0.361-0.213 c0.011,0.581,0.382,1.048,0.838,1.048c0.464,0,0.839-0.481,0.839-1.074C40.568,46.128,40.192,45.647,39.729,45.647z"/><path fill="#512c2b" d="M40.085,52.291c0.034-0.028,0.039-0.079,0.012-0.113l0,0c-0.028-0.034-0.079-0.04-0.113-0.012 c-0.757,0.603-2.013,0.949-3.448,0.949s-2.691-0.346-3.448-0.949c-0.015-0.012-0.032-0.018-0.05-0.018 c-0.024,0-0.047,0.01-0.063,0.03c-0.028,0.034-0.023,0.085,0.012,0.113c0.854,0.698,2.181,1.115,3.549,1.115 C37.903,53.406,39.23,52.989,40.085,52.291z"/><path fill="#512c2b" d="M37.472,55.825c0.042,0,0.077-0.048,0.077-0.105s-0.035-0.105-0.077-0.105h-1.724 c-0.042,0-0.077,0.048-0.077,0.105s0.035,0.105,0.077,0.105H37.472z"/><path fill="#472b29" d="M37.239,75.288c-6.008,0-9.886-1.202-14.519-4.339c-0.15-0.101-0.233-0.276-0.218-0.457 c0.006-0.072,0.008-0.311,0.014-0.658c0.021-1.471,0.067-4.532,0.396-5.744c0.454-1.674,1.117-2.329,2.341-3.084 c0.458-0.283,1.003-0.508,1.618-0.669l4.733-1.719c0.309-0.081,0.517-0.262,0.54-0.384c0.015-0.074,0.05-0.34,0.096-1.254 c-0.664-0.472-1.201-0.894-1.363-1.053c-1.069-1.046-1.683-2.005-1.929-3.017c-0.07-0.287-0.092-0.347-0.195-0.424 c-0.133-0.1-0.265-0.173-0.391-0.244c-0.328-0.185-0.7-0.395-0.966-0.892c-0.583-1.087-0.992-3.078-0.992-3.742 c0-0.036,0.004-0.071,0.011-0.105c0.172-0.799,0.938-1.401,1.861-1.463c0.09-0.006,0.173-0.005,0.276-0.007 c0.105-0.005,0.203-0.003,0.29,0.003c-0.014-0.853,0.029-2.393,0.049-3.117l0.009-0.345c0-3.262,3.248-5.937,7.411-6.119 c0.039-0.009,0.083-0.014,0.118-0.013l0.108,0.5l0.03-0.5c0.042-0.003,0.083,0.004,0.123,0.013 c4.161,0.185,7.406,2.858,7.406,6.12c0.003,0.042,0.024,0.231,0.053,0.494c0.123,1.128,0.251,2.364,0.238,2.961 c0.155,0.003,0.245,0.005,0.333,0.011c0.923,0.062,1.689,0.664,1.861,1.463c0.007,0.035,0.011,0.07,0.011,0.105 c0,0.744-0.426,2.686-0.992,3.742c-0.266,0.496-0.638,0.706-0.966,0.892c-0.126,0.071-0.258,0.145-0.392,0.245 c-0.103,0.077-0.125,0.137-0.191,0.409c-0.25,1.027-0.864,1.986-1.934,3.032c-0.164,0.16-0.724,0.621-1.454,1.151 c0.004,0.591,0.066,0.938,0.128,1.07c0.115,0.246,0.284,0.398,0.502,0.454c0.254,0.091,5.049,1.86,5.888,2.215 c0.149,0.058,0.287,0.114,0.396,0.161c0.058,0.022,0.127,0.047,0.178,0.063c1.49,0.45,2.264,1.373,2.587,3.085 c0.004,0.022,0.007,0.045,0.008,0.067c0,0,0.237,4.646,0.372,7.479c0.009,0.197-0.098,0.381-0.274,0.47 c-2.727,1.376-7.654,2.949-10.86,3.089C38.767,75.269,37.986,75.288,37.239,75.288z M23.508,70.274 c4.902,3.266,8.983,4.268,16.033,3.96c2.964-0.13,7.483-1.546,10.164-2.84c-0.129-2.699-0.333-6.703-0.354-7.114 c-0.257-1.324-0.771-1.944-1.888-2.281c-0.069-0.021-0.162-0.054-0.266-0.094c-0.12-0.052-0.247-0.103-0.396-0.161 c-0.831-0.351-5.758-2.169-5.808-2.188c-0.458-0.114-0.87-0.468-1.111-0.983c-0.061-0.128-0.244-0.52-0.221-1.762 c0.003-0.158,0.081-0.306,0.21-0.398c0.769-0.547,1.404-1.065,1.543-1.202c0.93-0.91,1.457-1.716,1.657-2.538 c0.081-0.331,0.168-0.689,0.566-0.988c0.17-0.128,0.339-0.224,0.5-0.315c0.294-0.166,0.453-0.263,0.576-0.493 c0.48-0.895,0.849-2.606,0.873-3.212c-0.102-0.332-0.494-0.599-0.939-0.629c-0.066-0.005-0.134-0.005-0.207-0.005c0,0,0,0,0,0 c-0.008,0-0.104-0.004-0.112-0.005c-0.389-0.019-0.624-0.03-0.813-0.246c-0.178-0.203-0.158-0.431-0.143-0.615 c0.042-0.572-0.136-2.206-0.222-2.991c-0.036-0.33-0.059-0.56-0.059-0.602c0-2.745-2.871-4.995-6.537-5.124 c-0.021-0.001-0.041-0.003-0.061-0.006c-0.02,0.003-0.04,0.005-0.061,0.006c-3.666,0.128-6.537,2.379-6.537,5.124 c0,0.03-0.003,0.166-0.009,0.372c-0.022,0.771-0.079,2.819-0.039,3.374c0.009,0.122,0.029,0.406-0.193,0.611 c-0.218,0.199-0.477,0.158-0.648,0.131c-0.111-0.018-0.249-0.04-0.435-0.03c-0.096,0-0.165,0.001-0.232,0.006 c-0.444,0.03-0.836,0.296-0.938,0.629c0.024,0.614,0.41,2.35,0.872,3.212c0.124,0.23,0.283,0.328,0.577,0.493 c0.161,0.091,0.33,0.188,0.5,0.315c0.398,0.299,0.486,0.656,0.563,0.972c0.204,0.838,0.731,1.645,1.661,2.555 c0.104,0.102,0.656,0.544,1.462,1.107c0.141,0.098,0.221,0.261,0.213,0.432c-0.06,1.331-0.109,1.586-0.125,1.67 c-0.116,0.608-0.701,1.016-1.229,1.15l-4.73,1.718c-0.563,0.149-1.015,0.335-1.389,0.566c-1.085,0.67-1.536,1.148-1.901,2.495 c-0.295,1.091-0.341,4.179-0.36,5.497C23.513,70.014,23.511,70.158,23.508,70.274z"/><path fill="#895d3d" d="M44.823,49.596l-0.597-0.067l0.115-1.024l-0.521,0.226l-0.238-0.551l0.997-0.432 c0.098-0.042,0.212-0.03,0.297,0.034c0.086,0.064,0.132,0.168,0.12,0.275L44.823,49.596z"/><path fill="#895d3d" d="M28.385,49.367l-0.173-1.538c-0.012-0.106,0.034-0.211,0.12-0.275 c0.085-0.064,0.2-0.077,0.297-0.034l0.997,0.432l-0.238,0.551l-0.522-0.226l0.116,1.024L28.385,49.367z"/><path fill="#472b29" d="M29.382,52.4c-0.001,0-0.002,0-0.004,0c-0.11-0.002-0.198-0.093-0.196-0.204l0.11-5.799 c0.002-0.111,0.089-0.189,0.204-0.196c0.11,0.002,0.198,0.093,0.196,0.204l-0.11,5.799C29.58,52.313,29.491,52.4,29.382,52.4z"/><path fill="#472b29" d="M43.719,52.4c-0.109,0-0.198-0.087-0.2-0.196l-0.11-5.799c-0.002-0.11,0.086-0.202,0.196-0.204 c0.001,0,0.003,0,0.004,0c0.109,0,0.198,0.087,0.2,0.196l0.11,5.799c0.002,0.11-0.086,0.202-0.196,0.204 C43.721,52.4,43.72,52.4,43.719,52.4z"/><path fill="#472b29" d="M36.573,58.529c-1.454,0-3.872-1.766-3.979-1.845c-0.111-0.082-0.135-0.238-0.053-0.349 c0.082-0.112,0.239-0.135,0.349-0.053c0.712,0.524,2.802,1.856,3.805,1.741c1.263-0.144,3.303-1.58,3.324-1.595 c0.112-0.08,0.268-0.053,0.349,0.059c0.08,0.113,0.053,0.269-0.06,0.349c-0.088,0.062-2.166,1.525-3.556,1.683 C36.694,58.526,36.635,58.529,36.573,58.529z"/><path fill="#be7841" d="M44.854,37.427c-0.05-0.379-0.458-0.322-0.86-0.298c-1.255,0.074-1.562-0.326-4.124-1.755 c-2.554-1.424-5.167-0.856-6.908,0.37c-8.01,1.751-3.319,12.052-3.319,12.052s-0.029-5.422,2.448-7.07 c4.148,2.68,8.106,2.998,10.52,1.404c0.931,2.057,0.908,5.666,0.908,5.666s1.931-3.255,0.728-7.209 C43.951,39.617,45.018,38.662,44.854,37.427L44.854,37.427z"/><g><path fill="#472b29" d="M43.898,47.768l-0.5-0.003c0-0.034,0.011-3.284-0.79-5.3c-2.651,1.527-6.66,0.976-10.584-1.469 c-2.25,1.658-2.249,6.717-2.248,6.769l-0.5,0.003c-0.001-0.227-0.001-5.578,2.604-7.281c0.082-0.054,0.188-0.055,0.271-0.002 c3.929,2.494,7.928,3.033,10.437,1.406c0.061-0.04,0.137-0.05,0.206-0.03c0.07,0.02,0.127,0.07,0.158,0.135 C43.911,44.079,43.899,47.618,43.898,47.768z"/></g></g><g><path fill="#d8ad8f" d="M75.728,62.295c-0.471-0.329-6.508-2.419-6.508-2.419c-0.384-0.102-0.597-0.412-0.666-0.759 c-0.083-0.418-0.125-1.088-0.147-1.75c1.625-0.892,2.899-2.2,3.895-3.82c0.165-0.269,0.295-0.754,0.298-1.069 c0.006-0.626,0.006-1.251,0.008-1.877c0.385-0.054,0.652-0.273,0.804-0.753c0.251-0.792,0.626-2.445,0.63-2.459 c0.337-1.026-0.163-1.556-1.139-1.537c0.122-0.075,0.495-0.457,0.643-0.751c0.023,0.001,0.046,0.004,0.07,0.004 c0.095,0,0.188-0.008,0.28-0.02c1.285,0.414,3.241,0.161,3.756-2.854c-0.472,0.606-1.256,0.862-1.913,0.803 c-0.005-0.274-0.065-0.535-0.172-0.773c0.38-0.356,0.617-0.852,0.617-1.402c0-1.082-0.915-1.959-2.043-1.959 c-0.008,0-0.016,0.001-0.024,0.001c0.079-0.24,0.122-0.495,0.122-0.76c0-1.39-1.175-2.518-2.625-2.518 c-0.249,0-0.49,0.035-0.718,0.098c0.001-0.033,0.005-0.065,0.005-0.098c0-1.648-1.467-2.983-3.277-2.983 c-1.046,0-1.976,0.448-2.576,1.142c-0.667-0.418-1.506-0.67-2.419-0.67c-2.171,0-3.93,1.407-3.93,3.143 c0,0.077,0.008,0.152,0.014,0.227c-0.51,0.245-0.903,0.642-1.076,1.156c-0.171,0.506,0.389,1.922,0.368,1.972l0,0 c-0.143,0.002-1.505,0.101-1.204,1.494c0.065,0.301,0.553,4.616,0.813,4.744c-0.976-0.019-1.473,0.514-1.136,1.54 c0.005,0.014,0.379,1.667,0.63,2.459c0.169,0.533,0.479,0.745,0.936,0.765c0.005,0.529,0.006,1.057-0.017,1.585 c-0.029,0.663,0.171,1.243,0.544,1.782c0.952,1.378,2.154,2.505,3.61,3.354c-0.022,0.663-0.065,1.341-0.146,1.784 c-0.064,0.348-0.282,0.657-0.666,0.759l-4.935,1.696c-0.494,0.135-0.969,0.328-1.386,0.598c-2.179,1.408-2.307,4.209-2.265,4.368 h12.512h12.512C77.848,66.378,77.753,63.71,75.728,62.295z"/><path fill="#efa21b" d="M68.507,42.789c0.432,0.861,1.366,1.459,2.454,1.459c0.266,0,0.523-0.037,0.766-0.104 c0.381,0.451,0.97,0.742,1.634,0.742c0.093,0,0.184-0.008,0.274-0.019c1.206,0.378,3.17,0.607,3.762-1.937 c-0.455,0.345-1.305,0.437-1.697,0.194c-0.005-0.27-0.069-0.718-0.176-0.952c0.378-0.35,0.613-0.838,0.613-1.378 c0-1.064-0.909-1.927-2.03-1.927c-0.008,0-0.016,0.001-0.024,0.001c0.079-0.236,0.122-0.487,0.122-0.748 c0-1.367-1.168-2.476-2.608-2.476c-0.248,0-0.486,0.035-0.713,0.096c0.001-0.032,0.005-0.064,0.005-0.096 c0-1.62-1.458-2.933-3.256-2.933c-1.039,0-1.963,0.44-2.559,1.123c-0.663-0.411-1.496-0.658-2.404-0.658 c-2.157,0-3.905,1.384-3.905,3.09c0,0.075,0.008,0.149,0.014,0.223c-0.507,0.24-0.897,0.631-1.069,1.137 c-0.012,0.034,0.312,1.712,0.359,1.901c0.348,0.452,0.883,0.826,1.544,1.025c0.677,0.204,1.361,0.186,1.936-0.003 c0.477,1.591,2.318,2.776,4.517,2.776C66.96,43.328,67.797,43.13,68.507,42.789z"/><path fill="#d8ad8f" d="M65.291,66.479h12.425c0.042-0.153-0.053-2.728-2.064-4.093c-0.467-0.317-6.463-2.334-6.463-2.334 c-0.381-0.098-0.629-0.375-0.773-0.685c-0.237-0.514-0.134-2.069-0.134-2.069s-1.481,0.896-2.687,1.125 c-1.183,0.117-3.218-1.03-3.218-1.03s-0.105,1.515-0.185,1.942c-0.063,0.335-0.419,0.619-0.8,0.718l-4.901,1.636 c-0.491,0.131-0.962,0.317-1.376,0.577c-2.164,1.358-2.291,4.061-2.249,4.214H65.291z"/><path fill="#00a5a5" d="M66.174,74.359c4.319,0,8.366-1.155,11.859-3.165c-0.134-4.872-0.001-8.109-2.397-8.844 c-0.525-0.161-2.501-1.113-2.501-1.113S68.018,64.1,65.8,64.552c-3.543,0.722-8.239,1.144-12.791,0.675 c-0.047,0.195-0.126,3.627-0.207,5.027C56.615,72.844,61.217,74.359,66.174,74.359z"/><path fill="#6d3c14" d="M58.258,39.864c-0.121,0.021-0.342,0.105-0.438,0.124c-0.766,0.149-0.699,0.796-0.699,0.796 l0.721,4.629c0.023-0.4,0.124-3.968,1.26-4.943C59.042,40.44,58.312,39.968,58.258,39.864z" opacity=".34"/><path fill="#472b29" d="M64.084,45.242c-1.272-0.361-3.434-0.453-4.72-0.247c-0.073,0.012-0.126,0.065-0.125,0.126 c0.001,0.061,0.054,0.113,0.127,0.124c0.026,0.004,3.239,0.387,4.249,0.686c0.017,0.005,0.035,0.007,0.052,0.007 c0.05,0,0.099-0.02,0.128-0.056l0.366-0.449c0.027-0.033,0.033-0.074,0.018-0.111C64.164,45.284,64.129,45.255,64.084,45.242z"/><path fill="#472b29" d="M66.622,45.242c1.272-0.361,3.434-0.453,4.72-0.247c0.073,0.012,0.126,0.065,0.125,0.126 c-0.001,0.061-0.054,0.113-0.127,0.124c-0.026,0.004-3.239,0.387-4.249,0.686c-0.017,0.005-0.035,0.007-0.052,0.007 c-0.05,0-0.099-0.02-0.128-0.056l-0.366-0.449c-0.027-0.033-0.034-0.074-0.018-0.111C66.541,45.284,66.576,45.255,66.622,45.242 z"/><path fill="#472b29" d="M61.841,46.679c-0.32,0-0.601,0.209-0.763,0.525c0.04-0.012,0.082-0.021,0.126-0.021 c0.262,0,0.475,0.234,0.475,0.524c0,0.289-0.213,0.524-0.475,0.524c-0.086,0-0.165-0.027-0.235-0.071 c0.112,0.474,0.46,0.82,0.871,0.82c0.503,0,0.91-0.515,0.91-1.15C62.751,47.194,62.344,46.679,61.841,46.679z"/><path fill="#472b29" d="M68.804,46.679c-0.273,0-0.517,0.153-0.684,0.393c0.052-0.022,0.108-0.035,0.167-0.035 c0.262,0,0.475,0.234,0.475,0.524c0,0.289-0.213,0.524-0.475,0.524c-0.163,0-0.306-0.09-0.392-0.228 c0.012,0.622,0.414,1.122,0.909,1.122c0.503,0,0.91-0.515,0.91-1.15C69.714,47.194,69.306,46.679,68.804,46.679z"/><path fill="#472b29" d="M65.305,52.602c0.532,0,1.048-0.23,1.381-0.615c0.075-0.087,0.064-0.218-0.024-0.292 c-0.088-0.074-0.22-0.064-0.295,0.021c-0.229,0.259-0.617,0.407-1.063,0.407c-0.446,0-0.834-0.148-1.063-0.407 c-0.073-0.082-0.208-0.093-0.295-0.02c-0.087,0.074-0.097,0.205-0.023,0.292C64.257,52.372,64.774,52.602,65.305,52.602z" opacity=".41"/><path fill="#472b29" d="M65.476,58.592c-1.279,0-3.317-1.141-3.407-1.193c-0.12-0.068-0.163-0.22-0.095-0.34 c0.067-0.12,0.218-0.163,0.341-0.095c0.021,0.012,2.213,1.234,3.299,1.121c1.12-0.114,2.759-1.132,2.776-1.142 c0.118-0.074,0.271-0.037,0.344,0.08c0.073,0.117,0.038,0.271-0.08,0.344c-0.071,0.044-1.754,1.089-2.99,1.215 C65.604,58.589,65.541,58.592,65.476,58.592z"/><path fill="#e2900e" d="M75.699,43.053c-0.005-0.268-0.069-0.713-0.176-0.945c0.378-0.347,0.613-0.832,0.613-1.369 c0-1.057-0.909-1.914-2.03-1.914c-0.008,0-0.016,0.001-0.024,0.001c0.079-0.234,0.122-0.484,0.122-0.742 c0-1.358-1.168-2.459-2.608-2.459c-0.248,0-0.486,0.035-0.713,0.095c0.001-0.032,0.005-0.063,0.005-0.095 c0-1.609-1.458-2.913-3.256-2.913c-0.809,0-1.546,0.267-2.115,0.705c0.266,0.27,0.091-0.037,0.266,0.27 c0.85-0.312,2.29-0.11,3.203,0.384c1.579,0.855,2.217,3.144,1.442,4.557c-0.016,0.028-0.034,0.054-0.051,0.081 c0.229,0.054,0.455,0.138,0.672,0.255c1.265,0.685,1.76,2.206,1.106,3.399c-0.125,0.227-0.282,0.426-0.464,0.594 c0.007,0.004,0.015,0.007,0.022,0.01c0.685,0.371,1.071,1.057,1.076,1.752c0.183,0.049,0.372,0.082,0.572,0.082 c0.093,0,0.184-0.008,0.274-0.019c1.206,0.375,3.17,0.603,3.762-1.923C76.941,43.203,76.09,43.294,75.699,43.053z"/><path fill="#472b29" d="M74.9,45.482c-0.5,0-0.992-0.121-1.279-0.318c-0.713,0.059-1.435-0.207-1.929-0.702 c-1.272,0.27-2.608-0.283-3.265-1.305c-0.716,0.298-1.517,0.455-2.334,0.455c-2.191,0-4.09-1.103-4.736-2.715 c-0.588,0.134-1.233,0.11-1.844-0.073c-0.786-0.235-1.438-0.699-1.833-1.306c-0.09-0.139-0.051-0.325,0.087-0.415 c0.138-0.091,0.325-0.051,0.416,0.087c0.313,0.481,0.861,0.867,1.502,1.059c0.596,0.178,1.224,0.178,1.769-0.001 c0.077-0.026,0.16-0.018,0.232,0.019c0.072,0.037,0.125,0.102,0.148,0.179c0.448,1.487,2.24,2.566,4.259,2.566 c0.827,0,1.632-0.176,2.33-0.51c0.146-0.071,0.324-0.01,0.397,0.136c0.494,0.981,1.744,1.515,2.893,1.202 c0.115-0.03,0.232,0.006,0.308,0.095c0.394,0.464,1.038,0.696,1.655,0.62c0.092-0.012,0.185,0.021,0.25,0.087 c0.203,0.206,1.157,0.38,1.742,0.089c0.147-0.074,0.328-0.014,0.402,0.135c0.074,0.148,0.014,0.328-0.135,0.402 C75.637,45.417,75.266,45.482,74.9,45.482z"/><ellipse cx="60.817" cy="51.644" fill="#ba8964" opacity=".8" rx="1.245" ry="1.264"/><ellipse cx="70.394" cy="51.644" fill="#ba8964" opacity=".8" rx="1.245" ry="1.264"/><ellipse cx="63.381" cy="49.12" fill="#9f8066" opacity=".8" rx=".141" ry=".143"/><ellipse cx="63.521" cy="50.208" fill="#9f8066" opacity=".8" rx=".141" ry=".143"/><ellipse cx="64.487" cy="49.613" fill="#9f8066" opacity=".8" rx=".141" ry=".143"/><ellipse cx="66.518" cy="49.593" fill="#9f8066" opacity=".8" rx=".141" ry=".143"/><ellipse cx="67.068" cy="50.537" fill="#9f8066" opacity=".8" rx=".141" ry=".143"/><ellipse cx="67.726" cy="49.605" fill="#9f8066" opacity=".8" rx=".141" ry=".143"/><path fill="#472b29" d="M58.243,50.906c-0.153,0-0.284-0.117-0.298-0.273l-0.44-4.798 c-0.015-0.165,0.106-0.311,0.271-0.326c0.168-0.015,0.312,0.106,0.326,0.271l0.44,4.798c0.015,0.165-0.106,0.311-0.271,0.326 C58.261,50.906,58.252,50.906,58.243,50.906z"/><path fill="#472b29" d="M72.545,50.839c-0.006,0-0.013,0-0.019-0.001c-0.166-0.01-0.292-0.152-0.281-0.318l0.285-4.682 c0.01-0.166,0.161-0.291,0.317-0.281c0.166,0.01,0.292,0.152,0.281,0.318l-0.285,4.682C72.834,50.716,72.702,50.839,72.545,50.839 z"/><g><path fill="#472b29" d="M66.148,74.832c-4.901,0-9.63-1.445-13.675-4.179c-0.151-0.102-0.234-0.277-0.218-0.458 c0.056-0.628,0.112-1.705,0.165-2.718c0.086-1.661,0.124-2.276,0.17-2.529c0.005-0.043,0.016-0.084,0.032-0.124 c0.289-0.943,0.907-2.228,2.217-3.075c0.433-0.279,0.945-0.501,1.525-0.66l4.905-1.686c0.239-0.065,0.312-0.239,0.337-0.376 c0.057-0.311,0.099-0.787,0.126-1.417c-1.388-0.857-2.568-1.982-3.511-3.346c-0.457-0.662-0.664-1.345-0.632-2.088 c0.017-0.383,0.02-0.766,0.019-1.15c-0.439-0.151-0.746-0.495-0.915-1.028c-0.148-0.469-0.357-1.279-0.621-2.41 c-0.274-0.854-0.082-1.359,0.126-1.64c0.152-0.206,0.422-0.44,0.887-0.544c-0.083-0.473-0.207-1.214-0.363-2.146 c-0.166-0.991-0.32-1.911-0.349-2.047c-0.157-0.727,0.059-1.192,0.268-1.453c0.2-0.25,0.458-0.403,0.701-0.497 c-0.279-0.691-0.314-1.306-0.104-1.813c0.219-0.528,0.569-0.955,1.024-1.249c0.037-1.983,2.01-3.586,4.43-3.586 c0.833,0,1.63,0.187,2.33,0.545c0.706-0.651,1.656-1.017,2.666-1.017c1.902,0,3.481,1.304,3.74,2.993 c1.806-0.145,3.375,1.263,3.375,3.008c0,0.11-0.006,0.22-0.019,0.329c1.134,0.26,1.963,1.233,1.963,2.39 c0,0.559-0.19,1.087-0.542,1.518c0.014,0.048,0.026,0.097,0.038,0.146c0.386-0.057,0.803-0.245,1.079-0.599 c0.141-0.181,0.387-0.243,0.596-0.15c0.21,0.092,0.33,0.316,0.291,0.542c-0.287,1.686-0.742,2.756-2.219,3.237 c-0.728,0.195-1.363,0.186-1.798,0.14c0.109,0.084,0.192,0.174,0.255,0.259c0.208,0.281,0.399,0.785,0.134,1.593 c-0.262,1.14-0.479,1.982-0.628,2.454c-0.151,0.476-0.413,0.802-0.782,0.974c-0.001,0.504-0.002,1.007-0.007,1.511 c-0.004,0.417-0.164,0.987-0.373,1.326c-1.02,1.661-2.301,2.952-3.81,3.843c0.034,0.764,0.086,1.164,0.127,1.369 c0.027,0.141,0.103,0.319,0.303,0.372c1.464,0.509,6.162,2.16,6.655,2.485c2.096,1.38,2.182,2.796,2.238,3.733l0.008,0.122 l0.228,5.415c0.008,0.187-0.089,0.362-0.251,0.455C74.603,73.715,70.404,74.832,66.148,74.832z M53.275,69.986 c3.825,2.517,8.27,3.846,12.873,3.846c3.981,0,7.909-1.019,11.38-2.949l-0.222-5.212c-0.053-0.869-0.112-1.854-1.79-2.959 c-0.334-0.202-3.546-1.37-6.398-2.365c-0.494-0.13-0.878-0.558-0.992-1.134c-0.076-0.388-0.129-1.004-0.156-1.83 c-0.006-0.188,0.094-0.364,0.259-0.455c1.473-0.808,2.721-2.034,3.709-3.644c0.113-0.184,0.223-0.579,0.225-0.812 c0.005-0.507,0.006-1.014,0.007-1.521l0-0.352c0-0.249,0.184-0.459,0.431-0.494c0.147-0.021,0.289-0.068,0.397-0.41 c0.14-0.441,0.354-1.278,0.604-2.357c0.002-0.011,0.021-0.086,0.024-0.098c0.106-0.323,0.11-0.566,0.015-0.695 c-0.096-0.13-0.339-0.2-0.666-0.194c-0.252,0.006-0.426-0.142-0.489-0.358c-0.064-0.216,0.024-0.448,0.216-0.567 c0.077-0.057,0.362-0.357,0.459-0.55c0.087-0.174,0.262-0.281,0.462-0.276c0.083,0.004,0.153,0.01,0.255,0.031 c0.263,0.053,0.963,0.192,1.824-0.038c0.614-0.201,0.97-0.522,1.221-1.216c-0.371,0.133-0.775,0.189-1.168,0.154 c-0.254-0.023-0.451-0.234-0.455-0.489c-0.003-0.202-0.046-0.396-0.128-0.576c-0.088-0.195-0.042-0.425,0.114-0.571 c0.295-0.277,0.458-0.645,0.458-1.036c0-0.805-0.692-1.459-1.543-1.459c-0.161,0-0.323-0.076-0.417-0.206 c-0.094-0.13-0.132-0.297-0.082-0.449c0.065-0.196,0.098-0.399,0.098-0.604c0-1.297-1.336-2.311-2.712-1.938 c-0.154,0.042-0.317,0.008-0.441-0.09c-0.125-0.098-0.195-0.249-0.19-0.408c0.005-1.452-1.241-2.566-2.772-2.566 c-0.864,0-1.665,0.353-2.197,0.969c-0.161,0.186-0.435,0.228-0.644,0.097c-0.62-0.388-1.364-0.593-2.154-0.593 c-1.892,0-3.43,1.186-3.43,2.643c0,0.053,0.005,0.104,0.01,0.156c0.019,0.208-0.091,0.431-0.279,0.521 c-0.38,0.182-0.66,0.484-0.831,0.897c-0.141,0.34-0.024,0.884,0.319,1.494c0.075,0.133,0.107,0.336,0.049,0.478 c-0.076,0.186-0.256,0.308-0.458,0.31c-0.093,0.002-0.479,0.054-0.651,0.272c-0.105,0.134-0.129,0.341-0.07,0.616 c0.03,0.139,0.188,1.079,0.358,2.093c0.186,1.106,0.416,2.483,0.454,2.644c0.035,0.15-0.002,0.308-0.099,0.428 c-0.097,0.12-0.252,0.189-0.398,0.185c-0.327-0.007-0.566,0.064-0.663,0.194c-0.096,0.13-0.092,0.375,0.012,0.69 c0.004,0.014,0.029,0.115,0.032,0.129c0.321,1.377,0.503,2.03,0.6,2.335c0.108,0.341,0.242,0.406,0.481,0.417 c0.266,0.012,0.476,0.229,0.478,0.495c0.004,0.537,0.006,1.074-0.018,1.611c-0.022,0.524,0.123,0.994,0.456,1.476 c0.917,1.327,2.078,2.406,3.451,3.206c0.159,0.093,0.254,0.265,0.248,0.449c-0.027,0.826-0.079,1.45-0.153,1.857 c-0.106,0.579-0.491,1.009-1.029,1.152l-4.901,1.685c-0.511,0.141-0.931,0.321-1.277,0.545c-1.072,0.692-1.578,1.774-1.813,2.559 l0,0c0,0.001,0,0.002-0.001,0.003c-0.034,0.172-0.098,1.395-0.149,2.379C53.372,68.41,53.324,69.338,53.275,69.986z"/></g><g opacity=".49"><path fill="#472b29" d="M69.048,53.64c-0.033-0.04-0.079-0.065-0.131-0.071c-0.052-0.006-0.103,0.009-0.142,0.041 c-0.74,0.583-1.977,0.917-3.392,0.917c-1.415,0-2.652-0.334-3.392-0.917c-0.08-0.065-0.21-0.05-0.274,0.029 c-0.067,0.082-0.055,0.203,0.028,0.27c0.878,0.709,2.238,1.132,3.637,1.132c1.399,0,2.759-0.423,3.637-1.132 C69.102,53.843,69.115,53.721,69.048,53.64z"/></g></g><g><path fill="#ce9065" d="M64.966,68.404c-0.282-1.495-0.892-2.37-2.328-2.804c-0.062-0.019-0.146-0.049-0.241-0.085 c-0.109-0.047-0.247-0.103-0.408-0.166c-0.87-0.368-6.042-2.276-6.042-2.276c-0.426-0.108-0.704-0.412-0.864-0.754 c-0.265-0.565-0.163-2.03-0.163-2.03s-2.163,0.74-3.512,0.992c-1.323,0.129-4.168-1.583-4.168-1.583s-0.067,2.116-0.157,2.586 c-0.071,0.369-0.468,0.681-0.895,0.789l-4.962,1.799c-0.549,0.144-1.076,0.349-1.539,0.634c-1.249,0.771-1.881,1.929-2.203,2.898 c0,0-0.327,2.31-0.314,2.393c-0.031,0.323-0.063,0.679-0.095,1.053c5.409,3.662,9.753,4.688,17.206,4.362 c3.386-0.148,8.428-1.82,11.07-3.154C65.212,70.116,64.966,68.404,64.966,68.404z"/><path fill="#88ae45" d="M64.966,68.432c-0.282-1.495-0.892-2.37-2.328-2.804c-0.062-0.019-0.146-0.049-0.241-0.085 c-0.109-0.047-0.247-0.103-0.408-0.166c-0.471-0.199-5.104-1.816-6.593-2.371c-2.032,1.432-2.946,1.983-4.302,1.983 c-1.445,0-2.802-0.631-4.29-2.09l-2.255,0.833c-0.006-0.003-0.011-0.006-0.017-0.009l-0.219,0.058L41.227,64.9 c-0.549,0.144-1.076,0.349-1.539,0.634c-1.249,0.771-1.881,1.929-2.203,2.898c0,0-0.327,2.31-0.314,2.393 c-0.031,0.323-0.063,3.792-0.095,4.166c5.409,3.662,9.753,4.688,17.206,4.362c3.386-0.148,8.428-1.82,11.07-3.154 C65.212,73.257,64.966,68.432,64.966,68.432z"/><path fill="#fdfcef" d="M55.898,70.262c-0.511-0.642-0.868-1.387-1.387-2.022c-0.125-0.153-0.135-0.341,0-0.493 c0.292-0.329,0.699-0.496,1.097-0.661c0.439-0.181,0.864-0.379,1.307-0.543c-0.28-1.162-0.833-2.214-1.523-3.185 c-0.092-0.129-0.073-0.254-0.003-0.348c-2.027,1.428-2.941,1.979-4.295,1.979c-1.382,0-2.759-0.555-4.041-1.935 c-0.17,1.06-1.132,2.49-0.42,3.531c0.282,0.411,0.86,0.553,1.047,1.06c0.266,0.718-0.132,1.752-0.151,2.482 c-0.039,1.484,0.37,2.597,0.924,3.935c0.024,0.059,0.028,0.111,0.022,0.16c0.444,0.881,0.944,1.791,1.278,2.705 c0.293,0.801,0.513,1.607,0.713,2.433c0.357,0.012,0.65-0.006,1.022-0.003c0.332-1.594,1.273-3.09,1.905-4.581 C54.088,73.141,54.739,71.611,55.898,70.262z"/><path fill="#d5e27b" d="M52.369,69.515L52,77.949l-0.572,1.382l-0.416,0.07l-0.437-0.01L49.78,77.73l0.093-8.214 C50.428,68.367,51.814,68.367,52.369,69.515z"/><path fill="#d5e27b" d="M49.967,68.228l-1.151-2.867h4.61l-1.151,2.867C51.762,69.241,50.48,69.241,49.967,68.228z"/><path fill="#e1e0d8" d="M46.932,62.699l-0.978,0.785l2.562,5.532l2.754-3.968C51.27,65.048,47.136,63.811,46.932,62.699 z"/><path fill="#e1e0d8" d="M55.125,62.699l1.127,0.679l-2.712,5.638l-2.754-3.968 C50.787,65.048,54.922,63.811,55.125,62.699z"/><g opacity=".59"><path fill="#6f913d" d="M41.826,78.14c-0.166,0-0.3-0.134-0.3-0.3v-2.126c0-0.166,0.134-0.3,0.3-0.3s0.3,0.134,0.3,0.3 v2.126C42.126,78.005,41.992,78.14,41.826,78.14z"/><path fill="#6f913d" d="M60.167,78.514c-0.166,0-0.3-0.134-0.3-0.3v-2.5c0-0.166,0.134-0.3,0.3-0.3s0.3,0.134,0.3,0.3v2.5 C60.466,78.379,60.332,78.514,60.167,78.514z"/></g><path fill="#9f8066" d="M54.945,62.362c0,0,1.647,0.7,2.845,4.549l-2.845,1.05l1.834,2.1l-5.42,9.445 C51.359,79.506,53.974,69.867,54.945,62.362z"/><path fill="#9f8066" d="M47.083,62.362c0,0-1.646,0.7-2.845,4.549l2.845,1.05l-1.833,2.1l5.327,9.445 C50.576,79.506,48.054,69.867,47.083,62.362z"/><path fill="#db9e71" d="M59.6,49.925c-0.081-0.005-0.165-0.006-0.251-0.006c-0.673-0.033-0.864,0.236-0.833-0.18 c0.054-0.739-0.049-3.734-0.049-3.886c0-3.104-3.241-5.636-7.291-5.777v-0.009c-0.027,0-0.054,0.004-0.081,0.005 c-0.027-0.001-0.054-0.004-0.081-0.005v0.009c-4.05,0.14-7.291,2.672-7.291,5.777c0,0.151-0.103,3.147-0.049,3.886 c0.03,0.416-0.161,0.148-0.833,0.18c-0.086,0-0.169,0.001-0.251,0.006c-0.737,0.049-1.334,0.518-1.461,1.099 c0.09,0.055,0.426,2.599,0.969,3.601c0.303,0.56,0.777,0.638,1.264,0.999c0.27,0.2,0.322,0.426,0.395,0.725 c0.273,1.108,1.032,2.049,1.863,2.853c0.41,0.397,3.134,3.3,5.474,3.153c2.351-0.088,5.063-2.756,5.474-3.153 c0.831-0.804,1.59-1.745,1.863-2.853c0.074-0.299,0.126-0.525,0.395-0.725c0.487-0.361,0.961-0.439,1.264-0.999 c0.543-1.002,0.879-3.546,0.969-3.601C60.933,50.444,60.337,49.975,59.6,49.925z"/><path fill="#512c2b" d="M51.137,54.843c0.476,0,0.937-0.208,1.234-0.555c0.03-0.035,0.026-0.088-0.009-0.118l0,0 c-0.035-0.03-0.087-0.027-0.118,0.008c-0.242,0.277-0.645,0.435-1.107,0.435c-0.462,0-0.865-0.159-1.107-0.435 c-0.017-0.019-0.04-0.028-0.063-0.028c-0.019,0-0.039,0.007-0.055,0.02c-0.035,0.03-0.039,0.083-0.009,0.118 C50.2,54.635,50.661,54.843,51.137,54.843z"/><path fill="#512c2b" d="M49.619,48.416l0.302-0.58c-1.276-0.299-2.745-0.251-3.958,0.125l0.38,0.565 C47.34,48.197,48.566,48.155,49.619,48.416z"/><path fill="#512c2b" d="M56.008,48.416l0.302-0.58c-1.276-0.299-2.745-0.251-3.958,0.125l0.38,0.565 C53.729,48.197,54.955,48.155,56.008,48.416z"/><path fill="#512c2b" d="M47.783,49.234c-0.306,0-0.576,0.203-0.731,0.509c0.039-0.012,0.079-0.02,0.121-0.02 c0.251,0,0.455,0.228,0.455,0.508s-0.204,0.508-0.455,0.508c-0.082,0-0.158-0.026-0.225-0.069c0.108,0.46,0.44,0.796,0.835,0.796 c0.482,0,0.872-0.5,0.872-1.116C48.654,49.734,48.264,49.234,47.783,49.234z"/><path fill="#512c2b" d="M54.454,49.234c-0.262,0-0.496,0.148-0.655,0.382c0.05-0.021,0.103-0.034,0.16-0.034 c0.251,0,0.455,0.228,0.455,0.508c0,0.281-0.204,0.508-0.455,0.508c-0.156,0-0.293-0.088-0.375-0.221 c0.011,0.604,0.396,1.089,0.871,1.089c0.482,0,0.872-0.5,0.872-1.116C55.326,49.734,54.935,49.234,54.454,49.234z"/><path fill="#472b29" d="M51.867,80.005c-6.236,0-10.262-1.248-15.071-4.504c-0.15-0.102-0.233-0.277-0.218-0.457 c0.006-0.074,0.009-0.326,0.014-0.69c0.023-1.526,0.07-4.702,0.41-5.957c0.47-1.733,1.155-2.41,2.423-3.193 c0.475-0.293,1.039-0.526,1.675-0.693l4.918-1.786c0.33-0.086,0.548-0.279,0.574-0.413c0.015-0.078,0.053-0.359,0.1-1.315 c-0.691-0.491-1.252-0.931-1.422-1.097c-1.109-1.085-1.744-2.078-2-3.125c-0.074-0.304-0.098-0.368-0.209-0.452 c-0.139-0.104-0.277-0.181-0.409-0.255c-0.338-0.191-0.722-0.408-0.996-0.918c-0.604-1.128-1.029-3.19-1.029-3.879 c0-0.036,0.004-0.071,0.011-0.106c0.178-0.822,0.965-1.441,1.916-1.505c0.093-0.006,0.181-0.007,0.285-0.008 c0.117-0.006,0.225-0.003,0.321,0.004c-0.016-0.882,0.03-2.501,0.051-3.257l0.009-0.359c0-3.379,3.366-6.149,7.681-6.337 c0.039-0.009,0.084-0.015,0.119-0.013l0.112,0.5l0.033-0.5c0.041-0.002,0.083,0.004,0.124,0.013 c4.312,0.191,7.676,2.96,7.676,6.338l0.009,0.359c0.021,0.765,0.068,2.41,0.052,3.258c0.105-0.008,0.218-0.01,0.346-0.004 c0.072-0.001,0.167,0.001,0.26,0.007c0.95,0.064,1.738,0.683,1.916,1.505c0.007,0.035,0.011,0.07,0.011,0.106 c0,0.771-0.442,2.784-1.029,3.878c-0.273,0.511-0.657,0.727-0.996,0.918c-0.132,0.074-0.27,0.151-0.409,0.255 c-0.112,0.084-0.136,0.148-0.206,0.437c-0.259,1.064-0.895,2.056-2.003,3.14c-0.171,0.167-0.755,0.647-1.516,1.2 c0.002,0.622,0.068,0.989,0.134,1.13c0.122,0.261,0.302,0.422,0.534,0.482c0.262,0.094,5.243,1.932,6.114,2.3 c0.155,0.06,0.298,0.118,0.412,0.167c0.062,0.023,0.134,0.05,0.188,0.066c1.541,0.465,2.34,1.419,2.674,3.19 c0.004,0.022,0.007,0.045,0.008,0.067c0,0,0.247,4.826,0.386,7.769c0.009,0.197-0.098,0.381-0.274,0.47 c-2.831,1.429-7.945,3.061-11.273,3.207C53.454,79.985,52.643,80.005,51.867,80.005z M37.585,74.826 c5.1,3.401,9.349,4.443,16.675,4.123c3.085-0.135,7.792-1.611,10.577-2.957c-0.134-2.807-0.347-6.984-0.369-7.404 c-0.268-1.384-0.805-2.032-1.975-2.385c-0.072-0.022-0.167-0.056-0.275-0.097c-0.124-0.053-0.255-0.106-0.41-0.167 c-0.863-0.365-5.982-2.254-6.034-2.273c-0.472-0.117-0.896-0.481-1.144-1.011c-0.168-0.358-0.244-0.971-0.227-1.822 c0.003-0.158,0.081-0.305,0.21-0.397c0.838-0.597,1.469-1.117,1.605-1.25c0.968-0.947,1.517-1.788,1.726-2.646 c0.083-0.34,0.172-0.708,0.582-1.015c0.176-0.132,0.35-0.232,0.517-0.326c0.283-0.16,0.47-0.265,0.606-0.52 c0.5-0.934,0.885-2.72,0.909-3.349c-0.106-0.359-0.515-0.637-0.993-0.67c-0.07-0.005-0.14-0.006-0.216-0.005 c-0.218-0.011-0.364,0.013-0.481,0.031c-0.174,0.028-0.438,0.07-0.657-0.131c-0.224-0.206-0.204-0.495-0.194-0.618 c0.042-0.578-0.018-2.706-0.041-3.507c-0.006-0.214-0.01-0.356-0.01-0.387c0-2.862-2.991-5.208-6.809-5.342 c-0.019-0.001-0.038-0.002-0.057-0.005c-0.01,0-0.017,0.001-0.02,0.001l0,0c-0.017,0.002-0.034,0.004-0.051,0.004 c-3.818,0.134-6.809,2.48-6.809,5.342c0,0.031-0.004,0.172-0.01,0.387c-0.022,0.801-0.083,2.929-0.041,3.507 c0.009,0.123,0.03,0.412-0.194,0.619c-0.219,0.201-0.483,0.159-0.658,0.131c-0.116-0.018-0.258-0.042-0.456-0.032 c-0.1,0-0.171,0.001-0.242,0.006c-0.479,0.032-0.886,0.31-0.993,0.669c0.024,0.636,0.426,2.449,0.909,3.349 c0.137,0.255,0.324,0.36,0.606,0.52c0.167,0.094,0.341,0.194,0.518,0.326c0.409,0.307,0.498,0.675,0.577,1 c0.213,0.873,0.761,1.714,1.73,2.661c0.109,0.106,0.685,0.568,1.521,1.151c0.141,0.098,0.221,0.261,0.213,0.432 c-0.062,1.377-0.113,1.644-0.129,1.732c-0.12,0.624-0.721,1.042-1.263,1.18l-4.915,1.785c-0.584,0.155-1.057,0.349-1.447,0.59 c-1.132,0.699-1.602,1.197-1.983,2.603c-0.307,1.134-0.354,4.341-0.375,5.711C37.59,74.548,37.588,74.703,37.585,74.826z"/><g><path fill="#895d3d" d="M59.734,53.336l-0.597-0.067l0.122-1.083l-0.56,0.243l-0.238-0.551l1.035-0.448 c0.097-0.042,0.212-0.03,0.297,0.034c0.086,0.064,0.132,0.168,0.12,0.275L59.734,53.336z"/></g><g><path fill="#895d3d" d="M42.682,53.097l-0.18-1.598c-0.012-0.106,0.034-0.211,0.12-0.275 c0.085-0.064,0.199-0.077,0.297-0.034l1.035,0.449l-0.238,0.551l-0.56-0.243l0.122,1.083L42.682,53.097z"/></g><g><path fill="#472b29" d="M43.706,56.242c-0.001,0-0.002,0-0.004,0c-0.11-0.002-0.198-0.093-0.196-0.204l0.115-6.024 c0.003-0.111,0.107-0.192,0.204-0.196c0.11,0.002,0.198,0.093,0.196,0.204l-0.115,6.024 C43.903,56.155,43.814,56.242,43.706,56.242z"/></g><g><path fill="#472b29" d="M58.599,56.242c-0.109,0-0.198-0.087-0.2-0.196l-0.114-6.024c-0.002-0.11,0.086-0.202,0.196-0.204 c0.001,0,0.003,0,0.004,0c0.109,0,0.198,0.087,0.2,0.196l0.114,6.024c0.002,0.11-0.086,0.202-0.196,0.204 C58.601,56.242,58.6,56.242,58.599,56.242z"/></g><g><path fill="#6d1b18" d="M48.711,57.081c-0.028,0.108-0.044,0.219-0.044,0.332c0,0.973,1.076,1.762,2.404,1.762 s2.404-0.789,2.404-1.762c0-0.114-0.016-0.225-0.044-0.332H48.711z"/><path fill="#ee3e54" d="M52.341,58.904c-0.211-0.246-0.7-0.419-1.27-0.419s-1.059,0.173-1.27,0.419 c0.369,0.169,0.802,0.271,1.27,0.271C51.539,59.175,51.972,59.073,52.341,58.904z"/><path fill="#fdfcef" d="M49.4,57.081c-0.001,0.01-0.005,0.02-0.005,0.031v0.298c0,0.26,0.343,0.474,0.763,0.474h1.827 c0.42,0,0.763-0.213,0.763-0.474v-0.298c0-0.011-0.004-0.021-0.005-0.031H49.4z"/><g><path fill="#472b29" d="M51.071,59.375c-1.436,0-2.604-0.88-2.604-1.961c0-0.125,0.017-0.253,0.05-0.382 c0.023-0.088,0.103-0.15,0.194-0.15h4.72c0.091,0,0.17,0.061,0.193,0.149c0.034,0.129,0.051,0.258,0.051,0.383 C53.676,58.495,52.507,59.375,51.071,59.375z M48.875,57.281c-0.006,0.045-0.008,0.089-0.008,0.132 c0,0.861,0.989,1.562,2.204,1.562s2.204-0.701,2.204-1.562c0-0.043-0.003-0.088-0.008-0.132H48.875z"/></g></g><g><path fill="#512c2b" d="M58.634,54.288c-0.51,1.476-1.041,2.797-1.433,3.683c-0.165,0.374-0.721,0.398-0.918,0.038 c-0.334-0.614-0.909-1.27-1.684-1.628c-1.881-0.867-3.343,0.2-3.343,0.2c0.783,0.022,1.8,0.181,2.229,0.889 c1.507,2.487-2.142,2.891-2.284,2.759c-0.142,0.133-3.791-0.272-2.284-2.759c0.429-0.708,1.446-0.868,2.229-0.889 c0,0-1.463-1.067-3.343-0.2c-0.775,0.358-1.35,1.014-1.684,1.628c-0.197,0.361-0.753,0.337-0.918-0.038 c-0.359-0.812-0.834-1.992-1.303-3.317c-0.067,0.798-0.19,1.59-0.258,2.388c0.022,0.103,0.044,0.206,0.068,0.307 c0.401,1.709,0.912,5.806,6.355,7.603c0.619,0.205,1.645,0.206,2.265,0.004c5.15-1.677,5.884-5.363,6.285-7.236 C58.553,56.579,58.583,55.437,58.634,54.288z"/></g></g><g><path fill="#ee3e54" d="M55.5,22.5H41.414l2.793-2.793c0.391-0.391,0.391-1.023,0-1.414s-1.023-0.391-1.414,0l-4.5,4.5 c-0.391,0.391-0.391,1.023,0,1.414l4.5,4.5C42.988,28.902,43.244,29,43.5,29s0.512-0.098,0.707-0.293 c0.391-0.391,0.391-1.023,0-1.414L41.414,24.5H55.5c1.654,0,3,1.346,3,3s-1.346,3-3,3h-9c-0.552,0-1,0.448-1,1s0.448,1,1,1h9 c2.757,0,5-2.243,5-5S58.257,22.5,55.5,22.5z"/><path fill="#472b29" d="M43.5,29.25c-0.334,0-0.647-0.13-0.884-0.366l-4.5-4.5c-0.487-0.487-0.487-1.28,0-1.768l4.5-4.5 c0.473-0.472,1.295-0.472,1.768,0c0.236,0.236,0.366,0.55,0.366,0.884s-0.13,0.648-0.366,0.884l-2.366,2.366h1.795 c0.138,0,0.25,0.112,0.25,0.25s-0.112,0.25-0.25,0.25h-2.398c-0.101,0-0.192-0.061-0.231-0.154 c-0.039-0.094-0.017-0.201,0.054-0.272l2.793-2.793c0.142-0.142,0.22-0.33,0.22-0.53s-0.078-0.389-0.22-0.53 c-0.292-0.292-0.769-0.292-1.061,0l-4.5,4.5c-0.292,0.292-0.292,0.768,0,1.061l4.5,4.5c0.283,0.283,0.777,0.283,1.061,0 c0.142-0.142,0.22-0.33,0.22-0.53s-0.078-0.389-0.22-0.53l-2.793-2.793c-0.071-0.072-0.093-0.179-0.054-0.272 c0.039-0.093,0.13-0.154,0.231-0.154h11.898c0.138,0,0.25,0.112,0.25,0.25s-0.112,0.25-0.25,0.25H42.018l2.366,2.366 c0.487,0.487,0.487,1.28,0,1.768C44.147,29.12,43.834,29.25,43.5,29.25z"/><path fill="#472b29" d="M48.688,22.75H45.5c-0.138,0-0.25-0.112-0.25-0.25s0.112-0.25,0.25-0.25h3.188 c0.138,0,0.25,0.112,0.25,0.25S48.826,22.75,48.688,22.75z"/><path fill="#472b29" d="M55.5,32.75c-0.138,0-0.25-0.112-0.25-0.25s0.112-0.25,0.25-0.25c2.619,0,4.75-2.131,4.75-4.75 s-2.131-4.75-4.75-4.75h-4.938c-0.138,0-0.25-0.112-0.25-0.25s0.112-0.25,0.25-0.25H55.5c2.895,0,5.25,2.355,5.25,5.25 S58.395,32.75,55.5,32.75z"/><path fill="#472b29" d="M53.75,32.75H46.5c-0.689,0-1.25-0.561-1.25-1.25s0.561-1.25,1.25-1.25h2.125 c0.138,0,0.25,0.112,0.25,0.25s-0.112,0.25-0.25,0.25H46.5c-0.414,0-0.75,0.336-0.75,0.75s0.336,0.75,0.75,0.75h7.25 c0.138,0,0.25,0.112,0.25,0.25S53.888,32.75,53.75,32.75z"/><path fill="#472b29" d="M55.5,30.75h-5c-0.138,0-0.25-0.112-0.25-0.25s0.112-0.25,0.25-0.25h5 c1.517,0,2.75-1.234,2.75-2.75s-1.233-2.75-2.75-2.75c-0.138,0-0.25-0.112-0.25-0.25s0.112-0.25,0.25-0.25 c1.792,0,3.25,1.458,3.25,3.25S57.292,30.75,55.5,30.75z"/></g></svg>