<?xml version="1.0"?><svg xmlns="http://www.w3.org/2000/svg" viewBox="0 0 50 50">    <path d="M24.196,49.001c-0.602,0-1.127-0.213-1.578-0.396l-0.105-0.042c-0.623-0.251-1.278-0.377-2.063-0.397 c-0.317-0.008-0.612-0.053-0.899-0.1c-0.4-0.064-0.638-0.099-0.869-0.03c-0.046,0.014-0.106,0.037-0.176,0.063 c-0.588,0.213-1.958,0.712-2.618-0.355c-0.452-0.729-0.057-1.66,0.262-2.408c0.044-0.105,0.084-0.193,0.104-0.253l0.066-0.204 c0.224-0.685,0.347-1.062,0.447-1.75c0.109-0.751,0.081-1.452-0.088-2.205c-0.213-0.949-0.29-1.72-0.048-2.85 c0.093-0.434,0.028-0.728-0.09-1.26l-0.06-0.275c-0.517,0.14-1.19,0.175-1.755-0.104c-0.427-0.21-0.728-0.573-0.846-1.022 c-0.061-0.231-0.052-0.436-0.038-0.59c-0.114-0.149-0.233-0.347-0.277-0.604c-0.035-0.009-0.069-0.019-0.104-0.03 c-0.556-0.174-0.979-0.522-1.224-1.007c-0.521-1.031-0.069-2.34,0.261-3.296c0.072-0.211,0.139-0.4,0.179-0.554 c0.033-0.127,0.006-0.282-0.043-0.544s-0.111-0.589-0.09-0.966c0.018-0.329,0.05-0.942,0.542-1.41 c0.279-0.265,0.592-0.356,0.825-0.396c0.002-0.005,0.004-0.011,0.007-0.017c0.164-0.406,0.391-0.627,0.557-0.788 c0.041-0.041,0.086-0.083,0.134-0.137c0.31-0.349,0.465-0.938,0.616-1.508l0.058-0.218c0.202-0.751,0.454-1.458,0.791-2.225 l0.059-0.132c0.093-0.208,0.189-0.422,0.205-0.566c0.003-0.023-0.021-0.101-0.046-0.184c-0.056-0.182-0.108-0.369-0.13-0.586 c-0.073-0.708,0.181-1.412,0.385-1.977c0.063-0.172,0.124-0.339,0.168-0.494l0.065-0.224c0.229-0.794,0.447-1.545,0.616-2.315 c0.354-1.61,0.338-2.869-0.052-4.208c-0.169-0.582-0.261-1.147-0.349-1.695c-0.039-0.244-0.079-0.489-0.125-0.735 c-0.039-0.207-0.063-0.446-0.085-0.696c-0.023-0.253-0.065-0.724-0.145-0.852c-0.051-0.081-0.102-0.145-0.146-0.203 c-0.417-0.546-0.607-1.099-0.177-2.021c0.342-0.733,0.963-1.353,1.9-1.895c3.058-1.773,3.802-1.344,4.16-1.137 c0.348,0.2,0.571,0.533,0.632,0.933c0.012,0.013,0.025,0.025,0.039,0.039c0.366,0.367,0.684,0.913,0.447,1.604 c0.133-0.05,0.257-0.098,0.351-0.135c0.484-0.188,0.867-0.337,1.224-0.363c0.266-0.019,0.766-0.055,1.245,0.181 c0.162,0.08,0.287,0.181,0.384,0.281c0.017-0.002,0.034-0.005,0.051-0.007c0.485-0.057,0.803,0.085,0.982,0.173 c0.232-0.128,0.637-0.486,0.848-0.762c0.167-0.217,0.476-0.621,1.002-0.676c0.416-0.041,0.705,0.153,0.846,0.266 c0.414-0.042,0.685-0.082,0.894-0.113c0.835-0.123,1.179-0.11,1.861,0.345c0.228-0.061,0.545-0.097,0.88,0.068 c0.494,0.244,0.65,0.74,0.701,0.903c0.159,0.508,0.099,1.011,0.024,1.417c0.81-0.012,1.49,0.319,1.879,0.944 c0.464,0.743,0.384,1.734-0.209,2.588c-0.54,0.778-1.205,1.404-3.005,2.3c-0.093,0.063-0.309,0.386-0.438,0.58 c-0.216,0.323-0.457,0.685-0.775,0.96l0.055,0.13c0.627,1.515,0.551,2.924,0.477,4.286c-0.014,0.254-0.028,0.513-0.038,0.776 c-0.021,0.544-0.047,1.219-0.757,1.871c-0.122,0.112-0.248,0.209-0.368,0.299c0.046,0.071,0.088,0.13,0.128,0.187 c0.278,0.395,0.624,0.885,0.599,1.772c-0.013,0.501-0.168,0.796-0.282,1.012c-0.079,0.149-0.141,0.268-0.192,0.597 c-0.292,1.848-2.234,1.915-3.278,1.951c-0.139,0.004-0.273,0.009-0.4,0.017c-0.182,0.011-0.27,0.058-0.286,0.073 c0.007,0.038,0.11,0.316,0.53,0.597l0.098,0.065c0.364,0.239,0.818,0.536,1.084,1.284c0.208,0.582,0.4,0.925,0.573,1.021 c0.038,0.014,0.195,0.034,0.298,0.048c1.515,0.196,1.729,1.085,1.643,1.797l-0.029,0.26c-0.069,0.646-0.146,1.378-0.811,2.018 c-0.288,0.277-0.677,0.489-1.054,0.695c-0.205,0.111-0.547,0.298-0.635,0.388c-0.274,0.372-0.356,1.243-0.013,1.91 c0.125,0.246,0.413,0.806,0.59,0.905c-0.014-0.015,0.047-0.016,0.107-0.012c0.336,0.018,1.359,0.071,1.627,1.132 c0.141,0.56,0.111,1.599-1.681,2.272c-0.431,0.162-0.58,0.301-0.841,0.78c-0.149,0.275-0.323,0.549-0.5,0.827 c-0.44,0.691-0.856,1.343-0.78,1.956c0.03,0.238,0.221,0.876,0.36,1.342c0.385,1.29,0.501,1.678,0.163,2.151 C28.237,47.683,27.642,48,27,48c-0.35,0-0.516,0.1-0.88,0.318c-0.261,0.157-0.586,0.352-1.024,0.517 C24.779,48.954,24.479,49.001,24.196,49.001z"/></svg>