<svg xmlns="http://www.w3.org/2000/svg" viewBox="0 0 100 100"><path fill="#c7ede6" d="M87.245,56.71c1.135-2.155,1.785-4.605,1.785-7.21c0-6.621-4.159-12.257-10.001-14.478 c0-0.008,0.001-0.015,0.001-0.022c0-11.598-9.402-21-21-21c-9.784,0-17.981,6.701-20.313,15.757C36.241,29.272,34.668,29,33.03,29 c-7.692,0-14.023,5.793-14.89,13.252c-5.204,1.1-9.11,5.716-9.11,11.248c0,6.351,5.149,11.5,11.5,11.5 c0.177,0,0.352-0.012,0.526-0.022c-0.004,0.175-0.026,0.346-0.026,0.522c0,11.322,9.178,20.5,20.5,20.5 c6.437,0,12.175-2.972,15.934-7.614C59.642,80.611,62.67,82,66.03,82c4.65,0,8.674-2.65,10.666-6.518 C77.748,75.817,78.867,76,80.03,76c6.075,0,11-4.925,11-11C91.03,61.689,89.56,58.727,87.245,56.71z"/><path fill="#fdfcef" d="M78.375,56c0,0,3.64,0,6.125,0s4.5-2.015,4.5-4.5c0-2.333-1.782-4.229-4.055-4.455 C84.967,46.864,85,46.687,85,46.5c0-2.485-2.015-4.5-4.5-4.5c-1.438,0-2.703,0.686-3.527,1.736C76.833,41.1,74.671,39,72,39 c-2.761,0-5,2.239-5,5c0,0.446,0.077,0.87,0.187,1.282C66.545,44.505,65.586,44,64.5,44c-1.781,0-3.234,1.335-3.455,3.055 C60.864,47.033,60.687,47,60.5,47c-2.485,0-4.5,2.015-4.5,4.5s2.015,4.5,4.5,4.5s9.5,0,9.5,0h5.375v0.5h3V56z"/><path fill="#472b29" d="M72,38.5c-3.033,0-5.5,2.467-5.5,5.5c0,0.016,0,0.031,0,0.047c-0.602-0.354-1.29-0.547-2-0.547 c-1.831,0-3.411,1.261-3.858,3.005C60.595,46.502,60.548,46.5,60.5,46.5c-2.757,0-5,2.243-5,5s2.243,5,5,5h14.875 c0.276,0,0.5-0.224,0.5-0.5s-0.224-0.5-0.5-0.5H60.5c-2.206,0-4-1.794-4-4s1.794-4,4-4c0.117,0,0.23,0.017,0.343,0.032l0.141,0.019 c0.021,0.003,0.041,0.004,0.062,0.004c0.246,0,0.462-0.185,0.495-0.437c0.191-1.493,1.463-2.618,2.959-2.618 c0.885,0,1.723,0.401,2.301,1.1c0.098,0.118,0.241,0.182,0.386,0.182c0.078,0,0.156-0.018,0.228-0.056 c0.209-0.107,0.314-0.346,0.254-0.573C67.554,44.718,67.5,44.352,67.5,44c0-2.481,2.019-4.5,4.5-4.5 c2.381,0,4.347,1.872,4.474,4.263c0.011,0.208,0.15,0.387,0.349,0.45c0.05,0.016,0.101,0.024,0.152,0.024 c0.15,0,0.296-0.069,0.392-0.192c0.771-0.981,1.913-1.544,3.133-1.544c2.206,0,4,1.794,4,4c0,0.117-0.017,0.23-0.032,0.343 l-0.019,0.141c-0.016,0.134,0.022,0.268,0.106,0.373c0.084,0.105,0.207,0.172,0.34,0.185c2.055,0.205,3.604,1.906,3.604,3.958 c0,2.206-1.794,4-4,4h-6.125c-0.276,0-0.5,0.224-0.5,0.5s0.224,0.5,0.5,0.5H84.5c2.757,0,5-2.243,5-5 c0-2.397-1.689-4.413-4.003-4.877c0.002-0.041,0.003-0.082,0.003-0.123c0-2.757-2.243-5-5-5c-1.176,0-2.293,0.416-3.183,1.164 C76.719,40.26,74.555,38.5,72,38.5L72,38.5z"/><path fill="#472b29" d="M70.5 45.5c-1.403 0-2.609.999-2.913 2.341-.367-.222-.786-.341-1.212-.341-1.202 0-2.198.897-2.353 2.068-.203-.045-.396-.068-.585-.068-1.529 0-2.811 1.2-2.918 2.732-.009.138.094.257.232.267.006 0 .012 0 .018 0 .13 0 .24-.101.249-.232C61.107 50.996 62.17 50 63.437 50c.229 0 .47.042.738.127.022.007.045.01.067.01.055 0 .11-.02.156-.054.064-.047.102-.129.102-.209 0-1.034.841-1.875 1.875-1.875.447 0 .885.168 1.231.473.047.041.106.063.165.063.032 0 .063-.006.093-.019.088-.035.148-.117.155-.212C68.123 47.012 69.212 46 70.5 46c.208 0 .425.034.682.107.023.007.047.01.07.01.109 0 .207-.073.239-.182.038-.133-.039-.271-.172-.309C71.017 45.54 70.756 45.5 70.5 45.5L70.5 45.5zM84.383 47c-1.326 0-2.508.897-2.874 2.182-.038.133.039.271.172.309.023.007.046.01.068.01.109 0 .209-.072.24-.182.305-1.071 1.289-1.818 2.393-1.818.117 0 .23.014.342.029.012.002.023.003.035.003.121 0 .229-.092.246-.217.019-.137-.077-.263-.214-.281C84.658 47.016 84.522 47 84.383 47L84.383 47z"/><path fill="#fff" d="M15.405 47H5.5C5.224 47 5 46.776 5 46.5S5.224 46 5.5 46h9.905c.276 0 .5.224.5.5S15.682 47 15.405 47zM18.5 47h-1c-.276 0-.5-.224-.5-.5s.224-.5.5-.5h1c.276 0 .5.224.5.5S18.777 47 18.5 47zM23.491 49H14.5c-.276 0-.5-.224-.5-.5s.224-.5.5-.5h8.991c.276 0 .5.224.5.5S23.767 49 23.491 49zM12.5 49h-1c-.276 0-.5-.224-.5-.5s.224-.5.5-.5h1c.276 0 .5.224.5.5S12.777 49 12.5 49zM9.5 49h-2C7.224 49 7 48.776 7 48.5S7.224 48 7.5 48h2c.276 0 .5.224.5.5S9.777 49 9.5 49zM15.5 51h-2c-.276 0-.5-.224-.5-.5s.224-.5.5-.5h2c.276 0 .5.224.5.5S15.776 51 15.5 51zM18.5 42c-.177 0-.823 0-1 0-.276 0-.5.224-.5.5 0 .276.224.5.5.5.177 0 .823 0 1 0 .276 0 .5-.224.5-.5C19 42.224 18.776 42 18.5 42zM18.5 44c-.177 0-4.823 0-5 0-.276 0-.5.224-.5.5 0 .276.224.5.5.5.177 0 4.823 0 5 0 .276 0 .5-.224.5-.5C19 44.224 18.776 44 18.5 44zM23.5 46c-.177 0-2.823 0-3 0-.276 0-.5.224-.5.5 0 .276.224.5.5.5.177 0 2.823 0 3 0 .276 0 .5-.224.5-.5C24 46.224 23.776 46 23.5 46z"/><g><path fill="#fff" d="M72.53 20h-10c-.276 0-.5-.224-.5-.5s.224-.5.5-.5h10c.276 0 .5.224.5.5S72.806 20 72.53 20zM76.53 20h-2c-.276 0-.5-.224-.5-.5s.224-.5.5-.5h2c.276 0 .5.224.5.5S76.806 20 76.53 20zM81.53 22h-10c-.276 0-.5-.224-.5-.5s.224-.5.5-.5h10c.276 0 .5.224.5.5S81.807 22 81.53 22zM69.53 22h-1c-.276 0-.5-.224-.5-.5s.224-.5.5-.5h1c.276 0 .5.224.5.5S69.806 22 69.53 22zM66.405 22H64.53c-.276 0-.5-.224-.5-.5s.224-.5.5-.5h1.875c.276 0 .5.224.5.5S66.681 22 66.405 22zM75.53 18h-5c-.276 0-.5-.224-.5-.5s.224-.5.5-.5h5c.276 0 .5.224.5.5S75.807 18 75.53 18zM72.53 24h-2c-.276 0-.5-.224-.5-.5s.224-.5.5-.5h2c.276 0 .5.224.5.5S72.806 24 72.53 24z"/></g><path fill="#ee3e54" d="M50,76.573c-8.602,0-15.6-6.998-15.6-15.6c0-12.13,11.93-27.91,15.6-32.477 c3.67,4.567,15.6,20.348,15.6,32.477C65.6,69.574,58.602,76.573,50,76.573z"/><path fill="#edf7f5" d="M50,68L50,68c-1.105,0-2-0.895-2-2V52c0-1.105,0.895-2,2-2h0c1.105,0,2,0.895,2,2v14 C52,67.105,51.105,68,50,68z"/><path fill="#edf7f5" d="M59,59L59,59c0,1.105-0.895,2-2,2H43c-1.105,0-2-0.895-2-2v0c0-1.105,0.895-2,2-2h14 C58.105,57,59,57.895,59,59z"/><path fill="#472b29" d="M50.773,27.221c-0.401-0.492-1.145-0.492-1.546,0C45.904,31.292,33,47.939,33,60.972 c0,9.389,7.611,17,17,17c9.389,0,17-7.611,17-17C67,47.939,54.096,31.292,50.773,27.221z M50,76.573c-8.602,0-15.6-6.998-15.6-15.6 c0-12.13,11.93-27.91,15.6-32.477c3.67,4.567,15.6,20.348,15.6,32.477C65.6,69.574,58.602,76.573,50,76.573z"/><path fill="none" stroke="#472b29" stroke-linecap="round" stroke-linejoin="round" stroke-miterlimit="10" d="M57 60.5c.828 0 1.5-.672 1.5-1.5s-.672-1.5-1.5-1.5h-5.5V52c0-.828-.672-1.5-1.5-1.5s-1.5.672-1.5 1.5v3M48.5 57.5H43c-.828 0-1.5.672-1.5 1.5s.672 1.5 1.5 1.5h5.5V66c0 .828.672 1.5 1.5 1.5s1.5-.672 1.5-1.5v-5.5H54"/><g><path fill="#fdfcef" d="M35.125,74.875c0,0,1.567,0,3.5,0s3.5-1.567,3.5-3.5c0-1.781-1.335-3.234-3.055-3.455 c0.028-0.179,0.055-0.358,0.055-0.545c0-1.933-1.567-3.5-3.5-3.5c-1.032,0-1.95,0.455-2.59,1.165 c-0.384-1.808-1.987-3.165-3.91-3.165c-2.209,0-4,1.791-4,4c0,0.191,0.03,0.374,0.056,0.558c-0.428-0.344-0.965-0.558-1.556-0.558 c-1.228,0-2.245,0.887-2.455,2.055c-0.179-0.028-0.358-0.055-0.545-0.055c-1.933,0-3.5,1.567-3.5,3.5s1.567,3.5,3.5,3.5 s7.5,0,7.5,0v0.5h7V74.875z"/><path fill="#472b29" d="M36.875 70.375c-.138 0-.25-.112-.25-.25 0-1.223.995-2.218 2.218-2.218.034.009.737-.001 1.244.136.133.036.212.173.176.306-.036.134-.173.213-.306.176-.444-.12-1.1-.12-1.113-.118-.948 0-1.719.771-1.719 1.718C37.125 70.263 37.013 70.375 36.875 70.375zM30.125 74.375A.5.5 0 1 0 30.125 75.375.5.5 0 1 0 30.125 74.375z"/><path fill="#472b29" d="M38.625,75.375h-3.5c-0.276,0-0.5-0.224-0.5-0.5s0.224-0.5,0.5-0.5h3.5c1.654,0,3-1.346,3-3 c0-1.496-1.125-2.768-2.618-2.959c-0.134-0.018-0.255-0.088-0.336-0.196s-0.115-0.244-0.094-0.377 c0.024-0.153,0.049-0.308,0.049-0.468c0-1.654-1.346-3-3-3c-0.85,0-1.638,0.355-2.219,1c-0.125,0.139-0.321,0.198-0.5,0.148 c-0.182-0.049-0.321-0.195-0.36-0.379c-0.341-1.604-1.779-2.769-3.42-2.769c-1.93,0-3.5,1.57-3.5,3.5 c0,0.143,0.021,0.28,0.041,0.418c0.029,0.203-0.063,0.438-0.242,0.54c-0.179,0.102-0.396,0.118-0.556-0.01 c-0.365-0.293-0.794-0.448-1.243-0.448c-0.966,0-1.792,0.691-1.963,1.644c-0.048,0.267-0.296,0.446-0.569,0.405 c-0.153-0.024-0.308-0.049-0.468-0.049c-1.654,0-3,1.346-3,3s1.346,3,3,3h7.5c0.276,0,0.5,0.224,0.5,0.5s-0.224,0.5-0.5,0.5h-7.5 c-2.206,0-4-1.794-4-4s1.794-4,4-4c0.059,0,0.116,0.002,0.174,0.006c0.414-1.186,1.537-2.006,2.826-2.006 c0.349,0,0.689,0.061,1.011,0.18c0.165-2.333,2.115-4.18,4.489-4.18c1.831,0,3.466,1.127,4.153,2.774 c0.68-0.499,1.502-0.774,2.347-0.774c2.206,0,4,1.794,4,4c0,0.048-0.001,0.095-0.004,0.142c1.743,0.448,3.004,2.027,3.004,3.858 C42.625,73.581,40.831,75.375,38.625,75.375z"/><path fill="#472b29" d="M33.125,74.375c-0.159,0-0.841,0-1,0c-0.276,0-0.5,0.224-0.5,0.5c0,0.276,0.224,0.5,0.5,0.5 c0.159,0,0.841,0,1,0c0.276,0,0.5-0.224,0.5-0.5C33.625,74.599,33.401,74.375,33.125,74.375z"/></g></svg>