<?xml version="1.0"?><svg xmlns="http://www.w3.org/2000/svg" viewBox="0 0 128 128">    <path d="M 74.263672 5.9765625 C 73.301758 5.9052734 72.324219 6.2871094 71.699219 7.0996094 L 61.699219 19.800781 C 60.699219 21.100781 60.899219 23 62.199219 24 C 62.799219 24.4 63.399609 24.599609 64.099609 24.599609 L 64.199219 24.599609 C 68.599219 24.599609 72.999219 23.9 77.199219 22.5 C 78.799219 22 80.600781 21.699219 82.300781 21.699219 C 90.400781 21.699219 97.300781 27.800781 98.300781 35.800781 C 100.10078 50.100781 96.699219 64.5 88.699219 76.5 L 85.5 81.199219 C 83.6 83.999219 80.499219 85.599609 77.199219 85.599609 C 75.699219 85.599609 74.099219 85.2 72.699219 84.5 L 72.099609 84.199219 C 67.099609 81.699219 61.099609 81.699609 56.099609 84.099609 L 55.400391 84.400391 C 54.000391 85.100391 52.500391 85.5 50.900391 85.5 C 47.600391 85.5 44.499609 83.799609 42.599609 81.099609 L 39.400391 76.400391 C 31.400391 64.400391 28.000781 49.999219 29.800781 35.699219 C 30.800781 27.599219 37.700781 21.599609 45.800781 21.599609 C 47.500781 21.599609 49.200781 21.900391 50.800781 22.400391 C 52.400781 22.900391 54.099609 22.1 54.599609 20.5 C 55.099609 18.9 54.299219 17.199219 52.699219 16.699219 C 50.499219 15.999219 48.100781 15.599609 45.800781 15.599609 C 34.700781 15.599609 25.200781 23.9 23.800781 35 C 21.800781 50.7 25.600391 66.600781 34.400391 79.800781 L 37.599609 84.5 C 37.899609 85 38.199609 85.400781 38.599609 85.800781 L 24 85.800781 C 14.1 85.800781 6 93.900781 6 103.80078 C 6 113.70078 14.1 122 24 122 L 109 122 C 110.7 122 112 120.7 112 119 C 112 117.3 110.7 116 109 116 L 24 116 C 17.4 116 12 110.6 12 104 C 12 97.4 17.4 92 24 92 L 109 92 C 110.7 92 112 90.7 112 89 C 112 87.3 110.7 86 109 86 L 89.400391 86 C 89.700391 85.6 90.100391 85.099219 90.400391 84.699219 L 93.599609 80 C 102.39961 66.8 106.09922 50.899219 104.19922 35.199219 C 102.79922 24.099219 93.399219 15.800781 82.199219 15.800781 C 79.799219 15.800781 77.499219 16.200391 75.199219 16.900391 C 73.699219 17.400391 72.199219 17.8 70.699219 18 L 76.400391 10.800781 C 77.400391 9.5007812 77.200391 7.5996094 75.900391 6.5996094 C 75.412891 6.2246094 74.84082 6.0193359 74.263672 5.9765625 z M 41.806641 29.189453 C 41.220117 29.194727 40.624609 29.361719 40.099609 29.699219 C 37.699609 31.299219 36.100781 33.900781 35.800781 36.800781 C 35.600781 38.300781 35.500391 39.800391 35.400391 41.400391 C 35.300391 43.100391 36.600781 44.5 38.300781 44.5 L 38.400391 44.5 C 40.000391 44.5 41.300391 43.199609 41.400391 41.599609 C 41.500391 40.199609 41.599219 38.899609 41.699219 37.599609 C 41.899219 36.499609 42.5 35.399219 43.5 34.699219 C 44.9 33.799219 45.200781 31.9 44.300781 30.5 C 43.738281 29.625 42.78418 29.180664 41.806641 29.189453 z M 39 48.5 A 3 3 0 0 0 36 51.5 A 3 3 0 0 0 39 54.5 A 3 3 0 0 0 42 51.5 A 3 3 0 0 0 39 48.5 z"/></svg>