<svg xmlns="http://www.w3.org/2000/svg" viewBox="0 0 26 26"><path d="M 4.53125 4.1875 C 3.988281 4.28125 3.625 4.800781 3.71875 5.34375 L 4.09375 7.6875 L 3.65625 6.125 C 3.539063 5.660156 3.105469 5.34375 2.625 5.375 C 2.324219 5.398438 2.050781 5.558594 1.882813 5.808594 C 1.714844 6.054688 1.664063 6.367188 1.75 6.65625 L 2.53125 9.53125 L 2.15625 8.46875 C 2.015625 8.039063 1.605469 7.757813 1.15625 7.78125 C 0.835938 7.792969 0.539063 7.957031 0.359375 8.222656 C 0.179688 8.488281 0.140625 8.824219 0.25 9.125 L 1.84375 13.71875 C 1.859375 13.828125 1.890625 13.933594 1.9375 14.03125 L 2 14.1875 C 2.199219 14.886719 2.585938 15.511719 3.1875 15.8125 C 3.5625 16.039063 3.828125 16.351563 3.9375 16.71875 L 3.34375 17.25 C 2.738281 17.789063 1.632813 18 1 18 L 1 20 C 1.800781 20 2.941406 19.742188 4 19.09375 C 4.0625 19.132813 4.125 19.152344 4.1875 19.1875 C 5.191406 19.757813 6.246094 20 7 20 C 7.800781 20 8.941406 19.742188 10 19.09375 C 11.058594 19.742188 12.199219 20 13 20 C 13.800781 20 14.941406 19.742188 16 19.09375 C 17.058594 19.742188 18.199219 20 19 20 C 19.800781 20 20.941406 19.742188 22 19.09375 C 23.058594 19.742188 24.199219 20 25 20 L 25 18 C 24.367188 18 23.261719 17.789063 22.65625 17.25 L 22 16.65625 C 22.117188 16.316406 22.335938 16.023438 22.6875 15.8125 C 23.289063 15.511719 23.707031 14.886719 23.90625 14.1875 L 23.9375 14.09375 C 24.035156 13.984375 24.113281 13.859375 24.15625 13.71875 L 25.75 9.125 C 25.871094 8.800781 25.816406 8.441406 25.605469 8.167969 C 25.394531 7.894531 25.0625 7.75 24.71875 7.78125 C 24.6875 7.78125 24.65625 7.78125 24.625 7.78125 C 24.257813 7.847656 23.953125 8.113281 23.84375 8.46875 L 23.625 9.0625 L 24.1875 6.5 C 24.261719 6.183594 24.175781 5.847656 23.957031 5.605469 C 23.738281 5.363281 23.417969 5.242188 23.09375 5.28125 C 22.65625 5.328125 22.300781 5.660156 22.21875 6.09375 L 21.90625 7.625 L 22.28125 5.375 C 22.34375 5.054688 22.25 4.726563 22.027344 4.488281 C 21.804688 4.253906 21.476563 4.140625 21.15625 4.1875 C 20.71875 4.25 20.375 4.59375 20.3125 5.03125 L 19.84375 7.75 L 19.8125 5.875 C 19.8125 5.605469 19.703125 5.34375 19.507813 5.15625 C 19.3125 4.96875 19.050781 4.867188 18.78125 4.875 C 18.230469 4.890625 17.796875 5.355469 17.8125 5.90625 L 17.90625 11.125 L 17.59375 11.90625 L 15.6875 9.59375 C 15.289063 9.195313 14.710938 9.199219 14.3125 9.5 C 13.914063 9.800781 13.894531 10.289063 14.09375 10.6875 L 15.90625 13.6875 L 16.09375 13.90625 L 16.8125 14.5 C 17.113281 14.898438 17.289063 15.3125 17.1875 15.8125 L 16.875 17.375 C 16.804688 17.328125 16.714844 17.304688 16.65625 17.25 L 16 16.65625 L 15.34375 17.25 C 14.738281 17.789063 13.632813 18 13 18 C 12.367188 18 11.261719 17.789063 10.65625 17.25 L 10 16.65625 L 9.34375 17.25 C 9.285156 17.304688 9.195313 17.328125 9.125 17.375 L 8.8125 15.8125 C 8.710938 15.3125 8.886719 14.898438 9.1875 14.5 L 9.90625 13.90625 L 10.09375 13.6875 L 11.90625 10.6875 C 12.105469 10.289063 12.085938 9.800781 11.6875 9.5 C 11.289063 9.199219 10.710938 9.195313 10.3125 9.59375 L 8.40625 11.90625 L 8.09375 11.125 L 8.1875 5.90625 C 8.199219 5.617188 8.082031 5.339844 7.875 5.144531 C 7.664063 4.945313 7.378906 4.847656 7.09375 4.875 C 7.0625 4.875 7.03125 4.875 7 4.875 C 6.523438 4.964844 6.179688 5.386719 6.1875 5.875 L 6.15625 8.03125 L 5.6875 5.0625 C 5.65625 4.789063 5.515625 4.542969 5.296875 4.375 C 5.078125 4.210938 4.800781 4.144531 4.53125 4.1875 Z M 4 19.65625 L 3.34375 20.25 C 2.738281 20.789063 1.632813 21 1 21 L 1 23 C 1.800781 23 2.941406 22.742188 4 22.09375 C 5.058594 22.742188 6.199219 23 7 23 C 7.800781 23 8.941406 22.742188 10 22.09375 C 11.058594 22.742188 12.199219 23 13 23 C 13.800781 23 14.941406 22.742188 16 22.09375 C 17.058594 22.742188 18.199219 23 19 23 C 19.800781 23 20.941406 22.742188 22 22.09375 C 23.058594 22.742188 24.199219 23 25 23 L 25 21 C 24.367188 21 23.261719 20.789063 22.65625 20.25 L 22 19.65625 L 21.34375 20.25 C 20.738281 20.789063 19.632813 21 19 21 C 18.367188 21 17.261719 20.789063 16.65625 20.25 L 16 19.65625 L 15.34375 20.25 C 14.738281 20.789063 13.632813 21 13 21 C 12.367188 21 11.261719 20.789063 10.65625 20.25 L 10 19.65625 L 9.34375 20.25 C 8.738281 20.789063 7.632813 21 7 21 C 6.367188 21 5.261719 20.789063 4.65625 20.25 Z"/></svg>