<svg xmlns="http://www.w3.org/2000/svg" width="512" height="512" viewBox="0 0 512 512"><path fill="#A3D5E0" d="M256,7.9C119,7.9,7.9,119,7.9,256C7.9,393,119,504.1,256,504.1c137,0,248.1-111.1,248.1-248.1C504.1,119,393,7.9,256,7.9z"/><path fill="#CC8D62" d="M234,170c0,0-9.5-54-14-60s-21-2.5-28,18c0,0-19,9.5-21,31c0,0-5.5,6.5-5.2,15.3c0.3,7.1-4.4,14.2-5.3,18.7c0,0-0.5,10.5,2.5,16.5c0,0-5,14.5,3,21.5c0,0,19,26,22,21s7.5-1,5.5-8S233.5,193.5,234,170z"/><path fill="#E29E6F" d="M326.4,18.1c-39.1,31.6-153.1,135-140.2,255.6c10.5,97.5,84.6,153.2,141,180c2.1,1,4.2,2,6.3,2.9c-3.5,8.8-7.9,21.9-11,38.5C427.2,465.9,504.1,370,504.1,256C504.1,143.4,429.1,48.4,326.4,18.1z"/><path fill="#CC8D62" d="M284.3,391.3c-6.1-3.6-18.1-6.7-33.4-7.1c-14.8-0.4-28.2-4.5-31.3-0.9c-8.3,10,9.6,21,11.7,21.9c18.3,8.2,42.7,13.4,42.7,13.4l25,11.5l6.6-13.5C305.7,416.7,300.3,400.7,284.3,391.3z"/><path fill="#CC8D62" d="M497.1,197.5C433.8,274,346.3,373.1,341.7,376.7c-15.3,12-32.3,25.2-38,24.7s-17.2-8.3-17.2-8.3s24,78.9,45,69.5c9.7-4.3,23.6-12.9,38.1-20.1c0,0,56.4-39.5,110.5-79.9c15.4-32.3,24-68.4,24-106.5C504.1,235.9,501.7,216.3,497.1,197.5z"/><path fill="#CC8D62" d="M246,407.5c0,0,1.4,8.7,3,19.5c1.5,10,9.3,14.4,18.5,23.5c5.1,5.1,10.9,12.4,17.5,17.5c11.5,8.9,25.9,13.4,43.5,17c0,0,25,4,43.5-48L246,407.5z"/><path fill="#E29E6F" d="M188.7 266.4A5.7 8.3 0 1 0 188.7 283A5.7 8.3 0 1 0 188.7 266.4Z"/><path fill="#CC8D62" d="M231,178c-2-3.5-32.6-35.5-32.6-35.5c-14.6,4.5-22.4,96.4-22.4,96.4s7.8,11.2,11.2,13.5c3.4,2.2,6.5,0.4,8.8-4.1c2.2-4.5-2.1-8.3-2.1-8.3s7.8,4.5,12.3,4.5c4.5,0,8-6.4,6.4-13.2c-1.5-6.6-9.8-13.7-9.8-13.7s10.5,7.2,16.1,8.4c5.6,1.1,8-7.2,8-11.7c0-4.5-6.4-10.3-12-14.8c-5.6-4.5-17.5-21-17.5-21l27.8,13.3C232.1,191.8,233,181.5,231,178z"/><path fill="#BA7E56" d="M229.7,121.7c-2.7-5.4-4.1-10.3-17.6-13c-13.6-2.7-10.9,16.3-10.9,16.3s-1.4,9.5,4.1,14.9c5.4,5.4,9.5,4.1,19,4.1c9.5,0,10.9-6.8,10.9-6.8S232.4,127.1,229.7,121.7z"/><path fill="#BA7E56" d="M206,151l4.5,4l8-14C218.5,141,198.5,139.5,206,151z"/><g><path fill="#CC8D62" d="M231,122.3c-3.5-5.4-3.5-12.8-17.7-15.7c-14.3-2.9-13.3,16.1-13.3,16.1s1,10.5,6.7,16.2c5.7,5.7,9.7,8.2,19.3,6.5c9.8-1.7,10-5.5,10-5.5S239,134.7,231,122.3z"/></g></svg>