<?xml version="1.0"?><svg xmlns="http://www.w3.org/2000/svg" viewBox="0 0 30 30">    <path d="M 22.216797 2.0117188 C 21.696922 2.0198438 21.176609 2.2317969 20.787109 2.6542969 L 15.652344 8.4375 C 15.197344 8.8925 14.742656 9.3473281 14.222656 9.7363281 L 10.193359 12.464844 C 9.5433594 12.919844 8.9589062 13.505297 8.5039062 14.154297 L 7.8535156 14.998047 L 2.1347656 23.900391 C 1.8747656 24.355391 2.0045313 25.005531 2.3945312 25.394531 L 4.6699219 27.667969 C 4.9219219 27.919969 5.2556094 28.0625 5.5996094 28.0625 C 5.7886094 28.0625 5.9800625 28.019734 6.1640625 27.927734 L 14.998047 22.146484 L 15.003906 22.146484 L 15.847656 21.560547 C 16.562656 21.105547 17.147969 20.456187 17.667969 19.742188 L 20.267578 15.84375 C 20.657578 15.25875 21.112813 14.739156 21.632812 14.285156 L 27.416016 9.2167969 C 28.195016 8.5017969 28.194062 7.1374219 27.414062 6.3574219 L 23.646484 2.5898438 C 23.256484 2.1998437 22.736672 2.0035937 22.216797 2.0117188 z M 19.869141 7.8710938 C 20.594121 7.7977637 21.218438 7.9567188 21.632812 8.3710938 C 22.737813 9.4760938 21.955406 12.010844 19.941406 14.089844 C 17.926406 16.168844 15.327656 16.882344 14.222656 15.777344 C 13.117656 14.672344 13.897109 12.140547 15.912109 10.060547 C 17.171484 8.7605469 18.66084 7.9933105 19.869141 7.8710938 z M 18.367188 9.6171875 A 0.750075 0.750075 0 0 0 17.84375 10.90625 L 19.09375 12.15625 A 0.75130096 0.75130096 0 1 0 20.15625 11.09375 L 18.90625 9.84375 A 0.750075 0.750075 0 0 0 18.367188 9.6171875 z M 16.367188 11.617188 A 0.750075 0.750075 0 0 0 15.84375 12.90625 L 17.09375 14.15625 A 0.75130096 0.75130096 0 1 0 18.15625 13.09375 L 16.90625 11.84375 A 0.750075 0.750075 0 0 0 16.367188 11.617188 z M 8.1953125 18.167969 L 11.847656 21.820312 L 5.6835938 25.853516 L 4.2050781 24.376953 L 8.1953125 18.167969 z"/></svg>