<svg xmlns="http://www.w3.org/2000/svg" viewBox="0 0 48 48"><path fill="#2196f3" d="M12,38h24v3H12V38z"/><path fill="#90a4ae" d="M12,11h24v27H12V11z"/><path fill="#607d8b" d="M19,11h10v27H19V11z"/><path fill="#fff9c4" d="M24,37c-3.3,0-6-2.7-6-6.1c0-1.8,0.7-4.3,1.9-6.4c1.2-2.3,2.8-3.5,4.1-3.5s2.9,1.3,4.1,3.5 c1.1,2.1,1.9,4.6,1.9,6.4C30,34.3,27.3,37,24,37z"/><path fill="#f4e88c" d="M24,22c1,0,2.2,1.2,3.3,3c1,1.9,1.8,4.3,1.8,5.9c0,2.8-2.2,5.1-5,5.1s-5-2.3-5-5.1 c0-1.6,0.7-4,1.8-5.9C21.8,23.2,23,22,24,22 M24,20c-1.8,0-3.5,1.4-5,4.1c-1.2,2.2-2,4.9-2,6.9c0,3.9,3.1,7.1,7,7.1s7-3.2,7-7.1 c0-2-0.8-4.7-2-6.9C27.5,21.4,25.8,20,24,20z"/><path fill="#f4e88c" d="M29,24.1c-1.4-2.6-3.2-4.1-5-4.1v18c3.9,0,7-3.2,7-7.1C31,28.9,30.2,26.3,29,24.1z"/><path fill="#fff" d="M15 30c-.6 0-1-.4-1-1V18c0-.6.4-1 1-1s1 .4 1 1v11C16 29.6 15.6 30 15 30zM16 15c0 .6-.4 1-1 1s-1-.4-1-1 .4-1 1-1S16 14.4 16 15zM16 32c0 .6-.4 1-1 1s-1-.4-1-1 .4-1 1-1S16 31.4 16 32zM16 35c0 .6-.4 1-1 1s-1-.4-1-1 .4-1 1-1S16 34.4 16 35z"/><path fill="#e4e8ea" d="M12,11l3-8h18l3,8H12z"/><path fill="#cfd8dc" d="M12,41l3,4h18l3-4H12z"/><path fill="#2196f3" d="M27.5,8h-7C19.7,8,19,7.3,19,6.5S19.7,5,20.5,5h7C28.3,5,29,5.7,29,6.5S28.3,8,27.5,8z"/><path fill="#37474f" d="M25 43c0 .6-.4 1-1 1s-1-.4-1-1 .4-1 1-1S25 42.4 25 43zM28 43c0 .6-.4 1-1 1s-1-.4-1-1 .4-1 1-1S28 42.4 28 43zM31 43c0 .6-.4 1-1 1s-1-.4-1-1 .4-1 1-1S31 42.4 31 43zM22 43c0 .6-.4 1-1 1s-1-.4-1-1 .4-1 1-1S22 42.4 22 43zM19 43c0 .6-.4 1-1 1s-1-.4-1-1 .4-1 1-1S19 42.4 19 43z"/></svg>