<svg xmlns="http://www.w3.org/2000/svg" viewBox="0 0 128 128"><path fill="#FFF" d="M113.9,64.7c0-0.6,0.1-1.3,0.1-1.9c0-5-1.2-9.8-3.4-14c0-0.1-0.1-0.1-0.1-0.2c-0.2-0.3-0.3-0.6-0.5-0.9c-6-10.8-18.7-19.2-37.3-19.2c-28.9,0-49.5,24.5-55.4,32.5c-0.7,0.8-1.3,1.6-1.8,2.5c0,0,0,0,0,0l0,0c-1,1.9-1.6,4-1.6,6.3v17.5c0,7.3,5.9,13.2,13.2,13.2c1.7,0,3.3-0.3,4.8-0.9l0,0c9.2-3.1,19.3-2.1,27.7,2.7l6.7,3.8h0c4.8,3.2,10.6,5,16.8,5c17,0,30.7-13.7,30.7-30.7L113.9,64.7L113.9,64.7C113.9,64.7,113.9,64.7,113.9,64.7z"/><path fill="#FF697D" d="M83.3,85.6c-4.4,0-8.8-1.3-12.5-3.7l-0.2-0.1l-7-3.9c-6.3-3.6-13.5-5.4-20.7-5.4c-4.5,0-9,0.7-13.4,2.2l-0.2,0.1l-0.3,0.1c-0.6,0.2-1.2,0.4-1.9,0.4c-2.9,0-5.3-2.4-5.3-5.3c0-0.9,0.2-1.7,0.6-2.5l0,0c0.2-0.3,0.4-0.6,0.7-0.9l0.2-0.3l0.2-0.3c5.1-6.9,23.8-29.3,49.1-29.3c14,0,25.1,5.5,30.4,15.1c0.2,0.3,0.3,0.5,0.4,0.7l0,0.1c1.7,3.3,2.5,6.8,2.5,10.5C106.1,75.3,95.9,85.6,83.3,85.6z"/><path fill="#FFF" d="M83.3 54A8.8 8.8 0 1 0 83.3 71.6A8.8 8.8 0 1 0 83.3 54Z"/><path fill="none" stroke="#3F4A54" stroke-linecap="round" stroke-linejoin="round" stroke-miterlimit="10" stroke-width="6" d="M114,62.8v17.5c0,17-13.7,30.7-30.7,30.7c-6.2,0-12-1.8-16.8-5h0l-6.7-3.8c-8.5-4.8-18.5-5.7-27.7-2.7l0,0c-1.5,0.6-3.1,0.9-4.8,0.9c-7.3,0-13.2-5.9-13.2-13.2V69.8c0-2.3,0.6-4.4,1.6-6.3l0,0c0,0,0,0,0,0c0.5-0.9,1.1-1.7,1.8-2.5c5.9-8,26.6-32.5,55.4-32.5c18.6,0,31.3,8.3,37.3,19.2c0.2,0.3,0.3,0.6,0.5,0.9c0,0.1,0.1,0.1,0.1,0.2C112.8,53,114,57.7,114,62.8"/></svg>