<svg xmlns="http://www.w3.org/2000/svg" viewBox="0 0 24 24"><path d="M 12 0 C 7.59375 0 4 3.59375 4 8 C 4 11.339844 6.082031 14.210938 9 15.40625 L 9 18 L 0 18 L 0 20 L 11 20 L 11 15.9375 C 11.332031 15.980469 11.660156 16 12 16 C 12.339844 16 12.667969 15.980469 13 15.9375 L 13 20 L 24 20 L 24 18 L 15 18 L 15 15.40625 C 17.917969 14.210938 20 11.339844 20 8 C 20 3.59375 16.40625 0 12 0 Z M 12 2 C 15.324219 2 18 4.675781 18 8 C 18 11.324219 15.324219 14 12 14 C 8.675781 14 6 11.324219 6 8 C 6 4.675781 8.675781 2 12 2 Z M 15.59375 4.40625 L 12.0625 6.5 C 12.042969 6.5 12.019531 6.5 12 6.5 C 11.171875 6.5 10.5 7.171875 10.5 8 C 10.5 8.828125 11.171875 9.5 12 9.5 C 12.828125 9.5 13.5 8.828125 13.5 8 C 13.5 7.980469 13.5 7.957031 13.5 7.9375 Z M 0 22 L 0 24 L 24 24 L 24 22 Z"/></svg>