<svg xmlns="http://www.w3.org/2000/svg" viewBox="0 0 48 48"><path fill="#fcbf95" d="M17.63,9.014c0.033,1.005,0.982,5.009,1.448,5.318c0.501,0.332,1.047,0.66,1.645,0.718 c3.103,0.302,3.511,0.352,6.871,1.481c0.245,0.082,1.439,0.293,1.594,0.5c0.661,0.883,2.326,3.184,2.448,3.501l-1.552,1.811 L17.63,21.906l-9.38-8.155L17.63,9.014z"/><path fill="#73a1b2" d="M43.971,41.025c-0.724-1.977-1.488-3.865-2.47-5.727c-0.36-0.681-0.754-1.348-1.033-2.066 c-0.254-0.653-0.427-1.374-0.925-1.867c-0.796-0.789-4.081-0.7-5.192-0.557l-20.017-0.566c-1.432,0.085-3.864,0.169-5.296,0.254 c-0.229,0.013-0.472,0.032-0.659,0.164c-0.191,0.136-0.288,0.365-0.376,0.582c-1.079,2.671-2.157,5.342-3.236,8.013 c-0.378,0.937-0.762,1.901-0.773,2.911C3.992,42.368,4.01,42.586,4.14,42.74c0.165,0.197,0.451,0.227,0.707,0.244 c0.69,0.044,1.292,0.254,1.982,0.298c1.438,0.202,2.808,0.365,4.26,0.362c8.805-0.019,20.611-0.038,29.416-0.057 c0.882-0.002,1.808-0.014,2.579-0.443S44.354,41.82,43.971,41.025z"/><path fill="#283d5b" d="M35.893,35.716c-0.602-0.285-1.304-0.211-1.965-0.131l-19.186-0.951 c-0.711,0.106-1.45,0.049-2.135,0.266s-1.33,0.841-1.233,1.553c0.131,0.963,1.362,1.259,2.332,1.322 c5.898,0.386,11.806,0.618,17.717,0.697c1.494,0.02,3.039,0.02,4.409-0.577c0.281-0.122,0.564-0.28,0.725-0.54 C36.907,36.79,36.494,36.001,35.893,35.716z"/><path fill="#d6e5e5" d="M33.891,23.158c-0.294-1.069-0.876-2.193-1.928-2.544c-0.332-0.111-0.686-0.135-1.035-0.149 c-3.123-0.128-6.24,0.435-9.366,0.376c-1.769-0.033-3.638-0.246-5.221,0.544c-0.462,0.231-0.891,0.551-1.17,0.984 c-0.29,0.451-0.4,0.99-0.505,1.516c-0.182,0.916-0.365,1.841-0.351,2.775c0.011,0.72,0.138,1.432,0.244,2.143 c0.374,2.516,0.481,6.509,0.318,9.048l18.786,0.563C33.332,33.984,35.069,27.441,33.891,23.158z"/><path fill="#c0e6ed" d="M5.944,14.784c-0.326,0.21-0.751,0.08-0.903-0.277c-0.583-1.367-1.277-2.805-1.816-4.144 c-0.12-0.297-0.242-0.607-0.223-0.927C3.039,8.815,3.578,8.358,4.08,7.99c3.51-2.571,8.411-4.609,12.527-6.019 c0.277-0.095,0.595-0.059,0.82,0.128c1.531,1.27,1.795,3.393,2.29,5.359c0.036,0.145,0.07,0.3,0.02,0.441 c-0.07,0.194-0.276,0.297-0.464,0.382C15.073,10.184,9.828,12.283,5.944,14.784z"/><path fill="#010101" d="M30.104,35.375c-0.275,0-0.499-0.223-0.5-0.499l-0.021-9.125c-0.001-0.275,0.223-0.5,0.499-0.501 h0.001c0.275,0,0.499,0.223,0.5,0.499l0.021,9.125C30.605,35.15,30.382,35.374,30.104,35.375L30.104,35.375z"/><path fill="#010101" d="M26.983,33.562c-0.002,0-0.004,0-0.006,0c-0.275-0.003-0.497-0.229-0.494-0.506l0.055-4.982 c0.001-0.131,0.003-0.267-0.029-0.346c-0.021-0.052-0.052-0.098-0.081-0.144c-0.034-0.054-0.067-0.107-0.097-0.163 c-0.289-0.534-0.257-1.204,0.082-1.708c0.155-0.231,0.469-0.289,0.693-0.137c0.229,0.154,0.291,0.465,0.137,0.693 c-0.13,0.193-0.144,0.472-0.032,0.677l0.063,0.104c0.063,0.099,0.122,0.198,0.165,0.307c0.104,0.263,0.102,0.521,0.1,0.728 l-0.055,4.982C27.48,33.342,27.257,33.562,26.983,33.562z"/><path fill="#010101" d="M44.43,40.83c-0.88-2.4-1.62-4.13-2.49-5.77l-0.24-0.45c-0.29-0.53-0.56-1.03-0.77-1.56 c-0.05-0.13-0.09-0.26-0.14-0.39c-0.2-0.55-0.42-1.18-0.9-1.65c-0.993-0.984-4.293-0.803-5.256-0.725 c0.221-2.604,0.314-5.169-0.261-7.26c-0.295-1.071-0.925-2.442-2.253-2.887c-0.401-0.134-0.815-0.159-1.172-0.174 c-1.674-0.065-3.358,0.06-4.987,0.182c-1.44,0.109-2.936,0.225-4.39,0.194c-0.265-0.005-0.531-0.014-0.798-0.022 c-1.574-0.057-3.198-0.108-4.656,0.619c-0.606,0.303-1.066,0.693-1.368,1.161c-0.344,0.536-0.466,1.148-0.573,1.688 c-0.185,0.928-0.376,1.887-0.361,2.881c0.01,0.639,0.105,1.266,0.198,1.871l0.052,0.338c0.041,0.274,0.076,0.57,0.11,0.871 c-0.706,0.046-1.617,0.084-2.544,0.122c-0.96,0.04-1.91,0.09-2.62,0.13c-0.26,0.01-0.61,0.03-0.92,0.25 c-0.32,0.23-0.45,0.56-0.55,0.8L4.3,39.07c-0.37,0.92-0.79,1.97-0.81,3.09c0,0.25,0.02,0.61,0.27,0.9 c0.31,0.37,0.79,0.41,1.05,0.42c0.33,0.02,0.63,0.08,0.93,0.14c0.34,0.07,0.68,0.14,1.02,0.16c1.27,0.17,2.75,0.36,4.29,0.36h0.04 l29.42-0.05c0.85-0.01,1.91-0.01,2.82-0.51C44.25,43.07,44.95,41.93,44.43,40.83z M34.146,37.836 c-0.022-0.563-0.018-1.154,0.009-1.771c0.603-0.067,1.11-0.092,1.524,0.104c0.22,0.104,0.413,0.329,0.481,0.56 c0.041,0.143,0.032,0.264-0.029,0.362c-0.097,0.154-0.318,0.266-0.5,0.346C35.161,37.641,34.663,37.755,34.146,37.836z M15.156,23.982c0.095-0.476,0.192-0.967,0.434-1.343c0.203-0.314,0.531-0.586,0.975-0.808c1.23-0.614,2.727-0.565,4.175-0.515 c0.272,0.009,0.544,0.019,0.813,0.023c1.497,0.031,3.019-0.086,4.484-0.197c1.602-0.12,3.252-0.246,4.872-0.179 c0.302,0.012,0.619,0.03,0.896,0.123c0.956,0.319,1.415,1.518,1.604,2.203c0.673,2.443,0.354,5.718,0.048,8.884 c-0.202,2.074-0.38,4.031-0.307,5.766c-0.541,0.03-1.104,0.039-1.72,0.03c-5.323-0.071-10.705-0.276-16.028-0.598 c0.115-2.436,0.024-6.146-0.348-8.643l-0.052-0.343c-0.092-0.599-0.178-1.164-0.187-1.734 C14.802,25.765,14.981,24.858,15.156,23.982z M13.737,37.275c-0.529-0.034-1.773-0.19-1.869-0.891 c-0.058-0.43,0.416-0.858,0.89-1.009c0.37-0.117,0.778-0.143,1.21-0.17c0.16-0.01,0.319-0.03,0.479-0.044 c0.001,0.78-0.014,1.508-0.045,2.153C14.181,37.3,13.958,37.29,13.737,37.275z M42.84,42.71c-0.68,0.37-1.56,0.37-2.34,0.38 l-29.41,0.05h-0.04c-1.48,0-2.92-0.18-4.19-0.36c-0.32-0.02-0.62-0.08-0.92-0.14c-0.34-0.06-0.68-0.13-1.06-0.16 c-0.26-0.01-0.34-0.04-0.36-0.06c0,0-0.03-0.05-0.03-0.25c0.01-0.93,0.38-1.84,0.74-2.73l3.24-8.01c0.05-0.13,0.12-0.31,0.2-0.36 C8.74,31.01,8.93,31,9.07,31c0.7-0.05,1.65-0.09,2.6-0.13c0.958-0.039,1.922-0.088,2.6-0.127c0.092,1.096,0.146,2.274,0.167,3.417 c-0.177,0.018-0.354,0.037-0.532,0.048c-0.474,0.03-0.963,0.061-1.45,0.215c-0.887,0.282-1.714,1.093-1.577,2.097 c0.14,1.022,1.132,1.646,2.795,1.754c0.378,0.025,0.759,0.043,1.138,0.067c0.012,0.002,0.022,0.008,0.034,0.009 c0.014,0.001,0.025-0.005,0.038-0.005c5.488,0.339,11.042,0.553,16.532,0.627c0.233,0.003,0.477,0.006,0.727,0.006 c0.479,0,0.986-0.022,1.498-0.069c0.008,0,0.015,0.004,0.023,0.004c0.013,0,0.025,0,0.038-0.001 c0.016-0.001,0.029-0.01,0.045-0.013c0.769-0.077,1.55-0.227,2.284-0.547c0.315-0.137,0.709-0.345,0.951-0.733 c0.212-0.341,0.261-0.757,0.139-1.173c-0.148-0.504-0.536-0.956-1.013-1.182c-0.628-0.297-1.303-0.274-1.897-0.212 c0.063-0.896,0.149-1.823,0.242-2.781c0.032-0.327,0.063-0.655,0.094-0.983c1.53-0.171,4.138-0.075,4.645,0.432 c0.32,0.31,0.48,0.78,0.66,1.27c0.05,0.14,0.1,0.28,0.15,0.42c0.23,0.59,0.53,1.14,0.82,1.67l0.24,0.45 c0.84,1.6,1.57,3.3,2.44,5.67c0.01,0.01,0.01,0.03,0.02,0.04C43.78,41.78,43.38,42.41,42.84,42.71z"/><path fill="#fcbf95" d="M8.063,13.478c0.758,1.093,0.751,1.197,1.129,2.472c0.454,1.534,0.908,3.067,1.362,4.601 c0.19,0.642,0.388,1.3,0.799,1.829c0.904,1.165,2.257,1.985,3.481,2.808c0.708,0.476,1.779,0.804,2.797,1.469 c0.741,0.484,2.267,1.99,2.829,2.673c0.507,0.615,0.813,1.363,1.303,1.992c0.456,0.586,1.581,0.462,1.855-0.4 c0.434-1.364,0.131-2.286-0.378-3.624c-0.508-1.339-1.851-2.927-2.492-4.207c-0.2-0.399-0.381-0.828-0.36-1.274 c0.021-0.446,0.285-1.486,0.721-1.581L8.063,13.478z"/><path fill="#010101" d="M32.103,20.353c-0.189-0.492-2.492-3.59-2.514-3.62c-0.188-0.252-0.557-0.374-1.5-0.593 c-0.151-0.035-0.276-0.063-0.336-0.082c-3.345-1.124-3.806-1.195-6.981-1.505c-0.492-0.048-0.989-0.354-1.37-0.599 c-0.305-0.366-1.082-3.327-1.242-4.628c0.449-0.199,0.89-0.396,1.319-0.591c0.203-0.092,0.581-0.263,0.729-0.667 c0.104-0.292,0.036-0.567-0.005-0.732c-0.075-0.299-0.146-0.603-0.216-0.905c-0.399-1.737-0.813-3.534-2.24-4.718 c-0.35-0.288-0.85-0.373-1.301-0.215C12.72,2.774,7.499,4.866,3.784,7.586C3.387,7.878,2.558,8.485,2.503,9.407 c-0.025,0.436,0.132,0.828,0.258,1.144c0.318,0.789,0.688,1.613,1.06,2.437c0.26,0.576,0.52,1.152,0.761,1.717 c0.131,0.306,0.386,0.536,0.699,0.632c0.106,0.033,0.216,0.049,0.325,0.049c0.213,0,0.425-0.062,0.609-0.18 c0-0.001,0-0.001,0-0.001c0.543-0.349,1.123-0.69,1.718-1.026c0.386,0.585,0.454,0.806,0.698,1.64l1.443,4.875 c0.192,0.648,0.411,1.384,0.883,1.992c0.845,1.089,2.015,1.865,3.147,2.617l0.45,0.3c0.362,0.244,0.795,0.444,1.253,0.656 c0.509,0.236,1.036,0.48,1.549,0.816c0.689,0.45,2.182,1.922,2.718,2.572c0.24,0.291,0.435,0.622,0.64,0.973 c0.197,0.335,0.4,0.682,0.654,1.007c0.276,0.355,0.712,0.555,1.183,0.555c0.099,0,0.198-0.009,0.299-0.026 c0.598-0.106,1.063-0.512,1.245-1.083c0.473-1.487,0.153-2.531-0.387-3.953c-0.313-0.821-0.896-1.697-1.461-2.546 c-0.407-0.611-0.792-1.189-1.052-1.707c-0.169-0.339-0.323-0.697-0.308-1.027c0.012-0.254,0.169-0.5,0.344-0.538 c0.27-0.059,0.44-0.325,0.382-0.595s-0.329-0.439-0.595-0.382c-0.704,0.153-1.102,0.854-1.129,1.467 c-0.027,0.559,0.182,1.062,0.411,1.522c0.287,0.573,0.688,1.177,1.114,1.814c0.534,0.802,1.086,1.631,1.357,2.347 c0.493,1.295,0.753,2.087,0.369,3.295c-0.097,0.304-0.359,0.382-0.468,0.401c-0.211,0.032-0.413-0.024-0.517-0.158 c-0.214-0.273-0.392-0.577-0.581-0.898c-0.216-0.369-0.439-0.751-0.73-1.104c-0.6-0.728-2.157-2.26-2.942-2.773 c-0.573-0.374-1.159-0.646-1.676-0.886c-0.421-0.195-0.818-0.38-1.115-0.579l-0.455-0.303c-1.064-0.707-2.166-1.438-2.91-2.397 c-0.356-0.46-0.538-1.072-0.714-1.663l-1.442-4.873c-0.26-0.886-0.362-1.195-0.782-1.845c2.519-1.353,5.337-2.596,7.905-3.727 c0.172-0.076,0.338-0.149,0.508-0.224c0.244,1.485,0.935,4.582,1.58,5.008c0.528,0.35,1.151,0.729,1.872,0.8 c3.023,0.294,3.412,0.331,6.761,1.456c0.076,0.026,0.234,0.064,0.428,0.109c0.256,0.059,0.854,0.197,0.925,0.217 c0.827,1.104,2.254,3.103,2.382,3.381c0.076,0.198,0.266,0.32,0.467,0.32c0.06,0,0.12-0.011,0.18-0.033 C32.073,20.899,32.201,20.61,32.103,20.353z M16.311,9.049c-2.697,1.188-5.668,2.498-8.304,3.94 c-0.08,0.009-0.159,0.03-0.229,0.078c-0.044,0.03-0.076,0.071-0.107,0.111c-0.693,0.387-1.367,0.78-1.997,1.186 c-0.041,0.024-0.075,0.023-0.101,0.016c-0.022-0.007-0.054-0.024-0.072-0.068c-0.244-0.57-0.506-1.152-0.769-1.735 c-0.365-0.811-0.731-1.622-1.044-2.397c-0.098-0.246-0.199-0.5-0.188-0.712c0.023-0.397,0.435-0.751,0.874-1.074 c3.613-2.646,8.734-4.695,12.395-5.949c0.047-0.016,0.095-0.023,0.141-0.023c0.077,0,0.147,0.021,0.198,0.063 c1.166,0.967,1.524,2.523,1.904,4.172c0.071,0.31,0.143,0.619,0.219,0.924c0.01,0.038,0.035,0.13,0.047,0.127 c-0.021,0.024-0.093,0.064-0.212,0.119C18.187,8.224,17.261,8.631,16.311,9.049z"/><path fill="#febf10" d="M6.984,9.219c-0.44-0.026-0.738-0.035-1.029,0.296s-0.361,0.803-0.342,1.243 c0.004,0.096,0.013,0.195,0.063,0.277c0.055,0.091,0.153,0.147,0.246,0.198c0.438,0.243,0.993,0.484,1.411,0.208 c0.252-0.167,0.366-0.476,0.428-0.772c0.069-0.331,0.085-0.696-0.087-0.987C7.501,9.391,7.322,9.239,6.984,9.219z"/><path fill="#010101" d="M6.984,8.719c-0.08-0.01-0.149-0.003-0.209,0.017C5.971,8.762,5.353,9.171,5.17,10.035 c-0.09,0.426-0.138,0.996,0.152,1.354c0.25,0.308,0.733,0.504,1.106,0.605C8.515,12.556,9.056,8.975,6.984,8.719z M7.243,10.684 c-0.16,0.497-0.533,0.391-0.933,0.19c-0.247-0.124-0.178-0.052-0.199-0.264c-0.014-0.145,0.015-0.316,0.059-0.453 c0.142-0.446,0.403-0.461,0.815-0.439C7.397,9.77,7.33,10.414,7.243,10.684z"/></svg>