<?xml version="1.0"?><svg xmlns="http://www.w3.org/2000/svg" viewBox="0 0 128 128">    <path d="M93.8,93.5h1.7c4.2,0,7.6-3.4,7.6-7.6V44.6c0-4.2-3.4-7.6-7.6-7.6h-1.7h-9.4l-0.2-0.3c-5-7.6-13.1-12.4-22.1-13.2v-9.2 c0-1.7-1.3-3-3-3s-3,1.3-3,3v9.2c-8.9,0.9-17,5.7-22.1,13.2l-0.7,1.1l-7.1,4.2c-0.7,0.4-1.2,1.1-1.4,2s0,1.7,0.5,2.4l7.1,9.9v49.5 v5h0c-1.7,0-3,1.3-3,3s1.3,3,3,3h53.4c1.7,0,3-1.3,3-3s-1.3-3-3-3V43h8h1.7c0.9,0,1.6,0.7,1.6,1.6v41.2c0,0.9-0.7,1.6-1.6,1.6h-1.7 h-1c-1.7,0-3,1.3-3,3s1.3,3,3,3H93.8z M59.2,29.3c6.8,0,13.2,2.8,17.7,7.8H41.4C46,32.1,52.4,29.3,59.2,29.3z M56.2,95H38.5V55.3 v-5c0-1.7-1.3-3-3-3c-0.6,0-1.2,0.2-1.7,0.5l-1.6-2.3l4.1-2.5h19.8V95z M79.8,95H62.2V43h17.7V95z"/></svg>