<svg xmlns="http://www.w3.org/2000/svg" viewBox="0 0 100 100"><path d="M 42.494141 19 C 29.638141 19 19.077422 23.760906 12.482422 27.753906 C 12.237422 27.901906 12.066625 28.148688 12.015625 28.429688 C 11.964625 28.710687 12.036891 29.001563 12.212891 29.226562 L 37.943359 62 L 31 62 C 30.448 62 30 62.447 30 63 L 30 68.654297 C 26.703 69.076297 18.733203 70.541672 16.658203 75.013672 C 15.631203 77.227672 16.145406 79.776891 18.191406 82.587891 C 19.808406 84.811891 21.476203 85.933594 23.158203 85.933594 C 23.440203 85.933594 23.722859 85.902844 24.005859 85.839844 C 29.174859 84.684844 31.883156 72.648875 32.410156 70.046875 L 90.966797 71.998047 C 90.977797 71.999047 90.989 72 91 72 C 91.259 72 91.508312 71.89875 91.695312 71.71875 C 91.890313 71.52975 92 71.271 92 71 C 92 42.327 69.792141 19 42.494141 19 z M 42.494141 21 C 47.144141 21 51.636719 21.716203 55.886719 23.033203 C 55.814719 23.091203 55.752703 23.163813 55.720703 23.257812 L 54.460938 27.052734 C 54.373937 27.314734 54.515344 27.598547 54.777344 27.685547 C 54.829344 27.702547 54.882547 27.710938 54.935547 27.710938 C 55.144547 27.710938 55.340156 27.576188 55.410156 27.367188 L 56.671875 23.572266 C 56.704875 23.472266 56.694969 23.371344 56.667969 23.277344 C 61.027538 24.714581 65.116943 26.798287 68.837891 29.417969 C 68.613006 29.256275 68.301268 29.305793 68.140625 29.529297 L 65.798828 32.771484 C 65.636828 32.995484 65.687156 33.30775 65.910156 33.46875 C 65.998156 33.53275 66.101125 33.564453 66.203125 33.564453 C 66.358125 33.564453 66.511375 33.492422 66.609375 33.357422 L 68.951172 30.115234 C 69.112602 29.892022 69.062808 29.581418 68.841797 29.419922 C 72.505744 31.999969 75.811152 35.098943 78.662109 38.621094 C 78.561109 38.622094 78.461047 38.645938 78.373047 38.710938 L 75.152344 41.085938 C 74.930344 41.249938 74.883828 41.561203 75.048828 41.783203 C 75.146828 41.916203 75.298172 41.986328 75.451172 41.986328 C 75.554172 41.986328 75.657094 41.954672 75.746094 41.888672 L 78.966797 39.515625 C 79.062797 39.445625 79.118484 39.343328 79.146484 39.236328 C 81.951484 42.815328 84.297125 46.808188 86.078125 51.117188 C 86.072125 51.119188 86.066547 51.117141 86.060547 51.119141 L 82.265625 52.384766 C 82.003625 52.472766 81.862219 52.755578 81.949219 53.017578 C 82.019219 53.226578 82.214828 53.359375 82.423828 53.359375 C 82.475828 53.359375 82.527078 53.350984 82.580078 53.333984 L 86.376953 52.068359 C 86.399953 52.060359 86.4165 52.044203 86.4375 52.033203 C 87.7975 55.511203 88.798766 59.182 89.384766 63 L 63.457031 63 C 63.179031 61.952 62.819344 60.94375 62.402344 59.96875 C 62.436344 59.97575 62.465 60 62.5 60 C 62.552 60 62.605203 59.991609 62.658203 59.974609 L 66.453125 58.710938 C 66.715125 58.622937 66.856531 58.338172 66.769531 58.076172 C 66.682531 57.815172 66.400719 57.673719 66.136719 57.761719 L 62.341797 59.025391 C 62.226797 59.064391 62.139078 59.144234 62.080078 59.240234 C 61.236078 57.443234 60.162297 55.794547 58.904297 54.310547 L 62.064453 51.978516 C 62.286453 51.814516 62.334922 51.501297 62.169922 51.279297 C 62.004922 51.057297 61.692703 51.009781 61.470703 51.175781 L 58.251953 53.548828 C 58.250953 53.549828 58.249047 53.550781 58.248047 53.550781 C 57.095047 52.307781 55.799391 51.208813 54.400391 50.257812 L 56.654297 47.138672 C 56.816297 46.914672 56.765969 46.600453 56.542969 46.439453 C 56.317969 46.277453 56.006703 46.329734 55.845703 46.552734 L 53.560547 49.714844 C 52.034547 48.774844 50.393016 48.014937 48.666016 47.460938 C 48.712016 47.410938 48.764109 47.365875 48.787109 47.296875 L 50.048828 43.501953 C 50.135828 43.239953 49.994422 42.956141 49.732422 42.869141 C 49.471422 42.782141 49.186609 42.923547 49.099609 43.185547 L 47.839844 46.982422 C 47.814844 47.058422 47.812266 47.133031 47.822266 47.207031 C 46.156266 46.744031 44.421625 46.475156 42.640625 46.410156 C 42.730625 46.316156 42.784297 46.190781 42.779297 46.050781 L 42.658203 42.052734 C 42.650203 41.776734 42.404578 41.575406 42.142578 41.566406 C 41.866578 41.575406 41.650203 41.806031 41.658203 42.082031 L 41.779297 46.080078 C 41.782297 46.196078 41.831391 46.297859 41.900391 46.380859 C 41.873391 46.380859 41.849266 46.376953 41.822266 46.376953 C 39.996266 46.376953 38.266422 46.579797 36.607422 46.966797 L 35.15625 43.255859 C 35.05525 42.998859 34.765812 42.869703 34.507812 42.970703 C 34.250813 43.071703 34.124609 43.362141 34.224609 43.619141 L 35.630859 47.214844 C 33.876859 47.714844 32.207516 48.450109 30.603516 49.412109 L 14.490234 28.886719 C 17.771234 26.981719 21.939734 24.967219 26.802734 23.449219 C 26.586734 23.568219 26.482219 23.8265 26.574219 24.0625 L 28.03125 27.787109 C 28.10825 27.984109 28.296094 28.105469 28.496094 28.105469 C 28.557094 28.105469 28.619688 28.093312 28.679688 28.070312 C 28.936688 27.969313 29.062891 27.680828 28.962891 27.423828 L 27.505859 23.697266 C 27.424859 23.489266 27.219766 23.375672 27.009766 23.388672 C 31.208766 22.094672 35.921297 21.183203 41.029297 21.033203 C 41.027297 21.054203 41.018531 21.07275 41.019531 21.09375 L 41.140625 25.091797 C 41.148625 25.362797 41.370625 25.576172 41.640625 25.576172 L 41.65625 25.576172 C 41.93225 25.567172 42.150578 25.336547 42.142578 25.060547 L 42.019531 21.0625 C 42.019531 21.0435 42.010813 21.029719 42.007812 21.011719 C 42.169812 21.008719 42.329141 21 42.494141 21 z M 41.716797 27.572266 C 41.440797 27.581266 41.222469 27.811891 41.230469 28.087891 L 41.353516 32.085938 C 41.361516 32.356938 41.582562 32.570312 41.851562 32.570312 L 41.867188 32.570312 C 42.143188 32.561312 42.361516 32.332641 42.353516 32.056641 L 42.230469 28.058594 C 42.222469 27.782594 41.981797 27.579266 41.716797 27.572266 z M 53.949219 29.560547 C 53.755156 29.576344 53.578922 29.703891 53.513672 29.900391 L 52.253906 33.695312 C 52.166906 33.957312 52.306359 34.241125 52.568359 34.328125 C 52.620359 34.345125 52.673562 34.353516 52.726562 34.353516 C 52.935563 34.353516 53.131172 34.220719 53.201172 34.011719 L 54.462891 30.214844 C 54.549891 29.952844 54.408484 29.669031 54.146484 29.582031 C 54.081234 29.560781 54.013906 29.555281 53.949219 29.560547 z M 29.603516 29.898438 C 29.538563 29.896578 29.47075 29.908594 29.40625 29.933594 C 29.14925 30.034594 29.023047 30.323078 29.123047 30.580078 L 30.580078 34.306641 C 30.658078 34.503641 30.847875 34.623047 31.046875 34.623047 C 31.107875 34.623047 31.169516 34.612844 31.228516 34.589844 C 31.485516 34.488844 31.611719 34.198406 31.511719 33.941406 L 30.054688 30.216797 C 29.978938 30.024047 29.798375 29.904016 29.603516 29.898438 z M 41.929688 34.570312 C 41.653687 34.579313 41.435359 34.809937 41.443359 35.085938 L 41.566406 39.083984 C 41.574406 39.354984 41.796406 39.568359 42.066406 39.568359 L 42.082031 39.568359 C 42.358031 39.559359 42.574406 39.330688 42.566406 39.054688 L 42.445312 35.054688 C 42.436312 34.777687 42.180687 34.566313 41.929688 34.570312 z M 64.367188 35.001953 C 64.240937 35.022203 64.123469 35.091125 64.042969 35.203125 L 61.699219 38.445312 C 61.537219 38.669312 61.5895 38.983531 61.8125 39.144531 C 61.9005 39.208531 62.001516 39.238281 62.103516 39.238281 C 62.258516 39.238281 62.411766 39.16625 62.509766 39.03125 L 64.851562 35.789062 C 65.013563 35.565063 64.963234 35.252797 64.740234 35.091797 C 64.627734 35.010797 64.493438 34.981703 64.367188 35.001953 z M 51.742188 36.203125 C 51.548125 36.218922 51.371891 36.346469 51.306641 36.542969 L 50.046875 40.339844 C 49.958875 40.601844 50.099328 40.883703 50.361328 40.970703 C 50.413328 40.987703 50.466531 40.996094 50.519531 40.996094 C 50.728531 40.996094 50.924141 40.863297 50.994141 40.654297 L 52.255859 36.857422 C 52.342859 36.595422 52.201453 36.313562 51.939453 36.226562 C 51.874203 36.205312 51.806875 36.197859 51.742188 36.203125 z M 32.152344 36.417969 C 32.087484 36.416109 32.021031 36.426172 31.957031 36.451172 C 31.700031 36.552172 31.573828 36.842609 31.673828 37.099609 L 33.130859 40.824219 C 33.207859 41.021219 33.397656 41.142578 33.597656 41.142578 C 33.658656 41.142578 33.720297 41.132375 33.779297 41.109375 C 34.036297 41.008375 34.1625 40.717937 34.0625 40.460938 L 32.605469 36.736328 C 32.529719 36.543578 32.346922 36.423547 32.152344 36.417969 z M 60.267578 40.677734 C 60.141328 40.698109 60.023859 40.766906 59.943359 40.878906 L 57.601562 44.119141 C 57.439563 44.343141 57.489891 44.657359 57.712891 44.818359 C 57.801891 44.882359 57.904859 44.912109 58.005859 44.912109 C 58.160859 44.912109 58.312156 44.840078 58.410156 44.705078 L 60.753906 41.464844 C 60.915906 41.240844 60.863625 40.926625 60.640625 40.765625 C 60.528125 40.684125 60.393828 40.657359 60.267578 40.677734 z M 73.107422 42.773438 C 72.980922 42.754312 72.847328 42.782734 72.736328 42.865234 L 69.517578 45.240234 C 69.295578 45.404234 69.247109 45.717453 69.412109 45.939453 C 69.511109 46.071453 69.663406 46.142578 69.816406 46.142578 C 69.919406 46.142578 70.022328 46.110922 70.111328 46.044922 L 73.330078 43.669922 C 73.552078 43.505922 73.600547 43.192703 73.435547 42.970703 C 73.353547 42.859703 73.233922 42.792563 73.107422 42.773438 z M 67.474609 46.927734 C 67.348359 46.908734 67.215016 46.937531 67.103516 47.019531 L 63.884766 49.394531 C 63.662766 49.558531 63.614297 49.87175 63.779297 50.09375 C 63.877297 50.22775 64.030594 50.296875 64.183594 50.296875 C 64.286594 50.296875 64.389516 50.265219 64.478516 50.199219 L 67.697266 47.824219 C 67.919266 47.660219 67.967734 47.347 67.802734 47.125 C 67.720234 47.014 67.600859 46.946734 67.474609 46.927734 z M 41.820312 47.376953 C 51.428313 47.376953 59.838109 53.785 62.412109 63 L 40.990234 63 C 40.990234 62.78 40.926156 62.561812 40.785156 62.382812 L 31.224609 50.203125 C 34.423609 48.310125 37.899313 47.376953 41.820312 47.376953 z M 79.615234 53.308594 C 79.550547 53.303594 79.483219 53.310281 79.417969 53.332031 L 75.623047 54.599609 C 75.361047 54.687609 75.221594 54.970422 75.308594 55.232422 C 75.377594 55.441422 75.57125 55.572266 75.78125 55.572266 C 75.83325 55.572266 75.887453 55.565828 75.939453 55.548828 L 79.734375 54.28125 C 79.996375 54.19325 80.137781 53.910437 80.050781 53.648438 C 79.985531 53.451188 79.809297 53.323594 79.615234 53.308594 z M 72.974609 55.523438 C 72.909734 55.518234 72.843594 55.524875 72.777344 55.546875 L 68.982422 56.8125 C 68.720422 56.9005 68.579016 57.183312 68.666016 57.445312 C 68.736016 57.654313 68.931625 57.787109 69.140625 57.787109 C 69.192625 57.787109 69.245828 57.778719 69.298828 57.761719 L 73.09375 56.496094 C 73.35575 56.408094 73.495203 56.125281 73.408203 55.863281 C 73.342953 55.667531 73.169234 55.539047 72.974609 55.523438 z M 32 64 L 37.5 64 L 40 64 L 89.521484 64 C 89.783484 65.956 89.951234 67.944797 89.990234 69.966797 L 32 68.033203 L 32 64 z M 30.242188 70.634766 C 29.062188 75.900766 26.477359 83.236719 23.568359 83.886719 C 22.448359 84.138719 21.185594 83.304109 19.808594 81.412109 C 18.223594 79.231109 17.772703 77.361469 18.470703 75.855469 C 19.989703 72.580469 26.586187 71.099766 30.242188 70.634766 z"/></svg>