<svg xmlns="http://www.w3.org/2000/svg" viewBox="0 0 40 40"><path fill="#98ccfd" d="M20,23.002c-6.363,0-11.541-3.935-11.541-8.771S13.637,5.459,20,5.459s11.541,3.935,11.541,8.771 S26.363,23.002,20,23.002z"/><path fill="#4788c7" d="M20,5.919c6.11,0,11.081,3.729,11.081,8.312c0,4.583-4.971,8.312-11.081,8.312 S8.919,18.814,8.919,14.231C8.919,9.648,13.89,5.919,20,5.919 M20,5C13.373,5,8,9.133,8,14.231c0,5.098,5.373,9.231,12,9.231 s12-4.133,12-9.231C32,9.133,26.627,5,20,5L20,5z"/><path fill="#fff" d="M20,38.5c-1.269,0-2.446-0.527-3.315-1.483L16.6,36.924l-0.117-0.042 C12.306,35.396,9.5,31.424,9.5,27V14.5h21V27c0,4.424-2.806,8.396-6.982,9.882L23.4,36.924l-0.085,0.093 C22.446,37.973,21.269,38.5,20,38.5z"/><path fill="#4788c7" d="M30,15v12c0,4.213-2.672,7.995-6.65,9.412l-0.236,0.084l-0.168,0.185 C22.171,37.531,21.125,38,20,38s-2.171-0.469-2.946-1.319l-0.168-0.185l-0.236-0.084C12.672,34.995,10,31.213,10,27V15H30 M31,14 H9v13c0,4.78,3.055,8.837,7.315,10.354C17.229,38.358,18.534,39,20,39s2.771-0.642,3.685-1.646C27.945,35.837,31,31.78,31,27V14 L31,14z"/><path fill="#b6dcfe" d="M32,37.5c-2.786,0-5.358-1-6.594-1.566c1.599-1.12,5.094-4.142,5.094-9.148v-4.905 c0-2.916-2.482-6.25-3.602-7.605c0.647-0.051,1.26-0.091,1.816-0.091c2.071,0,3.785,0.362,3.785,4.815 c0,10.231,4.284,14.787,5.746,16.042C37.402,35.81,35.184,37.5,32,37.5z M9,37.5c-3.726,0-6.265-1.708-7.22-2.48 C3.267,33.732,7.5,29.171,7.5,19c0-3.923,3.069-4.727,7.678-4.727c1.206,0,2.458,0.054,3.782,0.111 C20.291,14.441,21.668,14.5,23,14.5c0.679,0,1.344-0.031,1.978-0.074c-1.123,1.158-3.872,3.398-8.796,4.078 c-3.218,0.444-6.682,2.73-6.682,6.699v1.582c0,5.073,3.832,8.21,5.623,9.399C13.783,36.679,11.221,37.5,9,37.5z"/><path fill="#4788c7" d="M28.715,14.685c1.984,0,3.285,0.3,3.285,4.315c0,9.551,3.703,14.294,5.497,16.031 C36.516,35.818,34.609,37,32,37c-2.202,0-4.273-0.65-5.606-1.186C28.211,34.353,31,31.364,31,26.786v-4.904 c0-2.613-1.858-5.505-3.122-7.171C28.17,14.695,28.45,14.685,28.715,14.685 M15.178,14.773c1.195,0,2.441,0.054,3.76,0.111 C20.275,14.941,21.657,15,23,15c0.212,0,0.423-0.003,0.631-0.008c-1.391,1.114-3.798,2.504-7.518,3.017 C12.687,18.483,9,20.936,9,25.204v1.582c0,4.629,3.036,7.711,5.049,9.246C12.674,36.484,10.727,37,9,37 c-3.081,0-5.313-1.221-6.444-2.02C4.368,33.202,8,28.459,8,19c0-1.7,0.564-2.746,1.83-3.39 C10.966,15.031,12.615,14.773,15.178,14.773 M28.715,13.685C27.114,13.685,25.156,14,23,14c-2.607,0-5.355-0.228-7.822-0.228 C10.61,13.773,7,14.552,7,19c0,11.947-6,16-6,16s2.925,3,8,3c3.303,0,7.246-1.719,7.246-1.719S10,33.035,10,26.786 c0-0.896,0-1.303,0-1.582c0-3.678,3.242-5.788,6.25-6.204c7.038-0.972,9.75-5,9.75-5s4,4.35,4,7.882c0,1.527,0,2.397,0,4.904 c0,6.13-5.607,9.202-5.607,9.202S27.945,38,32,38c4.392,0,7-3,7-3s-6-4.053-6-16C33,14.532,31.337,13.685,28.715,13.685 L28.715,13.685z"/><path fill="#4788c7" d="M25.5 22A1.5 1.5 0 1 0 25.5 25 1.5 1.5 0 1 0 25.5 22zM14.5 22A1.5 1.5 0 1 0 14.5 25 1.5 1.5 0 1 0 14.5 22z"/><path fill="#b6dcfe" d="M32.552,19.312C30.944,18.782,26.396,17.5,20,17.5S9.056,18.782,7.448,19.312L6.577,7.986 l5.486,3.658l7.912-7.912l6.917,7.906l6.536-3.735L32.552,19.312z"/><path fill="#4788c7" d="M19.951,4.463l6.296,7.196l0.539,0.616l0.71-0.406l5.362-3.064l-0.757,9.843 C30.085,18.041,25.782,17,20,17S9.915,18.041,7.899,18.647L7.155,8.972l4.291,2.86l0.682,0.455l0.58-0.58L19.951,4.463 M20,3l-8,8 L6,7l1,13c0,0,5.112-2,13-2s13,2,13,2l1-13l-7,4L20,3L20,3z"/><g><path fill="#dff0fe" d="M20 1.5A2.5 2.5 0 1 0 20 6.5A2.5 2.5 0 1 0 20 1.5Z"/><path fill="#4788c7" d="M20,2c1.103,0,2,0.897,2,2s-0.897,2-2,2s-2-0.897-2-2S18.897,2,20,2 M20,1c-1.657,0-3,1.343-3,3 s1.343,3,3,3s3-1.343,3-3S21.657,1,20,1L20,1z"/></g><g><path fill="#dff0fe" d="M33 5.5A2.5 2.5 0 1 0 33 10.5A2.5 2.5 0 1 0 33 5.5Z"/><path fill="#4788c7" d="M33,6c1.103,0,2,0.897,2,2s-0.897,2-2,2s-2-0.897-2-2S31.897,6,33,6 M33,5c-1.657,0-3,1.343-3,3 c0,1.657,1.343,3,3,3s3-1.343,3-3C36,6.343,34.657,5,33,5L33,5z"/></g><g><path fill="#dff0fe" d="M7 5.5A2.5 2.5 0 1 0 7 10.5A2.5 2.5 0 1 0 7 5.5Z"/><path fill="#4788c7" d="M7,6c1.103,0,2,0.897,2,2s-0.897,2-2,2S5,9.103,5,8S5.897,6,7,6 M7,5C5.343,5,4,6.343,4,8 c0,1.657,1.343,3,3,3s3-1.343,3-3C10,6.343,8.657,5,7,5L7,5z"/></g></svg>