<svg xmlns="http://www.w3.org/2000/svg" viewBox="0 0 64 64"><linearGradient id="m8JGvQItPgxsE3EFX42fPa" x1="32" x2="32" y1="7.333" y2="56.954" gradientUnits="userSpaceOnUse" spreadMethod="reflect"><stop offset="0" stop-color="#1a6dff"/><stop offset="1" stop-color="#c822ff"/></linearGradient><path fill="url(#m8JGvQItPgxsE3EFX42fPa)" d="M51,56H13c-2.757,0-5-2.243-5-5V13c0-2.757,2.243-5,5-5h38c2.757,0,5,2.243,5,5v38 C56,53.757,53.757,56,51,56z M13,10c-1.654,0-3,1.346-3,3v38c0,1.654,1.346,3,3,3h38c1.654,0,3-1.346,3-3V13c0-1.654-1.346-3-3-3H13 z"/><linearGradient id="m8JGvQItPgxsE3EFX42fPb" x1="32" x2="32" y1="7.333" y2="56.954" gradientUnits="userSpaceOnUse" spreadMethod="reflect"><stop offset="0" stop-color="#1a6dff"/><stop offset="1" stop-color="#c822ff"/></linearGradient><path fill="url(#m8JGvQItPgxsE3EFX42fPb)" d="M50,52H14c-1.103,0-2-0.897-2-2V14c0-1.103,0.897-2,2-2h36c1.103,0,2,0.897,2,2v36 C52,51.103,51.103,52,50,52z M50,13.998L14,14v36h36V13.998z"/><linearGradient id="m8JGvQItPgxsE3EFX42fPc" x1="32" x2="32" y1="20.667" y2="43.355" gradientUnits="userSpaceOnUse" spreadMethod="reflect"><stop offset="0" stop-color="#6dc7ff"/><stop offset="1" stop-color="#e6abff"/></linearGradient><path fill="url(#m8JGvQItPgxsE3EFX42fPc)" d="M38.816,42.997c-0.545,0-1.087-0.14-1.567-0.418l-13.714-7.894 C22.573,34.129,22,33.134,22,32.022c0-1.129,0.583-2.141,1.56-2.708l13.677-7.895c0.971-0.563,2.194-0.559,3.193,0.019 c0.983,0.566,1.57,1.563,1.57,2.667v15.788c0,1.106-0.587,2.104-1.569,2.671C39.931,42.853,39.372,42.997,38.816,42.997z M38.806,22.999c-0.198,0-0.393,0.051-0.568,0.152l-13.676,7.895C24.211,31.249,24,31.614,24,32.021 c0,0.188,0.053,0.652,0.535,0.933l13.714,7.894c0.36,0.209,0.803,0.201,1.184-0.017C39.603,40.733,40,40.444,40,39.894V24.105 c0-0.547-0.398-0.836-0.569-0.935C39.232,23.057,39.018,22.999,38.806,22.999z"/></svg>