<svg xmlns="http://www.w3.org/2000/svg" viewBox="0 0 40 40"><path fill="#b6dcfe" d="M21,38.5c-5.79,0-10.5-4.71-10.5-10.5S15.21,17.5,21,17.5c2.096,0,4.12,0.616,5.853,1.782 l0.342,0.229l6.012-6.012H26.5v-3h12v12h-3v-6.707l-6.012,6.012l0.229,0.342C30.884,23.88,31.5,25.904,31.5,28 C31.5,33.79,26.79,38.5,21,38.5z M21,21.5c-3.584,0-6.5,2.916-6.5,6.5s2.916,6.5,6.5,6.5s6.5-2.916,6.5-6.5S24.584,21.5,21,21.5z"/><path fill="#4788c7" d="M38,11v11h-2v-4.999v-2.414l-1.707,1.707l-4.867,4.868l-0.582,0.582l0.46,0.683 C30.413,24.077,31,26.004,31,28c0,5.514-4.486,10-10,10s-10-4.486-10-10s4.486-10,10-10c1.996,0,3.923,0.587,5.574,1.697 l0.683,0.46l0.582-0.582l4.867-4.867L34.414,13h-2.414H27v-2H38 M21,35c3.86,0,7-3.14,7-7s-3.14-7-7-7s-7,3.14-7,7S17.14,35,21,35 M39,10H26v4h5.999l-4.867,4.867C25.38,17.689,23.27,17,21,17c-6.075,0-11,4.925-11,11c0,6.075,4.925,11,11,11 c6.075,0,11-4.925,11-11c0-2.271-0.689-4.38-1.867-6.132L35,17.001V23h4V10L39,10z M21,34c-3.314,0-6-2.686-6-6 c0-3.314,2.686-6,6-6s6,2.686,6,6C27,31.314,24.314,34,21,34L21,34z"/><path fill="#4788c7" d="M15 28c0-3.314 2.686-6 6-6 1.623 0 3.093.647 4.173 1.694C25.699 22.224 26 20.648 26 19c0-.296-.013-.591-.031-.885C24.516 17.408 22.891 17 21.167 17c-6.075 0-11 4.925-11 11 0 1.79.437 3.474 1.195 4.968C11.575 32.977 11.784 33 12 33c1.648 0 3.224-.301 4.694-.827C15.647 31.093 15 29.623 15 28zM26 10H33V13H26z"/><g><path fill="#b6dcfe" d="M12,29.5C6.21,29.5,1.5,24.79,1.5,19S6.21,8.5,12,8.5c2.096,0,4.12,0.616,5.853,1.782l0.342,0.229 L24.206,4.5H17.5v-3h12v12h-3V6.793l-6.012,6.012l0.229,0.342C21.884,14.88,22.5,16.904,22.5,19C22.5,24.79,17.79,29.5,12,29.5z M12,12.5c-3.584,0-6.5,2.916-6.5,6.5s2.916,6.5,6.5,6.5s6.5-2.916,6.5-6.5S15.584,12.5,12,12.5z"/><path fill="#4788c7" d="M29,2v11h-2V8.001V5.586l-1.707,1.707l-4.867,4.868l-0.582,0.582l0.46,0.683 C21.413,15.077,22,17.004,22,19c0,5.514-4.486,10-10,10S2,24.514,2,19S6.486,9,12,9c1.996,0,3.923,0.587,5.574,1.697l0.683,0.46 l0.582-0.582l4.867-4.867L25.414,4h-2.414H18V2H29 M12,26c3.86,0,7-3.14,7-7s-3.14-7-7-7s-7,3.14-7,7S8.14,26,12,26 M30,1H17v4 h5.999l-4.867,4.867C16.38,8.689,14.27,8,12,8C5.925,8,1,12.925,1,19c0,6.075,4.925,11,11,11c6.075,0,11-4.925,11-11 c0-2.271-0.689-4.38-1.867-6.132L26,8.001V14h4V1L30,1z M12,25c-3.314,0-6-2.686-6-6c0-3.314,2.686-6,6-6s6,2.686,6,6 C18,22.314,15.314,25,12,25L12,25z"/></g></svg>