<?xml version="1.0"?><svg xmlns="http://www.w3.org/2000/svg" viewBox="0 0 64 64">    <path d="M 32 4 C 29.8 4 26.649453 4.6897656 24.689453 6.0097656 C 20.969453 6.1397656 18.42 8.7603906 18 12.900391 C 17.75 15.460391 17.980625 17.29 18.140625 18.5 C 18.190625 18.92 18.250469 19.399062 18.230469 19.539062 L 18.140625 20.109375 C 17.980625 20.109375 17.830937 20.139922 17.710938 20.169922 C 16.050937 20.609922 15.359609 23.019297 16.099609 25.779297 C 16.639609 27.769297 17.760234 29.270469 18.990234 29.730469 C 19.590234 31.560469 20.449531 33.369297 21.519531 35.029297 L 8.25 41.380859 C 4.46 43.200859 2 47.090781 2 51.300781 L 2 59 C 2 60.65 3.35 62 5 62 L 59 62 C 60.65 62 62 60.65 62 59 L 62 51.300781 C 62 47.090781 59.54 43.200859 55.75 41.380859 L 42.480469 35.029297 C 43.550469 33.369297 44.409766 31.560469 45.009766 29.730469 C 46.239766 29.270469 47.360391 27.769297 47.900391 25.779297 C 48.100391 25.029297 48.199219 24.310391 48.199219 23.650391 C 48.199219 21.860391 47.499063 20.489922 46.289062 20.169922 C 46.169063 20.139922 46.029375 20.109375 45.859375 20.109375 C 45.719375 19.029375 45.449453 18.039922 44.939453 16.669922 C 44.929453 16.629922 44.920156 16.590547 44.910156 16.560547 C 45.260156 16.590547 45.819063 16.729922 46.289062 16.919922 C 46.629063 17.069922 47.030547 17.009531 47.310547 16.769531 C 47.600547 16.529531 47.730391 16.149063 47.650391 15.789062 C 46.030391 8.4090625 40.56 4 33 4 L 32 4 z M 32 6 L 33 6 C 39.07 6 43.45 9.1000781 45.25 14.580078 C 44.56 14.510078 43.849609 14.590547 43.349609 15.060547 C 42.969609 15.430547 42.610312 16.119375 43.070312 17.359375 C 43.680312 19.039375 43.900703 20.029688 43.970703 21.429688 C 43.990703 21.789687 44.189766 22.109297 44.509766 22.279297 C 44.829766 22.439297 45.209766 22.420703 45.509766 22.220703 C 45.679766 22.120703 45.759297 22.109609 45.779297 22.099609 L 45.789062 22.099609 C 46.029063 22.219609 46.450703 23.439766 45.970703 25.259766 C 45.720703 26.179766 45.359531 26.839766 45.019531 27.259766 C 44.689531 27.679766 44.380469 27.880859 44.230469 27.880859 C 43.790469 27.880859 43.399531 28.169609 43.269531 28.599609 C 42.699531 30.519609 41.809688 32.459922 40.679688 34.169922 C 40.309688 34.749922 39.910703 35.300547 39.470703 35.810547 C 37.430703 38.290547 34.83 40 32 40 C 29.17 40 26.569297 38.290547 24.529297 35.810547 C 24.089297 35.300547 23.690313 34.749922 23.320312 34.169922 C 22.190313 32.459922 21.300469 30.519609 20.730469 28.599609 C 20.600469 28.169609 20.209531 27.880859 19.769531 27.880859 C 19.469531 27.880859 18.529297 27.099766 18.029297 25.259766 C 17.859297 24.639766 17.800781 24.100625 17.800781 23.640625 C 17.800781 22.710625 18.060938 22.149609 18.210938 22.099609 C 18.220938 22.099609 18.300234 22.110703 18.490234 22.220703 C 18.790234 22.420703 19.170234 22.439297 19.490234 22.279297 C 19.810234 22.109297 20.009297 21.789688 20.029297 21.429688 C 20.049297 20.909688 20.109219 20.390625 20.199219 19.890625 C 20.279219 19.460625 20.209141 18.98 20.119141 18.25 C 19.979141 17.13 19.76 15.429609 20 13.099609 C 20.31 9.9096094 22.189531 8 25.019531 8 C 25.229531 8 25.439141 7.9307812 25.619141 7.8007812 C 26.989141 6.7707812 29.73 6 32 6 z M 26.527344 12.125 C 25.813859 12.0635 25.094891 12.388625 24.681641 13.015625 L 23.078125 15.449219 C 22.774125 15.910219 22.902281 16.531937 23.363281 16.835938 C 23.533281 16.947937 23.723109 17 23.912109 17 C 24.237109 17 24.556047 16.842781 24.748047 16.550781 L 26.351562 14.117188 L 27.914062 14.878906 C 30.763063 16.266906 33.945281 17 37.113281 17 L 39.667969 17 C 40.219969 17 40.667969 16.552 40.667969 16 C 40.667969 15.448 40.219969 15 39.667969 15 L 37.113281 15 C 34.247281 15 31.369016 14.335078 28.791016 13.080078 L 27.228516 12.318359 C 27.003516 12.208859 26.765172 12.1455 26.527344 12.125 z M 22.699219 36.689453 C 25.149219 39.799453 28.41 42 32 42 C 35.59 42 38.850781 39.799453 41.300781 36.689453 L 43.839844 37.904297 C 41.737844 40.043297 38.601547 42.176609 35.935547 43.224609 C 34.759547 43.686609 34 44.782625 34 46.015625 L 34 48 L 30 48 L 30 46.015625 C 30 44.782625 29.240453 43.686609 28.064453 43.224609 C 25.398453 42.176609 22.262156 40.043297 20.160156 37.904297 L 22.699219 36.689453 z M 18.275391 38.804688 C 20.558391 41.296687 24.231031 43.867891 27.332031 45.087891 C 27.738031 45.246891 28 45.610625 28 46.015625 L 28 49 C 28 49.552 28.448 50 29 50 L 35 50 C 35.552 50 36 49.552 36 49 L 36 46.015625 C 36 45.610625 36.262969 45.244938 36.667969 45.085938 C 39.769969 43.866937 43.442609 41.297687 45.724609 38.804688 L 54.878906 43.179688 C 57.989906 44.670687 60 47.860781 60 51.300781 L 60 59 C 60 59.55 59.55 60 59 60 L 5 60 C 4.45 60 4 59.55 4 59 L 4 51.300781 C 4 47.860781 6.0091406 44.669687 9.1191406 43.179688 L 18.275391 38.804688 z M 7 54 C 6.448 54 6 54.448 6 55 L 6 57 C 6 57.552 6.448 58 7 58 C 7.552 58 8 57.552 8 57 L 8 55 C 8 54.448 7.552 54 7 54 z M 12 54 C 11.448 54 11 54.448 11 55 L 11 57 C 11 57.552 11.448 58 12 58 C 12.552 58 13 57.552 13 57 L 13 55 C 13 54.448 12.552 54 12 54 z M 17 54 C 16.448 54 16 54.448 16 55 L 16 57 C 16 57.552 16.448 58 17 58 C 17.552 58 18 57.552 18 57 L 18 55 C 18 54.448 17.552 54 17 54 z M 22 54 C 21.448 54 21 54.448 21 55 L 21 57 C 21 57.552 21.448 58 22 58 C 22.552 58 23 57.552 23 57 L 23 55 C 23 54.448 22.552 54 22 54 z M 27 54 C 26.448 54 26 54.448 26 55 L 26 57 C 26 57.552 26.448 58 27 58 C 27.552 58 28 57.552 28 57 L 28 55 C 28 54.448 27.552 54 27 54 z M 32 54 C 31.448 54 31 54.448 31 55 L 31 57 C 31 57.552 31.448 58 32 58 C 32.552 58 33 57.552 33 57 L 33 55 C 33 54.448 32.552 54 32 54 z M 37 54 C 36.448 54 36 54.448 36 55 L 36 57 C 36 57.552 36.448 58 37 58 C 37.552 58 38 57.552 38 57 L 38 55 C 38 54.448 37.552 54 37 54 z M 42 54 C 41.448 54 41 54.448 41 55 L 41 57 C 41 57.552 41.448 58 42 58 C 42.552 58 43 57.552 43 57 L 43 55 C 43 54.448 42.552 54 42 54 z M 47 54 C 46.448 54 46 54.448 46 55 L 46 57 C 46 57.552 46.448 58 47 58 C 47.552 58 48 57.552 48 57 L 48 55 C 48 54.448 47.552 54 47 54 z M 52 54 C 51.448 54 51 54.448 51 55 L 51 57 C 51 57.552 51.448 58 52 58 C 52.552 58 53 57.552 53 57 L 53 55 C 53 54.448 52.552 54 52 54 z M 57 54 C 56.448 54 56 54.448 56 55 L 56 57 C 56 57.552 56.448 58 57 58 C 57.552 58 58 57.552 58 57 L 58 55 C 58 54.448 57.552 54 57 54 z"/></svg>