<svg xmlns="http://www.w3.org/2000/svg" viewBox="0 0 16 16"><path d="M 5 0 L 5 2.617188 C 3.597656 3.273438 2.644531 4.398438 2.054688 5.710938 C 1.121094 7.8125 1 10.367188 1 12.5 C 1 12.777344 1.222656 13 1.5 13 L 5.851563 13 C 6.507813 13.636719 7.261719 14 8 14 C 8.707031 14 9.515625 13.667969 10.226563 13 L 14.5 13 C 14.777344 13 15 12.777344 15 12.5 C 15 10.367188 14.878906 7.8125 13.941406 5.710938 C 13.355469 4.398438 12.402344 3.273438 11 2.617188 L 11 0 L 9.5 2 L 8 0 L 6.6875 2 Z M 5 3.71875 L 5 4 L 11 4 L 11 3.71875 C 11.941406 4.269531 12.574219 5.105469 13.03125 6.121094 C 13.789063 7.828125 13.949219 10.023438 13.972656 12 L 11.023438 12 C 11.601563 11.046875 12 9.742188 12 8 L 12 6 L 9 6 C 7.34375 6 6.597656 5.640625 6.277344 5.367188 C 6.117188 5.234375 6.054688 5.117188 6.023438 5.042969 C 5.992188 4.96875 6 4.984375 6 4.984375 L 5 5.015625 C 5 5.015625 5.011719 5.21875 5.097656 5.425781 C 5.183594 5.632813 5.347656 5.890625 5.632813 6.132813 C 6.195313 6.609375 7.199219 7 9 7 L 11 7 L 11 8 C 11 11.882813 8.972656 13 8 13 C 7.488281 13 6.71875 12.617188 6.101563 11.78125 C 5.480469 10.945313 5 9.675781 5 8 L 4 8 C 4 9.660156 4.4375 10.996094 5.066406 12 L 2.027344 12 C 2.050781 10.023438 2.210938 7.828125 2.96875 6.121094 C 3.425781 5.105469 4.058594 4.269531 5 3.71875 Z M 6.5 8 C 6.222656 8 6 8.222656 6 8.5 C 6 8.777344 6.222656 9 6.5 9 C 6.777344 9 7 8.777344 7 8.5 C 7 8.222656 6.777344 8 6.5 8 Z M 9.5 8 C 9.222656 8 9 8.222656 9 8.5 C 9 8.777344 9.222656 9 9.5 9 C 9.777344 9 10 8.777344 10 8.5 C 10 8.222656 9.777344 8 9.5 8 Z"/></svg>