<svg xmlns="http://www.w3.org/2000/svg" viewBox="0 0 48 48"><path fill="#4b7bb2" d="M34.417,35.5c-1.005-0.048-2.02,0.088-3.025,0.041c-0.147-0.007-0.301-0.016-0.424-0.097 c-0.121-0.079-0.191-0.214-0.256-0.344c-0.883-1.755-1.766-3.509-2.65-5.264c-0.103-0.204-0.215-0.419-0.41-0.54 c-0.17-0.105-0.379-0.122-0.578-0.136c-2.287-0.155-4.366,0.236-6.657,0.298c-0.736,2.282-1.25,3.823-2.12,6.057 c-1.236-0.022-2.997,0.099-4.233,0.077c2.493-8.123,5.082-16.705,7.696-24.789c1.524-0.091,3.047-0.182,4.571-0.272 c1.758,5.541,3.734,11.159,5.127,16.802c0.303,1.229,0.594,2.476,1.172,3.602C33.299,32.239,34.18,34.054,34.417,35.5z M27.459,25.596c-0.16-0.599-0.339-1.343-0.498-1.941c-0.484-1.815-0.983-3.665-2.018-5.232c-0.188-0.285-0.202-0.725-0.542-0.764 c-0.316-0.036-0.776-0.003-1.159,0.091c-0.739,2.695-1.701,5.424-2.77,8.006C22.789,25.778,25.14,25.575,27.459,25.596z"/><path fill="#d6e5e5" d="M6.563,4.594C5.883,4.549,4.986,5.301,4.781,5.95s-0.08,1.35,0.01,2.025 c0.169,1.277,0.202,2.572,0.098,3.855c-0.097,1.192-0.735,2.628-0.162,3.677c0.768-0.047,1.532-0.149,2.285-0.305 c-0.013-2.167,0.466-4.981,0.453-7.148c-0.001-0.142,0.001-0.294,0.083-0.41C7.664,7.48,7.893,7.451,8.094,7.438 c2.198-0.149,4.252-0.002,6.453,0.094c0.003-0.62,0.106-0.925,0.108-1.545c0.001-0.279-0.01-0.59-0.208-0.787 c-0.167-0.166-0.42-0.201-0.654-0.227C11.477,4.722,8.855,4.746,6.563,4.594z"/><path fill="#010101" d="M4.727,16.008c-0.182,0-0.351-0.1-0.439-0.261c-0.487-0.893-0.269-1.951-0.077-2.886 c0.079-0.381,0.152-0.74,0.179-1.07c0.102-1.249,0.069-2.511-0.095-3.75L4.271,7.856C4.183,7.219,4.084,6.496,4.305,5.8 c0.26-0.825,1.336-1.78,2.291-1.705l0,0C7.5,4.155,8.456,4.188,9.424,4.22c1.478,0.051,3.007,0.103,4.422,0.256 c0.244,0.026,0.652,0.07,0.953,0.368c0.359,0.356,0.357,0.869,0.356,1.145c-0.001,0.332-0.029,0.58-0.058,0.827 c-0.024,0.215-0.05,0.43-0.051,0.718c0,0.136-0.057,0.266-0.155,0.36c-0.098,0.094-0.237,0.148-0.367,0.138l-1.063-0.05 c-1.811-0.087-3.521-0.168-5.335-0.045C8.025,7.943,7.971,7.953,7.943,7.96c0.021,0.007,0.022,0.065,0.022,0.091 c0.006,1.109-0.113,2.388-0.229,3.623c-0.113,1.213-0.23,2.467-0.224,3.526c0.001,0.238-0.166,0.444-0.399,0.492 c-0.779,0.161-1.571,0.267-2.356,0.314C4.747,16.008,4.737,16.008,4.727,16.008z M6.5,5.092c-0.414,0-1.098,0.55-1.243,1.009 c-0.152,0.482-0.077,1.035,0.003,1.62L5.287,7.91c0.174,1.309,0.208,2.642,0.101,3.961c-0.032,0.392-0.116,0.799-0.197,1.192 c-0.146,0.708-0.285,1.383-0.139,1.919c0.488-0.041,0.977-0.105,1.463-0.192c0.02-1.007,0.124-2.124,0.226-3.209 c0.113-1.212,0.23-2.465,0.224-3.523C6.964,7.89,6.962,7.608,7.14,7.356c0.264-0.373,0.724-0.404,0.92-0.418 c1.871-0.127,3.609-0.044,5.45,0.044l0.562,0.026c0.01-0.106,0.021-0.206,0.033-0.307c0.024-0.215,0.05-0.43,0.051-0.718 c0-0.091,0.001-0.369-0.06-0.431c-0.052-0.051-0.266-0.074-0.356-0.084C12.36,5.32,10.85,5.27,9.39,5.22 c-0.979-0.033-1.946-0.066-2.86-0.127C6.52,5.092,6.51,5.092,6.5,5.092z"/><path fill="#d6e5e5" d="M33.478,4.758C33.471,5.282,33.443,6,33.436,6.524c-0.002,0.135-0.002,0.276,0.062,0.395 c0.131,0.241,0.454,0.28,0.728,0.289c1.708,0.06,3.134-0.08,4.843-0.02c0.428,0.015,0.908,0.054,1.185,0.38 c0.222,0.26,0.247,0.63,0.262,0.972c0.091,2.113,0.017,3.881,0.108,5.994c0.648,0.002,1.46-0.06,2.095-0.185 c0.161-0.032,0.332-0.073,0.443-0.194c0.127-0.139,0.142-0.343,0.149-0.531c0.109-2.713,0.101-5.085-0.024-7.797 c-0.01-0.208-0.026-0.432-0.162-0.59c-0.151-0.175-0.404-0.214-0.634-0.242c-2.64-0.313-4.763-0.056-7.413-0.265 C34.625,4.697,33.882,4.547,33.478,4.758z"/><path fill="#010101" d="M40.655,15.035c-0.272-0.002-0.518-0.201-0.53-0.479c-0.046-1.063-0.05-2.04-0.054-3.017 c-0.004-0.964-0.009-1.928-0.054-2.978c-0.012-0.278-0.032-0.539-0.143-0.67c-0.142-0.166-0.5-0.192-0.823-0.204 c-0.839-0.029-1.628-0.011-2.391,0.01c-0.777,0.021-1.583,0.039-2.452,0.01c-0.238-0.009-0.868-0.031-1.15-0.551 c-0.129-0.236-0.125-0.479-0.123-0.64c0.003-0.261,0.012-0.568,0.021-0.878c0.008-0.312,0.018-0.625,0.021-0.888 c0.002-0.185,0.105-0.353,0.269-0.438c0.459-0.24,1.085-0.168,1.589-0.11l0.284,0.03c1.17,0.091,2.255,0.088,3.306,0.091 c1.301-0.001,2.642-0.001,4.126,0.176c0.233,0.027,0.666,0.079,0.953,0.41c0.257,0.298,0.274,0.671,0.284,0.895 c0.125,2.724,0.132,5.142,0.023,7.84c-0.008,0.197-0.022,0.567-0.28,0.849c-0.231,0.252-0.547,0.313-0.716,0.347 C42.204,14.961,41.378,15.035,40.655,15.035z M38.149,6.673c0.305,0,0.617,0.005,0.938,0.016c0.415,0.016,1.109,0.041,1.548,0.555 c0.344,0.404,0.367,0.929,0.381,1.276c0.046,1.063,0.05,2.04,0.054,3.017c0.004,0.813,0.007,1.625,0.035,2.489 c0.536-0.022,1.086-0.081,1.518-0.166c0.1-0.02,0.16-0.036,0.181-0.05c0-0.019,0.006-0.158,0.008-0.204 c0.107-2.669,0.1-5.061-0.023-7.755c-0.002-0.061-0.011-0.243-0.042-0.286c-0.027-0.025-0.133-0.05-0.314-0.071 c-1.425-0.169-2.688-0.172-4.008-0.168c-1.065,0.004-2.175,0.001-3.385-0.095c-0.096-0.007-0.204-0.02-0.319-0.032 c-0.21-0.025-0.52-0.057-0.751-0.049c-0.004,0.167-0.009,0.343-0.014,0.519c-0.009,0.304-0.017,0.606-0.021,0.863 c0,0.041-0.002,0.125,0.006,0.156C33.94,6.67,34.01,6.7,34.244,6.708c0.84,0.029,1.628,0.011,2.391-0.01 C37.126,6.686,37.628,6.673,38.149,6.673z M33.942,6.69h0.01H33.942z"/><path fill="#d6e5e5" d="M4.539,34.254c0.085,2.734,0.169,5.468,0.254,8.202c0.004,0.133,0.011,0.276,0.092,0.382 c0.116,0.154,0.335,0.174,0.527,0.181c2.628,0.096,5.257,0.192,7.885,0.288c0.209,0.008,0.432,0.012,0.612-0.094 c0.344-0.202,0.74-2.043,0.513-2.37s-0.989-0.063-1.388-0.082c-1.956-0.09-3.466,0.093-5.019-0.059 c-0.138-0.013-0.284,0.034-0.407-0.029c-0.205-0.104-0.251-0.371-0.271-0.6c-0.132-1.445-0.031-2.537-0.163-3.982 c-0.07-0.762,0.141-1.498-0.612-1.639C5.955,34.34,5.153,34.118,4.539,34.254z"/><path fill="#010101" d="M13.451,43.812c-0.063,0-0.12-0.002-0.172-0.004L5.394,43.52c-0.21-0.009-0.642-0.026-0.909-0.381 c-0.178-0.236-0.187-0.506-0.192-0.666L4.04,34.27c-0.007-0.24,0.157-0.451,0.391-0.504c0.61-0.134,1.292,0.005,1.893,0.13 l0.331,0.066c0.988,0.185,0.996,1.05,1.001,1.623c0.001,0.148,0.002,0.305,0.017,0.461c0.067,0.742,0.076,1.397,0.083,2.03 c0.008,0.643,0.015,1.25,0.08,1.952c0.007,0.084,0.017,0.139,0.025,0.175c0.09-0.001,0.148-0.004,0.205,0.003 c0.814,0.078,1.641,0.063,2.513,0.045c0.771-0.016,1.568-0.032,2.479,0.012c0.091-0.006,0.225-0.017,0.359-0.034 c0.459-0.063,1.085-0.147,1.416,0.329c0.198,0.284,0.209,0.835,0.033,1.64c-0.26,1.188-0.593,1.383-0.703,1.447 C13.92,43.787,13.661,43.812,13.451,43.812z M5.334,42.517c0.024,0,0.057,0.002,0.098,0.003l7.883,0.288 c0.103,0.007,0.279,0.012,0.341-0.025c0.121-0.17,0.35-1.189,0.336-1.604c-0.129-0.039-0.324,0.023-0.443,0.04 c-0.2,0.027-0.391,0.05-0.539,0.042c-0.877-0.039-1.657-0.025-2.413-0.01c-0.905,0.019-1.758,0.033-2.63-0.05 c-0.197,0.007-0.385,0.02-0.584-0.081c-0.474-0.24-0.525-0.792-0.544-1c-0.067-0.743-0.076-1.397-0.083-2.031 c-0.008-0.643-0.015-1.249-0.08-1.951c-0.017-0.186-0.019-0.368-0.021-0.544c-0.006-0.615-0.044-0.623-0.185-0.649l-0.35-0.069 c-0.35-0.072-0.732-0.151-1.067-0.163l0.239,7.729c0,0.019,0.001,0.051,0.003,0.08C5.305,42.518,5.317,42.517,5.334,42.517z"/><path fill="#d6e5e5" d="M31.706,40.565c0.106,0.537,0.421,1.927,0.388,2.474c3.29,0.335,6.607,0.399,9.908,0.189 c0.232-0.015,0.479-0.036,0.665-0.175c0.286-0.214,0.328-0.619,0.346-0.977c0.117-2.395,0.234-4.79,0.351-7.185 c0.032-0.658,0.064-1.322-0.038-1.973c-0.02-0.125-0.05-0.26-0.149-0.338c-0.119-0.096-0.291-0.074-0.442-0.048 c-0.441,0.077-0.881,0.155-1.322,0.232c-0.234,0.041-0.481,0.088-0.661,0.243c-0.286,0.247-0.31,0.675-0.311,1.053 c-0.005,1.236,0.06,3.053,0.054,4.289c-0.003,0.685-0.066,1.486-0.639,1.859c-0.262,0.17-0.583,0.214-0.893,0.253 C36.745,40.743,33.922,40.283,31.706,40.565z"/><path fill="#010101" d="M38.196,43.848c-2.059,0-4.117-0.104-6.153-0.313c-0.267-0.027-0.464-0.26-0.448-0.527 c0.024-0.396-0.206-1.507-0.317-2.041l-0.062-0.305c-0.027-0.137,0.003-0.277,0.084-0.39c0.081-0.113,0.205-0.187,0.343-0.204 c1.148-0.145,2.45-0.101,3.708-0.055c1.218,0.043,2.479,0.088,3.547-0.048c0.24-0.03,0.511-0.064,0.683-0.177 c0.36-0.233,0.411-0.86,0.413-1.442c0.002-0.614-0.012-1.373-0.027-2.132c-0.015-0.768-0.03-1.535-0.027-2.156 c0.001-0.354,0.004-1.016,0.485-1.431c0.29-0.25,0.644-0.312,0.901-0.356l1.322-0.231c0.162-0.028,0.537-0.094,0.839,0.147 c0.263,0.211,0.311,0.521,0.332,0.653c0.111,0.705,0.077,1.401,0.044,2.074l-0.351,7.186c-0.017,0.343-0.048,0.98-0.546,1.353 c-0.315,0.234-0.687,0.258-0.933,0.273C40.758,43.808,39.477,43.848,38.196,43.848z M32.575,42.583 c3.111,0.296,6.27,0.343,9.395,0.146c0.128-0.008,0.322-0.021,0.398-0.077c0.12-0.089,0.137-0.447,0.145-0.6l0.351-7.186 c0.03-0.613,0.061-1.248-0.029-1.844c-0.005,0.001-0.01,0.001-0.015,0.002l-1.321,0.231c-0.151,0.026-0.34,0.06-0.421,0.13 c-0.136,0.117-0.137,0.495-0.138,0.677c-0.002,0.614,0.012,1.373,0.027,2.132c0.015,0.768,0.03,1.535,0.027,2.156 c-0.002,0.558-0.007,1.718-0.867,2.276c-0.364,0.237-0.773,0.289-1.103,0.331c-1.148,0.145-2.45,0.101-3.708,0.055 c-1.02-0.036-2.068-0.075-3.008-0.005C32.424,41.58,32.531,42.144,32.575,42.583z"/><path fill="#010101" d="M14.389,36.096c-0.115,0-0.227-0.001-0.334-0.003c-0.157-0.003-0.303-0.079-0.396-0.206 c-0.092-0.128-0.119-0.291-0.073-0.44l1.509-4.929c2.015-6.587,4.098-13.398,6.189-19.868c0.063-0.195,0.24-0.333,0.446-0.345 l4.571-0.272c0.242-0.017,0.438,0.131,0.506,0.348c0.433,1.366,0.88,2.736,1.328,4.111c1.354,4.155,2.755,8.453,3.809,12.722 l0.045,0.185c0.277,1.127,0.564,2.292,1.085,3.31c0.728,1.418,1.593,3.234,1.835,4.712c0.024,0.149-0.02,0.301-0.121,0.414 c-0.1,0.113-0.239,0.196-0.397,0.166c-0.48-0.022-0.962-0.002-1.471,0.021c-0.507,0.022-1.03,0.045-1.553,0.021 c-0.177-0.009-0.439-0.022-0.676-0.179c-0.236-0.154-0.352-0.384-0.428-0.536l-2.65-5.265c-0.061-0.121-0.146-0.289-0.226-0.338 c-0.071-0.045-0.232-0.056-0.35-0.063c-1.375-0.092-2.663,0.017-4.027,0.132c-0.721,0.061-1.464,0.123-2.228,0.154 c-0.646,2.001-1.164,3.548-2.022,5.752c-0.075,0.195-0.253,0.323-0.475,0.318c-0.606-0.013-1.345,0.015-2.083,0.038 C15.575,36.075,14.944,36.096,14.389,36.096z M22.13,11.282c-2.054,6.365-4.1,13.055-6.08,19.527l-1.312,4.283 c0.453-0.006,0.943-0.022,1.433-0.038c0.619-0.021,1.237-0.041,1.783-0.042c0.82-2.129,1.325-3.66,1.985-5.708 c0.065-0.202,0.25-0.341,0.463-0.347c0.86-0.022,1.706-0.095,2.524-0.164c1.341-0.112,2.728-0.23,4.18-0.133 c0.21,0.015,0.526,0.036,0.808,0.211c0.319,0.197,0.478,0.51,0.593,0.738l2.65,5.266c0.021,0.042,0.066,0.132,0.09,0.153 c0.016,0.004,0.113,0.01,0.17,0.013c0.475,0.021,0.952,0.001,1.46-0.021c0.301-0.013,0.608-0.026,0.917-0.03 c-0.323-1.23-1.015-2.665-1.61-3.826c-0.575-1.122-0.876-2.346-1.167-3.528l-0.045-0.183c-1.045-4.233-2.44-8.514-3.789-12.652 c-0.408-1.253-0.815-2.502-1.212-3.747L22.13,11.282z"/><path fill="#010101" d="M20.817,26.258c-0.118,0-0.235-0.001-0.352-0.002c-0.167-0.002-0.321-0.086-0.413-0.225 c-0.092-0.138-0.108-0.313-0.045-0.467c1.12-2.704,2.045-5.378,2.75-7.947c0.048-0.175,0.187-0.31,0.363-0.353 c0.435-0.107,0.959-0.146,1.336-0.103c0.526,0.061,0.707,0.521,0.803,0.769c0.032,0.082,0.065,0.167,0.098,0.217 c1.091,1.651,1.619,3.632,2.084,5.379c0.081,0.302,0.166,0.639,0.251,0.977c0.084,0.333,0.168,0.667,0.248,0.964 c0.041,0.151,0.008,0.312-0.088,0.436c-0.096,0.123-0.282,0.184-0.399,0.193c-1.155-0.008-2.329,0.035-3.471,0.08 C22.946,26.216,21.875,26.258,20.817,26.258z M23.64,18.182c-0.644,2.297-1.458,4.672-2.425,7.074 c0.911-0.009,1.833-0.045,2.73-0.08c0.94-0.036,1.908-0.074,2.868-0.081c-0.029-0.114-0.059-0.23-0.088-0.347 c-0.084-0.333-0.168-0.667-0.248-0.964c-0.468-1.755-0.952-3.57-1.953-5.086c-0.091-0.138-0.146-0.279-0.195-0.403 c-0.017-0.044-0.041-0.104-0.06-0.146C24.088,18.139,23.859,18.149,23.64,18.182z"/></svg>