<svg xmlns="http://www.w3.org/2000/svg" viewBox="0 0 48 48"><path fill="#fcbf95" d="M17.12,26.594c0.17,0.045,2.223-1.398,2.149-1.446c-0.985-0.648-2.2-3.468-2.394-3.568 c-0.915-0.472-2.414-0.566-3.429-0.392c0,0-6.415,1.31-6.227,3.031C7.495,26.749,17.12,26.594,17.12,26.594z"/><path fill="#fcbf95" d="M38.127,22.041c-1.416-0.51-2.87-1.026-4.375-1.007c-0.453,0.006-0.918,0.065-1.314,0.284 c-0.221,0.122-0.413,0.29-0.596,0.463c-0.905,0.852-1.662,1.861-2.227,2.968l11.085-1.651 C40.542,22.99,38.638,22.225,38.127,22.041z"/><path fill="#73a1b2" d="M45.266,12.943c-0.022-0.271-0.047-0.551-0.177-0.79c-0.34-0.623-1.193-0.686-1.902-0.669 c-2.141,0.051-4.395,0.087-6.699,0.112c0.029-2.008,0.168-3.735,0.047-6.13c-0.013-0.262-0.091-1.196-0.288-1.631 c-0.09-0.198-1.176-0.518-1.803-0.493c-1.479,0.058-1.622,0.836-1.772,1.193c-0.172,0.41-0.198,0.981-0.216,1.153 c-0.22,2.102-0.1,2.771,0.107,4.875c0.025,0.358,0.044,0.71,0.068,1.066c-5.768,0.034-11.674,0.01-16.941-0.018 c0.03-2.047,0.036-4.1-0.023-6.17c-0.022-0.765-0.155-1.611-0.83-1.972C14.167,3.109,13.372,3.151,13,3.813 s-0.597,1.085-0.594,1.844c0.009,1.885-0.039,3.916-0.082,5.935c-2.988-0.017-5.679-0.032-7.89-0.033 c-1.052,0.149-0.877,0.649-1.027,1.354c-0.157,0.733,0.45,1.451,1.155,1.704c0.705,0.254,1.48,0.17,2.228,0.12 c1.83-0.122,3.657-0.018,5.484,0.147c-0.004,0.499-0.012,1.008-0.01,1.49c0.201,8.287,0.375,16.701,0.28,24.99 c-0.01,0.862-0.006,1.781,0.458,2.508s1.575,1.104,2.208,0.519c0.349-0.322,0.454-0.824,0.521-1.294 c0.406-2.848,0.089-5.742-0.119-8.611c-0.471-6.495-0.171-12.856,0.002-19.266c1.206,0.123,2.412,0.235,3.621,0.287 c4.532,0.195,9.061-0.425,13.597-0.438c0.383,7.35,0.418,14.473-0.08,21.941c-0.093,1.393-0.215,3.798-0.016,5.18 c0.087,0.608,0.248,1.229,0.642,1.701s1.365,0.774,1.936,0.548c0.702-0.279,0.948-1.135,1.051-1.884 c0.165-1.201,0.196-3.416,0.227-4.628c0.12-4.742-0.055-9.509,0.065-14.251c0.038-1.49,0.075-2.98,0.059-4.471 c-0.014-1.3-0.071-2.598-0.134-3.896c2.035,0.235,4.068,0.52,6.087,0.28c1.011-0.12,2.183-0.453,2.524-1.412 C45.331,13.784,45.299,13.357,45.266,12.943z"/><path fill="#fcbf95" d="M12.325,22.928l7.175,1.363c0,0,3.348,2.345-0.524,3.672c0.727,0.793,2.634,3.008-0.244,3.793 c0.56,0.68,2.494,2.715-0.088,3.906c0.078,1.053,0.607,2.602-2.787,2.997c-3.395,0.396-5.56,1.02-9.115-0.828 c-1.336-1.661-2.197-3.621-1.888-5.25c0.242-1.275,0.095-2.377,0.115-4.02c-0.004,0.337,1.305-2.396,1.584-5.139 C6.679,22.175,12.325,22.928,12.325,22.928z"/><path fill="#fcbf95" d="M30.568,36.213c-0.458,0.405-0.302,1.561,0.108,2.014c0.41,0.453,1.031,0.646,1.627,0.78 c3.632,0.813,7.414,0.158,10.315-2.174c0.382-0.307,0.778-0.727,0.706-1.212c-0.064-0.428-0.482-0.749-0.513-1.181 c-0.031-0.433,0.331-0.78,0.534-1.164c0.337-0.638,0.206-1.49-0.308-1.997c-0.087-0.086-0.188-0.169-0.224-0.286 c-0.039-0.126,0.007-0.261,0.053-0.385c0.381-1.031,0.966-2.413,0.221-3.222c-0.143-0.155-0.32-0.281-0.434-0.459 c-0.462-0.721,0.365-1.611,0.343-2.467c-0.019-0.722-0.559-1.212-1.397-1.249c-4.292-0.241-8.546,0.343-12.589,1.805 c-0.452,0.163-0.967,0.416-1.04,0.891c-0.027,0.179,0.017,0.36,0.061,0.536c0.156,0.626,0.375,1.331,0.96,1.602 c0.381,0.176,0.825,0.118,1.241,0.06c0,0-3.276,2.876,0.199,3.682C29.557,32.997,28.26,33.886,30.568,36.213z"/><path fill="#010101" d="M45.764,12.904c-0.022-0.291-0.051-0.653-0.236-0.99c-0.531-0.975-1.852-0.943-2.353-0.93 c-3.19,0.077-6.606,0.118-10.079,0.141c-0.013-0.198-0.023-0.397-0.036-0.595c0-0.01,0-0.01,0-0.02L33,9.88 c-0.17-1.64-0.24-2.31-0.05-4.14l0.01-0.1c0.02-0.21,0.06-0.63,0.17-0.91l0.05-0.13c0.13-0.34,0.27-0.72,1.28-0.76h0.06 c0.43,0,1.08,0.18,1.31,0.29c0.11,0.34,0.19,0.99,0.21,1.36c0.07,1.39,0.05,2.56,0.01,3.68c0.24-0.14,0.61-0.29,1.01-0.26 c0.03-1.05,0.04-2.17-0.03-3.47c0-0.05-0.06-1.22-0.33-1.81c-0.25-0.57-1.8-0.79-2.28-0.79c-1.67,0.07-2.01,0.97-2.21,1.5 c-0.18,0.43-0.22,0.96-0.25,1.3c-0.2,1.92-0.13,2.68,0.04,4.34l0.06,0.62c0.012,0.178,0.022,0.354,0.035,0.532 c-6.608,0.035-13.383-0.003-19.251-0.038c-0.005,0-0.01,0-0.015,0c0-0.022,0.001-0.043,0.001-0.065c0.04-1.8,0.08-3.66,0.08-5.38 c-0.01-0.62,0.17-0.95,0.53-1.59c0.26-0.47,0.85-0.32,1.16-0.15c0.37,0.19,0.54,0.67,0.57,1.54c0.04,1.47,0.05,2.95,0.04,4.42 c0.37-0.24,0.72-0.45,1.01-0.58c0-1.29-0.01-2.58-0.05-3.87c-0.03-0.79-0.17-1.89-1.1-2.39c-0.98-0.53-2.03-0.3-2.51,0.54 c-0.35,0.63-0.66,1.17-0.65,2.09c0,1.7-0.04,3.55-0.08,5.34c-0.001,0.03-0.001,0.059-0.002,0.089 c-2.785-0.016-5.31-0.029-7.395-0.03c-0.023,0-0.047,0.002-0.07,0.005c-1.228,0.175-1.322,0.886-1.391,1.404 c-0.014,0.106-0.029,0.221-0.055,0.341c-0.218,1.016,0.579,1.956,1.475,2.279c0.742,0.266,1.5,0.213,2.233,0.162l0.197-0.014 c2.546-0.174,5.152,0.105,7.672,0.37c0.199,0.021,0.405,0.04,0.606,0.061c-0.02,0.773-0.037,1.55-0.062,2.313 c-0.054,1.668-0.095,3.357-0.125,5.057c-0.652-0.104-1.289-0.187-2.006-0.271c-0.046-2.16-0.093-4.297-0.149-6.396v-0.25 c-0.36,0.21-0.7,0.37-1,0.43c0.034,1.453,0.071,2.923,0.108,4.403c-1.59,0.516-3.147,1.278-4.418,1.657 c-0.024,0.007-0.039,0.023-0.061,0.032c-0.838,0.219-1.462,0.652-1.738,1.468c-0.117,0.347-0.016,0.835,0.158,1.604 c0.072,0.317,0.181,0.797,0.168,0.923c-0.034,0.095-0.336,0.287-0.498,0.391c-0.385,0.247-0.822,0.526-0.934,1.007 c-0.164,0.703,0.032,1.203,0.205,1.645c0.126,0.324,0.236,0.604,0.219,0.977C4.954,31,4.834,31.26,4.696,31.562 c-0.166,0.361-0.354,0.771-0.359,1.337c-0.006,0.648,0.148,1.258,0.298,1.847c0.116,0.456,0.225,0.887,0.259,1.319 c0.065,0.845,0.558,1.286,1.035,1.714c0.102,0.092,0.208,0.187,0.313,0.289c0.388,0.378,0.912,0.52,1.293,0.623 c0.414,0.113,0.736,0.242,1.047,0.367c0.533,0.214,1.036,0.416,1.837,0.484c0.325,0.028,0.684,0.041,1.063,0.041 c0.184,0,0.374-0.004,0.566-0.01c0.002,0.598,0,1.194-0.008,1.787c-0.01,0.85-0.02,1.91,0.54,2.78c0.35,0.55,0.97,0.94,1.61,1.02 c0.09,0.01,0.17,0.02,0.25,0.02c0.42,0,0.81-0.15,1.11-0.42c0.45-0.42,0.59-1.01,0.68-1.59c0.196-1.371,0.221-2.742,0.176-4.113 c0.708-0.159,1.445-0.359,2.03-0.855c0.588-0.499,0.989-1.423,0.68-2.236c0.29-0.163,0.574-0.356,0.825-0.622 c0.218-0.231,0.365-0.461,0.45-0.704c0.175-0.507,0.08-1.097-0.262-1.619c-0.125-0.192-0.406-0.579-0.697-0.937 c0.409-0.152,0.775-0.39,1.038-0.781c0.393-0.581,0.437-1.388,0.115-2.106c-0.162-0.362-0.414-0.695-0.746-1.011 c0.64-0.313,1.173-0.877,1.409-1.538c0.206-0.577,0.165-1.163-0.114-1.649c-0.364-0.635-0.987-0.89-1.624-1.045 c-0.564-0.783-1.083-1.608-1.74-2.273c-0.55-0.558-1.16-0.898-1.806-1.085c0.023-0.865,0.049-1.727,0.076-2.585 c0.023-0.741,0.039-1.496,0.06-2.243c1.034,0.102,2.075,0.193,3.115,0.238c2.62,0.113,5.27-0.049,7.833-0.204 c2.064-0.125,4.201-0.246,6.29-0.238c0.914,0.007,1.843,0.097,2.765,0.198c0.054,1.145,0.104,2.299,0.118,3.448 c0.009,1.21-0.015,2.441-0.042,3.649c-0.867,0.094-1.727,0.217-2.579,0.381c-0.026-2.248-0.098-4.551-0.21-6.93 c-0.16,0.17-0.49,0.45-0.98,0.57c0.059,1.305,0.104,2.585,0.138,3.847c-0.116,0.042-0.233,0.091-0.348,0.153 c-0.27,0.15-0.5,0.35-0.7,0.54c-0.922,0.863-1.689,1.879-2.273,2.998c-0.128,0.045-0.259,0.082-0.387,0.129 c-0.338,0.122-1.236,0.447-1.364,1.286c-0.043,0.281,0.022,0.542,0.069,0.732c0.131,0.523,0.375,1.479,1.168,1.894 c-0.19,0.254-0.363,0.534-0.482,0.847c-0.254,0.674-0.205,1.391,0.133,1.917c0.247,0.384,0.643,0.669,1.173,0.858 c-0.487,0.655-0.882,1.422-0.632,2.624c0.167,0.804,0.622,1.26,1.069,1.504c-0.098,0.195-0.168,0.417-0.183,0.682 c-0.035,0.622,0.171,1.293,0.513,1.67c0.494,0.548,1.199,0.774,1.835,0.92c-0.026,1.181,0.011,2.124,0.1,2.779 c0.08,0.54,0.24,1.34,0.75,1.95c0.41,0.49,1.2,0.8,1.88,0.8c0.23,0,0.44-0.04,0.63-0.11c1.11-0.44,1.3-1.82,1.36-2.28 c0.104-0.745,0.154-1.873,0.185-2.911c2.175-0.298,4.205-1.135,5.886-2.487c0.251-0.202,1.015-0.815,0.887-1.675 c-0.045-0.308-0.193-0.546-0.324-0.756c-0.091-0.146-0.177-0.285-0.184-0.387c-0.01-0.138,0.115-0.325,0.248-0.523 c0.081-0.122,0.162-0.245,0.229-0.371c0.441-0.836,0.272-1.924-0.489-2.612c0.002-0.023,0.027-0.091,0.036-0.116l0.072-0.191 c0.402-1.079,0.955-2.557,0.048-3.541c-0.06-0.065-0.124-0.126-0.188-0.187c-0.078-0.073-0.153-0.143-0.192-0.204 c-0.133-0.208-0.033-0.508,0.142-0.979c0.137-0.369,0.292-0.788,0.281-1.231c-0.025-0.99-0.779-1.688-1.869-1.735 c-0.212-0.012-0.423-0.012-0.635-0.021c-0.005-0.004-0.008-0.01-0.013-0.013c-0.18-0.12-0.36-0.23-0.56-0.32 c-0.19-0.09-0.39-0.16-0.59-0.24l-1.53-0.55c-0.345-0.122-0.72-0.244-1.09-0.366c0.01-0.667,0.015-1.337,0.01-2.004 c-0.013-1.113-0.059-2.225-0.111-3.329c1.293,0.152,2.615,0.307,3.941,0.307c0.559,0,1.118-0.028,1.676-0.095 c1.606-0.19,2.595-0.776,2.937-1.741C45.84,13.846,45.798,13.323,45.764,12.904z M11.909,22.653 c-0.079-0.009-0.148-0.017-0.23-0.025c-0.434-0.047-0.853-0.085-1.263-0.117c0.489-0.208,0.981-0.395,1.476-0.557 C11.897,22.188,11.903,22.419,11.909,22.653z M15.24,43.03c-0.07,0.45-0.16,0.8-0.37,0.99c-0.17,0.16-0.39,0.17-0.55,0.15 c-0.35-0.04-0.71-0.27-0.9-0.57c-0.37-0.57-0.39-1.32-0.38-2.23c0.008-0.614,0.011-1.233,0.008-1.85 c0.818-0.059,1.641-0.156,2.365-0.274C15.449,40.517,15.418,41.785,15.24,43.03z M20.267,25.496 c0.168,0.293,0.114,0.605,0.04,0.815c-0.161,0.452-0.575,0.873-1.029,1.047c-0.82,0.313-1.794,0.173-2.737,0.039l-0.232-0.033 c-1.775-0.249-4.497-0.333-6.16-0.284c-0.276,0.008-0.494,0.238-0.486,0.515c0.008,0.275,0.229,0.478,0.514,0.485 c1.646-0.051,4.335,0.042,5.993,0.274l0.229,0.032c0.752,0.108,1.521,0.208,2.282,0.122c0.016,0.015,0.025,0.034,0.043,0.046 c0.472,0.338,0.782,0.682,0.947,1.051c0.179,0.399,0.167,0.846-0.031,1.139c-0.343,0.508-1.161,0.582-1.916,0.587 c-1.989,0.012-5.139-0.054-7.465-0.235c-0.008-0.007-0.016-0.013-0.024-0.019c-0.171-0.127-0.451-0.124-0.625-0.004 c-0.175,0.119-0.269,0.368-0.214,0.573c0.024,0.091,0.135,0.39,0.55,0.427c2.177,0.183,5.148,0.26,7.232,0.26 c0.192,0,0.378-0.001,0.554-0.002c0.187-0.001,0.377-0.009,0.566-0.023c0.27,0.267,0.761,0.905,0.993,1.26 c0.166,0.254,0.225,0.54,0.154,0.745c-0.037,0.105-0.112,0.218-0.232,0.345c-0.545,0.577-1.323,0.791-1.88,0.868 c-0.759,0.105-1.559,0.036-2.332-0.032l-0.854-0.069c-1.429-0.112-3.208-0.252-4.456-0.651c-0.264-0.083-0.544,0.062-0.628,0.324 c-0.084,0.263,0.061,0.544,0.324,0.629c1.359,0.435,3.201,0.579,4.682,0.695l0.845,0.068c0.511,0.045,1.032,0.091,1.562,0.091 c0.329,0,0.661-0.018,0.995-0.064c0.215-0.03,0.46-0.085,0.713-0.157c0.112,0.363-0.093,0.824-0.396,1.08 c-0.423,0.359-1.018,0.513-1.642,0.651c-1.474,0.326-4.052,0.594-5.642,0.455c-0.654-0.057-1.049-0.215-1.551-0.416 C8.633,38,8.268,37.854,7.797,37.726c-0.372-0.101-0.67-0.192-0.858-0.375c-0.116-0.113-0.231-0.217-0.343-0.316 c-0.453-0.407-0.672-0.621-0.706-1.048c-0.04-0.518-0.166-1.011-0.287-1.487c-0.141-0.552-0.273-1.072-0.268-1.591 c0.003-0.353,0.126-0.62,0.268-0.929c0.159-0.347,0.339-0.74,0.364-1.278c0.026-0.585-0.14-1.011-0.287-1.386 c-0.148-0.379-0.255-0.652-0.163-1.052c0.034-0.095,0.337-0.288,0.5-0.393c0.399-0.255,0.852-0.544,0.943-1.053 c0.052-0.292-0.033-0.693-0.176-1.324c-0.078-0.346-0.209-0.922-0.187-1.063c0.369-1.093,2.031-1.127,4.973-0.809 c2.544,0.275,3.701,0.431,6.687,1.095c0.149,0.033,0.304,0.063,0.459,0.092C19.385,24.937,20.015,25.057,20.267,25.496z M17.892,23.613c-0.754-0.164-1.4-0.295-1.981-0.403c0.006-0.429,0.015-0.857,0.024-1.285 C16.687,22.246,17.202,22.788,17.892,23.613z M32.18,22.15c0.139-0.131,0.265-0.231,0.389-0.314 c0.012,0.542,0.024,1.086,0.031,1.622c-0.649,0.147-1.293,0.31-1.931,0.498C31.105,23.299,31.608,22.689,32.18,22.15z M35.87,42.48 c-0.12,0.84-0.37,1.34-0.74,1.49c-0.35,0.14-1.1-0.08-1.37-0.4s-0.43-0.77-0.53-1.45c-0.078-0.575-0.108-1.416-0.089-2.466 c0.712,0.11,1.422,0.185,2.121,0.185c0.26,0,0.518-0.016,0.775-0.031C36.013,40.783,35.964,41.81,35.87,42.48z M42.497,24.475 c0.007,0.251-0.103,0.546-0.219,0.858c-0.203,0.547-0.455,1.228-0.046,1.866c0.107,0.166,0.237,0.288,0.352,0.395 c0.046,0.043,0.092,0.086,0.135,0.133c0.491,0.533,0.081,1.631-0.249,2.514l-0.072,0.195c-0.054,0.145-0.152,0.412-0.063,0.702 c0.067,0.226,0.218,0.37,0.352,0.499c0.354,0.349,0.449,0.967,0.217,1.406c-0.051,0.097-0.114,0.19-0.177,0.283 c-0.199,0.299-0.447,0.671-0.414,1.149c0.024,0.349,0.195,0.623,0.333,0.844c0.087,0.141,0.169,0.272,0.185,0.375 c0.028,0.191-0.153,0.45-0.525,0.749c-2.653,2.134-6.26,2.891-9.892,2.075c-0.496-0.11-1.045-0.272-1.366-0.628 c-0.14-0.154-0.277-0.559-0.256-0.942c0.012-0.221,0.073-0.33,0.107-0.36c0.046-0.041,0.08-0.09,0.107-0.141 c3.271-0.004,6.066-0.098,8.759-0.3c0.275-0.021,0.482-0.261,0.462-0.536c-0.021-0.275-0.265-0.477-0.536-0.462 c-2.741,0.207-5.567,0.301-8.938,0.3c-0.007,0-0.691-0.1-0.867-0.945c-0.193-0.926,0.13-1.423,0.608-2.025 c0.042-0.052,0.07-0.111,0.088-0.171c0.306,0.036,0.612,0.058,0.917,0.058c0.532,0,1.062-0.042,1.581-0.084l0.206-0.017 c1.916-0.149,3.861-0.215,5.771-0.199c0.259-0.018,0.502-0.219,0.505-0.495s-0.219-0.502-0.495-0.505 c-1.939-0.017-3.915,0.05-5.859,0.203L33,31.284c-0.971,0.077-1.889,0.151-2.771-0.04c-0.51-0.111-0.854-0.3-1.021-0.561 c-0.165-0.258-0.18-0.649-0.039-1.023c0.142-0.375,0.413-0.705,0.691-1.01c0.155-0.012,0.305-0.029,0.443-0.049 c2.824-0.392,5.7-0.591,8.552-0.591c0.006,0,0.014,0,0.021,0c0.276,0,0.5-0.224,0.5-0.5c0-0.283-0.247-0.505-0.521-0.5 c-2.897,0-5.82,0.202-8.689,0.601c-0.349,0.049-0.709,0.099-0.962-0.02c-0.384-0.178-0.555-0.748-0.686-1.269 c-0.03-0.12-0.064-0.257-0.051-0.34c0.018-0.114,0.156-0.294,0.715-0.496c3.925-1.42,8.093-2.021,12.396-1.774 C41.849,23.725,42.48,23.822,42.497,24.475z M37.96,22.51l0.491,0.176c-0.426,0.016-0.849,0.046-1.272,0.079 c0.004-0.173,0.007-0.348,0.011-0.523C37.446,22.332,37.705,22.419,37.96,22.51z M44.722,14.008 c-0.205,0.576-0.916,0.94-2.113,1.083c-1.773,0.208-3.541,0.004-5.413-0.217c-0.044-0.005-0.09-0.009-0.134-0.014 c-0.011-0.222-0.021-0.449-0.032-0.67c-0.03-0.72-0.05-1.39-0.05-2.02l-0.99,1.14c0.01,0.3,0.02,0.61,0.04,0.93 c0.008,0.168,0.016,0.341,0.024,0.511c-0.898-0.097-1.803-0.18-2.71-0.187c-0.122-0.001-0.244-0.001-0.366-0.001 c-2.007,0-4.031,0.122-5.992,0.241c-2.537,0.153-5.16,0.314-7.729,0.202c-1.04-0.044-2.088-0.138-3.131-0.24 c0.014-0.543,0.033-1.078,0.043-1.625c-0.3,0.35-0.65,0.72-1.03,1.08c-0.002,0.149-0.009,0.296-0.012,0.445 c-0.175-0.018-0.355-0.035-0.529-0.053c-2.563-0.271-5.214-0.552-7.843-0.374l-0.201,0.014c-0.659,0.047-1.283,0.09-1.825-0.105 c-0.483-0.174-0.934-0.669-0.836-1.129c0.032-0.147,0.051-0.287,0.068-0.417c0.06-0.45,0.063-0.479,0.506-0.542 c2.073,0.001,4.578,0.014,7.34,0.03c-0.003,0.167-0.006,0.334-0.009,0.501c0.177-0.153,0.372-0.323,0.577-0.498 c0.156,0.001,0.303,0.002,0.461,0.003c5.888,0.034,12.689,0.072,19.322,0.037c0.013,0.206,0.029,0.414,0.04,0.618l0.651-0.623 c3.565-0.022,7.074-0.064,10.348-0.142c0.82-0.028,1.288,0.109,1.451,0.409c0.082,0.15,0.1,0.373,0.117,0.59 C44.796,13.342,44.826,13.713,44.722,14.008z"/><path fill="#4b7bb2" d="M33.146,11.924c-0.887,0.733-1.608,1.552-2.314,2.46c-0.242,0.312-0.474,0.644-0.576,1.025 c-0.102,0.381-0.055,0.824,0.212,1.115c0.225,0.246,0.569,0.35,0.902,0.381c0.668,0.063,1.357-0.132,1.892-0.536 c0.6-0.452,0.984-1.125,1.439-1.722c0.944-1.238,2.242-2.2,3.032-3.542c0.212-0.361,0.389-0.763,0.373-1.182 c-0.016-0.419-0.269-0.851-0.674-0.962c-0.126-0.034-0.258-0.037-0.388-0.031c-0.316,0.014-0.632,0.074-0.92,0.206 c-0.374,0.172-0.682,0.456-0.983,0.736C34.426,10.535,33.899,11.302,33.146,11.924z"/><path fill="#010101" d="M31.616,17.416c-0.098,0-0.196-0.005-0.294-0.014c-0.519-0.048-0.943-0.234-1.223-0.54 c-0.358-0.393-0.482-0.999-0.326-1.583c0.126-0.467,0.394-0.854,0.665-1.202c0.846-1.089,1.583-1.872,2.39-2.539l0,0 c0.391-0.322,0.719-0.69,1.067-1.081c0.289-0.323,0.579-0.647,0.907-0.952c0.311-0.288,0.664-0.616,1.114-0.823 c0.325-0.149,0.698-0.233,1.107-0.252c0.161-0.004,0.345-0.004,0.54,0.049c0.588,0.16,1.017,0.747,1.042,1.426 c0.021,0.595-0.241,1.114-0.441,1.454c-0.493,0.837-1.162,1.526-1.809,2.192c-0.454,0.468-0.883,0.91-1.257,1.399 c-0.111,0.146-0.217,0.296-0.324,0.446c-0.344,0.485-0.7,0.987-1.211,1.372C33.006,17.187,32.311,17.416,31.616,17.416z M33.464,12.31c-0.748,0.618-1.438,1.353-2.237,2.381c-0.207,0.267-0.409,0.553-0.489,0.849c-0.068,0.254-0.029,0.508,0.099,0.648 c0.107,0.116,0.312,0.194,0.578,0.219c0.544,0.055,1.108-0.107,1.546-0.437c0.387-0.292,0.684-0.709,0.998-1.151 c0.113-0.16,0.227-0.319,0.345-0.474c0.41-0.538,0.88-1.021,1.334-1.49c0.634-0.652,1.232-1.27,1.664-2.004 c0.217-0.367,0.313-0.656,0.304-0.909C37.597,9.71,37.46,9.487,37.3,9.443c-0.065-0.019-0.157-0.017-0.237-0.014 c-0.277,0.012-0.523,0.065-0.73,0.16c-0.305,0.141-0.583,0.398-0.852,0.648c-0.305,0.282-0.573,0.584-0.841,0.885 C34.284,11.523,33.914,11.938,33.464,12.31L33.464,12.31z"/><path fill="#4b7bb2" d="M13.313,11.451c-1.203,1.002-2.135,1.986-3.115,3.208c-0.237,0.295-0.478,0.629-0.463,1.007 c0.018,0.483,0.475,0.863,0.952,0.945s0.962-0.066,1.411-0.246c1.925-0.768,3.601-2.147,4.725-3.888 c0.398-0.617,0.735-1.3,0.791-2.032c0.026-0.34-0.019-0.706-0.237-0.969c-0.298-0.359-0.846-0.421-1.288-0.271 c-0.442,0.15-0.803,0.469-1.151,0.779C14.34,10.52,13.912,10.916,13.313,11.451z"/><path fill="#010101" d="M10.967,17.134c-0.121,0-0.243-0.01-0.367-0.031c-0.752-0.129-1.34-0.739-1.365-1.418 c-0.023-0.596,0.364-1.079,0.572-1.339c1.061-1.321,2.012-2.3,3.178-3.272l1.62-1.462c0.365-0.325,0.779-0.694,1.322-0.88 c0.576-0.195,1.365-0.139,1.834,0.425c0.271,0.327,0.391,0.785,0.35,1.326c-0.054,0.71-0.33,1.43-0.869,2.266 c-1.179,1.827-2.941,3.276-4.961,4.082C11.892,16.985,11.442,17.134,10.967,17.134z M16.548,9.629c-0.098,0-0.2,0.017-0.299,0.05 c-0.351,0.119-0.669,0.403-0.978,0.679l-1.625,1.467c-0.004,0.004-0.009,0.008-0.013,0.011c-1.116,0.93-2.026,1.867-3.046,3.137 c-0.175,0.218-0.361,0.469-0.353,0.675c0.008,0.207,0.253,0.423,0.537,0.471c0.366,0.07,0.781-0.073,1.141-0.217 c1.829-0.729,3.423-2.041,4.491-3.694c0.445-0.689,0.671-1.262,0.712-1.8c0.021-0.273-0.023-0.491-0.123-0.612 C16.903,9.688,16.735,9.629,16.548,9.629z M13.313,11.451h0.01H13.313z"/></svg>