<svg xmlns="http://www.w3.org/2000/svg" viewBox="0 0 100 100"><path d="M 19 22 C 14.041484 22 10 26.041484 10 31 L 10 69 C 10 73.958516 14.041484 78 19 78 L 81 78 C 85.958516 78 90 73.958516 90 69 L 90 31 C 90 26.041484 85.958516 22 81 22 L 19 22 z M 19 24 L 81 24 C 84.877484 24 88 27.122516 88 31 L 88 69 C 88 72.877484 84.877484 76 81 76 L 19 76 C 15.122516 76 12 72.877484 12 69 L 12 31 C 12 27.122516 15.122516 24 19 24 z M 35.941406 34 A 0.50005 0.50005 0 0 0 35.490234 34.277344 L 30.529297 44.248047 L 19.429688 45.845703 A 0.50005 0.50005 0 0 0 19.152344 46.699219 L 27.181641 54.458984 L 25.287109 65.414062 A 0.50005 0.50005 0 0 0 26.009766 65.943359 L 35.939453 60.767578 L 45.867188 65.943359 A 0.50005 0.50005 0 0 0 46.591797 65.414062 L 44.697266 54.458984 L 52.726562 46.699219 A 0.50005 0.50005 0 0 0 52.451172 45.845703 L 41.349609 44.248047 L 36.384766 34.277344 A 0.50005 0.50005 0 0 0 35.941406 34 z M 56.5 34 A 0.50005 0.50005 0 1 0 56.5 35 L 69.5 35 A 0.50005 0.50005 0 1 0 69.5 34 L 56.5 34 z M 72.5 34 A 0.50005 0.50005 0 1 0 72.5 35 L 81.5 35 A 0.50005 0.50005 0 1 0 81.5 34 L 72.5 34 z M 35.9375 35.621094 L 40.572266 44.927734 A 0.50005 0.50005 0 0 0 40.947266 45.199219 L 51.298828 46.689453 L 43.8125 53.923828 A 0.50005 0.50005 0 0 0 43.666016 54.369141 L 45.433594 64.589844 L 36.169922 59.759766 A 0.50005 0.50005 0 0 0 35.707031 59.759766 L 26.443359 64.589844 L 28.212891 54.369141 A 0.50005 0.50005 0 0 0 28.068359 53.923828 L 20.580078 46.689453 L 30.931641 45.199219 A 0.50005 0.50005 0 0 0 31.308594 44.927734 L 35.9375 35.621094 z M 56.5 38 A 0.50005 0.50005 0 1 0 56.5 39 L 75.5 39 A 0.50005 0.50005 0 1 0 75.5 38 L 56.5 38 z M 57 67 A 1 1 0 0 0 57 69 A 1 1 0 0 0 57 67 z M 61 67 A 1 1 0 0 0 61 69 A 1 1 0 0 0 61 67 z M 65 67 A 1 1 0 0 0 65 69 A 1 1 0 0 0 65 67 z M 69 67 A 1 1 0 0 0 69 69 A 1 1 0 0 0 69 67 z M 73 67 A 1 1 0 0 0 73 69 A 1 1 0 0 0 73 67 z M 77 67 A 1 1 0 0 0 77 69 A 1 1 0 0 0 77 67 z M 81 67 A 1 1 0 0 0 81 69 A 1 1 0 0 0 81 67 z"/></svg>