<svg xmlns="http://www.w3.org/2000/svg" viewBox="0 0 128 128"><path fill="#fff" d="M29,73v11c0,19.3,15.7,35,35,35s35-15.7,35-35V73"/><path fill="#71c2ff" d="M106 83A20 20 0 1 0 106 123A20 20 0 1 0 106 83Z" transform="rotate(-45.001 106 103.002)"/><path fill="#fff" d="M119.2,105.4L119.2,105.4c-6.6,8.8-19.8,8.8-26.4,0l0,0c-1.1-1.4-1.1-3.4,0-4.8l0,0c6.6-8.8,19.8-8.8,26.4,0l0,0C120.3,102,120.3,104,119.2,105.4z"/><path fill="#71c2ff" d="M106 98A5 5 0 1 0 106 108A5 5 0 1 0 106 98Z" transform="rotate(-45.001 106 103.002)"/><g><path fill="#fff" d="M100,62H28c-3.3,0-6,2.7-6,6v0c0,3.3,2.7,6,6,6h72c3.3,0,6-2.7,6-6v0C106,64.7,103.3,62,100,62z"/><path fill="#444b54" d="M64 122c-21 0-38-17-38-38 0-1.7 1.3-3 3-3s3 1.3 3 3c0 17.6 14.4 32 32 32 4.1 0 8.2-.8 12-2.3 1.5-.6 3.3.1 3.9 1.7.6 1.5-.1 3.3-1.7 3.9C73.7 121.1 68.9 122 64 122zM100 77H43c-1.7 0-3-1.3-3-3s1.3-3 3-3h57c1.7 0 3-1.3 3-3s-1.3-3-3-3H28c-1.7 0-3 1.3-3 3s1.3 3 3 3c1.7 0 3 1.3 3 3s-1.3 3-3 3c-5 0-9-4-9-9s4-9 9-9h72c5 0 9 4 9 9S105 77 100 77z"/><path fill="#444b54" d="M39,65c-1.7,0-3-1.3-3-3V37C36,21.6,48.6,9,64,9s28,12.6,28,28c0,1.7-1.3,3-3,3s-3-1.3-3-3c0-12.1-9.9-22-22-22s-22,9.9-22,22v25C42,63.7,40.7,65,39,65z"/></g><g><path fill="#444b54" d="M64,104c-1.7,0-3-1.3-3-3v-7c0-1.7,1.3-3,3-3s3,1.3,3,3v7C67,102.7,65.7,104,64,104z"/></g></svg>