<svg xmlns="http://www.w3.org/2000/svg" viewBox="0 0 26 26"><path d="M 13.25 0 L 10.53125 4.59375 L 5.5625 2.53125 L 6 7.875 L 0.84375 9.0625 L 4.625 12.65625 L 0.46875 16.875 L 6 17.8125 L 5.125 23.90625 L 10.28125 20.90625 L 13 26 L 15.71875 21.15625 L 20.5625 23.65625 L 20.4375 18.125 L 25.53125 17.5 L 22.0625 13.15625 L 25.46875 9.0625 L 20.5 8.1875 L 20.875 2.65625 L 15.71875 4.65625 Z M 17.90625 6.21875 L 17.78125 11.65625 L 20.8125 15.4375 L 15.90625 16.8125 L 13.1875 21.03125 L 10.34375 16.8125 L 5.5 15.125 L 8.59375 11.21875 C 8.59375 11.21875 8.15625 6.21875 8.34375 6.28125 C 8.53125 6.34375 13 8.125 13 8.125 Z M 10 10 L 10 12 L 16 12 L 16 10 Z M 10 13 L 10 15 L 16 15 L 16 13 Z"/></svg>