<?xml version="1.0"?><svg xmlns="http://www.w3.org/2000/svg" viewBox="0 0 128 128">    <path d="M 32 31 C 27.6 31 24 34.6 24 39 L 24 119 C 24 119.7 24.100781 120.4 24.300781 121 L 20 121 C 18.3 121 17 122.3 17 124 C 17 125.7 18.3 127 20 127 L 124 127 C 125.7 127 127 125.7 127 124 C 127 122.3 125.7 121 124 121 L 119.69922 121 C 119.89922 120.4 120 119.7 120 119 L 120 39 C 120 34.6 116.4 31 112 31 L 64 31 C 62.3 31 61 32.3 61 34 L 61 53 C 61 54.7 62.3 56 64 56 L 80 56 C 81.7 56 83 54.7 83 53 L 83 37 L 112 37 C 113.1 37 114 37.9 114 39 L 114 119 C 114 120.1 113.1 121 112 121 L 32 121 C 30.9 121 30 120.1 30 119 L 30 39 C 30 37.9 30.9 37 32 37 L 51 37 C 52.7 37 54 35.7 54 34 C 54 32.3 52.7 31 51 31 L 32 31 z M 46 86 C 44.3 86 43 87.3 43 89 L 43 106 L 38 106 C 36.3 106 35 107.3 35 109 C 35 110.7 36.3 112 38 112 L 66 112 C 67.7 112 69 110.7 69 109 C 69 107.3 67.7 106 66 106 L 62 106 L 62 89 C 62 87.3 60.7 86 59 86 C 57.3 86 56 87.3 56 89 L 56 106 L 49 106 L 49 89 C 49 87.3 47.7 86 46 86 z M 4 120.97461 C 3.225 120.97461 2.4503906 121.25078 1.9003906 121.80078 C 1.8003906 121.90078 1.6 122.10078 1.5 122.30078 C 1.4 122.50078 1.2992187 122.60078 1.1992188 122.80078 C 1.0992187 123.00078 1.1 123.20039 1 123.40039 C 1 123.60039 0.90039062 123.8 0.90039062 124 C 0.90039062 124.2 0.9 124.39961 1 124.59961 C 1 124.79961 1.0992188 124.99922 1.1992188 125.19922 C 1.2992188 125.39922 1.4 125.59922 1.5 125.69922 C 1.6 125.89922 1.7003906 125.99922 1.9003906 126.19922 C 2.5003906 126.79922 3.2 127.09961 4 127.09961 C 4.2 127.09961 4.3996094 127.1 4.5996094 127 C 4.7996094 127 4.9992188 126.90078 5.1992188 126.80078 C 5.3992188 126.70078 5.5992188 126.6 5.6992188 126.5 C 5.8992188 126.4 5.9996094 126.29961 6.0996094 126.09961 C 6.1996094 125.99961 6.4 125.79961 6.5 125.59961 C 6.6 125.39961 6.7007812 125.29961 6.8007812 125.09961 C 6.9007812 124.89961 6.9 124.7 7 124.5 C 7 124.3 7.0996094 124.10039 7.0996094 123.90039 C 7.0996094 123.70039 7.1 123.50078 7 123.30078 C 6.9 123.20078 6.8007813 123.00078 6.8007812 122.80078 C 6.7007813 122.60078 6.6 122.50078 6.5 122.30078 C 6.4 122.10078 6.2996094 122.00078 6.0996094 121.80078 C 5.5496094 121.25078 4.775 120.97461 4 120.97461 z"/></svg>