<svg xmlns="http://www.w3.org/2000/svg" viewBox="0 0 48 48"><path fill="#16b7b8" d="M37.652,23.574c-1.496,1.163-2.67,1.839-4.436,2.526c-0.262,0.102-0.537,0.206-0.721,0.418 c-0.265,0.306-0.271,0.75-0.264,1.154c0.031,1.775,0.063,3.55,0.094,5.325c0.004,0.242,0.011,0.493,0.12,0.708 c0.162,0.319,0.511,0.489,0.834,0.641c1.647,0.771,3.272,1.622,4.692,2.759c2.068,1.655,4.112,3.932,6.588,4.874 c0.178,0.068,0.38,0.127,0.554,0.051c0.273-0.12,0.315-0.482,0.317-0.78c0.022-3.989-0.434-7.98-0.622-11.965 c-0.073-1.538-0.161-3.083,0.005-4.614c0.204-1.889,0.792-3.766,0.567-5.653c-0.013-0.107-0.033-0.224-0.113-0.296 c-0.092-0.082-0.23-0.079-0.351-0.063c-0.676,0.093-1.277,0.465-1.848,0.837C41.016,20.829,39.535,22.012,37.652,23.574z"/><path fill="#127272" d="M17.925,20.589c-2.218,0.406-4.263-0.005-6.518,0.004c-1.36,0.006-2.769,0.021-4.004,0.592 c-1.57,0.725-2.676,2.364-2.761,4.091c-0.039,0.806,0.126,1.605,0.217,2.407c0.48,4.213-1.076,7.48-0.477,11.678 c0.067,0.468,0.19,0.98,0.578,1.25c0.216,0.15,0.483,0.202,0.742,0.246c2.446,0.42,4.946,0.527,7.419,0.318 c0.962-0.081,1.919-0.21,2.879-0.303c4.681-0.449,9.395,0.245,14.095,0.39c0.948,0.029,1.908,0.046,2.83-0.178 c0.921-0.224,1.813-0.716,2.328-1.512c0.739-1.14,0.572-1.616,0.447-2.969c-0.395-4.275-0.093-8.842-0.126-13.136 c-0.008-1.055-0.068-2.199-0.744-3.009c-0.417-0.5-1.024-0.807-1.646-0.998c-2.549-0.784-5.262,0.202-7.917,0.451 C22.726,20.149,20.435,20.129,17.925,20.589z"/><path fill="#16b7b8" d="M4.841,27.223c-0.659-0.028-0.663,0.052-1.309,0.183c-0.192,0.039-0.392,0.09-0.533,0.225 c-0.212,0.204-0.228,0.531-0.231,0.825c-0.021,2.516-0.043,5.032-0.064,7.549c-0.001,0.074,0.003,0.158,0.06,0.205 c0.037,0.031,0.089,0.037,0.137,0.042c0.623,0.055,0.864,0.094,1.446-0.135L4.841,27.223z"/><path fill="#010101" d="M45.31,29.26l-0.01-0.25c-0.07-1.41-0.14-2.88,0.01-4.29c0.06-0.59,0.17-1.19,0.27-1.78 c0.23-1.3,0.46-2.63,0.3-3.98c-0.02-0.12-0.05-0.41-0.28-0.61c-0.28-0.25-0.64-0.2-0.75-0.19c-0.76,0.11-1.41,0.49-2.06,0.92 c-2.14,1.39-3.67,2.63-5.45,4.1c-0.45,0.348-0.861,0.638-1.268,0.907c0-0.211,0.004-0.409,0.002-0.625 c-0.008-1.12-0.082-2.393-0.86-3.325c-0.43-0.515-1.063-0.903-1.883-1.155c-1.911-0.59-3.885-0.244-5.794,0.088 c-0.764,0.134-1.554,0.271-2.316,0.343c-0.868,0.082-1.706,0.133-2.533,0.184c-1.632,0.1-3.174,0.194-4.852,0.501 c-1.396,0.256-2.726,0.174-4.134,0.086c-0.74-0.046-1.504-0.08-2.297-0.09c-1.339,0.006-2.857,0.013-4.212,0.638 c-1.731,0.799-2.958,2.616-3.051,4.521c-0.025,0.51,0.029,1.005,0.093,1.492c-0.132,0.017-0.25,0.043-0.392,0.079 c-0.105,0.027-0.231,0.059-0.408,0.095C3.163,26.97,2.881,27.05,2.653,27.27c-0.378,0.363-0.382,0.896-0.385,1.183l-0.064,7.55 c0,0.096-0.002,0.388,0.247,0.598c0.161,0.13,0.343,0.145,0.407,0.149l0.103,0.009c0.209,0.02,0.388,0.036,0.563,0.036 c0.121,0,0.245-0.016,0.371-0.036c0.011,0.605,0.045,1.23,0.142,1.906c0.015,0.102,0.023,0.244,0.035,0.405 c0.062,0.911,0.145,1.633,0.603,1.952c0.292,0.202,0.612,0.271,0.942,0.328c1.663,0.285,3.349,0.429,5.036,0.429 c0.837,0,1.675-0.036,2.51-0.106c0.542-0.046,1.082-0.107,1.622-0.168c0.42-0.047,0.841-0.095,1.263-0.135 c3.119-0.299,6.329-0.08,9.432,0.134c1.507,0.104,3.064,0.21,4.6,0.258c1.055,0.029,2.005,0.039,2.963-0.191 c1.157-0.281,2.091-0.895,2.629-1.727c0.606-0.935,0.678-2.148,0.62-3.311c0.471,0.298,0.934,0.617,1.368,0.968 c0.56,0.44,1.11,0.93,1.68,1.43c1.55,1.38,3.16,2.8,5.04,3.51c0.11,0.05,0.31,0.13,0.55,0.13c0.12,0,0.25-0.03,0.38-0.08 c0.61-0.27,0.62-1,0.62-1.24c0.01-2.57-0.17-5.18-0.35-7.7C45.48,32.12,45.38,30.69,45.31,29.26z M3.206,35.776l0.062-7.316 c0.001-0.108,0.003-0.397,0.078-0.47c0.049-0.047,0.219-0.081,0.285-0.094c0.198-0.04,0.339-0.076,0.456-0.105 c0.11-0.027,0.188-0.045,0.274-0.058c0,0.002,0,0.003,0.001,0.005c0.227,1.99,0.015,3.625-0.189,5.206 c-0.116,0.896-0.229,1.813-0.271,2.797C3.673,35.804,3.505,35.803,3.206,35.776z M34.833,39.3 c-0.399,0.616-1.118,1.077-2.026,1.297c-0.834,0.204-1.715,0.197-2.696,0.164c-1.517-0.047-3.065-0.152-4.563-0.255 c-3.144-0.216-6.394-0.438-9.595-0.133c-0.427,0.041-0.854,0.089-1.28,0.138c-0.531,0.06-1.062,0.119-1.594,0.165 c-2.435,0.206-4.889,0.101-7.292-0.312c-0.223-0.039-0.417-0.078-0.517-0.144c-0.129-0.162-0.179-0.902-0.201-1.219 c-0.013-0.191-0.025-0.359-0.042-0.479c-0.298-2.089-0.087-3.722,0.137-5.451c0.212-1.641,0.432-3.337,0.191-5.447 C5.33,27.409,5.3,27.193,5.271,26.978c-0.081-0.582-0.157-1.132-0.13-1.678c0.075-1.543,1.068-3.014,2.471-3.661 c1.157-0.534,2.56-0.541,3.797-0.546c0.023,0,0.046,0,0.069,0c0.734,0,1.46,0.045,2.163,0.089c1.405,0.087,2.859,0.176,4.375-0.101 h0c1.618-0.297,3.131-0.39,4.733-0.487c0.838-0.051,1.687-0.104,2.566-0.186c0.802-0.075,1.611-0.217,2.395-0.354 c1.875-0.326,3.645-0.634,5.329-0.118c0.631,0.194,1.105,0.478,1.409,0.841c0.566,0.679,0.621,1.702,0.628,2.692 c0.011,1.416-0.015,2.724-0.04,3.994c-0.05,2.588-0.099,5.033,0.171,7.956C35.324,36.709,35.471,38.313,34.833,39.3z M44.91,41.56 c-0.02,0-0.08-0.01-0.17-0.05c-1.72-0.65-3.25-2.01-4.74-3.33c-0.58-0.51-1.15-1.01-1.72-1.47c-0.668-0.526-1.37-0.987-2.081-1.401 c0-0.005-0.001-0.01-0.001-0.015c-0.262-2.833-0.214-5.251-0.164-7.811c0.014-0.72,0.026-1.46,0.034-2.216 c0.617-0.37,1.226-0.777,1.892-1.297c0-0.01,0.01-0.01,0.01-0.01c1.76-1.46,3.27-2.68,5.37-4.05c0.52-0.34,1-0.63,1.55-0.74 c0.13,1.18-0.08,2.35-0.29,3.59c-0.11,0.62-0.22,1.24-0.28,1.86c-0.16,1.48-0.09,2.99-0.02,4.44l0.01,0.25 c0.07,1.43,0.17,2.87,0.27,4.31c0.18,2.5,0.36,5.09,0.35,7.63C44.93,41.45,44.9,41.54,44.91,41.56z"/><path fill="#127272" d="M19.404,12.878c-0.296-2.94-3.045-5.416-5.929-6.206S7.312,6.701,5.155,8.749 C2.787,11,1.903,14.661,3.027,17.711s4.21,5.302,7.495,5.43c3.284,0.127,6.558-1.902,7.832-4.893 C19.045,16.624,19.58,14.631,19.404,12.878z"/><path fill="#010101" d="M10.823,23.646c-0.107,0-0.213-0.002-0.321-0.006c-3.479-0.136-6.745-2.503-7.944-5.757 c-1.182-3.208-0.255-7.113,2.253-9.497c2.288-2.173,5.742-3.031,8.796-2.197c2.875,0.788,5.96,3.321,6.294,6.639l0,0 c0.216,2.157-0.589,4.444-1.088,5.616C17.493,21.543,14.239,23.646,10.823,23.646z M11.222,6.873c-2.101,0-4.201,0.794-5.722,2.238 c-2.228,2.117-3.051,5.583-2.003,8.427c1.063,2.885,3.96,4.982,7.045,5.103c3.08,0.142,6.169-1.812,7.353-4.589 c0.461-1.083,1.207-3.189,1.013-5.124c-0.289-2.869-3.018-5.076-5.564-5.773C12.651,6.965,11.936,6.873,11.222,6.873z"/><path fill="#127272" d="M33.886,5.331c-2.629-1.071-6.005-1.126-8.334,0.497c-0.946,0.659-1.667,1.6-2.23,2.607 c-1.528,2.735-1.945,6.07-1.138,9.097c0.152,0.571,0.35,1.138,0.682,1.627c0.39,0.573,0.944,1.01,1.489,1.437 c0.859,0.673,1.734,1.355,2.751,1.75c0.686,0.266,1.418,0.394,2.151,0.456c3.041,0.258,6.367-0.785,8.076-3.314 c0.688-1.018,1.077-2.206,1.403-3.391c0.51-1.855,0.884-3.848,0.299-5.68C38.29,8.083,36.155,6.256,33.886,5.331z"/><path fill="#010101" d="M30.167,23.341c-0.315,0-0.632-0.013-0.951-0.04c-0.887-0.074-1.637-0.234-2.29-0.488 c-1.096-0.427-2.043-1.168-2.878-1.822c-0.543-0.426-1.159-0.908-1.595-1.55c-0.404-0.595-0.614-1.264-0.751-1.779 c-0.843-3.162-0.412-6.613,1.184-9.471c0.677-1.211,1.479-2.144,2.381-2.772c2.278-1.587,5.734-1.801,8.808-0.55 c2.673,1.089,4.706,3.107,5.438,5.397c0.638,1.999,0.209,4.137-0.294,5.965c-0.327,1.191-0.731,2.446-1.471,3.539 C36.245,21.993,33.337,23.341,30.167,23.341z M29.987,5.055c-1.559,0-3.023,0.399-4.149,1.184c-0.777,0.541-1.477,1.362-2.079,2.44 c-1.47,2.632-1.868,5.812-1.091,8.725c0.118,0.439,0.293,1.005,0.613,1.475c0.349,0.513,0.875,0.926,1.384,1.325 c0.818,0.642,1.665,1.305,2.624,1.678c0.563,0.219,1.221,0.357,2.012,0.424c3.176,0.268,6.167-0.946,7.62-3.096 c0.657-0.973,1.03-2.134,1.334-3.243c0.465-1.688,0.864-3.647,0.306-5.396c-0.633-1.981-2.496-3.812-4.862-4.776l0,0 C32.482,5.299,31.206,5.055,29.987,5.055z"/><path fill="#16b7b8" d="M11.945,13.477c-0.447-0.236-0.944-0.379-1.45-0.358c-0.446,0.018-0.903,0.15-1.232,0.451 c-0.598,0.546-0.608,1.566-0.114,2.207c0.494,0.641,1.379,0.905,2.178,0.776c0.252-0.041,0.501-0.117,0.72-0.248 c0.49-0.292,0.799-0.864,0.776-1.434C12.799,14.3,12.457,13.728,11.945,13.477z"/><path fill="#010101" d="M12.197,13.045c-1.14-0.55-2.838-0.699-3.6,0.555c-0.62,1.019-0.234,2.377,0.736,3.018 c1.02,0.675,2.633,0.659,3.467-0.311C13.698,15.263,13.349,13.725,12.197,13.045c-0.555-0.328-1.059,0.536-0.505,0.863 c0.726,0.429,0.879,1.48,0.102,1.964c-0.56,0.349-1.436,0.268-1.957-0.117c-0.493-0.365-0.737-1.105-0.377-1.65 c0.483-0.733,1.583-0.509,2.232-0.196C12.27,14.187,12.778,13.325,12.197,13.045z"/><path fill="#16b7b8" d="M31.825,12.702c-0.343-0.339-0.59-0.397-1.065-0.477c-0.281-0.047-0.57-0.095-0.85-0.038 c-0.426,0.087-0.768,0.402-1.05,0.733c-0.162,0.19-0.318,0.401-0.353,0.647c-0.023,0.165,0.01,0.332,0.053,0.493 c0.133,0.49,0.374,0.959,0.743,1.308c0.369,0.348,0.875,0.566,1.382,0.531c0.5-0.035,0.968-0.315,1.269-0.716 c0.3-0.401,0.438-0.912,0.421-1.412C32.359,13.266,32.185,13.057,31.825,12.702z"/><path fill="#010101" d="M32.179,12.348c-0.919-0.821-2.432-0.953-3.369-0.099c-0.468,0.426-0.866,0.973-0.792,1.633 c0.075,0.668,0.448,1.379,0.933,1.84C31.173,17.834,34.222,14.417,32.179,12.348c-0.453-0.459-1.16,0.249-0.707,0.707 c1.127,1.141-0.484,3.167-1.814,1.96c-0.6-0.545-0.863-1.487-0.141-2.059c0.542-0.43,1.44-0.361,1.955,0.099 C31.95,13.483,32.66,12.778,32.179,12.348z"/><path fill="#16b7b8" d="M25.339,26.391c-2.631,0.484-4.957,0.036-7.435,0.091c-0.674,0.015-1.485,0.116-1.771,0.726 c-0.178,0.38-0.077,0.825-0.001,1.238c0.18,0.987,0.19,2.005,0.029,2.996c-0.055,0.341-0.08,0.787,0.235,0.931 c0.084,0.038,0.178,0.045,0.27,0.05c2.982,0.187,5.973,0.221,8.959,0.103c0.223-0.009,0.464-0.026,0.631-0.173 c0.208-0.183,0.225-0.494,0.228-0.771c0.013-1.456,0.026-2.911,0.039-4.367c0.002-0.198,0.002-0.403-0.083-0.581 C26.354,26.456,25.533,26.355,25.339,26.391z"/><path fill="#010101" d="M22.156,33.095c-1.845,0-3.691-0.058-5.522-0.172c-0.11-0.007-0.276-0.018-0.445-0.095 c-0.47-0.213-0.646-0.706-0.521-1.466c0.153-0.939,0.144-1.89-0.027-2.825c-0.095-0.512-0.194-1.041,0.04-1.541 c0.457-0.976,1.732-1.003,2.213-1.014c0.889-0.015,1.761,0.024,2.605,0.066c1.593,0.078,3.099,0.154,4.751-0.15 c0.115-0.019,1.368-0.054,1.642,0.521c0.135,0.286,0.133,0.583,0.131,0.8l-0.039,4.367c-0.002,0.279-0.007,0.798-0.398,1.142 c-0.308,0.272-0.705,0.288-0.942,0.298C24.485,33.072,23.321,33.095,22.156,33.095z M16.671,31.924 c0.009,0,0.019,0.001,0.026,0.001c2.952,0.185,5.95,0.221,8.907,0.102c0.185-0.007,0.292-0.023,0.32-0.048 c0.021-0.019,0.057-0.095,0.059-0.4l0.039-4.367c0-0.083,0.001-0.174-0.007-0.249c-0.173-0.047-0.48-0.089-0.593-0.078 c-1.763,0.322-3.394,0.242-4.973,0.163c-0.828-0.042-1.684-0.082-2.533-0.064c-0.764,0.017-1.199,0.16-1.33,0.438 c-0.097,0.209-0.04,0.52,0.021,0.849c0.208,1.137,0.219,2.202,0.048,3.255c-0.04,0.244-0.027,0.36-0.017,0.407 C16.644,31.925,16.657,31.924,16.671,31.924z M26.112,26.996L26.112,26.996L26.112,26.996z M25.339,26.391h0.01H25.339z"/></svg>