<svg xmlns="http://www.w3.org/2000/svg" viewBox="0 0 40 40"><path fill="#f5ce85" d="M3.5,4.5h30v23h-30V4.5z"/><path fill="#967a44" d="M33,5v22H4V5H33z M34,4H3v24h31V4z"/><rect width="32" height="4" x="2.5" y=".5" fill="#f5ce85"/><path fill="#967a44" d="M34,1v3H3V1H34 M35,0H2v5h33V0L35,0z"/><polygon fill="#967a44" points="16,22.414 10.043,16.457 11.457,15.043 16,19.586 26.543,9.043 27.957,10.457"/><path fill="#e1f5ff" d="M33.5,27.5H1v10h32.5c2.757,0,5-2.243,5-5S36.257,27.5,33.5,27.5z"/><path fill="#7496c4" d="M33.5,27H1v1h32.5c2.481,0,4.5,2.019,4.5,4.5S35.981,37,33.5,37H1v1h32.5c3.025,0,5.5-2.475,5.5-5.5	S36.525,27,33.5,27z"/><circle cx="33.5" cy="32.5" r="2.5" fill="#b5ddf5"/><circle cx="26.5" cy="32.5" r="2.5" fill="#b5ddf5"/><circle cx="19.5" cy="32.5" r="2.5" fill="#b5ddf5"/><circle cx="12.5" cy="32.5" r="2.5" fill="#b5ddf5"/><circle cx="5.5" cy="32.5" r="2.5" fill="#b5ddf5"/></svg>