<svg xmlns="http://www.w3.org/2000/svg" viewBox="0 0 100 100"><path fill="#fff" d="M19.8 54.9A.9.9 0 1 0 19.8 56.699999999999996.9.9 0 1 0 19.8 54.9zM78.9 30.3A.7.7 0 1 0 78.9 31.7.7.7 0 1 0 78.9 30.3z"/><path fill="#f1bc19" d="M76.3 11A.9.9 0 1 0 76.3 12.8.9.9 0 1 0 76.3 11zM20.3 62.6A.9.9 0 1 0 20.3 64.4.9.9 0 1 0 20.3 62.6z"/><path fill="#c0e5e4" d="M49.1 11.700000000000003A37.5 37.5 0 1 0 49.1 86.7A37.5 37.5 0 1 0 49.1 11.700000000000003Z"/><path fill="#f1bc19" d="M81.7 10.1A4 4 0 1 0 81.7 18.1A4 4 0 1 0 81.7 10.1Z"/><path fill="#ee3e54" d="M85.7 21.3A1.9 1.9 0 1 0 85.7 25.099999999999998A1.9 1.9 0 1 0 85.7 21.3Z"/><path fill="#fbcd59" d="M76.7 73.69999999999999A1.9 1.9 0 1 0 76.7 77.5 1.9 1.9 0 1 0 76.7 73.69999999999999zM13.5 58.6A4 4 0 1 0 13.5 66.6 4 4 0 1 0 13.5 58.6z"/><path fill="#ee3e54" d="M23.8 84.89999999999999A1.9 1.9 0 1 0 23.8 88.7A1.9 1.9 0 1 0 23.8 84.89999999999999Z"/><path fill="#fff" d="M75.4 27.7A1.8 1.8 0 1 0 75.4 31.3 1.8 1.8 0 1 0 75.4 27.7zM17.3 48A2.5 2.5 0 1 0 17.3 53 2.5 2.5 0 1 0 17.3 48z"/><path fill="#472b29" d="M36.9,41.4c0.5,1-0.3,2.3-1.3,2.9s-2.2,0.8-3.2,1.4c-2.1,1.3-2.7,4-1.5,6.1c0.7,1.1,1.9,1.9,3.2,2.1 c-1.8,0.4-3,2.1-2.7,3.9c0.3,1.8,1.6,3.2,3.3,3.8c1.7,0.5,3.5,0.6,5.3,0.1c2.7,2.5,6.7,3,9.9,1.2"/><path fill="#472b29" d="M62.6,41.4c-0.5,1,0.3,2.3,1.3,2.9c1,0.6,2.2,0.8,3.2,1.4c2.1,1.3,2.8,4,1.5,6 c-0.7,1.2-1.9,1.9-3.2,2.1c1.8,0.4,3,2.1,2.7,3.9c-0.3,1.8-1.6,3.2-3.3,3.8C63,62,61.2,62,59.5,61.6c-2.7,2.5-6.7,3-9.9,1.2"/><path fill="#d8ad8f" d="M60.7,41.3c0.1-1.5,0.6-3.3,0.7-4L60.3,34c-1.3-1.7-2.2-3.1-4-4.3c-2-1.3-4.6-0.5-6.9-1.1 c-5.7-1.4-10.9,4.3-12.7,9.7c0,0,0,0.1,0,0.1c0.2,1,0.3,2,0.4,2.9c-1.5,0-2.3,0.8-1.8,2.4c0,0,0.6,2.6,1,3.9 c0.1,0.7,0.8,1.2,1.5,1.2c0,0.8,0,1.7,0,2.5c0,1,0.3,2,0.9,2.8c1.5,2.2,9.2,7.2,11.1,7c3,0,9-5.1,10.6-7.7c0.3-0.5,0.5-1.1,0.5-1.7 c0-1,0-2,0-3c0.6-0.1,1.1-0.6,1.3-1.2c0.4-1.3,1-3.9,1-3.9C63.4,42.1,62.2,41.3,60.7,41.3z"/><path fill="#b2876b" d="M65.3,66.9c-0.1,0-0.2-0.1-0.3-0.1l-0.6-0.2c-1.2-0.5-9.3-3.3-9.3-3.3c-0.6-0.1-1-0.5-1.2-1.1 c-0.2-0.9-0.3-1.9-0.2-2.9c-1.4,0.6-2.8,1.1-4.2,1.4c-1.9,0.2-5.2-2.3-5.2-2.3s-0.1,3-0.2,3.7c-0.2,0.6-0.7,1-1.3,1.1l-7.7,2.6 c-2.7,0.7-4.9,2.8-5.5,5.6h0c0,0.2-0.1,0.4-0.1,0.6c-0.1,0.4-0.1,0.9-0.1,1.3c0,0.5-0.1,7.3-0.1,7.8c7,4,11.7,5.4,22.2,5.4 c4.6,0,14-4.1,17.6-6C68.7,71.2,69.6,68.2,65.3,66.9z"/><path fill="#472b29" d="M37.9 49.6c-.1 0-.2-.1-.2-.2l-.8-8.1c0-.1.1-.2.2-.2.1 0 .2.1.2.2l.8 8.1C38.1 49.5 38 49.6 37.9 49.6 37.9 49.6 37.9 49.6 37.9 49.6zM60.4 49.1C60.4 49.1 60.4 49.1 60.4 49.1c-.1 0-.2-.1-.2-.2l.5-8.1c0-.1.1-.2.2-.2.1 0 .2.1.2.2l-.5 8.1C60.6 49 60.5 49.1 60.4 49.1z"/><path fill="#e0a825" d="M40.3,64.1c-0.2,9,17.4,9.6,16.2-0.7l4.9,1.7L62.8,84c0,0-14.3,5.7-28.4-0.1l0.6-18L40.3,64.1z"/><path fill="#f1bc19" d="M69.1 80.6L62.8 84l-1.5-18.9c0 0 4.7 1.1 6.2 3.6C69.6 71.9 69.1 80.6 69.1 80.6zM29.3 81.2c.2 1 6.2 3.1 6.2 3.1l1.1-18.5c0 0-4.9 1-6.2 3.6C28.7 72.6 29.1 80.2 29.3 81.2z"/><path fill="#472b29" d="M49.6,60.9c-1.9,0-5-1.7-5.2-1.7c-0.1-0.1-0.2-0.2-0.1-0.3c0.1-0.1,0.2-0.2,0.3-0.1 c0,0,3.4,1.8,5.1,1.7c1.5-0.3,3-0.8,4.3-1.6c0.1-0.1,0.3,0,0.3,0.1s0,0.3-0.1,0.3c-1.4,0.8-2.9,1.4-4.5,1.6 C49.8,60.9,49.7,60.9,49.6,60.9z"/><path fill="#fbcd59" d="M44.4 30A1.5 1.5 0 1 0 44.4 33A1.5 1.5 0 1 0 44.4 30Z"/><path fill="#033b55" d="M36.9,43.1c0-0.2,0-0.4,0-0.7l-1.6,0.3l0.6,3l0.6-0.1L36,43.2L36.9,43.1z"/><path fill="#472b29" d="M49.3,49.7c0.8,0,1.6-0.4,2.2-1c0.1,0,0.1-0.1,0-0.2 c0,0,0,0,0,0l0,0c-0.1-0.1-0.1-0.1-0.2,0c0,0,0,0,0,0c-1.1,1-2.8,1-3.9,0c0,0-0.1,0-0.1,0c0,0-0.1,0-0.1,0c-0.1,0.1-0.1,0.1,0,0.2 c0,0,0,0,0,0C47.7,49.3,48.5,49.6,49.3,49.7z" opacity=".41"/><path fill="#472b29" d="M46.6 38.7l.5-1c-2.3-.5-4.7-.4-7 .2l.7 1C42.7 38.3 44.7 38.2 46.6 38.7zM57.9 38.7l.5-1c-2.3-.5-4.7-.4-7 .2l.7 1C54 38.3 56 38.2 57.9 38.7zM43.2 40.1c-.6 0-1.1.4-1.3.9.1 0 .1 0 .2 0 .5 0 .9.4.9.9 0 .5-.4.9-.9.9-.1 0-.3 0-.4-.1.1.8.7 1.3 1.5 1.4 1.1-.2 1.8-1.2 1.6-2.3C44.7 41 44 40.3 43.2 40.1L43.2 40.1zM55 40.1c-.5 0-.9.3-1.2.7.1 0 .2-.1.3-.1.5.1.9.5.8 1 0 .4-.4.8-.8.8-.3 0-.5-.2-.7-.4.2.8 1.1 1.4 1.9 1.1.8-.2 1.4-1.1 1.1-1.9C56.3 40.6 55.7 40.1 55 40.1L55 40.1zM55.8 52.2c.1-.1.1-.2 0-.2l0 0c-.1-.1-.1-.1-.2 0-1.9 1.2-4.1 1.9-6.3 1.7C47 53.8 44.9 53.2 43 52c0 0-.1 0-.1 0 0 0-.1 0-.1 0-.1.1-.1.1 0 .2 1.9 1.4 4.2 2.1 6.5 2C51.6 54.3 53.9 53.6 55.8 52.2z"/><path fill="#cd9480" d="M41.7 46.400000000000006A2.3 2.3 0 1 0 41.7 51 2.3 2.3 0 1 0 41.7 46.400000000000006zM56.7 46.400000000000006A2.3 2.3 0 1 0 56.7 51 2.3 2.3 0 1 0 56.7 46.400000000000006z"/><path fill="#472b29" d="M50.8,26.5c1.6,0.5,5.4,2.8,5,5.9c-0.4,3.4,5.7,3.8,4.2,9.8c-0.2,1,1.1,0.7,1.6-0.2 c3-5.5,2.9-11.2-0.1-14.8c-2.8-3.4-9.4-3.6-10.5-2.4c-0.1,0.2-0.2,0.4-0.2,0.6C50.7,25.8,50.6,26.4,50.8,26.5z"/><path fill="#472b29" d="M57.6,26c0-1.9-2.2-3.4-4.1-3.6c-5.8-0.7-13.9,1.6-17.3,6.1s-4.2,13.9-2.2,16.9 c2.2,3.3,3.5,0.4,3.9-1c2.1-7.3,6-6.8,9.5-9c4.7-2.9,2.8-7.3,9.1-4.6C58.1,31.5,57.6,27.6,57.6,26z"/><path fill="#472b29" d="M48.7,87.1c-6.8,0-13.7-1.8-19.7-5.5c-0.1-0.1-0.2-0.2-0.2-0.4c-0.2-5.7,0.4-12.9,4-14.7 c0.7-0.4,1.5-0.7,2.3-0.9l7.8-2.6c0.5-0.1,0.8-0.4,0.9-0.8c0.1-0.4,0.2-2,0.2-2.8c-2.3-1.5-4.9-3.4-5.8-4.7c-0.7-0.9-1-2-0.9-3.1 l0-2.1c-0.7-0.2-1.3-0.8-1.4-1.5c-0.4-1.2-1-3.8-1-3.9c-0.4-1.1-0.1-1.8,0.2-2.2c0.2-0.3,0.7-0.7,1.6-0.8c0-0.2,0-0.3-0.1-0.5 c-0.3-0.6-0.4-1.1-0.5-1.7c0-6.5,5.8-11.8,12.9-11.8c7.1,0,12.9,5.3,12.9,11.8c0,0.7-0.2,1.3-0.5,1.9c0,0.1,0,0.2,0,0.3 c0.8,0.1,1.5,0.4,1.9,1c0.3,0.4,0.6,1.1,0.2,2.1l0,0c-0.1,0.6-0.7,3-1,3.9c-0.1,0.6-0.6,1.2-1.2,1.4V52c0,0.7-0.2,1.3-0.5,1.9 c-1.8,2.4-3.9,4.4-6.4,6.1c0,0.8,0,1.5,0.2,2.3c0.1,0.3,0.4,0.6,0.8,0.7c0.3,0.1,8.1,2.8,9.3,3.3l0.6,0.2c0.1,0,0.2,0.1,0.3,0.1 c3.8,1.2,3.9,6.1,4.1,12.9l0,1c0,0,0,0,0,0c0,0.2-0.1,0.4-0.3,0.5C63.1,85,55.9,87.1,48.7,87.1z M29.7,80.9 c12,7.1,27.2,6.9,38.9-0.6l0-0.7c-0.2-6.7-0.3-11.1-3.4-12c-0.1,0-0.3-0.1-0.4-0.2l-0.6-0.2c-1.2-0.5-9.2-3.2-9.2-3.3 c-0.7-0.2-1.2-0.7-1.5-1.4c-0.3-1-0.3-2-0.3-2.9c0-0.2,0.1-0.3,0.2-0.4c2.5-1.6,4.6-3.5,6.3-5.9c0.2-0.4,0.3-0.9,0.3-1.4v-3 c0-0.3,0.2-0.5,0.4-0.5c0.4-0.1,0.8-0.4,0.8-0.8c0.4-1.2,1-3.7,1-3.9c0.2-0.6,0.2-1-0.1-1.3c-0.3-0.4-0.9-0.6-1.6-0.6 c-0.1,0-0.3,0-0.4-0.1c-0.1-0.1-0.1-0.2-0.1-0.4c0-0.8,0-1.2,0.2-1.4c0.2-0.4,0.3-0.9,0.3-1.4c0-5.9-5.3-10.8-11.9-10.8 c-6.6,0-11.9,4.8-11.9,10.8c0,0.5,0.2,1,0.4,1.4c0,0,0,0.1,0,0.1c0.1,0.4,0.1,0.8,0.1,1.1c0,0.1,0,0.3-0.1,0.4 C37.3,41.9,37.1,42,37,42c-0.4,0-1,0.1-1.3,0.4c-0.3,0.4-0.2,0.9,0,1.3c0,0.1,0.6,2.7,1,3.9c0.1,0.5,0.5,0.9,1,0.9 c0.3,0,0.5,0.2,0.5,0.5v2.5c0,0.9,0.2,1.8,0.8,2.5c0.7,1,3.1,2.9,5.8,4.6c0.1,0.1,0.2,0.3,0.2,0.4c0,0.8-0.2,2.8-0.3,3.4 c-0.3,0.8-0.9,1.4-1.6,1.5l-7.7,2.6c-0.7,0.2-1.4,0.5-2.1,0.9C30.8,68.6,29.6,73.4,29.7,80.9z"/><path fill="#ee3e54" d="M37.4 47.900000000000006A.8.8 0 1 0 37.4 49.5.8.8 0 1 0 37.4 47.900000000000006zM61 47.900000000000006A.8.8 0 1 0 61 49.5.8.8 0 1 0 61 47.900000000000006zM48.2 63.900000000000006A1 1 0 1 0 48.2 65.9 1 1 0 1 0 48.2 63.900000000000006zM50.3 63.900000000000006A1 1 0 1 0 50.3 65.9 1 1 0 1 0 50.3 63.900000000000006z"/><path fill="#ee3e54" d="M46.2 63.7A1 1 0 1 0 46.2 65.7 1 1 0 1 0 46.2 63.7zM52.1 63.7A1 1 0 1 0 52.1 65.7 1 1 0 1 0 52.1 63.7z"/><path fill="#ee3e54" d="M44.7 62.9A1 1 0 1 0 44.7 64.9 1 1 0 1 0 44.7 62.9zM53.9 62.9A1 1 0 1 0 53.9 64.9 1 1 0 1 0 53.9 62.9z"/><g><path fill="#fdfcee" d="M69.7 57.699999999999996A14.4 14.4 0 1 0 69.7 86.5A14.4 14.4 0 1 0 69.7 57.699999999999996Z"/><path fill="#472b29" d="M69.7,86.9c-8.2,0-14.8-6.6-14.8-14.8c0-8.2,6.6-14.8,14.8-14.8s14.8,6.6,14.8,14.8 C84.5,80.2,77.8,86.9,69.7,86.9z M69.7,58c-7.8,0-14.1,6.3-14.1,14.1s6.3,14.1,14.1,14.1s14.1-6.3,14.1-14.1S77.4,58,69.7,58z"/></g><g><path fill="#00a5a5" d="M69.7 60.199999999999996A11.9 11.9 0 1 0 69.7 84A11.9 11.9 0 1 0 69.7 60.199999999999996Z"/><path fill="#472b29" d="M69.7,84.2c-6.7,0-12.2-5.5-12.2-12.2c0-6.7,5.5-12.2,12.2-12.2s12.2,5.5,12.2,12.2 C81.8,78.8,76.4,84.2,69.7,84.2z M69.7,60.4c-6.4,0-11.7,5.2-11.7,11.7s5.2,11.7,11.7,11.7s11.7-5.2,11.7-11.7S76.1,60.4,69.7,60.4 z"/></g><path fill="#77cbd2" d="M69.7,62c5.1,0,9.7,3.1,11.5,7.9c-1.2-6.3-7.3-10.5-13.6-9.3 c-4.7,0.9-8.5,4.6-9.3,9.3C60,65.1,64.6,62,69.7,62z" opacity=".79"/><path fill="#fdfcee" d="M72.3,77c-0.6,0-1.2-0.2-1.6-0.7c-0.4-0.4-0.7-1-0.7-1.6c0-1.3,1-2.3,2.3-2.3s2.3,1,2.3,2.3 c0,0.6-0.2,1.2-0.6,1.6C73.6,76.8,73,77,72.3,77z M72.3,74.2c-0.1,0-0.3,0-0.3,0.1c-0.1,0.1-0.2,0.2-0.2,0.3c0,0.1,0,0.3,0.1,0.3 c0.1,0.1,0.2,0.1,0.3,0.1c0.1,0,0.2-0.1,0.3-0.1c0.2-0.2,0.2-0.5,0-0.7c0,0,0,0,0,0C72.6,74.3,72.5,74.2,72.3,74.2L72.3,74.2z"/><path fill="#472b29" d="M72.3,72.7c1.1,0,2,0.9,2,2c0,1.1-0.9,2-2,2c-1.1,0-2-0.9-2-2c0-0.5,0.2-1.1,0.6-1.4 C71.3,72.9,71.8,72.7,72.3,72.7 M72.4,75.4c0.2,0,0.4-0.1,0.5-0.2c0.1-0.1,0.2-0.3,0.2-0.5c0-0.4-0.3-0.7-0.7-0.7 c-0.2,0-0.4,0.1-0.5,0.2c-0.1,0.1-0.2,0.3-0.2,0.5c0,0.2,0.1,0.4,0.2,0.5C72,75.4,72.2,75.5,72.4,75.4 M72.4,72.2 c-0.7,0-1.3,0.3-1.8,0.8c-1,1-1,2.6,0,3.6c1,1,2.6,1,3.6,0c1-1,1-2.6,0-3.6C73.7,72.4,73,72.2,72.4,72.2z M72.4,74.9 c-0.1,0-0.1,0-0.2-0.1c-0.1-0.1-0.1-0.2,0-0.3c0,0,0,0,0,0c0,0,0.1-0.1,0.2-0.1c0.1,0,0.1,0,0.2,0.1c0,0,0.1,0.1,0.1,0.2 c0,0.1,0,0.1-0.1,0.2C72.5,74.9,72.4,75,72.4,74.9z"/><path fill="#fdfcee" d="M66.2,72c-0.6,0-1.2-0.2-1.6-0.7c-0.9-0.9-0.9-2.3,0-3.2c0.4-0.4,1-0.7,1.6-0.7c1.3,0,2.3,1,2.3,2.3 S67.4,72,66.2,72z M66.2,69.2c-0.1,0-0.3,0-0.3,0.1c-0.1,0.1-0.1,0.2-0.1,0.3c0,0.1,0,0.3,0.1,0.3c0.1,0.1,0.2,0.1,0.3,0.1 c0.1,0,0.3-0.1,0.3-0.2c0.1-0.1,0.1-0.2,0.1-0.3c0-0.1-0.1-0.3-0.2-0.3C66.4,69.3,66.3,69.2,66.2,69.2L66.2,69.2z"/><path fill="#472b29" d="M66.2,67.7c1.1,0,2,0.9,2,2s-0.9,2-2,2c-1.1,0-2-0.9-2-2S65.1,67.8,66.2,67.7 M66.2,70.6 c0.4,0,0.7-0.3,0.7-0.7c0-0.2-0.1-0.4-0.2-0.5c-0.3-0.3-0.8-0.3-1,0c-0.3,0.3-0.3,0.8,0,1C65.8,70.5,66,70.6,66.2,70.6 M66.2,67.3 c-1.4,0-2.5,1.1-2.5,2.5c0,0.7,0.3,1.3,0.7,1.8c0.5,0.5,1.1,0.8,1.8,0.8c0.7,0,1.4-0.3,1.8-0.8c1-1,1-2.6,0-3.6 C67.5,67.5,66.9,67.2,66.2,67.3L66.2,67.3z M66.2,70.1c-0.1,0-0.1,0-0.2-0.1c0,0-0.1-0.1-0.1-0.2c0-0.1,0-0.1,0.1-0.2 c0,0,0.1-0.1,0.2-0.1c0.1,0,0.1,0,0.2,0.1c0,0,0.1,0.1,0.1,0.2c0,0.1,0,0.1-0.1,0.2C66.3,70,66.2,70.1,66.2,70.1z"/><path fill="#fdfcee" d="M66.9,77c-0.2,0-0.3-0.1-0.4-0.2c-0.1-0.1-0.1-0.3,0-0.4l3.8-6.8h-1.1c-0.2,0-0.4-0.2-0.4-0.4v-0.9 c0-0.2,0.2-0.4,0.4-0.4l0,0h3.2c0.2,0,0.3,0.1,0.4,0.2c0.1,0.1,0.1,0.3,0,0.4l-4.6,8.4C68.1,77,68,77,67.8,77L66.9,77z"/><path fill="#472b29" d="M72.4,68.1c0.1,0,0.1,0,0.2,0.1c0,0.1,0,0.1,0,0.2L68,76.7c0,0.1-0.1,0.1-0.2,0.1h-0.9 c-0.1,0-0.1,0-0.2-0.1c0-0.1,0-0.1,0-0.2l4-7.1h-1.5c-0.1,0-0.2-0.1-0.2-0.2c0,0,0,0,0,0v-0.9c0-0.1,0.1-0.2,0.2-0.2l0,0H72.4 M72.4,67.6h-3.2c-0.4,0-0.7,0.3-0.7,0.7l0,0v0.9c0,0.4,0.3,0.7,0.7,0.7c0,0,0,0,0,0h0.7l-3.6,6.4c-0.2,0.3,0,0.8,0.3,0.9 c0.1,0,0.2,0.1,0.3,0.1h0.9c0.2,0,0.5-0.1,0.6-0.3l4.6-8.3c0.1-0.2,0.1-0.5,0-0.7C72.9,67.7,72.7,67.6,72.4,67.6L72.4,67.6z"/></svg>