<svg xmlns="http://www.w3.org/2000/svg" viewBox="0 0 30 30"><path d="M 21.447266 2 C 20.879228 2 20.336231 2.2429081 19.957031 2.6660156 L 13.439453 9.9375 C 12.962778 9.3260334 12.120909 9 11.285156 9 C 9.9611563 9 9 10 9 12 C 9 13.5 8 14 7 14 C 4.5 14 3 16.038156 3 18.285156 C 3 18.373156 3.0078125 18.504266 3.0078125 18.572266 C 2.9298125 20.279266 3.5895156 22.164484 5.2285156 23.771484 C 6.6515156 25.193484 8.1425781 26 10.142578 26 C 12.142578 26 13.427781 24.658156 13.800781 24.285156 C 15.114781 22.971156 14.866312 21.913422 15.570312 20.857422 C 16.713313 19.143422 19 19.356578 19 17.142578 C 19 16.396266 18.724855 15.589255 17.980469 15.214844 L 22.697266 9.953125 A 1 1 0 0 0 23 10 A 1 1 0 0 0 24 9 A 1 1 0 0 0 23.912109 8.5957031 L 24.447266 8 L 26 8 A 1.0001 1.0001 0 1 0 26 6 L 24.447266 6 C 23.879228 6 23.336231 6.2429081 22.957031 6.6660156 L 16.386719 14 C 15.277198 14 14.353358 13.238828 14.085938 12.212891 A 1.0006907 1.0006907 0 0 0 14.128906 12.167969 L 19.697266 5.953125 A 1 1 0 0 0 20 6 A 1 1 0 0 0 21 5 A 1 1 0 0 0 20.914062 4.5957031 L 21.447266 4 L 23 4 A 1.0001 1.0001 0 1 0 23 2 L 21.447266 2 z M 10.25 16 C 10.442 16 10.63475 16.07225 10.78125 16.21875 L 12.78125 18.21875 C 13.07325 18.51275 13.072297 18.986297 12.779297 19.279297 C 12.633297 19.425297 12.442 19.5 12.25 19.5 C 12.058 19.5 11.866703 19.426297 11.720703 19.279297 L 9.7207031 17.279297 C 9.4277031 16.986297 9.4277031 16.51175 9.7207031 16.21875 C 9.8672031 16.07225 10.058 16 10.25 16 z M 7.75 18.5 C 7.942 18.5 8.13475 18.57225 8.28125 18.71875 L 10.28125 20.71875 C 10.57325 21.01275 10.572297 21.486297 10.279297 21.779297 C 10.133297 21.926297 9.942 22 9.75 22 C 9.558 22 9.3667031 21.926297 9.2207031 21.779297 L 7.2207031 19.779297 C 6.9277031 19.486297 6.9277031 19.01175 7.2207031 18.71875 C 7.3672031 18.57225 7.558 18.5 7.75 18.5 z"/></svg>