<?xml version="1.0"?><svg xmlns="http://www.w3.org/2000/svg" viewBox="0 0 100 100">    <path d="M 50 14 C 49.31 14 48.623406 14.019594 47.941406 14.058594 C 47.390406 14.090594 46.969953 14.563234 47.001953 15.115234 C 47.032953 15.646234 47.472047 16.056641 47.998047 16.056641 C 48.018047 16.056641 48.038594 16.055688 48.058594 16.054688 C 48.701594 16.017688 49.348 16 50 16 C 68.748 16 84 31.252 84 50 C 84 68.748 68.748 84 50 84 C 49.348 84 48.700641 83.982312 48.056641 83.945312 C 47.517641 83.918313 47.033953 84.333766 47.001953 84.884766 C 46.969953 85.436766 47.390406 85.910406 47.941406 85.941406 C 48.623406 85.980406 49.31 86 50 86 C 69.851 86 86 69.851 86 50 C 86 30.149 69.851 14 50 14 z M 42.1875 14.931641 C 42.059547 14.909406 41.925016 14.910656 41.791016 14.941406 C 40.462016 15.250406 39.136609 15.642516 37.849609 16.103516 C 37.329609 16.289516 37.058141 16.860859 37.244141 17.380859 C 37.390141 17.789859 37.775547 18.044922 38.185547 18.044922 C 38.297547 18.044922 38.411437 18.025328 38.523438 17.986328 C 39.738437 17.550328 40.990141 17.181672 42.244141 16.888672 C 42.782141 16.763672 43.117188 16.226453 42.992188 15.689453 C 42.898438 15.285953 42.571359 14.998344 42.1875 14.931641 z M 32.626953 18.546875 C 32.497969 18.561875 32.371703 18.603875 32.251953 18.671875 C 31.065953 19.345875 29.903781 20.094391 28.800781 20.900391 C 28.354781 21.225391 28.256031 21.850875 28.582031 22.296875 C 28.778031 22.563875 29.083578 22.707031 29.392578 22.707031 C 29.596578 22.707031 29.803469 22.645625 29.980469 22.515625 C 31.022469 21.755625 32.118281 21.046156 33.238281 20.410156 C 33.718281 20.137156 33.885281 19.526875 33.613281 19.046875 C 33.409281 18.686875 33.013906 18.501875 32.626953 18.546875 z M 50 19 C 32.907 19 19 32.906 19 50 C 19 67.094 32.907 81 50 81 C 67.093 81 81 67.094 81 50 C 81 41.279 77.294938 32.912875 70.835938 27.046875 C 70.632938 26.861875 70.316859 26.876078 70.130859 27.080078 C 69.944859 27.284078 69.959063 27.601109 70.164062 27.787109 C 76.415062 33.464109 80 41.561 80 50 C 80 66.542 66.542 80 50 80 C 33.458 80 20 66.542 20 50 C 20 33.458 33.458 20 50 20 C 53.548 20 57.023125 20.613172 60.328125 21.826172 C 60.587125 21.921172 60.87375 21.790297 60.96875 21.529297 C 61.06475 21.270297 60.930875 20.982719 60.671875 20.886719 C 57.255875 19.634719 53.666 19 50 19 z M 63.529297 22.144531 C 63.334719 22.133047 63.144234 22.236625 63.052734 22.421875 C 62.929734 22.669875 63.029344 22.968797 63.277344 23.091797 C 63.946344 23.423797 64.609094 23.782203 65.246094 24.158203 C 65.326094 24.205203 65.414 24.226562 65.5 24.226562 C 65.67 24.226563 65.836688 24.139422 65.929688 23.982422 C 66.069687 23.744422 65.991906 23.437875 65.753906 23.296875 C 65.096906 22.908875 64.413656 22.538312 63.722656 22.195312 C 63.660906 22.164813 63.594156 22.148359 63.529297 22.144531 z M 67.414062 24.523438 C 67.287813 24.545562 67.170797 24.615516 67.091797 24.728516 C 66.933797 24.953516 66.986891 25.266781 67.212891 25.425781 C 67.545891 25.659781 67.874266 25.899484 68.197266 26.146484 C 68.288266 26.216484 68.394 26.248047 68.5 26.248047 C 68.65 26.248047 68.798484 26.182734 68.896484 26.052734 C 69.064484 25.832734 69.023687 25.519562 68.804688 25.351562 C 68.471688 25.096563 68.130109 24.848422 67.787109 24.607422 C 67.674109 24.527922 67.540312 24.501313 67.414062 24.523438 z M 24.857422 24.636719 C 24.601547 24.640344 24.346797 24.740953 24.154297 24.939453 C 23.204297 25.918453 22.299797 26.964875 21.466797 28.046875 C 21.129797 28.483875 21.210438 29.110266 21.648438 29.447266 C 21.830438 29.588266 22.044812 29.65625 22.257812 29.65625 C 22.556813 29.65625 22.853828 29.521578 23.048828 29.267578 C 23.836828 28.244578 24.692844 27.257031 25.589844 26.332031 C 25.974844 25.936031 25.964359 25.304922 25.568359 24.919922 C 25.370359 24.727922 25.113297 24.633094 24.857422 24.636719 z M 19.107422 32.699219 C 18.719016 32.666266 18.330219 32.862516 18.136719 33.228516 C 17.500719 34.433516 16.927641 35.69375 16.431641 36.96875 C 16.231641 37.48375 16.486953 38.063672 17.001953 38.263672 C 17.120953 38.309672 17.242281 38.330078 17.363281 38.330078 C 17.764281 38.330078 18.141922 38.088359 18.294922 37.693359 C 18.762922 36.488359 19.303297 35.300109 19.904297 34.162109 C 20.162297 33.673109 19.976281 33.068547 19.488281 32.810547 C 19.365781 32.746297 19.236891 32.710203 19.107422 32.699219 z M 66.570312 38 C 65.920313 37.997 65.269484 38.224359 64.771484 38.693359 L 47.474609 56.064453 L 37.181641 45.650391 C 36.164641 44.725391 34.580391 44.799359 33.650391 45.818359 C 33.201391 46.312359 32.972906 46.952141 33.003906 47.619141 C 33.034906 48.286141 33.323781 48.900031 33.800781 49.332031 L 45.816406 61.349609 C 46.277406 61.769609 46.876 62 47.5 62 C 48.141 62 48.749563 61.758594 49.226562 61.308594 L 68.216797 42.318359 C 68.702797 41.859359 68.979047 41.237313 68.998047 40.570312 C 69.017047 39.902313 68.775406 39.268203 68.316406 38.783203 C 67.857406 38.297203 67.238313 38.019 66.570312 38 z M 66.541016 39.001953 C 66.942016 39.013953 67.314844 39.178703 67.589844 39.470703 C 67.864844 39.761703 68.009047 40.142969 67.998047 40.542969 C 67.987047 40.943969 67.821531 41.316563 67.519531 41.601562 L 48.529297 60.591797 C 47.976297 61.111797 47.033813 61.103953 46.507812 60.626953 L 34.490234 48.609375 C 34.194234 48.340375 34.020953 47.972266 34.001953 47.572266 C 33.982953 47.172266 34.121625 46.788187 34.390625 46.492188 C 34.689625 46.164188 35.100766 45.998047 35.509766 45.998047 C 35.863766 45.998047 36.215234 46.122094 36.490234 46.371094 L 47.119141 57.125 C 47.212141 57.219 47.339656 57.273438 47.472656 57.273438 L 47.474609 57.273438 C 47.606609 57.273437 47.734125 57.220953 47.828125 57.126953 L 65.470703 39.410156 C 65.761703 39.134156 66.149016 38.982953 66.541016 39.001953 z M 15.482422 42.097656 C 15.099922 42.175375 14.784125 42.476312 14.703125 42.882812 C 14.435125 44.217813 14.241953 45.585219 14.126953 46.949219 C 14.080953 47.500219 14.489062 47.983297 15.039062 48.029297 C 15.068063 48.032297 15.097 48.033203 15.125 48.033203 C 15.64 48.033203 16.077094 47.638187 16.121094 47.117188 C 16.229094 45.828188 16.411062 44.536391 16.664062 43.275391 C 16.772062 42.734391 16.422859 42.205656 15.880859 42.097656 C 15.744359 42.069656 15.609922 42.07175 15.482422 42.097656 z M 15.042969 52.023438 C 14.492969 52.070438 14.085812 52.553516 14.132812 53.103516 C 14.249813 54.468516 14.444844 55.837875 14.714844 57.171875 C 14.810844 57.646875 15.227359 57.972656 15.693359 57.972656 C 15.758359 57.972656 15.825578 57.966125 15.892578 57.953125 C 16.434578 57.843125 16.785781 57.316391 16.675781 56.775391 C 16.420781 55.515391 16.235 54.222594 16.125 52.933594 C 16.078 52.382594 15.599969 51.971438 15.042969 52.023438 z M 17.410156 61.716797 C 17.280359 61.713266 17.148031 61.736109 17.019531 61.787109 C 16.505531 61.987109 16.250172 62.567031 16.451172 63.082031 C 16.945172 64.349031 17.520156 65.605453 18.160156 66.814453 C 18.339156 67.153453 18.685922 67.347656 19.044922 67.347656 C 19.202922 67.347656 19.362719 67.309469 19.511719 67.230469 C 19.999719 66.972469 20.185734 66.366906 19.927734 65.878906 C 19.323734 64.737906 18.781453 63.552469 18.314453 62.355469 C 18.163703 61.969969 17.799547 61.727391 17.410156 61.716797 z M 22.414062 70.386719 C 22.160187 70.354094 21.893781 70.419891 21.675781 70.587891 C 21.237781 70.925891 21.157141 71.552234 21.494141 71.990234 C 22.327141 73.070234 23.2345 74.11475 24.1875 75.09375 C 24.3835 75.29475 24.644297 75.396484 24.904297 75.396484 C 25.155297 75.396484 25.406609 75.303281 25.599609 75.113281 C 25.995609 74.728281 26.004141 74.095219 25.619141 73.699219 C 24.719141 72.773219 23.865125 71.787578 23.078125 70.767578 C 22.909625 70.549078 22.667938 70.419344 22.414062 70.386719 z M 29.271484 77.332031 C 29.018734 77.372031 28.779688 77.509422 28.617188 77.732422 C 28.292188 78.179422 28.392844 78.804906 28.839844 79.128906 C 29.946844 79.933906 31.108922 80.680562 32.294922 81.351562 C 32.450922 81.439562 32.618156 81.482422 32.785156 81.482422 C 33.134156 81.482422 33.47325 81.300609 33.65625 80.974609 C 33.92825 80.494609 33.759297 79.883328 33.279297 79.611328 C 32.159297 78.976328 31.060625 78.271719 30.015625 77.511719 C 29.792125 77.349719 29.524234 77.292031 29.271484 77.332031 z M 38.175781 81.976562 C 37.787234 81.998312 37.428562 82.247922 37.289062 82.638672 C 37.103063 83.157672 37.375484 83.730016 37.896484 83.916016 C 39.182484 84.375016 40.508797 84.763266 41.841797 85.072266 C 41.918797 85.089266 41.993359 85.097656 42.068359 85.097656 C 42.523359 85.097656 42.935969 84.784219 43.042969 84.324219 C 43.166969 83.786219 42.830969 83.25 42.292969 83.125 C 41.034969 82.834 39.782359 82.466203 38.568359 82.033203 C 38.439109 81.986453 38.305297 81.969313 38.175781 81.976562 z"/></svg>