<svg xmlns="http://www.w3.org/2000/svg" viewBox="0 0 100 100"><path fill="#f9dbd2" d="M49.1 13.5A37.2 37.2 0 1 0 49.1 87.9A37.2 37.2 0 1 0 49.1 13.5Z"/><path fill="#ce9065" d="M61.9,85.7c-0.2-4.3-0.5-11.6-0.5-11.6c-0.4-2.1-1.3-3.4-3.3-4L57.8,70l-0.6-0.2 c-1.2-0.5-8.6-3.3-8.6-3.3c-0.6-0.1-1-0.5-1.2-1.1c-0.2-0.9-0.3-1.9-0.2-2.9c-1.6,0.6-3.3,1-5,1.4c-1.9,0.2-6-2.3-6-2.3 s-0.1,3-0.2,3.7c-0.2,0.6-0.7,1-1.3,1.1l-7.1,2.6c-0.8,0.2-1.5,0.5-2.2,0.9c-1.5,1-2.6,2.4-3.1,4.1c0,0-0.2,1.1-0.3,2.1 C32.1,87.1,47.9,90.9,61.9,85.7L61.9,85.7z"/><path fill="#ee3e54" d="M21.8,76.1c10.2,11,26,14.8,40.1,9.6c-0.2-4.3-0.5-11.5-0.5-11.5c-0.4-2.1-1.3-3.4-3.3-4L57.8,70 l-0.6-0.2c-0.8-0.3-3.9-1.5-6.2-2.3h-0.1c-2.5,1.3-6.1,3.2-9.3,3.2s-6.6-1.7-9.3-3.2l-0.3,0.1l-4.4,1.6c-0.8,0.2-1.5,0.5-2.2,0.9 c-1.5,1-2.6,2.4-3.1,4.1L21.8,76.1z"/><path fill="#fff" d="M19.8 56.4A.9.9 0 1 0 19.8 58.199999999999996.9.9 0 1 0 19.8 56.4zM78.6 31.900000000000002A.7.7 0 1 0 78.6 33.300000000000004.7.7 0 1 0 78.6 31.900000000000002z"/><path fill="#f1bc19" d="M76 12.799999999999999A.9.9 0 1 0 76 14.6.9.9 0 1 0 76 12.799999999999999zM20.3 64.1A.9.9 0 1 0 20.3 65.9.9.9 0 1 0 20.3 64.1zM81.4 11.8A4 4 0 1 0 81.4 19.8 4 4 0 1 0 81.4 11.8z"/><path fill="#ee3e54" d="M85.4 22.900000000000002A1.9 1.9 0 1 0 85.4 26.7A1.9 1.9 0 1 0 85.4 22.900000000000002Z"/><path fill="#fbcd59" d="M76.4 75.1A1.9 1.9 0 1 0 76.4 78.9 1.9 1.9 0 1 0 76.4 75.1zM13.6 60.099999999999994A4 4 0 1 0 13.6 68.1 4 4 0 1 0 13.6 60.099999999999994z"/><path fill="#ee3e54" d="M23.8 86.19999999999999A1.9 1.9 0 1 0 23.8 90A1.9 1.9 0 1 0 23.8 86.19999999999999Z"/><path fill="#fff" d="M75.1 29.3A1.8 1.8 0 1 0 75.1 32.9 1.8 1.8 0 1 0 75.1 29.3zM17.3 49.5A2.5 2.5 0 1 0 17.3 54.5 2.5 2.5 0 1 0 17.3 49.5z"/><path fill="#ce2541" d="M54.6,87.9c-0.2,0-0.3-0.1-0.3-0.3v-4.1c0-0.2,0.1-0.3,0.3-0.3s0.3,0.1,0.3,0.3v4.1 C54.9,87.7,54.7,87.9,54.6,87.9z"/><path fill="#db9e71" d="M53.8,47.8h-0.4c-1,0-1.2,0.3-1.2-0.3c0.1-1-0.1-5.3-0.1-5.5c0-4.4-4.6-8-10.4-8.3h-0.2 C35.7,34,31.1,37.6,31.1,42c0,0.2-0.1,4.5-0.1,5.5c0,0.6-0.2,0.2-1.2,0.3h-0.4c-1,0-1.8,0.6-2.1,1.6c0.1,0.1,0.6,3.7,1.4,5.1 c0.4,0.8,1.1,0.9,1.8,1.4c0.3,0.2,0.5,0.6,0.6,1c0.5,1.6,1.4,3,2.7,4.2c0.6,0.6,5.1,4.3,7.8,4.5c3.4-0.1,7.2-3.9,7.8-4.5 c1.3-1.1,2.2-2.5,2.7-4.1c0.1-0.4,0.3-0.8,0.6-1c0.7-0.5,1.4-0.6,1.8-1.4c0.8-1.4,1.3-5.1,1.4-5.1C55.6,48.5,54.7,47.9,53.8,47.8z"/><path fill="#512c2b" d="M41.7 54.8c.7 0 1.3-.3 1.8-.8 0 0 0-.1 0-.2 0 0 0 0 0 0l0 0c0 0-.1-.1-.1 0 0 0 0 0 0 0-.9.8-2.3.8-3.2 0 0 0-.1 0-.1 0 0 0 0 0-.1 0 0 0 0 .1 0 .2 0 0 0 0 0 0C40.4 54.4 41 54.7 41.7 54.8zM39.5 45.6l.4-.8c-1.9-.4-3.8-.4-5.7.2l.5.8C36.3 45.3 38 45.2 39.5 45.6zM48.6 45.6l.4-.8c-1.9-.4-3.8-.4-5.7.2l.5.8C45.5 45.3 47.1 45.2 48.6 45.6zM36.9 46.7c-.4 0-.8.3-1 .7h.2c.4 0 .7.3.7.7 0 .4-.3.7-.6.7 0 0 0 0 0 0-.1 0-.2 0-.3-.1.1.6.6 1.1 1.2 1.1.9-.2 1.4-1.1 1.2-2C38 47.4 37.5 46.9 36.9 46.7L36.9 46.7zM46.4 46.7c-.4 0-.7.2-.9.5.1 0 .1 0 .2 0 .4 0 .7.3.7.7 0 .4-.3.7-.7.7-.2 0-.4-.1-.5-.3-.1.8.5 1.5 1.2 1.6.9-.2 1.4-1.1 1.2-2C47.5 47.4 47 46.9 46.4 46.7zM46.9 56.6c0 0 0-.1 0-.2 0 0 0 0 0 0l0 0c0 0-.1 0-.2 0 0 0 0 0 0 0-1.5 1-3.3 1.5-5.1 1.4-1.8.1-3.6-.4-5.1-1.4 0 0 0 0-.1 0 0 0-.1 0-.1 0 0 0 0 .1 0 .2 0 0 0 0 0 0C39.5 58.8 43.7 58.8 46.9 56.6L46.9 56.6zM43.1 61.8c.1 0 .1-.1.1-.2 0-.1 0-.1-.1-.2h-2.6c-.1 0-.1.1-.1.2 0 .1 0 .1.1.2H43.1z"/><path fill="#895d3d" d="M53.8 52.6l-.6-.1.2-1.8-1 .4-.2-.6 1.5-.6c.1 0 .2 0 .3 0 .1.1.1.2.1.3L53.8 52.6zM29.7 52.2L29.5 50c0-.1 0-.2.1-.3.1-.1.2-.1.3 0l1.5.6-.2.5-1-.4.2 1.8L29.7 52.2z"/><path fill="#472b29" d="M31.1 56.7C31.1 56.7 31.1 56.7 31.1 56.7c-.1 0-.2-.1-.2-.2l.2-8.6c0-.1.1-.2.2-.2 0 0 0 0 0 0 .1 0 .2.1.2.2l-.2 8.6C31.3 56.6 31.2 56.7 31.1 56.7zM52.3 56.7c-.1 0-.2-.1-.2-.2L52 47.9c0-.1.1-.2.2-.2 0 0 0 0 0 0 .1 0 .2.1.2.2l.2 8.6C52.5 56.6 52.4 56.7 52.3 56.7 52.3 56.7 52.3 56.7 52.3 56.7zM41.8 65.7c-2.1 0-5.7-2.4-5.8-2.5-.1-.1-.1-.2-.1-.3.1-.1.2-.1.3-.1 0 0 3.9 2.6 5.8 2.4 1.9-.2 5-2.3 5-2.3.1-.1.3 0 .3.1.1.1 0 .3-.1.3-.1.1-3.2 2.1-5.2 2.4C41.9 65.7 41.9 65.7 41.8 65.7z"/><path fill="#472b29" d="M49,88.4c-10.3,0-20.3-4.2-27.6-12.1c-0.1-0.1-0.1-0.2-0.1-0.4c0.1-0.5,0.2-1.1,0.4-1.8 c0.4-1.9,1.6-3.5,3.4-4.4c0.7-0.4,1.5-0.7,2.3-0.9l7-2.6c0.5-0.1,0.9-0.4,1-0.9c0-0.3,0.1-1.2,0.1-2c-0.7-0.5-1.4-1.1-2.1-1.6 c-1.3-1.2-2.3-2.6-2.8-4.3c0-0.4-0.2-0.7-0.4-0.9c-0.2-0.1-0.4-0.3-0.6-0.4c-0.5-0.3-1-0.5-1.3-1.2c-0.8-1.7-1.3-3.5-1.4-5.4 c0,0,0-0.1,0-0.1c0.3-1.1,1.3-1.9,2.5-1.9h0.4c0.3,0,0.6,0,0.8,0c-0.1-1,0-3.8,0.1-5c0-0.3,0-0.5,0-0.5c0-4.7,4.7-8.5,10.8-8.7h0.2 c6.1,0.2,10.8,4,10.8,8.7c0,0,0,0.2,0,0.5c0,1.2,0.1,4,0.1,5c0.2,0,0.4-0.1,0.8-0.1h0.4c1.2,0,2.1,0.8,2.5,1.9c0,0,0,0.1,0,0.1 c-0.2,1.9-0.6,3.7-1.4,5.3c-0.4,0.7-0.8,0.9-1.3,1.2c-0.2,0.1-0.4,0.2-0.6,0.4c-0.2,0.2-0.4,0.5-0.4,0.8c-0.5,1.7-1.5,3.2-2.8,4.4 c-0.7,0.6-1.5,1.2-2.3,1.8c0,0.7,0.1,1.3,0.3,1.9c0.2,0.4,0.5,0.7,1,0.8c0.3,0.1,7.4,2.7,8.7,3.3l0.6,0.2c0.1,0.1,0.2,0.1,0.3,0.1 c2.1,0.6,3.1,1.9,3.6,4.3c0,0.1,0.3,7.1,0.5,11.5c0,0.2-0.1,0.3-0.3,0.4C57.8,87.6,53.4,88.4,49,88.4z M22.2,75.9 c10.1,10.7,25.5,14.5,39.3,9.5C61.3,81.1,61,74.3,61,74.3c-0.4-2.1-1.2-3.1-3-3.6c-0.1,0-0.3-0.1-0.4-0.1L57,70.3 c-1.2-0.5-8.5-3.2-8.6-3.2c-0.6-0.2-1.2-0.7-1.5-1.3c-0.3-0.8-0.3-1.6-0.3-2.5c0-0.1,0.1-0.2,0.2-0.3c0.8-0.6,1.6-1.2,2.3-1.8 c1.2-1.1,2.1-2.4,2.5-3.9c0-0.4,0.3-0.9,0.7-1.2c0.3-0.2,0.5-0.3,0.7-0.5c0.4-0.2,0.7-0.4,1-0.9c0.7-1.6,1.2-3.2,1.3-5 c-0.2-0.7-0.9-1.2-1.7-1.2h-0.4c-0.3,0-0.5,0-0.7,0.1c-0.3,0-0.5,0.1-0.7-0.1c-0.2-0.2-0.2-0.5-0.2-0.6c0.1-0.8,0-3.9-0.1-5 c0-0.3,0-0.5,0-0.5c0-4.3-4.4-7.7-10-7.9h-0.2c-5.6,0.2-10,3.7-10,7.9c0,0,0,0.2,0,0.5c0,1.1-0.1,4.2-0.1,5c0,0.3,0,0.5-0.2,0.6 c-0.2,0.2-0.4,0.1-0.7,0.1c-0.2,0-0.4-0.1-0.7,0l-0.4,0c-0.8,0-1.4,0.5-1.7,1.2c0.2,1.7,0.6,3.4,1.3,5c0.2,0.4,0.6,0.6,1,0.8 c0.2,0.1,0.5,0.3,0.7,0.4c0.4,0.3,0.7,0.8,0.7,1.3c0.5,1.5,1.3,2.8,2.5,3.9c0.7,0.6,1.5,1.2,2.2,1.7c0.1,0.1,0.2,0.2,0.2,0.3 c0,0.9-0.1,2.1-0.2,2.4c-0.3,0.8-0.9,1.3-1.6,1.4l-7,2.6c-0.8,0.2-1.5,0.5-2.1,0.9c-1.6,0.8-2.6,2.2-3,3.9 C22.4,75,22.3,75.5,22.2,75.9z"/><path fill="#5e2e2e" d="M57.1,39.3c-2.3,0.2-3.7-2.5-5.2-4.5c-3.4-4.8-9.9-6.4-15.1-3.6c-1.1,0.5-2.1,1.3-2.8,2.3 c-2.6,1.1-4.1,4.6-4.7,7.9c-0.7,3.9,2.6,9.8,2.8,6.5c0.3-2.7,0.9-5.3,1.9-7.8c0.4-1,0.8-2,1-3c0.3,2.5,3.6,4.9,5.6,4.9 c0.2,0,0.3-0.8,0.3-2c0.5,0.9,1.3,1.7,2.1,2.3c1.3,0.9,2.8,1.5,4.4,1.7c-0.6-0.3-0.9-0.9-1-1.5c0-0.3,0-0.7,0-1 c1.3,0.9,2.8,1.5,4.3,1.6c0.2,0,0.4,0,0.5,0c0.7,1.6,1.1,3.3,1.2,5.1c0.2,3.3,2.7-2.2,2-6.1v-0.1C55.5,41.2,56.4,40.3,57.1,39.3z M35.4,35.3c0,0,0-0.1,0-0.1h0L35.4,35.3z"/><path fill="#ee3e54" d="M51.3,46.7L51.3,46.7h-0.1H51h-1.1c-0.7,0-1.3,0-2,0c-1,0-2,0.1-3,0.2l-0.3,0 c-0.8,0.1-1.5,0.3-2.2,0.5c-0.5,0.2-1.1,0.3-1.6,0.1l-0.2-0.1c-0.2-0.1-0.4-0.2-0.6-0.2l-0.5-0.1c-0.8-0.2-1.7-0.3-2.5-0.4 c-0.6-0.1-1.2-0.1-1.8-0.1h-0.7h-0.8c-0.6,0-1.2,0-1.8,0.1c-0.4,0-0.9,0.1-1.3,0.3c-0.1,0.1-0.1,0.2-0.1,0.2c0,0.3,0,0.5,0.1,0.8 c0.1,0.3,0.1,0.5,0.1,0.8c0,0.2,0.3,0.4,0.8,0.6l0.3,0.2c0.1,0.1,0.1,0.2,0.2,0.3v0.1c0.1,0.1,0.1,0.2,0.2,0.3s0.2,0.4,0.3,0.5 c0.1,0.2,0.3,0.3,0.5,0.4c0.2,0.1,0.4,0.2,0.6,0.2c1.6,0.3,3.2,0.4,4.8,0.3c0.9,0,1.6-0.6,1.8-1.4c0.1-0.2,0.2-0.5,0.3-0.7 s0.1-0.3,0.2-0.4c0-0.2,0.2-0.3,0.5-0.3h0.6c0.4,0,0.5,0,0.6,0.5l0.1,0.2c0.2,0.4,0.3,0.8,0.5,1.2c0.2,0.4,0.6,0.7,1,0.8 c0.2,0.1,0.4,0.1,0.6,0.1c0.4,0,0.8,0,1.1,0c1.1,0,2.2-0.1,3.2-0.3c0.8-0.1,1.5-0.6,1.8-1.3c0.1-0.2,0.3-0.5,0.5-0.7 c0.1-0.1,0.3-0.1,0.4-0.2c0.4-0.2,0.6-0.3,0.7-0.4h0.1c0.1,0,0.1-0.1,0.1-0.1c0-0.2,0-0.3,0.1-0.5c0-0.4,0.1-0.8,0.1-1.1 S52,46.7,51.3,46.7z M45.5,47.3c0.4,0,0.8-0.1,1.2-0.1H48c0.2,0,0.3,0,0.5,0c0.5,0,0.9,0.1,1.4,0.1s0.6,0.3,0.6,0.8 c0,0.7-0.2,1.4-0.5,2c-0.1,0.2-0.2,0.3-0.4,0.4C49,50.8,48.4,51,47.7,51c-0.8,0-1.7,0-2.5,0h-0.4c-0.6,0-1.1-0.3-1.3-0.8 c-0.4-0.6-0.5-1.3-0.5-2c0-0.2,0.1-0.4,0.4-0.5c0.6-0.2,1.2-0.4,1.8-0.4L45.5,47.3z M40.1,48.5c0,0.8-0.3,1.5-0.8,2.1 c-0.2,0.3-0.6,0.5-0.9,0.5c-0.5,0-1,0.1-1.4,0.1l0,0c-1,0-1.9-0.1-2.8-0.3c-0.3-0.1-0.6-0.2-0.8-0.3c-0.1-0.1-0.3-0.2-0.3-0.3 c-0.3-0.6-0.4-1.3-0.4-2c0-0.5,0.1-0.7,0.6-0.8s1-0.1,1.6-0.1l0.7,0c1.3,0,2.7,0.2,3.9,0.5l0.3,0.1C40,47.9,40.1,48,40.1,48.5z"/><path fill="#fdfcef" d="M61,49.8c0-5.8,6.2-10.4,13.9-10.4S88.8,44,88.8,49.8s-6.2,10.4-13.9,10.4h-1.7 c-2,1.8-4.5,3-7.1,3.4c-0.4,0.1-0.8-0.2-0.9-0.7c0-0.1,0-0.3,0.1-0.4c0.6-1.4,1-3,1-4.6l0,0C62.9,55.9,61,52.9,61,49.8"/><path fill="#472b29" d="M65.9,64.1c-0.6,0-1.2-0.5-1.3-1.1c0-0.2,0-0.5,0.1-0.7c0.6-1.3,0.9-2.7,0.9-4.1 c-3.3-2.1-5.2-5.2-5.2-8.4c0,0,0-0.1,0-0.1c0.1-6,6.5-10.8,14.4-10.8c7.9,0,14.4,4.9,14.4,10.9c0,6-6.5,10.9-14.4,10.9h-1.5 c-2,1.8-4.5,3-7.3,3.4C66,64.1,66,64.1,65.9,64.1z M61.5,49.9c0.1,2.9,1.9,5.7,5,7.6c0.2,0.1,0.2,0.3,0.2,0.4c0,1.7-0.4,3.3-1,4.8 c0,0,0,0.1,0,0.1c0,0.1,0.2,0.3,0.3,0.2c2.6-0.4,4.9-1.5,6.9-3.2c0.1-0.1,0.2-0.1,0.3-0.1h1.7c7.4,0,13.4-4.5,13.4-9.9 c0-5.5-6-9.9-13.4-9.9c-7.4,0-13.4,4.5-13.4,9.9C61.5,49.8,61.5,49.9,61.5,49.9z"/><path fill="#ee3e54" d="M74.6 44.300000000000004A5.8 5.8 0 1 0 74.6 55.9A5.8 5.8 0 1 0 74.6 44.300000000000004Z"/><path fill="#472b29" d="M74.5,56.4c-3.4,0-6.3-2.8-6.3-6.3c0-3.4,2.8-6.3,6.3-6.3s6.3,2.8,6.3,6.3 C80.8,53.6,78,56.4,74.5,56.4z M74.5,44.9c-2.9,0-5.3,2.4-5.3,5.3s2.4,5.3,5.3,5.3s5.3-2.4,5.3-5.3S77.4,44.9,74.5,44.9z"/><g><path fill="#fdfcee" d="M72,49.1h5.1c0.4,0,0.8,0.3,0.8,0.8v0.2c0,0.4-0.3,0.8-0.8,0.8H72c-0.4,0-0.8-0.3-0.8-0.8v-0.2 C71.2,49.4,71.6,49.1,72,49.1z"/><path fill="#472b29" d="M77.1,51.2H72c-0.6,0-1-0.5-1-1.1v-0.2c0-0.6,0.5-1,1-1h5.1c0.6,0,1,0.5,1,1v0.2 C78.2,50.7,77.7,51.2,77.1,51.2z M72,49.4c-0.2,0-0.5,0.2-0.5,0.5v0.2c0,0.2,0.2,0.5,0.5,0.5h5.1c0.2,0,0.5-0.2,0.5-0.5v-0.2 c0-0.2-0.2-0.5-0.5-0.5H72z"/></g></svg>