<svg xmlns="http://www.w3.org/2000/svg" viewBox="0 0 100 100"><path fill="#c7ede6" d="M88.564,55.879c0.3-0.616,0.566-1.264,0.796-1.943c2.633-7.77-1.349-17.078-9.733-19.325c-0.906-11.384-8.906-19.193-17.941-20.526c-10.341-1.525-19.814,5.044-22.966,15.485c-3.799-1.346-7.501-1.182-10.99,0.857c-1.583,0.732-3.031,1.812-4.33,3.233c-1.907,2.086-3.147,4.719-3.652,7.495c-0.748,0.118-1.483,0.236-2.176,0.484c-4.04,1.449-6.589,4.431-7.288,8.923c-0.435,2.797,0.443,5.587,0.933,6.714c1.935,4.455,6.422,6.98,10.981,6.312c0.227-0.033,0.557,0.069,0.752,0.233c0.241,7.12,3.698,13.417,8.884,17.014c8.321,5.772,19.027,3.994,25.781-3.921c2.894,2.96,6.338,4.398,10.384,3.876c4.023-0.519,7.147-2.739,9.426-6.349c1.053,0.283,2.051,0.691,3.083,0.804c4.042,0.442,7.324-1.165,9.732-4.8c0.922-1.391,1.793-3.194,1.793-6.354C92.035,60.836,90.741,57.869,88.564,55.879z"/><path fill="#fdfcef" d="M66.301,43.685c0,0,11.691,0,11.762,0c2.7,0,4.888-2.189,4.888-4.889c0-2.355-1.666-4.321-3.884-4.784c0.026-0.206,0.043-0.415,0.043-0.628c0-2.796-2.267-5.063-5.063-5.063c-1.651,0-3.113,0.794-4.037,2.017c-0.236-3.113-3.017-5.514-6.27-5.116c-2.379,0.291-4.346,2.13-4.784,4.486c-0.14,0.756-0.126,1.489,0.014,2.177c-0.638-0.687-1.546-1.119-2.557-1.119c-1.85,0-3.361,1.441-3.48,3.261c-0.84-0.186-1.754-0.174-2.717,0.188c-1.84,0.691-3.15,2.423-3.227,4.387c-0.109,2.789,2.12,5.085,4.885,5.085c0.21,0,0.948,0,1.118,0h10.151"/><path fill="#472b29" d="M78.063,44.185H66.3c-0.276,0-0.5-0.224-0.5-0.5s0.224-0.5,0.5-0.5h11.763c2.419,0,4.388-1.969,4.388-4.389c0-2.066-1.466-3.873-3.486-4.295c-0.255-0.053-0.427-0.294-0.394-0.553c0.023-0.186,0.039-0.373,0.039-0.565c0-2.516-2.047-4.563-4.562-4.563c-1.439,0-2.766,0.663-3.639,1.818c-0.125,0.166-0.343,0.238-0.539,0.179c-0.2-0.059-0.342-0.235-0.358-0.442c-0.104-1.377-0.778-2.671-1.85-3.549c-1.082-0.887-2.451-1.282-3.86-1.109c-2.166,0.265-3.956,1.943-4.354,4.081c-0.123,0.67-0.119,1.338,0.014,1.986c0.045,0.22-0.062,0.442-0.262,0.545c-0.196,0.103-0.442,0.061-0.595-0.104c-0.574-0.619-1.353-0.959-2.19-0.959c-1.569,0-2.879,1.227-2.981,2.793c-0.01,0.146-0.082,0.28-0.199,0.367s-0.269,0.118-0.407,0.088c-0.844-0.188-1.64-0.132-2.434,0.168c-1.669,0.626-2.836,2.209-2.902,3.938c-0.048,1.207,0.386,2.35,1.221,3.218c0.836,0.869,1.959,1.347,3.164,1.347h11.269c0.276,0,0.5,0.224,0.5,0.5s-0.224,0.5-0.5,0.5H51.876c-1.479,0-2.859-0.587-3.885-1.654c-1.025-1.066-1.558-2.469-1.5-3.95c0.083-2.126,1.51-4.069,3.551-4.835c0.801-0.3,1.627-0.401,2.468-0.299c0.377-1.823,1.997-3.182,3.905-3.182c0.685,0,1.354,0.179,1.943,0.509c0-0.384,0.035-0.771,0.107-1.158c0.476-2.562,2.62-4.574,5.215-4.891c1.685-0.209,3.32,0.267,4.615,1.328c1.004,0.823,1.716,1.951,2.038,3.193c1.012-0.916,2.319-1.425,3.714-1.425c3.067,0,5.562,2.496,5.562,5.563c0,0.083-0.002,0.167-0.007,0.249c2.254,0.673,3.848,2.777,3.848,5.164C83.451,41.768,81.034,44.185,78.063,44.185z"/><path fill="#fdfcef" d="M80.042,34.585c-1.699-0.801-3.664-0.234-4.389,1.267c-0.09,0.186-0.157,0.379-0.201,0.574"/><path fill="#472b29" d="M75.453,36.676c-0.018,0-0.036-0.002-0.055-0.006c-0.135-0.031-0.22-0.165-0.189-0.299c0.049-0.215,0.122-0.427,0.219-0.627c0.784-1.621,2.903-2.242,4.722-1.384c0.125,0.059,0.179,0.208,0.12,0.333c-0.06,0.126-0.211,0.178-0.333,0.12c-1.573-0.742-3.394-0.226-4.059,1.149c-0.08,0.167-0.141,0.341-0.181,0.52C75.671,36.597,75.567,36.676,75.453,36.676z"/><path fill="#fff" d="M18.229 47.915H8.199c-.276 0-.5-.224-.5-.5s.224-.5.5-.5h10.03c.276 0 .5.224.5.5S18.506 47.915 18.229 47.915zM21.11 47.915h-1.445c-.276 0-.5-.224-.5-.5s.224-.5.5-.5h1.445c.276 0 .5.224.5.5S21.386 47.915 21.11 47.915zM25.165 47.915h-2.546c-.276 0-.5-.224-.5-.5s.224-.5.5-.5h2.546c.276 0 .5.224.5.5S25.441 47.915 25.165 47.915zM25.165 49.78h-9.616c-.276 0-.5-.224-.5-.5s.224-.5.5-.5h9.616c.276 0 .5.224.5.5S25.441 49.78 25.165 49.78zM13.817 49.78h-.58c-.276 0-.5-.224-.5-.5s.224-.5.5-.5h.58c.276 0 .5.224.5.5S14.093 49.78 13.817 49.78zM11.44 49.78H9.984c-.276 0-.5-.224-.5-.5s.224-.5.5-.5h1.456c.276 0 .5.224.5.5S11.716 49.78 11.44 49.78zM20.576 46.05h-5.027c-.276 0-.5-.224-.5-.5s.224-.5.5-.5h5.027c.276 0 .5.224.5.5S20.852 46.05 20.576 46.05zM20.576 44.185h-1.257c-.276 0-.5-.224-.5-.5s.224-.5.5-.5h1.257c.276 0 .5.224.5.5S20.852 44.185 20.576 44.185zM17.307 51.645h-1.759c-.276 0-.5-.224-.5-.5s.224-.5.5-.5h1.759c.276 0 .5.224.5.5S17.584 51.645 17.307 51.645zM71.407 21.638h-10.03c-.276 0-.5-.224-.5-.5s.224-.5.5-.5h10.03c.276 0 .5.224.5.5S71.683 21.638 71.407 21.638zM74.289 21.638h-1.446c-.276 0-.5-.224-.5-.5s.224-.5.5-.5h1.446c.276 0 .5.224.5.5S74.565 21.638 74.289 21.638zM78.342 21.638h-2.546c-.276 0-.5-.224-.5-.5s.224-.5.5-.5h2.546c.276 0 .5.224.5.5S78.619 21.638 78.342 21.638zM76.317 17.909h-9.616c-.276 0-.5-.224-.5-.5s.224-.5.5-.5h9.616c.276 0 .5.224.5.5S76.593 17.909 76.317 17.909zM64.969 17.909h-.58c-.276 0-.5-.224-.5-.5s.224-.5.5-.5h.58c.276 0 .5.224.5.5S65.246 17.909 64.969 17.909zM62.592 17.909h-1.456c-.276 0-.5-.224-.5-.5s.224-.5.5-.5h1.456c.276 0 .5.224.5.5S62.869 17.909 62.592 17.909zM73.754 19.773h-5.027c-.276 0-.5-.224-.5-.5s.224-.5.5-.5h5.027c.276 0 .5.224.5.5S74.03 19.773 73.754 19.773z"/><path fill="#fff" d="M73.754 17.909h-1.257c-.276 0-.5-.224-.5-.5s.224-.5.5-.5h1.257c.276 0 .5.224.5.5S74.03 17.909 73.754 17.909zM67.271 19.773h-1.759c-.276 0-.5-.224-.5-.5s.224-.5.5-.5h1.759c.276 0 .5.224.5.5S67.548 19.773 67.271 19.773z"/><g><path fill="#cbc9bc" d="M26.535,50.768l9.001-14.949h27.003l9.001,14.949v1.869v11.474c0,1.919-1.499,3.475-3.348,3.475h-38.31c-1.849,0-3.348-1.556-3.348-3.475V50.768L26.535,50.768z"/><path fill="#472b29" d="M68.193,68.186H29.882c-2.177,0-3.947-1.828-3.947-4.075V50.602l9.262-15.382h27.682l9.262,15.382v13.509C72.14,66.358,70.37,68.186,68.193,68.186z M27.134,50.935v13.176c0,1.585,1.233,2.875,2.748,2.875h38.311c1.515,0,2.748-1.29,2.748-2.875V50.935l-8.74-14.515H35.875L27.134,50.935z"/><path fill="#efeddf" d="M64.543,60.071H33.532c-1.857,0-3.376-1.519-3.376-3.376V41.367c0-1.857,1.519-3.376,3.376-3.376h31.011c1.857,0,3.376,1.519,3.376,3.376v15.328C67.919,58.552,66.4,60.071,64.543,60.071z"/><path fill="#472b29" d="M64.544,60.446H33.532c-2.068,0-3.751-1.683-3.751-3.751V41.367c0-2.068,1.683-3.751,3.751-3.751h31.012c2.068,0,3.751,1.683,3.751,3.751v15.328C68.295,58.763,66.612,60.446,64.544,60.446z M33.532,38.366c-1.654,0-3.001,1.346-3.001,3.001v15.328c0,1.655,1.347,3.001,3.001,3.001h31.012c1.654,0,3.001-1.346,3.001-3.001V41.367c0-1.655-1.347-3.001-3.001-3.001H33.532z"/><path fill="#efeddf" d="M64.543,63.318H33.532c-1.857,0-3.376-1.519-3.376-3.376V44.614c0-1.857,1.519-3.376,3.376-3.376h31.011c1.857,0,3.376,1.519,3.376,3.376v15.328C67.919,61.799,66.4,63.318,64.543,63.318z"/><path fill="#472b29" d="M64.544,63.693H33.532c-2.068,0-3.751-1.683-3.751-3.751V44.614c0-2.068,1.683-3.751,3.751-3.751h31.012c2.068,0,3.751,1.683,3.751,3.751v15.328C68.295,62.01,66.612,63.693,64.544,63.693z M33.532,41.613c-1.654,0-3.001,1.346-3.001,3.001v15.328c0,1.655,1.347,3.001,3.001,3.001h31.012c1.654,0,3.001-1.346,3.001-3.001V44.614c0-1.655-1.347-3.001-3.001-3.001H33.532z"/><path fill="#efeddf" d="M64.543,66.565H33.532c-1.857,0-3.376-1.519-3.376-3.376V47.861c0-1.857,1.519-3.376,3.376-3.376h31.011c1.857,0,3.376,1.519,3.376,3.376v15.328C67.919,65.046,66.4,66.565,64.543,66.565z"/><path fill="#472b29" d="M64.544,66.94H33.532c-2.068,0-3.751-1.683-3.751-3.751V47.861c0-2.068,1.683-3.751,3.751-3.751h31.012c2.068,0,3.751,1.683,3.751,3.751v15.328C68.295,65.258,66.612,66.94,64.544,66.94z M33.532,44.86c-1.654,0-3.001,1.346-3.001,3.001v15.328c0,1.655,1.347,3.001,3.001,3.001h31.012c1.654,0,3.001-1.346,3.001-3.001V47.861c0-1.655-1.347-3.001-3.001-3.001H33.532z"/><g><path fill="#472b29" d="M65.038 47.275h-20.96c-.097 0-.175-.078-.175-.175s.078-.175.175-.175h20.96c.097 0 .175.078.175.175S65.134 47.275 65.038 47.275zM42.15 47.275H32.095c-.097 0-.175-.078-.175-.175s.078-.175.175-.175H42.15c.097 0 .175.078.175.175S42.247 47.275 42.15 47.275zM59.548 49.454h-6.436c-.097 0-.175-.078-.175-.175s.078-.175.175-.175h6.436c.097 0 .175.078.175.175S59.644 49.454 59.548 49.454zM51.372 49.454H37.586c-.097 0-.175-.078-.175-.175s.078-.175.175-.175h13.786c.097 0 .175.078.175.175S51.468 49.454 51.372 49.454zM54.057 51.633h-7.635c-.097 0-.175-.078-.175-.175s.078-.175.175-.175h7.635c.097 0 .175.078.175.175S54.154 51.633 54.057 51.633zM45.325 51.633h-2.248c-.097 0-.175-.078-.175-.175s.078-.175.175-.175h2.248c.097 0 .175.078.175.175S45.422 51.633 45.325 51.633zM52.507 53.811h-1.701c-.097 0-.175-.078-.175-.175s.078-.175.175-.175h1.701c.097 0 .175.078.175.175S52.604 53.811 52.507 53.811zM49.181 53.811h-4.555c-.097 0-.175-.078-.175-.175s.078-.175.175-.175h4.555c.097 0 .175.078.175.175S49.278 53.811 49.181 53.811z"/></g><g><path fill="#ee3e54" d="M69.137,50.769H57.059v3.728c0,2.076-1.594,3.746-3.561,3.746h-8.922c-1.964,0-3.561-1.677-3.561-3.746v-3.728H28.939h-2.184v13.342c0,1.919,1.499,3.475,3.348,3.475h37.869c1.849,0,3.348-1.556,3.348-3.475V50.769H69.137z"/><path fill="#472b29" d="M67.972,68.287H30.103c-2.231,0-4.048-1.873-4.048-4.175V50.068h15.661v4.428c0,1.68,1.283,3.046,2.86,3.046h8.922c1.577,0,2.86-1.367,2.86-3.046v-4.428H72.02v14.043C72.02,66.414,70.204,68.287,67.972,68.287z M27.456,51.469v12.643c0,1.53,1.188,2.775,2.647,2.775h37.869c1.46,0,2.647-1.245,2.647-2.775V51.469h-12.86v3.028c0,2.452-1.911,4.447-4.261,4.447h-8.922c-2.35,0-4.261-1.995-4.261-4.447v-3.028H27.456z"/></g><g><path fill="#fdfcef" d="M60.162,50.579c-0.003,3.157,1.946,6.144,5.297,8.117l0,0c0,1.705-0.497,3.593-1.118,4.795c-0.22,0.426,0.125,0.923,0.602,0.871c3.092-0.34,6.022-1.867,7.579-3.393h1.766c7.802,0,14.126-4.652,14.126-10.39S82.09,40.19,74.288,40.19S60.162,44.841,60.162,50.579"/><path fill="#472b29" d="M64.877,64.866c-0.362,0-0.703-0.176-0.91-0.479c-0.229-0.334-0.256-0.765-0.069-1.125c0.501-0.969,1.005-2.64,1.058-4.286c-3.37-2.075-5.295-5.122-5.292-8.397c0-6.004,6.562-10.889,14.626-10.889s14.626,4.885,14.626,10.89s-6.562,10.89-14.626,10.89h-1.566c-1.567,1.458-4.507,3.037-7.725,3.391C64.957,64.864,64.917,64.866,64.877,64.866z M74.289,40.69c-7.514,0-13.626,4.437-13.626,9.89v0c-0.003,2.992,1.838,5.793,5.051,7.686c0.152,0.09,0.246,0.253,0.246,0.431c0,1.672-0.461,3.645-1.174,5.025c-0.019,0.035-0.017,0.069,0.006,0.101c0.016,0.023,0.048,0.048,0.097,0.044c3.086-0.339,5.882-1.878,7.283-3.253c0.094-0.092,0.22-0.143,0.351-0.143h1.767c7.514,0,13.626-4.437,13.626-9.89S81.802,40.69,74.289,40.69z M60.163,50.58h0.01H60.163z"/><path fill="#472b29" d="M80.835 46.741h-3.89c-.138 0-.25-.112-.25-.25s.112-.25.25-.25h3.89c.138 0 .25.112.25.25S80.972 46.741 80.835 46.741zM75.216 46.741h-8.211c-.138 0-.25-.112-.25-.25s.112-.25.25-.25h8.211c.138 0 .25.112.25.25S75.354 46.741 75.216 46.741zM82.563 49.334H71.759c-.138 0-.25-.112-.25-.25s.112-.25.25-.25h10.804c.138 0 .25.112.25.25S82.701 49.334 82.563 49.334zM70.03 49.334h-5.186c-.138 0-.25-.112-.25-.25s.112-.25.25-.25h5.186c.138 0 .25.112.25.25S70.168 49.334 70.03 49.334zM78.242 51.927H64.844c-.138 0-.25-.112-.25-.25s.112-.25.25-.25h13.397c.138 0 .25.112.25.25S78.38 51.927 78.242 51.927zM74.72 54.953h-7.715c-.138 0-.25-.112-.25-.25s.112-.25.25-.25h7.715c.138 0 .25.112.25.25S74.858 54.953 74.72 54.953z"/><g><path fill="#ee3e54" d="M82.091 52.482A5.388 5.388 0 1 0 82.091 63.257999999999996A5.388 5.388 0 1 0 82.091 52.482Z"/><path fill="#472b29" d="M82.09,63.759c-3.246,0-5.888-2.642-5.888-5.889c0-3.247,2.642-5.888,5.888-5.888c3.247,0,5.889,2.642,5.889,5.888C87.979,61.117,85.338,63.759,82.09,63.759z M82.09,52.982c-2.695,0-4.888,2.193-4.888,4.888c0,2.696,2.192,4.889,4.888,4.889s4.889-2.193,4.889-4.889C86.979,55.175,84.786,52.982,82.09,52.982z"/></g><g><path fill="#fdfcef" d="M84.246 58.349c-.219-.217-.48-.327-.779-.327-.303 0-.566.11-.784.328-.219.218-.329.482-.329.784 0 .299.108.561.324.779.216.218.481.328.789.328.305 0 .568-.111.783-.33.216-.219.324-.48.324-.777C84.575 58.833 84.464 58.569 84.246 58.349zM83.869 59.134c0 .109-.039.201-.119.282-.161.163-.415.157-.57 0-.08-.081-.119-.173-.119-.282 0-.112.04-.206.121-.287.079-.08.173-.12.286-.12.108 0 .201.04.281.12C83.829 58.928 83.869 59.022 83.869 59.134zM81.613 56.609c0-.305-.11-.568-.329-.785-.219-.216-.481-.325-.783-.325-.301 0-.563.109-.78.325-.218.217-.328.481-.328.785 0 .299.108.562.324.78.216.22.48.33.784.33.307 0 .572-.11.788-.33C81.504 57.17 81.613 56.908 81.613 56.609zM80.907 56.609c0 .111-.039.204-.118.285-.159.158-.408.162-.571 0-.08-.081-.119-.174-.119-.285 0-.112.039-.206.118-.286.08-.079.173-.118.284-.118.112 0 .206.039.287.118C80.868 56.404 80.907 56.497 80.907 56.609z"/><path fill="#fdfcef" d="M83.803,55.547c-0.018-0.03-0.051-0.049-0.086-0.049h-1.766c-0.056,0-0.1,0.044-0.1,0.1v0.507c0,0.056,0.044,0.1,0.1,0.1h0.838l-2.188,3.889c-0.018,0.03-0.018,0.068,0.001,0.1c0.018,0.03,0.051,0.049,0.086,0.049h0.507c0.036,0,0.069-0.02,0.088-0.051l2.522-4.544C83.822,55.616,83.822,55.578,83.803,55.547z"/></g></g></g><g><path fill="#fdfcef" d="M40.368,73.94c1.883,0,3.517,0,3.54,0c2.11,0,3.821-1.674,3.821-3.739c0-1.802-1.302-3.305-3.035-3.66c0.02-0.158,0.034-0.317,0.034-0.48c0-2.139-1.772-3.873-3.957-3.873c-1.29,0-2.433,0.607-3.155,1.543c-0.185-2.381-2.358-4.218-4.9-3.913c-1.859,0.223-3.397,1.629-3.739,3.431c-0.11,0.578-0.098,1.139,0.011,1.665c-0.498-0.525-1.208-0.856-1.998-0.856c-1.446,0-2.627,1.102-2.72,2.494c-0.657-0.142-1.371-0.133-2.123,0.143c-1.438,0.528-2.462,1.853-2.522,3.356c-0.085,2.133,1.657,3.889,3.818,3.889c0.164,0,0.741,0,0.874,0h7.934 M33.891,73.94h0.36"/><path fill="#472b29" d="M43.909,74.44h-3.541c-0.276,0-0.5-0.224-0.5-0.5s0.224-0.5,0.5-0.5h3.541c1.831,0,3.32-1.453,3.32-3.239c0-1.524-1.108-2.857-2.636-3.17c-0.255-0.052-0.428-0.292-0.396-0.551c0.017-0.138,0.029-0.277,0.029-0.419c0-1.86-1.551-3.373-3.457-3.373c-1.092,0-2.098,0.491-2.76,1.348c-0.126,0.164-0.342,0.233-0.538,0.173c-0.198-0.059-0.34-0.234-0.355-0.44c-0.079-1.019-0.565-1.943-1.369-2.603c-0.828-0.68-1.886-0.982-2.974-0.853c-1.646,0.197-3.006,1.442-3.307,3.028c-0.094,0.496-0.091,0.99,0.009,1.471c0.046,0.219-0.06,0.441-0.258,0.544c-0.197,0.104-0.439,0.064-0.595-0.099c-0.428-0.451-1.008-0.7-1.635-0.7c-1.17,0-2.146,0.891-2.221,2.027c-0.01,0.145-0.082,0.279-0.198,0.366c-0.116,0.088-0.264,0.12-0.406,0.089c-0.639-0.138-1.243-0.098-1.845,0.124c-1.262,0.463-2.145,1.631-2.195,2.906c-0.035,0.875,0.282,1.708,0.895,2.345c0.635,0.661,1.495,1.024,2.423,1.024h8.808c0.276,0,0.5,0.224,0.5,0.5s-0.224,0.5-0.5,0.5h-8.808c-1.185,0-2.33-0.485-3.144-1.332c-0.803-0.835-1.219-1.928-1.174-3.078c0.068-1.675,1.213-3.204,2.85-3.805c0.61-0.225,1.243-0.307,1.88-0.245c0.345-1.396,1.629-2.424,3.136-2.424c0.493,0,0.977,0.113,1.414,0.323c0.009-0.241,0.036-0.483,0.082-0.725c0.381-2.01,2.096-3.586,4.17-3.835c1.363-0.162,2.686,0.218,3.727,1.073c0.748,0.613,1.278,1.409,1.546,2.302c0.791-0.648,1.786-1.007,2.843-1.007c2.458,0,4.457,1.961,4.457,4.373c0,0.034-0.001,0.068-0.002,0.102c1.765,0.555,3.004,2.188,3.004,4.038C48.229,72.538,46.291,74.44,43.909,74.44z M34.251,74.44h-0.359c-0.276,0-0.5-0.224-0.5-0.5s0.224-0.5,0.5-0.5h0.359c0.276,0,0.5,0.224,0.5,0.5S34.527,74.44,34.251,74.44z"/><path fill="#472b29" d="M42.201,68.637c-0.018,0-0.036-0.002-0.055-0.006c-0.135-0.03-0.22-0.164-0.189-0.299c0.037-0.164,0.094-0.325,0.169-0.479c0.605-1.224,2.274-1.677,3.722-1.007c0.126,0.058,0.181,0.207,0.122,0.332c-0.058,0.125-0.209,0.179-0.331,0.122c-1.207-0.556-2.579-0.209-3.063,0.774c-0.059,0.118-0.102,0.241-0.13,0.367C42.419,68.558,42.315,68.637,42.201,68.637z"/><g><path fill="#472b29" d="M37.042,74.44h-1.106c-0.276,0-0.5-0.224-0.5-0.5s0.224-0.5,0.5-0.5h1.106c0.276,0,0.5,0.224,0.5,0.5S37.318,74.44,37.042,74.44z"/></g></g></svg>