<svg xmlns="http://www.w3.org/2000/svg" viewBox="0 0 16 16"><path fill="#ffeea3" d="M12.5,12.75c0,1.52-1.36,2.75-3.04,2.75H6.5c-0.82,0-1.58-0.41-1.96-1l-1.91-4.46 C2.48,9.79,2.46,9.43,2.59,9.11c0.15-0.37,0.45-0.64,0.88-0.77L4.5,7.97V4.5c0-0.55,0.45-1,1-1c0.25,0,0.47,0.09,0.67,0.26 l0.33,0.3l0.33-0.3c0.4-0.35,0.94-0.35,1.34,0l0.33,0.3l0.33-0.3c0.29-0.25,0.61-0.32,1.02-0.19l0.65,0.2V1.5c0-0.55,0.45-1,1-1 c0.36,0,0.67,0.19,0.85,0.47l0.13,0.55C12.49,1.77,12.5,8.98,12.5,12.75z"/><path fill="#ba9b48" d="M13,1.5C13,0.673,12.327,0,11.5,0S10,0.673,10,1.5v1.592C9.843,3.036,9.676,3,9.5,3 c-0.386,0-0.734,0.15-1,0.39C8.234,3.15,7.886,3,7.5,3s-0.734,0.15-1,0.39C6.234,3.15,5.886,3,5.5,3C4.673,3,4,3.673,4,4.5v3.122 c-0.333,0.12-0.595,0.212-0.7,0.245c-0.546,0.17-0.974,0.555-1.174,1.057C1.939,9.39,1.975,9.91,2.197,10.303l1.887,4.399 C4.576,15.503,5.502,16,6.5,16h2.965C11.414,16,13,14.544,13,12.754c0,0-0.014-11.217-0.022-11.254H13z M9.5,4 C9.775,4,10,4.225,10,4.5v5C10,9.775,9.775,10,9.5,10S9,9.775,9,9.5v-5C9,4.225,9.225,4,9.5,4z M7.5,4C7.775,4,8,4.225,8,4.5v2.136 C7.798,6.549,7.576,6.5,7.342,6.5C7.237,6.5,7.126,6.515,7,6.542V4.5C7,4.225,7.225,4,7.5,4z M5,4.5C5,4.225,5.225,4,5.5,4 S6,4.225,6,4.5v2.392c-0.325,0.12-0.666,0.245-1,0.367V4.5z M12,12.754C12,13.992,10.862,15,9.465,15H6.5 c-0.653,0-1.253-0.314-1.53-0.756L3.094,9.862c-0.101-0.179-0.114-0.38-0.039-0.567C3.143,9.074,3.34,8.901,3.598,8.822 c0.481-0.151,3.501-1.27,3.577-1.302C7.594,7.417,8,7.73,8,8.134c0,0.262-0.171,0.5-0.447,0.602l-2.48,1.04l-0.071,1.195 l0.998,0.059l0.034-0.572l1.885-0.791c0.034-0.013,0.061-0.037,0.094-0.052C8.071,10.387,8.712,11,9.5,11c0.827,0,1.5-0.673,1.5-1.5 v-8C11,1.225,11.225,1,11.5,1S12,1.225,12,1.5h0.022C12.014,1.537,12,12.754,12,12.754z"/></svg>