<svg xmlns="http://www.w3.org/2000/svg" viewBox="0 0 512 512"><path fill="#4f77c4" d="M503.9,256c0,56.41-18.83,108.43-50.55,150.12c-10.72,14.09-22.91,27-36.35,38.49	c-4.53,3.87-9.2,7.58-14,11.13c-37.86,27.96-83.96,45.41-133.98,48.02c-2.58,0.14-5.18,0.23-7.78,0.29	c-0.84,0.02-1.68,0.03-2.53,0.04c-0.94,0.01-1.88,0.01-2.82,0.01s-1.88,0-2.82-0.01c-3.21-0.04-6.4-0.13-9.58-0.3	c-50.21-2.47-96.48-19.89-134.49-47.91c-4.8-3.54-9.47-7.24-14-11.11c-13.49-11.52-25.74-24.46-36.49-38.59	C26.75,364.5,7.9,312.45,7.9,256c0-137,111.06-248.1,248-248.1S503.9,119,503.9,256z"/><ellipse cx="344" cy="228.5" fill="#e9c39e" rx="34.5" ry="24" transform="rotate(-81.344 343.994 228.504)"/><ellipse cx="167" cy="229.5" fill="#e9c39e" rx="24" ry="34.5" transform="rotate(-8.66 167.011 229.542)"/><path fill="#fff" d="M157.699,197.349c-0.015-1.912,0.01-3.906,0.873-5.612s2.834-3.012,4.67-2.477	c2.184,0.637,2.966,3.271,3.384,5.507c4.244,22.687,6.757,45.698,7.51,68.766c0.095,2.9-1.733,9.213-5.322,5.54	c-2.838-2.904-3.408-9.8-4.265-13.521c-2.81-12.192-4.765-24.58-5.849-37.044C158.087,211.472,157.753,204.412,157.699,197.349z"/><path fill="#fff" d="M354.867,197.203c0.015-1.912-0.01-3.906-0.873-5.612c-0.864-1.706-2.834-3.012-4.67-2.477	c-2.184,0.637-2.966,3.271-3.384,5.507c-4.244,22.687-6.757,45.698-7.51,68.766c-0.095,2.9,1.733,9.213,5.322,5.54	c2.838-2.904,3.408-9.8,4.265-13.521c2.81-12.192,4.765-24.58,5.849-37.044C354.479,211.326,354.813,204.266,354.867,197.203z"/><path fill="#e9c39e" d="M453.35,406.12c-10.72,14.09-22.91,27-36.35,38.49c-4.53,3.87-9.2,7.58-14,11.13	c-37.86,27.96-83.96,45.41-133.98,48.02c-1.87,0.08-3.76,0.13-5.64,0.17c-1.18,0.03-2.37,0.04-3.56,0.06	c-1.33,0.01-2.65,0.01-3.97,0.01c-1.33,0-2.65,0-3.98-0.01c-2.8-0.03-5.59-0.1-8.38-0.2c-50.21-2.47-96.48-19.89-134.49-47.91	c-4.8-3.54-9.47-7.24-14-11.11c-13.49-11.52-25.74-24.46-36.49-38.59c35.59-14.62,78.79-25.36,126.5-30.76	c5.63-0.65,11.33-1.21,17.08-1.7l2.42-44.29c-21.28-17.54-39.42-45.3-39.42-82.87C165.09,177.32,154.83,101,256,101	s90.91,76.32,90.91,145.56c0,37.57-18.14,65.33-39.42,82.87l2.42,44.29c5.86,0.5,11.66,1.07,17.39,1.72	C374.83,380.86,417.87,391.56,453.35,406.12z"/><path fill="#fff" d="M346.57,260.94c-0.51,4.18-1.29,8.37-2.36,12.56c-1.15,4.55-2.65,9.09-4.51,13.58	c-1.8,4.36-3.95,8.68-6.48,12.92c-2.35,3.97-5.04,7.87-8.06,11.68c-3.37,4.24-7.17,8.35-11.42,12.32c-1.98,1.84-4.07,3.65-6.25,5.43	c-42.97,15.87-60.01,15.87-102.98,0c-31-23.1-40.67-59.55-39.45-90.43c59.03,19.58,122.54,19.58,181.88,0	C347.58,246.14,347.49,253.51,346.57,260.94z"/><path fill="#364489" d="M453.35,406.12c-10.72,14.09-22.91,27-36.35,38.49c-4.53,3.87-9.2,7.58-14,11.13	c-37.86,27.96-83.96,45.41-133.98,48.02c-1.87,0.08-3.76,0.13-5.64,0.17c-1.18,0.03-2.37,0.04-3.56,0.06	c-1.33,0.01-2.65,0.01-3.97,0.01c-1.33,0-2.65,0-3.98-0.01c-2.8-0.03-5.59-0.1-8.38-0.2c-50.21-2.47-96.48-19.89-134.49-47.91	c-4.8-3.54-9.47-7.24-14-11.11c-13.49-11.52-25.74-24.46-36.49-38.59c35.59-14.62,78.79-25.36,126.5-30.76	c0.93,38.49,32.42,69.41,71.15,69.41c38.71,0,70.2-30.91,71.14-69.39C374.83,380.86,417.87,391.56,453.35,406.12z"/><path fill="#4a1b13" d="M153.796,115.257c8.039-25.161,29.385-46.302,55.427-52.176s55.687,4.932,69.87,27.289	c24.159,0.941,47.514,14.02,60.738,34.011c13.224,19.991,15.968,46.37,7.137,68.599c-22.438,1.787-45.391-10.619-55.962-30.249	c-3.652-6.781-5.916-14.266-10.027-20.786c-4.111-6.52-10.792-12.224-18.569-12.272c-12.757-0.08-20.113,13.615-27.047,24.191	c-10.484,15.992-45.406,48.235-67.651,38.812C145.36,183.209,148.182,132.826,153.796,115.257z"/><circle cx="217.833" cy="218.667" r="9.833" fill="#4a1b13"/><circle cx="294.167" cy="218.667" r="9.833" fill="#4a1b13"/><path fill="#add4f6" d="M346.57,260.94c-0.51,4.18-1.29,8.37-2.36,12.56h-51.46L346.57,260.94z"/><path fill="#add4f6" d="M339.7,287.08c-1.8,4.36-3.95,8.68-6.48,12.92h-48.89L339.7,287.08z"/><path fill="#add4f6" d="M325.16,311.68c-3.37,4.24-7.17,8.35-11.42,12.32h-41.38L325.16,311.68z"/><g><path fill="#add4f6" d="M165.918,260.94c0.51,4.18,1.29,8.37,2.36,12.56h51.46L165.918,260.94z"/><path fill="#add4f6" d="M172.569,287.08c1.8,4.36,3.95,8.68,6.48,12.92h48.89L172.569,287.08z"/><path fill="#add4f6" d="M186.328,311.68c3.37,4.24,7.17,8.35,11.42,12.32h41.38L186.328,311.68z"/></g></svg>