<svg xmlns="http://www.w3.org/2000/svg" viewBox="0 0 24 24"><path d="M 4.21875 0.59375 L 3.03125 4.71875 L 1.25 11 L 0 11 L 0 13 L 2.75 13 L 2.96875 12.28125 L 3.78125 9.375 L 5.03125 16.1875 L 5.75 20.1875 L 6.96875 16.3125 L 8.59375 11.09375 L 9.0625 12.34375 L 9.3125 13 L 12.28125 13 C 12.628906 13.597656 13.261719 14 14 14 C 15.101563 14 16 13.101563 16 12 C 16 10.898438 15.101563 10 14 10 C 13.261719 10 12.628906 10.402344 12.28125 11 L 10.6875 11 L 9.4375 7.65625 L 8.40625 4.9375 L 7.53125 7.6875 L 6.25 11.8125 L 4.96875 4.8125 Z M 19.625 4.25 L 18.59375 5.96875 C 20.617188 7.199219 22 9.355469 22 12 C 22 14.644531 20.617188 16.800781 18.59375 18.03125 L 19.625 19.75 C 22.199219 18.183594 24 15.355469 24 12 C 24 8.644531 22.199219 5.816406 19.625 4.25 Z M 17.5 7.75 L 16.5 9.46875 C 17.4375 10.015625 18 10.855469 18 12 C 18 13.019531 17.402344 14.003906 16.5 14.53125 L 17.5 16.25 C 19 15.375 20 13.78125 20 12 C 20 10.144531 18.960938 8.601563 17.5 7.75 Z"/></svg>