<svg xmlns="http://www.w3.org/2000/svg" viewBox="0 0 26 26"><path d="M 25.3125 0.90625 C 21.3125 0.90625 21.09375 6.304688 21.09375 7.90625 C 21.09375 13.757813 20.671875 14.945313 15 15 L 15 5.3125 C 15 3.210938 15.5 2.09375 18 2.09375 L 18 1 L 7.90625 1 L 7.90625 2.09375 C 10.507813 2.09375 11.09375 3.210938 11.09375 5.3125 L 11.09375 15 C 5.324219 14.957031 4.90625 13.785156 4.90625 8 C 4.90625 6.398438 4.6875 1 0.6875 1 L 0 1 L 0 2.1875 C 1.300781 2.1875 2 3.105469 2 4.90625 L 2 9 C 2 16.699219 7.488281 17 8.6875 17 L 11.09375 17 L 11.09375 21.40625 C 11.09375 23.105469 10.59375 23.90625 8.09375 23.90625 L 8.09375 25 L 18.1875 25 L 18.1875 23.90625 C 15.585938 23.90625 15 23.105469 15 21.40625 L 15 17 L 17.3125 17 C 18.511719 17 24 16.699219 24 9 L 24 4.90625 C 24 3.105469 24.699219 2.1875 26 2.1875 L 26 1 C 26 1 26.113281 1.007813 25.3125 0.90625 Z"/></svg>