<svg xmlns="http://www.w3.org/2000/svg" width="512" height="512" viewBox="0 0 512 512"><path fill="#49A0AE" d="M7.9,256C7.9,119,119,7.9,256,7.9C393,7.9,504.1,119,504.1,256c0,137-111.1,248.1-248.1,248.1C119,504.1,7.9,393,7.9,256z"/><path fill="#C90018" d="M173.8,385.7c-8.4,11.5-30,18.7-36.7,14.3c-6.7-4.4,0.5-63.5-10.1-70.4c-10.6-6.9-69.3,15.1-76.1,6.8c-6.7-8.2-2.8-15.6,5.7-27l107.1-114.7c8.4-11.5,25.6-14.1,38.3-5.8l40.3,26.3c12.7,8.3,16.2,24.3,7.8,35.8L173.8,385.7z"/><path fill="#EF0012" d="M160.5,386.6c-9.2,10.9-19.3,17.6-25.6,12.7c-6.3-4.9-6.7-65-16.6-72.7c-9.9-7.7-69.6,9.9-75.7,1.1c-6.1-8.8-1.6-15.9,7.5-26.8l114-107.3c9.2-10.9,26.3-12.2,38.3-2.9l38,29.5c12,9.3,14.3,25.7,5.1,36.6L160.5,386.6z"/><path fill="#C90018" d="M340.1,385.7c8.4,11.5,30,18.7,36.7,14.3c6.7-4.4-0.5-63.5,10.1-70.4c10.6-6.9,69.3,15.1,76.1,6.8c6.7-8.2,2.8-15.6-5.7-27L350.2,194.7c-8.4-11.5-25.6-14.1-38.3-5.8l-40.3,26.3c-12.7,8.3-16.2,24.3-7.8,35.8L340.1,385.7z"/><path fill="#EF0012" d="M353.4,386.6c9.2,10.9,19.3,17.6,25.6,12.7c6.3-4.9,6.7-65,16.6-72.7c9.9-7.7,69.6,9.9,75.7,1.1c6.1-8.8,1.6-15.9-7.5-26.8l-114-107.3c-9.2-10.9-26.3-12.2-38.3-2.9l-38,29.5c-12,9.3-14.3,25.7-5.1,36.6L353.4,386.6z"/><g><path fill="#C90018" d="M353.5,284.2c0,17.3-14,31.3-31.3,31.3H191.6c-17.3,0-31.3-14-31.3-31.3V153.7c0-17.3,14-31.3,31.3-31.3h130.5c17.3,0,31.3,14,31.3,31.3V284.2z"/><path fill="#C90018" d="M279,333.4c-12.2,12.2-32.1,12.2-44.3,0l-92.3-92.3c-12.2-12.2-12.2-32.1,0-44.3l92.3-92.3c12.2-12.2,32.1-12.2,44.3,0l92.3,92.3c12.2,12.2,12.2,32.1,0,44.3L279,333.4z"/><path fill="#FFC50B" d="M256.9 132.7A86.2 86.2 0 1 0 256.9 305.1A86.2 86.2 0 1 0 256.9 132.7Z"/><path fill="#FFF800" d="M256.9 154.4L275.8 192.8 318.2 198.9 287.5 228.8 294.7 271 256.9 251.1 219 271 226.2 228.8 195.6 198.9 237.9 192.8z"/></g></svg>