<svg xmlns="http://www.w3.org/2000/svg" viewBox="0 0 24 24"><path d="M 13 0 C 10.199219 0 11.09375 0.59375 11.59375 0.59375 C 13.492188 0.492188 18 0.699219 20 3.5 C 20 3.5 18.699219 0 13 0 Z M 12.6875 1 C 9.6875 1 9 1.511719 9 2.3125 C 9 3.3125 10.3125 3.585938 12.3125 3.1875 C 15.710938 2.585938 17.394531 2.988281 18.59375 4.1875 C 17.394531 5.085938 17.695313 5.804688 17.09375 6.40625 C 15.492188 8.007813 14.300781 6 11 6 C 6.101563 6 5.5 11 5.5 11 C 5.5 11 5.011719 10 3.8125 10 C 2.613281 10 2 10.511719 2 11.3125 C 2 12.414063 3.304688 13.699219 5.40625 12.5 C 6.007813 13.898438 8.113281 14.710938 8.3125 14.8125 C 9.011719 14.914063 11 15.300781 11 16 C 11 16.898438 9 17.300781 9 18 C 9 19.601563 13.207031 18.085938 15.40625 21.6875 C 16.207031 23.085938 18.5 23.40625 18.5 22.40625 C 18.5 18.605469 13.210938 17.5 13.3125 17.5 C 14.011719 17 16.09375 16.105469 16.09375 13.40625 C 16.09375 11.105469 14.09375 9.90625 14.09375 9.90625 C 14.09375 9.90625 17.3125 11.011719 17.3125 13.8125 C 17.3125 15.613281 16.40625 16.90625 16.40625 16.90625 C 16.40625 16.90625 19 15.09375 19 9.09375 C 19.699219 9.59375 21.011719 9.804688 21.8125 9.90625 C 22.710938 10.007813 23.613281 9.613281 23.8125 9.3125 C 24.210938 8.3125 23.894531 6.414063 23.59375 5.8125 C 22.695313 4.113281 20.914063 3.710938 19.3125 3.8125 C 17.914063 1.8125 14.6875 1 12.6875 1 Z M 0 4 L 0 5 L 9.3125 5 C 7.8125 5 7.59375 4 7.59375 4 Z M 0 6 L 0 7 L 5.90625 7 C 5.90625 7 6.085938 6.101563 7.1875 6 Z M 22.59375 6.3125 C 22.992188 6.3125 23.3125 6.601563 23.3125 7 C 23.3125 7.398438 22.992188 7.6875 22.59375 7.6875 C 22.195313 7.6875 21.90625 7.398438 21.90625 7 C 21.90625 6.601563 22.195313 6.3125 22.59375 6.3125 Z"/></svg>