<svg xmlns="http://www.w3.org/2000/svg" viewBox="0 0 64 64"><radialGradient id="fyOv8Z9FFurGFiVZkA3KDa" cx="31" cy="32" r="31.504" gradientUnits="userSpaceOnUse" spreadMethod="reflect"><stop offset="0" stop-color="#f4e9c3"/><stop offset=".219" stop-color="#f8eecd"/><stop offset=".644" stop-color="#fdf4dc"/><stop offset="1" stop-color="#fff6e1"/></radialGradient><path fill="url(#fyOv8Z9FFurGFiVZkA3KDa)" d="M0,4L0,4c0-2.209,1.791-4,4-4h0c2.209,0,4,1.791,4,4v0c0,2.209-1.791,4-4,4h0 C1.791,8,0,6.209,0,4z M57.5,25h-1c-1.933,0-3.5,1.567-3.5,3.5v0c0,1.933,1.567,3.5,3.5,3.5H58c2.209,0,4,1.791,4,4v0 c0,2.209-1.791,4-4,4h-5.5c-1.381,0-2.5,1.119-2.5,2.5v0c0,1.381,1.119,2.5,2.5,2.5H54c2.209,0,4,1.791,4,4v0c0,2.209-1.791,4-4,4 h-7c-1.105,0-2,0.895-2,2v0c0,1.105,0.895,2,2,2h0.5c1.933,0,3.5,1.567,3.5,3.5v0c0,1.933-1.567,3.5-3.5,3.5h-34 c-1.933,0-3.5-1.567-3.5-3.5v0c0-1.933,1.567-3.5,3.5-3.5h0c1.381,0,2.5-1.119,2.5-2.5v0c0-1.381-1.119-2.5-2.5-2.5H9 c-2.209,0-4-1.791-4-4v0c0-2.209,1.791-4,4-4h0.5c1.933,0,3.5-1.567,3.5-3.5v0c0-1.933-1.567-3.5-3.5-3.5H5c-2.761,0-5-2.239-5-5v0 c0-2.761,2.239-5,5-5h2c1.657,0,3-1.343,3-3v0c0-1.657-1.343-3-3-3H5.5C3.567,21,2,19.433,2,17.5v0C2,15.567,3.567,14,5.5,14H17 c1.657,0,3-1.343,3-3v0c0-1.657-1.343-3-3-3h-2c-2.209,0-4-1.791-4-4v0c0-2.209,1.791-4,4-4l36,0c2.209,0,4,1.791,4,4v0 c0,2.209-1.791,4-4,4h-2c-2.209,0-4,1.791-4,4v0c0,2.209,1.791,4,4,4h8.5c2.485,0,4.5,2.015,4.5,4.5v0C62,22.985,59.985,25,57.5,25z M57.5,64L57.5,64c1.933,0,3.5-1.567,3.5-3.5v0c0-1.933-1.567-3.5-3.5-3.5h0c-1.933,0-3.5,1.567-3.5,3.5v0 C54,62.433,55.567,64,57.5,64z"/><linearGradient id="fyOv8Z9FFurGFiVZkA3KDb" x1="32" x2="32" y1="64.025" y2="14.025" gradientUnits="userSpaceOnUse" spreadMethod="reflect"><stop offset="0" stop-color="#0d47a1"/><stop offset=".365" stop-color="#135fba"/><stop offset=".734" stop-color="#1770cc"/><stop offset="1" stop-color="#1976d2"/></linearGradient><path fill="url(#fyOv8Z9FFurGFiVZkA3KDb)" d="M32,6C18.195,6,7,17.195,7,31s11.195,25,25,25s25-11.195,25-25S45.805,6,32,6z M32,51 c-11.044,0-20-8.956-20-20s8.956-20,20-20s20,8.956,20,20S43.044,51,32,51z"/></svg>