<svg xmlns="http://www.w3.org/2000/svg" viewBox="0 0 128 128"><path d="M 123.99805 1.0175781 C 123.80059 1.0226563 123.60039 1.0496094 123.40039 1.0996094 L 23.400391 21.699219 C 21.800391 21.999219 20.699609 23.599219 21.099609 25.199219 C 21.399609 26.599219 22.6 27.599609 24 27.599609 C 24.2 27.599609 24.399609 27.6 24.599609 27.5 L 124.59961 6.9003906 C 126.19961 6.6003906 127.30039 5.0003906 126.90039 3.4003906 C 126.63789 2.0003906 125.38027 0.98203125 123.99805 1.0175781 z M 64 29.199219 C 48.925 29.199219 33.850391 30.600391 18.900391 33.400391 C 12.000391 34.600391 6.5007812 39.799609 4.8007812 46.599609 C 4.4007812 48.199609 5.4 49.799219 7 50.199219 C 8.6 50.599219 10.199609 49.6 10.599609 48 C 11.699609 43.5 15.300391 40.100781 19.900391 39.300781 C 49.100391 33.800781 78.7 33.800781 108 39.300781 C 112.6 40.100781 116.20078 43.5 117.30078 48 C 122.20078 68.3 122.50039 89.799219 117.90039 110.19922 L 117.5 111.90039 C 116.3 117.30039 111.59961 121 106.09961 121 L 21.800781 121 C 16.300781 121 11.600391 117.20039 10.400391 111.90039 L 10 110.19922 C 7 96.499219 6.0007812 82.499609 7.3007812 68.599609 C 7.4007812 66.899609 6.1996094 65.500391 4.5996094 65.400391 C 2.8996094 65.200391 1.5003906 66.499609 1.4003906 68.099609 C 0.000390625 82.599609 0.99960938 97.2 4.0996094 111.5 L 4.5 113.19922 C 6.3 121.29922 13.399219 127 21.699219 127 L 106.19922 127 C 114.49922 127 121.60039 121.29922 123.40039 113.19922 L 123.80078 111.5 C 128.50078 90.2 128.29961 67.799609 123.09961 46.599609 C 121.49961 39.799609 115.99961 34.600391 109.09961 33.400391 C 94.149609 30.600391 79.075 29.199219 64 29.199219 z M 27 51 C 23.7 51 21 53.7 21 57 L 21 73 C 21 76.3 23.7 79 27 79 L 101 79 C 104.3 79 107 76.3 107 73 L 107 57 C 107 53.7 104.3 51 101 51 L 27 51 z M 31 93 A 10 10 0 0 0 31 113 A 10 10 0 0 0 31 93 z M 97 95 C 91.5 95 87 99.5 87 105 C 87 110.5 91.5 115 97 115 C 102.5 115 107 110.5 107 105 C 107 99.5 102.5 95 97 95 z"/></svg>