<svg xmlns="http://www.w3.org/2000/svg" viewBox="0 0 40 40"><path fill="#dff0fe" d="M12 1.5A3.5 3.5 0 1 0 12 8.5A3.5 3.5 0 1 0 12 1.5Z"/><path fill="#4788c7" d="M12,2c1.654,0,3,1.346,3,3s-1.346,3-3,3S9,6.654,9,5S10.346,2,12,2 M12,1C9.791,1,8,2.791,8,5 s1.791,4,4,4s4-1.791,4-4S14.209,1,12,1L12,1z"/><g><path fill="#b6dcfe" d="M17.5,38.5c-1.103,0-2-0.897-2-2V20.894l-3.563-5.137l-2.617,1.814l2.224,3.206 c0.264,0.381,0.364,0.841,0.281,1.297s-0.337,0.853-0.718,1.116c-0.292,0.202-0.633,0.31-0.986,0.31 c-0.57,0-1.103-0.279-1.427-0.746l-2.707-3.902c-0.856-1.235-0.549-2.938,0.687-3.795l5.32-3.69 c0.249-0.173,0.535-0.317,0.9-0.455l6.921-2.308l2.111-5.916c0.254-0.71,0.93-1.188,1.684-1.188c0.204,0,0.406,0.035,0.601,0.104 c0.928,0.331,1.414,1.356,1.083,2.284l-2.403,6.732c-0.104,0.508-0.413,0.863-0.824,1l-4.472,1.491l3.276,4.724l11.489-7.978 C32.696,9.624,33.09,9.5,33.498,9.5c0.656,0,1.271,0.321,1.645,0.859c0.629,0.905,0.404,2.154-0.502,2.784L19.5,23.657V36.5 C19.5,37.603,18.603,38.5,17.5,38.5z"/><path fill="#4788c7" d="M23.609,2c0.147,0,0.292,0.025,0.433,0.076c0.669,0.239,1.019,0.977,0.78,1.645l-2.403,6.733 l-0.025,0.071l-0.014,0.074c-0.051,0.262-0.227,0.467-0.471,0.548l-3.84,1.28l-1.266,0.422l0.761,1.097l2.611,3.764l0.57,0.822 l0.822-0.571l11.078-7.693C32.897,10.093,33.192,10,33.498,10c0.493,0,0.954,0.241,1.234,0.645 c0.229,0.329,0.315,0.727,0.244,1.122c-0.071,0.394-0.292,0.737-0.621,0.966L19.43,23.098L19,23.396v0.523V36.5 c0,0.827-0.673,1.5-1.5,1.5S16,37.327,16,36.5V21.05v-0.313l-0.178-0.257l-3.189-4.598l-0.57-0.822l-0.822,0.57l-1.795,1.245 l-0.822,0.57l0.57,0.822l1.939,2.795c0.188,0.271,0.259,0.599,0.2,0.923c-0.059,0.324-0.24,0.606-0.511,0.794 C10.614,22.924,10.372,23,10.12,23c-0.406,0-0.785-0.198-1.016-0.531l-1.939-2.795l-0.768-1.107 c-0.339-0.489-0.467-1.08-0.362-1.666c0.106-0.585,0.433-1.095,0.922-1.434l1.02-0.707l4.3-2.983 c0.216-0.15,0.467-0.276,0.791-0.397l0.011-0.004l6.662-2.221l0.462-0.154l0.164-0.459l2.029-5.687 C22.579,2.344,23.066,2,23.609,2L23.609,2 M23.609,1c-0.94,0-1.821,0.584-2.155,1.519l-2.029,5.687l-6.708,2.236l0,0.001 c-0.349,0.13-0.69,0.29-1.01,0.512l-4.3,2.983l-1.02,0.707c-1.465,1.016-1.828,3.027-0.812,4.491l0.768,1.107l1.939,2.795 C8.717,23.664,9.413,24,10.12,24c0.439,0,0.883-0.129,1.271-0.399c1.014-0.703,1.266-2.095,0.562-3.109l-1.939-2.795l1.795-1.245 L15,21.05V36.5c0,1.381,1.119,2.5,2.5,2.5s2.5-1.119,2.5-2.5V23.919l14.926-10.365c1.134-0.788,1.415-2.345,0.627-3.479 C35.068,9.375,34.289,9,33.498,9c-0.492,0-0.989,0.145-1.424,0.447L20.996,17.14l-2.611-3.764l3.84-1.28 c0.61-0.203,1.022-0.717,1.137-1.306l2.403-6.733c0.425-1.19-0.196-2.499-1.386-2.923C24.124,1.043,23.864,1,23.609,1L23.609,1z"/></g></svg>