<svg xmlns="http://www.w3.org/2000/svg" viewBox="0 0 26 26"><path d="M 26 6 L 26 26 L 19 26 L 17.601563 23.898438 C 19 23.601563 20 22.398438 20 21 L 20 9 C 20 7.300781 18.699219 6 17 6 L 9 6 C 7.300781 6 6 7.300781 6 9 L 6 21 C 6 22.398438 7 23.601563 8.398438 23.898438 L 7 26 L 0 26 L 0 6 L 13 0 Z M 16.5 18.898438 C 15.601563 18.898438 14.898438 19.601563 14.898438 20.5 C 14.898438 21.398438 15.601563 22.101563 16.5 22.101563 C 17.398438 22.101563 18.101563 21.398438 18.101563 20.5 C 18.101563 19.601563 17.398438 18.898438 16.5 18.898438 Z M 8 11 L 8 14 C 8 14.601563 8.398438 15 9 15 L 17 15 C 17.601563 15 18 14.601563 18 14 L 18 11 C 18 10.398438 17.601563 10 17 10 L 9 10 C 8.398438 10 8 10.398438 8 11 Z M 15 9 C 15.601563 9 16 8.601563 16 8 C 16 7.398438 15.601563 7 15 7 L 11 7 C 10.398438 7 10 7.398438 10 8 C 10 8.601563 10.398438 9 11 9 Z M 10.300781 24 L 9 26 L 17 26 L 15.699219 24 Z M 9.5 22.101563 C 10.398438 22.101563 11.101563 21.398438 11.101563 20.5 C 11.101563 19.601563 10.398438 18.898438 9.5 18.898438 C 8.601563 18.898438 7.898438 19.601563 7.898438 20.5 C 7.898438 21.398438 8.601563 22.101563 9.5 22.101563 Z"/></svg>