<?xml version="1.0"?><svg xmlns="http://www.w3.org/2000/svg" viewBox="0 0 128 128">    <path d="M 73 25.900391 C 72.5 25.900391 72 26.000781 71.5 26.300781 L 50.900391 38 C 50.300391 38.3 49.899609 38.800391 49.599609 39.400391 L 42 56 C 41.3 57.5 42 59.3 43.5 60 C 43.9 60.2 44.299219 60.300781 44.699219 60.300781 C 45.799219 60.300781 46.900391 59.6 47.400391 58.5 L 54.599609 42.800781 L 73 32.400391 L 91.300781 42.699219 L 98.5 58.400391 C 99 59.500391 100.09922 60.099609 101.19922 60.099609 L 124 60.099609 C 125.7 60.099609 127 58.799609 127 57.099609 C 127 55.399609 125.7 54.199219 124 54.199219 L 103.19922 54.199219 L 96.400391 39.300781 C 96.100391 38.700781 95.699609 38.200391 95.099609 37.900391 L 84.400391 31.900391 L 114 31.900391 C 115.7 31.900391 117 30.600391 117 28.900391 C 117 27.200391 115.7 25.900391 114 25.900391 L 73 25.900391 z M 17 35.699219 C 14.6 35.699219 12.300781 36.799609 10.800781 38.599609 C 5.0007812 45.599609 1 56.099219 1 64.199219 C 1 65.899219 2.3 67.199219 4 67.199219 C 5.7 67.199219 7 65.899219 7 64.199219 C 7 57.599219 10.600391 48.200391 15.400391 42.400391 C 15.900391 41.800391 16.6 41.699219 17 41.699219 C 17.4 41.699219 17.999609 41.800391 18.599609 42.400391 C 23.399609 48.200391 27 57.599219 27 64.199219 C 27 69.699219 22.5 74.199219 17 74.199219 C 15.2 74.199219 13.5 73.700781 12 72.800781 C 10.6 72.000781 8.7003906 72.400391 7.9003906 73.900391 C 7.0003906 75.300391 7.5003906 77.2 8.9003906 78 C 10.500391 78.9 12.2 79.600391 14 79.900391 L 14 86 L 4 86 C 2.3 86 1 87.3 1 89 C 1 90.7 2.3 92 4 92 L 64 92 L 82 92 L 123.80078 92 C 125.50078 92 126.80078 90.7 126.80078 89 C 126.80078 87.3 125.50078 86 123.80078 86 L 98.599609 86 L 98.599609 67.199219 C 98.599609 65.499219 97.299609 64.199219 95.599609 64.199219 C 93.899609 64.199219 92.599609 65.499219 92.599609 67.199219 L 92.599609 86 L 85 86 L 85 69.099609 C 85 67.399609 83.7 66.099609 82 66.099609 L 64 66.099609 C 62.3 66.099609 61 67.399609 61 69.099609 L 61 86 L 53.400391 86 L 53.400391 67.199219 C 53.400391 65.499219 52.100391 64.199219 50.400391 64.199219 C 48.700391 64.199219 47.400391 65.499219 47.400391 67.199219 L 47.400391 86 L 20 86 L 20 79.900391 C 27.4 78.500391 33 71.999219 33 64.199219 C 33 56.099219 28.999219 45.599609 23.199219 38.599609 C 21.699219 36.699609 19.4 35.699219 17 35.699219 z M 71.599609 49.025391 C 71.324609 49.025391 71.050781 49.049609 70.800781 49.099609 C 70.600781 49.199609 70.299609 49.200781 70.099609 49.300781 C 69.899609 49.400781 69.600391 49.499219 69.400391 49.699219 C 69.200391 49.799219 69.000781 49.999219 68.800781 50.199219 C 68.000781 50.999219 67.599609 52 67.599609 53 C 67.599609 53.3 67.599219 53.500781 67.699219 53.800781 C 67.799219 54.100781 67.800391 54.299609 67.900391 54.599609 C 68.100391 54.799609 68.200781 55.100781 68.300781 55.300781 C 68.500781 55.500781 68.600781 55.700391 68.800781 55.900391 C 69.000781 56.100391 69.200391 56.300391 69.400391 56.400391 C 69.600391 56.500391 69.799609 56.700781 70.099609 56.800781 C 70.299609 56.900781 70.600781 57 70.800781 57 C 71.100781 57 71.299609 57.099609 71.599609 57.099609 C 71.899609 57.099609 72.100391 57.1 72.400391 57 C 72.600391 56.9 72.899219 56.900781 73.199219 56.800781 C 73.399219 56.700781 73.700391 56.600391 73.900391 56.400391 C 74.100391 56.300391 74.3 56.100391 74.5 55.900391 C 74.7 55.700391 74.9 55.500781 75 55.300781 C 75.1 55.100781 75.300391 54.799609 75.400391 54.599609 C 75.500391 54.399609 75.599609 54.100781 75.599609 53.800781 C 75.599609 53.500781 75.699219 53.3 75.699219 53 C 75.699219 51.9 75.3 50.899219 74.5 50.199219 C 74.3 49.999219 74.100391 49.799219 73.900391 49.699219 C 73.700391 49.599219 73.399219 49.400781 73.199219 49.300781 C 72.999219 49.200781 72.700391 49.099609 72.400391 49.099609 C 72.150391 49.049609 71.874609 49.025391 71.599609 49.025391 z M 23.824219 97.949219 C 23.074219 97.999219 22.350781 98.35 21.800781 99 L 1.8007812 122 C 0.70078125 123.3 0.79960937 125.09922 2.0996094 126.19922 C 2.6996094 126.69922 3.3996094 126.90039 4.0996094 126.90039 C 4.8996094 126.90039 5.8003906 126.60039 6.4003906 125.90039 L 26.400391 102.90039 C 27.400391 101.70039 27.2 99.799219 26 98.699219 C 25.35 98.149219 24.574219 97.899219 23.824219 97.949219 z M 44.041016 97.986328 C 42.869141 98.000391 41.724219 98.675781 41.199219 99.800781 L 31.199219 122.80078 C 30.499219 124.30078 31.200781 126.09922 32.800781 126.69922 C 33.200781 126.89922 33.6 126.90039 34 126.90039 C 35.2 126.90039 36.300781 126.19961 36.800781 125.09961 L 46.800781 102.09961 C 47.500781 100.59961 46.799219 98.799219 45.199219 98.199219 C 44.824219 98.049219 44.431641 97.981641 44.041016 97.986328 z M 83.958984 97.986328 C 83.568359 97.981641 83.175781 98.049219 82.800781 98.199219 C 81.300781 98.899219 80.599219 100.59961 81.199219 102.09961 L 91.199219 125.09961 C 91.699219 126.19961 92.8 126.90039 94 126.90039 C 94.4 126.90039 94.799219 126.79922 95.199219 126.69922 C 96.699219 125.99922 97.400781 124.30078 96.800781 122.80078 L 86.800781 99.800781 C 86.275781 98.675781 85.130859 98.000391 83.958984 97.986328 z M 104.22461 97.988281 C 103.44961 97.925781 102.65 98.149219 102 98.699219 C 100.8 99.799219 100.59922 101.70039 101.69922 102.90039 L 121.69922 125.90039 C 122.29922 126.60039 123.1 126.90039 124 126.90039 C 124.7 126.90039 125.4 126.69922 126 126.19922 C 127.2 125.09922 127.40078 123.2 126.30078 122 L 106.30078 99 C 105.75078 98.4 104.99961 98.050781 104.22461 97.988281 z M 64 98 C 62.3 98 61 99.3 61 101 L 61 124 C 61 125.7 62.3 127 64 127 C 65.7 127 67 125.7 67 124 L 67 101 C 67 99.3 65.7 98 64 98 z"/></svg>