<svg xmlns="http://www.w3.org/2000/svg" viewBox="0 0 48 48"><path fill="#73a1b2" d="M16.324,33.636c-2.206-1.494-3.154-3.803-4.302-6.208c-0.277-0.58-0.555-1.164-0.725-1.783 c-0.209-0.758-0.251-1.554-0.218-2.34c0.061-1.447,0.371-2.95,0.921-4.29c0.559-2.174,0.942-3.672,1.962-5.623 c0.369-0.706,1.99-2.952,3.511-3.377c4.449-1.243,9.085-1.692,13.299,0.201c1.534,0.689,2.667,1.081,3.684,2.42 c1.146,1.508,1.873,3.38,2.466,5.179c1.628,5.763-1.27,12.328-5.602,16.464c0,0,0.549,4.046-3.437,5.404 c-1.352,1.278-2.501,2.01-5.086,1.756s-3.563-2.444-3.563-2.444S15.997,37.367,16.324,33.636z"/><path fill="#fcbf95" d="M12.035,18.877c-2.189-0.418-4.31-1.46-5.73-3.177s-2.352-4.162-1.617-6.266 c0.461-1.32,1.577-2.629,2.804-3.3c0.845-0.462,2.823-0.674,3.423-0.681c1.016-0.012,2.615,0.157,3.773,0.689 c1.565,0.718,2.838,2.048,3.488,3.642c0,0-4.033,2.401-4.98,5.544S12.035,18.877,12.035,18.877z"/><path fill="#fcbf95" d="M36.999,17.32c1.48-0.257,2.682-0.534,3.55-1.622c0.868-1.087,2.327-2.449,2.582-3.817 c0.34-1.833,0.298-3.864-0.778-5.386C41.042,4.64,37.387,4.026,35.24,4.77c-2.146,0.744-3.876,3.006-4.688,5.128 C30.552,9.898,35.999,11.515,36.999,17.32z"/><path fill="#fcbf95" d="M26.817,32.159c-0.479,0.838-1.356,1.649-2.243,2.031c-0.251,0.108-0.527,0.195-0.796,0.145 c-0.244-0.045-0.454-0.197-0.65-0.349c-0.722-0.558-1.722-1.367-2.343-2.035c0.85-0.08,1.431-0.46,2.281-0.54 c0.673-0.064,1.355-0.127,2.021-0.012C25.591,31.485,26.34,31.972,26.817,32.159z"/><path fill="#373837" d="M15.326,19.675c-0.026,0.64,0.314,1.826,0.442,2.454c0.127,0.628,0.425,1.244,0.937,1.63 c0.758,0.573,1.87,0.343,2.815,0.239c0.432-0.712,0.578-1.817,0.275-2.592s-0.982-1.394-1.782-1.624 C17.328,19.585,16.02,19.524,15.326,19.675z"/><path fill="#373837" d="M33.204,20.14c0.266,1.001,0.033,2.466-0.664,3.232c-0.698,0.766-2.491,1.038-3.512,0.866 c0.105-0.989,0.099-2.239,0.687-3.041C30.303,20.395,32.222,19.986,33.204,20.14z"/><path fill="#010101" d="M43.622,11.974c0.438-2.356,0.141-4.351-0.86-5.768c-1.464-2.069-5.331-2.722-7.686-1.909 c-2.36,0.818-4.052,3.201-4.86,5.12C26.6,7.786,23.053,7.711,18.443,9.176c-0.739-1.522-2.007-2.781-3.548-3.488 c-1.223-0.561-2.862-0.736-3.987-0.734c-0.518,0.006-2.662,0.198-3.657,0.742C5.908,6.43,4.717,7.832,4.216,9.269 c-0.849,2.43,0.323,5.08,1.703,6.749c1.288,1.558,3.218,2.685,5.469,3.223c-0.464,1.261-0.75,2.645-0.81,4.043 c-0.04,0.954,0.037,1.771,0.235,2.495c0.183,0.661,0.475,1.272,0.757,1.866l0.291,0.613c0.934,1.981,1.827,3.863,3.498,5.27 c-3.661,0.623-6.965,2.394-10.112,4.467c-0.535,0.352-0.035,1.219,0.505,0.863c3.135-2.065,6.418-3.855,10.097-4.4 c0.037,0.489,0.121,0.965,0.254,1.419c-2.528,0.806-4.884,2.022-6.661,4.092c-0.417,0.486,0.287,1.196,0.707,0.707 c1.69-1.97,3.918-3.106,6.314-3.863c0.204,0.431,0.45,0.833,0.747,1.188c0.117,0.14,0.245,0.266,0.375,0.391 c-1.342,1.302-2.575,2.791-3.556,4.311c-0.35,0.542,0.515,1.044,0.863,0.505c0.955-1.48,2.169-2.93,3.485-4.194 c0.093,0.059,0.187,0.117,0.284,0.17c0.001,0.002,0,0.005,0.001,0.007c0.684,1.608,2.195,2.57,4.374,2.783 c0.275,0.026,0.545,0.039,0.808,0.039c1.862,0,3.369-0.665,4.224-1.877c0.473-0.128,0.904-0.336,1.299-0.604 c1.807,1.36,3.59,2.647,4.94,4.611c0.362,0.527,1.229,0.027,0.863-0.505c-0.886-1.289-1.912-2.481-3.147-3.44 c-0.602-0.468-1.228-0.907-1.85-1.351c0.353-0.371,0.661-0.784,0.905-1.237c2.439,1.203,4.753,2.62,6.942,4.261 c0.515,0.386,1.014-0.482,0.505-0.863c-2.221-1.665-4.571-3.096-7.049-4.31c0.178-0.513,0.299-1.041,0.332-1.561 c0.007-0.114,0.001-0.23,0.002-0.345c3.278,0.457,6.894,1.202,8.964,3.171c0.466,0.444,1.174-0.262,0.707-0.707 c-2.212-2.104-5.74-2.896-9.059-3.377c3.741-3.983,6.587-10.241,5.007-16.081c1.395-0.12,2.504-0.934,3.441-1.713 C42.387,14.82,43.365,13.36,43.622,11.974z M6.69,15.381c-1.207-1.46-2.242-3.745-1.531-5.782c0.418-1.197,1.452-2.413,2.572-3.026 C8.449,6.18,10.292,5.96,10.92,5.953c0.971-0.004,2.485,0.15,3.559,0.643c1.288,0.592,2.336,1.64,2.983,2.897 c-0.054,0.019-0.103,0.031-0.157,0.051c-1.639,0.587-3.372,2.825-3.785,3.616c-0.952,1.821-1.369,3.283-1.842,5.122 C9.611,17.8,7.85,16.784,6.69,15.381z M23.132,40.978c-1.322-0.129-2.31-0.555-2.961-1.265c0.584,0.1,1.177,0.094,1.742-0.049 c0.863-0.219,1.773,0.012,2.74,0.257c0.604,0.152,1.223,0.303,1.857,0.355C25.375,41.066,23.843,41.046,23.132,40.978z M23.87,33.844c-0.133-0.025-0.288-0.139-0.437-0.254c-0.644-0.498-1.194-0.953-1.632-1.347c0.094-0.029,0.186-0.059,0.276-0.088 c0.341-0.109,0.664-0.213,1.034-0.248c0.634-0.06,1.287-0.121,1.889-0.018c0.242,0.043,0.63,0.242,0.972,0.419 c0.035,0.019,0.07,0.036,0.105,0.055c-0.453,0.585-1.091,1.104-1.703,1.367C24.23,33.792,24.015,33.87,23.87,33.844z M31.659,33.226c-0.295-1.479-1.011-3.031-2.163-4.639c-0.161-0.227-0.476-0.276-0.697-0.115c-0.225,0.161-0.276,0.473-0.115,0.697 c1.13,1.577,1.813,3.078,2.045,4.481c-0.784-0.099-1.542-0.19-2.247-0.286c-0.629-0.086-0.902,0.877-0.266,0.964 c0.789,0.108,1.671,0.211,2.595,0.329c0.001,0.139,0.007,0.279-0.002,0.416c-0.025,0.397-0.118,0.804-0.25,1.203 c-0.431-0.199-0.856-0.409-1.295-0.595c-0.586-0.248-1.096,0.613-0.505,0.863c0.478,0.202,0.941,0.43,1.409,0.648 c-0.219,0.392-0.498,0.748-0.813,1.059c-0.43-0.318-0.855-0.642-1.261-0.989c-0.486-0.416-1.197,0.288-0.707,0.707 c0.372,0.319,0.75,0.619,1.13,0.914c-0.392,0.216-0.82,0.368-1.287,0.406c-0.751,0.061-1.52-0.133-2.333-0.338 c-0.162-0.041-0.326-0.079-0.489-0.118l-0.01-0.421c-0.027-1.17-0.06-2.483-0.207-3.598c0.215-0.036,0.416-0.095,0.579-0.165 c0.964-0.414,1.938-1.294,2.479-2.241c0.072-0.126,0.086-0.277,0.038-0.414c-0.049-0.138-0.154-0.247-0.289-0.3 c-0.163-0.063-0.36-0.166-0.568-0.273c-0.425-0.22-0.865-0.446-1.259-0.516c-0.733-0.125-1.456-0.059-2.154,0.007 c-0.479,0.046-0.868,0.171-1.246,0.293c-0.341,0.109-0.664,0.213-1.035,0.248c-0.189,0.019-0.352,0.143-0.42,0.32 c-0.067,0.179-0.028,0.379,0.102,0.519c0.512,0.549,1.32,1.252,2.403,2.089c0.11,0.086,0.233,0.174,0.366,0.251 c-0.006,0.045-0.014,0.091-0.008,0.138c0.16,1.092,0.191,2.459,0.219,3.665l0.005,0.202c-0.57-0.079-1.148-0.09-1.736,0.059 c-0.819,0.207-1.724,0.055-2.515-0.376c0.226-0.198,0.447-0.409,0.676-0.594c0.5-0.405-0.211-1.108-0.707-0.707 c-0.271,0.219-0.533,0.468-0.799,0.704c-0.121-0.113-0.238-0.233-0.346-0.362c-0.209-0.25-0.389-0.529-0.543-0.828 c0.501-0.137,1.005-0.265,1.513-0.378c0.628-0.14,0.362-1.105-0.266-0.964c-0.542,0.121-1.08,0.259-1.615,0.407 c-0.116-0.399-0.188-0.819-0.218-1.254c0.408-0.034,0.815-0.07,1.234-0.07c0.643-0.001,0.645-1.001,0-1 c-0.418,0-0.824,0.037-1.232,0.069c0.001-0.009-0.001-0.017,0-0.026c0.117-1.322,0.601-2.693,1.479-4.189 c0.14-0.238,0.06-0.545-0.179-0.685c-0.235-0.136-0.543-0.062-0.685,0.179c-0.843,1.437-1.334,2.778-1.531,4.087 c-1.469-1.274-2.298-3.03-3.169-4.876l-0.293-0.619c-0.275-0.577-0.536-1.123-0.694-1.698c-0.171-0.623-0.236-1.339-0.2-2.188 c0.061-1.437,0.366-2.862,0.91-4.201c0.558-2.172,0.926-3.606,1.917-5.502c0.368-0.706,1.959-2.681,3.236-3.138 c5.245-1.879,8.983-1.827,12.902,0.176c0.324,0.166,0.633,0.311,0.929,0.449c1.038,0.487,1.858,0.872,2.585,1.828 c1.138,1.498,1.847,3.385,2.383,5.012C37.995,23.451,35.247,29.427,31.659,33.226z M40.23,15.313 c-1.111,0.924-2.037,1.501-3.128,1.502c-0.532-1.509-1.216-3.122-2.248-4.483c-0.876-1.151-1.841-1.604-2.957-2.128 c-0.246-0.115-0.507-0.241-0.773-0.374c0.718-1.728,2.218-3.875,4.28-4.589c1.968-0.685,5.376-0.107,6.541,1.542 c1.063,1.504,0.964,3.553,0.694,5.007C42.424,12.949,41.568,14.2,40.23,15.313z"/><path fill="#010101" d="M18.149,19.301c-0.779-0.224-2.177-0.278-2.93-0.114c-0.223,0.048-0.384,0.24-0.394,0.468 c-0.022,0.545,0.162,1.325,0.324,2.015c0.05,0.21,0.096,0.402,0.127,0.56c0.168,0.822,0.567,1.507,1.126,1.93 c0.49,0.369,1.062,0.475,1.641,0.475c0.4,0,0.805-0.051,1.188-0.098l0.342-0.041c0.154-0.018,0.292-0.105,0.373-0.238 c0.528-0.871,0.659-2.146,0.313-3.032C19.902,20.31,19.094,19.573,18.149,19.301z M19.2,23.531l-0.092,0.012 c-0.787,0.097-1.597,0.197-2.103-0.183c-0.363-0.275-0.63-0.748-0.748-1.33c-0.033-0.166-0.081-0.369-0.134-0.591 c-0.096-0.407-0.218-0.924-0.271-1.332c0.635-0.047,1.525,0.013,2.021,0.154c0.651,0.188,1.208,0.695,1.454,1.326 C19.537,22.123,19.477,22.933,19.2,23.531z"/><path fill="#010101" d="M33.282,19.646c-1.087-0.167-3.228,0.242-3.971,1.255c-0.568,0.776-0.656,1.829-0.733,2.759 c-0.016,0.181-0.03,0.356-0.048,0.525c-0.028,0.263,0.153,0.502,0.414,0.546c0.221,0.037,0.477,0.057,0.752,0.057 c1.103,0,2.517-0.314,3.214-1.078c0.854-0.938,1.065-2.616,0.777-3.698C33.637,19.819,33.478,19.677,33.282,19.646z M32.171,23.035 c-0.457,0.5-1.665,0.77-2.601,0.752c0.002-0.016,0.003-0.03,0.004-0.045c0.066-0.798,0.142-1.702,0.544-2.25 c0.384-0.523,1.71-0.887,2.669-0.886C32.898,21.468,32.646,22.513,32.171,23.035z"/></svg>