<svg xmlns="http://www.w3.org/2000/svg" width="512" height="512" viewBox="0 0 512 512"><path fill="#EF4823" d="M400.6,87.8c-16-18.3-31.5-41.8-54.3-52.4c-4.3,10.1-5.7,21.2-6.2,32.1c-0.4,9.9,1.2,20.9-1,30.6c-1.4,6.4-5.6,10.1-12.2,10.7c-10.6,1-21.4,0.2-32,0.6c-12.3,0.5-24.9,1.6-37.2,1c-6.2-0.3-12.4-0.7-18.6-0.9c-5.8-0.1-31.7-1.4-31.3,7.5c0.1,2.5-1.3,4.1-3.1,4.8c0,0.4,0.1,0.8,0.1,1.2c0,2-0.9,3.5-2.2,4.3c-2.3,28.3,5.5,56.4,6.6,84.6c22.3-3.7,44.7-1,67.3-0.6c15.5,0.3,30.9-0.8,46.4-2.1c0.1-0.1,0.2-0.2,0.4-0.3c1.3-0.2,2.5-0.4,3.8-0.6c0.4,0.1,0.8,0.2,1.1,0.4c6-0.5,12.1-1,18.1-1.5c0.1-0.1,0.2-0.2,0.4-0.3c2.2-0.2,4.4-0.3,6.6-0.5c0.4,0.3,0.8,0.7,1,1.2c0.2,3.3,0.4,6.6,0.7,9.9c0,5.3,0.2,10.6,0.8,15.9c0.7,5.6,1.2,11,1.2,16.6c0.1,8.2-0.8,18.7,2,27.1c20.1-19.1,39.1-39.5,56.2-61.2c17.1-21.7,38.2-40.9,50.3-66.2c0.3-0.5,0.6-1,0.9-1.4c0-0.5,0.1-1,0.3-1.5C445.1,126.7,420.2,110.2,400.6,87.8z"/><path fill="#14B6B9" d="M324.2,310.2c-0.5-9.3-0.2-18.5-0.2-27.7c0-8.9,0.1-18.4-2-27.2c-1.8-7.4-5.2-12.2-13.4-12.4c-8-0.2-15.8,1.5-23.8,2.3c-10.3,1-20.6,0.9-30.9,1.8c-23.2,2.2-47,5.4-70-0.1c0,0,0,0,0,0c-2.8-0.1-5.8-2.2-5.4-5.9c0.9-9.6-2.6-19.2-4.7-28.5c-1.7-7.7-2.4-15.7-3.9-23.4c-1.7-9.4-4-19.8-3.5-29.8c-7.5,9.9-13.2,21.2-19.1,32.1c-7.7,14.2-16,27.2-27.4,38.7c-14.5,14.6-28.4,29.7-41.7,45.3c-10.4,12.3-20,25.4-30.8,37.3c4.5,13,18.7,23,29.2,31c5.8,4.4,11.6,8.7,16.9,13.6c7.1,6.6,14.2,13.3,21.2,19.9c14.4,13.5,29,26.4,44.7,38.4c13,9.9,26.2,19.6,38.4,30.4c-0.7-10.5-1.5-21-2.1-31.5c-0.4-6.2-0.5-12.5-0.8-18.7c-0.5-13.8-3-27.4-4.4-41.1c-0.4-4.1,3.4-5.9,6.5-5c1.5-0.5,3.2-0.4,4.8,0.8c5.7,4.5,16,3.8,22.8,3.6c9.2-0.3,18.3-1.3,27.5-2.4c11.8-1.4,23.7-2.3,35.6-3.7c12.7-1.5,25.4-2.8,38.2-3.1C326.1,333.4,324.8,321.8,324.2,310.2z"/><path d="M477.6,143.8c-22.9-22.7-50.4-40.2-71.5-64.7c-17.2-20-34.3-45.1-60.1-54.5c-2.6-1-5.3-0.4-6.7,2.3c-5.5,10.4-7.7,21.9-8.7,33.5c-1,11.3,0.2,22.9-1.1,34.2c-0.2,2-0.8,3.7-1.4,3.9c-2.8,1.1-6.7,0.7-9.6,0.6c-13.9-0.1-27.8,0.6-41.7,1.1c-16.3,0.6-32.5-1.1-48.8-0.5c-10.8,0.4-28.8,2.5-30.1,15.8c-2.1,0.2-4.2,2-4.5,4.1c-4.4,33.2,5.7,65.7,5.9,98.8c0,3.5,3.7,5,6.6,4.3c24-5.4,48.8-1.7,73.1-1.3c22,0.4,44-2.2,65.9-4c0.4,12.1,1.8,24,1.9,36c0.1,11.4-0.3,24.8,6.3,34.8c1.9,2.9,5.6,2.7,7.9,0.5c22-20.6,42.8-42.6,61.5-66.2c17.7-22.3,39.3-42.3,51.7-68.3c0.2-0.4,0.3-0.8,0.4-1.1c1.6-0.3,3.2-1.1,3.8-2.7l0.3-0.7C479.7,147.5,479.3,145.5,477.6,143.8z M466.3,148.4c-0.3,0.4-0.7,0.8-0.9,1.4c-12.1,25.3-33.2,44.5-50.3,66.2c-17.1,21.8-36.2,42.1-56.2,61.2c-2.8-8.4-1.9-18.8-2-27.1c-0.1-5.6-0.6-11-1.2-16.6c-0.6-5.3-0.8-10.6-0.8-15.9c-0.3-3.3-0.5-6.6-0.7-9.9c-0.3-0.5-0.6-0.9-1-1.2c-2.2,0.2-4.4,0.3-6.6,0.5c-0.1,0.1-0.2,0.2-0.4,0.3c-6,0.5-12.1,1-18.1,1.5c-0.3-0.2-0.7-0.3-1.1-0.4c-1.3,0.2-2.5,0.4-3.8,0.6c-0.1,0.1-0.3,0.2-0.4,0.3c-15.4,1.3-30.8,2.4-46.4,2.1c-22.6-0.4-45-3.1-67.3,0.6c-1.1-28.2-8.9-56.3-6.6-84.6c1.3-0.9,2.3-2.3,2.2-4.3c0-0.4,0-0.8-0.1-1.2c1.8-0.7,3.2-2.3,3.1-4.8c-0.4-9,25.5-7.6,31.3-7.5c6.2,0.1,12.4,0.6,18.6,0.9c12.4,0.6,24.9-0.5,37.2-1c10.6-0.4,21.4,0.4,32-0.6c6.6-0.6,10.8-4.3,12.2-10.7c2.2-9.7,0.6-20.7,1-30.6c0.5-10.9,1.9-22,6.2-32.1c22.8,10.6,38.3,34.1,54.3,52.4c19.6,22.4,44.5,38.9,66,59.2C466.4,147.5,466.3,147.9,466.3,148.4z"/><path d="M334.4,313.1c-0.7-10.5-0.4-20.9-0.4-31.4c0-15,1.3-40.5-16-47c-7.8-2.9-16.6-1.8-24.7-0.7c-9.9,1.4-19.7,1.5-29.7,2.2c-25,1.8-50.4,6.7-75.2,1.5c-0.1-6.9-1.6-13.5-3.3-20.2c-1.9-7.8-2.9-15.6-4.3-23.5c-0.9-5-2.2-10.5-3.2-16.2c-3.3-11.6-6-23.2-6.8-35.4c-0.1,0.1-0.2,0.2-0.3,0.3c-1.5-0.3-3.1,0.1-4.5,1.5c-22.2,22.7-29.4,56-52.5,78c-14.8,14.1-28.5,29.7-41.8,45.2c-12.7,14.8-24,30.9-37.7,44.8c-3.9,3.9,1,9.3,5.4,7.9c5.5,11.3,16.6,20.2,26,27.8c5.6,4.5,11.7,8.4,17,13.1c7.7,7,15.3,14.1,22.8,21.3c14.3,13.5,28.9,26.7,44.5,38.7c15.3,11.8,31,23.1,45.2,36.2c3.4,3.2,7.8,0.1,8.2-3.4c2.5-0.2,4.8-2,4.6-5.2c-0.8-11.2-1.6-22.4-2.2-33.7c-0.4-5.9-0.7-11.8-0.8-17.8c-0.1-11.9-2.1-23.7-3.6-35.4c5.5,2.1,11.8,2.4,17.6,2.6c10.2,0.3,20.4-0.9,30.5-2.1c11.7-1.4,23.4-2.3,35.1-3.6c15.4-1.8,30.8-3.6,46.3-3.6c2,0,4.4-2,4.5-4C336.3,338.3,335.2,325.7,334.4,313.1z M325.7,345.1c-12.8,0.3-25.5,1.7-38.2,3.1c-11.8,1.4-23.7,2.3-35.6,3.7c-9.1,1.1-18.3,2.1-27.5,2.4c-6.8,0.2-17.1,1-22.8-3.6c-1.6-1.3-3.3-1.4-4.8-0.8c-3.1-0.9-6.9,0.9-6.5,5c1.4,13.7,3.9,27.3,4.4,41.1c0.2,6.2,0.4,12.5,0.8,18.7c0.6,10.5,1.3,21,2.1,31.5c-12.2-10.8-25.5-20.5-38.4-30.4c-15.6-12-30.3-24.9-44.7-38.4c-7.1-6.6-14.1-13.3-21.2-19.9c-5.4-4.9-11.1-9.2-16.9-13.6c-10.5-8-24.6-18-29.2-31C58,300.9,67.6,287.7,78,275.5c13.3-15.7,27.3-30.7,41.7-45.3c11.4-11.5,19.7-24.5,27.4-38.7c5.9-10.9,11.6-22.2,19.1-32.1c-0.4,10,1.8,20.4,3.5,29.8c1.4,7.8,2.2,15.7,3.9,23.4c2.1,9.3,5.6,18.9,4.7,28.5c-0.4,3.6,2.6,5.8,5.4,5.9c0,0,0,0,0,0c23,5.5,46.8,2.3,70,0.1c10.3-1,20.7-0.8,30.9-1.8c8-0.8,15.8-2.5,23.8-2.3c8.2,0.2,11.6,5,13.4,12.4c2.1,8.7,2,18.2,2,27.2c0,9.3-0.3,18.5,0.2,27.7C324.8,321.8,326.1,333.4,325.7,345.1z"/></svg>