<svg xmlns="http://www.w3.org/2000/svg" viewBox="0 0 128 128"><path fill="#fff" d="M64 9A55 55 0 1 0 64 119A55 55 0 1 0 64 9Z"/><path fill="#444b54" d="M64,122C32,122,6,96,6,64S32,6,64,6s58,26,58,58c0,1.7-1.3,3-3,3s-3-1.3-3-3c0-28.7-23.3-52-52-52S12,35.3,12,64s23.3,52,52,52c1.7,0,3,1.3,3,3S65.7,122,64,122z"/><path fill="#444b54" d="M75.1,73.9c0-3.7-1.8-7.1-4.8-9.2L61,58.3c-1.3-1-2.1-2.5-2.1-4.2c0-2.8,2.3-5.1,5.1-5.1c2.1,0,3.9,1.2,4.7,3.1c0.6,1.5,2.4,2.2,3.9,1.6c1.5-0.6,2.2-2.4,1.6-3.9c-1.3-3.2-4-5.5-7.2-6.4V43c0-1.7-1.3-3-3-3s-3,1.3-3,3v0.4c-4.7,1.3-8.1,5.6-8.1,10.7c0,3.6,1.7,6.9,4.7,9l9.3,6.5c1.4,1,2.2,2.5,2.2,4.2c0,2.8-2.3,5.1-5.1,5.1c-2,0-3.9-1.2-4.7-3.1c-0.7-1.5-2.4-2.2-3.9-1.6c-1.5,0.7-2.2,2.4-1.6,3.9c1.4,3.1,4,5.4,7.2,6.3V85c0,1.7,1.3,3,3,3s3-1.3,3-3v-0.4C71.7,83.3,75.1,79,75.1,73.9z"/><path fill="#fcca3d" d="M126.5,114.4l-21.2-35.3c-0.9-1.5-2.5-2.4-4.3-2.4s-3.4,0.9-4.3,2.4l-21.2,35.3c-0.9,1.6-1,3.4-0.1,5c0.9,1.6,2.5,2.5,4.4,2.5h42.3c1.8,0,3.5-0.9,4.4-2.5C127.4,117.9,127.4,116,126.5,114.4z"/><path fill="#fff" d="M101 105c-1.7 0-3-1.3-3-3V92c0-1.7 1.3-3 3-3s3 1.3 3 3v10C104 103.7 102.7 105 101 105zM101 115c-.8 0-1.6-.3-2.1-.9-.1-.1-.3-.3-.4-.5-.1-.2-.2-.3-.3-.5-.1-.2-.1-.4-.2-.6 0-.2-.1-.4-.1-.6 0-.8.3-1.6.9-2.1 1.1-1.1 3.1-1.1 4.2 0 .6.6.9 1.3.9 2.1 0 .2 0 .4-.1.6 0 .2-.1.4-.2.6-.1.2-.2.4-.3.5-.1.2-.2.3-.4.5C102.6 114.7 101.8 115 101 115z"/></svg>