<svg xmlns="http://www.w3.org/2000/svg" viewBox="0 0 48 48"><rect width="2" height="8" x="15" y="7" fill="#616161"/><rect width="2" height="8" x="31" y="7" fill="#616161"/><polygon fill="#757575" points="27,3 24,3 21,3 14,16 19,28 24,28 29,28 34,16"/><polygon fill="#757575" points="33,29 29,28 19,28 15,29 15,44 33,44"/><rect width="2" height="20" x="2" y="22" fill="#757575"/><rect width="3" height="3" x="20" y="44" fill="#616161"/><rect width="3" height="2" x="15" y="44" fill="#616161"/><rect width="3" height="3" x="25" y="44" fill="#616161"/><rect width="3" height="2" x="30" y="44" fill="#616161"/><polygon fill="#9e9e9e" points="15,41 4,40 4,31 15,31"/><polygon fill="#9e9e9e" points="33,41 44,40 44,31 33,31"/><rect width="2" height="20" x="44" y="22" fill="#757575"/><rect width="10" height="16" x="19" y="28" fill="#9e9e9e"/><polygon fill="#bdbdbd" points="26,22 22,22 19,28 29,28"/><rect width="4" height="19" x="22" y="3" fill="#616161"/><polygon fill="#ef5350" points="9,40.455 9,31 7,31 7,40.273"/><polygon fill="#ef5350" points="39,40.455 39,31 41,31 41,40.273"/><rect width="4" height="5" x="22" y="10" fill="#757575"/><rect width="3" height="2" x="12" y="33" fill="#616161"/><rect width="3" height="2" x="12" y="37" fill="#616161"/><rect width="3" height="2" x="33" y="33" fill="#616161"/><rect width="3" height="2" x="33" y="37" fill="#616161"/><rect width="2" height="10" x="21" y="30" fill="#757575"/><rect width="2" height="10" x="25" y="30" fill="#757575"/></svg>