<svg xmlns="http://www.w3.org/2000/svg" viewBox="0 0 24 24"><path d="M 12 0.03125 L 11.46875 0.34375 L 0.46875 7.15625 L 0 7.4375 L 0 22 L 24 22 L 24 7.4375 L 23.53125 7.15625 L 12.53125 0.34375 Z M 12 2.375 L 22 8.5625 L 22 20 L 2 20 L 2 8.5625 Z M 8.5 9 C 7.121094 9 6 10.121094 6 11.5 C 6 12.878906 7.121094 14 8.5 14 C 9.878906 14 11 12.878906 11 11.5 C 11 10.121094 9.878906 9 8.5 9 Z M 15.5 9 C 14.121094 9 13 10.121094 13 11.5 C 13 12.878906 14.121094 14 15.5 14 C 16.878906 14 18 12.878906 18 11.5 C 18 10.121094 16.878906 9 15.5 9 Z M 6.6875 14.5 C 5.585938 14.800781 4 16 4 18 L 20 18 C 20 16 18.414063 14.800781 17.3125 14.5 C 16.8125 14.800781 16.199219 15 15.5 15 C 14.800781 15 14.1875 14.800781 13.6875 14.5 C 13.15625 14.644531 12.527344 15.011719 12 15.5625 C 11.472656 15.011719 10.84375 14.644531 10.3125 14.5 C 9.8125 14.800781 9.199219 15 8.5 15 C 7.800781 15 7.1875 14.800781 6.6875 14.5 Z"/></svg>