<svg xmlns="http://www.w3.org/2000/svg" viewBox="0 0 100 100"><path d="M 50 24.013672 C 49.73775 24.013672 49.475109 24.110281 49.287109 24.300781 C 42.220109 31.476781 39.394687 38.254437 38.804688 44.148438 C 36.974688 40.247438 33.966109 36.219312 29.162109 32.445312 C 28.907109 32.244312 28.569766 32.179437 28.259766 32.273438 C 27.947766 32.365437 27.701656 32.604109 27.597656 32.912109 C 25.734656 38.420109 25.342219 43.229375 25.824219 47.359375 C 24.235219 45.207375 22.043875 43.092875 19.046875 41.171875 C 18.773875 40.995875 18.431859 40.963938 18.130859 41.085938 C 17.829859 41.207937 17.608203 41.468203 17.533203 41.783203 C 14.831203 53.311203 17.233594 59.322266 19.683594 62.322266 C 16.969594 63.194266 15 65.744141 15 68.744141 C 15 72.745141 18.255859 76 22.255859 76 L 77.744141 76 C 81.744141 76 84.998047 72.745141 84.998047 68.744141 C 84.999047 65.501141 82.699531 62.786531 79.644531 62.144531 C 82.182531 59.106531 85.210469 52.897203 82.605469 41.783203 C 82.531469 41.468203 82.308812 41.207938 82.007812 41.085938 C 81.706812 40.963938 81.364797 40.995875 81.091797 41.171875 C 78.093797 43.092875 75.903453 45.206375 74.314453 47.359375 C 74.795453 43.229375 74.405969 38.420109 72.542969 32.912109 C 72.438969 32.604109 72.191859 32.365437 71.880859 32.273438 C 71.569859 32.179437 71.232562 32.244313 70.976562 32.445312 C 66.113563 36.265313 63.089578 40.345969 61.267578 44.292969 C 60.729578 38.343969 57.856891 31.554781 50.712891 24.300781 C 50.524891 24.110281 50.26225 24.013672 50 24.013672 z M 50 26.439453 C 64.659 41.913453 58.816937 54.950437 53.960938 61.398438 C 53.897937 61.482438 53.861125 61.576875 53.828125 61.671875 L 50.353516 58.195312 C 50.165516 58.007312 49.833484 58.007313 49.646484 58.195312 L 45.976562 61.865234 C 45.955562 61.704234 45.908688 61.545297 45.804688 61.404297 C 41.040687 54.949297 35.347 41.903453 50 26.439453 z M 50 31.328125 C 49.868875 31.328125 49.737078 31.377156 49.642578 31.472656 C 40.490578 40.765656 44.038797 51.909609 46.966797 57.724609 C 46.977797 57.743609 46.997766 57.752531 47.009766 57.769531 C 47.019766 57.996531 47.17325 58.196234 47.40625 58.240234 C 47.43725 58.246234 47.47 58.25 47.5 58.25 C 47.736 58.25 47.944234 58.08375 47.990234 57.84375 L 50.005859 47.171875 L 52.009766 57.595703 C 52.057766 57.843703 52.281297 58.001234 52.529297 57.990234 C 52.734297 58.019234 52.943969 57.921562 53.042969 57.726562 C 56.642969 50.648562 59.097469 40.348656 50.355469 31.472656 C 50.261469 31.377156 50.131125 31.328125 50 31.328125 z M 50 32.542969 C 57.437 40.421969 55.791375 49.457359 52.734375 56.068359 L 50.490234 44.404297 C 50.445234 44.169297 50.24 44 50 44 L 49.998047 44 C 49.758047 44 49.553766 44.17125 49.509766 44.40625 L 47.300781 56.109375 C 44.249781 49.471375 42.59 40.396969 50 32.542969 z M 29.050781 34.933594 C 41.528781 45.505594 39.754188 57.824563 38.367188 62.726562 C 38.282187 63.028562 38.34225 63.353516 38.53125 63.603516 C 38.72025 63.853516 39.016078 64 39.330078 64 L 44.03125 64 C 44.02425 64.136 44.068828 64.274906 44.173828 64.378906 L 49.648438 69.853516 C 49.744437 69.950516 49.872 70 50 70 C 50.128 70 50.255516 69.950516 50.353516 69.853516 L 55.828125 64.378906 C 55.932125 64.274906 55.976703 64.137 55.970703 64 L 60.810547 64 C 61.123547 64 61.418422 63.853516 61.607422 63.603516 C 61.796422 63.353516 61.858438 63.030516 61.773438 62.728516 C 60.386437 57.826516 58.609891 45.508547 71.087891 34.935547 C 75.322891 49.155547 69.015344 58.135156 64.777344 62.285156 C 64.486344 62.570156 64.398734 63.002906 64.552734 63.378906 C 64.705734 63.753906 65.071516 64 65.478516 64 L 71.714844 64 C 72.011844 64 72.292422 63.867672 72.482422 63.638672 C 72.672422 63.409672 72.752266 63.109406 72.697266 62.816406 C 72.029266 59.232406 71.57075 50.404875 80.96875 43.671875 C 83.25575 55.272875 78.827953 60.491375 76.751953 62.234375 C 76.429953 62.504375 76.311078 62.947797 76.455078 63.341797 C 76.598078 63.736797 76.973531 64 77.394531 64 L 78.255859 64 C 80.871859 64 83 66.128141 83 68.744141 C 83 69.555141 82.799703 70.314 82.470703 71 L 75.5 71 C 75.224 71 75 71.224 75 71.5 C 75 71.776 75.224 72 75.5 72 L 81.837891 72 C 80.873891 73.209 79.406141 74 77.744141 74 L 22.255859 74 C 20.592859 74 19.126109 73.209 18.162109 72 L 24.5 72 C 24.776 72 25 71.776 25 71.5 C 25 71.224 24.776 71 24.5 71 L 17.529297 71 C 17.200297 70.314 17 69.555141 17 68.744141 C 17 66.128141 19.127141 64 21.744141 64 C 22.164141 64 22.540594 63.736797 22.683594 63.341797 C 22.827594 62.946797 22.709672 62.503375 22.388672 62.234375 C 20.108672 60.320375 16.756016 55.398969 19.166016 43.667969 C 28.567016 50.400969 28.109406 59.232359 27.441406 62.818359 C 27.386406 63.110359 27.46625 63.410672 27.65625 63.638672 C 27.84625 63.867672 28.128781 64 28.425781 64 L 34.660156 64 C 35.066156 64 35.433891 63.754906 35.587891 63.378906 C 35.741891 63.002906 35.651328 62.570156 35.361328 62.285156 C 31.123328 58.136156 24.815781 49.153594 29.050781 34.933594 z M 31.466797 42.240234 C 31.389297 42.225609 31.308469 42.229453 31.230469 42.251953 C 31.074469 42.298953 30.950437 42.416312 30.898438 42.570312 C 27.727438 51.944313 34.684031 56.519938 35.207031 56.835938 L 35.207031 56.837891 C 35.214031 56.840891 35.219563 56.844656 35.226562 56.847656 C 35.232563 56.850656 35.237281 56.852516 35.238281 56.853516 C 35.303281 56.880516 35.3705 56.894531 35.4375 56.894531 C 35.5665 56.894531 35.693109 56.845859 35.787109 56.755859 C 35.814109 56.729859 35.841281 56.697109 35.863281 56.662109 C 35.863281 56.661109 35.866141 56.657391 35.869141 56.650391 C 35.873141 56.643391 35.878813 56.634906 35.882812 56.628906 L 35.880859 56.628906 C 36.153859 56.046906 39.393641 48.396891 31.681641 42.337891 C 31.617641 42.287891 31.544297 42.254859 31.466797 42.240234 z M 68.505859 42.794922 C 68.428359 42.809672 68.355016 42.842578 68.291016 42.892578 C 61.166016 48.490578 64.149828 55.495219 64.423828 56.074219 L 64.421875 56.074219 C 64.426875 56.083219 64.4315 56.093562 64.4375 56.101562 C 64.4395 56.107563 64.442359 56.110328 64.443359 56.111328 C 64.471359 56.155328 64.506922 56.191656 64.544922 56.222656 C 64.605922 56.272656 64.677906 56.308172 64.753906 56.326172 C 64.790906 56.335172 64.827234 56.339844 64.865234 56.339844 C 64.876234 56.339844 64.888391 56.338891 64.900391 56.337891 C 64.956391 56.333891 65.012406 56.321828 65.066406 56.298828 C 65.067406 56.297828 65.070172 56.295969 65.076172 56.292969 C 65.085172 56.288969 65.095516 56.282344 65.103516 56.277344 L 65.101562 56.275391 C 65.646563 55.942391 71.979219 51.714953 69.074219 43.126953 C 69.022219 42.972953 68.898188 42.853641 68.742188 42.806641 C 68.664187 42.783641 68.583359 42.780172 68.505859 42.794922 z M 31.628906 43.587891 C 37.218906 48.394891 35.815844 53.965672 35.214844 55.638672 C 33.796844 54.566672 29.576906 50.668891 31.628906 43.587891 z M 68.345703 44.146484 C 70.154703 50.503484 66.421797 54.051125 65.091797 55.078125 C 64.538797 53.490125 63.353703 48.479484 68.345703 44.146484 z M 21.167969 48.894531 C 21.090719 48.879281 21.010141 48.88275 20.931641 48.90625 C 20.775641 48.95125 20.650656 49.071609 20.597656 49.224609 C 18.392656 55.656609 23.144359 58.876625 23.568359 59.140625 L 23.568359 59.142578 C 23.576359 59.146578 23.584797 59.150297 23.591797 59.154297 C 23.595797 59.156297 23.596656 59.157203 23.597656 59.158203 C 23.644656 59.179203 23.692234 59.191266 23.740234 59.197266 C 23.760234 59.199266 23.781781 59.199219 23.800781 59.199219 C 23.833781 59.199219 23.865437 59.196453 23.898438 59.189453 C 23.988437 59.170453 24.073578 59.128406 24.142578 59.066406 C 24.172578 59.039406 24.199656 59.007656 24.222656 58.972656 C 24.742656 58.182656 26.417812 52.983141 21.382812 48.994141 C 21.319313 48.943641 21.245219 48.909781 21.167969 48.894531 z M 78.759766 48.894531 C 78.682391 48.909781 78.608422 48.943641 78.544922 48.994141 C 73.167922 53.253141 75.467547 58.4875 75.685547 58.9375 L 75.685547 58.939453 C 75.689547 58.947453 75.693266 58.954938 75.697266 58.960938 C 75.700266 58.965938 75.700172 58.96775 75.701172 58.96875 C 75.721172 58.99975 75.743531 59.027734 75.769531 59.052734 C 75.863531 59.146734 75.992047 59.199219 76.123047 59.199219 L 76.126953 59.199219 C 76.135953 59.199219 76.154344 59.198219 76.152344 59.199219 C 76.212344 59.195219 76.270125 59.18025 76.328125 59.15625 C 76.328125 59.15525 76.331937 59.154344 76.335938 59.152344 C 76.341938 59.149344 76.348469 59.145578 76.355469 59.142578 L 76.355469 59.140625 C 76.752469 58.895625 81.541125 55.673656 79.328125 49.222656 C 79.275125 49.069656 79.152094 48.95125 78.996094 48.90625 C 78.918094 48.88275 78.837141 48.879281 78.759766 48.894531 z M 21.328125 50.259766 C 24.645125 53.275766 23.997125 56.638969 23.578125 57.917969 C 22.546125 57.053969 20.190125 54.533766 21.328125 50.259766 z M 78.599609 50.259766 C 79.735609 54.524766 77.391469 57.043109 76.355469 57.912109 C 75.953469 56.621109 75.341609 53.235766 78.599609 50.259766 z M 58.839844 57.210938 C 58.945844 59.057938 59.218484 60.683 59.521484 62 L 55.998047 62 C 56.980047 60.634 57.974844 59.027938 58.839844 57.210938 z M 41.265625 57.699219 C 42.076625 59.407219 42.968531 60.856 43.769531 62 L 40.617188 62 C 40.893188 60.801 41.143625 59.344219 41.265625 57.699219 z M 29.736328 58.476562 C 30.577328 59.819563 31.473656 60.993 32.347656 62 L 29.591797 62 C 29.715797 61.009 29.792328 59.812563 29.736328 58.476562 z M 70.400391 58.476562 C 70.345391 59.812562 70.422875 61.009 70.546875 62 L 67.789062 62 C 68.663062 60.992 69.559391 59.818562 70.400391 58.476562 z M 50 59.257812 L 54.767578 64.025391 L 50 68.792969 L 45.232422 64.025391 L 50 59.257812 z M 27.5 71 C 27.224 71 27 71.224 27 71.5 C 27 71.776 27.224 72 27.5 72 L 48.5 72 C 48.776 72 49 71.776 49 71.5 C 49 71.224 48.776 71 48.5 71 L 27.5 71 z M 51.5 71 C 51.224 71 51 71.224 51 71.5 C 51 71.776 51.224 72 51.5 72 L 72.5 72 C 72.776 72 73 71.776 73 71.5 C 73 71.224 72.776 71 72.5 71 L 51.5 71 z"/></svg>