<svg xmlns="http://www.w3.org/2000/svg" viewBox="0 0 40 40"><path fill="#fff" d="M20,19.5c-5.521,0-10.239-5.176-11.354-6.5C9.761,11.676,14.479,6.5,20,6.5s10.239,5.176,11.354,6.5 C30.239,14.324,25.521,19.5,20,19.5z"/><path fill="#4788c7" d="M20,7c4.939,0,9.252,4.365,10.695,6.001C29.255,14.637,24.952,19,20,19 c-4.939,0-9.252-4.365-10.695-6.001C10.745,11.363,15.048,7,20,7 M20,6c-6.627,0-12,7-12,7s5.373,7,12,7s12-7,12-7S26.627,6,20,6 L20,6z"/><path fill="#98ccfd" d="M20 8A5 5 0 1 0 20 18A5 5 0 1 0 20 8Z"/><path fill="#4788c7" d="M20 11A2 2 0 1 0 20 15A2 2 0 1 0 20 11Z"/><path fill="#dff0fe" d="M21 10A1 1 0 1 0 21 12A1 1 0 1 0 21 10Z"/><path fill="#4788c7" d="M21 32L21 26 19 26 19 32 13 32 20 39 27 32z"/><path fill="#4788c7" d="M19.5 7.5H20.5V45.5H19.5z" transform="rotate(-90 20 26.5)"/><path fill="#4788c7" d="M2 27H1V1.5C1 1.224 1.224 1 1.5 1h0C1.776 1 2 1.224 2 1.5V27zM39 27h-1V1.5C38 1.224 38.224 1 38.5 1l0 0C38.776 1 39 1.224 39 1.5V27z"/></svg>