<svg xmlns="http://www.w3.org/2000/svg" viewBox="0 0 26 26"><path d="M 2 7 C 0.894531 7 0 7.894531 0 9 L 0 17 C 0 18.105469 0.894531 19 2 19 L 24 19 C 25.105469 19 26 18.105469 26 17 L 26 9 C 26 7.894531 25.105469 7 24 7 Z M 15.03125 10.46875 C 15.730469 10.46875 16.316406 10.699219 16.75 11.15625 C 17.183594 11.617188 17.375 12.21875 17.375 12.96875 C 17.375 13.738281 17.164063 14.371094 16.71875 14.84375 C 16.269531 15.316406 15.6875 15.53125 14.96875 15.53125 C 14.265625 15.53125 13.691406 15.300781 13.25 14.84375 C 12.808594 14.386719 12.59375 13.796875 12.59375 13.0625 C 12.59375 12.289063 12.800781 11.667969 13.25 11.1875 C 13.699219 10.707031 14.289063 10.46875 15.03125 10.46875 Z M 3.40625 10.5625 L 5.125 10.5625 C 6.359375 10.5625 6.96875 11.085938 6.96875 12.125 C 6.96875 12.617188 6.792969 13.007813 6.4375 13.3125 C 6.082031 13.617188 5.625 13.75 5.03125 13.75 L 4.5 13.75 L 4.5 15.4375 L 3.40625 15.4375 Z M 8.03125 10.5625 L 9.78125 10.5625 C 10.96875 10.5625 11.5625 10.984375 11.5625 11.875 C 11.5625 12.046875 11.554688 12.199219 11.5 12.34375 C 11.445313 12.488281 11.378906 12.632813 11.28125 12.75 C 11.183594 12.863281 11.074219 12.976563 10.9375 13.0625 C 10.800781 13.148438 10.632813 13.203125 10.46875 13.25 C 10.542969 13.273438 10.621094 13.324219 10.6875 13.375 C 10.753906 13.425781 10.8125 13.492188 10.875 13.5625 C 10.9375 13.632813 11.003906 13.703125 11.0625 13.78125 C 11.121094 13.859375 11.171875 13.925781 11.21875 14 L 12.15625 15.4375 L 10.875 15.4375 L 10.125 14.1875 C 10.066406 14.089844 10.019531 14.011719 9.96875 13.9375 C 9.917969 13.863281 9.867188 13.804688 9.8125 13.75 C 9.757813 13.695313 9.683594 13.652344 9.625 13.625 C 9.566406 13.597656 9.503906 13.5625 9.4375 13.5625 L 9.15625 13.5625 L 9.15625 15.4375 L 8.03125 15.4375 Z M 18.5625 10.5625 L 19.75 10.5625 L 21.6875 13.53125 C 21.777344 13.667969 21.863281 13.804688 21.9375 13.9375 C 21.917969 13.824219 21.90625 13.585938 21.90625 13.25 L 21.90625 10.5625 L 22.96875 10.5625 L 22.96875 15.4375 L 21.84375 15.4375 L 19.8125 12.375 C 19.695313 12.195313 19.640625 12.058594 19.59375 11.96875 L 19.5625 11.96875 C 19.582031 12.140625 19.59375 12.394531 19.59375 12.75 L 19.59375 15.4375 L 18.5625 15.4375 Z M 9.15625 11.375 L 9.15625 12.75 L 9.625 12.75 C 9.863281 12.75 10.042969 12.667969 10.1875 12.53125 C 10.332031 12.390625 10.40625 12.234375 10.40625 12.03125 C 10.40625 11.601563 10.167969 11.375 9.65625 11.375 Z M 4.5 11.40625 L 4.5 12.9375 L 4.9375 12.9375 C 5.527344 12.9375 5.8125 12.671875 5.8125 12.15625 C 5.8125 11.652344 5.527344 11.40625 4.9375 11.40625 Z M 15 11.40625 C 14.613281 11.40625 14.320313 11.554688 14.09375 11.84375 C 13.867188 12.132813 13.75 12.523438 13.75 13 C 13.75 13.484375 13.867188 13.875 14.09375 14.15625 C 14.320313 14.4375 14.628906 14.59375 15 14.59375 C 15.378906 14.59375 15.683594 14.429688 15.90625 14.15625 C 16.128906 13.882813 16.21875 13.519531 16.21875 13.03125 C 16.21875 12.523438 16.125 12.125 15.90625 11.84375 C 15.6875 11.5625 15.375 11.40625 15 11.40625 Z"/></svg>