<svg xmlns="http://www.w3.org/2000/svg" viewBox="0 0 128 128"><path fill="#fff" d="M94,4H40c-5.5,0-10,4.5-10,10v36l-10,0v64c0,5.5,4.5,10,10,10h74c5.5,0,10-4.5,10-10V24C114,13,105,4,94,4z"/><path fill="#71c2ff" d="M46,127H5c-1.7,0-3-1.3-3-3s1.3-3,3-3h41c1.7,0,3,1.3,3,3S47.7,127,46,127z"/><path fill="#71c2ff" d="M30 126c-1.7 0-3-1.3-3-3V27c0-1.7 1.3-3 3-3s3 1.3 3 3v96C33 124.7 31.7 126 30 126zM20 126c-1.7 0-3-1.3-3-3V79c0-1.7 1.3-3 3-3s3 1.3 3 3v44C23 124.7 21.7 126 20 126z"/><path fill="#71c2ff" d="M88.5 53h-84c-1.2 0-2.4-.8-2.8-1.9-.4-1.2-.1-2.5.8-3.3l16.5-15c1.2-1.1 3.1-1 4.2.2 1.1 1.2 1 3.1-.2 4.2L12.3 47h76.2c1.7 0 3 1.3 3 3S90.2 53 88.5 53zM18 62H4.5c-1.7 0-3-1.3-3-3s1.3-3 3-3H18c1.7 0 3 1.3 3 3S19.7 62 18 62z"/><path fill="#71c2ff" d="M43 67H30c-1.7 0-3-1.3-3-3s1.3-3 3-3h10V50c0-1.7 1.3-3 3-3s3 1.3 3 3v14C46 65.7 44.7 67 43 67zM89 53c-.4 0-.7-.1-1.1-.2l-49-19c-1.5-.6-2.3-2.3-1.7-3.9.6-1.5 2.3-2.3 3.9-1.7l49 19c1.5.6 2.3 2.3 1.7 3.9C91.3 52.3 90.2 53 89 53zM89 79c-1.7 0-3-1.3-3-3V62c0-1.7 1.3-3 3-3s3 1.3 3 3v14C92 77.7 90.7 79 89 79zM89 89c-.8 0-1.6-.3-2.1-.9C86.3 87.6 86 86.8 86 86c0-.2 0-.4.1-.6 0-.2.1-.4.2-.6.1-.2.2-.3.3-.5.1-.2.2-.3.4-.5.7-.7 1.7-1 2.7-.8.2 0 .4.1.6.2.2.1.4.2.5.3.2.1.3.2.4.4.6.6.9 1.3.9 2.1s-.3 1.6-.9 2.1c-.1.1-.3.3-.4.4-.2.1-.3.2-.5.3-.2.1-.4.1-.6.2C89.4 89 89.2 89 89 89z"/><g><path fill="#444b54" d="M114 36C114 36 114 36 114 36c-1.7 0-3 1.3-3 3l-.1 75c0 3.9-3.1 7-7 7H61c-1.7 0-3 1.3-3 3s1.3 3 3 3h42.9c7.2 0 13-5.8 13-13l.1-75C117 37.3 115.7 36 114 36zM117 23c0-5.8-2.2-11.3-6.2-15.3C106.4 3.4 100.5 1 94 1c0 0 0 0 0 0 0 0 0 0 0 0 0 0 0 0 0 0H40c-7.2 0-13 5.8-13 13 0 1.7 1.3 3 3 3s3-1.3 3-3c0-3.9 3.1-7 7-7h51l0 7c0 7.2 5.8 13 13 13h10c1.7 0 3-1.3 3-3 0-.2 0-.4-.1-.6C117 23.3 117 23.2 117 23zM97 14l0-6.8c3.7.6 7 2.2 9.5 4.7 2.5 2.5 3.9 5.6 4.4 9H104C100.1 21 97 17.9 97 14z"/></g></svg>