<svg xmlns="http://www.w3.org/2000/svg" viewBox="0 0 50 50"><path d="M 23.707031 1.0898438 C 23.447281 1.0898438 23.1875 1.1835938 23 1.3710938 L 0.37304688 24 C -0.017953125 24.391 -0.017953125 25.023062 0.37304688 25.414062 L 15.732422 40.773438 L 10.212891 46.292969 C 9.9268906 46.578969 9.8391406 47.008812 9.9941406 47.382812 C 10.149141 47.756812 10.515922 48 10.919922 48 L 46 48 C 46.553 48 47 47.553 47 47 L 47 11.919922 C 47 11.515922 46.756813 11.151094 46.382812 10.996094 C 46.008812 10.840094 45.578969 10.926891 45.292969 11.212891 L 39.773438 16.732422 L 24.414062 1.3710938 C 24.226562 1.1835938 23.966781 1.0898438 23.707031 1.0898438 z M 29.771484 15.548828 C 34.338484 15.548828 35.636719 20.593547 35.636719 24.935547 C 35.636719 32.096547 33.099234 35 29.490234 35 C 25.177234 35 23.486328 30.43475 23.486328 25.21875 C 23.486328 20.03075 25.543484 15.548828 29.771484 15.548828 z M 20.357422 15.605469 C 21.654422 15.605469 22.557828 15.858328 22.923828 16.111328 L 22.302734 19.212891 C 21.879734 19.015891 21.400031 18.847656 20.582031 18.847656 C 18.496031 18.847656 16.607422 20.651375 16.607422 25.359375 C 16.605422 29.897375 18.326031 31.673828 20.582031 31.673828 C 21.202031 31.673828 21.906422 31.533578 22.357422 31.392578 L 22.724609 34.492188 C 22.188609 34.746187 21.146906 34.943359 19.878906 34.943359 C 15.001906 34.943359 12.689453 30.968641 12.689453 25.556641 C 12.689453 18.395641 16.664422 15.605469 20.357422 15.605469 z M 29.603516 18.761719 C 28.137516 18.761719 27.320312 21.186438 27.320312 25.273438 C 27.320312 29.586437 28.138813 31.787109 29.632812 31.787109 C 31.211813 31.787109 31.802734 28.968469 31.802734 25.105469 C 31.803734 21.779469 31.294516 18.761719 29.603516 18.761719 z M 39.410156 29.349609 C 41.277156 29.349609 41.882813 30.598313 41.882812 31.820312 C 41.882812 33.424312 40.884437 34.713422 39.898438 35.857422 L 39.384766 36.462891 L 39.384766 36.488281 L 42 36.488281 L 42 38 L 37.332031 38 L 37.332031 36.84375 L 38.173828 35.751953 C 39.277828 34.344953 40.185547 33.175125 40.185547 31.953125 C 40.185547 31.256125 39.805703 30.783203 39.095703 30.783203 C 38.556703 30.783203 38.123312 31.019797 37.820312 31.216797 L 37.505859 29.888672 C 37.900859 29.625672 38.635156 29.349609 39.410156 29.349609 z"/></svg>