<svg xmlns="http://www.w3.org/2000/svg" viewBox="0 0 64 64"><radialGradient id="w7N_AzMbKC~6AYyATLBX6a" cx="32" cy="31.5" r="31.259" gradientUnits="userSpaceOnUse" spreadMethod="reflect"><stop offset="0" stop-color="#afeeff"/><stop offset=".193" stop-color="#bbf1ff"/><stop offset=".703" stop-color="#d7f8ff"/><stop offset="1" stop-color="#e1faff"/></radialGradient><path fill="url(#w7N_AzMbKC~6AYyATLBX6a)" d="M58,50l2.386,0c1.67,0,3.195-1.122,3.537-2.757C64.392,44.998,62.668,43,60.5,43l-10.357,0 c-1.308,0-2.499-0.941-2.63-2.242C47.363,39.261,48.534,38,50,38h7.869c1.451,0,2.789-0.972,3.071-2.395 C61.319,33.693,59.848,32,58,32H42v-6h18c2.335,0,4.22-2.028,3.979-4.41c-0.21-2.075-2.082-3.59-4.168-3.59h-0.704 c-0.996,0-1.92-0.681-2.08-1.664C56.824,15.083,57.785,14,59,14l0.357,0c1.308,0,2.499-0.941,2.63-2.242 C62.137,10.261,60.966,9,59.5,9h-15C43.672,9,43,8.328,43,7.5S43.672,6,44.5,6l3.857,0c1.308,0,2.499-0.941,2.63-2.242 C51.137,2.261,49.966,1,48.5,1L15.643,1c-1.308,0-2.499,0.941-2.63,2.242C12.863,4.739,14.034,6,15.5,6h3.393 c0.996,0,1.92,0.681,2.08,1.664C21.176,8.917,20.215,10,19,10L6.189,10c-2.086,0-3.958,1.514-4.168,3.59C1.78,15.972,3.665,18,6,18 l2.302,0c1.895,0,3.594,1.419,3.693,3.312C12.101,23.33,10.495,25,8.5,25l-3.311,0c-2.086,0-3.958,1.514-4.168,3.59 C0.78,30.972,2.665,33,5,33h17v11H3.131c-1.451,0-2.789,0.972-3.071,2.395C-0.319,48.307,1.152,50,2.999,50H6c1.105,0,2,0.895,2,2 v0c0,1.105-0.895,2-2,2l-0.811,0c-2.086,0-3.958,1.514-4.168,3.59C0.78,59.972,2.665,62,5,62l52.811,0 c2.009,0,3.841-1.398,4.142-3.385c0.368-2.434-1.497-4.553-3.85-4.614c-0.809-0.021-1.608-0.396-1.923-1.141 C55.564,51.401,56.618,50,58,50z"/><linearGradient id="w7N_AzMbKC~6AYyATLBX6b" x1="26" x2="26" y1="38" y2="14.5" gradientUnits="userSpaceOnUse" spreadMethod="reflect"><stop offset="0" stop-color="#ffc66d"/><stop offset="1" stop-color="#ffc491"/></linearGradient><path fill="url(#w7N_AzMbKC~6AYyATLBX6b)" d="M32,38l-12-6.429V14.5l12,6.357V38z"/><linearGradient id="w7N_AzMbKC~6AYyATLBX6c" x1="38" x2="38" y1="35.325" y2="15.955" gradientUnits="userSpaceOnUse" spreadMethod="reflect"><stop offset="0" stop-color="#ff9776"/><stop offset="1" stop-color="#ffb37a"/></linearGradient><path fill="url(#w7N_AzMbKC~6AYyATLBX6c)" d="M32,38l12-6.429V14.5l-12,6.357V38z"/><linearGradient id="w7N_AzMbKC~6AYyATLBX6d" x1="32" x2="32" y1="21.459" y2="8.459" gradientUnits="userSpaceOnUse" spreadMethod="reflect"><stop offset="0" stop-color="#ffd688"/><stop offset="1" stop-color="#ffd59b"/></linearGradient><path fill="url(#w7N_AzMbKC~6AYyATLBX6d)" d="M20.522,13.636l9.726-5.197c1.093-0.584,2.412-0.584,3.505,0l9.726,5.197 c0.696,0.372,0.696,1.357,0,1.729l-9.726,5.197c-1.093,0.584-2.412,0.584-3.505,0l-9.726-5.197 C19.826,14.993,19.826,14.007,20.522,13.636z"/><linearGradient id="w7N_AzMbKC~6AYyATLBX6e" x1="50" x2="50" y1="55" y2="34.5" gradientUnits="userSpaceOnUse" spreadMethod="reflect"><stop offset="0" stop-color="#ff9776"/><stop offset="1" stop-color="#ffb37a"/></linearGradient><path fill="url(#w7N_AzMbKC~6AYyATLBX6e)" d="M56,34.5v14c0,0.34-0.18,0.68-0.52,0.86l-9.73,5.2C45.2,54.86,44.6,55,44,55V40.86L56,34.5z"/><linearGradient id="w7N_AzMbKC~6AYyATLBX6f" x1="38" x2="38" y1="54.083" y2="36.91" gradientUnits="userSpaceOnUse" spreadMethod="reflect"><stop offset="0" stop-color="#ffc66d"/><stop offset="1" stop-color="#ffc491"/></linearGradient><path fill="url(#w7N_AzMbKC~6AYyATLBX6f)" d="M44,40.86V55c-0.6,0-1.2-0.14-1.75-0.44l-9.73-5.2C32.18,49.18,32,48.84,32,48.5v-14 L44,40.86z"/><linearGradient id="w7N_AzMbKC~6AYyATLBX6g" x1="44" x2="44" y1="41" y2="28" gradientUnits="userSpaceOnUse" spreadMethod="reflect"><stop offset="0" stop-color="#ffd688"/><stop offset="1" stop-color="#ffd59b"/></linearGradient><path fill="url(#w7N_AzMbKC~6AYyATLBX6g)" d="M32.522,33.636l9.726-5.197c1.093-0.584,2.412-0.584,3.505,0l9.726,5.197 c0.696,0.372,0.696,1.357,0,1.729l-9.726,5.197c-1.093,0.584-2.412,0.584-3.505,0l-9.726-5.197 C31.826,34.993,31.826,34.007,32.522,33.636z"/><linearGradient id="w7N_AzMbKC~6AYyATLBX6h" x1="26" x2="26" y1="55" y2="34.5" gradientUnits="userSpaceOnUse" spreadMethod="reflect"><stop offset="0" stop-color="#ff9776"/><stop offset="1" stop-color="#ffb37a"/></linearGradient><path fill="url(#w7N_AzMbKC~6AYyATLBX6h)" d="M32,34.5v14c0,0.34-0.18,0.68-0.52,0.86l-9.73,5.2C21.2,54.86,20.6,55,20,55V40.86L32,34.5z"/><linearGradient id="w7N_AzMbKC~6AYyATLBX6i" x1="14" x2="14" y1="55" y2="34.5" gradientUnits="userSpaceOnUse" spreadMethod="reflect"><stop offset="0" stop-color="#ffc66d"/><stop offset="1" stop-color="#ffc491"/></linearGradient><path fill="url(#w7N_AzMbKC~6AYyATLBX6i)" d="M20,40.86V55c-0.6,0-1.2-0.14-1.75-0.44l-9.73-5.2C8.18,49.18,8,48.84,8,48.5v-14L20,40.86z"/><linearGradient id="w7N_AzMbKC~6AYyATLBX6j" x1="20" x2="20" y1="41" y2="28" gradientUnits="userSpaceOnUse" spreadMethod="reflect"><stop offset="0" stop-color="#ffd688"/><stop offset="1" stop-color="#ffd59b"/></linearGradient><path fill="url(#w7N_AzMbKC~6AYyATLBX6j)" d="M8.522,33.636l9.726-5.197c1.093-0.584,2.412-0.584,3.505,0l9.726,5.197 c0.696,0.372,0.696,1.357,0,1.729l-9.726,5.197c-1.093,0.584-2.412,0.584-3.505,0l-9.726-5.197 C7.826,34.993,7.826,34.007,8.522,33.636z"/></svg>