<svg xmlns="http://www.w3.org/2000/svg" viewBox="0 0 48 48"><path fill="#0d47a1" d="M2 9H46V19H2z"/><path fill="#eceff1" d="M2 19H46V29H2z"/><path fill="#ff3d00" d="M2 29H46V39H2z"/><path fill="#fdd835" d="M24,16.6c-1.4,0-4.6,0-7-0.5l0.4,11.2c0,1.3,0.1,2.6,2,3.4c1,0.4,2.5,0.4,3.1,0.4s1.2,0.5,1.6,1.1"/><path fill="#ff3d00" d="M24,16.6c1.4,0,4.6,0,7-0.5l-0.4,11.2c0,1.3-0.1,2.6-2,3.4c-1,0.4-2.5,0.4-3.1,0.4S24.4,31.5,24,32"/><path fill="#212121" d="M24,32.1c0,0-0.1,0-0.1-0.1c-0.3-0.4-0.8-1-1.5-1h-0.1c-0.6,0-2.1,0-3-0.4c-2-0.8-2-2.3-2.1-3.5 L16.9,16c0,0,0-0.1,0.1-0.1c0,0,0.1,0,0.1,0c2.3,0.5,5.6,0.5,7,0.5c1.4,0,4.6,0,7-0.5c0,0,0.1,0,0.1,0c0,0,0.1,0.1,0.1,0.1 l-0.4,11.2c0,1.1-0.1,2.7-2.1,3.5c-0.9,0.4-2.4,0.4-3,0.4h-0.1c-0.7,0-1.2,0.6-1.5,1C24.1,32.1,24,32.1,24,32.1z M22.4,30.7 c0.7,0,1.3,0.5,1.6,1c0.3-0.4,0.9-1,1.6-1l0.1,0c0.6,0,2,0,2.9-0.3c1.8-0.7,1.8-2.1,1.9-3.2l0.4-11c-2.3,0.5-5.5,0.5-6.8,0.5 s-4.5,0-6.8-0.5l0.4,11c0,1.1,0.1,2.5,1.9,3.2c0.9,0.3,2.3,0.3,2.9,0.3L22.4,30.7z"/><path fill="#fafafa" d="M30.1,25.6C30.1,25.7,30.1,25.6,30.1,25.6C30.2,25.6,30.2,25.6,30.1,25.6l-1.3-2.2l1.4-0.7 c0,0,0,0,0,0s0,0,0,0L28.8,22l1.4-1.4c0,0,0,0,0-0.1c0,0,0,0-0.1,0l-1.3,0.2l1.2-2c0,0,0,0,0,0v-1.6c0,0,0,0,0,0c0,0,0,0-0.1,0 l-1.4,0.5c0,0,0,0,0,0l-0.4,2.1l-0.2-2.3c0,0,0,0,0-0.1c0,0-0.1,0-0.1,0l-0.6,2.2l-0.6-2.2c0,0,0,0-0.1,0c0,0,0,0,0,0.1l-0.2,2.3 L26,17.6c0,0,0,0,0,0L24.6,17c0,0,0,0-0.1,0c0,0,0,0,0,0v1.6c0,0,0,0,0,0l1.2,2l-1.3-0.2c0,0,0,0-0.1,0c0,0,0,0,0,0.1l1.4,1.4 l-1.4,0.7c0,0,0,0,0,0s0,0,0,0l1.4,0.7l-1.4,2.1c0,0,0,0,0,0.1c0,0,0,0,0.1,0L26,25l-1.7,3.6c0,0,0,0.1,0,0.1c0,0,0.1,0,0.1,0 l2.4-2.3l-0.7,2.6c0,0,0,0,0,0.1l1.1,1.1c0,0,0,0,0,0s0,0,0,0l1.1-1.1c0,0,0,0,0-0.1l-0.7-2.6l2.4,2.3c0,0,0,0,0.1,0s0,0,0-0.1 L28.4,25L30.1,25.6z"/><path fill="#0d47a1" d="M23.6 26c.1 0 .1 0 .1 0 0 0 0-.1 0-.1 0 0 0-.1 0-.1 0 0-.1 0-.1 0 0 0 0 0 0 0 0 0 .1-.1.1-.1 0 0-.1 0-.1-.1 0 0 0 0-.1 0 0 0 0 0 0 0 0 0-.1.1-.1.1 0 0 0 0 0 0 0 0 0-.1 0-.1 0-.1 0-.1 0-.1 0 0-.1 0-.1 0 0 0-.1 0-.1 0 0 0 0 .1 0 .2 0 .1.1.3 0 .4-.2.3-.5.6-.8.8 0 0 0 0-.1 0-.1-.1-.1-.3-.1-.4.2 0 .4-.2.4-.2 0 0 0-.1-.1-.1 0 0 0 0 0 0 0 0-.1 0-.1 0-.1 0-.2.1-.3 0-.1 0-.2-.1-.2-.2 0-.1 0-.1.1-.2.1 0 .2-.1.3-.1.1 0 .1 0 .2 0 .1 0 .2 0 .2-.1 0 0 0-.1 0-.1.1 0 .1-.1.1-.1 0 0 0-.1-.1-.1 0 0-.1 0-.1 0-.1 0-.1 0-.3-.1-.1 0-.1 0-.2-.1-.1 0-.1-.1-.3-.1 0 0 0 0 0 0-.1 0-.2 0-.2 0-.1 0-.1 0-.1 0-.1-.1-.1-.2-.2-.2 0 0 0 0 0 0 0 0-.1 0-.1.1-.1.2 0 .3.1.4 0 0 .1.1.1.1-.1 0-.3 0-.3.1 0 0-.1.1-.1.2-.1.1-.2.2-.2.3 0 .1 0 .1 0 .2 0 0 0 0 0 0 0 0 0 0 0 0 0 0 .1 0 .1 0 .1 0 .1 0 .2.1-.1.1-.6.1-.9.1 0 0-.1 0-.1 0-.5 0-.9-.1-1.2-.2-.2-.1-.6-.3-.6-.6 0-.1 0-.2.1-.2.1-.1.4-.1.6 0 .1 0 .2 0 .3 0 .5 0 .7 0 1 0l.1 0c.4 0 .6-.3.6-.6v0c0-.3 0-.7.1-.8 0-.1.1-.2.2-.2.1 0 .3 0 .6.1.2.1.4.1.6.1.1-.1.2-.2.3-.3 0 0 0 0 0 0 0 0 0 0 0 0-.4.1-.6 0-.8-.1-.1-.1-.3-.1-.4-.1 0 0 0 0 0 0-.3 0-.4.2-.5.4 0 0 0 0 0 .1 0 0 0-.1-.1-.1-.1-.2-.1-.3-.4-.4-.2 0-.4 0-.6.1 0 0-.1 0-.1 0-.1.1-.4 0-.6-.2 0 0 0 0 0 0 0 0 0 0 0 0 0 .4.3.5.5.6.2 0 .3 0 .5-.1.1 0 .2-.1.3-.1 0 0 0 0 0 0 .1 0 .2 0 .3.1.2.2.2.7.1 1.1 0 .1 0 .1-.1.2-.2.2-.7.1-1 .1l0 0c.1-.1.1-.2.1-.3 0-.1 0-.1.1-.2 0 0 0 0 0 0s0 0 0 0c0 0 0 0 0 0-.2 0-.3.1-.3.2 0 .1 0 .2-.1.3 0 0-.3 0-.4 0 0 0 0 0-.1 0 .1-.1.1-.2.1-.2 0-.1 0-.1.1-.2 0 0 0 0 0 0 0 0 0 0 0 0-.2.1-.3.2-.3.3 0 .1 0 .1-.1.2-.2 0-.4.3-.4.5 0 .3.2.5.3.6 0 0 0 0 0 0 .1.1.2.2.3.2-.2 0-.2.1-.2.2 0 0 0 .1 0 .1 0 0 0 0 0 0 0 0 0 0 0 0 .1 0 .2-.1.2-.1.1-.1.1-.1.3-.1 0 0 0 0 0 0 .2 0 .2 0 .3.1 0 0 0 .1 0 .1 0 .5-.3.7-.4.7-.1 0-.1.1-.2.1-.2.1-.2.1-.3.4 0 .1 0 .1 0 .1 0 .1 0 .2 0 .4 0 0 0 0-.1 0-.1 0-.1 0-.2 0 0 0 0 .1 0 .1 0 0 0 .1 0 .1 0 0 .1 0 .1 0 0 0 .1 0 .1 0 0 0 0 0 0 0 0 0 0 0 0 .1 0 0 0 .1 0 .1 0 0 0 0 0 0 0 0 0 0 .1 0 0 0 .1 0 .1 0 0 0 0-.1 0-.1 0 0 0 0 0 0 0 0 0 0 0 0 0 0 0 .1.1.1 0 0 0 0 0 0 0 0 0 0 .1-.1 0 0 .1 0 .1-.1 0 0 0-.1-.1-.1.1 0 .1 0 .2 0 0 0 0-.1 0-.1 0 0 0-.1 0-.1 0 0-.1 0-.1 0 0 0-.1 0-.1 0 0-.3.1-.4.3-.5.3-.1.5-.3.8-.6 0 .1.1.2.2.3.1 0 .1.1.1.1 0 .2-.1.2-.1.3 0 0 0 .1 0 .1 0 .2.1.2.3.2.1 0 .1 0 .2.1 0 0 0 0 .1 0 0 0 0 0 0 0 0 0 0 0 0 .1 0 0 0 0 .1 0 0 0 0 0 .1 0h0c0 0 .1 0 .1-.1 0 0 0 0 0 0 0 0 0 .1 0 .1 0 .1 0 .1 0 .1 0 0 .1 0 .1 0 0 0 .1 0 .1 0 0 0 .1-.1.1-.2 0 0 0 0 0 0 0 .1.1.1.1.1 0 0 0 0 0 0 0 0 .1 0 .1-.1 0 0 .1 0 .1-.1 0-.1-.1-.1-.1-.1 0 0 0 0 0 0 .1 0 .1 0 .1-.1s0-.1 0-.1c0 0 0-.1 0-.1 0 0-.1 0-.2 0 0 0 0 0-.1 0-.1 0-.2-.1-.3-.2-.1-.1-.1-.3.1-.5.1-.2-.1-.4-.2-.6 0 0-.1-.1-.1-.1 0 0 .1 0 .2.1.2.2.3.2.4.3.1 0 .1.1.2.1.1.1.2.1.2.1.1 0 .1-.2.1-.3 0 0 .1.1.1.2l0 0c0 .2.1.4.4.4.1 0 .3.1.4.2.2.1.3.2.6.3 0 0 0 0 0 0 0 0 0 0 0 0 0 0 0 0 0 .1 0 0 0 0 .1.1 0 0 0 .1.1.1 0 0 .1 0 .1 0 .1 0 .1 0 .1 0 0 0 0 .1 0 .1 0 0 0 .1 0 .1 0 0 .1 0 .1 0 0 0 .1 0 .1 0 0 0 0-.1 0-.1 0 0 .1 0 .1 0 0 0 0 0 0-.1 0 0 .1 0 .1-.1 0 0-.1-.1-.1-.1 0 0 0 0 0 0 0 0 0 0 0 0 0 0 .1 0 .1 0 0 0 0-.1 0-.1 0 0 0-.1 0-.1 0 0-.1 0-.1 0 0 0-.1 0-.1 0-.3-.1-.6-.4-.7-.6 0-.1-.1-.1-.1-.2-.1-.1-.1-.1-.1-.1.2 0 .4-.2.6-.3.2-.2.3-.3.5-.7 0-.1.1-.2.1-.3 0-.1 0-.2.1-.2 0 0 0 0 0 0 0 0 .1.1.1 0 0 0 0 0 0-.1C23.6 26.1 23.6 26.1 23.6 26 23.6 26 23.6 26 23.6 26 23.6 26 23.6 26 23.6 26zM18.1 25.6C18.1 25.6 18.1 25.6 18.1 25.6 18.1 25.6 18.1 25.6 18.1 25.6zM23.6 19.5c.1 0 .1 0 .1 0 0 0 0-.1 0-.1 0 0 0-.1 0-.1 0 0-.1 0-.1 0 0 0 0 0 0 0 0 0 .1-.1.1-.1 0 0-.1 0-.1-.1 0 0 0 0-.1 0 0 0 0 0 0 0 0 0-.1.1-.1.1 0 0 0 0 0 0 0 0 0-.1 0-.1 0-.1 0-.1 0-.1 0 0-.1 0-.1 0 0 0-.1 0-.1 0 0 0 0 .1 0 .2 0 .1.1.3 0 .4-.2.3-.5.6-.8.8 0 0 0 0-.1 0-.1-.1-.1-.3-.1-.4.2 0 .4-.2.4-.2 0 0 0-.1-.1-.1-.1 0-.1 0-.1 0-.1 0-.2.1-.3 0-.1 0-.2-.1-.2-.2 0-.1 0-.1.1-.2.1 0 .2-.1.4-.1.1 0 .1 0 .2 0 .1 0 .2 0 .2-.1 0 0 0-.1 0-.1.1 0 .1-.1.1-.1 0 0 0-.1-.1-.1 0 0-.1 0-.1 0-.1 0-.1 0-.3-.1-.1 0-.1 0-.2-.1-.1 0-.1-.1-.3-.1 0 0 0 0 0 0-.1 0-.2 0-.2 0-.1 0-.1 0-.1 0-.1-.1-.1-.2-.2-.2 0 0 0 0 0 0 0 0-.1 0-.1.1-.1.2 0 .3.1.4 0 0 .1.1.1.1-.1 0-.3 0-.3.1 0 0-.1.1-.1.2-.1.1-.2.2-.2.3 0 .1 0 .1 0 .2 0 0 0 0 0 0 0 0 0 0 0 0 0 0 .1 0 .1 0 .1 0 .1 0 .2.1C20.8 20 20.3 20 20 20c0 0-.1 0-.1 0-.5 0-.9-.1-1.2-.2-.2-.1-.6-.3-.6-.6 0-.1 0-.2.1-.2.1-.1.4-.1.6 0 .1 0 .2 0 .3 0 .5 0 .7 0 1 0l.1 0c.4 0 .6-.3.6-.6v0c0-.3 0-.7.1-.8 0-.1.1-.2.2-.2.1 0 .3 0 .6.1.2.1.4.1.6.1.1-.1.2-.2.3-.3 0 0 0 0 0 0 0 0 0 0 0 0-.4.1-.6 0-.8-.1-.1-.1-.3-.1-.4-.1 0 0 0 0 0 0-.3 0-.4.2-.5.4 0 0 0 0 0 .1 0 0 0-.1-.1-.1-.1-.2-.1-.3-.4-.4-.2 0-.4 0-.6.1 0 0-.1 0-.1 0-.1.1-.4 0-.6-.2 0 0 0 0 0 0 0 0 0 0 0 0 0 .4.3.5.5.6.2 0 .3 0 .5-.1.1 0 .2-.1.3-.1 0 0 0 0 0 0 .1 0 .2 0 .3.1.2.2.2.7.1 1.1 0 .1 0 .1-.1.2-.2.2-.7.1-1 .1l0 0c.1-.1.1-.2.1-.3 0-.1 0-.1.1-.2 0 0 0 0 0 0s0 0 0 0c0 0 0 0 0 0-.2 0-.3.1-.3.2 0 .1 0 .2-.1.3 0 0-.3 0-.4 0 0 0 0 0-.1 0 .1-.1.1-.2.1-.2 0-.1 0-.1.1-.2 0 0 0 0 0 0 0 0 0 0 0 0-.2.1-.3.2-.3.3 0 .1 0 .1-.1.2-.2 0-.4.3-.4.5 0 .3.2.5.3.6 0 0 0 0 0 0 .1.1.2.2.3.2-.2 0-.2.1-.2.2 0 0 0 .1 0 .1 0 0 0 0 0 0 0 0 0 0 0 0 .1 0 .2-.1.2-.1.1-.1.1-.1.3-.1 0 0 0 0 0 0 .2 0 .2 0 .3.1 0 0 0 .1 0 .1 0 .5-.3.7-.4.7-.1 0-.1.1-.2.1-.2.1-.2.1-.3.4 0 .1 0 .1 0 .1 0 .1 0 .2 0 .4 0 0 0 0-.1 0-.1 0-.1 0-.2 0 0 0 0 .1 0 .1 0 0 0 .1 0 .1 0 0 .1 0 .1 0 0 0 .1 0 .1 0 0 0 0 0 0 0 0 0 0 0 0 .1 0 0 0 .1 0 .1 0 0 0 0 0 0 0 0 0 0 .1 0 0 0 .1 0 .1 0 0 0 0-.1 0-.1 0 0 0 0 0 0 0 0 0 .1.1.1 0 0 0 0 0 0 0 0 0 0 .1-.1 0 0 .1 0 .1-.1 0 0 0-.1-.1-.1.1 0 .1 0 .2 0 0 0 0-.1 0-.1 0 0 0-.1 0-.1 0 0-.1 0-.1 0 0 0-.1 0-.1 0 0-.3.1-.4.3-.5.3-.1.5-.3.8-.6 0 .1.1.2.2.3.1 0 .1.1.1.1 0 .2-.1.2-.1.3 0 0 0 .1 0 .1 0 .2.1.2.3.2.1 0 .1 0 .2.1 0 0 0 0 .1 0 0 0 0 0 0 0 0 0 0 0 0 .1 0 0 0 0 .1 0 0 0 0 0 .1 0h0c0 0 .1 0 .1-.1 0 0 0 0 0 0 0 0 0 .1 0 .1 0 .1 0 .1 0 .1 0 0 .1 0 .1 0 0 0 .1 0 .1 0 0 0 .1-.1.1-.2 0 0 0 0 0 0 0 .1.1.1.1.1 0 0 0 0 0 0 0 0 .1 0 .1-.1 0 0 .1 0 .1-.1 0-.1-.1-.1-.1-.1 0 0 0 0 0 0 .1 0 .1 0 .1-.1 0 0 0-.1 0-.1 0 0 0-.1 0-.1 0 0-.1 0-.2 0 0 0 0 0-.1 0-.1 0-.2-.1-.3-.2-.1-.1-.1-.3.1-.5.1-.2-.1-.4-.2-.6 0 0-.1-.1-.1-.1.1 0 .1 0 .2.1.2.2.3.2.4.3.1 0 .1.1.2.1.1.1.2.1.2.1.1 0 .1-.2.1-.3 0 0 .1.1.1.2l0 0c0 .2.1.4.4.4.1 0 .3.1.4.2.2.1.3.2.6.3 0 0 0 0 0 0 0 0 0 0 0 0 0 0 0 0 0 .1 0 0 0 0 .1.1 0 0 0 .1.1.1 0 0 .1 0 .1 0 0 0 0 0 0 0 0 0 0 0 0 0 0 0 0 .1 0 .1 0 0 0 .1 0 .1 0 0 .1 0 .1 0 0 0 .1 0 .1 0 0 0 0-.1 0-.1 0 0 .1 0 .1 0 0 0 0 0 0-.1 0 0 .1 0 .1-.1 0 0-.1-.1-.1-.1 0 0 0 0 0 0 0 0 0 0 0 0 0 0 .1 0 .1 0 0 0 0-.1 0-.1 0 0 0-.1 0-.1 0 0-.1 0-.1 0 0 0-.1 0-.1 0-.3-.1-.6-.4-.7-.6 0-.1-.1-.1-.1-.2-.1-.1-.1-.1-.1-.1.2 0 .4-.2.6-.3.2-.2.3-.3.5-.7 0-.1.1-.2.1-.3 0-.1 0-.2.1-.2 0 0 0 0 0 0 0 0 .1.1.1 0 0 0 0 0 0-.1C23.6 19.7 23.6 19.7 23.6 19.5 23.6 19.6 23.6 19.6 23.6 19.5 23.6 19.5 23.6 19.5 23.6 19.5zM18.1 19.2C18.1 19.1 18.1 19.1 18.1 19.2 18.1 19.1 18.1 19.1 18.1 19.2z"/><path fill="#fdd835" d="M19.6 27.7C19.6 27.7 19.5 27.7 19.6 27.7c-.1-.1-.1-.1-.1-.1 0 0 .1-.1.1-.1.2-.2.3-.3.5-.3.1 0 .2 0 .3.1 0 0 0 .1 0 .1 0 0-.1 0-.1 0-.1-.1-.1-.1-.2-.1-.1 0-.2.1-.4.3C19.7 27.6 19.7 27.6 19.6 27.7 19.6 27.7 19.6 27.7 19.6 27.7zM22.1 27.6C22.1 27.6 22.1 27.6 22.1 27.6c-.1 0-.1-.1-.1-.1 0 0 0-.1 0-.1 0-.1.1-.2 0-.4 0 0 0-.1 0-.1 0 0 .1 0 .1 0 .1.2.1.4 0 .5C22.2 27.4 22.2 27.5 22.1 27.6 22.2 27.5 22.1 27.6 22.1 27.6zM22.5 27.4C22.4 27.4 22.4 27.4 22.5 27.4c-.1-.1-.1-.1-.1-.1 0 0 0-.1 0-.3 0 0 0-.1.1-.1 0 0 .1 0 .1.1C22.6 27.2 22.6 27.4 22.5 27.4 22.5 27.4 22.5 27.4 22.5 27.4zM21.7 27.4C21.7 27.4 21.6 27.4 21.7 27.4c-.1-.1-.1-.1 0-.2.1 0 .1-.1.1-.2l0-.1c0 0 0-.1.1-.1 0 0 .1 0 .1.1l0 .1C21.9 27.2 21.9 27.3 21.7 27.4 21.7 27.4 21.7 27.4 21.7 27.4zM21.3 27.3C21.3 27.3 21.3 27.2 21.3 27.3c-.1 0-.1-.1-.1-.1 0 0 0-.1.1-.1.1 0 .1 0 .2-.2l0 0c0 0 .1-.1.1-.1 0 0 .1.1.1.1l0 0C21.6 27.1 21.5 27.3 21.3 27.3zM21.1 26.9c-.1 0-.1 0-.2-.1-.1-.1 0-.2 0-.3 0 0 0-.1 0-.1 0 0 0 0-.1 0 0 0-.1-.1-.1-.1 0 0 .1-.1.1-.1.1 0 .1.1.2.1 0 .1 0 .2 0 .3 0 0 0 .1 0 .1 0 0 0 0 .1 0 0 0 .1 0 .1-.1 0 0 .1 0 .1 0 0 0 0 .1 0 .1C21.2 26.9 21.1 26.9 21.1 26.9 21.1 26.9 21.1 26.9 21.1 26.9zM21.9 25.5c0 0-.1 0-.1 0-.1 0-.1-.1-.2-.2 0 0 0-.1.1-.1 0 0 .1 0 .1.1 0 .1 0 .1.1.1 0 0 .1 0 .2 0 0 0 .1 0 .1 0 0 0 0 .1 0 .1C22 25.5 22 25.5 21.9 25.5zM19.6 21.2C19.6 21.2 19.6 21.2 19.6 21.2c-.1-.1-.1-.1-.1-.1.1-.1.1-.1.2-.2.2-.2.4-.4.7-.2 0 0 0 .1 0 .1 0 0-.1 0-.1 0-.2-.1-.2-.1-.5.1C19.8 21.1 19.7 21.2 19.6 21.2 19.7 21.2 19.6 21.2 19.6 21.2zM22.1 21.1C22.1 21.1 22.1 21.1 22.1 21.1 22 21.1 22 21 22 21c0 0 0-.1 0-.1 0-.1.1-.2 0-.4 0 0 0-.1 0-.1 0 0 .1 0 .1 0 .1.2.1.4 0 .5C22.2 21 22.2 21 22.1 21.1 22.2 21.1 22.1 21.1 22.1 21.1zM22.5 21C22.4 21 22.4 21 22.5 21c-.1-.1-.1-.1-.1-.1 0 0 0-.1 0-.3 0 0 0-.1.1-.1 0 0 .1 0 .1.1C22.6 20.7 22.6 20.9 22.5 21 22.5 21 22.5 21 22.5 21zM21.7 21C21.7 21 21.6 20.9 21.7 21c-.1-.1-.1-.1 0-.2.1 0 .1-.1.1-.2l0-.1c0 0 0-.1.1-.1 0 0 .1 0 .1.1l0 .1C21.9 20.7 21.9 20.9 21.7 21 21.7 21 21.7 21 21.7 21zM21.3 20.8C21.3 20.8 21.3 20.8 21.3 20.8c-.1 0-.1-.1-.1-.1 0 0 0-.1.1-.1.1 0 .1 0 .2-.2l0 0c0 0 .1-.1.1-.1 0 0 .1.1.1.1l0 0C21.6 20.6 21.5 20.8 21.3 20.8zM21.1 20.5c-.1 0-.1 0-.2-.1-.1-.1 0-.2 0-.3 0 0 0-.1 0-.1 0 0 0 0-.1 0 0 0-.1 0-.1-.1 0 0 0-.1.1-.1 0 0 0 0 0 0 .1 0 .2 0 .2.1.1.1 0 .2 0 .3 0 0 0 .1 0 .1 0 0 0 0 .1 0 0 0 .1 0 .1-.1 0 0 .1 0 .1 0 0 0 0 .1 0 .1C21.2 20.4 21.2 20.5 21.1 20.5 21.1 20.5 21.1 20.5 21.1 20.5zM21.9 19c0 0-.1 0-.1 0-.1 0-.1-.1-.1-.2 0 0 0-.1.1-.1 0 0 .1 0 .1.1 0 .1 0 .1.1.1 0 0 .1 0 .2 0 0 0 .1 0 .1 0 0 0 0 .1 0 .1C22 19 22 19 21.9 19z"/><g><path fill="#ff3d00" d="M17.8 22.3c0 0 0 .1 0 .2 0 0 0 0 0 0h0c0 0 0 0 0 0 0-.1.1-.1.1-.1 0 0 .1 0 .1 0 0 0 0-.1 0-.1 0 0-.1-.1-.1-.1C17.9 22.2 17.9 22.2 17.8 22.3zM18.3 22.5C18.3 22.5 18.2 22.5 18.3 22.5c-.1.1-.1.1-.1.1 0 0 0 .1 0 .1 0 0 0 0 0 0 0 0 0 0 0 0 0 0 0 0 0 0 .1 0 .1 0 .2-.1C18.4 22.6 18.4 22.6 18.3 22.5 18.4 22.5 18.3 22.5 18.3 22.5zM18.5 22.4C18.5 22.4 18.5 22.4 18.5 22.4c-.1.1 0 .1 0 .1 0 0 .1 0 0 .1 0 0 0 0 0 0 0 0 0 0 0 0 0 0 0 0 0 0 .1 0 .1-.1.1-.1 0 0 0-.1 0-.1C18.6 22.4 18.6 22.4 18.5 22.4zM18.7 22.1C18.7 22.1 18.7 22.1 18.7 22.1c-.1.1-.1.1-.1.1 0 0 0 0 .1 0 0 0 .1 0 .1.1 0 0 0 0 0 0 0 0 0 0 0 0 0 0 0 0 0 0 0-.1 0-.1 0-.2C18.8 22.1 18.8 22.1 18.7 22.1zM23.7 19.6c-.1 0-.1 0-.1 0 0 0 0 0-.1 0 0 0 0 0 0 0 0 0-.1 0-.1.1 0 0 0 .1 0 .1 0 0 .1 0 .1 0 0 0 0 0 0 0C23.7 19.8 23.7 19.7 23.7 19.6 23.8 19.7 23.8 19.7 23.7 19.6 23.7 19.6 23.7 19.6 23.7 19.6z"/><path fill="#ff3d00" d="M23.8 19.4c0 0-.1 0-.1 0 0 0-.1 0-.1.1 0 0 0 .1 0 .1 0 0 0 0 .1 0 0 0 .1 0 .1.1 0 0 0 0 0 0 0 0 0 0 0 0 0 0 0 0 0 0C23.9 19.5 23.9 19.4 23.8 19.4zM23.5 19.2C23.5 19.2 23.5 19.2 23.5 19.2 23.6 19.2 23.6 19.2 23.5 19.2c.1-.1.1-.1.2-.1 0 0 0 0 0 0s0 0 0 0c0-.1-.1-.1-.2-.1-.1 0-.1 0-.1.1C23.4 19.1 23.4 19.2 23.5 19.2 23.5 19.2 23.5 19.2 23.5 19.2zM23.3 18.9c-.1 0-.1 0-.2.1 0 0 0 .1 0 .1 0 0 .1.1.1.1 0 0 0 0 0 0 0 0 .1 0 .1 0 0 0 0 0 0-.1C23.2 19 23.2 19 23.3 18.9 23.3 18.9 23.3 18.9 23.3 18.9 23.3 18.9 23.3 18.9 23.3 18.9 23.3 18.9 23.3 18.9 23.3 18.9zM21 22C20.9 22 20.9 22 21 22c-.1.1 0 .2 0 .2 0 0 0 0 .1 0 0 0 .1 0 .1 0 0 0 0 0 0 0 0 0 0 0 0 0 0 0 0 0 0 0 0-.1 0-.1-.1-.2C21.1 22 21 22 21 22zM21 22.3C20.9 22.3 20.9 22.3 21 22.3c-.1.1-.1.1 0 .1 0 0 0 .1 0 .1 0 0 0 0 0 0 0 0 0 0 0 0 0 0 0 0 0 0 .1 0 .1-.1.1-.1 0 0 0-.1 0-.1C21 22.3 21 22.3 21 22.3zM20.6 22.4C20.6 22.4 20.6 22.4 20.6 22.4c0 .1 0 .1-.1.2 0 0 0 0 0 0 0 0 0 0 0 0 0 0 0 0 0 0 .1 0 .1 0 .1 0 0 0 0-.1 0-.1C20.8 22.4 20.8 22.4 20.6 22.4 20.7 22.4 20.6 22.4 20.6 22.4zM20.3 22.3c0 0-.1.1-.1.1 0 .1 0 .1.1.1 0 0 0 0 0 0 0 0 0 0 0 0 0 0 0 0 0 0 0-.1 0-.1 0-.1 0 0 0 0 0-.1 0 0 0-.1 0-.1C20.4 22.2 20.4 22.2 20.3 22.3zM22.7 22.3c0 0-.1.1-.1.1 0 .1 0 .1.1.2 0 0 0 0 0 0 0 0 0 0 0 0 0 0 0 0 0 0 0-.1 0-.1.1-.1 0 0 0 0 .1 0 0 0 0-.1 0-.1C22.8 22.3 22.8 22.3 22.7 22.3zM23.2 22.4C23.2 22.4 23.2 22.4 23.2 22.4 23.1 22.5 23.1 22.5 23.2 22.4c-.1.1-.1.1-.1.1 0 0 0 .1 0 .1 0 0 0 0 0 0 0 0 0 0 0 0 0 0 0 0 0 0 .1 0 .1 0 .2-.1C23.3 22.6 23.3 22.5 23.2 22.4 23.2 22.5 23.2 22.4 23.2 22.4zM23.3 22.3C23.3 22.3 23.3 22.4 23.3 22.3c0 .1 0 .1 0 .1 0 0 .1 0 .1.1 0 0 0 0 0 0 0 0 0 0 0 0 0 0 0 0 0 0 0-.1.1-.1 0-.2 0 0-.1-.1-.1-.1C23.4 22.3 23.3 22.3 23.3 22.3zM23.4 22C23.3 22 23.3 22 23.4 22c-.1.1 0 .2 0 .2 0 0 0 0 .1 0 0 0 .1 0 .1 0 0 0 0 0 0 0 0 0 0 0 0 0 0 0 0 0 0 0 0-.1 0-.1-.1-.2C23.5 22 23.4 22 23.4 22zM22.8 19.2c-.1 0-.1 0-.2.1-.1.1-.3.1-.4.1-.1 0-.2 0-.3 0 0 0-.1.1-.1.1 0 0 0 .1.2.1 0 0 0 0 0 0 .2 0 .3 0 .5 0 .1 0 .2 0 .3-.2C22.9 19.4 23 19.3 22.8 19.2 22.9 19.3 22.9 19.2 22.8 19.2 22.9 19.2 22.8 19.2 22.8 19.2z"/></g><g><path fill="#ff3d00" d="M17.8 28.7c0 0 0 .1 0 .2 0 0 0 0 0 0h0c0 0 0 0 0 0 0-.1.1-.1.1-.1 0 0 .1 0 .1 0 0 0 0-.1 0-.1 0 0-.1-.1-.1-.1C17.9 28.7 17.9 28.7 17.8 28.7zM18.3 28.9C18.3 28.9 18.3 28.9 18.3 28.9 18.3 28.9 18.2 29 18.3 28.9c-.1.1-.1.1-.1.1 0 0 0 .1 0 .1 0 0 0 0 0 0 0 0 0 0 0 0 0 0 0 0 0 0 .1 0 .1 0 .2-.1C18.4 29.1 18.4 29 18.3 28.9 18.4 29 18.3 28.9 18.3 28.9zM18.5 28.8C18.5 28.9 18.5 28.9 18.5 28.8c-.1.1 0 .1 0 .1 0 0 .1 0 0 .1 0 0 0 0 0 0 0 0 0 0 0 0 0 0 0 0 0 0 .1 0 .1-.1.1-.1 0 0 0-.1 0-.1C18.6 28.8 18.6 28.8 18.5 28.8zM18.7 28.6C18.7 28.6 18.7 28.6 18.7 28.6c-.1.1-.1.1-.1.1 0 0 0 0 .1 0 0 0 0 0 0 0 0 0 .1 0 .1.1 0 0 0 0 0 0 0 0 0 0 0 0 0 0 0 0 0 0 0-.1 0-.1 0-.2C18.8 28.6 18.8 28.6 18.7 28.6zM23.7 26.1c-.1 0-.1 0-.1 0 0 0 0 0-.1 0 0 0 0 0 0 0 0 0-.1 0-.1.1 0 0 0 .1 0 .1 0 0 .1 0 .1 0 0 0 0 0 0 0C23.7 26.2 23.7 26.2 23.7 26.1 23.8 26.1 23.8 26.1 23.7 26.1 23.7 26.1 23.7 26.1 23.7 26.1z"/><path fill="#ff3d00" d="M23.8 25.8c0 0-.1 0-.1 0 0 0-.1 0-.1.1 0 0 0 .1 0 .1 0 0 0 0 .1 0 0 0 .1 0 .1.1 0 0 0 0 0 0 0 0 0 0 0 0 0 0 0 0 0 0C23.9 25.9 23.9 25.9 23.8 25.8zM23.5 25.7C23.5 25.7 23.5 25.7 23.5 25.7 23.6 25.7 23.6 25.7 23.5 25.7c.1-.1.1-.1.2-.1 0 0 0 0 0 0 0 0 0 0 0 0 0 0 0 0 0 0 0-.1-.1-.1-.2-.1-.1 0-.1 0-.1.1C23.4 25.6 23.4 25.6 23.5 25.7 23.5 25.7 23.5 25.7 23.5 25.7zM23.3 25.3c-.1 0-.1 0-.2.1 0 0 0 .1 0 .1 0 0 .1.1.1.1 0 0 .1 0 .1 0 0 0 0 0 0-.1C23.2 25.5 23.2 25.5 23.3 25.3 23.3 25.4 23.3 25.4 23.3 25.3 23.3 25.4 23.3 25.3 23.3 25.3L23.3 25.3 23.3 25.3zM21 28.4C20.9 28.5 20.9 28.5 21 28.4c-.1.1 0 .2 0 .2 0 0 0 0 .1 0 0 0 .1 0 .1 0 0 0 0 0 0 0 0 0 0 0 0 0 0 0 0 0 0 0 0-.1 0-.1-.1-.2C21.1 28.4 21 28.4 21 28.4zM21 28.8C20.9 28.8 20.9 28.8 21 28.8c-.1.1-.1.1 0 .1 0 0 0 .1 0 .1 0 0 0 0 0 0 0 0 0 0 0 0 0 0 0 0 0 0 .1 0 .1-.1.1-.1 0 0 0-.1 0-.1C21 28.8 21 28.8 21 28.8zM20.6 28.9C20.6 28.9 20.6 28.9 20.6 28.9c0 .1 0 .1-.1.2 0 0 0 0 0 0 0 0 0 0 0 0 0 0 0 0 0 0 .1 0 .1 0 .1 0 0 0 0-.1 0-.1C20.8 28.9 20.8 28.9 20.6 28.9 20.7 28.8 20.6 28.8 20.6 28.9zM20.3 28.7c0 0-.1.1-.1.1 0 .1 0 .1.1.1 0 0 0 0 0 0 0 0 0 0 0 0 0 0 0 0 0 0 0-.1 0-.1 0-.1 0 0 0 0 0-.1 0 0 0-.1 0-.1C20.4 28.7 20.4 28.7 20.3 28.7zM22.7 28.8c0 0-.1.1-.1.1 0 .1 0 .1.1.2 0 0 0 0 0 0 0 0 0 0 0 0 0 0 0 0 0 0 0-.1 0-.1.1-.1 0 0 0 0 .1 0 0 0 0-.1 0-.1C22.8 28.7 22.8 28.7 22.7 28.8zM23.2 28.9C23.2 28.9 23.2 28.9 23.2 28.9 23.1 28.9 23.1 28.9 23.2 28.9 23.1 29 23.1 29 23.1 29c0 0 0 .1 0 .1 0 0 0 0 0 0 0 0 0 0 0 0 0 0 0 0 0 0 .1 0 .1 0 .2-.1C23.3 29.1 23.3 29 23.2 28.9 23.2 28.9 23.2 28.9 23.2 28.9zM23.3 28.8C23.3 28.8 23.3 28.8 23.3 28.8c0 .1 0 .1 0 .1 0 0 .1 0 .1.1 0 0 0 0 0 0 0 0 0 0 0 0 0 0 0 0 0 0 0-.1.1-.1 0-.2 0 0-.1-.1-.1-.1C23.4 28.7 23.3 28.7 23.3 28.8zM23.4 28.4C23.3 28.5 23.3 28.5 23.4 28.4c-.1.1 0 .2 0 .2 0 0 0 0 .1 0 0 0 .1 0 .1 0 0 0 0 0 0 0 0 0 0 0 0 0 0 0 0 0 0 0 0-.1 0-.1-.1-.2C23.5 28.4 23.4 28.4 23.4 28.4zM22.9 25.7c-.1 0-.1 0-.2.1-.1.1-.3.1-.4.1-.1 0-.2 0-.3 0 0 0-.1.1-.1.1 0 0 0 .1.2.1 0 0 0 0 0 0 .1 0 .3 0 .5 0 .1 0 .2 0 .3-.2C22.9 25.8 23 25.8 22.9 25.7 22.9 25.7 22.9 25.7 22.9 25.7 22.9 25.7 22.9 25.7 22.9 25.7z"/></g></svg>