<svg xmlns="http://www.w3.org/2000/svg" id="Layer_1" x="0" y="0" version="1.1" viewBox="0 0 64 64" xml:space="preserve"><linearGradient id="SVGID_1_" x1="32" x2="32" y1="17.553" y2="28.075" gradientUnits="userSpaceOnUse"><stop offset="0" stop-color="#6dc7ff"/><stop offset="1" stop-color="#e6abff"/></linearGradient><circle cx="32" cy="24" r="6" fill="url(#SVGID_1_)"/><linearGradient id="SVGID_2_" x1="32" x2="32" y1="5.894" y2="56.933" gradientUnits="userSpaceOnUse"><stop offset="0" stop-color="#1a6dff"/><stop offset="1" stop-color="#c822ff"/></linearGradient><path fill="url(#SVGID_2_)" d="M33.7,50c1.3-3.6,4.2-6.6,7.2-9.7c4.4-4.6,9-9.3,9-16.3c0-9.9-8.1-18-18-18s-18,8.1-18,18c0,7,4.6,11.8,9,16.3 c3,3.1,5.9,6.1,7.2,9.7c-6.2,0.2-9.3,1.5-9.3,4c0,2.7,3.7,4,11,4s11-1.3,11-4C43,51.6,39.9,50.2,33.7,50z M24.5,38.9 C20.1,34.5,16,30.2,16,24c0-8.8,7.2-16,16-16s16,7.2,16,16c0,6.2-4.1,10.5-8.5,14.9c-3,3.1-6,6.2-7.5,10 C30.5,45.1,27.4,42,24.5,38.9z M32,56c-6.6,0-9-1.2-9-2c0-0.8,2.1-1.9,7.8-2c0.1,0.3,0.1,0.7,0.1,1c-1.9,0.1-4.3,0.4-4.3,1 c0,0.7,3.3,1,5.3,1s5.3-0.3,5.3-1c0-0.6-2.3-0.9-4.3-1c0-0.3,0.1-0.7,0.1-1c5.7,0.1,7.8,1.2,7.8,2C41,54.8,38.6,56,32,56z"/><linearGradient id="SVGID_3_" x1="32" x2="32" y1="5.894" y2="56.933" gradientUnits="userSpaceOnUse"><stop offset="0" stop-color="#1a6dff"/><stop offset="1" stop-color="#c822ff"/></linearGradient><path fill="url(#SVGID_3_)" d="M39,24c0-3.9-3.1-7-7-7s-7,3.1-7,7s3.1,7,7,7S39,27.8,39,24z M27,24c0-2.8,2.2-5,5-5s5,2.2,5,5s-2.2,5-5,5 S27,26.7,27,24z"/><linearGradient id="SVGID_4_" x1="22.483" x2="22.483" y1="5.894" y2="56.933" gradientUnits="userSpaceOnUse"><stop offset="0" stop-color="#1a6dff"/><stop offset="1" stop-color="#c822ff"/></linearGradient><path fill="url(#SVGID_4_)" d="M23.5,15.5C21.3,17.7,20,20.8,20,24s1.3,6.2,3.5,8.5l1.4-1.4C23.1,29.2,22,26.6,22,24c0-2.6,1.1-5.2,2.9-7.1 L23.5,15.5z"/><linearGradient id="SVGID_5_" x1="41.539" x2="41.539" y1="5.894" y2="56.933" gradientUnits="userSpaceOnUse"><stop offset="0" stop-color="#1a6dff"/><stop offset="1" stop-color="#c822ff"/></linearGradient><path fill="url(#SVGID_5_)" d="M40.5,32.4c2.2-2.2,3.5-5.3,3.5-8.5c0-3.2-1.2-6.2-3.5-8.4L39.1,17c1.9,1.9,2.9,4.4,2.9,7 c0,2.6-1.1,5.2-2.9,7.1L40.5,32.4z"/></svg>