<svg xmlns="http://www.w3.org/2000/svg" viewBox="0 0 30 30"><path d="M 15.984375 0.98632812 A 1.0001 1.0001 0 0 0 15 2 L 13.025391 2 C 10.794058 2 8.8235834 3.4879602 8.2148438 5.6347656 C 7.8810833 6.8109207 7.5455928 7.9866957 7.4589844 8.2753906 C 7.2982834 8.8116475 7.0860696 9.2599621 6.8144531 9.5371094 C 6.7835834 9.5686077 6.7474128 9.5940483 6.7148438 9.6230469 A 1.5 1.5 0 0 0 5.5 9 A 1.5 1.5 0 0 0 4 10.5 A 1.5 1.5 0 0 0 5.4199219 11.996094 A 1.0001 1.0001 0 0 0 5.4296875 11.998047 A 1.5 1.5 0 0 0 5.5 12 A 1.5 1.5 0 0 0 5.7636719 11.976562 C 6.7995618 11.915525 7.6672602 11.524135 8.2421875 10.9375 C 8.866821 10.300147 9.1707009 9.5313525 9.375 8.8496094 C 9.4803915 8.4983043 9.8044319 7.3594855 10.138672 6.1816406 C 10.505932 4.886446 11.678723 4 13.025391 4 L 15 4 L 15 5 C 13.35503 5 12 6.3550302 12 8 L 12 16 C 11.448 16 11 16.448 11 17 L 11 18 C 9.895 18 9 18.895 9 20 C 9 21.105 9.895 22 11 22 C 11 23.105 11.895 24 13 24 L 19 24 C 20.105 24 21 23.105 21 22 L 24 22 L 24 18 L 21 18 L 21 17 C 21 16.448 20.552 16 20 16 L 20 13.169922 A 1.0001 1.0001 0 0 0 20 12.832031 L 20 9.1699219 A 1.0001 1.0001 0 0 0 20 8.8320312 L 20 8 C 20 6.3550302 18.64497 5 17 5 L 17 3.1679688 A 1.0001 1.0001 0 0 0 17 2.8417969 L 17 2 A 1.0001 1.0001 0 0 0 15.984375 0.98632812 z M 15 7 L 17 7 C 17.56503 7 18 7.4349698 18 8 L 18 8.2792969 L 15.683594 9.0507812 A 1.0005645 1.0005645 0 1 0 16.316406 10.949219 L 18 10.388672 L 18 12.279297 L 15.683594 13.050781 A 1.0005646 1.0005646 0 1 0 16.316406 14.949219 L 18 14.388672 L 18 16 L 14 16 L 14 8 C 14 7.4349698 14.43497 7 15 7 z M 26.984375 16.986328 A 1.0001 1.0001 0 0 0 26 18 L 26 22 A 1.0001 1.0001 0 1 0 28 22 L 28 18 A 1.0001 1.0001 0 0 0 26.984375 16.986328 z M 12 26 A 1.0001 1.0001 0 1 0 12 28 L 20 28 A 1.0001 1.0001 0 1 0 20 26 L 12 26 z"/></svg>