<svg xmlns="http://www.w3.org/2000/svg" viewBox="0 0 24 24"><path d="M 12 0 L 7 4 L 17 4 Z M 2 5 L 0 7 L 4 7 Z M 7 5 L 7 10 L 9 10 L 9 7 C 9 6.398438 9.398438 6 10 6 C 10.601563 6 11 6.398438 11 7 L 11 10 L 13 10 L 13 7 C 13 6.398438 13.398438 6 14 6 C 14.601563 6 15 6.398438 15 7 L 15 10 L 17 10 L 17 5 Z M 22 5 L 20 7 L 24 7 Z M 0 8 L 0 24 L 8 24 L 8 19.1875 C 8 17.085938 9.492188 15.199219 11.59375 15 C 13.992188 14.800781 16 16.601563 16 19 L 16 24 L 24 24 L 24 8 L 20 8 L 20 11 L 4 11 L 4 8 Z M 2 9 C 2.601563 9 3 9.398438 3 10 L 3 11 L 1 11 L 1 10 C 1 9.398438 1.398438 9 2 9 Z M 22 9 C 22.601563 9 23 9.398438 23 10 L 23 11 L 21 11 L 21 10 C 21 9.398438 21.398438 9 22 9 Z M 12 16 C 10.300781 16 9 17.300781 9 19 L 9 24 L 15 24 L 15 19 C 15 17.300781 13.699219 16 12 16 Z"/></svg>