<svg xmlns="http://www.w3.org/2000/svg" viewBox="0 0 64 64"><radialGradient id="ACKIPRWWgVdErqOYKWNlya" cx="31.873" cy="35.569" r="50.261" gradientUnits="userSpaceOnUse" spreadMethod="reflect"><stop offset="0" stop-color="#f4e9c3"/><stop offset=".219" stop-color="#f8eecd"/><stop offset=".644" stop-color="#fdf4dc"/><stop offset="1" stop-color="#fff6e1"/></radialGradient><path fill="url(#ACKIPRWWgVdErqOYKWNlya)" d="M58.5,38h2c1.925,0,3.5-1.575,3.5-3.5S62.425,31,60.5,31H54c-1.1,0-2-0.9-2-2c0-1.1,0.9-2,2-2 h5.5c1.925,0,3.5-1.575,3.5-3.5S61.425,20,59.5,20H59c-1.105,0-2-0.895-2-2c0-1.105,0.895-2,2-2h2c1.848,0,3.319-1.693,2.94-3.605 C63.657,10.972,62.32,10,60.869,10H53c-0.828,0-1.5-0.672-1.5-1.5S52.172,7,53,7h3.412c1.139,0,2.202-0.721,2.497-1.821 C59.355,3.516,58.096,2,56.5,2H34h-1.5h-24C6.575,2,5,3.575,5,5.5S6.575,9,8.5,9H10c1.105,0,2,0.895,2,2c0,1.105-0.895,2-2,2 l-5.385,0c-1.67,0-3.195,1.122-3.537,2.757C0.608,18.002,2.332,20,4.5,20H12L9,32l-5.385,0c-1.67,0-3.195,1.122-3.537,2.757 C-0.392,37.002,1.332,39,3.5,39H4c1.105,0,2,0.895,2,2c0,1.105-0.895,2-2,2H3.5c-2.168,0-3.892,1.998-3.422,4.243 C0.42,48.878,1.945,50,3.615,50H9c1.105,0,2,0.895,2,2c0,1.105-0.895,2-2,2l-1.385,0c-1.67,0-3.195,1.122-3.537,2.757 C3.608,59.002,5.332,61,7.5,61h23.494H32.5H34h22c1.657,0,3-1.343,3-3s-1.343-3-3-3h-0.5c-1.381,0-2.5-1.119-2.5-2.5 c0-1.381,1.119-2.5,2.5-2.5h3c1.925,0,3.5-1.575,3.5-3.5S60.425,43,58.5,43c-1.375,0-2.5-1.125-2.5-2.5S57.125,38,58.5,38z"/><radialGradient id="ACKIPRWWgVdErqOYKWNlyb" cx="32" cy="31" r="23" gradientUnits="userSpaceOnUse" spreadMethod="reflect"><stop offset="0" stop-color="#e7faff"/><stop offset=".273" stop-color="#ecfbff"/><stop offset="1" stop-color="#f6feff"/></radialGradient><path fill="url(#ACKIPRWWgVdErqOYKWNlyb)" d="M32 8A23 23 0 1 0 32 54A23 23 0 1 0 32 8Z"/><linearGradient id="ACKIPRWWgVdErqOYKWNlyc" x1="32" x2="32" y1="54" y2="6" gradientUnits="userSpaceOnUse" spreadMethod="reflect"><stop offset="0" stop-color="#adb0b0"/><stop offset=".996" stop-color="#bfbfbf"/></linearGradient><path fill="url(#ACKIPRWWgVdErqOYKWNlyc)" d="M55,31c0,1.657-1.343,3-3,3s-3-1.343-3-3c0-1.657,1.343-3,3-3S55,29.343,55,31z M12,28 c-1.657,0-3,1.343-3,3c0,1.657,1.343,3,3,3s3-1.343,3-3C15,29.343,13.657,28,12,28z M35,51c0-1.657-1.343-3-3-3 c-1.657,0-3,1.343-3,3s1.343,3,3,3C33.657,54,35,52.657,35,51z M32,14L32,14c1.65,0,3-1.35,3-3V9c0-1.65-1.35-3-3-3h0 c-1.65,0-3,1.35-3,3v2C29,12.65,30.35,14,32,14z"/><linearGradient id="ACKIPRWWgVdErqOYKWNlyd" x1="32" x2="32" y1="6" y2="56" gradientUnits="userSpaceOnUse" spreadMethod="reflect"><stop offset="0" stop-color="#42d778"/><stop offset=".996" stop-color="#34b171"/></linearGradient><path fill="url(#ACKIPRWWgVdErqOYKWNlyd)" d="M51.474,15.335l3.946-3.94c1.24-1.25,0.36-3.38-1.4-3.38H42c-1.1,0-2,0.9-2,2v12 c0,1.76,2.13,2.65,3.38,1.4l4.532-4.524C50.54,22.344,52,26.586,52,31c0,11.028-8.972,20-20,20s-20-8.972-20-20s8.972-20,20-20h0.5 c1.381,0,2.5-1.119,2.5-2.5S33.881,6,32.5,6H32C18.215,6,7,17.215,7,31s11.215,25,25,25s25-11.215,25-25 C57,25.255,55.02,19.744,51.474,15.335z"/><linearGradient id="ACKIPRWWgVdErqOYKWNlye" x1="25.5" x2="25.5" y1="25" y2="39" gradientUnits="userSpaceOnUse" spreadMethod="reflect"><stop offset="0" stop-color="#959595"/><stop offset="1" stop-color="#6f6f6f"/></linearGradient><path fill="url(#ACKIPRWWgVdErqOYKWNlye)" d="M26.279,25c-0.185,0-0.369,0.03-0.544,0.088L24.06,25.98C23.427,26.191,23,26.783,23,27.45 c0,0.856,0.694,1.55,1.55,1.55H25v8.5c0,0.828,0.672,1.5,1.5,1.5s1.5-0.672,1.5-1.5V29v-1.227v-1.052C28,25.77,27.23,25,26.279,25z"/><linearGradient id="ACKIPRWWgVdErqOYKWNlyf" x1="35" x2="35" y1="25" y2="39" gradientUnits="userSpaceOnUse" spreadMethod="reflect"><stop offset="0" stop-color="#959595"/><stop offset="1" stop-color="#6f6f6f"/></linearGradient><path fill="url(#ACKIPRWWgVdErqOYKWNlyf)" d="M38.5,36h-3.363l1.019-1.017C37.633,33.519,39,31.867,39,29.724C39,27.119,36.981,25,34.5,25 c-2.565,0-4.5,1.935-4.5,4.5c0,0.828,0.672,1.5,1.5,1.5s1.5-0.672,1.5-1.5c0-1.036,0.753-1.5,1.5-1.5c0.827,0,1.5,0.773,1.5,1.724 c0,0.714-0.333,1.52-1.956,3.129l-1.13,1.127c-0.637,0.638-1.36,1.362-2.466,2.451l0.001,0.001C30.172,36.703,30,37.081,30,37.5 c0,0.828,0.672,1.5,1.5,1.5h7c0.828,0,1.5-0.672,1.5-1.5S39.328,36,38.5,36z"/></svg>