<svg xmlns="http://www.w3.org/2000/svg" viewBox="0 0 24 24"><path d="M 12 0 L 0 5.1875 L 0 24 L 24 24 L 24 5.1875 Z M 12 3.40625 L 22 7.71875 L 22 22 L 2 22 L 2 7.71875 Z M 10.40625 9 C 8.507813 9 8.3125 11.199219 7.3125 11.5 C 6.511719 11.800781 6.207031 11.394531 5.40625 11.59375 C 4.605469 11.894531 4 13 4 13 C 4 13 4.699219 12.292969 5.5 12.09375 C 6 11.992188 6.613281 12.289063 7.3125 12.1875 C 8.011719 12.085938 8.289063 11.800781 8.6875 11.5 C 9.085938 11.199219 9.507813 11.5 10.40625 11.5 C 11.40625 11.5 12 10.988281 12 10.1875 C 12 9.585938 11.40625 9 10.40625 9 Z M 16.8125 12 C 13.011719 12 12.59375 16.398438 10.59375 17 C 8.992188 17.5 8.3125 16.8125 6.8125 17.3125 C 5.210938 17.8125 4 20 4 20 C 4 20 5.5 18.488281 7 18.1875 C 8.101563 17.988281 9.300781 18.605469 10.5 18.40625 C 11.800781 18.207031 12.414063 17.601563 13.3125 17 C 14.113281 16.398438 14.914063 17.09375 16.8125 17.09375 C 18.8125 16.992188 20 16.105469 20 14.40625 C 20 13.105469 18.914063 12 16.8125 12 Z"/></svg>