<svg xmlns="http://www.w3.org/2000/svg" viewBox="0 0 100 100"><path fill="#fff" d="M22.4 56.5A.9.9 0 1 0 22.4 58.3.9.9 0 1 0 22.4 56.5zM81.6 31.8A.7.7 0 1 0 81.6 33.2.7.7 0 1 0 81.6 31.8z"/><path fill="#f1bc19" d="M79 12.5A.9.9 0 1 0 79 14.3.9.9 0 1 0 79 12.5zM22.9 64.19999999999999A.9.9 0 1 0 22.9 66 .9.9 0 1 0 22.9 64.19999999999999z"/><path fill="#e6edb7" d="M51.8 13.200000000000003A37.5 37.5 0 1 0 51.8 88.2A37.5 37.5 0 1 0 51.8 13.200000000000003Z"/><path fill="#f1bc19" d="M84.4 11.6A4 4 0 1 0 84.4 19.6A4 4 0 1 0 84.4 11.6Z"/><path fill="#88ae45" d="M14.3 27.3A1.9 1.9 0 1 0 14.3 31.099999999999998A1.9 1.9 0 1 0 14.3 27.3Z"/><path fill="#fbcd59" d="M79.5 75.3A1.9 1.9 0 1 0 79.5 79.10000000000001 1.9 1.9 0 1 0 79.5 75.3zM37.7 79.5A4 4 0 1 0 37.7 87.5 4 4 0 1 0 37.7 79.5z"/><path fill="#88ae45" d="M28 84.69999999999999A1.9 1.9 0 1 0 28 88.5A1.9 1.9 0 1 0 28 84.69999999999999Z"/><path fill="#fff" d="M12.4 40.300000000000004A1.8 1.8 0 1 0 12.4 43.9 1.8 1.8 0 1 0 12.4 40.300000000000004zM59.4 77.7A2.6 2.6 0 1 0 59.4 82.89999999999999 2.6 2.6 0 1 0 59.4 77.7z"/><path fill="#fdfcef" d="M64.7,33.7c0-5-5.4-9-12.1-9s-12.1,4-12.1,9s5.4,9,12.1,9h1.5c1.7,1.6,3.9,2.6,6.2,2.9 c0.4,0,0.7-0.2,0.7-0.6c0-0.1,0-0.2-0.1-0.4c-0.6-1.3-0.8-2.6-0.9-4l0,0C63.1,39,64.7,36.4,64.7,33.7"/><path fill="#472b29" d="M60.4,46.2c0,0-0.1,0-0.1,0c-2.4-0.3-4.5-1.3-6.3-2.9h-1.3c-6.9,0-12.6-4.3-12.6-9.5 c0-5.2,5.6-9.5,12.6-9.5c6.9,0,12.5,4.2,12.6,9.4c0,0,0,0,0,0c0,0,0,0,0,0c0,0,0,0,0,0c0,0,0,0,0,0c0,2.8-1.7,5.5-4.5,7.3 c0,1.2,0.3,2.4,0.8,3.5c0.1,0.2,0.1,0.4,0.1,0.6C61.5,45.8,61,46.2,60.4,46.2z M52.7,25.2c-6.4,0-11.6,3.8-11.6,8.5 c0,4.7,5.2,8.5,11.6,8.5h1.5c0.1,0,0.2,0,0.3,0.1c1.7,1.5,3.7,2.5,5.9,2.8c0.1,0,0.2-0.1,0.2-0.2c-0.6-1.4-0.9-2.8-0.9-4.3 c0-0.2,0.1-0.3,0.2-0.4c2.7-1.6,4.3-4,4.3-6.6C64.2,29,59,25.2,52.7,25.2z"/><path fill="#e5ac80" d="M89,63.3c-0.1-1.3-1-2.5-2.3-2.8l-0.3-0.1c-0.1,0-0.2-0.1-0.4-0.2c-0.8-0.4-6-2.3-6-2.3 c-0.4-0.1-0.7-0.4-0.9-0.8c-0.2-0.7-0.2-1.3-0.2-2c-1.2,0.4-2.3,0.7-3.5,1c-1.3,0.1-4.2-1.6-4.2-1.6s-0.1,2.1-0.2,2.6 c-0.1,0.4-0.5,0.7-0.9,0.8l-5,1.8c-0.5,0.1-1.1,0.3-1.5,0.6c-1.1,0.7-1.8,1.7-2.2,2.9c0,0-0.3,2.3-0.3,2.4c0,0.3-0.1,0.7-0.1,1.1 c5.4,3.7,9.8,4.7,17.3,4.4c3.9-0.4,7.6-1.5,11.1-3.3C89.3,65.1,89,63.3,89,63.3z"/><path fill="#fdfcef" d="M86.7,60.7l-0.3-0.1L86,60.4c-0.5-0.2-2.7-1-4.3-1.6h-0.1C79.9,59.6,77.3,61,75,61 s-4.6-1.2-6.6-2.3l-0.2,0.1l-3.1,1.1c-0.5,0.1-1.1,0.4-1.5,0.6c-1.1,0.7-1.8,1.7-2.2,2.9c0,0-0.3,2.3-0.3,2.4 c0,0.3-0.1,3.8-0.1,4.2c5.4,3.7,9.8,4.7,17.3,4.4c3.9-0.4,7.6-1.5,11.2-3.2c-0.1-3-0.4-7.8-0.4-7.8C88.9,62.1,88,61,86.7,60.7z"/><path fill="#e1e0d8" d="M65.7 73.1c-.2 0-.3-.1-.3-.3v-2.8c0-.2.1-.3.3-.3s.3.1.3.3v2.8C66 73 65.9 73.1 65.7 73.1zM84.2 73.6c-.2 0-.3-.1-.3-.3v-3.3c0-.2.1-.3.3-.3s.3.1.3.3v3.3C84.5 73.5 84.4 73.6 84.2 73.6z"/><path fill="#88ae45" d="M76.4,64.9l1.5,9.6H72l1.5-9.6c0.4-0.8,1.5-1.1,2.3-0.6C76,64.4,76.2,64.7,76.4,64.9z"/><path fill="#9abf4b" d="M73.6,63.6l-1.4-3h5.5l-1.4,3c-0.4,0.8-1.4,1-2.2,0.6C73.9,64,73.7,63.8,73.6,63.6z"/><path fill="#eaeae8" d="M70,57.8L68.3,59l3.6,5.4l3.3-4.1C75.2,60.3,70.2,59,70,57.8z"/><path fill="#eaeae8" d="M79.9,57.8l1.7,1.2L78,64.4l-3.3-4.1C74.7,60.3,79.6,59,79.9,57.8z"/><path fill="#edbc94" d="M83.6,44.9h-0.3c-0.7,0-0.9,0.2-0.8-0.2c0-0.7-0.1-3.7-0.1-3.9c0-3.1-3.3-5.6-7.3-5.7H75 c-4.1,0.1-7.3,2.7-7.3,5.7c0,0.2-0.1,3.1,0,3.9c0,0.4-0.2,0.2-0.8,0.2h-0.3c-0.7,0-1.3,0.5-1.5,1.1c0.2,1.2,0.6,2.4,1,3.6 c0.3,0.6,0.8,0.6,1.3,1c0.2,0.2,0.4,0.4,0.4,0.7c0.3,1.1,1,2.1,1.9,2.8c0.4,0.4,3.2,3.3,5.5,3.1s5.1-2.7,5.5-3.1 c0.9-0.8,1.5-1.7,1.9-2.8c0-0.3,0.2-0.5,0.4-0.7c0.5-0.4,1-0.4,1.3-1c0.4-1.2,0.8-2.4,1-3.6C84.9,45.3,84.3,44.9,83.6,44.9z"/><path fill="#512c2b" d="M75.1 50.4c.5 0 .9-.2 1.2-.5 0 0 0-.1 0-.1 0 0 0 0 0 0l0 0c0 0-.1 0-.1 0-.3.3-.7.5-1.1.4-.4 0-.8-.1-1.1-.4h-.1c0 0 0 0-.1 0 0 0 0 .1 0 .1C74.2 50.2 74.6 50.4 75.1 50.4zM73.6 43.2l.3-.6c-1.3-.3-2.7-.3-4 .1l.4.6C71.3 43 72.5 43 73.6 43.2zM80 43.2l.3-.6c-1.3-.3-2.7-.3-4 .1l.4.6C77.8 43 78.9 43 80 43.2zM71.7 44c-.3 0-.6.2-.7.5h.1c.3.1.5.3.4.6 0 .2-.2.4-.4.4-.1 0-.2 0-.2-.1.1.4.4.8.8.8.6-.1 1-.8.9-1.4C72.5 44.5 72.2 44.1 71.7 44zM78.4 44c-.3 0-.5.2-.7.4.1 0 .1 0 .2 0 .3.1.5.3.4.6 0 .2-.2.4-.4.4-.2 0-.3-.1-.4-.2-.1.5.3 1 .9 1.1.6-.1 1-.8.9-1.4C79.2 44.5 78.9 44.2 78.4 44L78.4 44zM78.8 51.7c0 0 0-.1 0-.1 0 0 0 0 0 0l0 0c0 0-.1 0-.1 0 0 0 0 0 0 0-2.2 1.3-5 1.3-7.2 0l0 0c0 0 0 0-.1 0 0 0 0 .1 0 .1 0 0 0 0 0 0C73.7 53.2 76.6 53.2 78.8 51.7L78.8 51.7z"/><path fill="#472b29" d="M75.8,74.9c-6.3,0-10.3-1.3-15.1-4.5c-0.1-0.1-0.2-0.2-0.2-0.3c0-2.2,0.1-4.4,0.4-6.7 c0.3-1.4,1.2-2.6,2.4-3.2c0.5-0.3,1.1-0.5,1.6-0.7l5-1.8c0.3-0.1,0.6-0.3,0.7-0.5c0-0.2,0.1-0.8,0.1-1.3c-0.5-0.3-1-0.7-1.5-1.1 c-0.9-0.8-1.6-1.9-2-3.1c0-0.3-0.1-0.4-0.3-0.6c-0.1-0.1-0.2-0.2-0.4-0.2c-0.3-0.2-0.7-0.4-1-0.9c-0.6-1.2-0.9-2.5-1-3.8 c0-0.1,0-0.1,0-0.2c0.3-0.8,1-1.4,1.9-1.4c0,0,0,0,0,0h0.3c0.2,0,0.3,0,0.4,0c0-0.8,0-2.4,0-3.5l0-0.3c0-3.4,3.4-6.1,7.7-6.3h0.2 c4.3,0.1,7.7,2.9,7.7,6.3c0,0.1,0,0.5,0,1c0,0.9,0,2.2,0,2.8c0.1,0,0.3,0,0.4,0h0.3c0.9,0,1.7,0.6,1.9,1.4c0,0,0,0.1,0,0.1 c-0.1,1.3-0.5,2.6-1,3.8c-0.2,0.5-0.6,0.7-1,0.9c-0.1,0.1-0.3,0.2-0.4,0.3c-0.1,0.1-0.2,0.3-0.2,0.5c-0.4,1.3-1.1,2.3-2,3.2 c-0.5,0.4-1,0.8-1.6,1.2c0,0.4,0,0.9,0.2,1.3c0.1,0.2,0.3,0.4,0.6,0.5c0.2,0.1,5.2,1.9,6.1,2.3l0.6,0.2c1.4,0.4,2.5,1.6,2.6,3.2 c0,0,0,0,0,0c0,0,0.3,4.9,0.4,7.8c0,0.2-0.1,0.3-0.2,0.4c-3.6,1.7-7.4,2.8-11.3,3.2C77.4,74.9,76.6,74.9,75.8,74.9z M61.3,69.8 c5.2,3.5,9.5,4.5,16.9,4.2c3.7-0.4,7.4-1.4,10.8-3c-0.1-2.9-0.4-7.4-0.4-7.5c-0.1-1.2-0.9-2.2-2-2.5l-0.7-0.3 c-0.8-0.4-5.9-2.3-6-2.3c-0.5-0.1-0.9-0.5-1.1-1c-0.2-0.6-0.2-1.2-0.2-1.8c0-0.1,0.1-0.2,0.2-0.3c0.6-0.4,1.1-0.8,1.6-1.3 c0.8-0.7,1.4-1.7,1.8-2.7c0-0.3,0.2-0.7,0.5-0.9c0.2-0.1,0.4-0.3,0.6-0.3c0.3-0.2,0.5-0.3,0.6-0.5c0.5-1.1,0.8-2.2,1-3.4 c-0.2-0.5-0.6-0.8-1.1-0.8h-0.3c-0.2,0-0.4,0-0.5,0c-0.2,0-0.4,0.1-0.6-0.1c-0.2-0.2-0.2-0.4-0.2-0.5c0-0.5,0-2,0-3 c0-0.5,0-0.9,0-1c0-2.9-3.1-5.3-7-5.5H75c-3.9,0.1-6.9,2.5-6.9,5.5l0,0.3c0,0.8-0.1,3,0,3.7c0,0.2,0,0.4-0.2,0.6 c-0.2,0.2-0.4,0.1-0.6,0.1c-0.1,0-0.3,0-0.5,0l-0.3,0c0,0,0,0,0,0c-0.5,0-0.9,0.3-1.1,0.7c0.1,1.2,0.4,2.4,1,3.4 c0.1,0.3,0.4,0.4,0.7,0.5c0.2,0.1,0.3,0.2,0.5,0.3c0.3,0.3,0.5,0.6,0.6,1c0.3,1,0.9,1.9,1.7,2.6c0.5,0.4,1,0.8,1.6,1.2 c0.1,0.1,0.2,0.2,0.2,0.3c0,0.6-0.1,1.4-0.1,1.7c-0.2,0.6-0.7,1-1.2,1.1l-4.9,1.8c-0.5,0.1-1,0.3-1.5,0.6c-1.1,0.5-1.8,1.5-2,2.7 C61.5,65.6,61.3,67.7,61.3,69.8z"/><path fill="#d3a47d" d="M83.8 48.2l-.6-.1.1-1.1-.6.2-.2-.6 1-.5c.1 0 .2 0 .3 0 .1.1.1.2.1.3L83.8 48.2zM66.6 47.9l-.2-1.6c0-.1 0-.2.1-.3.1-.1.2-.1.3 0l1 .5L67.6 47l-.6-.2.1 1.1L66.6 47.9z"/><path fill="#472b29" d="M67.6 51.1C67.6 51.1 67.6 51.1 67.6 51.1c-.1 0-.2-.1-.2-.2l.1-6.1c0-.1.1-.2.2-.2 0 0 0 0 0 0 .1 0 .2.1.2.2l-.1 6.1C67.8 51 67.7 51.1 67.6 51.1zM82.6 51.1c-.1 0-.2-.1-.2-.2l-.1-6.1c0-.1.1-.2.2-.2 0 0 0 0 0 0 .1 0 .2.1.2.2l.1 6.1C82.8 51 82.7 51.1 82.6 51.1 82.6 51.1 82.6 51.1 82.6 51.1zM79.6 54.8c-1.3.9-3.6 1.3-4.1.6-.3-.5-.8-.5-1.2 0-.5.8-3 0-4.3-1-.4 0 0 .1-.3.4 1.6 1.3 3.4 2.5 5.2 3.4l0 0c1.7-.9 3.3-1.9 4.8-3.1C79.6 54.9 80 54.8 79.6 54.8z"/><path fill="#472b29" d="M82.3,37c0.9,0.2,1.5,0.9,1.5,1.8c0,1.5-1.1,8.1-1.1,8.1l-2.2-6.7L82.3,37z"/><path fill="#472b29" d="M74.2,32.8l-0.8-1.1c0,0,9.1-1,9.1,4c0.1,3.7-2.4,7-6,7.9l0.5-1.8l-3.6,1.9l0.4-1.1l-3,1.1l1.1-2.4 l-2.7,1c-0.6,1.5-1.1,3.1-1.4,4.7c0,0-2.1-7-0.7-7.5l-0.5-0.3l0.6-1.2l-1-0.4l0.8-1.2l-0.4-0.5l1.8-1l-0.9-0.5 C67.6,34.3,70.6,31.9,74.2,32.8L74.2,32.8z"/><path fill="#8c9136" d="M74.1 44.4c-1.4-1.7-6.7-.5-6.7-.5.1.4.2.8.3 1.1.4 0 .4.9.5 1.2.2 1.5 1.2 2.7 3.4 2.6 1.5 0 2.8-1.2 2.8-2.7 0 0 0 0 0 0C74.5 45.6 74.4 45 74.1 44.4zM73.9 46.3c0 1.3-1 2.3-2.3 2.3 0 0 0 0-.1 0h-.4c-2.2 0-2.6-1.9-2.6-3.1 0-.7.5-1.3 1.2-1.3.4 0 .8 0 1.4 0 1.6 0 2.3.4 2.5.7C73.8 45.2 73.9 45.8 73.9 46.3zM75.7 46.2c0 1.5 1.3 2.7 2.8 2.7 0 0 0 0 0 0 2.2 0 3.2-1.1 3.4-2.6 0-.3.1-1.2.4-1.2.1-.4.2-.8.3-1.1 0 0-5.3-1.2-6.7.5C75.7 45 75.6 45.6 75.7 46.2zM76.5 44.8c.2-.3.9-.7 2.5-.7.5 0 1 0 1.4 0 .7.1 1.2.7 1.2 1.3 0 1.2-.4 3.1-2.6 3.1h-.4c-1.3 0-2.3-1-2.3-2.2 0 0 0 0 0 0C76.1 45.7 76.2 45.2 76.5 44.8z"/><path fill="#8c9136" d="M76,45.7c-0.3-0.2-0.6-0.3-1-0.3c-0.3,0-0.6,0.1-0.9,0.3l-0.3-0.8h2.5C76.2,45.2,76.1,45.5,76,45.7 z"/><path fill="#fdfcee" d="M58.5,31.3h-5.2c0-0.5,1.3-1.7,1.2-2.4c-0.1-0.4-0.4-0.7-0.7-0.7s-2.9,3.3-3.5,3.4h-2.5v5.5H55 c0.4,0,0.8-0.3,0.8-0.8c0-0.4-0.1-0.7-0.5-0.7h0.4c0.4,0,0.8-0.2,0.8-0.6c0-0.4-0.2-0.8-0.6-0.8c-0.1,0-0.1,0-0.2,0H56 c0.4,0,0.7-0.3,0.8-0.7c0-0.3-0.2-0.6-0.5-0.7h2.3c0.4,0,0.7-0.3,0.7-0.7V32C59.2,31.6,58.9,31.3,58.5,31.3 C58.5,31.3,58.5,31.3,58.5,31.3z"/><path fill="#472b29" d="M55,37.4h-7.3c-0.1,0-0.3-0.1-0.3-0.3v-5.5c0-0.1,0.1-0.3,0.3-0.3h2.5c0.2-0.1,1.3-1.2,1.9-1.9 c1-1.2,1.3-1.4,1.6-1.5c0.5,0,0.9,0.4,1,0.9c0.1,0.5-0.3,1.1-0.7,1.7c-0.1,0.2-0.2,0.3-0.3,0.5h4.9c0.5,0,1,0.4,1,0.9v0.1 c0,0.5-0.4,1-1,1h-1.6c0.1,0.1,0.1,0.3,0.1,0.5c0,0.3-0.1,0.5-0.3,0.7c-0.1,0-0.1,0.1-0.2,0.1c0.2,0.2,0.2,0.5,0.2,0.7 c0,0.4-0.3,0.7-0.7,0.8c0.1,0.1,0.1,0.3,0.1,0.5C56,37,55.6,37.4,55,37.4z M48,36.9h7c0.3,0,0.6-0.2,0.6-0.5 c0-0.4-0.2-0.4-0.3-0.4c-0.1,0-0.3-0.1-0.3-0.3s0.1-0.3,0.3-0.3h0.4c0.3,0,0.5-0.2,0.6-0.4c0-0.3-0.2-0.5-0.4-0.5h-0.2 c-0.1,0-0.2-0.1-0.3-0.2c0-0.1,0.1-0.2,0.2-0.3c0.1,0,0.1,0,0.2,0H56c0.1,0,0.3,0,0.4-0.1s0.2-0.2,0.2-0.3c0-0.2-0.1-0.4-0.3-0.5 c-0.1,0-0.2-0.2-0.2-0.3c0-0.1,0.1-0.2,0.2-0.2h2.3c0.3,0,0.5-0.2,0.5-0.5V32c0-0.2-0.2-0.4-0.5-0.4c0,0,0,0,0,0h-5.2 c-0.1,0-0.3-0.1-0.3-0.3c0-0.3,0.2-0.6,0.5-1c0.3-0.4,0.7-1,0.6-1.3c-0.1-0.3-0.3-0.5-0.4-0.5c-0.1,0.1-0.7,0.8-1.2,1.3 c-1.1,1.3-1.8,2-2.2,2.1l-2.3,0V36.9z"/><path fill="#6f913d" d="M47.8 31.8H50.3V37H47.8z"/><path fill="#472b29" d="M50.3 35.9c-.1 0-.1-.1-.1-.1v-4.1c0-.1.1-.1.1-.1s.1.1.1.1v4.1C50.4 35.9 50.4 35.9 50.3 35.9zM54.3 32.8h-3c-.1 0-.1-.1-.1-.1s.1-.1.1-.1h3c.1 0 .1.1.1.1S54.3 32.8 54.3 32.8zM54.3 34.4H52c-.1 0-.1-.1-.1-.1s.1-.1.1-.1h2.2c.1 0 .1.1.1.1S54.3 34.4 54.3 34.4zM54.3 35.8h-1.5c-.1 0-.1-.1-.1-.1s.1-.1.1-.1h1.5c.1 0 .1.1.1.1S54.3 35.8 54.3 35.8zM50.3 36.4c-.1 0-.1-.1-.1-.1V36c0-.1.1-.1.1-.1s.1.1.1.1v.3C50.4 36.4 50.4 36.4 50.3 36.4zM50.3 36.7c-.1 0-.1-.1-.1-.1v0c0-.1.1-.1.1-.1s.1.1.1.1v0C50.4 36.7 50.4 36.7 50.3 36.7zM51.8 34.4h-.3c-.1 0-.1-.1-.1-.1s.1-.1.1-.1h.3c.1 0 .1.1.1.1S51.9 34.4 51.8 34.4zM51.3 34.4L51.3 34.4c-.1 0-.2-.1-.2-.1s.1-.1.1-.1h.1c.1 0 .1.1.1.1S51.4 34.4 51.3 34.4z"/><path fill="#c0d078" d="M49 35.6A0.4 0.4 0 1 0 49 36.4A0.4 0.4 0 1 0 49 35.6Z"/><path fill="#472b29" d="M49,36.5c-0.3,0-0.5-0.2-0.5-0.5s0.2-0.5,0.5-0.5s0.5,0.2,0.5,0.5S49.3,36.5,49,36.5z M49,35.8 c-0.1,0-0.2,0.1-0.2,0.2s0.1,0.2,0.2,0.2s0.2-0.1,0.2-0.2S49.1,35.8,49,35.8z"/><path fill="#3a1e0b" d="M39.5,39.9c0.6,1.9-0.2,4.1,1,5.8c0.6,0.7,1.3,1.3,2,1.9c0.7,0.5,1.1,1.4,1.1,2.2 c-0.2,1.1-1.4,1.8-1.5,2.9c-0.3,1.7,1.9,2.8,2.7,4.3c1.1,2-0.7,4.6-3.2,5.2c-2.5,0.5-5.1-0.3-7-2.1c-1.6-1.7-2.7-3.7-3.3-6 c-1.3-4.6-2-10.1-0.5-14.8C32,35.1,38.3,36.2,39.5,39.9z"/><path fill="#3a1e0b" d="M19.5,60.4c-0.8-0.3-1.5-0.9-1.8-1.7c-0.3-1.1,0.6-2.3,1.4-3.1s1.9-1.8,1.8-3 c0-1.6-1.9-2.8-1.6-4.4c0.3-1.3,1.8-1.8,2.5-2.8c1-1.5,0.2-3.4,0.2-5.2c0.1-2.3,1.4-4.3,3.5-5.4c2-1,4.2-1.2,6.3-0.5 c1.8,0.6,3.7,2,3.5,4.1c-0.2,1.8-2,3.1-3.5,4.2s-3.1,2.7-2.8,4.5c0.3,1.3,1.5,2.1,1.8,3.4c0.2,1.5-0.8,2.8-2.3,3 c-0.2,0-0.4,0-0.6,0c1.5,0.7,2.2,2.5,1.7,4.1c-0.5,1.5-1.8,2.5-3.1,3.3l-2.5,1.7c-0.7,0.6-1.6,1-2.5,1.3 C21.6,61.8,21.3,61.2,19.5,60.4z"/><path fill="#d8ad8f" d="M38.1,44.1c0.1-1,0.4-2.1,0.4-2.6l-0.7-2.2c-0.7-1.1-1.6-2-2.6-2.8c-1.3-0.8-3-0.3-4.5-0.7 c-3.7-0.9-7.1,2.8-8.3,6.3c0,0,0,0,0,0.1c0.1,0.6,0.2,1.3,0.3,1.9c-1,0-1.5,0.5-1.2,1.6c0,0,0.4,1.7,0.6,2.5 c0.1,0.5,0.5,0.8,1,0.8c0,0.5,0,1.1,0,1.6c0,0.7,0.2,1.3,0.6,1.8c1,1.4,6,4.7,7.2,4.6c2,0,5.9-3.3,6.9-5c0.2-0.3,0.3-0.7,0.3-1.1 c0-0.6,0-1.3,0-1.9c0.4-0.1,0.7-0.4,0.8-0.8c0.3-0.8,0.6-2.5,0.7-2.5C39.9,44.6,39.1,44.1,38.1,44.1z"/><path fill="#b2876b" d="M41.1,60.7l-0.2-0.1l-0.4-0.2c-0.8-0.3-6-2.1-6-2.1c-0.4-0.1-0.6-0.4-0.8-0.7 c-0.2-0.6-0.2-1.3-0.2-1.9c-0.9,0.4-1.8,0.7-2.8,0.9c-1.2,0.1-3.4-1.5-3.4-1.5s-0.1,2-0.1,2.4c-0.1,0.4-0.4,0.7-0.8,0.7l-5,1.7 c-0.5,0.1-1,0.3-1.4,0.6c-1.1,0.7-1.8,1.8-2.1,3l0,0c0,0.1,0,0.3-0.1,0.4c-0.1,0.3-0.1,0.6-0.1,0.9c0,0.3-0.1,4.5-0.1,4.9 c1.8,2.2,8.1,3.9,14.9,3.9c3,0,8.9-2.8,11.1-4C43.3,63.6,43.9,61.6,41.1,60.7z"/><path fill="#472b29" d="M23.3 49.5c-.1 0-.2-.1-.2-.2l-.5-5.2c0-.1.1-.2.2-.2.1 0 .2.1.2.2l.5 5.2C23.5 49.4 23.4 49.5 23.3 49.5 23.3 49.5 23.3 49.5 23.3 49.5zM37.9 49.2C37.9 49.2 37.9 49.2 37.9 49.2c-.1 0-.2-.1-.2-.2l.3-5.3c0-.1.1-.2.2-.2.1 0 .2.1.2.2L38.1 49C38.1 49.1 38 49.2 37.9 49.2z"/><path fill="#88ae45" d="M24.8,58.9c-0.1,5.9,11.3,6.2,10.5-0.4l3.2,1.1L39.3,72c-1.8,0.4-12,3.4-18.4,0.1l0.5-12L24.8,58.9 z"/><path fill="#472b29" d="M31,56.9C31,56.9,31,56.9,31,56.9c-1.3-0.2-2.4-0.5-3.5-1.2c-0.1-0.1-0.2-0.2-0.1-0.3 c0.1-0.1,0.2-0.2,0.3-0.1c1,0.6,2.1,0.9,3.3,1.1c1-0.2,1.9-0.5,2.8-1c0.1-0.1,0.3,0,0.3,0.1c0.1,0.1,0,0.3-0.1,0.3 C33.1,56.3,32.1,56.7,31,56.9C31,56.9,31,56.9,31,56.9z"/><path fill="#fbcd59" d="M27.5 36.7A1 1 0 1 0 27.5 38.7A1 1 0 1 0 27.5 36.7Z"/><path fill="#472b29" d="M30.7,49.8c0.5,0,1.1-0.2,1.4-0.6c0,0,0-0.1,0-0.1l0,0 c0,0-0.1,0-0.1,0c0,0,0,0,0,0c-0.3,0.3-0.8,0.5-1.3,0.5c-0.5,0-0.9-0.2-1.3-0.5c0,0,0,0-0.1,0h-0.1c0,0,0,0.1,0,0.1 C29.7,49.6,30.2,49.8,30.7,49.8z" opacity=".41"/><path fill="#472b29" d="M29 41.8l.4-.7c-1.5-.3-3.1-.3-4.6.2l.4.7C26.5 41.6 27.8 41.5 29 41.8zM36.3 41.8l.3-.7c-1.5-.3-3.1-.3-4.5.2l.4.7C33.7 41.6 35 41.5 36.3 41.8zM26.8 43.3c-.4 0-.7.2-.8.6h.1c.3 0 .5.3.5.6 0 .3-.2.6-.5.6C26 45 26 45 25.9 45c.1.5.5.9 1 .9.7-.2 1.1-.9 1-1.6C27.7 43.8 27.4 43.4 26.8 43.3L26.8 43.3zM34.5 43.3c-.3 0-.6.2-.8.4.1 0 .1 0 .2 0 .3 0 .6.3.6.6 0 .3-.3.6-.6.6-.2 0-.3-.1-.4-.3.2.5.7.8 1.3.6.5-.2.8-.7.6-1.3C35.3 43.6 34.9 43.4 34.5 43.3L34.5 43.3z"/><path fill="#cd9480" d="M25.8 47.3A1.5 1.5 0 1 0 25.8 50.3 1.5 1.5 0 1 0 25.8 47.3zM35.6 47.3A1.5 1.5 0 1 0 35.6 50.3 1.5 1.5 0 1 0 35.6 47.3z"/><path fill="#f1bc19" d="M30.5 59.699999999999996A0.7 0.7 0 1 0 30.5 61.1A0.7 0.7 0 1 0 30.5 59.699999999999996Z"/><path fill="#f1bc19" d="M30.5 59.8c-1.7 0-3.4-.5-3.4-1.3 0-.1.1-.3.3-.3s.3.1.3.3c0 .3 1.2.8 2.9.8 1.8 0 2.9-.5 2.9-.8 0-.1.1-.3.3-.3s.3.1.3.3C33.9 59.4 32.2 59.8 30.5 59.8zM38.2 43c-.5-.2-.9-.2-1.4-.2-.7 0-1.5.1-2.2.2-1 .2-1.9.5-2.8.9-.3.2-.7.3-1.1.3-.4 0-.7-.1-1.1-.3-.9-.4-1.8-.7-2.8-.9-.7-.1-1.5-.1-2.2-.2-.5 0-1 0-1.4.2-.2.1-.3.2-.1.8.2.6.4 1.1.7 1.6.5.8 1.3 1.4 2.2 1.8.7.3 1.5.3 2.2 0 .7-.3 1.2-.8 1.6-1.5.2-.4.5-1 .8-1h.2H31c.3 0 .6.6.8 1 .4.6.9 1.1 1.6 1.5.7.3 1.5.3 2.2 0 .9-.4 1.6-1 2.1-1.8.3-.5.5-1 .7-1.6C38.5 43.2 38.4 43.1 38.2 43zM29.7 45.2c-.2.6-.6 1-1.1 1.4-.6.5-1.4.6-2.2.4-.7-.2-1.4-.6-1.9-1.2-.4-.6-.5-1.4-.2-2.1.2-.4 1-.5 1.4-.5.9 0 1.7.1 2.6.4 1.1.3 1.3.9 1.3.9C29.8 44.7 29.8 45 29.7 45.2L29.7 45.2zM36.9 45.8c-.5.6-1.2 1-1.9 1.2-.7.2-1.5.1-2.2-.4-.5-.4-.9-.8-1.1-1.4-.1-.3-.1-.5 0-.8 0 0 .2-.6 1.3-.9.8-.2 1.7-.4 2.5-.4.4 0 1.2.1 1.4.5C37.4 44.4 37.3 45.2 36.9 45.8L36.9 45.8z"/><path fill="#6d1b18" d="M28.5,52.2c0,0.1,0,0.2,0,0.3c0,0.9,1,1.7,2.3,1.7s2.2-0.7,2.2-1.7c0-0.1,0-0.2,0-0.3H28.5z"/><path fill="#ee3e54" d="M31.9,53.9c-0.3-0.3-0.8-0.4-1.2-0.4c-0.4,0-0.9,0.1-1.2,0.4c0.4,0.2,0.8,0.3,1.2,0.3 C31.1,54.2,31.5,54.1,31.9,53.9z"/><path fill="#fdfcef" d="M29.1,52.2L29.1,52.2v0.3c0,0.2,0.3,0.4,0.7,0.4h1.7c0.4,0,0.7-0.2,0.7-0.4v-0.3L29.1,52.2z"/><path fill="#472b29" d="M30.7,54.4c-1.4,0-2.5-0.8-2.5-1.9c0-0.1,0-0.2,0-0.3c0-0.1,0.1-0.2,0.2-0.2H33 c0.1,0,0.2,0.1,0.2,0.2c0,0.1,0,0.2,0,0.4C33.2,53.5,32.1,54.4,30.7,54.4z M28.7,52.4C28.7,52.4,28.7,52.5,28.7,52.4 c0,0.9,0.9,1.6,2.1,1.6c1.1,0,2-0.7,2-1.5c0,0,0-0.1,0-0.1H28.7z"/><path fill="#472b29" d="M30.2,74.3c-4.6,0-9-1.3-12.8-3.9c-0.1-0.1-0.2-0.2-0.2-0.4c0-0.1-0.6-8,2.7-9.7 c0.5-0.3,1-0.5,1.5-0.6l5-1.7c0.3-0.1,0.4-0.2,0.5-0.4c0-0.2,0.1-1.1,0.1-1.7c-1.4-0.8-2.6-1.8-3.7-3c-0.5-0.7-0.7-1.4-0.7-2.2 l0-1.2c-0.5-0.2-0.9-0.6-1-1.1c-0.3-0.8-0.6-2.5-0.6-2.5c-0.3-0.8-0.1-1.3,0.1-1.6c0.2-0.2,0.5-0.5,1-0.6c0,0,0-0.1,0-0.1 c-0.2-0.4-0.3-0.8-0.3-1.2c0-4.4,3.8-7.9,8.6-7.9c4.7,0,8.6,3.5,8.6,7.9c0,0.4-0.1,0.8-0.3,1.2v0.1c0.5,0.1,1,0.3,1.2,0.7 c0.3,0.4,0.4,0.9,0.2,1.5l0,0.2c-0.1,0.5-0.4,1.7-0.6,2.3c-0.1,0.4-0.4,0.8-0.8,1V51c0,0.5-0.1,0.9-0.4,1.3 c-1.2,1.6-2.6,2.9-4.1,4c0,0.5,0.1,0.9,0.2,1.3c0.1,0.2,0.2,0.3,0.4,0.4c0.2,0.1,5.2,1.8,6.1,2.1l0.6,0.2c2.6,0.8,2.7,4.1,2.8,8.6 l0,0.7c0,0.2-0.1,0.3-0.2,0.4C39.8,72.8,35.1,74.2,30.2,74.3C30.2,74.3,30.2,74.3,30.2,74.3z M18.2,69.7c3.6,2.4,7.7,3.6,12,3.6 c0,0,0,0,0,0c4.6,0,9-1.3,12.9-3.8l0-0.5c-0.1-4.3-0.2-7.1-2.1-7.7L40.3,61c-0.8-0.3-5.9-2.1-6-2.1c-0.5-0.1-0.9-0.5-1.1-1 c-0.2-0.7-0.3-1.3-0.2-2c0-0.2,0.1-0.3,0.2-0.4c1.6-1,3-2.3,4.1-3.8c0.1-0.2,0.2-0.5,0.2-0.8V49c0-0.2,0.2-0.5,0.4-0.5 c0.2,0,0.4-0.2,0.4-0.4c0.2-0.7,0.5-1.8,0.6-2.3c0.1-0.3,0.1-0.3,0.1-0.3c0.1-0.2,0-0.4-0.1-0.5c-0.2-0.2-0.5-0.3-0.9-0.3 c-0.1,0-0.3,0-0.4-0.1s-0.1-0.2-0.1-0.4v-0.7c0-0.1,0-0.2,0.1-0.2c0.1-0.3,0.2-0.6,0.2-0.9c0-3.8-3.4-6.8-7.6-6.8 c-4.2,0-7.6,3.1-7.6,6.9c0,0.3,0.1,0.6,0.3,0.8c0,0.1,0.1,0.2,0.1,0.2c0,0.1,0,0.3,0,0.4c0,0.1,0,0.2,0,0.3c0,0.3-0.2,0.5-0.5,0.5 c-0.3,0-0.6,0.1-0.7,0.2c-0.1,0.1-0.1,0.4,0,0.7c0,0.1,0.4,1.8,0.7,2.5c0.1,0.3,0.3,0.5,0.5,0.4c0.1,0,0.3,0,0.4,0.1 c0.1,0.1,0.2,0.2,0.2,0.4v1.6c0,0.6,0.1,1.1,0.5,1.5c1,1.1,2.3,2.1,3.7,2.9c0.2,0.1,0.3,0.3,0.3,0.4c0,0.5-0.1,1.8-0.2,2.2 c-0.2,0.6-0.6,1-1.2,1.1l-4.9,1.7c-0.5,0.1-0.9,0.3-1.3,0.6C18.1,62.3,18,67.8,18.2,69.7z"/><path fill="#88ae45" d="M23.2 48.8c0 .3-.2.5-.5.5-.3 0-.5-.2-.5-.6 0-.3.2-.5.5-.5C23 48.3 23.2 48.5 23.2 48.8zM38.5 48.5A.5.5 0 1 0 38.5 49.5.5.5 0 1 0 38.5 48.5z"/><path fill="#512c2b" d="M27.8 59.4c-.1-1-.7-1.9-1.6-2.4-1.5-.6-1.8-2.1-1.9-3.4 0 0-.7-.6-.8-.7-.4.7-.8 1.4-1.2 2-.5.8-.7 1.7-.5 2.6.4 1.2 1.7 1.8 2.1 3 .2.9.2 1.9-.2 2.7-.4.9-.6 1.8-.6 2.7 0 .9.6 1.9 1.5 1.9-.4-1-.2-2.2.5-3.1.6-.9 1.4-1.5 2-2.4C27.7 61.6 28 60.4 27.8 59.4zM32.9 38.4c-.2-1-1.5-1.1-2.2-.5-.6.7-1.1 1.6-1.4 2.5-.7 1.6-1.9 2.9-3.5 3.7-1.1.5-2.3.8-3.4 1.3-1.2.5-2 1.6-2.2 2.9-.1 1.3 1.2 2.7 2.2 2.1-2 .7-4.2-.2-5.1-2.1-.8-2-.6-4.7 1.1-5.8.8-.4 1.5-.8 2.2-1.4.8-.9.9-2.2 1.2-3.4.9-3.4 5-5.9 8.2-5.5 1.5.1 2.8 1 3.5 2.2C34.4 35.8 34.1 37.5 32.9 38.4z"/><path fill="#512c2b" d="M42,42.7c0.2-0.3,0,2.2-0.7,2.7c-0.7,0.6-1.8,0.7-2.6,0.2c-1-0.6-1.5-2.2-1.6-3.3 c-0.1-1.1-0.6-2.1-1.4-2.9c-0.8-0.7-1.8-1.3-2.7-0.9c-0.1-1.5,0.9-2.8,2.3-3.1c1.3-0.2,2.5,0.4,3.2,1.5c0.7,1.1,1.1,2.3,1.1,3.5 c0,0.5,0.1,1,0.2,1.5c0.2,0.5,0.2,1.4,0.7,1.7C41.4,44.1,41.7,43,42,42.7z"/></svg>