<svg xmlns="http://www.w3.org/2000/svg" viewBox="0 0 24 24"><path d="M 6.59375 3 C 5.8634513 3 5.1872738 3.4021435 4.8378906 4.0410156 L 1.0351562 11 L 3 11 L 3 19 C 3 20.093063 3.9069372 21 5 21 L 19 21 C 20.093063 21 21 20.093063 21 19 L 21 11 L 23.039062 11 L 19.160156 4.0273438 L 19.158203 4.0273438 C 18.806171 3.3967847 18.136909 3 17.412109 3 L 6.59375 3 z M 6.59375 5 L 17.412109 5 L 17.412109 5.0019531 L 19.638672 9 L 16.236328 9 L 12 6.8828125 L 7.7636719 9 L 4.40625 9 L 6.59375 5 z M 12 9.1171875 L 15 10.617188 L 15 19 L 13 19 L 13 16 C 13 15.448 12.552 15 12 15 C 11.448 15 11 15.448 11 16 L 11 19 L 9 19 L 9 10.617188 L 12 9.1171875 z M 5 11 L 7 11 L 7 19 L 5 19 L 5 11 z M 12 11 A 1 1 0 0 0 11 12 A 1 1 0 0 0 12 13 A 1 1 0 0 0 13 12 A 1 1 0 0 0 12 11 z M 17 11 L 19 11 L 19 19 L 17 19 L 17 11 z"/></svg>