<svg xmlns="http://www.w3.org/2000/svg" viewBox="0 0 40 40"><path fill="#dff0fe" d="M9,38.5c-1.378,0-2.5-1.122-2.5-2.5V4c0-1.378,1.122-2.5,2.5-2.5h22c1.378,0,2.5,1.122,2.5,2.5v32 c0,1.378-1.122,2.5-2.5,2.5H9z"/><path fill="#4788c7" d="M31,2c1.103,0,2,0.897,2,2v32c0,1.103-0.897,2-2,2H9c-1.103,0-2-0.897-2-2V4c0-1.103,0.897-2,2-2 H31 M31,1H9C7.343,1,6,2.343,6,4v32c0,1.657,1.343,3,3,3h22c1.657,0,3-1.343,3-3V4C34,2.343,32.657,1,31,1L31,1z"/><path fill="none" stroke="#4788c7" stroke-miterlimit="10" d="M27.598 8.166L12.354 31.715"/><path fill="#4788c7" d="M28.548 11L29 6.193 24.585 8.316zM11.452 29L11 33.807 15.415 31.684z"/></svg>