<svg xmlns="http://www.w3.org/2000/svg" viewBox="0 0 26 26"><path d="M 18.5 0 C 17.121094 0 16 1.121094 16 2.5 C 16 3.878906 17.121094 5 18.5 5 C 19.878906 5 21 3.878906 21 2.5 C 21 1.121094 19.878906 0 18.5 0 Z M 14.375 4.4375 C 14.335938 4.441406 14.289063 4.460938 14.25 4.46875 C 14.222656 4.472656 14.183594 4.460938 14.15625 4.46875 C 14.070313 4.46875 13.988281 4.480469 13.90625 4.5 C 13.78125 4.53125 13.667969 4.582031 13.5625 4.65625 L 9.15625 7.46875 C 8.96875 7.585938 8.828125 7.761719 8.75 7.96875 L 7.0625 12.65625 C 6.914063 12.996094 6.96875 13.390625 7.203125 13.679688 C 7.433594 13.96875 7.804688 14.105469 8.171875 14.035156 C 8.535156 13.964844 8.828125 13.699219 8.9375 13.34375 L 10.5 9 L 14.09375 6.6875 C 14.066406 6.726563 14.042969 6.769531 14 6.8125 L 10.90625 9.3125 L 9.40625 13.59375 C 9.207031 14.195313 8.695313 14.492188 8.09375 14.59375 L 8.90625 24.6875 C 9.007813 25.386719 9.601563 26 10.5 26 C 11.398438 26 12 25.300781 12 24.5 L 12 14.3125 L 17 8.1875 C 17.699219 7.386719 17.492188 6.105469 16.59375 5.40625 L 15.8125 4.8125 C 15.414063 4.511719 14.886719 4.375 14.375 4.4375 Z"/></svg>