<svg xmlns="http://www.w3.org/2000/svg" viewBox="0 0 48 48"><path fill="#fcbf95" d="M32.205,24.33l-1.96,0.427c-0.231,0.578,0.001,1.322,0.509,1.636 c0.508,0.315,1.226,0.159,1.579-0.344C32.687,25.547,32.629,24.766,32.205,24.33z"/><path fill="#73a1b2" d="M21.565,23.448c0,0-4.678-0.29-6.471,0.288s-3.813,0.952-3.61,0.17s1.99-5.479,2.839-6.884 s4.499-6.643,6.442-8.414s3.447-2.969,4.811-2.971c1.364-0.002,2.317,0.468,2.929,1.468s1.04,3.67,1.04,3.67l1.537,6.629 l1.482,6.501l-2.487,0.922l-1.507-3.706l-2.032-6.244l-2.865,3.216c0,0-1.295,1.068-1.605,2.609S21.565,23.448,21.565,23.448z"/><path fill="#1e4384" d="M21.08,23.448l2.515,6.442c0,0,1.047,3.407,0.656,5.219c-0.391,1.813-0.029,8.024-0.029,8.024 l-3.208,0.21l-1.978-8.779c0,0-0.903,2.88-1.212,4.141c-0.337,1.375,0.4,4.933-1.157,5.2c-1.557,0.266-2.783,0.67-2.824-0.938 c-0.041-1.608,0.673-12.872,0.673-12.872L13.852,24L21.08,23.448z"/><path fill="#513620" d="M17.376,43.529l-3.108,0.541v1.8c0,0-0.212,0.802,0.895,0.881s5.601-0.187,5.601-0.187l0.176-1.848 C20.941,44.717,18.082,44.694,17.376,43.529z"/><path fill="#513620" d="M28.427,45.916c-0.129-0.256-0.342-0.468-0.598-0.596c-0.223-0.112-0.596,0.028-0.84-0.026 c-0.841-0.184-1.662-0.46-2.443-0.823c-0.374-0.174-0.796-0.464-0.757-0.875l-2.774-0.149c0.02,0.808,0.041,1.849,0.061,2.657 c0.003,0.126,0.013,0.267,0.108,0.351c0.064,0.056,0.153,0.073,0.237,0.085c2,0.293,4.174-0.088,6.158-0.073 c0.34,0.003,0.791,0.166,0.907-0.154C28.532,46.185,28.489,46.04,28.427,45.916z"/><path fill="#fcbf95" d="M34.438,4.633c-0.098-0.954-0.602-2.003-1.375-2.571s-1.847-0.736-2.724-0.35 c-0.543,0.239-0.983,0.663-1.361,1.119c-0.769,0.927-1.44,2.38-1.16,3.552l1.506,2.977c0.716,0.049,1.991,0.23,2.697,0.098 c0.706-0.132,1.2-0.311,1.62-0.893c0.357-0.494,0.483-1.113,0.598-1.712C34.379,6.121,34.514,5.375,34.438,4.633z"/><path fill="#010101" d="M36.328,45.854c-0.031-0.025-0.066-0.047-0.103-0.064c-1.034-3.569-1.619-7.306-2.185-10.921 l-1.314-8.391c-0.005-0.032-0.021-0.058-0.032-0.087c0.015-0.02,0.035-0.034,0.05-0.055c0.391-0.556,0.401-1.334,0.096-1.936 c0.138-0.107,0.214-0.281,0.189-0.462c-0.392-2.827-0.975-4.916-1.538-6.936c-0.493-1.767-1.002-3.595-1.393-5.939 c-0.037-0.225-0.07-0.455-0.104-0.688c-0.022-0.15-0.047-0.307-0.071-0.461c0.46,0.044,0.981,0.091,1.455,0.091 c0.269,0,0.521-0.016,0.736-0.056c0.818-0.152,1.427-0.389,1.934-1.092c0.434-0.602,0.573-1.327,0.684-1.91 c0.129-0.68,0.291-1.526,0.205-2.365c-0.119-1.159-0.738-2.307-1.577-2.923c-0.943-0.692-2.207-0.85-3.221-0.404 c-0.539,0.237-1.03,0.637-1.544,1.258c-0.59,0.712-1.185,1.789-1.314,2.876c-1.439-0.658-3.171,0.068-3.88,0.435 C22.188,6.45,21.204,7.41,20.4,8.267c-3.348,3.569-7.953,9.079-9.287,15.684c-0.023,0.115-0.005,0.234,0.051,0.338 c0.366,0.672,1.336,0.685,2.215,0.521c0.648,3.699,0.417,7.523,0.191,11.224c-0.148,2.426-0.301,4.935-0.212,7.419 c0.006,0.198,0.018,0.529,0.252,0.802c0.037,0.043,0.08,0.073,0.121,0.106c0.117,0.447,0.156,1.258,0.099,1.697 c-0.019,0.147-0.048,0.37,0.063,0.601c0.18,0.376,0.581,0.47,0.732,0.506c0.437,0.102,1.066,0.152,1.884,0.152 c1.15,0,2.673-0.101,4.556-0.302c0.026-0.003,0.047-0.016,0.071-0.022c0.085,0.027,0.162,0.039,0.21,0.046 c0.586,0.085,1.183,0.116,1.782,0.116c0.748,0,1.499-0.048,2.236-0.095c0.727-0.046,1.417-0.089,2.089-0.089 c0.107,0.001,0.217,0.004,0.333,0.019c0.282,0.035,0.944,0.11,1.167-0.503c0.087-0.243,0.06-0.51-0.083-0.793 c-0.177-0.352-0.468-0.643-0.821-0.818c-0.256-0.129-0.529-0.102-0.747-0.079c-0.07,0.008-0.176,0.018-0.209,0.013 c-0.804-0.176-1.591-0.44-2.339-0.787c-0.219-0.102-0.34-0.197-0.405-0.27c0.103-0.022,0.201-0.063,0.273-0.144 c0.105-0.119,0.148-0.281,0.116-0.437c-0.163-0.767-0.332-2.715-0.269-3.449c0.075-0.868,0.079-1.485,0.083-2.083 c0.004-0.604,0.008-1.176,0.079-2.005c0.114-1.32,0.244-2.816-0.141-4.231c-0.094-0.347-0.139-0.559-0.178-0.745 c-0.062-0.293-0.112-0.529-0.291-1.063c-0.472-1.407-0.775-2.269-1.077-3.13c-0.271-0.77-0.548-1.561-0.939-2.722 c0.008-0.024,0.019-0.046,0.024-0.071c0.056-0.289,0.112-0.648,0.172-1.038c0.142-0.915,0.318-2.054,0.571-2.673 c0.246-0.603,0.902-1.196,1.337-1.589c0.169-0.153,0.31-0.281,0.396-0.378l1.85-2.05c0.135,0.419,0.267,0.832,0.397,1.242 c0.74,2.316,1.439,4.505,2.429,7.119c0.069,0.183,0.203,0.515,0.49,0.728c-0.007,0.064-0.015,0.127-0.016,0.192 c-0.438,0.139-0.826,0.441-1.078,0.868c-0.29,0.491-0.363,1.061-0.2,1.563c0.068,0.21,0.263,0.346,0.475,0.346 c0.038,0,0.077-0.004,0.115-0.014c0.253-0.06,0.418-0.304,0.379-0.562c-0.051-0.34,0.137-0.722,0.438-0.89 c0.112-0.063,0.207-0.068,0.235-0.057c0.037,0.018,0.076,0.021,0.114,0.03c0.104,0.118,0.219,0.226,0.353,0.308 c0.261,0.162,0.556,0.239,0.852,0.239c0.152,0,0.303-0.026,0.45-0.066l1.258,8.032c0.585,3.735,1.19,7.598,2.29,11.307 c0.14,0.482,0.502,0.533,0.61,0.537c0.006,0,0.013,0,0.019,0c0.229,0,0.435-0.143,0.518-0.36 C36.564,46.307,36.493,45.991,36.328,45.854z M29.362,3.151c0.412-0.497,0.786-0.809,1.178-0.98 c0.683-0.301,1.578-0.182,2.227,0.295c0.612,0.449,1.083,1.341,1.173,2.218c0.071,0.694-0.068,1.429-0.192,2.076 c-0.118,0.618-0.23,1.122-0.513,1.513c-0.318,0.442-0.675,0.576-1.306,0.694c-0.472,0.087-1.342,0.006-1.977-0.054 c-0.083-0.008-0.147-0.012-0.225-0.02c-0.15-0.642-0.365-1.272-0.745-1.812l-0.061-0.087c-0.185-0.264-0.394-0.559-0.632-0.833 C28.119,5.194,28.711,3.937,29.362,3.151z M20.515,43.528l0.022,0.939c-0.581,0.026-1.947-0.505-2.609-0.942 c0.117-0.342,0.102-0.712,0.076-1.015l-0.011-0.137c-0.159-2.105,0.408-4.795,1.109-6.852c0.625,2.326,1.014,4.749,1.115,7.122 c0.009,0.217,0.024,0.545,0.234,0.824C20.47,43.493,20.495,43.506,20.515,43.528z M18.629,33.931 c-0.961,2.276-1.839,5.794-1.634,8.52l0.012,0.146c0.031,0.361,0.043,0.605-0.069,0.693c-0.085,0.066-0.153,0.091-0.352,0.122 c-0.148,0.023-0.543,0.046-0.936,0.069c-0.428,0.025-0.853,0.053-1.016,0.079c-0.175,0.028-0.252,0.023-0.261,0.039 c-0.011-0.047-0.015-0.143-0.016-0.183c-0.087-2.438,0.065-4.922,0.211-7.324c0.216-3.525,0.428-7.161-0.096-10.747 c1.065,1.754,2.019,3.391,2.901,5.319c0.476,1.041,0.892,2.138,1.257,3.264C18.63,33.929,18.63,33.93,18.629,33.931z M14.854,46.188c-0.011-0.002-0.021-0.005-0.03-0.007c0-0.008,0.001-0.013,0.001-0.013c0.054-0.412,0.039-1.068-0.039-1.619 c0.002,0,0.005-0.001,0.007-0.001c0.146-0.023,0.531-0.045,0.918-0.068c0.435-0.026,0.872-0.055,1.033-0.08 c0.159-0.025,0.325-0.062,0.497-0.138c0.769,0.553,2.34,1.212,3.292,1.212c0.01,0,0.017-0.002,0.027-0.002l0.013,0.586 C16.792,46.442,15.367,46.307,14.854,46.188z M26.883,45.783c0.183,0.039,0.363,0.021,0.521,0.006 c0.076-0.008,0.19-0.019,0.202-0.021c0.107,0.054,0.203,0.131,0.289,0.226c-0.106-0.013-0.213-0.023-0.312-0.024 c-0.745,0.007-1.525,0.043-2.28,0.091c-1.254,0.08-2.549,0.162-3.728,0.027l-0.049-2.15c0.089,0.007,0.181,0.012,0.276,0.012 c0.363,0,0.767-0.049,1.161-0.097c0.114-0.014,0.225-0.024,0.339-0.037c0.053,0.328,0.283,0.762,1.034,1.111 C25.149,45.304,26.006,45.593,26.883,45.783z M23.076,29.912c0.16,0.478,0.205,0.689,0.261,0.952 c0.043,0.2,0.091,0.427,0.192,0.799c0.337,1.244,0.222,2.586,0.109,3.884c-0.075,0.868-0.079,1.486-0.083,2.084 c-0.004,0.604-0.008,1.176-0.079,2.004c-0.059,0.683,0.046,2.151,0.185,3.14c-0.267,0.018-0.545,0.052-0.819,0.085 c-0.453,0.055-0.922,0.114-1.246,0.08c-0.26-0.024-0.329-0.058-0.345-0.072c-0.024-0.038-0.031-0.192-0.034-0.267 c-0.18-4.224-1.221-8.61-2.933-12.352c-0.992-2.169-2.061-3.959-3.272-5.944c1.432-0.557,2.996-0.452,4.648-0.33 c0.466,0.034,0.932,0.056,1.397,0.075c0.396,1.173,0.675,1.969,0.947,2.744C22.305,27.653,22.606,28.511,23.076,29.912z M27.708,16.881c-0.551-1.726-1.122-3.51-1.831-5.517c-0.072-0.205-0.265-0.333-0.471-0.333c-0.055,0-0.111,0.009-0.167,0.028 c-0.261,0.093-0.397,0.378-0.305,0.639c0.41,1.16,0.774,2.248,1.115,3.294c-0.122,0.011-0.24,0.065-0.328,0.163l-1.956,2.168 c-0.07,0.078-0.187,0.181-0.325,0.306c-0.502,0.454-1.26,1.14-1.592,1.953c-0.297,0.728-0.476,1.88-0.634,2.897 c-0.032,0.205-0.063,0.402-0.092,0.585c-0.463-0.019-0.928-0.053-1.392-0.086c-1.776-0.131-3.616-0.265-5.332,0.488 c-0.811,0.356-1.878,0.506-2.248,0.401c1.356-6.232,5.761-11.488,8.977-14.918c0.745-0.794,1.651-1.681,2.729-2.238 c0.471-0.245,2.092-0.993,3.174-0.346c0.395,0.237,0.77,0.772,1.071,1.202l0.062,0.089c0.537,0.763,0.69,1.828,0.838,2.859 c0.035,0.241,0.069,0.479,0.107,0.711c0.399,2.398,0.916,4.252,1.416,6.044c0.551,1.976,1.073,3.846,1.452,6.394l-1.508,0.507 c-0.05,0.017-0.181,0.061-0.205,0.063c-0.02-0.016-0.064-0.072-0.146-0.285C29.14,21.361,28.445,19.185,27.708,16.881z M31.018,25.967c-0.244-0.151-0.377-0.498-0.348-0.813c0.04-0.012,0.086-0.024,0.118-0.035l1.103-0.37 c0.206,0.275,0.232,0.731,0.034,1.013C31.725,26.045,31.302,26.144,31.018,25.967z"/></svg>