<svg xmlns="http://www.w3.org/2000/svg" viewBox="0 0 64 64"><linearGradient id="2OO9OMFikC9sFhgGaRhX_a" x1="-1489.943" x2="-1489.318" y1="760.519" y2="760.519" gradientTransform="matrix(22.2899 0 0 -22.2899 33255.332 16958.39)" gradientUnits="userSpaceOnUse"><stop offset="0" stop-color="#b8efff"/><stop offset="1" stop-color="#e5faff"/></linearGradient><path fill="url(#2OO9OMFikC9sFhgGaRhX_a)" d="M54.5,4L54.5,4C53.119,4,52,5.119,52,6.5S53.119,9,54.5,9l0,0C55.881,9,57,7.881,57,6.5	S55.881,4,54.5,4"/><linearGradient id="2OO9OMFikC9sFhgGaRhX_b" x1="-1600.025" x2="-1598.883" y1="929.443" y2="929.443" gradientTransform="matrix(-33.265 0 0 33.265 -53187.836 -30897.92)" gradientUnits="userSpaceOnUse"><stop offset="0" stop-color="#b8efff"/><stop offset="1" stop-color="#e5faff"/></linearGradient><path fill="url(#2OO9OMFikC9sFhgGaRhX_b)" d="M5,16c-2.209,0-4,1.791-4,4s1.791,4,4,4s4-1.791,4-4S7.209,16,5,16"/><radialGradient id="2OO9OMFikC9sFhgGaRhX_c" cx="33" cy="33.5" r="29.26" gradientTransform="matrix(1 0 0 -1 0 66)" gradientUnits="userSpaceOnUse"><stop offset="0" stop-color="#b8efff"/><stop offset=".642" stop-color="#d4f6ff"/><stop offset="1" stop-color="#e5faff"/></radialGradient><path fill="url(#2OO9OMFikC9sFhgGaRhX_c)" d="M61.98,56.61C62.21,58.99,60.34,61,58,61H21c-1.95,0-3.53-1.6-3.5-3.55	C17.53,55.53,15.91,54,14,54h-4c-2.92,0-5.26-2.51-4.98-5.49c0.25-2.6,2.59-4.51,5.2-4.51h7.77C19.1,44,20,43.1,20,41.99v-0.05	c0-1.07-0.87-1.94-1.94-1.94H8c-1.38,0-2.63-0.56-3.54-1.46C3.56,37.63,3,36.38,3,35c0-2.76,2.24-5,5-5h13	c0.83,0,1.58-0.34,2.12-0.88C23.66,28.58,24,27.83,24,27c0-1.66-1.34-3-3-3h-6c-2.34,0-4.21-2-3.98-4.39	c0.2-2.08,2.06-3.61,4.15-3.61h0.5c0.69,0,1.32-0.28,1.77-0.73c0.42-0.42,0.69-0.99,0.73-1.62c0.08-1.45-1.2-2.65-2.66-2.65H6.5	C4.58,11,3,9.43,3,7.5c0-0.24,0.02-0.49,0.08-0.74C3.42,5.12,4.94,4,6.61,4H47.5c1.47,0,2.64,1.26,2.49,2.76	C49.86,8.06,48.67,9,47.36,9H39c-1.11,0-2.01,0.9-2.01,2.01v0.05c0,1.07,0.87,1.94,1.94,1.94H57.5c1.47,0,2.64,1.26,2.49,2.76	c-0.13,1.3-1.33,2.24-2.63,2.24H51.5c-0.69,0-1.32,0.28-1.77,0.73c-0.42,0.42-0.69,0.99-0.73,1.62C48.92,21.8,50.2,23,51.66,23h6.28	c2.73,0,4.82,1.73,5.04,4.07C63.23,29.75,61.13,32,58.5,32H49c-0.83,0-1.58,0.34-2.12,0.88c-0.61,0.6-0.96,1.48-0.86,2.43	c0.15,1.55,1.57,2.63,3.13,2.69c0.09,0,0.18,0.01,0.28,0.02C49.53,38,49.63,38,49.74,38h5.52c2.06,0,3.74,1.68,3.74,3.74v0.52	c0,2.06-1.68,3.74-3.74,3.74H51.5c-0.96,0-1.84,0.39-2.47,1.03c-0.61,0.6-0.99,1.43-1.03,2.34c-0.07,2,1.7,3.63,3.7,3.63h5.6	C59.92,53,61.78,54.53,61.98,56.61z"/><linearGradient id="2OO9OMFikC9sFhgGaRhX_d" x1="-729.185" x2="-728.185" y1="1667.249" y2="1667.249" gradientTransform="scale(83.865 -83.865) rotate(90 469.825 1197.776)" gradientUnits="userSpaceOnUse"><stop offset="0" stop-color="#ffa285"/><stop offset=".847" stop-color="#ffb988"/><stop offset="1" stop-color="#ffbd89"/><stop offset="1" stop-color="#ffbd89"/></linearGradient><path fill="url(#2OO9OMFikC9sFhgGaRhX_d)" d="M22,7c-1.657,0-3,1.343-3,3v30l-5.823-5.823c-0.737-0.737-1.733-1.132-2.717-1.132	c-0.823,0-1.639,0.276-2.287,0.86C7.391,34.61,7,35.573,7,36.536c0,0.905,0.345,1.81,1.035,2.5l13.787,13.787	C25.138,56.138,29.634,58,34.322,58C44.085,58,52,50.085,52,40.322V29c0-1.657-1.343-3-3-3s-3,1.343-3,3v2.5l0,0	c0,0.828-0.672,1.5-1.5,1.5S43,32.328,43,31.5V26c0-1.657-1.343-3-3-3s-3,1.343-3,3v4.5l0,0c0,0.828-0.672,1.5-1.5,1.5	S34,31.328,34,30.5V23c0-1.657-1.343-3-3-3c-1.657,0-3,1.343-3,3v4.5V28c0,0.828-0.672,1-1.5,1S25,28.328,25,27.5V10	C25,8.343,23.657,7,22,7"/><linearGradient id="2OO9OMFikC9sFhgGaRhX_e" x1="33" x2="33" y1="3216.033" y2="3284.267" gradientTransform="translate(0 -3218)" gradientUnits="userSpaceOnUse"><stop offset="0" stop-color="#a4a4a4"/><stop offset=".63" stop-color="#7f7f7f"/><stop offset="1" stop-color="#6f6f6f"/><stop offset="1" stop-color="#6f6f6f"/></linearGradient><path fill="url(#2OO9OMFikC9sFhgGaRhX_e)" d="M52.022,55.972L9.028,12.978c-1.361-1.361-1.361-3.589,0-4.95l0,0	c1.361-1.361,3.589-1.361,4.95,0l42.994,42.994c1.361,1.361,1.361,3.589,0,4.95l0,0C55.611,57.333,53.383,57.333,52.022,55.972z"/></svg>