<svg xmlns="http://www.w3.org/2000/svg" viewBox="0 0 24 24"><path d="M 7.09375 0 L 7.09375 5.90625 C 7.09375 6.207031 6.800781 6.5 6.5 6.5 C 6.199219 6.5 5.90625 6.207031 5.90625 5.90625 L 5.90625 0.09375 C 4.90625 0.195313 4.40625 0.3125 4.40625 0.3125 C 4.40625 0.3125 4 4.894531 4 7.59375 C 4 10.59375 7 10.613281 7 11.8125 C 7 12.8125 6 19 6 22 C 6 23.101563 6.898438 24 8 24 C 9.101563 24 10 23.101563 10 22 C 10 19 9 12.789063 9 11.6875 C 9 10.585938 12 10.59375 12 7.59375 C 12 5.894531 11.6875 0.3125 11.6875 0.3125 C 11.6875 0.3125 11.195313 0.195313 10.09375 0.09375 L 10.09375 6 C 10.09375 6.300781 9.800781 6.59375 9.5 6.59375 C 9.101563 6.59375 8.90625 6.300781 8.90625 6 L 8.90625 0 Z M 19 0 C 17 0 14 6 14 11.5 C 14 11.5 16.5 13.300781 16.5 15 C 16.5 18.101563 15 19.800781 15 22 C 15 23.101563 15.898438 24 17 24 C 18.101563 24 19 23.101563 19 22 Z"/></svg>