<svg xmlns="http://www.w3.org/2000/svg" viewBox="0 0 30 30"><path d="M 15 2 C 8.9365932 2 4 6.9365932 4 13 C 4 14.203683 4.7299067 15.244809 5.7636719 15.720703 C 5.1332437 17.208776 4 20.494602 4 25 A 1.0001 1.0001 0 1 0 6 25 C 6 21.404509 6.7469976 18.717621 7.3105469 17.201172 C 7.1362869 18.092729 7 19.173854 7 20.435547 C 7 24.186603 8.0507814 27.316406 8.0507812 27.316406 A 1.0005644 1.0005644 0 1 0 9.9492188 26.683594 C 9.9492188 26.683594 9 23.812491 9 20.435547 C 9 20.41342 9.0018704 20.395034 9.0019531 20.373047 C 9.2684633 20.978768 9.5778025 21.548629 9.9375 22.0625 C 11.109206 23.736424 12.810605 24.888181 14.748047 24.982422 A 1.0001 1.0001 0 0 0 15.244141 24.982422 C 17.184831 24.890934 18.889218 23.738675 20.0625 22.0625 C 20.422198 21.548629 20.731537 20.978768 20.998047 20.373047 C 20.99813 20.395034 21 20.41342 21 20.435547 C 21 23.812491 20.050781 26.683594 20.050781 26.683594 A 1.0005646 1.0005646 0 1 0 21.949219 27.316406 C 21.949219 27.316406 23 24.186603 23 20.435547 C 23 19.173854 22.863713 18.092729 22.689453 17.201172 C 23.253002 18.717621 24 21.404509 24 25 A 1.0001 1.0001 0 1 0 26 25 C 26 20.494602 24.866756 17.208776 24.236328 15.720703 C 25.270093 15.244809 26 14.203683 26 13 C 26 6.9365932 21.063407 2 15 2 z M 15 4 C 18.112573 4 20.849634 5.5675641 22.464844 7.9589844 C 20.483741 6.8874286 17.956325 6 15 6 C 11.717312 6 9.1665868 7.0886131 7.3300781 8.3007812 C 8.9101258 5.7218899 11.744363 4 15 4 z M 15 9 C 18.585227 9 21.57831 10.119802 23.853516 11.419922 C 23.944193 11.933877 24 12.459426 24 13 C 24 13.277298 23.892236 13.520612 23.71875 13.699219 C 21.601996 12.330755 18.618627 11 15 11 C 11.207165 11 8.3855794 12.450146 6.5234375 13.869141 C 6.2129612 13.702236 6 13.387255 6 13 C 6 12.558032 6.042427 12.127774 6.1035156 11.703125 C 8.2098829 10.282443 11.15797 9 15 9 z M 15 14 C 16.277778 14 17.676496 14.446105 19.033203 14.939453 C 19.365854 15.060417 19.684715 15.170622 20.009766 15.291016 A 1.0001 1.0001 0 0 0 20 15.429688 C 20 17.607019 19.372551 19.56065 18.423828 20.916016 C 17.725586 21.913539 16.888042 22.567769 15.988281 22.845703 A 1.0001 1.0001 0 0 0 14.984375 21.986328 A 1.0001 1.0001 0 0 0 14.009766 22.845703 C 13.110663 22.56746 12.273966 21.912899 11.576172 20.916016 C 10.627449 19.56065 10 17.607019 10 15.429688 A 1.0001 1.0001 0 0 0 9.9902344 15.289062 C 10.315081 15.168739 10.634358 15.06034 10.966797 14.939453 C 12.323504 14.446105 13.722222 14 15 14 z M 14.279297 18.996094 A 1.0001 1.0001 0 0 0 13.914062 19.050781 L 12.375 19.564453 A 1.0001 1.0001 0 1 0 13.007812 21.460938 L 14.546875 20.949219 A 1.0001 1.0001 0 0 0 15 20.650391 A 1.0001 1.0001 0 0 0 15.453125 20.949219 L 16.992188 21.460938 A 1.0001 1.0001 0 1 0 17.625 19.564453 L 16.085938 19.050781 A 1.0001 1.0001 0 0 0 15.791016 18.996094 A 1.0001 1.0001 0 0 0 15 19.339844 A 1.0001 1.0001 0 0 0 14.279297 18.996094 z"/></svg>