<svg xmlns="http://www.w3.org/2000/svg" viewBox="0 0 64 64"><path d="M 9 6 C 7.699219 6 6.597656 6.839844 6.183594 8 L 5 8 C 3.347656 8 2 9.347656 2 11 L 2 51 C 2 52.652344 3.347656 54 5 54 L 26.21875 54 C 26.808594 54 27.320313 54.398438 27.464844 54.96875 C 27.90625 56.753906 29.503906 58 31.34375 58 L 34.65625 58 C 36.496094 58 38.09375 56.753906 38.535156 54.96875 C 38.679688 54.398438 39.191406 54 39.78125 54 L 61 54 C 62.652344 54 64 52.652344 64 51 L 64 11 C 64 9.347656 62.652344 8 61 8 L 59.816406 8 C 59.402344 6.839844 58.300781 6 57 6 L 37 6 C 35.359375 6 33.910156 6.804688 33 8.03125 C 32.089844 6.804688 30.640625 6 29 6 Z M 9 8 L 29 8 C 30.652344 8 32 9.347656 32 11 L 32 12.832031 C 32 13.382813 32.445313 13.832031 33 13.832031 C 33.554688 13.832031 34 13.382813 34 12.832031 L 34 11 C 34 9.347656 35.347656 8 37 8 L 57 8 C 57.550781 8 58 8.449219 58 9 L 58 26 C 57.445313 26 57 26.449219 57 27 L 57 29 C 57 29.550781 57.445313 30 58 30 L 58 47 C 58 47.550781 57.550781 48 57 48 L 37 48 C 35.359375 48 33.910156 48.804688 33 50.03125 C 32.089844 48.804688 30.640625 48 29 48 L 9 48 C 8.449219 48 8 47.550781 8 47 L 8 30 C 8.554688 30 9 29.550781 9 29 L 9 27 C 9 26.449219 8.554688 26 8 26 L 8 9 C 8 8.449219 8.449219 8 9 8 Z M 5 10 L 6 10 L 6 47 C 6 48.652344 7.347656 50 9 50 L 29 50 C 30.652344 50 32 51.347656 32 53 C 32 53.550781 32.445313 54 33 54 C 33.554688 54 34 53.550781 34 53 C 34 51.347656 35.347656 50 37 50 L 57 50 C 58.652344 50 60 48.652344 60 47 L 60 10 L 61 10 C 61.550781 10 62 10.449219 62 11 L 62 51 C 62 51.550781 61.550781 52 61 52 L 39.78125 52 C 38.269531 52 36.964844 53.019531 36.597656 54.484375 C 36.375 55.375 35.578125 56 34.65625 56 L 31.34375 56 C 30.421875 56 29.625 55.378906 29.402344 54.484375 C 29.035156 53.019531 27.730469 52 26.21875 52 L 5 52 C 4.449219 52 4 51.550781 4 51 L 4 11 C 4 10.449219 4.449219 10 5 10 Z M 43.003906 15 C 42.929688 15 42.855469 15.007813 42.78125 15.023438 L 24.78125 19.023438 C 24.324219 19.125 24 19.53125 24 20 L 24 34 C 20.691406 34 18 36.242188 18 39 C 18 41.757813 20.691406 44 24 44 C 27.308594 44 30 41.757813 30 39 L 30 26.914063 L 38 25.136719 L 38 30 C 34.691406 30 32 32.242188 32 35 C 32 37.757813 34.691406 40 38 40 C 41.308594 40 44 37.757813 44 35 L 44 16 C 44 15.695313 43.863281 15.410156 43.625 15.21875 C 43.449219 15.078125 43.230469 15 43.003906 15 Z M 42 17.246094 L 42 35 C 42 36.652344 40.207031 38 38 38 C 35.792969 38 34 36.652344 34 35 C 34 33.347656 35.792969 32 38 32 C 38.277344 32 38.5625 32.023438 38.84375 32.066406 C 39.128906 32.113281 39.425781 32.03125 39.648438 31.84375 C 39.871094 31.652344 40 31.375 40 31.078125 L 40 23.890625 C 40 23.585938 39.863281 23.300781 39.625 23.109375 C 39.390625 22.917969 39.078125 22.84375 38.78125 22.910156 L 28.78125 25.136719 C 28.324219 25.238281 28 25.644531 28 26.109375 L 28 39 C 28 40.652344 26.207031 42 24 42 C 21.792969 42 20 40.652344 20 39 C 20 37.347656 21.792969 36 24 36 C 24.277344 36 24.5625 36.023438 24.84375 36.066406 C 25.128906 36.117188 25.425781 36.03125 25.648438 35.84375 C 25.871094 35.652344 26 35.375 26 35.078125 L 26 20.800781 Z M 13 26 C 12.445313 26 12 26.449219 12 27 L 12 29 C 12 29.550781 12.445313 30 13 30 C 13.554688 30 14 29.550781 14 29 L 14 27 C 14 26.449219 13.554688 26 13 26 Z M 18 26 C 17.445313 26 17 26.449219 17 27 L 17 29 C 17 29.550781 17.445313 30 18 30 C 18.554688 30 19 29.550781 19 29 L 19 27 C 19 26.449219 18.554688 26 18 26 Z M 48 26 C 47.445313 26 47 26.449219 47 27 L 47 29 C 47 29.550781 47.445313 30 48 30 C 48.554688 30 49 29.550781 49 29 L 49 27 C 49 26.449219 48.554688 26 48 26 Z M 53 26 C 52.445313 26 52 26.449219 52 27 L 52 29 C 52 29.550781 52.445313 30 53 30 C 53.554688 30 54 29.550781 54 29 L 54 27 C 54 26.449219 53.554688 26 53 26 Z"/></svg>