<svg xmlns="http://www.w3.org/2000/svg" viewBox="0 0 64 64"><linearGradient id="pl24G_THmIRyydzvPBAFfa" x1="25" x2="25" y1="-2067.412" y2="-2074.412" gradientTransform="matrix(1 0 0 -1 0 -2034)" gradientUnits="userSpaceOnUse"><stop offset="0" stop-color="#6dc7ff"/><stop offset="1" stop-color="#e6abff"/></linearGradient><circle cx="25" cy="36.91" r="3" fill="url(#pl24G_THmIRyydzvPBAFfa)"/><linearGradient id="pl24G_THmIRyydzvPBAFfb" x1="39" x2="39" y1="-2067.412" y2="-2074.412" gradientTransform="matrix(1 0 0 -1 0 -2034)" gradientUnits="userSpaceOnUse"><stop offset="0" stop-color="#6dc7ff"/><stop offset="1" stop-color="#e6abff"/></linearGradient><circle cx="39" cy="36.91" r="3" fill="url(#pl24G_THmIRyydzvPBAFfb)"/><linearGradient id="pl24G_THmIRyydzvPBAFfc" x1="32" x2="32" y1="-2076.625" y2="-2084.375" gradientTransform="matrix(1 0 0 -1 0 -2034)" gradientUnits="userSpaceOnUse"><stop offset="0" stop-color="#6dc7ff"/><stop offset="1" stop-color="#e6abff"/></linearGradient><path fill="url(#pl24G_THmIRyydzvPBAFfc)" d="M36.002,43H28c-0.552,0-1,0.448-1,1v0.809c0,2.403,1.609,4.612,3.965,5.085	C34.179,50.539,37,48.097,37,44.998v-1C37,43.447,36.553,43,36.002,43z"/><linearGradient id="pl24G_THmIRyydzvPBAFfd" x1="32" x2="32" y1="8.872" y2="54.49" gradientUnits="userSpaceOnUse"><stop offset="0" stop-color="#1a6dff"/><stop offset="1" stop-color="#c822ff"/></linearGradient><path fill="url(#pl24G_THmIRyydzvPBAFfd)" d="M58,25.5c0-1.603-1.09-2.943-2.562-3.356c0.031-0.213,0.062-0.426,0.062-0.644	c0-2.481-2.019-4.5-4.5-4.5h-0.528c-0.25-2.247-2.16-4-4.472-4c-0.948,0-1.829,0.295-2.555,0.797C43.107,11.648,41.242,10,39,10	c-1.045,0-2.008,0.358-2.772,0.958C35.597,9.233,33.94,8,32,8s-3.597,1.233-4.228,2.958C27.008,10.358,26.045,10,25,10	c-2.242,0-4.107,1.648-4.445,3.797C19.829,13.295,18.948,13,18,13c-2.313,0-4.223,1.753-4.472,4H13c-2.481,0-4.5,2.019-4.5,4.5	c0,0.219,0.04,0.429,0.071,0.641C7.094,22.552,6,23.894,6,25.5c0,1.759,1.308,3.204,3,3.449V29c0.551,0,1,0.448,1,1v5	c0,7.789,4.486,14.535,11,17.836V55c0,0.553,0.448,1,1,1h20c0.552,0,1-0.447,1-1v-2.164C49.514,49.535,54,42.789,54,35v-5	c0-0.552,0.449-1,1-1v-0.051C56.692,28.704,58,27.259,58,25.5z M13,19h2.5v-1.5c0-1.379,1.122-2.5,2.5-2.5s2.5,1.121,2.5,2.5h2v-3	c0-1.379,1.122-2.5,2.5-2.5s2.5,1.121,2.5,2.5h2v-2c0-1.379,1.122-2.5,2.5-2.5s2.5,1.121,2.5,2.5v2h2c0-1.379,1.122-2.5,2.5-2.5	s2.5,1.121,2.5,2.5v3h2c0-1.379,1.122-2.5,2.5-2.5s2.5,1.121,2.5,2.5V19H51c1.378,0,2.5,1.121,2.5,2.5c0,0.17-0.018,0.336-0.051,0.5	H10.555c-0.033-0.163-0.055-0.33-0.055-0.5C10.5,20.121,11.622,19,13,19z M34,53h-4c-9.925,0-18-8.075-18-18v-5	c0-0.352-0.072-0.686-0.184-1h40.369C52.072,29.314,52,29.648,52,30v2h-6v2h6v1c0,0.338-0.032,0.667-0.051,1H49v2h2.729	C50.294,46.499,42.901,53,34,53z M54.5,27h-45C8.673,27,8,26.327,8,25.5S8.673,24,9.5,24h45c0.827,0,1.5,0.673,1.5,1.5	S55.327,27,54.5,27z"/></svg>