<svg xmlns="http://www.w3.org/2000/svg" viewBox="0 0 48 48"><path fill="#74cccf" d="M18.695,2.945c-0.367,0.301-0.609,0.703-0.91,1.063c-0.402,0.496-0.949,0.938-1.285,1.48	c-0.113,0.195-0.227,0.375-0.289,0.563c0.344-0.02,0.691-0.02,1.039-0.02c0.656,0,1.313,0.094,1.969,0.113	c0.227,0.008,0.449,0.008,0.676,0.02c-0.02-1.297,0.656-2.477,1.031-3.695C20.176,2.488,19.305,2.441,18.695,2.945z"/><path fill="#74cccf" d="M30.676,4.344c-0.355-0.32-0.77-0.563-1.172-0.824c-0.461-0.309-0.902-0.668-1.387-0.938	c-0.93-0.527-1.887-0.609-2.938-0.496c-0.25,0.027-0.496,0.055-0.75,0.094c0.094,0.563,0.293,1.105,0.5,1.621	c0.27,0.703,0.57,1.441,1.047,2.035c0.066,0.074,0.094,0.156,0.105,0.234c0.375-0.039,0.738-0.078,1.113-0.133	c0.676-0.094,1.359-0.215,2-0.469c0.383-0.148,0.832-0.336,1.047-0.711c0.152-0.266,0.441-0.293,0.656-0.18	C30.836,4.504,30.758,4.418,30.676,4.344z"/><path fill="#d6e5e5" d="M24.039,4.109c-0.219-0.582-0.434-1.191-0.547-1.82c-0.523,0.066-1.047,0.125-1.582,0.16	c-0.34,1.23-1.117,2.457-1.07,3.742c0.027,0,0.066,0,0.094,0c0.629,0,1.258,0.008,1.875,0c0.742,0,1.48-0.02,2.223-0.059	C24.602,5.523,24.301,4.793,24.039,4.109z"/><path fill="#74cccf" d="M25.285,7.063c-0.449,0.027-0.91,0.039-1.359,0.047c-1.105,0.02-2.223,0.027-3.34,0.008	c0.059,0.313,0.16,0.676,0.254,0.949c0.207,0.629,0.449,1.238,0.73,1.828c0.273,0.563,0.574,1.125,0.938,1.629	c0.141,0.199,0.281,0.387,0.469,0.547c0.066,0.055,0.125,0.102,0.18,0.129c0.039,0.02,0.066,0.027,0.008,0.02	c0.293,0.02,0.461,0.254,0.488,0.477c0.066,0,0.121,0,0.188,0c0.105,0,0.207-0.008,0.309-0.016c0.02-0.059,0.059-0.105,0.113-0.16	c0.703-0.648,0.844-1.84,0.949-2.73C25.305,8.898,25.332,7.98,25.285,7.063z"/><path fill="#74cccf" d="M28.191,6.715c-0.648,0.133-1.313,0.215-1.969,0.281c0.055,1.078,0.02,2.168-0.141,3.227	c-0.105,0.723-0.254,1.582-0.629,2.27c0.664-0.172,1.293-0.441,1.836-0.883c0.105-0.086,0.207-0.113,0.301-0.102	c0.027-0.031,0.086-0.066,0.121-0.105c0.094-0.113,0.18-0.223,0.266-0.348c0.176-0.25,0.336-0.516,0.477-0.785	c0.402-0.762,0.816-1.52,1.219-2.289c0.402-0.77,0.93-1.547,1.227-2.371c0.039-0.113,0.078-0.215,0.094-0.328	C30.402,6.191,29.195,6.508,28.191,6.715z"/><path fill="#74cccf" d="M21.93,12.332c-0.469-0.582-0.828-1.246-1.156-1.922c-0.469-0.965-1.059-2.168-1.133-3.301	c-0.871-0.02-1.754-0.133-2.625-0.121c-0.234,0-0.469,0.008-0.703,0.02c0.254,0.402,0.516,0.785,0.836,1.133	c0.73,0.797,1.527,1.52,2.219,2.336c0.441,0.516,0.875,1.105,1.078,1.762c0.563,0.195,1.156,0.328,1.754,0.402	C22.117,12.547,22.023,12.445,21.93,12.332z"/><path fill="#febf10" d="M28.004,12.848c-0.012-0.066-0.027-0.301-0.059-0.441c-0.063,0.027-0.141,0.055-0.215,0.066	c-0.008,0-0.008,0-0.02,0c-1.066,0.824-2.484,1.133-3.813,1.172c-1.156,0.035-2.309-0.086-3.414-0.414	c-0.039,0.059-0.086,0.094-0.141,0.133c-0.039,0.348,0.008,0.723,0.102,1.039c1.969,0.367,3.902,0.273,5.891,0.227	c0.516-0.012,1.152-0.086,1.469-0.496c-0.016-0.16,0.039-0.328,0.172-0.414c0-0.008,0-0.008,0-0.02	C28.023,13.41,28.031,13.129,28.004,12.848z"/><path fill="#febf10" d="M41.523,31.512c0.027-0.363,0.008-0.73-0.031-1.098c0.105-0.617-0.027-1.301-0.176-1.875	c-0.207-0.824-0.488-1.621-0.797-2.406c-0.73-1.859-1.34-3.789-2.449-5.469c-1.188-1.797-2.867-2.906-4.695-3.992	c-0.824-0.488-1.633-1.004-2.418-1.547c-0.695-0.477-1.512-0.535-2.316-0.543c-0.602,0.957-1.855,0.945-2.945,1.004	c-1.723,0.102-3.469,0.102-5.164-0.219c-0.141-0.027-0.281-0.047-0.414-0.074c-0.055,0.152-0.176,0.262-0.391,0.273	c-1.297,0.027-2.391,0.777-3.434,1.473c-1.031,0.684-2.098,1.348-2.988,2.219c-1.766,1.734-2.879,3.836-3.234,6.281	c-0.199,1.313-0.266,2.664-0.066,3.977c0.223,1.453,0.691,2.859,1.238,4.219c0.516,1.305,1,2.664,1.648,3.898	c0.602,1.137,1.34,2.309,2.352,3.113c1.023,0.809,2.234,1.277,3.387,1.848c0.664,0.328,1.273,0.77,1.91,1.145	c0.797,0.477,1.613,0.945,2.484,1.285c0.047,0.016,0.105,0.035,0.152,0.055c0.57,0.074,1.145,0.121,1.715,0.148	c0,0,0.008,0,0.008-0.008c0.199-0.121,0.387-0.094,0.527,0.02c2.25,0.027,4.453-0.355,6.598-1.031	c1.297-0.402,2.551-0.902,3.762-1.5c1.133-0.574,2.23-1.191,3.055-2.176c1.52-1.809,2.082-4.133,2.496-6.402	c0.148-0.844,0.297-1.688,0.438-2.531C41.691,31.586,41.598,31.559,41.523,31.512z M37.867,36.398	c-2.215,3.563-6.234,6.035-10.418,6.422c-2.156,0.195-4.426-0.141-6.309-1.258c-2.102-1.238-3.711-3.113-5.07-5.102	c-0.676-0.984-1.285-1.969-1.66-3.102c-0.375-1.172-0.602-2.398-0.703-3.629c-0.113-1.227-0.207-2.531-0.066-3.758	c0.168-1.359,0.656-2.637,1.117-3.91c0.082-0.227,0.262-0.289,0.438-0.262c0.902-1.266,2.281-2.203,3.648-2.887	c2.055-1.023,4.305-1.586,6.602-1.586c2.594,0,5.305,0.617,7.648,1.742c1.883,0.902,3.516,2.297,4.492,4.164	c1.059,2.035,1.609,4.453,1.75,6.742C39.477,32.254,39.074,34.445,37.867,36.398z"/><path fill="#febf10" d="M42.188,26.602c-0.074-2.59-0.711-4.988-2.289-7.078c-0.785-1.051-1.676-2.027-2.66-2.898	c-0.977-0.863-2.027-1.566-3.094-2.305c-1.559-1.09-3.348-1.137-5.148-1.277c0,0.215-0.02,0.422-0.035,0.609	c0.797,0.02,1.602,0.113,2.285,0.543c0.902,0.574,1.773,1.172,2.691,1.719c1.902,1.133,3.703,2.332,4.93,4.227	c1.191,1.848,1.906,3.957,2.684,6c0.215,0.563,0.457,1.199,0.645,1.855C42.188,27.527,42.195,27.07,42.188,26.602z"/><path fill="#febf10" d="M18.508,43.586c-0.582-0.336-1.219-0.59-1.82-0.879c-1.434-0.715-2.633-1.594-3.57-2.918	c-0.77-1.086-1.305-2.25-1.82-3.469c-0.57-1.348-1.164-2.699-1.602-4.105c-0.809-2.566-0.984-5.258-0.359-7.883	c0.582-2.43,1.895-4.586,3.809-6.199c0.965-0.813,2.023-1.516,3.082-2.203c0.996-0.645,2.109-1.234,3.32-1.301	c-0.055-0.199-0.086-0.395-0.102-0.602c-1.773,0.141-3.488,0.863-4.988,1.793c-1.715,1.066-3.281,2.418-4.5,4.039	c-1.566,2.09-2.336,4.688-2.262,7.305c0.078,2.672,0.93,5.23,2.109,7.609c0.609,1.219,1.305,2.41,2.035,3.555	c0.574,0.898,1.145,1.781,1.914,2.531c1.488,1.453,3.316,2.504,5.27,3.207c0.195,0.074,0.391,0.141,0.59,0.207	C19.258,44.047,18.883,43.813,18.508,43.586z"/><path fill="#010101" d="M42.523,22.586c-0.945-3.195-3.504-5.875-6.109-7.836c-1.352-1.031-2.777-1.949-4.445-2.344	c-0.992-0.234-2.043-0.215-3.055-0.301c-0.02,0-0.047,0-0.066,0c-0.047-0.129-0.105-0.242-0.168-0.348	c0.281-0.383,0.496-0.832,0.664-1.152C30,9.359,30.656,8.121,31.332,6.883c0.469-0.859,0.91-1.816,0.383-2.754	c-0.43-0.77-1.461-1.219-2.145-1.715c-0.828-0.602-1.688-1.137-2.719-1.277c-0.863-0.121-1.746-0.02-2.617,0.105	c-0.195-0.172-0.543-0.125-0.711,0.102c-0.125,0.02-0.254,0.039-0.375,0.047c-0.688,0.086-1.371,0.141-2.055,0.16	c-0.523,0.008-1.051,0-1.566,0.066c-0.797,0.109-1.395,0.504-1.922,1.105c-0.375,0.422-0.691,0.879-1.078,1.301	C16.07,4.523,15.684,5,15.395,5.609c-0.113,0.234-0.168,0.461-0.188,0.684l-0.012,0.012c-0.195,0.223-0.129,0.57,0.113,0.73	c0.152,0.449,0.449,0.871,0.77,1.285c0.648,0.824,1.445,1.527,2.164,2.285c0.48,0.508,1.051,1.125,1.285,1.828	c-0.047,0.105-0.047,0.227-0.008,0.328c-0.027,0.105-0.047,0.215-0.066,0.328c-2.063,0.133-4.031,1.012-5.758,2.102	C11.746,16.418,9.984,18.07,8.719,20c-1.426,2.176-2.016,4.801-1.941,7.387c0.074,2.637,0.949,5.195,2.082,7.547	c0.582,1.211,1.246,2.363,1.961,3.508c0.578,0.938,1.172,1.855,1.91,2.68c1.379,1.527,3.18,2.652,5.063,3.449	c0.703,0.301,1.426,0.555,2.156,0.77c0.059-0.074,0.16-0.121,0.262-0.066c0.207,0.113,0.422,0.219,0.641,0.301	c0.691,0.168,1.387,0.301,2.09,0.395c0.074,0.027,0.141,0.047,0.215,0.074c0.965-0.113,1.949-0.195,2.906,0.059	c0.027,0.008,0.055,0.016,0.074,0.035c1.398-0.035,2.785-0.207,4.145-0.504c2.617-0.594,5.211-1.559,7.5-2.953	c1.996-1.23,3.141-3.32,3.816-5.496c0.355-1.133,0.563-2.297,0.77-3.457c0.223-1.238,0.422-2.477,0.563-3.734	C43.219,27.527,43.238,24.988,42.523,22.586z M30.91,5.609c-0.301,0.824-0.824,1.594-1.23,2.371	c-0.402,0.77-0.813,1.527-1.219,2.289c-0.141,0.27-0.297,0.535-0.477,0.785c-0.086,0.125-0.168,0.234-0.262,0.348	c-0.039,0.039-0.094,0.086-0.121,0.105c-0.094-0.012-0.199,0.016-0.301,0.102c-0.543,0.441-1.172,0.711-1.84,0.883	c0.375-0.688,0.527-1.547,0.629-2.27c0.152-1.059,0.199-2.156,0.141-3.227c0.668-0.055,1.324-0.148,1.969-0.281	c1.004-0.207,2.215-0.523,2.813-1.426C30.984,5.395,30.945,5.508,30.91,5.609z M27.805,14.133c-0.309,0.422-0.945,0.484-1.469,0.496	c-2,0.047-3.93,0.148-5.891-0.227c-0.094-0.316-0.141-0.691-0.102-1.039c0.055-0.039,0.102-0.074,0.141-0.133	c1.105,0.328,2.258,0.449,3.414,0.414c1.32-0.039,2.746-0.355,3.813-1.172c0.012,0,0.012,0,0.02,0	c0.074-0.012,0.152-0.039,0.215-0.066c0.031,0.148,0.047,0.375,0.059,0.441c0.027,0.281,0.02,0.57-0.02,0.844	c0,0.008,0,0.008,0,0.02C27.844,13.805,27.797,13.961,27.805,14.133z M23.148,12.219c-0.059-0.027-0.113-0.074-0.18-0.133	c-0.18-0.156-0.328-0.355-0.469-0.543c-0.367-0.504-0.664-1.066-0.938-1.629c-0.281-0.594-0.523-1.211-0.73-1.828	c-0.086-0.273-0.199-0.641-0.254-0.949c1.105,0.02,2.223,0.012,3.336-0.008c0.453-0.012,0.91-0.027,1.359-0.047	c0.047,0.91,0.02,1.828-0.094,2.738c-0.102,0.891-0.242,2.078-0.945,2.727c-0.055,0.047-0.094,0.102-0.113,0.16	c-0.102,0.008-0.207,0.008-0.309,0.02c-0.055,0-0.121,0-0.188,0c-0.02-0.234-0.188-0.461-0.488-0.48	C23.223,12.238,23.184,12.227,23.148,12.219z M25.18,2.086c1.051-0.113,2.008-0.031,2.938,0.496c0.484,0.27,0.926,0.629,1.387,0.938	c0.395,0.262,0.805,0.516,1.172,0.824c0.082,0.074,0.16,0.16,0.207,0.242c-0.219-0.109-0.508-0.082-0.656,0.18	c-0.219,0.375-0.668,0.563-1.051,0.711c-0.637,0.246-1.324,0.367-1.996,0.469c-0.367,0.059-0.742,0.094-1.117,0.133	c-0.008-0.074-0.039-0.16-0.102-0.234c-0.48-0.602-0.781-1.332-1.051-2.035c-0.199-0.516-0.395-1.066-0.496-1.621	C24.684,2.141,24.93,2.113,25.18,2.086z M21.918,2.449c0.527-0.035,1.051-0.094,1.586-0.16c0.102,0.621,0.328,1.238,0.543,1.82	c0.262,0.695,0.563,1.426,1.004,2.035c-0.742,0.035-1.48,0.047-2.223,0.055c-0.629,0-1.258,0-1.875,0c-0.027,0-0.066,0-0.094,0	C20.805,4.906,21.57,3.68,21.918,2.449z M16.5,5.496c0.328-0.551,0.871-0.992,1.285-1.48c0.301-0.355,0.543-0.758,0.91-1.059	c0.617-0.516,1.488-0.469,2.25-0.469c-0.375,1.219-1.051,2.398-1.031,3.691c-0.227,0-0.453-0.008-0.676-0.016	c-0.656-0.02-1.324-0.113-1.969-0.113c-0.348,0-0.695,0-1.043,0.02C16.285,5.883,16.387,5.695,16.5,5.496z M19.379,10.477	c-0.695-0.828-1.5-1.547-2.223-2.336c-0.32-0.348-0.59-0.73-0.836-1.133c0.234-0.012,0.469-0.012,0.703-0.02	c0.875-0.012,1.754,0.102,2.625,0.121c0.086,1.133,0.668,2.336,1.137,3.301c0.328,0.676,0.684,1.332,1.152,1.922	c0.086,0.113,0.18,0.215,0.281,0.316c-0.602-0.074-1.191-0.203-1.754-0.402C20.25,11.59,19.809,11,19.379,10.477z M19.031,44.066	c-1.949-0.703-3.777-1.754-5.27-3.207c-0.77-0.75-1.34-1.621-1.91-2.531c-0.734-1.152-1.426-2.336-2.035-3.555	c-1.191-2.379-2.035-4.938-2.121-7.609c-0.074-2.617,0.688-5.203,2.262-7.305c1.219-1.621,2.773-2.973,4.5-4.039	c1.5-0.93,3.215-1.652,4.988-1.793c0.016,0.199,0.047,0.402,0.102,0.602c-1.211,0.055-2.324,0.656-3.32,1.301	c-1.047,0.688-2.117,1.391-3.082,2.203c-1.914,1.613-3.227,3.77-3.809,6.199c-0.625,2.633-0.457,5.324,0.359,7.883	c0.438,1.398,1.031,2.746,1.602,4.105c0.516,1.219,1.039,2.383,1.82,3.469c0.938,1.313,2.137,2.203,3.57,2.918	c0.602,0.301,1.238,0.543,1.82,0.879c0.375,0.219,0.75,0.453,1.113,0.688C19.426,44.207,19.227,44.141,19.031,44.066z M41.352,34.129c-0.41,2.27-0.973,4.602-2.492,6.402c-0.824,0.984-1.922,1.613-3.055,2.176c-1.211,0.598-2.477,1.098-3.762,1.5	c-2.145,0.676-4.348,1.059-6.598,1.031c-0.141-0.113-0.34-0.141-0.527-0.02c0,0-0.008,0-0.008,0.008	c-0.574-0.027-1.145-0.074-1.715-0.148c-0.059-0.02-0.105-0.039-0.152-0.055c-0.863-0.34-1.688-0.809-2.484-1.285	c-0.637-0.375-1.246-0.816-1.91-1.145c-1.156-0.57-2.363-1.039-3.387-1.848c-1.02-0.805-1.754-1.977-2.352-3.113	c-0.656-1.234-1.137-2.594-1.652-3.898c-0.543-1.367-1.012-2.766-1.234-4.219c-0.199-1.313-0.133-2.672,0.063-3.977	c0.367-2.445,1.473-4.555,3.234-6.281c0.883-0.871,1.961-1.535,2.992-2.219c1.039-0.695,2.137-1.438,3.43-1.473	c0.207-0.012,0.34-0.121,0.395-0.273c0.133,0.039,0.273,0.059,0.414,0.074c1.707,0.32,3.449,0.313,5.164,0.219	c1.09-0.066,2.344-0.047,2.945-1.004c0.816,0.008,1.621,0.066,2.316,0.543c0.785,0.543,1.594,1.059,2.418,1.547	c1.828,1.078,3.504,2.195,4.695,3.992c1.105,1.68,1.727,3.609,2.449,5.469c0.309,0.785,0.59,1.582,0.797,2.406	c0.141,0.574,0.281,1.266,0.176,1.875c0.039,0.367,0.059,0.734,0.027,1.098c0.086,0.059,0.18,0.086,0.273,0.086	C41.652,32.441,41.504,33.285,41.352,34.129z M42.168,27.988c-0.188-0.656-0.43-1.293-0.645-1.855c-0.781-2.047-1.492-4.145-2.684-6	c-1.219-1.895-3.027-3.094-4.93-4.23c-0.918-0.543-1.793-1.152-2.691-1.715c-0.684-0.43-1.492-0.523-2.289-0.543	c0.031-0.188,0.047-0.395,0.039-0.609c1.809,0.141,3.59,0.195,5.148,1.273c1.066,0.742,2.117,1.434,3.094,2.309	c0.984,0.871,1.863,1.844,2.66,2.895c1.574,2.09,2.223,4.492,2.289,7.078C42.195,27.07,42.188,27.527,42.168,27.988z"/><path fill="#010101" d="M39.348,29.984c-0.133-2.289-0.684-4.707-1.754-6.742c-0.977-1.863-2.617-3.262-4.492-4.16	c-2.344-1.125-5.051-1.746-7.648-1.746c-2.297,0-4.547,0.563-6.602,1.586c-1.367,0.684-2.746,1.613-3.645,2.887	c-0.18-0.035-0.355,0.039-0.441,0.262c-0.469,1.277-0.957,2.551-1.117,3.91c-0.148,1.23-0.047,2.531,0.066,3.762	c0.113,1.227,0.328,2.445,0.703,3.625c0.367,1.145,0.984,2.129,1.66,3.105c1.359,1.988,2.973,3.871,5.07,5.098	c1.887,1.109,4.156,1.453,6.313,1.258c4.18-0.383,8.203-2.859,10.414-6.422C39.074,34.445,39.477,32.254,39.348,29.984z M38.277,32.844c-0.355,2.063-1.594,3.918-3.066,5.363c-2.98,2.934-7.594,4.488-11.688,3.363c-1.793-0.484-3.293-1.621-4.566-2.941	c-0.656-0.684-1.23-1.434-1.781-2.195c-0.527-0.73-1.078-1.488-1.473-2.316c-0.805-1.695-1.051-3.637-1.145-5.492	c-0.055-0.984-0.094-1.977,0.066-2.953c0.102-0.617,0.273-1.219,0.477-1.809c0.094-0.039,0.172-0.113,0.219-0.246	c0.691-1.984,2.586-3.242,4.414-4.078c2.176-0.984,4.555-1.395,6.938-1.207c2.477,0.188,5.129,0.945,7.238,2.285	c1.863,1.184,2.973,2.992,3.645,5.047C38.305,27.902,38.699,30.473,38.277,32.844z"/></svg>