<svg xmlns="http://www.w3.org/2000/svg" viewBox="0 0 40 40"><path fill="#dff0fe" d="M10.5 1.5A3 3 0 1 0 10.5 7.5A3 3 0 1 0 10.5 1.5Z"/><path fill="#4788c7" d="M10.5,2C11.878,2,13,3.121,13,4.5S11.878,7,10.5,7S8,5.879,8,4.5S9.122,2,10.5,2 M10.5,1 C8.567,1,7,2.566,7,4.5S8.567,8,10.5,8S14,6.434,14,4.5S12.433,1,10.5,1L10.5,1z"/><path fill="#dff0fe" d="M17.998,38.5c-0.734,0-1.355-0.526-1.477-1.252l-1.049-7.336l-4.553-4.716l-3.362,5.274 c-0.09,0.194-0.161,0.312-0.248,0.421l-4.18,7.105C2.884,38.295,2.457,38.5,1.999,38.5c-0.343,0-0.667-0.113-0.936-0.329 c-0.645-0.517-0.75-1.462-0.234-2.107l4.046-6.956L6.5,23.066v-9.195l-2.979,2.702L3.5,20.983C3.5,21.82,2.827,22.5,2,22.5 s-1.5-0.68-1.5-1.515v-5.425c0-0.685,0.552-1.153,0.882-1.371l5.31-4.556C6.888,9.546,7.101,9.5,7.312,9.5h6.665 c0.23,0,0.463,0.055,0.672,0.159l5.224,2.841H26c0.799,0,1.474,0.722,1.474,1.576c0,0.812-0.634,1.424-1.474,1.424h-7 c-0.23,0-0.462-0.055-0.673-0.159L14.5,13.135v10.02l3.506,5.128c0.199,0.242,0.313,0.488,0.356,0.75l1.116,7.71 c0.067,0.406-0.024,0.804-0.257,1.13s-0.579,0.542-0.974,0.607C18.163,38.493,18.08,38.5,17.998,38.5z"/><path fill="#4788c7" d="M13.977,10c0.154,0,0.309,0.037,0.417,0.089l5.128,2.789L19.746,13H20h6 c0.528,0,0.974,0.493,0.974,1.077C26.974,14.612,26.564,15,26,15h-7c-0.145,0-0.292-0.033-0.426-0.095l-3.074-1.771L14,12.27V14v9 v0.309l0.175,0.255l3.419,5l0.027,0.04l0.031,0.037c0.113,0.136,0.188,0.299,0.214,0.453l1.12,7.742 c0.044,0.264-0.017,0.529-0.173,0.746c-0.155,0.217-0.385,0.361-0.646,0.404C18.11,37.995,18.054,38,17.998,38 c-0.489,0-0.903-0.351-0.98-0.812l-1.028-7.187l-0.046-0.32l-0.225-0.233l-4-4.143l-0.881-0.912l-0.682,1.069l-3.022,4.74 l-0.044,0.069l-0.032,0.075c-0.035,0.083-0.083,0.162-0.141,0.235l-0.043,0.055l-0.035,0.06l-4.098,6.976 C2.552,37.881,2.285,38,1.998,38c-0.159,0-0.397-0.038-0.623-0.22c-0.43-0.344-0.5-0.975-0.156-1.405l0.046-0.058l0.037-0.064 l3.971-6.836l0.067-0.115l0.034-0.128l1.59-5.914L7,23.132V23v-8v-2.257l-1.672,1.517l-1.98,1.796l-0.326,0.296l-0.002,0.44 L3,20.985C3,21.545,2.551,22,2,22c-0.551,0-1-0.455-1-1.015v-5.424c0-0.451,0.412-0.792,0.658-0.955l0.052-0.034l0.047-0.04 l5.201-4.466C7.072,10.022,7.192,10,7.312,10H13.977 M13.977,9H7.312c-0.31,0-0.616,0.073-0.894,0.211l-5.312,4.561 C0.479,14.188,0,14.803,0,15.561v5.424C0,22.089,0.895,23,2,23s2-0.911,2-2.015l0.02-4.189L6,15v8l-1.59,5.914l-3.971,6.836 c-0.69,0.863-0.55,2.121,0.312,2.811C1.119,38.857,1.56,39,1.998,39c0.586,0,1.168-0.256,1.563-0.75l4.141-7.048 c0.113-0.142,0.206-0.297,0.277-0.462L11,26l4,4.143l1.028,7.187c0.163,0.978,1.01,1.67,1.97,1.67c0.109,0,0.22-0.009,0.331-0.027 c1.09-0.181,1.825-1.212,1.644-2.302l-1.117-7.721c-0.058-0.35-0.209-0.678-0.436-0.95L15,23v-9l3.106,1.789 C18.384,15.927,18.69,16,19,16h7c1.105,0,1.974-0.82,1.974-1.923C27.974,12.973,27.105,12,26,12h-6l-5.128-2.789 C14.594,9.073,14.288,9,13.977,9L13.977,9z"/><path fill="#98ccfd" d="M10.5,1.5c1.654,0,3,1.346,3,3s-1.346,3-3,3V1.5z"/><path fill="#4788c7" d="M11,2.05c1.14,0.232,2,1.242,2,2.45s-0.86,2.217-2,2.45V2.05 M10.5,1 c-0.171,0-0.335,0.026-0.5,0.05V7.95C10.165,7.974,10.329,8,10.5,8C12.433,8,14,6.434,14,4.5C14,2.566,12.433,1,10.5,1L10.5,1z"/><g><path fill="#4788c7" d="M27 13H38V14H27z"/></g><g><path fill="#98ccfd" d="M24.5,10.5c1.654,0,3,1.346,3,3s-1.346,3-3,3V10.5z"/><path fill="#4788c7" d="M25,11.05c1.14,0.232,2,1.242,2,2.45s-0.86,2.217-2,2.45V11.05 M24.5,10H24v7h0.5 c1.933,0,3.5-1.567,3.5-3.5S26.433,10,24.5,10L24.5,10z"/></g><path fill="#4788c7" d="M37.5,13h2c0.275,0,0.5,0.225,0.5,0.5v0c0,0.275-0.225,0.5-0.5,0.5h-2c-0.275,0-0.5-0.225-0.5-0.5v0 C37,13.225,37.225,13,37.5,13z"/></svg>