<?xml version="1.0"?><svg xmlns="http://www.w3.org/2000/svg" viewBox="0 0 128 128">    <path d="M 46.478516 0.98828125 C 45.068945 1.1058594 43.975781 2.1996094 43.800781 3.5996094 C 43.600781 5.1996094 44.800391 6.7003906 46.400391 6.9003906 C 70.200391 9.6003906 70.199219 14.600781 70.199219 17.300781 C 70.199219 17.900781 69.499219 31.900391 3.6992188 46.400391 C 2.0992187 46.800391 1.1003906 48.4 1.4003906 50 C 1.7003906 51.4 2.9007812 52.400391 4.3007812 52.400391 C 4.5007813 52.400391 4.7003906 52.400781 4.9003906 52.300781 C 33.300391 46.000781 53.600781 39.000391 65.300781 31.400391 C 74.800781 25.200391 76.199219 19.900391 76.199219 17.400391 C 76.199219 8.0003906 67.999609 3.4 47.099609 1 C 46.887109 0.975 46.679883 0.97148437 46.478516 0.98828125 z M 80.501953 1.0136719 C 79.116992 0.95898437 77.837891 1.9007813 77.400391 3.3007812 C 77.000391 4.9007813 77.999609 6.5003906 79.599609 6.9003906 C 115.99961 16.300391 119.49961 33.600781 120.59961 39.300781 C 122.89961 51.000781 115.9 68.899219 73.5 122.19922 C 72.5 123.49922 72.7 125.40039 74 126.40039 C 74.6 126.80039 75.200391 127.09961 75.900391 127.09961 C 76.800391 127.09961 77.700781 126.7 78.300781 126 C 122.50078 70.4 129.39961 52.299219 126.59961 38.199219 C 122.89961 20.099219 108.09961 7.9996094 81.099609 1.0996094 C 80.899609 1.0496094 80.699805 1.0214844 80.501953 1.0136719 z M 95.203125 26.009766 C 93.818164 25.935938 92.537109 26.799219 92.099609 28.199219 C 91.799609 29.499219 91.199609 30.900781 90.599609 32.300781 C 89.899609 33.800781 90.5 35.600781 92 36.300781 C 92.4 36.600781 92.800781 36.699219 93.300781 36.699219 C 94.400781 36.699219 95.5 36.1 96 35 C 96.8 33.2 97.500391 31.500781 97.900391 29.800781 C 98.300391 28.200781 97.400781 26.599609 95.800781 26.099609 C 95.600781 26.049609 95.400977 26.020312 95.203125 26.009766 z M 78.636719 48.738281 C 77.874219 48.700781 77.1 48.95 76.5 49.5 C 73.9 51.9 70.899609 54.299219 67.599609 56.699219 C 66.299609 57.699219 66 59.600391 67 60.900391 C 67.6 61.700391 68.500391 62.099609 69.400391 62.099609 C 70.000391 62.099609 70.699219 61.9 71.199219 61.5 C 74.599219 59 77.7 56.400391 80.5 53.900391 C 81.7 52.900391 81.799219 50.999219 80.699219 49.699219 C 80.149219 49.099219 79.399219 48.775781 78.636719 48.738281 z M 50.044922 69.056641 C 49.466602 69.021484 48.863281 69.1625 48.300781 69.5 C 45.000781 71.4 41.599219 73.299219 38.199219 75.199219 C 36.699219 75.999219 36.2 77.800781 37 79.300781 C 37.5 80.300781 38.599609 80.900391 39.599609 80.900391 C 40.099609 80.900391 40.6 80.8 41 80.5 C 44.5 78.6 48.000781 76.699219 51.300781 74.699219 C 52.700781 73.899219 53.200391 71.999609 52.400391 70.599609 C 51.900391 69.662109 51.008789 69.115234 50.044922 69.056641 z M 18.501953 85.027344 C 18.106641 85.036719 17.700781 85.125781 17.300781 85.300781 C 15.700781 86.000781 14.200781 86.599219 12.800781 87.199219 C 11.300781 87.799219 10.499219 89.599609 11.199219 91.099609 C 11.699219 92.299609 12.8 93 14 93 C 14.4 93 14.799609 92.900781 15.099609 92.800781 C 16.599609 92.200781 18.200781 91.500781 19.800781 90.800781 C 21.300781 90.100781 22.000781 88.400781 21.300781 86.800781 C 20.775781 85.675781 19.687891 84.999219 18.501953 85.027344 z"/></svg>