<svg xmlns="http://www.w3.org/2000/svg" viewBox="0 0 26 26"><path d="M 17.46875 0.125 C 16.660156 0.125 15.835938 0.714844 15.21875 1.09375 C 14.019531 1.828125 12.714844 2.15625 11.34375 2.15625 C 11.003906 2.15625 10.660156 2.128906 10.3125 2.09375 C 9.621094 2.023438 8.839844 1.9375 8.0625 1.9375 C 7.679688 1.9375 7.292969 1.945313 6.9375 2 C 4.851563 2.328125 4.78125 4.265625 3.46875 5.5 C 2.839844 6.089844 2.183594 6.394531 1.96875 7.28125 C 1.757813 8.160156 2.125 9.238281 2.21875 10.09375 C 2.316406 10.980469 2.441406 11.835938 2.0625 12.65625 C 1.691406 13.457031 1.003906 14.015625 0.71875 14.90625 C 0.332031 16.109375 0.796875 17.203125 1.03125 18.375 C 1.25 19.476563 1.007813 20.152344 0.875 21.21875 C 0.652344 22.992188 1.542969 24 3.28125 24.34375 C 3.84375 24.453125 4.4375 24.578125 5 24.65625 C 5.5 24.730469 6.160156 24.578125 6.59375 24.90625 C 7.105469 25.289063 6.839844 25.847656 7.625 25.875 C 7.726563 25.878906 7.804688 25.90625 7.90625 25.90625 C 9.996094 25.90625 11.769531 25.148438 13.78125 24.71875 C 14.363281 24.59375 15.035156 24.492188 15.625 24.34375 C 16.910156 24.023438 18.203125 23.925781 19.5 23.6875 C 20.683594 23.46875 21.410156 23.089844 22 22.03125 C 22.648438 20.867188 24.101563 20.722656 24.5625 19.4375 C 24.898438 18.5 24.863281 17.496094 24.75 16.46875 C 24.636719 15.4375 24.34375 14.976563 23.90625 14.09375 C 23.402344 13.082031 24 12.890625 24.5 12.09375 C 24.8125 11.597656 25.109375 10.8125 24.96875 10.21875 C 24.875 9.824219 24.695313 9.277344 24.46875 8.9375 C 24.300781 8.6875 24.011719 8.554688 23.90625 8.25 C 23.726563 7.738281 24.117188 7.121094 24.09375 6.59375 C 24.046875 5.601563 23.378906 5.269531 22.59375 4.9375 C 21.566406 4.5 21.269531 4.058594 21.375 3 C 21.574219 1.019531 19.738281 0.746094 18.1875 0.3125 C 17.957031 0.179688 17.707031 0.125 17.46875 0.125 Z M 17.40625 2.15625 L 17.65625 2.21875 C 17.808594 2.261719 17.96875 2.300781 18.125 2.34375 C 18.390625 2.414063 18.734375 2.519531 19.03125 2.625 C 19.257813 3.394531 19.332031 4.328125 19.28125 4.9375 C 19.234375 5.492188 19.003906 5.921875 19.0625 6.53125 C 19.117188 7.097656 19.339844 7.578125 19.34375 8.15625 C 19.351563 9.519531 18.726563 10.328125 19.1875 11.6875 C 19.59375 12.894531 19.785156 13.839844 18.34375 14.46875 C 17.824219 14.695313 17.25 14.753906 16.78125 15.03125 C 16.167969 15.390625 16.023438 15.578125 15.3125 15.71875 C 14.226563 15.933594 13.207031 16.453125 13.21875 17.6875 C 13.226563 18.359375 13.425781 18.636719 13 19.1875 C 12.667969 19.617188 12.097656 20.1875 11.53125 20.25 C 11.097656 20.296875 10.917969 19.941406 10.53125 19.8125 C 10.074219 19.664063 9.644531 19.859375 9.25 20.09375 C 7.929688 20.875 5.699219 22.90625 4.09375 21.90625 C 3.578125 21.585938 3.289063 21.144531 3 20.6875 C 3.113281 19.953125 3.191406 19.121094 2.96875 18 C 2.910156 17.71875 2.847656 17.429688 2.78125 17.15625 C 2.589844 16.371094 2.5 15.921875 2.625 15.53125 C 2.6875 15.339844 2.882813 15.097656 3.09375 14.8125 C 3.347656 14.46875 3.660156 14.03125 3.90625 13.5 C 4.484375 12.242188 4.328125 11.046875 4.21875 10.09375 L 4.1875 9.875 C 4.15625 9.589844 4.117188 9.285156 4.0625 8.96875 C 3.992188 8.570313 3.875 7.964844 3.90625 7.78125 C 3.949219 7.722656 4.117188 7.574219 4.25 7.46875 C 4.441406 7.3125 4.644531 7.152344 4.84375 6.96875 C 5.523438 6.328125 5.941406 5.609375 6.28125 5.03125 C 6.804688 4.132813 6.914063 4.054688 7.25 4 C 7.476563 3.964844 7.753906 3.9375 8.0625 3.9375 C 8.667969 3.9375 9.3125 4 9.9375 4.0625 L 10.125 4.09375 C 10.542969 4.136719 10.945313 4.15625 11.34375 4.15625 C 13.164063 4.15625 14.84375 3.695313 16.28125 2.8125 C 16.382813 2.75 16.484375 2.695313 16.59375 2.625 C 16.808594 2.484375 17.175781 2.25 17.40625 2.15625 Z M 15.15625 5.8125 C 14.460938 5.832031 13.363281 6.644531 13.03125 6.875 C 12.621094 7.164063 12 7.050781 11.65625 7.40625 C 11.445313 7.625 11.242188 8.226563 11.25 8.53125 C 11.269531 9.148438 11.703125 9.652344 11.78125 10.25 C 11.890625 11.078125 11.308594 12.652344 12.625 12.71875 C 13.273438 12.75 13.597656 12.316406 14 11.90625 C 14.394531 11.5 14.914063 11.117188 15.40625 10.84375 C 15.691406 10.6875 16.253906 10.617188 16.25 10.1875 C 16.25 9.945313 15.917969 9.761719 15.9375 9.46875 C 15.957031 9.160156 16.265625 8.894531 16.34375 8.59375 C 16.460938 8.15625 16.207031 8.136719 15.90625 7.875 C 15.265625 7.3125 15.972656 6.742188 15.6875 6.09375 C 15.589844 5.867188 15.386719 5.804688 15.15625 5.8125 Z M 7.34375 11.5625 C 6.90625 11.59375 6.519531 12.632813 6.40625 12.90625 C 6.289063 13.195313 5.90625 13.351563 5.84375 13.65625 C 5.808594 13.84375 5.925781 14.21875 6.03125 14.375 C 6.25 14.691406 6.628906 14.835938 6.875 15.125 C 7.210938 15.523438 7.441406 16.535156 8.15625 16.125 C 8.507813 15.921875 8.523438 15.570313 8.59375 15.21875 C 8.660156 14.875 8.804688 14.5 8.96875 14.1875 C 9.066406 14.007813 9.332031 13.753906 9.1875 13.53125 C 9.101563 13.402344 8.871094 13.441406 8.78125 13.28125 C 8.6875 13.113281 8.78125 12.871094 8.71875 12.6875 C 8.628906 12.417969 8.496094 12.503906 8.25 12.46875 C 7.722656 12.390625 7.898438 11.835938 7.53125 11.59375 C 7.46875 11.550781 7.40625 11.558594 7.34375 11.5625 Z"/></svg>