<svg xmlns="http://www.w3.org/2000/svg" viewBox="0 0 100 100"><path fill="#fff" d="M71.547 21.433h-10.03c-.276 0-.5-.224-.5-.5s.224-.5.5-.5h10.03c.276 0 .5.224.5.5S71.823 21.433 71.547 21.433zM74.427 21.433h-1.445c-.276 0-.5-.224-.5-.5s.224-.5.5-.5h1.445c.276 0 .5.224.5.5S74.704 21.433 74.427 21.433zM78.482 21.433h-2.546c-.276 0-.5-.224-.5-.5s.224-.5.5-.5h2.546c.276 0 .5.224.5.5S78.758 21.433 78.482 21.433zM76.457 17.704H66.84c-.276 0-.5-.224-.5-.5s.224-.5.5-.5h9.616c.276 0 .5.224.5.5S76.733 17.704 76.457 17.704zM65.108 17.704h-.58c-.276 0-.5-.224-.5-.5s.224-.5.5-.5h.58c.276 0 .5.224.5.5S65.384 17.704 65.108 17.704zM62.732 17.704h-1.457c-.276 0-.5-.224-.5-.5s.224-.5.5-.5h1.457c.276 0 .5.224.5.5S63.008 17.704 62.732 17.704zM73.893 19.568h-5.027c-.276 0-.5-.224-.5-.5s.224-.5.5-.5h5.027c.276 0 .5.224.5.5S74.17 19.568 73.893 19.568z"/><path fill="#fff" d="M73.893 17.704h-1.257c-.276 0-.5-.224-.5-.5s.224-.5.5-.5h1.257c.276 0 .5.224.5.5S74.17 17.704 73.893 17.704zM67.411 19.568h-1.759c-.276 0-.5-.224-.5-.5s.224-.5.5-.5h1.759c.276 0 .5.224.5.5S67.687 19.568 67.411 19.568z"/><path fill="#c7ede6" d="M88.704,55.674c0.3-0.616,0.566-1.264,0.796-1.943c2.633-7.77-1.349-17.078-9.733-19.325C78.86,23.023,70.86,15.214,61.826,13.881c-10.341-1.525-19.814,5.044-22.966,15.485c-3.799-1.346-7.501-1.182-10.99,0.857c-1.583,0.732-3.031,1.812-4.33,3.233c-1.907,2.086-3.147,4.719-3.652,7.495c-0.748,0.118-1.483,0.236-2.176,0.484c-4.04,1.449-6.589,4.431-7.288,8.923c-0.435,2.797,0.443,5.587,0.933,6.714c1.935,4.455,6.422,6.98,10.981,6.312c0.227-0.033,0.557,0.069,0.752,0.233c0.241,7.12,3.698,13.417,8.884,17.014c8.321,5.772,19.027,3.994,25.781-3.921c2.894,2.96,6.338,4.398,10.384,3.876c4.023-0.519,7.147-2.739,9.426-6.349c1.053,0.283,2.051,0.691,3.083,0.804c4.042,0.442,7.324-1.165,9.732-4.8c0.922-1.391,1.793-3.194,1.793-6.354C92.174,60.631,90.881,57.664,88.704,55.674z"/><path fill="#fdfcef" d="M71.968,48.843c0,0,11.691,0,11.762,0c2.7,0,4.888-2.189,4.888-4.889c0-2.355-1.666-4.321-3.884-4.784c0.026-0.206,0.043-0.415,0.043-0.628c0-2.796-2.267-5.063-5.063-5.063c-1.651,0-3.113,0.794-4.037,2.017c-0.236-3.113-3.017-5.514-6.27-5.116c-2.379,0.291-4.346,2.13-4.784,4.486c-0.14,0.756-0.126,1.489,0.014,2.177c-0.638-0.687-1.546-1.119-2.557-1.119c-1.85,0-3.361,1.441-3.48,3.261c-0.84-0.186-1.754-0.174-2.717,0.188c-1.84,0.691-3.15,2.423-3.227,4.387c-0.109,2.789,2.12,5.085,4.885,5.085c0.21,0,0.948,0,1.118,0h10.151"/><path fill="#472b29" d="M83.73,49.343H71.967c-0.276,0-0.5-0.224-0.5-0.5s0.224-0.5,0.5-0.5H83.73c2.419,0,4.388-1.969,4.388-4.389c0-2.066-1.466-3.872-3.486-4.295c-0.254-0.053-0.426-0.292-0.394-0.551c0.022-0.186,0.039-0.374,0.039-0.566c0-2.517-2.047-4.563-4.562-4.563c-1.439,0-2.766,0.663-3.638,1.818c-0.126,0.165-0.343,0.235-0.54,0.178c-0.2-0.059-0.342-0.234-0.358-0.441c-0.104-1.377-0.778-2.671-1.85-3.549c-1.083-0.888-2.457-1.282-3.86-1.109c-2.166,0.266-3.956,1.943-4.354,4.081c-0.123,0.67-0.119,1.338,0.014,1.985c0.045,0.22-0.062,0.442-0.262,0.545c-0.197,0.103-0.442,0.061-0.595-0.104c-0.575-0.618-1.353-0.959-2.19-0.959c-1.569,0-2.879,1.227-2.981,2.793c-0.01,0.146-0.082,0.28-0.199,0.367c-0.116,0.088-0.269,0.118-0.407,0.089c-0.844-0.186-1.64-0.131-2.434,0.167c-1.669,0.628-2.836,2.211-2.902,3.939c-0.048,1.207,0.386,2.35,1.221,3.218s1.959,1.347,3.164,1.347h11.269c0.276,0,0.5,0.224,0.5,0.5s-0.224,0.5-0.5,0.5H57.543c-1.479,0-2.859-0.588-3.886-1.654c-1.024-1.065-1.557-2.468-1.499-3.949c0.083-2.126,1.51-4.069,3.551-4.836c0.801-0.301,1.628-0.399,2.468-0.299c0.377-1.822,1.997-3.182,3.905-3.182c0.684,0,1.354,0.18,1.943,0.51c0-0.385,0.035-0.771,0.107-1.158c0.476-2.562,2.62-4.574,5.215-4.892c1.673-0.203,3.32,0.266,4.615,1.328c1.004,0.823,1.716,1.95,2.038,3.192c1.012-0.915,2.319-1.425,3.714-1.425c3.067,0,5.562,2.496,5.562,5.563c0,0.083-0.002,0.166-0.007,0.248c2.254,0.674,3.848,2.777,3.848,5.164C89.118,46.926,86.701,49.343,83.73,49.343z"/><path fill="#fdfcef" d="M69.135,38.075c-1.808-0.119-3.365,1.13-3.476,2.789c-0.014,0.206-0.005,0.409,0.025,0.606c-0.349-0.394-0.865-0.661-1.458-0.7c-1.085-0.071-2.022,0.645-2.158,1.62c-0.197-0.054-0.403-0.09-0.616-0.104c-1.582-0.104-2.944,0.989-3.042,2.441"/><path fill="#472b29" d="M58.41,44.976c-0.006,0-0.011,0-0.017-0.001c-0.138-0.009-0.242-0.128-0.232-0.266c0.106-1.586,1.568-2.786,3.308-2.674c0.136,0.009,0.272,0.026,0.408,0.053c0.274-0.968,1.25-1.648,2.366-1.567c0.425,0.027,0.823,0.16,1.163,0.382c0.001-0.019,0.002-0.038,0.004-0.057c0.119-1.794,1.795-3.152,3.741-3.021c0.138,0.009,0.242,0.128,0.232,0.266c-0.008,0.132-0.118,0.233-0.249,0.233c-0.005,0-0.011,0-0.017-0.001c-1.669-0.113-3.108,1.037-3.21,2.557c-0.013,0.183-0.005,0.368,0.023,0.552c0.017,0.109-0.04,0.218-0.141,0.265c-0.102,0.046-0.221,0.022-0.294-0.061c-0.322-0.364-0.779-0.583-1.287-0.617c-0.935-0.051-1.775,0.555-1.894,1.404c-0.011,0.071-0.051,0.135-0.11,0.175c-0.061,0.04-0.135,0.051-0.203,0.032c-0.188-0.051-0.378-0.083-0.567-0.097c-1.472-0.085-2.688,0.897-2.776,2.209C58.65,44.875,58.541,44.976,58.41,44.976z"/><path fill="#fdfcef" d="M85.709,39.743c-1.699-0.801-3.664-0.234-4.389,1.267c-0.09,0.186-0.157,0.379-0.201,0.574"/><path fill="#472b29" d="M81.12,41.834c-0.018,0-0.036-0.002-0.055-0.006c-0.135-0.03-0.22-0.164-0.189-0.299c0.049-0.215,0.122-0.426,0.219-0.627c0.783-1.623,2.903-2.241,4.722-1.385c0.125,0.06,0.179,0.208,0.12,0.333c-0.06,0.126-0.21,0.176-0.333,0.12c-1.573-0.741-3.394-0.228-4.058,1.148c-0.081,0.167-0.142,0.342-0.182,0.52C81.338,41.754,81.234,41.834,81.12,41.834z"/><path fill="#fff" d="M18.369 47.711H8.339c-.276 0-.5-.224-.5-.5s.224-.5.5-.5h10.03c.276 0 .5.224.5.5S18.645 47.711 18.369 47.711zM21.25 47.711h-1.445c-.276 0-.5-.224-.5-.5s.224-.5.5-.5h1.445c.276 0 .5.224.5.5S21.526 47.711 21.25 47.711zM25.304 47.711h-2.546c-.276 0-.5-.224-.5-.5s.224-.5.5-.5h2.546c.276 0 .5.224.5.5S25.581 47.711 25.304 47.711zM25.304 49.575h-9.616c-.276 0-.5-.224-.5-.5s.224-.5.5-.5h9.616c.276 0 .5.224.5.5S25.581 49.575 25.304 49.575zM13.957 49.575h-.58c-.276 0-.5-.224-.5-.5s.224-.5.5-.5h.58c.276 0 .5.224.5.5S14.233 49.575 13.957 49.575zM11.58 49.575h-1.456c-.276 0-.5-.224-.5-.5s.224-.5.5-.5h1.456c.276 0 .5.224.5.5S11.856 49.575 11.58 49.575zM20.715 45.845h-5.027c-.276 0-.5-.224-.5-.5s.224-.5.5-.5h5.027c.276 0 .5.224.5.5S20.992 45.845 20.715 45.845zM20.715 43.98h-1.258c-.276 0-.5-.224-.5-.5s.224-.5.5-.5h1.258c.276 0 .5.224.5.5S20.992 43.98 20.715 43.98zM17.447 51.44h-1.759c-.276 0-.5-.224-.5-.5s.224-.5.5-.5h1.759c.276 0 .5.224.5.5S17.723 51.44 17.447 51.44z"/><path fill="#f9eaeb" d="M71.916,30.431l2.491-0.038c0.142-5.083-5.983-4.773-5.983-4.773l-30.167-0.004c-2.314,0-4.227,2.526-4.227,4.593v26.08l-5.998-0.017c-0.005,0.217,0.003,12.478,0.022,12.673c0.392,4.033,5.651,3.582,5.651,3.582l35.105,0.025c1.892,0.176,3.107-2.082,3.107-3.336S71.916,30.431,71.916,30.431"/><path fill="#472b29" d="M33.522,70.84c-0.387,0-0.7-0.313-0.7-0.7s0.313-0.7,0.7-0.7c0.128,0,0.161-0.036,0.182-0.058c0.126-0.136,0.26-0.523,0.181-1.601l0.047-37.573c0-2.396,2.197-5.293,4.927-5.293l30.168,0.004c0.101-0.009,3.354-0.147,5.294,1.75c0.965,0.943,1.432,2.202,1.389,3.743c-0.011,0.379-0.32,0.68-0.699,0.681l-22.938,0.038h-0.001c-0.386,0-0.699-0.312-0.7-0.699c0-0.387,0.312-0.7,0.699-0.701l22.214-0.037c-0.089-0.825-0.398-1.49-0.938-2.02c-1.498-1.469-4.256-1.356-4.285-1.355l-30.202-0.003c-1.866,0-3.526,2.177-3.526,3.894l-0.049,37.522c0.067,0.894,0.056,1.948-0.554,2.604C34.423,70.666,34.005,70.84,33.522,70.84z"/><path fill="#472b29" d="M69.623 73.237c-.091 0-.182-.005-.272-.013l-34.987-.022c-1.979.168-5.976-.478-6.338-4.205C27.998 68.717 27.998 56.375 28 56.274c.009-.381.32-.685.7-.685.001 0 .001 0 .002 0l5.33.017c.387.001.699.315.698.702-.001.386-.314.698-.7.698-.001 0-.001 0-.002 0l-4.629-.015c0 2.569.005 11.485.021 11.898.318 3.268 4.694 2.931 4.884 2.914l35.111.022c.525.046.963-.12 1.368-.489.646-.59 1.033-1.551 1.033-2.139V30.431c0-.387.313-.7.7-.7s.7.313.7.7v38.768c0 1.068-.613 2.373-1.49 3.174C71.103 72.941 70.381 73.237 69.623 73.237zM49.064 31.131h-3.007c-.387 0-.7-.313-.7-.7s.313-.7.7-.7h3.007c.387 0 .7.313.7.7S49.451 31.131 49.064 31.131zM48.338 39.526H37.939c-.207 0-.375-.168-.375-.375s.168-.375.375-.375h10.398c.207 0 .375.168.375.375S48.545 39.526 48.338 39.526z"/><path fill="#472b29" d="M69.134 39.526H50.071c-.207 0-.375-.168-.375-.375s.168-.375.375-.375h19.063c.207 0 .375.168.375.375S69.341 39.526 69.134 39.526zM69.38 45.54H53.575c-.207 0-.375-.168-.375-.375s.168-.375.375-.375H69.38c.207 0 .375.168.375.375S69.587 45.54 69.38 45.54zM69.38 49.749H53.575c-.207 0-.375-.168-.375-.375s.168-.375.375-.375H69.38c.207 0 .375.168.375.375S69.587 49.749 69.38 49.749zM69.38 53.959H53.575c-.207 0-.375-.168-.375-.375s.168-.375.375-.375H69.38c.207 0 .375.168.375.375S69.587 53.959 69.38 53.959zM61.047 35.918h-8.088c-.207 0-.375-.168-.375-.375s.168-.375.375-.375h8.088c.207 0 .375.168.375.375S61.254 35.918 61.047 35.918zM69.134 35.918H62.78c-.207 0-.375-.168-.375-.375s.168-.375.375-.375h6.354c.207 0 .375.168.375.375S69.341 35.918 69.134 35.918zM51.226 35.918H37.939c-.207 0-.375-.168-.375-.375s.168-.375.375-.375h13.287c.207 0 .375.168.375.375S51.433 35.918 51.226 35.918zM56.581 67.188H37.939c-.207 0-.375-.168-.375-.375s.168-.375.375-.375h18.642c.207 0 .375.168.375.375S56.788 67.188 56.581 67.188zM56.581 62.979H37.939c-.207 0-.375-.168-.375-.375s.168-.375.375-.375h18.642c.207 0 .375.168.375.375S56.788 62.979 56.581 62.979zM56.581 58.769H37.939c-.207 0-.375-.168-.375-.375s.168-.375.375-.375h18.642c.207 0 .375.168.375.375S56.788 58.769 56.581 58.769z"/><path fill="#fdfcef" d="M39.997,74.99c1.883,0,3.517,0,3.54,0c2.11,0,3.821-1.674,3.821-3.739c0-1.802-1.302-3.305-3.035-3.66c0.02-0.158,0.034-0.317,0.034-0.48c0-2.139-1.772-3.873-3.957-3.873c-1.29,0-2.433,0.607-3.155,1.543c-0.185-2.381-2.358-4.218-4.9-3.913c-1.859,0.223-3.397,1.629-3.739,3.431c-0.11,0.578-0.098,1.139,0.011,1.665c-0.498-0.525-1.208-0.856-1.998-0.856c-1.446,0-2.627,1.102-2.72,2.494c-0.657-0.142-1.371-0.133-2.123,0.143c-1.438,0.528-2.462,1.853-2.522,3.356c-0.085,2.133,1.657,3.889,3.818,3.889c0.164,0,0.741,0,0.874,0h7.934 M33.52,74.99h0.36"/><path fill="#472b29" d="M43.538,75.49h-3.541c-0.276,0-0.5-0.224-0.5-0.5s0.224-0.5,0.5-0.5h3.541c1.831,0,3.32-1.453,3.32-3.239c0-1.524-1.108-2.856-2.636-3.169c-0.255-0.053-0.428-0.293-0.396-0.552c0.017-0.138,0.029-0.276,0.029-0.419c0-1.86-1.551-3.373-3.457-3.373c-1.092,0-2.098,0.491-2.76,1.349c-0.125,0.164-0.342,0.231-0.538,0.174c-0.198-0.06-0.34-0.234-0.355-0.44c-0.079-1.02-0.565-1.944-1.369-2.604c-0.829-0.68-1.885-0.98-2.974-0.854c-1.646,0.197-3.006,1.443-3.307,3.028c-0.094,0.496-0.091,0.99,0.009,1.471c0.046,0.219-0.06,0.441-0.258,0.545c-0.196,0.102-0.439,0.063-0.595-0.1c-0.427-0.451-1.008-0.699-1.635-0.699c-1.17,0-2.146,0.891-2.221,2.027c-0.01,0.146-0.082,0.279-0.198,0.366s-0.265,0.12-0.407,0.089c-0.638-0.138-1.241-0.098-1.844,0.125c-1.263,0.463-2.146,1.631-2.195,2.905c-0.035,0.875,0.282,1.708,0.895,2.345c0.635,0.66,1.495,1.024,2.423,1.024h8.808c0.276,0,0.5,0.224,0.5,0.5s-0.224,0.5-0.5,0.5H23.07c-1.185,0-2.33-0.485-3.144-1.332c-0.803-0.835-1.219-1.928-1.174-3.076c0.066-1.675,1.212-3.204,2.85-3.806c0.612-0.225,1.244-0.307,1.88-0.244c0.345-1.396,1.629-2.424,3.136-2.424c0.493,0,0.977,0.113,1.414,0.322c0.009-0.241,0.036-0.482,0.082-0.725c0.381-2.01,2.096-3.587,4.17-3.835c1.362-0.167,2.686,0.218,3.727,1.072c0.748,0.614,1.278,1.409,1.546,2.302c0.791-0.648,1.786-1.007,2.843-1.007c2.458,0,4.457,1.962,4.457,4.373c0,0.034-0.001,0.068-0.002,0.103c1.765,0.555,3.004,2.188,3.004,4.037C47.858,73.588,45.92,75.49,43.538,75.49z M33.88,75.49H33.52c-0.276,0-0.5-0.224-0.5-0.5s0.224-0.5,0.5-0.5h0.359c0.276,0,0.5,0.224,0.5,0.5S34.156,75.49,33.88,75.49z"/><path fill="#472b29" d="M41.83 69.687c-.018 0-.036-.002-.055-.006-.135-.03-.22-.164-.189-.299.037-.164.094-.325.169-.479.604-1.224 2.273-1.677 3.722-1.007.126.058.181.206.122.331-.058.126-.209.18-.331.122-1.206-.558-2.579-.209-3.063.774-.059.118-.102.241-.13.367C42.048 69.608 41.945 69.687 41.83 69.687zM36.671 75.49h-1.106c-.276 0-.5-.224-.5-.5s.224-.5.5-.5h1.106c.276 0 .5.224.5.5S36.947 75.49 36.671 75.49z"/><path fill="#ee3e54" d="M38.133,47.948c0.815-0.024,1.632-0.019,2.445-0.084c0.622-0.05,1.246-0.15,1.857-0.302c0.477-0.119,0.941-0.341,1.436-0.303c0.053,0.004,0.271,0.004,0.323,0c0.495-0.038,0.959,0.184,1.436,0.303c0.611,0.152,1.235,0.252,1.857,0.302c0.813,0.065,1.63,0.06,2.445,0.084c0.043,0.001,0.087-0.005,0.178-0.011c-0.324-0.415-0.613-0.8-0.914-1.171c-0.648-0.799-1.333-1.543-2.119-2.142c-0.925-0.705-1.867-0.71-2.73,0.018c-0.111,0.093-0.209,0.209-0.316,0.322c-0.107-0.113-0.205-0.229-0.316-0.322c-0.862-0.728-1.805-0.723-2.73-0.018c-0.786,0.599-1.471,1.343-2.119,2.142c-0.301,0.371-0.59,0.755-0.914,1.171C38.046,47.943,38.09,47.95,38.133,47.948z"/><path fill="#472b29" d="M38.12,48.273c-0.031,0-0.065-0.002-0.109-0.006c-0.12-0.008-0.265-0.084-0.313-0.193c-0.05-0.11-0.072-0.241,0.001-0.336l0.298-0.385c0.211-0.273,0.413-0.536,0.62-0.792c0.779-0.961,1.47-1.658,2.174-2.195c1.052-0.8,2.167-0.792,3.137,0.028c0.037,0.03,0.072,0.063,0.106,0.098c0.035-0.034,0.07-0.067,0.107-0.099c0.97-0.818,2.086-0.827,3.136-0.027c0.702,0.535,1.393,1.233,2.174,2.195c0.207,0.256,0.409,0.519,0.62,0.792l0.298,0.385c0.073,0.095,0.089,0.223,0.04,0.332c-0.05,0.11-0.156,0.184-0.276,0.191c-0.133,0.011-0.175,0.015-0.213,0.011l-0.694-0.015c-0.577-0.011-1.173-0.022-1.763-0.069c-0.649-0.053-1.292-0.156-1.909-0.311c-0.143-0.035-0.284-0.08-0.426-0.124c-0.315-0.1-0.612-0.198-0.906-0.171c-0.058,0.006-0.318,0.005-0.379-0.001c-0.286-0.017-0.586,0.072-0.903,0.172c-0.141,0.044-0.282,0.089-0.424,0.124c-0.617,0.154-1.26,0.258-1.91,0.311c-0.59,0.047-1.186,0.059-1.763,0.069l-0.697,0.016C38.135,48.273,38.128,48.273,38.12,48.273z M42.368,44.423c-0.387,0-0.782,0.153-1.184,0.46c-0.662,0.504-1.317,1.168-2.062,2.088c-0.169,0.208-0.335,0.421-0.505,0.641l0.213-0.005c0.575-0.011,1.149-0.021,1.722-0.067c0.616-0.049,1.223-0.147,1.805-0.293c0.13-0.032,0.259-0.073,0.388-0.113c0.362-0.113,0.728-0.237,1.153-0.199c0.051,0.004,0.221,0.003,0.269,0.001c0.419-0.034,0.794,0.084,1.156,0.198c0.129,0.04,0.258,0.081,0.388,0.113c0.583,0.146,1.189,0.244,1.805,0.293c0.572,0.046,1.147,0.057,1.723,0.067l0.212,0.005c-0.17-0.22-0.336-0.433-0.505-0.641c-0.746-0.922-1.401-1.585-2.062-2.088c-0.806-0.616-1.589-0.611-2.322,0.007c-0.074,0.062-0.141,0.137-0.21,0.212l-0.08,0.086c-0.061,0.065-0.146,0.103-0.236,0.103c0,0,0,0-0.001,0c-0.09,0-0.176-0.038-0.237-0.104l-0.07-0.076c-0.071-0.079-0.141-0.156-0.217-0.221C43.138,44.579,42.757,44.423,42.368,44.423z"/><path fill="#ee3e54" d="M49.605,47.951c-0.98,0.031-1.96,0.096-2.888,0.523c-0.455,0.21-0.881,0.513-1.328,0.753c-0.451,0.243-0.903,0.362-1.355,0.368c-0.452-0.006-0.904-0.125-1.355-0.368c-0.447-0.241-0.873-0.543-1.328-0.753c-0.928-0.427-1.908-0.493-2.888-0.523c-0.16-0.005-0.319-0.001-0.522-0.001c0.139,0.339,0.255,0.63,0.377,0.917c0.592,1.387,1.357,2.591,2.495,3.37c1.035,0.708,2.115,1.007,3.218,0.994v0c0.001,0,0.003,0,0.004,0c0.001,0,0.003,0,0.004,0v0c1.103,0.013,2.183-0.286,3.218-0.994c1.138-0.778,1.903-1.983,2.495-3.37c0.123-0.287,0.238-0.578,0.377-0.917C49.924,47.95,49.765,47.946,49.605,47.951z"/><path fill="#472b29" d="M44.108,53.555c-0.051,0-0.1,0-0.15,0c-1.189,0-2.31-0.354-3.33-1.051c-1.07-0.732-1.899-1.848-2.61-3.51c-0.088-0.207-0.173-0.415-0.265-0.642l-0.114-0.28c-0.041-0.101-0.029-0.214,0.031-0.304c0.06-0.091,0.161-0.145,0.27-0.145l0.182-0.001c0.124,0,0.238-0.001,0.35,0.002c0.987,0.032,2.032,0.101,3.015,0.554c0.283,0.13,0.556,0.295,0.828,0.459c0.172,0.104,0.344,0.209,0.519,0.303c0.402,0.216,0.796,0.324,1.205,0.329c0.396-0.005,0.802-0.116,1.197-0.329c0.176-0.095,0.348-0.198,0.52-0.303c0.272-0.165,0.544-0.329,0.827-0.459c0.982-0.453,2.027-0.521,3.014-0.554c0.001,0,0.001,0,0.001,0c0.11-0.003,0.223-0.003,0.35-0.002l0.183,0.001c0.108,0,0.21,0.055,0.27,0.145c0.06,0.09,0.071,0.204,0.03,0.305l-0.137,0.333c-0.084,0.206-0.162,0.397-0.243,0.588c-0.709,1.661-1.538,2.776-2.61,3.51C46.419,53.202,45.298,53.555,44.108,53.555z M44.025,52.905c0.022,0.001,0.045,0.001,0.067,0.001c1.072,0,2.069-0.315,2.979-0.938c0.966-0.66,1.722-1.686,2.38-3.229c0.064-0.151,0.128-0.304,0.193-0.464c-0.01,0-0.02,0-0.029,0.001c-0.958,0.03-1.89,0.091-2.763,0.493c-0.26,0.12-0.511,0.273-0.762,0.425c-0.182,0.11-0.363,0.22-0.548,0.319c-0.489,0.264-0.995,0.4-1.506,0.407c-0.518-0.007-1.023-0.144-1.514-0.407c-0.185-0.1-0.365-0.209-0.547-0.318c-0.251-0.152-0.502-0.305-0.763-0.426c-0.873-0.402-1.806-0.463-2.764-0.493c-0.009-0.001-0.019-0.001-0.027-0.001c0.065,0.16,0.128,0.313,0.192,0.465c0.66,1.543,1.416,2.568,2.38,3.228C41.924,52.604,42.949,52.933,44.025,52.905z"/><g><path fill="#472b29" d="M72.141,46.683c3.548,5.793,1.482,11.91-1.707,17.315c-0.232,0.394,0.38,0.751,0.612,0.358c3.327-5.638,5.386-12.023,1.707-18.031C72.515,45.937,71.902,46.293,72.141,46.683L72.141,46.683z"/><path fill="#9daa39" d="M73.506,45.107c0.679,1.285,0.254,1.928-0.549,2.192c-0.803,0.264-1.681,0.049-2.36-1.236s-0.099-3.418-0.099-3.418S72.827,43.822,73.506,45.107z"/><path fill="#472b29" d="M72.371,47.752c-0.645,0-1.444-0.307-2.087-1.523c-0.736-1.393-0.152-3.584-0.127-3.676c0.028-0.104,0.101-0.188,0.198-0.231c0.097-0.042,0.206-0.041,0.304,0.008c0.099,0.05,2.438,1.243,3.161,2.613c0.382,0.723,0.476,1.336,0.278,1.823c-0.163,0.406-0.51,0.699-1.029,0.871C72.878,47.699,72.637,47.752,72.371,47.752z M70.745,43.182c-0.121,0.658-0.265,1.901,0.166,2.715c0.508,0.962,1.158,1.325,1.937,1.065c0.312-0.103,0.512-0.258,0.594-0.462c0.113-0.281,0.028-0.706-0.248-1.229C72.768,44.467,71.514,43.626,70.745,43.182z"/><path fill="#f9acb4" d="M78.724,61.374c-1.979-0.669-3.959-1.206-6.124-0.27c-0.198-2.34-1.596-3.844-3.21-5.237c-0.228-0.197-0.437-0.328-0.642-0.392c-0.205,0.064-0.414,0.196-0.642,0.392c-1.614,1.393-3.012,2.897-3.21,5.237c-2.164-0.936-4.144-0.399-6.124,0.27c-0.698,0.236-0.946,0.588-0.788,1.348c0.508,2.443,1.155,4.766,3.909,5.729c-1.305,1.156-1.781,2.577-1.929,4.092c-0.034,0.348,0.363,0.941,0.709,1.085c1.933,0.805,3.892,1.16,5.683-0.339c1.08,1.45,1.752,2.351,2.392,2.556c0.64-0.206,1.313-1.106,2.392-2.556c1.791,1.499,3.75,1.144,5.683,0.339c0.346-0.144,0.743-0.737,0.709-1.085c-0.148-1.515-0.624-2.936-1.929-4.092c2.754-0.963,3.4-3.286,3.909-5.729C79.67,61.961,79.422,61.61,78.724,61.374z"/><path fill="#fc5672" d="M61.83 68.286c2.236-.355 4.386-1.017 6.168-2.075.126-.075.253-.154.329-.259.07-.098.091-.211.093-.322.008-.616-.526-1.154-1.035-1.64-.965-.921-1.949-2.316-2.914-3.238 0 0-2.728-.909-6.253.98 0 0-.705.897.128 2.78C59.178 66.394 60.948 68.426 61.83 68.286zM76.011 68.296c-2.223-.35-4.361-1.001-6.131-2.042-.125-.073-.251-.151-.327-.255-.07-.096-.091-.208-.092-.317-.008-.606.522-1.136 1.029-1.614.959-.907 2.264-2.339 3.223-3.246 0 0 5.602-.462 6.115.876 0 0 .476 1.031-.352 2.883C78.647 66.434 76.887 68.433 76.011 68.296z"/><path fill="#fc5672" d="M69.163,69.584c-0.402,0.611-1.102,1.198-1.838,1.654c-0.929-1.56-0.433-3.371,0.8-4.839c0,0,1.304-0.797,2.075,0c1.338,1.384,1.729,3.279,0.8,4.839C70.265,70.782,69.565,70.196,69.163,69.584"/><g><path fill="#472b29" d="M68.86,76.503c-0.047,0-0.093-0.008-0.138-0.021c-0.733-0.236-1.391-1.055-2.401-2.403c-2.039,1.425-4.215,0.828-5.907,0.128c-0.5-0.207-1.061-0.971-1.002-1.566c0.163-1.66,0.683-2.94,1.621-3.974c-2.452-1.158-3.129-3.455-3.643-5.911c-0.203-0.971,0.148-1.573,1.104-1.895c1.964-0.661,3.908-1.188,6.045-0.473c0.402-2.336,1.938-3.832,3.369-5.062c0.288-0.247,0.556-0.406,0.817-0.488c0.088-0.027,0.18-0.027,0.268,0c0.265,0.082,0.524,0.237,0.816,0.488c1.432,1.229,2.968,2.727,3.37,5.062c2.137-0.718,4.081-0.188,6.045,0.473c0.957,0.322,1.308,0.924,1.104,1.896c-0.513,2.455-1.188,4.752-3.643,5.91c0.939,1.033,1.459,2.313,1.622,3.974c0.059,0.596-0.502,1.359-1.003,1.566c-1.695,0.702-3.867,1.298-5.906-0.128c-1.013,1.349-1.67,2.168-2.401,2.403C68.953,76.495,68.907,76.503,68.86,76.503z M66.409,72.994c0.018,0,0.035,0.001,0.053,0.003c0.122,0.015,0.233,0.079,0.308,0.178c0.905,1.212,1.581,2.116,2.091,2.39c0.509-0.273,1.185-1.178,2.091-2.39c0.074-0.099,0.186-0.163,0.308-0.178c0.122-0.014,0.246,0.022,0.341,0.102c1.404,1.17,3.005,1.254,5.361,0.275c0.187-0.076,0.459-0.495,0.451-0.647c-0.166-1.695-0.746-2.929-1.826-3.881c-0.12-0.106-0.175-0.268-0.144-0.425c0.03-0.157,0.143-0.285,0.294-0.338c2.554-0.889,3.191-3.021,3.712-5.512c0.11-0.527,0.021-0.68-0.51-0.857l0,0c-1.958-0.66-3.888-1.178-5.953-0.289c-0.131,0.057-0.283,0.048-0.409-0.027c-0.124-0.074-0.205-0.203-0.217-0.348c-0.179-2.103-1.383-3.535-3.135-5.04c-0.136-0.116-0.256-0.201-0.364-0.257c-0.109,0.056-0.229,0.141-0.365,0.257c-1.751,1.504-2.955,2.938-3.134,5.04c-0.012,0.145-0.093,0.273-0.217,0.348c-0.125,0.075-0.277,0.084-0.409,0.027c-2.064-0.889-3.994-0.371-5.953,0.289c-0.53,0.178-0.621,0.33-0.511,0.857c0.521,2.49,1.16,4.624,3.712,5.512c0.151,0.053,0.264,0.181,0.294,0.338c0.031,0.157-0.023,0.318-0.144,0.425c-1.079,0.952-1.659,2.186-1.825,3.882c-0.008,0.151,0.265,0.57,0.449,0.646c2.357,0.976,3.959,0.895,5.363-0.275C66.202,73.031,66.304,72.994,66.409,72.994z"/><path fill="#472b29" d="M61.836 68.641c-.141 0-.262-.104-.281-.245-.021-.155.089-.298.243-.319 2.269-.304 4.417-1.037 6.215-2.121.082-.049.204-.122.251-.188.029-.042.043-.098.045-.178.006-.506-.458-.997-.976-1.498l-2.967-2.877c-.112-.108-.115-.288-.006-.4.109-.113.288-.115.4-.006l2.967 2.875c.61.591 1.156 1.182 1.147 1.915-.003.198-.052.36-.147.495-.106.152-.261.252-.423.349-1.863 1.123-4.087 1.883-6.431 2.197C61.86 68.64 61.847 68.641 61.836 68.641zM75.761 68.567c-.014 0-.027-.001-.041-.003-2.133-.312-4.155-1.065-5.85-2.18-.149-.099-.291-.199-.389-.352-.086-.133-.13-.291-.131-.483-.009-.718.486-1.302 1.039-1.886l2.691-2.847c.108-.114.287-.119.4-.012.114.107.119.287.012.4l-2.691 2.848c-.47.496-.891.983-.885 1.49.001.082.014.141.04.182.043.065.147.135.225.186 1.626 1.068 3.569 1.792 5.62 2.093.155.022.262.166.239.321C76.021 68.465 75.9 68.567 75.761 68.567z"/><path fill="#472b29" d="M67.268,71.804c-0.022,0-0.045-0.002-0.067-0.008c-0.075-0.019-0.14-0.066-0.178-0.134c-0.941-1.631-0.621-3.688,0.856-5.504c0.1-0.122,0.277-0.14,0.398-0.041c0.122,0.099,0.14,0.277,0.041,0.398c-1.26,1.549-1.596,3.205-0.945,4.595c0.692-0.479,1.242-1.01,1.562-1.515c0.084-0.133,0.262-0.171,0.392-0.087c0.132,0.084,0.171,0.26,0.087,0.392c-0.403,0.633-1.111,1.294-1.993,1.858C67.375,71.79,67.322,71.804,67.268,71.804z"/><path fill="#472b29" d="M71.083,71.804c-0.054,0-0.107-0.015-0.153-0.045c-0.881-0.565-1.589-1.226-1.993-1.858c-0.084-0.132-0.045-0.308,0.087-0.392c0.13-0.084,0.306-0.046,0.392,0.087c0.321,0.504,0.87,1.035,1.562,1.515c0.651-1.39,0.315-3.046-0.944-4.595c-0.099-0.121-0.081-0.3,0.041-0.398c0.121-0.099,0.301-0.081,0.398,0.041c1.478,1.815,1.797,3.873,0.855,5.504c-0.038,0.067-0.103,0.115-0.178,0.134C71.128,71.802,71.105,71.804,71.083,71.804z"/></g><path fill="#829038" d="M81.757,55.146c-3.235-0.506-6.29,1.214-6.29,1.214s2.261,2.329,5.495,2.835c3.235,0.506,6.47-0.93,6.47-0.93S84.992,55.652,81.757,55.146z"/><path fill="#a7ab49" d="M81.347,55.198c3.924,0.509,5.661,2.918,5.661,2.918l-11.638-1.813C75.369,56.303,78.216,54.792,81.347,55.198z"/><g><path fill="#472b29" d="M82.809,59.784c-0.596,0-1.22-0.045-1.857-0.154l0,0c-3.702-0.633-6.403-3.159-6.517-3.267l-0.373-0.354l0.464-0.223c0.135-0.064,3.352-1.579,7.058-0.951c3.702,0.633,6.403,3.16,6.517,3.268l0.373,0.354l-0.464,0.223C87.898,58.733,85.674,59.784,82.809,59.784z M75.349,56.212c0.883,0.712,3.054,2.262,5.722,2.718l0,0c2.646,0.457,5.085-0.289,6.115-0.677c-0.883-0.713-3.055-2.263-5.722-2.719C78.814,55.082,76.379,55.824,75.349,56.212z"/><path fill="#9daa39" d="M78.074,53.604c-0.852,1.741-3.151,2.55-3.151,2.55s-0.917-2.013-0.065-3.754c0.852-1.741,3.151-2.55,3.151-2.55S78.927,51.863,78.074,53.604z"/><path fill="#472b29" d="M74.734,56.595L74.6,56.3c-0.04-0.088-0.976-2.187-0.061-4.057c0.906-1.849,3.253-2.692,3.352-2.728l0.307-0.107l0.134,0.295c0.04,0.088,0.976,2.187,0.061,4.057v-0.001c-0.905,1.851-3.253,2.693-3.353,2.729L74.734,56.595z M77.806,50.317c-0.634,0.283-2.035,1.024-2.63,2.239c-0.577,1.178-0.251,2.528-0.051,3.131c0.634-0.283,2.035-1.023,2.63-2.238v-0.001C78.333,52.27,78.007,50.92,77.806,50.317z"/><g><path fill="#9daa39" d="M75.358 56.233L87.856 58.359"/><path fill="#472b29" d="M87.856,58.487c-0.007,0-0.014-0.001-0.021-0.002l-12.498-2.127c-0.069-0.012-0.115-0.077-0.104-0.146c0.012-0.068,0.07-0.111,0.146-0.104l12.498,2.127c0.069,0.012,0.115,0.077,0.104,0.146C87.97,58.443,87.917,58.487,87.856,58.487z"/><path fill="#9daa39" d="M78.031 56.771L79.913 59.028"/><path fill="#472b29" d="M79.914,59.155c-0.036,0-0.072-0.016-0.098-0.046l-1.883-2.257c-0.045-0.054-0.037-0.134,0.017-0.179s0.134-0.037,0.179,0.017l1.883,2.257c0.045,0.054,0.037,0.134-0.017,0.179C79.971,59.145,79.942,59.155,79.914,59.155z"/><g><path fill="#9daa39" d="M80.801 57.321L82.683 59.578"/><path fill="#472b29" d="M82.683,59.705c-0.036,0-0.072-0.016-0.098-0.046l-1.883-2.257c-0.045-0.054-0.037-0.134,0.017-0.179c0.054-0.044,0.134-0.037,0.179,0.017l1.883,2.257c0.045,0.054,0.037,0.134-0.017,0.179C82.741,59.695,82.712,59.705,82.683,59.705z"/></g><g><path fill="#9daa39" d="M83.226 57.572L84.652 59.281"/><path fill="#472b29" d="M84.652,59.409c-0.036,0-0.072-0.016-0.098-0.046l-1.427-1.71c-0.045-0.054-0.037-0.134,0.017-0.179c0.054-0.044,0.134-0.038,0.179,0.017l1.427,1.71c0.045,0.054,0.037,0.134-0.017,0.179C84.71,59.399,84.68,59.409,84.652,59.409z"/></g></g></g></g></svg>