<svg xmlns="http://www.w3.org/2000/svg" viewBox="0 0 16 16"><path d="M 7 1.0039062 C 5.2075046 1.0039062 3.415344 1.6862187 2.0507812 3.0507812 A 0.50005 0.50005 0 0 0 2.0507812 3.7578125 L 3.8535156 5.5605469 C 3.3261678 6.2380056 3 7.0786645 3 8 L 3 8.5 A 0.50005 0.50005 0 0 0 3.5 9 L 5.5 9 C 5.7814686 9 6 9.2185314 6 9.5 L 6 10.875 L 6 11.5 C 6 11.834167 5.8196293 12.224062 5.5195312 12.519531 C 5.2194332 12.815 4.8180867 13 4.4472656 13 L 3.5 13 A 0.50005 0.50005 0 1 0 3.5 14 L 4.4472656 14 C 5.1334446 14 5.7590511 13.685 6.2207031 13.230469 C 6.6823551 12.775938 7 12.165833 7 11.5 L 7 10.910156 A 0.50005 0.50005 0 0 0 7 10.875 L 7 9.5 C 7 9.2185314 7.2185314 9 7.5 9 C 7.7814686 9 8 9.2185314 8 9.5 L 8 13.5 A 0.50005 0.50005 0 0 0 8.5 14 L 12.5 14 A 0.50005 0.50005 0 0 0 13 13.5 L 13 13.339844 A 0.50005 0.50005 0 0 0 12.863281 12.996094 L 12.371094 12.474609 C 14.663872 9.7263595 14.52714 5.6287031 11.949219 3.0507812 C 11.624696 2.7262583 11.273395 2.4446126 10.90625 2.1972656 A 0.50005 0.50005 0 0 0 10.587891 2 C 9.4862232 1.3414556 8.2452336 1.0039064 7 1.0039062 z M 7 2.0566406 L 7 4.0175781 C 6.7428867 4.0179473 6.4919609 4.0367977 6.2480469 4.0839844 L 5.5214844 2.2714844 C 6.0075366 2.1391717 6.5015047 2.0645785 7 2.0566406 z M 8 2.1269531 C 8.6120258 2.222034 9.2092939 2.413624 9.7734375 2.6992188 L 8.6679688 4.3984375 C 8.4545385 4.2916085 8.2324841 4.2016464 8 4.1367188 L 8 2.1269531 z M 4.5742188 2.59375 L 5.296875 4.4042969 C 5.0350306 4.5292343 4.7914691 4.6810021 4.5644531 4.8574219 L 3.1816406 3.4746094 C 3.6129819 3.111936 4.0825847 2.8198853 4.5742188 2.59375 z M 10.621094 3.2324219 C 10.835265 3.3932335 11.046136 3.5617614 11.242188 3.7578125 C 11.445584 3.9612096 11.62494 4.1791944 11.792969 4.4023438 L 10.029297 5.515625 C 9.8681243 5.3149808 9.689589 5.1327361 9.4960938 4.9648438 L 10.621094 3.2324219 z M 7.1621094 5.0039062 C 8.6860411 5.0838502 10 6.6349163 10 8.1972656 L 10 9.1542969 A 0.50005 0.50005 0 0 0 10 9.34375 L 10 10.144531 C 10 11.031828 10.367342 11.881077 11.013672 12.488281 L 11.015625 12.490234 L 11.496094 13 L 9 13 L 9 9.5 C 9 8.6774686 8.3225314 8 7.5 8 A 0.50005 0.50005 0 0 0 7.1582031 8.1425781 C 6.9214962 8.206236 6.6761291 8.2541149 6.5 8.4160156 C 6.2323536 8.1699906 5.8883696 8 5.5 8 L 4 8 C 4 6.2840309 5.4227243 4.9125411 7.1621094 5.0039062 z M 12.328125 5.2460938 C 12.616263 5.8027268 12.791097 6.3955849 12.892578 7 L 10.8125 7 C 10.746101 6.7795412 10.66237 6.5660243 10.5625 6.359375 L 12.328125 5.2460938 z M 10.984375 8 L 12.978516 8 C 12.977821 8.5113573 12.912235 9.0195988 12.78125 9.5175781 L 11 8.8945312 L 11 8.1972656 C 11 8.1308934 10.98763 8.0660652 10.984375 8 z M 11 9.9550781 L 12.458984 10.466797 C 12.256289 10.914026 12.001484 11.343159 11.683594 11.740234 C 11.248589 11.322849 11 10.747893 11 10.144531 L 11 9.9550781 z"/></svg>