<?xml version="1.0"?><svg xmlns="http://www.w3.org/2000/svg" viewBox="0 0 128 128">    <path d="M 14 11 C 6.8 11 1 16.8 1 24 L 1 114 C 1 121.2 6.8 127 14 127 L 66 127 L 114 127 C 121.2 127 127 121.2 127 114 L 127 62 C 127 54.8 121.2 49 114 49 L 88 49 C 86.3 49 85 50.3 85 52 C 85 53.7 86.3 55 88 55 L 114 55 C 117.9 55 121 58.1 121 62 L 121 114 C 121 117.9 117.9 121 114 121 L 76.900391 121 C 78.200391 119 79 116.6 79 114 L 79 24 C 79 16.8 73.2 11 66 11 L 14 11 z M 14 17 L 66 17 C 69.9 17 73 20.1 73 24 L 73 114 C 73 117.9 69.9 121 66 121 L 14 121 C 10.1 121 7 117.9 7 114 L 7 24 C 7 20.1 10.1 17 14 17 z M 13 23 L 13 30 L 43.599609 41.099609 L 50.099609 23 L 13 23 z M 56.5 23 L 48.199219 46 L 35.5 80.800781 L 67 92.400391 L 67 23 L 56.5 23 z M 13 36.400391 L 13 102 L 21.400391 102 L 28.900391 81.5 L 41.5 46.699219 L 13 36.400391 z M 85 61 L 85 115 L 102 115 L 102 61 L 85 61 z M 111 85 A 4 4 0 0 0 107 89 A 4 4 0 0 0 111 93 A 4 4 0 0 0 115 89 A 4 4 0 0 0 111 85 z M 33.5 86.400391 L 27.800781 102 L 67 102 L 67 98.599609 C 66.7 98.599609 66.3 98.500391 66 98.400391 L 33.5 86.400391 z M 40 109 A 4 4 0 0 0 36 113 A 4 4 0 0 0 40 117 A 4 4 0 0 0 44 113 A 4 4 0 0 0 40 109 z"/></svg>