<svg xmlns="http://www.w3.org/2000/svg" width="512" height="512" viewBox="0 0 512 512"><path fill="#71C598" d="M307.8 62.4c-.3-4.8-.4-9.6-.2-14.3-4.4 1.8-7.4-2.5-6.6-6.2-.3-.5-.7-1-1-1.4-1.1-1.4-2.2-2.7-3.4-4-2.8-2.9-5.8-5.5-9.3-7.6-9.4-5.8-19.7-9.4-30.2-12.8-4.1 9-4.8 19.4-5 29.2 3.1 1.8 3.6 6.6 1.1 8.7 5.7 4.8 10.8 10.4 15.2 16.5 7.4 10.1 10.3 21.7 16.1 32.6 1 1.9.8 3.9-.1 5.4 5.2-.3 10.4-.6 15.6-.8-1.2-1.5-2.2-3.3-3-4.6-3-5.2-5.8-10.6-8.6-15.9-4.9-9.5-10.1-19.1-14.1-29-2.6-6.3 7.3-9.7 9.9-3.5 3.3 8.2 7.6 16 11.6 23.9 2.6 5.2 5.3 10.4 8.2 15.5 1 1.7 1.9 3.5 3 5.1.2.3.4.6.6.9 2.4 1.2 3.1 4.6 1.8 7.2 2.5-.1 4.9-.1 7.4-.2 1.9 0 3.9 0 5.8-.1C311.2 96.1 308.7 77.4 307.8 62.4zM275.8 108.9c-4.9-9.3-7.2-20.2-13.3-28.8-5.3-7.5-11.2-14.8-18.6-20.3-11.8-8.6-26-10.5-40.2-9.8-6.7.3-13.8.9-20.2 3.4-1.7.7-4.5 1.7-5.5 3.4-1.2 2.1.7 5.5 1.8 7.8 1.8 3.7 4.1 7.2 6 10.8 2.3 4.4 3.6 9.3 6 13.7 1.7 3.1 3.7 6.5 6.3 9.5.7.4 1.4 1.1 1.7 1.9 3.2 3.2 7.1 5.6 11.7 5.9 2.7.2 4 1.9 4.1 3.9 10.1.1 20.1-.1 30.2-.4-5.5-5-12.4-8.7-17.5-14.1-5.2-5.6-8.9-13.9-16.3-16.7-6.3-2.4-1.6-11.8 4.7-9.4 9.2 3.5 12.9 12.6 19.4 19.1 7.2 7.1 16.4 11.6 22.6 19.8.2.3.4.6.6.9C264.8 109.5 270.3 109.2 275.8 108.9 275.8 108.9 275.8 108.9 275.8 108.9zM353 59.7c-.3-15.3-9.2-28.3-20.3-38.2-1.2-1-9.6-8.2-10.7-6.9-2.9 3.5-2.9 10.2-3.1 14.5-.5 11.6-1.4 23.3-.4 35 1 11.8 2.5 27.6 11.8 36.1 2.3 2.1 2.1 5 .6 6.9 3.7 0 7.4-.1 11.1-.1-.5-.5-.9-1.2-1.1-2.1-4.3-16.1-15.2-29.8-14.6-47 .2-6.7 10.7-7.5 10.4-.8-.4 13.1 6.4 24.2 11.1 35.9.2-1.4.4-2.8.6-4.1 1.5-7.5 3.9-14.9 6.9-22 .4-.9.8-1.7 1.2-2.6C354.7 63.8 353.1 62.4 353 59.7zM389.6 35.5c-4.4 4.3-8.4 9.2-12 14.2-4.6 6.5-9.4 13.6-12.5 20.9-2.4 5.7-4.6 11.6-5.9 17.7-.9 4.3-2.6 10.8.4 14.6.9 1.1 1.2 2.3 1.1 3.3 2.3-.1 4.6-.3 6.8-.5 3-11.8 6.7-23.5 11.6-34.6 2.8-6.2 12.1-1.5 9.4 4.7-4.2 9.4-7.3 19.1-10 29 4.2-.4 9.5-1 14.3-2.1-1.1-1.7-1.2-4 .4-6C408 78.5 395.9 55.7 389.6 35.5z"/><path fill="#FEBF10" d="M413.5 102.8c-5.2 7.4-18.2 10.1-26.2 11.3-20.2 3.3-40.7 3.3-61.1 3.4-41.7.3-83.2 4.3-125 3.2-2.7-.1-4.4-1.8-5.1-3.8-.4-.2-.8-.4-1.1-.6-4.6 13-6.3 28.2-2 40.6 1.7 4.8 3.7 8 8.3 10 2.2-.9 4.8-.5 6 1.9 2.9.7 6 1.2 8.9 1.6 15.7 1.8 31.4 2.3 47.2 2.8 30.7.9 60.3-4.7 90.4-9.9 9.4-1.6 18.9-1.9 28.4-3.2 8.4-1.2 19.1-2.9 25.1-9.6 6.1-6.7 7.5-17 8-25.7C415.6 117.6 415.5 109.9 413.5 102.8zM410.6 353c-3.2-21.4-9.2-42.2-12.2-63.6-3-21.3-2-43.2-1.4-64.6.6-19.5 2.9-38.8 3.3-58.3-7.5 2.7-15.6 3.9-23.4 4.7-10 1.1-19.8 2.1-29.7 3.9-30.7 5.8-61.1 9.1-92.4 8.4-14.6-.4-29.6-.8-44-3.5-.2 0-.4-.1-.6-.1 4.4 18.4 8.5 37 10.7 55.9 1.7 14.6 2.4 29.4 1.4 44.1-.7 10.9-1.9 22-6.9 31.9-8 15.9-22.4 26.2-38 34.1-16.2 8.2-33.6 14.1-49 23.8-9.1 5.8-16.5 12.5-20.9 22.6-4.1 9.4-6.1 19.6-8.1 29.6.7 1.3.8 2.9-.3 4.6-2.3 3.6.1 6.1 3.7 8.8 5.1 3.8 11.1 6.4 17 8.6 19.9 7.4 41.8 9 62.9 8.1 28.7-1.2 55.5-8.7 81.9-19.7 13-5.4 26-9.5 40.1-10.6 13.3-1 26.6-.1 40 .1 19.6.3 45.1 2.7 57.4-16.2.4-.5.8-1 1.2-1.3.5-7.8 3.2-15.2 5.5-22.7 1.3-4.4 2.6-8.9 3-13.5C412.2 363.1 411.3 357.9 410.6 353z"/><path fill="#127274" d="M406.5,453.8c-0.4-7.4-1.7-14.7-2-22c-0.2-4.4,0.3-9,0.2-13.5c-17.3,16.5-44.5,14.6-67.7,13.7c-13.7-0.5-27.6-1.1-41.2,1.2c-14.2,2.4-26.8,8.8-40.2,13.8c-26.5,10-54,15.7-82.4,15.5c-20.5-0.2-40.9-2.4-60-10.1c-4.7-1.9-11.4-5-16.9-9.1c0.1,5.3,0.5,10.5,1.4,15.7c0.8,5,2.3,9.8,3.5,14.7c0.7,3,1.6,6.6,4.1,8.6c4.3,3.5,10.9,2.8,16.1,3c7.7,0.2,14,1.5,21,4.8c4.8,2.3,9.8,4.9,15.3,4.8c4.5-0.1,9.1-0.9,13.6-0.8c10.5,0.1,20.2,5.4,30.5,1.5c4.6-1.8,9.1-4,14-5c4.7-0.9,9.5-0.5,14.3-0.1c5.1,0.4,10.3,1,15.3,0.1c5.3-1,10.4-3.1,15.6-4.8c6.1-1.9,13.2-2.7,18.9-5.9c5.1-2.9,8.1-6.2,10.7-11.5c3.4-6.9,8.8-19.8,18.5-19.3c7.4,0.4,10.9,6.1,13.9,12.2c2.3,4.7,4.6,13.3,9.7,15.9c4.5,2.3,9.6-1,13.7-2.7c5.7-2.3,11.6-2.9,17.7-2.3c10.7,1.1,22.4,5.8,33,1.2C404.7,470,406.9,461.7,406.5,453.8z"/><path fill="#010101" d="M410.8,160.9c8.2-6.4,12-15.9,13.8-26.5c2.2-13.2,2.3-29.2-3.6-41.5c-1.4-3-4.6-3.7-7.1-2.8c-1.3-1.2-3.2-1.6-4.9-1.3c5.7-20.9-7-43-11.5-64.4c-0.7-3.2-5.4-4.6-7.9-2.6c-7.6,6.1-14.1,13.3-19.8,21.2c-2.3,3.2-4.7,6.6-6.9,10c-2.3-15.9-12.3-29.4-24.2-40c-4.8-4.2-11.6-9.6-18.4-8.5c-7.6,1.2-9.9,9.2-11.1,15.8c-0.8,4.7-0.8,9.5-1,14.2c-2.6-3.5-5.8-6.6-7.6-8.4c-5.7-5.7-14.1-9.7-21.5-12.9c-7.7-3.4-15.8-5.8-23.8-8.3c-2.3-0.7-4.6,1-5.7,2.8c-6.9,11.4-7.9,25.5-8.1,38.7c-13.7-7-30-7.6-45-6.1c-7.7,0.8-15.8,2.3-22.4,6.5c-8.2,5.2-7.8,13.6-4.2,21.7c1.9,4.3,4.4,8.2,6.7,12.3c2.8,5,4.5,10.9,7.2,16c1.3,2.5,3,5,4.9,7.4c-9,18.4-12.6,43.8-3.3,62.3c2.8,5.6,7.7,8.7,13.1,10.7c6.7,27.7,12.7,55.7,13.5,84.3c0.6,21.7-0.5,44.1-16.8,60.1c-12.4,12.2-29.9,18.7-45.5,25.6c-17,7.6-36.4,15.9-47,31.9c-8.6,12.9-11.3,28.4-14.2,43.4c-0.6,0.7-1.1,1.5-1.2,2.6c-2.3,13.7-1.7,27.6,1.2,41.2c2.1,10,4.2,21.6,14,26.8c7.4,3.9,16.6,2.3,24.6,3.2c5.5,0.6,10.1,3.3,15.1,5.5c6.3,2.9,12.6,4,19.5,3.7c6.6-0.3,12.5-1.2,19.1,0.5c7.2,1.8,13.9,2.7,21.2,0.9c6-1.5,11.3-5.2,17.6-6.1c7-0.9,14.5,0.9,21.6,0.9c6.9,0,13.6-2.6,20.1-4.7c6.5-2.2,13.3-3.4,19.6-5.9c5.2-2,9.7-5.1,13.6-9c3.9-4,6-9.9,8.5-14.8c1.3-2.4,3.8-7.1,6.3-7.5c0.1,0,0.1,0,0.1,0c0.9,0.7,1.3,1.4,2,2.4c3.3,5.1,5.1,11,8.3,16.2c3.4,5.7,8.4,9.7,15.1,10.1c5.4,0.4,10.1-1.9,14.9-3.9c5.5-2.4,11.2-2.2,17.1-1.3c10.2,1.6,19.5,3.7,29.8,1.4c7.2-1.6,13.2-6.4,16.7-12.8c4.5-8.1,3.7-18,2.8-26.8c-0.7-6.4-1.3-12.9-1.3-19.4c-0.1-6.3,0.5-12.1-1.2-18.3c-0.3-8.6,3.4-17.1,5.8-25.3c2.8-9.6,3.1-18.3,1.8-28.1c-2.8-21.4-8.9-42.2-12.2-63.6c-3.3-21.2-2.2-43.1-1.7-64.5C407.9,204.1,410.7,182.6,410.8,160.9z M359.3,88.4c1.3-6.1,3.4-12,5.9-17.7c3.1-7.4,7.9-14.4,12.5-20.9c3.6-5,7.5-9.9,12-14.2c6.2,20.2,18.4,42.9,3.7,61.3c-1.6,2-1.4,4.3-0.4,6c-4.8,1.1-10.1,1.7-14.3,2.1c2.6-9.9,5.8-19.7,10-29c2.8-6.2-6.6-10.8-9.4-4.7c-5,11.1-8.6,22.8-11.6,34.6c-2.3,0.2-4.6,0.3-6.8,0.5c0.1-1.1-0.2-2.2-1.1-3.3C356.7,99.2,358.4,92.8,359.3,88.4z M318.9,29.1c0.2-4.3,0.3-11,3.1-14.5c1.1-1.3,9.6,5.9,10.7,6.9c11.1,9.9,20,22.9,20.3,38.2c0.1,2.6,1.7,4.1,3.6,4.5c-0.4,0.9-0.8,1.7-1.2,2.6c-3,7.1-5.4,14.4-6.9,22c-0.3,1.3-0.5,2.7-0.6,4.1c-4.7-11.7-11.6-22.8-11.1-35.9c0.2-6.7-10.2-5.9-10.4,0.8c-0.6,17.3,10.3,31,14.6,47c0.2,0.9,0.6,1.6,1.1,2.1c-3.7,0.1-7.4,0.1-11.1,0.1c1.4-2,1.7-4.8-0.6-6.9c-9.3-8.5-10.9-24.3-11.8-36.1C317.5,52.4,318.3,40.7,318.9,29.1z M257.1,16.1c10.4,3.3,20.7,7,30.2,12.8c3.5,2.1,6.5,4.7,9.3,7.6c1.2,1.3,2.4,2.6,3.4,4c0.4,0.5,0.7,0.9,1,1.4c-0.8,3.6,2.2,8,6.6,6.2c-0.1,4.8,0,9.6,0.2,14.3c0.9,15,3.3,33.6,14.6,44.7c-1.9,0-3.9,0-5.8,0.1c-2.5,0-4.9,0.1-7.4,0.2c1.3-2.6,0.6-6-1.8-7.2c-0.2-0.3-0.4-0.6-0.6-0.9c-1.1-1.7-2-3.4-3-5.1c-2.8-5.1-5.5-10.3-8.2-15.5c-4-7.9-8.2-15.7-11.6-23.9c-2.5-6.2-12.5-2.8-9.9,3.5c4.1,9.9,9.3,19.4,14.1,29c2.7,5.4,5.5,10.7,8.6,15.9c0.8,1.3,1.8,3.1,3,4.6c-5.2,0.2-10.4,0.5-15.6,0.8c0.9-1.5,1.1-3.5,0.1-5.4c-5.8-10.9-8.7-22.5-16.1-32.6c-4.5-6.1-9.5-11.7-15.2-16.5c2.5-2.1,2-6.8-1.1-8.7C252.2,35.5,253,25.1,257.1,16.1z M186,75.6c-1.9-3.7-4.2-7.1-6-10.8c-1.1-2.4-3-5.8-1.8-7.8c1-1.7,3.8-2.7,5.5-3.4c6.3-2.5,13.4-3.1,20.2-3.4c14.2-0.7,28.4,1.2,40.2,9.8c7.5,5.5,13.3,12.8,18.6,20.3c6.1,8.6,8.4,19.5,13.3,28.8c0,0,0,0,0,0c-5.5,0.3-11,0.6-16.5,0.8c-0.2-0.3-0.3-0.6-0.6-0.9c-6.2-8.2-15.4-12.6-22.6-19.8c-6.6-6.5-10.2-15.6-19.4-19.1c-6.3-2.4-11,7-4.7,9.4c7.5,2.9,11.1,11.2,16.3,16.7c5.1,5.5,12,9.1,17.5,14.1c-10.1,0.3-20.1,0.4-30.2,0.4c-0.1-2-1.4-3.8-4.1-3.9c-4.6-0.3-8.5-2.6-11.7-5.9c-0.4-0.8-1-1.5-1.7-1.9c-2.5-3-4.6-6.4-6.3-9.5C189.6,84.9,188.2,80,186,75.6z M397,473.4c-10.6,4.6-22.2-0.1-33-1.2c-6.1-0.6-12,0-17.7,2.3c-4.2,1.7-9.3,5-13.7,2.7c-5-2.5-7.4-11.2-9.7-15.9c-2.9-6.1-6.5-11.8-13.9-12.2c-9.7-0.5-15.1,12.4-18.5,19.3c-2.6,5.2-5.5,8.6-10.7,11.5c-5.7,3.2-12.7,4-18.9,5.9c-5.1,1.6-10.3,3.7-15.6,4.8c-5,1-10.2,0.3-15.3-0.1c-4.7-0.4-9.6-0.8-14.3,0.1c-4.9,1-9.4,3.2-14,5c-10.3,3.9-20-1.4-30.5-1.5c-4.5,0-9.1,0.8-13.6,0.8c-5.4,0.1-10.5-2.6-15.3-4.8c-7-3.3-13.3-4.6-21-4.8c-5.2-0.2-11.8,0.5-16.1-3c-2.5-2.1-3.4-5.6-4.1-8.6c-1.2-4.9-2.6-9.7-3.5-14.7c-0.9-5.2-1.3-10.5-1.4-15.7c5.4,4.1,12.2,7.2,16.9,9.1c19.1,7.7,39.5,9.9,60,10.1c28.4,0.3,55.9-5.5,82.4-15.5c13.3-5,26-11.4,40.2-13.8c13.6-2.3,27.5-1.8,41.2-1.2c23.2,0.9,50.4,2.8,67.7-13.7c0.1,4.5-0.4,9.1-0.2,13.5c0.3,7.4,1.6,14.7,2,22C406.9,461.7,404.7,470,397,473.4z M410.6,353c0.7,5,1.6,10.1,1.2,15.1c-0.4,4.6-1.7,9.1-3,13.5c-2.2,7.5-5,14.9-5.5,22.7c-0.4,0.4-0.9,0.8-1.2,1.3c-12.3,18.9-37.8,16.5-57.4,16.2c-13.3-0.2-26.6-1.1-40-0.1c-14.1,1.1-27.1,5.1-40.1,10.6c-26.4,11-53.2,18.5-81.9,19.7c-21.1,0.9-43-0.7-62.9-8.1c-5.9-2.2-11.9-4.8-17-8.6c-3.6-2.7-6-5.2-3.7-8.8c1.1-1.7,1-3.3,0.3-4.6c1.9-10.1,3.9-20.2,8.1-29.6c4.4-10.1,11.8-16.8,20.9-22.6c15.4-9.7,32.8-15.6,49-23.8c15.5-7.9,30-18.1,38-34.1c5-9.9,6.2-21,6.9-31.9c1-14.7,0.3-29.5-1.4-44.1c-2.2-18.8-6.3-37.4-10.7-55.9c0.2,0,0.4,0.1,0.6,0.1c14.4,2.6,29.4,3.1,44,3.5c31.3,0.8,61.6-2.6,92.4-8.4c9.9-1.9,19.7-2.9,29.7-3.9c7.9-0.8,16-2,23.4-4.7c-0.5,19.5-2.8,38.8-3.3,58.3c-0.6,21.4-1.6,43.3,1.4,64.6C401.4,310.8,407.4,331.6,410.6,353z M382.1,160c-9.4,1.4-19,1.6-28.4,3.2c-30.1,5.1-59.7,10.8-90.4,9.9c-15.8-0.4-31.4-1-47.2-2.8c-2.9-0.3-5.9-0.9-8.9-1.6c-1.2-2.4-3.8-2.8-6-1.9c-4.6-2-6.6-5.2-8.3-10c-4.3-12.4-2.7-27.6,2-40.6c0.4,0.2,0.7,0.4,1.1,0.6c0.7,2,2.4,3.8,5.1,3.8c41.8,1.1,83.3-2.9,125-3.2c20.4-0.1,40.9-0.2,61.1-3.4c8-1.3,21-3.9,26.2-11.3c1.9,7.1,2.1,14.8,1.7,22c-0.5,8.7-1.9,19-8,25.7C401.2,157.1,390.5,158.8,382.1,160z"/></svg>