<svg xmlns="http://www.w3.org/2000/svg" viewBox="0 0 24 24"><path d="M 20.5 13.5 C 20 11.5 18.101563 10.601563 18.101563 10.601563 C 18.101563 10.601563 20.199219 9.398438 22.5 9.601563 C 21 7 18.199219 8.398438 18.199219 8.398438 C 18.199219 8.398438 19.101563 7.699219 19.101563 6.398438 C 19 3.601563 14.800781 1 14.398438 1 C 14 1 14.398438 2.199219 13.101563 2.300781 C 12.101563 2.398438 11.101563 0.699219 10.601563 0.699219 C 10 0.699219 10.699219 2.101563 9.601563 2.101563 C 8.5 2.101563 7.601563 0.5 7.101563 0.5 C 6.601563 0.5 7.800781 2.699219 6.5 2.898438 C 5.300781 3.101563 3.699219 0 3.398438 0 C 2.5 0 2.800781 8 7.898438 8 C 8.898438 8 10.300781 7.300781 10.300781 7.300781 C 10.300781 7.300781 4.398438 12.601563 3 15.101563 C 3 18.601563 9.300781 23.898438 14.601563 23.898438 C 15 22.898438 15.898438 20.398438 16 19.300781 C 15.300781 19.300781 13 18.800781 13 16.300781 C 13 14.199219 15.601563 12.601563 15.601563 12.601563 C 14.898438 13.300781 14.199219 14.800781 14.199219 16 C 14.199219 17.101563 15.199219 18 16.199219 18 C 17.601563 18 18.398438 17.199219 18.398438 15.898438 C 18.398438 14.800781 17.699219 12.699219 17.699219 12.699219 C 17.699219 12.699219 19.5 12.699219 20.5 13.5 Z M 14 10.101563 C 13.398438 10.101563 12.898438 9.601563 12.898438 9 C 12.898438 8.398438 13.398438 7.898438 14 7.898438 C 14.601563 7.898438 15.101563 8.398438 15.101563 9 C 15.101563 9.601563 14.601563 10.101563 14 10.101563 Z"/></svg>