<svg xmlns="http://www.w3.org/2000/svg" viewBox="0 0 48 48"><path fill="#d6e5e5" d="M1.915,19.881l-0.317-7.412c0,0-0.597-2.522,2.16-2.816c2.757-0.294,10.013-0.574,14.868-0.466 c4.855,0.108,9.964,0.384,15.325-0.433c4.783-0.729,8.782-0.122,11.058,1.485c1.963,1.386,1.038,8.995,1.038,8.995L1.915,19.881z"/><path fill="#4b7bb2" d="M2.002,19.969l0.29,8.938c0,0,14.687,0.465,20.645,0.321c5.959-0.144,18.433-0.039,23.477-0.727 c-0.044-2.939-0.351-9.143-0.351-9.143L2.002,19.969z"/><path fill="#ef4823" d="M2.083,29.337l25.707-0.206l18.789-0.399c0,0,0.338,5.373-0.587,7.919s-2.385,2.417-4.113,2.502 c-1.728,0.085-10.671,0.459-11.733,0.44c-1.062-0.019-11.805-0.538-13.101-0.581c-1.296-0.042-10.734,0.029-12.065-0.641 s-3.205-1.687-3.116-4.452L2.083,29.337z"/><path fill="#010101" d="M46.748,31.399c-0.474-5.104-0.321-10.331-0.174-15.386c0.032-1.09,0.063-2.18,0.09-3.269 c0.013-0.506,0.026-1.079-0.221-1.621c-0.188-0.411-0.497-0.726-0.746-0.953c-1.924-1.766-4.828-2.446-8.871-2.081 c-0.895,0.081-1.815,0.185-2.746,0.289c-2.167,0.243-4.409,0.461-6.49,0.479c-1.993-0.014-4.041-0.062-6.109-0.108 C16.555,8.636,11.462,8.518,6.695,8.846C6.121,8.885,5.036,8.967,4.227,9.074c-0.744,0.099-2.293,0.304-2.881,1.501 c-0.267,0.541-0.254,1.13-0.244,1.604c0.048,2.146,0.152,4.323,0.253,6.43c0.161,3.372,0.319,6.826,0.258,10.263 c-0.01,0.032-0.026,0.062-0.028,0.097c-0.004,0.07,0.006,0.136,0.028,0.198c-0.026,1.21-0.08,2.418-0.174,3.618L1.427,32.92 c-0.078,0.979-0.158,1.991,0.177,2.971c0.445,1.306,1.646,2.409,3.212,2.953c1.307,0.453,2.661,0.511,4.169,0.536 c0.896,0.015,1.794,0.022,2.691,0.03c2.919,0.025,5.937,0.051,8.879,0.33c1.576,0.148,3.71,0.261,5.311,0.277 c1.306,0.014,2.563,0.022,3.8,0.022c3.02,0,5.919-0.052,9.114-0.209c0.807-0.039,1.474-0.078,2.14-0.117 c0.662-0.04,1.325-0.079,2.127-0.118c0.445-0.022,0.949-0.048,1.429-0.252c0.508-0.217,0.963-0.63,1.354-1.229 C47.18,36.048,46.975,33.834,46.748,31.399z M2.438,20.361c7.243-0.425,14.621-0.445,21.809-0.46l21.225-0.042 c-0.059,2.745-0.068,5.527,0.06,8.318c-2.889,0.353-5.541,0.356-8.336,0.357h-1.663c-3.483,0.01-7.022,0.082-10.444,0.151 c-7.372,0.15-14.987,0.299-22.469-0.156C2.657,25.793,2.561,23.056,2.438,20.361z M2.243,11.017 c0.309-0.631,1.199-0.829,2.114-0.95c0.783-0.104,1.844-0.185,2.406-0.223c2.3-0.158,4.683-0.212,7.088-0.212 c2.533,0,5.092,0.06,7.605,0.117c2.074,0.048,4.127,0.096,6.125,0.109c2.152,0.005,4.412-0.239,6.609-0.486 c0.924-0.104,1.837-0.206,2.725-0.286c3.801-0.342,6.376,0.235,8.105,1.821c0.189,0.175,0.399,0.387,0.512,0.633 c0.152,0.332,0.142,0.763,0.131,1.181c-0.025,1.088-0.058,2.176-0.089,3.264c-0.028,0.952-0.054,1.911-0.078,2.874L24.195,18.9 c-7.15,0.015-14.536,0.036-21.804,0.462c-0.013-0.267-0.025-0.535-0.038-0.802c-0.101-2.1-0.205-4.271-0.252-6.403 C2.094,11.773,2.084,11.339,2.243,11.017z M44.991,37.567c-0.281,0.431-0.587,0.719-0.909,0.856 c-0.315,0.135-0.707,0.154-1.086,0.174c-0.805,0.039-1.471,0.078-2.136,0.117c-0.663,0.039-1.327,0.079-2.13,0.118 c-4.479,0.219-8.379,0.232-12.855,0.185c-1.575-0.017-3.675-0.126-5.227-0.273c-2.984-0.282-6.024-0.309-8.964-0.334 C10.79,38.402,9.895,38.395,9,38.38c-1.42-0.023-2.689-0.076-3.856-0.481c-1.277-0.443-2.247-1.314-2.594-2.331 c-0.268-0.783-0.196-1.691-0.127-2.568l0.011-0.137c0.087-1.108,0.139-2.22,0.168-3.333c3.742,0.227,7.511,0.307,11.266,0.307 c3.778,0,7.541-0.076,11.241-0.151c3.418-0.069,6.952-0.142,10.426-0.151h1.659c2.799,0.002,5.467-0.005,8.39-0.358 c0.047,0.802,0.102,1.605,0.177,2.408C45.971,33.842,46.152,35.793,44.991,37.567z"/></svg>