<svg xmlns="http://www.w3.org/2000/svg" viewBox="0 0 26 26"><path d="M 12.875 -0.03125 C 12.84375 -0.0234375 12.8125 -0.0117188 12.78125 0 C 12.75 0.0078125 12.71875 0.0195313 12.6875 0.03125 C 12.621094 0.0546875 12.558594 0.0859375 12.5 0.125 C 12.46875 0.144531 12.4375 0.164063 12.40625 0.1875 C 12.386719 0.195313 12.363281 0.207031 12.34375 0.21875 C 12.320313 0.238281 12.300781 0.257813 12.28125 0.28125 C 12.257813 0.3125 12.238281 0.34375 12.21875 0.375 L 0.4375 12.15625 C 0.296875 12.242188 0.179688 12.359375 0.09375 12.5 C 0.09375 12.511719 0.09375 12.519531 0.09375 12.53125 C 0.0507813 12.609375 0.0195313 12.695313 0 12.78125 C 0 12.792969 0 12.800781 0 12.8125 C -0.0234375 12.9375 -0.0234375 13.0625 0 13.1875 C 0.015625 13.25 0.0351563 13.316406 0.0625 13.375 C 0.0859375 13.441406 0.117188 13.503906 0.15625 13.5625 C 0.175781 13.585938 0.195313 13.605469 0.21875 13.625 C 0.238281 13.65625 0.257813 13.6875 0.28125 13.71875 C 0.3125 13.742188 0.34375 13.761719 0.375 13.78125 L 11.96875 25.375 L 12 25.4375 C 12 25.449219 12 25.457031 12 25.46875 C 12.125 25.839844 12.457031 26.105469 12.847656 26.148438 C 13.238281 26.1875 13.613281 25.996094 13.8125 25.65625 C 13.835938 25.625 13.855469 25.59375 13.875 25.5625 L 25.59375 13.84375 C 25.625 13.824219 25.65625 13.804688 25.6875 13.78125 C 25.992188 13.574219 26.15625 13.214844 26.117188 12.851563 C 26.078125 12.484375 25.839844 12.171875 25.5 12.03125 L 25.40625 12 L 22.59375 9.21875 C 22.519531 9.105469 22.425781 9.011719 22.3125 8.9375 L 19.34375 5.96875 C 19.257813 5.828125 19.140625 5.710938 19 5.625 L 13.78125 0.375 C 13.675781 0.238281 13.535156 0.128906 13.375 0.0625 C 13.316406 0.0351563 13.25 0.015625 13.1875 0 C 13.15625 0 13.125 0 13.09375 0 C 13.023438 -0.0195313 12.949219 -0.0273438 12.875 -0.03125 Z M 12.40625 3.03125 L 13.3125 7.65625 C 13.3125 7.667969 13.3125 7.675781 13.3125 7.6875 C 13.222656 8.003906 13.292969 8.339844 13.5 8.59375 L 14.15625 11.78125 C 14.148438 11.84375 14.148438 11.90625 14.15625 11.96875 C 14.160156 12.074219 14.179688 12.179688 14.21875 12.28125 C 14.226563 12.3125 14.238281 12.34375 14.25 12.375 L 14.71875 14.71875 L 3.03125 12.40625 L 7.59375 7.8125 Z M 14.625 4.0625 L 16.65625 6.09375 L 15.125 6.59375 Z M 18.21875 7.65625 L 19.90625 9.34375 L 15.9375 10.59375 L 15.53125 8.5625 Z M 21.46875 10.90625 L 23.125 12.5625 L 16.75 14.6875 L 16.3125 12.5625 Z M 4.0625 14.625 L 14.6875 16.75 L 12.5625 23.125 Z"/></svg>