<svg xmlns="http://www.w3.org/2000/svg" viewBox="0 0 100 100"><path fill="#c7ede6" d="M88.346,56.672c0.3-0.616,0.566-1.264,0.796-1.943c2.633-7.77-1.349-17.078-9.733-19.325c-0.906-11.384-8.906-19.193-17.941-20.526c-10.341-1.525-19.814,5.044-22.966,15.485c-3.799-1.346-7.501-1.182-10.99,0.857c-1.583,0.732-3.031,1.812-4.33,3.233c-1.907,2.086-3.147,4.719-3.652,7.495c-0.748,0.118-1.483,0.236-2.176,0.484c-4.04,1.449-6.589,4.431-7.288,8.923c-0.435,2.797,0.443,5.587,0.933,6.714c1.935,4.455,6.422,6.98,10.981,6.312c0.227-0.033,0.557,0.069,0.752,0.233c0.241,7.12,3.698,13.417,8.884,17.014c8.321,5.772,19.027,3.994,25.781-3.921c2.894,2.96,6.338,4.398,10.384,3.876c4.023-0.519,7.147-2.739,9.426-6.349c1.053,0.283,2.051,0.691,3.083,0.804c4.042,0.442,7.324-1.165,9.732-4.8c0.922-1.391,1.794-3.194,1.794-6.354C91.816,61.629,90.522,58.662,88.346,56.672z"/><path fill="#fdfcef" d="M37.544,75.491c0,0,10.309,0,10.371,0c2.381,0,4.31-1.93,4.31-4.311c0-2.077-1.469-3.81-3.425-4.219c0.023-0.182,0.038-0.366,0.038-0.554c0-2.466-1.999-4.465-4.464-4.465c-1.456,0-2.745,0.7-3.56,1.778c-0.208-2.745-2.66-4.862-5.528-4.511c-2.097,0.257-3.832,1.878-4.218,3.955c-0.124,0.666-0.111,1.313,0.012,1.92c-0.562-0.606-1.363-0.987-2.254-0.987c-1.632,0-2.963,1.27-3.069,2.875c-0.741-0.164-1.547-0.153-2.396,0.165c-1.622,0.609-2.778,2.137-2.845,3.868c-0.096,2.459,1.869,4.483,4.307,4.483c0.185,0,0.836,0,0.986,0h8.951"/><path fill="#472b29" d="M47.915,75.991H37.544c-0.276,0-0.5-0.224-0.5-0.5s0.224-0.5,0.5-0.5h10.372c2.101,0,3.811-1.709,3.811-3.811c0-1.795-1.273-3.363-3.027-3.729c-0.255-0.053-0.426-0.292-0.394-0.551c0.02-0.161,0.034-0.325,0.034-0.492c0-2.187-1.778-3.965-3.964-3.965c-1.25,0-2.402,0.576-3.161,1.58c-0.125,0.166-0.338,0.238-0.54,0.178c-0.199-0.059-0.342-0.234-0.357-0.441c-0.091-1.199-0.678-2.324-1.61-3.089c-0.942-0.771-2.14-1.111-3.358-0.964c-1.885,0.23-3.442,1.69-3.788,3.551c-0.108,0.581-0.104,1.162,0.011,1.729c0.045,0.22-0.062,0.442-0.261,0.544c-0.198,0.104-0.442,0.061-0.595-0.104c-0.496-0.533-1.167-0.827-1.888-0.827c-1.353,0-2.481,1.058-2.57,2.409c-0.01,0.146-0.083,0.279-0.199,0.367c-0.117,0.087-0.267,0.118-0.408,0.088c-0.731-0.162-1.421-0.114-2.112,0.145c-1.449,0.545-2.462,1.919-2.521,3.42c-0.041,1.048,0.336,2.04,1.061,2.794c0.726,0.755,1.701,1.17,2.747,1.17h9.937c0.276,0,0.5,0.224,0.5,0.5s-0.224,0.5-0.5,0.5h-9.937c-1.32,0-2.552-0.524-3.468-1.477c-0.915-0.952-1.391-2.204-1.339-3.526c0.074-1.897,1.347-3.633,3.169-4.316c0.698-0.263,1.421-0.351,2.15-0.273c0.358-1.607,1.798-2.8,3.49-2.8c0.58,0,1.148,0.144,1.656,0.41c0.005-0.311,0.037-0.622,0.094-0.934c0.425-2.285,2.336-4.078,4.649-4.36c1.495-0.184,2.958,0.236,4.114,1.183c0.87,0.713,1.495,1.684,1.792,2.754c0.893-0.776,2.031-1.208,3.243-1.208c2.737,0,4.964,2.228,4.964,4.965c0,0.059-0.001,0.117-0.004,0.176c1.989,0.614,3.391,2.481,3.391,4.597C52.726,73.832,50.568,75.991,47.915,75.991z"/><path fill="#fdfcef" d="M49.661,67.467c-1.498-0.706-3.231-0.206-3.87,1.117c-0.079,0.164-0.138,0.334-0.177,0.506"/><path fill="#472b29" d="M45.614,69.339c-0.018,0-0.037-0.002-0.055-0.006c-0.135-0.031-0.219-0.165-0.188-0.3c0.044-0.193,0.11-0.382,0.196-0.56c0.697-1.442,2.582-1.996,4.201-1.234c0.125,0.06,0.179,0.208,0.12,0.333s-0.208,0.178-0.333,0.12c-1.373-0.647-2.959-0.2-3.538,0.999c-0.07,0.144-0.123,0.296-0.159,0.453C45.831,69.261,45.728,69.339,45.614,69.339z"/><path fill="#fff" d="M18.011 48.708H7.98c-.276 0-.5-.224-.5-.5s.224-.5.5-.5h10.031c.276 0 .5.224.5.5S18.287 48.708 18.011 48.708zM20.892 48.708h-1.446c-.276 0-.5-.224-.5-.5s.224-.5.5-.5h1.446c.276 0 .5.224.5.5S21.168 48.708 20.892 48.708zM24.946 48.708H22.4c-.276 0-.5-.224-.5-.5s.224-.5.5-.5h2.546c.276 0 .5.224.5.5S25.223 48.708 24.946 48.708zM24.946 50.573H15.33c-.276 0-.5-.224-.5-.5s.224-.5.5-.5h9.616c.276 0 .5.224.5.5S25.223 50.573 24.946 50.573zM13.598 50.573h-.58c-.276 0-.5-.224-.5-.5s.224-.5.5-.5h.58c.276 0 .5.224.5.5S13.874 50.573 13.598 50.573zM11.222 50.573H9.765c-.276 0-.5-.224-.5-.5s.224-.5.5-.5h1.457c.276 0 .5.224.5.5S11.498 50.573 11.222 50.573zM20.357 46.843H15.33c-.276 0-.5-.224-.5-.5s.224-.5.5-.5h5.027c.276 0 .5.224.5.5S20.634 46.843 20.357 46.843zM20.357 44.978H19.1c-.276 0-.5-.224-.5-.5s.224-.5.5-.5h1.257c.276 0 .5.224.5.5S20.634 44.978 20.357 44.978zM17.088 52.438H15.33c-.276 0-.5-.224-.5-.5s.224-.5.5-.5h1.758c.276 0 .5.224.5.5S17.365 52.438 17.088 52.438zM71.188 22.431H61.158c-.276 0-.5-.224-.5-.5s.224-.5.5-.5h10.031c.276 0 .5.224.5.5S71.465 22.431 71.188 22.431zM74.069 22.431h-1.446c-.276 0-.5-.224-.5-.5s.224-.5.5-.5h1.446c.276 0 .5.224.5.5S74.346 22.431 74.069 22.431zM78.124 22.431h-2.546c-.276 0-.5-.224-.5-.5s.224-.5.5-.5h2.546c.276 0 .5.224.5.5S78.4 22.431 78.124 22.431zM76.098 18.702h-9.616c-.276 0-.5-.224-.5-.5s.224-.5.5-.5h9.616c.276 0 .5.224.5.5S76.374 18.702 76.098 18.702zM64.75 18.702h-.58c-.276 0-.5-.224-.5-.5s.224-.5.5-.5h.58c.276 0 .5.224.5.5S65.027 18.702 64.75 18.702zM62.373 18.702h-1.456c-.276 0-.5-.224-.5-.5s.224-.5.5-.5h1.456c.276 0 .5.224.5.5S62.65 18.702 62.373 18.702zM73.535 20.566h-5.027c-.276 0-.5-.224-.5-.5s.224-.5.5-.5h5.027c.276 0 .5.224.5.5S73.811 20.566 73.535 20.566z"/><path fill="#fff" d="M73.535 18.702h-1.257c-.276 0-.5-.224-.5-.5s.224-.5.5-.5h1.257c.276 0 .5.224.5.5S73.811 18.702 73.535 18.702zM67.053 20.566h-1.759c-.276 0-.5-.224-.5-.5s.224-.5.5-.5h1.759c.276 0 .5.224.5.5S67.329 20.566 67.053 20.566z"/><path fill="#fdfcef" d="M76.51,52.549c1.883,0,3.517,0,3.54,0c2.11,0,3.821-1.674,3.821-3.739c0-1.802-1.302-3.305-3.035-3.66c0.02-0.158,0.034-0.317,0.034-0.48c0-2.139-1.772-3.873-3.957-3.873c-1.29,0-2.433,0.607-3.155,1.543c-0.185-2.381-2.358-4.218-4.9-3.913c-1.859,0.223-3.397,1.629-3.739,3.431c-0.11,0.578-0.098,1.139,0.011,1.665c-0.498-0.525-1.208-0.856-1.998-0.856c-1.446,0-2.627,1.102-2.72,2.494c-0.657-0.142-1.371-0.133-2.123,0.143c-1.438,0.528-2.462,1.853-2.522,3.356c-0.085,2.133,1.657,3.889,3.818,3.889c0.164,0,0.741,0,0.874,0h7.934 M70.033,52.549h0.36"/><path fill="#472b29" d="M80.05,53.048h-3.54c-0.276,0-0.5-0.224-0.5-0.5s0.224-0.5,0.5-0.5h3.54c1.831,0,3.321-1.453,3.321-3.239c0-1.524-1.108-2.857-2.636-3.169c-0.256-0.053-0.429-0.294-0.396-0.553c0.018-0.138,0.03-0.276,0.03-0.418c0-1.86-1.551-3.373-3.457-3.373c-1.092,0-2.098,0.491-2.76,1.349c-0.126,0.164-0.341,0.231-0.539,0.174c-0.198-0.06-0.339-0.234-0.355-0.44c-0.079-1.02-0.565-1.944-1.369-2.604c-0.828-0.68-1.88-0.979-2.973-0.854c-1.646,0.197-3.006,1.442-3.307,3.028c-0.094,0.494-0.091,0.989,0.009,1.471c0.045,0.219-0.06,0.441-0.258,0.545c-0.196,0.103-0.44,0.063-0.594-0.1c-0.428-0.451-1.008-0.699-1.635-0.699c-1.169,0-2.145,0.891-2.221,2.027c-0.01,0.146-0.082,0.279-0.198,0.366s-0.265,0.121-0.407,0.089c-0.635-0.136-1.24-0.097-1.845,0.125c-1.262,0.463-2.144,1.631-2.195,2.905c-0.035,0.875,0.283,1.708,0.895,2.345c0.635,0.66,1.495,1.024,2.423,1.024h8.808c0.276,0,0.5,0.224,0.5,0.5s-0.224,0.5-0.5,0.5h-8.808c-1.185,0-2.331-0.485-3.144-1.331c-0.802-0.835-1.219-1.928-1.173-3.077c0.067-1.675,1.212-3.204,2.849-3.806c0.612-0.225,1.244-0.308,1.88-0.244c0.344-1.396,1.629-2.424,3.135-2.424c0.493,0,0.977,0.113,1.414,0.322c0.009-0.241,0.037-0.483,0.083-0.726c0.381-2.009,2.096-3.586,4.17-3.834c1.364-0.167,2.685,0.218,3.727,1.072c0.747,0.613,1.277,1.409,1.546,2.302c0.791-0.648,1.786-1.007,2.842-1.007c2.458,0,4.457,1.962,4.457,4.373c0,0.034,0,0.068-0.001,0.103c1.764,0.555,3.003,2.188,3.003,4.037C84.371,51.147,82.433,53.048,80.05,53.048z M70.393,53.048h-0.36c-0.276,0-0.5-0.224-0.5-0.5s0.224-0.5,0.5-0.5h0.36c0.276,0,0.5,0.224,0.5,0.5S70.669,53.048,70.393,53.048z"/><path fill="#472b29" d="M78.343 47.246c-.018 0-.036-.002-.054-.006-.135-.03-.22-.164-.19-.299.037-.163.093-.324.169-.479.606-1.224 2.277-1.674 3.723-1.006.125.058.18.206.122.331-.059.126-.206.18-.332.122-1.203-.556-2.578-.208-3.064.774-.058.118-.102.241-.129.367C78.561 47.166 78.457 47.246 78.343 47.246zM73.184 53.048h-1.107c-.276 0-.5-.224-.5-.5s.224-.5.5-.5h1.107c.276 0 .5.224.5.5S73.46 53.048 73.184 53.048z"/><path fill="#fdfcee" d="M65.48,71.447H36.962c-3.048,0-5.542-2.494-5.542-5.542V37.387c0-3.048,2.494-5.542,5.542-5.542H65.48c3.048,0,5.542,2.494,5.542,5.542v28.518C71.021,68.953,68.528,71.447,65.48,71.447z"/><path fill="#472b29" d="M65.479,72.147H36.961c-3.442,0-6.242-2.801-6.242-6.242V37.387c0-3.441,2.8-6.242,6.242-6.242h28.518c3.442,0,6.242,2.801,6.242,6.242v28.518C71.722,69.346,68.921,72.147,65.479,72.147z M36.961,32.545c-2.67,0-4.842,2.172-4.842,4.842v28.518c0,2.67,2.172,4.842,4.842,4.842h28.518c2.67,0,4.842-2.172,4.842-4.842V37.387c0-2.67-2.172-4.842-4.842-4.842H36.961z"/><path fill="#472b29" d="M62.577 38.46h-3.495c-.276 0-.5-.224-.5-.5s.224-.5.5-.5h3.495c.276 0 .5.224.5.5S62.853 38.46 62.577 38.46zM57.335 38.46H31.711c-.276 0-.5-.224-.5-.5s.224-.5.5-.5h25.625c.276 0 .5.224.5.5S57.612 38.46 57.335 38.46zM70.73 38.46h-5.242c-.276 0-.5-.224-.5-.5s.224-.5.5-.5h5.242c.276 0 .5.224.5.5S71.007 38.46 70.73 38.46zM70.73 67.58H38.699c-.276 0-.5-.224-.5-.5s.224-.5.5-.5H70.73c.276 0 .5.224.5.5S71.007 67.58 70.73 67.58zM36.952 67.58h-5.241c-.276 0-.5-.224-.5-.5s.224-.5.5-.5h5.241c.276 0 .5.224.5.5S37.228 67.58 36.952 67.58z"/><path fill="#ee3e54" d="M36.37 33.883A1.165 1.165 0 1 0 36.37 36.213A1.165 1.165 0 1 0 36.37 33.883Z"/><path fill="#472b29" d="M36.37,36.513c-0.808,0-1.464-0.657-1.464-1.465s0.657-1.465,1.464-1.465s1.465,0.657,1.465,1.465S37.177,36.513,36.37,36.513z M36.37,34.183c-0.477,0-0.865,0.389-0.865,0.865s0.388,0.865,0.865,0.865c0.477,0,0.865-0.389,0.865-0.865S36.847,34.183,36.37,34.183z"/><path fill="#f1bc19" d="M40.446 33.883A1.165 1.165 0 1 0 40.446 36.213A1.165 1.165 0 1 0 40.446 33.883Z"/><path fill="#472b29" d="M40.446,36.513c-0.808,0-1.464-0.657-1.464-1.465s0.657-1.465,1.464-1.465s1.465,0.657,1.465,1.465S41.254,36.513,40.446,36.513z M40.446,34.183c-0.477,0-0.865,0.389-0.865,0.865s0.388,0.865,0.865,0.865c0.477,0,0.865-0.389,0.865-0.865S40.923,34.183,40.446,34.183z"/><path fill="#88ae45" d="M44.523 33.883A1.165 1.165 0 1 0 44.523 36.213A1.165 1.165 0 1 0 44.523 33.883Z"/><path fill="#472b29" d="M44.523,36.513c-0.808,0-1.464-0.657-1.464-1.465s0.657-1.465,1.464-1.465s1.465,0.657,1.465,1.465S45.33,36.513,44.523,36.513z M44.523,34.183c-0.477,0-0.865,0.389-0.865,0.865s0.388,0.865,0.865,0.865c0.477,0,0.865-0.389,0.865-0.865S45,34.183,44.523,34.183z"/><path fill="#e1e0d8" d="M75.241,49.082c0.002,2.632-1.623,5.123-4.417,6.768l0,0c0,1.422,0.414,2.996,0.932,3.999c0.184,0.356-0.104,0.77-0.502,0.726c-2.578-0.283-5.022-1.556-6.32-2.83h-1.472c-6.505,0-11.778-3.879-11.778-8.663s5.273-8.663,11.778-8.663S75.241,44.298,75.241,49.082"/><path fill="#472b29" d="M71.311,61.078c-0.037,0-0.074-0.002-0.111-0.006c-2.684-0.295-5.14-1.607-6.464-2.826h-1.273c-6.771,0-12.278-4.11-12.278-9.163s5.508-9.163,12.278-9.163c6.77,0,12.278,4.11,12.278,9.163l0,0c0.002,2.748-1.601,5.302-4.411,7.046c0.052,1.345,0.463,2.701,0.871,3.491c0.169,0.328,0.145,0.72-0.064,1.023C71.949,60.917,71.64,61.078,71.311,61.078z M63.463,40.919c-6.219,0-11.278,3.662-11.278,8.163s5.06,8.163,11.278,8.163h1.473c0.131,0,0.256,0.052,0.35,0.143c1.16,1.137,3.472,2.409,6.024,2.689c-0.598-1.161-0.985-2.82-0.985-4.228c0-0.177,0.094-0.341,0.247-0.431c2.652-1.562,4.172-3.871,4.17-6.337l0,0C74.741,44.581,69.682,40.919,63.463,40.919z M75.741,49.082h0.01H75.741z"/><path fill="#472b29" d="M61.247 45.923h-3.243c-.138 0-.25-.112-.25-.25s.112-.25.25-.25h3.243c.138 0 .25.112.25.25S61.386 45.923 61.247 45.923zM69.536 45.923h-6.847c-.138 0-.25-.112-.25-.25s.112-.25.25-.25h6.847c.138 0 .25.112.25.25S69.674 45.923 69.536 45.923zM65.572 48.085h-9.009c-.138 0-.25-.112-.25-.25s.112-.25.25-.25h9.009c.138 0 .25.112.25.25S65.71 48.085 65.572 48.085zM71.337 48.085h-4.324c-.138 0-.25-.112-.25-.25s.112-.25.25-.25h4.324c.138 0 .25.112.25.25S71.476 48.085 71.337 48.085zM71.337 50.248H60.166c-.138 0-.25-.112-.25-.25s.112-.25.25-.25h11.171c.138 0 .25.112.25.25S71.476 50.248 71.337 50.248zM69.536 52.77h-6.433c-.138 0-.25-.112-.25-.25s.112-.25.25-.25h6.433c.138 0 .25.112.25.25S69.674 52.77 69.536 52.77z"/><path fill="#78a0cf" d="M56.957 50.669A4.493 4.493 0 1 0 56.957 59.655A4.493 4.493 0 1 0 56.957 50.669Z"/><path fill="#472b29" d="M56.957,60.03c-2.684,0-4.868-2.184-4.868-4.868s2.184-4.868,4.868-4.868s4.868,2.184,4.868,4.868S59.642,60.03,56.957,60.03z M56.957,51.043c-2.271,0-4.118,1.848-4.118,4.118s1.847,4.118,4.118,4.118c2.271,0,4.118-1.848,4.118-4.118S59.228,51.043,56.957,51.043z"/><path fill="#edf7f5" d="M25.989,54.119c-0.002,2.632,1.623,5.123,4.417,6.768l0,0c0,1.422-0.414,2.996-0.932,3.999c-0.184,0.356,0.104,0.77,0.502,0.726c2.578-0.283,5.022-1.556,6.32-2.83h1.472c6.505,0,11.778-3.879,11.778-8.663s-5.273-8.663-11.778-8.663S25.989,49.335,25.989,54.119"/><path fill="#472b29" d="M29.919,66.115c-0.328,0-0.637-0.16-0.826-0.435c-0.208-0.304-0.233-0.695-0.064-1.023c0.408-0.79,0.819-2.147,0.871-3.491c-2.81-1.744-4.414-4.299-4.412-7.046c0-5.053,5.508-9.163,12.278-9.163s12.278,4.11,12.278,9.163s-5.508,9.163-12.278,9.163h-1.273c-1.324,1.219-3.78,2.531-6.464,2.826C29.993,66.113,29.956,66.115,29.919,66.115z M37.768,45.956c-6.219,0-11.278,3.662-11.278,8.163l0,0c-0.002,2.465,1.519,4.774,4.171,6.337c0.152,0.09,0.246,0.254,0.246,0.431c0,1.406-0.388,3.065-0.988,4.229c2.555-0.281,4.867-1.554,6.027-2.69c0.094-0.091,0.219-0.143,0.35-0.143h1.472c6.219,0,11.278-3.662,11.278-8.163S43.986,45.956,37.768,45.956z M25.989,54.12h0.01H25.989z"/><path fill="#472b29" d="M43.226 50.96h-3.243c-.138 0-.25-.112-.25-.25s.112-.25.25-.25h3.243c.138 0 .25.112.25.25S43.364 50.96 43.226 50.96zM38.541 50.96h-6.847c-.138 0-.25-.112-.25-.25s.112-.25.25-.25h6.847c.138 0 .25.112.25.25S38.68 50.96 38.541 50.96zM44.667 53.123h-9.009c-.138 0-.25-.112-.25-.25s.112-.25.25-.25h9.009c.138 0 .25.112.25.25S44.806 53.123 44.667 53.123zM34.217 53.123h-4.324c-.138 0-.25-.112-.25-.25s.112-.25.25-.25h4.324c.138 0 .25.112.25.25S34.355 53.123 34.217 53.123zM41.064 55.285H29.893c-.138 0-.25-.112-.25-.25s.112-.25.25-.25h11.171c.138 0 .25.112.25.25S41.202 55.285 41.064 55.285zM38.128 57.807h-6.433c-.138 0-.25-.112-.25-.25s.112-.25.25-.25h6.433c.138 0 .25.112.25.25S38.266 57.807 38.128 57.807z"/><path fill="#c5def0" d="M44.935 55.646A4.552 4.552 0 1 0 44.935 64.75A4.552 4.552 0 1 0 44.935 55.646Z"/><path fill="#472b29" d="M44.935,65.125c-2.716,0-4.926-2.21-4.926-4.927s2.21-4.927,4.926-4.927c2.717,0,4.927,2.21,4.927,4.927S47.652,65.125,44.935,65.125z M44.935,56.022c-2.303,0-4.176,1.874-4.176,4.177s1.874,4.177,4.176,4.177c2.303,0,4.177-1.874,4.177-4.177S47.238,56.022,44.935,56.022z"/><path fill="#684933" d="M48.02,59.908c-0.023,0.077-0.108,0.117-0.183,0.094l-1.374-0.42c-0.077-0.023-0.114-0.103-0.114-0.177v-0.069c0-0.074,0.037-0.154,0.114-0.177l1.383-0.42c0.077-0.023,0.157,0.017,0.18,0.094c0.023,0.074-0.02,0.154-0.097,0.177l-1.165,0.36l1.165,0.36C48.003,59.754,48.043,59.834,48.02,59.908z"/><path fill="#472b29" d="M47.88,60.084c-0.022,0-0.044-0.004-0.066-0.011l-1.374-0.42c-0.116-0.033-0.168-0.148-0.168-0.248v-0.068c0-0.099,0.052-0.214,0.168-0.249l1.383-0.42c0.117-0.039,0.239,0.028,0.273,0.145c0.017,0.055,0.011,0.113-0.017,0.164c-0.028,0.052-0.074,0.09-0.131,0.106l-0.932,0.288l0.933,0.288c0.113,0.035,0.176,0.157,0.142,0.271c-0.017,0.055-0.054,0.101-0.105,0.128C47.954,60.075,47.917,60.084,47.88,60.084z M47.889,58.808c-0.007,0-0.015,0.001-0.022,0.004l-1.382,0.419c-0.042,0.014-0.062,0.064-0.062,0.106v0.068c0,0.043,0.019,0.093,0.061,0.104l1.375,0.421c0.02,0.006,0.04,0.004,0.057-0.006c0.009-0.005,0.026-0.017,0.032-0.038l0,0c0.011-0.036-0.008-0.074-0.042-0.085l-1.397-0.431l1.398-0.432c0.019-0.006,0.034-0.018,0.042-0.034c0.008-0.016,0.01-0.033,0.005-0.049C47.945,58.827,47.919,58.808,47.889,58.808z"/><path fill="#684933" d="M41.789,58.834c0.023-0.077,0.109-0.117,0.183-0.094l1.39,0.42c0.077,0.023,0.13,0.103,0.13,0.177v0.069c0,0.074-0.053,0.154-0.13,0.177l-1.391,0.42c-0.077,0.023-0.161-0.017-0.184-0.094c-0.023-0.074,0.018-0.154,0.095-0.177l1.165-0.36l-1.166-0.36C41.806,58.988,41.766,58.908,41.789,58.834z"/><path fill="#472b29" d="M41.927,60.084c-0.038,0-0.075-0.01-0.107-0.027c-0.051-0.027-0.088-0.072-0.104-0.127c-0.017-0.055-0.012-0.113,0.016-0.165c0.027-0.051,0.073-0.089,0.129-0.105l0.932-0.288l-0.934-0.289c-0.054-0.017-0.099-0.054-0.126-0.104s-0.032-0.11-0.015-0.165c0.016-0.055,0.053-0.1,0.104-0.127c0.052-0.029,0.115-0.035,0.172-0.019l1.39,0.42c0.104,0.032,0.184,0.14,0.184,0.25v0.068c0,0.111-0.079,0.218-0.184,0.249l-1.39,0.42C41.971,60.081,41.949,60.084,41.927,60.084z M41.929,58.808c-0.012,0-0.025,0.004-0.036,0.01s-0.025,0.018-0.032,0.038l0,0.001c-0.005,0.018-0.003,0.035,0.005,0.052c0.008,0.015,0.021,0.026,0.037,0.031l1.399,0.432l-1.397,0.431c-0.018,0.006-0.032,0.018-0.041,0.033c-0.009,0.016-0.01,0.034-0.005,0.051c0.006,0.021,0.021,0.033,0.031,0.039c0.018,0.01,0.039,0.01,0.059,0.006l1.391-0.421c0.046-0.013,0.076-0.064,0.076-0.104v-0.068c0-0.04-0.031-0.092-0.077-0.106l-1.389-0.419C41.943,58.809,41.936,58.808,41.929,58.808z"/><path fill="#64a3e2" d="M39.719,60.122c-0.292,0.319-0.271,0.815,0.048,1.108c0.319,0.292,0.815,0.27,1.108-0.048c0.293-0.319,0.482-1.686,0.482-1.686S40.012,59.802,39.719,60.122z"/><path fill="#472b29" d="M40.297,61.56c-0.22,0-0.439-0.078-0.614-0.238c-0.37-0.339-0.395-0.915-0.056-1.284c0.31-0.339,1.561-0.632,1.702-0.664l0.176-0.04l-0.024,0.18c-0.02,0.144-0.204,1.414-0.513,1.752C40.789,61.461,40.543,61.56,40.297,61.56z M41.205,59.661C40.766,59.773,40,60,39.811,60.206c-0.246,0.269-0.228,0.687,0.041,0.933c0.268,0.244,0.685,0.226,0.931-0.041C40.972,60.891,41.132,60.108,41.205,59.661z"/><path fill="#ee3e54" d="M44.914 60.607A2.857 1.429 0 1 0 44.914 63.465A2.857 1.429 0 1 0 44.914 60.607Z"/><path fill="#472b29" d="M44.914,63.589c-1.672,0-2.982-0.683-2.982-1.554s1.31-1.553,2.982-1.553c1.672,0,2.982,0.682,2.982,1.553S46.586,63.589,44.914,63.589z M44.914,60.733c-1.481,0-2.732,0.597-2.732,1.303c0,0.707,1.251,1.304,2.732,1.304s2.732-0.597,2.732-1.304C47.646,61.33,46.395,60.733,44.914,60.733z"/><path fill="#961b30" d="M44.914,60.607c-1.578,0-2.857,0.64-2.857,1.429c0,0.338,0.236,0.648,0.628,0.892c0.228-0.51,1.139-0.892,2.229-0.892c1.09,0,2,0.382,2.229,0.892c0.392-0.244,0.628-0.554,0.628-0.892C47.771,61.247,46.492,60.607,44.914,60.607z"/><path fill="#472b29" d="M42.741,63.11l-0.122-0.075c-0.45-0.28-0.688-0.626-0.688-0.999c0-0.871,1.31-1.553,2.982-1.553c1.672,0,2.982,0.682,2.982,1.553c0,0.374-0.237,0.719-0.687,0.999l-0.121,0.075l-0.059-0.131c-0.213-0.474-1.103-0.818-2.115-0.818c-1.013,0-1.902,0.345-2.115,0.818L42.741,63.11z M44.914,61.911c1.038,0,1.939,0.339,2.272,0.839c0.23-0.164,0.46-0.406,0.46-0.714c0-0.706-1.251-1.303-2.732-1.303s-2.732,0.597-2.732,1.303c0,0.308,0.23,0.549,0.46,0.714C42.975,62.249,43.876,61.911,44.914,61.911z"/><path fill="#64a3e2" d="M48.513,59.495c0,0,0.189,1.367,0.482,1.686c0.292,0.319,0.789,0.341,1.108,0.048c0.319-0.293,0.341-0.789,0.048-1.108C49.859,59.802,48.513,59.495,48.513,59.495z"/><path fill="#472b29" d="M49.574,61.56c-0.247,0-0.492-0.099-0.671-0.295c-0.31-0.338-0.494-1.608-0.514-1.752l-0.024-0.18l0.176,0.04c0.142,0.032,1.392,0.325,1.702,0.664c0.338,0.369,0.313,0.945-0.056,1.284C50.013,61.481,49.793,61.56,49.574,61.56z M48.664,59.661c0.073,0.447,0.234,1.23,0.423,1.436c0.245,0.27,0.663,0.287,0.931,0.042c0.268-0.246,0.286-0.664,0.04-0.933C49.87,60,49.104,59.772,48.664,59.661z"/><path fill="#e1e0d8" d="M57.7,54.109c0.129,0.382,0.494,0.634,0.909,0.626c0.415-0.008,0.77-0.273,0.884-0.66l0.242,0.071c-0.145,0.493-0.596,0.831-1.121,0.841c-0.526,0.01-0.989-0.311-1.152-0.798L57.7,54.109z"/><path fill="#472b29" d="M59.493,54.075l0.242,0.071c-0.145,0.493-0.596,0.831-1.121,0.841c-0.008,0-0.016,0-0.024,0c-0.516,0-0.968-0.318-1.129-0.798l0.239-0.08c0.127,0.377,0.483,0.626,0.89,0.626c0.006,0,0.012,0,0.019,0C59.023,54.727,59.379,54.462,59.493,54.075 M59.493,53.825c-0.041,0-0.083,0.01-0.12,0.03c-0.058,0.032-0.102,0.085-0.12,0.149c-0.083,0.282-0.344,0.475-0.649,0.481c0,0,0,0,0,0c-0.313,0-0.575-0.183-0.667-0.456c-0.035-0.104-0.133-0.17-0.237-0.17c-0.026,0-0.053,0.004-0.08,0.013l-0.239,0.08c-0.131,0.044-0.201,0.186-0.157,0.317c0.195,0.579,0.744,0.969,1.366,0.969c0.664-0.012,1.209-0.422,1.385-1.021c0.039-0.132-0.037-0.271-0.169-0.31l-0.242-0.071C59.54,53.829,59.516,53.825,59.493,53.825L59.493,53.825z"/><path fill="#e1e0d8" d="M54.419,54.171c0.129,0.382,0.494,0.634,0.909,0.626c0.415-0.008,0.77-0.273,0.884-0.66l0.242,0.071c-0.145,0.493-0.596,0.831-1.121,0.841c-0.526,0.01-0.989-0.311-1.152-0.798L54.419,54.171z"/><path fill="#472b29" d="M56.212,54.137l0.242,0.071c-0.145,0.493-0.596,0.831-1.121,0.841c-0.008,0-0.016,0-0.024,0c-0.516,0-0.967-0.318-1.129-0.798l0.239-0.08c0.127,0.377,0.483,0.626,0.89,0.626c0.006,0,0.013,0,0.019,0C55.743,54.789,56.098,54.524,56.212,54.137 M56.212,53.887c-0.041,0-0.083,0.01-0.12,0.03c-0.058,0.032-0.102,0.085-0.12,0.149c-0.083,0.282-0.344,0.475-0.649,0.481c0,0,0,0,0,0c-0.313,0-0.575-0.183-0.667-0.456c-0.035-0.104-0.133-0.17-0.237-0.17c-0.026,0-0.053,0.004-0.08,0.013l-0.239,0.08c-0.131,0.044-0.201,0.186-0.157,0.317c0.195,0.579,0.744,0.969,1.366,0.969c0.664-0.012,1.209-0.422,1.385-1.021c0.039-0.132-0.037-0.271-0.169-0.31l-0.242-0.071C56.259,53.89,56.236,53.887,56.212,53.887L56.212,53.887z"/><path fill="#e1e0d8" d="M58.99,57.402c-0.439-0.328-0.961-0.555-1.537-0.631c-0.91-0.12-1.788,0.15-2.468,0.679l0.196,0.196c0.619-0.47,1.414-0.708,2.236-0.599c0.529,0.07,1.006,0.281,1.408,0.583L58.99,57.402z"/><path fill="#472b29" d="M57.024,56.743c0.142,0,0.285,0.009,0.429,0.028c0.576,0.076,1.098,0.303,1.537,0.631l-0.165,0.227c-0.402-0.302-0.879-0.513-1.408-0.583c-0.132-0.017-0.264-0.026-0.394-0.026c-0.679,0-1.322,0.231-1.842,0.625l-0.196-0.195C55.557,57.005,56.27,56.743,57.024,56.743 M57.024,56.493c-0.784,0-1.563,0.27-2.192,0.76c-0.057,0.044-0.092,0.11-0.096,0.182c-0.004,0.072,0.022,0.142,0.073,0.192l0.196,0.195c0.048,0.048,0.112,0.073,0.177,0.073c0.053,0,0.106-0.017,0.151-0.051c0.488-0.37,1.089-0.574,1.691-0.574c0.119,0,0.24,0.008,0.361,0.024c0.466,0.062,0.9,0.242,1.291,0.535c0.044,0.033,0.096,0.05,0.15,0.05c0.012,0,0.025-0.001,0.037-0.003c0.066-0.01,0.126-0.046,0.165-0.1l0.165-0.227c0.081-0.111,0.057-0.266-0.052-0.347c-0.489-0.366-1.061-0.601-1.654-0.679C57.331,56.503,57.177,56.493,57.024,56.493L57.024,56.493z"/><path fill="#64a3e2" d="M52.349,55.523c-0.258,0.282-0.239,0.72,0.043,0.979c0.282,0.258,0.72,0.239,0.979-0.043c0.259-0.282,0.426-1.49,0.426-1.49S52.607,55.241,52.349,55.523z"/><path fill="#472b29" d="M52.859,56.933c-0.228,0-0.457-0.082-0.637-0.247c-0.382-0.352-0.408-0.949-0.058-1.332c0.289-0.315,1.279-0.561,1.576-0.629l0.353-0.08l-0.05,0.358c-0.042,0.302-0.2,1.31-0.489,1.625C53.369,56.831,53.114,56.933,52.859,56.933z M53.487,55.306c-0.435,0.121-0.855,0.277-0.954,0.386c-0.165,0.18-0.153,0.46,0.027,0.625c0.18,0.166,0.461,0.154,0.626-0.026C53.285,56.182,53.404,55.749,53.487,55.306z"/><path fill="#64a3e2" d="M60.119,54.969c0,0,0.167,1.207,0.426,1.49c0.258,0.282,0.697,0.301,0.979,0.043c0.282-0.259,0.301-0.697,0.043-0.979C61.307,55.241,60.119,54.969,60.119,54.969z"/><path fill="#472b29" d="M61.055,56.933c-0.255,0-0.509-0.103-0.695-0.305c-0.289-0.315-0.448-1.323-0.489-1.625l-0.05-0.358l0.353,0.08c0.297,0.068,1.288,0.313,1.576,0.629c0.35,0.383,0.324,0.98-0.058,1.332C61.512,56.851,61.283,56.933,61.055,56.933z M60.427,55.306c0.083,0.443,0.202,0.876,0.301,0.984c0.166,0.18,0.446,0.193,0.626,0.026c0.18-0.165,0.192-0.445,0.027-0.625C61.282,55.583,60.861,55.427,60.427,55.306z"/></svg>