<svg xmlns="http://www.w3.org/2000/svg" width="100" height="100" viewBox="0 0 100 100"><path fill="#fefdef" d="M83.586,45.336L51.414,13.164c-0.781-0.781-2.047-0.781-2.828,0L41.5,20.25l-0.086-0.086 c-0.781-0.781-2.047-0.781-2.828,0L14.414,44.336c-1.26,1.26-0.368,3.414,1.414,3.414h0.29c0.332,0.574,0.927,1,1.71,1h64.343 C83.953,48.75,84.846,46.596,83.586,45.336z"/><path fill="#1f212b" d="M82.171,49.75H17.829c-0.868,0-1.665-0.368-2.225-1.008c-1.14-0.08-2.103-0.771-2.547-1.845 c-0.473-1.142-0.224-2.395,0.65-3.269l24.172-24.172c0.919-0.92,2.412-1.125,3.529-0.529l6.471-6.471 c1.133-1.133,3.109-1.133,4.243,0l32.171,32.172c0.874,0.874,1.124,2.127,0.65,3.269C84.47,49.04,83.408,49.75,82.171,49.75z M40,20.578c-0.267,0-0.518,0.104-0.707,0.293L15.121,45.043c-0.438,0.438-0.276,0.944-0.216,1.09 c0.06,0.145,0.304,0.617,0.924,0.617h0.867l0.289,0.499c0.132,0.229,0.386,0.501,0.845,0.501h64.343 c0.62,0,0.864-0.473,0.924-0.617c0.06-0.146,0.222-0.651-0.216-1.09L50.707,13.871c-0.378-0.379-1.037-0.379-1.414,0L41.5,21.664 l-0.793-0.793C40.518,20.682,40.267,20.578,40,20.578z"/><path fill="#6474a6" d="M65,78v4H35v-4h28.86c0.04,0,0.07,0.02,0.11,0.02S64.05,78,64.09,78H65z M14.05,46	c0.34,4.62,2.91,23.8,22.09,30h27.72c19.18-6.2,21.75-25.38,22.09-30H14.05z M78.15,60.75c-2.55,4.36-6.05,7.79-10.41,10.19	C67.67,70.98,67.58,71,67.5,71c-0.17,0-0.35-0.1-0.44-0.26c-0.13-0.24-0.04-0.55,0.2-0.68c4.19-2.31,7.57-5.61,10.02-9.81	c0.14-0.24,0.45-0.32,0.69-0.18C78.21,60.21,78.29,60.51,78.15,60.75z M80.51,55.67c-0.37,1.04-0.8,2.07-1.28,3.05	C79.15,58.9,78.97,59,78.78,59c-0.07,0-0.15-0.02-0.22-0.05c-0.24-0.12-0.35-0.42-0.23-0.67c0.46-0.95,0.88-1.94,1.24-2.95	c0.1-0.26,0.38-0.39,0.64-0.3C80.47,55.12,80.61,55.41,80.51,55.67z M80.69,54c-0.05,0-0.09-0.01-0.14-0.02	c-0.27-0.07-0.42-0.35-0.35-0.62c0.19-0.64,0.35-1.31,0.49-1.96c0.05-0.27,0.32-0.45,0.59-0.39s0.44,0.32,0.39,0.59	c-0.14,0.68-0.31,1.37-0.5,2.04C81.1,53.86,80.9,54,80.69,54z"/><path fill="#1f212b" d="M78.15,60.75c-2.55,4.36-6.05,7.79-10.41,10.19C67.67,70.98,67.58,71,67.5,71	c-0.17,0-0.35-0.1-0.44-0.26c-0.13-0.24-0.04-0.55,0.2-0.68c4.19-2.31,7.57-5.61,10.02-9.81c0.14-0.24,0.45-0.32,0.69-0.18	C78.21,60.21,78.29,60.51,78.15,60.75z M80.51,55.67c-0.37,1.04-0.8,2.07-1.28,3.05C79.15,58.9,78.97,59,78.78,59	c-0.07,0-0.15-0.02-0.22-0.05c-0.24-0.12-0.35-0.42-0.23-0.67c0.46-0.95,0.88-1.94,1.24-2.95c0.1-0.26,0.38-0.39,0.64-0.3	C80.47,55.12,80.61,55.41,80.51,55.67z M81.67,51.6c-0.14,0.68-0.31,1.37-0.5,2.04C81.1,53.86,80.9,54,80.69,54	c-0.05,0-0.09-0.01-0.14-0.02c-0.27-0.07-0.42-0.35-0.35-0.62c0.19-0.64,0.35-1.31,0.49-1.96c0.05-0.27,0.32-0.45,0.59-0.39	C81.55,51.07,81.72,51.33,81.67,51.6z"/><path fill="#1f212b" d="M87,44h-3h-1H17.08h-1.01H13c-0.27,0-0.52,0.1-0.71,0.29S12,44.74,12,45c0,0.25,0.35,23.55,21,31.98	c0,0.01,0,0.01,0,0.02v6c0,0.55,0.45,1,1,1h32c0.55,0,1-0.45,1-1v-6.03C87.65,68.55,88,45.25,88,45c0-0.26-0.1-0.52-0.29-0.71	S87.27,44,87,44z M65,82H35v-4h28.86c0.04,0,0.07,0.02,0.11,0.02c0.04,0,0.08-0.02,0.12-0.02H65V82z M63.86,76H36.14	c-19.18-6.2-21.75-25.38-22.09-30h71.9C85.61,50.62,83.04,69.8,63.86,76z"/><g><path fill="#1f212b" d="M59.142,39.042c-0.128,0-0.256-0.049-0.354-0.146l-0.707-0.707c-0.195-0.195-0.195-0.512,0-0.707 s0.512-0.195,0.707,0l0.707,0.707c0.195,0.195,0.195,0.512,0,0.707C59.398,38.993,59.27,39.042,59.142,39.042z M57.021,36.92 c-0.128,0-0.256-0.049-0.354-0.146l-1.415-1.414c-0.195-0.195-0.195-0.512,0-0.707s0.512-0.195,0.707,0l1.415,1.414 c0.195,0.195,0.195,0.512,0,0.707C57.277,36.871,57.149,36.92,57.021,36.92z M54.192,34.092c-0.128,0-0.256-0.049-0.354-0.146 L41.111,21.218c-0.195-0.195-0.195-0.512,0-0.707s0.512-0.195,0.707,0l12.728,12.728c0.195,0.195,0.195,0.512,0,0.707 C54.448,34.043,54.32,34.092,54.192,34.092z"/></g></svg>