<svg xmlns="http://www.w3.org/2000/svg" viewBox="0 0 80 80"><path d="M 38 13 C 36.34375 13 35 14.34375 35 16 C 35 16.367188 35.070313 16.726563 35.203125 17.066406 C 35.210938 17.101563 35.222656 17.132813 35.234375 17.164063 C 35.238281 17.167969 35.238281 17.175781 35.242188 17.179688 C 36.234375 19.738281 40 22 40 22 C 40 22 43.839844 19.695313 44.789063 17.105469 C 44.929688 16.753906 45 16.378906 45 16 C 45 14.34375 43.65625 13 42 13 C 41.261719 13 40.550781 13.273438 40 13.765625 C 39.449219 13.273438 38.738281 13 38 13 Z M 11 16 C 10.449219 16 10 16.449219 10 17 C 10 17.550781 10.449219 18 11 18 C 11.550781 18 12 17.550781 12 17 C 12 16.449219 11.550781 16 11 16 Z M 18 16 C 17.449219 16 17 16.449219 17 17 C 17 17.550781 17.449219 18 18 18 C 18.550781 18 19 17.550781 19 17 C 19 16.449219 18.550781 16 18 16 Z M 24 16 C 23.449219 16 23 16.449219 23 17 C 23 17.550781 23.449219 18 24 18 C 24.550781 18 25 17.550781 25 17 C 25 16.449219 24.550781 16 24 16 Z M 29 16 C 28.449219 16 28 16.449219 28 17 C 28 17.550781 28.449219 18 29 18 C 29.550781 18 30 17.550781 30 17 C 30 16.449219 29.550781 16 29 16 Z M 51 16 C 50.449219 16 50 16.449219 50 17 C 50 17.550781 50.449219 18 51 18 C 51.550781 18 52 17.550781 52 17 C 52 16.449219 51.550781 16 51 16 Z M 56 16 C 55.449219 16 55 16.449219 55 17 C 55 17.550781 55.449219 18 56 18 C 56.550781 18 57 17.550781 57 17 C 57 16.449219 56.550781 16 56 16 Z M 62 16 C 61.449219 16 61 16.449219 61 17 C 61 17.550781 61.449219 18 62 18 C 62.550781 18 63 17.550781 63 17 C 63 16.449219 62.550781 16 62 16 Z M 69 16 C 68.449219 16 68 16.449219 68 17 C 68 17.550781 68.449219 18 69 18 C 69.550781 18 70 17.550781 70 17 C 70 16.449219 69.550781 16 69 16 Z M 24 23 C 18.226563 23 13.164063 25.394531 9.609375 29.605469 C 6.058594 33.816406 4 39.808594 4 47 C 4 53.394531 6.6875 63.261719 6.6875 63.261719 L 6.890625 64 L 17.875 64 C 19.171875 64.980469 20.695313 65.695313 22.4375 66.050781 C 23.140625 66.617188 24.019531 67 25 67 C 25.980469 67 26.859375 66.617188 27.5625 66.050781 C 29.304688 65.695313 30.828125 64.980469 32.125 64 L 41.578125 64 L 41.871094 63.496094 C 41.871094 63.496094 42.621094 62.144531 43.476563 59.9375 C 43.480469 59.933594 43.480469 59.925781 43.484375 59.921875 C 45.046875 63.027344 47.808594 65.34375 51.480469 66.078125 C 52.175781 66.625 53.035156 67 54 67 C 54.980469 67 55.859375 66.617188 56.5625 66.050781 C 58.304688 65.695313 59.828125 64.980469 61.125 64 L 70.578125 64 L 70.871094 63.496094 C 70.871094 63.496094 75 56.296875 75 47 C 75 40.59375 73.738281 35.652344 71.457031 32.238281 C 69.261719 28.953125 66.039063 27.175781 62.40625 27.046875 C 61.914063 26.453125 58.929688 23 53 23 C 47.539063 23 42.71875 25.144531 39.203125 28.9375 C 38.808594 28.667969 38.398438 28.429688 37.976563 28.21875 C 37.898438 28.179688 37.824219 28.140625 37.746094 28.105469 C 37.464844 27.972656 37.179688 27.851563 36.890625 27.742188 C 36.695313 27.667969 36.5 27.601563 36.300781 27.542969 C 36.148438 27.492188 35.992188 27.445313 35.832031 27.40625 C 35.507813 27.320313 35.179688 27.25 34.84375 27.195313 C 34.761719 27.183594 34.675781 27.171875 34.59375 27.160156 C 34.203125 27.105469 33.804688 27.0625 33.40625 27.046875 C 32.914063 26.453125 29.929688 23 24 23 Z M 24 25 C 29.554688 25 32.199219 28.597656 32.199219 28.597656 L 32.5 29 L 33 29 C 36.191406 29 38.824219 30.402344 40.792969 33.351563 C 42.515625 35.933594 43.679688 39.746094 43.941406 44.769531 C 43.980469 45.488281 44 46.234375 44 47 C 44 53.160156 42.164063 58.121094 41.082031 60.515625 C 40.722656 61.3125 40.445313 61.824219 40.347656 62 L 34.160156 62 C 35.992188 59.691406 37 56.65625 37 53.367188 L 37 47 C 37 43.632813 35.90625 41.371094 34.769531 39.996094 C 33.636719 38.617188 32.390625 38.078125 32.390625 38.078125 L 31.78125 37.824219 L 31.308594 38.277344 C 31.308594 38.277344 30.679688 38.894531 29.160156 39.589844 C 27.640625 40.285156 25.289063 41 22 41 C 20.09375 41 17.929688 41.960938 16.148438 43.671875 C 14.367188 45.386719 13 47.921875 13 51.050781 L 13 53.371094 C 13 56.65625 14.007813 59.691406 15.835938 62 L 8.453125 62 C 8.152344 60.847656 6 52.4375 6 47 C 6 46.148438 6.03125 45.316406 6.089844 44.507813 C 6.503906 38.839844 8.34375 34.207031 11.140625 30.894531 C 14.335938 27.105469 18.773438 25 24 25 Z M 53 25 C 58.554688 25 61.199219 28.597656 61.199219 28.597656 L 61.5 29 L 62 29 C 65.191406 29 67.824219 30.402344 69.792969 33.351563 C 71.761719 36.300781 73 40.859375 73 47 C 73 55.214844 69.734375 61.292969 69.347656 62 L 63.160156 62 C 64.992188 59.691406 66 56.65625 66 53.367188 L 66 47 C 66 43.632813 64.90625 41.371094 63.769531 39.996094 C 62.636719 38.617188 61.390625 38.078125 61.390625 38.078125 L 60.78125 37.824219 L 60.308594 38.277344 C 60.308594 38.277344 59.679688 38.894531 58.160156 39.589844 C 56.640625 40.285156 54.289063 41 51 41 C 49.324219 41 47.445313 41.742188 45.816406 43.085938 C 45.816406 43.085938 45.816406 43.082031 45.816406 43.082031 C 45.769531 42.5625 45.707031 42.054688 45.640625 41.558594 C 45.628906 41.472656 45.617188 41.382813 45.605469 41.296875 C 45.535156 40.828125 45.460938 40.363281 45.375 39.917969 C 45.359375 39.828125 45.339844 39.742188 45.324219 39.652344 C 45.132813 38.710938 44.914063 37.808594 44.652344 36.96875 C 44.5625 36.6875 44.464844 36.421875 44.371094 36.15625 C 44.277344 35.898438 44.1875 35.644531 44.089844 35.394531 C 44.003906 35.183594 43.914063 34.976563 43.824219 34.769531 C 43.695313 34.480469 43.5625 34.203125 43.421875 33.929688 C 43.34375 33.773438 43.265625 33.609375 43.183594 33.457031 C 42.953125 33.035156 42.714844 32.625 42.457031 32.238281 C 42.203125 31.859375 41.933594 31.507813 41.65625 31.167969 C 41.652344 31.164063 41.648438 31.164063 41.648438 31.160156 C 41.371094 30.824219 41.078125 30.511719 40.773438 30.21875 C 43.914063 26.867188 48.101563 25 53 25 Z M 33 30 C 32.449219 30 32 30.449219 32 31 C 32 31.550781 32.449219 32 33 32 C 33.550781 32 34 31.550781 34 31 C 34 30.449219 33.550781 30 33 30 Z M 62 30 C 61.449219 30 61 30.449219 61 31 C 61 31.550781 61.449219 32 62 32 C 62.550781 32 63 31.550781 63 31 C 63 30.449219 62.550781 30 62 30 Z M 33 34 C 32.449219 34 32 34.449219 32 35 C 32 35.550781 32.449219 36 33 36 C 33.550781 36 34 35.550781 34 35 C 34 34.449219 33.550781 34 33 34 Z M 62 34 C 61.449219 34 61 34.449219 61 35 C 61 35.550781 61.449219 36 62 36 C 62.550781 36 63 35.550781 63 35 C 63 34.449219 62.550781 34 62 34 Z M 31.9375 40.191406 C 32.160156 40.304688 32.539063 40.433594 33.230469 41.265625 C 34.09375 42.3125 35 44.054688 35 47 L 35 53.367188 C 35 58.902344 32.070313 63.273438 26.941406 64.1875 L 26.65625 64.234375 L 26.441406 64.433594 C 26.050781 64.789063 25.558594 65 25 65 C 24.441406 65 23.949219 64.789063 23.558594 64.433594 L 23.34375 64.234375 L 23.058594 64.1875 C 17.929688 63.273438 15 58.902344 15 53.371094 L 15 51.050781 C 15 48.5 16.089844 46.507813 17.535156 45.113281 C 18.980469 43.722656 20.820313 43 22 43 C 25.582031 43 28.230469 42.214844 29.992188 41.410156 C 31.261719 40.828125 31.566406 40.496094 31.9375 40.191406 Z M 60.9375 40.191406 C 61.160156 40.304688 61.539063 40.433594 62.230469 41.265625 C 63.09375 42.3125 64 44.054688 64 47 L 64 53.367188 C 64 58.902344 61.070313 63.273438 55.941406 64.1875 L 55.65625 64.234375 L 55.441406 64.433594 C 55.050781 64.789063 54.558594 65 54 65 C 53.441406 65 52.949219 64.789063 52.558594 64.433594 L 52.34375 64.234375 L 52.058594 64.1875 C 48.109375 63.484375 45.519531 60.734375 44.488281 56.964844 C 44.488281 56.960938 44.488281 56.960938 44.488281 56.957031 C 44.894531 55.589844 45.269531 54.078125 45.546875 52.40625 C 45.546875 52.394531 45.550781 52.386719 45.550781 52.375 C 45.550781 52.363281 45.554688 52.355469 45.554688 52.34375 C 45.605469 52.039063 45.648438 51.726563 45.691406 51.410156 C 45.71875 51.210938 45.742188 51.007813 45.765625 50.804688 C 45.796875 50.566406 45.824219 50.328125 45.84375 50.089844 C 45.878906 49.757813 45.902344 49.421875 45.921875 49.082031 C 45.933594 48.917969 45.949219 48.757813 45.957031 48.59375 C 45.984375 48.070313 46 47.539063 46 47 C 46 46.570313 45.980469 46.164063 45.96875 45.75 C 47.492188 43.96875 49.660156 43 51 43 C 54.582031 43 57.230469 42.214844 58.992188 41.410156 C 60.261719 40.828125 60.566406 40.496094 60.9375 40.191406 Z M 19.5 49 C 18.671875 49 18 49.671875 18 50.5 C 18 51.328125 18.671875 52 19.5 52 C 20.328125 52 21 51.328125 21 50.5 C 21 49.671875 20.328125 49 19.5 49 Z M 30.5 49 C 29.671875 49 29 49.671875 29 50.5 C 29 51.328125 29.671875 52 30.5 52 C 31.328125 52 32 51.328125 32 50.5 C 32 49.671875 31.328125 49 30.5 49 Z M 48.5 49 C 47.671875 49 47 49.671875 47 50.5 C 47 51.328125 47.671875 52 48.5 52 C 49.328125 52 50 51.328125 50 50.5 C 50 49.671875 49.328125 49 48.5 49 Z M 59.5 49 C 58.671875 49 58 49.671875 58 50.5 C 58 51.328125 58.671875 52 59.5 52 C 60.328125 52 61 51.328125 61 50.5 C 61 49.671875 60.328125 49 59.5 49 Z"/></svg>