<svg xmlns="http://www.w3.org/2000/svg" viewBox="0 0 64 64"><radialGradient id="lvqwlsIkWXxKBbsGgohlXa" cx="32" cy="31.5" r="31.259" gradientUnits="userSpaceOnUse" spreadMethod="reflect"><stop offset="0" stop-color="#f4e9c3"/><stop offset=".219" stop-color="#f8eecd"/><stop offset=".644" stop-color="#fdf4dc"/><stop offset="1" stop-color="#fff6e1"/></radialGradient><path fill="url(#lvqwlsIkWXxKBbsGgohlXa)" d="M60.5,43l-6.857,0c-1.308,0-2.499-0.941-2.63-2.242C50.863,39.261,52.034,38,53.5,38h4.369 c1.451,0,2.789-0.972,3.071-2.395C61.319,33.693,59.848,32,58,32h-1.83c-1.624,0-3.081-1.216-3.166-2.839 C52.914,27.431,54.29,26,56,26h4c2.335,0,4.22-2.028,3.979-4.41c-0.21-2.075-2.082-3.59-4.168-3.59h-1.704 c-0.996,0-1.92-0.681-2.08-1.664C55.824,15.083,56.785,14,58,14l0.357,0c1.308,0,2.5-0.941,2.63-2.242 C61.137,10.261,59.966,9,58.5,9h-7C50.672,9,50,8.328,50,7.5S50.672,6,51.5,6l0.857,0c1.308,0,2.5-0.941,2.63-2.242 C55.137,2.261,53.966,1,52.5,1L10.536,1c-1.308,0-2.499,0.941-2.63,2.242C7.756,4.739,8.927,6,10.393,6l1.5,0 c0.996,0,1.92,0.681,2.08,1.664C14.176,8.917,13.215,10,12,10l-5.811,0c-2.086,0-3.958,1.514-4.168,3.59C1.78,15.972,3.665,18,6,18 l2.302,0c1.895,0,3.594,1.419,3.693,3.312C12.101,23.33,10.496,25,8.501,25l-3.286,0c-2.611,0-4.943,1.909-5.191,4.509 C-0.261,32.491,2.077,35,5,35l3.302,0c1.895,0,3.594,1.419,3.693,3.312C12.101,40.33,10.495,42,8.5,42H5.999 C3.791,42,2,43.791,2,45.999v0.001C2,48.209,3.791,50,5.999,50H11c1.105,0,2,0.895,2,2v0c0,1.105-0.895,2-2,2l-1.811,0 c-2.086,0-3.958,1.514-4.168,3.59C4.78,59.972,6.665,62,9,62l45.812,0c2.086,0,3.958-1.514,4.168-3.59C59.22,56.028,57.335,54,55,54 c-1.215,0-2.176-1.083-1.973-2.336c0.16-0.983,1.083-1.664,2.08-1.664l5.278,0c1.67,0,3.195-1.122,3.537-2.757 C64.392,44.998,62.668,43,60.5,43z"/><linearGradient id="lvqwlsIkWXxKBbsGgohlXb" x1="32" x2="32" y1="56.066" y2="8.066" gradientUnits="userSpaceOnUse" spreadMethod="reflect"><stop offset="0" stop-color="#46baeb"/><stop offset="1" stop-color="#85e0fb"/></linearGradient><path fill="url(#lvqwlsIkWXxKBbsGgohlXb)" d="M35.198,32.001C38.667,28.561,44,22.88,44,18.515c0-6.611-5.333-10.449-12-10.449 s-12,3.838-12,10.449c0,4.365,5.333,10.181,8.802,13.621C25.333,35.441,20,41.123,20,45.622c0,6.611,5.333,10.444,12,10.444 s12-3.833,12-10.444C44,41.123,38.667,35.441,35.198,32.001z"/><linearGradient id="lvqwlsIkWXxKBbsGgohlXc" x1="32" x2="32" y1="55" y2="37" gradientUnits="userSpaceOnUse" spreadMethod="reflect"><stop offset="0" stop-color="#ffaf95"/><stop offset="1" stop-color="#ffc598"/><stop offset="1" stop-color="#ffc598"/></linearGradient><path fill="url(#lvqwlsIkWXxKBbsGgohlXc)" d="M40,47.255C40,51.533,36.418,55,32,55s-8-3.467-8-7.745c0-2.961,3.833-7.182,6.193-9.501 c1.024-1.006,2.591-1.006,3.615,0C36.167,40.073,40,44.295,40,47.255z"/><linearGradient id="lvqwlsIkWXxKBbsGgohlXd" x1="150" x2="150" y1="207.612" y2="200.852" gradientTransform="rotate(180 91 106)" gradientUnits="userSpaceOnUse" spreadMethod="reflect"><stop offset="0" stop-color="#ff9757"/><stop offset="1" stop-color="#ffb65b"/></linearGradient><path fill="url(#lvqwlsIkWXxKBbsGgohlXd)" d="M46,9H18c-1.105,0-2-0.895-2-2v0c0-1.105,0.895-2,2-2h28c1.105,0,2,0.895,2,2v0 C48,8.105,47.105,9,46,9z"/><linearGradient id="lvqwlsIkWXxKBbsGgohlXe" x1="150" x2="150" y1="203" y2="199" gradientTransform="rotate(180 91 106)" gradientUnits="userSpaceOnUse" spreadMethod="reflect"><stop offset="0" stop-color="#f28753"/><stop offset="1" stop-color="#f39756"/></linearGradient><path fill="url(#lvqwlsIkWXxKBbsGgohlXe)" d="M43,13H21c-1.105,0-2-0.895-2-2V9h26v2C45,12.105,44.105,13,43,13z"/><linearGradient id="lvqwlsIkWXxKBbsGgohlXf" x1="32" x2="32" y1="59.611" y2="52.852" gradientUnits="userSpaceOnUse" spreadMethod="reflect"><stop offset="0" stop-color="#ff9757"/><stop offset="1" stop-color="#ffb65b"/></linearGradient><path fill="url(#lvqwlsIkWXxKBbsGgohlXf)" d="M18,55h28c1.105,0,2,0.895,2,2v0c0,1.105-0.895,2-2,2H18c-1.105,0-2-0.895-2-2v0 C16,55.895,16.895,55,18,55z"/><linearGradient id="lvqwlsIkWXxKBbsGgohlXg" x1="32" x2="32" y1="55" y2="51" gradientUnits="userSpaceOnUse" spreadMethod="reflect"><stop offset="0" stop-color="#f18652"/><stop offset="1" stop-color="#f39756"/></linearGradient><path fill="url(#lvqwlsIkWXxKBbsGgohlXg)" d="M21,51h22c1.105,0,2,0.895,2,2v2H19v-2C19,51.895,19.895,51,21,51z"/></svg>