<svg xmlns="http://www.w3.org/2000/svg" viewBox="0 0 128 128"><path fill="#fff" d="M64 31A20 20 0 1 0 64 71A20 20 0 1 0 64 31Z"/><path fill="#444b54" d="M64,74c-12.7,0-23-10.3-23-23s10.3-23,23-23s23,10.3,23,23S76.7,74,64,74z M64,34 c-9.4,0-17,7.6-17,17s7.6,17,17,17s17-7.6,17-17S73.4,34,64,34z"/><path fill="#fff" d="M120.1,10.4c-3.1-1.2-6.6,0.4-7.7,3.5L93.6,63.6C88.9,75.9,77.2,84,64,84l0,0 c-13.2,0-24.9-8.1-29.6-20.4L15.7,14.1c-1.1-2.9-4.1-4.6-7.1-3.9c-3.6,0.9-5.5,4.6-4.2,8l17.1,45.5c4.1,11,7.2,22.3,9.1,33.9 c1.6,9.7,6.3,29.5,6.3,29.5h53.8c0,0,5.1-19.8,6.8-29.5c1.9-11.5,4.9-22.9,9.1-33.9l17.1-45.5C124.8,15,123.2,11.6,120.1,10.4z"/><path fill="#444b54" d="M84.4,87H35.8c-1.7,0-3-1.3-3-3s1.3-3,3-3h48.6c1.7,0,3,1.3,3,3S86,87,84.4,87z"/><path fill="#444b54" d="M37 124l-6.4-36.5c-.3-1.8 1.1-3.5 3-3.5h60.9c1.9 0 3.3 1.7 3 3.5L91 124H37zM116 127c-.2 0-.4 0-.6-.1-.2 0-.4-.1-.6-.2s-.3-.2-.5-.3c-.2-.1-.3-.2-.4-.4-.6-.6-.9-1.3-.9-2.1 0-.2 0-.4.1-.6 0-.2.1-.4.2-.6s.2-.3.3-.5c.1-.2.2-.3.4-.5s.3-.3.4-.4c.2-.1.3-.2.5-.3.2-.1.4-.1.6-.2 1-.2 2 .1 2.7.8.1.1.3.3.4.5s.2.3.3.5c.1.2.1.4.2.6 0 .2.1.4.1.6 0 .8-.3 1.6-.9 2.1-.1.1-.3.3-.4.4-.2.1-.3.2-.5.3-.2.1-.4.1-.6.2C116.4 127 116.2 127 116 127z"/><path fill="#fff" d="M64 99A5 5 0 1 0 64 109A5 5 0 1 0 64 99Z"/><path fill="#444b54" d="M101 121h-6.4l5.8-33c.3-1.8-.2-3.5-1.3-4.9C98 81.7 96.3 81 94.5 81H33.6c-1.8 0-3.5.8-4.6 2.1-1.1 1.4-1.6 3.1-1.3 4.9l5.8 33h-5.9c-1.7 0-3 1.3-3 3s1.3 3 3 3H101c1.7 0 3-1.3 3-3S102.7 121 101 121zM33.6 87h60.9l-5.9 34h-49L33.6 87zM40.9 77c-.8 0-1.6-.3-2.2-.9-3.1-3.3-5.5-7.2-7.1-11.4L12.9 15.1c-.6-1.5-2.1-2.4-3.6-2.1-.9.2-1.6.7-2 1.5S6.8 16.2 7.1 17l17.1 45.5c1.3 3.4 2.5 6.9 3.6 10.4.5 1.6-.4 3.3-2 3.8s-3.3-.4-3.8-2c-1-3.4-2.2-6.8-3.4-10.1l-17-45.4c-.9-2.4-.7-5.1.5-7.4S5.4 7.9 8 7.3c4.4-1.1 8.9 1.4 10.6 5.8l18.7 49.5c1.3 3.5 3.3 6.7 5.9 9.5 1.1 1.2 1.1 3.1-.1 4.2C42.4 76.7 41.7 77 40.9 77zM103 77c-.3 0-.6 0-.9-.1-1.6-.5-2.5-2.2-2-3.8 1.1-3.5 2.3-7.1 3.6-10.5l17.1-45.5c.3-.8.3-1.6-.1-2.3-.3-.7-.9-1.3-1.7-1.6-.8-.3-1.6-.3-2.3.1-.7.3-1.3.9-1.6 1.7L96.4 64.6c-1.6 4.1-3.9 7.9-6.9 11.2-1.1 1.2-3 1.3-4.2.2-1.2-1.1-1.3-3-.2-4.2 2.5-2.7 4.4-5.8 5.7-9.2l18.8-49.7c.9-2.2 2.5-4 4.7-5s4.6-1.1 6.9-.2c2.2.8 4 2.5 5 4.7s1.1 4.6.2 6.9l-17.1 45.5c-1.3 3.3-2.4 6.8-3.5 10.2C105.4 76.2 104.3 77 103 77z"/></svg>