<svg xmlns="http://www.w3.org/2000/svg" viewBox="0 0 64 64"><radialGradient id="fLNlITabrf2CvqxWq8F29a" cx="30.167" cy="32.573" r="40.161" gradientUnits="userSpaceOnUse" spreadMethod="reflect"><stop offset="0" stop-color="#f4e9c3"/><stop offset=".219" stop-color="#f8eecd"/><stop offset=".644" stop-color="#fdf4dc"/><stop offset="1" stop-color="#fff6e1"/></radialGradient><path fill="url(#fLNlITabrf2CvqxWq8F29a)" d="M59,31h1.302c1.896,0,3.595-1.355,3.693-3.248c0.105-2.018-1.501-3.687-3.495-3.687l-2.402,0 c-0.982,0-1.892-0.664-2.065-1.631C56.011,22.308,56,22.183,56,22.061c0.002-1.084,0.867-1.966,1.944-1.995 c1.511-0.041,2.864-1.146,3.035-2.649c0.014-0.12,0.02-0.238,0.02-0.355c-0.001-1.655-1.344-2.997-3-2.997h-2.302 c-0.216,0-2.431-0.019-2.64-0.054C53.039,14.007,53.019,14.004,53,14v0.065V23H32v-9h12.858c0.218-0.844,0.268-1.755-0.473-2.86 C43.466,9.769,41.873,9,40.223,9L35.5,9C34.672,9,34,8.328,34,7.5C34,6.672,34.672,6,35.5,6l0.331,0 c1.625,0,3.08-1.217,3.165-2.839C39.086,1.43,37.711,0,36,0L7.169,0c-1.625,0-3.08,1.217-3.165,2.839C3.914,4.569,5.289,6,7,6h7.5 C15.328,6,16,6.672,16,7.5C16,8.328,15.328,9,14.5,9H6c-2.209,0-4,1.791-4,4l0,0v0c0,2.209,1.791,4,4,4h13v6h-7l1,10.554 c-0.536,0.401-0.917,0.99-0.987,1.688c-0.092,0.921,0.318,1.75,0.987,2.253v2.522c-0.014,0.074-0.021,0.149-0.013,0.225 C13.137,41.739,11.966,43,10.5,43l-7.33,0c-1.493,0-2.88,1.011-3.126,2.483c-0.122,0.731,0.022,1.423,0.343,2.005 C0.923,48.458,2.004,49,3.112,49h1.581c1.188,0,2.104,0.664,2.275,1.635C6.989,50.758,7,50.878,7,50.997 C7.001,52.103,6.106,53,5.001,53H5c-1.135,0-2.236,0.602-2.699,1.638C1.311,56.852,2.905,59,5,59h31c1.657,0,3-1.343,3-3v0 c0-1.657-1.343-3-3-3h-5V43l23,0h4.83c1.57,0,3.084-1.206,3.165-2.774c0.09-1.73-1.286-3.161-2.996-3.161h-0.013 c-0.006,0-0.011,0-0.017,0c-0.777,0-1.539-0.254-2.078-0.768c-0.17-0.162-0.318-0.35-0.438-0.564C55.166,33.414,56.809,31,59,31z"/><radialGradient id="fLNlITabrf2CvqxWq8F29b" cx="30.167" cy="39.333" r="41.484" gradientUnits="userSpaceOnUse" spreadMethod="reflect"><stop offset="0" stop-color="#f4e9c3"/><stop offset=".219" stop-color="#f8eecd"/><stop offset=".644" stop-color="#fdf4dc"/><stop offset="1" stop-color="#fff6e1"/></radialGradient><path fill="url(#fLNlITabrf2CvqxWq8F29b)" d="M4.5,40C5.881,40,7,38.881,7,37.5C7,36.119,5.881,35,4.5,35S2,36.119,2,37.5 C2,38.881,3.119,40,4.5,40z"/><linearGradient id="fLNlITabrf2CvqxWq8F29c" x1="32" x2="32" y1="55" y2="20" gradientUnits="userSpaceOnUse" spreadMethod="reflect"><stop offset="0" stop-color="#fec7c9"/><stop offset=".989" stop-color="#fdc7d7"/></linearGradient><path fill="url(#fLNlITabrf2CvqxWq8F29c)" d="M9,50V20h46v30c0,2.761-2.239,5-5,5H14C11.239,55,9,52.761,9,50z"/><linearGradient id="fLNlITabrf2CvqxWq8F29d" x1="32" x2="32" y1="23" y2="10" gradientUnits="userSpaceOnUse" spreadMethod="reflect"><stop offset="0" stop-color="#ff634d"/><stop offset=".208" stop-color="#fd6464"/><stop offset=".522" stop-color="#fc6582"/><stop offset=".793" stop-color="#fa6694"/><stop offset=".989" stop-color="#fa669a"/><stop offset="1" stop-color="#fa669a"/></linearGradient><path fill="url(#fLNlITabrf2CvqxWq8F29d)" d="M55,14.8V23H9v-8.2c0-2.653,2.166-4.8,4.842-4.8h36.316C52.834,10,55,12.147,55,14.8"/><linearGradient id="fLNlITabrf2CvqxWq8F29e" x1="21.5" x2="21.5" y1="20" y2="10" gradientUnits="userSpaceOnUse" spreadMethod="reflect"><stop offset="0" stop-color="#ff5840"/><stop offset=".007" stop-color="#ff5840"/><stop offset=".989" stop-color="#fa528c"/><stop offset="1" stop-color="#fa528c"/></linearGradient><path fill="url(#fLNlITabrf2CvqxWq8F29e)" d="M24.655,10h-6.311C16.928,10.995,16,12.638,16,14.5c0,3.036,2.464,5.5,5.5,5.5 s5.5-2.464,5.5-5.5C27,12.638,26.072,10.995,24.655,10z"/><linearGradient id="fLNlITabrf2CvqxWq8F29f" x1="21.5" x2="21.5" y1="6" y2="17" gradientUnits="userSpaceOnUse" spreadMethod="reflect"><stop offset="0" stop-color="#a4a4a4"/><stop offset=".63" stop-color="#7f7f7f"/><stop offset="1" stop-color="#6f6f6f"/><stop offset="1" stop-color="#6f6f6f"/></linearGradient><path fill="url(#fLNlITabrf2CvqxWq8F29f)" d="M21.5,17L21.5,17c-1.375,0-2.5-1.125-2.5-2.5v-6C19,7.125,20.125,6,21.5,6h0 C22.875,6,24,7.125,24,8.5v6C24,15.875,22.875,17,21.5,17z"/><linearGradient id="fLNlITabrf2CvqxWq8F29g" x1="42.5" x2="42.5" y1="20" y2="10" gradientUnits="userSpaceOnUse" spreadMethod="reflect"><stop offset="0" stop-color="#ff5840"/><stop offset=".007" stop-color="#ff5840"/><stop offset=".989" stop-color="#fa528c"/><stop offset="1" stop-color="#fa528c"/></linearGradient><path fill="url(#fLNlITabrf2CvqxWq8F29g)" d="M45.655,10h-6.311C37.928,10.995,37,12.638,37,14.5c0,3.036,2.464,5.5,5.5,5.5 s5.5-2.464,5.5-5.5C48,12.638,47.072,10.995,45.655,10z"/><linearGradient id="fLNlITabrf2CvqxWq8F29h" x1="42.5" x2="42.5" y1="6" y2="17" gradientUnits="userSpaceOnUse" spreadMethod="reflect"><stop offset="0" stop-color="#a4a4a4"/><stop offset=".63" stop-color="#7f7f7f"/><stop offset="1" stop-color="#6f6f6f"/><stop offset="1" stop-color="#6f6f6f"/></linearGradient><path fill="url(#fLNlITabrf2CvqxWq8F29h)" d="M42.5,17L42.5,17c-1.375,0-2.5-1.125-2.5-2.5v-6C40,7.125,41.125,6,42.5,6h0 C43.875,6,45,7.125,45,8.5v6C45,15.875,43.875,17,42.5,17z"/><g><linearGradient id="fLNlITabrf2CvqxWq8F29i" x1="26.378" x2="26.378" y1="45.92" y2="30" gradientUnits="userSpaceOnUse" spreadMethod="reflect"><stop offset="0" stop-color="#ff5840"/><stop offset="1" stop-color="#fc5472"/></linearGradient><path fill="url(#fLNlITabrf2CvqxWq8F29i)" d="M26.247,30c2.263,0,5.703,0.948,5.703,3.144c0,0.967-0.786,1.672-1.753,1.672 c-1.698,0-1.71-1.834-4.05-1.834c-1.31,0-2.076,0.604-2.076,1.309c0,0.746,0.383,1.29,1.915,1.612l2.458,0.524 c3.083,0.665,4.312,2.237,4.312,4.514c0,2.579-1.632,4.977-6.368,4.977c-3.032,0-6.388-0.863-6.388-3.204 c0-1.007,0.827-1.672,1.834-1.672c1.709,0,1.975,1.612,4.393,1.612c1.612,0,2.479-0.484,2.479-1.451 c0-0.705-0.383-1.189-1.834-1.491l-2.478-0.524c-2.821-0.604-4.211-2.015-4.211-4.514C20.182,32.036,22.378,30,26.247,30z"/><linearGradient id="fLNlITabrf2CvqxWq8F29j" x1="39.5" x2="39.5" y1="46" y2="34.105" gradientUnits="userSpaceOnUse" spreadMethod="reflect"><stop offset="0" stop-color="#ff5840"/><stop offset="1" stop-color="#fc5472"/></linearGradient><path fill="url(#fLNlITabrf2CvqxWq8F29j)" d="M39.864,38.867h1.414c0-1.206-0.125-2.017-1.58-2.017c-1.768,0-2.028,1.31-3.306,1.31 c-0.915,0-1.664-0.582-1.664-1.518c0-1.99,3.025-2.537,5.012-2.537c3.265,0,5.261,1.248,5.261,4.72v5.22 c0,0.998-0.769,1.85-1.788,1.85c-0.915,0-1.663-0.665-1.788-1.539C40.529,45.584,39.365,46,37.867,46 C35.768,46,34,44.773,34,42.548C34,39.262,37.285,38.867,39.864,38.867z M39.136,43.525c1.414,0,2.162-1.081,2.162-2.412v-0.187 h-1.227c-0.956,0-2.287,0.166-2.287,1.393C37.785,43.11,38.387,43.525,39.136,43.525z"/></g></svg>