<svg xmlns="http://www.w3.org/2000/svg" width="512" height="512" viewBox="0 0 512 512"><path fill="#14B6B9" d="M336.4 223.8c-8.7-6.7-18-13.1-27.7-18.9-.6-.2-1.2-.6-1.7-1-.5-.3-1.1-.6-1.7-1-4.1 22.9-23.9 37-35.8 55.9 6.7 5.3 12.7 11.5 17.6 18.4 15.4-20.9 49.6-19.1 62-42.8C345 230.7 340.8 227.2 336.4 223.8zM347.7 67.3c-7.1-.9-13.4-4.2-20.1-7.6-4.8-2.5-9.7-5-15.3-4.9-6 .1-12 1-18 1.1-2.3 0-4.6-.1-6.7-.4-.3 10 1.5 20 2.8 29.9 1.4 11.2 2 22.4.9 33.7-1.9 19.8-7.1 39.5-15.3 57.7 10.8 4.1 21.1 9.2 30.6 14.4.9.5 1.7 1 2.6 1.5 16.8-21.3 27.9-46.7 33.5-73.1 2.9-13.9 4.7-28 4.9-42.2C347.8 74.1 347.8 70.7 347.7 67.3zM287.6 306.3c-7.6 24.1-33.7 17.8-53 11-1.4.1-2.9-.3-3.9-1.2-.1.3-.2.7-.4 1 1.5 8.1 5.7 15.9 10.3 22.5 4.8 6.9 10.6 13.8 18.4 17.4 6.5 2.9 1.6 12.8-4.9 9.9-9.4-4.3-16.9-12.7-22.6-21.1-4.5-6.7-8.4-13.9-10.7-21.7-.8.1-1.7.2-2.6.1-1.3 2.1-2.4 6.6-3 10.1-1 6.3-1.4 12.6-1.3 18.9.2 5.9.5 12.1 2.4 17.7.5 1.5 1.6 4.1 2.2 4.7.9.9.2.6 1.4 1-.5-.2-.3-.2.2-.2 7.1-.6 7.9 10.4.8 11-15.1 1.3-17.5-20.8-17.9-31.3-.3-7.9 0-16 1.4-23.9.6-3.6 1.4-7.6 2.9-11.1-.4.5-1 1-1.7 1.4-9.6 4.9-18.7 11.1-26.7 18.3-7.9 7.2-15.8 15.3-19.5 25.6-.3.9-.7 1.5-1.2 2 7.4 6.9 16.4 12.4 27 15.8 19.1 6.1 39 5.9 57.3-2.6 16.5-7.7 30.8-21.1 38.8-37.5C287.1 332.2 289.6 319 287.6 306.3zM196.6 309.5c-18.1.6-35.1 6.3-51 15-6.2 3.4-12.4-5.7-6.2-9.1 16.6-9.1 34.3-15.5 53.2-16.7-.5-2.6-.7-5.1-.7-7.6-2.8.4-6.2-1.1-6.9-4.7.2.9.1.3-.3-.1-.5-.4-.6-.4-1.5-.8-1.6-.6-3.6-1-5.4-1.1-5.1-.5-10.3-.2-15.4.3-8.8.9-17.6 2.3-26.2 4.5-1.6.4-3.1.1-4.3-.6-.4 3.9-.6 7.9-.6 11.8 0 21.5 6.2 43 18.8 59.3 4.2-10.2 12.2-19 20.4-26.1 8.8-7.7 18.2-14.8 28.7-20.1C198.3 312.2 197.4 310.9 196.6 309.5zM211.5 111.3c-2.2-11.3-5.2-21.1-10.7-31.1-3.5-6.2-7.2-12.7-8.9-19.8-3.4 1.3-7 2.3-10.8 2.9-9.1 1.5-22.5.2-29.4 7.4-3.6 3.7-6.3 8.1-9.3 12.3-2 2.9-4.6 5.6-7.2 8 .2.3.4.7.5 1 2.9 7.7 7.8 14.6 12.4 21.3 5.9 8.8 12 17.4 17.6 26.3 8.1 12.9 18.3 28.9 18.8 44.9 10-6.6 20.8-11.8 32.4-14.4C216.6 150.5 215.2 130.7 211.5 111.3zM276.8 53.1c-1.4-.4-2.7-.9-4.1-1.4-6.5-2.5-12.9-5.3-19.5-7.3-6.7-2-14.4-4.3-21.5-2.9-5.9 1.2-11.1 4.5-16.4 7.2-4.5 2.3-8.8 4.8-13.2 7 1.2 9.1 7.4 17.2 11.4 25.1 4.7 9.3 7 19.3 8.9 29.6 3.6 19.2 5 38.6 5.4 58.1.3 0 .5 0 .8-.1 12.3-.9 24.8 1.1 36.9 4.8 8.4-18.2 13.7-38 15.1-57.9C282.2 94.4 275.9 74 276.8 53.1z"/><path fill="#14B6B9" d="M408 82.2c-6.2-2.3-12.1-5.3-17.9-8.3-9.6-5.1-19.5-10.8-30.3-12.2 0 1.4-.4 2.7-1.2 3.8 1.3 45.2-9.8 91.6-36.4 128.4.1 1.2-.4 2.5-1.5 3.7l-1.2 1.2c9 5.5 17.8 11.5 26.1 18-1.5-3.3 1.1-8.6 6-8.2 6.8.5 15.4-9.9 19.6-14.9 7.4-8.8 13.8-18.4 19.7-28.3 14.6-24.7 24.8-51.6 30.1-79.8C416.6 84.7 412.3 83.7 408 82.2zM195.3 269.7c-6.4-16.5-23.5-33.6-42.4-32.3-1.4.1-2.5-.2-3.4-.8-7.8 12.9-13.3 27-16.1 42 10.9-2.7 22.2-4.7 33.5-5.3 8.4-.4 20.7-.6 26.4 6.3.7-2.8 1.8-5.5 3.1-8C196 271.1 195.6 270.5 195.3 269.7zM260.8 183.7c-3.7-1-7.4-2-11-2.7-.2 12.8 3 25.7 4.3 38.4 1.1 10.3 1.8 21.3-2.4 30.8 2.9.7 5.8 1.7 8.6 3 12.1-18.3 32.4-32.9 34.8-55.8C284 191.8 272.6 187.1 260.8 183.7zM242.9 268.1c-2.5-2.7-1.7-6.3.3-8.3-1.4-.2-2.8-.2-4.3-.2-4.2 0-8.5.6-12.6 1.8-1.3 1.3-3.2 1.9-5 1.8-10 4.4-17.9 12.7-18.7 24.7-.5 8.1 1.7 16.3 8.2 21.5 2.1 1.7 5.4 4.1 8 3.9.3 0 .6-.1.8-.2.2-.4.5-.8.9-1.1.1-.2.1-.3.2-.5-2.2-2.3-2.7-6.1.8-8.1 1.7-1 3.7-2.3 6-3.8-2.2-8.5-6.7-16.1-14.5-21.5-5.8-4 1.5-12.3 7.3-8.3 8.1 5.6 13.5 13.6 16.6 22.5C244.6 285 250.3 275.9 242.9 268.1z"/><path fill="#14B6B9" d="M283.8 293.4c-6-13.5-17.6-26.5-31.8-31.6 12 15.1 1 31.3-12.4 42.4.1 1.1.3 2.3.3 3.4 13.2 5 33 10.9 37.3-4.8 1.2-4.4 6.1-5.1 8.9-3.2C285.4 297.5 284.7 295.4 283.8 293.4zM190 195c-.1-.2-.2-.4-.3-.6-.9.6-1.7 1.2-2.6 1.8-11.8 8.5-22.2 18.7-30.7 30.2 20.5.8 38.7 17.1 47.4 35.3 3.1-3 6.7-5.6 10.9-7.7.8-.4 1.6-.7 2.4-1.1C216.1 230.4 201.4 213.8 190 195zM173.1 190.9c1.5-7.9-1.4-16.1-4.5-23.3-4.1-9.1-9.3-17.7-14.8-26-9.1-13.9-20.8-27.6-27.4-43.1-7.6 5.5-16.2 8.8-25.9 8.9-9.5.1-17.7-.6-24.8 6.6-3.2 3.3-6.2 6.9-9.1 10.5 1.9.1 3.3 1.1 4.2 2.4.2.1.5.2.7.3 1.5.5 2.9 1 4.4 1.6 3.4 1.2 6.5 2.9 9.5 4.8 10 5.9 19.4 13.2 27.7 21.4 8.8 8.7 16.8 17.4 23.7 27.6 6.2 9.2 11.9 18.9 18.1 28.2 2.2-2.5 4.6-5 7-7.4 3.6-3.5 7.3-6.9 11.2-10.1C173 192.5 173 191.7 173.1 190.9zM242.4 214.4c-1.6-11.6-3.7-23.2-3.5-34.9-3.6-.3-7.3-.3-10.9.1-.1 6.5-9.6 7.6-10.8 2-6.3 1.7-12.4 4.2-18.1 7.2 0 0 0 0 0 0 11.9 19.7 27.1 37.5 28.8 60.7 4-.8 8.2-1.1 12.3-1 .1-.1.1-.2.2-.3C246.8 239.3 243.8 224.5 242.4 214.4zM377.9 270.6c-5.5-10.5-12.6-19.8-20.7-28.3-6.8 10.8-18.1 17.3-29.6 22.6-10.6 4.8-25.5 9-32.1 19.5-.7 1.2-1.7 1.9-2.8 2.3 3.4 6.9 5.6 14.3 6.3 22.2.2 1.8.2 3.7.3 5.5 13.9.2 27.8 1.9 41.7 1.7 7.4-.1 15.1-.2 22.2-2 4.3-1.1 9.9-2.6 12.3-6.7 3.6-6.1 13.5-1.2 9.9 4.9-7.8 13.1-26.3 14.5-39.9 14.8-15.6.3-31-1.6-46.6-1.7-.1 0-.3 0-.4 0-.9 6.2-2.6 12.3-5 18.1 14.3 22.1 42.5 36 68.8 38.5.8-1 2.1-1.6 3.8-1.6 3.5.1 5.6.9 8.1 3.4 3.1 3 1.9 9.7-3.2 9.6-30.2-.2-64.1-14.1-83-38.7-1.2 2-2.4 3.9-3.7 5.8-3.1 4.4-6.6 8.5-10.4 12.3 3.5 14.9 11 28.6 20.2 40.7 7.9 10.4 17.3 20.1 28.2 27.4 1.8-1 4-1 5.9.9 1.9 2 3.3 3.8 3.7 6.3 6.6-3 14-6.5 17.7-12.6.9-1.5 2.2-2.3 3.6-2.6 20-32.2 36.6-69.6 36.8-108C390.2 306.1 386.7 287.2 377.9 270.6zM286 420.9c-9.1-12-17.1-25.5-21.3-40-5.2 4-10.7 7.4-16.6 10.2.4 13.7 4.2 28 7.6 41.2 2 7.9 4.2 15.8 7.3 23.3 1 2.5 2 5 3.5 7.3.5.8 1 1.4 1.2 1.6 2.3.2 3.6 1.4 4 3 9.9-4.3 19.6-6.3 30.5-2.8.3-.5.7-1 1.2-1.4 5.2-4.3 11.3-7.5 17.5-10.3C307.3 444.9 295.6 433.5 286 420.9zM254.2 463c-3.6-8-6.1-16.5-8.3-25-3.6-13.6-7.7-28.4-8.6-42.7-7.7 2.4-15.4 3.8-23.3 4-.2 24.6-1 49.3 7.7 72.7.5 1.4.5 2.6.1 3.7 1.2.1 2.4.2 3.5.3 7.5.8 15.1 1.6 22.6.6 4.5-.6 8.5-2 12.4-3.7C257.5 470.3 255.5 466 254.2 463zM203 399.1c-5-.5-9.9-1.3-14.8-2.6 0 .3-.1.6-.2 1v.1c0 1.5-.3 2.9-1.4 4.1-.9 1.1-2.3 1.7-3.7 1.9-1.9.1-4-.9-5.1-2.5-1.4 2.3-2.4 4.8-3.4 7.1-2.7 6.7-4.5 13.8-5.7 20.9-2 11.4-4.2 26.2 1 37.2 1.6 3.3-.4 5.9-3.2 6.7 4.8.7 9.7 1 14.7 1 10 0 19.9.4 29.8 1.1C202.1 450.4 202.9 424.7 203 399.1z"/><path fill="#14B6B9" d="M146 217c-7.4-11.2-14-23-22-33.8-7.9-10.7-17.3-20.2-27.6-28.7-9.2-7.5-18-13.4-28-17-2.6-.9-6.2-1.7-7.7-4.3-.1-.2-.2-.4-.3-.7-2.8 3.8-5.3 7.8-6.4 12.3-.3 1.5-1.1 2.5-2.1 3.2 0 1.1-.3 2.3-1.2 3.3-7.9 10.7-14.2 22.6-19.2 35 21.9.9 42.9 6.9 60.6 20.7 9.2 7.2 17.8 15.6 25.3 24.5 3.4 4.1 7.3 7.8 10.5 12 .7.9 1.4 1.9 2 2.8.6.1 1.2.3 1.8.7 4.3-10 9.8-19.5 16.4-28.3C147.3 218.6 146.6 217.9 146 217zM470.6 134.2c-7.4-7.5-11.1-16.5-15.2-26.5-2.4-5.8-5.3-13.1-11-16.5-3.9-2.3-8-3.4-12.4-4.1-5.8 31.1-17.4 61.1-34.1 88-6.8 10.8-14 21.7-22.9 30.9-6.8 7-15.1 14.2-25.4 13.4-.3 0-.7-.1-1-.2 8.3 6.8 16 14.2 22.8 22.2 6.9 8.1 12.7 17 17.3 26.4 26.8-7.2 47.7-27.7 61.4-51.4 12.8-22.1 21.4-47.5 22.8-73.1C469.7 141.9 467.8 137.3 470.6 134.2z"/><path fill="#14B6B9" d="M126.4 258.7c-2.4-1-4.1-4-5.5-6-2.4-3.4-5.1-5.9-8-9.3-7.2-8.4-14.6-16.6-23-23.8-8.6-7.4-18.7-13.5-29.4-17.3-10.6-3.8-21.8-4.9-33-4.9-5.3 15.6-9.4 33.3-7 49.8 1 7 2.5 13.8 3.8 20.7.6-.6 1.4-1 2.4-1.2 10.3-2.3 20.8-4.1 31.3-5.1 9.5-.9 19.6-2 29.2-1.1 7 .7 13.8 3 20.5 4.8 3.9 1.1 12.1 4.1 15 3.3.6-.2 1.3-.2 1.8-.2.8-3.2 1.7-6.4 2.7-9.5C127 259 126.7 258.9 126.4 258.7zM122.3 279.6c-4.4.1-8.9-1.3-13.1-2.4-6.7-1.8-13.4-4.1-20.2-5.3-9.1-1.6-19.1-.3-28.3.5-10.2 1-20.3 2.5-30.4 4.7-1.7.4-3.3 0-4.5-.8.1.9.3 1.7.4 2.6 1.6 10.3 1.9 20.4 1.4 30.7-.4 9.3-1.1 18.8.7 28 .1.7.3 1.3.4 2 27.3-15.2 60.5-37.4 92.3-26.1-.1-1.1-.2-2.3-.3-3.4C120.1 299.8 120.7 289.6 122.3 279.6zM136.7 359.4c-10.1 5.3-22.2 6.9-32.5 11.7-7.3 3.4-13.3 9.7-19.3 14.8-6.2 5.2-12.6 10.2-20.2 13.1 1.9 4.4 3.5 8.8 4.9 13.5 1.3 4.4 2.6 8.9 4.5 13.1 4.2 9.3 11.7 13.7 20.9 17.4 3 1.2 5.9 2.5 8.8 3.7 2-10.7 5.8-21.1 10.9-30.7 3.9-7.3 8.2-14.7 12.8-21.5 2.7-4 12.7-18.9 20.6-21C143.8 369.2 140 364.5 136.7 359.4z"/><path fill="#14B6B9" d="M122.9 325.3c-.9.1-1.8-.1-2.8-.5-14.8-6.6-31.3-2.6-45.6 3.3-14.5 6-27.9 14.2-41.7 21.7 2.2 4.2 4.9 8.2 7.7 12.2 6.4 9 13.6 17.6 19.2 27.2.3-.2.6-.3 1-.5 15.2-5.5 24.3-20.8 38.8-27.5 6.4-3 13.2-4.9 19.9-7.1 3.9-1.3 8-2.5 11.8-4.3C127.5 342.1 124.7 333.9 122.9 325.3zM159.3 469.7c-6.3-13.2-3.7-31.6-1-45.3 2.2-10.9 5.5-24.9 13.4-34-5.6-2.7-10.8-5.9-15.5-9.7-.4 3-3.8 4.8-6.8 4.2-.1.1-.1.1-.2.1-.7.6-1.3 1.2-1.9 1.8-1.9 1.9-3.6 4-5.3 6.1-2.9 3.7-5.9 7.6-7.9 11.8-3.6 7.7-9.1 14.4-12.6 22.3-3.4 7.8-6 15.8-7.3 24.2 7.8 3.6 15.5 7.3 23.3 10.9 7.4 3.4 15.1 7.4 23 9.3.1 0 .2.1.4.1C160.2 471.2 159.7 470.5 159.3 469.7z"/><path fill="#010101" d="M484,135c0.2-3.1-1.8-5.1-4.5-7.4c-5.6-4.7-8.8-10.9-11.5-17.6c-2.8-7.1-5.5-14.3-9.8-20.5c-4.3-6.1-10.5-9.6-17.4-11.8c-7.2-2.3-14.9-2.3-22.2-3.8c-7.9-1.7-15.2-5.6-22.3-9.3c-11.1-5.8-22.4-12.1-34.7-13.8c-0.6-2.4-2.5-4.5-5.6-4.4c-2.1,0-4,0.6-5.7,1.9c-2.9,2.4-3.4,4.5-3.2,7.8c-9.6-1.8-18.3-8.8-27.6-11.6c-6.3-1.9-14.1-0.4-20.5,0.1c-3.9,0.3-7.8,0.5-11.6,0.1c-3.9-0.4-7.8-2.2-11.4-3.5c-13.2-5-26.4-11-40.7-11.1c-5.8-0.1-11.5,2.1-16.6,4.5c-6.1,2.9-13.2,5.8-18.7,9.7c-10.4,7.2-22.1,8.4-34.3,9.9c-10.1,1.2-18.4,4.2-25,12.3c-3.3,4.1-5.7,9.1-9.5,12.8c-4.1,4.1-8.2,8.2-13.1,11.5c-9.6,6.6-20.3,4.9-31.2,5.9c-10.1,0.9-17,7-23.5,14.3c-8.1,9.1-17.5,19.8-20.4,31.9c-0.1,0.2-0.1,0.5-0.1,0.7c-0.2,0.2-0.4,0.4-0.6,0.7c-15,20.2-25.1,44.2-30.5,68.7c-2.7,12.1-3.9,24.6-2.1,36.9c2.3,15.6,6.7,30.7,7.2,46.6c0.5,14-2,28,0.4,41.9c2.4,13.9,10.4,25.1,18.6,36.2c7.9,10.6,15.8,21.1,20.7,33.5c3.7,9.3,5.2,19.1,10.5,27.8c3.6,5.9,9.1,10.2,15.1,13.5c9.5,5.2,20.2,8.6,30.1,13.3c20.3,9.5,40.1,20.8,62.9,21.9c10.4,0.5,21,0.6,31.4,0.9c11.2,0.3,22.4,2.4,33.6,2.6c10.9,0.2,20.2-2.8,29.8-7.7c8.8-4.4,18.1-9,28-5.6c2.6,0.9,4.9-0.1,6.4-1.7c1.5,0.8,3.4,0.8,5.1-0.7c14.4-11.9,36.6-14.2,48.1-29.5c1.4-0.3,2.8-1.1,3.8-2.6c25.2-39.7,44.7-87.5,38.4-135.4c-1.2-9.3-3.5-18.3-6.8-27c28.5-7.8,50.4-29.7,65.5-54.5c15.9-26.1,25.3-57.4,25.5-88C484,135.3,484,135.2,484,135z M358.6,65.4c0.8-1.1,1.2-2.4,1.2-3.8c10.8,1.3,20.7,7.1,30.3,12.2c5.8,3.1,11.7,6,17.9,8.3c4.3,1.6,8.6,2.5,13,3.3c-5.3,28.2-15.5,55.2-30.1,79.8c-5.9,9.9-12.3,19.5-19.7,28.3c-4.2,5-12.8,15.5-19.6,14.9c-5-0.4-7.5,4.9-6,8.2c-8.3-6.6-17.1-12.6-26.1-18l1.2-1.2c1.2-1.2,1.6-2.5,1.5-3.7C348.8,157,359.9,110.6,358.6,65.4z M254.1,219.4c-1.4-12.7-4.5-25.5-4.3-38.4c3.7,0.7,7.4,1.6,11,2.7c11.8,3.4,23.2,8,34.3,13.7c-2.4,22.9-22.8,37.4-34.8,55.8c-2.7-1.3-5.6-2.2-8.6-3C255.9,240.7,255.2,229.7,254.1,219.4z M251.9,261.8c14.3,5.1,25.9,18,31.8,31.6c0.9,2.1,1.7,4.2,2.3,6.3c-2.8-1.9-7.7-1.1-8.9,3.2c-4.3,15.7-24.1,9.7-37.3,4.8c-0.1-1.2-0.2-2.3-0.3-3.4C252.9,293.1,263.9,276.9,251.9,261.8z M236.8,292.3c-3.1-8.9-8.5-16.9-16.6-22.5c-5.8-4-13.1,4.2-7.3,8.3c7.8,5.4,12.4,13,14.5,21.5c-2.2,1.5-4.3,2.8-6,3.8c-3.5,2-3,5.9-0.8,8.1c-0.1,0.2-0.1,0.3-0.2,0.5c-0.3,0.3-0.6,0.7-0.9,1.1c-0.2,0.1-0.5,0.2-0.8,0.2c-2.7,0.2-6-2.2-8-3.9c-6.4-5.2-8.7-13.4-8.2-21.5c0.7-12,8.6-20.3,18.7-24.7c1.7,0.1,3.6-0.5,5-1.8c4.1-1.2,8.4-1.8,12.6-1.8c1.4,0,2.9,0.1,4.3,0.2c-2,2-2.8,5.6-0.3,8.3C250.3,275.9,244.6,285,236.8,292.3z M240.4,248.3c-0.1,0.1-0.1,0.2-0.2,0.3c-4.1-0.1-8.3,0.2-12.3,1c-1.8-23.2-16.9-41-28.8-60.7c0,0,0,0,0,0c5.8-3.1,11.8-5.5,18.1-7.2c1.2,5.7,10.7,4.5,10.8-2c3.7-0.3,7.3-0.3,10.9-0.1c-0.2,11.7,1.9,23.3,3.5,34.9C243.8,224.5,246.8,239.3,240.4,248.3z M217.1,252.9c-0.8,0.3-1.6,0.7-2.4,1.1c-4.2,2.1-7.8,4.7-10.9,7.7c-8.7-18.2-26.9-34.5-47.4-35.3c8.5-11.5,18.9-21.7,30.7-30.2c0.8-0.6,1.7-1.2,2.6-1.8c0.1,0.2,0.2,0.4,0.3,0.6C201.4,213.8,216.1,230.4,217.1,252.9z M195.3,269.7c0.3,0.7,0.7,1.3,1.1,1.8c-1.3,2.5-2.4,5.2-3.1,8c-5.6-6.9-18-6.7-26.4-6.3c-11.2,0.6-22.6,2.6-33.5,5.3c2.8-14.9,8.3-29.1,16.1-42c0.9,0.6,2,0.9,3.4,0.8C171.8,236.1,188.9,253.3,195.3,269.7z M136.4,289.1c8.6-2.1,17.4-3.6,26.2-4.5c5.1-0.5,10.3-0.8,15.4-0.3c1.8,0.2,3.8,0.5,5.4,1.1c0.9,0.4,1,0.4,1.5,0.8c0.4,0.3,0.4,0.9,0.3,0.1c0.7,3.6,4,5.1,6.9,4.7c0,2.5,0.3,5,0.7,7.6c-18.9,1.2-36.6,7.6-53.2,16.7c-6.2,3.4,0,12.5,6.2,9.1c15.9-8.7,32.8-14.4,51-15c0.8,1.4,1.7,2.7,2.7,4c-10.4,5.3-19.9,12.4-28.7,20.1c-8.1,7.2-16.2,15.9-20.4,26.1c-12.6-16.3-18.8-37.8-18.8-59.3c0-4,0.2-7.9,0.6-11.8C133.3,289.2,134.7,289.5,136.4,289.1z M159.5,366.4c3.6-10.3,11.5-18.4,19.5-25.6c8-7.2,17.1-13.5,26.7-18.3c0.8-0.4,1.3-0.9,1.7-1.4c-1.5,3.5-2.3,7.6-2.9,11.1c-1.4,7.8-1.7,15.9-1.4,23.9c0.4,10.6,2.7,32.6,17.9,31.3c7.1-0.6,6.2-11.6-0.8-11c-0.5,0-0.6,0-0.2,0.2c-1.2-0.4-0.4-0.1-1.4-1c-0.6-0.6-1.7-3.2-2.2-4.7c-1.9-5.6-2.2-11.8-2.4-17.7c-0.2-6.3,0.2-12.7,1.3-18.9c0.6-3.5,1.6-8,3-10.1c0.9,0,1.7,0,2.6-0.1c2.3,7.7,6.2,15,10.7,21.7c5.7,8.4,13.2,16.8,22.6,21.1c6.5,2.9,11.3-6.9,4.9-9.9c-7.8-3.6-13.6-10.5-18.4-17.4c-4.7-6.7-8.8-14.5-10.3-22.5c0.1-0.3,0.3-0.7,0.4-1c1.1,0.9,2.5,1.3,3.9,1.2c19.3,6.8,45.4,13.2,53-11c2.1,12.8-0.5,26-6.2,37.8c-8,16.4-22.3,29.8-38.8,37.5c-18.4,8.5-38.2,8.8-57.3,2.6c-10.6-3.4-19.6-8.9-27-15.8C158.7,367.9,159.2,367.2,159.5,366.4z M287.1,277.3c-4.8-7-10.8-13.1-17.6-18.4c12-18.9,31.7-33,35.8-55.9c0.6,0.3,1.1,0.6,1.7,1c0.5,0.4,1.1,0.8,1.7,1c9.7,5.8,18.9,12.1,27.7,18.9c4.4,3.4,8.6,6.9,12.7,10.6C336.7,258.1,302.5,256.4,287.1,277.3z M290.5,85.5c-1.3-9.9-3.1-19.9-2.8-29.9c2.2,0.3,4.4,0.4,6.7,0.4c6-0.1,12-1,18-1.1c5.6-0.1,10.4,2.4,15.3,4.9c6.6,3.4,13,6.7,20.1,7.6c0.1,3.4,0.1,6.7,0,10.1c-0.2,14.2-2,28.3-4.9,42.2c-5.6,26.5-16.7,51.9-33.5,73.1c-0.9-0.5-1.7-1-2.6-1.5c-9.5-5.2-19.9-10.4-30.6-14.4c8.2-18.2,13.5-37.8,15.3-57.7C292.4,107.9,291.9,96.7,290.5,85.5z M215.4,48.7c5.3-2.7,10.5-6,16.4-7.2c7.1-1.4,14.7,0.8,21.5,2.9c6.6,2,13,4.8,19.5,7.3c1.4,0.5,2.7,1,4.1,1.4c-1,20.8,5.4,41.3,3.9,62.2c-1.4,19.9-6.8,39.8-15.1,57.9c-12.1-3.7-24.6-5.7-36.9-4.8c-0.3,0-0.5,0-0.8,0.1c-0.4-19.5-1.9-38.9-5.4-58.1c-1.9-10.3-4.1-20.2-8.9-29.6c-4-8-10.2-16.1-11.4-25.1C206.6,53.5,210.9,51.1,215.4,48.7z M142.5,83c2.9-4.2,5.7-8.6,9.3-12.3c6.9-7.2,20.3-5.9,29.4-7.4c3.8-0.6,7.3-1.6,10.8-2.9c1.6,7,5.4,13.5,8.9,19.8c5.6,10,8.6,19.9,10.7,31.1c3.7,19.4,5.1,39.2,5.5,58.9c-11.6,2.6-22.4,7.8-32.4,14.4c-0.5-16-10.7-32-18.8-44.9c-5.6-8.9-11.7-17.6-17.6-26.3c-4.5-6.8-9.5-13.7-12.4-21.3c-0.1-0.4-0.3-0.7-0.5-1C137.9,88.6,140.4,85.9,142.5,83z M75.8,114c7.1-7.2,15.3-6.4,24.8-6.6c9.6-0.1,18.3-3.5,25.9-8.9c6.5,15.5,18.3,29.2,27.4,43.1c5.5,8.3,10.7,16.9,14.8,26c3.2,7.2,6.1,15.4,4.5,23.3c-0.2,0.8-0.1,1.6,0,2.3c-3.9,3.2-7.7,6.6-11.2,10.1c-2.4,2.4-4.8,4.9-7,7.4c-6.2-9.3-11.8-18.9-18.1-28.2c-6.9-10.2-15-19-23.7-27.6c-8.3-8.2-17.6-15.4-27.7-21.4c-3.1-1.8-6.2-3.5-9.5-4.8c-1.5-0.5-2.9-1-4.4-1.6c-0.2-0.1-0.5-0.2-0.7-0.3c-0.9-1.3-2.3-2.3-4.2-2.4C69.6,120.8,72.5,117.3,75.8,114z M50.7,151.5c0.8-1.1,1.2-2.2,1.2-3.3c1-0.7,1.8-1.8,2.1-3.2c1.1-4.6,3.6-8.6,6.4-12.3c0.1,0.2,0.2,0.4,0.3,0.7c1.5,2.5,5.2,3.4,7.7,4.3c10.1,3.6,18.9,9.5,28,17c10.3,8.4,19.7,18,27.6,28.7c8,10.8,14.6,22.6,22,33.8c0.6,0.9,1.4,1.6,2.2,1.9c-6.6,8.8-12.1,18.3-16.4,28.3c-0.5-0.4-1.2-0.6-1.8-0.7c-0.7-0.9-1.3-1.9-2-2.8c-3.2-4.2-7.1-7.9-10.5-12c-7.5-8.9-16.1-17.3-25.3-24.5c-17.7-13.8-38.6-19.8-60.6-20.7C36.5,174.2,42.8,162.2,50.7,151.5z M20.5,247.2c-2.4-16.5,1.8-34.2,7-49.8c11.1,0.1,22.4,1.2,33,4.9c10.7,3.9,20.8,9.9,29.4,17.3c8.4,7.2,15.8,15.4,23,23.8c2.9,3.4,5.6,5.9,8,9.3c1.4,2,3.1,5,5.5,6c0.3,0.1,0.6,0.2,0.9,0.3c-1,3.1-1.9,6.3-2.7,9.5c-0.6,0-1.2,0-1.8,0.2c-3,0.8-11.1-2.2-15-3.3c-6.7-1.9-13.5-4.1-20.5-4.8c-9.5-1-19.7,0.2-29.2,1.1c-10.6,1-21,2.8-31.3,5.1c-1,0.2-1.8,0.7-2.4,1.2C22.9,261,21.5,254.2,20.5,247.2z M28.4,337.6c-1.8-9.2-1.1-18.7-0.7-28c0.5-10.4,0.3-20.4-1.4-30.7c-0.1-0.9-0.3-1.7-0.4-2.6c1.2,0.8,2.8,1.2,4.5,0.8c10-2.2,20.1-3.7,30.4-4.7c9.1-0.9,19.2-2.1,28.3-0.5c6.9,1.2,13.5,3.5,20.2,5.3c4.1,1.1,8.7,2.5,13.1,2.4c-1.6,10-2.1,20.1-1.5,30.4c0.1,1.1,0.2,2.3,0.3,3.4c-31.8-11.3-64.9,10.9-92.3,26.1C28.7,338.9,28.5,338.2,28.4,337.6z M59.7,389.2c-5.6-9.6-12.8-18.2-19.2-27.2c-2.8-4-5.5-8-7.7-12.2c13.8-7.5,27.1-15.7,41.7-21.7c14.3-5.9,30.9-9.9,45.6-3.3c1,0.4,1.9,0.6,2.8,0.5c1.8,8.6,4.6,16.8,8.4,24.4c-3.8,1.8-7.9,3-11.8,4.3c-6.7,2.2-13.5,4.2-19.9,7.1c-14.5,6.7-23.6,22-38.8,27.5C60.3,388.9,60,389,59.7,389.2z M103.8,446.7c-2.9-1.3-5.9-2.5-8.8-3.7c-9.2-3.7-16.7-8.1-20.9-17.4c-1.9-4.2-3.2-8.7-4.5-13.1c-1.4-4.7-3-9.1-4.9-13.5c7.6-2.8,14-7.9,20.2-13.1c6.1-5.1,12.1-11.4,19.3-14.8c10.3-4.8,22.4-6.4,32.5-11.7c3.3,5.1,7.1,9.8,11.3,14.1c-7.9,2.1-17.9,17-20.6,21c-4.6,6.9-8.9,14.2-12.8,21.5C109.6,425.6,105.8,436.1,103.8,446.7z M160.4,471.6c-7.9-1.9-15.6-6-23-9.3c-7.8-3.5-15.5-7.3-23.3-10.9c1.3-8.4,3.9-16.4,7.3-24.2c3.5-7.9,9-14.6,12.6-22.3c2-4.3,5-8.2,7.9-11.8c1.7-2.1,3.4-4.1,5.3-6.1c0.6-0.6,1.2-1.3,1.9-1.8c0.1-0.1,0.1-0.1,0.2-0.1c3,0.6,6.4-1.2,6.8-4.2c4.7,3.7,9.9,7,15.5,9.7c-7.9,9.1-11.2,23-13.4,34c-2.7,13.7-5.3,32.1,1,45.3c0.4,0.8,0.9,1.4,1.5,1.9C160.7,471.7,160.6,471.6,160.4,471.6z M181.2,473.8c-4.9,0-9.8-0.3-14.7-1c2.7-0.8,4.7-3.4,3.2-6.7c-5.2-10.9-3-25.7-1-37.2c1.2-7.1,3-14.2,5.7-20.9c0.9-2.3,2-4.8,3.4-7.1c1.1,1.6,3.2,2.7,5.1,2.5c1.4-0.1,2.8-0.8,3.7-1.9c1-1.2,1.4-2.5,1.4-4.1v-0.1c0.1-0.3,0.2-0.6,0.2-1c4.9,1.3,9.8,2.1,14.8,2.6c-0.2,25.6-0.9,51.4,8,75.8C201.1,474.2,191.2,473.8,181.2,473.8z M248,476.7c-7.5,1-15.1,0.2-22.6-0.6c-1.2-0.1-2.4-0.2-3.5-0.3c0.4-1,0.4-2.3-0.1-3.7c-8.8-23.4-7.9-48.2-7.7-72.7c7.8-0.3,15.6-1.6,23.3-4c0.9,14.3,5.1,29.1,8.6,42.7c2.2,8.5,4.7,17,8.3,25c1.4,3,3.3,7.3,6.2,9.9C256.5,474.7,252.5,476.1,248,476.7z M303.5,463.4c-0.5,0.4-0.9,0.9-1.2,1.4c-10.9-3.5-20.6-1.6-30.5,2.8c-0.5-1.6-1.8-2.8-4-3c-0.2-0.2-0.6-0.8-1.2-1.6c-1.5-2.3-2.5-4.8-3.5-7.3c-3-7.6-5.2-15.5-7.3-23.3c-3.4-13.2-7.2-27.4-7.6-41.2c5.9-2.8,11.4-6.2,16.6-10.2c4.2,14.6,12.1,28,21.3,40c9.6,12.6,21.3,24,35,32.1C314.8,455.9,308.7,459,303.5,463.4z M353.3,432.8c-1.4,0.3-2.7,1.1-3.6,2.6c-3.7,6.1-11.1,9.6-17.7,12.6c-0.4-2.5-1.8-4.3-3.7-6.3c-1.9-1.9-4.1-1.9-5.9-0.9c-10.9-7.3-20.2-17-28.2-27.4c-9.2-12.1-16.8-25.8-20.2-40.7c3.8-3.8,7.3-7.9,10.4-12.3c1.3-1.9,2.6-3.8,3.7-5.8c18.9,24.6,52.8,38.4,83,38.7c5.1,0,6.3-6.6,3.2-9.6c-2.5-2.4-4.6-3.3-8.1-3.4c-1.7,0-3,0.6-3.8,1.6c-26.3-2.5-54.5-16.4-68.8-38.5c2.4-5.8,4.1-11.9,5-18.1c0.1,0,0.3,0,0.4,0c15.5,0.1,31,2.1,46.6,1.7c13.7-0.3,32.2-1.6,39.9-14.8c3.6-6.1-6.3-10.9-9.9-4.9c-2.4,4.1-8,5.6-12.3,6.7c-7.2,1.8-14.9,1.9-22.2,2c-13.9,0.1-27.8-1.6-41.7-1.7c0-1.8-0.1-3.7-0.3-5.5c-0.7-7.9-3-15.3-6.3-22.2c1.1-0.4,2-1.2,2.8-2.3c6.6-10.5,21.5-14.6,32.1-19.5c11.6-5.2,22.8-11.8,29.6-22.6c8.1,8.4,15.1,17.7,20.7,28.3c8.8,16.6,12.3,35.5,12.2,54.2C389.9,363.3,373.3,400.6,353.3,432.8z M450,216.3c-13.7,23.7-34.6,44.2-61.4,51.4c-4.6-9.4-10.4-18.3-17.3-26.4c-6.8-8.1-14.5-15.4-22.8-22.2c0.3,0.1,0.6,0.1,1,0.2c10.4,0.8,18.6-6.4,25.4-13.4c8.9-9.2,16.2-20.1,22.9-30.9c16.8-26.9,28.3-56.8,34.1-88c4.3,0.7,8.5,1.9,12.4,4.1c5.7,3.4,8.6,10.7,11,16.5c4.2,10.1,7.8,19.1,15.2,26.5c-2.7,3.1-0.9,7.8,2.3,9.1C471.4,168.9,462.8,194.3,450,216.3z"/></svg>