<svg xmlns="http://www.w3.org/2000/svg" viewBox="0 0 32 32"><path d="M 22 4 C 20.35503 4 19 5.3550302 19 7 C 19 8.6449698 20.35503 10 22 10 C 23.64497 10 25 8.6449698 25 7 C 25 5.3550302 23.64497 4 22 4 z M 22 6 C 22.56503 6 23 6.4349698 23 7 C 23 7.5650302 22.56503 8 22 8 C 21.43497 8 21 7.5650302 21 7 C 21 6.4349698 21.43497 6 22 6 z M 16 8 C 14.55 8 13.335533 8.4636759 12.453125 9.2304688 C 11.570717 9.9972614 11.025957 11.016407 10.675781 12.074219 C 9.9754297 14.189841 10 16.551516 10 18.103516 C 10 19.061828 10.521793 19.885046 11.181641 20.347656 C 11.841489 20.810266 12.612815 21 13.363281 21 L 17.978516 21 C 18.670033 21 19.249479 21.483029 19.375 22.162109 L 20.005859 28.105469 L 21.994141 27.894531 L 21.351562 21.845703 L 21.345703 21.808594 C 21.051491 20.188091 19.625439 19 17.978516 19 L 13.363281 19 C 12.978747 19 12.56848 18.878077 12.330078 18.710938 C 12.091676 18.543797 12 18.418204 12 18.103516 C 12 16.551516 12.02457 14.363502 12.574219 12.703125 C 12.849043 11.872936 13.241783 11.195442 13.765625 10.740234 C 14.289467 10.285027 14.95 10 16 10 C 16.245418 10 16.520219 10.126342 16.726562 10.320312 C 16.932906 10.514285 17 10.777519 17 10.728516 L 17 15.5 L 21.400391 18.800781 L 22.599609 17.199219 L 19 14.5 L 19 10.728516 C 19 9.9515116 18.61486 9.3513099 18.095703 8.8632812 C 17.576547 8.3752527 16.852582 8 16 8 z M 6 23 L 6 25 L 18 25 L 18 23 L 6 23 z"/></svg>