<svg xmlns="http://www.w3.org/2000/svg" viewBox="0 0 24 24"><path d="M 3 0 L 0 16 L 24 16 L 21 0 Z M 8.90625 2 C 9.707031 2 10.398438 2.40625 11 2.90625 L 13.1875 5.09375 C 12.886719 4.792969 11.585938 5.011719 11.1875 5.3125 L 9.90625 4 C 9.605469 3.699219 9.210938 3.5 8.8125 3.5 C 8.511719 3.5 8.210938 3.507813 7.8125 3.90625 C 7.613281 4.207031 7.5 4.511719 7.5 4.8125 C 7.5 5.210938 7.699219 5.605469 8 5.90625 L 10.3125 8.1875 C 10.914063 8.789063 11.8125 8.8125 12.3125 8.3125 C 12.613281 8.011719 13.105469 8.011719 13.40625 8.3125 C 13.707031 8.613281 13.707031 9.105469 13.40625 9.40625 C 12.90625 9.90625 12.207031 10.1875 11.40625 10.1875 C 10.605469 10.1875 9.789063 9.914063 9.1875 9.3125 L 6.90625 7 C 6.304688 6.398438 6 5.613281 6 4.8125 C 6 4.113281 6.3125 3.414063 6.8125 2.8125 C 7.414063 2.3125 8.105469 2 8.90625 2 Z M 12.6875 5.8125 C 13.488281 5.8125 14.304688 6.085938 14.90625 6.6875 L 17.09375 9 C 17.695313 9.601563 18 10.386719 18 11.1875 C 18 11.988281 17.6875 12.6875 17.1875 13.1875 C 16.585938 13.789063 15.894531 14 15.09375 14 C 14.292969 14 13.601563 13.59375 13 13.09375 L 10.8125 10.90625 C 11.113281 11.207031 12.414063 10.988281 12.8125 10.6875 L 14.09375 12 C 14.394531 12.300781 14.789063 12.5 15.1875 12.5 C 15.488281 12.5 15.789063 12.492188 16.1875 12.09375 C 16.488281 11.792969 16.59375 11.488281 16.59375 11.1875 C 16.59375 10.789063 16.394531 10.394531 16.09375 10.09375 L 13.8125 7.8125 C 13.210938 7.210938 12.3125 7.1875 11.8125 7.6875 C 11.511719 7.988281 10.988281 7.988281 10.6875 7.6875 C 10.386719 7.386719 10.386719 6.894531 10.6875 6.59375 C 11.1875 6.09375 11.886719 5.8125 12.6875 5.8125 Z M 0 17 L 0 24 L 24 24 L 24 17 Z M 18 20 L 22 20 L 22 22 L 18 22 Z"/></svg>