<svg xmlns="http://www.w3.org/2000/svg" viewBox="0 0 48 48"><path fill="#bf360c" d="M16,15h16v18H16V15z"/><path fill="#ff9800" d="M24,38c-2.193,0-5-6-5-6v-6h10v6C29,32,26.192,38,24,38"/><path fill="#ffb74d" d="M33,14c0-7.635-18-4.971-18,0v7c0,4.971,4.028,9,9,9c4.971,0,9-4.029,9-9V14z"/><path fill="#ff5722" d="M24,4C17.925,4,9,7.404,9,27.286L16,33V19l12-7l4,5v16l7-7c0-4.025-0.674-20-11-20l-1-2H24z"/><path fill="#784719" d="M27,21c0-0.551,0.448-1,1-1s1,0.449,1,1s-0.448,1-1,1S27,21.551,27,21"/><path fill="#784719" d="M19,21c0,0.551,0.448,1,1,1s1-0.449,1-1s-0.448-1-1-1S19,20.449,19,21"/><path fill="#fff" d="M24,44l-5-12l5,1l5-1L24,44z"/><path fill="#263238" d="M23,36l-0.667,4.465l1.667,4l1.667-4L25,36l1-1l-2-2l-2,2L23,36z"/><path fill="#455a64" d="M29,32L29,32l-5,12l-5-12c0,0-11,1.986-11,13h32C40,34.025,29,32,29,32"/><path fill="#263238" d="M31,20v1c0,1.103-0.897,2-2,2h-1c-1.103,0-2-0.897-2-2v-1H31 M22,20v1c0,1.103-0.897,2-2,2h-1	c-1.103,0-2-0.897-2-2v-1H22 M32,19H16v2c0,1.657,1.343,3,3,3h1c1.657,0,3-1.343,3-3v-1h2v1c0,1.657,1.343,3,3,3h1	c1.657,0,3-1.343,3-3V19L32,19z"/></svg>