<svg xmlns="http://www.w3.org/2000/svg" viewBox="0 0 24 24"><path d="M 6.59375 0 L 0 9.8125 L 9.40625 16.09375 C 9.40625 16.09375 9.792969 14.988281 11.09375 15.1875 C 11.59375 14.289063 13.105469 13.789063 13.90625 14.1875 C 14.605469 12.6875 16.605469 12.511719 17.40625 12.8125 L 20 9 Z M 9.71875 5.65625 C 10.78125 5.761719 11 7 11 7 C 11 7 12.386719 6.195313 13.1875 7.59375 C 13.886719 8.992188 12.5 9.8125 12.5 9.8125 C 12.5 9.8125 13.59375 10.898438 12.59375 12 C 11.59375 13.101563 10.40625 12 10.40625 12 C 10.40625 12 9.613281 13.511719 8.3125 12.8125 C 7.011719 12.011719 7.59375 10.59375 7.59375 10.59375 C 7.59375 10.59375 6.085938 10.207031 6.1875 8.90625 C 6.289063 7.507813 8 7.59375 8 7.59375 C 8 7.59375 7.789063 5.988281 9.1875 5.6875 C 9.375 5.648438 9.566406 5.640625 9.71875 5.65625 Z M 9.90625 7.6875 C 9.023438 7.6875 8.3125 8.429688 8.3125 9.3125 C 8.3125 10.195313 9.023438 10.90625 9.90625 10.90625 C 10.789063 10.90625 11.5 10.195313 11.5 9.3125 C 11.5 8.429688 10.789063 7.6875 9.90625 7.6875 Z M 16.5 16.46875 C 16.363281 16.46875 16.265625 16.515625 16.1875 16.59375 C 15.878906 16.910156 16.214844 17.769531 16.96875 18.5 C 17.722656 19.230469 18.597656 19.566406 18.90625 19.25 C 19.214844 18.933594 18.847656 18.074219 18.09375 17.34375 C 17.53125 16.796875 16.90625 16.464844 16.5 16.46875 Z M 21.4375 17.71875 C 21.054688 17.667969 20.632813 18.421875 20.5 19.40625 C 20.367188 20.390625 20.554688 21.230469 20.9375 21.28125 C 21.320313 21.332031 21.742188 20.578125 21.875 19.59375 C 22.007813 18.609375 21.820313 17.769531 21.4375 17.71875 Z M 16.6875 20.125 C 16.332031 20.132813 16.054688 20.234375 15.96875 20.4375 C 15.800781 20.847656 16.394531 21.496094 17.3125 21.875 C 18.230469 22.253906 19.113281 22.222656 19.28125 21.8125 C 19.449219 21.402344 18.855469 20.753906 17.9375 20.375 C 17.476563 20.183594 17.042969 20.117188 16.6875 20.125 Z M 22.09375 22.40625 C 21.042969 22.40625 20.1875 22.746094 20.1875 23.1875 C 20.1875 23.628906 21.042969 24 22.09375 24 C 23.144531 24 24 23.628906 24 23.1875 C 24 22.746094 23.144531 22.40625 22.09375 22.40625 Z"/></svg>