<svg xmlns="http://www.w3.org/2000/svg" width="100" height="100" viewBox="0 0 100 100"><circle cx="13" cy="29" r="2" fill="#ee3e54"/><circle cx="77" cy="13" r="1" fill="#f1bc19"/><circle cx="50" cy="50" r="37" fill="#fce0a2"/><circle cx="83" cy="15" r="4" fill="#f1bc19"/><circle cx="87" cy="24" r="2" fill="#ee3e54"/><circle cx="81" cy="76" r="2" fill="#fbcd59"/><circle cx="15" cy="63" r="4" fill="#fbcd59"/><circle cx="25" cy="87" r="2" fill="#ee3e54"/><circle cx="18.5" cy="53.5" r="2.5" fill="#fff"/><circle cx="21" cy="67" r="1" fill="#f1bc19"/><circle cx="80" cy="34" r="1" fill="#fff"/><g><path fill="#c5d8ef" d="M59.384,54.025l7.425-10.876c0.851-1.246,2.133-2.101,3.61-2.407l3.299-0.683 c0.314-0.051,0.602-0.074,0.886-0.074c1.642,0,3.135,0.755,4.097,2.072l2.775,3.8c0.271,0.371,0.414,0.809,0.414,1.268v6.351 c0,1.185-0.964,2.15-2.15,2.15c-1.185,0-2.15-0.964-2.15-2.15v-5.65l-2.223-3.045l-2.943,10.981L74.071,72h-4.599l-0.798-4.397 L68.24,72h-4.599l0.317-17.048l-1.022,1.498c-0.401,0.587-1.065,0.938-1.777,0.938c-0.433,0-0.852-0.129-1.211-0.374 c-0.474-0.323-0.794-0.813-0.9-1.377C58.941,55.071,59.06,54.499,59.384,54.025z"/><path fill="#472b29" d="M63.621,72.65c0.007,0,0.014-0.001,0.02,0h4.599c0.284,0,0.528-0.182,0.616-0.44 c0.088,0.26,0.333,0.44,0.615,0.44h4.6c0.184,0,0.359-0.078,0.482-0.214c0.123-0.137,0.183-0.319,0.164-0.501l-1.635-16.119 l2.561-9.554l1.297,1.776v5.438c0,1.544,1.256,2.8,2.8,2.8s2.8-1.256,2.8-2.8v-6.351c0-0.598-0.187-1.169-0.539-1.652l-2.775-3.8 c-1.085-1.486-2.77-2.338-4.622-2.338c-0.323,0-0.647,0.027-0.99,0.083l-3.327,0.688c-1.643,0.341-3.069,1.292-4.015,2.677 l-7.425,10.876c-0.422,0.618-0.578,1.363-0.439,2.098c0.14,0.736,0.556,1.373,1.174,1.793c1.136,0.779,2.791,0.554,3.687-0.47 l-0.274,14.748c-0.015,0.055-0.023,0.113-0.023,0.172C62.971,72.359,63.262,72.65,63.621,72.65z M67.651,71.35h-3.348l0.305-16.386 c0.005-0.288-0.179-0.544-0.452-0.631c-0.275-0.087-0.573,0.016-0.734,0.252l-1.022,1.498c-0.45,0.659-1.424,0.844-2.084,0.393 c-0.332-0.226-0.555-0.567-0.629-0.961c-0.074-0.393,0.009-0.792,0.235-1.123l7.425-10.876c0.755-1.106,1.894-1.865,3.205-2.137 l3.299-0.683c0.246-0.04,0.501-0.061,0.754-0.061c1.432,0,2.734,0.658,3.572,1.805l2.775,3.8c0.189,0.259,0.289,0.564,0.289,0.885 v6.351c0,0.827-0.673,1.5-1.5,1.5s-1.5-0.673-1.5-1.5v-5.65c0-0.138-0.043-0.272-0.125-0.383l-2.223-3.044 c-0.147-0.203-0.397-0.303-0.644-0.256c-0.246,0.046-0.444,0.229-0.509,0.471l-2.943,10.981c-0.021,0.076-0.027,0.156-0.019,0.234 l1.574,15.522h-3.337l-0.701-3.864c-0.058-0.319-0.365-0.536-0.666-0.533c-0.324,0.013-0.589,0.263-0.621,0.585L67.651,71.35z"/></g><g><path fill="#472b29" d="M69.687,71.514c0.015,0,0.031-0.001,0.046-0.004c0.136-0.025,0.226-0.155,0.2-0.291l-2.289-12.356 c-0.025-0.136-0.158-0.228-0.291-0.2c-0.136,0.025-0.226,0.155-0.2,0.291l2.289,12.356C69.464,71.43,69.569,71.514,69.687,71.514z"/></g><g><circle cx="73.55" cy="33.737" r="4.008" fill="#fed5b3"/><path fill="#472b29" d="M73.55,38.396c2.568,0,4.658-2.09,4.658-4.658s-2.09-4.658-4.658-4.658 c-2.569,0-4.659,2.09-4.659,4.658S70.981,38.396,73.55,38.396z M73.55,30.379c1.852,0,3.358,1.507,3.358,3.358 s-1.507,3.358-3.358,3.358c-1.852,0-3.359-1.507-3.359-3.358S71.698,30.379,73.55,30.379z"/></g><g><path fill="#472b29" d="M64.088,55.026c0.111,0,0.213-0.075,0.242-0.188l1.251-4.841c0.034-0.134-0.046-0.27-0.18-0.305 c-0.134-0.034-0.27,0.046-0.305,0.18l-1.251,4.841c-0.034,0.134,0.046,0.27,0.18,0.305C64.046,55.023,64.067,55.026,64.088,55.026z M65.839,48.249c0.111,0,0.213-0.075,0.242-0.188l0.25-0.968c0.034-0.134-0.046-0.27-0.18-0.305 c-0.134-0.036-0.27,0.046-0.305,0.18l-0.25,0.968c-0.034,0.134,0.046,0.27,0.18,0.305C65.798,48.246,65.819,48.249,65.839,48.249z"/></g><g><path fill="#c5d8ef" d="M40.702,54.025l-7.425-10.876c-0.851-1.246-2.133-2.101-3.61-2.407l-3.299-0.683 c-0.314-0.051-0.602-0.074-0.886-0.074c-1.642,0-3.135,0.755-4.097,2.072l-2.775,3.8c-0.271,0.371-0.414,0.809-0.414,1.268v6.351 c0,1.185,0.964,2.15,2.15,2.15c1.185,0,2.15-0.964,2.15-2.15v-5.65l2.223-3.045l2.943,10.981L26.016,72h4.599l0.798-4.397 L31.846,72h4.599l-0.317-17.048l1.022,1.498c0.401,0.587,1.065,0.938,1.777,0.938c0.433,0,0.852-0.129,1.211-0.374 c0.474-0.323,0.794-0.813,0.9-1.377C41.146,55.071,41.026,54.499,40.702,54.025z"/><path fill="#472b29" d="M36.465,72.65c-0.007,0-0.014-0.001-0.02,0h-4.599c-0.284,0-0.528-0.182-0.616-0.44 c-0.088,0.26-0.333,0.44-0.615,0.44h-4.6c-0.184,0-0.359-0.078-0.482-0.214c-0.123-0.137-0.183-0.319-0.164-0.501l1.635-16.119 l-2.561-9.554l-1.297,1.776v5.438c0,1.544-1.256,2.8-2.8,2.8s-2.8-1.256-2.8-2.8v-6.351c0-0.598,0.187-1.169,0.539-1.652l2.775-3.8 c1.085-1.486,2.77-2.338,4.622-2.338c0.323,0,0.647,0.027,0.99,0.083l3.327,0.688c1.643,0.341,3.069,1.292,4.015,2.677 l7.425,10.876c0.422,0.618,0.578,1.363,0.439,2.098c-0.14,0.736-0.556,1.373-1.174,1.793c-1.136,0.779-2.791,0.554-3.687-0.47 l0.274,14.748c0.015,0.055,0.023,0.113,0.023,0.172C37.115,72.359,36.824,72.65,36.465,72.65z M32.435,71.35h3.348l-0.305-16.386 c-0.005-0.288,0.179-0.544,0.452-0.631c0.275-0.087,0.573,0.016,0.734,0.252l1.022,1.498c0.45,0.659,1.424,0.844,2.084,0.393 c0.332-0.226,0.555-0.567,0.629-0.961c0.074-0.393-0.009-0.792-0.235-1.123l-7.425-10.876c-0.755-1.106-1.894-1.865-3.205-2.137 l-3.299-0.683c-0.246-0.04-0.501-0.061-0.754-0.061c-1.432,0-2.734,0.658-3.572,1.805l-2.775,3.8 c-0.189,0.259-0.289,0.564-0.289,0.885v6.351c0,0.827,0.673,1.5,1.5,1.5s1.5-0.673,1.5-1.5v-5.65c0-0.138,0.043-0.272,0.125-0.383 l2.223-3.044c0.147-0.203,0.397-0.303,0.644-0.256c0.246,0.046,0.444,0.229,0.509,0.471l2.943,10.981 c0.021,0.076,0.027,0.156,0.019,0.234L26.735,71.35h3.337l0.701-3.864c0.058-0.319,0.365-0.536,0.666-0.533 c0.324,0.013,0.589,0.263,0.621,0.585L32.435,71.35z"/></g><g><circle cx="50" cy="32.65" r="4" fill="#fed5b3"/><path fill="#472b29" d="M50,37.3c-2.564,0-4.65-2.086-4.65-4.65S47.436,28,50,28s4.65,2.086,4.65,4.65S52.564,37.3,50,37.3z M50,29.3c-1.847,0-3.35,1.503-3.35,3.35S48.153,36,50,36s3.35-1.503,3.35-3.35S51.847,29.3,50,29.3z"/></g><g><path fill="#f15b6c" d="M55.522,54.201c0.382,0.312,0.864,0.484,1.357,0.484c0.65,0,1.258-0.289,1.667-0.792l4.52-5.545 c0.694-0.852,0.636-2.084-0.134-2.867l-3.908-3.968c-1.332-1.353-3.177-2.133-5.074-2.158c-0.008,0-0.015-0.005-0.023-0.005h-0.07 H50.26H49.74h-3.598h-0.07c-0.008,0-0.015,0.004-0.023,0.005c-1.896,0.025-3.741,0.806-5.073,2.158l-3.908,3.968 c-0.771,0.783-0.828,2.016-0.135,2.867l4.521,5.545c0.41,0.503,1.018,0.792,1.667,0.792c0.493,0,0.975-0.172,1.358-0.484 c0.919-0.749,1.057-2.106,0.308-3.025l-3.303-4.051l2.555-2.594c0.362-0.367,0.82-0.619,1.311-0.757V53.78h-0.005L41.31,72h4.599 L50,58.429L54.09,72h4.599l-4.034-18.22H54.65V43.773c0.491,0.138,0.949,0.39,1.311,0.757l2.556,2.594l-3.303,4.051 C54.465,52.095,54.603,53.452,55.522,54.201z"/><path fill="#472b29" d="M58.709,72.65c-0.007,0-0.013-0.001-0.02,0H54.09c-0.287,0-0.54-0.188-0.623-0.462L50,60.682 l-3.468,11.506c-0.083,0.274-0.336,0.462-0.623,0.462h-4.599c-0.197,0-0.383-0.089-0.507-0.243 c-0.124-0.153-0.17-0.355-0.128-0.547l3.728-16.837c-1.141,0.589-2.638,0.283-3.454-0.719l-4.521-5.545 c-0.903-1.109-0.828-2.714,0.175-3.734l3.908-3.968c1.435-1.456,3.429-2.312,5.48-2.352c0.028-0.003,0.055-0.005,0.08-0.005h7.786 c0.023,0,0.058,0.001,0.096,0.004c2.075,0.029,4.088,0.886,5.533,2.353l3.908,3.968c1.003,1.02,1.079,2.625,0.175,3.734 l-4.52,5.545c-0.817,1.002-2.313,1.307-3.455,0.719l3.694,16.687c0.044,0.087,0.069,0.187,0.069,0.291 C59.359,72.359,59.068,72.65,58.709,72.65z M54.573,71.35h3.307l-3.842-17.354C54.013,53.929,54,53.856,54,53.78V43.773 c0-0.204,0.095-0.396,0.258-0.518c0.162-0.123,0.372-0.163,0.568-0.107c0.621,0.175,1.174,0.496,1.598,0.927l2.555,2.594 c0.233,0.236,0.25,0.61,0.041,0.867l-3.303,4.051c-0.522,0.641-0.426,1.588,0.214,2.11c0.62,0.504,1.609,0.402,2.111-0.215 l4.52-5.545c0.484-0.594,0.444-1.454-0.094-2l-3.907-3.968c-1.208-1.226-2.891-1.942-4.62-1.965c-0.021,0-0.042-0.002-0.064-0.004 l-7.737-0.002c-0.031,0.004-0.063,0.007-0.092,0.007c-1.72,0.023-3.403,0.739-4.611,1.965l-3.908,3.968 c-0.537,0.546-0.578,1.406-0.094,2l4.521,5.545c0.503,0.617,1.491,0.719,2.11,0.215c0.641-0.522,0.737-1.469,0.214-2.11 l-3.303-4.051c-0.209-0.257-0.192-0.63,0.041-0.867l2.556-2.594c0.424-0.431,0.977-0.752,1.598-0.927 c0.196-0.055,0.407-0.015,0.568,0.107C45.905,43.378,46,43.57,46,43.773V53.78c0,0.078-0.014,0.152-0.039,0.221L42.12,71.35h3.307 l3.951-13.108c0.083-0.274,0.336-0.462,0.623-0.462s0.54,0.188,0.623,0.462L54.573,71.35z M55.3,44.811v5.231l2.345-2.876 l-2.146-2.179C55.437,44.924,55.37,44.866,55.3,44.811z M42.355,47.166l2.345,2.876v-5.231c-0.07,0.055-0.136,0.114-0.198,0.176 L42.355,47.166z"/></g><g><path fill="#472b29" d="M30.399,71.514c-0.015,0-0.031-0.001-0.046-0.004c-0.136-0.025-0.226-0.155-0.2-0.291l2.289-12.356 c0.025-0.136,0.158-0.228,0.291-0.2c0.136,0.025,0.226,0.155,0.2,0.291L30.644,71.31C30.622,71.43,30.517,71.514,30.399,71.514z"/></g><g><circle cx="26.537" cy="33.737" r="4.008" fill="#fed5b3"/><path fill="#472b29" d="M26.537,38.396c-2.568,0-4.658-2.09-4.658-4.658s2.09-4.658,4.658-4.658 c2.569,0,4.659,2.09,4.659,4.658S29.105,38.396,26.537,38.396z M26.537,30.379c-1.852,0-3.358,1.507-3.358,3.358 s1.507,3.358,3.358,3.358c1.852,0,3.359-1.507,3.359-3.358S28.389,30.379,26.537,30.379z"/></g><g><path fill="#472b29" d="M35.999,55.026c-0.111,0-0.213-0.075-0.242-0.188l-1.251-4.841c-0.034-0.134,0.046-0.27,0.18-0.305 c0.134-0.034,0.27,0.046,0.305,0.18l1.251,4.841c0.034,0.134-0.046,0.27-0.18,0.305C36.04,55.023,36.019,55.026,35.999,55.026z M34.247,48.249c-0.111,0-0.213-0.075-0.242-0.188l-0.25-0.968c-0.034-0.134,0.046-0.27,0.18-0.305 c0.134-0.036,0.27,0.046,0.305,0.18l0.25,0.968c0.034,0.134-0.046,0.27-0.18,0.305C34.289,48.246,34.268,48.249,34.247,48.249z"/></g></svg>