<svg xmlns="http://www.w3.org/2000/svg" viewBox="0 0 48 48"><path fill="#f44336" d="M4.2 23H43.800000000000004V25H4.2z" transform="rotate(-23.986 24.003 24.002)"/><path fill="#ffca28" d="M13,9c0,2,5,3,8,3s9-5,4-5S17,9,13,9z"/><path fill="#738d99" d="M29,32H19c0,0-6.4,1.3-9.9,5.3c5,5.6,13,8.1,20.6,5.8c3.7-1.1,6.7-3.2,9.1-5.8 C35.4,33.4,29,32,29,32z"/><path fill="#fff" d="M22.4,43.9c0.5,0,1.1,0.1,1.6,0.1s1.1,0,1.6-0.1L29,32H19L22.4,43.9z"/><path fill="#fb8c00" d="M19 32v-5h10v5l-3 2h-4L19 32zM35 21c0 1.1-.9 2-2 2s-2-.9-2-2 .9-2 2-2S35 19.9 35 21M17 21c0-1.1-.9-2-2-2s-2 .9-2 2 .9 2 2 2S17 22.1 17 21"/><path fill="#ffa726" d="M33,14H15v9c0,4.4,3.6,8,8,8h2c4.4,0,8-3.6,8-8V14z"/><path fill="#ffca28" d="M14,17v2.3l2,1.7c0,0,0-1,0-4s4.2-4,9.5-4c3.3,0,5.7,1.2,5.7,1.2S32,15,32,17c0,1,0,4,0,4l2-1.7V17 c0-4-2.6-6-8.4-6C21.3,11,14,11.5,14,17z"/><path fill="#37474f" d="M22,22h-3c0-0.6,0.7-1,1.5-1S22,21.4,22,22 M29,22c0-0.6-0.7-1-1.5-1S26,21.4,26,22H29"/><path fill="#ffd54f" d="M20.5,19c-0.8,0-2.5,1-2.5,1s1,0,2,0s2,0,2,0C22,19.4,21.3,19,20.5,19z M27.5,19 c-0.8,0-1.5,0.4-1.5,1c0,0,1,0,2,0s2,0,2,0S28.3,19,27.5,19z"/><path fill="#f44336" d="M23 36l-.9 6.8.3 1.2c1.1.1 2.1.1 3.2 0l.3-1.2L25 36H23zM22 34l1 2h2l1-2H22z"/><path fill="#ffd54f" d="M11,12c0,2,5.2,5,12.5,5c8.1,0,10.5-2.4,10.5-5c0-2-1.4-5-10-5C20,7,14,12,11,12z"/><path fill="#ffa726" d="M26,30c0,1.1-0.9,2-2,2s-2-0.9-2-2s0.9-2,2-2S26,28.9,26,30"/><path fill="#f57c00" d="M22,27h4c0,0.9-1,1.3-1,1.3h-2C23,28.3,22,27.9,22,27z"/><path fill="#f57c00" d="M25.5,29h-3c0-0.9,0.8-1.3,0.8-1.3h1.5C24.8,27.7,25.5,28.1,25.5,29z"/><path fill="#f44336" d="M24,45C12.4,45,3,35.6,3,24C3,12.4,12.4,3,24,3c11.6,0,21,9.4,21,21C45,35.6,35.6,45,24,45z M24,5 C13.5,5,5,13.5,5,24s8.5,19,19,19s19-8.5,19-19S34.5,5,24,5z"/></svg>