<svg xmlns="http://www.w3.org/2000/svg" viewBox="0 0 64 64"><linearGradient id="WaDJFgz9e1fI~sVzfHKO7a" x1="157.538" x2="157.538" y1="-807.085" y2="-814.928" gradientTransform="matrix(-.0627 0 0 -1 31.878 -774)" gradientUnits="userSpaceOnUse" spreadMethod="reflect"><stop offset="0" stop-color="#6dc7ff"/><stop offset="1" stop-color="#e6abff"/></linearGradient><path fill="url(#WaDJFgz9e1fI~sVzfHKO7a)" d="M14.533,37.962l4.508,2.816c0.851,0.532,1.956-0.08,1.956-1.083V38H30v-2h-9.003v-1.695 c0-1.003-1.104-1.615-1.956-1.083l-4.508,2.816C13.822,36.482,13.822,37.518,14.533,37.962z"/><linearGradient id="WaDJFgz9e1fI~sVzfHKO7b" x1="-111.5" x2="-111.5" y1="-799.085" y2="-806.928" gradientTransform="matrix(-.0588 0 0 -1 34.941 -774)" gradientUnits="userSpaceOnUse" spreadMethod="reflect"><stop offset="0" stop-color="#6dc7ff"/><stop offset="1" stop-color="#e6abff"/></linearGradient><path fill="url(#WaDJFgz9e1fI~sVzfHKO7b)" d="M49.467,28.038l-4.508-2.816c-0.851-0.532-1.956,0.08-1.956,1.083V28H33v2h10.003v1.695 c0,1.003,1.104,1.615,1.956,1.083l4.508-2.816C50.178,29.518,50.178,28.482,49.467,28.038z"/><linearGradient id="WaDJFgz9e1fI~sVzfHKO7c" x1="36.251" x2="36.251" y1="6.375" y2="57.39" gradientUnits="userSpaceOnUse" spreadMethod="reflect"><stop offset="0" stop-color="#1a6dff"/><stop offset="1" stop-color="#c822ff"/></linearGradient><path fill="url(#WaDJFgz9e1fI~sVzfHKO7c)" d="M36.963 43.511L33.772 37.484 35.54 36.549 38.73 42.575z"/><linearGradient id="WaDJFgz9e1fI~sVzfHKO7d" x1="31.972" x2="31.972" y1="6.5" y2="57.501" gradientUnits="userSpaceOnUse" spreadMethod="reflect"><stop offset="0" stop-color="#1a6dff"/><stop offset="1" stop-color="#c822ff"/></linearGradient><path fill="url(#WaDJFgz9e1fI~sVzfHKO7d)" d="M32.697 35.454L29.479 29.375 31.247 28.439 34.465 34.519z"/><linearGradient id="WaDJFgz9e1fI~sVzfHKO7e" x1="27.78" x2="27.78" y1="6.125" y2="57.47" gradientUnits="userSpaceOnUse" spreadMethod="reflect"><stop offset="0" stop-color="#1a6dff"/><stop offset="1" stop-color="#c822ff"/></linearGradient><path fill="url(#WaDJFgz9e1fI~sVzfHKO7e)" d="M28.459 27.448L25.334 21.546 27.102 20.61 30.227 26.513z"/><linearGradient id="WaDJFgz9e1fI~sVzfHKO7f" x1="32" x2="32" y1="6" y2="58" gradientUnits="userSpaceOnUse" spreadMethod="reflect"><stop offset="0" stop-color="#1a6dff"/><stop offset="1" stop-color="#c822ff"/></linearGradient><path fill="url(#WaDJFgz9e1fI~sVzfHKO7f)" d="M55.121,14.707l-7.828-7.828C46.727,6.312,45.973,6,45.171,6H25c-1.654,0-3,1.346-3,3v5H11 c-1.654,0-3,1.346-3,3v38c0,1.654,1.346,3,3,3h28c1.654,0,3-1.346,3-3v-5h11c1.654,0,3-1.346,3-3V16.828 C56,16.027,55.688,15.273,55.121,14.707z M47,9.414L52.586,15H48c-0.551,0-1-0.448-1-1V9.414z M54,47c0,0.552-0.449,1-1,1H41.602 l-1.839-3.474l-1.768,0.936L40,49.248V50v5c0,0.552-0.449,1-1,1H11c-0.551,0-1-0.448-1-1V17c0-0.552,0.449-1,1-1h11h0.398 l1.797,3.395l1.768-0.936L24,14.752V9c0-0.552,0.449-1,1-1h20v6c0,1.654,1.346,3,3,3h6V47z"/></svg>