<svg xmlns="http://www.w3.org/2000/svg" viewBox="0 0 48 48"><path fill="#38b47b" d="M21.274,14.447c-0.28,0.033-0.578,0.06-0.872,0.088c-0.517-2.148-0.443-4.79-1.404-6.671 c-0.235-0.461-0.488-0.931-0.889-1.257c-0.621-0.503-1.478-0.571-2.276-0.604c-2-0.083-5.003-0.087-7.003-0.012 C8.168,6.015,7.464,6.064,6.933,6.459C6.462,6.809,6.21,7.373,5.99,7.917c-0.688,1.698-1.379,4.222-1.847,6.215 c-0.304,0.038-0.608,0.086-0.908,0.155c-0.735,0.318-0.857,1.52-0.658,2.322s0.669,1.505,1.01,2.257 c0.479,1.055,0.706,2.204,0.888,3.348c0.992,6.246,0.74,13.633,1.606,19.898c0.044,0.317,0.111,0.669,0.37,0.857 c0.168,0.122,0.384,0.149,0.59,0.171c2.736,0.289,6.499,0.316,9.24,0.08c0.579-0.05,1.164-0.111,1.737-0.021 c0.147,0.023,0.298,0.056,0.443,0.025c0.383-0.083,0.532-0.54,0.609-0.924c1.371-6.845,1.737-14.845,2.279-21.805 c0.055-0.706,0.113-1.418,0.302-2.1c0.261-0.942,0.74-1.898,0.825-2.824C22.539,14.901,21.94,14.367,21.274,14.447z"/><path fill="#f26322" d="M45.619,14.498c-0.029-0.083-0.322-0.62-0.408-0.64c-0.4-0.09-0.58-0.161-0.816-0.157 c-0.042,0.001-0.089,0.001-0.131,0.002c-0.287-1.843-0.673-3.918-1.087-5.64c-0.18-0.748-0.424-1.566-1.078-1.972 c-0.513-0.318-1.156-0.302-1.759-0.276c-2.276,0.097-6.551,0.195-8.827,0.292c-0.301,0.013-0.627,0.035-0.856,0.231 c-0.195,0.166-0.279,0.424-0.355,0.668c-0.589,1.9-1.433,4.759-2.098,6.946c-0.242,0.004-0.499,0.008-0.733,0.011 c-0.35,0.005-0.663,0.213-0.797,0.537c-0.222,0.539-0.367,1.119-0.189,1.649c0.222,0.66,0.874,1.061,1.311,1.603 c0.53,0.655,0.736,1.508,0.896,2.336c1.379,7.11-0.541,15.506,0.749,22.632c0.015,0.085,0.033,0.174,0.091,0.239 c0.083,0.093,0.221,0.107,0.346,0.115c2.594,0.156,7.189,0.312,9.783,0.468c0.805,0.048,1.764,0.025,2.211-0.646 c0.188-0.281,0.244-0.628,0.295-0.962c0.253-1.651,0.505-4.303,0.758-5.954c0.199-1.303,0.399-2.607,0.512-3.92 c0.391-4.538-0.04-9.242,0.957-13.686C44.722,16.92,46.106,15.908,45.619,14.498z"/><path fill="#2b8c5e" d="M7.759,6.328C7.704,7.17,7.649,8.013,7.594,8.855c-0.033,0.509-0.066,1.026,0.051,1.523 s0.408,0.977,0.867,1.198c0.347,0.167,0.748,0.171,1.133,0.171c1.302,0,3.603,0.001,4.905,0.002c0.738,0,1.556-0.03,2.088-0.541 c0.499-0.479,0.588-1.233,0.648-1.922c0.086-0.982,0.171-1.965,0.257-2.947L7.759,6.328z"/><path fill="#d03827" d="M41.269,6.179L31.77,6.417c-0.02,1.14-0.04,2.28-0.06,3.421c-0.004,0.227-0.007,0.459,0.065,0.674 c0.126,0.376,0.469,0.648,0.841,0.787c0.372,0.138,0.775,0.163,1.171,0.187c1.268,0.075,4.537,0.15,5.805,0.225 c0.419,0.025,0.887,0.034,1.203-0.243c0.22-0.193,0.318-0.486,0.394-0.769C41.581,9.228,41.609,7.662,41.269,6.179z"/><path fill="#010101" d="M22.521,14.391c-0.347-0.337-0.819-0.502-1.306-0.44h-0.001c-0.114,0.014-0.237,0.023-0.353,0.036v0 c-0.247-0.833-0.359-1.686-0.46-2.516c-0.153-1.262-0.312-2.566-0.958-3.834c-0.271-0.531-0.554-1.04-1.021-1.418 c-0.729-0.591-1.67-0.677-2.57-0.715C13.863,5.42,10.837,5.416,8.81,5.49c-0.594,0.023-1.49,0.058-2.176,0.567 C6.065,6.481,5.774,7.116,5.525,7.729c-0.197,0.487-0.384,0.978-0.56,1.474c-0.164,0.459-0.317,0.923-0.463,1.388 c-0.01,0.031-0.021,0.062-0.031,0.093c-0.311,0.997-0.579,2.005-0.806,3.02c0,0.001-0.001,0.003-0.001,0.004 c-0.209,0.035-0.418,0.07-0.628,0.119c-0.976,0.422-1.215,1.81-0.945,2.9c0.149,0.602,0.427,1.134,0.695,1.649 c0.119,0.23,0.239,0.46,0.346,0.694c0.431,0.947,0.65,1.973,0.849,3.22c0.518,3.257,0.697,6.896,0.871,10.413 c0.157,3.187,0.32,6.481,0.734,9.476c0.042,0.303,0.119,0.865,0.571,1.192c0.284,0.207,0.614,0.241,0.831,0.264 c1.524,0.161,3.354,0.243,5.162,0.243c1.462,0,2.91-0.054,4.175-0.162l0.102-0.009c0.531-0.048,1.034-0.091,1.565-0.009 c0.159,0.026,0.354,0.061,0.576,0.011c0.507-0.109,0.841-0.552,0.992-1.313c1.121-5.599,1.565-11.838,1.995-17.872 c0.097-1.357,0.191-2.693,0.292-3.992c0.053-0.67,0.107-1.362,0.286-2.006c0.091-0.325,0.208-0.652,0.325-0.979 c0.224-0.627,0.456-1.274,0.517-1.933C23.018,15.16,22.852,14.714,22.521,14.391z M15.812,6.503 c0.425,0.017,0.834,0.051,1.202,0.141l-0.226,2.598c-0.056,0.648-0.136,1.259-0.496,1.604c-0.388,0.373-1.031,0.399-1.741,0.401 l-4.904-0.001c-0.312,0-0.664,0-0.916-0.121c-0.279-0.135-0.502-0.457-0.598-0.862c-0.101-0.43-0.069-0.911-0.039-1.376 l0.155-2.354c0,0,0,0,0,0c0.194-0.021,0.393-0.036,0.6-0.044C10.852,6.413,13.845,6.419,15.812,6.503z M7.223,6.868L7.095,8.822 c-0.033,0.514-0.071,1.096,0.063,1.67c0.166,0.707,0.58,1.266,1.138,1.534c0.457,0.221,0.952,0.221,1.35,0.221l4.903,0.001 c0.01,0,0.019,0,0.027,0c0.864,0,1.76-0.057,2.408-0.681c0.66-0.635,0.744-1.601,0.799-2.238l0.186-2.132c0,0,0,0,0,0 c0.218,0.244,0.403,0.54,0.583,0.893c0.566,1.108,0.707,2.27,0.855,3.499c0.048,0.394,0.101,0.795,0.164,1.198 c0.003,0.017,0.005,0.034,0.008,0.052c0.066,0.413,0.152,0.829,0.266,1.248c-3.24,0.269-7.084,0.22-9.979-0.149L9.33,13.869 c-1.503-0.194-3.045-0.392-4.608-0.286c0,0,0,0,0,0c0.216-0.925,0.468-1.845,0.754-2.755c0.006-0.018,0.012-0.036,0.018-0.055 C5.78,9.872,6.098,8.98,6.452,8.104C6.655,7.607,6.866,7.139,7.223,6.868z M21.518,17.211c-0.126,0.35-0.251,0.7-0.347,1.048 c-0.205,0.736-0.264,1.479-0.319,2.195c-0.102,1.302-0.197,2.64-0.294,3.999c-0.427,6.003-0.869,12.211-1.978,17.747 c-0.098,0.492-0.223,0.532-0.227,0.533c-0.031,0.003-0.128-0.008-0.258-0.03c-0.599-0.094-1.189-0.042-1.757,0.009l-0.101,0.009 c-2.727,0.234-6.487,0.201-9.146-0.079c-0.111-0.012-0.28-0.029-0.349-0.079c-0.106-0.077-0.149-0.388-0.168-0.52 c-0.407-2.95-0.569-6.223-0.726-9.388c-0.175-3.545-0.356-7.211-0.882-10.521c-0.183-1.149-0.422-2.366-0.927-3.478 c-0.114-0.251-0.241-0.496-0.369-0.741c-0.252-0.485-0.491-0.943-0.611-1.429c-0.163-0.66-0.037-1.565,0.284-1.714 c0.724-0.165,1.469-0.228,2.224-0.228c1.203,0,2.431,0.159,3.633,0.315l0.54,0.069c3.18,0.404,7.299,0.434,10.749,0.097 c0.004,0,0.007,0.004,0.011,0.004c0.023,0,0.046-0.009,0.07-0.012c0.254-0.025,0.514-0.048,0.76-0.077 c0.182-0.021,0.36,0.039,0.49,0.165c0.067,0.065,0.177,0.206,0.157,0.416C21.931,16.056,21.729,16.616,21.518,17.211z"/><path fill="#010101" d="M46.092,14.335c-0.003-0.009-0.33-0.863-0.768-0.964c-0.001,0-0.002,0-0.003-0.001l-0.285-0.068 c-0.076-0.019-0.14-0.03-0.207-0.044c0-0.001,0-0.001,0-0.002c-0.238-1.508-0.56-2.84-0.903-4.236l-0.262-1.074 c-0.201-0.837-0.484-1.773-1.301-2.279c-0.659-0.41-1.46-0.376-2.044-0.352c-1.146,0.05-2.799,0.099-4.447,0.147 c-1.626,0.049-3.249,0.097-4.38,0.146c-0.314,0.014-0.79,0.035-1.159,0.351c-0.312,0.267-0.43,0.648-0.507,0.899l-2.045,6.601 l-0.315,0.005c-0.552,0.008-1.043,0.34-1.252,0.847c-0.207,0.5-0.452,1.251-0.201,1.999c0.185,0.552,0.588,0.94,0.942,1.284 c0.158,0.153,0.318,0.306,0.454,0.474c0.465,0.575,0.647,1.361,0.794,2.116c0.688,3.548,0.538,7.519,0.394,11.358 c-0.144,3.786-0.292,7.701,0.354,11.271c0.021,0.108,0.058,0.31,0.209,0.479c0.225,0.254,0.538,0.273,0.689,0.283 c1.293,0.077,3.08,0.155,4.87,0.232c1.804,0.078,3.61,0.157,4.914,0.235c0.135,0.008,0.311,0.019,0.511,0.019 c0.682,0,1.636-0.123,2.146-0.886c0.253-0.38,0.319-0.815,0.372-1.164c0.127-0.831,0.255-1.913,0.382-2.994 c0.126-1.069,0.251-2.139,0.377-2.96c0.197-1.287,0.4-2.619,0.516-3.952c0.145-1.675,0.178-3.392,0.211-5.052 c0.057-2.85,0.114-5.797,0.736-8.568c0.108-0.486,0.371-0.945,0.625-1.391C45.957,16.308,46.465,15.417,46.092,14.335z M40.362,6.315c0.146-0.007,0.287-0.012,0.422-0.012c0.319,1.402,0.292,2.876-0.079,4.265c-0.058,0.212-0.126,0.422-0.24,0.522 c-0.167,0.146-0.508,0.141-0.845,0.12c-0.642-0.038-1.793-0.076-2.94-0.114c-1.121-0.037-2.237-0.074-2.864-0.11 c-0.354-0.021-0.72-0.043-1.026-0.157c-0.269-0.1-0.476-0.281-0.541-0.477c-0.045-0.134-0.041-0.314-0.038-0.506l0.057-3.268 c0.001,0,0.002,0,0.004,0c0.234-0.009,0.484-0.017,0.741-0.026c0.053-0.002,0.105-0.004,0.158-0.005 c0.243-0.008,0.493-0.016,0.75-0.024c0.088-0.003,0.177-0.005,0.266-0.008c0.243-0.008,0.488-0.015,0.738-0.023 c0.324-0.01,0.65-0.019,0.978-0.029C37.556,6.414,39.214,6.364,40.362,6.315z M30.983,6.719c0.048-0.041,0.132-0.062,0.221-0.078 c0.021-0.004,0.04-0.009,0.062-0.012l-0.056,3.2c-0.004,0.256-0.01,0.545,0.09,0.841c0.163,0.488,0.579,0.889,1.141,1.097 c0.446,0.166,0.908,0.193,1.316,0.218c0.633,0.037,1.759,0.074,2.89,0.111c1.138,0.038,2.278,0.075,2.915,0.113 c0.103,0.006,0.222,0.013,0.352,0.013c0.38,0,0.846-0.06,1.211-0.38c0.314-0.276,0.448-0.65,0.547-1.015 c0.376-1.404,0.418-2.884,0.16-4.313c0.002,0.001,0.004,0.002,0.006,0.003c0.493,0.306,0.7,1.02,0.854,1.664l0.264,1.079 c0.336,1.365,0.627,2.577,0.852,3.949c0,0.001,0,0.001,0,0.002l-14.975,0.232l1.948-6.288C30.828,7.004,30.892,6.797,30.983,6.719z M44.64,16.599c-0.276,0.484-0.59,1.034-0.732,1.667c-0.643,2.87-0.702,5.868-0.76,8.767c-0.032,1.645-0.065,3.345-0.207,4.986 c-0.112,1.301-0.313,2.615-0.508,3.887c-0.127,0.831-0.255,1.913-0.382,2.994c-0.126,1.069-0.251,2.139-0.377,2.96 c-0.042,0.278-0.086,0.566-0.216,0.76c-0.301,0.451-1.105,0.461-1.766,0.425c-1.308-0.079-3.12-0.157-4.931-0.236 c-1.739-0.075-3.476-0.15-4.838-0.234c-0.613-3.445-0.469-7.282-0.328-10.994c0.147-3.896,0.3-7.925-0.41-11.586 c-0.164-0.841-0.39-1.801-0.999-2.555c-0.161-0.199-0.349-0.382-0.536-0.563c-0.3-0.29-0.582-0.563-0.69-0.884 c-0.109-0.327-0.053-0.74,0.178-1.3c0.058-0.138,0.188-0.226,0.343-0.228l16.923-0.262c0.092-0.005,0.19,0.02,0.391,0.07 l0.15,0.036c0.073,0.113,0.178,0.299,0.202,0.353C45.361,15.283,45.094,15.803,44.64,16.599z"/><path fill="#010101" d="M35.908,20.963c-0.272-0.074-0.748-0.137-1.125-0.267c-0.183-0.089-0.362-0.183-0.538-0.315 c-0.469-0.352-0.979,0.388-0.606,0.785c0.029,0.031,0.071,0.047,0.103,0.075c-0.001,0.001-0.001,0.002-0.002,0.003 c0.022,0.016,0.044,0.028,0.066,0.044c0.088,0.068,0.171,0.143,0.273,0.194c-1.279,0.727-2.081,2.103-1.928,3.719 c0.06,0.635,1.06,0.641,1,0c-0.105-1.116,0.342-2.114,1.156-2.707c-0.173,0.451,0.241,0.854,0.695,0.646 c0.028-0.013,0.057-0.026,0.085-0.039c0.21-0.096,0.275-0.269,0.25-0.438c0.133-0.254,0.283-0.495,0.463-0.726 C36.316,21.866,36.474,21.117,35.908,20.963z"/><path fill="#010101" d="M41.139,25.693c-0.025,0.021-0.055,0.05-0.081,0.074c0.155-2.239-0.693-4.645-3.218-5.024 c-0.63-0.094-0.901,0.869-0.266,0.964c1.931,0.29,2.562,2,2.504,3.695c-0.015-0.024-0.032-0.045-0.046-0.069 c-0.334-0.556-1.15-0.068-0.863,0.505c0.244,0.488,0.439,1.092,0.821,1.487c0.169,0.174,0.402,0.167,0.606,0.078 c0.46-0.201,0.873-0.682,1.25-1.004C42.336,25.982,41.626,25.278,41.139,25.693z"/><path fill="#010101" d="M38.824,28.22c-1.262,0.352-2.955,0.392-4.052-0.426c0.595,0.174,0.844-0.765,0.244-0.967 c-0.41-0.138-0.821-0.256-1.242-0.357c-0.323-0.077-0.622,0.15-0.633,0.482c-0.001,0.024-0.002,0.049-0.002,0.073 c-0.023,0.055-0.038,0.114-0.039,0.18c-0.002,0.4-0.004,0.799-0.006,1.199c-0.003,0.604,0.847,0.633,0.975,0.108 c1.344,1.066,3.415,1.118,5.02,0.671C39.709,29.012,39.446,28.047,38.824,28.22z"/><path fill="#010101" d="M12.662,28.79c-1.129-0.123-2.26-0.175-3.394-0.188c0.394-0.754,0.787-1.508,1.181-2.263 c0.046,0.118,0.076,0.236,0.136,0.356c0.29,0.575,1.153,0.069,0.863-0.505c-0.193-0.383-0.258-0.66-0.271-1.087 c-0.008-0.278-0.25-0.502-0.512-0.5c-0.115-0.031-0.243-0.026-0.371,0.037c-0.59,0.292-1.1,0.664-1.566,1.129 c-0.352,0.351,0.018,0.943,0.448,0.848c-0.386,0.74-0.772,1.479-1.158,2.218c-0.171,0.328,0.038,0.757,0.432,0.752 c1.409-0.017,2.81,0.05,4.211,0.203C13.301,29.859,13.296,28.859,12.662,28.79z"/><path fill="#010101" d="M16.784,23.022c0.106-0.63-0.857-0.9-0.964-0.266c-0.002,0.011-0.004,0.033-0.006,0.049 c-0.623-0.926-1.42-1.836-2.327-2.261c-0.403-0.188-0.637-0.078-0.93,0.23c-0.602,0.633-1.066,1.5-1.531,2.236 c-0.345,0.545,0.52,1.048,0.863,0.505c0.272-0.43,0.55-0.855,0.839-1.273c0.475-0.686,0.344-0.829,1.013-0.234 c0.514,0.457,0.951,0.975,1.335,1.533c-0.086-0.016-0.172-0.033-0.259-0.049c-0.639-0.121-0.863,0.731-0.266,0.964 c0.484,0.189,1.205,0.654,1.716,0.291c0.043-0.031,0.064-0.086,0.099-0.126c0.125-0.088,0.209-0.215,0.214-0.372 C16.714,23.849,16.729,23.352,16.784,23.022z"/><path fill="#010101" d="M18.257,28.927c-0.135-0.417-0.414-0.602-0.64-0.953c-0.331-0.514-0.478-1.222-0.685-1.791 c-0.219-0.6-1.186-0.341-0.964,0.266c0.207,0.565,0.386,1.154,0.628,1.706c0.052,0.118,0.128,0.225,0.21,0.329 c-0.275-0.041-0.551-0.085-0.823-0.094c-0.094-0.003-0.187,0.007-0.28,0.008c0.243-0.378-0.27-0.985-0.689-0.68 c-0.319,0.232-0.758,0.541-0.999,0.917c-0.007,0.007-0.015,0.013-0.021,0.02c-0.108,0.117-0.144,0.244-0.138,0.366 c-0.017,0.091-0.022,0.184-0.006,0.281c0.028,0.173,0.195,0.298,0.349,0.349c0.508,0.169,0.862,0.586,1.428,0.566 c0.461-0.016,0.586-0.532,0.386-0.816c0.075,0.003,0.149-0.003,0.224,0.002c0.514,0.034,1.023,0.187,1.539,0.158 C18.084,29.543,18.363,29.253,18.257,28.927z"/></svg>