<?xml version="1.0"?><svg xmlns="http://www.w3.org/2000/svg" viewBox="0 0 64 64">    <path d="M 13 8 C 11.35 8 10 9.35 10 11 L 10 37 C 10 38.65 11.35 40 13 40 L 28 40 L 28 57 C 28 58.65 29.35 60 31 60 L 57 60 C 58.65 60 60 58.65 60 57 L 60 31 C 60 29.35 58.65 28 57 28 L 42 28 L 42 11 C 42 9.35 40.65 8 39 8 L 13 8 z M 13 10 L 39 10 C 39.55 10 40 10.45 40 11 L 40 37 C 40 37.55 39.55 38 39 38 L 13 38 C 12.45 38 12 37.55 12 37 L 12 11 C 12 10.45 12.45 10 13 10 z M 15 13 C 14.448 13 14 13.448 14 14 C 14 14.552 14.448 15 15 15 L 17 15 C 17.552 15 18 14.552 18 14 C 18 13.448 17.552 13 17 13 L 15 13 z M 15 18 C 14.448 18 14 18.448 14 19 C 14 19.552 14.448 20 15 20 L 17 20 C 17.552 20 18 19.552 18 19 C 18 18.448 17.552 18 17 18 L 15 18 z M 15 23 C 14.448 23 14 23.448 14 24 C 14 24.552 14.448 25 15 25 L 17 25 C 17.552 25 18 24.552 18 24 C 18 23.448 17.552 23 17 23 L 15 23 z M 15 28 C 14.448 28 14 28.448 14 29 C 14 29.552 14.448 30 15 30 L 17 30 C 17.552 30 18 29.552 18 29 C 18 28.448 17.552 28 17 28 L 15 28 z M 42 30 L 57 30 C 57.55 30 58 30.45 58 31 L 58 57 C 58 57.55 57.55 58 57 58 L 31 58 C 30.45 58 30 57.55 30 57 L 30 40 L 39 40 C 40.65 40 42 38.65 42 37 L 42 30 z M 15 33 C 14.448 33 14 33.448 14 34 C 14 34.552 14.448 35 15 35 L 17 35 C 17.552 35 18 34.552 18 34 C 18 33.448 17.552 33 17 33 L 15 33 z M 3 42.001953 C 2.448 42.001953 2 42.449953 2 43.001953 L 2 49.001953 C 2 53.963953 6.038 58.001953 11 58.001953 L 13.414062 58.001953 L 12.464844 58.951172 C 12.276844 59.139172 12.171875 59.393203 12.171875 59.658203 C 12.171875 59.923203 12.276844 60.178234 12.464844 60.365234 L 15.292969 63.193359 C 15.487969 63.388359 15.744 63.486328 16 63.486328 C 16.256 63.486328 16.512031 63.388359 16.707031 63.193359 L 24.191406 55.708984 C 24.582406 55.317984 24.582406 54.685922 24.191406 54.294922 L 16.707031 46.808594 C 16.316031 46.417594 15.683969 46.417594 15.292969 46.808594 L 12.464844 49.636719 C 12.276844 49.824719 12.171875 50.07875 12.171875 50.34375 C 12.171875 50.60875 12.276844 50.863781 12.464844 51.050781 L 13.414062 52.001953 L 11 52.001953 C 9.346 52.001953 8 50.655953 8 49.001953 L 8 43.001953 C 8 42.449953 7.552 42.001953 7 42.001953 L 3 42.001953 z M 4 44 L 6 44 L 6 49 C 6 51.757 8.243 54 11 54 L 15.828125 54 C 16.232125 54 16.598906 53.755812 16.753906 53.382812 C 16.908906 53.008812 16.821156 52.578969 16.535156 52.292969 L 14.585938 50.34375 L 16 48.929688 L 22.070312 55 L 16 61.070312 L 14.585938 59.65625 L 16.535156 57.705078 C 16.821156 57.419078 16.906953 56.989234 16.751953 56.615234 C 16.597953 56.243234 16.232125 56 15.828125 56 L 11 56 C 7.14 56 4 52.86 4 49 L 4 44 z"/></svg>