<svg xmlns="http://www.w3.org/2000/svg" viewBox="0 0 40 40"><path fill="#98ccfd" d="M1 12.857H39V33.214H1z"/><path fill="#fff" d="M20,14c3.86,0,7,3.14,7,7s-3.14,7-7,7s-7-3.14-7-7S16.14,14,20,14 M20,12c-4.97,0-9,4.03-9,9s4.03,9,9,9s9-4.03,9-9S24.97,12,20,12L20,12z"/><path fill="#dff0fe" d="M20 5.512L1.5 14.762 1.5 10.452 20 1.202 38.5 10.452 38.5 14.762z"/><path fill="#4788c7" d="M20,1.761l18,9v3.193L20.447,5.177L20,4.953l-0.447,0.224L2,13.953V10.76L20,1.761 M20,0.643l-19,9.5v5.429l19-9.5l19,9.5v-5.429L20,0.643L20,0.643z"/><path fill="#dff0fe" d="M20 9.583L1.5 18.833 1.5 14.523 20 5.273 38.5 14.523 38.5 18.833z"/><path fill="#4788c7" d="M20,5.832l18,9v3.192L20.447,9.248L20,9.025l-0.447,0.224L2,18.025v-3.192L20,5.832 M20,4.714l-19,9.5v5.429l19-9.5l19,9.5v-5.429L20,4.714L20,4.714z"/><path fill="#dff0fe" d="M20 13.655L1.5 22.905 1.5 18.595 20 9.345 38.5 18.595 38.5 22.905z"/><path fill="#4788c7" d="M20,9.904l18,9v3.193L20.447,13.32L20,13.096l-0.447,0.224L2,22.096v-3.193L20,9.904 M20,8.786l-19,9.5v5.429l19-9.5l19,9.5v-5.429L20,8.786L20,8.786z"/><path fill="#fff" d="M20 16.061L21.328 19.14 24.668 19.452 22.149 21.667 22.885 24.939 20 23.228 17.115 24.939 17.851 21.667 15.332 19.452 18.672 19.14z"/><path fill="#dff0fe" d="M20,31.357c-10.656,0-17.191-3.168-18.5-3.866v-4.404C3.921,24,12.291,26.929,20,26.929S36.079,24,38.5,23.087v4.404C37.191,28.188,30.656,31.357,20,31.357z"/><path fill="#4788c7" d="M38,23.382v3.806c-1.735,0.877-8.043,3.67-18,3.67c-9.958,0-16.267-2.794-18-3.67v-3.806C5.07,24.503,12.723,27,20,27S34.93,24.503,38,23.382 M39,21.928c0,0-9.907,4.071-19,4.071S1,21.928,1,21.928v5.858c0,0,6.786,4.071,19,4.071s19-4.071,19-4.071V21.928L39,21.928z"/><path fill="#dff0fe" d="M20,35.429c-10.676,0-17.194-3.168-18.5-3.866v-4.404C3.921,28.072,12.291,31,20,31s16.079-2.928,18.5-3.841v4.403C37.191,32.26,30.656,35.429,20,35.429z"/><path fill="#4788c7" d="M38,27.453v3.806c-1.735,0.877-8.043,3.67-18,3.67c-9.958,0-16.267-2.794-18-3.67v-3.806c3.07,1.121,10.723,3.618,18,3.618S34.93,28.574,38,27.453 M39,26c0,0-9.907,4.071-19,4.071S1,26,1,26v5.858C4,33,12.231,35.929,20,35.929c12.214,0,19-4.071,19-4.071V26L39,26z"/><path fill="#dff0fe" d="M20,38.5c-10.656,0-17.191-3.168-18.5-3.866V31.23c2.421,0.913,10.791,3.841,18.5,3.841s16.079-2.928,18.5-3.841v3.404C37.191,35.332,30.656,38.5,20,38.5z"/><path fill="#4788c7" d="M38,31.453v2.877C36.265,35.207,29.957,38,20,38c-9.958,0-16.267-2.794-18-3.67v-2.877c3.07,1.121,10.723,3.618,18,3.618S34.93,32.575,38,31.453 M39,30c0,0-9.907,4.071-19,4.071S1,30,1,30v4.929C1,34.929,7.786,39,20,39s19-4.071,19-4.071V30L39,30z"/></svg>