<svg xmlns="http://www.w3.org/2000/svg" viewBox="0 0 26 26"><path d="M 13 0 C 10.300781 0 8 1 8 1 L 8.40625 5 L 17.59375 5 L 18 1 C 18 1 15.699219 0 13 0 Z M 8.40625 6 C 8.207031 6.601563 8 7.300781 8 8 C 8 10.800781 10.199219 13 13 13 C 15.800781 13 18 10.800781 18 8 C 18 7.300781 17.792969 6.601563 17.59375 6 Z M 11.3125 14 L 12.40625 15.3125 L 11.3125 16.8125 L 13 20.5 L 14.6875 16.8125 L 13.59375 15.3125 L 14.6875 14 Z M 9 14.5 C 5.5 15.5 3 17.898438 3 22 L 3 26 L 23 26 L 23 22 C 23 17.898438 20.5 15.5 17 14.5 L 13 23 Z M 17 22 L 21 22 L 21 24 L 17 24 Z"/></svg>