<svg xmlns="http://www.w3.org/2000/svg" viewBox="0 0 100 100"><path d="M 31 17 C 23.27961 17 17 23.27961 17 31 L 17 69 C 17 76.72039 23.27961 83 31 83 L 69 83 C 76.72039 83 83 76.72039 83 69 L 83 31 C 83 23.27961 76.72039 17 69 17 L 31 17 z M 31 19 L 69 19 C 75.63961 19 81 24.36039 81 31 L 81 69 C 81 75.63961 75.63961 81 69 81 L 31 81 C 24.36039 81 19 75.63961 19 69 L 19 31 C 19 24.36039 24.36039 19 31 19 z M 34.099609 23 C 27.975367 23 23 27.975367 23 34.099609 L 23 65.900391 C 23 72.024633 27.975367 77 34.099609 77 L 65.900391 77 C 72.024633 77 77 72.024633 77 65.900391 L 77 51.5 A 0.50005 0.50005 0 1 0 76 51.5 L 76 65.900391 C 76 71.484148 71.484148 76 65.900391 76 L 34.099609 76 C 28.515852 76 24 71.484148 24 65.900391 L 24 34.099609 C 24 28.515852 28.515852 24 34.099609 24 L 60.5 24 A 0.50005 0.50005 0 1 0 60.5 23 L 34.099609 23 z M 42.892578 36 C 42.536578 36 42.220406 36.191266 41.941406 36.572266 L 38.8125 40.996094 C 38.4305 41.327094 38.240234 41.710578 38.240234 42.142578 C 38.240234 42.447578 38.334391 42.707828 38.525391 42.923828 C 38.716391 43.139828 38.952422 43.248047 39.232422 43.248047 C 39.512422 43.248047 39.753031 43.094062 39.957031 42.789062 L 41.482422 40.310547 L 41.482422 62.931641 C 41.482422 63.236641 41.603703 63.47925 41.845703 63.65625 C 42.086703 63.83425 42.384234 63.923828 42.740234 63.923828 C 43.071234 63.923828 43.364141 63.83425 43.619141 63.65625 C 43.872141 63.47825 44 63.236641 44 62.931641 L 44 36.953125 C 44 36.674125 43.88625 36.445578 43.65625 36.267578 C 43.42725 36.089578 43.172578 36 42.892578 36 z M 49.154297 36.039062 C 48.872297 36.039063 48.608234 36.14075 48.365234 36.34375 C 48.121234 36.54775 48 36.763188 48 36.992188 L 48 42.751953 C 48 43.005953 48.122234 43.229922 48.365234 43.419922 C 48.608234 43.610922 48.910531 43.705078 49.269531 43.705078 C 49.602531 43.705078 49.897297 43.610922 50.154297 43.419922 C 50.410297 43.229922 50.5 43.005953 50.5 42.751953 L 50.5 38.365234 L 61.5 38.365234 L 61.5 40.425781 L 50 62.244141 C 49.897 62.499141 49.845703 62.678297 49.845703 62.779297 C 49.845703 63.136297 50.000594 63.42725 50.308594 63.65625 C 50.615594 63.88525 50.934703 64 51.345703 64 C 51.755703 64 52.037406 63.834906 52.191406 63.503906 L 63.615234 41.378906 C 63.871234 40.997906 64 40.629438 64 40.273438 L 64 36.992188 C 64 36.763188 63.871234 36.54675 63.615234 36.34375 C 63.359234 36.14075 63.089594 36.039062 62.808594 36.039062 L 49.154297 36.039062 z M 76.492188 38.992188 A 0.50005 0.50005 0 0 0 76 39.5 L 76 41.5 A 0.50005 0.50005 0 1 0 77 41.5 L 77 39.5 A 0.50005 0.50005 0 0 0 76.492188 38.992188 z M 76.492188 43.992188 A 0.50005 0.50005 0 0 0 76 44.5 L 76 48.5 A 0.50005 0.50005 0 1 0 77 48.5 L 77 44.5 A 0.50005 0.50005 0 0 0 76.492188 43.992188 z"/></svg>