<svg xmlns="http://www.w3.org/2000/svg" viewBox="0 0 50 50"><path d="M 0 7 L 0 39 L 50 39 L 50 7 Z M 21 17 L 30 17 L 30 18.898438 L 29.722656 19.1875 C 29.675781 19.238281 25 24.238281 25 30 L 23 30 C 23 25.164063 25.738281 20.972656 27.269531 19 L 21 19 Z M 11 41 C 10.640625 40.996094 10.304688 41.183594 10.121094 41.496094 C 9.941406 41.808594 9.941406 42.191406 10.121094 42.503906 C 10.304688 42.816406 10.640625 43.003906 11 43 L 39 43 C 39.359375 43.003906 39.695313 42.816406 39.878906 42.503906 C 40.058594 42.191406 40.058594 41.808594 39.878906 41.496094 C 39.695313 41.183594 39.359375 40.996094 39 41 Z"/></svg>