<svg xmlns="http://www.w3.org/2000/svg" viewBox="0 0 64 64"><radialGradient id="QktZDHx3Ndl3j4CvgtiEUa" cx="32.5" cy="31.5" r="30.516" gradientUnits="userSpaceOnUse" spreadMethod="reflect"><stop offset="0" stop-color="#eed7a2"/><stop offset=".106" stop-color="#f1dcab"/><stop offset=".437" stop-color="#f8e8c3"/><stop offset=".744" stop-color="#fcefd2"/><stop offset="1" stop-color="#fef2d7"/></radialGradient><path fill="url(#QktZDHx3Ndl3j4CvgtiEUa)" d="M59,20h1.5c2.168,0,3.892-1.998,3.422-4.243C63.58,14.122,62.056,13,60.385,13L53,13 c-1.105,0-2-0.895-2-2c0-1.105,0.895-2,2-2h3.385c1.67,0,3.195-1.122,3.537-2.757C60.392,3.998,58.668,2,56.5,2H34.006H32.5h-24 C6.575,2,5,3.575,5,5.5S6.575,9,8.5,9H10c1.105,0,2,0.895,2,2c0,1.105-0.895,2-2,2l-5.385,0c-1.67,0-3.195,1.122-3.537,2.757 C0.608,18.002,2.332,20,4.5,20H18v12L4.615,32c-1.67,0-3.195,1.122-3.537,2.757C0.608,37.002,2.332,39,4.5,39H5c1.105,0,2,0.895,2,2 c0,1.105-0.895,2-2,2H4.5c-2.168,0-3.892,1.998-3.422,4.243C1.42,48.878,2.945,50,4.615,50H10c1.105,0,2,0.895,2,2 c0,1.105-0.895,2-2,2l-1.385,0c-1.67,0-3.195,1.122-3.537,2.757C4.608,59.002,6.332,61,8.5,61h22.494H32.5h23 c1.925,0,3.5-1.575,3.5-3.5S57.425,54,55.5,54H55c-1.105,0-2-0.895-2-2c0-1.105,0.895-2,2-2h4.385c1.67,0,3.195-1.122,3.537-2.757 C63.392,44.998,61.668,43,59.5,43H47V31h12.385c1.67,0,3.195-1.122,3.537-2.757C63.392,25.998,61.668,24,59.5,24H59 c-1.105,0-2-0.895-2-2C57,20.895,57.895,20,59,20z"/><linearGradient id="QktZDHx3Ndl3j4CvgtiEUb" x1="32" x2="32" y1="56" y2="6" gradientUnits="userSpaceOnUse" spreadMethod="reflect"><stop offset="0" stop-color="#427ce4"/><stop offset=".17" stop-color="#478ee8"/><stop offset=".505" stop-color="#4fabee"/><stop offset=".793" stop-color="#54bef2"/><stop offset="1" stop-color="#56c4f3"/></linearGradient><path fill="url(#QktZDHx3Ndl3j4CvgtiEUb)" d="M57,31c0,13.805-11.195,25-25,25S7,44.805,7,31S18.195,6,32,6S57,17.195,57,31z"/><linearGradient id="QktZDHx3Ndl3j4CvgtiEUc" x1="32" x2="32" y1="51" y2="11" gradientUnits="userSpaceOnUse" spreadMethod="reflect"><stop offset="0" stop-color="#62c4ee"/><stop offset="1" stop-color="#96e4fb"/></linearGradient><path fill="url(#QktZDHx3Ndl3j4CvgtiEUc)" d="M52,31c0,11.044-8.956,20-20,20s-20-8.956-20-20s8.956-20,20-20S52,19.956,52,31z"/><linearGradient id="QktZDHx3Ndl3j4CvgtiEUd" x1="32" x2="32" y1="70.217" y2="14.114" gradientUnits="userSpaceOnUse" spreadMethod="reflect"><stop offset="0" stop-color="#0d47a1"/><stop offset=".365" stop-color="#135fba"/><stop offset=".734" stop-color="#1770cc"/><stop offset="1" stop-color="#1976d2"/></linearGradient><path fill="url(#QktZDHx3Ndl3j4CvgtiEUd)" d="M32,6v25H7c0,13.805,11.195,25,25,25s25-11.195,25-25S45.805,6,32,6z"/><linearGradient id="QktZDHx3Ndl3j4CvgtiEUe" x1="32" x2="32" y1="55.28" y2="6.28" gradientUnits="userSpaceOnUse" spreadMethod="reflect"><stop offset="0" stop-color="#155cde"/><stop offset=".278" stop-color="#1f7fe5"/><stop offset=".569" stop-color="#279ceb"/><stop offset=".82" stop-color="#2cafef"/><stop offset="1" stop-color="#2eb5f0"/></linearGradient><path fill="url(#QktZDHx3Ndl3j4CvgtiEUe)" d="M32,11v18c0,1.105-0.895,2-2,2H12c0,11.401,9.545,20.577,21.078,19.972 c10.094-0.53,18.364-8.799,18.894-18.894C52.577,20.545,43.401,11,32,11z"/></svg>