<svg xmlns="http://www.w3.org/2000/svg" viewBox="0 0 48 48"><path fill="#fcbf95" d="M11.59,8.872c0,0,0.625-2.561,0.357-4.103c1.039-0.553,7.386-2.394,11.413-2.048 c3.605,0.309,9.888,1.428,11.55,2.35c-0.253,0.866-0.332,2.262-0.131,2.798c-1.009-0.204-7.535-0.852-12.077-0.706 S18.001,6.659,11.59,8.872z"/><path fill="#4b7bb2" d="M10.19,12.081c0,0,0.886-1.885,1.137-2.823c1.273-0.754,3.227-1.865,7.359-2.097 S33.048,7.32,34.667,7.84c0.279,1.099,0.707,2.138,0.707,2.138S27.958,9.66,23.513,9.749C19.068,9.839,10.19,12.081,10.19,12.081z"/><path fill="#73a1b2" d="M9.787,12.702c0,0,4.045-2.504,11.806-2.812c7.761-0.307,10.052-0.589,13.931,0.386 c1.178,1.95,2.915,6.743,4.029,10.792s2.126,6.944,0.326,11.535c-1.8,4.591-1.816,10.199-1.498,12.58 c-1.742,0.236-6.086,0.723-13.73-0.634c-0.039-1.91-1.006-11.913,1.496-13.029c-2.702-0.267-3.796-0.412-3.796-0.412l-1.676,1.4 c0,0,2.581,6.713,1.576,11.839c-3.049,0.189-12.496,0.337-12.496,0.337s-0.806-5.81-2.782-9.336s-1.485-10.45-1.283-12.119 S6.737,17.108,9.787,12.702z"/><path fill="#010101" d="M21.127,18.521c-0.036-0.958-0.073-1.948-0.016-2.938c0.016-0.266-0.179-0.496-0.442-0.526 c-3.045-0.348-6.698,0.095-9.767,1.185c-0.726,0.258-1.492,0.804-1.927,1.194c-0.097,0.086-0.156,0.207-0.165,0.337 c-0.204,2.872-0.252,5.879,0.758,8.407c0.134,0.336,0.3,0.683,0.602,0.938c0.284,0.239,0.617,0.343,0.884,0.425l2.798,0.869 c0.728,0.226,1.596,0.496,2.488,0.496c0.229,0,0.46-0.019,0.691-0.06c1.416-0.251,2.707-1.401,3.369-3.003 c0.574-1.389,0.663-2.931,0.742-4.29C21.202,20.517,21.164,19.502,21.127,18.521z M11.237,17.184 c2.777-0.986,6.05-1.416,8.854-1.18c-0.022,0.713-0.002,1.409,0.022,2.093c-3.541-0.094-6.952,0.272-10.386,1.116 c0.017-0.388,0.039-0.776,0.065-1.162C10.244,17.678,10.815,17.333,11.237,17.184z M20.144,21.496 c-0.078,1.345-0.158,2.733-0.667,3.967c-0.418,1.01-1.325,2.171-2.621,2.4c-0.884,0.158-1.854-0.142-2.708-0.407l-2.799-0.869 c-0.2-0.062-0.406-0.125-0.534-0.233c-0.142-0.119-0.239-0.344-0.319-0.545c-0.665-1.664-0.829-3.598-0.799-5.565 c3.457-0.874,6.886-1.252,10.447-1.147C20.171,19.887,20.191,20.69,20.144,21.496z"/><path fill="#fcbf95" d="M29.615,33.643c1.04,0.454,2.17,0.704,3.305,0.731c0.394,0.009,0.792-0.008,1.173-0.107 c0.451-0.117,0.868-0.345,1.247-0.616c2.175-1.551,3.047-4.319,4.621-6.477c0.673-0.923,1.48-1.739,2.181-2.641 c0.77-0.991,1.407-2.078,2.041-3.161c0.726-1.24,2.075-2.288,2.178-3.721c0.121-1.687-0.32-2.952-1.374-4.275 c-0.312-0.392-0.689-0.762-1.168-0.909c-1.03-0.316-2.027,0.472-2.962,1.008c-1.613,0.926-3.672,1.151-5.355,0.36 c-0.268-0.126-0.526-0.276-0.801-0.388c-0.303-0.124-0.624-0.199-0.943-0.274c-1.327-0.311-2.655-0.623-3.982-0.934 c-0.647-0.152-1.329-0.225-1.978-0.076c-0.519,0.815-1.183,1.421-1.937,1.925c-0.753,0.505-1.522,1.24-1.454,2.145 c0.332,0.859,1.258,0.449,1.898,0.237s1.259-0.558,1.933-0.554c1.232,0.007,2.191,1.265,2.211,2.497 c0.02,1.231,0.152,2.89-0.707,3.772c-1.88,1.93-5.366,2.424-7.304,4.296c-0.355,0.343-0.696,0.735-0.812,1.215 s0.064,1.063,0.516,1.263c0.351,0.155,0.757,0.049,1.123-0.064c3.155-0.971,6.161-2.066,9.017-3.721 c-0.572,0.704-1.196,1.642-1.905,2.208c-2.004,1.601-4.764,1.94-6.88,3.39c-0.191,0.131-0.392,0.296-0.425,0.525 c-0.055,0.387,0.382,0.651,0.759,0.75c0.396,0.104,0.807,0.153,1.217,0.144c0.73-0.016,1.443-0.214,2.146-0.411 C27.196,31.779,23.613,35.431,29.615,33.643z"/><path fill="#010101" d="M33.006,23.531c-0.146,0-0.291-0.063-0.39-0.187l-0.36-0.448c-0.172-0.216-0.137-0.53,0.08-0.702 c0.216-0.173,0.53-0.137,0.703,0.079l0.356,0.444c0.173,0.215,0.14,0.529-0.075,0.703C33.227,23.495,33.116,23.531,33.006,23.531z"/><path fill="#010101" d="M35.321,25.866c-0.078,0-0.156-0.018-0.229-0.056l-0.353-0.182 c-0.246-0.125-0.344-0.427-0.218-0.673c0.125-0.245,0.425-0.345,0.672-0.218l0.358,0.184c0.245,0.128,0.341,0.43,0.214,0.675 C35.676,25.768,35.501,25.866,35.321,25.866z"/><path fill="#010101" d="M37.47,27.821c-0.276,0-0.5-0.224-0.5-0.5v-0.179c0-0.276,0.224-0.5,0.5-0.5s0.5,0.224,0.5,0.5 v0.179C37.97,27.598,37.747,27.821,37.47,27.821z"/><path d="M45.378,13.064c-0.292-0.366-0.755-0.875-1.412-1.075c-1.082-0.336-2.056,0.263-2.917,0.788 c-0.148,0.091-0.295,0.18-0.441,0.264c-0.729,0.418-1.527,0.663-2.319,0.742c-0.044-0.074-0.086-0.151-0.13-0.223 c-0.26-0.43-0.55-0.86-0.83-1.29c-0.415-0.626-0.796-1.238-1.146-1.863c0.023-0.043,0.045-0.086,0.055-0.137 c0.05-0.271-0.13-0.532-0.402-0.582c-0.013-0.002-0.027-0.004-0.04-0.006c-0.026-0.055-0.062-0.106-0.087-0.162 c-0.41-0.91-1-2.67-0.34-4.26c0.05-0.12,0.05-0.26,0-0.38c-0.05-0.13-0.15-0.22-0.28-0.27c-9.72-3.86-18.56-2.52-23.19-0.2 c-0.16,0.08-0.27,0.25-0.27,0.44c-0.03,2.31-0.48,4.34-1.34,6.04c-0.55,1.09-1.13,2.1-1.69,3.07c-0.86,1.5-1.67,2.92-2.41,4.64 c-0.65,1.53-0.97,3.3-1,5.55c-0.06,4.98,0.02,8.32,2.59,13.88c0.72,1.52,1.32,4.52,1.44,6.37c0.04,0.56,0.24,0.76,0.86,0.78 c3.07-0.36,6.23-0.28,9.3-0.19c1.02,0.02,2.05,0.05,3.08,0.06c0.27,0,0.49-0.21,0.5-0.47c0.13-2.82,0.21-6.86-0.56-9.43 c-0.14-0.47-0.32-0.88-0.5-1.27c-0.173-0.403-0.326-0.794-0.441-1.212c0.479-0.201,0.92-0.444,1.321-0.731 c0.193,0.266,0.506,0.482,0.927,0.593c0.33,0.086,0.668,0.127,1.007,0.144c-1.003,2.193-0.825,4.913-0.643,7.556 c0.1,1.52,0.2,2.96,0.08,4.27c-0.02,0.26,0.15,0.49,0.4,0.54c0.06,0.01,5.04,1.01,10.35,1.01c1.19,0,2.39-0.05,3.56-0.17 c0.13-0.01,0.25-0.08,0.34-0.18c0.08-0.11,0.12-0.24,0.1-0.38c-0.51-3.99,0.6-8.62,1.58-12.7c0.18-0.77,0.36-1.52,0.53-2.25 c0.322-1.423,0.491-2.876,0.526-4.332c0.003-0.003,0.005-0.006,0.008-0.01c0.338-0.391,0.676-0.781,0.992-1.189 c0.792-1.018,1.446-2.135,2.078-3.215c0.224-0.383,0.516-0.75,0.824-1.139c0.659-0.831,1.341-1.689,1.42-2.799 C46.987,15.908,46.543,14.526,45.378,13.064z M12.62,5.17c4.43-2.11,12.61-3.26,21.66,0.19c-0.17,0.588-0.212,1.23-0.167,1.894 c-4.663-0.726-9.427-0.62-14.037-0.518C17.195,6.8,14.43,6.994,12.233,8.326C12.453,7.337,12.587,6.286,12.62,5.17z M11.8,9.863 c0.007-0.006,0.016-0.008,0.023-0.014c2.073-1.827,5.098-2.043,8.276-2.114c4.613-0.106,9.381-0.211,14,0.526 c0.056,0.009,0.11,0.002,0.163-0.007c0.09,0.412,0.216,0.828,0.381,1.249c-4.495-0.656-9.109-0.439-13.517-0.078 c-3.471,0.284-6.775,0.556-9.937,1.894C11.422,10.856,11.623,10.369,11.8,9.863z M22.776,30.773c-0.071,0.018-0.14,0.049-0.2,0.1 c-1.408,1.208-3.542,1.697-6.348,1.458c-0.282-0.014-0.518,0.18-0.541,0.455c-0.024,0.275,0.18,0.518,0.455,0.541 c0.489,0.042,0.96,0.063,1.414,0.063c1.097,0,2.077-0.139,2.961-0.383c0.131,0.458,0.295,0.88,0.472,1.273 c0.17,0.38,0.32,0.75,0.45,1.16c0.74,2.46,0.62,6.69,0.54,8.61c-0.86-0.02-1.72-0.04-2.58-0.06c-3.04-0.09-6.18-0.17-9.19,0.18 c-0.15-1.95-0.76-4.94-1.53-6.56c-2.47-5.36-2.55-8.6-2.49-13.45c0.03-2.11,0.32-3.76,0.92-5.17c0.71-1.66,1.51-3.06,2.36-4.54 c0.306-0.535,0.62-1.084,0.933-1.65c3.361-1.762,6.978-2.065,10.877-2.384c4.495-0.368,9.274-0.588,13.876,0.179 c0.411,0.774,0.87,1.518,1.344,2.225c0.202,0.314,0.405,0.631,0.606,0.949c-0.487-0.061-0.959-0.184-1.391-0.388 c-0.1-0.046-0.197-0.097-0.295-0.146c-0.174-0.09-0.348-0.178-0.53-0.252c-0.338-0.138-0.681-0.218-1.017-0.297l-3.981-0.934 c-0.844-0.198-1.563-0.226-2.204-0.078c-0.128,0.029-0.239,0.107-0.31,0.219c-0.437,0.687-1.007,1.252-1.793,1.779 c-1.181,0.791-1.745,1.665-1.675,2.597c0.003,0.049,0.015,0.098,0.032,0.144c0.477,1.233,1.746,0.797,2.357,0.587l0.165-0.056 c0.186-0.062,0.371-0.134,0.555-0.206c0.271-0.106,0.532-0.205,0.788-0.265c-0.024,0.355-0.007,0.835,0.02,1.507 c0.052,1.352,0.115,3.184-0.153,5.077c-0.576,0.31-1.2,0.591-1.844,0.876c-1.339,0.594-2.725,1.208-3.737,2.187 c-0.363,0.351-0.799,0.833-0.951,1.458c-0.156,0.65,0.071,1.516,0.8,1.837c0.503,0.224,1.023,0.096,1.473-0.043 c2.111-0.649,4.502-1.451,6.899-2.597c-0.081,0.077-0.163,0.148-0.246,0.215c-1.009,0.806-2.223,1.273-3.507,1.769 c-1.135,0.438-2.308,0.89-3.345,1.6C23.109,30.431,22.924,30.571,22.776,30.773z M40.03,30.15c-0.16,0.73-0.34,1.47-0.52,2.23 c-0.96,4-2.04,8.51-1.66,12.56c-5.24,0.45-11.06-0.51-12.67-0.8c0.07-1.27-0.03-2.64-0.12-3.98c-0.179-2.607-0.356-5.303,0.657-7.3 c-0.007,0.054-0.015,0.109-0.024,0.162c-0.052,0.314-0.125,0.745,0.177,1.118c0.297,0.369,0.757,0.412,1.076,0.412 c0.004,0,0.008,0,0.012,0c0.865,0,1.7-0.172,2.501-0.434c1.08,0.465,2.271,0.727,3.449,0.755c0.063,0.001,0.123,0.002,0.182,0.002 c0.443,0,0.796-0.04,1.128-0.125c0.467-0.122,0.929-0.348,1.413-0.692c1.516-1.082,2.427-2.701,3.308-4.267 c0.443-0.788,0.902-1.604,1.427-2.323c0.027-0.037,0.059-0.073,0.086-0.11C40.368,28.297,40.244,29.233,40.03,30.15z M45.862,17.614c-0.058,0.802-0.616,1.505-1.207,2.249c-0.317,0.398-0.644,0.812-0.904,1.255c-0.616,1.053-1.253,2.142-2.004,3.107 c-0.306,0.394-0.632,0.771-0.959,1.147c-0.415,0.48-0.845,0.977-1.231,1.506c-0.56,0.768-1.033,1.609-1.491,2.423 c-0.865,1.538-1.682,2.99-3.017,3.942c-0.382,0.272-0.736,0.448-1.083,0.538c-0.282,0.074-0.6,0.102-1.036,0.092 c-0.693-0.017-1.389-0.132-2.06-0.321c0.954-0.448,1.845-0.978,2.645-1.461l2.892-1.745c0.138-0.083,0.228-0.228,0.24-0.389 c0.013-0.16-0.053-0.317-0.176-0.422c-0.17-0.142-0.402-0.188-0.624-0.123c-0.189,0.057-0.341,0.188-0.421,0.357L33,31.236 c-1.71,1.032-3.838,2.316-6.043,2.316c-0.211-0.014-0.3-0.035-0.306-0.035c-0.019-0.049,0.011-0.225,0.028-0.33 c0.036-0.215,0.07-0.481,0.006-0.756c0.219-0.055,0.438-0.113,0.653-0.173c1.42-0.397,2.889-0.808,4.255-1.468 c1.583-0.763,2.791-1.751,3.588-2.939c0.154-0.229,0.093-0.539-0.136-0.693c-0.23-0.154-0.541-0.094-0.694,0.137 c-0.697,1.038-1.771,1.911-3.192,2.596c-1.287,0.621-2.712,1.02-4.098,1.407c-0.211,0.059-0.425,0.116-0.639,0.171 c-0.133-0.266-0.324-0.499-0.583-0.649c-0.239-0.14-0.545-0.058-0.683,0.182c-0.134,0.232-0.059,0.522,0.163,0.667 c-0.093,0.008-0.187,0.021-0.28,0.023c-0.355,0.013-0.726-0.035-1.079-0.127c-0.224-0.06-0.374-0.172-0.393-0.191 c0.005-0.014,0.037-0.067,0.213-0.189c0.939-0.644,2.007-1.055,3.138-1.49c1.299-0.501,2.643-1.019,3.772-1.921 c0.575-0.459,1.087-1.128,1.54-1.719c0.151-0.196,0.297-0.388,0.441-0.564c0.152-0.188,0.149-0.457-0.008-0.641 c-0.157-0.183-0.422-0.228-0.631-0.107c-2.375,1.377-4.843,2.342-7.108,3.098c-0.038-0.331-0.153-0.654-0.355-0.919 c-0.167-0.22-0.48-0.262-0.701-0.094c-0.22,0.167-0.262,0.481-0.094,0.701c0.135,0.175,0.188,0.416,0.156,0.636 c-0.273,0.087-0.546,0.173-0.81,0.254c-0.288,0.089-0.585,0.168-0.775,0.085c-0.191-0.085-0.299-0.406-0.231-0.688 c0.09-0.372,0.391-0.701,0.674-0.974c0.885-0.855,2.13-1.408,3.448-1.992c0.75-0.333,1.508-0.678,2.213-1.083 c0.005-0.004,0.012-0.006,0.017-0.011c0.602-0.347,1.166-0.737,1.637-1.221c0.923-0.949,0.886-2.513,0.856-3.769l-0.008-0.36 c-0.023-1.407-1.141-2.98-2.709-2.989c-0.551-0.007-1.094,0.197-1.588,0.393c-0.167,0.065-0.335,0.132-0.504,0.188l-0.176,0.06 c-0.79,0.271-0.975,0.242-1.069,0.063c0.003-0.65,0.668-1.233,1.237-1.615c0.823-0.552,1.466-1.171,1.959-1.89 c0.443-0.067,0.958-0.028,1.563,0.112l3.986,0.935c0.308,0.073,0.599,0.142,0.864,0.249c0.154,0.063,0.302,0.14,0.45,0.216 c0.108,0.056,0.217,0.111,0.327,0.162c1.749,0.824,3.978,0.678,5.817-0.379c0.153-0.088,0.308-0.182,0.464-0.277 c0.747-0.455,1.451-0.888,2.103-0.686c0.298,0.091,0.591,0.327,0.923,0.742C45.604,14.952,45.971,16.09,45.862,17.614z M28.824,17.941c-0.02-0.517-0.04-1.072-0.022-1.387c0.669,0.312,1.135,1.121,1.147,1.866l0.008,0.368 c0.025,1.069,0.058,2.4-0.573,3.048c-0.187,0.192-0.4,0.361-0.619,0.526C28.926,20.672,28.868,19.069,28.824,17.941z"/></svg>