<svg xmlns="http://www.w3.org/2000/svg" viewBox="0 0 128 128"><path fill="#D3EEF4" d="M56.2,57.9v-7.6c0-4.2,3.5-7.6,7.8-7.6h0c4.3,0,7.8,3.4,7.8,7.6v7.6"/><path fill="#FFF" d="M61.8,54.2c-1.7,0-3-1.4-3-3c0-3.3,2.8-6,6.1-6c1.7,0,3,1.3,3,3s-1.3,3-3,3c-0.1,0-0.1,0.1-0.1,0.1C64.8,52.8,63.4,54.2,61.8,54.2z"/><path fill="#D3EEF4" d="M103.4 85.3H24.6c-4.2 0-7.6-3.4-7.6-7.6v0c0-4.2 3.4-7.6 7.6-7.6h78.8c4.2 0 7.6 3.4 7.6 7.6v0C111 81.9 107.6 85.3 103.4 85.3zM32.7 70.1C46.6 54 81.4 54 95.3 70.1"/><path fill="#FFF" d="M47.9,69.3c-1.2,0-2.4-0.7-2.8-1.9c-0.6-1.6,0.2-3.3,1.8-3.9c5.1-1.9,11.1-3,17.2-3c1.7,0,3,1.3,3,3s-1.3,3-3,3c-5.4,0-10.6,0.9-15.1,2.6C48.6,69.2,48.2,69.3,47.9,69.3z"/><path fill="#454B54" d="M95.3,73.1c-0.8,0-1.7-0.4-2.3-1c-6-6.9-16.8-11-29.1-11s-23.1,4.1-29.1,11c-1.1,1.3-3,1.4-4.2,0.3c-1.3-1.1-1.4-3-0.3-4.2C37.5,60,50,55.1,64,55.1S90.5,60,97.6,68.2c1.1,1.3,0.9,3.1-0.3,4.2C96.7,72.9,96,73.1,95.3,73.1z"/><path fill="#454B54" d="M71.8 60.9c-1.7 0-3-1.3-3-3v-7.6c0-2.5-2.2-4.6-4.8-4.6s-4.8 2.1-4.8 4.6v7.6c0 1.7-1.3 3-3 3s-3-1.3-3-3v-7.6c0-5.8 4.9-10.6 10.8-10.6s10.8 4.8 10.8 10.6v7.6C74.8 59.5 73.5 60.9 71.8 60.9zM103.4 88.3H24.6c-5.8 0-10.6-4.8-10.6-10.6 0-5.8 4.8-10.6 10.6-10.6h78.8c5.8 0 10.6 4.8 10.6 10.6C114 83.6 109.2 88.3 103.4 88.3zM24.6 73.1c-2.5 0-4.6 2.1-4.6 4.6 0 2.5 2.1 4.6 4.6 4.6h78.8c2.5 0 4.6-2.1 4.6-4.6 0-2.5-2.1-4.6-4.6-4.6H24.6z"/><g><path fill="#FFF" d="M22.6,81.6c-1.7,0-3-1.4-3-3c0-3.3,2.8-6,6.1-6c1.7,0,3,1.3,3,3s-1.3,3-3,3c-0.1,0-0.1,0.1-0.1,0.1C25.6,80.3,24.3,81.6,22.6,81.6z"/></g></svg>