<?xml version="1.0"?><svg xmlns="http://www.w3.org/2000/svg" viewBox="0 0 128 128">    <path d="M 47.5 9 C 47.4 9 47.299219 8.9996094 47.199219 9.0996094 C 47.099219 9.0996094 47 9.0992188 47 9.1992188 C 46.9 9.1992188 46.799219 9.3007812 46.699219 9.3007812 C 46.599219 9.3007812 46.5 9.4003906 46.5 9.4003906 C 46.4 9.5003906 46.299219 9.4996094 46.199219 9.5996094 L 46 9.8007812 C 45.9 9.9007812 45.800781 9.9996094 45.800781 10.099609 L 45.699219 10.199219 L 40.199219 17.800781 L 28.599609 22.099609 C 23.399609 23.999609 20 28.900391 20 34.400391 L 20 98.099609 C 20 103.79961 23.6 108.7 29 110.5 L 53.099609 118.30078 C 53.399609 118.40078 53.7 118.40039 54 118.40039 C 54.8 118.40039 55.499609 118.1 56.099609 117.5 L 64 109.59961 L 71.900391 117.5 C 72.500391 118.1 73.2 118.40039 74 118.40039 C 74.3 118.40039 74.7 118.29922 75 118.19922 L 98.199219 110.09961 C 103.99922 108.59961 108 103.5 108 97.5 L 108 34.400391 C 108 29.000391 104.6 24.099219 99.5 22.199219 L 87.900391 17.900391 L 82.400391 10.300781 C 82.300391 10.100781 82.100391 10.000781 81.900391 9.8007812 C 81.800391 9.8007812 81.799219 9.6992188 81.699219 9.6992188 C 81.599219 9.5992188 81.500781 9.5 81.300781 9.5 C 81.200781 9.5 81.099609 9.4003906 81.099609 9.4003906 C 80.999609 9.3003906 80.799219 9.3007813 80.699219 9.3007812 C 80.599219 9.3007812 80.500391 9.2992188 80.400391 9.1992188 L 80.199219 9.1992188 L 80 9.1992188 C 80.1 8.9992187 80 9 80 9 L 48 9 L 47.800781 9 L 47.599609 9 L 47.5 9 z M 56.5 15 L 71.5 15 L 64 21.099609 L 56.5 15 z M 48.599609 16.300781 L 59.900391 25.5 L 56.199219 30.400391 L 45.900391 20.099609 L 48.599609 16.300781 z M 79.400391 16.300781 L 82.099609 20.099609 L 71.800781 30.400391 L 68.099609 25.5 L 79.400391 16.300781 z M 41.300781 23.900391 L 54.400391 37.099609 C 55.000391 37.699609 55.7 38 56.5 38 L 56.699219 38 C 57.599219 37.9 58.400391 37.500781 58.900391 36.800781 L 64 30 L 69.099609 36.800781 C 69.599609 37.500781 70.400781 37.9 71.300781 38 L 71.5 38 C 72.3 38 73.099609 37.699609 73.599609 37.099609 L 86.699219 23.900391 L 97.300781 27.800781 C 100.00078 28.800781 101.90039 31.400391 101.90039 34.400391 L 101.90039 97.5 L 102 97.5 C 102 100.7 99.799219 103.50078 96.699219 104.30078 C 96.599219 104.30078 96.500391 104.40039 96.400391 104.40039 L 74.800781 111.90039 L 67 104.09961 L 67 38 C 67 36.3 65.7 35 64 35 C 62.3 35 61 36.3 61 38 L 61 104.09961 L 53.199219 111.90039 L 30.900391 104.69922 C 28.000391 103.79922 26.099609 101.1 26.099609 98 L 26.099609 34.400391 C 26.099609 31.500391 27.899219 28.800781 30.699219 27.800781 L 41.300781 23.900391 z M 37 45.699219 C 35.3 45.699219 34 46.999219 34 48.699219 L 34 60.800781 C 34 61.900781 34.599219 63 35.699219 63.5 L 42.699219 67 C 43.499219 67.4 44.500391 67.4 45.400391 67 L 52.400391 63.5 C 53.400391 63 54.099609 62.000781 54.099609 60.800781 L 54.099609 48.699219 C 53.999609 46.999219 52.7 45.699219 51 45.699219 L 37 45.699219 z M 77 45.699219 C 75.3 45.699219 74 46.999219 74 48.699219 L 74 60.800781 C 74 61.900781 74.599219 63 75.699219 63.5 L 82.699219 67 C 83.499219 67.4 84.500391 67.4 85.400391 67 L 92.400391 63.5 C 93.400391 63 94.099609 62.000781 94.099609 60.800781 L 94.099609 48.699219 C 93.999609 46.999219 92.7 45.699219 91 45.699219 L 77 45.699219 z"/></svg>