<svg xmlns="http://www.w3.org/2000/svg" viewBox="0 0 24 24"><path d="M 11.601563 0 C 13.300781 -0.101563 15.601563 1.398438 16 7 C 16.199219 9.5 15.398438 11.398438 14.898438 13 C 14.699219 13.601563 14.398438 13.898438 13.898438 13.800781 C 12.398438 13.398438 10 13.601563 8.398438 13.898438 C 8 14 7.699219 13.699219 7.699219 13.300781 C 5.398438 2.898438 9.898438 0.101563 11.601563 0 Z M 8.398438 17.5 C 8.398438 17.5 8.398438 18.5 8.601563 20.101563 C 8.898438 22.699219 10.300781 24.300781 12.398438 24 C 14.898438 23.601563 15.5 21.800781 15.199219 19.199219 C 15 17.601563 14.699219 16.699219 14.699219 16.699219 Z"/></svg>