<?xml version="1.0"?><svg xmlns="http://www.w3.org/2000/svg" viewBox="0 0 30 30">    <path d="M 11.982422 2.9882812 A 1.0001 1.0001 0 0 0 11.119141 3.5273438 C 10.969681 3.8066332 10.547781 4.0977381 10.525391 4.1132812 C 9.5913572 4.1684238 8.36887 4.332141 7.0507812 4.9472656 C 6.301743 5.2968262 5.5661352 5.7639083 4.9863281 6.4277344 C 4.4065211 7.0915604 4 7.9854546 4 9 C 4 10.384337 4.2261866 11.258238 4.3984375 11.802734 C 3.9856105 12.302861 3.2525996 13.291849 3.0117188 14.847656 A 1.0001 1.0001 0 1 0 4.9882812 15.152344 C 5.1806504 13.909865 6.2363281 12.677734 6.2363281 12.677734 A 1.0001 1.0001 0 0 0 6.4179688 11.601562 C 6.4179688 11.601562 6 10.665429 6 9 C 6 8.4865454 6.166682 8.1168146 6.4921875 7.7441406 C 6.7468954 7.4525235 7.1290013 7.1908726 7.5507812 6.9570312 C 8.6446586 9.0668539 11.31011 11 15 11 C 18.68989 11 21.355341 9.0668539 22.449219 6.9570312 C 22.870998 7.1908726 23.253105 7.4525235 23.507812 7.7441406 C 23.833319 8.1168146 24 8.4865454 24 9 C 24 10.665429 23.582031 11.601564 23.582031 11.601562 A 1.0001 1.0001 0 0 0 23.763672 12.677734 C 23.763672 12.677734 24.81935 13.909865 25.011719 15.152344 A 1.0001 1.0001 0 1 0 26.988281 14.847656 C 26.7474 13.291849 26.014389 12.302861 25.601562 11.802734 C 25.773813 11.258238 26 10.384337 26 9 C 26 7.9854546 25.593479 7.0915604 25.013672 6.4277344 C 24.433865 5.7639083 23.698257 5.2968262 22.949219 4.9472656 C 21.63113 4.332141 20.408642 4.1684238 19.474609 4.1132812 C 19.452219 4.097738 19.030319 3.8066333 18.880859 3.5273438 A 1.0001 1.0001 0 0 0 17.986328 2.9882812 A 1.0001 1.0001 0 0 0 17.849609 3 L 15 3 L 12.152344 3 A 1.0001 1.0001 0 0 0 11.982422 2.9882812 z M 9.0351562 15 A 1.0001 1.0001 0 0 0 8.2285156 15.363281 C 8.2285156 15.363281 7.1213528 16.631099 5.7207031 17.039062 A 1.0007041 1.0007041 0 1 0 6.2792969 18.960938 C 7.1179891 18.716653 7.7104172 18.277096 8.2714844 17.871094 C 8.3566581 18.393747 8.5 18.707833 8.5 19.509766 C 8.5 19.919056 8.3934254 20.524033 8.2695312 21.138672 C 8.1456372 21.753311 8 22.364225 8 23 C 8 23.885492 8.1521741 25.410887 9.2480469 26.660156 A 1.0006195 1.0006195 0 0 0 10.751953 25.339844 C 10.161826 24.667113 10 23.604508 10 23 C 10 22.733775 10.104363 22.158814 10.230469 21.533203 C 10.356575 20.907592 10.5 20.217475 10.5 19.509766 C 10.5 17.772905 10.25956 16.575053 9.9453125 15.671875 A 1.0001 1.0001 0 0 0 9.0351562 15 z M 20.980469 15 A 1.0001 1.0001 0 0 0 20.054688 15.671875 C 19.74044 16.575053 19.5 17.772905 19.5 19.509766 C 19.5 20.217475 19.643425 20.907592 19.769531 21.533203 C 19.895637 22.158814 20 22.733775 20 23 C 20 23.604508 19.838174 24.667113 19.248047 25.339844 A 1.0006194 1.0006194 0 0 0 20.751953 26.660156 C 21.847826 25.410887 22 23.885492 22 23 C 22 22.364225 21.854363 21.753311 21.730469 21.138672 C 21.606575 20.524033 21.5 19.919056 21.5 19.509766 C 21.5 18.707833 21.643342 18.393747 21.728516 17.871094 C 22.289583 18.277096 22.882011 18.716653 23.720703 18.960938 A 1.0007041 1.0007041 0 1 0 24.279297 17.039062 C 22.878647 16.6311 21.771484 15.363281 21.771484 15.363281 A 1.0001 1.0001 0 0 0 20.980469 15 z"/></svg>