<?xml version="1.0"?><svg xmlns="http://www.w3.org/2000/svg" viewBox="0 0 128 128">    <path d="M63.5,117c0.2,0,0.3,0,0.5,0c0.2,0,0.3,0,0.5,0c15.1-2.5,26.1-15.5,26.1-30.8V69c0-1.7-1.3-3-3-3H73.3V20.3 c0-5-3.9-9.1-8.7-9.2c-2.5-0.1-4.8,0.8-6.5,2.5c-1.8,1.7-2.7,4-2.7,6.5v40c0,1.7,1.3,3,3,3s3-1.3,3-3V20c0-0.8,0.3-1.6,0.9-2.2 c0.6-0.6,1.4-0.9,2.2-0.8c1.6,0,2.9,1.5,2.9,3.2V63H64v16l0,0c0,0.3,0,0.5,0,0.8v14.6c0,7.1-6.2,11.3-11.9,10.8 c-5.3-4.6-8.6-11.5-8.6-19V79c0-1.7-1.3-3-3-3s-3,1.3-3,3v7.2C37.4,101.5,48.4,114.4,63.5,117z M40.4,72h14.9c1.7,0,3-1.3,3-3 s-1.3-3-3-3H40.4c-1.7,0-3,1.3-3,3S38.8,72,40.4,72z"/></svg>