<svg xmlns="http://www.w3.org/2000/svg" viewBox="0 0 16 16"><path d="M 8.46875 -0.0078125 C 8.285156 0.0078125 8.125 0.117188 8.046875 0.28125 C 8.046875 0.28125 7.886719 0.628906 7.628906 1.035156 C 7.375 1.4375 7.019531 1.886719 6.75 2.078125 C 5.695313 2.539063 5 3.585938 5 4.75 L 4.976563 10.25 C 4.976563 10.253906 4.976563 10.253906 4.976563 10.253906 C 4.976563 11.429688 5.691406 12.492188 6.773438 12.945313 C 7.039063 13.140625 7.382813 13.570313 7.628906 13.964844 C 7.886719 14.371094 8.046875 14.71875 8.046875 14.71875 C 8.167969 14.964844 8.46875 15.070313 8.71875 14.953125 C 8.964844 14.832031 9.070313 14.53125 8.953125 14.28125 C 8.953125 14.28125 8.761719 13.894531 8.476563 13.433594 C 8.386719 13.292969 8.273438 13.144531 8.171875 13 L 9.191406 13 L 10.050781 14.722656 C 10.128906 14.890625 10.289063 15.003906 10.472656 15.015625 C 10.65625 15.03125 10.832031 14.945313 10.929688 14.789063 C 11.027344 14.632813 11.035156 14.4375 10.949219 14.277344 L 10 12.382813 L 10 2.617188 L 10.949219 0.722656 C 11.03125 0.5625 11.019531 0.371094 10.921875 0.222656 C 10.824219 0.0703125 10.65625 -0.015625 10.476563 -0.0078125 C 10.292969 0.00390625 10.132813 0.113281 10.050781 0.277344 L 9.191406 2 L 8.171875 2 C 8.273438 1.855469 8.386719 1.707031 8.476563 1.566406 C 8.761719 1.105469 8.953125 0.714844 8.953125 0.71875 C 9.03125 0.554688 9.019531 0.363281 8.917969 0.214844 C 8.820313 0.0664063 8.648438 -0.0195313 8.46875 -0.0078125 Z M 7.164063 3 L 9 3 L 9 12 L 7.140625 12 C 6.441406 11.695313 5.980469 11.019531 5.976563 10.253906 L 6 4.75 C 6 3.980469 6.464844 3.304688 7.164063 3 Z M 7.5 6.5 C 6.949219 6.5 6.5 6.949219 6.5 7.5 C 6.5 8.050781 6.949219 8.5 7.5 8.5 C 8.050781 8.5 8.5 8.050781 8.5 7.5 C 8.5 6.949219 8.050781 6.5 7.5 6.5 Z"/></svg>