<svg xmlns="http://www.w3.org/2000/svg" width="48" height="48" viewBox="0 0 48 48"><path fill="#546e7a" d="M48,36H0l7-25h34L48,36z"/><path fill="#a1887f" d="M48,32H29L27,7h13L48,32z"/><polygon fill="#bcaaa4" points="30.166,23 45.12,23 44.48,21 30.166,21"/><polygon fill="#bcaaa4" points="28.045,13 41.92,13 41.28,11 28.045,11"/><polygon fill="#90a4ae" points="24,7 29,7 35,32 29,32"/><rect width="6" height="4" x="29" y="32" fill="#78909c"/><rect width="13" height="4" x="35" y="32" fill="#8d6e63"/><polygon fill="#b0bec5" points="24,7 29,32 29,36 28,36 24,11"/></svg>