<svg xmlns="http://www.w3.org/2000/svg" viewBox="0 0 26 26"><path d="M 2 4 L 2 5.15625 C 1.570313 5.28125 1.175781 5.46875 0.84375 5.8125 C 0.257813 6.417969 0 7.304688 0 8.3125 C 0 10.21875 1.027344 11.703125 2.4375 12.125 C 3.042969 15.441406 4.558594 18.316406 6.46875 20.375 C 8.523438 22.585938 10.855469 24 13 24 C 15.144531 24 17.511719 22.589844 19.59375 20.375 C 21.535156 18.3125 23.074219 15.429688 23.59375 12.09375 C 24.210938 11.890625 24.773438 11.546875 25.15625 11.03125 C 25.703125 10.296875 26 9.359375 26 8.3125 C 26 7.304688 25.742188 6.417969 25.15625 5.8125 C 24.824219 5.46875 24.429688 5.28125 24 5.15625 L 24 4 L 22 4 L 22 6 C 22 6.550781 22.449219 7 23 7 C 23.433594 7 23.605469 7.097656 23.71875 7.21875 C 23.832031 7.339844 24 7.621094 24 8.3125 C 24 8.964844 23.816406 9.503906 23.5625 9.84375 C 23.308594 10.183594 23.050781 10.3125 22.8125 10.3125 C 22.304688 10.308594 21.875 10.683594 21.8125 11.1875 C 21.488281 14.332031 19.976563 17.066406 18.15625 19 C 16.335938 20.933594 14.15625 22 13 22 C 11.84375 22 9.734375 20.96875 7.9375 19.03125 C 6.140625 17.09375 4.605469 14.320313 4.1875 11.15625 C 4.109375 10.664063 3.683594 10.304688 3.1875 10.3125 C 2.988281 10.3125 2 9.667969 2 8.3125 C 2 7.621094 2.167969 7.339844 2.28125 7.21875 C 2.394531 7.097656 2.566406 7 3 7 C 3.550781 7 4 6.550781 4 6 L 4 4 Z M 9 4 C 7.894531 4 7 4.894531 7 6 C 7 7.105469 7.894531 8 9 8 C 10.105469 8 11 7.105469 11 6 C 11 4.894531 10.105469 4 9 4 Z M 17 4 C 15.894531 4 15 4.894531 15 6 C 15 7.105469 15.894531 8 17 8 C 18.105469 8 19 7.105469 19 6 C 19 4.894531 18.105469 4 17 4 Z M 8.8125 12 L 7.90625 14 L 10.21875 15 L 7.90625 16 L 8.8125 18 L 18.09375 14 L 17.1875 12 L 13.03125 13.78125 Z M 16.8125 15.40625 L 14 16.59375 L 17.1875 18 L 18.09375 16 Z"/></svg>