<svg xmlns="http://www.w3.org/2000/svg" viewBox="0 0 26 26"><path d="M 21.3125 0 C 21.414063 0.5 21.6875 1.3125 21.6875 1.8125 C 22.386719 1.8125 23.40625 2.8125 23.40625 2.8125 C 23.40625 2.8125 23.011719 0.699219 21.3125 0 Z M 15.09375 0.59375 C 13.394531 2.394531 14.1875 4.90625 14.1875 4.90625 C 14.1875 4.90625 14.710938 3.710938 15.8125 2.8125 C 15.511719 2.210938 15.195313 1.195313 15.09375 0.59375 Z M 19.6875 2.5 C 16.789063 2.5 14.40625 4.707031 14.40625 7.40625 C 14.40625 8.992188 15.300781 10.390625 16.65625 11.21875 C 16.25 11.816406 16 12.472656 16 13.1875 C 16 13.6875 16.105469 14.3125 16.40625 14.8125 C 16.207031 15.113281 15.914063 15.386719 15.8125 15.6875 C 15.613281 16.085938 15.5 16.601563 15.5 17 C 14.800781 17.101563 14.09375 17.398438 13.59375 18 C 13.492188 18.199219 13.289063 18.394531 13.1875 18.59375 C 12.488281 18.394531 11.792969 18.394531 11.09375 18.59375 C 10.59375 18.792969 10.207031 19.007813 9.90625 19.40625 C 9.507813 19.007813 9.007813 18.789063 8.40625 18.6875 C 7.90625 18.585938 7.3125 18.792969 6.8125 19.09375 C 6.511719 18.59375 6.101563 18.195313 5.5 18.09375 C 5.101563 17.992188 4.710938 18 4.3125 18 C 4.210938 17.601563 3.992188 17.292969 3.59375 17.09375 C 3.09375 16.792969 2.613281 16.898438 2.3125 17 C 2.113281 16.699219 1.511719 16.199219 0.8125 16 C 0.3125 16.398438 0 17.09375 0 17.59375 C 0 18.09375 0.09375 18.40625 0.09375 18.40625 C 0.09375 18.40625 0.507813 17.789063 0.90625 17.6875 C 0.0078125 19.1875 0.707031 20.914063 1.40625 21.3125 C 1.605469 20.210938 1.988281 19.710938 2.6875 19.3125 C 1.1875 22.011719 3.710938 23.988281 4.8125 24.1875 C 4.210938 23.085938 4.789063 21.707031 5.1875 21.40625 C 4.886719 23.804688 7.292969 26.1875 9.59375 25.6875 C 8.792969 24.886719 8.3125 23.507813 8.8125 22.40625 C 9.113281 23.707031 10.300781 26 13 26 C 14.199219 26 15.207031 25.789063 15.90625 25.6875 C 14.605469 25.386719 13.695313 23.8125 13.59375 22.8125 C 15.195313 25.113281 19.886719 26.414063 21.6875 22.8125 C 20.289063 22.710938 17.707031 21.386719 17.40625 20.6875 C 18.304688 21.1875 24.414063 23.105469 24.8125 17.40625 C 22.8125 18.105469 20.707031 17.59375 19.90625 17.09375 C 22.605469 17.09375 25.90625 16.300781 25.90625 13 C 25.90625 12.101563 25.585938 11.101563 25.1875 10.5 C 25.1875 10.5 22.511719 12.886719 19.8125 12.1875 C 19.777344 12.152344 19.867188 12.078125 20 11.96875 C 22.753906 11.726563 25 9.597656 25 7.09375 C 25 4.492188 22.585938 2.398438 19.6875 2.5 Z M 22.09375 3.59375 C 22.59375 3.59375 23.3125 4.207031 23.8125 4.90625 C 24.3125 5.605469 24.210938 6.1875 23.8125 6.1875 C 23.3125 6.1875 22.59375 5.605469 22.09375 4.90625 C 21.59375 4.207031 21.695313 3.59375 22.09375 3.59375 Z M 17.65625 4.3125 C 17.84375 4.304688 18.011719 4.332031 18.1875 4.40625 C 18.886719 4.804688 18.992188 5.699219 18.59375 6.5 C 18.195313 7.300781 17.292969 7.707031 16.59375 7.40625 C 15.894531 7.105469 15.789063 6.113281 16.1875 5.3125 C 16.488281 4.710938 17.089844 4.335938 17.65625 4.3125 Z"/></svg>