<svg xmlns="http://www.w3.org/2000/svg" viewBox="0 0 80 80"><path d="M 40 6 A 1 1 0 0 0 39 7 A 1 1 0 0 0 40 8 A 1 1 0 0 0 41 7 A 1 1 0 0 0 40 6 z M 10 10 L 10 68 L 37 68 L 37 66 L 12 66 L 12 12 L 37 12 L 37 10 L 10 10 z M 40 10 A 1 1 0 0 0 39 11 A 1 1 0 0 0 40 12 A 1 1 0 0 0 41 11 A 1 1 0 0 0 40 10 z M 43 10 L 43 12 L 68 12 L 68 66 L 43 66 L 43 68 L 70 68 L 70 10 L 43 10 z M 40 14 A 1 1 0 0 0 39 15 A 1 1 0 0 0 40 16 A 1 1 0 0 0 41 15 A 1 1 0 0 0 40 14 z M 32 18 C 30.35503 18 29 19.35503 29 21 L 29 22 L 29.416016 22 C 29.85942 23.106694 30.743378 24 32 24 L 37 24 L 37 22 L 32 22 C 31.43497 22 31 21.56503 31 21 C 31 20.43497 31.43497 20 32 20 L 37 20 L 37 18 L 32 18 z M 40 18 A 1 1 0 0 0 39 19 A 1 1 0 0 0 40 20 A 1 1 0 0 0 41 19 A 1 1 0 0 0 40 18 z M 43 18 L 43 20 L 48 20 C 48.56503 20 49 20.43497 49 21 C 49 21.56503 48.56503 22 48 22 L 43 22 L 43 24 L 48 24 C 49.256622 24 50.14058 23.106694 50.583984 22 L 51 22 L 51 21 C 51 19.35503 49.64497 18 48 18 L 43 18 z M 40 22 A 1 1 0 0 0 39 23 A 1 1 0 0 0 40 24 A 1 1 0 0 0 41 23 A 1 1 0 0 0 40 22 z M 40 26 A 1 1 0 0 0 39 27 A 1 1 0 0 0 40 28 A 1 1 0 0 0 41 27 A 1 1 0 0 0 40 26 z M 40 30 A 1 1 0 0 0 39 31 A 1 1 0 0 0 40 32 A 1 1 0 0 0 41 31 A 1 1 0 0 0 40 30 z M 40 34 A 1 1 0 0 0 39 35 A 1 1 0 0 0 40 36 A 1 1 0 0 0 41 35 A 1 1 0 0 0 40 34 z M 40 38 A 1 1 0 0 0 39 39 A 1 1 0 0 0 40 40 A 1 1 0 0 0 41 39 A 1 1 0 0 0 40 38 z M 40 42 A 1 1 0 0 0 39 43 A 1 1 0 0 0 40 44 A 1 1 0 0 0 41 43 A 1 1 0 0 0 40 42 z M 40 46 A 1 1 0 0 0 39 47 A 1 1 0 0 0 40 48 A 1 1 0 0 0 41 47 A 1 1 0 0 0 40 46 z M 40 50 A 1 1 0 0 0 39 51 A 1 1 0 0 0 40 52 A 1 1 0 0 0 41 51 A 1 1 0 0 0 40 50 z M 40 54 A 1 1 0 0 0 39 55 A 1 1 0 0 0 40 56 A 1 1 0 0 0 41 55 A 1 1 0 0 0 40 54 z M 40 58 A 1 1 0 0 0 39 59 A 1 1 0 0 0 40 60 A 1 1 0 0 0 41 59 A 1 1 0 0 0 40 58 z M 16 60 A 1 1 0 0 0 15 61 A 1 1 0 0 0 16 62 A 1 1 0 0 0 17 61 A 1 1 0 0 0 16 60 z M 20 60 A 1 1 0 0 0 19 61 A 1 1 0 0 0 20 62 A 1 1 0 0 0 21 61 A 1 1 0 0 0 20 60 z M 24 60 A 1 1 0 0 0 23 61 A 1 1 0 0 0 24 62 A 1 1 0 0 0 25 61 A 1 1 0 0 0 24 60 z M 28 60 A 1 1 0 0 0 27 61 A 1 1 0 0 0 28 62 A 1 1 0 0 0 29 61 A 1 1 0 0 0 28 60 z M 32 60 A 1 1 0 0 0 31 61 A 1 1 0 0 0 32 62 A 1 1 0 0 0 33 61 A 1 1 0 0 0 32 60 z M 36 60 A 1 1 0 0 0 35 61 A 1 1 0 0 0 36 62 A 1 1 0 0 0 37 61 A 1 1 0 0 0 36 60 z M 44 60 A 1 1 0 0 0 43 61 A 1 1 0 0 0 44 62 A 1 1 0 0 0 45 61 A 1 1 0 0 0 44 60 z M 48 60 A 1 1 0 0 0 47 61 A 1 1 0 0 0 48 62 A 1 1 0 0 0 49 61 A 1 1 0 0 0 48 60 z M 52 60 A 1 1 0 0 0 51 61 A 1 1 0 0 0 52 62 A 1 1 0 0 0 53 61 A 1 1 0 0 0 52 60 z M 56 60 A 1 1 0 0 0 55 61 A 1 1 0 0 0 56 62 A 1 1 0 0 0 57 61 A 1 1 0 0 0 56 60 z M 60 60 A 1 1 0 0 0 59 61 A 1 1 0 0 0 60 62 A 1 1 0 0 0 61 61 A 1 1 0 0 0 60 60 z M 64 60 A 1 1 0 0 0 63 61 A 1 1 0 0 0 64 62 A 1 1 0 0 0 65 61 A 1 1 0 0 0 64 60 z M 40 62 A 1 1 0 0 0 39 63 A 1 1 0 0 0 40 64 A 1 1 0 0 0 41 63 A 1 1 0 0 0 40 62 z M 40 66 A 1 1 0 0 0 39 67 A 1 1 0 0 0 40 68 A 1 1 0 0 0 41 67 A 1 1 0 0 0 40 66 z M 40 70 A 1 1 0 0 0 39 71 A 1 1 0 0 0 40 72 A 1 1 0 0 0 41 71 A 1 1 0 0 0 40 70 z"/></svg>