<svg xmlns="http://www.w3.org/2000/svg" viewBox="0 0 64 64"><linearGradient id="rxibPZnz69nkrKHEfNtlAa" x1="32" x2="32" y1="12" y2="53" gradientUnits="userSpaceOnUse" spreadMethod="reflect"><stop offset="0" stop-color="#1a6dff"/><stop offset="1" stop-color="#c822ff"/></linearGradient><path fill="none" stroke="url(#rxibPZnz69nkrKHEfNtlAa)" stroke-miterlimit="10" stroke-width="2" d="M57,16.445V48.49c0,1.95-1.5,3.51-3.38,3.51 H10.38C8.5,52,7,50.44,7,48.36V16.445C7,14.495,8.533,13,10.413,13h7.12C19.457,13,21,14.354,21,16.25V21h22v-4.75 c0-1.896,1.522-3.25,3.446-3.25h7.141C55.467,13,57,14.148,57,16.445z"/><linearGradient id="rxibPZnz69nkrKHEfNtlAb" x1="43.5" x2="43.5" y1="28" y2="43" gradientUnits="userSpaceOnUse" spreadMethod="reflect"><stop offset="0" stop-color="#6dc7ff"/><stop offset="1" stop-color="#e6abff"/></linearGradient><path fill="url(#rxibPZnz69nkrKHEfNtlAb)" d="M43.5 28A7.5 7.5 0 1 0 43.5 43A7.5 7.5 0 1 0 43.5 28Z"/><linearGradient id="rxibPZnz69nkrKHEfNtlAc" x1="20.5" x2="20.5" y1="28" y2="43" gradientUnits="userSpaceOnUse" spreadMethod="reflect"><stop offset="0" stop-color="#6dc7ff"/><stop offset="1" stop-color="#e6abff"/></linearGradient><path fill="url(#rxibPZnz69nkrKHEfNtlAc)" d="M20.5 28A7.5 7.5 0 1 0 20.5 43A7.5 7.5 0 1 0 20.5 28Z"/></svg>