<svg xmlns="http://www.w3.org/2000/svg" viewBox="0 0 26 26"><path d="M 0.84375 0 C 0.5625 0.0429688 0.3125 0.203125 0.15625 0.441406 C 0.00390625 0.683594 -0.0429688 0.976563 0.03125 1.25 L 1.03125 5.25 C 1.101563 5.535156 1.296875 5.777344 1.5625 5.90625 L 5 7.625 L 5 12 L 7 13 L 4.5 13 C 2.714844 13 1.269531 14.289063 1.03125 16 C 0.769531 15.992188 0.519531 16.105469 0.3125 16.3125 C -0.0859375 16.710938 0 18 0 18 C 0 18 1.289063 18.085938 1.6875 17.6875 C 1.886719 17.488281 2 17.25 2 17 L 2 16.5 C 2 15.054688 3.054688 14 4.5 14 L 5 14 L 5 26 L 6 25.40625 L 7 26 L 7 16 L 8.34375 16 L 9.90625 19 L 7.8125 24.3125 L 8.90625 24 L 9.59375 25 L 11.90625 19.3125 C 12.007813 19.011719 12.007813 18.699219 11.90625 18.5 L 10 14.78125 L 10 10.5625 L 11.15625 12.5 C 11.332031 12.800781 11.652344 12.992188 12 13 L 16 13 C 16.359375 13.003906 16.695313 12.816406 16.878906 12.503906 C 17.058594 12.191406 17.058594 11.808594 16.878906 11.496094 C 16.695313 11.183594 16.359375 10.996094 16 11 L 15 11 L 15 10 C 15 9.445313 15.445313 9 16 9 L 17 9 C 17.339844 9 17.632813 9.179688 17.8125 9.4375 C 17.839844 9.492188 17.871094 9.542969 17.90625 9.59375 C 17.964844 9.71875 18 9.851563 18 10 L 18 13 C 17.996094 13.128906 18.019531 13.253906 18.0625 13.375 L 19.5 17 L 17.25 17 C 17.179688 16.980469 17.105469 16.972656 17.03125 16.96875 C 16.96875 16.972656 16.90625 16.984375 16.84375 17 L 16.1875 17 C 16.054688 16.972656 15.914063 16.972656 15.78125 17 L 15 17 L 15 14 L 13 14 L 13 18 C 13 18.550781 13.449219 19 14 19 L 15 19 L 15 25 C 14.996094 25.359375 15.183594 25.695313 15.496094 25.878906 C 15.808594 26.058594 16.191406 26.058594 16.503906 25.878906 C 16.816406 25.695313 17.003906 25.359375 17 25 L 17 20.25 L 19.09375 24.4375 C 19.335938 24.9375 19.9375 25.148438 20.4375 24.90625 C 20.9375 24.664063 21.148438 24.0625 20.90625 23.5625 L 18.625 19 L 21 19 C 21.335938 19.003906 21.648438 18.839844 21.835938 18.5625 C 22.023438 18.285156 22.0625 17.933594 21.9375 17.625 L 20 12.78125 L 20 12.3125 L 20.21875 12.59375 C 20.402344 12.84375 20.691406 12.992188 21 13 L 25 13 C 25.359375 13.003906 25.695313 12.816406 25.878906 12.503906 C 26.058594 12.191406 26.058594 11.808594 25.878906 11.496094 C 25.695313 11.183594 25.359375 10.996094 25 11 L 21.46875 11 L 19.625 8.5625 C 19.113281 7.632813 18.125 7 17 7 L 16 7 C 14.355469 7 13 8.355469 13 10 L 13 11 L 12.53125 11 L 9.9375 6.6875 C 9.90625 6.578125 9.84375 6.492188 9.78125 6.40625 C 9.742188 6.351563 9.707031 6.292969 9.65625 6.25 C 9.644531 6.238281 9.636719 6.230469 9.625 6.21875 C 9.613281 6.210938 9.605469 6.195313 9.59375 6.1875 C 9.582031 6.1875 9.574219 6.1875 9.5625 6.1875 C 9.484375 6.136719 9.410156 6.089844 9.3125 6.0625 C 9.28125 6.050781 9.25 6.039063 9.21875 6.03125 C 9.15625 6.015625 9.09375 6.003906 9.03125 6 C 9.019531 6 9.011719 6 9 6 L 6.25 6 L 2.84375 4.3125 L 1.96875 0.75 C 1.84375 0.246094 1.355469 -0.078125 0.84375 0 Z M 5 0 C 5 0 5.011719 0.660156 5.28125 1.375 C 5.109375 1.714844 5 2.09375 5 2.5 C 5 3.878906 6.121094 5 7.5 5 C 8.878906 5 10 3.878906 10 2.5 C 10 2.070313 9.878906 1.667969 9.6875 1.3125 C 9.9375 0.625 10 0 10 0 C 10 0 9.558594 0.21875 9 0.5 C 8.582031 0.191406 8.058594 0 7.5 0 C 6.933594 0 6.417969 0.214844 6 0.53125 C 5.429688 0.242188 5 0 5 0 Z M 16.5 1 C 15.101563 1 14 2.101563 14 3.5 C 14 4.898438 15.101563 6 16.5 6 C 18 6 21 3.5 21 3.5 C 21 3.5 18 1 16.5 1 Z"/></svg>