<svg xmlns="http://www.w3.org/2000/svg" viewBox="0 0 48 48"><linearGradient id="TqL0Nmg1MPuSWcIZgsPOma" x1="-46.621" x2="-61.078" y1="10.169" y2="18.42" gradientTransform="matrix(1 0 0 -.9876 92.647 42.59)" gradientUnits="userSpaceOnUse"><stop offset="0" stop-color="#c69c6d"/><stop offset=".165" stop-color="#aa8054"/><stop offset=".337" stop-color="#946a40"/><stop offset=".447" stop-color="#8c6239"/><stop offset=".999" stop-color="#331604"/></linearGradient><path fill="url(#TqL0Nmg1MPuSWcIZgsPOma)" d="M37.838,18.092c0,0-0.164,4.838,2.305,10.528c0.853,1.587-0.23,2.235-0.23,2.235	s-7.855,3.077-16.088,2.786c0-3.336,0-21.897,0-21.897l13.832,2.478L37.838,18.092z"/><linearGradient id="TqL0Nmg1MPuSWcIZgsPOmb" x1="-211.617" x2="-197.895" y1="16.892" y2="23.624" gradientTransform="rotate(180 -83.125 24)" gradientUnits="userSpaceOnUse"><stop offset="0" stop-color="#c69c6d"/><stop offset=".165" stop-color="#aa8054"/><stop offset=".337" stop-color="#946a40"/><stop offset=".447" stop-color="#8c6239"/><stop offset=".999" stop-color="#331604"/></linearGradient><path fill="url(#TqL0Nmg1MPuSWcIZgsPOmb)" d="M37.133,29.72c0.623-0.328,0.705-0.836-0.033-2.312c-2.18-5.445-1.886-9.118-1.902-10.43 l0.03-3.19l2.43,0.435l0.18,3.87c0,0-0.164,4.838,2.305,10.528c0.853,1.587-0.23,2.235-0.23,2.235s-7.855,3.077-16.088,2.786 c0-0.398,0.401-0.376,0.401-1.15C31.144,32.059,37.133,29.72,37.133,29.72z"/><linearGradient id="TqL0Nmg1MPuSWcIZgsPOmc" x1="-211.648" x2="-197.891" y1="16.866" y2="23.615" gradientTransform="rotate(180 -83.125 24)" gradientUnits="userSpaceOnUse"><stop offset="0" stop-color="#b78e60"/><stop offset=".133" stop-color="#a47a4f"/><stop offset=".325" stop-color="#8e643b"/><stop offset=".447" stop-color="#865c34"/><stop offset=".999" stop-color="#391b06"/></linearGradient><path fill="url(#TqL0Nmg1MPuSWcIZgsPOmc)" d="M37.424,29.806c0.534-0.281,0.75-0.757-0.005-2.249c-2.221-5.48-1.93-9.362-1.945-10.486 l0.002-3.24l2.181,0.391l0.185,3.713c0,0-0.158,4.933,2.311,10.623c0.856,1.59-0.148,2.304-0.269,2.35c0,0-7.822,3.05-16.055,2.758 c0-0.359,0.339-0.387,0.339-1.074C31.229,32.229,37.424,29.806,37.424,29.806z"/><linearGradient id="TqL0Nmg1MPuSWcIZgsPOmd" x1="-211.68" x2="-197.888" y1="16.84" y2="23.607" gradientTransform="rotate(180 -83.125 24)" gradientUnits="userSpaceOnUse"><stop offset="0" stop-color="#a97f53"/><stop offset=".091" stop-color="#9d7449"/><stop offset=".308" stop-color="#875e35"/><stop offset=".447" stop-color="#7f562e"/><stop offset=".999" stop-color="#402008"/></linearGradient><path fill="url(#TqL0Nmg1MPuSWcIZgsPOmd)" d="M37.714,29.893c0.445-0.234,0.794-0.678,0.023-2.186c-2.262-5.515-1.975-9.605-1.987-10.543 l-0.026-3.289l1.933,0.346l0.19,3.556c0,0-0.153,5.028,2.317,10.718c0.859,1.594-0.066,2.373-0.308,2.464 c0,0-7.789,3.023-16.021,2.731c0-0.32,0.277-0.398,0.277-0.999C31.313,32.399,37.714,29.893,37.714,29.893z"/><linearGradient id="TqL0Nmg1MPuSWcIZgsPOme" x1="-211.713" x2="-197.884" y1="16.812" y2="23.596" gradientTransform="rotate(180 -83.125 24)" gradientUnits="userSpaceOnUse"><stop offset="0" stop-color="#9a7146"/><stop offset=".025" stop-color="#976f44"/><stop offset=".282" stop-color="#815830"/><stop offset=".447" stop-color="#795029"/><stop offset=".999" stop-color="#46250a"/></linearGradient><path fill="url(#TqL0Nmg1MPuSWcIZgsPOme)" d="M38.005,29.98c0.356-0.187,0.839-0.599,0.052-2.123c-2.304-5.55-2.02-9.849-2.029-10.599 l-0.053-3.338l1.684,0.302l0.194,3.399c0,0-0.147,5.123,2.322,10.813c0.863,1.597,0.016,2.442-0.347,2.579 c0,0-7.755,2.996-15.988,2.704c0-0.281,0.215-0.41,0.215-0.923C31.398,32.57,38.005,29.98,38.005,29.98z"/><linearGradient id="TqL0Nmg1MPuSWcIZgsPOmf" x1="-211.747" x2="-197.881" y1="16.783" y2="23.586" gradientTransform="rotate(180 -83.125 24)" gradientUnits="userSpaceOnUse"><stop offset="0" stop-color="#8c633a"/><stop offset=".246" stop-color="#7b522b"/><stop offset=".447" stop-color="#734a23"/><stop offset=".999" stop-color="#4d290d"/></linearGradient><path fill="url(#TqL0Nmg1MPuSWcIZgsPOmf)" d="M38.295,30.066c0.267-0.141,0.883-0.52,0.08-2.059c-2.345-5.585-2.064-10.093-2.071-10.655 l-0.081-3.387l1.435,0.257l0.199,3.242c0,0-0.141,5.218,2.328,10.908c0.866,1.6,0.098,2.511-0.387,2.694 c0,0-7.722,2.968-15.954,2.677c0-0.242,0.154-0.421,0.154-0.847C31.483,32.74,38.295,30.066,38.295,30.066z"/><linearGradient id="TqL0Nmg1MPuSWcIZgsPOmg" x1="-211.782" x2="-197.878" y1="16.753" y2="23.575" gradientTransform="rotate(180 -83.125 24)" gradientUnits="userSpaceOnUse"><stop offset="0" stop-color="#7d552d"/><stop offset=".182" stop-color="#754c25"/><stop offset=".447" stop-color="#6d441e"/><stop offset=".999" stop-color="#532e0f"/></linearGradient><path fill="url(#TqL0Nmg1MPuSWcIZgsPOmg)" d="M38.586,30.153c0.178-0.094,0.928-0.441,0.108-1.996c-2.387-5.62-2.109-10.336-2.113-10.711 l-0.109-3.436l1.187,0.213l0.204,3.085c0,0-0.136,5.313,2.334,11.003c0.869,1.603,0.18,2.58-0.426,2.809 c0,0-7.688,2.941-15.921,2.65c0-0.203,0.092-0.433,0.092-0.772C31.568,32.91,38.586,30.153,38.586,30.153z"/><linearGradient id="TqL0Nmg1MPuSWcIZgsPOmh" x1="-211.818" x2="-197.875" y1="16.724" y2="23.564" gradientTransform="rotate(180 -83.125 24)" gradientUnits="userSpaceOnUse"><stop offset="0" stop-color="#6f4620"/><stop offset=".03" stop-color="#6e451f"/><stop offset=".447" stop-color="#663e18"/><stop offset=".999" stop-color="#5a3311"/></linearGradient><path fill="url(#TqL0Nmg1MPuSWcIZgsPOmh)" d="M38.876,30.24c0.089-0.047,0.972-0.362,0.136-1.933c-2.428-5.655-2.153-10.58-2.155-10.767 l-0.137-3.485l0.938,0.168l0.209,2.929c0,0-0.13,5.408,2.339,11.098c0.872,1.606,0.262,2.649-0.465,2.923 c0,0-7.655,2.914-15.888,2.622c0-0.164,0.03-0.444,0.03-0.696C31.652,33.08,38.876,30.24,38.876,30.24z"/><path fill="#603813" d="M39.167,30.327c0,0,1.017-0.282,0.164-1.87c-2.469-5.69-2.198-10.824-2.198-10.824l-0.165-3.535 l0.69,0.124l0.213,2.772c0,0-0.124,5.503,2.345,11.193c0.876,1.609,0.344,2.718-0.504,3.038c0,0-7.622,2.887-15.854,2.595 c0-0.125-0.032-0.455-0.032-0.621C31.737,33.25,39.167,30.327,39.167,30.327z"/><linearGradient id="TqL0Nmg1MPuSWcIZgsPOmi" x1="-261.033" x2="-275.489" y1="10.074" y2="18.325" gradientTransform="matrix(-1 0 0 -.9876 -258.897 42.59)" gradientUnits="userSpaceOnUse"><stop offset="0" stop-color="#c69c6d"/><stop offset=".165" stop-color="#aa8054"/><stop offset=".337" stop-color="#946a40"/><stop offset=".447" stop-color="#8c6239"/><stop offset=".999" stop-color="#331604"/></linearGradient><path fill="url(#TqL0Nmg1MPuSWcIZgsPOmi)" d="M10.323,18.186c0,0,0.164,4.838-2.305,10.528c-0.853,1.587,0.23,2.235,0.23,2.235	s7.855,3.077,16.088,2.786c0-3.336,0-21.897,0-21.897l-13.832,2.478L10.323,18.186z"/><linearGradient id="TqL0Nmg1MPuSWcIZgsPOmj" x1="2.794" x2="16.516" y1="16.799" y2="23.531" gradientTransform="matrix(1 0 0 -1 0 48)" gradientUnits="userSpaceOnUse"><stop offset="0" stop-color="#c69c6d"/><stop offset=".165" stop-color="#aa8054"/><stop offset=".337" stop-color="#946a40"/><stop offset=".447" stop-color="#8c6239"/><stop offset=".999" stop-color="#331604"/></linearGradient><path fill="url(#TqL0Nmg1MPuSWcIZgsPOmj)" d="M11.028,29.813c-0.623-0.328-0.705-0.836,0.033-2.312c2.18-5.445,1.886-9.118,1.902-10.43 l-0.03-3.19l-2.43,0.435l-0.18,3.87c0,0,0.164,4.838-2.305,10.528c-0.853,1.587,0.23,2.235,0.23,2.235s7.855,3.077,16.088,2.786 c0-0.398-0.401-0.376-0.401-1.15C17.017,32.153,11.028,29.813,11.028,29.813z"/><linearGradient id="TqL0Nmg1MPuSWcIZgsPOmk" x1="2.764" x2="16.52" y1="16.772" y2="23.521" gradientTransform="matrix(1 0 0 -1 0 48)" gradientUnits="userSpaceOnUse"><stop offset="0" stop-color="#b78e60"/><stop offset=".133" stop-color="#a47a4f"/><stop offset=".325" stop-color="#8e643b"/><stop offset=".447" stop-color="#865c34"/><stop offset=".999" stop-color="#391b06"/></linearGradient><path fill="url(#TqL0Nmg1MPuSWcIZgsPOmk)" d="M10.738,29.9c-0.534-0.281-0.75-0.757,0.005-2.249c2.221-5.48,1.93-9.362,1.945-10.486 l-0.002-3.24l-2.181,0.391l-0.185,3.713c0,0,0.158,4.933-2.311,10.623c-0.856,1.59,0.148,2.304,0.269,2.35 c0,0,7.822,3.05,16.055,2.758c0-0.359-0.339-0.387-0.339-1.074C16.933,32.323,10.738,29.9,10.738,29.9z"/><linearGradient id="TqL0Nmg1MPuSWcIZgsPOml" x1="2.731" x2="16.523" y1="16.746" y2="23.513" gradientTransform="matrix(1 0 0 -1 0 48)" gradientUnits="userSpaceOnUse"><stop offset="0" stop-color="#a97f53"/><stop offset=".091" stop-color="#9d7449"/><stop offset=".308" stop-color="#875e35"/><stop offset=".447" stop-color="#7f562e"/><stop offset=".999" stop-color="#402008"/></linearGradient><path fill="url(#TqL0Nmg1MPuSWcIZgsPOml)" d="M10.447,29.987c-0.445-0.234-0.794-0.678-0.023-2.186c2.262-5.515,1.975-9.605,1.987-10.543 l0.026-3.289l-1.933,0.346l-0.19,3.556c0,0,0.153,5.028-2.317,10.718c-0.859,1.594,0.066,2.373,0.308,2.464 c0,0,7.789,3.023,16.021,2.731c0-0.32-0.277-0.398-0.277-0.999C16.848,32.493,10.447,29.987,10.447,29.987z"/><linearGradient id="TqL0Nmg1MPuSWcIZgsPOmm" x1="2.698" x2="16.527" y1="16.718" y2="23.502" gradientTransform="matrix(1 0 0 -1 0 48)" gradientUnits="userSpaceOnUse"><stop offset="0" stop-color="#9a7146"/><stop offset=".025" stop-color="#976f44"/><stop offset=".282" stop-color="#815830"/><stop offset=".447" stop-color="#795029"/><stop offset=".999" stop-color="#46250a"/></linearGradient><path fill="url(#TqL0Nmg1MPuSWcIZgsPOmm)" d="M10.157,30.074c-0.356-0.187-0.839-0.599-0.052-2.123c2.304-5.55,2.02-9.849,2.029-10.599 l0.053-3.338l-1.684,0.302l-0.194,3.399c0,0,0.147,5.123-2.322,10.813c-0.863,1.597-0.016,2.442,0.347,2.579 c0,0,7.755,2.996,15.988,2.704c0-0.281-0.215-0.41-0.215-0.923C16.763,32.663,10.157,30.074,10.157,30.074z"/><linearGradient id="TqL0Nmg1MPuSWcIZgsPOmn" x1="2.664" x2="16.53" y1="16.689" y2="23.492" gradientTransform="matrix(1 0 0 -1 0 48)" gradientUnits="userSpaceOnUse"><stop offset="0" stop-color="#8c633a"/><stop offset=".246" stop-color="#7b522b"/><stop offset=".447" stop-color="#734a23"/><stop offset=".999" stop-color="#4d290d"/></linearGradient><path fill="url(#TqL0Nmg1MPuSWcIZgsPOmn)" d="M9.866,30.16c-0.267-0.141-0.883-0.52-0.08-2.059c2.345-5.585,2.064-10.093,2.071-10.655 l0.081-3.387l-1.435,0.257l-0.199,3.242c0,0,0.141,5.218-2.328,10.908c-0.866,1.6-0.098,2.511,0.387,2.694 c0,0,7.722,2.968,15.954,2.677c0-0.242-0.154-0.421-0.154-0.847C16.679,32.833,9.866,30.16,9.866,30.16z"/><linearGradient id="TqL0Nmg1MPuSWcIZgsPOmo" x1="2.63" x2="16.534" y1="16.66" y2="23.481" gradientTransform="matrix(1 0 0 -1 0 48)" gradientUnits="userSpaceOnUse"><stop offset="0" stop-color="#7d552d"/><stop offset=".182" stop-color="#754c25"/><stop offset=".447" stop-color="#6d441e"/><stop offset=".999" stop-color="#532e0f"/></linearGradient><path fill="url(#TqL0Nmg1MPuSWcIZgsPOmo)" d="M9.576,30.247c-0.178-0.094-0.928-0.441-0.108-1.996c2.387-5.62,2.109-10.336,2.113-10.711 l0.109-3.436l-1.187,0.213L10.3,17.401c0,0,0.136,5.313-2.334,11.003c-0.869,1.603-0.18,2.58,0.426,2.809 c0,0,7.688,2.941,15.921,2.65c0-0.203-0.092-0.433-0.092-0.772C16.594,33.004,9.576,30.247,9.576,30.247z"/><linearGradient id="TqL0Nmg1MPuSWcIZgsPOmp" x1="2.594" x2="16.537" y1="16.63" y2="23.471" gradientTransform="matrix(1 0 0 -1 0 48)" gradientUnits="userSpaceOnUse"><stop offset="0" stop-color="#6f4620"/><stop offset=".03" stop-color="#6e451f"/><stop offset=".447" stop-color="#663e18"/><stop offset=".999" stop-color="#5a3311"/></linearGradient><path fill="url(#TqL0Nmg1MPuSWcIZgsPOmp)" d="M9.285,30.334c-0.089-0.047-0.972-0.362-0.136-1.933c2.428-5.655,2.153-10.58,2.155-10.767 l0.137-3.485l-0.938,0.168l-0.209,2.929c0,0,0.13,5.408-2.339,11.098c-0.872,1.606-0.262,2.649,0.465,2.923 c0,0,7.655,2.914,15.888,2.622c0-0.164-0.03-0.444-0.03-0.696C16.509,33.174,9.285,30.334,9.285,30.334z"/><path fill="#603813" d="M8.995,30.42c0,0-1.017-0.282-0.164-1.87c2.469-5.69,2.198-10.824,2.198-10.824l0.165-3.535 l-0.69,0.124l-0.213,2.772c0,0,0.124,5.503-2.345,11.193c-0.876,1.609-0.344,2.718,0.504,3.038c0,0,7.622,2.887,15.854,2.595 c0-0.125,0.032-0.455,0.032-0.621C16.425,33.344,8.995,30.42,8.995,30.42z"/><radialGradient id="TqL0Nmg1MPuSWcIZgsPOmq" cx="24.371" cy="3.5" r="16.526" gradientTransform="matrix(1 0 0 -1 0 48)" gradientUnits="userSpaceOnUse"><stop offset="0" stop-color="#666"/><stop offset=".999" stop-color="#333"/></radialGradient><path fill="url(#TqL0Nmg1MPuSWcIZgsPOmq)" d="M43,46c0,0,0.054-9.133-6.089-10.749C33.774,34.426,24.018,32,24.001,32	s-9.774,2.426-12.91,3.251C4.947,36.867,5,46,5,46H43z"/><radialGradient id="TqL0Nmg1MPuSWcIZgsPOmr" cx="23.295" cy="3.33" r="15.162" gradientTransform="matrix(1 0 0 -1 0 48)" gradientUnits="userSpaceOnUse"><stop offset="0" stop-color="#666"/><stop offset=".999" stop-color="#333"/></radialGradient><path fill="url(#TqL0Nmg1MPuSWcIZgsPOmr)" d="M9.082,38.517C9.065,40.879,9.001,43.426,9.516,46h2.109 c-0.772-2.516-1.293-4.69-1.579-7.521C9.981,37.563,9.094,37.606,9.082,38.517z"/><radialGradient id="TqL0Nmg1MPuSWcIZgsPOms" cx="22.376" cy="3.303" r="14.12" gradientTransform="matrix(1 0 0 -1 0 48)" gradientUnits="userSpaceOnUse"><stop offset="0" stop-color="#5d5d5d"/><stop offset=".999" stop-color="#313131"/></radialGradient><path fill="url(#TqL0Nmg1MPuSWcIZgsPOms)" d="M9.14,38.612C9.134,40.967,9.095,43.459,9.603,46h1.912 c-0.762-2.485-1.231-4.63-1.513-7.426C9.946,37.749,9.148,37.794,9.14,38.612z"/><radialGradient id="TqL0Nmg1MPuSWcIZgsPOmt" cx="21.482" cy="3.276" r="13.112" gradientTransform="matrix(1 0 0 -1 0 48)" gradientUnits="userSpaceOnUse"><stop offset="0" stop-color="#545454"/><stop offset=".999" stop-color="#2f2f2f"/></radialGradient><path fill="url(#TqL0Nmg1MPuSWcIZgsPOmt)" d="M9.199,38.707C9.204,41.054,9.188,43.491,9.69,46h1.715 c-0.753-2.453-1.169-4.571-1.448-7.33C9.911,37.935,9.202,37.981,9.199,38.707z"/><radialGradient id="TqL0Nmg1MPuSWcIZgsPOmu" cx="20.603" cy="3.25" r="12.123" gradientTransform="matrix(1 0 0 -1 0 48)" gradientUnits="userSpaceOnUse"><stop offset="0" stop-color="#4b4b4b"/><stop offset=".999" stop-color="#2d2d2d"/></radialGradient><path fill="url(#TqL0Nmg1MPuSWcIZgsPOmu)" d="M9.257,38.801c0.016,2.34,0.025,4.723,0.52,7.199h1.518 c-0.743-2.421-1.107-4.512-1.382-7.235C9.875,38.122,9.257,38.169,9.257,38.801z"/><radialGradient id="TqL0Nmg1MPuSWcIZgsPOmv" cx="19.724" cy="3.223" r="11.135" gradientTransform="matrix(1 0 0 -1 0 48)" gradientUnits="userSpaceOnUse"><stop offset="0" stop-color="#414141"/><stop offset=".999" stop-color="#2c2c2c"/></radialGradient><path fill="url(#TqL0Nmg1MPuSWcIZgsPOmv)" d="M9.316,38.896c0.027,2.333,0.06,4.661,0.548,7.104h1.321 c-0.733-2.389-1.046-4.453-1.317-7.14C9.84,38.308,9.311,38.356,9.316,38.896z"/><radialGradient id="TqL0Nmg1MPuSWcIZgsPOmw" cx="18.845" cy="3.197" r="10.148" gradientTransform="matrix(1 0 0 -1 0 48)" gradientUnits="userSpaceOnUse"><stop offset="0" stop-color="#383838"/><stop offset=".999" stop-color="#2a2a2a"/></radialGradient><path fill="url(#TqL0Nmg1MPuSWcIZgsPOmw)" d="M9.374,38.991C9.413,41.316,9.469,43.589,9.951,46h1.124 c-0.723-2.357-0.984-4.393-1.252-7.045C9.805,38.494,9.365,38.544,9.374,38.991z"/><radialGradient id="TqL0Nmg1MPuSWcIZgsPOmx" cx="17.966" cy="3.17" r="9.163" gradientTransform="matrix(1 0 0 -1 0 48)" gradientUnits="userSpaceOnUse"><stop offset="0" stop-color="#2f2f2f"/><stop offset=".999" stop-color="#282828"/></radialGradient><path fill="url(#TqL0Nmg1MPuSWcIZgsPOmx)" d="M9.433,39.085c0.05,2.318,0.13,4.537,0.606,6.915h0.927 c-0.714-2.326-0.922-4.334-1.186-6.95C9.77,38.681,9.42,38.732,9.433,39.085z"/><path fill="#262626" d="M9.491,39.18c0.061,2.311,0.165,4.474,0.634,6.82h0.73c-0.704-2.294-0.86-4.275-1.121-6.855 C9.735,38.867,9.474,38.919,9.491,39.18z"/><radialGradient id="TqL0Nmg1MPuSWcIZgsPOmy" cx="-84.164" cy="3.33" r="15.162" gradientTransform="rotate(180 -29.82 24)" gradientUnits="userSpaceOnUse"><stop offset="0" stop-color="#666"/><stop offset=".999" stop-color="#333"/></radialGradient><path fill="url(#TqL0Nmg1MPuSWcIZgsPOmy)" d="M38.738,38.517c0.017,2.362,0.081,4.909-0.434,7.483h-2.109 c0.772-2.516,1.293-4.69,1.579-7.521C37.839,37.563,38.726,37.606,38.738,38.517z"/><radialGradient id="TqL0Nmg1MPuSWcIZgsPOmz" cx="-85.083" cy="3.303" r="14.12" gradientTransform="rotate(180 -29.82 24)" gradientUnits="userSpaceOnUse"><stop offset="0" stop-color="#5d5d5d"/><stop offset=".999" stop-color="#313131"/></radialGradient><path fill="url(#TqL0Nmg1MPuSWcIZgsPOmz)" d="M38.68,38.612c0.006,2.355,0.046,4.847-0.463,7.388h-1.912 c0.762-2.485,1.231-4.63,1.513-7.426C37.874,37.749,38.672,37.794,38.68,38.612z"/><radialGradient id="TqL0Nmg1MPuSWcIZgsPOmA" cx="-85.976" cy="3.276" r="13.112" gradientTransform="rotate(180 -29.82 24)" gradientUnits="userSpaceOnUse"><stop offset="0" stop-color="#545454"/><stop offset=".999" stop-color="#2f2f2f"/></radialGradient><path fill="url(#TqL0Nmg1MPuSWcIZgsPOmA)" d="M38.621,38.707c-0.005,2.347,0.011,4.785-0.491,7.293h-1.715 c0.753-2.453,1.169-4.571,1.448-7.33C37.909,37.935,38.618,37.981,38.621,38.707z"/><radialGradient id="TqL0Nmg1MPuSWcIZgsPOmB" cx="-86.856" cy="3.25" r="12.123" gradientTransform="rotate(180 -29.82 24)" gradientUnits="userSpaceOnUse"><stop offset="0" stop-color="#4b4b4b"/><stop offset=".999" stop-color="#2d2d2d"/></radialGradient><path fill="url(#TqL0Nmg1MPuSWcIZgsPOmB)" d="M38.563,38.801c-0.016,2.34-0.025,4.723-0.52,7.199h-1.518 c0.743-2.421,1.107-4.512,1.382-7.235C37.944,38.122,38.563,38.169,38.563,38.801z"/><radialGradient id="TqL0Nmg1MPuSWcIZgsPOmC" cx="-87.735" cy="3.223" r="11.135" gradientTransform="rotate(180 -29.82 24)" gradientUnits="userSpaceOnUse"><stop offset="0" stop-color="#414141"/><stop offset=".999" stop-color="#2c2c2c"/></radialGradient><path fill="url(#TqL0Nmg1MPuSWcIZgsPOmC)" d="M38.504,38.896c-0.027,2.333-0.06,4.661-0.548,7.104h-1.321 c0.733-2.389,1.046-4.453,1.317-7.14C37.98,38.308,38.509,38.356,38.504,38.896z"/><radialGradient id="TqL0Nmg1MPuSWcIZgsPOmD" cx="-88.614" cy="3.197" r="10.148" gradientTransform="rotate(180 -29.82 24)" gradientUnits="userSpaceOnUse"><stop offset="0" stop-color="#383838"/><stop offset=".999" stop-color="#2a2a2a"/></radialGradient><path fill="url(#TqL0Nmg1MPuSWcIZgsPOmD)" d="M38.446,38.991c-0.039,2.326-0.095,4.599-0.577,7.009h-1.124 c0.723-2.357,0.984-4.393,1.252-7.045C38.015,38.494,38.455,38.544,38.446,38.991z"/><radialGradient id="TqL0Nmg1MPuSWcIZgsPOmE" cx="-89.492" cy="3.17" r="9.163" gradientTransform="rotate(180 -29.82 24)" gradientUnits="userSpaceOnUse"><stop offset="0" stop-color="#2f2f2f"/><stop offset=".999" stop-color="#282828"/></radialGradient><path fill="url(#TqL0Nmg1MPuSWcIZgsPOmE)" d="M38.387,39.085c-0.05,2.318-0.13,4.537-0.606,6.915h-0.927 c0.714-2.326,0.922-4.334,1.186-6.95C38.05,38.681,38.4,38.732,38.387,39.085z"/><path fill="#262626" d="M38.329,39.18c-0.061,2.311-0.165,4.474-0.634,6.82h-0.73c0.704-2.294,0.86-4.275,1.121-6.855 C38.085,38.867,38.346,38.919,38.329,39.18z"/><path fill="#282828" d="M8.958,36.75l-0.042,2.125c2.283-1.668,5.323-2.653,9-3.375l-0.333-2	C13.305,34.333,10.306,35.262,8.958,36.75z"/><linearGradient id="TqL0Nmg1MPuSWcIZgsPOmF" x1="6.783" x2="16.702" y1="13.499" y2="11.304" gradientTransform="matrix(1 0 0 -1 0 48)" gradientUnits="userSpaceOnUse"><stop offset="0" stop-color="#666"/><stop offset=".999" stop-color="#333"/></linearGradient><path fill="url(#TqL0Nmg1MPuSWcIZgsPOmF)" d="M8.646,36.463l0.313,1.954c0.912-2.429,5.481-3.069,9-3.597l-0.833-1.465	C12.812,33.687,8.812,34.109,8.646,36.463z"/><path fill="#282828" d="M38.813,36.75l0.042,2.125c-2.283-1.668-5.323-2.653-9-3.375l0.333-2	C34.466,34.333,37.465,35.262,38.813,36.75z"/><linearGradient id="TqL0Nmg1MPuSWcIZgsPOmG" x1="-102.133" x2="-92.215" y1="13.499" y2="11.304" gradientTransform="rotate(180 -30.573 24)" gradientUnits="userSpaceOnUse"><stop offset="0" stop-color="#666"/><stop offset=".999" stop-color="#333"/></linearGradient><path fill="url(#TqL0Nmg1MPuSWcIZgsPOmG)" d="M39.125,36.463l-0.313,1.954c-0.912-2.429-5.481-3.069-9-3.597l0.833-1.465	C34.958,33.687,38.958,34.109,39.125,36.463z"/><linearGradient id="TqL0Nmg1MPuSWcIZgsPOmH" x1="23.942" x2="23.942" y1="8.346" y2="11.047" gradientTransform="matrix(1 0 0 -1 0 48)" gradientUnits="userSpaceOnUse"><stop offset="0" stop-color="#fdd02d"/><stop offset=".999" stop-color="#cf941d"/></linearGradient><polygon fill="url(#TqL0Nmg1MPuSWcIZgsPOmH)" points="26,46 22,46 18.844,33.25 29.039,33.289"/><radialGradient id="TqL0Nmg1MPuSWcIZgsPOmI" cx="24" cy="6.006" r="3.648" gradientTransform="matrix(1 0 0 -1 0 48)" gradientUnits="userSpaceOnUse"><stop offset="0" stop-color="#ed1c24"/><stop offset=".999" stop-color="#c1272d"/></radialGradient><path fill="url(#TqL0Nmg1MPuSWcIZgsPOmI)" d="M24,39c-1.185,0-2.293-0.373-3.25-1.013L22.376,46h3.247l1.626-8.013	C26.293,38.627,25.185,39,24,39z"/><radialGradient id="TqL0Nmg1MPuSWcIZgsPOmJ" cx="24.363" cy="3.676" r="15.906" gradientTransform="matrix(1 0 0 -.9999 0 47.999)" gradientUnits="userSpaceOnUse"><stop offset="0" stop-color="#666"/><stop offset=".999" stop-color="#333"/></radialGradient><path fill="url(#TqL0Nmg1MPuSWcIZgsPOmJ)" d="M17.021,33.063c-0.953,1.122-4.828,5.294-4.938,5.896c-0.167,0.917,0.229,1.625,0.896,1.938 c0.438,0.205,4.583,0.063,4.583,0.063s-2.99,1.258-3.302,1.51c-0.438,0.354-0.476,0.822-0.292,1.375 c0.184,0.553,2.003,1.623,2.844,2.156c0.738,0,6.869,0,6.869,0l-5.877-12.483L17.021,33.063z"/><radialGradient id="TqL0Nmg1MPuSWcIZgsPOmK" cx="24.472" cy="3.674" r="15.889" gradientTransform="matrix(1 0 0 -.9999 0 47.999)" gradientUnits="userSpaceOnUse"><stop offset="0" stop-color="#5f5f5f"/><stop offset=".999" stop-color="#333"/></radialGradient><path fill="url(#TqL0Nmg1MPuSWcIZgsPOmK)" d="M17.065,33.074c-0.955,1.125-4.73,5.246-4.847,5.847c-0.169,0.872,0.194,1.562,0.833,1.882 c0.433,0.217,4.85,0.074,4.85,0.074s-3.264,1.347-3.58,1.595c-0.425,0.334-0.456,0.812-0.26,1.339 c0.203,0.546,2.079,1.653,2.922,2.188c0.74,0,6.807,0,6.807,0l-5.891-12.512L17.065,33.074z"/><radialGradient id="TqL0Nmg1MPuSWcIZgsPOmL" cx="24.581" cy="3.673" r="15.872" gradientTransform="matrix(1 0 0 -.9999 0 47.999)" gradientUnits="userSpaceOnUse"><stop offset="0" stop-color="#575757"/><stop offset=".999" stop-color="#333"/></radialGradient><path fill="url(#TqL0Nmg1MPuSWcIZgsPOmL)" d="M17.11,33.086c-0.958,1.128-4.632,5.197-4.756,5.799c-0.171,0.828,0.159,1.5,0.769,1.826 c0.427,0.228,5.118,0.086,5.118,0.086s-3.537,1.436-3.857,1.68c-0.412,0.314-0.434,0.803-0.228,1.304 c0.222,0.538,2.156,1.683,3,2.219c0.741,0,6.745,0,6.745,0l-5.904-12.541L17.11,33.086z"/><radialGradient id="TqL0Nmg1MPuSWcIZgsPOmM" cx="24.69" cy="3.671" r="15.855" gradientTransform="matrix(1 0 0 -.9999 0 47.999)" gradientUnits="userSpaceOnUse"><stop offset="0" stop-color="#505050"/><stop offset=".999" stop-color="#333"/></radialGradient><path fill="url(#TqL0Nmg1MPuSWcIZgsPOmM)" d="M17.155,33.098c-0.96,1.13-4.533,5.149-4.665,5.751c-0.172,0.784,0.124,1.439,0.706,1.77 c0.421,0.24,5.385,0.098,5.385,0.098s-3.81,1.525-4.135,1.765c-0.399,0.294-0.412,0.793-0.196,1.268 c0.242,0.53,2.232,1.713,3.078,2.25c0.743,0,6.683,0,6.683,0l-5.918-12.57L17.155,33.098z"/><radialGradient id="TqL0Nmg1MPuSWcIZgsPOmN" cx="24.799" cy="3.67" r="15.839" gradientTransform="matrix(1 0 0 -.9999 0 47.999)" gradientUnits="userSpaceOnUse"><stop offset="0" stop-color="#494949"/><stop offset=".999" stop-color="#333"/></radialGradient><path fill="url(#TqL0Nmg1MPuSWcIZgsPOmN)" d="M17.199,33.11c-0.962,1.133-4.434,5.102-4.574,5.702c-0.173,0.74,0.089,1.378,0.643,1.714 c0.415,0.252,5.652,0.11,5.652,0.11s-4.083,1.615-4.412,1.85c-0.385,0.275-0.39,0.783-0.164,1.232 c0.262,0.522,2.308,1.744,3.156,2.282c0.745,0,6.622,0,6.622,0L18.19,33.4L17.199,33.11z"/><radialGradient id="TqL0Nmg1MPuSWcIZgsPOmO" cx="24.907" cy="3.668" r="15.822" gradientTransform="matrix(1 0 0 -.9999 0 47.999)" gradientUnits="userSpaceOnUse"><stop offset="0" stop-color="#424242"/><stop offset=".999" stop-color="#333"/></radialGradient><path fill="url(#TqL0Nmg1MPuSWcIZgsPOmO)" d="M17.244,33.122c-0.964,1.135-4.334,5.054-4.484,5.654c-0.173,0.696,0.053,1.317,0.58,1.658 c0.409,0.265,5.919,0.122,5.919,0.122s-4.356,1.705-4.69,1.935c-0.372,0.256-0.366,0.772-0.132,1.196 c0.284,0.513,2.384,1.773,3.234,2.313c0.747,0,6.56,0,6.56,0l-5.945-12.628L17.244,33.122z"/><radialGradient id="TqL0Nmg1MPuSWcIZgsPOmP" cx="25.017" cy="3.667" r="15.806" gradientTransform="matrix(1 0 0 -.9999 0 47.999)" gradientUnits="userSpaceOnUse"><stop offset="0" stop-color="#3a3a3a"/><stop offset=".999" stop-color="#333"/></radialGradient><path fill="url(#TqL0Nmg1MPuSWcIZgsPOmP)" d="M17.289,33.134c-0.967,1.138-4.234,5.006-4.393,5.606c-0.173,0.653,0.017,1.258,0.516,1.603 c0.403,0.278,6.186,0.134,6.186,0.134s-4.629,1.795-4.967,2.019c-0.358,0.237-0.342,0.761-0.1,1.161 c0.306,0.503,2.46,1.803,3.313,2.344c0.748,0,6.498,0,6.498,0l-5.959-12.657L17.289,33.134z"/><path fill="#333" d="M17.333,33.146c-0.969,1.141-4.133,4.959-4.302,5.557c-0.172,0.609-0.02,1.198,0.453,1.547 c0.396,0.292,6.453,0.146,6.453,0.146s-4.901,1.885-5.245,2.104c-0.344,0.219-0.318,0.75-0.068,1.125 c0.329,0.493,2.536,1.833,3.391,2.375c0.75,0,6.436,0,6.436,0l-5.973-12.686L17.333,33.146z"/><linearGradient id="TqL0Nmg1MPuSWcIZgsPOmQ" x1="19.149" x2="19.221" y1="2.272" y2="16.625" gradientTransform="matrix(1 0 0 -1 0 48)" gradientUnits="userSpaceOnUse"><stop offset="0" stop-color="#666"/><stop offset=".999" stop-color="#333"/></linearGradient><path fill="url(#TqL0Nmg1MPuSWcIZgsPOmQ)" d="M16.922,33.797c-0.969,1.141-3.567,4.542-3.62,5.161c-0.054,0.635,0.292,0.844,0.51,0.938	c0.178,0.076,4.487,0.07,6.07,0.065c0.126,0,0.158,0.171,0.042,0.219c-1.243,0.517-4.246,1.772-4.518,1.945	c-0.344,0.219-0.625,0.563-0.438,1.125s2.948,2.208,3.802,2.75c0.75,0,6.264,0,6.264,0l-6.306-13.344L16.922,33.797z"/><linearGradient id="TqL0Nmg1MPuSWcIZgsPOmR" x1="22.616" x2="27.703" y1="1.003" y2="10.479" gradientTransform="rotate(180 23.805 24)" gradientUnits="userSpaceOnUse"><stop offset=".001" stop-color="#999" stop-opacity=".8"/><stop offset="1" stop-color="#999" stop-opacity="0"/></linearGradient><path fill="url(#TqL0Nmg1MPuSWcIZgsPOmR)" d="M23.593,45.667c-2.03-3.459-5.377-11.541-5.412-11.623c-0.053-0.128,0.009-0.274,0.136-0.327	c0.127-0.051,0.274,0.008,0.327,0.136c0.034,0.083,3.448,8.33,5.452,11.687c0.024,0.04,0.019,0.084,0.019,0.128L23.593,45.667	L23.593,45.667z"/><polygon fill="#4d4d4d" points="23.124,41.935 23.735,43.276 22.124,45.988 21.765,45.994"/><g><radialGradient id="TqL0Nmg1MPuSWcIZgsPOmS" cx="-93.525" cy="3.649" r="15.733" gradientTransform="matrix(-1 0 0 -.9999 -70.503 47.999)" gradientUnits="userSpaceOnUse"><stop offset="0" stop-color="#666"/><stop offset=".999" stop-color="#333"/></radialGradient><path fill="url(#TqL0Nmg1MPuSWcIZgsPOmS)" d="M31.855,34.163c0.972,1.144,3.578,4.042,3.689,4.656c0.17,0.935-0.234,1.657-0.914,1.976 c-0.447,0.209-4.674,0.064-4.674,0.064s3.049,1.283,3.367,1.54c0.446,0.361,0.486,0.838,0.297,1.402 c-0.188,0.564-2.043,1.655-2.9,2.199c-0.753,0-7.004,0-7.004,0l5.993-12.729L31.855,34.163z"/><radialGradient id="TqL0Nmg1MPuSWcIZgsPOmT" cx="-93.414" cy="3.653" r="15.76" gradientTransform="matrix(-1 0 0 -.9999 -70.503 47.999)" gradientUnits="userSpaceOnUse"><stop offset="0" stop-color="#5f5f5f"/><stop offset=".999" stop-color="#333"/></radialGradient><path fill="url(#TqL0Nmg1MPuSWcIZgsPOmT)" d="M31.695,34.075c0.974,1.147,3.592,4.093,3.711,4.707c0.173,0.89-0.198,1.593-0.849,1.919 c-0.441,0.221-4.946,0.076-4.946,0.076s3.328,1.374,3.65,1.627c0.433,0.341,0.465,0.828,0.265,1.366 c-0.207,0.556-2.12,1.686-2.98,2.231c-0.754,0-6.941,0-6.941,0l6.007-12.759L31.695,34.075z"/><radialGradient id="TqL0Nmg1MPuSWcIZgsPOmU" cx="-93.303" cy="3.657" r="15.787" gradientTransform="matrix(-1 0 0 -.9999 -70.503 47.999)" gradientUnits="userSpaceOnUse"><stop offset="0" stop-color="#575757"/><stop offset=".999" stop-color="#333"/></radialGradient><path fill="url(#TqL0Nmg1MPuSWcIZgsPOmU)" d="M31.536,33.987c0.977,1.15,3.606,4.145,3.732,4.758c0.174,0.845-0.163,1.53-0.785,1.862 c-0.435,0.233-5.219,0.088-5.219,0.088s3.607,1.465,3.933,1.713c0.42,0.32,0.443,0.818,0.232,1.329 c-0.226,0.548-2.198,1.717-3.059,2.263c-0.756,0-6.878,0-6.878,0l6.021-12.789L31.536,33.987z"/><radialGradient id="TqL0Nmg1MPuSWcIZgsPOmV" cx="-93.192" cy="3.66" r="15.811" gradientTransform="matrix(-1 0 0 -.9999 -70.503 47.999)" gradientUnits="userSpaceOnUse"><stop offset="0" stop-color="#505050"/><stop offset=".999" stop-color="#333"/></radialGradient><path fill="url(#TqL0Nmg1MPuSWcIZgsPOmV)" d="M31.376,33.899c0.979,1.152,3.619,4.196,3.754,4.809c0.176,0.8-0.127,1.467-0.72,1.805 c-0.43,0.245-5.491,0.1-5.491,0.1s3.886,1.556,4.216,1.8c0.407,0.3,0.421,0.808,0.2,1.293c-0.247,0.54-2.276,1.747-3.139,2.294 c-0.758,0-6.815,0-6.815,0l6.035-12.818L31.376,33.899z"/><radialGradient id="TqL0Nmg1MPuSWcIZgsPOmW" cx="-93.081" cy="3.664" r="15.84" gradientTransform="matrix(-1 0 0 -.9999 -70.503 47.999)" gradientUnits="userSpaceOnUse"><stop offset="0" stop-color="#494949"/><stop offset=".999" stop-color="#333"/></radialGradient><path fill="url(#TqL0Nmg1MPuSWcIZgsPOmW)" d="M31.217,33.81c0.981,1.155,3.632,4.248,3.775,4.86c0.177,0.755-0.09,1.405-0.656,1.748 c-0.424,0.257-5.763,0.112-5.763,0.112s4.164,1.647,4.499,1.886c0.393,0.28,0.397,0.798,0.167,1.256 c-0.267,0.532-2.354,1.778-3.219,2.326c-0.76,0-6.752,0-6.752,0l6.049-12.848L31.217,33.81z"/><radialGradient id="TqL0Nmg1MPuSWcIZgsPOmX" cx="-92.97" cy="3.668" r="15.867" gradientTransform="matrix(-1 0 0 -.9999 -70.503 47.999)" gradientUnits="userSpaceOnUse"><stop offset="0" stop-color="#424242"/><stop offset=".999" stop-color="#333"/></radialGradient><path fill="url(#TqL0Nmg1MPuSWcIZgsPOmX)" d="M31.057,33.722c0.983,1.158,3.645,4.299,3.797,4.912c0.177,0.71-0.054,1.343-0.591,1.691 c-0.417,0.27-6.036,0.124-6.036,0.124s4.442,1.738,4.782,1.973c0.379,0.261,0.374,0.788,0.134,1.22 c-0.289,0.523-2.431,1.808-3.298,2.358c-0.761,0-6.689,0-6.689,0l6.063-12.878L31.057,33.722z"/><radialGradient id="TqL0Nmg1MPuSWcIZgsPOmY" cx="-92.859" cy="3.672" r="15.894" gradientTransform="matrix(-1 0 0 -.9999 -70.503 47.999)" gradientUnits="userSpaceOnUse"><stop offset="0" stop-color="#3a3a3a"/><stop offset=".999" stop-color="#333"/></radialGradient><path fill="url(#TqL0Nmg1MPuSWcIZgsPOmY)" d="M30.898,33.634c0.986,1.16,3.657,4.351,3.818,4.963c0.176,0.666-0.017,1.282-0.527,1.634 c-0.411,0.284-6.308,0.137-6.308,0.137s4.72,1.83,5.065,2.059c0.365,0.242,0.349,0.776,0.102,1.184 c-0.312,0.513-2.509,1.839-3.378,2.39c-0.763,0-6.626,0-6.626,0l6.077-12.907L30.898,33.634z"/><path fill="#333" d="M30.738,33.545c0.988,1.163,3.668,4.403,3.84,5.014c0.175,0.621,0.021,1.222-0.462,1.577 c-0.404,0.297-6.58,0.149-6.58,0.149s4.998,1.923,5.348,2.146c0.351,0.223,0.324,0.765,0.069,1.147 c-0.335,0.503-2.587,1.87-3.458,2.422c-0.765,0-6.563,0-6.563,0l6.091-12.937L30.738,33.545z"/></g><linearGradient id="TqL0Nmg1MPuSWcIZgsPOmZ" x1="-98.842" x2="-98.769" y1="2.278" y2="16.913" gradientTransform="rotate(180 -35.251 24)" gradientUnits="userSpaceOnUse"><stop offset="0" stop-color="#666"/><stop offset=".999" stop-color="#333"/></linearGradient><path fill="url(#TqL0Nmg1MPuSWcIZgsPOmZ)" d="M30.611,33.556c0.988,1.163,3.638,4.631,3.691,5.263c0.055,0.648-0.297,0.86-0.52,0.956	c-0.175,0.075-4.244,0.072-5.991,0.067c-0.171,0-0.217,0.233-0.059,0.299c1.356,0.565,4.161,1.739,4.426,1.908	c0.351,0.223,0.637,0.574,0.446,1.147c-0.191,0.574-3.006,2.252-3.877,2.804c-0.765,0-6.388,0-6.388,0l6.431-13.607L30.611,33.556z"/><linearGradient id="TqL0Nmg1MPuSWcIZgsPOmaa" x1="-87.358" x2="-88.135" y1="-27.073" y2="-25.495" gradientTransform="scale(1 -1) rotate(-45 -43.126 -177.711)" gradientUnits="userSpaceOnUse"><stop offset=".008" stop-opacity="0"/><stop offset=".999"/></linearGradient><path fill="url(#TqL0Nmg1MPuSWcIZgsPOmaa)" d="M33.151,38.025c-0.379-0.378-0.952-0.418-1.28-0.09c-0.329,0.329-0.288,0.902,0.09,1.28	c0.379,0.378,0.952,0.418,1.28,0.09C33.569,38.977,33.529,38.404,33.151,38.025z"/><radialGradient id="TqL0Nmg1MPuSWcIZgsPOmab" cx="-103.098" cy="9.916" r=".89" gradientTransform="rotate(180 -35.251 24)" gradientUnits="userSpaceOnUse"><stop offset=".008" stop-color="#b3b3b3"/><stop offset=".209" stop-color="#aeaeae"/><stop offset=".46" stop-color="#9e9e9e"/><stop offset=".736" stop-color="#858585"/><stop offset=".999" stop-color="#666"/></radialGradient><ellipse cx="32.411" cy="38.348" fill="url(#TqL0Nmg1MPuSWcIZgsPOmab)" rx=".913" ry=".792"/><linearGradient id="TqL0Nmg1MPuSWcIZgsPOmac" x1="-100.922" x2="-101.699" y1="3.817" y2="5.395" gradientTransform="rotate(180 -35.251 24)" gradientUnits="userSpaceOnUse"><stop offset=".008" stop-opacity="0"/><stop offset=".999"/></linearGradient><ellipse cx="31.024" cy="42.954" fill="url(#TqL0Nmg1MPuSWcIZgsPOmac)" rx=".969" ry=".841"/><radialGradient id="TqL0Nmg1MPuSWcIZgsPOmad" cx="-101.472" cy="5.582" r=".89" gradientTransform="rotate(180 -35.251 24)" gradientUnits="userSpaceOnUse"><stop offset=".008" stop-color="#b3b3b3"/><stop offset=".209" stop-color="#aeaeae"/><stop offset=".46" stop-color="#9e9e9e"/><stop offset=".736" stop-color="#858585"/><stop offset=".999" stop-color="#666"/></radialGradient><ellipse cx="30.786" cy="42.682" fill="url(#TqL0Nmg1MPuSWcIZgsPOmad)" rx=".913" ry=".792"/><linearGradient id="TqL0Nmg1MPuSWcIZgsPOmae" x1="-4.002" x2="-4.764" y1="56.115" y2="57.662" gradientTransform="scale(1 -1) rotate(-45 -110.621 -14.764)" gradientUnits="userSpaceOnUse"><stop offset=".008" stop-opacity="0"/><stop offset=".999"/></linearGradient><path fill="url(#TqL0Nmg1MPuSWcIZgsPOmae)" d="M15.993,39.435c-0.322,0.322-0.884,0.282-1.255-0.089s-0.411-0.933-0.089-1.255	c0.322-0.322,0.884-0.282,1.255,0.089C16.275,38.551,16.315,39.113,15.993,39.435z"/><radialGradient id="TqL0Nmg1MPuSWcIZgsPOmaf" cx="14.976" cy="9.763" r=".873" gradientTransform="matrix(1 0 0 -1 0 48)" gradientUnits="userSpaceOnUse"><stop offset=".008" stop-color="#b3b3b3"/><stop offset=".209" stop-color="#aeaeae"/><stop offset=".46" stop-color="#9e9e9e"/><stop offset=".736" stop-color="#858585"/><stop offset=".999" stop-color="#666"/></radialGradient><ellipse cx="15.156" cy="38.496" fill="url(#TqL0Nmg1MPuSWcIZgsPOmaf)" rx=".895" ry=".777"/><linearGradient id="TqL0Nmg1MPuSWcIZgsPOmag" x1="17.508" x2="16.746" y1="3.781" y2="5.329" gradientTransform="matrix(1 0 0 -1 0 48)" gradientUnits="userSpaceOnUse"><stop offset=".008" stop-opacity="0"/><stop offset=".999"/></linearGradient><ellipse cx="16.914" cy="43.013" fill="url(#TqL0Nmg1MPuSWcIZgsPOmag)" rx=".95" ry=".825"/><radialGradient id="TqL0Nmg1MPuSWcIZgsPOmah" cx="16.57" cy="5.513" r=".873" gradientTransform="matrix(1 0 0 -1 0 48)" gradientUnits="userSpaceOnUse"><stop offset=".008" stop-color="#b3b3b3"/><stop offset=".209" stop-color="#aeaeae"/><stop offset=".46" stop-color="#9e9e9e"/><stop offset=".736" stop-color="#858585"/><stop offset=".999" stop-color="#666"/></radialGradient><ellipse cx="16.75" cy="42.746" fill="url(#TqL0Nmg1MPuSWcIZgsPOmah)" rx=".895" ry=".777"/><radialGradient id="TqL0Nmg1MPuSWcIZgsPOmai" cx="-635.384" cy="-6.389" r="2.274" gradientTransform="matrix(-1.0734 .1748 -.4815 -2.1652 -672.566 118.76)" gradientUnits="userSpaceOnUse"><stop offset="0" stop-color="#ffe16e"/><stop offset=".461" stop-color="#ffd226"/><stop offset=".658" stop-color="#fbc921"/><stop offset=".978" stop-color="#f1b114"/><stop offset=".999" stop-color="#f0af13"/></radialGradient><path fill="url(#TqL0Nmg1MPuSWcIZgsPOmai)" d="M13.187,18.9c-0.909-0.238-3.105-0.086-3.181,2.096c-0.072,2.063,0.555,3.003,1.389,3.889	c0.935,0.993,2.614,0.986,2.476,0.197C13.732,24.292,13.187,18.9,13.187,18.9z"/><radialGradient id="TqL0Nmg1MPuSWcIZgsPOmaj" cx="1.798" cy="-6.389" r="2.308" gradientTransform="matrix(1.0633 .1748 .477 -2.1652 36.659 7.403)" gradientUnits="userSpaceOnUse"><stop offset="0" stop-color="#ffe16e"/><stop offset=".461" stop-color="#ffd226"/><stop offset=".741" stop-color="#f8c21d"/><stop offset=".999" stop-color="#f0af13"/></radialGradient><path fill="url(#TqL0Nmg1MPuSWcIZgsPOmaj)" d="M34.843,18.9c0.9-0.238,3.076-0.086,3.151,2.096c0.071,2.063-0.55,3.003-1.376,3.889	c-0.926,0.993-2.59,0.986-2.453,0.197C34.303,24.292,34.843,18.9,34.843,18.9z"/><radialGradient id="TqL0Nmg1MPuSWcIZgsPOmak" cx="40.366" cy="63.463" r="14.826" fx="40.288" fy="57.112" gradientTransform="matrix(.8889 0 0 -1.0839 -11.863 87.295)" gradientUnits="userSpaceOnUse"><stop offset="0" stop-color="#ffe16e"/><stop offset=".629" stop-color="#ffd226"/><stop offset=".75" stop-color="#fdcd23"/><stop offset=".899" stop-color="#f6bd1b"/><stop offset=".999" stop-color="#f0af13"/></radialGradient><path fill="url(#TqL0Nmg1MPuSWcIZgsPOmak)" d="M36.841,19.231c0,2.929-1.508,6.897-2.917,9.093C31.054,32.797,26.626,35,24.003,35	c-2.558,0-7.216-2.236-9.954-6.676c-1.37-2.221-2.853-6.164-2.853-9.093c0-0.643,0.017-5.197,0.051-5.774	c0.196-3.316,2.54-11.442,12.772-11.442c10.234,0,12.511,7.927,12.745,11.048C36.815,13.758,36.841,18.442,36.841,19.231z"/><radialGradient id="TqL0Nmg1MPuSWcIZgsPOmal" cx="26.998" cy="40.325" r="8.788" gradientTransform="matrix(-.0112 .979 1.4286 .0163 -33.324 -17.067)" gradientUnits="userSpaceOnUse"><stop offset="0" stop-color="#c69c6d"/><stop offset=".232" stop-color="#aa8054"/><stop offset=".474" stop-color="#946a40"/><stop offset=".629" stop-color="#8c6239"/><stop offset=".734" stop-color="#875d34"/><stop offset=".865" stop-color="#774e27"/><stop offset=".999" stop-color="#603813"/></radialGradient><path fill="url(#TqL0Nmg1MPuSWcIZgsPOmal)" d="M12.019,15.122c1.304-0.363,4.642-2.392,7.255-5.656c0.299-0.373,0.833-0.442,1.238-0.187	c1.75,1.105,5.621,1.901,10.421,1.171c0.328-0.05,0.661,0.064,0.874,0.317c1.793,2.131,2.3,3.239,3.797,4.126	c1.138,0.679,2.013,2.131,2.129,2.894C38.077,14.403,38.958,1,23.962,1c-1.554,0-3.158,0.289-4.25,1.204	C19,2.059,17.889,2.151,17.148,2.493c-8.263,3.813-6.668,14.14-6.763,15.698C10.54,15.912,11.5,15.35,12.019,15.122z"/><g><radialGradient id="TqL0Nmg1MPuSWcIZgsPOmam" cx="24.023" cy="33.753" r="13.176" gradientTransform="matrix(1 0 0 -1 0 48)" gradientUnits="userSpaceOnUse"><stop offset="0" stop-color="#603813" stop-opacity="0"/><stop offset=".999" stop-color="#603813" stop-opacity=".2"/></radialGradient><path fill="url(#TqL0Nmg1MPuSWcIZgsPOmam)" d="M36.801,17.967c-0.119-0.78-2.873-3.809-4.717-5.986c-0.219-0.259-0.562-0.374-0.899-0.324 c-4.937,0.745-8.989-1.058-10.789-2.186c-0.416-0.261-0.966-0.19-1.273,0.191c-2.06,2.556-6.197,7.295-7.891,8.175 c-0.027,0.156-0.021,0.959-0.021,1.329c1.906-0.664,6.226-4.886,8.339-7.508c0.307-0.381,0.592-0.428,1.008-0.167 c1.8,1.128,5.285,2.004,10.223,1.259c0.337-0.051,0.706,0.045,0.899,0.324c1.602,2.324,4.216,5.564,5.151,6.105 C36.831,18.697,36.85,18.263,36.801,17.967z"/><radialGradient id="TqL0Nmg1MPuSWcIZgsPOman" cx="24.023" cy="33.78" r="13.17" gradientTransform="matrix(1 0 0 -1 0 48)" gradientUnits="userSpaceOnUse"><stop offset="0" stop-color="#5c3512" stop-opacity=".143"/><stop offset=".999" stop-color="#5c3512" stop-opacity=".314"/></radialGradient><path fill="url(#TqL0Nmg1MPuSWcIZgsPOman)" d="M36.807,17.984c-0.119-0.78-2.943-3.962-4.787-6.139c-0.219-0.259-0.562-0.374-0.899-0.324 c-4.937,0.745-8.926-0.922-10.726-2.051c-0.416-0.261-0.966-0.19-1.273,0.191c-2.06,2.556-6.201,7.307-7.895,8.187 c-0.027,0.156-0.019,0.909-0.02,1.247c2.008-0.789,6.108-4.766,8.32-7.589c0.303-0.384,0.592-0.428,1.008-0.167 c1.8,1.128,5.303,2,10.24,1.256c0.337-0.051,0.697,0.052,0.89,0.33c1.661,2.402,4.255,5.659,5.165,6.2 C36.834,18.617,36.857,18.28,36.807,17.984z"/><radialGradient id="TqL0Nmg1MPuSWcIZgsPOmao" cx="24.023" cy="33.807" r="13.165" gradientTransform="matrix(1 0 0 -1 0 48)" gradientUnits="userSpaceOnUse"><stop offset="0" stop-color="#573111" stop-opacity=".286"/><stop offset=".999" stop-color="#573111" stop-opacity=".429"/></radialGradient><path fill="url(#TqL0Nmg1MPuSWcIZgsPOmao)" d="M36.813,18.001c-0.119-0.78-3.012-4.115-4.856-6.292c-0.219-0.259-0.562-0.374-0.899-0.324 c-4.937,0.745-8.862-0.786-10.663-1.915c-0.416-0.261-0.966-0.19-1.273,0.191c-2.06,2.556-6.205,7.319-7.899,8.199 c-0.027,0.156-0.017,0.86-0.02,1.165c2.11-0.914,5.981-4.653,8.3-7.67c0.298-0.388,0.592-0.428,1.008-0.167 c1.8,1.128,5.321,1.997,10.258,1.252c0.337-0.051,0.688,0.058,0.881,0.337c1.721,2.48,4.294,5.754,5.18,6.295 C36.836,18.537,36.863,18.298,36.813,18.001z"/><radialGradient id="TqL0Nmg1MPuSWcIZgsPOmap" cx="24.024" cy="33.832" r="13.159" gradientTransform="matrix(1 0 0 -1 0 48)" gradientUnits="userSpaceOnUse"><stop offset="0" stop-color="#532e10" stop-opacity=".429"/><stop offset=".999" stop-color="#532e10" stop-opacity=".543"/></radialGradient><path fill="url(#TqL0Nmg1MPuSWcIZgsPOmap)" d="M36.819,18.019c-0.119-0.78-3.081-4.268-4.925-6.445c-0.219-0.259-0.562-0.374-0.899-0.324 c-4.937,0.745-8.799-0.651-10.599-1.779c-0.416-0.261-0.966-0.19-1.273,0.191c-2.06,2.556-6.209,7.331-7.903,8.21 c-0.027,0.156-0.015,0.81-0.019,1.083c2.212-1.038,5.861-4.534,8.28-7.751c0.294-0.391,0.592-0.428,1.008-0.167 c1.8,1.128,5.338,1.994,10.276,1.249c0.337-0.051,0.679,0.065,0.872,0.344c1.78,2.558,4.333,5.849,5.194,6.391 C36.839,18.457,36.869,18.315,36.819,18.019z"/><radialGradient id="TqL0Nmg1MPuSWcIZgsPOmaq" cx="24.024" cy="33.858" r="13.154" gradientTransform="matrix(1 0 0 -1 0 48)" gradientUnits="userSpaceOnUse"><stop offset="0" stop-color="#4f2b0e" stop-opacity=".571"/><stop offset=".999" stop-color="#4f2b0e" stop-opacity=".657"/></radialGradient><path fill="url(#TqL0Nmg1MPuSWcIZgsPOmaq)" d="M36.825,18.036c-0.119-0.78-3.151-4.421-4.995-6.598c-0.219-0.259-0.562-0.374-0.899-0.324 c-4.937,0.745-8.736-0.515-10.536-1.643c-0.416-0.261-0.966-0.19-1.273,0.191c-2.06,2.556-6.213,7.342-7.907,8.222 c-0.027,0.156-0.013,0.761-0.019,1c2.314-1.163,5.743-4.414,8.26-7.832c0.29-0.394,0.592-0.428,1.008-0.167 c1.8,1.128,5.356,1.991,10.293,1.246c0.337-0.051,0.67,0.072,0.863,0.351c1.839,2.636,4.372,5.945,5.209,6.486 C36.842,18.377,36.875,18.332,36.825,18.036z"/><radialGradient id="TqL0Nmg1MPuSWcIZgsPOmar" cx="24.024" cy="33.886" r="13.149" gradientTransform="matrix(1 0 0 -1 0 48)" gradientUnits="userSpaceOnUse"><stop offset="0" stop-color="#4b280d" stop-opacity=".714"/><stop offset=".999" stop-color="#4b280d" stop-opacity=".771"/></radialGradient><path fill="url(#TqL0Nmg1MPuSWcIZgsPOmar)" d="M36.831,18.053c-0.119-0.78-3.22-4.574-5.064-6.751c-0.219-0.259-0.562-0.374-0.899-0.324 c-4.937,0.745-8.672-0.379-10.473-1.508c-0.416-0.261-0.966-0.19-1.273,0.191c-2.06,2.556-6.217,7.354-7.911,8.234 c-0.027,0.156-0.01,0.711-0.019,0.918c2.416-1.288,5.627-4.293,8.241-7.914c0.286-0.397,0.592-0.428,1.008-0.167 c1.8,1.128,5.373,1.988,10.311,1.243c0.337-0.051,0.66,0.079,0.855,0.357c1.899,2.714,4.412,6.04,5.223,6.581 C36.844,18.297,36.881,18.35,36.831,18.053z"/><radialGradient id="TqL0Nmg1MPuSWcIZgsPOmas" cx="24.026" cy="33.912" r="13.143" gradientTransform="matrix(1 0 0 -1 0 48)" gradientUnits="userSpaceOnUse"><stop offset="0" stop-color="#46240c" stop-opacity=".857"/><stop offset=".999" stop-color="#46240c" stop-opacity=".886"/></radialGradient><path fill="url(#TqL0Nmg1MPuSWcIZgsPOmas)" d="M36.837,18.07c-0.119-0.78-3.289-4.727-5.133-6.904c-0.219-0.259-0.562-0.374-0.899-0.324 c-4.937,0.745-8.609-0.244-10.409-1.372c-0.416-0.261-0.966-0.19-1.273,0.191c-2.06,2.556-6.221,7.366-7.915,8.246 c-0.027,0.156-0.008,0.662-0.018,0.836c2.518-1.413,5.518-4.167,8.221-7.995c0.284-0.399,0.592-0.428,1.008-0.167 c1.8,1.128,5.391,1.984,10.328,1.24c0.337-0.051,0.651,0.086,0.846,0.364c1.958,2.792,4.451,6.135,5.238,6.676 C36.847,18.216,36.887,18.367,36.837,18.07z"/><path fill="#42210b" d="M36.843,18.088c-0.119-0.78-3.359-4.88-5.203-7.057c-0.219-0.259-0.562-0.374-0.899-0.324 c-4.937,0.745-8.546-0.108-10.346-1.236c-0.416-0.261-0.966-0.19-1.273,0.191c-2.06,2.556-6.225,7.378-7.919,8.258 c-0.027,0.156-0.006,0.612-0.018,0.754c2.62-1.537,5.4-4.047,8.201-8.076c0.28-0.402,0.592-0.428,1.008-0.167 c1.8,1.128,5.409,1.981,10.346,1.236c0.337-0.051,0.642,0.093,0.837,0.371c2.017,2.87,4.49,6.23,5.252,6.772 C36.85,18.136,36.893,18.384,36.843,18.088z"/></g><g><radialGradient id="TqL0Nmg1MPuSWcIZgsPOmat" cx="28.578" cy="31.685" r="11.669" gradientTransform="matrix(.9652 0 0 -.959 -3.982 43.365)" gradientUnits="userSpaceOnUse"><stop offset="0" stop-color="#c69c6d"/><stop offset=".232" stop-color="#aa8054"/><stop offset=".474" stop-color="#946a40"/><stop offset=".629" stop-color="#8c6239"/><stop offset=".734" stop-color="#875d34"/><stop offset=".865" stop-color="#774e27"/><stop offset=".999" stop-color="#603813"/></radialGradient><path fill="url(#TqL0Nmg1MPuSWcIZgsPOmat)" d="M36.316,14.603c-0.859-1.349-1.745-3.291-3.538-5.379c-0.213-0.248-0.546-0.359-0.874-0.31 c-4.685,0.697-8.087-0.399-9.905-1.483c-0.498-0.416-1.425-0.92-1.235-3.137c0.112-1.303-2.089-1.392-2.683,0.094 c0,0-0.855,1.463-0.641,3.326c0.107,0.342-0.642,1.076-0.689,1.132c-2.613,3.197-3.675,4.62-5.295,6.063 c-1.124,1.022-1.15,4.723-1.15,4.723c0.104-2.058,0.719-2.309,1.57-2.857c1.188-0.738,4.763-3.961,7.376-7.158 c0.299-0.366,0.909-0.423,1.314-0.173c1.75,1.082,5.441,1.932,10.241,1.218c0.327-0.049,0.832,0.114,1.045,0.362 c1.793,2.087,2.508,4.296,3.735,5.509c0.967,0.956,2.029,1.906,2.145,2.654C37.768,18.621,37.092,15.822,36.316,14.603z"/><radialGradient id="TqL0Nmg1MPuSWcIZgsPOmau" cx="27.843" cy="32.117" r="11.59" gradientTransform="matrix(.9702 0 0 -.9648 -3.413 44.024)" gradientUnits="userSpaceOnUse"><stop offset="0" stop-color="#b78e60"/><stop offset=".188" stop-color="#a47a4f"/><stop offset=".457" stop-color="#8e643b"/><stop offset=".629" stop-color="#865c34"/><stop offset=".744" stop-color="#81572f"/><stop offset=".886" stop-color="#714822"/><stop offset=".999" stop-color="#603813"/></radialGradient><path fill="url(#TqL0Nmg1MPuSWcIZgsPOmau)" d="M36.231,14.864c-0.884-1.377-1.827-3.308-3.575-5.448c-0.207-0.253-0.546-0.359-0.874-0.31 c-4.685,0.697-8.16-0.387-9.978-1.471c-0.498-0.416-1.408-0.956-1.209-3.276c0.105-1.219-1.847-1.246-2.371,0.074 c0,0-0.799,1.516-0.539,3.368c0.107,0.342-0.55,0.989-0.596,1.046c-2.701,3.401-4.018,4.959-5.572,6.331 c-1.122,1.007-1.207,4.324-1.214,4.456c0.128-1.903,0.77-2.203,1.577-2.735c1.686-1.15,4.76-4.07,7.373-7.267 c0.299-0.366,0.898-0.425,1.303-0.174c1.75,1.082,5.462,1.972,10.262,1.258c0.327-0.049,0.813,0.102,1.02,0.354 c1.735,2.101,2.449,4.189,3.768,5.558c0.938,0.973,2.01,1.893,2.128,2.651C37.75,18.576,36.992,16.051,36.231,14.864z"/><radialGradient id="TqL0Nmg1MPuSWcIZgsPOmav" cx="27.117" cy="32.544" r="11.512" gradientTransform="matrix(.9751 0 0 -.9707 -2.844 44.689)" gradientUnits="userSpaceOnUse"><stop offset="0" stop-color="#a97f53"/><stop offset=".129" stop-color="#9d7449"/><stop offset=".434" stop-color="#875e35"/><stop offset=".629" stop-color="#7f562e"/><stop offset=".759" stop-color="#7a5129"/><stop offset=".92" stop-color="#6a421c"/><stop offset=".999" stop-color="#603813"/></radialGradient><path fill="url(#TqL0Nmg1MPuSWcIZgsPOmav)" d="M36.146,15.124c-0.91-1.405-1.91-3.326-3.612-5.518c-0.2-0.257-0.546-0.359-0.874-0.31 c-4.685,0.697-8.233-0.375-10.051-1.459c-0.498-0.416-1.39-0.992-1.184-3.416c0.098-1.136-1.605-1.1-2.058,0.053 c0,0-0.743,1.569-0.438,3.409c0.107,0.342-0.458,0.902-0.503,0.959c-2.799,3.598-4.362,5.298-5.849,6.6 c-1.121,0.991-1.264,3.925-1.278,4.19c0.151-1.749,0.822-2.097,1.584-2.612c2.184-1.562,4.758-4.18,7.371-7.377 c0.299-0.366,0.888-0.426,1.292-0.176c1.75,1.082,5.482,2.013,10.283,1.298c0.327-0.049,0.794,0.091,0.996,0.347 c1.677,2.115,2.392,4.081,3.8,5.606c0.911,0.987,1.991,1.88,2.111,2.647C37.732,18.53,36.891,16.28,36.146,15.124z"/><radialGradient id="TqL0Nmg1MPuSWcIZgsPOmaw" cx="26.398" cy="32.965" r="11.435" gradientTransform="matrix(.9801 0 0 -.9766 -2.275 45.353)" gradientUnits="userSpaceOnUse"><stop offset="0" stop-color="#9a7146"/><stop offset=".035" stop-color="#976f44"/><stop offset=".397" stop-color="#815830"/><stop offset=".629" stop-color="#795029"/><stop offset=".776" stop-color="#744b24"/><stop offset=".96" stop-color="#643c17"/><stop offset=".999" stop-color="#603813"/></radialGradient><path fill="url(#TqL0Nmg1MPuSWcIZgsPOmaw)" d="M36.06,15.385c-0.935-1.433-1.992-3.343-3.649-5.587c-0.194-0.262-0.546-0.359-0.874-0.31 c-4.685,0.697-8.306-0.364-10.124-1.448c-0.498-0.416-1.373-1.028-1.159-3.555c0.092-1.052-1.363-0.955-1.746,0.032 c0,0-0.687,1.622-0.336,3.45c0.107,0.342-0.366,0.815-0.41,0.873c-2.889,3.8-4.706,5.637-6.126,6.869 c-1.12,0.976-1.322,3.526-1.342,3.923c0.175-1.594,0.873-1.991,1.591-2.49c2.682-1.974,4.755-4.289,7.368-7.486 c0.299-0.366,0.877-0.427,1.281-0.177c1.75,1.082,5.503,2.053,10.304,1.339c0.327-0.049,0.775,0.08,0.971,0.34 c1.619,2.129,2.338,3.969,3.833,5.654c0.887,1,1.973,1.868,2.095,2.644C37.714,18.485,36.791,16.509,36.06,15.385z"/><radialGradient id="TqL0Nmg1MPuSWcIZgsPOmax" cx="25.686" cy="33.382" r="11.359" gradientTransform="matrix(.9851 0 0 -.9824 -1.706 46.012)" gradientUnits="userSpaceOnUse"><stop offset="0" stop-color="#8c633a"/><stop offset=".346" stop-color="#7b522b"/><stop offset=".629" stop-color="#734a23"/><stop offset=".803" stop-color="#6e451e"/><stop offset=".999" stop-color="#603813"/></radialGradient><path fill="url(#TqL0Nmg1MPuSWcIZgsPOmax)" d="M35.975,15.646c-0.961-1.461-2.075-3.36-3.686-5.657c-0.187-0.266-0.546-0.359-0.874-0.31 c-4.685,0.697-8.379-0.352-10.197-1.436c-0.498-0.416-1.356-1.064-1.133-3.694c0.085-0.968-1.121-0.809-1.433,0.011 c0,0-0.631,1.675-0.235,3.492c0.107,0.342-0.274,0.728-0.318,0.786c-2.977,4.004-5.05,5.977-6.403,7.138 c-1.118,0.96-1.379,3.127-1.406,3.657c0.198-1.44,0.925-1.884,1.599-2.368c3.18-2.386,4.753-4.398,7.366-7.596 c0.299-0.366,0.866-0.429,1.271-0.179c1.75,1.082,5.524,2.093,10.324,1.379c0.327-0.049,0.756,0.069,0.947,0.332 c1.561,2.143,2.287,3.855,3.866,5.703c0.864,1.011,1.954,1.855,2.078,2.64C37.695,18.439,36.691,16.738,35.975,15.646z"/><radialGradient id="TqL0Nmg1MPuSWcIZgsPOmay" cx="24.982" cy="33.794" r="11.285" gradientTransform="matrix(.9901 0 0 -.9883 -1.138 46.676)" gradientUnits="userSpaceOnUse"><stop offset="0" stop-color="#7d552d"/><stop offset=".257" stop-color="#754c25"/><stop offset=".629" stop-color="#6d441e"/><stop offset=".847" stop-color="#683f19"/><stop offset=".999" stop-color="#603813"/></radialGradient><path fill="url(#TqL0Nmg1MPuSWcIZgsPOmay)" d="M35.89,15.906c-0.987-1.489-2.157-3.378-3.723-5.726c-0.181-0.271-0.546-0.359-0.874-0.31 c-4.685,0.697-8.452-0.341-10.27-1.424c-0.498-0.416-1.345-1.1-1.108-3.833c0.077-0.885-0.879-0.663-1.121-0.01 c0,0-0.576,1.729-0.133,3.533c0.107,0.342-0.182,0.641-0.225,0.7c-3.063,4.209-5.393,6.316-6.679,7.407 c-1.117,0.945-1.436,2.727-1.469,3.39c0.221-1.285,0.976-1.778,1.606-2.246c3.677-2.798,4.75-4.508,7.363-7.705 c0.299-0.366,0.855-0.43,1.26-0.18c1.75,1.082,5.545,2.133,10.345,1.419c0.327-0.049,0.737,0.057,0.923,0.325 c1.502,2.156,2.238,3.739,3.898,5.751c0.842,1.021,1.935,1.842,2.061,2.637C37.677,18.394,36.59,16.967,35.89,15.906z"/><radialGradient id="TqL0Nmg1MPuSWcIZgsPOmaz" cx="24.284" cy="34.148" r="11.222" gradientTransform="matrix(.995 0 0 -.9941 -.569 47.336)" gradientUnits="userSpaceOnUse"><stop offset="0" stop-color="#6f4620"/><stop offset=".042" stop-color="#6e451f"/><stop offset=".629" stop-color="#663e18"/><stop offset=".975" stop-color="#613914"/><stop offset=".999" stop-color="#603813"/></radialGradient><path fill="url(#TqL0Nmg1MPuSWcIZgsPOmaz)" d="M35.805,16.167c-1.012-1.517-2.24-3.395-3.76-5.796c-0.175-0.275-0.546-0.359-0.874-0.31 c-4.685,0.697-8.525-0.329-10.343-1.413c-0.498-0.416-1.33-1.136-1.083-3.972c0.07-0.801-0.637-0.517-0.808-0.031 c0,0-0.52,1.782-0.031,3.575c0.107,0.342-0.09,0.554-0.132,0.613c-3.142,4.42-5.737,6.655-6.956,7.676 c-1.115,0.929-1.493,2.328-1.533,3.124c0.245-1.131,1.028-1.672,1.613-2.123c4.175-3.21,4.748-4.617,7.361-7.814 c0.299-0.366,0.844-0.432,1.249-0.182c1.75,1.082,5.565,2.174,10.366,1.459c0.327-0.049,0.718,0.046,0.898,0.318 c1.444,2.17,2.192,3.621,3.931,5.799c0.822,1.03,1.916,1.829,2.045,2.634C37.659,18.348,36.49,17.196,35.805,16.167z"/><path fill="#603813" d="M35.72,16.427c-1.038-1.545-2.322-3.412-3.797-5.865c-0.168-0.28-0.546-0.359-0.874-0.31 c-4.685,0.697-8.598-0.317-10.416-1.401c-0.498-0.416-1.305-1.171-1.057-4.111c0.065-0.717-0.395-0.372-0.496-0.052 c0,0-0.464,1.835,0.07,3.616c0.107,0.342,0.002,0.467-0.04,0.527c-3.23,4.624-6.081,6.994-7.233,7.944 c-1.114,0.914-1.55,1.929-1.597,2.857c0.268-0.976,1.08-1.566,1.62-2.001c4.673-3.622,4.745-4.727,7.358-7.924 c0.299-0.366,0.834-0.433,1.238-0.183c1.75,1.082,5.586,2.214,10.387,1.5c0.327-0.049,0.699,0.035,0.874,0.31 c1.386,2.184,2.15,3.5,3.963,5.848c0.802,1.038,1.897,1.816,2.028,2.63C37.641,18.303,36.39,17.425,35.72,16.427z"/></g><path fill="#805b2a" d="M14.322,20.29c-0.023,0.367,0.055,0.336,0.196,0.519c0,0,1.594,2.204,6.402,0.695	c0.348-0.124,0.598-0.36,0.562-0.644C20.866,15.978,14.699,16.695,14.322,20.29z"/><path fill="#fff" d="M14.393,20.07c-0.12,0.258-0.082,0.464,0,0.672c0.343,0.906,3.095,4.131,6.809,0.745	c0.277-0.239,0.321-0.45,0.252-0.748C21.385,20.44,20.423,18,17.902,18C15.405,18,14.601,19.719,14.393,20.07z"/><linearGradient id="TqL0Nmg1MPuSWcIZgsPOmaA" x1="15.901" x2="20.085" y1="27.931" y2="27.931" gradientTransform="matrix(1 0 0 -1 0 48)" gradientUnits="userSpaceOnUse"><stop offset="0" stop-color="#c69c6d"/><stop offset="1" stop-color="#754c24"/></linearGradient><circle cx="17.993" cy="20.069" r="2.092" fill="url(#TqL0Nmg1MPuSWcIZgsPOmaA)"/><radialGradient id="TqL0Nmg1MPuSWcIZgsPOmaB" cx="17.993" cy="27.931" r="1.053" gradientTransform="matrix(1 0 0 -1 0 48)" gradientUnits="userSpaceOnUse"><stop offset="0" stop-color="#1c1911"/><stop offset=".999" stop-color="#171714"/></radialGradient><circle cx="17.993" cy="20.069" r="1.053" fill="url(#TqL0Nmg1MPuSWcIZgsPOmaB)"/><circle cx="17.484" cy="19.526" r=".494" fill="#fff"/><path fill="#805b2a" d="M33.574,20.29c0.023,0.367-0.055,0.336-0.196,0.519c0,0-1.594,2.204-6.402,0.695	c-0.348-0.124-0.598-0.36-0.562-0.644C27.03,15.978,33.197,16.695,33.574,20.29z"/><path fill="#fff" d="M33.503,20.07c0.12,0.258,0.082,0.464,0,0.672c-0.343,0.906-3.095,4.131-6.809,0.745	c-0.277-0.239-0.321-0.45-0.252-0.748C26.511,20.44,27.473,18,29.994,18C32.49,18,33.295,19.719,33.503,20.07z"/><linearGradient id="TqL0Nmg1MPuSWcIZgsPOmaC" x1="73.432" x2="77.616" y1="429.932" y2="429.932" gradientTransform="translate(-45.622 -409.863)" gradientUnits="userSpaceOnUse"><stop offset="0" stop-color="#c69c6d"/><stop offset="1" stop-color="#754c24"/></linearGradient><circle cx="29.902" cy="20.069" r="2.092" fill="url(#TqL0Nmg1MPuSWcIZgsPOmaC)"/><radialGradient id="TqL0Nmg1MPuSWcIZgsPOmaD" cx="-796.475" cy="27.931" r="1.053" gradientTransform="rotate(180 -383.287 24)" gradientUnits="userSpaceOnUse"><stop offset="0" stop-color="#1c1911"/><stop offset=".999" stop-color="#171714"/></radialGradient><circle cx="29.902" cy="20.069" r="1.053" fill="url(#TqL0Nmg1MPuSWcIZgsPOmaD)"/><circle cx="29.422" cy="19.526" r=".494" fill="#fff"/><g><path fill="#805b2a" d="M32.167,16.441c-1.366-0.349-2.812-0.246-4.06,0.234c-0.388,0.149-0.824-0.044-0.974-0.433 c-0.149-0.388,0.044-0.824,0.433-0.974c0.04-0.015,0.081-0.027,0.122-0.036l0.017-0.003c1.614-0.316,3.275-0.127,4.712,0.517 c0.187,0.083,0.27,0.302,0.187,0.489c-0.075,0.167-0.258,0.251-0.429,0.207L32.167,16.441z"/></g><g><path fill="#805b2a" d="M15.833,15.746c1.437-0.643,3.098-0.833,4.712-0.517l0.013,0.003 c0.408,0.08,0.675,0.476,0.595,0.884s-0.476,0.675-0.884,0.595c-0.042-0.008-0.087-0.021-0.126-0.036 c-1.248-0.48-2.693-0.583-4.06-0.234l-0.007,0.002c-0.198,0.051-0.4-0.069-0.45-0.267C15.581,15.998,15.672,15.818,15.833,15.746z"/></g><path fill="#8e2809" d="M20.184,28.94c-0.219-0.023-0.233,0.162-0.091,0.347C21.117,30.629,22.631,31,23.997,31	c1.255,0,3.188-0.524,3.93-1.687c0.125-0.196,0.089-0.415-0.117-0.373c-1.936,0.547-2.832-0.981-3.852,0.037	C22.968,27.988,21.983,29.3,20.184,28.94z"/><path fill="#601808" d="M23.915,30.365c0.052-0.022,1.444-0.601,2.635-0.74c-1.524-0.118-2.566,0.138-2.64,0.157	c-0.074-0.019-1.116-0.275-2.64-0.157c1.192,0.139,2.584,0.718,2.635,0.74v0.004c0,0,0.004-0.002,0.005-0.002l0.005,0.002V30.365z"/><path fill="#ecbe49" d="M37.973,22.541c0.004-0.001,0.007-0.002,0.011-0.003c-0.001-0.039-0.002-0.078-0.004-0.119	C37.977,22.462,37.975,22.508,37.973,22.541z"/><path fill="#999" d="M37.917,25.326c-0.083-0.599-0.433-1.269-0.887-1.578c-0.113-0.077-0.252-0.094-0.346,0.01	c-0.095,0.103-0.094,0.265,0.001,0.363c0.291,0.297,0.49,0.731,0.557,1.221c0.136,0.98-0.331,1.618-0.999,1.735	c-0.163,0.029-0.667,0.032-1.323-0.546c-0.065,0.203-0.257,0.441-0.344,0.656c0.609,0.703,1.375,0.875,1.882,0.788	C37.733,27.756,38.092,26.585,37.917,25.326z"/><g><linearGradient id="TqL0Nmg1MPuSWcIZgsPOmaE" x1="3.563" x2="13.251" y1="13.5" y2="13.5" gradientTransform="matrix(1 0 0 -1 0 48)" gradientUnits="userSpaceOnUse"><stop offset="0" stop-color="#868686"/><stop offset=".065" stop-color="#969696"/><stop offset=".259" stop-color="#c1c1c1"/><stop offset=".411" stop-color="#dcdcdc"/><stop offset=".5" stop-color="#e6e6e6"/><stop offset=".586" stop-color="#e1e1e1"/><stop offset=".692" stop-color="#d2d2d2"/><stop offset=".809" stop-color="#b8b8b8"/><stop offset=".933" stop-color="#969696"/><stop offset=".999" stop-color="gray"/></linearGradient><path fill="url(#TqL0Nmg1MPuSWcIZgsPOmaE)" d="M9.313,40H7.688C6.203,40,5,38.797,5,37.313v-5.625C5,30.203,6.203,29,7.688,29h1.625 C10.797,29,12,30.203,12,31.688v5.625C12,38.797,10.797,40,9.313,40z"/><line x1="8.5" x2="8.5" y1="36" y2="46" fill="none" stroke="#c1c1c1" stroke-miterlimit="10"/><line x1="8.5" x2="8.5" y1="29" y2="40.5" fill="none" stroke="#7f7f7f" stroke-miterlimit="10"/><path fill="#999" d="M5,31.875h1.5c0.207,0,0.375-0.168,0.375-0.375S6.707,31.125,6.5,31.125H5V31.875z"/><path fill="#999" d="M6.5,37.125H5v0.75h1.5c0.207,0,0.375-0.168,0.375-0.375S6.707,37.125,6.5,37.125z"/><path fill="#999" d="M6.5,35.125H5v0.75h1.5c0.207,0,0.375-0.168,0.375-0.375S6.707,35.125,6.5,35.125z"/><path fill="#999" d="M6.5,33.125H5v0.75h1.5c0.207,0,0.375-0.168,0.375-0.375S6.707,33.125,6.5,33.125z"/><g><path fill="#7f7f7f" d="M12,31.875h-1.5c-0.207,0-0.375-0.168-0.375-0.375s0.168-0.375,0.375-0.375H12V31.875z"/><path fill="#7f7f7f" d="M10.5,37.125H12v0.75h-1.5c-0.207,0-0.375-0.168-0.375-0.375S10.293,37.125,10.5,37.125z"/><path fill="#7f7f7f" d="M10.5,35.125H12v0.75h-1.5c-0.207,0-0.375-0.168-0.375-0.375S10.293,35.125,10.5,35.125z"/><path fill="#7f7f7f" d="M10.5,33.125H12v0.75h-1.5c-0.207,0-0.375-0.168-0.375-0.375S10.293,33.125,10.5,33.125z"/></g></g><linearGradient id="TqL0Nmg1MPuSWcIZgsPOmaF" x1="21.548" x2="27.223" y1="-.423" y2="10.571" gradientTransform="matrix(1 0 0 -1 0 48)" gradientUnits="userSpaceOnUse"><stop offset=".001" stop-color="#999" stop-opacity=".8"/><stop offset="1" stop-color="#999" stop-opacity="0"/></linearGradient><path fill="url(#TqL0Nmg1MPuSWcIZgsPOmaF)" d="M23.351,46c2.03-3.459,5.377-11.541,5.412-11.623c0.053-0.128-0.009-0.274-0.136-0.327	c-0.127-0.051-0.274,0.008-0.327,0.136c-0.034,0.083-3.448,8.33-5.452,11.687c-0.024,0.04-0.019,0.084-0.019,0.128L23.351,46	L23.351,46z"/><radialGradient id="TqL0Nmg1MPuSWcIZgsPOmaG" cx="-15.931" cy="27.904" r="1.709" gradientTransform="matrix(1.37 0 0 1.3195 45.883 -12.216)" gradientUnits="userSpaceOnUse"><stop offset=".245" stop-color="#cc9000"/><stop offset=".415" stop-color="#d09504" stop-opacity=".822"/><stop offset=".627" stop-color="#dca50f" stop-opacity=".599"/><stop offset=".851" stop-color="#eebd20" stop-opacity=".363"/><stop offset="1" stop-color="#fed12e" stop-opacity="0"/></radialGradient><path fill="url(#TqL0Nmg1MPuSWcIZgsPOmaG)" d="M24.04,25.283c-0.788,0-1.429-0.2-1.825-0.417c-0.291-0.16-0.586-0.086-0.393,0.415	c0.261,0.679,0.858,1.48,2.218,1.48c1.337,0,1.936-0.773,2.204-1.445c0.206-0.516-0.091-0.568-0.344-0.449	C25.412,25.095,24.808,25.283,24.04,25.283z"/><radialGradient id="TqL0Nmg1MPuSWcIZgsPOmaH" cx="-61.093" cy="-24.645" r="1.76" gradientTransform="matrix(1.4827 .036 -.0172 .7101 114.26 44.123)" gradientUnits="userSpaceOnUse"><stop offset=".479" stop-color="#fed53f"/><stop offset=".926" stop-color="#fed53f" stop-opacity=".141"/><stop offset="1" stop-color="#fed53f" stop-opacity="0"/></radialGradient><path fill="url(#TqL0Nmg1MPuSWcIZgsPOmaH)" d="M26.874,24.49c-0.018,0.757-1.286,1.339-2.831,1.302c-1.545-0.038-2.782-0.681-2.764-1.438	s1.286-1.339,2.831-1.302C25.655,23.09,26.892,23.734,26.874,24.49z"/><radialGradient id="TqL0Nmg1MPuSWcIZgsPOmaI" cx="24.117" cy="197.637" r="1.411" gradientTransform="matrix(1 0 0 .6596 0 -105.987)" gradientUnits="userSpaceOnUse"><stop offset=".004" stop-color="#fff4c9"/><stop offset="1" stop-color="#fff4c9" stop-opacity="0"/></radialGradient><ellipse cx="24.117" cy="24.374" fill="url(#TqL0Nmg1MPuSWcIZgsPOmaI)" rx="1.411" ry=".931"/></svg>