<svg xmlns="http://www.w3.org/2000/svg" viewBox="0 0 32 32"><path d="M 9 6 C 6.2504839 6 4 8.2504839 4 11 C 4 12.558151 4.7658526 13.899491 5.8925781 14.818359 C 3.6146404 15.977489 2 18.28496 2 21 L 4 21 C 4 18.245455 6.2454545 16 9 16 C 10.378803 16 11.502646 16.470014 12.376953 17.333984 C 12.140519 17.843183 12 18.404953 12 19 C 12 20.11651 12.468712 21.127469 13.214844 21.855469 C 11.882042 22.756969 11 24.282542 11 26 L 13 26 C 13 24.345455 14.345455 23 16 23 C 17.654545 23 19 24.345455 19 26 L 21 26 C 21 24.282542 20.117958 22.756969 18.785156 21.855469 C 19.531288 21.127469 20 20.11651 20 19 C 20 18.404953 19.859481 17.843183 19.623047 17.333984 C 20.497354 16.470014 21.621197 16 23 16 C 25.754545 16 28 18.245455 28 21 L 30 21 C 30 18.356493 28.454579 16.119848 26.273438 14.929688 C 26.884833 14.566838 27.495064 14.185199 28 13.78125 C 29.326182 12.720304 30.251953 11.658203 30.251953 11.658203 L 30.828125 11 L 30.251953 10.341797 C 30.251953 10.341797 29.326182 9.2796959 28 8.21875 C 26.673818 7.1578041 24.944444 6 23 6 C 20.250484 6 18 8.2504839 18 11 C 18 12.536026 18.742443 13.864036 19.841797 14.783203 C 19.309075 15.057294 18.814987 15.398298 18.367188 15.796875 C 17.701468 15.302109 16.886893 15 16 15 C 15.108203 15 14.2907 15.306906 13.623047 15.806641 C 13.217425 15.461566 12.774987 15.163791 12.308594 14.90625 C 12.905609 14.54862 13.505353 14.176968 14 13.78125 C 15.326182 12.720304 16.251953 11.658203 16.251953 11.658203 L 16.828125 11 L 16.251953 10.341797 C 16.251953 10.341797 15.326182 9.2796959 14 8.21875 C 12.673818 7.1578041 10.944444 6 9 6 z M 9 8 C 10.055556 8 11.576182 8.8421959 12.75 9.78125 C 13.51203 10.390874 13.709647 10.64744 14.046875 11 C 13.709647 11.35256 13.51203 11.609126 12.75 12.21875 C 11.576182 13.157804 10.055556 14 9 14 C 7.3315161 14 6 12.668484 6 11 C 6 9.3315161 7.3315161 8 9 8 z M 23 8 C 24.055556 8 25.576182 8.8421959 26.75 9.78125 C 27.51203 10.390874 27.709647 10.64744 28.046875 11 C 27.709647 11.35256 27.51203 11.609126 26.75 12.21875 C 25.576182 13.157804 24.055556 14 23 14 C 21.331516 14 20 12.668484 20 11 C 20 9.3315161 21.331516 8 23 8 z M 16 17 C 17.116666 17 18 17.883334 18 19 C 18 20.116666 17.116666 21 16 21 C 14.883334 21 14 20.116666 14 19 C 14 17.883334 14.883334 17 16 17 z"/></svg>