<svg xmlns="http://www.w3.org/2000/svg" viewBox="0 0 26 26"><path d="M 0 2 L 0 24 C 0 25.101563 0.898438 26 2 26 L 24 26 C 25.101563 26 26 25.101563 26 24 L 26 2 C 26 0.898438 25.101563 0 24 0 L 2 0 C 0.898438 0 0 0.898438 0 2 Z M 15.101563 16.101563 L 10.898438 16.101563 L 4.800781 21.300781 L 9.101563 16.101563 L 9.101563 14.398438 L 6.898438 15 L 9.101563 13.601563 L 9.101563 12.5 C 9.101563 11.898438 9.199219 11.300781 9.5 10.800781 L 4.101563 4.800781 L 10.398438 10 C 10.898438 9.5 11.5 9.199219 12.199219 9.101563 L 12.601563 3.800781 L 13.398438 9.101563 C 13.601563 9.101563 13.800781 9.199219 14 9.199219 L 14.898438 8.300781 L 14.699219 9.5 C 14.898438 9.601563 15 9.699219 15.199219 9.898438 L 18.398438 7.898438 L 15.800781 10.699219 C 16 11 16.199219 11.398438 16.300781 11.898438 L 17.898438 12 L 16.300781 12.601563 C 16.300781 12.800781 16.300781 13.699219 16.300781 13.699219 L 18.199219 14.699219 L 16.300781 14.5 C 16.300781 14.5 16.300781 15.800781 16.300781 16.101563 L 20.800781 21.199219 Z"/></svg>