<svg xmlns="http://www.w3.org/2000/svg" viewBox="0 0 50 50"><path d="M 0 7 L 0 39 L 50 39 L 50 7 Z M 25.761719 17 C 26.277344 17 26.765625 17.082031 27.21875 17.25 C 27.671875 17.417969 28.074219 17.648438 28.425781 17.945313 C 28.777344 18.242188 29.0625 18.601563 29.28125 19.015625 C 29.503906 19.433594 29.628906 19.898438 29.652344 20.410156 L 27.550781 20.410156 C 27.5 19.898438 27.3125 19.484375 26.988281 19.171875 C 26.664063 18.855469 26.222656 18.695313 25.671875 18.695313 C 25.289063 18.695313 24.957031 18.761719 24.683594 18.902344 C 24.402344 19.039063 24.171875 19.21875 23.980469 19.445313 C 23.789063 19.671875 23.636719 19.929688 23.519531 20.222656 C 23.402344 20.515625 23.308594 20.820313 23.234375 21.140625 C 23.160156 21.464844 23.105469 21.78125 23.078125 22.097656 C 23.046875 22.414063 23.019531 22.707031 22.996094 22.984375 L 23.03125 23.015625 C 23.3125 22.515625 23.703125 22.144531 24.203125 21.902344 C 24.699219 21.660156 25.238281 21.535156 25.816406 21.535156 C 26.457031 21.535156 27.027344 21.644531 27.53125 21.859375 C 28.035156 22.070313 28.460938 22.363281 28.8125 22.738281 C 29.164063 23.113281 29.433594 23.558594 29.613281 24.070313 C 29.800781 24.582031 29.890625 25.136719 29.890625 25.734375 C 29.890625 26.339844 29.789063 26.902344 29.585938 27.421875 C 29.382813 27.9375 29.09375 28.390625 28.710938 28.777344 C 28.328125 29.164063 27.875 29.464844 27.34375 29.679688 C 26.816406 29.894531 26.234375 30 25.59375 30 C 24.648438 30 23.871094 29.828125 23.261719 29.488281 C 22.652344 29.152344 22.171875 28.6875 21.824219 28.097656 C 21.472656 27.507813 21.230469 26.816406 21.09375 26.027344 C 20.960938 25.234375 20.890625 24.382813 20.890625 23.464844 C 20.890625 22.714844 20.976563 21.957031 21.140625 21.195313 C 21.308594 20.433594 21.582031 19.738281 21.964844 19.113281 C 22.34375 18.488281 22.847656 17.984375 23.46875 17.589844 C 24.085938 17.195313 24.851563 17 25.761719 17 Z M 25.519531 23.140625 C 25.136719 23.140625 24.804688 23.210938 24.515625 23.347656 C 24.226563 23.484375 23.980469 23.667969 23.785156 23.902344 C 23.589844 24.132813 23.445313 24.40625 23.34375 24.714844 C 23.246094 25.023438 23.195313 25.351563 23.195313 25.699219 C 23.195313 26.042969 23.246094 26.371094 23.34375 26.679688 C 23.441406 26.988281 23.589844 27.265625 23.785156 27.511719 C 23.984375 27.753906 24.226563 27.949219 24.515625 28.089844 C 24.804688 28.234375 25.136719 28.300781 25.519531 28.300781 C 25.902344 28.300781 26.230469 28.230469 26.515625 28.078125 C 26.796875 27.929688 27.035156 27.738281 27.222656 27.5 C 27.417969 27.261719 27.554688 26.984375 27.648438 26.671875 C 27.742188 26.355469 27.785156 26.03125 27.785156 25.699219 C 27.785156 25.363281 27.742188 25.042969 27.648438 24.734375 C 27.558594 24.421875 27.414063 24.152344 27.222656 23.921875 C 27.035156 23.6875 26.796875 23.5 26.515625 23.359375 C 26.234375 23.214844 25.902344 23.140625 25.519531 23.140625 Z M 11 41 C 10.640625 40.996094 10.304688 41.183594 10.121094 41.496094 C 9.941406 41.808594 9.941406 42.191406 10.121094 42.503906 C 10.304688 42.816406 10.640625 43.003906 11 43 L 39 43 C 39.359375 43.003906 39.695313 42.816406 39.878906 42.503906 C 40.058594 42.191406 40.058594 41.808594 39.878906 41.496094 C 39.695313 41.183594 39.359375 40.996094 39 41 Z"/></svg>