<svg xmlns="http://www.w3.org/2000/svg" viewBox="0 0 24 24"><path d="M 2 8 L 2 10 L 3 10 L 3 16 L 5 16 L 5 8 L 2 8 z M 8 8 C 6.9 8 6 8.89 6 10 L 6 14 C 6 15.11 6.9 16 8 16 L 9 16 C 10.1 16 11 15.11 11 14 L 11 13 C 11 11.89 10.1 11 9 11 L 8 11 L 8 10 L 11 10 L 11 8 L 8 8 z M 13 8 L 13 10 L 15 10 L 15 8 L 13 8 z M 19 8 C 17.9 8 17 8.89 17 10 L 17 11 C 17 12.11 17.9 13 19 13 L 20 13 L 20 14 L 17 14 L 17 16 L 20 16 C 21.1 16 22 15.11 22 14 L 22 10 C 22 8.89 21.1 8 20 8 L 19 8 z M 19 10 L 20 10 L 20 11 L 19 11 L 19 10 z M 8 13 L 9 13 L 9 14 L 8 14 L 8 13 z M 13 14 L 13 16 L 15 16 L 15 14 L 13 14 z"/></svg>