<svg xmlns="http://www.w3.org/2000/svg" width="512" height="512" viewBox="0 0 512 512"><path fill="#353535" d="M256,7.9C119,7.9,7.9,119,7.9,256C7.9,393,119,504.1,256,504.1c137,0,248.1-111.1,248.1-248.1C504.1,119,393,7.9,256,7.9z"/><path fill="#BC5611" d="M427.2,347.8l-38.5-109.1l-31-98.1c-0.9-2.1-3-3.5-5.3-3.5H159.6c-2.3,0-4.4,1.4-5.3,3.5l-30.9,98.1L84.6,348.3c-0.7,1.8-0.6,3.9,0.4,5.5c1,1.6,2.7,2.6,4.5,2.6c0,0,78.5,24.4,167,24.4c88.4,0,166-24.4,166-24.4h0c3,0,5.4-2.6,5.4-5.8C427.9,349.6,427.6,348.6,427.2,347.8z"/><path fill="#C6601A" d="M153.8,121.3V143c0,3.2,2.6,5.8,5.8,5.8H353c3.2,0,5.8-2.6,5.8-5.8v-21.7C358.8,118,153.8,118,153.8,121.3z"/><path fill="#D86916" d="M357.7,140.6c-0.9-2.1-202.5-2.1-203.4,0l-30.9,98.1c30.6,7.1,80.1,16.1,133.2,16.1c52.9,0,101.9-9,132.2-16L357.7,140.6z"/><g><path fill="#BC5611" d="M363.2 161.5L148.8 161.5 144.8 176.6 367.2 176.6z"/><path fill="#ED8945" d="M243.7 155.3l-37.6-11.9c-4 0-7.2 3.2-7.2 7.2v37.6c0 4 3.2 7.2 7.2 7.2l37.6-11.9c4 0 7.2-3.2 7.2-7.2v-13.7C250.8 158.5 247.6 155.3 243.7 155.3zM302.1 143.4l-37.6 11.9c-4 0-7.2 3.2-7.2 7.2v13.7c0 4 3.2 7.2 7.2 7.2l37.6 11.9c4 0 7.2-3.2 7.2-7.2v-37.6C309.3 146.6 306.1 143.4 302.1 143.4z"/><path fill="#BC5611" d="M263.1 153.5h-16.7c-1.5 0-3 .4-4.2 1.2 1.2 6.3 1.9 17.3-1.2 29.5.4.4.9.8 1.5 1.1 1.2.7 2.5 1 3.9 1h16.7c4.4 0 8-3.6 8-8v-16.7C271.1 157.1 267.5 153.5 263.1 153.5zM288.4 166l-15-2.2c-.3.1-.6.6-.6 1.1l-.2 9c0 .6.2 1 .6 1l15.2-6.8c.3-.1.6-.6.6-1.1S288.8 166 288.4 166zM240.6 165.5c0-.6-.3-1.1-.6-1.1l-15 2.2c-.3-.1-.6.4-.6 1 0 .6.3 1.1.6 1.1l15.2 6.8c.3.1.6-.4.6-1L240.6 165.5zM86.4 355.6c0 0 24.8 16.3 48.8 20.9 24 4.6 39.5-121.6 39.5-121.6L86.4 355.6zM316.3 262.3l-49.5 124.4c0 0 28.8 7 53 3.4C344 386.4 316.3 262.3 316.3 262.3z"/><path fill="#BC5611" d="M380,256.5l-57.7,120.8c0,0,28.3,8.9,52.6,6.9C399.2,382.2,380,256.5,380,256.5z"/><path fill="#BC5611" d="M381.5 259.8l-.1 114c0 0 25-3.5 43-14C442.4 349.3 381.5 259.8 381.5 259.8zM220.7 255.1L142 373c0 0 28.3 13.6 54.1 15.2C221.9 389.7 220.7 255.1 220.7 255.1z"/><path fill="#BC5611" d="M265.7,259.6l-63.4,125.3c0,0,31.2,10.1,58.1,8C287.4,390.8,265.7,259.6,265.7,259.6z"/><path fill="#A84F13" d="M161.3,292l-28.1,84.2c0.6,0.1,1.3,0.3,1.9,0.4c2.4,0.5,4.7-0.4,7-2.3L142,373L161.3,292z"/><g><path fill="#BC5611" d="M220.7,255.1L142,373c0,0,27.6,13.3,53.1,15.1l16.4-92.8l-8.7,89.8C221.7,365,220.7,255.1,220.7,255.1z"/><path fill="#A84F13" d="M195.1,388.1c0.3,0,0.6,0,0.9,0.1c2.5,0.1,4.7-1,6.7-3.1l8.7-89.8L195.1,388.1z"/></g><g><path fill="#A84F13" d="M263.3,292.2L258.1,393c0.8,0,1.6-0.1,2.3-0.1c3.1-0.2,5.6-2.2,7.5-5.5L263.3,292.2z"/></g><g><path fill="none" d="M315.6,301.4l6.3,87.9c3.1-1.7,5.2-5.9,6.4-11.8L315.6,301.4z"/></g><g><path fill="#A84F13" d="M360.5,297.3l-1.1,2.4l15.4,84.6c0,0,0,0,0,0c4.3-0.4,7.2-4.5,9.1-11.1L360.5,297.3z"/></g></g></svg>