<svg xmlns="http://www.w3.org/2000/svg" width="512" height="512" viewBox="0 0 512 512"><path fill="#49A0AE" d="M256,7.9C119,7.9,7.9,119,7.9,256C7.9,393,119,504.1,256,504.1c137,0,248.1-111.1,248.1-248.1C504.1,119,393,7.9,256,7.9z"/><path fill="#E0DFDC" d="M309.9,77.1c0,0-31,10.6-55,10.6s-55-10.6-55-10.6s-4,79.5,54.7,79.5S309.9,77.1,309.9,77.1z"/><path fill="#EFEDE6" d="M413.7,227.3c-4.3-26-16.7-60.1-46.7-119.3c-8.4-16.7-57.1-30.9-57.1-30.9s-7.5,68.8-55,68.9c-47.5,0-55-68.9-55-68.9s-48.8,14.1-57.1,30.9c-27.2,55.4-42.4,93.3-46.7,119.3S99.5,383,99.5,383s7.5,0.2,16-1.5s12-6.5,12-6.5s2.3-122.3,6-137.7c3.7-15.3,30.7-54.8,30.7-54.8L177.1,284l-16.4,111c0,13.5,17.2,16.8,38.5,16.8h111.5c21.2,0,38.5-3.3,38.5-16.8l-16.4-111l12.9-101.5c0,0,27,39.5,30.7,54.8c3.7,15.3,6,137.7,6,137.7s2.8,3.5,11.2,6.5s16.8,1.5,16.8,1.5S418,253.3,413.7,227.3z"/><path fill="#E2E0DC" d="M164.5 164c-.2-7.8-3.3-26-3.3-26s-1 29 2.9 44.5C164.1 182.5 164.8 171.8 164.5 164zM348.6 138c0 0-3.1 18.2-3.3 26s.5 18.5.5 18.5C349.6 167 348.6 138 348.6 138z"/></svg>