<svg xmlns="http://www.w3.org/2000/svg" viewBox="0 0 24 24"><path d="M12,1C5.935,1,1,5.935,1,12s4.935,11,11,11s11-4.935,11-11S18.065,1,12,1z M11,3.065C11.329,3.026,11.661,3,12,3	s0.671,0.026,1,0.065V6h-2V3.065z M6,13H3.072C3.033,12.671,3,12.34,3,12c0-0.339,0.026-0.671,0.065-1H6V13z M4.973,6.393	c0.419-0.525,0.895-1.001,1.42-1.42L8.47,7.05L7.05,8.47L4.973,6.393z M12,14c-1.06,0-1.92-0.83-1.99-1.88l-2.46-1.23l0.9-1.78	l2.45,1.22C11.22,10.12,11.59,10,12,10c1.1,0,2,0.9,2,2S13.1,14,12,14z M15.53,7.05l2.077-2.077c0.525,0.419,1.001,0.895,1.42,1.42	L16.95,8.47L15.53,7.05z M18,13v-2h2.935C20.974,11.329,21,11.661,21,12c0,0.34-0.033,0.671-0.072,1H18z"/></svg>