<svg xmlns="http://www.w3.org/2000/svg" viewBox="0 0 24 24"><path d="M 10.90625 6 C 9.15625 6 7.484375 6.957031 6.5 8.5 C 6.484375 8.527344 6.453125 8.535156 6.4375 8.5625 L 6.46875 8.59375 C 5.816406 9.503906 5.480469 10.863281 5.53125 12.53125 C 4.800781 12.800781 4.050781 13.042969 3.5 13.59375 C 2.425781 14.667969 2.03125 16.164063 2.15625 17.65625 C 0.9375 18.441406 0 19.746094 0 21.5 L 0 24 L 2 24 L 2 21.5 C 2 20.152344 2.660156 19.382813 3.5 19.03125 L 4.25 18.71875 L 4.0625 17.875 C 3.828125 16.785156 4.140625 15.765625 4.90625 15 C 5.347656 14.558594 5.972656 14.226563 6.71875 14.0625 L 7.59375 13.875 L 7.5 13 C 7.320313 11.285156 7.679688 10.242188 8.09375 9.6875 L 8.15625 9.625 C 8.78125 8.613281 9.886719 8 10.90625 8 C 12.332031 8 13.230469 8.496094 13.96875 9.5625 L 14.03125 9.625 C 14.378906 10.039063 14.644531 10.722656 14.71875 11.25 L 14.84375 12.1875 L 15.8125 12.09375 C 16.496094 12.019531 17.152344 12.164063 17.625 12.5 L 17.625 12.53125 L 17.65625 12.53125 C 18.890625 13.355469 19.140625 14.285156 19.21875 15 L 19.21875 15.125 L 19.25 15.21875 C 19.222656 15.140625 19.1875 15.289063 19.1875 15.8125 L 19.1875 16.40625 L 19.75 16.6875 C 20.269531 16.949219 20.710938 17.269531 20.96875 17.65625 L 21 17.6875 C 21.597656 18.507813 21.59375 19.328125 21.34375 20.25 L 21.1875 20.71875 L 21.53125 21.125 C 21.675781 21.308594 22 22.101563 22 24 L 24 24 C 24 22.1875 23.753906 21.117188 23.28125 20.3125 C 23.519531 19.125 23.5 17.757813 22.625 16.53125 C 22.617188 16.515625 22.601563 16.515625 22.59375 16.5 C 22.203125 15.929688 21.6875 15.652344 21.1875 15.34375 C 21.210938 15.183594 21.210938 15.0625 21.15625 14.78125 L 21.1875 14.78125 C 21.183594 14.753906 21.160156 14.714844 21.15625 14.6875 C 21.144531 14.636719 21.171875 14.644531 21.15625 14.59375 L 21.125 14.59375 C 20.96875 13.519531 20.425781 12.023438 18.78125 10.90625 L 18.78125 10.875 C 18.773438 10.871094 18.757813 10.878906 18.75 10.875 C 18.027344 10.367188 17.179688 10.152344 16.3125 10.125 C 16.136719 9.554688 15.996094 8.976563 15.59375 8.46875 L 15.625 8.4375 C 15.609375 8.414063 15.582031 8.398438 15.5625 8.375 C 14.5 6.886719 12.847656 6 10.90625 6 Z M 11 11.40625 C 9.898438 11.40625 7.699219 12.800781 9.5 17 C 8.898438 16.199219 7.398438 16.101563 6.5 17 C 5.601563 17.898438 5.914063 19.414063 6.8125 20.3125 C 6.613281 20.011719 4.5 20.101563 4.5 22 C 4.5 23.5 5.695313 24 6.09375 24 L 9.40625 24 L 6.8125 22.59375 L 9.6875 22.5 L 7.6875 18.5 L 10.90625 20.90625 L 11.09375 14.3125 L 12.5 20.40625 L 15.1875 16.90625 L 13.8125 22.09375 L 17.59375 20.1875 L 14.40625 23.1875 L 18.09375 23.09375 L 14.8125 24 L 18.5 24 C 18.898438 24 19.40625 23.585938 19.40625 22.6875 C 19.507813 21.886719 18.386719 21.488281 18.1875 21.6875 C 18.886719 21.1875 19.289063 19.988281 18.6875 19.1875 C 18.1875 18.488281 17.289063 18.1875 16.1875 18.6875 C 16.988281 17.886719 17.695313 16.199219 16.09375 15 C 15.292969 14.398438 13.8125 14.792969 13.3125 15.59375 C 13.710938 14.394531 13.601563 11.40625 11 11.40625 Z"/></svg>