<?xml version="1.0"?><svg xmlns="http://www.w3.org/2000/svg" viewBox="0 0 128 128">    <path d="M 41.5 6 C 19.2 6 1 24.2 1 46.5 C 1 68.8 19.2 87 41.5 87 C 43.2 87 44.5 85.7 44.5 84 C 44.5 82.3 43.2 81 41.5 81 C 22.5 81 7 65.5 7 46.5 C 7 27.5 22.5 12 41.5 12 C 55.4 12 67.799219 20.2 73.199219 33 C 73.899219 34.5 75.599609 35.199609 77.099609 34.599609 C 78.599609 33.999609 79.299219 32.199219 78.699219 30.699219 C 72.399219 15.699219 57.8 6 41.5 6 z M 101.5 36 C 90.6 36 80.800781 43.000781 77.300781 53.300781 C 76.800781 54.900781 77.599219 56.599609 79.199219 57.099609 C 80.799219 57.599609 82.5 56.799219 83 55.199219 C 85.7 47.299219 93.1 42 101.5 42 C 112.3 42 121 50.7 121 61.5 C 121 72.3 112.3 81 101.5 81 C 99.8 81 98.5 82.3 98.5 84 C 98.5 85.7 99.8 87 101.5 87 C 115.6 87 127 75.6 127 61.5 C 127 47.4 115.6 36 101.5 36 z M 62.701172 86.328125 C 62.119922 86.283594 61.525 86.399219 61 86.699219 C 59.6 87.499219 59.100391 89.400781 59.900391 90.800781 L 65.800781 101 L 54 101 C 52.3 101 51 102.3 51 104 C 51 105.7 52.3 107 54 107 L 65.800781 107 L 59.900391 117.19922 C 59.100391 118.59922 59.6 120.50078 61 121.30078 C 61.5 121.60078 62 121.69922 62.5 121.69922 C 63.5 121.69922 64.499609 121.19922 65.099609 120.19922 L 71 110 L 76.900391 120.19922 C 77.500391 121.19922 78.5 121.69922 79.5 121.69922 C 80 121.69922 80.5 121.60078 81 121.30078 C 82.4 120.50078 82.899609 118.59922 82.099609 117.19922 L 76.199219 107 L 88 107 C 89.7 107 91 105.7 91 104 C 91 102.3 89.7 101 88 101 L 76.199219 101 L 82.099609 90.800781 C 82.899609 89.300781 82.4 87.499219 81 86.699219 C 79.6 85.899219 77.700391 86.400781 76.900391 87.800781 L 71 98 L 65.099609 87.800781 C 64.599609 86.925781 63.669922 86.402344 62.701172 86.328125 z"/></svg>