<svg xmlns="http://www.w3.org/2000/svg" viewBox="0 0 24 24"><path d="M 15.5 0 C 14.121094 0 13 1.121094 13 2.5 C 13 3.878906 14.121094 5 15.5 5 C 16.878906 5 18 3.878906 18 2.5 C 18 1.121094 16.878906 0 15.5 0 Z M 12.40625 5.21875 C 12.210938 5.230469 12.0625 5.246094 11.90625 5.28125 C 11.894531 5.28125 11.886719 5.28125 11.875 5.28125 C 11.683594 5.292969 11.5 5.355469 11.34375 5.46875 L 7.625 7.96875 C 7.589844 7.996094 7.558594 8.027344 7.53125 8.0625 L 4.90625 10.46875 C 4.5 10.847656 4.480469 11.484375 4.859375 11.890625 C 5.238281 12.296875 5.875 12.316406 6.28125 11.9375 L 8.75 9.625 L 8.84375 9.5625 L 8.875 9.53125 L 11 8.125 L 8.53125 14.03125 L 7.375 16.21875 C 7.054688 16.839844 7.300781 17.601563 7.921875 17.921875 C 8.542969 18.242188 9.304688 17.996094 9.625 17.375 L 9.78125 17.0625 L 9.8125 17.09375 L 11.90625 14.09375 L 11.0625 17.59375 L 9.3125 22.375 C 9.078125 23.03125 9.421875 23.75 10.078125 23.984375 C 10.734375 24.21875 11.453125 23.875 11.6875 23.21875 L 14.96875 14.125 C 15.023438 13.996094 15.054688 13.859375 15.0625 13.71875 L 16.90625 8.40625 C 16.90625 8.40625 16.953125 8.277344 16.96875 8.25 L 18.8125 9.25 L 20.875 12.4375 C 21.046875 12.785156 21.402344 13 21.789063 12.992188 C 22.175781 12.988281 22.523438 12.757813 22.683594 12.402344 C 22.84375 12.050781 22.78125 11.636719 22.53125 11.34375 L 20.34375 7.96875 C 20.25 7.824219 20.121094 7.707031 19.96875 7.625 L 17.6875 6.40625 C 17.605469 6.347656 17.492188 6.277344 17.375 6.21875 C 17.324219 6.183594 17.273438 6.152344 17.21875 6.125 C 16.054688 5.597656 13.796875 5.128906 12.40625 5.21875 Z M 4.5 19 C 3.121094 19 2 20.121094 2 21.5 C 2 22.878906 3.121094 24 4.5 24 C 5.878906 24 7 22.878906 7 21.5 C 7 20.121094 5.878906 19 4.5 19 Z"/></svg>