<svg xmlns="http://www.w3.org/2000/svg" width="512" height="512" viewBox="0 0 512 512"><path fill="#14B6B9" d="M365.6,294.1c-1.6-20.4-23.8-36.1-43.5-33.8c-11.4,1.3-22.8,7.2-29.5,16.7c-4.9,7-11.3,20.8-4.3,28.4c2.2,2.4,1.8,5.4,0.4,7.4c0.1,0.8,0.2,1.6,0.6,2.4c3.7,8.5,14.7,14.1,22.9,17c8.3,2.9,18.1,2.5,26.4-0.5C353.8,326.1,366.9,311.2,365.6,294.1z M338.7,309.4c-8.6,6.2-21.5,5.8-31,2c-1.6-0.7-3-2.7-3-4.5c0-1.7,0.1-3.3,0.4-4.8c-2-2.8-1.6-6.8,2-9.1c3.2-2.1,6.5-0.4,7.9,2.3c2.6,0.3,6.7,0.3,7.3-0.3c1.6-1.9,1.9-4.6,2-7.3c-0.5-0.5-0.9-1.1-1.3-1.8c-0.9-1.9-0.9-4.2,0-6c1.8-3.7,5.9-3.5,9.1-2.2c1.4,0.6,2.6,2.2,2.9,3.7c5.9,3.1,9.8,6.7,10,14.2C345.2,300.9,343.3,306.1,338.7,309.4z"/><path fill="#14B6B9" d="M334.1,296.3c0-0.3-0.1-0.6-0.1-0.9c-0.6,2.1-1.4,4.1-2.6,5.8C333.1,300.1,334.3,298.4,334.1,296.3z"/><path fill="#D6E5E5" d="M380.5,250.3c-7.9-9.7-17.9-15.9-30.1-18.5c-12.5-2.6-25.3-2.6-38-3.4c-1.2-0.1-2.2-0.5-3.1-1.1c-7.6-1.6-7.3-11.7-5.9-17.9c1.6-6.8,4.7-13,8.5-18.9c7.3-11.5,18.9-23.9,20.1-38c0.9-11.2,0.3-25.9-10.4-32.6c-6.7-4.2-14.3-5.8-21.8-8c-8.6-2.5-17.5-5.1-25.5-9.4c-5.6-3-10.3-6.7-15-11c-3.8-3.5-7.9-7.4-12.8-9.2c-4.8-1.8-9.3,0.2-12.4,4.1c-1.5,2-2.1,3.3-1.7,5.4c0.8,4.6,7.5,9.4,11.7,12.2c6.5,4.4,13.7,7.9,20.7,11.4c5.6,2.8,11.6,5.4,16.6,9.2c7.7,5.9,13.7,14.7,15.9,24.1c5.4,22.2-10.7,40.9-30,49.3c-4,1.7-6.8-1.5-7-4.8c-0.5-0.7-0.8-1.7-0.8-2.8c0-6.9-0.2-14.1-2.1-20.7c-3.3-11.3-10.9-22-21.1-28.1c-9.4-5.7-19.9-9.1-29.8-13.8c-8.7-4.1-17.7-9.2-23.4-17.2c-4.7-6.5-8.2-13.8-12.9-20.3c-1-1.3-1.9-2.6-3.2-3.7c-0.2-0.2-0.4-0.3-0.5-0.4c0,0,0,0,0,0.1c-1,1.8-1.9,3.7-2.5,5.8c-3,10.5-3,21.3,2.8,30.8c9.9,16.3,26.9,26.6,40.2,39.9c6.4,6.4,12.5,13.1,17.8,20.4c5.2,7,10.6,15.1,12.5,23.8c1.7,7.9,0.8,15.7-5.7,21.2c-5.9,5-14.2,5.4-21.4,3.4c-17.5-4.8-32.9-17-46.2-28.9c-16.7-14.9-30.8-34.8-30.8-57.9c0-10.7,0.7-24.2-7.8-32.2c-4.8-4.5-11.6-7.7-18.3-7.7c-5.1,0-11.4,1.1-13.4,6.4c-3.2,8.7,5.6,19,10.1,25.4c8,11.3,13.4,22.7,17.5,35.9c2.1,6.7,3.9,13.6,6.8,20.1c2.7,6,6.3,11.2,10.4,16.2c16.1,20,37.3,40.4,63.1,46.2c3.1,0.7,4.4,3.2,4.2,5.7c1.8,1.5,2.8,3.9,1.6,6.5c-6.7,15.8-23.1,30.8-40,34.8c-7.4,1.8-15.2,1.9-21.9-2.2c-5.9-3.6-9.7-9.6-12.1-15.9c-5.1-13.4-4.6-29.8-12.8-41.9c-8.1-12-24.3-14.5-37.6-10.9c-1.1,0.3-8,2.2-7.8,3.5c0.6,3.6,7.5,7,10.2,8.7c7,4.5,14.8,8.8,18.3,16.8c4.4,10.3,1.1,21.8,2.4,32.6c1.4,11.3,6.5,21.4,14.5,29.6c18.6,18.9,44.9,25.1,69.2,13.7c11.8-5.6,21.4-14.2,30.8-23.2c8.6-8.1,17.2-15.9,29.4-17.6c6.2-0.9,7.6,7.6,2.9,10.3c0.3,16.4,5.6,32.3,18.6,43c12.2,10.1,28,14.6,43.6,15.6c19.6,1.2,41.4-2.3,57.4-14.5c14.6-11.1,23.4-28.1,24.9-46.4C398.9,284.4,392.5,265.1,380.5,250.3z M369.2,320.7c-11,16.4-28.5,24.7-48.1,24.2c-9.7-0.2-19.2-4.4-27.2-9.7c-7.7-5.1-15.8-12.5-16.2-22.4c0-1.1,0.2-2.1,0.6-2.9c-5.9-9.4-4.2-21.4,0.7-31.3c5.8-12,15.8-21.3,28.4-26c22-8.2,47.5-0.6,61.2,18.7C378.9,286,379.2,305.8,369.2,320.7z"/><path fill="#F26322" d="M455.4,154.8c-21.3-43.4-61.6-77.5-104.2-99C308.4,34.2,259,22.8,211.1,30.3C132.2,42.8,55.8,100.6,33.2,178.2c0,0.9-0.2,1.7-0.7,2.6c-0.4,1.4-0.8,2.9-1.1,4.3c-0.5,1-1,2-1.4,3.1c-0.1,0.9-0.3,1.9-0.4,2.7c-0.9,4.1-2,8.2-2.7,12.3c-1.4,7.7-1.1,15.7-3.8,23c-0.2,2.1-0.5,4.2-0.8,6.3c0,0.3,0,0.5,0,0.7c-0.5,4.4-0.9,8.8-1.3,13.2c-0.8,9.2-1.2,18.4-1.1,27.6c0.3,18.1,2.4,36.2,6.9,53.7c8.7,33.3,25.5,64.8,52,87.3c18.2,15.5,39.5,25.7,62.4,32.3c25,7.3,51,11.4,77.1,11.5c51.5,0.1,103.2-13.9,145.6-43.7C442.3,360,501.4,248.3,455.4,154.8z M407.3,312.2c-3.4,18.5-13.3,35.6-28.6,46.8c-16.6,12.1-37.8,16.8-58.1,16.5c-19.2-0.3-39.2-4.8-54.6-17c-15.2-12.1-22.9-29.8-23.9-48.8c-5.7,3.2-10.4,8.2-15.1,12.6c-8,7.4-15.9,14.9-25.4,20.3c-18.1,10.2-39.1,14.1-59.1,7.1c-19-6.6-37-22.1-43.9-41.4c-3.3-9.4-4.2-19.2-3.6-29.1c0.4-6.5,0.7-14.1-4.6-18.8c-7.2-6.3-17.9-9.7-23.4-17.9c-5.6-8.2-1-16.2,7.4-19.7c17.7-7.4,42.4-4.7,54.2,11.6c5.9,8.2,8.3,17.8,10.3,27.5c1.8,8.5,3.2,18.7,8.7,25.7c6.3,8,17.6,5.2,25.4,0.8c9.6-5.4,18.3-13.1,23.3-23c-22.9-6.1-42.5-22.2-58-39.6c-8.8-9.8-17.2-19.9-21.9-32.3c-4.8-12.7-7.1-27-14.1-38.7c-6.1-10.3-16-20-19-31.9c-1.8-7.3-1.9-15.8,3.8-21.5c10.9-11,29.5-8.2,41.2-0.1c7.9,5.4,12.7,13.9,14.5,23.2c1.4,7.1,1.1,14.3,1.2,21.5c0.1,6.8,1.4,13,4.3,19.2c8.2,17.7,23,31,38.5,42.3c7.1,5.2,15.1,10.6,23.6,13.1c4.9,1.5,13.3,3.2,16-2.8c2.8-6.1-1.9-14.4-5-19.5c-4.8-7.9-10.7-15.3-17-22.1c-12.7-13.5-28.4-23.9-40.3-38c-6.5-7.7-11.7-16.9-12.9-27.2c-1.1-10,0.5-22.8,6.7-31.1c11.8-15.7,25.3,10.5,30.4,18.7c4.8,7.9,10.1,12.9,18.4,17.3c9.8,5.1,20.4,8.4,30.1,13.6c10.5,5.6,18.4,13,24.8,23.1c6.2,9.8,8.4,20.6,8.9,31.9c10.2-6.5,18.4-17,16.8-29.7c-1-7.6-5.1-14.4-10.7-19.4c-2.9-2.6-5-3.8-8.9-5.9c-10.1-5.2-20.5-10-29.9-16.4c-7-4.7-16.9-12.4-16.3-22c0.4-8,5.9-15.5,13.5-18.5c11.2-4.5,21.6,1.9,29.8,9.2c4.6,4.2,9,8.3,14.6,11.2c5.7,3,11.8,5.2,17.9,7c10.9,3.3,23.1,5.3,32.3,12.4c15.1,11.7,17.4,36.3,10.6,53.1c-4.1,10.2-10.9,18.9-16.8,28c-4.1,6.4-9.5,14.4-9.4,22.4c0.7,0.5,1.3,1.1,1.7,1.9c13.8,0.6,28,0.5,41.3,4.4c14.2,4.1,25.5,12.1,34.4,24C405,264.8,411.6,289.1,407.3,312.2z"/><path d="M455.1,133.9c-25.2-40.4-65.9-71.6-108.7-91.6C303.1,22.2,253.6,12.8,206.2,21c-81.8,14.2-160,74.7-182.9,155.6c-3.3,5.5-3.8,13.1-5.2,19.2c-1,4.3-1.7,8.7-2.3,13.1c-0.1,0.4-0.1,0.9-0.2,1.3c-0.1,0.3-0.2,0.5-0.2,0.8c-0.8,4.2-1.5,8.4-2.1,12.6c0,0.1-0.1,0.1-0.1,0.2c-0.5,1.2-0.6,2.3-0.4,3.2c-1,8.1-1.7,16.2-2.3,24.3c-0.8,11.4-0.9,22.9-0.3,34.3c1.3,22.3,5.6,44.5,13.3,65.5c15.3,41.8,45.5,76.5,86.1,95.3c23.1,10.6,48.8,16.7,73.9,20c25.5,3.3,51.5,3.1,77-0.6c50.9-7.4,98.5-29.7,136.1-64.8c36.4-33.9,65-77.6,78.1-125.8C487.9,227.3,481.6,176.4,455.1,133.9z M363.8,415.2c-42.4,29.8-94.1,43.8-145.6,43.7c-26.1-0.1-52.1-4.2-77.1-11.5c-22.9-6.7-44.2-16.8-62.4-32.3c-26.5-22.5-43.3-54-52-87.3c-4.5-17.5-6.6-35.6-6.9-53.7c-0.2-9.2,0.2-18.4,1.1-27.6c0.4-4.4,0.8-8.8,1.3-13.2c0-0.2,0-0.5,0-0.7c0.3-2.1,0.6-4.2,0.8-6.3c2.7-7.3,2.4-15.4,3.8-23c0.8-4.1,1.8-8.2,2.7-12.3c0.2-0.8,0.3-1.7,0.4-2.7c0.4-1,0.9-2.1,1.4-3.1c0.4-1.4,0.7-2.9,1.1-4.3c0.5-0.9,0.8-1.8,0.7-2.6c22.6-77.6,99-135.5,177.9-147.9c47.9-7.6,97.3,3.8,140.1,25.5c42.6,21.5,82.8,55.7,104.2,99C501.4,248.3,442.3,360,363.8,415.2z"/><path d="M368.5,271.4c-13.7-19.3-39.3-26.9-61.2-18.7c-12.5,4.7-22.6,14.1-28.4,26c-4.9,10-6.6,21.9-0.7,31.3c-0.4,0.8-0.7,1.8-0.6,2.9c0.4,9.8,8.5,17.3,16.2,22.4c8,5.3,17.5,9.5,27.2,9.7c19.6,0.5,37.1-7.8,48.1-24.2C379.2,305.8,378.9,286,368.5,271.4z M338.5,331.7c-8.3,3-18,3.5-26.4,0.5c-8.2-2.9-19.2-8.5-22.9-17c-0.4-0.8-0.5-1.6-0.6-2.4c1.4-2.1,1.8-5.1-0.4-7.4c-7-7.6-0.6-21.4,4.3-28.4c6.7-9.5,18.1-15.3,29.5-16.7c19.8-2.3,41.9,13.4,43.5,33.8C366.9,311.2,353.8,326.1,338.5,331.7z"/><path d="M345,295.4c-0.2-7.5-4.1-11.1-10-14.2c-0.3-1.6-1.5-3.2-2.9-3.7c-3.2-1.3-7.3-1.5-9.1,2.2c-0.9,1.9-0.9,4.1,0,6c0.3,0.7,0.8,1.3,1.3,1.8c0,2.7-0.4,5.4-2,7.3c-0.6,0.7-4.7,0.7-7.3,0.3c-1.4-2.7-4.7-4.4-7.9-2.3c-3.6,2.4-4,6.3-2,9.1c-0.3,1.5-0.4,3.1-0.4,4.8c0,1.8,1.4,3.8,3,4.5c9.5,3.8,22.4,4.3,31-2C343.3,306.1,345.2,300.9,345,295.4z M331.3,301.1c1.2-1.7,2-3.7,2.6-5.8c0.1,0.3,0.1,0.6,0.1,0.9C334.3,298.4,333.1,300.1,331.3,301.1z"/><path d="M391.1,246.1c-8.8-11.9-20.1-19.9-34.4-24c-13.3-3.8-27.5-3.8-41.3-4.4c-0.4-0.8-1-1.5-1.7-1.9c0-8.1,5.3-16,9.4-22.4c5.9-9.2,12.7-17.8,16.8-28c6.8-16.8,4.5-41.4-10.6-53.1c-9.2-7.1-21.4-9.1-32.3-12.4c-6.2-1.9-12.2-4.1-17.9-7c-5.6-2.9-9.9-7-14.6-11.2c-8.2-7.4-18.6-13.8-29.8-9.2c-7.5,3-13,10.5-13.5,18.5c-0.5,9.6,9.3,17.3,16.3,22c9.5,6.4,19.8,11.1,29.9,16.4c4,2.1,6.1,3.3,8.9,5.9c5.6,5.1,9.7,11.9,10.7,19.4c1.6,12.7-6.6,23.2-16.8,29.7c-0.5-11.3-2.7-22.1-8.9-31.9c-6.4-10-14.3-17.5-24.8-23.1c-9.7-5.2-20.3-8.5-30.1-13.6c-8.3-4.4-13.6-9.4-18.4-17.3c-5-8.2-18.6-34.5-30.4-18.7c-6.2,8.3-7.8,21.1-6.7,31.1c1.1,10.2,6.3,19.4,12.9,27.2c12,14.1,27.7,24.5,40.3,38c6.4,6.8,12.2,14.1,17,22.1c3.1,5.1,7.8,13.4,5,19.5c-2.8,6-11.1,4.3-16,2.8c-8.5-2.5-16.4-8-23.6-13.1c-15.5-11.3-30.3-24.6-38.5-42.3c-2.9-6.2-4.1-12.4-4.3-19.2c-0.1-7.2,0.2-14.4-1.2-21.5c-1.8-9.3-6.6-17.8-14.5-23.2C116.5,93,97.9,90.2,87,101.2c-5.7,5.7-5.7,14.3-3.8,21.5c3,11.9,12.9,21.6,19,31.9c7,11.8,9.2,26,14.1,38.7c4.7,12.5,13.1,22.5,21.9,32.3c15.6,17.3,35.1,33.4,58,39.6c-5,9.9-13.7,17.6-23.3,23c-7.7,4.4-19,7.2-25.4-0.8c-5.6-7-6.9-17.2-8.7-25.7c-2.1-9.7-4.4-19.3-10.3-27.5c-11.8-16.3-36.5-19-54.2-11.6c-8.4,3.5-13,11.5-7.4,19.7c5.5,8.1,16.1,11.6,23.4,17.9c5.4,4.7,5,12.3,4.6,18.8c-0.6,9.9,0.2,19.7,3.6,29.1c6.9,19.3,25,34.8,43.9,41.4c20,7,41,3.2,59.1-7.1c9.5-5.4,17.4-12.9,25.4-20.3c4.7-4.4,9.5-9.4,15.1-12.6c1,19,8.7,36.7,23.9,48.8c15.4,12.2,35.3,16.7,54.6,17c20.3,0.4,41.6-4.3,58.1-16.5c15.3-11.2,25.2-28.3,28.6-46.8C411.6,289.1,405,264.8,391.1,246.1z M397.4,303.5c-1.5,18.2-10.2,35.3-24.9,46.4c-16,12.1-37.7,15.7-57.4,14.5c-15.6-1-31.4-5.5-43.6-15.6c-13-10.7-18.3-26.6-18.6-43c4.6-2.6,3.3-11.1-2.9-10.3c-12.1,1.7-20.8,9.4-29.4,17.6c-9.4,8.9-18.9,17.6-30.8,23.2c-24.3,11.4-50.6,5.3-69.2-13.7c-8-8.2-13-18.3-14.5-29.6c-1.4-10.8,2-22.3-2.4-32.6c-3.4-8-11.3-12.3-18.3-16.8c-2.7-1.8-9.7-5.2-10.2-8.7c-0.2-1.3,6.7-3.2,7.8-3.5c13.4-3.7,29.5-1.1,37.6,10.9c8.2,12.1,7.7,28.5,12.8,41.9c2.4,6.3,6.2,12.4,12.1,15.9c6.7,4.1,14.5,4,21.9,2.2c16.8-4,33.3-19.1,40-34.8c1.1-2.7,0.1-5.1-1.6-6.5c0.1-2.5-1.2-5-4.2-5.7c-25.8-5.8-47-26.2-63.1-46.2c-4.1-5.1-7.7-10.3-10.4-16.2c-2.9-6.5-4.7-13.3-6.8-20.1c-4.1-13.2-9.6-24.6-17.5-35.9c-4.5-6.4-13.3-16.7-10.1-25.4c2-5.4,8.2-6.5,13.4-6.4c6.7,0,13.5,3.2,18.3,7.7c8.6,8,7.8,21.5,7.8,32.2c0.1,23.1,14.2,43,30.8,57.9c13.3,11.9,28.7,24.1,46.2,28.9c7.2,2,15.5,1.5,21.4-3.4c6.5-5.5,7.4-13.3,5.7-21.2c-1.9-8.7-7.3-16.8-12.5-23.8c-5.3-7.3-11.4-14.1-17.8-20.4c-13.3-13.2-30.3-23.6-40.2-39.9c-5.8-9.5-5.8-20.3-2.8-30.8c0.6-2,1.4-3.9,2.5-5.8c0,0,0,0,0-0.1c0.2,0.1,0.3,0.2,0.5,0.4c1.3,1.1,2.2,2.4,3.2,3.7c4.8,6.5,8.3,13.8,12.9,20.3c5.7,8,14.8,13,23.4,17.2c9.9,4.7,20.4,8.1,29.8,13.8c10.2,6.2,17.7,16.8,21.1,28.1c2,6.6,2.1,13.8,2.1,20.7c0,1.1,0.3,2.1,0.8,2.8c0.2,3.4,3.1,6.6,7,4.8c19.2-8.4,35.3-27.1,30-49.3c-2.3-9.4-8.3-18.2-15.9-24.1c-5-3.8-11-6.4-16.6-9.2c-7-3.5-14.1-7-20.7-11.4c-4.2-2.8-10.9-7.7-11.7-12.2c-0.4-2.1,0.1-3.4,1.7-5.4c3.1-3.9,7.6-5.9,12.4-4.1c5,1.8,9,5.7,12.8,9.2c4.7,4.2,9.4,7.9,15,11c7.9,4.3,16.9,6.9,25.5,9.4c7.5,2.2,15.1,3.9,21.8,8c10.7,6.7,11.4,21.4,10.4,32.6c-1.2,14.1-12.8,26.6-20.1,38c-3.7,5.9-6.9,12.1-8.5,18.9c-1.4,6.1-1.7,16.3,5.9,17.9c0.8,0.6,1.9,1,3.1,1.1c12.7,0.7,25.5,0.8,38,3.4c12.2,2.5,22.2,8.8,30.1,18.5C392.5,265.1,398.9,284.4,397.4,303.5z"/></svg>