<svg xmlns="http://www.w3.org/2000/svg" viewBox="0 0 26 26"><path d="M 1.46875 0 L 0 1.46875 L 2.75 4.25 L 1 6 L 6 6 L 6 1 L 4.25 2.75 Z M 24.53125 0 L 21.75 2.75 L 20 1 L 20 6 L 25 6 L 23.25 4.25 L 26 1.46875 Z M 13 6 C 11.898438 6 11 6.898438 11 8 C 11 9.101563 11.898438 10 13 10 C 14.101563 10 15 9.101563 15 8 C 15 6.898438 14.101563 6 13 6 Z M 8 8 C 6.894531 8 6 8.894531 6 10 C 6 11.105469 6.894531 12 8 12 C 9.105469 12 10 11.105469 10 10 C 10 8.894531 9.105469 8 8 8 Z M 18 8 C 16.894531 8 16 8.894531 16 10 C 16 11.105469 16.894531 12 18 12 C 19.105469 12 20 11.105469 20 10 C 20 8.894531 19.105469 8 18 8 Z M 13 11 C 11.898438 11 11 11.898438 11 13 C 11 14.101563 11.898438 15 13 15 C 14.101563 15 15 14.101563 15 13 C 15 11.898438 14.101563 11 13 11 Z M 8 13 C 5.800781 13 4 13.898438 4 15 L 4 17 L 8.3125 17 C 8.710938 16.199219 9.699219 15.488281 11 15.1875 C 10.398438 14.6875 10.101563 14.113281 10 13.3125 C 9.398438 13.113281 8.800781 13 8 13 Z M 18 13 C 17.199219 13 16.601563 13.113281 16 13.3125 C 15.898438 14.113281 15.601563 14.6875 15 15.1875 C 16.300781 15.488281 17.289063 16.199219 17.6875 17 L 22 17 L 22 15 C 22 13.898438 20.199219 13 18 13 Z M 13 16 C 10.800781 16 9 16.898438 9 18 L 9 20 L 17 20 L 17 18 C 17 16.898438 15.199219 16 13 16 Z M 1 20 L 2.75 21.75 L 0 24.53125 L 1.46875 26 L 4.25 23.25 L 6 25 L 6 20 Z M 20 20 L 20 25 L 21.75 23.25 L 24.53125 26 L 26 24.53125 L 23.25 21.75 L 25 20 Z"/></svg>