<?xml version="1.0"?><svg xmlns="http://www.w3.org/2000/svg" viewBox="0 0 128 128">    <path d="M 20.900391 41 C 18.300391 41 15.900391 42.200781 14.400391 44.300781 C 12.900391 46.400781 12.500781 49.1 13.300781 51.5 C 13.700781 52.8 14.899609 53.599609 16.099609 53.599609 C 16.399609 53.599609 16.7 53.600391 17 53.400391 C 18.6 52.900391 19.400391 51.199609 18.900391 49.599609 C 18.700391 48.999609 18.799219 48.300781 19.199219 47.800781 C 19.599219 47.300781 20.200781 47 20.800781 47 L 96.699219 47 C 99.699219 47 102.40078 48.900781 103.30078 51.800781 L 119 98.400391 C 119.3 99.200391 119.00078 99.799609 118.80078 100.09961 C 118.50078 100.59961 118.00039 100.9 117.40039 101 C 115.80039 101.3 114.60039 102.80039 114.90039 104.40039 C 115.10039 105.90039 116.40039 106.90039 117.90039 106.90039 L 118.40039 106.90039 C 120.70039 106.50039 122.8 105.19922 124 103.19922 C 125.1 101.09922 125.39961 98.7 124.59961 96.5 L 109.09961 49.900391 C 107.29961 44.600391 102.40078 41 96.800781 41 L 20.900391 41 z M 10.900391 61 C 8.3003906 61 5.9003906 62.200781 4.4003906 64.300781 C 2.9003906 66.400781 2.5007813 69.1 3.3007812 71.5 L 10.800781 94.099609 L 3 123.19922 C 2.6 124.79922 3.4996094 126.40039 5.0996094 126.90039 C 5.4996094 127.00039 5.7 127 6 127 C 7.3 127 8.5003906 126.10078 8.9003906 124.80078 L 16.900391 94.800781 L 16.900391 94.5 L 16.900391 94.199219 L 16.900391 93.800781 L 16.900391 93.599609 C 16.900391 93.499609 16.800781 93.299219 16.800781 93.199219 L 16.800781 93.099609 L 9 69.599609 C 8.8 68.999609 8.9007812 68.300781 9.3007812 67.800781 C 9.7007813 67.300781 10.300391 67 10.900391 67 L 86.800781 67 C 89.800781 67 92.500391 68.900781 93.400391 71.800781 L 99.800781 91 L 76.199219 91 L 70.199219 73.099609 C 69.699219 71.499609 68.000391 70.699219 66.400391 71.199219 C 64.800391 71.699219 64 73.4 64.5 75 L 69.800781 91 L 46.199219 91 L 40.199219 73.099609 C 39.699219 71.499609 38.000391 70.699219 36.400391 71.199219 C 34.800391 71.699219 34 73.4 34.5 75 L 39.800781 91 L 24.699219 91 C 22.999219 91 21.699219 92.3 21.699219 94 C 21.699219 95.7 22.999219 97 24.699219 97 L 44 97 L 44.099609 97 L 44.199219 97 L 74.099609 97 L 74.199219 97 L 74.300781 97 L 102.09961 97 L 109.19922 118.40039 C 109.39922 119.00039 109.30039 119.69922 108.90039 120.19922 C 108.50039 120.69922 107.90078 121 107.30078 121 L 86.199219 121 L 80.199219 103.09961 C 79.699219 101.49961 78.000391 100.69922 76.400391 101.19922 C 74.800391 101.69922 74 103.4 74.5 105 L 79.900391 121.09961 L 56.199219 121.09961 L 50.199219 103.19922 C 49.699219 101.59922 48.000391 100.80078 46.400391 101.30078 C 44.800391 101.80078 44 103.49961 44.5 105.09961 L 49.900391 121.19922 L 31.199219 121.19922 C 28.199219 121.19922 25.499609 119.30039 24.599609 116.40039 L 23.5 113.19922 C 23 111.59922 21.299219 110.80078 19.699219 111.30078 C 18.099219 111.80078 17.300781 113.49961 17.800781 115.09961 L 18.900391 118.30078 C 20.700391 123.60078 25.599219 127.19922 31.199219 127.19922 L 54 127.19922 L 84 127.19922 L 107.09961 127.19922 C 109.69961 127.19922 112.09961 126.00039 113.59961 123.90039 C 115.09961 121.80039 115.49922 119.09922 114.69922 116.69922 L 99.099609 69.900391 C 97.299609 64.600391 92.400781 61 86.800781 61 L 10.900391 61 z"/></svg>