<svg xmlns="http://www.w3.org/2000/svg" viewBox="0 0 30 30"><path d="M 14.984375 -0.013671875 A 1.0001 1.0001 0 0 0 14 1 L 14 3.1953125 C 12.288517 3.6406022 11 5.1549657 11 7 L 11 10 A 1.0001 1.0001 0 0 0 12.785156 10.632812 C 13.199391 11.440794 14.029386 12 15 12 C 15.970614 12 16.800609 11.440794 17.214844 10.632812 A 1.0001 1.0001 0 0 0 19 10 L 19 7 C 19 5.149665 17.715801 3.5944004 16 3.1445312 L 16 1 A 1.0001 1.0001 0 0 0 14.984375 -0.013671875 z M 15 12 C 11.6073 12 9.4863281 13.246094 9.4863281 13.246094 A 1.0001 1.0001 0 0 0 9.0058594 14.001953 L 6.1679688 17.726562 C 5.8219687 18.179562 5.6124531 18.721062 5.5644531 19.289062 L 5.0039062 25.880859 C 4.9529062 26.482859 5.42625 27 6.03125 27 C 6.53725 27 6.9697813 26.633766 7.0507812 26.134766 L 7.9882812 20.394531 L 9.5800781 18.755859 L 9.9746094 21.869141 C 9.7724108 22.284127 9 23.94057 9 26 A 1.0001 1.0001 0 0 0 10 27 L 20 27 A 1.0001 1.0001 0 0 0 21 26 C 21 23.94057 20.227589 22.284127 20.025391 21.869141 L 20.419922 18.755859 L 22.011719 20.394531 L 22.949219 26.134766 C 23.030219 26.633766 23.46275 27 23.96875 27 C 24.57375 27 25.047094 26.482859 24.996094 25.880859 L 24.435547 19.289062 C 24.387547 18.721062 24.178031 18.179562 23.832031 17.726562 L 20.994141 14.001953 A 1.0001 1.0001 0 0 0 20.513672 13.246094 C 20.513672 13.246094 18.3927 12 15 12 z M 14.910156 5.0097656 A 1.0001 1.0001 0 0 0 15.091797 5.0097656 C 16.163585 5.0577771 17 5.9148914 17 7 L 17 7.4003906 L 15 9 L 13 7.4003906 L 13 7 C 13 5.9142271 13.837421 5.0568056 14.910156 5.0097656 z M 15 14 C 17.196535 14 18.339047 14.450637 18.914062 14.720703 L 18.119141 21 L 14 21 A 1.0001 1.0001 0 1 0 14 23 L 18.294922 23 C 18.454313 23.47102 18.663593 24.147024 18.814453 25 L 11.185547 25 C 11.418997 23.680058 11.894531 22.447266 11.894531 22.447266 A 1.0001 1.0001 0 0 0 11.992188 21.875 L 11.085938 14.720703 C 11.660952 14.450637 12.803465 14 15 14 z"/></svg>