<svg xmlns="http://www.w3.org/2000/svg" viewBox="0 0 64 64"><linearGradient id="7KXib9jyKjv3mLreHx97ka" x1="18" x2="18" y1="23.25" y2="25.75" gradientUnits="userSpaceOnUse" spreadMethod="reflect"><stop offset="0" stop-color="#6dc7ff"/><stop offset="1" stop-color="#e6abff"/></linearGradient><path fill="url(#7KXib9jyKjv3mLreHx97ka)" d="M16,22h-2c0,2.206,1.794,4,4,4s4-1.794,4-4h-2H16z"/><linearGradient id="7KXib9jyKjv3mLreHx97kb" x1="18" x2="18" y1="144.375" y2="131.619" gradientTransform="matrix(1 0 0 -1 0 150)" gradientUnits="userSpaceOnUse" spreadMethod="reflect"><stop offset="0" stop-color="#6dc7ff"/><stop offset="1" stop-color="#e6abff"/></linearGradient><path fill="url(#7KXib9jyKjv3mLreHx97kb)" d="M18 6A6 6 0 1 0 18 18A6 6 0 1 0 18 6Z"/><linearGradient id="7KXib9jyKjv3mLreHx97kc" x1="18" x2="18" y1="5" y2="57.626" gradientUnits="userSpaceOnUse" spreadMethod="reflect"><stop offset="0" stop-color="#1a6dff"/><stop offset="1" stop-color="#c822ff"/></linearGradient><path fill="url(#7KXib9jyKjv3mLreHx97kc)" d="M18,19c-3.859,0-7-3.14-7-7s3.141-7,7-7s7,3.14,7,7S21.859,19,18,19z M18,7 c-2.757,0-5,2.243-5,5s2.243,5,5,5s5-2.243,5-5S20.757,7,18,7z"/><linearGradient id="7KXib9jyKjv3mLreHx97kd" x1="18" x2="18" y1="6" y2="57.667" gradientUnits="userSpaceOnUse" spreadMethod="reflect"><stop offset="0" stop-color="#1a6dff"/><stop offset="1" stop-color="#c822ff"/></linearGradient><path fill="url(#7KXib9jyKjv3mLreHx97kd)" d="M29.189,25.75C29.056,23.086,26.862,21,24.195,21H11.805c-2.667,0-4.86,2.086-4.994,4.75 L6.107,39.82c-0.041,0.837,0.254,1.632,0.831,2.239S8.295,43,9.133,43c0.302,0,0.59-0.058,0.867-0.142V54.5c0,1.93,1.57,3.5,3.5,3.5 s3.5-1.57,3.5-3.5V47h2v7.5c0,1.93,1.57,3.5,3.5,3.5s3.5-1.57,3.5-3.5V42.858C26.277,42.942,26.565,43,26.867,43 c0.838,0,1.617-0.334,2.194-0.941s0.872-1.402,0.831-2.239L29.189,25.75z M15,54.5c0,0.827-0.673,1.5-1.5,1.5S12,55.328,12,54.5V47 h3V54.5z M12,45v-4h-0.033c0.091-0.247,0.162-0.504,0.185-0.777L12.253,39h11.494l0.102,1.223c0.023,0.273,0.094,0.53,0.185,0.777 H24v4h-5v-3h-2v3H12z M22.5,56c-0.827,0-1.5-0.673-1.5-1.5V47h3v7.5C24,55.327,23.327,56,22.5,56z M24.195,23 c1.601,0,2.916,1.252,2.996,2.85l0.703,14.069c0.015,0.284-0.086,0.555-0.282,0.761C27.416,40.887,27.151,41,26.867,41 c-0.531,0-0.981-0.415-1.026-0.943l-0.845-10.14l-1.992,0.166L23.247,33H21v2h2.414l0.167,2H12.42l0.167-2H15v-2h-2.247l0.243-2.917 l-1.992-0.166l-0.845,10.139C10.114,40.585,9.664,41,9.133,41c-0.284,0-0.549-0.113-0.745-0.319 c-0.196-0.207-0.297-0.477-0.282-0.761L8.809,25.85c0.08-1.598,1.396-2.85,2.996-2.85"/><linearGradient id="7KXib9jyKjv3mLreHx97ke" x1="45" x2="45" y1="23.25" y2="25.75" gradientUnits="userSpaceOnUse" spreadMethod="reflect"><stop offset="0" stop-color="#6dc7ff"/><stop offset="1" stop-color="#e6abff"/></linearGradient><path fill="url(#7KXib9jyKjv3mLreHx97ke)" d="M43,22h-2c0,2.206,1.794,4,4,4s4-1.794,4-4h-2H43z"/><linearGradient id="7KXib9jyKjv3mLreHx97kf" x1="45" x2="45" y1="144.375" y2="131.619" gradientTransform="matrix(1 0 0 -1 0 150)" gradientUnits="userSpaceOnUse" spreadMethod="reflect"><stop offset="0" stop-color="#6dc7ff"/><stop offset="1" stop-color="#e6abff"/></linearGradient><path fill="url(#7KXib9jyKjv3mLreHx97kf)" d="M45 6A6 6 0 1 0 45 18A6 6 0 1 0 45 6Z"/><linearGradient id="7KXib9jyKjv3mLreHx97kg" x1="44.956" x2="44.956" y1="5.547" y2="58.238" gradientUnits="userSpaceOnUse" spreadMethod="reflect"><stop offset="0" stop-color="#1a6dff"/><stop offset="1" stop-color="#c822ff"/></linearGradient><path fill="url(#7KXib9jyKjv3mLreHx97kg)" d="M56.861,44.505l-1.854-5.006C55.557,39.494,56,39.05,56,38.5V26.111 c0-2.818-2.063-5.111-4.6-5.111H38.6c-2.536,0-4.6,2.293-4.6,5.111V38.5c0,0.529,0.415,0.952,0.936,0.987l-1.844,4.88l-0.041,0.138 c-0.139,0.627,0.014,1.294,0.407,1.784C33.82,46.741,34.351,47,34.912,47H39v7.5c0,1.93,1.57,3.5,3.5,3.5 c0.98,0,1.864-0.407,2.5-1.058C45.636,57.593,46.52,58,47.5,58c1.93,0,3.5-1.57,3.5-3.5V47h4c0.562,0,1.092-0.259,1.454-0.711 C56.848,45.799,57,45.132,56.861,44.505z M42.5,56c-0.827,0-1.5-0.673-1.5-1.5V47h3v7.5C44,55.327,43.327,56,42.5,56z M49,54.5 c0,0.827-0.673,1.5-1.5,1.5S46,55.327,46,54.5V47h3V54.5z M35.003,45C35.001,44.993,35,44.985,35,44.976l5-13.235V29.5h-2v1.876 l-2,5.294V26.111C36,24.395,37.166,23,38.6,23h12.801c1.434,0,2.6,1.396,2.6,3.111v10.668l-2-5.4V29.5h-2v2.238l4.912,13.236 c0,0.01-0.001,0.018-0.003,0.026"/><linearGradient id="7KXib9jyKjv3mLreHx97kh" x1="44.969" x2="45.094" y1="4.624" y2="57.981" gradientUnits="userSpaceOnUse" spreadMethod="reflect"><stop offset="0" stop-color="#1a6dff"/><stop offset="1" stop-color="#c822ff"/></linearGradient><path fill="url(#7KXib9jyKjv3mLreHx97kh)" d="M51.365,9.069c-0.006-0.002-0.013-0.002-0.019-0.004C50.234,6.669,47.811,5,45,5 s-5.234,1.669-6.346,4.065c-0.006,0.002-0.013,0.002-0.019,0.004c-1.543,0.606-6.236,2.45-6.633,8.869 c-0.017,0.275,0.08,0.545,0.27,0.747C32.46,18.886,32.724,19,33,19h5c0.553,0,1-0.448,1-1c0-0.867,0.021-1.632,0.054-2.324 C40.29,17.667,42.49,19,45,19s4.71-1.333,5.946-3.324C50.979,16.368,51,17.133,51,18c0,0.552,0.447,1,1,1h5 c0.276,0,0.54-0.114,0.729-0.315c0.189-0.201,0.286-0.471,0.27-0.747C57.602,11.519,52.908,9.675,51.365,9.069z M37.009,17h-2.894 c0.431-2.661,1.797-4.168,3.323-5.124C37.232,13.032,37.05,14.685,37.009,17z M45,17c-2.757,0-5-2.243-5-5s2.243-5,5-5s5,2.243,5,5 S47.757,17,45,17z M52.991,17c-0.041-2.315-0.223-3.968-0.43-5.124c1.526,0.955,2.893,2.462,3.323,5.124H52.991z"/><linearGradient id="7KXib9jyKjv3mLreHx97ki" x1="47.97" x2="47.97" y1="35.304" y2="45" gradientUnits="userSpaceOnUse" spreadMethod="reflect"><stop offset="0" stop-color="#6dc7ff"/><stop offset="1" stop-color="#e6abff"/></linearGradient><path fill="url(#7KXib9jyKjv3mLreHx97ki)" d="M46.02 35.696L47.981 35.304 49.92 45 47.88 45z"/><linearGradient id="7KXib9jyKjv3mLreHx97kj" x1="42.031" x2="42.031" y1="35.304" y2="45" gradientUnits="userSpaceOnUse" spreadMethod="reflect"><stop offset="0" stop-color="#6dc7ff"/><stop offset="1" stop-color="#e6abff"/></linearGradient><path fill="url(#7KXib9jyKjv3mLreHx97kj)" d="M43.981 35.696L42.12 45 40.08 45 42.02 35.304z"/></svg>