<svg xmlns="http://www.w3.org/2000/svg" viewBox="0 0 100 100"><path fill="#fce0a2" d="M49.8 12.600000000000001A37.5 37.5 0 1 0 49.8 87.6A37.5 37.5 0 1 0 49.8 12.600000000000001Z"/><path fill="#fff" d="M20.2 55.9A.9.9 0 1 0 20.2 57.699999999999996.9.9 0 1 0 20.2 55.9zM79.3 31.2A.7.7 0 1 0 79.3 32.6.7.7 0 1 0 79.3 31.2z"/><path fill="#f1bc19" d="M76.7 12A.9.9 0 1 0 76.7 13.8.9.9 0 1 0 76.7 12zM20.7 63.50000000000001A.9.9 0 1 0 20.7 65.30000000000001.9.9 0 1 0 20.7 63.50000000000001zM82.1 11A4 4 0 1 0 82.1 19 4 4 0 1 0 82.1 11z"/><path fill="#ee3e54" d="M86.1 22.200000000000003A1.9 1.9 0 1 0 86.1 26A1.9 1.9 0 1 0 86.1 22.200000000000003Z"/><path fill="#fbcd59" d="M77.1 74.6A1.9 1.9 0 1 0 77.1 78.4 1.9 1.9 0 1 0 77.1 74.6zM13.9 59.6A4 4 0 1 0 13.9 67.6 4 4 0 1 0 13.9 59.6z"/><path fill="#ee3e54" d="M24.2 85.8A1.9 1.9 0 1 0 24.2 89.60000000000001A1.9 1.9 0 1 0 24.2 85.8Z"/><path fill="#fff" d="M75.8 28.599999999999998A1.8 1.8 0 1 0 75.8 32.199999999999996 1.8 1.8 0 1 0 75.8 28.599999999999998zM17.7 49A2.5 2.5 0 1 0 17.7 54 2.5 2.5 0 1 0 17.7 49z"/><path fill="#512c2b" d="M44.6,59.3c0,1.2,0.3,1.9-0.4,2.8c-0.7,0.9-1.7,1.5-2.8,1.8c1,0.6,2.2,0.8,3.3,0.8 c0.3,0,0.6-0.1,0.8-0.2c0.3-0.2,0.5-0.5,0.5-0.8c0-0.2,0-0.5-0.1-0.7l-0.5-2"/><path fill="#3a1e0b" d="M50 23.5A10.4 9.6 0 1 0 50 42.7A10.4 9.6 0 1 0 50 23.5Z"/><path fill="#3a1e0b" d="M47.8,34c2.8-0.9,5.9-0.7,8.6,0.7c2.7,1.4,4.5,4.2,4.7,7.3c0,2.4-1.1,5,0.3,7 c1,1.5,3.1,2.1,3.5,3.8c0,0.1,0,0.1,0,0.2c-0.2,0.1-0.3,0.4-0.1,0.6c0,0,0.1,0.1,0.1,0.1c-0.2,1.7-2.1,3.2-2.2,5.1 c0,1.6,1.3,2.9,2.5,4.1s2.4,2.7,2,4.2c-0.4,1.1-1.3,2-2.5,2.3c-2.5,1.2-2.8,2-2.9,4.6c-1.3-0.3-2.4-0.9-3.4-1.7l-3.4-2.3 c-1.7-1.2-3.6-2.5-4.2-4.5C50,63.5,51,61.1,53,60.1c-2.1,0.5-4.5-1.9-4-4.1c0.4-1.7,2-2.9,2.4-4.6c0.5-2.5-1.7-4.7-3.8-6.1 s-4.5-3.2-4.7-5.7C42.7,36.8,45.2,34.8,47.8,34z"/><path fill="#3a1e0b" d="M63.3,55c0,1.4-0.3,2.4,0.5,3.5c0.8,1.1,2.1,1.9,3.4,2.2c-1.2,0.7-2.7,1-4.1,0.9 c-0.4,0-0.7-0.1-1-0.3c-0.4-0.2-0.6-0.6-0.6-1c0-0.3,0-0.6,0.1-0.9l0.6-2.4"/><path fill="#edbc94" d="M39.3,47.3c-0.1-1.3-0.5-2.9-0.6-3.6l1-2.9c1.2-1.5,1.9-2.8,3.6-3.8s4.1-0.5,6.2-1 c5.1-1.3,9.7,3.8,11.3,8.6c0,0,0,0.1,0,0.1c-0.2,0.9-0.3,1.7-0.3,2.6c1.4,0,2.1,0.7,1.6,2.2c0,0-0.5,2.3-0.9,3.4 c-0.1,0.6-0.7,1.1-1.3,1.1c0,0.7,0,1.5,0,2.2c0,0.9-0.2,1.8-0.8,2.5c-1.3,1.9-8.2,6.4-9.8,6.2c-2.7,0-8-4.6-9.4-6.8 c-0.2-0.5-0.4-1-0.4-1.5c0-0.9,0-1.8,0-2.6c-0.6-0.1-1-0.5-1.1-1.1c-0.3-1.1-0.9-3.4-0.9-3.4C36.9,48,37.9,47.3,39.3,47.3z"/><path fill="#e5ac80" d="M35.2,70l0.3-0.1l0.5-0.2c1.1-0.5,8.2-2.9,8.2-2.9c0.5-0.1,0.9-0.5,1.1-1c0.2-0.8,0.3-1.7,0.2-2.6 c1.2,0.5,2.5,1,3.8,1.3c1.7,0.2,4.6-2,4.6-2s0.1,2.7,0.2,3.3c0.2,0.5,0.6,0.9,1.1,1l6.9,2.3c0.7,0.2,1.3,0.4,1.9,0.8 c1.5,1,2.5,2.5,2.9,4.2l0,0c0,0.2,0.1,0.4,0.1,0.5c0.1,0.4,0.1,0.8,0.1,1.2c0,0.4,0.1,6.2,0.1,6.7c-2.4,3-11,5.3-20.3,5.3 c-4.1,0-12.1-3.8-15.1-5.5C32.2,73.9,31.4,71.2,35.2,70z"/><path fill="#472b29" d="M59.5 54.6C59.5 54.6 59.5 54.6 59.5 54.6c-.1 0-.2-.1-.2-.2l.7-7.2c0-.1.1-.2.2-.2.1 0 .2.1.2.2l-.7 7.2C59.7 54.6 59.6 54.6 59.5 54.6zM39.5 54.3c-.1 0-.2-.1-.2-.2l-.4-7.2c0-.1.1-.2.2-.2.1 0 .2.1.2.2l.4 7.2C39.7 54.1 39.7 54.2 39.5 54.3 39.5 54.3 39.5 54.3 39.5 54.3zM38.6 78.2c-.2 0-.4-.1-.5-.4l-2.1-8c-.1-.3.1-.5.4-.6.3-.1.5.1.6.4l2.1 8c.1.3-.1.5-.4.6C38.7 78.2 38.7 78.2 38.6 78.2z"/><path fill="#ee3e54" d="M49.8,77.7c-3.4-3-8.5-3-12-0.2l-0.5,7.7c2.5,0.6,16.4,4.7,25,0.2L62,77.8 C58.5,74.7,53.3,74.7,49.8,77.7L49.8,77.7z"/><path fill="#fdfcef" d="M41.7 79.8c0 .8-.6 1.4-1.4 1.4s-1.4-.6-1.4-1.4c0-.8.6-1.4 1.4-1.4 0 0 0 0 0 0C41.1 78.4 41.7 79 41.7 79.8L41.7 79.8zM49.3 80.39999999999999A1.4 1.4 0 1 0 49.3 83.2 1.4 1.4 0 1 0 49.3 80.39999999999999zM42.9 83.8A1.4 1.4 0 1 0 42.9 86.60000000000001 1.4 1.4 0 1 0 42.9 83.8zM56.3 77A1.4 1.4 0 1 0 56.3 79.80000000000001 1.4 1.4 0 1 0 56.3 77zM54.5 83.19999999999999A1.4 1.4 0 1 0 54.5 86 1.4 1.4 0 1 0 54.5 83.19999999999999zM60 82.69999999999999A1.4 1.4 0 1 0 60 85.5 1.4 1.4 0 1 0 60 82.69999999999999z"/><path fill="#472b29" d="M49.1,64.7c-0.1,0-0.1,0-0.2,0c-1.4-0.3-2.8-0.8-4-1.5c-0.1-0.1-0.2-0.2-0.1-0.3 c0.1-0.1,0.2-0.2,0.3-0.1c1.2,0.7,2.5,1.2,3.8,1.4c1.5,0.1,4.5-1.5,4.5-1.5c0.1-0.1,0.3,0,0.3,0.1c0.1,0.1,0,0.3-0.1,0.3 C53.6,63.2,50.8,64.7,49.1,64.7z"/><path fill="#fbcd59" d="M53.7 37.2A1.3 1.3 0 1 0 53.7 39.8A1.3 1.3 0 1 0 53.7 37.2Z"/><path fill="#472b29" d="M49.3,56.9c-0.7,0-1.4-0.3-1.9-0.9c0-0.1,0-0.1,0-0.2l0,0 c0,0,0.1-0.1,0.2,0c0,0,0,0,0,0c0.5,0.5,1.1,0.7,1.7,0.7c0.6,0,1.3-0.2,1.7-0.7c0,0,0.1,0,0.1,0c0,0,0.1,0,0.1,0 c0,0.1,0,0.1,0,0.2C50.8,56.6,50.1,56.9,49.3,56.9z" opacity=".41"/><path fill="#472b29" d="M47 46l.5-.9c-2-.5-4.2-.4-6.2.2l.6.9C43.5 45.7 45.3 45.6 47 46zM57 46l.5-.9c-2.1-.5-4.2-.4-6.2.2l.6.9C53.5 45.7 55.3 45.6 57 46zM44.1 47.1c-.5 0-.9.3-1.2.8h.2c.4 0 .8.4.8.8 0 .4-.4.8-.8.8-.1 0-.2 0-.3-.1.1.7.6 1.2 1.3 1.2 1-.2 1.5-1.2 1.3-2.2C45.3 47.8 44.8 47.3 44.1 47.1L44.1 47.1zM54.6 47.1c-.4 0-.8.2-1 .6.1 0 .2-.1.3-.1.4 0 .7.4.7.8 0 .4-.3.8-.7.8 0 0 0 0 0 0-.2 0-.5-.1-.6-.3.2.7 1 1.2 1.7 1 .7-.2 1.2-1 1-1.7C55.8 47.5 55.2 47.1 54.6 47.1L54.6 47.1z"/><g opacity=".55"><path fill="#cd9480" d="M56 52.7A2 2 0 1 0 56 56.7 2 2 0 1 0 56 52.7zM42.7 52.7A2 2 0 1 0 42.7 56.7 2 2 0 1 0 42.7 52.7z"/></g><path fill="#472b29" d="M50,88.3c-6.6,0-13-1.9-18.5-5.6c-0.1-0.1-0.2-0.3-0.2-0.4l0-1c0.1-6.1,0.2-10.5,3.7-11.6l0.8-0.3 c1.1-0.5,8-2.8,8.3-2.9c0.4-0.1,0.7-0.4,0.8-0.7c0.2-0.6,0.2-1.3,0.2-1.9c-2.2-1.4-4.1-3.2-5.6-5.3c-0.3-0.6-0.5-1.2-0.5-1.8 l0-2.3c-0.6-0.2-1-0.7-1.1-1.3c-0.2-0.7-0.8-2.8-0.9-3.4c-0.3-0.9-0.1-1.6,0.2-1.9c0.4-0.5,1-0.8,1.7-0.9v-0.3 c-0.2-0.5-0.4-1-0.4-1.6c0-5.8,5.2-10.5,11.5-10.5c6.3,0,11.5,4.7,11.5,10.5c-0.1,0.6-0.2,1.1-0.4,1.6c0,0.1,0,0.3,0,0.4 c0.8,0.1,1.2,0.5,1.4,0.7c0.3,0.4,0.5,1,0.1,2c0,0.1-0.5,2.3-0.9,3.4c-0.1,0.7-0.6,1.2-1.3,1.4v1.8c0,1-0.2,1.9-0.8,2.7 c-1.5,1.7-3.3,3.1-5.2,4.2c0,0.8,0.2,2.1,0.2,2.5c0.1,0.3,0.4,0.5,0.7,0.6l7,2.3c0.7,0.2,1.3,0.5,2,0.8c4.4,2.2,3.5,12.9,3.5,13 c0,0.2-0.1,0.3-0.2,0.4C62.3,86.4,56.3,88.3,50,88.3C50.1,88.3,50,88.3,50,88.3z M32.3,82c5.3,3.4,11.4,5.2,17.7,5.2 c0,0,0.1,0,0.1,0c5.9,0,11.7-1.7,16.6-5c0.2-2.4,0.1-10.3-3-11.8c-0.6-0.3-1.2-0.6-1.8-0.7l-6.9-2.3c-0.6-0.1-1.2-0.6-1.4-1.3 c-0.1-0.6-0.3-2.4-0.3-3.1c0-0.2,0.1-0.3,0.3-0.4c1.9-1.1,3.7-2.5,5.2-4.1c0.4-0.6,0.6-1.3,0.6-2.1l0-2.3c0-0.1,0.1-0.3,0.1-0.4 s0.2-0.2,0.4-0.1c0,0,0,0,0,0c0.4,0,0.7-0.3,0.8-0.7c0.4-1.1,0.9-3.4,0.9-3.5c0.1-0.4,0.2-0.9,0-1.2c-0.2-0.2-0.6-0.4-1.1-0.4 c-0.1,0-0.3-0.1-0.4-0.1s-0.1-0.2-0.1-0.4c0-0.4,0-0.7,0.1-1.1c0-0.1,0-0.1,0-0.1c0.2-0.4,0.3-0.8,0.4-1.3 c0-5.2-4.7-9.5-10.5-9.5c-5.8,0-10.5,4.3-10.5,9.5c0,0.4,0.2,0.8,0.3,1.2c0.1,0.1,0.1,0.2,0.1,0.3v0.9c0,0.1-0.1,0.3-0.2,0.4 c-0.1,0.1-0.2,0.1-0.4,0.1c-0.6,0-1.1,0.2-1.4,0.5c-0.2,0.2-0.2,0.6-0.1,1c0,0.1,0,0.1,0,0.2c0,0.1,0.5,2.3,0.9,3.3 c0.1,0.4,0.4,0.7,0.7,0.7c0.2,0,0.4,0.2,0.4,0.5v2.6c0,0.4,0.1,0.9,0.4,1.3c1.5,2,3.4,3.8,5.6,5.2c0.1,0.1,0.2,0.2,0.2,0.4 c0.1,0.9,0,1.7-0.2,2.6c-0.3,0.7-0.8,1.2-1.4,1.4c0,0-7.1,2.4-8.2,2.9l-0.8,0.3c-2.8,0.8-2.8,4.8-3,10.7L32.3,82z"/><path fill="#3a1e0b" d="M53.4,72c0-1.2,1.2-2.3,2.4-2.7c2-0.9,3.4-2.8,3.7-4.9c0-0.6,0-1.2,0-1.8c1,1.1,1.9,2.3,2.7,3.6 c0.7,1,1,2.3,0.7,3.6c-0.5,1.7-2.3,2.5-2.9,4.1c-0.3,1.2-0.2,2.6,0.3,3.7c0.5,1.2,0.8,2.4,0.9,3.7c0,1.3-0.9,2.6-2,2.6 c0.5-1.4,0.3-3-0.6-4.2c-0.8-1.2-2.8-2.3-3.6-3.4C53.9,75,53.4,73.5,53.4,72z"/><path fill="#512c2b" d="M53.4,64.4c0-1.2,1.2-2.3,2.4-2.7c2-0.9,3.4-2.7,3.7-4.9c0-0.6,0-1.2,0-1.8c1,1.1,1.9,2.3,2.7,3.6 c0.7,1,1,2.3,0.7,3.6c-0.5,1.7-2.3,2.4-2.9,4.1c-0.3,1.2-0.2,2.6,0.3,3.7c0.5,1.2,0.8,2.4,0.9,3.7c0,1.3-0.9,2.6-2,2.6 c0.5-1.4,0.3-3-0.6-4.2c-0.8-1.2-2.8-2.3-3.6-3.4C53.9,67.4,53.4,66,53.4,64.4z"/><path fill="#ee3e54" d="M58.9,37.2c-0.4,0-0.7-0.1-1-0.4c-7.9-7.2-15.7-0.6-16-0.3c-0.6,0.5-1.6,0.5-2.1-0.2 c-0.5-0.6-0.5-1.6,0.1-2.1c0.1-0.1,10.1-8.6,20,0.4c0.6,0.6,0.7,1.5,0.1,2.1C59.7,37.1,59.3,37.2,58.9,37.2z"/><path fill="#512c2b" d="M46.4,39.5c0.3-1.3,2.1-1.5,3-0.7s1.3,2.3,1.9,3.5c1,2.2,2.7,3.9,4.8,5c1.5,0.7,3.1,1,4.6,1.8 c1.6,0.7,2.7,2.2,3,4c0.1,1.8-1.6,3.6-3.1,2.9c2.7,1,5.8-0.2,6.9-2.9c1.1-2.8,0.8-6.4-1.6-7.9c-1.1-0.5-2.1-1.1-3-1.9 c-1.1-1.2-1.2-3-1.7-4.6c-1.3-4.6-6.9-8-11.3-7.4c-2,0.2-3.8,1.3-4.8,3C44.3,36,44.7,38.3,46.4,39.5z"/><path fill="#512c2b" d="M34,45.4c-0.3-0.4,0,2.9,1,3.7c1,0.8,2.4,0.9,3.5,0.3c1.4-0.9,2-2.9,2.2-4.6 c0.1-1.5,0.8-2.9,1.9-4c1-1,2.4-1.8,3.7-1.3c0.4-1.9,0-5-2.6-5.6c-1.7-0.4-7.4-0.1-6.5,8.3c0.1,0.7,0,1.4-0.3,2.1 c-0.2,0.7-0.3,1.9-0.9,2.3C34.7,47.3,34.3,45.8,34,45.4z"/><path fill="#472b29" d="M41.9 47c.6.5 1.5.5 2.2.2l-.2.7L43 48C43 48 42.1 47.7 41.9 47zM57.3 47c-.6.5-1.5.5-2.2.2l.2.7 1 .1C56.3 48 57.1 47.7 57.3 47z"/><path fill="#ee3e54" d="M34.9,39.5c-0.2,0-0.4-0.1-0.5-0.3c-0.1-0.3,0-0.5,0.2-0.7c1.6-0.7,3.2-2.3,4.6-3.7 c-0.6,0.2-1.2,0.2-1.7,0.1c-0.6-0.1-1.1-0.3-1.6-0.6c-0.6-0.3-0.9-1.1-0.7-1.7c0,0,0-0.1,0-0.1c0.3-0.6,0.9-1,1.6-1.1 c0.6-0.1,1.2-0.1,1.8,0.1c1,0.2,1.9,0.7,2.7,1.3c0.2,0.1,0.3,0.4,0.1,0.7c0.1,0.2,0,0.4-0.1,0.6c-0.3,0.3-0.6,0.6-1,1 c-1.6,1.6-3.6,3.6-5.5,4.5C35,39.5,34.9,39.5,34.9,39.5z M36.3,32.9c0,0.2,0.1,0.4,0.3,0.5c0.4,0.3,0.9,0.4,1.3,0.5 c0.6,0.1,1.6-0.2,2.4-0.5c0.1,0,0.2-0.1,0.3-0.1c-0.6-0.4-1.3-0.7-2-0.9c-0.5-0.1-1-0.1-1.4-0.1C36.7,32.5,36.4,32.7,36.3,32.9z"/><path fill="#472b29" d="M50.1,60.9h-1.6c-0.1,0-0.2-0.1-0.2-0.2s0.1-0.2,0.2-0.2h1.6c0.1,0,0.2,0.1,0.2,0.2 S50.3,60.9,50.1,60.9z"/></svg>