<svg xmlns="http://www.w3.org/2000/svg" width="512" height="512" viewBox="0 0 512 512"><path fill="#D6E5E5" d="M271.7,430c-28.8,1.1-58,1.6-86.6-2.4c-6.9-1-13.8-2.2-20.7-3.7c9.2,18.2,38.1,20.7,56.1,21.5c15.2,0.7,30.4,0.7,45.2-3.1c9-2.3,17.9-5.1,26.6-8.2c4.1-1.5,8.8-3.4,12-6.6C293.6,428.9,282.7,429.6,271.7,430z"/><path fill="#FEBF10" d="M365,234.7c-12-3.8-24.5-2.8-36.9-1.7c-13.1,1.1-26.1,1.7-39.2,1.9c-28.1,0.5-56.3-0.3-84.4,0.7c-27.5,0.9-54.7,3.9-81.8,8.6c-8.7,1.5-17.5,2.6-25.9,5.7c-3.4,1.3-6.7,2.6-10,4.1c-0.9,0.4-1.9,0.9-2.8,1.4c-0.1,0.5-0.3,0.9-0.6,1.3c42.2,3.4,84.5,5.1,126.8,4.6c32.5-0.3,64.9-1.7,97.3-2.8c15.9-0.5,32-0.6,48-1.6c0-0.7,0.2-1.4,0.5-2.1c2.9-6.8,6.1-13.4,9.5-20C365.4,234.8,365.2,234.7,365,234.7z"/><path fill="#D6E5E5" d="M405,261.5c-29.8,6.5-60.5,6.8-90.9,7.7c-32.4,1-64.8,2.4-97.3,2.9c-60.2,0.8-120.4-2.5-180.3-8.9l0,0c5.6,3.5,12.2,6,17,7.6c19.2,6.6,39.6,8.4,59.8,9.9c32.9,2.4,65.9,2,98.8,3.4c31.9,1.4,64.1,3.1,95.9,0c26.6-2.6,52.5-9,78.5-14.9c12.6-2.9,27.3-6.5,38.8-14C418,258.2,410.5,260.3,405,261.5z"/><path fill="#BCBCBC" d="M385.4,194.7c-1.3,0-2.5-0.4-3.6-1c-0.2,0.4-0.4,0.8-0.6,1.3c-9.3-1.4-18.6-2.2-27.8-2.7c-31.3-1.7-62.4-0.9-93.7-0.5c-16.2,0.2-32.4,0.3-48.6-0.4c-15.9-0.7-31.9-2-47.9-1.8c-30.7,0.5-60.7,7.2-89.1,18.9c-13,5.3-26.7,11.1-38.1,19.4c-3,2.2-7.1,5.2-9.1,8.8c1.3,1.5,1.9,3.6,0.8,5.9c-0.5,0.9-0.8,1.9-1.1,2.7c1.1,2.4,3.1,4.5,5.2,6.3c13.9,1.5,27.8,2.9,41.8,4.1c-1-1.6-1.2-3.6-0.3-5.7c1.1-2.7,4.9-4.3,7.3-5.4c6.1-2.9,12.6-5.7,19.1-7.5c13.6-3.6,28.3-5.3,42.3-7.3c15.2-2.2,30.5-3.8,45.8-4.7c31.3-1.8,62.7-0.9,94.1-1.3c15.1-0.2,30.1-0.7,45.2-2c13.2-1.2,27-2.2,39.8,1.9c1.4,0.4,2.4,1.2,3.1,2.2c0.3-0.5,0.5-1,0.8-1.4c5.4-10,11-19.9,16.3-29.9H385.4z"/><path fill="#D6E5E5" d="M378.1,282.2c-17.8,3.6-35.2,8.6-53.3,11.1c-19.3,2.7-38.8,3.6-58.3,3.5c-33-0.3-65.9-2.7-98.8-3c-29.6-0.3-59.8-0.9-89.1-5.5c-9.4-1.5-24.3-4.7-37.4-10.3c6.1,16.1,15,31.3,23.4,46.3c9.3,16.7,18.9,33.5,31.2,48.1c12.5,14.8,27.7,26.4,45.8,33.3c20.7,7.8,42.8,11.6,64.8,13.2c28.1,2,57,1.6,85.1-0.7c24.6-2,49.1-8.2,69.8-22.1c45-30.3,66.9-85.1,76.7-136.6C421.9,273.2,398.3,278.1,378.1,282.2z"/><path fill="#74CCCF" d="M457.4,131.3c-3.1-3.6-9.2-1.6-12.9,0c-20.8,9-30.3,33.8-39.5,52.8c-11.9,24.3-26.4,47.3-37.5,72c5.6-0.5,11.3-1.1,16.8-1.9c-1.9-1.8-2.7-4.9-0.5-7.5c18.2-22,31.5-47.4,46.8-71.3c6.9-10.8,14.9-20.7,22.3-31.2C454.6,141.8,460.1,134.4,457.4,131.3z"/><path fill="#BCBCBC" d="M441.1,222.7c-2.6-5.6-8.5-9.5-13.6-12.5c-1.1-0.6-2.2-1.2-3.3-1.8c1.4-2.4,2.6-4.9,3.7-7.5c-10.8,17.9-21.6,35.7-34.8,51.9c2.1-0.4,4.2-0.8,6.2-1.2c12.9-2.7,28.9-6.2,38.3-16.3C440.7,231.7,443.3,227.5,441.1,222.7z"/><path d="M463.6 148c6.2-9.3 8.1-21.5-3-27.8-8.9-5-21 .6-28.7 5.5-10 6.5-17.3 17.1-23.3 27.2-5.9 10-10.6 20.6-15.8 31-.4-.1-.8-.1-1.2-.1h-7c-.7 0-1.3.2-1.9.4-27.1-4.2-55.1-4.3-82.4-4.1-32.5.3-65 1.6-97.5 0-21.6-1.1-42.9-2.2-64.5.2-20.8 2.3-41.3 7.8-60.8 15.2-9.5 3.6-18.9 7.8-28 12.3-8.3 4.2-16.7 8.5-23.9 14.6-5.3 4.5-10 10.3-10.7 17.5-.2 2 0 4 .4 5.8-1.8 10.1 3.4 18.1 11.7 24.3 3.4 12.4 8.9 24 14.9 35.4 6.5 12.4 13.3 24.8 20.3 37 12.4 21.4 26.6 42.4 46.5 57.6 12.7 9.8 27.6 16.3 43 20.7 0 .1 0 .3.1.4 6.3 29.7 44.9 34.1 69.6 35.3 17.4.9 34.4 0 51.4-4.5 9.4-2.5 19.2-5.4 28.1-9.3 8.1-3.5 14.3-9 17.2-17.3 6-1.2 12-2.8 18-4.8 20.4-6.8 38.7-18.7 53.7-34 33.8-34.3 51.2-81.5 59.6-128.1.6-3.4-1.7-5.7-4.3-6.3 1.8-2.3 3.4-4.7 4.9-7.3 1.2-2.3.7-4.4-.7-5.9 4.1-5.8 5.5-12.7 1.7-20.9-4-8.7-12.8-14.9-21.6-19.4 3.7-6.1 7.4-12.2 11.3-18.3C447.7 169 456.2 158.9 463.6 148zM26.9 245.5c.3-.9.6-1.8 1.1-2.7 1.1-2.3.6-4.4-.8-5.9 2-3.7 6.1-6.6 9.1-8.8 11.4-8.3 25.1-14.1 38.1-19.4 28.3-11.7 58.4-18.4 89.1-18.9 16-.3 31.9 1.1 47.9 1.8 16.2.7 32.4.7 48.6.4 31.3-.5 62.4-1.2 93.7.5 9.2.5 18.6 1.3 27.8 2.7.2-.4.4-.9.6-1.3 1 .7 2.2 1 3.6 1h1.8c-5.3 10-10.9 19.9-16.3 29.9-.3.5-.5 1-.8 1.4-.7-1-1.7-1.8-3.1-2.2-12.9-4-26.6-3-39.8-1.9-15 1.3-30.1 1.8-45.2 2-31.4.4-62.8-.5-94.1 1.3-15.3.9-30.6 2.5-45.8 4.7-14 2-28.7 3.6-42.3 7.3-6.5 1.7-13 4.5-19.1 7.5-2.4 1.2-6.2 2.7-7.3 5.4-.9 2.2-.7 4.2.3 5.7-13.9-1.2-27.9-2.5-41.8-4.1C30 249.9 28 247.8 26.9 245.5zM365.6 234.8c-3.4 6.6-6.6 13.2-9.5 20-.3.7-.5 1.4-.5 2.1-16 .9-32.1 1-48 1.6-32.4 1-64.9 2.4-97.3 2.8-42.3.4-84.6-1.3-126.8-4.6.2-.4.4-.9.6-1.3.9-.5 1.8-.9 2.8-1.4 3.3-1.5 6.6-2.8 10-4.1 8.3-3.1 17.1-4.2 25.9-5.7 27.1-4.7 54.3-7.7 81.8-8.6 28.1-1 56.3-.2 84.4-.7 13.1-.2 26.2-.7 39.2-1.9 12.4-1.1 24.9-2.1 36.9 1.7C365.2 234.7 365.4 234.8 365.6 234.8zM36.6 263.3c59.9 6.3 120.1 9.7 180.3 8.9 32.4-.4 64.9-1.9 97.3-2.9 30.4-1 61-1.2 90.9-7.7 5.4-1.2 12.9-3.3 20.4-6.3-11.5 7.5-26.1 11.1-38.8 14-26 5.9-51.9 12.4-78.5 14.9-31.9 3.1-64 1.3-95.9 0-32.9-1.4-65.9-1-98.8-3.4-20.1-1.4-40.5-3.3-59.8-9.9C48.9 269.3 42.2 266.8 36.6 263.3L36.6 263.3zM292.3 434.1c-8.7 3.1-17.6 6-26.6 8.2-14.8 3.7-30.1 3.8-45.2 3.1-18-.8-46.8-3.4-56.1-21.5 6.9 1.5 13.8 2.7 20.7 3.7 28.6 4 57.8 3.6 86.6 2.4 11-.4 21.8-1.1 32.6-2.5C301.1 430.7 296.5 432.6 292.3 434.1zM361.4 395.9c-20.7 13.9-45.2 20.1-69.8 22.1-28.1 2.3-57 2.8-85.1.7-22-1.6-44.1-5.3-64.8-13.2-18.2-6.9-33.4-18.5-45.8-33.3-12.3-14.7-21.9-31.5-31.2-48.1-8.4-14.9-17.3-30.1-23.4-46.3 13.1 5.6 28 8.8 37.4 10.3 29.3 4.6 59.5 5.2 89.1 5.5 33 .3 65.9 2.7 98.8 3 19.5.2 39-.8 58.3-3.5 18.1-2.5 35.5-7.5 53.3-11.1 20.1-4.1 43.8-9 59.9-22.8C428.3 310.9 406.4 365.6 361.4 395.9zM441.1 222.7c2.2 4.8-.3 9-3.5 12.6-9.3 10.2-25.4 13.6-38.3 16.3-2.1.4-4.1.8-6.2 1.2 13.2-16.2 24-34.1 34.8-51.9-1 2.6-2.3 5.1-3.7 7.5 1.1.6 2.2 1.2 3.3 1.8C432.6 213.2 438.5 217.1 441.1 222.7zM383.9 246.6c-2.2 2.6-1.4 5.7.5 7.5-5.6.8-11.2 1.4-16.8 1.9 11.1-24.7 25.6-47.7 37.5-72 9.3-18.9 18.8-43.8 39.5-52.8 3.7-1.6 9.7-3.6 12.9 0 2.6 3-2.8 10.5-4.4 12.8-7.4 10.5-15.4 20.4-22.3 31.2C415.3 199.3 402.1 224.6 383.9 246.6zM216.1 69.9c-9.5-1-16.2 3.3-22.5 10.2-5.7 6.3-9.9 14.7-7.6 23.4 2.3 8.7 9.8 14.1 13.2 22.2 4.2 10.2-2.8 20.7-9.3 28-4.7 5.3 3.5 12.5 8.3 7.3 12.3-13.7 18.3-31.7 6.4-47.7-3.7-5.1-9.3-10.2-8-17.1 1.3-6.9 10-16.2 17.4-15.4C221 81.4 223.1 70.6 216.1 69.9z"/><path d="M247.4 93.7c-1.2-3.9.1-9.1 2.6-12.2 1.7-2.2 6-1.7 8.4-1.7 7.1 0 6.2-11-.8-11-9.4.1-16.2 3-19.7 12.3-4 10.9-.4 20.2 6.2 29 2.9 3.8 7 8.2 8 13 .9 4.3-.9 8.2-3 11.9-5.1 9.1-11 16.7-10.6 27.7.2 7.1 11.2 6.2 11-.8-.2-8.4 5.5-15.1 9.5-21.9 4.3-7.4 5.8-16 2.1-24C257.4 108 250 102.1 247.4 93.7zM310.2 117.5c-2.6-10.5-13-19.1-13.4-29.8 5.4-1.1 4.4-10.1-1.7-10.8-3.4-2-7.4-.7-8.5 3.4-4.1 15 6.6 24.4 12 37 2.9 6.8.6 13.3-3.7 19-5.4 7.3-11.6 13.1-14.4 22-2.1 6.8 8.7 8.8 10.8 2.1 2.4-7.9 9.9-13.5 14.3-20.3C310 133.3 312.2 125.4 310.2 117.5z"/></svg>