<svg xmlns="http://www.w3.org/2000/svg" viewBox="0 0 40 40"><path fill="#fff" d="M2.573 27.92L13.712 0.659 37.349 10.262 26.252 37.523 11.647 39.475z"/><path fill="#4788c7" d="M13.986,1.31l22.711,9.227L25.898,37.066l-14.034,1.875L3.146,27.84L13.986,1.31 M13.437,0.008L2,28 l9.431,12.008l15.175-2.028L38,9.987L13.437,0.008L13.437,0.008z"/><path fill="#b6dcfe" d="M2.573 27.92L5.001 21.998 14.071 33.539 28.642 31.602 26.251 37.523 11.647 39.475z"/><path fill="#4788c7" d="M5.139,22.982l8.363,10.642l0.353,0.449l0.565-0.075l13.437-1.786l-1.961,4.855l-14.032,1.875 L3.146,27.84L5.139,22.982 M4.865,21.014L2,28l9.431,12.008l15.175-2.028l2.822-6.987l-15.139,2.013L4.865,21.014L4.865,21.014z"/><g><path fill="#4788c7" d="M26.583 11.67L21.109 7.644 20.409 9.418 23.507 11.446 19.809 10.939 19.129 12.661 22.191 14.955 18.473 14.326 17.73 16.207 24.475 17.011 25.194 15.184 22.209 12.983 25.884 13.436zM22.549 19.216c-.192-.234-.472-.423-.828-.561-.251-.097-.493-.146-.719-.146-.005 0-.01 0-.016 0-.231.002-.456.049-.669.138-.208.089-.409.21-.598.359-.184.146-.373.319-.563.518-.129.137-.249.255-.36.359-.102.095-.199.172-.293.231-.078.051-.149.083-.215.097-.045.011-.09.007-.139-.012-.041-.016-.072-.039-.098-.073-.029-.04-.05-.091-.062-.152-.013-.075-.013-.166 0-.268.017-.11.048-.227.098-.354.037-.097.084-.196.136-.294.058-.102.121-.2.194-.299.07-.095.147-.185.232-.269.081-.081.168-.152.257-.214l.394-.269-1.785-.688L17.4 17.449c-.158.175-.301.373-.438.608-.128.224-.249.484-.37.798-.123.319-.207.638-.248.947-.043.321-.031.629.033.913.065.292.196.558.389.792.194.231.461.414.794.543.432.165.855.182 1.257.05.388-.127.777-.395 1.161-.796.135-.144.266-.276.39-.398.114-.113.225-.206.329-.279.093-.064.179-.106.264-.13.057-.015.115-.012.179.012.041.016.072.038.103.076.026.031.047.077.059.135.015.075.015.164.001.268-.014.11-.049.238-.104.379-.095.245-.233.475-.414.684-.179.207-.397.384-.651.524l-.468.26 1.905.734.114-.102c.203-.182.393-.415.563-.692.167-.27.315-.572.441-.898.12-.312.207-.629.26-.947.051-.327.047-.637-.013-.916C22.873 19.718 22.743 19.449 22.549 19.216zM20.372 24.727c-.195-.234-.474-.423-.829-.561-.251-.097-.493-.146-.718-.146-.005 0-.01 0-.016 0-.231.002-.457.049-.67.138-.209.089-.409.21-.597.359-.188.148-.377.322-.565.519-.127.136-.247.254-.359.358-.103.096-.199.173-.291.231-.078.051-.151.083-.216.098-.041.011-.087.008-.139-.013-.041-.016-.073-.04-.097-.071-.03-.041-.051-.093-.063-.156-.014-.074-.014-.163.001-.267.015-.107.047-.228.096-.354.037-.097.085-.196.137-.293.058-.102.121-.202.192-.299.071-.095.149-.186.233-.27.081-.081.168-.152.257-.213l.397-.269-1.79-.688-.115.128c-.158.178-.306.383-.437.608-.129.224-.253.492-.371.799-.123.319-.206.638-.247.946-.043.321-.031.629.033.913.066.294.196.56.388.791.195.233.463.417.795.544.429.165.852.183 1.257.05.388-.128.777-.395 1.161-.795.135-.145.266-.277.389-.398.115-.113.227-.206.329-.279.094-.064.182-.108.265-.13.058-.018.115-.014.176.011.044.017.074.038.104.074.028.035.048.079.06.139.015.071.016.16.002.264-.015.113-.05.241-.104.381-.094.244-.233.475-.414.685-.18.208-.399.384-.652.524l-.469.26 1.906.733.113-.102c.202-.179.392-.412.563-.69.167-.269.312-.563.442-.899.122-.317.209-.636.26-.947.052-.325.047-.634-.013-.917C20.696 25.229 20.566 24.96 20.372 24.727z"/></g></svg>