<svg xmlns="http://www.w3.org/2000/svg" viewBox="0 0 100 100"><path d="M 88.982422 10 A 1.0001 1.0001 0 0 0 88.689453 10.048828 C 86.938259 10.611712 83.44372 11.735967 81.607422 13.572266 L 75.496094 19.683594 C 71.346143 16.715302 66.498645 15.001953 61.644531 15.001953 C 56.763921 15.001953 52.267008 16.724158 49.023438 19.886719 C 45.367834 23.450826 43.613363 28.471174 44.070312 33.90625 C 44.437013 38.265638 46.220884 42.47701 49.0625 46.117188 L 44.560547 50.619141 L 31.193359 37.291016 A 1.0001 1.0001 0 0 0 30.472656 37 A 1.0001 1.0001 0 0 0 29.779297 37.292969 L 8.2929688 58.832031 A 1.0001 1.0001 0 0 0 8.40625 60.34375 L 23.621094 71.558594 L 15.570312 79.609375 C 14.658264 80.521424 13.974676 81.831618 13.384766 83.15625 C 12.794856 84.480882 12.332731 85.815003 12.048828 86.693359 A 1.0001 1.0001 0 0 0 13.308594 87.951172 C 14.18733 87.665941 15.522298 87.201618 16.847656 86.611328 C 18.173015 86.021038 19.481982 85.340207 20.390625 84.429688 L 29.171875 75.648438 L 45.666016 87.804688 A 1.0001 1.0001 0 0 0 46.958984 87.714844 L 52.265625 82.533203 A 1.0001 1.0001 0 0 0 52.5 81.455078 C 52.248307 80.807501 52.121094 80.14375 52.121094 79.46875 C 52.121094 76.386784 54.622489 73.892578 57.71875 73.892578 C 58.396062 73.892578 59.062798 74.018378 59.712891 74.269531 A 1.0001 1.0001 0 0 0 60.779297 74.044922 L 63.705078 71.126953 A 1.0001 1.0001 0 0 0 63.707031 69.710938 L 49.388672 55.433594 C 50.903092 53.918719 52.426185 52.396008 53.951172 50.871094 C 58.220355 54.102144 63.275308 56.001953 68.353516 56.001953 C 73.234126 56.001953 77.732992 54.277795 80.976562 51.115234 C 84.632166 47.551127 86.384684 42.530779 85.927734 37.095703 C 85.542461 32.51552 83.573288 28.110947 80.470703 24.351562 L 86.429688 18.392578 C 87.3302 17.490807 88.006585 16.184217 88.597656 14.857422 C 89.188728 13.530627 89.657091 12.191593 89.945312 11.310547 A 1.0001 1.0001 0 0 0 88.982422 10 z M 87.265625 12.742188 C 87.086669 13.207111 86.983811 13.568307 86.771484 14.044922 C 86.224556 15.272627 85.54416 16.447286 85.013672 16.978516 L 79.15625 22.835938 C 78.959686 22.631708 78.807689 22.400257 78.603516 22.201172 C 78.123084 21.732783 77.568394 21.376161 77.058594 20.949219 L 83.021484 14.986328 C 83.801799 14.206013 85.604146 13.400308 87.265625 12.742188 z M 61.644531 17.001953 C 67.183104 17.001953 72.875819 19.410169 77.207031 23.632812 C 81.14268 27.470384 83.519595 32.318778 83.935547 37.263672 C 84.348597 42.176596 82.796474 46.547701 79.580078 49.683594 C 76.737648 52.455033 72.764905 54.001953 68.353516 54.001953 C 62.814943 54.001953 57.122228 51.591784 52.791016 47.369141 C 48.855367 43.53157 46.480405 38.683175 46.064453 33.738281 C 45.651403 28.825357 47.203526 24.454252 50.419922 21.318359 C 53.262352 18.54692 57.233142 17.001953 61.644531 17.001953 z M 59.5 23.001953 C 57.572833 23.001953 56 24.574786 56 26.501953 C 56 28.42912 57.572833 30.001953 59.5 30.001953 C 61.427167 30.001953 63 28.42912 63 26.501953 C 63 24.574786 61.427167 23.001953 59.5 23.001953 z M 59.5 24.001953 C 60.886833 24.001953 62 25.11512 62 26.501953 C 62 27.888786 60.886833 29.001953 59.5 29.001953 C 58.113167 29.001953 57 27.888786 57 26.501953 C 57 25.11512 58.113167 24.001953 59.5 24.001953 z M 78.929688 33.939453 A 0.50005 0.50005 0 0 0 78.457031 34.591797 C 78.76129 35.599533 78.959901 36.624119 79.046875 37.652344 C 79.339365 41.133263 78.287766 44.189211 76.107422 46.314453 C 75.083862 47.3124 73.825908 48.075714 72.404297 48.570312 A 0.50005 0.50005 0 1 0 72.732422 49.513672 C 74.282811 48.97427 75.670247 48.13535 76.804688 47.029297 C 79.214343 44.680539 80.356479 41.29944 80.042969 37.568359 C 79.949939 36.468584 79.737804 35.374998 79.414062 34.302734 A 0.50005 0.50005 0 0 0 78.929688 33.939453 z M 30.490234 39.414062 L 61.583984 70.419922 L 59.726562 72.271484 C 59.066169 72.08554 58.404128 71.892578 57.71875 71.892578 C 53.541011 71.892578 50.121094 75.298716 50.121094 79.46875 C 50.121094 80.149115 50.313457 80.807149 50.498047 81.462891 L 46.169922 85.691406 L 10.527344 59.421875 L 30.490234 39.414062 z M 50.378906 47.630859 C 50.728775 48.014431 51.018718 48.434334 51.394531 48.800781 C 51.703446 49.101952 52.067374 49.321323 52.388672 49.605469 C 50.912746 51.08129 49.438786 52.554915 47.972656 54.021484 L 45.976562 52.033203 L 50.378906 47.630859 z M 31.5 49.501953 C 28.468687 49.501953 26 51.97064 26 55.001953 C 26 58.033266 28.468687 60.501953 31.5 60.501953 C 33.296147 60.501953 34.897566 59.635681 35.900391 58.300781 A 0.50019565 0.50019565 0 1 0 35.099609 57.701172 C 34.278434 58.794272 32.975853 59.501953 31.5 59.501953 C 29.009313 59.501953 27 57.49264 27 55.001953 C 27 52.511266 29.009313 50.501953 31.5 50.501953 A 0.50005 0.50005 0 1 0 31.5 49.501953 z M 34.472656 50.498047 A 0.50005 0.50005 0 0 0 34.199219 51.400391 C 35.293137 52.221504 36 53.525896 36 55.001953 A 0.50005 0.50005 0 1 0 37 55.001953 C 37 53.20601 36.136863 51.604449 34.800781 50.601562 A 0.50005 0.50005 0 0 0 34.472656 50.498047 z M 38.5 66.501953 C 36.572833 66.501953 35 68.074786 35 70.001953 C 35 71.92912 36.572833 73.501953 38.5 73.501953 C 40.427167 73.501953 42 71.92912 42 70.001953 C 42 68.074786 40.427167 66.501953 38.5 66.501953 z M 38.5 67.501953 C 39.886833 67.501953 41 68.61512 41 70.001953 C 41 71.388786 39.886833 72.501953 38.5 72.501953 C 37.113167 72.501953 36 71.388786 36 70.001953 C 36 68.61512 37.113167 67.501953 38.5 67.501953 z M 25.25 72.757812 L 27.542969 74.449219 L 18.976562 83.015625 A 1.0001 1.0001 0 0 0 18.974609 83.017578 C 18.431252 83.562058 17.257344 84.239946 16.033203 84.785156 C 15.55033 85.000219 15.184682 85.103408 14.714844 85.283203 C 14.89376 84.815215 14.996647 84.451886 15.210938 83.970703 C 15.755527 82.747836 16.434424 81.573387 16.984375 81.023438 L 25.25 72.757812 z"/></svg>