<?xml version="1.0"?><svg xmlns="http://www.w3.org/2000/svg" viewBox="0 0 128 128">    <path d="M64,114.5c1.7,0,3-1.3,3-3v-4.6h5c4.5,0,8.2-3.7,8.2-8.2V79.9c4.2-1.1,7.3-4.9,7.3-9.4c0-5.3-4.3-9.7-9.7-9.7h-2V33.2 c0-3.1-2.2-5.7-5.2-6.4c0-0.2-0.1-0.4-0.1-0.6v-9.9c0-1.7-1.3-3-3-3h-9.8c-1.7,0-3,1.3-3,3v9.9c0,0.2,0,0.4-0.1,0.6 c-2.9,0.6-5.2,3.2-5.2,6.4v27.6h-2c-5.3,0-9.7,4.3-9.7,9.7c0,4.5,3.1,8.3,7.3,9.4v18.9c0,3.1,1.8,5.9,4.4,7.2v14.4c0,1.7,1.3,3,3,3 h13.3c1.7,0,3-1.3,3-3s-1.3-3-3-3H55.4v-10.4H61v4.6C61,113.1,62.3,114.5,64,114.5z M67,100.9H53.2c-1.2,0-2.2-1-2.2-2.2V80.2h18.1 v2.9H68c-1.7,0-3,1.3-3,3s1.3,3,3,3h1.2V92H68c-1.7,0-3,1.3-3,3s1.3,3,3,3h1.2v0.8C69.1,99.9,68.2,100.9,67,100.9z M55.4,33.2 c0-0.3,0.2-0.5,0.5-0.5h2.4h6.9c0.1,0.2,0.1,0.3,0.1,0.5v27.6h-9.9V33.2z M60.7,26.2v-6.9h3.8v6.9c0,0.2,0,0.3,0,0.5h-3.9 C60.7,26.5,60.7,26.4,60.7,26.2z M43.7,70.5c0-2,1.7-3.7,3.7-3.7h25.9c0.3,0.7,0.5,1.4,0.5,2.1V72c0,0.8-0.2,1.5-0.5,2.1H47.4 C45.4,74.2,43.7,72.5,43.7,70.5z"/></svg>