<svg xmlns="http://www.w3.org/2000/svg" viewBox="0 0 64 64"><linearGradient id="JT1pl3VKF0k7bHOyaAswUa" x1="32" x2="32" y1="1237" y2="1181.987" gradientTransform="matrix(1 0 0 -1 0 1242)" gradientUnits="userSpaceOnUse" spreadMethod="reflect"><stop offset="0" stop-color="#1a6dff"/><stop offset="1" stop-color="#c822ff"/></linearGradient><path fill="url(#JT1pl3VKF0k7bHOyaAswUa)" d="M51.121,15.707l-8.828-8.828C41.727,6.313,40.973,6,40.171,6H15c-1.654,0-3,1.346-3,3v40v2v4 c0,1.654,1.346,3,3,3h34c1.654,0,3-1.346,3-3v-4v-2V17.828C52,17.027,51.688,16.273,51.121,15.707z M48.586,16H43 c-0.551,0-1-0.448-1-1V9.414L48.586,16z M49,56H15c-0.551,0-1-0.448-1-1v-1.185C14.314,53.928,14.648,54,15,54h34 c0.352,0,0.686-0.072,1-0.184V55C50,55.552,49.551,56,49,56z M50,51c0,0.552-0.449,1-1,1H15c-0.551,0-1-0.448-1-1v-2V9 c0-0.552,0.449-1,1-1h25v7c0,1.654,1.346,3,3,3h7v31V51z"/><linearGradient id="JT1pl3VKF0k7bHOyaAswUb" x1="24" x2="24" y1="29" y2="39" gradientUnits="userSpaceOnUse" spreadMethod="reflect"><stop offset="0" stop-color="#6dc7ff"/><stop offset="1" stop-color="#e6abff"/></linearGradient><path fill="url(#JT1pl3VKF0k7bHOyaAswUb)" d="M25,39h-2c-1.105,0-2-0.895-2-2v-6c0-1.105,0.895-2,2-2h2c1.105,0,2,0.895,2,2v6 C27,38.105,26.105,39,25,39z M23.5,37h1c0.276,0,0.5-0.224,0.5-0.5v-5c0-0.276-0.224-0.5-0.5-0.5h-1c-0.276,0-0.5,0.224-0.5,0.5v5 C23,36.776,23.224,37,23.5,37z"/><linearGradient id="JT1pl3VKF0k7bHOyaAswUc" x1="32" x2="32" y1="29" y2="39" gradientUnits="userSpaceOnUse" spreadMethod="reflect"><stop offset="0" stop-color="#6dc7ff"/><stop offset="1" stop-color="#e6abff"/></linearGradient><path fill="url(#JT1pl3VKF0k7bHOyaAswUc)" d="M33,39h-2c-1.105,0-2-0.895-2-2v-6c0-1.105,0.895-2,2-2h2c1.105,0,2,0.895,2,2v0.5 c0,0.276-0.224,0.5-0.5,0.5H33v-1h-2v6h2v-2h-1v-2h2.5c0.276,0,0.5,0.224,0.5,0.5V37C35,38.105,34.105,39,33,39z"/><linearGradient id="JT1pl3VKF0k7bHOyaAswUd" x1="40" x2="40" y1="29" y2="39" gradientUnits="userSpaceOnUse" spreadMethod="reflect"><stop offset="0" stop-color="#6dc7ff"/><stop offset="1" stop-color="#e6abff"/></linearGradient><path fill="url(#JT1pl3VKF0k7bHOyaAswUd)" d="M41,39h-2c-1.105,0-2-0.895-2-2v-6c0-1.105,0.895-2,2-2h2c1.105,0,2,0.895,2,2v0.5 c0,0.276-0.224,0.5-0.5,0.5H41v-1h-2v6h2v-2h-1v-2h2.5c0.276,0,0.5,0.224,0.5,0.5V37C43,38.105,42.105,39,41,39z"/></svg>