<svg xmlns="http://www.w3.org/2000/svg" xmlns:xlink="http://www.w3.org/1999/xlink" viewBox="0 0 100 100"><path fill="#fff" d="M19.8 55.300000000000004A.9.9 0 1 0 19.8 57.1.9.9 0 1 0 19.8 55.300000000000004zM78.8 30.6A.7.7 0 1 0 78.8 32 .7.7 0 1 0 78.8 30.6z"/><path fill="#f1bc19" d="M76.2 11.4A.9.9 0 1 0 76.2 13.200000000000001.9.9 0 1 0 76.2 11.4zM20.3 63A.9.9 0 1 0 20.3 64.8.9.9 0 1 0 20.3 63z"/><path fill="#c0e5e4" d="M49.1 12A37.5 37.5 0 1 0 49.1 87A37.5 37.5 0 1 0 49.1 12Z"/><path fill="#f1bc19" d="M81.7 10.4A4 4 0 1 0 81.7 18.4A4 4 0 1 0 81.7 10.4Z"/><path fill="#00a5a5" d="M85.7 21.6A1.9 1.9 0 1 0 85.7 25.4A1.9 1.9 0 1 0 85.7 21.6Z"/><path fill="#fbcd59" d="M76.7 74A1.9 1.9 0 1 0 76.7 77.80000000000001 1.9 1.9 0 1 0 76.7 74zM13.5 59A4 4 0 1 0 13.5 67 4 4 0 1 0 13.5 59z"/><path fill="#00a5a5" d="M23.7 85.19999999999999A1.9 1.9 0 1 0 23.7 89A1.9 1.9 0 1 0 23.7 85.19999999999999Z"/><path fill="#fff" d="M75.3 28A1.8 1.8 0 1 0 75.3 31.6 1.8 1.8 0 1 0 75.3 28zM17.2 48.4A2.5 2.5 0 1 0 17.2 53.4 2.5 2.5 0 1 0 17.2 48.4z"/><path fill="#e5ac80" d="M67.6,70.7c-0.4-2.2-1.3-3.4-3.3-4l-0.3-0.1l-0.6-0.2c-1.3-0.5-8.7-3.3-8.7-3.3 c-0.6-0.2-1-0.6-1.2-1.1c-0.2-0.9-0.3-1.9-0.2-2.9c-1.6,0.6-3.3,1-5,1.4c-1.9,0.2-6-2.3-6-2.3s-0.1,3-0.2,3.7 c-0.2,0.6-0.7,1-1.3,1.1l-7.1,2.6c-0.8,0.2-1.5,0.5-2.2,0.9c-1.5,1-2.6,2.4-3.2,4.2c0,0-0.5,3.3-0.5,3.4c0,0.5-0.1,1-0.1,1.5 c7.8,5.3,14,6.7,24.7,6.3c4.9-0.2,12.1-2.6,15.9-4.5C67.9,73.2,67.6,70.7,67.6,70.7z"/><path fill="#00a5a5" d="M64,66.6c-0.1,0-0.2-0.1-0.3-0.1l-0.6-0.2c-0.8-0.3-3.9-1.5-6.2-2.3h-0.1 c-2.5,1.3-6.1,3.2-9.4,3.2s-6.5-1.8-9.4-3.3l-0.3,0.1l-4.4,1.6c-0.8,0.2-1.5,0.5-2.2,0.9c-1.5,1-2.6,2.4-3.2,4.2 c0,0-0.5,3.3-0.5,3.4c0,0.5-0.1,5.4-0.1,6c7.8,5.3,14,6.7,24.7,6.3c4.9-0.2,12.1-2.6,15.9-4.5c-0.2-4.2-0.6-11.2-0.6-11.2 C67,68.4,66.1,67.2,64,66.6z"/><path fill="#f1bc19" fill-rule="evenodd" d="M55.5,63.5c-0.1,0-0.1,0-0.2-0.1c-4.3,4.5-11.5,4.7-16,0.4 c-0.1-0.1-0.1-0.1-0.2-0.2c-0.5,0.3-1,0.5-1.5,0.6c4.1,4.4,12.7,7.6,19-0.4C56.3,63.7,55.9,63.6,55.5,63.5z" clip-rule="evenodd"/><path fill="#0b706d" d="M34.4 84.4c-.2 0-.3-.1-.3-.3v-4c0-.2.1-.3.3-.3s.3.1.3.3v4C34.7 84.3 34.5 84.4 34.4 84.4zM60.7 85.1c-.2 0-.3-.1-.3-.3v-4.6c0-.2.1-.3.3-.3S61 80 61 80.2v4.6C61 85 60.9 85.1 60.7 85.1z"/><path fill="#edbc94" d="M59.9,44.4h-0.4c-1,0-1.2,0.3-1.2-0.3c0.1-1-0.1-5.3-0.1-5.5c0-4.4-4.7-8-10.5-8.2l0,0h-0.2l0,0 c-5.8,0.2-10.5,3.8-10.5,8.2c0,0.2-0.2,4.5-0.1,5.5c0,0.6-0.2,0.2-1.2,0.3h-0.4c-1,0-1.8,0.6-2.1,1.6c0.1,0.1,0.6,3.7,1.4,5.1 c0.4,0.8,1.1,0.9,1.8,1.4c0.3,0.2,0.5,0.6,0.6,1c0.5,1.6,1.4,3,2.7,4c0.6,0.6,4.5,4.7,7.9,4.5s7.3-3.9,7.9-4.5 c1.3-1.1,2.2-2.5,2.7-4c0-0.4,0.3-0.8,0.6-1c0.7-0.5,1.4-0.6,1.8-1.4c0.8-1.4,1.3-5,1.4-5.1C61.7,45,60.9,44.4,59.9,44.4z"/><path fill="#512c2b" d="M47.7 52.3c.7 0 1.3-.3 1.8-.8 0 0 0-.1 0-.2 0 0 0 0 0 0l0 0c0 0-.1 0-.2 0 0 0 0 0 0 0-.9.8-2.3.8-3.2 0 0 0-.1 0-.1 0 0 0 0 0-.1 0 0 0 0 .1 0 .2 0 0 0 0 0 0C46.4 52 47.1 52.2 47.7 52.3zM45.6 42l.4-.8c-1.9-.4-3.8-.4-5.7.2l.5.8C42.4 41.7 44 41.6 45.6 42zM54.7 42l.4-.8c-1.9-.4-3.8-.4-5.7.2l.5.8C51.6 41.7 53.2 41.6 54.7 42zM42.9 43.2c-.5 0-.9.3-1 .7.1 0 .1 0 .2 0 .4 0 .7.4.6.8 0 .3-.3.6-.6.6-.1 0-.2 0-.3-.1.1.6.6 1.1 1.2 1.1.9-.2 1.4-1.1 1.2-2C43.9 43.8 43.5 43.4 42.9 43.2L42.9 43.2zM52.5 43.2c-.4 0-.7.2-.9.5.1 0 .2 0 .2 0 .4 0 .7.3.7.7 0 .4-.3.7-.7.7-.2 0-.4-.1-.5-.3-.2.7.3 1.4 1 1.5.7.2 1.4-.3 1.5-1 0-.2 0-.4 0-.6C53.9 44.1 53.4 43.3 52.5 43.2 52.5 43.2 52.5 43.2 52.5 43.2z"/><path fill="#472b29" d="M48.8,87.1c-8.9,0-14.7-1.8-21.5-6.4c-0.1-0.1-0.2-0.2-0.2-0.4c0-0.1,0-0.4,0-0.9 c0-2.2,0.1-6.8,0.6-8.6c0.4-1.9,1.6-3.5,3.4-4.4c0.7-0.4,1.5-0.7,2.3-0.9l7.1-2.6c0.5-0.1,0.9-0.4,1-0.9c0-0.3,0.1-1.2,0.1-2.1 c-1-0.7-1.9-1.4-2.1-1.6c-1.3-1.2-2.3-2.7-2.8-4.4c-0.1-0.3-0.2-0.6-0.4-0.8c-0.2-0.2-0.4-0.3-0.6-0.4c-0.5-0.3-1-0.5-1.3-1.2 c-0.8-1.7-1.3-3.5-1.4-5.4c0,0,0-0.1,0-0.1c0.3-1.1,1.3-1.9,2.5-1.9h0.4c0.3,0,0.6,0,0.8,0c-0.1-1,0-3.8,0.1-5c0-0.3,0-0.5,0-0.5 c0-4.7,4.8-8.6,10.9-8.8h0.2c6.1,0.2,10.9,4.1,10.9,8.8c0,0,0,0.2,0,0.5c0,1.2,0.1,4,0.1,5c0.2,0,0.5-0.1,0.8,0l0.3,0 c1.2,0,2.1,0.8,2.5,1.9c0,0,0,0.1,0,0.1c-0.2,1.9-0.6,3.7-1.4,5.4c-0.4,0.7-0.8,0.9-1.3,1.2c-0.2,0.1-0.4,0.2-0.6,0.4 c-0.2,0.2-0.4,0.4-0.4,0.7c-0.5,1.7-1.5,3.2-2.8,4.4c-0.7,0.6-1.5,1.3-2.3,1.8c0,0.7,0.1,1.3,0.3,2c0.2,0.4,0.5,0.7,1,0.8 c0.3,0.1,7.5,2.8,8.7,3.3l0.9,0.4c2.1,0.6,3.2,1.9,3.6,4.3c0,0,0,0,0,0.1c0,0,0.4,6.9,0.5,11.1c0,0.2-0.1,0.3-0.2,0.4 c-4,2-11.3,4.4-16.1,4.6C51.1,87,49.9,87.1,48.8,87.1z M28,80.1c7.4,5,13.6,6.5,24.3,6.1c4.5-0.2,11.5-2.4,15.5-4.4 c-0.2-4.1-0.5-10.4-0.5-10.9c-0.4-2.1-1.3-3.1-3.1-3.7l-1-0.4c-1.2-0.5-8.6-3.2-8.7-3.3c-0.6-0.2-1.2-0.7-1.5-1.3 c-0.3-0.8-0.3-1.7-0.3-2.5c0-0.1,0.1-0.2,0.2-0.3c0.8-0.6,1.6-1.2,2.4-1.9c1.2-1.1,2.1-2.4,2.6-4c0.1-0.4,0.3-0.9,0.7-1.2 c0.2-0.2,0.5-0.3,0.7-0.5c0.4-0.2,0.7-0.4,1-0.9c0.7-1.6,1.2-3.3,1.4-5c-0.2-0.7-0.9-1.2-1.7-1.2h-0.3c-0.3,0-0.6,0-0.8,0 c-0.2,0-0.5,0.1-0.7-0.1c-0.2-0.2-0.2-0.5-0.2-0.6c0.1-0.8,0-3.9-0.1-5.1c0-0.3,0-0.5,0-0.5c0-4.3-4.4-7.8-10.1-8h-0.2 c-5.6,0.2-10.1,3.7-10.1,8c0,0,0,0.2,0,0.5c0,1.2-0.1,4.2-0.1,5.1c0,0.3,0,0.5-0.2,0.6C37,45,36.8,45,36.6,45 c-0.2,0-0.4-0.1-0.7,0l-0.4,0c-0.8,0-1.4,0.5-1.7,1.2c0.2,1.7,0.6,3.4,1.3,5c0.2,0.4,0.6,0.6,1,0.8c0.2,0.1,0.5,0.3,0.7,0.5 c0.4,0.3,0.7,0.8,0.7,1.3c0.4,1.5,1.3,2.9,2.5,4c0.2,0.2,1.1,0.9,2.2,1.7c0.1,0.1,0.2,0.2,0.2,0.3c0,1-0.1,2.1-0.2,2.5 c-0.3,0.8-0.9,1.3-1.6,1.5l-7.1,2.6c-0.8,0.2-1.5,0.5-2.1,0.9c-1.6,0.8-2.6,2.2-3,3.9c-0.5,1.7-0.5,6.4-0.6,8.4 C28,79.7,28,79.9,28,80.1z"/><path fill="#d3a47d" d="M59.9 49.1L59.4 49l.2-1.8-1 .4-.2-.5 1.5-.6c.1 0 .2 0 .3 0 .1.1.1.2.1.3L59.9 49.1zM35.7 48.7l-.3-2.3c0-.1 0-.2.1-.3.1-.1.2-.1.3 0l1.5.6-.2.6-1-.4.2 1.8L35.7 48.7z"/><path fill="#472b29" d="M37.1 53.2C37.1 53.2 37.1 53.2 37.1 53.2c-.1 0-.2-.1-.2-.2l.2-8.7c0-.1.1-.2.2-.2 0 0 0 0 0 0 .1 0 .2.1.2.2L37.3 53C37.3 53.1 37.2 53.2 37.1 53.2zM58.5 53.2c-.1 0-.2-.1-.2-.2l-.2-8.7c0-.1.1-.2.2-.2.1 0 .2.1.2.2l.2 8.7C58.7 53.1 58.6 53.2 58.5 53.2 58.5 53.2 58.5 53.2 58.5 53.2z"/><path fill="#512c2b" d="M37.8 37.8c.5-1.8 1.2-3.4 2.3-4.9-.4-.4-1-.5-1.5-.4-1.4 2-2.1 4.3-2.1 6.7.1 1.1.3 2.1.7 3.2C37.5 40.9 37.4 39.3 37.8 37.8zM57.4 37.8c-.5-1.8-1.2-3.4-2.3-4.9.4-.4 1-.5 1.5-.4 1.4 1.9 2.1 4.3 2.1 6.7-.1 1.1-.3 2.1-.7 3.2C57.7 40.9 57.8 39.3 57.4 37.8z"/><path fill="#6d1b18" d="M44.3,54.6c0,0.2-0.1,0.3-0.1,0.5c0,1.4,1.5,2.5,3.4,2.5s3.4-1.1,3.4-2.5c0-0.2,0-0.3-0.1-0.5 H44.3z"/><path fill="#ee3e54" d="M49.5,57.2c-1.1-0.8-2.5-0.8-3.6,0C47,57.7,48.3,57.7,49.5,57.2z"/><path fill="#fdfcef" d="M45.3,54.6L45.3,54.6V55c0,0.4,0.5,0.7,1.1,0.7H49c0.6,0,1.1-0.3,1.1-0.7v-0.4l0,0H45.3z"/><path fill="#472b29" d="M47.6,57.8c-2,0-3.6-1.2-3.6-2.7c0-0.2,0-0.4,0.1-0.5c0-0.1,0.1-0.1,0.2-0.1H51 c0.1,0,0.2,0.1,0.2,0.1c0,0.2,0.1,0.3,0.1,0.5C51.3,56.6,49.6,57.8,47.6,57.8z M44.4,54.8c0,0.1,0,0.2,0,0.3 c0,1.3,1.4,2.3,3.2,2.3c1.8,0,3.2-1,3.2-2.3c0-0.1,0-0.2,0-0.3H44.4z"/><path fill="#512c2b" d="M60.5,35.1c-0.3,0.5-0.7,0.9-1.3,1c-0.1-0.2-0.1-0.4-0.3-0.6c0.4-0.5,0.5-1.1,0.4-1.7 c-0.2-1.2-1.4-2.1-2.6-1.9l0,0c0-0.3,0-0.6,0-0.9c-0.3-1.6-1.8-2.7-3.3-2.4c-0.3,0-0.5,0.1-0.8,0.2c0,0,0-0.1,0-0.1 c-0.4-1.9-2.2-3.2-4.2-2.9c-1.1,0.2-2.1,0.8-2.6,1.8c-0.9-0.4-1.8-0.5-2.8-0.4c-2.4,0.4-4.1,2.3-3.8,4.3l0.1,0.3 c-0.5,0.3-0.9,0.9-1,1.5c-0.1,1.6,1.1,2.9,2.7,3c0.7,0.1,1.5,0,2.2-0.3c1.1,2,3.4,3,5.6,2.5c1-0.1,1.9-0.5,2.6-1.1 c0.7,1,1.8,1.5,3,1.3c0.3,0,0.6-0.1,0.8-0.3c0.9,0.9,2.3,0.9,3.2,0C59.6,38.2,60.5,37.3,60.5,35.1z"/><path fill="#472b29" d="M47.8,62c-2.2,0-5.6-2.1-5.8-2.1c-0.1-0.1-0.2-0.2-0.1-0.3c0.1-0.1,0.2-0.2,0.3-0.1 c0,0,3.8,2.3,5.7,2.1c1.7-0.4,3.4-1,4.9-2c0.1-0.1,0.3,0,0.3,0.1c0.1,0.1,0,0.3-0.1,0.3c-1.6,1-3.3,1.7-5.1,2 C48,62,47.9,62,47.8,62z"/><g><path fill="#fdfcee" d="M69.6 58.00000000000001A14.4 14.4 0 1 0 69.6 86.80000000000001A14.4 14.4 0 1 0 69.6 58.00000000000001Z"/><path fill="#472b29" d="M69.6,87.2c-8.2,0-14.8-6.6-14.8-14.8c0-8.2,6.6-14.8,14.8-14.8s14.8,6.6,14.8,14.8 C84.4,80.6,77.8,87.2,69.6,87.2z M69.6,58.3c-7.8,0-14.1,6.3-14.1,14.1s6.3,14.1,14.1,14.1s14.1-6.3,14.1-14.1 S77.4,58.3,69.6,58.3z"/></g><g><path fill="#f1bc19" d="M69.6 60.50000000000001A11.9 11.9 0 1 0 69.6 84.30000000000001A11.9 11.9 0 1 0 69.6 60.50000000000001Z"/><path fill="#472b29" d="M69.6,84.6c-6.7,0-12.2-5.5-12.2-12.2c0-6.7,5.5-12.2,12.2-12.2s12.2,5.5,12.2,12.2 C81.8,79.1,76.3,84.6,69.6,84.6z M69.6,60.7c-6.4,0-11.7,5.2-11.7,11.7s5.2,11.7,11.7,11.7s11.7-5.2,11.7-11.7 S76.1,60.7,69.6,60.7z"/></g><path fill="#fbcd59" d="M69.6,62.2c5.1,0,9.7,3.2,11.5,8 c-1.2-6.4-7.4-10.5-13.7-9.3c-4.7,0.9-8.4,4.6-9.3,9.3C59.9,65.4,64.5,62.2,69.6,62.2z" opacity=".79"/><g><path fill="#cbc9bc" d="M75.4,70.1c0,0.8,0,1.5,0,2.3c0,1.5-0.6,2.9-1.5,4.1c-0.5,0.6-1.1,1.1-1.7,1.6l-2.3,1.8 c-0.1,0.1-0.3,0.1-0.4,0c0,0,0,0,0,0c-1-0.8-2-1.5-3-2.3c-1.2-1-2.1-2.3-2.4-3.9c-0.1-0.6-0.2-1.2-0.1-1.8c0-1.4,0-2.8,0-4.2 c0-0.3,0-0.3,0.3-0.3c1.6,0,3.2-0.5,4.5-1.4c0.3-0.2,0.5-0.4,0.8-0.6c0.1-0.1,0.3-0.1,0.4,0c0,0,0,0,0,0c0.9,0.8,1.9,1.4,3.1,1.7 c0.6,0.2,1.2,0.3,1.8,0.3h0.4c0.2,0,0.3,0.1,0.3,0.3L75.4,70.1L75.4,70.1z"/><path fill="#472b29" d="M69.6,80.1c-0.1,0-0.3-0.1-0.4-0.1c-1-0.8-2-1.5-3-2.3c-1.3-1-2.2-2.4-2.5-4 c-0.1-0.6-0.2-1.3-0.1-1.9v-4.1c0-0.4,0.1-0.5,0.5-0.6c1.6,0,3.1-0.5,4.4-1.3c0.3-0.2,0.5-0.4,0.7-0.6c0.1-0.1,0.2-0.1,0.3-0.1 c0.1,0,0.3,0,0.4,0.1c0.9,0.8,1.9,1.4,3,1.7c0.6,0.2,1.2,0.3,1.8,0.3h0.4c0.2,0,0.5,0.1,0.5,0.5v2.6c0,0,0,0.1,0,0.1v2.2 c0,1.5-0.6,3-1.6,4.2c-0.5,0.6-1.1,1.2-1.8,1.6L70,79.9C69.9,80,69.8,80.1,69.6,80.1C69.6,80.1,69.6,80.1,69.6,80.1z M64.1,67.5 C64.1,67.5,64.1,67.5,64.1,67.5l0,4.2c0,0.6,0,1.2,0.1,1.8c0.3,1.5,1.1,2.8,2.3,3.7c1,0.8,2,1.6,3,2.3c0.1,0,0.1,0.1,0.1,0.1 c0,0,0,0,0.1,0l2.3-1.8c0.6-0.4,1.2-1,1.7-1.5c0.9-1.1,1.4-2.5,1.4-3.9v-2.3c0,0,0-0.1,0-0.1v-2.5c0-0.1,0-0.1,0-0.1l-0.4,0 c-0.6,0-1.3-0.1-1.9-0.3c-1.2-0.3-2.3-0.9-3.2-1.8c0,0,0,0-0.1,0c0,0,0,0,0,0c-0.2,0.2-0.5,0.5-0.8,0.7c-1.4,0.9-2.9,1.4-4.6,1.4 C64.2,67.4,64.2,67.4,64.1,67.5C64.1,67.4,64.1,67.4,64.1,67.5z"/></g><g><path fill="#f1bc19" d="M74.2,70.6c0,0.6,0,1.2,0,1.8c0,1.2-0.5,2.3-1.2,3.2c-0.4,0.5-0.9,0.9-1.4,1.2l-1.8,1.4 c-0.1,0.1-0.2,0.1-0.3,0c0,0,0,0,0,0c-0.8-0.6-1.6-1.3-2.4-1.9c-1-0.8-1.7-1.9-1.9-3.1c-0.1-0.5-0.1-1-0.1-1.5v-3.3 c0-0.2,0-0.3,0.3-0.3c1.3,0,2.5-0.4,3.6-1.1c0.2-0.2,0.4-0.3,0.6-0.5c0.1-0.1,0.2-0.1,0.3,0c1.1,1,2.4,1.5,3.9,1.6H74 c0.2,0,0.2,0.1,0.2,0.2L74.2,70.6L74.2,70.6z"/><path fill="#472b29" d="M69.6,78.5c-0.1,0-0.2,0-0.2-0.1c0,0,0,0,0,0l-0.2-0.2c-0.7-0.6-1.4-1.1-2.2-1.7 c-1-0.8-1.7-1.9-2-3.1c-0.1-0.5-0.1-1-0.1-1.5v-3.3c0-0.3,0-0.4,0.4-0.4c0,0,0,0,0,0c1.2,0,2.5-0.4,3.5-1.1 c0.2-0.1,0.4-0.3,0.6-0.5c0.2-0.2,0.4-0.1,0.5,0c1,0.9,2.4,1.5,3.8,1.5H74c0.2,0,0.3,0.1,0.3,0.4l0,2c0,0,0,0,0,0.1v1.8 c0,1.2-0.5,2.4-1.2,3.3c-0.4,0.5-0.9,0.9-1.4,1.3l-1.8,1.4C69.8,78.4,69.7,78.4,69.6,78.5C69.6,78.5,69.6,78.5,69.6,78.5z M65.3,68.4c-0.1,0-0.1,0-0.1,0c0,0,0,0.1,0,0.1v3.3c0,0.5,0,1,0.1,1.4c0.2,1.2,0.9,2.3,1.9,3c0.7,0.5,1.5,1.1,2.2,1.7l0.2,0.2 c0,0,0,0,0,0c0,0,0,0,0.1,0c0,0,0.1,0,0.1,0l1.9-1.4c0.5-0.3,1-0.8,1.4-1.2c0.7-0.9,1.2-2,1.2-3.1l0-1.8c0,0,0,0,0-0.1v-2 c0-0.1,0-0.1-0.1-0.1h-0.3c-1.5-0.1-2.9-0.6-4-1.6c0-0.1-0.1-0.1-0.2,0c-0.2,0.2-0.4,0.3-0.6,0.5C67.8,68,66.6,68.4,65.3,68.4 C65.3,68.4,65.3,68.4,65.3,68.4z"/></g><path fill="#5a5c66" d="M74.1,68.7c0-0.2,0-0.2-0.2-0.2h-0.4c-0.5,0-0.9-0.1-1.4-0.2c-0.9-0.2-1.7-0.7-2.3-1.3 c0,0-0.1-0.1-0.2-0.1v5.5h4.4c0-0.5,0-1.1,0-1.6l0,0C74.1,70,74.1,69.3,74.1,68.7z"/><path fill="#5a5c66" d="M69.7,72.3h-4.5c0,1.6,0.7,3.1,2,4.1c0.8,0.6,1.6,1.2,2.4,1.8c0,0,0.1,0.1,0.1,0.1L69.7,72.3z"/><g><defs><path id="hDyOvhNIqtfZ5yGgziXQTa" d="M1 1L2 1 1 2z"/></defs><defs><path id="hDyOvhNIqtfZ5yGgziXQTc" d="M-1 -1L-2 -1 -1 -2z"/></defs><clipPath id="hDyOvhNIqtfZ5yGgziXQTb"><use overflow="visible" xlink:href="#hDyOvhNIqtfZ5yGgziXQTa"/></clipPath><clipPath id="hDyOvhNIqtfZ5yGgziXQTd" clip-path="url(#hDyOvhNIqtfZ5yGgziXQTb)"><use overflow="visible" xlink:href="#hDyOvhNIqtfZ5yGgziXQTc"/></clipPath><g clip-path="url(#hDyOvhNIqtfZ5yGgziXQTd)"><path fill="#44454c" d="M66.3 71.7L65.5 70.9 72.1 64 72.9 64.8zM69.2 72.3L74.1 67.3 73.3 66.4 66.6 73.4 67.4 74.2 69.2 72.3zM72.8 72.3L75.2 69.7 74.4 68.9 71.2 72.3z"/></g></g><path fill="#472b29" d="M69.6,78.5c-0.1,0-0.1-0.1-0.1-0.1V66.8c0-0.1,0.1-0.1,0.1-0.1s0.1,0.1,0.1,0.1v11.5 C69.7,78.4,69.7,78.5,69.6,78.5z"/><g><defs><path id="hDyOvhNIqtfZ5yGgziXQTe" d="M1 1L2 1 1 2z"/></defs><defs><path id="hDyOvhNIqtfZ5yGgziXQTg" d="M-1 -1L-2 -1 -1 -2z"/></defs><clipPath id="hDyOvhNIqtfZ5yGgziXQTf"><use overflow="visible" xlink:href="#hDyOvhNIqtfZ5yGgziXQTe"/></clipPath><clipPath id="hDyOvhNIqtfZ5yGgziXQTh" clip-path="url(#hDyOvhNIqtfZ5yGgziXQTf)"><use overflow="visible" xlink:href="#hDyOvhNIqtfZ5yGgziXQTg"/></clipPath><g clip-path="url(#hDyOvhNIqtfZ5yGgziXQTh)"><path fill="#44454c" d="M66.1 72.2L64.5 73.9 64.5 75.5 67.7 72.2zM70.2 71.9c.1.1 0 .2 0 .2 0 0-.1 0-.1 0h-.5l-6.1 6.2.8.8 6.5-6.7L70.2 71.9zM71.9 73.8c.1.1.1.2 0 .2 0 0-.1 0-.1 0h-.5l-6.1 6.2.8.8 6.6-6.7L71.9 73.8z"/></g></g><path fill="#472b29" d="M74.1,72.4H65c-0.1,0-0.1-0.1-0.1-0.1s0.1-0.1,0.1-0.1h9.1c0.1,0,0.1,0.1,0.1,0.1 S74.2,72.4,74.1,72.4z"/></svg>