<svg xmlns="http://www.w3.org/2000/svg" viewBox="0 0 64 64"><radialGradient id="I4lmGkjqllf8UL6yVD6nja" cx="32" cy="34" r="33.002" gradientUnits="userSpaceOnUse" spreadMethod="reflect"><stop offset="0" stop-color="#afeeff"/><stop offset=".193" stop-color="#bbf1ff"/><stop offset=".703" stop-color="#d7f8ff"/><stop offset="1" stop-color="#e1faff"/></radialGradient><path fill="url(#I4lmGkjqllf8UL6yVD6nja)" d="M58,43l2.302,0c1.733,0,3.348-1.166,3.644-2.873C64.329,37.918,62.638,36,60.5,36h-4.401 c-0.983,0-1.895-0.666-2.067-1.634c-0.219-1.236,0.698-2.313,1.88-2.364C55.918,32.002,58,32,58,32c1.657,0,3-1.343,3-3v0 c0-1.657-1.343-3-3-3l-1.302,0c-1.733,0-3.348-1.166-3.644-2.873C52.671,20.918,54.362,19,56.5,19l1.802,0 c1.733,0,3.348-1.166,3.644-2.873C62.329,13.918,60.638,12,58.5,12H48h-6l-10,4l-14-4v4L4.698,16c-1.733,0-3.348,1.166-3.644,2.873 C0.671,21.082,2.362,23,4.5,23l1.802,0c1.895,0,3.594,1.419,3.693,3.312C10.101,28.33,8.495,30,6.5,30l-0.857,0 c-1.308,0-2.499,0.941-2.63,2.242C2.863,33.738,4.034,35,5.5,35h0c0.981,0,1.919,0.552,2.29,1.46C8.528,38.271,7.216,40,5.5,40H3.17 c-1.625,0-3.081,1.216-3.166,2.839C-0.086,44.569,1.29,46,3,46h4.893c0.996,0,1.92,0.681,2.08,1.664C10.176,48.917,9.215,50,8,50 H7.17c-1.625,0-3.081,1.216-3.166,2.839C3.914,54.569,5.29,56,7,56h11h8h22v-1h9.852c1.582,0,3.003-1.162,3.137-2.738 c0.151-1.779-1.252-3.27-3.002-3.262c-1.028,0.004-2.033-0.434-2.532-1.332C54.166,45.35,55.808,43,58,43z"/><linearGradient id="I4lmGkjqllf8UL6yVD6njb" x1="32" x2="32" y1="59.917" y2="10.917" gradientUnits="userSpaceOnUse" spreadMethod="reflect"><stop offset="0" stop-color="#ff8b67"/><stop offset=".847" stop-color="#ffa76a"/><stop offset="1" stop-color="#ffad6b"/><stop offset="1" stop-color="#ffad6b"/></linearGradient><path fill="url(#I4lmGkjqllf8UL6yVD6njb)" d="M47,10H36c0,2.209-1.791,4-4,4s-4-1.791-4-4H17c-2.75,0-5,2.25-5,5v39c0,2.75,2.25,5,5,5h30 c2.75,0,5-2.25,5-5V15C52,12.25,49.75,10,47,10z"/><linearGradient id="I4lmGkjqllf8UL6yVD6njc" x1="32" x2="32" y1="13.319" y2="57.899" gradientUnits="userSpaceOnUse" spreadMethod="reflect"><stop offset="0" stop-color="#ffcfa2"/><stop offset="1" stop-color="#ffd17c"/></linearGradient><path fill="url(#I4lmGkjqllf8UL6yVD6njc)" d="M45,54H19c-1.105,0-2-0.895-2-2V17c0-1.105,0.895-2,2-2h26c1.105,0,2,0.895,2,2v35 C47,53.105,46.105,54,45,54z"/><linearGradient id="I4lmGkjqllf8UL6yVD6njd" x1="32" x2="32" y1="15" y2="54" gradientUnits="userSpaceOnUse" spreadMethod="reflect"><stop offset="0" stop-color="#fffaf6"/><stop offset="1" stop-color="#fffaf2"/></linearGradient><path fill="url(#I4lmGkjqllf8UL6yVD6njd)" d="M45,54H19c-1.105,0-2-0.895-2-2V17c0-1.105,0.895-2,2-2h26c1.105,0,2,0.895,2,2v35 C47,53.105,46.105,54,45,54z"/><linearGradient id="I4lmGkjqllf8UL6yVD6nje" x1="32" x2="32" y1="3.306" y2="24.272" gradientUnits="userSpaceOnUse" spreadMethod="reflect"><stop offset="0" stop-color="#adadad"/><stop offset=".412" stop-color="#969696"/><stop offset="1" stop-color="#6f6f6f"/></linearGradient><path fill="url(#I4lmGkjqllf8UL6yVD6nje)" d="M39,10c0-3.866-3.134-7-7-7s-7,3.134-7,7h-4v6c0,1.657,1.343,3,3,3h16c1.657,0,3-1.343,3-3v-6 H39z M32,13c-1.657,0-3-1.343-3-3s1.343-3,3-3s3,1.343,3,3S33.657,13,32,13z"/><linearGradient id="I4lmGkjqllf8UL6yVD6njf" x1="43" x2="43" y1="62" y2="25" gradientUnits="userSpaceOnUse" spreadMethod="reflect"><stop offset="0" stop-color="#3cb5ea"/><stop offset="1" stop-color="#7ddefb"/></linearGradient><path fill="url(#I4lmGkjqllf8UL6yVD6njf)" d="M30,25h26c1.105,0,2,0.895,2,2v33c0,1.105-0.895,2-2,2H30c-1.105,0-2-0.895-2-2V27 C28,25.895,28.895,25,30,25z"/><linearGradient id="I4lmGkjqllf8UL6yVD6njg" x1="43" x2="43" y1="56.51" y2="35.458" gradientUnits="userSpaceOnUse" spreadMethod="reflect"><stop offset="0" stop-color="#0d47a1"/><stop offset=".365" stop-color="#135fba"/><stop offset=".734" stop-color="#1770cc"/><stop offset="1" stop-color="#1976d2"/></linearGradient><path fill="url(#I4lmGkjqllf8UL6yVD6njg)" d="M51.952,41.419c-0.127-0.396-0.486-0.672-0.902-0.693l-5.248-0.264l-1.867-4.824 C43.785,35.253,43.415,35,43.002,35s-0.783,0.254-0.933,0.639l-1.866,4.824l-5.253,0.264c-0.416,0.021-0.775,0.298-0.902,0.694 s0.005,0.83,0.331,1.088l4.08,3.234l-1.42,4.982c-0.113,0.399,0.031,0.827,0.363,1.075c0.332,0.25,0.781,0.266,1.133,0.045 l4.467-2.823l4.463,2.822C47.628,51.948,47.813,52,47.999,52c0.211,0,0.422-0.066,0.599-0.199c0.332-0.248,0.477-0.676,0.363-1.074 l-1.416-4.983l4.076-3.234C51.947,42.25,52.079,41.816,51.952,41.419z"/></svg>