<svg xmlns="http://www.w3.org/2000/svg" width="512" height="512" viewBox="0 0 512 512"><path fill="#D7DABA" d="M504.1,256c0,137-111.1,248.1-248.1,248.1C119,504.1,7.9,393,7.9,256C7.9,119,119,7.9,256,7.9C393,7.9,504.1,119,504.1,256"/><path fill="#3B2314" d="M405,182.6c-0.9-1-2.3-1.4-3.1-1.4c-1.9,0-3.5,1.3-3.9,3.1c-0.5,0.7-1.5,2.1-2.7,3.7c-6.1,7.8-19.3,23.6-30.9,37.4c-9.4,11.1-17.8,20.9-20.7,24.3c-4.5,0.3-17.5,1.3-30.8,2.3c-5,0.4-10.1,0.7-14.7,1.1c7.4-8.4,12.2-19.1,13.4-30.9l19.8-13.5l19.7-63.2c0.7-2.1-0.5-4.4-2.7-5c-2.1-0.7-4.4,0.5-5,2.6l-18.9,60.6l-12.8,8.7c-2.2-28.7-26.1-51.2-55.3-51.2c-29.4,0-53.4,22.8-55.3,51.7l-13.6-9.3l-18.9-60.6c-0.7-2.1-2.9-3.3-5-2.6c-2.1,0.7-3.3,2.9-2.6,5l19.7,63.2l20.6,14.1c1.3,11.6,6.1,22.1,13.4,30.4c-16.9-1.2-40-2.9-46.3-3.4c-3.6-4.1-15.3-17.9-27.1-31.8c-7-8.4-14.1-16.8-19.3-23.3c-2.6-3.2-4.8-6-6.3-8c-0.7-1-1.3-1.8-1.6-2.3c0,0,0,0,0,0c-0.4-1.8-2-3.1-3.9-3.1c-0.6,0-2.1,0.2-3.1,1.4c-1,1.1-1,2.2-1,2.7c0.1,1.7,0.5,1.8,0.6,2.3c0.7,1.4,1.9,2.9,3.7,5.3c12.5,16.2,52.9,63.2,52.9,63.3l1.1,1.3l1.7,0.1c0,0,16.1,1.2,32.5,2.4c8.2,0.6,16.5,1.2,22.8,1.7c1.1,0.1,2.1,0.1,3,0.2c3.2,2.3,6.6,4.2,10.2,5.7l-60.4,17.6l5,82.8c0.1,2.1,1.9,3.8,4,3.8c0.1,0,0.2,0,0.2,0c2.2-0.1,3.9-2,3.8-4.3l-4.6-76.4l51.6-15c-0.2,1.3-0.4,2.7-0.4,4c0,1.3,0.1,2.5,0.3,3.7c-10.1,6.7-34.1,25.3-34.1,25.3l-2.5,1.9l23.8,52.7c0.7,1.5,2.1,2.4,3.7,2.4c0.6,0,1.1-0.1,1.7-0.4c2-0.9,2.9-3.3,2-5.3l-21.2-46.9c3.3-2.5,9.3-7.1,15.4-11.7c4.5-3.4,9.2-6.8,12.8-9.3c0.4-0.3,0.8-0.6,1.2-0.9c1.3,2.4,3.1,4.5,5.1,6.2c-1.9,10.1,5.5,19.3,5.5,19.3c-1.1-2.9,0.7-9.4,2.5-14.8c2.2,0.7,4.6,1.1,7.1,1.1c1.2,0,2.4-0.1,3.6-0.3c1.7,5.2,3.3,11.3,2.2,14c0,0,6.2-7.7,5.7-16.8c3.2-1.8,5.9-4.4,7.9-7.5c0.4,0.3,0.7,0.5,1.1,0.8c8.6,6.1,21.3,15.8,26.6,19.9l-21.2,46.9c-0.9,2,0,4.4,2,5.3c0.5,0.2,1.1,0.4,1.6,0.4c1.5,0,3-0.9,3.7-2.4l23.8-52.7l-2.5-1.9c0,0-8.9-6.9-18-13.7c-4.6-3.4-9.2-6.8-13-9.5c-0.3-0.2-0.6-0.5-1-0.7c0.4-1.7,0.6-3.4,0.6-5.1c0-1.1-0.1-2.2-0.3-3.3l49.1,14.3l-4.6,76.4c-0.1,2.2,1.5,4.1,3.8,4.3c0.1,0,0.2,0,0.3,0c2.1,0,3.9-1.6,4-3.8l5-82.8l-59.9-17.4c3.8-1.6,7.3-3.6,10.6-5.9c0.7,0,1.4-0.1,2.1-0.1c19.1-1.4,55.3-4.1,55.3-4.1l1.7-0.1l1.1-1.3c0,0,14.1-16.4,28.2-33.2c7-8.4,14.1-16.8,19.4-23.4c2.7-3.3,4.9-6.1,6.5-8.2c0.8-1.1,1.4-2,1.9-2.7c0.2-0.4,0.5-0.7,0.7-1.1c0.2-0.5,0.5-0.6,0.6-2.3C406,184.7,405.9,183.7,405,182.6"/></svg>