<svg xmlns="http://www.w3.org/2000/svg" viewBox="0 0 80 80"><path d="M 39 5 L 39 7 L 37 7 L 37 9 L 39 9 L 39 11.742188 C 38.515137 12.569038 37.471206 13.388828 36.183594 14.251953 C 34.830105 15.159236 33.28393 16.120153 32.199219 17.572266 L 32.197266 17.572266 C 31.486054 18.528383 31 19.73052 31 21.130859 C 31 22.797976 31.788423 24.302984 33 25.449219 L 33 34.523438 C 31.308185 35.923194 30.048549 37.82063 29.429688 39.986328 C 28.783326 38.896824 27.959876 37.943344 27 37.166016 L 27 28.681641 C 28.195013 27.673811 29 26.28733 29 24.730469 C 29 23.482312 28.542429 22.409674 27.888672 21.574219 C 27.234914 20.738763 26.40706 20.107924 25.583984 19.548828 C 24.004072 18.47563 22.52994 17.580846 22 16.720703 L 22 15 L 24 15 L 24 13 L 22 13 L 22 11 L 20 11 L 20 13 L 18 13 L 18 15 L 20 15 L 20 16.703125 C 19.604265 17.357229 18.732127 18.046433 17.603516 18.777344 C 16.420665 19.54338 15.057571 20.35639 14.083984 21.615234 L 14.082031 21.617188 C 13.443189 22.446261 13 23.50468 13 24.730469 C 13 26.287111 13.805675 27.674568 15 28.681641 L 15 37.166016 C 12.569611 39.134198 11 42.251242 11 45.736328 L 11 74 L 30 74 L 35 74 L 45 74 L 50 74 L 69 74 L 69 45.736328 C 69 42.251242 67.430389 39.134198 65 37.166016 L 65 28.681641 C 66.194325 27.674568 67 26.287111 67 24.730469 C 67 23.50468 66.556858 22.446307 65.917969 21.617188 L 65.916016 21.615234 C 64.942476 20.356436 63.579335 19.54338 62.396484 18.777344 C 61.267873 18.046433 60.395735 17.357229 60 16.703125 L 60 15 L 62 15 L 62 13 L 60 13 L 60 11 L 58 11 L 58 13 L 56 13 L 56 15 L 58 15 L 58 16.720703 C 57.47006 17.580846 55.995928 18.47563 54.416016 19.548828 C 53.59294 20.107924 52.765086 20.738763 52.111328 21.574219 C 51.457571 22.409674 51 23.482312 51 24.730469 C 51 26.28733 51.804987 27.673811 53 28.681641 L 53 37.166016 C 52.040124 37.943344 51.216674 38.896824 50.570312 39.986328 C 49.951451 37.82063 48.691815 35.923194 47 34.523438 L 47 25.449219 C 48.211577 24.302984 49 22.797976 49 21.130859 C 49 18.277568 47.043232 16.479598 45.171875 15.164062 C 43.360359 13.890597 41.632131 12.834273 41 11.730469 L 41 9 L 43 9 L 43 7 L 41 7 L 41 5 L 39 5 z M 40.041016 13.5625 C 41.170014 14.86557 42.660207 15.841872 44.021484 16.798828 C 45.752627 18.015794 47 19.164151 47 21.130859 C 47 22.185656 46.493411 23.171939 45.59375 24.009766 L 34.396484 24.001953 C 33.502738 23.165934 33 22.18204 33 21.130859 C 33 20.171198 33.293993 19.45146 33.802734 18.767578 C 34.578145 17.730135 35.920825 16.83647 37.296875 15.914062 C 38.301324 15.240752 39.251244 14.474514 40.041016 13.5625 z M 21.039062 18.537109 C 22.04373 19.613368 23.309578 20.42236 24.458984 21.203125 C 25.212034 21.714654 25.873054 22.242565 26.314453 22.806641 C 26.755852 23.370716 27 23.941126 27 24.730469 C 27 25.545585 26.599815 26.322224 25.865234 27 L 16.132812 27 C 15.399333 26.323257 15 25.546428 15 24.730469 C 15 23.960258 15.238858 23.394771 15.667969 22.837891 C 16.322529 21.992145 17.485988 21.237683 18.691406 20.457031 C 19.536017 19.910045 20.344083 19.281313 21.039062 18.537109 z M 58.960938 18.537109 C 59.655917 19.281313 60.463983 19.910045 61.308594 20.457031 C 62.514012 21.237683 63.677471 21.992145 64.332031 22.837891 C 64.761142 23.394771 65 23.960258 65 24.730469 C 65 25.546428 64.600667 26.323257 63.867188 27 L 54.134766 27 C 53.400185 26.322224 53 25.545585 53 24.730469 C 53 23.941126 53.244148 23.370716 53.685547 22.806641 C 54.126946 22.242565 54.787966 21.714654 55.541016 21.203125 C 56.690422 20.42236 57.956271 19.613368 58.960938 18.537109 z M 35 26 L 45 26.009766 L 45 33.214844 C 43.779251 32.588227 42.430283 32.180549 41 32.050781 L 41 29 C 41 28.448 40.552 28 40 28 C 39.448 28 39 28.448 39 29 L 39 32.050781 C 37.569717 32.180549 36.220749 32.588227 35 33.214844 L 35 26 z M 17 29 L 25 29 L 25 35.900391 C 24.066618 35.461366 23.059241 35.167694 22 35.054688 L 22 32 C 22 31.448 21.552 31 21 31 C 20.448 31 20 31.448 20 32 L 20 35.054688 C 18.940759 35.167694 17.933382 35.461366 17 35.900391 L 17 29 z M 55 29 L 63 29 L 63 35.900391 C 62.066618 35.461366 61.059241 35.167694 60 35.054688 L 60 32 C 60 31.448 59.552 31 59 31 C 58.448 31 58 31.448 58 32 L 58 35.054688 C 56.940759 35.167694 55.933382 35.461366 55 35.900391 L 55 29 z M 40 34 C 44.982593 34 49 38.017407 49 43 L 49 45 L 49.035156 45 C 49.019556 45.244276 49 45.48813 49 45.736328 L 51 45.736328 C 51 40.85777 54.613591 37 59 37 C 63.386409 37 67 40.85777 67 45.736328 L 67 72 L 50.908203 72 L 50.958984 71.716797 L 50.347656 71.0625 L 50 71 L 49.199219 71.402344 L 49.091797 72 L 45 72 L 45 60 C 45 57.250484 42.749516 55 40 55 C 37.250484 55 35 57.250484 35 60 L 35 72 L 30.908203 72 L 30.958984 71.716797 L 30.347656 71.0625 L 30 71 L 29.199219 71.402344 L 29.091797 72 L 13 72 L 13 45.736328 C 13 40.85777 16.613591 37 21 37 C 25.386409 37 29 40.85777 29 45.736328 L 31 45.736328 C 31 45.48813 30.980444 45.244276 30.964844 45 L 31 45 L 31 43 C 31 38.017407 35.017407 34 40 34 z M 40 39 C 39.448 39 39 39.448 39 40 L 39 45 L 41 45 L 41 40 C 41 39.448 40.552 39 40 39 z M 21 40 C 20.448 40 20 40.448 20 41 L 20 45 L 22 45 L 22 41 C 22 40.448 21.552 40 21 40 z M 59 40 C 58.448 40 58 40.448 58 41 L 58 45 L 60 45 L 60 41 C 60 40.448 59.552 40 59 40 z M 30 47 L 29.199219 47.402344 L 29.041016 48.283203 L 29.652344 48.9375 L 30 49 L 30.800781 48.597656 L 30.958984 47.716797 L 30.347656 47.0625 L 30 47 z M 50 47 L 49.199219 47.402344 L 49.041016 48.283203 L 49.652344 48.9375 L 50 49 L 50.800781 48.597656 L 50.958984 47.716797 L 50.347656 47.0625 L 50 47 z M 30 51 L 29.199219 51.402344 L 29.041016 52.283203 L 29.652344 52.9375 L 30 53 L 30.800781 52.597656 L 30.958984 51.716797 L 30.347656 51.0625 L 30 51 z M 50 51 L 49.199219 51.402344 L 49.041016 52.283203 L 49.652344 52.9375 L 50 53 L 50.800781 52.597656 L 50.958984 51.716797 L 50.347656 51.0625 L 50 51 z M 30 55 L 29.199219 55.402344 L 29.041016 56.283203 L 29.652344 56.9375 L 30 57 L 30.800781 56.597656 L 30.958984 55.716797 L 30.347656 55.0625 L 30 55 z M 50 55 L 49.199219 55.402344 L 49.041016 56.283203 L 49.652344 56.9375 L 50 57 L 50.800781 56.597656 L 50.958984 55.716797 L 50.347656 55.0625 L 50 55 z M 40 57 C 41.668484 57 43 58.331516 43 60 L 43 72 L 37 72 L 37 60 C 37 58.331516 38.331516 57 40 57 z M 30 59 L 29.199219 59.402344 L 29.041016 60.283203 L 29.652344 60.9375 L 30 61 L 30.800781 60.597656 L 30.958984 59.716797 L 30.347656 59.0625 L 30 59 z M 50 59 L 49.199219 59.402344 L 49.041016 60.283203 L 49.652344 60.9375 L 50 61 L 50.800781 60.597656 L 50.958984 59.716797 L 50.347656 59.0625 L 50 59 z M 30 63 L 29.199219 63.402344 L 29.041016 64.283203 L 29.652344 64.9375 L 30 65 L 30.800781 64.597656 L 30.958984 63.716797 L 30.347656 63.0625 L 30 63 z M 50 63 L 49.199219 63.402344 L 49.041016 64.283203 L 49.652344 64.9375 L 50 65 L 50.800781 64.597656 L 50.958984 63.716797 L 50.347656 63.0625 L 50 63 z M 30 67 L 29.199219 67.402344 L 29.041016 68.283203 L 29.652344 68.9375 L 30 69 L 30.800781 68.597656 L 30.958984 67.716797 L 30.347656 67.0625 L 30 67 z M 50 67 L 49.199219 67.402344 L 49.041016 68.283203 L 49.652344 68.9375 L 50 69 L 50.800781 68.597656 L 50.958984 67.716797 L 50.347656 67.0625 L 50 67 z"/></svg>