<svg xmlns="http://www.w3.org/2000/svg" width="512" height="512" viewBox="0 0 512 512"><path fill="#FCBF95" d="M328.2,372.6c-0.8-0.7-2.5-2.4-3.8-2.3c-0.1,0.3-0.2,0.6-0.3,1c0.6,0.8,1,1.8,1,3c0.1,4,1.3,8,3.4,11.4c0.4-1.4,0.7-2.8,0.9-4.2C329.8,378.6,330.7,374.8,328.2,372.6z"/><path fill="#FCBF95" d="M333.8,412.9c-1.9-0.2-3.9-0.5-5.8-0.9c-18.5-3.6-41.2-15.8-39-38c1.4-13.9,12.8-22.8,25.1-29.1c-5.6-0.8-11-2.1-16.3-3.8c-17-5.6-35.7-18-27-38.3c6.7-15.5,22.9-21.7,38.7-25.2c-5.3-1.5-10.5-3.5-15.3-6.3c-9.6-5.7-19.2-14-22.7-25.1c-3.8-12.2,0-23.5,8-33c0.1-0.1,0.2-0.2,0.3-0.3c-4.2-1.8-10.3-1.9-13.1,0.5c-5.4,4.6-11.5-4.5-6.2-9.1c6.6-5.7,21.1-4.5,28.1,1c0.8-0.4,1.6-0.7,2.5-1c-0.7-2.1,0.2-4.1,1.8-5.3c0.9-3.5,2.4-7,3.5-10.2c1.8-5.4,3.8-10.8,5.9-16.1c4-10.4,8.1-20.7,11-31.5c0.5-2,1-4,1.4-6c-2.1,0.6-4.3,1.1-6.4,1.5c-2.8,0.6-10.2,1.3-11.6,2.9c-4.8,5.2-13-2-8.3-7.3c7-7.7,20.1-3.9,28.1-9.9c0.7-9.6-0.2-19.2-2.9-28.9c-3.5-12.7-8.1-25.6-14.5-37.1c-4.6-8.2-11.9-21.2-22.6-21.8c-8.4-0.5-13.4,8-13.9,15.3c0,0.2,0,0.4,0,0.5c8.9-3.6,24.7-3.4,28,7.4c1.9,6.3-1.7,12.7-7.2,15.8c-2.4,1.4-5.1,2.2-7.7,3.1c-1.1,0.4-4,1.3-4.3,1.8c-1.1,1.8-2.7,2.6-4.3,2.8c0.1,0.6,0.1,1.1,0.2,1.7c1.1,13.3-1.8,27.2-9.7,38.2c-8.7,12.2-19.2,23-28.5,34.8c-15.2,19.5-21.6,47.6-46.5,57.8c-12.5,5.1-26,6-38.8,10c-13.7,4.3-26.3,10.4-37.1,19.9c-1.2,1-2.5,1.5-3.7,1.5c-1.9,0.8-4.1,1.4-6.5,1.8c-5,1-10.6,3.5-14.8,6.4c-10,7-12.6,20.2-12.7,31.8c-0.1,13.7,2.5,27.3,2.2,41.1c-0.3,13.9-3,27.5-4.8,41.2c-1.4,11.1-0.5,22.4,5.8,31.9c5.7,8.6,13.8,15,23.1,19.4c10.8,5.1,22.1,7.1,33.7,9.1c15.3,2.6,30.5,5.5,45.2,10.6c14.7,5.1,28,12.7,43.4,16.1c11.1,2.5,22.4,4.4,33.8,5.4c22.3,2,48.1,1.7,67.4-11.1c-2.5-4.8-3.6-10.1-1.9-15.4C319.8,424.4,326.2,417.8,333.8,412.9z M157.1,375.8c-1.6,6.9-12.4,4.8-10.8-2.1c2.9-12.4,2.5-25.4,0.3-37.9c-0.8-4.8-1.9-9.5-3.3-14.1c-0.5-1.7-1-3.4-1.6-5.1c-0.7-1.9-1.5-2.5-0.6-1.9c-2.6-2.6-2.8-7.7,1.8-9.2c9.5-3,12.2,16.7,13.4,22.7C159.6,343.8,160.8,360.1,157.1,375.8z M263.6,383.1c-7.5-0.8-14.4-9.3-19.8-13.8c-7.2-6-18.1-13.6-27.7-13.1c-4,0.2-6-3.2-5.7-6.2c-9,4-18.3,6.7-28.3,6.2c-7-0.3-7.9-11.3-0.8-11c16.2,0.7,30.5-7.8,44-15.7c5.2-3,10.3-6.1,15.1-9.6c2.1-1.5,4.3-3.1,6.1-5c0.5-0.5,1.4-1.3,1.6-1.8c0.1-0.2,0.2-0.3,0.2-0.3c0.3-5.7,9.1-8.3,10.5-2c1.4,6.1-2.8,10.5-7.2,14.2c-5.5,4.6-11.6,8.4-17.7,12c-4.7,2.8-9.4,5.6-14.3,8.3c10.7,1.1,19.5,7.7,28.4,13.4c3.6,2.3,6.5,5.4,9.7,8.1c2.1,1.8,5.4,5.1,7.9,5.4C272.8,373,270.6,383.8,263.6,383.1z"/><path fill="#FCBF95" d="M433.6 356.2c-1.3-10.1-8.6-19.9-19.5-19-1.1.1-2-.1-2.8-.5-12.3 4.4-25.8 6-38.7 7.3-11.7 1.2-23.8 2.3-35.9 2.4-.5.6-1.2 1.1-2.2 1.5-12 4.8-38.9 14.8-34.2 32.3 4.6 17 27.5 22.8 42.9 22.1 26.4-1.2 51.8-6.6 74.4-21.1C426 375.8 435 367.2 433.6 356.2zM340.4 382.4c-1 6.8-3.5 18.3-12.6 16.9-4.6-.7-7.9-6.4-9.9-10.1-2.3-4.3-3.5-9.1-3.7-14 0-.4 0-.8.1-1.2-.9-1.1-1.3-2.5-1-4.3 1.7-8.8 9.8-13 17.8-8.4C339.4 365.8 341.7 373.5 340.4 382.4zM392.2 377.1c-.1-6.7-.9-13.3-1-20-.1-7.1 10.9-7.9 11-.8.1 6.7.9 13.3 1 20C403.2 383.3 392.3 384.2 392.2 377.1zM353 433.1c0 .1-.3-1-.5-1.7-.4.7-.9 1.3-1.5 1.7.1.4.1.8.2 1.3 0 2.2.4 4.4 1.1 6.5.2.5.3 1 .5 1.5.2-.6.7-2.3.7-2.9C353.5 437.2 353.4 435.1 353 433.1z"/><path fill="#FCBF95" d="M414.1 400.2c-2.1.2-3.7-.6-4.7-2-2.2 1-4.3 2-6.4 2.9-16.9 7.1-36.8 12.3-56 12.5.7 2 .2 4.3-2.3 5.6-6.6 3.4-16 9.2-17.2 17.3-1 6.7 4.6 13.3 10.1 16.6 11.7 7 26.2 6.7 39.2 4.1 12.8-2.6 26.1-7.6 36.4-15.9 6.5-5.2 11.4-13.6 12.5-21.9C426.7 411.6 424.5 399.2 414.1 400.2zM364.3 440.5c-.6 6.9-6.5 18-15 14-6.6-3.1-9-12.8-9.1-19.4 0-2.1.9-3.6 2.2-4.6-.5-1.2-.5-2.7.4-4.3 1.8-3.2 4.1-6.6 7.7-7.6 3.7-1.1 7.2.5 9.5 3.5C364 427 364.8 434.5 364.3 440.5zM396.7 448.3c-2.3 1.9-6.1.8-7.6-1.5-1.8-2.7-.8-5.7 1.5-7.6 2.1-1.8 1.6-7.5 1.6-10 0-3 1.9-5.7 5.1-5.9 2.8-.2 5.9 2.1 5.9 5.1C403.1 435.7 402.8 443.2 396.7 448.3zM307.3 305.6c-.1.4-.2.8-.3 1.2-.5 2.3-2.1 3.6-3.9 4.1 1.7.9 3.1 2.5 3 4.4-.1 2.7-.1 5.3 1 7.7 0-.1.3.3.4.6.1.1.1.1.2.2 0 0 .1-.1.1-.1 0 0 .9-1.4.5-.6.6-1 1-2 1.3-3.1.2-.8.4-1.6.5-2.5 0-.3.1-.6.1-.7C310.2 312.9 309.2 308.8 307.3 305.6zM265.5 60.9c-.7.3-1.3.5-1.9.5.5 2.7 1 5.3 1.6 8 1.8-1.4 3.9-2.4 6.2-3.1 2.5-.8 7.6-1.6 8.7-4.4C281.8 57.2 267.6 59.9 265.5 60.9zM311.7 229.3c-.4-.3-.8-.4-1.2-.5-.1.2-.3.4-.3.5-.6 1.5-1 3.3-1 5-.1 2.6-1.6 4.4-3.5 5.2-.5 2.6-.3 5.2.5 7.8.4 1.2 2.3 6.1 2.5 6 1.3-.3 3-5.1 3.3-6.3.5-1.9.8-3.8.9-5.7C313.1 238.9 314 231 311.7 229.3z"/><path fill="#FCBF95" d="M419.1 280.2c-1.8.2-3.2-.4-4.2-1.4-13.5 3.3-27.3 5-41.1 5.3-14.3.3-28.7-.6-42.8-2.6-1.4-.2-2.7-.4-4.1-.6-.3 2.4-1.8 4.7-4.8 5.2-2.9.5-5.8 1-8.6 1.6-9.1 2-20.1 4.7-27 11.5-5.1 5-10.4 14.5-4.2 20.8 4.6 4.7 10.3 7.9 16.5 10.2-2.8-4-3.8-9.7-3.6-14.2.1-2.6 1.4-5 3.9-5.7-2-.9-3.4-2.9-2.8-5.8 1-4.5 2.7-9.9 7.4-11.8 3.4-1.3 7.4 0 9.8 2.7 5.3 6 8.2 14.6 7.6 22.6-.4 5.9-3.3 12.7-8.4 15.5 8.9 1.3 17.9 1.4 25.9 1.3 15.3-.2 30.7-1.3 45.8-3.5 11.2-1.6 22.5-3.5 32.4-9.2 8.9-5.2 17.3-12.8 18.5-23.6C436.5 287.9 430.6 279 419.1 280.2zM402.6 320.2c-1 2.8-4.9 3.7-7.4 2.5-2.9-1.4-3.5-4.6-2.5-7.4 1.4-3.8.5-8.2.4-12.1-.1-7.1 10.9-7.9 11-.8C404.2 308.5 404.7 314.2 402.6 320.2zM428 215.9c-18.1-9.2-40-3.9-59.4-5.7-26.5-2.4-55-6.3-79.5 6.9 0 1.1-.4 2.2-1.3 3.3-4.8 5.7-8.6 13.2-6.3 20.9 2 6.5 6.3 11.8 11.6 16 12.5 9.8 28 12.1 43.3 14 14.4 1.8 28.9 2.6 43.4 1.7 13.4-.8 27.9-2.2 40.6-7.1 9.9-3.8 19.6-11.6 21.2-22.7C443 232.8 437.4 220.6 428 215.9zM323.7 243.4c-.8 7.6-5.9 23.4-16.5 20.7-10.8-2.7-15-19-11.9-28.5.6-1.8 1.8-2.9 3.2-3.5 1.2-8.3 6.5-18.7 16.4-13.7C324.3 223.3 324.6 234 323.7 243.4zM392.2 251.1c-.1-7.1-1.9-13.9-2-21-.1-7.1 10.8-7.9 11-.8.1 7.1 1.9 13.9 2 21C403.3 257.4 392.3 258.2 392.2 251.1z"/><path d="M436.9,320.2c8.3-9.2,11.4-22.2,8.1-34.1c-1.9-6.7-6.4-11.6-12-14.4c4.5-2.7,8.6-6,12-10.3c14.5-18,7-45.7-13.2-55.9c-19.6-9.9-42.9-4.1-63.7-6.4c-21.3-2.4-43.4-4.1-64.1,0.9c1.2-4.4,3.2-8.9,4.6-12.9c2.6-7.1,5.3-14.1,8-21.1c5-13.3,9.5-26.9,11.1-41.1c2-18.4-3.1-36.5-9.5-53.5c-5.8-15.3-13.7-33.5-27.7-43.1c-15.5-10.7-34.9-1.3-38.2,17c-1.5,8.4,0.2,17.1,2,25.3c2.6,11.8,3.8,23.2-0.6,34.8c-4.5,11.8-14.2,21.3-22.3,30.7c-8.1,9.4-15.9,18.9-21.9,29.9c-5,9.1-9.5,18.5-16.3,26.6c-7.6,9.1-18,12.7-29.2,15.3c-11.7,2.7-23.3,4.8-34.5,9.1c-9.3,3.6-17.8,8.7-25.6,14.8c-1.6,0.2-3.1,1-4.1,2.7c-1,1.6-5.1,1.6-6.7,2c-2.7,0.6-5.3,1.7-7.9,2.7c-5.4,2.2-10.2,5.1-14.6,9c-9.1,8.2-11.8,22.7-12.3,34.3c-0.6,14.2,1.9,28.3,2.1,42.5c0.1,15.3-3.8,30.2-5.2,45.3c-2.2,22.6,9,41.7,27.6,53.9c21.8,14.2,49.3,14.2,73.8,20.3c16.9,4.2,32,12.7,48.4,18c13.3,4.3,27.7,6.4,41.5,7.9c26.2,2.8,56.4,2.6,79-12.8c0.6,0.6,1.2,1.2,1.8,1.7c13.7,12.2,34.6,12.2,51.6,8.8c17.3-3.5,36.5-10.9,47.9-25c7.2-8.9,11.1-20.4,9.9-31.8c-0.9-8.8-6-17.1-13.8-20.5c14.5-9.6,25.7-23.4,20.2-42.2c-2.5-8.6-8.4-15.9-16-19.6C430.6,326.4,433.9,323.6,436.9,320.2z M368.6,210.2c19.4,1.8,41.3-3.5,59.4,5.7c9.4,4.8,15,17,13.6,27.2c-1.6,11.1-11.3,18.9-21.2,22.7c-12.7,4.9-27.1,6.3-40.6,7.1c-14.5,0.9-29,0.1-43.4-1.7c-15.3-1.9-30.8-4.2-43.3-14c-5.3-4.2-9.6-9.5-11.6-16c-2.4-7.7,1.4-15.2,6.3-20.9c0.9-1.1,1.3-2.2,1.3-3.3C313.6,203.9,342.1,207.8,368.6,210.2z M317,433.2c-1.7,5.3-0.6,10.6,1.9,15.4c-19.3,12.8-45.1,13-67.4,11.1c-11.4-1-22.7-2.9-33.8-5.4c-15.4-3.4-28.6-11-43.4-16.1c-14.7-5.1-29.9-8-45.2-10.6c-11.7-2-22.9-4-33.7-9.1c-9.3-4.4-17.5-10.8-23.1-19.4c-6.3-9.6-7.2-20.9-5.8-31.9c1.8-13.8,4.4-27.3,4.8-41.2c0.3-13.7-2.3-27.3-2.2-41.1c0.1-11.6,2.6-24.8,12.7-31.8c4.2-2.9,9.8-5.4,14.8-6.4c2.4-0.5,4.5-1,6.5-1.8c1.3,0,2.6-0.5,3.7-1.5c10.8-9.6,23.4-15.6,37.1-19.9c12.8-4,26.3-4.9,38.8-10c24.9-10.2,31.3-38.4,46.5-57.8c9.2-11.8,19.7-22.6,28.5-34.8c7.9-11,10.8-24.9,9.7-38.2c0-0.6-0.1-1.1-0.2-1.7c1.7-0.1,3.3-1,4.3-2.8c0.3-0.5,3.1-1.4,4.3-1.8c2.6-0.9,5.3-1.7,7.7-3.1c5.5-3,9.1-9.5,7.2-15.8c-3.3-10.8-19.1-11-28-7.4c0-0.2,0-0.4,0-0.5c0.5-7.3,5.4-15.9,13.9-15.3c10.7,0.7,18,13.7,22.6,21.8c6.5,11.6,11,24.4,14.5,37.1c2.7,9.7,3.5,19.3,2.9,28.9c-8,6-21.1,2.2-28.1,9.9c-4.8,5.3,3.5,12.5,8.3,7.3c1.4-1.5,8.8-2.3,11.6-2.9c2.1-0.4,4.3-0.9,6.4-1.5c-0.4,2-0.9,4-1.4,6c-2.8,10.7-7,21.1-11,31.5c-2,5.3-4,10.7-5.9,16.1c-1.1,3.2-2.6,6.7-3.5,10.2c-1.6,1.3-2.5,3.2-1.8,5.3c-0.8,0.3-1.7,0.7-2.5,1c-7-5.5-21.6-6.6-28.1-1c-5.3,4.6,0.8,13.8,6.2,9.1c2.8-2.4,8.9-2.3,13.1-0.5c-0.1,0.1-0.2,0.2-0.3,0.3c-8,9.5-11.8,20.9-8,33c3.4,11.1,13.1,19.4,22.7,25.1c4.8,2.9,10,4.8,15.3,6.3c-15.8,3.5-32,9.7-38.7,25.2c-8.8,20.4,9.9,32.8,27,38.3c5.3,1.7,10.8,3,16.3,3.8c-12.3,6.3-23.7,15.3-25.1,29.1c-2.3,22.2,20.4,34.4,39,38c1.9,0.4,3.8,0.7,5.8,0.9C326.2,417.8,319.8,424.4,317,433.2z M263.6,61.4c0.6,0,1.3-0.2,1.9-0.5c2.1-1,16.3-3.7,14.6,0.9c-1.1,2.8-6.2,3.6-8.7,4.4c-2.3,0.8-4.4,1.8-6.2,3.1C264.6,66.7,264,64.1,263.6,61.4z M307.9,323.7c0,0-0.1,0.1-0.1,0.1c-0.1-0.1-0.1-0.1-0.2-0.2c-0.2-0.3-0.4-0.7-0.4-0.6c-1.1-2.4-1.1-5.1-1-7.7c0.1-2-1.3-3.6-3-4.4c1.8-0.4,3.4-1.7,3.9-4.1c0.1-0.4,0.2-0.8,0.3-1.2c1.9,3.3,2.9,7.4,2.9,11.2c0,0.2,0,0.4-0.1,0.7c-0.1,0.8-0.3,1.6-0.5,2.5c-0.3,1.1-0.7,2.1-1.3,3.1C308.8,322.3,307.9,323.7,307.9,323.7z M425.7,419.5c-1.1,8.3-6,16.6-12.5,21.9c-10.2,8.3-23.6,13.3-36.4,15.9c-13,2.6-27.5,2.9-39.2-4.1c-5.5-3.3-11.1-9.9-10.1-16.6c1.3-8.1,10.6-13.9,17.2-17.3c2.6-1.3,3.1-3.6,2.3-5.6c19.2-0.2,39-5.4,56-12.5c2.1-0.9,4.3-1.8,6.4-2.9c1,1.3,2.5,2.2,4.7,2C424.5,399.2,426.7,411.6,425.7,419.5z M433.6,356.2c1.4,11-7.6,19.6-16,24.9c-22.5,14.5-48,19.9-74.4,21.1c-15.4,0.7-38.4-5.1-42.9-22.1c-4.7-17.5,22.2-27.5,34.2-32.3c0.9-0.4,1.6-0.9,2.2-1.5c12.1,0,24.3-1.2,35.9-2.4c12.8-1.3,26.4-2.9,38.7-7.3c0.8,0.4,1.7,0.6,2.8,0.5C424.9,336.3,432.3,346.1,433.6,356.2z M416.8,322.3c-9.9,5.7-21.2,7.7-32.4,9.2c-15.2,2.1-30.5,3.3-45.8,3.5c-8,0.1-17.1,0-25.9-1.3c5.2-2.8,8-9.6,8.4-15.5c0.6-8-2.3-16.6-7.6-22.6c-2.4-2.7-6.4-4-9.8-2.7c-4.7,1.9-6.4,7.2-7.4,11.8c-0.6,2.8,0.8,4.8,2.8,5.8c-2.5,0.7-3.8,3.1-3.9,5.7c-0.2,4.5,0.8,10.2,3.6,14.2c-6.2-2.2-12-5.5-16.5-10.2c-6.1-6.3-0.9-15.7,4.2-20.8c6.9-6.8,17.9-9.5,27-11.5c2.8-0.6,5.7-1.1,8.6-1.6c3-0.5,4.5-2.8,4.8-5.2c1.4,0.2,2.8,0.4,4.1,0.6c14.2,2,28.5,2.9,42.8,2.6c13.9-0.3,27.7-2,41.1-5.3c1,1,2.4,1.5,4.2,1.4c11.5-1.2,17.4,7.7,16.2,18.5C434.1,309.5,425.7,317.1,416.8,322.3z"/><path d="M265.7 372.3c-2.4-.3-5.7-3.6-7.9-5.4-3.2-2.7-6.2-5.9-9.7-8.1-9-5.7-17.8-12.4-28.4-13.4 4.9-2.6 9.7-5.5 14.3-8.3 6.1-3.6 12.2-7.4 17.7-12 4.4-3.7 8.6-8 7.2-14.2-1.4-6.3-10.2-3.8-10.5 2 0 .1-.1.2-.2.3-.2.5-1.1 1.3-1.6 1.8-1.8 1.9-4 3.4-6.1 5-4.8 3.5-10 6.6-15.1 9.6-13.6 7.9-27.8 16.5-44 15.7-7.1-.3-6.2 10.7.8 11 9.9.4 19.3-2.2 28.3-6.2-.3 3.1 1.8 6.4 5.7 6.2 9.7-.5 20.6 7.1 27.7 13.1 5.4 4.6 12.3 13 19.8 13.8C270.6 383.8 272.8 373 265.7 372.3zM314.9 218.4c-9.9-5.1-15.2 5.4-16.4 13.7-1.4.6-2.6 1.8-3.2 3.5-3.1 9.5 1.1 25.8 11.9 28.5 10.7 2.7 15.8-13.1 16.5-20.7C324.6 234 324.3 223.3 314.9 218.4zM312.9 241.3c-.2 1.9-.5 3.8-.9 5.7-.3 1.2-2 6-3.3 6.3-.3.1-2.2-4.8-2.5-6-.8-2.6-1-5.2-.5-7.8 1.9-.8 3.5-2.6 3.5-5.2 0-1.7.4-3.4 1-5 0-.1.2-.3.3-.5.3.1.8.2 1.2.5C314 231 313.1 238.9 312.9 241.3zM331.1 361.2c-8.1-4.5-16.1-.4-17.8 8.4-.3 1.8.1 3.2 1 4.3-.1.4-.1.8-.1 1.2.2 4.9 1.4 9.7 3.7 14 1.9 3.7 5.3 9.4 9.9 10.1 9.1 1.5 11.7-10.1 12.6-16.9C341.7 373.5 339.4 365.8 331.1 361.2zM329.4 381.4c-.2 1.4-.5 2.8-.9 4.2-2.1-3.4-3.2-7.3-3.4-11.4 0-1.3-.4-2.3-1-3 .1-.3.1-.6.3-1 1.3-.1 3 1.6 3.8 2.3C330.7 374.8 329.8 378.6 329.4 381.4zM360 422.1c-2.4-2.9-5.8-4.6-9.5-3.5-3.7 1.1-6 4.5-7.7 7.6-.9 1.6-.9 3.1-.4 4.3-1.3 1-2.2 2.5-2.2 4.6.1 6.6 2.5 16.3 9.1 19.4 8.5 4 14.4-7.1 15-14C364.8 434.5 364 427 360 422.1zM353.4 439.3c0 .6-.4 2.3-.7 2.9-.2-.5-.4-1-.5-1.5-.7-2.1-1-4.3-1.1-6.5 0-.5-.1-.9-.2-1.3.6-.4 1.1-1 1.5-1.7.2.7.5 1.8.5 1.7C353.4 435.1 353.5 437.2 353.4 439.3zM401.2 229.3c-.1-7.1-11.1-6.2-11 .8.1 7.1 1.9 13.9 2 21 .1 7.1 11.1 6.2 11-.8C403 243.2 401.3 236.3 401.2 229.3zM404.2 302.3c-.1-7.1-11.1-6.2-11 .8.1 3.9.9 8.3-.4 12.1-1 2.8-.4 5.9 2.5 7.4 2.4 1.2 6.4.3 7.4-2.5C404.7 314.2 404.2 308.5 404.2 302.3zM402.2 356.3c-.1-7.1-11-6.2-11 .8.1 6.7.9 13.3 1 20 .1 7.1 11 6.2 11-.8C403.1 369.6 402.2 363 402.2 356.3zM397.2 423.2c-3.2.2-5.1 2.9-5.1 5.9 0 2.6.5 8.3-1.6 10-2.3 1.9-3.3 5-1.5 7.6 1.5 2.3 5.3 3.4 7.6 1.5 6.1-5.1 6.4-12.6 6.4-20C403.2 425.3 400.1 423 397.2 423.2zM156.3 328.2c-1.2-5.9-4-25.7-13.4-22.7-4.5 1.4-4.4 6.6-1.8 9.2-1-.7-.1 0 .6 1.9.6 1.7 1.1 3.4 1.6 5.1 1.4 4.7 2.5 9.3 3.3 14.1 2.2 12.5 2.6 25.5-.3 37.9-1.6 6.9 9.2 9 10.8 2.1C160.8 360.1 159.6 343.8 156.3 328.2z"/></svg>