<svg xmlns="http://www.w3.org/2000/svg" viewBox="0 0 40 40"><path fill="#5e9c76" d="M0.5 5.5H39.5V34.5H0.5z"/><path fill="#37774e" d="M39,6v28H1V6H39 M40,5H0v30h40V5L40,5z"/><path fill="#fff" d="M20.342 14.245L21.365 8.541 21.021 14.326 22.712 8.783 21.686 14.487 24.02 9.183 22.327 14.725 25.272 9.735 22.936 15.038 26.451 10.431 23.503 15.42 27.538 11.261 24.021 15.867 28.52 12.214 24.483 16.371 29.382 13.277 24.882 16.927 30.112 14.434 25.212 17.526 30.7 15.669 25.469 18.161 31.138 16.966 25.65 18.82 31.42 18.305 25.751 19.497 31.542 19.668 25.771 20.181 31.501 21.035 25.71 20.863 31.299 22.389 25.569 21.532 30.939 23.709 25.35 22.18 30.425 24.977 25.056 22.798 29.764 26.176 24.691 23.377 28.967 27.287 24.26 23.908 28.043 28.297 23.769 24.385 27.007 29.19 23.225 24.8 25.872 29.955 22.636 25.148 24.655 30.58 22.01 25.424 23.373 31.056 21.356 25.624 22.043 31.378 20.683 25.745 20.684 31.54 20 25.785 19.316 31.54 19.317 25.745 17.958 31.378 18.644 25.624 16.628 31.056 17.99 25.424 15.345 30.58 17.364 25.148 14.128 29.955 16.775 24.8 12.994 29.191 16.231 24.385 11.957 28.297 15.74 23.908 11.034 27.288 15.309 23.377 10.236 26.176 14.944 22.798 9.576 24.978 14.65 22.181 9.061 23.709 14.431 21.532 8.701 22.389 14.29 20.863 8.499 21.036 14.229 20.181 8.458 19.668 14.249 19.497 8.58 18.305 14.35 18.821 8.861 16.966 14.531 18.161 9.3 15.67 14.788 17.527 9.888 14.434 15.118 16.927 10.618 13.277 15.517 16.372 11.48 12.214 15.978 15.867 12.462 11.261 16.497 15.42 13.549 10.431 17.064 15.038 14.727 9.735 17.673 14.725 15.979 9.183 18.314 14.487 17.288 8.783 18.979 14.326 18.634 8.541 19.658 14.245 20 8.46z"/><path fill="#bae0bd" d="M20.931,28.5c-0.372,0-0.711-0.14-1.009-0.416c-0.202-0.187-0.289-0.426-0.345-0.584l-0.896-2.488 c-0.133-0.372-0.299-0.834-0.225-1.337c0.032-0.215,0.104-0.405,0.168-0.572c0.037-0.098,0.075-0.194,0.1-0.295 c0.095-0.387-0.073-0.681-0.355-1.128c-0.245-0.388-0.522-0.828-0.513-1.393c0.003-0.181,0.049-0.339,0.086-0.465 c0.005-0.016,0.01-0.032,0.015-0.048c-0.045,0.008-0.092,0.013-0.142,0.013h-0.106l-0.19-0.062 c-0.229-0.101-0.334-0.292-0.391-0.394c-0.008,0-0.016,0-0.024,0c-0.138,0-0.235,0.038-0.339,0.078l-0.126,0.048 c-0.401,0.146-0.793,0.221-1.166,0.221c-0.989,0-1.841-0.505-2.533-1.5c-0.167-0.241-0.397-0.572-0.435-0.984 c-0.022-0.245,0.027-0.459,0.07-0.647c0.02-0.086,0.041-0.172,0.048-0.259c0.009-0.104-0.001-0.208-0.01-0.313 c-0.01-0.129-0.02-0.259-0.015-0.389c0.031-0.859,0.592-1.477,1.138-1.967c0.242-0.217,0.414-0.439,0.581-0.653 c0.398-0.512,0.809-1.042,1.928-1.174l3.011-0.355l-0.02,0.582c-0.004,0.14-0.018,0.279-0.041,0.417 c0.014,0.008,0.028,0.015,0.042,0.023c0.3,0.159,0.61,0.324,0.868,0.379l0.076,0.018c0.009-0.015,0.019-0.03,0.029-0.045 c0.127-0.196,0.35-0.321,0.612-0.345l0.106-0.005c0.313,0,0.575,0.127,0.785,0.229c0.117,0.057,0.228,0.111,0.317,0.128 c0.037,0.007,0.074,0.009,0.111,0.009c0.1,0,0.201-0.015,0.302-0.028l0.13-0.016c0.096-0.011,0.194-0.018,0.291-0.018 c0.278,0,0.508,0.058,0.706,0.177c0.239,0.145,0.408,0.394,0.453,0.667c0.035,0.214-0.009,0.421-0.124,0.591 c0.088,0.177,0.174,0.354,0.258,0.529c0.364,0.758,0.708,1.474,1.251,2.006c0.129,0.125,0.234,0.226,0.321,0.356 c0.04,0.06,0.074,0.124,0.107,0.188c0.001,0.001,0.002,0.003,0.003,0.005c0.28-0.004,0.542-0.048,0.736-0.08 c0.173-0.028,0.31-0.046,0.367-0.046h0.399l0.112,0.395c0.02,0.084,0.033,0.168,0.04,0.253c0.081,0.982-0.672,1.796-1.246,2.323 c-0.535,0.492-1.142,1.049-1.134,1.639c0.002,0.177,0.061,0.376,0.122,0.586c0.036,0.125,0.072,0.249,0.101,0.375 c0.137,0.61,0.028,1.139-0.307,1.491c-0.173,0.182-0.381,0.291-0.564,0.388c-0.099,0.052-0.264,0.139-0.291,0.185 c-0.003,0.021,0.011,0.108,0.02,0.166c0.023,0.147,0.051,0.331,0.007,0.538c-0.058,0.268-0.214,0.462-0.328,0.605 c-0.06,0.074-0.131,0.168-0.212,0.277C23.062,27.171,22.059,28.5,20.931,28.5L20.931,28.5z"/><path fill="#37774e" d="M18.738,12c-0.008,0.237-0.046,0.474-0.115,0.702c0.421,0.2,0.921,0.524,1.379,0.622 c0.219,0.047,0.32,0.084,0.38,0.084c0.089,0,0.088-0.081,0.249-0.328c0.049-0.075,0.145-0.11,0.237-0.119 c0.02-0.002,0.04-0.003,0.06-0.003c0.352,0,0.655,0.28,1.007,0.349c0.068,0.013,0.137,0.019,0.207,0.019 c0.163,0,0.327-0.029,0.489-0.047c0.077-0.009,0.156-0.015,0.234-0.015c0.158,0,0.314,0.025,0.446,0.105 c0.197,0.12,0.301,0.402,0.154,0.576c-0.023,0.028-0.054,0.053-0.091,0.059c-0.007,0.001-0.014,0.002-0.021,0.002 c-0.126,0-0.16-0.211-0.281-0.276c0.667,1.089,1.053,2.446,1.985,3.361c0.09,0.088,0.186,0.173,0.255,0.277 c0.076,0.114,0.118,0.249,0.212,0.349c0.05,0.054,0.168,0.073,0.317,0.073c0.386,0,0.975-0.131,1.101-0.131 c0.015,0,0.023,0.002,0.024,0.006c0.014,0.061,0.024,0.122,0.029,0.182c0.059,0.725-0.52,1.395-1.085,1.914 c-0.612,0.562-1.306,1.2-1.296,2.013c0.004,0.364,0.155,0.71,0.235,1.065c0.08,0.356,0.075,0.767-0.181,1.035 c-0.291,0.305-0.856,0.377-0.971,0.776c-0.069,0.24,0.069,0.497,0.016,0.741c-0.032,0.15-0.132,0.276-0.229,0.397 C23.044,26.334,21.954,28,20.931,28c-0.229,0-0.455-0.084-0.669-0.282c-0.111-0.103-0.165-0.248-0.215-0.387 c-0.298-0.829-0.597-1.659-0.895-2.488c-0.127-0.354-0.256-0.724-0.201-1.094c0.043-0.283,0.19-0.542,0.258-0.821 c0.269-1.1-0.868-1.692-0.853-2.633c0.003-0.205,0.105-0.398,0.128-0.602c0.023-0.204-0.084-0.454-0.297-0.471 c-0.008-0.001-0.016-0.001-0.024-0.001c-0.118,0-0.237,0.066-0.349,0.066c-0.031,0-0.062-0.005-0.092-0.018 c-0.115-0.051-0.147-0.189-0.223-0.286c-0.093-0.118-0.251-0.168-0.408-0.168c-0.032,0-0.064,0.002-0.096,0.006 c-0.184,0.024-0.354,0.104-0.528,0.167c-0.355,0.13-0.686,0.191-0.995,0.191c-0.871,0-1.566-0.485-2.122-1.286 c-0.159-0.229-0.323-0.471-0.348-0.744c-0.025-0.275,0.094-0.543,0.118-0.817c0.021-0.242-0.032-0.485-0.023-0.727 c0.024-0.668,0.491-1.18,0.973-1.614c0.867-0.779,0.899-1.544,2.233-1.702C17.115,12.191,17.927,12.096,18.738,12 M19.775,10.871 l-1.155,0.136l-2.434,0.287c-1.327,0.157-1.847,0.826-2.265,1.363c-0.16,0.206-0.311,0.401-0.52,0.588 c-0.587,0.528-1.266,1.268-1.303,2.321c-0.005,0.149,0.004,0.297,0.016,0.446c0.006,0.077,0.017,0.154,0.01,0.23 c-0.006,0.064-0.023,0.128-0.038,0.191c-0.046,0.203-0.109,0.48-0.08,0.803c0.049,0.544,0.334,0.953,0.522,1.225 c0.985,1.418,2.144,1.715,2.943,1.715c0.431,0,0.882-0.085,1.338-0.252l0.1-0.038c0.099,0.109,0.231,0.217,0.409,0.295 c0.013,0.006,0.027,0.011,0.04,0.017c-0.002,0.026-0.003,0.052-0.003,0.078c-0.011,0.715,0.322,1.244,0.589,1.669 c0.265,0.42,0.335,0.568,0.292,0.743c-0.02,0.081-0.052,0.159-0.082,0.237c-0.069,0.181-0.154,0.406-0.194,0.673 c-0.094,0.628,0.104,1.179,0.249,1.581l0.431,1.199l0.464,1.289c0.069,0.192,0.184,0.512,0.476,0.782 C19.97,28.81,20.436,29,20.931,29c1.377,0,2.474-1.453,3.129-2.321c0.078-0.103,0.146-0.194,0.203-0.264 c0.129-0.16,0.345-0.429,0.428-0.814c0.046-0.214,0.038-0.405,0.021-0.558c0.194-0.103,0.455-0.243,0.679-0.478 c0.455-0.477,0.609-1.168,0.434-1.946c-0.031-0.136-0.07-0.272-0.109-0.407c-0.052-0.176-0.1-0.343-0.102-0.45 c-0.005-0.367,0.537-0.865,0.973-1.265c0.651-0.597,1.504-1.531,1.406-2.733c-0.009-0.108-0.026-0.217-0.051-0.327l-0.18-0.773 l-0.818-0.006c-0.126,0-0.248,0.02-0.449,0.052c-0.109,0.018-0.249,0.04-0.38,0.057c-0.109-0.152-0.226-0.265-0.314-0.35 l-0.041-0.04c-0.48-0.471-0.806-1.149-1.151-1.867c-0.05-0.104-0.1-0.208-0.151-0.313c0.076-0.21,0.098-0.441,0.06-0.67 c-0.068-0.415-0.325-0.794-0.687-1.013c-0.274-0.166-0.598-0.25-0.964-0.25c-0.117,0-0.235,0.008-0.349,0.022l-0.138,0.017 c-0.079,0.01-0.158,0.024-0.237,0.024c-0.047-0.008-0.141-0.054-0.21-0.088c-0.243-0.118-0.575-0.28-1.004-0.28 c-0.051,0-0.102,0.002-0.154,0.007c-0.292,0.027-0.557,0.139-0.761,0.315c-0.088-0.036-0.185-0.082-0.283-0.132 c0.002-0.039,0.004-0.078,0.006-0.117L19.775,10.871L19.775,10.871z"/><path fill="#bae0bd" d="M25.494,26.479c-0.309,0-0.566-0.182-0.706-0.499c-0.27-0.611-0.117-1.938,0.273-2.365 c0.14-0.154,0.301-0.28,0.462-0.402c0.188-0.143,0.336-0.255,0.412-0.406l0.24-0.481l0.462,0.275 c0.268,0.159,0.445,0.433,0.487,0.75c0.026,0.203-0.004,0.407-0.085,0.592l-0.614,1.77c-0.052,0.149-0.139,0.396-0.375,0.565 C25.866,26.411,25.678,26.479,25.494,26.479L25.494,26.479z"/><path fill="#37774e" d="M26.382,23.03c0.143,0.085,0.226,0.23,0.247,0.386c0.014,0.108-0.001,0.221-0.047,0.325 c-0.21,0.603-0.419,1.205-0.629,1.808c-0.042,0.12-0.089,0.247-0.194,0.323c-0.103,0.074-0.191,0.107-0.265,0.107 c-0.533,0-0.356-1.707-0.064-2.028C25.737,23.614,26.175,23.447,26.382,23.03 M25.968,21.619l-0.481,0.965 c-0.023,0.046-0.163,0.152-0.266,0.23c-0.156,0.118-0.349,0.265-0.53,0.463c-0.517,0.568-0.709,2.115-0.36,2.904 c0.22,0.499,0.655,0.797,1.164,0.797c0.291,0,0.577-0.099,0.849-0.296c0.365-0.263,0.493-0.63,0.554-0.806l0.619-1.779 c0.104-0.258,0.14-0.537,0.104-0.812c-0.062-0.47-0.326-0.877-0.726-1.115L25.968,21.619L25.968,21.619z"/><path fill="#ffeea3" d="M20.988 6.345L21.452 7.333 22.488 7.491 21.738 8.26 21.915 9.345 20.988 8.833 20.061 9.345 20.238 8.26 19.488 7.491 20.525 7.333zM24.784 7.322L25.248 8.309 26.284 8.467 25.534 9.236 25.711 10.322 24.784 9.809 23.857 10.322 24.034 9.236 23.284 8.467 24.321 8.309zM28.092 9.491L28.556 10.478 29.592 10.637 28.842 11.405 29.019 12.491 28.092 11.978 27.165 12.491 27.342 11.405 26.592 10.637 27.629 10.478zM30.587 12.582L31.05 13.569 32.087 13.728 31.337 14.496 31.514 15.582 30.587 15.069 29.66 15.582 29.837 14.496 29.087 13.728 30.123 13.569zM31.888 16.27L32.352 17.257 33.388 17.415 32.638 18.184 32.815 19.27 31.888 18.757 30.961 19.27 31.138 18.184 30.388 17.415 31.425 17.257zM31.888 20.283L32.352 21.27 33.388 21.428 32.638 22.197 32.815 23.283 31.888 22.77 30.961 23.283 31.138 22.197 30.388 21.428 31.425 21.27zM30.597 23.991L31.06 24.978 32.097 25.137 31.347 25.905 31.524 26.991 30.597 26.478 29.67 26.991 29.847 25.905 29.097 25.137 30.133 24.978zM28.18 27.116L28.643 28.103 29.68 28.262 28.93 29.03 29.107 30.116 28.18 29.603 27.253 30.116 27.43 29.03 26.68 28.262 27.716 28.103zM24.888 29.366L25.352 30.353 26.388 30.512 25.638 31.28 25.815 32.366 24.888 31.853 23.961 32.366 24.138 31.28 23.388 30.512 24.425 30.353zM21.055 30.283L21.518 31.27 22.555 31.428 21.805 32.197 21.982 33.283 21.055 32.77 20.128 33.283 20.305 32.197 19.555 31.428 20.591 31.27zM17.138 30.033L17.602 31.02 18.638 31.178 17.888 31.947 18.065 33.033 17.138 32.52 16.211 33.033 16.388 31.947 15.638 31.178 16.675 31.02zM13.513 28.491L13.977 29.478 15.013 29.637 14.263 30.405 14.44 31.491 13.513 30.978 12.586 31.491 12.763 30.405 12.013 29.637 13.05 29.478zM10.597 25.824L11.06 26.812 12.097 26.97 11.347 27.739 11.524 28.824 10.597 28.312 9.67 28.824 9.847 27.739 9.097 26.97 10.133 26.812zM8.68 22.408L9.143 23.395 10.18 23.553 9.43 24.322 9.607 25.408 8.68 24.895 7.753 25.408 7.93 24.322 7.18 23.553 8.216 23.395zM8.013 18.449L8.477 19.437 9.513 19.595 8.763 20.364 8.94 21.449 8.013 20.937 7.086 21.449 7.263 20.364 6.513 19.595 7.55 19.437zM8.597 14.491L9.06 15.478 10.097 15.637 9.347 16.405 9.524 17.491 8.597 16.978 7.67 17.491 7.847 16.405 7.097 15.637 8.133 15.478zM10.513 10.949L10.977 11.937 12.013 12.095 11.263 12.864 11.44 13.949 10.513 13.437 9.586 13.949 9.763 12.864 9.013 12.095 10.05 11.937zM13.43 8.241L13.893 9.228 14.93 9.387 14.18 10.155 14.357 11.241 13.43 10.728 12.503 11.241 12.68 10.155 11.93 9.387 12.966 9.228zM16.972 6.658L17.435 7.645 18.472 7.803 17.722 8.572 17.899 9.658 16.972 9.145 16.045 9.658 16.222 8.572 15.472 7.803 16.508 7.645z"/></svg>