<svg xmlns="http://www.w3.org/2000/svg" viewBox="0 0 24 24"><path d="M 3 0 L 3 24 L 21 24 L 21 0 Z M 5 2 L 7 2 L 7 5 L 17 5 L 17 2 L 19 2 L 19 11 L 16.90625 11 C 16.457031 8.6875 14.460938 7 12 7 C 9.539063 7 7.542969 8.6875 7.09375 11 L 5 11 Z M 9 2 L 15 2 L 15 3 L 9 3 Z M 12 8.5 C 13.550781 8.5 14.898438 9.574219 15.34375 11 L 8.65625 11 C 9.101563 9.574219 10.449219 8.5 12 8.5 Z M 5 13 L 7.09375 13 C 7.542969 15.3125 9.539063 17 12 17 C 14.460938 17 16.457031 15.3125 16.90625 13 L 19 13 L 19 22 L 17 22 L 17 19 L 7 19 L 7 22 L 5 22 Z M 8.65625 13 L 15.34375 13 C 14.898438 14.425781 13.550781 15.5 12 15.5 C 10.449219 15.5 9.101563 14.425781 8.65625 13 Z M 9 21 L 15 21 L 15 22 L 9 22 Z"/></svg>