<svg xmlns="http://www.w3.org/2000/svg" width="512" height="512" viewBox="0 0 512 512"><path fill="none" d="M257,257.5L257,257.5c-0.6-1-1.3-1.9-2-2.9C255.7,255.5,256.4,256.5,257,257.5z"/><path fill="none" d="M257.9 258.2c-1.1-1.5-2.4-2.9-3.8-4.4C255.5 255.3 256.8 256.7 257.9 258.2zM256 256L256 256 256 256z"/><path fill="none" d="M256.1,255.7c-0.1,0.2-0.1,0.4-0.2,0.5C256,256.1,256,255.9,256.1,255.7z"/><path fill="none" d="M256.1,255.8c-0.1,0.1-0.1,0.2-0.2,0.4C256,256.1,256,255.9,256.1,255.8z"/><path fill="none" d="M256.1 255.7c0 .2-.1.4-.1.6C256 256.1 256 255.9 256.1 255.7zM256 255.7c0 .2 0 .5 0 .7C256 256.1 256 255.9 256 255.7zM256 255.8c0 .2 0 .3 0 .5C256 256.1 256 255.9 256 255.8z"/><path fill="none" d="M256.2 255.9c-.1.1-.2.2-.4.3C255.9 256 256.1 256 256.2 255.9zM255.9 255.9c.1.1.1.1.2.2C256 256 256 256 255.9 255.9z"/><path fill="none" d="M256.5,255.8c-0.3,0.2-0.7,0.3-1.1,0.5C255.8,256.1,256.2,256,256.5,255.8z"/><path fill="none" d="M256.9 256.2c-.6 0-1.2-.1-1.8-.4C255.7 256 256.3 256.2 256.9 256.2zM256.1 256.1c-.1-.1-.1-.1-.2-.2C256 256 256 256 256.1 256.1zM256.1 256.1c0 0-.1-.1-.1-.1C256 256 256 256 256.1 256.1z"/><path fill="none" d="M256.3 255.9c-.2.1-.4.1-.5.1C255.9 256 256.1 256 256.3 255.9zM256.6 256c-.4.1-.8.1-1.2.1C255.8 256.1 256.2 256 256.6 256z"/><path fill="none" d="M255.6,256.4c0.3-0.2,0.5-0.5,0.8-0.8C256.2,255.9,255.9,256.2,255.6,256.4z"/><path fill="#F26322" d="M256 256C256 256 256 256 256 256 256 256 256 256 256 256zM256 256C256 256 256 256 256 256 256 256 256 256 256 256zM256 255.9c0 .1 0 .1 0 .2C256 256 256 256 256 255.9zM256.4 256.5c-.3-.3-.6-.7-.9-1C255.9 255.8 256.2 256.2 256.4 256.5z"/><path fill="#F26322" d="M256.5,256.6c-0.3-0.4-0.6-0.8-0.9-1.1C255.9,255.8,256.2,256.2,256.5,256.6z"/><path fill="#F26322" d="M256 255.9c0 0-.1.1-.1.1C256 256 256 256 256 255.9zM256 256C256 256 256 256 256 256 256 256 256 256 256 256zM256.1 256c0 0-.1.1-.1.1C256 256 256 256 256.1 256z"/><path fill="#F26322" d="M256 255.9c0 .1-.1.1-.1.2C256 256 256 256 256 255.9zM256 256C256 256 256 256 256 256 256 256 256 256 256 256zM256 255.9c0 .1 0 .1 0 .2C256 256 256 256 256 255.9zM256 256C256 256 256 256 256 256 256 256 256 256 256 256zM256 256C256 256 256 256 256 256 256 256 256 256 256 256z"/><path fill="#F26322" d="M255.5 255.5c.3.3.7.6 1 1C256.2 256.2 255.8 255.8 255.5 255.5zM256 256C256 256 256 256 256 256 256 256 256 256 256 256z"/><path fill="#F26322" d="M256.4,256.4c-0.3-0.3-0.6-0.6-0.8-0.9C255.9,255.8,256.1,256.1,256.4,256.4z"/><path d="M487.8,168.7c-14.2-46.9-40.9-88.3-82-115.7C359.5,22,300.5,14.5,246,18.5c-51.7,3.8-104.6,17.9-148.6,46c-21.6,13.8-40.9,31.9-55,53.4c-14.9,22.7-22.5,48.8-26.6,75.4c-2.3,15.1-3.4,30.3-4.4,45.6c-0.1,0.9,0.1,1.8,0.4,2.6c-0.9,0.9-1.5,2.2-1.5,3.8c0,30.1-0.6,60.4,4.6,90.2c4.8,27.1,15.2,52.9,31.6,75.1c29.2,39.5,73.5,63.3,120.4,75c88.9,22.2,194.2,3.7,264.5-57.1C505.5,364.4,514.7,257.6,487.8,168.7z M423.4,421.2c-70.8,60.4-176.9,76-264.9,50.8c-42.7-12.2-81.9-36.6-107.2-73.7c-31.1-45.6-30.1-101-30.1-153.9c0-0.3,0-0.5-0.1-0.8c0.5-0.7,0.9-1.6,1-2.7c1.7-27,4.1-54.1,12.1-80.1c7.9-25.9,23.1-48.3,42.7-66.8c37.3-35.2,89.8-53.2,139.6-61.1c55.5-8.8,115.5-6.4,166.4,19.3c44.6,22.5,75.1,63.1,91.3,109.6C504.3,248.9,497.5,357.9,423.4,421.2z"/><path fill="none" d="M148.4 396.1c1.3.7 2.7 1.6 4.3 2.5C151.1 397.7 149.6 396.9 148.4 396.1zM154.2 399.5c1.6.9 3.2 1.9 5 3C157.5 401.5 155.8 400.5 154.2 399.5zM159.2 402.5c1.8 1.1 3.6 2.2 5.4 3.4C162.8 404.7 161 403.6 159.2 402.5zM176.9 414.3c-4-3-8.1-5.8-12.2-8.4C168.7 408.5 172.9 411.3 176.9 414.3zM176.9 414.3c.8.6 1.6 1.2 2.4 1.8C178.5 415.6 177.7 414.9 176.9 414.3zM179.3 416.2c3.1 2.4 5.9 4.9 8.4 7.4C185.2 421.1 182.3 418.6 179.3 416.2z"/><path fill="#F26322" d="M384.1,169.9c-0.9-10.8-3.6-75.1-23.3-63.9c-16.4,9.4-17.5,31.3-17.2,48.1c0.3,17.4,3.3,34.7,3.9,52c0.1,0.3,0.1,0.7,0.1,1.1v4c0,1-0.2,1.8-0.6,2.5c-0.8,4.5-8.9,4.4-10-1.1c-1.7-8.5-1.7-17.1-2-25.7c-0.3-8.6-1-17.1-2.2-25.6c-1.1-8.6-2.3-17.1-2.7-25.8c-0.3-7.5-0.6-15.1-1.9-22.4c-1.1-6.1-3-12.1-4.9-18c-1.2-3.9-2.6-8.8-5.7-11.6c-4.1-3.7-9.7-1.9-13.8,1.2c-2.6,2-4.6,4.4-6.2,7.1c0.1,1.6-0.5,3.2-2.2,4.1c-0.1,0.2-0.1,0.3-0.2,0.5c-3.8,12.3-2.4,27.2-1.9,39.4c0.7,18.2,0.4,36.3,0.4,54.5c0.2,4.5,0.2,9.1-0.1,13.7c-0.2,2.7-3.4,4.5-5.9,4c-1.2-0.3-2.2-0.5-3.1-1.3c-0.1-0.1-0.1-0.1-0.2-0.2c-2.6-1.8-2.4-5.2-0.7-7.2c0-3.5,0-7,0-10.5c-0.4-6.1-1.1-12.1-1.5-18.2c-0.6-10.2-0.6-20.5-0.6-30.7c0-18.2-0.2-36.5-5.5-54c-1.6-3.2-3.3-6.8-5.9-9.2c-2.7-2.5-6.6-3.6-10.1-4.5c-6-1.4-12.4-1.6-17.4,2.4c-4.2,3.4-6.9,8.8-8.5,13.9c-4.2,13.6-4.7,28.2-4.6,42.4c0,19.5,0.1,39.1,0.1,58.6c0,6.4-10,7.2-10,0.8c0-20.4-0.2-40.8-0.1-61.2c0.1-10.3,0.3-20.9,2.1-31.2c-0.1-0.1-0.2-0.2-0.3-0.3c-11.4-11-31.4-13.4-43.3-1.6c-13.9,13.8-12.4,34.4-11.2,52.4c1.4,22,1.5,43.9,3.6,65.8c1.1,11.6,2.2,23.1,2.1,34.7c-0.2,11.5-0.8,22.9-0.9,34.4c0,5.2-6.6,6.7-9.1,3.6c-0.7-0.1-1.4-0.3-2.1-0.8c-8.7-5.6-6.9-19.7-12.3-27.7c-7.9-11.6-21.6-23.7-36.1-24.9c-12.5-1-25.9,7.5-27.8,20.4c-1.7,11.3,2.3,23,6.9,33.1c2.1,4.5,4.4,9,6.9,13.3c2.7,4.6,6,8.7,8.5,13.4c5.6,10.9,8.4,22.4,11.2,34.3c2.8,11.7,5.8,23.9,13.1,33.7c4.2,5.7,8.2,8.6,13.8,12.1c0.2,0.1,0.5,0.3,0.7,0.4c0,0,0.1,0.1,0.1,0.1c0.3,0.2,0.5,0.3,0.8,0.5c0.1,0,0.1,0.1,0.2,0.1c0.3,0.2,0.6,0.4,0.9,0.5c0,0,0,0,0.1,0c0.3,0.2,0.6,0.4,1,0.6c1.3,0.7,2.7,1.6,4.3,2.5l0,0c0.5,0.3,1,0.6,1.5,0.9c0,0,0,0,0.1,0c1.6,0.9,3.2,1.9,5,3l0,0c1.8,1.1,3.6,2.2,5.4,3.4l0,0c8.1,5.1,16.7,11.3,22.9,17.7c0,0,0,0,0,0c1.4,1.5,2.7,2.9,3.8,4.4l0,0c0.7,1,1.4,1.9,2,2.9c26.8-0.2,53.6-1.8,80.4-3.7c14.4-1,28.7-2.1,43.1-3.1c10.2-0.7,20.6-1.6,30.5-4.3c0.5-1.5,1.8-2.8,3.3-3.4c0-0.2,0-0.5-0.1-0.7c-0.1-0.9-0.2-1.8-0.3-2.7c0-0.5-0.1-1-0.1-1.5c-0.1-0.7-0.1-1.4-0.2-2.1c0-0.5-0.1-1.1-0.1-1.6c0-0.7-0.1-1.3-0.1-2c0-0.5-0.1-1.1-0.1-1.6c0-0.7-0.1-1.3-0.1-2c0-0.5,0-1.1-0.1-1.6c0-0.7,0-1.4,0-2c0-0.5,0-1,0-1.5c0-0.7,0-1.5,0-2.2c0-0.5,0-0.9,0-1.4c0-1,0.1-1.9,0.1-2.9c0-0.2,0-0.4,0-0.6c0.1-1.2,0.1-2.3,0.2-3.5c0-0.4,0.1-0.8,0.1-1.2c0.1-0.8,0.2-1.6,0.2-2.4c0.1-0.5,0.1-0.9,0.2-1.4c0.1-0.7,0.2-1.4,0.3-2.1c0.1-0.5,0.2-1,0.2-1.4c0.1-0.7,0.3-1.4,0.4-2.1c0.1-0.5,0.2-0.9,0.3-1.4c0.2-0.7,0.3-1.4,0.5-2.1c0.1-0.5,0.2-0.9,0.4-1.3c0.2-0.8,0.4-1.5,0.7-2.3c0.1-0.4,0.2-0.8,0.4-1.1c0.4-1.1,0.8-2.3,1.2-3.4c7.8-20.1,26.4-33.5,31.1-54.9c2.1-9.7,2.3-19.5,2.4-29.4c0-10.5,0.6-20.8,1.2-31.3C391.3,222.3,386.2,196.2,384.1,169.9z"/><path fill="#D6E5E5" d="M474.2,161.7c-16.1-46.6-46.7-87.1-91.3-109.6c-50.9-25.7-111-28.1-166.4-19.3C166.7,40.8,114.2,58.8,76.9,94c-19.6,18.5-34.7,40.9-42.7,66.8c-8,26-10.4,53.1-12.1,80.1c-0.1,1.1-0.4,2-1,2.7c0,0.2,0.1,0.5,0.1,0.8c0,52.9-1.1,108.3,30.1,153.9c25.3,37.1,64.5,61.5,107.2,73.7c88,25.2,194.2,9.6,264.9-50.8C497.5,357.9,504.3,248.9,474.2,161.7z M399.2,253.9c-1,12.1-0.5,24.2-0.9,36.4c-0.4,11.2-1.7,22.3-6,32.7c-2.5,6-5.7,11.6-9.6,16.7c-3.9,5.2-8.5,10-11.9,15.6c-13.1,21.1-11.9,44.3-9.1,68.1c0,0.2,0,0.5,0,0.7c0,0.1,0,0.1,0,0.2c0,0.2,0,0.3,0,0.5c0,0.1,0,0.1,0,0.2c0,0.2-0.1,0.4-0.1,0.6c0,0,0,0,0,0c-0.1,0.2-0.1,0.4-0.2,0.5c0,0.1-0.1,0.1-0.1,0.2c-0.1,0.1-0.1,0.2-0.2,0.4c0,0-0.1,0.1-0.1,0.1c-0.2,0.3-0.5,0.6-0.8,0.8c0,0-0.1,0.1-0.1,0.1c-0.1,0.1-0.2,0.2-0.4,0.3c0,0-0.1,0-0.1,0.1c-0.3,0.2-0.7,0.3-1.1,0.5c0,0,0,0-0.1,0c-0.2,0.1-0.4,0.1-0.5,0.1c0,0,0,0,0,0c-0.4,0.1-0.8,0.1-1.2,0.1h0c-0.6,0-1.2-0.1-1.8-0.4c-11.9,3.9-24.5,5.1-36.9,6c-14.4,1-28.7,2.1-43.1,3.1c-28.6,2-57.3,3.7-86,3.8c-4,0-5.8-3.9-5.1-6.8c0,0,0,0,0,0c-0.3-0.4-0.6-0.8-0.9-1.2c0,0-0.1-0.1-0.1-0.1c-0.3-0.3-0.6-0.7-0.9-1c-0.1-0.1-0.1-0.1-0.2-0.2c-0.3-0.3-0.6-0.6-0.8-0.9c-0.1-0.1-0.1-0.1-0.2-0.2c-0.3-0.3-0.7-0.7-1-1c-7.5-6.9-16.1-12.5-24.7-17.9c-7.6-4.7-15.6-9.1-22.9-14.3c-10.2-7.3-16.4-20.5-20-32.2c-3.5-11.5-5.3-23.5-9.2-34.9c-3.7-10.8-10.4-19.4-15.8-29.3c-8.7-16-17.7-37-10.9-55.3c3.5-9.4,11.3-15.9,20.4-19.5c11.9-4.8,25.1-2.6,35.8,4.1c9.5,5.8,19.7,14.3,25,24.3c2.2,4,3.5,8.4,4.7,12.8c0.3-7.7,0.6-15.5,0.5-23.2c-0.2-12.8-1.8-25.5-2.9-38.2c-1.1-13.3-1.9-26.5-2-39.8c-0.1-10.2-1.3-20.4-1.5-30.7c-0.3-19.2,3.5-42.1,22.3-52.1c14.8-7.9,32.6-6.6,45.8,3.5c0.3-1.1,0.7-2.2,1.1-3.3c4.9-13.7,15.6-23.7,30.9-22.2c8.5,0.8,18.2,3.8,23.4,10.9c0.2,0.3,0.4,0.6,0.6,0.9c1.3,0.4,2.5,1.3,3.1,3c0.8,2,1.4,4,2.1,6c0.1,0.2,0.2,0.3,0.3,0.5c0.7,1.2,1.5,2.9,2.7,3.8c1.2-2.3,2.6-4.3,4.5-6c5.9-5.3,13.6-10.6,22-9c2.2,0.4,4.2,1.2,6.1,2.3c0,0,0.1,0,0.1,0.1c3.8,2.2,6.9,5.4,9.2,9.1c5.5,8.6,8.9,19,10.4,29.5c1.8-3.2,4-6.1,6.7-8.7c5.3-4.9,11.8-9.5,19.4-8.7c5.8,0.6,10.6,4.7,13.7,9.4c7.8,11.9,10.3,27.3,11.9,41.2c0.7,5.7,1.2,11.5,1.2,17.3c0,15,3.2,30.3,4.7,45.3C399.9,223.4,400.5,238.6,399.2,253.9z"/><path d="M398.3,208.2c-1.5-15-4.6-30.2-4.7-45.3c0-5.8-0.5-11.6-1.2-17.3c-1.6-13.9-4.1-29.3-11.9-41.2c-3.1-4.7-7.9-8.8-13.7-9.4c-7.6-0.8-14.1,3.8-19.4,8.7c-2.7,2.5-4.9,5.4-6.7,8.7c-1.5-10.4-5-20.9-10.4-29.5c-2.3-3.7-5.5-7-9.2-9.1c0,0-0.1,0-0.1-0.1c-1.9-1.1-3.9-1.9-6.1-2.3c-8.5-1.6-16.1,3.6-22,9c-1.9,1.7-3.3,3.8-4.5,6c-1.1-0.9-1.9-2.6-2.7-3.8c-0.1-0.2-0.2-0.3-0.3-0.5c-0.6-2-1.3-4-2.1-6c-0.6-1.7-1.8-2.6-3.1-3c-0.2-0.3-0.4-0.6-0.6-0.9c-5.2-7.1-14.9-10.1-23.4-10.9c-15.3-1.5-26,8.5-30.9,22.2c-0.4,1.1-0.7,2.2-1.1,3.3c-13.2-10-31-11.3-45.8-3.5c-18.8,10-22.6,32.9-22.3,52.1c0.2,10.2,1.4,20.4,1.5,30.7c0.1,13.3,0.8,26.6,2,39.8c1.1,12.7,2.7,25.4,2.9,38.2c0.1,7.7-0.2,15.5-0.5,23.2c-1.3-4.4-2.6-8.7-4.7-12.8c-5.4-10-15.6-18.5-25-24.3c-10.8-6.6-24-8.9-35.8-4.1c-9.1,3.7-16.9,10.2-20.4,19.5c-6.8,18.3,2.3,39.2,10.9,55.3c5.4,9.9,12.1,18.5,15.8,29.3c3.9,11.4,5.7,23.4,9.2,34.9c3.6,11.7,9.8,24.9,20,32.2c7.3,5.2,15.3,9.6,22.9,14.3c8.6,5.4,17.2,10.9,24.7,17.9c0.3,0.3,0.7,0.6,1,1c0.1,0.1,0.1,0.1,0.2,0.2c0.3,0.3,0.6,0.6,0.8,0.9c0.1,0.1,0.1,0.1,0.2,0.2c0.3,0.3,0.6,0.6,0.9,1c0,0,0.1,0.1,0.1,0.1c0.3,0.4,0.6,0.8,0.9,1.1c0,0,0,0,0,0c0.8,1.1,1.5,2.2,1.9,3.2c0.4,1,0.6,1.7,0.3,2.3h10.3c0.1-2.8-0.9-5.8-2.7-8.7c-0.6-1-1.3-1.9-2-2.9l0,0c-1.1-1.5-2.4-2.9-3.8-4.4c0,0,0,0,0,0c-6.2-6.3-14.9-12.5-22.9-17.7l0,0c-1.9-1.2-3.7-2.3-5.4-3.4l0,0c-1.7-1.1-3.4-2.1-5-3c0,0,0,0-0.1,0c-0.5-0.3-1-0.6-1.5-0.9l0,0c-1.6-0.9-3-1.7-4.3-2.5c-0.3-0.2-0.6-0.4-1-0.6c0,0,0,0-0.1,0c-0.3-0.2-0.6-0.4-0.9-0.5c-0.1,0-0.1-0.1-0.2-0.1c-0.3-0.2-0.6-0.3-0.8-0.5c0,0-0.1-0.1-0.1-0.1c-0.3-0.2-0.5-0.3-0.7-0.4c-5.7-3.5-9.6-6.4-13.8-12.1c-7.2-9.8-10.3-22-13.1-33.7c-2.8-11.8-5.6-23.4-11.2-34.3c-2.4-4.7-5.8-8.9-8.5-13.4c-2.6-4.3-4.9-8.7-6.9-13.3c-4.6-10.1-8.6-21.8-6.9-33.1c1.9-12.9,15.3-21.4,27.8-20.4c14.5,1.2,28.2,13.3,36.1,24.9c5.4,8,3.7,22,12.3,27.7c0.7,0.5,1.5,0.7,2.1,0.8c2.5,3.1,9,1.6,9.1-3.6c0-11.5,0.7-22.9,0.9-34.4c0.2-11.6-1-23.1-2.1-34.7c-2-21.9-2.1-43.9-3.6-65.8c-1.2-18-2.7-38.6,11.2-52.4c11.9-11.9,31.9-9.4,43.3,1.6c0.1,0.1,0.2,0.2,0.3,0.3c-1.8,10.3-2,20.9-2.1,31.2c-0.1,20.4,0.1,40.8,0.1,61.2c0,6.4,10,5.6,10-0.8c0-19.5,0-39.1-0.1-58.6c0-14.2,0.4-28.8,4.6-42.4c1.6-5.1,4.3-10.5,8.5-13.9c5.1-4,11.4-3.8,17.4-2.4c3.5,0.8,7.4,2,10.1,4.5c2.6,2.4,4.2,6.1,5.9,9.2c5.3,17.4,5.6,35.8,5.5,54c0,10.2-0.1,20.5,0.6,30.7c0.4,6.1,1.1,12.1,1.5,18.2c0,3.5,0,7,0,10.5c-1.7,2.1-1.9,5.4,0.7,7.2c0.1,0.1,0.1,0.1,0.2,0.2c0.9,0.8,2,1.1,3.1,1.3c2.4,0.5,5.7-1.3,5.9-4c0.3-4.6,0.3-9.1,0.1-13.7c0.1-18.2,0.3-36.4-0.4-54.5c-0.4-12.2-1.9-27.1,1.9-39.4c0.1-0.2,0.1-0.3,0.2-0.5c1.6-0.9,2.2-2.5,2.2-4.1c1.6-2.7,3.6-5.1,6.2-7.1c4-3.1,9.7-4.9,13.8-1.2c3.1,2.8,4.5,7.8,5.7,11.6c1.9,5.9,3.8,11.9,4.9,18c1.4,7.4,1.6,15,1.9,22.4c0.4,8.7,1.5,17.2,2.7,25.8c1.1,8.5,1.9,17,2.2,25.6c0.3,8.6,0.3,17.2,2,25.7c1.1,5.5,9.2,5.6,10,1.1c0.4-0.7,0.6-1.6,0.6-2.5v-4c0-0.4,0-0.8-0.1-1.1c-0.6-17.4-3.6-34.6-3.9-52c-0.3-16.9,0.8-38.7,17.2-48.1c19.7-11.3,22.4,53.1,23.3,63.9c2.1,26.3,7.3,52.4,5.6,78.8c-0.6,10.5-1.2,20.8-1.2,31.3c0,9.9-0.2,19.7-2.4,29.4c-4.7,21.5-23.3,34.9-31.1,54.9c-0.4,1.1-0.8,2.3-1.2,3.4c-0.1,0.4-0.2,0.8-0.4,1.1c-0.2,0.8-0.5,1.5-0.7,2.3c-0.1,0.4-0.2,0.9-0.4,1.3c-0.2,0.7-0.4,1.4-0.5,2.1c-0.1,0.5-0.2,0.9-0.3,1.4c-0.1,0.7-0.3,1.4-0.4,2.1c-0.1,0.5-0.2,1-0.2,1.4c-0.1,0.7-0.2,1.4-0.3,2.1c-0.1,0.5-0.1,0.9-0.2,1.4c-0.1,0.8-0.2,1.6-0.2,2.4c0,0.4-0.1,0.8-0.1,1.2c-0.1,1.2-0.2,2.3-0.2,3.5c0,0.2,0,0.4,0,0.6c0,1-0.1,1.9-0.1,2.9c0,0.5,0,0.9,0,1.4c0,0.7,0,1.5,0,2.2c0,0.5,0,1,0,1.5c0,0.7,0,1.4,0,2c0,0.5,0,1.1,0.1,1.6c0,0.7,0.1,1.3,0.1,2c0,0.5,0.1,1.1,0.1,1.6c0,0.7,0.1,1.3,0.1,2c0,0.5,0.1,1.1,0.1,1.6c0.1,0.7,0.1,1.4,0.2,2.1c0,0.5,0.1,1,0.1,1.5c0.1,0.9,0.2,1.8,0.3,2.7c0,0.2,0,0.5,0.1,0.7c0.3,2.6,0.5,5.1,0.8,7.6c0.2,2.1,1.5,3.5,3.1,4.1c0.6,0.2,1.2,0.3,1.8,0.4h0c0.4,0,0.8,0,1.2-0.1c0,0,0,0,0,0c0.2,0,0.4-0.1,0.5-0.1c0,0,0,0,0.1,0c0.4-0.1,0.7-0.3,1.1-0.5c0,0,0.1,0,0.1-0.1c0.1-0.1,0.3-0.2,0.4-0.3c0,0,0.1-0.1,0.1-0.1c0.3-0.2,0.5-0.5,0.8-0.8c0,0,0.1-0.1,0.1-0.1c0.1-0.1,0.1-0.2,0.2-0.4c0-0.1,0.1-0.1,0.1-0.2c0.1-0.2,0.2-0.3,0.2-0.5c0,0,0,0,0,0c0.1-0.2,0.1-0.4,0.1-0.6c0-0.1,0-0.1,0-0.2c0-0.2,0-0.3,0-0.5c0-0.1,0-0.1,0-0.2c0-0.2,0-0.5,0-0.7c-2.8-23.8-4-46.9,9.1-68.1c3.5-5.6,8-10.3,11.9-15.6c3.9-5.2,7.1-10.8,9.6-16.7c4.3-10.4,5.6-21.5,6-32.7c0.5-12.1-0.1-24.3,0.9-36.4C400.5,238.6,399.9,223.4,398.3,208.2z"/><path d="M351.6,424.1c-0.3-2.5-0.6-5.1-0.8-7.6c-1.6,0.6-2.8,1.9-3.3,3.4c-9.9,2.7-20.3,3.6-30.5,4.3c-14.4,1-28.7,2.1-43.1,3.1c-26.8,1.9-53.6,3.5-80.4,3.7c1.8,3,2.8,5.9,2.7,8.7h-10.3c0.3-0.6,0.2-1.2-0.3-2.3c-0.4-1.1-1.1-2.2-1.9-3.2c-0.8,2.9,1.1,6.8,5.1,6.8c28.7,0,57.3-1.7,86-3.8c14.4-1,28.7-2.1,43.1-3.1c12.4-0.9,25.1-2.1,36.9-6C353.2,427.5,351.9,426.2,351.6,424.1z"/></svg>