<svg xmlns="http://www.w3.org/2000/svg" width="512" height="512" viewBox="0 0 512 512"><path fill="#FB0" d="M7.9,256C7.9,119,119,7.9,256,7.9C393,7.9,504.1,119,504.1,256c0,137-111.1,248.1-248.1,248.1C119,504.1,7.9,393,7.9,256z"/><g opacity=".19"><path d="M170.8,120.4c-8.6,0-15.5,6.9-15.5,15.5v248c0,8.6,6.9,15.5,15.5,15.5h178.2c8.6,0,15.5-6.9,15.5-15.5V192.2l-74.7-71.8H170.8z"/><path d="M364.5,192.2h-59.2c-8.6,0-15.5-6.9-15.5-15.5v-56.3L364.5,192.2z"/></g><path fill="#F5F5F5" d="M166.9,116.5c-8.6,0-15.5,6.9-15.5,15.5v248c0,8.6,6.9,15.5,15.5,15.5h178.2c8.6,0,15.5-6.9,15.5-15.5V188.3l-74.7-71.8H166.9z"/><path fill="#E1E1E1" d="M360.6,188.3h-59.2c-8.6,0-15.5-6.9-15.5-15.5v-56.3L360.6,188.3z"/><path fill="#007883" d="M195.3 156.5H226.70000000000002V235.1H195.3z"/><path fill="#0E5066" d="M191.3 156.5H195.20000000000002V235.1H191.3z"/><path fill="#127899" d="M230.6 180H238.5V235H230.6z"/><path fill="#00ADBB" d="M238.5 180H262.1V235H238.5z"/><path fill="#1A8BB3" d="M266 195.7H273.9V235H266z"/><path fill="#0FBCD3" d="M273.8 195.7H293.40000000000003V235H273.8z"/><path fill="#95C7C3" d="M299.9 219.3L305.3 219.3 305.3 235 297.4 235 297.4 219.3 298.5 219.3z"/><path fill="none" stroke="#A2D8D4" stroke-linecap="round" stroke-linejoin="round" stroke-width="0" d="M328.7 217.8L328.7 217.8"/><path fill="#A2D8D4" d="M323.1 219.3L324.9 219.3 324.9 235 305.3 235 305.3 219.3z"/><path fill="#E6E6E6" d="M167.8 254.7H230.70000000000002V262.59999999999997H167.8zM167.8 274.3H250.3V286.1H167.8zM167.8 294H250.3V305.8H167.8zM167.8 317.5H230.70000000000002V329.3H167.8zM167.8 337.2H250.3V349H167.8zM167.8 360.8H250.3V368.7H167.8zM262 254.7H324.9V262.59999999999997H262zM262 274.3H344.5V286.1H262zM262 294H344.5V305.8H262zM262 317.5H324.9V329.3H262zM262 337.2H344.5V349H262zM262 360.8H344.5V368.7H262z"/></svg>