<svg xmlns="http://www.w3.org/2000/svg" viewBox="0 0 32 32"><path d="M 11 3 C 10.083334 3 9.268559 3.3797556 8.7519531 3.9609375 C 8.2353472 4.5421194 8 5.2777779 8 6 C 8 6.6503558 8.262427 7.2863521 8.6777344 7.8359375 C 7.6874552 8.566383 7 9.684352 7 11 L 7 12.914062 L 8 13.914062 L 8 17 L 10 17 L 10 13.085938 L 9 12.085938 L 9 11 C 9 9.8833339 9.8833339 9 11 9 C 12.116666 9 13 9.8833339 13 11 L 13 12.085938 L 12 13.085938 L 12 17 L 14 17 L 14 13.914062 L 15 12.914062 L 15 11 C 15 9.684352 14.312545 8.566383 13.322266 7.8359375 C 13.737573 7.2863521 14 6.6503558 14 6 C 14 5.2777779 13.764653 4.5421194 13.248047 3.9609375 C 12.731441 3.3797556 11.916666 3 11 3 z M 21 3 C 20.083334 3 19.268559 3.3797556 18.751953 3.9609375 C 18.235347 4.5421194 18 5.2777779 18 6 C 18 6.6883404 18.249427 7.3759551 18.716797 7.9433594 C 18.590722 8.0545456 18.423625 8.1281765 18.316406 8.2519531 C 17.696276 8.9678494 17.328353 9.8324599 17.048828 10.689453 L 17.039062 10.722656 L 15.71875 16 L 18 16 L 18 17 L 20 17 L 20 14 L 18.28125 14 L 18.955078 11.300781 C 19.191007 10.58062 19.493308 9.9470699 19.828125 9.5605469 C 20.164745 9.1719431 20.456754 9 21 9 C 21.550085 9 21.892949 9.1862793 22.234375 9.5644531 C 22.575801 9.9426269 22.863265 10.543717 23.027344 11.232422 L 23.029297 11.236328 L 23.71875 14 L 22 14 L 22 17 L 24 17 L 24 16 L 26.28125 16 L 24.972656 10.767578 C 24.751735 9.8402836 24.366824 8.9424356 23.71875 8.2246094 C 23.603181 8.0966016 23.429617 8.0230262 23.294922 7.9101562 C 23.745904 7.3479794 24 6.6766406 24 6 C 24 5.2777779 23.764653 4.5421194 23.248047 3.9609375 C 22.731441 3.3797556 21.916666 3 21 3 z M 11 5 C 11.416666 5 11.601893 5.1202444 11.751953 5.2890625 C 11.902014 5.4578806 12 5.7222221 12 6 C 12 6.2777779 11.902014 6.5421194 11.751953 6.7109375 C 11.601893 6.8797556 11.416666 7 11 7 C 10.583334 7 10.398107 6.8797556 10.248047 6.7109375 C 10.097986 6.5421194 10 6.2777779 10 6 C 10 5.7222221 10.097986 5.4578806 10.248047 5.2890625 C 10.398107 5.1202444 10.583334 5 11 5 z M 21 5 C 21.416666 5 21.601893 5.1202444 21.751953 5.2890625 C 21.902014 5.4578806 22 5.7222221 22 6 C 22 6.2777779 21.902014 6.5421194 21.751953 6.7109375 C 21.601893 6.8797556 21.416666 7 21 7 C 20.583334 7 20.398107 6.8797556 20.248047 6.7109375 C 20.097986 6.5421194 20 6.2777779 20 6 C 20 5.7222221 20.097986 5.4578806 20.248047 5.2890625 C 20.398107 5.1202444 20.583334 5 21 5 z M 7.0800781 19 C 5.1690781 21.123 4 23.924 4 27 L 4 28 L 28 28 L 28 27 C 28 23.924 26.830922 21.123 24.919922 19 L 21.935547 19 C 22.702365 19.566854 23.38047 20.244088 23.958984 21 L 20.357422 21 C 20.197784 20.29642 20.019041 19.616263 19.800781 19 L 17.660156 19 C 17.894363 19.553995 18.103149 20.246892 18.294922 21 L 13.703125 21 C 13.894914 20.246783 14.10561 19.554059 14.339844 19 L 12.197266 19 C 11.978996 19.616291 11.800268 20.296385 11.640625 21 L 8.0410156 21 C 8.6195302 20.244088 9.297635 19.566854 10.064453 19 L 7.0800781 19 z M 6.8476562 23 L 11.283203 23 C 11.148574 23.973722 11.050523 24.976304 11.017578 26 L 6.0507812 26 C 6.1563127 24.939889 6.4331621 23.933055 6.8476562 23 z M 13.306641 23 L 18.691406 23 C 18.831419 23.925058 18.943414 24.908688 18.980469 26 L 13.017578 26 C 13.054633 24.908688 13.166628 23.925058 13.306641 23 z M 20.716797 23 L 25.152344 23 C 25.566838 23.933055 25.843687 24.939889 25.949219 26 L 20.982422 26 C 20.949477 24.976304 20.851426 23.973722 20.716797 23 z"/></svg>