<svg xmlns="http://www.w3.org/2000/svg" viewBox="0 0 24 24"><path d="M 11.1875 0 C 9.65625 0 9.039063 0.6875 8.8125 1.0625 C 8.101563 0.976563 7.585938 1.082031 7.40625 1.5 C 5.804688 0.898438 5 1.1875 5 1.1875 C 5 1.1875 4.492188 1.105469 4.59375 1.90625 C 3.894531 2.90625 4.800781 3.804688 5 3.90625 C 5.5 3.304688 6.605469 3.289063 7.40625 3.6875 C 7.804688 3.886719 7.914063 4.605469 7.8125 4.90625 C 7.3125 6.207031 5.90625 5.09375 5.90625 5.09375 C 5.90625 5.09375 5.601563 5.292969 5.5 6.09375 C 5.101563 6.492188 5.488281 6.894531 5.6875 7.09375 C 6.585938 6.695313 6.007813 7.085938 7.90625 6.6875 C 8.773438 6.496094 10.078125 5.832031 10.53125 3.90625 C 9.808594 8.800781 4 7.28125 4 10.3125 C 4 12.074219 5.332031 12.746094 5.53125 12.84375 C 5.679688 13.132813 5.828125 13.378906 6 13.59375 C 5.644531 14.675781 5.40625 15.9375 5.40625 17.59375 C 4.707031 19.492188 3.585938 20.699219 3.1875 20.5 C 2.488281 20.398438 1.988281 20.707031 1.6875 21.40625 C 1.433594 21.605469 1.277344 21.804688 1.1875 22 L 0 22 L 0 24 L 24 24 L 24 22 L 21.09375 22 C 21.097656 21.96875 21.09375 21.9375 21.09375 21.90625 C 21.09375 21.183594 19.894531 21.179688 19.65625 20.53125 C 20.207031 20.839844 20.855469 21 21.5 21 C 21.921875 21 22.5 20.929688 23.03125 20.59375 C 23.5625 20.257813 24 19.582031 24 18.6875 C 24 17.613281 23.5625 16.898438 23.125 16.34375 C 23.03125 16.226563 22.964844 16.109375 22.875 16 C 23.160156 15.640625 23.1875 15.101563 22.8125 14.5 C 22.3125 13.800781 21 13.3125 21 13.3125 C 21 13.3125 21.007813 13.726563 20.96875 14.15625 C 20.101563 12.601563 18.699219 11.207031 16.6875 10.09375 C 15.742188 10.609375 13.984375 11.5625 11.40625 11.5 C 14.875 10.351563 18.207031 8.191406 16.5 3.59375 C 15.5 0.992188 13.289063 0 11.1875 0 Z M 11.03125 2.25 C 11.382813 2.273438 11.773438 2.53125 12 2.90625 C 12.089844 2.996094 11.273438 3.566406 10.75 3.59375 C 11.625 3.101563 11.253906 2.5 10.6875 2.3125 C 10.789063 2.261719 10.914063 2.242188 11.03125 2.25 Z M 16.25 13.9375 C 17 13.992188 17.769531 14.34375 18.40625 14.90625 C 16.007813 14.207031 14.1875 15.6875 14.1875 17.1875 C 14.1875 19.585938 16.414063 19.894531 17.8125 21.09375 C 17.3125 20.792969 15.90625 20.199219 15.40625 20.5 C 14.507813 21.101563 14.207031 20.898438 13.90625 21.5 C 13.59375 21.640625 13.398438 21.824219 13.28125 22 L 5.96875 22 C 6.699219 21.207031 7.566406 19.90625 7.90625 18.8125 C 8.910156 17.71875 9.65625 16.527344 10.3125 15.1875 C 11.351563 15.304688 12.410156 15.511719 13.3125 16.3125 C 13.8125 14.5625 15.003906 13.847656 16.25 13.9375 Z M 21.84375 16.375 C 21.855469 16.375 21.863281 16.40625 21.875 16.40625 C 22.03125 16.601563 22.207031 16.796875 22.34375 16.96875 C 22.730469 17.460938 23 17.859375 23 18.6875 C 23 19.292969 22.792969 19.5625 22.5 19.75 C 22.207031 19.9375 21.777344 20 21.5 20 C 21.851563 19.703125 22.09375 19.230469 22.09375 18.59375 C 22.09375 17.835938 22.019531 17.101563 21.84375 16.375 Z"/></svg>