<svg xmlns="http://www.w3.org/2000/svg" viewBox="0 0 16 16"><path d="M 5.5 4 A 0.50005 0.50005 0 0 0 5.4003906 4.0078125 C 3.8717921 4.0452434 2.512447 4.9244501 1.5585938 6.2597656 C 0.5996321 7.6022324 0.022505688 9.4117068 0.00390625 11.402344 A 0.50005 0.50005 0 0 0 0.11328125 11.824219 A 0.50005 0.50005 0 0 0 0.12890625 11.84375 A 0.50005 0.50005 0 0 0 0.14648438 11.861328 A 0.50005 0.50005 0 0 0 0.15039062 11.863281 A 0.50005 0.50005 0 0 0 0.18359375 11.894531 A 0.50005 0.50005 0 0 0 0.1875 11.896484 A 0.50005 0.50005 0 0 0 0.58203125 12 L 3.4199219 12 A 0.50005 0.50005 0 0 0 3.5820312 12 L 6.4199219 12 A 0.50005 0.50005 0 0 0 6.8242188 11.886719 A 0.50005 0.50005 0 0 0 6.828125 11.884766 A 0.50005 0.50005 0 0 0 6.8613281 11.853516 A 0.50005 0.50005 0 0 0 6.8632812 11.849609 A 0.50005 0.50005 0 0 0 6.8945312 11.816406 A 0.50005 0.50005 0 0 0 6.8964844 11.8125 A 0.50005 0.50005 0 0 0 7.0039062 11.443359 C 7.0140143 9.6204838 7.4943753 7.9774488 8.2382812 6.8203125 C 8.9901001 5.6508678 9.9676945 5 11 5 C 12.032305 5 13.0099 5.6508678 13.761719 6.8203125 C 14.513538 7.9897572 15 9.6538684 15 11.5 A 0.50005 0.50005 0 1 0 16 11.5 C 16 9.4801316 15.478495 7.6433522 14.601562 6.2792969 C 13.741825 4.9419859 12.501167 4.0408693 11.083984 4.0058594 A 0.50005 0.50005 0 0 0 11 4 L 5.5351562 4 A 0.50005 0.50005 0 0 0 5.5 4 z M 5.5 5 L 5.7558594 5 C 5.3112028 5.3482769 4.9068563 5.7722269 4.5585938 6.2597656 C 3.6648234 7.5109701 3.1053352 9.1690008 3.0175781 11 L 1.0371094 11 C 1.1260606 9.3686097 1.6141498 7.9014555 2.3710938 6.8417969 C 3.2060555 5.6729195 4.3086827 5 5.5 5 z M 8.4980469 5 C 8.0873366 5.3539935 7.7158213 5.7856103 7.3984375 6.2792969 C 6.5957516 7.5278647 6.1129434 9.1814212 6.0332031 11 L 4.0371094 11 C 4.1260606 9.3686097 4.6141498 7.9014555 5.3710938 6.8417969 C 6.205596 5.6735628 7.3074828 5.0007402 8.4980469 5 z"/></svg>