<?xml version="1.0"?><svg xmlns="http://www.w3.org/2000/svg" viewBox="0 0 128 128">    <path d="M 41.5 6 C 19.2 6 1 24.2 1 46.5 C 1 68.8 19.2 87 41.5 87 L 44 87 C 45.7 87 47 85.7 47 84 C 47 82.3 45.7 81 44 81 L 41.5 81 C 22.5 81 7 65.5 7 46.5 C 7 27.5 22.5 12 41.5 12 C 55.4 12 67.799219 20.2 73.199219 33 C 73.799219 34.5 75.599609 35.199609 77.099609 34.599609 C 78.599609 33.999609 79.299219 32.199219 78.699219 30.699219 C 72.399219 15.699219 57.8 6 41.5 6 z M 101.5 36 C 90.6 36 80.800781 43.000781 77.300781 53.300781 C 76.800781 54.900781 77.599219 56.599609 79.199219 57.099609 C 80.799219 57.599609 82.5 56.799219 83 55.199219 C 85.7 47.299219 93.1 42 101.5 42 C 112.3 42 121 50.7 121 61.5 C 121 72.3 112.3 81 101.5 81 L 94 81 C 92.3 81 91 82.3 91 84 C 91 85.7 92.3 87 94 87 L 101.5 87 C 115.6 87 127 75.6 127 61.5 C 127 47.4 115.6 36 101.5 36 z M 73.863281 81.037109 C 73.100781 81.074609 72.350781 81.4 71.800781 82 L 53.800781 102 C 53.000781 102.9 52.800781 104.09922 53.300781 105.19922 C 53.800781 106.29922 54.9 107 56 107 L 75.300781 107 L 61.800781 122 C 60.700781 123.2 60.8 125.09922 62 126.19922 C 62.6 126.69922 63.3 127 64 127 C 64.8 127 65.599219 126.7 66.199219 126 L 84.199219 106 C 84.999219 105.1 85.199219 103.90078 84.699219 102.80078 C 84.299219 101.70078 83.2 101 82 101 L 62.699219 101 L 76.199219 86 C 77.299219 84.8 77.2 82.900781 76 81.800781 C 75.4 81.250781 74.625781 80.999609 73.863281 81.037109 z"/></svg>