<svg xmlns="http://www.w3.org/2000/svg" viewBox="0 0 128 128"><path fill="#fff" d="M24 94A10 10 0 1 0 24 114 10 10 0 1 0 24 94zM24 14A10 10 0 1 0 24 34 10 10 0 1 0 24 14zM104 94A10 10 0 1 0 104 114 10 10 0 1 0 104 94z"/><path fill="#71c2ff" d="M31 100c-.2 0-.4 0-.6-.1-.2 0-.4-.1-.6-.2-.2-.1-.3-.2-.5-.3-.2-.1-.3-.2-.5-.4-.1-.1-.3-.3-.4-.4-.1-.2-.2-.3-.3-.5-.1-.2-.1-.4-.2-.6 0-.2-.1-.4-.1-.6 0-.2 0-.4.1-.6 0-.2.1-.4.2-.6.1-.2.2-.3.3-.5.1-.2.2-.3.4-.4s.3-.3.5-.4c.2-.1.3-.2.5-.3.2-.1.4-.1.6-.2 1-.2 2 .1 2.7.8.1.1.3.3.4.4.1.2.2.3.3.5.1.2.1.4.2.6 0 .2.1.4.1.6 0 .2 0 .4-.1.6 0 .2-.1.4-.2.6-.1.2-.2.4-.3.5-.1.2-.2.3-.4.4C32.6 99.7 31.8 100 31 100zM39.5 88.5c-1.2-1.2-1.2-3.1 0-4.2l0 0c1.2-1.2 3.1-1.2 4.2 0l0 0c1.2 1.2 1.2 3.1 0 4.2l0 0c-.6.6-1.3.9-2.1.9l0 0C40.8 89.4 40.1 89.1 39.5 88.5zM50.1 77.9c-1.2-1.2-1.2-3.1 0-4.2l0 0c1.2-1.2 3.1-1.2 4.2 0l0 0c1.2 1.2 1.2 3.1 0 4.2l0 0c-.6.6-1.3.9-2.1.9l0 0C51.4 78.8 50.7 78.5 50.1 77.9zM60.7 67.3c-1.2-1.2-1.2-3.1 0-4.2l0 0c1.2-1.2 3.1-1.2 4.2 0l0 0c1.2 1.2 1.2 3.1 0 4.2l0 0c-.6.6-1.4.9-2.1.9l0 0C62 68.2 61.3 67.9 60.7 67.3zM71.3 56.7c-1.2-1.2-1.2-3.1 0-4.2l0 0c1.2-1.2 3.1-1.2 4.2 0l0 0c1.2 1.2 1.2 3.1 0 4.2l0 0c-.6.6-1.3.9-2.1.9l0 0C72.6 57.6 71.9 57.3 71.3 56.7zM84 47c-.8 0-1.6-.3-2.1-.9-.1-.1-.3-.3-.4-.4-.1-.2-.2-.3-.3-.5-.1-.2-.1-.4-.2-.6 0-.2-.1-.4-.1-.6 0-.2 0-.4.1-.6 0-.2.1-.4.2-.6.1-.2.2-.3.3-.5.1-.2.2-.3.4-.4 1.1-1.1 3.1-1.1 4.2 0 .1.1.3.3.4.4.1.2.2.3.3.5.1.2.1.4.2.6 0 .2.1.4.1.6 0 .2 0 .4-.1.6 0 .2-.1.4-.2.6-.1.2-.2.4-.3.5-.1.2-.2.3-.4.4C85.6 46.7 84.8 47 84 47z"/><path fill="#71c2ff" d="M24,117c-7.2,0-13-5.8-13-13s5.8-13,13-13s13,5.8,13,13S31.2,117,24,117z M24,97c-3.9,0-7,3.1-7,7s3.1,7,7,7s7-3.1,7-7S27.9,97,24,97z"/><path fill="#444b54" d="M24 37c-7.2 0-13-5.8-13-13s5.8-13 13-13 13 5.8 13 13S31.2 37 24 37zM24 17c-3.9 0-7 3.1-7 7s3.1 7 7 7 7-3.1 7-7S27.9 17 24 17zM104 117c-7.2 0-13-5.8-13-13s5.8-13 13-13 13 5.8 13 13S111.2 117 104 117zM104 97c-3.9 0-7 3.1-7 7s3.1 7 7 7 7-3.1 7-7S107.9 97 104 97z"/><g><path fill="#444b54" d="M96,35c-0.8,0-1.5-0.3-2.1-0.9c-1.2-1.2-1.2-3.1,0-4.2l16-16c1.2-1.2,3.1-1.2,4.2,0c1.2,1.2,1.2,3.1,0,4.2l-16,16C97.5,34.7,96.8,35,96,35z"/></g><g><path fill="#444b54" d="M112,35c-0.8,0-1.5-0.3-2.1-0.9l-16-16c-1.2-1.2-1.2-3.1,0-4.2c1.2-1.2,3.1-1.2,4.2,0l16,16c1.2,1.2,1.2,3.1,0,4.2C113.5,34.7,112.8,35,112,35z"/></g></svg>