<svg xmlns="http://www.w3.org/2000/svg" viewBox="0 0 16 16"><path d="M 7.5 1 C 6.1250151 1 5 2.1250151 5 3.5 L 5 8 L 6 8 L 6 3.5 C 6 2.6649849 6.6649849 2 7.5 2 L 8.5 2 C 9.2017478 2 9.7794761 2.4716462 9.9472656 3.1171875 C 9.7647153 3.2279992 9.5284209 3.3803882 9.28125 3.578125 C 8.7680603 3.9886772 8.174366 4.5793419 8.0097656 5.4023438 A 0.50005 0.50005 0 0 0 8.5 6 L 10 6 L 10 6.5 A 0.50005 0.50005 0 1 0 11 6.5 L 11 6 L 12.5 6 A 0.50005 0.50005 0 0 0 12.990234 5.4023438 C 12.825634 4.5793419 12.23194 3.9886768 11.71875 3.578125 C 11.401206 3.3240897 11.142203 3.1655306 10.955078 3.0585938 C 10.744337 1.8930876 9.7238344 1 8.5 1 L 7.5 1 z M 10.5 3.96875 C 10.636393 4.044099 10.785161 4.1125035 11.09375 4.359375 C 11.313383 4.5350815 11.400437 4.7777775 11.568359 5 L 10.591797 5 A 0.50005 0.50005 0 0 0 10.492188 4.9921875 A 0.50005 0.50005 0 0 0 10.417969 5 L 9.4316406 5 C 9.5995626 4.7777775 9.6866169 4.5350815 9.90625 4.359375 C 10.214839 4.1125035 10.363607 4.0440986 10.5 3.96875 z M 4.5 9 A 0.50005 0.50005 0 0 0 4 9.5 L 4 14 L 3 14 L 3 15 L 8 15 L 8 14 L 7 14 L 7 9.5 A 0.50005 0.50005 0 0 0 6.5 9 L 4.5 9 z M 5 10 L 6 10 L 6 14 L 5 14 L 5 10 z"/></svg>