<?xml version="1.0"?><svg xmlns="http://www.w3.org/2000/svg" viewBox="0 0 24 24">    <path d="M 3 4 L 3 6 L 5 6 L 5 4 L 3 4 z M 7 4 L 7 6 L 9 6 L 9 4 L 7 4 z M 11 4 L 11 6 L 13 6 L 13 4 L 11 4 z M 15 4 L 15 6 L 17 6 L 17 4 L 15 4 z M 19 4 L 19 6 L 21 6 L 21 4 L 19 4 z M 3 8 L 3 10 L 7 10 L 7 8 L 3 8 z M 10 8 L 10 10 L 14 10 L 14 8 L 10 8 z M 17 8 L 17 10 L 21 10 L 21 8 L 17 8 z M 3 12 L 3 15 L 10 15 L 10 12 L 3 12 z M 14 12 L 14 15 L 21 15 L 21 12 L 14 12 z M 3 17 L 3 21 L 21 21 L 21 17 L 3 17 z"/></svg>