<svg xmlns="http://www.w3.org/2000/svg" viewBox="0 0 24 24"><path d="M 10 0 L 10 4 L 6 4 L 6 6 L 4 6 L 4 13.15625 L 4.03125 13.28125 L 7.03125 23.28125 L 7.25 24 L 16.75 24 L 16.96875 23.28125 L 19.96875 13.28125 L 20 13.15625 L 20 6 L 18 6 L 18 4 L 14 4 L 14 2 Z M 6 8 L 18 8 L 18 11.34375 C 16.292969 12.003906 15.128906 11.898438 14 11.53125 L 14 9 L 10 9 L 10 10.1875 C 9.710938 10.136719 9.40625 10.082031 9.09375 10.0625 C 8.171875 10.007813 7.136719 10.121094 6 10.5 Z M 8.96875 11.96875 C 9.320313 11.992188 9.675781 12.066406 10 12.15625 L 10 16 L 14 16 L 14 13.53125 C 15.101563 13.78125 16.347656 13.859375 17.8125 13.46875 L 15.25 22 L 8.75 22 L 6 12.8125 L 6 12.65625 C 7.210938 12.113281 8.144531 11.914063 8.96875 11.96875 Z"/></svg>