<svg xmlns="http://www.w3.org/2000/svg" viewBox="0 0 48 48"><path fill="#ffa726" d="M28.647,25c0,1.65-1.271,3-2.824,3C24.271,28,23,26.65,23,25c0-1.65,1.271-3,2.824-3 C27.376,22,28.647,23.35,28.647,25 M47,25c0-1.65-1.271-3-2.824-3c-1.553,0-2.824,1.35-2.824,3c0,1.65,1.271,3,2.824,3 C45.729,28,47,26.65,47,25"/><path fill="#ffb74d" d="M25,19.368c0-9.101,20-7.381,20-1.433v9.316C45,33.199,39.143,38,35,38s-10-4.801-10-10.749V19.368z"/><path fill="#424242" d="M24.031,19.617c0.343-4.276,1.167-8.481,6.179-9.479L31.583,8h3.433C41.331,8,46,13.345,46,20.829 v2.423L44,26c0,0,0,0.633,0-4c0-7.483-9.328,2.677-13.791-6.873C30.003,19.047,26,21,26,21v5l-1.969-2.748v-2.423 C24.031,20.401,23.962,20.045,24.031,19.617"/><path fill="#784719" d="M41.353,25.817c0,0.788-0.635,1.433-1.412,1.433s-1.412-0.645-1.412-1.433 c0-0.788,0.635-1.433,1.412-1.433S41.353,25.029,41.353,25.817 M31.471,25.817c0-0.788-0.635-1.433-1.412-1.433 c-0.776,0-1.412,0.645-1.412,1.433c0,0.788,0.635,1.433,1.412,1.433C30.835,27.251,31.471,26.606,31.471,25.817"/><path fill="#ff9100" d="M32.176,32.267h5.647V33.7h-5.647V32.267z"/><rect width="5" height="2.004" x="9.321" y="16.996" fill="#455a64"/><polygon fill="#455a64" points="5,16 3,16 2.996,17 6,17"/><path fill="#455a64" d="M4.321,20v2.99L21,23c0.552,0,1.001-0.448,1.001-1v-1.999L4.321,20z"/><path fill="#455a64" d="M0.997,19.954v2c0.872,0.046,1.664,1.704,1.664,3.04C2.661,26.33,0,30,0,32.908 C0,32.908-0.004,35,2,35c1.737,0,4,0,4,0c1.336,0,1.733-1.065,2-2l0.273-3.864c0.134-0.468,0.534-0.868,1.069-0.868L9,23 c1.269,0,10,0,10,0v-3L0.997,19.954z"/><path fill="#90a4ae" d="M14.321,17v1c0,0.552-0.448,1-1,1h-3c-0.552,0-1-0.448-1-1v-1H2 c-0.557-0.002-1.008,0.453-1.003,1.01L1,21h21v1h2.332C24.733,22,25,21.749,25,21.372v-4.394L14.321,17z"/><path fill="#ffb74d" d="M2.548,23h6.52v8h-6.52C1.141,31,0,30.105,0,29.001V25C0,23.895,1.141,23,2.548,23z"/><path fill="#ffb74d" d="M16,24c0-0.552-0.448-1-1-1H8.615C7.864,23,8.249,25,9,25h6C15.552,25,16,24.552,16,24L16,24z M12,26c0-0.552-0.448-1-1-1H4.615C3.864,25,4.249,27,5,27h6C11.552,27,12,26.552,12,26L12,26z M11,28c0-0.552-0.448-1-1-1H3.615 C2.864,27,3.249,29,4,29h6C10.552,29,11,28.552,11,28L11,28z M9.791,30c0-0.552-0.448-1-1-1H2.407c-0.751,0-0.367,2,0.385,2h6 C9.344,31,9.791,30.552,9.791,30L9.791,30z"/></svg>