<svg xmlns="http://www.w3.org/2000/svg" width="512" height="512" viewBox="0 0 512 512"><path fill="#FEBF10" d="M181.8 433.6c-4.4-3.7-9.8-6.7-14.6-9.8-5-3.2-10.1-6.3-15.3-9-3.5-1.8-6.8-2.8-10.3-3.9.5 2.8-.1 6-.3 8.7-.4 5.8-.2 12.1.5 17.9 1.3 11.2 2.4 22.4 5.4 33.3 8.5-4.3 15.7-10.5 22.5-17.2C173 450.3 188.2 439.1 181.8 433.6zM90.2 357.3c-.2 1-.2 1.6-.1 1.8-.1-.2-.3-.7-.9-1.6-1-1.4-2-2.7-3.1-4-2.1-2.6-4.3-5.2-6.5-7.7-5.4-6.3-8.4-14.2-13.9-20.4-4.6 6.4-6.8 15.4-9.2 22.4-2.7 7.9-7.3 16-8.3 24.5 13.5.5 27.9-3.7 39.3-10.5 1.1-.6 2.1-.9 3.1-.8C90.1 359.9 89.9 358.7 90.2 357.3z"/><path fill="#14B6B9" d="M377.8,232.8c-2.2-0.2-4.3-0.4-6.5-0.6c-4.4-0.3-8.7-0.3-13.1-0.5c-11.4-0.3-22.8-0.9-34.3-1.1c-8.5-0.1-17.5-0.3-25.9,1.6c-6.3,1.5-13.8,3.8-15.1,11c0.3,0.9,0.3,1.9,0,3.1c-2.9,9.8-0.1,18.8,1.1,28.5c0.9,7.1,1.8,14.4,4.6,21c2.8,6.5,7.6,11.4,14.8,12.4c5.7,0.8,11.3,0,17,0.2c4.8,0.2,9.6,0.5,14.3,1c8.6,0.9,17.7,1.1,23.3-6.5c3.9-5.2,5.1-12,6.1-18.3c1.3-8.6,2.7-16.8,5.6-25.1c3.2-8.8,6.8-17.4,8.2-26.8C378,232.8,377.9,232.8,377.8,232.8z"/><path fill="#FEBF10" d="M368 155.4c-33-32.2-80.5-47.9-126.2-45.8-46.2 2.1-92.1 21.9-119.8 60-7.2 9.9-13 20.5-17.5 31.5 15.6.1 31.3-.7 46.9-.5 14.4.1 29 .8 43.4 1.6 12.6.7 27.5 1.4 38.4 8.5 6.2 4 17.3 18.6 25.7 11.9 3.6-2.9 5.3-7.8 8-11.4 3-4.1 6.9-6.8 11.5-9 11-5.2 23.7-5.9 35.7-5.7 13.4.2 26.9.2 40.2 1.4 14.8 1.3 29.6 3.3 44.4 3.1C391.6 184 381.3 168.5 368 155.4zM52.4 220.5c-6.7 2.2-13.5 4.3-20.1 6.7-7.2 2.7-15.2 5.5-21.1 10.6-.7.6-1.2 1.2-1.4 1.7 3.4 3.1 7.9 4.8 11.5 7.7 5.4 4.3 10 9.4 15.1 14 3 2.6 6.3 6.2 10.1 7.8 1.4-16.4 6.6-32.3 6.7-48.8C52.9 220.3 52.7 220.4 52.4 220.5zM158.5 62.9c-1.9-2.2-12.3-15.9-15.7-13.2-2.9 2.3-2 8.3-1.7 11.5.5 5.2 1.5 10.4 2.4 15.6 1.2 7.4 3.1 15.5 3 23.2 8.2-8.5 19.9-14.2 31.6-17.1C171.2 76.6 164.7 69.9 158.5 62.9zM83.4 132c-5.5-2-11.2-3.5-17-4.5-4.3-.8-11.8-2.5-15.4.4 0 0-.4.5-.4.8.1 1.5.3 2.4.9 3.8 3.6 9.1 10.7 16.9 16.7 24.4 3.1 3.9 7 8 10 12.4.3-.4.7-.8 1-1.1 1.2-1.4 2.3-2.9 3.4-4.4 2.3-3.3 4.6-6.6 6.8-9.9 3.4-5.3 6.7-11.3 11.2-16C94.7 136.4 89.1 134 83.4 132zM333.1 83.1c6 2.2 11.5 6.9 16.2 10.6 4 3.1 7.9 6.4 11.8 9.7 4.2-3.4 6.5-9.1 8.5-13.9 1.8-4.5 3.7-8.9 5.6-13.3 2.6-6.2 7-14.9 7.1-22.6C364.1 59.6 344.7 67.8 333.1 83.1zM435.2 127c-9.8 1.9-19.5 4.7-28.8 8.5-1.2.5-2.3.5-3.2.3 3.9 6.3 8.8 12.1 12.9 18.3 2.3 3.6 5.2 7.6 6.8 11.9 7.2-5.8 14.6-11.5 20.5-18.3 5.4-6.2 13.8-12.9 16.8-21C453.3 123.2 441.9 125.7 435.2 127zM266.5 41.6c-1.5-5.3-2.5-10.8-4.2-16-.7-2.1-1.3-4.5-2.5-6.4-.3-.5-.6-.9-.8-1.1-4 3.2-6.6 8.7-8.7 13.1-2.4 5.2-4.5 10.6-6.8 15.9-3.8 8.8-9.7 16.6-12.5 25.7h42.2C273.3 62.2 269.4 51.7 266.5 41.6z"/><path fill="#127274" d="M406.6,210.7c-0.4-0.1-0.7-0.2-1.1-0.3c-0.8,0.8-1.9,1.4-3.5,1.4c-2.5,0.1-4.9,0.2-7.4,0.1c-15.5-0.2-30.9-2.5-46.3-3.6c-13.1-0.9-26.5-1.3-39.6-0.9c-9.9,0.3-25.4,0.6-32.3,9.2c-6,7.5-9.3,17.9-20.7,18.4c-12.1,0.5-18.7-8.2-27.6-14.5c-10.5-7.4-27-7.3-39.2-7.6c-14.8-0.4-29.7-1.5-44.5-1.3c-16.4,0.2-32.9,0.9-49.3,0.3c-1.2,0-2.1-0.4-3-0.9c-2.4,2.3-4.5,5.1-5.8,8.1c-1.2,2.7-2.5,7.6,0.2,9.9c2.9,2.4,6.5,3.7,9.5,6.1c3.3,2.7,6.1,6.3,7.6,10.3c1.9,5,2.5,10.2,3.1,15.5c0.5,4.6,1.5,9.2,2.2,13.8c1.3,8.9,1.7,19,6.2,27c11.3,19.8,37.3,19.3,57.2,20.2c7.4,0.3,14.7,1.3,22,2c3.8,0.4,7.7,0.7,11.5,0.4c1.9-0.1,5.4-0.1,6.7-1.5c0.7-0.7,1.4-1.1,2.1-1.4c10.2-13.1,11.9-29.3,14.4-45.4c1.4-9,4.4-25.3,15-28c14-3.6,22.8,9.9,25.4,21.7c1.5,6.8,2.4,13.7,3.4,20.6c1.4,9.3,3.6,18.3,6.1,27.3c0.2,0.7,0.2,1.4,0.2,2c13.2,9.8,29.8,11.6,45.8,11.3c9.4-0.2,19.1-0.5,28.4-2c6.1-1,12.1-2.8,18.3-3.1c0.3-0.4,0.7-0.7,1.1-1c8.8-6.3,8.8-19.5,9.8-29.1c1.2-11.7,2.8-24.6,7.3-35.5c2.5-5.9,5.5-11.8,9.6-16.8c2.8-3.4,5.7-5.5,9-7.6c0-0.2,0-0.3-0.1-0.5h0.8c1-0.6,2-1.3,3.1-2C421.3,227.3,416.6,212.8,406.6,210.7z M223.5,272.6c-4.1,18.6-7.7,42.1-30.5,45.2c-20.6,2.8-45.8-0.1-60.7-16.2c-8.4-9-13.1-22-16.1-33.7c-3.4-13.2-5.2-26.7-7.2-40.2c-0.1-0.9-0.1-1.7,0.2-2.5c0.2-2.4,1.8-4.4,4.9-4.5c17.7-0.1,35.4-1.8,53.1-2.1c13.2-0.3,28-0.8,40,5.7C225.2,234.2,227.5,254.2,223.5,272.6z M389,234.4c-1.7,11.8-7,22.2-10.4,33.5c-2.7,9-2.8,18.3-5.2,27.3c-2.1,7.6-5.4,15.2-12,20c-8.8,6.4-18.3,6.1-28.6,5.1c-6.9-0.7-13.7-0.7-20.6-0.6c-5.6,0.1-11.2-0.2-16.5-2.2c-7.8-3-13.5-9.2-16.8-16.9c-3.5-8.1-3.8-16.5-5.7-24.9c-2.2-10.2-4-21.2-0.9-31.4c0-0.1,0.1-0.2,0.1-0.4c-0.2-0.8-0.3-1.7-0.1-2.6c3.8-20.9,31.5-21.7,48.1-21.6c13,0.1,26,1.1,39,1.1c5.1,0,10.2,0.3,15.3,0.7c3.4,0.3,8.5,0,11.5,1.9c2.8,1.8,3.2,4.9,2.2,7.3C388.9,231.7,389.2,232.9,389,234.4z"/><path fill="#14B6B9" d="M200.4,233.3c-11.8-5-25.5-3.9-38-3.5c-13.9,0.5-27.7,1.6-41.6,1.9c1.3,9.3,2.6,18.6,4.7,27.7c2.7,11.6,6.3,26.1,15,34.9c7.7,7.7,18.1,11.4,28.7,12.7c5.6,0.7,11.2,0.9,16.9,0.5c4.4-0.3,9.4-0.4,13.1-3.1c7.6-5.4,9.7-16,11.6-24.6C214.2,263.8,219.5,241.5,200.4,233.3z"/><path fill="#FEBF10" d="M501 247.5c-7.8-5.3-20.3-8.1-29.9-10.5-5.8-1.4-11.7-2.8-17.6-3.8-2.2-.4-4.4-.8-6.7-1.1-.3 0-.5-.1-.8-.1.3 14.4 6 27.9 4.2 42 2.4.2 5.2-1.4 7.2-2.5 3.3-1.7 6.4-3.6 9.7-5.3 4.8-2.5 9.9-4.2 14.8-6.2 6-2.5 12.4-5.2 17.4-9.4.8-.6 1.8-1.5 2.2-2.4 0 0 0-.1.1-.1C501.6 247.9 501.3 247.7 501 247.5zM462 371.6c-2-7.1-4.8-13.9-7.3-20.7-1.8-4.8-3.1-9.7-5.8-14.1-1.2-2-2.7-5-4.9-6-1.6-.8-2.4.9-3.4 2.2-.7.9-1.5 1.5-2.4 1.8-1.7 3-4.1 5.8-5.5 7.9-5.3 7.3-11.3 14.4-15.5 22.4-.4.8-.8 1.5-1 2 .1 0 .1.1.2.1 4.6 2.4 9.5 4.1 14.4 5.8 5.1 1.7 10.2 3.3 15 5.6 6 2.9 11.9 6.2 18.2 8.7C464.9 382.1 463.4 376.4 462 371.6zM249 443.8c-.6 0-1.2-.1-1.7-.2-1.2 1-.7 3 .1 5.6 1.3 4.3 3.1 8.7 5.6 12.5 4.7 7.1 11.1 12.8 16 19.7 2.2 3.1 4 6.4 5.9 9.8 2.6-9.7 6.3-19.2 11.4-27.5 4.5-7.3 10.5-15.9 12.3-24.8C282.2 441.4 265.7 443.7 249 443.8zM379.3 403.1c-10.8 7.5-22.9 13.2-34.9 18.4-.2.1-.4.2-.6.2-2.7 3.5 1.1 9.1 3 12.3 3.2 5.3 6.1 10.6 10.5 15 4.3 4.2 8.3 8.5 12.3 13 2.2 2.4 4.3 4.5 6.8 6.2.3-11.8-.5-23.5-.4-35.3.1-6.8.2-13.8 1.3-20.5C378 409.3 378.7 406.2 379.3 403.1zM409.6 248.4c-3.2 3-5.6 6.7-7.4 11-5.8 13.5-7.9 27.7-9.4 42.3-1.2 11.2-3.3 22.9-11.9 30.5-.6 2.6-2.9 5-6.3 4.6-4.4-.5-9 .8-13.2 1.7-4.8 1-9.6 1.7-14.5 2.1-9.5.9-19.2 1.6-28.7 1.5-17.2-.3-34.6-4.4-48.1-15.5-2-1.6-2.3-3.8-1.6-5.6-4-14.7-6-29.3-8.7-44.2-.9-5.1-2-11-5.5-15.1-2-2.5-6.1-4.9-8.6-1.8-2.8 3.6-3.8 8.5-4.8 12.9-1.4 6.4-2.1 13-3.2 19.5-2.4 13.9-6.7 26.8-15.9 37.8-1 1.1-2.1 1.7-3.2 1.9-6 4.1-14.5 3.6-21.5 3.1-8.6-.6-17.1-2-25.4-2.3-22.3-.9-52.3-1.5-65-23.7-5.6-9.9-7-21-8.6-32.1-.8-5.6-1.9-11-2.5-16.6-.4-3.5-.8-7.4-2.1-10.8-1.7 23.2 1.4 47 8.8 69.4.2.6.3 1.2.3 1.7 5.1 7.2 9.7 14.9 15.1 21.9 5.4 7 11.4 13.7 17.9 19.7 12.7 11.8 27 21.6 42.8 28.8 43.7 20 96.5 22.8 140.8 3.1 43.6-19.4 77.4-59 87.5-106C409.4 274.9 410.4 261.6 409.6 248.4z"/><path d="M410.1,200.3c-8-20.2-20.1-38.7-35.9-54.1c-33.1-32.4-80.8-47.7-126.4-47.7c-45.7,0.1-91.1,17.5-123,50.5c-13.8,14.3-24.1,31-31.1,48.9c-1.3-0.3-2.7-0.1-4.1,0.9c-8.4,6-16.2,16.2-15.4,27c0.3,4.9,2.1,8.9,5.8,12.1c1,0.9,2.1,1.6,3.3,2.3c-3,25.7-0.5,52.2,6.8,76.9c-1.1,1.6-1.2,3.6,0.3,5.7c8.2,10.7,14.9,22.5,23.7,32.8c7.9,9.3,16.6,17.7,26.2,25.2c19.1,14.8,41.2,25.1,64.5,31.3c47,12.4,97.3,6.8,138.9-18.6c41-25.1,69.5-68.6,75.9-116.2c1.6-12.1,1.7-24.2,0.5-36.1c4-3.2,6.4-7.4,7.4-13C429.8,215.5,422.1,203.5,410.1,200.3z M121.9,169.5c27.7-38.1,73.6-57.8,119.8-60c45.7-2.1,93.3,13.6,126.2,45.8c13.4,13.1,23.6,28.6,30.6,45.5c-14.9,0.3-29.6-1.8-44.4-3.1c-13.3-1.2-26.8-1.3-40.2-1.4c-12-0.1-24.7,0.5-35.7,5.7c-4.5,2.2-8.5,4.9-11.5,9c-2.7,3.6-4.4,8.5-8,11.4c-8.4,6.7-19.5-7.8-25.7-11.9c-10.9-7.1-25.8-7.9-38.4-8.5c-14.4-0.7-29-1.4-43.4-1.6c-15.6-0.1-31.3,0.7-46.9,0.5C108.9,190,114.7,179.4,121.9,169.5z M406.6,288c-10.1,47-43.9,86.6-87.5,106c-44.3,19.7-97.1,17-140.8-3.1c-15.8-7.2-30.1-17-42.8-28.8c-6.5-6-12.4-12.7-17.9-19.7c-5.4-7-10-14.7-15.1-21.9c0-0.5-0.1-1.1-0.3-1.7c-7.4-22.5-10.5-46.2-8.8-69.4c1.4,3.4,1.8,7.3,2.1,10.8c0.6,5.6,1.7,11,2.5,16.6c1.6,11.1,2.9,22.2,8.6,32.1c12.6,22.2,42.7,22.9,65,23.7c8.4,0.3,16.9,1.7,25.4,2.3c6.9,0.5,15.5,1,21.5-3.1c1.1-0.1,2.3-0.7,3.2-1.9c9.2-10.9,13.5-23.9,15.9-37.8c1.1-6.5,1.8-13.1,3.2-19.5c1-4.4,2-9.3,4.8-12.9c2.4-3.2,6.5-0.7,8.6,1.8c3.4,4.1,4.5,10,5.5,15.1c2.7,14.9,4.8,29.5,8.7,44.2c-0.7,1.8-0.4,4,1.6,5.6c13.5,11.1,30.9,15.2,48.1,15.5c9.6,0.2,19.2-0.6,28.7-1.5c4.9-0.4,9.7-1.1,14.5-2.1c4.2-0.9,8.8-2.2,13.2-1.7c3.4,0.4,5.7-1.9,6.3-4.6c8.7-7.6,10.8-19.4,11.9-30.5c1.5-14.6,3.6-28.8,9.4-42.3c1.8-4.2,4.3-7.9,7.4-11C410.4,261.6,409.4,274.9,406.6,288z M412,233.4c-1.1,0.7-2.1,1.3-3.1,2h-0.8c0,0.2,0,0.3,0.1,0.5c-3.3,2.1-6.2,4.2-9,7.6c-4.1,5-7.1,10.9-9.6,16.8c-4.6,10.9-6.2,23.8-7.3,35.5c-1,9.7-1.1,22.9-9.8,29.1c-0.4,0.3-0.8,0.6-1.1,1c-6.2,0.3-12.1,2.1-18.3,3.1c-9.3,1.5-19,1.8-28.4,2c-16,0.3-32.6-1.5-45.8-11.3c0.1-0.6,0-1.3-0.2-2c-2.4-9-4.7-18.1-6.1-27.3c-1-6.9-1.9-13.8-3.4-20.6c-2.6-11.8-11.4-25.3-25.4-21.7c-10.6,2.7-13.6,19-15,28c-2.5,16.1-4.1,32.3-14.4,45.4c-0.7,0.3-1.4,0.7-2.1,1.4c-1.3,1.4-4.8,1.4-6.7,1.5c-3.8,0.2-7.7-0.1-11.5-0.4c-7.4-0.7-14.6-1.7-22-2c-19.8-0.9-45.9-0.4-57.2-20.2c-4.5-8-5-18.1-6.2-27c-0.7-4.6-1.7-9.1-2.2-13.8c-0.5-5.2-1.2-10.5-3.1-15.5c-1.5-4-4.3-7.6-7.6-10.3c-2.9-2.4-6.6-3.7-9.5-6.1c-2.7-2.3-1.3-7.2-0.2-9.9c1.3-3,3.4-5.8,5.8-8.1c0.8,0.5,1.8,0.9,3,0.9c16.4,0.7,32.9-0.1,49.3-0.3c14.8-0.2,29.7,0.9,44.5,1.3c12.2,0.3,28.8,0.2,39.2,7.6c9,6.4,15.6,15,27.6,14.5c11.4-0.5,14.7-10.9,20.7-18.4c6.9-8.6,22.4-8.9,32.3-9.2c13.1-0.3,26.6,0,39.6,0.9c15.5,1.1,30.8,3.4,46.3,3.6c2.5,0,4.9,0,7.4-0.1c1.5-0.1,2.7-0.6,3.5-1.4c0.3,0.1,0.7,0.2,1.1,0.3C416.6,212.8,421.3,227.3,412,233.4z"/><path d="M207.2 224.4c-12-6.5-26.8-5.9-40-5.7-17.7.4-35.4 2.1-53.1 2.1-3.1 0-4.7 2.1-4.9 4.5-.2.7-.3 1.5-.2 2.5 1.9 13.5 3.8 27 7.2 40.2 3 11.7 7.7 24.7 16.1 33.7 14.9 16.1 40.1 19 60.7 16.2 22.7-3.1 26.4-26.6 30.5-45.2C227.5 254.2 225.2 234.2 207.2 224.4zM210.7 279.8c-1.8 8.6-4 19.2-11.6 24.6-3.7 2.7-8.8 2.8-13.1 3.1-5.6.4-11.3.3-16.9-.5-10.6-1.4-21-5-28.7-12.7-8.7-8.7-12.3-23.3-15-34.9-2.1-9.1-3.4-18.4-4.7-27.7 13.9-.3 27.8-1.3 41.6-1.9 12.5-.5 26.3-1.6 38 3.5C219.5 241.5 214.2 263.8 210.7 279.8zM388.3 230.7c1-2.4.6-5.5-2.2-7.3-3-1.9-8.1-1.6-11.5-1.9-5.1-.4-10.2-.6-15.3-.7-13-.1-26-1-39-1.1-16.6-.1-44.3.7-48.1 21.6-.2 1-.1 1.9.1 2.6 0 .1-.1.2-.1.4-3.1 10.2-1.3 21.2.9 31.4 1.8 8.5 2.2 16.9 5.7 24.9 3.3 7.6 9 13.9 16.8 16.9 5.3 2 10.9 2.3 16.5 2.2 6.9-.1 13.7-.1 20.6.6 10.3 1 19.8 1.2 28.6-5.1 6.6-4.8 10-12.4 12-20 2.4-9 2.5-18.4 5.2-27.3 3.4-11.3 8.7-21.7 10.4-33.5C389.2 232.9 388.9 231.7 388.3 230.7zM369.9 259.6c-3 8.3-4.4 16.4-5.6 25.1-.9 6.3-2.2 13.1-6.1 18.3-5.7 7.6-14.8 7.4-23.3 6.5-4.8-.5-9.6-.7-14.3-1-5.7-.3-11.3.6-17-.2-7.2-1.1-12-5.9-14.8-12.4-2.8-6.6-3.7-13.9-4.6-21-1.2-9.7-4-18.7-1.1-28.5.3-1.2.3-2.2 0-3.1 1.3-7.2 8.8-9.6 15.1-11 8.4-1.9 17.4-1.7 25.9-1.6 11.4.2 22.8.8 34.3 1.1 4.4.1 8.7.2 13.1.5 2.2.1 4.3.3 6.5.6.1 0 .2 0 .3 0C376.7 242.2 373.1 250.8 369.9 259.6zM276.5 36.4c-2.7-9.5-3.8-26.4-15.4-29.5-6.2-1.7-11.4 4.8-14.5 9-4.2 5.9-7.1 12.6-9.9 19.3-2.9 6.9-6.1 13.2-9.7 19.8-3.6 6.6-6.9 13.8-7.8 21.3-.3 2.4.7 4.2 2.3 5.3 1 1.3 2.5 2.3 4.6 2.3h53c2.3 0 4.7-2.2 5-4.4C285.5 64.6 280.5 50.4 276.5 36.4zM231.2 72.8c2.7-9.2 8.7-16.9 12.5-25.7 2.3-5.3 4.3-10.6 6.8-15.9 2.1-4.5 4.7-10 8.7-13.1.2.2.4.6.8 1.1 1.2 1.9 1.8 4.3 2.5 6.4 1.7 5.2 2.7 10.7 4.2 16 2.9 10.1 6.8 20.6 6.9 31.2H231.2zM391.8 44.5c-1-2.9-4.2-4.3-7-3.4-22 7-47.7 16.8-61.3 36.6-1.1 1.6-1.3 3.4-.8 5-4.2 2.6-2.7 10.6 3.4 10.2 3.9-.3 7.7 3.3 10.7 5.5 2.5 1.8 5 3.5 7.4 5.4 4 3.2 7.9 6.5 11.9 9.8 2.2 1.8 4.7 1.6 6.5.4 1.3.3 2.8.1 4.2-.9 10.3-7.6 14-21.8 18.8-33C389.9 69.4 395.8 55.9 391.8 44.5zM375.1 76.1c-1.9 4.4-3.8 8.8-5.6 13.3-2 4.9-4.3 10.5-8.5 13.9-3.9-3.3-7.8-6.5-11.8-9.7-4.7-3.6-10.2-8.3-16.2-10.6 11.6-15.3 31.1-23.5 49.1-29.6C382.1 61.2 377.8 69.9 375.1 76.1zM471.8 122.5c-.9-2.5-3.7-4.2-5.9-5.3-9.6-5.1-22.7-2.8-32.8-.9-10.3 2-20.6 4.8-30.3 8.8-2.4 1-3.4 3-3.5 5.1-3.9-2.4-10 2.9-7.3 8.2 3.3 6.4 8.2 12 12.3 17.9 2.4 3.4 4.7 6.9 6.8 10.6.7 1.2 1.3 2.5 1.8 3.8.3.9.3 2.7.8 1.2-.2.7-.3 1.4-.3 2-.3.3-.6.5-.9.8-5.3 4.7 3 11.9 8.3 7.3 12.5-11.2 25.7-21.3 37.1-33.7 4.7-5.2 9.5-10.6 12.5-17C471.4 128.8 472.7 125.2 471.8 122.5zM443.5 147.7c-5.9 6.8-13.3 12.6-20.5 18.3-1.6-4.3-4.5-8.4-6.8-11.9-4.1-6.2-9-11.9-12.9-18.3.9.2 2 .2 3.2-.3 9.2-3.8 19-6.6 28.8-8.5 6.7-1.3 18.1-3.9 25.1-.4C457.3 134.8 448.9 141.5 443.5 147.7zM511.6 242.6c-2.5-4.2-8.2-6.5-12.4-8.2-6.7-2.8-13.7-4.9-20.7-6.8-11.3-3.1-23.5-6.6-35.3-6.8-2.9 0-4.4 1.7-4.8 3.9-1.8.9-3.2 2.6-3.2 5-.6 15.4 8.7 32 3.6 47.1-1.8 5.4 4.3 9.6 7.9 7.5.3.1.6.3 1 .3 7.5 1.8 15.5-3.6 21.7-7.1 5.6-3.1 11.6-5.2 17.4-7.6C495.5 266.3 519.7 256.2 511.6 242.6zM501.7 248.2c-.5.9-1.5 1.7-2.2 2.4-5 4.2-11.4 6.9-17.4 9.4-4.9 2.1-10.1 3.7-14.8 6.2-3.3 1.7-6.4 3.6-9.7 5.3-2 1-4.8 2.7-7.2 2.5 1.8-14.1-4-27.7-4.2-42 .3 0 .5.1.8.1 2.2.3 4.4.7 6.7 1.1 5.9 1.1 11.8 2.4 17.6 3.8 9.6 2.4 22.1 5.2 29.9 10.5.3.2.6.4.8.6C501.7 248.2 501.7 248.2 501.7 248.2zM194.2 82.2c-10.9-8.8-20.8-18.7-29.9-29.3-6.1-7.1-14.3-16.8-24.8-13.8-12 3.4-9.8 20.5-8.5 29.6.8 5.6 1.8 11.1 2.7 16.7 1.2 7.2 2.8 14.8.5 21.9-1.8 5.5 5.1 7.8 8.8 4.9 2 2.2 5.4 2.9 7.7-.2 8.9-12.3 25.6-18.9 40.3-20.1C195.6 91.4 198 85.2 194.2 82.2zM146.5 99.9c.2-7.8-1.8-15.8-3-23.2-.8-5.2-1.8-10.3-2.4-15.6-.3-3.2-1.2-9.1 1.7-11.5 3.4-2.7 13.7 11 15.7 13.2 6.2 7 12.7 13.7 19.6 20C166.4 85.7 154.7 91.4 146.5 99.9zM112.9 133.2c-.4-2.6-2.3-5.2-5.7-5.4-8.1-.3-16.3-5-24-7.4-6.9-2.2-14-3.9-21.2-4.6-10.1-1-22.9 1.7-22.3 14.3.5 10 9 19.7 14.8 27.2 3.5 4.5 7.2 8.8 10.7 13.3 2.3 3 5.4 6.9 6.2 9.6 1.7 5.6 9.2 4.1 10.5-.5.2 0 .4-.1.5-.1 2.6-.6 4.6-3.5 6.1-5.4 2.7-3.5 5.1-7.1 7.6-10.8 4.7-7 9.2-17.1 16.6-21.4C116.5 139.7 115.6 135.3 112.9 133.2zM89.3 153.8c-2.2 3.4-4.4 6.7-6.8 9.9-1.1 1.5-2.2 3-3.4 4.4-.3.4-.7.8-1 1.1-3-4.5-6.9-8.6-10-12.4-6-7.5-13.2-15.3-16.7-24.4-.6-1.4-.8-2.3-.9-3.8 0-.3.4-.8.4-.8 3.7-2.9 11.1-1.1 15.4-.4 5.8 1 11.5 2.5 17 4.5 5.7 2 11.3 4.4 17.1 5.8C96.1 142.4 92.7 148.5 89.3 153.8zM64.1 215.9c-.2-5.1-6-6.1-9.1-3.6-1.2-1.9-3.5-3.1-6.2-2.2-8.1 2.7-16.2 5.2-24.2 8.3-8.3 3.3-19.3 7.4-24.2 15.4-2.1 3.4-2.2 7.9 0 11.3 3.3 5.1 9.3 6.4 13.6 10.3 6.3 5.6 12.3 11.4 18.5 17 5.6 5 11.8 8.9 19.5 8.4 3.2-.2 5-2.9 5.1-5.9C57.3 255 64.9 235.9 64.1 215.9zM46.5 269c-3.8-1.6-7.1-5.2-10.1-7.8-5.2-4.5-9.7-9.6-15.1-14-3.6-2.9-8.1-4.6-11.5-7.7.3-.5.7-1.1 1.4-1.7 5.9-5.1 14-7.9 21.1-10.6 6.6-2.5 13.4-4.5 20.1-6.7.3-.1.5-.2.7-.3C53.1 236.6 47.9 252.6 46.5 269zM90.1 341.2c-6.7-7.9-10.8-17.5-17.9-25-1.2-1.3-2.6-1.8-3.9-1.6-2.1-1.7-5.3-2.2-7.8.1-7.7 7-10.3 18.8-13.8 28.2-4.1 11.2-10.4 22.7-9.6 34.9.1 2.3 2.1 4.7 4.4 5 17.9 2.1 36.8-2.6 52.1-11.8 3-1.8 3-5 1.5-7.3 2.5.2 5.1-1.1 5.8-4.2C102.4 353 93.8 345.4 90.1 341.2zM87.5 361.8c-11.4 6.8-25.8 11-39.3 10.5 1-8.5 5.6-16.6 8.3-24.5 2.4-7.1 4.6-16.1 9.2-22.4 5.4 6.2 8.5 14.1 13.9 20.4 2.2 2.6 4.4 5.1 6.5 7.7 1.1 1.3 2.1 2.6 3.1 4 .6.9.8 1.4.9 1.6 0-.2-.1-.8.1-1.8-.3 1.4-.1 2.7.5 3.7C89.7 360.9 88.6 361.1 87.5 361.8zM473.1 370.6c-2.3-9.3-6.3-18.1-9.3-27.1-2.4-7.2-5.6-14.1-10.9-19.6-5.3-5.6-12.3-5.4-17.5-1.2-3-.4-5.9 2.4-6.1 5.5-.2.3-.3.6-.5.9-.8 1.4-1.7 2.8-2.7 4.1-2.8 4-5.7 7.8-8.5 11.7-4.5 6.2-11.6 14.1-12.6 22-1.2 10.1 14 13.4 21 15.8 5.1 1.8 10.1 3.4 15 5.6 8.5 3.9 16.5 8.5 25.5 11.3 2.3.7 4.9-1 6-3C476.9 388.7 475.2 379.1 473.1 370.6zM464.2 387.3c-6.2-2.5-12.1-5.9-18.2-8.7-4.9-2.3-10-3.9-15-5.6-4.9-1.7-9.8-3.4-14.4-5.8-.1 0-.1-.1-.2-.1.3-.6.6-1.2 1-2 4.2-8 10.2-15.1 15.5-22.4 1.5-2.1 3.9-4.9 5.5-7.9.8-.3 1.7-.9 2.4-1.8 1-1.3 1.7-3 3.4-2.2 2.2 1.1 3.7 4.1 4.9 6 2.7 4.4 4 9.3 5.8 14.1 2.5 6.9 5.2 13.7 7.3 20.7C463.4 376.4 464.9 382.1 464.2 387.3zM391.1 390.9c-.5-5.2-6.2-6.2-9.6-3.2-11.3 10.1-25.7 16.9-39.5 22.9-1.1-.1-2.3.2-3.4 1.1-13.9 10.9-1.8 29 6.3 39.8 4.9 6.4 11.3 11.8 16.7 17.8 5.4 6 11 10.5 19 12.4 2.7.6 6.2-1.4 6.4-4.3 1-13.8.1-27.6.1-41.5 0-7.8.2-15.5 1.5-23.2C389.9 405.4 391.8 398.4 391.1 390.9zM377.5 412.4c-1.2 6.7-1.3 13.7-1.3 20.5-.1 11.8.7 23.5.4 35.3-2.5-1.7-4.6-3.8-6.8-6.2-4-4.4-8.1-8.8-12.3-13-4.4-4.4-7.3-9.7-10.5-15-1.9-3.2-5.8-8.8-3-12.3.2-.1.4-.1.6-.2 12-5.2 24.1-10.9 34.9-18.4C378.7 406.2 378 409.3 377.5 412.4zM310.1 431.9c-.1-2.8-3-5.5-5.9-5.1-17.2 2.7-34.3 5.4-51.7 5.9-.9-.6-2-1-3.3-.9-17.5.6-13.9 19-8.6 29.9 4.1 8.4 10.5 14.8 16.4 21.9 6.4 7.8 10 17.4 17 24.8 2.9 3.1 8.4.8 9-3.1 2.4-13.9 7.2-27.2 14.6-39.2C303.9 455.9 310.7 444.3 310.1 431.9zM286.3 463.6c-5.1 8.3-8.8 17.8-11.4 27.5-1.9-3.3-3.7-6.7-5.9-9.8-5-6.9-11.3-12.6-16-19.7-2.5-3.8-4.3-8.2-5.6-12.5-.8-2.6-1.2-4.5-.1-5.6.5.1 1.1.2 1.7.2 16.7-.1 33.1-2.4 49.6-5C296.8 447.7 290.8 456.3 286.3 463.6zM193.7 432c-1.7-5.9-8-9.3-12.8-12.4-6-3.8-11.9-7.7-18-11.3-4.7-2.8-10.4-6.6-15.8-7.6-2-.4-4.1-.9-6.1-1.4-.4-.2-.8-.3-1.2-.5-.2-.1-.6-.2-.9-.2-5.2-.4-7.5 4.3-5.8 7.8-2.5 1.4-3.1 4.1-2.4 6.5v0c0 .8 0 1.6-.1 2.4-.1 2.1-.3 4.2-.4 6.4-.1 6.7 0 13.4 1 20 2 13 2.9 25.8 7.3 38.4 1 2.8 4.2 4.4 7 3.4 12.6-4.8 22.9-13.2 32.4-22.6C185.6 453.2 197.2 444.4 193.7 432zM169.6 453.6c-6.9 6.7-14.1 12.9-22.5 17.2-3-10.9-4-22-5.4-33.3-.7-5.8-.9-12-.5-17.9.2-2.6.8-5.9.3-8.7 3.5 1 6.8 2.1 10.3 3.9 5.3 2.7 10.3 5.8 15.3 9 4.9 3.1 10.2 6 14.6 9.8C188.2 439.1 173 450.3 169.6 453.6z"/></svg>