<?xml version="1.0"?><svg xmlns="http://www.w3.org/2000/svg" viewBox="0 0 128 128">    <path d="M 65 12 C 64 12 63 12.500391 62.5 13.400391 C 61.1 15.500391 58.999609 16.900781 56.599609 17.300781 C 54.199609 17.700781 51.699219 17.199219 49.699219 15.699219 C 48.899219 15.099219 47.800391 14.900781 46.900391 15.300781 C 45.900391 15.600781 45.2 16.400391 45 17.400391 L 44.800781 18.199219 C 44.400781 20.099219 43.100781 21.7 41.300781 22.5 C 39.500781 23.3 37.499219 23.300391 35.699219 22.400391 L 29.199219 19 C 28.099219 18.4 26.800781 18.600391 25.800781 19.400391 C 24.900781 20.200391 24.6 21.499219 25 22.699219 L 27.099609 28.400391 C 27.699609 30.000391 29.4 30.699219 31 30.199219 C 32.1 29.799219 32.9 28.799609 33 27.599609 L 33.099609 27.599609 C 36.499609 29.299609 40.400391 29.400781 43.900391 27.800781 C 46.400391 26.600781 48.399609 24.700781 49.599609 22.300781 C 52.099609 23.300781 54.899219 23.599609 57.699219 23.099609 C 60.499219 22.599609 62.999609 21.3 65.099609 19.5 C 67.199609 21.3 69.7 22.599609 72.5 23.099609 C 75.3 23.599609 78.099219 23.299219 80.699219 22.199219 C 81.999219 24.599219 84.000391 26.699609 86.400391 28.099609 C 88.800391 29.499609 91.600391 30.199609 94.400391 30.099609 C 94.800391 32.799609 95.899219 35.499609 97.699219 37.599609 C 99.499219 39.699609 101.9 41.299219 104.5 42.199219 C 103.9 44.899219 104.09961 47.800391 105.09961 50.400391 C 106.09961 53.000391 107.70039 55.3 109.90039 57 C 108.40039 59.3 107.59961 62.100391 107.59961 64.900391 C 107.59961 67.700391 108.40039 70.400781 109.90039 72.800781 C 107.60039 74.600781 105.90039 76.9 104.90039 79.5 C 103.50039 83.4 103.79961 87.700781 105.59961 91.300781 C 105.69961 91.500781 105.8 91.700391 106 91.900391 L 116.19922 104.09961 C 116.79922 104.79961 117.6 105.19922 118.5 105.19922 C 119.2 105.19922 119.90039 105 120.40039 104.5 C 121.70039 103.4 121.80078 101.50078 120.80078 100.30078 L 110.90039 88.400391 C 109.90039 86.200391 109.79961 83.799609 110.59961 81.599609 C 111.49961 79.299609 113.2 77.4 115.5 76.5 C 116.4 76.1 117.10078 75.300781 117.30078 74.300781 C 117.50078 73.300781 117.10039 72.299609 116.40039 71.599609 C 114.60039 69.899609 113.59961 67.599609 113.59961 65.099609 C 113.59961 62.599609 114.60039 60.299609 116.40039 58.599609 C 117.10039 57.899609 117.50078 56.900391 117.30078 55.900391 C 117.10078 54.900391 116.5 54.099219 115.5 53.699219 C 113.2 52.699219 111.49961 50.899609 110.59961 48.599609 C 109.69961 46.299609 109.9 43.8 111 41.5 C 111.5 40.6 111.40039 39.499609 110.90039 38.599609 C 110.40039 37.699609 109.5 37.199609 108.5 37.099609 C 106 36.999609 103.79922 35.800391 102.19922 33.900391 C 100.59922 32.000391 99.899219 29.599609 100.19922 27.099609 C 100.29922 26.099609 99.899609 25.100391 99.099609 24.400391 C 98.299609 23.700391 97.300781 23.500781 96.300781 23.800781 C 93.900781 24.500781 91.400781 24.2 89.300781 23 C 87.200781 21.8 85.599609 19.700781 85.099609 17.300781 C 84.899609 16.300781 84.199219 15.499219 83.199219 15.199219 C 82.199219 14.899219 81.200391 14.999609 80.400391 15.599609 C 78.400391 17.099609 76 17.699219 73.5 17.199219 C 71.1 16.799219 68.999609 15.400781 67.599609 13.300781 C 66.999609 12.500781 66 12 65 12 z M 106.09961 14.175781 C 105.32461 14.175781 104.55 14.45 104 15 C 103.4 15.6 103.09961 16.299609 103.09961 17.099609 C 103.09961 17.899609 103.4 18.699219 104 19.199219 C 104.6 19.799219 105.29961 20.099609 106.09961 20.099609 C 106.89961 20.099609 107.69922 19.699219 108.19922 19.199219 C 108.79922 18.599219 109.09961 17.899609 109.09961 17.099609 C 109.09961 16.299609 108.79922 15.5 108.19922 15 C 107.64922 14.45 106.87461 14.175781 106.09961 14.175781 z M 65.091797 32.398438 C 62.917773 32.40918 60.7125 32.637109 58.5 33.099609 C 56.9 33.399609 55.799219 34.999609 56.199219 36.599609 C 56.499219 38.199609 58.099219 39.300391 59.699219 38.900391 C 62.699219 38.300391 65.7 38.199609 68.5 38.599609 C 78.2 43.499609 84.800781 53.400391 84.800781 64.900391 C 84.800781 76.300391 78.199609 86.299219 68.599609 91.199219 C 54.799609 93.099219 41.600781 84.100781 38.800781 70.300781 C 38.400781 68.800781 36.899219 67.7 35.199219 68 C 33.599219 68.3 32.500391 69.9 32.900391 71.5 C 36.000391 86.8 49.700391 97.400391 64.900391 97.400391 C 67.100391 97.400391 69.3 97.199219 71.5 96.699219 C 89.2 93.099219 100.69961 75.800781 97.099609 58.300781 C 93.949609 42.900781 80.309961 32.323242 65.091797 32.398438 z M 21.417969 37.154297 C 21.032031 37.187109 20.650781 37.3 20.300781 37.5 C 18.800781 38.2 18.2 40.1 19 41.5 C 20.1 43.7 20.300391 46.199609 19.400391 48.599609 C 18.500391 50.899609 16.8 52.799219 14.5 53.699219 C 13.6 54.099219 12.899219 54.900391 12.699219 55.900391 C 12.499219 56.900391 12.899609 57.899609 13.599609 58.599609 C 15.399609 60.299609 16.400391 62.599609 16.400391 65.099609 C 16.400391 67.599609 15.399609 69.899609 13.599609 71.599609 C 12.899609 72.299609 12.499219 73.300781 12.699219 74.300781 C 12.899219 75.300781 13.5 76.1 14.5 76.5 C 16.8 77.5 18.500391 79.299609 19.400391 81.599609 C 20.300391 83.899609 20.1 86.399219 19 88.699219 C 18.3 90.099219 18.900781 91.899219 20.300781 92.699219 C 20.700781 92.899219 21.199609 93 21.599609 93 C 22.699609 93 23.800781 92.400391 24.300781 91.400391 C 26.100781 87.700391 26.4 83.399609 25 79.599609 C 24 76.999609 22.399219 74.7 20.199219 73 C 21.699219 70.7 22.5 67.899609 22.5 65.099609 C 22.5 62.299609 21.699219 59.599219 20.199219 57.199219 C 22.399219 55.499219 24.1 53.199609 25 50.599609 C 26.4 46.699609 26.100781 42.400781 24.300781 38.800781 C 23.775781 37.675781 22.575781 37.055859 21.417969 37.154297 z M 46.099609 54.175781 C 45.324609 54.175781 44.55 54.45 44 55 C 43.4 55.6 43.099609 56.299609 43.099609 57.099609 C 43.099609 57.899609 43.4 58.699219 44 59.199219 C 44.6 59.699219 45.299609 60.099609 46.099609 60.099609 C 46.899609 60.099609 47.699219 59.699219 48.199219 59.199219 C 48.799219 58.599219 49.099609 57.899609 49.099609 57.099609 C 49.099609 56.299609 48.799219 55.5 48.199219 55 C 47.649219 54.45 46.874609 54.175781 46.099609 54.175781 z M 28.640625 98.955078 C 27.46875 98.856641 26.325781 99.474609 25.800781 100.59961 L 20.099609 111.90039 C 19.499609 113.10039 19.799219 114.6 20.699219 115.5 C 21.799219 116.4 23.300391 116.60039 24.400391 115.90039 L 36.800781 108.30078 C 38.300781 107.40078 39.999609 107.30039 41.599609 107.90039 C 43.199609 108.60039 44.299219 109.89961 44.699219 111.59961 L 45 112.80078 C 45.2 113.80078 45.900391 114.60039 46.900391 114.90039 C 47.800391 115.20039 48.899219 115.1 49.699219 114.5 C 51.699219 113 54.099609 112.40039 56.599609 112.90039 C 58.999609 113.30039 61.1 114.70078 62.5 116.80078 C 63 117.50078 64 118 65 118 C 66 118 67 117.49961 67.5 116.59961 C 68.9 114.49961 71.000391 113.09922 73.400391 112.69922 C 75.800391 112.29922 78.300781 112.80078 80.300781 114.30078 C 81.100781 114.90078 82.199609 115.09922 83.099609 114.69922 C 84.099609 114.39922 84.8 113.59961 85 112.59961 C 85.6 110.19961 87.099219 108.20039 89.199219 106.90039 C 91.399219 105.70039 93.899219 105.39961 96.199219 106.09961 C 97.799219 106.59961 99.500391 105.69961 99.900391 104.09961 C 100.40039 102.49961 99.500391 100.80039 97.900391 100.40039 C 94.000391 99.200391 89.699609 99.700781 86.099609 101.80078 C 83.699609 103.20078 81.700391 105.29922 80.400391 107.69922 C 77.800391 106.69922 74.999219 106.40078 72.199219 106.80078 C 69.399219 107.30078 66.900781 108.60039 64.800781 110.40039 C 62.700781 108.60039 60.200391 107.30078 57.400391 106.80078 C 54.700391 106.30078 51.900391 106.59961 49.400391 107.59961 C 48.200391 105.19961 46.199219 103.30078 43.699219 102.30078 C 40.299219 100.90078 36.6 101.19961 33.5 103.09961 L 30.199219 105.09961 L 31.099609 103.30078 C 31.899609 101.80078 31.300781 100.00078 29.800781 99.300781 C 29.425781 99.100781 29.03125 98.987891 28.640625 98.955078 z"/></svg>