<?xml version="1.0"?><svg xmlns="http://www.w3.org/2000/svg" viewBox="0 0 128 128">    <path d="M 48 15 C 38.4 15 30.5 22.499609 30 32.099609 L 28.800781 55.800781 C 27.500781 56.500781 26.399219 57.699219 25.699219 59.199219 C 23.999219 62.799219 24.500391 68.100391 26.900391 71.400391 C 28.100391 73.100391 29.799219 74.299219 31.699219 74.699219 C 33.499219 79.599219 35.600781 83.899219 37.800781 87.699219 C 47.500781 104.19922 58.300391 106.59961 63.900391 106.59961 C 68.300391 106.59961 77.399609 105.00039 86.099609 93.400391 C 86.099609 93.300391 86.199219 93.299219 86.199219 93.199219 C 89.599219 88.699219 93 82.599609 96 74.599609 C 97.9 74.199609 99.600781 73.100781 100.80078 71.300781 C 103.20078 67.900781 103.7 62.699609 102 59.099609 C 101.3 57.599609 100.20039 56.399219 98.900391 55.699219 L 98 32.099609 C 97.5 22.499609 89.6 15 80 15 L 48 15 z M 48 21 L 80 21 C 86.4 21 91.7 26.000391 92 32.400391 L 93.099609 55 L 34.900391 55 L 36 32.400391 C 36.3 26.000391 41.6 21 48 21 z M 61 29.5 L 61 35.5 L 55 35.5 L 55 41.5 L 61 41.5 L 61 47.5 L 67 47.5 L 67 41.5 L 73 41.5 L 73 35.5 L 67 35.5 L 67 29.5 L 61 29.5 z M 31.800781 61 L 96.099609 61 C 96.299609 61 96.600781 61.099219 96.800781 61.699219 C 97.600781 63.299219 97.199609 66.300391 96.099609 67.900391 C 95.399609 68.800391 94.800781 68.900781 94.300781 68.800781 L 94.099609 68.800781 L 93.800781 68.800781 L 93.5 68.800781 C 93.4 68.800781 93.299219 68.800391 93.199219 68.900391 C 93.099219 68.900391 93 69 93 69 C 92.9 69 92.799219 69.099609 92.699219 69.099609 C 92.599219 69.099609 92.6 69.199219 92.5 69.199219 C 92.4 69.299219 92.299219 69.300391 92.199219 69.400391 C 92.099219 69.400391 92.1 69.5 92 69.5 L 91.699219 69.800781 C 91.599219 69.900781 91.599609 69.9 91.599609 70 C 91.499609 70.1 91.500391 70.200781 91.400391 70.300781 C 91.300391 70.400781 91.300781 70.499609 91.300781 70.599609 C 91.300781 70.699609 91.199219 70.700781 91.199219 70.800781 C 88.799219 77.500781 86.299219 82.599219 83.699219 86.699219 C 83.099219 85.899219 82.400781 85.100781 81.800781 84.300781 C 79.200781 81.100781 76.299609 77.5 73.099609 74.5 C 67.999609 69.5 60.000391 69.5 54.900391 74.5 C 51.800391 77.5 48.800781 81.100781 46.300781 84.300781 C 45.600781 85.100781 45.000391 85.899219 44.400391 86.699219 C 44.000391 86.099219 43.599219 85.399219 43.199219 84.699219 C 40.899219 80.799219 38.800391 76.100781 36.900391 70.800781 C 36.900391 70.700781 36.800781 70.699609 36.800781 70.599609 C 36.800781 70.499609 36.699219 70.400781 36.699219 70.300781 C 36.599219 70.200781 36.6 70.1 36.5 70 L 36.300781 69.800781 L 36.099609 69.599609 L 35.900391 69.400391 C 35.800391 69.300391 35.699609 69.299219 35.599609 69.199219 C 35.499609 69.199219 35.500391 69.099609 35.400391 69.099609 C 35.300391 69.099609 35.199609 69 35.099609 69 C 34.999609 69 34.900781 68.900391 34.800781 68.900391 C 34.700781 68.900391 34.6 68.900781 34.5 68.800781 L 34.199219 68.800781 L 33.800781 68.800781 L 33.599609 68.800781 C 33.099609 68.900781 32.500781 68.800391 31.800781 67.900391 C 30.700781 66.300391 30.299609 63.399219 31.099609 61.699219 C 31.399609 61.099219 31.600781 61 31.800781 61 z M 51.5 106.59961 C 51.4 106.59961 51.299219 106.59922 51.199219 106.69922 L 51.099609 106.69922 C 50.999609 106.69922 51.000391 106.70078 50.900391 106.80078 L 50.699219 106.80078 L 28.599609 115.80078 C 27.099609 116.40078 26.3 118.19922 27 119.69922 C 27.5 120.89922 28.600781 121.59961 29.800781 121.59961 C 30.200781 121.59961 30.600391 121.50039 30.900391 121.40039 L 50.099609 113.59961 C 52.899609 119.89961 57.900781 123.69922 63.800781 123.69922 C 69.700781 123.69922 74.7 119.89961 77.5 113.59961 L 96.699219 121.40039 C 97.099219 121.60039 97.500781 121.59961 97.800781 121.59961 C 99.000781 121.59961 100.09961 120.89922 100.59961 119.69922 C 101.49961 118.29922 100.69922 116.50039 99.199219 115.90039 L 77.099609 106.90039 C 75.599609 106.30039 73.799219 107 73.199219 108.5 C 73.199219 108.6 73.099609 108.70078 73.099609 108.80078 C 71.499609 114.30078 68.1 117.69922 64 117.69922 C 60 117.69922 56.500391 114.30078 54.900391 108.80078 C 54.900391 108.70078 54.900781 108.69961 54.800781 108.59961 L 54.800781 108.40039 C 54.800781 108.40039 54.799219 108.30078 54.699219 108.30078 C 54.699219 108.20078 54.599609 108.1 54.599609 108 C 54.599609 107.9 54.500391 107.80078 54.400391 107.80078 C 54.300391 107.70078 54.299219 107.59961 54.199219 107.59961 L 54 107.40039 L 53.800781 107.19922 C 53.700781 107.09922 53.599609 107.1 53.599609 107 C 53.499609 106.9 53.400781 106.90039 53.300781 106.90039 C 53.200781 106.90039 53.1 106.80078 53 106.80078 C 52.9 106.80078 52.799219 106.69922 52.699219 106.69922 C 52.599219 106.69922 52.500391 106.69961 52.400391 106.59961 L 52.099609 106.59961 L 51.800781 106.59961 L 51.5 106.59961 z"/></svg>