<svg xmlns="http://www.w3.org/2000/svg" viewBox="0 0 48 48"><path fill="#ef4754" d="M26.069,10.764c-0.03-2.146,1.515-4.037,3.334-5.176c2.054-1.286,4.546-1.858,6.956-1.596 c2.409,0.262,4.72,1.357,6.449,3.055c0.495,0.487,0.949,1.028,1.245,1.656c0.369,0.783,0.476,1.66,0.578,2.52 c0.117,0.983,0.233,1.978,0.099,2.959c-0.279,2.034-1.59,3.754-2.855,5.371c-0.537,0.686-1.094,1.39-1.849,1.825 c-1.436,0.828-3.239,0.51-4.839,0.078c-0.894-0.241-1.784-0.512-2.618-0.916c-3.595-1.741-5.616-5.688-6.502-9.583"/><path fill="#ef4754" d="M8.32,22.577c4.579,1.427,9.233-3.254,11.965-7.195c1.117-1.611,1.973-3.544,1.706-5.486 c-0.388-2.819-3.077-4.855-5.851-5.488c-2.487-0.568-5.168-0.249-7.452,0.886c-3.297,1.639-5.7,5.099-5.77,8.78 S5.915,21.828,8.32,22.577z"/><path fill="#fcbf95" d="M6.668,32.015c-0.638-0.534-1.649,0.391-2.222,0.994c-0.124,0.13-0.239,0.275-0.292,0.447 c-0.066,0.212-0.029,0.442,0.019,0.659c0.171,0.777,0.493,1.544,1.064,2.098s1.421,0.861,2.187,0.643 C7.423,36.857,7.43,32.653,6.668,32.015z"/><path fill="#fcbf95" d="M41.178,33.144c-0.197-0.711,1.512-0.054,2.116,0.369s0.986,1.172,0.903,1.905 c-0.098,0.866-0.781,1.551-1.508,2.03c-0.405,0.267-0.847,0.497-1.327,0.566c-0.726,0.105-1.207-0.03-1.89-0.297 C39.472,37.717,41.809,35.42,41.178,33.144z"/><path fill="#fcbf95" d="M7.529,21.528c0.799-4.269,4.133-8.023,8.129-9.723c1.416-0.602,2.943-0.892,4.461-1.141 c2.606-0.427,5.31-0.745,7.862-0.065c1.459,0.389,2.813,1.09,4.153,1.786c1.292,0.671,2.594,1.348,3.715,2.277 c2.127,1.761,3.467,4.33,4.19,6.995c0.723,2.665,0.878,5.448,0.98,8.208c0.051,1.369,0.088,2.757-0.228,4.09 c-0.756,3.189-3.478,5.631-6.519,6.853s-6.388,1.406-9.664,1.453c-2.257,0.032-4.517,0.007-6.766-0.191 c-2.558-0.226-5.22-0.731-7.218-2.344c-1.975-1.595-3.045-4.098-3.412-6.61c-0.367-2.512-0.105-5.068,0.157-7.593 C7.514,24.147,7.345,22.51,7.529,21.528z"/><path fill="#010101" d="M23.277,32.986c-0.102,0-0.204-0.03-0.292-0.095c-0.225-0.161-0.275-0.474-0.113-0.697 c0.328-0.455,0.861-0.751,1.464-0.812c0.602-0.065,1.184,0.122,1.596,0.503c0.203,0.187,0.216,0.503,0.028,0.706 c-0.187,0.204-0.503,0.217-0.706,0.028c-0.201-0.186-0.498-0.277-0.817-0.242c-0.318,0.031-0.593,0.178-0.754,0.4 C23.584,32.914,23.432,32.986,23.277,32.986z"/><path fill="#d6ffff" d="M37.069,27.038c-0.72-1.046-2.103-1.404-3.372-1.452c-1.637-0.063-3.451,0.361-4.39,1.703 c-0.544,0.778-0.718,1.78-0.575,2.719c0.143,0.938,0.583,1.814,1.164,2.565c0.383,0.494,0.843,0.951,1.418,1.195 c0.52,0.221,1.098,0.254,1.662,0.283c0.986,0.052,2.05,0.084,2.871-0.465c0.517-0.346,0.872-0.885,1.155-1.438 c0.478-0.936,0.791-1.979,0.73-3.028c-0.061-1.049-0.532-2.101-1.381-2.719"/><path fill="#d6ffff" d="M19.453,27.821c-0.038-0.95-1.05-1.532-1.959-1.808c-1.476-0.448-3.109-0.572-4.535,0.014 c-1.426,0.586-2.573,2-2.519,3.541c0.015,0.423,0.116,0.84,0.259,1.239c0.546,1.522,1.778,2.827,3.332,3.275 s3.39-0.069,4.342-1.376c0.649-0.89,0.85-2.025,0.957-3.121C19.41,28.754,19.453,27.821,19.453,27.821z"/><path fill="#ef4754" d="M7.662,21.767c0.76-3.317,3.036-6.181,5.903-8.013s6.284-2.69,9.683-2.841 c3.548-0.158,7.18,0.45,10.305,2.137c0.838,0.453,1.644,0.986,2.296,1.682c0.867,0.926,2.275,2.154,2.816,3.301 c0.481,1.019,0.109,1.978,0.589,2.997c0.21,0.445,0.42,0.969,0.199,1.408c-0.272,0.539,0.45-0.577-0.151-0.627 c-2.291-0.19-7.177-1.902-9.426-2.38c-2.183-0.465-4.471-3.988-5.603-3.676c-1.407,0.387-4.931,3.536-7.029,4.033 c-2.431,0.575-4.899,1.384-7.49,2.321c-0.684,0.247-1.197,1.179-1.805,0.78s-0.666-1.543,0.037-1.729"/><path fill="#ef4754" d="M25.581,36.444c-0.389-0.451-1.01-0.691-1.601-0.617c-0.591,0.073-1.135,0.458-1.401,0.99 c-0.149,0.298-0.212,0.66-0.075,0.964c0.114,0.253,0.35,0.434,0.605,0.544c0.549,0.237,1.226,0.17,1.699-0.197 c0.473-0.366,0.708-1.025,0.544-1.601"/><path fill="#010101" d="M23.749,38.965c-0.299,0-0.601-0.06-0.882-0.181c-0.402-0.173-0.71-0.456-0.863-0.798 c-0.184-0.411-0.152-0.919,0.085-1.394c0.343-0.685,1.028-1.168,1.787-1.262c0.762-0.098,1.542,0.207,2.041,0.787 c0.18,0.209,0.156,0.524-0.053,0.705c-0.002,0.002-0.004,0.003-0.006,0.005c0.025,0.64-0.268,1.294-0.788,1.696 C24.697,38.814,24.226,38.965,23.749,38.965z M24.151,36.314c-0.051,0-0.102,0.003-0.151,0.009 c-0.425,0.053-0.823,0.335-1.016,0.718c-0.101,0.199-0.126,0.405-0.067,0.536c0.05,0.11,0.176,0.216,0.347,0.288 c0.392,0.17,0.875,0.118,1.195-0.132c0.32-0.247,0.476-0.696,0.37-1.068c-0.018-0.059-0.022-0.119-0.018-0.177 C24.61,36.376,24.379,36.314,24.151,36.314z"/><path d="M38.939,26.08c-0.678-0.354-0.989-0.407-1.689-0.505c-0.559-0.078-1.045-0.171-1.498-0.257 c-0.503-0.095-0.984-0.175-1.476-0.228c-0.144-0.024-0.289-0.038-0.435-0.048c0,0-0.001,0-0.001,0 c-0.041-0.003-0.082-0.011-0.123-0.012c-0.746-0.026-1.44,0.047-2.073,0.198c-0.002,0-0.003,0-0.005,0.001 c0,0-0.001,0-0.001,0.001c-1.187,0.286-2.146,0.869-2.739,1.716c-0.59,0.842-0.83,1.965-0.66,3.081 c0.144,0.946,0.58,1.913,1.263,2.796c0.515,0.664,1.045,1.105,1.619,1.349c0.609,0.259,1.259,0.293,1.831,0.322 c0.259,0.014,0.545,0.029,0.845,0.029c0.765,0,1.617-0.1,2.33-0.577c0.67-0.447,1.076-1.143,1.322-1.626 c0.581-1.139,0.845-2.243,0.783-3.285c-0.053-0.916-0.385-1.769-0.929-2.44c0.486,0.072,0.706,0.128,1.174,0.373 c0.074,0.038,0.153,0.057,0.231,0.057c0.18,0,0.354-0.098,0.443-0.269C39.279,26.511,39.184,26.208,38.939,26.08z M36.557,31.864 c-0.312,0.611-0.625,1.008-0.987,1.25c-0.662,0.442-1.556,0.436-2.566,0.381c-0.515-0.027-1.046-0.055-1.493-0.244 c-0.413-0.176-0.812-0.516-1.219-1.041c-0.578-0.748-0.947-1.556-1.065-2.334c-0.131-0.864,0.048-1.724,0.49-2.356 c0.458-0.654,1.138-1.028,1.824-1.238c-0.653,0.492-1.14,1.195-1.312,1.981c-0.227,1.038,0.121,2.191,0.929,2.9 c1.026,0.9,2.62,0.976,3.895,0.461c0.982-0.396,1.853-1.172,2.172-2.145C37.198,30.231,36.983,31.03,36.557,31.864z"/><path d="M18.233,25.71c-0.05-0.034-0.105-0.062-0.167-0.076c-0.031-0.007-0.062-0.009-0.093-0.016 c-0.084-0.03-0.163-0.063-0.252-0.089c-0.964-0.292-2.279-0.539-3.626-0.332c-1.278,0.007-2.554,0.152-3.794,0.442 c-0.269,0.063-0.436,0.332-0.372,0.602c0.054,0.23,0.259,0.386,0.486,0.386c0.037,0,0.076-0.004,0.114-0.013 c0.273-0.064,0.552-0.095,0.828-0.144c-0.927,0.844-1.491,2-1.45,3.168c0.017,0.445,0.112,0.906,0.293,1.41 c0.633,1.766,2.058,3.16,3.718,3.639c0.432,0.124,0.873,0.184,1.311,0.184c1.438,0,2.826-0.645,3.645-1.769 c0.745-1.023,0.956-2.302,1.065-3.417c0.083-0.855,0.126-1.817,0.126-1.817l0.001-0.042C20.03,26.931,19.37,26.179,18.233,25.71z M18.065,32.512c-0.812,1.114-2.438,1.626-3.869,1.213c-1.357-0.392-2.527-1.547-3.054-3.016 c-0.146-0.405-0.223-0.768-0.234-1.108c-0.044-1.253,0.902-2.563,2.25-3.117c0.09-0.037,0.181-0.063,0.271-0.094 c-0.54,0.477-0.949,1.094-1.101,1.788c-0.227,1.038,0.121,2.191,0.929,2.9c1.026,0.9,2.62,0.976,3.895,0.461 c0.669-0.27,1.283-0.719,1.71-1.284C18.745,31.05,18.535,31.867,18.065,32.512z"/><path fill="#010101" d="M42.258,20.041c1.184-1.507,2.657-3.383,2.965-5.606c0.146-1.05,0.025-2.085-0.092-3.086 c-0.1-0.848-0.212-1.81-0.619-2.675c-0.283-0.605-0.711-1.178-1.344-1.802c-1.814-1.787-4.208-2.926-6.74-3.206 c-2.533-0.28-5.117,0.309-7.277,1.658c-1.962,1.224-3.223,2.956-3.511,4.757c-1.006-0.059-2.008-0.02-2.984,0.076 c-0.001-0.007,0.002-0.013,0.001-0.019C22.21,6.889,19.182,4.55,16.421,3.92c-2.618-0.598-5.384-0.27-7.786,0.926 c-3.546,1.763-5.977,5.467-6.047,9.218c-0.062,3.269,2.161,6.739,4.381,8.282c-0.035,0.453-0.036,0.963-0.034,1.498 c0.001,0.662,0.003,1.346-0.062,1.967c-0.193,1.86-0.388,3.765-0.328,5.673c-0.636-0.11-1.421,0.321-2.347,1.293 c-0.133,0.139-0.319,0.356-0.409,0.646c-0.098,0.316-0.055,0.625,0.008,0.913C4.015,35.331,4.42,36.122,5,36.685 c0.565,0.549,1.313,0.854,2.028,0.854c0.22,0,0.437-0.028,0.644-0.088l0.233-0.066c0.618,1.233,1.428,2.28,2.407,3.07 c2.207,1.782,5.161,2.247,7.488,2.453c1.577,0.139,3.246,0.205,5.271,0.205c0.493,0,1.007-0.004,1.546-0.012 c3.083-0.045,6.641-0.201,9.844-1.489c2.012-0.809,3.688-2.038,4.907-3.507c0.422,0.156,0.846,0.274,1.361,0.274 c0.167,0,0.345-0.012,0.534-0.039c0.634-0.092,1.178-0.411,1.531-0.644c1.032-0.682,1.631-1.509,1.729-2.392 c0.102-0.895-0.335-1.824-1.112-2.37c-0.167-0.118-1.099-0.648-1.869-0.747c0.018-0.645,0.004-1.306-0.022-2.002 c-0.105-2.836-0.261-5.606-0.997-8.319c-0.005-0.017-0.011-0.033-0.015-0.05C41.228,21.328,41.777,20.653,42.258,20.041z M26.531,11.172c0.445,0.059,0.887,0.135,1.322,0.25c1.411,0.376,2.754,1.073,4.052,1.747c1.249,0.648,2.541,1.319,3.626,2.218 c2.039,1.689,3.167,4.026,3.783,5.925c-3.009-0.372-5.536-0.816-7.94-1.726c-2.776-1.051-4.996-2.641-6.449-4.599 C25.684,13.837,26.269,12.474,26.531,11.172z M25.528,11.079c-0.389,1.812-1.448,3.741-2.692,4.86 c-1.513,1.363-3.469,2.132-5.361,2.876L7.958,22.56c0.013-0.22,0.03-0.428,0.062-0.6c0.745-3.975,3.82-7.647,7.834-9.355 c1.393-0.592,2.911-0.872,4.347-1.107C21.863,11.225,23.706,10.979,25.528,11.079z M3.588,14.083 c0.063-3.388,2.271-6.74,5.492-8.341c2.166-1.076,4.761-1.385,7.118-0.847c2.782,0.635,5.13,2.946,5.467,5.375 c-0.556,0.073-1.101,0.155-1.627,0.242c-1.496,0.245-3.081,0.538-4.575,1.174c-4.131,1.757-7.331,5.464-8.303,9.545 C5.324,19.742,3.537,16.791,3.588,14.083z M7.033,36.54c-0.435,0.012-0.953-0.201-1.335-0.572 c-0.438-0.425-0.748-1.046-0.924-1.845c-0.033-0.153-0.06-0.309-0.03-0.404c0.027-0.087,0.114-0.186,0.178-0.252 c0.742-0.78,1.192-0.992,1.411-0.992c0.058,0,0.1,0.015,0.127,0.037c0.066,0.06,0.129,0.21,0.189,0.414 c0.022,0.2,0.04,0.401,0.07,0.601c0.056,0.38,0.127,0.751,0.21,1.114C6.984,35.223,7.022,35.872,7.033,36.54z M42.837,33.753 c0.474,0.333,0.752,0.911,0.692,1.439c-0.082,0.732-0.744,1.312-1.285,1.668c-0.435,0.286-0.792,0.441-1.124,0.489 c-0.355,0.051-0.639,0.037-0.946-0.037c0.66-0.831,1.676-2.427,1.395-4.114C41.935,33.289,42.508,33.521,42.837,33.753z M40.52,30.223c0.035,0.913,0.046,1.761-0.017,2.575c-0.003,0.032-0.008,0.063-0.007,0.097c-0.037,0.437-0.091,0.866-0.19,1.284 c-0.656,2.771-2.981,5.203-6.219,6.505c-3.044,1.225-6.492,1.373-9.484,1.417c-2.72,0.041-4.787-0.02-6.715-0.189 c-2.186-0.193-4.951-0.622-6.947-2.234c-1.445-1.167-2.489-2.973-3.009-5.156c-0.059-0.611-0.151-1.215-0.29-1.716 c-0.246-2.279-0.009-4.62,0.226-6.891c0.07-0.674,0.069-1.385,0.067-2.073c0-0.068,0-0.133,0-0.201 c0.006-0.002,0.012-0.001,0.018-0.003l9.887-3.892c1.883-0.74,4.017-1.58,5.664-3.063c0.279-0.251,0.545-0.546,0.803-0.86 c1.567,2.002,3.869,3.624,6.713,4.701c2.735,1.035,5.694,1.488,8.484,1.825c0.021,0.002,0.04,0.003,0.061,0.003 c0.014,0,0.026-0.006,0.039-0.007C40.265,24.888,40.42,27.523,40.52,30.223z M40.201,20.813c-0.874-2.595-2.253-4.724-4.033-6.197 c-1.167-0.966-2.507-1.662-3.803-2.335c-1.347-0.699-2.738-1.421-4.255-1.825c-0.488-0.13-0.981-0.214-1.476-0.28 c0.306-1.727,1.711-3.173,3.045-4.005c1.972-1.231,4.332-1.768,6.639-1.512c2.31,0.255,4.493,1.293,6.147,2.924 c0.546,0.539,0.909,1.02,1.142,1.515c0.337,0.718,0.435,1.556,0.529,2.366c0.11,0.939,0.225,1.909,0.096,2.833 c-0.271,1.955-1.594,3.64-2.762,5.126C41.081,19.92,40.679,20.426,40.201,20.813z"/></svg>