<svg xmlns="http://www.w3.org/2000/svg" viewBox="0 0 24 24"><path d="M 12 0 C 5.363281 0 0 5.363281 0 12 C 0 18.636719 5.363281 24 12 24 C 18.636719 24 24 18.636719 24 12 C 24 5.363281 18.636719 0 12 0 Z M 12 2 C 17.566406 2 22 6.433594 22 12 C 22 17.566406 17.566406 22 12 22 C 6.433594 22 2 17.566406 2 12 C 2 6.433594 6.433594 2 12 2 Z M 8 7 C 6.894531 7 6 8.34375 6 10 C 6 11.65625 6.894531 13 8 13 C 9.105469 13 10 11.65625 10 10 C 10 8.34375 9.105469 7 8 7 Z M 16 7 C 14.894531 7 14 8.34375 14 10 C 14 11.65625 14.894531 13 16 13 C 17.105469 13 18 11.65625 18 10 C 18 8.34375 17.105469 7 16 7 Z M 12 14 C 9.5 14 8.09375 16.695313 8.09375 17.59375 C 8.09375 18.492188 9.300781 20 12 20 C 14.699219 20 15.90625 18.59375 15.90625 17.59375 C 15.90625 16.695313 14.5 14 12 14 Z"/></svg>