<svg xmlns="http://www.w3.org/2000/svg" viewBox="0 0 100 100"><path fill="#fff" d="M20.2 56.1A.9.9 0 1 0 20.2 57.9.9.9 0 1 0 20.2 56.1zM79.3 31.400000000000002A.7.7 0 1 0 79.3 32.800000000000004.7.7 0 1 0 79.3 31.400000000000002z"/><path fill="#f1bc19" d="M76.6 12.2A.9.9 0 1 0 76.6 14 .9.9 0 1 0 76.6 12.2zM20.7 63.699999999999996A.9.9 0 1 0 20.7 65.5.9.9 0 1 0 20.7 63.699999999999996z"/><path fill="#f9dbd2" d="M49.5 12.799999999999997A37.5 37.5 0 1 0 49.5 87.8A37.5 37.5 0 1 0 49.5 12.799999999999997Z"/><path fill="#f1bc19" d="M82.1 11.2A4 4 0 1 0 82.1 19.2A4 4 0 1 0 82.1 11.2Z"/><path fill="#ee3e54" d="M86.1 22.400000000000002A1.9 1.9 0 1 0 86.1 26.2A1.9 1.9 0 1 0 86.1 22.400000000000002Z"/><path fill="#fbcd59" d="M77.1 74.8A1.9 1.9 0 1 0 77.1 78.60000000000001 1.9 1.9 0 1 0 77.1 74.8zM13.9 59.8A4 4 0 1 0 13.9 67.8 4 4 0 1 0 13.9 59.8z"/><path fill="#ee3e54" d="M24.2 86A1.9 1.9 0 1 0 24.2 89.80000000000001A1.9 1.9 0 1 0 24.2 86Z"/><path fill="#fff" d="M75.8 28.8A1.8 1.8 0 1 0 75.8 32.4 1.8 1.8 0 1 0 75.8 28.8zM17.7 49.2A2.5 2.5 0 1 0 17.7 54.2 2.5 2.5 0 1 0 17.7 49.2z"/><path fill="#e5ac80" d="M68,71.5c-0.4-2.2-1.3-3.4-3.3-4l-0.3-0.1l-0.6-0.2c-1.3-0.5-8.7-3.3-8.7-3.3 c-0.6-0.1-1-0.5-1.2-1.1c-0.2-0.9-0.3-1.9-0.2-2.9c-1.6,0.6-3.3,1-5,1.4c-1.9,0.2-6-2.3-6-2.3s-0.1,3-0.2,3.7 c-0.2,0.6-0.7,1-1.3,1.1l-7.1,2.6c-0.8,0.2-1.5,0.5-2.2,0.9c-1.5,1-2.6,2.4-3.2,4.2c0,0-0.5,3.3-0.5,3.4c0,0.5,0.1,5.6,0.1,6.2 c7.8,5.3,14,6.7,24.7,6.3c4.9-0.2,12.1-2.6,15.9-4.5C68.6,78.6,68,71.5,68,71.5z"/><path fill="#fdfcef" d="M68,71.5c-0.4-2.2-1.3-3.4-3.3-4c-0.1,0-0.2-0.1-0.3-0.1l-0.6-0.2c-0.7-0.3-7.3-2.6-9.5-3.4 l-0.1,0.1l0.1-0.1c-0.1,0.1,0,0.3,0,0.5c-0.7,4.4-4.8,11.3-6.4,14l0,0c0-0.1-0.1-0.2-0.1-0.3c-0.5-1.3-4.1-6.5-4.5-7.6 c-0.6-2.1-0.9-4.3-0.9-6.5L42,63.6l-3.2,1.2l0,0l-0.3,0.1L34,66.5c-0.8,0.2-1.5,0.5-2.2,0.9c-1.5,1-2.6,2.4-3.2,4.2 c0,0-0.5,3.3-0.5,3.4c0,0.5-0.1,5.4-0.1,6c7.8,5.3,14,6.7,24.7,6.3c4.9-0.2,12.1-2.6,15.9-4.5C68.4,78.5,68,71.5,68,71.5z"/><path fill="#e1e0d8" d="M34.8 85.2c-.2 0-.3-.1-.3-.3v-4c0-.2.1-.3.3-.3s.3.1.3.3v4C35.1 85.1 35 85.2 34.8 85.2zM61.1 85.9c-.2 0-.3-.1-.3-.3V81c0-.2.1-.3.3-.3s.3.1.3.3v4.6C61.4 85.8 61.3 85.9 61.1 85.9z"/><path fill="#edbc94" d="M60.5,45.2h-0.4c-1,0-1.2,0.3-1.2-0.3c0.1-1-0.1-5.3-0.1-5.5c0-4.4-4.7-8-10.5-8.2l0,0h-0.2l0,0 c-5.8,0.2-10.5,3.8-10.5,8.2c0,0.2-0.1,4.5-0.1,5.5c0,0.6-0.2,0.2-1.2,0.3h-0.4c-1,0-1.8,0.6-2.1,1.6c0.1,0.1,0.6,3.7,1.4,5.1 c0.4,0.8,1.1,0.9,1.8,1.4c0.3,0.2,0.5,0.6,0.6,1c0.5,1.6,1.4,2.9,2.7,4c0.6,0.6,4.5,4.7,7.9,4.5s7.3-3.9,7.9-4.5 c1.2-1.1,2.2-2.4,2.7-4c0.1-0.4,0.3-0.8,0.6-1c0.7-0.5,1.4-0.6,1.8-1.4c0.8-1.4,1.3-5,1.4-5.1C62.3,45.8,61.5,45.2,60.5,45.2z"/><path fill="#512c2b" d="M48.2 53c.7 0 1.3-.3 1.8-.8 0 0 0-.1 0-.2 0 0 0 0 0 0l0 0c0 0-.1 0-.2 0 0 0 0 0 0 0-.9.8-2.3.8-3.2 0 0 0-.1 0-.1 0 0 0-.1 0-.1 0 0 0 0 .1 0 .2 0 0 0 0 0 0C46.9 52.7 47.5 53 48.2 53zM46 42.8l.4-.8c-1.9-.4-3.8-.4-5.7.2l.5.8C42.8 42.5 44.4 42.4 46 42.8zM55.2 42.8l.4-.8c-1.9-.4-3.8-.4-5.7.2l.5.8C52 42.5 53.6 42.4 55.2 42.8zM43.3 44c-.5 0-.9.3-1 .7h.2c.4 0 .7.3.7.7 0 .4-.3.7-.7.7-.1 0-.2 0-.3-.1.1.6.6 1.1 1.2 1.2.9-.2 1.4-1.1 1.2-2C44.4 44.6 44 44.2 43.3 44L43.3 44zM52.9 44c-.4 0-.7.2-.9.5.1 0 .2 0 .2 0 .4 0 .7.3.7.7 0 .4-.3.7-.7.7-.2 0-.4-.1-.5-.3.2.7.9 1.1 1.6.9.7-.2 1.1-.9.9-1.6C54 44.4 53.5 44 52.9 44z"/><path fill="#d3a47d" d="M60.4 49.9l-.6-.1L60 48l-1 .4-.2-.6 1.5-.6c.1 0 .2 0 .3 0 .1.1.1.2.1.3L60.4 49.9zM36.2 49.5l-.3-2.3c0-.1 0-.2.1-.3.1-.1.2-.1.3 0l1.5.6-.2.6-1-.4.2 1.8L36.2 49.5z"/><path fill="#472b29" d="M37.5 54C37.5 54 37.5 54 37.5 54c-.1 0-.2-.1-.2-.2l.2-8.6c0-.1.1-.2.2-.2 0 0 0 0 0 0 .1 0 .2.1.2.2l-.2 8.6C37.7 53.9 37.6 54 37.5 54zM58.9 54c-.1 0-.2-.1-.2-.2l-.2-8.6c0-.1.1-.2.2-.2 0 0 0 0 0 0 .1 0 .2.1.2.2l.2 8.6C59.1 53.9 59 54 58.9 54 58.9 54 58.9 54 58.9 54z"/><path fill="#6d1b18" d="M44.7,55.4c0,0.2-0.1,0.3-0.1,0.5c0,1.4,1.5,2.5,3.4,2.5s3.4-1.1,3.4-2.5c0-0.2,0-0.3-0.1-0.5 H44.7z"/><path fill="#ee3e54" d="M49.9,58c-0.5-0.4-1.2-0.6-1.8-0.6c-0.7,0-1.3,0.2-1.8,0.6c0.6,0.3,1.2,0.4,1.8,0.4 C48.7,58.4,49.3,58.3,49.9,58z"/><path fill="#fdfcef" d="M45.7,55.4L45.7,55.4v0.4c0,0.4,0.5,0.7,1.1,0.7h2.6c0.6,0,1.1-0.3,1.1-0.7v-0.4l0,0H45.7z"/><path fill="#472b29" d="M48.1,58.6c-2,0-3.6-1.2-3.6-2.7c0-0.2,0-0.4,0.1-0.5c0-0.1,0.1-0.1,0.2-0.1h6.7 c0.1,0,0.2,0.1,0.2,0.1c0,0.2,0.1,0.3,0.1,0.5C51.7,57.3,50.1,58.6,48.1,58.6z M44.9,55.6c0,0.1,0,0.2,0,0.3 c0,1.3,1.5,2.3,3.2,2.3s3.2-1,3.2-2.3c0-0.1,0-0.2,0-0.3H44.9z"/><path fill="#dd314e" d="M53.5,62c0,0-6.6,7.3-6.9,13.2c-0.1,1.4,1.7,3.4,1.7,3.4"/><path fill="#ee3e54" d="M42.6,62c0,0,6.6,7.3,6.9,13.2c0.1,1.4-1.7,3.4-1.7,3.4l-6.4-15.1L42.6,62z"/><path fill="#e1e0d8" d="M59.1,61.4c-0.1-0.2-0.3-0.3-0.5-0.3c-3.8,0.7-5.3,1-5.3,1c-0.2,0-0.4,0.2-0.4,0.4 C51.6,67.6,50,72.7,48,77.6c-2-4.9-3.7-9.9-4.9-15.1c0-0.2-0.2-0.4-0.4-0.4c0,0-1.6-0.3-5.3-1c-0.2,0-0.4,0.1-0.5,0.3 c-0.1,0.2-0.1,0.4,0.1,0.6l4.3,5L40,66.7c-0.2-0.1-0.4,0-0.5,0.2c-0.1,0.2-0.1,0.4,0,0.6l8,11.4c0.1,0.1,0.2,0.2,0.4,0.2 c0,0,0.1,0,0.1-0.1c0,0,0.1,0,0.1,0c0.2,0,0.3-0.1,0.4-0.2l8-11.4c0.1-0.2,0.1-0.4,0-0.6c-0.1-0.2-0.3-0.3-0.5-0.2L54.7,67l4.3-5 C59.2,61.8,59.3,61.6,59.1,61.4z"/><path fill="#472b29" d="M49.4,87.9c-8.9,0-14.6-1.8-21.5-6.4c-0.1-0.1-0.2-0.2-0.2-0.4c0-0.1,0-0.5,0-1.1 c0-2.2,0.1-6.7,0.6-8.4c0.4-1.9,1.6-3.5,3.4-4.4c0.7-0.4,1.5-0.7,2.3-0.9l4.7-1.7l-2-2.3c-0.2-0.3-0.3-0.7-0.1-1 c0.2-0.3,0.6-0.5,0.9-0.5c2.2,0.4,3.7,0.7,4.5,0.8l0.2,0c0-0.3,0-0.6,0-0.8c-0.7-0.5-1.5-1.1-2.1-1.6c-1.3-1.2-2.3-2.7-2.8-4.3 c-0.1-0.4-0.2-0.6-0.4-0.8c-0.2-0.2-0.4-0.3-0.6-0.4c-0.5-0.3-0.9-0.5-1.3-1.2c-0.8-1.7-1.3-3.5-1.4-5.4c0-0.1,0-0.1,0-0.1 c0.3-1.1,1.3-1.9,2.5-1.9h0.4c0.3,0,0.6,0,0.8,0.1c-0.1-1,0-3.8,0.1-5c0-0.3,0-0.5,0-0.5c0-4.7,4.8-8.6,10.9-8.8h0.2 c6.1,0.2,10.9,4.1,10.9,8.8c0,0,0,0.2,0,0.5c0,1.2,0.1,4.1,0.1,5c0.2,0,0.5-0.1,0.8-0.1h0.4c1.2,0,2.2,0.8,2.5,1.9 c0,0,0,0.1,0,0.1c-0.2,1.9-0.6,3.7-1.4,5.4c-0.4,0.7-0.8,0.9-1.3,1.2c-0.2,0.1-0.4,0.2-0.6,0.4c-0.2,0.2-0.4,0.4-0.4,0.7 c-0.5,1.7-1.5,3.2-2.8,4.4c-0.7,0.6-1.5,1.2-2.3,1.8c0,0.2,0,0.4,0,0.7l0.4-0.1c0.9-0.2,2.2-0.4,4.2-0.7c0.4-0.1,0.7,0.1,0.9,0.4 c0.2,0.3,0.2,0.7,0,1l-2,2.3c2.3,0.8,5.7,2.1,6.5,2.5l0.9,0.4c2.1,0.6,3.1,1.9,3.6,4.3c0,0,0,0,0,0.1c0,0,0.4,6.9,0.5,11.2 c0,0.2-0.1,0.3-0.2,0.4c-4,2-11.3,4.4-16.1,4.6C51.6,87.8,50.5,87.9,49.4,87.9z M28.5,80.9c7.5,5,13.6,6.5,24.3,6.1 c4.5-0.2,11.5-2.4,15.5-4.4c-0.2-4.1-0.5-10.4-0.5-10.9c-0.4-2.1-1.3-3.1-3.1-3.7l-1-0.4c-0.9-0.4-4.8-1.8-7-2.6 c-0.1,0-0.2-0.1-0.2-0.3c0-0.1,0-0.3,0.1-0.4l2.3-2.7c0,0,0,0,0-0.1c0-0.1-0.1-0.1-0.1-0.1c-2,0.3-3.3,0.6-4.2,0.7l-0.8,0.1 c-0.1,0-0.2,0-0.3-0.1s-0.1-0.2-0.2-0.3c0-0.5,0-0.9,0-1.4c0-0.1,0.1-0.2,0.2-0.3c0.8-0.6,1.6-1.2,2.4-1.8c1.2-1.1,2.1-2.4,2.6-4 c0.1-0.4,0.3-0.9,0.7-1.2c0.3-0.2,0.5-0.3,0.7-0.5c0.4-0.2,0.7-0.4,1-0.9c0.7-1.6,1.2-3.3,1.3-5c-0.3-0.7-0.9-1.2-1.7-1.2h-0.3 c-0.3,0-0.5,0-0.7,0.1c-0.3,0-0.5,0.1-0.7-0.1c-0.2-0.2-0.2-0.5-0.2-0.6c0.1-0.8,0-3.9-0.1-5.1c0-0.3,0-0.5,0-0.5 c0-4.3-4.4-7.8-10.1-8h-0.2c-5.6,0.2-10.1,3.7-10.1,8c0,0,0,0.2,0,0.5c0,1.2-0.1,4.2-0.1,5.1c0,0.1,0,0.4-0.2,0.6 c-0.2,0.2-0.4,0.1-0.7,0.1c-0.2,0-0.4-0.1-0.7-0.1l-0.4,0c-0.8,0-1.4,0.5-1.7,1.2c0.2,1.7,0.6,3.4,1.3,5c0.2,0.4,0.6,0.6,1,0.8 c0.2,0.1,0.5,0.3,0.7,0.5c0.4,0.3,0.6,0.8,0.7,1.3c0.5,1.5,1.3,2.8,2.5,3.9c0.7,0.6,1.5,1.2,2.2,1.7c0.1,0.1,0.2,0.2,0.2,0.3 c0,0.5,0,1.1-0.1,1.6c0,0.1-0.1,0.2-0.2,0.3c-0.1,0.1-0.2,0.1-0.3,0.1l-0.6-0.1c-0.8-0.2-2.3-0.4-4.5-0.8c0,0-0.1,0-0.1,0.1 c0,0,0,0.1,0,0.1l2.4,2.8c0.1,0.1,0.1,0.2,0.1,0.4c0,0.1-0.1,0.2-0.3,0.3L34.2,67c-0.8,0.2-1.5,0.5-2.1,0.9 c-1.6,0.8-2.6,2.2-3,3.9c-0.5,1.7-0.5,6.3-0.6,8.2C28.5,80.4,28.5,80.7,28.5,80.9z"/><path fill="#ee3e54" d="M40 62.5A.5.5 0 1 0 40 63.5.5.5 0 1 0 40 62.5zM41.3 64.5A.5.5 0 1 0 41.3 65.5.5.5 0 1 0 41.3 64.5zM41.6 67.8A.5.5 0 1 0 41.6 68.8.5.5 0 1 0 41.6 67.8zM42.8 69.8A.5.5 0 1 0 42.8 70.8.5.5 0 1 0 42.8 69.8zM44.1 71.6A.5.5 0 1 0 44.1 72.6.5.5 0 1 0 44.1 71.6zM56.1 62.5A.5.5 0 1 0 56.1 63.5.5.5 0 1 0 56.1 62.5zM54.8 64.5A.5.5 0 1 0 54.8 65.5.5.5 0 1 0 54.8 64.5zM54.6 67.8A.5.5 0 1 0 54.6 68.8.5.5 0 1 0 54.6 67.8zM53.3 69.8A.5.5 0 1 0 53.3 70.8.5.5 0 1 0 53.3 69.8zM52 71.6A.5.5 0 1 0 52 72.6.5.5 0 1 0 52 71.6z"/><path fill="#512c2b" d="M38.3,43.1c0,3.6-0.3,4.5,0,5.8s0.9,4,1.4,4.5s-1.7-0.1-2-1.1s-0.2-4.3-0.8-5.7s-3.7-6.1-2.9-9.9 c0.5-2.6,0.5-0.5,1,0.4c-0.5-1.9-0.2-3.8,0.6-5.5c1.4-2.9,5.2-5.5,8-5.7s8.5,0,9.3-2.2c0.3-0.6,0.5-1.2,0.5-1.8 c0.3,0.7,0.5,1.4,0.5,2.1c-0.2,0.9,1.4-0.9,1.2-1.8s0.6,1.2,0.3,2s1.4-1,1.1-1.8s2.9,2.3,2.7,4.6s-0.4,3.4-0.8,3.9s1,0.1,1.1-0.6 s1.8,2.8,2.3,4.8c0.6,2,0.4,4.1-0.6,5.9c-1,1.8-1.6,2.2-1.9,4.5c-0.3,2-0.4,4-0.5,6c0.1,0.9-1.7,1.8-1.7,1.8 c0.5-1.5,0.8-3.1,0.7-4.6c-0.1-2.6,0.8-6.4-1.1-8.9s-5.7-0.6-6.6-0.5s-3,0.2-3.8-0.3S38.2,38.3,38.3,43.1z"/><path fill="#472b29" d="M48.1,63.2c-2.2,0-5.8-2.7-5.9-2.8c-0.1-0.1-0.1-0.2,0-0.4c0.1-0.1,0.2-0.1,0.4,0 c0,0,3.9,2.9,5.8,2.7c2-0.2,5.2-2.4,5.3-2.4c0.1-0.1,0.3,0,0.3,0.1c0.1,0.1,0,0.3-0.1,0.3c-0.1,0.1-3.4,2.3-5.5,2.5 C48.3,63.2,48.2,63.2,48.1,63.2z"/></svg>