<svg xmlns="http://www.w3.org/2000/svg" viewBox="0 0 24 24"><path d="M 8.5 0 C 3.800781 0 0 3.800781 0 8.5 C 0 13.199219 3.800781 17 8.5 17 C 10.445313 17 12.226563 16.347656 13.65625 15.25 L 15.8125 17.40625 C 15.414063 18.105469 15.414063 18.789063 15.8125 19.1875 L 20.3125 23.6875 C 20.914063 24.289063 22.09375 24 23.09375 23 C 24.09375 22 24.414063 20.789063 23.8125 20.1875 L 19.3125 15.6875 C 18.914063 15.289063 18.199219 15.289063 17.5 15.6875 L 15.34375 13.53125 C 16.382813 12.121094 17 10.390625 17 8.5 C 17 3.800781 13.199219 0 8.5 0 Z M 8.5 2 C 12.101563 2 15 4.898438 15 8.5 C 15 12.101563 12.101563 15 8.5 15 C 4.898438 15 2 12.101563 2 8.5 C 2 4.898438 4.898438 2 8.5 2 Z M 8.5 5 C 4.121094 5 2.5625 8.96875 2.5625 8.96875 L 4.125 9.53125 C 4.59375 11.511719 6.382813 13 8.5 13 C 10.617188 13 12.40625 11.511719 12.875 9.53125 L 14.4375 8.96875 C 14.4375 8.96875 12.878906 5 8.5 5 Z M 6.15625 7.625 C 6.054688 7.898438 6 8.1875 6 8.5 C 6 9.898438 7.101563 11 8.5 11 C 9.898438 11 11 9.898438 11 8.5 C 11 8.1875 10.945313 7.898438 10.84375 7.625 C 11.347656 7.929688 11.738281 8.277344 12 8.625 C 11.933594 10.496094 10.386719 12 8.5 12 C 6.613281 12 5.066406 10.496094 5 8.625 C 5.261719 8.277344 5.652344 7.929688 6.15625 7.625 Z"/></svg>