<svg xmlns="http://www.w3.org/2000/svg" viewBox="0 0 40 40"><path fill="#dff0fe" d="M17,22.5c-0.827,0-1.5-0.673-1.5-1.5V5c0-0.827,0.673-1.5,1.5-1.5s1.5,0.673,1.5,1.5v16 C18.5,21.827,17.827,22.5,17,22.5z"/><path fill="#4788c7" d="M17,4c0.551,0,1,0.449,1,1v16c0,0.551-0.449,1-1,1s-1-0.449-1-1V5C16,4.449,16.449,4,17,4 M17,3 c-1.1,0-2,0.9-2,2v16c0,1.1,0.9,2,2,2s2-0.9,2-2V5C19,3.9,18.1,3,17,3L17,3z"/><path fill="#dff0fe" d="M3.036,32.5c-0.41,0-0.796-0.16-1.086-0.45C1.659,31.76,1.5,31.374,1.5,30.964 s0.16-0.795,0.45-1.085l8.547-8.39l2.172,2.172l-8.545,8.386C3.831,32.34,3.445,32.5,3.036,32.5z"/><path fill="#4788c7" d="M10.493,22.193l1.464,1.464l-8.19,8.039C3.572,31.892,3.312,32,3.036,32s-0.536-0.108-0.732-0.304 C2.108,31.501,2,31.241,2,30.964c0-0.277,0.108-0.537,0.297-0.726L10.493,22.193 M10.5,20.786l-8.904,8.739 c-0.795,0.795-0.795,2.084,0,2.879C1.994,32.801,2.515,33,3.036,33c0.521,0,1.042-0.199,1.439-0.596l8.904-8.739L10.5,20.786 L10.5,20.786z"/><path fill="#98ccfd" d="M9.928,33.5c1.846-2.866,2.599-4.789,2.572-6.508c-0.039-2.592-1.538-4.109-2.773-4.797l1.084-1.084 l4.27-2.575l3.511,0.877c0.215,0.858,0.837,3.597,0.909,6.742c0.064,2.785-0.504,5.127-1.785,7.345H9.928z"/><path fill="#4788c7" d="M15.161,19.071l3.016,0.754c0.251,1.063,0.759,3.531,0.823,6.341 c0.059,2.585-0.444,4.772-1.578,6.834h-6.591c1.552-2.544,2.194-4.354,2.168-6.016c-0.034-2.249-1.132-3.924-2.473-4.883 l0.594-0.594L15.161,19.071 M15,18l-4.5,2.714l-1.392,1.392c-0.046,0.086-0.139,0.143-0.251,0.243c1.26,0.428,3.1,1.888,3.143,4.65 c0.028,1.83-0.949,3.947-3,7h9c1.668-2.764,2.056-5.433,2-7.857C19.911,22.24,19,19,19,19L15,18L15,18z"/><path fill="#dff0fe" d="M9.5 12.5A3 3 0 1 0 9.5 18.5A3 3 0 1 0 9.5 12.5Z"/><path fill="#4788c7" d="M9.5,13c1.379,0,2.5,1.121,2.5,2.5S10.879,18,9.5,18S7,16.879,7,15.5S8.121,13,9.5,13 M9.5,12 C7.567,12,6,13.567,6,15.5S7.567,19,9.5,19s3.5-1.567,3.5-3.5S11.433,12,9.5,12L9.5,12z"/><path fill="#dff0fe" d="M36,22.5c-0.827,0-1.5-0.673-1.5-1.5V5c0-0.827,0.673-1.5,1.5-1.5s1.5,0.673,1.5,1.5v16 C37.5,21.827,36.827,22.5,36,22.5z"/><path fill="#4788c7" d="M36,4c0.551,0,1,0.449,1,1v16c0,0.551-0.449,1-1,1s-1-0.449-1-1V5C35,4.449,35.449,4,36,4 M36,3 c-1.1,0-2,0.9-2,2v16c0,1.1,0.9,2,2,2s2-0.9,2-2V5C38,3.9,37.1,3,36,3L36,3z"/><g><path fill="#dff0fe" d="M22.036,32.5c-0.41,0-0.796-0.16-1.086-0.45c-0.291-0.291-0.45-0.676-0.45-1.086 s0.16-0.795,0.45-1.085l8.547-8.39l2.172,2.172l-8.545,8.386C22.831,32.34,22.445,32.5,22.036,32.5z"/><path fill="#4788c7" d="M29.493,22.193l1.464,1.464l-8.19,8.039C22.572,31.892,22.312,32,22.036,32 s-0.536-0.108-0.732-0.304C21.108,31.501,21,31.241,21,30.964c0-0.277,0.108-0.537,0.297-0.726L29.493,22.193 M29.5,20.786 l-8.904,8.739c-0.795,0.795-0.795,2.084,0,2.879C20.994,32.801,21.515,33,22.036,33c0.521,0,1.042-0.199,1.439-0.596l8.904-8.739 L29.5,20.786L29.5,20.786z"/></g><g><path fill="#98ccfd" d="M28.928,33.5c1.846-2.866,2.599-4.789,2.572-6.508c-0.039-2.592-1.538-4.109-2.773-4.797 l1.084-1.084l4.27-2.575l3.511,0.877c0.215,0.858,0.837,3.597,0.909,6.742c0.064,2.785-0.504,5.127-1.785,7.345H28.928z"/><path fill="#4788c7" d="M34.161,19.071l3.016,0.754c0.251,1.063,0.759,3.531,0.823,6.341 c0.059,2.585-0.444,4.772-1.578,6.834h-6.591c1.552-2.544,2.194-4.354,2.168-6.016c-0.034-2.249-1.132-3.924-2.473-4.883 l0.594-0.594L34.161,19.071 M34,18l-4.5,2.714l-1.392,1.392c-0.046,0.086-0.139,0.143-0.251,0.243c1.26,0.428,3.1,1.888,3.143,4.65 c0.028,1.83-0.949,3.947-3,7h9c1.668-2.764,2.056-5.433,2-7.857C38.911,22.24,38,19,38,19L34,18L34,18z"/></g><g><path fill="#dff0fe" d="M28.5 12.5A3 3 0 1 0 28.5 18.5A3 3 0 1 0 28.5 12.5Z"/><path fill="#4788c7" d="M28.5,13c1.379,0,2.5,1.121,2.5,2.5S29.879,18,28.5,18S26,16.879,26,15.5S27.121,13,28.5,13 M28.5,12c-1.933,0-3.5,1.567-3.5,3.5s1.567,3.5,3.5,3.5s3.5-1.567,3.5-3.5S30.433,12,28.5,12L28.5,12z"/></g><g><path fill="#b6dcfe" d="M1,37h38v-7.123C37.692,29.614,36.148,29,35,29c-1.458,0-3.563,1-5,1c-1.438,0-3.542-1-5-1 s-3.563,1-5,1c-1.438,0-3.542-1-5-1s-3.563,1-5,1c-1.438,0-3.542-1-5-1c-1.148,0-2.692,0.614-4,0.877V37z"/><path fill="none" stroke="#4788c7" stroke-linecap="round" stroke-miterlimit="10" d="M1.5,30.278 c0.363-0.087,0.738-0.191,1.113-0.297C3.459,29.745,4.335,29.5,5,29.5c0.663,0,1.537,0.246,2.382,0.484 C8.283,30.237,9.215,30.5,10,30.5s1.717-0.263,2.618-0.516C13.463,29.746,14.337,29.5,15,29.5s1.537,0.246,2.382,0.484 C18.283,30.237,19.215,30.5,20,30.5s1.717-0.263,2.618-0.516C23.463,29.746,24.337,29.5,25,29.5s1.537,0.246,2.382,0.484 C28.283,30.237,29.215,30.5,30,30.5s1.717-0.263,2.618-0.516C33.463,29.746,34.337,29.5,35,29.5c0.665,0,1.541,0.245,2.387,0.481 c0.375,0.105,0.75,0.21,1.113,0.297"/></g></svg>