<svg xmlns="http://www.w3.org/2000/svg" id="Layer_1" x="0" y="0" version="1.1" viewBox="0 0 64 64" xml:space="preserve"><linearGradient id="SVGID_1_" x1="43.927" x2="43.927" y1="6.234" y2="33.44" gradientUnits="userSpaceOnUse"><stop offset="0" stop-color="#6dc7ff"/><stop offset="1" stop-color="#e6abff"/></linearGradient><path fill="url(#SVGID_1_)" d="M34.3,36.1l-2.8-2.8c-0.2-0.2-0.2-0.5,0-0.7L55.7,8.3C56,8,56.6,8.2,56.6,8.7v5c0,0.5-0.2,1-0.6,1.4l-21,21 C34.8,36.3,34.5,36.3,34.3,36.1z"/><linearGradient id="SVGID_2_" x1="32.001" x2="32.001" y1="1.766" y2="59.245" gradientUnits="userSpaceOnUse"><stop offset="0" stop-color="#1a6dff"/><stop offset="1" stop-color="#c822ff"/></linearGradient><path fill="url(#SVGID_2_)" d="M57.5,3.5h-7.7c-1.3,0-2.6,0.5-3.5,1.5l-23,23c-1.2-0.7-2.8-0.7-4,0l-0.8-0.8c-1.2-1.2-3.1-1.2-4.2,0L11.4,30	c-1.2,1.2-1.2,3.1,0,4.2l1.4,1.4c1.9,1.9,1.9,5.1,0,7.1l-5.7,5.7l-0.7-0.7c-0.4-0.4-1-0.4-1.4,0C3,49.6,3,52.8,5,54.8L9.2,59	c1,1,2.3,1.5,3.5,1.5c1.3,0,2.6-0.5,3.5-1.5c0.4-0.4,0.4-1,0-1.4l-0.7-0.7l5.7-5.7c2-1.9,5.1-1.9,7.1,0l1.4,1.4	c0.6,0.6,1.4,0.9,2.1,0.9c0.8,0,1.5-0.3,2.1-0.9l2.8-2.8c1.2-1.2,1.2-3.1,0-4.2L36,44.7c0.4-0.6,0.6-1.3,0.6-2c0-0.7-0.2-1.4-0.6-2	l23-23c0.9-0.9,1.5-2.2,1.5-3.5V6.5C60.5,4.9,59.1,3.5,57.5,3.5z M14,44.3l0.2-0.2l5.7,5.7L19.7,50l-2,2l-5.7-5.7L14,44.3z M10.7,57.6l-4.2-4.2c-0.9-0.9-1.1-2.3-0.6-3.4l8.2,8.2C13,58.7,11.6,58.5,10.7,57.6z M8.5,49.8l2.1-2.1l5.7,5.7l-2.1,2.1L8.5,49.8z M21.5,48.6l-6.1-6.1c0.6-1.1,0.9-2.3,0.9-3.4l8.6,8.6C23.7,47.7,22.5,48,21.5,48.6z M35.4,48.4l-2.8,2.8c-0.4,0.4-1,0.4-1.4,0	L12.8,32.8c-0.4-0.4-0.4-1,0-1.4l2.8-2.8c0.4-0.4,1-0.4,1.4,0l2.8,2.8l-1.4,1.4l1.4,1.4l1.4-1.4l1.4,1.4l-2.1,2.1l1.4,1.4l2.1-2.1	l1.4,1.4l-2.8,2.8l1.4,1.4l2.8-2.8l1.4,1.4L26.2,42l1.4,1.4l2.1-2.1l1.4,1.4l-1.4,1.4l1.4,1.4l1.4-1.4l2.8,2.8	C35.8,47.3,35.8,48,35.4,48.4z M20.8,29.5c0.7-0.2,1.4,0,1.9,0.5L34,41.3c0.4,0.4,0.6,0.9,0.6,1.4c0,0.2,0,0.4-0.1,0.5L20.8,29.5z M58.5,14.2c0,0.8-0.3,1.6-0.9,2.1L34.7,39.2l-9.9-9.9L47.7,6.4c0.6-0.6,1.3-0.9,2.1-0.9h7.7c0.6,0,1,0.4,1,1V14.2z"/></svg>