<svg xmlns="http://www.w3.org/2000/svg" viewBox="0 0 48 48"><path fill="#d6e5e5" d="M23.375,3.253c-2.792,0.129-4.898,0.041-7.381-0.295c-1.661-0.225-4.501-0.608-5.897,0.319 c-1.535,1.02-1.799,3.14-1.792,4.983c0.019,4.641,0.814,9.263,0.663,13.902c-0.113,3.456,0.365,4.874,0.49,8.922 c0.045,1.446-0.092,8.82,0.208,11.411c0.08,0.69,0.562,3.117,3.519,3.021c7.721-0.251,13.905,0.643,21.591-0.131 c1.403-0.141,2.893-0.337,3.975-1.242c1.825-1.525,1.727-4.31,1.471-6.674c-0.135-1.243-0.269-2.485-0.404-3.728 c-0.718-6.627-0.758-14.317,0.479-20.867c0.122-0.646,0.263-1.308,0.14-1.954c-0.097-0.507-0.351-0.97-0.631-1.404 c-1.626-2.515-4.384-4.223-6.854-5.917c-0.563-0.386-1.151-0.783-1.825-0.888c-0.527-0.082-1.062,0.02-1.585,0.124 C27.363,3.266,25.594,3.15,23.375,3.253z"/><path fill="#bcbcbc" d="M31.531,2.99c0,0-0.487,3.814,0.132,6.037s0.711,2.283,2.743,2.105 c2.032-0.178,5.895-1.168,5.895-1.168S35.172,4.215,31.531,2.99z"/><path fill="#010101" d="M40.316,33.687c-0.809-7.462-0.641-14.821,0.473-20.721l0.021-0.109 c0.125-0.653,0.253-1.329,0.119-2.031c-0.118-0.617-0.421-1.146-0.703-1.581c-1.513-2.34-3.905-3.963-6.219-5.532l-0.772-0.525 c-0.548-0.377-1.23-0.846-2.032-0.971c-0.623-0.098-1.227,0.022-1.759,0.128c-1.523,0.302-2.87,0.329-4.296,0.357 c-0.576,0.011-1.168,0.023-1.797,0.053h0c-2.721,0.123-4.831,0.039-7.291-0.292C14.31,2.224,11.375,1.829,9.82,2.86 C7.999,4.07,7.798,6.522,7.806,8.262c0.008,2.111,0.178,4.244,0.342,6.308c0.198,2.486,0.402,5.057,0.321,7.575 c-0.065,1.985,0.061,3.296,0.206,4.813c0.108,1.124,0.23,2.396,0.284,4.142c0.013,0.406,0.011,1.283,0.008,2.391 c-0.006,2.857-0.016,7.176,0.203,9.063c0.201,1.731,1.368,3.562,4.032,3.463c3.151-0.101,6.072-0.011,8.898,0.075 c1.938,0.06,3.828,0.118,5.75,0.118c2.237,0,4.52-0.079,6.978-0.327c1.572-0.158,3.08-0.381,4.246-1.354 c1.953-1.632,1.929-4.512,1.647-7.112L40.316,33.687z M33.447,4.54c2.23,1.514,4.537,3.078,5.94,5.247 c0.005,0.007,0.01,0.016,0.014,0.023l-0.908,0.164c-0.56,0.102-1.121,0.204-1.624,0.293c-1.109,0.196-2.256,0.399-3.396,0.408 c-0.515-0.005-0.817-0.085-0.936-0.265c-0.05-0.076-0.084-0.196-0.118-0.324c-0.569-2.147-0.738-4.353-0.511-6.562 c0.266,0.147,0.521,0.321,0.761,0.486L33.447,4.54z M38.432,43.76c-0.948,0.792-2.294,0.985-3.705,1.128 c-4.502,0.453-8.434,0.332-12.596,0.203c-1.941-0.06-3.927-0.121-6.005-0.121c-0.964,0-1.948,0.014-2.956,0.046 c-2.449,0.106-2.914-1.775-3.007-2.578c-0.212-1.829-0.203-6.112-0.196-8.946c0.002-1.122,0.004-2.012-0.008-2.424 C9.903,29.291,9.78,28,9.67,26.862c-0.142-1.483-0.265-2.764-0.203-4.685c0.084-2.575-0.123-5.175-0.323-7.688 c-0.163-2.045-0.331-4.159-0.339-6.232c-0.01-2.396,0.488-3.848,1.568-4.564c1.242-0.825,4.046-0.444,5.554-0.241 c2.524,0.342,4.688,0.432,7.471,0.3h0c0.619-0.028,1.203-0.04,1.77-0.051c1.471-0.029,2.861-0.058,4.471-0.377 c0.443-0.088,0.897-0.171,1.321-0.126c-0.016,0.042-0.035,0.083-0.04,0.13c-0.254,2.36-0.075,4.721,0.532,7.014 c0.053,0.202,0.116,0.417,0.25,0.62c0.447,0.677,1.33,0.714,1.706,0.714c0.027,0,0.051,0,0.072,0 c1.224-0.009,2.414-0.22,3.563-0.424c0.503-0.089,1.067-0.191,1.629-0.294l1.199-0.217c0.029,0.09,0.057,0.18,0.075,0.272 c0.098,0.516-0.007,1.069-0.119,1.656l-0.021,0.111c-1.131,5.994-1.304,13.457-0.484,21.014l0.404,3.729 C39.992,39.979,40.019,42.434,38.432,43.76z"/><path fill="#4b7bb2" d="M23.835,21.138c-1.23-0.905-2.077-1.529-3.307-2.434c3.305-0.255,6.619-0.404,9.933-0.446 c-0.158,2.831,0.133,5.686,0.859,8.427c-0.989-0.986-2.16-1.787-3.437-2.351c-1.912,1.892-3.889,3.889-4.708,6.451 c-0.818,2.562-0.049,5.848,2.389,6.984c0.815,0.38,1.743,0.494,2.519,0.946c-1.666,0.603-3.504,0.044-5.186-0.515 c-1.303-0.433-2.678-0.914-3.543-1.98c-0.733-0.902-0.99-2.101-1.07-3.261C17.954,28.154,19.702,23.61,23.835,21.138z"/><path fill="#010101" d="M26.519,39.476c-1.228,0-2.493-0.373-3.78-0.801c-1.243-0.414-2.79-0.929-3.774-2.14 c-0.689-0.849-1.075-2.007-1.181-3.542c-0.35-5.1,1.526-9.386,5.168-11.884l-2.722-2.003c-0.168-0.123-0.242-0.339-0.185-0.54 c0.058-0.201,0.234-0.345,0.442-0.36c3.295-0.256,6.648-0.406,9.966-0.448c0.148,0.038,0.272,0.054,0.368,0.154 c0.096,0.1,0.146,0.235,0.138,0.374c-0.156,2.788,0.127,5.571,0.843,8.271c0.058,0.218-0.038,0.448-0.233,0.562 c-0.196,0.113-0.443,0.08-0.603-0.079c-0.872-0.869-1.873-1.577-2.979-2.107c-1.709,1.696-3.574,3.618-4.337,6.005 c-0.72,2.256-0.113,5.337,2.124,6.379c0.324,0.15,0.675,0.258,1.046,0.37c0.504,0.154,1.026,0.313,1.514,0.598 c0.167,0.098,0.264,0.283,0.246,0.477s-0.146,0.359-0.328,0.425C27.685,39.391,27.106,39.476,26.519,39.476z M21.915,19.104 l2.216,1.631c0.135,0.099,0.211,0.259,0.203,0.426c-0.008,0.168-0.099,0.319-0.243,0.405c-3.717,2.224-5.652,6.363-5.309,11.358 c0.09,1.322,0.404,2.297,0.959,2.979c0.8,0.985,2.193,1.449,3.313,1.821c0.973,0.323,1.927,0.613,2.836,0.712 c-0.18-0.063-0.36-0.133-0.538-0.216c-2.767-1.289-3.523-4.871-2.654-7.59c0.874-2.735,2.977-4.817,4.832-6.654 c0.146-0.145,0.368-0.185,0.554-0.102c0.855,0.378,1.656,0.851,2.394,1.412c-0.44-2.145-0.622-4.33-0.542-6.522 C27.266,18.809,24.576,18.922,21.915,19.104z"/></svg>