<svg xmlns="http://www.w3.org/2000/svg" viewBox="0 0 64 64"><radialGradient id="J_1qmlHguZ~bMyUMEkTCGa" cx="31.766" cy="32.404" r="32.085" gradientTransform="matrix(1 0 0 -1 0 66)" gradientUnits="userSpaceOnUse"><stop offset="0" stop-color="#f4e09d"/><stop offset=".226" stop-color="#f8e8b5"/><stop offset=".513" stop-color="#fcf0cd"/><stop offset=".778" stop-color="#fef4dc"/><stop offset="1" stop-color="#fff6e1"/></radialGradient><path fill="url(#J_1qmlHguZ~bMyUMEkTCGa)" d="M60,45c-0.35,0-0.68,0.04-1,0.13c-0.61,0.16-1.17,0.46-1.63,0.87C56.53,46.73,56,47.81,56,49	c0,2.2,1.8,4,4,4s4-1.8,4-4S62.2,45,60,45z"/><radialGradient id="J_1qmlHguZ~bMyUMEkTCGb" cx="31.766" cy="32.404" r="32.085" gradientTransform="matrix(1 0 0 -1 0 66)" gradientUnits="userSpaceOnUse"><stop offset="0" stop-color="#f4e09d"/><stop offset=".226" stop-color="#f8e8b5"/><stop offset=".513" stop-color="#fcf0cd"/><stop offset=".778" stop-color="#fef4dc"/><stop offset="1" stop-color="#fff6e1"/></radialGradient><path fill="url(#J_1qmlHguZ~bMyUMEkTCGb)" d="M61.98,36.41C61.77,38.49,59.9,40,57.81,40H46c-1.66,0-3,1.34-3,3s1.34,3,3,3h3.5	c0.96,0,1.84,0.39,2.47,1.03C52.61,47.66,53,48.54,53,49.5c0,1.93-1.57,3.5-3.5,3.5h-2c-1.47,0-2.64,1.26-2.49,2.76	c0.13,1.3,1.33,2.24,2.63,2.24h1.86c1.47,0,2.64,1.26,2.49,2.76c-0.13,1.3-1.33,2.24-2.63,2.24H14.5c-1.47,0-2.64-1.26-2.49-2.76	c0.13-1.3,1.33-2.24,2.63-2.24h1.86c1.47,0,2.64-1.26,2.49-2.76c-0.13-1.3-1.33-2.24-2.63-2.24H10.5c-0.96,0-1.84-0.39-2.47-1.03	C7.39,51.34,7,50.46,7,49.5c0-1.93,1.57-3.5,3.5-3.5H17c0.83,0,1.58-0.34,2.12-0.88C19.66,44.58,20,43.83,20,43c0-1.66-1.34-3-3-3H5	c-2.34,0-4.22-2.03-3.98-4.41C1.23,33.51,3.1,32,5.19,32h6.31c1.47,0,2.64-1.26,2.49-2.76c-0.13-1.3-1.33-2.24-2.63-2.24H4.5	C2.03,27,0,24.98,0,22.5S2.03,18,4.5,18h7c1.47,0,2.64-1.26,2.49-2.76c-0.13-1.3-1.33-2.24-2.63-2.24H7.5	c-3.22,0-5.81-2.8-5.47-6.08C2.32,4.07,4.9,2,7.76,2h49.48c2.86,0,5.44,2.07,5.73,4.92C63.31,10.2,60.72,13,57.5,13h-6	c-1.47,0-2.64,1.26-2.49,2.76c0.13,1.3,1.33,2.24,2.63,2.24h2.86c2.47,0,4.5,2.02,4.5,4.5S56.97,27,54.5,27h-3	c-1.38,0-2.5,1.12-2.5,2.5c0,0.69,0.28,1.32,0.73,1.77C50.18,31.72,50.81,32,51.5,32H58C60.34,32,62.22,34.03,61.98,36.41z"/><linearGradient id="J_1qmlHguZ~bMyUMEkTCGc" x1="32" x2="32" y1="5.213" y2="56.293" gradientUnits="userSpaceOnUse"><stop offset="0" stop-color="#42d778"/><stop offset=".428" stop-color="#3dca76"/><stop offset="1" stop-color="#34b171"/></linearGradient><path fill="url(#J_1qmlHguZ~bMyUMEkTCGc)" d="M55,30H35V8c0-1.657-1.343-3-3-3c-1.657,0-3,1.343-3,3v22H9c-1.657,0-3,1.343-3,3	c0,1.657,1.343,3,3,3h46c1.657,0,3-1.343,3-3C58,31.343,56.657,30,55,30z"/><linearGradient id="J_1qmlHguZ~bMyUMEkTCGd" x1="32" x2="32" y1="5.596" y2="56.407" gradientUnits="userSpaceOnUse"><stop offset="0" stop-color="#42d778"/><stop offset=".428" stop-color="#3dca76"/><stop offset="1" stop-color="#34b171"/></linearGradient><path fill="url(#J_1qmlHguZ~bMyUMEkTCGd)" d="M47,46H17c-1.657,0-3-1.343-3-3s1.343-3,3-3h30c1.657,0,3,1.343,3,3S48.657,46,47,46z"/><linearGradient id="J_1qmlHguZ~bMyUMEkTCGe" x1="32" x2="32" y1="5.34" y2="56.293" gradientUnits="userSpaceOnUse"><stop offset="0" stop-color="#42d778"/><stop offset=".428" stop-color="#3dca76"/><stop offset="1" stop-color="#34b171"/></linearGradient><path fill="url(#J_1qmlHguZ~bMyUMEkTCGe)" d="M39,56H25c-1.657,0-3-1.343-3-3s1.343-3,3-3h14c1.657,0,3,1.343,3,3S40.657,56,39,56z"/></svg>