<svg xmlns="http://www.w3.org/2000/svg" viewBox="0 0 48 48"><path fill="#d4e2a9" d="M15.803,32.229l-3.296-1.166c-0.747,1.188-1.607,2.788-1.827,4.151 c-0.221,1.364,0.225,2.915,1.459,3.667c0.805,0.491,1.81,0.577,2.771,0.596c0.362,0.007,0.732,0.006,1.074-0.105 c0.766-0.25,1.225-1,1.392-1.743C17.774,35.863,16.648,33.85,15.803,32.229z"/><path fill="#010101" d="M15.126,39.979c-0.077,0-0.152-0.001-0.228-0.003c-1.033-0.021-2.114-0.116-3.02-0.669 c-1.489-0.908-1.923-2.751-1.693-4.174c0.191-1.177,0.829-2.637,1.897-4.337c0.146-0.233,0.455-0.304,0.689-0.158 c0.234,0.147,0.304,0.456,0.157,0.689c-0.982,1.564-1.59,2.936-1.757,3.966c-0.177,1.093,0.134,2.493,1.226,3.16 c0.704,0.429,1.627,0.504,2.521,0.522c0.328,0.008,0.642,0.007,0.909-0.081c0.75-0.244,1-1.116,1.059-1.378 c0.337-1.494-0.623-3.328-1.395-4.802l-0.134-0.256c-0.127-0.245-0.033-0.547,0.212-0.675c0.246-0.126,0.547-0.032,0.674,0.212 l0.133,0.255c0.847,1.619,1.902,3.634,1.484,5.486c-0.236,1.045-0.881,1.834-1.725,2.108C15.8,39.957,15.457,39.979,15.126,39.979z"/><path fill="#d4e2a9" d="M33.441,36.542c-1.043,1.566-2.654,3.315-3.452,5.137c-0.285,0.649-0.55,2.134-0.314,2.799 c0.193,0.545,0.684,0.963,1.21,1.283c0.916,0.558,2.094,0.895,3.134,0.559c0.6-0.194,1.096-0.594,1.477-1.054 c0.91-1.1,1.202-2.595,0.763-3.908c-0.227-0.679-0.631-1.297-1.032-1.908C34.562,38.437,34.104,37.553,33.441,36.542z"/><path fill="#010101" d="M33.135,46.952c-0.812,0-1.685-0.262-2.512-0.766c-0.75-0.456-1.214-0.961-1.42-1.542 c-0.312-0.879,0.047-2.528,0.327-3.167c0.558-1.272,1.464-2.47,2.34-3.627c0.413-0.546,0.814-1.076,1.154-1.586 c0.093-0.139,0.249-0.223,0.416-0.223c0,0,0.001,0,0.002,0c0.167,0.001,0.324,0.085,0.416,0.226 c0.336,0.513,0.621,0.993,0.905,1.474c0.276,0.468,0.553,0.935,0.88,1.434c0.413,0.629,0.839,1.279,1.088,2.023 c0.493,1.475,0.167,3.155-0.852,4.385c-0.486,0.588-1.076,1.008-1.708,1.212C33.845,46.9,33.497,46.952,33.135,46.952z M33.421,37.444c-0.239,0.33-0.494,0.667-0.753,1.01c-0.841,1.111-1.711,2.26-2.222,3.426c-0.269,0.612-0.47,1.952-0.301,2.431 c0.125,0.351,0.46,0.694,0.999,1.022c0.448,0.273,1.608,0.866,2.721,0.511c0.568-0.185,0.99-0.59,1.245-0.897 c0.8-0.967,1.058-2.281,0.674-3.432c-0.208-0.621-0.598-1.216-0.976-1.791c-0.336-0.513-0.621-0.993-0.905-1.474 C33.745,37.983,33.588,37.717,33.421,37.444z"/><path fill="#fcbf95" d="M19.168,1.744c3.127,0.255,6.05,0.416,9.134-0.147c1.142-0.208,2.194,0.624,2.292,1.798 c0.44,5.276,2.193,12.006,4.934,16.152c1.32,1.996,3.112,3.678,3.772,6.089c0.428,1.561,0.021,3.202-0.984,4.46 c-0.744,0.93-1.465,1.349-2.822,1.7c-1.04,0.269-3.184,1.085-3.617,1.414c-0.431,0.328-0.716,0.809-1.039,1.247 c-2.297,3.12-8.064,3.999-11.293,1.896c-1.948-1.268-3.273-3.386-5.295-4.527c-1.64-0.925-4.959-1.365-5.598-3.156 c-0.364-1.02-0.041-3.29,0.533-4.207c0.573-0.916,1.374-1.657,2.081-2.471c2.158-2.482,3.439-4.54,4.109-7.78 c0.547-2.642,1.4-7.54,1.706-10.686C17.184,2.451,18.108,1.658,19.168,1.744z"/><path fill="#010101" d="M23.854,38.004c-1.666,0-3.294-0.393-4.582-1.231c-0.956-0.622-1.762-1.434-2.542-2.218 c-0.879-0.885-1.71-1.72-2.726-2.293c-0.486-0.274-1.155-0.511-1.864-0.762c-1.615-0.571-3.445-1.219-3.96-2.662 c-0.435-1.217-0.042-3.646,0.58-4.64c0.431-0.688,0.977-1.277,1.504-1.846c0.21-0.228,0.421-0.454,0.624-0.688 c2.023-2.327,3.326-4.31,3.997-7.555c0.52-2.515,1.391-7.476,1.698-10.634c0.132-1.358,1.279-2.338,2.625-2.23l0,0 c3,0.243,5.945,0.418,9.004-0.141c0.682-0.125,1.36,0.039,1.91,0.459c0.557,0.427,0.911,1.079,0.97,1.789 c0.408,4.887,2.066,11.704,4.853,15.918c0.382,0.577,0.817,1.144,1.237,1.692c1.037,1.352,2.11,2.75,2.601,4.54 c0.454,1.66,0.052,3.494-1.076,4.905c-0.8,0.999-1.608,1.488-3.088,1.871c-1.106,0.285-3.115,1.08-3.44,1.328 c-0.279,0.212-0.5,0.525-0.734,0.858l-0.205,0.286C29.71,36.833,26.727,38.004,23.854,38.004z M19.009,2.237 c-0.739,0-1.356,0.566-1.431,1.336c-0.328,3.374-1.226,8.378-1.714,10.74c-0.712,3.443-2.144,5.617-4.222,8.008 c-0.21,0.241-0.428,0.476-0.645,0.711c-0.519,0.56-1.009,1.088-1.39,1.697c-0.513,0.819-0.785,2.935-0.486,3.772 c0.355,0.995,1.947,1.559,3.352,2.056c0.75,0.266,1.46,0.517,2.021,0.833c1.137,0.641,2.056,1.565,2.944,2.459 c0.777,0.782,1.511,1.521,2.378,2.085c3.06,1.991,8.518,1.079,10.618-1.773l0.192-0.27c0.268-0.381,0.544-0.773,0.947-1.08 c0.524-0.398,2.782-1.238,3.795-1.5c1.273-0.329,1.895-0.7,2.557-1.527c0.942-1.18,1.268-2.644,0.892-4.017 c-0.438-1.601-1.406-2.861-2.429-4.195c-0.431-0.562-0.876-1.143-1.278-1.75c-2.884-4.36-4.597-11.372-5.015-16.385 c-0.036-0.431-0.248-0.823-0.581-1.078c-0.323-0.248-0.72-0.345-1.123-0.27c-3.179,0.577-6.196,0.402-9.265,0.152l0,0 C19.087,2.239,19.048,2.237,19.009,2.237z"/><path fill="#010101" d="M31.32,34.712c1.365-1.41,1.99-3.384,1.584-5.313c-0.132-0.629-1.097-0.363-0.964,0.266 c0.332,1.576-0.219,3.196-1.327,4.34C30.165,34.467,30.871,35.175,31.32,34.712L31.32,34.712z"/><path fill="#010101" d="M15.291,28.514c-0.167,1.017-0.375,2.067-0.135,3.088c0.319,1.36,0.91,2.134,1.707,3.239 c0.373,0.517,1.241,0.019,0.863-0.505c-0.643-0.892-1.208-1.611-1.517-2.689c-0.276-0.964-0.114-1.894,0.046-2.867 C16.359,28.15,15.395,27.88,15.291,28.514L15.291,28.514z"/></svg>