<?xml version="1.0"?><svg xmlns="http://www.w3.org/2000/svg" viewBox="0 0 128 128">    <path d="M 18.599609 20.099609 C 14.699609 20.099609 11.5 23.299219 11.5 27.199219 L 11.5 100.59961 C 11.5 104.49961 14.699609 107.69922 18.599609 107.69922 L 48.699219 107.69922 L 47.099609 118 L 39 118 C 37.3 118 36 119.3 36 121 C 36 122.7 37.3 124 39 124 L 49.599609 124 L 78.300781 124 L 89 124 C 90.7 124 92 122.7 92 121 C 92 119.3 90.7 118 89 118 L 80.900391 118 L 79.300781 107.69922 L 109.40039 107.69922 C 113.30039 107.69922 116.5 104.49961 116.5 100.59961 L 116.5 27.199219 C 116.5 23.299219 113.30039 20.099609 109.40039 20.099609 L 18.599609 20.099609 z M 18.599609 26.099609 L 109.40039 26.099609 C 110.00039 26.099609 110.5 26.599219 110.5 27.199219 L 110.5 85.300781 L 17.5 85.300781 L 17.5 27.199219 C 17.5 26.599219 17.999609 26.099609 18.599609 26.099609 z M 88.300781 37.5 C 85.100781 37.5 82.5 40.100781 82.5 43.300781 C 82.5 44.900781 83.099219 46.400391 84.199219 47.400391 L 75 61.300781 C 74.3 61.000781 73.600781 60.900391 72.800781 60.900391 C 71.600781 60.900391 70.499609 61.300391 69.599609 61.900391 L 62.099609 54.400391 C 62.699609 53.500391 63.099609 52.399219 63.099609 51.199219 C 63.099609 47.999219 60.500781 45.400391 57.300781 45.400391 C 54.100781 45.400391 51.5 47.999219 51.5 51.199219 C 51.5 52.399219 51.9 53.500391 52.5 54.400391 L 45 61.900391 C 44.1 61.300391 43.000781 60.900391 41.800781 60.900391 C 38.600781 60.900391 36 63.499219 36 66.699219 C 36 69.899219 38.600781 72.5 41.800781 72.5 C 45.000781 72.5 47.599609 69.899219 47.599609 66.699219 C 47.599609 65.499219 47.199609 64.4 46.599609 63.5 L 54 56 C 54.9 56.6 55.999219 57 57.199219 57 C 58.399219 57 59.500391 56.6 60.400391 56 L 67.900391 63.5 C 67.300391 64.4 66.900391 65.499219 66.900391 66.699219 C 66.900391 69.899219 69.499219 72.5 72.699219 72.5 C 75.899219 72.5 78.5 69.899219 78.5 66.699219 C 78.5 65.099219 77.900781 63.599609 76.800781 62.599609 L 86 48.800781 C 86.7 49.100781 87.399219 49.199219 88.199219 49.199219 C 91.399219 49.199219 94 46.600391 94 43.400391 C 94 40.200391 91.600781 37.5 88.300781 37.5 z M 17.5 91.199219 L 110.5 91.199219 L 110.5 100.59961 C 110.5 101.19961 110.00039 101.69922 109.40039 101.69922 L 18.599609 101.69922 C 17.999609 101.69922 17.5 101.19961 17.5 100.59961 L 17.5 91.199219 z M 64 93.099609 A 3.2 3.2 0 0 0 60.800781 96.300781 A 3.2 3.2 0 0 0 64 99.5 A 3.2 3.2 0 0 0 67.199219 96.300781 A 3.2 3.2 0 0 0 64 93.099609 z M 53.800781 113.69922 L 74.099609 113.69922 L 74.800781 118 L 53.099609 118 L 53.800781 113.69922 z"/></svg>