<svg xmlns="http://www.w3.org/2000/svg" viewBox="0 0 24 24"><path d="M 4 0 C 1.800781 0 0 1.800781 0 4 C 0 6.199219 1.800781 8 4 8 C 6.199219 8 8 6.199219 8 4 C 8 1.800781 6.199219 0 4 0 Z M 20 0 L 16 4 L 20 8 L 24 4 Z M 12 1 L 12 3 L 9 3 L 9 5 L 12 5 L 12 7 L 15.5 4 Z M 4 1.59375 C 5.300781 1.59375 6.40625 2.699219 6.40625 4 C 6.40625 5.300781 5.300781 6.40625 4 6.40625 C 2.699219 6.40625 1.59375 5.300781 1.59375 4 C 1.59375 2.699219 2.699219 1.59375 4 1.59375 Z M 4 8.5 L 1 12 L 3 12 L 3 15 L 5 15 L 5 12 L 7 12 Z M 19 9 L 19 12 L 17 12 L 20 15.5 L 23 12 L 21 12 L 21 9 Z M 0 16 L 0 24 L 8 24 L 8 16 Z M 20 16 C 17.789063 16 16 17.789063 16 20 C 16 22.210938 17.789063 24 20 24 C 22.210938 24 24 22.210938 24 20 C 24 17.789063 22.210938 16 20 16 Z"/></svg>