<svg xmlns="http://www.w3.org/2000/svg" width="512" height="512" viewBox="0 0 512 512"><path fill="#4ABC96" d="M256,7.9C119,7.9,7.9,119,7.9,256C7.9,393,119,504.1,256,504.1c137,0,248.1-111.1,248.1-248.1C504.1,119,393,7.9,256,7.9z"/><path fill="#E0DFDC" d="M309.9,77.1c0,0-21.2,20.9-55,20.9s-55-20.9-55-20.9s-4,85.5,54.7,85.5S309.9,77.1,309.9,77.1z"/><path fill="#EFEDE6" d="M367,108c-8.4-16.7-57.1-30.9-57.1-30.9s-6.3,74.9-55,74.9s-55-74.9-55-74.9s-48.8,14.1-57.1,30.9c-9.2,18.7-21.2,55-27.9,69.9c0,0,3.6,5.4,13.3,15.1s20.1,14.3,20.1,14.3c7.9-13.1,15.8-24.7,15.8-24.7L177.1,284l-16.4,111c0,13.5,17.2,16.8,38.5,16.8h111.5c21.2,0,38.5-3.3,38.5-16.8l-16.4-111l12.9-101.5c0,0,8.1,11.9,16.1,25.1c0,0,9.6-4.3,20.2-14.3s13.5-15.3,13.5-15.3C388.8,163.5,376.7,127.3,367,108z"/><path fill="#E0DFDC" d="M164.5 164c-.2-7.8-3.3-26-3.3-26s-1 29 2.9 44.5C164.1 182.5 164.8 171.8 164.5 164zM348.6 138c0 0-3.1 18.2-3.3 26s.5 18.5.5 18.5C349.6 167 348.6 138 348.6 138z"/></svg>