<svg xmlns="http://www.w3.org/2000/svg" viewBox="0 0 48 48"><path fill="#f58420" d="M23.853,16.156c0,0-1.67-3.426-3.342-6.13c0.001-0.086,0.009-0.171,0.004-0.257 c-0.094-1.627-0.876-2.613-1.883-3.81c-0.342-0.406-0.598-0.456-0.755-0.547c-1.595-0.925-3.488-1.337-5.088-0.423 s-2.584,3.077-2.106,4.989c0.17,0.679,0.501,1.297,0.892,1.855c0.634,0.904,1.447,1.674,2.404,2.118 c1.351,0.627,2.953,0.535,4.251-0.207c0.269,0.306,0.539,0.663,0.795,1.116C20.238,17.011,24,24.717,24,24.717 s5.564,1.933,6.688,1.783C29.305,24.455,23.853,16.156,23.853,16.156z M15.176,11.791c-1.019-0.261-1.759-1.414-1.717-2.564 c0.011-0.293,0.068-0.593,0.217-0.836c0.234-0.384,0.66-0.575,1.075-0.648c0.63-0.11,0.927-0.012,1.542,0.171 c1.01,0.299,1.548,1.161,1.309,2.281C17.363,11.315,16.195,12.052,15.176,11.791z"/><path fill="#2b8c5e" d="M4.559,25.464c-0.016-0.328,0.051-0.42,0.341-0.589c1.962-1.144,3.73-1.008,5.801-1.938 c1.174-0.527,2.38-1.024,3.655-1.202c3.29-0.461,6.456,1.226,9.364,2.832c2.908,1.606,6.122,2.161,9.394,1.585 c1.454-0.256,2.793-0.935,4.108-1.606c1.919-0.979,3.838-0.88,5.757-1.859c0.129-0.066,0.447-0.188,0.546-0.082 c0.03,4.855-0.7,12.509-1.324,17.324c-2.934,1.072-2.796,1.532-5.867,2.634c-5.314,1.907-13.367-0.087-18.788-1.664 c-1.485-0.432-2.974-0.888-4.512-1.056c-3.1-0.339-6.288,0.165-8.764,2.06c-0.521-3.597,0.161-8.722,0.216-12.356 C4.506,28.154,4.713,26.847,4.559,25.464z"/><path fill="#71c598" d="M40.638,28.958c0.342,2.396-0.206,5.208-0.325,8.083c-0.951,0.103-1.857,0.569-2.495,1.281 c-0.259,0.289-0.484,0.625-0.823,0.816c-0.275,0.155-0.905,0.562-1.464,0.814c-1.992,0.899-7.406,0.859-9.5,0.21 c-0.622-0.193-3.972-1.442-5.49-1.663c-3.848-0.562-6.82-1.391-10.689-1.001c-0.281,0.028-0.578,0.058-0.837-0.056 c-0.206-0.091-0.363-0.261-0.537-0.403c-0.491-0.398-1.194-0.734-1.817-0.626c-0.183-0.529-0.101-1.27-0.004-1.822 c0.327-1.868,0.472-3.923,0.52-5.818c0.841,0.049,1.768-0.724,1.959-1.544c0.103-0.443,0.082-0.996,0.469-1.235 c0.126-0.078,0.275-0.105,0.421-0.131c1.448-0.257,2.417-0.919,3.865-1.176c1.26-0.224,2.837-0.151,4.109-0.016 c2.821,0.301,5.329,2.406,8.012,3.331c3.726,1.285,7.145,0.776,10.88-0.483c0.472-0.159,0.954-0.326,1.452-0.323 C39.219,27.202,38.303,29.569,40.638,28.958z M35.446,32.474c-0.722,0.049-1.091,0.031-1.527,0.608 c-0.436,0.578-0.475,1.389-0.233,2.071c0.032,0.091,0.072,0.184,0.142,0.251c0.115,0.109,0.287,0.126,0.444,0.121 c0.786-0.023,1.534-0.476,1.967-1.133c0.254-0.385,0.405-0.882,0.232-1.31C36.299,32.654,35.907,32.442,35.446,32.474z M13.055,30.551c-0.741-0.205-1.206-0.144-1.797,0.347c-0.203,0.168-0.377,0.39-0.421,0.65c-0.025,0.149-0.006,0.303,0.033,0.448 c0.201,0.753,0.996,1.297,1.771,1.214c0.775-0.084,1.435-0.785,1.471-1.564c0.006-0.12-0.003-0.245-0.056-0.353 C13.996,31.175,13.552,30.689,13.055,30.551z M26.896,31.292c-0.387-0.505-1.158-0.95-1.735-1.22 c-0.508-0.238-1.025-0.476-1.58-0.553c-1.148-0.159-2.348,0.453-2.954,1.441c-0.606,0.988-0.458,1.991,0.061,3.028 s1.373,2.093,2.5,2.363c0.713,0.171,1.456,0.159,2.189,0.138c0.405-0.012,0.826-0.031,1.182-0.225 c0.644-0.35,0.878-1.158,0.924-1.89C27.57,32.973,27.691,32.328,26.896,31.292z"/><path fill="#010101" d="M34.216,36.026c-0.166,0-0.483-0.025-0.73-0.258c-0.148-0.143-0.22-0.307-0.271-0.448 c-0.317-0.896-0.2-1.869,0.306-2.54c0.542-0.719,1.098-0.754,1.741-0.796l0.15-0.01l0,0c0.689-0.05,1.276,0.306,1.524,0.92 c0.213,0.532,0.111,1.178-0.278,1.772c-0.533,0.811-1.441,1.33-2.371,1.358C34.269,36.025,34.245,36.026,34.216,36.026z M35.48,32.973l-0.154,0.01c-0.584,0.038-0.741,0.048-1.007,0.4c-0.307,0.406-0.368,1.021-0.161,1.604 c-0.018,0.033,0.02,0.051,0.099,0.039c0.609-0.018,1.209-0.366,1.565-0.908c0.205-0.312,0.274-0.629,0.187-0.849 C35.9,33.003,35.662,32.966,35.48,32.973L35.48,32.973z"/><path fill="#010101" d="M12.476,33.719c-0.948,0-1.841-0.665-2.09-1.593c-0.063-0.234-0.077-0.457-0.043-0.662 c0.059-0.347,0.265-0.676,0.595-0.95c0.693-0.576,1.325-0.7,2.251-0.443c0.628,0.173,1.19,0.747,1.315,1.006 c0.081,0.166,0.116,0.361,0.104,0.595c-0.048,1.03-0.89,1.925-1.916,2.036C12.62,33.715,12.548,33.719,12.476,33.719z M12.368,30.941c-0.286,0-0.508,0.105-0.792,0.342c-0.142,0.117-0.229,0.241-0.247,0.348c-0.011,0.063-0.003,0.142,0.021,0.235 c0.139,0.517,0.697,0.902,1.234,0.847c0.531-0.058,1-0.557,1.025-1.09c0.004-0.083-0.006-0.11-0.007-0.111 c-0.047-0.065-0.374-0.394-0.682-0.478c0,0,0,0-0.001-0.001C12.703,30.974,12.525,30.941,12.368,30.941z"/><path fill="#010101" d="M24.715,37.001c-0.557,0-1.104-0.034-1.645-0.164c-1.5-0.36-2.417-1.8-2.83-2.626 c-0.664-1.326-0.677-2.476-0.039-3.513c0.716-1.168,2.131-1.859,3.448-1.675c0.638,0.087,1.214,0.357,1.724,0.595 c0.507,0.237,1.429,0.73,1.919,1.369l0,0c0.845,1.1,0.791,1.89,0.711,3.085l-0.021,0.333c-0.067,1.104-0.488,1.92-1.185,2.298 c-0.472,0.258-1.012,0.273-1.405,0.285C25.164,36.995,24.938,37.001,24.715,37.001z M23.216,29.994 c-0.844,0-1.702,0.477-2.163,1.228c-0.453,0.738-0.429,1.522,0.082,2.542c0.27,0.54,1.021,1.825,2.169,2.101 c0.639,0.153,1.309,0.146,2.058,0.124c0.395-0.011,0.714-0.03,0.957-0.163c0.517-0.281,0.639-1.049,0.665-1.481l0.022-0.339 c0.076-1.138,0.107-1.608-0.507-2.408c0,0,0,0,0-0.001c-0.26-0.338-0.839-0.739-1.55-1.071c-0.466-0.218-0.948-0.443-1.437-0.511 C23.415,30,23.315,29.994,23.216,29.994z"/><path fill="#febf10" d="M36.859,7.096c-0.967-1.643-2.952-2.947-4.828-2.545c-1.658,0.356-2.52,1.052-3.444,2.462 c-0.438,0.669-0.68,1.452-0.735,2.247c-1.187,1.92-2.427,4.346-2.893,5.781c-0.559,1.722-1.725,3.616-2.741,5.115 c-1.551,2.287-2.817,4.363-4.566,6.503c-2.007,2.456-2.977,5.598-3.546,8.718c2.202-1.124,3.853-3.068,5.441-4.963 c1.801-2.148,2.901-4.267,4.702-6.414c0.926-1.105,1.788-2.448,2.469-3.719c1.086-2.027,2.186-4.727,2.857-7.081 c1.032,0.829,2.638,1.476,4.833,0.957c0.753-0.178,1.521-1.078,1.981-1.694C37.531,10.933,37.826,8.738,36.859,7.096z M34.809,9.901c-0.277,0.688-0.93,1.213-1.667,1.34c-0.737,0.126-1.531-0.151-2.024-0.707c-0.483-0.544-0.425-1.87,0.411-2.418 c1.122-0.735,2.27-0.18,2.928,0.394c0.141,0.123,0.283,0.253,0.369,0.418C34.981,9.225,34.934,9.59,34.809,9.901z"/><path fill="#010101" d="M43.89,22.26c-0.35-0.36-0.91-0.13-1.14-0.02c-0.9,0.46-1.8,0.67-2.76,0.89 c-0.97,0.22-1.98,0.45-3,0.97c-1.26,0.65-2.57,1.31-3.96,1.56c-0.786,0.138-1.571,0.206-2.352,0.209 c-0.558-0.992-1.321-2.17-2.066-3.317c-0.487-0.751-0.966-1.491-1.383-2.169c1.224-2.312,2.096-4.411,2.663-6.359 c0.788,0.476,1.774,0.821,2.976,0.821c0.515,0,1.066-0.062,1.656-0.201c0.693-0.163,1.456-0.797,2.266-1.882 c1.312-1.758,1.517-4.192,0.5-5.92c-1.021-1.733-3.191-3.241-5.363-2.78c-1.698,0.364-2.717,1.09-3.757,2.678 c-0.328,0.502-0.55,1.058-0.686,1.633c-0.369,1.138-0.896,2.11-1.454,3.138c-0.56,1.05-1.14,2.13-1.55,3.38 c-0.064,0.2-0.157,0.419-0.242,0.632c-0.83-1.348-1.572-2.7-2.318-4.102l-0.31-0.58c-0.281-0.532-0.467-1.087-0.67-1.719 c-0.26-1.5-1.105-2.508-1.926-3.484h-0.001c-0.34-0.403-0.636-0.54-0.886-0.656c-2.027-1.175-4.009-1.324-5.586-0.425 c-1.829,1.046-2.858,3.481-2.344,5.546c0.168,0.67,0.484,1.33,0.968,2.02c0.732,1.044,1.632,1.834,2.602,2.284 c0.668,0.311,1.392,0.462,2.117,0.462c0.729,0,1.452-0.17,2.126-0.47c0.052,0.065,0.107,0.129,0.159,0.193 c0.16,0.21,0.32,0.41,0.47,0.6c0.8,0.92,1.32,2.09,1.78,3.21l0.15,0.37c0.242,0.594,0.501,1.19,0.784,1.777 c-0.223,0.333-0.449,0.67-0.664,0.993c-0.159,0.24-0.315,0.475-0.473,0.712c-1.862-0.788-3.868-1.298-5.927-1.012 c-1.38,0.19-2.68,0.74-3.79,1.24c-0.88,0.4-1.73,0.59-2.55,0.79c-1.06,0.24-2.15,0.5-3.3,1.17c-0.4,0.23-0.62,0.48-0.59,1.05v0.03 c0.1,0.87,0.05,1.7-0.01,2.59c-0.03,0.47-0.06,0.94-0.07,1.43c-0.01,1.17-0.1,2.49-0.18,3.89c-0.19,2.98-0.38,6.07-0.03,8.54 c0.03,0.18,0.15,0.33,0.31,0.4c0.16,0.06,0.35,0.04,0.49-0.07c2.72-2.08,6.08-2.22,8.41-1.96c1.38,0.15,2.77,0.55,4.1,0.94 l0.33,0.1c3.95,1.15,9.13,2.46,13.73,2.46c1.94,0,3.77-0.24,5.36-0.81c1.61-0.57,2.37-0.98,3.1-1.38c0.71-0.38,1.37-0.74,2.77-1.25 c0.18-0.07,0.3-0.22,0.33-0.41c0.66-5.08,1.35-12.69,1.33-17.39C44.02,22.47,43.98,22.35,43.89,22.26z M27.774,23.096 c0.603,0.93,1.219,1.88,1.722,2.725c-1.705-0.143-3.369-0.617-4.944-1.399c0.028-0.034,0.05-0.068,0.078-0.101 c0.831-0.979,1.522-2.045,2.045-2.939C27.023,21.933,27.392,22.507,27.774,23.096z M29.006,7.288 c0.899-1.372,1.688-1.939,3.13-2.248c0.197-0.043,0.396-0.063,0.595-0.063c1.5,0,2.975,1.144,3.698,2.372 c0.818,1.391,0.638,3.37-0.439,4.814c-0.873,1.169-1.437,1.445-1.695,1.507c-3.036,0.716-4.87-0.977-5.471-2.093 C28.113,10.263,28.187,8.539,29.006,7.288z M18.48,12.979c-1.227,0.957-2.91,1.16-4.291,0.521 c-0.811-0.377-1.573-1.052-2.205-1.952c-0.411-0.587-0.678-1.14-0.815-1.688c-0.413-1.651,0.408-3.6,1.869-4.435 c0.566-0.324,1.157-0.448,1.729-0.448c1.138,0,2.202,0.489,2.859,0.87c0.046,0.027,0.098,0.052,0.156,0.078 c0.133,0.062,0.27,0.124,0.466,0.357c1.045,1.24,1.685,2.097,1.767,3.518C20.082,10.949,19.479,12.197,18.48,12.979z M21.34,18.02 c-0.49-1.2-1.04-2.45-1.94-3.48c-0.15-0.18-0.3-0.37-0.45-0.57c-0.019-0.024-0.039-0.048-0.058-0.072 c0.066-0.047,0.139-0.082,0.203-0.133c0.794-0.621,1.379-1.457,1.685-2.361l0.259,0.485c0.832,1.553,1.688,3.149,2.697,4.741 c-0.439,0.875-1.003,1.838-1.727,2.925c-0.175-0.387-0.352-0.772-0.51-1.166L21.34,18.02z M21.53,22.1c0.35-0.55,0.72-1.1,1.1-1.66 c1.42-2.1,2.34-3.81,2.81-5.24c0.37-1.16,0.91-2.16,1.47-3.21c0.196-0.367,0.392-0.739,0.584-1.115 c0.102,0.407,0.246,0.804,0.448,1.178c0.225,0.417,0.591,0.899,1.088,1.345c-0.555,2.022-1.443,4.212-2.751,6.642 c-0.73,1.36-1.59,2.65-2.41,3.64c-0.92,1.09-1.66,2.19-2.38,3.25c-0.71,1.03-1.44,2.11-2.32,3.16c-1.26,1.49-2.65,3.16-4.36,4.29 c0.7-3.2,1.73-5.57,3.23-7.4C19.37,25.35,20.42,23.77,21.53,22.1z M13.81,35.78c0.09,0.06,0.19,0.1,0.3,0.1 c0.07,0,0.15-0.02,0.22-0.06c2.33-1.18,4.07-3.26,5.6-5.08c0.92-1.1,1.66-2.19,2.38-3.25c0.114-0.166,0.236-0.337,0.351-0.505 c0.003,0.002,0.006,0.003,0.009,0.005c1.03,0.55,2.09,1.11,3.18,1.49c4.26,1.46,8.05,0.58,11.24-0.5c0.41-0.14,0.8-0.27,1.17-0.28 c0.03,0.08,0.07,0.22,0.09,0.32c0.1,0.43,0.23,1.01,0.77,1.33c0.29,0.17,0.65,0.24,1.08,0.2c0.13,1.39-0.02,2.94-0.17,4.57 c-0.07,0.81-0.15,1.65-0.2,2.49c-0.91,0.2-1.76,0.68-2.38,1.38l-0.2,0.22c-0.16,0.2-0.32,0.39-0.5,0.49l-0.29,0.17 c-0.31,0.19-0.75,0.45-1.13,0.63c-1.84,0.83-7.11,0.82-9.15,0.19c-0.13-0.05-0.39-0.14-0.73-0.25c-1.26-0.44-3.6-1.25-4.84-1.44 c-0.89-0.12-1.74-0.27-2.56-0.41c-2.06-0.35-4.03-0.69-6.2-0.69c-0.66,0-1.34,0.03-2.05,0.1c-0.22,0.02-0.44,0.05-0.58-0.02 c-0.08-0.03-0.18-0.11-0.28-0.2l-0.15-0.13c-0.54-0.44-1.16-0.71-1.73-0.75c-0.03-0.31,0-0.72,0.09-1.22 c0.27-1.57,0.45-3.4,0.51-5.45c0.9-0.19,1.75-0.97,1.96-1.89c0.03-0.11,0.05-0.24,0.07-0.36c0.04-0.23,0.08-0.5,0.18-0.56 c0.04-0.03,0.15-0.05,0.24-0.06c0.77-0.14,1.41-0.38,2.03-0.62c0.59-0.23,1.16-0.44,1.84-0.56c1.26-0.22,2.85-0.13,3.97-0.01 c0.069,0.008,0.137,0.027,0.206,0.037c-0.284,0.377-0.576,0.754-0.886,1.133c-1.78,2.17-2.94,5.01-3.66,8.95 C13.58,35.47,13.66,35.66,13.81,35.78z M41.74,39.56c-1.28,0.49-1.96,0.85-2.61,1.21c-0.74,0.4-1.43,0.77-2.97,1.32 c-5.1,1.83-12.99-0.08-18.48-1.67l-0.32-0.1c-1.38-0.4-2.8-0.81-4.27-0.97c-0.56-0.07-1.18-0.11-1.83-0.11 c-2.05,0-4.44,0.4-6.59,1.77c-0.21-2.23-0.04-4.91,0.12-7.52c0.09-1.41,0.18-2.74,0.19-3.94c0.01-0.47,0.04-0.92,0.07-1.38 c0.05-0.88,0.11-1.8,0.01-2.75c0-0.02,0-0.04-0.01-0.05c0.02-0.01,0.05-0.03,0.1-0.06c1.02-0.6,2-0.83,3.03-1.07 c0.86-0.2,1.76-0.41,2.73-0.85c1.09-0.49,2.27-0.99,3.52-1.16c1.769-0.247,3.545,0.188,5.223,0.863 c-0.274,0.405-0.555,0.809-0.84,1.209c-0.25-0.055-0.503-0.103-0.763-0.132c-1.18-0.12-2.87-0.22-4.25,0.03 c-0.77,0.13-1.4,0.37-2.02,0.61c-0.6,0.23-1.16,0.44-1.84,0.56c-0.18,0.03-0.39,0.07-0.6,0.2c-0.49,0.3-0.58,0.85-0.64,1.25 c-0.01,0.1-0.03,0.2-0.05,0.3c-0.14,0.6-0.86,1.2-1.44,1.15c-0.14-0.01-0.27,0.04-0.37,0.14c-0.1,0.09-0.16,0.21-0.16,0.35 c-0.06,2.18-0.23,4.12-0.52,5.75c-0.15,0.91-0.15,1.56,0.03,2.07c0.08,0.23,0.31,0.37,0.56,0.33c0.38-0.07,0.94,0.13,1.41,0.52 l0.12,0.1c0.15,0.13,0.31,0.27,0.53,0.37C9.2,38.07,9.59,38.03,9.9,38c2.9-0.29,5.26,0.11,7.98,0.57c0.83,0.15,1.69,0.29,2.59,0.43 c1.14,0.16,3.42,0.95,4.65,1.38c0.35,0.12,0.63,0.22,0.76,0.26c1.07,0.33,2.82,0.51,4.6,0.51c2.05,0,4.14-0.24,5.26-0.74 c0.44-0.2,0.9-0.48,1.24-0.68l0.26-0.16c0.34-0.19,0.57-0.47,0.78-0.72l0.17-0.19c0.55-0.62,1.35-1.03,2.18-1.12 c0.24-0.03,0.43-0.23,0.44-0.48c0.04-0.96,0.13-1.92,0.22-2.85c0.17-1.89,0.34-3.68,0.1-5.32c-0.02-0.14-0.1-0.27-0.22-0.35 c-0.11-0.08-0.26-0.1-0.4-0.07c-0.4,0.11-0.72,0.12-0.87,0.02c-0.18-0.1-0.25-0.4-0.32-0.69c-0.09-0.41-0.25-1.1-0.97-1.1 c-0.01,0-0.01,0-0.02,0c-0.56,0-1.07,0.17-1.6,0.35c-4.24,1.42-7.4,1.57-10.56,0.48c-0.979-0.339-1.931-0.839-2.935-1.37 c0.22-0.311,0.463-0.621,0.699-0.933c2.889,1.487,6.081,1.978,9.266,1.414c1.54-0.27,2.98-1,4.25-1.65 c0.9-0.46,1.81-0.67,2.76-0.89c0.92-0.21,1.86-0.42,2.82-0.88C42.99,27.8,42.36,34.74,41.74,39.56z"/><path fill="#010101" d="M32.787,11.771c0.146,0,0.294-0.013,0.438-0.037c0.904-0.154,1.707-0.801,2.047-1.646 c0.203-0.506,0.201-0.999-0.003-1.391c-0.127-0.242-0.31-0.412-0.484-0.564c-0.871-0.759-2.256-1.271-3.531-0.435 c-0.497,0.325-0.832,0.89-0.919,1.548c-0.084,0.632,0.068,1.237,0.408,1.62C31.253,11.438,32.021,11.771,32.787,11.771z M31.326,9.378c0.049-0.37,0.223-0.678,0.477-0.844c0.299-0.196,0.596-0.271,0.875-0.271c0.644,0,1.192,0.398,1.45,0.623 c0.108,0.095,0.209,0.187,0.255,0.273c0.065,0.125,0.051,0.332-0.038,0.555c-0.213,0.53-0.719,0.936-1.288,1.032 c-0.569,0.104-1.184-0.115-1.565-0.545C31.376,10.072,31.275,9.76,31.326,9.378z"/><path fill="#010101" d="M16.436,7.434l-0.061-0.018c-0.595-0.177-0.984-0.293-1.711-0.166 c-0.635,0.112-1.138,0.425-1.415,0.88c-0.177,0.289-0.274,0.652-0.29,1.079c-0.05,1.405,0.869,2.752,2.094,3.066 c0.177,0.045,0.358,0.067,0.543,0.067c0.446,0,0.903-0.131,1.31-0.382c0.608-0.377,1.04-0.982,1.187-1.662 C18.381,8.942,17.731,7.818,16.436,7.434z M17.113,10.09c-0.089,0.414-0.356,0.786-0.734,1.021 c-0.343,0.212-0.736,0.282-1.078,0.196c-0.773-0.198-1.376-1.124-1.342-2.062c0.009-0.249,0.059-0.455,0.144-0.595 c0.17-0.279,0.534-0.38,0.734-0.416c0.151-0.026,0.275-0.039,0.391-0.039c0.262,0,0.479,0.064,0.862,0.179l0.061,0.019 C16.943,8.627,17.294,9.246,17.113,10.09z"/><path fill="#010101" d="M24.876,20.478c-0.016-0.207-0.145-0.409-0.355-0.454c-0.006-0.001-0.012,0-0.017-0.002 c-0.103-0.043-0.217-0.037-0.326,0.007c-0.353,0.082-0.636,0.395-0.472,0.807c0.181,0.454,0.748,0.507,1.074,0.186 C24.954,20.853,24.96,20.646,24.876,20.478z"/></svg>