<svg xmlns="http://www.w3.org/2000/svg" viewBox="0 0 128 128"><path fill="#fff" d="M89,94H39l1.9-16.2c0.6-5,4.9-8.8,9.9-8.8h26.3c5.1,0,9.3,3.8,9.9,8.8L89,94z"/><path fill="#444b54" d="M89 97H39c-.9 0-1.7-.4-2.2-1-.6-.6-.8-1.5-.7-2.3L38 77.5C38.7 70.9 44.3 66 50.9 66h26.3c6.6 0 12.1 4.9 12.9 11.5L92 93.6c.1.9-.2 1.7-.7 2.3C90.7 96.6 89.9 97 89 97zM42.4 91h43.2l-1.5-12.8c-.4-3.5-3.4-6.2-7-6.2H50.9c-3.5 0-6.5 2.7-7 6.2L42.4 91zM91 127h-4c-1.7 0-3-1.3-3-3v-10c0-1.7 1.3-3 3-3 .8 0 1.5.3 2 .8.5-.5 1.2-.8 2-.8 1.7 0 3 1.3 3 3v10C94 125.7 92.7 127 91 127zM41 127h-4c-1.7 0-3-1.3-3-3v-10c0-1.7 1.3-3 3-3 .8 0 1.5.3 2 .8.5-.5 1.2-.8 2-.8 1.7 0 3 1.3 3 3v10C44 125.7 42.7 127 41 127z"/><path fill="#676f77" d="M39 89H89V114H39z"/><path fill="#444b54" d="M64 89H89V114H64z"/><path fill="#fff" d="M67,108h-6c-1.7,0-3-1.3-3-3v-5h12v5C70,106.7,68.7,108,67,108z"/><path fill="#444b54" d="M70,103H58c-1.7,0-3-1.3-3-3s1.3-3,3-3h12c1.7,0,3,1.3,3,3S71.7,103,70,103z"/><path fill="#444b54" d="M89,117H39c-1.7,0-3-1.3-3-3V94c0-4.3,3.5-7.9,7.8-8c13.4-2,27.1-2,40.5,0c4.3,0.1,7.8,3.7,7.8,8v20C92,115.7,90.7,117,89,117z M42,111h44V94c0-1.1-0.9-2-2-2c-0.1,0-0.3,0-0.4,0c-13-1.9-26.1-1.9-39.1,0c-0.1,0-0.3,0-0.4,0c-1.1,0-2,0.9-2,2V111z"/><path fill="#676f77" d="M39 94L39 94c-3.9 0-7 3.1-7 7v13h14v-13C46 97.1 42.9 94 39 94zM89 94L89 94c-3.9 0-7 3.1-7 7v13h14v-13C96 97.1 92.9 94 89 94z"/><path fill="#444b54" d="M46 117H32c-1.7 0-3-1.3-3-3v-13c0-5.5 4.5-10 10-10s10 4.5 10 10v13C49 115.7 47.7 117 46 117zM35 111h8v-10c0-2.2-1.8-4-4-4s-4 1.8-4 4V111zM96 117H82c-1.7 0-3-1.3-3-3v-13c0-5.5 4.5-10 10-10s10 4.5 10 10v13C99 115.7 97.7 117 96 117zM85 111h8v-10c0-2.2-1.8-4-4-4s-4 1.8-4 4V111z"/><path fill="#ff5576" d="M39 99.1L39 99.1c-.8 0-1.5.7-1.5 1.5v6c0 .8.7 1.5 1.5 1.5l0 0c.8 0 1.5-.7 1.5-1.5v-6C40.5 99.8 39.8 99.1 39 99.1zM89 99.1L89 99.1c-.8 0-1.5.7-1.5 1.5v6c0 .8.7 1.5 1.5 1.5l0 0c.8 0 1.5-.7 1.5-1.5v-6C90.5 99.8 89.8 99.1 89 99.1z"/><path fill="#444b54" d="M99 117H29c-1.7 0-3-1.3-3-3s1.3-3 3-3h70c1.7 0 3 1.3 3 3S100.7 117 99 117zM96 127H37c-1.7 0-3-1.3-3-3s1.3-3 3-3h59c1.7 0 3 1.3 3 3S97.7 127 96 127zM111 121A3 3 0 1 0 111 127 3 3 0 1 0 111 121zM70 69H58v-3c0-1.7 1.3-3 3-3h6c1.7 0 3 1.3 3 3V69z"/></svg>