<?xml version="1.0"?><svg xmlns="http://www.w3.org/2000/svg" width="128" height="128" viewBox="0 0 128 128">    <path d="M 24 1 C 11.3 1 1 11.3 1 24 L 1 60.699219 C 1 62.399219 2.3 63.699219 4 63.699219 C 5.7 63.699219 7 62.399219 7 60.699219 L 7 24 C 7 14.6 14.6 7 24 7 L 74 7 C 83.4 7 91 14.6 91 24 L 91 46.800781 C 91 48.500781 92.3 49.800781 94 49.800781 C 95.7 49.800781 97 48.500781 97 46.800781 L 97 24 C 97 11.3 86.7 1 74 1 L 24 1 z M 49 24 C 43.5 24 39 28.5 39 34 C 39 37 40.300391 39.6 42.400391 41.5 C 26.300391 43.7 12.200781 54 5.3007812 69 C 2.5007813 75.3 1 82 1 89 C 1 102.9 6.9996094 116.10078 17.599609 125.30078 C 18.099609 125.80078 18.799609 126 19.599609 126 L 60.5 126 C 62.2 126 63.5 124.7 63.5 123 C 63.5 121.3 62.2 120 60.5 120 L 20.699219 120 C 11.999219 112 7 100.8 7 89 C 7 82.9 8.3007812 77 10.800781 71.5 C 12.100781 68.7 13.6 66.099219 15.5 63.699219 L 64 63.699219 C 65.7 63.699219 67 62.399219 67 60.699219 C 67 58.999219 65.7 57.699219 64 57.699219 L 21 57.699219 C 28.6 50.999219 38.5 47 49 47 C 66.1 47 81.300781 57.2 87.800781 73 C 88.400781 74.5 90.199219 75.299609 91.699219 74.599609 C 93.199219 73.999609 94.000781 72.199219 93.300781 70.699219 C 86.700781 54.699219 72.3 43.8 55.5 41.5 C 57.7 39.6 59 37 59 34 C 59 28.5 54.5 24 49 24 z M 49 30 C 51.2 30 53 31.8 53 34 C 53 36.2 51.2 38 49 38 C 46.8 38 45 36.2 45 34 C 45 31.8 46.8 30 49 30 z M 101 57.699219 C 99.3 57.699219 98 58.999219 98 60.699219 C 98 62.399219 99.4 63.699219 101 63.699219 L 106.40039 63.699219 L 98.900391 80.400391 C 98.200391 81.900391 98.900391 83.700391 100.40039 84.400391 C 100.80039 84.600391 101.19961 84.699219 101.59961 84.699219 C 102.69961 84.699219 103.80078 84.000391 104.30078 82.900391 L 113.69922 62 C 114.09922 61.1 114 59.999609 113.5 59.099609 C 112.9 58.199609 112 57.699219 111 57.699219 L 101 57.699219 z M 78.261719 77.900391 C 77.499219 77.900391 76.749219 78.200781 76.199219 78.800781 L 75.199219 79.800781 C 62.999219 92.000781 62.999219 111.8 75.199219 124 L 76.199219 125 C 76.699219 125.5 77.500781 125.90039 78.300781 125.90039 L 79.699219 125.90039 C 96.999219 126.00039 111 111.99922 111 94.699219 L 111 93.300781 C 111 91.600781 109.7 90.300781 108 90.300781 L 106.59961 90.300781 C 91.399609 90.300781 78.800391 101.1 75.900391 115.5 C 70.000391 106.2 70.800781 93.800391 78.300781 85.400391 C 79.800781 87.000391 81 88.799219 82 90.699219 C 82.7 92.199219 84.5 92.8 86 92 C 87.5 91.3 88.100781 89.5 87.300781 88 C 85.800781 85 83.800391 82.200781 81.400391 79.800781 L 80.400391 78.800781 C 79.800391 78.200781 79.024219 77.900391 78.261719 77.900391 z"/></svg>