<svg xmlns="http://www.w3.org/2000/svg" viewBox="0 0 48 48"><rect width="2.244" height="6.16" x="36.314" y="20.583" fill="#d6e5e5"/><polygon fill="#d6e5e5" points="27.257,38.25 20.656,38.25 20.999,35.778 26.96,35.778"/><polygon fill="#d6e5e5" points="12.959,27.5 10.863,27.667 10.708,21 13.127,20.583"/><polygon fill="#d6e5e5" points="28.832,12.886 21.085,12.511 21.085,10.097 28.832,10.472"/><path fill="#73a1b2" d="M14.047,18.344l-4.852,0.163c-0.159,0.673-0.164,1.382-0.016,2.058 c1.484,0.404,3.058,0.117,4.569-0.172c0.271-0.052,0.589-0.142,0.678-0.403C14.582,19.54,13.914,18.8,14.047,18.344z"/><path fill="#73a1b2" d="M20.998,9.401c0-0.079-0.003-0.164-0.054-0.224c-0.058-0.069-0.159-0.08-0.25-0.085 c-0.731-0.04-1.466-0.017-2.193,0.07l0.027,3.782c0.731,0.08,1.352,0.452,1.995,0.115c0.436-0.229,0.49-0.82,0.487-1.312 C21.006,10.965,21.002,10.183,20.998,9.401z"/><path fill="#73a1b2" d="M29.653,9.419c-0.267,0.097-0.541,0.231-0.688,0.474c-0.147,0.242-0.14,0.543-0.128,0.826 c0.05,1.168,0.118,2.335,0.205,3.501c0.679-0.048,1.359-0.087,2.039-0.115l0.08-4.967C30.647,9.149,30.136,9.244,29.653,9.419z"/><path fill="#73a1b2" d="M39.415,18.334l-4.555,0.006c-0.038,0.412-0.144,1.048-0.182,1.461 c-0.021,0.229-0.009,0.518,0.201,0.611c0.066,0.029,0.14,0.031,0.212,0.033c1.379,0.037,2.759,0.073,4.138,0.11 c0.057,0.002,0.122,0,0.16-0.043c0.031-0.035,0.033-0.087,0.032-0.134C39.419,19.696,39.417,19.015,39.415,18.334z"/><path fill="#73a1b2" d="M39.909,27.057c-0.028-0.115-0.178-0.138-0.296-0.138c-1.681-0.001-3.362,0.283-5.043,0.281 c-0.128,0-0.262,0.001-0.375,0.063c-0.132,0.073-0.209,0.215-0.27,0.353c-0.205,0.471-0.302,0.988-0.281,1.501l5.945-0.284 c-0.069-0.541,0.027-1.103,0.273-1.59C39.892,27.184,39.925,27.12,39.909,27.057z"/><path fill="#73a1b2" d="M20.743,34.689c-0.469-0.042-0.938-0.084-1.408-0.126l-0.25,4.27 c0.585,0.003,0.585,0.003,1.17,0.005c0.08,0,0.164-0.001,0.231-0.044c0.102-0.065,0.127-0.201,0.142-0.321 c0.069-0.546,0.138-1.093,0.207-1.639C20.926,36.116,21.012,35.361,20.743,34.689z"/><path fill="#73a1b2" d="M29.281,34.109c-0.629,0.117-1.528,0.349-2.157,0.465c-0.353,1.295-0.079,2.668,0.196,3.982 c0.037,0.175,0.092,0.375,0.254,0.451c0.083,0.039,0.178,0.036,0.269,0.033c0.607-0.02,1.215-0.04,1.822-0.06L29.281,34.109z"/><path fill="#73a1b2" d="M14.541,27.459c-0.06-0.12-0.227-0.121-0.36-0.105c-1.442,0.172-2.883,0.345-4.325,0.517 c-0.079,0.009-0.165,0.022-0.219,0.081c-0.042,0.046-0.055,0.11-0.065,0.17c-0.107,0.618-0.095,1.257,0.034,1.87l4.871-0.245 c0.029-0.709,0.057-1.418,0.086-2.127C14.564,27.566,14.566,27.509,14.541,27.459z"/><path fill="#4b7bb2" d="M7.5,4.833C6.637,4.978,6.078,5.275,5.691,6.059S5.296,7.755,5.296,8.63 c0.001,2.853-0.001,4.976,0,7.829c0,0.114-0.006,0.973,0.069,1.059c0.24,0.275,0.681,0.306,0.794,0.331 c1.924,0.43,3.244,0.409,5.143,0.352c1.848-0.055,3.696-0.111,5.544-0.166c0.248-0.007,0.508-0.018,0.724-0.142 c0.249-0.143,0.395-0.413,0.506-0.678c0.696-1.65,0.534-3.519,0.359-5.301c-0.164-1.673-0.328-3.345-0.492-5.018 c-0.04-0.411-0.089-0.843-0.333-1.176c-0.398-0.541-1.159-0.629-1.83-0.667c-1.533-0.088-3.068-0.159-4.603-0.214 C9.961,4.796,8.701,4.63,7.5,4.833z"/><path fill="#4b7bb2" d="M42.354,4.82c-2.177,0.001-3.982-0.005-6.334,0c-1.119,0.002-2.253,0.006-3.334,0.298 c-0.496,0.134-1.008,0.353-1.283,0.786C31.151,6.301,31.144,6.8,31.145,7.27c0.007,2.418,0.013,4.836,0.02,7.254 c0.002,0.827,0.02,1.706,0.474,2.397c0.744,1.133,2.309,1.301,3.663,1.356c1.783,0.073,3.582,0.144,5.341-0.158 c0.68-0.117,1.38-0.304,1.89-0.768c0.849-0.772,0.935-2.054,0.962-3.201c0.04-1.672,0.08-3.344,0.12-5.016 c0.028-1.184,0.045-1.657-0.166-2.822C43.329,5.649,43.458,4.82,42.354,4.82z"/><path fill="#4b7bb2" d="M16.969,29.584c-2.373,0.165-4.475,0.286-6.848,0.451c-1.8,0.125-3.87,0.403-4.833,1.929 c-0.501,0.794-0.584,1.776-0.609,2.715c-0.045,1.705,0.058,3.414,0.308,5.101c0.165,1.115,0.458,2.326,1.367,2.993 c0.709,0.519,1.64,0.59,2.518,0.622c1.685,0.061,3.372,0.047,5.056-0.042c0.934-0.05,1.882-0.126,2.758-0.453 c0.876-0.328,1.685-0.942,2.048-1.804c0.241-0.572,0.271-1.207,0.299-1.826c0.111-2.532,0.188-4.261,0.299-6.792 c0.036-0.82,0.36-2.176-0.353-2.581C18.394,29.563,17.648,29.481,16.969,29.584z"/><path fill="#4b7bb2" d="M41.795,29.041c-3.43,0.037-6.637,0.004-10.296,0.307c-0.438,0.036-0.891,0.077-1.276,0.288 c-0.925,0.508-1.1,1.753-1.057,2.808c0.112,2.785,0.97,4.528,0.795,7.309c-0.066,1.052-0.227,2.266,0.515,3.016 c0.532,0.538,1.355,0.632,2.11,0.679c2.71,0.169,5.433,0.121,8.135-0.143c0.653-0.064,1.345-0.156,1.853-0.572 c0.739-0.604,0.851-1.673,0.907-2.626c0.1-1.718-0.129-3.436-0.029-5.155c0.103-1.767,0.296-2.1,0.084-3.858 c-0.063-0.521-0.17-1.073-0.536-1.45C42.634,29.268,42.686,29.031,41.795,29.041z"/><path fill="#010101" d="M44.052,33.732c0.082-0.848,0.136-1.407-0.02-2.699c-0.075-0.619-0.209-1.259-0.673-1.736 c-0.064-0.066-0.112-0.128-0.156-0.184c-0.322-0.402-0.6-0.542-1.412-0.572l-1.699,0.014c-0.011-0.375,0.05-0.754,0.219-1.089 c0.046-0.093,0.143-0.286,0.085-0.528c-0.03-0.122-0.174-0.521-0.781-0.521c-0.003,0-0.006,0-0.009,0 c-0.18,0-0.359,0.013-0.539,0.019c-0.026-0.035-0.05-0.071-0.086-0.099c-0.013-0.01-0.025-0.019-0.039-0.027l0.044-5.262 l0.225,0.006c0.012,0,0.023,0,0.035,0c0.218,0,0.392-0.071,0.523-0.219c0.151-0.178,0.151-0.382,0.151-0.46l-0.004-1.67 c0.271-0.031,0.542-0.049,0.812-0.095c0.667-0.115,1.513-0.32,2.142-0.892c0.982-0.893,1.096-2.306,1.126-3.56l0.121-5.085 c0.027-1.141,0.04-1.661-0.175-2.854c-0.019-0.101-0.03-0.205-0.042-0.31c-0.063-0.557-0.18-1.591-1.543-1.591 c-0.001,0-0.001,0-0.002,0l-2.428-0.001c-1.238-0.001-2.47-0.004-3.906,0.001c-1.137,0.002-2.312,0.004-3.463,0.315 c-0.763,0.205-1.278,0.533-1.575,1c-0.339,0.533-0.337,1.17-0.335,1.635l0.004,1.419c-0.396,0.047-0.789,0.123-1.168,0.26 c-0.316,0.115-0.709,0.298-0.943,0.685c-0.052,0.085-0.088,0.174-0.118,0.263c-2.273-0.137-4.598-0.232-6.921-0.287l-0.001-0.211 c0-0.103-0.002-0.342-0.172-0.544c-0.203-0.24-0.495-0.256-0.604-0.262c-0.699-0.041-1.405-0.015-2.104,0.059l-0.177-1.805 c-0.041-0.41-0.096-0.971-0.428-1.424c-0.573-0.776-1.634-0.837-2.204-0.869c-1.538-0.088-3.075-0.16-4.614-0.215 c-0.297-0.01-0.596-0.028-0.897-0.046C9.354,4.236,8.378,4.178,7.417,4.34C6.644,4.47,5.78,4.749,5.243,5.838 C4.795,6.744,4.795,7.79,4.796,8.63v7.853c-0.002,1.039,0.054,1.206,0.191,1.362c0.323,0.371,0.813,0.451,1.063,0.492 c0.974,0.217,1.788,0.319,2.604,0.363c-0.111,0.652-0.104,1.326,0.037,1.971c0.04,0.182,0.177,0.326,0.357,0.375 c0.386,0.105,0.774,0.155,1.163,0.185c0.007,1.98,0.057,3.982,0.153,5.958c0.002,0.041,0.017,0.077,0.028,0.114l-0.597,0.071 c-0.113,0.014-0.347,0.043-0.529,0.242c-0.14,0.154-0.171,0.332-0.187,0.42c-0.09,0.523-0.079,1.064-0.015,1.596 c-1.726,0.205-3.327,0.682-4.199,2.064c-0.558,0.882-0.659,1.948-0.687,2.969c-0.045,1.729,0.06,3.476,0.313,5.188 c0.179,1.206,0.504,2.544,1.566,3.322c0.819,0.601,1.831,0.684,2.796,0.719c0.69,0.024,1.384,0.037,2.077,0.037 c1.011,0,2.022-0.026,3.023-0.08c0.952-0.051,1.961-0.13,2.907-0.483c1.1-0.411,1.951-1.168,2.334-2.078 c0.271-0.645,0.307-1.338,0.335-1.955l0.725,0.004c0.108,0,0.309,0,0.501-0.123c0.224-0.144,0.307-0.369,0.342-0.532 c0.071,0.039,0.148,0.066,0.235,0.066h5.52c0.049,0.208,0.158,0.546,0.512,0.712c0.15,0.069,0.297,0.08,0.409,0.08 c0.032,0,0.061,0,0.086-0.001l1.606-0.053c-0.003,0.08,0.002,0.152-0.004,0.234l-0.019,0.277c-0.071,1.014-0.159,2.276,0.677,3.121 c0.657,0.664,1.601,0.774,2.434,0.826c1.063,0.066,2.131,0.1,3.201,0.1c1.675,0,3.353-0.081,5.015-0.243 c0.739-0.073,1.511-0.187,2.12-0.684c0.888-0.726,1.027-1.921,1.089-2.983c0.052-0.884,0.019-1.771-0.013-2.628 c-0.031-0.832-0.063-1.692-0.015-2.527C43.981,34.465,44.019,34.073,44.052,33.732z M39.09,28.564 c-1.634,0.014-3.246,0.039-4.915,0.116c0.031-0.297,0.09-0.591,0.209-0.864c0.033-0.074,0.053-0.106,0.048-0.111 c0.025-0.004,0.073-0.005,0.108-0.005c0.016-0.001,0.027-0.001,0.039,0c0.859,0,1.721-0.072,2.555-0.143 c0.689-0.059,1.398-0.118,2.112-0.134C39.121,27.79,39.082,28.178,39.09,28.564z M28.667,32.464 c0.019,0.46,0.061,0.885,0.111,1.296l-1.744,0.323c-0.189,0.034-0.341,0.175-0.392,0.359c-0.069,0.254-0.11,0.509-0.14,0.763 l-5.115,0.067c-0.03-0.259-0.079-0.518-0.18-0.77c-0.07-0.175-0.232-0.296-0.42-0.313l-1.026-0.092l0.07-1.599 c0.007-0.155,0.025-0.33,0.043-0.514c0.086-0.861,0.206-2.04-0.649-2.525c-0.635-0.361-1.479-0.499-2.311-0.374 c-0.656,0.045-1.29,0.087-1.917,0.128l0.064-1.576c0.003-0.083,0.009-0.239-0.074-0.404c-0.085-0.171-0.312-0.447-0.866-0.376 l-0.397,0.047c-0.033-0.054-0.075-0.104-0.129-0.144c-0.024-0.019-0.049-0.033-0.075-0.047c-0.126-1.881-0.057-3.781,0.208-5.649 c0.008-0.055,0-0.107-0.009-0.159c0.041-0.008,0.083-0.015,0.124-0.023c0.236-0.045,0.864-0.165,1.058-0.731 c0.155-0.452-0.084-0.836-0.242-1.09c-0.051-0.083-0.138-0.222-0.146-0.252c0.02-0.069,0.023-0.139,0.014-0.207l2.332-0.07 c0.265-0.008,0.628-0.018,0.96-0.209c0.387-0.223,0.586-0.606,0.717-0.916c0.52-1.232,0.588-2.585,0.529-3.85 c0.276,0.067,0.571,0.138,0.881,0.138c0.26,0,0.531-0.05,0.809-0.196c0.225-0.118,0.378-0.29,0.489-0.48 c0.294,0.01,0.589,0.021,0.884,0.035l6.362,0.298c0.02,0.301,0.03,0.603,0.053,0.904c0.02,0.263,0.239,0.463,0.498,0.463 c0.012,0,0.023,0,0.036-0.001c0.53-0.038,1.06-0.064,1.591-0.09c0.003,0.763,0.026,1.763,0.554,2.565 c0.663,1.01,1.808,1.367,3.055,1.506l-0.097,1.053c-0.065,0.712,0.235,0.999,0.496,1.114c0.156,0.069,0.304,0.073,0.401,0.076 l0.653,0.017c0.103,0.737,0.139,1.495,0.157,2.236c0.011,0.425,0.021,1.1,0.032,1.774c0.007,0.47,0.015,0.939,0.022,1.326 c-0.044,0.096-0.058,0.207-0.032,0.318l0.007,0.031c-0.447,0.03-0.894,0.052-1.333,0.052c-0.002,0-0.005,0-0.008,0 c-0.146-0.002-0.387-0.003-0.619,0.124c-0.267,0.146-0.401,0.393-0.488,0.592c-0.181,0.416-0.264,0.866-0.293,1.318 c-0.564,0.033-1.129,0.067-1.716,0.115c-0.442,0.036-0.991,0.081-1.476,0.348C29.057,29.706,28.602,30.835,28.667,32.464z M37.941,26.492c-0.299,0.022-0.598,0.044-0.891,0.069c-0.034,0.003-0.069,0.005-0.103,0.008c-0.01-0.424-0.019-1.013-0.029-1.612 c-0.011-0.678-0.021-1.355-0.032-1.783c-0.018-0.715-0.057-1.45-0.148-2.184l1.249,0.033l-0.046,5.465 C37.94,26.489,37.941,26.49,37.941,26.492z M38.919,20.046l-3.75-0.09c0-0.029,0.001-0.065,0.005-0.11l0.099-1.07 c0.003,0,0.006,0,0.009,0c0.779,0.031,1.57,0.063,2.366,0.063c0.422,0,0.845-0.017,1.268-0.04L38.919,20.046z M31.825,6.173 c0.157-0.247,0.481-0.435,0.992-0.572c1.024-0.276,2.133-0.278,3.205-0.28c0.709-0.002,1.368-0.002,2.002-0.002 c0.65,0,1.275,0.001,1.901,0.001l2.43,0.001c0,0,0,0,0,0c0.001,0,0.002,0,0.003,0c0.442,0,0.478,0.08,0.548,0.703 c0.014,0.127,0.029,0.254,0.051,0.375c0.197,1.093,0.187,1.518,0.158,2.722l-0.12,5.017c-0.026,1.095-0.109,2.216-0.799,2.843 c-0.435,0.396-1.072,0.548-1.638,0.646c-1.715,0.294-3.504,0.222-5.235,0.151c-1.347-0.055-2.674-0.23-3.266-1.131 c-0.388-0.59-0.39-1.44-0.392-2.123l-0.015-5.343c0.002-0.018,0.01-0.034,0.009-0.052c0-0.016-0.008-0.029-0.01-0.045l-0.005-1.814 C31.644,6.81,31.656,6.438,31.825,6.173z M29.393,10.152c0.074-0.122,0.282-0.209,0.431-0.264c0.269-0.098,0.548-0.157,0.829-0.198 l0.011,3.935c-0.386,0.019-0.773,0.037-1.159,0.062c-0.07-0.996-0.125-1.993-0.168-2.99C29.328,10.52,29.318,10.275,29.393,10.152z M28.346,10.894c0.021,0.486,0.057,0.971,0.085,1.456l-6.256-0.293c-0.223-0.011-0.448-0.018-0.672-0.027 c0.005-0.112,0.006-0.213,0.006-0.286l-0.005-1.134C23.8,10.665,26.099,10.759,28.346,10.894z M20.499,9.584l0.01,2.166 c0.002,0.497-0.071,0.788-0.219,0.866c-0.263,0.139-0.536,0.083-0.995-0.03c-0.096-0.023-0.201-0.037-0.3-0.059 c-0.02-0.226-0.042-0.448-0.063-0.662l-0.217-2.22C19.298,9.585,19.888,9.56,20.499,9.584z M5.816,17.244 c-0.01-0.113-0.021-0.342-0.02-0.786V8.63c0-0.774-0.001-1.652,0.343-2.349C6.423,5.707,6.8,5.457,7.583,5.326h0 c0.848-0.145,1.767-0.088,2.656-0.035c0.309,0.019,0.616,0.037,0.921,0.048c1.531,0.055,3.062,0.125,4.592,0.213 c0.562,0.032,1.185,0.097,1.455,0.464c0.17,0.231,0.207,0.603,0.239,0.929l0.491,5.019c0.16,1.633,0.342,3.484-0.322,5.058 c-0.064,0.152-0.166,0.363-0.295,0.438c-0.112,0.065-0.321,0.07-0.49,0.075L11.287,17.7c-1.909,0.057-3.173,0.072-5.117-0.357 C6.09,17.33,5.926,17.303,5.816,17.244z M9.667,18.73c0.022,0,0.043,0.001,0.065,0.001c0.494,0,1.011-0.014,1.584-0.031 l2.225-0.067c-0.068,0.392,0.119,0.717,0.268,0.957c0.054,0.088,0.15,0.255,0.161,0.209c-0.013,0.013-0.074,0.056-0.315,0.102 c-1.281,0.245-2.719,0.52-4.042,0.252C9.547,19.681,9.57,19.197,9.667,18.73z M11.211,21.248c0.511-0.024,1.016-0.083,1.509-0.164 c-0.265,1.946-0.329,3.923-0.185,5.879c0.002,0.027,0.013,0.055,0.018,0.083l-1.198,0.143c0.001-0.017,0.008-0.031,0.007-0.048 C11.268,25.187,11.219,23.206,11.211,21.248z M10.042,28.353l4.009-0.479l-0.057,1.405c-0.16,0.01-0.322,0.021-0.482,0.031 c-1.12,0.071-2.239,0.143-3.427,0.225c-0.011,0.001-0.023,0.002-0.034,0.003C10.003,29.149,9.988,28.752,10.042,28.353z M18.274,40.901c-0.277,0.657-0.919,1.215-1.763,1.529c-0.813,0.305-1.735,0.376-2.61,0.423c-1.658,0.087-3.344,0.104-5.011,0.041 c-0.81-0.028-1.65-0.093-2.24-0.525c-0.766-0.561-1.02-1.66-1.168-2.662c-0.245-1.655-0.347-3.343-0.302-5.015 c0.021-0.817,0.083-1.749,0.532-2.462c0.805-1.276,2.612-1.57,4.444-1.697c1.186-0.082,2.303-0.153,3.421-0.226 c1.12-0.071,2.239-0.143,3.427-0.225c0.014-0.001,0.027-0.003,0.041-0.005c0.161-0.024,0.322-0.036,0.479-0.036 c0.451,0,0.876,0.099,1.209,0.288c0.288,0.164,0.204,1.001,0.148,1.556c-0.021,0.204-0.04,0.398-0.047,0.57l-0.299,6.791 C18.508,39.817,18.482,40.407,18.274,40.901z M20.339,36.771l-0.2,1.566l-0.564-0.003l0.142-3.237l0.648,0.058 C20.478,35.667,20.405,36.248,20.339,36.771z M21.22,37.773l0.111-0.876c0.025-0.196,0.048-0.406,0.067-0.623l4.746-0.062 c0.029,0.012,0.06,0.021,0.091,0.026c0.077,0.016,0.155,0.011,0.232,0.007c0.023,0.512,0.093,1.017,0.182,1.505h-5.316 C21.293,37.75,21.258,37.764,21.22,37.773z M27.83,38.539c-0.006-0.021-0.013-0.05-0.02-0.085c-0.229-1.093-0.485-2.32-0.272-3.448 l1.382-0.256c0.057,0.336,0.116,0.667,0.176,0.99c0.169,0.903,0.326,1.776,0.371,2.746L27.83,38.539z M43.057,33.637 c-0.034,0.351-0.073,0.754-0.104,1.285c-0.052,0.883-0.019,1.768,0.014,2.624c0.031,0.833,0.063,1.695,0.015,2.531 c-0.052,0.891-0.15,1.799-0.724,2.268c-0.393,0.321-0.974,0.402-1.585,0.462c-2.669,0.261-5.38,0.31-8.056,0.142 c-0.649-0.04-1.376-0.118-1.786-0.531c-0.518-0.523-0.453-1.451-0.39-2.349l0.019-0.284c0.103-1.637-0.143-2.954-0.381-4.228 c-0.18-0.964-0.366-1.962-0.414-3.133c-0.034-0.854,0.077-1.954,0.799-2.35c0.297-0.164,0.693-0.196,1.076-0.229 c3.023-0.251,5.702-0.27,8.538-0.29l1.722-0.015c0.458,0.004,0.483,0.026,0.62,0.196c0.062,0.077,0.13,0.162,0.221,0.256 c0.258,0.266,0.344,0.715,0.397,1.161C43.182,32.337,43.135,32.826,43.057,33.637z"/></svg>