<svg xmlns="http://www.w3.org/2000/svg" viewBox="0 0 100 100"><path d="M 50 11 C 44.488666 11 40 15.488666 40 21 L 40 36.357422 L 29.742188 42 L 20 42 A 1.0001 1.0001 0 1 0 20 44 L 30 44 A 1.0001 1.0001 0 0 0 30.482422 43.876953 L 41.482422 37.826172 L 59.482422 27.925781 L 70.257812 22 L 80 22 A 1.0001 1.0001 0 1 0 80 20 L 70 20 A 1.0001 1.0001 0 0 0 69.517578 20.123047 L 60 25.357422 L 60 21 C 60 15.488666 55.511334 11 50 11 z M 50 13 C 54.430666 13 58 16.569334 58 21 L 58 26.457031 L 58 26.458984 L 54 28.658203 L 54 21 C 54 18.798843 52.201157 17 50 17 C 47.798843 17 46 18.798843 46 21 L 46 33.058594 L 42 35.257812 L 42 21 C 42 16.569334 45.569334 13 50 13 z M 50 18 C 51.658843 18 53 19.341157 53 21 L 53 29.207031 L 53 29.208984 L 47 32.507812 L 47 21 C 47 19.341157 48.341157 18 50 18 z M 58.984375 31.986328 A 1.0001 1.0001 0 0 0 58 33 L 58 58.773438 A 1.0001 1.0001 0 0 0 58.4375 59.599609 C 62.398424 62.300239 65 66.837546 65 72 C 65 80.296621 58.296621 87 50 87 C 41.703379 87 35 80.296621 35 72 C 35 66.837546 37.601576 62.300239 41.5625 59.599609 A 1.0001 1.0001 0 0 0 42 58.773438 L 42 42.900391 A 1.0001 1.0001 0 1 0 40 42.900391 L 40 58.328125 C 35.781101 61.421082 33 66.373093 33 72 C 33 81.377379 40.622621 89 50 89 C 59.377379 89 67 81.377379 67 72 C 67 66.373093 64.218899 61.421082 60 58.328125 L 60 33 A 1.0001 1.0001 0 0 0 58.984375 31.986328 z M 53.492188 34.947266 A 0.50005 0.50005 0 0 0 53 35.455078 L 53 36.5 A 0.50005 0.50005 0 1 0 54 36.5 L 54 35.455078 A 0.50005 0.50005 0 0 0 53.492188 34.947266 z M 46.492188 38.798828 A 0.50005 0.50005 0 0 0 46 39.304688 L 46 61.416016 L 43.816406 62.90625 C 40.801765 64.95964 39 68.36106 39 72 C 39 78.061157 43.938843 83 50 83 C 56.061157 83 61 78.061157 61 72 C 61 68.36106 59.19813 64.958663 56.183594 62.904297 L 54 61.416016 L 54 46.5 A 0.50005 0.50005 0 1 0 53 46.5 L 53 61.681641 A 0.50005 0.50005 0 0 0 53.21875 62.09375 L 55.621094 63.730469 C 58.364558 65.600103 60 68.69094 60 72 C 60 77.518843 55.518843 82 50 82 C 44.481157 82 40 77.518843 40 72 C 40 68.69094 41.635547 65.601031 44.378906 63.732422 L 46.78125 62.09375 A 0.50005 0.50005 0 0 0 47 61.681641 L 47 39.304688 A 0.50005 0.50005 0 0 0 46.492188 38.798828 z M 53.492188 38.992188 A 0.50005 0.50005 0 0 0 53 39.5 L 53 43.5 A 0.50005 0.50005 0 1 0 54 43.5 L 54 39.5 A 0.50005 0.50005 0 0 0 53.492188 38.992188 z"/></svg>