<svg xmlns="http://www.w3.org/2000/svg" width="512" height="512" viewBox="0 0 512 512"><path fill="#C56528" d="M347.8 147.6c-1.9-11.5-2.6-23.3-5.4-34.7-2.4-9.8-2-20.3-3.7-30.2-1.5-9.3-3.4-21.7-11.9-27.4-8.2-5.5-19.6-4.2-28.8-2.8-3.1.4-6.1.8-9.2 1.3 2.5 21.4 9.8 41.9 14.1 62.9.5 2.3.9 4.7 1.4 7 4.5-.7 8.9-1.3 13.4-2.1 4.6-.8 11.3-1.6 15-5 5.2-4.7 13.5 2.5 8.3 7.3-9.1 8.3-23 8.8-34.7 10.5 2.6 14.9 4.9 29.9 8.8 44.5 8.6-4.9 17.9-10.1 24.7-16.9 3.5-3.5 7-7 10.5-10.5C349 150.7 348.1 149.4 347.8 147.6zM246.8 203.6c-3.1.7-6.2 1.5-9.3 2.2-3.6.8-7.2 1.6-10.6 2.9-.5.2-1 .4-1.6.6 7.8 1.8 15.8 3.2 23.7 3.8C248.3 209.9 247.5 206.8 246.8 203.6zM292.3 119.1c-4.4-21.4-11.7-42.3-14.3-64-14.5 1.8-29.1 3.5-43.6 5.3.4 25.4 3.8 50.6 8.6 75.6 1.1-.2 2.1-.4 3.2-.7 15.7-3.6 31.6-6.5 47.5-9.6C293.1 123.5 292.7 121.3 292.3 119.1zM295.4 136.2c-15.3 2.8-30.6 6.1-45.7 9.5-1.6.3-3.2.7-4.7 1 3 14.8 6.5 29.4 10 44.1 13.8-2.1 29.5.8 42.5-5.2 2.1-1 3.9-.5 5.2.6.9-.5 1.7-1 2.6-1.5C300.8 168.7 298.2 152.4 295.4 136.2z"/><path fill="#BCBCBC" d="M234.2 148.7c-13.7 2.4-27.5 4-41.4 5.1.2 5.8.4 11.6.7 17.5.5 9.4.3 21.5 5.3 29.9.2.3.3.6.4.9.8.3 1.6.5 2.5.8 3.2 1 6.4 1.9 9.7 2.9.2-.8.5-1.6 1.1-2.2 1.7-2 5.6-3.2 8-4.2 3.8-1.5 7.8-2.6 11.8-3.5 3.9-.9 7.9-2 11.9-2.9C240.7 178.2 237.3 163.5 234.2 148.7zM370 155.4c-1.8-6.8-5.4-10-11.5-10.4.1.6.2 1.2.3 1.7.1.7.1 1.3 0 1.8 2.9 1.5 4.6 5.3 1.6 8.2-4.1 4.1-8.3 8.3-12.4 12.4-7.5 7.5-17.3 12.9-26.3 18.4-1.2.7-2.4 1.4-3.6 2.2 0 .2.1.3.1.5 1.1 5.1-5.5 7.2-8.9 4.7-2.9 1.7-5.8 3.4-8.6 5.1 7.8-1.7 16.2-1.4 24.3 1.2 14.1 4.4 25.1 14.6 30.9 27.6 4.9-13.7 9.5-27.4 12.4-41.7C370.3 177.1 372.7 165.4 370 155.4z"/><path fill="#C56528" d="M259.8,201.2c-0.8,0.1-1.5,0.2-2.3,0.3c1,4,1.9,8,2.9,12c1.7,0,3.5-0.1,5.2-0.3c1-3.1,4.8-4.7,7.6-3.6c1.8-3.6,4.6-6.7,7.7-9.4C273.8,200.6,266.6,200.4,259.8,201.2z"/><path fill="#D6E5E5" d="M390.5,340.1c-3.9-30.1-7.7-60.2-11.1-90.3c-1.6-13.9-2.1-28.4-5-42.1c-4.2,14.3-9.6,28.4-14.7,42.4c-1.9,5.2-10.2,3.1-10.4-2c-0.8-16.4-11.1-31.7-27.4-36.4c-15.8-4.6-30.9,0.6-40.8,13.2c-9.8,28.5-47,31.2-72.8,28.3c-18.4-2.1-36.2-7.8-54.7-9.8c-4.3-0.5-8.6-0.7-13-0.8c0,0,0,0,0,0c-5.2,7.9-3.5,19.3-2.2,28.2c1.7,11.3,4.5,22.3,7,33.5c6.6,30.2,9.5,61.3,12.3,92c1.1,12.1,1.7,23.9,2,36c0.2,8.7,0.3,18.1,4,26.1c4.1,8.8,12.2,11.7,21.1,13.3c14.2,2.5,28.5,3.4,42.9,3.3c27.6-0.2,55-3.5,82.2-7.9c24.8-3.9,51.1-9.1,71.6-24.5c0.7-0.6,1.6-1.1,2.6-1.2c1.1-0.1,2.2,0.2,3.1,0.8c1,0.5,1.9,0.5,1,0.8c0.6-0.2,0.5,0,1.3-1.1c1.4-1.9,2.4-5.1,3.1-7.6c1.6-6.6,2.5-13.5,2.9-20.4C396.8,389.4,393.6,364.5,390.5,340.1z"/><path fill="#BCBCBC" d="M201,214c-12.2-3.7-24.1-8.1-35.8-13.2c-12.2-5.4-24.6-11.1-38-12.2c-1.5-0.1-2.6-0.7-3.3-1.6c-0.8-0.2-1.6-0.6-2.3-1.2c-1-0.9-1.9-2.3-1.9-3.7v-1.5c0-1.5,0.3-2.9,1.4-4.1c0.8-0.9,1.8-1.4,2.9-1.7c0-0.9-0.1-1.9-0.2-2.8c-4.7,0.3-7.2,4.4-9.2,9.7c-3,8.1-3.9,17.1-4.9,25.7c-1.1,9-1.5,20-4.2,29.9c12.4-4.8,26-6.2,39.4-5.5c19.6,1.1,38.1,6.2,57.3,9.5c20.1,3.5,57.8,5.4,67.7-17.4C247,226.6,222.7,220.6,201,214z"/><path fill="#C56528" d="M223.3 61.8c-2.2.3-4.4.6-6.6.9-13.3 1.9-26.6 3.7-40 5.4.1.6.1 1.3.3 1.9.6 2.5 1.2 4.9 2 7.3 1.3 4.3 2.7 8.6 3.6 13 3.2 15 6.9 29.7 8.8 45 .3 2.6.6 5.1.8 7.7 13.4-1 26.7-2.5 39.9-4.9C227.2 112.9 223.8 87.5 223.3 61.8zM180 132.5c-2.1-14.7-5-29.8-9.1-44-1.5-5-4.9-12.4-5.3-19-12.2 1.4-24.5 2.7-36.8 3.5.9 2.1.3 4.2-1 5.7 0 .7 0 1.4 0 2.1 0 2.1-.4 4.2-.4 6.3 0 4.5.4 9 .9 13.5.9 8.6 1.1 17.2 2 25.7.6 6.2 1.4 12.4 2.1 18.6.5-.1 1-.2 1.5-.2 15.7 0 31.6-.2 47.4-1C180.9 139.9 180.5 136.2 180 132.5zM182.6 172c-.3-5.9-.5-11.7-.7-17.6-15.7.9-31.4 1.2-47.2 1.2-.4 0-.8 0-1.2-.1.8 7.1 1.4 14.3 1.6 21.5.1.4.1.8.1 1.2v.3c11 2 21.5 6.5 31.7 11 6.2 2.7 12.4 5.3 18.7 7.7C183.4 189.1 183 180.2 182.6 172z"/><path d="M404.2,362.4c-3.2-31.5-8.1-62.7-11.6-94.2c-1.7-15.4-3.5-30.8-5.3-46.3c-0.7-6.3-1.4-12.5-2.7-18.8c-0.5-2.4-0.9-4.9-1.1-7.3c-0.1-1.2-0.1-2.4-0.1-3.6c0-0.7,0.9-2.4,0-1.6c4.2-3.5,1.4-9.9-2.7-10.3c1.7-10.6,2.5-22.4-1.6-32.3c-3.9-9.6-12.5-14-22.2-14.1c-1.1-7.8-2.1-15.6-3.8-23.3c-2.3-10.8-2.2-22.2-4.2-33.1c-1.9-10.5-4.8-21.5-12.8-29c-8.2-7.7-20.2-8.7-30.8-8c-7,0.4-13.9,1.5-20.9,2.5c-1.6-0.4-3.4-0.2-4.8,0.7c-3.2,0.4-6.3,0.8-9.5,1.2c-16.2,1.6-32.3,3.8-48.4,6c-32.2,4.5-64.4,9.3-96.8,11.3c-4.1,0.3-5.6,4.1-4.6,7.2c-0.6,0.3-1.1,0.7-1.5,1.2c-2.1,2.8-1.9,6-2,9.3c-0.1,4.3-0.5,8.6-0.3,12.9c0.5,9.6,1.4,19.2,2.2,28.7c1.1,13.2,3,26.3,4.3,39.5c-15.9,1.2-20.5,20.3-22.7,34.3c-1.6,10.1-2.4,20.3-4,30.4c-1,6.4-2.8,16.4-7.1,20.2c-5.2,4.5,0.3,13.4,6.2,9.1c9.9-7.2,21.2-10.8,32.9-12.1c-2.2,6.6-2.1,14.1-1.6,20.8c0.8,10.9,3.3,21.7,5.8,32.4c6,26.3,9.6,52.9,12.3,79.7c1.5,14.7,3.4,29.5,3.8,44.3c0.3,9.5,0,19.1,1.3,28.5c1.2,8.9,4.3,17,10.4,23.6c7.4,8,18.8,9.6,29,11.1c35.3,5.2,71.9,1.9,107-3.3c30.4-4.5,63.4-8.8,89.2-26.9c13.8,4.5,18.6-17.3,20-27.4C408.2,405,406.3,383.4,404.2,362.4z M360.4,156.8c3-3,1.3-6.7-1.6-8.2c0.1-0.5,0.1-1.2,0-1.8c-0.1-0.6-0.2-1.2-0.3-1.7c6.1,0.4,9.6,3.6,11.5,10.4c2.7,9.9,0.4,21.7-1.7,31.6c-2.9,14.3-7.5,28.1-12.4,41.7c-5.8-12.9-16.7-23.1-30.9-27.6c-8.1-2.6-16.5-2.8-24.3-1.2c2.9-1.7,5.8-3.4,8.6-5.1c3.5,2.5,10,0.4,8.9-4.7c0-0.2-0.1-0.3-0.1-0.5c1.2-0.7,2.4-1.4,3.6-2.2c9-5.5,18.8-10.9,26.3-18.4C352.1,165.1,356.3,160.9,360.4,156.8z M255,190.7c-3.5-14.6-6.9-29.3-10-44.1c1.6-0.3,3.2-0.6,4.7-1c15.1-3.4,30.4-6.7,45.7-9.5c2.8,16.3,5.3,32.5,9.8,48.4c-0.9,0.5-1.7,1-2.6,1.5c-1.2-1.2-3-1.6-5.2-0.6C284.5,191.5,268.8,188.6,255,190.7z M280.9,200.2c-3.1,2.7-5.9,5.8-7.7,9.4c-2.8-1.1-6.6,0.5-7.6,3.6c-1.7,0.1-3.5,0.2-5.2,0.3c-0.9-4-1.9-8-2.9-12c0.8-0.1,1.5-0.2,2.3-0.3C266.6,200.4,273.8,200.6,280.9,200.2z M249.1,213.1c-7.9-0.6-15.9-2-23.7-3.8c0.5-0.2,1-0.4,1.6-0.6c3.5-1.2,7.1-2.1,10.6-2.9c3.1-0.7,6.2-1.5,9.3-2.2C247.5,206.8,248.3,209.9,249.1,213.1z M298,52.4c9.2-1.3,20.6-2.7,28.8,2.8c8.4,5.7,10.3,18.1,11.9,27.4c1.7,9.9,1.3,20.5,3.7,30.2c2.8,11.4,3.5,23.2,5.4,34.7c0.3,1.8,1.2,3.1,2.5,3.8c-3.5,3.5-7,7-10.5,10.5c-6.8,6.8-16.1,12-24.7,16.9c-3.9-14.6-6.3-29.6-8.8-44.5c11.7-1.8,25.6-2.3,34.7-10.5c5.2-4.8-3.1-12-8.3-7.3c-3.6,3.3-10.4,4.1-15,5c-4.4,0.8-8.9,1.4-13.4,2.1c-0.4-2.4-0.9-4.7-1.4-7c-4.3-21-11.5-41.5-14.1-62.9C291.9,53.3,295,52.9,298,52.4z M277.9,55.1c2.6,21.7,10,42.6,14.3,64c0.4,2.2,0.9,4.4,1.3,6.5c-15.8,3.1-31.7,6-47.5,9.6c-1.1,0.2-2.1,0.5-3.2,0.7c-4.8-25-8.2-50.1-8.6-75.6C248.8,58.6,263.4,56.9,277.9,55.1z M244.2,192.9c-4,1-8,2-11.9,2.9c-4,0.9-8,2-11.8,3.5c-2.4,0.9-6.3,2.1-8,4.2c-0.5,0.6-0.9,1.4-1.1,2.2c-3.3-0.9-6.5-1.9-9.7-2.9c-0.8-0.3-1.6-0.5-2.5-0.8c-0.1-0.3-0.3-0.6-0.4-0.9c-5-8.4-4.8-20.5-5.3-29.9c-0.3-5.8-0.5-11.6-0.7-17.5c13.9-1.1,27.7-2.7,41.4-5.1C237.3,163.5,240.7,178.2,244.2,192.9z M216.7,62.7c2.2-0.3,4.4-0.6,6.6-0.9c0.4,25.7,3.9,51.1,8.8,76.3c-13.2,2.4-26.5,3.9-39.9,4.9c-0.2-2.6-0.4-5.2-0.8-7.7c-1.9-15.2-5.7-30-8.8-45c-0.9-4.4-2.4-8.7-3.6-13c-0.7-2.4-1.4-4.8-2-7.3c-0.1-0.6-0.2-1.2-0.3-1.9C190.1,66.4,203.4,64.6,216.7,62.7z M135.1,177c-0.3-7.2-0.9-14.3-1.6-21.5c0.4,0.1,0.8,0.1,1.2,0.1c15.7,0,31.5-0.3,47.2-1.2c0.3,5.8,0.4,11.7,0.7,17.6c0.4,8.1,0.8,17,3,25.2c-6.3-2.4-12.5-5-18.7-7.7c-10.2-4.5-20.7-9-31.7-11v-0.3C135.3,177.8,135.2,177.4,135.1,177z M127.8,80.8c0-0.7,0-1.4,0-2.1c1.3-1.5,1.9-3.6,1-5.7c12.3-0.8,24.6-2,36.8-3.5c0.4,6.5,3.8,14,5.3,19c4.2,14.3,7,29.3,9.1,44c0.5,3.7,0.9,7.4,1.2,11.2c-15.8,0.8-31.6,1-47.4,1c-0.6,0-1.1,0.1-1.5,0.2c-0.7-6.2-1.5-12.4-2.1-18.6c-0.9-8.6-1.1-17.2-2-25.7c-0.5-4.5-0.8-9-0.9-13.5C127.3,84.9,127.8,82.9,127.8,80.8z M105.6,237.2c2.7-9.8,3.1-20.9,4.2-29.9c1-8.5,1.9-17.5,4.9-25.7c1.9-5.3,4.5-9.4,9.2-9.7c0.1,0.9,0.1,1.9,0.2,2.8c-1.1,0.3-2.1,0.8-2.9,1.7c-1,1.2-1.4,2.5-1.4,4.1v1.5c0,1.4,0.9,2.8,1.9,3.7c0.6,0.6,1.4,1,2.3,1.2c0.7,0.9,1.8,1.5,3.3,1.6c13.5,1.2,25.8,6.8,38,12.2c11.7,5.2,23.5,9.5,35.8,13.2c21.7,6.6,46,12.6,68.9,9.8c-9.9,22.8-47.5,20.9-67.7,17.4c-19.2-3.3-37.7-8.4-57.3-9.5C131.6,231,118,232.5,105.6,237.2z M395.6,413.9c-0.4,6.8-1.2,13.7-2.9,20.4c-0.6,2.6-1.7,5.7-3.1,7.6c-0.8,1.1-0.7,0.9-1.3,1.1c0.9-0.3,0-0.2-1-0.8c-0.9-0.6-2-0.9-3.1-0.8c-1,0.1-1.9,0.5-2.6,1.2c-20.6,15.4-46.8,20.5-71.6,24.5c-27.2,4.3-54.6,7.6-82.2,7.9c-14.4,0.1-28.7-0.8-42.9-3.3c-9-1.6-17.1-4.5-21.1-13.3c-3.7-8-3.8-17.5-4-26.1c-0.3-12.1-0.9-24-2-36c-2.8-30.7-5.6-61.8-12.3-92c-2.5-11.1-5.3-22.2-7-33.5c-1.3-8.9-3-20.2,2.2-28.2c0,0,0,0,0,0c4.3,0.1,8.7,0.3,13,0.8c18.5,1.9,36.2,7.7,54.7,9.8c25.8,2.9,63,0.2,72.8-28.3c9.9-12.6,24.9-17.8,40.8-13.2c16.2,4.7,26.6,20,27.4,36.4c0.2,5.2,8.5,7.3,10.4,2c5.1-14.1,10.5-28.1,14.7-42.4c2.9,13.7,3.4,28.2,5,42.1c3.4,30.2,7.2,60.2,11.1,90.3C393.6,364.5,396.8,389.4,395.6,413.9z"/></svg>