<svg xmlns="http://www.w3.org/2000/svg" viewBox="0 0 16 16"><path d="M 3.5 1 A 0.50005 0.50005 0 0 0 3 1.5 L 3 4.5 L 3 7.5 L 3 10.5 A 0.50005 0.50005 0 0 0 3.5 11 L 6 11 L 6 13.5 A 0.50005 0.50005 0 0 0 6.5 14 L 9.5 14 A 0.50005 0.50005 0 0 0 10 13.5 L 10 11 L 12.5 11 A 0.50005 0.50005 0 0 0 13 10.5 L 13 7.5 L 13 4.5 L 13 1.5 A 0.50005 0.50005 0 0 0 12.5 1 L 9.5 1 L 6.5 1 L 3.5 1 z M 4 2 L 6 2 L 6 4 L 4 4 L 4 2 z M 7 2 L 9 2 L 9 4 L 7 4 L 7 2 z M 10 2 L 12 2 L 12 4 L 10 4 L 10 2 z M 4 5 L 6 5 L 6 7 L 4 7 L 4 5 z M 7 5 L 9 5 L 9 7 L 7 7 L 7 5 z M 10 5 L 12 5 L 12 7 L 10 7 L 10 5 z M 4 8 L 6 8 L 6 10 L 4 10 L 4 8 z M 7 8 L 9 8 L 9 10 L 7 10 L 7 8 z M 10 8 L 12 8 L 12 10 L 10 10 L 10 8 z M 7 11 L 9 11 L 9 13 L 7 13 L 7 11 z"/></svg>