<svg xmlns="http://www.w3.org/2000/svg" viewBox="0 0 40 40"><path fill="#dff0fe" d="M36.963,37.5c-0.352,0-0.683-0.116-0.958-0.337l-7.013-5.053c-0.345-0.277-0.555-0.714-0.555-1.184 l-1.361-10.245c0.004-0.697,1.219-0.812,1.942-0.812c0.885,0,2.49,1.441,2.49,2.235v8.101l6.438,4.576 c0.639,0.512,0.746,1.48,0.217,2.142C37.871,37.29,37.434,37.5,36.963,37.5z"/><path fill="#4788c7" d="M29.019,20.37c0.663,0,1.99,1.245,1.99,1.735v7.843v0.516l0.421,0.299l6.201,4.407 c0.429,0.36,0.494,1.001,0.142,1.441C37.575,36.859,37.28,37,36.963,37c-0.165,0-0.411-0.04-0.686-0.258l-6.968-5.021 c-0.236-0.197-0.372-0.485-0.372-0.795V30.86l-0.009-0.066l-1.344-10.078C27.644,20.52,28.252,20.37,29.019,20.37 M29.019,19.37 c-1.124,0-2.439,0.254-2.439,1.378l1.357,10.179c0,0.619,0.281,1.203,0.763,1.589l6.991,5.038C36.069,37.854,36.518,38,36.963,38 c0.598,0,1.189-0.261,1.59-0.763c0.702-0.879,0.561-2.159-0.317-2.861l-6.228-4.427v-7.843 C32.009,20.981,30.143,19.37,29.019,19.37L29.019,19.37z"/><path fill="#98ccfd" d="M28.118 28.5L27.173 21.412 31.509 22.496 31.509 28.5z"/><path fill="#4788c7" d="M27.766,22.075l3.243,0.811V28h-2.453L27.766,22.075 M26.58,20.748L27.68,29h4.328v-6.895 L26.58,20.748L26.58,20.748z"/><path fill="#dff0fe" d="M15.035,37.482c-0.208,0-0.411-0.042-0.605-0.124c-0.776-0.333-1.138-1.238-0.805-2.018l4.265-7.942 c0.162-0.373,0.42-0.646,0.744-0.809l6.813-4.628c0.283-0.134,1.556-0.317,3.015-0.317c1.924,0,2.777,0.31,2.89,0.459 c0.373,0.75,0.064,1.675-0.692,2.054L20.536,29.07l-4.066,7.438C16.205,37.116,15.65,37.482,15.035,37.482z"/><path fill="#4788c7" d="M28.462,22.145L28.462,22.145c1.497,0,2.247,0.191,2.488,0.294c0.17,0.485-0.042,1.034-0.503,1.265 l-9.985,4.847l-0.287,0.14l-0.153,0.28l-3.99,7.298l-0.023,0.042l-0.019,0.044c-0.164,0.382-0.538,0.629-0.954,0.629 c-0.14,0-0.277-0.028-0.407-0.084c-0.254-0.109-0.451-0.31-0.554-0.567c-0.098-0.246-0.099-0.514-0.004-0.759l4.26-7.938 l0.021-0.039l0.017-0.04c0.096-0.224,0.27-0.409,0.49-0.519l0.059-0.03l0.055-0.037l6.679-4.541 C25.943,22.323,26.998,22.145,28.462,22.145 M28.461,21.145c-1.402,0-2.815,0.166-3.295,0.404l-6.756,4.593 c-0.431,0.216-0.771,0.577-0.961,1.019l-4.285,7.983c-0.443,1.034,0.036,2.231,1.07,2.673c0.261,0.111,0.533,0.164,0.801,0.164 c0.79,0,1.541-0.463,1.873-1.234l3.99-7.298l9.985-4.847c1.006-0.504,1.413-1.726,0.911-2.732 C31.53,21.346,30.003,21.145,28.461,21.145L28.461,21.145z"/><path fill="none" stroke="#4788c7" stroke-miterlimit="10" d="M10 13L7 10"/><path fill="#98ccfd" d="M6.458,11.5c-0.7,0-1.424-0.303-1.985-0.831C3.377,9.64,3.176,8.054,4.022,7.134 C4.397,6.726,4.937,6.5,5.543,6.5c0.7,0,1.423,0.303,1.984,0.831c1.096,1.029,1.298,2.615,0.45,3.536 C7.603,11.275,7.062,11.5,6.458,11.5z"/><path fill="#4788c7" d="M5.543,7L5.543,7c0.574,0,1.172,0.253,1.642,0.695c0.896,0.842,1.087,2.114,0.425,2.833 C7.33,10.833,6.921,11,6.458,11c-0.574,0-1.173-0.253-1.643-0.695C3.919,9.463,3.728,8.191,4.39,7.472C4.67,7.168,5.079,7,5.543,7 M5.543,6C4.824,6,4.143,6.263,3.654,6.795c-1.033,1.123-0.82,3.021,0.476,4.239C4.813,11.675,5.659,12,6.458,12 c0.718,0,1.399-0.263,1.888-0.794c1.033-1.123,0.82-3.021-0.476-4.239C7.187,6.325,6.342,6,5.543,6L5.543,6z"/><path fill="#dff0fe" d="M19.5 3.5A3 3 0 1 0 19.5 9.5A3 3 0 1 0 19.5 3.5Z"/><path fill="#4788c7" d="M19.5,4C20.879,4,22,5.121,22,6.5S20.879,9,19.5,9S17,7.879,17,6.5S18.121,4,19.5,4 M19.5,3 C17.567,3,16,4.567,16,6.5c0,1.932,1.567,3.5,3.5,3.5S23,8.432,23,6.5C23,4.567,21.433,3,19.5,3L19.5,3z"/><g><path fill="#4788c7" d="M2.5 16A1.5 1.5 0 1 0 2.5 19A1.5 1.5 0 1 0 2.5 16Z"/></g><g><path fill="#dff0fe" d="M15,19.5c-0.41,0-0.796-0.16-1.086-0.45l-4.965-4.93C8.659,13.831,8.5,13.445,8.5,13.036 c0-0.41,0.159-0.796,0.45-1.086c0.29-0.291,0.676-0.45,1.086-0.45c0.409,0,0.795,0.159,1.085,0.45l3.975,3.935L29.409,4.856 C29.694,4.624,30.04,4.5,30.394,4.5c0.41,0,0.796,0.159,1.085,0.449l4.559,4.916c0.304,0.304,0.463,0.689,0.463,1.1 c0,0.409-0.159,0.795-0.45,1.085c-0.29,0.291-0.676,0.45-1.085,0.45c-0.41,0-0.796-0.159-1.086-0.45l-3.561-3.951L15.984,19.144 C15.695,19.38,15.358,19.5,15,19.5z"/><path fill="#4788c7" d="M30.394,5c0.277,0,0.536,0.107,0.705,0.276l4.597,4.956C35.892,10.428,36,10.688,36,10.964 c0,0.276-0.108,0.536-0.304,0.732C35.501,11.892,35.241,12,34.964,12c-0.269,0-0.523-0.102-0.717-0.288l-3.248-3.604l-0.62-0.688 l-0.733,0.565L15.658,18.765C15.469,18.919,15.241,19,15,19c-0.276,0-0.536-0.108-0.735-0.306l-4.962-4.926 c-0.404-0.404-0.404-1.061,0-1.464C9.499,12.108,9.759,12,10.036,12c0.276,0,0.537,0.108,0.736,0.307l3.661,3.626l0.621,0.615 l0.693-0.534l13.988-10.78C29.924,5.081,30.151,5,30.394,5 M30.394,4c-0.456,0-0.913,0.152-1.29,0.46L15.137,15.222l-3.661-3.626 C11.077,11.199,10.557,11,10.036,11c-0.521,0-1.042,0.199-1.439,0.596c-0.795,0.795-0.795,2.083,0,2.879l4.964,4.929 C13.956,19.799,14.478,20,15,20c0.456,0,0.912-0.152,1.29-0.46L30.256,8.777l3.269,3.626C33.923,12.801,34.443,13,34.964,13 c0.521,0,1.042-0.199,1.439-0.596c0.795-0.795,0.795-2.083,0-2.879l-4.571-4.929C31.437,4.2,30.916,4,30.394,4L30.394,4z"/></g><g><path fill="#98ccfd" d="M25.484,21.424c-0.368-1.488-1.108-3.384-3.802-6.116l-0.308-0.313l-3.063,2.309l-1.933-2.394 l9.6-7.411l1.999,2.444l-1.951,1.715l0.408,0.376c2.342,2.537,3.315,5.056,4.026,6.895l0.243,0.626l0.659,2.152l-5.564,0.938 L25.484,21.424z"/><path fill="#4788c7" d="M25.899,8.192l1.386,1.694l-1.171,1.029l-0.798,0.724l0.753,0.736 c2.281,2.477,3.193,4.837,3.926,6.735c0.079,0.205,0.155,0.402,0.23,0.591l0.494,1.607l-4.55,0.767l-0.197-0.766 c-0.384-1.559-1.152-3.533-3.932-6.353l-0.615-0.624l-0.699,0.527l-2.328,1.754l-1.309-1.621L25.899,8.192 M26.058,6.806 l-10.389,8.02l2.558,3.168l3.1-2.336c2.448,2.484,3.265,4.233,3.673,5.891l0.429,1.665l6.58-1.109l-0.84-2.735 c-0.774-1.952-1.687-4.772-4.383-7.692l-0.012-0.012L28.67,10L26.058,6.806L26.058,6.806z"/></g><g><path fill="#98ccfd" d="M21.988,24.303l3.244-2.306l5.646-1.994c0.461,1.219,0.61,1.856,0.623,2.032 c0.077,1.076-0.012,2.199-1.956,3.061l-5.717,2.367L21.988,24.303z"/><path fill="#4788c7" d="M30.579,20.639c0.315,0.881,0.415,1.33,0.423,1.432c0.069,0.972-0.008,1.835-1.638,2.558 l-5.324,2.205l-1.39-2.388l2.815-2L30.579,20.639 M31.169,19.37L25,21.549l-3.673,2.611l2.289,3.932l6.131-2.539 C31.882,24.607,32.091,23.278,32,22C31.975,21.642,31.687,20.681,31.169,19.37L31.169,19.37z"/></g></svg>