<svg xmlns="http://www.w3.org/2000/svg" viewBox="0 0 50 50"><path d="M 0 7 L 0 39 L 50 39 L 50 7 Z M 19 17 L 21 17 L 21 30 L 19 30 L 19 21 L 16 21 L 16 19.347656 C 18.1875 19.347656 18.929688 17.382813 19 17 Z M 29.5 17 C 30.425781 17 31.191406 17.207031 31.777344 17.613281 C 32.371094 18.03125 32.824219 18.546875 33.15625 19.1875 C 33.480469 19.820313 33.707031 20.523438 33.824219 21.28125 C 33.9375 22.046875 34 22.792969 34 23.5 C 34 24.210938 33.9375 24.953125 33.824219 25.714844 C 33.707031 26.472656 33.480469 27.175781 33.15625 27.8125 C 32.824219 28.457031 32.375 28.96875 31.78125 29.386719 C 31.191406 29.792969 30.425781 30 29.5 30 C 28.574219 30 27.808594 29.792969 27.222656 29.386719 C 26.628906 28.96875 26.175781 28.453125 25.84375 27.8125 C 25.519531 27.179688 25.292969 26.476563 25.175781 25.71875 C 25.0625 24.953125 25 24.210938 25 23.5 C 25 22.789063 25.0625 22.046875 25.175781 21.285156 C 25.292969 20.527344 25.519531 19.824219 25.84375 19.1875 C 26.175781 18.542969 26.625 18.03125 27.21875 17.613281 C 27.808594 17.207031 28.574219 17 29.5 17 Z M 29.5 19 C 29 19 28.605469 19.089844 28.363281 19.257813 C 28.039063 19.484375 27.804688 19.753906 27.625 20.105469 C 27.394531 20.546875 27.238281 21.046875 27.152344 21.59375 C 27.050781 22.25 27 22.894531 27 23.5 C 27 24.105469 27.050781 24.75 27.152344 25.410156 C 27.238281 25.953125 27.394531 26.453125 27.625 26.894531 C 27.804688 27.246094 28.039063 27.515625 28.363281 27.742188 C 28.605469 27.910156 29 28 29.5 28 C 30 28 30.394531 27.910156 30.636719 27.742188 C 30.960938 27.515625 31.195313 27.246094 31.375 26.894531 C 31.605469 26.453125 31.761719 25.953125 31.847656 25.40625 C 31.949219 24.75 32 24.105469 32 23.5 C 32 22.894531 31.949219 22.25 31.847656 21.589844 C 31.761719 21.046875 31.605469 20.546875 31.375 20.105469 C 31.195313 19.753906 30.957031 19.484375 30.632813 19.253906 C 30.394531 19.089844 30 19 29.5 19 Z M 11 41 C 10.640625 40.996094 10.304688 41.183594 10.121094 41.496094 C 9.941406 41.808594 9.941406 42.191406 10.121094 42.503906 C 10.304688 42.816406 10.640625 43.003906 11 43 L 39 43 C 39.359375 43.003906 39.695313 42.816406 39.878906 42.503906 C 40.058594 42.191406 40.058594 41.808594 39.878906 41.496094 C 39.695313 41.183594 39.359375 40.996094 39 41 Z"/></svg>