<?xml version="1.0"?><svg xmlns="http://www.w3.org/2000/svg" viewBox="0 0 50 50">    <path d="M46.016,28.488c-0.08-0.009-0.182-0.02-0.281-0.033c0.407-0.775,0.008-1.567-0.345-2.268 c-0.139-0.275-0.463-0.919-0.403-1.092c0.005-0.012,0.069-0.092,0.278-0.188c0.302-0.141,0.528-0.393,0.58-0.722 s-0.051-0.633-0.295-0.859c-0.027-0.247,0.415-0.973,0.652-1.362C46.612,21.291,47,20.656,47,20c0-1.627-1.843-3-3-3 c-0.639,0-1.127,0.259-1.483,0.448c-0.462,0.245-0.478,0.233-0.69,0.11c-0.946-0.553-1.308-1.146-1.727-1.832 c-0.55-0.9-1.162-1.903-2.953-2.472c0.03-0.825-0.237-1.603-0.79-2.257c-1.32-1.563-4.094-2.188-6.004-1.896 c-3.349,0.518-4.339,1.172-5.325,3.3c-1.252-0.618-2.544-0.188-3.399,0.098c-0.267,0.089-0.673,0.215-0.791,0.215 c-0.885-0.119-2.004-0.594-3.189-1.097c-2.236-0.947-4.772-2.023-7.453-1.605C7.68,10.4,6.596,10.88,6.192,11.783 c-0.4,0.895,0.117,1.689,0.532,2.328c0.433,0.665,0.684,1.101,0.522,1.556c-0.156,0.445-0.813,1.196-1.448,1.922 c-1.249,1.427-2.848,3.255-2.812,5.163c-0.048,0.019-0.095,0.039-0.142,0.062c-0.3,0.151-0.809,0.548-0.843,1.498 c-0.051,1.396,1.005,3.687,2.44,4.546c0.194,0.115,0.417,0.158,0.639,0.134c0.403-0.016,2.792,0.001,3.595,0.005 C9.026,28.999,9.26,28.998,9.287,29c2.239-0.041,3.572-0.338,5.591-0.786l1.002-0.222c1.709-0.109,4.11,0.435,4.508,0.811 c0.5,0.482,0.727,1.121,0.989,1.862c0.244,0.686,0.523,1.475,1.089,2.15c-0.526,0.128-1.085,0.184-1.468,0.185 C20.447,33.002,20,33.449,20,34c0,0.903,0,2.586-1.707,4.293c-0.206,0.206-0.312,0.491-0.29,0.781s0.168,0.557,0.401,0.729 c0.207,0.153,0.416,0.212,0.641,0.212c0.309,0,0.647-0.111,1.05-0.243c0.514-0.168,2.076-0.68,2.33-0.261 c0.183,0.309,0.521,0.471,0.877,0.488c0.358-0.007,0.687-0.205,0.858-0.52c0.398-0.729,0.316-1.267,0.229-1.669 c1.117-0.392,1.92-1.317,2.546-2.039c0.232-0.268,0.576-0.664,0.747-0.774c0.666-0.025,1.24-0.344,1.622-0.902 c0.032-0.046,0.062-0.093,0.09-0.142c0.32,0.333,0.745,0.666,1.333,0.864c0.022,0.106,0.054,0.214,0.096,0.321 c0.568,1.447,3.146,2.86,4.319,2.86c3.356,0,3.994-1.559,4.16-2.935c0.742-0.021,1.44-0.177,2.041-0.311 c0.887-0.197,1.48-0.308,1.679-0.087c0.253,0.282,0.646,0.387,1.009,0.288c0.364-0.1,0.644-0.405,0.719-0.775 c0.054-0.266,0.713-1.045,1.424-1.504l0.113-0.073C47.129,32.062,48,31.501,48,30C48,28.704,46.609,28.553,46.016,28.488z"/></svg>