<svg xmlns="http://www.w3.org/2000/svg" viewBox="0 0 100 100"><path d="M 35.720703 13 C 30.09131 13 25.361975 17.730964 23.730469 24.53125 L 23.648438 24.777344 C 22.388462 25.284534 21.340683 26.316399 20.472656 27.791016 C 19.514294 29.419097 18.716145 31.547054 18.058594 34.103516 C 16.743488 39.216439 16 46.047662 16 53.839844 C 16 59.792624 16.433175 66.385797 17.355469 72.271484 C 18.277762 78.157172 19.646395 83.315682 21.728516 86.542969 A 1.0001 1.0001 0 1 0 23.408203 85.457031 C 21.650323 82.732318 20.233738 77.715249 19.332031 71.960938 C 18.430325 66.206625 18 59.695063 18 53.839844 C 18 46.176026 18.743197 39.472639 19.996094 34.601562 C 20.622542 32.166026 21.380675 30.188605 22.195312 28.804688 C 23.00995 27.420769 23.862186 26.686167 24.574219 26.480469 A 1.0001 1.0001 0 0 0 24.744141 26.414062 C 24.899769 26.336253 25.102762 26.22604 25.292969 25.988281 C 25.483176 25.750522 25.583984 25.399385 25.583984 25.136719 L 25.533203 25.453125 L 25.628906 25.164062 A 1.0001 1.0001 0 0 0 25.654297 25.076172 C 27.114955 18.868392 31.198741 15 35.720703 15 C 39.641673 15 43.126743 16.805282 46.582031 18.628906 C 47.026725 18.872585 47.391714 19.043182 47.78125 19.238281 C 48.143478 19.485109 48.512253 19.73028 48.867188 19.976562 C 51.762892 21.985841 54.314054 23.895495 56.177734 24.427734 A 0.50005 0.50005 0 1 0 56.453125 23.466797 C 55.340375 23.149012 53.517444 21.96627 51.419922 20.525391 C 52.388707 20.690623 53.487349 20.759766 54.919922 20.759766 L 72.199219 20.759766 C 80.929108 20.759766 88 27.100233 88 34.640625 L 88 36.560547 C 88 38.559954 86.04064 41.130238 82.363281 43.146484 C 78.685922 45.162731 73.434768 46.599609 67.400391 46.599609 C 62.733724 46.599609 57.749691 45.659251 53.5625 43.984375 C 52.10827 43.402683 50.482057 42.759766 48.775391 42.759766 C 47.430497 42.759766 46.107447 43.203038 45.203125 44.191406 C 42.76327 46.537421 40.214036 48.519531 35.720703 48.519531 L 34.664062 48.519531 L 32.263672 48.519531 L 31.783203 48.519531 C 31.050759 48.519531 30.304687 49.04563 30.304688 49.904297 C 30.304686 50.166964 30.344079 50.434124 30.539062 50.746094 C 30.734044 51.058063 31.210167 51.384766 31.6875 51.384766 L 31.400391 51.341797 C 32.465839 51.661432 34.977246 52.237476 35.285156 52.314453 A 1.0001 1.0001 0 0 0 35.332031 52.324219 C 37.359374 52.729687 40.05294 52.915893 42.830078 53.107422 C 42.831978 53.107594 42.834038 53.10725 42.835938 53.107422 C 42.841738 53.107822 42.845742 53.108975 42.851562 53.109375 C 43.87224 53.202182 44.920874 53.295536 45.998047 53.300781 C 47.480462 53.435546 48.339562 53.738466 48.875 54.039062 C 49.410438 54.33966 49.641844 54.625771 49.9375 54.970703 A 1.0001 1.0001 0 0 0 49.972656 55.009766 A 1.0001 1.0001 0 0 0 50.142578 55.275391 C 55.265532 60.989455 65.753136 65.026827 77.761719 66.527344 C 76.514231 69.338516 72.732715 71.560547 68.167969 71.560547 C 65.307669 71.560547 62.53847 70.654063 59.662109 69.695312 L 59.652344 69.691406 C 56.871363 68.732405 53.987259 67.720703 50.888672 67.720703 C 50.580361 67.720703 50.321143 67.846632 50.115234 67.976562 A 0.50037543 0.50037543 0 0 0 49.964844 68.011719 C 49.964844 68.011719 46.482691 69.459616 42.251953 69.869141 C 38.021215 70.278666 33.152349 69.659524 30.191406 65.619141 A 0.50005 0.50005 0 0 0 29.761719 65.408203 A 0.50005 0.50005 0 0 0 29.384766 66.208984 C 32.625823 70.631601 37.944394 71.291459 42.347656 70.865234 C 45.470016 70.562998 48.120512 69.734933 49.4375 69.269531 C 49.466994 69.476217 49.526246 69.672957 49.607422 69.835938 C 49.608002 69.837137 49.608775 69.838644 49.609375 69.839844 C 52.046531 74.907776 58.678069 83.312227 62.404297 86.736328 A 1.0001 1.0001 0 1 0 63.755859 85.263672 C 60.572472 82.338363 54.466063 74.5605 51.943359 69.871094 C 54.258284 70.064988 56.591547 70.752069 59.009766 71.585938 A 1.0001 1.0001 0 0 0 59.019531 71.587891 C 61.899531 72.547891 64.887635 73.560547 68.167969 73.560547 C 73.685302 73.560547 78.631925 70.854374 79.96875 66.621094 A 1.0001 1.0001 0 0 0 80.015625 66.320312 C 80.015625 66.461647 80.111328 66.269472 80.111328 65.744141 A 1.0001 1.0001 0 0 0 79.220703 64.75 C 77.568444 64.570685 75.948094 64.332564 74.363281 64.050781 C 74.847306 62.860799 75.064087 61.705455 74.982422 60.705078 C 74.881731 59.471647 74.295963 58.410186 73.234375 58.029297 A 0.50005 0.50005 0 0 0 73.039062 58 A 0.50005 0.50005 0 0 0 72.609375 58.294922 C 71.902742 59.87112 71.080012 61.47519 70.224609 63.185547 C 68.780532 62.835695 67.385234 62.444778 66.041016 62.017578 L 67.449219 57.699219 C 67.520219 57.481219 67.431609 57.236187 67.224609 57.117188 C 66.987609 56.981187 66.686781 57.063781 66.550781 57.300781 L 64.199219 61.398438 C 63.084387 61.001012 62.010403 60.57891 60.990234 60.132812 L 61.960938 56.173828 C 62.013938 55.956828 61.913031 55.722281 61.707031 55.613281 C 61.464031 55.488281 61.165062 55.583172 61.039062 55.826172 L 59.234375 59.320312 C 57.91684 58.671073 56.715783 57.978406 55.619141 57.255859 L 56.439453 54.720703 C 56.504453 54.518703 56.435953 54.288203 56.251953 54.158203 C 56.027953 54.000203 55.716594 54.054297 55.558594 54.279297 L 54.179688 56.236328 C 53.222615 55.505314 52.369616 54.749346 51.666016 53.96875 C 51.650046 53.94581 51.643096 53.8822 51.628906 53.863281 C 51.551846 53.760529 51.502048 53.716304 51.455078 53.669922 L 51.449219 53.664062 C 51.168344 53.336318 50.682817 52.762447 49.853516 52.296875 C 49.020954 51.829472 47.863319 51.461829 46.177734 51.308594 A 1.0001 1.0001 0 0 0 46.087891 51.304688 C 45.092497 51.304688 44.065766 51.211238 43.009766 51.115234 A 1.0001 1.0001 0 0 0 42.988281 51.115234 C 40.472954 50.941764 38.199683 50.735135 36.421875 50.435547 C 41.094344 50.209308 44.165807 47.963617 46.589844 45.632812 A 1.0001 1.0001 0 0 0 46.648438 45.570312 C 47.087339 45.068711 47.845613 44.759766 48.775391 44.759766 C 49.740648 44.759766 50.891291 45.108943 52.0625 45.548828 L 52.507812 49.5 C 52.532813 49.724 52.709359 49.909547 52.943359 49.935547 C 53.215359 49.966547 53.461188 49.772 53.492188 49.5 L 53.861328 46.224609 C 55.211936 46.715518 56.613507 47.143143 58.054688 47.486328 L 58.507812 51.5 C 58.532812 51.724 58.709359 51.909547 58.943359 51.935547 C 59.215359 51.966547 59.461188 51.772 59.492188 51.5 L 59.900391 47.880859 C 61.103988 48.109312 62.323153 48.282015 63.541016 48.402344 L 64.007812 53 C 64.030813 53.229 64.211219 53.417406 64.449219 53.441406 C 64.721219 53.469406 64.964187 53.272 64.992188 53 L 65.445312 48.546875 C 66.100233 48.580265 66.752196 48.599609 67.400391 48.599609 C 67.944531 48.599609 68.473952 48.574153 69.005859 48.552734 L 69.507812 53.5 C 69.530813 53.729 69.711219 53.917406 69.949219 53.941406 C 70.221219 53.969406 70.464187 53.772 70.492188 53.5 L 71 48.5 C 71.002365 48.474375 70.999373 48.44686 71 48.419922 C 72.386719 48.292738 73.722405 48.098287 75 47.837891 L 75 53.5 A 0.50005 0.50005 0 0 0 75.5 54 C 77.086333 54 78.482463 52.995573 79.451172 51.494141 C 80.381919 50.051548 80.948784 48.125044 80.992188 46.007812 C 81.810415 45.661651 82.600165 45.297379 83.324219 44.900391 C 87.350897 42.692671 90 39.745139 90 36.560547 L 90 34.640625 C 90 25.861017 81.90133 18.759766 72.199219 18.759766 L 54.919922 18.759766 C 51.146589 18.759766 50.475836 18.483031 47.529297 16.867188 A 1.0001 1.0001 0 0 0 47.515625 16.859375 C 44.058911 15.034986 40.247733 13 35.720703 13 z M 39.810547 22.195312 C 38.375364 22.285692 37.017235 22.780032 36.023438 23.820312 L 36 23.845703 L 35.978516 23.873047 C 35.352491 24.741149 34.93509 25.978239 35.224609 27.306641 C 35.514129 28.635042 36.519288 29.993756 38.548828 31.089844 C 40.486563 32.136538 42.336583 32.20006 43.828125 31.732422 C 45.319667 31.264783 46.45474 30.29278 47.060547 29.257812 C 47.81745 27.964015 47.733034 26.609725 47.103516 25.521484 C 46.473996 24.433244 45.358707 23.577705 44.058594 22.998047 C 42.758481 22.418388 41.24573 22.104929 39.810547 22.195312 z M 39.917969 23.212891 C 41.159848 23.138431 42.494254 23.396643 43.650391 23.912109 C 44.806527 24.427576 45.755738 25.189272 46.238281 26.023438 C 46.61281 26.670878 46.736976 27.343515 46.496094 28.089844 A 2.5 2.5 0 0 0 44 25.5 A 2.5 2.5 0 0 0 44 30.5 A 2.5 2.5 0 0 0 44.210938 30.490234 C 43.991974 30.596467 43.771727 30.701335 43.529297 30.777344 C 42.281839 31.168455 40.745702 31.13929 39.023438 30.208984 C 37.171976 29.209072 36.419902 28.097349 36.201172 27.09375 C 35.985487 26.104126 36.300772 25.164439 36.775391 24.492188 C 37.555503 23.691923 38.689029 23.286575 39.917969 23.212891 z M 24.017578 24.558594 C 23.922328 24.586114 23.852393 24.676876 23.759766 24.710938 C 23.814636 24.658117 23.876894 24.61136 23.849609 24.625 L 24.017578 24.558594 z M 76.210938 26.789062 C 76.210937 28.890062 76.211828 30.227047 77.548828 31.373047 C 78.885828 32.614047 80.603891 32.805312 81.462891 31.945312 C 82.321891 31.085312 81.844813 29.367953 80.507812 28.126953 C 79.170812 26.885953 77.833938 26.789062 76.210938 26.789062 z M 79.976562 46.427734 C 79.870852 48.200124 79.360544 49.791892 78.611328 50.953125 C 77.893353 52.065937 76.971145 52.65736 76 52.841797 L 76 47.626953 C 77.406789 47.297047 78.738743 46.895234 79.976562 46.427734 z M 26.927734 55.177734 A 0.50005 0.50005 0 0 0 26.447266 55.695312 C 26.473656 56.908431 26.564622 58.031957 26.714844 59.072266 A 0.50005 0.50005 0 1 0 27.703125 58.927734 C 27.559346 57.932043 27.472871 56.850709 27.447266 55.673828 A 0.50005 0.50005 0 0 0 26.927734 55.177734 z M 73.248047 59.263672 C 73.637271 59.57222 73.924674 60.031872 73.986328 60.787109 C 74.055454 61.633865 73.844792 62.721256 73.353516 63.861328 C 72.635217 63.722741 71.92634 63.574179 71.226562 63.416016 C 71.938199 61.988026 72.620894 60.620909 73.248047 59.263672 z M 27.880859 61.564453 A 0.50005 0.50005 0 0 0 27.417969 62.222656 C 27.566181 62.690965 27.727925 63.137424 27.90625 63.5625 A 0.50005 0.50005 0 1 0 28.828125 63.175781 C 28.66245 62.780858 28.510882 62.361613 28.371094 61.919922 A 0.50005 0.50005 0 0 0 27.880859 61.564453 z"/></svg>