<?xml version="1.0"?><svg xmlns="http://www.w3.org/2000/svg" viewBox="0 0 64 64">    <path d="M 11 6 C 9.346 6 8 7.346 8 9 L 8 13 C 8 14.654 9.346 16 11 16 L 26 16 L 26 55 C 26 56.654 27.346 58 29 58 L 35 58 C 36.654 58 38 56.654 38 55 L 38 16 L 53 16 C 54.654 16 56 14.654 56 13 L 56 9 C 56 7.346 54.654 6 53 6 L 11 6 z M 11 8 L 53 8 C 53.552 8 54 8.448 54 9 L 54 13 C 54 13.552 53.552 14 53 14 L 37 14 C 36.447 14 36 14.447 36 15 L 36 55 C 36 55.552 35.552 56 35 56 L 29 56 C 28.448 56 28 55.552 28 55 L 28 15 C 28 14.447 27.553 14 27 14 L 11 14 C 10.448 14 10 13.552 10 13 L 10 9 C 10 8.448 10.448 8 11 8 z M 19 20 C 18.447 20 18 20.447 18 21 C 18 21.553 18.447 22 19 22 L 21 22 C 21.553 22 22 21.553 22 21 C 22 20.447 21.553 20 21 20 L 19 20 z M 19 25 C 18.447 25 18 25.447 18 26 C 18 26.553 18.447 27 19 27 L 21 27 C 21.553 27 22 26.553 22 26 C 22 25.447 21.553 25 21 25 L 19 25 z M 19 30 C 18.447 30 18 30.447 18 31 C 18 31.553 18.447 32 19 32 L 21 32 C 21.553 32 22 31.553 22 31 C 22 30.447 21.553 30 21 30 L 19 30 z M 31 30 C 30.447 30 30 30.447 30 31 L 30 35 C 30 35.553 30.447 36 31 36 C 31.553 36 32 35.553 32 35 L 32 31 C 32 30.447 31.553 30 31 30 z M 19 35 C 18.447 35 18 35.447 18 36 C 18 36.553 18.447 37 19 37 L 21 37 C 21.553 37 22 36.553 22 36 C 22 35.447 21.553 35 21 35 L 19 35 z M 31 38 C 30.447 38 30 38.447 30 39 L 30 53 C 30 53.553 30.447 54 31 54 C 31.553 54 32 53.553 32 53 L 32 39 C 32 38.447 31.553 38 31 38 z M 19 40 C 18.447 40 18 40.447 18 41 C 18 41.553 18.447 42 19 42 L 21 42 C 21.553 42 22 41.553 22 41 C 22 40.447 21.553 40 21 40 L 19 40 z M 19 45 C 18.447 45 18 45.447 18 46 C 18 46.553 18.447 47 19 47 L 21 47 C 21.553 47 22 46.553 22 46 C 22 45.447 21.553 45 21 45 L 19 45 z M 19 50 C 18.447 50 18 50.447 18 51 C 18 51.553 18.447 52 19 52 L 21 52 C 21.553 52 22 51.553 22 51 C 22 50.447 21.553 50 21 50 L 19 50 z M 19 55 C 18.447 55 18 55.447 18 56 C 18 56.553 18.447 57 19 57 L 21 57 C 21.553 57 22 56.553 22 56 C 22 55.447 21.553 55 21 55 L 19 55 z"/></svg>