<?xml version="1.0"?><svg xmlns="http://www.w3.org/2000/svg" viewBox="0 0 64 64">    <path d="M 32 0.32226562 C 30.619625 0.32226563 29.238547 0.7444375 28.060547 1.5859375 C 25.796547 3.2029375 23.154016 4.3194063 20.416016 4.8164062 L 18.457031 5.1738281 C 17.010031 5.4368281 15.757484 6.3168438 15.021484 7.5898438 C 14.285484 8.8628437 14.147578 10.387437 14.642578 11.773438 L 18.199219 21.732422 L 18.138672 22.109375 C 17.978672 22.109375 17.828984 22.139922 17.708984 22.169922 C 16.048984 22.609922 15.359609 25.019297 16.099609 27.779297 C 16.639609 29.769297 17.758281 31.270469 18.988281 31.730469 C 19.588281 33.560469 20.449531 35.369297 21.519531 37.029297 L 8.25 43.380859 C 4.46 45.200859 2 49.090781 2 53.300781 L 2 61 C 2 62.65 3.35 64 5 64 L 59 64 C 60.65 64 62 62.65 62 61 L 62 53.300781 C 62 49.090781 59.54 45.200859 55.75 43.380859 L 42.480469 37.029297 C 43.550469 35.369297 44.409766 33.560469 45.009766 31.730469 C 46.239766 31.270469 47.360391 29.769297 47.900391 27.779297 C 48.640391 25.019297 47.949063 22.609922 46.289062 22.169922 C 46.169063 22.139922 46.019375 22.109375 45.859375 22.109375 C 45.842375 21.986375 45.814922 21.869047 45.794922 21.748047 L 49.357422 11.775391 C 49.852422 10.390391 49.712563 8.8657969 48.976562 7.5917969 C 48.240562 6.3177969 46.988969 5.4368281 45.542969 5.1738281 L 43.582031 4.8183594 C 40.845031 4.3203594 38.2025 3.2029375 35.9375 1.5859375 C 34.76 0.7444375 33.380375 0.32226562 32 0.32226562 z M 32 2.3222656 C 32.973 2.3222656 33.945391 2.6179375 34.775391 3.2109375 C 37.277391 4.9989375 40.198609 6.2332031 43.224609 6.7832031 L 45.185547 7.140625 C 46.053547 7.298625 46.804094 7.8268437 47.246094 8.5898438 C 47.687094 9.3538437 47.770609 10.268609 47.474609 11.099609 L 44.357422 19.824219 L 38.970703 18.580078 C 34.409703 17.528078 29.589297 17.528078 25.029297 18.580078 L 19.642578 19.824219 L 16.527344 11.101562 C 16.230344 10.270563 16.313859 9.3557969 16.755859 8.5917969 C 17.197859 7.8277969 17.948406 7.3005781 18.816406 7.1425781 L 20.775391 6.7851562 C 23.801391 6.2351563 26.722609 4.9998906 29.224609 3.2128906 C 30.054609 2.6188906 31.027 2.3222656 32 2.3222656 z M 32 5 C 31.448 5 31 5.448 31 6 L 31 8 L 29 8 C 28.448 8 28 8.448 28 9 C 28 9.552 28.448 10 29 10 L 31 10 L 31 14 C 31 14.552 31.448 15 32 15 C 32.552 15 33 14.552 33 14 L 33 10 L 35 10 C 35.552 10 36 9.552 36 9 C 36 8.448 35.552 8 35 8 L 33 8 L 33 6 C 33 5.448 32.552 5 32 5 z M 32 19.792969 C 34.19375 19.792969 36.386531 20.03875 38.519531 20.53125 L 43.765625 21.740234 C 43.871625 22.271234 43.94375 22.802688 43.96875 23.429688 C 43.98875 23.789687 44.189766 24.109297 44.509766 24.279297 C 44.829766 24.439297 45.209766 24.41875 45.509766 24.21875 C 45.689766 24.10875 45.779297 24.099609 45.779297 24.099609 C 46.019297 24.169609 46.46875 25.389766 45.96875 27.259766 C 45.71875 28.179766 45.359531 28.839766 45.019531 29.259766 C 44.689531 29.679766 44.378516 29.878906 44.228516 29.878906 C 43.788516 29.878906 43.399531 30.169609 43.269531 30.599609 C 42.699531 32.519609 41.809687 34.459922 40.679688 36.169922 C 40.309688 36.749922 39.90875 37.298594 39.46875 37.808594 C 37.42975 40.289594 34.83 42 32 42 C 29.17 42 26.569297 40.290547 24.529297 37.810547 C 24.089297 37.300547 23.690313 36.749922 23.320312 36.169922 C 22.190313 34.459922 21.300469 32.519609 20.730469 30.599609 C 20.600469 30.169609 20.209531 29.880859 19.769531 29.880859 C 19.469531 29.880859 18.529297 29.099766 18.029297 27.259766 C 17.859297 26.639766 17.800781 26.100625 17.800781 25.640625 C 17.800781 24.710625 18.060938 24.149609 18.210938 24.099609 C 18.220938 24.099609 18.300234 24.110703 18.490234 24.220703 C 18.790234 24.420703 19.170234 24.439297 19.490234 24.279297 C 19.810234 24.109297 20.009297 23.789688 20.029297 23.429688 C 20.049297 22.909688 20.109219 22.390625 20.199219 21.890625 C 20.208219 21.842625 20.195266 21.797 20.197266 21.75 L 25.478516 20.53125 C 27.611516 20.03875 29.80625 19.792969 32 19.792969 z M 22.699219 38.689453 C 25.149219 41.799453 28.41 44 32 44 C 35.59 44 38.850781 41.799453 41.300781 38.689453 L 43.839844 39.904297 C 41.737844 42.043297 38.601547 44.176609 35.935547 45.224609 C 34.759547 45.686609 34 46.782625 34 48.015625 L 34 50 L 30 50 L 30 48.015625 C 30 46.782625 29.240453 45.686609 28.064453 45.224609 C 25.398453 44.176609 22.262156 42.043297 20.160156 39.904297 L 22.699219 38.689453 z M 18.275391 40.804688 C 20.558391 43.296687 24.231031 45.867891 27.332031 47.087891 C 27.738031 47.246891 28 47.610625 28 48.015625 L 28 51 C 28 51.552 28.448 52 29 52 L 35 52 C 35.552 52 36 51.552 36 51 L 36 48.015625 C 36 47.610625 36.262969 47.244938 36.667969 47.085938 C 39.769969 45.866937 43.442609 43.297687 45.724609 40.804688 L 54.878906 45.179688 C 57.989906 46.670687 60 49.860781 60 53.300781 L 60 61 C 60 61.55 59.55 62 59 62 L 5 62 C 4.45 62 4 61.55 4 61 L 4 53.300781 C 4 49.860781 6.0091406 46.669687 9.1191406 45.179688 L 18.275391 40.804688 z M 7 56 C 6.448 56 6 56.448 6 57 L 6 59 C 6 59.552 6.448 60 7 60 C 7.552 60 8 59.552 8 59 L 8 57 C 8 56.448 7.552 56 7 56 z M 12 56 C 11.448 56 11 56.448 11 57 L 11 59 C 11 59.552 11.448 60 12 60 C 12.552 60 13 59.552 13 59 L 13 57 C 13 56.448 12.552 56 12 56 z M 17 56 C 16.448 56 16 56.448 16 57 L 16 59 C 16 59.552 16.448 60 17 60 C 17.552 60 18 59.552 18 59 L 18 57 C 18 56.448 17.552 56 17 56 z M 22 56 C 21.448 56 21 56.448 21 57 L 21 59 C 21 59.552 21.448 60 22 60 C 22.552 60 23 59.552 23 59 L 23 57 C 23 56.448 22.552 56 22 56 z M 27 56 C 26.448 56 26 56.448 26 57 L 26 59 C 26 59.552 26.448 60 27 60 C 27.552 60 28 59.552 28 59 L 28 57 C 28 56.448 27.552 56 27 56 z M 32 56 C 31.448 56 31 56.448 31 57 L 31 59 C 31 59.552 31.448 60 32 60 C 32.552 60 33 59.552 33 59 L 33 57 C 33 56.448 32.552 56 32 56 z M 37 56 C 36.448 56 36 56.448 36 57 L 36 59 C 36 59.552 36.448 60 37 60 C 37.552 60 38 59.552 38 59 L 38 57 C 38 56.448 37.552 56 37 56 z M 42 56 C 41.448 56 41 56.448 41 57 L 41 59 C 41 59.552 41.448 60 42 60 C 42.552 60 43 59.552 43 59 L 43 57 C 43 56.448 42.552 56 42 56 z M 47 56 C 46.448 56 46 56.448 46 57 L 46 59 C 46 59.552 46.448 60 47 60 C 47.552 60 48 59.552 48 59 L 48 57 C 48 56.448 47.552 56 47 56 z M 52 56 C 51.448 56 51 56.448 51 57 L 51 59 C 51 59.552 51.448 60 52 60 C 52.552 60 53 59.552 53 59 L 53 57 C 53 56.448 52.552 56 52 56 z M 57 56 C 56.448 56 56 56.448 56 57 L 56 59 C 56 59.552 56.448 60 57 60 C 57.552 60 58 59.552 58 59 L 58 57 C 58 56.448 57.552 56 57 56 z"/></svg>