<svg xmlns="http://www.w3.org/2000/svg" viewBox="0 0 30 30"><path d="M 15 2 C 11.10353 2 7.7031717 4.3139222 7.1035156 7.5429688 C 5.8488033 11.565329 2 13.212432 2 18 C 2 19.392 2.6280625 20.611125 3.5390625 21.453125 C 4.4236405 22.270245 6.2735599 22.733461 7.890625 23 C 8.1239251 23.379453 8.3683304 23.753477 8.6347656 24.111328 C 10.227762 26.250895 12.436538 28 15 28 C 17.563462 28 19.578034 26.195318 20.912109 24.039062 C 21.100077 23.735253 21.273057 23.422086 21.4375 23.103516 C 23.166984 22.870428 25.44909 22.38848 26.460938 21.453125 C 27.371937 20.611125 28 19.392 28 18 C 28 13.212432 24.151197 11.565329 22.896484 7.5429688 C 22.296803 4.3134601 18.896313 2 15 2 z M 15 4 C 17.97277 4 20.287208 5.622369 20.859375 7.6074219 C 20.378563 7.9246899 20 8.3729603 20 9 C 20 9.8031208 20.050349 10.445334 20.121094 11.023438 C 19.575494 10.724797 18.941271 10.5 18.1875 10.5 C 16.693013 10.5 15.720703 11.490234 15.720703 11.490234 A 1.0007097 1.0007097 0 1 0 17.113281 12.927734 C 17.113281 12.927734 17.601987 12.5 18.1875 12.5 C 18.887115 12.5 19.370343 12.829649 19.988281 13.363281 A 1.0001 1.0001 0 0 0 20.605469 13.619141 C 20.811868 14.555148 20.999181 15.544412 21 17.107422 C 21.000001 17.108856 21 17.109893 21 17.111328 C 20.999999 17.113193 21.000003 17.115321 21 17.117188 C 20.997587 18.820385 20.335015 21.172647 19.212891 22.986328 C 18.088716 24.803323 16.603538 26 15 26 C 13.41981 26 11.660198 24.78229 10.302734 22.992188 C 8.9558468 20.993342 9 18.334833 9 17.117188 C 9 15.549347 9.1879428 14.558332 9.3945312 13.621094 A 1.0001 1.0001 0 0 0 10.011719 13.363281 C 10.629657 12.829649 11.112885 12.5 11.8125 12.5 C 12.398013 12.5 12.886719 12.927734 12.886719 12.927734 A 1.0007097 1.0007097 0 0 0 14.279297 11.490234 C 14.279297 11.490234 13.306987 10.5 11.8125 10.5 C 11.058729 10.5 10.424506 10.724797 9.8789062 11.023438 C 9.9497423 10.445087 10 9.8037202 10 9 C 10 8.3729603 9.6214369 7.9246899 9.140625 7.6074219 C 9.7128245 5.6229127 12.02738 4 15 4 z M 12 13 A 1 1 0 0 0 11 14 A 1 1 0 0 0 12 15 A 1 1 0 0 0 13 14 A 1 1 0 0 0 12 13 z M 18 13 A 1 1 0 0 0 17 14 A 1 1 0 0 0 18 15 A 1 1 0 0 0 19 14 A 1 1 0 0 0 18 13 z M 13.994141 17.998047 C 13.158141 17.998047 13.269391 18.689656 12.525391 19.347656 C 11.699391 20.078656 10 19.755 10 21 L 11.998047 21 C 14.203047 21 13.994141 20.289047 13.994141 17.998047 z M 16.005859 17.998047 C 16.005859 20.289047 15.796953 21 18.001953 21 L 20 21 C 20 19.755 18.300609 20.078656 17.474609 19.347656 C 16.730609 18.689656 16.841859 17.998047 16.005859 17.998047 z M 13.955078 22 C 13.521078 22 13.243266 22.461703 13.447266 22.845703 L 14.425781 24.695312 C 14.669781 25.159312 15.333125 25.159312 15.578125 24.695312 L 16.554688 22.845703 C 16.756687 22.461703 16.478922 22 16.044922 22 L 13.955078 22 z"/></svg>