<svg xmlns="http://www.w3.org/2000/svg" viewBox="0 0 40 40"><path fill="#dff0fe" d="M13,34.5c-2.82,0-5.106-1-5.203-1.043l-0.292-0.129L7.5,33.008c-0.002-0.1-0.022-1.829,0.376-3.469 c-1.455,1.327-2.455,2.732-2.468,2.75l-0.461,0.652l-4.34-7.874l0.114-0.233c0.102-0.209,2.368-4.788,5.922-6.484 c-2.286-1.648-3.69-1.852-3.706-1.854l-0.639-0.085l0.237-0.598c0.129-0.32,3.232-7.879,10.198-12.237l0.258-0.161l0.262,0.154 c1.762,1.037,2.993,2.604,3.816,4.021L16.434,2.5h7.143L22.95,6.916c0.456-0.805,1.021-1.612,1.701-2.274l0.24-0.233l0.307,0.133 c2.218,0.958,4.096,3.038,4.174,3.125l0.307,0.342l-0.315,0.334c-0.293,0.312-0.725,0.784-1.2,1.329 c0.882-0.671,1.519-1.064,1.576-1.099l0.28-0.171l0.269,0.19c0.219,0.154,5.359,3.83,6.203,8.316l0.092,0.489l-0.488,0.094 c-0.274,0.052-0.535,0.108-0.782,0.167c0.604,0.04,1.151,0.163,1.633,0.366l0.222,0.094l0.064,0.232 c0.589,2.104,0.014,3.75-0.011,3.819L37.102,22.5h-2.159c1.485,0.666,3.218,1.702,4.309,3.207l0.178,0.245l-0.134,0.271 c-1.635,3.301-4.914,5.139-5.053,5.216l-0.407,0.225l-0.254-0.39c-0.252-0.387-0.83-1.181-1.477-1.839 c0.369,1.324,0.395,2.49,0.396,2.559l0.004,0.21l-0.148,0.149C32.27,32.439,30.197,34.5,27,34.5H13z"/><path fill="#4788c7" d="M23,3l-1.1,7.758c0,0,0.962-3.68,3.1-5.758c2.142,0.925,4,3,4,3s-3.836,4.065-4.25,5.667 C26.892,10.899,30,9,30,9s5.184,3.662,6,8c-3.688,0.708-5,2-5,2s1.917-0.856,3.871-0.856c0.645,0,1.293,0.093,1.879,0.341 c0.553,1.974,0,3.515,0,3.515H32c0,0,4.746,1.105,6.847,4C37.262,29.198,34,31,34,31s-1.584-2.439-3-3c0.962,1.744,1,4,1,4 s-1.974,2-5,2H13c-2.747,0-5-1-5-1s-0.053-3.286,1-5c-2.277,1.562-4,4-4,4l-3.829-6.947c0,0,2.596-5.322,6.479-6.568 C4.78,16.212,3,16,3,16S6.092,8.322,13,4c3.734,2.198,5,7,5,7l-1-8H23 M24.152,2H23h-6h-1.133l0.14,1.124l0.311,2.49 c-0.745-0.924-1.672-1.805-2.812-2.476L12.984,2.83L12.47,3.152C5.367,7.596,2.204,15.301,2.072,15.626l-0.488,1.212l1.297,0.154 c0.002,0,1.049,0.167,2.807,1.308C2.407,20.3,0.37,24.414,0.272,24.615l-0.228,0.467l0.251,0.455l3.829,6.947l0.77,1.396 l0.922-1.301c0.009-0.013,0.504-0.705,1.293-1.565C6.992,32.027,6.997,32.843,7,33.016l0.01,0.639l0.584,0.259 C7.694,33.958,10.074,35,13,35h14c3.405,0,5.619-2.204,5.712-2.297l0.295-0.299L33,31.983c-0.001-0.034-0.007-0.317-0.052-0.751 c0.082,0.116,0.154,0.221,0.214,0.313l0.507,0.781l0.815-0.45c0.144-0.08,3.556-1.993,5.26-5.431l0.269-0.542l-0.355-0.489 c-0.719-0.99-1.696-1.785-2.705-2.413h0.503l0.238-0.662c0.027-0.075,0.653-1.867,0.022-4.123l-0.13-0.464l-0.443-0.188 c-0.006-0.002-0.012-0.005-0.018-0.007l-0.139-0.741c-0.881-4.683-6.181-8.473-6.406-8.632l-0.225-0.159l0.006-0.007l-0.613-0.685 c-0.082-0.091-2.031-2.25-4.349-3.251l-0.614-0.265l-0.48,0.466c-0.196,0.191-0.383,0.392-0.56,0.602L23.99,3.14L24.152,2L24.152,2 z"/><path fill="#b6dcfe" d="M24.75 13.667c0 0 3.75-2.15 7.217-3.012C30.879 9.625 30 9 30 9S26.892 10.899 24.75 13.667zM15 16c-.707-2.204-4.529-6.261-6.483-8.295C7.848 8.41 7.248 9.123 6.705 9.822 8.934 11.148 14.189 14.389 15 16zM37.759 27.713c.402-.516.777-1.087 1.088-1.713C36.747 23.11 32 22 32 22S35.774 24.498 37.759 27.713zM7.646 18.482L7.647 18.483 7.65 18.48zM7.642 18.488L7.642 18.488c-.316.102-.621.241-.92.39-.102.052-.203.104-.303.16-.167.093-.328.198-.49.303-2.275 1.513-3.903 4.149-4.503 5.229-.084.161-.154.297-.197.375-.034.063-.058.107-.058.107l1.115 2.022C2.897 25.251 4.448 21.459 7.642 18.488zM18 13c.95-4.03 1-10 1-10h-2l1 8C18 11 18.003 12.68 18 13zM21.938 10.486C21.332 12.229 21 13.667 21 13.667s2.532-4.821 5.527-7.809C26.052 5.534 25.535 5.231 25 5c-2.138 2.078-3.1 5.758-3.1 5.758L21.938 10.486zM12.5 23.5A2 2 0 1 0 12.5 27.5 2 2 0 1 0 12.5 23.5z"/><path fill="#4788c7" d="M12.5,24c0.827,0,1.5,0.673,1.5,1.5S13.327,27,12.5,27S11,26.327,11,25.5S11.673,24,12.5,24 M12.5,23c-1.381,0-2.5,1.119-2.5,2.5s1.119,2.5,2.5,2.5s2.5-1.119,2.5-2.5S13.881,23,12.5,23L12.5,23z"/><path fill="#b6dcfe" d="M27.5 23.5A2 2 0 1 0 27.5 27.5A2 2 0 1 0 27.5 23.5Z"/><path fill="#4788c7" d="M27.5,24c0.827,0,1.5,0.673,1.5,1.5S28.327,27,27.5,27S26,26.327,26,25.5S26.673,24,27.5,24 M27.5,23c-1.381,0-2.5,1.119-2.5,2.5s1.119,2.5,2.5,2.5s2.5-1.119,2.5-2.5S28.881,23,27.5,23L27.5,23z"/><path fill="#fff" d="M20,36.5c-0.779,0-1.505-0.366-1.992-1.003l-0.12-0.157l-0.194-0.033 C14.047,34.695,11.5,32.718,11.5,30.5c0-1.074,0.599-3.22,1.936-5.595l0.064-0.114v-5.69c0.667,0.271,1.585,0.399,2.5,0.399 c1.561,0,2.634-0.529,3.672-1.042C20.671,17.965,21.614,17.5,23,17.5c2.003,0,3.5,0.792,3.5,1.5v5.792l0.064,0.114 C27.901,27.28,28.5,29.426,28.5,30.5c0,2.218-2.547,4.195-6.193,4.807l-0.194,0.033l-0.12,0.157C21.505,36.134,20.779,36.5,20,36.5 z"/><path fill="#4788c7" d="M23,18c2.035,0,3,0.802,3,1v5.66v0.262l0.129,0.228C27.414,27.434,28,29.524,28,30.5 c0,1.937-2.429,3.752-5.776,4.314l-0.389,0.065l-0.24,0.314C21.204,35.706,20.622,36,20,36s-1.204-0.294-1.595-0.807l-0.24-0.314 l-0.389-0.065C14.429,34.252,12,32.437,12,30.5c0-0.976,0.586-3.066,1.871-5.349L14,24.922V24.66v-4.875 C14.619,19.935,15.318,20,16,20c1.677,0,2.854-0.581,3.893-1.093C20.879,18.42,21.731,18,23,18 M23,17c-2.984,0-4.094,2-7,2 c-1.66,0-3-0.45-3-1v6.66c-1.25,2.22-2,4.53-2,5.84c0,2.53,2.8,4.66,6.61,5.3C18.16,36.52,19.02,37,20,37s1.84-0.48,2.39-1.2 C26.2,35.16,29,33.03,29,30.5c0-1.31-0.75-3.62-2-5.84V19C27,17.9,25.21,17,23,17L23,17z"/><g><path fill="#4788c7" d="M20 29A3 1.5 0 1 0 20 32A3 1.5 0 1 0 20 29Z"/></g><path fill="#4788c7" d="M22.5 23A1.5 1.5 0 1 0 22.5 26 1.5 1.5 0 1 0 22.5 23zM17.5 23A1.5 1.5 0 1 0 17.5 26 1.5 1.5 0 1 0 17.5 23z"/><path fill="#98ccfd" d="M24.899,31c-0.463-2.282-2.48-4-4.899-4s-4.436,1.718-4.899,4H24.899z"/><path fill="#fff" d="M20 25A2 2 0 1 0 20 29A2 2 0 1 0 20 25Z"/></svg>