<svg xmlns="http://www.w3.org/2000/svg" viewBox="0 0 48 48"><path fill="#ff9800" d="M24,36c-5,0-5-6-5-6v-6h10v6C29,30,29,36,24,36z"/><path fill="#ffa726" d="M35,18c0,1.1-0.9,2-2,2s-2-0.9-2-2s0.9-2,2-2C34.1,16,35,16.9,35,18"/><path fill="#ffa726" d="M17,18c0-1.1-0.9-2-2-2s-2,0.9-2,2s0.9,2,2,2S17,19.1,17,18"/><path fill="#ffb74d" d="M33,12c0-7.6-18-5-18,0v7c0,5,4,9,9,9s9-4,9-9V12z"/><path fill="#263238" d="M29,30c0,0-1,4-5,4s-5-4-5-4S8,32,8,43v3h32v-3C40,32,29,30,29,30z"/><path fill="#263238" d="M15,13.942v3.011c1.372,2.942,3.612,4.045,5.25,4.045c0.942,0,1.741-0.413,2.365-1.079	c0.381-0.332,0.83-0.946,1.427-0.955c0.552,0.069,0.982,0.64,1.343,0.955c0.624,0.666,1.423,1.079,2.365,1.079	c1.638,0,3.878-1.104,5.25-4.045v-3.011H15z"/><path fill="#757575" d="M21,18h-1c-0.552,0-1-0.448-1-1v0c0-0.552,0.448-1,1-1h1c0.552,0,1,0.448,1,1v0	C22,17.552,21.552,18,21,18z"/><path fill="#757575" d="M28,18h-1c-0.552,0-1-0.448-1-1v0c0-0.552,0.448-1,1-1h1c0.552,0,1,0.448,1,1v0	C29,17.552,28.552,18,28,18z"/><path fill="#43a047" d="M40.335,32.215c-0.682-2.622,0.983-3.549,1.103-5.03c-0.119-1.42-3.15-0.617-3.938-1.42	c-1.313-1.391-4.773-0.967-4.773,1.933c0,0.967,1.572,1.7,1.31,4.429C30.747,33.208,27,37.727,27,41.633	C27,46.662,29.782,48,37.5,48S48,46.662,48,41.633C48,37.406,44.22,33.339,40.335,32.215z"/><path fill="#fbc02d" d="M37.343,33.472c-2.024,0-3.662-0.834-3.768-0.889c-0.489-0.255-0.68-0.858-0.425-1.349	c0.254-0.488,0.856-0.678,1.346-0.427c0.055,0.028,2.996,1.49,5.308-0.071c0.246-0.146,0.485-0.308,0.769-0.497	c1.434-0.963,3.833-2.573,6.474-2.573c0.553,0,1,0.447,1,1s-0.447,1-1,1c-2.031,0-4.114,1.398-5.359,2.233	c-0.325,0.219-0.603,0.403-0.82,0.53C39.703,33.216,38.464,33.472,37.343,33.472z"/><path fill="#fbc02d" d="M45.999,33c-0.15,0-0.303-0.034-0.446-0.105c-1.661-0.831-4.242-0.535-4.979-0.227	c-0.509,0.212-1.095-0.024-1.31-0.534c-0.214-0.51,0.025-1.096,0.534-1.31c1.188-0.498,4.426-0.831,6.648,0.281	c0.494,0.247,0.694,0.848,0.447,1.342C46.719,32.798,46.366,33,45.999,33z"/><path fill="#fff" d="M38.714,42.725c0-0.35-0.07-0.629-0.28-0.769c-0.21-0.21-0.49-0.35-0.979-0.559	c-0.42-0.14-0.839-0.35-1.189-0.489c-0.35-0.14-0.629-0.35-0.839-0.559c-0.21-0.21-0.42-0.49-0.559-0.769	c-0.14-0.28-0.21-0.629-0.21-1.049c0-0.699,0.21-1.259,0.629-1.678s1.049-0.699,1.748-0.769v-1.329h0.979v1.329	c0.699,0.07,1.259,0.42,1.678,0.909c0.42,0.49,0.629,1.119,0.629,1.958h-1.748c0-0.49-0.07-0.839-0.28-1.119	c-0.21-0.28-0.49-0.35-0.839-0.35c-0.35,0-0.629,0.07-0.769,0.28c-0.21,0.21-0.28,0.42-0.28,0.769c0,0.28,0.07,0.559,0.28,0.769	c0.21,0.21,0.489,0.35,0.979,0.559c0.49,0.21,0.909,0.35,1.189,0.559c0.35,0.14,0.559,0.35,0.769,0.559s0.35,0.49,0.49,0.769	c0.14,0.28,0.14,0.629,0.14,0.979c0,0.699-0.21,1.259-0.629,1.678c-0.42,0.42-1.049,0.699-1.818,0.769v1.259h-0.979v-1.189	c-0.839-0.07-1.468-0.42-1.958-0.909c-0.489-0.49-0.699-1.189-0.699-2.028h1.748c0,0.489,0.14,0.839,0.35,1.119	c0.21,0.28,0.559,0.42,0.979,0.42c0.35,0,0.629-0.07,0.839-0.28C38.574,43.354,38.714,43.074,38.714,42.725z"/><path fill="#263238" d="M33.974,13c-0.273-5.015-4.413-9-9.495-9h-0.956c-5.083,0-9.223,3.985-9.495,9H33.974z"/><path fill="#455a64" d="M33.204,14H14.796C14.356,14,14,13.644,14,13.204v-2.408C14,10.356,14.356,10,14.796,10h18.408	C33.644,10,34,10.356,34,10.796v2.408C34,13.644,33.644,14,33.204,14z"/></svg>