<?xml version="1.0"?><svg xmlns="http://www.w3.org/2000/svg" viewBox="0 0 80 80">    <path d="M 46.757812 6.0703125 C 42.740685 6.2326369 39.160034 7.8432128 36.847656 10.482422 C 34.620288 13.024605 33.674481 16.559942 34.632812 20.398438 L 33.169922 23.521484 C 29.562611 23.716321 24.022956 24.501812 19.380859 27.845703 C 14.517672 31.348855 10.940257 37.688939 12.298828 48.25 L 12.339844 49.341797 L 12.339844 49.423828 C 10.503814 49.940586 8.7666817 50.792749 7.453125 52.203125 C 5.9457648 53.821589 5 56.073357 5 58.84375 C 5 62.559534 7.2583795 65.946602 10.794922 67.6875 C 12.544826 68.54936 14.47538 68.966797 16.482422 68.966797 C 20.499249 68.966797 24.809152 67.311823 28.828125 64.220703 C 30.131562 63.218174 30.380759 61.318321 29.376953 60.013672 C 28.373761 58.711308 26.472021 58.459324 25.167969 59.466797 C 20.771621 62.846746 16.376162 63.75039 13.445312 62.304688 A 1.0001 1.0001 0 0 0 13.443359 62.304688 C 11.879125 61.533956 11 60.18645 11 58.84375 C 11 57.10558 11.610304 56.342022 12.457031 55.802734 C 13.301528 55.264867 14.476499 55.060578 15.398438 55 L 35.873047 55 L 53 55 L 53 66 A 1.0001 1.0001 0 1 0 55 66 L 55 54.167969 A 1.0001 1.0001 0 0 0 54.707031 53.279297 A 1.0001 1.0001 0 0 0 54.705078 53.277344 A 1.0001 1.0001 0 0 0 54.699219 53.271484 A 1.0001 1.0001 0 0 0 54.691406 53.263672 A 1.0001 1.0001 0 0 0 53.984375 52.986328 A 1.0001 1.0001 0 0 0 53.839844 53 L 48.521484 53 C 48.442439 52.603096 48.321994 52.1453 48.087891 51.660156 C 47.609136 50.668003 46.445159 49.770405 44.845703 49.449219 C 44.161056 47.097129 43.894513 43.326989 43.804688 41.089844 C 44.032815 41.145849 44.242277 41.207402 44.490234 41.259766 C 45.456784 41.46388 46.552721 41.631738 47.634766 41.775391 C 49.798854 42.062696 52.004417 42.284251 52.619141 42.417969 C 52.997669 42.500309 53.247907 42.825046 53.441406 43.298828 C 53.634906 43.77261 53.681641 44.228516 53.681641 44.228516 L 53.689453 44.3125 L 53.710938 44.394531 C 54.130578 45.967448 55.665649 46.738536 57.085938 46.794922 C 58.506225 46.851312 60.051029 46.295013 60.859375 44.931641 L 61.09375 44.535156 L 60.947266 44.101562 C 60.947266 44.101562 59.314364 38.678926 55.007812 37.160156 C 51.960304 36.084812 46.840068 32.765567 45.972656 32.197266 C 45.763935 30.881943 45.28987 29.65551 44.642578 28.546875 L 45.318359 27.050781 C 47.14568 26.950702 48.916276 26.51086 50.318359 25.541016 C 51.899914 24.447029 53.003906 22.683372 53.003906 20.507812 C 53.003906 19.807961 52.739178 19.15562 52.363281 18.767578 C 51.987385 18.379536 51.654554 18.227787 51.412109 18.046875 C 50.92722 17.685051 50.442128 17.279713 50.15625 15.080078 C 49.958961 13.560956 49.104402 12.372231 48.056641 11.564453 C 47.376555 11.040137 46.583004 10.832005 45.8125 10.550781 L 47.646484 7.5976562 A 1.0001 1.0001 0 0 0 46.757812 6.0703125 z M 44.697266 8.5566406 L 43.521484 10.447266 A 1.0001 1.0001 0 0 0 44.142578 11.949219 C 45.104841 12.17489 46.100199 12.581215 46.835938 13.148438 C 47.571675 13.715658 48.049164 14.391057 48.171875 15.335938 C 48.500997 17.868302 49.435937 19.067714 50.216797 19.650391 C 50.607227 19.941729 50.867412 20.097885 50.927734 20.160156 C 50.988054 20.222426 51.003906 20.162657 51.003906 20.507812 C 51.003906 22.045254 50.329383 23.101221 49.179688 23.896484 C 48.029992 24.691747 46.374421 25.142318 44.634766 25.138672 A 1.0001 1.0001 0 0 0 43.720703 25.728516 L 42.634766 28.136719 A 1.0001 1.0001 0 0 0 42.712891 29.101562 C 43.581804 30.405379 44.09375 31.960906 44.09375 33.648438 C 44.09375 35.754812 43.30257 37.658333 42.005859 39.111328 A 1.0001 1.0001 0 0 0 41.751953 39.792969 C 41.783453 41.652501 41.90415 47.152752 43.021484 50.505859 A 1.0001 1.0001 0 0 0 43.970703 51.189453 C 45.46331 51.189453 45.939057 51.812053 46.285156 52.529297 C 46.395609 52.758195 46.347246 52.787549 46.400391 52.998047 L 42.123047 52.998047 C 39.414086 48.772135 38.284257 44.875155 37.876953 42.613281 A 1.0001 1.0001 0 0 0 36.789062 41.796875 C 36.853772 41.79013 34.896626 41.869143 33.8125 41.90625 C 33.817171 41.821369 33.828293 41.73751 33.810547 41.650391 C 33.690547 41.100391 33.160859 40.759141 32.630859 40.869141 C 32.080859 40.979141 31.739609 41.520547 31.849609 42.060547 C 31.884588 42.224945 31.969014 42.360007 32.070312 42.480469 A 1.0001 1.0001 0 0 0 31.957031 42.9375 C 31.957031 46.25487 29.859277 47.694928 29.351562 48 L 25 48 A 1.0001 1.0001 0 1 0 25 50 L 29.474609 50 A 1.0001 1.0001 0 0 0 29.632812 50.011719 L 30.998047 50 C 31.921605 50 32.910854 50.480755 33.658203 51.253906 C 34.145287 51.757807 34.448868 52.373116 34.646484 53 L 15.341797 53 A 1.0001 1.0001 0 0 0 15.275391 53.001953 C 14.197419 53.071983 12.706336 53.274223 11.382812 54.117188 C 10.059294 54.960102 9 56.55292 9 58.84375 C 9 61.05105 10.422828 63.044388 12.560547 64.097656 C 16.465385 66.0238 21.619487 64.717944 26.388672 61.050781 A 1.0001 1.0001 0 0 0 26.390625 61.050781 C 26.836573 60.706254 27.448161 60.786739 27.792969 61.234375 C 28.137163 61.681726 28.055938 62.293248 27.609375 62.636719 C 23.866348 65.515599 19.945595 66.966797 16.482422 66.966797 C 14.751464 66.966797 13.13583 66.610718 11.677734 65.892578 C 8.7542304 64.453477 7 61.751966 7 58.84375 C 7 56.515143 7.7438758 54.824942 8.9160156 53.566406 C 10.088155 52.307871 11.729939 51.484561 13.546875 51.099609 A 1.0001 1.0001 0 0 0 14.339844 50.121094 L 14.339844 49.324219 A 1.0001 1.0001 0 0 0 14.337891 49.287109 L 14.296875 48.150391 A 1.0001 1.0001 0 0 0 14.289062 48.058594 C 12.974818 37.981439 16.205143 32.59909 20.550781 29.46875 C 24.89642 26.33841 30.529594 25.562091 33.886719 25.429688 A 1.0001 1.0001 0 0 0 34.753906 24.853516 L 36.570312 20.978516 A 1.0001 1.0001 0 0 0 36.625 20.279297 C 35.642785 16.857893 36.452643 13.968369 38.353516 11.798828 C 39.835171 10.107756 42.134714 9.0865141 44.697266 8.5566406 z M 43.628906 16.433594 C 43.603906 18.490594 44.624797 19.299859 46.466797 19.130859 C 46.762797 17.366859 45.852906 16.291594 43.628906 16.433594 z M 23.779297 34.580078 C 23.229297 34.660078 22.849922 35.160938 22.919922 35.710938 C 22.989922 36.210938 23.420156 36.570313 23.910156 36.570312 L 24.050781 36.570312 L 24.050781 36.560547 C 24.600781 36.490547 24.980391 35.989453 24.900391 35.439453 C 24.830391 34.889453 24.329297 34.510078 23.779297 34.580078 z M 46.039062 34.623047 C 48.029615 35.896713 51.619391 38.085558 54.34375 39.046875 C 56.960838 39.96983 58.444653 43.392949 58.78125 44.207031 C 58.372029 44.562863 57.798897 44.822001 57.166016 44.796875 C 56.359349 44.764854 55.805714 44.440078 55.650391 43.894531 C 55.629104 43.710148 55.560468 43.197942 55.292969 42.542969 C 54.971968 41.757001 54.298394 40.735552 53.044922 40.462891 C 52.027646 40.241608 50.010849 40.073413 47.898438 39.792969 C 46.84223 39.652746 45.78556 39.490791 44.904297 39.304688 C 44.705347 39.262673 44.556618 39.213995 44.376953 39.167969 C 45.263929 37.834061 45.867675 36.296683 46.039062 34.623047 z M 27.810547 35.023438 C 27.422891 35.036562 27.060156 35.279922 26.910156 35.669922 C 26.720156 36.179922 26.970234 36.760937 27.490234 36.960938 C 27.610234 37.000937 27.729609 37.019531 27.849609 37.019531 C 28.249609 37.019531 28.629297 36.780859 28.779297 36.380859 C 28.979297 35.860859 28.719219 35.279844 28.199219 35.089844 C 28.071719 35.039844 27.939766 35.019063 27.810547 35.023438 z M 20.394531 36.072266 C 20.142031 36.034766 19.875391 36.094766 19.650391 36.259766 C 19.210391 36.589766 19.109453 37.220156 19.439453 37.660156 C 19.639453 37.920156 19.94 38.070312 20.25 38.070312 C 20.46 38.070312 20.659844 37.999141 20.839844 37.869141 C 21.289844 37.539141 21.380781 36.910703 21.050781 36.470703 C 20.885781 36.245703 20.647031 36.109766 20.394531 36.072266 z M 63.578125 37.140625 C 63.038125 37.050625 62.519688 37.420938 62.429688 37.960938 C 62.330687 38.510937 62.700234 39.019141 63.240234 39.119141 C 63.300234 39.129141 63.358203 39.130859 63.408203 39.130859 C 63.887203 39.130859 64.308437 38.790781 64.398438 38.300781 C 64.489438 37.760781 64.128125 37.240391 63.578125 37.150391 L 63.578125 37.140625 z M 31.158203 37.302734 C 30.903203 37.282734 30.639688 37.359063 30.429688 37.539062 C 30.009688 37.899062 29.960313 38.529219 30.320312 38.949219 C 30.520312 39.179219 30.800078 39.300781 31.080078 39.300781 C 31.310078 39.300781 31.540469 39.220547 31.730469 39.060547 C 32.150469 38.700547 32.199844 38.070391 31.839844 37.650391 C 31.659844 37.440391 31.413203 37.322734 31.158203 37.302734 z M 67.298828 38.472656 C 66.915391 38.415 66.518281 38.589219 66.300781 38.949219 C 66.020781 39.419219 66.170625 40.040312 66.640625 40.320312 C 66.800625 40.420312 66.979156 40.460938 67.160156 40.460938 C 67.500156 40.460938 67.829766 40.290469 68.009766 39.980469 C 68.299766 39.500469 68.148922 38.889375 67.669922 38.609375 C 67.552422 38.536875 67.426641 38.491875 67.298828 38.472656 z M 69.816406 41.271484 C 69.687266 41.288375 69.559453 41.330641 69.439453 41.400391 C 68.969453 41.680391 68.809844 42.299531 69.089844 42.769531 C 69.279844 43.089531 69.608219 43.260719 69.949219 43.261719 C 70.129219 43.261719 70.300938 43.221094 70.460938 43.121094 C 70.940937 42.841094 71.090547 42.230953 70.810547 41.751953 C 70.601297 41.399453 70.203828 41.220813 69.816406 41.271484 z M 36.144531 43.816406 C 36.620674 46.101505 37.558123 49.341898 39.712891 53 L 36.769531 53 C 36.540805 51.814248 35.928806 50.725148 35.095703 49.863281 C 34.270787 49.009884 33.177242 48.481414 32.003906 48.232422 C 32.830601 47.268721 33.532303 45.784301 33.769531 43.904297 C 34.584712 43.892977 35.382791 43.863256 36.144531 43.816406 z M 71.058594 45.039062 C 70.518594 45.108062 70.129219 45.609156 70.199219 46.160156 C 70.269219 46.670156 70.700453 47.029297 71.189453 47.029297 C 71.229453 47.029297 71.279359 47.030531 71.318359 47.019531 C 71.868359 46.950531 72.249687 46.450156 72.179688 45.910156 L 72.179688 45.898438 C 72.109687 45.358437 71.608594 44.969062 71.058594 45.039062 z M 71.289062 49.03125 C 70.740062 48.96125 70.240688 49.350391 70.179688 49.900391 C 70.109688 50.450391 70.500781 50.949766 71.050781 51.009766 C 71.090781 51.019766 71.129922 51.019531 71.169922 51.019531 C 71.669922 51.019531 72.099156 50.650625 72.160156 50.140625 C 72.229156 49.591625 71.839062 49.09125 71.289062 49.03125 z M 65.277344 50.808594 A 1.0001 1.0001 0 0 0 64.478516 51.226562 L 57.408203 61.125 A 1.0001 1.0001 0 0 0 57.515625 62.414062 L 62.464844 67.363281 A 1.0001 1.0001 0 0 0 63.753906 67.470703 L 65.548828 66.189453 C 65.583116 66.226065 65.61081 66.26706 65.646484 66.302734 C 67.395574 68.051824 70.260676 68.051824 72.009766 66.302734 C 73.434354 64.878146 73.679196 62.720773 72.783203 61.021484 L 73.652344 60.400391 A 1.0001 1.0001 0 0 0 73.777344 58.878906 L 66 51.101562 A 1.0001 1.0001 0 0 0 65.277344 50.808594 z M 65.419922 53.349609 L 71.529297 59.458984 L 63.279297 65.351562 L 59.527344 61.599609 L 65.419922 53.349609 z M 71.150391 62.1875 C 71.517821 63.08868 71.33343 64.150945 70.595703 64.888672 C 69.655761 65.828614 68.193292 65.859971 67.205078 65.005859 L 71.150391 62.1875 z M 54 69 A 1 1 0 0 0 53 70 A 1 1 0 0 0 54 71 A 1 1 0 0 0 55 70 A 1 1 0 0 0 54 69 z M 54 73 A 1 1 0 0 0 53 74 A 1 1 0 0 0 54 75 A 1 1 0 0 0 55 74 A 1 1 0 0 0 54 73 z"/></svg>