<svg xmlns="http://www.w3.org/2000/svg" viewBox="0 0 100 100"><path d="M 31 17 C 23.27961 17 17 23.27961 17 31 L 17 69 C 17 76.72039 23.27961 83 31 83 L 69 83 C 76.72039 83 83 76.72039 83 69 L 83 31 C 83 23.27961 76.72039 17 69 17 L 31 17 z M 31 19 L 69 19 C 75.63961 19 81 24.36039 81 31 L 81 69 C 81 75.63961 75.63961 81 69 81 L 31 81 C 24.36039 81 19 75.63961 19 69 L 19 31 C 19 24.36039 24.36039 19 31 19 z M 34.099609 23 C 27.975367 23 23 27.975367 23 34.099609 L 23 65.900391 C 23 72.024633 27.975367 77 34.099609 77 L 65.900391 77 C 72.024633 77 77 72.024633 77 65.900391 L 77 51.5 A 0.50005 0.50005 0 1 0 76 51.5 L 76 65.900391 C 76 71.484148 71.484148 76 65.900391 76 L 34.099609 76 C 28.515852 76 24 71.484148 24 65.900391 L 24 34.099609 C 24 28.515852 28.515852 24 34.099609 24 L 60.5 24 A 0.50005 0.50005 0 1 0 60.5 23 L 34.099609 23 z M 41.904297 36 C 41.551297 36 41.237938 36.189359 40.960938 36.568359 C 40.960938 36.568359 37.5315 41.311 37.4375 41.5 C 37.3425 41.69 37.294922 41.893375 37.294922 42.109375 C 37.294922 42.412375 37.388172 42.671719 37.576172 42.886719 C 37.765172 43.101719 37.997391 43.208984 38.275391 43.208984 C 38.552391 43.208984 38.792141 43.056906 38.994141 42.753906 L 40.505859 40.287109 L 40.505859 62.785156 C 40.505859 63.089156 40.625234 63.330813 40.865234 63.507812 C 41.104234 63.684812 41.400906 63.773438 41.753906 63.773438 C 42.080906 63.773437 42.369094 63.684812 42.621094 63.507812 C 42.873094 63.331813 43 63.089156 43 62.785156 L 43 36.949219 C 43 36.671219 42.887156 36.442625 42.660156 36.265625 C 42.433156 36.088625 42.181297 36 41.904297 36 z M 55.017578 36.039062 C 53.611578 36.039062 52.394234 36.254547 51.365234 36.685547 C 50.335234 37.115547 49.569359 37.667844 49.068359 38.339844 C 48.565359 39.011844 48.202562 39.664828 47.976562 40.298828 C 47.750563 40.932828 47.638672 41.552156 47.638672 42.160156 C 47.638672 42.714156 47.731922 43.090969 47.919922 43.292969 C 48.108922 43.493969 48.440969 43.595703 48.917969 43.595703 C 49.720969 43.595703 50.123047 43.191719 50.123047 42.386719 C 50.123047 41.330719 50.485844 40.394172 51.214844 39.576172 C 51.942844 38.758172 53.184406 38.349609 54.941406 38.349609 C 56.522406 38.349609 57.67825 38.745109 58.40625 39.537109 C 59.13425 40.329109 59.498047 41.556797 59.498047 43.216797 C 59.498047 45.002797 59.108078 46.253703 58.330078 46.970703 C 57.552078 47.687703 56.373969 48.046875 54.792969 48.046875 C 54.165969 48.046875 53.851562 48.412531 53.851562 49.144531 C 53.851562 49.851531 54.177078 50.205078 54.830078 50.205078 C 56.512078 50.205078 57.824625 50.622078 58.765625 51.455078 C 59.706625 52.288078 60.177734 53.550187 60.177734 55.242188 L 60.177734 55.962891 C 60.177734 59.750891 58.370859 61.644531 54.755859 61.644531 C 52.897859 61.644531 51.548031 61.203359 50.707031 60.318359 C 49.866031 59.434359 49.445312 58.475453 49.445312 57.439453 C 49.445313 56.732453 49.019016 56.378906 48.166016 56.378906 C 47.739016 56.378906 47.438672 56.474063 47.263672 56.664062 C 47.087672 56.854062 47 57.200078 47 57.705078 C 47 59.296078 47.677203 60.737344 49.033203 62.027344 C 50.388203 63.315344 52.309922 63.958984 54.794922 63.958984 C 57.153922 63.958984 59.055047 63.315344 60.498047 62.027344 C 61.941047 60.739344 62.662109 58.719797 62.662109 55.966797 L 62.662109 55.246094 C 62.662109 52.190094 61.383266 50.145375 58.822266 49.109375 C 59.750266 48.656375 60.4975 47.888641 61.0625 46.806641 C 61.6275 45.724641 61.908203 44.364516 61.908203 42.728516 C 61.908203 38.270516 59.611578 36.039062 55.017578 36.039062 z M 76.492188 38.992188 A 0.50005 0.50005 0 0 0 76 39.5 L 76 41.5 A 0.50005 0.50005 0 1 0 77 41.5 L 77 39.5 A 0.50005 0.50005 0 0 0 76.492188 38.992188 z M 76.492188 43.992188 A 0.50005 0.50005 0 0 0 76 44.5 L 76 48.5 A 0.50005 0.50005 0 1 0 77 48.5 L 77 44.5 A 0.50005 0.50005 0 0 0 76.492188 43.992188 z"/></svg>