<svg xmlns="http://www.w3.org/2000/svg" viewBox="0 0 24 24"><path d="M 12 2 C 12 2 5 9 5 15 C 5 18.866 8.134 22 12 22 C 15.866 22 19 18.866 19 15 C 19 9 12 2 12 2 z M 2.6230469 8.3359375 L 1.7285156 10.125 L 3.4785156 11 L 4.3730469 9.2109375 L 2.6230469 8.3359375 z M 21.376953 8.3359375 L 19.626953 9.2109375 L 20.521484 11 L 22.271484 10.125 L 21.376953 8.3359375 z M 1 14 L 1 16 L 3 16 L 3 14 L 1 14 z M 21 14 L 21 16 L 23 16 L 23 14 L 21 14 z M 3.6816406 19.007812 L 2.0566406 20.132812 L 3.1933594 21.777344 L 4.8183594 20.652344 L 3.6816406 19.007812 z M 20.318359 19.007812 L 19.181641 20.652344 L 20.806641 21.777344 L 21.943359 20.132812 L 20.318359 19.007812 z"/></svg>