<svg xmlns="http://www.w3.org/2000/svg" viewBox="0 0 64 64"><radialGradient id="6PZIEy5QeW39dVHMviJNNa" cx="32.085" cy="33.596" r="36.002" gradientTransform="matrix(1 0 0 -1 0 66)" gradientUnits="userSpaceOnUse"><stop offset="0" stop-color="#f4e9c3"/><stop offset=".219" stop-color="#f8eecd"/><stop offset=".644" stop-color="#fdf4dc"/><stop offset="1" stop-color="#fff6e1"/></radialGradient><path fill="url(#6PZIEy5QeW39dVHMviJNNa)" d="M64,49c0,2.21-1.79,4-4,4h-3c-1.1,0-2,0.9-2,2s0.9,2,2,2h0.5c1.93,0,3.5,1.57,3.5,3.5	S59.93,64,58,64H6.5C4.57,64,3,62.43,3,60.5S4.57,57,6.5,57C7.88,57,9,55.88,9,54.5S7.88,52,6.5,52H4c-2.21,0-4-1.79-4-4s1.79-4,4-4	h10.5c1.93,0,3.5-1.57,3.5-3.5S16.43,37,14.5,37H5c-2.76,0-5-2.24-5-5s2.24-5,5-5h6.5c0.69,0,1.32-0.28,1.77-0.73	C13.72,25.82,14,25.19,14,24.5c0-1.38-1.12-2.5-2.5-2.5H7c-2.21,0-4-1.79-4-4s1.79-4,4-4h10c1.66,0,3-1.34,3-3s-1.34-3-3-3h-2	c-2.21,0-4-1.79-4-4s1.79-4,4-4h36c2.21,0,4,1.79,4,4s-1.79,4-4,4h-3c-2.21,0-4,1.79-4,4s1.79,4,4,4h11.5c2.48,0,4.5,2.02,4.5,4.5	S61.98,25,59.5,25H54c-1.66,0-3,1.34-3,3c0,0.83,0.34,1.58,0.88,2.12c0.31,0.31,0.69,0.56,1.12,0.7c0.31,0.12,0.65,0.18,1,0.18h3.52	C60,31,62,33,62,35.48v0.04C62,38,60,40,57.52,40H50.5c-1.38,0-2.5,1.12-2.5,2.5c0,0.69,0.28,1.32,0.73,1.77S49.81,45,50.5,45H60	C62.21,45,64,46.79,64,49z"/><radialGradient id="6PZIEy5QeW39dVHMviJNNb" cx="32.085" cy="33.596" r="36.002" gradientTransform="matrix(1 0 0 -1 0 66)" gradientUnits="userSpaceOnUse"><stop offset="0" stop-color="#f4e9c3"/><stop offset=".219" stop-color="#f8eecd"/><stop offset=".644" stop-color="#fdf4dc"/><stop offset="1" stop-color="#fff6e1"/></radialGradient><circle cx="4" cy="4" r="4" fill="url(#6PZIEy5QeW39dVHMviJNNb)"/><linearGradient id="6PZIEy5QeW39dVHMviJNNc" x1="31.966" x2="31.966" y1="10.234" y2="59.426" gradientTransform="matrix(1 0 0 -1 0 66)" gradientUnits="userSpaceOnUse"><stop offset="0" stop-color="#155cde"/><stop offset=".278" stop-color="#1f7fe5"/><stop offset=".569" stop-color="#279ceb"/><stop offset=".82" stop-color="#2cafef"/><stop offset="1" stop-color="#2eb5f0"/></linearGradient><path fill="url(#6PZIEy5QeW39dVHMviJNNc)" d="M35.502,9.012l23.003,40.034c1.534,2.669-0.397,5.998-3.475,5.993L8.888,54.96	c-3.079-0.005-4.997-3.341-3.455-6.005l23.14-39.954C30.116,6.335,33.968,6.341,35.502,9.012z"/><linearGradient id="6PZIEy5QeW39dVHMviJNNd" x1="31.966" x2="31.966" y1="10.234" y2="59.426" gradientTransform="matrix(1 0 0 -1 0 66)" gradientUnits="userSpaceOnUse"><stop offset="0" stop-color="#67ccf0"/><stop offset=".232" stop-color="#70d1f2"/><stop offset=".644" stop-color="#89ddf8"/><stop offset="1" stop-color="#a1e9fd"/></linearGradient><path fill="url(#6PZIEy5QeW39dVHMviJNNd)" d="M32.035,10.005c0.216,0,0.616,0.065,0.867,0.502l23.003,40.034	c0.25,0.435,0.106,0.813-0.002,0.999s-0.364,0.499-0.867,0.499L8.893,51.96c-0.502-0.001-0.758-0.314-0.865-0.501	c-0.108-0.187-0.25-0.565,0.001-1l23.139-39.955C31.42,10.07,31.819,10.005,32.035,10.005 M32.034,7.005	c-1.345,0-2.691,0.665-3.461,1.995L5.434,48.956C3.891,51.62,5.81,54.955,8.888,54.96l46.142,0.079c0.002,0,0.005,0,0.007,0	c3.074,0,5-3.326,3.468-5.993L35.502,9.012C34.734,7.674,33.384,7.005,32.034,7.005L32.034,7.005z"/><path fill="#fff" d="M46.45,34.518c0.541,0.538,0.541,1.428,0,1.966C44.199,38.72,39.132,44,32,44	s-12.199-5.28-14.45-7.518c-0.541-0.538-0.541-1.428,0-1.966C19.801,32.28,24.868,27,32,27S44.199,32.28,46.45,34.518z"/><linearGradient id="6PZIEy5QeW39dVHMviJNNe" x1="32" x2="32" y1="10.234" y2="59.426" gradientTransform="matrix(1 0 0 -1 0 66)" gradientUnits="userSpaceOnUse"><stop offset="0" stop-color="#67ccf0"/><stop offset=".232" stop-color="#70d1f2"/><stop offset=".644" stop-color="#89ddf8"/><stop offset="1" stop-color="#a1e9fd"/></linearGradient><path fill="url(#6PZIEy5QeW39dVHMviJNNe)" d="M32,27c7.132,0,12.199,5.28,14.45,7.517c0.541,0.538,0.541,1.428,0,1.966	C44.199,38.72,39.132,44,32,44s-12.199-5.28-14.45-7.518c-0.541-0.537-0.541-1.428,0-1.965C19.801,32.28,24.868,27,32,27 M32,24	c-8.151,0-13.898,5.73-16.351,8.176l-0.214,0.213c-0.832,0.828-1.291,1.932-1.291,3.11s0.458,2.283,1.29,3.11l0.213,0.212	C18.101,41.269,23.847,47,32,47c8.151,0,13.898-5.73,16.351-8.176l0.214-0.213c0.832-0.828,1.291-1.932,1.291-3.11	s-0.458-2.283-1.29-3.11l-0.213-0.212C45.899,29.731,40.152,24,32,24L32,24z"/><linearGradient id="6PZIEy5QeW39dVHMviJNNf" x1="32" x2="32" y1="10.234" y2="59.426" gradientTransform="matrix(1 0 0 -1 0 66)" gradientUnits="userSpaceOnUse"><stop offset="0" stop-color="#40daf2"/><stop offset=".259" stop-color="#3bd3ef"/><stop offset=".624" stop-color="#2ec1e8"/><stop offset="1" stop-color="#1ba7dd"/></linearGradient><path fill="url(#6PZIEy5QeW39dVHMviJNNf)" d="M32,29c-3.829,0-6.933,2.91-6.933,6.5S28.171,42,32,42s6.933-2.91,6.933-6.5S35.829,29,32,29z"/><linearGradient id="6PZIEy5QeW39dVHMviJNNg" x1="32" x2="32" y1="712.234" y2="761.426" gradientTransform="translate(0 -3810)" gradientUnits="userSpaceOnUse"><stop offset="0" stop-color="#606f7d"/><stop offset=".223" stop-color="#5c6a77"/><stop offset="1" stop-color="#505b67"/></linearGradient><path fill="url(#6PZIEy5QeW39dVHMviJNNg)" d="M32,32c-1.933,0-3.5,1.567-3.5,3.5S30.067,39,32,39s3.5-1.567,3.5-3.5S33.933,32,32,32z"/><path fill="#fff" d="M34,32c-1.105,0-2,0.895-2,2s0.895,2,2,2s2-0.895,2-2S35.105,32,34,32z"/></svg>