<svg xmlns="http://www.w3.org/2000/svg" viewBox="0 0 100 100"><path fill="#c7ede6" d="M88.704,55.674c0.3-0.616,0.566-1.264,0.796-1.943c2.633-7.77-1.349-17.078-9.733-19.325C78.86,23.023,70.86,15.214,61.826,13.881c-10.341-1.525-19.814,5.044-22.966,15.485c-3.799-1.346-7.501-1.182-10.99,0.857c-1.583,0.732-3.031,1.812-4.33,3.233c-1.907,2.086-3.147,4.719-3.652,7.495c-0.748,0.118-1.483,0.236-2.176,0.484c-4.04,1.449-6.589,4.431-7.288,8.923c-0.435,2.797,0.443,5.587,0.933,6.714c1.935,4.455,6.422,6.98,10.981,6.312c0.227-0.033,0.557,0.069,0.752,0.233c0.241,7.12,3.698,13.417,8.884,17.014c8.321,5.772,19.027,3.994,25.781-3.921c2.894,2.96,6.338,4.398,10.384,3.876c4.023-0.519,7.147-2.739,9.426-6.349c1.053,0.283,2.051,0.691,3.083,0.804c4.042,0.442,7.324-1.165,9.732-4.8c0.922-1.391,1.793-3.194,1.793-6.354C92.174,60.631,90.881,57.664,88.704,55.674z"/><path fill="#fff" d="M18.369 47.711H8.338c-.276 0-.5-.224-.5-.5s.224-.5.5-.5h10.03c.276 0 .5.224.5.5S18.645 47.711 18.369 47.711zM21.25 47.711h-1.445c-.276 0-.5-.224-.5-.5s.224-.5.5-.5h1.445c.276 0 .5.224.5.5S21.526 47.711 21.25 47.711zM25.304 47.711h-2.546c-.276 0-.5-.224-.5-.5s.224-.5.5-.5h2.546c.276 0 .5.224.5.5S25.581 47.711 25.304 47.711zM25.304 49.575h-9.616c-.276 0-.5-.224-.5-.5s.224-.5.5-.5h9.616c.276 0 .5.224.5.5S25.581 49.575 25.304 49.575zM13.957 49.575h-.58c-.276 0-.5-.224-.5-.5s.224-.5.5-.5h.58c.276 0 .5.224.5.5S14.233 49.575 13.957 49.575zM11.58 49.575h-1.456c-.276 0-.5-.224-.5-.5s.224-.5.5-.5h1.456c.276 0 .5.224.5.5S11.856 49.575 11.58 49.575zM20.715 45.845h-5.027c-.276 0-.5-.224-.5-.5s.224-.5.5-.5h5.027c.276 0 .5.224.5.5S20.992 45.845 20.715 45.845zM20.715 43.98h-1.257c-.276 0-.5-.224-.5-.5s.224-.5.5-.5h1.257c.276 0 .5.224.5.5S20.992 43.98 20.715 43.98zM17.447 51.44h-1.759c-.276 0-.5-.224-.5-.5s.224-.5.5-.5h1.759c.276 0 .5.224.5.5S17.723 51.44 17.447 51.44zM71.546 21.433h-10.03c-.276 0-.5-.224-.5-.5s.224-.5.5-.5h10.03c.276 0 .5.224.5.5S71.823 21.433 71.546 21.433zM74.427 21.433h-1.445c-.276 0-.5-.224-.5-.5s.224-.5.5-.5h1.445c.276 0 .5.224.5.5S74.704 21.433 74.427 21.433zM78.482 21.433h-2.546c-.276 0-.5-.224-.5-.5s.224-.5.5-.5h2.546c.276 0 .5.224.5.5S78.758 21.433 78.482 21.433zM76.457 17.704H66.84c-.276 0-.5-.224-.5-.5s.224-.5.5-.5h9.616c.276 0 .5.224.5.5S76.733 17.704 76.457 17.704zM65.108 17.704h-.579c-.276 0-.5-.224-.5-.5s.224-.5.5-.5h.579c.276 0 .5.224.5.5S65.384 17.704 65.108 17.704zM62.732 17.704h-1.457c-.276 0-.5-.224-.5-.5s.224-.5.5-.5h1.457c.276 0 .5.224.5.5S63.008 17.704 62.732 17.704zM73.893 19.568h-5.027c-.276 0-.5-.224-.5-.5s.224-.5.5-.5h5.027c.276 0 .5.224.5.5S74.17 19.568 73.893 19.568z"/><path fill="#fff" d="M73.893 17.704h-1.257c-.276 0-.5-.224-.5-.5s.224-.5.5-.5h1.257c.276 0 .5.224.5.5S74.17 17.704 73.893 17.704zM67.411 19.568h-1.759c-.276 0-.5-.224-.5-.5s.224-.5.5-.5h1.759c.276 0 .5.224.5.5S67.687 19.568 67.411 19.568z"/><path fill="#fdfcef" d="M45.114,62.763c0,0,10.309,0,10.371,0c2.381,0,4.31-1.93,4.31-4.311c0-2.077-1.469-3.81-3.425-4.219c0.023-0.182,0.038-0.366,0.038-0.554c0-2.466-1.999-4.465-4.464-4.465c-1.456,0-2.745,0.7-3.56,1.778c-0.208-2.745-2.66-4.862-5.528-4.511c-2.097,0.257-3.832,1.878-4.218,3.955c-0.124,0.666-0.111,1.313,0.012,1.92c-0.562-0.606-1.363-0.987-2.254-0.987c-1.632,0-2.963,1.27-3.069,2.875c-0.741-0.164-1.547-0.153-2.396,0.165c-1.622,0.609-2.778,2.137-2.845,3.868c-0.096,2.459,1.869,4.483,4.307,4.483c0.185,0,0.836,0,0.986,0h8.951"/><path fill="#472b29" d="M55.486,63.263H45.114c-0.276,0-0.5-0.224-0.5-0.5s0.224-0.5,0.5-0.5h10.372c2.102,0,3.811-1.709,3.811-3.811c0-1.794-1.273-3.362-3.027-3.729c-0.254-0.053-0.426-0.293-0.394-0.551c0.02-0.161,0.034-0.324,0.034-0.492c0-2.187-1.778-3.965-3.965-3.965c-1.25,0-2.402,0.576-3.16,1.58c-0.126,0.166-0.342,0.236-0.54,0.178c-0.199-0.059-0.342-0.234-0.358-0.441c-0.091-1.199-0.678-2.325-1.61-3.089c-0.942-0.771-2.136-1.109-3.358-0.964c-1.884,0.23-3.441,1.689-3.788,3.551c-0.107,0.581-0.104,1.163,0.012,1.729c0.044,0.22-0.062,0.442-0.262,0.544c-0.197,0.105-0.441,0.06-0.595-0.104c-0.496-0.533-1.166-0.827-1.888-0.827c-1.353,0-2.481,1.058-2.57,2.409c-0.01,0.146-0.082,0.279-0.199,0.367c-0.117,0.087-0.265,0.118-0.408,0.088c-0.731-0.163-1.421-0.115-2.111,0.145c-1.449,0.545-2.463,1.919-2.521,3.42c-0.042,1.048,0.335,2.04,1.06,2.794c0.726,0.755,1.701,1.17,2.747,1.17h9.937c0.276,0,0.5,0.224,0.5,0.5s-0.224,0.5-0.5,0.5h-9.937c-1.32,0-2.553-0.524-3.468-1.477s-1.391-2.204-1.339-3.526c0.074-1.897,1.348-3.633,3.169-4.316c0.699-0.263,1.421-0.354,2.15-0.273c0.358-1.607,1.798-2.8,3.49-2.8c0.58,0,1.148,0.144,1.655,0.41c0.006-0.311,0.037-0.622,0.095-0.934c0.425-2.286,2.337-4.078,4.649-4.36c1.49-0.187,2.958,0.236,4.113,1.183c0.87,0.713,1.495,1.683,1.793,2.754c0.893-0.776,2.03-1.208,3.242-1.208c2.737,0,4.965,2.228,4.965,4.965c0,0.06-0.001,0.118-0.004,0.176c1.989,0.615,3.391,2.482,3.391,4.597C60.296,61.105,58.138,63.263,55.486,63.263z"/><path fill="#fdfcef" d="M57.231,54.739c-1.498-0.706-3.231-0.206-3.87,1.117c-0.079,0.164-0.138,0.334-0.177,0.506"/><path fill="#472b29" d="M53.184,56.612c-0.019,0-0.037-0.002-0.056-0.006c-0.135-0.031-0.219-0.165-0.188-0.3c0.044-0.19,0.109-0.379,0.195-0.559c0.698-1.444,2.584-1.998,4.202-1.235c0.125,0.06,0.179,0.208,0.12,0.333c-0.06,0.125-0.21,0.177-0.333,0.12c-1.372-0.647-2.96-0.199-3.538,0.999c-0.07,0.146-0.123,0.298-0.158,0.453C53.402,56.533,53.298,56.612,53.184,56.612z"/><path fill="#fdfcef" d="M76.868,51.551c1.883,0,3.517,0,3.54,0c2.11,0,3.821-1.674,3.821-3.739c0-1.802-1.302-3.305-3.035-3.66c0.02-0.158,0.034-0.317,0.034-0.48c0-2.139-1.772-3.873-3.957-3.873c-1.29,0-2.433,0.607-3.155,1.543c-0.185-2.381-2.358-4.218-4.9-3.913c-1.859,0.223-3.397,1.629-3.739,3.431c-0.11,0.578-0.098,1.139,0.011,1.665c-0.498-0.525-1.208-0.856-1.998-0.856c-1.446,0-2.627,1.102-2.72,2.494c-0.657-0.142-1.371-0.133-2.123,0.143c-1.438,0.528-2.462,1.853-2.522,3.356c-0.085,2.133,1.657,3.889,3.818,3.889c0.164,0,0.741,0,0.874,0h7.934 M70.391,51.551h0.36"/><path fill="#472b29" d="M80.409,52.05h-3.541c-0.276,0-0.5-0.224-0.5-0.5s0.224-0.5,0.5-0.5h3.541c1.831,0,3.32-1.453,3.32-3.239c0-1.524-1.108-2.856-2.636-3.169c-0.255-0.053-0.428-0.293-0.396-0.552c0.017-0.138,0.029-0.276,0.029-0.419c0-1.86-1.551-3.373-3.457-3.373c-1.092,0-2.098,0.491-2.76,1.349c-0.126,0.164-0.341,0.231-0.538,0.174c-0.198-0.06-0.34-0.234-0.355-0.44c-0.079-1.02-0.565-1.944-1.369-2.604c-0.829-0.68-1.885-0.981-2.974-0.854c-1.646,0.197-3.006,1.443-3.307,3.028c-0.094,0.495-0.091,0.99,0.009,1.471c0.046,0.219-0.06,0.441-0.258,0.545c-0.196,0.103-0.439,0.063-0.595-0.1c-0.428-0.451-1.009-0.7-1.635-0.7c-1.17,0-2.146,0.891-2.221,2.028c-0.01,0.146-0.082,0.279-0.198,0.366s-0.264,0.121-0.407,0.089c-0.637-0.139-1.24-0.098-1.844,0.125c-1.263,0.463-2.146,1.631-2.195,2.905c-0.035,0.875,0.282,1.708,0.895,2.345c0.635,0.66,1.495,1.024,2.423,1.024h8.808c0.276,0,0.5,0.224,0.5,0.5s-0.224,0.5-0.5,0.5h-8.808c-1.185,0-2.33-0.485-3.144-1.332c-0.803-0.835-1.219-1.928-1.174-3.076c0.066-1.675,1.212-3.204,2.85-3.806c0.612-0.224,1.246-0.309,1.88-0.244c0.345-1.396,1.629-2.425,3.136-2.425c0.493,0,0.977,0.113,1.414,0.323c0.009-0.241,0.036-0.483,0.082-0.725c0.381-2.01,2.096-3.587,4.17-3.835c1.364-0.17,2.686,0.218,3.727,1.072c0.748,0.614,1.278,1.409,1.546,2.302c0.791-0.648,1.786-1.007,2.843-1.007c2.458,0,4.457,1.962,4.457,4.373c0,0.034-0.001,0.068-0.002,0.103c1.765,0.555,3.004,2.188,3.004,4.037C84.729,50.149,82.791,52.05,80.409,52.05z M70.751,52.05h-0.359c-0.276,0-0.5-0.224-0.5-0.5s0.224-0.5,0.5-0.5h0.359c0.276,0,0.5,0.224,0.5,0.5S71.027,52.05,70.751,52.05z"/><path fill="#472b29" d="M78.701 46.248c-.018 0-.036-.002-.055-.006-.135-.03-.22-.164-.189-.299.036-.163.094-.324.169-.479.605-1.224 2.273-1.675 3.722-1.006.126.058.181.206.122.331-.058.126-.209.181-.331.122-1.207-.557-2.579-.208-3.064.773-.058.119-.102.242-.129.368C78.919 46.169 78.816 46.248 78.701 46.248zM73.542 52.05h-1.106c-.276 0-.5-.224-.5-.5s.224-.5.5-.5h1.106c.276 0 .5.224.5.5S73.818 52.05 73.542 52.05z"/><path fill="#8889b9" d="M68.508 74.62L56.702 66.182 44.895 74.62 44.895 30.429 68.508 30.429z"/><path fill="#472b29" d="M68.508,75.321c-0.144,0-0.286-0.044-0.407-0.131l-11.399-8.147L45.302,75.19c-0.214,0.152-0.495,0.174-0.728,0.053c-0.233-0.119-0.38-0.359-0.38-0.622V30.429c0-0.387,0.313-0.7,0.7-0.7h23.613c0.387,0,0.7,0.313,0.7,0.7v44.191c0,0.263-0.146,0.503-0.38,0.622C68.728,75.295,68.618,75.321,68.508,75.321z M56.702,65.482c0.143,0,0.285,0.044,0.407,0.131l10.699,7.647V31.129H45.595V73.26l10.699-7.647C56.417,65.526,56.559,65.482,56.702,65.482z"/><path fill="#fbcd59" d="M56.626 36.507000000000005A7.898 7.898 0 1 0 56.626 52.303A7.898 7.898 0 1 0 56.626 36.507000000000005Z"/><path fill="#472b29" d="M56.627,52.703c-4.576,0-8.299-3.723-8.299-8.298s3.723-8.298,8.299-8.298c4.575,0,8.298,3.723,8.298,8.298S61.202,52.703,56.627,52.703z M56.627,36.908c-4.135,0-7.498,3.363-7.498,7.497s3.363,7.497,7.498,7.497c4.134,0,7.497-3.363,7.497-7.497S60.76,36.908,56.627,36.908z"/><path fill="#472b29" d="M62.807 46.789c-.02 0-.038-.003-.058-.01-.088-.032-.134-.129-.103-.218.247-.689.373-1.415.373-2.156 0-3.526-2.868-6.395-6.394-6.395-.094 0-.17-.076-.17-.17s.076-.17.17-.17c3.713 0 6.733 3.021 6.733 6.734 0 .78-.132 1.545-.393 2.271C62.942 46.746 62.877 46.789 62.807 46.789zM52.609 49.767c-.036 0-.073-.012-.104-.035-1.66-1.287-2.612-3.229-2.612-5.327 0-2.227 1.099-4.307 2.939-5.564.077-.051.184-.033.236.045.053.077.033.183-.045.236-1.747 1.193-2.791 3.169-2.791 5.283 0 1.992.904 3.836 2.481 5.058.074.058.087.165.03.239C52.71 49.745 52.66 49.767 52.609 49.767zM53.711 50.458c-.025 0-.052-.006-.075-.018-.174-.086-.343-.18-.508-.279-.08-.049-.105-.154-.057-.234.05-.078.152-.104.234-.057.155.096.316.184.48.266.085.042.119.144.077.228C53.833 50.423 53.773 50.458 53.711 50.458zM56.627 51.139c-.681 0-1.354-.102-2.001-.303-.089-.027-.14-.123-.111-.213.027-.089.118-.145.213-.111.613.19 1.253.287 1.899.287.094 0 .17.076.17.17S56.72 51.139 56.627 51.139z"/><path fill="#f1bc19" d="M56.782 40.236L58.099 42.904 61.044 43.332 58.913 45.409 59.416 48.342 56.782 46.957 54.148 48.342 54.651 45.409 52.52 43.332 55.465 42.904z"/><path fill="#472b29" d="M59.416 48.592c-.04 0-.08-.01-.116-.028l-2.518-1.324-2.518 1.324c-.083.043-.187.038-.263-.02-.077-.056-.116-.15-.1-.244l.48-2.805-2.037-1.985c-.067-.066-.093-.165-.062-.256.029-.091.107-.156.201-.17l2.814-.409 1.259-2.55c.086-.172.363-.172.449 0l1.259 2.55 2.814.409c.094.014.172.079.201.17.03.091.005.189-.062.256l-2.037 1.985.48 2.805c.017.094-.022.188-.1.244C59.519 48.577 59.467 48.592 59.416 48.592zM56.782 46.708c.04 0 .08.01.116.028l2.186 1.149-.417-2.435c-.015-.081.013-.164.071-.221l1.769-1.724-2.443-.355c-.081-.012-.151-.062-.188-.137L56.782 40.8l-1.093 2.214c-.037.074-.107.125-.188.137l-2.443.355 1.769 1.724c.059.057.086.14.071.221l-.417 2.435 2.186-1.149C56.702 46.717 56.742 46.708 56.782 46.708zM46.596 60.91c-.138 0-.25-.112-.25-.25v-28.98c0-.138.112-.25.25-.25s.25.112.25.25v28.98C46.846 60.797 46.734 60.91 46.596 60.91zM46.596 70.727c-.166 0-.3-.134-.3-.3v-1c0-.166.134-.3.3-.3s.3.134.3.3v1C46.896 70.593 46.762 70.727 46.596 70.727zM46.596 68.727c-.166 0-.3-.134-.3-.3v-1c0-.166.134-.3.3-.3s.3.134.3.3v1C46.896 68.593 46.762 68.727 46.596 68.727zM46.596 66.727c-.166 0-.3-.134-.3-.3v-1c0-.166.134-.3.3-.3s.3.134.3.3v1C46.896 66.593 46.762 66.727 46.596 66.727zM46.596 64.727c-.166 0-.3-.134-.3-.3v-1c0-.166.134-.3.3-.3s.3.134.3.3v1C46.896 64.593 46.762 64.727 46.596 64.727zM46.596 62.727c-.166 0-.3-.134-.3-.3v-1c0-.166.134-.3.3-.3s.3.134.3.3v1C46.896 62.593 46.762 62.727 46.596 62.727zM66.807 71.6c-.138 0-.25-.112-.25-.25V42.37c0-.138.112-.25.25-.25s.25.112.25.25v28.98C67.057 71.488 66.945 71.6 66.807 71.6zM66.807 41.902c-.166 0-.3-.134-.3-.3v-1c0-.166.134-.3.3-.3s.3.134.3.3v1C67.107 41.768 66.973 41.902 66.807 41.902zM66.807 39.902c-.166 0-.3-.134-.3-.3v-1c0-.166.134-.3.3-.3s.3.134.3.3v1C67.107 39.768 66.973 39.902 66.807 39.902zM66.807 37.902c-.166 0-.3-.134-.3-.3v-1c0-.166.134-.3.3-.3s.3.134.3.3v1C67.107 37.768 66.973 37.902 66.807 37.902zM66.807 35.902c-.166 0-.3-.134-.3-.3v-1c0-.166.134-.3.3-.3s.3.134.3.3v1C67.107 35.768 66.973 35.902 66.807 35.902zM66.807 33.902c-.166 0-.3-.134-.3-.3v-1c0-.166.134-.3.3-.3s.3.134.3.3v1C67.107 33.768 66.973 33.902 66.807 33.902z"/><path fill="#fdfcee" d="M72.319 56.634A9.928 9.928 0 1 0 72.319 76.49A9.928 9.928 0 1 0 72.319 56.634Z"/><path fill="#472b29" d="M72.319,76.99c-5.75,0-10.429-4.678-10.429-10.428s4.679-10.429,10.429-10.429s10.429,4.679,10.429,10.429S78.069,76.99,72.319,76.99z M72.319,57.133c-5.199,0-9.429,4.229-9.429,9.429c0,5.198,4.23,9.428,9.429,9.428s9.429-4.229,9.429-9.428C81.748,61.363,77.518,57.133,72.319,57.133z"/><path fill="#ee3e54" d="M72.319 58.495999999999995A8.066 8.066 0 1 0 72.319 74.628A8.066 8.066 0 1 0 72.319 58.495999999999995Z"/><path fill="#472b29" d="M72.319,74.953c-4.627,0-8.392-3.764-8.392-8.391s3.765-8.392,8.392-8.392s8.392,3.765,8.392,8.392S76.946,74.953,72.319,74.953z M72.319,58.821c-4.269,0-7.741,3.473-7.741,7.741s3.473,7.74,7.741,7.74s7.741-3.472,7.741-7.74S76.587,58.821,72.319,58.821z"/><path fill="#fdfcee" d="M74.152,65.665c-0.176,0.303-0.397,0.544-0.665,0.723c0.309,0.214,0.561,0.501,0.754,0.861c0.193,0.36,0.29,0.739,0.29,1.137c0,0.333-0.048,0.623-0.143,0.87c-0.095,0.247-0.22,0.455-0.374,0.625c-0.155,0.17-0.329,0.308-0.522,0.415c-0.193,0.107-0.386,0.191-0.58,0.25c-0.193,0.059-0.379,0.1-0.558,0.12c-0.179,0.021-0.327,0.031-0.446,0.031c-0.286,0-0.555-0.013-0.807-0.04c-0.253-0.026-0.46-0.061-0.62-0.102c-0.095-0.036-0.181-0.086-0.259-0.152c-0.077-0.065-0.116-0.163-0.116-0.294c0-0.018,0.002-0.039,0.005-0.063c0.003-0.024,0.01-0.057,0.022-0.099l-0.018,0.027c0.012-0.048,0.027-0.101,0.044-0.16c0.018-0.059,0.042-0.116,0.072-0.17c0.03-0.053,0.067-0.098,0.112-0.134c0.044-0.035,0.1-0.053,0.165-0.053s0.131,0.009,0.196,0.027c0.012,0.006,0.027,0.009,0.044,0.009l0.196,0.053l-0.009-0.009c0.113,0.03,0.25,0.057,0.41,0.08c0.16,0.024,0.354,0.036,0.58,0.036c0.053,0,0.128-0.005,0.223-0.014c0.095-0.008,0.199-0.03,0.312-0.062c0.113-0.033,0.229-0.079,0.348-0.138c0.119-0.06,0.226-0.138,0.321-0.237c0.095-0.098,0.172-0.218,0.232-0.361c0.059-0.142,0.089-0.312,0.089-0.509c0-0.225-0.048-0.425-0.143-0.597c-0.095-0.173-0.218-0.318-0.37-0.437c-0.152-0.119-0.323-0.208-0.513-0.267c-0.19-0.06-0.383-0.09-0.58-0.09H71.48c-0.191,0-0.305-0.049-0.344-0.147c-0.039-0.098-0.058-0.236-0.058-0.415v-0.08c0-0.137,0.024-0.246,0.072-0.326c0.047-0.081,0.139-0.12,0.276-0.12h0.187c0.036,0,0.07,0.002,0.103,0.008c0.033,0.007,0.067,0.009,0.102,0.009c0.125,0,0.274-0.022,0.446-0.067s0.339-0.12,0.5-0.228c0.16-0.107,0.299-0.246,0.415-0.419c0.116-0.173,0.174-0.387,0.174-0.643c0-0.178-0.04-0.334-0.12-0.468c-0.081-0.133-0.186-0.242-0.317-0.325c-0.131-0.084-0.28-0.146-0.446-0.188c-0.167-0.042-0.336-0.063-0.509-0.063c-0.167,0-0.329,0.011-0.486,0.031s-0.299,0.042-0.424,0.063c-0.125,0.021-0.228,0.042-0.308,0.063c-0.08,0.021-0.123,0.031-0.129,0.031h-0.044c-0.084,0-0.152-0.027-0.205-0.081s-0.104-0.125-0.152-0.214c-0.012-0.041-0.024-0.079-0.035-0.112c-0.012-0.032-0.024-0.069-0.036-0.111c-0.006-0.03-0.009-0.053-0.009-0.072c0-0.024,0-0.044,0-0.063c0-0.107,0.024-0.192,0.072-0.254c0.047-0.062,0.134-0.102,0.258-0.12h-0.009c0.232-0.065,0.48-0.116,0.745-0.151c0.265-0.036,0.525-0.053,0.781-0.053c0.327,0,0.639,0.049,0.937,0.147c0.297,0.098,0.558,0.242,0.781,0.432c0.223,0.191,0.4,0.423,0.531,0.696c0.131,0.273,0.196,0.588,0.196,0.946C74.418,65.022,74.328,65.361,74.152,65.665z"/><path fill="#472b29" d="M71.98,62.427c0.327,0,0.639,0.049,0.937,0.147c0.297,0.098,0.557,0.242,0.781,0.432c0.223,0.191,0.4,0.423,0.531,0.696c0.131,0.273,0.196,0.588,0.196,0.946c-0.006,0.374-0.097,0.714-0.272,1.017c-0.176,0.303-0.397,0.544-0.665,0.723c0.309,0.214,0.561,0.501,0.754,0.861c0.193,0.36,0.29,0.739,0.29,1.137c0,0.333-0.048,0.623-0.143,0.87c-0.095,0.247-0.22,0.455-0.374,0.625c-0.155,0.17-0.329,0.308-0.522,0.415c-0.193,0.107-0.386,0.191-0.58,0.25c-0.193,0.059-0.379,0.1-0.557,0.12s-0.327,0.031-0.446,0.031c-0.286,0-0.555-0.013-0.807-0.04c-0.253-0.026-0.46-0.061-0.62-0.102c-0.095-0.036-0.181-0.086-0.259-0.152c-0.077-0.065-0.116-0.163-0.116-0.294c0-0.018,0.002-0.039,0.005-0.063s0.01-0.057,0.022-0.099l-0.018,0.027c0.012-0.048,0.027-0.101,0.044-0.16c0.018-0.059,0.042-0.116,0.072-0.169c0.03-0.054,0.067-0.098,0.112-0.134c0.044-0.035,0.1-0.053,0.165-0.053c0.065,0,0.131,0.009,0.196,0.027c0.012,0.006,0.027,0.009,0.044,0.009l0.196,0.053l-0.009-0.009c0.113,0.03,0.25,0.057,0.41,0.08c0.161,0.024,0.354,0.036,0.58,0.036c0.053,0,0.128-0.005,0.223-0.014c0.095-0.008,0.199-0.03,0.312-0.062c0.113-0.033,0.229-0.079,0.348-0.138c0.119-0.06,0.226-0.138,0.321-0.237c0.095-0.098,0.172-0.218,0.232-0.361c0.059-0.142,0.089-0.312,0.089-0.509c0-0.225-0.048-0.425-0.143-0.597c-0.095-0.173-0.219-0.318-0.37-0.437c-0.152-0.119-0.323-0.208-0.513-0.267c-0.19-0.06-0.383-0.09-0.58-0.09H71.48c-0.19,0-0.305-0.049-0.344-0.147c-0.039-0.098-0.058-0.236-0.058-0.415v-0.08c0-0.137,0.024-0.246,0.072-0.326c0.047-0.081,0.139-0.12,0.276-0.12h0.187c0.036,0,0.07,0.002,0.103,0.008c0.032,0.007,0.067,0.009,0.102,0.009c0.125,0,0.274-0.022,0.446-0.067s0.339-0.12,0.5-0.228c0.16-0.107,0.299-0.246,0.415-0.419c0.116-0.173,0.174-0.387,0.174-0.643c0-0.178-0.04-0.334-0.12-0.468c-0.081-0.133-0.186-0.242-0.317-0.325c-0.131-0.084-0.28-0.146-0.446-0.188c-0.167-0.042-0.336-0.063-0.509-0.063c-0.167,0-0.329,0.011-0.486,0.031c-0.158,0.021-0.299,0.042-0.424,0.063c-0.125,0.021-0.228,0.042-0.308,0.063c-0.08,0.021-0.123,0.031-0.129,0.031h-0.044c-0.083,0-0.152-0.027-0.205-0.081c-0.053-0.054-0.104-0.125-0.152-0.214c-0.012-0.041-0.024-0.079-0.035-0.112c-0.012-0.032-0.024-0.069-0.036-0.111c-0.006-0.03-0.009-0.054-0.009-0.072c0-0.024,0-0.044,0-0.063c0-0.107,0.024-0.192,0.072-0.254c0.047-0.062,0.134-0.102,0.258-0.12h-0.009c0.232-0.065,0.48-0.116,0.745-0.151C71.464,62.444,71.724,62.427,71.98,62.427 M71.98,61.777c-0.288,0-0.58,0.02-0.869,0.06c-0.282,0.038-0.557,0.093-0.815,0.165c-0.262,0.052-0.466,0.171-0.607,0.356c-0.137,0.179-0.206,0.397-0.206,0.649v0.063c0,0.064,0.007,0.13,0.023,0.204c0.029,0.109,0.047,0.164,0.065,0.212l0.018,0.06c0.013,0.044,0.03,0.086,0.052,0.126c0.079,0.147,0.165,0.267,0.265,0.366c0.175,0.175,0.411,0.271,0.665,0.271c0.134,0,0.189-0.014,0.335-0.052c0.066-0.017,0.15-0.034,0.252-0.051c0.119-0.02,0.253-0.04,0.402-0.059c0.13-0.017,0.264-0.026,0.402-0.026c0.119,0,0.237,0.014,0.35,0.043c0.1,0.025,0.185,0.06,0.254,0.104c0.048,0.03,0.082,0.066,0.111,0.114c0.017,0.028,0.026,0.074,0.026,0.132c0,0.123-0.021,0.217-0.064,0.28c-0.068,0.102-0.145,0.18-0.236,0.24c-0.101,0.068-0.199,0.113-0.301,0.139c-0.148,0.038-0.236,0.046-0.284,0.046c-0.059-0.011-0.13-0.017-0.205-0.017h-0.187c-0.503,0-0.74,0.276-0.837,0.441c-0.106,0.177-0.161,0.399-0.161,0.655v0.08c0,0.263,0.034,0.477,0.103,0.653c0.066,0.167,0.29,0.559,0.948,0.559h0.366c0.132,0,0.257,0.019,0.384,0.059c0.119,0.037,0.218,0.088,0.308,0.159c0.084,0.065,0.15,0.143,0.203,0.24c0.041,0.075,0.062,0.168,0.062,0.283c0,0.136-0.021,0.216-0.039,0.259c-0.028,0.066-0.061,0.12-0.099,0.159c-0.045,0.046-0.092,0.081-0.148,0.109c-0.078,0.039-0.159,0.072-0.237,0.094c-0.064,0.018-0.128,0.033-0.186,0.038c-0.074,0.007-0.128,0.012-0.167,0.012c-0.191,0-0.354-0.01-0.484-0.029c-0.135-0.019-0.248-0.041-0.341-0.066c-0.028-0.007-0.056-0.013-0.084-0.016l-0.098-0.027c-0.02-0.005-0.041-0.01-0.061-0.014c-0.115-0.03-0.233-0.046-0.35-0.046c-0.213,0-0.41,0.068-0.57,0.195c-0.113,0.091-0.205,0.201-0.275,0.328c-0.05,0.088-0.092,0.188-0.125,0.294c-0.022,0.074-0.039,0.137-0.053,0.193c-0.013,0.051-0.019,0.103-0.02,0.154c-0.006,0.053-0.009,0.098-0.009,0.138c0,0.322,0.124,0.603,0.348,0.791c0.13,0.111,0.281,0.2,0.447,0.263c0.023,0.009,0.046,0.016,0.069,0.022c0.194,0.05,0.434,0.09,0.714,0.119c0.27,0.029,0.564,0.044,0.875,0.044c0.139,0,0.312-0.012,0.52-0.036c0.215-0.025,0.442-0.073,0.674-0.144c0.232-0.071,0.469-0.173,0.704-0.303c0.255-0.141,0.486-0.324,0.688-0.545c0.209-0.229,0.377-0.508,0.501-0.829c0.124-0.321,0.186-0.692,0.186-1.103c0-0.505-0.123-0.991-0.367-1.445c-0.109-0.202-0.233-0.387-0.373-0.554c0.1-0.122,0.191-0.254,0.273-0.396c0.231-0.4,0.352-0.848,0.36-1.333c0-0.464-0.087-0.877-0.26-1.237c-0.169-0.354-0.403-0.66-0.694-0.909c-0.287-0.245-0.623-0.431-1-0.556C72.761,61.838,72.377,61.777,71.98,61.777L71.98,61.777z"/></svg>