<svg xmlns="http://www.w3.org/2000/svg" viewBox="0 0 26 26"><path d="M 5 1 C 5.601563 1.898438 6.210938 2.488281 6.8125 3.1875 C 7.511719 2.886719 8.800781 2.09375 11.5 2.09375 C 11.5 2.09375 10 1 5 1 Z M 11.90625 3 C 10.1875 3 8.871094 3.429688 7.875 4.0625 C 6 3.851563 3.492188 3.886719 1 4.90625 C 2.335938 5.976563 3.894531 7.445313 5.53125 8.09375 C 6.3125 8.480469 7.941406 8.941406 8.3125 9.3125 C 7.113281 9.511719 4.886719 8.894531 4.6875 9.59375 C 4.585938 9.992188 2.5 11.800781 0.5 12 C 0.5 12 1.613281 13.210938 2.8125 13.3125 C 2.414063 14.011719 0 15.5 0 15.5 C 0 15.5 1.304688 16.1875 1.90625 16.1875 C 1.507813 17.386719 0 18.8125 0 18.8125 L 13.59375 25 C 13.59375 25 12.511719 22.914063 13.3125 21.3125 C 13.3125 21.3125 14.207031 22.105469 15.40625 21.90625 C 15.40625 21.90625 14.304688 19.886719 14.90625 18.6875 C 15.605469 17.488281 16.105469 18.898438 18.40625 18.5 C 19.605469 18.300781 19.09375 19.8125 19.09375 19.8125 C 19.09375 19.8125 21.105469 18.605469 21.40625 17.40625 C 21.125 16.824219 20.582031 16.394531 19.90625 16.0625 C 20.035156 15.625 20.136719 14.957031 19.90625 14.09375 C 19.304688 14.894531 18.40625 15.5 18.40625 15.5 C 18.207031 15.441406 18.015625 15.398438 17.8125 15.34375 C 17.847656 15.042969 17.859375 14.699219 17.8125 14.3125 C 17.492188 14.632813 17.101563 14.886719 16.78125 15.09375 C 16.6875 15.070313 16.59375 15.023438 16.5 15 C 16.53125 14.703125 16.546875 14.375 16.5 14 C 16.199219 14.300781 15.839844 14.546875 15.53125 14.75 C 15.382813 14.707031 15.234375 14.671875 15.09375 14.625 C 15.128906 14.324219 15.140625 13.980469 15.09375 13.59375 C 14.835938 13.851563 14.554688 14.09375 14.28125 14.28125 C 13.164063 13.75 12.625 12.972656 13.5 11.5 C 14.070313 10.503906 14.910156 10.070313 16.09375 10.40625 C 16.082031 10.703125 16.046875 11.03125 16 11.40625 C 16.335938 11.316406 16.660156 11.050781 16.9375 10.75 C 17.164063 10.867188 17.40625 10.992188 17.65625 11.15625 C 17.65625 11.460938 17.640625 11.800781 17.59375 12.1875 C 17.917969 12.097656 18.230469 11.882813 18.5 11.59375 C 18.65625 11.660156 18.8125 11.726563 18.96875 11.78125 C 18.96875 12.085938 18.953125 12.425781 18.90625 12.8125 C 19.269531 12.714844 19.609375 12.402344 19.90625 12.0625 C 20.148438 12.117188 20.394531 12.152344 20.625 12.1875 C 20.683594 12.402344 20.859375 13.128906 20.6875 14.5 C 21.6875 14.226563 22.480469 12.621094 22.625 12.3125 C 23.203125 12.28125 23.59375 12.1875 23.59375 12.1875 C 23.59375 12.1875 25.707031 9.09375 25.40625 7.59375 C 25.90625 7.195313 26.398438 6.289063 25.5 6.1875 C 24.699219 6.085938 24.09375 6.09375 24.09375 6.09375 C 24.09375 6.09375 21.886719 5.101563 18.6875 5 C 17.886719 4.199219 17.707031 3 11.90625 3 Z M 14.875 6.0625 C 15.613281 6.039063 16.554688 6.105469 17.40625 6.40625 C 16.707031 6.605469 16.011719 7.113281 15.3125 7.8125 C 14.414063 7.710938 13.59375 6.585938 13.59375 6.1875 C 13.59375 6.1875 14.136719 6.085938 14.875 6.0625 Z"/></svg>