<svg xmlns="http://www.w3.org/2000/svg" viewBox="0 0 48 48"><path fill="#f58420" d="M15.855,37.375c-3.54-0.42-6.399-2.258-9.355-4.25c0.169-6.33,1.152-9.501,3.378-15.429 c-0.397-0.126-0.853-0.581-0.954-0.985c-0.101-0.404-0.123-0.834-0.308-1.207c-0.161-0.325-0.432-0.579-0.687-0.837 c-1-1.013-1.851-2.247-2.077-3.652C5.627,9.61,6.15,8.023,7.371,7.291C7.858,6.999,8.418,6.858,8.969,6.72 c0.466-0.117,0.962-0.232,1.417-0.08c0.254,0.085,0.474,0.248,0.685,0.414c1.091,0.862,2.254,1.961,3.051,3.101 c4.511-2.336,10.041-2.97,15.006-1.899c1.518,0.327,2.857,0.718,3.944,1.829c1.434-1.231,2.793-1.96,4.432-2.903 c0.711-0.409,1.509-0.802,2.317-0.658c1.007,0.179,1.693,1.144,2.008,2.118c0.78,2.416-0.251,4.79-2.373,6.182 c-0.909,0.596-2.085,1.372-2.476,2.386c1.49,2.135,2.385,3.732,3.201,5.826c0.348,0.892,0.877,4.594,0.984,5.546 c0.235,2.084,0.18,2.039,0.415,4.123c-2.448,2.226-6.217,3.962-9.474,4.547l-2.258,1.346c0,0,2.436,3.351-4.252,4.753 c-6.001-0.099-7.954-0.994-8.243-3.033c0.274-1.846,0.336-2.159,0.336-2.159L15.855,37.375z"/><path fill="#d6e5e5" d="M23.952,32.255c0.586,0.519,1.279,0.916,2.023,1.159c0.267,0.087,0.539,0.155,0.812,0.222 c0.559,0.138,1.118,0.277,1.677,0.415c0.218,0.054,0.438,0.108,0.661,0.132c0.455,0.047,0.914-0.035,1.36-0.137 c0.98-0.226,2.003-0.602,2.581-1.424c0,0,1.539,3.066-0.961,4.628s-4.417,1.572-5.569,0.979c-1.153-0.593-2.629-1.562-2.757-2.583 C23.651,34.625,23.952,32.255,23.952,32.255z"/><path fill="#c56528" d="M9.878,17.696c0.123-1.889,1.669-3.359,1.359-5.226c-0.176-1.06-0.913-1.934-1.682-2.684 c-0.809-0.789-1.807-1.55-2.934-1.484c0,0-1.503,1.32-0.57,3.509s1.516,2.476,2.184,3.168C8.949,15.719,8.662,16.938,9.878,17.696z"/><path fill="#d6e5e5" d="M32.218,29.364c0,0,1.466-2.953,4.249-3.533s4.22-1.648,4.22-1.648l0.859,8.236 c0,0-2.453,3.769-8.953,4.425c0.625-0.969,1.344-1.469,0.719-4.125S32.218,29.364,32.218,29.364z"/><path fill="#d6e5e5" d="M29.779,38.377c0.557,0.738,0.568,1.801,0.159,2.63c-0.409,0.829-1.183,1.437-2.034,1.8 c-0.851,0.362-1.779,0.5-2.7,0.581c-1.264,0.11-2.553,0.115-3.784-0.19c-0.624-0.155-1.226-0.388-1.825-0.62 c-0.547-0.212-1.108-0.433-1.535-0.833c-0.501-0.469-0.773-1.171-0.72-1.855c0.039-0.499,0.25-0.98,0.581-1.354 c0,0,3.269,0.049,5.726-2.16C25.451,37.586,26.433,39.025,29.779,38.377z"/><path fill="#d6e5e5" d="M7.375,24.921c0,0,5.572-0.256,8.26,4.767c-1.239,3.192-2.522,3.254,0,7.439 c-2.892-0.512-6.916-1.939-8.978-4.252C6.758,29.126,7.375,24.921,7.375,24.921z"/><path fill="#c56528" d="M36.979,17.209c-0.54-1.238-1.159-2.506-1.699-3.744c-0.074-0.17-0.149-0.349-0.13-0.533 c0.019-0.18,0.128-0.338,0.242-0.479c0.842-1.039,2.128-1.607,3.398-2.028c1.033-0.343,2.208-0.603,3.174-0.102 c0,0,0.27,1.928-1.183,3.178S37.583,15.933,36.979,17.209z"/><path fill="#d6e5e5" d="M14.641,32.245c-0.108,0.386,0.241,0.753,0.496,1.062c0.155,0.188,0.312,0.378,0.509,0.522 c0.203,0.149,0.441,0.243,0.68,0.319c1.26,0.405,2.641,0.371,3.914,0.007c1.273-0.364,2.441-1.047,3.457-1.896l-0.05,3.94 c0,0-3.625,3.028-6.128,2.242S13.531,33.27,14.641,32.245z"/><path fill="#d6e5e5" d="M14.776,19.003c-0.352-1.485-0.162-2.092,0.528-3.453s1.872-2.466,3.278-3.06 c0.179-0.076,0.376-0.145,0.565-0.098c0.281,0.069,0.439,0.362,0.551,0.629c1.201,2.882,1.051,5.335-0.014,8.27L14.776,19.003z"/><path fill="#d6e5e5" d="M27.296,21.157c-0.535-2.733-1.071-4.53-0.656-7.284c0.053-0.349,0.123-0.703,0.3-1.008 c0.177-0.305,0.48-0.557,0.831-0.588c0.435-0.038,0.824,0.255,1.145,0.551c1.921,1.773,3.27,3.462,3.488,6.067L27.296,21.157z"/><path fill="#d03827" d="M20.616,28.84c0.865,0.78,1.707,2.121,2.657,2.795c0.189,0.134,0.389,0.269,0.619,0.294 c0.313,0.034,0.606-0.142,0.87-0.312c0.932-0.602,1.953-1.87,2.496-2.721C25.152,28.444,22.747,28.524,20.616,28.84z"/><path fill="#f3ad20" d="M27.27,21.216c0.269-0.593,0.585-1.166,0.943-1.71c0.143-0.217,0.3-0.437,0.525-0.567 c0.202-0.117,0.441-0.15,0.673-0.181c0.741-0.099,1.481-0.198,2.222-0.298c0.201-0.027,0.425-0.048,0.585,0.077 c0.109,0.085,0.164,0.222,0.188,0.358c0.066,0.371-0.067,0.759-0.295,1.059c-0.134,0.177-0.301,0.33-0.489,0.449 c-0.484,0.305-0.843,0.603-1.413,0.659C29.452,21.136,28.026,21.143,27.27,21.216z"/><path fill="#f3ad20" d="M19.683,21.292c-0.112-0.519-0.1-1.436-0.213-1.955c-0.045-0.21-0.095-0.428-0.23-0.595 c-0.234-0.29-0.65-0.341-1.022-0.359c-0.945-0.044-1.894-0.009-2.833,0.106c-0.157,0.019-0.325,0.046-0.442,0.153 c-0.206,0.19-0.149,0.531-0.026,0.782c0.268,0.551,0.767,0.966,1.321,1.23c0.553,0.264,1.162,0.39,1.769,0.479 C18.563,21.215,19.123,21.268,19.683,21.292z"/><path fill="#010101" d="M41.66,28.524c-0.085-0.76-0.62-4.659-1.015-5.672c-0.785-2.013-1.634-3.579-3.093-5.693 c0.427-0.771,1.428-1.427,2.177-1.918c2.384-1.564,3.395-4.216,2.574-6.754c-0.436-1.349-1.331-2.268-2.396-2.456 c-0.939-0.169-1.833,0.245-2.654,0.717l-0.506,0.29c-1.313,0.751-2.463,1.408-3.656,2.378c-1.155-0.999-2.535-1.364-3.858-1.648 c-5.052-1.092-10.478-0.451-14.958,1.749c-0.897-1.176-2.05-2.188-2.894-2.855c-0.229-0.181-0.503-0.384-0.836-0.496 C9.938,5.964,9.309,6.12,8.849,6.234C8.297,6.372,7.671,6.528,7.114,6.862c-1.308,0.783-2.029,2.523-1.755,4.231 c0.214,1.332,0.959,2.652,2.215,3.925l0.076,0.077c0.21,0.211,0.408,0.41,0.518,0.63c0.093,0.188,0.136,0.423,0.182,0.672 c0.026,0.146,0.054,0.292,0.089,0.435c0.101,0.402,0.428,0.826,0.817,1.1C7.123,23.643,6.166,26.915,6,33.111 c-0.004,0.171,0.079,0.333,0.221,0.429c3.193,2.15,5.926,3.83,9.356,4.294c0.426,0.448,0.959,0.784,1.557,0.997 c-0.159,0.32-0.265,0.665-0.293,1.018c-0.065,0.84,0.263,1.684,0.877,2.259c0.503,0.471,1.137,0.717,1.701,0.936 c0.604,0.234,1.228,0.477,1.88,0.638c0.736,0.184,1.535,0.273,2.45,0.273c0.467,0,0.965-0.023,1.499-0.07 c0.871-0.075,1.891-0.208,2.854-0.618c1.044-0.445,1.856-1.169,2.285-2.038c0.397-0.804,0.428-1.738,0.132-2.513 c0.692-0.227,1.287-0.569,1.788-0.998c3.441-0.643,7.2-2.455,9.607-4.644c0.119-0.108,0.179-0.267,0.161-0.426 c-0.116-1.031-0.161-1.538-0.205-2.043C41.824,30.09,41.779,29.577,41.66,28.524z M40.676,28.726 c0.038,0.339,0.068,0.614,0.092,0.856c-1.039,0-2.098-0.066-3.108,0.058c0.278-0.191,0.571-0.349,0.887-0.44 C39.302,28.981,39.988,28.971,40.676,28.726z M39.093,21.755c-1.2,0.77-2.571,0.787-3.943,1.025c0.29-0.228,0.589-0.444,0.9-0.639 c0.825-0.517,1.834-0.701,2.597-1.286C38.802,21.153,38.952,21.452,39.093,21.755z M39.181,14.405 c-0.681,0.446-1.542,1.014-2.136,1.741c-0.154-0.34-0.304-0.678-0.462-1.019c-0.288-0.624-0.576-1.247-0.845-1.863 c-0.036-0.083-0.097-0.222-0.091-0.279c0.003-0.022,0.023-0.081,0.134-0.217c0.804-0.991,2.114-1.52,3.167-1.868 c0.803-0.266,1.804-0.516,2.605-0.206C41.416,12.14,40.599,13.474,39.181,14.405z M9.091,7.205c0.459-0.114,0.83-0.194,1.138-0.091 c0.181,0.061,0.362,0.197,0.533,0.332c1.235,0.976,2.283,2.039,2.95,2.994c0.145,0.206,0.421,0.271,0.64,0.158 c4.348-2.251,9.693-2.929,14.671-1.854c1.361,0.293,2.668,0.643,3.692,1.688c0.185,0.188,0.482,0.201,0.683,0.03 c1.248-1.071,2.452-1.76,3.848-2.558l0.507-0.291c0.612-0.352,1.32-0.717,1.981-0.6c0.816,0.146,1.372,1.014,1.619,1.778 c0.092,0.284,0.152,0.568,0.19,0.851c-0.992-0.239-2.052,0.021-2.909,0.305c-1.182,0.392-2.662,0.994-3.629,2.187 c-0.146,0.18-0.317,0.425-0.352,0.741c-0.034,0.321,0.088,0.602,0.169,0.785c0.271,0.623,0.562,1.253,0.854,1.883 c0.288,0.624,0.576,1.247,0.845,1.862c0.006,0.013,0.02,0.019,0.027,0.032c0.009,0.018,0.01,0.039,0.021,0.055 c0.628,0.9,1.138,1.692,1.581,2.456c-0.433,0.388-0.957,0.532-1.498,0.759c-0.646,0.271-1.229,0.624-1.788,1.043 c-1.031,0.772-1.955,1.692-2.901,2.565c-0.026,0.024-0.055,0.041-0.081,0.066c-0.468,0.444,0.24,1.15,0.707,0.707 c0.006-0.005,0.012-0.009,0.017-0.015c0.007-0.006,0.016-0.007,0.023-0.014c0.018-0.017,0.037-0.035,0.055-0.052 c1.943-1.736,4.681-1.031,6.813-2.33c0.073,0.176,0.146,0.352,0.217,0.534c0.06,0.155,0.129,0.414,0.2,0.737 c-1.397,1.068-3.249,1.116-4.81,1.866c-1.256,0.603-2.248,1.542-3.028,2.671c-0.938-1.544-1.866-3.139-2.08-4.824 c-0.035-0.273-0.289-0.473-0.56-0.433c-0.273,0.035-0.468,0.285-0.433,0.56c0.254,1.994,1.385,3.851,2.408,5.53 c0.607,0.996,1.024,1.985,1.287,2.958c-1.854,2.125-5.746,1.413-7.966-0.068c0.114-0.061,0.219-0.124,0.301-0.177 c1.092-0.705,2.177-2.137,2.646-2.872c0.088-0.138,0.103-0.311,0.039-0.461c-0.063-0.151-0.196-0.263-0.356-0.297 c-2.447-0.523-5.06-0.323-6.82-0.061c-0.191,0.028-0.35,0.164-0.405,0.35s0,0.387,0.144,0.516c0.342,0.309,0.688,0.72,1.053,1.155 c0.517,0.615,1.052,1.252,1.65,1.677c0.029,0.021,0.063,0.037,0.092,0.057c-1.077,0.815-2.272,1.477-3.614,1.726 c-1.151,0.214-4.205,0.251-4.322-1.582c-0.002-0.035-0.017-0.061-0.025-0.092c0.031-0.098,0.054-0.183,0.089-0.291 c0.246-0.761,0.967-1.775,1.492-2.517l0.131-0.184c1.19-1.683,1.994-3.696,2.149-5.386c0.025-0.275-0.178-0.519-0.452-0.544 c-0.269-0.014-0.518,0.178-0.544,0.452c-0.14,1.522-0.876,3.354-1.97,4.899l-0.13,0.183c-0.017,0.024-0.037,0.053-0.054,0.077 c-1.018-1.043-1.614-2.427-2.967-3.072c-1.463-0.698-3.093-1.18-4.71-1.381c0.159-0.595,0.337-1.198,0.534-1.818 c1.484,0.008,2.146,0.64,3.472,1.209c1.266,0.543,2.629,0.719,3.814,1.47c0.498,0.316,0.971-0.376,0.606-0.785 c-1.788-2.004-4.216-4.051-6.89-4.812c0.207-0.568,0.424-1.156,0.659-1.781c0.008-0.02,0.005-0.042,0.01-0.063 c0.007-0.027,0.019-0.052,0.021-0.081c0.049-0.746,0.352-1.432,0.672-2.158c0.432-0.979,0.879-1.992,0.681-3.182 c-0.207-1.248-1.084-2.238-1.826-2.961C9.3,8.839,8.439,8.118,7.404,7.884C7.477,7.827,7.549,7.767,7.628,7.72 C8.058,7.463,8.583,7.332,9.091,7.205z M29.742,37.888c-0.047,0.003-0.091,0.012-0.136,0.029c-0.587,0.123-1.166,0.161-1.657,0.151 c-1.345-0.019-2.808-1.196-3.599-2.282c-0.035-0.048-0.079-0.084-0.125-0.115c-0.107-1.078-0.098-1.724,0.015-2.603 c2.481,1.619,6.36,2.401,8.694,0.393c0.022,0.173,0.059,0.347,0.069,0.518c0.096,1.569-0.066,1.827-1.238,2.904 C31.183,37.417,30.461,37.721,29.742,37.888z M16.269,37.106c-0.019-0.03-0.042-0.055-0.067-0.081 c-0.162-0.19-0.307-0.396-0.413-0.629c-0.183-0.399-0.348-0.728-0.491-1.012c-0.357-0.71-0.544-1.102-0.519-1.691 c0.679,0.732,1.783,1.109,2.773,1.208c2.088,0.207,3.989-0.532,5.661-1.674c-0.095,0.862-0.085,1.575,0.037,2.73 c-1.16,0.791-3.137,1.965-4.079,2.1C18.028,38.223,16.951,37.848,16.269,37.106z M23.947,31.432 c-0.105-0.012-0.242-0.104-0.385-0.205c-0.494-0.35-0.986-0.937-1.463-1.504c-0.144-0.171-0.289-0.345-0.437-0.513 c1.383-0.149,3.082-0.212,4.743,0.038c-0.551,0.74-1.276,1.536-1.915,1.948C24.293,31.324,24.102,31.446,23.947,31.432z M9.349,20.596c1.751,0.489,3.376,1.571,4.774,2.825c-0.591-0.182-1.181-0.365-1.745-0.634c-1.324-0.631-1.992-1.139-3.368-1.208 C9.117,21.259,9.231,20.931,9.349,20.596z M9.064,15.282c-0.182-0.367-0.46-0.646-0.705-0.893l-0.074-0.074 c-1.105-1.121-1.758-2.258-1.938-3.38c-0.122-0.758,0.008-1.515,0.32-2.134c0.983-0.054,1.922,0.741,2.539,1.342 c0.632,0.615,1.378,1.446,1.537,2.408c0.148,0.896-0.22,1.729-0.609,2.613c-0.232,0.525-0.461,1.065-0.608,1.643 c-0.055-0.076-0.1-0.152-0.116-0.219c-0.031-0.122-0.054-0.246-0.076-0.371C9.28,15.926,9.22,15.596,9.064,15.282z M7.402,28.018 c0.897,0.431,1.671,1.233,2.417,1.883c-0.834-0.245-1.701-0.395-2.585-0.516C7.283,28.917,7.338,28.461,7.402,28.018z M7.143,30.374c1.768,0.243,3.426,0.611,4.897,1.714c0.486,0.364,0.94-0.382,0.606-0.785c-0.772-0.931-1.66-1.712-2.58-2.492 c-0.803-0.681-1.528-1.395-2.499-1.814c0.099-0.555,0.213-1.098,0.34-1.64c1.44,0.159,2.913,0.587,4.223,1.19 c1.396,0.643,2.027,2.095,3.12,3.139c-0.408,0.614-0.805,1.277-0.996,1.87c-0.75,2.321-0.574,2.84,0.15,4.279 c0.123,0.245,0.265,0.531,0.418,0.862c-2.749-0.576-5.115-2.021-7.815-3.831C7.035,31.973,7.081,31.153,7.143,30.374z M29.49,40.785c-0.323,0.655-0.956,1.21-1.781,1.562c-0.833,0.354-1.755,0.473-2.548,0.542c-1.469,0.129-2.62,0.071-3.621-0.178 c-0.592-0.146-1.159-0.366-1.765-0.601c-0.497-0.193-1.012-0.394-1.374-0.732c-0.389-0.363-0.604-0.92-0.564-1.451 c0.024-0.308,0.153-0.599,0.331-0.862c0.153,0.015,0.306,0.03,0.463,0.03c0.225,0,0.452-0.016,0.683-0.049 c1.246-0.179,3.446-1.544,4.532-2.286c0.998,1.188,2.558,2.286,4.09,2.307c0.562,0.012,1.084-0.04,1.583-0.124 C29.783,39.481,29.79,40.178,29.49,40.785z M33.571,36.393c0.404-0.621,0.504-1.279,0.431-2.476 c-0.089-1.453-0.565-2.947-1.39-4.471c0.012-0.015,0.027-0.023,0.038-0.04c1.092-1.77,2.641-2.73,4.612-3.281 c1.031-0.288,1.986-0.571,2.86-1.114c0.159,0.888,0.314,1.907,0.422,2.684c-0.955,0.455-2.036,0.33-2.982,0.845 c-0.952,0.518-1.691,1.374-2.445,2.131c-0.461,0.462,0.222,1.118,0.707,0.707c1.349-1.143,3.357-0.811,5.04-0.798 c0.003,0.038,0.007,0.077,0.01,0.115c0.041,0.466,0.082,0.935,0.179,1.809C39.111,34.198,36.319,35.632,33.571,36.393z"/><path fill="#010101" d="M14.326,19.11c0.016,0.173,0.054,0.351,0.143,0.534c0.295,0.606,0.848,1.126,1.556,1.463 c0.645,0.308,1.328,0.437,1.911,0.522c0.569,0.083,1.15,0.138,1.727,0.163c0.007,0,0.015,0,0.021,0 c0.147,0,0.287-0.064,0.382-0.178c0.039-0.045,0.059-0.1,0.079-0.154l0.009,0.003c1.175-3.24,1.177-5.822,0.006-8.634 c-0.089-0.214-0.326-0.782-0.892-0.922c-0.371-0.089-0.714,0.053-0.881,0.122c-1.505,0.638-2.791,1.839-3.529,3.296 c-0.71,1.401-0.961,2.138-0.567,3.793L14.326,19.11z M18.08,20.639c-0.509-0.074-1.101-0.185-1.626-0.435 c-0.504-0.24-0.891-0.595-1.086-0.997c-0.052-0.105-0.063-0.191-0.088-0.191c0,0,0,0-0.001,0c0.04-0.015,0.135-0.026,0.167-0.03 c0.914-0.111,1.841-0.145,2.75-0.103c0.146,0.007,0.535,0.024,0.656,0.174c0.062,0.077,0.098,0.241,0.13,0.386 c0.048,0.225,0.072,0.571,0.096,0.907c0.01,0.135,0.02,0.272,0.031,0.406C18.765,20.728,18.42,20.688,18.08,20.639z M15.75,15.776 c0.633-1.249,1.736-2.279,3.026-2.825c0.183-0.077,0.24-0.071,0.25-0.073c0.001,0,0.079,0.022,0.209,0.336 c0.792,1.9,0.994,3.64,0.618,5.622c-0.049-0.137-0.118-0.277-0.223-0.408c-0.355-0.44-0.901-0.521-1.388-0.543 c-0.966-0.049-1.947-0.01-2.918,0.108c-0.056,0.007-0.131,0.019-0.211,0.036C15.05,17.276,15.25,16.762,15.75,15.776z"/><path fill="#010101" d="M29.257,12.462c-0.375-0.347-0.891-0.745-1.529-0.683c-0.484,0.043-0.939,0.354-1.22,0.835 c-0.22,0.379-0.304,0.793-0.361,1.185c-0.369,2.444-0.016,4.159,0.432,6.329c0.068,0.331,0.139,0.677,0.21,1.036 c-0.013,0.12,0.002,0.242,0.074,0.343c0.095,0.132,0.247,0.209,0.407,0.209c0.016,0,0.032-0.001,0.048-0.002 c0.371-0.036,0.905-0.056,1.439-0.075c0.557-0.021,1.113-0.041,1.5-0.078c0.598-0.059,1.008-0.328,1.404-0.588l0.226-0.146 c0.243-0.152,0.452-0.345,0.622-0.57c0.322-0.426,0.461-0.934,0.392-1.403l0.003,0c-0.001-0.013-0.004-0.024-0.005-0.037 c-0.001-0.003,0-0.007-0.001-0.01c0-0.001-0.001-0.002-0.001-0.004C32.655,16.111,31.268,14.318,29.257,12.462z M27.795,19.231 c-0.1,0.152-0.189,0.313-0.283,0.469c-0.418-2.037-0.706-3.567-0.377-5.755c0.044-0.293,0.103-0.597,0.237-0.829 c0.113-0.193,0.287-0.328,0.443-0.342c0.238-0.014,0.556,0.229,0.763,0.421c1.63,1.504,2.754,2.877,3.172,4.748 c-0.07,0.005-0.133,0.013-0.185,0.02l-2.22,0.298c-0.252,0.033-0.564,0.074-0.856,0.243C28.165,18.692,27.961,18.979,27.795,19.231 z M31.711,19.654c-0.096,0.127-0.219,0.239-0.356,0.326l-0.241,0.156c-0.35,0.229-0.602,0.394-0.953,0.428 c-0.371,0.036-0.905,0.056-1.439,0.075c-0.209,0.008-0.418,0.016-0.618,0.023c0.164-0.302,0.341-0.597,0.528-0.883 c0.108-0.164,0.225-0.331,0.358-0.408c0.12-0.069,0.306-0.094,0.487-0.118l2.223-0.298c0.051-0.007,0.094-0.012,0.128-0.012 c0.05,0,0.08,0.011,0.086,0.039C31.949,19.188,31.874,19.438,31.711,19.654z"/><path fill="#010101" d="M15.959,11.939c2.208-0.861,4.164-1.238,6.538-1.068c2.679,0.192,5.112-0.329,7.668,0.769 c0.585,0.251,1.095-0.61,0.505-0.863c-2.533-1.088-4.652-0.767-7.36-0.863c-2.843-0.101-4.921,0.01-7.616,1.062 C15.1,11.206,15.358,12.174,15.959,11.939z"/><path fill="#010101" d="M24.937,12.068c-1.019,0.391-2.059,0.48-3.123,0.23c-0.626-0.147-0.893,0.817-0.266,0.964 c1.229,0.288,2.474,0.222,3.655-0.23C25.797,12.804,25.539,11.837,24.937,12.068z"/></svg>