<svg xmlns="http://www.w3.org/2000/svg" viewBox="0 0 128 128"><path fill="#cfa2ed" d="M99,124H9c-2.8,0-5-2.2-5-5V59c0-2.8,2.2-5,5-5h90c2.8,0,5,2.2,5,5v60C104,121.8,101.8,124,99,124z"/><path fill="#686499" d="M103,121H20c-1.7,0-3-1.3-3-3s1.3-3,3-3h83c1.7,0,3,1.3,3,3S104.7,121,103,121z"/><path fill="#fff" d="M73.5 112.3L50.9 104c-1.6-.6-2.4-2.3-1.8-3.8L53.9 87c.6-1.6 2.3-2.4 3.8-1.8l22.6 8.2c1.6.6 2.4 2.3 1.8 3.8l-4.8 13.2C76.8 112 75 112.8 73.5 112.3zM47.8 79.4l-13.2 4.8c-1.6.6-3.3-.2-3.8-1.8l-3.1-8.5c-.6-1.6.2-3.3 1.8-3.8l13.2-4.8c1.6-.6 3.3.2 3.8 1.8l3.1 8.5C50.1 77.1 49.3 78.8 47.8 79.4z"/><path fill="#444b54" d="M99,127H9c-4.4,0-8-3.6-8-8V59c0-4.4,3.6-8,8-8h90c4.4,0,8,3.6,8,8v60C107,123.4,103.4,127,99,127z M9,57c-1.1,0-2,0.9-2,2v60c0,1.1,0.9,2,2,2h90c1.1,0,2-0.9,2-2V59c0-1.1-0.9-2-2-2H9z"/><path fill="#444b54" d="M111 127H99c-1.7 0-3-1.3-3-3s1.3-3 3-3h12c1.7 0 3 1.3 3 3S112.7 127 111 127zM124 127c-.8 0-1.6-.3-2.1-.9-.1-.1-.3-.3-.4-.5-.1-.2-.2-.3-.3-.5-.1-.2-.1-.4-.2-.6 0-.2-.1-.4-.1-.6 0-.8.3-1.6.9-2.1 1.1-1.1 3.1-1.1 4.2 0 .6.6.9 1.3.9 2.1s-.3 1.6-.9 2.1C125.6 126.7 124.8 127 124 127zM19 127c-1.7 0-3-1.3-3-3V66.2c0-1.7 1.3-3 3-3s3 1.3 3 3V124C22 125.7 20.7 127 19 127zM89 127c-1.7 0-3-1.3-3-3V66.2c0-1.7 1.3-3 3-3s3 1.3 3 3V124C92 125.7 90.7 127 89 127zM67 48c-1.7 0-3-1.3-3-3 0-2.8-2.4-5-5.3-5h-9.4c-2.9 0-5.3 2.2-5.3 5 0 1.7-1.3 3-3 3s-3-1.3-3-3c0-6.1 5.1-11 11.3-11h9.4C64.9 34 70 38.9 70 45 70 46.7 68.7 48 67 48zM19 48A3 3 0 1 0 19 54 3 3 0 1 0 19 48zM89 48A3 3 0 1 0 89 54 3 3 0 1 0 89 48z"/></svg>