<svg xmlns="http://www.w3.org/2000/svg" viewBox="0 0 40 40"><path fill="#ffeea3" d="M0.5 6.5H39.5V33.5H0.5z"/><path fill="#f5c276" d="M39,7v26H1V7H39 M40,6H0v28h40V6L40,6z"/><path fill="#99c99e" d="M0.5 6.5H39.5V11.5H0.5z"/><path fill="#5e9c76" d="M39,7v4H1V7H39 M40,6H0v6h40V6L40,6z"/><path fill="#99c99e" d="M0.5 17.5H39.5V22.5H0.5z"/><path fill="#5e9c76" d="M39,18v4H1v-4H39 M40,17H0v6h40V17L40,17z"/><g><path fill="#99c99e" d="M0.5 28.5H39.5V33.5H0.5z"/><path fill="#5e9c76" d="M39,29v4H1v-4H39 M40,28H0v6h40V28L40,28z"/></g><g><path fill="#f78f8f" d="M0.5 6.5H16.5V22.5H0.5z"/><path fill="#c74343" d="M16,7v15H1V7H16 M17,6H0v17h17V6L17,6z"/></g><path fill="#fff" d="M8.583 9.268L9.764 13.211 13.583 13.211 10.493 15.448 11.673 19.268 8.583 16.908 5.493 19.268 6.673 15.448 3.583 13.211 7.402 13.211z"/></svg>