<svg xmlns="http://www.w3.org/2000/svg" viewBox="0 0 24 24"><path d="M 13.880859 2.9980469 C 12.949609 2.9905259 11.979355 3.070667 10.988281 3.2421875 C 8.3454562 3.6995689 6.0351743 4.7297058 4.3828125 6.1054688 C 2.7304507 7.4812317 1.671212 9.2965151 1.9609375 11.210938 C 2.2104502 12.859678 3.4215492 14.114802 5.0039062 14.90625 C 5.0036914 14.920876 5 14.934545 5 14.949219 C 5 15.576966 5.1996995 16.160433 5.5351562 16.644531 L 4.1054688 19.501953 L 3.6582031 20.396484 L 5.4472656 21.291016 L 5.8945312 20.396484 L 7.1835938 17.820312 C 7.4452048 17.895842 7.7155372 17.949219 8 17.949219 C 9.2853781 17.949219 10.38348 17.117224 10.806641 15.970703 C 11.498691 15.943367 12.201934 15.886819 12.925781 15.761719 C 15.568306 15.30536 17.87874 14.276161 19.53125 12.900391 C 21.18376 11.52462 22.24287 9.7094711 21.953125 7.7949219 C 21.663379 5.8803641 20.100667 4.4869543 18.115234 3.734375 C 17.122518 3.3580854 16.002347 3.1215447 14.798828 3.0351562 C 14.497949 3.0135591 14.191276 3.0005539 13.880859 2.9980469 z M 13.863281 5.0039062 C 15.209455 5.0170832 16.429021 5.2350495 17.40625 5.6054688 C 18.969817 6.1981395 19.823355 7.0943078 19.974609 8.09375 C 20.125865 9.0932008 19.56824 10.265802 18.25 11.363281 C 16.93176 12.460761 14.917413 13.388374 12.585938 13.791016 C 11.982573 13.895293 11.396131 13.944199 10.820312 13.970703 C 10.409054 12.802268 9.3011454 11.949219 8 11.949219 C 7.0929447 11.949219 6.284583 12.370222 5.7324219 13.015625 C 4.6714729 12.44412 4.061913 11.721305 3.9394531 10.912109 C 3.7881786 9.9125317 4.3439712 8.7400652 5.6621094 7.6425781 C 6.9802476 6.5450911 8.9959503 5.6165092 11.328125 5.2128906 C 12.202676 5.0615362 13.055577 4.9960001 13.863281 5.0039062 z M 8 13.949219 C 8.5641294 13.949219 9 14.385089 9 14.949219 C 9 15.513348 8.5641294 15.949219 8 15.949219 C 7.4358706 15.949219 7 15.513348 7 14.949219 C 7 14.385089 7.4358706 13.949219 8 13.949219 z"/></svg>