<?xml version="1.0"?><svg xmlns="http://www.w3.org/2000/svg" viewBox="0 0 50 50">    <path d="M32,16.956c-0.009-3.017,0.046-6.928,0-9c-0.041-1.85,1.649-2.959,3.5-3 c1.847-0.026,3.46,1.15,3.5,3c0.025,1.125,0.004,4.739,0,8c1.67-0.207,3.356-0.774,5.02-1.018c1.839-0.269,3.861,1.171,3.98,3.018 c0.13,2.007-1.152,3.92-3,4c-2.578,0.111-3.741-0.039-6,0c-0.005,1.635,0.001,3.391,0,4.155c-0.002,2.293-0.87,6.241-4,7.345 c-1.029,0.363-2.067,0.5-3,0.5c-3.161,0-6.151-2.225-6.5-2.5c-1.454-1.146-1.835-2.348-1-4c1.056-2.091,4.1-1.646,5.554-0.5 c0.456,0.017,1.229,0.046,1.946,0c0.054-0.342-0.013-1.519,0-4c-3.647,0.028-7.944-0.009-12,0c-0.019,4.825-0.079,9.956-0.05,12.093 c0.018,1.282,0.651,1.922,2.05,1.907c0,0,15.994,0,16,0c1.844,0,2.99,1.654,3,3.5c0.01,1.851-1.15,3.491-3,3.5 c-1.499,0.007-16,0-16,0c-6.241-0.024-8.984-3.982-9-7c-0.014-2.629,0.01-7.861,0-13c-3.183-0.023-5.624,0.02-7.526,0 C3.623,23.936,1.94,22.374,2,20.524c0.06-1.85,1.664-3.556,3.5-3.568c2.727-0.019,4.903,0.012,7.5,0c0.002-3.955-0.001-7.184,0-8 c0.002-1.983,1.649-3.012,3.5-3c1.838,0.012,3.498,1.044,3.5,3c0.002,1.963,0.013,4.959,0,8C24.098,16.947,27.92,16.916,32,16.956z" fill-rule="evenodd" clip-rule="evenodd"/></svg>