<svg xmlns="http://www.w3.org/2000/svg" viewBox="0 0 40 40"><path fill="#b6dcfe" d="M5.512,35.5c0.269-5.559,4.982-10,10.738-10h7.5c5.756,0,10.47,4.441,10.738,10H5.512z"/><path fill="#4788c7" d="M23.75,26c5.306,0,9.683,3.954,10.199,9H6.051c0.516-5.046,4.893-9,10.199-9H23.75 M23.75,25h-7.5 C10.037,25,5,29.925,5,36h30C35,29.925,29.963,25,23.75,25L23.75,25z"/><path fill="#fff" d="M20,28.5c-3.075,0-4.297-2.625-4.5-3.123V19.91h9v5.468C24.297,25.875,23.075,28.5,20,28.5z"/><path fill="#4788c7" d="M24,20.41v4.865C23.737,25.865,22.607,28,20,28c-2.611,0-3.741-2.141-4-2.725V20.41H24 M25,19.41 H15v6.062c0,0,1.267,3.529,5,3.529s5-3.529,5-3.529V19.41L25,19.41z"/><path fill="#b6dcfe" d="M13 33.571H27V36H13z"/><path fill="#4788c7" d="M25,39H15c-0.552,0-1-0.448-1-1v-6c0-0.552,0.448-1,1-1h10c0.552,0,1,0.448,1,1v6 C26,38.552,25.552,39,25,39z"/><path fill="#4788c7" d="M23.5 34L16.5 34 17.375 30 22.625 30z"/><path fill="#dff0fe" d="M20 32.5A2.5 2.5 0 1 0 20 37.5A2.5 2.5 0 1 0 20 32.5Z"/><g><path fill="#fff" d="M20,25.5c-0.604,0-1.172-0.218-1.642-0.63l-0.091-0.08l-0.116-0.03 C14.824,23.916,12.5,20.93,12.5,17.5V8.202c0-1.827,1.486-3.313,3.312-3.313h8.375c1.826,0,3.313,1.486,3.313,3.313V17.5 c0,3.43-2.324,6.416-5.651,7.26l-0.116,0.03l-0.091,0.08C21.172,25.282,20.604,25.5,20,25.5z"/><path fill="#4788c7" d="M24.187,5.389C25.738,5.389,27,6.651,27,8.202V17.5c0,3.201-2.169,5.987-5.275,6.776l-0.233,0.059 l-0.181,0.159C21.048,24.725,20.608,25,20,25s-1.048-0.275-1.311-0.506l-0.181-0.159l-0.233-0.059 C15.169,23.487,13,20.701,13,17.5V8.202c0-1.551,1.262-2.813,2.813-2.813H24.187 M24.187,4.389h-8.375 C13.707,4.389,12,6.096,12,8.202V17.5c0,3.737,2.566,6.866,6.029,7.745C18.557,25.709,19.242,26,20,26s1.443-0.291,1.971-0.755 C25.434,24.366,28,21.237,28,17.5V8.202C28,6.096,26.293,4.389,24.187,4.389L24.187,4.389z"/></g><g><path fill="#b6dcfe" d="M28,25.5c-1.76,0-3.407-0.912-4.269-1.485c1.046-0.659,2.769-2.223,2.769-5.373v-4.724 c0-2.41-2.086-4.223-2.175-4.298l-0.43-0.368l-0.313,0.473c-0.021,0.031-2.135,3.156-6.65,3.78 c-2.357,0.325-3.432,2.109-3.432,3.628v1.509c0,3.193,1.707,4.735,2.757,5.38C15.398,24.596,13.764,25.5,12,25.5 c-1.793,0-3.382-0.935-4.16-1.483c0.881-0.695,2.445-2.24,2.445-4.445c0-0.928-0.176-1.909-0.362-2.948 C9.715,15.462,9.5,14.262,9.5,13c0-8.488,5.387-11.5,10-11.5c3.803,0,5.031,2.675,5.043,2.703L24.675,4.5H25 c3.495,0,5.5,2.733,5.5,7.5c0,1.342-0.269,2.836-0.527,4.281C29.729,17.634,29.5,18.913,29.5,20c0,1.844,1.459,2.852,2.643,3.281 C31.435,24.092,29.928,25.5,28,25.5z"/><path fill="#4788c7" d="M19.5,2c3.427,0,4.543,2.315,4.586,2.405L24.349,5H25c3.224,0,5,2.486,5,7 c0,1.298-0.264,2.769-0.52,4.193C29.233,17.569,29,18.868,29,20c0,1.765,1.143,2.857,2.292,3.452C30.551,24.167,29.388,25,28,25 c-1.274,0-2.497-0.524-3.357-1.01C25.732,23.107,27,21.472,27,18.643v-4.724c0-2.638-2.254-4.596-2.35-4.678l-0.858-0.728 l-0.626,0.936c-0.081,0.121-2.03,2.971-6.303,3.561C14.209,13.376,13,15.404,13,17.133v1.509c0,2.863,1.254,4.489,2.342,5.361 C14.491,24.486,13.282,25,12,25c-1.313,0-2.525-0.556-3.331-1.041c0.942-0.88,2.117-2.379,2.117-4.388 c0-0.972-0.18-1.975-0.37-3.036C10.211,15.396,10,14.218,10,13C10,4.881,15.118,2,19.5,2 M19.5,1C14.212,1,9,4.694,9,13 c0,2.454,0.786,4.682,0.786,6.571C9.786,22.327,7,24,7,24s2.254,2,5,2c2.794,0,5.211-2.056,5.211-2.056S14,22.918,14,18.643 c0-0.613,0-0.56,0-1.509c0-1.354,0.942-2.849,3-3.134c4.816-0.665,7-4,7-4s2,1.711,2,3.919c0,1.044,0,3.009,0,4.724 c0,4.194-3.214,5.302-3.214,5.302S25.225,26,28,26c3.005,0,5-3,5-3s-3-0.535-3-3c0-2.19,1-5.352,1-8c0-5.761-2.766-8-6-8 C25,4,23.672,1,19.5,1L19.5,1z"/></g></svg>