<svg xmlns="http://www.w3.org/2000/svg" viewBox="0 0 128 128"><path d="M125.2 121.2c-11-4.8-22.5-8.2-34.2-10.3V66.5c0-1.6.5-3.1 1.5-4.4l11.6-14.5c1.8-2.3 2.8-5.2 2.8-8.1V18c0-1.7-1.3-3-3-3H89c-1.7 0-3 1.3-3 3v9h-9v-9c0-1.7-1.3-3-3-3H54c-1.7 0-3 1.3-3 3v9h-9v-9c0-1.7-1.3-3-3-3H24c-1.7 0-3 1.3-3 3v21.5c0 2.9 1 5.8 2.8 8.1l11.6 14.5c1 1.2 1.5 2.8 1.5 4.4V111c-6.5 1.2-13 2.7-19.3 4.7-1.6.5-2.5 2.2-2 3.8s2.2 2.5 3.8 2c34-10.7 70.7-8.8 103.3 5.3.4.2.8.2 1.2.2 1.2 0 2.3-.7 2.8-1.8C127.4 123.7 126.7 121.9 125.2 121.2zM73.9 40H39.2c-1.6 0-3.1 1.2-3.2 2.8-.1 1.7 1.3 3.2 3 3.2h30.3c3.3 0 5.1 4 2.8 6.4L71 53.6c-.9.9-1.7 1.9-2.5 2.9-1.7 2.2-4.3 3.5-7.1 3.5h-8.2c-1.6 0-3.1 1.2-3.2 2.8-.1 1.7 1.3 3.2 3 3.2h2.1c5.4 0 9.9 4.5 9.9 9.9l0 .1v7.1c-.3 0-.7-.1-1-.1-6.5 0-11.8 5.3-11.8 11.8V109c-3.1.2-6.2.6-9.2 1V66.5c0-2.9-1-5.8-2.8-8.1L28.5 43.9c-1-1.2-1.5-2.8-1.5-4.4V21h9v9c0 1.7 1.3 3 3 3h15c1.7 0 3-1.3 3-3v-9h14v9c0 1.7 1.3 3 3 3h9.5C82.3 37.1 78.4 40 73.9 40zM4 121c-1.7 0-3 1.3-3 3s1.3 3 3 3c1.7 0 3-1.3 3-3S5.7 121 4 121L4 121z"/></svg>