<?xml version="1.0"?><svg xmlns="http://www.w3.org/2000/svg" width="128" height="128" viewBox="0 0 128 128">    <path d="M 29 30 C 23.5 30 19 34.5 19 40 L 19 42 L 7.5996094 42 C 5.8996094 42 4.5996094 43.3 4.5996094 45 C 4.5996094 46.7 5.8996094 48 7.5996094 48 L 33 48 L 33 97 C 33 98.7 34.3 100 36 100 L 106 100 C 107.7 100 109 98.7 109 97 L 109 39 C 109 34 105 30 100 30 L 29 30 z M 29 36 C 31.2 36 33 37.8 33 40 L 33 42 L 25 42 L 25 40 C 25 37.8 26.8 36 29 36 z M 38.199219 36 L 100 36 C 101.7 36 103 37.3 103 39 L 103 94 L 39 94 L 39 40 C 39 38.6 38.699219 37.2 38.199219 36 z M 117 42 C 115.3 42 114 43.3 114 45 C 114 46.7 115.3 48 117 48 L 120.40039 48 C 122.10039 48 123.40039 46.7 123.40039 45 C 123.40039 43.3 122.00039 42 120.40039 42 L 117 42 z M 22 55 C 20.3 55 19 56.3 19 58 L 19 117 C 19 118.7 20.3 120 22 120 L 92 120 C 93.7 120 95 118.7 95 117 L 95 109 C 95 107.3 93.7 106 92 106 C 90.3 106 89 107.3 89 109 L 89 114 L 25 114 L 25 58 C 25 56.3 23.7 55 22 55 z"/></svg>