<svg xmlns="http://www.w3.org/2000/svg" width="512" height="512" viewBox="0 0 512 512"><path fill="#3AB37C" d="M273,138c-0.4-12.4-19-16.4-30.5-17.3c-1,9,2.6,17.7,4.6,26.6c8.3-1.8,17-1.6,24.7,1c0.2-3.1,0.6-6.2,1.4-9.1C273.1,138.8,273,138.4,273,138z"/><path fill="#C56528" d="M125.1,134.1c-3.7-0.5-7.6,1-11.2,1.6c-1.8,0.3-3.5,0.5-5.2,0.6c-0.5,11.3,2.3,23.1,5.9,33.8c4.3,0.4,8.5,1.8,12.5,3.7c2.1,1,4.6,2.5,7.2,3.6v-33.2c0-0.2,0-0.5,0-0.7C131,141.1,129.7,134.7,125.1,134.1z"/><path fill="#EF4823" d="M400.4,174.6c-6.5-2.9-14-3.1-20.9-3.1c-5.7,0-7.9-6.5-3.5-10c9.1-7.3,2.2-21.5-7-24.9c-11.6-4.2-19.6,6.3-28.8,11.5c-2.5,1.5-5.9,1.2-7.6-1.5c-7-10.9-16.3-24.1-31.2-20.2c-6.6,1.7-13.2,5.5-16.1,12c-2.5,5.7-2.7,12.1-2.7,18.2c0,5-5.1,7.5-9.1,4.6c-10.3-7.6-29.8-4-39,3.8c-4.5,3.8-5.9,9.5-4.5,15.1c1.2,4.8,4.5,14.6,10.7,14.9c2.5,0.1,4.3,1.6,5.1,3.5c7.8,0.2,15.6,0.3,23.5,0.4c6.5,0,13,0,19.6-0.1c-1.1-0.8-2-2.1-2.2-3.8c-2.2-19,14.9-28.5,31.6-29.9c8.7-0.7,18.6-0.3,26.2,4.7c6.9,4.5,11.7,10.7,14.5,18.2c0.8,0.8,1.5,1.8,1.8,3.2c0.2,0.9,0.5,1.8,0.6,2.7c0.1,0.8,0,1.5-0.3,2.2c9.9-0.5,19.8-0.5,29.6-1.3c5.6-0.5,12.2-1.1,17.6-3.5V189c0-0.2,0-0.4,0-0.7C407.8,182.6,406.2,177.2,400.4,174.6z"/><path fill="#C56528" d="M154.3,170.1V138c-0.6,0.9-1.2,1.9-2,2.8c-2,2.2-4.7,3.8-7.5,4.6v31.2c0.7-0.6,1.3-1.2,1.9-1.6c2.1-1.6,4.5-3.3,7.1-4.1c0.2-0.1,0.5-0.1,0.7-0.2C154.3,170.5,154.3,170.3,154.3,170.1z"/><path fill="#EF4823" d="M177.1,430.1c-0.6-2.4-0.9-5-1.1-7.4c-0.7-7-0.7-14-1.2-21c-1.3-20.6-2.8-41.3-3.9-61.9c-2.3-44.9-3.7-89.8-3.8-134.7c-16.6-1-33.3-1.9-49.9-2.4c-0.5,8,1.9,16,2.7,23.9c1,9.9,1.7,19.9,2.7,29.9c2,20.1,3,40.5,3.5,60.7c0.5,20.7,0,41.4-0.1,62.2c-0.1,16.6,1,33.2,1.3,49.8c0.9,0.8,1.5,2,1.5,3.6v4.3c0,0.7-0.1,1.4-0.3,2c0.1,0.1,0.2,0.3,0.4,0.4c1,1.2,3.4,2.7,5.3,3.5c5.6,2.5,11.9,3.6,18,3.7c6.2,0.1,12.8-0.4,18.6-2.9c2.1-0.9,3.9-2,5.2-3.6c0.7-0.9,1.1-2,1.2-3.1C175,435.3,175.4,432.2,177.1,430.1z"/><path fill="#FEBF10" d="M349.8,196.4c-1.7-6.9-5-14-11.5-17.4c-5.7-3-12-3.5-18.3-3c-10.9,0.9-24.1,4.9-22.5,18.2c0.2,2.1-0.5,3.6-1.8,4.6c18.1-0.3,36.2-1,54.2-2C349.9,196.6,349.8,196.5,349.8,196.4z"/><path fill="#EF4823" d="M186.7,442c-4.4,12.7-23.4,15.7-35.4,15.1c-9.9-0.5-24.5-3.3-31-11.7c-4.7,5.1-9.2,11.5-8.1,18.7c0.9,6,5.5,10.7,10.2,14.1c11.6,8.4,27.7,13,42,12.7c13.6-0.3,26.5-9.2,30.4-22.6C198.1,457.2,194.8,447.9,186.7,442z"/><path fill="#14B6B9" d="M443.3,138.4c-1.7-19-3.5-38-5.4-57c-0.6-6.3-0.3-14.2-5.4-18.7c-1.7-1.6-4.3-3.4-6-5.5c-0.4-0.2-0.8-0.4-1.1-0.6C405.4,53,385,53,364.7,53.2c-30.8,0.3-61.5,2.1-92.2,4.4c-15.4,1.2-30.8,2.4-46.2,3.8c-15,1.3-29.9,3.1-44.9,2.9c-14.8-0.2-29.7-1.3-44.5-0.2c-7.5,0.5-13,2.4-20.5,6c-7.7,3.7-15.2,7.8-22.3,12.5c-2.2,1.5-4.6,3-6.7,4.7c40,0.1,80.1,0.5,120.1-0.1c31.3-0.5,62.4-2.3,93.7-4.4c15.4-1,30.8-1.9,46.2-2.6c14.1-0.7,28.6-2.2,42.8-1.1c7.9,0.6,16.3,2.1,22.8,7c5.8,4.4,8.8,11,10.1,18c2.1,10.8,0.4,21.8,0.5,32.8c0.1,10.4,0.8,20.9,1.4,31.3c1.1-1.3,2-2.5,2.8-3.6c3.5-4.7,7.1-9.4,10.3-14.4C440,146.7,443.7,142.1,443.3,138.4z"/><path fill="#14B6B9" d="M413.1,131.8c0.3-10.1,2.2-21.8-1.9-31.4c-2.4-5.7-7.6-8.6-13.4-9.9c-12-2.5-24.4-1.1-36.4-0.6c-30.9,1.3-61.6,3.9-92.4,5.5c-62.3,3.4-124.8,2.2-187.2,2.2c0,0.9,0.1,1.8,0.2,2.8c0.3,4.1,0.7,8.1,1,12.2c0.9,9.5,1.9,18.9,2.7,28.4c1,12.2,1.4,24.3,3.1,36.5c0.5,3.5,0.9,7.1,1.3,10.6c0.1,1.1,0.4,2.4,0.6,3.6c45.3,0.2,90.3,4.2,135.5,6.2c-9-10.7-10.8-29.3-1-39.1c3.2-3.2,7.2-5.9,11.7-8c-2.3-12.5-7.9-23.8-4.1-36.8c0.7-2.2,2.4-4.5,5-4.4c13.5,0.1,34.6,4.1,42.9,16.6c4.9-5.3,11.3-8.8,18.5-10.4c17.9-4,30.1,6.9,39.5,20.3c5.2-3.7,10.2-8.1,16.2-10.2c8.1-2.8,17.3-1.2,24.3,3.7c10.3,7.2,14.4,20.6,10.2,31.4c6.5,0.5,13,1.8,18.6,5.3c2.8,1.7,5,3.9,6.7,6.4C413.9,159,412.7,145.4,413.1,131.8z M177.6,176.4c-0.4,2.1-2.5,4.3-4.7,4.2c-6.7-0.2-13.5-2.1-19.3,2.2c-4.1,3-7.7,6.5-13.1,6.5c-10.5,0-18.7-9.6-29.2-8.7c-2.4,0.2-4.5-1.3-5.4-3.5c-5.2-14.2-8.7-30-7.4-45.2c0-0.2-0.1-0.3,0-0.5c0.1-6.2,1.5-11.8,4.8-17.1c0.3-0.5,0.7-1,1.2-1.3c-0.5-2.8,0.9-5.9,4.6-5.9h60.1c3.2,0,5,2.3,5.4,4.8c1.7,0.6,3.1,2.1,3.1,4.3c0,3.5,0,7-0.5,10.5c1.1,0.8,1.9,2,1.9,3.8C179.1,145.9,180.4,161.3,177.6,176.4z"/><path fill="#C56528" d="M168.7 136c-1.2-.3-2.5-.7-3.9-1.2v34.5c0 .2 0 .4 0 .5 1.1 0 2.1.1 3.2.2C169.5 158.7 168.9 147.4 168.7 136zM164.5 117.7h-51.2c-.1.5-.3.9-.6 1.4-1.4 2.2-2.5 4.4-3.1 6.8 6.2-.7 12.2-3.4 18.5-1.8 6.4 1.6 8.5 6.2 12.2 10.9.7.9 0 .5 1.1.3 1.3-.2 2.2-.5 3-1.5 2-2.5 3.5-5.8 6.2-7.6 3.1-2.1 7.2-3.3 11-2.6 1.8.3 3.5.9 5.2 1.3 0-.3.1-.7.1-1C164.8 122.6 163.4 120.1 164.5 117.7z"/><path fill="#010101" d="M453.8,137.6c-1.6-18.1-3.2-36.2-5.1-54.3c-0.7-7.1-1.1-14.5-3.6-21.3c-1-2.6-2.8-4.6-4.8-6.5c-1-1-2.1-1.9-3.2-2.8c-0.1-0.1-0.3-0.2-0.4-0.4c0-2.4-1.5-4.6-4.2-5.2c-29.6-6.1-60.7-5.1-90.7-4.1c-30.8,1.1-61.6,3.3-92.3,5.8c-15.3,1.2-30.6,2.6-46,3.9c-14.8,1.3-29.5,0.9-44.4,0.5c-11.2-0.3-24-1.4-34.9,2.1c-7.2,2.3-14.1,5.9-20.8,9.5C96.1,68.7,88.8,73,82.2,78c-3.8,2.9-9.5,7.2-9.5,12.5c-3.2,4-1.3,11.8-0.9,16.3c0.9,10.2,2,20.5,2.9,30.7c1,11.1,1.1,22.2,2.5,33.2c0.6,4.9,1.3,9.9,1.9,14.8c0.3,2.2,0.6,4.4,0.8,6.5c0,0,0,0.1,0,0.1c-0.2,0.7-0.2,1.4,0,2.3c0.2,1.2,0.4,3.1,1.3,4.1c0.9,1,2.1,1.7,3.3,2c0.9,1,2.2,1.6,3.9,1.6c6.2,0,12.3,0.1,18.5,0.2c-0.3,7.4,1.2,14.7,2.3,22c1.4,9.6,1.7,19.5,2.7,29.2c2.1,20.8,3.2,41.7,3.9,62.6c0.6,20.7,0.1,41.5,0,62.2c-0.1,19,1.2,37.9,1.4,56.9c-1,0.2-2.1,0.6-3,1.6c-6.6,6.7-12.2,15-12.5,24.7c-0.2,7.9,3.6,14.7,8.9,20.3c11.6,12.3,31.2,18,47.6,19.3c17.6,1.4,32.8-5.4,42.4-20.4c8.7-13.6,8.4-31.4-2.6-43.4c-2.8-3.1-6.4-5.4-10.2-7.2c-1.5-3.7-1.4-9.8-1.6-13.1c-0.4-6.4-0.5-12.8-1-19.2c-1.7-20.9-2.8-41.8-3.9-62.8c-2.2-43.1-3.5-86.3-3.6-129.5c30.8,1.8,61.5,3.7,92.3,3.8c29.9,0.1,59.9-1,89.8-2.8c10.5-0.6,21-0.6,31.5-1.4c9.5-0.7,19.9-2.4,27.6-8.3c1.4-1.1,2.6-2.3,3.8-3.7c0.9-1.1,1.2-2.2,1.2-3.3c1.5-1,2.7-2.8,2.7-4.8c0.3-0.7,0.6-1.3,0.9-1.9c0.9-1.6,1.9-3.2,3-4.7c3.1-4.5,6.4-8.8,9.6-13.2C445.4,157.8,454.7,147.5,453.8,137.6z M186.7,442c8.1,5.9,11.4,15.2,8.1,26.3c-3.9,13.4-16.8,22.3-30.4,22.6c-14.3,0.3-30.4-4.3-42-12.7c-4.7-3.4-9.3-8.1-10.2-14.1c-1.1-7.2,3.4-13.6,8.1-18.7c6.5,8.4,21.1,11.1,31,11.7C163.4,457.7,182.4,454.7,186.7,442z M177.2,437c-0.1,1.2-0.4,2.2-1.2,3.1c-1.3,1.6-3.1,2.7-5.2,3.6c-5.8,2.5-12.3,3-18.6,2.9c-6.1-0.1-12.4-1.2-18-3.7c-1.9-0.9-4.3-2.3-5.3-3.5c-0.1-0.2-0.2-0.3-0.4-0.4c0.2-0.7,0.3-1.3,0.3-2v-4.3c0-1.6-0.6-2.8-1.5-3.6c-0.3-16.6-1.4-33.2-1.3-49.8c0.1-20.7,0.6-41.4,0.1-62.2c-0.5-20.2-1.5-40.6-3.5-60.7c-1-10-1.7-20-2.7-29.9c-0.8-7.9-3.2-15.9-2.7-23.9c16.6,0.5,33.3,1.4,49.9,2.4c0,44.9,1.4,89.8,3.8,134.7c1.1,20.7,2.6,41.3,3.9,61.9c0.4,7,0.5,14,1.2,21c0.2,2.5,0.6,5,1.1,7.4C175.4,432.2,175,435.3,177.2,437z M295.7,198.7c1.2-1,2-2.5,1.8-4.6c-1.6-13.3,11.6-17.3,22.5-18.2c6.3-0.5,12.6,0,18.3,3c6.6,3.5,9.9,10.5,11.5,17.4c0,0.1,0.1,0.2,0.1,0.3C331.9,197.7,313.8,198.4,295.7,198.7z M408,189v2.3c-5.4,2.5-12,3-17.6,3.5c-9.8,0.8-19.8,0.8-29.6,1.3c0.2-0.7,0.4-1.4,0.3-2.2c-0.1-1-0.5-1.8-0.6-2.7c-0.3-1.4-0.9-2.4-1.8-3.2c-2.8-7.5-7.6-13.7-14.5-18.2c-7.6-4.9-17.4-5.4-26.2-4.7c-16.6,1.4-33.8,10.9-31.6,29.9c0.2,1.8,1.1,3,2.2,3.8c-6.5,0.1-13,0.1-19.6,0.1c-7.8,0-15.6-0.1-23.5-0.4c-0.8-1.9-2.6-3.4-5.1-3.5c-6.2-0.3-9.5-10.1-10.7-14.9c-1.5-5.7,0-11.3,4.5-15.1c9.2-7.8,28.7-11.4,39-3.8c4,2.9,9.1,0.4,9.1-4.6c0-6.1,0.2-12.5,2.7-18.2c2.9-6.5,9.5-10.3,16.1-12c14.9-3.9,24.2,9.3,31.2,20.2c1.7,2.7,5.1,2.9,7.6,1.5c9.2-5.3,17.2-15.8,28.8-11.5c9.3,3.4,16.1,17.6,7,24.9c-4.4,3.5-2.2,10,3.5,10c7,0,14.5,0.2,20.9,3.1c5.8,2.6,7.5,8,7.7,13.7C408,188.5,408,188.8,408,189z M242.5,120.7c11.5,0.8,30.1,4.9,30.5,17.3c0,0.4,0.1,0.9,0.2,1.2c-0.8,3-1.2,6-1.4,9.1c-7.7-2.6-16.4-2.8-24.7-1C245,138.4,241.5,129.8,242.5,120.7z M407.8,166.2c-5.5-3.4-12-4.8-18.6-5.3c4.2-10.8,0.1-24.2-10.2-31.4c-7-4.9-16.2-6.5-24.3-3.7c-6,2.1-11,6.4-16.2,10.2c-9.4-13.4-21.6-24.2-39.5-20.3c-7.2,1.6-13.6,5.2-18.5,10.4c-8.3-12.5-29.5-16.5-42.9-16.6c-2.6,0-4.3,2.2-5,4.4c-3.9,13,1.8,24.3,4.1,36.8c-4.4,2.1-8.4,4.8-11.7,8c-9.8,9.8-7.9,28.3,1,39.1c-45.2-2-90.2-6-135.5-6.2c-0.2-1.3-0.4-2.5-0.6-3.6c-0.4-3.5-0.8-7.1-1.3-10.6c-1.7-12.2-2.1-24.3-3.1-36.5c-0.8-9.5-1.8-18.9-2.7-28.4c-0.4-4-0.8-8.1-1-12.2c-0.1-0.9-0.1-1.8-0.2-2.8c62.4,0,124.8,1.2,187.2-2.2c30.8-1.7,61.6-4.2,92.4-5.5c12.1-0.5,24.5-2,36.4,0.6c5.9,1.2,11,4.2,13.4,9.9c4.1,9.7,2.2,21.3,1.9,31.4c-0.4,13.6,0.8,27.2,1.5,40.8C412.8,170.1,410.6,167.9,407.8,166.2z M438,149.9c-3.2,5-6.8,9.7-10.3,14.4c-0.8,1.1-1.8,2.3-2.8,3.6c-0.5-10.4-1.3-20.8-1.4-31.3c-0.1-10.9,1.6-21.9-0.5-32.8c-1.3-7-4.3-13.5-10.1-18c-6.5-5-14.8-6.5-22.8-7c-14.1-1-28.6,0.5-42.8,1.1c-15.4,0.7-30.8,1.5-46.2,2.6c-31.2,2.1-62.4,3.9-93.7,4.4c-40,0.7-80.1,0.2-120.1,0.1c2.1-1.7,4.4-3.2,6.7-4.7c7.1-4.7,14.7-8.8,22.3-12.5c7.5-3.6,13-5.4,20.5-6c14.8-1.1,29.7,0.1,44.5,0.2c15,0.2,30-1.7,44.9-2.9c15.4-1.3,30.8-2.6,46.2-3.8c30.7-2.3,61.4-4.2,92.2-4.4c20.4-0.2,40.7-0.2,60.8,3.3c0.3,0.2,0.7,0.5,1.1,0.6c1.7,2.1,4.3,4,6,5.5c5,4.5,4.7,12.4,5.4,18.7c1.9,19,3.7,38,5.4,57C443.7,142.1,440,146.7,438,149.9z"/><path fill="#010101" d="M179.1,130.6c0-1.8-0.8-3.1-1.9-3.8c0.4-3.5,0.5-7,0.5-10.5c0-2.3-1.3-3.7-3.1-4.3c-0.4-2.5-2.2-4.8-5.4-4.8H109c-3.7,0-5.1,3.1-4.6,5.9c-0.4,0.4-0.8,0.8-1.2,1.3c-3.4,5.3-4.7,10.8-4.8,17.1c0,0.2,0,0.3,0,0.5c-1.4,15.2,2.2,31,7.4,45.2c0.8,2.2,3,3.7,5.4,3.5c10.5-0.9,18.7,8.7,29.2,8.7c5.4,0,9-3.5,13.1-6.5c5.8-4.3,12.6-2.3,19.3-2.2c2.3,0.1,4.3-2.1,4.7-4.2C180.4,161.3,179.1,145.9,179.1,130.6z M134.3,144.3v33.2c-2.6-1.1-5-2.6-7.2-3.6c-4-1.9-8.2-3.3-12.5-3.7c-3.7-10.7-6.4-22.5-5.9-33.8c1.7-0.1,3.5-0.3,5.2-0.6c3.6-0.7,7.5-2.1,11.2-1.6c4.6,0.6,5.9,6.9,9.2,9.5C134.3,143.9,134.3,144.1,134.3,144.3z M153.6,170.9c-2.6,0.8-4.9,2.5-7.1,4.1c-0.5,0.4-1.2,1-1.9,1.6v-31.2c2.9-0.8,5.6-2.4,7.5-4.6c0.8-0.9,1.4-1.9,2-2.8v32.2c0,0.2,0,0.4,0,0.6C154.1,170.8,153.9,170.8,153.6,170.9z M161.6,123.6c-3.8-0.7-7.8,0.5-11,2.6c-2.7,1.8-4.3,5.1-6.2,7.6c-0.8,1-1.7,1.3-3,1.5c-1.1,0.2-0.4,0.6-1.1-0.3c-3.7-4.7-5.9-9.3-12.2-10.9c-6.2-1.6-12.3,1.1-18.5,1.8c0.6-2.4,1.7-4.6,3.1-6.8c0.3-0.5,0.5-0.9,0.6-1.4h51.2c-1.1,2.4,0.3,4.9,2.4,6.2c0,0.3-0.1,0.7-0.1,1C165.1,124.4,163.4,123.9,161.6,123.6z M168,170c-1.1-0.1-2.2-0.1-3.2-0.2c0-0.2,0-0.3,0-0.5v-34.5c1.4,0.4,2.7,0.9,3.9,1.2C168.9,147.4,169.5,158.7,168,170z"/></svg>