<svg xmlns="http://www.w3.org/2000/svg" width="512" height="512" viewBox="0 0 512 512"><path fill="#C56528" d="M236.7,487.9c-4.9-9.3-2.9-21.5-2.9-31.7v-13c-15-0.3-30-1.3-44.9-2.7c0.6,13.3,1.2,26.6,1,39.9c0.5,0.8,0.9,1.7,0.8,3c0,0.7,0,1.4-0.1,2.1c4.8,0.6,9.6,1.1,14.4,1.6c11,1.2,22.1,2.1,33.1,2.6C237.6,489.3,237.1,488.7,236.7,487.9z"/><path fill="#74CCCF" d="M177.8,439.4c-4.3-0.4-8.5-0.9-12.8-1.3c-10.8-1.1-21.5-2.9-32.2-4.2c0.2,11.8,0.9,23.5,2.8,35.2c0.7,0.8,1.1,1.9,1.1,3.3v1.3c13.4,5.3,27.7,8.2,42.1,10.3C179.1,469.1,178.4,454.3,177.8,439.4z"/><path fill="#C56528" d="M121.7,432.7c-4.5-0.6-9-1.5-13.4-2.9c-4.8-1.5-9.7-4.2-14.8-4.4c-3-0.1-4.9-2.2-5.5-4.6c-3,2.1-5.9,4.4-8.7,6.8c12.5,13.9,25.3,28.5,41.4,38.3c1.1,0.7,2.3,1.3,3.4,2C122.5,456.2,121.9,444.4,121.7,432.7z"/><path fill="#74CCCF" d="M220,382.2c-8.5-2.9-16.4-7-23.6-12.1c-1.4,1.6-3.7,2.3-5.7,2c-0.7,0.1-1.4,0.3-2.1,0.5c-1.6,0.6-3,1.2-4.3,2.2c-2.7,2-5.5,5-6.2,8.4c-1.6,8,9.7,12,15.5,14.8c8.8,4.1,17.5,8.1,26.2,12.5c7.2,3.6,14.3,7.3,21.7,10.4c2.7-5,6-9.7,8.9-14.4c2.3-3.8,4.7-7.6,7-11.4c0.8-1.3,1.5-2.5,2.2-3.8c0.2-0.4,0.3-0.7,0.4-0.9c0.1-0.4,0.1-0.3,0,0c0,0.1,0,0.3-0.1,0.6c0,0,0,0,0,0c0.2-0.7,0.5-1.3,0.9-1.9C246.9,388.8,233.1,386.7,220,382.2z"/><path fill="#C56528" d="M343.5,87.2c-4.3-5.8-8.3-11.8-12.1-17.9c-4.1-6.5-8.1-13.1-11.8-19.8c-2.6-4.8-4.9-9.6-8.2-14c-5.6-7.3-13.2-13-22.6-13.8c-12.1-1-23.1,5.7-35.1,6.2c-14.4,0.6-28-6.4-42.4-4.6c-10.2,1.3-18.9,6.2-25.4,14.3c-6.7,8.4-11,18.3-15.1,28.1c-5.4,13.2-11.2,26.1-15.9,39.6c3.9,0.1,7.8,0.9,12,1.5c36.5,4.9,73.3,2.4,110,2.4c15.3,0,30.8,0.1,46-2.3c8.1-1.3,19.2-5.9,27.9-3.3C350.3,97.4,347.2,92.2,343.5,87.2z"/><path fill="#74CCCF" d="M206.3,415.8c-6.1-3-12.4-5.5-18.5-8.5c0.1,7.4,0.3,14.8,0.6,22.2c15.1,1.4,30.2,2.5,45.4,2.8v-1c0-0.6,0.1-1.2,0.2-1.7C224.5,425.3,215.6,420.3,206.3,415.8z"/><path fill="#C56528" d="M177.8 401.8c-.9-.6-1.9-1.2-2.8-1.9-4.2-3.1-6.8-7.1-7.7-11.5-12.7.7-25.2 5.7-37 10.8 1.3.8 2.3 2.1 2.3 4.2 0 6.5-.1 13.1-.1 19.6 10.2 1.3 20.4 2.8 30.6 3.9 4.7.5 9.4 1 14.1 1.5-.3-7.7-.5-15.4-.6-23.1C176.7 403.8 177.2 402.7 177.8 401.8zM255.6 291.9c-5.4-4.3-14.5-1.2-20.1 1.2-6.4 2.8-10.6 6.7-15.6 11.3-4.2 3.9-8.9 8-14 11.1 8.8 3.2 17.7 5.5 26.7 2.7 11.4-3.5 25.3-12.1 26.2-25.1C257.7 293.2 256.6 292.8 255.6 291.9z"/><path fill="#FEBF10" d="M316 298.5c-6-2.5-11.9-5.8-18.3-7.4-4.2-1-12.3-3-18.6-2.1-1.8.7-3.7 1.4-5.6 1.8-.8.5-1.5 1.2-2 1.9 4.8 4.1 8.5 9.2 12.6 14.1 5 6.1 11.1 10.1 19 11.6 9.1 1.8 19.5 1.1 27.9-3.2 3.9-1.9 6.7-5.2 9.1-8.8C330.8 305 320.1 300.2 316 298.5zM345.3 114c-5.5.2-10.8 2-16.2 3-15.1 2.8-30.4 3.2-45.7 3.2-31.9 0-63.9 1.8-95.7-.3-8.3-.5-16.6-1.3-24.8-2.5-4.6-.7-10.4-2.6-14.7.4-3.8 2.7-2.4 7 1.8 8.2 3.9 1.1 7.7 2.1 11.1 4.3 4.1.1 8.3 1.2 11.7 1.9 7.7 1.6 15.1 3.4 23 4 23 1.9 46.2 1.1 69.2 2.2 15.3.8 30.9 1.4 46.1-.9 7.8-1.2 15.3-3.2 22.6-6 3.2-1.2 6.4-2.6 9.7-3.5 2.6-.8 5.7-.8 7.1-3.6C352.5 119.9 351.2 113.9 345.3 114z"/><path fill="#FCBF95" d="M364.1,176.9c-2.4,1.2-4.8,2.4-7.3,3.4c-51.6,22.2-108.1,10.9-161.7,4.4c-16.1-2-31.8-4.5-47-9.1c1.6,18.6,3.3,37.2,5.3,55.8c2,18.7,3.8,37.6,8.1,55.9c6.6,28.7,18.2,59.7,44.4,76.1c22,13.8,50.4,16.9,75.7,13.1c24.7-3.7,49.3-13.9,63-35.9c13.9-22.3,18.9-49.1,20.7-74.9C367.4,236.2,365.7,206.5,364.1,176.9z M295.4,202.6c12.3-3.7,43-18,45.3,4.8c0.3,3-2.1,5.7-5.1,5.9c-4.1,0.3-8.4-0.5-12.5-0.9c-3.5,0.2-7,0.8-10.5,0.9c-2.5,0.1-4.4-1.4-5.3-3.3c-3.8,1.4-7,2.6-8.3,3C292.2,215,288.6,204.7,295.4,202.6z M181.1,208.2c6.5-6,15.7-7.9,24.3-8.1c8-0.2,17.2,0.4,24.2,4.8c5.3,3.3,2.8,11-3.5,10.3c-1.9-0.2-3.9-0.6-6-1c-0.5,1.2-1.6,2.3-3.1,2.8c-6.6,2.2-13.6,1.4-20.4,1.3c-2.6,0-4.9-1.8-5.7-4.1c-0.6,0.4-1.1,0.8-1.6,1.2C184.2,220.2,175.9,213,181.1,208.2z M284.3,336.4c-5.9,5.2-13.6,6.9-21.4,5.8c-5.6-0.8-14.8-2.9-13.1-10.5c1.2-5.5,8.4-5.3,10.4-1.4c0.4,0.1,0.8,0.2,1.1,0.4c1.6,0.4,3.2,0.8,4.9,0.8c3.2,0,7.3-0.1,9.8-2.4C281.3,324.5,289.6,331.7,284.3,336.4z M353.6,304.3c-0.1,0.6-0.2,1.3-0.5,2c-0.3,0.6-0.6,1.2-1,1.7c-4,6.5-8.3,12.8-15.2,16.6c-8.9,5-20.7,6.8-30.8,5.6c-9.9-1.2-20-4.8-27-12.2c-4.2-4.5-7.7-9.6-12-14c-4.9,11.1-16.1,19.4-27.4,23.6c-9.6,3.5-19.5,3.9-29.3,0.9c-7.7-2.3-15.1-5.7-22.8-7.9c-2.3-0.2-4.5-0.8-6.9-1.8c-5.8-2.5-2.5-11.5,3.5-10.3c1.8,0.3,3.6,0.8,5.5,1.4c5.8,0.2,11.6-3.8,15.9-7.3c5.3-4.3,9.7-10,15.3-13.8c5.1-3.5,11.6-6.8,18.3-8.5c-0.4-1.3-0.5-2.7-0.4-4.4c0-0.4,0.1-0.8,0.2-1.1c-0.4-0.9-0.7-2-1-3c-1.5-6.9,8.9-10.6,10.4-3.6c1.6,7.4,12,7.9,18.1,7.3c1.4-0.2,8.4-0.9,8.6-2.8c0.4-4.1,0.5-6.7,3-10.2c4-5.8,12.3,1.5,8.3,7.3c-0.9,1.3-0.3,4.3-0.6,5.9c-0.1,0.6-0.4,1.2-0.6,1.7c0.4,0.3,0.7,0.6,1,0.9c8.9,0.5,18,3.3,24.6,6.3c7.3,3.3,14.6,6.5,22.1,9.1c3.4,1.2,7,2.2,10.6,2.7c0.8,0.1,1.1,0.2,1.6,0.1c1.7-5.1,10.5-5.1,10.7,1.2C355.8,300.5,355,302.7,353.6,304.3z"/><path fill="#74CCCF" d="M349.4,369.8c-2.3-1.3-4.6-2-7.2-2.6c-1.8-0.4-3-1.5-3.6-2.8c-11.6,9.9-25.8,16.4-40.7,20.1c-8.1,2-16.5,3.4-24.8,4c1.6,2.3,3.4,4.6,4.7,7.1c2.3,4.6,5.5,8.8,7.7,13.4c1.6,3.2,2.9,6.5,4.6,9.6c0.9,1.7,1.7,3.4,2.8,4.9c0.1,0.1,0.2,0.2,0.2,0.3c0.4-0.1,0.7-0.2,1.1-0.3c5.6-2.4,10.2-7.3,15.2-10.8c3.7-2.6,7.5-5.2,11.2-7.9c9.5-6.9,19.5-14.2,26.7-23.6c1.4-1.8,2.6-3.6,3.5-5.7c0.2-0.6,0.5-1,0.6-2.1c0-0.1,0-1.3,0.1-0.9C351.1,371.4,351,370.7,349.4,369.8z"/><path fill="#C56528" d="M403.8 416.2c0-.2 0-.4 0-.6-7.4 3.3-14.8 6.4-22.2 9.5-11.8 4.8-23.7 8.8-36.1 12-1.4.4-2.8.7-4.2 1.1.2 3.7.4 7.4.4 11.2.1 5.3.4 10.6.2 15.9-.1 3.5 0 7.5-1.6 10.8 11.2-3.9 22.1-8.7 32.6-14.4 9.7-5.2 18.9-11.2 28.2-17.1-.4-1.9 0-4.1 1.5-5.6.1-.4.3-1.1.3-1.3.3-1.9.6-3.9.7-5.9C403.9 426.5 403.9 421.3 403.8 416.2zM413.9 394.7c.2 1.2.3 2.5.4 3.8.7-.3 1.3-.7 2-1 .6-.3 1.2-.7 1.8-1C416.7 395.9 415.3 395.3 413.9 394.7z"/><path fill="#74CCCF" d="M449.5 412.7C449.5 412.7 449.5 412.7 449.5 412.7c-.9-.7-1.7-1.3-2.6-1.9-3.1-1.9-6.3-3.7-9.5-5.3-2.5-1.3-5.1-2.6-7.7-3.8-3.5 4.1-10.7 6.9-14.9 8.8 0 3.5 0 6.9 0 10.2 0 3.4.5 9.9-.2 15.7 11.5-6.5 24.4-12.3 33.5-22.2.5-.5 1-.9 1.5-1.2C449.6 412.9 449.5 412.8 449.5 412.7zM403.1 399.9c-.2-2.1-.3-4.2-.6-6.3-.1-.8-.2-1.6-.3-2.4 0-.2-.1-.4-.1-.5 0 0 0 0 0-.1 0-.2-.1-.3-.1-.5-13.6-4.8-27.8-8.2-42.2-7.8-.1.2-.2.4-.3.6-4.9 8.2-12.1 15.1-19.7 21.2 0 .1 0 .2 0 .3 0 7.5.5 15 .9 22.5 11.3-2.9 22.5-6.3 33.3-10.6 9.9-4 19.7-8.1 29.4-12.5C403.2 402.5 403.2 401.2 403.1 399.9z"/><path fill="#C56528" d="M404.7,84.6c-16.3-3-33.4-0.9-50-0.4c3.8,5.8,6.7,12,7,19.2c0.1,2.8-1.5,4.6-3.6,5.4c6.4,7.7,5.7,20.1-2.9,26.3c-3,2.2-6.5,2.6-10,3.8c-3.2,1.1-6.4,2.4-9.6,3.6c-6.5,2.5-13.3,4.2-20.2,5.4c-15.2,2.6-30.6,2.4-46,1.7c-15.3-0.7-30.6-1.1-45.9-1.3c-13.7-0.1-28.1,0.1-41.5-2.8c-5-1.1-10-2.3-15-3.2c-2.9-0.5-7.1-1.7-10-0.3c-3.9,2-6.8-1.3-6.9-4.8c-3.4-1-7-1.6-9.8-3.9c-4.6-3.8-6.3-10-5-15.7c1.1-4.7,4.9-8.6,9.4-10.5c-0.8-1.3-1-3-0.4-4.8c1-3,2.1-6,3.2-9c0.7-1.9,1.4-3.7,2.1-5.6c-0.7-0.6-1.2-1.2-1.6-2c-17.9-4.9-36.4-7.5-54.9-4.1C86,83,78.9,85.5,72.7,89.3c-2.7,1.7-5.4,3.5-7.4,6c-0.9,1.1-1.7,2.3-2.2,3.7c-0.2,0.6-0.4,1.2-0.5,1.8c0,0.2,0,0.3-0.1,0.4c1.2,0.8,1.8,2,2,3.3c18.3,21.9,41.6,40.8,67.3,53.3c25.4,12.4,53.2,14.1,80.7,17.9c27.1,3.8,54.6,7.8,82,6.6c27.6-1.2,55-7.6,78.2-23.2c12.1-8.2,22.3-17.9,32.9-27.8c8.8-8.2,19.3-16.7,24.2-28C430.9,91,414.2,86.3,404.7,84.6z"/><path fill="#FEBF10" d="M280.7,424.8c-1.4-2.6-2.5-5.5-3.7-8c-2.2-4.7-5.3-8.8-7.6-13.5c-0.6-1.1-1.2-2.2-1.9-3.2c-2,3.4-4.5,6.6-5.7,8.5c-4.3,7-9.5,14.1-12.7,21.7c-0.8,1.9-2.6,2.8-4.4,2.9v1.1c0.3,0.7,0.6,1.5,0.7,1.8c0.6,1.6,0.2,3.5-0.7,5v13.7c0,4.8-0.2,9.6-0.2,14.3c0,3.7-0.6,9.3,1.2,12.8c1.8,3.4-0.1,6.8-2.7,8.1c11.5,0.4,23.1,0.2,34.6-0.8c-0.3-20.7-3-42,2.1-62.3C280,426,280.3,425.4,280.7,424.8z M255.7,437.2c0-0.7,0-1.4,0.1-2.1c0.2-1.1,0.7-2,1.4-2.8c1.1-1.3,2.9-2,4.6-2c1.5,0,2.9,0.3,4.1,1.4c1.1,0.9,1.7,2.3,1.9,3.7c0.1,1.5-0.4,3-1.4,4.1c-0.2,0.3-0.5,0.5-0.8,0.7c-0.1,0.1-0.1,0.2-0.2,0.3c-0.9,1.1-2.3,1.7-3.7,1.9c-1.5,0.1-2.9-0.4-4.1-1.4C256.6,440.1,255.7,438.6,255.7,437.2z M259.1,456.2c0.2-0.3,0.5-0.5,0.8-0.7c0.1-0.1,0.1-0.2,0.2-0.3c0.9-1.1,2.3-1.7,3.7-1.9c1.5-0.1,3,0.4,4.1,1.4c1,0.9,1.9,2.3,1.9,3.7c0,0.7,0,1.4-0.1,2.1c-0.2,1.1-0.7,2-1.4,2.8c-1.1,1.3-2.9,2-4.6,2c-1.5,0-2.9-0.3-4.1-1.4c-1.1-0.9-1.7-2.3-1.9-3.7C257.6,458.8,258.1,457.3,259.1,456.2z M269.3,484.4c-0.9,1-2.3,1.9-3.7,1.9h-1c-1.5,0-2.9-0.3-4.1-1.4c-1.1-0.9-1.7-2.3-1.9-3.7c-0.1-1.5,0.4-2.9,1.4-4.1c0.9-1,2.3-1.9,3.7-1.9h1c1.5,0,2.9,0.3,4.1,1.4c1.1,0.9,1.7,2.3,1.9,3.7C270.8,481.9,270.3,483.3,269.3,484.4z"/><path fill="#74CCCF" d="M330.3 471.4c1-1.9.7-7.4.7-10.4 0-4.3-.2-8.6-.2-12.9 0-2.5-.1-5.1-.2-7.7-4.3.9-8.6 1.6-12.9 2.2-9 1.2-18.1 2-26.6 5.4-1.1.5-2.2.5-3.1.3-.7 13.2.5 26.5.7 39.6 1-.1 2-.2 2.9-.4 13.9-1.9 27.6-4.9 41-9.1C330.2 477.2 328.6 474.4 330.3 471.4zM97.4 414.8c8.2 1.4 16 5.1 24.3 6.7 0-5.8.1-11.5.1-17.3 0-.5.1-.9.2-1.4C113.5 406.5 105.3 410.3 97.4 414.8z"/><path fill="#C56528" d="M328.9,412.3c-0.3,0.2-0.5,0.4-0.8,0.6c-4.6,3.3-9.2,6.5-13.8,9.8c-5.8,4.1-13.2,12.4-20.9,12.2c-1.4,0-2.7-0.3-3.9-0.7c-0.2,1-0.3,1.9-0.5,2.9c13-4.7,27.2-5.4,40.9-7.8C329.5,423.6,329.1,418,328.9,412.3z"/><path fill="#231F20" d="M259.9,390.2C260,389.9,260,389.9,259.9,390.2L259.9,390.2z"/><path fill="#231F20" d="M449.5,399.6c-7-4.2-14.5-7.7-21.9-11c-20.4-9.1-42.7-17.1-65.3-17.3c-0.1-1.3-0.5-2.6-1-3.8c-2.7-6.1-9-8.9-15.1-10.5c12.1-13.7,19-31.2,23.6-48.7c11.8-44.3,7.4-92,5-137.3c10.5-6.5,20.1-14.3,29.2-22.8c6.7-6.3,13.3-12.6,19.8-18.9c6.3-6.1,12.3-12.7,15.8-20.8c0.5-0.7,0.8-1.5,0.9-2.5c2.1-17.8-13.5-26.9-28.6-30.9c-20.7-5.5-43.2-1.7-64.2-1.6c-0.2,0-0.4,0-0.7,0c-1.2-1.7-2.4-3.5-3.6-5.2c-4.1-6.5-8.2-13.1-12.1-19.8c-3.5-5.9-6.3-12.2-10.2-17.8c-6.1-8.7-14.4-15.2-24.6-18.4c-11.9-3.7-23.2,0.6-34.6,3.5c-15.8,4-30.7-3.3-46.5-3.5c-11.6-0.1-23.2,4.3-31.9,12c-8.3,7.3-13.9,17-18.5,26.9c-3.8,8.1-7.4,16.5-10.8,24.9c-2.1-0.7-4.5-1-6.3-1.5c-4.1-1.1-8.3-2.1-12.6-2.9c-15.5-3-31.4-3.2-46.9,0c-10.3,2.1-21.3,6.8-29,14.1c-5.2,4.9-13.3,20.3-4.6,24.7c17.4,21,38,37.8,61.4,51.7c6.7,4,13.5,7.2,20.5,9.9c2.8,31.7,5.6,63.4,9.9,94.9c3.3,24,9.3,48.2,20.7,69.7c5.1,9.6,11.5,18.2,19.2,25.5c-2.2,0.6-4.2,1.4-6.2,2.5c-4.1,2.1-7.8,5.9-10.1,9.9c-0.6,1-1.1,2.1-1.6,3.1c-16.9,0.3-33.7,7.9-48.9,14.5c-18.7,8.1-36.9,16.9-51.7,31.3c-2.3,2.2-1.7,5.2,0.1,7.2c0.2,0.9,0.7,1.8,1.4,2.6c17.4,19.3,34.8,38.6,59,49.4c27,12,57.6,13.6,86.6,16.9c56.7,6.5,115-2,165.4-29.4c13.9-7.6,26.9-16.8,40.6-24.6c12.2-7,25.4-13.2,35.1-23.7c1.5-1.6,1.7-3.5,1.2-5.1c1.4-0.6,2.5-1.8,3.1-3.5C462.6,406.7,453.6,402,449.5,399.6z M121.9,402.9c-0.1,0.4-0.2,0.9-0.2,1.4c0,5.8-0.1,11.5-0.1,17.3c-8.3-1.5-16-5.3-24.3-6.7C105.3,410.3,113.5,406.5,121.9,402.9z M120.8,465.8c-16.1-9.7-28.9-24.3-41.4-38.3c2.8-2.5,5.7-4.7,8.7-6.8c0.6,2.3,2.5,4.4,5.5,4.6c5.1,0.2,10,2.9,14.8,4.4c4.3,1.4,8.8,2.3,13.4,2.9c0.2,11.8,0.8,23.5,2.5,35.1C123.1,467.2,122,466.5,120.8,465.8z M170.7,65.9c4-9.8,8.4-19.8,15.1-28.1c6.4-8.1,15.1-13,25.4-14.3c14.4-1.8,28,5.2,42.4,4.6c12-0.5,23.1-7.3,35.1-6.2c9.4,0.8,17,6.5,22.6,13.8c3.3,4.3,5.6,9.2,8.2,14c3.7,6.7,7.7,13.3,11.8,19.8c3.8,6.2,7.8,12.1,12.1,17.9c3.7,5,6.9,10.2,7.2,16.5c-8.7-2.6-19.8,2-27.9,3.3c-15.2,2.4-30.7,2.3-46,2.3c-36.7,0-73.5,2.5-110-2.4c-4.2-0.6-8.1-1.3-12-1.5C159.5,92,165.3,79,170.7,65.9z M162.8,117.4c8.2,1.2,16.5,2,24.8,2.5c31.9,2.1,63.9,0.4,95.7,0.3c15.3,0,30.6-0.4,45.7-3.2c5.4-1,10.7-2.8,16.2-3c5.9-0.2,7.3,5.9,5.1,10.3c-1.4,2.8-4.4,2.8-7.1,3.6c-3.3,1-6.5,2.3-9.7,3.5c-7.4,2.9-14.8,4.8-22.6,6c-15.2,2.4-30.8,1.7-46.1,0.9c-23-1.1-46.2-0.3-69.2-2.2c-7.8-0.7-15.3-2.5-23-4c-3.4-0.7-7.7-1.7-11.7-1.9c-3.3-2.2-7.2-3.2-11.1-4.3c-4.2-1.2-5.7-5.5-1.8-8.2C152.4,114.8,158.2,116.7,162.8,117.4z M131.8,157.9c-25.7-12.5-49-31.4-67.3-53.3c-0.2-1.3-0.8-2.5-2-3.3c0-0.1,0-0.3,0.1-0.4c0.1-0.6,0.2-1.2,0.5-1.8c0.5-1.4,1.3-2.5,2.2-3.7c2-2.5,4.7-4.3,7.4-6c6.2-3.9,13.3-6.3,20.4-7.6c18.5-3.4,37-0.9,54.9,4.1c0.3,0.8,0.9,1.5,1.6,2c-0.7,1.9-1.4,3.7-2.1,5.6c-1.1,3-2.2,6-3.2,9c-0.6,1.8-0.3,3.4,0.4,4.8c-4.4,1.9-8.3,5.8-9.4,10.5c-1.3,5.7,0.4,11.9,5,15.7c2.8,2.3,6.5,2.9,9.8,3.9c0.1,3.5,3,6.8,6.9,4.8c2.8-1.4,7-0.2,10,0.3c5.1,0.8,10,2.1,15,3.2c13.4,2.9,27.8,2.7,41.5,2.8c15.3,0.2,30.6,0.6,45.9,1.3c15.4,0.7,30.8,0.9,46-1.7c6.9-1.2,13.7-2.9,20.2-5.4c3.2-1.2,6.4-2.5,9.6-3.6c3.5-1.2,7-1.5,10-3.8c8.5-6.3,9.3-18.6,2.9-26.3c2-0.8,3.7-2.6,3.6-5.4c-0.3-7.2-3.2-13.4-7-19.2c16.6-0.5,33.7-2.6,50,0.4c9.5,1.7,26.2,6.4,25.1,18.8c-4.9,11.3-15.4,19.9-24.2,28c-10.7,9.9-20.8,19.6-32.9,27.8c-23.1,15.7-50.6,22-78.2,23.2c-27.5,1.2-54.9-2.8-82-6.6C185,172,157.2,170.3,131.8,157.9z M161.5,287.4c-4.2-18.3-6-37.2-8.1-55.9c-2-18.6-3.6-37.2-5.3-55.8c15.1,4.6,30.8,7.1,47,9.1c53.6,6.5,110.1,17.8,161.7-4.4c2.5-1.1,4.9-2.2,7.3-3.4c1.6,29.6,3.3,59.3,1.2,88.9c-1.8,25.9-6.8,52.6-20.7,74.9c-13.7,22-38.3,32.2-63,35.9c-25.3,3.7-53.7,0.7-75.7-13.1C179.7,347.1,168.1,316,161.5,287.4z M130.4,399.1c11.7-5.1,24.3-10.1,37-10.8c0.9,4.4,3.5,8.4,7.7,11.5c0.9,0.7,1.8,1.3,2.8,1.9c-0.7,0.9-1.1,2.1-1.1,3.5c0,7.7,0.3,15.4,0.6,23.1c-4.7-0.5-9.4-1-14.1-1.5c-10.2-1.1-20.4-2.6-30.6-3.9c0-6.5,0-13.1,0.1-19.6C132.7,401.3,131.7,399.9,130.4,399.1z M178.8,484c-14.4-2-28.7-5-42.1-10.3v-1.3c0-1.4-0.4-2.5-1.1-3.3c-1.9-11.7-2.6-23.4-2.8-35.2c10.7,1.3,21.4,3,32.2,4.2c4.3,0.5,8.5,0.9,12.8,1.3C178.4,454.3,179.1,469.1,178.8,484z M187.7,407.3c6.1,3,12.5,5.5,18.5,8.5c9.3,4.5,18.3,9.5,27.7,13.7c-0.2,0.5-0.2,1.1-0.2,1.7v1c-15.2-0.3-30.3-1.4-45.4-2.8C188,422.1,187.8,414.7,187.7,407.3z M205,487.1c-4.8-0.5-9.6-1-14.4-1.6c0.1-0.7,0.1-1.3,0.1-2.1c0-1.2-0.3-2.2-0.8-3c0.2-13.3-0.4-26.6-1-39.9c14.9,1.4,29.9,2.4,44.9,2.7v13c0,10.2-2,22.3,2.9,31.7c0.4,0.8,0.9,1.4,1.5,1.8C227.1,489.2,216,488.3,205,487.1z M219.8,410.5c-8.6-4.4-17.4-8.4-26.2-12.5c-5.8-2.7-17.1-6.8-15.5-14.8c0.7-3.4,3.5-6.4,6.2-8.4c1.3-1,2.8-1.6,4.3-2.2c0.7-0.2,1.4-0.4,2.1-0.5c2,0.3,4.3-0.3,5.7-2c7.1,5.1,15,9.2,23.6,12.1c13.1,4.5,26.9,6.6,40.7,6.7c-0.4,0.6-0.7,1.2-0.9,1.9c0,0,0,0,0,0c0-0.2,0-0.4,0.1-0.6c-0.1,0.2-0.2,0.5-0.4,0.9c-0.7,1.3-1.5,2.6-2.2,3.8c-2.3,3.8-4.6,7.6-7,11.4c-2.9,4.7-6.2,9.5-8.9,14.4C234.1,417.7,226.9,414.1,219.8,410.5z M279.8,426.8c-5.1,20.3-2.4,41.6-2.1,62.3c-11.6,1-23.1,1.1-34.6,0.8c2.6-1.4,4.5-4.7,2.7-8.1c-1.8-3.4-1.2-9-1.2-12.8c-0.1-4.8,0.2-9.6,0.2-14.3V441c0.9-1.5,1.3-3.3,0.7-5c-0.1-0.3-0.4-1-0.7-1.8v-1.1c1.9-0.1,3.6-1,4.4-2.9c3.2-7.6,8.4-14.6,12.7-21.7c1.1-1.8,3.6-5,5.7-8.5c0.7,1,1.3,2.1,1.9,3.2c2.3,4.7,5.5,8.8,7.6,13.5c1.2,2.5,2.3,5.3,3.7,8C280.3,425.4,280,426,279.8,426.8z M277.7,395.6c-1.3-2.6-3.1-4.8-4.7-7.1c8.4-0.6,16.7-2,24.8-4c14.9-3.7,29.1-10.2,40.7-20.1c0.6,1.3,1.8,2.4,3.6,2.8c2.6,0.6,4.9,1.3,7.2,2.6c1.6,0.9,1.8,1.5,2.1,2.7c-0.1-0.4-0.1,0.8-0.1,0.9c-0.2,1.1-0.4,1.5-0.6,2.1c-0.9,2.1-2.1,3.9-3.5,5.7c-7.2,9.4-17.2,16.7-26.7,23.6c-3.7,2.7-7.5,5.3-11.2,7.9c-5,3.5-9.7,8.3-15.2,10.8c-0.3,0.2-0.7,0.3-1.1,0.3c-0.1-0.1-0.1-0.2-0.2-0.3c-1.1-1.5-1.9-3.2-2.8-4.9c-1.6-3.1-3-6.4-4.6-9.6C283.2,404.4,280,400.2,277.7,395.6z M329.9,429.2c-13.7,2.4-27.9,3.1-40.9,7.8c0.1-1,0.3-1.9,0.5-2.9c1.2,0.4,2.4,0.7,3.9,0.7c7.7,0.2,15.1-8.1,20.9-12.2c4.6-3.3,9.3-6.4,13.8-9.8c0.3-0.2,0.5-0.4,0.8-0.6C329.1,418,329.5,423.6,329.9,429.2z M291.6,487.5c-1,0.1-2,0.2-2.9,0.4c-0.2-13.1-1.4-26.5-0.7-39.6c0.9,0.2,2,0.2,3.1-0.3c8.5-3.4,17.6-4.3,26.6-5.4c4.3-0.6,8.6-1.3,12.9-2.2c0.1,2.6,0.2,5.1,0.2,7.7c0,4.3,0.2,8.6,0.2,12.9c0,3,0.3,8.5-0.7,10.4c-1.6,3.1-0.1,5.8,2.3,7.1C319.2,482.6,305.5,485.6,291.6,487.5z M339.7,404.1c7.6-6.1,14.8-13,19.7-21.2c0.1-0.2,0.2-0.4,0.3-0.6c14.4-0.4,28.6,3.1,42.2,7.8c0,0.2,0.1,0.3,0.1,0.5c0,0.1,0,0.1,0,0.1c0,0.1,0,0.3,0.1,0.5c0.1,0.8,0.2,1.6,0.3,2.4c0.3,2.1,0.4,4.2,0.6,6.3c0.1,1.3,0.2,2.5,0.3,3.8c-9.7,4.4-19.5,8.5-29.4,12.5c-10.8,4.4-22,7.7-33.3,10.6c-0.5-7.5-0.9-15-0.9-22.5C339.7,404.3,339.7,404.2,339.7,404.1z M403.6,431.7c-0.1,2-0.4,3.9-0.7,5.9c0,0.1-0.2,0.9-0.3,1.3c-1.5,1.4-1.9,3.7-1.5,5.6c-9.3,5.8-18.5,11.8-28.2,17.1c-10.5,5.7-21.4,10.4-32.6,14.4c1.6-3.2,1.5-7.3,1.6-10.8c0.2-5.3-0.1-10.6-0.2-15.9c-0.1-3.7-0.2-7.4-0.4-11.2c1.4-0.3,2.8-0.7,4.2-1.1c12.4-3.2,24.3-7.1,36.1-12c7.5-3,14.9-6.2,22.2-9.5c0,0.2,0,0.4,0,0.6C403.9,421.3,403.9,426.5,403.6,431.7z M413.9,394.7c1.4,0.6,2.8,1.2,4.2,1.7c-0.6,0.3-1.2,0.7-1.8,1c-0.7,0.4-1.3,0.7-2,1C414.2,397.2,414.1,396,413.9,394.7z M448.1,414.2c-9.1,9.8-22,15.7-33.5,22.2c0.7-5.8,0.2-12.2,0.2-15.7c0-3.3,0-6.7,0-10.2c4.2-1.9,11.4-4.7,14.9-8.8c2.6,1.2,5.1,2.5,7.7,3.8c3.2,1.7,6.4,3.4,9.5,5.3c0.9,0.6,1.7,1.2,2.5,1.8c0,0,0,0,0,0c0,0.1,0,0.2,0,0.3C449.1,413.3,448.5,413.7,448.1,414.2z"/><path fill="#231F20" d="M229.7 204.9c-7-4.4-16.2-5-24.2-4.8-8.6.2-17.9 2.1-24.3 8.1-5.2 4.8 3.1 12 8.3 7.3.5-.4 1-.8 1.6-1.2.8 2.2 3.1 4 5.7 4.1 6.8.1 13.8 1 20.4-1.3 1.6-.5 2.6-1.6 3.1-2.8 2.1.4 4.1.8 6 1C232.5 215.8 235 208.2 229.7 204.9zM340.7 207.4c-2.3-22.8-33-8.4-45.3-4.8-6.8 2-3.2 12.4 3.6 10.4 1.4-.4 4.5-1.7 8.3-3 .9 1.9 2.7 3.4 5.3 3.3 3.5-.1 7-.7 10.5-.9 4.2.4 8.4 1.3 12.5.9C338.6 213 341 210.4 340.7 207.4zM345 296.1c-.5 0-.8 0-1.6-.1-3.6-.5-7.2-1.5-10.6-2.7-7.6-2.6-14.9-5.8-22.1-9.1-6.6-3-15.8-5.8-24.6-6.3-.3-.3-.6-.7-1-.9.3-.6.5-1.1.6-1.7.4-1.6-.3-4.5.6-5.9 4-5.8-4.2-13.1-8.3-7.3-2.4 3.5-2.5 6.2-3 10.2-.2 2-7.1 2.7-8.6 2.8-6.1.7-16.6.1-18.1-7.3-1.5-6.9-11.8-3.2-10.4 3.6.2 1.1.6 2.1 1 3-.1.3-.2.7-.2 1.1-.1 1.7.1 3.1.4 4.4-6.7 1.7-13.2 5-18.3 8.5-5.6 3.8-10 9.5-15.3 13.8-4.4 3.5-10.1 7.5-15.9 7.3-1.8-.5-3.6-1-5.5-1.4-6-1.2-9.3 7.9-3.5 10.3 2.3 1 4.6 1.6 6.9 1.8 7.7 2.2 15.1 5.5 22.8 7.9 9.8 3 19.7 2.6 29.3-.9 11.3-4.1 22.5-12.5 27.4-23.6 4.3 4.4 7.7 9.5 12 14 6.9 7.4 17.1 11.1 27 12.2 10.1 1.2 21.9-.6 30.8-5.6 6.9-3.8 11.2-10.1 15.2-16.6.4-.5.7-1 1-1.7.3-.7.4-1.4.5-2 1.4-1.5 2.2-3.7 2.1-6.9C355.5 291.1 346.8 291.1 345 296.1zM232.6 318.3c-9 2.8-17.9.5-26.7-2.7 5.1-3.1 9.8-7.2 14-11.1 5-4.7 9.3-8.6 15.6-11.3 5.6-2.4 14.7-5.6 20.1-1.2 1 .8 2.1 1.2 3.2 1.3C257.9 306.2 244 314.7 232.6 318.3zM330.9 315.3c-8.4 4.2-18.8 5-27.9 3.2-7.9-1.6-14-5.5-19-11.6-4-4.9-7.7-10-12.6-14.1.6-.8 1.2-1.4 2-1.9 1.9-.5 3.7-1.1 5.6-1.8 6.4-.8 14.4 1.1 18.6 2.1 6.4 1.6 12.3 4.8 18.3 7.4 4.1 1.7 14.8 6.5 24 8.1C337.6 310.1 334.8 313.4 330.9 315.3z"/><path fill="#231F20" d="M276.1 329.2c-2.6 2.3-6.6 2.4-9.8 2.4-1.6 0-3.3-.4-4.9-.8-.4-.1-.7-.3-1.1-.4-2-3.9-9.2-4.1-10.4 1.4-1.7 7.5 7.5 9.7 13.1 10.5 7.8 1.1 15.5-.6 21.4-5.8C289.6 331.7 281.3 324.5 276.1 329.2zM265.8 431.7c-1.2-1-2.5-1.4-4.1-1.4-1.7 0-3.5.6-4.6 2-.7.8-1.2 1.7-1.4 2.8-.1.7-.1 1.4-.1 2.1 0 1.4.9 2.8 1.9 3.7 1.1 1 2.6 1.5 4.1 1.4 1.4-.1 2.8-.8 3.7-1.9.1-.1.1-.2.2-.3.3-.2.6-.5.8-.7 1-1.1 1.5-2.6 1.4-4.1C267.6 434 266.9 432.6 265.8 431.7zM267.8 454.7c-1.1-1-2.6-1.5-4.1-1.4-1.4.1-2.8.8-3.7 1.9-.1.1-.1.2-.2.3-.3.2-.6.5-.8.7-1 1.1-1.5 2.6-1.4 4.1.1 1.4.8 2.8 1.9 3.7 1.2 1 2.5 1.4 4.1 1.4 1.7 0 3.5-.6 4.6-2 .7-.8 1.2-1.7 1.4-2.8.1-.7.1-1.4.1-2.1C269.7 457 268.8 455.6 267.8 454.7zM268.8 476.7c-1.2-1-2.5-1.4-4.1-1.4h-1c-1.4 0-2.8.9-3.7 1.9-1 1.1-1.5 2.6-1.4 4.1.1 1.4.8 2.8 1.9 3.7 1.2 1 2.5 1.4 4.1 1.4h1c1.4 0 2.8-.9 3.7-1.9 1-1.1 1.5-2.6 1.4-4.1C270.6 479 269.9 477.6 268.8 476.7z"/></svg>