<?xml version="1.0"?><svg xmlns="http://www.w3.org/2000/svg" viewBox="0 0 128 128">    <path d="M 64.037109 14.0625 C 51.299609 14.1 38.549219 15.550781 26.199219 18.300781 C 20.199219 19.700781 16 24.9 16 31 C 16 32.7 17.3 34 19 34 C 20.7 34 22 32.7 22 31 C 22 27.7 24.3 24.899219 27.5 24.199219 C 42.7 20.799219 58.4 19.6 74 20.5 L 74 26 C 74 27.7 72.7 29 71 29 L 57 29 C 55.3 29 54 30.3 54 32 C 54 33.7 55.3 35 57 35 L 64 35 L 77 35 L 96 35 L 109 35 C 110.7 35 112 33.7 112 32 C 112 25.9 109.40078 20.100781 101.80078 18.300781 C 89.500781 15.400781 76.774609 14.025 64.037109 14.0625 z M 28 26 A 3 3 0 0 0 25 29 A 3 3 0 0 0 28 32 A 3 3 0 0 0 31 29 A 3 3 0 0 0 28 26 z M 19 40 C 17.3 40 16 41.3 16 43 L 16 59 C 16 60.7 17.3 62 19 62 C 20.7 62 22 60.7 22 59 L 22 43 C 22 41.3 20.7 40 19 40 z M 109 40 C 107.3 40 106 41.3 106 43 L 106 59 C 106 60.7 107.3 62 109 62 C 110.7 62 112 60.7 112 59 L 112 43 C 112 41.3 110.7 40 109 40 z M 29 64 C 21.8 64 16 69.8 16 77 L 16 95 C 16 96.7 17.3 98 19 98 C 20.7 98 22 96.7 22 95 L 22 77 C 22 73.1 25.1 70 29 70 L 40.400391 70 C 38.000391 72 36.300781 74.899219 35.800781 78.199219 L 32.400391 102 L 16 102 C 14.3 102 13 103.3 13 105 L 13 111 C 13 112.7 14.3 114 16 114 L 22 114 L 22 124 C 22 125.7 23.3 127 25 127 L 34 127 C 35.7 127 37 125.7 37 124 L 37 114 L 91 114 L 91 124 C 91 125.7 92.3 127 94 127 L 103 127 C 104.7 127 106 125.7 106 124 L 106 114 L 112 114 C 113.7 114 115 112.7 115 111 L 115 105 C 115 103.3 113.7 102 112 102 L 112 77 C 112 69.8 106.2 64 99 64 L 77 64 L 64 64 L 29 64 z M 48.599609 73 L 57 73 C 55.3 73 54 74.3 54 76 C 54 77.7 55.3 79 57 79 L 71 79 C 72.7 79 74 80.3 74 82 C 74 83.7 72.7 85 71 85 L 57 85 C 55.3 85 54 86.3 54 88 C 54 89.7 55.3 91 57 91 L 71 91 C 72.7 91 74 92.3 74 94 C 74 95.7 72.7 97 71 97 L 56.5 97 C 55.1 97 54 98.1 54 99.5 C 54 100.9 55.1 102 56.5 102 L 38.5 102 L 41.699219 79 C 42.199219 75.6 45.199609 73 48.599609 73 z M 28 82 A 4 4 0 0 0 24 86 A 4 4 0 0 0 28 90 A 4 4 0 0 0 32 86 A 4 4 0 0 0 28 82 z M 100 82 C 102.2 82 104 83.8 104 86 C 104 88.2 102.2 90 100 90 C 97.8 90 96 88.2 96 86 C 96 83.8 97.8 82 100 82 z"/></svg>