<svg xmlns="http://www.w3.org/2000/svg" viewBox="0 0 80 80"><path d="M 20.498047 6 C 16.643898 6 13.498047 9.1458514 13.498047 13 C 13.498047 16.854149 16.643898 20 20.498047 20 C 24.352195 20 27.498047 16.854149 27.498047 13 C 27.498047 9.1458514 24.352195 6 20.498047 6 z M 20.498047 8 C 23.271315 8 25.498047 10.226732 25.498047 13 C 25.498047 15.773268 23.271315 18 20.498047 18 C 17.724778 18 15.498047 15.773268 15.498047 13 C 15.498047 10.226732 17.724778 8 20.498047 8 z M 13.748047 22.5 C 9.4796318 22.5 5.9980469 25.981585 5.9980469 30.25 L 5.9980469 49 A 1.0001 1.0001 0 0 0 6.0195312 49.21875 C 6.1365596 51.314292 7.8759198 53 9.9980469 53 C 10.728601 53 11.406417 52.786278 11.998047 52.439453 L 11.998047 69.25 C 11.998047 71.861897 14.13615 74 16.748047 74 C 18.276275 74 19.627594 73.255565 20.498047 72.125 C 21.3685 73.255565 22.719819 74 24.248047 74 C 26.859944 74 28.998047 71.861897 28.998047 69.25 L 28.998047 30.5 L 45.998047 30.5 C 48.195381 30.5 49.998047 28.697334 49.998047 26.5 C 49.998047 24.377484 48.311774 22.638488 46.216797 22.521484 A 1.0001 1.0001 0 0 0 45.998047 22.5 L 24.998047 22.5 A 1.0001 1.0001 0 0 0 24.103516 23.052734 L 20.498047 30.263672 L 16.892578 23.052734 A 1.0001 1.0001 0 0 0 15.998047 22.5 L 15.097656 22.5 L 13.748047 22.5 z M 13.748047 24.5 L 15.097656 24.5 L 15.380859 24.5 L 19.603516 32.947266 A 1.0001 1.0001 0 0 0 21.392578 32.947266 L 25.615234 24.5 L 45.998047 24.5 C 47.114713 24.5 47.998047 25.383334 47.998047 26.5 C 47.998047 27.616666 47.114713 28.5 45.998047 28.5 L 27.998047 28.5 A 1.0001 1.0001 0 0 0 26.998047 29.5 L 26.998047 69.25 C 26.998047 70.782103 25.78015 72 24.248047 72 C 22.715944 72 21.498047 70.782103 21.498047 69.25 L 21.498047 53.5 A 1.0001 1.0001 0 0 0 20.482422 52.486328 A 1.0001 1.0001 0 0 0 19.498047 53.5 L 19.498047 69.25 C 19.498047 70.782103 18.28015 72 16.748047 72 C 15.215944 72 13.998047 70.782103 13.998047 69.25 L 13.998047 47.25 A 1.0001 1.0001 0 0 0 12.982422 46.236328 A 1.0001 1.0001 0 0 0 11.998047 47.25 L 11.998047 49 C 11.998047 50.117992 11.115115 51 9.9980469 51 C 8.8809785 51 7.9980469 50.117992 7.9980469 49 L 7.9980469 30.25 C 7.9980469 27.062415 10.560462 24.5 13.748047 24.5 z M 12.998047 34.25 L 12.197266 34.652344 L 12.039062 35.533203 L 12.650391 36.1875 L 12.998047 36.25 L 13.798828 35.847656 L 13.957031 34.966797 L 13.345703 34.3125 L 12.998047 34.25 z M 51.994141 34.5 A 1.0001 1.0001 0 0 0 51.007812 35.353516 C 51.007812 35.353516 50.791371 36.806203 50.583984 38.193359 C 49.388998 38.495386 48.372526 38.956704 47.6875 39.697266 C 46.997411 40.4433 46.697502 41.401462 46.59375 42.398438 C 46.486134 42.469957 46.383513 42.538694 46.236328 42.636719 C 45.81352 42.918309 45.251519 43.292883 44.689453 43.667969 C 43.565322 44.41814 42.443359 45.167969 42.443359 45.167969 A 1.0001 1.0001 0 0 0 42.005859 45.875 C 42.005859 45.875 41.94144 46.523862 42 47.507812 C 42.0029 48.357028 42.437325 49.077794 42.951172 49.466797 C 43.466804 49.85712 43.993317 50 44.498047 50 L 47.998047 50 C 47.998467 51.036469 48 54.071936 48 56 C 48 57.273148 48.254671 59.313137 48.935547 61.185547 C 49.275985 62.121752 49.719795 63.01559 50.365234 63.734375 C 50.797046 64.215291 51.359841 64.603671 52 64.818359 L 52 67.5625 C 51.755943 67.71001 51.526709 67.87314 51.332031 68.060547 C 50.688748 68.679803 50.29926 69.441381 50.039062 70.160156 C 49.51867 71.597707 49.498047 72.976562 49.498047 72.976562 A 1.0001 1.0001 0 0 0 50.498047 74 L 67.072266 74 C 68.139897 74 69.048505 73.606016 69.65625 73.013672 C 70.263995 72.421328 70.584599 71.688609 70.769531 71.013672 C 70.811111 70.861922 70.826109 70.723137 70.855469 70.576172 C 71.368493 70.123012 72.869593 68.660151 73.578125 66.357422 C 74.431982 63.582386 73.84437 59.653837 69.138672 55.732422 A 1.0001 1.0001 0 0 0 68.496094 55.490234 A 1.0001 1.0001 0 0 0 67.857422 57.267578 C 72.151723 60.846163 72.314111 63.667614 71.667969 65.767578 C 71.478596 66.383041 71.201121 66.924821 70.90625 67.396484 C 70.718342 66.036306 70.20307 64.823257 69.513672 63.662109 C 68.642235 62.194356 67.518232 60.756929 66.333984 58.951172 C 63.955632 55.324627 61.912815 51.58814 61.894531 51.554688 C 61.862491 51.481307 58.360666 43.456078 57.470703 39.765625 C 57.293458 39.03114 56.863447 38.4691 56.371094 37.908203 C 55.87874 37.347306 55.298431 36.814434 54.738281 36.339844 C 53.617982 35.390663 52.560547 34.671875 52.560547 34.671875 A 1.0001 1.0001 0 0 0 51.994141 34.5 z M 52.736328 37.324219 C 53.046108 37.560228 53.083867 37.558998 53.445312 37.865234 C 53.958039 38.299644 54.476697 38.783663 54.867188 39.228516 C 55.257677 39.673369 55.494136 40.10486 55.525391 40.234375 C 56.539358 44.439043 60.082031 52.404297 60.082031 52.404297 A 1.0001 1.0001 0 0 0 60.121094 52.478516 C 60.121094 52.478516 62.215082 56.317567 64.662109 60.048828 C 65.895862 61.930071 67.020859 63.379847 67.794922 64.683594 C 68.568985 65.987341 68.998047 67.10156 68.998047 68.5 A 1.0001 1.0001 0 0 0 69.003906 68.601562 C 69.003906 68.601562 69.086476 69.586201 68.839844 70.486328 C 68.716526 70.936391 68.517708 71.328672 68.259766 71.580078 C 68.001785 71.831483 67.696634 72 67.072266 72 L 51.695312 72 C 51.750242 71.579423 51.715562 71.404371 51.919922 70.839844 C 52.112225 70.308619 52.388158 69.820197 52.71875 69.501953 C 53.049342 69.183709 53.400257 69 54 69 L 57 69 A 1.0001 1.0001 0 0 0 57.992188 67.875 C 57.992188 67.875 57.917598 67.111868 58.228516 66.400391 C 58.539431 65.688914 59.044343 65 60.998047 65 A 1.0001 1.0001 0 1 0 60.998047 63 C 58.451751 63 56.957616 64.311086 56.394531 65.599609 C 56.168732 66.116313 56.117484 66.576419 56.070312 67 L 54 67 L 54 64.167969 A 1.0001 1.0001 0 0 0 54 63.841797 L 54 58 A 1.0001 1.0001 0 0 0 52.984375 56.986328 A 1.0001 1.0001 0 0 0 52 58 L 52 62.541016 C 51.951447 62.493735 51.903605 62.454219 51.853516 62.398438 C 51.467705 61.968784 51.099015 61.284498 50.814453 60.501953 C 50.245329 58.936863 50 56.976852 50 56 C 50 53.749407 49.998047 49 49.998047 49 A 1.0001 1.0001 0 0 0 48.998047 48 L 44.498047 48 C 44.488747 48 44.264112 47.95127 44.158203 47.871094 C 44.052341 47.790916 43.998047 47.765023 43.998047 47.5 A 1.0001 1.0001 0 0 0 43.996094 47.433594 C 43.954134 46.811121 43.979907 46.718624 43.992188 46.539062 C 44.310881 46.326198 44.89493 45.935233 45.798828 45.332031 C 46.360637 44.957117 46.923918 44.581691 47.345703 44.300781 C 47.556596 44.160327 47.732825 44.044246 47.855469 43.962891 C 47.916789 43.922211 47.964726 43.889781 47.996094 43.869141 C 48.001294 43.865741 48.001659 43.864128 48.005859 43.861328 A 1.0001 1.0001 0 0 0 48.017578 43.853516 C 48.019578 43.852216 48.024091 43.850409 48.025391 43.849609 L 48.027344 43.847656 A 1.0001 1.0001 0 0 0 48.498047 43 C 48.498047 42.143654 48.707702 41.5396 49.15625 41.054688 C 49.604798 40.569775 50.365506 40.157656 51.642578 39.949219 A 1.0001 1.0001 0 0 0 52.470703 39.111328 C 52.60801 38.197152 52.639694 37.974437 52.736328 37.324219 z M 12.998047 38.25 L 12.197266 38.652344 L 12.039062 39.533203 L 12.650391 40.1875 L 12.998047 40.25 L 13.798828 39.847656 L 13.957031 38.966797 L 13.345703 38.3125 L 12.998047 38.25 z M 12.998047 42.25 L 12.197266 42.652344 L 12.039062 43.533203 L 12.650391 44.1875 L 12.998047 44.25 L 13.798828 43.847656 L 13.957031 42.966797 L 13.345703 42.3125 L 12.998047 42.25 z"/></svg>