<svg xmlns="http://www.w3.org/2000/svg" viewBox="0 0 24 24"><path d="M 20 -0.0625 C 19.851563 -0.0507813 19.695313 -0.0078125 19.59375 0.09375 C 19.292969 0.292969 19.105469 0.605469 18.40625 1.40625 C 17.804688 2.304688 16.605469 4.1875 15.90625 6.1875 C 15.207031 8.1875 14.6875 11.195313 15.1875 14.09375 C 15.585938 17.09375 16.605469 18.992188 16.90625 19.59375 C 17.207031 20.195313 18.101563 21.6875 18.5 22.1875 C 18.898438 22.6875 19.488281 23.394531 19.6875 23.59375 C 19.886719 23.792969 20.304688 23.90625 20.40625 23.90625 C 20.507813 23.90625 20.800781 23.695313 21 23.59375 C 21.199219 23.492188 21.207031 23.511719 21.40625 23.3125 L 23.09375 21.59375 L 24 20.6875 C 24 20.585938 24.085938 20.394531 24.1875 20.09375 C 23.988281 20.09375 24.011719 20.113281 23.8125 19.8125 C 23.511719 19.511719 23.085938 18.90625 22.6875 18.40625 C 22.289063 17.90625 22.113281 17.210938 21.8125 16.8125 C 21.613281 16.414063 21.488281 16.40625 21.1875 16.40625 L 18.40625 16.40625 C 18.105469 15.304688 17.914063 14.199219 17.8125 13 C 17.710938 11.800781 17.804688 10.707031 17.90625 9.90625 C 18.007813 9.007813 18.3125 8.09375 18.3125 8.09375 C 18.3125 8.09375 20.6875 8.101563 21.1875 8 C 21.6875 7.898438 21.792969 7.601563 22.09375 7 C 22.292969 6.199219 22.988281 5.300781 23.1875 5 C 23.386719 4.699219 23.710938 4.386719 23.8125 4.1875 C 24.011719 3.988281 24 3.601563 24 3.5 C 24 3.398438 24.007813 3.414063 23.90625 3.3125 C 23.90625 3.3125 23.105469 2.414063 22.40625 1.8125 L 21 0.40625 C 20.800781 0.207031 20.605469 0.101563 20.40625 0 C 20.304688 -0.0507813 20.148438 -0.0742188 20 -0.0625 Z M 4.78125 0 C 4.710938 0.015625 4.644531 0.0429688 4.59375 0.09375 C 4.292969 0.292969 4.007813 0.605469 3.40625 1.40625 C 2.804688 2.304688 1.605469 4.210938 0.90625 6.3125 C 0.207031 8.3125 -0.3125 11.289063 0.1875 14.1875 C 0.585938 17.1875 1.605469 19.085938 1.90625 19.6875 C 2.207031 20.289063 3.101563 21.8125 3.5 22.3125 C 3.898438 22.8125 4.488281 23.488281 4.6875 23.6875 C 4.886719 23.886719 5.304688 24 5.40625 24 C 5.507813 24 5.800781 23.789063 6 23.6875 C 6.199219 23.585938 6.207031 23.605469 6.40625 23.40625 L 8.09375 21.6875 L 9 20.8125 C 9 20.710938 9.085938 20.488281 9.1875 20.1875 C 8.988281 20.085938 9.011719 20.113281 8.8125 19.8125 C 8.511719 19.511719 8.085938 18.90625 7.6875 18.40625 C 7.289063 17.90625 7.113281 17.210938 6.8125 16.8125 C 6.613281 16.414063 6.488281 16.40625 6.1875 16.40625 L 3.40625 16.40625 C 3.105469 15.304688 2.914063 14.199219 2.8125 13 C 2.710938 11.800781 2.804688 10.707031 2.90625 9.90625 C 3.007813 9.007813 3.3125 8.09375 3.3125 8.09375 C 3.3125 8.09375 5.6875 8.101563 6.1875 8 C 6.6875 7.898438 6.792969 7.601563 7.09375 7 C 7.292969 6.199219 7.988281 5.300781 8.1875 5 C 8.386719 4.699219 8.710938 4.386719 8.8125 4.1875 C 9.011719 3.988281 9 3.601563 9 3.5 C 9 3.398438 9.007813 3.414063 8.90625 3.3125 C 8.90625 3.3125 8.105469 2.414063 7.40625 1.8125 L 6 0.40625 C 5.800781 0.207031 5.605469 0.09375 5.40625 0.09375 C 5.257813 0.0195313 4.988281 -0.0507813 4.78125 0 Z M 9 8.5 L 9 11 L 6 11 L 6 13 L 9 13 L 9 15.5 L 13.5 12 Z"/></svg>