<svg xmlns="http://www.w3.org/2000/svg" viewBox="0 0 64 64"><linearGradient id="5qFlXPpd43iztTdxCO97Va" x1="32" x2="32" y1="6" y2="58.01" gradientUnits="userSpaceOnUse" spreadMethod="reflect"><stop offset="0" stop-color="#6dc7ff"/><stop offset="1" stop-color="#e6abff"/></linearGradient><path fill="url(#5qFlXPpd43iztTdxCO97Va)" d="M32,23c-4.971,0-9,4.029-9,9c0,4.971,4.029,9,9,9s9-4.029,9-9C41,27.029,36.971,23,32,23z M32,36c-2.209,0-4-1.791-4-4c0-2.209,1.791-4,4-4s4,1.791,4,4C36,34.209,34.209,36,32,36z"/><linearGradient id="5qFlXPpd43iztTdxCO97Vb" x1="32" x2="32" y1="6" y2="58.01" gradientUnits="userSpaceOnUse" spreadMethod="reflect"><stop offset="0" stop-color="#6dc7ff"/><stop offset="1" stop-color="#e6abff"/></linearGradient><path fill="url(#5qFlXPpd43iztTdxCO97Vb)" d="M32,7C18.193,7,7,18.193,7,32s11.193,25,25,25s25-11.193,25-25S45.807,7,32,7z M32,51 c-10.493,0-19-8.507-19-19c0-10.493,8.507-19,19-19s19,8.507,19,19C51,42.493,42.493,51,32,51z"/><linearGradient id="5qFlXPpd43iztTdxCO97Vc" x1="32" x2="32" y1="5.667" y2="58.2" gradientUnits="userSpaceOnUse" spreadMethod="reflect"><stop offset="0" stop-color="#1a6dff"/><stop offset="1" stop-color="#c822ff"/></linearGradient><path fill="url(#5qFlXPpd43iztTdxCO97Vc)" d="M32,58C17.663,58,6,46.336,6,32S17.663,6,32,6s26,11.664,26,26S46.337,58,32,58z M32,8 C18.767,8,8,18.767,8,32s10.767,24,24,24s24-10.767,24-24S45.233,8,32,8z"/><linearGradient id="5qFlXPpd43iztTdxCO97Vd" x1="32" x2="32" y1="6" y2="58.01" gradientUnits="userSpaceOnUse" spreadMethod="reflect"><stop offset="0" stop-color="#6dc7ff"/><stop offset="1" stop-color="#e6abff"/></linearGradient><path fill="url(#5qFlXPpd43iztTdxCO97Vd)" d="M32,18c-7.732,0-14,6.268-14,14s6.268,14,14,14s14-6.268,14-14S39.732,18,32,18z M32,41 c-4.971,0-9-4.029-9-9s4.029-9,9-9s9,4.029,9,9S36.971,41,32,41z"/><linearGradient id="5qFlXPpd43iztTdxCO97Ve" x1="32" x2="32" y1="5.667" y2="58.2" gradientUnits="userSpaceOnUse" spreadMethod="reflect"><stop offset="0" stop-color="#1a6dff"/><stop offset="1" stop-color="#c822ff"/></linearGradient><path fill="url(#5qFlXPpd43iztTdxCO97Ve)" d="M32,42c-5.514,0-10-4.486-10-10s4.486-10,10-10s10,4.486,10,10S37.514,42,32,42z M32,24 c-4.411,0-8,3.589-8,8s3.589,8,8,8s8-3.589,8-8S36.411,24,32,24z"/><linearGradient id="5qFlXPpd43iztTdxCO97Vf" x1="32" x2="32" y1="5.667" y2="58.2" gradientUnits="userSpaceOnUse" spreadMethod="reflect"><stop offset="0" stop-color="#1a6dff"/><stop offset="1" stop-color="#c822ff"/></linearGradient><path fill="url(#5qFlXPpd43iztTdxCO97Vf)" d="M32,52c-11.028,0-20-8.972-20-20s8.972-20,20-20s20,8.972,20,20S43.028,52,32,52z M32,14 c-9.925,0-18,8.075-18,18s8.075,18,18,18s18-8.075,18-18S41.925,14,32,14z"/></svg>