<svg xmlns="http://www.w3.org/2000/svg" viewBox="0 0 80 80"><path d="M 40 5.5 C 23.719445 5.5 10.5 18.719445 10.5 35 C 10.5 44.860513 15.355298 53.591404 22.796875 58.949219 L 13.671875 72.439453 A 1.0001 1.0001 0 0 0 14.5 74 L 65.699219 74 A 1.0001 1.0001 0 1 0 65.699219 72 L 16.382812 72 L 24.455078 60.064453 C 28.97081 62.873136 34.295794 64.5 40 64.5 C 56.280555 64.5 69.5 51.280555 69.5 35 C 69.5 18.719445 56.280555 5.5 40 5.5 z M 40 7.5 C 55.199675 7.5 67.5 19.800325 67.5 35 C 67.5 41.465871 65.269091 47.402859 61.541016 52.095703 A 1.0001 1.0001 0 0 0 60.728516 51.802734 C 58.818014 51.941303 57.377634 51.573962 56.417969 51.185547 C 56.068579 51.044135 55.814499 50.913067 55.603516 50.794922 C 59.30452 47.396991 62 42.289884 62 35 A 1.0001 1.0001 0 0 0 61 34 C 58.267 34 53.836044 33.90754 50.708984 35.671875 C 50.43756 35.825234 50.350316 35.828537 50.373047 35.828125 C 50.395777 35.827713 50.374042 35.848845 50.140625 35.699219 L 50.140625 35.701172 C 49.447929 35.256373 48.640937 34.638266 47.669922 34.265625 C 46.698907 33.892984 45.382492 33.879824 44.359375 34.732422 C 43.700796 35.281237 43.447197 36.096344 43.419922 36.880859 C 43.392642 37.665375 43.572459 38.478082 43.902344 39.267578 C 44.132314 39.817955 44.534554 40.316231 44.914062 40.818359 C 43.191266 40.60068 41.583433 40.021145 39.636719 39.267578 C 39.354863 39.158473 39.039467 39.051967 38.742188 38.943359 L 40.828125 35.859375 A 1.0001 1.0001 0 0 0 39.988281 34.289062 A 1.0001 1.0001 0 0 0 39.171875 34.740234 L 36.773438 38.287109 C 34.999322 37.779387 32.931568 37.400391 30.400391 37.400391 C 28.027765 37.400391 25.848793 37.89412 24.146484 39.003906 A 1.0001 1.0001 0 0 0 23.804688 39.019531 C 22.264928 39.327483 21.448806 38.771898 20.828125 38.101562 C 20.207444 37.431227 19.949219 36.683594 19.949219 36.683594 A 1.0001 1.0001 0 0 0 18.958984 35.986328 A 1.0001 1.0001 0 0 0 18.050781 37.316406 C 18.050781 37.316406 18.417556 38.443773 19.359375 39.460938 C 19.980594 40.131853 20.929757 40.763518 22.134766 40.994141 C 21.41536 42.102286 21 43.455605 21 45 C 21 46.550026 21.393762 47.964259 22.060547 49.238281 C 21.856232 49.328444 21.619291 49.423467 21.320312 49.523438 C 20.341409 49.850756 18.875545 50.133773 16.96875 50.017578 C 14.147546 45.701101 12.5 40.547523 12.5 35 C 12.5 19.800325 24.800325 7.5 40 7.5 z M 39.972656 11.001953 L 39.171875 11.402344 L 39.013672 12.285156 L 39.625 12.939453 L 39.972656 13.001953 L 40.773438 12.599609 L 40.931641 11.716797 L 40.318359 11.0625 L 39.972656 11.001953 z M 43.960938 11.267578 L 43.160156 11.669922 L 43.001953 12.550781 L 43.613281 13.205078 L 43.960938 13.267578 L 44.761719 12.867188 L 44.919922 11.984375 L 44.306641 11.330078 L 43.960938 11.267578 z M 35.988281 11.318359 L 35.1875 11.71875 L 35.029297 12.601562 L 35.640625 13.255859 L 35.988281 13.318359 L 36.789062 12.916016 L 36.947266 12.033203 L 36.335938 11.378906 L 35.988281 11.318359 z M 47.867188 12.099609 L 47.064453 12.501953 L 46.908203 13.382812 L 47.519531 14.037109 L 47.867188 14.099609 L 48.667969 13.699219 L 48.826172 12.816406 L 48.212891 12.162109 L 47.867188 12.099609 z M 32.107422 12.263672 L 31.306641 12.664062 L 31.148438 13.546875 L 31.761719 14.201172 L 32.107422 14.263672 L 32.910156 13.861328 L 33.066406 12.980469 L 32.455078 12.326172 L 32.107422 12.263672 z M 51.564453 13.601562 L 50.763672 14.003906 L 50.605469 14.884766 L 51.216797 15.539062 L 51.564453 15.601562 L 52.365234 15.199219 L 52.523438 14.318359 L 51.912109 13.664062 L 51.564453 13.601562 z M 28.455078 13.873047 L 27.654297 14.273438 L 27.496094 15.15625 L 28.107422 15.810547 L 28.455078 15.873047 L 29.255859 15.470703 L 29.414062 14.589844 L 28.800781 13.935547 L 28.455078 13.873047 z M 54.892578 15.806641 L 54.089844 16.207031 L 53.933594 17.089844 L 54.544922 17.744141 L 54.892578 17.806641 L 55.693359 17.404297 L 55.851562 16.521484 L 55.238281 15.867188 L 54.892578 15.806641 z M 25.160156 16.128906 L 24.359375 16.529297 L 24.201172 17.412109 L 24.8125 18.066406 L 25.160156 18.128906 L 25.960938 17.726562 L 26.119141 16.84375 L 25.507812 16.189453 L 25.160156 16.128906 z M 57.691406 18.652344 L 56.890625 19.052734 L 56.732422 19.935547 L 57.34375 20.589844 L 57.691406 20.652344 L 58.492188 20.25 L 58.650391 19.369141 L 58.039062 18.712891 L 57.691406 18.652344 z M 22.341797 18.957031 L 21.541016 19.359375 L 21.382812 20.240234 L 21.994141 20.894531 L 22.341797 20.957031 L 23.142578 20.556641 L 23.300781 19.673828 L 22.689453 19.019531 L 22.341797 18.957031 z M 59.876953 21.994141 L 59.076172 22.396484 L 58.917969 23.277344 L 59.529297 23.931641 L 59.876953 23.994141 L 60.677734 23.59375 L 60.835938 22.710938 L 60.224609 22.056641 L 59.876953 21.994141 z M 20.083984 22.251953 L 19.283203 22.654297 L 19.125 23.535156 L 19.736328 24.189453 L 20.083984 24.251953 L 20.884766 23.851562 L 21.042969 22.96875 L 20.429688 22.314453 L 20.083984 22.251953 z M 61.478516 25.654297 L 60.677734 26.054688 L 60.519531 26.9375 L 61.130859 27.591797 L 61.478516 27.654297 L 62.279297 27.251953 L 62.4375 26.371094 L 61.826172 25.716797 L 61.478516 25.654297 z M 18.429688 25.890625 L 17.628906 26.291016 L 17.470703 27.173828 L 18.083984 27.828125 L 18.429688 27.890625 L 19.230469 27.488281 L 19.388672 26.607422 L 18.777344 25.953125 L 18.429688 25.890625 z M 17.392578 29.75 L 16.591797 30.152344 L 16.433594 31.033203 L 17.044922 31.6875 L 17.392578 31.75 L 18.193359 31.347656 L 18.351562 30.466797 L 17.738281 29.8125 L 17.392578 29.75 z M 46.255859 35.966797 C 46.451321 35.954397 46.659508 36.020137 46.953125 36.132812 C 47.54036 36.358173 48.286243 36.885613 49.060547 37.382812 A 1.0001 1.0001 0 0 0 49.060547 37.384766 C 49.45113 37.635139 49.904926 37.837287 50.410156 37.828125 C 50.915387 37.818925 51.316831 37.62375 51.691406 37.412109 C 53.758313 36.245929 57.199249 36.081546 59.882812 36.048828 C 59.57225 43.632691 56.256841 48.270812 51.992188 51.089844 C 47.517636 54.047622 42.02086 55 38.400391 55 C 35.225722 55 31.924428 54.298526 29.214844 53.027344 L 37.587891 40.650391 C 38.03767 40.807965 38.48581 40.967037 38.914062 41.132812 C 41.20679 42.02032 43.320391 43 46 43 L 48 43 A 1.0001 1.0001 0 0 0 48.291016 41.042969 C 47.190804 40.709492 46.221778 39.629851 45.748047 38.496094 C 45.511181 37.929215 45.403681 37.362125 45.417969 36.951172 C 45.432259 36.540219 45.549204 36.343763 45.640625 36.267578 C 45.879066 36.068877 46.060398 35.979194 46.255859 35.966797 z M 53 38 A 2 2 0 0 0 51 40 A 2 2 0 0 0 53 42 A 2 2 0 0 0 55 40 A 2 2 0 0 0 53 38 z M 30.400391 39.400391 C 32.440754 39.400391 34.110535 39.659772 35.587891 40.037109 L 27.455078 52.0625 C 24.722349 50.324185 23 47.978559 23 45 C 23 43.02163 23.734701 41.743508 25.009766 40.824219 C 26.28483 39.90493 28.181788 39.400391 30.400391 39.400391 z M 23.169922 50.914062 C 24.036636 51.99253 25.114922 52.930771 26.335938 53.716797 L 23.910156 57.302734 C 21.842992 55.809534 19.9976 54.031079 18.417969 52.033203 C 19.863848 51.972042 21.062256 51.718457 21.955078 51.419922 C 22.453145 51.253382 22.844217 51.075984 23.169922 50.914062 z M 53.992188 52.130859 C 54.239156 52.313844 54.748722 52.667008 55.667969 53.039062 C 56.717033 53.463661 58.19336 53.846607 60.039062 53.830078 C 58.453887 55.516523 56.660102 57.002303 54.695312 58.246094 A 1.0004695 1.0004695 0 0 0 54.638672 58.228516 C 51.51961 57.464508 49.999509 55.750647 49.347656 54.761719 C 50.622006 54.217255 51.884329 53.55922 53.09375 52.759766 C 53.397238 52.559153 53.696635 52.349727 53.992188 52.130859 z M 28.078125 54.708984 C 31.156151 56.222135 34.83225 57 38.400391 57 C 40.911343 57 44.162832 56.59968 47.462891 55.480469 C 48.100909 56.499852 49.609983 58.398102 52.371094 59.564453 C 48.652526 61.439087 44.452444 62.5 40 62.5 C 34.705176 62.5 29.764076 61.003871 25.570312 58.416016 L 28.078125 54.708984 z"/></svg>