<svg xmlns="http://www.w3.org/2000/svg" viewBox="0 0 100 100"><path fill="#c0e5e4" d="M49.06 12.469999999999999A37.25 37.25 0 1 0 49.06 86.97A37.25 37.25 0 1 0 49.06 12.469999999999999Z"/><path fill="#e5ac80" d="M61.94,84.69c-0.2-4.34-0.52-11.58-0.52-11.58c-0.4-2.13-1.27-3.38-3.32-4 c-0.116-0.037-0.229-0.08-0.34-0.13l-0.59-0.23c-1.24-0.53-8.62-3.25-8.62-3.25c-0.556-0.153-1.012-0.551-1.24-1.08 c-0.241-0.947-0.318-1.927-0.23-2.9c-1.639,0.566-3.308,1.04-5,1.42c-1.89,0.18-6-2.26-6-2.26s-0.09,3-0.22,3.69 c-0.191,0.58-0.68,1.012-1.28,1.13l-7.09,2.57c-0.77,0.192-1.508,0.495-2.19,0.9c-1.508,0.962-2.625,2.43-3.15,4.14 c0,0-0.16,1.12-0.29,2.08c10.238,10.91,26.003,14.65,40.05,9.5L61.94,84.69z"/><path fill="#fff" d="M19.84 55.449999999999996A.88.88 0 1 0 19.84 57.21.88.88 0 1 0 19.84 55.449999999999996zM78.58 30.91A.68.68 0 1 0 78.58 32.27.68.68 0 1 0 78.58 30.91z"/><path fill="#f1bc19" d="M75.97 11.78A.88.88 0 1 0 75.97 13.540000000000001.88.88 0 1 0 75.97 11.78zM20.33 63.089999999999996A.88.88 0 1 0 20.33 64.85.88.88 0 1 0 20.33 63.089999999999996zM81.38 10.81A3.99 3.99 0 1 0 81.38 18.79 3.99 3.99 0 1 0 81.38 10.81z"/><path fill="#00a5a5" d="M85.37 21.95A1.87 1.87 0 1 0 85.37 25.69A1.87 1.87 0 1 0 85.37 21.95Z"/><path fill="#fbcd59" d="M76.43 74.1A1.87 1.87 0 1 0 76.43 77.84 1.87 1.87 0 1 0 76.43 74.1zM13.59 59.1A3.99 3.99 0 1 0 13.59 67.08 3.99 3.99 0 1 0 13.59 59.1z"/><path fill="#00a5a5" d="M23.78 85.22999999999999A1.87 1.87 0 1 0 23.78 88.97A1.87 1.87 0 1 0 23.78 85.22999999999999Z"/><path fill="#fff" d="M75.09 28.3A1.79 1.79 0 1 0 75.09 31.88 1.79 1.79 0 1 0 75.09 28.3zM17.31 48.51A2.53 2.53 0 1 0 17.31 53.57 2.53 2.53 0 1 0 17.31 48.51z"/><path fill="#cbc9bc" d="M54.57,86.87c-0.166,0-0.3-0.134-0.3-0.3V82.5c0-0.166,0.134-0.3,0.3-0.3s0.3,0.134,0.3,0.3v4.07 C54.87,86.736,54.736,86.87,54.57,86.87z"/><path fill="#edbc94" d="M53.76,46.85H53.4c-1-0.05-1.23,0.33-1.19-0.26c0.08-1-0.07-5.33-0.07-5.55 c0-4.43-4.63-8.05-10.41-8.25H41.5C35.71,33,31.09,36.6,31.09,41c0,0.22-0.15,4.5-0.07,5.55c0,0.59-0.23,0.21-1.19,0.26h-0.36 c-0.964,0.014-1.808,0.649-2.09,1.57c0.13,0.07,0.61,3.71,1.39,5.14c0.43,0.8,1.11,0.91,1.8,1.43c0.315,0.245,0.519,0.604,0.57,1 c0.479,1.606,1.401,3.044,2.66,4.15c0.58,0.56,5.1,4.29,7.81,4.5c3.36-0.13,7.24-3.94,7.82-4.5c1.251-1.092,2.173-2.512,2.66-4.1 c0.051-0.396,0.255-0.755,0.57-1c0.69-0.52,1.37-0.63,1.8-1.43c0.78-1.43,1.26-5.07,1.39-5.14 C55.572,47.505,54.726,46.866,53.76,46.85z"/><path fill="#512c2b" d="M41.68 53.74c.665.015 1.305-.254 1.76-.74.042-.049.042-.121 0-.17l0 0c-.042-.044-.111-.046-.155-.005-.002.001-.003.003-.005.005-.896.825-2.274.825-3.17 0-.029-.013-.061-.013-.09 0-.023-.008-.047-.008-.07 0-.042.049-.042.121 0 .17C40.398 53.477 41.025 53.745 41.68 53.74zM39.51 44.57l.43-.83c-1.867-.427-3.813-.365-5.65.18l.54.8C36.347 44.245 37.965 44.193 39.51 44.57zM48.63 44.57l.43-.83c-1.867-.427-3.813-.365-5.65.18l.54.8C45.467 44.245 47.085 44.193 48.63 44.57zM36.89 45.74c-.441.037-.825.314-1 .72.056-.01.114-.01.17 0 .38.021.672.347.65.728 0 .001 0 .002 0 .002.017.377-.273.698-.65.72-.113 0-.224-.031-.32-.09.094.607.588 1.073 1.2 1.13.878-.222 1.41-1.114 1.188-1.992-.148-.584-.604-1.04-1.188-1.188L36.89 45.74zM46.41 45.74c-.381.013-.73.216-.93.54.069-.032.144-.049.22-.05.38.021.672.347.65.728 0 .001 0 .002 0 .002.017.377-.273.698-.65.72-.218-.004-.419-.122-.53-.31-.071.766.477 1.451 1.24 1.55.878-.222 1.41-1.114 1.188-1.992C47.45 46.344 46.994 45.888 46.41 45.74zM46.94 55.59c.047-.047.047-.123 0-.17 0 0 0 0 0 0l0 0c-.047-.047-.123-.047-.17 0 0 0 0 0 0 0-1.509 1.002-3.301 1.493-5.11 1.4-1.813.094-3.607-.397-5.12-1.4-.023-.008-.047-.008-.07 0-.033-.009-.067-.009-.1 0-.047.047-.047.123 0 .17 0 0 0 0 0 0 3.161 2.213 7.369 2.213 10.53 0H46.94z"/><path fill="#d3a47d" d="M53.828 51.582l-.596-.064.193-1.778-1.007.435-.238-.55 1.48-.64c.099-.043.213-.029.297.034.086.063.132.167.12.274L53.828 51.582zM29.732 51.234l-.26-2.28c-.012-.106.033-.211.119-.275.087-.063.201-.077.298-.034l1.48.64-.238.551-1.004-.435.201 1.765L29.732 51.234z"/><path fill="#472b29" d="M31.06 55.66c-.001 0-.002 0-.004 0-.11-.002-.198-.094-.196-.204l.17-8.61c.002-.109.091-.196.2-.196.001 0 .002 0 .004 0 .11.002.198.094.196.204l-.17 8.61C31.258 55.573 31.169 55.66 31.06 55.66zM52.33 55.66c-.108 0-.198-.087-.2-.196l-.16-8.61c-.002-.111.086-.202.196-.204.001 0 .003 0 .004 0 .108 0 .198.087.2.196l.16 8.61c.002.11-.086.202-.196.204C52.333 55.66 52.331 55.66 52.33 55.66zM41.75 64.724c-2.119 0-5.674-2.41-5.831-2.518-.114-.077-.143-.233-.065-.347.079-.114.234-.145.348-.065.039.026 3.896 2.642 5.77 2.418 1.918-.221 4.959-2.249 4.99-2.27.113-.075.269-.047.347.068.077.115.046.271-.068.348-.128.086-3.174 2.116-5.211 2.35C41.939 64.719 41.846 64.724 41.75 64.724z"/><path fill="#83ccb7" d="M34.2,83.74c2.732,1.249,5.612,2.146,8.57,2.67c2.07,0.29,4.15,0.53,6.22,0.84 c0.093-0.14,0.243-0.231,0.41-0.25c1.34-0.14,2.66,0,4,0s2.89-0.45,4.33-0.63h0.08c1.479-0.533,2.928-1.147,4.34-1.84 c-0.2-4.22-0.56-11.15-0.56-11.15c-0.4-2.14-1.28-3.4-3.34-4c-0.116-0.037-0.229-0.08-0.34-0.13L57.32,69 c-0.68-0.29-3.16-1.22-5.3-2c-3.2,1.55-6.62,6-10.17,6s-7.09-4.64-10.34-6.1l0.78-0.26l0,0l-0.31,0.08l-4.43,1.61 c-0.777,0.193-1.522,0.5-2.21,0.91c-1.515,0.969-2.638,2.442-3.17,4.16c0,0-0.15,1.08-0.27,2C24.58,79.5,29.83,81.91,34.2,83.74z"/><path fill="#00a5a5" d="M50.6,66.58c-2.72,0.74-5.64,4.85-8.68,4.85s-6-4.11-8.69-4.85l-1.66,0.55 c3.25,1.46,6.73,6.1,10.35,6.1s7.09-4.64,10.34-6.1L50.6,66.58z"/><path fill="#472b29" d="M49.062,87.384c-10.282,0-20.312-4.217-27.596-12.052c-0.088-0.095-0.125-0.226-0.099-0.353 c0.104-0.51,0.236-1.121,0.428-1.79c0.374-1.894,1.6-3.505,3.355-4.387c0.69-0.414,1.462-0.735,2.271-0.94l7.052-2.559 c0.517-0.104,0.891-0.431,1.037-0.87c0.049-0.276,0.134-1.205,0.147-2.034c-0.729-0.507-1.44-1.053-2.116-1.624 c-1.313-1.155-2.274-2.644-2.784-4.309c-0.047-0.379-0.202-0.664-0.44-0.856c-0.197-0.148-0.406-0.266-0.605-0.379 c-0.467-0.265-0.95-0.539-1.295-1.182c-0.792-1.708-1.272-3.503-1.437-5.354c-0.004-0.05,0-0.101,0.015-0.149 c0.326-1.103,1.317-1.857,2.467-1.877h0.367c0.336-0.018,0.596,0.017,0.784,0.046c-0.053-0.959,0.027-3.772,0.062-4.998 c0.008-0.287,0.014-0.477,0.014-0.519c0-4.687,4.742-8.53,10.795-8.75h0.245c6.068,0.22,10.81,4.063,10.81,8.75 c0,0.042,0.005,0.231,0.014,0.52c0.035,1.221,0.115,4.021,0.062,5.015c0.191-0.029,0.448-0.064,0.785-0.064h0.359 c1.157,0.02,2.148,0.774,2.474,1.877c0.014,0.047,0.019,0.097,0.015,0.147c-0.155,1.854-0.636,3.65-1.426,5.336 c-0.354,0.661-0.838,0.936-1.305,1.201c-0.199,0.113-0.408,0.23-0.617,0.388c-0.227,0.184-0.381,0.469-0.413,0.772 c-0.525,1.74-1.485,3.228-2.793,4.378c-0.713,0.624-1.471,1.218-2.255,1.768c-0.023,0.663,0.062,1.32,0.253,1.958 c0.161,0.37,0.524,0.685,0.958,0.798c0.339,0.123,7.441,2.752,8.676,3.279l0.578,0.225c0.106,0.045,0.205,0.08,0.305,0.108 c2.077,0.618,3.153,1.907,3.604,4.312c0.006,0.056,0.326,7.135,0.526,11.455c0.008,0.175-0.098,0.334-0.262,0.395 C57.822,86.626,53.419,87.384,49.062,87.384z M22.193,74.938c10.087,10.732,25.473,14.437,39.334,9.478 c-0.201-4.34-0.507-11.106-0.507-11.106c-0.391-2.067-1.243-3.102-3.035-3.635c-0.127-0.037-0.255-0.082-0.381-0.135l-0.58-0.226 c-1.229-0.525-8.54-3.231-8.613-3.259c-0.634-0.164-1.197-0.649-1.469-1.287c-0.253-0.832-0.346-1.65-0.291-2.474 c0.008-0.122,0.071-0.233,0.172-0.303c0.817-0.563,1.605-1.177,2.344-1.822c1.195-1.052,2.074-2.414,2.54-3.937 c0.039-0.438,0.3-0.919,0.701-1.243c0.25-0.188,0.486-0.324,0.714-0.453c0.419-0.238,0.75-0.426,0.985-0.865 c0.729-1.558,1.183-3.234,1.337-4.966c-0.246-0.728-0.917-1.221-1.691-1.235H53.4c-0.312,0-0.542,0.037-0.709,0.062 c-0.259,0.042-0.5,0.078-0.701-0.107c-0.209-0.191-0.189-0.484-0.18-0.642c0.063-0.846-0.023-3.894-0.057-5.041 c-0.009-0.301-0.015-0.499-0.015-0.542c0-4.254-4.403-7.746-10.024-7.95H41.5c-5.607,0.204-10.01,3.696-10.01,7.95 c0,0.043-0.005,0.242-0.014,0.542c-0.033,1.147-0.12,4.195-0.057,5.039c0.001,0.254-0.024,0.484-0.209,0.641 c-0.2,0.17-0.431,0.132-0.653,0.096c-0.176-0.029-0.393-0.066-0.706-0.048l-0.38,0c-0.768,0.014-1.438,0.506-1.685,1.234 c0.163,1.731,0.616,3.409,1.347,4.988c0.226,0.418,0.557,0.605,0.976,0.844c0.227,0.129,0.464,0.265,0.702,0.444 c0.412,0.333,0.673,0.814,0.728,1.327c0.451,1.448,1.33,2.81,2.526,3.861c0.704,0.595,1.454,1.166,2.222,1.691 c0.109,0.074,0.174,0.198,0.174,0.33c0,0.935-0.103,2.053-0.177,2.443c-0.251,0.768-0.859,1.299-1.599,1.438l-7.028,2.554 c-0.771,0.197-1.472,0.489-2.121,0.877c-1.559,0.785-2.63,2.191-2.963,3.875C22.406,73.963,22.288,74.486,22.193,74.938z"/><path fill="#512c2b" d="M43.83 62.48c-1.046-.278-1.879-1.069-2.21-2.1-.331 1.031-1.164 1.822-2.21 2.1-2.81.51-5.59-1.9-7.63-4.4.258.852.694 1.639 1.28 2.31 1.998 1.962 4.314 3.571 6.85 4.76.559.138 1.135.196 1.71.17.575.026 1.151-.032 1.71-.17 2.536-1.189 4.852-2.798 6.85-4.76.586-.671 1.022-1.458 1.28-2.31C49.42 60.58 46.64 63 43.83 62.48zM30.82 44.53c-.62 1.48 1.59-.24 2-.91s.21-1 1-2.18c.47.11 1.5.26 1.63-.35s-.61-.84-.42-1.48c.33-1.07 3.12-2.27 4-1.54.2.17.51.81.27 1.13s-.78 0-1.1 0c-.93.15-2.85 1.34-.6 2.42-1-2 1.83.13 3.61-.35 1.3-.253 2.248-1.376 2.28-2.7.197.203.441.354.71.44.87.27 3.48-.46 3.78.81.21.85-1.08 1.11.27 1.58.24.08 1.23-.08 1.35.19s-.47.72-.5 1.11c-.09 1.07 1.84 1.36 2.3.54.18-.31-.07-1.11-.08-1.44 0-.14 0-.27 0-.4.585 1.031.969 2.165 1.13 3.34.37-1.32 1.69-8.13 1.51-8.62-.51-1.36-.51-.91-1.16-1.3-.92-.55-.44-1.2-1.07-1.85-.87-.89-3.87.2-4.35-.63-.24-.43.5-.78-.07-1.22-.29-.23-1.2 0-1.59-.08-1-.3-.5-.52-.85-1.26-.24-.505-.741-.836-1.3-.86-.928-.171-1.887-.023-2.72.42-.61.32-1.05 1.05-1.67 1.22s-1.43-.38-2.13-.42c-.77-.08-1.548.037-2.26.34-1 .65-1 1.93-2.22 2.47-1.68.73-3.51 1.47-3.34 3.43.14 1.56 1.3 7.57 1.61 9.1"/><path fill="#00a5a5" d="M51.22,46.51h-0.16h-0.2h-1.12c-0.65,0-1.32-0.05-2-0.05c-0.987-0.01-1.974,0.06-2.95,0.21H44.5 c-0.761,0.09-1.507,0.278-2.22,0.56c-0.498,0.228-1.066,0.25-1.58,0.06l-0.18-0.08c-0.2-0.089-0.407-0.16-0.62-0.21l-0.49-0.09 c-0.83-0.16-1.69-0.32-2.55-0.42c-0.61-0.06-1.23-0.07-1.82-0.08H34.3h-0.78l-1.83,0.08c-0.44,0-1.06,0.08-1.26,0.33 c-0.058,0.062-0.087,0.145-0.08,0.23c0,0.253,0.04,0.503,0.12,0.75c0.05,0.26,0.1,0.54,0.13,0.8s0.34,0.38,0.79,0.59l0.32,0.16 c0.082,0.074,0.15,0.162,0.2,0.26l0,0l0.19,0.33c0.11,0.19,0.23,0.38,0.35,0.55c0.13,0.22,0.321,0.397,0.55,0.51 c0.193,0.106,0.403,0.181,0.62,0.22c1.564,0.328,3.166,0.439,4.76,0.33c0.862,0.004,1.62-0.569,1.85-1.4 c0.08-0.24,0.18-0.48,0.27-0.71s0.1-0.27,0.16-0.41c0.049-0.206,0.239-0.345,0.45-0.33h0.56c0.42,0,0.47,0,0.64,0.47l0.09,0.21 c0.16,0.41,0.33,0.84,0.52,1.25c0.185,0.414,0.556,0.715,1,0.81c0.21,0.054,0.424,0.09,0.64,0.11c0.37,0,0.76,0,1.14,0 c1.079-0.006,2.156-0.1,3.22-0.28c0.785-0.054,1.473-0.545,1.78-1.27c0.115-0.244,0.274-0.465,0.47-0.65 c0.133-0.078,0.274-0.141,0.42-0.19c0.38-0.15,0.64-0.26,0.7-0.4h0.07c0.066,0,0.12-0.054,0.12-0.12c0-0.153,0.02-0.313,0.06-0.48 c0-0.38,0.08-0.77,0.1-1.11S51.93,46.58,51.22,46.51z M45.43,47.17c0.39,0,0.78-0.08,1.18-0.1h0.47h0.85c0.18,0,0.35,0,0.52,0 c0.46,0,0.93,0.07,1.4,0.14s0.61,0.28,0.59,0.79c-0.012,0.689-0.161,1.369-0.44,2c-0.096,0.167-0.239,0.302-0.41,0.39 c-0.604,0.303-1.265,0.473-1.94,0.5c-0.83,0-1.69,0-2.51,0.06H44.7c-0.554,0.013-1.061-0.306-1.29-0.81 c-0.352-0.607-0.528-1.299-0.51-2c-0.011-0.231,0.145-0.437,0.37-0.49c0.579-0.228,1.189-0.366,1.81-0.41L45.43,47.17z M40,48.39 c-0.044,0.756-0.308,1.482-0.76,2.09c-0.221,0.29-0.565,0.46-0.93,0.46c-0.51,0-1,0.06-1.43,0.06l0,0 c-0.97,0.015-1.938-0.096-2.88-0.33c-0.291-0.079-0.573-0.189-0.84-0.33c-0.147-0.083-0.265-0.209-0.34-0.36 c-0.272-0.633-0.421-1.311-0.44-2c0-0.53,0.14-0.71,0.61-0.77s1.05-0.11,1.57-0.14l0.67-0.06c1.325,0.004,2.645,0.169,3.93,0.49 l0.26,0.08C39.89,47.74,40,47.89,40,48.39z"/><path fill="#fdfcef" d="M59.23,48.72c0-5.76,6.22-10.43,13.9-10.43S87,43,87,48.72s-6.2,10.42-13.87,10.42h-1.74 c-1.984,1.82-4.474,2.995-7.14,3.37c-0.423,0.048-0.804-0.255-0.852-0.678c-0.016-0.137,0.006-0.276,0.062-0.402 c0.634-1.442,0.974-2.995,1-4.57l0,0c-3.3-2-5.22-5-5.21-8.14"/><path fill="#472b29" d="M64.162,63.014c-0.291,0-0.564-0.095-0.79-0.274c-0.265-0.211-0.433-0.513-0.472-0.85 c-0.025-0.228,0.01-0.457,0.104-0.665c0.57-1.298,0.89-2.674,0.948-4.091c-3.272-2.072-5.156-5.066-5.201-8.272 c-0.014-0.045-0.021-0.092-0.021-0.142c0-6.027,6.46-10.93,14.399-10.93c7.924,0,14.37,4.903,14.37,10.93 c0,6.021-6.446,10.919-14.37,10.919h-1.548c-2.042,1.821-4.549,2.983-7.263,3.365C64.267,63.011,64.214,63.014,64.162,63.014z M59.731,48.585c0.013,0.043,0.019,0.089,0.019,0.136c-0.009,2.98,1.802,5.791,4.969,7.711c0.152,0.093,0.244,0.259,0.241,0.437 c-0.027,1.649-0.378,3.252-1.042,4.762c-0.021,0.048-0.029,0.097-0.023,0.145c0.018,0.147,0.156,0.267,0.298,0.237 c2.565-0.36,4.941-1.482,6.859-3.241c0.092-0.085,0.213-0.132,0.338-0.132h1.74c7.372,0,13.37-4.45,13.37-9.919 c0-5.476-5.998-9.93-13.37-9.93C65.802,38.79,59.829,43.172,59.731,48.585z"/><path fill="#bd977c" d="M65.55 48.49H79.94V48.99H65.55z"/><path fill="#472b29" d="M80.091,49.14H65.399v-0.8h14.691V49.14z M65.7,48.84h14.09v-0.2H65.7V48.84z"/><path fill="#bd977c" d="M71.78,42.33c0.11,0,0.19-0.08,0.21-0.2l0,0c0.032-0.421,0.388-0.742,0.81-0.73 c0.424,0.077,0.705,0.483,0.629,0.907c-0.044,0.246-0.204,0.455-0.429,0.563c-0.297,0.073-0.494,0.356-0.46,0.66v0.34H73 c-0.019-0.113-0.019-0.227,0-0.34c0-0.17,0-0.23,0.2-0.29c0.619-0.185,0.97-0.836,0.785-1.455C73.8,41.166,73.149,40.815,72.53,41 l0,0c-0.535,0.108-0.922,0.574-0.93,1.12c-0.011,0.104,0.064,0.198,0.169,0.209C71.772,42.33,71.776,42.33,71.78,42.33z"/><path fill="#472b29" d="M73.119,43.97H72.44v-0.44c-0.039-0.341,0.19-0.672,0.535-0.757 c0.176-0.087,0.315-0.271,0.354-0.484c0.066-0.369-0.18-0.724-0.548-0.79c-0.357-0.009-0.665,0.271-0.692,0.639 c-0.03,0.179-0.154,0.293-0.31,0.293l-0.013-0.001c-0.169-0.019-0.284-0.161-0.268-0.319c0.009-0.58,0.435-1.092,1.011-1.208 c0.663-0.195,1.37,0.185,1.57,0.854c0.2,0.67-0.182,1.379-0.853,1.58C73.1,43.375,73.1,43.375,73.1,43.53 c-0.019,0.119-0.019,0.222-0.001,0.323L73.119,43.97z M72.64,43.77h0.248c-0.006-0.086-0.001-0.172,0.014-0.257 c-0.001-0.177,0.012-0.291,0.271-0.368c0.564-0.169,0.887-0.766,0.718-1.331c-0.169-0.565-0.761-0.886-1.331-0.718 c-0.493,0.1-0.851,0.531-0.859,1.026c-0.005,0.058,0.03,0.103,0.08,0.108l0.001,0.101v-0.1c0.082,0,0.105-0.082,0.111-0.117 c0.033-0.457,0.421-0.813,0.886-0.813c0.009,0,0.017,0,0.025,0c0.492,0.088,0.811,0.547,0.725,1.024 c-0.051,0.276-0.231,0.514-0.483,0.636c-0.268,0.068-0.433,0.305-0.404,0.559V43.77z"/><path fill="#d7955f" d="M79.36,47.2c-1-0.4-2.06-0.83-3.09-1.26c-0.541-0.23-1.028-0.571-1.43-1 c-0.465-0.575-1.116-0.971-1.84-1.12h-0.27c-0.728,0.142-1.385,0.531-1.86,1.1c-0.397,0.435-0.886,0.776-1.43,1 c-1,0.43-2,0.86-3.08,1.26s-1,0.52-1,1.51c0,0.46,0,0.46,0.44,0.28l6.14-2.62c0.313-0.142,0.658-0.2,1-0.17 c0.342-0.03,0.687,0.028,1,0.17l6,2.65c0.43,0.18,0.43,0.18,0.44-0.28C80.4,47.72,80.28,47.56,79.36,47.2z"/><path fill="#472b29" d="M80.276,49.363c-0.117,0-0.252-0.056-0.433-0.132l-6.004-2.652 c-0.277-0.125-0.579-0.177-0.877-0.149c-0.346-0.024-0.646,0.025-0.919,0.148L65.897,49.2c-0.286,0.117-0.456,0.188-0.623,0.077 c-0.164-0.11-0.164-0.29-0.164-0.587L65.109,48.5c-0.005-0.952,0.08-1.153,1.164-1.555c1.082-0.401,2.092-0.835,3.068-1.255 c0.511-0.21,0.974-0.535,1.344-0.939c0.503-0.603,1.215-1.023,1.997-1.176L73,43.57c0.83,0.167,1.535,0.595,2.034,1.213 c0.37,0.394,0.822,0.71,1.333,0.927c1.027,0.429,2.087,0.858,3.085,1.258c1.024,0.401,1.2,0.664,1.178,1.757 c-0.007,0.297-0.01,0.477-0.176,0.584C80.396,49.347,80.339,49.363,80.276,49.363z M73.141,45.922c0.294,0,0.61,0.068,0.902,0.2 l5.998,2.649c0.028,0.012,0.059,0.024,0.087,0.036c0.001-0.03,0.001-0.062,0.002-0.092c0.019-0.885-0.03-0.957-0.86-1.282 c-0.001,0-0.002,0-0.002-0.001c-1.001-0.401-2.062-0.831-3.095-1.262c-0.576-0.245-1.086-0.601-1.516-1.06 c-0.438-0.542-1.041-0.908-1.708-1.046L72.73,44.07c-0.622,0.126-1.231,0.487-1.669,1.01c-0.426,0.467-0.951,0.834-1.525,1.071 c-0.979,0.421-1.994,0.858-3.089,1.264c-0.842,0.312-0.842,0.312-0.838,1.083l0.001,0.192c0,0.029,0,0.059,0,0.087 c0.031-0.013,0.063-0.026,0.095-0.039l6.138-2.619c0.345-0.156,0.73-0.222,1.12-0.189C73.021,45.925,73.08,45.922,73.141,45.922z"/><path fill="#00a5a5" d="M69,48.34h7.4c0.171,0,0.31,0.139,0.31,0.31v4.88c0,1.259-1.021,2.28-2.28,2.28h-3.36 c-1.287,0-2.33-1.043-2.33-2.33v-4.83c0-0.171,0.139-0.31,0.31-0.31H69z"/><path fill="#472b29" d="M74.43,56.06H71.07c-1.423,0-2.58-1.157-2.58-2.579V48.65c0-0.258,0.175-0.476,0.412-0.541 c0.03-0.013,0.063-0.02,0.098-0.02h7.4c0.309,0,0.56,0.251,0.56,0.56v4.88C76.96,54.925,75.825,56.06,74.43,56.06z M69.05,48.59 c-0.033,0-0.06,0.027-0.06,0.06v4.831c0,1.146,0.934,2.079,2.08,2.079h3.359c1.119,0,2.03-0.91,2.03-2.029v-4.88 c0-0.033-0.026-0.06-0.06-0.06H69.05z"/><g><path fill="#472b29" d="M76.74,53.301H76.2c-0.061,0-0.11-0.05-0.11-0.11s0.05-0.11,0.11-0.11h0.54 c0.061,0,0.11,0.05,0.11,0.11S76.801,53.301,76.74,53.301z"/></g><g><path fill="#472b29" d="M75.59,53.301h-0.25c-0.061,0-0.11-0.05-0.11-0.11s0.05-0.11,0.11-0.11h0.25 c0.061,0,0.11,0.05,0.11,0.11S75.65,53.301,75.59,53.301z"/></g><g><path fill="#472b29" d="M74.72,53.301h-5.95c-0.061,0-0.11-0.05-0.11-0.11s0.05-0.11,0.11-0.11h5.95 c0.061,0,0.11,0.05,0.11,0.11S74.78,53.301,74.72,53.301z"/></g><g><path fill="#472b29" d="M76.74,54.091H68.77c-0.061,0-0.11-0.05-0.11-0.11s0.05-0.11,0.11-0.11h7.971 c0.061,0,0.11,0.05,0.11,0.11S76.801,54.091,76.74,54.091z"/></g></svg>