<svg xmlns="http://www.w3.org/2000/svg" viewBox="0 0 64 64"><path fill="#d4d2b1" d="M63.013,32c0,17.125-13.888,31.013-31.013,31.013S0.988,49.125,0.988,32S14.875,0.988,32,0.988 S63.013,14.875,63.013,32"/><path fill="#65a844" d="M50,28c0-2.513-1.86-4.573-4.275-4.927C44.887,20.145,42.197,18,39,18	c-0.583,0-1.147,0.079-1.689,0.214C36.307,16.304,34.307,15,32,15c-2.004,0-3.774,0.986-4.864,2.496C26.486,17.187,25.768,17,25,17	c-2.761,0-5,2.239-5,5c0,0.434,0.073,0.847,0.176,1.248C17.196,24.052,15,26.766,15,30c0,3.866,3.134,7,7,7	c0.668,0,1.312-0.099,1.924-0.274C25.264,39.266,27.928,41,31,41c2.557,0,4.828-1.204,6.292-3.07C38.368,38.604,39.636,39,41,39	c3.866,0,7-3.134,7-7c0-0.007-0.001-0.014-0.001-0.022C49.207,31.066,50,29.631,50,28z"/><path fill="#a07349" d="M35,29.25h-5v16.294c-0.001,1.606-0.383,2.89-1,3.977h7c-0.677-1.013-0.985-2.362-1-3.977V29.25z"/><path fill="#a07349" d="M33,33c0,0,6.391-4.368,11-5c-1.598,1.078-6.944,3.12-9.36,8.25C34.416,34.763,33,33,33,33z"/><path fill="#a07349" d="M31,35c0,0-4-3-8-3c1.124,0.758,5.712,2.642,7.412,6.25C30.569,37.204,31,35,31,35z"/></svg>