<svg xmlns="http://www.w3.org/2000/svg" viewBox="0 0 24 24"><path d="M 12 1 C 10.894531 1 10 1.894531 10 3 C 10 3.351563 10.09375 3.683594 10.25 3.96875 L 2 18 C 0.894531 18 0 18.894531 0 20 C 0 21.105469 0.894531 22 2 22 C 2.738281 22 3.371094 21.597656 3.71875 21 L 20.28125 21 C 20.628906 21.597656 21.261719 22 22 22 C 23.105469 22 24 21.105469 24 20 C 24 18.894531 23.105469 18 22 18 L 13.75 3.96875 C 13.90625 3.683594 14 3.351563 14 3 C 14 1.894531 13.105469 1 12 1 Z M 12 5 L 20.25 19 L 3.75 19 Z"/></svg>