<svg xmlns="http://www.w3.org/2000/svg" viewBox="0 0 30 30"><path d="M 15 3 A 5 2.5 0 0 0 11.556641 3.6894531 C 8.2998194 5.0457573 6 8.2606605 6 12 L 6 14.585938 L 5.2929688 15.292969 A 1.0001 1.0001 0 0 0 5 16 L 5 18 C 5 19.516667 5.6641977 20.596554 6.3417969 21.189453 C 6.7996242 21.590052 7.0320109 21.619229 7.2988281 21.716797 C 7.5631278 22.362565 9.4988061 26.797406 14.732422 26.966797 C 14.735222 26.966888 14.737434 26.96865 14.740234 26.96875 A 1.0001 1.0001 0 0 0 15 27 A 1.0001 1.0001 0 0 0 15.253906 26.96875 C 20.498144 26.807746 22.436627 22.363164 22.701172 21.716797 C 22.967989 21.619227 23.200376 21.590052 23.658203 21.189453 C 24.335802 20.596554 25 19.516667 25 18 L 25 16 A 1.0001 1.0001 0 0 0 24.707031 15.292969 L 24 14.585938 L 24 12 C 24 8.2510802 21.688049 5.0298948 18.417969 3.6796875 A 5 2.5 0 0 0 15 3 z M 10.525391 6.6113281 A 5 2.5 0 0 0 15 8 A 5 2.5 0 0 0 19.472656 6.6113281 C 20.857357 7.7605527 21.788611 9.4341229 21.966797 11.333984 C 20.829408 11.624799 18.661172 12 14.990234 12 C 11.325068 12 9.1668459 11.62656 8.0332031 11.335938 C 8.2108921 9.4357905 9.1408361 7.7609149 10.525391 6.6113281 z M 11 14 C 11.552 14 12 14.448 12 15 C 12 15.552 11.552 16 11 16 C 10.448 16 10 15.552 10 15 C 10 14.448 10.448 14 11 14 z M 19 14 C 19.552 14 20 14.448 20 15 C 20 15.552 19.552 16 19 16 C 18.448 16 18 15.552 18 15 C 18 14.448 18.448 14 19 14 z M 7 17 C 7 17 11 18 12 18 C 13 18 14.105734 17 15.052734 17 C 15.999734 17 17 18 18 18 C 19 18 23 17 23 17 L 23 18 C 23 18.983333 22.664198 19.403446 22.341797 19.685547 C 22.019396 19.967648 21.757812 20.029297 21.757812 20.029297 A 1.0001 1.0001 0 0 0 21.060547 20.660156 C 21.060547 20.660156 19.547739 25 15 25 C 10.452261 25 8.9394531 20.660156 8.9394531 20.660156 A 1.0001 1.0001 0 0 0 8.2421875 20.029297 C 8.2421875 20.029297 7.9806039 19.967647 7.6582031 19.685547 C 7.3358023 19.403446 7 18.983333 7 18 L 7 17 z"/></svg>