<svg xmlns="http://www.w3.org/2000/svg" width="512" height="512" viewBox="0 0 512 512"><path fill="#14B6B9" d="M440.4,105.6c-21.3-17.4-46.4-32.2-62.1-55.3C358,66,343.4,88.1,323.6,104.5c-11.4,9.4-23,18.4-34,28.3c-2,1.8-4,3.6-5.9,5.5l62.9,1.8c1.9,0.1,3.2,0.9,4.1,2.1c12.4,3.9,12.6,22.5,12,33.8c-1.3,23.9,0.1,47.9-0.7,71.9c-0.9,29.7-2,59.4-2.9,89.1c-0.2,5.9-0.4,11.7,0.4,17.6c0.7,5.1,1.6,10.1,2.1,15.2c0.8,7.5,1.6,16.5-1.5,23.8c4.5,1,8.9,2.2,13.6,2.6c8.1,0.7,16.2,0,24.4,0.2c3,0.1,4.8,2.3,5.1,4.6c3.4,1.7,4.1,7.9-0.6,9.7c-1.2,0.5-2.4,1-3.5,1.5l49.7-1.4c0.9-0.9,2.1-1.5,3.8-1.5c10.4,0.2,6.8-25,6.4-31.1c-0.7-10.1,0.2-20.3,0.2-30.5c0.1-13.6-0.3-27.1-0.7-40.7c-0.9-27.2-1.9-54.5-2.6-81.7c-0.2-5.7-0.6-11.5,0.1-17.2c0.6-4.5,1.3-9,2-13.5c1.1-7.9,3.2-18.9-1.7-25.9c-0.3-0.4-0.5-0.8-0.6-1.2c-2.6-2.6-1.1-8.8,3.9-9.1c3.2-0.2,6.2-1.3,9.3-2.1c3.7-1,7.7-1.3,11.6-1.7c4.8-0.4,9.5-0.4,14.3-0.3C474.1,141.8,458.8,120.6,440.4,105.6z"/><path fill="#74CCCF" d="M203.3,166.2c-1.2-5.3-3.3-13.9-2.9-21.4c-20.7-16.5-44.3-31-59.4-53.1c-20.3,15.8-34.9,37.8-54.7,54.2c-11.4,9.4-23,18.4-34,28.3c-5.3,4.7-10.3,9.7-15.2,14.8c-2.6,2.7-5,5.5-7.5,8.3c-0.7,0.8-1.3,1.6-2,2.4c0.2,0.5,0.3,0.9,0.4,1.4c0.1,0,0.1,0,0.2,0l51.2-1.4c3.6-0.1,5.1,2.9,4.6,5.6c0.3,0.7,0.4,1.6,0.3,2.6c-6.1,49.9-0.2,100.1,2,150c0.5,12.5,0.8,25,0.6,37.5c-0.2,11.6,0,24-2.3,35.5c-1.1,5.6-2.6,11.2-3.5,16.9c-0.4,2.7-0.7,5.5-0.7,8.2l115-3.2c-8.5-6.9-16.8-13.9-24.7-21.4C165.3,426,160,420.7,155,415c-3.4-3.9-9.7-9.1-9.5-14.6c0.1-2.6,1.9-5.5,4.9-5.4l2.8,0.1c0.1,0,0.1,0,0.2,0c0.2-2.2,1.8-4.2,4.7-4.1l46.1,1.3c-6-53.2,1.3-106.6,2.7-159.8C207.4,210.3,207.8,186.8,203.3,166.2z"/><path fill="#EF4823" d="M373.4,406.4c-3.9-0.4-7.8-0.7-11.6-1.7c-3-0.8-6.1-1.9-9.3-2.1c-5-0.4-6.5-6.5-3.9-9.1c0.1-0.4,0.3-0.8,0.6-1.2c4.9-7.1,2.8-18,1.7-25.9c-0.6-4.5-1.4-9-2-13.5c-0.7-5.7-0.2-11.4-0.1-17.2c0.8-27.2,1.7-54.5,2.6-81.7c0.5-13.6,0.8-27.1,0.7-40.7c-0.1-10.2-1-20.3-0.2-30.5c0.4-6.1,4-31.3-6.4-31.1c-1.6,0-2.9-0.6-3.8-1.5l-129.1-3.6v9c-0.4-0.4-0.9-0.8-1.3-1.2c0,0.1,0,0.2,0,0.4c0.9,5.7,2.4,11.2,3.5,16.9c2.2,11.4,2.1,23.8,2.3,35.5c0.2,12.5-0.1,25-0.6,37.5c-2.2,50-8.1,100.1-2,150c0.1,1,0,1.8-0.3,2.6c0.4,2.8-1.1,5.7-4.6,5.6l-51.2-1.4c-0.1,0-0.1,0-0.2,0c-0.1,0.5-0.2,1-0.4,1.4c0.6,0.8,1.3,1.6,2,2.4c2.4,2.8,4.9,5.6,7.5,8.3c4.9,5.1,10,10,15.2,14.8c11,9.9,22.6,18.9,34,28.3c19.8,16.4,34.4,38.4,54.7,54.2c15.7-23.1,40.8-37.9,62.1-55.3c15.6-12.8,29-30,45.4-42.5v-0.1l0.1,0c2.8-2.2,5.8-4.2,8.8-6C383,406.8,378.2,406.8,373.4,406.4z"/><path d="M509.6,150.3c-13.1-5-23.7-15.3-33.5-25c-9.5-9.4-18.8-19.1-29.2-27.6c-21.2-17.4-47.4-32.1-62-56.1c-0.5-3.3-3.7-6.1-7.1-3.7c-24.3,17-40.6,42.5-63.7,60.9c-12.4,9.9-24.9,19.9-36.4,30.8c-2.8,2.7-5.6,5.4-8.3,8.2l-52.4-1.5c-1.3,0.3-2.6,0.4-3.7,0.5c-1.9,0.2-3.9,0.4-5.8,0.5c-20.8-16.6-45.8-31.2-59.9-54.4c-0.5-3.3-3.7-6.1-7.1-3.7c-24.3,17-40.6,42.5-63.7,60.9c-12.4,9.9-24.9,19.9-36.4,30.8c-4,3.8-8,7.7-11.8,11.8c-0.3,0.1-0.6,0.3-0.8,0.5c-3.6,2.6-5.5,6-8,9.5c-1.1,1.6-2.8,2.7-4.2,4c-1.6,1.5-2.6,3.4-3.2,5.5c-0.9,2.9,1.7,5.9,4.3,6.4c0.1,0,0.3,0,0.4,0c0.9,0.6,2,1,3.2,1.4c1.9,0.6,4.6,0.9,7,0.6v0.3c0.1,0,0.2,0,0.2,0l46.1-1.3c-6,53.2,1.3,106.6,2.7,159.8c0.6,22.2,1,45.6-3.5,66.3c-1.5,7.1-4.8,20.2-1.5,28.4c3.9,0.1,7.8,0.4,11.6,0.8c1,0.1,2.4,0.2,3.7,0.5l117.9-3.3v-2.5c0.8,0.6,1.6,1.3,2.4,1.9c23.1,18.4,39.4,43.9,63.7,60.9c3.4,2.4,6.6-0.4,7.1-3.7c14.6-23.9,40.8-38.7,62-56.1c10.4-8.5,19.6-18.2,29.2-27.6c4.4-4.3,8.9-8.7,13.7-12.8l70.7-2c1.9-0.1,3.2-0.9,4.1-2.1c12.4-3.9,12.6-22.5,12-33.8c-1.3-23.9,0.1-47.9-0.7-71.9c-0.9-29.7-2-59.4-2.9-89.1c-0.2-5.9-0.4-11.7,0.4-17.6c0.7-5.1,1.6-10.1,2.1-15.2c0.8-7.5,1.6-16.5-1.5-23.8c4.5-1,8.9-2.2,13.6-2.6c8.1-0.7,16.2,0,24.4-0.2c3-0.1,4.8-2.3,5.1-4.6C513.7,158.2,514.4,152.1,509.6,150.3z M80.5,455.9c0-2.7,0.3-5.5,0.7-8.2c0.9-5.7,2.4-11.2,3.5-16.9c2.2-11.4,2.1-23.8,2.3-35.5c0.2-12.5-0.1-25-0.6-37.5c-2.2-50-8.1-100.1-2-150c0.1-1,0-1.8-0.3-2.6c0.4-2.8-1.1-5.7-4.6-5.6L32.7,201c-1.1-1-2.5-1.6-3.9-1.5c1.7-2.3,2.8-5.1,5.2-6.9c0.9-0.7,1.5-1.5,1.9-2.4c0.4-0.4,0.8-0.8,1.1-1.2c4.9-5.1,10-10,15.2-14.8c11-9.9,22.6-18.9,34-28.3c19.8-16.4,34.4-38.4,54.7-54.2c15,22.1,38.7,36.6,59.4,53.1c-0.4,7.4,1.7,16.1,2.9,21.4c4.5,20.7,4.1,44.1,3.5,66.3c-1.4,53.3-8.8,106.6-2.7,159.8L158,391c-2.9-0.1-4.4,1.9-4.7,4.1c-0.1,0-0.1,0-0.2,0l-2.8-0.1c-2.9-0.1-4.8,2.8-4.9,5.4c-0.2,5.5,6.1,10.7,9.5,14.6c5,5.7,10.3,11,15.8,16.2c7.9,7.5,16.3,14.5,24.7,21.4L80.5,455.9z M378.9,412.8l-0.1,0v0.1c-16.3,12.5-29.7,29.7-45.4,42.5c-21.3,17.4-46.4,32.2-62.1,55.3c-20.3-15.8-34.9-37.8-54.7-54.2c-11.4-9.4-23-18.4-34-28.3c-5.2-4.7-10.3-9.7-15.2-14.8c-2.6-2.7-5-5.5-7.5-8.3c-0.7-0.8-1.3-1.6-2-2.4c0.2-0.5,0.3-0.9,0.4-1.4c0.1,0,0.1,0,0.2,0l51.2,1.4c3.6,0.1,5.1-2.9,4.6-5.6c0.3-0.7,0.4-1.6,0.3-2.6c-6.1-49.9-0.2-100.1,2-150c0.5-12.5,0.8-25,0.6-37.5c-0.2-11.6,0-24-2.3-35.5c-1.1-5.6-2.6-11.2-3.5-16.9c0-0.1,0-0.2,0-0.4c0.4,0.4,0.9,0.8,1.3,1.2v-9l129.1,3.6c0.9,0.9,2.1,1.5,3.8,1.5c10.4-0.2,6.8,25,6.4,31.1c-0.7,10.1,0.2,20.3,0.2,30.5c0.1,13.6-0.3,27.1-0.7,40.7c-0.9,27.2-1.8,54.5-2.6,81.7c-0.2,5.7-0.6,11.5,0.1,17.2c0.6,4.5,1.3,9,2,13.5c1.1,7.9,3.2,18.9-1.7,25.9c-0.3,0.4-0.5,0.8-0.6,1.2c-2.6,2.6-1.1,8.8,3.9,9.1c3.2,0.2,6.2,1.3,9.3,2.1c3.7,1,7.7,1.3,11.6,1.7c4.8,0.4,9.5,0.4,14.3,0.3C384.7,408.5,381.8,410.6,378.9,412.8z M480.4,154.6c-3.9,0.4-7.8,0.7-11.6,1.7c-3,0.8-6.1,1.9-9.3,2.1c-5,0.4-6.5,6.5-3.9,9.1c0.1,0.4,0.3,0.8,0.6,1.2c4.9,7.1,2.8,18,1.7,25.9c-0.6,4.5-1.4,9-2,13.5c-0.7,5.7-0.2,11.4-0.1,17.2c0.8,27.2,1.7,54.5,2.6,81.7c0.5,13.6,0.8,27.1,0.7,40.7c-0.1,10.2-1,20.3-0.2,30.5c0.4,6.1,4,31.3-6.4,31.1c-1.6,0-2.9,0.6-3.8,1.5l-49.7,1.4c1.1-0.5,2.3-1.1,3.5-1.5c4.7-1.8,4-8,0.6-9.7c-0.4-2.3-2.1-4.5-5.1-4.6c-8.1-0.2-16.3,0.5-24.4-0.2c-4.6-0.4-9.1-1.6-13.6-2.6c3.1-7.2,2.3-16.3,1.5-23.8c-0.5-5.1-1.4-10.2-2.1-15.2c-0.9-5.9-0.6-11.6-0.4-17.6c0.8-29.7,1.9-59.4,2.9-89.1c0.8-24-0.6-48,0.7-71.9c0.6-11.3,0.4-30-12-33.8c-0.9-1.2-2.2-2-4.1-2.1l-62.9-1.8c1.9-1.9,3.9-3.7,5.9-5.5c11-9.9,22.6-18.9,34-28.3C343.4,88.1,358,66,378.3,50.3c15.7,23.1,40.8,37.9,62.1,55.3c18.4,15.1,33.7,36.3,54.3,48.7C490,154.2,485.2,154.2,480.4,154.6z"/></svg>