<svg xmlns="http://www.w3.org/2000/svg" viewBox="0 0 48 48"><radialGradient id="NfK7n463_kpP8hu_nNKNQa" cx="23.982" cy="34.956" r="13.821" gradientUnits="userSpaceOnUse"><stop offset="0" stop-color="#eff2f7"/><stop offset=".183" stop-color="#c5c9d0"/><stop offset=".347" stop-color="#a6aab3"/><stop offset=".438" stop-color="#9a9fa8"/><stop offset=".56" stop-color="#7e838a"/><stop offset=".823" stop-color="#393a3e"/><stop offset="1" stop-color="#070708"/></radialGradient><path fill="url(#NfK7n463_kpP8hu_nNKNQa)" d="M32.664,42.142c0,1.241-3.719,2.247-8.307,2.247s-8.307-1.006-8.307-2.247 c0-0.288,0-0.632,0-0.632s4.784-1.615,8.307-1.615c3.609,0,8.3,1.646,8.3,1.646S32.664,41.877,32.664,42.142z"/><radialGradient id="NfK7n463_kpP8hu_nNKNQb" cx="24.356" cy="41.51" r="8.068" gradientTransform="matrix(1 0 0 .2787 0 29.942)" gradientUnits="userSpaceOnUse"><stop offset="0" stop-color="#070708"/><stop offset=".08" stop-color="#313336"/><stop offset=".177" stop-color="#5e6167"/><stop offset=".263" stop-color="#7f838a"/><stop offset=".332" stop-color="#9397a0"/><stop offset=".377" stop-color="#9a9fa8"/><stop offset=".418" stop-color="#a0a5ad"/><stop offset="1" stop-color="#eff2f7"/></radialGradient><ellipse cx="24.356" cy="41.51" fill="url(#NfK7n463_kpP8hu_nNKNQb)" rx="8.307" ry="2.247"/><radialGradient id="NfK7n463_kpP8hu_nNKNQc" cx="24.392" cy="36.864" r="4.026" gradientTransform="matrix(1 0 0 1.5408 0 -19.785)" gradientUnits="userSpaceOnUse"><stop offset="0" stop-color="#eff2f7"/><stop offset=".211" stop-color="#c5c9d0"/><stop offset=".4" stop-color="#a6aab3"/><stop offset=".505" stop-color="#9a9fa8"/><stop offset=".612" stop-color="#7e838a"/><stop offset=".844" stop-color="#393a3e"/><stop offset="1" stop-color="#070708"/></radialGradient><path fill="url(#NfK7n463_kpP8hu_nNKNQc)" d="M24.356,41.802L24.356,41.802c-0.549,0-0.995-0.445-0.995-0.995v-13.34 c0-0.549,0.445-0.995,0.995-0.995h0c0.549,0,0.995,0.445,0.995,0.995v13.34C25.351,41.357,24.906,41.802,24.356,41.802z"/><radialGradient id="NfK7n463_kpP8hu_nNKNQd" cx="23.072" cy="8.397" r="16.607" gradientTransform="matrix(.8515 0 0 .2915 4.74 7.598)" gradientUnits="userSpaceOnUse"><stop offset="0" stop-color="#eff2f7"/><stop offset=".114" stop-color="#e7eaef"/><stop offset=".294" stop-color="#d0d4da"/><stop offset=".517" stop-color="#abafb8"/><stop offset=".605" stop-color="#9a9fa8"/><stop offset=".699" stop-color="#6a6e74"/><stop offset=".796" stop-color="#404246"/><stop offset=".882" stop-color="#212224"/><stop offset=".953" stop-color="#0e0e0f"/><stop offset="1" stop-color="#070708"/></radialGradient><ellipse cx="24.33" cy="8.429" fill="url(#NfK7n463_kpP8hu_nNKNQd)" rx="6.38" ry=".9"/><path fill="#ff7d0a" d="M24.073,5.929c-1.279-1.605-3.329-2.535-5.517-2.274c-3.361,0.4-5.761,3.45-5.361,6.811 c0.105,0.879,0.394,1.69,0.82,2.405L24.073,5.929z"/><path fill="#feea7c" d="M23.222,6.517c-1.066-1.3-2.749-2.049-4.543-1.835c-2.794,0.333-4.789,2.868-4.456,5.662 c0.084,0.706,0.31,1.361,0.644,1.94L23.222,6.517z"/><path fill="#ffc000" d="M18.819,8.511l-1.756-2.523C16.941,5.812,17,5.565,17.195,5.477 C17.47,5.352,17.938,5.201,18.7,5.11c0.751-0.089,1.262-0.048,1.574,0.009c0.213,0.039,0.332,0.264,0.254,0.466l-1.1,2.852 C19.328,8.697,18.978,8.739,18.819,8.511z"/><path fill="#ffc000" d="M18.167,9.334l-3.074,0.031c-0.214,0.002-0.385-0.185-0.348-0.396 c0.051-0.297,0.19-0.769,0.544-1.45c0.349-0.671,0.67-1.07,0.894-1.296c0.152-0.154,0.405-0.126,0.528,0.052l1.738,2.514 C18.607,9.018,18.445,9.331,18.167,9.334z"/><path fill="#ffc000" d="M18.358,9.874c-0.044-0.141-0.164-0.255-0.334-0.249l-3.072,0.112 c-0.214,0.008-0.376,0.203-0.329,0.412c0.065,0.294,0.226,0.76,0.611,1.423c0.069,0.119,0.135,0.219,0.201,0.321L18.358,9.874z"/><path fill="#ffc000" d="M22.862,6.765c-0.081-0.106-0.165-0.214-0.265-0.33c-0.5-0.582-0.887-0.886-1.144-1.045 c-0.182-0.112-0.42-0.024-0.497,0.176L19.84,8.431c-0.054,0.138-0.011,0.274,0.079,0.365L22.862,6.765z"/><radialGradient id="NfK7n463_kpP8hu_nNKNQe" cx="24.159" cy="12.806" r="16.257" gradientTransform="matrix(1 0 0 1.3633 0 -4.652)" gradientUnits="userSpaceOnUse"><stop offset="0" stop-color="#eff2f7"/><stop offset=".122" stop-color="#e7eaf0"/><stop offset=".312" stop-color="#d1d5db"/><stop offset=".545" stop-color="#adb2ba"/><stop offset=".653" stop-color="#9a9fa8"/><stop offset=".697" stop-color="#9599a2"/><stop offset=".755" stop-color="#858a92"/><stop offset=".82" stop-color="#6c7076"/><stop offset=".892" stop-color="#494c50"/><stop offset=".967" stop-color="#1d1e20"/><stop offset="1" stop-color="#070708"/></radialGradient><path fill="url(#NfK7n463_kpP8hu_nNKNQe)" d="M31.538,17.502c-0.987-3.564-0.878-8.378-0.86-8.984c-0.316,0.456-3.037,0.811-6.348,0.811 c-3.467,0-6.281-0.39-6.371-0.877h-0.002c0,0,0.197,5.24-0.858,9.049c-0.497,1.794-2.538,4.298-2.499,7.484 c0.059,4.825,3.506,8.392,9.702,8.392c0.006,0,0.011-0.001,0.017-0.001s0.011,0.001,0.017,0.001c6.197,0,9.643-3.567,9.702-8.392 C34.076,21.8,32.035,19.296,31.538,17.502z"/><linearGradient id="NfK7n463_kpP8hu_nNKNQf" x1="24.318" x2="24.318" y1="12.948" y2="30.62" gradientUnits="userSpaceOnUse"><stop offset=".256" stop-color="#f0c413"/><stop offset=".551" stop-color="#e27914"/><stop offset=".858" stop-color="#d43116"/><stop offset="1" stop-color="#cf1416"/></linearGradient><path fill="url(#NfK7n463_kpP8hu_nNKNQf)" d="M31.614,19.903c-0.381-0.767-0.74-1.492-0.927-2.166c-0.446-1.609-0.672-3.433-0.789-5.045 H18.739c-0.117,1.612-0.343,3.435-0.789,5.045c-0.186,0.674-0.546,1.398-0.927,2.166c-0.733,1.477-1.564,3.151-1.54,5.072 c0.057,4.638,3.436,7.519,8.819,7.519h0.025l0.05,0.001c5.342-0.001,8.722-2.882,8.778-7.52 C33.178,23.054,32.347,21.38,31.614,19.903z"/><radialGradient id="NfK7n463_kpP8hu_nNKNQg" cx="24.282" cy="12.72" r="17.703" gradientTransform="matrix(.9811 0 0 .3912 .336 7.744)" gradientUnits="userSpaceOnUse"><stop offset=".087" stop-color="#f2df79"/><stop offset=".26" stop-color="#f2de75"/><stop offset=".415" stop-color="#f2db6a"/><stop offset=".564" stop-color="#f1d658"/><stop offset=".708" stop-color="#f1cf3e"/><stop offset=".849" stop-color="#f0c71d"/><stop offset=".887" stop-color="#f0c413"/></radialGradient><ellipse cx="24.318" cy="12.72" fill="url(#NfK7n463_kpP8hu_nNKNQg)" rx="5.579" ry=".928"/><linearGradient id="NfK7n463_kpP8hu_nNKNQh" x1="19.747" x2="19.861" y1="31.192" y2="12.553" gradientUnits="userSpaceOnUse"><stop offset="0" stop-color="#fff" stop-opacity="0"/><stop offset=".729" stop-color="#fff" stop-opacity=".68"/><stop offset=".75" stop-color="#fff" stop-opacity=".7"/></linearGradient><path fill="url(#NfK7n463_kpP8hu_nNKNQh)" d="M20.665,9.208c0,0,0.437,3.816-0.835,8.679c-0.786,3.005-2.385,4.306-2.385,7.526 c0,4.386,3.869,5.406,3.869,5.406s-1.603-1.59-1.603-5.194c0-3.737,1.545-5.373,2.107-8.745c0.795-4.77,0.099-7.652,0.099-7.652 L20.665,9.208z"/><path fill="#f84577" d="M34.668,5.417l-4.617,0.928c-0.788,0.167-1.466,0.664-1.868,1.378l-2.601,4.997h1.025l2.376-4.564 c0.267-0.473,0.725-0.809,1.253-0.92l4.612-0.928L34.668,5.417z"/><radialGradient id="NfK7n463_kpP8hu_nNKNQi" cx="25.749" cy="770.674" r="9.261" gradientTransform="matrix(.8345 0 0 .2857 2.841 -212.005)" gradientUnits="userSpaceOnUse"><stop offset="0" stop-color="#eff2f7"/><stop offset=".109" stop-color="#e6eaef"/><stop offset=".282" stop-color="#cfd3da"/><stop offset=".497" stop-color="#aaaeb7"/><stop offset=".577" stop-color="#9a9fa8"/><stop offset=".776" stop-color="#57595f"/><stop offset="1" stop-color="#070708"/></radialGradient><path fill="url(#NfK7n463_kpP8hu_nNKNQi)" d="M30.71,8.429c-0.067,0.282-0.392,0.393-0.628,0.507c-0.257,0.114-0.522,0.199-0.789,0.284 c-0.538,0.149-1.085,0.255-1.635,0.348c-1.1,0.186-2.215,0.245-3.328,0.257c-1.113-0.012-2.229-0.071-3.329-0.256 c-0.549-0.093-1.096-0.2-1.635-0.348c-0.267-0.085-0.532-0.17-0.789-0.284c-0.236-0.114-0.561-0.226-0.628-0.508 c0.119,0.245,0.435,0.288,0.68,0.37c0.261,0.071,0.532,0.116,0.8,0.158c0.537,0.092,1.081,0.15,1.626,0.19 c1.089,0.084,2.182,0.127,3.274,0.126c1.092,0.001,2.185-0.042,3.274-0.125c0.545-0.04,1.089-0.099,1.626-0.191 c0.269-0.043,0.539-0.087,0.8-0.159C30.275,8.717,30.591,8.674,30.71,8.429z"/></svg>