<svg xmlns="http://www.w3.org/2000/svg" viewBox="0 0 26 26"><path d="M 13 7 L 11 11.8125 L 9.09375 8.6875 C 8.894531 8.289063 8.40625 8 7.90625 8 L 0 8 C 0 8 1.210938 10 1.8125 10 L 7.5 10 C 7.898438 10 8.207031 10.105469 8.40625 10.40625 L 11 14.59375 L 13 10 L 15 14.59375 L 17.6875 10.5 C 17.886719 10.199219 18.09375 10 18.59375 10 L 24.1875 10 C 24.585938 10 26 8 26 8 L 18 8 C 17.601563 8 17.105469 8.289063 16.90625 8.6875 L 15 11.8125 Z M 2 11 L 2.8125 12.3125 C 3.011719 12.710938 3.210938 13 3.8125 13 L 8.6875 13 L 8 11.6875 C 7.898438 11.386719 7.492188 11.101563 7.09375 11 Z M 18.90625 11 C 18.507813 11.101563 18.101563 11.386719 18 11.6875 L 17.3125 13 L 22.3125 13 C 22.914063 13 23.113281 12.710938 23.3125 12.3125 L 24 11 Z M 13 12.59375 L 11 16.59375 L 9.8125 14.6875 C 9.613281 14.289063 9.09375 14 8.59375 14 L 3.6875 14 C 3.6875 14 4.898438 16 5.5 16 L 8.1875 16 C 8.585938 16 8.894531 16.105469 9.09375 16.40625 L 11 19.40625 L 13 15.6875 L 15 19.40625 L 17 16.5 C 17.199219 16.199219 17.40625 16 17.90625 16 L 20.5 16 C 20.898438 16 22.3125 14 22.3125 14 L 17.3125 14 C 16.8125 14 16.292969 14.289063 16.09375 14.6875 L 15 16.59375 Z"/></svg>