<?xml version="1.0"?><svg xmlns="http://www.w3.org/2000/svg" viewBox="0 0 24 24">    <path d="M 12 0 C 5.4 0 0 5.4 0 12 C 0 18.6 5.4 24 12 24 C 18.6 24 24 18.6 24 12 C 24 5.4 18.6 0 12 0 z M 12 2 C 17.5 2 22 6.5 22 12 C 22 17.5 17.5 22 12 22 C 6.5 22 2 17.5 2 12 C 2 6.5 6.5 2 12 2 z M 9 5 L 9 7.6132812 L 6.8847656 8.4433594 L 7.6152344 10.306641 L 9 9.7636719 L 9 11.238281 L 6.8847656 12.068359 L 7.6152344 13.931641 L 9 13.388672 L 9 18.978516 L 9.9785156 19 C 9.9785156 19 11.655362 19.05066 13.384766 18.330078 C 15.114169 17.609493 17 15.880952 17 12.875 L 15 12.875 C 15 15.119048 13.885831 15.953007 12.615234 16.482422 C 11.823987 16.812108 11.500015 16.761384 11 16.804688 L 11 12.603516 L 13.990234 11.431641 L 13.259766 9.5683594 L 11 10.455078 L 11 8.9785156 L 13.990234 7.8066406 L 13.259766 5.9433594 L 11 6.8300781 L 11 5 L 9 5 z"/></svg>