<svg xmlns="http://www.w3.org/2000/svg" viewBox="0 0 24 24"><path d="M 7.3125 2.8125 C 6.3125 2.914063 6.292969 3.804688 6.59375 6.90625 C 6.792969 9.007813 6.886719 10.90625 6.6875 10.90625 C 6.386719 10.90625 6.488281 9.898438 5.6875 10 C 4.6875 10.101563 4.800781 10.8125 4.5 10.8125 C 4.199219 10.8125 4.113281 10.09375 3.3125 10.09375 C 2.511719 10.09375 2.488281 11.085938 2.1875 11.1875 C 1.886719 11.1875 1.8125 10.90625 1.3125 10.90625 C 0.8125 10.90625 -0.113281 11.398438 0.1875 15 C 0.488281 19.398438 1.488281 20 1.6875 21.5 L 8 21.1875 C 8 20.789063 8.605469 20.101563 9.40625 19 C 10.707031 17.199219 10.90625 16.511719 10.90625 15.8125 C 10.90625 14.210938 9.101563 14 9 13 C 9 12.398438 8.695313 9.011719 8.59375 6.8125 C 8.394531 3.414063 8.210938 2.8125 7.3125 2.8125 Z M 16.6875 2.90625 C 15.789063 2.90625 15.605469 3.507813 15.40625 6.90625 C 15.304688 9.105469 15 12.398438 15 13 C 14.898438 14 13.09375 14.210938 13.09375 15.8125 C 13.09375 16.511719 13.292969 17.199219 14.59375 19 C 15.394531 20.101563 16 20.789063 16 21.1875 L 22.3125 21.59375 C 22.511719 20.09375 23.511719 19.492188 23.8125 15.09375 C 24.113281 11.492188 23.1875 11 22.6875 11 C 22.1875 11 22.113281 11.3125 21.8125 11.3125 C 21.511719 11.210938 21.488281 10.1875 20.6875 10.1875 C 19.886719 10.1875 19.800781 10.90625 19.5 10.90625 C 19.199219 10.90625 19.3125 10.195313 18.3125 10.09375 C 17.511719 9.992188 17.613281 11 17.3125 11 C 17.113281 11 17.207031 9.101563 17.40625 7 C 17.707031 3.898438 17.6875 3.007813 16.6875 2.90625 Z"/></svg>