<svg xmlns="http://www.w3.org/2000/svg" viewBox="0 0 40 40"><path fill="#b6dcfe" d="M1.512,38.5c0.269-5.559,4.982-10,10.738-10h7.5c5.756,0,10.47,4.441,10.738,10H1.512z"/><path fill="#4788c7" d="M19.75,29c5.306,0,9.683,3.954,10.199,9H2.051c0.516-5.046,4.893-9,10.199-9H19.75 M19.75,28h-7.5 C6.037,28,1,32.925,1,39h30C31,32.925,25.963,28,19.75,28L19.75,28z"/><path fill="#fff" d="M16,31.5c-3.075,0-4.297-2.625-4.5-3.123V22.91h9v5.468C20.297,28.875,19.075,31.5,16,31.5z"/><path fill="#4788c7" d="M20,23.41v4.865C19.737,28.865,18.607,31,16,31c-2.611,0-3.741-2.141-4-2.725V23.41H20 M21,22.41 H11v6.062c0,0,1.267,3.529,5,3.529s5-3.529,5-3.529V22.41L21,22.41z"/><path fill="#fff" d="M16,27.5c-0.604,0-1.172-0.218-1.642-0.63l-0.091-0.08l-0.116-0.03 C10.824,25.916,8.5,22.93,8.5,19.5v-9.298c0-1.827,1.486-3.313,3.312-3.313h8.375c1.826,0,3.313,1.486,3.313,3.313V19.5 c0,3.43-2.324,6.416-5.651,7.26l-0.116,0.03l-0.091,0.08C17.172,27.282,16.604,27.5,16,27.5z"/><path fill="#4788c7" d="M20.187,7.389c1.551,0,2.813,1.262,2.813,2.813V19.5c0,3.201-2.169,5.987-5.275,6.776l-0.233,0.059 l-0.181,0.159C17.048,26.725,16.608,27,16,27s-1.048-0.275-1.311-0.506l-0.181-0.159l-0.233-0.059C11.169,25.487,9,22.701,9,19.5 v-9.298c0-1.551,1.262-2.813,2.813-2.813H20.187 M20.187,6.389h-8.375C9.707,6.389,8,8.096,8,10.202V19.5 c0,3.737,2.566,6.866,6.029,7.745C14.557,27.709,15.242,28,16,28s1.443-0.291,1.971-0.755C21.434,26.366,24,23.237,24,19.5v-9.298 C24,8.096,22.293,6.389,20.187,6.389L20.187,6.389z"/><path fill="#b6dcfe" d="M24,27.5c-1.76,0-3.407-0.912-4.269-1.485c1.046-0.659,2.769-2.223,2.769-5.373v-4.724 c0-2.41-2.086-4.223-2.175-4.298l-0.43-0.368l-0.313,0.473c-0.021,0.031-2.135,3.156-6.65,3.78C10.574,15.83,9.5,17.614,9.5,19.133 v1.509c0,3.193,1.707,4.735,2.757,5.38C11.398,26.596,9.764,27.5,8,27.5c-1.793,0-3.382-0.935-4.16-1.483 c0.881-0.695,2.445-2.24,2.445-4.445c0-0.928-0.176-1.909-0.362-2.948C5.715,17.462,5.5,16.262,5.5,15c0-8.488,5.387-11.5,10-11.5 c3.803,0,5.031,2.675,5.043,2.703L20.675,6.5H21c3.495,0,5.5,2.733,5.5,7.5c0,1.342-0.269,2.836-0.527,4.281 C25.729,19.634,25.5,20.913,25.5,22c0,1.844,1.459,2.852,2.643,3.281C27.435,26.092,25.928,27.5,24,27.5z"/><path fill="#4788c7" d="M15.5,4c3.427,0,4.543,2.315,4.586,2.405L20.349,7H21c3.224,0,5,2.486,5,7 c0,1.298-0.264,2.769-0.52,4.193C25.233,19.569,25,20.868,25,22c0,1.765,1.143,2.857,2.292,3.452C26.551,26.167,25.388,27,24,27 c-1.274,0-2.497-0.524-3.357-1.01C21.732,25.107,23,23.472,23,20.643v-4.724c0-2.638-2.254-4.596-2.35-4.678l-0.858-0.728 l-0.626,0.936c-0.081,0.121-2.03,2.971-6.303,3.561C10.209,15.376,9,17.404,9,19.133v1.509c0,2.863,1.254,4.489,2.342,5.361 C10.491,26.486,9.282,27,8,27c-1.313,0-2.525-0.556-3.331-1.041c0.942-0.88,2.117-2.379,2.117-4.388 c0-0.972-0.18-1.975-0.37-3.036C6.211,17.396,6,16.218,6,15C6,6.881,11.118,4,15.5,4 M15.5,3C10.212,3,5,6.694,5,15 c0,2.454,0.786,4.682,0.786,6.571C5.786,24.327,3,26,3,26s2.254,2,5,2c2.794,0,5.211-2.056,5.211-2.056S10,24.918,10,20.643 c0-0.613,0-0.56,0-1.509c0-1.354,0.942-2.849,3-3.134c4.816-0.665,7-4,7-4s2,1.711,2,3.919c0,1.044,0,3.009,0,4.724 c0,4.194-3.214,5.302-3.214,5.302S21.225,28,24,28c3.005,0,5-3,5-3s-3-0.535-3-3c0-2.19,1-5.352,1-8c0-5.761-2.766-8-6-8 C21,6,19.672,3,15.5,3L15.5,3z"/><g><path fill="#dff0fe" d="M31.125,15.516c-1.001,0-1.967-0.302-2.793-0.874l-0.288-0.199l-0.279,0.211 c-0.746,0.563-1.626,0.861-2.546,0.861c-1.708,0-3.211-0.982-3.827-2.501l-0.08-0.198l-0.201-0.074 c-1.596-0.588-2.626-2.008-2.626-3.618c0-1.51,0.904-2.854,2.36-3.507l0.271-0.122l0.014-0.297c0.1-2.083,1.896-3.715,4.089-3.715 c0.843,0,1.658,0.246,2.356,0.711l0.269,0.178l0.269-0.178c0.698-0.465,1.514-0.711,2.356-0.711c1.579,0,3.036,0.884,3.713,2.25 l0.127,0.257l0.285,0.013c2.199,0.095,3.922,1.796,3.922,3.871c0,1.52-0.95,2.91-2.422,3.54l-0.239,0.102l-0.047,0.256 C35.411,13.942,33.441,15.516,31.125,15.516z"/><path fill="#4788c7" d="M30.469,1.968c1.396,0,2.683,0.778,3.278,1.981l0.254,0.513l0.572,0.025 c1.94,0.084,3.459,1.572,3.459,3.388c0,1.326-0.836,2.541-2.129,3.095l-0.478,0.205l-0.094,0.511 c-0.355,1.939-2.124,3.346-4.206,3.346c-0.901,0-1.772-0.272-2.519-0.787l-0.575-0.397l-0.558,0.421 c-0.662,0.499-1.441,0.763-2.254,0.763c-1.51,0-2.836-0.863-3.378-2.199l-0.161-0.397l-0.402-0.148 c-1.403-0.516-2.309-1.758-2.309-3.163c0-1.317,0.795-2.491,2.074-3.065l0.542-0.243l0.028-0.594 c0.087-1.825,1.671-3.254,3.606-3.254c0.748,0,1.47,0.218,2.088,0.629l0.537,0.357l0.537-0.357 C28.999,2.186,29.721,1.968,30.469,1.968 M30.469,1c-0.978,0-1.88,0.296-2.625,0.792C27.099,1.296,26.197,1,25.219,1 c-2.466,0-4.461,1.854-4.573,4.176C19.087,5.876,18,7.375,18,9.125c0,1.86,1.224,3.439,2.943,4.072 C21.608,14.834,23.265,16,25.219,16c1.077,0,2.054-0.368,2.838-0.959C28.921,15.638,29.976,16,31.125,16 c2.59,0,4.729-1.79,5.159-4.14C37.882,11.175,39,9.653,39,7.875c0-2.348-1.947-4.249-4.385-4.355C33.88,2.035,32.307,1,30.469,1 L30.469,1z"/></g><path fill="#4788c7" d="M32.5 7.25A1.25 1.25 0 1 0 32.5 9.75 1.25 1.25 0 1 0 32.5 7.25zM28.5 7.25A1.25 1.25 0 1 0 28.5 9.75 1.25 1.25 0 1 0 28.5 7.25zM24.5 7.25A1.25 1.25 0 1 0 24.5 9.75 1.25 1.25 0 1 0 24.5 7.25z"/></svg>