<svg xmlns="http://www.w3.org/2000/svg" xmlns:xlink="http://www.w3.org/1999/xlink" viewBox="0 0 100 100"><path fill="#fff" d="M22.5 56.5A.9.9 0 1 0 22.5 58.3.9.9 0 1 0 22.5 56.5zM80.7 33.699999999999996A.7.7 0 1 0 80.7 35.1.7.7 0 1 0 80.7 33.699999999999996z"/><path fill="#f1bc19" d="M79 12.5A.9.9 0 1 0 79 14.3.9.9 0 1 0 79 12.5zM23 64.19999999999999A.9.9 0 1 0 23 66 .9.9 0 1 0 23 64.19999999999999z"/><path fill="#e4e4f9" d="M51.8 13.200000000000003A37.5 37.5 0 1 0 51.8 88.2A37.5 37.5 0 1 0 51.8 13.200000000000003Z"/><path fill="#f1bc19" d="M84.5 11.6A4 4 0 1 0 84.5 19.6A4 4 0 1 0 84.5 11.6Z"/><path fill="#9d9fce" d="M14.3 27.3A1.9 1.9 0 1 0 14.3 31.099999999999998A1.9 1.9 0 1 0 14.3 27.3Z"/><path fill="#fbcd59" d="M79.5 75.3A1.9 1.9 0 1 0 79.5 79.10000000000001 1.9 1.9 0 1 0 79.5 75.3zM37.7 79.5A4 4 0 1 0 37.7 87.5 4 4 0 1 0 37.7 79.5z"/><path fill="#9d9fce" d="M28.1 84.69999999999999A1.9 1.9 0 1 0 28.1 88.5A1.9 1.9 0 1 0 28.1 84.69999999999999Z"/><path fill="#fff" d="M12.4 40.300000000000004A1.8 1.8 0 1 0 12.4 43.9 1.8 1.8 0 1 0 12.4 40.300000000000004zM59.5 77.7A2.6 2.6 0 1 0 59.5 82.89999999999999 2.6 2.6 0 1 0 59.5 77.7z"/><path fill="#ce9065" d="M89,62.1c-0.1-1.4-1-2.5-2.4-2.8c-0.1,0-0.1,0-0.2-0.1L86,59c-0.9-0.4-6.1-2.3-6.1-2.3 c-0.4-0.1-0.7-0.4-0.9-0.8c-0.2-0.7-0.2-1.3-0.2-2c-1.2,0.4-2.4,0.7-3.6,1c-1.3,0.1-4.2-1.6-4.2-1.6S71,55.5,70.9,56 c-0.1,0.4-0.5,0.7-0.9,0.8l-5,1.8c-0.5,0.1-1.1,0.3-1.6,0.6c-1.1,0.7-1.9,1.7-2.2,2.9c0,0-0.3,2.3-0.3,2.4c0,0.3-0.1,0.7-0.1,1.1 c5.5,3.7,9.9,4.8,17.4,4.4c3.9-0.4,7.7-1.5,11.2-3.2C89.3,63.8,89,62.1,89,62.1z"/><path fill="#fdfcef" d="M86.6,59.3l-0.2-0.1L86,59c-0.6-0.2-2.8-1.1-4.4-1.7h-0.1c-1.8,0.9-4.3,2.3-6.6,2.3 s-4.6-1.2-6.6-2.3l-0.2,0.1L65,58.6c-0.5,0.1-1.1,0.3-1.6,0.6c-1.1,0.7-1.9,1.7-2.2,2.9c0,0-0.3,2.3-0.3,2.4c0,0.3-0.1,3.8-0.1,4.2 c5.5,3.7,9.9,4.8,17.4,4.4c3.9-0.4,7.7-1.5,11.2-3.2c-0.1-3-0.4-7.9-0.4-7.9C88.9,60.8,88,59.6,86.6,59.3z"/><path fill="#e1e0d8" d="M69.6,57.1l-2.1,0.8l4.2,5.4l3.7-3.9C75.4,59.4,69.9,58.2,69.6,57.1z"/><path fill="#e1e0d8" d="M80.6,57.1l1.9,1.1l-4,5.1l-3.7-3.9C74.8,59.4,80.3,58.2,80.6,57.1z"/><path fill="#ce9065" d="M83.6,42h-0.3c-0.7,0-0.9,0.2-0.8-0.2c0-0.7,0-3.8,0-3.9c0-3.1-3.3-5.7-7.4-5.8h-0.2 c-4.1,0.1-7.4,2.7-7.4,5.8c0,0.2-0.1,3.2,0,3.9c0,0.4-0.2,0.2-0.8,0.2h-0.3c-0.7,0-1.3,0.5-1.5,1.1c0.2,1.2,0.6,2.5,1,3.6 c0.3,0.6,0.8,0.7,1.3,1c0.2,0.2,0.4,0.5,0.4,0.7c0.3,1.1,1,2.1,1.9,2.9c0.4,0.4,3.2,3.3,5.6,3.2s5.1-2.8,5.5-3.2 c0.9-0.8,1.5-1.8,1.9-2.9c0-0.3,0.2-0.6,0.4-0.7c0.5-0.4,1-0.4,1.3-1c0.4-1.2,0.8-2.4,1-3.6C85,42.4,84.3,42,83.6,42z"/><path fill="#ce9065" d="M75,56.7c1.4,0,5.4-1.9,6.9-3.9c1-1.4,0.6-3.3,0.6-5.7c0-6.2,2.3-13.7-7.4-13.7 s-7.4,7.5-7.4,13.7c0,2.5-0.4,4.4,0.6,5.8C69.6,54.8,73.5,56.7,75,56.7z"/><defs><path id="0nBIXwauB9d00e~2~XM9Ea" d="M75,56.7c1.4,0,5.4-1.9,6.9-3.9c1-1.4,0.6-3.3,0.6-5.7c0-6.2,2.3-13.7-7.4-13.7s-7.4,7.5-7.4,13.7 c0,2.5-0.4,4.4,0.6,5.8C69.6,54.8,73.5,56.7,75,56.7z"/></defs><clipPath id="0nBIXwauB9d00e~2~XM9Eb"><use overflow="visible" xlink:href="#0nBIXwauB9d00e~2~XM9Ea"/></clipPath><g clip-path="url(#0nBIXwauB9d00e~2~XM9Eb)"><path fill="#512c2b" d="M82.4,44.3c0,0-0.3,3.9-1.3,4.6c-0.8,0.5-1.6,0.8-2.4,1.1h-7.3c-0.9-0.2-1.7-0.6-2.4-1.1 c-1-0.7-1.3-4.6-1.3-4.6c-0.3,2.2-0.3,4.3-0.2,6.5c0.1,0.8,0.4,1.6,0.8,2.2c0,0,4.2,4.3,4.5,4.4c0.7,0.1,1.5,0.1,2.3,0.1 c0.8,0.1,1.5,0,2.3-0.1c0.3-0.2,4.8-4.3,4.8-4.3c0.4-0.8,0.7-1.6,0.8-2.5C82.9,48.6,82.8,46.4,82.4,44.3L82.4,44.3z"/></g><path fill="#603535" d="M80.9,48.9c-1.5,0.8-1.6-0.8-3.2-1.2c-1-0.2-2.1,0.1-2.7,1c-0.7-0.8-1.7-1.1-2.7-1 c-1.6,0.4-1.7,2-3.2,1.2c-0.2,0,4,4.2,5.9,1.3C76.9,53,81.1,48.9,80.9,48.9z"/><path fill="#e1e0d8" d="M65.8 71.8c-.2 0-.3-.1-.3-.3v-2.9c0-.2.1-.3.3-.3s.3.1.3.3v2.9C66.1 71.6 66 71.8 65.8 71.8zM85.3 72.3c-.2 0-.3-.1-.3-.3v-3.4c0-.2.1-.3.3-.3s.3.1.3.3V72C85.6 72.1 85.4 72.3 85.3 72.3z"/><path fill="#512c2b" d="M75,47.7c0.5,0,0.9-0.2,1.3-0.6c0,0,0-0.1,0-0.1l0,0c0,0-0.1,0-0.1,0c-0.3,0.3-0.7,0.5-1.1,0.4 c-0.4,0-0.8-0.1-1.1-0.4h-0.1l0,0c0,0,0,0.1,0,0.1c0,0,0,0,0,0C74.1,47.5,74.5,47.7,75,47.7z"/><path fill="#603535" d="M73.5 41.2l.3-.6c-1.3-.3-2.7-.3-4 .1l.4.6C71.2 40.9 72.4 40.9 73.5 41.2zM79.9 41.2l.3-.6c-1.3-.3-2.7-.3-4 .1l.4.6C77.7 40.9 78.8 40.9 79.9 41.2z"/><path fill="#512c2b" d="M71.6 42c-.3 0-.6.2-.7.5H71c.3.1.4.4.4.6 0 .2-.2.3-.4.4-.1 0-.2 0-.2-.1.1.4.4.8.8.8.6-.1 1-.8.9-1.4C72.4 42.4 72 42.1 71.6 42L71.6 42zM78.4 42c-.3 0-.5.2-.7.4.1 0 .1 0 .2 0 .3.1.4.4.4.6 0 .2-.2.3-.4.4-.2 0-.3-.1-.4-.2-.1.5.3 1 .9 1.1.6-.2 1-.8.8-1.4C79.1 42.4 78.8 42.1 78.4 42L78.4 42z"/><path fill="#895d3d" d="M83.7 45.4l-.6-.1.1-1.1-.6.3L82.4 44l1-.5c.1 0 .2 0 .3 0 .1.1.1.2.1.3L83.7 45.4zM66.4 45.2l-.2-1.6c0-.1 0-.2.1-.3s.2-.1.3 0l1.1.5-.2.5L66.9 44l.1 1.1L66.4 45.2z"/><path fill="#472b29" d="M75.8,73.9c-6.3,0-10.4-1.3-15.3-4.6c-0.1-0.1-0.2-0.3-0.2-0.5c0-0.3,0.4-6.7,0.4-6.7 c0,0,0-0.1,0-0.1c0.4-1.3,1.3-2.5,2.4-3.2c0.5-0.3,1.1-0.6,1.7-0.7l5-1.8c0.3-0.1,0.5-0.2,0.6-0.5c0-0.1,0-0.2,0-0.3 c-1-0.6-1.9-1.4-2.7-2.3C66.9,52.1,67,50.7,67,49l0-0.4c0-0.1-0.1-0.2-0.2-0.3c-0.1-0.1-0.3-0.2-0.4-0.2c-0.3-0.2-0.7-0.4-1-0.9 c-0.6-1.2-0.9-2.5-1.1-3.8c0-0.1,0-0.1,0-0.2c0.3-0.9,1-1.5,1.9-1.5h0.3c0.1,0,0.1,0,0.2,0c0-1,0-1.9,0.2-2.9l0-0.7 c0-3.4,3.5-6.2,7.9-6.3l0.2,0c4.4,0.2,7.9,2.9,7.9,6.3v0.4c0.2,1,0.3,2.1,0.2,3.2c0.1,0,0.1,0,0.2,0h0.3c0.9,0,1.7,0.6,2,1.5 c0,0.1,0,0.1,0,0.2c-0.1,1.3-0.5,2.6-1,3.8c-0.3,0.5-0.7,0.7-1,0.9c-0.1,0.1-0.3,0.2-0.4,0.3c-0.1,0-0.1,0.1-0.1,0.2l0,0.4 c0.1,1.7,0.2,3.2-0.7,4.4c-0.8,1-1.8,1.8-2.9,2.4c0,0.1,0,0.2,0.1,0.2c0.1,0.2,0.3,0.4,0.5,0.5c0.3,0.1,5.3,2,6.2,2.3l0.6,0.2 c1.5,0.4,2.6,1.7,2.7,3.3c0,0,0,0,0,0c0,0.1,0.4,7,0.4,7.9c0,0.2-0.1,0.4-0.3,0.5c-3.6,1.7-7.4,2.8-11.4,3.2 C77.4,73.9,76.6,73.9,75.8,73.9z M61.3,68.7c5.2,3.4,9.5,4.5,16.9,4.2c3.7-0.4,7.3-1.4,10.7-3c-0.1-1.7-0.4-7.2-0.4-7.6 c-0.1-1.1-0.9-2.1-2-2.4l-0.7-0.3c-0.9-0.4-6.1-2.3-6.1-2.3c-0.5-0.1-0.9-0.5-1.2-1c-0.1-0.3-0.2-0.6-0.2-0.9 c0-0.2,0.1-0.4,0.3-0.5c1.1-0.6,2.1-1.4,2.9-2.3c0.6-0.9,0.6-2.1,0.5-3.7l0-0.5c0-0.1,0-0.1,0-0.2c0.1-0.3,0.3-0.6,0.5-0.7 c0.2-0.1,0.4-0.2,0.5-0.3c0.3-0.2,0.5-0.3,0.6-0.5c0.5-1.1,0.8-2.2,0.9-3.4c-0.2-0.4-0.5-0.7-1-0.7h-0.3c-0.2,0-0.4,0-0.6,0.1 c-0.2,0-0.3,0-0.4-0.1c-0.1-0.1-0.2-0.3-0.2-0.4c0.1-1.2,0-2.5-0.2-3.7l0-0.5c0-2.9-3-5.2-6.9-5.4l-0.2,0C71,32.9,68,35.2,68,38.1 v0.8c-0.1,1.1-0.2,2.3-0.1,3.3c0,0.2-0.1,0.3-0.2,0.4c-0.1,0.1-0.3,0.1-0.4,0.1c-0.2,0-0.4-0.1-0.6-0.1h-0.3c-0.4,0-0.8,0.3-1,0.7 c0.1,1.2,0.4,2.3,0.9,3.4c0.1,0.2,0.3,0.3,0.6,0.5c0.2,0.1,0.3,0.2,0.5,0.3c0.3,0.3,0.5,0.6,0.6,1l0,0.5c-0.1,1.6-0.1,2.8,0.6,3.6 c0.7,0.9,1.6,1.6,2.7,2.2c0.2,0.1,0.3,0.3,0.3,0.4c0,0.4,0,0.7-0.1,1c-0.2,0.5-0.7,0.9-1.3,1.1l-4.9,1.8c-0.6,0.1-1,0.3-1.5,0.6 c-0.9,0.6-1.7,1.5-2,2.6C61.7,63,61.4,67.5,61.3,68.7z"/><path fill="#603535" d="M82.1,34.9c0.9,0.2,1.5,1,1.5,1.9c0,1.5-1.1,8.3-1.1,8.3l-2.2-6.9L82.1,34.9z"/><path fill="#512c2b" d="M73.9,30.6l-0.8-1.1c0,0,9.2-1,9.2,4.1c0.1,3.8-2.4,7.1-6,8.1l0.5-1.8l-3.6,1.9l0.4-1.1l-3,1.1 l1.1-2.5l-2.7,1c-0.6,1.6-1.1,3.2-1.4,4.8c0,0-2.1-7.1-0.7-7.7L66.3,37l0.6-1.3l-1-0.4l0.8-1.2l-0.4-0.5l1.8-1l-1-0.5 c0,0,3-2.5,6.6-1.6L73.9,30.6z"/><path fill="#fbcd59" d="M81.6,42h-0.3h-0.8c-0.5,0-0.9,0-1.4,0c-0.7,0-1.3,0-2,0.2h-0.2c-0.5,0.1-1,0.2-1.5,0.4 c-0.4,0.2-0.7,0.2-1.1,0h-0.1c-0.1-0.1-0.3-0.1-0.4-0.2l-0.3-0.1c-0.6-0.1-1.2-0.2-1.8-0.3c-0.4,0-0.8-0.1-1.3,0h-0.6h-0.6L68,42 c-0.3,0-0.6,0.1-0.9,0.2c0,0.1,0,0.1,0,0.2c0,0.2,0.1,0.3,0.1,0.5c0,0.2,0.1,0.4,0.1,0.6c0,0.2,0.2,0.3,0.6,0.4L68,44 c0.1,0.1,0.1,0.1,0.1,0.2l0,0c0.1,0.1,0.1,0.1,0.1,0.2c0.1,0.1,0.2,0.3,0.2,0.4c0.1,0.1,0.2,0.2,0.3,0.3c0.1,0.1,0.3,0.1,0.4,0.2 c1.1,0.2,2.2,0.3,3.3,0.2c0.6,0,1.1-0.4,1.3-1c0.1-0.2,0.1-0.3,0.2-0.5s0.1-0.2,0.1-0.3c0-0.1,0.2-0.2,0.3-0.2h0.4 c0.3,0,0.3,0,0.4,0.3l0.1,0.1c0.1,0.3,0.2,0.6,0.4,0.9c0.1,0.3,0.4,0.5,0.7,0.6c0.1,0,0.3,0.1,0.4,0.1c0.3,0,0.5,0,0.8,0 c0.7,0,1.5-0.1,2.2-0.2c0.6,0,1-0.4,1.3-0.9c0.1-0.2,0.2-0.3,0.3-0.5c0.1-0.1,0.2-0.1,0.3-0.1c0.3-0.1,0.4-0.2,0.5-0.3l0,0 c0,0,0.1,0,0.1-0.1c0,0,0,0,0,0c0-0.1,0-0.2,0-0.3s0.1-0.5,0.1-0.8S82.1,42.1,81.6,42z M77.6,42.5c0.3,0,0.5-0.1,0.8-0.1h1.3 c0.3,0,0.7,0,1,0.1s0.4,0.2,0.4,0.5c0,0.5-0.1,1-0.3,1.4c-0.1,0.1-0.2,0.2-0.3,0.3c-0.4,0.2-0.9,0.3-1.3,0.3c-0.6,0-1.2,0-1.8,0H77 c-0.4,0-0.7-0.2-0.9-0.6c-0.2-0.4-0.4-0.9-0.4-1.4c0-0.2,0.1-0.3,0.3-0.3c0.4-0.2,0.8-0.2,1.3-0.3L77.6,42.5z M73.7,43.3 c0,0.5-0.2,1-0.5,1.5c-0.2,0.2-0.4,0.3-0.7,0.3c-0.4,0-0.7,0-1,0l0,0c-0.7,0-1.3-0.1-2-0.2c-0.2-0.1-0.4-0.1-0.6-0.2 c-0.1-0.1-0.2-0.1-0.2-0.3c-0.2-0.4-0.3-0.9-0.3-1.4c0-0.4,0.1-0.5,0.4-0.5s0.7-0.1,1.1-0.1h0.5c0.9,0,1.8,0.1,2.7,0.3l0.2,0.1 C73.7,42.9,73.7,43,73.7,43.3L73.7,43.3z"/><path fill="#fdfcef" d="M64.7,33.7c0-5-5.4-9-12-9s-12.1,4-12.1,9s5.4,9,12.1,9h1.5c1.7,1.6,3.9,2.6,6.2,2.9 c0.4,0,0.7-0.2,0.8-0.6c0-0.1,0-0.3-0.1-0.4c-0.6-1.3-0.9-2.6-0.9-4l0,0C63.1,39,64.8,36.4,64.7,33.7"/><path fill="#472b29" d="M60.5,46.2c-0.1,0-0.1,0-0.2,0c-2.4-0.3-4.5-1.3-6.3-2.9h-1.3c-6.9,0-12.6-4.3-12.6-9.5 c0-5.2,5.6-9.5,12.6-9.5c6.8,0,12.3,4.1,12.5,9.2c0,0.1,0.1,0.1,0.1,0.2c0,2.9-1.6,5.5-4.5,7.3c0,1.2,0.3,2.4,0.8,3.5 c0.1,0.2,0.1,0.4,0.1,0.6C61.6,45.8,61.1,46.2,60.5,46.2z M52.7,25.2c-6.4,0-11.6,3.8-11.6,8.5c0,4.7,5.2,8.5,11.6,8.5h1.5 c0.1,0,0.2,0,0.3,0.1c1.7,1.5,3.7,2.5,5.9,2.8c0.1,0,0.2-0.1,0.2-0.1c-0.6-1.4-0.9-2.8-0.9-4.3c0-0.2,0.1-0.3,0.2-0.4 c2.6-1.6,4.2-3.9,4.3-6.4c0-0.1,0-0.1,0-0.2C64.2,29,59.1,25.2,52.7,25.2z"/><path fill="#ce9065" d="M44.2,61.8c-0.1-1.4-1.1-2.6-2.4-2.9l-0.3-0.1l-0.4-0.2c-0.9-0.4-6.3-2.3-6.3-2.3 c-0.4-0.1-0.7-0.4-0.9-0.8c-0.2-0.7-0.2-1.4-0.2-2.1c-1.2,0.4-2.4,0.7-3.6,1c-1.4,0.1-4.3-1.6-4.3-1.6s-0.1,2.2-0.2,2.7 c-0.1,0.4-0.5,0.7-0.9,0.8l-5.1,1.9c-0.6,0.1-1.1,0.4-1.6,0.7c-1.1,0.7-1.9,1.8-2.3,3c0,0-0.3,2.4-0.3,2.5c0,0.3-0.1,0.7-0.1,1.1 c5.6,3.8,10.1,4.8,17.8,4.5c4-0.4,7.9-1.5,11.5-3.3C44.5,63.6,44.2,61.8,44.2,61.8z"/><path fill="#fdfcef" d="M41.8,59l-0.3-0.1l-0.4-0.2c-0.6-0.2-2.8-1.1-4.5-1.7h-0.1c-1.8,0.9-4.4,2.3-6.8,2.3S25.1,58,23,57 l-0.2,0.1l-3.2,1.1c-0.6,0.1-1.1,0.4-1.6,0.7c-1.1,0.7-1.9,1.8-2.3,3c0,0-0.3,2.4-0.3,2.5c0,0.3-0.1,3.9-0.1,4.3 c5.6,3.8,10.1,4.9,17.8,4.5c4-0.4,7.9-1.5,11.5-3.3c-0.2-3-0.4-8-0.4-8C44.1,60.5,43.1,59.4,41.8,59z"/><path fill="#e1e0d8" d="M20.3 71.8c-.2 0-.3-.1-.3-.3v-2.9c0-.2.1-.3.3-.3s.3.1.3.3v2.9C20.5 71.6 20.4 71.8 20.3 71.8zM39.2 72.3c-.2 0-.3-.1-.3-.3v-3.4c0-.2.1-.3.3-.3s.3.1.3.3V72C39.5 72.1 39.4 72.3 39.2 72.3z"/><path fill="#db9e71" d="M38.6,42.7h-0.3c-0.7,0-0.9,0.3-0.9-0.2c0.1-0.8,0-3.9,0-4c0-3.2-3.3-5.8-7.5-6h-0.2 c-4.2,0.1-7.5,2.8-7.5,6c0,0.2-0.1,3.3,0,4c0,0.4-0.2,0.2-0.9,0.2H21c-0.7,0-1.3,0.5-1.5,1.1c0.2,1.3,0.6,2.5,1,3.7 c0.3,0.6,0.8,0.7,1.3,1c0.2,0.2,0.4,0.5,0.4,0.8c0.4,1.1,1,2.2,1.9,3c0.4,0.4,3.3,3.4,5.7,3.3s5.2-2.9,5.7-3.3 c0.9-0.8,1.6-1.8,1.9-3c0-0.3,0.2-0.6,0.4-0.8c0.5-0.4,1-0.5,1.3-1c0.4-1.2,0.8-2.5,1-3.7C39.9,43.2,39.3,42.7,38.6,42.7z"/><path fill="#512c2b" d="M29.9 48.5c.5 0 1-.2 1.3-.6 0 0 0-.1 0-.1 0 0 0 0 0 0l0 0c0 0-.1 0-.1 0-.6.6-1.6.6-2.3 0 0 0 0 0-.1 0h0c0 0 0 .1 0 .1 0 0 0 0 0 0C28.9 48.3 29.4 48.5 29.9 48.5zM28.3 42.6l.3-.6c-1.4-.3-2.8-.3-4.1.1l.4.6C26 42.3 27.2 42.3 28.3 42.6zM34.9 42.6l.3-.6c-1.4-.3-2.8-.3-4.1.1l.4.6C32.6 42.3 33.8 42.3 34.9 42.6zM26.4 43.4c-.3 0-.6.2-.8.5h.1c.3 0 .5.3.5.5 0 0 0 0 0 0 0 .3-.2.5-.5.5 0 0 0 0 0 0-.1 0-.2 0-.2-.1.1.4.4.8.9.8.6-.2 1-.8.9-1.4C27.2 43.9 26.8 43.6 26.4 43.4L26.4 43.4zM33.3 43.4c-.3 0-.5.2-.7.4.1 0 .1 0 .2 0 .3 0 .5.2.5.5 0 0 0 0 0 0 0 .3-.2.5-.5.5 0 0 0 0 0 0-.2 0-.3-.1-.4-.2-.1.5.3 1.1.9 1.1 0 0 0 0 0 0 .6-.2 1-.8.9-1.4C34.1 43.9 33.7 43.6 33.3 43.4L33.3 43.4z"/><path fill="#9d9fce" d="M31.3,63.4l1.5,9.9h-6.1l1.5-9.9c0.4-0.8,1.5-1.2,2.3-0.7C30.9,62.8,31.1,63,31.3,63.4z"/><path fill="#8889b9" d="M28.4,62L27,58.9h5.6L31.2,62c-0.4,0.8-1.4,1-2.2,0.6C28.7,62.5,28.5,62.2,28.4,62z"/><path fill="#e1e0d8" d="M24.7,56.1L23,57.3l3.7,5.6l3.4-4.3C30.1,58.6,25,57.3,24.7,56.1z"/><path fill="#e1e0d8" d="M34.9,56.1l1.7,1.2l-3.7,5.6l-3.4-4.3C29.5,58.6,34.6,57.3,34.9,56.1z"/><path fill="#472b29" d="M30.7,73.9c-6.5,0-10.7-1.3-15.6-4.7c-0.1-0.1-0.2-0.2-0.2-0.4c0-2.3,0.1-4.6,0.4-6.9 c0.3-1.5,1.2-2.7,2.5-3.4c0.5-0.3,1.1-0.6,1.7-0.7l5-1.9c0.3-0.1,0.5-0.2,0.6-0.5c0.1-0.4,0.1-0.9,0.1-1.4c-0.7-0.5-1.3-1-1.5-1.1 c-1-0.9-1.7-2-2.1-3.2c0-0.3-0.1-0.4-0.2-0.5c-0.1-0.1-0.2-0.1-0.3-0.2c-0.4-0.2-0.8-0.4-1.1-1c-0.6-1.3-0.9-2.6-1.1-4 c0-0.1,0-0.1,0-0.2c0.3-0.9,1.1-1.5,2-1.5h0.3c0.1,0,0.2,0,0.3,0c0-0.9,0-2.6,0.1-3.4l0-0.4c0-3.5,3.5-6.3,8-6.5l0.2,0 c4.5,0.1,8.1,3,8.1,6.5c0,0,0,0.3,0,0.5c0.1,1.2,0.2,2.5,0.2,3.2c0.1,0,0.1,0,0.2,0h0.3c0.9,0,1.7,0.6,2,1.5c0,0.1,0,0.1,0,0.2 c-0.1,1.4-0.5,2.7-1,3.9c-0.3,0.5-0.7,0.7-1,0.9c-0.1,0.1-0.3,0.2-0.5,0.3c-0.1,0.1-0.2,0.2-0.2,0.4c-0.4,1.3-1.1,2.5-2.1,3.3 c-0.5,0.4-1,0.9-1.6,1.2c0,0.4,0.1,0.9,0.2,1.3c0.1,0.2,0.3,0.4,0.5,0.4c0.3,0.1,5.4,2,6.3,2.4l0.7,0.3c1.5,0.4,2.6,1.7,2.7,3.3 c0,0,0,0,0,0l0.4,8c0,0.2-0.1,0.4-0.3,0.5c-3.7,1.8-7.6,2.9-11.7,3.4C32.3,73.8,31.5,73.9,30.7,73.9z M15.8,68.5 c5.3,3.5,9.7,4.6,17.3,4.3c3.8-0.4,7.5-1.5,11-3.1L43.7,62c-0.1-1.2-0.9-2.1-2-2.4l-0.7-0.3c-0.9-0.4-6.2-2.3-6.2-2.3 c-0.5-0.1-1-0.5-1.2-1.1c-0.2-0.7-0.3-1.3-0.2-1.9c0-0.2,0.1-0.3,0.2-0.4c0.6-0.4,1.1-0.8,1.7-1.3c0.8-0.7,1.5-1.7,1.8-2.8 c0-0.3,0.2-0.7,0.6-1c0.2-0.2,0.4-0.3,0.6-0.4c0.3-0.2,0.5-0.3,0.6-0.5c0.5-1.1,0.8-2.2,0.9-3.5c-0.2-0.4-0.6-0.7-1-0.7h-0.2 c-0.2,0-0.3,0-0.4,0c-0.2,0-0.4,0-0.6-0.2c-0.2-0.2-0.2-0.4-0.2-0.7c0-0.5-0.1-2.4-0.2-3.3c0-0.3,0-0.6,0-0.6 c0-2.9-3.2-5.4-7.1-5.5h-0.1c-3.9,0.1-7,2.6-7,5.5c0,0,0,0.2,0,0.4c0,0.8-0.1,3,0,3.6c0,0.2,0,0.4-0.2,0.6 c-0.2,0.2-0.5,0.1-0.6,0.1c-0.1,0-0.3,0-0.5,0l-0.3,0c-0.4,0-0.8,0.3-1,0.7c0.1,1.2,0.4,2.4,0.9,3.5c0.1,0.2,0.3,0.4,0.7,0.5 c0.2,0.1,0.3,0.2,0.5,0.3c0.4,0.3,0.6,0.7,0.6,1.1c0.3,1,0.9,1.9,1.8,2.7c0.2,0.2,0.8,0.6,1.6,1.2c0.1,0.1,0.2,0.3,0.2,0.4 c0,0.6-0.1,1.2-0.1,1.8c0,0,0,0.1,0,0.1c-0.2,0.6-0.7,1-1.3,1.2l-5,1.8c-0.6,0.2-1.1,0.4-1.5,0.7c-1.1,0.6-1.8,1.5-2.1,2.7 C15.9,64.2,15.8,66.4,15.8,68.5z"/><path fill="#895d3d" d="M38.8 46.2l-.6-.1.1-1.1-.6.3-.2-.5 1.1-.5c.1 0 .2 0 .3 0 .1.1.1.2.1.3L38.8 46.2zM21.1 46L21 44.3c0-.1 0-.2.1-.3.1-.1.2-.1.3 0l1.1.5L22.2 45l-.6-.3.1 1.1L21.1 46z"/><path fill="#472b29" d="M22.2 49.2C22.2 49.2 22.2 49.2 22.2 49.2c-.1 0-.2-.1-.2-.2l.1-6.2c0-.1.1-.2.2-.2 0 0 0 0 0 0 .1 0 .2.1.2.2L22.4 49C22.4 49.1 22.3 49.2 22.2 49.2zM37.6 49.2c-.1 0-.2-.1-.2-.2l-.1-6.2c0-.1.1-.2.2-.2.1 0 .2.1.2.2l.1 6.2C37.8 49.1 37.7 49.2 37.6 49.2 37.6 49.2 37.6 49.2 37.6 49.2z"/><path fill="#512c2b" d="M34.1,51.2c-0.2-0.8-0.3-1.3-1.1-1.6c-0.7-0.2-1.5-0.3-2.3-0.3c-0.4,0-0.7,0-1.1,0.1 c-0.4,0-0.7-0.1-1.1-0.1c-0.8,0-1.5,0.1-2.3,0.3c-0.8,0.3-1,1.6-1,1.6c-0.1,1.4,0.3,3.2,1.6,3.9l0,0c0.3,0.2,0.7,0.3,1,0.4 c0.6,1.1,1.9,1.5,3,0.9c0.4-0.2,0.7-0.5,0.9-0.9c0.3-0.1,0.6-0.3,0.9-0.4c0.3-0.3,0.7-0.6,0.9-1c0,0,0.1-0.1,0.1-0.1 C34,53.2,34.1,52.2,34.1,51.2z M31.8,54.4c-0.4,0.3-0.9,0.5-1.2,0s-0.4-0.7,0.2-0.7c0.3-0.6-0.5-0.8-1.1-0.8s-1.4,0.2-1.1,0.8 c0.6,0,0.4,0.3,0.2,0.7s-0.8,0.2-1.2,0c-1.1-0.6-1.7-1.9-1.4-3.2c0.5-1.6,1.2-0.3,2.2-0.1c0.3,0,0.7,0,1-0.1l0.3-0.1l0.3,0.1 c0.3,0.1,0.7,0.2,1,0.1c0.9-0.2,1.7-1.5,2.2,0.1C33.4,52.5,32.9,53.8,31.8,54.4z"/><path fill="#512c2b" d="M33.7,51c0,0,0-0.1,0-0.2l0,0c0,0-0.1,0-0.1,0c0,0,0,0,0,0c-1.1,0.9-2.5,1.4-3.9,1.3 c-1.4,0.1-2.8-0.4-3.9-1.3c0,0,0,0-0.1,0c0,0,0,0-0.1,0c0,0,0,0.1,0,0.2C27.9,53.1,31.4,53.1,33.7,51L33.7,51z"/><g><path fill="#f1bc19" d="M52,35.2c0,0,0-0.1,0-0.1v-0.1c0-0.3,0-0.6,0.1-0.9c0.1-0.3,0.2-0.5,0.4-0.8 c0.1-0.2,0.3-0.4,0.5-0.6c0.2-0.2,0.3-0.4,0.5-0.6c0.1-0.2,0.3-0.4,0.3-0.6c0.1-0.2,0.2-0.5,0.2-0.8c0-0.4-0.1-0.8-0.4-1 c-0.3-0.3-0.7-0.4-1.1-0.4c-0.3,0-0.5,0-0.8,0.1c-0.2,0-0.3,0.1-0.5,0.2c-0.1,0.1-0.2,0.1-0.3,0.2c-0.1,0.1-0.1,0.2-0.2,0.3 c0.2,0,0.4,0.1,0.5,0.3c0.1,0.2,0.2,0.4,0.2,0.6c0,0.3-0.1,0.5-0.2,0.7c-0.2,0.2-0.5,0.3-0.8,0.3c-0.3,0-0.5-0.1-0.7-0.3 c-0.2-0.2-0.3-0.5-0.3-0.8c0-0.3,0.1-0.5,0.2-0.8c0.1-0.3,0.3-0.6,0.5-0.8c0.3-0.3,0.6-0.5,1-0.6c0.5-0.2,1.1-0.3,1.6-0.2 c0.4,0,0.9,0,1.3,0.1c0.4,0.1,0.7,0.2,1,0.4c0.3,0.2,0.5,0.4,0.7,0.7c0.2,0.3,0.3,0.7,0.3,1.1c0,0.3-0.1,0.7-0.2,1 c-0.1,0.3-0.3,0.5-0.5,0.8c-0.2,0.2-0.5,0.4-0.7,0.6c-0.3,0.2-0.5,0.4-0.7,0.6c-0.2,0.2-0.4,0.5-0.6,0.7c-0.2,0.3-0.3,0.6-0.3,1 L52,35.2z M53.6,37.5c0,0.3-0.1,0.6-0.3,0.8c-0.4,0.4-1.1,0.4-1.5,0c-0.2-0.2-0.3-0.5-0.3-0.8c0-0.6,0.5-1.1,1.1-1.1 c0.3,0,0.6,0.1,0.8,0.3C53.5,37,53.6,37.3,53.6,37.5L53.6,37.5z"/><path fill="#472b29" d="M52.5,38.9c-0.3,0-0.7-0.1-0.9-0.4c-0.3-0.2-0.4-0.6-0.4-0.9c0-0.3,0.1-0.7,0.4-0.9 s0.6-0.4,0.9-0.4c0,0,0,0,0,0c0.3,0,0.7,0.1,0.9,0.4c0.2,0.2,0.4,0.6,0.4,0.9c0,0,0,0.1,0,0.1c0,0.3-0.2,0.6-0.4,0.9 C53.2,38.7,52.8,38.9,52.5,38.9z M52.5,36.7C52.5,36.7,52.5,36.7,52.5,36.7c-0.2,0-0.4,0.1-0.6,0.2c-0.2,0.2-0.2,0.4-0.2,0.6 c0,0.2,0.1,0.4,0.2,0.6c0.3,0.3,0.8,0.3,1.2,0c0.2-0.2,0.3-0.4,0.2-0.6c0,0,0,0,0-0.1c0-0.2-0.1-0.4-0.3-0.5 C52.9,36.8,52.7,36.7,52.5,36.7z M52,35.4c-0.1,0-0.2-0.1-0.2-0.2c0-0.1,0-0.1,0-0.2l0-0.1c0-0.3,0-0.7,0.2-1 c0.1-0.3,0.2-0.6,0.4-0.8c0.1-0.2,0.3-0.5,0.5-0.7c0.2-0.2,0.3-0.4,0.4-0.6c0.1-0.2,0.2-0.4,0.3-0.6c0.1-0.2,0.1-0.5,0.1-0.7 c0-0.3-0.1-0.6-0.3-0.9c-0.2-0.2-0.6-0.4-0.9-0.3c-0.3,0-0.5,0-0.7,0.1c-0.1,0-0.3,0.1-0.4,0.2c-0.1,0-0.2,0.1-0.2,0.1 c0.1,0.1,0.2,0.1,0.3,0.2c0.2,0.2,0.3,0.5,0.3,0.8c0,0.3-0.1,0.6-0.3,0.9c-0.3,0.3-0.6,0.4-1,0.4c-0.3,0-0.6-0.1-0.9-0.4 c-0.2-0.3-0.3-0.6-0.3-0.9c0-0.3,0.1-0.6,0.2-0.9c0.1-0.3,0.3-0.6,0.6-0.9c0.3-0.3,0.7-0.5,1.1-0.7c0.6-0.2,1.1-0.3,1.7-0.3 c0,0,0,0,0,0c0.4,0,0.9,0,1.3,0.1c0.4,0.1,0.7,0.2,1.1,0.4c0.3,0.2,0.6,0.5,0.8,0.8c0.2,0.4,0.4,0.8,0.4,1.2 c0,0.4-0.1,0.8-0.2,1.1c-0.2,0.3-0.4,0.6-0.6,0.8c-0.2,0.2-0.5,0.4-0.7,0.6c-0.3,0.2-0.5,0.4-0.7,0.6c-0.2,0.2-0.4,0.4-0.6,0.7 c-0.2,0.3-0.3,0.6-0.3,0.9c0,0.1-0.1,0.2-0.2,0.2L52,35.4C52,35.4,52,35.4,52,35.4z M52.5,28.8c0.4,0,0.9,0.2,1.2,0.5 c0.3,0.4,0.5,0.8,0.5,1.2c0,0.3-0.1,0.6-0.2,0.9c-0.1,0.2-0.2,0.5-0.4,0.7c-0.1,0.2-0.3,0.4-0.5,0.6c-0.2,0.2-0.3,0.4-0.4,0.6 c-0.1,0.2-0.3,0.5-0.3,0.7c-0.1,0.3-0.1,0.6-0.1,0.9v0l0.4,0c0-0.3,0.2-0.6,0.3-0.9c0.2-0.3,0.4-0.6,0.7-0.8 c0.2-0.2,0.5-0.4,0.8-0.6c0.2-0.2,0.5-0.4,0.7-0.6c0.2-0.2,0.4-0.4,0.5-0.7c0.1-0.3,0.2-0.6,0.2-0.9c0-0.3-0.1-0.7-0.3-1 c-0.2-0.3-0.4-0.5-0.6-0.6c-0.3-0.2-0.6-0.3-0.9-0.3c-0.4-0.1-0.8-0.1-1.2-0.1c0,0,0,0,0,0c-0.5,0-1,0.1-1.5,0.2 c-0.3,0.1-0.6,0.3-0.9,0.5c-0.2,0.2-0.4,0.4-0.5,0.7c-0.1,0.2-0.1,0.5-0.1,0.7c0,0.2,0.1,0.4,0.2,0.6c0.1,0.1,0.3,0.2,0.5,0.2 c0.2,0,0.5-0.1,0.6-0.2c0.1-0.1,0.2-0.3,0.2-0.5c0-0.2,0-0.3-0.2-0.4c-0.1-0.1-0.2-0.2-0.4-0.2c-0.1,0-0.2-0.1-0.2-0.1 c0-0.1,0-0.2,0-0.3c0.1-0.1,0.1-0.2,0.2-0.3c0.1-0.1,0.3-0.2,0.4-0.3c0.2-0.1,0.4-0.1,0.5-0.2c0.3,0,0.6-0.1,0.8-0.1 C52.5,28.8,52.5,28.8,52.5,28.8z"/></g></svg>