<svg xmlns="http://www.w3.org/2000/svg" viewBox="0 0 128 128"><path fill="#fff" d="M56,42h16c5.5,0,10,4.5,10,10V82c0,0,0,0,0,0l-6,0l0,31.7c0,3.1-2.2,5.9-5.3,6.2c-3.5,0.4-6.4-2.1-6.7-5.4c0,0,0,0,0,0c-0.3,3.3-3.3,5.8-6.7,5.4c-3.1-0.4-5.3-3.1-5.3-6.2L52,82c0,0,0,0,0,0H52c0,0,0,0,0,0l12,0L46,62V52C46,46.5,50.5,42,56,42z"/><path fill="#444b54" d="M70,123c-5,0-9-4-9-9c0-1.7,1.3-3,3-3c1.7,0,3,1.3,3,3c0,1.7,1.3,3,3,3s3-1.3,3-3V82c0-1.7,1.3-3,3-3h3V52c0-3.9-3.1-7-7-7H56c-3.9,0-7,3.1-7,7v8.8L66.2,80c1.1,1.2,1,3.1-0.2,4.2c-1.2,1.1-3.1,1-4.2-0.2l-18-20c-0.5-0.6-0.8-1.3-0.8-2V52c0-7.2,5.8-13,13-13h16c7.2,0,13,5.8,13,13v30c0,1.7-1.3,3-3,3h-3v29C79,119,75,123,70,123z"/><path fill="#444b54" d="M58,123c-5,0-9-4-9-9V85c0-1.7,1.3-3,3-3s3,1.3,3,3v29c0,1.7,1.3,3,3,3s3-1.3,3-3V92c0-1.7,1.3-3,3-3c1.7,0,3,1.3,3,3v22C67,119,63,123,58,123z"/><path fill="#fff" d="M64 12A10 10 0 1 0 64 32A10 10 0 1 0 64 12Z"/><path fill="#444b54" d="M64,35c-7.2,0-13-5.8-13-13S56.8,9,64,9c7.2,0,13,5.8,13,13S71.2,35,64,35z M64,15c-3.9,0-7,3.1-7,7s3.1,7,7,7c3.9,0,7-3.1,7-7S67.9,15,64,15z"/></svg>