<?xml version="1.0"?><svg xmlns="http://www.w3.org/2000/svg" viewBox="0 0 30 30">    <path d="M 29.642578 0.005859375 L 26.736328 0.79882812 C 26.301328 0.91782812 26 1.3126719 26 1.7636719 L 26 6.4082031 C 26 7.6552031 23 6.7338906 23 9.3378906 C 23 10.337891 23.592422 11 24.732422 11 C 26.492422 11 27 9.6627344 27 8.1777344 L 27 3.3867188 L 29.75 2.5644531 C 29.895 2.5354531 30 2.4077656 30 2.2597656 L 30 0.29882812 C 30 0.10982813 29.827578 -0.031140625 29.642578 0.005859375 z M 7 4 A 1.0001 1.0001 0 0 0 6.3164062 4.2851562 C 5.0388008 4.6287724 4 5.6206086 4 7 L 4 18.621094 C 3.3638339 19.350719 3 20.1528 3 21 C 3 21.919682 3.4264546 22.787438 4.1660156 23.566406 A 1.0001 1.0001 0 0 0 4.4160156 23.824219 C 6.4369402 25.713149 10.416424 27 15 27 C 21.627 27 27 24.314 27 21 C 27 18.783105 24.578419 16.859395 21 15.822266 L 21 7 C 21 5.6206086 19.961199 4.6287724 18.683594 4.2851562 A 1.0001 1.0001 0 0 0 18 4 C 16.35503 4 15 5.3550302 15 7 L 10 7 C 10 5.3550302 8.6449698 4 7 4 z M 7 6 C 7.5650302 6 8 6.4349698 8 7 L 8 16.132812 L 8 23.732422 C 7.17 23.379422 6.496 22.982266 6 22.572266 L 6 17.041016 L 6 7 C 6 6.4349698 6.4349698 6 7 6 z M 18 6 C 18.56503 6 19 6.4349698 19 7 L 19 15.349609 L 19 24 L 19 24.628906 C 18.374 24.750906 17.706 24.844203 17 24.908203 L 17 15.089844 L 17 7 C 17 6.4349698 17.43497 6 18 6 z M 10 9 L 15 9 L 15 11 L 10 11 L 10 9 z M 10 13 L 15 13 L 15 15 L 10 15 L 10 13 z M 10 17 L 15 17 L 15 19 L 10 19 L 10 17 z M 10 21 L 15 21 L 15 23 L 10 23 L 10 21 z"/></svg>