<svg xmlns="http://www.w3.org/2000/svg" viewBox="0 0 26 26"><path d="M 13 0.1875 C 5.925781 0.1875 0.1875 5.925781 0.1875 13 C 0.1875 20.074219 5.925781 25.8125 13 25.8125 C 20.074219 25.8125 25.8125 20.074219 25.8125 13 C 25.8125 5.925781 20.074219 0.1875 13 0.1875 Z M 13 2.1875 C 18.960938 2.1875 23.8125 7.039063 23.8125 13 C 23.8125 18.960938 18.960938 23.8125 13 23.8125 C 7.039063 23.8125 2.1875 18.960938 2.1875 13 C 2.1875 7.039063 7.039063 2.1875 13 2.1875 Z M 11.9375 3.65625 C 10.832031 3.65625 9.9375 4.550781 9.9375 5.65625 C 9.9375 6.761719 10.832031 7.65625 11.9375 7.65625 C 13.042969 7.65625 13.9375 6.761719 13.9375 5.65625 C 13.9375 4.550781 13.042969 3.65625 11.9375 3.65625 Z M 13.65625 8.09375 L 11.1875 8.625 C 10.902344 8.683594 10.703125 8.941406 10.6875 9.21875 C 10.675781 9.238281 10.664063 9.261719 10.65625 9.28125 L 9.65625 12.21875 L 7.53125 14 C 7.167969 14.300781 7.121094 14.839844 7.421875 15.203125 C 7.722656 15.566406 8.261719 15.613281 8.625 15.3125 L 10.9375 13.34375 C 11.046875 13.253906 11.132813 13.132813 11.1875 13 L 11.34375 12.53125 L 11.78125 14.5625 L 10.3125 16.5 C 10.210938 16.625 10.144531 16.777344 10.125 16.9375 L 9.84375 20.625 C 9.808594 21.101563 10.164063 21.511719 10.640625 21.546875 C 11.117188 21.582031 11.527344 21.226563 11.5625 20.75 L 11.78125 17.34375 L 13.40625 15.21875 C 13.417969 15.207031 13.425781 15.199219 13.4375 15.1875 L 14.0625 15.0625 L 15.25 18.46875 C 15.28125 18.546875 15.324219 18.621094 15.375 18.6875 L 17.25 21.1875 C 17.421875 21.449219 17.726563 21.597656 18.039063 21.570313 C 18.351563 21.539063 18.621094 21.34375 18.746094 21.054688 C 18.867188 20.765625 18.820313 20.433594 18.625 20.1875 L 16.78125 17.75 L 15.5625 14.25 C 15.554688 14.207031 15.542969 14.164063 15.53125 14.125 L 14.71875 10.1875 L 16.3125 10.8125 L 18.125 13.40625 C 18.273438 13.707031 18.585938 13.890625 18.921875 13.878906 C 19.257813 13.867188 19.550781 13.65625 19.675781 13.347656 C 19.800781 13.035156 19.734375 12.679688 19.5 12.4375 L 17.53125 9.59375 C 17.433594 9.464844 17.304688 9.371094 17.15625 9.3125 L 14.21875 8.1875 C 14.140625 8.152344 14.054688 8.132813 13.96875 8.125 C 13.867188 8.09375 13.765625 8.070313 13.65625 8.09375 Z"/></svg>