<?xml version="1.0"?><svg xmlns="http://www.w3.org/2000/svg" viewBox="0 0 24 24">    <path d="M 9 2 L 9 4 L 6 4 L 6 22 L 14 22 L 14 18 C 14 17.293 14.268578 16.644 14.642578 16 L 14 16 L 12 16 L 12 14 C 12 11.595 13.912 9 17 9 L 18 9 L 18 4 L 15 4 L 15 2 L 9 2 z M 17 11 C 14.954 11 14 12.79 14 14 L 16 14 C 16 13.835 16.174 13 17 13 C 17.989 13 18 13.99 18 14 C 18 15.054 16 17.025 16 18 L 18 18 C 18 17.014 20 15.422 20 14 C 20 12.525 18.878 11 17 11 z M 16 20 L 16 22 L 18 22 L 18 20 L 16 20 z"/></svg>