<svg xmlns="http://www.w3.org/2000/svg" viewBox="0 0 26 26"><path d="M 12.15625 6.03125 C 11.652344 6.054688 11.136719 6.199219 10.6875 6.5 L 1.8125 12.3125 C 1.3125 12.613281 1 13.085938 1 13.6875 L 1 14.3125 C 1 14.8125 1.1875 15.292969 1.6875 15.59375 L 1.90625 15.8125 C 1.976563 15.882813 2.109375 15.929688 2.28125 16 L 0 16 L 0 18 L 9.6875 18 L 11.5 20.90625 C 11.898438 21.507813 12.585938 21.613281 13.1875 21.3125 C 13.789063 20.914063 13.894531 20.195313 13.59375 19.59375 L 10.8125 15.1875 C 10.613281 14.886719 10.394531 14.789063 10.09375 14.6875 L 7.6875 14.3125 L 12.40625 11.3125 C 12.707031 11.113281 13.113281 11.207031 13.3125 11.40625 L 17.5 15.5 C 17.738281 15.738281 18.023438 15.894531 18.3125 16 L 12.8125 16 L 14 18 L 26 18 L 26 16 L 19.6875 16 L 25.09375 14.3125 C 25.792969 14.011719 26.207031 13.207031 25.90625 12.40625 C 25.707031 11.707031 24.886719 11.300781 24.1875 11.5 L 19.59375 13 L 14.40625 7 C 13.84375 6.3125 12.996094 5.992188 12.15625 6.03125 Z"/></svg>