<svg xmlns="http://www.w3.org/2000/svg" viewBox="0 0 64 64"><radialGradient id="9qnQTmY1Hodihla~NhTFHa" cx="32" cy="31.5" r="31.259" gradientUnits="userSpaceOnUse" spreadMethod="reflect"><stop offset="0" stop-color="#eed7a2"/><stop offset=".106" stop-color="#f1dcab"/><stop offset=".437" stop-color="#f8e8c3"/><stop offset=".744" stop-color="#fcefd2"/><stop offset="1" stop-color="#fef2d7"/></radialGradient><path fill="url(#9qnQTmY1Hodihla~NhTFHa)" d="M57,54c-1.105,0-2-0.895-2-2c0-1.105,0.895-2,2-2h1.5c1.925,0,3.5-1.575,3.5-3.5 S60.425,43,58.5,43H50c-1.381,0-2.5-1.119-2.5-2.5c0-1.381,1.119-2.5,2.5-2.5h8c1.65,0,3-1.35,3-3c0-1.65-1.35-3-3-3H42v-6h18 c2.335,0,4.22-2.028,3.979-4.41C63.77,19.514,61.897,18,59.811,18H59c-1.105,0-2-0.895-2-2c0-1.105,0.895-2,2-2h0.357 c1.308,0,2.499-0.941,2.63-2.242C62.137,10.261,60.966,9,59.5,9h-15C43.672,9,43,8.328,43,7.5S43.672,6,44.5,6h3.857 c1.308,0,2.499-0.941,2.63-2.242C51.137,2.261,49.966,1,48.5,1L15.643,1c-1.308,0-2.499,0.941-2.63,2.242 C12.863,4.739,14.034,6,15.5,6H19c1.105,0,2,0.895,2,2c0,1.105-0.895,2-2,2H6.189c-2.086,0-3.958,1.514-4.168,3.59 C1.78,15.972,3.665,18,6,18h2.5c1.933,0,3.5,1.567,3.5,3.5c0,1.933-1.567,3.5-3.5,3.5H5.189c-2.086,0-3.958,1.514-4.168,3.59 C0.78,30.972,2.665,33,5,33h17v11H6c-1.65,0-3,1.35-3,3c0,1.65,1.35,3,3,3h0c1.105,0,2,0.895,2,2c0,1.105-0.895,2-2,2H4.189 c-2.086,0-3.958,1.514-4.168,3.59C-0.22,59.972,1.665,62,4,62h52.811c2.086,0,3.958-1.514,4.168-3.59C61.22,56.028,59.335,54,57,54z"/><linearGradient id="9qnQTmY1Hodihla~NhTFHb" x1="32.5" x2="32.5" y1="74.094" y2="10.539" gradientUnits="userSpaceOnUse" spreadMethod="reflect"><stop offset="0" stop-color="#3cb5ea"/><stop offset="1" stop-color="#7ddefb"/></linearGradient><path fill="url(#9qnQTmY1Hodihla~NhTFHb)" d="M51,12H14c-2.209,0-4,1.791-4,4v36c0,2.209,1.791,4,4,4h37c2.209,0,4-1.791,4-4V16 C55,13.791,53.209,12,51,12z"/><linearGradient id="9qnQTmY1Hodihla~NhTFHc" x1="32.5" x2="32.5" y1="20" y2="12" gradientUnits="userSpaceOnUse" spreadMethod="reflect"><stop offset="0" stop-color="#3281e6"/><stop offset="1" stop-color="#3a99eb"/></linearGradient><path fill="url(#9qnQTmY1Hodihla~NhTFHc)" d="M10,16v4h45v-4c0-2.209-1.791-4-4-4H14C11.791,12,10,13.791,10,16z"/><linearGradient id="9qnQTmY1Hodihla~NhTFHd" x1="32.5" x2="32.5" y1="46" y2="28" gradientUnits="userSpaceOnUse" spreadMethod="reflect"><stop offset="0" stop-color="#2675c2"/><stop offset="1" stop-color="#308ad5"/></linearGradient><path fill="url(#9qnQTmY1Hodihla~NhTFHd)" d="M40,46H29c-1.105,0-2-0.895-2-2v0c0-1.105,0.895-2,2-2h11c1.105,0,2,0.895,2,2v0 C42,45.105,41.105,46,40,46z M46,37L46,37c0-1.105-0.895-2-2-2H29c-1.105,0-2,0.895-2,2v0c0,1.105,0.895,2,2,2h15 C45.105,39,46,38.105,46,37z M46,30L46,30c0-1.105-0.895-2-2-2H29c-1.105,0-2,0.895-2,2v0c0,1.105,0.895,2,2,2h15 C45.105,32,46,31.105,46,30z M24,44L24,44c0-1.105-0.895-2-2-2h-1c-1.105,0-2,0.895-2,2v0c0,1.105,0.895,2,2,2h1 C23.105,46,24,45.105,24,44z M24,37L24,37c0-1.105-0.895-2-2-2h-1c-1.105,0-2,0.895-2,2v0c0,1.105,0.895,2,2,2h1 C23.105,39,24,38.105,24,37z M24,30L24,30c0-1.105-0.895-2-2-2h-1c-1.105,0-2,0.895-2,2v0c0,1.105,0.895,2,2,2h1 C23.105,32,24,31.105,24,30z"/><linearGradient id="9qnQTmY1Hodihla~NhTFHe" x1="50" x2="50" y1="64" y2="12.712" gradientUnits="userSpaceOnUse" spreadMethod="reflect"><stop offset="0" stop-color="#ff634d"/><stop offset=".225" stop-color="#fd6467"/><stop offset=".528" stop-color="#fc6583"/><stop offset=".793" stop-color="#fa6694"/><stop offset=".989" stop-color="#fa669a"/></linearGradient><path fill="url(#9qnQTmY1Hodihla~NhTFHe)" d="M50,39L50,39c1.237,0,2.379,0.663,2.992,1.736l10.591,18.535 C63.856,59.749,64,60.289,64,60.839v0.001c0,1.745-1.415,3.16-3.16,3.16H39.16C37.415,64,36,62.585,36,60.84v-0.001 c0-0.55,0.144-1.09,0.416-1.568l10.591-18.535C47.621,39.663,48.763,39,50,39z"/><path fill="#fff" d="M50 57A2 2 0 1 0 50 61 2 2 0 1 0 50 57zM50 55L50 55c-1.1 0-2-.9-2-2v-6c0-1.1.9-2 2-2h0c1.1 0 2 .9 2 2v6C52 54.1 51.1 55 50 55z"/></svg>