<?xml version="1.0"?><svg xmlns="http://www.w3.org/2000/svg" viewBox="0 0 24 24">    <path d="M 5.5214844 3 L 2.8007812 8 L 1 8 L 1 15 L 3.3515625 15 C 3.915565 16.178063 5.1089989 17 6.5 17 C 7.8910011 17 9.084435 16.178063 9.6484375 15 L 13.351562 15 C 13.915565 16.178063 15.108999 17 16.5 17 C 17.891001 17 19.084435 16.178063 19.648438 15 L 23 15 L 23 9.1855469 L 18.800781 8.3398438 L 13.417969 3 L 12.169922 3 L 6.7207031 3 L 5.5214844 3 z M 6.7207031 5 L 12.582031 5 L 15.615234 8 L 5.0800781 8 C 5.0800781 8 6.7007031 5.058 6.7207031 5 z M 6.5 12 C 7.327 12 8 12.673 8 13.5 C 8 14.327 7.327 15 6.5 15 C 5.673 15 5 14.327 5 13.5 C 5 12.673 5.673 12 6.5 12 z M 16.5 12 C 17.327 12 18 12.673 18 13.5 C 18 14.327 17.327 15 16.5 15 C 15.673 15 15 14.327 15 13.5 C 15 12.673 15.673 12 16.5 12 z M 11 17 L 11 19 L 1.5 19 L 1.5 21 L 22.5 21 L 22.5 19 L 13 19 L 13 17 L 11 17 z"/></svg>