<?xml version="1.0"?><svg xmlns="http://www.w3.org/2000/svg" viewBox="0 0 30 30">    <path d="M 9.5 2 C 8.948 2 8.5 2.448 8.5 3 L 8.5 5 C 8.5 5.3659254 8.7064669 5.6733477 9 5.8476562 L 9 11.076172 C 6.4970444 11.42443 4.5996094 13.044831 4.5996094 15 C 4.5996094 15.623 4.7965781 16.208469 5.1425781 16.730469 C 5.6505781 17.495469 5.6279219 18.4785 5.0449219 19.1875 C 4.3869219 19.9885 4 20.956 4 22 C 4 24.761 6.686 27 10 27 C 10.339 27 10.670141 26.970781 10.994141 26.925781 L 11 25.994141 C 11 25.994141 11.003906 25.279547 11.003906 24.810547 C 11.003906 23.154547 12.546641 22.001953 13.931641 22.001953 C 14.408641 22.001953 14.852469 22.104234 15.230469 22.240234 L 15.988281 21.876953 C 15.958281 20.880953 15.587078 19.9565 14.955078 19.1875 C 14.372078 18.4785 14.349422 17.495469 14.857422 16.730469 C 15.204422 16.208469 15.400391 15.623 15.400391 15 C 15.400391 13.613 14.447 12.393781 13 11.675781 L 13 13 C 13 13.552 12.552 14 12 14 C 11.448 14 11 13.552 11 13 L 11 12 L 11 11.074219 L 11 5.8476562 C 11.293533 5.6733477 11.5 5.3659254 11.5 5 L 11.5 3 C 11.5 2.448 11.052 2 10.5 2 L 9.5 2 z M 21 7 L 21 9.0996094 C 19.513472 9.3464235 18 10 18 10 L 18.583984 17.007812 L 18.744141 17.007812 C 20.523141 17.007812 22.031406 18.244187 22.316406 18.492188 L 22.919922 19.017578 L 22.994141 19.8125 C 22.994141 19.8135 23.021641 19.917047 23.056641 19.998047 C 23.531641 19.976047 24.234844 19.693141 24.589844 19.494141 L 25.599609 18.912109 L 26 10 C 26 10 24.486528 9.3464235 23 9.0996094 L 23 7 L 21 7 z M 10 16 C 11.105 16 12 16.895 12 18 C 12 19.105 11.105 20 10 20 C 8.895 20 8 19.105 8 18 C 8 16.895 8.895 16 10 16 z M 18.744141 19.005859 L 19.001953 22 L 17.556641 23.339844 L 15.216797 24.464844 C 15.216797 24.464844 14.573641 24 13.931641 24 C 13.595641 24 13.003906 24.335547 13.003906 24.810547 C 13.003906 25.285547 13 26.005859 13 26.005859 C 13 26.005859 14.327 27 16 27 L 19 27 C 19.68 27 21.26 26.42 22 26 L 22 27 L 25 27 L 25.462891 24.595703 C 25.462891 24.595703 26 23.848 26 23 C 26 22.105 25.704937 21.524562 25.585938 21.226562 C 25.585938 21.226563 24.242 22 23 22 C 21.19 22 21.001953 19.998047 21.001953 19.998047 C 21.001953 19.998047 19.864141 19.005859 18.744141 19.005859 z"/></svg>