<svg xmlns="http://www.w3.org/2000/svg" viewBox="0 0 100 100"><path d="M 50 14 C 30.129581 14 14 30.129595 14 50 C 14 69.870405 30.129581 86 50 86 C 69.870419 86 86 69.870405 86 50 C 86 30.129595 69.870419 14 50 14 z M 50 16 C 68.78954 16 84 31.210473 84 50 C 84 68.789527 68.78954 84 50 84 C 31.21046 84 16 68.789527 16 50 C 16 31.210473 31.21046 16 50 16 z M 50 19 C 32.884791 19 19 32.884791 19 50 C 19 67.115209 32.884791 81 50 81 C 67.115209 81 81 67.115209 81 50 C 81 40.904382 77.079076 32.716819 70.835938 27.046875 A 0.50005 0.50005 0 1 0 70.164062 27.787109 C 76.206924 33.275165 80 41.191618 80 50 C 80 66.574791 66.574791 80 50 80 C 33.425209 80 20 66.574791 20 50 C 20 33.425209 33.425209 20 50 20 C 53.630741 20 57.108062 20.645941 60.328125 21.826172 A 0.50018397 0.50018397 0 1 0 60.671875 20.886719 C 57.343938 19.66695 53.749259 19 50 19 z M 63.480469 22.140625 A 0.50005 0.50005 0 0 0 63.277344 23.091797 C 63.947092 23.423229 64.604492 23.779343 65.246094 24.158203 A 0.50005 0.50005 0 1 0 65.753906 23.296875 C 65.091508 22.905735 64.414908 22.53788 63.722656 22.195312 A 0.50005 0.50005 0 0 0 63.480469 22.140625 z M 67.507812 24.511719 A 0.50005 0.50005 0 0 0 67.457031 24.513672 A 0.50005 0.50005 0 0 0 67.212891 25.425781 C 67.545583 25.65906 67.873213 25.899999 68.195312 26.146484 A 0.50080937 0.50080937 0 1 0 68.804688 25.351562 C 68.470787 25.096048 68.130417 24.848143 67.787109 24.607422 A 0.50005 0.50005 0 0 0 67.507812 24.511719 z M 57.25 28 L 54.75 28.003906 A 0.50005 0.50005 0 0 0 54.265625 28.380859 L 53.103516 33.029297 C 50.796462 33.182213 48.818997 34.793276 48.251953 37.0625 L 45.017578 50 L 37.958984 50 L 41.326172 36.621094 A 0.50005 0.50005 0 0 0 40.808594 35.994141 A 0.50005 0.50005 0 0 0 40.357422 36.378906 L 33.257812 64.585938 C 33.187243 64.865053 32.925017 65.039771 32.640625 64.994141 L 26.580078 64.017578 A 0.50058698 0.50058698 0 1 0 26.419922 65.005859 L 32.482422 65.980469 C 33.27003 66.106839 34.03309 65.604916 34.228516 64.832031 A 0.50005 0.50005 0 0 0 34.228516 64.830078 L 34.4375 64 L 38.042969 64 C 38.140661 65.190917 38.565622 66.356783 39.376953 67.269531 C 40.301922 68.310122 41.708334 69 43.5 69 C 46.362647 69 48.720344 66.797755 48.974609 64 L 58.042969 64 C 58.026174 64.166715 58 64.332662 58 64.5 C 58 65.611111 58.36865 66.72894 59.126953 67.582031 C 59.885256 68.435122 61.041667 69 62.5 69 C 63.958333 69 65.114744 68.435122 65.873047 67.582031 C 66.63135 66.72894 67 65.611111 67 64.5 C 67 64.316978 66.973224 64.135298 66.953125 63.953125 C 68.665275 63.727394 70 62.271912 70 60.5 L 70 49.5 C 70 47.019563 67.976352 44.998878 65.496094 45 L 65 45 L 65 35.931641 C 65 34.318598 63.681402 33 62.068359 33 L 58.890625 33 L 57.734375 28.378906 A 0.50005 0.50005 0 0 0 57.25 28 z M 56.859375 29 L 57.859375 32.996094 L 54.140625 33 L 55.140625 29.001953 L 56.859375 29 z M 53.455078 34 L 62.068359 34 C 63.141317 34 64 34.858683 64 35.931641 L 64 45 L 56.853516 45 C 55.529135 45 54.316887 45.749038 53.724609 46.933594 L 52.191406 50 L 46.048828 50 L 49.222656 37.304688 C 49.708651 35.35981 51.450882 34 53.455078 34 z M 56.853516 46 L 65.496094 46 A 0.50005 0.50005 0 0 0 65.498047 46 C 67.437742 45.999122 69 47.560437 69 49.5 L 69 60.5 C 69 61.80115 68.016417 62.848564 66.75 62.974609 C 66.56415 62.408194 66.278758 61.874394 65.873047 61.417969 C 65.114744 60.564878 63.958333 60 62.5 60 C 61.041667 60 59.885256 60.564878 59.126953 61.417969 C 58.715329 61.881046 58.429496 62.424327 58.244141 63 L 48.974609 63 C 48.720344 60.202245 46.362647 58 43.5 58 C 41.708334 58 40.301922 58.689878 39.376953 59.730469 C 38.565622 60.643217 38.140661 61.809083 38.042969 63 L 34.689453 63 L 37.708984 51 L 52.5 51 A 0.50005 0.50005 0 0 0 52.947266 50.722656 L 54.619141 47.380859 C 55.042863 46.533415 55.905896 46 56.853516 46 z M 43.5 59 C 45.991206 59 48 61.008796 48 63.5 C 48 65.991204 45.991206 68 43.5 68 C 41.958334 68 40.864743 67.439878 40.123047 66.605469 C 39.38135 65.77106 39 64.638889 39 63.5 C 39 62.361111 39.38135 61.22894 40.123047 60.394531 C 40.864743 59.560122 41.958334 59 43.5 59 z M 62.5 61 C 63.708333 61 64.551923 61.435122 65.126953 62.082031 C 65.701983 62.72894 66 63.611111 66 64.5 C 66 65.388889 65.701983 66.27106 65.126953 66.917969 C 64.551923 67.564878 63.708333 68 62.5 68 C 61.291667 68 60.448077 67.564878 59.873047 66.917969 C 59.298017 66.27106 59 65.388889 59 64.5 C 59 63.611111 59.298017 62.72894 59.873047 62.082031 C 60.448077 61.435122 61.291667 61 62.5 61 z"/></svg>