<svg xmlns="http://www.w3.org/2000/svg" viewBox="0 0 26 26"><path d="M 7.5 0.09375 C 4.1875 1.589844 1.589844 4.1875 0.09375 7.5 L 1.90625 8.3125 C 3.210938 5.425781 5.425781 3.210938 8.3125 1.90625 Z M 13 2 C 6.9375 2 2 6.9375 2 13 C 2 19.0625 6.9375 24 13 24 C 19.0625 24 24 19.0625 24 13 C 24 6.9375 19.0625 2 13 2 Z M 13 4 C 17.980469 4 22 8.019531 22 13 C 22 17.980469 17.980469 22 13 22 C 8.019531 22 4 17.980469 4 13 C 4 8.019531 8.019531 4 13 4 Z M 12 6 L 12 11.875 C 11.691406 12.148438 11.5 12.554688 11.5 13 C 11.5 13.828125 12.171875 14.5 13 14.5 C 13.019531 14.5 13.042969 14.5 13.0625 14.5 L 16.28125 17.71875 L 17.71875 16.28125 L 14.5 13.0625 C 14.5 13.042969 14.5 13.019531 14.5 13 C 14.5 12.554688 14.308594 12.148438 14 11.875 L 14 6 Z M 24.09375 17.6875 C 22.789063 20.582031 20.566406 22.867188 17.71875 24.0625 L 18.5 25.9375 C 21.851563 24.53125 24.414063 21.808594 25.90625 18.5 Z"/></svg>