<svg xmlns="http://www.w3.org/2000/svg" viewBox="0 0 48 48"><circle cx="24" cy="22" r="18" fill="#bbdefb"/><path fill="#e3f2fd" d="M9,23c-0.6,0-1-0.4-1-1c0-6.8,4.3-12.8,10.7-15.1c0.5-0.2,1.1,0.1,1.3,0.6c0.2,0.5-0.1,1.1-0.6,1.3 c-5.6,2-9.3,7.3-9.3,13.2C10,22.6,9.6,23,9,23z"/><polygon fill="#7e57c2" points="12,36 36,36 37,42 11,42"/><path fill="#512da8" d="M36,37H12c-0.6,0-1-0.4-1-1s0.4-1,1-1h24c0.6,0,1,0.4,1,1S36.6,37,36,37z"/><path fill="#512da8" d="M37,43H11c-0.6,0-1-0.4-1-1s0.4-1,1-1h26c0.6,0,1,0.4,1,1S37.6,43,37,43z"/><path fill="#1976d2" d="M29,27.6h-2.9c0,0-1.4-3.6-1.4-5.6h-1.4c-0.1,2-1.4,5.6-1.4,5.6H19c0,0,1.4-2.6,2.1-5.1 c0.7-2.5,1.4-4.5,1.4-9.6h2.9c0,5.1,0.7,7,1.4,9.6C27.6,25,29,27.6,29,27.6z"/><path fill="#0d47a1" d="M23.3,22l0.7-9l0.7,9H23.3z"/><path fill="#1565c0" d="M25.4,13.4c0,0.4-0.3,0.6-0.7,0.6h-1.4c-0.4,0-0.7-0.3-0.7-0.6v-1.7c0-0.4,0.3-0.6,0.7-0.6h1.4 c0.4,0,0.7,0.3,0.7,0.6V13.4z"/><path fill="#1565c0" d="M29,28H19c-0.6,0-1-0.4-1-1s0.4-1,1-1h10c0.6,0,1,0.4,1,1S29.6,28,29,28z"/><path fill="#1565c0" d="M27,23h-6c-0.6,0-1-0.4-1-1s0.4-1,1-1h6c0.6,0,1,0.4,1,1S27.6,23,27,23z"/><polygon fill="#1565c0" points="24,9 23,12 25,12"/><path fill="#1976d2" d="M29.1,28H18.9L15,35h3.2c1.9-3.8,2.9-5,5.8-5s3.9,1.2,5.8,5H33L29.1,28z"/><polygon fill="#0d47a1" points="29.1,28 18.9,28 17.8,29.9 30.2,29.9"/></svg>