<svg xmlns="http://www.w3.org/2000/svg" viewBox="0 0 26 26"><path d="M 21 2 L 16 2 C 16 3.699219 14.699219 5 13 5 C 11.300781 5 10 3.699219 10 2 L 5 2 C 3.300781 2 2 3.300781 2 5 L 2 21 C 2 22.699219 3.300781 24 5 24 L 21 24 C 22.699219 24 24 22.699219 24 21 L 24 5 C 24 3.300781 22.699219 2 21 2 Z M 18.800781 9.898438 L 13 18.398438 C 12.800781 18.699219 12.5 18.898438 12.199219 18.898438 C 11.898438 18.898438 11.5 18.699219 11.300781 18.5 L 7.800781 14.898438 C 7.5 14.601563 7.5 14.199219 7.800781 13.898438 L 8.800781 12.898438 C 9.101563 12.601563 9.5 12.601563 9.800781 12.898438 L 11.898438 15.101563 L 16.601563 8.300781 C 16.800781 8 17.300781 7.898438 17.601563 8.101563 L 18.800781 8.898438 C 19 9.101563 19 9.601563 18.800781 9.898438 Z"/></svg>