<svg xmlns="http://www.w3.org/2000/svg" viewBox="0 0 64 64"><path d="M 12.625 8 C 11.175 8 9.7363281 8.4101562 9.7363281 8.4101562 A 1.0001 1.0001 0 0 0 9.2636719 10.048828 C 9.2783699 10.068788 9.3501609 10.170496 9.4785156 10.392578 C 9.7369295 10.839692 10.228771 11.767401 11.097656 13.576172 A 1.0001 1.0001 0 0 0 11.099609 13.576172 C 12.28424 16.041798 14.228638 17.074358 15.769531 17.523438 C 15.045962 18.219792 14.440307 19.034497 13.980469 19.9375 C 13.114925 18.481991 11.39162 17 8.6328125 17 C 6.3754065 17 4.3292603 18.119942 2.8125 19.179688 C 1.2957397 20.239432 0.27734375 21.310547 0.27734375 21.310547 A 1.0001 1.0001 0 0 0 1 23 C 1 23 3.4825496 23.05251 5.046875 24.691406 C 7.1856581 26.932143 9.5889686 27 10.542969 27 C 11.54939 27 12.371131 26.704711 13.015625 26.289062 C 13.17041 31.113398 17.139087 35 22 35 L 23.003906 35 C 24.670504 35 26 36.329496 26 37.996094 C 26 39.665521 24.667334 41.000755 23 41 A 1.0001 1.0001 0 0 0 22.998047 41 L 18.330078 41 C 17.685986 41 17.055427 40.7865 16.535156 40.396484 L 13.599609 38.199219 A 1.0001 1.0001 0 0 0 12 39 L 12 45 A 1.0001 1.0001 0 0 0 12.417969 45.8125 L 13.648438 46.693359 C 14.836023 47.542634 16.25997 48 17.720703 48 L 23 48 C 28.511334 48 33 43.511334 33 38 L 33 36 C 33 31.593562 29.406438 28 25 28 L 22 28 C 20.883334 28 20 27.116666 20 26 L 20 24 C 20 22.883334 20.883334 22 22 22 L 32 22 A 1.0001 1.0001 0 0 0 33 21 L 33 16 A 1.0001 1.0001 0 0 0 32 15 L 22 15 C 21.275395 15 20.574125 15.096905 19.898438 15.259766 C 19.957845 14.885854 20 14.480707 20 14 C 20 11.869048 18.790062 10.475799 18 9.84375 C 16.236252 8.4329737 14.395231 8 12.625 8 z M 12.625 10 C 14.104769 10 15.335748 10.275026 16.75 11.40625 C 17.209938 11.774201 18 12.630952 18 14 C 18 15.108492 17.780788 15.623587 17.650391 15.837891 C 17.216863 15.863031 14.462201 15.953814 12.902344 12.710938 L 12.900391 12.708984 C 12.220951 11.294639 11.906435 10.723695 11.59375 10.148438 C 12.02112 10.075433 12.166438 10 12.625 10 z M 39.013672 15 A 1.0001 1.0001 0 0 0 38.072266 16.341797 L 41.251953 25.085938 C 40.121978 25.213141 38.891499 25.521531 37.78125 26.246094 C 36.198373 27.279098 35 29.209996 35 32.066406 C 35 34.858714 35.821162 36.815558 36.677734 38.052734 C 37.534307 39.289911 38.5 39.865234 38.5 39.865234 A 1.0001 1.0001 0 0 0 39.998047 38.955078 C 39.998047 38.955078 40.027147 36.441139 40.986328 35.316406 C 41.727811 34.447017 42.745773 33.474539 43.462891 32.107422 C 43.53212 31.975442 43.59449 31.836951 43.65625 31.697266 L 48.005859 43.658203 L 47.046875 46.699219 A 1.0001 1.0001 0 0 0 48 48 L 53.228516 48 A 1.0001 1.0001 0 0 0 54.181641 47.300781 L 63.953125 16.300781 A 1.0001 1.0001 0 0 0 63 15 L 57.771484 15 A 1.0001 1.0001 0 0 0 56.818359 15.699219 L 51.464844 32.683594 L 45.273438 15.658203 A 1.0001 1.0001 0 0 0 44.332031 15 L 39.013672 15 z M 22 17 L 31 17 L 31 20 L 22 20 C 19.802666 20 18 21.802666 18 24 L 18 26 C 18 28.197334 19.802666 30 22 30 L 25 30 C 28.325562 30 31 32.674438 31 36 L 31 38 C 31 42.430666 27.430666 46 23 46 L 17.720703 46 C 16.677436 46 15.660915 45.673131 14.8125 45.066406 L 14 44.486328 L 14 40.998047 L 15.335938 41.998047 C 16.197665 42.644032 17.246171 43 18.330078 43 L 22.998047 43 C 25.748713 43.001245 28 40.746667 28 37.996094 C 28 35.248692 25.751308 33 23.003906 33 L 22 33 C 18.122516 33 15 29.877484 15 26 L 15 24 C 15 20.122516 18.122516 17 22 17 z M 40.441406 17 L 43.632812 17 L 50.476562 35.820312 L 48.994141 40.523438 L 40.441406 17 z M 58.505859 17 L 61.636719 17 L 52.494141 46 L 49.363281 46 L 58.505859 17 z M 8.6328125 19 C 10.79626 19 11.72773 19.986328 12.322266 21.050781 C 12.884808 22.057953 12.954922 22.973089 12.964844 23.080078 C 12.946814 23.171648 12.888534 23.534298 12.572266 24 C 12.218365 24.521108 11.730191 25 10.542969 25 C 9.5889686 25 8.1733575 25.067857 6.4941406 23.308594 C 5.4796642 22.245758 4.2866686 21.7161 3.2578125 21.40625 C 3.5766185 21.141775 3.5370768 21.115095 3.9589844 20.820312 C 5.3047241 19.880058 7.0742185 19 8.6328125 19 z M 41.958984 27.068359 L 42.03125 27.261719 C 42.472614 29.045837 42.216762 30.176192 41.691406 31.177734 C 41.163774 32.183617 40.294361 33.044968 39.464844 34.017578 C 38.747979 34.858168 38.421133 35.834186 38.228516 36.720703 C 37.61674 35.781652 37 34.349461 37 32.066406 C 37 29.722817 37.801627 28.622371 38.875 27.921875 C 39.762574 27.342634 40.903484 27.137899 41.958984 27.068359 z M 17 52 C 16.448 52 16 52.447 16 53 L 16 55 C 16 55.553 16.448 56 17 56 C 17.552 56 18 55.553 18 55 L 18 53 C 18 52.447 17.552 52 17 52 z M 22 52 C 21.448 52 21 52.447 21 53 L 21 55 C 21 55.553 21.448 56 22 56 C 22.552 56 23 55.553 23 55 L 23 53 C 23 52.447 22.552 52 22 52 z M 27 52 C 26.448 52 26 52.447 26 53 L 26 55 C 26 55.553 26.448 56 27 56 C 27.552 56 28 55.553 28 55 L 28 53 C 28 52.447 27.552 52 27 52 z M 32 52 C 31.448 52 31 52.447 31 53 L 31 55 C 31 55.553 31.448 56 32 56 C 32.552 56 33 55.553 33 55 L 33 53 C 33 52.447 32.552 52 32 52 z M 37 52 C 36.448 52 36 52.447 36 53 L 36 55 C 36 55.553 36.448 56 37 56 C 37.552 56 38 55.553 38 55 L 38 53 C 38 52.447 37.552 52 37 52 z M 42 52 C 41.448 52 41 52.447 41 53 L 41 55 C 41 55.553 41.448 56 42 56 C 42.552 56 43 55.553 43 55 L 43 53 C 43 52.447 42.552 52 42 52 z M 47 52 C 46.448 52 46 52.447 46 53 L 46 55 C 46 55.553 46.448 56 47 56 C 47.552 56 48 55.553 48 55 L 48 53 C 48 52.447 47.552 52 47 52 z M 52 52 C 51.448 52 51 52.447 51 53 L 51 55 C 51 55.553 51.448 56 52 56 C 52.552 56 53 55.553 53 55 L 53 53 C 53 52.447 52.552 52 52 52 z M 57 52 C 56.448 52 56 52.447 56 53 L 56 55 C 56 55.553 56.448 56 57 56 C 57.552 56 58 55.553 58 55 L 58 53 C 58 52.447 57.552 52 57 52 z"/></svg>