<svg xmlns="http://www.w3.org/2000/svg" viewBox="0 0 26 26"><path d="M 6 1 C 3.25 1 1 3.25 1 6 C 1 8.75 3.25 11 6 11 C 8.75 11 11 8.75 11 6 C 11 3.25 8.75 1 6 1 Z M 20 1 C 18.734375 1 17.601563 1.5 16.71875 2.28125 C 16.664063 2.316406 16.609375 2.359375 16.5625 2.40625 C 16.535156 2.433594 16.496094 2.441406 16.46875 2.46875 C 16.421875 2.515625 16.378906 2.570313 16.34375 2.625 C 16.332031 2.636719 16.320313 2.644531 16.3125 2.65625 C 16.300781 2.667969 16.292969 2.675781 16.28125 2.6875 C 15.488281 3.574219 15 4.726563 15 6 C 15 8.75 17.25 11 20 11 C 21.21875 11 22.316406 10.542969 23.1875 9.8125 C 23.507813 9.707031 23.753906 9.449219 23.84375 9.125 C 24.550781 8.261719 25 7.195313 25 6 C 25 3.25 22.75 1 20 1 Z M 6 3 C 7.667969 3 9 4.332031 9 6 C 9 7.667969 7.667969 9 6 9 C 4.332031 9 3 7.667969 3 6 C 3 4.332031 4.332031 3 6 3 Z M 20 3 C 21.667969 3 23 4.332031 23 6 C 23 6.46875 22.90625 6.917969 22.71875 7.3125 L 18.6875 3.28125 C 19.082031 3.09375 19.53125 3 20 3 Z M 17.28125 4.6875 L 21.3125 8.71875 C 20.917969 8.90625 20.46875 9 20 9 C 18.332031 9 17 7.667969 17 6 C 17 5.53125 17.09375 5.082031 17.28125 4.6875 Z M 6 15 C 3.238281 15 1 17.238281 1 20 C 1 22.761719 3.238281 25 6 25 C 8.761719 25 11 22.761719 11 20 C 11 17.238281 8.761719 15 6 15 Z M 20 15 C 17.25 15 15 17.25 15 20 C 15 22.75 17.25 25 20 25 C 22.75 25 25 22.75 25 20 C 25 17.25 22.75 15 20 15 Z M 20 17 C 21.667969 17 23 18.332031 23 20 C 23 21.667969 21.667969 23 20 23 C 18.332031 23 17 21.667969 17 20 C 17 18.332031 18.332031 17 20 17 Z M 20 17 C 19.449219 17 19 17.449219 19 18 C 19 18.550781 19.449219 19 20 19 C 20.550781 19 21 18.550781 21 18 C 21 17.449219 20.550781 17 20 17 Z M 17 20 C 17 20.550781 17.449219 21 18 21 C 18.550781 21 19 20.550781 19 20 C 19 19.449219 18.550781 19 18 19 C 17.449219 19 17 19.449219 17 20 Z M 20 23 C 20.550781 23 21 22.550781 21 22 C 21 21.449219 20.550781 21 20 21 C 19.449219 21 19 21.449219 19 22 C 19 22.550781 19.449219 23 20 23 Z M 23 20 C 23 19.449219 22.550781 19 22 19 C 21.449219 19 21 19.449219 21 20 C 21 20.550781 21.449219 21 22 21 C 22.550781 21 23 20.550781 23 20 Z"/></svg>