<svg xmlns="http://www.w3.org/2000/svg" viewBox="0 0 24 24"><path d="M 14.0625 -0.03125 C 14.03125 -0.0390625 14 -0.0234375 14 0 C 14 0.101563 14.207031 0.1875 13.90625 0.1875 C 13.507813 0.1875 13.011719 0.195313 12.8125 0.59375 C 12.710938 0.894531 12.707031 1.199219 12.90625 1.5 C 13.105469 1.800781 13.613281 1.988281 13.8125 2.1875 C 13.414063 2.085938 12.613281 2.195313 12.3125 2.59375 C 11.710938 3.195313 12.914063 3.585938 13.3125 3.6875 C 12.914063 3.789063 12.886719 4.113281 13.1875 4.3125 C 13.386719 4.511719 13.792969 4.601563 14.09375 4.5 C 13.894531 4.699219 13.792969 4.988281 14.09375 5.1875 C 14.292969 5.386719 14.707031 5.207031 14.90625 5.40625 C 14.804688 5.40625 14.789063 5.5 14.6875 5.5 C 14.6875 5.699219 14.898438 5.800781 15 6 C 15.398438 6.699219 14.988281 8.011719 14.6875 8.8125 C 14.675781 8.832031 14.667969 8.855469 14.65625 8.875 C 14.425781 9.0625 14.183594 9.238281 14 9.40625 C 11.164063 6.664063 9.09375 7.1875 9.09375 7.1875 C 9.09375 7.1875 5.605469 11.59375 5.90625 12.09375 C 6.40625 12.394531 7.5 12.914063 8.5 14.8125 C 7 13.710938 5.5 13.394531 5 13.59375 C 4.601563 13.695313 -0.300781 22.5 0 24 C 1.101563 24.300781 4.914063 22.398438 8.8125 20 C 9.113281 19.800781 8.5 18.488281 8 17.6875 C 9.300781 18.1875 10 19.3125 10 19.3125 C 10.601563 19.414063 13.304688 17.710938 13.90625 16.8125 C 14.007813 16.613281 13.800781 15.304688 13 14.40625 C 14.199219 14.40625 15.1875 15.90625 15.1875 15.90625 C 16.085938 15.304688 16.8125 14.90625 16.8125 14.90625 C 16.8125 14.90625 17.253906 12.921875 14.59375 10 C 14.761719 9.816406 14.9375 9.574219 15.125 9.34375 C 15.144531 9.332031 15.167969 9.324219 15.1875 9.3125 C 15.988281 9.011719 17.300781 8.601563 18 9 C 18.199219 9.101563 18.300781 9.3125 18.5 9.3125 C 18.5 9.210938 18.59375 9.195313 18.59375 9.09375 C 18.792969 9.292969 18.613281 9.707031 18.8125 9.90625 C 19.011719 10.207031 19.300781 10.105469 19.5 9.90625 C 19.398438 10.207031 19.488281 10.613281 19.6875 10.8125 C 19.886719 11.113281 20.210938 11.085938 20.3125 10.6875 C 20.414063 11.085938 20.804688 12.289063 21.40625 11.6875 C 21.804688 11.386719 21.914063 10.585938 21.8125 10.1875 C 22.011719 10.386719 22.199219 10.894531 22.5 11.09375 C 22.800781 11.292969 23.105469 11.289063 23.40625 11.1875 C 23.804688 10.988281 23.8125 10.492188 23.8125 10.09375 C 23.8125 9.792969 23.898438 10 24 10 C 24.101563 10 23.886719 9.699219 23.6875 9.5 C 23.289063 9 23.800781 9.289063 24 9.1875 C 24.199219 8.988281 23.699219 8.601563 23.5 8.5 C 23.300781 8.300781 22.894531 8.09375 22.59375 8.09375 C 22.695313 7.992188 23 8.011719 23 7.8125 C 23 7.613281 22.601563 7.40625 22.5 7.40625 C 22.199219 7.207031 21.992188 7.101563 21.59375 7 L 20.8125 7 C 20.914063 6.898438 20.992188 6.914063 21.09375 6.8125 C 20.792969 6.414063 19.613281 6.605469 19.3125 6.90625 C 19.414063 6.707031 19.488281 6.59375 19.1875 6.59375 C 18.988281 6.59375 18.792969 6.6875 18.59375 6.6875 C 18.285156 6.78125 18.003906 6.914063 17.71875 7.03125 C 19.648438 5.769531 20.296875 6.15625 21 5.59375 C 21.300781 5.394531 21.011719 5.195313 20.8125 5.09375 C 21.113281 5.09375 21.386719 5 21.6875 5 C 22.085938 4.898438 22.511719 4.894531 22.8125 4.59375 C 22.914063 4.292969 23.101563 3.988281 23 3.6875 C 22.898438 3.386719 22.605469 3.507813 22.40625 3.40625 C 22.90625 3.304688 23.414063 3.207031 23.8125 2.90625 C 23.914063 2.804688 24 2.605469 24 2.40625 C 24 2.207031 23.792969 1.898438 23.59375 2 C 23.992188 1.5 23.992188 0.710938 23.59375 0.3125 C 22.992188 -0.289063 22.3125 0.09375 21.8125 0.59375 C 21.914063 0.394531 21.800781 0.101563 21.5 0 C 21.199219 -0.101563 21.011719 0.0859375 20.8125 0.1875 C 20.511719 0.488281 20.5 1 20.5 1.5 C 20.199219 1 19.605469 1.1875 19.40625 1.6875 C 19.207031 2.085938 19.210938 2.5 19.3125 3 C 19.113281 2.800781 18.699219 2.792969 18.5 3.09375 C 17.976563 3.683594 17.984375 4.632813 16.96875 6.28125 C 17.085938 5.996094 17.21875 5.714844 17.3125 5.40625 C 17.3125 5.207031 17.40625 5.011719 17.40625 4.8125 C 17.40625 4.511719 17.292969 4.585938 17.09375 4.6875 C 17.394531 4.386719 17.585938 3.207031 17.1875 2.90625 C 17.085938 3.007813 17.101563 3.085938 17 3.1875 L 17 2.40625 C 16.898438 2.007813 16.792969 1.800781 16.59375 1.5 C 16.59375 1.398438 16.386719 1 16.1875 1 C 15.988281 1 16.007813 1.304688 15.90625 1.40625 C 15.90625 1.105469 15.699219 0.699219 15.5 0.5 C 15.398438 0.300781 15.011719 -0.199219 14.8125 0 C 14.710938 0.199219 15 0.710938 14.5 0.3125 C 14.351563 0.164063 14.15625 -0.0078125 14.0625 -0.03125 Z"/></svg>