<svg xmlns="http://www.w3.org/2000/svg" viewBox="0 0 24 24"><path d="M 13.292969 1.2929688 L 10.171875 4.4140625 C 9.4217366 5.1642009 9 6.1815309 9 7.2421875 L 9 13.757812 C 9 14.289157 8.7891893 14.797415 8.4140625 15.171875 L 5 18.585938 L 5 13.242188 C 5 12.710843 5.2108107 12.204539 5.5859375 11.830078 L 6.7070312 10.707031 L 5.2929688 9.2929688 L 4.171875 10.416016 C 3.4217345 11.165445 3 12.182082 3 13.242188 L 3 20.585938 L 2.2929688 21.292969 L 3.7070312 22.707031 L 7.4140625 19 L 14.757812 19 C 15.818469 19 16.836398 18.578998 17.585938 17.828125 L 21.707031 13.707031 L 20.292969 12.292969 L 16.169922 16.414062 C 15.795461 16.789189 15.289156 17 14.757812 17 L 9.4140625 17 L 9.828125 16.585938 C 10.578998 15.836398 11 14.81847 11 13.757812 L 11 12 L 13.757812 12 C 14.81847 12 15.836398 11.578998 16.585938 10.828125 L 21.707031 5.7070312 L 20.292969 4.2929688 L 15.169922 9.4140625 C 14.795461 9.7891893 14.289156 10 13.757812 10 L 11 10 L 11 7.2421875 C 11 6.7108441 11.210076 6.2039866 11.585938 5.828125 L 14.707031 2.7070312 L 13.292969 1.2929688 z"/></svg>