<svg xmlns="http://www.w3.org/2000/svg" viewBox="0 0 26 26"><path d="M 2 7 C 0.894531 7 0 7.894531 0 9 L 0 17 C 0 18.105469 0.894531 19 2 19 L 24 19 C 25.105469 19 26 18.105469 26 17 L 26 9 C 26 7.894531 25.105469 7 24 7 Z M 3.78125 10.5625 L 4.96875 10.5625 L 6.09375 14.4375 L 6.125 14.4375 L 7.25 10.5625 L 8.375 10.5625 L 6.6875 15.4375 L 5.4375 15.4375 Z M 9.34375 10.5625 L 12.15625 10.5625 L 12.15625 11.4375 L 10.4375 11.4375 L 10.4375 12.53125 L 12.03125 12.53125 L 12.03125 13.4375 L 10.4375 13.4375 L 10.4375 14.5625 L 12.28125 14.5625 L 12.28125 15.4375 L 9.34375 15.4375 Z M 13.40625 10.5625 L 15.15625 10.5625 C 16.34375 10.5625 16.9375 10.984375 16.9375 11.875 C 16.9375 12.902344 16.011719 13.203125 15.84375 13.25 C 16.199219 13.351563 16.546875 13.925781 16.59375 14 L 17.53125 15.4375 L 16.25 15.4375 L 15.5 14.1875 C 15.265625 13.824219 15.101563 13.5625 14.8125 13.5625 L 14.5 13.5625 L 14.5 15.4375 L 13.40625 15.4375 Z M 18.3125 10.5625 L 20.09375 10.5625 C 21.625 10.5625 21.8125 11.324219 21.8125 11.6875 C 21.8125 12.40625 21.121094 12.734375 20.84375 12.8125 C 21.246094 12.847656 22 13.164063 22 14 C 22 15.234375 20.855469 15.4375 20.21875 15.4375 L 18.3125 15.4375 Z M 14.5 11.375 L 14.5 12.75 L 15 12.75 C 15.574219 12.75 15.78125 12.335938 15.78125 12.03125 C 15.78125 11.601563 15.511719 11.375 15 11.375 Z M 19.4375 11.375 L 19.4375 12.53125 L 19.90625 12.53125 C 20.546875 12.53125 20.65625 12.097656 20.65625 11.90625 C 20.65625 11.546875 20.382813 11.375 19.84375 11.375 Z M 19.4375 13.34375 L 19.4375 14.625 L 20.03125 14.625 C 20.746094 14.625 20.84375 14.171875 20.84375 13.96875 C 20.84375 13.773438 20.738281 13.34375 20.03125 13.34375 Z"/></svg>