<svg xmlns="http://www.w3.org/2000/svg" xmlns:xlink="http://www.w3.org/1999/xlink" viewBox="0 0 48 48"><defs><linearGradient id="EK4_EwiIgWPSBBlUtQXcxc" x1="23.5" x2="23.5" y1="7" y2="41" gradientTransform="matrix(1.03 0 0 1 -.212 0)" gradientUnits="userSpaceOnUse"><stop offset="0" stop-color="#ffb57d"/><stop offset="1" stop-color="#e56c0f"/></linearGradient><linearGradient id="EK4_EwiIgWPSBBlUtQXcxa" x1="7" x2="40" y1="24" y2="24" gradientTransform="matrix(1.03 0 0 1 -.212 0)" gradientUnits="userSpaceOnUse"><stop offset="0" stop-color="#ffae70" stop-opacity="0"/><stop offset=".392" stop-color="#fead6f" stop-opacity=".009"/><stop offset=".533" stop-color="#fdaa6b" stop-opacity=".044"/><stop offset=".633" stop-color="#f9a565" stop-opacity=".103"/><stop offset=".715" stop-color="#f49e5b" stop-opacity=".188"/><stop offset=".784" stop-color="#ee944f" stop-opacity=".299"/><stop offset=".846" stop-color="#e78940" stop-opacity=".435"/><stop offset=".902" stop-color="#dd7b2e" stop-opacity=".598"/><stop offset=".952" stop-color="#d36b1a" stop-opacity=".781"/><stop offset=".997" stop-color="#c85903" stop-opacity=".987"/><stop offset="1" stop-color="#c75802"/></linearGradient><linearGradient id="EK4_EwiIgWPSBBlUtQXcxd" x1="-521" x2="-488" y1="-384" y2="-384" gradientTransform="matrix(1.03 0 0 1 543.788 408)" xlink:href="#EK4_EwiIgWPSBBlUtQXcxa"/><linearGradient id="EK4_EwiIgWPSBBlUtQXcxe" x1="-125" x2="-92" y1="-928" y2="-928" gradientTransform="matrix(1.03 0 0 1 135.788 952)" xlink:href="#EK4_EwiIgWPSBBlUtQXcxa"/><linearGradient id="EK4_EwiIgWPSBBlUtQXcxf" x1="403" x2="436" y1="-520" y2="-520" gradientTransform="matrix(1.03 0 0 1 -408.212 544)" xlink:href="#EK4_EwiIgWPSBBlUtQXcxa"/><linearGradient id="EK4_EwiIgWPSBBlUtQXcxb" x1="13" x2="13" y1="12.001" y2="36" gradientUnits="userSpaceOnUse"><stop offset="0" stop-color="#fff"/><stop offset=".325" stop-color="#fbfbfc"/><stop offset=".662" stop-color="#eeeef4"/><stop offset="1" stop-color="#dadae6"/></linearGradient><linearGradient id="EK4_EwiIgWPSBBlUtQXcxg" x1="35" x2="35" y1="12" xlink:href="#EK4_EwiIgWPSBBlUtQXcxb"/><linearGradient id="EK4_EwiIgWPSBBlUtQXcxh" x1="24" x2="24" y1="12" xlink:href="#EK4_EwiIgWPSBBlUtQXcxb"/></defs><g data-name="vibration mode"><rect width="34" height="34" x="7" y="7" fill="url(#EK4_EwiIgWPSBBlUtQXcxc)" rx="3"/><g opacity=".5"><rect width="34" height="34" x="7" y="7" fill="url(#EK4_EwiIgWPSBBlUtQXcxa)" rx="3"/><rect width="34" height="34" x="7" y="7" fill="url(#EK4_EwiIgWPSBBlUtQXcxd)" rx="3" transform="rotate(-90 24 24)"/><rect width="34" height="34" x="7" y="7" fill="url(#EK4_EwiIgWPSBBlUtQXcxe)" rx="3" transform="rotate(180 24 24)"/><rect width="34" height="34" x="7" y="7" fill="url(#EK4_EwiIgWPSBBlUtQXcxf)" rx="3" transform="rotate(90 24 24)"/></g><path fill="url(#EK4_EwiIgWPSBBlUtQXcxb)" d="M14,36a1,1,0,0,1-.81-.412l-2-2.754a1,1,0,0,1,0-1.176l1.573-2.166-1.573-2.163a1,1,0,0,1,0-1.176l1.572-2.161-1.572-2.161a1,1,0,0,1,0-1.177L12.763,18.5l-1.572-2.161a1,1,0,0,1,0-1.176l2-2.749a1,1,0,0,1,1.618,1.176l-1.572,2.161,1.572,2.161a1,1,0,0,1,0,1.177l-1.571,2.156L14.809,23.4a1,1,0,0,1,0,1.176l-1.572,2.161L14.809,28.9a1,1,0,0,1,0,1.176l-1.573,2.167,1.573,2.166A1,1,0,0,1,14,36Z"/><path fill="url(#EK4_EwiIgWPSBBlUtQXcxg)" d="M34.809,35.588l2-2.749a1,1,0,0,0,0-1.176L35.237,29.5l1.571-2.156a1,1,0,0,0,0-1.177l-1.572-2.161,1.572-2.161a1,1,0,0,0,0-1.176l-1.573-2.163,1.573-2.166a1,1,0,0,0,0-1.176l-2-2.754a1,1,0,1,0-1.618,1.176l1.573,2.166-1.573,2.167a1,1,0,0,0,0,1.176l1.572,2.162L33.191,23.42a1,1,0,0,0,0,1.176l1.572,2.161-1.571,2.156a1,1,0,0,0,0,1.177l1.572,2.161-1.572,2.161a1,1,0,0,0,1.618,1.176Z"/><path fill="url(#EK4_EwiIgWPSBBlUtQXcxh)" d="M31,13V35a1,1,0,0,1-1,1H18a1,1,0,0,1-1-1V13a1,1,0,0,1,1-1H30A1,1,0,0,1,31,13ZM19,15V33H29V15Z"/></g></svg>