<svg xmlns="http://www.w3.org/2000/svg" viewBox="0 0 24 24"><path d="M 23.3125 0.09375 C 22.210938 1.195313 21.398438 0.507813 21 0.90625 C 20.644531 1.261719 20.628906 1.84375 20.90625 2.25 L 20.1875 2.875 L 19.25 1.9375 L 18.53125 2.65625 L 19.4375 3.5625 L 18.71875 4.21875 L 17.84375 3.34375 L 17.15625 4.0625 L 17.96875 4.875 L 15.1875 7.375 C 14.527344 6.761719 13.390625 6 12.09375 6 C 11.394531 6 10.707031 6.210938 9.90625 6.8125 C 9.507813 7.113281 8.800781 7.492188 8 8.09375 C 9 9.195313 8.289063 10.304688 7.1875 11.40625 C 6.488281 12.105469 5.792969 12.59375 5.09375 12.59375 C 4.695313 12.59375 4.304688 12.398438 3.90625 12 C 3.707031 11.800781 3.601563 11.605469 3.5 11.40625 C 2.800781 12.007813 2.195313 12.492188 1.59375 13.09375 C -1.007813 15.695313 -0.199219 18.898438 2.5 21.5 C 4 23.101563 5.710938 24 7.3125 24 C 8.511719 24 9.710938 23.507813 10.8125 22.40625 C 11.414063 21.804688 11.898438 21.199219 12.5 20.5 C 12.300781 20.398438 12.105469 20.292969 11.90625 20.09375 C 10.804688 18.992188 11.492188 17.886719 12.59375 16.6875 C 13.292969 15.988281 13.988281 15.5 14.6875 15.5 C 15.085938 15.5 15.511719 15.601563 15.8125 16 C 16.414063 15.199219 16.789063 14.492188 17.1875 14.09375 C 18.796875 11.898438 17.523438 9.894531 16.5625 8.84375 L 19.125 6.03125 L 19.9375 6.84375 L 20.65625 6.15625 L 19.78125 5.28125 L 20.4375 4.5625 L 21.34375 5.46875 L 22.0625 4.75 L 21.125 3.8125 L 21.71875 3.125 C 22.121094 3.496094 22.796875 3.484375 23.1875 3.09375 C 23.585938 2.695313 22.898438 1.8125 24 0.8125 Z M 12.09375 7.5 C 12.828125 7.5 13.535156 7.960938 14.0625 8.40625 L 11.1875 11 L 13 12.8125 L 15.625 9.90625 C 16.253906 10.65625 16.886719 11.867188 16 13.09375 C 15.800781 13.292969 15.605469 13.601563 15.40625 14 L 14.8125 14 C 13.414063 14 12.292969 14.988281 11.59375 15.6875 C 9.394531 17.886719 9.800781 19.59375 10.5 20.59375 C 10.300781 20.894531 10.011719 21.113281 9.8125 21.3125 C 9.011719 22.113281 8.210938 22.5 7.3125 22.5 C 6.300781 22.5 5.222656 21.96875 4.1875 21.03125 L 8 17.6875 L 6.1875 15.90625 L 2.84375 19.71875 C 2.035156 18.753906 1.59375 17.75 1.59375 16.8125 C 1.59375 15.914063 2.011719 15.113281 2.8125 14.3125 L 3.5 13.59375 C 4 13.992188 4.59375 14.09375 5.09375 14.09375 C 6.492188 14.09375 7.511719 13.207031 8.3125 12.40625 C 9.8125 10.90625 10.105469 9.59375 9.90625 8.59375 C 10.304688 8.394531 10.613281 8.101563 10.8125 8 C 11.210938 7.699219 11.695313 7.5 12.09375 7.5 Z"/></svg>