<svg xmlns="http://www.w3.org/2000/svg" viewBox="0 0 50 50"><path d="M 0 7 L 0 39 L 50 39 L 50 7 Z M 14 17 L 16.285156 17 L 19.03125 21.9375 L 21.777344 17 L 24.066406 17 L 20.03125 24.261719 L 20.03125 30 L 18.03125 30 L 18.03125 24.261719 Z M 26 17 L 35 17 L 35 19.453125 L 34.660156 19.75 C 34.613281 19.792969 30 23.929688 30 30 L 28 30 C 28 24.554688 31.101563 20.585938 32.578125 19 L 26 19 Z M 11 41 C 10.640625 40.996094 10.304688 41.183594 10.121094 41.496094 C 9.941406 41.808594 9.941406 42.191406 10.121094 42.503906 C 10.304688 42.816406 10.640625 43.003906 11 43 L 39 43 C 39.359375 43.003906 39.695313 42.816406 39.878906 42.503906 C 40.058594 42.191406 40.058594 41.808594 39.878906 41.496094 C 39.695313 41.183594 39.359375 40.996094 39 41 Z"/></svg>