<svg xmlns="http://www.w3.org/2000/svg" viewBox="0 0 64 64"><linearGradient id="v0fNUgLTygba_Uj6EV3Efa" x1="32" x2="32" y1="19" y2="29" gradientUnits="userSpaceOnUse" spreadMethod="reflect"><stop offset="0" stop-color="#6dc7ff"/><stop offset="1" stop-color="#e6abff"/></linearGradient><path fill="url(#v0fNUgLTygba_Uj6EV3Efa)" d="M32,19c-0.507,0-0.988,0.097-1.449,0.239C31.405,19.636,32,20.496,32,21.5 c0,1.381-1.119,2.5-2.5,2.5c-1.004,0-1.864-0.595-2.261-1.449C27.097,23.012,27,23.493,27,24c0,2.761,2.239,5,5,5s5-2.239,5-5 S34.761,19,32,19z"/><linearGradient id="v0fNUgLTygba_Uj6EV3Efb" x1="34.501" x2="34.501" y1="6" y2="54.776" gradientUnits="userSpaceOnUse" spreadMethod="reflect"><stop offset="0" stop-color="#1a6dff"/><stop offset="1" stop-color="#c822ff"/></linearGradient><path fill="url(#v0fNUgLTygba_Uj6EV3Efb)" d="M29.516,8.856C29.53,8.849,31.003,8,33.889,8c2.659,0,5.543,1.823,5.572,1.842 C39.627,9.948,39.814,10,39.999,10c0.33,0,0.652-0.163,0.843-0.461c0.298-0.465,0.164-1.082-0.301-1.381 C40.403,8.07,37.142,6,33.889,6c-3.501,0-5.335,1.101-5.412,1.147c-0.468,0.287-0.613,0.896-0.33,1.365 C28.429,8.983,29.042,9.137,29.516,8.856z"/><linearGradient id="v0fNUgLTygba_Uj6EV3Efc" x1="32.006" x2="32.006" y1="6" y2="54.776" gradientUnits="userSpaceOnUse" spreadMethod="reflect"><stop offset="0" stop-color="#1a6dff"/><stop offset="1" stop-color="#c822ff"/></linearGradient><path fill="url(#v0fNUgLTygba_Uj6EV3Efc)" d="M58.88,48.681c-0.421-0.84-1.422-1.284-2.235-1.514c0.237-1.793-0.219-2.232-0.408-2.414 c-0.171-0.163-0.496-0.474-1.75-0.422c0.09-0.833-0.114-1.647-0.875-2.153c-0.212-0.124-0.854-0.505-2.501,0.437 c-0.365,0.208-0.739,0.465-1.111,0.759v-2.844c1.938-0.67,4-2.165,4-5.039c0-1.363-0.468-2.517-1.39-3.428 c-0.164-0.162-0.341-0.307-0.523-0.445C56.548,30.603,57,27.73,57,25c0-3.141-2.413-7-4.375-7c-1.567,0-2.228,2.212-2.505,4h-2.256 c-0.773-2.702-2.061-5.54-4.206-7.789c-2.663-2.793-6.203-4.209-10.52-4.209c-0.001,0-0.001,0-0.002,0 c-0.285,0-6.374,0.02-10.487,1.562c-0.373,0.14-0.626,0.487-0.647,0.884c-0.021,0.397,0.196,0.77,0.551,0.947l0.349,0.174 c-2.478,0.658-5.871,2.042-7.737,4.883c-0.216,0.329-0.219,0.755-0.007,1.087c0.211,0.331,0.597,0.505,0.989,0.451l0.887-0.131 c-0.305,0.569-0.611,1.275-0.89,2.142h-2.247c-0.249-1.792-0.877-4-2.467-4C9.442,18,7,21.859,7,25c0,2.719,0.458,5.579,4.931,6.604 c-0.188,0.141-0.372,0.29-0.541,0.458C10.468,32.973,10,34.126,10,35.489c0,2.384,1.421,3.818,3,4.62v2.57 c-0.038-0.022-0.076-0.048-0.114-0.07c-1.642-0.937-2.282-0.558-2.537-0.402c-0.731,0.487-0.925,1.295-0.831,2.123 c-1.259-0.033-1.575,0.26-1.747,0.424c-0.188,0.182-0.644,0.621-0.407,2.413c-0.812,0.229-1.812,0.675-2.232,1.515 c-0.297,0.594,0.018,1.241,0.325,1.738C6.594,52.261,9.613,55,13.267,55c1.762,0,3.073-0.446,3.897-1.326 c0.479-0.511,0.682-1.056,0.77-1.47C20.289,52.607,24.501,53,31.999,53c7.5,0,11.713-0.393,14.067-0.797 c0.088,0.414,0.291,0.959,0.77,1.47C47.661,54.554,48.974,55,50.737,55c3.659,0,6.681-2.74,7.819-4.582 C58.864,49.921,59.178,49.275,58.88,48.681z M48,45.46c-0.64,0.881-1.184,1.91-1.542,3.077l-0.013-0.007 c-2.287-1.249-5.807-3.163-8.801-4.25c2.815-1.598,5.131-3.224,6.881-4.606c0.115,0.226,0.265,0.434,0.464,0.609 c0.688,0.607,1.698,0.721,2.348,0.721c0.291,0,0.51-0.022,0.595-0.034c0.022-0.002,0.047-0.005,0.069-0.007V45.46z M19.997,37.525 c0.842-0.583,0.933-0.982,0.976-1.183c0.062-0.283,0.158-0.727-0.845-2.017c0.121-0.13,0.237-0.274,0.343-0.43 C20.962,35.948,21.961,38,24,38c0.487,0,1.194-0.008,1.625-2.109c0.173,0.068,0.356,0.108,0.547,0.108l4.611-0.002 C30.804,35.999,30.837,36,30.879,36c0.215,0,0.674-0.034,1.12-0.274c0.45,0.242,0.908,0.275,1.09,0.275 c0.034,0,0.058-0.001,0.071-0.002h4.667c0.191,0,0.374-0.039,0.547-0.108C38.806,37.992,39.513,38,40,38 c2.039,0,3.038-2.052,3.529-4.105c0.106,0.155,0.222,0.3,0.343,0.43c-1.003,1.29-0.906,1.733-0.845,2.015 c0.043,0.203,0.135,0.602,0.975,1.184c-2.553,2.1-6.591,4.968-12.003,7.383C26.59,42.495,22.552,39.626,19.997,37.525z M39.999,31 h1.948c-0.168,1.998-0.709,4.27-1.532,4.855c-0.217-0.865-0.394-2.789-0.415-4.699c0-0.011-0.002-0.021-0.003-0.031 C39.998,31.081,39.998,31.043,39.999,31z M32.999,31h4.995c-0.033,1.312-0.197,2.547-0.413,2.999L33.125,34 c-0.034,0.01-0.086-0.006-0.126-0.016V31z M32,29c-3.309,0-6-2.691-6-6s2.691-6,6-6s6,2.691,6,6S35.309,29,32,29z M26.418,33.999 c-0.216-0.452-0.379-1.687-0.413-2.999h4.992l-0.003,2.984c-0.042,0.009-0.102,0.012-0.158,0.015H26.418z M24.001,31 c0.001,0.043,0,0.081,0.001,0.125c0,0.011-0.003,0.021-0.003,0.031c-0.021,1.91-0.198,3.834-0.415,4.699 c-0.822-0.586-1.363-2.857-1.532-4.855H24.001z M47.738,38.98c-0.502,0.061-1.219-0.011-1.453-0.238 c0.024-0.13,0.216-0.506,0.396-0.774c0.162-0.242,0.21-0.544,0.132-0.825c-0.078-0.28-0.275-0.514-0.539-0.638 c-0.383-0.179-0.797-0.408-1.081-0.593c0.208-0.297,0.528-0.702,0.843-1.058c0.203-0.228,0.29-0.535,0.238-0.835 c-0.052-0.301-0.238-0.561-0.506-0.707c-0.007-0.004-0.764-0.463-0.772-1.022c0.123-0.162,0.85-0.33,1.52-0.287 c0.022,0.001,0.044,0.002,0.07,0.002c0.03,0.016,3.116-0.011,4.624,1.483C51.741,34.017,52,34.671,52,35.489 C52,38.611,47.956,38.963,47.738,38.98z M51,24c0.513,0,0.943-0.389,0.995-0.898c0.123-1.205,0.463-2.548,0.751-3.027 C53.454,20.532,55,22.773,55,25c0,2.347-0.016,4.765-6,4.979c-0.014-1.245-0.125-3.458-0.646-5.979H51z M26.088,14.996 c0.445-0.04,0.811-0.371,0.894-0.81c0.083-0.439-0.135-0.881-0.535-1.081l-0.698-0.349c3.477-0.744,7.34-0.755,7.388-0.755 c3.747,0,6.798,1.206,9.068,3.583c4.25,4.452,4.75,11.857,4.79,14.431c-0.188-0.009-0.33-0.011-0.394-0.011 c-0.358-0.021-1.68-0.039-2.62,0.557c0.011-0.221,0.017-0.414,0.02-0.544c0.004-0.268-0.099-0.527-0.287-0.719S43.268,29,43,29 h-5.726C38.941,27.533,40,25.39,40,23c0-4.411-3.589-8-8-8s-8,3.589-8,8c0,2.39,1.059,4.533,2.726,6H21 c-0.268,0-0.525,0.107-0.713,0.299S19.996,29.75,20,30.018c0.002,0.13,0.009,0.323,0.02,0.544c-0.94-0.596-2.261-0.576-2.62-0.556 c-0.063,0-0.199,0.002-0.381,0.011c0.188-8.849,2.873-10.634,2.873-10.636c0.432-0.227,0.638-0.731,0.486-1.195 c-0.151-0.463-0.608-0.744-1.097-0.68l-0.511,0.075C21.783,15.409,26.035,15.001,26.088,14.996z M9,25 c0-2.277,1.622-4.541,2.299-4.943c0.283,0.462,0.6,1.794,0.704,3.027C12.047,23.602,12.48,24,13,24h2.622 c-0.328,1.585-0.56,3.548-0.611,5.977C9.013,29.741,9,27.335,9,25z M12,35.489c0-0.818,0.259-1.473,0.792-2.001 c1.475-1.462,4.462-1.483,4.618-1.483c0.003,0,0.005,0,0.006,0c0.021,0.001,0.048-0.001,0.07-0.002 c0.667-0.044,1.396,0.125,1.511,0.284c0,0.482-0.571,0.916-0.764,1.025c-0.268,0.146-0.454,0.406-0.506,0.707 c-0.052,0.3,0.036,0.607,0.238,0.835c0.315,0.355,0.636,0.761,0.843,1.058c-0.284,0.185-0.698,0.414-1.081,0.593 c-0.264,0.124-0.461,0.357-0.539,0.638c-0.079,0.281-0.03,0.583,0.132,0.825c0.179,0.269,0.371,0.645,0.368,0.817 c-0.207,0.184-0.923,0.255-1.471,0.191C16.044,38.963,12,38.611,12,35.489z M15,40.814c0.368,0.079,0.715,0.13,1.018,0.152 c0.102,0.013,0.338,0.037,0.644,0.037c0.667,0,1.667-0.115,2.35-0.719c0.198-0.175,0.348-0.382,0.463-0.607 c1.768,1.396,4.113,3.04,6.966,4.653c-2.964,1.144-6.355,2.922-8.546,4.075c-0.121,0.064-0.225,0.118-0.339,0.178 c-0.531-1.762-1.485-3.214-2.555-4.312V40.814z M15.704,52.307C15.279,52.76,14.436,53,13.267,53c-2.995,0-5.44-2.524-6.107-3.61 c0.337-0.186,0.946-0.378,1.49-0.451c0.276-0.037,0.525-0.188,0.685-0.417c0.16-0.228,0.219-0.513,0.16-0.785 c-0.104-0.481-0.176-1.033-0.193-1.405c0.383,0.006,0.948,0.056,1.45,0.132c0.365,0.056,0.737-0.098,0.958-0.398 s0.254-0.7,0.09-1.035c-0.134-0.272-0.242-0.619-0.285-0.882c1.296,0.601,4.485,3.026,4.485,7.458c0,0.021,0,0.043,0.002,0.065 C16.001,51.674,15.987,52.005,15.704,52.307z M18.613,50.286c0.073-0.038,0.137-0.072,0.213-0.112 c2.592-1.364,6.914-3.637,10.008-4.566c0.886,0.446,1.798,0.886,2.766,1.308c0.127,0.056,0.264,0.083,0.4,0.083 s0.272-0.028,0.4-0.083c0.97-0.424,1.884-0.865,2.772-1.312c2.987,0.679,7.729,3.268,10.293,4.669 C43.328,50.615,39.305,51,31.999,51C24.78,51,20.768,50.624,18.613,50.286z M50.737,53c-1.447,0-2.112-0.362-2.415-0.666 c-0.308-0.309-0.322-0.647-0.323-0.688c0-0.014,0.001-0.027,0.001-0.041c0-4.437,3.196-6.86,4.492-7.459 c-0.042,0.262-0.15,0.609-0.284,0.88c-0.167,0.334-0.134,0.734,0.085,1.036c0.22,0.304,0.59,0.455,0.96,0.4 c0.503-0.077,1.069-0.126,1.453-0.132c-0.017,0.372-0.089,0.923-0.193,1.405c-0.059,0.272,0,0.558,0.16,0.785 c0.16,0.229,0.409,0.38,0.686,0.417c0.545,0.073,1.156,0.267,1.492,0.45C56.185,50.476,53.736,53,50.737,53z"/></svg>