<?xml version="1.0"?><svg xmlns="http://www.w3.org/2000/svg" viewBox="0 0 100 100">    <path d="M 6 5 C 5.74425 5 5.4884688 5.0974688 5.2929688 5.2929688 C 4.9019687 5.6839688 4.9019688 6.3160312 5.2929688 6.7070312 L 28.373047 29.787109 C 15.991047 37.169109 7 48.166 7 50 C 7 52.802 27.991 77 50 77 C 56.917 77 63.732125 74.607188 69.828125 71.242188 L 93.292969 94.707031 C 93.487969 94.902031 93.744 95 94 95 C 94.256 95 94.512031 94.902031 94.707031 94.707031 C 95.098031 94.316031 95.098031 93.683969 94.707031 93.292969 L 71.626953 70.212891 C 84.008953 62.830891 93 51.834 93 50 C 93 47.198 72.009 23 50 23 C 43.083 23 36.267875 25.392813 30.171875 28.757812 L 6.7070312 5.2929688 C 6.5115312 5.0974687 6.25575 5 6 5 z M 50 25 C 70.636 25 89.78075 47.196 90.96875 50 C 90.19175 51.835 81.721734 61.973672 70.177734 68.763672 L 66.242188 64.828125 C 66.687187 64.339125 67.119391 63.835734 67.525391 63.302734 C 67.692391 63.082734 67.649687 62.769562 67.429688 62.601562 C 67.209688 62.435563 66.896516 62.477266 66.728516 62.697266 C 66.350516 63.194266 65.948156 63.665094 65.535156 64.121094 L 57.025391 55.611328 C 58.257391 54.070328 59 52.122 59 50 C 59 45.037 54.963 41 50 41 C 47.878 41 45.928672 41.741609 44.388672 42.974609 L 35.898438 34.484375 C 39.629438 31.089375 44.57 29 50 29 C 61.579 29 71 38.421 71 50 C 71 51.148 70.907609 52.299922 70.724609 53.419922 C 70.679609 53.691922 70.864719 53.948188 71.136719 53.992188 C 71.401719 54.038187 71.665938 53.853078 71.710938 53.580078 C 71.902937 52.406078 72 51.202 72 50 C 72 37.869 62.131 28 50 28 C 44.294 28 39.088781 30.185719 35.175781 33.761719 L 31.628906 30.214844 C 37.274906 27.158844 43.565 25 50 25 z M 29.822266 31.236328 L 33.759766 35.173828 C 30.184766 39.087828 28 44.294 28 50 C 28 62.131 37.869 72 50 72 C 55.587 72 60.815938 69.94 64.835938 66.25 L 68.371094 69.785156 C 62.725094 72.841156 56.435 75 50 75 C 29.364 75 10.21925 52.804 9.03125 50 C 9.80825 48.165 18.278266 38.026328 29.822266 31.236328 z M 34.484375 35.898438 L 42.974609 44.388672 C 41.741609 45.928672 41 47.878 41 50 C 41 52.133 41.759672 54.201219 43.138672 55.824219 C 43.316672 56.035219 43.63275 56.060859 43.84375 55.880859 C 44.05375 55.701859 44.078391 55.386781 43.900391 55.175781 C 42.674391 53.733781 42 51.896 42 50 C 42 48.154 42.6335 46.457562 43.6875 45.101562 L 54.896484 56.310547 C 53.541484 57.365547 51.846 58 50 58 C 48.851 58 47.742078 57.761969 46.705078 57.292969 C 46.456078 57.179969 46.157922 57.290969 46.044922 57.542969 C 45.930922 57.793969 46.042922 58.090125 46.294922 58.203125 C 47.461922 58.732125 48.708 59 50 59 C 52.122 59 54.071328 58.258391 55.611328 57.025391 L 64.126953 65.541016 C 60.293953 69.044016 55.317 71 50 71 C 38.421 71 29 61.579 29 50 C 29 44.57 31.090375 39.629437 34.484375 35.898438 z M 50 42 C 54.411 42 58 45.589 58 50 C 58 51.846 57.3665 53.542438 56.3125 54.898438 L 45.101562 43.6875 C 46.457563 42.6335 48.154 42 50 42 z M 70.71875 55.003906 C 70.525719 55.031516 70.359891 55.172344 70.306641 55.371094 C 70.219641 55.700094 70.124437 56.026609 70.023438 56.349609 C 69.940438 56.613609 70.086609 56.893563 70.349609 56.976562 C 70.399609 56.991563 70.45 57 70.5 57 C 70.712 57 70.908562 56.863391 70.976562 56.650391 C 71.083562 56.312391 71.182438 55.972906 71.273438 55.628906 C 71.343437 55.360906 71.184969 55.087578 70.917969 55.017578 C 70.850719 54.999578 70.783094 54.994703 70.71875 55.003906 z M 69.759766 58 C 69.564859 57.998266 69.377875 58.112234 69.296875 58.302734 C 69.007875 58.972734 68.682078 59.629859 68.330078 60.255859 C 68.194078 60.496859 68.279531 60.800547 68.519531 60.935547 C 68.598531 60.978547 68.682625 61 68.765625 61 C 68.940625 61 69.109172 60.907141 69.201172 60.744141 C 69.570172 60.087141 69.911844 59.398266 70.214844 58.697266 C 70.322844 58.443266 70.207125 58.150016 69.953125 58.041016 C 69.890125 58.013266 69.824734 58.000578 69.759766 58 z"/></svg>