<svg xmlns="http://www.w3.org/2000/svg" viewBox="0 0 24 24"><path d="M 8 0 C 6.441406 0 5.175781 1.199219 5.03125 2.71875 C 4.769531 3.003906 4.582031 3.324219 4.5 3.6875 L 4.375 4.125 C 3.476563 4.375 2.722656 5.046875 2.40625 6 L 0.5 13.15625 C 0.191406 13.835938 0 14.605469 0 15.40625 L 0 15.5 C 0 18.5 2.40625 20.90625 5.40625 20.90625 C 5.40625 20.90625 3.492188 16.007813 7.09375 13.90625 C 5.695313 15.707031 6 18.5 6 18.5 C 6 21.5 8.699219 24 12 24 C 15.300781 24 18 21.5 18 18.5 C 18 18.5 18.300781 16.101563 17 14 C 20.398438 16.5 18.59375 21 18.59375 21 C 21.59375 21 24 18.59375 24 15.59375 L 24 15.5 C 24 14.726563 23.835938 14.003906 23.5625 13.34375 C 23.554688 13.324219 23.539063 13.300781 23.53125 13.28125 L 21.59375 6 C 21.269531 5.023438 20.488281 4.324219 19.5625 4.09375 L 19.40625 3.59375 C 19.335938 3.3125 19.164063 3.058594 18.96875 2.8125 C 18.867188 1.246094 17.589844 0 16 0 C 14.699219 0 13.601563 0.839844 13.1875 2 L 10.8125 2 C 10.398438 0.839844 9.300781 0 8 0 Z M 12 15 C 14.199219 15 16 16.601563 16 18.5 C 16 20.398438 14.199219 22 12 22 C 9.800781 22 8 20.398438 8 18.5 C 8 16.601563 9.800781 15 12 15 Z"/></svg>