<svg xmlns="http://www.w3.org/2000/svg" width="512" height="512" viewBox="0 0 512 512"><path d="M59.3,409.8C59,409.9,59.1,410,59.3,409.8L59.3,409.8z"/><path fill="#F6851F" d="M192.1,93.1c-17.7-16.4-41.5-30.8-66.4-30.9c-11.9-0.1-23,2.7-32.3,10.4c-7.9,6.6-14.9,17.6-7,27c14.9,17.5,40.6,10.4,59.8,5.4c12.1-3.1,24.5-6,37-5.7c5.8,0.1,11.4,0.8,16.9,2.1C197.6,98.6,194.9,95.8,192.1,93.1z"/><path fill="#FEBF10" d="M322.1,173c-1.7-7.9-12.1-12.1-18.9-13.8c-8.9-2.3-17.6-2.8-26.8-2.7c-6.6,0.1-13.3,0.7-19.9-0.1c-6.3-0.8-11.8-2.9-17.2-6c-4.6-2.6-9.6-5.9-15.1-5.3c-4.9,0.5-9.4,2.4-13.3,5.2c-5.6,3.9-10.5,8.9-14.2,14.6c0.2,0.7,0.2,1.5-0.1,2.3c1.3,1.8,1.6,4.4-0.4,6.5c-2.6,2.8-5.8,10.8-1.8,13.9c2.9,2.3,8,1.6,11.4,2.3c9.6,1.8,16.1,8.2,15.4,18.2c-0.6,9.3-5.9,18.2-10.5,26c-5.7,9.6-10.4,19.2-13.9,30c-4.4,13.5-7.3,27.4-8.5,41.5c-0.6,6.4-0.9,12.9-0.9,19.4c0,4-0.4,10.6,3.4,13.3c10.2,7.2,12.8-21,13.2-25.3c1.4-14.1,2.3-28.2,8.2-41.3c2.1-4.7,8.3-3.4,10.1,0.6c3.1,6.8,1.8,14.8,4.3,21.8c2.9,8,11.2-1,12.6-6.1c3.1-11.6,2.4-23.9,2.4-35.8c0-7.8-0.3-15.7,0.6-23.5c0.8-7,2.1-13.9,3.5-20.7c0.4-2,1.6-3.3,3.1-3.9c-0.2-2.7,1.4-5.5,4.9-5.6c12.3-0.3,22.6-7.3,34.1-10.9c7.5-2.3,15.4-2.8,22.9-5.3C314.4,181.1,323.2,178.5,322.1,173z"/><path fill="#EF4823" d="M426,73.4c-7.9-5.6-19.3-6.3-28.7-5.9c-11,0.5-22.5,2.3-32.6,7.2c-13.6,6.6-21.3,19.7-28.1,33.1c6.2-4.3,13-7.8,20-10.4c14.6-5.4,28.2-8,43.3-2.8c6.8,2.4,13.3,5.9,20.1,8.2c4.4,1.5,9.8,2.9,14.4,1.2C447.5,99.2,432.5,77.9,426,73.4z"/><path fill="#F6851F" d="M339.2 32.9c-2.3-8.4-9.4-11.5-17.7-10.3-38.5 6-43.3 46.8-43.1 79.3 7.7-6.5 15.6-12.8 23.6-19 9.1-7 19.6-13.1 27.3-21.7C335.6 54.2 342 43 339.2 32.9zM240.7 35.1c-2.5-10.1-13.1-25.5-25-16.3-11 8.4-5.7 23.6.5 33.2 5 7.7 11.3 15.3 18.8 20.9C238 60.4 243.8 47.8 240.7 35.1z"/><path fill="#C56528" d="M437.9,411.1c-0.1-0.5-0.2-0.9-0.2-1.4c-13.8-17-25.9-35.7-37.3-54.4C388,335,376.8,314,366.6,292.6c-5-10.5-10.4-21-13.6-32.2c-3.2-10.9-5.2-22.1-7.6-33.2c-2.4-10.7-5.4-20.7-10.2-30.6c-2-4.2-4.1-8.3-6-12.5c-2.9,3.2-7,5.6-11.1,7.2c-8.2,3.2-16.9,3.6-25.2,6.2c-12.2,3.8-23.4,10.8-36.3,11.8c0,0.2-0.1,0.5-0.1,0.7c-1.9,9.4-3.9,18.9-3.9,28.5V266c0,11-0.2,26.7-8.2,35.3c-7,7.6-20.9,10.3-26.6-0.2c-0.5-1-1-2-1.3-3c-0.9,7.3-1.3,14.6-2.3,21.9c-1.4,10.3-3.9,24.7-15,29c-11.2,4.4-20.8-5-22.3-15.6c-1.7-11.9-0.2-25.1,1.4-36.9c1.8-14,5.1-27.7,9.9-40.9c2.2-6,4.3-12.2,7.5-17.7c2.1-3.6,4.3-7.1,6.4-10.7c3.2-5.5,10.9-16.6,7.9-23.4c-1.5-3.4-7.5-3.4-10.6-3.7c-4.1-0.5-9.1-1.2-12.1-4.2c-1-1-1.9-2.2-2.6-3.4c-6.2,15.7-10.6,32.2-14.9,48.6c-6.2,23.8-11.3,49.3-24.6,70.3c-6.9,11-15.4,21-24.5,30.3c-8.9,9-18.6,17.5-26.3,27.7c-4.3,5.7-7.9,11.7-11.3,17.9c-2.7,4.9-6,9.7-7.9,14.9c-1.2,3.2-2.5,7.4-4.4,10.9c0.8,1.1,1.2,2.4,0.8,4.1c-1.4,7.7,1.3,13.4,7.9,17.6c7.3,4.6,15.1,8,22.1,13.1c9.1,6.5,17.3,14,25.8,21.3c7.9,6.8,16.3,12.9,24.4,19.4c7.3,5.9,14,9.3,23.5,10.2c11.5,1.1,23.1-0.1,34.3-2.7c11.4-2.7,22.4-6.5,33.7-9.5c10-2.6,20-5,29.9-8c0.4-1.1,1.2-2.1,2.4-2.6c-1.7-9.7,0.7-19.8,2.6-29.7c3-15.5,3.6-31.2,2.7-47c-1.7-30.8-1.9-62.6-10.9-92.3c-1.9-6.3,7-9.9,9.9-4.9c1.5,0.4,2.8,1.4,3.5,3.2c10.3,25.1,23.5,50.1,24.2,77.8c0.4,15.2-1.8,32,5.7,46c6,11.2,14.3,21,19.9,32.4c9.5-7.9,22-10.4,34-11.9c10.9-1.4,23.8-1.1,32.8-8.4c7.5-6,13.3-14,22.6-17.3c3.5-1.3,7.1-2.3,10.5-3.8c0.8-0.4,1.6-0.7,2.4-1.2C433.4,416,435.1,412.4,437.9,411.1z"/><path fill="#FEBF10" d="M324.7,469.8c-5.5-13-15.1-23.6-21.5-36.1c-7-13.8-6.7-29.3-6.7-44.4c0-14.9-3.4-28.8-8.2-42.3c0.8,7.9,1.3,15.7,1.8,23.6c1.3,22.8,3.5,45.9,0.2,68.7c-1.1,7.5-3,14.8-4.1,22.3c-0.9,6.2-1.4,13.5,2.2,19c3.9,5.9,10.3,9.4,17.2,10.6c6,1,13.2,0.8,18.2-3.2C329.6,483.3,327.1,475.5,324.7,469.8z"/><path d="M449.6 406.9c-14.6-17.5-27.1-36.8-39.1-56.2-12.4-19.9-23.3-40.7-33.5-61.8-4.8-10-9.7-19.9-13.1-30.5-3.5-10.8-5.4-22-7.8-33.1-2.3-10.7-5.2-20.9-9.8-30.9-4.4-9.3-9.4-18.3-12-28.3-.8-2.9-3-3.9-5.2-3.6-3.1-4.1-7.4-7.4-11.5-9.6-9.5-5.2-21.2-6.9-31.9-7.5-12.9-.6-26.6 2.7-38.6-3.4-5.7-2.9-10.8-6.4-17.2-7.7-5.6-1.1-11.5.1-16.7 2.2-10.7 4.2-19.7 13.1-25.9 22.6-1.6 2.4-3 4.9-4.1 7.5-.5 1.2-.6 2.3-.4 3.3-10 19.1-16.2 40-21.7 60.8-6.1 22.9-10.6 47.3-21.6 68.5-11.6 22.3-31.4 37.9-47.9 56.2-8.6 9.5-14.9 20.4-21 31.6-2.5 4.5-4.7 8.6-6.5 13.4-.7 1.9-1.5 3.8-2.3 5.7-.5 1-1 2-1.6 3-.3.5-.5.7-.7.8.2-.1.6-.2 1.3-.3-6.5 1-6.3 10.5-.6 11-.1 6.8 2.1 12.8 7 18.2 5.7 6.2 14.2 9.6 21.4 13.6 10.6 5.8 19.7 14.8 28.8 22.7 8.8 7.6 18.1 14.4 27.1 21.7 7.6 6.2 15.5 11 25.4 12.4 12.2 1.8 24.7.9 36.8-1.4 12.5-2.4 24.4-6.5 36.6-9.9 12.3-3.4 24.8-6.2 36.9-10 8.3 12.6 26.2 16.8 40.3 13.7 6.8-1.5 13.1-5.9 16.2-12.2 2.8-5.6 2.2-11.8.5-17.6.7-.2 1.4-.5 2.1-1.1 10.4-8.6 24.3-9.6 37.2-11.1 6.2-.7 12.5-1.6 18.5-3.3 6.7-1.9 12.2-6.5 17.1-11.2 2.2-2.1 4.3-4.3 6.6-6.2 1-.8 2.1-1.6 3.1-2.3.3-.2 3.1-1.7 3.2-1.8 3.4-1.6 7.3-2.5 10.8-3.9 6.7-2.7 14.5-8.8 10.9-15.5C449.8 414.4 451.9 409.7 449.6 406.9zM196.1 173.6c2-2.2 1.7-4.7.4-6.5.2-.8.2-1.6.1-2.3 3.7-5.7 8.6-10.7 14.2-14.6 4-2.8 8.5-4.8 13.3-5.2 5.5-.5 10.5 2.7 15.1 5.3 5.5 3.1 10.9 5.2 17.2 6 6.6.8 13.3.2 19.9.1 9.2-.1 17.9.4 26.8 2.7 6.8 1.8 17.2 5.9 18.9 13.8 1.1 5.5-7.6 8.1-11.5 9.3-7.5 2.5-15.4 2.9-22.9 5.3-11.5 3.6-21.8 10.6-34.1 10.9-3.5.1-5.1 2.8-4.9 5.6-1.5.6-2.7 1.8-3.1 3.9-1.4 6.9-2.8 13.7-3.5 20.7-.8 7.8-.6 15.7-.6 23.5 0 11.9.7 24.2-2.4 35.8-1.3 5.1-9.7 14.1-12.6 6.1-2.6-7-1.2-15-4.3-21.8-1.8-4-8-5.3-10.1-.6-5.9 13.1-6.8 27.2-8.2 41.3-.4 4.3-3 32.5-13.2 25.3-3.8-2.7-3.4-9.2-3.4-13.3 0-6.5.4-13 .9-19.4 1.2-14.1 4.1-28 8.5-41.5 3.5-10.8 8.2-20.3 13.9-30 4.7-7.8 9.9-16.7 10.5-26 .7-10.1-5.8-16.4-15.4-18.2-3.4-.7-8.5 0-11.4-2.3C190.4 184.4 193.6 176.5 196.1 173.6zM323.9 487.9c-5 4-12.2 4.2-18.2 3.2-6.9-1.2-13.4-4.7-17.2-10.6-3.6-5.5-3.1-12.8-2.2-19 1-7.5 3-14.8 4.1-22.3 3.3-22.8 1.1-45.8-.2-68.7-.4-7.9-1-15.8-1.8-23.6 4.8 13.5 8.2 27.4 8.2 42.3 0 15.1-.4 30.5 6.7 44.4 6.4 12.5 16 23.2 21.5 36.1C327.1 475.5 329.6 483.3 323.9 487.9zM435.3 418.9c-.8.4-1.6.8-2.4 1.2-3.4 1.5-7 2.6-10.5 3.8-9.3 3.3-15.1 11.3-22.6 17.3-9 7.2-21.9 7-32.8 8.4-12 1.5-24.4 4-34 11.9-5.5-11.4-13.9-21.3-19.9-32.4-7.5-14-5.3-30.8-5.7-46-.7-27.8-13.9-52.7-24.2-77.8-.7-1.8-2.1-2.8-3.5-3.2-2.9-5-11.8-1.4-9.9 4.9 9 29.7 9.2 61.5 10.9 92.3.9 15.8.2 31.5-2.7 47-1.9 9.9-4.3 20-2.6 29.7-1.2.5-2 1.4-2.4 2.6-9.9 3-19.9 5.4-29.9 8-11.3 3-22.3 6.8-33.7 9.5-11.2 2.6-22.8 3.8-34.3 2.7-9.4-.9-16.1-4.3-23.5-10.2-8.1-6.5-16.5-12.6-24.4-19.4-8.5-7.3-16.8-14.8-25.8-21.3-7-5.1-14.8-8.5-22.1-13.1-6.6-4.2-9.3-9.8-7.9-17.6.3-1.7-.1-3-.8-4.1 1.9-3.6 3.2-7.7 4.4-10.9 1.9-5.2 5.2-10 7.9-14.9 3.4-6.2 7.1-12.2 11.3-17.9 7.6-10.2 17.4-18.7 26.3-27.7 9.1-9.2 17.6-19.3 24.5-30.3 13.3-21 18.4-46.5 24.6-70.3 4.3-16.4 8.7-32.8 14.9-48.6.7 1.2 1.6 2.3 2.6 3.4 3.1 3.1 8 3.8 12.1 4.2 3.1.3 9.1.3 10.6 3.7 3 6.8-4.7 17.9-7.9 23.4-2.1 3.6-4.3 7.1-6.4 10.7-3.2 5.5-5.3 11.7-7.5 17.7-4.8 13.3-8.1 26.9-9.9 40.9-1.5 11.8-3.1 25.1-1.4 36.9 1.5 10.6 11.1 20 22.3 15.6 11.1-4.3 13.6-18.8 15-29 1-7.2 1.4-14.6 2.3-21.9.4 1 .8 2 1.3 3 5.7 10.5 19.6 7.7 26.6.2 8-8.6 8.2-24.3 8.2-35.3v-27.4c0-9.7 2-19.1 3.9-28.5 0-.2.1-.5.1-.7 12.9-1 24.1-8 36.3-11.8 8.3-2.6 17-2.9 25.2-6.2 4.1-1.6 8.2-4 11.1-7.2 1.9 4.2 4 8.3 6 12.5 4.8 9.9 7.8 19.9 10.2 30.6 2.4 11.1 4.4 22.2 7.6 33.2 3.3 11.2 8.6 21.7 13.6 32.2 10.3 21.4 21.4 42.5 33.8 62.7 11.4 18.7 23.5 37.4 37.3 54.4 0 .5.1.9.2 1.4C435.1 412.4 433.4 416 435.3 418.9zM432.5 64.6c-17.5-12.3-44.3-9.3-63.5-3.4-13.3 4.1-23.7 12.5-31.6 23.9-8.4 12.1-13.8 25.8-21.4 38.4-.9 1.4-1 2.8-.6 4-1.3 1.6-2.5 3.2-3.6 4.8-4 5.8 4.2 13.1 8.3 7.3 7.6-10.9 17.2-19.7 28.7-26.4 12.2-7.2 28.3-13 42.5-9.9 13.4 2.9 24.6 12.2 38.7 12.4 7.7.1 15.5-3.5 18.6-10.8C454.6 90.8 443.8 72.6 432.5 64.6zM434.5 104c-4.6 1.7-10 .3-14.4-1.2-6.9-2.3-13.3-5.8-20.1-8.2-15.1-5.2-28.7-2.6-43.3 2.8-7.1 2.6-13.8 6.2-20 10.4 6.8-13.4 14.5-26.5 28.1-33.1 10-4.9 21.5-6.7 32.6-7.2 9.4-.4 20.7.3 28.7 5.9C432.5 77.9 447.5 99.2 434.5 104zM222.4 110.1c-1.1-.6-2.2-1.2-3.3-1.7C205.9 88 186.4 71.5 164.5 61c-21.3-10.2-47.5-14.3-69.1-2.9C85.7 63.2 76.5 72 73.1 82.6c-3.7 11.5 1.6 21.4 9.9 29.2 16.3 15.4 42.8 9.5 62 4.8 11.4-2.8 22.5-5.6 34.3-6.2 13.6-.7 26.4 2.9 38.2 9.5C223.8 123.4 228.6 113.5 222.4 110.1zM183.3 99.4c-12.6-.3-24.9 2.6-37 5.7-19.2 4.9-44.9 12.1-59.8-5.4-8-9.4-1-20.4 7-27 9.3-7.8 20.4-10.5 32.3-10.4 24.8.1 48.7 14.5 66.4 30.9 2.8 2.6 5.5 5.4 8.1 8.3C194.7 100.2 189.1 99.5 183.3 99.4zM332.7 12.4c-10-3.1-22.1.8-31.1 5.4-8.8 4.5-15.7 11.2-21.2 19.4-11 16.6-12.7 38.2-13.1 57.5-.1 5.6 0 11.2.1 16.8 0 .2 0 .5.1.7-2.1 4.6 5 9.7 9.6 5.5 11.8-10.7 24.4-20.4 36.9-30.1 9.5-7.3 19.6-13.6 27-23.3C353.3 48 356.1 19.7 332.7 12.4zM329.2 61.3C321.5 70 311 76 301.9 83.1c-8 6.2-15.9 12.4-23.6 19-.1-32.6 4.6-73.4 43.1-79.3 8.3-1.3 15.4 1.9 17.7 10.3C342 43 335.6 54.2 329.2 61.3zM249.7 26.6c-5.2-15.2-22.5-27.2-38-18.3-15.5 8.8-15.6 28.1-8.6 42.4 7.3 15.1 20.3 29.8 35.5 37.2 5.8 2.8 10.4-5.1 6.4-8.8 1.5-9 4.8-17.6 6.6-26.6C253.3 43.9 252.5 34.9 249.7 26.6zM235 72.9c-7.5-5.7-13.8-13.2-18.8-20.9-6.2-9.6-11.6-24.8-.5-33.2 12-9.1 22.6 6.2 25 16.3C243.8 47.8 238 60.4 235 72.9z"/></svg>