<svg xmlns="http://www.w3.org/2000/svg" width="512" height="512" viewBox="0 0 512 512"><path fill="#E5AA17" d="M506,256C506,119,394.9,7.9,257.9,7.9C120.9,7.9,9.8,119,9.8,256c0,137,111.1,248.1,248.1,248.1C394.9,504.1,506,393,506,256z"/><path fill="#FFF" d="M294.7 136.8c-3.4-1.9-7.6-1.7-10.8.4l-95.1 61.8h-35.2c-5.8 0-10.6 4.7-10.6 10.6v92.7c0 5.8 4.7 10.6 10.6 10.6h35.2l95.1 61.8c1.7 1.1 3.8 1.7 5.8 1.7 1.7 0 3.5-.4 5-1.3 3.4-1.9 5.5-5.4 5.5-9.3V146.1C300.2 142.3 298.1 138.7 294.7 136.8zM329.7 330.9c.9 0 1.8-.2 2.7-.5 24.2-9.4 40.5-38.5 40.5-72.4 0-30-13.2-57-33.6-69-3.5-2.1-8.1-.9-10.2 2.7-2.1 3.5-.9 8.1 2.7 10.2 16 9.4 26.3 31.4 26.3 56.2 0 27.4-12.8 51.4-31.1 58.5-3.8 1.5-5.7 5.8-4.2 9.6C323.9 329.1 326.7 330.9 329.7 330.9z"/></svg>