<svg xmlns="http://www.w3.org/2000/svg" width="512" height="512" viewBox="0 0 512 512"><path fill="#A0BF19" d="M7.9,256C7.9,119,119,7.9,256,7.9C393,7.9,504.1,119,504.1,256c0,137-111.1,248.1-248.1,248.1C119,504.1,7.9,393,7.9,256z"/><path fill="#AFAFAF" d="M438.9,298.2v-18.7h-6c-21.2-40.4-92.4-70.1-176.9-70.1c-84.5,0-155.7,29.7-176.9,70.1h-6.5v27.5h0.1c2.5,51.4,83.6,92.7,183.3,92.7c101.3,0,183.4-42.6,183.4-95.2C439.4,302.5,439.2,300.4,438.9,298.2z"/><path fill="#99999A" d="M256,209.4c-84.5,0-155.7,29.7-176.9,70.1h-6.5v27.5h0.1c2.5,51.4,83.6,92.7,183.3,92.7V209.4z"/><path fill="#C1C1C1" d="M256 188.3A183.4 95.2 0 1 0 256 378.7A183.4 95.2 0 1 0 256 188.3Z"/><path fill="#AFAFAF" d="M72.6,283.5c0-52.6,82.1-95.2,183.4-95.2v190.4C154.7,378.6,72.6,336,72.6,283.5z"/><path fill="#EB5453" d="M128.1,261.6c0-36.6,57.2-66.4,127.8-66.4s127.8,29.7,127.8,66.4c0,36.7-57.2,66.4-127.8,66.4S128.1,298.3,128.1,261.6z"/><path fill="#DA494A" d="M128.1,261.6c0-13.7,0-76.2,0-76.2s83.7,9.8,127.8,9.8c42.4,0,127.8-9.8,127.8-9.8s0,61.5,0,76.2c0,36.7-57.2,66.4-127.8,66.4S128.1,298.3,128.1,261.6z"/><path fill="#D04646" d="M128.1,261.6c0-13.7,0-76.2,0-76.2s83.7,9.8,127.8,9.8V328C185.4,328,128.1,298.3,128.1,261.6z"/><path fill="#EB5453" d="M128.1,185.4c0-36.6,57.2-66.4,127.8-66.4s127.8,29.7,127.8,66.4c0,36.7-57.2,66.4-127.8,66.4S128.1,222.1,128.1,185.4z"/><path fill="#E95E5D" d="M128.1,185.4h255.7c0,36.7-57.2,66.4-127.8,66.4S128.1,222.1,128.1,185.4z"/><path fill="#DC494A" d="M128.1,185.4c0-36.6,57.2-66.4,127.8-66.4v132.7C185.4,251.8,128.1,222.1,128.1,185.4z"/><path fill="#D64747" d="M128.1,185.4c0,0,57.2,0.9,127.8,0.9v65.4C185.4,251.8,128.1,222.1,128.1,185.4z"/><path fill="#F6EBD3" d="M169.5 170.9l11.4 17.5 11.5-17.7c.6-.9 1-1.6 1.3-1.9.3-.4.8-.7 1.5-1 .7-.3 1.6-.4 2.8-.4.9 0 1.7.1 2.4.3.7.2 1.3.5 1.8.9.4.4.6.8.6 1.1 0 .3-.1.5-.2.8-.1.3-.3.6-.5.9-.2.3-.4.6-.6.9l-12.2 17.1c-.4.7-.9 1.3-1.3 1.9-.4.6-.9 1.1-1.5 1.5-.6.4-1.3.8-2.3 1.1-.9.3-2.1.4-3.5.4-1.4 0-2.5-.1-3.5-.4-.9-.3-1.7-.6-2.3-1.1-.6-.5-1.1-1-1.5-1.6-.4-.6-.9-1.2-1.3-1.9l-12-16.9c-.2-.3-.4-.6-.6-.9-.2-.3-.4-.6-.5-1-.2-.3-.2-.6-.2-.9 0-.6.5-1.2 1.4-1.7.9-.5 2.1-.8 3.5-.8 1.7 0 3 .3 3.7.8C168 168.8 168.7 169.6 169.5 170.9zM230.1 167.4c5.2 0 9.7.6 13.5 1.6 3.8 1.1 6.6 2.7 8.5 4.7 1.9 2 2.9 4.4 2.9 7.1 0 2-.5 3.9-1.6 5.5-1.1 1.7-2.6 3.1-4.8 4.3-2.1 1.2-4.7 2.1-7.8 2.8-3.1.6-6.6 1-10.6 1-4 0-7.5-.3-10.6-1-3.1-.7-5.7-1.6-7.8-2.8-2.1-1.2-3.7-2.6-4.7-4.3-1.1-1.7-1.6-3.5-1.6-5.5 0-2 .6-3.8 1.7-5.5 1.1-1.7 2.7-3.1 4.8-4.3 2.1-1.2 4.7-2.1 7.7-2.7C222.8 167.7 226.3 167.4 230.1 167.4zM244.7 180.8c0-1.9-.6-3.6-1.8-5-1.2-1.4-2.9-2.5-5.1-3.2-2.2-.7-4.8-1.1-7.6-1.1-2 0-3.9.2-5.7.6-1.7.4-3.2 1-4.5 1.7-1.3.8-2.2 1.7-3 2.9-.7 1.2-1.1 2.5-1.1 4 0 1.5.4 2.8 1.1 4 .7 1.2 1.7 2.2 3.1 3 1.3.8 2.8 1.4 4.6 1.8 1.7.4 3.6.6 5.6.6 2.6 0 5-.3 7.2-1 2.2-.7 3.9-1.7 5.2-3.1C244 184.6 244.7 182.9 244.7 180.8zM292.2 172.2H281v19c0 1.1-.5 1.9-1.4 2.4-.9.5-2.2.8-3.6.8-1.5 0-2.8-.3-3.7-.8-1-.5-1.4-1.3-1.4-2.4v-19h-11.2c-1.7 0-3-.2-3.9-.6-.8-.4-1.3-.9-1.3-1.6 0-.7.4-1.2 1.3-1.6.9-.4 2.2-.6 3.8-.6h32.5c1.8 0 3.1.2 3.9.6.9.4 1.3.9 1.3 1.6 0 .7-.4 1.2-1.3 1.6C295.2 172 293.9 172.2 292.2 172.2zM335 171.9H312v6.4h21.2c1.6 0 2.7.2 3.5.5.8.4 1.2.8 1.2 1.4 0 .6-.4 1.1-1.1 1.5-.8.4-1.9.6-3.5.6H312v7.4h23.9c1.6 0 2.8.2 3.6.6.8.4 1.2.9 1.2 1.5 0 .6-.4 1.1-1.2 1.5-.8.4-2 .6-3.6.6H308c-2.2 0-3.8-.3-4.8-.8-1-.5-1.5-1.3-1.5-2.5v-19.7c0-.8.2-1.4.7-1.9.4-.5 1.1-.8 2.1-1.1.9-.2 2.1-.3 3.6-.3h27c1.6 0 2.9.2 3.6.6.8.4 1.2.9 1.2 1.5 0 .6-.4 1.1-1.2 1.5C337.9 171.7 336.7 171.9 335 171.9z"/></svg>