<svg xmlns="http://www.w3.org/2000/svg" viewBox="0 0 48 48"><path fill="#ffba57" d="M37,22c0-6.602,2.677-9.655,4.66-16.717C41.84,4.641,41.366,4,40.699,4H24H7.301	C6.634,4,6.16,4.641,6.34,5.283C8.323,12.345,11,15.398,11,22c0,6.779-7.503,12.62-7.977,22.972C2.998,45.534,3.464,46,4.026,46H24	h19.974c0.562,0,1.028-0.466,1.003-1.028C44.503,34.62,37,28.779,37,22z"/><path fill="#ffa726" d="M8,4L7.301,4C6.634,4,6.16,4.641,6.34,5.283C8.323,12.345,11,15.398,11,22	c0,6.779-7.503,12.62-7.977,22.972C2.998,45.534,3.464,46,4.026,46H5c1-10,9-16,9-23C14,16.012,10,11,8,4z"/><path fill="#ffa726" d="M24.001,26L24.001,26c0.566,0,1.039-0.432,1.09-0.995C25.036,18.017,25.34,11.015,26,4h-4	c0.679,6.868,0.969,13.874,0.911,21.003C22.961,25.568,23.434,26,24.001,26z"/><path fill="#ffa726" d="M40,4l0.699,0c0.666,0,1.141,0.641,0.961,1.283C39.677,12.345,37,15.398,37,22	c0,6.779,7.503,12.62,7.977,22.972C45.002,45.534,44.536,46,43.974,46H43c-1-10-9-16-9-23C34,16.012,38,11,40,4z"/><path fill="#d32f2f" d="M39.655,30H24H8.345c-0.663,1.251-1.374,2.548-2.064,3.911C13.687,33.965,20.37,37.832,24,46	c3.63-8.168,10.313-12.035,17.719-12.089C41.029,32.548,40.318,31.251,39.655,30z"/></svg>