<svg xmlns="http://www.w3.org/2000/svg" viewBox="0 0 64 64"><radialGradient id="3xPSW_GlkDtv1um3BfYJMa" cx="36.833" cy="35.917" r="26" gradientUnits="userSpaceOnUse" spreadMethod="reflect"><stop offset="0" stop-color="#f4e9c3"/><stop offset=".219" stop-color="#f8eecd"/><stop offset=".644" stop-color="#fdf4dc"/><stop offset="1" stop-color="#fff6e1"/></radialGradient><path fill="url(#3xPSW_GlkDtv1um3BfYJMa)" d="M10,8L10,8c2.209,0,4-1.791,4-4v0c0-2.209-1.791-4-4-4h0C7.791,0,6,1.791,6,4v0 C6,6.209,7.791,8,10,8z"/><radialGradient id="3xPSW_GlkDtv1um3BfYJMb" cx="31.417" cy="29.917" r="28.77" gradientUnits="userSpaceOnUse" spreadMethod="reflect"><stop offset="0" stop-color="#f4e9c3"/><stop offset=".219" stop-color="#f8eecd"/><stop offset=".644" stop-color="#fdf4dc"/><stop offset="1" stop-color="#fff6e1"/></radialGradient><path fill="url(#3xPSW_GlkDtv1um3BfYJMb)" d="M7.5,64L7.5,64c1.933,0,3.5-1.567,3.5-3.5v0c0-1.933-1.567-3.5-3.5-3.5h0 C5.567,57,4,58.567,4,60.5v0C4,62.433,5.567,64,7.5,64z"/><radialGradient id="3xPSW_GlkDtv1um3BfYJMc" cx="32.5" cy="32" r="31.751" gradientUnits="userSpaceOnUse" spreadMethod="reflect"><stop offset="0" stop-color="#f4e9c3"/><stop offset=".219" stop-color="#f8eecd"/><stop offset=".644" stop-color="#fdf4dc"/><stop offset="1" stop-color="#fff6e1"/></radialGradient><path fill="url(#3xPSW_GlkDtv1um3BfYJMc)" d="M9,29H5c-2.209,0-4,1.791-4,4v0c0,2.209,1.791,4,4,4h0.5C7.433,37,9,38.567,9,40.5v0 C9,42.433,7.433,44,5.5,44H5c-2.209,0-4,1.791-4,4v0c0,2.209,1.791,4,4,4h12.5c1.381,0,2.5,1.119,2.5,2.5v0 c0,1.381-1.119,2.5-2.5,2.5h0c-1.933,0-3.5,1.567-3.5,3.5v0c0,1.933,1.567,3.5,3.5,3.5h30c1.933,0,3.5-1.567,3.5-3.5v0 c0-1.933-1.567-3.5-3.5-3.5H47c-1.105,0-2-0.895-2-2v0c0-1.105,0.895-2,2-2h13c2.209,0,4-1.791,4-4v0c0-2.209-1.791-4-4-4h-3.5 c-1.381,0-2.5-1.119-2.5-2.5v0c0-1.381,1.119-2.5,2.5-2.5H57c2.209,0,4-1.791,4-4v0c0-2.209-1.791-4-4-4h-1.5 c-1.933,0-3.5-1.567-3.5-3.5v0c0-1.933,1.567-3.5,3.5-3.5h2c2.485,0,4.5-2.015,4.5-4.5v0c0-2.485-2.015-4.5-4.5-4.5H49 c-2.209,0-4-1.791-4-4v0c0-2.209,1.791-4,4-4h2c2.209,0,4-1.791,4-4v0c0-2.209-1.791-4-4-4L20,0c-2.209,0-4,1.791-4,4v0 c0,2.209,1.791,4,4,4h2c1.657,0,3,1.343,3,3v0c0,1.657-1.343,3-3,3H7.5C5.567,14,4,15.567,4,17.5v0C4,19.433,5.567,21,7.5,21H9 c2.209,0,4,1.791,4,4v0C13,27.209,11.209,29,9,29z"/><linearGradient id="3xPSW_GlkDtv1um3BfYJMd" x1="32.5" x2="32.5" y1="57" y2="4" gradientUnits="userSpaceOnUse" spreadMethod="reflect"><stop offset="0" stop-color="#37ab6a"/><stop offset=".422" stop-color="#39b66f"/><stop offset="1" stop-color="#3ac074"/></linearGradient><path fill="url(#3xPSW_GlkDtv1um3BfYJMd)" d="M45,10c0,3.314-2.686,6-6,6c-3.314,0-6-2.686-6-6s2.686-6,6-6C42.314,4,45,6.686,45,10z M12.5,22C10.015,22,8,24.015,8,26.5s2.015,4.5,4.5,4.5s4.5-2.015,4.5-4.5S14.985,22,12.5,22z M14.5,38c-2.485,0-4.5,2.015-4.5,4.5 s2.015,4.5,4.5,4.5s4.5-2.015,4.5-4.5S16.985,38,14.5,38z M25.173,55.829c1.56,1.561,4.091,1.561,5.657-0.004 c1.56-1.56,1.562-4.092,0-5.652c-1.563-1.564-4.097-1.564-5.657-0.004C23.608,51.735,23.61,54.267,25.173,55.829z M51.88,40.121 c1.172,1.172,3.071,1.172,4.243,0c1.169-1.169,1.172-3.071,0-4.245c-1.172-1.17-3.075-1.167-4.243,0 C50.705,37.05,50.708,38.949,51.88,40.121z M50.001,22.502c-0.001,1.373,1.116,2.5,2.496,2.5c1.382,0,2.505-1.126,2.505-2.5 c0-1.384-1.123-2.5-2.504-2.502C51.119,20,50.001,21.118,50.001,22.502z M44.5,46c-1.933,0-3.5,1.567-3.5,3.5s1.567,3.5,3.5,3.5 c1.933,0,3.5-1.567,3.5-3.5S46.433,46,44.5,46z M18.465,16.536c1.95,1.952,5.121,1.952,7.068,0.003 c1.956-1.954,1.955-5.123,0.003-7.074c-1.953-1.954-5.118-1.953-7.074,0.001C16.514,11.415,16.51,14.581,18.465,16.536z"/></svg>