<svg xmlns="http://www.w3.org/2000/svg" viewBox="0 0 16 16"><path d="M 6.4941406 2 C 5.6716358 2 4.9941406 2.6774952 4.9941406 3.5 C 4.9941406 4.3225048 5.6716358 5 6.4941406 5 C 7.3166454 5 7.9941406 4.3225048 7.9941406 3.5 C 7.9941406 2.6774952 7.3166454 2 6.4941406 2 z M 6.4941406 5 C 5.6671406 5 4.9941406 5.673 4.9941406 6.5 L 4.9941406 7.8300781 L 4.9941406 8.4980469 C 4.9941406 8.9149495 5.1000026 9.3359696 5.4121094 9.6230469 C 5.7242162 9.9101242 6.1461896 10 6.6191406 10 L 8.3886719 10 L 9.140625 12.166016 C 8.86335 12.278358 8.6346988 12.433661 8.46875 12.599609 C 8.3122788 12.756081 8.2035598 12.915629 8.1289062 13.056641 C 8.0915793 13.127151 8.0613705 13.193516 8.0390625 13.257812 C 8.0167555 13.322112 7.9941406 13.359375 7.9941406 13.5 L 7.9941406 14 L 8.4941406 14 L 11.994141 14 L 11.994141 13.5 C 11.994141 13.359375 11.969566 13.322111 11.947266 13.257812 C 11.924956 13.193513 11.896705 13.127147 11.859375 13.056641 C 11.784725 12.915629 11.676002 12.756081 11.519531 12.599609 C 11.231408 12.311491 10.760363 12.055988 10.148438 12.015625 L 9.2167969 9.3359375 A 0.50005 0.50005 0 0 0 8.7441406 9 L 6.6191406 9 C 6.2760916 9 6.1362369 8.9293913 6.0898438 8.8867188 C 6.0434504 8.844046 5.9941406 8.7641442 5.9941406 8.4980469 L 5.9941406 7.375 L 5.9941406 6.5 C 5.9941406 6.224 6.2181406 6 6.4941406 6 L 11 6 L 11 5 L 6.4941406 5 z M 6.4941406 3 C 6.7762053 3 6.9941406 3.2179353 6.9941406 3.5 C 6.9941406 3.7820647 6.7762053 4 6.4941406 4 C 6.2120759 4 5.9941406 3.7820647 5.9941406 3.5 C 5.9941406 3.2179353 6.2120759 3 6.4941406 3 z M 4.9941406 10.427734 L 4.9941406 11.806641 L 3 14 L 4.3515625 14 L 5.8632812 12.335938 C 5.9462813 12.243937 5.9941406 12.124 5.9941406 12 L 5.9941406 10.875 C 5.6521406 10.805 5.32125 10.671891 5.03125 10.462891 C 5.01725 10.452891 5.0081406 10.437734 4.9941406 10.427734 z"/></svg>