<?xml version="1.0"?><svg xmlns="http://www.w3.org/2000/svg" viewBox="0 0 64 64">    <path d="M 7.0449219 4.9394531 C 6.6563281 4.9697813 6.3070312 5.2280937 6.1757812 5.6210938 C 6.0017812 6.1450938 6.2845937 6.7117188 6.8085938 6.8867188 C 7.4705937 7.1067187 8.5374844 7.3936094 9.7714844 7.7246094 C 12.045484 8.3336094 14.875469 9.0912656 16.105469 9.6972656 C 18.170469 10.715266 18.960937 12.893672 19.460938 14.888672 C 19.886937 16.594672 20.78575 18.266766 22.09375 19.759766 L 23.158203 20.865234 C 21.551203 22.301234 19.733891 23.503062 17.712891 24.414062 C 17.451891 24.532062 17.252969 24.756297 17.167969 25.029297 C 17.082969 25.302297 17.118578 25.59975 17.267578 25.84375 C 18.188578 27.36575 19.453391 28.814438 21.025391 30.148438 C 21.446391 30.504438 22.077547 30.45225 22.435547 30.03125 C 22.792547 29.61025 22.739359 28.979094 22.318359 28.621094 C 21.237359 27.704094 20.324797 26.735516 19.591797 25.728516 C 21.410797 24.799516 23.078359 23.655453 24.568359 22.314453 C 29.083359 26.394453 35.744469 27.883859 42.105469 26.255859 C 42.030469 28.507859 41.716375 31.336781 41.109375 33.675781 C 38.384375 34.322781 35.303109 34.270438 32.162109 33.523438 C 31.628109 33.395437 31.086984 33.728625 30.958984 34.265625 C 30.830984 34.802625 31.162219 35.34075 31.699219 35.46875 C 32.783219 35.72675 33.860781 35.900859 34.925781 36.005859 C 36.419781 38.136859 37.325797 39.468234 37.341797 39.490234 C 39.292797 42.221234 41.707531 44.684547 44.519531 46.810547 C 45.780531 47.763547 47.039969 48.719594 48.292969 49.683594 C 49.490969 50.605594 50.611031 51.612953 51.832031 52.501953 C 53.161031 53.466953 54.265078 53.9375 55.205078 53.9375 L 56.634766 53.9375 C 57.321766 53.9375 57.957859 54.216078 58.380859 54.705078 C 58.767859 55.152078 58.933656 55.726266 58.847656 56.322266 C 58.776656 56.818266 58.755891 56.952859 56.337891 57.005859 C 55.814891 57.016859 55.230719 57.0295 54.636719 57.0625 C 53.639719 57.0625 51.843422 56.540156 50.107422 56.035156 C 47.574422 55.300156 44.957703 54.538906 43.095703 54.753906 C 42.067703 54.871906 41.278203 55.003938 40.283203 55.335938 C 39.435203 55.617937 38.476953 55.939453 37.251953 55.939453 C 36.845953 55.939453 36.379719 55.921016 36.011719 55.791016 C 34.216719 55.152016 33.144531 52.692594 33.144531 50.683594 C 33.144531 49.068594 32.638734 47.808609 31.552734 46.724609 C 30.480734 45.652609 29.26975 44.86725 27.59375 43.78125 C 25.52875 42.44325 22.701516 40.610312 18.603516 37.195312 C 14.264516 33.578313 12.469516 29.115812 11.728516 26.007812 C 11.218516 23.866813 9.580125 22.272656 7.453125 21.847656 L 5.3105469 21.419922 C 4.7715469 21.310922 4.2417656 21.661125 4.1347656 22.203125 C 4.0267656 22.745125 4.3779219 23.272859 4.9199219 23.380859 L 7.0625 23.808594 C 8.4155 24.078594 9.4581563 25.098703 9.7851562 26.470703 C 10.596156 29.873703 12.561219 34.762422 17.324219 38.732422 C 21.514219 42.224422 24.399812 44.094938 26.507812 45.460938 C 28.080813 46.480938 29.217625 47.217625 30.140625 48.140625 C 30.844625 48.845625 31.146484 49.604594 31.146484 50.683594 C 31.146484 53.349594 32.61775 56.706734 35.34375 57.677734 C 35.99875 57.910734 36.675953 57.941406 37.251953 57.941406 C 38.800953 57.941406 39.974828 57.549422 40.923828 57.232422 C 41.750828 56.957422 42.406219 56.847188 43.324219 56.742188 C 44.789219 56.574188 47.316781 57.311937 49.550781 57.960938 C 51.504781 58.527938 53.350453 59.064453 54.689453 59.064453 C 55.313453 59.031453 55.877812 59.018812 56.382812 59.007812 C 58.589813 58.959812 60.494172 58.918328 60.826172 56.611328 C 60.996172 55.429328 60.665578 54.288484 59.892578 53.396484 C 59.089578 52.469484 57.901766 51.9375 56.634766 51.9375 L 55.205078 51.9375 C 54.980078 51.9375 54.317766 51.835719 53.009766 50.886719 C 52.055766 50.194719 51.191625 49.397828 50.265625 48.673828 C 48.764625 47.499828 47.241563 46.36975 45.726562 45.21875 C 43.074562 43.21475 40.801422 40.897562 38.982422 38.351562 C 38.982422 38.351562 38.417406 37.520187 37.441406 36.117188 C 39.094406 36.091187 40.6915 35.878844 42.1875 35.464844 C 42.5215 35.371844 42.784859 35.113297 42.880859 34.779297 C 43.841859 31.466297 44.149094 27.38925 44.121094 24.90625 C 44.117094 24.58725 43.962125 24.290469 43.703125 24.105469 C 43.444125 23.919469 43.113547 23.87075 42.810547 23.96875 C 35.429547 26.39175 29.145672 23.8035 25.763672 20.6875 L 23.566406 18.40625 C 22.499406 17.18625 21.750391 15.802344 21.400391 14.402344 C 21.030391 12.925344 20.163281 9.4673437 16.988281 7.9023438 C 15.582281 7.2093438 12.770062 6.4560156 10.289062 5.7910156 C 9.0850625 5.4690156 8.0444531 5.1892812 7.4394531 4.9882812 C 7.3082031 4.9440313 7.1744531 4.9293438 7.0449219 4.9394531 z M 6.1464844 30.337891 C 6.0174531 30.324234 5.8832031 30.336703 5.7519531 30.376953 L 3.8378906 30.957031 C 3.3098906 31.118031 3.011875 31.676078 3.171875 32.205078 C 3.302875 32.637078 3.6999063 32.914062 4.1289062 32.914062 C 4.2249063 32.914062 4.3229219 32.900094 4.4199219 32.871094 L 6.3320312 32.291016 C 6.8610312 32.130016 7.161 31.571969 7 31.042969 C 6.87925 30.646219 6.5335781 30.378859 6.1464844 30.337891 z M 25.054688 30.6875 C 24.668063 30.636734 24.270547 30.816078 24.060547 31.173828 C 23.780547 31.650828 23.940969 32.262969 24.417969 32.542969 C 25.196969 32.998969 26.011844 33.420828 26.839844 33.798828 C 26.974844 33.859828 27.114906 33.888672 27.253906 33.888672 C 27.633906 33.888672 27.996062 33.672688 28.164062 33.304688 C 28.393062 32.801687 28.172922 32.207516 27.669922 31.978516 C 26.902922 31.629516 26.148687 31.238406 25.429688 30.816406 C 25.310187 30.746406 25.183563 30.704422 25.054688 30.6875 z M 7.5058594 34.511719 C 7.376375 34.520156 7.2460469 34.552984 7.1230469 34.615234 L 5.3359375 35.511719 C 4.8419375 35.758719 4.6416719 36.358562 4.8886719 36.851562 C 5.0636719 37.202562 5.4162031 37.404297 5.7832031 37.404297 C 5.9332031 37.404297 6.0864688 37.370828 6.2304688 37.298828 L 8.0175781 36.404297 C 8.5115781 36.157297 8.7118437 35.5565 8.4648438 35.0625 C 8.2795938 34.69125 7.8943125 34.486406 7.5058594 34.511719 z M 9.9140625 38.365234 C 9.6614375 38.325109 9.3939219 38.382922 9.1699219 38.544922 L 7.5507812 39.71875 C 7.1037812 40.04375 7.004125 40.668234 7.328125 41.115234 C 7.524125 41.385234 7.8286719 41.529297 8.1386719 41.529297 C 8.3426719 41.529297 8.5476094 41.467844 8.7246094 41.339844 L 10.34375 40.164062 C 10.79075 39.838062 10.891406 39.212625 10.566406 38.765625 C 10.403906 38.542125 10.166688 38.405359 9.9140625 38.365234 z M 12.535156 41.802734 C 12.279281 41.803109 12.024578 41.900203 11.830078 42.095703 L 10.417969 43.513672 C 10.027969 43.904672 10.028922 44.537734 10.419922 44.927734 C 10.614922 45.122734 10.871953 45.21875 11.126953 45.21875 C 11.382953 45.21875 11.638984 45.121781 11.833984 44.925781 L 13.246094 43.507812 C 13.636094 43.116813 13.635141 42.48375 13.244141 42.09375 C 13.048141 41.89875 12.791031 41.802359 12.535156 41.802734 z M 15.695312 44.806641 C 15.442438 44.846891 15.204969 44.981578 15.042969 45.205078 L 13.867188 46.824219 C 13.543188 47.271219 13.643797 47.896703 14.091797 48.220703 C 14.268797 48.348703 14.473734 48.410156 14.677734 48.410156 C 14.987734 48.410156 15.292281 48.268047 15.488281 47.998047 L 16.662109 46.378906 C 16.986109 45.931906 16.887453 45.306422 16.439453 44.982422 C 16.215953 44.820922 15.948187 44.766391 15.695312 44.806641 z M 19.703125 47.265625 C 19.314484 47.237219 18.928484 47.439594 18.740234 47.808594 L 17.830078 49.589844 C 17.579078 50.081844 17.773625 50.682594 18.265625 50.933594 C 18.411625 51.008594 18.56575 51.044922 18.71875 51.044922 C 19.08275 51.044922 19.432375 50.844047 19.609375 50.498047 L 20.521484 48.71875 C 20.772484 48.22675 20.577938 47.624047 20.085938 47.373047 C 19.962937 47.310047 19.832672 47.275094 19.703125 47.265625 z M 23.728516 49.152344 C 23.339781 49.184922 22.990328 49.444891 22.861328 49.837891 L 22.238281 51.736328 C 22.066281 52.261328 22.351953 52.826047 22.876953 52.998047 C 22.980953 53.032047 23.0845 53.048828 23.1875 53.048828 C 23.6075 53.048828 24.000672 52.781328 24.138672 52.361328 L 24.761719 50.460938 C 24.934719 49.935938 24.648047 49.371219 24.123047 49.199219 C 23.991297 49.156469 23.858094 49.141484 23.728516 49.152344 z"/></svg>