<svg xmlns="http://www.w3.org/2000/svg" viewBox="0 0 48 48"><path fill="#fcbf95" d="M29.911,13.164c-1.722,1.794-1.949,6.182-2.049,8.397c-0.085,1.892,0.082,3.872-1.213,5.489 c-0.325,0.406-0.526,1.798-0.319,2.426c0.102,0.309,1.707,0.783,1.851,0.447c0.383-0.894,0.359-1.755,0.574-2.362 c0.685-1.927,1.216-3.947,1.404-6.064c0.143-1.612,0.59-2.973,0.544-4.586c-0.026-0.907,0.61-1.354-0.097-1.988 C30.219,14.575,30.133,14.081,29.911,13.164z"/><path fill="#010101" d="M27.857,30.538c-0.024,0-0.05-0.001-0.075-0.002c-0.364-0.016-1.718-0.271-1.926-0.904 c-0.256-0.774-0.037-2.344,0.403-2.895c0.998-1.246,1.036-2.753,1.076-4.348c0.007-0.285,0.015-0.569,0.027-0.851 c0.099-2.194,0.304-6.758,2.188-8.721c0.127-0.132,0.312-0.182,0.491-0.137c0.176,0.048,0.313,0.188,0.355,0.365l0.059,0.248 c0.178,0.743,0.258,1.052,0.485,1.255c0.685,0.614,0.509,1.221,0.381,1.664c-0.064,0.222-0.125,0.432-0.118,0.683 c0.029,1.031-0.134,1.968-0.29,2.875c-0.1,0.57-0.201,1.159-0.256,1.771c-0.173,1.942-0.642,3.966-1.432,6.187 c-0.073,0.206-0.116,0.47-0.166,0.775c-0.08,0.484-0.17,1.034-0.419,1.616C28.559,30.314,28.355,30.538,27.857,30.538z M26.782,29.233c0.202,0.129,0.734,0.286,1.014,0.306c0.147-0.406,0.214-0.807,0.277-1.196c0.056-0.338,0.108-0.657,0.211-0.948 c0.762-2.141,1.213-4.083,1.378-5.941c0.059-0.653,0.164-1.263,0.267-1.853c0.155-0.897,0.302-1.745,0.275-2.675 c-0.011-0.407,0.082-0.73,0.157-0.989c0.114-0.396,0.129-0.446-0.088-0.641c-0.294-0.264-0.454-0.573-0.58-0.968 c-1.097,2.027-1.257,5.603-1.332,7.257c-0.012,0.275-0.019,0.553-0.025,0.831c-0.043,1.69-0.087,3.438-1.295,4.948 C26.855,27.594,26.661,28.689,26.782,29.233z M26.806,29.319h0.01H26.806z"/><path fill="#fcbf95" d="M31.054,34.2c-0.344,0.131-0.259,1.288-0.319,1.675c-0.114,0.737-0.17,1.489-0.241,2.236 c-0.084,0.877-0.198,1.846-0.522,2.663c-0.251,0.634-2.793,2.028-1.649,2.925c0.827,0.648,2.542-0.269,3.131-0.822 c0.781-0.734,1.107-2.007,1.373-3.126c0.201-0.846,0.224-1.79,0.38-2.663c0.143-0.8,0.358-1.542,0.33-2.368 C33.071,34.711,31.29,34.66,31.054,34.2z"/><path fill="#010101" d="M29.057,44.425c-0.378,0-0.737-0.095-1.042-0.333c-0.387-0.303-0.478-0.65-0.485-0.889 c-0.025-0.759,0.719-1.426,1.376-2.015c0.219-0.196,0.55-0.493,0.604-0.604c0.298-0.751,0.407-1.695,0.486-2.521l0.044-0.472 c0.055-0.601,0.109-1.201,0.201-1.793c0.014-0.09,0.017-0.229,0.022-0.386c0.024-0.688,0.052-1.466,0.611-1.68 c0.223-0.087,0.475-0.001,0.601,0.199c0.154,0.106,0.812,0.265,2.07,0.288c0.266,0.005,0.48,0.217,0.49,0.482 c0.023,0.683-0.104,1.304-0.226,1.905c-0.038,0.188-0.077,0.376-0.111,0.567c-0.065,0.363-0.105,0.739-0.147,1.115 c-0.058,0.522-0.116,1.063-0.238,1.576c-0.252,1.06-0.597,2.511-1.518,3.375C31.375,43.637,30.146,44.425,29.057,44.425z M31.291,34.939c-0.017,0.181-0.023,0.381-0.028,0.509c-0.007,0.204-0.015,0.386-0.033,0.504c-0.089,0.571-0.141,1.151-0.193,1.73 l-0.044,0.477c-0.086,0.894-0.206,1.922-0.555,2.8c-0.123,0.309-0.45,0.603-0.865,0.975c-0.368,0.33-1.054,0.945-1.044,1.237 c0.002,0.037,0.036,0.082,0.104,0.135c0.503,0.396,1.95-0.294,2.48-0.792c0.701-0.659,1.006-1.941,1.229-2.877 c0.107-0.454,0.16-0.94,0.217-1.455c0.044-0.398,0.088-0.797,0.157-1.182c0.035-0.2,0.076-0.396,0.115-0.592 c0.084-0.41,0.165-0.805,0.195-1.204C32.182,35.161,31.642,35.059,31.291,34.939z M31.498,33.97L31.498,33.97L31.498,33.97z"/><path fill="#fcbf95" d="M35.596,36.007c0.049,2.642-1.242,5.61,0.574,7.719c1.663,1.931,3.032-0.306,1.702-1.719 c-1.113-2.097,0.126-4.867,0.447-7.021C37.248,35.06,36.123,35.877,35.596,36.007z"/><path fill="#010101" d="M37.441,44.977c-0.401,0-0.999-0.168-1.65-0.925c-1.412-1.641-1.147-3.682-0.891-5.655 c0.103-0.795,0.21-1.618,0.195-2.38c-0.004-0.233,0.153-0.438,0.38-0.495c0.13-0.032,0.39-0.163,0.641-0.289 c0.578-0.291,1.372-0.69,2.169-0.746c0.141-0.013,0.299,0.049,0.401,0.16c0.103,0.11,0.149,0.263,0.127,0.413 c-0.086,0.581-0.232,1.186-0.388,1.825c-0.411,1.7-0.836,3.457-0.141,4.833c0.557,0.625,0.76,1.451,0.53,2.175 c-0.177,0.557-0.588,0.952-1.101,1.057C37.639,44.965,37.547,44.977,37.441,44.977z M36.095,36.355 c-0.015,0.723-0.11,1.457-0.203,2.171c-0.238,1.837-0.464,3.572,0.657,4.874c0.353,0.409,0.714,0.623,0.966,0.57 c0.22-0.045,0.316-0.28,0.348-0.38c0.099-0.313,0.058-0.803-0.354-1.24c-0.03-0.032-0.057-0.069-0.077-0.108 c-0.913-1.72-0.415-3.776,0.023-5.592c0.086-0.353,0.168-0.695,0.238-1.023c-0.395,0.131-0.787,0.329-1.127,0.5 C36.392,36.213,36.237,36.291,36.095,36.355z"/><path fill="#1e4384" d="M34.983,11.927c-2.098,0-3.113,0.584-5.071,1.238c0.177,1.32,1.11,2.591,0.963,4	c-0.147,1.417-0.766,4.559-0.963,6c-0.394,2.878-1.146,4.146-1.59,7.052c-0.122,0.8-0.094,1.701-0.28,2.487	c-0.165,0.698-0.694,1.35-0.514,2.094c1.128-0.133,1.863,0.411,2.982,0.77c1.093,0.351,2.324,0.474,3.468,0.487	c1.365,0.015,2.719,0.076,4.068,0.096c0.77,0.011,1.562,0.059,2.294-0.216c0.448-0.168,1.164-0.596,1.005-0.61	c-0.18-1.666-0.572-4.757-0.84-6.16c-0.332-1.74-0.638-3.281-0.963-5c-0.351-1.854-0.364-3.205-0.963-5	c-0.269-0.806-0.087-1.769,0.068-2.592c0.155-0.824,0.766-2.238,1.222-2.913c-0.928-0.631-1.684-1.055-2.582-1.352	C36.647,12.096,35.397,11.806,34.983,11.927z"/><path fill="#010101" d="M38.766,36.661c-0.167,0-0.333-0.003-0.498-0.007l-0.229-0.004c-0.65-0.009-1.304-0.028-1.958-0.047	c-0.7-0.021-1.402-0.041-2.108-0.049c-1.392-0.016-2.607-0.188-3.614-0.51c-0.338-0.108-0.642-0.232-0.932-0.352	c-0.651-0.268-1.167-0.475-1.839-0.399c-0.259,0.039-0.485-0.134-0.545-0.379c-0.157-0.652,0.079-1.213,0.288-1.707	c0.087-0.205,0.176-0.41,0.226-0.62c0.099-0.42,0.132-0.884,0.167-1.374c0.025-0.365,0.052-0.728,0.104-1.072	c0.221-1.444,0.517-2.496,0.803-3.513c0.303-1.073,0.589-2.088,0.786-3.532c0.084-0.609,0.241-1.52,0.408-2.478	c0.23-1.328,0.469-2.701,0.553-3.506c0.075-0.721-0.188-1.428-0.468-2.177c-0.203-0.547-0.414-1.113-0.493-1.705	c-0.032-0.238,0.109-0.465,0.337-0.541c0.425-0.142,0.806-0.28,1.161-0.41c1.294-0.472,2.319-0.845,4.011-0.854	c0.78-0.152,2.502,0.4,2.52,0.406c0.867,0.286,1.651,0.695,2.706,1.413c0.228,0.155,0.287,0.465,0.133,0.693	c-0.442,0.655-1.01,2.005-1.146,2.726c-0.147,0.786-0.312,1.663-0.085,2.341c0.412,1.234,0.557,2.264,0.71,3.353	c0.075,0.538,0.153,1.097,0.27,1.712c0.178,0.937,0.349,1.82,0.522,2.713l0.441,2.286c0.27,1.415,0.648,4.406,0.831,6.077	c0.017,0.038,0.028,0.079,0.034,0.121c0.068,0.492-0.694,0.888-1.346,1.134C39.935,36.62,39.345,36.661,38.766,36.661z M28.013,34.28c0.668,0.027,1.218,0.252,1.793,0.487c0.267,0.109,0.547,0.225,0.857,0.325c0.911,0.292,2.028,0.447,3.32,0.462	c0.711,0.008,1.42,0.028,2.126,0.049c0.649,0.02,1.297,0.038,1.943,0.047l0.234,0.004c0.677,0.017,1.309,0.026,1.876-0.187	c0.213-0.08,0.481-0.223,0.657-0.329c-0.191-1.728-0.559-4.581-0.807-5.88l-0.44-2.283c-0.174-0.894-0.346-1.779-0.523-2.718	c-0.119-0.632-0.2-1.206-0.277-1.759c-0.153-1.088-0.285-2.027-0.669-3.175c-0.308-0.925-0.11-1.98,0.049-2.829	c0.147-0.781,0.618-1.919,1.041-2.683c-0.784-0.507-1.389-0.806-2.063-1.029c-0.805-0.266-1.792-0.431-2.009-0.375	c-0.041,0.011-0.098,0.02-0.14,0.02c-1.549,0-2.462,0.333-3.726,0.793c-0.244,0.089-0.5,0.182-0.772,0.277	c0.088,0.353,0.223,0.714,0.362,1.09c0.307,0.824,0.624,1.676,0.524,2.63c-0.087,0.839-0.328,2.229-0.562,3.574	c-0.164,0.944-0.32,1.842-0.403,2.442c-0.206,1.512-0.515,2.607-0.813,3.667c-0.278,0.987-0.565,2.009-0.777,3.392	c-0.049,0.319-0.072,0.655-0.096,0.993c-0.036,0.508-0.073,1.034-0.191,1.533c-0.065,0.277-0.173,0.532-0.277,0.778	C28.148,33.841,28.053,34.066,28.013,34.28z"/><path fill="#bcbcbc" d="M8.698,25.188c0,2.618-0.135,5.237-0.131,7.856c0.002,1.534,0.01,3.117-0.135,4.641 c-0.057,0.595,0.053,3.026,0.135,3.525c0.61-0.052,0.855,0.231,1.46,0.308c0.64,0.082,1.262-0.095,1.898-0.117 c1.666-0.056,3.401-0.038,5.04,0.059c-0.044-0.659,0.188-2.841,0.263-3.57c0.1-0.973-0.056-3.691,0.066-4.66 c0.359-2.872,0.066-4.804,0.066-7.712L8.698,25.188z"/><path fill="#74cccf" d="M8.408,25.101l0.287-4.931c0,0-1.819,0.862-2.729,0.718c-0.91-0.144-2.872-1.197-2.489-2.633 s5.027-6.75,5.027-6.75l6.463-0.287c0,0,3.495,1.436,3.878,3.782l0.862,11.968H16.69l-0.622-1.101L8.408,25.101z"/><path fill="#010101" d="M19.587,27.794c-0.162,0-0.312-0.078-0.405-0.206c-0.335-0.188-1.879-0.375-2.606-0.368l0,0 c-0.015-0.002-0.048-0.002-0.072-0.005c-0.259-0.036-0.447-0.267-0.43-0.527c0.001-0.024,0.005-0.047,0.009-0.069 c-0.001-0.247-0.081-1.216-0.141-1.934l-0.057-0.695c-0.086-1.079-0.095-2.159-0.104-3.203c-0.012-1.483-0.024-3.018-0.267-4.519 c-0.044-0.272,0.141-0.529,0.414-0.573c0.27-0.047,0.529,0.142,0.573,0.414c0.254,1.577,0.268,3.149,0.28,4.67 c0.008,1.026,0.017,2.087,0.101,3.13l0.057,0.693c0.064,0.774,0.106,1.286,0.126,1.632c0.521,0.023,1.355,0.09,2.015,0.272 c0.004-0.039,0.01-0.08,0.018-0.124c0.091-0.536,0.057-1.177,0.023-1.796c-0.017-0.326-0.034-0.646-0.034-0.948 c0-0.364,0.004-0.733,0.008-1.106c0.019-1.634,0.038-3.324-0.298-4.842c-0.086-0.392-0.152-0.803-0.218-1.216 c-0.113-0.711-0.23-1.447-0.467-2.076c-0.151-0.4-0.401-0.665-0.717-0.999c-0.132-0.139-0.268-0.283-0.402-0.442 c-0.87-1.032-1.281-1.311-2.519-1.311h-3.553c-1.472,0-2.358,0.426-3.271,1.573c-0.378,0.476-0.816,0.898-1.239,1.307 c-0.427,0.413-0.831,0.802-1.175,1.239c-0.909,1.152-1.271,2.161-1.109,3.082c0.142,0.804,1.343,1.399,2.17,1.316 c0.629-0.067,1.303-0.32,1.955-0.564l0.595-0.22c0.647-0.236,1.412-0.515,2.018-0.845c-0.324-0.381-0.61-0.928-0.891-1.515 c-0.45,0.112-0.903,0.271-1.377,0.439c-0.798,0.281-1.623,0.572-2.474,0.634c-0.279,0.023-0.516-0.187-0.535-0.462 c-0.021-0.275,0.187-0.515,0.462-0.535c0.718-0.053,1.445-0.309,2.215-0.58c0.615-0.217,1.25-0.44,1.899-0.56 c0.225-0.038,0.441,0.071,0.54,0.271l0.111,0.231c0.59,1.244,0.879,1.563,1.018,1.613c0.194,0.033,0.347,0.176,0.396,0.367 c0.049,0.191-0.023,0.392-0.178,0.515c-0.749,0.596-1.919,1.023-2.86,1.366l-0.586,0.217c-0.677,0.254-1.444,0.542-2.2,0.623 c-1.316,0.141-3.019-0.764-3.26-2.137c-0.215-1.218,0.213-2.486,1.308-3.875c0.386-0.489,0.833-0.921,1.265-1.339 c0.418-0.404,0.813-0.786,1.151-1.21c1.102-1.385,2.276-1.95,4.053-1.95h3.553c1.617,0,2.292,0.491,3.283,1.667 c0.121,0.144,0.244,0.273,0.363,0.399c0.346,0.366,0.704,0.744,0.926,1.333c0.272,0.724,0.398,1.511,0.52,2.271 c0.063,0.394,0.125,0.784,0.207,1.158c0.36,1.63,0.341,3.378,0.322,5.069c-0.004,0.369-0.008,0.734-0.008,1.095 c0,0.285,0.017,0.587,0.033,0.895c0.036,0.674,0.073,1.372-0.037,2.018c-0.017,0.101-0.013,0.137-0.013,0.139 c0.156,0.245,0.108,0.493-0.023,0.801c-0.078,0.183-0.256,0.303-0.454,0.305C19.591,27.794,19.589,27.794,19.587,27.794z"/><path fill="#010101" d="M14.79,26.382c-0.408,0-0.81-0.021-1.179-0.041l-0.358-0.02c-0.883-0.041-1.75-0.141-2.589-0.236 C9.916,26,9.167,25.914,8.404,25.869c-0.255-0.016-0.458-0.221-0.47-0.476c-0.05-1.082,0.018-2.144,0.083-3.17 c0.049-0.763,0.099-1.552,0.099-2.333c0-0.276,0.224-0.5,0.5-0.5s0.5,0.224,0.5,0.5c0,0.813-0.051,1.618-0.101,2.397 c-0.055,0.855-0.111,1.735-0.096,2.615c0.625,0.05,1.241,0.12,1.857,0.19c0.822,0.094,1.673,0.191,2.522,0.231l0.366,0.019 c0.876,0.049,1.967,0.106,2.685-0.173c0.256-0.102,0.547,0.026,0.647,0.284c0.101,0.257-0.027,0.547-0.284,0.647 C16.143,26.324,15.459,26.382,14.79,26.382z"/><path fill="#010101" d="M10.384,42.038c-0.138,0-0.277-0.007-0.42-0.025c-0.307-0.039-0.541-0.123-0.729-0.19 c-0.228-0.082-0.379-0.137-0.624-0.115c-0.257,0.01-0.494-0.158-0.536-0.416c-0.093-0.56-0.2-3.022-0.14-3.654 c0.137-1.439,0.135-2.95,0.133-4.411l0-0.181c-0.002-1.335,0.032-2.671,0.065-4.006c0.033-1.284,0.065-2.567,0.065-3.852 c0-0.276,0.224-0.5,0.5-0.5s0.5,0.224,0.5,0.5c0,1.292-0.033,2.585-0.065,3.877c-0.034,1.326-0.068,2.652-0.065,3.979l0,0.181 c0.002,1.485,0.004,3.021-0.138,4.509c-0.042,0.443,0.021,2.146,0.089,2.993c0.214,0.033,0.39,0.097,0.554,0.155 c0.171,0.062,0.319,0.114,0.517,0.14c0.337,0.045,0.689-0.001,1.06-0.048c0.252-0.032,0.504-0.063,0.758-0.072 c1.522-0.049,3.087-0.04,4.559,0.031c0.028-0.739,0.138-1.878,0.249-2.953l0.014-0.14c0.045-0.438,0.034-1.31,0.024-2.153 c-0.013-1.018-0.024-1.979,0.043-2.518c0.228-1.821,0.187-2.631,0.13-3.751c-0.032-0.627-0.068-1.347-0.068-2.378 c0-0.276,0.224-0.5,0.5-0.5s0.5,0.224,0.5,0.5c0,1.009,0.036,1.714,0.067,2.327c0.06,1.171,0.103,2.018-0.136,3.927 c-0.059,0.471-0.047,1.441-0.036,2.38c0.011,0.912,0.022,1.773-0.028,2.268l-0.015,0.141c-0.078,0.757-0.285,2.767-0.247,3.345 c0.009,0.144-0.043,0.283-0.144,0.386c-0.101,0.103-0.237,0.162-0.384,0.146c-1.591-0.093-3.318-0.113-4.994-0.058 c-0.223,0.007-0.445,0.036-0.666,0.064C10.987,42.001,10.691,42.038,10.384,42.038z"/><path fill="#010101" d="M13.085,41.773c-0.276,0-0.5-0.224-0.5-0.5c0-0.894-0.091-1.763-0.188-2.683 c-0.096-0.916-0.195-1.864-0.195-2.833c0-0.771,0.051-1.576,0.1-2.355c0.09-1.43,0.184-2.908-0.029-4.241 c-0.043-0.273,0.142-0.529,0.415-0.573c0.271-0.042,0.529,0.143,0.572,0.415c0.23,1.443,0.134,2.979,0.04,4.463 c-0.05,0.799-0.098,1.553-0.098,2.292c0,0.917,0.097,1.838,0.19,2.729c0.095,0.905,0.193,1.842,0.193,2.787 C13.585,41.549,13.361,41.773,13.085,41.773z"/><path fill="#fcbf95" d="M10.573,5.185c-0.939,1.757-2.003,5.762,0.352,6.918c1.44,0.707,2.574,0.035,3.358-1.22 c0.389-0.624,0.792-1.459,1.015-2.151c0.321-0.996-0.062-1.733-0.522-2.596c-0.5-0.937-0.813-1.505-1.989-1.633 C12.18,4.437,11.332,4.412,10.573,5.185z"/><path fill="#010101" d="M12.052,12.888c-0.437,0-0.889-0.111-1.347-0.336c-0.725-0.355-1.227-0.953-1.493-1.776 c-0.605-1.879,0.218-4.514,0.92-5.827c0.022-0.042,0.051-0.081,0.084-0.114c0.988-1.006,2.134-0.881,2.625-0.829 c1.451,0.157,1.879,0.962,2.376,1.895c0.465,0.872,0.946,1.774,0.556,2.984c-0.227,0.705-0.636,1.572-1.066,2.262 C13.992,12.292,13.065,12.888,12.052,12.888z M10.98,5.486c-0.592,1.142-1.313,3.441-0.816,4.982 c0.182,0.563,0.502,0.95,0.981,1.186c1.048,0.514,1.962,0.166,2.713-1.036c0.385-0.616,0.763-1.417,0.963-2.04 c0.248-0.77-0.01-1.313-0.486-2.207C13.856,5.473,13.658,5.1,12.733,5C12.19,4.944,11.564,4.926,10.98,5.486z"/><path fill="#fcbf95" d="M10.404,16.124c0.633-0.019,1.196-0.952,1.789-1.247c0.333-0.165,0.967-0.489,1.206-0.059 c0.233,0.419-0.204,0.473-0.366,0.731c-0.432,0.69,0.296,1.177,0.179,1.979c-0.107,0.731-0.928,1.272-1.501,0.984 C10.775,18.044,10.644,17.045,10.404,16.124z"/><path fill="#010101" d="M12.053,19.091c-0.198,0-0.391-0.044-0.566-0.132c-1.031-0.517-1.272-1.508-1.486-2.384L9.92,16.25 c-0.038-0.147-0.007-0.304,0.084-0.426c0.091-0.122,0.233-0.195,0.385-0.2c0.185-0.005,0.497-0.302,0.747-0.54 c0.259-0.247,0.527-0.502,0.835-0.655c0.356-0.178,1.396-0.695,1.865,0.145c0.245,0.438,0.148,0.831-0.287,1.167 c-0.033,0.025-0.082,0.063-0.095,0.079c-0.097,0.156-0.075,0.256,0.062,0.615c0.117,0.306,0.262,0.686,0.192,1.166 c-0.08,0.544-0.443,1.046-0.95,1.311C12.527,19.031,12.286,19.091,12.053,19.091z M11.003,16.46 c0.174,0.708,0.349,1.313,0.933,1.605c0.089,0.044,0.223,0.03,0.36-0.042c0.224-0.116,0.389-0.339,0.423-0.568 c0.032-0.222-0.046-0.427-0.137-0.666c-0.146-0.383-0.346-0.907,0.028-1.506c0.018-0.029,0.038-0.057,0.058-0.082 c-0.095,0.045-0.187,0.09-0.236,0.115c-0.188,0.093-0.4,0.295-0.606,0.491C11.578,16.044,11.31,16.3,11.003,16.46z"/><path fill="#fcbf95" d="M16.979,27.486c0.058,0.015,0.003,0.751,0.064,0.766c0.178,1.353,1.995,2.315,2.422,0.255 c0.186-0.897,0.396-1.321-0.634-1.644C18.364,26.717,17.019,26.229,16.979,27.486z"/><path fill="#010101" d="M18.418,30.198c-0.015,0-0.029,0-0.042,0c-0.857-0.032-1.662-0.84-1.82-1.816 c-0.044-0.152-0.045-0.335-0.046-0.515c0-0.079,0-0.157-0.003-0.215c-0.02-0.058-0.03-0.119-0.028-0.182 c0.02-0.616,0.291-0.935,0.515-1.093c0.613-0.433,1.5-0.146,1.926-0.01c1.43,0.447,1.247,1.274,1.085,2.004l-0.051,0.237 C19.654,30.059,18.751,30.198,18.418,30.198z M17.513,28.08c0.012,0.034,0.021,0.069,0.025,0.105 c0.073,0.555,0.531,0.999,0.875,1.012c0.004,0,0.008,0.001,0.012,0.001c0.347,0,0.5-0.553,0.549-0.793l0.054-0.25 c0.146-0.66,0.146-0.66-0.348-0.814c-0.624-0.201-0.977-0.241-1.111-0.146c-0.057,0.041-0.08,0.151-0.088,0.235 c0.025,0.131,0.026,0.278,0.027,0.43C17.51,27.941,17.509,28.021,17.513,28.08z"/><g><path fill="#ed2224" d="M8.809,41.401c-0.084,0.66-0.453,1.254-0.324,1.958c0.165,0.901,0.952,1.453,1.856,1.364 c1.23-0.121,2.084-1.949,1.841-3.057c-0.521-0.03-1.046,0.021-1.546-0.073C10.062,41.484,9.598,41.24,8.809,41.401z"/><path fill="#010101" d="M10.15,45.233c-1.074,0-1.962-0.72-2.157-1.784c-0.104-0.564,0.041-1.055,0.168-1.486 c0.061-0.206,0.124-0.411,0.151-0.625c0.027-0.212,0.187-0.384,0.397-0.427c0.702-0.144,1.197-0.015,1.631,0.099 c0.127,0.033,0.253,0.066,0.387,0.092c0.446,0.083,0.968,0.037,1.482,0.065c0.224,0.013,0.412,0.173,0.46,0.392 c0.173,0.79-0.092,1.847-0.66,2.628c-0.441,0.607-1.017,0.976-1.621,1.035C10.309,45.229,10.229,45.233,10.15,45.233z M9.23,41.85 c-0.033,0.133-0.071,0.265-0.11,0.396c-0.109,0.372-0.205,0.693-0.144,1.023c0.115,0.628,0.659,1.02,1.315,0.956 c0.425-0.041,0.752-0.411,0.91-0.627c0.307-0.423,0.5-0.978,0.52-1.443c-0.383-0.003-0.776,0.004-1.178-0.071 c-0.156-0.029-0.305-0.067-0.455-0.106C9.803,41.903,9.545,41.841,9.23,41.85z"/></g><g><path fill="#ed2224" d="M13.213,41.209c0.058,1.244,0.351,1.914,0.904,2.925c0.701,0.176,1.085,0.992,2.035,0.777 c0.674-0.153,1.232-1.095,1.149-1.854c-0.11-1.001-0.462-1.586-1.42-1.734C15.077,41.199,14.066,41.019,13.213,41.209z"/><path fill="#010101" d="M15.846,45.448c-0.585,0-0.999-0.298-1.317-0.525c-0.194-0.14-0.362-0.26-0.534-0.304 c-0.135-0.033-0.25-0.122-0.316-0.244c-0.619-1.13-0.905-1.851-0.965-3.142c-0.011-0.243,0.153-0.459,0.391-0.512 c0.892-0.199,1.895-0.043,2.7,0.084l0.153,0.023c1.461,0.225,1.75,1.349,1.841,2.174c0.113,1.027-0.633,2.191-1.535,2.396 C16.115,45.432,15.977,45.448,15.846,45.448z M14.462,43.723c0.251,0.102,0.46,0.251,0.649,0.387 c0.366,0.262,0.575,0.394,0.931,0.314c0.413-0.094,0.819-0.793,0.762-1.313c-0.106-0.976-0.433-1.208-0.999-1.295l-0.155-0.024 c-0.584-0.091-1.285-0.198-1.902-0.155C13.836,42.447,14.063,42.979,14.462,43.723z"/></g><g><path fill="#fcbf95" d="M39.516,13.986c1.452,1.979,1.693,3.483,2.537,5.713c1.579,4.173-2.006,3.037-4.296,2.53 c-0.756-0.167-1.368-0.602-2.101-0.684c-0.134-0.015-1.741,0.603-1.704-0.681c0.337-1.056-0.273-1.418-1.039-1.965 c1.44-0.952,2.361,0.088,3.563,0.689c1.131,0.565,1.4,0.812,2.641,0.75c-0.171-0.509-0.351-2.394-0.654-3.287 C38.229,16.362,38.939,14.63,39.516,13.986z"/><path fill="#010101" d="M40.828,23.262c-0.822,0-1.771-0.22-2.656-0.425l-0.523-0.12c-0.382-0.084-0.715-0.223-1.037-0.357 c-0.326-0.135-0.636-0.264-0.948-0.311c-0.487,0.113-1.267,0.28-1.791-0.149c-0.201-0.164-0.437-0.479-0.42-1.052 c0.002-0.046,0.01-0.093,0.023-0.137c0.199-0.625-0.003-0.802-0.733-1.322l-0.12-0.085c-0.134-0.096-0.212-0.251-0.209-0.416 s0.087-0.317,0.225-0.408c1.402-0.927,2.449-0.293,3.373,0.266c0.223,0.135,0.449,0.273,0.688,0.393l0.417,0.212 c0.581,0.299,0.873,0.449,1.38,0.486c-0.034-0.191-0.068-0.409-0.106-0.646c-0.107-0.673-0.24-1.51-0.4-1.981 c-0.328-0.968,0.553-2.887,1.154-3.558c0.101-0.112,0.248-0.172,0.396-0.166c0.15,0.007,0.29,0.082,0.379,0.204 c1.129,1.539,1.557,2.805,2.052,4.271c0.164,0.487,0.338,1,0.55,1.561c0.558,1.473,0.561,2.495,0.011,3.125 C42.131,23.104,41.524,23.262,40.828,23.262z M35.648,21.044c0.021,0,0.042,0.001,0.063,0.003c0.475,0.053,0.886,0.224,1.283,0.389 c0.295,0.123,0.574,0.238,0.869,0.304l0.534,0.122c1.154,0.268,2.899,0.671,3.38,0.125c0.272-0.313,0.204-1.063-0.193-2.112 c-0.217-0.572-0.394-1.097-0.562-1.595c-0.419-1.24-0.762-2.256-1.507-3.413c-0.388,0.707-0.694,1.685-0.58,2.021 c0.187,0.551,0.321,1.398,0.44,2.145c0.076,0.475,0.154,0.965,0.214,1.144c0.05,0.148,0.027,0.312-0.061,0.441 s-0.231,0.21-0.388,0.218c-1.213,0.058-1.662-0.172-2.484-0.595l-0.406-0.207c-0.264-0.132-0.515-0.283-0.76-0.432 c-0.646-0.392-1.104-0.636-1.588-0.581c0.477,0.426,0.818,0.981,0.548,1.916c0.004,0.094,0.022,0.164,0.053,0.188 c0.071,0.059,0.283,0.1,0.872-0.037C35.49,21.062,35.567,21.044,35.648,21.044z"/></g><g><path fill="#fcbf95" d="M32.388,6.518c-0.666,0.642-0.643,2.014-0.622,2.875c0.02,0.837,0.222,1.605,0.67,2.309 c0.563,0.885,1.425,1.06,2.477,0.841c1.52-0.316,1.937-2.502,1.975-3.773c0.033-1.079-0.134-2.144-1.244-2.575 C34.599,5.789,32.705,5.475,32.388,6.518z"/><path fill="#010101" d="M34.161,13.126c-0.937,0-1.656-0.387-2.146-1.156c-0.479-0.753-0.725-1.592-0.749-2.566 c-0.021-0.881-0.056-2.333,0.689-3.157c0.128-0.313,0.364-0.559,0.69-0.718c1.152-0.56,2.977,0.121,3.18,0.199 c1.638,0.636,1.584,2.395,1.563,3.057c-0.055,1.826-0.707,3.9-2.374,4.247C34.713,13.095,34.428,13.126,34.161,13.126z M33.745,6.311c-0.262,0-0.493,0.036-0.662,0.118c-0.15,0.073-0.194,0.164-0.216,0.233c-0.024,0.082-0.07,0.156-0.132,0.215 c-0.518,0.5-0.486,1.803-0.47,2.503c0.02,0.786,0.213,1.457,0.593,2.053c0.398,0.626,0.999,0.815,1.953,0.62 c1.175-0.244,1.544-2.188,1.577-3.299c0.038-1.217-0.23-1.824-0.925-2.093C34.946,6.46,34.281,6.311,33.745,6.311z M32.389,6.517 h0.01H32.389z"/></g><g><path fill="#f58420" d="M34.399,6.96c-0.535,0.744-1.886,0.049-2.358,0.771c-0.291,0.446-0.371,2.521,0.203,3.861 c0.406,0.948-1.248,0.037-2.106-0.431c-0.601-0.328-1.124-0.945-1.101-1.601c0.024-0.687,0.357-2.613,0.696-3.158 c0.365-0.586,0.793-1.048,1.171-1.559c0.372-0.503,0.727-1.141,1.361-1.242c0.82-0.132,1.994-0.285,2.816-0.085 c0.879,0.214,1.071,0.773,1.71,1.253c0.269,0.203,0.592,0.218,0.865,0.378c0.314,0.183,0.624,0.623,0.864,0.881 c0.471,0.508,0.359,0.937,0.426,1.556c0.06,0.551,0.392,2.375,0.119,2.917c-0.17,0.337-0.658,0.649-1.028,0.757 c-0.314,0.092-2.26,1.083-2.154,0.766c0.287-0.862,0.431-1.638,0.862-2.92c0.148-0.44,0.247-1.036-0.048-1.406 c-0.301-0.377-0.718-0.737-1.388-0.65C35.381,6.956,34.392,7.045,34.399,6.96z"/><path fill="#010101" d="M35.931,12.588c-0.153,0-0.269-0.049-0.377-0.146c-0.146-0.133-0.208-0.389-0.146-0.577 c0.125-0.374,0.222-0.731,0.327-1.122c0.139-0.51,0.292-1.075,0.536-1.8c0.142-0.425,0.155-0.783,0.035-0.935 c-0.302-0.377-0.578-0.512-0.934-0.466c-0.094,0.01-0.188-0.003-0.271-0.041c-0.065-0.002-0.149,0-0.234,0 c-0.106-0.001-0.207,0-0.293-0.003c-0.411,0.336-0.958,0.347-1.377,0.355c-0.392,0.008-0.654,0.023-0.738,0.151 c-0.16,0.28-0.292,2.137,0.246,3.39c0.224,0.524,0.028,0.811-0.107,0.935c-0.44,0.399-1.146,0.117-2.665-0.711 c-0.683-0.373-1.429-1.124-1.396-2.077c0.023-0.679,0.348-2.724,0.771-3.405c0.251-0.402,0.523-0.742,0.787-1.071 c0.138-0.173,0.275-0.344,0.406-0.521l0.157-0.219c0.347-0.49,0.777-1.1,1.527-1.22c0.934-0.15,2.12-0.295,3.013-0.078 c0.724,0.176,1.09,0.558,1.413,0.895c0.141,0.146,0.287,0.301,0.479,0.446c0.084,0.063,0.202,0.102,0.339,0.146 c0.146,0.047,0.312,0.102,0.478,0.199c0.303,0.177,0.559,0.48,0.784,0.749c0.068,0.082,0.134,0.159,0.193,0.224 c0.489,0.526,0.513,1.032,0.533,1.477c0.005,0.115,0.011,0.235,0.024,0.365c0.011,0.097,0.029,0.234,0.053,0.396 c0.162,1.168,0.286,2.262,0.015,2.8c-0.241,0.479-0.854,0.872-1.333,1.012c-0.09,0.027-0.304,0.127-0.561,0.242 C36.72,12.383,36.245,12.587,35.931,12.588z M34.132,3.918c-0.603,0-1.271,0.092-1.787,0.175c-0.334,0.054-0.594,0.421-0.869,0.81 L31.307,5.14c-0.139,0.188-0.284,0.369-0.431,0.552c-0.257,0.32-0.499,0.623-0.719,0.974c-0.259,0.417-0.597,2.207-0.62,2.911 c-0.015,0.397,0.331,0.868,0.841,1.146c0.257,0.14,0.823,0.449,1.251,0.634c-0.438-1.436-0.396-3.301-0.007-3.899 c0.38-0.58,1.031-0.593,1.555-0.604c0.432-0.009,0.701-0.026,0.816-0.186c0.132-0.182,0.371-0.255,0.578-0.177 c0.008,0.002,0.016,0.005,0.022,0.008c0.075,0.005,0.175,0.002,0.272,0.002c0.213,0.003,0.397,0,0.543,0.035 c0.963-0.047,1.497,0.621,1.679,0.849c0.442,0.554,0.315,1.327,0.132,1.877c-0.237,0.702-0.385,1.25-0.519,1.743 c-0.03,0.111-0.06,0.219-0.089,0.326c0.22-0.094,0.442-0.194,0.595-0.263c0.318-0.143,0.587-0.26,0.69-0.29 c0.281-0.083,0.632-0.327,0.721-0.502c0.153-0.306-0.047-1.741-0.113-2.212C38.48,7.888,38.46,7.74,38.449,7.636 c-0.017-0.151-0.023-0.292-0.029-0.427c-0.019-0.389-0.027-0.584-0.267-0.842c-0.07-0.076-0.146-0.166-0.227-0.261 c-0.164-0.196-0.369-0.439-0.522-0.529c-0.074-0.043-0.171-0.075-0.283-0.111c-0.184-0.06-0.413-0.135-0.631-0.298 c-0.24-0.181-0.424-0.37-0.599-0.552C35.598,4.309,35.403,4.107,34.963,4C34.72,3.941,34.435,3.918,34.132,3.918z"/></g></svg>