<svg xmlns="http://www.w3.org/2000/svg" viewBox="0 0 48 48"><path fill="#ffba57" d="M37,44c2.071,0,3.535-0.742,4.573-1.991c0,0,0,0,0,0C44,38.5,44,30.67,44,24c0,0-1,0-2,0	c-7,0-13,3-14,3c-6-2-16-2-16-2s1-2.001,2-7c0.653-3.262,1.368-4.735,2-6c1-2,2.378-3.157,3-3c0,1.25,0.569,2.002,0.741,2.191	c0.238,0.26,0.994,0.918,1.341,0.328c0.22,0.447,1.198,0.724,1.545,0.101c0.363,0.673,1.34,0.363,1.592-0.122	c0.441,0.415,0.945-0.208,1.104-0.521C25.78,10.072,26,9,26,8s-0.213-1.293-1.267-2.125C23.466,4.875,20.921,4,20,4	c-1,0-3.125,1.25-4.125,2c-0.241,0.193-3,1.875-6.75,9c-0.776,1.475-1.791,2.865-2.727,4.797C4.646,23.414,4.037,26.735,4,28.25	C3.991,28.598,4.024,28.854,4.097,29c1,2,3.792,1.238,7.903,3c1.75,0.75,8.25,3,15,3c5,0,3,0,5,0S35,41,37,44z"/><path fill="#f9a825" d="M44,24c0,0-1,0-2,0c-7,0-13,3-14,3c0,0,4,1,4,3.5c0,0.875,0,2.5-5,2.5c-4.875,0-13.5-2.375-16-4.251	c-2.642-1.982-3.009-3.868-3-5.124c0.013-1.732,1.406-3.34,3-7.125c2.169-5.152,1.75-6.5,4.875-10.5c-0.241,0.193-3,1.875-6.75,9	c-0.776,1.475-1.791,2.865-2.727,4.797C4.646,23.414,4.037,26.735,4,28.25C3.991,28.598,4.024,28.854,4.097,29	c1,2,3.792,1.238,7.903,3c1.75,0.75,8.25,3,15,3c5,0,3,0,5,0s3,6,5,9c2.071,0,3.535-0.742,4.573-1.991	C40.178,36.717,35,34.384,35,30.25C35,26,44,24,44,24z"/></svg>