<svg xmlns="http://www.w3.org/2000/svg" viewBox="0 0 26 26"><path d="M 25.71875 0.21875 L 25.34375 0.46875 C 21.402344 2.910156 10.660156 13.136719 9.5625 14.1875 L 11.78125 16.40625 C 12.832031 15.308594 23.0625 4.53125 25.5 0.59375 Z M 7.0625 13.59375 L 6.34375 14.28125 L 6.46875 14.375 C 6.796875 14.605469 7.582031 15.347656 8.21875 15.96875 C 6.960938 16.882813 6.203125 17.453125 5.25 18.40625 C 3.664063 19.992188 2.097656 22.566406 2.03125 22.6875 C 0.902344 23.816406 0.386719 23.714844 0.375 23.71875 L 0.3125 23.75 L 0.3125 23.78125 C 0.308594 23.796875 0.273438 23.988281 0.46875 24.34375 L 0.3125 24.53125 C 0.121094 24.722656 0.0625 25.058594 0.375 25.375 L 0.59375 25.5625 C 0.90625 25.878906 1.246094 25.816406 1.4375 25.625 L 1.59375 25.46875 C 1.957031 25.671875 2.175781 25.628906 2.1875 25.625 L 2.21875 25.625 L 2.21875 25.59375 C 2.226563 25.578125 2.121094 25.035156 3.25 23.90625 C 3.371094 23.835938 6.054688 22.164063 7.53125 20.6875 C 8.488281 19.730469 9.078125 19.019531 10 17.75 C 10.613281 18.382813 11.363281 19.148438 11.59375 19.46875 L 11.65625 19.59375 L 12.34375 18.90625 L 12.3125 18.8125 C 12.097656 18.511719 11.476563 17.871094 10.90625 17.28125 L 10.75 17.125 C 10.261719 16.621094 9.847656 16.191406 9.8125 16.15625 C 9.773438 16.121094 9.355469 15.679688 8.84375 15.1875 L 8.6875 15.0625 C 8.09375 14.488281 7.425781 13.871094 7.125 13.65625 Z"/></svg>