<svg xmlns="http://www.w3.org/2000/svg" viewBox="0 0 128 128"><path d="M 32 1 C 23.7 1 16.700781 7.1 15.300781 15 L 4 15 C 2.3 15 1 16.3 1 18 L 1 124 C 1 125.7 2.3 127 4 127 L 56 127 C 57.7 127 59 125.7 59 124 C 59 122.3 57.7 121 56 121 L 7 121 L 7 49 L 58 49 C 59.7 49 61 47.7 61 46 C 61 44.3 59.7 43 58 43 L 7 43 L 7 21 L 15.300781 21 C 16.700781 28.9 23.7 35 32 35 C 33.7 35 35 33.7 35 32 C 35 30.3 33.7 29 32 29 C 27 29 22.700391 25.6 21.400391 21 L 63.300781 21 C 64.700781 28.9 71.7 35 80 35 C 81.7 35 83 33.7 83 32 C 83 30.3 81.7 29 80 29 C 75 29 70.700391 25.6 69.400391 21 L 105 21 L 105 44 C 105 45.7 106.3 47 108 47 C 109.7 47 111 45.7 111 44 L 111 18 C 111 16.3 109.7 15 108 15 L 96.699219 15 C 95.299219 7.1 88.3 1 80 1 C 71.7 1 64.700781 7.1 63.300781 15 L 47.800781 15 C 46.500781 6.8 40.2 1 32 1 z M 32 7 C 36.8 7 40.599219 10.2 41.699219 15 L 21.400391 15 C 22.700391 10.4 27 7 32 7 z M 80 7 C 85 7 89.299609 10.4 90.599609 15 L 69.400391 15 C 70.700391 10.4 75 7 80 7 z M 78 43 C 76.3 43 75 44.3 75 46 C 75 47.7 76.3 49 78 49 L 88 49 C 89.7 49 91 47.7 91 46 C 91 44.3 89.7 43 88 43 L 78 43 z M 94 61 C 75.8 61 61 75.8 61 94 C 61 112.2 75.8 127 94 127 C 112.2 127 127 112.2 127 94 C 127 75.8 112.2 61 94 61 z M 94 81 C 95.7 81 97 82.3 97 84 L 97 91 L 104 91 C 105.7 91 107 92.3 107 94 C 107 95.7 105.7 97 104 97 L 97 97 L 97 104 C 97 105.7 95.7 107 94 107 C 92.3 107 91 105.7 91 104 L 91 97 L 84 97 C 82.3 97 81 95.7 81 94 C 81 92.3 82.3 91 84 91 L 91 91 L 91 84 C 91 82.3 92.3 81 94 81 z"/></svg>