<svg xmlns="http://www.w3.org/2000/svg" viewBox="0 0 64 64"><radialGradient id="grvOyV_vRFQ79kQjEdEnha" cx="32" cy="31.5" r="31.259" gradientUnits="userSpaceOnUse" spreadMethod="reflect"><stop offset="0" stop-color="#afeeff"/><stop offset=".193" stop-color="#bbf1ff"/><stop offset=".703" stop-color="#d7f8ff"/><stop offset="1" stop-color="#e1faff"/></radialGradient><path fill="url(#grvOyV_vRFQ79kQjEdEnha)" d="M58,54c-1.105,0-2-0.895-2-2c0-1.105,0.895-2,2-2h2.5c1.925,0,3.5-1.575,3.5-3.5 S62.425,43,60.5,43H50c-1.381,0-2.5-1.119-2.5-2.5c0-1.381,1.119-2.5,2.5-2.5h8c1.65,0,3-1.35,3-3c0-1.65-1.35-3-3-3H42v-6h18 c2.335,0,4.22-2.028,3.979-4.41C63.77,19.514,61.897,18,59.811,18H58c-1.105,0-2-0.895-2-2c0-1.105,0.895-2,2-2h0.357 c1.308,0,2.499-0.941,2.63-2.242C61.137,10.261,59.966,9,58.5,9h-14C43.672,9,43,8.328,43,7.5S43.672,6,44.5,6h3.857 c1.308,0,2.499-0.941,2.63-2.242C51.137,2.261,49.966,1,48.5,1L15.643,1c-1.308,0-2.499,0.941-2.63,2.242 C12.863,4.739,14.034,6,15.5,6H19c1.105,0,2,0.895,2,2c0,1.105-0.895,2-2,2H6.189c-2.086,0-3.958,1.514-4.168,3.59 C1.78,15.972,3.665,18,6,18h2.5c1.933,0,3.5,1.567,3.5,3.5c0,1.933-1.567,3.5-3.5,3.5H5.189c-2.086,0-3.958,1.514-4.168,3.59 C0.78,30.972,2.665,33,5,33h17v11H6c-1.65,0-3,1.35-3,3c0,1.65,1.35,3,3,3h0c1.105,0,2,0.895,2,2c0,1.105-0.895,2-2,2H4.189 c-2.086,0-3.958,1.514-4.168,3.59C-0.22,59.972,1.665,62,4,62h53.811c2.086,0,3.958-1.514,4.168-3.59C62.22,56.028,60.335,54,58,54z"/><linearGradient id="grvOyV_vRFQ79kQjEdEnhb" x1="32" x2="32" y1="57.852" y2="13.852" gradientUnits="userSpaceOnUse" spreadMethod="reflect"><stop offset="0" stop-color="#ffc662"/><stop offset=".004" stop-color="#ffc662"/><stop offset=".609" stop-color="#ffc582"/><stop offset="1" stop-color="#ffc491"/><stop offset="1" stop-color="#ffc491"/></linearGradient><path fill="url(#grvOyV_vRFQ79kQjEdEnhb)" d="M50,12H14c-2.209,0-4,1.791-4,4v36c0,2.209,1.791,4,4,4h36c2.209,0,4-1.791,4-4V16 C54,13.791,52.209,12,50,12z"/><linearGradient id="grvOyV_vRFQ79kQjEdEnhc" x1="40" x2="40" y1="49" y2="19" gradientUnits="userSpaceOnUse" spreadMethod="reflect"><stop offset="0" stop-color="#ff5840"/><stop offset=".007" stop-color="#ff5840"/><stop offset=".989" stop-color="#fa528c"/><stop offset="1" stop-color="#fa528c"/></linearGradient><path fill="url(#grvOyV_vRFQ79kQjEdEnhc)" d="M41,23.5v-3c0-0.828,0.672-1.5,1.5-1.5h3c0.828,0,1.5,0.672,1.5,1.5v3 c0,0.828-0.672,1.5-1.5,1.5h-3C41.672,25,41,24.328,41,23.5z M42.5,49h3c0.828,0,1.5-0.672,1.5-1.5v-19c0-0.828-0.672-1.5-1.5-1.5 h-3c-0.828,0-1.5,0.672-1.5,1.5v19C41,48.328,41.672,49,42.5,49z M34.5,25h3c0.828,0,1.5-0.672,1.5-1.5v-3 c0-0.828-0.672-1.5-1.5-1.5h-3c-0.828,0-1.5,0.672-1.5,1.5v3C33,24.328,33.672,25,34.5,25z M34.5,49h3c0.828,0,1.5-0.672,1.5-1.5 v-19c0-0.828-0.672-1.5-1.5-1.5h-3c-0.828,0-1.5,0.672-1.5,1.5v19C33,48.328,33.672,49,34.5,49z"/><linearGradient id="grvOyV_vRFQ79kQjEdEnhd" x1="24" x2="24" y1="49" y2="19" gradientUnits="userSpaceOnUse" spreadMethod="reflect"><stop offset="0" stop-color="#ffe9a8"/><stop offset="1" stop-color="#fff5d5"/></linearGradient><path fill="url(#grvOyV_vRFQ79kQjEdEnhd)" d="M26.5,25h3c0.828,0,1.5-0.672,1.5-1.5v-3c0-0.828-0.672-1.5-1.5-1.5h-3 c-0.828,0-1.5,0.672-1.5,1.5v3C25,24.328,25.672,25,26.5,25z M18.5,25h3c0.828,0,1.5-0.672,1.5-1.5v-3c0-0.828-0.672-1.5-1.5-1.5h-3 c-0.828,0-1.5,0.672-1.5,1.5v3C17,24.328,17.672,25,18.5,25z M26.5,49h3c0.828,0,1.5-0.672,1.5-1.5v-19c0-0.828-0.672-1.5-1.5-1.5 h-3c-0.828,0-1.5,0.672-1.5,1.5v19C25,48.328,25.672,49,26.5,49z M18.5,49h3c0.828,0,1.5-0.672,1.5-1.5v-19 c0-0.828-0.672-1.5-1.5-1.5h-3c-0.828,0-1.5,0.672-1.5,1.5v19C17,48.328,17.672,49,18.5,49z"/></svg>