<svg xmlns="http://www.w3.org/2000/svg" viewBox="0 0 100 100"><path d="M 23.5 16 C 21.57 16 20 17.565281 20 19.488281 L 20 67.1875 L 13 67.1875 C 12.552 67.1875 12.1875 67.552 12.1875 68 L 12.1875 82.5 C 12.1875 82.949 12.552 83.3125 13 83.3125 L 81 83.3125 C 81.448 83.3125 81.8125 82.948 81.8125 82.5 L 81.8125 68 C 81.8125 67.551 81.448 67.1875 81 67.1875 L 74 67.1875 L 74 27 L 76 27 L 76 37 C 76 40.859 79.14 44 83 44 L 90 44 C 91.654 44 93 42.654 93 41 C 93 39.346 91.654 38 90 38 L 83 38 C 82.449 38 82 37.552 82 37 L 82 26 C 82 23.243 79.757 21 77 21 L 74 21 L 74 19.480469 C 74 17.561469 72.43 16 70.5 16 C 68.57 16 67 17.561469 67 19.480469 L 67 20 L 27 20 L 27 19.488281 C 27 17.565281 25.43 16 23.5 16 z M 70.5 17.988281 C 71.327 17.988281 72 18.657469 72 19.480469 L 72 21 L 72 23 L 72 25 L 72 27 L 72 66.728516 L 69 66.728516 L 69 26 L 69 21 L 69 19.480469 C 69 18.658469 69.673 17.988281 70.5 17.988281 z M 23.5 17.992188 C 24.327 17.992187 25 18.664281 25 19.488281 L 25 21 L 25 26 L 25 66.818359 L 22 66.818359 L 22 19.488281 C 22 18.663281 22.673 17.992188 23.5 17.992188 z M 27 22 L 33.554688 22 L 31.646484 25 L 27 25 L 27 22 z M 34.740234 22 L 38.771484 22 L 36.863281 25 L 32.832031 25 L 34.740234 22 z M 39.957031 22 L 43.507812 22 L 41.599609 25 L 38.048828 25 L 39.957031 22 z M 44.691406 22 L 48.771484 22 L 46.863281 25 L 42.783203 25 L 44.691406 22 z M 49.957031 22 L 53.507812 22 L 51.599609 25 L 48.046875 25 L 49.957031 22 z M 54.691406 22 L 58.771484 22 L 56.863281 25 L 52.783203 25 L 54.691406 22 z M 59.957031 22 L 63.507812 22 L 61.599609 25 L 58.048828 25 L 59.957031 22 z M 64.691406 22 L 67 22 L 67 25 L 62.783203 25 L 64.691406 22 z M 74 23 L 77 23 C 78.654 23 80 24.346 80 26 L 80 37 C 80 38.654 81.346 40 83 40 L 83 42 C 80.243 42 78 39.757 78 37 L 78 27 C 78 25.897 77.103 25 76 25 L 74 25 L 74 23 z M 27 27 L 46 27 L 46 29.5 C 46 29.776 46.224 30 46.5 30 C 46.776 30 47 29.776 47 29.5 L 47 27 L 67 27 L 67 67.1875 L 53.84375 67.1875 L 56.984375 50.162109 C 57.038375 49.874109 56.957578 49.577516 56.767578 49.353516 C 56.577578 49.129516 56.296 49 56 49 L 55 49 C 55 44.589 51.411 41 47 41 L 47 38.5 C 47 38.224 46.776 38 46.5 38 C 46.224 38 46 38.224 46 38.5 L 46 41.068359 C 42.060397 41.56315 39 44.928481 39 49 L 38 49 C 37.704 49 37.422422 49.128516 37.232422 49.353516 C 37.042422 49.578516 36.962625 49.872156 37.015625 50.160156 L 40.15625 67.1875 L 27 67.1875 L 27 27 z M 46.5 31 C 46.224 31 46 31.224 46 31.5 L 46 33.5 C 46 33.776 46.224 34 46.5 34 C 46.776 34 47 33.776 47 33.5 L 47 31.5 C 47 31.224 46.776 31 46.5 31 z M 46.5 35 C 46.224 35 46 35.224 46 35.5 L 46 36.5 C 46 36.776 46.224 37 46.5 37 C 46.776 37 47 36.776 47 36.5 L 47 35.5 C 47 35.224 46.776 35 46.5 35 z M 84 40 L 90 40 C 90.551 40 91 40.448 91 41 C 91 41.552 90.551 42 90 42 L 84 42 L 84 40 z M 47 43 C 50.309 43 53 45.691 53 49 L 41 49 C 41 45.691 43.691 43 47 43 z M 39.197266 50.972656 L 54.800781 50.972656 L 54.427734 53 L 52.5 53 C 52.224 53 52 53.224 52 53.5 C 52 53.776 52.224 54 52.5 54 L 54.242188 54 L 51.892578 66.746094 L 42.107422 66.746094 L 39.755859 54 L 47.5 54 C 47.776 54 48 53.776 48 53.5 C 48 53.224 47.776 53 47.5 53 L 39.572266 53 L 39.197266 50.972656 z M 49.5 53 C 49.224 53 49 53.224 49 53.5 C 49 53.776 49.224 54 49.5 54 L 50.5 54 C 50.776 54 51 53.776 51 53.5 C 51 53.224 50.776 53 50.5 53 L 49.5 53 z M 13.8125 68.8125 L 21 68.8125 L 26 68.8125 L 30 68.8125 L 30 75 L 16.5 75 C 16.224 75 16 75.224 16 75.5 C 16 75.776 16.224 76 16.5 76 L 21 76 L 21 81.6875 L 13.8125 81.6875 L 13.8125 68.8125 z M 31 68.8125 L 46 68.8125 L 46 75.5 C 46 75.776 46.224 76 46.5 76 L 54 76 L 54 81.6875 L 39 81.6875 L 39 81.5 C 39 81.224 38.776 81 38.5 81 C 38.224 81 38 81.224 38 81.5 L 38 81.6875 L 22 81.6875 L 22 76 L 30.5 76 C 30.776 76 31 75.776 31 75.5 L 31 68.8125 z M 47 68.8125 L 63 68.8125 L 63 75 L 47 75 L 47 68.8125 z M 64 68.8125 L 80.1875 68.8125 L 80.1875 81.6875 L 72 81.6875 L 72 81.5 C 72 81.224 71.776 81 71.5 81 C 71.224 81 71 81.224 71 81.5 L 71 81.6875 L 55 81.6875 L 55 76 L 63.5 76 C 63.776 76 64 75.776 64 75.5 L 64 68.8125 z M 33.505859 75 C 33.229859 75 33.005859 75.224 33.005859 75.5 C 33.005859 75.776 33.229859 76 33.505859 76 L 38 76 L 38 79.5 C 38 79.776 38.224 80 38.5 80 C 38.776 80 39 79.776 39 79.5 L 39 76 L 43.480469 76 C 43.756469 76 43.980469 75.776 43.980469 75.5 C 43.980469 75.224 43.756469 75 43.480469 75 L 33.505859 75 z M 66.363281 75 C 66.087281 75 65.863281 75.224 65.863281 75.5 C 65.863281 75.776 66.087281 76 66.363281 76 L 71 76 L 71 79.5 C 71 79.776 71.224 80 71.5 80 C 71.776 80 72 79.776 72 79.5 L 72 76 L 77.400391 76 C 77.676391 76 77.900391 75.776 77.900391 75.5 C 77.900391 75.224 77.676391 75 77.400391 75 L 66.363281 75 z"/></svg>