<svg xmlns="http://www.w3.org/2000/svg" viewBox="0 0 40 40"><path fill="#fff" d="M0.533 28.353L2.485 13.748 29.746 2.651 39.349 26.288 12.088 37.427z"/><path fill="#4788c7" d="M29.471,3.303l9.227,22.711l-26.529,10.84L1.067,28.136l1.875-14.034L29.471,3.303 M30.021,2 L2.028,13.395L0,28.569L12.008,38L40,26.563L30.021,2L30.021,2z"/><path fill="#b6dcfe" d="M0.533 28.353L2.485 13.749 8.406 11.358 6.469 25.929 18.01 34.999 12.088 37.427z"/><path fill="#4788c7" d="M7.797,12.143L6.011,25.58l-0.075,0.566l0.449,0.353l10.642,8.363l-4.859,1.992L1.067,28.136 l1.875-14.032L7.797,12.143 M9.015,10.573l-6.987,2.822L0,28.569L12.008,38l6.986-2.865L7.002,25.712L9.015,10.573L9.015,10.573z"/><g><path fill="#4788c7" d="M15.489 19.345L16.205 22.978 13.982 19.978 12.276 20.696 12.777 24.49 10.626 21.391 8.762 22.174 12.902 27.559 14.712 26.797 14.198 23.124 16.444 26.068 18.195 25.332 17.248 18.604zM32.541 19.268L31.594 12.539 29.836 13.279 30.551 16.912 28.328 13.913 26.622 14.631 27.123 18.425 24.972 15.325 23.108 16.109 27.248 21.493 29.058 20.731 28.544 17.06 30.79 20.003zM23.738 20.049c-.165-.166-.355-.295-.566-.383-.21-.088-.437-.147-.675-.177-.238-.029-.49-.039-.764-.041-.189.003-.356-.001-.509-.008-.139-.006-.262-.021-.371-.047-.09-.02-.163-.048-.218-.085-.04-.025-.067-.06-.088-.107-.018-.041-.023-.08-.016-.121.008-.05.031-.101.068-.152.044-.063.108-.125.191-.186.088-.065.193-.124.321-.18.095-.041.198-.075.305-.106.113-.03.228-.054.348-.07.118-.017.239-.021.354-.022.116.002.227.014.333.035l.467.094-.756-1.758-.171.007c-.234.01-.483.047-.741.112-.246.063-.517.159-.83.293-.312.134-.597.297-.85.485-.26.193-.472.417-.63.662-.163.251-.262.53-.294.831-.03.301.026.62.167.947.182.422.465.736.843.934.365.189.799.275 1.38.274.198-.004.384-.004.558 0 .161.003.304.017.43.04.111.021.204.054.276.098.053.032.09.074.116.136.018.041.024.078.018.124-.004.043-.023.09-.056.139-.042.062-.106.125-.19.188-.087.066-.203.131-.343.191-.241.104-.503.164-.778.182-.276.018-.556-.017-.831-.1l-.514-.155.807 1.877.152.011c.056.004.113.006.171.006.223 0 .464-.028.718-.086.31-.068.63-.174.951-.313.31-.133.599-.293.859-.476.27-.192.487-.411.646-.65.168-.25.27-.53.3-.833.031-.304-.029-.635-.179-.984C24.038 20.421 23.9 20.21 23.738 20.049z"/></g></svg>