<svg xmlns="http://www.w3.org/2000/svg" width="512" height="512" viewBox="0 0 512 512"><path fill="#FEBF10" d="M314.2 302.4c-2.3-6.3-5.4-13.6-7.8-21.1-2.6-1.5-5.4-2.7-8.3-3.1-2.4-.3-4 .2-4.9 1.2-1 1.1-1 1-1.9 3-.4 1-.8 2.2-1.2 4-.7 3.9-.9 7.2-.8 11.2.2 8.2 1.5 17.1 3.1 24.6.7 3.1 1.4 6.1 2.3 9.2.3 1 .6 1.9.9 2.9.2.5.9 1.7-.2-.1 0 0-.3-.2-.6-.4.7.7 1.1 1.6 1.4 2.5 2.9-4.2 5.8-8.3 8.7-12.5 4.1-6 8.2-12 12.2-18C316 305.2 314.8 304.2 314.2 302.4zM290.3 343c-6.1-1.7-7.1-12-8.2-17.1-.1-.5-.2-.9-.3-1.4-.7-.4-1.4-1-2-1.8-1.9-2.8-4.3-8.7-7.4-10.8-.2.2-.4.5-.6 1-.8 1.6-1.5 3.1-1.9 4.8-.7 3.2-1.1 6.3-1 9.6.4 11.5 3.8 22.5 7.2 33.4.7.3 1.3.7 1.8 1.3 4.6-6.2 9.2-12.5 13.7-18.8C291.1 343.2 290.7 343.1 290.3 343zM207.7 137c-2.3.3-4.6.9-6.9 1.6-.8.6-1.7.9-2.7.9-1.7.6-3.4 1.2-5 1.8-4.5 1.5-8.8 3.2-12.6 6.2-.3.3-.7.5-1 .7-1.4 2.6-2.5 5.5-3.3 8-1.2 3.6-2.3 7.2-3.2 10.9 2.7-1 5.7-1.7 8.3-2.4 8.4-2.2 17.7-5.8 24.5-11.3C209.3 150.6 218.1 135.8 207.7 137zM348.4 214.3c-.2-.9-.4-1.8-.6-2.7-2.5-2.5-5.2-4.6-7-3.2-4.4 3.6-5 11.5-4.9 16.8.1 5.1.6 10.1 1.5 15.1 2.2 3 3.4 6.7 3.3 10.9 0 .6-.1 1.2-.3 1.7.8 2.7 1.7 5.3 2.6 7.9.4.2.8.4 1.1.7 2.5-4.6 4.9-9.2 7.3-13.9 2-3.9 3.9-7.9 5.8-11.9C350.8 233.1 349.6 219.7 348.4 214.3zM138.3 437.1c0 .1 0 .2 0 .2 0 .1-.1.4-.2.6.1-.1.1-.3.2-.5-.1.3-.2.5-.2.7.8-1.3 2.1-2.4 4-2.7C140 435.8 138.9 436.5 138.3 437.1zM201.8 93.2c-.1.1-.2.1-.3.3-1.2.9-2.2 2.1-3.1 3.3-1.9 2.6-3.6 5.5-5 8.4-3.9 7.8-9.4 15.7-9.5 24.6 1.4-.6 2.7-1.2 4.2-1.7 5-1.9 8.5-4.1 11.6-8.5 2.9-4 5.3-9.2 5.2-14.3C204.9 101.8 204.7 95.7 201.8 93.2zM177.9 109.6c.2.3.3.5.4.8 0-.1.1-.1.1-.2.2-.5.5-1 .7-1.4C178.8 109.1 178.4 109.3 177.9 109.6zM265.9 375c-.1-5.6-2.9-11-6.4-15.3-1.3-1.7-3-3.5-4.8-4.6-1-.5-1.3-.8-2.4-.9.9.1.1.3.3.1-1 .9-1.5 4.8-1.6 6.4-.4 5.4-.7 10.7-.1 16.2.5 4.9 1.4 9.2 2.7 14 .2.6.3 1.2.5 1.8 4.2-5.1 8.3-10.3 12.4-15.6C266.1 376.5 265.9 375.8 265.9 375zM371.2 188.4c-.8-3.7-1.8-7.4-2.9-11-2.5-3.6-7.3-6.1-11.3-3.5-1.4.9-2.6 2-2.9 3.7-.1.6-.2.9-.3 1 0 .1.1.4.1.9.2 2.8.5 5.7.9 8.5.9 6.4 2 12.7 3.3 19 .9.9 1.9 1.7 2.9 2.5 3.4 2.5 2.2 6.4-.5 8.3.4 1.7.9 3.4 1.4 5 .2.6.4 1.2.6 1.8 4.7-10.7 9-21.5 12.8-32.5C373.3 192 371.7 190.8 371.2 188.4zM335.2 270.4c-3.4-8-5.9-16.3-7.7-24.8-1.3-1-3.1-1.4-5.5-.7-5.3 1.6-7.9 6.6-8.3 12-.5 5.8.5 11.6 2.1 17.4 1.1.7 2.2 1.5 3.3 2.2 3.3 2.2 2.4 5.8 0 7.8 1.5 4 3.1 8 4.5 11.8 4.8-7.5 9.5-15.1 14-22.8C336.6 272.7 335.7 271.8 335.2 270.4zM336.9 347.5c-.4-.2-.8-.4-1.2-.7-11.7 2.8-24.2 3.2-35.7 3.2-.8 1.1-1.6 2.2-2.3 3.3-3.2 4.4-6.4 8.8-9.6 13.2 12.5 2.3 27.3 3.8 37.2-2.5 4-2.6 7.5-6.1 10.3-10 1.1-1.6 2.4-3.5 2.6-5.5C338.3 347.7 337.9 348 336.9 347.5zM356 309.6c-.3.1-.5.2-.8.2-9 2.6-20.1 6.9-29.2 2.9-5.9 8.9-12 17.7-18.2 26.4 13.6-.3 27.8-1.7 39.6-8.3 4.8-2.7 8.9-5.9 11.2-11.2C360.4 315.3 360.4 311.7 356 309.6zM383.5 272.9c-.5-1.5-.3-1-1.7-.8-2.8.3-4.6-1.2-5.3-3.2-2.7.6-5.4 1.1-8.2 1.3-4.6.5-10.9.1-14.8 2.9-1.2.9-2.4 1.1-3.6 1-1.3 2.3-2.6 4.6-4 6.9-4.4 7.4-8.9 14.7-13.6 22 6.2 1.3 13.5-2.1 19.2-3.6 8-2.1 17.4-3.1 24.1-8.2 4.2-3.2 6.5-6.5 7.5-11.8C383.5 277.5 384.2 274.9 383.5 272.9zM311.3 379.3c-10.2.8-21-1-30.6-3-5.4 7.2-11 14.3-16.6 21.3 2.6 2 8.8 1.2 12 .9 6-.5 12-1.5 17.9-2.7 4.7-1 10.6-1.6 14-5.4C311 387.2 311.6 383.3 311.3 379.3zM422 164.1c-.1-.7-.7-1.1-1.8-1.3-2.3-.5-4.6-.4-6.9.1-4.2.9-9.1 3.2-11.1 7.2-1.9 3.8-6.3 3.6-8.7 1.4-.5 1.5-1.1 2.9-1.6 4.4-.6 1.8-1.2 3.6-1.8 5.4 6.1-2.4 12.5-2.9 18.9-4.6C414.7 175.1 423.3 171.5 422 164.1zM385.7 137.4c-1.9 1.1-4.5.9-6.4-.4-2 .7-3.9 1.7-4.9 3.5-3.4 6.5-1.2 15.1.6 21.7.9 3.2 1.9 6.4 2.9 9.5 1 1.5 1.7 3.2 2.2 5 1.8-5.5 3.7-11 5.9-16.3.5-1.2 1.1-2.6 1.7-4C386.7 150.8 385.8 144.2 385.7 137.4zM410.9 191.7c-6.1-1.4-12.3 0-17.5 3.4-2.8 1.9-5.7.8-7.3-1.3-.5 1.8-1.1 3.5-1.6 5.3-2.3 7.4-5.3 14.8-8.4 22 4.3-2.1 8.9-3.6 13.6-4.9 8.3-2.3 17.6-4.6 22.7-12.1C415.3 199.9 417.5 193.3 410.9 191.7zM402.8 112.1c-4.2 4.8-5.3 12.5-5.8 18.4-.1 1.4-.2 2.8-.2 4.1 1.2 4.1 1.3 8.4 2 12.6 1.8.4 3 1.7 3.5 3.4C409.7 140.3 407.1 124.5 402.8 112.1zM404.4 228.7c-.3-1-.8-1.3.1-.8-.5-.2-.3-.3-1.3-.1-2.6.6-4.8-.6-6-2.3-8.1 2.2-16.6 4-22.6 9.8-1.7 1.6-3.7 1.9-5.4 1.4-.2.4-.4.8-.6 1.3-3.6 7.6-7.3 15.2-11.2 22.7 4.8-.6 9.7-.5 14.4-1.9 4.7-1.4 9.7-1.8 14.4-3.1 3.8-1 9.2-2.2 11.9-5.3 3.1-3.6 5.1-9.8 6.1-14.8C404.3 233.5 405 230.7 404.4 228.7zM111.2 241.8c1.4 3.8 2.8 7.6 4.5 11.3.5 0 1 0 1.5 0C114.8 249.5 112.8 245.7 111.2 241.8zM150.3 179.8c-2.2-4.7-6.3-10.5-11-13-2.2-1.2-3.7-1.6-5.3.6-1.9 2.7-3 6.6-2.9 9.9.5 15.2 11.5 28.3 21 39.5 1.8-11.5 4-23 6.3-34.4C155.8 183.8 151.9 183.3 150.3 179.8zM173.9 136.1c-3.3-6.3-2.2-13.5-4.9-19.9-2.4-5.8-8.4 1.5-9.7 4.9-3.1 8-3.4 17.4-3.1 25.9.3 7.3.7 15.3 3.4 22.2.7 1.7.5 3.3-.3 4.5.2.4.4.8.6 1.2.3-1.6.7-3.1 1-4.7 2.2-10.3 5.1-25.2 13.1-33.6C174.1 136.4 174 136.2 173.9 136.1zM197.4 176.3c-7.7-2.1-15.6-.6-21.9 4.3-1.6 1.2-3.2 1.4-4.5.9-.3.2-.7.3-1.1.4-2.1 10.8-4.3 21.7-6.2 32.6 4.5-3.2 9.9-5 15.2-6.7 4.8-4.3 11-6.6 16.9-6 3.8-2.1 7-5 8.6-9.2C207.3 185.5 205.3 178.4 197.4 176.3zM202.7 220.3c-1.3-3.2-3.5-5.6-6-6.8-.4.2-.8.4-1.2.5-9.4 3.6-22.1 4.4-28.9 12.5-1.5 1.8-3.4 2.2-5.1 1.8-.2 1.6-.5 3.1-.7 4.7-1.3 9.5-2.5 19-3.5 28.5 3.3-2.4 7.3-4 11.1-5.5 8.3-3.1 16-6 22.9-11.8C198.3 238.5 206.8 230.2 202.7 220.3zM187.3 319c-.3-.8-1.1-2.2-1.4-2.5-.6-.6-.7-.5-.5-.6-1.8.2-4.4 3.8-5.8 5.6-2 2.7-4.9 2.5-6.9.9-4.7 3-11.9 7.7-18.4 8 0 3.8 0 7.7 0 11.5 2.5 1.2 4.3 4.1 3.1 7.4.6-1.5-.4 1.8-.6 2.5-.3 1.7-.6 3.4-.8 5.1-.5 3.8-.9 7.7-1.3 11.5 0 0 0 0 0 0 3.3-2.4 7.6-4.7 12-7.2 8.2-4.8 18.9-11.4 21.4-21.3C189.9 333.3 190.1 325.5 187.3 319zM190 258.6c-2.2 1.3-4.5 2.5-6.8 3.6-4 1.9-8.2 3.1-12.3 4.7-2.6 1-9.2 3.1-10.1 6.2-.8 2.5-2.8 3.8-4.9 4-.7 9-1.2 18-1.4 27-.1 5.1-.2 10.1-.2 15.2.2 0 .3 0 .5-.1 1.2-.2 2.6-.8 3.8-1.4 3.6-1.6 7-3.7 10.2-5.9 7.1-4.8 13.9-10.1 20.1-16 2.2-2.2 4.5-5.5 6.2-9.2 0-1.2.5-2.5 1.5-3.5C200.1 273.4 200.1 262 190 258.6zM143.6 278c-1.7.9-3.9.9-5.8-.8-1.1-1-2.2-2-3.3-3-2.3-1.7-4.7-3.4-7.1-4.9-3.3-2-8.1-5.5-12.2-5-6 .7-2.7 13.2-1.6 17.1 2.6 9.1 6.6 17.9 12.3 25.5 2.9 3.9 8.9 11.4 14.6 10.1 1-.2 1.9-.2 2.7 0 .1-5.2.1-10.5.3-15.7.2-7.9.7-15.8 1.3-23.6C144.5 277.7 144.1 277.8 143.6 278zM130.1 325.1c-1 .5-2.2.7-3.7.3-5.2-1.6-15.3-5.5-20.5-2.1-6.1 4-2.8 14.2-.2 19.3 4.2 8.4 10.9 15.8 18.1 21.6 5.3 4.3 11.4 8.4 18.1 10 0-1.4.4-2.5 1.1-3.3.2-14.5.1-28.9.2-43.4C138.5 328.2 134.1 327.2 130.1 325.1zM144.5 224.6c-.2-.2-.4-.4-.6-.6-4.6-5.3-9.1-10.8-14.6-15.4-2.1-1.7-4.7-4.2-7.5-4.7-1.7-.3-2.3.7-3 3.1-6.6 22.3 7.3 43.6 22.9 58.7 1.3 1 2.6 1.9 3.9 2.8 1.2-13.8 2.9-27.6 4.9-41.3.1-.5.2-1.1.2-1.6C148.8 226.5 146.3 226.4 144.5 224.6z"/><path fill="#010101" d="M431.3,158.2c-3.5-6-10-7.7-16.7-6.8c6.4-15,2.3-35.1-4.1-49.5c-1.1-2.6-4.1-4.7-7-3.4c-7,3.1-11.5,8.6-14.2,15.2c-0.2-10.4-1.5-20.9-2.2-31.3c-0.5-7.1-11.4-6.2-11,0.8c0.9,14.2,3.2,28.5,1.9,42.7c-3.8,1-7.4,3-9.9,5.2c-7.6,7-7,18.5-5.1,27.8c0.2,1.2,0.5,2.5,0.8,3.7c-1.8-0.3-3.7-0.4-5.6-0.3c-10.7,0.9-16.1,10.5-15.2,20.3c0.4,4.9,1.2,9.8,2,14.6c-1.5-0.4-3.2-0.4-5-0.1c-8.4,1.4-11.9,10.2-14,17.4c-1.7,5.8-1.4,12.7-0.6,19.2c-7.7-0.7-15.1,3.9-19,10.4c-4.3,7.2-4.8,15.5-3.4,24c-5.1-1.5-10.4-1.4-15.3,1.7c-8.1,5.1-9.1,16.6-9.3,25.2c-0.1,2.7,0,5.4,0.2,8.1c-0.6-0.5-1.2-0.9-1.9-1.4c-7.8-4.8-14.7,4.4-16.7,10.9c-3.4,10.9-2.3,22.1,0.3,33c-2.6-1.5-5.5-2.3-8.5-2.2c-8.4,0.1-11.2,10.1-11.7,16.7c-0.6,7.2-0.6,14.2,0.2,21.4c0.3,3.2,0.7,6.2,1.7,9.3c0.4,1.3,0.8,2.5,1.2,3.8c0.1,0.4,0.2,0.8,0.3,1.2c0.1,1,0.1,1.1,0,0.4c-2,2.9-0.5,5.6,2,6.8c-18.3,21.5-38,41.8-59.9,59.7c-1.8,1.4-3.5,2.9-5.3,4.3h17.5c16.6-14.1,32-29.7,46.5-45.9c4.4-4.9,8.7-9.9,12.9-15c4.8,3.8,11.7,3.8,17.4,3.5c7.8-0.3,15.7-1.9,23.3-3.5c7.3-1.5,14-3.6,19.1-9.3c4.8-5.3,5.7-12.6,5.1-19.5c4.2-1.3,8.1-3.2,11.7-5.9c7.1-5.5,19.1-19.6,14.1-28.6c3.8-1.7,7.4-3.7,10.8-6.2c9.3-6.9,15.3-21,9.5-30.5c7-2.1,13.6-5,19.2-10.9c6-6.4,9.8-22.3,4.5-29.9c7.5-2.3,14.1-6,18-13.4c4.4-8.3,8.3-25.5,1.5-32.2c7.1-4.5,12.6-11.2,14.6-19.8c1.5-6.7-1.3-12.1-6.1-15.6c0.9-0.4,1.9-0.9,2.8-1.4C430.4,178.4,436.2,166.5,431.3,158.2z M397,130.5c0.4-5.9,1.6-13.6,5.8-18.4c4.4,12.4,6.9,28.1-0.4,38.5c-0.5-1.7-1.7-3-3.5-3.4c-0.7-4.1-0.8-8.5-2-12.6C396.8,133.3,396.9,131.9,397,130.5z M374.4,140.5c0.9-1.8,2.9-2.8,4.9-3.5c1.8,1.3,4.4,1.5,6.4,0.4c0.2,6.7,1,13.3,2.1,19c-0.6,1.4-1.2,2.8-1.7,4c-2.2,5.3-4.1,10.8-5.9,16.3c-0.5-1.8-1.3-3.5-2.2-5c-1-3.2-2-6.3-2.9-9.5C373.2,155.6,371,146.9,374.4,140.5z M354,177.6c0.4-1.7,1.6-2.8,2.9-3.7c4-2.5,8.8-0.1,11.3,3.5c1.1,3.6,2.2,7.3,2.9,11c0.5,2.4,2.1,3.5,4,3.7c-3.8,11-8.1,21.8-12.8,32.5c-0.2-0.6-0.4-1.2-0.6-1.8c-0.5-1.7-0.9-3.3-1.4-5c2.7-1.9,3.9-5.8,0.5-8.3c-1-0.7-2-1.6-2.9-2.5c-1.3-6.3-2.4-12.6-3.3-19c-0.4-2.8-0.8-5.7-0.9-8.5c0-0.5-0.1-0.7-0.1-0.9C353.8,178.5,353.9,178.2,354,177.6z M340.9,208.4c1.7-1.4,4.4,0.6,7,3.2c0.2,0.9,0.4,1.8,0.6,2.7c1.2,5.4,2.4,18.8,8.9,21.4c-1.9,4-3.8,7.9-5.8,11.9c-2.3,4.7-4.8,9.3-7.3,13.9c-0.3-0.3-0.7-0.5-1.1-0.7c-1-2.6-1.8-5.2-2.6-7.9c0.2-0.5,0.3-1.1,0.3-1.7c0.1-4.2-1.1-7.9-3.3-10.9c-0.9-5-1.4-10-1.5-15.1C335.9,220,336.5,212.1,340.9,208.4z M313.6,256.9c0.4-5.4,3-10.3,8.3-12c2.3-0.7,4.2-0.4,5.5,0.7c1.8,8.5,4.3,16.8,7.7,24.8c0.6,1.3,1.4,2.3,2.4,2.8c-4.5,7.7-9.2,15.3-14,22.8c-1.4-3.8-3.1-7.8-4.5-11.8c2.4-2,3.2-5.6,0-7.8c-1-0.7-2.1-1.5-3.3-2.2C314.1,268.5,313.2,262.7,313.6,256.9z M290.2,286.5c0.4-1.9,0.7-3,1.2-4c0.8-1.9,0.8-1.8,1.9-3c0.9-1,2.5-1.5,4.9-1.2c2.9,0.4,5.7,1.6,8.3,3.1c2.5,7.5,5.5,14.8,7.8,21.1c0.6,1.7,1.8,2.8,3.1,3.2c-4,6-8.1,12-12.2,18c-2.9,4.2-5.8,8.4-8.7,12.5c-0.2-0.9-0.7-1.8-1.4-2.5c0.3,0.2,0.6,0.4,0.6,0.4c1,1.9,0.4,0.7,0.2,0.1c-0.4-0.9-0.7-1.9-0.9-2.9c-0.9-3-1.6-6.1-2.3-9.2c-1.7-7.5-2.9-16.4-3.1-24.6C289.3,293.7,289.4,290.4,290.2,286.5z M269.9,317.7c0.4-1.7,1.1-3.2,1.9-4.8c0.3-0.5,0.5-0.8,0.6-1c3.1,2,5.4,8,7.4,10.8c0.6,0.8,1.3,1.4,2,1.8c0.1,0.5,0.2,0.9,0.3,1.4c1.1,5.1,2.1,15.5,8.2,17.1c0.4,0.1,0.8,0.2,1.2,0.2c-4.5,6.3-9,12.6-13.7,18.8c-0.5-0.6-1.1-1-1.8-1.3c-3.4-10.9-6.8-21.9-7.2-33.4C268.8,324,269.2,320.9,269.9,317.7z M254,392.7c-0.1-0.6-0.3-1.2-0.5-1.8c-1.3-4.7-2.2-9-2.7-14c-0.5-5.4-0.3-10.7,0.1-16.2c0.1-1.7,0.6-5.5,1.6-6.4c-0.2,0.2,0.7,0-0.3-0.1c1.1,0.1,1.4,0.4,2.4,0.9c1.9,1,3.5,2.9,4.8,4.6c3.5,4.3,6.2,9.7,6.4,15.3c0,0.8,0.2,1.5,0.4,2.1C262.3,382.4,258.2,387.6,254,392.7z M308.1,390.4c-3.4,3.8-9.3,4.5-14,5.4c-5.9,1.2-11.9,2.2-17.9,2.7c-3.2,0.3-9.4,1.1-12-0.9c5.7-7,11.2-14.1,16.6-21.3c9.5,2,20.3,3.8,30.6,3C311.6,383.3,311,387.2,308.1,390.4z M338.2,348.5c-0.2,2-1.5,3.9-2.6,5.5c-2.7,3.9-6.3,7.5-10.3,10c-9.9,6.4-24.7,4.9-37.2,2.5c3.2-4.4,6.4-8.8,9.6-13.2c0.8-1.1,1.6-2.2,2.3-3.3c11.5,0,24-0.4,35.7-3.2c0.3,0.3,0.7,0.5,1.2,0.7C337.9,348,338.3,347.7,338.2,348.5z M358.6,319.5c-2.3,5.3-6.3,8.5-11.2,11.2c-11.8,6.6-26,8-39.6,8.3c6.2-8.7,12.2-17.5,18.2-26.4c9.1,4.1,20.2-0.2,29.2-2.9c0.3-0.1,0.5-0.2,0.8-0.2C360.4,311.7,360.4,315.3,358.6,319.5z M383.2,279.5c-1,5.3-3.3,8.6-7.5,11.8c-6.7,5.1-16.1,6.1-24.1,8.2c-5.7,1.5-13.1,5-19.2,3.6c4.7-7.2,9.2-14.5,13.6-22c1.4-2.3,2.7-4.6,4-6.9c1.1,0.1,2.4-0.1,3.6-1c4-2.8,10.2-2.4,14.8-2.9c2.7-0.3,5.5-0.8,8.2-1.3c0.8,2,2.6,3.5,5.3,3.2c1.4-0.2,1.2-0.7,1.7,0.8C384.2,274.9,383.5,277.5,383.2,279.5z M404,235.5c-0.9,5-3,11.2-6.1,14.8c-2.7,3.1-8.1,4.3-11.9,5.3c-4.7,1.2-9.7,1.7-14.4,3.1c-4.7,1.4-9.6,1.2-14.4,1.9c3.9-7.5,7.6-15,11.2-22.7c0.2-0.4,0.4-0.8,0.6-1.3c1.8,0.5,3.8,0.2,5.4-1.4c6-5.7,14.6-7.6,22.6-9.8c1.3,1.7,3.4,2.9,6,2.3c1-0.2,0.8-0.1,1.3,0.1c-0.9-0.5-0.4-0.2-0.1,0.8C405,230.7,404.3,233.5,404,235.5z M412.4,204.1c-5.2,7.5-14.4,9.8-22.7,12.1c-4.8,1.3-9.4,2.8-13.6,4.9c3.2-7.2,6.1-14.6,8.4-22c0.5-1.8,1.1-3.5,1.6-5.3c1.6,2.1,4.5,3.2,7.3,1.3c5.1-3.5,11.4-4.9,17.5-3.4C417.5,193.3,415.3,199.9,412.4,204.1z M409.1,176.6c-6.4,1.7-12.8,2.3-18.9,4.6c0.6-1.8,1.2-3.6,1.8-5.4c0.5-1.5,1-2.9,1.6-4.4c2.5,2.2,6.8,2.5,8.7-1.4c2-4,6.9-6.3,11.1-7.2c2.3-0.5,4.6-0.6,6.9-0.1c1,0.2,1.6,0.6,1.8,1.3C423.3,171.5,414.7,175.1,409.1,176.6z"/><path fill="#010101" d="M355.1 120.4c0-7.1-11-6.2-11 .8.1 10.2.9 20.4-.9 30.5-1.3 7 9.5 9.1 10.8 2.1C356 142.8 355.2 131.5 355.1 120.4zM313.1 162.4c-.4-7.1-11.3-6.2-11 .8.9 17.3-.9 34.7-1 52 0 7.1 10.9 6.2 11-.8C312.2 197 314 179.7 313.1 162.4zM282.1 220.4c0-7.1-11-6.2-11 .8.1 17.2 1.9 34.6-1.9 51.5-1.5 6.9 9.3 9 10.8 2.1C284 256.9 282.2 238.5 282.1 220.4zM256 285.5c-.7-5.1-2.4-12.6.6-17.3 3.8-6-6.1-10.8-9.9-4.9-3.5 5.5-2.7 13.1-2.1 19.2.7 7.2 2.5 14.4 2.6 21.7.1 7.1 11.1 6.2 11-.8C258 297.4 256.7 291.4 256 285.5zM430.5 89c-.2-4.7-.5-9.3-1.4-13.9-.9-5-2.5-10.1-2.1-15.3.6-7-10.2-9.2-10.8-2.1-.8 9.5 2.3 18.9 3.1 28.4.8 10.7.4 21.2-2.1 31.6-1.6 6.9 9.2 9 10.8 2.1C430.4 109.7 431 99.4 430.5 89zM445.2 95.7c-2.2 10.8-8.8 20.1-11 31-1.4 7 9.4 9 10.8 2.1 2.2-10.8 8.8-20.1 11-31C457.4 90.9 446.7 88.8 445.2 95.7zM391.5 333.1c-12.6 15.6-28.2 31-46.7 39.4-6.4 2.9-2.8 13.3 3.6 10.4 20.3-9.3 37.4-25.4 51.3-42.6C404.2 334.9 395.9 327.6 391.5 333.1zM425.7 254.3c-8.1 15.5-24.4 25-29.5 42.4-2 6.8 8.8 8.8 10.8 2.1 2.2-7.6 8-13.7 13.1-19.4 5.7-6.3 11.5-12.6 15.4-20.2C438.8 252.9 429 248.1 425.7 254.3zM451.7 159.3c-4.4 11-16.5 16.5-19.5 28.4-1.7 6.9 9.1 9 10.8 2.1 1.1-4.7 5.2-8.2 8.4-11.5 4.1-4.2 7.9-8.6 10.1-14.1C464.2 157.7 454.3 152.7 451.7 159.3zM138.1 438c.1-.2.1-.5.2-.6 0-.1 0-.2 0-.2C137.4 438 137.7 438.7 138.1 438z"/><path fill="#010101" d="M237.5,195.5c-7.5,12.1-14.6,24.5-23.3,35.6c1.3-6.2,0.1-12.6-3-18.1c4.1-6.8,9.8-12.6,15.1-18.5c5.5-6.1,9.6-12.9,14-19.8c8.8-13.6,19.2-28.3,18.6-45.2c-0.3-7.1-11.2-6.2-11,0.8c0.5,14.9-10.6,28.8-18.3,40.7c-4,6.3-8.1,12.1-13,17.6c0-0.2,0-0.4,0.1-0.6c0.9-10.8-4.7-17.6-12.6-20.9c5.2-2.8,9.7-6.1,13.2-10.5c0.1,4.7,6.1,8.6,9.3,3.8c14.3-21.1,25-45.3,26.4-71.1c0.4-7.1-10.6-6.1-11,0.8c-1.1,19.7-8.9,39.2-19.2,56.1c3.1-9.8-2.3-19.9-13-20.5c2.6-2.6,5.5-5,7.9-7.5c6.3-6.3,10.7-14.2,14.9-22C242,78.8,248,59.4,252.9,40c1.7-6.9-9.1-8.9-10.8-2.1c-4.8,19.1-10.9,37.8-20.2,55.3c-1.9,3.5-3.8,6.8-6,9.9c0-7.9-2.5-15.8-8.8-19.6c-9.4-5.7-17.4,5.9-21.5,12.8c-1.5,2.6-2.9,5.4-4.3,8.1c10-32.1,31.1-61.3,59.2-79.9c5.9-3.9-0.2-13-6.2-9.1c-31,20.5-53.4,52.6-64.2,88c-6.9-1.8-15,3.1-18.9,8.9c-5.6,8.6-6,20.8-6.1,30.7c-4.5-25.8,5-55.3,21.4-74.5c4.6-5.4-3.7-12.7-8.3-7.3c-20.5,24-31.4,62.3-21.7,93.4c-6.2,0.1-11.6,4.9-14.3,11.3c-0.2,0.4-0.3,0.9-0.5,1.3c0-2.8,0.1-5.6,0.1-8.4c0-16.6,0.2-33.9,6.4-49.6c2.6-6.6-7.2-11.5-9.9-4.9c-7.2,18.2-7.5,37.8-7.6,57.1c0,10.5-0.9,22.9,4.3,32.5c-1.7,1-3.2,2.6-4.7,4.8c-5.6,8.9-5.6,20.7-3.2,31.2c-1.6-5.4-2.9-10.9-4.1-16.4c-1.2-5.7-2-11.5-3.2-17.2c-1.2-6-2.8-13-0.7-19.1c2.3-6.6-7.5-11.6-9.9-4.9c-4.6,13-0.1,27.2,2.4,40.3c2.9,15.1,7.2,29.8,13.3,44c0.1,0.1,0.1,0.2,0.2,0.3c-3.9,4.3-4.7,11.2-4.1,17.5c-4.6-10.1-8.2-20.5-8.4-32c-0.1-7.1-11.1-6.2-11,0.8c0.3,22.7,13,41.1,21.3,61.4c1.8,4.3,6.9,4.2,9.4,1.7c1.1,1.7,2.2,3.4,3.3,5.1c-5.3-0.7-10.7-0.5-15.4,2.1c-9.7,5.2-10.2,18.1-7.3,27.4c3.5,11.2,11.9,21,20.4,28.8c7.8,7.1,17.9,14.1,28.7,15.5c0,0,0,0,0.1,0c-0.2,3.1-0.4,6.1-0.6,9.2c-0.6,9.6-1.2,19.3-2,28.9c-0.3,3.5-0.6,7.1-1.1,10.6c-0.1,1-0.3,2-0.5,3.1c0.6-0.6,1.7-1.3,3.7-1.6c-1.9,0.3-3.2,1.4-4,2.7c0.1-0.1,0.1-0.4,0.2-0.7c-0.1,0.2-0.1,0.4-0.2,0.5c0,0.1-0.1,0.2-0.1,0.3c-2,3.6-0.2,9,4.9,8.2c6.4-1.1,6.6-8.9,7.2-14c1.1-9.7,1.6-19.5,2.2-29.3c0.4-7,0.9-14,1.4-21c4.4-2.4,8.2-5.7,12.5-8.1c13.4-7.2,27.6-15.9,32.5-31.1c3.2-9.8,2.2-22.6-3-31.5c-0.9-1.5-2-2.8-3.4-3.9c2-1.8,3.9-3.6,5.8-5.4c3.6-3.5,6.5-8.1,8.4-13c8.7-7.4,14.9-16.5,22-25.5c4.4-5.6-3.9-12.8-8.3-7.3c-3.7,4.7-7.2,9.6-11,14.3c-0.7-7.4-3.7-14.3-9.5-18.8c1.7-1.4,3.3-2.9,4.7-4.4c1.7,2.8,6,4.3,9,1.2c13.9-14.1,23.4-31.5,33.8-48.2C251.1,194.4,241.2,189.6,237.5,195.5z M193.4,105.1c1.5-2.9,3.1-5.8,5-8.4c0.9-1.2,1.9-2.4,3.1-3.3c0.1-0.1,0.2-0.2,0.3-0.3c2.8,2.5,3.1,8.6,3.1,12c0.1,5.1-2.4,10.2-5.2,14.3c-3.2,4.4-6.7,6.6-11.6,8.5c-1.4,0.5-2.8,1.1-4.2,1.7C184,120.8,189.5,112.9,193.4,105.1z M179.2,108.7c-0.2,0.5-0.5,1-0.7,1.4c0,0.1-0.1,0.1-0.1,0.2c-0.1-0.3-0.3-0.5-0.4-0.8C178.4,109.3,178.8,109.1,179.2,108.7z M179.5,148.2c0.3-0.2,0.7-0.4,1-0.7c3.8-3,8-4.7,12.6-6.2c1.6-0.5,3.3-1.2,5-1.8c1,0,1.9-0.3,2.7-0.9c2.3-0.7,4.7-1.4,6.9-1.6c10.4-1.2,1.6,13.5-1.9,16.4c-6.7,5.5-16.1,9.2-24.5,11.3c-2.6,0.7-5.6,1.4-8.3,2.4c0.9-3.7,1.9-7.3,3.2-10.9C177.1,153.7,178.1,150.8,179.5,148.2z M159.3,121.1c1.3-3.4,7.3-10.7,9.7-4.9c2.7,6.4,1.6,13.7,4.9,19.9c0.1,0.2,0.2,0.3,0.3,0.5c-8,8.5-10.9,23.4-13.1,33.6c-0.3,1.6-0.7,3.1-1,4.7c-0.2-0.4-0.4-0.8-0.6-1.2c0.7-1.2,1-2.7,0.3-4.5c-2.7-6.9-3.1-14.8-3.4-22.2C155.9,138.5,156.2,129.1,159.3,121.1z M117.1,253.2c-0.5,0-1,0-1.5,0c-1.6-3.7-3.1-7.5-4.5-11.3C112.8,245.7,114.8,249.5,117.1,253.2z M143.1,370.8c-0.7,0.9-1.1,2-1.1,3.3c-6.8-1.6-12.8-5.7-18.1-10c-7.2-5.8-13.9-13.2-18.1-21.6c-2.5-5.1-5.9-15.3,0.2-19.3c5.2-3.4,15.2,0.6,20.5,2.1c1.5,0.4,2.7,0.3,3.7-0.3c4,2.1,8.4,3.1,13.2,2.3C143.2,341.9,143.3,356.3,143.1,370.8z M143.7,301.1c-0.2,5.2-0.2,10.5-0.3,15.7c-0.8-0.2-1.7-0.2-2.7,0c-5.7,1.3-11.7-6.2-14.6-10.1c-5.7-7.5-9.7-16.4-12.3-25.5c-1.1-3.9-4.5-16.4,1.6-17.1c4.1-0.5,8.9,3,12.2,5c2.4,1.5,4.8,3.2,7.1,4.9c1.1,1,2.2,2,3.3,3c1.9,1.7,4.1,1.7,5.8,0.8c0.4-0.1,0.9-0.3,1.3-0.5C144.3,285.3,143.9,293.2,143.7,301.1z M150.5,227.2c-2,13.7-3.7,27.5-4.9,41.3c-1.3-0.9-2.6-1.8-3.9-2.8c-15.6-15.1-29.6-36.4-22.9-58.7c0.7-2.4,1.3-3.4,3-3.1c2.8,0.5,5.4,2.9,7.5,4.7c5.4,4.6,9.9,10.1,14.6,15.4c0.2,0.2,0.4,0.4,0.6,0.6c1.9,1.7,4.3,1.8,6.3,1C150.7,226.2,150.6,226.7,150.5,227.2z M152.1,216.9c-9.5-11.2-20.5-24.3-21-39.5c-0.1-3.3,1-7.2,2.9-9.9c1.6-2.3,3.1-1.8,5.3-0.6c4.7,2.5,8.8,8.3,11,13c1.6,3.5,5.5,4,8.2,2.7C156.1,193.9,154,205.4,152.1,216.9z M188.2,340c-2.5,9.9-13.2,16.5-21.4,21.3c-4.4,2.5-8.7,4.9-12,7.2c0,0,0,0,0,0c0.3-3.8,0.7-7.7,1.3-11.5c0.2-1.7,0.5-3.4,0.8-5.1c0.1-0.7,1.1-4.1,0.6-2.5c1.2-3.3-0.7-6.2-3.1-7.4c0-3.8,0-7.7,0-11.5c6.5-0.3,13.7-5,18.4-8c2.1,1.6,4.9,1.8,6.9-0.9c1.4-1.9,4.1-5.4,5.8-5.6c-0.1,0-0.1,0,0.5,0.6c0.3,0.3,1.1,1.7,1.4,2.5C190.1,325.5,189.9,333.3,188.2,340z M196.6,283.1c-1,1.1-1.4,2.3-1.5,3.5c-1.8,3.8-4,7.1-6.2,9.2c-6.2,5.9-13,11.2-20.1,16c-3.3,2.2-6.6,4.3-10.2,5.9c-1.2,0.5-2.6,1.1-3.8,1.4c-0.2,0-0.3,0-0.5,0.1c0-5.1,0.1-10.1,0.2-15.2c0.2-9,0.7-18,1.4-27c2.1-0.3,4.1-1.5,4.9-4c1-3.1,7.6-5.1,10.1-6.2c4.1-1.6,8.3-2.8,12.3-4.7c2.2-1.1,4.5-2.3,6.8-3.6C200.1,262,200.1,273.4,196.6,283.1z M191.4,244.3c-6.9,5.8-14.6,8.6-22.9,11.8c-3.8,1.5-7.8,3.1-11.1,5.5c1-9.5,2.2-19,3.5-28.5c0.2-1.6,0.4-3.1,0.7-4.7c1.7,0.4,3.6,0,5.1-1.8c6.8-8.2,19.5-8.9,28.9-12.5c0.4-0.2,0.8-0.3,1.2-0.5c2.5,1.2,4.7,3.6,6,6.8C206.8,230.2,198.3,238.5,191.4,244.3z M204.5,192.5c-1.7,4.3-4.9,7.1-8.6,9.2c-5.9-0.6-12.1,1.7-16.9,6c-5.4,1.6-10.7,3.5-15.2,6.7c1.9-10.9,4.1-21.7,6.2-32.6c0.4-0.1,0.7-0.3,1.1-0.4c1.4,0.5,3,0.3,4.5-0.9c6.3-4.9,14.2-6.3,21.9-4.3C205.3,178.4,207.3,185.5,204.5,192.5z"/></svg>