<svg xmlns="http://www.w3.org/2000/svg" width="512" height="512" viewBox="0 0 512 512"><path fill="#BCBCBC" d="M365.2,123.9c-15.9-12.9-34.8-21.6-54.8-25.8c-13.4-2.8-27.1-3.8-40.7-3.3c-0.2,22.9-2.2,45.6-3.2,68.5c-0.6,14.8-5.6,41.4,15.2,44.6c19.1,3,38-13.1,52.2-23.7c17.3-12.9,35.4-24.6,50.8-39.8c0,0,0,0,0,0C379,136.8,372.6,129.9,365.2,123.9z"/><path fill="#D6E5E5" d="M323.7,302.2c-11.7-14.1-28.1-34.4-19-53.8c4-8.5,11.1-14.8,18.4-20.4c8-6.1,15.9-12.2,23.5-18.7c16.9-14.3,34-28.3,53.6-38.7c-2.8-6.1-6-12-9.5-17.6c-17,16.4-36.9,29.6-55.9,43.5c-15.3,11.2-37,27-57.3,21.1c-8.3-2.4-15.1-7.4-18.8-15.3c-4.6-9.5-3.2-20.7-2.9-30.9c0.9-25.3,3.2-50.6,3.5-76c-7.7,0.7-15.4,1.9-23,3.6c0,0,0,0,0,0.1c-3.6,10.8-2.1,22.4-0.5,33.5c1.8,11.8,3,23.6,3.7,35.5c0.7,12.6,0.9,25.5-0.7,38c-0.9,7.2-3.3,14.4-8.7,19.6c-14.5,13.8-39.7,8.1-56.9,4.3c-12.1-2.6-24.3-5.3-36.2-8.6c-10.5-2.9-21-6-31.8-7.7c-1.2,7.2-1.9,14.6-2.2,22c0.9-0.4,1.9-0.6,3.1-0.4c23.8,4.1,48.3,5.8,71.6,12.8c8.5,2.6,18.3,5.3,24.6,12c5,5.3,8.1,11.7,9.2,18.9c2.5,15.1-2,30.8-6.9,45c-6.7,19.3-16.1,37.4-24.2,56.2c-0.1,0.3-0.2,0.5-0.4,0.7c5.1,2.8,10.4,5.3,15.8,7.4c2.7-11.6,7.6-22.3,12.5-33.2c4.5-10,7.1-20.6,11.2-30.7c7.8-19,25.2-36.1,47.2-34.2c20.3,1.8,37.3,17.4,50.1,32c6.5,7.4,13.2,14.9,19,22.9c5.1,7,9.5,14.7,10.8,23.2c1.8-1.1,3.6-2.2,5.3-3.4c6-4,11.9-8.3,17.5-12.9C353.1,336.3,338.1,319.7,323.7,302.2z M249.2,277.9c-11.2-2.6-23.6-6.3-24.3-19.9c-0.7-13.8,6-25.8,18.8-31.3c6.2-2.7,9.7,7.3,3.5,9.9c-8.4,3.6-13.1,12.6-11.7,21.7c1.2,7.1,10,7.9,15.7,9.2C257.7,269.2,255.8,279.5,249.2,277.9z M286.8,258.5c-2,6.4-12.3,4.5-10.3-2c1.5-4.9,2.1-10.8-1.1-15.2c-4-5.5,4.7-11.3,8.7-5.9C288.8,241.9,289.1,251.1,286.8,258.5z"/><path fill="#BCBCBC" d="M336.6 373.4c-.3-9.5-5.5-17.6-11.3-24.8-5.6-7-11.4-14.1-17.4-20.7-10.7-11.6-26-27.1-43.1-27.3-20.1-.3-32 17-38 34.1-3.3 9.6-6.4 19-10.6 28.2-4.2 9.4-8.3 18.8-10.5 28.9 4.1 1.3 8.3 2.4 12.6 3.2 22.7 4.5 46.4 3.6 68.9-1.9 17.2-4.2 33.9-10.5 49.4-19C336.6 373.9 336.6 373.7 336.6 373.4zM404.3 180.2c-17.9 9.7-33.8 22.5-49.3 35.6-7.5 6.4-15 12.6-22.9 18.5-6.1 4.6-13.2 9.6-16.9 16.5-8.9 17 9 35.6 19.1 47.7 13.6 16.4 27.8 31.8 43.1 46.4 9.3-8.7 17.7-18.4 23.9-29.4C424.8 274.3 421 223.3 404.3 180.2zM201.3 281.7c-.8-6.1-3.3-12-8.2-15.8-7-5.5-17-7.7-25.5-9.8-20.9-5.1-42.3-7-63.5-10.6-.4-.1-.8-.2-1.1-.3-3.2 23.2-.6 46.1 9.7 67.5 10 20.9 25.6 38.9 43.9 52.9 4.6 3.6 9.5 6.9 14.5 10 0 0 0-.1 0-.1 7.7-17.8 16.6-35 23.1-53.2C198.6 309.6 203.1 295.3 201.3 281.7zM228.2 157.8c-.9-10.8-2.8-21.4-3.9-32.2-.8-7.9-1.2-16 .4-23.8-16.1 4.4-31.7 10.8-46.2 18.6-22.3 12-44.7 28.5-58.1 50.4-6.3 10.3-10.5 21.2-13.2 32.4 10.2 1.6 20.1 4.5 30 7.3 11.4 3.2 22.9 5.7 34.4 8.3 11.1 2.5 23.2 5.6 34.6 4.7 6.3-.5 13.6-1.6 17.8-6.8 4.8-6.1 4.9-15 5.2-22.3C229.8 182.2 229.2 170 228.2 157.8z"/><path fill="#127274" d="M459.6,139.8C434.9,94,393.3,59.4,344.5,41.7c-25.6-9.3-52.6-14.1-79.9-12.9c-28.2,1.3-56,7.9-81.8,19.5c-39,17.6-71.3,45.4-102,74.7c-0.4,0.9-1.2,1.7-2.3,2.2c-1.5,1.4-3,2.9-4.5,4.3c-0.2,0.4-0.5,0.8-0.7,1.2c-1.7,2.7-3.6,5.2-5.3,8c-4.2,6.6-7.6,13.6-11.2,20.5c-3.6,6.8-8.1,13.5-11,20.6c-1.3,5.9-2.5,11.7-3.5,17.7c-2.9,18.3-4.7,36.8-4.2,55.3c1.2,53.6,18.9,109,53.4,150.5c16.4,19.7,36.4,36.2,59.8,46.9c23.1,10.6,48.5,16.2,74,16.4C281,467.2,337,448.1,383,417.2c43.4-29.2,78.5-71.4,92.9-122.3C490.5,243.4,484.9,187.1,459.6,139.8z M414.2,347.5c-27.1,36.5-67.5,60.2-110.8,72.3c-43.4,12.2-91.5,13.9-133.4-4.5c-43.8-19.1-75.9-59.1-90.6-104c-7.5-22.9-11.1-47.1-10.7-71.2c0.2-12.1,1.2-24.3,3.2-36.2c1.7-10.1,4.2-20,7-29.8c3.1-5.4,6.6-10.6,9.9-15.9c18.3-19,37.9-36.8,59.6-51.8c39.7-27.5,86.2-44.6,134.9-43.3c42.4,1.2,83.9,16.2,114.2,46.7C458.7,171.7,466,277.6,414.2,347.5z"/><path fill="#BCBCBC" d="M341.5,85.1c-43.1-17.4-93.4-14.6-136.2,2.3c-44.9,17.7-82.2,49.5-114.9,84.3c-2.2,7.6-4.4,15.1-6.1,22.8c-9.9,47-6.2,98.5,16.8,141.3c11.4,21.1,26.9,40.5,46.4,54.7c18.2,13.3,39.6,21.8,61.8,25.5c44.8,7.5,92.4-2.1,132.8-22.2c39.5-19.7,71.4-53,86.3-94.9C456.8,218.9,423.2,118,341.5,85.1z M390.9,346.3c-32.5,33.3-77.3,55.9-123.7,61c-22.7,2.5-46.5,1.1-68.1-6.6c-21.7-7.7-42.1-19.8-59.2-35.3c-17-15.4-31.4-34.1-39.9-55.5c-8.2-20.3-10.3-41.6-7.8-63.1c0.1-19.5,1.6-39.2,8.1-57.8c6.5-18.9,17.9-35.3,32.4-48.9c27.4-25.5,63-42.6,99.4-50.8c40.8-9.2,86.1-7.2,122.8,14.6c39.8,23.7,61.5,65.4,70,109.9C433.9,261.1,425.4,311,390.9,346.3z"/><path d="M424.9,213.8c-8.5-44.5-30.2-86.2-70-109.9c-36.7-21.8-82-23.8-122.8-14.6c-36.4,8.2-72,25.3-99.4,50.8c-14.6,13.6-25.9,30-32.4,48.9c-6.4,18.6-8,38.2-8.1,57.8c-2.5,21.5-0.4,42.8,7.8,63.1c8.6,21.4,23,40.1,39.9,55.5c17.1,15.5,37.5,27.6,59.2,35.3c21.6,7.7,45.4,9.1,68.1,6.6c46.4-5.1,91.1-27.8,123.7-61C425.4,311,433.9,261.1,424.9,213.8z M266.5,163.2c1-22.8,2.9-45.6,3.2-68.5c13.7-0.5,27.4,0.5,40.7,3.3c20,4.2,38.9,12.9,54.8,25.8c7.4,6,13.8,12.9,19.5,20.3c0,0,0,0,0,0c-15.4,15.2-33.5,26.9-50.8,39.8c-14.2,10.6-33.1,26.7-52.2,23.7C260.9,204.6,265.8,178,266.5,163.2z M120.4,170.9c13.4-22,35.8-38.4,58.1-50.4c14.5-7.8,30.1-14.1,46.2-18.6c-1.6,7.8-1.2,15.9-0.4,23.8c1.2,10.8,3,21.4,3.9,32.2c1.1,12.2,1.7,24.4,1.1,36.6c-0.3,7.4-0.4,16.3-5.2,22.3c-4.2,5.3-11.5,6.3-17.8,6.8c-11.4,0.9-23.5-2.2-34.6-4.7c-11.5-2.6-23.1-5.1-34.4-8.3c-9.9-2.8-19.8-5.6-30-7.3C109.9,192,114.1,181.2,120.4,170.9z M170.9,375.6c-5-3.1-9.8-6.5-14.5-10c-18.3-14-33.9-32-43.9-52.9c-10.2-21.3-12.8-44.3-9.7-67.5c0.3,0.1,0.7,0.2,1.1,0.3c21.2,3.6,42.6,5.6,63.5,10.6c8.5,2.1,18.5,4.3,25.5,9.8c4.9,3.9,7.4,9.8,8.2,15.8c1.9,13.6-2.7,27.9-7.1,40.5c-6.5,18.3-15.5,35.4-23.1,53.2C171,375.5,171,375.6,170.9,375.6z M287.2,393.2c-22.5,5.5-46.2,6.4-68.9,1.9c-4.2-0.8-8.4-1.9-12.6-3.2c2.2-10.1,6.3-19.5,10.5-28.9c4.2-9.2,7.2-18.6,10.6-28.2c5.9-17.1,17.9-34.4,38-34.1c17.1,0.2,32.4,15.7,43.1,27.3c6.1,6.6,11.8,13.7,17.4,20.7c5.8,7.2,11,15.3,11.3,24.8c0,0.2,0,0.5,0.1,0.7C321.1,382.6,304.4,389,287.2,393.2z M352,364.9c-1.8,1.2-3.5,2.3-5.3,3.4c-1.3-8.6-5.7-16.2-10.8-23.2c-5.8-7.9-12.5-15.5-19-22.9c-12.9-14.6-29.8-30.2-50.1-32c-22-1.9-39.3,15.2-47.2,34.2c-4.2,10.1-6.8,20.7-11.2,30.7c-4.9,10.8-9.8,21.6-12.5,33.2c-5.4-2.2-10.7-4.6-15.8-7.4c0.1-0.2,0.3-0.5,0.4-0.7c8.1-18.7,17.5-36.9,24.2-56.2c4.9-14.2,9.3-29.9,6.9-45c-1.2-7.2-4.2-13.6-9.2-18.9c-6.3-6.8-16.1-9.4-24.6-12c-23.2-7.1-47.7-8.8-71.6-12.8c-1.2-0.2-2.3,0-3.1,0.4c0.3-7.4,1-14.8,2.2-22c10.8,1.7,21.2,4.8,31.8,7.7c11.9,3.3,24.1,6,36.2,8.6c17.2,3.8,42.4,9.4,56.9-4.3c5.4-5.1,7.8-12.3,8.7-19.6c1.6-12.6,1.4-25.4,0.7-38c-0.7-11.9-1.9-23.7-3.7-35.5c-1.7-11-3.1-22.6,0.5-33.5c0,0,0,0,0-0.1c7.6-1.6,15.3-2.8,23-3.6c-0.3,25.4-2.6,50.7-3.5,76c-0.4,10.2-1.7,21.4,2.9,30.9c3.8,7.9,10.6,12.9,18.8,15.3c20.3,5.9,42-9.9,57.3-21.1c19-14,38.9-27.1,55.9-43.5c3.6,5.6,6.7,11.5,9.5,17.6c-19.6,10.4-36.7,24.4-53.6,38.7c-7.7,6.5-15.5,12.6-23.5,18.7c-7.3,5.6-14.4,11.9-18.4,20.4c-9.1,19.4,7.3,39.7,19,53.8c14.5,17.5,29.4,34.1,45.8,49.8C363.8,356.6,357.9,360.9,352,364.9z M401.3,315.6c-6.2,11-14.5,20.7-23.9,29.4c-15.4-14.7-29.5-30.1-43.1-46.4c-10.1-12.1-28-30.7-19.1-47.7c3.6-6.9,10.7-12,16.9-16.5c7.9-5.9,15.4-12.1,22.9-18.5c15.5-13.2,31.4-25.9,49.3-35.6C421,223.3,424.8,274.3,401.3,315.6z"/><path d="M251.2 267.6c-5.7-1.3-14.5-2.2-15.7-9.2-1.5-9.1 3.3-18.1 11.7-21.7 6.2-2.6 2.8-12.6-3.5-9.9-12.8 5.5-19.4 17.4-18.8 31.3.7 13.6 13.1 17.3 24.3 19.9C255.8 279.5 257.7 269.2 251.2 267.6zM284.1 235.5c-4-5.5-12.7.4-8.7 5.9 3.2 4.3 2.6 10.3 1.1 15.2-2 6.5 8.3 8.4 10.3 2C289.1 251.1 288.8 241.9 284.1 235.5z"/><path d="M397.4,109.8c-30.2-30.5-71.7-45.5-114.2-46.7c-48.7-1.3-95.2,15.8-134.9,43.3c-21.7,15-41.3,32.9-59.6,51.8c-3.3,5.3-6.8,10.6-9.9,15.9c-2.8,9.8-5.3,19.7-7,29.8c-2,12-3,24.1-3.2,36.2c-0.4,24.1,3.2,48.3,10.7,71.2c14.7,44.9,46.8,84.9,90.6,104c41.9,18.3,90.1,16.6,133.4,4.5c43.3-12.1,83.7-35.8,110.8-72.3C466,277.6,458.7,171.7,397.4,109.8z M342,393.9c-40.4,20.1-88,29.7-132.8,22.2c-22.2-3.7-43.5-12.2-61.8-25.5c-19.5-14.2-35-33.6-46.4-54.7c-23-42.8-26.7-94.4-16.8-141.3c1.6-7.7,3.8-15.3,6.1-22.8c32.7-34.8,70-66.6,114.9-84.3c42.8-16.8,93.1-19.7,136.2-2.3c81.7,32.9,115.3,133.8,86.8,213.8C413.4,340.8,381.5,374.2,342,393.9z"/><path d="M461.5,122.2c-27-44-71-76.2-119.7-92.4c-25.9-8.6-52.5-12.6-79.8-11.3c-27.9,1.3-55.6,8.2-81.2,19.3c-40.4,17.5-73.8,45.9-105.5,76c-9.2,14-21.1,26.2-29.2,40.9c-4.3,7.8-7.8,15.9-11,24.1c-0.1,0.5-0.2,0.9-0.3,1.4c-0.6,1.6-1.2,3.1-1.9,4.6c-0.5,2.1-1,4.2-1.6,6.3c0,1.6-0.1,3.2-0.3,4.9c0.2,0.2,0.4,0.5,0.6,0.7c-1.8,11.1-3,22.4-3.7,33.6c-1.8,29.1,1.2,57.8,8.5,86c12.9,49.6,40.5,97.6,82.9,127.6c89.1,63.2,217.4,28.8,294.8-37.4c40.4-34.5,68.4-81.2,77.3-133.8C500.4,221,488.9,166.7,461.5,122.2z M475.9,294.9c-14.4,50.9-49.5,93.1-92.9,122.3c-46,31-102,50-157.7,49.5c-25.4-0.2-50.8-5.8-74-16.4c-23.4-10.7-43.4-27.2-59.8-46.9c-34.5-41.5-52.2-97-53.4-150.5c-0.4-18.5,1.3-37.1,4.2-55.3c1-5.9,2.2-11.8,3.5-17.7c2.9-7.1,7.4-13.8,11-20.6c3.6-6.9,7-13.9,11.2-20.5c1.7-2.7,3.7-5.2,5.3-8c0.2-0.4,0.5-0.8,0.7-1.2c1.5-1.4,3-2.9,4.5-4.3c1.1-0.5,1.9-1.3,2.3-2.2c30.7-29.3,63-57.1,102-74.7c25.8-11.6,53.6-18.2,81.8-19.5c27.2-1.2,54.3,3.6,79.9,12.9c48.8,17.7,90.5,52.2,115.1,98.1C484.9,187.1,490.5,243.4,475.9,294.9z"/></svg>