<svg xmlns="http://www.w3.org/2000/svg" width="48" height="48" viewBox="0 0 48 48"><path fill="#d38e05" d="M42,29c-0.552,0-1-0.448-1-1v-8c0-0.552,0.448-1,1-1h3c0.552,0,1,0.448,1,1v8c0,0.552-0.448,1-1,1H42	z"/><path fill="#9e9e9e" d="M10,2h28v44H10V2z"/><path fill="#eee" d="M40,24c0,8.838-7.162,16-16,16S8,32.838,8,24S15.163,8,24,8S40,15.163,40,24z"/><path fill="#90a4ae" d="M23,39.95c0.332,0.02,0.662,0.05,1,0.05s0.668-0.03,1-0.05V36h-2V39.95z M36,25h3.95	c0.02-0.332,0.05-0.662,0.05-1s-0.03-0.668-0.05-1H36V25z M8.05,25H12v-2H8.05C8.03,23.332,8,23.662,8,24S8.03,24.668,8.05,25z"/><path fill="#90a4ae" d="M23,8.05C23.332,8.03,23.662,8,24,8s0.668,0.03,1,0.05V12h-2V8.05z"/><path fill="#9c27b0" d="M22.388,26.859c0-0.875,0.138-1.43,0.414-2.099c0.277-0.67,0.783-1.33,1.521-1.98	c0.736-0.648,1.227-1.178,1.472-1.586c0.244-0.408,0.365-0.838,0.365-1.291c0-1.365-0.635-2.047-1.904-2.047	c-0.603,0-1.084,0.184-1.446,0.551c-0.362,0.368-0.552,0.875-0.568,1.521H18.7c0.016-1.541,0.519-2.748,1.508-3.621	C21.196,15.437,22.546,15,24.255,15c1.726,0,3.064,0.414,4.018,1.242c0.95,0.827,1.427,1.994,1.427,3.504	c0,0.687-0.154,1.334-0.464,1.943c-0.31,0.61-0.851,1.286-1.624,2.029l-0.988,0.932c-0.619,0.59-0.973,1.279-1.063,2.071L25.512,27	h-3.124V26.859z M22.032,31.168c0-0.539,0.186-0.982,0.557-1.334c0.37-0.349,0.844-0.524,1.422-0.524s1.052,0.176,1.422,0.524	c0.371,0.352,0.557,0.795,0.557,1.334c0,0.529-0.182,0.968-0.544,1.313C25.083,32.826,24.604,33,24.011,33s-1.072-0.174-1.436-0.52	C22.214,32.136,22.032,31.697,22.032,31.168z"/><path fill="#ffca28" d="M24,9c8.271,0,15,6.729,15,15s-6.729,15-15,15S9,32.271,9,24S15.729,9,24,9 M24,5	C13.508,5,5,13.508,5,24s8.508,19,19,19s19-8.508,19-19S34.492,5,24,5L24,5z"/></svg>