<svg xmlns="http://www.w3.org/2000/svg" width="48" height="48" viewBox="0 0 48 48"><path fill="#7cb342" d="M38,30H10L5,44h38L38,30z"/><path fill="#ff3d00" d="M24,4c-6.627,0-12,5.3-12,11.836C12,23,24,38,24,38s12-15,12-22.164C36,9.3,30.627,4,24,4z"/><path fill="#f5f5f5" d="M22.188,21.859c0-1.13,0.138-1.43,0.414-2.099c0.277-0.67,0.783-1.33,1.521-1.98	c0.736-0.648,1.227-1.178,1.472-1.586c0.244-0.408,0.365-0.838,0.365-1.291c0-1.365-0.635-2.047-1.904-2.047	c-0.603,0-1.084,0.184-1.446,0.551c-0.362,0.368-0.552,0.875-0.568,1.521H18.5c0.016-1.541,0.519-2.748,1.508-3.621	C20.996,10.437,22.346,10,24.055,10c1.726,0,3.064,0.414,4.018,1.242c0.95,0.827,1.427,1.994,1.427,3.504	c0,0.687-0.154,1.334-0.464,1.943c-0.31,0.61-0.851,1.286-1.624,2.029l-0.988,0.932c-0.619,0.59-0.973,1.279-1.063,2.071	l-0.002,0.263h-3.171V21.859z M21.891,26.168c0-0.539,0.127-0.982,0.498-1.334c0.37-0.349,0.844-0.524,1.422-0.524	s1.052,0.176,1.422,0.524c0.371,0.352,0.557,0.795,0.557,1.334c0,0.529-0.182,0.968-0.544,1.313C24.883,27.826,24.404,28,23.811,28	s-1.072-0.174-1.436-0.52C22.014,27.136,21.891,26.697,21.891,26.168z"/></svg>