<svg xmlns="http://www.w3.org/2000/svg" viewBox="0 0 26 26"><path d="M 15 1 C 13.355469 1 12 2.355469 12 4 L 11.09375 12.0625 C 9.898438 12.257813 9 13.242188 9 14.5 C 9 14.851563 9.0625 15.167969 9.1875 15.46875 C 3.964844 16.90625 3 21.171875 3 22 C 3 23 4 25 4 25 L 22 25 C 22 25 23 23 23 22 C 23 21.171875 22.035156 16.90625 16.8125 15.46875 C 16.9375 15.167969 17 14.851563 17 14.5 C 17 13.242188 16.101563 12.257813 14.90625 12.0625 L 14 4 C 14 3.445313 14.445313 3 15 3 L 22 3 L 22 1 Z M 21.03125 13.96875 L 19.96875 15.03125 L 22.96875 18.03125 L 24.03125 16.96875 Z M 13 17 C 14.101563 17 15 17.898438 15 19 C 15 20.101563 14.101563 21 13 21 C 11.898438 21 11 20.101563 11 19 C 11 17.898438 11.898438 17 13 17 Z"/></svg>