<svg xmlns="http://www.w3.org/2000/svg" width="48" height="48" viewBox="0 0 48 48"><path fill="#bf360c" d="M31,26.042h10v11.443H31V26.042z"/><path fill="#c5cae9" d="M39.125,36.667L39.125,36.667c0,0-1.849-0.261-3.125-0.261s-3.125,0.261-3.125,0.261S26,37.939,26,45	h20C46,37.966,39.125,36.667,39.125,36.667"/><path fill="#ff9800" d="M36,39.792c-1.199,0-2.917-3.125-2.917-3.125V32.5h5.833v4.167	C38.917,36.667,37.199,39.792,36,39.792"/><path fill="#ffb74d" d="M41.833,30c0,3.107-2.727,5.833-5.833,5.833c-3.107,0-5.833-2.727-5.833-5.833v-5	c0-3.107,11.667-4.772,11.667,0V30z"/><path fill="#c5cae9" d="M36,42.5c2.96,0,4.222-3.277,4.536-5.389c-0.823-0.327-1.411-0.444-1.411-0.444	s-0.086-0.012-0.208-0.028v0.028c0,0-0.499,4.167-2.917,4.167s-2.917-4.167-2.917-4.167v-0.028	c-0.122,0.016-0.208,0.028-0.208,0.028s-0.588,0.114-1.412,0.44C31.777,39.219,33.038,42.5,36,42.5z"/><path fill="#784719" d="M37.667,29.167c0-0.459,0.373-0.833,0.833-0.833s0.833,0.374,0.833,0.833	C39.333,29.626,38.96,30,38.5,30S37.667,29.626,37.667,29.167 M32.667,29.167C32.667,29.626,33.04,30,33.5,30	s0.833-0.374,0.833-0.833c0-0.459-0.373-0.833-0.833-0.833S32.667,28.708,32.667,29.167"/><path fill="#ff5722" d="M36,20c-3.797,0-9,1.741-9,14.167l4,3.317v-9.15l7.5-4.167L41,27.5v10l4-4.167	c0-2.516-0.046-12.083-6.5-12.083L37.667,20H36z"/><path fill="#ffcc80" d="M18.667,29.583c0,0.69-0.56,1.25-1.25,1.25c-0.691,0-1.25-0.56-1.25-1.25	c0-0.69,0.559-1.25,1.25-1.25C18.107,28.333,18.667,28.893,18.667,29.583 M7.833,29.583c0-0.69-0.56-1.25-1.25-1.25	s-1.25,0.56-1.25,1.25c0,0.69,0.56,1.25,1.25,1.25S7.833,30.273,7.833,29.583"/><path fill="#ff9800" d="M15.333,36.667c0,0,0,3.333-3.333,3.333s-3.333-3.333-3.333-3.333"/><path fill="#bbdefb" d="M15.125,36.667L15.125,36.667L12,37.308l-3.125-0.642C8.875,36.667,2,37.939,2,45h20	C22,37.966,15.125,36.667,15.125,36.667"/><path fill="#ff9800" d="M12,40c-3.333,0-3.333-3.333-3.333-3.333v-3.333h6.667v3.333C15.333,36.667,15.333,40,12,40z"/><path fill="#ffb74d" d="M17.833,26.4c0-4.899-11.667-3.19-11.667,0v3.659c0,3.187,2.611,5.774,5.833,5.774	c3.222,0,5.833-2.587,5.833-5.775V26.4z"/><path fill="#bbdefb" d="M12,41.667c2.549,0,4.648-1.91,4.957-4.375c-0.737-0.332-1.336-0.506-1.628-0.578	C15.302,38.532,13.825,40,12,40s-3.303-1.468-3.328-3.287c-0.294,0.072-0.892,0.244-1.629,0.573	C7.347,39.754,9.449,41.667,12,41.667z"/><path fill="#795548" d="M12,20c-4.05,0-6.667,3.594-6.667,6.81v1.523L7,30v-3.333l7.667-2.5l2.333,2.5V30l1.667-1.667v-0.674	c0-2.682-0.692-5.669-4-6.327L13.999,20H12z"/><path fill="#784719" d="M13.667,29.167c0-0.459,0.373-0.833,0.833-0.833s0.833,0.374,0.833,0.833	C15.333,29.626,14.96,30,14.5,30S13.667,29.626,13.667,29.167 M8.667,29.167C8.667,29.626,9.04,30,9.5,30s0.833-0.374,0.833-0.833	c0-0.459-0.373-0.833-0.833-0.833S8.667,28.708,8.667,29.167"/><path fill="#e57373" d="M45,10.577l-0.001-5.152C45,4.642,44.337,4.004,43.521,4.004L41,4.005v7.993L43.521,12	C44.338,11.999,44.999,11.364,45,10.577"/><path fill="#ff9800" d="M40.007,11.999L9,11.999l0-7.994l31.007-0.001L40.007,11.999z"/><path fill="#b0bec5" d="M37,4h4v8h-4V4z"/><path fill="#ffc107" d="M8.999,4.004l-6.7,3.997L9,11.999L8.999,4.004z"/><path fill="#37474f" d="M5.982,5.807L2.299,8.002l3.682,2.194L5.982,5.807z"/><path fill="#ff9800" d="M36,40.833c2.417,0,2.917-4.167,2.917-4.167s-1.553,2.5-2.917,2.5s-2.917-2.5-2.917-2.5	S33.583,40.833,36,40.833"/><path fill="#ffb300" d="M31.5,11.746c0-2.622-1.15-4.173-2.114-5.012C28.06,5.583,26.267,5,24.055,5	c-2.202,0-4.008,0.608-5.369,1.806c-1.409,1.244-2.164,3.007-2.186,5.101l-0.001,0.092l14.986,0	C31.489,11.914,31.5,11.831,31.5,11.746z"/><path fill="#9c27b0" d="M22.188,20c0-1.677,0.138-2.571,0.414-3.24c0.277-0.67,0.783-1.33,1.521-1.98	c0.736-0.648,1.227-1.178,1.472-1.586c0.244-0.408,0.365-0.838,0.365-1.291c0-1.365-0.635-2.047-1.904-2.047	c-0.603,0-1.084,0.184-1.446,0.551c-0.362,0.368-0.552,0.947-0.568,1.593H18.5c0.016-1.541,0.519-2.82,1.508-3.693	C20.996,7.437,22.346,7,24.055,7c1.726,0,3.064,0.414,4.018,1.242c0.95,0.827,1.427,1.994,1.427,3.504	c0,0.687-0.154,1.334-0.464,1.943c-0.31,0.61-0.851,1.286-1.624,2.029l-0.988,0.932c-0.619,0.59-0.973,1.279-1.063,2.071L25.312,20	H22.188z M21.832,23.168c0-0.539,0.186-0.982,0.557-1.334c0.37-0.349,0.844-0.524,1.422-0.524s1.052,0.176,1.422,0.524	c0.371,0.352,0.557,0.795,0.557,1.334c0,0.529-0.182,0.968-0.544,1.313C24.883,24.826,24.404,25,23.811,25s-1.072-0.174-1.436-0.52	C22.014,24.136,21.832,23.697,21.832,23.168z"/></svg>