<svg xmlns="http://www.w3.org/2000/svg" viewBox="0 0 64 64"><linearGradient id="T6lEquk8zbcRZJpeTwerqa" x1="32" x2="32" y1="45.204" y2="68.979" gradientUnits="userSpaceOnUse" spreadMethod="reflect"><stop offset="0" stop-color="#e9ce8e"/><stop offset="0" stop-color="#e9ce8e"/><stop offset=".241" stop-color="#f1dca9"/><stop offset=".521" stop-color="#f9e8c0"/><stop offset=".782" stop-color="#fdefcf"/><stop offset="1" stop-color="#fff2d4"/></linearGradient><path fill="url(#T6lEquk8zbcRZJpeTwerqa)" d="M62,60h-6.5c-0.828,0-1.5-0.672-1.5-1.5s0.672-1.5,1.5-1.5H58 c0.911,0,1.762-0.577,1.999-1.456c0.358-1.33-0.65-2.544-1.927-2.544h-52c-0.911,0-1.762,0.577-1.999,1.456 C3.715,55.786,4.723,57,6,57h1.5C8.328,57,9,57.672,9,58.5S8.328,60,7.5,60H2.072c-0.911,0-1.762,0.577-1.999,1.456 C-0.285,62.786,0.723,64,2,64h22.5h4c0.828,0,1.5-0.672,1.5-1.5S29.328,61,28.5,61c-0.825,0-1.5-0.675-1.5-1.5s0.675-1.5,1.5-1.5h6 c0.825,0,1.5,0.675,1.5,1.5S35.325,61,34.5,61c-0.828,0-1.5,0.672-1.5,1.5s0.672,1.5,1.5,1.5h4h23.428 c0.911,0,1.762-0.577,1.999-1.456C64.285,61.214,63.277,60,62,60z"/><linearGradient id="T6lEquk8zbcRZJpeTwerqb" x1="27" x2="27" y1="39" y2="25" gradientUnits="userSpaceOnUse" spreadMethod="reflect"><stop offset="0" stop-color="#ffc662"/><stop offset=".004" stop-color="#ffc662"/><stop offset=".609" stop-color="#ffc582"/><stop offset="1" stop-color="#ffc491"/><stop offset="1" stop-color="#ffc491"/></linearGradient><path fill="url(#T6lEquk8zbcRZJpeTwerqb)" d="M31.5,39c-0.64,0-1.28-0.244-1.768-0.732l-9-9c-0.977-0.976-0.977-2.559,0-3.535 c0.976-0.977,2.56-0.977,3.535,0l9,9c0.977,0.976,0.977,2.559,0,3.535C32.78,38.756,32.14,39,31.5,39z"/><linearGradient id="T6lEquk8zbcRZJpeTwerqc" x1="9" x2="9" y1="39" y2="25" gradientUnits="userSpaceOnUse" spreadMethod="reflect"><stop offset="0" stop-color="#ffc662"/><stop offset=".004" stop-color="#ffc662"/><stop offset=".609" stop-color="#ffc582"/><stop offset="1" stop-color="#ffc491"/><stop offset="1" stop-color="#ffc491"/></linearGradient><path fill="url(#T6lEquk8zbcRZJpeTwerqc)" d="M4.5,39c0.64,0,1.28-0.244,1.768-0.732l9-9c0.977-0.976,0.977-2.559,0-3.535 c-0.976-0.977-2.56-0.977-3.535,0l-9,9c-0.977,0.976-0.977,2.559,0,3.535C3.22,38.756,3.86,39,4.5,39z"/><linearGradient id="T6lEquk8zbcRZJpeTwerqd" x1="18" x2="18" y1="20" y2="6" gradientUnits="userSpaceOnUse" spreadMethod="reflect"><stop offset="0" stop-color="#ffc662"/><stop offset=".004" stop-color="#ffc662"/><stop offset=".609" stop-color="#ffc582"/><stop offset="1" stop-color="#ffc491"/><stop offset="1" stop-color="#ffc491"/></linearGradient><path fill="url(#T6lEquk8zbcRZJpeTwerqd)" d="M18 6A7 7 0 1 0 18 20A7 7 0 1 0 18 6Z"/><linearGradient id="T6lEquk8zbcRZJpeTwerqe" x1="18" x2="18" y1="5" y2="19" gradientUnits="userSpaceOnUse" spreadMethod="reflect"><stop offset="0" stop-color="#ff8b67"/><stop offset=".847" stop-color="#ffa76a"/><stop offset="1" stop-color="#ffad6b"/><stop offset="1" stop-color="#ffad6b"/></linearGradient><path fill="url(#T6lEquk8zbcRZJpeTwerqe)" d="M25,5h-8.5C12.91,5,10,7.91,10,11.5l0,5.378c0,0.997,0.675,1.928,1.658,2.093 C12.907,19.181,14,18.212,14,17v-3c0-2.209,1.791-4,4-4h4c2.222,0,4.036-1.836,3.999-4.067C25.991,5.407,25.526,5,25,5z"/><linearGradient id="T6lEquk8zbcRZJpeTwerqf" x1="-192" x2="-192" y1="39" y2="25" gradientTransform="matrix(-1 0 0 1 -156 0)" gradientUnits="userSpaceOnUse" spreadMethod="reflect"><stop offset="0" stop-color="#ffc662"/><stop offset=".004" stop-color="#ffc662"/><stop offset=".609" stop-color="#ffc582"/><stop offset="1" stop-color="#ffc491"/><stop offset="1" stop-color="#ffc491"/></linearGradient><path fill="url(#T6lEquk8zbcRZJpeTwerqf)" d="M31.5,39c0.64,0,1.28-0.244,1.768-0.732l9-9c0.977-0.976,0.977-2.559,0-3.535 c-0.976-0.977-2.56-0.977-3.535,0l-9,9c-0.977,0.976-0.977,2.559,0,3.535C30.22,38.756,30.86,39,31.5,39z"/><linearGradient id="T6lEquk8zbcRZJpeTwerqg" x1="-210" x2="-210" y1="39" y2="25" gradientTransform="matrix(-1 0 0 1 -156 0)" gradientUnits="userSpaceOnUse" spreadMethod="reflect"><stop offset="0" stop-color="#ffc662"/><stop offset=".004" stop-color="#ffc662"/><stop offset=".609" stop-color="#ffc582"/><stop offset="1" stop-color="#ffc491"/><stop offset="1" stop-color="#ffc491"/></linearGradient><path fill="url(#T6lEquk8zbcRZJpeTwerqg)" d="M58.5,39c-0.64,0-1.28-0.244-1.768-0.732l-9-9c-0.977-0.976-0.977-2.559,0-3.535 c0.976-0.977,2.56-0.977,3.535,0l9,9c0.977,0.976,0.977,2.559,0,3.535C59.78,38.756,59.14,39,58.5,39z"/><linearGradient id="T6lEquk8zbcRZJpeTwerqh" x1="-201" x2="-201" y1="20" y2="6" gradientTransform="matrix(-1 0 0 1 -156 0)" gradientUnits="userSpaceOnUse" spreadMethod="reflect"><stop offset="0" stop-color="#ffc662"/><stop offset=".004" stop-color="#ffc662"/><stop offset=".609" stop-color="#ffc582"/><stop offset="1" stop-color="#ffc491"/><stop offset="1" stop-color="#ffc491"/></linearGradient><path fill="url(#T6lEquk8zbcRZJpeTwerqh)" d="M45 6A7 7 0 1 0 45 20A7 7 0 1 0 45 6Z"/><linearGradient id="T6lEquk8zbcRZJpeTwerqi" x1="-201" x2="-201" y1="30.282" y2="59.682" gradientTransform="matrix(-1 0 0 1 -156 0)" gradientUnits="userSpaceOnUse" spreadMethod="reflect"><stop offset="0" stop-color="#42d778"/><stop offset=".996" stop-color="#34b171"/><stop offset="1" stop-color="#34b171"/></linearGradient><path fill="url(#T6lEquk8zbcRZJpeTwerqi)" d="M45.941,22.062c3.523,0.466,6.059,3.647,6.059,7.2l0,9.237V43v14.412 c0,1.139-0.721,2.202-1.821,2.497C48.516,60.355,47,59.096,47,57.5V45c0-1.105-0.895-2-2-2h0c-1.105,0-2,0.895-2,2v12.412 c0,1.139-0.721,2.202-1.821,2.497C39.516,60.355,38,59.096,38,57.5V43v-4.5V29C38,24.84,41.677,21.498,45.941,22.062z"/><linearGradient id="T6lEquk8zbcRZJpeTwerqj" x1="-201" x2="-201" y1="5" y2="19" gradientTransform="matrix(-1 0 0 1 -156 0)" gradientUnits="userSpaceOnUse" spreadMethod="reflect"><stop offset="0" stop-color="#ff8b67"/><stop offset=".847" stop-color="#ffa76a"/><stop offset="1" stop-color="#ffad6b"/><stop offset="1" stop-color="#ffad6b"/></linearGradient><path fill="url(#T6lEquk8zbcRZJpeTwerqj)" d="M38,5h8.5c3.59,0,6.5,2.91,6.5,6.5l0,5.378c0,0.997-0.675,1.928-1.658,2.093 C50.093,19.181,49,18.212,49,17v-3c0-2.209-1.791-4-4-4h-4c-2.222,0-4.036-1.836-3.999-4.067C37.009,5.407,37.474,5,38,5z"/><linearGradient id="T6lEquk8zbcRZJpeTwerqk" x1="18" x2="18" y1="17.657" y2="47.057" gradientUnits="userSpaceOnUse" spreadMethod="reflect"><stop offset="0" stop-color="#6af1fb"/><stop offset=".285" stop-color="#58e0f4"/><stop offset=".858" stop-color="#28b3e2"/><stop offset="1" stop-color="#1ba7dd"/><stop offset="1" stop-color="#1ba7dd"/></linearGradient><path fill="url(#T6lEquk8zbcRZJpeTwerqk)" d="M17.059,22.062C13.536,22.529,11,25.709,11,29.263l0,9.237V43l0,14.412 c0,1.139,0.721,2.202,1.821,2.497C14.484,60.355,16,59.096,16,57.5V45c0-1.105,0.895-2,2-2h0c1.105,0,2,0.895,2,2l0,12.412 c0,1.139,0.721,2.202,1.821,2.497C23.484,60.355,25,59.096,25,57.5V43v-4.5V29C25,24.84,21.323,21.498,17.059,22.062z"/></svg>