<svg xmlns="http://www.w3.org/2000/svg" viewBox="0 0 26 26"><path d="M 13 -0.03125 C 12.199219 -0.03125 11.386719 0.300781 10.78125 0.90625 L 0.90625 10.78125 C -0.304688 11.992188 -0.304688 14.007813 0.90625 15.21875 L 10.78125 25.09375 C 11.992188 26.304688 14.007813 26.304688 15.21875 25.09375 L 25.09375 15.21875 C 26.304688 14.007813 26.304688 11.992188 25.09375 10.78125 L 15.21875 0.90625 C 14.613281 0.300781 13.800781 -0.03125 13 -0.03125 Z M 13 2.03125 C 13.300781 2.03125 13.585938 2.117188 13.78125 2.3125 L 23.6875 12.21875 C 24.074219 12.605469 24.074219 13.394531 23.6875 13.78125 L 13.78125 23.6875 C 13.394531 24.074219 12.605469 24.074219 12.21875 23.6875 L 11.96875 23.46875 L 2.3125 13.78125 C 1.925781 13.394531 1.925781 12.605469 2.3125 12.21875 L 12.21875 2.3125 C 12.414063 2.117188 12.699219 2.03125 13 2.03125 Z M 11 4.5 C 10.800781 4.5 10.605469 7.792969 10.90625 8.09375 C 11.207031 8.394531 12.90625 10.40625 12.90625 10.40625 L 13.1875 11.34375 C 13.105469 11.378906 13.046875 11.429688 13 11.40625 C 12.800781 11.304688 12.09375 10.707031 11.59375 10.40625 C 11.09375 10.105469 9.886719 10.007813 9.6875 10.40625 C 9.488281 10.707031 9.988281 11.699219 10.6875 12 C 11.386719 12.300781 11.8125 12.09375 11.8125 12.09375 C 11.8125 12.09375 9.988281 15.613281 7.6875 15.8125 L 11.6875 20 C 13.6875 19 14 15.8125 14 15.8125 C 14 15.8125 14.695313 16.492188 16.59375 16.09375 C 17.09375 15.992188 17.585938 16.59375 18.1875 16.09375 C 18.6875 15.59375 19 15.699219 19 15.5 C 19 15.398438 19.210938 14.699219 18.8125 14.5 C 17.613281 13.800781 16 11.613281 15 11.3125 C 14.8125 11.242188 14.65625 11.183594 14.5 11.15625 L 14 9.6875 C 14 9.6875 14.699219 7.292969 14.5 7.09375 C 14.300781 6.894531 13.699219 9.507813 13.5 9.40625 C 13.300781 9.207031 13.011719 9.011719 12.8125 8.8125 C 12.613281 8.613281 12.886719 5.195313 12.6875 5.09375 C 12.488281 4.992188 12.09375 8.40625 12.09375 8.40625 L 11.40625 7.6875 C 11.007813 7.289063 11.199219 4.5 11 4.5 Z"/></svg>