<svg xmlns="http://www.w3.org/2000/svg" viewBox="0 0 100 100"><path fill="#c7ede6" d="M88.564,55.879c0.3-0.616,0.566-1.264,0.796-1.943c2.633-7.77-1.349-17.078-9.733-19.325c-0.906-11.384-8.906-19.193-17.941-20.526c-10.341-1.525-19.814,5.044-22.966,15.485c-3.799-1.346-7.501-1.182-10.99,0.857c-1.583,0.732-3.031,1.812-4.33,3.233c-1.907,2.086-3.147,4.719-3.652,7.495c-0.748,0.118-1.483,0.236-2.176,0.484c-4.04,1.449-6.589,4.431-7.288,8.923c-0.435,2.797,0.443,5.587,0.933,6.714c1.935,4.455,6.422,6.98,10.981,6.312c0.227-0.033,0.557,0.069,0.752,0.233c0.241,7.12,3.698,13.417,8.884,17.014c8.321,5.772,19.027,3.994,25.781-3.921c2.894,2.96,6.338,4.398,10.384,3.876c4.023-0.519,7.147-2.739,9.426-6.349c1.053,0.283,2.051,0.691,3.083,0.804c4.042,0.442,7.324-1.165,9.732-4.8c0.922-1.391,1.793-3.194,1.793-6.354C92.035,60.836,90.741,57.869,88.564,55.879z"/><path fill="#fff" d="M18.229 47.915H8.199c-.276 0-.5-.224-.5-.5s.224-.5.5-.5h10.03c.276 0 .5.224.5.5S18.505 47.915 18.229 47.915zM21.111 47.915h-1.446c-.276 0-.5-.224-.5-.5s.224-.5.5-.5h1.446c.276 0 .5.224.5.5S21.387 47.915 21.111 47.915zM25.165 47.915h-2.546c-.276 0-.5-.224-.5-.5s.224-.5.5-.5h2.546c.276 0 .5.224.5.5S25.441 47.915 25.165 47.915zM25.165 49.78h-9.616c-.276 0-.5-.224-.5-.5s.224-.5.5-.5h9.616c.276 0 .5.224.5.5S25.441 49.78 25.165 49.78zM13.817 49.78h-.58c-.276 0-.5-.224-.5-.5s.224-.5.5-.5h.58c.276 0 .5.224.5.5S14.093 49.78 13.817 49.78zM11.44 49.78H9.984c-.276 0-.5-.224-.5-.5s.224-.5.5-.5h1.456c.276 0 .5.224.5.5S11.716 49.78 11.44 49.78zM20.576 46.05h-5.027c-.276 0-.5-.224-.5-.5s.224-.5.5-.5h5.027c.276 0 .5.224.5.5S20.852 46.05 20.576 46.05zM20.576 44.185h-1.257c-.276 0-.5-.224-.5-.5s.224-.5.5-.5h1.257c.276 0 .5.224.5.5S20.852 44.185 20.576 44.185zM17.307 51.645h-1.759c-.276 0-.5-.224-.5-.5s.224-.5.5-.5h1.759c.276 0 .5.224.5.5S17.584 51.645 17.307 51.645zM71.407 21.638h-10.03c-.276 0-.5-.224-.5-.5s.224-.5.5-.5h10.03c.276 0 .5.224.5.5S71.683 21.638 71.407 21.638zM74.289 21.638h-1.446c-.276 0-.5-.224-.5-.5s.224-.5.5-.5h1.446c.276 0 .5.224.5.5S74.565 21.638 74.289 21.638zM78.343 21.638h-2.546c-.276 0-.5-.224-.5-.5s.224-.5.5-.5h2.546c.276 0 .5.224.5.5S78.62 21.638 78.343 21.638zM76.317 17.909h-9.616c-.276 0-.5-.224-.5-.5s.224-.5.5-.5h9.616c.276 0 .5.224.5.5S76.593 17.909 76.317 17.909zM64.969 17.909h-.58c-.276 0-.5-.224-.5-.5s.224-.5.5-.5h.58c.276 0 .5.224.5.5S65.246 17.909 64.969 17.909zM62.592 17.909h-1.456c-.276 0-.5-.224-.5-.5s.224-.5.5-.5h1.456c.276 0 .5.224.5.5S62.869 17.909 62.592 17.909zM73.754 19.773h-5.028c-.276 0-.5-.224-.5-.5s.224-.5.5-.5h5.028c.276 0 .5.224.5.5S74.031 19.773 73.754 19.773z"/><path fill="#fff" d="M73.754 17.909h-1.258c-.276 0-.5-.224-.5-.5s.224-.5.5-.5h1.258c.276 0 .5.224.5.5S74.031 17.909 73.754 17.909zM67.271 19.773h-1.759c-.276 0-.5-.224-.5-.5s.224-.5.5-.5h1.759c.276 0 .5.224.5.5S67.547 19.773 67.271 19.773z"/><g><path fill="#fdfcee" d="M71.895,67.464H34.538c-2.295,0-4.172-1.877-4.172-4.172V35.68c0-2.295,1.877-4.172,4.172-4.172h37.357c2.295,0,4.172,1.877,4.172,4.172v27.612C76.067,65.587,74.19,67.464,71.895,67.464z"/><path fill="#472b29" d="M71.895,68.164H34.539c-2.687,0-4.873-2.186-4.873-4.872V35.681c0-2.687,2.187-4.873,4.873-4.873h37.356c2.687,0,4.872,2.186,4.872,4.873v27.612C76.767,65.979,74.582,68.164,71.895,68.164z M34.539,32.208c-1.915,0-3.473,1.558-3.473,3.472v27.612c0,1.915,1.558,3.472,3.473,3.472h37.356c1.914,0,3.472-1.557,3.472-3.472V35.681c0-1.915-1.558-3.472-3.472-3.472H34.539z"/><path fill="#cdcbbd" d="M71.243,31.935H35.451c-2.534,0-4.607,1.962-4.607,4.36v2.18h44.75v-2.18C75.594,33.897,73.777,31.935,71.243,31.935z"/><path fill="#472b29" d="M66.518 38.94h-4.093c-.207 0-.375-.168-.375-.375s.168-.375.375-.375h4.093c.207 0 .375.168.375.375S66.725 38.94 66.518 38.94zM60.379 38.94H30.366c-.207 0-.375-.168-.375-.375s.168-.375.375-.375h30.014c.207 0 .375.168.375.375S60.586 38.94 60.379 38.94zM76.067 38.94h-6.139c-.207 0-.375-.168-.375-.375s.168-.375.375-.375h6.139c.207 0 .375.168.375.375S76.274 38.94 76.067 38.94z"/><path fill="#ee3e54" d="M36.079 33.861A1.344 1.344 0 1 0 36.079 36.549A1.344 1.344 0 1 0 36.079 33.861Z"/><path fill="#472b29" d="M36.079,36.924c-0.947,0-1.719-0.771-1.719-1.719s0.771-1.719,1.719-1.719c0.948,0,1.72,0.771,1.72,1.719S37.027,36.924,36.079,36.924z M36.079,34.236c-0.534,0-0.969,0.435-0.969,0.969c0,0.535,0.435,0.969,0.969,0.969c0.535,0,0.97-0.435,0.97-0.969C37.048,34.67,36.614,34.236,36.079,34.236z"/><g><path fill="#f1bc19" d="M40.783 33.861A1.344 1.344 0 1 0 40.783 36.549A1.344 1.344 0 1 0 40.783 33.861Z"/><path fill="#472b29" d="M40.784,36.924c-0.948,0-1.72-0.771-1.72-1.719s0.771-1.719,1.72-1.719c0.947,0,1.719,0.771,1.719,1.719S41.731,36.924,40.784,36.924z M40.784,34.236c-0.535,0-0.97,0.435-0.97,0.969c0,0.535,0.435,0.969,0.97,0.969c0.534,0,0.969-0.435,0.969-0.969C41.752,34.67,41.318,34.236,40.784,34.236z"/></g><g><path fill="#88ae45" d="M45.488 33.861A1.344 1.344 0 1 0 45.488 36.549A1.344 1.344 0 1 0 45.488 33.861Z"/><path fill="#472b29" d="M45.488,36.924c-0.947,0-1.719-0.771-1.719-1.719s0.771-1.719,1.719-1.719c0.948,0,1.72,0.771,1.72,1.719S46.436,36.924,45.488,36.924z M45.488,34.236c-0.534,0-0.969,0.435-0.969,0.969c0,0.535,0.435,0.969,0.969,0.969c0.535,0,0.97-0.435,0.97-0.969C46.458,34.67,46.023,34.236,45.488,34.236z"/></g><g><path fill="#88ae45" d="M73.572 62.991L68.126 62.991 64.411 57.736 60.507 62.991 55.037 62.991 61.824 54.455 56.344 46.991 61.869 46.991 64.436 51.05 67.171 46.991 72.793 46.991 67.048 54.455 73.572 62.991"/><path fill="#472b29" d="M73.573,63.316h-5.447c-0.105,0-0.204-0.051-0.266-0.138l-3.456-4.888l-3.636,4.895c-0.062,0.083-0.158,0.131-0.261,0.131h-5.47c-0.125,0-0.238-0.072-0.293-0.184c-0.054-0.112-0.039-0.246,0.039-0.343l6.631-8.341l-5.332-7.264c-0.073-0.099-0.084-0.23-0.028-0.339s0.168-0.178,0.29-0.178h5.524c0.111,0,0.215,0.057,0.274,0.151l2.302,3.638l2.456-3.646c0.061-0.09,0.161-0.144,0.27-0.144h5.622c0.124,0,0.237,0.07,0.292,0.182s0.041,0.244-0.034,0.342l-5.593,7.267l6.373,8.337c0.075,0.098,0.088,0.23,0.033,0.341S73.697,63.316,73.573,63.316z M68.293,62.665h4.622l-6.125-8.013c-0.09-0.117-0.09-0.279,0-0.396l5.342-6.941h-4.789l-2.638,3.915c-0.062,0.091-0.147,0.15-0.274,0.144c-0.109-0.002-0.211-0.059-0.27-0.151l-2.472-3.907h-4.704l5.1,6.947c0.087,0.118,0.084,0.28-0.007,0.395l-6.367,8.008h4.633l3.806-5.123c0.062-0.083,0.186-0.113,0.265-0.131c0.104,0.001,0.201,0.053,0.262,0.138L68.293,62.665z"/></g><path fill="#472b29" d="M53.242,63.135h-3.259c-0.207,0-0.375-0.168-0.375-0.375s0.168-0.375,0.375-0.375h3.259c0.207,0,0.375,0.168,0.375,0.375S53.449,63.135,53.242,63.135z"/><path fill="#472b29" d="M51.859,63.135H30.366c-0.207,0-0.375-0.168-0.375-0.375s0.168-0.375,0.375-0.375h21.493c0.207,0,0.375,0.168,0.375,0.375S52.066,63.135,51.859,63.135z"/></g><g><path fill="#fdfcef" d="M34.565,68.788c0,0,11.691,0,11.762,0c2.7,0,4.888-2.189,4.888-4.889c0-2.355-1.666-4.321-3.884-4.784c0.026-0.206,0.043-0.415,0.043-0.628c0-2.796-2.267-5.063-5.063-5.063c-1.651,0-3.113,0.794-4.037,2.017c-0.236-3.113-3.017-5.514-6.27-5.116c-2.379,0.291-4.346,2.13-4.784,4.486c-0.14,0.756-0.126,1.489,0.014,2.177c-0.638-0.687-1.546-1.119-2.557-1.119c-1.85,0-3.361,1.441-3.48,3.261c-0.84-0.186-1.754-0.174-2.717,0.188c-1.84,0.691-3.15,2.423-3.227,4.387c-0.109,2.789,2.12,5.085,4.885,5.085c0.21,0,0.948,0,1.118,0h10.151"/><path fill="#472b29" d="M46.327,69.288H34.565c-0.276,0-0.5-0.224-0.5-0.5s0.224-0.5,0.5-0.5h11.762c2.42,0,4.389-1.969,4.389-4.389c0-2.066-1.466-3.873-3.486-4.295c-0.254-0.053-0.426-0.292-0.394-0.55c0.022-0.187,0.039-0.375,0.039-0.567c0-2.516-2.047-4.563-4.562-4.563c-1.439,0-2.766,0.663-3.638,1.818c-0.126,0.166-0.344,0.238-0.54,0.179c-0.2-0.059-0.342-0.235-0.358-0.442c-0.104-1.377-0.778-2.671-1.85-3.549c-1.082-0.887-2.451-1.281-3.86-1.109c-2.166,0.265-3.956,1.943-4.354,4.081c-0.124,0.667-0.119,1.336,0.014,1.986c0.045,0.22-0.062,0.442-0.262,0.545c-0.197,0.102-0.442,0.061-0.595-0.104c-0.574-0.619-1.353-0.959-2.19-0.959c-1.569,0-2.879,1.227-2.981,2.793c-0.01,0.146-0.082,0.28-0.199,0.367c-0.116,0.087-0.269,0.118-0.407,0.088c-0.844-0.187-1.639-0.131-2.434,0.167c-1.669,0.626-2.836,2.209-2.902,3.938c-0.048,1.207,0.386,2.35,1.221,3.218c0.835,0.869,1.959,1.347,3.163,1.347h11.27c0.276,0,0.5,0.224,0.5,0.5s-0.224,0.5-0.5,0.5h-11.27c-1.479,0-2.858-0.587-3.884-1.654c-1.025-1.066-1.558-2.469-1.5-3.95c0.083-2.126,1.51-4.069,3.551-4.836c0.8-0.3,1.629-0.401,2.468-0.298c0.377-1.823,1.997-3.182,3.905-3.182c0.684,0,1.354,0.179,1.943,0.509c-0.001-0.385,0.035-0.772,0.107-1.159c0.476-2.562,2.62-4.573,5.215-4.891c1.686-0.208,3.32,0.267,4.615,1.328c1.004,0.823,1.716,1.951,2.038,3.193c1.012-0.916,2.319-1.425,3.714-1.425c3.067,0,5.562,2.496,5.562,5.563c0,0.083-0.002,0.167-0.007,0.249c2.254,0.672,3.848,2.777,3.848,5.164C51.715,66.871,49.298,69.288,46.327,69.288z"/><path fill="#fdfcef" d="M31.732,58.019c-1.808-0.119-3.365,1.13-3.476,2.789c-0.014,0.206-0.005,0.409,0.025,0.606c-0.349-0.394-0.865-0.661-1.458-0.7c-1.085-0.071-2.022,0.645-2.158,1.62c-0.197-0.054-0.403-0.09-0.616-0.104c-1.582-0.104-2.944,0.989-3.042,2.441"/><path fill="#472b29" d="M21.007,64.92c-0.006,0-0.011,0-0.017,0c-0.138-0.009-0.242-0.128-0.232-0.266c0.106-1.586,1.574-2.786,3.308-2.674c0.135,0.009,0.271,0.027,0.408,0.053c0.273-0.968,1.254-1.641,2.365-1.568c0.426,0.028,0.824,0.161,1.163,0.382c0.001-0.019,0.002-0.037,0.004-0.055c0.12-1.794,1.798-3.144,3.742-3.022c0.138,0.009,0.242,0.128,0.232,0.266c-0.008,0.132-0.118,0.233-0.249,0.233c-0.005,0-0.011,0-0.017,0c-1.647-0.111-3.107,1.037-3.211,2.557c-0.012,0.181-0.004,0.367,0.023,0.552c0.017,0.109-0.041,0.216-0.142,0.263c-0.102,0.046-0.22,0.022-0.293-0.061c-0.317-0.358-0.786-0.583-1.287-0.616c-0.955-0.058-1.774,0.555-1.893,1.405c-0.011,0.071-0.051,0.134-0.11,0.174c-0.06,0.04-0.135,0.051-0.203,0.033c-0.189-0.051-0.38-0.084-0.567-0.096c-1.448-0.104-2.688,0.896-2.776,2.208C21.248,64.819,21.138,64.92,21.007,64.92z"/><g><path fill="#fdfcef" d="M48.306,59.688c-1.699-0.801-3.664-0.234-4.389,1.267c-0.09,0.186-0.157,0.379-0.201,0.574"/><path fill="#472b29" d="M43.716,61.778c-0.019,0-0.037-0.002-0.057-0.006c-0.134-0.031-0.218-0.165-0.187-0.3c0.05-0.216,0.123-0.427,0.219-0.625c0.783-1.622,2.899-2.244,4.721-1.384c0.125,0.059,0.179,0.208,0.12,0.333c-0.06,0.126-0.209,0.178-0.333,0.12c-1.576-0.742-3.393-0.227-4.057,1.149c-0.08,0.165-0.142,0.34-0.184,0.521C43.933,61.7,43.831,61.778,43.716,61.778z"/></g></g><g><path fill="#fdfcef" d="M77.189,41.663c1.883,0,3.517,0,3.54,0c2.11,0,3.821-1.674,3.821-3.739c0-1.802-1.302-3.305-3.035-3.66c0.02-0.158,0.034-0.317,0.034-0.48c0-2.139-1.772-3.873-3.957-3.873c-1.29,0-2.433,0.607-3.155,1.543c-0.185-2.381-2.358-4.218-4.9-3.913c-1.859,0.223-3.397,1.629-3.739,3.431c-0.11,0.578-0.098,1.139,0.011,1.665c-0.498-0.525-1.208-0.856-1.998-0.856c-1.446,0-2.627,1.102-2.72,2.494c-0.657-0.142-1.371-0.133-2.123,0.143c-1.438,0.528-2.462,1.853-2.522,3.356c-0.085,2.133,1.657,3.889,3.818,3.889c0.164,0,0.741,0,0.874,0h7.934 M70.711,41.663h0.36"/><path fill="#472b29" d="M80.729,42.163h-3.54c-0.276,0-0.5-0.224-0.5-0.5s0.224-0.5,0.5-0.5h3.54c1.831,0,3.32-1.453,3.32-3.24c0-1.524-1.108-2.857-2.635-3.169c-0.256-0.052-0.429-0.292-0.396-0.551c0.017-0.138,0.029-0.277,0.029-0.419c0-1.86-1.551-3.373-3.457-3.373c-1.092,0-2.098,0.491-2.759,1.348c-0.126,0.164-0.343,0.232-0.538,0.173c-0.198-0.059-0.34-0.234-0.355-0.44c-0.08-1.02-0.566-1.944-1.371-2.604c-0.828-0.679-1.885-0.983-2.972-0.852c-1.646,0.197-3.007,1.441-3.308,3.027c-0.094,0.494-0.09,0.989,0.01,1.471c0.046,0.219-0.06,0.441-0.258,0.544c-0.196,0.104-0.44,0.063-0.594-0.099c-0.429-0.452-1.011-0.7-1.637-0.7c-1.169,0-2.145,0.891-2.221,2.028c-0.01,0.145-0.082,0.278-0.198,0.366c-0.116,0.088-0.265,0.119-0.407,0.089c-0.638-0.14-1.241-0.099-1.844,0.124c-1.262,0.464-2.145,1.632-2.195,2.906c-0.035,0.875,0.282,1.708,0.895,2.345c0.635,0.661,1.496,1.024,2.424,1.024h8.808c0.276,0,0.5,0.224,0.5,0.5s-0.224,0.5-0.5,0.5h-8.808c-1.186,0-2.331-0.485-3.145-1.332c-0.803-0.835-1.219-1.928-1.174-3.078c0.068-1.674,1.213-3.203,2.85-3.805c0.611-0.225,1.242-0.307,1.881-0.244c0.345-1.396,1.629-2.424,3.135-2.424c0.5,0,0.98,0.11,1.414,0.319c0.009-0.24,0.036-0.481,0.082-0.721c0.381-2.01,2.097-3.586,4.171-3.834c1.364-0.16,2.685,0.218,3.725,1.071c0.748,0.613,1.279,1.41,1.548,2.303c0.791-0.648,1.785-1.007,2.842-1.007c2.458,0,4.457,1.962,4.457,4.373c0,0.034-0.001,0.068-0.002,0.102c1.765,0.554,3.004,2.188,3.004,4.038C85.049,40.261,83.111,42.163,80.729,42.163z M71.071,42.163h-0.359c-0.276,0-0.5-0.224-0.5-0.5s0.224-0.5,0.5-0.5h0.359c0.276,0,0.5,0.224,0.5,0.5S71.347,42.163,71.071,42.163z"/><path fill="#472b29" d="M79.021,36.36c-0.019,0-0.037-0.002-0.057-0.006c-0.134-0.031-0.218-0.165-0.187-0.3c0.038-0.169,0.096-0.33,0.17-0.479c0.604-1.225,2.275-1.674,3.721-1.006c0.126,0.058,0.181,0.207,0.122,0.332c-0.058,0.125-0.209,0.18-0.331,0.122c-1.207-0.559-2.579-0.209-3.063,0.774c-0.058,0.114-0.102,0.238-0.132,0.369C79.238,36.282,79.135,36.36,79.021,36.36z"/><g><path fill="#472b29" d="M73.863,42.163h-1.107c-0.276,0-0.5-0.224-0.5-0.5s0.224-0.5,0.5-0.5h1.107c0.276,0,0.5,0.224,0.5,0.5S74.139,42.163,73.863,42.163z"/></g></g></svg>