<?xml version="1.0"?><svg xmlns="http://www.w3.org/2000/svg" viewBox="0 0 16 16">    <path d="M 3.8046875 0.99414062 A 0.50005 0.50005 0 0 0 3.4824219 1.109375 A 0.50005 0.50005 0 0 0 3.2949219 1.4785156 C 3.102352 2.1084332 3 2.8011287 3 3.5 C 3 5.4289627 4.2315701 7.0443913 5.9101562 7.6796875 L 7.03125 10.675781 A 0.50005 0.50005 0 0 0 7.96875 10.675781 L 9.0898438 7.6796875 C 10.76843 7.0443913 12 5.4289627 12 3.5 C 12 2.8011287 11.897648 2.1084332 11.705078 1.4785156 A 0.50005 0.50005 0 0 0 11.503906 1.0996094 A 0.50005 0.50005 0 0 0 11.476562 1.0800781 A 0.50005 0.50005 0 0 0 11.462891 1.0703125 A 0.50005 0.50005 0 0 0 11.425781 1.0507812 A 0.50005 0.50005 0 0 0 11.419922 1.046875 A 0.50005 0.50005 0 0 0 11.179688 0.99414062 A 0.50005 0.50005 0 0 0 11.121094 1 L 3.8789062 1 A 0.50005 0.50005 0 0 0 3.8046875 0.99414062 z M 4.1933594 2 L 10.806641 2 C 10.886131 2.3152633 10.936521 2.6480618 10.962891 3 L 5 3 L 5 3.5 C 5 3.7 4.9996094 3.8 5.0996094 4 L 10.957031 4 C 10.767256 5.3081568 9.8513301 6.3616552 8.6601562 6.7792969 A 0.50005 0.50005 0 0 0 8.2402344 7.1035156 A 0.50036803 0.50036803 0 0 0 8.2167969 7.1679688 L 7.5 9.0761719 L 6.7734375 7.1386719 A 0.50036803 0.50036803 0 0 0 6.7675781 7.125 A 0.50005 0.50005 0 0 0 6.7558594 7.09375 A 0.50036803 0.50036803 0 0 0 6.7480469 7.078125 A 0.50005 0.50005 0 0 0 6.7324219 7.0488281 A 0.50036803 0.50036803 0 0 0 6.7246094 7.0351562 A 0.50005 0.50005 0 0 0 6.7050781 7.0058594 A 0.50036803 0.50036803 0 0 0 6.6972656 6.9941406 A 0.50005 0.50005 0 0 0 6.4101562 6.8066406 C 5.0340523 6.3579339 4 5.0625564 4 3.5 C 4 2.9748277 4.0761346 2.4649235 4.1933594 2 z M 5.0996094 8.4003906 L 1.3007812 10 C 1.1007813 10.1 1 10.3 1 10.5 C 1 10.7 1.1007812 10.9 1.3007812 11 L 7.3007812 14 L 7.5 14 C 7.6 14 7.6992187 14.000391 7.6992188 13.900391 L 13.699219 10.900391 C 13.899219 10.800391 14 10.600391 14 10.400391 C 14 10.300391 13.899219 10.1 13.699219 10 L 9.9003906 8.4003906 L 9.5 9.4003906 L 12.300781 10.599609 L 7.5 13 L 2.6992188 10.599609 L 5.5 9.4003906 L 5.0996094 8.4003906 z"/></svg>