<svg xmlns="http://www.w3.org/2000/svg" viewBox="0 0 48 48"><path fill="#a37b57" d="M12.344,18.558c0,0-1.466-5.259-0.501-8.246s1.905-5.646,5.434-7.007s5.447-2.138,8.993-1.667 s4.685,0.114,6.697,2.186s3.354,4.868,3.442,6.906c0.088,2.038,0.029,5.332-1.638,7.145C33.104,19.688,12.344,18.558,12.344,18.558 z"/><path fill="#fcbf95" d="M36.089,17.504c-0.394-0.588-1.032-0.89-1.605-1.051c0.003-0.283,0.005-0.565-0.005-0.844 c-0.068-2.074-2.196-3.404-3.648-4.886c-0.787-0.803-1.411-2.016-1.394-3.141c-2.519-0.381-5.245,1.429-7.69,2.149 c-1.027,0.302-2.097,0.482-3.07,0.93c-2.205,1.016-4.628,2.984-4.978,5.387c-0.063,0.43-0.098,0.849-0.148,1.274 c-0.904-0.022-2.137,0.093-2.485,0.838c-0.567,1.215-0.397,1.394-0.264,2.398c0.133,1.004,0.67,4.229,0.67,4.229 s0.289,0.767,1.911,0.599c0.169,1.915,0.527,3.801,1.247,5.578c0.841,2.079,2.251,3.985,4.066,5.264L17.5,40.484 c0,0,2.125,1.859,5.845,2.313c3.72,0.453,7.218-0.828,8.995-2.238c-1.253-1.177-1.787-3.723-2.015-5.549 c1.646-1.618,2.764-3.765,3.245-6.03c0.272-1.281,0.353-2.592,0.387-3.904c0.588-0.125,1.229-0.255,1.679-0.328 c1.043-0.17,1.008-2.784,1.11-3.635C36.848,20.262,36.938,18.771,36.089,17.504z"/><path fill="#010101" d="M15.589,16.579c-0.033,0-0.067-0.003-0.101-0.01c-0.271-0.056-0.445-0.319-0.39-0.59 c0.029-0.143,0.135-0.397,0.521-0.502c1.839-0.5,3.81-0.63,5.7-0.37c0.274,0.037,0.465,0.289,0.428,0.563s-0.287,0.47-0.563,0.428 c-1.734-0.234-3.542-0.124-5.234,0.326C15.858,16.521,15.728,16.579,15.589,16.579z"/><path fill="#010101" d="M31.117,17.022c-0.054,0-0.108-0.009-0.162-0.027c-1.602-0.547-3.272-0.845-4.967-0.886 c-0.276-0.007-0.494-0.236-0.488-0.512c0.007-0.276,0.193-0.503,0.512-0.488c1.796,0.044,3.568,0.359,5.266,0.94 c0.261,0.089,0.401,0.373,0.312,0.635C31.52,16.892,31.325,17.022,31.117,17.022z"/><path fill="#010101" d="M28.38,19.972c-0.042,0-0.083-0.001-0.121-0.002c-0.316-0.01-0.738-0.125-0.976-0.416 c-0.147-0.181-0.197-0.401-0.139-0.619c0.076-0.288,0.312-0.45,0.439-0.537c0.239-0.162,0.64-0.416,1.128-0.407 c0.083,0.005,0.166,0.02,0.244,0.044c0.336,0.002,0.642,0.167,0.791,0.43c0.236,0.42,0.062,0.975-0.395,1.266 C29.027,19.935,28.66,19.972,28.38,19.972z"/><path fill="#010101" d="M18.275,19.971c-0.316-0.01-0.738-0.125-0.976-0.416c-0.147-0.181-0.197-0.401-0.139-0.619 c0.076-0.288,0.244-0.598,0.371-0.686c0.239-0.162,0.708-0.268,1.196-0.259c0.083,0.005,0.166,0.02,0.244,0.044 c0.336,0.002,0.642,0.167,0.791,0.43c0.236,0.42,0.062,0.975-0.395,1.266C19.043,19.935,18.312,19.971,18.275,19.971z"/><path fill="#010101" d="M23.902,28.062c-0.586,0-1.193-0.303-1.613-0.825c-0.821-1.023-0.726-2.339-0.559-3.598 c0.128-0.967,0.396-1.825,0.656-2.656c0.258-0.827,0.502-1.608,0.619-2.489c0.036-0.274,0.287-0.463,0.562-0.431 c0.273,0.037,0.466,0.288,0.43,0.562c-0.128,0.967-0.396,1.825-0.656,2.656c-0.258,0.827-0.502,1.608-0.619,2.489 c-0.145,1.089-0.227,2.125,0.347,2.841c0.212,0.262,0.601,0.512,0.961,0.438c0.271-0.057,0.534,0.12,0.59,0.39 c0.056,0.271-0.119,0.535-0.39,0.591C24.123,28.051,24.013,28.062,23.902,28.062z"/><path fill="#d6e5e5" d="M28.438,29.482c-0.351,1.568-2.806,3.976-4.411,4.046c-1.605,0.07-3.156-0.74-4.282-1.886 c-0.643-0.654-1.134-1.244-1.18-2.16c0.997,1.217,2.573,1.041,4.147,1.052C24.452,30.548,26.826,30.139,28.438,29.482z"/><path fill="#010101" d="M23.837,34.032c-1.558,0-3.167-0.735-4.449-2.039c-0.666-0.677-1.267-1.376-1.323-2.485 c-0.011-0.216,0.118-0.414,0.319-0.492c0.199-0.078,0.429-0.018,0.567,0.149c0.728,0.888,1.872,0.878,3.196,0.871l0.568-0.001 c1.718-0.009,4.033-0.405,5.534-1.016c0.173-0.072,0.369-0.038,0.511,0.081c0.142,0.12,0.206,0.31,0.165,0.491 c-0.385,1.723-3.02,4.354-4.876,4.437C23.979,34.031,23.908,34.032,23.837,34.032z M19.643,30.793 c0.131,0.157,0.283,0.321,0.458,0.499c1.142,1.161,2.561,1.812,3.904,1.736c1.095-0.048,2.72-1.452,3.511-2.7 c-1.497,0.439-3.341,0.732-4.808,0.707l-0.554,0.001C21.299,31.042,20.427,31.048,19.643,30.793z"/><path fill="#16b7b8" d="M31.521,39.583c1.025,1.596,2.594,2.127,4.34,2.869c0.617,0.263,1.274,0.467,1.798,0.885 c0.524,0.418,0.891,1.129,0.67,1.762c-0.225,0.644-0.938,0.958-1.586,1.171c-7.666,2.518-16.661,0.839-24.555-0.833 c-0.214-0.045-0.443-0.099-0.589-0.263c-0.387-0.435,0.139-1.073,0.616-1.406c1.562-1.09,3.723-2.194,5.285-3.285 c1.891,1.49,4.436,2.434,6.841,2.328C26.746,42.706,29.769,41.234,31.521,39.583z"/><path fill="#010101" d="M6.64,14.715c-0.066,0-0.133-0.013-0.197-0.04c-0.771-0.331-1.65-0.43-2.476-0.284 c-0.271,0.043-0.532-0.132-0.58-0.404c-0.048-0.271,0.132-0.531,0.404-0.58c1.018-0.182,2.098-0.058,3.045,0.349 c0.254,0.109,0.372,0.403,0.263,0.657C7.019,14.602,6.834,14.715,6.64,14.715z"/><path fill="#010101" d="M7.744,9.636c-0.081,0-0.163-0.02-0.239-0.061L2.739,6.979c-0.242-0.133-0.332-0.437-0.2-0.679 c0.132-0.241,0.434-0.332,0.678-0.2l4.766,2.596c0.242,0.133,0.332,0.437,0.2,0.679C8.093,9.541,7.921,9.636,7.744,9.636z"/><path fill="#010101" d="M9.581,6.032c-0.156,0-0.31-0.072-0.407-0.209c-0.571-0.8-1.268-1.492-2.072-2.061 c-0.226-0.159-0.279-0.471-0.12-0.696c0.159-0.227,0.471-0.28,0.697-0.12c0.896,0.633,1.672,1.404,2.309,2.295 c0.161,0.225,0.108,0.537-0.116,0.698C9.783,6.002,9.681,6.032,9.581,6.032z"/><path fill="#010101" d="M37.736,5.991c-0.095,0-0.19-0.026-0.275-0.083c-0.23-0.152-0.293-0.463-0.141-0.693 c0.427-0.646,0.806-1.33,1.126-2.035c0.113-0.25,0.409-0.361,0.662-0.248c0.251,0.114,0.363,0.41,0.249,0.662 c-0.342,0.753-0.746,1.484-1.203,2.174C38.057,5.912,37.898,5.991,37.736,5.991z"/><path fill="#010101" d="M40.171,8.263c-0.155,0-0.309-0.072-0.406-0.208c-0.161-0.224-0.11-0.536,0.114-0.698l4.437-3.194 c0.008-0.079,0.033-0.155,0.074-0.22c0.108-0.169,0.386-0.282,0.586-0.25c0.198,0.034,0.407,0.226,0.453,0.421 c0.029,0.127,0.055,0.441-0.31,0.704l-4.655,3.352C40.374,8.232,40.272,8.263,40.171,8.263z"/><path fill="#010101" d="M41.471,14.061c-0.189,0-0.371-0.108-0.455-0.292c-0.115-0.251-0.005-0.548,0.246-0.662l3.048-1.396 c0.251-0.114,0.548-0.004,0.663,0.247s0.004,0.548-0.247,0.663l-3.047,1.395C41.611,14.046,41.54,14.061,41.471,14.061z"/><path fill="#010101" d="M37.97,42.945c-0.467-0.371-0.999-0.584-1.514-0.789l-0.907-0.377 c-1.475-0.616-2.749-1.151-3.59-2.442c-0.554-1.121-0.921-2.784-0.961-4.3c1.491-1.599,2.579-3.683,3.061-5.954 c0.254-1.197,0.342-2.412,0.383-3.615c0.173-0.056,0.451-0.094,0.654-0.121c0.512-0.068,1.041-0.14,1.378-0.483 c0.352-0.36,0.414-0.854,0.456-1.18l0.229-1.808c0.133-1.048,0.284-2.236-0.067-3.372c-0.23-0.745-0.568-1.34-0.976-1.764 c1.99-4.734,0.543-10.628-3.462-13.854c-0.535-0.431-0.979-0.71-1.441-0.906c-0.659-0.278-1.374-0.381-2.005-0.472 c-2.379-0.344-5.076-0.733-7.648-0.246c-1.232,0.232-2.492,0.664-4.085,1.398c-1.306,0.602-2.789,1.382-3.889,2.602 c-0.94,1.043-1.613,2.409-2.057,4.175c-0.623,2.478-0.653,5.104-0.089,7.594c0.014,0.061,0.039,0.116,0.072,0.166 c-0.051,0.026-0.107,0.041-0.157,0.071c-0.61,0.362-1.055,0.973-1.19,1.632c-0.081,0.395-0.036,0.605,0.011,0.828 c0.016,0.077,0.035,0.164,0.05,0.278l0.513,3.859c0.065,0.494,0.188,1.415,0.898,1.879c0.337,0.221,0.641,0.3,0.94,0.3 c0.121,0,0.241-0.02,0.362-0.042c0.188,1.719,0.55,3.47,1.23,5.15c0.862,2.129,2.198,3.914,3.803,5.173 c0.017,0.865-0.215,1.603-0.494,2.442c-0.147,0.443-0.294,0.907-0.413,1.408c-0.736,0.502-1.608,1.018-2.457,1.519 c-0.924,0.545-1.881,1.109-2.679,1.666c-0.204,0.143-0.877,0.661-0.957,1.343c-0.035,0.301,0.053,0.579,0.254,0.806 c0.262,0.294,0.636,0.372,0.858,0.419c5.243,1.109,10.654,2.122,15.824,2.122c3.115,0,6.143-0.368,8.991-1.304 c0.728-0.239,1.603-0.623,1.902-1.48C39.113,44.369,38.608,43.455,37.97,42.945z M36.166,21.751l-0.229,1.808 c-0.026,0.205-0.062,0.485-0.179,0.605c-0.096,0.098-0.534,0.156-0.795,0.191c-0.166,0.022-0.331,0.049-0.494,0.081 c0.003-0.198,0.008-0.398,0.011-0.595c0.017-1.151,0.135-2.38,0.248-3.568c0.099-1.04,0.196-2.102,0.236-3.153 c0.547,0.25,0.954,0.979,1.171,1.679C36.423,19.729,36.287,20.803,36.166,21.751z M12.497,9.681c0.403-1.604,1.002-2.83,1.83-3.749 c0.979-1.086,2.352-1.804,3.565-2.363c1.515-0.699,2.703-1.107,3.852-1.324c2.41-0.455,4.906-0.095,7.321,0.254 c0.599,0.086,1.218,0.175,1.757,0.402c0.373,0.158,0.744,0.395,1.204,0.765c3.614,2.91,4.952,8.195,3.245,12.497 c-0.096-0.037-0.192-0.074-0.291-0.095c-0.001-0.158,0.004-0.317-0.001-0.474c-0.059-1.815-1.429-3.051-2.753-4.246 c-0.359-0.323-0.715-0.645-1.037-0.973c-0.774-0.79-1.265-1.882-1.25-2.783c0.004-0.25-0.178-0.465-0.425-0.502 c-1.867-0.283-3.75,0.511-5.574,1.277c-0.816,0.343-1.587,0.667-2.332,0.887c-0.314,0.092-0.633,0.173-0.952,0.254 c-0.726,0.184-1.476,0.374-2.186,0.701c-2.292,1.056-4.878,3.125-5.263,5.768c-0.048,0.328-0.086,0.645-0.126,0.964 c-0.224-0.03-0.447-0.041-0.663-0.019c0-0.037,0.006-0.073-0.003-0.11C11.884,14.471,11.913,12.006,12.497,9.681z M12.183,24.905 c-0.301-0.196-0.392-0.708-0.454-1.172l-0.513-3.859c-0.02-0.146-0.043-0.258-0.063-0.355c-0.038-0.176-0.049-0.229-0.01-0.419 c0.079-0.383,0.355-0.755,0.721-0.973c0.236-0.141,0.61-0.262,1.102-0.191c-0.121,1.176-0.194,2.306-0.209,3.408 c-0.016,1.161-0.004,2.398,0.089,3.665C12.558,25.077,12.407,25.053,12.183,24.905z M15.095,30.776 c-1.251-3.09-1.378-6.495-1.338-9.419c0.022-1.656,0.166-3.369,0.438-5.237c0.328-2.249,2.732-4.102,4.692-5.004 c0.627-0.289,1.3-0.46,2.013-0.641c0.331-0.084,0.662-0.168,0.989-0.264c0.798-0.235,1.631-0.585,2.436-0.924 c1.474-0.619,2.991-1.257,4.403-1.257c0.077,0,0.154,0.002,0.23,0.006c0.133,1.227,0.841,2.35,1.514,3.036 c0.336,0.343,0.708,0.679,1.082,1.016c1.223,1.104,2.378,2.146,2.424,3.537c0.048,1.469-0.102,3.036-0.247,4.552 c-0.115,1.208-0.234,2.457-0.252,3.647c-0.025,1.674-0.051,3.405-0.4,5.051c-0.574,2.705-2.066,5.127-4.095,6.643 c-2.166,1.616-5.021,2.206-7.453,1.539C18.788,36.305,16.382,33.956,15.095,30.776z M21.267,38.022 c0.768,0.21,1.561,0.313,2.36,0.313c2.079,0,4.191-0.698,5.957-2.017c0.16-0.12,0.31-0.255,0.463-0.384 c0.108,1.106,0.377,2.391,0.865,3.51c-1.789,1.56-4.554,2.778-6.593,2.867c-2.094,0.107-4.4-0.668-6.249-2.033 c0.106-0.415,0.23-0.814,0.357-1.198c0.218-0.657,0.436-1.333,0.518-2.083C19.682,37.449,20.459,37.801,21.267,38.022z M37.856,44.935c-0.155,0.444-0.76,0.693-1.27,0.861c-7.338,2.409-16.025,0.902-24.296-0.848c-0.082-0.018-0.275-0.058-0.325-0.114 c-0.016-0.088,0.175-0.402,0.536-0.654c0.767-0.535,1.706-1.089,2.614-1.625c0.808-0.476,1.64-0.967,2.369-1.454 c2.026,1.49,4.568,2.322,6.878,2.211c2.224-0.098,5.109-1.33,7.076-2.986c0.988,1.233,2.321,1.791,3.724,2.377l0.501,0.211 c0.139,0.06,0.279,0.115,0.42,0.172c0.468,0.187,0.911,0.363,1.262,0.643C37.708,44.017,38,44.523,37.856,44.935z"/></svg>