<svg xmlns="http://www.w3.org/2000/svg" width="512" height="512" viewBox="0 0 512 512"><path fill="#74CCCF" d="M291.8 119.1C291.8 119 291.8 119 291.8 119.1L291.8 119.1c0 0 0 .1.1.2C291.9 119.2 291.8 119.1 291.8 119.1zM291.8 119c-.1-.2-.2-.4-.4-.6.1.1.2.3.3.4C291.7 118.9 291.7 118.9 291.8 119 291.7 119 291.8 119 291.8 119 291.8 119 291.8 119 291.8 119z"/><path fill="#74CCCF" d="M470.8,131.3c-3.3-3.3-7.3-6-11.3-8.5c-6.9-4.2-14.5-8.3-22.5-10.3c-3.9-1-5-6.9-1.9-9.3c7.4-5.6,15.1-11.2,21.4-18c3.1-3.3,9.2-11.3,5.2-16.2c-4.8-5.8-13.1,0.2-17.4,3.6c-6.6,5.1-12.5,11-19.1,16.1c-0.6,0.5-1.2,0.8-1.9,1c-2.7,3.2-8.9,3-9.6-2.3c-1.2-8.9-2.1-18.7-6.2-26.8c-3-5.8-9.8-12.4-16.9-9c-18.7,9.1-3.1,30.4,2,42.9c0.8,1.7,0.7,3.9-0.3,5.6c0,0,0,0,0,0c-1,1.6-3.1,2.7-5,2.4c-0.1,0-0.2,0-0.3,0c-0.4,0-0.9-0.1-1.3-0.2c-0.7-0.1-1.3-0.4-1.8-0.7c-6.7-2.2-13.2-5.5-20-7.7c-7.6-2.5-15.2-4.7-22.7-7.3c-15.7-5.3-31.2-11-46.9-16.3c-1.1-0.4-1.9-0.9-2.5-1.6c-3.3-0.4-6.7-3.9-5.1-8.1c3.8-9.9-9.8-23.7-19.4-23.1c-6.7,0.4-12,8.3-15.1,13.5c-3.9,6.6-8,14.9-5.8,22.8c0.6,2.3-0.2,4.2-1.6,5.5c-0.3,1.7-1.4,3.3-3.7,3.9c-17.8,4.7-36.5,3.7-54.4,7.9c-8.6,2-17.3,4.2-26.2,4.2c-5.1,0-13.2-1.4-17.4,2c-3,2.5-6.2,0.7-7.5-2c-0.8-0.1-1.7-0.3-2.6-0.6c-5.6-2-2.9-9.2,1.9-10.1c0.1-0.1,0.2-0.3,0.5-0.8c0.8-1.5,1.4-3.1,1.9-4.7c1.5-4.9,2.5-9.9,3-15c0.5-4.6,0.8-9.4,0-14c-0.3-1.9-1.8-4.5-3.4-4.4c-2.2,0-4.7,2.4-6.6,4.8c-2.9,3.7-5.2,7.9-7.1,12.2c-3.4,7.4-6.6,15.4-7.6,23.5c-0.5,4-6.3,5.8-9,2.9c-6.4-6.7-12.8-13.7-20.3-19.2c-3.7-2.7-12.3-7.8-16.7-3.3c-5.2,5.4,1.7,13,5.5,16.9c5.8,5.9,12.4,11.1,18.2,17.1c0.5,0.5,0.9,1.1,1.2,1.7c3.5,2.3,4,8.5-1.1,9.8c-8.7,2.2-18.3,4.2-25.9,9.3c-5.4,3.6-11.2,11.2-7,17.8c11.2,17.5,30.5-0.5,42.4-6.9c1.6-1,3.8-1.2,5.6-0.4c0,0,0,0,0,0c1.7,0.8,3,2.8,3,4.7c0,0.1,0,0.2,0,0.3c0,0.4,0,0.9,0,1.3c-0.1,0.7-0.2,1.3-0.5,1.9c-1.4,6.9-3.9,13.8-5.4,20.7c-1.6,7.8-2.9,15.6-4.6,23.4c-3.5,16.2-7.4,32.3-10.8,48.5c-0.5,2.6-2.4,3.9-4.4,4.1c-1.4,2-4,3.2-6.8,2c-6.9-2.9-16.9-2.4-24.4-1.5c-5.6,0.7-18.3,2.4-19.3,9.8c-1,7.2,10.9,12.3,16.2,14.5c5.9,2.5,17.7,7.2,23.4,3c2.6-1.9,5.2-1,6.8,0.9c2.8-0.9,6.2,0.2,6.8,3.9c3.1,18.2,0.4,36.7,3,54.9c1.2,8.7,2.6,17.6,1.8,26.4c-0.4,5.1-2.6,13,0.4,17.5c2.2,3.2,0.2,6.2-2.7,7.3c-0.2,0.8-0.4,1.7-0.8,2.6c-2.5,5.4-9.4,2.1-9.9-2.8c-0.1-0.1-0.3-0.3-0.8-0.5c-1.4-0.9-2.9-1.7-4.5-2.3c-4.7-1.9-9.7-3.4-14.7-4.4c-4.5-0.9-9.3-1.6-13.9-1.2c-1.9,0.2-4.6,1.4-4.7,3c-0.2,2.2,1.9,4.9,4.2,7c3.4,3.2,7.4,5.9,11.5,8.2c7,4,14.7,8,22.7,9.7c3.9,0.9,5.2,6.8,2.1,9.3c-7.2,5.8-14.8,11.5-20.9,18.5c-3,3.4-8.9,11.5-4.8,16.3c4.9,5.7,13.1-0.5,17.3-4c6.4-5.3,12.2-11.3,18.7-16.6c0.6-0.5,1.2-0.8,1.8-1c2.6-3.2,8.8-3.2,9.6,2c1.4,8.9,2.5,18.6,6.9,26.7c3.1,5.7,10.1,12.2,17.1,8.6c18.4-9.5,2.3-30.4-3.1-42.9c-0.9-1.7-0.8-3.9,0.1-5.6c0,0,0,0,0,0c0.9-1.6,3.1-2.8,4.9-2.6c0.1,0,0.2,0,0.3,0c0.4,0,0.9,0,1.3,0.2c0.7,0.1,1.3,0.4,1.8,0.7c6.8,2,13.3,5.2,20.1,7.2c7.6,2.3,15.3,4.3,22.9,6.7c15.8,4.9,31.5,10.2,47.3,15.1c1.8,0.5,2.9,1.7,3.4,3c0.6,0.4,1.1,0.8,1.5,1.5c5.6,7.8,6.3,17.4,8.6,26.4c2.2,8.4,7.8,17.2,18.2,13.9c8.1-2.5,13.3-11.6,15.7-19.4c2.4-7.8,4.1-17.8-0.6-25.2c-2.5-3.8,0.5-7.6,3.9-8.3c-1.5-2.8-0.8-6.8,3.2-7.7c17.9-4.2,36.6-2.8,54.6-6.6c8.6-1.8,17.4-3.8,26.3-3.6c5.1,0.1,13.1,1.8,17.5-1.6c3.1-2.4,6.2-0.6,7.4,2.2c0.8,0.1,1.7,0.3,2.6,0.7c5.5,2.2,2.7,9.2-2.2,10c-0.1,0.1-0.2,0.3-0.5,0.8c-0.8,1.5-1.5,3-2,4.6c-1.6,4.9-2.7,9.9-3.4,14.9c-0.6,4.6-1,9.4-0.3,14c0.3,1.9,1.7,4.5,3.3,4.5c2.2,0,4.7-2.2,6.7-4.7c3-3.6,5.4-7.8,7.4-12c3.6-7.3,7-15.2,8.2-23.3c0.6-4,6.4-5.6,9.1-2.7c6.2,6.8,12.5,14,19.8,19.7c3.6,2.8,12.1,8.1,16.6,3.7c5.3-5.3-1.3-13-5.1-17c-5.7-6.1-12.1-11.4-17.8-17.5c-0.5-0.6-0.9-1.2-1.1-1.8c-3.4-2.4-3.8-8.6,1.4-9.8c8.8-2,18.4-3.8,26.1-8.6c5.5-3.5,11.5-10.9,7.4-17.7c-10.7-17.8-30.5-0.3-42.6,5.9c-1.6,1-3.8,1.1-5.6,0.2c0,0,0,0,0,0c-1.7-0.8-3-2.9-2.9-4.7c0-0.1,0-0.2,0-0.3c0-0.4,0-0.9,0.1-1.3c0.1-0.7,0.3-1.3,0.6-1.9c1.6-6.9,4.3-13.7,5.9-20.6c1.8-7.7,3.3-15.5,5.2-23.3c3.9-16.1,8.2-32.1,11.9-48.2c0.7-3.2,3.4-4.3,5.9-4c0.5-0.2,1-0.3,1.5-0.3c6.7-0.6,27.6-2.8,26.5-13.1c-1.9-18.1-26.4-12-38-10.2c-6,0.9-7.1-7-3-10c-1.8-17.1,0.8-34.5-1.2-51.6c-1-8.8-2.2-17.7-1.2-26.5c0.6-5.1,2.9-12.9,0-17.5c-2.1-3.3,0-6.2,2.9-7.2c0.2-0.8,0.5-1.7,0.9-2.5c2.6-5.3,9.5-1.9,9.8,3.1c0.1,0.1,0.3,0.3,0.8,0.6c1.4,0.9,2.9,1.8,4.4,2.4c4.7,2,9.6,3.6,14.6,4.7c4.5,1,9.3,1.8,13.9,1.6c1.9-0.1,4.6-1.3,4.8-2.9C475,136.3,473,133.5,470.8,131.3z M385,151.7c2.8-2.1,6.9-1.7,8.6,1.7c3.5,7.2,2.8,15.2,3,23c0.2,8.1,3.5,16,3.9,24.1c0.2,5.2,0.4,10.5,1,15.7c0.3,2.9,0.6,5.9,1.3,8.8c0.2,0.9,0.4,1.8,0.8,2.7c0.1,0.2,0.2,0.4,0.2,0.5c4,3.5,0.9,9.9-3.4,9.9c-1.7,1.4-4.2,1.9-6.4,0.3c0,0-0.1,0-0.1,0c-0.3-0.1-1.6-0.3-1.5-0.3c-1.7-0.1-3.4-0.1-5.2-0.1c-1.8,0.1-3.6,0.2-5.3,0.5c-0.8,0.2-1.7,0.4-2.5,0.7c-0.2,0.1-0.3,0.1-0.4,0.1c0,0-0.1,0.1-0.2,0.1c-0.4,0.2-0.8,0.4-1.1,0.5c-1.6,1.7-4.1,2.4-6.6,0.5c-4.1-3.1-5.3-8.5-6.2-13.3c-1.2-6.9-1.7-14-2.2-21c-0.5-7.2-0.8-14.3-1.3-21.5c-0.2-2.6-0.4-5.2-0.8-7.7c-0.1-0.4-0.2-0.9-0.2-1.3c-3.4-3.4,0-10.8,5.9-9.1c0.1,0,0.3,0.1,0.4,0.1c0.3-0.8,0.9-1.6,1.8-2.3L385,151.7z M281.8,112.4c0.6-2,1.8-5,2.1-6c0.2-0.5,0.3-1,0.4-1.4c-1.1-2.3,0.1-5.5,2.1-6.8c0.9-0.5,1.7-0.8,2.6-0.8c0.6-3.4,4.6-6.5,8.5-4.1c20.3,12.6,44.1,22.5,67.9,26c5.7,0.8,6.6,7.5,2,10.4c-8.2,5.2-11.7,15.7-21.7,18.4c-0.2,0.1-0.4,0.1-0.6,0.1c-1.2,1.2-3,1.7-5.2,0.7c-8.9-4.2-18.7-5.5-28.1-8.2c-9.1-2.6-17.5-6.9-26.6-9.4c-3.7-1-4.3-4.5-3.1-7.2C280.3,120.5,280.5,116.5,281.8,112.4z M310.8,202.8l19.9-15.1c2.7-2,7.1-1.8,8.6,1.7c5.8,13.8,5,28.9,6.1,43.6c0.2,3.3-2.8,6.7-5.8,6.7c-1.1,1-2.7,1.5-4.7,1c-7.7-2.2-15.8,0.8-22.8-4.5c-7-5.3-5-12.8-7-20.3c-0.9-3.6,1.5-6.2,4.3-6.9C308.4,207.1,308.5,204.6,310.8,202.8z M316.9,256.6c3.9-0.7,8,0.4,11.8,1.2c2.6,0.5,5.1,1,7.7,1.4c0.5,0.1,2.2,0.3,2.2,0.3c0,0,0,0,0.1,0c1.8-0.6,3.8-0.4,5.3,0.7c1.2-0.2,2.5-0.1,3.7,0.5c2.4,1.1,3.1,3.6,3.1,6c0,2.1-1,3.6-2.4,4.5c-0.2,0.6-0.4,1.2-0.7,1.9c-1,2.7-1.7,5.6-2.2,8.4c-1.2,7.2-1.4,14.5-2.2,21.7c-0.4,3.5-4.3,7.6-8.1,4.9c-8.3-5.9-16-12.8-22.9-20.3c-0.3-0.3-0.5-0.6-0.7-0.8c-0.3-0.1-0.5-0.3-0.8-0.5C300.7,278.7,303.2,259,316.9,256.6z M266.6,171.3c1.2-4.3,3.6-8.9,3.5-13.4c-0.1-4.1,3.6-6,6.7-5.5c1.4-1.1,3.3-1.4,5.1-1.2c2.1,0.2,3.5,1.3,4.3,2.8c0.6,0.3,1.2,0.6,1.8,0.8c2.6,1.3,5.4,2.2,8.2,2.9c7,1.8,14.3,2.7,21.4,4.1c3.5,0.7,7.2,5,4.2,8.5c-6.7,7.7-14.2,14.8-22.2,21c-1.7,1.3-3.4,1.4-5,1c-1.4,0.8-3.1,1.1-5,0.3c-3.7-1.6-8.1-0.5-12-1.3c-4-0.8-7.3-2.9-9.4-6.5C265.8,180.8,265.4,175.6,266.6,171.3z M253.2,169.8c0.2,0.4,0.3,0.8,0.4,1.2c1.4,7.4,5.6,18.8-1.3,24.8c-6.9,6-15.8,6.9-24.1,9.9c-3.2,1.1-5.6-0.7-6.5-3.2c-0.6-0.3-1.2-0.7-1.7-1.2l-17.3-18.1c-2.3-2.4-2.6-6.9,0.7-8.7c13.1-7.4,28.1-8.3,42.6-11C249.6,162.7,253.9,166.2,253.2,169.8z M211,223c-0.2,7.9-0.7,18.7-10,21.1c-7,1.8-14.6,1.3-21.8,0.2c-1.8-0.3-3-1.2-3.6-2.3c-0.1,0-0.3-0.1-0.4-0.1c-2.4-1-3.2-3.5-3.3-5.9c-0.1-2.1,0.9-3.6,2.2-4.5c0.2-0.6,0.4-1.2,0.6-1.9c0.9-2.7,1.6-5.6,2-8.5c1-7.2,1-14.5,1.6-21.7c0.3-3.5,4.2-7.8,8-5.1c8.4,5.7,16.3,12.4,23.4,19.7c2.1,2.1,2,4.8,0.8,6.9C210.9,221.4,211,222.2,211,223z M204.1,301.4L184.6,317c-2.6,2.1-7.1,2-8.6-1.5c-6.2-13.7-5.7-28.8-7.1-43.4c-0.2-1.9,0.7-3.9,2.1-5.2c-0.5-2.5,0.5-5.1,3.7-5.7c6.3-1.2,12.7-1.1,18.9,0.3c4.9,1.1,6.8,3,8.8,7.3c3.1,6.8,6.3,15.2,6.5,22.7c0.1,2.4-1.2,4.1-2.9,4.9C206.3,298.2,205.9,300,204.1,301.4z M161.3,124.7c6.8-4.3,14.8-4.5,22.5-5.6c8-1.1,15.5-5.3,23.5-6.6c5.2-0.8,10.3-1.6,15.5-2.8c2.9-0.6,5.8-1.3,8.6-2.3c0.9-0.3,1.8-0.6,2.6-1.1c0.2-0.1,0.3-0.2,0.4-0.3c1.6-2.3,4.3-2.7,6.4-2c0.3-0.1,0.6-0.1,0.9-0.1c3.2-0.1,5.3,2.3,5.7,5.3c1,6.7-1.3,14.3,1.4,20.6c0.1,0.3,0.2,0.6,0.3,0.9c1.9,1.4,2.9,3.8,1.3,6.5c-2.6,4.4-7.8,6.3-12.5,7.7c-6.7,2-13.7,3.3-20.6,4.6c-7.1,1.3-14.2,2.4-21.2,3.8c-2.5,0.5-5.1,1-7.6,1.7c-0.4,0.1-0.9,0.3-1.3,0.4c-3,3.8-10.8,1.2-9.7-4.8c0-0.1,0.1-0.3,0.1-0.4c-0.8-0.2-1.7-0.7-2.5-1.5l-14.5-15.2C158.1,130.9,158.1,126.8,161.3,124.7z M112.3,227.6c0.1-0.2,0.2-0.4,0.2-0.6c10.2-21.7,17.3-46.4,18-70.4c0.2-5.7,6.7-7.5,10.1-3.2c6.1,7.5,17,9.8,20.7,19.5c0.1,0.2,0.1,0.4,0.2,0.6c1.3,1.1,2,2.8,1.3,5.1c-3.1,9.3-3.3,19.2-4.9,28.9c-1.5,9.3-4.8,18.2-6.3,27.5c-0.5,3.1-2.8,4.3-5.1,4.2c-1.1,1.1-2.7,1.6-4.8,1c-8.5-2.8-17.6-1.3-26.1-4.1C111.9,234.6,111,230.4,112.3,227.6z M131.2,354.4c-2.8,2.2-6.9,1.9-8.6-1.5c-3.7-7.2-3.2-15.1-3.5-22.9c-0.4-8.1-3.9-15.9-4.5-24c-0.4-5.2-0.7-10.5-1.3-15.6c-0.4-2.9-0.8-5.9-1.5-8.8c-0.2-0.9-0.4-1.8-0.9-2.7c-0.1-0.2-0.2-0.4-0.2-0.5c-3-2.5-2.2-6.6,0.2-8.7c1.6-5.4,9.8-6,14.3-6.5c3.7-0.4,10.5-1.8,13.9,0.3c0.3,0.2,0.7,0.4,0.9,0.7c1,0,2,0.3,3,1.1c4.1,3,5.5,8.4,6.5,13.2c1.4,6.9,2.1,13.9,2.7,20.9c0.6,7.2,1.1,14.3,1.8,21.5c0.3,2.6,0.5,5.2,1,7.7c0.1,0.4,0.2,0.9,0.3,1.3c3.5,3.3,0.2,10.8-5.6,9.2c-0.1,0-0.3-0.1-0.4-0.1c-0.3,0.8-0.8,1.6-1.7,2.3L131.2,354.4z M233.8,381c0,0.5,0,1.1-0.2,1.7c-1.7,6.6-1.6,13.7-1.1,20.5c0.3,3.5-2.3,5.4-5,5.5c-1.5,2.3-4.5,3.7-7.5,1.9c-20.7-12.1-44.7-21.4-68.5-24.3c-5.7-0.7-6.8-7.3-2.3-10.4c8.1-5.4,11.3-16,21.3-18.9c0.2-0.1,0.4-0.1,0.6-0.1c1.2-1.2,3-1.8,5.1-0.8c9,4,18.9,5,28.3,7.5c9.1,2.4,17.7,6.4,26.8,8.7C235.8,373.4,236,378.2,233.8,381z M241,348.7c-0.1,0.3-0.2,0.6-0.4,0.9c-1.3,2.3-3.8,2.9-6.2,2.7c-2.1-0.1-3.5-1.2-4.3-2.7c-0.6-0.3-1.2-0.5-1.8-0.8c-2.6-1.2-5.5-2.1-8.3-2.7c-7.1-1.6-14.3-2.3-21.5-3.6c-3.5-0.6-7.3-4.8-4.4-8.4c6.5-7.9,13.8-15.1,21.7-21.5c2.2-1.7,4.6-1.6,6.5-0.4c6.6,0.5,14.7,3.8,18.2,9.2c1.8,2.8,0.6,7.4,0.7,10.6c0,3.1-0.3,6.8,1.7,9.3C245.2,344.3,243.6,347.3,241,348.7z M254,289.8c-4.8,0.8-10.2,1.1-14.4-1.6c-3-1.9-4.9-4.8-6.9-7.7c-1.4-0.5-2.6-1.6-3.2-3.3c-4.9-13.3-5.7-27.8-7.1-41.9c-0.3-3.2,1.8-5.1,4.3-5.4c12.4-12.7,34.2-14.7,50.9-16.2c1.9-0.2,3.8,1,4.9,2.5c6.9,10.3,4,23.7,6.2,35.3c1.7,9.3,5.1,22.7-3.8,29.5C276.3,287.3,264,288.1,254,289.8z M264.3,331.6c-5.2-10.5-8-23.6,3.2-31.5c8.5-6,21.7-10.6,30.5-2.6c0.3,0.3,0.6,0.6,0.8,0.9c1.1,0.1,2.2,0.6,3.1,1.7l16.8,18.5c2.3,2.5,2.4,6.9-0.9,8.7c-13.3,7.1-28.3,7.6-42.8,10c-2.4,0.4-5-1-6.4-3C267,334.4,265.4,333.7,264.3,331.6z M358.7,378.1c-6.9,4.2-14.9,4.2-22.6,5c-8.1,0.9-15.6,4.9-23.7,6c-5.2,0.7-10.4,1.4-15.5,2.4c-2.9,0.6-5.8,1.2-8.6,2.1c-0.9,0.3-1.8,0.5-2.6,1c-0.2,0.1-0.3,0.2-0.4,0.3c-2.1,2.9-5.8,2.7-8.1,1c-2.9,1.3-6.7,0.4-7.7-3.2c-1-3.7-1.3-7.7-1.6-11.5c-0.2-2-0.4-4.1-0.6-6.1c-0.2-1.1-0.1-0.9-0.2-1.4c0-0.2-0.1-0.3-0.1-0.4c-2-3-0.4-6.1,2.2-7.4c0.1-0.8,0.3-1.6,0.9-2.4c2.8-4.3,8-6.1,12.7-7.4c6.8-1.8,13.8-3,20.7-4.1c7.1-1.1,14.2-2,21.3-3.2c2.5-0.4,5.1-0.9,7.6-1.5c0.4-0.1,0.9-0.2,1.3-0.4c3.1-3.7,10.8-0.9,9.6,5c0,0.1-0.1,0.3-0.1,0.4c0.8,0.2,1.7,0.7,2.4,1.6l14.1,15.5C361.9,372,361.9,376.1,358.7,378.1z M410.1,277.3c-0.2,0.2-0.4,0.3-0.6,0.5C399,299,391.4,323.3,390.1,347c-0.3,5.7-6.9,7.3-10.2,3c-5.9-7.7-16.7-10.2-20.2-20c-0.1-0.2-0.1-0.4-0.2-0.6c-1.3-1.1-1.9-2.9-1.1-5.1c3.4-9.3,3.8-19.1,5.6-28.7c1.7-9.3,5.3-18.1,6.9-27.3c0.8-4.1,4.8-4.9,7.7-3.4c2.1-0.1,4.4,0.5,6.3,1c5.6,1.2,13.4,3.7,19.4,2.6C409,267.6,414.6,273.3,410.1,277.3z"/><path fill="#74CCCF" d="M383,270c0.6,2,0.1,3.7-0.9,4.9C383.1,274.1,383.8,272.7,383,270z"/><path d="M161.6 173.4c-.1-.2-.1-.4-.2-.6-3.8-9.7-14.6-11.9-20.7-19.5-3.4-4.3-10-2.5-10.1 3.2-.7 24-7.8 48.8-18 70.4-.1.2-.2.4-.2.6-1.3 2.8-.5 7 3.4 8.3 8.5 2.8 17.6 1.3 26.1 4.1 2 .7 3.7.1 4.8-1 2.4.1 4.7-1.2 5.1-4.2 1.5-9.3 4.8-18.2 6.3-27.5 1.6-9.6 1.7-19.5 4.9-28.9C163.7 176.3 163 174.5 161.6 173.4zM147.3 205c-1.2 8-3.9 15.7-5.5 23.6-5.5-1.3-11.3-1.2-16.9-2 8.1-18.5 13.9-38.8 16-59 .1.1.3.2.4.3 2.9 2 8.3 4.7 9.7 8.2.2.6.5 1 .8 1.5C149 186.4 148.6 195.9 147.3 205zM249.1 130.7c-.1-.3-.1-.6-.3-.9-2.7-6.3-.4-13.9-1.4-20.6-.5-3-2.5-5.4-5.7-5.3-.3 0-.6.1-.9.1-2.2-.8-4.8-.3-6.4 2-.1.1-.2.1-.4.3-.8.5-1.7.8-2.6 1.1-2.8 1-5.7 1.7-8.6 2.3-5.1 1.1-10.3 1.9-15.5 2.8-8 1.3-15.5 5.5-23.5 6.6-7.8 1-15.7 1.3-22.5 5.6-3.2 2-3.1 6.2-.7 8.7l14.5 15.2c.8.8 1.6 1.3 2.5 1.5 0 .1-.1.3-.1.4-1.1 6 6.7 8.6 9.7 4.8.4-.1.9-.3 1.3-.4 2.5-.7 5-1.2 7.6-1.7 7-1.4 14.1-2.5 21.2-3.8 6.9-1.3 13.9-2.6 20.6-4.6 4.7-1.4 9.9-3.3 12.5-7.7C252 134.5 251 132.1 249.1 130.7zM238.1 133.2c-2.7 1.1-5.6 1.8-8.5 2.6-7.2 1.8-14.5 3.1-21.8 4.3-6.5 1.1-13.1 2.2-19.6 3.6-1.3.3-2.8.6-4.2 1.1.1-1.4-.3-3-1.6-4.3l-8.7-9.1c6-1.4 12.7-1.2 18.4-3 7-2.2 13.8-4.5 21.1-5.7 6.2-1 12.4-2.1 18.5-3.7 1.7-.5 3.5-1 5.1-1.7-.1 5.4-.6 10.8 1.5 15.8C238.2 133.1 238.2 133.1 238.1 133.2zM209.8 213.9c-7.1-7.3-15-13.9-23.4-19.7-3.8-2.6-7.7 1.6-8 5.1-.6 7.2-.6 14.5-1.6 21.7-.4 2.9-1 5.8-2 8.5-.2.6-.4 1.2-.6 1.9-1.4.9-2.3 2.4-2.2 4.5.1 2.4.9 4.9 3.3 5.9.1.1.3.1.4.1.7 1.2 1.8 2.1 3.6 2.3 7.1 1.1 14.7 1.5 21.8-.2 9.3-2.4 9.8-13.2 10-21.1 0-.9-.1-1.6-.4-2.3C211.8 218.7 211.9 216 209.8 213.9zM200 223.5c-.1 2.8-.2 5.5-.8 8.3-.4 1.9-1.3 1.9-3.3 2.2-3.5.5-7.1.4-10.7.1 1-3.2 1.6-6.6 2-9.1 1-5.1 1.3-10.3 1.5-15.5 4.2 3.4 8.3 7.1 12.1 11C200.4 221.3 200 222.3 200 223.5zM253.6 171c-.1-.4-.2-.8-.4-1.2.7-3.5-3.6-7-7.3-6.3-14.5 2.8-29.5 3.6-42.6 11-3.3 1.9-3 6.3-.7 8.7l17.3 18.1c.5.6 1.1 1 1.7 1.2.9 2.5 3.3 4.3 6.5 3.2 8.3-2.9 17.3-3.9 24.1-9.9C259.2 189.8 255 178.3 253.6 171zM243.6 188.8c-4.3 3.1-10.2 4-15.5 5.4-.2-.4-.5-.8-.9-1.1l-11.7-12.2c8.3-3.2 17.5-4.3 26.4-5.7.4.2.9.3 1.4.4C244.5 179.6 246.9 186.4 243.6 188.8zM404.3 268.4c-6 1.1-13.8-1.4-19.4-2.6-1.9-.4-4.2-1-6.3-1-2.9-1.5-7-.8-7.7 3.4-1.7 9.2-5.2 18-6.9 27.3-1.8 9.6-2.2 19.5-5.6 28.7-.8 2.2-.2 4 1.1 5.1.1.2.1.4.2.6 3.5 9.7 14.3 12.3 20.2 20 3.3 4.3 9.9 2.8 10.2-3 1.3-23.7 8.9-48 19.4-69.2.2-.2.4-.3.6-.5C414.6 273.3 409 267.6 404.3 268.4zM383 270c.8 2.7.1 4.1-.9 4.9C383.1 273.7 383.6 272 383 270zM380.2 335.7c-.1-.1-.3-.2-.4-.3-2.9-2.1-8.2-4.9-9.5-8.4-.2-.6-.5-1-.8-1.5 2.9-8.8 3.5-18.2 5.1-27.3 1.3-7.5 3.9-14.6 5.7-21.9.1 0 .1-.1.2-.1 1 .2 2 .4 2.9.6 2 .4 4 .6 6 1 2.4.5 4.8.9 7.3 1.2C388.6 296.9 382.7 316.2 380.2 335.7zM359.6 369.3l-14.1-15.5c-.8-.8-1.6-1.3-2.4-1.6 0-.1.1-.3.1-.4 1.2-6-6.5-8.7-9.6-5-.4.1-.9.2-1.3.4-2.5.6-5.1 1.1-7.6 1.5-7.1 1.2-14.2 2.1-21.3 3.2-6.9 1.1-13.9 2.2-20.7 4.1-4.7 1.3-9.9 3-12.7 7.4-.5.8-.8 1.6-.9 2.4-2.6 1.3-4.3 4.3-2.2 7.4 0 .1 0 .2.1.4.1.5.1.3.2 1.4.3 2 .5 4.1.6 6.1.4 3.8.6 7.8 1.6 11.5 1 3.6 4.8 4.5 7.7 3.2 2.3 1.7 5.9 1.9 8.1-1 .1-.1.2-.1.4-.3.8-.5 1.7-.7 2.6-1 2.8-.9 5.7-1.5 8.6-2.1 5.1-1 10.3-1.7 15.5-2.4 8.1-1.1 15.6-5.1 23.7-6 7.8-.9 15.7-.9 22.6-5C361.9 376.1 361.9 372 359.6 369.3zM327.9 373.6c-7.1 2-13.9 4.2-21.2 5.2-6.2.9-12.5 1.8-18.6 3.3-2.3.6-4.7 1.3-6.9 2.3-.7-.6-1.4-1-2.3-1.2-.2-1.7-.3-3.4-.4-5-.2-2.3-.3-5.2-.9-7.7.6-.3 1.2-.8 1.6-1.4.1-.1.2-.1.4-.3 1.2-.8 1.2-.6 2.4-1.1 2.8-1 5.7-1.7 8.5-2.3 7.2-1.6 14.6-2.7 21.9-3.8 6.6-1 13.1-1.8 19.6-3.1 1.3-.3 2.8-.5 4.3-1-.1 1.4.3 3 1.5 4.3l8.5 9.3C340.4 372.4 333.7 372 327.9 373.6zM347.6 260.6c-1.2-.6-2.5-.7-3.7-.5-1.5-1-3.5-1.2-5.3-.7 0 0 0 0-.1 0 0 0-1.7-.2-2.2-.3-2.6-.4-5.1-.9-7.7-1.4-3.8-.7-7.9-1.9-11.8-1.2-13.7 2.4-16.1 22.1-6 29.8.3.2.5.4.8.5.2.3.4.6.7.8 6.9 7.5 14.6 14.3 22.9 20.3 3.8 2.7 7.7-1.4 8.1-4.9.8-7.2 1-14.5 2.2-21.7.5-2.9 1.2-5.7 2.2-8.4.2-.6.4-1.2.7-1.9 1.4-.9 2.4-2.4 2.4-4.5C350.7 264.2 350 261.7 347.6 260.6zM335.1 277.2c-1.1 5.1-1.5 10.2-1.9 15.4-4.7-4-9.2-8.4-13.3-12.9-.2-.3-.5-.5-.7-.7-.3-.3-.6-.6-.9-.9-3.4-2.6-3.8-7.6-.1-10.3.3-.2 1.1-.4 1.6-.5.2 0 .5 0 .5 0 2.1.3 4.1.7 6.1 1.1 2.4.5 6.5 1.6 10.4 1.9C336 272.8 335.5 275.3 335.1 277.2zM318.8 318.6l-16.8-18.5c-1-1.1-2.1-1.6-3.1-1.7-.2-.3-.5-.6-.8-.9-8.8-8-22-3.4-30.5 2.6-11.1 7.9-8.4 21-3.2 31.5 1 2 2.6 2.8 4.3 2.7 1.3 2 4 3.4 6.4 3 14.5-2.4 29.6-2.9 42.8-10C321.2 325.5 321 321.1 318.8 318.6zM279.2 325.7c-.8-.4-1.8-.6-2.9-.5-1 .1-1.9.3-2.7.6 0 0 0-.1 0-.1-2.5-5-5.3-12-.1-16.3 3.9-3.2 12.7-7.8 17.2-3.7 1 .9 2 1.3 3 1.4.2.3.4.7.7 1l11.4 12.5C297.4 323.6 288.2 324.5 279.2 325.7zM231.4 372.3c-9.1-2.3-17.7-6.4-26.8-8.7-9.5-2.4-19.3-3.5-28.3-7.5-2.2-.9-3.9-.4-5.1.8-.2 0-.4.1-.6.1-10 2.9-13.2 13.5-21.3 18.9-4.6 3-3.4 9.7 2.3 10.4 23.8 2.9 47.9 12.2 68.5 24.3 3 1.8 6 .4 7.5-1.9 2.7-.2 5.3-2 5-5.5-.6-6.8-.6-13.9 1.1-20.5.2-.6.2-1.2.2-1.7C236 378.2 235.8 373.4 231.4 372.3zM221.2 398.7c-17.9-9.9-37.6-17.6-57.8-21.5.1-.1.2-.3.3-.4 2.3-2.7 5.4-7.9 9-8.9.6-.2 1.1-.4 1.5-.7 8.6 3.5 18 4.7 27 6.9 7.3 1.8 14.2 4.8 21.3 7.1C221.3 386.8 221 392.8 221.2 398.7zM155.4 329.9c-.1-.4-.2-.9-.3-1.3-.5-2.5-.7-5.1-1-7.7-.7-7.1-1.2-14.3-1.8-21.5-.6-7-1.3-14-2.7-20.9-1-4.8-2.4-10.1-6.5-13.2-1-.8-2.1-1.1-3-1.1-.3-.2-.6-.5-.9-.7-3.5-2.1-10.2-.7-13.9-.3-4.6.5-12.7 1.1-14.3 6.5-2.3 2.1-3.1 6.2-.2 8.7 0 .1.1.2.2.5.4.8.6 1.8.9 2.7.8 2.9 1.1 5.8 1.5 8.8.7 5.2 1 10.4 1.3 15.6.6 8.1 4.1 15.9 4.5 24 .3 7.8-.2 15.8 3.5 22.9 1.7 3.4 5.9 3.7 8.6 1.5l16.4-13.1c.9-.7 1.4-1.5 1.7-2.3.1 0 .3.1.4.1C155.6 340.7 158.9 333.2 155.4 329.9zM140.2 333.2l-9.8 7.8c-.9-6.1-.1-12.7-1.3-18.6-1.5-7.2-3.3-14.2-3.8-21.5-.4-6.3-1-12.5-2.1-18.7-.4-2.4-1-5-2-7.4.2-.1.5-.1.7-.2 1.2-.3 3.4-.5 5.1-.7 1.9-.2 3.9-.3 5.8-.4.7 0 1.4 0 2.1 0 .6.3 1.2.4 1.8.4 0 0 .1.1.1.1.1.1.1.2.2.4.7 1.3.6 1.2.9 2.5.8 2.8 1.3 5.8 1.8 8.7 1.2 7.3 1.7 14.7 2.3 22.1.5 6.6 1 13.2 1.8 19.8.2 1.3.4 2.8.7 4.3C143.1 331.8 141.6 332.1 140.2 333.2zM242.8 341.3c-2-2.5-1.7-6.2-1.7-9.3 0-3.2 1.1-7.8-.7-10.6-3.5-5.4-11.5-8.7-18.2-9.2-1.9-1.1-4.3-1.3-6.5.4-7.9 6.4-15.2 13.6-21.7 21.5-2.9 3.6.9 7.8 4.4 8.4 7.2 1.2 14.4 1.9 21.5 3.6 2.8.7 5.6 1.5 8.3 2.7.6.3 1.2.5 1.8.8.8 1.4 2.2 2.5 4.3 2.7 2.4.2 4.9-.4 6.2-2.7.2-.3.3-.6.4-.9C243.6 347.3 245.2 344.3 242.8 341.3zM230.2 337.6c-2-.6-3.8-1.1-5.4-1.6-5-1.4-10.1-2.2-15.3-2.9 3.4-3.5 7-6.8 10.7-10 3.7-.1 7.1 1.4 9.9 3.7C230.1 330.3 229.8 334 230.2 337.6zM208.8 291.6c-.2-7.5-3.3-16-6.5-22.7-2-4.4-3.9-6.3-8.8-7.3-6.2-1.4-12.7-1.5-18.9-.3-3.2.6-4.2 3.2-3.7 5.7-1.4 1.3-2.3 3.3-2.1 5.2 1.5 14.6 1 29.7 7.1 43.4 1.6 3.5 6 3.6 8.6 1.5l19.6-15.6c1.8-1.4 2.2-3.2 1.8-4.9C207.6 295.7 208.8 294 208.8 291.6zM196.6 293.4l-13.3 10.6c-2.4-8.6-2.7-17.9-3.2-26.8.5-.8.7-1.7.6-2.9-.1-1-.2-1.9-.4-2.8 3.9-.3 7.8.2 11.6 1 1.4 2.4 2.1 5.3 3 7.8 1.2 3.7 2.8 7.8 2.8 11.8 0 .2 0 .4 0 .5C197.4 292.8 197 293.1 196.6 293.4z"/><path d="M472.3 118.2c-6.4-4.9-14-9.5-21.8-12.7 13.8-10.6 31.1-26.6 20.1-42.9-5.7-8.3-16.9-8.1-25-3.8-8.3 4.4-15.1 11.2-22.2 17.3-1.3-8.4-3.4-16.7-7.9-23.8-5.8-9.2-17-14.8-27.7-11.2-9.5 3.2-15.5 12.3-17.1 21.9-1.4 8.2 2.2 16.3 6.1 24.1-2.5-1-4.9-2-7.4-2.9-8.1-2.8-16.3-5.1-24.5-7.9C329.2 71 313.7 65.3 298 60c1.9-16.4-14-32.6-30.2-33.4-10.6-.5-18.6 9.3-23.9 17.3-5.6 8.6-10 19.1-8.7 29.5-16.9 3.9-34.7 3.3-51.7 7.3-8.6 2-17 3.8-25.9 3.7-3.2 0-6.8-.2-10.4.2 1.7-4.6 2.6-9.6 3.2-12.8 2-11.1 4.4-28.1-7-35-11.3-6.9-21.1 5.1-26.3 13.8-4.1 6.9-7.8 15-10.1 23.2-12.2-12.5-30-27.9-44.9-15-7.6 6.6-6.1 17.7-.9 25.3 5.3 7.8 12.8 13.7 19.8 20.1-8.1 2.3-16.2 5.3-22.8 10.6-8.5 6.8-12.8 18.6-7.9 28.8 4.3 9.1 14 14 23.8 14.5 8.3.4 16-4.1 23.2-8.9-.7 2.6-1.4 5.1-2 7.7-1.9 8.4-3.2 16.8-5 25.2-3.3 15.3-6.9 30.5-10.2 45.8-9.8-2.9-21-2.3-30.7-.6-10.8 1.9-24.3 7.2-25.1 19.9-.8 12.6 12.3 20.1 22.2 24.4 8.6 3.8 22.3 8.4 31.7 4 2.2 16.9.1 34.3 2.4 51.3 1.2 8.8 2.2 17.3 1.4 26.1-.3 3.2-.8 6.8-.8 10.3-4.4-2.1-9.3-3.4-12.5-4.3-10.8-3-27.6-6.9-35.5 3.8-7.9 10.7 3.2 21.5 11.4 27.5 6.5 4.7 14.2 9.1 22.1 12.2-13.5 11-30.5 27.3-19 43.3 5.9 8.2 17.1 7.7 25.1 3.2 8.2-4.6 14.8-11.5 21.8-17.9 1.6 8.3 3.8 16.6 8.5 23.6 6 9.1 17.4 14.4 27.9 10.5 9.4-3.5 15.2-12.7 16.6-22.4 1.2-8.3-2.6-16.3-6.7-23.9 2.5 1 5 1.9 7.5 2.7 8.2 2.6 16.5 4.7 24.6 7.3 15.4 4.8 30.7 10 46.1 14.7.1.1.1.2.2.3 6.8 9.4 5.5 22.2 10.5 32.4 5.5 11 19.2 16.1 30.7 11.8 11.3-4.2 17.7-16.1 21.3-26.9 3.4-10.4 4.1-23.2-1.8-32.9.2 0 .3-.1.5-.1 17.9-4.2 36.6-2.9 54.6-6.6 8.7-1.8 17.1-3.4 25.9-3.1 3.2.1 6.8.3 10.4.1-1.8 4.5-2.8 9.5-3.5 12.7-2.2 11-5.1 28 6.1 35.2 11.2 7.2 21.2-4.6 26.7-13.2 4.3-6.8 8.2-14.8 10.7-22.9 11.8 12.8 29.3 28.6 44.5 16.1 7.8-6.4 6.5-17.6 1.6-25.2-5.1-7.9-12.5-14-19.3-20.5 8.2-2.1 16.3-4.9 23-10 8.7-6.6 13.2-18.3 8.6-28.6-4.1-9.2-13.7-14.3-23.4-15.1-8.3-.6-16.1 3.7-23.4 8.3.8-2.5 1.6-5.1 2.2-7.6 2.1-8.3 3.6-16.7 5.6-25.1 3.5-14.8 7.4-29.5 11-44.3 14.2-1.4 34.5-6.4 35.2-23.5.4-9.9-8.1-19.6-17.1-22.4-7.9-2.4-16.1-1.7-24.2-.5-1.8-17 .7-34.3-1.2-51.3-1-8.8-1.8-17.3-.7-26.1.4-3.2 1-6.8 1-10.3 4.3 2.2 9.2 3.7 12.4 4.6 10.8 3.2 27.4 7.6 35.6-2.9C491.2 135.4 480.4 124.3 472.3 118.2zM470 141.3c-4.6.3-9.4-.6-13.9-1.6-5-1.1-9.9-2.7-14.6-4.7-1.6-.7-3-1.5-4.4-2.4-.5-.3-.7-.4-.8-.6-.3-4.9-7.1-8.4-9.8-3.1-.4.9-.7 1.7-.9 2.5-2.9 1-5 3.9-2.9 7.2 2.9 4.6.6 12.5 0 17.5-1 8.8.2 17.7 1.2 26.5 2 17.2-.6 34.5 1.2 51.6-4.1 3-3 10.9 3 10 11.6-1.8 36.1-8 38 10.2 1.1 10.2-19.8 12.5-26.5 13.1-.6 0-1.1.2-1.5.3-2.5-.3-5.1.8-5.9 4-3.8 16.1-8.1 32.1-11.9 48.2-1.9 7.7-3.4 15.5-5.2 23.3-1.6 6.9-4.3 13.7-5.9 20.6-.3.5-.5 1.2-.6 1.9-.1.4-.1.9-.1 1.3 0 .1 0 .2 0 .3-.1 1.9 1.2 3.9 2.9 4.7 0 0 0 0 0 0 1.8.9 3.9.7 5.6-.2 12-6.2 31.8-23.7 42.6-5.9 4.1 6.8-1.9 14.2-7.4 17.7-7.7 4.9-17.4 6.7-26.1 8.6-5.2 1.2-4.8 7.3-1.4 9.8.3.6.6 1.2 1.1 1.8 5.7 6.1 12.1 11.5 17.8 17.5 3.8 4 10.4 11.7 5.1 17-4.5 4.4-13-1-16.6-3.7-7.4-5.7-13.6-12.8-19.8-19.7-2.7-2.9-8.5-1.3-9.1 2.7-1.2 8.1-4.6 16-8.2 23.3-2.1 4.2-4.4 8.4-7.4 12-2 2.4-4.6 4.7-6.7 4.7-1.6 0-3-2.6-3.3-4.5-.7-4.6-.3-9.4.3-14 .7-5.1 1.8-10.1 3.4-14.9.5-1.6 1.2-3.1 2-4.6.3-.5.4-.7.5-.8 4.9-.8 7.7-7.9 2.2-10-.9-.4-1.8-.6-2.6-.7-1.2-2.8-4.3-4.6-7.4-2.2-4.3 3.3-12.4 1.7-17.5 1.6-8.9-.2-17.6 1.8-26.3 3.6-18 3.7-36.7 2.3-54.6 6.6-4 .9-4.7 4.9-3.2 7.7-3.4.7-6.3 4.5-3.9 8.3 4.7 7.4 3 17.3.6 25.2-2.3 7.7-7.5 16.8-15.7 19.4-10.4 3.2-16-5.6-18.2-13.9-2.3-9-3-18.6-8.6-26.4-.5-.6-1-1.1-1.5-1.5-.5-1.3-1.6-2.4-3.4-3-15.8-4.8-31.5-10.2-47.3-15.1-7.6-2.4-15.3-4.4-22.9-6.7-6.8-2.1-13.4-5.2-20.1-7.2-.5-.3-1.1-.5-1.8-.7-.4-.1-.9-.2-1.3-.2-.1 0-.2 0-.3 0-1.9-.2-4 1-4.9 2.6 0 0 0 0 0 0-1 1.7-1 3.9-.1 5.6 5.4 12.4 21.5 33.3 3.1 42.9-7 3.6-14-2.8-17.1-8.6-4.4-8-5.5-17.8-6.9-26.7-.8-5.2-7-5.3-9.6-2-.6.2-1.2.5-1.8 1-6.5 5.3-12.2 11.3-18.7 16.6-4.3 3.5-12.4 9.6-17.3 4-4.1-4.7 1.8-12.9 4.8-16.3 6.1-7 13.7-12.7 20.9-18.5 3.1-2.5 1.8-8.4-2.1-9.3-8-1.7-15.7-5.7-22.7-9.7-4.1-2.3-8.1-5-11.5-8.2-2.3-2.1-4.4-4.9-4.2-7 .1-1.6 2.8-2.9 4.7-3 4.6-.4 9.4.3 13.9 1.2 5 1 9.9 2.5 14.7 4.4 1.6.6 3 1.4 4.5 2.3.5.3.7.4.8.5.5 4.9 7.4 8.2 9.9 2.8.4-.9.7-1.7.8-2.6 2.9-1.1 4.9-4 2.7-7.3-3.1-4.5-.9-12.4-.4-17.5.8-8.8-.6-17.7-1.8-26.4-2.5-18.2.1-36.8-3-54.9-.6-3.7-4-4.8-6.8-3.9-1.6-1.9-4.2-2.8-6.8-.9-5.7 4.2-17.5-.6-23.4-3-5.3-2.2-17.2-7.3-16.2-14.5 1-7.3 13.7-9.1 19.3-9.8 7.6-.9 17.5-1.4 24.4 1.5 2.8 1.2 5.4 0 6.8-2 2-.2 3.9-1.5 4.4-4.1 3.4-16.2 7.3-32.3 10.8-48.5 1.7-7.8 3-15.6 4.6-23.4 1.4-7 3.9-13.8 5.4-20.7.3-.6.4-1.2.5-1.9.1-.4.1-.9 0-1.3 0-.1 0-.2 0-.3 0-1.9-1.3-3.9-3-4.7 0 0 0 0 0 0-1.8-.8-4-.6-5.6.4-11.9 6.5-31.2 24.5-42.4 6.9-4.3-6.7 1.5-14.2 7-17.8 7.6-5.1 17.2-7.1 25.9-9.3 5.2-1.3 4.6-7.5 1.1-9.8-.3-.6-.6-1.2-1.2-1.7-5.8-6-12.4-11.2-18.2-17.1-3.9-3.9-10.7-11.5-5.5-16.9 4.4-4.5 13 .6 16.7 3.3 7.5 5.5 13.9 12.5 20.3 19.2 2.7 2.9 8.5 1.1 9-2.9 1-8.1 4.2-16.1 7.6-23.5 2-4.3 4.2-8.5 7.1-12.2 1.9-2.5 4.5-4.8 6.6-4.8 1.6 0 3.1 2.5 3.4 4.4.8 4.6.5 9.4 0 14-.5 5.1-1.6 10.1-3 15-.5 1.6-1.1 3.2-1.9 4.7-.3.5-.4.7-.5.8-4.9.9-7.5 8.1-1.9 10.1.9.3 1.8.5 2.6.6 1.3 2.8 4.5 4.5 7.5 2 4.2-3.5 12.3-2 17.4-2 8.9 0 17.6-2.2 26.2-4.2 17.9-4.2 36.6-3.2 54.4-7.9 2.3-.6 3.4-2.1 3.7-3.9 1.4-1.2 2.2-3.2 1.6-5.5-2.2-7.8 1.9-16.2 5.8-22.8 3.1-5.2 8.4-13.1 15.1-13.5 9.7-.6 23.2 13.1 19.4 23.1-1.6 4.2 1.8 7.7 5.1 8.1.6.7 1.4 1.3 2.5 1.6 15.7 5.2 31.2 10.9 46.9 16.3 7.5 2.6 15.2 4.8 22.7 7.3 6.7 2.2 13.2 5.5 20 7.7.5.3 1.1.6 1.8.7.4.1.9.2 1.3.2.1 0 .2 0 .3 0 1.9.2 4-.9 5-2.4 0 0 0 0 0 0 1-1.7 1.1-3.9.3-5.6-5.1-12.5-20.7-33.8-2-42.9 7.1-3.5 14 3.2 16.9 9 4.2 8.1 5.1 17.9 6.2 26.8.7 5.3 6.9 5.4 9.6 2.3.6-.2 1.2-.5 1.9-1 6.6-5.1 12.5-11 19.1-16.1 4.3-3.4 12.6-9.3 17.4-3.6 4 4.8-2.1 12.8-5.2 16.2-6.3 6.8-14 12.4-21.4 18-3.2 2.4-2 8.4 1.9 9.3 7.9 1.9 15.5 6.1 22.5 10.3 4 2.4 7.9 5.2 11.3 8.5 2.2 2.2 4.2 5 4 7.1C474.7 140 472 141.2 470 141.3zM291.8 119C291.8 119 291.8 119 291.8 119 291.8 119 291.8 119 291.8 119 291.8 119 291.8 119 291.8 119z"/><path d="M365.5 119.2c-23.8-3.5-47.5-13.4-67.9-26-3.9-2.4-7.9.6-8.5 4.1-.9 0-1.7.3-2.6.8-2.1 1.3-3.2 4.5-2.1 6.8-.1.5-.3 1-.4 1.4-.3 1-1.5 4-2.1 6-1.3 4.1-1.5 8.1.4 11.7-1.2 2.7-.6 6.2 3.1 7.2 9 2.5 17.5 6.8 26.6 9.4 9.4 2.7 19.2 4 28.1 8.2 2.1 1 3.9.5 5.2-.7.2 0 .4-.1.6-.1 10-2.6 13.5-13.2 21.7-18.4C372.1 126.7 371.2 120.1 365.5 119.2zM353 128.5c-2.4 2.7-5.6 7.8-9.2 8.7-.6.2-1.1.4-1.5.6-8.5-3.7-17.8-5.2-26.8-7.6-7.7-2.1-14.9-5.5-22.4-8.1-.1-1.1-.6-2.2-1.3-3.1 0 .1.1.1.1.2 0-.1-.1-.2-.1-.2v0c0 0 0 0 0 0-.1-.1-.1-.1-.1-.1-.1-.1-.2-.3-.3-.4.2.1.3.3.4.6 0-.1 0-.1 0-.2 0-.5 0-.6 0-.4.1-.5.1-.9.2-1.4.4-2.1.9-3.2 1.5-4.9.8-2.1 1.8-4.8 2-7.3 17.8 10.5 37.6 18.8 57.8 23.3C353.2 128.2 353.1 128.4 353 128.5zM403.6 228.1c0-.1-.1-.2-.2-.5-.4-.8-.6-1.8-.8-2.7-.7-2.9-1-5.9-1.3-8.8-.5-5.2-.7-10.4-1-15.7-.4-8.1-3.7-16-3.9-24.1-.1-7.8.6-15.8-3-23-1.7-3.4-5.8-3.8-8.6-1.7l-16.7 12.7c-.9.7-1.5 1.5-1.8 2.3-.1 0-.2-.1-.4-.1-5.8-1.7-9.3 5.7-5.9 9.1.1.4.2.9.2 1.3.4 2.5.6 5.1.8 7.7.6 7.2.8 14.3 1.3 21.5.4 7 1 14.1 2.2 21 .9 4.8 2.1 10.2 6.2 13.3 2.4 1.9 5 1.2 6.6-.5.4-.1.8-.3 1.1-.5.1 0 .1-.1.2-.1.1 0 .2-.1.4-.1.8-.3 1.6-.5 2.5-.7 1.7-.4 3.6-.5 5.3-.5 1.7-.1 3.4-.1 5.2.1-.1 0 1.2.2 1.5.3 0 0 .1 0 .1 0 2.2 1.5 4.7 1.1 6.4-.3C404.5 238 407.6 231.7 403.6 228.1zM387.3 227c-3.6.1-7.5.4-11 1.6-.7-2.8-1.1-5.7-1.5-8.6-1-7.3-1.4-14.8-1.8-22.2-.4-6.6-.7-13.2-1.3-19.8-.1-1.3-.3-2.8-.6-4.3 1.4.3 3 0 4.4-1.1l10-7.6c.7 6.1-.2 12.7.8 18.6 1.3 7.2 2.9 14.3 3.3 21.6.3 6.3.6 12.6 1.6 18.8.2 1 .3 2 .5 3C390.2 226.9 388.7 227 387.3 227zM317.5 161.8c-7.1-1.4-14.4-2.3-21.4-4.1-2.8-.7-5.6-1.7-8.2-2.9-.6-.3-1.2-.6-1.8-.8-.8-1.5-2.2-2.6-4.3-2.8-1.8-.2-3.7.1-5.1 1.2-3.1-.6-6.8 1.3-6.7 5.5.1 4.6-2.3 9.1-3.5 13.4-1.2 4.3-.8 9.5 1.5 13.5 2.1 3.6 5.3 5.7 9.4 6.5 3.9.8 8.2-.2 12 1.3 1.9.8 3.6.5 5-.3 1.6.5 3.4.3 5-1 8.1-6.2 15.6-13.3 22.2-21C324.7 166.9 321 162.5 317.5 161.8zM293.1 182.3c-2.8-1-5.6-1.4-8.7-1.5-1.6-.1-5.4.5-6.6-1-2.1-2.8-.3-7 .6-9.8.7-2.1 1.4-4.1 1.9-6.2 3.4 1.8 7.7 3.1 10.6 4 4.9 1.5 10.1 2.5 15.2 3.3C302 175 297.6 178.8 293.1 182.3zM345.4 233c-1.1-14.7-.2-29.7-6.1-43.6-1.5-3.5-5.9-3.7-8.6-1.7l-19.9 15.1c-2.3 1.8-2.5 4.2-1.4 6.2-2.8.7-5.2 3.3-4.3 6.9 1.9 7.4 0 15 7 20.3 7 5.3 15.1 2.3 22.8 4.5 2 .6 3.6.1 4.7-1C342.6 239.7 345.6 236.3 345.4 233zM333.6 229.4c-4.7-.4-9.7.5-14.1-1.5-4.3-1.9-2.9-11.4-3.9-15.3 0-.2-.1-.3-.1-.4.9-.1 1.8-.5 2.6-1.1l13.5-10.2c2.2 8.7 2.3 17.9 2.6 26.9C333.9 228.2 333.7 228.7 333.6 229.4zM288.5 251.5c-2.2-11.6.7-24.9-6.2-35.3-1-1.6-2.9-2.7-4.9-2.5-16.6 1.5-38.5 3.4-50.9 16.2-2.5.4-4.6 2.2-4.3 5.4 1.4 14 2.2 28.5 7.1 41.9.6 1.7 1.8 2.8 3.2 3.3 2 2.9 3.9 5.8 6.9 7.7 4.2 2.7 9.7 2.4 14.4 1.6 10-1.7 22.3-2.5 30.7-8.8C293.7 274.2 290.3 260.8 288.5 251.5zM278.3 272.1c-2 2.3-6.9 3-9.7 3.7-4 1.1-8.1 1.8-12.2 2.5-3.1.5-7.4 2-10.4.9-2.6-1-4.3-5.2-5.9-7.3-.4-.5-.8-.9-1.2-1.2-3.3-10.4-4.2-21.4-5.2-32.3 5.1-5.7 13-8.1 20.2-10 6.8-1.8 13.7-2.7 20.7-3.4 3 7.2 1.3 16.2 2.4 23.7.6 4.2 1.5 8.3 2.1 12.5C279.6 264.3 280.6 269.5 278.3 272.1z"/></svg>