<svg xmlns="http://www.w3.org/2000/svg" viewBox="0 0 16 16"><path d="M 3.4941406 1.9941406 A 0.50005 0.50005 0 0 0 3.1464844 2.8535156 L 4.7929688 4.5 L 3.1464844 6.1464844 A 0.50005 0.50005 0 1 0 3.8535156 6.8535156 L 5.5 5.2070312 L 7.1464844 6.8535156 A 0.50005 0.50005 0 1 0 7.8535156 6.1464844 L 6.2070312 4.5 L 7.8535156 2.8535156 A 0.50005 0.50005 0 0 0 7.4902344 1.9960938 A 0.50005 0.50005 0 0 0 7.1464844 2.1464844 L 5.5 3.7929688 L 3.8535156 2.1464844 A 0.50005 0.50005 0 0 0 3.4941406 1.9941406 z M 1.5 4 A 0.50005 0.50005 0 1 0 1.5 5 L 3.5 5 A 0.50005 0.50005 0 1 0 3.5 4 L 1.5 4 z M 7.5 4 A 0.50005 0.50005 0 1 0 7.5 5 L 14.5 5 A 0.50005 0.50005 0 1 0 14.5 4 L 7.5 4 z M 8.4941406 8.9941406 A 0.50005 0.50005 0 0 0 8.1464844 9.8535156 L 9.7929688 11.5 L 8.1464844 13.146484 A 0.50005 0.50005 0 1 0 8.8535156 13.853516 L 10.5 12.207031 L 12.146484 13.853516 A 0.50005 0.50005 0 1 0 12.853516 13.146484 L 11.207031 11.5 L 12.853516 9.8535156 A 0.50005 0.50005 0 0 0 12.490234 8.9960938 A 0.50005 0.50005 0 0 0 12.146484 9.1464844 L 10.5 10.792969 L 8.8535156 9.1464844 A 0.50005 0.50005 0 0 0 8.4941406 8.9941406 z M 1.5 11 A 0.50005 0.50005 0 1 0 1.5 12 L 8.5 12 A 0.50005 0.50005 0 1 0 8.5 11 L 1.5 11 z M 12.5 11 A 0.50005 0.50005 0 1 0 12.5 12 L 14.5 12 A 0.50005 0.50005 0 1 0 14.5 11 L 12.5 11 z"/></svg>