<svg xmlns="http://www.w3.org/2000/svg" viewBox="0 0 64 64"><path d="M 18.445313 6.007813 C 14.207031 6.007813 9.964844 7.621094 6.738281 10.847656 C 0.285156 17.304688 0.285156 27.808594 6.738281 34.261719 L 29.832031 57.359375 C 30.398438 57.925781 31.152344 58.234375 31.953125 58.234375 C 32.757813 58.234375 33.507813 57.925781 34.078125 57.359375 L 46.046875 45.375 C 46.648438 44.921875 47.230469 44.4375 47.78125 43.890625 L 57.074219 34.597656 C 59.542969 32.125 61.066406 29.066406 61.65625 25.863281 C 62.71875 20.601563 61.222656 14.921875 57.152344 10.847656 C 50.695313 4.394531 40.191406 4.394531 33.734375 10.847656 L 33.53125 11.058594 L 31.945313 12.640625 L 30.152344 10.847656 C 26.925781 7.621094 22.683594 6.007813 18.445313 6.007813 Z M 18.441406 8.007813 C 22.167969 8.007813 25.894531 9.425781 28.734375 12.265625 L 30.527344 14.058594 L 24.234375 20.347656 C 17.742188 26.839844 17.742188 37.402344 24.234375 43.890625 C 27.480469 47.136719 31.742188 48.761719 36.003906 48.761719 C 37.503906 48.761719 38.996094 48.546875 40.449219 48.148438 L 32.660156 55.941406 C 32.28125 56.320313 31.621094 56.320313 31.246094 55.941406 L 8.148438 32.847656 C 2.476563 27.175781 2.476563 17.941406 8.148438 12.265625 C 10.988281 9.425781 14.714844 8.007813 18.441406 8.007813 Z M 45.296875 8.1875 C 49.046875 8.1875 52.800781 9.613281 55.65625 12.46875 C 59.1875 16.003906 60.527344 20.90625 59.691406 25.484375 C 59.140625 28.183594 57.828125 30.757813 55.734375 32.847656 L 44.726563 43.867188 C 39.199219 47.976563 31.425781 47.683594 26.21875 42.992188 L 30.578125 38.636719 C 30.96875 38.242188 30.96875 37.613281 30.578125 37.21875 C 30.183594 36.828125 29.554688 36.828125 29.160156 37.21875 L 24.820313 41.5625 C 19.960938 35.8125 20.234375 27.179688 25.648438 21.765625 L 31.941406 15.46875 L 34.941406 12.46875 C 37.796875 9.617188 41.546875 8.1875 45.296875 8.1875 Z M 19 11 C 18.449219 11 18 11.449219 18 12 L 18 14 C 18 14.550781 18.449219 15 19 15 C 19.550781 15 20 14.550781 20 14 L 20 12 C 20 11.449219 19.550781 11 19 11 Z M 13.375 12.480469 C 13.246094 12.496094 13.117188 12.539063 13 12.609375 C 12.519531 12.882813 12.359375 13.496094 12.636719 13.972656 L 13.636719 15.703125 C 13.820313 16.027344 14.15625 16.203125 14.5 16.203125 C 14.671875 16.203125 14.84375 16.164063 15 16.074219 C 15.480469 15.796875 15.640625 15.183594 15.363281 14.703125 L 14.363281 12.972656 C 14.15625 12.617188 13.761719 12.433594 13.375 12.480469 Z M 24.625 12.480469 C 24.234375 12.433594 23.839844 12.617188 23.636719 12.972656 L 22.636719 14.703125 C 22.359375 15.183594 22.519531 15.796875 23 16.074219 C 23.15625 16.164063 23.328125 16.203125 23.5 16.203125 C 23.84375 16.203125 24.179688 16.027344 24.363281 15.703125 L 25.363281 13.972656 C 25.640625 13.496094 25.476563 12.882813 25 12.609375 C 24.878906 12.539063 24.753906 12.496094 24.625 12.480469 Z M 9.597656 16.507813 C 9.210938 16.460938 8.816406 16.640625 8.609375 17 C 8.332031 17.476563 8.496094 18.089844 8.972656 18.363281 L 10.703125 19.363281 C 10.863281 19.457031 11.035156 19.5 11.203125 19.5 C 11.550781 19.5 11.886719 19.320313 12.070313 19 C 12.347656 18.523438 12.183594 17.910156 11.703125 17.636719 L 9.976563 16.636719 C 9.855469 16.566406 9.726563 16.523438 9.597656 16.507813 Z M 8 22 C 7.449219 22 7 22.449219 7 23 C 7 23.550781 7.449219 24 8 24 L 10 24 C 10.550781 24 11 23.550781 11 23 C 11 22.449219 10.550781 22 10 22 Z M 37.503906 27.296875 C 36.738281 27.292969 35.96875 27.585938 35.386719 28.171875 L 31.3125 32.242188 C 30.144531 33.414063 30.144531 35.316406 31.3125 36.484375 C 31.898438 37.070313 32.667969 37.363281 33.4375 37.363281 C 34.203125 37.363281 34.972656 37.070313 35.558594 36.484375 L 39.625 32.414063 C 40.796875 31.246094 40.796875 29.34375 39.625 28.171875 C 39.042969 27.589844 38.273438 27.296875 37.503906 27.296875 Z M 37.503906 29.292969 C 37.761719 29.292969 38.019531 29.390625 38.214844 29.585938 C 38.605469 29.976563 38.601563 30.609375 38.214844 31 L 34.140625 35.070313 C 33.753906 35.460938 33.117188 35.460938 32.730469 35.070313 C 32.539063 34.882813 32.4375 34.628906 32.4375 34.363281 C 32.4375 34.097656 32.539063 33.84375 32.730469 33.65625 L 36.796875 29.585938 C 36.992188 29.390625 37.25 29.292969 37.503906 29.292969 Z"/></svg>