<svg xmlns="http://www.w3.org/2000/svg" viewBox="0 0 26 26"><path d="M 15.101563 17.800781 C 15.101563 17.800781 15.199219 17.898438 15.199219 17.898438 C 15.199219 17.898438 13 18.898438 12.101563 19.398438 C 10.800781 20 8 21.398438 7.699219 21.601563 C 7.398438 21.800781 7.199219 21.898438 7.101563 21.800781 C 6.898438 21.699219 6.699219 21.5 6.5 21 C 6.300781 20.601563 6.300781 20.199219 6.398438 20 C 6.398438 19.898438 6.398438 19.800781 6.601563 19.601563 C 6.699219 19.601563 7.101563 19.300781 7.199219 19.199219 C 7.398438 19.101563 7.800781 18.898438 7.898438 18.800781 C 8 18.800781 8 18.800781 8 18.800781 C 8 18.898438 8 19.101563 8.101563 19.101563 C 8.101563 19.101563 8.199219 19.101563 8.199219 19.101563 C 8.199219 19.199219 8.199219 19.199219 8.300781 19.199219 C 8.300781 19.199219 8.398438 19.199219 8.398438 19.199219 C 8.398438 19.199219 8.398438 19.300781 8.398438 19.300781 C 8.398438 19.300781 8.5 19.300781 8.5 19.300781 C 8.601563 19.300781 8.601563 19.398438 8.601563 19.398438 C 8.601563 19.5 8.601563 19.5 8.699219 19.398438 C 8.800781 19.398438 8.800781 19.398438 8.800781 19.398438 C 8.800781 19.398438 8.898438 19.398438 8.898438 19.398438 C 8.898438 19.398438 9 19.5 9 19.5 C 9 19.5 9.101563 19.5 9.101563 19.5 C 9.101563 19.5 9.101563 19.601563 9.199219 19.601563 C 9.199219 19.601563 9.300781 19.5 9.300781 19.601563 C 9.398438 19.699219 9.199219 19.800781 9.300781 19.800781 C 9.300781 19.800781 9.398438 19.800781 9.398438 19.800781 C 9.398438 19.800781 9.5 19.800781 9.5 19.800781 C 9.5 19.800781 9.601563 19.800781 9.601563 19.800781 C 9.601563 19.800781 9.699219 19.800781 9.699219 19.800781 C 9.699219 19.800781 9.800781 19.800781 9.800781 19.800781 C 9.800781 19.800781 9.800781 19.699219 9.898438 19.699219 C 10 19.699219 9.898438 19.800781 9.898438 19.800781 C 9.898438 19.800781 10 19.800781 10 19.800781 C 10.101563 19.800781 10.101563 19.699219 10.101563 19.699219 C 10.101563 19.601563 10.199219 19.5 10.199219 19.398438 C 10.199219 19.398438 10.300781 19.199219 10.398438 19.101563 C 10.398438 19 10.601563 18.800781 10.601563 18.699219 C 10.601563 18.699219 10.699219 18.601563 10.699219 18.601563 C 10.699219 18.601563 10.699219 18.5 10.800781 18.398438 C 10.800781 18.300781 11 18.199219 11 18.101563 C 11 18.101563 11.101563 17.898438 11.101563 17.800781 C 11.101563 17.699219 11.199219 17.601563 11.300781 17.5 C 11.300781 17.398438 11.398438 17.300781 11.398438 17.300781 L 11.5 17.199219 C 11.5 17.199219 11.5 17.101563 11.601563 17.101563 C 11.601563 17 11.699219 16.898438 11.800781 16.800781 C 11.800781 16.699219 11.898438 16.601563 11.898438 16.601563 L 12 16.398438 L 12.101563 16.300781 C 12.101563 16.300781 12.101563 16.199219 12.199219 16.101563 C 12.199219 16.101563 12.300781 16 12.300781 15.898438 C 12.300781 15.898438 12.398438 15.601563 12.398438 15.601563 C 12.398438 15.5 12.601563 15.300781 12.601563 15.199219 C 12.601563 15.101563 12.800781 14.898438 12.800781 14.800781 C 12.800781 14.699219 12.800781 14.699219 12.800781 14.601563 C 12.800781 14.601563 12.898438 14.5 12.898438 14.398438 C 12.898438 14.398438 13 14.101563 13 14.101563 C 13 14.101563 13 14 13.101563 14 C 13.101563 14 13.199219 14 13.199219 14.101563 C 13.199219 14.101563 13.300781 14.101563 13.300781 14.199219 C 13.300781 14.199219 13.5 14.398438 13.5 14.398438 C 13.5 14.398438 13.601563 14.398438 13.601563 14.398438 C 13.601563 14.398438 13.601563 14.5 13.601563 14.5 C 13.601563 14.5 13.699219 14.601563 13.699219 14.601563 C 13.699219 14.601563 13.699219 14.699219 13.800781 14.699219 C 13.800781 14.699219 13.898438 14.800781 14 14.800781 C 14 14.800781 14.199219 15 14.199219 15.101563 C 14.199219 15.101563 14.199219 15.199219 14.300781 15.199219 C 14.300781 15.199219 14.398438 15.300781 14.398438 15.300781 C 14.398438 15.300781 14.398438 15.398438 14.398438 15.398438 C 14.398438 15.398438 14.5 15.5 14.5 15.5 C 14.5 15.5 14.5 15.601563 14.601563 15.601563 C 14.601563 15.601563 14.601563 15.601563 14.699219 15.699219 C 14.699219 15.699219 14.699219 15.800781 14.699219 15.898438 C 14.699219 15.898438 14.800781 16 14.800781 16 C 14.800781 16 14.898438 16.101563 14.898438 16.101563 C 14.898438 16.101563 14.898438 16.199219 14.898438 16.300781 C 14.898438 16.300781 15 16.398438 15 16.398438 C 15 16.398438 15 16.5 15 16.5 L 15 16.601563 C 15 16.601563 15 16.699219 15 16.699219 C 15 16.699219 15 16.800781 15 16.800781 C 15 16.800781 15 16.898438 15 16.898438 C 15 16.898438 15.101563 17 15.101563 17 C 15.101563 17 15.101563 17.101563 15.101563 17.101563 C 15.101563 17.101563 15.199219 17.199219 15.199219 17.199219 C 15.199219 17.199219 15.199219 17.300781 15.199219 17.300781 C 15.101563 17.699219 15.101563 17.699219 15.101563 17.800781 Z M 3.398438 11.699219 C 3.5 11.699219 3.5 11.699219 3.5 11.699219 C 3.5 11.699219 3.5 11.800781 3.5 11.800781 C 3.5 11.800781 3.5 11.898438 3.601563 11.898438 C 3.601563 11.898438 3.699219 11.898438 3.699219 11.898438 C 3.699219 11.898438 3.699219 12 3.699219 12 C 3.800781 12.101563 3.699219 12.398438 3.800781 12.398438 C 3.898438 12.398438 4 12.398438 4.101563 12.300781 C 4.199219 12.199219 4.199219 12.199219 4.300781 12.101563 C 4.398438 12.101563 4.5 12 4.601563 12 C 4.699219 12 4.699219 11.898438 4.800781 11.898438 C 4.898438 11.898438 4.800781 11.800781 4.898438 11.800781 C 5 11.800781 5 11.699219 5.101563 11.800781 C 5.101563 11.800781 5.101563 11.898438 5.199219 11.898438 C 5.300781 11.898438 5.300781 11.898438 5.300781 12 C 5.300781 12.101563 5.5 12 5.5 12 C 5.5 12 5.699219 11.898438 5.699219 11.898438 C 5.800781 11.898438 6 11.800781 6 11.800781 C 6 11.800781 6.199219 11.699219 6.199219 11.699219 C 8.5 10.601563 10.398438 10 12.101563 9.300781 C 14.699219 8.300781 19.300781 7.101563 20.199219 6.898438 C 20.300781 6.898438 20.5 6.800781 20.5 6.800781 C 20.5 6.800781 20.601563 6.800781 20.601563 6.699219 C 20.601563 6.601563 20.601563 6.5 20.601563 6.5 C 20.601563 6.5 20.699219 6.300781 20.699219 6.199219 C 20.5 6 20.398438 6 20.398438 6 C 20.398438 6 20.398438 5.898438 20.398438 5.800781 C 20.398438 5.699219 20.300781 5.699219 20.199219 5.601563 C 20.199219 5.5 20.199219 5.398438 20.199219 5.300781 C 20.199219 5.199219 20.101563 5.199219 20.101563 5.199219 C 20.101563 5.199219 20.101563 5.199219 20.101563 5.101563 C 20.101563 5.101563 20 5.101563 20 5.101563 C 20 5.101563 20 5 20 5 C 20 5 19.898438 4.898438 19.898438 4.898438 C 19.898438 4.898438 20 5 20 4.898438 C 20 4.898438 20 4.800781 20 4.800781 C 20 4.800781 19.898438 4.800781 19.800781 4.800781 C 19.800781 4.800781 19.699219 4.800781 19.601563 4.800781 C 19.5 4.800781 19.5 4.898438 19.398438 4.898438 C 19.300781 4.898438 19.199219 4.898438 19.101563 4.898438 C 19 4.898438 19 5 18.898438 5 C 18.199219 5.199219 15 6.101563 12.601563 7 C 10.398438 7.800781 7.699219 9 6.101563 9.898438 C 4.898438 10.5 4.199219 10.898438 4 11.101563 C 3.898438 11.199219 3.699219 11.300781 3.699219 11.300781 C 3.699219 11.398438 3.601563 11.5 3.5 11.5 C 3.398438 11.5 3.398438 11.601563 3.398438 11.601563 C 3.398438 11.601563 3.300781 11.601563 3.300781 11.699219 C 3.300781 11.601563 3.300781 11.601563 3.398438 11.699219 C 3.300781 11.699219 3.398438 11.699219 3.398438 11.699219 Z M 22.699219 9.601563 C 22.800781 9.5 22.898438 9.5 22.898438 9.300781 C 22.800781 9 22.699219 8.5 22.5 8.199219 C 22.300781 7.800781 22.101563 7.601563 21.898438 7.398438 C 21.800781 7.300781 21.800781 7.300781 21.601563 7.398438 C 20.898438 7.601563 18.199219 8.5 17.300781 8.800781 C 16.199219 9 14.199219 9.699219 13.398438 10 C 13.300781 10.101563 13.199219 10.101563 13.300781 10.199219 C 13.398438 10.300781 13.398438 10.300781 13.5 10.300781 C 13.5 10.300781 13.699219 10.5 13.800781 10.5 C 13.898438 10.601563 14 10.800781 14.101563 10.800781 C 14.101563 10.800781 14.199219 10.898438 14.199219 10.898438 C 14.300781 10.898438 14.300781 11 14.300781 11 L 14.398438 11.101563 L 14.5 11.199219 C 14.5 11.199219 14.601563 11.300781 14.601563 11.300781 C 14.601563 11.300781 14.699219 11.398438 14.699219 11.398438 C 14.699219 11.398438 14.800781 11.5 14.800781 11.5 C 14.800781 11.5 15 11.699219 15 11.699219 C 15 11.699219 15.199219 11.898438 15.199219 11.898438 C 15.199219 11.898438 15.5 12.199219 15.5 12.199219 C 15.5 12.199219 15.601563 12.300781 15.601563 12.398438 C 15.699219 12.601563 15.699219 12.5 15.898438 12.398438 C 16.398438 12.101563 17.898438 11.398438 18.699219 11 C 19.898438 10.800781 21.898438 9.898438 22.699219 9.601563 Z M 26 11.800781 C 25.898438 11.398438 25.699219 10.898438 25.601563 10.699219 C 25.5 10.601563 25.5 10.5 25.300781 10.601563 C 24.898438 10.699219 22.398438 11.199219 20.601563 11.699219 C 18.800781 12.199219 16.800781 12.800781 16.5 12.898438 C 16.398438 12.898438 16.300781 12.898438 16.398438 13 C 16.5 13.101563 16.5 13.101563 16.601563 13.199219 C 16.601563 13.199219 16.699219 13.300781 16.800781 13.300781 C 16.898438 13.300781 16.898438 13.398438 16.898438 13.398438 C 16.898438 13.398438 17 13.5 17 13.601563 C 17 13.601563 17.101563 13.800781 17.101563 13.800781 C 17.101563 13.800781 17.199219 13.898438 17.199219 13.898438 C 17.199219 13.898438 17.199219 14 17.300781 14 C 17.300781 14 17.398438 14.101563 17.398438 14.199219 C 17.398438 14.199219 17.5 14.5 17.5 14.5 L 21 14.398438 C 21 14.398438 21.699219 14.199219 22.199219 14 C 22.601563 13.898438 23.699219 13.5 24.101563 13.398438 C 24.5 13.300781 25.300781 13.101563 25.5 13 C 25.800781 12.898438 26 12.898438 26 12.800781 C 26 12.800781 26.101563 12.300781 26 11.800781 Z M 10.699219 5.199219 C 10.699219 5.300781 10.800781 5.300781 10.800781 5.398438 C 10.800781 5.398438 10.800781 5.5 10.898438 5.5 C 10.898438 5.5 10.898438 5.5 11 5.601563 C 11 5.601563 11 5.699219 11.101563 5.699219 C 11.101563 5.699219 11.101563 5.800781 11.199219 5.800781 C 11.199219 5.800781 11.300781 5.898438 11.300781 6 C 11.300781 6.101563 11.398438 6.101563 11.5 6.101563 C 11.601563 6.101563 11.601563 6.199219 11.601563 6.199219 C 11.601563 6.199219 11.699219 6.199219 11.800781 6.199219 C 11.800781 6.199219 12 6.199219 12 6.199219 C 12 6.199219 12.101563 6.199219 12.101563 6.199219 C 12.101563 6.199219 12.101563 6.199219 12.101563 6.300781 C 12.101563 6.300781 12.199219 6.300781 12.300781 6.300781 C 12.398438 6.300781 12.5 6.300781 12.5 6.199219 C 12.5 6.199219 12.601563 6.101563 12.601563 6.101563 C 12.601563 6.101563 12.699219 6 12.699219 6 C 12.699219 5.898438 12.800781 6 12.800781 5.898438 C 12.800781 5.898438 12.898438 5.800781 12.898438 5.800781 C 12.898438 5.800781 13 5.699219 13.101563 5.601563 C 13.101563 5.601563 13.398438 5.199219 13.398438 5.199219 C 13.398438 5.199219 13.5 5 13.5 5 C 13.5 5 13.601563 4.699219 13.601563 4.601563 C 13.601563 4.601563 13.699219 4.398438 13.699219 4.398438 C 13.699219 4.300781 13.699219 4.199219 13.699219 4.101563 C 13.699219 4 13.699219 3.898438 13.800781 3.800781 C 13.800781 3.699219 13.699219 3.5 13.699219 3.5 C 13.699219 3.5 13.699219 3.398438 13.699219 3.398438 C 13.699219 3.398438 13.699219 3.398438 13.699219 3.300781 C 13.699219 3.300781 13.699219 3.199219 13.699219 3.199219 C 13.699219 3.101563 13.601563 3.101563 13.601563 3 C 13.601563 2.898438 13.5 2.898438 13.5 2.800781 C 13.5 2.699219 13.398438 2.699219 13.398438 2.699219 C 13.398438 2.699219 13.398438 2.601563 13.398438 2.601563 C 13.398438 2.5 13.101563 2.300781 13.101563 2.300781 C 13.101563 2.300781 13 2.300781 13 2.199219 C 13 2.199219 12.898438 2.199219 12.898438 2.199219 C 12.800781 2.199219 12.800781 2.199219 12.800781 2.199219 C 12.800781 2.199219 12.699219 2.199219 12.601563 2.199219 C 12.601563 2.199219 12.5 2.300781 12.5 2.300781 C 12.398438 2.300781 12.300781 2.300781 12.300781 2.300781 C 12.300781 2.300781 12.199219 2.300781 12.199219 2.300781 C 12.199219 2.300781 12.101563 2.398438 12.101563 2.398438 L 12 2.398438 C 12 2.398438 11.898438 2.398438 11.898438 2.398438 C 11.898438 2.398438 11.699219 2.5 11.699219 2.601563 C 11.699219 2.601563 11.5 2.699219 11.5 2.800781 C 11.398438 2.800781 11.199219 3.101563 11.199219 3.101563 C 11.199219 3.199219 11 3.300781 11 3.398438 C 11 3.5 10.898438 3.601563 10.898438 3.699219 C 10.898438 3.800781 10.800781 3.898438 10.800781 4 C 10.800781 4.101563 10.699219 4.300781 10.699219 4.300781 C 10.699219 4.398438 10.699219 4.398438 10.601563 4.5 C 10.601563 4.601563 10.601563 4.699219 10.601563 4.800781 C 10.601563 4.898438 10.601563 5.101563 10.699219 5.199219 C 10.601563 5.101563 10.601563 5.101563 10.699219 5.199219 Z M 8.101563 18.101563 C 8.101563 18.101563 8.101563 18 8.101563 17.898438 C 8.101563 17.898438 8.199219 17.800781 8.199219 17.699219 C 8.199219 17.601563 8.300781 17.398438 8.300781 17.300781 C 8.398438 17.199219 8.398438 17.101563 8.398438 17 C 8.398438 16.898438 8.5 16.800781 8.5 16.699219 C 8.5 16.601563 8.601563 16.300781 8.601563 16.300781 C 8.601563 16.199219 8.699219 16.101563 8.800781 16 C 8.800781 15.898438 8.898438 15.699219 8.898438 15.601563 C 8.898438 15.398438 9.101563 15 9.199219 14.898438 C 9.199219 14.800781 9.300781 14.601563 9.300781 14.5 C 9.300781 14.5 9.398438 14.300781 9.398438 14.300781 L 9.398438 14.101563 C 9.398438 14.101563 9.5 14 9.5 13.898438 C 9.5 13.898438 9.601563 13.601563 9.601563 13.5 C 9.601563 13.5 9.699219 13.199219 9.800781 13.199219 C 9.800781 13.101563 9.898438 13 9.898438 12.898438 C 9.898438 12.800781 10 12.601563 10 12.601563 C 10 12.5 10.101563 12.300781 10.101563 12.199219 C 10.101563 12.101563 10.300781 11.800781 10.300781 11.699219 C 10.300781 11.601563 10.300781 11.5 10.398438 11.5 C 10.398438 11.5 10.5 11.398438 10.5 11.300781 C 10.5 11.199219 10.5 11.199219 10.5 11.101563 C 10.5 11 10.5 11 10.5 11 C 10.5 11 10.5 10.898438 10.398438 10.898438 C 10.300781 10.898438 10.101563 11 10 11.101563 C 9.800781 11.199219 8.5 11.800781 7.601563 12.199219 C 6.800781 12.601563 5.199219 13.398438 4.199219 13.898438 C 3.300781 14.398438 1.699219 15.199219 1.199219 15.5 C 1.300781 15.699219 1 15.898438 0.898438 16 C 0.800781 16.101563 0.699219 16.300781 0.699219 16.398438 C 0.699219 16.5 0.699219 16.800781 0.800781 17.101563 C 0.898438 17.398438 1 17.699219 1.101563 17.800781 C 1.199219 17.898438 1.300781 18 1.5 17.898438 C 1.601563 17.800781 2.300781 17.601563 2.601563 17.5 C 2.898438 17.398438 3.300781 17.199219 3.699219 17.101563 C 4.101563 17 5.101563 16.601563 5.101563 16.601563 C 5.101563 16.601563 3.800781 17.300781 3.601563 17.398438 C 2.898438 17.699219 0.898438 18.800781 0.699219 19 C 0.101563 19.199219 0 19.300781 0 19.601563 C 0 19.898438 0.101563 20.300781 0.300781 20.5 C 0.398438 20.800781 0.699219 21.101563 0.898438 21.300781 C 1.101563 21.398438 1.300781 21.199219 1.5 21.199219 C 1.699219 21.101563 4.5 19.800781 4.898438 19.601563 C 5.199219 19.398438 8 18.199219 8.101563 18.101563 Z"/></svg>