<svg xmlns="http://www.w3.org/2000/svg" width="512" height="512" viewBox="0 0 512 512"><path fill="#E79E2D" d="M504.1,256c0,137-111.1,248.1-248.1,248.1C119,504.1,7.9,393,7.9,256S119,7.9,256,7.9C393,7.9,504.1,119,504.1,256"/><path fill="#685750" d="M260.2,228.7c-35.4,0-64.1,28.7-64.1,64.1c0,1.2,0.1,2.3,0.2,3.4c0.9,17.1,8.5,32.5,20.3,43.5v20.2c-6.2,4.8-10.1,12.3-10.1,20.7h52.5c0-8.4-4-15.9-10.1-20.7v-4.1c3.7,0.7,7.5,1.1,11.5,1.1v-28.5c13.4,0,26-3.3,36.9-8.9c11.1-5.8,20.5-14,27.1-23.9c0-0.9,0.1-1.9,0.1-2.8C324.3,257.4,295.6,228.7,260.2,228.7"/><path fill="#685750" d="M303.8,359.9v-20.2c11.9-11.1,19.6-26.7,20.3-44.1c-6.6,9.9-16,18.2-27.1,23.9c-4.1,2.1-8.4,3.9-12.9,5.3c0,0-0.1,0-0.1,0c-1.5,0.5-2.9,0.9-4.4,1.2c-0.2,0.1-0.4,0.1-0.6,0.1c-1.4,0.3-2.7,0.6-4.1,0.9c-0.4,0.1-0.8,0.1-1.2,0.2c-1.2,0.2-2.4,0.4-3.6,0.5c-0.8,0.1-1.6,0.1-2.3,0.2c-0.9,0.1-1.7,0.2-2.6,0.2c-1.7,0.1-3.3,0.2-5,0.2V357c4.2,0,7.8-0.3,11.1-1c0.1,0,0.3,0,0.4-0.1v4.1c-6.2,4.8-10.1,12.3-10.1,20.7h52.5C313.9,372.2,310,364.7,303.8,359.9"/><path fill="#D4D2B1" d="M258.9,380.6c0-14.5-11.8-26.3-26.3-26.3c-14.5,0-26.3,11.8-26.3,26.3H258.9z"/><path fill="#F7F3CE" d="M314,380.6c0-14.5-11.8-26.3-26.3-26.3c-14.5,0-26.3,11.8-26.3,26.3H314z"/><path fill="#D4D2B1" d="M260.2,357c0,0-7.6-9.9-19.3-16.8c-11.7-7-26.5-19.9-22.4-37.9c4.1-17.9,41.7,0,41.7,0L260.2,357z"/><path fill="#F7F3CE" d="M260.1,357c0,0,7.6-9.9,19.3-16.8c11.7-7,26.5-19.9,22.4-37.9c-4.1-17.9-41.6,0-41.6,0L260.1,357z"/><path fill="#685750" d="M302.4,330.9c21.7,17.9,50.3,5.9,67.2-12.8c1.3-1.4,2.8-2.8,4.4-4c7.2-0.3,14.9,0.5,21.3,4c0,0-11.4,8.6-15.8,18.1c0,0,12.8,2.6,22.9-3.7c0,0-1.3,15.1-12,28.2c-3.4,1-7,1.9-10.9,2.7c-66,13-85-24.5-85-24.5L302.4,330.9z"/><path fill="#F7F3CE" d="M379.5,336.3c4.3-9.5,15.8-18.1,15.8-18.1c-6.4-3.6-14.1-4.4-21.3-4c18.6-14.7,53.2-15.3,53.2-15.3s16.2,45.6-36.8,61.9c10.7-13.1,12-28.2,12-28.2C392.3,338.9,379.5,336.3,379.5,336.3"/><path fill="#685750" d="M260.1 254v-2-87.7c-40.2 0-72.9 32.6-72.9 72.9 0 .9.1 1.9.1 2.8 0 0-15.4 19.1-19.6 48.6C183.7 268.2 219 254 260.1 254M352.5 288.6c-4.2-29.5-19.6-48.7-19.6-48.7 0-.9.2-1.9.2-2.8 0-40.2-32.6-72.9-72.9-72.9V252v2C301.3 254 336.7 268.2 352.5 288.6"/><path fill="#D4D2B1" d="M186.6,287.2c14.5,5.6,44.2,25.5,73.5,25.5v-21.8V254c-41.1,0-76.5,14.2-92.3,34.6c0,0.1,0,0.2-0.1,0.3C167.8,288.9,174.4,282.5,186.6,287.2"/><path fill="#F7F3CE" d="M260.2,312.7c29.4,0,59-19.9,73.5-25.5c12.2-4.7,18.9,1.7,18.9,1.7c0-0.1,0-0.2,0-0.3c-15.8-20.4-51.2-34.7-92.3-34.7v36.9V312.7z"/><path fill="#685750" d="M242.6,175.4l-45.1-44c0,0-23.3,41.8,2.8,66.2l30.5-16L242.6,175.4z"/><path fill="#D4D2B1" d="M202.3,155.3c0,0-9.5,19.7,9.2,36.4l19.2-10.1L202.3,155.3z"/><path fill="#685750" d="M277.7,175.4l45.1-44c0,0,23.3,41.8-2.8,66.2l-30.5-16L277.7,175.4z"/><path fill="#F7F3CE" d="M318,155.3c0,0,9.5,19.7-9.2,36.4l-19.2-10.1L318,155.3z"/><path fill="#D4D2B1" d="M217.7,222.3c-5.8,0-10.3,1.3-10.8,1.4l-4.2,1.2v4.4c0,27,17.8,29.9,25.5,29.9c6.5,0,11.8-1.9,12.4-2.1l3.7-1.4l0.1-4c0.2-9.6-2.2-17.1-7.2-22.2C232.5,224.8,225.8,222.3,217.7,222.3"/><path fill="#B68473" d="M226.7,251.2c-5.7,0-15.3-2.4-15.3-18.3v-1.5l1.4-0.4c0.1,0,3.1-0.9,6.8-0.9c4.9,0,9,1.5,11.8,4.3c3,3.1,4.5,7.7,4.3,13.7l0,1.3l-1.3,0.5C234.3,250,230.8,251.2,226.7,251.2"/><path fill="#FFF" d="M229.9,238.5c0,2.1-1.7,3.8-3.8,3.8c-2.1,0-3.8-1.7-3.8-3.8c0-2.1,1.7-3.8,3.8-3.8C228.2,234.7,229.9,236.4,229.9,238.5"/><path fill="#F7F3CE" d="M302.6,222.3c-8.1,0-14.8,2.5-19.4,7.3c-5,5.1-7.5,12.6-7.2,22.2l0.1,4l3.7,1.4c0.6,0.2,5.9,2.1,12.4,2.1c7.7,0,25.5-2.9,25.5-29.9v-4.4l-4.2-1.2C313,223.6,308.4,222.3,302.6,222.3"/><path fill="#B68473" d="M293.6,251.2c5.7,0,15.3-2.4,15.3-18.3v-1.5l-1.4-0.4c-0.1,0-3.1-0.9-6.8-0.9c-4.9,0-9,1.5-11.8,4.3c-3,3.1-4.5,7.7-4.3,13.7l0,1.3l1.3,0.5C286.1,250,289.5,251.2,293.6,251.2"/><path fill="#FFF" d="M299.1,238.5c0,2.1,1.7,3.8,3.8,3.8c2.1,0,3.8-1.7,3.8-3.8c0-2.1-1.7-3.8-3.8-3.8C300.8,234.7,299.1,236.4,299.1,238.5"/><path fill="#3C3D3C" d="M246.5,291.8c0,4.6,6.1,8.4,13.6,8.4s13.7-3.8,13.7-8.4s-6.1-8.4-13.7-8.4S246.5,287.2,246.5,291.8"/></svg>