<?xml version="1.0"?><svg xmlns="http://www.w3.org/2000/svg" viewBox="0 0 128 128">    <path d="M 29 31 C 27.3 31 26 32.3 26 34 L 26 59 C 26 60.7 27.3 62 29 62 C 30.7 62 32 60.7 32 59 L 32 37 L 45 37 L 45 69 C 45 70.7 46.3 72 48 72 C 49.7 72 51 70.7 51 69 L 51 37 L 68 37 L 68 54 C 68 55.7 69.3 57 71 57 C 72.7 57 74 55.7 74 54 L 74 37 L 87 37 L 87 44 L 87 51.5 L 87 61.5 C 87 63.2 88.3 64.5 90 64.5 C 91.7 64.5 93 63.2 93 61.5 L 93 51.5 L 93 44 L 93 34 C 93 32.3 91.7 31 90 31 L 29 31 z M 102 48 C 100.3 48 99 49.3 99 51 C 99 52.7 100.3 54 102 54 L 105.09961 54 L 87.300781 89.699219 C 87.100781 90.099219 87 90.5 87 91 L 87 121 L 85.199219 121 L 74 109.80078 L 74 84 C 74 82.3 72.7 81 71 81 C 69.3 81 68 82.3 68 84 L 68 109.80078 L 56.800781 121 L 32 121 L 32 74 C 32 72.3 30.7 71 29 71 C 27.3 71 26 72.3 26 74 L 26 124 C 26 125.7 27.3 127 29 127 L 58 127 C 58.8 127 59.599609 126.69961 60.099609 126.09961 L 71 115.19922 L 81.900391 126.09961 C 82.500391 126.69961 83.2 127 84 127 L 90 127 C 91.7 127 93 125.7 93 124 L 93 91.699219 L 112.69922 52.300781 C 113.19922 51.400781 113.09961 50.300391 112.59961 49.400391 C 112.09961 48.500391 111 48 110 48 L 102 48 z M 48 91 C 46.3 91 45 92.3 45 94 L 45 104 C 45 105.7 46.3 107 48 107 C 49.7 107 51 105.7 51 104 L 51 94 C 51 92.3 49.7 91 48 91 z"/></svg>