<?xml version="1.0"?><svg xmlns="http://www.w3.org/2000/svg" viewBox="0 0 128 128">    <path d="M 13.962891 1 C 13.200391 1 12.450391 1.3003906 11.900391 1.9003906 L 1.9003906 11.900391 C 0.70039063 13.100391 0.70039063 14.999609 1.9003906 16.099609 L 9.8007812 24 L 1.9003906 31.900391 C 0.70039063 33.100391 0.70039063 34.999609 1.9003906 36.099609 L 9.8007812 44 L 1.9003906 51.900391 C 0.70039063 53.100391 0.70039063 54.999609 1.9003906 56.099609 L 9.8007812 64 L 1.9003906 71.900391 C 0.70039063 73.100391 0.70039063 74.999609 1.9003906 76.099609 L 9.8007812 84 L 1.9003906 91.900391 C 0.70039062 93.100391 0.70039063 94.899609 1.9003906 96.099609 L 11.900391 106.09961 C 13.100391 107.29961 14.999609 107.29961 16.099609 106.09961 L 24 98.199219 L 31.900391 106.09961 C 33.100391 107.29961 34.999609 107.29961 36.099609 106.09961 L 44 98.199219 L 51.900391 106.09961 C 53.100391 107.29961 54.999609 107.29961 56.099609 106.09961 L 64 98.199219 L 71.900391 106.09961 C 73.100391 107.29961 74.999609 107.29961 76.099609 106.09961 L 84 98.199219 L 91.900391 106.09961 C 92.500391 106.69961 93.3 107 94 107 C 94.7 107 95.499609 106.69961 96.099609 106.09961 L 106.09961 96.099609 C 107.29961 94.899609 107.29961 93.000391 106.09961 91.900391 L 98.199219 84 L 106.09961 76.099609 C 107.29961 74.899609 107.29961 73.000391 106.09961 71.900391 L 98.199219 64 L 106.09961 56.099609 C 107.29961 54.899609 107.29961 53.000391 106.09961 51.900391 L 98.199219 44 L 106.09961 36.099609 C 107.29961 34.899609 107.29961 33.000391 106.09961 31.900391 L 98.099609 23.900391 L 105.19922 16 C 106.29922 14.8 106.19961 13.000391 105.09961 11.900391 L 95.099609 1.9003906 C 93.899609 0.70039063 92.000391 0.70039063 90.900391 1.9003906 L 83 9.8007812 L 75.099609 1.9003906 C 73.899609 0.70039063 72.000391 0.70039063 70.900391 1.9003906 L 63 9.8007812 L 55.099609 1.9003906 C 53.899609 0.70039063 52.000391 0.70039063 50.900391 1.9003906 L 43 9.8007812 L 35.099609 1.9003906 C 33.899609 0.70039063 32.000391 0.70039063 30.900391 1.9003906 L 23.5 9.3007812 L 16.099609 1.9003906 C 15.499609 1.3003906 14.725391 1 13.962891 1 z M 14 8.1992188 L 21.400391 15.599609 C 22.600391 16.799609 24.499609 16.799609 25.599609 15.599609 L 33 8.1992188 L 40.900391 16.099609 C 42.100391 17.299609 43.999609 17.299609 45.099609 16.099609 L 53 8.1992188 L 60.900391 16.099609 C 62.100391 17.299609 63.999609 17.299609 65.099609 16.099609 L 73 8.1992188 L 80.900391 16.099609 C 82.100391 17.299609 83.999609 17.299609 85.099609 16.099609 L 93 8.1992188 L 98.900391 14.099609 L 91.800781 22 C 90.700781 23.2 90.800391 24.999609 91.900391 26.099609 L 99.800781 34 L 91.900391 41.900391 C 90.700391 43.100391 90.700391 44.999609 91.900391 46.099609 L 99.800781 54 L 91.900391 61.900391 C 90.700391 63.100391 90.700391 64.999609 91.900391 66.099609 L 99.800781 74 L 91.900391 81.900391 C 90.700391 83.100391 90.700391 84.999609 91.900391 86.099609 L 99.800781 94 L 94 99.800781 L 86.099609 91.900391 C 85.499609 91.300391 84.8 91 84 91 C 83.2 91 82.500391 91.300391 81.900391 91.900391 L 74 99.800781 L 66.099609 91.900391 C 64.899609 90.700391 63.000391 90.700391 61.900391 91.900391 L 54 99.800781 L 46.099609 91.900391 C 44.899609 90.700391 43.000391 90.700391 41.900391 91.900391 L 34 99.800781 L 26.099609 91.900391 C 24.899609 90.700391 23.000391 90.700391 21.900391 91.900391 L 14 99.800781 L 8.1992188 94 L 16.099609 86.099609 C 17.299609 84.899609 17.299609 83.000391 16.099609 81.900391 L 8.1992188 74 L 16.099609 66.099609 C 17.299609 64.899609 17.299609 63.000391 16.099609 61.900391 L 8.1992188 54 L 16.099609 46.099609 C 17.299609 44.899609 17.299609 43.000391 16.099609 41.900391 L 8.1992188 34 L 16.099609 26.099609 C 17.299609 24.899609 17.299609 23.000391 16.099609 21.900391 L 8.1992188 14 L 14 8.1992188 z M 112.96289 21 C 112.20039 21 111.45039 21.300391 110.90039 21.900391 C 109.70039 23.100391 109.70039 24.999609 110.90039 26.099609 L 118.90039 34.099609 L 111.80078 42 C 110.70078 43.2 110.80039 44.999609 111.90039 46.099609 L 119.80078 54 L 111.90039 61.900391 C 110.70039 63.100391 110.70039 64.999609 111.90039 66.099609 L 119.80078 74 L 111.90039 81.900391 C 110.70039 83.100391 110.70039 84.999609 111.90039 86.099609 L 119.80078 94 L 111.90039 101.90039 C 110.70039 103.10039 110.70039 104.99961 111.90039 106.09961 L 119.80078 114 L 114 119.80078 L 106.09961 111.90039 C 104.89961 110.70039 103.00039 110.70039 101.90039 111.90039 L 94 119.80078 L 86.099609 111.90039 C 84.899609 110.70039 83.000391 110.70039 81.900391 111.90039 L 74 119.80078 L 66.099609 111.90039 C 64.899609 110.70039 63.000391 110.70039 61.900391 111.90039 L 54 119.80078 L 46.099609 111.90039 C 44.899609 110.70039 43.000391 110.70039 41.900391 111.90039 L 34 119.80078 L 26.099609 111.90039 C 24.899609 110.70039 23.000391 110.70039 21.900391 111.90039 C 20.700391 113.10039 20.700391 114.99961 21.900391 116.09961 L 31.900391 126.09961 C 33.100391 127.29961 34.999609 127.29961 36.099609 126.09961 L 44 118.19922 L 51.900391 126.09961 C 53.100391 127.29961 54.999609 127.29961 56.099609 126.09961 L 64 118.19922 L 71.900391 126.09961 C 73.100391 127.29961 74.999609 127.29961 76.099609 126.09961 L 84 118.19922 L 91.900391 126.09961 C 93.100391 127.29961 94.999609 127.29961 96.099609 126.09961 L 104 118.19922 L 111.90039 126.09961 C 112.50039 126.69961 113.3 127 114 127 C 114.7 127 115.49961 126.69961 116.09961 126.09961 L 126.09961 116.09961 C 127.29961 114.89961 127.29961 113.00039 126.09961 111.90039 L 118.19922 104 L 126.09961 96.099609 C 127.29961 94.899609 127.29961 93.000391 126.09961 91.900391 L 118.19922 84 L 126.09961 76.099609 C 127.29961 74.899609 127.29961 73.000391 126.09961 71.900391 L 118.19922 64 L 126.09961 56.099609 C 127.29961 54.899609 127.29961 53.100391 126.09961 51.900391 L 118.09961 43.900391 L 125.19922 36 C 126.29922 34.8 126.19961 33.000391 125.09961 31.900391 L 115.09961 21.900391 C 114.49961 21.300391 113.72539 21 112.96289 21 z"/></svg>