<svg xmlns="http://www.w3.org/2000/svg" viewBox="0 0 64 64"><linearGradient id="aJtMqcThNq8XhBuFji4Lva" x1="32" x2="32" y1="229" y2="173.988" gradientTransform="matrix(1 0 0 -1 0 234)" gradientUnits="userSpaceOnUse" spreadMethod="reflect"><stop offset="0" stop-color="#1a6dff"/><stop offset="1" stop-color="#c822ff"/></linearGradient><path fill="url(#aJtMqcThNq8XhBuFji4Lva)" d="M51.121,15.707l-8.828-8.828C41.727,6.313,40.973,6,40.171,6H15c-1.654,0-3,1.346-3,3v40v2v4 c0,1.654,1.346,3,3,3h34c1.654,0,3-1.346,3-3v-4v-2V17.828C52,17.027,51.688,16.273,51.121,15.707z M48.586,16H43 c-0.551,0-1-0.448-1-1V9.414L48.586,16z M49,56H15c-0.551,0-1-0.448-1-1v-1.185C14.314,53.928,14.648,54,15,54h34 c0.352,0,0.686-0.072,1-0.184V55C50,55.552,49.551,56,49,56z M50,51c0,0.552-0.449,1-1,1H15c-0.551,0-1-0.448-1-1v-2V9 c0-0.552,0.449-1,1-1h25v7c0,1.654,1.346,3,3,3h7v31V51z"/><linearGradient id="aJtMqcThNq8XhBuFji4Lvb" x1="32" x2="32" y1="22" y2="44" gradientUnits="userSpaceOnUse" spreadMethod="reflect"><stop offset="0" stop-color="#6dc7ff"/><stop offset="1" stop-color="#e6abff"/></linearGradient><path fill="url(#aJtMqcThNq8XhBuFji4Lvb)" d="M27.197,44c-1.849,0-3.299-1.334-3.693-3.399c-0.074-0.352-0.173-0.782-0.287-1.282 c-0.291-1.271-0.69-3.01-1.087-5.285c-0.259-1.415-0.656-1.877-0.85-1.926c-0.336-0.088-1.111,0.496-1.56,1.049 c-0.333,0.411-0.94,0.479-1.356,0.149c-0.416-0.329-0.485-0.928-0.154-1.341c0.177-0.221,1.784-2.15,3.54-1.712 c1.729,0.43,2.145,2.701,2.281,3.447c0.39,2.233,0.783,3.945,1.069,5.195c0.117,0.514,0.219,0.956,0.298,1.335 c0.085,0.448,0.458,1.857,1.799,1.857c1.005,0,1.688-0.669,1.783-1.747c0.114-0.77,0.949-8.062,1.375-11.819 c0.055-0.481,0.463-0.846,0.952-0.85c0.532-0.021,0.903,0.355,0.965,0.835c0.013,0.096,1.236,9.568,1.37,10.466 c0.1,1.135,0.783,1.804,1.789,1.804c1.34,0,1.713-1.409,1.796-1.841c0.064-0.305,0.189-1.161,0.347-2.244 c0.712-4.872,1.548-10.247,2.457-12.368c0.581-1.359,1.486-1.912,2.141-2.136c1.592-0.545,3.156,0.266,3.329,0.361 c0.467,0.255,0.637,0.837,0.38,1.299c-0.257,0.463-0.844,0.63-1.312,0.376c-0.264-0.14-1.108-0.459-1.774-0.226 c-0.418,0.146-0.741,0.497-0.987,1.073c-0.887,2.071-1.822,8.462-2.323,11.895c-0.176,1.202-0.292,1.996-0.364,2.341 c-0.39,2.048-1.84,3.383-3.689,3.383c-2.004,0-3.528-1.437-3.706-3.495c-0.039-0.261-0.176-1.292-0.35-2.612 c-0.229,1.976-0.426,3.64-0.478,3.982C30.723,42.563,29.199,44,27.197,44z"/></svg>