<svg xmlns="http://www.w3.org/2000/svg" viewBox="0 0 24 24"><path d="M 8 3 C 7.448 3 7 3.448 7 4 L 7 5 C 7 5.552 7.212625 6.109375 7.765625 6.109375 C 7.968625 6.109375 8.02 6.3684062 8 6.5664062 C 8 6.8054062 8.1945938 7 8.4335938 7 L 8.5664062 7 C 8.8054062 7 9 6.8054062 9 6.5664062 L 9 6 C 9.548 5.993 10.001281 5.548 9.9882812 5 C 10.546281 5.007 11 4.556 11 4 C 11 3.448 10.552 3 10 3 L 8 3 z M 5 4 C 4.448 4 4 4.448 4 5 L 4 5.0097656 C 2.125 5.0097656 2.6450469 8 1.6230469 8 L 1 8 C 0.448 8 0 8.448 0 9 C 0 9.552 0.448 10 1 10 L 2.046875 10 C 2.281875 10 2.6932656 9.9497656 2.8222656 10.384766 L 3 10.955078 C 3.106 11.490078 4.012 11.441234 4 11.990234 L 4 12 L 4 15.277344 L 4.0175781 15.277344 C 4.0605781 15.688344 4.3192188 16.040844 4.6992188 16.214844 C 5.0132188 16.358844 5.25 16.616359 5.25 16.943359 L 5.25 17.861328 C 5.25 18.306328 6 18.786141 6 19.244141 L 6 19.6875 C 6 20.4125 6.4250312 21 7.3320312 21 C 7.7910312 21 8 20.764156 8 20.285156 L 8 18.667969 L 8 16.333984 L 8 15.167969 C 8 14.522969 7.44 14 6.75 14 L 6 14 L 6 12.941406 C 6.569 12.804406 7 12.315078 7 11.705078 L 7 11 C 7.552 11 8 10.552 8 10 C 8 9.448 7.552 9 7 9 L 7 7.7890625 C 7 7.3530625 6.6469375 7 6.2109375 7 L 6 7 L 6 5 C 6 4.448 5.552 4 5 4 z M 15.453125 5 C 15.180125 5 15.005 5.2367656 15 5.5097656 C 14.995 5.7817656 14.803703 6 14.470703 6 L 14 6 L 12 6 C 11.448 6 11 6.448 11 7 C 11 7.552 11.448 8 12 8 L 11 8 C 10.448 8 10 8.448 10 9 C 10 9.552 10.448 10 11 10 L 12 10 L 12 11 L 9 11 C 8.448 11 8 11.448 8 12 C 8 12.552 8 14 10 14 C 10 14.552 10.422375 14.921125 10.859375 15.203125 C 11.422375 15.577125 12 15.74925 12 16.53125 L 12 17 C 12 17.552 12.448 18 13 18 C 13.552 18 14 17.552 14 17 L 14 13.277344 L 14 13 L 14 11 C 14.552 11 15 10.552 15 10 L 15 12 C 15 12.552 15.448 13 16 13 C 16.552 13 17 12.552 17 12 L 19 12 C 19.556 12 20.007 11.546281 20 10.988281 C 20.548 11.002281 20.993 10.548 21 10 L 22 10 C 22.552 10 23 9.552 23 9 C 23 8.834 22.972672 8.6690625 22.888672 8.5390625 C 22.648672 8.1670625 22.788 7.996 23 8 C 23.552 8 24 7.552 24 7 C 24 6.448 23.552 6 23 6 L 20.388672 6 C 20.122672 6 19.954 5.797 20 5.5 C 20.043 5.227 19.776 5 19.5 5 L 15.453125 5 z M 19.333984 14 C 18.596984 14 18 14.596031 18 15.332031 C 18 16.068031 18.596031 16.666016 19.332031 16.666016 C 19.332031 17.402016 19.930016 17.998047 20.666016 17.998047 C 21.403016 17.999047 22 17.403969 22 16.667969 L 22 15.333984 C 22 14.596984 21.403969 14 20.667969 14 L 19.333984 14 z"/></svg>