<?xml version="1.0"?><svg xmlns="http://www.w3.org/2000/svg" viewBox="0 0 16 16">    <path d="M 4 2 L 4 4.2089844 C 3.4391619 4.4166464 3 4.8706685 3 5.5 L 3 8.0039062 L 2.5 8.0039062 C 2.224 8.0039062 2 8.2279063 2 8.5039062 C 2 13.389906 6.395 13.99 6.5 14 L 9.546875 13.998047 C 9.591875 13.994047 14 13.525906 14 8.5039062 C 14 8.2279063 13.776 8.0039062 13.5 8.0039062 L 11.919922 8.0039062 L 13.208984 5.703125 L 13.210938 5.6972656 C 13.346013 5.4414956 13.674769 4.8129711 13.865234 4.140625 C 13.960464 3.804452 14.027514 3.4562038 13.990234 3.0976562 C 13.952954 2.7391087 13.759177 2.3320514 13.378906 2.1308594 C 12.998787 1.9295175 12.551658 1.9970835 12.234375 2.1679688 C 11.917092 2.3388539 11.667693 2.5915406 11.443359 2.859375 C 10.994691 3.3950437 10.659065 4.0195465 10.523438 4.2753906 L 9.8066406 5.5742188 C 9.6445328 5.1714788 9.3939521 4.8133079 9.0605469 4.546875 C 8.6332794 4.2050783 8.0871646 4 7.5 4 C 6.8105441 4 6.1839043 4.2828766 5.7304688 4.7382812 C 5.5507272 4.4972225 5.296859 4.3189026 5 4.2089844 L 5 2 L 4 2 z M 12.837891 2.9921875 C 12.864429 2.9884634 12.881216 2.9983429 12.910156 3.0136719 L 12.912109 3.0136719 C 12.970339 3.0444799 12.980554 3.0517819 12.996094 3.2011719 C 13.011624 3.3505618 12.979817 3.6025637 12.904297 3.8691406 C 12.753262 4.4022945 12.454097 4.9882388 12.326172 5.2304688 L 10.773438 8.0039062 L 9.6113281 8.0039062 L 11.40625 4.7480469 L 11.408203 4.7441406 C 11.536575 4.5019847 11.853152 3.9267844 12.208984 3.5019531 C 12.3869 3.2895375 12.57683 3.1200054 12.708984 3.0488281 C 12.775062 3.0132396 12.811352 2.9959116 12.837891 2.9921875 z M 4.5 5 C 4.7772727 5 5 5.2227273 5 5.5 L 5 6.5 L 5 8.0039062 L 4 8.0039062 L 4 5.5 C 4 5.2227273 4.2227273 5 4.5 5 z M 7.5 5 C 7.8561808 5 8.1790261 5.1226083 8.4355469 5.328125 A 0.50005 0.50005 0 0 0 8.4375 5.328125 C 8.7810502 5.6026627 9 6.0225359 9 6.5 L 9 7 A 0.50005 0.50005 0 0 0 9.0019531 7.0351562 L 8.4667969 8.0039062 L 6 8.0039062 L 6 6.5351562 A 0.50005 0.50005 0 0 0 6 6.5 C 6 5.6649849 6.6649849 5 7.5 5 z M 3.0195312 9.0039062 L 3.4453125 9.0039062 A 0.50005 0.50005 0 0 0 3.5566406 9.0039062 L 5.4453125 9.0039062 A 0.50005 0.50005 0 0 0 5.5566406 9.0039062 L 12.982422 9.0039062 C 12.718422 12.632906 9.593 12.988 9.5 13 L 6.5644531 13.003906 C 6.4244531 12.984906 3.2905312 12.533906 3.0195312 9.0039062 z"/></svg>