<svg xmlns="http://www.w3.org/2000/svg" viewBox="0 0 100 100"><path fill="#fff" d="M19.8 54.9A.9.9 0 1 0 19.8 56.699999999999996.9.9 0 1 0 19.8 54.9zM78.9 30.3A.7.7 0 1 0 78.9 31.7.7.7 0 1 0 78.9 30.3z"/><path fill="#f1bc19" d="M76.3 11A.9.9 0 1 0 76.3 12.8.9.9 0 1 0 76.3 11zM20.3 62.6A.9.9 0 1 0 20.3 64.4.9.9 0 1 0 20.3 62.6z"/><path fill="#cee1f4" d="M49.1 11.700000000000003A37.5 37.5 0 1 0 49.1 86.7A37.5 37.5 0 1 0 49.1 11.700000000000003Z"/><path fill="#f1bc19" d="M81.7 10.1A4 4 0 1 0 81.7 18.1A4 4 0 1 0 81.7 10.1Z"/><path fill="#ee3e54" d="M85.7 21.3A1.9 1.9 0 1 0 85.7 25.099999999999998A1.9 1.9 0 1 0 85.7 21.3Z"/><path fill="#fbcd59" d="M76.7 73.69999999999999A1.9 1.9 0 1 0 76.7 77.5 1.9 1.9 0 1 0 76.7 73.69999999999999zM13.5 58.6A4 4 0 1 0 13.5 66.6 4 4 0 1 0 13.5 58.6z"/><path fill="#ee3e54" d="M23.8 84.89999999999999A1.9 1.9 0 1 0 23.8 88.7A1.9 1.9 0 1 0 23.8 84.89999999999999Z"/><path fill="#fff" d="M75.4 27.7A1.8 1.8 0 1 0 75.4 31.3 1.8 1.8 0 1 0 75.4 27.7zM17.3 48A2.5 2.5 0 1 0 17.3 53 2.5 2.5 0 1 0 17.3 48z"/><path fill="#d8ad8f" d="M66,67c-0.7-0.5-10.2-3.8-10.2-3.8c-0.5-0.2-0.9-0.6-1-1.2c-0.1-0.9-0.2-1.8-0.2-2.8 c2.5-1.4,4.6-3.5,6.1-6c0.3-0.5,0.4-1.1,0.5-1.7c0-1,0-2,0-3c0.6-0.1,1.1-0.6,1.3-1.2c0.4-1.3,1-3.8,1-3.9 c0.5-1.6-0.3-2.4-1.8-2.4c0.4-0.3,0.7-0.7,1-1.2h0.1c0.1,0,0.3,0,0.4,0c2,0.7,5.1,0.3,5.9-4.5c-0.7,0.9-1.9,1.4-3,1.3 c0-0.4-0.1-0.8-0.3-1.2c0.6-0.6,1-1.4,1-2.2c0-1.7-1.5-3.1-3.2-3.1c0,0,0,0,0,0l0,0c0.1-0.4,0.2-0.8,0.2-1.2c0-2.2-1.8-4-4-4 c0,0-0.1,0-0.1,0c-0.4,0-0.8,0-1.1,0.1c0,0,0-0.1,0-0.1c-0.1-2.7-2.4-4.8-5.2-4.7c-1.5,0-3,0.6-4,1.8c-1.1-0.7-2.5-1.1-3.8-1 c-3.4,0-6.2,2.2-6.2,4.9c0,0.1,0,0.2,0,0.4c-0.8,0.3-1.4,1-1.7,1.8c-0.3,0.8,0.6,3,0.6,3.1l0,0c-1-0.1-1.9,0.7-2,1.7 c0,0.2,0,0.4,0.1,0.6c0.1,0.5,0.9,7.3,1.3,7.5c-1.5,0-2.3,0.8-1.8,2.4c0,0,0.6,2.6,1,3.9c0.1,0.7,0.8,1.2,1.5,1.2 c0,0.8,0,1.7,0,2.5c0,1,0.3,2,0.9,2.8c1.5,2.2,3.4,4,5.7,5.3c0,0.9-0.2,1.9-0.3,2.8c-0.1,0.6-0.5,1-1,1.2l-7.8,2.7 c-0.8,0.2-1.5,0.5-2.2,0.9C31.3,68.4,30,71,30,73.7h39.3C69.3,71.1,68.1,68.6,66,67z"/><path fill="#9f8066" d="M54.7,36.4c0.7,1.4,2.2,2.3,3.8,2.3c0.4,0,0.8-0.1,1.2-0.2c0.6,0.7,1.6,1.2,2.6,1.2 c0.1,0,0.3,0,0.4,0c1.9,0.6,5,1,5.9-3c-0.8,0.5-1.8,0.7-2.7,0.3c0-0.5-0.1-1-0.3-1.5c0.6-0.5,1-1.3,1-2.2c-0.1-1.7-1.5-3-3.2-3 l0,0c0.1-0.4,0.2-0.9,0.1-1.3c-0.1-2.2-1.9-4-4.1-3.9c0,0,0,0,0,0c-0.4,0-0.8,0.1-1.1,0.2c0,0,0-0.1,0-0.2 c-0.2-2.7-2.4-4.7-5.1-4.6c-1.5,0-3,0.6-4,1.8c-1.1-0.7-2.5-1-3.8-1c-3.4,0-6.1,2.2-6.1,4.9c0,0.1,0,0.2,0,0.4 c-0.8,0.3-1.4,1-1.7,1.8c0,0,0.5,2.7,0.6,3c0.6,0.8,1.5,1.3,2.4,1.6c1,0.3,2,0.3,3,0c0.8,2.5,3.6,4.4,7.1,4.4 C52.1,37.2,53.5,37,54.7,36.4z"/><path fill="#b2876b" d="M49.6,73.6h19.5c0-2.5-1.2-4.9-3.2-6.4c-0.7-0.5-10.2-3.7-10.2-3.7c-0.5-0.2-1-0.6-1.2-1.1 c-0.2-1.1-0.3-2.2-0.2-3.3C53,60,51.6,60.6,50.1,61c-1.9,0.2-5.1-1.6-5.1-1.6s-0.2,2.4-0.3,3c-0.2,0.6-0.7,1-1.3,1.1l-7.7,2.6 c-0.8,0.2-1.5,0.5-2.2,0.9c-2.2,1.5-3.5,4-3.5,6.6L49.6,73.6z"/><path fill="#78a0cf" d="M30,81.1c7.5,3.8,13,5.4,23.5,5.4c4.6,0,12.6-3.2,16.2-5.3c-0.4-9.3,0.5-12.7-3.8-14 c-0.8-0.3-3.9-1.8-3.9-1.8s-8,4.5-11.5,5.2c-6.6,1.3-13.4,1.7-20.1,1.1C30.2,72,30.1,79.4,30,81.1z"/><path fill="#6d3c14" d="M38.6,31.8c-0.2,0-0.5,0.2-0.7,0.2 c-0.6,0-1.1,0.6-1.1,1.3l1.1,7.3c0-0.6,0.2-6.2,2-7.8C39.4,32.5,39,32.1,38.6,31.8z" opacity=".34"/><path fill="#472b29" d="M47.7 40.2c-2.4-.6-4.9-.7-7.4-.4-.1 0-.2.1-.2.2 0 .1.1.2.2.2 0 0 5.1.6 6.7 1.1h.1c.1 0 .2 0 .2-.1l.6-.7c0-.1 0-.1 0-.2C47.8 40.3 47.8 40.3 47.7 40.2zM51.7 40.2c2.4-.6 4.9-.7 7.4-.4.1 0 .2.1.2.2 0 .1-.1.2-.2.2 0 0-5.1.6-6.7 1.1h-.1c-.1 0-.2 0-.2-.1l-.6-.7c0-.1 0-.1 0-.2C51.6 40.3 51.6 40.3 51.7 40.2zM44.2 42.5c-.5 0-1 .3-1.2.8.1 0 .1 0 .2 0 .5.1.8.5.7.9 0 .4-.3.7-.7.7-.1 0-.3 0-.4-.1.1.7.7 1.2 1.4 1.3 1-.2 1.6-1.2 1.4-2.2C45.4 43.2 44.9 42.7 44.2 42.5L44.2 42.5zM55.1 42.5c-.4 0-.8.2-1.1.6.1 0 .2-.1.3-.1.5.1.8.5.7.9 0 .4-.3.7-.7.7-.3 0-.5-.1-.6-.4-.1.9.6 1.7 1.4 1.8 1-.2 1.6-1.2 1.4-2.2C56.4 43.2 55.8 42.6 55.1 42.5z"/><path fill="#472b29" d="M49.6,52.2c0.5,0,0.9-0.2,1.3-0.6c0.1-0.1,0.1-0.2,0-0.3 c0,0,0,0,0,0c-0.1-0.1-0.2-0.1-0.3,0c0,0,0,0,0,0c-0.3,0.3-0.6,0.4-1,0.4c-0.4,0-0.7-0.1-1-0.4c-0.1-0.1-0.2-0.1-0.3,0 c-0.1,0.1-0.1,0.2,0,0.3c0,0,0,0,0,0C48.6,52,49.1,52.2,49.6,52.2z" opacity=".41"/><path fill="#472b29" d="M49.9,61.1c-2,0-5.2-1.8-5.3-1.9c-0.1-0.1-0.2-0.2-0.1-0.3c0.1-0.1,0.2-0.2,0.3-0.1 c0,0,3.5,2,5.3,1.8c1.6-0.3,3.1-0.9,4.4-1.8c0.1-0.1,0.3,0,0.3,0.1c0.1,0.1,0,0.3-0.1,0.3c-1.4,0.9-3,1.5-4.6,1.8 C50.1,61.1,50,61.1,49.9,61.1z"/><path fill="#836f61" d="M66,36.8c0-0.5-0.1-1-0.3-1.5c0.6-0.5,1-1.3,1-2.2c-0.1-1.7-1.5-3-3.2-3l0,0 c0.1-0.4,0.1-0.8,0.1-1.1c-0.1-2.2-1.9-3.9-4.1-3.9c-0.4,0-0.8,0.1-1.1,0.1c0,0,0-0.1,0-0.1c-0.2-2.7-2.4-4.7-5.1-4.6 c-1.2,0-2.3,0.4-3.3,1.1c0.4,0.4,0.1-0.1,0.4,0.4c1.7-0.4,3.5-0.2,5,0.6c2.5,1.5,3.4,4.5,2.3,7.2L57.6,30c0.3,0.1,0.7,0.2,1,0.4 c2,1,2.8,3.4,1.8,5.3c-0.2,0.4-0.4,0.7-0.7,0.9l0,0c1,0.5,1.7,1.6,1.7,2.8c0.3,0.1,0.6,0.1,0.9,0.1c0.1,0,0.3,0,0.4,0 c1.9,0.6,5,1,5.9-3C67.8,37,66.9,37.1,66,36.8z"/><path fill="#472b29" d="M64.7,40.5c-0.7,0-1.3-0.2-1.9-0.5c-0.1,0-0.2,0-0.4,0c0,0,0,0,0,0c-1,0-1.9-0.4-2.6-1.1 c-0.4,0.1-0.8,0.1-1.2,0.1c-1.6,0-3.1-0.8-3.9-2.2c-1.2,0.5-2.5,0.7-3.7,0.8c-3.4,0-6.4-1.8-7.3-4.3c-1,0.2-2,0.2-3-0.1 c-1.1-0.3-2.1-1-2.8-2c-0.1-0.1-0.1-0.3,0.1-0.4c0.1-0.1,0.3-0.1,0.4,0.1c0.6,0.9,1.5,1.5,2.5,1.7c1,0.3,1.9,0.3,2.9,0 c0.1,0,0.2,0,0.2,0c0.1,0,0.1,0.1,0.1,0.2c0.7,2.4,3.6,4.2,6.9,4.2c1.3,0,2.6-0.3,3.7-0.8c0.1-0.1,0.3,0,0.4,0.1 c0.7,1.3,2.1,2.1,3.6,2.1c0.4,0,0.8-0.1,1.1-0.2c0.1,0,0.2,0,0.3,0.1c0.6,0.7,1.5,1.1,2.4,1.1c0.2,0,0.3,0,0.4,0 c0.1,0,0.1,0,0.2,0c0.9,0.6,2,0.6,3,0.2c0.2-0.1,0.3,0,0.4,0.2c0.1,0.2,0,0.3-0.2,0.4C65.7,40.4,65.2,40.5,64.7,40.5z"/><g opacity=".3"><path fill="#ba8964" d="M42.6 48.3A2 2 0 1 0 42.6 52.3 2 2 0 1 0 42.6 48.3zM57.6 48.3A2 2 0 1 0 57.6 52.3 2 2 0 1 0 57.6 48.3z" opacity=".8"/></g><path fill="#8e7469" d="M46.6 46.099999999999994A.2.2 0 1 0 46.6 46.5.2.2 0 1 0 46.6 46.099999999999994zM46.8 47.8A.2.2 0 1 0 46.8 48.2.2.2 0 1 0 46.8 47.8zM48.3 46.9A.2.2 0 1 0 48.3 47.300000000000004.2.2 0 1 0 48.3 46.9zM51.5 46.9A.2.2 0 1 0 51.5 47.300000000000004.2.2 0 1 0 51.5 46.9zM52.4 48.3A.2.2 0 1 0 52.4 48.7.2.2 0 1 0 52.4 48.3zM53.4 46.9A.2.2 0 1 0 53.4 47.300000000000004.2.2 0 1 0 53.4 46.9z" opacity=".8"/><path fill="#472b29" d="M38.5 49c-.2 0-.3-.1-.3-.3l-.7-7.5c0-.2.1-.3.3-.3.2 0 .3.1.3.3l.7 7.5C38.9 48.8 38.7 48.9 38.5 49 38.6 49 38.5 49 38.5 49zM61 48.8C61 48.8 61 48.8 61 48.8c-.2 0-.3-.2-.3-.3l.5-7.4c0-.2.1-.3.3-.3.2 0 .3.2.3.3l-.5 7.4C61.3 48.7 61.2 48.8 61 48.8z"/><path fill="#6d1b18" d="M45.4,53.8c-0.1,0.2-0.1,0.4-0.1,0.6c0,1.8,2,3.3,4.5,3.3s4.5-1.5,4.5-3.3c0-0.2,0-0.4-0.1-0.6 H45.4z"/><path fill="#ee3e54" d="M52.2,57.3c-1.4-1-3.3-1-4.8,0C49,57.9,50.7,57.9,52.2,57.3z"/><path fill="#fdfcef" d="M46.7,53.8C46.7,53.8,46.7,53.8,46.7,53.8v0.6c0,0.5,0.6,0.9,1.4,0.9h3.4c0.8,0,1.4-0.4,1.4-0.9 v-0.6c0,0,0,0,0-0.1H46.7z"/><path fill="#472b29" d="M49.9 58c-2.6 0-4.8-1.6-4.8-3.5 0-.2 0-.5.1-.7 0-.1.1-.2.2-.2h8.8c.1 0 .2.1.2.2.1.2.1.5.1.7C54.6 56.4 52.5 58 49.9 58zM45.6 54.1c0 .1 0 .3 0 .4 0 1.7 1.9 3 4.3 3 2.3 0 4.2-1.4 4.2-3 0-.1 0-.3 0-.4H45.6zM48.2 43.8C45.9 41 37.4 43 37.4 43c.2.6.3 1.2.4 1.8.6.1.7 1.5.7 2 .3 2.5 2 4.3 5.5 4.3 2.4 0 4.4-1.9 4.5-4.3 0 0 0 0 0 0C48.7 45.7 48.5 44.7 48.2 43.8zM47.8 46.9c0 2-1.7 3.7-3.7 3.7 0 0-.1 0-.1 0h-.7c-3.5 0-4.1-3.1-4.2-5-.1-1.1.7-2 1.8-2.2.6-.1 1.4-.1 2.2-.1 2.6 0 3.8.6 4.1 1.1C47.7 45.2 47.8 46 47.8 46.9zM50.7 46.7c0 2.4 2.1 4.4 4.5 4.3 0 0 0 0 0 0 3.5.1 5.2-1.8 5.5-4.3.1-.5.1-1.9.7-2 .1-.6.3-1.2.4-1.8 0 0-8.5-1.9-10.7.8C50.7 44.7 50.5 45.7 50.7 46.7zM51.9 44.4c.3-.5 1.4-1.1 4.1-1.1.8 0 1.6 0 2.2.1 1.1.1 1.9 1.1 1.9 2.2-.1 1.9-.7 5-4.2 5h-.7c-2 .1-3.7-1.5-3.8-3.6 0 0 0-.1 0-.1C51.4 46 51.5 45.2 51.9 44.4z"/><path fill="#472b29" d="M51.1,45.9c-0.5-0.3-1-0.5-1.6-0.5c-0.5,0-1,0.1-1.5,0.5c-0.2-0.4-0.3-0.8-0.5-1.3h4 C51.4,45.1,51.3,45.5,51.1,45.9z"/><path fill="#472b29" d="M47.9,87.1C47.9,87.1,47.9,87.1,47.9,87.1c-6.5-0.4-12.9-2.4-18.3-6c-0.2-0.1-0.2-0.3-0.2-0.5 c0.1-1,0.2-3.2,0.3-5.1c0.1-3,0.2-4.1,0.3-4.4c0.5-1.9,1.7-3.6,3.4-4.7c0.7-0.5,1.5-0.8,2.3-1l7.8-2.7c0.4-0.1,0.6-0.4,0.7-0.8 c0.2-0.8,0.3-1.6,0.4-2.4c-2.2-1.3-4.1-3.1-5.6-5.3c-0.6-0.9-1-2-0.9-3.1l0-2c-0.7-0.2-1.3-0.8-1.5-1.5c-0.4-1.2-1-3.7-1-3.9 c-0.4-1.1-0.1-1.8,0.2-2.2c0.2-0.3,0.7-0.7,1.5-0.8c-0.1-0.7-0.3-1.8-0.6-3.3c-0.3-1.6-0.6-3.3-0.6-3.5c-0.1-0.2-0.1-0.5-0.1-0.8 c0.1-1,0.8-1.8,1.7-2.1c-0.5-1.1-0.6-2.1-0.3-2.9c0.3-0.8,0.9-1.5,1.7-1.9v-0.1c0-3,3-5.4,6.7-5.4c0,0,0,0,0,0 c1.3,0,2.5,0.3,3.7,0.9c1.1-1.1,2.6-1.7,4.1-1.7c2.8-0.1,5.2,2,5.6,4.7c0.2,0,0.5,0,0.7,0c0,0,0,0,0.1,0c2.5,0,4.5,2,4.6,4.4 c0,0.3,0,0.5-0.1,0.7c1.7,0.3,3,1.7,3.1,3.5c0,0.9-0.3,1.7-0.9,2.3c0.1,0.2,0.1,0.4,0.1,0.6c0.8,0,1.6-0.4,2.1-1.1 c0.1-0.2,0.4-0.2,0.6-0.1c0.2,0.1,0.3,0.3,0.3,0.5c-0.5,2.6-1.2,4.2-3.3,4.9c-1.1,0.3-2.3,0.3-3.4,0.1c-0.1,0.1-0.1,0.2-0.2,0.3 c0.5,0.2,0.9,0.4,1,0.7c0.3,0.4,0.5,1.1,0.2,2.2l0,0c-0.1,0.6-0.7,3-1,3.9c-0.1,0.6-0.6,1.2-1.2,1.4v2.6c0,0.7-0.2,1.3-0.5,1.9 c-1.5,2.5-3.6,4.6-6.1,6c0,0.8,0.1,1.6,0.2,2.4c0.1,0.4,0.3,0.7,0.7,0.8c1.6,0.6,9.6,3.4,10.3,3.9c3.2,2.1,3.3,4.1,3.4,5.6l0,0.2 l0.4,8.6c0,0.2-0.1,0.4-0.2,0.4c-4.8,3-10.4,4.8-16,5.4c-0.7,0-1.4,0-2.1,0.1C50.5,87,49.2,87.1,47.9,87.1z M30.4,80.4 c5.3,3.3,11.3,5.3,17.5,5.6c1.2,0,2.5,0,3.8-0.1c0.7,0,1.4,0,2.1-0.1c5.4-0.5,10.7-2.3,15.3-5.1l-0.4-8.5 c-0.1-1.4-0.2-3.1-2.9-4.9c-0.5-0.3-6.5-2.5-10.1-3.7c-0.7-0.2-1.2-0.9-1.3-1.6c-0.1-0.9-0.2-1.9-0.2-2.8c0-0.2,0.1-0.4,0.3-0.4 c2.5-1.4,4.5-3.4,5.9-5.8c0.2-0.4,0.4-0.9,0.4-1.4v-3c0-0.3,0.2-0.5,0.4-0.5c0.4-0.1,0.8-0.4,0.8-0.8c0.4-1.2,1-3.7,1-3.9 c0.2-0.5,0.3-1,0-1.4c-0.2-0.3-0.7-0.4-1.3-0.4c-0.2,0-0.4-0.1-0.5-0.3c-0.1-0.2,0-0.4,0.2-0.6c0.4-0.3,0.7-0.6,0.9-1 c0.1-0.2,0.3-0.2,0.4-0.2h0.1c0,0,0.1,0,0.1,0c1,0.2,2.1,0.2,3.1,0c1.2-0.4,1.9-1.1,2.3-2.7c-0.7,0.4-1.5,0.5-2.2,0.5 c-0.3,0-0.5-0.2-0.5-0.5c0-0.3-0.1-0.7-0.2-1c-0.1-0.2,0-0.4,0.1-0.6c0.5-0.5,0.8-1.1,0.8-1.8c0-1.4-1.3-2.6-2.7-2.6 c-0.2,0-0.3-0.1-0.4-0.2c-0.1-0.1-0.1-0.3-0.1-0.5c0.1-0.3,0.2-0.7,0.2-1c0-1.9-1.6-3.5-3.5-3.5c-0.4,0-0.8,0-1.1,0.1 c-0.2,0-0.3,0-0.4-0.1c-0.1-0.1-0.2-0.2-0.2-0.4v-0.1c-0.1-2.4-2.2-4.3-4.6-4.2c0,0,0,0-0.1,0c-1.4,0-2.7,0.6-3.6,1.6 c-0.2,0.2-0.4,0.2-0.6,0.1c-1.1-0.6-2.3-1-3.5-1c-3.1,0-5.7,2-5.7,4.4v0.4c0,0.2-0.1,0.4-0.3,0.5c-0.7,0.3-1.2,0.9-1.4,1.6 c-0.3,0.6-0.1,1.6,0.5,2.6c0.1,0.1,0.1,0.4,0.1,0.5c-0.1,0.2-0.3,0.3-0.5,0.3c-0.8,0-1.4,0.5-1.4,1.3c0,0.2,0,0.3,0,0.5 c0.1,0.3,0.3,1.5,0.6,3.6c0.3,1.7,0.6,3.6,0.7,3.8c0,0.1,0,0.3-0.1,0.4c-0.1,0.1-0.2,0.2-0.4,0.2c-0.4,0-1,0.1-1.3,0.4 c-0.3,0.4-0.1,0.9,0,1.3c0,0.1,0.6,2.7,1,3.9c0.1,0.5,0.5,0.9,1,0.9c0,0,0,0,0,0c0.1,0,0.3,0.1,0.4,0.1c0.1,0.1,0.1,0.2,0.1,0.4 v2.5c0,0.9,0.2,1.8,0.8,2.5c1.4,2.1,3.3,3.9,5.5,5.1c0.2,0.1,0.3,0.3,0.2,0.5c-0.1,1-0.2,1.9-0.4,2.8c-0.1,0.7-0.6,1.3-1.3,1.6 L36,66.4c-0.8,0.2-1.4,0.5-2.1,0.9c-1.4,1-2.5,2.5-3,4.2c-0.1,0.3-0.2,2.4-0.2,4.2C30.6,77.4,30.5,79.3,30.4,80.4z"/><g><path fill="#fdfcee" d="M69.7 57.699999999999996A14.4 14.4 0 1 0 69.7 86.5A14.4 14.4 0 1 0 69.7 57.699999999999996Z"/><path fill="#472b29" d="M69.7,86.9c-8.2,0-14.8-6.6-14.8-14.8c0-8.2,6.6-14.8,14.8-14.8s14.8,6.6,14.8,14.8 C84.5,80.2,77.8,86.9,69.7,86.9z M69.7,58c-7.8,0-14.1,6.3-14.1,14.1s6.3,14.1,14.1,14.1s14.1-6.3,14.1-14.1S77.4,58,69.7,58z"/></g><g><path fill="#f1bc19" d="M69.7 60.199999999999996A11.9 11.9 0 1 0 69.7 84A11.9 11.9 0 1 0 69.7 60.199999999999996Z"/><path fill="#472b29" d="M69.7,84.2c-6.7,0-12.2-5.5-12.2-12.2c0-6.7,5.5-12.2,12.2-12.2s12.2,5.5,12.2,12.2 C81.8,78.8,76.4,84.2,69.7,84.2z M69.7,60.4c-6.4,0-11.7,5.2-11.7,11.7s5.2,11.7,11.7,11.7s11.7-5.2,11.7-11.7 S76.1,60.4,69.7,60.4z"/></g><path fill="#fbcd59" d="M69.6,61.9c5.1,0,9.7,3.2,11.5,8 c-1.2-6.4-7.4-10.5-13.7-9.3c-4.7,0.9-8.4,4.6-9.3,9.3C59.9,65.1,64.5,61.9,69.6,61.9z" opacity=".79"/><g><path fill="#fdfcee" d="M75.7,66.6L75.7,66.6c-0.7-0.7-1.6-0.9-2-0.5l-8.1,8.1C65,75.4,64.5,76.7,64,78c0,0.1,0,0.1,0,0.2 l0.1,0.1c0.1,0.1,0.2,0.1,0.3,0c1.3-0.5,2.6-1,3.8-1.6l8.1-8.1C76.6,68.2,76.4,67.3,75.7,66.6z"/><path fill="#472b29" d="M64.2,78.6c-0.1,0-0.2,0-0.3-0.1l-0.1-0.1c0,0,0,0,0,0c-0.1-0.1-0.1-0.3,0-0.4 c0.5-1.3,1-2.6,1.6-3.9c0,0,0,0,0-0.1l8.1-8.1c0.2-0.2,0.4-0.3,0.7-0.3c0,0,0,0,0,0c0.5,0,1.1,0.3,1.6,0.8 c0.5,0.5,0.8,1.1,0.8,1.7c0,0.3-0.1,0.5-0.3,0.7l-8.1,8.1c0,0,0,0-0.1,0c-1.2,0.6-2.5,1.2-3.8,1.6C64.4,78.5,64.3,78.6,64.2,78.6 z M64.2,78.1L64.2,78.1c1.3-0.5,2.6-1,3.8-1.6l8-8c0.1-0.1,0.1-0.2,0.1-0.4c0-0.4-0.3-0.9-0.7-1.3l0,0c-0.4-0.4-0.9-0.7-1.3-0.7 c0,0,0,0,0,0c-0.2,0-0.3,0-0.3,0.1l-8,8C65.2,75.5,64.7,76.8,64.2,78.1z M68.1,76.7L68.1,76.7L68.1,76.7z"/></g><path fill="#472b29" d="M74.5 70.4C74.5 70.4 74.5 70.4 74.5 70.4l-2.6-2.6c0 0 0-.1 0-.2 0 0 .1 0 .2 0l2.5 2.5C74.7 70.3 74.7 70.3 74.5 70.4 74.6 70.4 74.6 70.4 74.5 70.4zM67.9 76.8C67.9 76.8 67.9 76.8 67.9 76.8l-2.4-2.4c0 0 0-.1 0-.2s.1 0 .2 0l2.3 2.4C68.1 76.7 68.1 76.7 67.9 76.8 68 76.8 68 76.8 67.9 76.8zM65.4 77.9C65.4 77.9 65.4 77.9 65.4 77.9l-1-.9c0 0 0-.1 0-.2s.1 0 .2 0l.9.9C65.6 77.7 65.6 77.8 65.4 77.9 65.5 77.9 65.5 77.9 65.4 77.9z"/></svg>