<svg xmlns="http://www.w3.org/2000/svg" viewBox="0 0 128 128"><path fill="#444b54" d="M45.9 52.2l-15-20c-.8-1-2.1-1.5-3.3-1-1.2.4-2.1 1.6-2.1 2.8v20c0 1.7 1.3 3 3 3s3-1.3 3-3V43l9.6 12.8c.6.8 1.5 1.2 2.4 1.2.6 0 1.3-.2 1.8-.6C46.6 55.4 46.9 53.5 45.9 52.2zM41.4 71.7c-1.3-1-3.2-.8-4.2.5l-2.5 3.2c-1 1.3-.8 3.2.5 4.2.6.4 1.2.7 1.9.7.9 0 1.8-.4 2.3-1.1l2.5-3.2C42.9 74.6 42.7 72.7 41.4 71.7zM34.5 83.6c0-.1 0-.2 0-.3 0-.1-.1-.2-.1-.3 0-.1-.1-.2-.1-.3 0-.1-.1-.2-.1-.2-.1-.1-.1-.2-.2-.3 0 0 0-.1-.1-.1l-8-10c-1-1.3-2.9-1.5-4.2-.5-1.3 1-1.5 2.9-.5 4.2l7.3 9.2V94c0 1.7 1.3 3 3 3s3-1.3 3-3V84c0 0 0-.1 0-.1C34.5 83.8 34.5 83.7 34.5 83.6zM93.5 57c.4 0 .7-.1 1.1-.2 1.6-.6 2.3-2.3 1.8-3.9l-7.5-20C88.4 31.8 87.3 31 86 31s-2.4.8-2.8 1.9l-4.1 11-2.7-10.7c-.4-1.6-2-2.6-3.6-2.2-1.6.4-2.6 2-2.2 3.6l5 20c.3 1.3 1.4 2.2 2.7 2.3 1.3.1 2.5-.7 3-1.9L86 42.5l4.7 12.5C91.1 56.3 92.3 57 93.5 57zM96 43.9c.2.1.5.1.7.1 1.3 0 2.6-.9 2.9-2.3l1.8-7c.4-1.6-.6-3.2-2.2-3.6-1.6-.4-3.2.6-3.6 2.2l-1.8 7C93.4 41.9 94.4 43.5 96 43.9zM66.5 54c0-1.7-1.3-3-3-3h-7V37h7c1.7 0 3-1.3 3-3s-1.3-3-3-3h-10c-1.7 0-3 1.3-3 3v20c0 1.7 1.3 3 3 3h10C65.2 57 66.5 55.7 66.5 54z"/><path fill="#444b54" d="M63 42.3c-.1-.2-.2-.3-.4-.5-.7-.7-1.7-1-2.7-.8-.2 0-.4.1-.6.2-.2.1-.3.2-.5.3-.2.1-.3.2-.4.4s-.3.3-.4.5c-.1.2-.2.3-.3.5-.1.2-.1.4-.2.6 0 .2-.1.4-.1.6 0 .2 0 .4.1.6 0 .2.1.4.2.6.1.2.2.4.3.5.1.2.2.3.4.4.1.1.3.3.4.4.2.1.3.2.5.3.2.1.4.1.6.2.2 0 .4.1.6.1.8 0 1.6-.3 2.1-.9.1-.1.3-.3.4-.4.1-.2.2-.3.3-.5.1-.2.1-.4.2-.6 0-.2.1-.4.1-.6 0-.2 0-.4-.1-.6 0-.2-.1-.4-.2-.6C63.2 42.7 63.1 42.5 63 42.3zM61.5 74c0-1.7-1.3-3-3-3h-10c-1.7 0-3 1.3-3 3v20c0 1.7 1.3 3 3 3h10c1.7 0 3-1.3 3-3s-1.3-3-3-3h-7V77h7C60.2 77 61.5 75.7 61.5 74z"/><path fill="#444b54" d="M58 82.3c-.1-.2-.2-.3-.4-.5-.1-.1-.3-.3-.4-.4-.2-.1-.3-.2-.5-.3-.2-.1-.4-.1-.6-.2-1-.2-2 .1-2.7.8-.1.1-.3.3-.4.5-.1.2-.2.3-.3.5-.1.2-.1.4-.2.6 0 .2-.1.4-.1.6 0 .2 0 .4.1.6 0 .2.1.4.2.6.1.2.2.4.3.5.1.2.2.3.4.4.6.6 1.3.9 2.1.9.2 0 .4 0 .6-.1.2 0 .4-.1.6-.2.2-.1.4-.2.5-.3.2-.1.3-.2.4-.4.1-.1.3-.3.4-.4.1-.2.2-.3.3-.5.1-.2.1-.4.2-.6 0-.2.1-.4.1-.6 0-.2 0-.4-.1-.6 0-.2-.1-.4-.2-.6C58.2 82.7 58.1 82.5 58 82.3zM104.6 89.9c-1.2-1.2-3.1-1.2-4.2 0-1.2 1.2-1.2 3.1 0 4.2l2 2c.6.6 1.4.9 2.1.9s1.5-.3 2.1-.9c1.2-1.2 1.2-3.1 0-4.2L104.6 89.9z"/><path fill="#444b54" d="M107.5 80c0-5-4-9-9-9h-6c-1.7 0-3 1.3-3 3v20c0 1.7 1.3 3 3 3s3-1.3 3-3v-5h3C103.5 89 107.5 85 107.5 80zM98.5 83h-3v-6h3c1.7 0 3 1.3 3 3S100.2 83 98.5 83zM78.3 73c-.4-1.2-1.6-2-2.8-2s-2.4.8-2.8 2l-7 20c-.5 1.6.3 3.3 1.8 3.8 1.6.5 3.3-.3 3.8-1.8l.7-2h1.5c1.7 0 3-1.3 3-3 0-1.4-1-2.7-2.4-2.9l1.4-4L79.7 95c.4 1.2 1.6 2 2.8 2 .3 0 .7-.1 1-.2 1.6-.5 2.4-2.3 1.8-3.8L78.3 73zM43.5 44c1.7 0 3-1.3 3-3v-7c0-1.7-1.3-3-3-3s-3 1.3-3 3v7C40.5 42.7 41.8 44 43.5 44z"/></svg>