<svg xmlns="http://www.w3.org/2000/svg" viewBox="0 0 80 80"><path d="M 40 6 C 39.039063 6 38.214844 6.414063 37.640625 7.085938 C 30.195313 7.667969 26.507813 11.136719 25.015625 14.871094 C 23.558594 18.5 23.953125 22.273438 23.988281 23.703125 C 23.859375 23.910156 23.707031 24.171875 23.574219 24.503906 C 23.269531 25.257813 23 26.390625 23 28 C 23 30.300781 24.050781 33.3125 24.050781 33.3125 C 24.023438 33.472656 24 33.632813 24 33.800781 C 24 34.449219 24.195313 35.003906 24.355469 35.546875 C 24.433594 35.820313 24.511719 36.074219 24.5625 36.265625 C 24.613281 36.457031 24.625 36.644531 24.625 36.5 C 24.625 37.859375 25.765625 38.921875 27.109375 38.96875 C 27.292969 42.84375 29.160156 46.265625 32 48.519531 L 32 52.25 C 30.558594 52.6875 27.097656 53.804688 23.574219 55.46875 C 21.273438 56.554688 18.960938 57.863281 17.160156 59.414063 C 15.359375 60.964844 14 62.820313 14 65 L 14 71 L 66 71 L 66 65 C 66 62.820313 64.640625 60.964844 62.839844 59.414063 C 61.039063 57.863281 58.726563 56.554688 56.425781 55.46875 C 52.902344 53.804688 49.441406 52.6875 48 52.25 L 48 48.523438 C 50.839844 46.269531 52.707031 42.847656 52.890625 38.96875 C 54.234375 38.921875 55.375 37.859375 55.375 36.5 C 55.375 36.644531 55.386719 36.457031 55.4375 36.265625 C 55.488281 36.074219 55.566406 35.820313 55.644531 35.546875 C 55.804688 35.003906 56 34.449219 56 33.800781 C 56 33.632813 55.976563 33.46875 55.945313 33.3125 L 55.949219 33.3125 C 55.949219 33.3125 57 30.300781 57 28 C 57 26.390625 56.730469 25.257813 56.425781 24.503906 C 56.292969 24.171875 56.144531 23.90625 56.011719 23.703125 C 56.046875 22.300781 56.398438 18.554688 54.929688 14.9375 C 53.417969 11.207031 49.746094 7.71875 42.363281 7.101563 C 41.792969 6.421875 40.96875 6 40 6 Z M 40 8 C 40.640625 8 41.003906 8.375 41 8.359375 C 41.132813 8.742188 41.476563 9.003906 41.875 9.03125 C 42.304688 9.0625 42.71875 9.101563 43.113281 9.148438 L 43.09375 9.925781 L 43.296875 10.214844 L 43.371094 10.28125 L 44.222656 10.558594 L 44.953125 10.039063 L 44.96875 9.453125 C 49.828125 10.480469 51.984375 12.996094 53.078125 15.6875 C 54.105469 18.222656 54.078125 20.726563 54.023438 22.507813 C 53.03125 22.121094 51.53125 21.617188 49.617188 21.15625 L 49.839844 20.902344 L 49.863281 20.546875 L 49.855469 20.449219 L 49.375 19.691406 L 48.480469 19.625 L 47.890625 20.300781 L 47.863281 20.65625 L 47.875 20.753906 L 47.894531 20.785156 C 45.640625 20.339844 43 20 40 20 C 37.003906 20 34.371094 20.339844 32.117188 20.78125 L 32.125 20.753906 L 32.136719 20.65625 L 31.816406 19.816406 L 30.957031 19.566406 L 30.246094 20.109375 L 30.144531 20.449219 L 30.136719 20.546875 L 30.367188 21.15625 C 28.457031 21.621094 26.960938 22.125 25.96875 22.511719 C 25.90625 20.695313 25.851563 18.160156 26.871094 15.613281 C 27.949219 12.921875 30.109375 10.417969 35.035156 9.421875 L 34.9375 9.703125 L 35.441406 10.441406 L 36.339844 10.484375 L 36.628906 10.28125 L 36.703125 10.214844 L 36.988281 9.367188 L 36.832031 9.132813 C 37.246094 9.089844 37.675781 9.050781 38.125 9.023438 C 38.519531 8.996094 38.867188 8.738281 39 8.359375 C 38.996094 8.371094 39.367188 8 40 8 Z M 46.527344 11.78125 L 45.691406 12.113281 L 45.460938 12.980469 L 45.59375 13.308594 L 45.644531 13.390625 L 46.40625 13.859375 L 47.238281 13.53125 L 47.472656 12.664063 L 47.34375 12.335938 L 47.289063 12.25 Z M 33.828125 11.8125 L 32.949219 11.988281 L 32.710938 12.25 L 32.65625 12.335938 L 32.578125 13.230469 L 33.242188 13.828125 L 34.121094 13.65625 L 34.355469 13.390625 L 34.40625 13.308594 L 34.488281 12.414063 Z M 31.96875 15.542969 L 31.160156 15.933594 L 31 16.246094 L 30.96875 16.339844 L 31.113281 17.222656 L 31.90625 17.636719 L 32.714844 17.25 L 32.878906 16.9375 L 32.90625 16.839844 L 32.765625 15.953125 Z M 48.378906 15.597656 L 47.488281 15.710938 L 47.046875 16.488281 L 47.09375 16.839844 L 47.121094 16.9375 L 47.746094 17.578125 L 48.632813 17.46875 L 49.074219 16.6875 L 49.03125 16.339844 L 49 16.246094 Z M 40 22 C 45.351563 22 49.566406 23.074219 52.058594 23.914063 C 51.925781 24.035156 51.832031 24.191406 51.78125 24.363281 C 51.449219 25.507813 50.734375 26.753906 49.949219 27.652344 C 49.164063 28.550781 48.273438 29 48 29 C 46.332031 29 43.226563 28 40.074219 28 C 36.917969 28 33.667969 29 32 29 C 31.726563 29 30.835938 28.550781 30.050781 27.652344 C 29.265625 26.753906 28.550781 25.507813 28.21875 24.363281 C 28.167969 24.191406 28.074219 24.035156 27.941406 23.914063 C 30.433594 23.074219 34.648438 22 40 22 Z M 25.472656 25.144531 C 25.832031 25.257813 25.976563 25.308594 26.53125 25.464844 C 26.664063 25.84375 26.824219 26.214844 27 26.578125 L 27 31.027344 C 26.945313 31.019531 26.960938 31 26.875 31 C 26.410156 31 25.96875 31.121094 25.578125 31.320313 C 25.300781 30.28125 25 28.980469 25 28 C 25 26.609375 25.230469 25.742188 25.425781 25.246094 C 25.449219 25.191406 25.457031 25.1875 25.472656 25.144531 Z M 54.527344 25.144531 C 54.542969 25.1875 54.550781 25.191406 54.574219 25.246094 C 54.769531 25.742188 55 26.609375 55 28 C 55 28.980469 54.699219 30.28125 54.421875 31.324219 C 54.027344 31.125 53.589844 31 53.125 31 C 53.039063 31 53.054688 31.019531 53 31.027344 L 53 26.582031 C 53.171875 26.214844 53.335938 25.84375 53.46875 25.464844 C 54.023438 25.308594 54.167969 25.257813 54.527344 25.144531 Z M 29 29.441406 C 29.867188 30.328125 30.832031 31 32 31 C 34.332031 31 37.371094 30 40.074219 30 C 42.773438 30 45.667969 31 48 31 C 49.167969 31 50.132813 30.332031 51 29.445313 L 51 34.304688 L 52.503906 33.421875 C 52.761719 33.273438 53 33.140625 53.167969 33.054688 C 53.1875 33.042969 53.195313 33.042969 53.214844 33.03125 C 53.671875 33.082031 54 33.398438 54 33.800781 C 54 33.875 53.878906 34.460938 53.726563 34.984375 C 53.648438 35.242188 53.570313 35.503906 53.503906 35.742188 C 53.441406 35.980469 53.375 36.148438 53.375 36.5 C 53.375 36.765625 53.15625 37 52.8125 37 L 51 37 L 51 38.367188 C 51 43.789063 47.089844 48.269531 41.941406 49.1875 L 41.65625 49.234375 L 41.441406 49.433594 C 41.050781 49.789063 40.558594 50 40 50 C 39.441406 50 38.949219 49.789063 38.558594 49.433594 L 38.34375 49.234375 L 38.058594 49.1875 C 32.910156 48.269531 29 43.789063 29 38.367188 L 29 37 L 27.1875 37 C 26.84375 37 26.625 36.765625 26.625 36.5 C 26.625 36.148438 26.558594 35.980469 26.492188 35.742188 C 26.425781 35.503906 26.347656 35.242188 26.269531 34.984375 C 26.117188 34.460938 26 33.875 26 33.800781 C 26 33.398438 26.328125 33.078125 26.785156 33.03125 C 26.804688 33.042969 26.8125 33.042969 26.832031 33.054688 C 27 33.140625 27.238281 33.273438 27.496094 33.421875 L 29 34.304688 Z M 34.5 33 C 33.671875 33 33 33.671875 33 34.5 C 33 35.328125 33.671875 36 34.5 36 C 35.328125 36 36 35.328125 36 34.5 C 36 33.671875 35.328125 33 34.5 33 Z M 45.5 33 C 44.671875 33 44 33.671875 44 34.5 C 44 35.328125 44.671875 36 45.5 36 C 46.328125 36 47 35.328125 47 34.5 C 47 33.671875 46.328125 33 45.5 33 Z M 34 49.824219 C 35.066406 50.382813 36.21875 50.8125 37.441406 51.058594 C 38.148438 51.621094 39.023438 52 40 52 C 40.972656 52 41.84375 51.621094 42.546875 51.0625 C 43.773438 50.820313 44.929688 50.390625 46 49.828125 L 46 55.6875 C 45.878906 55.929688 44.296875 59 40 59 C 35.703125 59 34.121094 55.929688 34 55.6875 Z M 32 54.355469 L 32 56.234375 L 32.105469 56.449219 C 32.105469 56.449219 34.464844 61 40 61 C 45.535156 61 47.894531 56.449219 47.894531 56.449219 L 48 56.234375 L 48 54.355469 C 49.605469 54.859375 52.546875 55.851563 55.574219 57.28125 C 57.773438 58.320313 59.960938 59.574219 61.535156 60.929688 C 63.109375 62.285156 64 63.679688 64 65 L 64 69 L 16 69 L 16 65 C 16 63.679688 16.890625 62.285156 18.464844 60.929688 C 20.039063 59.574219 22.226563 58.320313 24.425781 57.28125 C 27.453125 55.851563 30.394531 54.859375 32 54.355469 Z M 20 65 C 19.449219 65 19 65.449219 19 66 C 19 66.550781 19.449219 67 20 67 C 20.550781 67 21 66.550781 21 66 C 21 65.449219 20.550781 65 20 65 Z M 24 65 C 23.449219 65 23 65.449219 23 66 C 23 66.550781 23.449219 67 24 67 C 24.550781 67 25 66.550781 25 66 C 25 65.449219 24.550781 65 24 65 Z M 28 65 C 27.449219 65 27 65.449219 27 66 C 27 66.550781 27.449219 67 28 67 C 28.550781 67 29 66.550781 29 66 C 29 65.449219 28.550781 65 28 65 Z M 32 65 C 31.449219 65 31 65.449219 31 66 C 31 66.550781 31.449219 67 32 67 C 32.550781 67 33 66.550781 33 66 C 33 65.449219 32.550781 65 32 65 Z M 36 65 C 35.449219 65 35 65.449219 35 66 C 35 66.550781 35.449219 67 36 67 C 36.550781 67 37 66.550781 37 66 C 37 65.449219 36.550781 65 36 65 Z M 40 65 C 39.449219 65 39 65.449219 39 66 C 39 66.550781 39.449219 67 40 67 C 40.550781 67 41 66.550781 41 66 C 41 65.449219 40.550781 65 40 65 Z M 44 65 C 43.449219 65 43 65.449219 43 66 C 43 66.550781 43.449219 67 44 67 C 44.550781 67 45 66.550781 45 66 C 45 65.449219 44.550781 65 44 65 Z M 48 65 C 47.449219 65 47 65.449219 47 66 C 47 66.550781 47.449219 67 48 67 C 48.550781 67 49 66.550781 49 66 C 49 65.449219 48.550781 65 48 65 Z M 52 65 C 51.449219 65 51 65.449219 51 66 C 51 66.550781 51.449219 67 52 67 C 52.550781 67 53 66.550781 53 66 C 53 65.449219 52.550781 65 52 65 Z M 56 65 C 55.449219 65 55 65.449219 55 66 C 55 66.550781 55.449219 67 56 67 C 56.550781 67 57 66.550781 57 66 C 57 65.449219 56.550781 65 56 65 Z M 60 65 C 59.449219 65 59 65.449219 59 66 C 59 66.550781 59.449219 67 60 67 C 60.550781 67 61 66.550781 61 66 C 61 65.449219 60.550781 65 60 65 Z"/></svg>