<svg xmlns="http://www.w3.org/2000/svg" viewBox="0 0 48 48"><path fill="#8BC34A" d="M12.6,48c0,0-4.2-1.5-4.4-1.6C8.1,46.4,5,45.7,5,45.7l-1-1.4l2.5-4.6l3.6-3.4l7.8-5.3l1.6-4.1l1.8-1.8l0.2-1.9l1.6-1.8l1.6,2.9l2-1.2l1.3,0.9l-0.5,1.7l0.5,1l-2.6,4.7l-1.7,1.1l-0.1,1.2l1.4,1.1L24.1,36l-3.6,0.8l-1.8,1.5l-0.5,3L16,45.3L12.6,48z M32.1,26.1L30,24.8l1.8-2.8L31,19l-3.6-1.5l-0.1-1.2l2.5-1.5l0.6-3l-1.3-5.3l-3.9-5.7L27.7,0L30,4.6l3.1,2.5l1.1,3.1l3.7,1.6l2.5-1.8l1.6,0.5l-0.7,3.3l-1.1,2.6l-2.6,0.1l-0.1,1.8l-2.1,4.5l-1.2,2.1L32.1,26.1z"/><path fill="#2196F3" d="M44,36c0,5.5-4.5,10-10,10c-5.5,0-10-4.5-10-10c0-5.5,4.5-10,10-10C39.5,26,44,30.5,44,36"/><path fill="#EEE" d="M41,36c0,3.9-3.1,7-7,7c-3.9,0-7-3.1-7-7c0-3.9,3.1-7,7-7C37.9,29,41,32.1,41,36"/><path fill="#FF3D00" d="M38.9 31.1L35.4 37.4 32.6 34.6z"/><path fill="#3F51B5" d="M29.1 40.9L35.4 37.4 32.6 34.6z"/><path fill="#FFF" d="M34 35A1 1 0 1 0 34 37A1 1 0 1 0 34 35Z"/></svg>